<?xml version="1.0" encoding="UTF-8" standalone="no"?>
<!-- Created with Inkscape (http://www.inkscape.org/) -->
<svg
   xmlns:dc="http://purl.org/dc/elements/1.1/"
   xmlns:cc="http://creativecommons.org/ns#"
   xmlns:rdf="http://www.w3.org/1999/02/22-rdf-syntax-ns#"
   xmlns:svg="http://www.w3.org/2000/svg"
   xmlns="http://www.w3.org/2000/svg"
   xmlns:sodipodi="http://sodipodi.sourceforge.net/DTD/sodipodi-0.dtd"
   xmlns:inkscape="http://www.inkscape.org/namespaces/inkscape"
   id="svg1"
   sodipodi:version="0.32"
   inkscape:version="0.46"
   width="100%"
   height="100%"
   sodipodi:docbase="/home/nicu"
   sodipodi:docname="carpenter.svg"
   inkscape:output_extension="org.inkscape.output.svg.inkscape"
   version="1.0"
   viewBox="0 0 86.705921 91.297737"
   inkscape:export-filename="/home/will/media/image/abstract person/carpenter/carpenter.png"
   inkscape:export-xdpi="375.25424"
   inkscape:export-ydpi="375.25424">
  <metadata
     id="metadata2457" />
  <defs
     id="defs3">
    <inkscape:perspective
       sodipodi:type="inkscape:persp3d"
       inkscape:vp_x="0 : 50 : 1"
       inkscape:vp_y="0 : 1000 : 0"
       inkscape:vp_z="100 : 50 : 1"
       inkscape:persp3d-origin="50 : 33.333333 : 1"
       id="perspective2461" />
    <inkscape:perspective
       sodipodi:type="inkscape:persp3d"
       inkscape:vp_x="0 : 526.18109 : 1"
       inkscape:vp_y="0 : 1000 : 0"
       inkscape:vp_z="744.09448 : 526.18109 : 1"
       inkscape:persp3d-origin="372.04724 : 350.78739 : 1"
       id="perspective3337" />
    <inkscape:perspective
       id="perspective3976"
       inkscape:persp3d-origin="50 : 33.333333 : 1"
       inkscape:vp_z="100 : 50 : 1"
       inkscape:vp_y="0 : 1000 : 0"
       inkscape:vp_x="0 : 50 : 1"
       sodipodi:type="inkscape:persp3d" />
  </defs>
  <sodipodi:namedview
     id="base"
     pagecolor="#ffffff"
     bordercolor="#666666"
     borderopacity="1.0"
     inkscape:pageopacity="0.0"
     inkscape:pageshadow="2"
     inkscape:zoom="2"
     inkscape:cx="25.40371"
     inkscape:cy="13.11794"
     inkscape:window-width="797"
     inkscape:window-height="672"
     inkscape:window-x="-1"
     inkscape:window-y="25"
     showgrid="false"
     inkscape:current-layer="svg1" />
  <path
     id="path861"
     d="M 47.369279,1.619598 C 37.131479,1.619598 29.088029,10.767576 29.088029,18.963348 C 29.088029,24.556057 33.002139,29.369158 38.713029,31.900848 C 31.147329,33.356804 24.303779,35.867137 20.244279,39.713348 C 11.614239,51.1679 14.807179,60.176822 14.650529,61.807098 C 15.423269,62.673154 20.355869,65.998961 24.025529,65.744598 C 23.654349,58.258704 25.806779,47.775848 25.806779,47.775848 C 25.336829,48.152062 23.636279,62.282341 24.181779,65.775848 C 24.132319,65.780659 24.075469,65.741137 24.025529,65.744598 C 24.027469,65.783782 24.023449,65.830581 24.025529,65.869598 C 24.425519,72.35946 27.678159,87.271786 29.088029,88.525848 C 42.907189,90.509208 56.111019,90.240948 70.556779,88.838348 C 71.978658,81.851915 72.355892,75.011353 72.713029,67.869598 C 71.924199,56.826974 69.830569,49.331039 69.900529,49.494598 C 71.537009,54.298173 72.713029,67.869599 72.713029,67.869598 C 77.494709,67.055203 80.868849,66.221324 85.650529,63.525848 C 87.217049,61.895567 87.991929,52.59607 80.900529,39.932098 C 77.919649,34.608783 68.956659,31.650787 58.681779,30.807098 C 73.856163,19.962287 62.308494,3.3825226 47.369279,1.619598 z"
     style="fill:#000000;fill-opacity:0.5;fill-rule:evenodd;stroke-width:1pt"
     sodipodi:nodetypes="csccccccssccccccscc" />
  <g
     id="g836"
     transform="translate(-8.2869708,-7.974152)">
    <path
       sodipodi:nodetypes="ccccccccccccc"
       id="path828"
       d="M 18.815381,66.311465 C 18.97203,64.68119 15.769036,55.67184 24.399078,44.217288 C 37.415368,31.884895 77.966373,31.743657 85.05778,44.40763 C 92.149187,57.071603 91.37708,66.40116 89.810561,68.031441 C 85.02888,70.726921 81.657068,71.541315 76.875385,72.35571 C 76.875385,72.35571 75.69771,58.800506 74.061235,53.996931 C 73.991268,53.83337 76.086553,61.317549 76.875385,72.360173 C 75.784402,83.277395 74.693413,93.316769 74.693413,93.316769 C 60.247656,94.719369 47.055114,94.993311 33.235956,93.009952 C 31.826092,91.755891 28.569868,76.850028 28.169873,70.360166 C 27.769878,62.867061 29.963002,52.268028 29.963002,52.268028 C 29.49305,52.644242 27.78103,66.766013 28.326527,70.25952 C 24.64242,70.617881 19.59864,67.189306 18.815381,66.311465 z"
       style="fill:#229a4e;fill-opacity:1;fill-rule:evenodd;stroke:#000000;stroke-width:1.25;stroke-linejoin:round;stroke-dasharray:none" />
    <path
       id="path827"
       d="M 70.32947,23.44657 C 70.32947,31.642344 62.020523,38.293988 51.782713,38.293988 C 41.544909,38.293988 33.235956,31.642344 33.235956,23.44657 C 33.235956,15.250797 41.544909,8.599152 51.782713,8.599152 C 62.020523,8.599152 70.32947,15.250797 70.32947,23.44657 z"
       style="fill:#613205;fill-opacity:1;fill-rule:evenodd;stroke:#000000;stroke-width:1.25;stroke-linejoin:round;stroke-dasharray:none" />
    <path
       sodipodi:nodetypes="ccc"
       id="path830"
       d="M 51.511942,9.7194887 C 43.435157,7.0272269 24.409841,21.026988 39.486506,33.590876 C 48.640196,31.796035 31.050752,17.257821 51.511942,9.7194887 z"
       style="fill:#ffffff;fill-opacity:0.25;fill-rule:evenodd;stroke:none;stroke-width:1pt;stroke-linecap:butt;stroke-linejoin:miter;stroke-opacity:1" />
    <path
       sodipodi:nodetypes="ccccc"
       id="path831"
       d="M 42.178768,37.180559 C 41.281348,37.001075 29.255912,39.154884 24.948292,45.07786 C 21.35861,47.231669 17.948412,57.462265 19.384285,65.718533 C 21.179126,67.154406 24.589324,69.4877 25.486745,68.949248 C 30.5123,58.359684 13.640793,47.411153 42.178768,37.180559 z"
       style="fill:#ffffff;fill-opacity:0.25;fill-rule:evenodd;stroke:none;stroke-width:1pt;stroke-linecap:butt;stroke-linejoin:miter;stroke-opacity:1" />
    <path
       sodipodi:nodetypes="cccc"
       id="path832"
       d="M 30.153332,55.12897 C 26.563649,66.077501 29.973848,85.641271 33.922499,92.102698 C 37.871149,93.359087 43.435157,93.89754 44.691545,93.538572 C 45.76845,84.384881 29.794364,85.64127 30.153332,55.12897 z"
       style="fill:#ffffff;fill-opacity:0.25;fill-rule:evenodd;stroke:none;stroke-width:1pt;stroke-linecap:butt;stroke-linejoin:miter;stroke-opacity:1" />
    <path
       sodipodi:nodetypes="ccc"
       id="path833"
       d="M 52.588846,37.539527 C 67.844996,33.411393 63.896346,17.078338 70.716742,21.56544 C 70.17829,24.975638 68.02448,37.001075 52.588846,37.539527 z"
       style="fill:#000000;fill-opacity:0.25;fill-rule:evenodd;stroke:none;stroke-width:1pt;stroke-linecap:butt;stroke-linejoin:miter;stroke-opacity:1" />
    <path
       sodipodi:nodetypes="cccc"
       id="path834"
       d="M 81.306305,70.564605 C 81.306305,70.564605 89.562574,68.949248 89.921543,67.333891 C 91.895869,61.051946 86.511345,46.154765 83.998567,43.641987 C 71.793647,39.334368 97.280392,68.590279 81.306305,70.564605 z"
       style="fill:#000000;fill-opacity:0.25;fill-rule:evenodd;stroke:none;stroke-width:1pt;stroke-linecap:butt;stroke-linejoin:miter;stroke-opacity:1" />
    <path
       sodipodi:nodetypes="cccc"
       id="path835"
       d="M 64.973251,93.538572 C 64.973251,93.538572 72.870552,94.077024 73.767972,92.641151 C 74.665393,91.205278 78.793528,78.64139 76.28075,72.53893 C 68.02448,65.718534 79.33198,93.359088 64.973251,93.538572 z"
       style="fill:#000000;fill-opacity:0.25;fill-rule:evenodd;stroke:none;stroke-width:1pt;stroke-linecap:butt;stroke-linejoin:miter;stroke-opacity:1" />
  </g>
  <metadata
     id="metadata2459">
    <rdf:RDF>
      <cc:Work
         rdf:about="">
        <dc:title>Clipart by Nicu Buculei - head1</dc:title>
        <dc:rights>
          <cc:Agent>
            <dc:title>Nicu Buculei</dc:title>
          </cc:Agent>
        </dc:rights>
        <dc:type
           rdf:resource="http://purl.org/dc/dcmitype/StillImage" />
        <cc:license
           rdf:resource="http://web.resource.org/cc/PublicDomain" />
        <dc:format>image/svg+xml</dc:format>
      </cc:Work>
      <cc:License
         rdf:about="http://web.resource.org/cc/PublicDomain">
        <cc:permits
           rdf:resource="http://web.resource.org/cc/Reproduction" />
        <cc:permits
           rdf:resource="http://web.resource.org/cc/Distribution" />
        <cc:permits
           rdf:resource="http://web.resource.org/cc/DerivativeWorks" />
      </cc:License>
    </rdf:RDF>
  </metadata>
  <g
     transform="matrix(0.1462986,-6.1906088e-2,6.1906088e-2,0.1462986,-4.2776598,51.859621)"
     style="overflow:visible"
     id="g4581">
    <path
       sodipodi:nodetypes="csssscssssssccssccccsssscsssscccccssssssssssssscssssscsssssssssssssssssc"
       id="path5"
       d="M 380.457,341.584 C 334.349,278.449 288.24,215.314 242.132,152.18 C 235.912,143.663 229.692,135.146 223.472,126.629 C 222.993,125.974 224.239,121.087 223.878,119.495 C 221.942,110.947 215.892,101.693 212.351,93.64 C 204.89,76.673 195.961,72.363 177.416,73.962 C 182.946,78.924 190.081,79.991 195.77,83.952 C 206.096,91.141 209.642,108.618 214.541,119.583 C 217.101,125.312 202.207,130.746 197.683,133.574 C 187.213,140.117 187.858,138.415 176.787,135.396 C 160.687,131.005 144.847,133.08 130.17,141.192 C 115.331,149.394 101.297,152.863 84.491,149.129 C 69.199,145.731 60.975,134.092 51.348,122.929 C 39.2,108.844 27.564,93.698 14.449,80.583 C 10.315,76.45 4.799,67.496 15.146,68.968 C 22.009,69.945 27.741,73.499 34.777,73.499 C 45.63,73.499 57.291,60.706 66.371,55.61 C 80.986,47.409 96.072,42.775 111.903,37.722 C 121.699,34.596 132.664,27.358 129.791,15.188 C 125.464,20.729 124.795,31.184 116.084,33.075 C 119.408,28.206 120.554,23.637 121.892,17.975 C 124.235,8.055 125.697,4.94 136.297,11.123 C 149.798,18.998 158.218,31.159 162.78,45.969 C 165.016,53.228 172.6383,67.354488 177.0723,73.687488 C 182.9953,82.145488 188.82267,77.75368 198.92867,76.88268 C 177.05167,66.86968 170.901,31.741 155.346,15.188 C 142.744,1.778 120.768,-9.905 114.227,12.98 C 112.688,18.365 112.636,25.579 108.418,29.126 C 102.221,34.337 87.564,36.063 79.264,39.812 C 66.112,45.752 54.001,52.899 42.21,61.185 C 42.231,61.155 42.756,60.678 42.675,60.721 C 32.18,71.797 3.986,48.959 0.163,69.781 C -2.018,81.656 18.328,97.811 25.054,105.495 C 35.647,117.599 46.615,132.671 57.776,142.958 C 53.323,146.316 43.402,153.545 43.606,160.381 C 43.74,164.87 46.296,166.334 49.645,168.279 C 51.831,169.549 56.651,167.419 56.991,170.137 C 57.306,172.658 57.074,176.401 58.472,178.733 C 60.089,181.432 61.576,182.454 64.514,183.612 C 73.68,187.227 73.57,182.158 75.78,193.252 C 76.222,195.469 79.149,198.154 81.357,198.596 C 84.379,199.2 87.472,199.175 90.547,199.336 C 93.822,199.508 91.839,205.466 93.088,208.004 C 94.554,210.982 95.857,212.547 99.011,213.813 C 101.609,214.854 105.469,214.417 108.201,214.633 C 111.424,214.887 109.547,220.568 110.742,223.105 C 111.825,225.404 112.993,227.675 115.504,228.68 C 116.835,229.212 118.333,229.372 119.752,229.45 C 129.714,229.989 124.358,230.273 128.166,237.276 C 129.626,239.962 129.854,241.651 132.581,243.548 C 133.786,244.386 135.818,244.476 137.211,244.586 C 147.014,245.359 142.197,245.328 145.823,252.376 C 147.131,254.919 147.211,256.611 149.772,258.531 C 156.304,263.431 161.747,255.721 163.101,266.547 C 164.547,278.1 179.469,271.722 180.436,279.207 C 182.121,292.254 196.832,287.096 197.975,294.424 C 199.893,306.712 214.705,303.353 215.515,309.641 C 217.165,322.453 232.314,317.999 233.171,324.857 C 233.644,328.635 233.961,331.756 237.12,334.149 C 240.265,336.531 249.909,334.836 250.31,337.402 C 250.881,341.063 250.866,345.988 253.847,348.786 C 256.919,351.669 267.622,350.305 267.93,352.698 C 268.433,356.602 268.449,361.03 271.501,363.886 C 274.559,366.747 285.33,365.798 285.585,367.834 C 286.158,372.415 286.053,376.113 289.39,379.45 C 292.399,382.459 302.564,380.144 303.045,383.13 C 304.905,394.669 307.409,396.415 319.139,397.033 C 320.871,397.124 322.178,405.927 326.094,407.559 C 330.155,409.252 332.998,407.084 335.852,405.003 C 341.495,400.889 346.198,392.652 350.651,387.337 C 358.586,377.864 366.521,368.392 374.457,358.919 C 378.586,353.991 385.147,348.339 380.457,341.584" />
    <path
       style="fill:#723800;fill-opacity:1"
       id="path7"
       d="M 163.012,47.479 C 160.857,37.23 155.181,27.106 147.796,19.718 C 143.674,15.595 130.172,3.64 124.215,8.682 C 119.966,12.279 119.768,27.679 116.084,33.075 C 124.795,31.184 125.464,20.729 129.791,15.188 C 132.345,26.008 122.959,34.564 113.529,37.257 C 98.259,41.619 83.606,46.328 69.559,53.893 C 59.283,59.427 48.696,70.878 37.563,73.266 C 31.021,74.669 24.625,71.31 18.514,69.782 C 11.046,67.913 5.077,70.982 12.124,78.028 C 23.1,89.005 32.871,101.509 43.04,113.298 C 52.963,124.804 62.672,140.354 77.056,146.677 C 92.115,153.297 108.815,151.649 123.36,144.863 C 137.849,138.103 152.302,129.864 169.043,133.504 C 172.054,134.159 186.412,140.619 188.225,139.486 C 197.281,133.826 206.335,128.167 215.391,122.507 C 215.943,122.162 203.082,89.329 198.556,85.928 C 193.71,82.286 185.884,78.578 180.203,76.287 C 173.07,73.409 165.995,75.045 157.641,75.837 C 153.99,76.183 153.426,85.748 149.77,88.949 C 140.385,97.164 123.443,94.798 111.902,100.447 C 100.694,105.933 94.161,122.497 79.843,118.917 C 67.161,115.745 62.897,102.338 69.158,91.62 C 81.458,70.563 117.573,55.676 141.174,58.864 C 119.606,55.087 70.303,66.513 64.511,92.316 C 60.548,73.53 102.521,57.426 115.911,55.466 C 133.549,52.885 155.041,52.446 155.344,76.054 C 162.7,75.357 170.057,74.66 177.413,73.964 C 169.625,66.539 166.319,57.13 163.012,47.479" />
    <path
       id="path9"
       d="M 141.176,58.862 C 141.794,59.036 142.381,59.219 143.034,59.327 C 142.381,59.219 141.794,59.036 141.176,58.862" />
    <path
       sodipodi:nodetypes="cccsscssccc"
       id="path11"
       d="M 153.16306,64.642942 C 146.39406,30.894942 59.054,66.435 64.514,92.314 C 70.225,66.871 121.751,53.2 143.035,59.327 C 121.806,53.767 52.188,79.231 67.999,109.738 C 80.757,134.354 99.439,106.547 111.904,100.446 C 126.719,93.194 154.028,98.03 155.347,76.053 C 150.279,75.071 148.256,86.422 141.873,88.83 C 131.01,92.929 119.134,91.27 108.316,97.452 C 98.792,102.894 84.677,125.765 72.876,109.738 C 51.94,81.307 148.95044,44.548244 149.80544,79.749244 C 156.77344,81.034244 156.27956,74.052244 154.15256,70.456244" />
    <path
       id="path13"
       d="M 52.664,74.427 C 53.884,73.207 53.884,73.207 52.664,74.427" />
    <path
       id="path15"
       d="M 54.291,72.336 C 55.276,71.691 54.107,72.457 54.291,72.336" />
    <path
       id="path17"
       d="M 55.221,70.477 C 55.221,70.167 55.221,70.167 55.221,70.477" />
    <path
       id="path19"
       d="M 48.251,59.559 C 48.469,59.559 48.469,59.559 48.251,59.559" />
    <path
       id="path21"
       d="M 44.068,60.023 C 43.704,60.4 43.704,60.4 44.068,60.023" />
    <path
       id="path23"
       d="M 47.09,59.327 C 46.723,59.703 46.723,59.703 47.09,59.327" />
    <path
       id="path25"
       d="M 45.463,59.559 C 45.273,59.929 45.273,59.929 45.463,59.559" />
    <path
       id="path27"
       d="M 210.17,121.353 C 201.088,126.083 193.006,132.867 183.454,131.111 C 173.705,129.319 166.298,125.437 155.81,126.465 C 136.742,128.333 122.206,142.679 103.306,144.354 C 82.539,146.194 70.896,135.942 58.108,121.994 C 44.691,107.357 31.64,92.047 18.979,76.75 C 29.702,79.776 41.896,80.477 49.413,70.709 C 34.894,81.286 26.758,72.005 12.243,72.336 C 19.012,84.569 32.275,95.592 41.485,106.337 C 55.201,122.339 67.007,141.59 88.501,146.545 C 112.216,152.014 127.583,134.11 149.465,130.463 C 160.694,128.592 171.172,129.402 181.787,133.648 C 191.594,137.571 202.575,126.949 210.17,121.353" />
    <path
       style="fill:#ffffff"
       id="path29"
       d="M 17.817,79.073 L 17.817,78.841 L 17.817,79.073 z" />
    <path
       style="fill:#723800;fill-opacity:1"
       sodipodi:nodetypes="cssccccsscc"
       id="path31"
       d="M 112.6,40.974 C 120.403,39.584 128.018,35.002 131.419,27.036 C 132.822,23.748 136.249,12.667 130.023,11.703 C 124.932,10.915 120.634,26.88 116.085,30.055 C 119.094,31.083 119.528,31.744 118.873,34.469 C 125.364,27.403 124.066,18.383 127.238,10.309 C 127.293,10.44 126.246,10.708 126.308,10.774 C 147.744,14.633 155.313,36.611 161.62,54.215 C 165.747,65.735 172.022,75.593 182.76,81.86 C 187.683,84.733 195.635,85.521 198.325,91.152 C 170.51,73.363 151.72498,55.768239 123.20098,39.103239" />
    <path
       style="fill:#ffffff"
       id="path33"
       d="M 201.112,89.527 C 201.224,89.414 201.216,89.421 201.112,89.527" />
    <path
       id="path35"
       d="M 188.101,99.981 C 167.294,97.596 175.242,134.831 192.747,122.283 C 187.89,124.446 182.089,123.062 179.042,118.566 C 191.811,131.694 207.391,103.289 188.101,99.981" />
    <path
       id="path37"
       d="M 134.207,110.667 C 132.793,119.961 140.899,131.982 151.165,123.908 C 146.307,126.272 140.612,124.775 137.457,120.424 C 145.124,127.2 158.649,120.598 155.578,109.854 C 152.222,98.11 136.428,100.339 134.207,110.667" />
    <path
       id="path39"
       d="M 95.41,126 C 93.763,135.988 102.252,146.183 112.599,139.242 C 107.611,141.278 101.895,140.023 98.661,135.525 C 105.978,142.802 119.782,135.668 116.782,125.188 C 113.514,113.772 97.736,114.935 95.41,126" />
    <path
       style="fill:#bfbfbf"
       id="path41"
       d="M 114.46,129.02 C 112.931,139.866 96.318,137.215 97.965,126.464 C 99.651,115.451 116.607,118.688 114.46,129.02" />
    <path
       id="path43"
       d="M 112.369,127.626 C 111.593,133.588 104.814,135.367 100.522,131.807 C 104.624,139.145 117.92,130.655 111.904,123.445 C 112.414,124.781 112.31,127.199 112.369,127.626" />
    <path
       id="path45"
       d="M 107.722,122.051 C 105.413,123.703 105.332,129.499 104.702,133.434 C 105.166,133.512 105.631,133.589 106.095,133.667 C 106.638,129.794 107.18,125.923 107.722,122.051" />
    <path
       style="fill:#bfbfbf"
       id="path47"
       d="M 153.254,113.687 C 152.144,124.636 134.905,122.054 136.761,111.132 C 138.685,99.81 155.806,104.246 153.254,113.687" />
    <path
       id="path49"
       d="M 151.165,112.526 C 150.125,118.469 143.064,120.424 139.084,116.243 C 144.686,124.305 156.742,115.344 150.235,107.88 C 151.425,109.573 150.936,110.826 151.165,112.526" />
    <path
       id="path51"
       d="M 141.176,107.415 C 141.324,110.495 145.505,113.828 148.145,116.707 C 148.455,116.475 148.764,116.243 149.073,116.01 C 146.441,113.145 143.808,110.28 141.176,107.415" />
    <path
       style="fill:#bfbfbf"
       id="path53"
       d="M 194.839,112.061 C 193.182,122.906 176.524,120.234 178.111,109.507 C 179.738,98.517 196.858,101.681 194.839,112.061" />
    <path
       id="path55"
       d="M 192.748,110.667 C 191.93,116.619 185.092,118.454 180.9,114.848 C 184.501,121.913 199.006,114.244 191.82,106.252 C 192.737,107.805 192.607,109.872 192.748,110.667" />
    <path
       id="path57"
       d="M 191.354,108.345 C 188.523,107.942 184.525,111.861 181.365,114.153 C 181.597,114.463 181.83,114.773 182.062,115.082 C 185.159,112.836 188.256,110.59 191.354,108.345" />
    <path
       style="fill:#cfccb9;fill-opacity:1"
       id="path59"
       d="M 205.99,134.13 C 238.318,178.381 270.646,222.633 302.974,266.884 C 320.004,290.197 337.036,313.508 354.066,336.82 C 355.449,338.713 361.924,345.059 360.161,347.161 C 351.129,357.925 342.097,368.687 333.064,379.451 C 337.175,372.883 357.384,349.343 352.841,343.115 C 343.923,330.888 335.005,318.661 326.086,306.434 C 295.333,264.272 264.58,222.109 233.826,179.946 C 224.177,166.717 214.527,153.488 204.878,140.258 C 201.873,136.139 202.673,136.437 197.788,139.479 C 187.402,145.949 186.127,144.187 174.963,140.997 C 159.033,136.446 143.162,142.258 129.413,150.219 C 115.142,158.483 100.853,162.334 84.381,160.062 C 77.59,159.125 72.164,154.949 65.905,153.645 C 62.014,152.834 63.23,149.119 59.789,152.559 C 57.181,155.166 54.574,157.774 51.966,160.382 C 65.513,161.149 64.275,161.053 66.033,174.465 C 66.287,176.403 76.641,176.034 78.616,176.181 C 83.99,176.582 82.652,182.743 83.379,187.587 C 84.639,195.985 98.5,185.681 100.181,197.089 C 100.87,201.762 99.578,205.543 104.534,205.913 C 109.119,206.255 116.694,204.448 117.382,209.607 C 117.644,211.568 117.691,220.694 119.734,220.846 C 122.475,221.05 132.583,220.135 134.437,221.944 C 136.267,223.729 136.021,232.679 136.413,235.33 C 136.708,237.331 148.934,236.855 151.229,236.992 C 153.28,237.115 153.478,246.434 153.769,248.406 C 154.476,253.194 159.153,251.587 163.623,251.92 C 176.219,252.859 165.118,266.164 176.605,266.842 C 178.382,266.946 187.261,266.396 187.505,268.263 C 187.85,270.89 187.471,279.869 189.262,281.648 C 191.074,283.447 201.255,282.543 203.964,282.745 C 206.095,282.904 206.468,293.932 206.802,296.196 C 207.088,298.134 217.419,297.608 219.398,297.725 C 224.373,298.022 222.999,301.83 223.611,306.503 C 225.126,318.053 239.381,307.558 240.507,316.006 C 240.769,317.967 240.817,327.093 242.86,327.245 C 245.601,327.449 255.709,326.533 257.563,328.342 C 259.393,330.127 259.148,339.078 259.539,341.729 C 259.839,343.755 272.048,343.439 274.355,343.611 C 276.415,343.764 276.599,352.88 276.894,354.85 C 277.605,359.584 282.337,357.989 286.748,358.319 C 299.342,359.258 288.253,372.47 299.73,373.314 C 301.501,373.445 310.384,373.022 310.631,374.88 C 310.978,377.482 310.615,386.276 312.386,388.047 C 314.182,389.842 324.392,388.943 327.089,389.144 C 329.131,389.296 329.259,397.613 329.578,399.663 C 336.577,391.264 377.261,351.556 371.724,343.964 C 353.995,319.651 336.267,295.34 318.538,271.027 C 294.159,237.596 269.781,204.166 245.402,170.734 C 237.17,159.444 228.936,148.154 220.704,136.864 C 213.831,127.435 216.492,129.345 205.99,134.13" />
  </g>
</svg>
