<?xml version="1.0" encoding="UTF-8" standalone="no"?>
<!-- Generator: Adobe Illustrator 19.0.0, SVG Export Plug-In . SVG Version: 6.00 Build 0)  -->

<svg
   version="1.1"
   id="Layer_1"
   x="0px"
   y="0px"
   viewBox="0 0 1400 980"
   style="enable-background:new 0 0 1400 980;"
   xml:space="preserve"
   sodipodi:docname="svg.svg"
   inkscape:version="1.1.2 (0a00cf5339, 2022-02-04)"
   xmlns:inkscape="http://www.inkscape.org/namespaces/inkscape"
   xmlns:sodipodi="http://sodipodi.sourceforge.net/DTD/sodipodi-0.dtd"
   xmlns="http://www.w3.org/2000/svg"
   xmlns:svg="http://www.w3.org/2000/svg"><defs
   id="defs241" /><sodipodi:namedview
   id="namedview239"
   pagecolor="#505050"
   bordercolor="#ffffff"
   borderopacity="1"
   inkscape:pageshadow="0"
   inkscape:pageopacity="0"
   inkscape:pagecheckerboard="1"
   showgrid="false"
   inkscape:zoom="0.76020408"
   inkscape:cx="700.4698"
   inkscape:cy="490"
   inkscape:window-width="3440"
   inkscape:window-height="1369"
   inkscape:window-x="0"
   inkscape:window-y="34"
   inkscape:window-maximized="1"
   inkscape:current-layer="Layer_1" />
<style
   type="text/css"
   id="style2">
	.st0{fill:#FBBB40;}
	.st1{fill:#F6921E;}
	.st2{fill:#565759;}
	.st3{fill:#404041;}
	.st4{fill:#6D6E70;}
	.st5{fill:#DBDBDB;}
	.st6{fill:#929294;}
	.st7{fill:#B6B7B8;}
	.st8{fill:#FFFFFF;}
	.st9{fill:#6D4A2A;}
	.st10{fill:#4B392A;}
	.st11{fill:#121112;}
	.st12{fill:#29282A;}
	.st13{fill:#9B1823;}
	.st14{fill:#671018;}
	.st15{fill:#FFFFFF;stroke:#231F20;stroke-miterlimit:10;}
</style>
<rect
   class="st0"
   width="1400"
   height="980"
   id="rect4" />
<g
   id="g18">
	<path
   class="st1"
   d="M391.7,435.3l-10.5,25.1h57.5h57.5l-10.5-25.1h0.4c2.1-2.2,4.2-4.5,6.1-7c1.3-1.6,2.6-3.3,3.8-5.1   c0.6-0.9,1.2-1.8,1.8-2.7c2.4-3.6,4.7-7.5,6.8-11.5c2.1-4,4.1-8.3,5.9-12.7c0.9-2.2,1.8-4.5,2.6-6.8c0.4-1.1,0.8-2.3,1.2-3.5   c0.8-2.3,1.5-4.7,2.2-7.1c0.3-1.2,0.7-2.4,1-3.6c1.8-7.1,3.3-14.5,4.2-22.1l23.8-5.8c9.2-2.3,15.8-10.6,15.8-20.1v-86.2   c0-11.4-9.3-20.7-20.7-20.7h-3.3v-0.1c0-1.6-1.3-3-3-3h-15.7c-1.7,0-3,1.4-3,3v0.1h-29.5L444.4,205v5.2l-14.1-5.2v15.5h-38.6   c-0.8,0.8-1.5,1.6-2.3,2.4c-0.1,0.2-0.3,0.3-0.4,0.5c-0.6,0.7-1.3,1.4-1.9,2.2c-0.1,0.1-0.2,0.2-0.3,0.4c-0.7,0.8-1.3,1.6-2,2.5   c0,0-0.1,0.1-0.1,0.1c-0.7,0.9-1.4,1.8-2.1,2.8c0,0,0,0,0,0h-26.7l8.6,35c-6.5,18.3-10.2,39.3-10.2,61.6   C354.3,372.7,369.2,412.1,391.7,435.3z M542.4,247.9v74.9c0,3.9-2.7,7.3-6.5,8.2l-12.7,3.1c0.1-2,0.1-4.1,0.1-6.2   c0-16.8-2.1-32.8-5.9-47.5c-0.3-1.2-0.6-2.4-1-3.6c-0.7-2.4-1.4-4.8-2.2-7.1c-0.4-1.2-0.8-2.3-1.2-3.5c-0.8-2.3-1.7-4.5-2.6-6.8   c-1.8-4.4-3.8-8.7-5.9-12.7c-1.3-2.5-2.7-5-4.2-7.3h33.4C538.6,239.4,542.4,243.2,542.4,247.9z"
   id="path6" />
	<path
   class="st1"
   d="M667.6,243.5h-21.7l21.7,25.8v8.6h-2.8v19.4h2.8v13.3v132.3v0.3c0,5.3,4.3,9.7,9.7,9.7h0.3h11.8l1.9,7.6h11.1   l1.9-7.6H720h15.7l1.9,7.6h11.1l1.9-7.6h11.8h0.3c5.3,0,9.7-4.3,9.7-9.7v-48.8c31.2-0.5,56.3-25.9,56.3-57.2   c0-30.4-23.6-55.2-53.5-57.1v-2.2h-2.8v-39.2l0,0h-0.8c2,0,3.7-1.6,3.7-3.7v-0.2c0-2-1.6-3.7-3.7-3.7h1c-1.4-2.2-2.9-4.3-4.5-6.3   c-0.8-1-1.7-2-2.5-2.9c-1.7-1.9-3.6-3.7-5.6-5.3c-1.5-1.2-3-2.4-4.6-3.5c-1.1-0.7-2.1-1.4-3.2-2.1c-1.1-0.7-2.2-1.3-3.4-1.9   c-0.6-0.3-1.2-0.6-1.7-0.9c-4.1-2-8.4-3.5-12.9-4.6c-0.6-0.2-1.3-0.3-2-0.4c-1.3-0.3-2.6-0.5-4-0.7c-1.4-0.2-2.8-0.3-4.3-0.4v-6.3   c2.7-1.1,4.9-3.2,6-5.9c0.5-1.3,0.9-2.7,0.9-4.2c0-1.5-0.3-2.9-0.9-4.2c-1.5-3.6-4.9-6.2-8.9-6.6c-0.4,0-0.7-0.1-1.1-0.1   c-6,0-10.9,4.9-10.9,10.9c0,4.6,2.9,8.5,6.9,10.1v6.3c-20.5,1.3-38.2,12.6-48.5,29h0.8c-2,0-3.7,1.6-3.7,3.7v0.2   c0,2,1.6,3.7,3.7,3.7h-0.8V243.5z M815.7,337.3c0,24.1-19.3,43.7-43.3,44.2v-70.9v-13.3h2.8v-4.1   C797.9,295.1,815.7,314.1,815.7,337.3z"
   id="path8" />
	<path
   class="st1"
   d="M922,460.5h60.3h60.3h0l-11.1-82.4l0,0h-0.5l8-105c8.3-1.6,14.2-6.4,14.2-15.6c0,0,0,0,0,0   c0-3.2,2.6-5.8,5.8-5.8h1.4c2.3,0,4.1,1.9,4.1,4.2c0,0,0,0.1,0,0.1c0.1,5,4.2,9.2,9.1,9.7c1.5,0.1,3-0.1,4.4-0.6   c0,0-1.9,3.7-1.9,5.9c0,5.5,4.5,10,10,10c0.9,0,1.7-0.1,2.6-0.3c-1.9,2.9-2.9,6.5-2.5,10.3c0.8,7,6.4,12.7,13.3,13.6   c0.4,0,0.8,0.1,1.1,0.1c8.4,0.5,15.4-6.6,15.4-15v0c0-4.8-1.5-9.4-4.3-13.3l-15-20.5c-11.3-15.5-29.4-24.7-48.6-24.7h-6.1h-18   h-31.8l4.4-20.9c0.1-0.4,0.1-0.8,0.1-1.2c0-0.8-0.2-1.5-0.5-2.2c-0.1-0.2-0.2-0.3-0.3-0.5c-0.9-1.4-2.5-2.4-4.3-2.4l0,0h-9.5h-9.5   c-3.3,0-5.7,3-5,6.2l4.4,20.9h-21.4h-28.4h-21.7l24,30l8.9,117.1h-0.5L922,460.5z"
   id="path10" />
	<polygon
   class="st1"
   points="1054.2,543.3 941.3,543.3 941.3,555.5 941.3,845 1167,845 1167,845 1167,555.5 1167,555.5 1167,543.3     "
   id="polygon12" />
	<polygon
   class="st1"
   points="767.1,636.5 787.2,557.5 787.6,557.5 790.8,543.3 790.8,543.3 790.8,543.3 790.8,543.3 726.4,543.3    662.1,543.3 662.1,543.3 662.1,543.3 662.1,543.3 665.3,557.5 665.7,557.5 675.9,597.6 675.9,597.6 685.7,636.5 659.8,636.5    671.6,669.2 718.2,669.2 721.7,682.2 726.4,682.2 731.2,682.2 734.7,669.2 776.7,669.2 776.7,789.4 776.7,812.3 756.8,812.3    744.1,747.8 744.1,747.8 739,721.7 744.9,696 744.9,696 726.4,696 707.9,696 713.8,721.7 696.1,812.3 671.6,812.3 659.8,845    833.6,845 833.6,812.3 833.6,789.4 833.6,669.2 833.6,636.5 776.7,636.5  "
   id="polygon14" />
	<path
   class="st1"
   d="M565.2,576.2h-34.8c-33.1-20.4-71.7-32.9-122.9-32.9c-57.2,0-98.7,15.6-134.3,40.4H273V845h269l-20-41.3h-37   c1.3,0,2.6-0.3,3.8-0.8c2.8-1.2,4.8-3.6,5.6-6.5l29.1-7.1c5.5-1.4,9.4-6.3,9.4-12v-51.4c0-6.8-5.5-12.3-12.3-12.3h-25.8v-4h1l0,0   c0.2,0,0.5,0,0.7-0.1c0.5-0.1,0.9-0.3,1.3-0.5c0.9-0.6,1.6-1.7,1.6-2.9c0-1.2-0.6-2.3-1.6-2.9c-0.4-0.3-0.8-0.4-1.3-0.5   c-0.2,0-0.5-0.1-0.7-0.1l0,0h-1l0,0h-53.2h-53.2h-1c-2,0-3.6,1.6-3.6,3.6c0,2,1.6,3.6,3.6,3.6h1V794c0,4,2.4,7.4,5.9,8.9   c1.2,0.5,2.4,0.8,3.8,0.8H372v-142h48.5v7.1h11.7l4,14.6h5.3h5.3l4-14.6h11.7v-7.1H532l10-78h23.2c2.1,0,3.8-1.7,3.8-3.8   S567.3,576.2,565.2,576.2z M516.5,724.8c2.8,0,5.1,2.3,5.1,5.1v44.7c0,2.3-1.6,4.4-3.9,4.9l-23,5.6v-60.3H516.5z"
   id="path16" />
</g>
<g
   id="g46">
	<path
   class="st2"
   d="M514.3,197.4h-15.7c-1.6,0-3,1.4-3,3v0.3c0,1.6,1.4,3,3,3h15.7c1.7,0,3-1.4,3-3v-0.3   C517.3,198.8,516,197.4,514.3,197.4z"
   id="path20" />
	<path
   class="st3"
   d="M455.7,200.6v18.9h58.2c4.7,0,8.5,3.8,8.5,8.5v74.9c0,3.9-2.7,7.3-6.5,8.2l-60.2,14.8v18.9l69.8-17.1   c9.2-2.3,15.8-10.6,15.8-20.1v-86.2c0-11.4-9.3-20.7-20.7-20.7H455.7z"
   id="path22" />
	<polygon
   class="st3"
   points="452.1,200.6 410.3,200.6 410.3,185  "
   id="polygon24" />
	<polygon
   class="st2"
   points="466.2,200.6 424.4,200.6 424.4,185  "
   id="polygon26" />
	<polygon
   class="st4"
   points="346.4,254 390.4,243.5 390.4,211.4 335.9,211.4  "
   id="polygon28" />
	<path
   class="st5"
   d="M503.4,307.9c0-44.7-14.8-84.1-37.4-107.4h-94.3c-22.5,23.2-37.4,62.7-37.4,107.4s14.8,84.1,37.4,107.4H466   C488.5,392.1,503.4,352.7,503.4,307.9z"
   id="path30" />
	<path
   class="st6"
   d="M475.1,211.4c-2.9-3.9-5.9-7.5-9.1-10.8h-94.3c-3.2,3.3-6.2,6.9-9.1,10.8H475.1z"
   id="path32" />
	<path
   class="st6"
   d="M356,394.4h125.8c2-3.4,3.9-7.1,5.7-10.8H350.3C352,387.3,353.9,390.9,356,394.4z"
   id="path34" />
	<polygon
   class="st6"
   points="476.1,440.5 361.2,440.5 371.7,415.3 465.6,415.3  "
   id="polygon36" />
	<path
   class="st7"
   d="M418.7,200.6v214.8H466c22.5-23.2,37.4-62.7,37.4-107.4s-14.8-84.1-37.4-107.4H418.7z"
   id="path38" />
	<polygon
   class="st4"
   points="418.7,440.5 476.1,440.5 465.6,415.3 418.7,415.3  "
   id="polygon40" />
	<path
   class="st4"
   d="M418.7,394.4h63.1c2-3.4,3.9-7.1,5.7-10.8h-68.8V394.4z"
   id="path42" />
	<path
   class="st4"
   d="M418.7,211.4h56.4c-2.9-3.9-5.9-7.5-9.1-10.8h-47.3V211.4z"
   id="path44" />
</g>
<g
   id="g92">
	<path
   class="st8"
   d="M742.4,432.9h-84.9c-5.5,0-10-4.5-10-10V277.3h104.9v145.6C752.4,428.4,748,432.9,742.4,432.9z"
   id="path48" />
	<path
   class="st5"
   d="M700,432.9h42.8c5.3,0,9.7-4.3,9.7-9.7v-146H700V432.9z"
   id="path50" />
	<path
   class="st9"
   d="M647.6,290.6v132.7c0,5.3,4.3,9.7,9.7,9.7h85.6c5.3,0,9.7-4.3,9.7-9.7V290.6H647.6z"
   id="path52" />
	<path
   class="st10"
   d="M700,290.6v142.3h42.8c5.3,0,9.7-4.3,9.7-9.7V290.6H700z"
   id="path54" />
	<path
   class="st11"
   d="M752.4,260v13c24,0.5,43.3,20.1,43.3,44.2s-19.3,43.7-43.3,44.2v13c31.2-0.5,56.3-25.9,56.3-57.2   S783.6,260.6,752.4,260z"
   id="path56" />
	<rect
   x="696"
   y="173.3"
   class="st12"
   width="8"
   height="11.6"
   id="rect58" />
	<circle
   class="st3"
   cx="700"
   cy="165.8"
   r="10.9"
   id="circle60" />
	<polygon
   class="st11"
   points="654.8,257.9 676,248.3 676,223.5 625.9,223.5  "
   id="polygon62" />
	<rect
   x="647.6"
   y="218.7"
   class="st12"
   width="104.9"
   height="39.2"
   id="rect64" />
	<path
   class="st7"
   d="M751.6,211.2H648.4c-2,0-3.7,1.6-3.7,3.7v0.2c0,2,1.6,3.7,3.7,3.7h103.2c2,0,3.7-1.6,3.7-3.7v-0.2   C755.3,212.8,753.6,211.2,751.6,211.2z"
   id="path66" />
	<path
   class="st5"
   d="M752.6,211.2c-10.9-17.5-30.4-29.1-52.5-29.1c-22.1,0-41.6,11.6-52.5,29.1H752.6z"
   id="path68" />
	<rect
   x="644.7"
   y="257.9"
   class="st5"
   width="110.5"
   height="19.4"
   id="rect70" />
	<rect
   x="669.4"
   y="277.3"
   class="st5"
   width="15"
   height="155.6"
   id="rect72" />
	<rect
   x="715.7"
   y="277.3"
   class="st7"
   width="15"
   height="155.6"
   id="rect74" />
	<polygon
   class="st7"
   points="682.4,440.5 671.3,440.5 669.4,432.9 684.3,432.9  "
   id="polygon76" />
	<polygon
   class="st6"
   points="728.7,440.5 717.6,440.5 715.7,432.9 730.6,432.9  "
   id="polygon78" />
	<rect
   x="700"
   y="173.3"
   class="st11"
   width="4"
   height="11.6"
   id="rect80" />
	<path
   class="st6"
   d="M751.5,211.2H700v7.5h51.5c2.1,0,3.7-1.7,3.7-3.7C755.3,212.9,753.6,211.2,751.5,211.2z"
   id="path82" />
	<path
   class="st7"
   d="M700,182.1v29.1h52.6C741.6,193.7,722.2,182.1,700,182.1C700,182.1,700,182.1,700,182.1z"
   id="path84" />
	<path
   class="st12"
   d="M710.9,165.8c0-6-4.9-10.9-10.9-10.9v21.7C706,176.7,710.9,171.8,710.9,165.8z"
   id="path86" />
	<rect
   x="700"
   y="218.7"
   class="st11"
   width="52.4"
   height="39.2"
   id="rect88" />
	<rect
   x="700"
   y="257.9"
   class="st7"
   width="55.3"
   height="19.4"
   id="rect90" />
</g>
<g
   id="g116">
	<path
   class="st12"
   d="M1091.9,256.1l-15-20.5c-11.3-15.5-29.4-24.7-48.6-24.7h-24.1v1.4c-8,3.1-13.7,10.8-13.8,19.9   c-0.1,12.5,10.9,22,23.4,21.4c10.8-0.5,19.3-5.1,19.3-16.3c0,0,0,0,0,0c0-3.2,2.6-5.8,5.8-5.8h1.4c2.3,0,4.1,1.9,4.1,4.2   c0,0,0,0.1,0,0.1c0.1,5,4.2,9.2,9.1,9.7c1.5,0.1,3-0.1,4.4-0.6c0,0-1.9,3.7-1.9,5.9c0,5.5,4.5,10,10,10c0.9,0,1.7-0.1,2.6-0.3   c-1.9,2.9-2.9,6.5-2.5,10.3c0.8,7,6.4,12.7,13.3,13.6c0.4,0,0.8,0.1,1.1,0.1c8.4,0.5,15.4-6.6,15.4-15l0,0   C1096.2,264.6,1094.7,260,1091.9,256.1z"
   id="path94" />
	<polygon
   class="st7"
   points="930.9,237.5 909.7,247.1 880.8,211 930.9,211  "
   id="polygon96" />
	<polygon
   class="st5"
   points="1011.1,358 913.6,358 902.5,211 1022.3,211  "
   id="polygon98" />
	<polygon
   class="st7"
   points="912.7,345 913.6,358 1011.1,358 1012,345  "
   id="polygon100" />
	<path
   class="st12"
   d="M972.5,211h-20.2l-4.4-20.9c-0.7-3.2,1.8-6.2,5-6.2h19c3.3,0,5.7,3,5,6.2L972.5,211z"
   id="path102" />
	<polygon
   class="st6"
   points="1022.7,440.5 902,440.5 913.2,358 1011.6,358  "
   id="polygon104" />
	<circle
   class="st5"
   cx="923.6"
   cy="370"
   r="3.9"
   id="circle106" />
	<polygon
   class="st4"
   points="962.4,440.5 1022.7,440.5 1011.6,358 962.4,358  "
   id="polygon108" />
	<polygon
   class="st7"
   points="962.4,358 1011.1,358 1022.3,211 962.4,211  "
   id="polygon110" />
	<polygon
   class="st6"
   points="962.4,358 1011.1,358 1012,345 962.4,345  "
   id="polygon112" />
	<path
   class="st11"
   d="M971.9,183.8h-9.5V211h10.1l4.4-20.9C977.6,186.9,975.2,183.8,971.9,183.8z"
   id="path114" />
</g>
<g
   id="g158">
	<rect
   x="921.3"
   y="535.5"
   class="st13"
   width="225.7"
   height="289.5"
   id="rect118" />
	<rect
   x="1034.2"
   y="535.5"
   class="st14"
   width="112.8"
   height="289.5"
   id="rect120" />
	<rect
   x="945.1"
   y="675.8"
   class="st12"
   width="178.3"
   height="131.7"
   id="rect122" />
	<rect
   x="1034.2"
   y="675.8"
   class="st11"
   width="89.1"
   height="131.7"
   id="rect124" />
	<rect
   x="921.3"
   y="523.3"
   class="st12"
   width="225.7"
   height="12.3"
   id="rect126" />
	<rect
   x="945.1"
   y="798"
   class="st7"
   width="178.3"
   height="9.4"
   id="rect128" />
	<rect
   x="945.1"
   y="675.8"
   class="st7"
   width="178.3"
   height="14.8"
   id="rect130" />
	<path
   class="st8"
   d="M991.8,709.6v71.9c0,9.1,7.4,16.5,16.5,16.5h51.9c9.1,0,16.5-7.4,16.5-16.5v-71.9H991.8z"
   id="path132" />
	<path
   class="st15"
   d="M1076.6,715.2v7.5c13.8,0.3,25,11.6,25,25.5c0,13.9-11.1,25.2-25,25.5v7.5c18-0.3,32.5-15,32.5-33   C1109.1,730.1,1094.6,715.5,1076.6,715.2z"
   id="path134" />
	<rect
   x="1079"
   y="535.5"
   class="st11"
   width="8.6"
   height="140.2"
   id="rect136" />
	<rect
   x="980.8"
   y="535.5"
   class="st12"
   width="8.6"
   height="140.2"
   id="rect138" />
	<rect
   x="1003.1"
   y="557.2"
   class="st8"
   width="61.7"
   height="26.6"
   id="rect140" />
	<circle
   class="st5"
   cx="1115.6"
   cy="583.9"
   r="6.4"
   id="circle142" />
	<circle
   class="st5"
   cx="1115.6"
   cy="608.4"
   r="6.4"
   id="circle144" />
	<circle
   class="st5"
   cx="1115.6"
   cy="633"
   r="6.4"
   id="circle146" />
	<rect
   x="1034.2"
   y="798"
   class="st6"
   width="89.1"
   height="9.4"
   id="rect148" />
	<path
   class="st5"
   d="M1034.2,798h25.9c9.1,0,16.5-7.4,16.5-16.5v-71.9h-42.4V798z"
   id="path150" />
	<rect
   x="1034.2"
   y="675.8"
   class="st6"
   width="89.1"
   height="14.8"
   id="rect152" />
	<rect
   x="1034.2"
   y="523.3"
   class="st11"
   width="112.8"
   height="12.3"
   id="rect154" />
	<rect
   x="1034.2"
   y="557.2"
   class="st5"
   width="30.7"
   height="26.6"
   id="rect156" />
</g>
<g
   id="g198">
	<polygon
   class="st8"
   points="736.8,792.3 719,701.7 724.9,676 687.9,676 693.8,701.7 676.1,792.3  "
   id="polygon160" />
	<polygon
   class="st5"
   points="719,701.7 724.9,676 706.4,676 706.4,792.3 736.8,792.3  "
   id="polygon162" />
	<polygon
   class="st9"
   points="676.1,792.3 736.8,792.3 724.1,727.8 688.7,727.8  "
   id="polygon164" />
	<polygon
   class="st13"
   points="813.6,649.2 651.6,649.2 639.8,616.5 813.6,616.5  "
   id="polygon166" />
	<polygon
   class="st13"
   points="813.6,792.3 651.6,792.3 639.8,825 813.6,825  "
   id="polygon168" />
	<rect
   x="756.7"
   y="649.2"
   class="st5"
   width="57"
   height="143.1"
   id="rect170" />
	<polygon
   class="st12"
   points="711.2,662.2 701.7,662.2 698.2,649.2 714.7,649.2  "
   id="polygon172" />
	<rect
   x="756.7"
   y="769.4"
   class="st14"
   width="57"
   height="23"
   id="rect174" />
	<rect
   x="756.7"
   y="616.5"
   class="st14"
   width="57"
   height="32.7"
   id="rect176" />
	<polygon
   class="st8"
   points="770.8,523.3 642.1,523.3 665.7,616.5 747.1,616.5  "
   id="polygon178" />
	<polygon
   class="st12"
   points="767.6,537.5 770.8,523.3 642.1,523.3 645.3,537.5  "
   id="polygon180" />
	<path
   class="st9"
   d="M752.9,570.7c-2.4,0.2-4.3,1.9-5,4.1c-0.1-0.1-0.2-0.1-0.3-0.2c0-0.1,0-0.3,0-0.4c-0.3-3.1-3-5.5-6.2-5.2   c-2.5,0.2-4.5,2.1-5.1,4.4c-1.1-1.7-3.1-2.8-5.3-2.6c-2.1,0.2-3.9,1.5-4.7,3.3c-0.7-2.4-2.9-4.1-5.5-4.1c-3,0-5.4,2.3-5.7,5.3   c-1-1.2-2.6-2-4.3-2c-1.3,0-2.6,0.5-3.5,1.3c-1-0.8-2.2-1.3-3.5-1.3c-1.3,0-2.5,0.5-3.5,1.2c-0.8-2.2-2.9-3.8-5.3-3.8   c-1.4,0-2.6,0.5-3.6,1.3c-0.8-2.2-2.9-3.9-5.4-3.9c-2.9,0-5.2,2.1-5.6,4.8c-1-0.7-2.1-1.1-3.4-1.1c-1.6,0-3.1,0.7-4.1,1.8   c-0.8-2.2-2.9-3.7-5.3-3.7c-1.8,0-3.4,0.8-4.4,2.1c-0.6-0.1-1.2-0.2-1.8-0.2c-3,0.3-5.2,2.8-5.2,5.7h-0.4l9.9,38.9h81.4l11-43.3   C757,571.5,755.1,570.5,752.9,570.7z"
   id="path182" />
	<polygon
   class="st5"
   points="706.4,616.5 747.1,616.5 770.8,523.3 706.4,523.3  "
   id="polygon184" />
	<polygon
   class="st11"
   points="706.4,537.5 767.6,537.5 770.8,523.3 706.4,523.3  "
   id="polygon186" />
	<path
   class="st10"
   d="M752.9,570.7c-2.4,0.2-4.3,1.9-5,4.1c-0.1-0.1-0.2-0.1-0.3-0.2c0-0.1,0-0.3,0-0.4c-0.3-3.1-3-5.5-6.2-5.2   c-2.5,0.2-4.5,2.1-5.1,4.4c-1.1-1.7-3.1-2.8-5.3-2.6c-2.1,0.2-3.9,1.5-4.7,3.3c-0.7-2.4-2.9-4.1-5.5-4.1c-3,0-5.4,2.3-5.7,5.3   c-1-1.2-2.6-2-4.3-2c-1.3,0-2.6,0.5-3.5,1.3c-0.3-0.3-0.7-0.5-1.1-0.7v42.7h40.7l11-43.3C757,571.5,755.1,570.5,752.9,570.7z"
   id="path188" />
	<polygon
   class="st11"
   points="706.4,662.2 711.2,662.2 714.7,649.2 706.4,649.2  "
   id="polygon190" />
	<polygon
   class="st10"
   points="706.4,792.3 736.8,792.3 724.1,727.8 706.4,727.8  "
   id="polygon192" />
	<circle
   class="st12"
   cx="706.4"
   cy="632.8"
   r="8.1"
   id="circle194" />
	<path
   class="st11"
   d="M714.5,632.8c0-4.5-3.6-8.1-8.1-8.1v16.2C710.9,640.9,714.5,637.3,714.5,632.8z"
   id="path196" />
</g>
<g
   id="g236">
	<path
   class="st13"
   d="M545.2,556.2h-36.3c-2.1,0-3.8,1.7-3.8,3.8l0,0c0,2.1,1.7,3.8,3.8,3.8h36.3c2.1,0,3.8-1.7,3.8-3.8l0,0   C549,557.9,547.3,556.2,545.2,556.2z"
   id="path200" />
	<path
   class="st12"
   d="M461.8,693.6v11.3h34.7c2.8,0,5.1,2.3,5.1,5.1v44.7c0,2.3-1.6,4.4-3.9,4.9l-35.9,8.8v11.3l41.6-10.2   c5.5-1.4,9.4-6.3,9.4-12v-51.4c0-6.8-5.5-12.3-12.3-12.3H461.8z"
   id="path202" />
	<polygon
   class="st13"
   points="352,783.7 352,641.7 512,641.7 522,563.7 253,563.7 253,825 522,825 502,783.7  "
   id="polygon204" />
	<path
   class="st5"
   d="M306.3,615.8c-0.9-0.3-1.9-0.5-3-0.5h0c-2.4,0-4.6,0.9-6.4,2.3c-2.2,1.8-3.6,4.6-3.6,7.7v10.3v20.3v20.3v20.3   v20.3v20.3h0v10.7c0,5.5,4.5,10,10,10h0c5.5,0,10-4.5,10-10V625.3C313.3,620.8,310.3,617,306.3,615.8z"
   id="path206" />
	<path
   class="st14"
   d="M521.9,563.7c-35.6-24.8-77.1-40.4-134.3-40.4c-57.2,0-98.7,15.6-134.3,40.4H521.9z"
   id="path208" />
	<path
   class="st8"
   d="M465,783.7h-87.1c-5.3,0-9.7-4.3-9.7-9.7v-91.5h106.4V774C474.6,779.4,470.3,783.7,465,783.7z"
   id="path210" />
	<path
   class="st5"
   d="M475.7,689.6H367.2c-2,0-3.6-1.6-3.6-3.6l0,0c0-2,1.6-3.6,3.6-3.6h108.5c2,0,3.6,1.6,3.6,3.6l0,0   C479.2,688,477.6,689.6,475.7,689.6z"
   id="path212" />
	<path
   class="st5"
   d="M421.4,783.7H465c5.3,0,9.7-4.3,9.7-9.7v-91.5h-53.2V783.7z"
   id="path214" />
	<path
   class="st7"
   d="M475.7,682.5h-54.3v7.1h54.3c2,0,3.6-1.6,3.6-3.6S477.6,682.5,475.7,682.5z"
   id="path216" />
	<polygon
   class="st12"
   points="426.8,663.4 416.1,663.4 412.1,648.8 430.7,648.8  "
   id="polygon218" />
	<polygon
   class="st11"
   points="421.4,663.4 426.8,663.4 430.7,648.8 421.4,648.8  "
   id="polygon220" />
	<rect
   x="400.4"
   y="641.7"
   class="st3"
   width="42"
   height="7.1"
   id="rect222" />
	<path
   class="st9"
   d="M368.2,712.4V774c0,5.3,4.3,9.7,9.7,9.7H465c5.3,0,9.7-4.3,9.7-9.7v-61.6H368.2z"
   id="path224" />
	<path
   class="st10"
   d="M421.4,712.4v71.3H465c5.3,0,9.7-4.3,9.7-9.7v-61.6H421.4z"
   id="path226" />
	<rect
   x="297.2"
   y="640.5"
   class="st11"
   width="12.2"
   height="2"
   id="rect228" />
	<rect
   x="297.2"
   y="670.5"
   class="st11"
   width="12.2"
   height="2"
   id="rect230" />
	<rect
   x="297.2"
   y="700.5"
   class="st11"
   width="12.2"
   height="2"
   id="rect232" />
	<rect
   x="297.2"
   y="730.5"
   class="st11"
   width="12.2"
   height="2"
   id="rect234" />
</g>
</svg>
