<?xml version="1.0" encoding="UTF-8" standalone="no"?>
<!-- Created with Inkscape (http://www.inkscape.org/) -->

<svg
   version="1.1"
   viewBox="0 0 7400 5866.6665"
   sodipodi:docname="svg.svg"
   inkscape:version="1.1.2 (0a00cf5339, 2022-02-04)"
   id="svg1620"
   xmlns:inkscape="http://www.inkscape.org/namespaces/inkscape"
   xmlns:sodipodi="http://sodipodi.sourceforge.net/DTD/sodipodi-0.dtd"
   xmlns="http://www.w3.org/2000/svg"
   xmlns:svg="http://www.w3.org/2000/svg">
  <defs
     id="defs6" />
  <sodipodi:namedview
     id="namedview4"
     pagecolor="#ffffff"
     bordercolor="#666666"
     borderopacity="1.0"
     inkscape:pageshadow="2"
     inkscape:pageopacity="0.0"
     inkscape:pagecheckerboard="0"
     showgrid="false"
     inkscape:zoom="0.15323864"
     inkscape:cx="3696.8482"
     inkscape:cy="2933.3333"
     inkscape:window-width="3440"
     inkscape:window-height="1369"
     inkscape:window-x="0"
     inkscape:window-y="34"
     inkscape:window-maximized="1"
     inkscape:current-layer="g8" />
  <g
     id="g8"
     inkscape:groupmode="layer"
     inkscape:label="ink_ext_XXXXXX"
     transform="matrix(1.3333333,0,0,-1.3333333,0,5866.6667)">
    <g
       id="g10"
       transform="scale(0.1)">
      <path
         d="M 55500,0 H 0 V 44000 H 55500 V 0"
         style="fill:#ffffff;fill-opacity:1;fill-rule:nonzero;stroke:none"
         id="path12" />
      <path
         d="m 46885.7,4820.2 c -58.5,0 -105.8,47.3 -105.8,105.7 v 1870.9 c 0,58.5 47.3,105.8 105.8,105.8 58.4,0 105.7,-47.3 105.7,-105.8 V 4925.9 c 0,-58.4 -47.3,-105.7 -105.7,-105.7"
         style="fill:#2e3369;fill-opacity:1;fill-rule:nonzero;stroke:none"
         id="path14" />
      <path
         d="m 50121.5,6152.6 c -58.4,0 -105.7,47.3 -105.7,105.8 v 538.4 c 0,58.5 47.3,105.8 105.7,105.8 58.4,0 105.8,-47.3 105.8,-105.8 v -538.4 c 0,-58.5 -47.4,-105.8 -105.8,-105.8"
         style="fill:#2e3369;fill-opacity:1;fill-rule:nonzero;stroke:none"
         id="path16" />
      <path
         d="m 50466.7,6900.5 c -27,0 -54.1,10.4 -74.8,31 l -1805.1,1805.2 c -45.9,45.9 -121.9,45.5 -169.5,-0.9 l -1802,-1804.3 c -41.4,-41.3 -108.3,-41.2 -149.6,-0.1 -41.3,41.3 -41.3,108.3 -0.1,149.7 l 1803,1805.2 c 131,127.8 340.4,127.3 467.8,0 l 1805.1,-1805.2 c 41.3,-41.3 41.3,-108.3 0,-149.6 -20.6,-20.6 -47.7,-31 -74.8,-31"
         style="fill:#2e3369;fill-opacity:1;fill-rule:nonzero;stroke:none"
         id="path18" />
      <path
         d="m 48964.5,4509 h -2424 c -58.4,0 -105.8,47.4 -105.8,105.8 0,58.5 47.4,105.8 105.8,105.8 h 2424 c 58.4,0 105.7,-47.3 105.7,-105.8 0,-58.4 -47.3,-105.8 -105.7,-105.8"
         style="fill:#2e3369;fill-opacity:1;fill-rule:nonzero;stroke:none"
         id="path20" />
      <path
         d="m 48503.6,7611.2 c -100.2,0 -181.7,-81.6 -181.7,-181.8 0,-100.2 81.5,-181.7 181.7,-181.7 100.2,0 181.7,81.5 181.7,181.7 0,100.2 -81.5,181.8 -181.7,181.8 z m 0,-575.1 c -216.9,0 -393.3,176.5 -393.3,393.3 0,216.9 176.4,393.3 393.3,393.3 216.9,0 393.3,-176.4 393.3,-393.3 0,-216.8 -176.4,-393.3 -393.3,-393.3"
         style="fill:#2e3369;fill-opacity:1;fill-rule:nonzero;stroke:none"
         id="path22" />
      <path
         d="m 47325.7,7724.5 c -58.4,0 -105.7,47.3 -105.7,105.7 V 8825 c 0,58.5 47.3,105.8 105.7,105.8 58.4,0 105.8,-47.3 105.8,-105.8 v -994.8 c 0,-58.4 -47.4,-105.7 -105.8,-105.7"
         style="fill:#2e3369;fill-opacity:1;fill-rule:nonzero;stroke:none"
         id="path24" />
      <path
         d="m 47703.6,8128.1 c -58.5,0 -105.8,47.3 -105.8,105.8 V 8825 c 0,58.5 47.3,105.8 105.8,105.8 58.4,0 105.7,-47.3 105.7,-105.8 v -591.1 c 0,-58.5 -47.3,-105.8 -105.7,-105.8"
         style="fill:#2e3369;fill-opacity:1;fill-rule:nonzero;stroke:none"
         id="path26" />
      <path
         d="M 47785.3,8770.6 H 47244 c -58.4,0 -105.7,47.3 -105.7,105.8 0,58.4 47.3,105.7 105.7,105.7 h 541.3 c 58.4,0 105.7,-47.3 105.7,-105.7 0,-58.5 -47.3,-105.8 -105.7,-105.8"
         style="fill:#2e3369;fill-opacity:1;fill-rule:nonzero;stroke:none"
         id="path28" />
      <path
         d="m 49504.2,6327.5 c -480.5,0 -871.3,-390.9 -871.3,-871.3 0,-480.5 390.8,-871.3 871.3,-871.3 480.4,0 871.2,390.8 871.2,871.3 0,480.4 -390.8,871.3 -871.2,871.3 z m 0,-1954.2 c -597.1,0 -1082.9,485.8 -1082.9,1082.9 0,597 485.8,1082.8 1082.9,1082.8 597,0 1082.8,-485.8 1082.8,-1082.8 0,-597.1 -485.8,-1082.9 -1082.8,-1082.9"
         style="fill:#2e3369;fill-opacity:1;fill-rule:nonzero;stroke:none"
         id="path30" />
      <path
         d="m 50780.3,3905.2 c -72.6,0 -140.9,28.3 -192.2,79.6 l -567.5,569.9 c -41.2,41.4 -41.1,108.5 0.3,149.7 41.4,41.2 108.4,40.9 149.6,-0.3 l 567.4,-569.8 c 22.5,-22.5 62.1,-22.6 84.9,0.1 11.4,11.4 17.6,26.5 17.6,42.6 0,16.1 -6.2,31.2 -17.6,42.5 l -567.5,569.9 c -41.2,41.4 -41.1,108.4 0.4,149.6 41.4,41.2 108.4,40.8 149.5,-0.3 l 567.3,-569.7 c 51.2,-51.1 79.5,-119.4 79.5,-192 0,-72.6 -28.3,-140.9 -79.6,-192.2 -51.3,-51.3 -119.5,-79.6 -192.1,-79.6"
         style="fill:#2e3369;fill-opacity:1;fill-rule:nonzero;stroke:none"
         id="path32" />
      <path
         d="m 36717.9,8582 c -81.4,0 -147.7,-66.2 -147.7,-147.7 0,-81.5 66.3,-147.7 147.7,-147.7 h 2916.2 c 81.5,0 147.7,66.2 147.7,147.7 0,81.5 -66.2,147.7 -147.7,147.7 z m 2916.2,-507 h -2916.2 c -198.1,0 -359.2,161.2 -359.2,359.3 0,198.1 161.1,359.2 359.2,359.2 h 2916.2 c 198.1,0 359.3,-161.1 359.3,-359.2 0,-198.1 -161.2,-359.3 -359.3,-359.3"
         style="fill:#2e3369;fill-opacity:1;fill-rule:nonzero;stroke:none"
         id="path34" />
      <path
         d="m 38838.2,7598.5 h -1324.3 c -58.4,0 -105.8,47.3 -105.8,105.7 0,58.5 47.4,105.8 105.8,105.8 h 1324.3 c 58.4,0 105.7,-47.3 105.7,-105.8 0,-58.4 -47.3,-105.7 -105.7,-105.7"
         style="fill:#2e3369;fill-opacity:1;fill-rule:nonzero;stroke:none"
         id="path36" />
      <path
         d="m 39179.3,7109.8 h -2006.6 c -58.5,0 -105.8,47.3 -105.8,105.8 0,58.4 47.3,105.7 105.8,105.7 h 2006.6 c 58.4,0 105.8,-47.3 105.8,-105.7 0,-58.5 -47.4,-105.8 -105.8,-105.8"
         style="fill:#2e3369;fill-opacity:1;fill-rule:nonzero;stroke:none"
         id="path38" />
      <path
         d="m 39179.3,6621 h -2006.6 c -58.5,0 -105.8,47.3 -105.8,105.8 0,58.5 47.3,105.8 105.8,105.8 h 2006.6 c 58.4,0 105.8,-47.3 105.8,-105.8 0,-58.5 -47.4,-105.8 -105.8,-105.8"
         style="fill:#2e3369;fill-opacity:1;fill-rule:nonzero;stroke:none"
         id="path40" />
      <path
         d="m 39179.3,6132.3 h -2006.6 c -58.5,0 -105.8,47.3 -105.8,105.7 0,58.5 47.3,105.8 105.8,105.8 h 2006.6 c 58.4,0 105.8,-47.3 105.8,-105.8 0,-58.4 -47.4,-105.7 -105.8,-105.7"
         style="fill:#2e3369;fill-opacity:1;fill-rule:nonzero;stroke:none"
         id="path42" />
      <path
         d="m 38838.2,5643.6 h -1665.5 c -58.5,0 -105.8,47.3 -105.8,105.8 0,58.4 47.3,105.7 105.8,105.7 h 1665.5 c 58.4,0 105.7,-47.3 105.7,-105.7 0,-58.5 -47.3,-105.8 -105.7,-105.8"
         style="fill:#2e3369;fill-opacity:1;fill-rule:nonzero;stroke:none"
         id="path44" />
      <path
         d="m 38202.4,4988.8 h -1029.7 c -58.5,0 -105.8,47.3 -105.8,105.8 0,58.5 47.3,105.8 105.8,105.8 h 1029.7 c 58.4,0 105.8,-47.3 105.8,-105.8 0,-58.5 -47.4,-105.8 -105.8,-105.8"
         style="fill:#2e3369;fill-opacity:1;fill-rule:nonzero;stroke:none"
         id="path46" />
      <path
         d="m 37860.5,4616.7 h -687.8 c -58.5,0 -105.8,47.3 -105.8,105.7 0,58.5 47.3,105.8 105.8,105.8 h 687.8 c 58.4,0 105.8,-47.3 105.8,-105.8 0,-58.4 -47.4,-105.7 -105.8,-105.7"
         style="fill:#2e3369;fill-opacity:1;fill-rule:nonzero;stroke:none"
         id="path48" />
      <path
         d="m 39466.3,4115.7 h -2579.7 c -290.9,0 -527.6,237.2 -527.6,528.7 v 3789.7 c 0,58.4 47.4,105.7 105.8,105.7 58.4,0 105.8,-47.3 105.8,-105.7 V 4644.4 c 0,-174.9 141.7,-317.1 316,-317.1 h 2579.7 c 174.3,0 316,142.2 316,317.1 v 3202.3 c 0,58.4 47.4,105.7 105.8,105.7 58.4,0 105.8,-47.3 105.8,-105.7 V 4644.4 c 0,-291.5 -236.7,-528.7 -527.6,-528.7"
         style="fill:#2e3369;fill-opacity:1;fill-rule:nonzero;stroke:none"
         id="path50" />
      <path
         d="m 38694,4513.8 c -15,0 -30.2,3.2 -44.5,9.8 -43.2,20 -67.7,66.6 -59.8,113.6 l 52.6,311.1 c -29.8,0.3 -57.3,10.3 -78.6,32.6 -40.5,42.1 -39.1,109.1 3,149.5 l 152.2,146.2 c 32.9,31.5 82.2,38.5 122.7,17.1 40.4,-21.2 62.5,-66.1 54.8,-111.1 l -33.6,-199.1 129.4,153.2 c 29.5,35.1 77.9,47.2 120.4,29.9 42.4,-17 69,-59.5 65.9,-105.2 l -7.2,-108.3 293.8,271.2 c 43,39.5 109.9,36.8 149.5,-6.1 39.6,-42.8 36.9,-109.8 -6,-149.4 l -488.9,-451.2 c -31.8,-29.3 -78.4,-36.2 -117.4,-17.7 -39.1,18.7 -62.8,59.3 -59.9,102.6 l 3.5,51.4 -171.1,-202.5 c -20.6,-24.5 -50.4,-37.6 -80.8,-37.6"
         style="fill:#2e3369;fill-opacity:1;fill-rule:nonzero;stroke:none"
         id="path52" />
      <path
         d="m 37425,8364 c -58.4,0 -105.7,47.4 -105.7,105.8 v 405.5 c 0,58.5 47.3,105.8 105.7,105.8 58.5,0 105.8,-47.3 105.8,-105.8 v -405.5 c 0,-58.4 -47.3,-105.8 -105.8,-105.8"
         style="fill:#2e3369;fill-opacity:1;fill-rule:nonzero;stroke:none"
         id="path54" />
      <path
         d="m 38927,8364 c -58.4,0 -105.8,47.4 -105.8,105.8 v 405.5 c 0,58.5 47.4,105.8 105.8,105.8 58.4,0 105.8,-47.3 105.8,-105.8 v -405.5 c 0,-58.4 -47.4,-105.8 -105.8,-105.8"
         style="fill:#2e3369;fill-opacity:1;fill-rule:nonzero;stroke:none"
         id="path56" />
      <path
         d="m 29447,6622.3 c -20.1,0 -40.4,5.6 -58.4,17.6 l -398.4,264.2 c -48.7,32.3 -62,98 -29.7,146.6 32.3,48.7 97.9,62.2 146.6,29.7 l 398.5,-264.3 c 48.6,-32.2 61.9,-97.9 29.7,-146.5 -20.4,-30.7 -54,-47.3 -88.3,-47.3"
         style="fill:#2e3369;fill-opacity:1;fill-rule:nonzero;stroke:none"
         id="path58" />
      <path
         d="m 26335.2,6622.3 c -34.3,0 -67.9,16.6 -88.3,47.3 -32.3,48.6 -18.9,114.3 29.7,146.5 l 398.5,264.3 c 48.6,32.5 114.4,19 146.6,-29.7 32.3,-48.6 19,-114.3 -29.7,-146.6 l -398.5,-264.2 c -17.9,-12 -38.2,-17.6 -58.3,-17.6"
         style="fill:#2e3369;fill-opacity:1;fill-rule:nonzero;stroke:none"
         id="path60" />
      <path
         d="m 27891.1,6200.5 c -58.4,0 -105.8,47.3 -105.8,105.8 v 383.8 c 0,58.5 47.4,105.8 105.8,105.8 58.4,0 105.8,-47.3 105.8,-105.8 v -383.8 c 0,-58.5 -47.4,-105.8 -105.8,-105.8"
         style="fill:#2e3369;fill-opacity:1;fill-rule:nonzero;stroke:none"
         id="path62" />
      <path
         d="m 27891.1,5818.6 c -178,0 -322.8,-144.9 -322.8,-322.8 0,-178 144.8,-322.8 322.8,-322.8 178,0 322.7,144.8 322.7,322.8 0,177.9 -144.7,322.8 -322.7,322.8 z m 0,-857.1 c -294.6,0 -534.3,239.7 -534.3,534.3 0,294.6 239.7,534.3 534.3,534.3 294.6,0 534.3,-239.7 534.3,-534.3 0,-294.6 -239.7,-534.3 -534.3,-534.3"
         style="fill:#2e3369;fill-opacity:1;fill-rule:nonzero;stroke:none"
         id="path64" />
      <path
         d="m 27891.1,4900.5 c -225.5,0 -417.4,-277.4 -490.4,-551.4 -9.2,-34.5 -1.9,-70.7 20,-99.2 22,-28.6 55.2,-45 91.2,-45 h 758.4 c 36,0 69.2,16.4 91.2,45 21.9,28.5 29.2,64.7 20,99.3 -73.1,273.9 -264.9,551.3 -490.4,551.3 z m 379.2,-907.2 h -758.4 c -102.2,0 -196.7,46.6 -259,127.7 -62.2,81.1 -82.9,184 -56.6,282.6 90.9,341.2 347.1,708.5 694.8,708.5 347.6,0 603.8,-367.3 694.8,-708.5 26.2,-98.7 5.6,-201.6 -56.7,-282.6 -62.4,-81.2 -156.7,-127.7 -258.9,-127.7"
         style="fill:#2e3369;fill-opacity:1;fill-rule:nonzero;stroke:none"
         id="path66" />
      <path
         d="m 25729.5,6571.3 c -168.8,0 -306.2,-137.3 -306.2,-306.1 0,-168.9 137.4,-306.3 306.2,-306.3 168.8,0 306.2,137.4 306.2,306.3 0,168.8 -137.4,306.1 -306.2,306.1 z m 0,-823.9 c -285.5,0 -517.8,232.3 -517.8,517.8 0,285.5 232.3,517.7 517.8,517.7 285.5,0 517.7,-232.2 517.7,-517.7 0,-285.5 -232.2,-517.8 -517.7,-517.8"
         style="fill:#2e3369;fill-opacity:1;fill-rule:nonzero;stroke:none"
         id="path68" />
      <path
         d="m 25729.5,5688.7 c -186.5,0 -387.5,-226.5 -467.5,-527 -8.5,-32 -1.8,-65.4 18.5,-91.8 20.4,-26.5 51.2,-41.7 84.5,-41.7 h 729 c 33.3,0 64.1,15.2 84.4,41.7 20.3,26.4 27.1,59.9 18.6,91.9 -80.1,300.4 -281.1,526.9 -467.5,526.9 z m 364.5,-872.1 h -729 c -99.6,0 -191.5,45.4 -252.2,124.4 -60.6,78.9 -80.7,179.2 -55.2,275.3 87.8,329.4 335.5,684 671.9,684 336.4,0 584.1,-354.6 671.9,-684 25.6,-96.1 5.4,-196.5 -55.2,-275.3 -60.8,-79 -152.7,-124.4 -252.2,-124.4"
         style="fill:#2e3369;fill-opacity:1;fill-rule:nonzero;stroke:none"
         id="path70" />
      <path
         d="m 30052.6,6571.3 c -168.8,0 -306.2,-137.3 -306.2,-306.1 0,-168.9 137.4,-306.3 306.2,-306.3 168.9,0 306.3,137.4 306.3,306.3 0,168.8 -137.4,306.1 -306.3,306.1 z m 0,-823.9 c -285.4,0 -517.7,232.3 -517.7,517.8 0,285.5 232.3,517.7 517.7,517.7 285.5,0 517.8,-232.2 517.8,-517.7 0,-285.5 -232.3,-517.8 -517.8,-517.8"
         style="fill:#2e3369;fill-opacity:1;fill-rule:nonzero;stroke:none"
         id="path72" />
      <path
         d="m 30052.6,5688.7 c -186.4,0 -387.4,-226.5 -467.4,-527 -8.5,-32 -1.8,-65.4 18.5,-91.8 20.3,-26.5 51.1,-41.7 84.4,-41.7 h 729.1 c 33.3,0 64.1,15.2 84.5,41.7 20.2,26.4 27,59.9 18.4,91.8 -80,300.5 -281,527 -467.5,527 z m 364.6,-872.1 h -729.1 c -99.5,0 -191.4,45.4 -252.1,124.4 -60.7,78.9 -80.8,179.2 -55.2,275.3 87.7,329.4 335.4,684 671.8,684 336.5,0 584.2,-354.6 672,-684 25.5,-96.1 5.4,-196.4 -55.2,-275.3 -60.7,-79 -152.7,-124.4 -252.2,-124.4"
         style="fill:#2e3369;fill-opacity:1;fill-rule:nonzero;stroke:none"
         id="path74" />
      <path
         d="m 27189.4,7181.7 h 1403.3 v 868.1 c 0,58.5 47.4,105.8 105.8,105.8 h 146.8 l -954.3,903.7 -953,-903.7 h 145.6 c 58.4,0 105.8,-47.3 105.8,-105.8 z m 1432.2,-211.6 h -1461.1 c -38.6,0 -75.5,11.9 -106.8,34.4 -16.3,11.7 -30.5,26.1 -42,42.5 -21.9,30.1 -33.8,67.1 -33.8,105.9 v 791.2 h -112.4 c -30.7,0 -61,7.7 -87.7,22.4 -30.5,16.6 -55.7,41.7 -72.6,72.5 -1.7,3.3 -6.9,14 -8.3,17.4 -28.5,68.2 -13.3,146.4 38.9,199 l 1027.9,974.5 c 44.6,45.1 119,64.1 184.9,42.5 27,-8.9 52.1,-24.4 72.3,-44.8 l 1023.1,-970 c 10.5,-10.5 17.9,-19.6 24.5,-29.3 34.1,-51.9 40.2,-115.8 16.7,-172 -28.4,-68.1 -94.6,-112.2 -168.6,-112.2 h -112.3 v -791.2 c 0,-100.7 -82,-182.8 -182.7,-182.8"
         style="fill:#2e3369;fill-opacity:1;fill-rule:nonzero;stroke:none"
         id="path76" />
      <path
         d="m 27599.4,7551.7 c -58.4,0 -105.8,47.3 -105.8,105.7 v 202 c 0,58.4 47.4,105.7 105.8,105.7 58.4,0 105.8,-47.3 105.8,-105.7 v -202 c 0,-58.4 -47.4,-105.7 -105.8,-105.7"
         style="fill:#2e3369;fill-opacity:1;fill-rule:nonzero;stroke:none"
         id="path78" />
      <path
         d="m 28182.7,7551.7 c -58.4,0 -105.7,47.3 -105.7,105.7 v 202 c 0,58.4 47.3,105.7 105.7,105.7 58.4,0 105.8,-47.3 105.8,-105.7 v -202 c 0,-58.4 -47.4,-105.7 -105.8,-105.7"
         style="fill:#2e3369;fill-opacity:1;fill-rule:nonzero;stroke:none"
         id="path80" />
      <path
         d="m 16006.1,4709.8 c -58.4,0 -105.8,47.4 -105.8,105.8 v 1857.8 c 0,58.5 47.4,105.8 105.8,105.8 58.4,0 105.8,-47.3 105.8,-105.8 V 4815.6 c 0,-58.4 -47.4,-105.8 -105.8,-105.8"
         style="fill:#2e3369;fill-opacity:1;fill-rule:nonzero;stroke:none"
         id="path82" />
      <path
         d="m 19402.1,6108.3 c -58.4,0 -105.8,47.3 -105.8,105.8 v 459.3 c 0,58.5 47.4,105.8 105.8,105.8 58.4,0 105.7,-47.3 105.7,-105.8 v -459.3 c 0,-58.5 -47.3,-105.8 -105.7,-105.8"
         style="fill:#2e3369;fill-opacity:1;fill-rule:nonzero;stroke:none"
         id="path84" />
      <path
         d="m 15643.8,6787.4 c -27.1,0 -54.1,10.4 -74.7,30.9 -41.4,41.3 -41.4,108.4 -0.1,149.7 l 1892.2,1894.4 c 135.4,131.9 351.9,131.5 483.5,0 L 19839.2,6968 c 41.3,-41.3 41.3,-108.3 0,-149.6 -41.4,-41.3 -108.3,-41.3 -149.6,0 l -1894.5,1894.5 c -50.3,50.2 -133.4,49.7 -185.3,-1 L 15718.6,6818.4 c -20.6,-20.6 -47.7,-31 -74.8,-31"
         style="fill:#2e3369;fill-opacity:1;fill-rule:nonzero;stroke:none"
         id="path86" />
      <path
         d="m 18187.7,4383.3 h -2543.9 c -58.4,0 -105.8,47.3 -105.8,105.8 0,58.5 47.4,105.8 105.8,105.8 h 2543.9 c 58.5,0 105.8,-47.3 105.8,-105.8 0,-58.5 -47.3,-105.8 -105.8,-105.8"
         style="fill:#2e3369;fill-opacity:1;fill-rule:nonzero;stroke:none"
         id="path88" />
      <path
         d="m 17704.1,7533.1 c -108.1,0 -196,-87.9 -196,-196 0,-108 87.9,-195.9 196,-195.9 108,0 195.9,87.9 195.9,195.9 0,108.1 -87.9,196 -195.9,196 z m 0,-603.4 c -224.7,0 -407.5,182.8 -407.5,407.4 0,224.7 182.8,407.5 407.5,407.5 224.7,0 407.5,-182.8 407.5,-407.5 0,-224.6 -182.8,-407.4 -407.5,-407.4"
         style="fill:#2e3369;fill-opacity:1;fill-rule:nonzero;stroke:none"
         id="path90" />
      <path
         d="m 16468,7652.2 c -58.4,0 -105.8,47.3 -105.8,105.7 v 1044 c 0,58.5 47.4,105.8 105.8,105.8 58.4,0 105.7,-47.3 105.7,-105.8 v -1044 c 0,-58.4 -47.3,-105.7 -105.7,-105.7"
         style="fill:#2e3369;fill-opacity:1;fill-rule:nonzero;stroke:none"
         id="path92" />
      <path
         d="m 16864.5,8075.8 c -58.4,0 -105.8,47.3 -105.8,105.7 v 620.4 c 0,58.5 47.4,105.8 105.8,105.8 58.4,0 105.8,-47.3 105.8,-105.8 v -620.4 c 0,-58.4 -47.4,-105.7 -105.8,-105.7"
         style="fill:#2e3369;fill-opacity:1;fill-rule:nonzero;stroke:none"
         id="path94" />
      <path
         d="m 16950.2,8749.9 h -568 c -58.4,0 -105.7,47.3 -105.7,105.8 0,58.5 47.3,105.8 105.7,105.8 h 568 c 58.4,0 105.8,-47.3 105.8,-105.8 0,-58.5 -47.4,-105.8 -105.8,-105.8"
         style="fill:#2e3369;fill-opacity:1;fill-rule:nonzero;stroke:none"
         id="path96" />
      <path
         d="m 18754.1,6291.7 c -507,0 -919.6,-412.5 -919.6,-919.6 0,-507 412.6,-919.6 919.6,-919.6 507.1,0 919.7,412.6 919.7,919.6 0,507.1 -412.6,919.6 -919.7,919.6 z m 0,-2050.7 c -623.7,0 -1131.1,507.5 -1131.1,1131.1 0,623.7 507.4,1131.2 1131.1,1131.2 623.8,0 1131.2,-507.5 1131.2,-1131.2 0,-623.6 -507.4,-1131.1 -1131.2,-1131.1"
         style="fill:#2e3369;fill-opacity:1;fill-rule:nonzero;stroke:none"
         id="path98" />
      <path
         d="m 18414.5,5801.6 c -49.5,0 -89.8,-40.3 -89.8,-89.8 0,-49.6 40.3,-89.9 89.8,-89.9 49.5,0 89.9,40.3 89.9,89.9 0,49.5 -40.4,89.8 -89.9,89.8 z m 0,-391.2 c -166.1,0 -301.3,135.2 -301.3,301.4 0,166.2 135.2,301.4 301.3,301.4 166.2,0 301.4,-135.2 301.4,-301.4 0,-166.2 -135.2,-301.4 -301.4,-301.4"
         style="fill:#2e3369;fill-opacity:1;fill-rule:nonzero;stroke:none"
         id="path100" />
      <path
         d="m 19093.8,5122.4 c -49.6,0 -89.9,-40.3 -89.9,-89.9 0,-49.6 40.3,-89.8 89.9,-89.8 49.5,0 89.8,40.2 89.8,89.8 0,49.6 -40.3,89.9 -89.8,89.9 z m 0,-391.3 c -166.2,0 -301.4,135.2 -301.4,301.4 0,166.2 135.2,301.4 301.4,301.4 166.1,0 301.3,-135.2 301.3,-301.4 0,-166.2 -135.2,-301.4 -301.3,-301.4"
         style="fill:#2e3369;fill-opacity:1;fill-rule:nonzero;stroke:none"
         id="path102" />
      <path
         d="m 18279.8,4792.1 c -27,0 -54.1,10.3 -74.8,30.9 -41.3,41.4 -41.3,108.3 0,149.6 l 948.7,948.6 c 41.3,41.3 108.2,41.3 149.5,0 41.3,-41.3 41.3,-108.2 0,-149.5 L 18354.6,4823 c -20.6,-20.6 -47.7,-30.9 -74.8,-30.9"
         style="fill:#2e3369;fill-opacity:1;fill-rule:nonzero;stroke:none"
         id="path104" />
      <path
         d="M 6793.75,4846.8 H 5707.7 c -58.41,0 -105.77,47.3 -105.77,105.8 0,58.4 47.36,105.7 105.77,105.7 h 1086.05 c 58.41,0 105.76,-47.3 105.76,-105.7 0,-58.5 -47.35,-105.8 -105.76,-105.8"
         style="fill:#2e3369;fill-opacity:1;fill-rule:nonzero;stroke:none"
         id="path106" />
      <path
         d="m 7104.8,5110.6 c -86.09,0 -156.17,-70 -156.17,-156.2 0,-86.1 70.08,-156.2 156.17,-156.2 86.1,0 156.18,70.1 156.18,156.2 0,86.2 -70.08,156.2 -156.18,156.2 z m 0,-524 c -202.75,0 -367.71,165 -367.71,367.8 0,202.8 164.96,367.7 367.71,367.7 202.76,0 367.72,-164.9 367.72,-367.7 0,-202.8 -164.96,-367.8 -367.72,-367.8"
         style="fill:#2e3369;fill-opacity:1;fill-rule:nonzero;stroke:none"
         id="path108" />
      <path
         d="m 5423.39,5110.6 c -86.14,0 -156.22,-70 -156.22,-156.2 0,-86.1 70.08,-156.2 156.22,-156.2 86.1,0 156.18,70.1 156.18,156.2 0,86.2 -70.08,156.2 -156.18,156.2 z m 0,-524 c -202.81,0 -367.76,165 -367.76,367.8 0,202.8 164.95,367.7 367.76,367.7 202.76,0 367.72,-164.9 367.72,-367.7 0,-202.8 -164.96,-367.8 -367.72,-367.8"
         style="fill:#2e3369;fill-opacity:1;fill-rule:nonzero;stroke:none"
         id="path110" />
      <path
         d="m 7546.53,5552.6 h -568.15 c -58.41,0 -105.77,47.3 -105.77,105.8 0,58.4 47.36,105.7 105.77,105.7 h 568.15 c 58.41,0 105.76,-47.3 105.76,-105.7 0,-58.5 -47.35,-105.8 -105.76,-105.8"
         style="fill:#2e3369;fill-opacity:1;fill-rule:nonzero;stroke:none"
         id="path112" />
      <path
         d="m 7411.94,4846.8 c -58.41,0 -105.77,47.3 -105.77,105.8 0,58.4 47.36,105.7 105.77,105.7 51.33,0 93.06,41.8 93.06,93.1 v 301.1 c 0,220.7 -50.3,442.7 -145.53,641.7 l -49.22,103 c -24.74,51.8 -77.73,85.1 -135,85.1 h -384.34 c -58.42,0 -105.77,47.3 -105.77,105.8 0,58.5 47.35,105.8 105.77,105.8 h 384.34 c 138.25,0 266.13,-80.6 325.78,-205.4 l 49.27,-102.9 c 108.76,-227.5 166.24,-481 166.24,-733.1 v -301.1 c 0,-167.9 -136.65,-304.6 -304.6,-304.6"
         style="fill:#2e3369;fill-opacity:1;fill-rule:nonzero;stroke:none"
         id="path114" />
      <path
         d="m 4799.57,5206.5 c -58.41,0 -105.77,47.3 -105.77,105.7 v 1228.3 c 0,151.5 123.23,274.7 274.7,274.7 h 1622.07 c 151.48,0 274.7,-123.2 274.7,-274.7 v -523.4 c 0,-58.5 -47.35,-105.8 -105.76,-105.8 -58.42,0 -105.77,47.3 -105.77,105.8 v 523.4 c 0,34.8 -28.36,63.2 -63.17,63.2 H 4968.5 c -34.81,0 -63.16,-28.4 -63.16,-63.2 V 5312.2 c 0,-58.4 -47.36,-105.7 -105.77,-105.7"
         style="fill:#2e3369;fill-opacity:1;fill-rule:nonzero;stroke:none"
         id="path116" />
      <path
         d="M 5122.66,4848.7 H 4968.5 c -151.47,0 -274.7,123.2 -274.7,274.6 v 315.3 c 0,58.4 47.36,105.7 105.77,105.7 58.41,0 105.77,-47.3 105.77,-105.7 v -315.3 c 0,-34.8 28.35,-63.1 63.16,-63.1 h 154.16 c 58.41,0 105.77,-47.3 105.77,-105.8 0,-58.4 -47.36,-105.7 -105.77,-105.7"
         style="fill:#2e3369;fill-opacity:1;fill-rule:nonzero;stroke:none"
         id="path118" />
      <path
         d="M 9039.17,4294.5 H 5063.01 c -58.41,0 -105.77,47.3 -105.77,105.8 0,58.4 47.36,105.8 105.77,105.8 h 3976.16 c 268.66,0 487.27,218.5 487.27,487.3 0,268.7 -218.61,487.3 -487.27,487.3 h -551.31 c -273.72,0 -496.36,222.7 -496.36,496.3 0,273.7 222.64,496.4 496.36,496.4 h 186.08 c 58.41,0 105.77,-47.3 105.77,-105.7 0,-58.5 -47.36,-105.8 -105.77,-105.8 h -186.08 c -157.05,0 -284.82,-127.8 -284.82,-284.9 0,-157 127.77,-284.8 284.82,-284.8 h 551.31 c 385.33,0 698.81,-313.4 698.81,-698.8 0,-385.4 -313.48,-698.9 -698.81,-698.9"
         style="fill:#2e3369;fill-opacity:1;fill-rule:nonzero;stroke:none"
         id="path120" />
      <path
         d="m 5746.23,5513.4 c -28.87,0 -56.55,11.8 -76.59,32.9 l -300.47,315.3 c -40.29,42.3 -38.69,109.2 3.61,149.5 42.3,40.2 109.18,38.9 149.57,-3.6 l 217.78,-228.6 373.76,457.4 c 37.03,45.3 103.65,51.8 148.84,14.9 45.24,-36.9 51.96,-103.6 14.98,-148.8 l -449.57,-550.1 c -19.22,-23.5 -47.57,-37.6 -77.88,-38.8 -1.35,-0.1 -2.69,-0.1 -4.03,-0.1"
         style="fill:#2e3369;fill-opacity:1;fill-rule:nonzero;stroke:none"
         id="path122" />
      <path
         d="m 7636.28,6862.3 h 1593.21 v 982.6 c 0,58.5 47.35,105.8 105.76,105.8 h 194.81 l -1097.2,1039.5 -1098.39,-1041.5 196.05,2 c 58.41,0 105.76,-47.3 105.76,-105.8 z M 9249.32,6650.8 H 7616.45 c -40.54,0 -79.32,12.5 -112.17,36.2 -16.58,11.8 -31.45,26.8 -43.69,43.9 -23.29,32.3 -35.84,71 -35.84,111.6 v 896.6 h -138 c -32.17,0 -64.04,8.2 -92.13,23.7 -32.18,17.6 -58.62,44 -76.18,76.4 -1.6,2.9 -6.97,14.1 -8.26,17.1 -30.22,72.3 -14.26,154.3 40.38,209.4 l 1148.54,1089 c 47.46,48.2 126.53,67.4 194.39,44.7 28.72,-9.7 54.9,-26 75.87,-47.2 L 9712.83,8068.1 c 11.83,-12.1 19.32,-21.4 25.88,-31.2 35.48,-53.8 41.83,-120.8 17.25,-179.8 -29.96,-71.7 -99.37,-118 -176.94,-118 h -138 v -896.6 c 0,-105.7 -85.99,-191.7 -191.7,-191.7"
         style="fill:#2e3369;fill-opacity:1;fill-rule:nonzero;stroke:none"
         id="path124" />
      <path
         d="m 8106.98,7300.7 c -58.41,0 -105.77,47.3 -105.77,105.7 v 225.7 c 0,58.5 47.36,105.8 105.77,105.8 58.41,0 105.77,-47.3 105.77,-105.8 v -225.7 c 0,-58.4 -47.36,-105.7 -105.77,-105.7"
         style="fill:#2e3369;fill-opacity:1;fill-rule:nonzero;stroke:none"
         id="path126" />
      <path
         d="m 8758.84,7300.7 c -58.41,0 -105.77,47.3 -105.77,105.7 v 225.7 c 0,58.5 47.36,105.8 105.77,105.8 58.41,0 105.77,-47.3 105.77,-105.8 v -225.7 c 0,-58.4 -47.36,-105.7 -105.77,-105.7"
         style="fill:#2e3369;fill-opacity:1;fill-rule:nonzero;stroke:none"
         id="path128" />
      <path
         d="m 46236.7,18299.6 h 4468.6 l -183.7,214.9 h -4101.2 z m 4698.1,-211.5 h -4927.6 c -41.2,0 -78.7,24 -96,61.5 -17.3,37.5 -11.2,81.6 15.6,113 l 364.4,426.4 c 20.1,23.5 49.5,37.1 80.4,37.1 h 4198.8 c 30.9,0 60.3,-13.6 80.4,-37.1 l 364.4,-426.4 c 26.8,-31.4 32.9,-75.5 15.6,-113 -17.3,-37.5 -54.7,-61.5 -96,-61.5"
         style="fill:#2e3369;fill-opacity:1;fill-rule:nonzero;stroke:none"
         id="path130" />
      <path
         d="m 50743.1,14775.8 h -359.4 c -58.4,0 -105.7,47.4 -105.7,105.8 0,58.4 47.3,105.8 105.7,105.8 h 253.7 V 17767 l -1010.9,-247.8 c -56.8,-13.6 -114.1,20.8 -128,77.6 -13.9,56.7 20.9,114 77.6,127.9 l 1141.8,279.8 c 31.6,8 64.9,0.6 90.5,-19.5 25.6,-20 40.5,-50.7 40.5,-83.2 v -3020.2 c 0,-58.4 -47.4,-105.8 -105.8,-105.8"
         style="fill:#2e3369;fill-opacity:1;fill-rule:nonzero;stroke:none"
         id="path132" />
      <path
         d="m 46558.3,14775.8 h -359.4 c -58.4,0 -105.7,47.4 -105.7,105.8 v 3020.2 c 0,32.5 14.9,63.2 40.5,83.2 25.5,20.1 58.8,27.4 90.4,19.5 l 1141.9,-279.8 c 56.7,-13.9 91.4,-71.2 77.5,-127.9 -14,-56.8 -71.5,-91.1 -127.9,-77.6 l -1010.9,247.8 v -2779.6 h 253.6 c 58.4,0 105.7,-47.4 105.7,-105.8 0,-58.4 -47.3,-105.8 -105.7,-105.8"
         style="fill:#2e3369;fill-opacity:1;fill-rule:nonzero;stroke:none"
         id="path134" />
      <path
         d="m 49765.7,16550.1 c -36.9,0 -72.7,19.3 -92.1,53.6 l -235.4,415.2 c -80.8,142.6 -217,227.8 -364.3,227.8 h -1203.5 c -147.4,0 -283.6,-85.1 -364.3,-227.7 l -235.4,-415.3 c -28.8,-50.7 -93.2,-68.5 -144.2,-39.9 -50.8,28.9 -68.6,93.4 -39.8,144.2 l 235.3,415.3 c 118.8,209.7 323.8,334.9 548.4,334.9 h 1203.5 c 224.5,0 429.5,-125.2 548.4,-334.9 l 235.3,-415.3 c 28.8,-50.8 11,-115.3 -39.8,-144.2 -16.5,-9.2 -34.4,-13.7 -52.1,-13.7"
         style="fill:#2e3369;fill-opacity:1;fill-rule:nonzero;stroke:none"
         id="path136" />
      <path
         d="m 49681.4,16487.5 h -2418.5 c -58.4,0 -105.7,47.3 -105.7,105.7 0,58.4 47.3,105.8 105.7,105.8 h 2418.5 c 58.4,0 105.7,-47.4 105.7,-105.8 0,-58.4 -47.3,-105.7 -105.7,-105.7"
         style="fill:#2e3369;fill-opacity:1;fill-rule:nonzero;stroke:none"
         id="path138" />
      <path
         d="m 47345,14775.8 c -194.4,0 -352.5,163.8 -352.5,365.1 v 356.9 c 0,58.4 47.3,105.8 105.7,105.8 58.4,0 105.8,-47.4 105.8,-105.8 v -356.9 c 0,-84.6 63.3,-153.5 141,-153.5 77.7,0 141,68.9 141,153.5 v 183.9 c 0,58.4 47.3,105.7 105.7,105.7 58.5,0 105.8,-47.3 105.8,-105.7 v -183.9 c 0,-201.3 -158.1,-365.1 -352.5,-365.1"
         style="fill:#2e3369;fill-opacity:1;fill-rule:nonzero;stroke:none"
         id="path140" />
      <path
         d="m 49598.2,14775.8 c -194.4,0 -352.6,163.8 -352.6,365.1 v 183.9 c 0,58.4 47.4,105.7 105.8,105.7 58.4,0 105.8,-47.3 105.8,-105.7 v -183.9 c 0,-84.6 63.2,-153.5 141,-153.5 77.7,0 141,68.9 141,153.5 v 356.9 c 0,58.4 47.3,105.8 105.7,105.8 58.4,0 105.8,-47.4 105.8,-105.8 v -356.9 c 0,-201.3 -158.1,-365.1 -352.5,-365.1"
         style="fill:#2e3369;fill-opacity:1;fill-rule:nonzero;stroke:none"
         id="path142" />
      <path
         d="m 49578.1,15262.4 h -2211.9 c -239.7,0 -434.8,202.5 -434.8,451.5 v 511.2 c 0,58.4 47.4,105.8 105.8,105.8 58.4,0 105.7,-47.4 105.7,-105.8 v -511.2 c 0,-132.3 100.2,-240 223.3,-240 h 2211.9 c 123,0 223.2,107.7 223.2,240 v 511.2 c 0,58.4 47.3,105.8 105.8,105.8 58.4,0 105.7,-47.4 105.7,-105.8 v -511.2 c 0,-249 -195,-451.5 -434.7,-451.5"
         style="fill:#2e3369;fill-opacity:1;fill-rule:nonzero;stroke:none"
         id="path144" />
      <path
         d="m 49985.1,16119.3 h -78 c -58.5,0 -105.8,47.4 -105.8,105.8 0,58.4 47.3,105.8 105.8,105.8 h 78 c 43.2,0 78.3,35.1 78.3,78.3 0,43.1 -35.1,78.3 -78.3,78.3 h -315.4 c -58.4,0 -105.7,47.3 -105.7,105.7 0,58.4 47.3,105.8 105.7,105.8 h 315.4 c 159.8,0 289.8,-130 289.8,-289.8 0,-159.8 -130,-289.9 -289.8,-289.9"
         style="fill:#2e3369;fill-opacity:1;fill-rule:nonzero;stroke:none"
         id="path146" />
      <path
         d="m 47035,16119.3 h -78.1 c -159.8,0 -289.8,130.1 -289.8,289.9 0,159.8 130,289.8 289.8,289.8 h 315.4 c 58.4,0 105.7,-47.4 105.7,-105.8 0,-58.4 -47.3,-105.7 -105.7,-105.7 h -315.4 c -43.1,0 -78.3,-35.2 -78.3,-78.3 0,-43.2 35.2,-78.3 78.3,-78.3 h 78.1 c 58.4,0 105.7,-47.4 105.7,-105.8 0,-58.4 -47.3,-105.8 -105.7,-105.8"
         style="fill:#2e3369;fill-opacity:1;fill-rule:nonzero;stroke:none"
         id="path148" />
      <path
         d="m 47685.8,15722.1 c -3.8,0 -7.6,0.2 -11.4,0.7 l -325.2,34.7 c -58.1,6.2 -100.2,58.3 -93.9,116.4 6.2,58.1 58.4,100.3 116.4,93.9 l 325.2,-34.7 c 58,-6.2 100.1,-58.4 93.9,-116.5 -5.8,-54.2 -51.7,-94.5 -105,-94.5"
         style="fill:#2e3369;fill-opacity:1;fill-rule:nonzero;stroke:none"
         id="path150" />
      <path
         d="m 49256.3,15722.1 c -53.4,0 -99.2,40.3 -105,94.5 -6.3,58.1 35.8,110.3 93.9,116.5 l 325.1,34.7 c 59,5.7 110.3,-35.9 116.4,-93.9 6.3,-58.1 -35.8,-110.2 -93.9,-116.4 l -325.1,-34.7 c -3.8,-0.5 -7.7,-0.7 -11.4,-0.7"
         style="fill:#2e3369;fill-opacity:1;fill-rule:nonzero;stroke:none"
         id="path152" />
      <path
         d="m 38176.3,13683.6 c -58.4,0 -105.8,47.4 -105.8,105.8 v 701.9 c 0,58.4 47.4,105.7 105.8,105.7 58.4,0 105.7,-47.3 105.7,-105.7 v -701.9 c 0,-58.4 -47.3,-105.8 -105.7,-105.8"
         style="fill:#2e3369;fill-opacity:1;fill-rule:nonzero;stroke:none"
         id="path154" />
      <path
         d="m 38176.3,18665.7 c -58.4,0 -105.8,47.4 -105.8,105.8 v 729.5 c 0,58.4 47.4,105.7 105.8,105.7 58.4,0 105.7,-47.3 105.7,-105.7 v -729.5 c 0,-58.4 -47.3,-105.8 -105.7,-105.8"
         style="fill:#2e3369;fill-opacity:1;fill-rule:nonzero;stroke:none"
         id="path156" />
      <path
         d="m 40561.2,17118.9 c -47.8,0 -91.2,32.6 -102.8,81.1 -203.1,847.9 -882.6,1527.5 -1731.4,1731.4 -56.8,13.6 -91.8,70.7 -78.1,127.5 13.6,56.8 71.4,91.7 127.5,78.2 925.4,-222.3 1666.3,-963.3 1887.8,-1887.8 13.6,-56.8 -21.5,-113.9 -78.3,-127.5 -8.2,-2 -16.5,-2.9 -24.7,-2.9"
         style="fill:#2e3369;fill-opacity:1;fill-rule:nonzero;stroke:none"
         id="path158" />
      <path
         d="m 38722.4,14151 c -48.4,0 -92.9,32.8 -104.3,81.6 -13.1,57 20.8,113.4 77.7,126.6 0.1,0 3.1,0.7 3.1,0.7 7.6,1.7 15.4,3.5 22.8,5.7 854.1,205.3 1533.6,884.9 1736.7,1732.8 13.6,56.8 70.9,91.4 127.5,78.2 56.8,-13.6 91.9,-70.7 78.3,-127.5 -221.5,-924.6 -962.4,-1665.6 -1887.8,-1887.8 -6.2,-2 -18.3,-4.8 -29.9,-7.5 -8.1,-1.9 -16.1,-2.8 -24.1,-2.8"
         style="fill:#2e3369;fill-opacity:1;fill-rule:nonzero;stroke:none"
         id="path160" />
      <path
         d="m 35791.3,17118.9 c -8.2,0 -16.5,0.9 -24.7,2.9 -56.8,13.6 -91.9,70.7 -78.3,127.5 221.5,924.5 962.4,1665.5 1887.8,1887.8 56.5,13.7 113.9,-21.4 127.5,-78.2 13.7,-56.8 -21.3,-113.9 -78.1,-127.5 -848.8,-203.9 -1528.4,-883.5 -1731.4,-1731.4 -11.6,-48.5 -55,-81.1 -102.8,-81.1"
         style="fill:#2e3369;fill-opacity:1;fill-rule:nonzero;stroke:none"
         id="path162" />
      <path
         d="m 37600.9,14158.4 c -8.2,0 -16.5,0.9 -24.8,2.9 -925.4,222.2 -1666.3,963.2 -1887.8,1887.8 -13.6,56.8 21.5,113.9 78.3,127.5 56.7,13.1 113.9,-21.4 127.5,-78.2 203,-847.9 882.6,-1527.5 1731.4,-1731.4 56.8,-13.7 91.8,-70.7 78.1,-127.5 -11.6,-48.5 -54.9,-81.1 -102.7,-81.1"
         style="fill:#2e3369;fill-opacity:1;fill-rule:nonzero;stroke:none"
         id="path164" />
      <path
         d="M 36183.9,16539.4 H 35383 c -58.4,0 -105.7,47.4 -105.7,105.8 0,58.4 47.3,105.8 105.7,105.8 h 800.9 c 58.4,0 105.8,-47.4 105.8,-105.8 0,-58.4 -47.4,-105.8 -105.8,-105.8"
         style="fill:#2e3369;fill-opacity:1;fill-rule:nonzero;stroke:none"
         id="path166" />
      <path
         d="m 40969.5,16539.4 h -800.9 c -58.4,0 -105.8,47.4 -105.8,105.8 0,58.4 47.4,105.8 105.8,105.8 h 800.9 c 58.4,0 105.8,-47.4 105.8,-105.8 0,-58.4 -47.4,-105.8 -105.8,-105.8"
         style="fill:#2e3369;fill-opacity:1;fill-rule:nonzero;stroke:none"
         id="path168" />
      <path
         d="m 38643.4,15266.1 h 427.8 v 1390.6 c 0,58.4 47.4,105.8 105.8,105.8 h 245.2 l -1246,1257.3 -1246,-1257.3 h 245.2 c 58.5,0 105.8,-47.4 105.8,-105.8 v -1390.6 h 427.9 v 751.7 c 0.1,120 95.9,215.7 213.6,215.7 h 506.9 c 115.8,0 210.3,-92.6 213.4,-207.5 0.2,-3 0.4,-5.9 0.4,-8.2 z m 438.3,-211.5 H 38633 c -110.9,0 -201.1,90.1 -201.1,201 v 757.3 c -0.2,2.6 -0.3,5.1 -0.3,7.2 l -508.9,1.9 c 0,-2.4 -2.2,-8.9 -2.3,-11.3 l 0.2,-755.1 c 0,-110.9 -90.1,-201 -201,-201 h -448.8 c -42.5,0 -83.1,13.1 -117.6,37.9 -17.6,12.7 -32.9,28 -45.6,45.6 -24.8,34.3 -37.9,75 -37.9,117.5 v 1295.3 h -164.6 c -33.6,0 -67.1,8.6 -96.5,24.8 -33.4,17.9 -61.2,45.7 -79.9,79.9 -1.8,3.3 -7.7,15.6 -9.2,19.1 -31.3,75 -14.5,161 42.8,218.8 l 1271.1,1282.8 c 52.6,53.1 134.8,72.9 206.2,49.2 30.1,-9.9 57.7,-27.1 79.8,-49.7 l 1270.8,-1282.3 c 9.3,-9.4 17.5,-19.6 24.6,-30.2 0.7,-1 1.4,-2.1 2.1,-3.2 35.4,-55.5 41.4,-124.6 16,-185.5 -31.3,-75.1 -104.1,-123.7 -185.6,-123.7 h -164.5 v -1295.3 c 0,-110.9 -90.3,-201 -201.1,-201"
         style="fill:#2e3369;fill-opacity:1;fill-rule:nonzero;stroke:none"
         id="path170" />
      <path
         d="m 27614.3,16357.1 c -167.7,0 -304.2,-136.5 -304.2,-304.2 0,-167.7 136.5,-304.1 304.2,-304.1 167.7,0 304.1,136.4 304.1,304.1 0,167.7 -136.4,304.2 -304.1,304.2 z m 0,-819.9 c -284.4,0 -515.7,231.4 -515.7,515.7 0,284.4 231.3,515.7 515.7,515.7 284.3,0 515.7,-231.3 515.7,-515.7 0,-284.3 -231.4,-515.7 -515.7,-515.7"
         style="fill:#2e3369;fill-opacity:1;fill-rule:nonzero;stroke:none"
         id="path172" />
      <path
         d="m 26673.2,15537.1 h -0.1 -183.6 c -163.6,0.1 -299.8,128.1 -309.8,291.3 -3.6,58.3 40.7,108.5 99,112.1 59.6,3.6 108.5,-40.8 112.1,-99.1 3.2,-52 46.6,-92.7 98.9,-92.7 l 183.5,-0.1 v 0 c 26.5,0 51.3,10.3 70,29 18.7,18.8 29.1,43.6 29.1,70.1 0,54.9 -44.5,99.3 -99.1,99.3 l -184.5,0.1 c -171.2,0.1 -310.5,139.3 -310.5,310.5 0,171.6 139.4,310.9 310.7,310.9 h 184.4 c 162,-0.1 298,-126.5 309.7,-287.9 4.2,-58.3 -39.6,-108.9 -97.9,-113.2 -57.8,-3.9 -108.8,39.6 -113.1,97.9 -3.7,51.4 -47.1,91.7 -98.8,91.7 h -184.4 c -54.6,0 -99,-44.5 -99,-99.1 0,-54.8 44.4,-99.3 99,-99.3 l 184.5,-0.1 c 171.2,0 310.5,-139.3 310.5,-310.6 0,-83.2 -32.3,-161.2 -91,-219.9 -58.7,-58.6 -136.6,-90.9 -219.6,-90.9"
         style="fill:#2e3369;fill-opacity:1;fill-rule:nonzero;stroke:none"
         id="path174" />
      <path
         d="m 29320,15748.5 h 214.8 c 100.1,0 181.7,81.6 181.7,181.8 v 244.9 c 0,100.2 -81.6,181.7 -181.7,181.7 H 29320 Z m 214.8,-211.5 h -320.6 c -58.4,0 -105.7,47.3 -105.7,105.8 v 819.9 c 0,58.4 47.3,105.7 105.7,105.7 h 320.6 c 216.8,0 393.2,-176.4 393.2,-393.2 v -244.9 c 0,-216.9 -176.4,-393.3 -393.2,-393.3"
         style="fill:#2e3369;fill-opacity:1;fill-rule:nonzero;stroke:none"
         id="path176" />
      <path
         d="m 28859.7,15537 h -516.8 c -58.4,0 -105.7,47.3 -105.7,105.8 v 819.9 c 0,58.4 47.3,105.7 105.7,105.7 58.4,0 105.8,-47.3 105.8,-105.7 v -714.2 h 411 c 58.5,0 105.8,-47.3 105.8,-105.7 0,-58.5 -47.3,-105.8 -105.8,-105.8"
         style="fill:#2e3369;fill-opacity:1;fill-rule:nonzero;stroke:none"
         id="path178" />
      <path
         d="m 29921.1,15060.9 h -3735.9 c -282.8,0 -512.8,230 -512.8,512.7 V 17352 c 0,282.7 230,512.7 512.8,512.7 h 2081.3 c 58.4,0 105.7,-47.3 105.7,-105.7 0,-58.4 -47.3,-105.8 -105.7,-105.8 h -2081.3 c -166.1,0 -301.2,-135.1 -301.2,-301.2 v -1778.4 c 0,-166 135.1,-301.1 301.2,-301.1 h 3735.9 c 166.1,0 301.2,135.1 301.2,301.1 V 17352 c 0,166.1 -135.1,301.2 -301.2,301.2 h -1124.7 c -58.4,0 -105.8,47.4 -105.8,105.8 0,58.4 47.4,105.7 105.8,105.7 h 1124.7 c 282.7,0 512.7,-230 512.7,-512.7 v -1778.4 c 0,-282.7 -230,-512.7 -512.7,-512.7"
         style="fill:#2e3369;fill-opacity:1;fill-rule:nonzero;stroke:none"
         id="path180" />
      <path
         d="m 27096.4,17355.1 c -40,0 -72.5,-32.5 -72.5,-72.5 0,-40 32.5,-72.5 72.5,-72.5 40,0 72.4,32.5 72.4,72.5 0,40 -32.4,72.5 -72.4,72.5 z m 0,-356.6 c -156.7,0 -284.1,127.5 -284.1,284.1 0,156.6 127.4,284 284.1,284 156.6,0 284,-127.4 284,-284 0,-156.6 -127.4,-284.1 -284,-284.1"
         style="fill:#2e3369;fill-opacity:1;fill-rule:nonzero;stroke:none"
         id="path182" />
      <path
         d="m 28994.3,17355.1 c -40,0 -72.5,-32.5 -72.5,-72.5 0,-40 32.5,-72.5 72.5,-72.5 40,0 72.5,32.5 72.5,72.5 0,40 -32.5,72.5 -72.5,72.5 z m 0,-356.6 c -156.6,0 -284,127.5 -284,284.1 0,156.6 127.4,284 284,284 156.6,0 284,-127.4 284,-284 0,-156.6 -127.4,-284.1 -284,-284.1"
         style="fill:#2e3369;fill-opacity:1;fill-rule:nonzero;stroke:none"
         id="path184" />
      <path
         d="m 28994.4,17355.1 c -31.9,0 -63.3,14.3 -84.1,41.5 l -833.7,1090.8 -898.5,-1093.7 c -37,-45.2 -103.8,-51.7 -148.9,-14.6 -45.1,37 -51.6,103.7 -14.6,148.9 l 983.2,1196.8 c 20.5,25 52.4,37.1 83.6,38.7 32.3,-0.6 62.5,-15.9 82.2,-41.6 l 914.7,-1196.8 c 35.5,-46.5 26.6,-112.8 -19.8,-148.3 -19.2,-14.7 -41.7,-21.7 -64.1,-21.7"
         style="fill:#2e3369;fill-opacity:1;fill-rule:nonzero;stroke:none"
         id="path186" />
      <path
         d="m 26665.1,17657.4 c -58.4,0 -105.8,47.4 -105.8,105.8 v 899.2 c 0,158.1 128.7,286.8 286.8,286.8 h 1711.7 c 168.6,0 305.8,-137.2 305.8,-305.9 0,-168.6 -137.2,-305.8 -305.8,-305.8 h -239.7 c -58.4,0 -105.8,47.4 -105.8,105.8 0,58.4 47.4,105.8 105.8,105.8 h 239.7 c 51.9,0 94.2,42.3 94.2,94.2 0,52 -42.3,94.3 -94.2,94.3 h -1711.7 c -41.5,0 -75.2,-33.7 -75.2,-75.2 v -899.2 c 0,-58.4 -47.4,-105.8 -105.8,-105.8"
         style="fill:#2e3369;fill-opacity:1;fill-rule:nonzero;stroke:none"
         id="path188" />
      <path
         d="m 27260.1,18052.9 c -58.4,0 -105.7,47.3 -105.7,105.7 v 284.7 c 0,58.4 47.3,105.8 105.7,105.8 h 225.7 c 58.4,0 105.8,-47.4 105.8,-105.8 0,-58.4 -47.4,-105.8 -105.8,-105.8 h -119.9 v -178.9 c 0,-58.4 -47.3,-105.7 -105.8,-105.7"
         style="fill:#2e3369;fill-opacity:1;fill-rule:nonzero;stroke:none"
         id="path190" />
      <path
         d="m 26770.9,14295.3 h 467.7 v 765.6 h -467.7 z m 573.4,-211.5 h -679.2 c -58.4,0 -105.8,47.4 -105.8,105.8 v 977.1 c 0,58.4 47.4,105.8 105.8,105.8 h 679.2 c 58.4,0 105.8,-47.4 105.8,-105.8 v -977.1 c 0,-58.4 -47.4,-105.8 -105.8,-105.8"
         style="fill:#2e3369;fill-opacity:1;fill-rule:nonzero;stroke:none"
         id="path192" />
      <path
         d="m 16147.6,18731.7 c -81.5,0 -147.7,-66.3 -147.7,-147.7 0,-81.4 66.2,-147.7 147.7,-147.7 h 2916.2 c 81.4,0 147.7,66.3 147.7,147.7 0,81.4 -66.3,147.7 -147.7,147.7 z m 2916.2,-506.9 h -2916.2 c -198.2,0 -359.3,161.1 -359.3,359.2 0,198.1 161.1,359.2 359.3,359.2 h 2916.2 c 198.1,0 359.2,-161.1 359.2,-359.2 0,-198.1 -161.1,-359.2 -359.2,-359.2"
         style="fill:#2e3369;fill-opacity:1;fill-rule:nonzero;stroke:none"
         id="path194" />
      <path
         d="m 18267.8,17748.2 h -1324.3 c -58.4,0 -105.8,47.3 -105.8,105.7 0,58.5 47.4,105.8 105.8,105.8 h 1324.3 c 58.4,0 105.8,-47.3 105.8,-105.8 0,-58.4 -47.4,-105.7 -105.8,-105.7"
         style="fill:#2e3369;fill-opacity:1;fill-rule:nonzero;stroke:none"
         id="path196" />
      <path
         d="m 18609,17255.7 h -2006.7 c -58.4,0 -105.7,47.3 -105.7,105.8 0,58.4 47.3,105.7 105.7,105.7 H 18609 c 58.4,0 105.7,-47.3 105.7,-105.7 0,-58.5 -47.3,-105.8 -105.7,-105.8"
         style="fill:#2e3369;fill-opacity:1;fill-rule:nonzero;stroke:none"
         id="path198" />
      <path
         d="m 18609,16763.1 h -2006.7 c -58.4,0 -105.7,47.4 -105.7,105.8 0,58.4 47.3,105.8 105.7,105.8 H 18609 c 58.4,0 105.7,-47.4 105.7,-105.8 0,-58.4 -47.3,-105.8 -105.7,-105.8"
         style="fill:#2e3369;fill-opacity:1;fill-rule:nonzero;stroke:none"
         id="path200" />
      <path
         d="m 17559,16270.7 h -956.7 c -58.4,0 -105.7,47.3 -105.7,105.7 0,58.4 47.3,105.8 105.7,105.8 h 956.7 c 58.4,0 105.7,-47.4 105.7,-105.8 0,-58.4 -47.3,-105.7 -105.7,-105.7"
         style="fill:#2e3369;fill-opacity:1;fill-rule:nonzero;stroke:none"
         id="path202" />
      <path
         d="m 17400.3,15778.2 h -798 c -58.4,0 -105.7,47.3 -105.7,105.7 0,58.5 47.3,105.8 105.7,105.8 h 798 c 58.4,0 105.8,-47.3 105.8,-105.8 0,-58.4 -47.4,-105.7 -105.8,-105.7"
         style="fill:#2e3369;fill-opacity:1;fill-rule:nonzero;stroke:none"
         id="path204" />
      <path
         d="m 17400.3,15285.7 h -798 c -58.4,0 -105.7,47.3 -105.7,105.8 0,58.4 47.3,105.7 105.7,105.7 h 798 c 58.4,0 105.8,-47.3 105.8,-105.7 0,-58.5 -47.4,-105.8 -105.8,-105.8"
         style="fill:#2e3369;fill-opacity:1;fill-rule:nonzero;stroke:none"
         id="path206" />
      <path
         d="m 17633.9,14265.4 h -1317.6 c -290.9,0 -527.6,237.1 -527.6,528.6 v 3789.7 c 0,58.5 47.4,105.8 105.8,105.8 58.4,0 105.8,-47.3 105.8,-105.8 V 14794 c 0,-174.8 141.7,-317.1 316,-317.1 h 1317.6 c 58.4,0 105.7,-47.3 105.7,-105.8 0,-58.4 -47.3,-105.7 -105.7,-105.7"
         style="fill:#2e3369;fill-opacity:1;fill-rule:nonzero;stroke:none"
         id="path208" />
      <path
         d="m 19317.7,16409.5 c -58.4,0 -105.7,47.3 -105.7,105.7 V 18584 c 0,58.4 47.3,105.8 105.7,105.8 58.5,0 105.8,-47.4 105.8,-105.8 v -2068.8 c 0,-58.4 -47.3,-105.7 -105.8,-105.7"
         style="fill:#2e3369;fill-opacity:1;fill-rule:nonzero;stroke:none"
         id="path210" />
      <path
         d="m 16854.7,18513.8 c -58.4,0 -105.8,47.4 -105.8,105.8 v 405.4 c 0,58.4 47.4,105.8 105.8,105.8 58.4,0 105.8,-47.4 105.8,-105.8 v -405.4 c 0,-58.4 -47.4,-105.8 -105.8,-105.8"
         style="fill:#2e3369;fill-opacity:1;fill-rule:nonzero;stroke:none"
         id="path212" />
      <path
         d="m 18356.6,18513.8 c -58.4,0 -105.7,47.4 -105.7,105.8 v 405.4 c 0,58.4 47.3,105.8 105.7,105.8 58.4,0 105.8,-47.4 105.8,-105.8 v -405.4 c 0,-58.4 -47.4,-105.8 -105.8,-105.8"
         style="fill:#2e3369;fill-opacity:1;fill-rule:nonzero;stroke:none"
         id="path214" />
      <path
         d="m 18053.6,15996 -42.4,-1172.8 c -5.2,-143.1 75,-275.7 209.2,-346 l 527.2,-276.4 527.2,276.4 c 134.2,70.3 214.4,202.9 209.2,346.1 l -42.4,1172.7 -694,221 z m 694,-2020.4 c -16.9,0 -33.7,4 -49.1,12.1 l -576.3,302.1 c -207,108.5 -330.6,315.9 -322.5,541 l 45.1,1247.2 c 1.7,44.6 31.1,83.4 73.7,96.9 l 797,253.8 c 20.9,6.8 43.3,6.8 64.2,0 l 797,-253.8 c 42.6,-13.5 72,-52.3 73.7,-96.9 l 45,-1247.2 c 8.1,-225.1 -115.4,-432.4 -322.3,-541 l -576.4,-302.1 c -15.4,-8.1 -32.2,-12.1 -49.1,-12.1"
         style="fill:#2e3369;fill-opacity:1;fill-rule:nonzero;stroke:none"
         id="path216" />
      <path
         d="m 4979.56,15415.2 c -38.07,0 -74.79,20.5 -93.74,56.5 -563.5,1071.5 -366.47,2367.1 490.32,3223.9 856.95,856.8 2152.52,1053.9 3223.89,490.4 117.6,-61.4 232.41,-133 342.31,-213.4 l 126.68,127.7 c 27.69,27.9 68.54,38.2 106.08,26.6 37.55,-11.5 65.64,-42.9 72.93,-81.5 l 143.52,-759.2 c 6.35,-33.4 -3.77,-67.8 -27.22,-92.5 -23.34,-24.6 -57.22,-36.7 -90.89,-32 l -791.1,107.4 c -39.77,5.3 -73.08,32.8 -85.94,70.8 -12.91,37.9 -3.2,80 25.05,108.4 l 120.43,121.4 c -37.39,25.1 -75.61,49.1 -114.29,71.5 -853.18,497.5 -1936.38,357.4 -2634,-340.6 -220.27,-220.3 -387.34,-479.1 -496.47,-769.1 -20.61,-54.7 -81.8,-82.3 -136.24,-61.8 -54.69,20.6 -82.32,81.6 -61.77,136.2 119.82,318.4 303.16,602.5 544.91,844.3 765.49,765.7 1953.89,919.6 2889.96,373.8 80.82,-46.9 159.74,-99.5 234.47,-156.3 24.27,-18.4 39.4,-46.5 41.52,-76.8 2.12,-30.5 -8.93,-60.3 -30.42,-81.9 l -58.41,-58.9 435.32,-59 -78.91,417.5 -50.26,-50.7 c -37.8,-38 -98.17,-41.8 -140.37,-8.7 -122.09,95.8 -251.61,179.7 -385.06,249.4 -989.32,520.3 -2185.26,338.3 -2976.16,-452.6 -790.89,-790.9 -972.78,-1986.8 -452.61,-2975.9 27.16,-51.7 7.28,-115.6 -44.42,-142.8 -15.7,-8.3 -32.54,-12.1 -49.11,-12.1"
         style="fill:#2e3369;fill-opacity:1;fill-rule:nonzero;stroke:none"
         id="path218" />
      <path
         d="m 7313.45,14003.9 c -445.39,0 -892.89,106.9 -1299.8,327.1 -108.87,58.6 -214.28,125.2 -314.42,198.4 l -127.05,-127.9 c -27.73,-27.9 -68.84,-38.1 -106.02,-26.6 -37.55,11.5 -65.64,42.8 -72.93,81.5 l -143.57,759.5 c -6.35,33.4 3.82,67.8 27.22,92.4 23.39,24.6 57.37,36.6 90.94,32 l 791.1,-107.6 c 39.77,-5.4 73.08,-32.9 85.94,-70.9 12.86,-38 3.1,-80 -25.2,-108.5 l -98.7,-99.2 c 37.19,-25 75.56,-48.9 114.76,-71.7 543.88,-316.9 1198.94,-382.5 1797.3,-179.7 55.57,18.5 115.43,-11 134.12,-66.3 18.75,-55.3 -10.94,-115.4 -66.26,-134.1 -656.35,-222.3 -1375,-150.4 -1971.55,197.2 -82.27,47.8 -161.44,100.6 -235.09,156.8 -26.23,20 -41.62,51.1 -41.62,84.1 0,27.9 11.05,55 30.78,74.8 l 36.3,36.5 -434.95,59.2 78.96,-417.7 50.62,50.9 c 37.75,38 98.07,42 140.37,8.6 112.58,-88.4 233.48,-167.7 359.45,-235.6 979.19,-529.8 2213.56,-349.3 3001.72,438.8 788.05,788.1 968.53,2022.4 438.93,3001.6 -27.79,51.4 -8.68,115.6 42.71,143.4 51.28,28 115.53,8.8 143.31,-42.8 573.88,-1060.8 378.38,-2398 -475.39,-3251.7 -526.26,-526.3 -1236.28,-802.4 -1951.98,-802.5"
         style="fill:#2e3369;fill-opacity:1;fill-rule:nonzero;stroke:none"
         id="path220" />
      <path
         d="m 6537.69,15912.4 h 1566.03 v 966.3 c 0,58.4 47.36,105.7 105.77,105.7 h 188.04 l -1076.85,1020.1 -1077.94,-1022 189.18,1.9 c 58.41,0 105.77,-47.3 105.77,-105.7 z m 1587.16,-211.5 H 6516.57 c -40.29,0 -78.81,12.5 -111.4,36 -16.58,11.9 -31.09,26.4 -43.13,43.1 -23.44,32.5 -35.89,71 -35.89,111.3 v 881.6 h -134.33 c -31.66,0 -63.16,8.1 -91.1,23.2 -32.18,17.5 -58.51,43.8 -76.07,76.2 -1.5,2.7 -6.72,13.5 -7.96,16.3 -30.26,72.6 -14.41,153.9 39.82,208.7 L 7187.85,18170 c 46.48,47.1 125.45,66.6 193.05,44.3 27.94,-9.2 54.23,-25.4 75.35,-46.9 l 1126.22,-1067.7 c 11.26,-11.3 18.91,-20.7 25.62,-30.7 35.38,-53.9 41.63,-120.4 17.3,-178.9 -29.8,-71.2 -98.74,-117.2 -175.8,-117.2 h -134.33 v -881.6 c 0,-105 -85.42,-190.4 -190.41,-190.4"
         style="fill:#2e3369;fill-opacity:1;fill-rule:nonzero;stroke:none"
         id="path222" />
      <path
         d="m 6999.71,16341 c -58.41,0 -105.77,47.4 -105.77,105.8 v 222.2 c 0,58.5 47.36,105.8 105.77,105.8 58.41,0 105.77,-47.3 105.77,-105.8 v -222.2 c 0,-58.4 -47.36,-105.8 -105.77,-105.8"
         style="fill:#2e3369;fill-opacity:1;fill-rule:nonzero;stroke:none"
         id="path224" />
      <path
         d="m 7641.81,16341 c -58.41,0 -105.77,47.4 -105.77,105.8 v 222.2 c 0,58.5 47.36,105.8 105.77,105.8 58.41,0 105.77,-47.3 105.77,-105.8 v -222.2 c 0,-58.4 -47.36,-105.8 -105.77,-105.8"
         style="fill:#2e3369;fill-opacity:1;fill-rule:nonzero;stroke:none"
         id="path226" />
      <path
         d="m 50054,28680.5 h -3166 c -58.4,0 -105.8,47.4 -105.8,105.8 0,58.4 47.4,105.8 105.8,105.8 h 3166 c 58.4,0 105.8,-47.4 105.8,-105.8 0,-58.4 -47.4,-105.8 -105.8,-105.8"
         style="fill:#2e3369;fill-opacity:1;fill-rule:nonzero;stroke:none"
         id="path228" />
      <path
         d="m 50054,24542.7 h -3166 c -58.4,0 -105.8,47.4 -105.8,105.8 0,58.4 47.4,105.7 105.8,105.7 h 3166 c 58.4,0 105.8,-47.3 105.8,-105.7 0,-58.4 -47.4,-105.8 -105.8,-105.8"
         style="fill:#2e3369;fill-opacity:1;fill-rule:nonzero;stroke:none"
         id="path230" />
      <path
         d="m 47059.5,29292 c -63.2,0 -114.7,-51.5 -114.7,-114.8 v -4741.5 c 0,-63.4 51.5,-114.9 114.7,-114.9 h 2823 c 63.2,0 114.7,51.5 114.7,114.9 v 4741.5 c 0,63.3 -51.5,114.8 -114.7,114.8 z m 2823,-5182.7 h -2823 c -179.9,0 -326.2,146.4 -326.2,326.4 v 4741.5 c 0,180 146.3,326.3 326.2,326.3 h 2823 c 179.9,0 326.3,-146.3 326.3,-326.3 v -4741.5 c 0,-180 -146.4,-326.4 -326.3,-326.4"
         style="fill:#2e3369;fill-opacity:1;fill-rule:nonzero;stroke:none"
         id="path232" />
      <path
         d="m 49010.9,25835 h -1395.5 c -58.5,0 -105.8,47.3 -105.8,105.7 0,58.5 47.3,105.8 105.8,105.8 h 1395.5 c 58.4,0 105.7,-47.3 105.7,-105.8 0,-58.4 -47.3,-105.7 -105.7,-105.7"
         style="fill:#2e3369;fill-opacity:1;fill-rule:nonzero;stroke:none"
         id="path234" />
      <path
         d="m 49326.7,26210.6 h -1711.3 c -58.4,0 -105.8,47.4 -105.8,105.8 0,58.4 47.4,105.8 105.8,105.8 h 1711.3 c 58.4,0 105.7,-47.4 105.7,-105.8 0,-58.4 -47.3,-105.8 -105.7,-105.8"
         style="fill:#2e3369;fill-opacity:1;fill-rule:nonzero;stroke:none"
         id="path236" />
      <path
         d="m 47339.8,28973.7 c -58.4,0 -108.5,47.3 -108.5,105.7 0,58.4 44.5,105.8 102.9,105.8 h 5.6 c 58.4,0 105.8,-47.4 105.8,-105.8 0,-58.4 -47.4,-105.7 -105.8,-105.7"
         style="fill:#2e3369;fill-opacity:1;fill-rule:nonzero;stroke:none"
         id="path238" />
      <path
         d="m 48042.4,25448.7 c -71.5,0 -129.6,-58.2 -129.6,-129.6 0,-71.4 58.1,-129.6 129.6,-129.6 h 857.3 c 71.4,0 129.6,58.2 129.6,129.6 0,71.4 -58.2,129.6 -129.6,129.6 z m 857.3,-470.7 h -857.3 c -188.1,0 -341.2,153 -341.2,341.1 0,188.1 153.1,341.1 341.2,341.1 h 857.3 c 188.1,0 341.1,-153 341.1,-341.1 0,-188.1 -153,-341.1 -341.1,-341.1"
         style="fill:#2e3369;fill-opacity:1;fill-rule:nonzero;stroke:none"
         id="path240" />
      <path
         d="m 47979.9,26879.4 h 982.2 v 637.7 c 0,58.4 47.4,105.7 105.8,105.7 h 38.4 l -635.3,602.4 -635.3,-602.4 h 38.4 c 58.5,0 105.8,-47.3 105.8,-105.7 z m 1031.1,-211.5 h -1080 c -34.5,0 -67.4,10.6 -95.3,30.8 -14.2,10.2 -26.8,22.9 -37.1,37.3 -19.6,27.2 -30.2,60.1 -30.2,94.5 v 580.8 h -55.5 c -27.3,0 -54.4,7 -78.2,20.1 -27,14.5 -49.6,37.1 -64.6,64.8 -1.7,3.2 -5.9,11.8 -7.3,15.2 -25.3,60.6 -11.8,130 34.5,176.8 l 760.6,721.2 c 39.7,40.3 106.3,56.9 164.5,37.5 24.3,-8.1 46.5,-21.9 64.4,-40 l 755.5,-716.3 c 10.1,-10.2 16.7,-18.4 22.4,-27 29.9,-45.3 35.3,-102.1 14.5,-152.1 -25.3,-61 -84.2,-100.2 -150.1,-100.2 h -55.5 v -580.8 c 0,-89.7 -72.9,-162.6 -162.6,-162.6"
         style="fill:#2e3369;fill-opacity:1;fill-rule:nonzero;stroke:none"
         id="path242" />
      <path
         d="m 48255.4,27144.4 c -58.4,0 -105.8,47.3 -105.8,105.8 v 126.1 c 0,58.4 47.4,105.7 105.8,105.7 58.4,0 105.8,-47.3 105.8,-105.7 v -126.1 c 0,-58.5 -47.4,-105.8 -105.8,-105.8"
         style="fill:#2e3369;fill-opacity:1;fill-rule:nonzero;stroke:none"
         id="path244" />
      <path
         d="m 48686.6,27144.4 c -58.4,0 -105.7,47.3 -105.7,105.8 v 126.1 c 0,58.4 47.3,105.7 105.7,105.7 58.4,0 105.8,-47.3 105.8,-105.7 v -126.1 c 0,-58.5 -47.4,-105.8 -105.8,-105.8"
         style="fill:#2e3369;fill-opacity:1;fill-rule:nonzero;stroke:none"
         id="path246" />
      <path
         d="m 46354.5,27812.5 c -58.4,0 -105.8,47.3 -105.8,105.7 v 40.9 c 0,58.4 47.4,105.8 105.8,105.8 58.4,0 105.8,-47.4 105.8,-105.8 v -40.9 c 0,-58.4 -47.4,-105.7 -105.8,-105.7"
         style="fill:#2e3369;fill-opacity:1;fill-rule:nonzero;stroke:none"
         id="path248" />
      <path
         d="m 46354.5,27324.7 c -58.4,0 -105.8,47.3 -105.8,105.7 v 40.8 c 0,58.5 47.4,105.8 105.8,105.8 58.4,0 105.8,-47.3 105.8,-105.8 v -40.8 c 0,-58.4 -47.4,-105.7 -105.8,-105.7"
         style="fill:#2e3369;fill-opacity:1;fill-rule:nonzero;stroke:none"
         id="path250" />
      <path
         d="m 46354.5,26836.8 c -58.4,0 -105.8,47.4 -105.8,105.8 v 40.9 c 0,58.4 47.4,105.7 105.8,105.7 58.4,0 105.8,-47.3 105.8,-105.7 v -40.9 c 0,-58.4 -47.4,-105.8 -105.8,-105.8"
         style="fill:#2e3369;fill-opacity:1;fill-rule:nonzero;stroke:none"
         id="path252" />
      <path
         d="m 46354.5,25434.4 c -58.4,0 -105.8,47.4 -105.8,105.8 v 914.6 c 0,58.4 47.4,105.8 105.8,105.8 58.4,0 105.8,-47.4 105.8,-105.8 v -914.6 c 0,-58.4 -47.4,-105.8 -105.8,-105.8"
         style="fill:#2e3369;fill-opacity:1;fill-rule:nonzero;stroke:none"
         id="path254" />
      <path
         d="m 50587.5,25434.4 c -58.4,0 -105.7,47.4 -105.7,105.8 v 40.8 c 0,58.4 47.3,105.8 105.7,105.8 58.4,0 105.8,-47.4 105.8,-105.8 v -40.8 c 0,-58.4 -47.4,-105.8 -105.8,-105.8"
         style="fill:#2e3369;fill-opacity:1;fill-rule:nonzero;stroke:none"
         id="path256" />
      <path
         d="m 50587.5,25922.3 c -58.4,0 -105.7,47.3 -105.7,105.7 v 40.9 c 0,58.4 47.3,105.7 105.7,105.7 58.4,0 105.8,-47.3 105.8,-105.7 v -40.9 c 0,-58.4 -47.4,-105.7 -105.8,-105.7"
         style="fill:#2e3369;fill-opacity:1;fill-rule:nonzero;stroke:none"
         id="path258" />
      <path
         d="m 50587.5,26410 c -58.4,0 -105.7,47.4 -105.7,105.8 v 40.9 c 0,58.4 47.3,105.7 105.7,105.7 58.4,0 105.8,-47.3 105.8,-105.7 v -40.9 c 0,-58.4 -47.4,-105.8 -105.8,-105.8"
         style="fill:#2e3369;fill-opacity:1;fill-rule:nonzero;stroke:none"
         id="path260" />
      <path
         d="m 50587.5,26938.7 c -58.4,0 -105.7,47.3 -105.7,105.8 v 914.6 c 0,58.4 47.3,105.8 105.7,105.8 58.4,0 105.8,-47.4 105.8,-105.8 v -914.6 c 0,-58.5 -47.4,-105.8 -105.8,-105.8"
         style="fill:#2e3369;fill-opacity:1;fill-rule:nonzero;stroke:none"
         id="path262" />
      <path
         d="m 36422.9,24605.1 -35.2,-141.6 242.1,10.1 357.3,1439.6 c 10.4,42.1 45.5,73.6 88.5,79.3 377.3,51.3 680.4,323.1 772.1,692.5 122.8,494.7 -179.8,997.1 -674.5,1119.9 -494.6,122.9 -997.2,-179.7 -1120,-674.5 -91.8,-370 49.2,-752.4 359.3,-974.1 35.3,-25.2 51.6,-69.4 41.2,-111.5 l -297.1,-1196.9 95.1,-54.1 109.2,439.9 c 14.1,56.7 72,91.2 128.1,77.2 56.7,-14.1 91.3,-71.5 77.2,-128.2 l -142.2,-572.9 c -0.4,-1.6 -0.7,-3.2 -1.1,-4.7 z m -171.9,-358.9 c -31.7,0 -61.8,14.2 -81.9,38.9 -21,25.8 -28.7,60 -20.7,92.3 l 50.4,203.2 -216.4,123 c -41.2,23.4 -61.8,71.4 -50.4,117.4 l 299.7,1207.4 c -340.6,277.2 -490.8,721.9 -383.8,1153 150.9,607.9 768.5,979.7 1376.2,828.9 608,-151 979.8,-768.4 828.9,-1376.2 -106.9,-430.4 -447.1,-753.1 -877.3,-839.2 L 36816,24345.8 c -11.3,-45.6 -51.3,-78.3 -98.3,-80.2 l -462.3,-19.3 c -1.4,0 -2.9,-0.1 -4.4,-0.1"
         style="fill:#2e3369;fill-opacity:1;fill-rule:nonzero;stroke:none"
         id="path264" />
      <path
         d="m 37048.9,27469.5 c -75.5,0 -141,-51.3 -159.2,-124.8 -21.8,-87.9 32,-177.2 119.9,-199 87.1,-21.8 177.4,33.5 198.9,119.9 10.6,42.6 4,86.7 -18.7,124.3 -22.6,37.6 -58.6,64.2 -101.2,74.7 -13,3.2 -26.4,4.9 -39.7,4.9 z m 0.4,-540.2 v 0 c -30.5,0 -61,3.7 -90.7,11.1 -201.1,49.9 -324.1,254.2 -274.3,455.3 41.8,168 191.7,285.3 364.6,285.3 30.5,0 61,-3.7 90.7,-11.1 97.5,-24.2 179.6,-84.9 231.4,-170.9 51.8,-86 67,-186.9 42.8,-284.4 -41.6,-168 -191.6,-285.3 -364.5,-285.3"
         style="fill:#2e3369;fill-opacity:1;fill-rule:nonzero;stroke:none"
         id="path266" />
      <path
         d="m 37042.3,27248 c -52.3,0 -97.7,38.8 -104.7,92.1 -94.9,722.8 416,1388 1138.8,1482.9 392.5,51.5 784.2,-74 1074.2,-344.3 42.7,-39.8 45,-106.8 5.2,-149.5 -39.8,-42.7 -106.8,-45 -149.5,-5.2 -243.6,227.1 -572.6,332.4 -902.4,289.2 -607.1,-79.7 -1036.2,-638.5 -956.6,-1245.7 7.6,-57.8 -33.2,-110.9 -91.1,-118.6 -4.7,-0.6 -9.3,-0.9 -13.9,-0.9"
         style="fill:#2e3369;fill-opacity:1;fill-rule:nonzero;stroke:none"
         id="path268" />
      <path
         d="m 38277.8,26804.6 c -95.9,0 -191,11.3 -284.2,34 -41.2,10 -72.4,43.6 -79.3,85.4 -9.6,57.6 29.2,112.6 86.8,122.2 18.3,3 36.1,1.2 52.3,-4.4 118.9,-27.6 241.5,-33 364.8,-15.9 57.4,7.8 111.3,-32.4 119.3,-90.3 8,-57.9 -32.4,-111.3 -90.2,-119.3 -56.6,-7.9 -113.2,-11.7 -169.5,-11.7"
         style="fill:#2e3369;fill-opacity:1;fill-rule:nonzero;stroke:none"
         id="path270" />
      <path
         d="m 39151.7,28677.7 c -105.3,0 -206.5,-38.5 -285.2,-108.4 l -377.4,-335.8 c -55.2,-49.1 -82.9,-122.3 -74.1,-195.6 l 238.8,-1998.6 c 13.5,-113.5 109.7,-199.2 223.7,-199.2 v 0 c 12.1,0 24.3,1 36.6,3 l 1222.8,198.2 c 61.3,9.9 114.5,43.6 149.8,94.7 35.3,51.1 47.8,112.9 35.3,173.7 l -404.8,1971.7 c -14.8,72.4 -64.2,133 -132.1,162.1 l -464.2,199.4 c -53.8,23.1 -110.7,34.8 -169.2,34.8 z m -274.2,-3049.1 v 0 c -221,0 -407.5,165.8 -433.8,385.6 l -238.8,1998.6 c -17,142.1 36.7,283.6 143.6,378.7 l 377.4,335.8 c 182.8,162.4 453.6,206.5 678.5,110 l 464.2,-199.4 c 131.4,-56.4 227,-173.8 255.8,-313.9 l 404.8,-1971.7 c 24.2,-118 -0.1,-237.4 -68.4,-336.4 -68.3,-99 -171.3,-164.1 -290,-183.5 L 38948,25634.3 c -23.7,-3.8 -47.3,-5.7 -70.5,-5.7"
         style="fill:#2e3369;fill-opacity:1;fill-rule:nonzero;stroke:none"
         id="path272" />
      <path
         d="m 26291.3,24903.5 c -58.4,0 -105.8,47.4 -105.8,105.8 V 26867 c 0,58.4 47.4,105.8 105.8,105.8 58.4,0 105.8,-47.4 105.8,-105.8 v -1857.7 c 0,-58.4 -47.4,-105.8 -105.8,-105.8"
         style="fill:#2e3369;fill-opacity:1;fill-rule:nonzero;stroke:none"
         id="path274" />
      <path
         d="m 29687.3,26301.9 c -58.5,0 -105.8,47.4 -105.8,105.8 v 459.3 c 0,58.4 47.3,105.8 105.8,105.8 58.4,0 105.7,-47.4 105.7,-105.8 v -459.3 c 0,-58.4 -47.3,-105.8 -105.7,-105.8"
         style="fill:#2e3369;fill-opacity:1;fill-rule:nonzero;stroke:none"
         id="path276" />
      <path
         d="m 25929,26981 c -27.1,0 -54.1,10.4 -74.7,31 -41.4,41.2 -41.4,108.2 -0.1,149.5 l 1892.1,1894.5 c 135.4,132 351.9,131.7 483.6,0.1 l 1894.4,-1894.5 c 41.3,-41.3 41.3,-108.3 0,-149.6 -41.3,-41.3 -108.2,-41.3 -149.5,0 l -1894.5,1894.5 c -50.1,50 -133.2,49.7 -185.3,-1 l -1891.2,-1893.4 c -20.6,-20.7 -47.7,-31.1 -74.8,-31.1"
         style="fill:#2e3369;fill-opacity:1;fill-rule:nonzero;stroke:none"
         id="path278" />
      <path
         d="M 28472.9,24577 H 25929 c -58.4,0 -105.8,47.4 -105.8,105.8 0,58.4 47.4,105.7 105.8,105.7 h 2543.9 c 58.4,0 105.8,-47.3 105.8,-105.7 0,-58.4 -47.4,-105.8 -105.8,-105.8"
         style="fill:#2e3369;fill-opacity:1;fill-rule:nonzero;stroke:none"
         id="path280" />
      <path
         d="m 27989.3,27726.7 c -108.1,0 -196,-87.9 -196,-195.9 0,-108 87.9,-195.9 196,-195.9 108,0 195.9,87.9 195.9,195.9 0,108 -87.9,195.9 -195.9,195.9 z m 0,-603.4 c -224.7,0 -407.5,182.8 -407.5,407.5 0,224.7 182.8,407.5 407.5,407.5 224.7,0 407.5,-182.8 407.5,-407.5 0,-224.7 -182.8,-407.5 -407.5,-407.5"
         style="fill:#2e3369;fill-opacity:1;fill-rule:nonzero;stroke:none"
         id="path282" />
      <path
         d="m 26753.1,27845.8 c -58.4,0 -105.7,47.3 -105.7,105.7 v 1044.1 c 0,58.4 47.3,105.7 105.7,105.7 58.5,0 105.8,-47.3 105.8,-105.7 v -1044.1 c 0,-58.4 -47.3,-105.7 -105.8,-105.7"
         style="fill:#2e3369;fill-opacity:1;fill-rule:nonzero;stroke:none"
         id="path284" />
      <path
         d="m 27149.7,28269.4 c -58.4,0 -105.8,47.3 -105.8,105.7 v 620.5 c 0,58.4 47.4,105.7 105.8,105.7 58.4,0 105.7,-47.3 105.7,-105.7 v -620.5 c 0,-58.4 -47.3,-105.7 -105.7,-105.7"
         style="fill:#2e3369;fill-opacity:1;fill-rule:nonzero;stroke:none"
         id="path286" />
      <path
         d="m 27235.4,28943.6 h -568 c -58.4,0 -105.8,47.4 -105.8,105.8 0,58.4 47.4,105.7 105.8,105.7 h 568 c 58.4,0 105.8,-47.3 105.8,-105.7 0,-58.4 -47.4,-105.8 -105.8,-105.8"
         style="fill:#2e3369;fill-opacity:1;fill-rule:nonzero;stroke:none"
         id="path288" />
      <path
         d="m 29039.3,26485.4 c -507,0 -919.6,-412.5 -919.6,-919.7 0,-507 412.6,-919.5 919.6,-919.5 507.1,0 919.6,412.5 919.6,919.5 0,507.2 -412.5,919.7 -919.6,919.7 z m 0,-2050.8 c -623.7,0 -1131.1,507.4 -1131.1,1131.1 0,623.8 507.4,1131.2 1131.1,1131.2 623.7,0 1131.1,-507.4 1131.1,-1131.2 0,-623.7 -507.4,-1131.1 -1131.1,-1131.1"
         style="fill:#2e3369;fill-opacity:1;fill-rule:nonzero;stroke:none"
         id="path290" />
      <path
         d="m 28912.6,24939.9 c -32.7,0 -63.6,15.1 -83.7,41.1 l -473,611.1 c -35.7,46.2 -27.2,112.6 19,148.4 46.2,35.7 112.5,27.3 148.4,-18.9 l 384.7,-497.2 547.1,786.9 c 33.3,47.9 99.4,59.7 147.2,26.5 48,-33.4 59.8,-99.3 26.5,-147.3 l -629.4,-905.2 c -19.2,-27.7 -50.5,-44.5 -84.1,-45.3 -0.9,-0.1 -1.8,-0.1 -2.7,-0.1"
         style="fill:#2e3369;fill-opacity:1;fill-rule:nonzero;stroke:none"
         id="path292" />
      <path
         d="m 16169.7,25725.5 c -51.8,0 -99.6,-25.3 -128,-67.7 l -89.3,-133.5 c -47,-70.2 -28.1,-165.4 42.1,-212.4 67.8,-45.5 167.4,-25.2 212.4,42.1 l 89.4,133.5 c 46.9,70.1 28,165.4 -42.1,212.4 -25,16.8 -54.3,25.6 -84.5,25.6 z m -90.7,-650.8 c -72.3,0 -142.2,21.2 -202.2,61.4 -167.1,111.8 -212.1,338.8 -100.2,505.9 l 89.3,133.5 c 67.8,101.2 181.3,161.6 303.8,161.6 72.3,0 142.2,-21.3 202.2,-61.4 167,-111.9 212,-338.8 100.2,-505.9 l -89.4,-133.5 c -67.7,-101.2 -181.2,-161.6 -303.7,-161.6"
         style="fill:#2e3369;fill-opacity:1;fill-rule:nonzero;stroke:none"
         id="path294" />
      <path
         d="m 19286.2,25866 c -27.4,0 -53.8,10.6 -73.6,29.8 l -1106.1,1071.4 c -138.3,133.8 -354.4,152.8 -513.8,45.1 l -438.5,-296.4 c -81.3,-54.4 -178.6,-74 -274,-55.1 -105.1,20.7 -192.4,83.4 -246,176.6 -95,165 -40.2,380.9 124.7,491.5 l 1002.2,675.5 c 122,81.9 263.9,130 410.4,139.3 l 762.9,51.8 c 57.7,4.1 108.5,-40.6 112.1,-99 3.6,-58.3 -40.7,-108.5 -99,-112.1 l -762.1,-51.8 c -109.7,-6.9 -215.4,-42.8 -306.2,-103.7 l -1002.3,-675.6 c -71.9,-48.2 -98.4,-142.6 -59.3,-210.4 22.6,-39.4 59.3,-65.8 103.5,-74.5 28.4,-5.7 71.4,-6.1 115,23 l 438.2,296.2 c 241.8,163.4 569.6,134.7 779.3,-68.5 l 1029.2,-996.8 544.4,577.6 c 3.8,4.1 12.9,14.1 17.4,17.5 46.3,35.7 113,27.3 148.7,-19 31.7,-41.3 28.5,-98.4 -5.3,-135.5 -2.6,-3.2 -5.5,-6.8 -6.9,-8.1 l -618,-655.6 c -19.4,-20.6 -46.2,-32.6 -74.5,-33.2 -0.8,0 -1.6,0 -2.4,0"
         style="fill:#2e3369;fill-opacity:1;fill-rule:nonzero;stroke:none"
         id="path296" />
      <path
         d="m 16646.1,25502.2 c -51.7,0 -99.5,-25.3 -127.9,-67.7 l -172,-257 c -47,-70.2 -28.1,-165.4 42.1,-212.4 25,-16.8 54.3,-25.7 84.5,-25.7 h 0.1 c 51.7,0 99.5,25.4 127.8,67.8 l 172,256.9 c 22.6,33.8 30.7,74.6 22.7,115 -8,40.3 -31,74.9 -64.7,97.5 -25.1,16.7 -54.3,25.6 -84.6,25.6 z m -173.2,-774.3 c -0.1,0 -0.1,0 -0.1,0 -72.3,0.1 -142.2,21.3 -202.2,61.4 -167.1,111.8 -212,338.8 -100.2,505.9 l 172,257 c 67.8,101.1 181.3,161.6 303.7,161.6 72.3,0 142.2,-21.3 202.2,-61.4 80.8,-54.1 135.7,-136.5 154.6,-232.3 19,-95.7 -0.4,-192.9 -54.4,-273.6 l -172,-257 c -67.7,-101.2 -181.2,-161.6 -303.6,-161.6"
         style="fill:#2e3369;fill-opacity:1;fill-rule:nonzero;stroke:none"
         id="path298" />
      <path
         d="m 17092.6,25238.4 c -51.7,0 -99.6,-25.4 -127.9,-67.7 l -188.2,-281.2 c -47,-70.2 -28.1,-165.5 42.1,-212.5 67.8,-45.3 167.5,-25.1 212.5,42.1 l 188.1,281.2 c 22.6,33.8 30.7,74.6 22.7,114.8 -8,40.4 -31,75 -64.7,97.6 -25.1,16.8 -54.3,25.7 -84.6,25.7 z m -189.4,-798.5 v 0 c -72.3,0 -142.3,21.2 -202.3,61.3 -167.1,112 -212,338.9 -100.2,506 l 188.2,281.1 c 67.7,101.2 181.3,161.6 303.7,161.6 72.3,0 142.2,-21.3 202.2,-61.4 80.7,-54 135.6,-136.4 154.6,-232.2 18.9,-95.8 -0.3,-192.9 -54.4,-273.7 l -188.1,-281.1 c -67.8,-101.2 -181.3,-161.6 -303.7,-161.6"
         style="fill:#2e3369;fill-opacity:1;fill-rule:nonzero;stroke:none"
         id="path300" />
      <path
         d="m 17557.7,24990.2 c -51.7,0 -99.5,-25.3 -127.8,-67.7 l -136.9,-204.4 c -47,-70.2 -28,-165.5 42.1,-212.5 67.7,-45.3 167.4,-25.1 212.5,42.1 l 136.8,204.4 c 47,70.2 28.1,165.5 -42.1,212.5 -25,16.7 -54.3,25.6 -84.6,25.6 z m -138.1,-721.7 v 0 c -72.3,0 -142.2,21.2 -202.2,61.3 -80.7,54.1 -135.6,136.6 -154.5,232.3 -19,95.8 0.3,193 54.3,273.6 l 136.9,204.5 c 67.7,101.1 181.2,161.6 303.6,161.6 72.3,0 142.3,-21.3 202.3,-61.4 80.7,-54.1 135.6,-136.5 154.5,-232.3 19,-95.8 -0.3,-192.9 -54.3,-273.6 l -136.8,-204.4 c -67.8,-101.2 -181.3,-161.6 -303.8,-161.6"
         style="fill:#2e3369;fill-opacity:1;fill-rule:nonzero;stroke:none"
         id="path302" />
      <path
         d="m 19909.4,26528.3 c -31.7,0 -63,14.1 -83.8,41.1 -12.6,16.3 -19.7,35.1 -21.6,54.2 l -3.8,19.4 c -19.1,92.7 -102.3,431.7 -351.4,802.8 -247.5,368.9 -483.1,511.6 -549.5,546.6 -5.5,2.9 -18.5,10.3 -23.4,14.2 -46.1,35.9 -54.3,102.4 -18.3,148.4 34,43.7 95.4,53.3 141,23.7 95.9,-51.8 360.4,-219.3 625.9,-615 270.5,-403.2 361.8,-775.8 383.4,-880.5 l 5,-25.7 c 8.4,-39.8 -6.4,-82.4 -38.6,-107.2 -19.4,-14.9 -42.2,-22 -64.9,-22"
         style="fill:#2e3369;fill-opacity:1;fill-rule:nonzero;stroke:none"
         id="path304" />
      <path
         d="m 15300.4,26528.8 c -20.5,0 -41.1,5.9 -59.4,18.3 l -429.8,292 c -90.4,61.4 -132.9,173.4 -105.7,278.6 39.3,152.4 138,456.9 357.3,783.4 216.2,322.4 432.6,490.1 542.4,561.4 84.2,54.6 193.9,54.6 279.5,-0.4 l 441.7,-283.3 c 49.2,-31.6 63.5,-97 31.9,-146.2 -31.5,-49.2 -97.1,-63.4 -146.1,-31.9 l -441.7,283.3 c -15.7,10.2 -35.4,10.6 -50.1,1.1 -96.2,-62.5 -286.7,-210.8 -482,-501.8 -201.7,-300.5 -292.2,-579.1 -328.1,-718.5 -5,-19.3 2.8,-39.1 19.8,-50.7 l 429.8,-292 c 48.3,-32.9 60.9,-98.6 28.1,-146.9 -20.5,-30.2 -53.8,-46.4 -87.6,-46.4"
         style="fill:#2e3369;fill-opacity:1;fill-rule:nonzero;stroke:none"
         id="path306" />
      <path
         d="m 19911.5,26528.8 c -33.9,0 -67.2,16.2 -87.6,46.4 -32.9,48.3 -20.3,114 28,146.9 l 429.9,292 c 16.9,11.6 24.7,31.5 19.8,50.8 -36,139.2 -126.4,417.8 -328.1,718.4 -195.3,291 -385.9,439.3 -482.1,501.8 -14.6,9.5 -34.3,9 -50.1,-1.1 l -441.6,-283.3 c -49.1,-31.5 -114.5,-17.3 -146.1,31.9 -31.6,49.2 -17.3,114.6 31.9,146.2 l 441.6,283.3 c 85.6,54.8 195.3,54.9 279.5,0.5 109.8,-71.4 326.3,-239.1 542.6,-561.5 219.2,-326.7 317.9,-631.1 357.2,-783.4 27.1,-105.3 -15.4,-217.2 -105.8,-278.6 l -429.8,-292 c -18.2,-12.3 -38.9,-18.3 -59.3,-18.3"
         style="fill:#2e3369;fill-opacity:1;fill-rule:nonzero;stroke:none"
         id="path308" />
      <path
         d="m 19192.6,25337.2 c -94.8,0 -184.2,35.9 -252.4,101.5 l -684.3,647.3 c -42.4,40.2 -44.2,107.1 -4.1,149.6 40.3,42.3 107.2,44.1 149.6,4.1 l 684.8,-647.9 c 29.8,-28.7 68.3,-43.7 109.7,-43 41.1,0.8 79.2,17.4 107.3,46.7 28.2,29.3 43.3,68.1 42.4,109.1 -0.8,41.1 -17.4,79.2 -46.7,107.4 l -166.6,161.7 c -42,40.7 -42.9,107.6 -2.3,149.6 40.8,41.9 107.6,42.9 149.6,2.2 l 166.3,-161.3 c 69.6,-66.9 109.3,-157.7 111.2,-255.3 2,-97.7 -34,-189.9 -101.4,-260 -67.2,-70 -158,-109.7 -255.6,-111.6 -2.5,0 -5,-0.1 -7.5,-0.1"
         style="fill:#2e3369;fill-opacity:1;fill-rule:nonzero;stroke:none"
         id="path310" />
      <path
         d="m 17636,27687.5 c -20.2,0 -40.7,5.8 -58.8,17.9 l -184.8,123.9 c -90.8,60.5 -196.4,96.2 -305.3,103.1 l -825.3,51.8 c -58.3,4.2 -102.2,54.8 -98,113 4.1,58.3 55.7,101.4 113,98.1 l 28.4,-2.1 795.3,-49.6 c 146,-9.3 287.5,-57.2 409.5,-138.4 l 185,-124.1 c 48.5,-32.5 61.5,-98.2 29,-146.7 -20.4,-30.5 -53.9,-46.9 -88,-46.9"
         style="fill:#2e3369;fill-opacity:1;fill-rule:nonzero;stroke:none"
         id="path312" />
      <path
         d="m 15963.8,25653.4 c -32.1,0 -63.6,14.4 -84.4,41.9 l -658.1,868.3 c -13.9,18.4 -26.6,46.9 -26.6,70 0,58.4 47.4,106.2 105.8,106.2 36.7,0 69.1,-18.5 88,-46.8 0.6,-0.7 1.2,-1.3 1.4,-1.6 l 658,-868.4 c 35.3,-46.5 26.2,-112.9 -20.4,-148.1 -19.1,-14.5 -41.5,-21.5 -63.7,-21.5"
         style="fill:#2e3369;fill-opacity:1;fill-rule:nonzero;stroke:none"
         id="path314" />
      <path
         d="m 18878.1,24913.8 c -90.9,0 -182,33.8 -252.6,101.6 l -484.9,464.5 c -42.1,40.4 -43.6,107.3 -3.2,149.5 40.4,42.2 107.5,43.5 149.6,3.2 l 485,-464.6 c 60.9,-58.6 158.1,-56.7 216.7,4.3 58.5,60.8 56.5,157.9 -4.4,216.5 l -772.1,739.4 c -42.2,40.4 -43.7,107.4 -3.3,149.5 40.5,42.2 107.5,43.6 149.5,3.3 l 772.3,-739.6 c 145.2,-139.5 149.8,-370.7 10.5,-515.7 -71.5,-74.4 -167.2,-111.9 -263.1,-111.9"
         style="fill:#2e3369;fill-opacity:1;fill-rule:nonzero;stroke:none"
         id="path316" />
      <path
         d="m 18482.1,24576.2 c -91,0 -182,33.8 -252.6,101.6 l -140.4,141 c -41.3,41.3 -41.2,108.3 0.3,149.5 41.4,41.2 108.4,41 149.5,-0.3 l 138.8,-139.3 c 59.3,-56.9 156.4,-55 214.9,5.9 28.1,29.3 43.1,68.1 42.3,109.2 -0.8,41 -17.4,79.2 -46.6,107.3 -42.2,40.5 -43.5,107.4 -3,149.6 40.4,42.1 107.4,43.4 149.5,3 70.1,-67.3 109.7,-158.1 111.6,-255.7 1.9,-97.6 -34,-189.9 -101.3,-260 -71.5,-74.3 -167.2,-111.8 -263,-111.8"
         style="fill:#2e3369;fill-opacity:1;fill-rule:nonzero;stroke:none"
         id="path318" />
      <path
         d="m 18056.4,24268.5 c -93.8,0 -183.6,35.7 -252,101.5 l -148.9,164 c -39.2,43.3 -35.9,110.2 7.4,149.4 43.3,39.2 110.1,35.8 149.4,-7.3 l 143.9,-158.9 c 28.6,-27.2 75.1,-41.9 121.8,-35.7 33.8,4.5 65.7,20.7 89.8,45.5 27.8,28.8 42.8,67.5 42.1,108.6 -0.8,41.2 -17.3,79.3 -46.5,107.2 -42.2,40.4 -43.6,107.4 -3.2,149.5 40.5,42.2 107.4,43.5 149.6,3.3 70,-67.2 109.7,-158.1 111.5,-256 1.9,-97.7 -34.2,-190 -101.5,-259.8 -57.2,-58.9 -133,-97.2 -213.6,-108 -16.7,-2.2 -33.3,-3.3 -49.8,-3.3"
         style="fill:#2e3369;fill-opacity:1;fill-rule:nonzero;stroke:none"
         id="path320" />
      <path
         d="m 15300.4,26528.8 c -20.5,0 -41.1,5.9 -59.4,18.3 l -429.8,292 c -90.4,61.4 -132.9,173.4 -105.7,278.6 39.3,152.4 138,456.9 357.3,783.4 216.2,322.4 432.6,490.1 542.4,561.4 84.2,54.6 193.9,54.6 279.5,-0.4 l 441.7,-283.3 c 49.2,-31.6 63.5,-97 31.9,-146.2 -31.5,-49.2 -97.1,-63.4 -146.1,-31.9 l -441.7,283.3 c -15.7,10.2 -35.4,10.6 -50.1,1.1 -96.2,-62.5 -286.7,-210.8 -482,-501.8 -201.7,-300.5 -292.2,-579.1 -328.1,-718.5 -5,-19.3 2.8,-39.1 19.8,-50.7 l 429.8,-292 c 48.3,-32.9 60.9,-98.6 28.1,-146.9 -20.5,-30.2 -53.8,-46.4 -87.6,-46.4"
         style="fill:#2e3369;fill-opacity:1;fill-rule:nonzero;stroke:none"
         id="path322" />
      <path
         d="m 15300.3,26527.9 c -21.1,0 -42.4,6.4 -61,19.6 l -0.7,0.5 c -34.5,24.7 -51,67.5 -41.8,109 l 4.7,23.8 c 22,107.1 113.3,479.7 383.8,882.9 275.1,409.9 549.1,575 626.6,615.8 46,36.1 108.4,24.7 144.4,-21.4 36,-46 23.8,-115.6 -22.3,-151.5 -7.3,-5.7 -22.4,-14.1 -30.9,-17.7 -58.9,-31.5 -294.6,-174.3 -542.1,-543.1 -249.1,-371.1 -332.3,-710.1 -351.9,-805.2 -1.4,-8.2 -2.8,-15 -3.8,-20.3 -2.2,-16.7 -8.3,-33.2 -18.8,-47.9 -20.7,-29 -53.2,-44.5 -86.2,-44.5"
         style="fill:#2e3369;fill-opacity:1;fill-rule:nonzero;stroke:none"
         id="path324" />
      <path
         d="m 7550.71,25357.6 c 0.31,-3.3 0.51,-6.6 0.51,-9.3 V 24541 c 0,-4.8 3.83,-8.7 8.58,-8.7 h 538.55 c 4.75,0 8.63,3.9 8.63,8.7 v 1353.5 c 0,58.4 47.36,105.7 105.77,105.7 h 324.43 l 10.9,8.2 -1530.3,1545.9 c -0.05,0 -7.64,0 -10.79,0 -0.88,0 -1.4,0 -1.4,0 L 5480.1,26014.9 c 0.05,0 1.86,-13.5 1.96,-13.6 l 328.57,-1.1 c 58.41,0 105.77,-47.3 105.77,-105.7 V 24541 l 8.62,-8.7 h 538.61 c 4.75,0 8.62,3.9 8.62,8.7 v 807.3 c 0.16,132.4 105.57,237.8 235.15,237.8 h 608.43 c 127.4,0 231.47,-101.9 234.88,-228.5 z m 547.64,-1036.8 H 7559.8 c -121.37,0 -220.11,98.7 -220.11,220.2 v 801.8 c -0.26,3 -0.42,5.9 -0.42,8.3 0,12.9 -10.53,23.5 -23.44,23.5 H 6707.4 c -12.92,0 -23.45,-10.6 -23.45,-23.5 l -0.16,-810.1 c 0,-121.5 -98.74,-220.2 -220.16,-220.2 h -538.61 c -46.53,0 -91.1,14.4 -128.75,41.6 -19.37,13.9 -36.36,30.9 -50.25,50.4 -26.75,36.9 -41.16,81.5 -41.16,128.2 v 1247.7 h -218.67 c -36.72,0 -73.18,9.3 -105.46,26.9 -37.02,20.1 -67.44,50.5 -87.74,87.8 -3.56,6.6 -6.66,13 -9.5,19.6 -34.76,83.4 -16.43,177.4 46.32,240.7 l 1525.5,1539.5 c 57.53,58.2 148.06,80 226.05,53.9 32.38,-10.7 62.64,-29.4 86.97,-54.2 l 1525.23,-1539.1 c 10.13,-10.3 19.01,-21.2 26.81,-32.8 41,-62.3 48.23,-139.2 20.09,-206.8 -34.45,-82.4 -114.19,-135.5 -203.28,-135.5 H 8318.52 V 24541 c 0,-121.5 -98.75,-220.2 -220.17,-220.2"
         style="fill:#2e3369;fill-opacity:1;fill-rule:nonzero;stroke:none"
         id="path326" />
      <path
         d="m 8446.91,29609.3 c -259.42,0 -513.98,-105.1 -698.35,-288.5 -136.5,-134.4 -230.28,-304.7 -271.6,-492.9 -100.19,-457.1 125.39,-914.7 548.63,-1112.7 37.7,-17.5 64.14,-52.8 70.34,-94.2 l 60.78,-295.6 202.09,248.1 c 16.99,26.5 55.78,47.3 97.56,47.3 466.71,2.7 863.19,323.9 963.49,781 41.21,188 27.32,382 -40.23,560.9 -118.32,317.7 -386.62,550.4 -717.87,623.2 -70.81,15.5 -143.11,23.4 -214.84,23.4 z M 8097.99,26980 c -8.36,0 -16.83,1 -25.2,3 -39.66,9.8 -70.19,41.5 -78.4,81.5 l -98.23,478.6 c -487.84,249.9 -744.15,790.3 -625.78,1330.2 50.04,228.2 163.97,435 329.39,597.9 285.08,283.3 711.41,408.1 1107.32,321.2 401.8,-88.1 727.27,-370.5 870.59,-755.4 81.85,-217 98.79,-452.4 48.75,-680.5 -118.68,-541 -579.41,-925 -1128.39,-946.3 L 8180,27019 c -20.34,-25 -50.66,-39 -82.01,-39"
         style="fill:#2e3369;fill-opacity:1;fill-rule:nonzero;stroke:none"
         id="path328" />
      <path
         d="m 8451.04,27959.2 c -249.76,0 -452.98,170.6 -452.98,380.2 0,58.4 47.36,105.8 105.77,105.8 58.41,0 105.77,-47.4 105.77,-105.8 0,-91.4 110.57,-168.7 241.44,-168.7 131.18,0 241.96,77.3 241.96,168.7 0,43.5 -44.83,167.6 -244.08,167.6 -314.98,0 -456.7,223.3 -456.7,381.8 0,209.9 203.23,380.7 453.03,380.7 250.07,0 453.5,-170.8 453.5,-380.7 0,-58.5 -47.36,-105.8 -105.77,-105.8 -58.41,0 -105.77,47.3 -105.77,105.8 0,91.7 -110.78,169.1 -241.96,169.1 -130.92,0 -241.49,-77.4 -241.49,-169.1 0,-36 41.63,-170.2 245.16,-170.2 331.92,0 455.61,-232.6 455.61,-379.2 0,-209.6 -203.43,-380.2 -453.49,-380.2"
         style="fill:#2e3369;fill-opacity:1;fill-rule:nonzero;stroke:none"
         id="path330" />
      <path
         d="m 8447.99,29113.5 c -58.41,0 -105.77,47.3 -105.77,105.7 v 126.5 c 0,58.4 47.36,105.8 105.77,105.8 58.41,0 105.77,-47.4 105.77,-105.8 v -126.5 c 0,-58.4 -47.36,-105.7 -105.77,-105.7"
         style="fill:#2e3369;fill-opacity:1;fill-rule:nonzero;stroke:none"
         id="path332" />
      <path
         d="m 8447.99,27776.2 c -58.41,0 -105.77,47.4 -105.77,105.8 v 127.8 c 0,58.4 47.36,105.7 105.77,105.7 58.41,0 105.77,-47.3 105.77,-105.7 V 27882 c 0,-58.4 -47.36,-105.8 -105.77,-105.8"
         style="fill:#2e3369;fill-opacity:1;fill-rule:nonzero;stroke:none"
         id="path334" />
      <path
         d="m 46773,35087.8 c -58.4,0 -105.8,47.3 -105.8,105.7 v 1857.8 c 0,58.4 47.4,105.7 105.8,105.7 58.4,0 105.8,-47.3 105.8,-105.7 v -1857.8 c 0,-58.4 -47.4,-105.7 -105.8,-105.7"
         style="fill:#2e3369;fill-opacity:1;fill-rule:nonzero;stroke:none"
         id="path336" />
      <path
         d="m 50169,35059 c -58.4,0 -105.8,47.4 -105.8,105.8 v 1886.5 c 0,58.4 47.4,105.7 105.8,105.7 58.4,0 105.8,-47.3 105.8,-105.7 v -1886.5 c 0,-58.4 -47.4,-105.8 -105.8,-105.8"
         style="fill:#2e3369;fill-opacity:1;fill-rule:nonzero;stroke:none"
         id="path338" />
      <path
         d="m 46410.7,37165.3 c -27,0 -54,10.3 -74.7,30.9 -41.4,41.3 -41.4,108.3 -0.1,149.6 l 1892.2,1894.4 c 135.3,132.2 351.9,131.7 483.5,0.1 l 1894.5,-1894.4 c 41.3,-41.4 41.3,-108.3 0,-149.6 -41.3,-41.3 -108.3,-41.3 -149.6,0 l -1894.4,1894.4 c -50.3,50.2 -133.4,49.8 -185.3,-0.9 l -1891.2,-1893.5 c -20.7,-20.7 -47.8,-31 -74.9,-31"
         style="fill:#2e3369;fill-opacity:1;fill-rule:nonzero;stroke:none"
         id="path340" />
      <path
         d="m 50531.3,34761.3 h -4120.6 c -58.4,0 -105.7,47.3 -105.7,105.7 0,58.4 47.3,105.8 105.7,105.8 h 4120.6 c 58.4,0 105.8,-47.4 105.8,-105.8 0,-58.4 -47.4,-105.7 -105.8,-105.7"
         style="fill:#2e3369;fill-opacity:1;fill-rule:nonzero;stroke:none"
         id="path342" />
      <path
         d="m 48471,37911 c -108,0 -195.9,-87.9 -195.9,-195.9 0,-108.1 87.9,-196 195.9,-196 108,0 195.9,87.9 195.9,196 0,108 -87.9,195.9 -195.9,195.9 z m 0,-603.4 c -224.7,0 -407.5,182.8 -407.5,407.5 0,224.7 182.8,407.4 407.5,407.4 224.7,0 407.5,-182.7 407.5,-407.4 0,-224.7 -182.8,-407.5 -407.5,-407.5"
         style="fill:#2e3369;fill-opacity:1;fill-rule:nonzero;stroke:none"
         id="path344" />
      <path
         d="m 47234.9,38030 c -58.4,0 -105.8,47.4 -105.8,105.8 v 1044 c 0,58.4 47.4,105.8 105.8,105.8 58.4,0 105.7,-47.4 105.7,-105.8 v -1044 c 0,-58.4 -47.3,-105.8 -105.7,-105.8"
         style="fill:#2e3369;fill-opacity:1;fill-rule:nonzero;stroke:none"
         id="path346" />
      <path
         d="m 47631.4,38453.6 c -58.4,0 -105.8,47.4 -105.8,105.8 v 620.4 c 0,58.4 47.4,105.8 105.8,105.8 58.4,0 105.8,-47.4 105.8,-105.8 v -620.4 c 0,-58.4 -47.4,-105.8 -105.8,-105.8"
         style="fill:#2e3369;fill-opacity:1;fill-rule:nonzero;stroke:none"
         id="path348" />
      <path
         d="m 47717.1,39127.9 h -567.9 c -58.5,0 -105.8,47.3 -105.8,105.7 0,58.4 47.3,105.8 105.8,105.8 h 567.9 c 58.5,0 105.8,-47.4 105.8,-105.8 0,-58.4 -47.3,-105.7 -105.8,-105.7"
         style="fill:#2e3369;fill-opacity:1;fill-rule:nonzero;stroke:none"
         id="path350" />
      <path
         d="m 48785.5,35464.3 c -58.4,0 -105.8,47.3 -105.8,105.7 v 1037.2 c 0,115.1 -93.6,208.7 -208.7,208.7 -115.1,0 -208.7,-93.6 -208.7,-208.7 V 35570 c 0,-58.4 -47.3,-105.7 -105.8,-105.7 -58.4,0 -105.7,47.3 -105.7,105.7 v 1037.2 c 0,231.7 188.5,420.3 420.2,420.3 231.7,0 420.2,-188.6 420.2,-420.3 V 35570 c 0,-58.4 -47.3,-105.7 -105.7,-105.7"
         style="fill:#2e3369;fill-opacity:1;fill-rule:nonzero;stroke:none"
         id="path352" />
      <path
         d="m 49245.5,35188.6 h -1549 c -58.4,0 -105.7,47.3 -105.7,105.8 0,58.4 47.3,105.7 105.7,105.7 h 1549 c 58.4,0 105.7,-47.3 105.7,-105.7 0,-58.5 -47.3,-105.8 -105.7,-105.8"
         style="fill:#2e3369;fill-opacity:1;fill-rule:nonzero;stroke:none"
         id="path354" />
      <path
         d="m 39276.2,34920.3 c -54.6,0 -109.3,18.9 -152.8,56.6 -162.5,140.8 -434,426 -708.3,804.3 -34.3,47.2 -23.8,113.4 23.5,147.7 47.3,34.2 113.4,23.8 147.7,-23.6 264.1,-364 529,-641.5 675.6,-768.5 8.3,-7.2 20.2,-7.1 28.5,-0.1 369.3,319.2 1387,1503.5 1399.5,2495.7 0,788.2 -630,1427.1 -1404.4,1432.1 -3,0 -6.1,0.1 -9.1,0.1 -622.9,0 -1179.4,-415.3 -1355.5,-1012.7 -16.4,-56 -75.6,-87.8 -131.3,-71.5 -56,16.5 -88,75.3 -71.5,131.4 203.3,690.1 843.4,1168 1568.7,1164.2 890.4,-5.7 1614.6,-739.5 1614.6,-1635.7 0,-0.4 0,-10.1 0,-10.6 -13.1,-1044.1 -1016.8,-2259.1 -1472.7,-2653 -43.5,-37.6 -98,-56.4 -152.5,-56.4"
         style="fill:#2e3369;fill-opacity:1;fill-rule:nonzero;stroke:none"
         id="path356" />
      <path
         d="m 39276.2,38395.5 c -361.3,0 -655.2,-294.2 -655.2,-655.8 0,-361.3 293.9,-655.2 655.2,-655.2 361.6,0 655.7,293.9 655.7,655.2 0,361.6 -294.1,655.8 -655.7,655.8 z m 0,-1522.5 c -478,0 -866.7,388.8 -866.7,866.7 0,478.3 388.7,867.4 866.7,867.4 478.2,0 867.3,-389.1 867.3,-867.4 0,-477.9 -389.1,-866.7 -867.3,-866.7"
         style="fill:#2e3369;fill-opacity:1;fill-rule:nonzero;stroke:none"
         id="path358" />
      <path
         d="m 37539.2,35949.7 c 0.3,-3.3 0.5,-6.6 0.5,-9.3 v -833.9 c 0,-5.6 4.5,-10.1 10.2,-10.1 h 545.6 c 5.6,0 10.2,4.5 10.2,10.1 v 1496 c 0,58.4 47.3,105.8 105.7,105.8 h 328.8 c 4,0 7.7,2.4 9.3,6.1 -1.4,2.2 -3,7.9 -4.5,13 l -1543.4,1558 c 0,-0.1 -8.9,0 -12.7,0 -1,0 -1.7,0 -1.7,0 l -1545.7,-1559.9 c -2.8,-2.8 -3.7,-7.1 -2.1,-11 l 9.3,-6.2 h 328.7 c 58.4,0 105.8,-47.4 105.8,-105.8 v -1496 l 10.1,-10.1 h 545.8 c 5.6,0 10.1,4.5 10.1,10.1 v 833.9 c 0,2.6 0.3,8 0.5,10.6 -0.3,122.8 105.9,229 236.4,229 h 616.5 c 128.3,0 233.2,-102.8 236.6,-230.3 z m 556.3,-1064.8 h -545.6 c -122.3,0 -221.7,99.4 -221.7,221.6 v 828.5 c -0.3,2.9 -0.5,5.8 -0.5,8.2 0,13.9 -11.2,25.2 -25.1,25.2 h -616.5 c -13.9,0 -25.1,-11.3 -25.1,-25.2 0,-2.6 -0.4,-8 -0.6,-10.6 l 0.3,-826.1 c 0,-122.2 -99.4,-221.6 -221.6,-221.6 h -545.8 c -46.8,0 -91.7,14.5 -129.7,41.9 -18.9,13.5 -36.3,30.8 -50.5,50.8 -26.9,37.1 -41.5,81.9 -41.5,128.9 v 1390.3 h -222.9 c -36.9,0 -73.6,9.3 -106,26.9 -37.6,20.4 -68.2,51 -88.6,88.6 -3.7,6.8 -7.1,14 -10.1,21.3 -34.4,82.2 -15.9,177 47.2,240.8 l 1545.8,1559.9 c 58.8,59.3 148.7,80.7 227.6,54.2 32.6,-10.7 63,-29.6 87.4,-54.3 l 1545.6,-1559.7 c 10.3,-10.4 18.9,-21.1 26.6,-32.4 1,-1.4 1.8,-2.7 2.7,-4.1 39.2,-61.3 45.9,-137.7 17.8,-205 -34.4,-82.7 -114.7,-136.2 -204.5,-136.2 h -223 v -1390.3 c 0,-122.2 -99.5,-221.6 -221.7,-221.6"
         style="fill:#2e3369;fill-opacity:1;fill-rule:nonzero;stroke:none"
         id="path360" />
      <path
         d="m 26898.1,34889.2 h -452.5 c -298.1,0 -540.6,243.1 -540.6,541.9 v 3359.1 c 0,58.4 47.3,105.7 105.7,105.7 58.5,0 105.8,-47.3 105.8,-105.7 v -3359.1 c 0,-182.2 147.7,-330.4 329.1,-330.4 h 452.5 c 58.4,0 105.7,-47.3 105.7,-105.7 0,-58.4 -47.3,-105.8 -105.7,-105.8"
         style="fill:#2e3369;fill-opacity:1;fill-rule:nonzero;stroke:none"
         id="path362" />
      <path
         d="m 29336.5,34889.2 h -117.7 c -58.4,0 -105.7,47.4 -105.7,105.8 0,58.4 47.3,105.7 105.7,105.7 h 117.7 c 181.5,0 329.1,148.2 329.1,330.4 v 3359.1 c 0,58.4 47.4,105.7 105.8,105.7 58.4,0 105.8,-47.3 105.8,-105.7 v -3359.1 c 0,-298.8 -242.6,-541.9 -540.7,-541.9"
         style="fill:#2e3369;fill-opacity:1;fill-rule:nonzero;stroke:none"
         id="path364" />
      <path
         d="m 27891.1,35908.5 c -467,0 -846.9,-379.9 -846.9,-846.9 0,-467 379.9,-846.9 846.9,-846.9 467,0 846.9,379.9 846.9,846.9 0,467 -379.9,846.9 -846.9,846.9 z m 0,-1905.4 c -583.6,0 -1058.5,474.8 -1058.5,1058.5 0,583.6 474.9,1058.4 1058.5,1058.4 583.6,0 1058.4,-474.8 1058.4,-1058.4 0,-583.7 -474.8,-1058.5 -1058.4,-1058.5"
         style="fill:#2e3369;fill-opacity:1;fill-rule:nonzero;stroke:none"
         id="path366" />
      <path
         d="m 26116.5,38780.6 h 3549.1 v 118.2 c 0,194.4 -158.2,352.6 -352.6,352.6 h -2843.8 c -194.5,0 -352.7,-158.2 -352.7,-352.6 z m 3654.9,-211.5 h -3760.7 c -58.4,0 -105.7,47.3 -105.7,105.7 v 224 c 0,311.1 253.1,564.1 564.2,564.1 H 29313 c 311.1,0 564.2,-253 564.2,-564.1 v -224 c 0,-58.4 -47.4,-105.7 -105.8,-105.7"
         style="fill:#2e3369;fill-opacity:1;fill-rule:nonzero;stroke:none"
         id="path368" />
      <path
         d="m 28749,39132.3 c -64.1,0 -116.3,-52.2 -116.3,-116.3 0,-64.1 52.2,-116.2 116.3,-116.2 64.1,0 116.2,52.1 116.2,116.2 0,64.1 -52.1,116.3 -116.2,116.3"
         style="fill:#2e3369;fill-opacity:1;fill-rule:nonzero;stroke:none"
         id="path370" />
      <path
         d="m 28268.6,39132.3 c -64.1,0 -116.3,-52.2 -116.3,-116.3 0,-64.1 52.2,-116.2 116.3,-116.2 64.1,0 116.2,52.1 116.2,116.2 0,64.1 -52.1,116.3 -116.2,116.3"
         style="fill:#2e3369;fill-opacity:1;fill-rule:nonzero;stroke:none"
         id="path372" />
      <path
         d="m 29229.3,39132.3 c -64.1,0 -116.2,-52.2 -116.2,-116.3 0,-64.1 52.1,-116.2 116.2,-116.2 64.1,0 116.3,52.1 116.3,116.2 0,64.1 -52.2,116.3 -116.3,116.3"
         style="fill:#2e3369;fill-opacity:1;fill-rule:nonzero;stroke:none"
         id="path374" />
      <path
         d="m 27792.5,34551.4 c -30.3,0 -59.1,13 -79.2,35.7 l -406.4,459 c -38.7,43.7 -34.6,110.6 9.1,149.3 43.7,38.6 110.7,34.6 149.3,-9.1 l 322.9,-364.7 506.3,636.2 c 36.4,45.7 103,53.2 148.6,16.9 45.7,-36.4 53.3,-102.9 16.9,-148.6 l -584.8,-734.8 c -19.4,-24.5 -48.7,-39 -80,-39.9 -0.9,0 -1.8,0 -2.7,0"
         style="fill:#2e3369;fill-opacity:1;fill-rule:nonzero;stroke:none"
         id="path376" />
      <path
         d="M 27340.1,36574.8 H 28442 v 776.4 c 0,58.4 47.4,105.8 105.8,105.8 h 68.8 l -725.6,687.9 -725.5,-687.9 h 68.9 c 58.4,0 105.7,-47.4 105.7,-105.8 z m 1145.1,-211.5 h -1188.3 c -35.6,0 -69.7,11 -98.5,31.8 -14.8,10.6 -27.9,23.8 -38.6,38.8 -20.1,27.9 -31.2,62 -31.2,97.7 v 713.8 h -71.6 c -28,0 -55.8,7.1 -80.4,20.5 -28.6,15.5 -51.8,38.8 -67.3,67.2 -1.7,3 -6,12.1 -7.4,15.2 -26.4,63.5 -12.4,135.4 35.4,183.8 l 836.6,793.2 c 41.3,41.8 109.8,59 170.4,38.9 24.7,-8.1 48.1,-22.6 66.8,-41.7 l 831.2,-788 c 9.8,-9.7 16.6,-18.1 22.6,-26.9 31.6,-48 37.1,-106.9 15.6,-158.7 -26.2,-62.8 -87.2,-103.5 -155.4,-103.5 h -71.6 v -713.8 c 0,-92.8 -75.5,-168.3 -168.3,-168.3"
         style="fill:#2e3369;fill-opacity:1;fill-rule:nonzero;stroke:none"
         id="path378" />
      <path
         d="m 27653.9,36926.3 c -58.4,0 -105.8,47.4 -105.8,105.8 v 164.2 c 0,58.5 47.4,105.8 105.8,105.8 58.4,0 105.8,-47.3 105.8,-105.8 v -164.2 c 0,-58.4 -47.4,-105.8 -105.8,-105.8"
         style="fill:#2e3369;fill-opacity:1;fill-rule:nonzero;stroke:none"
         id="path380" />
      <path
         d="m 28128.3,36926.3 c -58.4,0 -105.8,47.4 -105.8,105.8 v 164.2 c 0,58.5 47.4,105.8 105.8,105.8 58.4,0 105.8,-47.3 105.8,-105.8 v -164.2 c 0,-58.4 -47.4,-105.8 -105.8,-105.8"
         style="fill:#2e3369;fill-opacity:1;fill-rule:nonzero;stroke:none"
         id="path382" />
      <path
         d="m 18115.8,36384.3 c 0.3,-3.1 0.4,-6.3 0.4,-8.8 v -853 l 503.2,-1 c 0.6,0 1,0.4 1,1 v 1568.2 c 0,58.4 47.3,105.8 105.7,105.8 h 302.6 l -1422.2,1437.4 -1424.1,-1435.9 303.2,-1.5 c 58.4,0 105.8,-47.4 105.8,-105.8 v -1568.2 l 503.3,-1 0.9,854 c 0,2.8 0.3,8.3 0.5,11 -0.3,116.4 101.2,217.9 226,217.9 h 567.4 c 122.8,0 223,-98.2 226.3,-220.1 z m 503.6,-1074.3 h -502.3 c -117.1,0 -212.4,95.3 -212.4,212.5 v 847.9 c -0.2,2.8 -0.4,5.5 -0.4,7.7 0,8.2 -6.6,14.8 -14.8,14.8 h -567.4 c -8.1,0 -14.7,-6.6 -14.7,-14.8 0,-2.8 -0.4,-8.2 -0.6,-11 l 0.3,-844.6 c 0,-117.2 -95.3,-212.5 -212.4,-212.5 h -502.4 c -44.9,0 -87.8,13.8 -124.1,40 -18.6,13.4 -34.8,29.7 -48.3,48.4 -26.1,36 -40,79 -40,124.1 v 1462.4 H 16183 c -35.2,0 -70.3,9 -101.5,25.9 -36.1,19.6 -65.5,49 -85,85.1 -3.3,5.9 -6.6,12.8 -9.5,19.7 -33.2,79.5 -15.4,170.3 45.2,231.4 l 1422.8,1435.8 c 56.5,57 142.5,77.3 218.2,52 31.3,-10.3 60.5,-28.4 83.9,-52.3 L 19179.6,37347 c 9.8,-9.9 18.3,-20.4 25.8,-31.5 39.7,-60.1 46.7,-134.4 19.5,-199.8 -33.2,-79.5 -110.1,-130.8 -196.2,-130.8 h -196.8 v -1462.4 c 0,-117.2 -95.3,-212.5 -212.5,-212.5"
         style="fill:#2e3369;fill-opacity:1;fill-rule:nonzero;stroke:none"
         id="path384" />
      <path
         d="m 15901.8,35416.6 h -814.4 c -113.3,0 -202,88.8 -202,202.1 v 1224.8 h -170.3 c -83.5,0 -157.3,49.7 -188.1,126.7 -25.4,61.4 -18.6,132 18.5,187.8 1.4,2 2.8,4 4.3,5.9 5.9,9.1 13.6,19.1 24.2,28.6 l 1291.8,1303.5 c 26,23.8 50,38.9 75.4,48.6 27.5,8.6 46.8,11.3 68.5,11.3 55,0 106.3,-21.2 144.7,-59.7 l 337.7,-340.8 c 41.1,-41.5 40.8,-108.5 -0.7,-149.6 -41.5,-41 -108.4,-40.9 -149.6,0.7 l -331.2,334.3 -1275.1,-1285.8 h 255.6 c 58.4,0 105.8,-47.3 105.8,-105.7 v -1321.1 h 804.9 c 58.4,0 105.8,-47.4 105.8,-105.8 0,-58.4 -47.4,-105.8 -105.8,-105.8"
         style="fill:#2e3369;fill-opacity:1;fill-rule:nonzero;stroke:none"
         id="path386" />
      <path
         d="M 20124.4,35416.6 H 19310 c -58.4,0 -105.8,47.4 -105.8,105.8 0,58.4 47.4,105.8 105.8,105.8 h 804.9 v 1321.1 c 0,58.4 47.3,105.7 105.8,105.7 h 255.6 l -1274.7,1286.2 -331.6,-334.7 c -41.2,-41.5 -108.2,-41.8 -149.5,-0.7 -41.6,41.1 -41.9,108.1 -0.8,149.6 l 337.5,340.6 c 53.9,54 136.1,71.9 205.7,51.3 33.2,-12.4 57.2,-27.5 79.2,-47.5 l 1295.7,-1307.3 c 10.6,-9.5 18.4,-19.5 24.3,-28.6 1.5,-2 2.9,-3.9 4.2,-5.9 37.1,-55.8 43.9,-126.4 18.1,-188.8 -30.3,-76 -104.2,-125.7 -187.7,-125.7 h -170.3 v -1224.8 c 0,-113.3 -88.7,-202.1 -202,-202.1"
         style="fill:#2e3369;fill-opacity:1;fill-rule:nonzero;stroke:none"
         id="path388" />
      <path
         d="m 5496.47,38738.2 -93.17,-2579.7 c -17.3,-476.1 242.74,-913.8 678.57,-1142.3 l 1238.86,-649.3 1238.81,649.3 c 435.84,228.5 695.87,666.2 678.62,1142.3 l -93.17,2579.7 -1824.26,581 z m 1824.26,-4596.5 c -16.89,0 -33.72,4 -49.11,12.1 l -1287.98,675.1 c -508.6,266.6 -811.96,779 -791.77,1337.2 l 95.85,2654.1 c 1.66,44.6 31.09,83.4 73.65,96.9 l 1927.29,613.8 c 20.87,6.7 43.28,6.7 64.14,0 l 1927.3,-613.8 c 42.55,-13.5 71.99,-52.3 73.64,-96.9 l 95.86,-2654.1 c 20.14,-558.2 -283.22,-1070.6 -791.83,-1337.2 l -1287.92,-675.1 c -15.39,-8.1 -32.23,-12.1 -49.12,-12.1"
         style="fill:#2e3369;fill-opacity:1;fill-rule:nonzero;stroke:none"
         id="path390" />
      <path
         d="m 5925.49,38412.5 -82.07,-2269.9 c -11.05,-305.1 158.76,-587.2 443.07,-736.2 l 1034.24,-542.2 1034.3,542.2 c 284.2,149 453.96,431.2 442.96,736.2 l -81.96,2269.9 -1395.3,444.4 z M 7320.73,34639 c -16.89,0 -33.72,4.1 -49.11,12.1 l -1083.36,568 c -357.08,187.1 -570.22,543.9 -556.27,931.1 l 84.75,2344.3 c 1.65,44.7 31.09,83.4 73.64,97 l 1498.28,477.1 c 20.87,6.7 43.28,6.7 64.14,0 l 1498.33,-477.1 c 42.56,-13.6 72,-52.3 73.65,-97 l 84.65,-2344.3 c 13.89,-387.2 -199.2,-744 -556.17,-931.2 l -1083.41,-567.9 c -15.39,-8 -32.23,-12.1 -49.12,-12.1"
         style="fill:#2e3369;fill-opacity:1;fill-rule:nonzero;stroke:none"
         id="path392" />
      <path
         d="m 7726.72,35914.5 h 319.58 v 1137.4 c 0,58.4 47.35,105.7 105.76,105.7 h 161.5 l -992.88,1001.3 -992.21,-1001.3 h 160.83 c 58.41,0 105.77,-47.3 105.77,-105.7 v -1137.4 h 319.63 v 606.6 c 0.15,109.5 87.74,197.1 195.37,197.1 h 421.12 c 105.4,0 191.55,-83.9 195.11,-188.5 0.26,-3 0.42,-6 0.42,-8.6 z m 346.17,-211.5 h -372.77 c -102,0 -184.94,82.9 -184.94,184.9 v 618.8 h -388.79 l -0.15,-618.8 c 0,-102 -82.94,-184.9 -184.94,-184.9 h -372.83 c -39.15,0 -76.54,12.1 -108.2,34.9 -16.47,12 -30.67,26.2 -42.24,42.5 -22.42,31 -34.5,68.4 -34.5,107.5 v 1058.2 h -118.84 c -30.73,0 -61.3,7.8 -88.36,22.5 -31.3,17 -56.86,42.5 -73.96,73.8 -2.01,3.7 -7.33,15 -8.88,18.9 -28.3,67.5 -12.91,146.6 39.77,199.8 l 1056.04,1065.8 c 48.44,49 124.56,67.2 190,45.2 26.91,-8.8 52.31,-24.6 72.87,-45.3 l 1055.88,-1065.5 c 8.63,-8.8 16.07,-18 22.52,-27.6 34.45,-52.3 40.54,-117 16.79,-173.9 -28.72,-69 -95.75,-113.7 -170.69,-113.7 h -118.84 v -1058.2 c 0,-102 -82.94,-184.9 -184.94,-184.9"
         style="fill:#2e3369;fill-opacity:1;fill-rule:nonzero;stroke:none"
         id="path394" />
    </g>
  </g>
</svg>
