<?xml version="1.0" standalone="no"?>
<!--Created with Inkscape (http://www.inkscape.org/)-->
<svg xmlns="http://www.w3.org/2000/svg" xmlns:xlink="http://www.w3.org/1999/xlink" viewBox="0 0 48 48">
  <defs>
    <linearGradient id="a">
      <stop offset="0" stop-color="#000" stop-opacity="1"/>
      <stop offset="1" stop-color="#000" stop-opacity="0"/>
    </linearGradient>
    <linearGradient id="p" gradientUnits="userSpaceOnUse" x1="121.481" y1="81.9771" x2="150.1906" y2="93.5686" gradientTransform="matrix(3.387517,0,0,3.387517,63.05006,49.40124)">
      <stop offset="0" stop-color="#ebead9"/>
      <stop offset="1" stop-color="#c4c7b8"/>
    </linearGradient>
    <linearGradient id="o" gradientUnits="userSpaceOnUse" x1="112.8086" y1="91.6128" x2="130.1938" y2="121.6663" gradientTransform="matrix(3.387517,0,0,3.387517,63.05006,49.40124)">
      <stop offset="0" stop-color="#cecfbf"/>
      <stop offset="1" stop-color="#a8aa9e"/>
    </linearGradient>
    <linearGradient id="n" gradientUnits="userSpaceOnUse" x1="153.9414" y1="113.4575" x2="133.6281" y2="99.0295" gradientTransform="matrix(3.387517,0,0,3.387517,63.05006,49.40124)">
      <stop offset="0" stop-color="#6d6e66"/>
      <stop offset="1" stop-color="#b0b1a4"/>
    </linearGradient>
    <linearGradient id="m" gradientUnits="userSpaceOnUse" x1="120.3481" y1="120.2944" x2="149.0578" y2="131.886" gradientTransform="matrix(3.387517,0,0,3.387517,63.05006,49.40124)">
      <stop offset="0" stop-color="#ebead9"/>
      <stop offset="1" stop-color="#c4c7b8"/>
    </linearGradient>
    <linearGradient id="l" gradientUnits="userSpaceOnUse" x1="111.6758" y1="129.9302" x2="129.0614" y2="159.9844" gradientTransform="matrix(3.387517,0,0,3.387517,63.05006,49.40124)">
      <stop offset="0" stop-color="#cecfbf"/>
      <stop offset="1" stop-color="#a8aa9e"/>
    </linearGradient>
    <linearGradient id="k" gradientUnits="userSpaceOnUse" x1="152.8076" y1="151.7749" x2="132.4944" y2="137.3469" gradientTransform="matrix(3.387517,0,0,3.387517,63.05006,49.40124)">
      <stop offset="0" stop-color="#6d6e66"/>
      <stop offset="1" stop-color="#b0b1a4"/>
    </linearGradient>
    <linearGradient id="j" gradientUnits="userSpaceOnUse" x1="147.4834" y1="106.9712" x2="176.1931" y2="118.5627" gradientTransform="matrix(3.387517,0,0,3.387517,63.05006,49.40124)">
      <stop offset="0" stop-color="#ebead9"/>
      <stop offset="1" stop-color="#c4c7b8"/>
    </linearGradient>
    <linearGradient id="i" gradientUnits="userSpaceOnUse" x1="138.8105" y1="116.606" x2="156.1962" y2="146.6602" gradientTransform="matrix(3.387517,0,0,3.387517,63.05006,49.40124)">
      <stop offset="0" stop-color="#cecfbf"/>
      <stop offset="1" stop-color="#a8aa9e"/>
    </linearGradient>
    <linearGradient id="h" gradientUnits="userSpaceOnUse" x1="179.9443" y1="138.4517" x2="159.6303" y2="124.0231" gradientTransform="matrix(3.387517,0,0,3.387517,63.05006,49.40124)">
      <stop offset="0" stop-color="#6d6e66"/>
      <stop offset="1" stop-color="#b0b1a4"/>
    </linearGradient>
    <linearGradient id="g" gradientUnits="userSpaceOnUse" x1="93.0161" y1="105.396" x2="121.7251" y2="116.9873" gradientTransform="matrix(3.387517,0,0,3.387517,63.05006,49.40124)">
      <stop offset="0" stop-color="#ebead9"/>
      <stop offset="1" stop-color="#c4c7b8"/>
    </linearGradient>
    <linearGradient id="f" gradientUnits="userSpaceOnUse" x1="84.3442" y1="115.0317" x2="101.7298" y2="145.086" gradientTransform="matrix(3.387517,0,0,3.387517,63.05006,49.40124)">
      <stop offset="0" stop-color="#cecfbf"/>
      <stop offset="1" stop-color="#a8aa9e"/>
    </linearGradient>
    <linearGradient id="e" gradientUnits="userSpaceOnUse" x1="125.4766" y1="136.8774" x2="105.1633" y2="122.4494" gradientTransform="matrix(3.387517,0,0,3.387517,63.05006,49.40124)">
      <stop offset="0" stop-color="#6d6e66"/>
      <stop offset="1" stop-color="#b0b1a4"/>
    </linearGradient>
    <linearGradient id="d" gradientUnits="userSpaceOnUse" x1="120.1519" y1="93.2319" x2="148.8608" y2="104.8232" gradientTransform="matrix(3.387517,0,0,3.387517,63.05006,49.40124)">
      <stop offset="0" stop-color="#ebead9"/>
      <stop offset="1" stop-color="#c4c7b8"/>
    </linearGradient>
    <linearGradient id="c" gradientUnits="userSpaceOnUse" x1="111.48" y1="102.8677" x2="128.866" y2="132.9226" gradientTransform="matrix(3.387517,0,0,3.387517,63.05006,49.40124)">
      <stop offset="0" stop-color="#cecfbf"/>
      <stop offset="1" stop-color="#a8aa9e"/>
    </linearGradient>
    <linearGradient id="b" gradientUnits="userSpaceOnUse" x1="152.6123" y1="124.7124" x2="132.299" y2="110.2844" gradientTransform="matrix(3.387517,0,0,3.387517,63.05006,49.40124)">
      <stop offset="0" stop-color="#6d6e66"/>
      <stop offset="1" stop-color="#b0b1a4"/>
    </linearGradient>
    <radialGradient xlink:href="#a" cx="26.625" cy="39.375" fx="26.625" fy="39.375" r="18.875" gradientTransform="matrix(1,0,0,0.589404,4.926615e-16,16.16722)" gradientUnits="userSpaceOnUse"/>
  </defs>
  <metadata/>
  <g transform="matrix(0.369002,0,0,0.369002,-23.26561,-18.22938)" fill-rule="nonzero" stroke="#000" stroke-miterlimit="4">
    <path d="M 128.923,70.008 L 103.691,81.987 C 103.691,81.987 103.691,89.329 103.691,92.409 C 103.516,92.326 103.148,92.151 103.148,92.151 L 75.227,105.407 L 75.227,139.729 L 100.248,152.683 C 100.248,152.683 101.687,153.434 102.557,153.887 C 102.557,154.118 102.557,154.627 102.557,154.627 L 130.476,169.815 L 185.369,141.242 L 185.369,106.922 C 185.369,106.922 159.79,94.761 159.364,94.558 C 159.364,90.225 159.364,81.928 159.364,81.928 L 131.61,68.732 L 128.922,70.008 L 128.923,70.008 z " stroke="none"/>
    <linearGradient gradientUnits="userSpaceOnUse" x1="152.6123" y1="124.7124" x2="132.299" y2="110.2844">
      <stop offset="0" stop-color="#6d6e66"/>
      <stop offset="1" stop-color="#b0b1a4"/>
    </linearGradient>
    <path d="M 129.428,107.188 L 129.428,134.817 L 151.083,123.606 L 151.083,97.055 L 129.428,107.188 z " fill="url(#b)" stroke="none"/>
    <linearGradient gradientUnits="userSpaceOnUse" x1="111.48" y1="102.8677" x2="128.866" y2="132.92261">
      <stop offset="0" stop-color="#cecfbf"/>
      <stop offset="1" stop-color="#a8aa9e"/>
    </linearGradient>
    <path d="M 129.592,107.25 L 129.592,134.881 L 107.937,123.669 L 107.937,97.118 L 129.592,107.251 L 129.592,107.25 z " fill="url(#c)" stroke="none"/>
    <linearGradient gradientUnits="userSpaceOnUse" x1="120.1519" y1="93.231903" x2="148.86079" y2="104.8232">
      <stop offset="0" stop-color="#ebead9"/>
      <stop offset="1" stop-color="#c4c7b8"/>
    </linearGradient>
    <path d="M 151.083,97.055 L 129.592,107.25 L 107.937,97.117 L 129.592,86.836 L 151.083,97.055 L 151.083,97.055 z " fill="url(#d)" stroke="none"/>
    <g>
      <linearGradient gradientUnits="userSpaceOnUse" x1="125.4766" y1="136.8774" x2="105.1633" y2="122.4494">
        <stop offset="0" stop-color="#6d6e66"/>
        <stop offset="1" stop-color="#b0b1a4"/>
      </linearGradient>
      <path d="M 102.293,119.353 L 102.293,146.983 L 123.947,135.772 L 123.947,109.22 L 102.293,119.353 z " fill="url(#e)" stroke="none"/>
      <linearGradient gradientUnits="userSpaceOnUse" x1="84.3442" y1="115.0317" x2="101.7298" y2="145.086">
        <stop offset="0" stop-color="#cecfbf"/>
        <stop offset="1" stop-color="#a8aa9e"/>
      </linearGradient>
      <path d="M 102.457,119.415 L 102.457,147.045 L 80.801,135.833 L 80.801,109.282 L 102.457,119.415 L 102.457,119.415 z " fill="url(#f)" stroke="none"/>
      <linearGradient gradientUnits="userSpaceOnUse" x1="93.016098" y1="105.396" x2="121.7251" y2="116.9873">
        <stop offset="0" stop-color="#ebead9"/>
        <stop offset="1" stop-color="#c4c7b8"/>
      </linearGradient>
      <path d="M 123.947,109.22 L 102.456,119.415 L 80.8,109.282 L 102.457,99 L 123.948,109.219 L 123.947,109.22 z " fill="url(#g)" stroke="none"/>
    </g>
    <g>
      <linearGradient gradientUnits="userSpaceOnUse" x1="179.94431" y1="138.45171" x2="159.63029" y2="124.0231">
        <stop offset="0" stop-color="#6d6e66"/>
        <stop offset="1" stop-color="#b0b1a4"/>
      </linearGradient>
      <path d="M 156.759,120.927 L 156.759,148.556 L 178.415,137.345 L 178.415,110.794 L 156.759,120.927 L 156.759,120.927 z " fill="url(#h)" stroke="none"/>
      <linearGradient gradientUnits="userSpaceOnUse" x1="138.8105" y1="116.606" x2="156.1962" y2="146.6602">
        <stop offset="0" stop-color="#cecfbf"/>
        <stop offset="1" stop-color="#a8aa9e"/>
      </linearGradient>
      <path d="M 156.923,120.99 L 156.923,148.619 L 135.268,137.409 L 135.268,110.856 L 156.923,120.99 z " fill="url(#i)" stroke="none"/>
      <linearGradient gradientUnits="userSpaceOnUse" x1="147.4834" y1="106.9712" x2="176.1931" y2="118.5627">
        <stop offset="0" stop-color="#ebead9"/>
        <stop offset="1" stop-color="#c4c7b8"/>
      </linearGradient>
      <path d="M 178.415,110.794 L 156.923,120.99 L 135.268,110.856 L 156.923,100.575 L 178.415,110.794 L 178.415,110.794 z " fill="url(#j)" stroke="none"/>
    </g>
    <g>
      <linearGradient gradientUnits="userSpaceOnUse" x1="152.8076" y1="151.7749" x2="132.4944" y2="137.34689">
        <stop offset="0" stop-color="#6d6e66"/>
        <stop offset="1" stop-color="#b0b1a4"/>
      </linearGradient>
      <path d="M 129.624,134.25 L 129.624,161.88 L 151.279,150.668 L 151.279,124.117 L 129.624,134.25 z " fill="url(#k)" stroke="none"/>
      <linearGradient gradientUnits="userSpaceOnUse" x1="111.6758" y1="129.93021" x2="129.0614" y2="159.98441">
        <stop offset="0" stop-color="#cecfbf"/>
        <stop offset="1" stop-color="#a8aa9e"/>
      </linearGradient>
      <path d="M 129.788,134.313 L 129.788,161.943 L 108.132,150.731 L 108.132,124.18 L 129.788,134.313 L 129.788,134.313 z " fill="url(#l)" stroke="none"/>
      <linearGradient gradientUnits="userSpaceOnUse" x1="120.3481" y1="120.2944" x2="149.0578" y2="131.886">
        <stop offset="0" stop-color="#ebead9"/>
        <stop offset="1" stop-color="#c4c7b8"/>
      </linearGradient>
      <path d="M 151.279,124.118 L 129.788,134.313 L 108.132,124.18 L 129.788,113.898 L 151.279,124.117 L 151.279,124.118 z " fill="url(#m)" stroke="none"/>
    </g>
    <g>
      <linearGradient gradientUnits="userSpaceOnUse" x1="153.94141" y1="113.4575" x2="133.6281" y2="99.029503">
        <stop offset="0" stop-color="#6d6e66"/>
        <stop offset="1" stop-color="#b0b1a4"/>
      </linearGradient>
      <path d="M 130.757,95.933 L 130.757,123.562 L 152.412,112.351 L 152.412,85.8 L 130.757,95.933 L 130.757,95.933 z " fill="url(#n)" stroke="none"/>
      <linearGradient gradientUnits="userSpaceOnUse" x1="112.8086" y1="91.612801" x2="130.1938" y2="121.6663">
        <stop offset="0" stop-color="#cecfbf"/>
        <stop offset="1" stop-color="#a8aa9e"/>
      </linearGradient>
      <path d="M 130.921,95.995 L 130.921,123.624 L 109.265,112.414 L 109.265,85.862 L 130.921,95.995 L 130.921,95.995 z " fill="url(#o)" stroke="none"/>
      <linearGradient gradientUnits="userSpaceOnUse" x1="121.481" y1="81.977097" x2="150.1906" y2="93.568604">
        <stop offset="0" stop-color="#ebead9"/>
        <stop offset="1" stop-color="#c4c7b8"/>
      </linearGradient>
      <path d="M 152.412,85.8 L 130.921,95.995 L 109.265,85.862 L 130.921,75.581 L 152.412,85.8 z " fill="url(#p)" stroke="none"/>
    </g>
  </g>
</svg>
