<?xml version="1.0" encoding="UTF-8" standalone="no"?>
<!-- Generator: Adobe Illustrator 19.0.0, SVG Export Plug-In . SVG Version: 6.00 Build 0)  -->

<svg
   version="1.1"
   id="Layer_1"
   x="0px"
   y="0px"
   viewBox="0 0 1400 980"
   style="enable-background:new 0 0 1400 980;"
   xml:space="preserve"
   sodipodi:docname="svg.svg"
   inkscape:version="1.1.2 (0a00cf5339, 2022-02-04)"
   xmlns:inkscape="http://www.inkscape.org/namespaces/inkscape"
   xmlns:sodipodi="http://sodipodi.sourceforge.net/DTD/sodipodi-0.dtd"
   xmlns="http://www.w3.org/2000/svg"
   xmlns:svg="http://www.w3.org/2000/svg"><defs
   id="defs85" /><sodipodi:namedview
   id="namedview83"
   pagecolor="#505050"
   bordercolor="#ffffff"
   borderopacity="1"
   inkscape:pageshadow="0"
   inkscape:pageopacity="0"
   inkscape:pagecheckerboard="1"
   showgrid="false"
   inkscape:zoom="0.76020408"
   inkscape:cx="700.4698"
   inkscape:cy="490"
   inkscape:window-width="3440"
   inkscape:window-height="1369"
   inkscape:window-x="0"
   inkscape:window-y="34"
   inkscape:window-maximized="1"
   inkscape:current-layer="Layer_1" />
<style
   type="text/css"
   id="style2">
	.st0{fill:#F97C28;}
	.st1{fill:#FFFFFF;}
	.st2{fill-rule:evenodd;clip-rule:evenodd;fill:#FFFFFF;}
</style>
<rect
   class="st0"
   width="1400"
   height="980"
   id="rect4" />
<g
   id="g80">
	<g
   id="g24">
		<g
   id="g12">
			<path
   class="st1"
   d="M559,186.8v56h23.8c0,0,22.3,46.6,34.2,59.5c11.9,12.9,56.2,46.6,56.2,46.6s9.4,4,7.1-10.6     c-2.3-14.5-21.5-35.7-24.1-39.7c-2.6-4-4.6-11.6-0.7-16.2c4-4.6,18.8-15.9,21.8-15.9c3,0,41.7,12.9,47.3,18.2     c5.6,5.3,5,5.3,4.6,17.2c-0.3,11.9-5.9,37.4,0.2,40.7c6.1,3.3,20.6-0.7,23.6-46.9c0,0,5.6-23.8-13.6-38.3     c-19.2-14.5-85.9-70.6-127.6-70.6H559z"
   id="path6" />
			<path
   class="st1"
   d="M709,281.5c0,0,5,2.1,9.4,4.5c9.7,5.1,9.8,6.7,6.7,31.2c-2.9,23.3-6.9,23.9-11.3,22.7     c-4.3-1.2-5.6-5.7-3.2-31.1C712.9,283.4,712.3,286.1,709,281.5z"
   id="path8" />
			<path
   class="st1"
   d="M694.7,275.6c0,0,12.9,6.8,13.3,11.7c0.4,4.8,0.4,47-7.7,46.5s-4.6-22.4-3-42.1     C697.3,291.6,699.2,277.7,694.7,275.6z"
   id="path10" />
		</g>
		<rect
   x="644.5"
   y="400.8"
   class="st1"
   width="151"
   height="7.3"
   id="rect14" />
		<g
   id="g22">
			<path
   class="st1"
   d="M700.2,366.3c0.1,1.8,1.1,2.9,3.7,3.8v-7.6c-0.9,0.2-2.2,0.6-3,1.4C700.6,364.2,700.2,364.9,700.2,366.3z"
   id="path16" />
			<path
   class="st1"
   d="M708.1,380.7v7.9c2.2-0.8,2.9-3,2.9-3.9C711,383.2,710,381.9,708.1,380.7z"
   id="path18" />
			<path
   class="st1"
   d="M699.8,396.5c-0.3-0.1-0.5-0.1-0.8-0.2c-3.8-1.2-7.1-3.3-10-6.3l6.1-5.7c3,3.3,6.4,4.3,8.8,4.6v-10h-0.1     l-0.3-0.1c-1.4-0.4-3.9-1-6.3-2.6c-3.3-2.2-5.2-5.4-5.4-9.4c-0.2-3.3,0.9-6.3,3-8.5c2.8-2.9,6.7-3.9,9-4.1v-5.3h4.2v5.6     c4,0.7,6.7,2.4,9.1,3.9l1.4,0.9l-4.4,7.1l-1.5-1c-1.7-1.1-3-1.9-4.6-2.4v8.6c3.3,1.3,6,3,7.9,5.1c2.1,2.4,3.3,5.2,3.3,8.2     c0,2.9-1.3,6-3.3,8.3c-1.4,1.6-3.2,2.8-5.2,3.5h22.1c4.3-5.9,6.8-13.1,6.8-20.8c0-19.6-15.9-35.5-35.5-35.5s-35.5,15.9-35.5,35.5     c0,7.8,2.5,15,6.8,20.8H699.8z"
   id="path20" />
		</g>
	</g>
	<g
   id="g32">
		<path
   class="st1"
   d="M1117.5,345.7c0,0,4.2-4.1-18.3-4.6c0,0-46.1-2.5-60.2-9.9c0,0-3-12.6,15.1-10.9c18.1,1.7,32,5,47.4,4.7    c15.4-0.2,46.1-8.7,66.9-7.9c20.8,0.7,35.5,13.1,50.3,37.2c14.9,24,28.5,46.4,28.5,46.4h-55c0,0,0-16.4-12.1-23.8    c-12.1-7.4-31.2-11.2-65.2-8.2c-34,3-74,5.5-85.5,1.6c-11.6-4-40.3-33.1-46.9-43c0,0,6.6-17.5,22.8-1.3    c16.2,16.2,20.2,20.8,27.8,21.2c7.6,0.3,20.2-7.3,27.4-6.9c7.3,0.3,15.4,3.6,22.1,4.1C1089.2,344.7,1117.5,345.7,1117.5,345.7z"
   id="path26" />
		<path
   class="st1"
   d="M1044.2,249.1c0,0-1-13.8-17.9-14.9c-18.6-1.1-31.3,30-10.8,48c21.7,19,41.1,19.6,41.1,19.6    s-10.9-14.4,1.7-19.6c18.2-7.4,25.7-37,4.6-42.4C1051.4,236.8,1044.2,249.1,1044.2,249.1z"
   id="path28" />
		<path
   class="st1"
   d="M1113.3,193c0,0,1.5-20.7,26.8-22.2c27.8-1.7,46.8,44.7,16.1,71.7c-32.4,28.4-61.4,29.3-61.4,29.3    s16.4-21.5-2.6-29.3c-27.2-11.1-38.3-55.2-6.9-63.4C1102.6,174.6,1113.3,193,1113.3,193z"
   id="path30" />
	</g>
	<path
   class="st1"
   d="M706.6,620.8c-4.7-2.5-11.9,15.7-11.9,15.7s-14.5,40.8-19.8,38.5c-5.3-2.3,13.5-79.4,13.5-79.4   s4.2-15.3-2.5-17.6c-7.4-2.6-11.4,14.8-11.4,14.8s-17.5,71.6-23.2,71c-5.7-0.6-2.5-97.1-2.5-97.1s0.6-13.7-7.5-14.3   c-8.2-0.6-7.3,14.4-7.3,14.4s-1.5,93.6-7.7,94.3c-4.8,0.5-10.7-54.9-17.5-81.1c-2.1-8.3-2.8-14.1-9.1-13.2c-5.3,0.8-5.4,5.1-5,14.8   c0.3,6.9,5.8,57.5,4.3,88.5l0.1,0.1c0,0,17,0.1,25.7,1.5c8.6,1.4,25.7,1.2,34.3-0.2c0,0,6.2,4.8-3.6,8.4   c-9.8,3.6-22.6,3.9-24.1,11.8c-1.4,7.8,38.5,39.8,42.3,43.3c3.8,3.5,5.4,5.2,3.7,7.5c-2,2.8-4.5,0.8-8.5-1.5   c-12.5-7.4-36-26.3-37.6-24.3c-2.2,2.6,33,38.9,33,38.9s6.1,5.4,2.7,8.3c-3.4,2.9-8.4-2.6-8.4-2.6s-35.6-38-38-36.1   c-2.4,1.9,18.2,35.9,18.2,35.9s5.1,8.2,1.3,10c-3.5,1.7-7.7-5.8-7.7-5.8s-22.2-36.6-25.1-35.4c-2.9,1.2,7.1,22.3,7.1,22.3   s4.2,9.7,1.4,10.5c-2.8,0.8-7.2-7.2-7.2-7.2s-10.3-19.2-13.4-23.5c-3.1-4.3-19.5-24.9-21.2-32.4l-15-15l0,0   c-4.2-2.5-8.4-4.9-12.7-6.9c-17.6-8.2-15.7,6.3-15.7,6.3c13.2,9.4,35.8,31.4,45.2,44.6c9.4,13.2,31.6,35.6,31.6,35.6v33.5h71.2   v-39.4c7.5-12.1,13.1-60.5,14.7-70.3c1.6-9.7,13.2-48.4,13.2-48.4S711.3,623.3,706.6,620.8z"
   id="path34" />
	<g
   id="g42">
		<path
   class="st1"
   d="M166,731.7v68.3c0,0,88.2-27.4,119.1-97c31-69.5,21.6-75.3,17.5-102.2c0,0-23.9,56.7-59.6,87.6    C207.4,719.5,166,731.7,166,731.7z"
   id="path36" />
		<path
   class="st1"
   d="M343.1,731.7v68.3c0,0-88.2-27.4-119.1-97c-31-69.5-21.6-75.3-17.5-102.2c0,0,23.9,56.7,59.6,87.6    C301.6,719.5,343.1,731.7,343.1,731.7z"
   id="path38" />
		<path
   class="st1"
   d="M281,629.5c0,0-9.3-8.5-27.5-8.5c-18.1,0-27,7.5-27,7.5l-15.3-30.9c0,0,16.9-20.4,42.3-20.4    c25.4,0,44.1,20.7,44.1,20.7L281,629.5z"
   id="path40" />
	</g>
	<g
   id="g70">
		<path
   class="st2"
   d="M197.7,404.1h91.1c0,0-25.6-18.1-25.6-39.1c0-21.1,20.3-50.4,20.3-50.4s-23.3,24.8-27.8,19.6    c-4.5-5.3-1.5-50.4,3-57.9c0,0-16.6,6-19.6,26.3c-3,20.3,0,30.9-3.8,32.4c-3.8,1.5-18.1-29.4-28.6-31.6c0,0,24.1,44.4,16.6,65.5    C215.7,389.8,197.7,404.1,197.7,404.1z"
   id="path44" />
		<path
   class="st1"
   d="M215.5,237.8c0,0,0.8-11.1,14.4-11.9c14.9-0.9,25.1,24,8.6,38.5c-17.4,15.3-33,15.7-33,15.7    s8.8-11.6-1.4-15.7c-14.6-6-20.6-29.7-3.7-34C209.8,228,215.5,237.8,215.5,237.8z"
   id="path46" />
		<path
   class="st1"
   d="M297.5,274.4c0,0,0.7-9.8,12.7-10.5c13.1-0.8,22.1,21.2,7.6,33.9c-15.3,13.4-29,13.8-29,13.8    s7.7-10.2-1.2-13.8c-12.9-5.3-18.1-26.1-3.3-30C292.4,265.7,297.5,274.4,297.5,274.4z"
   id="path48" />
		<path
   class="st1"
   d="M277.4,231.6c0,0-0.6-8.1-10.5-8.7c-10.9-0.7-18.3,17.5-6.3,28.1c12.7,11.1,24,11.4,24,11.4s-6.4-8.4,1-11.4    c10.6-4.4,15-21.6,2.7-24.8C281.6,224.4,277.4,231.6,277.4,231.6z"
   id="path50" />
		<path
   class="st1"
   d="M169.8,284.7c0,0-0.7-9.6-12.5-10.3c-12.9-0.8-21.8,20.8-7.5,33.4c15.1,13.2,28.6,13.6,28.6,13.6    s-7.6-10,1.2-13.6c12.7-5.2,17.9-25.7,3.2-29.5C174.8,276.2,169.8,284.7,169.8,284.7z"
   id="path52" />
		<path
   class="st1"
   d="M157.9,242.8c0,0,0.5-6.1,8-6.6c8.3-0.5,13.9,13.3,4.8,21.3c-9.6,8.5-18.3,8.7-18.3,8.7s4.9-6.4-0.8-8.7    c-8.1-3.3-11.4-16.4-2-18.9C154.7,237.3,157.9,242.8,157.9,242.8z"
   id="path54" />
		<path
   class="st1"
   d="M321.6,242.2c0,0-0.4-5.6-7.2-6c-7.5-0.5-12.6,12.1-4.3,19.4c8.8,7.7,16.6,7.9,16.6,7.9s-4.4-5.8,0.7-7.9    c7.4-3,10.4-14.9,1.9-17.1C324.5,237.2,321.6,242.2,321.6,242.2z"
   id="path56" />
		<path
   class="st1"
   d="M338.5,267.1c0,0,0.3-4.3,5.6-4.6c5.8-0.4,9.8,9.3,3.4,15c-6.8,5.9-12.8,6.1-12.8,6.1s3.4-4.5-0.5-6.1    c-5.7-2.3-8-11.5-1.4-13.2C336.3,263.3,338.5,267.1,338.5,267.1z"
   id="path58" />
		<path
   class="st1"
   d="M311.9,215.8c0,0,0.2-3.3,4.3-3.6c4.5-0.3,7.6,7.3,2.6,11.6c-5.2,4.6-10,4.7-10,4.7s2.7-3.5-0.4-4.7    c-4.4-1.8-6.2-9-1.1-10.3C310.2,212.8,311.9,215.8,311.9,215.8z"
   id="path60" />
		<path
   class="st1"
   d="M279.7,208.5c0,0,0.2-2.7,3.5-2.9c3.7-0.2,6.1,5.9,2.1,9.4c-4.3,3.7-8.1,3.8-8.1,3.8s2.1-2.8-0.3-3.8    c-3.6-1.5-5-7.3-0.9-8.3C278.3,206.1,279.7,208.5,279.7,208.5z"
   id="path62" />
		<path
   class="st1"
   d="M253.1,204.4c0,0-0.3-4.4-5.7-4.7c-5.9-0.4-9.9,9.5-3.4,15.2c6.9,6,13,6.2,13,6.2s-3.5-4.6,0.6-6.2    c5.8-2.4,8.1-11.7,1.5-13.5C255.4,200.5,253.1,204.4,253.1,204.4z"
   id="path64" />
		<path
   class="st1"
   d="M213.5,200.6c0,0,0.4-5.4,7-5.8c7.2-0.4,12.2,11.7,4.2,18.7c-8.4,7.4-16,7.6-16,7.6s4.3-5.6-0.7-7.6    c-7.1-2.9-10-14.4-1.8-16.5C210.7,195.8,213.5,200.6,213.5,200.6z"
   id="path66" />
		<path
   class="st1"
   d="M177.9,213c0,0-0.3-4.7-6.1-5c-6.3-0.4-10.6,10.1-3.6,16.2c7.3,6.4,13.9,6.6,13.9,6.6s-3.7-4.9,0.6-6.6    c6.1-2.5,8.7-12.5,1.6-14.3C180.3,208.8,177.9,213,177.9,213z"
   id="path68" />
	</g>
	<g
   id="g78">
		<path
   class="st1"
   d="M1098.2,772.5c0.1-8.1-1.9-15.4-6.3-22.6c-9.8-15.9-31.4-34.7-39.3-46.1c-7.8-11.4-12.3-23.4-20-37.8    c-7.7-14.4-15.7-5.9-15.7-5.9c1.5,14.3,22.6,50,22.6,50c10.9,17.1,5.7,16,5.7,16s-13.3-21.6-16.3-27c-3-5.3-4.6-13-7.9-18.6    c-3.4-5.6-15.3-11.2-18.9-17.1c-3.5-5.9-2-11.1,2-31.3c4.1-20.2-12.3-16.4-12.3-16.4c-4.1,9.9-11.6,45.9-8.8,56.5    c2.8,10.6,24.6,39.3,43.8,63.2c17.9,22.4,24.9,38,26.1,50.4v13.6h45.5L1098.2,772.5L1098.2,772.5z"
   id="path72" />
		<path
   class="st1"
   d="M1108.6,772.5c-0.1-8.1,1.9-15.4,6.3-22.6c9.8-15.9,31.4-34.7,39.3-46.1c7.8-11.4,12.3-23.4,20-37.8    c7.7-14.4,15.7-5.9,15.7-5.9c-1.5,14.3-22.6,50-22.6,50c-10.9,17.1-5.7,16-5.7,16s13.3-21.6,16.3-27c3-5.3,4.6-13,7.9-18.6    c3.4-5.6,15.3-11.2,18.8-17.1c3.5-5.9,2-11.1-2-31.3c-4.1-20.2,12.3-16.4,12.3-16.4c4.1,9.9,11.6,45.9,8.8,56.5    c-2.8,10.6-24.6,39.3-43.8,63.2c-17.9,22.4-24.9,38-26.1,50.4v13.6h-45.5L1108.6,772.5L1108.6,772.5z"
   id="path74" />
		<path
   class="st1"
   d="M1102.7,600.8c0,0,1.6-21.3,27.6-22.9c28.7-1.7,48.3,46.2,16.6,74.1c-33.4,29.4-63.4,30.2-63.4,30.2    s16.9-22.2-2.7-30.2c-28.1-11.5-39.6-57-7.1-65.5C1091.6,581.9,1102.7,600.8,1102.7,600.8z"
   id="path76" />
	</g>
</g>
</svg>
