<?xml version="1.0" encoding="UTF-8" standalone="no"?>
<svg
   version="1.1"
   id="svg2"
   width="100%"
   height="100%"
   viewBox="0 0 225 255"
   sodipodi:docname="nod-1.svg"
   inkscape:version="1.1 (c4e8f9e, 2021-05-24)"
   xmlns:inkscape="http://www.inkscape.org/namespaces/inkscape"
   xmlns:sodipodi="http://sodipodi.sourceforge.net/DTD/sodipodi-0.dtd"
   xmlns:xlink="http://www.w3.org/1999/xlink"
   xmlns="http://www.w3.org/2000/svg"
   xmlns:svg="http://www.w3.org/2000/svg"
   xmlns:rdf="http://www.w3.org/1999/02/22-rdf-syntax-ns#"
   xmlns:cc="http://creativecommons.org/ns#"
   xmlns:dc="http://purl.org/dc/elements/1.1/">
  <metadata
     id="metadata8">
    <rdf:RDF>
      <cc:Work
         rdf:about="">
        <dc:format>image/svg+xml</dc:format>
        <dc:type
           rdf:resource="http://purl.org/dc/dcmitype/StillImage" />
      </cc:Work>
    </rdf:RDF>
  </metadata>
  <defs
     id="defs6">
    <style type="text/css">
      * {
         --fur: teal;
         --highlight: cyan;
      }
    </style>
    <linearGradient
       inkscape:collect="always"
       id="linearGradient28529">
      <stop
         style="stop-color:var(--fur);stop-opacity:0"
         offset="0"
         id="stop28525" />
      <stop
         style="stop-color:var(--highlight);top-opacity:1"
         offset="0.26811692"
         id="stop28832" />
      <stop
         style="stop-color:var(--highlight);top-opacity:1"
         offset="0.48064709"
         id="stop28898" />
      <stop
         style="stop-color:var(--fur);stop-opacity:0;"
         offset="1"
         id="stop28527" />
    </linearGradient>
    <linearGradient
       inkscape:collect="always"
       id="linearGradient13469">
      <stop
         style="stop-color:var(--highlight);stop-opacity:0"
         offset="0"
         id="stop13461" />
      <stop
         style="stop-color:var(--highlight);stop-opacity:0"
         offset="1"
         id="stop13467" />
    </linearGradient>
    <linearGradient
       inkscape:collect="always"
       id="linearGradient7890">
      <stop
         style="stop-color:var(--fur);stop-opacity:1;"
         offset="0"
         id="stop7886" />
      <stop
         style="stop-color:var(--fur);stop-opacity:1"
         offset="0.63920808"
         id="stop8606" />
      <stop
         style="stop-color:var(--highlight);stop-opacity:1;"
         offset="0.72551292"
         id="stop8081" />
      <stop
         style="stop-color:var(--highlight);stop-opacity:1"
         offset="1"
         id="stop7888" />
    </linearGradient>
    <linearGradient
       inkscape:collect="always"
       id="linearGradient1309">
      <stop
         style="stop-color:var(--highlight);stop-opacity:1;"
         offset="0"
         id="stop1305" />
      <stop
         style="stop-color:var(--highlight);stop-opacity:0"
         offset="1"
         id="stop1307" />
    </linearGradient>
    <linearGradient
       inkscape:collect="always"
       id="linearGradient996">
      <stop
         style="stop-color:var(--highlight);stop-opacity:0"
         offset="0"
         id="stop992" />
      <stop
         style="stop-color:var(--highlight);stop-opacity:1"
         offset="1"
         id="stop994" />
    </linearGradient>
    <linearGradient
       inkscape:collect="always"
       id="linearGradient988">
      <stop
         style="stop-color:var(--highlight);stop-opacity:0"
         offset="0"
         id="stop984" />
      <stop
         style="stop-color:var(--highlight);stop-opacity:1"
         offset="1"
         id="stop986" />
    </linearGradient>
    <linearGradient
       inkscape:collect="always"
       id="linearGradient947">
      <stop
         style="stop-color:var(--fur);stop-opacity:1"
         offset="0"
         id="stop943" />
      <stop
         style="stop-color:var(--fur);stop-opacity:1"
         offset="0.55466068"
         id="stop951" />
      <stop
         style="stop-color:var(--highlight);stop-opacity:1"
         offset="1"
         id="stop945" />
    </linearGradient>
    <linearGradient
       inkscape:collect="always"
       id="linearGradient872">
      <stop
         style="stop-color:#ffffff;stop-opacity:1"
         offset="0"
         id="stop868" />
      <stop
         style="stop-color:#ffffff;stop-opacity:0"
         offset="1"
         id="stop870" />
    </linearGradient>
    <clipPath
       clipPathUnits="userSpaceOnUse"
       id="clipPath3691">
      <ellipse
         style="display:inline;mix-blend-mode:normal;fill:url(#radialGradient3695);fill-opacity:1;fill-rule:evenodd;stroke:url(#radialGradient3697)"
         id="ellipse3693"
         cx="162.73845"
         cy="114.78575"
         rx="126.29764"
         ry="57.450905"
         transform="rotate(8.821155)" />
    </clipPath>
    <radialGradient
       inkscape:collect="always"
       xlink:href="#linearGradient1634"
       id="radialGradient3695"
       gradientUnits="userSpaceOnUse"
       gradientTransform="matrix(-0.99873729,-0.05024203,0.02235809,-0.44444574,563.55509,168.71696)"
       cx="403.01996"
       cy="75.785759"
       fx="403.01996"
       fy="75.785759"
       r="126.79764" />
    <radialGradient
       inkscape:collect="always"
       xlink:href="#linearGradient13469"
       id="radialGradient3697"
       gradientUnits="userSpaceOnUse"
       gradientTransform="matrix(0.68761455,0.08137128,-0.04395384,0.37142467,-111.06258,53.735374)"
       cx="403.15192"
       cy="74.627159"
       fx="403.15192"
       fy="74.627159"
       r="126.29764" />
    <filter
       inkscape:collect="always"
       style="color-interpolation-filters:sRGB"
       id="filter3883"
       x="-0.39242237"
       y="-2.8932652"
       width="1.7777831"
       height="6.4178764">
      <feGaussianBlur
         inkscape:collect="always"
         stdDeviation="7.1669447"
         id="feGaussianBlur3885" />
    </filter>
    <radialGradient
       inkscape:collect="always"
       xlink:href="#linearGradient7890"
       id="radialGradient7951-6"
       gradientUnits="userSpaceOnUse"
       gradientTransform="matrix(1.081145,-0.03324759,0.07535232,1.6896734,-26.10542,-175.00677)"
       cx="36.292835"
       cy="261.21844"
       fx="36.292835"
       fy="261.21844"
       r="42.155766" />
    <radialGradient
       inkscape:collect="always"
       xlink:href="#linearGradient7890"
       id="radialGradient7951-5-6"
       gradientUnits="userSpaceOnUse"
       gradientTransform="matrix(0.39533584,-0.11504555,0.36884676,0.87402662,-51.4225,41.308818)"
       cx="84.676933"
       cy="259.01511"
       fx="84.676933"
       fy="259.01511"
       r="42.155766" />
    <radialGradient
       inkscape:collect="always"
       xlink:href="#linearGradient872"
       id="radialGradient874-9"
       cx="176.12189"
       cy="158.74297"
       fx="176.12189"
       fy="158.74297"
       r="5.9953556"
       gradientTransform="matrix(1,0,0,0.38124811,44.36307,51.057504)"
       gradientUnits="userSpaceOnUse" />
    <linearGradient
       inkscape:collect="always"
       xlink:href="#linearGradient996"
       id="linearGradient8438"
       gradientUnits="userSpaceOnUse"
       x1="197.70583"
       y1="239.41364"
       x2="208.99565"
       y2="242.7751"
       gradientTransform="translate(0.87870005,7.0209913)" />
    <linearGradient
       inkscape:collect="always"
       xlink:href="#linearGradient988"
       id="linearGradient8440"
       gradientUnits="userSpaceOnUse"
       gradientTransform="translate(0.87869005,7.0209913)"
       x1="165.58914"
       y1="233.59515"
       x2="198.72447"
       y2="207.95457" />
    <radialGradient
       inkscape:collect="always"
       xlink:href="#linearGradient947"
       id="radialGradient949-7"
       cx="134.05536"
       cy="67.378983"
       fx="134.05536"
       fy="67.378983"
       r="39.781471"
       gradientTransform="matrix(2.1398096,1.084142,-0.49771467,0.98235713,-137.65737,-146.17064)"
       gradientUnits="userSpaceOnUse" />
    <radialGradient
       inkscape:collect="always"
       xlink:href="#linearGradient1309"
       id="radialGradient1029-7"
       cx="126.12256"
       cy="126.96149"
       fx="126.12256"
       fy="126.96149"
       r="21.316759"
       gradientTransform="matrix(0.20403699,-0.79734559,1.3439998,0.34392324,168.71423,175.96733)"
       gradientUnits="userSpaceOnUse" />
    <radialGradient
       inkscape:collect="always"
       xlink:href="#linearGradient1309"
       id="radialGradient1311-3"
       cx="176.28935"
       cy="130.60057"
       fx="176.28935"
       fy="130.60057"
       r="10.826073"
       gradientTransform="matrix(0.98009093,-0.77790411,0.83960816,1.0578326,153.94986,123.50536)"
       gradientUnits="userSpaceOnUse" />
    <linearGradient
       inkscape:collect="always"
       xlink:href="#linearGradient28529"
       id="linearGradient39227"
       gradientUnits="userSpaceOnUse"
       x1="288.36838"
       y1="24.590569"
       x2="313.99817"
       y2="60.061985"
       gradientTransform="translate(-212.48789,5.1794912)" />
    <filter
       inkscape:collect="always"
       style="color-interpolation-filters:sRGB"
       id="filter3883-3"
       x="-0.25490361"
       y="-3.8109349"
       width="1.5027456"
       height="8.6095665">
      <feGaussianBlur
         inkscape:collect="always"
         stdDeviation="7.1669447"
         id="feGaussianBlur3885-6" />
    </filter>
    <linearGradient
       inkscape:collect="always"
       xlink:href="#linearGradient28529"
       id="linearGradient47744"
       gradientUnits="userSpaceOnUse"
       x1="405.15399"
       y1="18.426617"
       x2="386.39346"
       y2="64.787109"
       gradientTransform="translate(-212.48789,5.1794912)" />
  </defs>
  <sodipodi:namedview
     pagecolor="#ffffff"
     bordercolor="#666666"
     borderopacity="1"
     objecttolerance="10"
     gridtolerance="10"
     guidetolerance="10"
     inkscape:pageopacity="0"
     inkscape:pageshadow="2"
     inkscape:window-width="1674"
     inkscape:window-height="1095"
     id="namedview4"
     showgrid="false"
     inkscape:zoom="1.476439"
     inkscape:cx="134.78376"
     inkscape:cy="240.10475"
     inkscape:window-x="883"
     inkscape:window-y="154"
     inkscape:window-maximized="0"
     inkscape:current-layer="layer5"
     inkscape:document-rotation="0"
     inkscape:pagecheckerboard="0"
     fit-margin-top="0"
     fit-margin-left="0"
     fit-margin-right="0"
     fit-margin-bottom="0" />
  <g
     inkscape:groupmode="layer"
     inkscape:label="Raster"
     id="g10"
     style="display:none;opacity:1"
     transform="translate(-4.5246411,-3.2834804)">
    <image
       width="250"
       height="250"
       preserveAspectRatio="none"
       xlink:href="nod-1.png"
       id="image1647"
       x="213.78514"
       y="3.6927357"
       style="display:inline;opacity:1" />
  </g>
  <g
     inkscape:groupmode="layer"
     id="layer1"
     inkscape:label="Vectors"
     style="display:inline"
     transform="translate(-4.5246411,-3.2834804)">
    <g
       inkscape:groupmode="layer"
       id="layer2"
       inkscape:label="Fur"
       style="display:inline;opacity:1">
      <path
         id="path1784"
         style="display:inline;opacity:1;fill:var(--fur);fill-opacity:1;stroke:#000427;stroke-width:2.8;stroke-linecap:butt;stroke-linejoin:miter;stroke-miterlimit:4;stroke-dasharray:none;stroke-opacity:1"
         d="m 158.43406,186.69825 c 6.36188,-2.33147 28.22281,-0.43571 37.06958,-12.10259 2.01461,-2.65682 19.44648,-41.08246 13.39418,-57.43333 -1.47198,-0.31275 -6.69009,-0.10863 -10.3456,6.66208 -0.50384,0.93321 0.0715,9.94171 0.0207,10.97915 0.031,-3.32409 -0.88074,-30.81868 -4.63958,-46.264286 C 208.36625,62.472644 179.86234,8.5647034 174.45078,9.5439791 156.12499,11.177174 140.72779,42.207962 124.96574,69.576305 105.46137,30.270138 79.65836,26.942853 55.62889,13.484802 39.97149,57.64592 50.72234,86.107666 73.17645,107.61201 79.82416,89.746295 91.48912,80.610713 103.50333,72.082829 91.15821,80.625372 76.99414,88.378883 68.93842,122.84409 l 12.01435,8.96318 C 62.54965,115.40773 48.39672,115.97944 34.61643,118.03911 c 0,0 6.24151,31.96018 38.72617,37.75499 -21.32991,-6.5958 -28.34834,-0.38741 -34.15264,5.25269 -0.47511,0.35213 15.10481,16.97055 42.27367,8.46593 -1.56911,-0.92263 -13.96091,6.20786 -13.98966,11.04635 11.45214,1.43067 22.79865,3.98267 34.81603,-0.58692 l -6.04124,3.07214 12.83432,1.09544 -10.718045,-0.76438 c -16.616765,34.07689 -8.261105,52.68618 -0.26169,74.34011 l 99.974815,0.3655 c 0,0 -6.84783,-32.90149 -11.80161,-49.12742 -3.95565,-12.95659 -17.92087,-22.99951 -17.92087,-22.99951 z"
         sodipodi:nodetypes="cscsccccccccccccccccccccscc" />
      <path
         style="display:inline;fill:var(--fur);fill-opacity:1;fill-rule:evenodd;stroke:#000214;stroke-width:3.2;stroke-linecap:round;stroke-linejoin:round;stroke-miterlimit:4;stroke-dasharray:none;stroke-opacity:1"
         d="m 162.57244,197.14906 c 7.93817,0.28602 15.84348,0.78122 24.45481,-3.21695 -3.36733,3.43373 -5.03296,7.09647 -11.04073,10.17484 6.671,2.11446 7.19233,6.2735 8.32484,10.22935"
         id="path1070-3"
         sodipodi:nodetypes="cccc" />
    </g>
    <g
       inkscape:groupmode="layer"
       id="layer8"
       inkscape:label="Occulded Tooth"
       transform="translate(9.7998591,-18.150755)">
      <path
         style="display:inline;fill:#ffffff;fill-opacity:1;stroke:#000000;stroke-width:1px;stroke-linecap:butt;stroke-linejoin:miter;stroke-opacity:1"
         d="m 187.75883,185.40454 c 0.11782,1.97458 -0.48514,4.10396 1.74157,5.62565 2.1702,0.0354 3.72736,-1.46462 4.66112,-4.5259 -4.3371,0.41997 -4.97731,-0.48006 -6.40269,-1.09975 z"
         id="path2089-0"
         sodipodi:nodetypes="cccc" />
    </g>
    <g
       inkscape:groupmode="layer"
       id="layer3"
       inkscape:label="Shadow"
       style="display:inline;mix-blend-mode:normal;filter:url(#filter3883)">
      <path
         style="display:inline;mix-blend-mode:normal;fill:none;stroke:#000000;stroke-width:9.2;stroke-linecap:butt;stroke-linejoin:miter;stroke-miterlimit:4;stroke-dasharray:none;stroke-opacity:0.442893;filter:url(#filter3883-3)"
         d="m 44.722145,154.05489 c 17.22602,14.5058 34.64549,11.34077 54.94816,17.61577 33.485825,10.34957 36.723845,5.76336 70.130535,2.93729"
         id="path3824-1"
         sodipodi:nodetypes="csc" />
      <path
         style="display:inline;mix-blend-mode:normal;fill:none;stroke:#000000;stroke-width:9.2;stroke-linecap:butt;stroke-linejoin:miter;stroke-miterlimit:4;stroke-dasharray:none;stroke-opacity:0.442893;filter:url(#filter3883-3)"
         d="m 97.389412,191.67029 c 22.195608,-4.37141 37.559578,-2.89019 70.966268,-5.71626"
         id="path3824-6-0"
         sodipodi:nodetypes="cc" />
    </g>
    <g
       inkscape:groupmode="layer"
       id="layer5"
       inkscape:label="Highlights"
       style="display:inline;opacity:1">
      <path
         id="path1784-4"
         style="display:inline;opacity:1;fill:url(#linearGradient39227);fill-opacity:1;stroke:#00062a;stroke-width:3;stroke-linecap:round;stroke-linejoin:round;stroke-miterlimit:4;stroke-dasharray:none;stroke-opacity:1"
         d="m 158.43406,186.69825 c 6.36188,-2.33147 28.22281,-0.43571 37.06958,-12.10259 2.01461,-2.65682 19.44648,-41.08246 13.39418,-57.43333 -1.47198,-0.31275 -6.69009,-0.10863 -10.3456,6.66208 -0.50384,0.93321 0.0438,10.97426 -0.007,12.01169 0.031,-3.32409 -0.85305,-31.85122 -4.61189,-47.296826 C 208.36625,62.472644 179.86234,8.5647031 174.45078,9.5439791 156.12499,11.177174 140.72779,42.207962 124.96574,69.576305 105.46137,30.270138 79.65836,26.942853 55.62889,13.484802 39.97149,57.64592 50.72234,86.107666 73.17645,107.61201 79.82416,89.746295 91.48912,80.610713 103.50333,72.082829 91.15821,80.625372 76.99414,88.378883 68.93842,122.84409 l 12.01435,8.96318 C 62.54965,115.40773 48.39672,115.97944 34.61643,118.03911 c 0,0 8.35808,35.01402 38.72617,37.75499 -17.42431,-6.8305 -28.34834,-0.38741 -34.15264,5.25269 -0.47511,0.35213 15.10481,16.97055 42.27367,8.46593 -1.56911,-0.92263 -13.96091,6.20786 -13.98966,11.04635 11.45214,1.43067 22.79865,3.98267 34.81603,-0.58692 l -6.04124,3.07214 12.83432,1.09544 -10.718045,-0.76438 c -16.616765,34.07688 -8.261105,52.68617 -0.26169,74.3401 l 99.974815,0.3655 c 0,0 -6.84783,-32.90148 -11.80161,-49.12741 -3.95565,-12.95659 -17.92087,-22.99952 -17.92087,-22.99952 z"
         sodipodi:nodetypes="cscsccccccccccccccccccccscc" />
      <path
         style="fill:none;stroke:#000000;stroke-width:1px;stroke-linecap:butt;stroke-linejoin:miter;stroke-opacity:1"
         d="m 175.18609,16.203235 c 1.75864,4.913326 2.86471,10.481197 3.87763,16.142503"
         id="path49412"
         sodipodi:nodetypes="cc" />
      <path
         id="path1784-4-6"
         style="display:inline;fill:url(#linearGradient47744);fill-opacity:1;stroke:#00062a;stroke-width:3;stroke-linecap:round;stroke-linejoin:round;stroke-miterlimit:4;stroke-dasharray:none;stroke-opacity:1"
         d="m 158.43406,186.69825 c 6.36188,-2.33147 28.22281,-0.43571 37.06958,-12.10259 2.01461,-2.65682 19.44648,-41.08246 13.39418,-57.43333 -1.47198,-0.31275 -6.69009,-0.10863 -10.3456,6.66208 -0.50384,0.93321 0.0438,10.97426 -0.007,12.01169 0.031,-3.32409 -0.85305,-31.85122 -4.61189,-47.296826 C 208.36625,62.472644 179.86234,8.5647031 174.45078,9.5439791 156.12499,11.177174 140.72779,42.207962 124.96574,69.576305 105.46137,30.270138 79.65836,26.942853 55.62889,13.484802 39.97149,57.64592 50.72234,86.107666 73.17645,107.61201 79.82416,89.746295 91.48912,80.610713 103.50333,72.082829 91.15821,80.625372 76.99414,88.378883 68.93842,122.84409 l 12.01435,8.96318 C 62.54965,115.40773 48.39672,115.97944 34.61643,118.03911 c 0,0 8.35808,35.01402 38.72617,37.75499 -17.42431,-6.8305 -28.34834,-0.38741 -34.15264,5.25269 -0.47511,0.35213 15.10481,16.97055 42.27367,8.46593 -1.56911,-0.92263 -13.96091,6.20786 -13.98966,11.04635 11.45214,1.43067 22.79865,3.98267 34.81603,-0.58692 l -6.04124,3.07214 12.83432,1.09544 -10.718045,-0.76438 c -16.616765,34.07688 -8.261105,52.68617 -0.26169,74.3401 l 99.974815,0.3655 c 0,0 -6.84783,-32.90148 -11.80161,-49.12741 -3.95565,-12.95659 -17.92087,-22.99952 -17.92087,-22.99952 z"
         sodipodi:nodetypes="cscsccccccccccccccccccccscc" />
      <g
         id="g16077"
         transform="matrix(0.82500696,-0.32447437,0.31951088,0.83782317,-188.73034,145.63747)">
        <path
           style="display:inline;fill:url(#radialGradient1029-7);fill-opacity:1;stroke:none;stroke-width:1px;stroke-linecap:butt;stroke-linejoin:miter;stroke-opacity:1"
           d="m 334.48895,110.57827 17.07704,10.67774 24.10197,3.88462 0.0622,-12.20771 -1.45905,-10.36596 -22.85713,-4.33484 z"
           id="path126-1" />
        <path
           style="display:inline;fill:#000000;fill-opacity:1;stroke:none;stroke-width:1px;stroke-linecap:butt;stroke-linejoin:miter;stroke-opacity:1"
           d="m 330.9975,109.57049 c 0,0 3.77631,-1.47038 9.3218,3.36927 5.54549,4.83965 15.36587,7.55309 24.0809,9.55758 3.51462,0.80837 10.7015,-0.39883 11.56013,1.27015 1.31764,2.56118 -3.13333,5.6423 -17.45675,1.71255 -14.32343,-3.92976 -27.50608,-15.90955 -27.50608,-15.90955 z"
           id="path846-2"
           sodipodi:nodetypes="czsssc" />
        <path
           style="display:inline;fill:none;fill-opacity:1;fill-rule:nonzero;stroke:#000000;stroke-width:1px;stroke-linecap:butt;stroke-linejoin:miter;stroke-opacity:1"
           d="m 368.83238,89.10105 c 0,0 8.26705,10.79536 6.83558,36.03958"
           id="path848-9" />
      </g>
      <g
         id="g16138"
         transform="matrix(-0.75397772,0.17953723,0.19814783,0.83213409,490.62111,-52.807412)">
        <path
           style="display:inline;fill:none;stroke:#000000;stroke-width:1px;stroke-linecap:butt;stroke-linejoin:miter;stroke-opacity:1"
           d="m 426.45901,124.39046 c 0,0 -1.60158,-22.62438 2.05095,-28.363149"
           id="path862-4" />
        <path
           style="display:inline;fill:url(#radialGradient1311-3);fill-opacity:1;stroke:none;stroke-width:1px;stroke-linecap:butt;stroke-linejoin:miter;stroke-opacity:1"
           d="m 427.01299,122.04943 -0.39224,-10.48603 9.53279,-4.58869 9.49328,5.43841 1.57079,6.76662 -9.17126,8.45982 -11.58734,-3.2491"
           id="path1295-7"
           sodipodi:nodetypes="ccccccc" />
        <path
           style="display:inline;fill:#000000;fill-opacity:1;stroke:none;stroke-width:1px;stroke-linecap:butt;stroke-linejoin:miter;stroke-opacity:1"
           d="m 449.81788,117.78479 c 0,0 -2.78113,-1.13391 -4.12167,0.9513 -1.34054,2.08522 -5.17186,7.82484 -9.04541,7.16984 -1.45257,-0.24562 -2.89352,-0.2771 -4.27224,-0.63912 -2.38529,-0.62631 -4.49848,-1.69818 -5.64719,-2.20916 -1.01697,-0.45238 -2.29836,1.72496 0.16728,3.33496 4.03305,2.63347 11.49352,3.2791 15.17606,1.34746 4.00051,-2.09842 7.74317,-9.95528 7.74317,-9.95528 z"
           id="path860-8"
           sodipodi:nodetypes="cssssssc" />
      </g>
      <path
         style="display:inline;opacity:1;fill:url(#radialGradient949-7);fill-opacity:1;stroke:#000427;stroke-width:2;stroke-linecap:butt;stroke-linejoin:miter;stroke-miterlimit:4;stroke-dasharray:none;stroke-opacity:1"
         d="m 124.96574,69.576305 c -1.79717,-5.62742 -5.93843,-9.6862 -7.56081,-16.054558 -1.46902,-5.766387 7.30114,-14.723988 10.02776,-17.317659 3.56598,-3.392103 11.27332,-9.403629 26.15764,-13.856405 -1.04898,3.979875 3.85718,8.032286 -5.78948,17.577814 18.11658,-22.409751 59.38056,-15.286811 67.47609,10.246546 -6.36565,-3.01843 -20.61814,10.832521 -40.58759,8.930128 29.9595,-0.526929 40.27734,24.466625 32.83756,45.658579 -35.88047,-8.209197 -45.64545,-11.284388 -57.48156,-23.134229 l 2.42026,6.44491 -8.32064,-6.265705"
         id="path835-28"
         sodipodi:nodetypes="csscccccccc" />
      <path
         style="display:inline;fill:#f2849a;fill-opacity:1;stroke:#000000;stroke-width:2.1;stroke-linecap:round;stroke-linejoin:round;stroke-miterlimit:4;stroke-dasharray:none;stroke-opacity:1"
         d="m 96.04604,76.362799 -3.85426,1.993007 C 81.69743,60.196512 71.43134,52.104695 66.99394,31.73545 c 0.7098,6.101606 2.258,14.24058 5.07297,22.363959 2.0329,5.866484 4.92135,11.168972 7.70519,18.332878 1.81252,4.664274 1.9649,10.949214 4.18221,16.104942 2.55921,-4.944524 6.8499,-8.976144 12.09173,-12.17443 z"
         id="path843-5"
         sodipodi:nodetypes="cccsscc" />
      <path
         style="display:inline;opacity:1;fill:var(--highlight);fill-opacity:1;stroke:#000000;stroke-width:1px;stroke-linecap:butt;stroke-linejoin:miter;stroke-opacity:1"
         d="m 124.42392,97.664112 c 0,0 8.86319,-4.06545 13.5623,-4.862148 5.57729,-0.945589 9.13935,-0.347465 8.11144,-4.395321 -1.81868,-7.16183 -13.01886,-4.70218 -15.71947,-4.26885 -2.96361,0.47553 -6.7211,5.275564 -9.9624,11.062934 -3.24129,5.787373 4.00813,2.463385 4.00813,2.463385 z"
         id="path876-9"
         sodipodi:nodetypes="cssssc" />
      <path
         style="display:inline;fill:var(--fur);fill-opacity:1;stroke:#00042a;stroke-width:1.87319;stroke-linecap:round;stroke-linejoin:round;stroke-miterlimit:4;stroke-dasharray:none;stroke-opacity:1;paint-order:normal"
         d="m 4.6222389,258.04058 c 0,0 -5.19096015,-28.23588 1.25459,-37.54423 6.4957211,-9.38081 1.1682696,-21.54997 -2.05879,-21.52598 8.9452911,4.02153 25.7903911,-7.07478 54.0742411,21.90047 l -4.89901,-15.1434 c 29.07445,22.33728 37.48497,38.37215 38.79531,52.24149 z"
         id="path841-29"
         sodipodi:nodetypes="csccccc" />
      <path
         style="display:inline;fill:url(#radialGradient7951-6);fill-opacity:1;stroke:#00042a;stroke-width:2.95766;stroke-linecap:round;stroke-linejoin:round;stroke-miterlimit:4;stroke-dasharray:none;stroke-opacity:1;paint-order:normal"
         d="m 4.6222389,258.04058 c 0,0 -5.19096015,-28.23588 1.25459,-37.54423 6.4957211,-9.38081 1.1682696,-21.54997 -2.05879,-21.52598 8.9452911,4.02153 25.7903911,-7.07478 54.0742411,21.90047 l -4.89901,-15.1434 c 29.07444,22.33728 37.48497,38.37215 38.79531,52.24149 z"
         id="path841-2-1"
         sodipodi:nodetypes="csccccc" />
      <path
         style="display:inline;fill:url(#radialGradient7951-5-6);fill-opacity:1;stroke:none;stroke-width:1.87319;stroke-linecap:round;stroke-linejoin:round;stroke-miterlimit:4;stroke-dasharray:none;stroke-opacity:1;paint-order:normal"
         d="m 63.92361,257.48122 -2.14375,-12.4729 c 0.21336,-9.17728 -7.09576,-12.84313 -3.88758,-24.13748 l -4.89901,-15.1434 c 29.07444,22.33728 37.48497,38.37215 38.79531,52.24149 z"
         id="path841-2-9-2"
         sodipodi:nodetypes="cccccc" />
      <path
         style="fill:none;stroke:#000000;stroke-width:1px;stroke-linecap:butt;stroke-linejoin:miter;stroke-opacity:0.410031"
         d="m 128.25052,101.08852 c 0.80996,-1.785815 2.57996,-3.58021 9.17767,-5.417776"
         id="path45679"
         sodipodi:nodetypes="cc" />
      <path
         style="display:inline;fill:none;stroke:#000000;stroke-width:0.5;stroke-linecap:butt;stroke-linejoin:miter;stroke-miterlimit:4;stroke-dasharray:none;stroke-opacity:0.410031"
         d="m 175.1587,107.05516 c 0.80996,-1.78581 2.02694,-4.15932 4.56144,-5.11752"
         id="path45679-0"
         sodipodi:nodetypes="cc" />
    </g>
    <g
       inkscape:groupmode="layer"
       id="layer4"
       inkscape:label="Arms"
       style="display:inline">
      <path
         style="display:inline;fill:var(--fur);fill-opacity:1;stroke:#00042a;stroke-width:2.8;stroke-linecap:round;stroke-linejoin:round;stroke-miterlimit:4;stroke-dasharray:none;stroke-opacity:1"
         d="m 160.64281,257.71593 44.71265,0.41706 c 11.80825,-9.30497 4.25104,-14.90947 -1.53039,-21.51037 -12.92972,-7.63606 -26.90555,-15.79167 -29.23103,-18.16115 0,0 -8.99953,9.1383 -10.79145,9.48898 z"
         id="path840-0-7" />
      <path
         style="display:inline;fill:url(#linearGradient8438);fill-opacity:1;stroke:#00042a;stroke-width:2.8;stroke-linecap:round;stroke-linejoin:round;stroke-miterlimit:4;stroke-dasharray:none;stroke-opacity:1"
         d="m 160.64281,257.71593 44.71265,0.41706 c 11.80825,-9.30497 4.25104,-14.90947 -1.53039,-21.51037 -12.92972,-7.63606 -26.90555,-15.79167 -29.23103,-18.16115 0,0 -8.99953,9.1383 -10.79145,9.48898 z"
         id="path840-9" />
      <path
         style="display:inline;fill:var(--fur);fill-opacity:1;stroke:#00042a;stroke-width:2.8;stroke-linecap:round;stroke-linejoin:round;stroke-miterlimit:4;stroke-dasharray:none;stroke-opacity:1"
         d="m 106.20439,204.14221 c 7.55985,-3.36924 15.6992,-2.69992 29.59784,29.86318 5.32152,-1.83134 13.48528,-2.19735 18.02359,-7.19678 12.90565,-14.21694 29.25173,-26.88672 44.00188,-6.25347 4.74298,2.6109 6.46577,6.80823 5.99736,16.06748 l -5.7597,-2.21992 0.52579,-5.48159 -1.17465,5.12531 c -3.06773,4.60509 -7.87579,5.58401 -11.87928,6.2201 -1.99587,5.78354 -6.02992,11.83989 -11.44091,18.08054 l -62.81856,0.45189 c -6.79168,-7.28739 -10.44304,-12.5394 -13.51539,-24.62548"
         id="path838-9-2"
         sodipodi:nodetypes="ccsccccccccc" />
      <path
         style="display:inline;fill:url(#linearGradient8440);fill-opacity:1;stroke:#00042a;stroke-width:2.8;stroke-linecap:round;stroke-linejoin:round;stroke-miterlimit:4;stroke-dasharray:none;stroke-opacity:1"
         d="m 106.20438,204.14221 c 7.55985,-3.36924 15.6992,-2.69992 29.59784,29.86318 5.32153,-1.83134 13.48529,-2.19735 18.0236,-7.19678 12.90565,-14.21694 29.25173,-26.88672 44.00188,-6.25347 4.74298,2.6109 6.46577,6.80823 5.99736,16.06748 l -5.7597,-2.21992 0.52579,-5.48159 -1.17465,5.12531 c -3.06773,4.60509 -7.87579,5.58401 -11.87928,6.2201 -1.99587,5.78354 -6.02992,11.83989 -11.44091,18.08054 l -62.81857,0.45189 c -6.79168,-7.28739 -10.44304,-12.5394 -13.51538,-24.62548"
         id="path838-0"
         sodipodi:nodetypes="ccsccccccccc" />
      <path
         style="display:inline;fill:var(--highlight);fill-opacity:1;stroke:#00042a;stroke-width:2.8;stroke-linecap:round;stroke-linejoin:round;stroke-miterlimit:4;stroke-dasharray:none;stroke-opacity:1"
         d="m 144.60992,218.49353 c -5.8276,-0.60717 -13.48877,-0.14592 -21.25078,8.35916 -19.4801,21.34496 -8.45594,25.03879 -6.71171,26.43387 1.14053,0.91223 6.23943,2.61324 6.15939,-6.09342 0.2013,-3.93981 1.53308,-4.3184 2.53906,-6.99501 -0.98993,2.02559 -1.69531,2.86125 -2.53995,5.65405 0.48017,5.37187 -0.29721,9.73051 6.36445,12.28282 4.24533,1.62653 7.93038,-1.93314 10.96609,-5.9044 -0.84946,-3.2672 0.0123,-6.29131 0.37443,-9.75367 -0.27744,3.17837 -0.64206,6.31513 -0.37443,9.75367 4.94886,3.49703 11.77843,4.25669 12.97229,-3.93336 0.36221,-2.48481 0.0792,-6.10443 -1.19607,-10.10227 l 4.64753,-15.90208 c -0.0943,0.16323 -4.87078,-3.06176 -11.9503,-3.79936 z"
         id="path844-2"
         sodipodi:nodetypes="ssscccscccsccs" />
    </g>
    <g
       inkscape:groupmode="layer"
       id="layer6"
       inkscape:label="Teeth"
       style="display:inline">
      <path
         style="display:inline;fill:#ffffff;fill-opacity:1;stroke:#000000;stroke-width:1px;stroke-linecap:butt;stroke-linejoin:miter;stroke-opacity:1"
         d="m 166.81195,167.58793 c 1.16939,2.68675 2.02132,5.5488 4.46846,7.52997 3.23265,-0.61998 4.51392,-3.46653 5.60804,-6.52664 -5.15167,0.63338 -7.18285,-0.41777 -10.0765,-1.00333 z"
         id="path1812-7"
         sodipodi:nodetypes="cccc" />
    </g>
    <g
       inkscape:groupmode="layer"
       id="layer7"
       inkscape:label="Muzzle">
      <path
         style="display:inline;opacity:1;fill:var(--fur);fill-opacity:1;stroke:#00062a;stroke-width:3;stroke-linecap:round;stroke-linejoin:round;stroke-miterlimit:4;stroke-dasharray:none;stroke-opacity:1"
         d="m 140.72201,149.36126 c 1.77033,-1.44736 3.97561,-1.94807 6.61577,-1.50232 l -2.50385,0.25023 c 6.29438,11.94718 17.76272,28.15929 51.65399,16.29195 9.76422,6.19431 13.99703,-1.26919 16.73024,-8.28028 7.7758,-19.94607 -13.78398,-23.12247 -14.67294,-20.28474 l -13.90257,0.17205"
         id="path6000"
         sodipodi:nodetypes="ccccscc" />
      <path
         style="display:inline;opacity:1;fill:#010101;fill-opacity:1;stroke:#000000;stroke-width:1px;stroke-linecap:butt;stroke-linejoin:miter;stroke-opacity:1"
         d="m 179.4197,143.87919 c -2.46939,-5.73324 32.92712,-4.70567 29.10074,-0.43296 -3.17592,3.54638 -9.92061,9.91964 -11.21327,9.96815 l -3.71302,0.13934 c -1.74221,0.0654 -9.89714,-6.34169 -14.17445,-9.67453 z"
         id="path839-0"
         sodipodi:nodetypes="csssc" />
      <ellipse
         style="display:inline;opacity:1;fill:url(#radialGradient874-9);fill-opacity:1;fill-rule:evenodd"
         id="path866-6"
         cx="220.48495"
         cy="111.57793"
         rx="5.9953556"
         ry="2.285718"
         transform="rotate(8.5707139)" />
    </g>
  </g>
</svg>
