<?xml version="1.0" encoding="UTF-8" standalone="no"?>
<svg
   version="1.1"
   id="svg2"
   width="100%"
   height="100%"
   viewBox="0 0 225 255"
   sodipodi:docname="nod-0.svg"
   inkscape:version="1.1 (c4e8f9e, 2021-05-24)"
   xmlns:inkscape="http://www.inkscape.org/namespaces/inkscape"
   xmlns:sodipodi="http://sodipodi.sourceforge.net/DTD/sodipodi-0.dtd"
   xmlns:xlink="http://www.w3.org/1999/xlink"
   xmlns="http://www.w3.org/2000/svg"
   xmlns:svg="http://www.w3.org/2000/svg"
   xmlns:rdf="http://www.w3.org/1999/02/22-rdf-syntax-ns#"
   xmlns:cc="http://creativecommons.org/ns#"
   xmlns:dc="http://purl.org/dc/elements/1.1/">
  <metadata
     id="metadata8">
    <rdf:RDF>
      <cc:Work
         rdf:about="">
        <dc:format>image/svg+xml</dc:format>
        <dc:type
           rdf:resource="http://purl.org/dc/dcmitype/StillImage" />
      </cc:Work>
    </rdf:RDF>
  </metadata>
  <defs
     id="defs6">
    <style type="text/css">
      * {
         --fur: orange;
         --highlight: green;
      }
    </style>
    <linearGradient
       inkscape:collect="always"
       id="linearGradient7890">
      <stop
         style="stop-color:var(--fur);stop-opacity:1;"
         offset="0"
         id="stop7886" />
      <stop
         style="stop-color:var(--fur);stop-opacity:1"
         offset="0.63920808"
         id="stop8606" />
      <stop
         style="stop-color:var(--highlight);stop-opacity:1;"
         offset="0.72551292"
         id="stop8081" />
      <stop
         style="stop-color:var(--highlight);stop-opacity:1"
         offset="1"
         id="stop7888" />
    </linearGradient>
    <linearGradient
       inkscape:collect="always"
       id="linearGradient1309">
      <stop
         style="stop-color:var(--highlight);stop-opacity:1;"
         offset="0"
         id="stop1305" />
      <stop
         style="stop-color:var(--highlight);stop-opacity:0"
         offset="1"
         id="stop1307" />
    </linearGradient>
    <linearGradient
       inkscape:collect="always"
       id="linearGradient1027">
      <stop
         style="stop-color:var(--highlight);stop-opacity:1;"
         offset="0"
         id="stop1023" />
      <stop
         style="stop-color:var(--highlight);stop-opacity:0"
         offset="1"
         id="stop1025" />
    </linearGradient>
    <linearGradient
       inkscape:collect="always"
       id="linearGradient996">
      <stop
         style="stop-color:var(--highlight);stop-opacity:0"
         offset="0"
         id="stop992" />
      <stop
         style="stop-color:var(--highlight);stop-opacity:1"
         offset="1"
         id="stop994" />
    </linearGradient>
    <linearGradient
       inkscape:collect="always"
       id="linearGradient988">
      <stop
         style="stop-color:var(--highlight);stop-opacity:0"
         offset="0"
         id="stop984" />
      <stop
         style="stop-color:var(--highlight);stop-opacity:1"
         offset="1"
         id="stop986" />
    </linearGradient>
    <linearGradient
       inkscape:collect="always"
       id="linearGradient947">
      <stop
         style="stop-color:var(--fur);stop-opacity:1"
         offset="0"
         id="stop943" />
      <stop
         style="stop-color:var(--highlight);stop-opacity:1"
         offset="0.55466068"
         id="stop951" />
      <stop
         style="stop-color:var(--highlight);stop-opacity:1"
         offset="1"
         id="stop945" />
    </linearGradient>
    <linearGradient
       inkscape:collect="always"
       id="linearGradient878">
      <stop
         style="stop-color:var(--fur);stop-opacity:0.2092143"
         offset="0"
         id="stop874" />
      <stop
         style="stop-color:var(--highlight);stop-opacity:1"
         offset="0.36839396"
         id="stop880" />
      <stop
         style="stop-color:var(--highlight);stop-opacity:0.99941754"
         offset="0.58293599"
         id="stop882" />
      <stop
         style="stop-color:var(--fur);stop-opacity:0"
         offset="1"
         id="stop876" />
    </linearGradient>
    <linearGradient
       inkscape:collect="always"
       id="linearGradient872">
      <title>nose shine</title>
      <stop
         style="stop-color:#ffffff;stop-opacity:1"
         offset="0"
         id="stop868" />
      <stop
         style="stop-color:#ffffff;stop-opacity:0"
         offset="1"
         id="stop870" />
    </linearGradient>
    <radialGradient
       inkscape:collect="always"
       xlink:href="#linearGradient872"
       id="radialGradient874"
       cx="176.12189"
       cy="158.74297"
       fx="176.12189"
       fy="158.74297"
       r="5.9953556"
       gradientTransform="matrix(1,0,0,0.38124811,21.942593,55.628341)"
       gradientUnits="userSpaceOnUse" />
    <linearGradient
       inkscape:collect="always"
       xlink:href="#linearGradient878"
       id="linearGradient886"
       x1="116.35115"
       y1="1.6923468"
       x2="113.90697"
       y2="35.805607"
       gradientUnits="userSpaceOnUse"
       gradientTransform="translate(2.0319161,-14.031917)" />
    <radialGradient
       inkscape:collect="always"
       xlink:href="#linearGradient947"
       id="radialGradient949"
       cx="134.05536"
       cy="67.378983"
       fx="134.05536"
       fy="67.378983"
       r="39.781471"
       gradientTransform="matrix(1.2834224,1.021505,-0.82587617,1.0376337,15.905037,-154.46767)"
       gradientUnits="userSpaceOnUse" />
    <linearGradient
       inkscape:collect="always"
       xlink:href="#linearGradient996"
       id="linearGradient998"
       x1="197.70583"
       y1="239.41364"
       x2="208.99565"
       y2="242.7751"
       gradientUnits="userSpaceOnUse"
       gradientTransform="translate(2.0319161,-14.031917)" />
    <linearGradient
       inkscape:collect="always"
       xlink:href="#linearGradient988"
       id="linearGradient1000"
       gradientUnits="userSpaceOnUse"
       x1="165.58914"
       y1="233.59515"
       x2="198.72447"
       y2="207.95457"
       gradientTransform="translate(2.0319101,-14.031917)" />
    <radialGradient
       inkscape:collect="always"
       xlink:href="#linearGradient1027"
       id="radialGradient1029"
       cx="126.12256"
       cy="126.96149"
       fx="126.12256"
       fy="126.96149"
       r="21.316759"
       gradientTransform="matrix(0.20403699,-0.79734559,1.3439998,0.34392324,-68.215413,165.99448)"
       gradientUnits="userSpaceOnUse" />
    <radialGradient
       inkscape:collect="always"
       xlink:href="#linearGradient1309"
       id="radialGradient1311"
       cx="176.28935"
       cy="130.60057"
       fx="176.28935"
       fy="130.60057"
       r="10.826073"
       gradientTransform="matrix(0.98009093,-0.77790411,0.83960816,1.0578326,-104.11165,115.09508)"
       gradientUnits="userSpaceOnUse" />
    <radialGradient
       inkscape:collect="always"
       xlink:href="#linearGradient7890"
       id="radialGradient7951"
       gradientUnits="userSpaceOnUse"
       gradientTransform="matrix(0.99931499,-0.0370073,0.06964903,1.8807456,-13.217342,-244.70648)"
       cx="36.292835"
       cy="261.21844"
       fx="36.292835"
       fy="261.21844"
       r="42.155766" />
    <radialGradient
       inkscape:collect="always"
       xlink:href="#linearGradient7890"
       id="radialGradient7951-5"
       gradientUnits="userSpaceOnUse"
       gradientTransform="matrix(0.36541355,-0.12805517,0.34092938,0.97286355,-36.61821,-3.9294162)"
       cx="84.676933"
       cy="259.01511"
       fx="84.676933"
       fy="259.01511"
       r="42.155766" />
    <clipPath
       clipPathUnits="userSpaceOnUse"
       id="clipPath3691">
      <ellipse
         style="display:inline;mix-blend-mode:normal;fill:url(#radialGradient3695);fill-opacity:1;fill-rule:evenodd;stroke:url(#radialGradient3697)"
         id="ellipse3693"
         cx="162.73845"
         cy="114.78575"
         rx="126.29764"
         ry="57.450905"
         transform="rotate(8.821155)" />
    </clipPath>
    <radialGradient
       inkscape:collect="always"
       xlink:href="#linearGradient1634"
       id="radialGradient3695"
       gradientUnits="userSpaceOnUse"
       gradientTransform="matrix(-0.99873729,-0.05024203,0.02235809,-0.44444574,563.55509,168.71696)"
       cx="403.01996"
       cy="75.785759"
       fx="403.01996"
       fy="75.785759"
       r="126.79764" />
    <radialGradient
       inkscape:collect="always"
       xlink:href="#linearGradient13469"
       id="radialGradient3697"
       gradientUnits="userSpaceOnUse"
       gradientTransform="matrix(0.68761455,0.08137128,-0.04395384,0.37142467,-111.06258,53.735374)"
       cx="403.15192"
       cy="74.627159"
       fx="403.15192"
       fy="74.627159"
       r="126.29764" />
    <filter
       inkscape:collect="always"
       style="color-interpolation-filters:sRGB"
       id="filter3883"
       x="-0.34026458"
       y="-11.928041"
       width="1.6580149"
       height="24.794634">
      <feGaussianBlur
         inkscape:collect="always"
         stdDeviation="7.1669447"
         id="feGaussianBlur3885" />
    </filter>
  </defs>
  <sodipodi:namedview
     pagecolor="#ffffff"
     bordercolor="#666666"
     borderopacity="1"
     objecttolerance="10"
     gridtolerance="10"
     guidetolerance="10"
     inkscape:pageopacity="0"
     inkscape:pageshadow="2"
     inkscape:window-width="3440"
     inkscape:window-height="1373"
     id="namedview4"
     showgrid="false"
     inkscape:zoom="2.9528779"
     inkscape:cx="-63.32805"
     inkscape:cy="134.27579"
     inkscape:window-x="0"
     inkscape:window-y="30"
     inkscape:window-maximized="1"
     inkscape:current-layer="layer6"
     inkscape:document-rotation="0"
     inkscape:pagecheckerboard="0"
     fit-margin-top="0"
     fit-margin-left="0"
     fit-margin-right="0"
     fit-margin-bottom="0" />
  <g
     inkscape:groupmode="layer"
     inkscape:label="Raster"
     id="g10"
     style="display:none"
     transform="translate(-9.7998591,18.150755)">
    <image
       xlink:href="nod-0.png"
       y="1.4187281"
       x="234.52992"
       id="image12"
       preserveAspectRatio="none"
       height="250"
       width="250"
       style="fill:url(#linearGradient962);fill-opacity:1" />
  </g>
  <g
     inkscape:groupmode="layer"
     id="layer1"
     inkscape:label="Vectors"
     style="display:inline"
     transform="translate(-9.7998591,18.150755)">
    <g
       inkscape:groupmode="layer"
       id="layer2"
       inkscape:label="Fur"
       style="display:inline">
      <path
         style="display:inline;fill:var(--fur);fill-opacity:1;stroke:#00042a;stroke-width:1.9;stroke-linecap:round;stroke-linejoin:round;stroke-miterlimit:4;stroke-dasharray:none;stroke-opacity:1;paint-order:normal"
         d="m 38.011855,51.690322 c 4.978453,1.67081 9.378083,5.71576 13.691913,8.11284 10.43943,5.80088 19.00505,11.90773 24.11536,23.53199 l -8.57457,-16.02281 c -5.02252,-32.27052 -3.02418,-64.7607894 40.314792,-98.545036 17.38698,10.882812 35.04374,33.6441066 26.44168,72.650896 15.92008,-38.3539394 45.2913,-55.410386 47.92711,-58.682395 24.14158,28.238825 26.81484,59.558835 16.47406,92.746665 4.3745,-3.29415 8.5696,-6.23744 10.47671,-4.70595 -0.0899,23.706092 -3.56603,31.314008 -7.00227,39.111698 2.26108,-2.08486 4.62686,-4.00981 8.71531,-3.30388 -0.66994,1.97343 -2.84557,4.10513 -3.58556,6.08861 -1.56849,4.20417 -1.40954,7.79979 -2.84846,11.2943 -1.84785,4.48761 -5.30308,8.49033 -7.53558,10.02651 1.68445,-0.2527 3.3689,-0.6173 5.05335,-0.10726 -2.78089,4.85818 -5.72144,7.52895 -8.67225,10.05921 l -13.66974,-12.49654 c 3.97184,3.45651 13.03755,11.00053 13.4701,14.13643 1.6516,11.97376 -7.419,26.46257 -27.0746,18.88026 -35.26926,4.84291 -38.95049,-12.99324 -42.0303,-31.26119 l -5.1221,1.256 4.94142,-0.0486 c 2.32454,24.52416 16.46733,34.40792 42.07205,30.09267 l 11.75645,2.85205 c 0,0 9.4459,12.34766 12.20523,19.10696 6.41199,15.70691 11.80161,49.12742 11.80161,49.12742 l -99.97481,-0.3655 C 93.379358,213.57174 83.274508,192.27979 99.891267,158.2029 l 10.424283,1.2702 c -5.49499,-1.67886 -10.29545,-3.2993 -14.573892,-4.87581 -7.54066,-2.77859 -9.93572,-5.28787 -15.17747,-7.87308 -4.32982,-2.13545 -9.03042,-3.02112 -13.82414,-5.15588 -5.06652,-2.25623 -10.23706,-5.76236 -15.18378,-8.0505 2.49359,-2.00505 8.93698,-1.53432 14.96938,-1.32119 -15.39739,-2.08418 -30.447815,-12.48716 -44.726519,-41.393146 4.985412,-1.09065 17.265751,-0.90354 23.038469,4.48505 5.46922,5.105306 7.55944,8.307016 14.76761,14.753766 C 41.024012,94.582244 35.299839,74.614982 38.011855,51.690322 Z"
         id="path837-5"
         sodipodi:nodetypes="cscccccccccssccccsccccccsccccssscccscc" />
      <path
         style="display:inline;opacity:1;fill:var(--fur);fill-opacity:1;stroke:#00042a;stroke-width:1.9;stroke-linecap:round;stroke-linejoin:round;stroke-miterlimit:4;stroke-dasharray:none;stroke-opacity:1;paint-order:normal"
         d="m 15.184587,237.31085 c 0,0 -4.798057,-31.42885 1.159633,-41.78981 6.004068,-10.44162 1.079853,-23.9869 -1.902962,-23.96019 8.268243,4.47629 23.838357,-7.87481 49.981452,24.37703 l -4.528209,-16.85585 c 26.873843,24.86323 34.647796,42.71136 35.858955,58.14907 z"
         id="path841"
         sodipodi:nodetypes="csccccc" />
      <path
         style="display:inline;fill:var(--fur);fill-opacity:1;stroke:#00042a;stroke-width:1.9;stroke-linecap:butt;stroke-linejoin:miter;stroke-miterlimit:4;stroke-dasharray:none;stroke-opacity:1"
         d="m 135.91418,30.169688 c 6.64771,-15.65405 19.38217,-25.4903894 44.97633,-23.0354364 0.71171,2.240022 -6.79509,10.2763544 -16.44175,19.8218824 19.89393,-6.236553 39.99881,-2.509873 47.97632,25.931851 1.55672,5.550092 0.30669,8.691062 1.07002,16.550043 -6.36565,-3.018431 -24.58987,-7.637504 -40.29534,-11.916602 25.6081,12.825511 19.29703,28.296202 13.74215,43.704254 -35.54328,-14.481372 -31.445,-23.999723 -43.29908,-35.515258 l 0.61098,6.580784 -3.62176,-7.219135"
         id="path835-2"
         sodipodi:nodetypes="cccscccccc" />
      <path
         style="display:inline;opacity:1;fill:var(--fur);fill-opacity:1;fill-rule:evenodd;stroke:#000214;stroke-width:3.2;stroke-linecap:round;stroke-linejoin:round;stroke-miterlimit:4;stroke-dasharray:none;stroke-opacity:1"
         d="m 163.26324,173.2258 c 7.93817,0.28602 15.84348,0.78122 24.45481,-3.21695 -3.36733,3.43373 -5.03296,7.09647 -11.04073,10.17484 6.671,2.11446 7.19233,6.2735 8.32484,10.22935"
         id="path1070"
         sodipodi:nodetypes="cccc" />
    </g>
    <g
       inkscape:groupmode="layer"
       id="layer3"
       inkscape:label="Shadow"
       style="display:inline;mix-blend-mode:normal;filter:url(#filter3883)">
      <path
         style="fill:none;stroke:#000000;stroke-width:9.2;stroke-linecap:butt;stroke-linejoin:miter;stroke-miterlimit:4;stroke-dasharray:none;stroke-opacity:0.442893"
         d="m 26.906962,94.711664 c 17.226015,14.505806 16.500795,26.614036 34.632922,38.792046 32.062977,21.53433 84.609236,36.82448 118.015926,33.99841"
         id="path3824"
         sodipodi:nodetypes="csc" />
      <path
         style="display:inline;mix-blend-mode:normal;fill:none;stroke:#000000;stroke-width:9.2;stroke-linecap:butt;stroke-linejoin:miter;stroke-miterlimit:4;stroke-dasharray:none;stroke-opacity:0.700527;filter:url(#filter3883)"
         d="m 42.185077,72.864998 c 3.998866,18.111493 12.593562,35.266252 17.945437,52.024942 4.28044,13.40362 25.650633,23.05519 45.806376,40.97578"
         id="path3824-9"
         sodipodi:nodetypes="csc" />
      <path
         style="display:inline;mix-blend-mode:normal;fill:none;stroke:#000000;stroke-width:9.2;stroke-linecap:butt;stroke-linejoin:miter;stroke-miterlimit:4;stroke-dasharray:none;stroke-opacity:0.442893;filter:url(#filter3883)"
         d="m 97.55164,169.33196 c 22.19559,-4.37141 48.59748,0.99623 82.00417,-1.82984"
         id="path3824-6"
         sodipodi:nodetypes="cc" />
    </g>
    <g
       inkscape:groupmode="layer"
       id="layer5"
       inkscape:label="Highlights"
       style="display:inline">
      <path
         style="display:inline;opacity:1;fill:url(#linearGradient886);fill-opacity:1;stroke:#000214;stroke-width:3.2;stroke-linecap:round;stroke-linejoin:round;stroke-miterlimit:4;stroke-dasharray:none;stroke-opacity:1;paint-order:normal"
         d="m 37.831171,52.897713 c 4.978455,1.670812 9.378081,5.715768 13.691916,8.112842 10.439422,5.800887 19.005045,11.907735 24.115359,23.531994 L 67.063869,68.519739 C 62.041358,36.249219 64.03969,3.7589456 107.37867,-30.025299 c 17.38698,10.882812 35.04374,33.6441096 26.44168,72.650894 15.92008,-38.3539354 45.2913,-55.410383 47.92711,-58.682393 24.14158,28.238821 26.81484,59.558837 16.47406,92.746668 4.3745,-3.294152 8.5696,-6.237446 10.47671,-4.705948 -0.0899,23.706092 -3.56603,31.314008 -7.00227,39.111698 2.26108,-2.08486 4.62686,-4.00981 8.71531,-3.30388 -0.66994,1.97343 -2.84557,4.10513 -3.58556,6.08861 -1.56849,4.20417 -1.40954,7.79979 -2.84846,11.2943 -1.84785,4.48761 -5.30308,8.49033 -7.53558,10.02651 1.68445,-0.2527 3.3689,-0.6173 5.05335,-0.10726 -2.78089,4.85818 -5.72144,7.52895 -8.67225,10.05921 l -13.66974,-12.49654 c 3.97184,3.45651 13.03755,11.00053 13.4701,14.13643 1.6516,11.97376 -7.419,26.46257 -27.0746,18.88026 -35.26926,4.84291 -38.95049,-12.99324 -42.0303,-31.26119 l -5.1221,1.256 4.94142,-0.0486 c 2.32454,24.52416 16.46733,34.40792 42.07205,30.09267 l 11.75645,2.85205 c 0,0 9.4459,12.34766 12.20523,19.10696 6.41199,15.70691 11.80161,49.12742 11.80161,49.12742 l -99.97481,-0.3655 C 93.19867,214.77914 83.093819,193.48718 99.710577,159.41029 l 10.424293,1.2702 c -5.49499,-1.67885 -10.295453,-3.29929 -14.5739,-4.87581 -7.540654,-2.77858 -9.935711,-5.28786 -15.177461,-7.87307 -4.329823,-2.13545 -9.030427,-3.02112 -13.824142,-5.15588 -5.066527,-2.25624 -10.237064,-5.76236 -15.183784,-8.0505 2.493591,-2.00505 8.936978,-1.53432 14.969383,-1.32119 -15.397389,-2.08418 -30.447817,-12.48716 -44.726521,-41.393156 4.985412,-1.09064 17.265751,-0.90353 23.038466,4.48506 5.469223,5.105296 7.559439,8.307016 14.76761,14.753766 C 40.843328,95.789634 35.119155,75.822374 37.831171,52.897713 Z"
         id="path837"
         sodipodi:nodetypes="cscccccccccssccccsccccccsccccssscccscc" />
      <path
         style="display:inline;fill:none;stroke:#000000;stroke-width:1px;stroke-linecap:round;stroke-linejoin:miter;stroke-opacity:1"
         d="m 182.02828,-0.85594336 c 7.84114,26.80395936 6.11668,42.05333936 5.38096,58.49704036 11.55875,16.521307 8.76043,23.476829 9.75357,32.958527"
         id="path878"
         sodipodi:nodetypes="ccc" />
      <path
         style="display:inline;opacity:1;fill:#010101;fill-opacity:1;stroke:#000000;stroke-width:1px;stroke-linecap:butt;stroke-linejoin:miter;stroke-opacity:1"
         d="m 156.56839,145.05765 c -2.46939,-5.73324 32.92712,-4.70567 29.10074,-0.43296 -3.17592,3.54638 -9.92061,9.91964 -11.21327,9.96815 l -3.71302,0.13934 c -1.74221,0.0654 -9.89714,-6.34169 -14.17445,-9.67453 z"
         id="path839"
         sodipodi:nodetypes="csssc" />
      <path
         style="display:inline;fill:none;stroke:#000000;stroke-width:1px;stroke-linecap:butt;stroke-linejoin:miter;stroke-opacity:1"
         d="m 168.95148,113.63915 c 0,0 -1.60158,-22.624386 2.05095,-28.363171"
         id="path862" />
      <path
         style="display:inline;fill:url(#radialGradient1029);fill-opacity:1;stroke:none;stroke-width:1px;stroke-linecap:butt;stroke-linejoin:miter;stroke-opacity:1"
         d="m 97.559304,100.60542 17.077026,10.67774 24.10197,3.88462 0.0622,-12.20771 -1.45905,-10.365966 -22.85713,-4.33484 z"
         id="path126" />
      <g
         id="g858"
         style="display:inline"
         transform="translate(2.0319161,-14.031917)">
        <path
           style="fill:#000000;fill-opacity:1;stroke:none;stroke-width:1px;stroke-linecap:butt;stroke-linejoin:miter;stroke-opacity:1"
           d="m 92.035938,113.62954 c 0,0 3.776311,-1.47038 9.321802,3.36927 5.54549,4.83965 15.36587,7.55309 24.0809,9.55758 3.51462,0.80837 10.7015,-0.39883 11.56013,1.27015 1.31764,2.56118 -3.13333,5.6423 -17.45675,1.71255 -14.32343,-3.92976 -27.506082,-15.90955 -27.506082,-15.90955 z"
           id="path846"
           sodipodi:nodetypes="czsssc" />
        <path
           style="fill:none;fill-opacity:1;fill-rule:nonzero;stroke:#000000;stroke-width:1px;stroke-linecap:butt;stroke-linejoin:miter;stroke-opacity:1"
           d="m 129.87082,93.160103 c 0,0 8.26705,10.795357 6.83558,36.039577"
           id="path848" />
      </g>
      <path
         style="display:inline;fill:url(#radialGradient1311);fill-opacity:1;stroke:none;stroke-width:1px;stroke-linecap:butt;stroke-linejoin:miter;stroke-opacity:1"
         d="m 168.95148,113.63915 -0.39224,-10.48603 9.53279,-4.588696 9.49328,5.438416 1.57079,6.76662 -5.95889,7.124 -14.24573,-4.25431"
         id="path1295" />
      <path
         style="display:inline;fill:#000000;fill-opacity:1;stroke:none;stroke-width:1px;stroke-linecap:butt;stroke-linejoin:miter;stroke-opacity:1"
         d="m 191.75637,109.37451 c 0,0 -2.78113,-1.13391 -4.12167,0.9513 -1.34054,2.08522 -4.78506,5.95321 -8.65861,5.29821 -1.45257,-0.24562 -2.89352,-0.2771 -4.27224,-0.63912 -2.38529,-0.62631 -4.49848,-1.69818 -5.64719,-2.20916 -1.01697,-0.45238 -2.29836,1.72496 0.16728,3.33496 4.03305,2.63347 11.10672,5.15073 14.78926,3.21909 4.00051,-2.09842 7.74317,-9.95528 7.74317,-9.95528 z"
         id="path860"
         sodipodi:nodetypes="cssssssc" />
      <path
         style="display:inline;fill:none;stroke:#000000;stroke-width:1px;stroke-linecap:butt;stroke-linejoin:miter;stroke-opacity:0.613239"
         d="m 115.68649,76.711439 c 0.41999,-0.29273 6.06578,-5.071999 10.99692,-4.384399 -3.61079,0.06516 -5.97502,0.688428 -5.30464,1.058634 l 3.44774,1.682599"
         id="path864"
         sodipodi:nodetypes="cccc" />
      <ellipse
         style="display:inline;fill:url(#radialGradient874);fill-opacity:1;fill-rule:evenodd"
         id="path866"
         cx="198.06439"
         cy="116.14876"
         rx="5.9953556"
         ry="2.285718"
         transform="rotate(8.5707139)" />
      <path
         style="display:inline;opacity:1;fill:url(#radialGradient949);fill-opacity:1;stroke:#00042a;stroke-width:1.9;stroke-linecap:butt;stroke-linejoin:miter;stroke-miterlimit:4;stroke-dasharray:none;stroke-opacity:1"
         d="m 134.00103,41.418202 c 0.83388,-10.270096 1.79781,-14.477323 6.22705,-20.055463 8.19484,-10.320483 24.04815,-15.8221034 40.66243,-14.2284874 0.71171,2.240022 -6.79509,10.2763544 -16.44175,19.8218824 19.89393,-6.236553 39.99881,-2.509873 47.97632,25.931851 1.55672,5.550092 0.30669,8.691062 1.07002,16.550043 -6.36565,-3.018431 -24.58987,-7.637504 -40.29534,-11.916602 25.6081,12.825511 19.29703,28.296206 13.74215,43.704254 -35.54328,-14.481372 -31.445,-23.999723 -43.29908,-35.515258 l 0.61098,6.580784 -3.62176,-7.219135"
         id="path835"
         sodipodi:nodetypes="csccscccccc" />
      <path
         style="display:inline;fill:#f2849a;fill-opacity:1;stroke:#000000;stroke-width:2.1;stroke-linecap:round;stroke-linejoin:round;stroke-miterlimit:4;stroke-dasharray:none;stroke-opacity:1"
         d="M 67.586751,70.27682 C 79.223826,56.874713 92.373367,41.926823 110.08884,40.370606 l -4.32447,-0.355417 c 0.73845,-20.960587 -3.67074,-33.2662334 3.37443,-52.886687 -2.63545,5.5486776 -5.6411,13.26916164 -7.56468,21.6484896 C 100.18497,14.828316 99.820247,20.855464 98.379318,28.404973 97.44116,33.320306 94.85127,39.628057 93.99551,45.174738 82.458296,51.412115 74.873107,61.409237 67.586751,70.27682 Z"
         id="path843"
         sodipodi:nodetypes="ccccsscc" />
      <path
         style="display:inline;fill:var(--highlight);fill-opacity:1;stroke:#000000;stroke-width:1px;stroke-linecap:butt;stroke-linejoin:miter;stroke-opacity:1"
         d="m 103.33206,68.494673 c 0,0 14.83623,-2.303272 19.3364,-0.73331 5.27713,1.841019 7.75775,0.801426 6.79135,-6.52424 -0.96641,-7.325666 -13.63031,-6.301824 -16.33092,-5.868498 -2.96361,0.475526 -8.9457,2.068136 -12.18699,7.85551 -3.241284,5.787375 2.39016,5.270538 2.39016,5.270538 z"
         id="path876"
         sodipodi:nodetypes="cssssc" />
      <path
         style="display:inline;fill:url(#radialGradient7951);fill-opacity:1;stroke:#00042a;stroke-width:3;stroke-linecap:round;stroke-linejoin:round;stroke-miterlimit:4;stroke-dasharray:none;stroke-opacity:1;paint-order:normal"
         d="m 15.184587,237.31085 c 0,0 -4.798057,-31.42885 1.159633,-41.78981 6.004068,-10.44162 1.079853,-23.9869 -1.902962,-23.96019 8.268243,4.47629 23.838357,-7.87481 49.981452,24.37703 l -4.528209,-16.85585 c 26.87384,24.86323 34.6478,42.71136 35.85896,58.14907 z"
         id="path841-2"
         sodipodi:nodetypes="csccccc" />
      <path
         style="display:inline;fill:url(#radialGradient7951-5);fill-opacity:1;stroke:none;stroke-width:1.9;stroke-linecap:round;stroke-linejoin:round;stroke-miterlimit:4;stroke-dasharray:none;stroke-opacity:1;paint-order:normal"
         d="m 69.997535,236.68824 -1.981483,-13.88337 c 0.197209,-10.21506 -6.558701,-14.29546 -3.593342,-26.86699 l -4.528209,-16.85585 c 26.873838,24.86323 34.647798,42.71136 35.858958,58.14907 z"
         id="path841-2-9"
         sodipodi:nodetypes="cccccc" />
    </g>
    <g
       inkscape:groupmode="layer"
       id="layer4"
       inkscape:label="Arms"
       style="display:inline">
      <path
         style="display:inline;fill:var(--fur);fill-opacity:1;stroke:#00042a;stroke-width:2.8;stroke-linecap:round;stroke-linejoin:round;stroke-miterlimit:4;stroke-dasharray:none;stroke-opacity:1"
         d="m 161.79601,236.66301 44.71265,0.41706 c 11.80825,-9.30497 4.25104,-14.90947 -1.53039,-21.51037 -12.92972,-7.63606 -26.90555,-15.79167 -29.23103,-18.16115 0,0 -8.99953,9.1383 -10.79145,9.48898 z"
         id="path840-0" />
      <path
         style="display:inline;opacity:1;fill:url(#linearGradient998);fill-opacity:1;stroke:#00042a;stroke-width:2.8;stroke-linecap:round;stroke-linejoin:round;stroke-miterlimit:4;stroke-dasharray:none;stroke-opacity:1"
         d="m 161.79601,236.66301 44.71265,0.41706 c 11.80825,-9.30497 4.25104,-14.90947 -1.53039,-21.51037 -12.92972,-7.63606 -26.90555,-15.79167 -29.23103,-18.16115 0,0 -8.99953,9.1383 -10.79145,9.48898 z"
         id="path840" />
      <path
         style="display:inline;fill:var(--fur);fill-opacity:1;stroke:#00042a;stroke-width:2.8;stroke-linecap:round;stroke-linejoin:round;stroke-miterlimit:4;stroke-dasharray:none;stroke-opacity:1"
         d="m 107.35759,183.08929 c 7.55985,-3.36924 15.6992,-2.69992 29.59784,29.86318 5.32152,-1.83134 13.48528,-2.19735 18.02359,-7.19678 12.90565,-14.21694 29.25173,-26.88672 44.00188,-6.25347 4.74298,2.6109 6.46577,6.80823 5.99736,16.06748 l -5.7597,-2.21992 0.52579,-5.48159 -1.17465,5.12531 c -3.06773,4.60509 -7.87579,5.58401 -11.87928,6.2201 -1.99587,5.78354 -6.02992,11.83989 -11.44091,18.08054 l -62.81856,0.45189 c -6.79168,-7.28739 -10.44304,-12.5394 -13.515368,-24.62548"
         id="path838-9"
         sodipodi:nodetypes="ccsccccccccc" />
      <path
         style="display:inline;opacity:1;fill:url(#linearGradient1000);fill-opacity:1;stroke:#00042a;stroke-width:2.8;stroke-linecap:round;stroke-linejoin:round;stroke-miterlimit:4;stroke-dasharray:none;stroke-opacity:1"
         d="m 107.35758,183.08929 c 7.55985,-3.36924 15.6992,-2.69992 29.59784,29.86318 5.32153,-1.83134 13.48529,-2.19735 18.0236,-7.19678 12.90565,-14.21694 29.25173,-26.88672 44.00188,-6.25347 4.74298,2.6109 6.46577,6.80823 5.99736,16.06748 l -5.7597,-2.21992 0.52579,-5.48159 -1.17465,5.12531 c -3.06773,4.60509 -7.87579,5.58401 -11.87928,6.2201 -1.99587,5.78354 -6.02992,11.83989 -11.44091,18.08054 l -62.81857,0.45189 c -6.79168,-7.28739 -10.44304,-12.5394 -13.515364,-24.62548"
         id="path838"
         sodipodi:nodetypes="ccsccccccccc" />
      <path
         style="display:inline;opacity:1;fill:var(--highlight);fill-opacity:1;stroke:#00042a;stroke-width:2.8;stroke-linecap:round;stroke-linejoin:round;stroke-miterlimit:4;stroke-dasharray:none;stroke-opacity:1"
         d="m 145.76312,197.44061 c -5.8276,-0.60717 -13.48877,-0.14592 -21.25078,8.35916 -19.4801,21.34496 -8.45594,25.03879 -6.71171,26.43387 1.14053,0.91223 6.23943,2.61324 6.15939,-6.09342 0.2013,-3.93981 1.53308,-4.3184 2.53906,-6.99501 -0.98993,2.02559 -1.69531,2.86125 -2.53995,5.65405 0.48017,5.37187 -0.29721,9.73051 6.36445,12.28282 4.24533,1.62653 7.93038,-1.93314 10.96609,-5.9044 -0.84946,-3.2672 0.0123,-6.29131 0.37443,-9.75367 -0.27744,3.17837 -0.64206,6.31513 -0.37443,9.75367 4.94886,3.49703 11.77843,4.25669 12.97229,-3.93336 0.36221,-2.48481 0.0792,-6.10443 -1.19607,-10.10227 l 4.64753,-15.90208 c -0.0943,0.16323 -4.87078,-3.06176 -11.9503,-3.79936 z"
         id="path844"
         sodipodi:nodetypes="ssscccscccsccs" />
    </g>
    <g
       inkscape:groupmode="layer"
       id="layer6"
       inkscape:label="Teeth"
       style="display:inline">
      <path
         style="display:inline;fill:#ffffff;fill-opacity:1;stroke:#000000;stroke-width:1px;stroke-linecap:butt;stroke-linejoin:miter;stroke-opacity:1"
         d="m 143.50174,165.2177 c 1.16939,2.68675 2.02132,5.5488 4.46846,7.52997 3.23265,-0.61998 4.51392,-3.46653 5.60804,-6.52664 -5.15167,0.63338 -7.18285,-0.41777 -10.0765,-1.00333 z"
         id="path1812"
         sodipodi:nodetypes="cccc" />
      <path
         style="display:inline;fill:#ffffff;fill-opacity:1;stroke:#000000;stroke-width:1px;stroke-linecap:butt;stroke-linejoin:miter;stroke-opacity:1"
         d="m 173.15312,166.40237 c 0.11782,1.97458 -0.48514,4.10396 1.74157,5.62565 2.1702,0.0354 3.72736,-1.46462 4.66112,-4.5259 -4.3371,0.41997 -4.97731,-0.48006 -6.40269,-1.09975 z"
         id="path2089"
         sodipodi:nodetypes="cccc" />
    </g>
  </g>
</svg>
