<?xml version="1.0" encoding="UTF-8" standalone="no"?>
<svg
   version="1.1"
   id="svg2"
   width="100%"
   height="100%"
   viewBox="0 0 225 255"
   sodipodi:docname="nod-2.svg"
   inkscape:version="1.1 (c4e8f9e, 2021-05-24)"
   xmlns:inkscape="http://www.inkscape.org/namespaces/inkscape"
   xmlns:sodipodi="http://sodipodi.sourceforge.net/DTD/sodipodi-0.dtd"
   xmlns:xlink="http://www.w3.org/1999/xlink"
   xmlns="http://www.w3.org/2000/svg"
   xmlns:svg="http://www.w3.org/2000/svg"
   xmlns:rdf="http://www.w3.org/1999/02/22-rdf-syntax-ns#"
   xmlns:cc="http://creativecommons.org/ns#"
   xmlns:dc="http://purl.org/dc/elements/1.1/">
  <metadata
     id="metadata8">
    <rdf:RDF>
      <cc:Work
         rdf:about="">
        <dc:format>image/svg+xml</dc:format>
        <dc:type
           rdf:resource="http://purl.org/dc/dcmitype/StillImage" />
      </cc:Work>
    </rdf:RDF>
  </metadata>
  <defs
     id="defs6">
   <style>
      * {
         --fur: lightgreen;
         --highlight: lightblue;
      }
   </style>

    <linearGradient
       inkscape:collect="always"
       id="linearGradient28529">
      <stop
         style="stop-color:var(--fur);stop-opacity:0"
         offset="0"
         id="stop28525" />
      <stop
         style="stop-color:var(--highlight);stop-opacity:1"
         offset="0.26811692"
         id="stop28832" />
      <stop
         style="stop-color:var(--highlight);stop-opacity:1"
         offset="0.48064709"
         id="stop28898" />
      <stop
         style="stop-color:var(--fur);stop-opacity:0;"
         offset="1"
         id="stop28527" />
    </linearGradient>
    <linearGradient
       inkscape:collect="always"
       id="linearGradient1634">
      <stop
         style="stop-color:var(--highlight);stop-opacity:0"
         offset="0"
         id="stop1630" />
      <stop
         style="stop-color:var(--highlight);stop-opacity:0.42745098"
         offset="0.68317997"
         id="stop2698" />
      <stop
         style="stop-color:var(--highlight);stop-opacity:0.61960787"
         offset="0.84216565"
         id="stop2504" />
      <stop
         style="stop-color:var(--highlight);stop-opacity:0.00009303"
         offset="1"
         id="stop1632" />
    </linearGradient>
    <linearGradient
       inkscape:collect="always"
       id="linearGradient13469">
      <stop
         style="stop-color:var(--highlight);stop-opacity:0"
         offset="0"
         id="stop13461" />
      <stop
         style="stop-color:var(--highlight);stop-opacity:0"
         offset="1"
         id="stop13467" />
    </linearGradient>
    <linearGradient
       inkscape:collect="always"
       id="linearGradient7890">
      <stop
         style="stop-color:var(--fur);stop-opacity:1;"
         offset="0"
         id="stop7886" />
      <stop
         style="stop-color:var(--fur);stop-opacity:1"
         offset="0.63920808"
         id="stop8606" />
      <stop
         style="stop-color:var(--highlight);stop-opacity:1;"
         offset="0.72551292"
         id="stop8081" />
      <stop
         style="stop-color:var(--highlight);stop-opacity:1"
         offset="1"
         id="stop7888" />
    </linearGradient>
    <linearGradient
       inkscape:collect="always"
       id="linearGradient1309">
      <stop
         style="stop-color:var(--highlight);stop-opacity:1;"
         offset="0"
         id="stop1305" />
      <stop
         style="stop-color:var(--highlight);stop-opacity:0"
         offset="1"
         id="stop1307" />
    </linearGradient>
    <linearGradient
       inkscape:collect="always"
       id="linearGradient996">
      <stop
         style="stop-color:var(--highlight);stop-opacity:0"
         offset="0"
         id="stop992" />
      <stop
         style="stop-color:var(--highlight);stop-opacity:1"
         offset="1"
         id="stop994" />
    </linearGradient>
    <linearGradient
       inkscape:collect="always"
       id="linearGradient988">
      <stop
         style="stop-color:var(--highlight);stop-opacity:0"
         offset="0"
         id="stop984" />
      <stop
         style="stop-color:var(--highlight);stop-opacity:1"
         offset="1"
         id="stop986" />
    </linearGradient>
    <linearGradient
       inkscape:collect="always"
       id="linearGradient947">
      <stop
         style="stop-color:var(--fur);stop-opacity:1"
         offset="0"
         id="stop943" />
      <stop
         style="stop-color:var(--fur);stop-opacity:1"
         offset="0.55466068"
         id="stop951" />
      <stop
         style="stop-color:var(--highlight);stop-opacity:1"
         offset="1"
         id="stop945" />
    </linearGradient>
    <linearGradient
       inkscape:collect="always"
       id="linearGradient872">
      <stop
         style="stop-color:#ffffff;stop-opacity:1"
         offset="0"
         id="stop868" />
      <stop
         style="stop-color:#ffffff;stop-opacity:0"
         offset="1"
         id="stop870" />
    </linearGradient>
    <clipPath
       clipPathUnits="userSpaceOnUse"
       id="clipPath3691">
      <ellipse
         style="display:inline;mix-blend-mode:normal;fill:url(#radialGradient3695);fill-opacity:1;fill-rule:evenodd;stroke:url(#radialGradient3697)"
         id="ellipse3693"
         cx="162.73845"
         cy="114.78575"
         rx="126.29764"
         ry="57.450905"
         transform="rotate(8.821155)" />
    </clipPath>
    <radialGradient
       inkscape:collect="always"
       xlink:href="#linearGradient1634"
       id="radialGradient3695"
       gradientUnits="userSpaceOnUse"
       gradientTransform="matrix(-0.99873729,-0.05024203,0.02235809,-0.44444574,563.55509,168.71696)"
       cx="403.01996"
       cy="75.785759"
       fx="403.01996"
       fy="75.785759"
       r="126.79764" />
    <radialGradient
       inkscape:collect="always"
       xlink:href="#linearGradient13469"
       id="radialGradient3697"
       gradientUnits="userSpaceOnUse"
       gradientTransform="matrix(0.68761455,0.08137128,-0.04395384,0.37142467,-111.06258,53.735374)"
       cx="403.15192"
       cy="74.627159"
       fx="403.15192"
       fy="74.627159"
       r="126.29764" />
    <filter
       inkscape:collect="always"
       style="color-interpolation-filters:sRGB"
       id="filter3883"
       x="-0.31413139"
       y="-1.8346554"
       width="1.6225749"
       height="4.4899927">
      <feGaussianBlur
         inkscape:collect="always"
         stdDeviation="7.1669447"
         id="feGaussianBlur3885" />
    </filter>
    <radialGradient
       inkscape:collect="always"
       xlink:href="#linearGradient7890"
       id="radialGradient7951-6"
       gradientUnits="userSpaceOnUse"
       gradientTransform="matrix(1.1692381,-0.03107664,0.08149213,1.5793438,-40.217213,-152.86081)"
       cx="36.292835"
       cy="261.21844"
       fx="36.292835"
       fy="261.21844"
       r="42.155766" />
    <radialGradient
       inkscape:collect="always"
       xlink:href="#linearGradient7890"
       id="radialGradient7951-5-6"
       gradientUnits="userSpaceOnUse"
       gradientTransform="matrix(0.42754834,-0.10753349,0.39890089,0.81695582,-67.597163,49.330213)"
       cx="84.676933"
       cy="259.01511"
       fx="84.676933"
       fy="259.01511"
       r="42.155766" />
    <radialGradient
       inkscape:collect="always"
       xlink:href="#linearGradient872"
       id="radialGradient874-9"
       cx="176.12189"
       cy="158.74297"
       fx="176.12189"
       fy="158.74297"
       r="5.9953556"
       gradientTransform="matrix(0.96556265,0,0,0.30692029,29.757151,70.301087)"
       gradientUnits="userSpaceOnUse" />
    <linearGradient
       inkscape:collect="always"
       xlink:href="#linearGradient996"
       id="linearGradient8438"
       gradientUnits="userSpaceOnUse"
       x1="197.70583"
       y1="239.41364"
       x2="208.99565"
       y2="242.7751"
       gradientTransform="translate(-2.7767973,-0.3151171)" />
    <linearGradient
       inkscape:collect="always"
       xlink:href="#linearGradient988"
       id="linearGradient8440"
       gradientUnits="userSpaceOnUse"
       gradientTransform="translate(-2.7768073,-0.3151171)"
       x1="165.58914"
       y1="233.59515"
       x2="198.72447"
       y2="207.95457" />
    <radialGradient
       inkscape:collect="always"
       xlink:href="#linearGradient947"
       id="radialGradient949-7"
       cx="134.05536"
       cy="67.378983"
       fx="134.05536"
       fy="67.378983"
       r="39.781471"
       gradientTransform="matrix(2.1398096,1.084142,-0.49771467,0.98235713,-155.74907,-154.79119)"
       gradientUnits="userSpaceOnUse" />
    <radialGradient
       inkscape:collect="always"
       xlink:href="#linearGradient1309"
       id="radialGradient1029-7"
       cx="126.12256"
       cy="126.96149"
       fx="126.12256"
       fy="126.96149"
       r="21.316759"
       gradientTransform="matrix(0.20403699,-0.79734559,1.3439998,0.34392324,168.71423,175.96733)"
       gradientUnits="userSpaceOnUse" />
    <radialGradient
       inkscape:collect="always"
       xlink:href="#linearGradient1309"
       id="radialGradient1311-3"
       cx="176.28935"
       cy="130.60057"
       fx="176.28935"
       fy="130.60057"
       r="10.826073"
       gradientTransform="matrix(0.98009093,-0.77790411,0.83960816,1.0578326,153.94986,123.50536)"
       gradientUnits="userSpaceOnUse" />
    <filter
       inkscape:collect="always"
       style="color-interpolation-filters:sRGB"
       id="filter3883-3"
       x="-0.20531302"
       y="-1.7958771"
       width="1.4049382"
       height="4.5859564">
      <feGaussianBlur
         inkscape:collect="always"
         stdDeviation="7.1669447"
         id="feGaussianBlur3885-6" />
    </filter>
    <linearGradient
       inkscape:collect="always"
       xlink:href="#linearGradient28529"
       id="linearGradient68548"
       x1="269.49612"
       y1="34.63485"
       x2="319.56256"
       y2="77.161423"
       gradientUnits="userSpaceOnUse"
       gradientTransform="translate(-234.29747,-5.9914815)" />
    <linearGradient
       inkscape:collect="always"
       xlink:href="#linearGradient28529"
       id="linearGradient69724"
       gradientUnits="userSpaceOnUse"
       gradientTransform="translate(-234.29746,-5.9914815)"
       x1="384.49344"
       y1="16.128229"
       x2="375.12109"
       y2="80.121254" />
  </defs>
  <sodipodi:namedview
     pagecolor="#ffffff"
     bordercolor="#666666"
     borderopacity="1"
     objecttolerance="10"
     gridtolerance="10"
     guidetolerance="10"
     inkscape:pageopacity="0"
     inkscape:pageshadow="2"
     inkscape:window-width="1675"
     inkscape:window-height="1095"
     id="namedview4"
     showgrid="false"
     inkscape:zoom="2.088"
     inkscape:cx="91.235632"
     inkscape:cy="133.38123"
     inkscape:window-x="882"
     inkscape:window-y="154"
     inkscape:window-maximized="0"
     inkscape:current-layer="layer5"
     inkscape:document-rotation="0"
     inkscape:pagecheckerboard="0"
     fit-margin-top="0"
     fit-margin-left="0"
     fit-margin-right="0"
     fit-margin-bottom="0" />
  <g
     inkscape:groupmode="layer"
     inkscape:label="Raster"
     id="g10"
     style="display:none;opacity:1"
     transform="translate(0.10337507,4.4516737)"
     sodipodi:insensitive="true">
    <image
       width="250"
       height="250"
       preserveAspectRatio="none"
       xlink:href="nod-2.png"
       id="image50171"
       x="230.91385"
       y="7.0997114"
       style="display:inline;opacity:1" />
  </g>
  <g
     inkscape:groupmode="layer"
     id="layer1"
     inkscape:label="Vectors"
     style="display:inline"
     transform="translate(0.10337507,4.4516737)">
    <g
       inkscape:groupmode="layer"
       id="layer2"
       inkscape:label="Fur"
       style="display:inline;opacity:1">
      <path
         id="path1784-1"
         style="display:inline;fill:var(--fur);fill-opacity:1;stroke:#000427;stroke-width:2.8;stroke-linecap:butt;stroke-linejoin:miter;stroke-miterlimit:4;stroke-dasharray:none;stroke-opacity:1"
         d="m 162.79128,183.13673 c 6.36188,-2.33147 31.5341,-15.22099 40.38087,-26.88787 11.26784,-22.28752 4.32891,-32.93717 -3.85692,-46.39072 -1.72791,-2.83987 -3.9881,-15.053876 -8.10428,-21.272331 C 204.77287,41.175572 147.29344,-2.2149744 139.76391,-6.5081074 117.35519,7.6869224 129.21528,54.189458 123.84997,59.301147 120.00407,51.550706 113.02133,62.841903 106.4845,56.761633 79.869962,32.005967 35.988922,21.425401 15.858462,27.723113 c -1.25716,59.282961 25.37611,74.082257 44.90413,92.513857 2.87635,-17.56951 6.5756,-40.074807 24.5025,-49.067032 -11.83189,7.655558 -17.71206,17.66343 -26.15953,52.805672 8.60171,0.51418 16.4489,3.53892 24.4498,7.51793 -35.37549,-16.79718 -36.87667,-1.17162 -50.6479,0.88826 -0.15151,0.17111 2.81436,5.30684 9.03515,11.26868 7.45141,7.14124 12.77841,13.32384 41.46179,14.0049 -31.54975,-3.43274 -34.34521,-1.52427 -43.64838,10.64238 4.78724,4.22363 20.48228,13.25554 42.52355,4.86387 -1.56911,-0.92263 -10.13532,7.44339 -10.16407,12.28188 13.54159,-1.17243 23.444934,0.9522 35.056128,-3.11136 l -17.683214,3.49818 c -2.918264,4.91966 -6.357564,33.90619 4.21962,63.37296 l 99.974814,0.3655 c 0,0 -5.11943,-27.36595 -10.07321,-43.59188 -3.95565,-12.95659 -15.96766,-24.26902 -15.96766,-24.26902 z"
         sodipodi:nodetypes="ccscccsccccccsccccccccscc" />
      <path
         style="display:inline;fill:var(--fur);fill-opacity:1;fill-rule:evenodd;stroke:#000214;stroke-width:3.2;stroke-linecap:round;stroke-linejoin:round;stroke-miterlimit:4;stroke-dasharray:none;stroke-opacity:1"
         d="m 158.91696,189.81294 c 7.93817,0.28602 15.84348,0.78122 24.45481,-3.21695 -3.36733,3.43373 -5.03296,7.09647 -11.04073,10.17484 6.671,2.11446 7.19233,6.2735 8.32484,10.22935"
         id="path1070-3"
         sodipodi:nodetypes="cccc" />
    </g>
    <g
       inkscape:groupmode="layer"
       id="layer8"
       inkscape:label="Occulded Tooth"
       transform="translate(9.7998591,-18.150755)">
      <path
         style="display:inline;fill:#ffffff;fill-opacity:1;stroke:#000000;stroke-width:1px;stroke-linecap:butt;stroke-linejoin:miter;stroke-opacity:1"
         d="m 198.73661,156.80467 c 0.47719,1.91967 0.2741,4.12343 2.74169,5.21192 2.14002,-0.36236 3.39637,-2.12201 3.75413,-5.30248 -4.187,1.2066 -4.98111,0.43893 -6.49582,0.0906 z"
         id="path2089-0"
         sodipodi:nodetypes="cccc" />
    </g>
    <g
       inkscape:groupmode="layer"
       id="layer3"
       inkscape:label="Shadow"
       style="display:inline;mix-blend-mode:normal;filter:url(#filter3883)">
      <path
         style="display:inline;mix-blend-mode:normal;fill:none;stroke:#000000;stroke-width:9.2;stroke-linecap:butt;stroke-linejoin:miter;stroke-miterlimit:4;stroke-dasharray:none;stroke-opacity:0.442893;filter:url(#filter3883-3)"
         d="m 51.500006,142.17282 c 17.22602,14.5058 47.99108,27.93022 68.293764,34.20522 33.48583,10.34957 52.42465,8.44608 89.77392,-12.70229"
         id="path3824-1"
         sodipodi:nodetypes="csc" />
      <path
         style="display:inline;mix-blend-mode:normal;fill:none;stroke:#000000;stroke-width:9.2;stroke-linecap:butt;stroke-linejoin:miter;stroke-miterlimit:4;stroke-dasharray:none;stroke-opacity:0.442893;filter:url(#filter3883-3)"
         d="M 90.091386,191.00827 C 112.287,186.63686 144.79191,181.70417 178.1986,178.8781"
         id="path3824-6-0"
         sodipodi:nodetypes="cc" />
    </g>
    <g
       inkscape:groupmode="layer"
       id="layer5"
       inkscape:label="Highlights"
       style="display:inline;opacity:1">
      <path
         id="path1784-1-5-6"
         style="display:inline;opacity:0.595343;fill:url(#linearGradient69724);fill-opacity:1;stroke:var(--fur);stroke-width:2.8;stroke-linecap:butt;stroke-linejoin:miter;stroke-miterlimit:4;stroke-dasharray:none;stroke-opacity:0"
         d="m 162.79128,183.13673 c 6.36188,-2.33147 31.5341,-15.22099 40.38087,-26.88787 11.26784,-22.28752 4.32891,-32.93717 -3.85692,-46.39072 -1.72791,-2.83987 -3.9881,-15.053876 -8.10428,-21.272333 C 204.77287,41.175567 147.29344,-2.2149805 139.76391,-6.5081125 117.35519,7.6869164 129.21528,54.189457 123.84997,59.301137 l 69.83288,190.267653 c 0,0 -5.11943,-27.36595 -10.07321,-43.59188 -3.95565,-12.95659 -15.96766,-24.26902 -15.96766,-24.26902 z"
         sodipodi:nodetypes="ccsccccscc" />
      <path
         id="path1784-1-5"
         style="display:inline;opacity:0.595343;fill:url(#linearGradient68548);fill-opacity:1;stroke:#000427;stroke-width:2.8;stroke-linecap:butt;stroke-linejoin:miter;stroke-miterlimit:4;stroke-dasharray:none;stroke-opacity:1"
         d="m 162.79128,183.13673 c 6.36188,-2.33147 31.5341,-15.22099 40.38087,-26.88787 11.26784,-22.28752 4.32891,-32.93717 -3.85692,-46.39072 -1.72791,-2.83987 -3.9881,-15.053876 -8.10428,-21.272336 C 204.77287,41.175567 147.29344,-2.214979 139.76391,-6.508112 117.35519,7.6869174 129.21528,54.189453 123.84997,59.301142 120.00407,51.550701 113.02133,62.841898 106.4845,56.761628 79.869962,32.005962 35.988922,21.425396 15.858462,27.723108 c -1.25716,59.282961 25.37611,74.082262 44.90413,92.513862 2.87635,-17.56951 6.5756,-40.074812 24.5025,-49.067037 -11.83189,7.655558 -17.71206,17.66343 -26.15953,52.805677 8.60171,0.51418 16.4489,3.53892 24.4498,7.51793 -35.37549,-16.79718 -36.87667,-1.17162 -50.6479,0.88826 -0.15151,0.17111 2.81436,5.30684 9.03515,11.26868 7.45141,7.14124 12.77841,13.32384 41.46179,14.0049 -31.54975,-3.43274 -34.34521,-1.52427 -43.64838,10.64238 4.78724,4.22363 20.48228,13.25554 42.52355,4.86387 -1.56911,-0.92263 -10.13532,7.44339 -10.16407,12.28188 13.54159,-1.17243 23.444934,0.9522 35.056128,-3.11136 l -17.683214,3.49818 c -2.918264,4.91966 -6.357564,33.90619 4.21962,63.37296 l 99.974814,0.3655 c 0,0 -5.11943,-27.36595 -10.07321,-43.59188 -3.95565,-12.95659 -15.96766,-24.26902 -15.96766,-24.26902 z"
         sodipodi:nodetypes="ccscccsccccccsccccccccscc" />
      <g
         id="g16077"
         transform="matrix(0.74137327,-0.48609236,0.4838503,0.75493294,-178.1817,202.75425)">
        <path
           style="display:inline;fill:url(#radialGradient1029-7);fill-opacity:1;stroke:none;stroke-width:1px;stroke-linecap:butt;stroke-linejoin:miter;stroke-opacity:1"
           d="m 334.48895,110.57827 17.07704,10.67774 24.10197,3.88462 0.0622,-12.20771 -1.45905,-10.36596 -22.85713,-4.33484 z"
           id="path126-1" />
        <path
           style="display:inline;fill:#000000;fill-opacity:1;stroke:none;stroke-width:1px;stroke-linecap:butt;stroke-linejoin:miter;stroke-opacity:1"
           d="m 330.9975,109.57049 c 0,0 3.77631,-1.47038 9.3218,3.36927 5.54549,4.83965 15.36587,7.55309 24.0809,9.55758 3.51462,0.80837 10.7015,-0.39883 11.56013,1.27015 1.31764,2.56118 -3.13333,5.6423 -17.45675,1.71255 -14.32343,-3.92976 -27.50608,-15.90955 -27.50608,-15.90955 z"
           id="path846-2"
           sodipodi:nodetypes="czsssc" />
        <path
           style="display:inline;fill:none;fill-opacity:1;fill-rule:nonzero;stroke:#000000;stroke-width:1px;stroke-linecap:butt;stroke-linejoin:miter;stroke-opacity:1"
           d="m 375.62075,88.694817 c 0.55407,0.808749 4.34539,15.385963 0.0472,36.445813"
           id="path848-9"
           sodipodi:nodetypes="cc" />
      </g>
      <g
         id="g16138"
         transform="matrix(-0.71982355,0.2873501,0.31713644,0.79443954,466.20718,-114.15422)">
        <path
           style="display:inline;fill:none;stroke:#000000;stroke-width:1px;stroke-linecap:butt;stroke-linejoin:miter;stroke-opacity:1"
           d="m 426.45901,124.39046 c -1.09899,-7.23654 0.86877,-35.575737 6.66981,-42.703074"
           id="path862-4"
           sodipodi:nodetypes="cc" />
        <path
           style="display:inline;fill:url(#radialGradient1311-3);fill-opacity:1;stroke:none;stroke-width:1px;stroke-linecap:butt;stroke-linejoin:miter;stroke-opacity:1"
           d="m 427.01299,122.04943 -0.39224,-10.48603 9.53279,-4.58869 9.49328,5.43841 1.57079,6.76662 -9.17126,8.45982 -11.58734,-3.2491"
           id="path1295-7"
           sodipodi:nodetypes="ccccccc" />
        <path
           style="display:inline;fill:#000000;fill-opacity:1;stroke:none;stroke-width:1px;stroke-linecap:butt;stroke-linejoin:miter;stroke-opacity:1"
           d="m 449.81788,117.78479 c 0,0 -2.78113,-1.13391 -4.12167,0.9513 -1.34054,2.08522 -5.17186,7.82484 -9.04541,7.16984 -1.45257,-0.24562 -2.89352,-0.2771 -4.27224,-0.63912 -2.38529,-0.62631 -4.49848,-1.69818 -5.64719,-2.20916 -1.01697,-0.45238 -2.29836,1.72496 0.16728,3.33496 4.03305,2.63347 11.49352,3.2791 15.17606,1.34746 4.00051,-2.09842 7.74317,-9.95528 7.74317,-9.95528 z"
           id="path860-8"
           sodipodi:nodetypes="cssssssc" />
      </g>
      <path
         style="fill:none;stroke:#000000;stroke-width:1px;stroke-linecap:butt;stroke-linejoin:miter;stroke-opacity:1"
         d="m 145.53917,5.8626254 c 1.97114,3.274559 8.23244,9.5394776 9.24536,15.2007836"
         id="path49412"
         sodipodi:nodetypes="cc" />
      <path
         style="display:inline;opacity:1;fill:url(#radialGradient949-7);fill-opacity:1;stroke:#000427;stroke-width:2;stroke-linecap:butt;stroke-linejoin:miter;stroke-miterlimit:4;stroke-dasharray:none;stroke-opacity:1"
         d="m 106.87404,60.955771 c -1.79717,-5.62742 -2.80523,-3.698472 -4.42761,-10.06683 -1.46902,-5.766387 4.83066,-20.158661 6.89456,-23.305387 2.78058,-4.239409 12.18696,-15.136184 15.21135,-15.881224 -1.04898,3.979875 0.0461,26.190105 4.66294,42.487128 -11.77958,-22.519946 15.41671,-42.946486 39.1579,-40.227528 8.71853,0.998489 20.68916,4.944439 25.77198,13.748494 -6.36565,-3.01843 -25.0787,14.919493 -47.0794,27.839082 35.71052,-27.513794 58.02528,-9.551811 64.49405,14.18541 -26.04285,7.19583 -28.88768,11.54647 -58.92869,7.900458 l 2.42026,6.44491 -8.71711,-1.515819"
         id="path835-28"
         sodipodi:nodetypes="cssccscccccc" />
      <path
         style="display:inline;fill:#f2849a;fill-opacity:1;stroke:#000000;stroke-width:2.1;stroke-linecap:round;stroke-linejoin:round;stroke-miterlimit:4;stroke-dasharray:none;stroke-opacity:1"
         d="m 78.604732,75.770446 -1.92993,2.06905 c -24.17589,-11.915594 -36.11362,-17.828173 -49.0647,-33.723241 3.38583,5.125382 9.83399,16.160513 16.01064,22.140674 4.46061,4.318708 8.78061,11.779049 14.49667,16.916942 3.72163,3.345169 5.51955,5.943788 9.82413,9.544976 0.0536,-5.567316 7.42767,-11.729476 10.66319,-16.948401 z"
         id="path843-5"
         sodipodi:nodetypes="cccsscc" />
      <path
         style="display:inline;opacity:1;fill:var(--highlight);fill-opacity:1;stroke:#000000;stroke-width:1px;stroke-linecap:butt;stroke-linejoin:miter;stroke-opacity:1"
         d="m 112.31492,84.94067 c 0,0 7.31701,-6.445562 11.58764,-8.56171 5.06874,-2.511621 8.65215,-2.964597 6.50212,-6.544978 -3.80402,-6.334729 -13.81166,-0.733552 -16.28288,0.438702 -2.8092,1.332581 -6.97385,7.439857 -6.35461,13.463168 0.67836,6.598441 4.54773,1.204818 4.54773,1.204818 z"
         id="path876-9"
         sodipodi:nodetypes="cssssc" />
      <path
         style="display:inline;fill:var(--fur);fill-opacity:1;stroke:#00042a;stroke-width:1.88333;stroke-linecap:round;stroke-linejoin:round;stroke-miterlimit:4;stroke-dasharray:none;stroke-opacity:1;paint-order:normal"
         d="m -6.9858376,251.91011 c 0,0 -5.6139284,-26.39218 1.3568206,-35.09273 7.0250104,-8.76828 1.2634697,-20.14283 -2.22655,-20.12041 9.6741704,3.75894 27.891834,-6.61283 58.480284,20.47045 l -5.29819,-14.1546 c 31.44348,20.87875 40.53929,35.86659 41.95641,48.83031 z"
         id="path841-29"
         sodipodi:nodetypes="csccccc" />
      <path
         style="display:inline;fill:url(#radialGradient7951-6);fill-opacity:1;stroke:#00042a;stroke-width:2.97368;stroke-linecap:round;stroke-linejoin:round;stroke-miterlimit:4;stroke-dasharray:none;stroke-opacity:1;paint-order:normal"
         d="m -6.9858376,251.91011 c 0,0 -5.6139284,-26.39218 1.3568206,-35.09273 7.0250104,-8.76828 1.2634697,-20.14283 -2.22655,-20.12041 9.6741704,3.75894 27.891834,-6.61283 58.480284,20.47045 l -5.29819,-14.1546 c 31.44347,20.87875 40.53929,35.86659 41.95641,48.83031 z"
         id="path841-2-1"
         sodipodi:nodetypes="csccccc" />
      <path
         style="display:inline;fill:url(#radialGradient7951-5-6);fill-opacity:1;stroke:none;stroke-width:1.88333;stroke-linecap:round;stroke-linejoin:round;stroke-miterlimit:4;stroke-dasharray:none;stroke-opacity:1;paint-order:normal"
         d="m 57.147497,251.38727 -2.31844,-11.65847 c 0.23075,-8.57803 -7.67392,-12.00451 -4.20434,-22.56138 l -5.29819,-14.1546 c 31.44347,20.87875 40.53929,35.86659 41.95641,48.83031 z"
         id="path841-2-9-2"
         sodipodi:nodetypes="cccccc" />
      <path
         style="fill:none;stroke:#000000;stroke-width:1px;stroke-linecap:butt;stroke-linejoin:miter;stroke-opacity:0.410031"
         d="m 124.48566,83.52195 c 0.43416,-0.432594 2.19588,-1.795661 3.97055,-2.298086 0.16018,-0.04535 5.39673,0.4329 5.72562,0.279981 0.39639,-0.184297 -5.99201,-0.255842 -5.77788,-0.315721 1.153,-0.32241 4.46015,-1.35657 5.96996,-1.737227"
         id="path45679"
         sodipodi:nodetypes="csssc" />
      <path
         style="display:inline;fill:none;stroke:#000000;stroke-width:1px;stroke-linecap:butt;stroke-linejoin:miter;stroke-opacity:0.410031"
         d="m 119.97363,119.54898 c 0.12923,-2.24432 -5.2933,-18.35815 0.0598,-28.256533"
         id="path45679-5"
         sodipodi:nodetypes="cc" />
      <path
         style="display:inline;fill:none;stroke:#000000;stroke-width:0.7;stroke-linecap:butt;stroke-linejoin:miter;stroke-miterlimit:4;stroke-dasharray:none;stroke-opacity:0.581058"
         d="m 182.08565,109.0349 c -0.2772,-6.89625 -5.88486,-14.572916 -7.96667,-21.782378"
         id="path45679-0"
         sodipodi:nodetypes="cc" />
    </g>
    <g
       inkscape:groupmode="layer"
       id="layer4"
       inkscape:label="Arms"
       style="display:inline">
      <path
         style="display:inline;fill:var(--fur);fill-opacity:1;stroke:#00042a;stroke-width:2.8;stroke-linecap:round;stroke-linejoin:round;stroke-miterlimit:4;stroke-dasharray:none;stroke-opacity:1"
         d="m 156.98733,250.37981 44.71265,0.41706 c 11.80825,-9.30497 4.25104,-14.90947 -1.53039,-21.51037 -12.92972,-7.63606 -26.90555,-15.79167 -29.23103,-18.16115 0,0 -8.99953,9.1383 -10.79145,9.48898 z"
         id="path840-0-7" />
      <path
         style="display:inline;fill:url(#linearGradient8438);fill-opacity:1;stroke:#00042a;stroke-width:2.8;stroke-linecap:round;stroke-linejoin:round;stroke-miterlimit:4;stroke-dasharray:none;stroke-opacity:1"
         d="m 156.98733,250.37981 44.71265,0.41706 c 11.80825,-9.30497 4.25104,-14.90947 -1.53039,-21.51037 -12.92972,-7.63606 -26.90555,-15.79167 -29.23103,-18.16115 0,0 -8.99953,9.1383 -10.79145,9.48898 z"
         id="path840-9" />
      <path
         style="display:inline;fill:var(--fur);fill-opacity:1;stroke:#00042a;stroke-width:2.8;stroke-linecap:round;stroke-linejoin:round;stroke-miterlimit:4;stroke-dasharray:none;stroke-opacity:1"
         d="m 102.54891,196.80609 c 7.55985,-3.36924 15.6992,-2.69992 29.59784,29.86318 5.32152,-1.83134 13.48528,-2.19735 18.02359,-7.19678 12.90565,-14.21694 29.25173,-26.88672 44.00188,-6.25347 4.74298,2.6109 6.46577,6.80823 5.99736,16.06748 l -5.7597,-2.21992 0.52579,-5.48159 -1.17465,5.12531 c -3.06773,4.60509 -7.87579,5.58401 -11.87928,6.2201 -1.99587,5.78354 -6.02992,11.83989 -11.44091,18.08054 l -62.81856,0.45189 c -6.79168,-7.28739 -10.443034,-12.5394 -13.515394,-24.62548"
         id="path838-9-2"
         sodipodi:nodetypes="ccsccccccccc" />
      <path
         style="display:inline;fill:url(#linearGradient8440);fill-opacity:1;stroke:#00042a;stroke-width:2.8;stroke-linecap:round;stroke-linejoin:round;stroke-miterlimit:4;stroke-dasharray:none;stroke-opacity:1"
         d="m 102.5489,196.80609 c 7.55985,-3.36924 15.6992,-2.69992 29.59784,29.86318 5.32153,-1.83134 13.48529,-2.19735 18.0236,-7.19678 12.90565,-14.21694 29.25173,-26.88672 44.00188,-6.25347 4.74298,2.6109 6.46577,6.80823 5.99736,16.06748 l -5.7597,-2.21992 0.52579,-5.48159 -1.17465,5.12531 c -3.06773,4.60509 -7.87579,5.58401 -11.87928,6.2201 -1.99587,5.78354 -6.02992,11.83989 -11.44091,18.08054 l -62.81857,0.45189 c -6.79168,-7.28739 -10.443034,-12.5394 -13.515384,-24.62548"
         id="path838-0"
         sodipodi:nodetypes="ccsccccccccc" />
      <path
         style="display:inline;fill:var(--highlight);fill-opacity:1;stroke:#00042a;stroke-width:2.8;stroke-linecap:round;stroke-linejoin:round;stroke-miterlimit:4;stroke-dasharray:none;stroke-opacity:1"
         d="m 140.95444,211.15741 c -5.8276,-0.60717 -13.48877,-0.14592 -21.25078,8.35916 -19.4801,21.34496 -8.45594,25.03879 -6.71171,26.43387 1.14053,0.91223 6.23943,2.61324 6.15939,-6.09342 0.2013,-3.93981 1.53308,-4.3184 2.53906,-6.99501 -0.98993,2.02559 -1.69531,2.86125 -2.53995,5.65405 0.48017,5.37187 -0.29721,9.73051 6.36445,12.28282 4.24533,1.62653 7.93038,-1.93314 10.96609,-5.9044 -0.84946,-3.2672 0.0123,-6.29131 0.37443,-9.75367 -0.27744,3.17837 -0.64206,6.31513 -0.37443,9.75367 4.94886,3.49703 11.77843,4.25669 12.97229,-3.93336 0.36221,-2.48481 0.0792,-6.10443 -1.19607,-10.10227 l 4.64753,-15.90208 c -0.0943,0.16323 -4.87078,-3.06176 -11.9503,-3.79936 z"
         id="path844-2"
         sodipodi:nodetypes="ssscccscccsccs" />
    </g>
    <g
       inkscape:groupmode="layer"
       id="layer6"
       inkscape:label="Teeth"
       style="display:inline">
      <path
         style="display:inline;fill:#ffffff;fill-opacity:1;stroke:#000000;stroke-width:1px;stroke-linecap:butt;stroke-linejoin:miter;stroke-opacity:1"
         d="m 178.36776,142.4847 c 1.57681,2.46976 2.86764,5.16251 5.59554,6.73479 3.09517,-1.11995 3.91352,-4.13239 4.51349,-7.32635 -4.98828,1.43455 -7.15933,0.71542 -10.10903,0.59156 z"
         id="path1812-7"
         sodipodi:nodetypes="cccc" />
    </g>
    <g
       inkscape:groupmode="layer"
       id="layer7"
       inkscape:label="Muzzle"
       style="opacity:1">
      <path
         style="display:inline;opacity:1;fill:var(--fur);fill-opacity:1;stroke:#00062a;stroke-width:3;stroke-linecap:round;stroke-linejoin:round;stroke-miterlimit:4;stroke-dasharray:none;stroke-opacity:1"
         d="m 153.4697,135.12569 c 1.77033,-1.44736 3.97561,-1.94807 6.61577,-1.50232 l -2.50385,0.25023 c 10.10255,8.46541 27.61986,11.65144 46.629,3.1905 9.76422,6.19431 13.89345,-1.31046 16.73024,-8.28028 4.82103,-11.84503 -6.3024,-22.53652 -9.19404,-21.84273 -14.46071,3.4695 -25.84886,-1.7845 -44.14818,12.58345"
         id="path6000"
         sodipodi:nodetypes="ccccssc" />
      <path
         style="display:inline;opacity:1;fill:#010101;fill-opacity:1;stroke:#000000;stroke-width:0.881576px;stroke-linecap:butt;stroke-linejoin:miter;stroke-opacity:1"
         d="m 186.37717,114.22918 c -3.44559,-4.12171 30.25279,-9.01213 27.4576,-5.02782 -2.32004,3.307 -7.47101,9.41711 -8.68503,9.66353 l -3.48711,0.7078 c -1.6362,0.33213 -10.59294,-3.40514 -15.28546,-5.34351 z"
         id="path839-0"
         sodipodi:nodetypes="csssc" />
      <ellipse
         style="display:inline;opacity:1;fill:url(#radialGradient874-9);fill-opacity:1;fill-rule:evenodd;stroke-width:0.881656"
         id="path866-6"
         cx="199.81384"
         cy="119.02256"
         rx="5.7888913"
         ry="1.8400962"
         transform="matrix(0.99906389,-0.04325895,0.06229291,0.99805791,0,0)" />
    </g>
  </g>
</svg>
