<?xml version="1.0" encoding="UTF-8" standalone="no"?>
<!-- Generator: Adobe Illustrator 18.0.0, SVG Export Plug-In . SVG Version: 6.00 Build 0)  -->

<svg
   version="1.1"
   viewBox="0 0 1400 1100"
   inkscape:version="1.1.2 (0a00cf5339, 2022-02-04)"
   sodipodi:docname="svg.svg"
   id="svg1445"
   xmlns:inkscape="http://www.inkscape.org/namespaces/inkscape"
   xmlns:sodipodi="http://sodipodi.sourceforge.net/DTD/sodipodi-0.dtd"
   xmlns="http://www.w3.org/2000/svg"
   xmlns:svg="http://www.w3.org/2000/svg"><defs
   id="defs123">
		
		
		
		
		
		
		
		
		
		
		
		
		
		
		
		
		
		
		
		
		
		
		
		
		
		
		
		
		
		
		
		
		
		
		
		
		
		
		
		
		
		
		
		
		
		
		
		
		
		
		
		
		
		
		
		
	</defs>
<sodipodi:namedview
   id="namedview121"
   pagecolor="#505050"
   bordercolor="#ffffff"
   borderopacity="1"
   inkscape:pageshadow="0"
   inkscape:pageopacity="0"
   inkscape:pagecheckerboard="1"
   showgrid="false"
   inkscape:zoom="1"
   inkscape:cx="201.5"
   inkscape:cy="482.5"
   inkscape:window-width="3440"
   inkscape:window-height="1369"
   inkscape:window-x="0"
   inkscape:window-y="34"
   inkscape:window-maximized="1"
   inkscape:current-layer="g118" />

<g
   id="g118">
	<rect
   fill="#41545E"
   width="1400"
   height="1100"
   id="rect2" />

	<g
   id="g1377">
  <path
     fill="#c67580"
     d="m 1222.7,608.1 c -7.7,2.3 -16,5.8 -24.3,5.4 -7.4,-0.3 -14.2,-2.3 -21.1,-4.8 -15.6,-5.5 -31.3,-8.1 -47.8,-5.2 -4.6,0.8 -9.1,1.9 -13.5,3.2 8.3,0.7 16.5,1.8 24.8,2.4 12.3,0.8 24.7,3.2 32.5,13.1 6.6,-7.8 18.8,-7 21.7,3.1 3,-3.4 6.4,-7 10.9,-7.8 5.5,-1 7.2,1.2 11.8,3.5 5.2,2.6 9.6,-3.8 15.2,-2.7 2.4,0.5 4.1,2.9 5.4,5.4 2.4,-5.5 7.9,-8.1 13.5,-6.1 -1,-3.9 -2,-7.8 -3.1,-11.7 -8.5,-2 -18.7,0 -26,2.2 z"
     id="path54" />
  <path
     fill="#ffeeb3"
     d="m 1240,628 c -0.4,1.1 -1.9,1.4 -2.5,0.3 -1.3,-2.3 -2.7,-5.4 -5.6,-6.1 -3.1,-0.7 -3.9,1 -6.1,2.3 -2.2,1.4 -3.6,1.6 -6.2,1.2 -0.8,-0.1 -1.8,-0.7 -2.3,-1.3 -2.9,-3.1 -6,-5.4 -10.6,-4 -5,1.6 -8.4,5 -11.4,9.1 -0.7,1 -2.6,1.1 -2.9,-0.4 -1.5,-8 -13.6,-13.3 -17.2,-3.1 -0.5,1.3 -2.2,2.1 -3.3,0.9 -4.8,-5.5 -10.2,-10.5 -17.4,-12.4 -6.6,-1.8 -13.3,-1.5 -20.1,-2.5 -8.4,-1.3 -16.9,-1.9 -25.3,-3 -8.4,3 -16.5,6.9 -24.1,11.7 -2.2,1.4 -4.4,2.8 -6.5,4.3 4.5,2.3 9,4.7 13.9,6.3 3.8,1.2 8,2 11.5,3.9 1.1,-3 2.3,-6 3.6,-9 0.1,-0.2 0.3,-0.1 0.3,0.1 0,3.1 -0.1,6.2 -0.3,9.3 8.4,2.5 16.9,4.4 25.5,5.8 -0.3,-3.9 -0.4,-7.7 -0.2,-11.6 0,-0.7 0.9,-0.8 1.2,-0.2 3.3,9.9 4.4,20.6 5.9,30.9 0.7,4.9 1.1,10 2.2,14.9 1,4.5 3.4,5.3 6.1,4.5 5,-6.9 10.5,-13.4 14.3,-21.1 4.4,-9 7.1,-18.7 9.3,-28.4 0.1,-0.5 0.8,-0.3 0.9,0.1 0.5,4.3 0.4,8.9 -0.1,13.6 2.7,2.6 5,5.7 7.3,8.7 4.2,-3.2 7.4,-7.3 9.1,-12.5 0.5,-1.6 2.9,-1 2.6,0.7 0,0.2 -0.1,0.3 -0.1,0.5 1.1,3.3 1.3,6 7.1,6.2 1.4,0.1 2.9,0.1 4.3,0.1 3.3,0.3 6.4,0.9 9.5,1.8 4,1.2 14.9,4.6 21.5,2.9 5.7,-4 5.7,-14.1 4.9,-20.2 0,-0.2 0.3,-0.2 0.4,0 1.9,5.5 4.7,11.2 2.1,17 -0.4,1.3 -0.9,2.4 -1.6,3.3 0.3,2.1 0.8,3.8 2.3,5.2 4.1,-3.3 6.4,-8.3 6.6,-13.6 0,-0.5 0.7,-0.6 0.8,-0.1 1.9,5.9 -0.2,11.8 -4.6,15.8 1.1,5.1 2.7,15.2 6.2,16.1 7.1,-17.4 5.8,-36 1.8,-54 -5,-1.2 -10.8,0.5 -12.8,6 z"
     id="path56" />
  <path
     fill="#d5214a"
     d="m 1010.9,726.8 c 6.7,-3.2 15.2,-4.8 20.7,1.7 5.9,7 8.6,16.2 13.4,24 11.4,18.8 26.4,32.7 44.4,45 10.9,7.5 24,20 20.4,33.7 6.9,-5.3 14.4,-10 21.7,-14 5.5,-3 20.3,-12.4 23.9,-3.4 3.7,6 -0.7,14.2 -3.5,20.3 -2.2,4.6 -4.2,9.4 -6.4,14.1 5.6,-3.3 11,-6.8 16.6,-10.1 0.1,0 0.1,-0.1 0.2,-0.1 0.9,-14 2.2,-28.1 0,-42 -2.3,-14.5 -6.9,-28.3 -14.9,-40.7 -7.9,-12.3 -18.5,-23 -31.5,-29.9 -6.9,-3.7 -14.4,-6.4 -22.1,-8 -3.7,-0.7 -7.4,-1 -11.1,-1.4 7,7 13.3,15 18.4,23.5 5.9,9.9 9,19.8 12.7,30.5 0.4,1.1 -1.5,1.6 -1.8,0.5 -3.1,-10.6 -10.1,-21.5 -16.7,-30.2 -6.7,-8.8 -14.8,-16.5 -24,-22.8 -17.5,-11.9 -37.3,-20 -58.2,-23.6 -3,4.1 -5.9,8.2 -8.7,12.3 -9.9,14.1 -20.5,31.6 -18.3,49.4 4.4,-12.1 13.6,-23.5 24.8,-28.8 z"
     id="path60" />
  <path
     fill="#932944"
     d="m 1241.1,661.5 c -2.2,-1.5 -4,-3.5 -4.7,-6 -8.2,4.3 -23.7,-2.2 -31.5,-2.5 -4.7,-0.1 -12.6,0.3 -15.4,-4.7 -0.1,-0.2 -0.2,-0.3 -0.2,-0.5 -1.9,4.1 -4.8,7.6 -8.7,10.3 -0.8,0.6 -2.2,0.4 -2.8,-0.4 -2.1,-2.4 -4.3,-4.7 -6.3,-7.2 -2.4,11.4 -7.8,22.6 -15.6,30.6 -1.2,1.7 -2.7,3.1 -4.5,4 -0.4,0.3 -0.7,0.6 -1.1,0.9 -0.9,0.6 -1.9,0.5 -2.7,0 -4,0.2 -7.7,-1.5 -9.2,-5.5 -2.8,-7.5 -2.7,-16.5 -3.7,-24.5 -0.4,-3.1 -0.8,-6.2 -1.1,-9.3 -10.2,0 -20.4,-2.7 -29.3,-7.8 -0.3,-0.2 -0.6,-0.5 -0.8,-0.9 -8.4,1.7 -19.2,-3.9 -26,-9.9 14.4,25.1 14.6,56 4.4,82.8 11.9,-2 25.5,1.9 35.6,7 13.6,6.8 25,17.5 33,30.4 8.7,13.9 14.3,29.9 16.6,46.1 2.3,16 3.8,32.3 0.9,48.4 6,-3.1 12.9,-7.2 18.4,-2.5 1.1,-1.8 2.9,-3.2 4.9,-3.8 -8,-13.6 -14.5,-27.1 -16.2,-43.2 -1.7,-16.4 -0.6,-33.4 4.6,-49.2 5.2,-15.9 13.8,-30.2 24.9,-42.6 11.1,-12.4 23.8,-24.8 38.3,-33.1 -0.4,-2.4 -0.6,-4.8 -0.6,-6.8 -0.2,0.2 -0.8,0.2 -1.2,-0.1 z"
     id="path64" />
  <path
     fill="#ffeeb3"
     d="m 1190.3,843.1 c -0.1,0.5 -0.4,0.8 -0.7,1.1 3,5.1 4.1,12.3 0.6,16.9 -0.1,0.2 -0.4,0.1 -0.5,-0.1 -2.5,-5.1 0.7,-11.7 -4.5,-15.9 -5.4,-4.4 -15.8,1.4 -20.7,4.7 -0.4,0.3 -0.8,0.4 -1.1,0.4 -1.8,7.4 -4.7,14.7 -9.1,20.9 -0.8,1.1 -2.4,0.2 -1.8,-1.1 4.2,-8.6 7.2,-16.8 8.2,-26.1 -6,3.5 -12.1,6.8 -18,10.5 -0.1,0 -0.1,0.1 -0.2,0.1 -2.4,4.9 -5.1,9.6 -8.2,13.9 -0.2,0.3 -0.7,0.1 -0.6,-0.3 1.7,-9.1 6,-17.9 9.5,-26.5 2.8,-6.7 8.9,-16.3 7.5,-24 0,0 0,0 0,0 -1.2,-6.9 -28,9.3 -31.1,11.3 -8.5,5.4 -16,11.9 -24,17.9 -0.7,0.6 -1.5,-0.6 -0.9,-1.2 2.6,-3.1 5.5,-6 8.7,-8.8 -0.1,-0.4 0,-0.8 0.2,-1.3 8.9,-19.6 -15.4,-31.6 -27.7,-40.9 -11.2,-8.6 -21.3,-18.6 -29.5,-30.2 -4.5,-6.5 -8.8,-13.3 -11.9,-20.5 -1.7,-3.8 -3.2,-8.8 -6.2,-11.8 -5,-5 -11.4,-3.3 -16.9,0.1 -11.9,7.5 -19,18.2 -23.5,30.8 6,18.9 20.7,36.1 33.2,51.1 24.2,28.9 53.6,60.1 90.2,72.8 14.9,5.2 30.9,6.5 46.6,5.1 15,-1.3 31.5,-4.9 43.8,-14.2 9.1,-17.5 15.3,-34.7 17.9,-54.3 -8.2,3.5 -14.5,9.3 -19.9,16.6 2.9,4.5 1.3,9.9 -1.1,14.6 -0.4,0.8 -1.6,0.2 -1.4,-0.6 0.7,-3.2 2.1,-7.6 0.3,-10.7 -1.8,-3 -5.9,-4.2 -7.2,-0.3 z"
     id="path66" />
  <path
     fill="#492630"
     d="m 1074.8,627.8 c -21.8,16.1 -40.2,37.4 -56.6,59.3 21.1,1.4 41.3,9.1 57.6,22.8 10.3,-26.7 8.4,-55.4 -1,-82.1 z"
     id="path80" />
  <path
     d="m 1237,599.8 c -8.6,0.2 -16.9,3.7 -25.2,5.4 -11.5,2.3 -21.6,-0.4 -32.3,-4.4 -35.1,-13.2 -71.7,-5 -102.6,15.2 -31.6,20.7 -54.9,52.4 -77,82.4 -10.8,14.7 -20.5,30.8 -22.1,49.3 -1.7,19.1 10.2,35.6 20.7,50.3 14.1,19.7 30.1,38.1 47.6,54.8 16,15.3 34.1,29.3 54.7,37.8 32.2,13.3 78.3,14.6 106.2,-9.1 1.3,-1.1 1.3,-2.4 0.7,-3.4 10.3,-17.2 15.7,-38.3 16.4,-58.1 0,-1.3 -1.5,-2.6 -2.8,-2.1 -10.1,3.7 -18.8,10.4 -23.5,20.1 -0.5,-0.4 -1,-0.8 -1.5,-1 0,-0.3 -0.1,-0.6 -0.3,-0.9 -16.4,-25.6 -18.9,-61.8 -10.6,-90.3 4.6,-15.9 13.6,-29.8 24.4,-42.2 10.4,-11.9 23.3,-21.5 33.5,-33.4 1.3,6 4.2,11.3 8.5,9.8 0.7,0.2 1.5,0 2,-0.9 0.1,-0.1 0.1,-0.3 0.2,-0.4 0.2,-0.2 0.3,-0.4 0.3,-0.7 5.5,-11.4 6.2,-24.8 5.6,-37.3 -0.5,-12.1 -3.5,-24.1 -9.7,-34.5 5.3,1.5 9.7,4.8 12,10.8 0.5,1.2 2.3,0.8 2,-0.6 -2.6,-12.5 -15.6,-16.9 -27.2,-16.6 z m -162.2,28 c 9.3,26.7 11.3,55.4 1.1,82.1 -16.3,-13.7 -36.5,-21.4 -57.6,-22.8 16.3,-21.9 34.7,-43.2 56.5,-59.3 z m -70.4,78.5 c 2.9,-4.1 5.8,-8.2 8.7,-12.3 20.9,3.5 40.7,11.7 58.2,23.6 9.1,6.2 17.3,14 24,22.8 6.6,8.7 13.6,19.6 16.7,30.2 0.3,1.2 2.2,0.6 1.8,-0.5 -3.8,-10.7 -6.8,-20.6 -12.7,-30.5 -5.1,-8.5 -11.4,-16.5 -18.4,-23.5 3.7,0.3 7.4,0.6 11.1,1.4 7.7,1.5 15.2,4.3 22.1,8 13,6.9 23.6,17.6 31.5,29.9 8,12.4 12.6,26.2 14.9,40.7 2.2,13.9 0.9,28 0,42 -0.1,0 -0.2,0 -0.2,0.1 -5.6,3.3 -11.1,6.8 -16.6,10.1 2.2,-4.8 4.2,-9.6 6.4,-14.1 2.9,-6.1 7.2,-14.3 3.5,-20.3 -3.5,-9 -18.4,0.4 -23.9,3.4 -7.2,4 -14.7,8.7 -21.7,14 3.6,-13.7 -9.5,-26.2 -20.4,-33.7 -18,-12.3 -33,-26.2 -44.4,-45 -4.7,-7.8 -7.5,-17 -13.4,-24 -5.4,-6.5 -14,-4.9 -20.7,-1.7 -11.1,5.3 -20.4,16.7 -24.7,28.9 -2.3,-17.9 8.3,-35.4 18.2,-49.5 z m 193,136.9 c 1.8,3.1 0.4,7.5 -0.3,10.7 -0.2,0.8 1,1.4 1.4,0.6 2.3,-4.7 3.9,-10 1.1,-14.6 5.3,-7.2 11.6,-13 19.9,-16.6 -2.5,19.5 -8.7,36.8 -17.9,54.3 -12.3,9.3 -28.8,12.9 -43.8,14.2 -15.7,1.4 -31.7,0.1 -46.6,-5.1 -36.5,-12.7 -66,-43.8 -90.2,-72.8 -12.5,-15 -27.2,-32.2 -33.2,-51.1 4.5,-12.6 11.6,-23.4 23.5,-30.8 5.4,-3.4 11.8,-5.1 16.9,-0.1 3,3 4.5,8 6.2,11.8 3.2,7.2 7.4,14 11.9,20.5 8.1,11.6 18.2,21.6 29.5,30.2 12.2,9.3 36.6,21.3 27.7,40.9 -0.2,0.4 -0.3,0.9 -0.2,1.3 -3.1,2.8 -6.1,5.7 -8.7,8.8 -0.5,0.6 0.2,1.8 0.9,1.2 8,-6 15.5,-12.4 24,-17.9 3.1,-2 29.9,-18.2 31.1,-11.3 0,0 0,0 0,0 1.3,7.7 -4.8,17.3 -7.5,24 -3.5,8.6 -7.7,17.4 -9.5,26.5 -0.1,0.4 0.4,0.6 0.6,0.3 3.2,-4.3 5.8,-9 8.2,-13.9 0.1,0 0.1,-0.1 0.2,-0.1 5.9,-3.7 12,-7 18,-10.5 -1,9.3 -4.1,17.5 -8.2,26.1 -0.6,1.2 1,2.2 1.8,1.1 4.4,-6.2 7.3,-13.5 9.1,-20.9 0.4,0 0.7,-0.1 1.1,-0.4 4.9,-3.3 15.3,-9.1 20.7,-4.7 5.1,4.2 2,10.9 4.5,15.9 0.1,0.2 0.4,0.2 0.5,0.1 3.6,-4.5 2.5,-11.8 -0.6,-16.9 0.3,-0.3 0.5,-0.6 0.7,-1.1 1.4,-3.7 5.5,-2.5 7.2,0.3 z m 7.4,-141.6 c -11.1,12.5 -19.7,26.8 -24.9,42.6 -5.2,15.8 -6.3,32.8 -4.6,49.2 1.7,16.1 8.2,29.6 16.2,43.2 -2,0.6 -3.8,2 -4.9,3.8 -5.5,-4.6 -12.4,-0.6 -18.4,2.5 2.9,-16 1.4,-32.3 -0.9,-48.4 -2.4,-16.2 -8,-32.2 -16.6,-46.1 -8.1,-12.9 -19.5,-23.5 -33,-30.4 -10.1,-5.1 -23.7,-9 -35.6,-7 10.1,-26.8 10,-57.7 -4.4,-82.8 6.8,6 17.6,11.6 26,9.9 0.2,0.4 0.5,0.7 0.8,0.9 8.9,5 19.1,7.8 29.3,7.8 0.3,3.1 0.7,6.2 1.1,9.3 1,7.9 0.9,16.9 3.7,24.5 1.5,4.1 5.2,5.7 9.2,5.5 0.8,0.5 1.8,0.6 2.7,0 0.4,-0.3 0.8,-0.6 1.1,-0.9 1.8,-0.9 3.3,-2.3 4.5,-4 7.8,-8 13.2,-19.2 15.6,-30.6 2,2.5 4.2,4.8 6.3,7.2 0.6,0.7 2,0.9 2.8,0.4 3.9,-2.7 6.7,-6.2 8.7,-10.3 0.1,0.2 0.2,0.3 0.2,0.5 2.7,5 10.7,4.6 15.4,4.7 7.8,0.2 23.3,6.8 31.5,2.5 0.7,2.5 2.4,4.5 4.7,6 0.4,0.3 1,0.3 1.5,0.1 0,2 0.2,4.4 0.6,6.8 -14.7,8.3 -27.5,20.7 -38.6,33.1 z m 46.3,-25.5 c -3.6,-1 -5.2,-11 -6.2,-16.1 4.4,-4 6.5,-9.9 4.6,-15.8 -0.1,-0.5 -0.8,-0.4 -0.8,0.1 -0.2,5.3 -2.5,10.3 -6.6,13.6 -1.5,-1.4 -2,-3.1 -2.3,-5.2 0.7,-0.9 1.2,-2 1.6,-3.3 2.6,-5.8 -0.2,-11.5 -2.1,-17 -0.1,-0.2 -0.4,-0.2 -0.4,0 0.8,6.1 0.8,16.2 -4.9,20.2 -6.7,1.6 -17.6,-1.7 -21.5,-2.9 -3.2,-1 -6.3,-1.5 -9.5,-1.8 -1.4,0 -2.9,0 -4.3,-0.1 -5.8,-0.2 -6,-2.8 -7.1,-6.2 0,-0.2 0.1,-0.3 0.1,-0.5 0.3,-1.7 -2,-2.4 -2.6,-0.7 -1.7,5.1 -4.8,9.3 -9.1,12.5 -2.3,-3 -4.7,-6 -7.3,-8.7 0.5,-4.6 0.6,-9.2 0.1,-13.6 -0.1,-0.5 -0.8,-0.6 -0.9,-0.1 -2.2,9.7 -4.8,19.4 -9.3,28.4 -3.8,7.7 -9.3,14.2 -14.3,21.1 -2.6,0.8 -5.1,0.1 -6.1,-4.5 -1.1,-4.9 -1.5,-10 -2.2,-14.9 -1.5,-10.3 -2.6,-21 -5.9,-30.9 -0.2,-0.6 -1.1,-0.5 -1.2,0.2 -0.2,3.8 -0.1,7.7 0.2,11.6 -8.7,-1.4 -17.1,-3.3 -25.5,-5.8 0.2,-3.1 0.3,-6.2 0.3,-9.3 0,-0.2 -0.3,-0.3 -0.3,-0.1 -1.3,3 -2.5,5.9 -3.6,9 -3.5,-1.9 -7.8,-2.7 -11.5,-3.9 -4.8,-1.6 -9.3,-4 -13.9,-6.3 2.1,-1.5 4.3,-2.9 6.5,-4.3 7.6,-4.8 15.7,-8.7 24.1,-11.7 8.4,1.1 17,1.7 25.3,3 6.7,1 13.4,0.8 20.1,2.5 7.2,1.9 12.6,7 17.4,12.4 1,1.2 2.8,0.4 3.3,-0.9 3.6,-10.2 15.7,-5 17.2,3.1 0.3,1.5 2.2,1.4 2.9,0.4 3,-4.1 6.4,-7.6 11.4,-9.1 4.6,-1.4 7.7,0.9 10.6,4 0.6,0.6 1.5,1.2 2.3,1.3 2.5,0.4 3.9,0.1 6.2,-1.2 2.2,-1.3 2.9,-3 6.1,-2.3 2.9,0.7 4.3,3.8 5.6,6.1 0.6,1.1 2.1,0.7 2.5,-0.3 2,-5.4 7.8,-7.2 12.9,-5.8 3.9,17.8 5.2,36.4 -1.9,53.8 z m 0.7,-58.6 c -5.6,-2 -11.1,0.6 -13.5,6.1 -1.3,-2.5 -3.1,-4.9 -5.4,-5.4 -5.6,-1.1 -10,5.3 -15.2,2.7 -4.6,-2.3 -6.4,-4.4 -11.8,-3.5 -4.5,0.8 -7.9,4.5 -10.9,7.8 -2.8,-10.1 -15.1,-10.9 -21.7,-3.1 -7.9,-9.9 -20.2,-12.2 -32.5,-13.1 -8.3,-0.6 -16.5,-1.7 -24.8,-2.4 4.4,-1.3 8.9,-2.4 13.5,-3.2 16.5,-2.9 32.2,-0.3 47.8,5.2 7,2.4 13.7,4.4 21.1,4.8 8.2,0.4 16.5,-3.1 24.3,-5.4 7.3,-2.2 17.6,-4.2 26,-2.3 1.1,3.9 2.2,7.8 3.1,11.8 z"
     id="path96" />
  <path
     d="m 1176.3,918.4 c -0.3,-0.3 -0.8,-0.5 -1.3,-0.6 -4.8,-0.3 -9.8,1.1 -14.6,1.5 -5.7,0.5 -11.5,0.6 -17.2,0.6 -12.1,-0.1 -23.3,-2.9 -34.5,-7 -0.3,-0.1 -0.5,0.3 -0.3,0.5 9.2,8.4 21.4,13.5 33.6,15.2 10.7,1.5 26.1,0.6 34.4,-7.3 0.5,-0.5 0.7,-1.2 0.5,-1.7 0.3,-0.5 0.1,-1.2 -0.6,-1.2 z"
     id="path98" />
</g>
<g
   id="g1331">
  <path
     fill="#c67580"
     d="m 189,242 c 1.2,-6 4.9,-12.8 9.5,-15.3 4,-2.2 9.5,-2.5 12.6,0.9 2.8,-9.3 14.2,-17.6 22.3,-19.9 12.3,-3.6 24.9,-1 34.6,7 1.7,-7.1 6.8,-12.5 13.7,-14.5 -4.4,-4.5 -9.2,-8.6 -14.4,-11.9 -15.6,-10 -37.6,-14.6 -53.4,-2.4 -14.2,10.9 -19.4,28.7 -29.9,42.5 -4.9,6.5 -10.6,12.6 -17.3,16.7 0.9,0.4 1.8,0.9 2.7,1.6 3.3,-8.2 13.1,-11 19.6,-4.7 z"
     id="path28" />
  <path
     fill="#492630"
     d="m 307.6,380.7 c 18,3.3 34,12.4 52.6,12.1 -3.9,-36.9 -12.7,-73.8 -26.9,-108 -1.9,-4.4 -3.8,-8.9 -5.8,-13.3 -10.1,15.8 -18.4,31.1 -22.4,49.9 -4.3,19.7 -3.3,40 2.5,59.3 z"
     id="path32" />
  <path
     fill="#ffeeb3"
     d="m 324.3,391 c -6.3,-2.2 -14,-6.2 -20.8,-5.9 -11.3,0.5 -10.3,11.5 -10.6,19.7 0,0.4 -0.6,0.6 -0.8,0.2 -1.1,-2.5 -1.8,-5.3 -2,-8 -7.8,-9.1 -12.7,-20.8 -16.9,-32 -4.7,-12.4 -9.1,-25.6 -11.4,-38.8 -4.8,3.2 -7.4,9.7 -9.6,14.8 -2.8,6.4 -5.1,13 -6.9,19.8 -3.1,12.5 -3.2,25 -5.1,37.6 0,0.2 -0.3,0.2 -0.4,0 -1.4,-4.9 -1.9,-10.2 -1.9,-15.6 -13.8,0.7 -22,12.5 -22.9,25.8 -0.5,7.5 -0.7,15.3 -0.7,23 0.3,-0.1 0.6,-0.2 0.9,-0.2 8.7,-0.7 17.2,0.1 25.9,0.5 8.1,0.4 16.1,0.7 24.2,1.9 15.6,2.4 31.2,8.1 45.3,14.9 14.5,7 37.6,20.5 47.8,-0.1 3.9,-7.9 3.7,-17.5 3.5,-26.2 -0.2,-7.8 -0.6,-15.6 -1.3,-23.4 0,-0.5 -0.1,-1 -0.1,-1.5 -12.1,1.8 -24.7,-2.4 -36.2,-6.5 z"
     id="path34" />
  <path
     fill="#932944"
     d="m 189.2,347.1 c 16.9,-8.7 40.1,-11.3 55.5,1.3 3.2,-10.1 7.8,-23.6 17.3,-27 0.3,-0.1 0.6,-0.1 0.9,-0.1 1,-0.4 2.2,0 2.5,1.4 3.1,13.4 5.9,26.3 10.9,39.1 0.2,0.6 0.5,1.2 0.7,1.8 9,4.5 17.3,10.4 25.5,16 0.1,0 0.1,0.1 0.1,0.1 -5.5,-19.4 -6.1,-39.8 -2.3,-59.6 3.6,-18.5 11.8,-38.9 25.1,-52.8 -5.8,-12.4 -12.3,-24.5 -19.8,-35.8 0,-0.1 -0.1,-0.1 -0.1,-0.2 -5.1,5.1 -13.4,10.2 -20,10.1 -2.6,0 -5.1,-0.9 -7,-2.4 2.6,10.6 3.7,21.6 6.2,32.2 2.9,12.6 7.6,26.7 7.7,39.8 0.2,0.2 0.3,0.5 0.3,0.8 1.4,10.3 -10.4,7.4 -16,4.7 -10.4,-5 -20.2,-11.4 -28.9,-19 -9.5,-8.3 -18.6,-18.4 -25.2,-29.7 -0.3,8 -1.5,19.4 -10.8,14.2 -2.4,-1.3 -5,-3.2 -7.4,-5.3 -9.4,11.3 -29.3,9.8 -42.5,11 -3.8,0.3 -7.9,0.6 -11.7,0 0.9,2.9 1.3,5.3 0.5,7.6 6.9,4.4 12.4,14 16.1,20.9 4.3,7.9 7.5,16.1 9.6,24.9 4.4,1.3 8.7,3.3 12.8,6 z"
     id="path36" />
  <path
     fill="#d5214a"
     d="m 297.1,381.4 c -6,-3.9 -12.1,-7.9 -17.7,-12.3 3.6,8 7.5,15.8 10.7,23.9 0.4,-5.1 2.7,-9.5 7,-11.6 z"
     id="path38" />
  <path
     fill="#ffeeb3"
     d="m 166.8,282.2 c 11.2,-0.4 25.9,-0.4 34,-9.1 -4,-4.3 -7,-9.5 -7.4,-14.5 0,-0.1 0.1,-0.2 0.2,-0.1 4.8,4 8,9.9 12.6,14.2 1.3,1.2 2.5,2.4 3.9,3.5 3.6,2.8 8.5,1.3 8.9,-3.6 0.3,-3.4 0.6,-6.8 0.7,-10.3 -3.3,-6.6 -5.7,-13.6 -6.9,-20.8 0,-0.3 0.3,-0.5 0.5,-0.2 8.2,16 16.1,31.8 28.8,44.9 6.4,6.6 13.4,12.7 21.2,17.6 3.4,2.1 6.9,4.1 10.5,5.9 1,0.5 14.9,7.4 14.5,2.7 0,-0.5 0.1,-0.9 0.3,-1.2 -4.9,-12.9 -5.6,-28.3 -7.9,-41.7 -2.4,-14.1 -7,-28.4 -6.8,-42.8 0,-0.4 0.6,-0.5 0.7,-0.1 0.8,1.9 1.5,3.8 2.1,5.8 0.1,0 0.1,0.1 0.2,0.2 5.5,10.5 18.2,-0.3 25.6,-5.8 -5.3,-7.9 -11.1,-15.9 -17.6,-23.1 -7.5,0.8 -13.3,6.4 -14.2,14.1 -0.2,1.5 -1.6,2.1 -2.8,1.2 -9.6,-7.9 -23.5,-11.3 -35.2,-6.4 -5.5,2.3 -10.5,5.7 -14.2,10.4 -2.7,3.3 -4.3,7.4 -7.3,10.5 -0.3,0.3 -0.7,0 -0.7,-0.3 0,-0.3 0,-0.6 -0.1,-0.8 -0.4,-0.1 -0.8,-0.3 -1.2,-0.8 -4.4,-5.9 -11.1,-0.8 -13.6,4.1 -2,4 -3,8.4 -6.3,11.5 -0.3,0.3 -0.8,0.1 -0.8,-0.3 0,-0.4 0,-0.9 0,-1.3 -0.2,-0.1 -0.4,-0.2 -0.5,-0.4 -5.2,-6.2 -15.6,-4.9 -16.5,4.2 -0.1,1.2 -1.6,2.1 -2.5,1 -1.6,-1.8 -3.5,-2.8 -5.6,-3.3 -5.1,2.5 -10.7,3.9 -16.9,3.5 -9.9,-0.6 -29.1,-14.7 -42.4,-14.9 -5.1,8.6 -4.4,19.4 -3.3,29.1 1.3,11.3 4.4,22.1 9.5,32.3 4.9,9.6 11.1,18.3 18.1,26.4 1.8,3 4.6,3.4 8.6,1.3 -0.1,-1.4 -0.2,-2.8 -0.3,-4.2 -0.2,-2.5 -0.4,-5 -0.6,-7.6 -0.3,-5.9 -0.6,-11.8 -0.9,-17.7 0,-0.5 0.1,-0.9 0.3,-1.2 -4.1,-5.1 -7,-11.7 -8.6,-17.4 -0.1,-0.3 0.4,-0.5 0.5,-0.2 3.3,4.8 6.4,9.8 10.2,14.3 1.4,1.7 3.7,5.2 6,5.5 4.3,0.6 4.2,-5.9 4.3,-8.5 0,-0.3 0.1,-0.5 0.2,-0.6 -2.5,-0.7 -4.8,-2 -6.7,-4 -5.2,-5.6 -6.6,-12.2 -7.7,-19.6 -0.1,-0.8 1,-1.1 1.2,-0.3 2,5.9 4.6,14.3 10.5,17.8 6.5,3.7 14.2,1.3 21.4,1.1 z"
     id="path40" />
  <path
     fill="#d5214a"
     d="m 99.8,404.4 c -5.4,36.9 -9.8,90.9 30.5,110.8 17.3,8.6 38.4,8 54.6,-2.8 16,-10.7 27.2,-28.2 25.8,-47.9 -0.8,-10.6 -1.7,-21 -1.4,-31.7 0.2,-8.8 -0.7,-18.2 0.8,-26.9 2.5,-14.3 13.4,-25.6 28.1,-26.1 0.4,-8.9 2.3,-18 4.8,-25.9 -0.1,0 -0.2,-0.1 -0.3,-0.1 -10.5,-4.4 -20,-8 -31.6,-6.8 -9.8,1 -19.3,4.6 -27.3,10.5 -16.7,12.4 -27.3,31.8 -31.2,52 -0.1,0.6 -1.2,0.5 -1.1,-0.2 2.7,-23.6 12,-46.2 32.7,-59.3 0.3,-0.2 0.6,-0.3 0.8,-0.5 -0.4,-0.2 -0.8,-0.4 -1.2,-0.6 -18.6,-8.1 -40.5,-5.4 -57.1,6.4 -16.8,11.8 -24.1,29.5 -26.9,49.1 z"
     id="path46" />
  <path
     d="m 104.4,369.2 c -10,15.8 -11.4,35.9 -13.2,54 -1.9,19.6 -2,39.6 4.2,58.5 5.2,15.5 15.3,29.8 29.7,37.9 14.2,8 32,9.1 47.4,4.5 14.6,-4.3 26.9,-15 34.8,-27.8 4.1,-6.6 6.9,-14.1 8.1,-21.8 0.3,-2.2 0.5,-4.4 0.5,-6.5 10.5,-2.3 20.6,-4.6 31.5,-4.8 5.6,-0.1 11.3,0.3 16.9,0.9 5.5,0.6 10.9,2.5 16.5,2.1 0.2,0 0.4,-0.3 0.2,-0.5 -7.9,-6.5 -21.3,-7.5 -31.2,-8 -11,-0.6 -23.3,0.3 -34,3.9 -0.3,-5.4 -0.9,-10.8 -1.1,-16.1 -0.1,-2.3 -0.1,-4.6 -0.2,-6.9 0.3,0 0.5,0 0.8,0 9.4,-1.2 18.7,-2.6 28.2,-2.1 10.7,0.6 21.4,3.4 31.7,5.8 9.7,2.3 19.1,5.6 28.2,9.8 8.8,4.1 16.9,9.4 25.9,13 16.1,6.5 31.1,0.4 37.8,-15.6 7.1,-16.7 4.1,-37.2 2.4,-54.8 -3.6,-38.3 -13.9,-75.1 -29,-110.5 -7.7,-17.9 -16.9,-35.2 -27.1,-51.8 -9.7,-15.6 -19.1,-31.2 -32.9,-43.6 -14.9,-13.4 -34.9,-20.9 -54.9,-16.8 -19.9,4.1 -30.5,22.6 -39.6,38.9 -5.4,9.6 -11.1,18.9 -20,25.7 -10.7,8.2 -21.9,7.2 -33.4,1.5 -8.7,-4.3 -17.6,-9.2 -27.6,-7.6 -0.5,-0.3 -1.1,-0.2 -1.7,0.3 0,0 -0.1,0.1 -0.1,0.1 -6.4,1.7 -11.8,7.7 -12.5,14.1 0,0.3 0.5,0.4 0.6,0.1 1.6,-5 4.3,-7.7 7.7,-8.9 -4.8,8.4 -3.9,19.6 -2.5,29 2.2,14.5 7.3,28.6 14.4,41.3 3.3,5.9 7.2,11.3 11.5,16.4 2.7,3.2 8.2,9.8 13.3,8.4 3.9,-1.1 4.5,-4.8 4.5,-8.3 0.2,-8.3 -0.5,-16.6 -0.9,-24.9 0.5,0.4 1,0.8 1.5,1.1 2.2,1.5 6.2,1.5 8,-0.7 0.2,-0.3 0.4,-0.5 0.6,-0.8 3.5,6.4 9,12.1 12.6,18.5 4.1,7.4 7.2,15.3 9.6,23.4 -25.2,-5.6 -53.1,7.5 -67.2,29.6 z m 256.4,30.1 c 0.7,7.8 1.1,15.6 1.3,23.4 0.2,8.7 0.5,18.2 -3.5,26.2 -10.2,20.6 -33.4,7.1 -47.8,0.1 -14.1,-6.8 -29.8,-12.6 -45.3,-14.9 -8,-1.2 -16.1,-1.6 -24.2,-1.9 -8.7,-0.4 -17.2,-1.2 -25.9,-0.5 -0.3,0 -0.6,0.1 -0.9,0.2 0,-7.7 0.2,-15.5 0.7,-23 0.8,-13.4 9.1,-25.1 22.9,-25.8 0,5.4 0.5,10.7 1.9,15.6 0,0.2 0.3,0.2 0.4,0 1.9,-12.6 1.9,-25.1 5.1,-37.6 1.7,-6.8 4.1,-13.4 6.9,-19.8 2.2,-5.1 4.8,-11.6 9.6,-14.8 2.3,13.1 6.7,26.4 11.4,38.8 4.2,11.1 9.1,22.9 16.9,32 0.2,2.7 0.9,5.4 2,8 0.2,0.4 0.8,0.2 0.8,-0.2 0.3,-8.2 -0.7,-19.2 10.6,-19.7 6.8,-0.3 14.5,3.6 20.8,5.9 11.5,4.1 24.1,8.3 36.4,6.9 -0.2,0.1 -0.1,0.6 -0.1,1.1 z m -81.4,-30.2 c 5.6,4.5 11.7,8.4 17.7,12.3 -4.3,2.1 -6.6,6.5 -7,11.6 -3.2,-8.1 -7.1,-16 -10.7,-23.9 z m 53.9,-84.3 c 14.2,34.2 23,71.2 26.9,108 -18.6,0.3 -34.6,-8.8 -52.6,-12.1 -5.8,-19.3 -6.8,-39.6 -2.5,-59.4 4.1,-18.7 12.3,-34.1 22.4,-49.9 2,4.5 3.9,8.9 5.8,13.4 z M 184,228.3 c 10.5,-13.8 15.7,-31.6 29.9,-42.5 15.8,-12.2 37.9,-7.6 53.4,2.4 5.2,3.3 10,7.4 14.4,11.9 -6.8,2 -12,7.4 -13.7,14.5 -9.7,-8 -22.3,-10.5 -34.6,-7 -8.1,2.3 -19.5,10.6 -22.3,19.9 -3.2,-3.4 -8.6,-3.1 -12.6,-0.9 -4.6,2.6 -8.3,9.4 -9.5,15.3 -6.6,-6.3 -16.3,-3.4 -19.7,4.6 -0.8,-0.7 -1.7,-1.2 -2.7,-1.6 6.8,-4 12.5,-10.1 17.4,-16.6 z m -38.7,52.6 c -5.9,-3.4 -8.4,-11.8 -10.5,-17.8 -0.3,-0.8 -1.3,-0.5 -1.2,0.3 1.2,7.4 2.5,14 7.7,19.6 1.9,2.1 4.2,3.3 6.7,4 -0.1,0.2 -0.2,0.4 -0.2,0.6 0,2.6 0,9.1 -4.3,8.5 -2.4,-0.3 -4.7,-3.8 -6,-5.5 -3.7,-4.5 -6.9,-9.5 -10.2,-14.3 -0.2,-0.3 -0.6,-0.1 -0.5,0.2 1.7,5.7 4.5,12.3 8.6,17.4 -0.2,0.3 -0.3,0.7 -0.3,1.2 0.3,5.9 0.6,11.8 0.9,17.7 0.1,2.5 0.3,5 0.6,7.6 0.1,1.4 0.3,2.8 0.3,4.2 -3.9,2.1 -6.8,1.7 -8.6,-1.3 -7,-8.2 -13.2,-16.8 -18.1,-26.4 -5.1,-10.2 -8.2,-21 -9.5,-32.3 -1.1,-9.7 -1.8,-20.5 3.3,-29.1 13.3,0.2 32.6,14.3 42.4,14.9 6.2,0.4 11.8,-1 16.9,-3.5 2.1,0.5 4,1.6 5.6,3.3 0.9,1 2.4,0.1 2.5,-1 0.9,-9.1 11.3,-10.4 16.5,-4.2 0.2,0.2 0.3,0.3 0.5,0.4 0,0.4 0,0.9 0,1.3 0,0.4 0.5,0.6 0.8,0.3 3.3,-3.1 4.3,-7.6 6.3,-11.5 2.5,-4.9 9.2,-10 13.6,-4.1 0.3,0.4 0.7,0.7 1.2,0.8 0,0.3 0,0.6 0.1,0.8 0,0.3 0.4,0.6 0.7,0.3 2.9,-3.1 4.6,-7.2 7.3,-10.5 3.7,-4.7 8.8,-8.1 14.2,-10.4 11.7,-4.9 25.6,-1.5 35.2,6.4 1.2,1 2.6,0.3 2.8,-1.2 0.9,-7.7 6.7,-13.4 14.2,-14.1 6.5,7.2 12.3,15.3 17.6,23.1 -7.5,5.5 -20.1,16.3 -25.6,5.8 0,-0.1 -0.1,-0.1 -0.2,-0.2 -0.6,-1.9 -1.3,-3.9 -2.1,-5.8 -0.2,-0.4 -0.7,-0.3 -0.7,0.1 -0.2,14.5 4.4,28.7 6.8,42.8 2.3,13.4 3,28.8 7.9,41.7 -0.2,0.3 -0.3,0.7 -0.3,1.2 0.4,4.7 -13.5,-2.3 -14.5,-2.7 -3.6,-1.7 -7.1,-3.7 -10.5,-5.9 -7.8,-4.9 -14.8,-11 -21.2,-17.6 -12.7,-13.1 -20.6,-28.9 -28.8,-44.9 -0.1,-0.3 -0.5,-0.1 -0.5,0.2 1.1,7.3 3.6,14.2 6.9,20.8 0,3.4 -0.4,6.8 -0.7,10.3 -0.4,4.9 -5.3,6.4 -8.9,3.6 -1.4,-1.1 -2.7,-2.3 -3.9,-3.5 -4.6,-4.4 -7.8,-10.2 -12.6,-14.2 -0.1,-0.1 -0.2,0 -0.2,0.1 0.3,5 3.4,10.2 7.4,14.5 -8.1,8.8 -22.8,8.8 -34,9.1 -7.1,0.4 -14.8,2.8 -21.4,-1.1 z m 21.5,35.2 c -3.7,-6.9 -9.2,-16.5 -16.1,-20.9 0.8,-2.4 0.4,-4.8 -0.5,-7.6 3.8,0.7 8,0.4 11.7,0 13.2,-1.2 33.1,0.3 42.5,-11 2.5,2.2 5.1,4 7.4,5.3 9.3,5.2 10.5,-6.2 10.8,-14.2 6.6,11.3 15.7,21.4 25.2,29.7 8.7,7.6 18.5,14 28.9,19 5.6,2.7 17.5,5.7 16,-4.7 0,-0.3 -0.2,-0.6 -0.3,-0.8 -0.1,-13.1 -4.8,-27.2 -7.7,-39.8 -2.4,-10.5 -3.6,-21.6 -6.2,-32.2 1.8,1.5 4.3,2.4 7,2.4 6.6,0.1 14.9,-5 20,-10.1 0,0.1 0.1,0.1 0.1,0.2 7.5,11.3 13.9,23.4 19.8,35.8 -13.2,13.9 -21.5,34.2 -25.1,52.8 -3.8,19.8 -3.2,40.3 2.3,59.6 0,0 -0.1,-0.1 -0.1,-0.1 -8.3,-5.6 -16.6,-11.6 -25.5,-16 -0.2,-0.6 -0.5,-1.2 -0.7,-1.8 -5,-12.8 -7.8,-25.8 -10.9,-39.1 -0.3,-1.4 -1.5,-1.7 -2.5,-1.4 -0.3,0 -0.6,0 -0.9,0.1 -9.6,3.5 -14.2,16.9 -17.3,27 -15.3,-12.6 -38.5,-10 -55.5,-1.3 -4.1,-2.7 -8.4,-4.7 -12.8,-6.2 -2.1,-8.6 -5.3,-16.8 -9.6,-24.7 z m 16.9,32.8 c 0.4,0.2 0.8,0.4 1.2,0.6 -0.3,0.2 -0.6,0.3 -0.8,0.5 -20.7,13.2 -30,35.8 -32.7,59.3 -0.1,0.7 1,0.8 1.1,0.2 3.9,-20.2 14.5,-39.6 31.2,-52 8,-5.9 17.5,-9.5 27.3,-10.5 11.6,-1.2 21.1,2.4 31.6,6.8 0.1,0 0.2,0.1 0.3,0.1 -2.4,7.9 -4.3,17 -4.8,25.9 -14.7,0.4 -25.6,11.8 -28.1,26.1 -1.5,8.7 -0.5,18.1 -0.8,26.9 -0.3,10.7 0.6,21.1 1.4,31.7 1.4,19.7 -9.8,37.2 -25.8,47.9 -16.2,10.8 -37.4,11.4 -54.6,2.8 C 90,495.3 94.3,441.4 99.8,404.4 c 2.9,-19.7 10.2,-37.4 26.8,-49.2 16.6,-11.6 38.4,-14.4 57.1,-6.3 z"
     id="path100" />
</g>
<g
   id="g1308">
  <path
     fill="#c67580"
     d="m 1122.1,270.4 c 0.6,-5 5.8,-10 10.2,-11.3 5.5,-1.6 12.2,5.3 14.7,10 4.1,-7.3 11.9,-12.7 20.6,-11.9 9.6,0.9 20.6,6.8 24.7,16 0,0 0,0 0,0 3.6,-2 7.9,-5.1 12.1,-2.5 1.2,0.7 2,1.6 2.7,2.5 0.1,-0.1 0.2,-0.1 0.4,-0.2 5.4,-2 14.7,-0.5 18.6,4.6 4.5,-4.8 13,-5.4 18.1,-1.6 2.6,-3.3 6.6,-8.4 11.3,-7.7 2.3,0.3 3.7,1.7 4.7,3.4 2.8,-3.3 6.8,-7.1 11.5,-5.6 1,0.3 1.9,0.8 2.6,1.5 0.7,-6.2 5.6,-11.2 11,-14 4.5,-2.3 8.9,-2.6 13.3,-1.6 -9.1,-4.2 -20.9,-4.8 -29.8,-0.1 -7.3,3.8 -13,9.6 -19.7,14.3 -14.7,10.3 -30.7,8.7 -45.5,-0.9 -15.3,-10 -29.8,-27.8 -50,-25.4 -15.6,1.9 -28.7,12.1 -40.6,22.4 1.5,0.4 3,1.1 4.3,2.1 2.5,1.5 3.8,3.6 4.8,6 z"
     id="path58" />
  <path
     fill="#492630"
     d="m 1020.8,380.2 c 0.3,-0.3 0.6,-0.6 1,-0.9 22.8,-14.7 49.6,-26.1 77.1,-26.2 5.2,0 10.5,0.4 15.9,1.2 -9.5,-22 -21.4,-43.9 -44.7,-53.1 -0.2,0 -0.4,-0.1 -0.6,-0.1 -17.6,16.2 -34.7,33 -50.2,51.2 -3.1,8.2 -5.9,16.4 -7.8,24.9 3,0.9 6.2,1.9 9.3,3 z"
     id="path62" />
  <path
     fill="#c67580"
     d="m 1005.1,390.8 c 1.5,-10.4 3.9,-20.7 7.5,-30.6 -11.6,14.3 -22.3,29.2 -31.7,45 -5.1,8.6 -9.9,17.2 -13.9,26.4 -2.8,6.6 -5,13.4 -7.7,20 5.9,-3.4 12.7,-5.9 18.1,-7.7 6.7,-2.2 13.2,-4.9 20.1,-6.6 3,-0.7 6.7,-2.2 9.7,-2.3 0.8,0 1.5,0 2.3,0 1.5,-0.3 2.9,-0.6 4.4,-0.9 -10.4,-11.7 -11,-28.6 -8.8,-43.3 z"
     id="path68" />
  <path
     fill="#d5214a"
     d="m 1207.3,406 c 3,-6.3 7.9,-12.6 14.1,-10.7 2,0.6 3.2,2.6 4,4.8 2,-1 4,-2 6,-2.7 -9.1,-8.6 -18.8,-16.7 -28.4,-24.7 0.1,0.7 0.3,1.5 0.4,2.2 1.1,6.2 2.2,12.4 2.9,18.6 0.5,4.2 0.8,8.3 1,12.5 z"
     id="path70" />
  <path
     fill="#932944"
     d="m 1245.2,315.9 c -3.1,0.7 -7.2,2.1 -10.3,1 -3.4,-1.2 -5.7,-3.3 -8.8,-5.2 -4.7,-2.8 -9.1,-3.5 -14.4,-2.2 0,0 -0.1,0 -0.1,0 -0.3,0.5 -0.7,1 -1.3,1.2 -2.2,1 -4.2,0.6 -6.3,-0.5 -3.5,-1.7 -6.9,-2.1 -10.8,-1.7 -0.1,0 -0.2,0 -0.3,0 -1.1,6.3 -2.6,12.6 -4.5,18.8 -2,6.4 -4.4,12.9 -7.3,19 -1.4,3 -3.7,6.9 -7.5,7.1 -10.1,0.7 -10.9,-15.7 -13.5,-22.4 -4.8,-12.3 -11.6,-23.2 -18.5,-34.3 -0.3,0.5 -0.7,1 -1.1,1.5 -4.9,4.8 -11,4.2 -17,2 -8.8,-3.3 -16.8,-6.3 -26.4,-5.9 -8,0.4 -14.8,2.5 -22.1,5.2 25,5.9 37.6,33.8 46.9,55.7 0.1,0.1 0.1,0.2 0.1,0.4 9.9,2.2 19.6,5.8 28.2,11 11.2,-5 26.9,-4.9 38.3,0.3 2.8,-3.9 6.4,-6.8 10.2,-3.5 2.2,1.9 3.2,4.5 3.8,7.2 6.8,3.2 12.9,6.7 19,11.4 6,4.6 11.7,9.5 17.2,14.5 0.1,0.1 0.2,0.2 0.3,0.3 1.2,0.3 2.5,0.8 3.7,1.6 0.7,0.5 1.3,1 1.8,1.6 3.7,-2 7.8,0.9 12.3,0.7 1.2,-0.1 2.7,-0.5 4.3,-1.1 -11.4,-12.7 -20.4,-28.7 -20.3,-46.1 0.1,-12 4.6,-29.1 15.2,-37.1 -3.5,-0.8 -7.1,-1.4 -10.8,-0.5 z"
     id="path72" />
  <path
     fill="#ffeeb3"
     d="m 1282.8,258.7 c -3.3,2.9 -5.2,6.3 -7.2,10 1.5,1.9 2.3,4.4 2.5,6.7 0,0.3 -0.4,0.3 -0.5,0.1 -1.8,-2.7 -3.2,-7.2 -7.1,-7.3 -4,-0.1 -6.5,2.5 -8.9,5.3 -0.1,0.1 -0.2,0.2 -0.3,0.2 0.5,1.3 0.9,2.6 1.3,3.7 0.2,0.5 -0.6,0.7 -0.8,0.2 -1.3,-3.4 -4.8,-8.2 -9,-5.8 -2.6,1.5 -4.6,3.9 -6.3,6.3 0,0 0,0 0,0 0.9,1.2 1.6,2.6 2,4.3 0,0.2 -0.2,0.5 -0.4,0.3 -2.3,-2.4 -5.2,-5.1 -8.6,-5.7 -3.8,-0.6 -7.8,1.4 -10.5,3.9 -0.3,0.3 -0.6,0.4 -0.9,0.5 0.1,0.7 0.2,1.5 0.1,2.3 0,0.3 -0.3,0.4 -0.5,0.2 -2.2,-2.1 -3.8,-5 -6.6,-6.5 -4,-2.2 -8.1,-2.2 -12.3,-0.6 0.2,1 0.4,2.1 0.4,3.2 0,0.4 -0.5,0.5 -0.7,0.2 -1.2,-2.3 -3.1,-6.2 -5.9,-6.8 -3.1,-0.7 -6.2,0.6 -8.7,2.3 -0.2,0.1 -0.3,0.2 -0.5,0.2 0.2,0.6 0.3,1.2 0.5,1.9 0.1,0.4 -0.5,0.9 -0.8,0.5 -6.1,-7.3 -12.8,-14.8 -22.8,-16.3 -11.3,-1.7 -21.3,6 -25.7,15.9 0,0.1 -0.2,0 -0.1,0 0.2,-2.1 0.8,-4.1 1.6,-6.1 0,0 0,0 0,0 -3,-2.7 -5.7,-5.9 -9.3,-7.9 -6.6,-3.6 -11.6,3.6 -13.7,8.8 0.1,0.2 0.1,0.4 0.2,0.6 0.1,0.5 -0.5,0.8 -0.8,0.5 -3.5,-3.7 -7.7,-8.6 -13.2,-7.6 -1.9,1.7 -3.9,3.4 -5.7,5.1 -6.9,6 -13.8,12 -20.6,18.1 7.6,-2 15.7,-2.2 23.1,-1.3 6.4,0.8 12.3,3 18.1,5.8 4.4,2.2 12.8,5 15,-1.8 -0.1,-0.6 0.1,-1.2 0.4,-1.7 0.5,-3.1 0,-6 0.3,-9.1 0,-0.3 0.4,-0.5 0.6,-0.2 1.5,2.3 2.7,6 2.8,9.5 6.7,8.5 12.5,18.1 17.2,27.8 2.1,4.4 4.2,8.9 5.8,13.6 1.6,4.4 2.2,11.3 5,15.1 3.7,5 9.5,-12.6 10.1,-14.1 1.9,-5.4 3.9,-10.8 5.4,-16.3 3,-11 5.3,-22.2 7.4,-33.4 0.1,-0.5 0.8,-0.3 0.8,0.1 0.3,6.9 0,13.8 -0.9,20.5 4.6,-0.3 9.4,0.5 13.5,2.7 3,1.6 2.5,-4.1 2.5,-5.9 0.1,-2.6 0.2,-5.2 0.4,-7.8 0,-0.2 0.3,-0.2 0.4,0 0.4,4 0.9,8 1.5,12 4.9,-0.9 9.5,-0.5 14.2,1.4 2.7,1.1 4.6,3.2 7.2,4.6 4.4,2.4 8.3,0.6 12.7,-0.2 3.7,-0.6 18.5,3.3 19.5,-1.4 1.5,-7 0.7,-14 0.6,-21.1 0,-0.1 0.2,-0.2 0.2,-0.1 1,2.1 2.4,6.9 3.1,11.9 0.2,0 0.5,-0.1 0.7,-0.1 2.4,0 4.8,0.4 7,1.3 2.1,0.8 3.9,2.9 3.8,-1.2 -0.2,-5.2 -0.7,-10.4 -1,-15.7 0,-0.2 0.3,-0.2 0.3,0 1.3,3.4 2.3,6.8 2.7,10.4 5,8.7 7.2,19.6 8.8,29.4 0.4,2.6 0.8,5.1 1,7.7 0.3,3.6 3.1,4.8 4.5,0.9 1.7,-4.6 3.3,-9.2 4.7,-13.9 3.4,-11.5 5.7,-23.4 5.6,-35.5 -0.1,-9.4 -0.5,-19.1 -4.9,-27.4 -6.6,-2.6 -15.1,-1.8 -20.3,2.8 z"
     id="path74" />
  <path
     fill="#ffeeb3"
     d="m 1256.8,405.2 c -2.5,-0.2 -7.9,-2.7 -10.3,-1.3 1,3.6 0.6,8 0.2,11.2 -0.1,0.5 -0.7,0.8 -1,0.3 -1,-2 -1.7,-4.2 -2.4,-6.3 -0.6,-2 -1,-4.8 -2.6,-6.3 -1,-0.9 -2,-1.4 -3.2,-1.7 -0.7,0.2 -1.5,0.2 -2.2,-0.2 -3,0.2 -6.1,1.8 -8.6,3.2 -0.1,0 -0.2,0.1 -0.2,0.1 0.1,0.7 0.3,1.3 0.4,1.8 1.3,5.7 1.6,11.2 1.2,17.1 0,0.6 -1,0.6 -1,0 -0.5,-7 -2.3,-14.6 -6,-20.7 -4.9,-8.1 -12.1,8.7 -13,12 -0.1,0.3 -0.2,0.5 -0.3,0.7 0.1,6.5 -0.2,12.9 -0.8,19.5 -0.1,1.2 -1.8,1.2 -1.9,0 -0.7,-12.1 -1.7,-24.2 -3.1,-36.2 -0.8,-6.6 -1.8,-13.2 -3,-19.8 -0.6,-3.1 -1.8,-14.7 -7.1,-8.1 -10.4,13 -13.6,33.2 -30.6,39.6 -0.1,0.1 -0.3,0.1 -0.4,0.1 -0.8,1.7 -2.1,3.3 -3.9,4.7 -0.3,0.3 -0.8,0 -0.7,-0.4 1.4,-5.1 3,-12.8 -5,-13.9 -3.2,-0.4 -6.5,-0.2 -9.8,-0.2 -6.5,0.1 -13,0.1 -19.5,0 -13,-0.1 -26,-0.1 -38.9,-1 -24.1,-1.6 -50.9,-5.3 -72.9,-16 -0.1,0.3 -0.1,0.6 -0.2,0.9 -2.9,16.9 -3.9,35.3 8.8,48.5 9.8,-1.7 19.7,-2.6 29.8,-2.6 29.8,0 59.4,2.6 89,6.2 32.6,4 65.3,8.4 98.2,8.6 16.2,0.1 33.1,-0.1 48.9,-3.5 5,-1.1 10.2,-2.7 14.9,-4.9 3.8,-17.6 3.6,-36.2 -1.1,-53.6 -1.2,-4.5 -2.6,-9.1 -4.4,-13.4 -3.2,-7.9 -5.3,0.4 -6.1,4 -2.1,8.5 -3.9,17 -6.8,25.2 2.8,0.3 5.5,1.6 7,4 3.3,5.4 1.1,10.8 1.1,16.7 0,0.6 -0.9,0.7 -1,0.1 -0.9,-3.9 -0.4,-8.3 -1.8,-12 -1,-2.6 -2.9,-4.3 -5.9,-3.6 -0.8,0.2 -1.5,0.4 -2.3,0.5 1.6,5.9 0,13.8 -0.6,18.9 -0.1,0.6 -0.9,0.6 -0.9,0 0.1,-5 -1,-10.4 -2.3,-15.3 -1,-3.8 -2.8,-6 -6.1,-5.6 -0.7,0.5 -1.6,0.8 -2.5,0.7 0,0 -0.1,0 -0.1,0 -3,1.3 -6.1,2.3 -9,2 z"
     id="path76" />
  <path
     fill="#d5214a"
     d="m 1165.7,380.5 c 0,0 -0.1,-0.1 -0.1,-0.1 -0.2,0.2 -0.5,0.3 -0.8,0.1 -10.2,-7.3 -20.7,-13.8 -33,-16.9 -11.3,-2.8 -23.4,-4 -35,-3.1 -24,1.8 -46.2,10.5 -66.5,22.8 8.9,2.8 17.8,5.3 27.2,6.9 16.4,2.8 33.2,4.5 49.8,5.3 8.1,0.4 16.2,0.5 24.4,0.5 6.7,0 14.1,-1 20.8,0.3 6.5,1.3 9.8,5.6 9.4,10.4 12.6,-6 16.2,-19.4 21.8,-31.1 0.6,-1.2 1.6,-3.3 2.8,-5.5 -5.4,-0.5 -10.7,-1.5 -16.1,-1.7 -5.7,-0.2 -11.4,0.3 -17.1,0.2 4.6,3.1 8.8,6.7 12.4,10.8 0.2,0.2 0.2,0.4 0.2,0.6 0.1,0.1 0.2,0.2 0.2,0.2 0.2,0.1 -0.1,0.5 -0.4,0.3 z"
     id="path78" />
  <path
     d="m 1287.4,241.5 c -18.5,-2.9 -29.9,9.3 -43.7,18.9 -19,13.2 -37.2,-2.7 -52.1,-14.2 -14.3,-10.9 -29,-17.4 -47,-12 -17.3,5.1 -31.1,18.6 -44.5,30 -15.8,13.4 -31.4,27 -46.6,41.1 -28.8,26.8 -54.9,56.4 -75,90.4 -5.8,9.9 -10.5,20.6 -15,31.1 -3.8,8.9 -7.8,18.3 -9.2,28 -3.1,2.3 -5.7,5 -7.4,8.1 0,0.1 0,0.2 0.1,0.2 4.7,-0.6 9.1,-3.3 13.3,-5.3 6.3,-3.1 12.7,-6.1 18.9,-9.3 1.3,-0.7 2.6,-1.3 4,-1.8 53.6,-20 114.8,-7.8 170.1,-1.8 33.5,3.6 67.1,7.1 100.8,5.4 19.6,-1 56.2,-1.3 61.5,-26 0.1,-0.5 -0.5,-0.8 -0.8,-0.3 -2.6,4 -5.9,7.3 -9.8,9.8 3.7,-22.7 1.3,-45.8 -7.5,-67.2 -2.4,-5.7 -8,-8.3 -11.9,-2.4 -2.8,4.3 -3.2,11.4 -4.4,16.4 -1.5,6.3 -2.9,12.4 -3.8,18.8 -0.7,0.2 -1.5,0.4 -2.1,0.7 -0.9,-1 -2.1,-1.8 -3.6,-2.4 -1.1,-0.4 -2.4,-0.4 -3.8,-0.2 -11.5,-11.2 -19.5,-25.7 -20.4,-41.9 -0.5,-7.9 1.3,-16 4.7,-23.1 2.7,-5.8 7.1,-10 11,-14.8 5.4,-0.2 7,-5.6 6.8,-11.8 0.3,0 0.6,0 1,-0.2 2.1,-0.8 3.8,-0.8 5.8,0.1 1,0.4 2,1.2 3.2,1.2 2,0 3.1,-1.1 3.8,-2.9 0.1,-0.3 0.2,-0.7 0.2,-1.1 1.1,4.1 2.4,8.2 3.4,12.3 1.9,7.7 2.5,15.6 4.1,23.4 0.4,2.2 2.1,2.7 4,2.4 3.6,-0.6 6.5,-10.8 7.8,-13.5 8.7,-19.5 15,-47.2 5.5,-67.9 3.2,3.5 5.7,7.7 7,11.8 0.3,0.9 1.7,0.5 1.4,-0.4 -3.9,-14.8 -14.1,-27.1 -29.8,-29.6 z m -133.6,-1.7 c 20.2,-2.5 34.7,15.4 50,25.4 14.7,9.6 30.8,11.1 45.5,0.9 6.7,-4.7 12.4,-10.4 19.7,-14.3 8.9,-4.7 20.7,-4.1 29.8,0.1 -4.4,-1 -8.8,-0.7 -13.3,1.6 -5.4,2.8 -10.2,7.8 -11,14 -0.8,-0.6 -1.6,-1.1 -2.6,-1.5 -4.7,-1.4 -8.6,2.3 -11.5,5.6 -1,-1.7 -2.4,-3.1 -4.7,-3.4 -4.7,-0.6 -8.7,4.4 -11.3,7.7 -5.1,-3.8 -13.6,-3.1 -18.1,1.6 -3.9,-5.1 -13.3,-6.6 -18.6,-4.6 -0.1,0.1 -0.3,0.1 -0.4,0.2 -0.7,-0.9 -1.5,-1.8 -2.7,-2.5 -4.2,-2.5 -8.6,0.5 -12.1,2.5 0,0 0,0 0,0 -4.1,-9.2 -15.2,-15.1 -24.7,-16 -8.7,-0.8 -16.5,4.6 -20.6,11.9 -2.5,-4.7 -9.2,-11.6 -14.7,-10 -4.4,1.3 -9.6,6.3 -10.2,11.3 -1,-2.4 -2.3,-4.5 -4.6,-6.1 -1.4,-1 -2.8,-1.7 -4.3,-2.1 11.7,-10.2 24.8,-20.4 40.4,-22.3 z m -84.4,61.2 c 0.2,0.1 0.4,0.1 0.6,0.1 23.3,9.2 35.2,31.1 44.7,53.1 -5.4,-0.8 -10.7,-1.2 -15.9,-1.2 -27.5,0.1 -54.3,11.5 -77.1,26.2 -0.4,0.3 -0.7,0.6 -1,0.9 -3.1,-1 -6.2,-2.1 -9.3,-3.1 2,-8.5 4.7,-16.8 7.8,-24.9 15.6,-18.1 32.6,-34.9 50.2,-51.1 z m 96.7,79.1 c -0.1,-0.1 -0.2,-0.2 -0.2,-0.2 0,-0.2 0,-0.4 -0.2,-0.6 -3.6,-4.1 -7.8,-7.7 -12.4,-10.8 5.7,0 11.4,-0.4 17.1,-0.2 5.4,0.2 10.7,1.2 16.1,1.7 -1.3,2.2 -2.2,4.3 -2.8,5.5 -5.7,11.7 -9.3,25.1 -21.8,31.1 0.4,-4.7 -2.9,-9.1 -9.4,-10.4 -6.6,-1.3 -14.1,-0.3 -20.8,-0.3 -8.1,0 -16.3,-0.1 -24.4,-0.5 -16.7,-0.8 -33.4,-2.5 -49.8,-5.3 -9.4,-1.6 -18.3,-4.1 -27.2,-6.9 20.4,-12.3 42.6,-21 66.5,-22.8 11.6,-0.9 23.7,0.3 35,3.1 12.3,3.1 22.8,9.6 33,16.9 0.3,0.2 0.6,0.1 0.8,-0.1 0,0 0.1,0.1 0.1,0.1 0.3,0.3 0.6,-0.1 0.4,-0.3 z m -156.7,54.8 c -0.8,0 -1.5,0 -2.3,0 -3.1,0 -6.7,1.6 -9.7,2.3 -6.8,1.7 -13.4,4.4 -20.1,6.6 -5.4,1.8 -12.1,4.3 -18.1,7.7 2.7,-6.6 4.9,-13.5 7.7,-20 3.9,-9.2 8.7,-17.8 13.9,-26.4 9.5,-15.8 20.1,-30.7 31.7,-45 -3.6,9.9 -6,20.2 -7.5,30.6 -2.2,14.8 -1.6,31.7 8.8,43.2 -1.5,0.3 -2.9,0.7 -4.4,1 z m 256.2,-31.5 c 0.9,0.1 1.7,-0.2 2.5,-0.7 3.3,-0.4 5.1,1.8 6.1,5.6 1.3,4.9 2.4,10.2 2.3,15.3 0,0.6 0.8,0.6 0.9,0 0.7,-5.1 2.2,-13 0.6,-18.9 0.7,-0.1 1.5,-0.3 2.3,-0.5 3,-0.8 4.9,1 5.9,3.6 1.5,3.7 0.9,8.1 1.8,12 0.1,0.6 1,0.4 1,-0.1 0,-5.8 2.2,-11.3 -1.1,-16.7 -1.5,-2.4 -4.2,-3.7 -7,-4 2.9,-8.2 4.7,-16.7 6.8,-25.2 0.9,-3.6 2.9,-11.9 6.1,-4 1.8,4.4 3.2,8.9 4.4,13.4 4.8,17.4 4.9,36 1.1,53.6 -4.7,2.3 -9.8,3.8 -14.9,4.9 -15.9,3.5 -32.8,3.7 -48.9,3.5 -32.9,-0.2 -65.6,-4.6 -98.2,-8.6 -29.5,-3.6 -59.2,-6.2 -89,-6.2 -10.1,0 -20,0.9 -29.8,2.6 -12.7,-13.2 -11.6,-31.5 -8.8,-48.5 0,-0.3 0.1,-0.6 0.2,-0.9 22,10.7 48.9,14.4 72.9,16 13,0.8 26,0.8 38.9,1 6.5,0.1 13,0 19.5,0 3.3,0 6.5,-0.2 9.8,0.2 8,1.1 6.3,8.8 5,13.9 -0.1,0.4 0.4,0.7 0.7,0.4 1.8,-1.4 3,-3.1 3.9,-4.7 0.1,0 0.2,0 0.4,-0.1 17,-6.4 20.2,-26.7 30.6,-39.6 5.3,-6.7 6.5,5 7.1,8.1 1.3,6.5 2.3,13.2 3,19.8 1.4,12 2.4,24.1 3.1,36.2 0.1,1.2 1.8,1.2 1.9,0 0.6,-6.5 0.9,-13 0.8,-19.5 0.1,-0.2 0.3,-0.4 0.3,-0.7 0.9,-3.4 8.1,-20.1 13,-12 3.7,6.1 5.5,13.6 6,20.7 0,0.6 1,0.6 1,0 0.4,-5.9 0.1,-11.4 -1.2,-17.1 -0.1,-0.5 -0.2,-1.1 -0.4,-1.8 0.1,0 0.2,-0.1 0.2,-0.1 2.5,-1.4 5.6,-3 8.6,-3.2 0.7,0.4 1.5,0.4 2.2,0.2 1.1,0.3 2.2,0.8 3.2,1.7 1.6,1.4 2,4.3 2.6,6.3 0.7,2.2 1.4,4.3 2.4,6.3 0.3,0.5 0.9,0.2 1,-0.3 0.4,-3.3 0.8,-7.6 -0.2,-11.2 2.4,-1.4 7.8,1 10.3,1.3 2.9,0.3 6,-0.7 8.7,-1.8 0.3,-0.2 0.3,-0.2 0.4,-0.2 z M 1203,372.6 c 9.6,8 19.3,16.1 28.4,24.7 -2,0.7 -4,1.7 -6,2.7 -0.8,-2.2 -2,-4.2 -4,-4.8 -6.2,-1.8 -11.1,4.5 -14.1,10.7 -0.2,-4.2 -0.6,-8.4 -1.1,-12.6 -0.7,-6.2 -1.8,-12.4 -2.9,-18.6 -0.1,-0.6 -0.2,-1.3 -0.3,-2.1 z m 37.8,-19.2 c -0.1,17.4 8.9,33.5 20.3,46.1 -1.6,0.6 -3.1,1.1 -4.3,1.1 -4.4,0.2 -8.5,-2.6 -12.3,-0.7 -0.5,-0.6 -1.1,-1.1 -1.8,-1.6 -1.2,-0.8 -2.4,-1.3 -3.7,-1.6 -0.1,-0.1 -0.2,-0.2 -0.3,-0.3 -5.5,-5.1 -11.3,-10 -17.2,-14.5 -6.2,-4.7 -12.3,-8.2 -19,-11.4 -0.6,-2.7 -1.6,-5.3 -3.8,-7.2 -3.8,-3.2 -7.4,-0.4 -10.2,3.5 -11.4,-5.1 -27,-5.2 -38.3,-0.3 -8.5,-5.2 -18.3,-8.8 -28.2,-11 0,-0.1 -0.1,-0.2 -0.1,-0.4 -9.3,-22 -21.9,-49.9 -46.9,-55.7 7.2,-2.7 14,-4.8 22.1,-5.2 9.6,-0.4 17.6,2.5 26.4,5.9 6,2.3 12.1,2.9 17,-2 0.4,-0.4 0.8,-0.9 1.1,-1.5 6.9,11.1 13.7,22 18.5,34.3 2.6,6.7 3.4,23 13.5,22.4 3.8,-0.2 6.1,-4.1 7.5,-7.1 2.9,-6.1 5.3,-12.5 7.3,-19 1.9,-6.2 3.4,-12.4 4.5,-18.8 0.1,0 0.2,0 0.3,0 3.9,-0.5 7.2,-0.1 10.8,1.7 2.2,1.1 4.1,1.5 6.3,0.5 0.6,-0.3 1,-0.7 1.3,-1.2 0,0 0.1,0 0.1,0 5.3,-1.3 9.7,-0.6 14.4,2.2 3,1.8 5.3,4 8.8,5.2 3.1,1.1 7.3,-0.3 10.3,-1 3.7,-0.8 7.3,-0.3 10.8,0.4 -10.5,8.1 -15.1,25.2 -15.2,37.2 z m 61.3,-34.5 c -1.4,4.7 -3,9.3 -4.7,13.9 -1.4,3.8 -4.1,2.7 -4.5,-0.9 -0.2,-2.6 -0.6,-5.2 -1,-7.7 -1.6,-9.7 -3.8,-20.7 -8.8,-29.4 -0.4,-3.6 -1.4,-7.1 -2.7,-10.4 -0.1,-0.2 -0.3,-0.2 -0.3,0 0.3,5.2 0.8,10.4 1,15.7 0.1,4.1 -1.7,2 -3.8,1.2 -2.2,-0.9 -4.6,-1.3 -7,-1.3 -0.3,0 -0.5,0 -0.7,0.1 -0.7,-5 -2.2,-9.8 -3.1,-11.9 -0.1,-0.1 -0.2,-0.1 -0.2,0.1 0.1,7.1 0.9,14.1 -0.6,21.1 -1,4.7 -15.8,0.8 -19.5,1.4 -4.4,0.7 -8.4,2.5 -12.7,0.2 -2.5,-1.4 -4.4,-3.5 -7.2,-4.6 -4.7,-1.9 -9.4,-2.3 -14.2,-1.4 -0.5,-4 -1,-8 -1.5,-12 0,-0.2 -0.4,-0.2 -0.4,0 -0.1,2.6 -0.2,5.2 -0.4,7.8 -0.1,1.8 0.4,7.5 -2.5,5.9 -4.1,-2.1 -8.9,-2.9 -13.5,-2.7 0.9,-6.8 1.2,-13.7 0.9,-20.5 0,-0.4 -0.7,-0.6 -0.8,-0.1 -2.1,11.2 -4.4,22.4 -7.4,33.4 -1.5,5.5 -3.4,11 -5.4,16.3 -0.5,1.5 -6.4,19 -10.1,14.1 -2.8,-3.7 -3.4,-10.7 -5,-15.1 -1.7,-4.6 -3.7,-9.1 -5.8,-13.6 -4.7,-9.7 -10.5,-19.3 -17.2,-27.8 -0.1,-3.5 -1.4,-7.2 -2.8,-9.5 -0.2,-0.3 -0.6,-0.2 -0.6,0.2 -0.3,3.1 0.2,6 -0.3,9.1 -0.4,0.5 -0.5,1.1 -0.4,1.7 -2.2,6.8 -10.5,3.9 -15,1.8 -5.8,-2.8 -11.7,-5 -18.1,-5.8 -7.3,-0.9 -15.5,-0.7 -23.1,1.3 6.8,-6.1 13.7,-12.1 20.6,-18.1 1.9,-1.6 3.8,-3.3 5.7,-5.1 5.5,-1 9.7,4 13.2,7.6 0.3,0.3 0.9,0 0.8,-0.5 -0.1,-0.2 -0.1,-0.4 -0.2,-0.6 2.1,-5.2 7.1,-12.4 13.7,-8.8 3.6,2 6.3,5.2 9.3,7.9 0,0 0,0 0,0 -0.8,2 -1.4,4 -1.6,6.1 0,0.1 0.1,0.1 0.1,0 4.4,-10 14.4,-17.6 25.7,-15.9 10,1.5 16.7,9 22.8,16.3 0.4,0.4 0.9,0 0.8,-0.5 -0.1,-0.6 -0.3,-1.2 -0.5,-1.9 0.2,0 0.3,-0.1 0.5,-0.2 2.5,-1.7 5.7,-3 8.7,-2.3 2.8,0.6 4.7,4.5 5.9,6.8 0.2,0.3 0.7,0.2 0.7,-0.2 0,-1.1 -0.2,-2.2 -0.4,-3.2 4.2,-1.5 8.3,-1.6 12.3,0.6 2.8,1.5 4.3,4.4 6.6,6.5 0.2,0.2 0.5,0 0.5,-0.2 0.1,-0.8 0,-1.6 -0.1,-2.3 0.3,-0.1 0.6,-0.2 0.9,-0.5 2.7,-2.5 6.6,-4.5 10.5,-3.9 3.4,0.5 6.3,3.3 8.6,5.7 0.2,0.2 0.5,0 0.4,-0.3 -0.3,-1.7 -1,-3.1 -2,-4.3 0,0 0,0 0,0 1.8,-2.4 3.7,-4.8 6.3,-6.3 4.2,-2.4 7.7,2.5 9,5.8 0.2,0.5 0.9,0.3 0.8,-0.2 -0.4,-1.2 -0.8,-2.5 -1.3,-3.7 0.1,-0.1 0.2,-0.1 0.3,-0.2 2.5,-2.7 5,-5.4 8.9,-5.3 4,0.1 5.3,4.6 7.1,7.3 0.1,0.2 0.5,0.1 0.5,-0.1 -0.2,-2.3 -1,-4.8 -2.5,-6.7 2,-3.7 3.9,-7.1 7.2,-10 5.2,-4.6 13.7,-5.4 20.1,-2.6 4.4,8.3 4.8,18 4.9,27.4 0.3,11.9 -1.9,23.8 -5.4,35.3 z"
     id="path102" />
</g>
<g
   id="g1367">
  <path
     fill="#ffeeb3"
     d="m 806.8,743.7 c 6.5,7.9 12.1,16.7 17.2,25.5 0.3,0.5 0.6,1.1 0.9,1.6 0,0 0,0 0,-0.1 0.4,-2.4 0.6,-4.9 0.9,-7.3 0.9,-6.4 1.7,-12.9 2.3,-19.4 0.9,-11.1 1.1,-22.2 0.7,-33.3 -4.8,0.4 -9.6,0.5 -14.2,0.3 -4.9,-0.2 -9.8,-0.5 -14.6,-1 -6.4,1.8 -11.2,8.3 -12.3,14.7 7.5,4.5 13.8,12.6 19.1,19 z"
     id="path4" />
  <path
     fill="#ffeeb3"
     d="m 698.4,778 c 1,3 3,7.6 7,7.1 1.9,-0.3 3.8,-1.3 5.3,-2.7 0,-1.3 0.8,-2.5 2.1,-3 0.3,-0.8 0.5,-1.6 0.4,-2.4 0,-0.8 1,-0.8 1.3,-0.2 0.3,0.9 0.5,1.7 0.7,2.5 7,1.3 14.4,0.9 21,-1.8 3.7,-1.5 8.9,-6.7 13.1,-6.4 6.4,0.4 15.3,8.8 17.1,-2.8 0.8,-5.6 -0.1,-10.9 2.1,-16.3 0.3,-0.8 1.5,-0.7 1.5,0.2 0,1.2 0.1,2.4 0.3,3.7 0.2,0.1 0.4,0.2 0.6,0.3 4.7,3.4 9,7.7 12.5,12.3 1.3,1.7 2.5,3.2 3.4,5.2 0.2,0.2 0.4,0.4 0.5,0.6 0.8,-3.6 1.5,-7.3 1.7,-11 0.4,-8.9 -0.8,-17.5 -2.8,-26.1 -1.1,-4.6 -2.6,-9.3 -3.5,-14 -3.4,-2.1 -5.4,-2.3 -8.3,1.5 -2.4,3.2 -4.9,7.1 -3.8,11.4 0.5,2.2 -2.5,4.4 -4.1,2.4 -3.2,-4.1 -9.4,-9.5 -14.1,-3.5 -1.9,2.5 -3.5,5.2 -5.4,7.6 -0.4,0.5 -1.2,0.1 -1.1,-0.5 0,-0.1 0,-0.1 0,-0.2 -0.6,0 -1.2,-0.2 -1.8,-0.7 -4,-3.8 -9.8,-6.9 -15.5,-4.7 -5.8,2.2 -6.7,6.6 -10.1,10.9 -0.4,0.6 -1.3,0.2 -1.5,-0.4 -0.1,-0.4 -0.2,-0.8 -0.2,-1.2 -3.4,-2 -5,-6.6 -9.2,-7.3 -5.5,-1 -9.1,2.4 -12.1,6.5 0,0.1 -0.1,0.1 -0.1,0.2 -0.2,0.3 -0.4,0.5 -0.5,0.8 -0.3,0.5 -1.2,0.4 -1.4,-0.1 -0.2,0 -0.4,-0.1 -0.5,-0.2 -4.7,-2.7 -8.8,-6.3 -14.6,-5.8 -5.9,0.5 -12.8,3.5 -15.2,9.4 -0.3,0.8 -1.1,1.4 -1.8,1.5 3.1,6.8 5.2,13.9 7.6,21.1 2.7,7.9 5.4,15.9 8.1,23.9 2.5,-5.8 4.9,-11.6 6.7,-17.6 2.2,-7 3.7,-14.3 6.4,-21 0.3,-0.8 1.4,-0.7 1.5,0.2 0.3,2.7 0.3,5.5 0.2,8.3 3.6,3.2 4.8,7.6 6.5,12.3 z"
     id="path6" />
  <path
     fill="#c67580"
     d="m 661.2,745.1 c 4.6,-5.1 9.4,-10 17,-10.3 6.1,-0.2 12.8,1.5 16.2,6.7 1.8,-4.2 5.6,-7.4 10.6,-7.7 4.7,-0.3 10,2.6 12.7,6.7 2.2,-4.3 7,-8.1 10.9,-9.1 6.7,-1.8 13.7,0 18.1,5.1 1.3,-4.1 3.9,-8 7.9,-9 5.2,-1.4 9,0.4 12.2,3.6 1.2,-6 2.6,-11.9 8.9,-14.9 2,-0.9 4.2,-0.2 6,1.2 0,-0.2 0,-0.3 0,-0.5 0,-0.5 0.6,-0.6 0.8,-0.2 1.1,1.7 2,3.5 2.9,5.4 0.9,-5.4 3.6,-9.5 7.7,-12.7 -29.2,-3 -58,-8 -86.9,1.2 -16,5.1 -31.2,12.3 -47,17.9 -12.2,4.3 -24.8,7.5 -37.6,9.1 1.2,2.1 2,4.3 2.3,6.7 8.9,-13.6 28.4,-12.1 37.3,0.8 z"
     id="path10" />
  <path
     fill="#932944"
     d="m 879.4,691.7 c -0.4,0.5 -1,0.6 -1.5,0.7 -11.2,9.4 -25.5,14.9 -40.2,17.3 0.1,3.7 0.2,7.3 0.1,11 9.3,8.3 17,19.6 23.2,30.6 11.7,-22.3 20.7,-45.9 27.3,-70.2 -1.1,1.6 -2.3,3.1 -3.6,4.6 -1.6,2.1 -3.4,4.1 -5.3,6 z"
     id="path16" />
  <path
     fill="#c67580"
     d="m 805.5,809.3 c -1.4,4.3 -5.2,8.5 -8.6,10.1 -7,3.3 -14.6,2.2 -20.4,-2.8 -1,1.4 -2.2,2.6 -3.5,3.4 -4.6,2.9 -10.2,1.9 -14.5,-1.1 -5.1,4.8 -15,2.7 -20.5,-3 -3,5.3 -11.2,8.5 -16.7,7.8 -4.7,-0.6 -9,-2.4 -12.1,-5.6 -6.5,10.6 -18.9,10.9 -26.9,3.6 -8.3,12.4 -30.7,10.1 -33.4,-3.6 -10.3,8.3 -25.9,0 -28.7,-12.3 -2.7,2.5 -6.2,4.6 -9.8,5.9 14.7,13 31,24.1 49.2,32.2 34.2,15.1 75.1,20 109.8,3.7 17.1,-8.1 32.3,-19.4 45.7,-32.7 -3.9,-0.4 -7.5,-2.4 -9.6,-5.6 z"
     id="path20" />
  <path
     fill="#ffeeb3"
     d="m 611,776.2 c 4.8,0.8 8.5,-0.8 12.9,-1.3 -0.5,-3.2 -0.7,-6.5 -0.5,-9.7 0,-0.4 0.5,-0.5 0.7,-0.1 2.4,8 5.5,16.2 10.5,23 3.5,4.8 7.8,8.7 12.2,12.5 3.9,-15.8 5.1,-32.2 9.8,-47.8 -0.3,-2.3 -0.6,-4.7 -0.6,-7.1 -8.7,-9 -22.7,-8.1 -31.8,1.1 0,0.7 -0.1,1.4 -0.2,2 -0.1,0.7 -1.1,0.6 -1.3,0 -1.4,-4.2 -4,-8.1 -7.6,-10.6 -0.8,0.1 -1.6,0.2 -2.4,0.2 -7.6,0.5 -15.3,0.5 -22.9,0 -0.9,10.2 -2,20.9 5.6,29.1 4.1,4.5 9.5,7.7 15.6,8.7 z"
     id="path22" />
  <path
     fill="#932944"
     d="m 584.4,738 c -15.1,-1.5 -29.9,-5.1 -43.8,-10.9 10.5,14.8 21.1,29.5 32.1,43.9 4.7,6.1 9.6,12.1 14.7,17.9 0.7,-5.7 2.4,-11.5 5.4,-16.1 -8.1,-9.2 -12.2,-23 -8.4,-34.8 z"
     id="path24" />
  <path
     fill="#ffeeb3"
     d="m 837.7,728.3 c -0.3,8.7 -1,17.4 -2.2,26.1 -0.9,7.1 -2.7,13.7 -4.8,20.5 -0.8,2.5 -2.6,4.7 -5.5,4.7 -4.2,0 -6.1,-6.5 -7.7,-9.2 -3.1,-5.3 -6.5,-10.5 -10.2,-15.4 -4.4,-6 -8.9,-11.9 -13.6,-17.7 -1.5,-1.9 -3.1,-3.7 -4.6,-5.6 1.4,4.9 2.4,9.8 3.1,14.4 1.5,9 2.5,18.2 0.9,27.3 -0.5,2.7 -2.9,11.5 -7.7,7.3 -3,-2.6 -4,-6.7 -6,-9.9 -2.4,-3.8 -5,-6.6 -8.4,-9.1 0.5,4.4 0.7,8.8 -1.3,12.4 -2.8,5.1 -7.3,7.6 -12.9,6.1 -1.4,-0.4 -2.7,-1.3 -4,-2 -4.1,-2.1 -5.6,0.3 -8.5,1.9 -3.3,1.8 -6.9,3.6 -10.6,4.5 -6.6,1.7 -12.9,1.9 -19.6,0.7 -2.2,3.7 -7.1,5.7 -12.2,4.5 -7.5,-1.8 -8.2,-10.6 -11,-17.1 -1.8,11.6 -6.4,23.3 -11.2,33.1 -1.2,2.3 -3.6,2.1 -5,0.7 -0.4,-0.2 -0.7,-0.6 -1,-1.2 -4.5,-10.3 -8.6,-20.8 -11.9,-31.5 -1,-3.3 -2.1,-6.7 -3,-10 -2,14.3 -5.8,28.4 -6.9,42.9 -0.2,2.6 -2.7,4.2 -5.1,2.9 -10.7,-5.8 -18.5,-17.2 -21.9,-29.3 -6.5,5.8 -20.1,1.4 -28,-3.9 -0.3,1.1 -0.7,2.1 -0.8,2.5 -1.5,5.3 -2.5,10.6 -3.4,16 3.3,3.6 6.8,7 10.3,10.4 2.4,0 4.9,0.2 7.3,-0.2 3.5,-0.6 6.3,-2 9.4,-3.6 0.5,-1.7 2.9,-1.6 3.6,0.1 2,4.9 4.5,10.9 9.7,13.2 4.7,2 10.8,1.4 15.1,-1.4 0.2,-0.1 0.3,-0.2 0.5,-0.2 0,-0.4 0.1,-0.7 0.2,-1.1 0.1,-0.3 0.4,-0.3 0.5,-0.1 0.4,0.6 0.9,1.2 1.3,1.8 0,0 0,0 0,0 6.9,8.8 17.5,11.6 26.2,2.8 0.2,-0.3 0.5,-0.4 0.8,-0.6 -0.2,-0.4 -0.4,-0.8 -0.6,-1.2 -0.3,-0.6 0.4,-1.1 0.9,-0.7 0.6,0.5 1.3,1 2,1.5 1,0.2 2,0.8 2.6,1.6 8,4.7 19.4,8 23.9,-2 0,-0.1 0.1,-0.2 0.2,-0.3 -0.6,-1 -1.1,-2.1 -1.5,-3.2 -0.1,-0.3 0.3,-0.5 0.5,-0.3 5.1,4.2 11.7,7.5 18.5,6.1 4.5,-0.9 7.4,-3.5 11.1,-5.4 -0.4,-0.7 -0.6,-1.4 -0.9,-2.2 -0.2,-0.5 0.4,-0.9 0.9,-0.7 4,1.7 7.1,5 11.5,5.9 4.5,0.9 9.8,-0.1 13,-3.8 0.6,-0.7 2,-0.2 1.8,0.8 -0.1,0.5 -0.2,1 -0.3,1.4 3.5,1.5 8,4.3 11.4,0.9 2.3,-2.3 3.4,-5.3 5.7,-7.6 0.3,-0.3 0.8,-0.1 0.8,0.3 0.1,1.2 0,2.4 -0.2,3.6 0.4,0.1 0.7,0.4 1.1,0.7 4.1,4.2 11.7,6.4 16.9,2.5 4.4,-3.4 4.9,-7.9 7.4,-12.4 0,0 0,0 0.1,0 0.7,1 1.1,2 1.3,3.2 4.2,3.2 8.9,5.6 14.3,5.1 11.2,-11.9 21,-25.2 29.6,-38.9 2.4,-3.8 4.7,-7.7 6.9,-11.6 -3.1,-7.4 -6.6,-15 -11.3,-21.4 -2.3,-3.2 -4.9,-6.4 -7.5,-9.6 z"
     id="path52" />
  <path
     d="m 904.2,635.5 c -3.6,9.5 -7.6,18.5 -12.4,27.5 -2.3,4.2 -5.3,7.8 -7.8,11.8 -0.2,0.2 -0.3,0.5 -0.4,0.7 -6.5,1.9 -12.8,4.5 -19.4,6.2 -7.9,2 -16.4,2.7 -24.5,3.3 -16,1.2 -32,-1.3 -47.2,-6.4 -14.2,-4.7 -27.2,-13.1 -42.5,-14 -10.6,-0.6 -22.7,4.6 -26.3,15.1 -0.4,1 1.1,1.9 1.9,1.1 10.2,-11.8 25.1,-11.5 38.9,-6.9 14.3,4.9 27.2,11.7 42.2,14.7 13.9,2.8 28.3,3.1 42.4,1.7 9.4,-1 20.7,-3.4 30.2,-7.6 -18.8,20.8 -50.7,22.3 -77.5,19.3 -16.6,-1.9 -32.9,-5 -49.5,-6 -16.4,-1 -32.4,1 -48.1,5.8 -14.5,4.4 -28.4,10.8 -42.5,16.2 -15,5.7 -30.5,9.6 -46.5,11.3 -26.7,2.8 -53.5,-0.7 -79,-8.7 -0.3,-0.4 -0.5,-0.8 -0.8,-1.2 -0.5,-0.7 -1.5,-0.3 -1.6,0.4 -3.7,-1.2 -7.3,-2.5 -10.9,-3.8 -1.1,-0.4 -1.7,1.3 -0.8,1.8 4.7,2.8 9.5,5.3 14.4,7.5 16,31 36.5,61.5 61.7,86.2 0.2,0.3 0.5,0.6 0.8,0.8 25.9,25.2 56.8,44.4 93,52.2 35.3,7.6 71.1,0.7 101.1,-19.3 29.8,-19.9 52.8,-51.2 70.5,-81.9 1.2,-0.7 2,-1.9 1.9,-3.4 16.4,-29.4 27.7,-61.5 32.6,-94.8 0.1,-0.6 0,-1.1 -0.2,-1.6 3.7,-8.9 6.4,-18.2 8.2,-27.4 -0.1,-1.3 -1.5,-1.7 -1.9,-0.6 z M 800,710.1 c 4.9,0.4 9.7,0.8 14.6,1 4.7,0.2 9.5,0.1 14.2,-0.3 0.4,11.1 0.2,22.2 -0.7,33.3 -0.5,6.5 -1.4,13 -2.3,19.4 -0.3,2.4 -0.6,4.9 -0.9,7.3 0,0 0,0 0,0.1 -0.3,-0.5 -0.6,-1.1 -0.9,-1.6 -5.1,-8.9 -10.7,-17.6 -17.2,-25.5 -5.3,-6.5 -11.6,-14.6 -19.2,-18.9 1.2,-6.5 6,-13 12.4,-14.8 z m -108.5,47.2 c -0.1,-0.9 -1.2,-1 -1.5,-0.2 -2.7,6.8 -4.3,14.1 -6.4,21 -1.8,6 -4.2,11.8 -6.7,17.6 -2.7,-8 -5.3,-15.9 -8.1,-23.9 -2.4,-7.1 -4.5,-14.3 -7.6,-21.1 0.8,-0.1 1.5,-0.7 1.8,-1.5 2.4,-5.9 9.3,-8.9 15.2,-9.4 5.8,-0.4 9.9,3.2 14.6,5.8 0.2,0.1 0.3,0.2 0.5,0.2 0.2,0.5 1,0.6 1.4,0.1 0.2,-0.3 0.4,-0.5 0.5,-0.8 0.1,-0.1 0.1,-0.1 0.1,-0.2 3,-4.1 6.6,-7.4 12.1,-6.5 4.2,0.8 5.8,5.3 9.2,7.3 0,0.4 0.1,0.8 0.2,1.2 0.2,0.6 1.1,0.9 1.5,0.4 3.4,-4.3 4.4,-8.7 10.1,-10.9 5.7,-2.1 11.5,0.9 15.5,4.7 0.5,0.5 1.1,0.7 1.8,0.7 0,0.1 0,0.1 0,0.2 0,0.5 0.8,0.9 1.1,0.5 1.9,-2.5 3.5,-5.2 5.4,-7.6 4.8,-6 10.9,-0.6 14.1,3.5 1.6,2 4.7,-0.2 4.1,-2.4 -1.1,-4.3 1.3,-8.2 3.8,-11.4 2.9,-3.8 4.9,-3.6 8.3,-1.5 0.9,4.7 2.5,9.4 3.5,14 2,8.7 3.2,17.2 2.8,26.1 -0.2,3.8 -0.9,7.4 -1.7,11 -0.1,-0.2 -0.3,-0.4 -0.5,-0.6 -0.8,-2 -2.1,-3.5 -3.4,-5.2 -3.5,-4.6 -7.9,-8.9 -12.5,-12.3 -0.2,-0.1 -0.4,-0.2 -0.6,-0.3 -0.1,-1.3 -0.2,-2.5 -0.3,-3.7 0,-0.9 -1.2,-1 -1.5,-0.2 -2.2,5.4 -1.2,10.7 -2.1,16.3 -1.7,11.6 -10.7,3.2 -17.1,2.8 -4.3,-0.3 -9.4,4.9 -13.1,6.4 -6.6,2.7 -14,3.1 -21,1.8 -0.1,-0.8 -0.3,-1.6 -0.7,-2.5 -0.3,-0.7 -1.3,-0.6 -1.3,0.2 0,0.8 -0.2,1.6 -0.4,2.4 -1.3,0.5 -2,1.8 -2.1,3 -1.5,1.4 -3.4,2.5 -5.3,2.7 -4,0.5 -6,-4.1 -7,-7.1 -1.6,-4.7 -2.8,-9.1 -6.6,-12.3 0.3,-2.7 0.2,-5.5 -0.1,-8.3 z m -32.2,-28.8 c 15.8,-5.6 31,-12.8 47,-17.9 28.8,-9.2 57.7,-4.2 86.9,-1.2 -4.1,3.2 -6.8,7.3 -7.7,12.7 -0.9,-1.9 -1.8,-3.7 -2.9,-5.4 -0.2,-0.4 -0.8,-0.2 -0.8,0.2 0,0.2 0,0.3 0,0.5 -1.8,-1.4 -4,-2.2 -6,-1.2 -6.3,3 -7.7,8.9 -8.9,14.9 -3.1,-3.3 -7,-5.1 -12.2,-3.6 -4,1.1 -6.6,5 -7.9,9 -4.5,-5.1 -11.4,-6.9 -18.1,-5.1 -3.9,1 -8.7,4.8 -10.9,9.1 -2.7,-4.1 -8.1,-7 -12.7,-6.7 -5,0.3 -8.8,3.5 -10.6,7.7 -3.4,-5.2 -10.1,-6.9 -16.2,-6.7 -7.5,0.3 -12.4,5.2 -17,10.3 -8.9,-12.9 -28.4,-14.3 -37.2,-0.7 -0.3,-2.4 -1.1,-4.7 -2.3,-6.7 12.8,-1.7 25.3,-4.9 37.5,-9.2 z m -69.6,9.9 c 7.6,0.5 15.2,0.5 22.9,0 0.8,-0.1 1.6,-0.1 2.4,-0.2 3.6,2.5 6.2,6.4 7.6,10.6 0.2,0.6 1.2,0.7 1.3,0 0.1,-0.7 0.2,-1.4 0.2,-2 9,-9.1 23.1,-10.1 31.8,-1.1 0,2.4 0.3,4.8 0.6,7.1 -4.7,15.6 -5.9,32 -9.8,47.8 -4.4,-3.8 -8.7,-7.8 -12.2,-12.5 -5,-6.8 -8.1,-15 -10.5,-23 -0.1,-0.4 -0.6,-0.3 -0.7,0.1 -0.2,3.2 0,6.4 0.5,9.7 -4.3,0.5 -8.1,2.1 -12.9,1.3 -6.1,-1 -11.5,-4.2 -15.6,-8.6 -7.7,-8.2 -6.6,-19 -5.6,-29.2 z m -2.3,50.5 c -5.1,-5.8 -10,-11.8 -14.7,-17.9 -11,-14.4 -21.6,-29.1 -32.1,-43.9 14,5.8 28.8,9.4 43.8,10.9 -3.8,11.8 0.3,25.6 8.3,34.7 -3,4.7 -4.6,10.5 -5.3,16.2 z m 182,58.9 c -34.7,16.3 -75.6,11.5 -109.8,-3.7 -18.2,-8.1 -34.5,-19.2 -49.2,-32.2 3.6,-1.3 7.1,-3.5 9.8,-5.9 2.8,12.3 18.4,20.6 28.7,12.3 2.7,13.7 25.1,16 33.4,3.6 8,7.2 20.4,6.9 26.9,-3.6 3.1,3.2 7.4,5 12.1,5.6 5.5,0.7 13.7,-2.5 16.7,-7.8 5.5,5.7 15.3,7.8 20.5,3 4.3,3.1 9.9,4.1 14.5,1.1 1.3,-0.8 2.5,-2 3.5,-3.4 5.8,5 13.4,6.1 20.4,2.8 3.4,-1.6 7.2,-5.8 8.6,-10.1 2.1,3.2 5.7,5.1 9.6,5.8 -13.4,13.1 -28.6,24.5 -45.7,32.5 z M 849.7,771 c -8.6,13.7 -18.4,27 -29.6,38.9 -5.3,0.5 -10.1,-1.9 -14.3,-5.1 -0.2,-1.1 -0.6,-2.2 -1.3,-3.2 0,0 0,0 -0.1,0 -2.5,4.5 -3,9 -7.4,12.4 -5.2,3.9 -12.8,1.7 -16.9,-2.5 -0.3,-0.3 -0.7,-0.6 -1.1,-0.7 0.3,-1.2 0.3,-2.4 0.2,-3.6 0,-0.4 -0.5,-0.7 -0.8,-0.3 -2.3,2.3 -3.4,5.3 -5.7,7.6 -3.4,3.4 -8,0.6 -11.4,-0.9 0.1,-0.5 0.2,-0.9 0.3,-1.4 0.1,-0.9 -1.3,-1.4 -1.8,-0.8 -3.1,3.7 -8.5,4.8 -13,3.8 -4.4,-0.9 -7.5,-4.2 -11.5,-5.9 -0.5,-0.2 -1,0.1 -0.9,0.7 0.2,0.8 0.5,1.5 0.9,2.2 -3.7,1.9 -6.6,4.4 -11.1,5.4 -6.8,1.4 -13.4,-1.9 -18.5,-6.1 -0.2,-0.2 -0.6,0 -0.5,0.3 0.4,1.2 0.9,2.2 1.5,3.2 -0.1,0.1 -0.1,0.2 -0.2,0.3 -4.5,10 -16,6.7 -23.9,2 -0.6,-0.9 -1.6,-1.5 -2.6,-1.6 -0.7,-0.5 -1.4,-1 -2,-1.5 -0.5,-0.4 -1.1,0.1 -0.9,0.7 0.2,0.4 0.4,0.8 0.6,1.2 -0.3,0.2 -0.5,0.3 -0.8,0.6 -8.7,8.8 -19.3,6 -26.2,-2.8 0,0 0,0 0,0 -0.5,-0.6 -0.9,-1.2 -1.3,-1.8 -0.1,-0.2 -0.5,-0.2 -0.5,0.1 -0.1,0.4 -0.1,0.7 -0.2,1.1 -0.2,0.1 -0.3,0.1 -0.5,0.2 -4.3,2.8 -10.4,3.4 -15.1,1.4 -5.3,-2.2 -7.7,-8.3 -9.7,-13.2 -0.7,-1.7 -3.1,-1.8 -3.6,-0.1 -3.1,1.6 -5.9,2.9 -9.4,3.6 -2.4,0.4 -4.9,0.2 -7.3,0.2 -3.5,-3.4 -6.9,-6.8 -10.3,-10.4 0.9,-5.4 1.9,-10.7 3.4,-16 0.1,-0.5 0.5,-1.4 0.8,-2.5 7.8,5.2 21.5,9.7 28,3.9 3.3,12.1 11.2,23.5 21.9,29.3 2.4,1.3 4.9,-0.4 5.1,-2.9 1,-14.5 4.8,-28.6 6.9,-42.9 0.9,3.3 2,6.7 3,10 3.3,10.7 7.4,21.2 11.9,31.5 0.3,0.6 0.6,1 1,1.2 1.5,1.4 3.9,1.6 5,-0.7 4.8,-9.8 9.4,-21.5 11.2,-33.1 2.8,6.4 3.4,15.3 11,17.1 5.1,1.2 10,-0.8 12.2,-4.5 6.6,1.2 13,1 19.6,-0.7 3.7,-0.9 7.2,-2.7 10.6,-4.5 2.9,-1.6 4.4,-4 8.5,-1.9 1.3,0.7 2.6,1.6 4,2 5.7,1.6 10.2,-1 12.9,-6.1 2,-3.6 1.8,-8 1.3,-12.4 3.3,2.6 6,5.3 8.4,9.1 2,3.3 3.1,7.4 6,9.9 4.8,4.2 7.2,-4.6 7.7,-7.3 1.6,-9.1 0.6,-18.3 -0.9,-27.3 -0.7,-4.6 -1.7,-9.6 -3.1,-14.4 1.5,1.9 3.1,3.7 4.6,5.6 4.6,5.8 9.2,11.7 13.6,17.7 3.7,4.9 7.1,10.1 10.2,15.4 1.6,2.7 3.6,9.2 7.7,9.2 2.8,0 4.7,-2.2 5.5,-4.7 2,-6.8 3.8,-13.5 4.8,-20.5 1.2,-8.7 1.9,-17.4 2.2,-26.1 2.6,3.2 5.2,6.4 7.7,9.7 4.7,6.4 8.2,14 11.3,21.4 -2.4,3.8 -4.7,7.7 -7.1,11.5 z m 11.4,-19.7 c -6.2,-11 -13.9,-22.3 -23.2,-30.6 0,-3.7 0,-7.3 -0.1,-11 14.7,-2.4 29,-7.9 40.2,-17.3 0.5,0 1,-0.2 1.5,-0.7 1.9,-1.9 3.7,-3.9 5.3,-6 1.3,-1.5 2.5,-3 3.6,-4.6 -6.6,24.3 -15.6,47.9 -27.3,70.2 z"
     id="path104" />
  <path
     d="m 629,714 c 13.7,-4.9 26.2,-12.1 37.8,-20.8 6.3,-4.7 12.7,-9.4 20.2,-12 7.5,-2.6 15.1,-0.6 22.4,1.9 1.2,0.4 2,-1 1.5,-2 -5.9,-11.1 -20.8,-8.5 -30.3,-4.5 -6.9,2.9 -12.8,8 -18.8,12.3 -6.6,4.8 -13.7,9 -21,12.7 -29.7,15.4 -65,19.9 -98,15.2 -0.8,-0.1 -1.1,1 -0.3,1.2 28.8,8.3 58.3,6.2 86.5,-4 z"
     id="path106" />
  <path
     d="m 798.1,865.9 c -11.7,2.8 -23,6.9 -34.7,10.1 -12,3.3 -24.4,5.2 -36.7,5.9 -24.7,1.5 -49.3,-1.9 -73.1,-8.7 -0.5,-0.2 -0.8,0.6 -0.4,0.9 22.3,12.5 47.9,18.2 73.4,17.7 25,-0.5 54,-5.6 73.3,-22.5 1.7,-1.4 0,-3.8 -1.8,-3.4 z"
     id="path108" />
</g>
<g
   id="g1354">
  <path
     fill="#ffeeb3"
     d="m 387.8,792.4 c -3.9,-0.6 -7.7,-1.2 -11.6,-2 -7.1,-1.4 -14.2,-2.9 -20.9,-5.6 -4.4,-1.8 -8.8,-3.7 -13.4,-5 1.6,5.5 2.8,11.1 3.7,16.6 1.8,10.9 2.5,22 1.8,33.1 -0.4,5.3 -0.9,10.6 -1.8,15.8 -0.4,1.9 -0.6,3.8 -0.6,5.7 2.6,4.5 5.2,5.3 7.7,2.2 1.6,-1.5 3.3,-2.9 4.8,-4.5 15.1,-15.4 25.3,-34.4 29.9,-55.4 0.2,-0.4 0.3,-0.7 0.4,-0.9 z"
     id="path8" />
  <path
     fill="#932944"
     d="m 433.8,809.9 c 11.7,-6.2 22.9,-13.1 34.4,-19.6 -10,2.2 -20.1,3.5 -30.3,4.2 -0.4,5.4 -1.8,10.6 -4.1,15.4 z"
     id="path12" />
  <path
     fill="#ffeeb3"
     d="m 418,794.9 c -7.8,-0.2 -15.6,-0.8 -23.4,-1.7 0.2,0.6 0.2,1.2 0.1,2 -2.9,13 -7.9,25.6 -14.8,37 15.3,-4.6 30.3,-10.6 44.7,-17.6 0,-0.1 0.1,-0.2 0.2,-0.3 3.8,-6.2 6.8,-12.6 9,-19.5 -5.3,0.2 -10.5,0.2 -15.8,0.1 z"
     id="path14" />
  <path
     fill="#ffeeb3"
     d="m 329.2,765.6 c -5.3,-4.2 -6.5,3.5 -7.3,5.9 -1.8,5.8 -3.6,11.6 -5.6,17.4 -0.5,1.6 -1.1,3.2 -1.6,4.9 0.2,1.3 -0.2,2.6 -1.1,3.5 -2.4,7.7 -5,15.5 -8.5,22.6 0.9,4.1 1.6,8.2 1.9,12.5 0.1,0.8 -1.1,1.1 -1.5,0.4 -6.2,-11.3 -8.6,-23.5 -13.1,-35.5 -2.7,-2.4 -21.9,24.1 -23.3,27.3 -0.4,1 -2,0.3 -1.7,-0.7 1.5,-4.4 2.8,-8.5 4.5,-12.4 -0.2,-0.4 -0.2,-0.8 -0.1,-1.3 3.8,-11.8 -13.7,-8.5 -19.7,-8.9 -6,-0.4 -11.3,-2.3 -16.6,-5.3 -6,-3.4 -14,-9.7 -21.4,-8.9 -8.4,1 -13.9,6.9 -18.8,13.2 -0.6,0.8 -1.9,0.1 -1.3,-0.8 2.7,-4.4 5.4,-8.7 9,-12 -0.3,-0.2 -0.5,-0.4 -0.6,-0.8 -2.3,-6.1 -5,-12.3 -8.3,-17.9 -3.9,2.8 -7.5,5.8 -10.3,9.8 -1,1.4 -1.9,3 -2.8,4.5 -0.1,0.4 -0.3,0.8 -0.6,1.1 -1.1,2 -2.3,4.1 -3.6,6 -0.2,0.4 -0.9,0.3 -0.9,-0.2 0.2,-2.1 0.7,-4.3 1.5,-6.5 -2.3,-15.4 -3.5,-30.8 -5.4,-46.2 -0.2,-1.6 -0.7,-11.2 -6.5,-5.4 -1.1,1 -2.1,2.1 -3.1,3.2 -2.4,2.6 -4.7,5.2 -6.8,8.1 -3.9,5.4 -7.5,10.9 -10.5,16.9 -0.6,1.2 -2.7,0.3 -2.2,-0.9 0.3,-0.8 0.7,-1.7 1,-2.5 -2.5,-6.8 -4.3,-13.7 -7.3,-20.4 -1.8,-4.1 -3.8,-8.2 -5.2,-12.5 -5,6.3 -7,13.7 -7,21.7 13.7,22 30.1,42.7 50,59.4 13.2,11.1 27.9,20.6 43.8,27.5 -0.8,-3.6 -0.6,-7.3 1.5,-9.9 0.5,-0.6 1.3,-0.2 1.5,0.4 1.1,2.7 0.8,5.8 1.9,8.6 0.5,1.3 1.1,2.6 1.9,3.7 5.7,2.2 11.6,4.1 17.6,5.6 1.8,-2 3.8,-3.8 5.6,-5.6 0.3,-0.3 1,0 0.8,0.5 -0.7,2 -1.2,4.1 -1.9,6.2 0.3,0.1 0.6,0.2 1,0.2 6.5,1.3 13.1,2.3 19.7,2.9 -1.6,-3 -2.2,-6.5 -1.1,-10 0.5,-1.4 2.3,-1.1 2.5,0.3 0.4,4.2 2.2,8 5.8,10.2 9,0.6 18,0.7 27,0.5 0.5,-0.4 0.9,-0.9 1.2,-1.4 1,-1.4 1.7,-3.1 2.9,-4.3 0.6,-0.6 1.8,-0.5 2.3,0.3 0.8,1.6 0.8,3.5 0.2,5.3 9.9,-0.3 19.7,-0.9 29.6,-1.4 2.6,-22.9 2.7,-45.5 -4.1,-67.8 -1.2,-3.5 -2.1,-8.8 -4.9,-11.1 z"
     id="path26" />
  <path
     fill="#932944"
     d="m 99,698.4 c 0.9,2 1.8,4 2.8,5.9 5.4,10.9 11.1,21.6 17.3,32.1 1.1,-5.7 3.6,-11.2 7.3,-15.8 -9.8,-5.7 -19.7,-13.2 -27.4,-22.2 z"
     id="path42" />
  <path
     fill="#d5214a"
     d="m 146.2,751.3 c 2.7,-5.7 6,-11.2 10,-16.2 3,-3.8 10.4,-14.6 16.7,-10.2 6.6,4.6 6.6,15.2 7.5,22.5 1.1,9.3 1.7,18.3 1.3,27.5 2.7,-4.2 5.9,-8.1 9.2,-11.2 -5.4,-12.9 -5.4,-25.8 -5.1,-39.6 0,-0.5 0.7,-0.5 0.7,0 0,12.7 4.5,25.2 9.1,37 0.9,0.1 1.7,0.7 2.4,1.5 5.1,7.2 7.8,14.4 7.5,23.1 2.3,-1.6 4.9,-2.8 8.1,-3.4 10.3,-1.8 18.7,5 27.4,9.2 7.1,3.4 12.8,2.6 20.4,2.7 3.5,0 8,0.2 10.9,2.4 2,1.6 3.7,3.6 4.7,5.7 1,-1.5 2.2,-3 3.5,-4.4 2.6,-3 6.7,-7.2 10.6,-7.9 -12.9,-10.6 -21.5,-29.2 -28.6,-42.1 -12.9,-23.4 -26.4,-49.7 -49.6,-64.5 -22,-13.9 -55.7,-17.7 -71.8,7.2 -7.4,11.3 -7.9,23.1 -3.3,35.7 2.5,7.8 7.5,16.4 8.4,25 z"
     id="path44" />
  <path
     fill="#ffeeb3"
     d="m 310.2,790.5 c 0.3,-1 0.6,-2 0.8,-3.1 1.2,-4.5 2.5,-9 3.8,-13.5 -8.8,-5.1 -17.5,-10.3 -26.2,-15.5 -5.8,-3.5 -11.8,-6.7 -18.2,-8.9 2.9,5 5.8,10 8.9,14.9 7.2,11.3 16.4,24.7 30.9,26.1 z"
     id="path48" />
  <path
     fill="#d5214a"
     d="m 308.1,797.8 c -3.3,-0.4 -6.3,-1.4 -9.2,-2.7 1.4,6.7 3.4,13.2 5,19.7 1,-5.7 2.6,-11.3 4.2,-17 z"
     id="path50" />
  <path
     d="m 500.8,778.5 c -26.4,5.9 -53.3,9.4 -80.4,8.8 -13.3,-0.3 -26.5,-1.8 -39.6,-4.3 -6.3,-1.2 -12.6,-2.7 -18.8,-4.1 -7.6,-1.8 -15.3,-2.6 -22.2,-6.7 -0.1,-0.1 -0.2,-0.1 -0.3,-0.2 -0.9,-2.3 -1.8,-4.6 -2.8,-6.8 -2.4,-5.1 -10.1,-9.9 -15.3,-5.5 -2.4,2.1 -3.6,4.6 -4.5,7.5 -9,-5.1 -18.1,-10.2 -27.3,-15.1 -7.1,-3.7 -14,-6.7 -21.8,-7.2 -4.2,-7.5 -8.3,-15 -12.7,-22.3 -1.9,-3.1 -3.9,-6.2 -5.9,-9.3 3.4,1.7 6.8,3.2 10.4,4.7 8.6,3.5 17.1,7.5 25.7,11.3 7.4,3.3 14.9,6.3 22.2,10 7.9,3.9 15.5,8.7 23.4,12.8 0.4,0.2 0.9,-0.4 0.5,-0.7 -13.1,-10.7 -27.9,-19.8 -42.4,-28.5 -7.6,-4.5 -15.8,-8.1 -23.9,-11.6 -3.3,-1.4 -6.6,-2.8 -10,-4.2 -4.1,-1.7 -8.3,-2.2 -12.6,-3.1 -11.5,-14.8 -25.6,-27.4 -43.7,-33.9 -22.9,-8.3 -48.5,-2.4 -62.9,17.8 -5.5,7.7 -7.5,17 -6.5,26.2 -7.7,-4.3 -14.9,-9.4 -21.5,-15.3 -5.8,-5.2 -10.7,-11.2 -15.9,-17 -2.7,-6.4 -5.5,-12.7 -8.8,-18.8 -0.1,-0.2 -0.4,-0.1 -0.3,0.1 2.5,14.8 9,29.2 14.3,43.2 5.3,13.7 11.3,27 18.5,39.8 14,25.1 32,47.8 53.9,66.4 21.4,18.1 46.3,31 73.7,37.2 30.9,7 63.3,6.1 94.6,2.4 0.7,5.5 3.2,11.2 9.5,11.1 8.5,-0.1 14.8,-8.4 20.1,-14.2 2.4,-2.6 4.6,-5.4 6.7,-8.3 18.4,-5.9 36.4,-12.6 53.8,-21.1 17,-8.3 34.7,-18.4 48.7,-31.4 8.4,-2.2 16.6,-5 24.7,-8.4 0.7,-0.2 0.4,-1.5 -0.6,-1.3 z M 288.6,758.4 c 8.7,5.2 17.5,10.4 26.2,15.5 -1.3,4.5 -2.6,9 -3.8,13.5 -0.3,1 -0.6,2 -0.8,3.1 -14.4,-1.4 -23.7,-14.8 -30.9,-26.1 -3.1,-4.9 -6,-9.9 -8.9,-14.9 6.4,2.2 12.4,5.5 18.2,8.9 z m 19.5,39.4 c -1.6,5.6 -3.1,11.3 -4.2,17 -1.7,-6.5 -3.6,-13 -5,-19.7 2.9,1.4 5.9,2.3 9.2,2.7 z M 140.7,690.7 c 16.2,-24.9 49.9,-21.1 71.8,-7.2 23.3,14.8 36.8,41.1 49.6,64.5 7.1,12.9 15.7,31.6 28.6,42.1 -3.9,0.7 -7.9,4.9 -10.6,7.9 -1.3,1.5 -2.4,2.9 -3.5,4.4 -1,-2.2 -2.6,-4.2 -4.7,-5.7 -2.9,-2.2 -7.4,-2.4 -10.9,-2.4 -7.5,-0.1 -13.3,0.7 -20.4,-2.7 -8.7,-4.2 -17.1,-11 -27.4,-9.2 -3.2,0.6 -5.8,1.8 -8.1,3.4 0.3,-8.7 -2.4,-15.8 -7.5,-23.1 -0.6,-0.9 -1.5,-1.4 -2.4,-1.5 -4.5,-11.8 -9.1,-24.3 -9.1,-37 0,-0.5 -0.7,-0.5 -0.7,0 -0.3,13.8 -0.3,26.8 5.1,39.6 -3.2,3.1 -6.5,7 -9.2,11.2 0.4,-9.2 -0.2,-18.2 -1.3,-27.5 -0.9,-7.3 -0.8,-17.9 -7.5,-22.5 -6.4,-4.4 -13.7,6.4 -16.7,10.2 -4,5 -7.2,10.5 -10,16.2 -0.9,-8.6 -5.9,-17.2 -8.7,-24.9 -4.3,-12.7 -3.7,-24.5 3.6,-35.8 z m -39,13.7 c -1,-2 -1.9,-3.9 -2.8,-5.9 7.8,9 17.7,16.5 27.4,22.1 -3.7,4.7 -6.3,10.1 -7.3,15.8 -6.1,-10.4 -11.9,-21.2 -17.3,-32 z M 338,844.3 c -9.8,0.5 -19.7,1.1 -29.6,1.4 0.6,-1.8 0.6,-3.6 -0.2,-5.3 -0.4,-0.8 -1.6,-0.9 -2.3,-0.3 -1.2,1.2 -2,2.9 -2.9,4.3 -0.4,0.5 -0.8,1 -1.2,1.4 -9,0.2 -18,0.1 -27,-0.5 -3.6,-2.3 -5.4,-6 -5.8,-10.2 -0.1,-1.4 -2,-1.7 -2.5,-0.3 -1.1,3.5 -0.6,6.9 1.1,10 -6.6,-0.7 -13.1,-1.6 -19.7,-2.9 -0.3,-0.1 -0.6,-0.2 -1,-0.2 0.7,-2.1 1.2,-4.2 1.9,-6.2 0.2,-0.5 -0.5,-0.8 -0.8,-0.5 -1.8,1.9 -3.8,3.6 -5.6,5.6 -6,-1.5 -11.8,-3.4 -17.6,-5.6 -0.7,-1.1 -1.4,-2.4 -1.9,-3.7 -1.1,-2.8 -0.8,-5.9 -1.9,-8.6 -0.2,-0.5 -1,-1 -1.5,-0.4 -2.1,2.6 -2.3,6.3 -1.5,9.9 -15.8,-7 -30.6,-16.5 -43.8,-27.5 -20,-16.7 -36.3,-37.4 -50,-59.4 0,-8 2,-15.4 7,-21.7 1.4,4.3 3.4,8.4 5.2,12.5 3,6.7 4.9,13.6 7.3,20.4 -0.3,0.8 -0.7,1.7 -1,2.5 -0.5,1.3 1.6,2.1 2.2,0.9 3,-6 6.5,-11.5 10.5,-16.9 2.1,-2.8 4.4,-5.5 6.8,-8.1 1,-1.1 2.1,-2.1 3.1,-3.2 5.8,-5.8 6.3,3.8 6.5,5.4 1.9,15.4 3.2,30.9 5.4,46.2 -0.8,2.2 -1.3,4.4 -1.5,6.5 0,0.5 0.7,0.6 0.9,0.2 1.3,-1.9 2.4,-4 3.6,-6 0.3,-0.3 0.5,-0.7 0.6,-1.1 0.9,-1.5 1.8,-3 2.8,-4.5 2.8,-4 6.4,-7 10.3,-9.8 3.3,5.6 6,11.9 8.3,17.9 0.1,0.3 0.4,0.6 0.6,0.8 -3.6,3.3 -6.3,7.6 -9,12 -0.5,0.9 0.8,1.6 1.3,0.8 4.8,-6.3 10.4,-12.3 18.8,-13.2 7.3,-0.8 15.4,5.5 21.4,8.9 5.2,3 10.5,4.9 16.6,5.3 6,0.4 23.5,-2.9 19.7,8.9 -0.2,0.5 -0.1,1 0.1,1.3 -1.7,3.9 -3,8.1 -4.5,12.4 -0.3,1 1.3,1.7 1.7,0.7 1.5,-3.2 20.6,-29.7 23.3,-27.3 4.5,11.9 6.9,24.1 13.1,35.5 0.4,0.7 1.6,0.4 1.5,-0.4 -0.3,-4.3 -1,-8.4 -1.9,-12.5 3.6,-7.1 6.1,-14.9 8.5,-22.6 1,-0.8 1.3,-2.2 1.1,-3.5 0.5,-1.6 1.1,-3.3 1.6,-4.9 2,-5.8 3.8,-11.6 5.6,-17.4 0.7,-2.4 1.9,-10.1 7.3,-5.9 2.8,2.2 3.7,7.5 4.7,10.8 7,22.6 7,45.2 4.3,68.1 z m 19.6,4.3 c -1.5,1.6 -3.2,3 -4.8,4.5 -2.5,3 -5.1,2.3 -7.7,-2.2 0,-1.9 0.2,-3.8 0.6,-5.7 0.8,-5.2 1.4,-10.5 1.8,-15.8 0.8,-11.1 0,-22.2 -1.8,-33.1 -0.9,-5.5 -2.1,-11.1 -3.7,-16.6 4.6,1.3 8.9,3.2 13.4,5 6.7,2.7 13.9,4.2 20.9,5.6 3.8,0.8 7.7,1.4 11.6,2 -0.1,0.3 -0.2,0.6 -0.3,0.9 -4.7,21.1 -14.9,40 -30,55.4 z m 67.2,-34.3 c -0.1,0.1 -0.1,0.2 -0.2,0.3 -14.4,7 -29.4,13 -44.7,17.6 6.9,-11.4 11.9,-24 14.8,-37 0.2,-0.7 0.1,-1.4 -0.1,-2 7.8,0.9 15.6,1.4 23.4,1.7 5.3,0.2 10.5,0.1 15.8,-0.1 -2.2,6.8 -5.2,13.2 -9,19.5 z m 9,-4.4 c 2.3,-4.8 3.7,-10.1 4.1,-15.4 10.2,-0.6 20.3,-2 30.3,-4.2 -11.5,6.6 -22.7,13.4 -34.4,19.6 z"
     id="path110" />
</g>
<g
   id="g1321">
  <path
     fill="#ffeeb3"
     d="m 564.3,286.8 c 5.2,8.7 11.1,16.9 18,24.3 3.5,3.8 7.1,7.5 10.9,11 0.7,0.6 7.5,7.2 7.7,4.2 0.2,-2.6 0.2,-5.2 0.5,-7.8 0.9,-10.9 2.4,-21.8 3.3,-32.7 -1.6,-3.8 -2.8,-7.7 -3.3,-11.7 0,-0.2 0.3,-0.3 0.4,-0.2 6.7,8 10.7,18.7 18.1,26 4.2,4.1 10,-13.2 10.5,-14.6 1.9,-4.8 2.9,-9.3 3.6,-14.2 -0.8,-2.7 -0.7,-5.7 0.8,-8.7 0.5,-0.9 1.9,-0.5 1.9,0.5 0,1.1 0,2.1 0.1,3.1 0.2,0.2 0.4,0.5 0.4,1 0,0.3 0,0.5 -0.1,0.8 4.1,17.3 35.9,6.1 48.1,5.5 9.7,-0.5 19,0.5 28.6,1.5 10.3,1.2 18,0 21.9,-10.5 0.1,-0.1 0.1,-0.3 0.2,-0.4 -0.7,-2.1 -1.3,-4.1 -1.9,-6.3 -0.2,-0.9 1,-1.4 1.5,-0.6 5,8.4 9.3,17.1 14.9,25.2 0.8,1.2 5.3,9.3 7.9,4.8 1,-1.7 1.7,-3.3 2.5,-5.1 1.6,-3.6 3.8,-6.9 5.7,-10.4 -0.9,-3.3 -1.7,-6.5 -2.4,-9.8 -0.2,-1 1.1,-1.6 1.6,-0.7 1.6,2.7 3.1,5.4 4.5,8.2 0.3,0.3 0.5,0.6 0.5,1 4.3,8.9 7.7,18.4 11.3,27.5 2.6,6.6 5.3,13.1 7.9,19.7 0,3 0.7,3.3 2.2,0.8 1,-1.1 2,-2.3 2.9,-3.4 1.7,-2.1 3.4,-4.3 5,-6.5 12.6,-17.6 20.6,-37.3 25.4,-58.3 -6.5,-0.8 -12.8,-2.1 -18.7,-3.6 -21.1,-5.4 -41.8,-13.8 -63.5,-16.2 -21.8,-2.4 -43.5,0.3 -64.7,5.3 -40.6,9.6 -80.8,26.7 -123.2,26 -0.7,0 -1.4,0 -2.1,-0.1 0,3.9 2.9,9.2 4,11.5 2.3,4.7 4.4,9.4 7.1,13.9 z"
     id="path18" />
  <path
     fill="#492630"
     d="m 764.8,319.7 c 5.6,-4.2 11.5,-5.1 17.6,-3.7 -0.8,-2.6 -1.4,-5.2 -2.1,-7 -3.8,-10.4 -8.3,-20.8 -11.8,-31.4 -2.9,8.9 -7.9,21.7 -15.6,15.9 -4.9,-3.7 -7.7,-9.8 -10.5,-15.1 -1.3,-2.5 -2.5,-5 -3.6,-7.5 -2.2,5.1 -8.8,8.6 -13.9,9.6 -7,1.4 -14.4,-0.7 -21.3,-1.1 -7,-0.4 -13.9,-0.5 -20.9,0.1 -11.6,1 -27.5,7.4 -38.8,1.9 -2.9,-1.4 -5.5,-3.4 -7.4,-5.9 -0.6,6.1 -1.7,12.3 -3.4,17.9 -1.8,5.6 -3.5,12.9 -10.2,14.2 -6.1,1.2 -10.3,-7.2 -12.7,-11.3 -0.8,-1.3 -1.6,-2.7 -2.3,-4.1 -0.1,6.1 -0.1,12.2 -0.4,18.3 -0.1,3.7 0.1,8.1 -0.2,12.2 8.4,4.6 11.7,12.3 12.5,21 6.3,-12.9 20,-22.2 35,-21.4 12.3,0.7 24.8,10.3 37.1,7.1 11.1,-2.9 20.3,-10.4 31.6,-12.7 13.3,-2.7 25.6,3.8 34.1,13.8 1,-4.2 3.6,-8.1 7.2,-10.8 z"
     id="path30" />
  <path
     fill="#932944"
     d="m 581.9,319.1 c -1,-1 -1.7,-1.9 -2.1,-2.3 -9.6,-10.6 -17.7,-22.4 -24.2,-35.1 -2.5,-4.9 -8.1,-14.2 -6.7,-20.5 -1.8,-0.1 -3.5,-0.3 -5.3,-0.4 0.2,6.1 -0.8,12.3 -0.8,18.4 -0.1,6.8 0.2,13.6 0.6,20.4 0.6,10.7 2,21.3 3.4,31.9 0.8,1.4 1.5,2.8 2.3,4.2 9.5,17.2 18.2,34.7 27.1,52.2 1.4,2.7 2.8,5.4 4.1,8 -2.3,-8.3 -4.2,-16.8 -5.5,-25.4 -1.6,-10.4 -9.2,-47.6 7.1,-51.4 z"
     id="path82" />
  <path
     fill="#932944"
     d="m 842.3,251 c -3.7,0 -7.4,-0.2 -11.1,-0.5 -4.2,25.8 -16.2,50.2 -33.2,70.1 -1.2,1.4 -2.5,3.2 -4,4.4 6.1,7.5 9.3,18.8 11.5,27.9 2.6,10.5 4.2,21.3 4.4,32.1 0,0.6 0,1.2 0,1.8 4.3,-15.7 9.5,-31.2 15.2,-46.5 3.4,-9.1 7,-18.1 10.8,-27 -0.3,-20.9 2,-41.8 6.4,-62.3 z"
     id="path84" />
  <path
     fill="#ffeeb3"
     d="m 619.5,437.5 c -7.7,-14.3 -10.5,-33.1 -10.1,-48 0.5,-20.3 11.3,-44.2 -3,-61.4 -0.3,1.1 -0.7,2.1 -1.2,3.1 -3.5,6.5 -13.1,-1.5 -19.6,-8 -8.7,6.4 -7.3,17.7 -7,27.7 0.3,10.9 1.7,21.7 4.1,32.3 4.5,19.3 11.6,37.7 21.4,54.9 5.2,-1.6 10.4,-2 15.4,-0.6 z"
     id="path86" />
  <path
     fill="#d5214a"
     d="m 717.4,324.7 c -8.7,3.5 -16.5,8.9 -25.9,10.7 -9.6,1.8 -18,-3 -26.9,-5.8 -20.1,-6.3 -38.4,4.4 -44.6,22.5 -0.4,8.5 -2.2,17.1 -3.2,24.1 -1.8,12.5 -1.5,25.3 1.5,37.6 2.6,10.4 7.4,19.5 11.3,29.2 1.6,1.8 2.8,4 3.6,6.4 5.6,2.2 10.8,6 16.2,8.6 7.1,3.4 15.1,6.7 22.7,8.7 15.4,4.1 32.7,1.4 47.6,-3.4 1.2,-2.5 3.1,-4.7 5.2,-6.5 3.2,-2.7 9.5,-5.6 14.3,-4.6 0.4,-5.7 3.2,-11.5 6.8,-15.1 3,-2.9 7.8,-5.9 12.9,-7.3 0,-0.5 0.1,-1.1 0.1,-1.6 0,-0.4 0.2,-0.7 0.4,-0.9 3.8,-22 5.8,-43.8 3.6,-66.3 -2.4,-21.8 -20.9,-46.2 -45.6,-36.3 z m -21.7,93.6 c -0.1,0.3 -0.6,0.3 -0.6,0 -1.8,-11.4 -3,-23.3 -3.5,-34.8 -0.3,-6.2 -0.5,-12.4 -0.7,-18.7 -0.2,-6.2 0.9,-12.5 0.6,-18.6 -0.1,-1.6 2.2,-1.5 2.4,0 0.8,6.3 2.8,12.3 3.4,18.6 0.5,6.2 1,12.4 1.2,18.7 0.1,11.6 -0.7,23.5 -2.8,34.8 z"
     id="path88" />
  <path
     fill="#c67580"
     d="m 537.4,259.9 c -15.9,-2.4 -31.6,-7.8 -44.4,-16.9 17.5,23.6 32.3,49.5 46.5,75.4 -1.2,-6.2 -2.1,-12.6 -2.6,-18.9 -0.8,-12.5 -2.3,-27.1 0.5,-39.6 z"
     id="path90" />
  <path
     fill="#ffeeb3"
     d="m 798.9,352.3 c -2.4,-8.7 -7,-17.2 -9,-26 -0.6,-0.1 -1.3,-0.3 -2,-0.7 -1.6,-0.9 -2.8,-2.7 -3.8,-4.8 -5.8,-1.8 -13.4,-0.2 -17.6,4 -2.9,2.9 -4.6,6.4 -5.7,10.1 3.9,5.8 6.6,12.3 7.6,18.8 1.9,12.4 1.3,25.7 0.8,38.1 -0.6,12.7 -2.2,25.4 -6.2,37.4 3.2,-0.3 6.4,0.3 8.9,2.3 1.4,1.1 0.9,3.1 -0.9,3.2 -3.8,0.4 -7.3,-0.9 -11.1,0.1 -3.9,1 -7.9,2.8 -10.6,5.9 -5.8,6.7 -4.8,13.9 -5.6,22 -0.1,0.6 -0.7,1 -1.2,0.5 -1.6,-1.6 -2.6,-3.7 -3.1,-5.8 -1,0.1 -2,0.1 -3.1,0.2 -3.2,0.3 -6.7,1.4 -9.1,3.6 -4.1,3.8 -5.9,8.6 -7.4,13.8 -0.1,0.5 -0.8,0.4 -0.9,0 -0.9,-2.3 -1.1,-4.6 -0.8,-6.8 -6.9,2.3 -14.5,4 -21.6,4.3 -9.2,0.4 -17.9,-1.3 -27.1,-1.8 -8.1,-0.4 -16.1,-3.6 -23.2,-7.3 -4.2,-2.1 -8.7,-4.7 -12.3,-8 -0.2,4.6 -2.5,8.7 -7.7,9.8 -0.2,0 -0.4,-0.2 -0.3,-0.3 8.1,-11.3 -0.2,-24.1 -13.8,-23.2 -2.4,0.2 -4.8,0.6 -7.1,1.3 -0.9,1.2 -2.6,1.9 -4,1.4 -0.1,0 -0.1,0.1 -0.2,0.1 -0.1,0 -0.2,0.1 -0.3,0.1 -7.7,3.1 -14.9,8.1 -21.8,12.1 -2.8,1.6 -5.9,3.1 -8.6,4.9 0.7,-0.5 6.7,4 7.6,4.4 5.7,3 11.6,5.5 17.8,7 10.5,2.6 21,1.9 31.4,3.8 1.1,-1.2 2.4,-2.1 4,-2.6 0.2,-0.1 0.5,0.1 0.5,0.4 -0.3,3.4 -2.4,6.3 -3.5,9.6 -0.9,2.8 -1.5,5.5 -1.7,8.4 4.1,-1 8.1,-2.2 12,-3.7 4.3,-1.7 8.3,-4 12.6,-5.4 0.3,-0.1 0.6,-0.1 0.9,-0.1 1,-1.9 2.2,-3.6 3.4,-5 0.6,-0.7 1.7,0 1.5,0.9 -1,3.5 -2.9,7 -2.5,10.7 0.6,5.7 5.5,6.2 10,6.9 7,1.1 13.9,2.2 20.9,3.2 8.2,1.3 44.9,10.7 38.7,-8.5 -0.1,-0.4 -0.1,-0.8 -0.1,-1.1 -1.5,-1.7 -2.9,-3.6 -4.1,-5.8 -0.3,-0.5 0.3,-1 0.8,-0.8 6.9,4 14.7,8.6 22.5,10.5 2.5,0.6 5,1.2 7.6,1.3 4.8,0.2 4.1,-3.1 3.9,-6.2 -0.2,-3.7 -0.5,-7.5 -0.6,-11.3 0,-0.4 0.1,-0.7 0.2,-1 -1.9,-1.2 -3.6,-2.9 -5.2,-5.1 -0.3,-0.5 0.3,-1 0.8,-0.8 6.8,4.2 16.1,3.8 23.7,2.9 8,-1 16.1,-2 24.1,-2.9 2.9,-0.3 5.8,-0.7 8.7,-1 7.1,-0.8 -4.4,-11.5 -5.5,-12.4 -5.5,-4.7 -12.1,-9.3 -16.1,-15.3 -0.9,-1.4 0.8,-2.8 2.1,-2.1 2.2,1.1 4.2,2.7 6.1,4.3 3,-9.8 7.1,-18.9 8.9,-29.1 1.8,-10.1 2.7,-20.5 2.3,-30.7 -0.4,-11.1 -1.9,-22 -4.9,-32.7 z"
     id="path92" />
  <path
     fill="#c67580"
     d="m 839.8,304.5 c 2.7,-6.1 5.6,-12.2 8.6,-18.2 4.3,-8.7 8.7,-17.3 13.4,-25.7 2.4,-4.3 4.6,-8.8 7.2,-13.2 -6.6,2 -13.6,3.1 -20.7,3.5 -3.9,17.7 -6.6,35.6 -8.5,53.6 z"
     id="path94" />
  <path
     d="m 920.4,191.6 c -6.6,8.1 -13.6,15.9 -21,23.4 -0.6,0.2 -1.1,0.5 -1.5,1.2 -0.3,0.5 -0.7,0.9 -1,1.4 -4.9,4.9 -9.8,9.6 -14.9,14.2 -24.2,15.5 -57.8,10 -85,2.2 -18.6,-5.3 -36.8,-11.2 -56.1,-13.3 -19.9,-2.1 -40.1,0.8 -59.5,5 -38.9,8.4 -76.1,24.5 -116.1,27.2 -33.5,2.3 -67.5,-7.6 -91.3,-31.9 -0.4,-0.4 -1,0.1 -0.8,0.6 3.5,5.9 7.7,11 12.5,15.5 17.4,34.9 39,67.7 58,101.7 9.5,17.1 19.2,34.2 28.1,51.6 8.6,16.6 16.1,33.7 24.5,50.5 -4.9,2.1 -9.6,4.8 -13.9,7.2 -4.3,2.4 -8.7,4.8 -13,7.2 -1.9,1.1 -4.6,2.3 -5.2,4.6 -1.8,6.4 10.4,11.5 14.5,13.7 12.3,6.7 30.6,12.6 45.1,8.9 -1.7,4.4 -2.2,9.5 -2.2,13.1 0,1.6 1.5,2.6 3,2.3 8.1,-1.5 17.4,-3.5 25,-7.5 -0.2,2.8 0.5,5.5 2.8,7.6 3.7,3.5 8.3,3.7 13.1,4.5 6.9,1.2 13.9,2.3 20.8,3.5 10.9,1.8 23.7,6 34.5,2 5,-1.9 8.8,-7 9,-12.3 6,3.9 13.2,6 20.7,6.8 13.1,1.5 9.7,-14.5 8.3,-23.1 3.6,1.1 7.7,1.3 12.2,1 10.5,-0.6 22.8,-0.7 32.9,-3.8 5.3,-1.6 8.3,-8.6 5.6,-13.6 -2.4,-4.4 -6.2,-7.7 -9.6,-11.2 -0.2,-0.2 -0.4,-0.4 -0.7,-0.7 1.8,-7.3 3.4,-14.7 5,-22 1.1,-4 2,-8 2.8,-11.9 0,-0.2 0.1,-0.3 0.1,-0.5 1.4,-5.9 2.9,-11.7 4.7,-17.5 5.5,-18.5 11.7,-36.9 18.6,-54.9 7.1,-18.5 15.2,-36.6 24,-54.4 4.3,-8.7 8.8,-17.2 13.5,-25.6 4,-7.1 8.9,-14.1 12.2,-21.6 8.5,-4.6 15.7,-11.2 20.8,-20.7 7.9,-8.9 14.7,-18.7 20.4,-29.7 0.4,-0.6 -0.4,-1.3 -0.9,-0.7 z m -364.9,69.8 c 42.4,0.7 82.6,-16.4 123.2,-26 21.2,-5 42.9,-7.7 64.7,-5.3 21.7,2.4 42.5,10.8 63.5,16.2 5.9,1.5 12.2,2.7 18.7,3.6 -4.7,21 -12.8,40.6 -25.4,58.3 -1.6,2.2 -3.3,4.4 -5,6.5 -0.9,1.2 -1.9,2.3 -2.9,3.4 -1.4,2.4 -2.1,2.1 -2.2,-0.8 -2.6,-6.6 -5.3,-13.1 -7.9,-19.7 -3.7,-9.2 -7,-18.6 -11.3,-27.5 0,-0.4 -0.2,-0.7 -0.5,-1 -1.4,-2.8 -2.9,-5.6 -4.5,-8.2 -0.5,-0.9 -1.8,-0.3 -1.6,0.7 0.6,3.3 1.4,6.6 2.4,9.8 -1.9,3.5 -4.1,6.7 -5.7,10.4 -0.8,1.8 -1.5,3.5 -2.5,5.1 -2.7,4.5 -7.2,-3.6 -7.9,-4.8 -5.5,-8 -9.9,-16.8 -14.9,-25.2 -0.5,-0.8 -1.7,-0.3 -1.5,0.6 0.5,2.2 1.2,4.3 1.9,6.3 -0.1,0.1 -0.2,0.2 -0.2,0.4 -3.9,10.5 -11.6,11.7 -21.9,10.5 -9.6,-1.1 -18.9,-2 -28.6,-1.5 -12.2,0.6 -44,11.8 -48.1,-5.5 0,-0.3 0,-0.5 0.1,-0.8 0,-0.4 -0.1,-0.8 -0.4,-1 -0.1,-1 -0.2,-2 -0.1,-3.1 0,-1 -1.4,-1.4 -1.9,-0.5 -1.5,3 -1.6,6 -0.8,8.7 -0.7,4.9 -1.7,9.4 -3.6,14.2 -0.6,1.4 -6.3,18.8 -10.5,14.6 -7.4,-7.3 -11.5,-18 -18.1,-26 -0.1,-0.1 -0.4,0 -0.4,0.2 0.5,3.9 1.7,7.9 3.3,11.7 -0.9,10.9 -2.4,21.8 -3.3,32.7 -0.2,2.6 -0.3,5.2 -0.5,7.8 -0.2,2.9 -7,-3.6 -7.7,-4.2 -3.9,-3.4 -7.4,-7.2 -10.9,-11 -6.9,-7.4 -12.8,-15.6 -18,-24.3 -2.7,-4.4 -4.8,-9.2 -6.9,-13.9 -1,-2.4 -4,-7.6 -4,-11.5 0.5,0.1 1.2,0.1 1.9,0.1 z m 168,55.4 c -11.3,2.3 -20.5,9.8 -31.6,12.7 -12.3,3.2 -24.8,-6.4 -37.1,-7.1 -15,-0.9 -28.7,8.5 -35,21.4 -0.8,-8.6 -4.1,-16.4 -12.5,-21 0.3,-4.1 0.1,-8.5 0.2,-12.2 0.2,-6.1 0.2,-12.2 0.4,-18.3 0.7,1.4 1.5,2.8 2.3,4.1 2.4,4.1 6.6,12.5 12.7,11.3 6.6,-1.3 8.4,-8.6 10.2,-14.2 1.8,-5.6 2.8,-11.8 3.4,-17.9 1.9,2.4 4.5,4.5 7.4,5.9 11.3,5.5 27.1,-0.9 38.8,-1.9 7,-0.6 13.9,-0.6 20.9,-0.1 7,0.4 14.4,2.6 21.3,1.1 5.1,-1 11.7,-4.5 13.9,-9.6 1.1,2.5 2.3,5 3.6,7.5 2.8,5.3 5.6,11.5 10.5,15.1 7.7,5.8 12.7,-7 15.6,-15.9 3.5,10.6 7.9,21.1 11.8,31.4 0.7,1.8 1.3,4.4 2.1,7 -6.1,-1.4 -12.1,-0.5 -17.6,3.7 -3.6,2.7 -6.1,6.6 -7.1,10.9 -8.5,-10.1 -20.9,-16.6 -34.2,-13.9 z m 39.3,44.4 c 2.3,22.4 0.3,44.2 -3.6,66.3 -0.2,0.2 -0.3,0.5 -0.4,0.9 0,0.5 -0.1,1.1 -0.1,1.6 -5,1.4 -9.9,4.4 -12.9,7.3 -3.6,3.5 -6.4,9.4 -6.8,15.1 -4.8,-1 -11.1,1.9 -14.3,4.6 -2.1,1.8 -3.9,4.1 -5.2,6.5 -14.9,4.8 -32.2,7.5 -47.6,3.4 -7.6,-2 -15.7,-5.3 -22.7,-8.7 -5.4,-2.6 -10.6,-6.4 -16.2,-8.6 -0.8,-2.4 -2,-4.7 -3.6,-6.4 -3.9,-9.8 -8.7,-18.9 -11.3,-29.2 -3,-12.3 -3.3,-25.1 -1.5,-37.6 1,-7 2.8,-15.7 3.2,-24.1 6.2,-18.1 24.5,-28.8 44.6,-22.5 8.9,2.8 17.3,7.6 26.9,5.8 9.4,-1.8 17.2,-7.2 25.9,-10.7 24.9,-10.1 43.4,14.3 45.6,36.3 z M 493,243 c 12.9,9.2 28.6,14.5 44.4,16.9 -2.8,12.5 -1.4,27.1 -0.4,39.6 0.5,6.3 1.3,12.6 2.6,18.9 C 525.3,292.5 510.5,266.6 493,243 Z m 83.1,144.8 c -8.9,-17.5 -17.6,-35 -27.1,-52.2 -0.8,-1.4 -1.5,-2.8 -2.3,-4.2 -1.5,-10.6 -2.8,-21.3 -3.4,-31.9 -0.4,-6.8 -0.6,-13.6 -0.6,-20.4 0.1,-6.1 1,-12.3 0.8,-18.4 1.8,0.2 3.5,0.3 5.3,0.4 -1.5,6.3 4.1,15.6 6.7,20.5 6.5,12.7 14.7,24.5 24.2,35.1 0.4,0.5 1.1,1.3 2.1,2.3 -16.2,3.8 -8.7,41.1 -7.1,51.4 1.3,8.6 3.2,17.1 5.5,25.4 -1.4,-2.6 -2.7,-5.3 -4.1,-8 z m 6.6,-4.8 c -2.5,-10.6 -3.9,-21.4 -4.1,-32.3 -0.2,-10.1 -1.7,-21.3 7,-27.7 6.5,6.5 16.1,14.5 19.6,8 0.5,-1 0.9,-2 1.2,-3.1 14.4,17.2 3.5,41.1 3,61.4 -0.4,14.9 2.4,33.7 10.1,48 -5.1,-1.4 -10.3,-0.9 -15.4,0.5 -9.8,-17 -16.8,-35.5 -21.4,-54.8 z m 218.9,32.7 c -1.8,10.2 -5.9,19.4 -8.9,29.1 -1.9,-1.7 -4,-3.2 -6.1,-4.3 -1.3,-0.7 -3.1,0.8 -2.1,2.1 4.1,6 10.7,10.6 16.1,15.3 1,0.9 12.5,11.6 5.5,12.4 -2.9,0.3 -5.8,0.7 -8.7,1 -8.1,0.8 -16.1,1.9 -24.1,2.9 -7.6,0.9 -17,1.2 -23.7,-2.9 -0.5,-0.3 -1.1,0.3 -0.8,0.8 1.6,2.2 3.3,3.9 5.2,5.1 -0.2,0.3 -0.3,0.6 -0.2,1 0.1,3.8 0.4,7.5 0.6,11.3 0.2,3.1 1,6.4 -3.9,6.2 -2.6,-0.1 -5.1,-0.7 -7.6,-1.3 -7.8,-1.8 -15.5,-6.5 -22.5,-10.5 -0.5,-0.3 -1,0.3 -0.8,0.8 1.2,2.2 2.5,4.1 4.1,5.8 -0.1,0.3 0,0.7 0.1,1.1 6.2,19.1 -30.5,9.7 -38.7,8.5 -7,-1.1 -13.9,-2.2 -20.9,-3.2 -4.6,-0.7 -9.4,-1.2 -10,-6.9 -0.4,-3.7 1.5,-7.3 2.5,-10.7 0.2,-0.8 -0.9,-1.5 -1.5,-0.9 -1.2,1.3 -2.4,3.1 -3.4,5 -0.3,0 -0.6,0 -0.9,0.1 -4.3,1.4 -8.3,3.7 -12.6,5.4 -3.9,1.5 -7.9,2.7 -12,3.7 0.2,-2.8 0.7,-5.6 1.7,-8.4 1.1,-3.2 3.2,-6.2 3.5,-9.6 0,-0.2 -0.3,-0.4 -0.5,-0.4 -1.6,0.5 -2.9,1.4 -4,2.6 -10.4,-1.9 -20.9,-1.2 -31.4,-3.8 -6.2,-1.5 -12.1,-4.1 -17.8,-7 -0.9,-0.5 -6.9,-4.9 -7.6,-4.4 2.7,-1.8 5.8,-3.3 8.6,-4.9 6.9,-4 14.1,-9 21.8,-12.1 0.1,0 0.2,-0.1 0.3,-0.1 0.1,0 0.1,-0.1 0.2,-0.1 1.4,0.6 3.1,-0.1 4,-1.4 2.3,-0.7 4.7,-1.1 7.1,-1.3 13.6,-0.9 21.9,11.9 13.8,23.2 -0.1,0.2 0.1,0.4 0.3,0.3 5.2,-1.2 7.5,-5.3 7.7,-9.8 3.6,3.4 8.1,5.9 12.3,8 7.2,3.7 15.2,6.8 23.2,7.3 9.1,0.5 17.9,2.2 27.1,1.8 7.1,-0.3 14.7,-2 21.6,-4.3 -0.3,2.2 -0.1,4.5 0.8,6.8 0.2,0.4 0.8,0.5 0.9,0 1.5,-5.2 3.3,-10.1 7.4,-13.8 2.4,-2.2 5.9,-3.3 9.1,-3.6 1.1,-0.1 2.1,-0.1 3.1,-0.2 0.5,2.2 1.5,4.2 3.1,5.8 0.5,0.5 1.1,0.1 1.2,-0.5 0.9,-8.1 -0.1,-15.3 5.6,-22 2.7,-3.2 6.7,-4.9 10.6,-5.9 3.8,-1 7.3,0.3 11.1,-0.1 1.8,-0.2 2.3,-2.2 0.9,-3.2 -2.5,-1.9 -5.7,-2.5 -8.9,-2.3 4,-12.1 5.6,-24.8 6.2,-37.4 0.6,-12.5 1.1,-25.8 -0.8,-38.1 -1,-6.5 -3.7,-13 -7.6,-18.8 1.1,-3.8 2.8,-7.2 5.7,-10.1 4.2,-4.2 11.8,-5.8 17.6,-4 1,2.1 2.2,3.9 3.8,4.8 0.7,0.4 1.4,0.6 2,0.7 2,8.8 6.6,17.3 9,26 3,10.7 4.5,21.6 5,32.6 0.3,10.3 -0.6,20.7 -2.4,30.8 z m 23.5,-75.4 c -5.7,15.3 -10.9,30.8 -15.2,46.5 0,-0.6 0,-1.2 0,-1.8 -0.2,-10.8 -1.8,-21.6 -4.4,-32.1 -2.2,-9 -5.4,-20.3 -11.5,-27.9 1.5,-1.2 2.8,-3 4,-4.4 17,-19.9 29,-44.3 33.2,-70.1 3.7,0.3 7.4,0.5 11.1,0.5 -4.4,20.5 -6.7,41.3 -6.4,62.3 -3.8,8.9 -7.4,17.9 -10.8,27 z m 36.6,-79.7 c -4.7,8.5 -9.1,17.1 -13.4,25.7 -3,6 -5.8,12.1 -8.6,18.2 1.9,-18 4.6,-35.9 8.4,-53.6 7.1,-0.4 14.1,-1.5 20.7,-3.5 -2.5,4.3 -4.7,8.9 -7.1,13.2 z"
     id="path112" />
  <path
     d="m 697.2,364.9 c -0.6,-6.3 -2.6,-12.4 -3.4,-18.6 -0.2,-1.5 -2.4,-1.6 -2.4,0 0.3,6.2 -0.7,12.4 -0.6,18.6 0.2,6.2 0.4,12.4 0.7,18.7 0.5,11.5 1.7,23.4 3.5,34.8 0.1,0.3 0.6,0.3 0.6,0 2.1,-11.3 2.8,-23.3 2.6,-34.8 0,-6.3 -0.5,-12.5 -1,-18.7 z"
     id="path114" />
</g>

</g>

</svg>
