<?xml version="1.0" standalone="no"?>
<!--Created with Inkscape (http://www.inkscape.org/)-->
<svg xmlns="http://www.w3.org/2000/svg" xmlns:xlink="http://www.w3.org/1999/xlink" viewBox="0 0 48 48">
  <defs>
    <linearGradient id="g">
      <stop offset="0" stop-color="#c4a000" stop-opacity="1"/>
      <stop offset="1" stop-color="#c4a000" stop-opacity="0"/>
    </linearGradient>
    <linearGradient id="f">
      <stop offset="0" stop-color="#c4a000" stop-opacity="1"/>
      <stop offset="1" stop-color="#c4a000" stop-opacity="0"/>
    </linearGradient>
    <linearGradient id="a">
      <stop offset="0.0000000" stop-color="#fff" stop-opacity="1"/>
      <stop offset="0.50000000" stop-color="#fff520" stop-opacity=".89108908"/>
      <stop offset="1.0000000" stop-color="#fff300" stop-opacity="0"/>
    </linearGradient>
    <radialGradient xlink:href="#a" id="n" gradientUnits="userSpaceOnUse" cx="55.000000" cy="125.00000" fx="55.000000" fy="125.00000" r="14.375000"/>
    <linearGradient id="c">
      <stop offset="0.0000000" stop-color="#f3f4ff" stop-opacity="1"/>
      <stop offset="1.0000000" stop-color="#9193af" stop-opacity="1"/>
    </linearGradient>
    <linearGradient id="e">
      <stop offset="0.0000000" stop-color="#a0a0a0" stop-opacity="1"/>
      <stop offset="1.0000000" stop-color="#fff" stop-opacity="1"/>
    </linearGradient>
    <linearGradient id="d">
      <stop offset="0.0000000" stop-color="#fffffd" stop-opacity="1"/>
      <stop offset="1.0000000" stop-color="#cbcbc9" stop-opacity="1"/>
    </linearGradient>
    <linearGradient id="h">
      <stop offset="0.0000000" stop-color="#9497b3" stop-opacity="1"/>
      <stop offset="1.0000000" stop-color="#4c4059" stop-opacity="1"/>
    </linearGradient>
    <linearGradient id="b">
      <stop offset="0.0000000" stop-color="#9aa29a" stop-opacity="1"/>
      <stop offset="1.0000000" stop-color="#b5beb5" stop-opacity="1"/>
    </linearGradient>
    <linearGradient xlink:href="#b" id="i" gradientUnits="userSpaceOnUse" gradientTransform="matrix(2.949734,0.000000,0.000000,0.915645,-28.78593,-17.15131)" x1="8.9156475" y1="37.197018" x2="9.8855033" y2="52.090678"/>
    <radialGradient xlink:href="#c" id="m" gradientUnits="userSpaceOnUse" cx="11.329200" cy="10.583970" fx="11.329200" fy="10.583970" r="15.532059"/>
    <radialGradient xlink:href="#d" id="k" gradientUnits="userSpaceOnUse" cx="11.901996" cy="10.045444" fx="11.901996" fy="10.045444" r="29.292715"/>
    <linearGradient xlink:href="#e" gradientUnits="userSpaceOnUse" x1="6.3422160" y1="7.7893324" x2="22.218424" y2="25.884274"/>
    <radialGradient xlink:href="#f" id="l" cx="23.375" cy="10.972863" fx="23.375" fy="10.972863" r="3.3478092" gradientTransform="matrix(3.630420,1.654030e-15,-1.608743e-15,3.742066,-61.48607,-29.18618)" gradientUnits="userSpaceOnUse"/>
    <linearGradient xlink:href="#g" x1="19.667364" y1="4.2570662" x2="20.329933" y2="5.2845874" gradientUnits="userSpaceOnUse"/>
    <radialGradient xlink:href="#h" id="j" gradientUnits="userSpaceOnUse" cx="8.7468252" cy="6.8283234" fx="8.7468252" fy="6.8283234" r="29.889715"/>
  </defs>
  <metadata/>
  <path d="M 39.774755 19.008621 A 8.6620579 8.6620579 0 1 1  22.45064,19.008621 A 8.6620579 8.6620579 0 1 1  39.774755 19.008621 z" style="marker:none" transform="matrix(1.961117,0,0,0.933139,-37.25303,20.08935)" opacity=".2" color="#000" fill="#000" fill-opacity="1" fill-rule="evenodd" stroke="none" stroke-width="1px" stroke-linecap="round" stroke-linejoin="round" marker-start="none" marker-mid="none" marker-end="none" stroke-miterlimit="4" stroke-dasharray="none" stroke-dashoffset="0" stroke-opacity="1" visibility="visible" display="inline" overflow="visible"/>
  <path d="M 18.87602,2.6769809 L 5.3155829,18.439539 L 6.5041452,19.61343 L 18.87602,2.6769809 z " style="marker:none" color="#000" fill="url(#i)" fill-opacity="1" fill-rule="evenodd" stroke="none" stroke-width="1" stroke-linecap="butt" stroke-linejoin="miter" marker-start="none" marker-mid="none" marker-end="none" stroke-miterlimit="4" stroke-dashoffset="0" stroke-opacity="1" visibility="visible" display="inline" overflow="visible"/>
  <path d="M 18.762317,2.5920673 L 6.669486,19.361092 L 8.3970445,20.886364 L 18.762317,2.5920673 z " fill="#fefefe" fill-opacity="1" fill-rule="evenodd" stroke="none" stroke-width="1" stroke-linecap="butt" stroke-linejoin="miter" stroke-miterlimit="4" stroke-opacity="1"/>
  <path transform="matrix(1.385629,0.000000,0.000000,1.385629,1.311481,-0.783944)" d="M 31.160714 16.910715 A 14.910714 14.910714 0 1 1  1.3392859,16.910715 A 14.910714 14.910714 0 1 1  31.160714 16.910715 z" fill="url(#j)" fill-opacity="1" fill-rule="evenodd" stroke="#000" stroke-width="1.44338799" stroke-linecap="round" stroke-linejoin="round" stroke-miterlimit="4" stroke-dasharray="none" stroke-dashoffset="0" stroke-opacity="1"/>
  <path transform="matrix(1.098972,0.000000,0.000000,1.098972,5.880297,3.974238)" d="M 31.160714 16.910715 A 14.910714 14.910714 0 1 1  1.3392859,16.910715 A 14.910714 14.910714 0 1 1  31.160714 16.910715 z" fill="url(#k)" fill-opacity="1" fill-rule="evenodd" stroke="url(#linearGradient4313)" stroke-width=".75338578" stroke-linecap="round" stroke-linejoin="round" stroke-miterlimit="4" stroke-dashoffset="0" stroke-opacity="1"/>
  <path style="marker:none" d="M 16.679382,6.6387137 A 8.5,8.5 0 0 1 23.332691,3.3751053 L 23.375,11.875 z" transform="matrix(1.671303,0.000000,0.000000,1.671303,-14.75099,2.872455)" opacity="1" color="#000" fill="url(#l)" fill-opacity="1" fill-rule="evenodd" stroke="url(#linearGradient5210)" stroke-width=".5983355" stroke-linecap="butt" stroke-linejoin="miter" marker-start="none" marker-mid="none" marker-end="none" stroke-miterlimit="4" stroke-dasharray="none" stroke-dashoffset="0" stroke-opacity="1" visibility="visible" display="inline" overflow="visible"/>
  <path transform="matrix(1.957740,0.000000,0.000000,1.957740,-5.578385,-11.05315)" d="M 16.40625 17.28125 A 1.21875 1.21875 0 1 1  13.96875,17.28125 A 1.21875 1.21875 0 1 1  16.40625 17.28125 z" fill="#f3f3f3" fill-opacity="1" fill-rule="evenodd" stroke="#000" stroke-width="1.02158611" stroke-linecap="round" stroke-linejoin="round" stroke-miterlimit="4" stroke-dasharray="none" stroke-dashoffset="0" stroke-opacity="1"/>
  <path d="M 22.265005,20.914783 L 13.746874,13.759396" fill="none" fill-opacity=".75" fill-rule="evenodd" stroke="#000" stroke-width="2" stroke-linecap="round" stroke-linejoin="miter" stroke-miterlimit="4" stroke-dasharray="none" stroke-opacity="1"/>
  <path d="M 19.65128,29.4684 L 22.446343,25.225555" fill="none" fill-opacity=".75" fill-rule="evenodd" stroke="#000" stroke-width="3" stroke-linecap="round" stroke-linejoin="miter" stroke-miterlimit="4" stroke-dasharray="none" stroke-opacity="1"/>
  <path transform="matrix(2.596251,0.000000,0.000000,2.596251,-19.73340,-10.36627)" d="M 17.324117 7.6932044 A 0.61871845 0.61871845 0 1 1  16.08668,7.6932044 A 0.61871845 0.61871845 0 1 1  17.324117 7.6932044 z" opacity="1" fill="#b6b9b1" fill-opacity="1" fill-rule="evenodd" stroke="none" stroke-width="1.36871839" stroke-linecap="round" stroke-linejoin="round" stroke-miterlimit="4" stroke-dashoffset="0" stroke-opacity="1"/>
  <path transform="matrix(2.596251,0.000000,0.000000,2.596251,-19.73340,15.33532)" d="M 17.324117 7.6932044 A 0.61871845 0.61871845 0 1 1  16.08668,7.6932044 A 0.61871845 0.61871845 0 1 1  17.324117 7.6932044 z" opacity="1" fill="#b6b9b1" fill-opacity="1" fill-rule="evenodd" stroke="none" stroke-width="1.36871839" stroke-linecap="round" stroke-linejoin="round" stroke-miterlimit="4" stroke-dashoffset="0" stroke-opacity="1"/>
  <path transform="matrix(2.596251,0.000000,0.000000,2.596251,-32.58420,2.484503)" d="M 17.324117 7.6932044 A 0.61871845 0.61871845 0 1 1  16.08668,7.6932044 A 0.61871845 0.61871845 0 1 1  17.324117 7.6932044 z" opacity="1" fill="#b6b9b1" fill-opacity="1" fill-rule="evenodd" stroke="none" stroke-width="1.36871839" stroke-linecap="round" stroke-linejoin="round" stroke-miterlimit="4" stroke-dashoffset="0" stroke-opacity="1"/>
  <path transform="matrix(2.596251,0.000000,0.000000,2.596251,-6.882626,2.484503)" d="M 17.324117 7.6932044 A 0.61871845 0.61871845 0 1 1  16.08668,7.6932044 A 0.61871845 0.61871845 0 1 1  17.324117 7.6932044 z" opacity="1" fill="#b6b9b1" fill-opacity="1" fill-rule="evenodd" stroke="none" stroke-width="1.36871839" stroke-linecap="round" stroke-linejoin="round" stroke-miterlimit="4" stroke-dashoffset="0" stroke-opacity="1"/>
  <path d="M 31.160714 16.910715 A 14.910714 14.910714 0 1 1  1.3392859,16.910715 A 14.910714 14.910714 0 1 1  31.160714 16.910715 z" transform="matrix(1.281985,0.000000,0.000000,1.281985,2.995656,0.885272)" fill="none" fill-opacity="1" fill-rule="evenodd" stroke="url(#m)" stroke-width=".7800405" stroke-linecap="round" stroke-linejoin="round" stroke-miterlimit="4" stroke-dashoffset="0" stroke-opacity="1"/>
  <path style="marker:none" d="M 69.375 125 A 14.375 14.375 0 1 1  40.625,125 A 14.375 14.375 0 1 1  69.375 125 z" transform="matrix(0.611127,0.000000,0.000000,0.611127,5.544052,-66.92818)" color="#000" fill="url(#n)" fill-opacity="1" fill-rule="nonzero" stroke="none" stroke-width="1.25000024" stroke-linecap="butt" stroke-linejoin="round" marker-start="none" marker-mid="none" marker-end="none" stroke-miterlimit="4" stroke-dashoffset="0" stroke-opacity="1" visibility="visible" display="block"/>
</svg>
