<?xml version="1.0" encoding="UTF-8" standalone="no"?>
<!-- Created with Inkscape (http://www.inkscape.org/) -->

<svg
   version="1.1"
   viewBox="0 0 1327.0955 1327.0956"
   sodipodi:docname="svg.svg"
   inkscape:version="1.1.2 (0a00cf5339, 2022-02-04)"
   xml:space="preserve"
   id="svg18612"
   xmlns:inkscape="http://www.inkscape.org/namespaces/inkscape"
   xmlns:sodipodi="http://sodipodi.sourceforge.net/DTD/sodipodi-0.dtd"
   xmlns:xlink="http://www.w3.org/1999/xlink"
   xmlns="http://www.w3.org/2000/svg"
   xmlns:svg="http://www.w3.org/2000/svg"><defs
     id="defs6"><linearGradient
       inkscape:collect="always"
       id="linearGradient18428"><stop
         style="stop-color:#8072e3;stop-opacity:1"
         offset="0"
         id="stop18424" /><stop
         style="stop-color:#f4d9ff;stop-opacity:1"
         offset="1"
         id="stop18426" /></linearGradient><linearGradient
       inkscape:collect="always"
       id="linearGradient18342"><stop
         style="stop-color:#3d29cc;stop-opacity:1"
         offset="0"
         id="stop18338" /><stop
         style="stop-color:#ef9efd;stop-opacity:1"
         offset="1"
         id="stop18340" /></linearGradient><linearGradient
       inkscape:collect="always"
       id="linearGradient17173"><stop
         style="stop-color:#b8b8f4;stop-opacity:1"
         offset="0"
         id="stop17169" /><stop
         style="stop-color:#bb82e6;stop-opacity:1"
         offset="1"
         id="stop17171" /></linearGradient><linearGradient
       inkscape:collect="always"
       id="linearGradient17091"><stop
         style="stop-color:#3d29cc;stop-opacity:1"
         offset="0"
         id="stop17087" /><stop
         style="stop-color:#f1ccf7;stop-opacity:1"
         offset="1"
         id="stop17089" /></linearGradient><linearGradient
       inkscape:collect="always"
       id="linearGradient16535"><stop
         style="stop-color:#f36902;stop-opacity:1"
         offset="0"
         id="stop16531" /><stop
         style="stop-color:#1bb229;stop-opacity:1"
         offset="1"
         id="stop16533" /></linearGradient><linearGradient
       inkscape:collect="always"
       id="linearGradient15933"><stop
         style="stop-color:#3d29cc;stop-opacity:1"
         offset="0"
         id="stop15929" /><stop
         style="stop-color:#9c1bb2;stop-opacity:1"
         offset="1"
         id="stop15931" /></linearGradient><linearGradient
       inkscape:collect="always"
       xlink:href="#linearGradient18342"
       id="linearGradient15935"
       x1="6373.1011"
       y1="14944.096"
       x2="14365.759"
       y2="6241.2231"
       gradientUnits="userSpaceOnUse" /><linearGradient
       inkscape:collect="always"
       xlink:href="#linearGradient16535"
       id="linearGradient16140"
       gradientUnits="userSpaceOnUse"
       x1="8181.9775"
       y1="13180.155"
       x2="14348.536"
       y2="6564.6392" /><linearGradient
       inkscape:collect="always"
       xlink:href="#linearGradient16535"
       id="linearGradient16537"
       gradientUnits="userSpaceOnUse"
       x1="8181.9775"
       y1="13180.155"
       x2="14348.536"
       y2="6564.6392" /><linearGradient
       inkscape:collect="always"
       xlink:href="#linearGradient16535"
       id="linearGradient16539"
       gradientUnits="userSpaceOnUse"
       x1="8181.9775"
       y1="13180.155"
       x2="14348.536"
       y2="6564.6392" /><linearGradient
       inkscape:collect="always"
       xlink:href="#linearGradient15933"
       id="linearGradient16626"
       gradientUnits="userSpaceOnUse"
       x1="6373.1011"
       y1="14944.096"
       x2="14348.536"
       y2="6564.6392" /><linearGradient
       inkscape:collect="always"
       xlink:href="#linearGradient18428"
       id="linearGradient16766"
       gradientUnits="userSpaceOnUse"
       x1="6233.2734"
       y1="14615.104"
       x2="14348.536"
       y2="6564.6392" /><linearGradient
       inkscape:collect="always"
       xlink:href="#linearGradient17173"
       id="linearGradient16768"
       gradientUnits="userSpaceOnUse"
       x1="6233.2734"
       y1="14615.104"
       x2="14348.536"
       y2="6564.6392" /><linearGradient
       inkscape:collect="always"
       xlink:href="#linearGradient15933"
       id="linearGradient17066"
       gradientUnits="userSpaceOnUse"
       x1="6373.1011"
       y1="14944.096"
       x2="14348.536"
       y2="6564.6392" /><linearGradient
       inkscape:collect="always"
       xlink:href="#linearGradient17091"
       id="linearGradient18316"
       gradientUnits="userSpaceOnUse"
       x1="6373.1011"
       y1="14944.096"
       x2="14348.536"
       y2="6564.6392" /><linearGradient
       inkscape:collect="always"
       xlink:href="#linearGradient17091"
       id="linearGradient18566"
       gradientUnits="userSpaceOnUse"
       x1="6373.1011"
       y1="14944.096"
       x2="14348.536"
       y2="6564.6392" /></defs><sodipodi:namedview
     id="namedview4"
     pagecolor="#ffffff"
     bordercolor="#666666"
     borderopacity="1.0"
     inkscape:pageshadow="2"
     inkscape:pageopacity="0.0"
     inkscape:pagecheckerboard="0"
     showgrid="false"
     inkscape:zoom="0.32107143"
     inkscape:cx="664.96107"
     inkscape:cy="668.07564"
     inkscape:window-width="3440"
     inkscape:window-height="1369"
     inkscape:window-x="0"
     inkscape:window-y="34"
     inkscape:window-maximized="1"
     inkscape:current-layer="layer1"
     fit-margin-top="0"
     fit-margin-left="0"
     fit-margin-right="0"
     fit-margin-bottom="0" /><g
     inkscape:groupmode="layer"
     id="layer1"
     inkscape:label="Circle"
     transform="translate(-733.75303,-731.46397)"><path
       id="path16650"
       style="fill:#271e86;fill-opacity:1;stroke:#f69222;stroke-width:10.533;stroke-linejoin:round;stroke-miterlimit:4;stroke-dasharray:none;stroke-opacity:0.303789"
       d="M 1397.3008,736.73047 A 658.28137,658.28137 0 0 0 739.01953,1395.0117 658.28137,658.28137 0 0 0 1397.3008,2053.293 658.28137,658.28137 0 0 0 2055.582,1395.0117 658.28137,658.28137 0 0 0 1397.3008,736.73047 Z m 0,334.54103 a 323.73962,323.73962 0 0 1 323.7383,323.7402 323.73962,323.73962 0 0 1 -323.7383,323.7383 323.73962,323.73962 0 0 1 -323.7403,-323.7383 323.73962,323.73962 0 0 1 323.7403,-323.7402 z" /><g
       id="g16624"
       style="fill:url(#linearGradient17066);fill-opacity:1"
       transform="matrix(-0.13333333,0,0,-0.13333333,2799.9999,2800)" /></g><g
     inkscape:groupmode="layer"
     id="layer3"
     inkscape:label="Fill"
     style="display:inline"
     transform="translate(-733.75303,-731.46397)"><g
       id="g17060"
       style="fill:url(#linearGradient16626);fill-opacity:1"
       transform="matrix(-0.13333333,0,0,-0.13333333,2799.9999,2800)"><path
         style="fill:url(#linearGradient16140);fill-opacity:1;fill-rule:evenodd;stroke:#f69222;stroke-width:78.9975;stroke-miterlimit:4;stroke-dasharray:none;stroke-opacity:0.303789"
         d="m 11051.6,14260.6 1746.8,-2177.9 974.4,1215.3 c 151.2,-178.3 288.2,-368.5 409.9,-568.1 264.5,-437 448.8,-917.7 544.5,-1420.8 50.7,-267 75.6,-537.5 75.6,-809.1 0,-66.1 -1.2,-132.3 -4.8,-198.4 -7.1,-165.4 -23.6,-329.5 -50.8,-493.7 -63.7,-401.6 -185.4,-792.5 -360.2,-1159.9 -520.9,-1093.7 -1483.5,-1925.2 -2644.5,-2277.1 -225.6,-68.5 -457.1,-118.1 -690.9,-148.8 v 465.3 c 305.9,44.9 604.7,126.4 891.7,243.3 1074.8,438.2 1901.6,1345.3 2235.8,2457.9 86.3,285.8 138.2,582.3 155.9,881.1 4.8,76.8 7.1,153.5 7.1,230.3 0,205.5 -16.5,411 -48.4,613 -17.7,109.8 -40.2,218.5 -67.3,324.8 -57.9,231.5 -137,457.1 -236.2,673.2 l -203.2,440.6 -988.6,-1233.1 -1268.5,1581.5 V 8429.5 h -478.3 z"
         id="path16174" /><path
         style="fill:url(#linearGradient16539);fill-opacity:1;fill-rule:evenodd;stroke:#f69222;stroke-width:78.9975;stroke-miterlimit:4;stroke-dasharray:none;stroke-opacity:0.303789"
         d="m 9056.69,6930.7 c -1370.07,558.7 -2304.33,1857.9 -2391.73,3339 l -18.9,317.7 h 1720.87 v 478.4 H 6233.86 c -23.63,-187.8 -36.61,-376.8 -36.61,-565.8 0,-66.1 2.35,-132.3 4.72,-198.4 82.67,-1822.5 1309.84,-3401.6 3055.51,-3930.7 225.59,-68.5 457.09,-118.1 690.95,-148.8 v 465.3 c -305.91,44.9 -604.73,126.4 -891.74,243.3 z"
         id="path16170" /><path
         style="fill:url(#linearGradient16537);fill-opacity:1;fill-rule:evenodd;stroke:#f69222;stroke-width:78.9975;stroke-miterlimit:4;stroke-dasharray:none;stroke-opacity:0.303789"
         d="M 9470.08,14238.2 V 8429.5 h 478.35 v 6348.4 c -233.86,-30.7 -465.36,-80.3 -690.95,-148.8 -1231.89,-374.4 -2231.1,-1285 -2724.8,-2460.2 h 505.51 c 412.21,858.7 1133.86,1539 2018.5,1900.4 z"
         id="path16168" /></g></g><g
     inkscape:groupmode="layer"
     id="layer2"
     inkscape:label="Outline"
     transform="translate(-733.75303,-731.46397)"><g
       id="g10"
       transform="matrix(-0.13333333,0,0,-0.13333333,2797.3033,2795.0198)"
       style="fill:url(#linearGradient15935);fill-opacity:1"><g
         id="g17253"
         style="fill:url(#linearGradient18316)"><g
           id="g18384"
           style="fill:url(#linearGradient18566)"><path
             d="m 11051.6,14260.6 1746.8,-2177.9 974.4,1215.3 c 151.2,-178.3 288.2,-368.5 409.9,-568.1 264.5,-437 448.8,-917.7 544.5,-1420.8 50.7,-267 75.6,-537.5 75.6,-809.1 0,-66.1 -1.2,-132.3 -4.8,-198.4 -7.1,-165.4 -23.6,-329.5 -50.8,-493.7 -63.7,-401.6 -185.4,-792.5 -360.2,-1159.9 -520.9,-1093.7 -1483.5,-1925.2 -2644.5,-2277.1 -225.6,-68.5 -457.1,-118.1 -690.9,-148.8 v 465.3 c 305.9,44.9 604.7,126.4 891.7,243.3 1074.8,438.2 1901.6,1345.3 2235.8,2457.9 86.3,285.8 138.2,582.3 155.9,881.1 4.8,76.8 7.1,153.5 7.1,230.3 0,205.5 -16.5,411 -48.4,613 -17.7,109.8 -40.2,218.5 -67.3,324.8 -57.9,231.5 -137,457.1 -236.2,673.2 l -203.2,440.6 -988.6,-1233.1 -1268.5,1581.5 V 8429.5 h -478.3 z m -300,-5974 v -157.1 h 1078.3 v 3917.8 l 277.6,-347.3 268.1,-334.2 422.8,-526.8 421.7,526.8 268.1,334.2 229.1,285.8 c 91,-197.2 164.2,-405.1 218.5,-620 24.8,-98.1 44.9,-198.5 61.4,-300 29.6,-184.3 44.9,-373.3 44.9,-565.8 0,-70.9 -2.3,-141.7 -5.9,-212.6 -16.5,-281.1 -66.1,-552.8 -144.1,-812.6 -310.6,-1031.1 -1076,-1863.8 -2062.2,-2266.5 -336.6,-137 -699.2,-224.4 -1078.3,-251.6 v -1063 c 373.2,20.1 734.6,86.2 1078.3,190.2 1249.6,379.1 2274.8,1273.2 2827.6,2435.4 184.2,387.4 315.3,804.3 386.2,1241.3 28.4,172.5 46.1,348.5 54.3,526.8 3.6,70.9 4.8,141.7 4.8,212.6 0,295.3 -28.4,584.6 -81.5,865.8 -104,546.8 -303.6,1059.4 -582.3,1520 -192.5,317.7 -421.7,609.5 -682.7,871.7 l -668.5,-835.1 -289.4,-360.2 -968.5,1207.1 -26,33.1 -1045.2,1303.9 c -2.4,0 -3.6,0 -4.8,0 l -2.3,-1.2 v -1061.8 -652 -2025.5 -1078.4 -277.6 -1723.2"
             style="fill:url(#linearGradient16766);fill-opacity:1;fill-rule:evenodd;stroke:#f69222;stroke-width:78.9975;stroke-miterlimit:4;stroke-dasharray:none;stroke-opacity:0.303789"
             id="path14" /><path
             d="M 9170.08,13791.7 C 8296.06,13435 7595.67,12739.4 7231.89,11868.9 H 6103.94 c 452.36,1456.3 1606.29,2604.3 3066.14,3047.2 344.88,104 705.12,168.9 1078.32,190.2 v -1063 -2677.5 -1078.4 -2157.9 H 9170.08 v 2157.9 1078.4 z m 300,446.5 V 8429.5 h 478.35 v 6348.4 c -233.86,-30.7 -465.36,-80.3 -690.95,-148.8 -1231.89,-374.4 -2231.1,-1285 -2724.8,-2460.2 h 505.51 c 412.21,858.7 1133.86,1539 2018.5,1900.4 z M 9056.69,6930.7 c -1370.07,558.7 -2304.33,1857.9 -2391.73,3339 l -18.9,317.7 h 1720.87 v 478.4 H 6233.86 c -23.63,-187.8 -36.61,-376.8 -36.61,-565.8 0,-66.1 2.35,-132.3 4.72,-198.4 82.67,-1822.5 1309.84,-3401.6 3055.51,-3930.7 225.59,-68.5 457.09,-118.1 690.95,-148.8 v 465.3 c -305.91,44.9 -604.73,126.4 -891.74,243.3 z m 113.39,277.6 c 336.61,-137 699.21,-224.4 1078.32,-251.6 v -1063 c -373.2,20.1 -733.44,86.2 -1078.32,190.2 -1829.53,555.1 -3178.35,2215.7 -3268.11,4203.5 -2.37,70.9 -4.72,141.7 -4.72,212.6 0,295.3 28.34,584.6 81.49,865.8 h 1085.43 714.57 888.19 V 10287.4 H 6964.96 c 81.5,-1396.1 969.69,-2574.8 2205.12,-3079.1 v 0"
             style="fill:url(#linearGradient16768);fill-opacity:1;fill-rule:evenodd;stroke:#f69222;stroke-width:78.9975;stroke-miterlimit:4;stroke-dasharray:none;stroke-opacity:0.303789"
             id="path16" /></g></g></g></g></svg>
