<?xml version="1.0" encoding="UTF-8" standalone="no"?>
<svg
   xmlns:dc="http://purl.org/dc/elements/1.1/"
   xmlns:cc="http://creativecommons.org/ns#"
   xmlns:rdf="http://www.w3.org/1999/02/22-rdf-syntax-ns#"
   xmlns:svg="http://www.w3.org/2000/svg"
   xmlns="http://www.w3.org/2000/svg"
   xmlns:xlink="http://www.w3.org/1999/xlink"
   xmlns:sodipodi="http://sodipodi.sourceforge.net/DTD/sodipodi-0.dtd"
   xmlns:inkscape="http://www.inkscape.org/namespaces/inkscape"
   id="root"
   height="100%"
   width="100%"
   version="1.0"
   viewBox="0 0 44.759092 43.145887"
   inkscape:version="0.48.0 r9654"
   sodipodi:docname="svg">
  <sodipodi:namedview
     pagecolor="#ffffff"
     bordercolor="#666666"
     borderopacity="1"
     objecttolerance="10"
     gridtolerance="10"
     guidetolerance="10"
     inkscape:pageopacity="0"
     inkscape:pageshadow="2"
     inkscape:window-width="1440"
     inkscape:window-height="823"
     id="namedview3073"
     showgrid="false"
     fit-margin-top="0"
     fit-margin-left="0"
     fit-margin-right="0"
     fit-margin-bottom="0"
     inkscape:zoom="5.6315654"
     inkscape:cx="22.19085"
     inkscape:cy="20.338438"
     inkscape:window-x="0"
     inkscape:window-y="24"
     inkscape:window-maximized="1"
     inkscape:current-layer="root" />
  <defs
     id="defs4">
    <radialGradient
       id="radialGradient3176"
       gradientUnits="userSpaceOnUse"
       cy="15.051"
       cx="21.743999"
       r="8.2327995">
      <stop
         id="stop3172"
         stop-color="#a5d4f2"
         offset="0" />
      <stop
         id="stop3174"
         stop-color="#0e7dc0"
         offset="1" />
    </radialGradient>
    <linearGradient
       id="linearGradient3506"
       y2="20.499001"
       gradientUnits="userSpaceOnUse"
       x2="26.101"
       gradientTransform="matrix(0.9500875,0,0,0.8192275,0.7168075,5.1034995)"
       y1="15.245"
       x1="23.441">
      <stop
         id="stop3502"
         stop-color="#FFF"
         offset="0" />
      <stop
         id="stop3504"
         stop-color="#FFF"
         stop-opacity="0"
         offset="1" />
    </linearGradient>
    <radialGradient
       id="radialGradient3512"
       gradientUnits="userSpaceOnUse"
       cy="28.597"
       cx="29.003"
       gradientTransform="matrix(0.9997162,0,0,0.9340033,0.00675149,1.7953089)"
       r="14.96">
      <stop
         id="stop3234"
         stop-color="#fce94f"
         offset="0" />
      <stop
         id="stop3236"
         stop-color="#edd400"
         offset="1" />
    </radialGradient>
    <linearGradient
       id="linearGradient3524"
       y2="14.615"
       gradientUnits="userSpaceOnUse"
       x2="30.905001"
       gradientTransform="matrix(0.9997162,0,0,1.0253012,0.00675149,-1.1563521)"
       y1="10.081"
       x1="19.871">
      <stop
         id="stop3242"
         stop-color="#ef2929"
         offset="0" />
      <stop
         id="stop3244"
         stop-color="#C00"
         offset="1" />
    </linearGradient>
    <linearGradient
       id="linearGradient3526"
       y2="28.375"
       gradientUnits="userSpaceOnUse"
       x2="20.646999"
       gradientTransform="matrix(0.9997162,0,0,1.0253012,0.00675149,-1.1563521)"
       y1="17.122"
       x1="8.9230003">
      <stop
         id="stop3226"
         stop-color="#8ae234"
         offset="0" />
      <stop
         id="stop3228"
         stop-color="#4e9a06"
         offset="1" />
    </linearGradient>
    <radialGradient
       id="radialGradient7197"
       gradientUnits="userSpaceOnUse"
       cy="31.313999"
       cx="23.302"
       gradientTransform="matrix(1,0,0,0.7333333,0,8.3503845)"
       r="20.948999">
      <stop
         id="stop3491"
         stop-color="#030303"
         offset="0" />
      <stop
         id="stop3493"
         stop-color="#030303"
         stop-opacity="0"
         offset="1" />
    </radialGradient>
    <radialGradient
       inkscape:collect="always"
       xlink:href="#radialGradient7197"
       id="radialGradient3087"
       gradientUnits="userSpaceOnUse"
       gradientTransform="matrix(1,0,0,0.7333333,0,8.3503845)"
       cx="23.302"
       cy="31.313999"
       r="20.948999" />
    <radialGradient
       inkscape:collect="always"
       xlink:href="#radialGradient3512"
       id="radialGradient3089"
       gradientUnits="userSpaceOnUse"
       gradientTransform="matrix(0.9997162,0,0,0.9340033,0.00675149,1.7953089)"
       cx="29.003"
       cy="28.597"
       r="14.96" />
    <linearGradient
       inkscape:collect="always"
       xlink:href="#linearGradient3524"
       id="linearGradient3091"
       gradientUnits="userSpaceOnUse"
       gradientTransform="matrix(0.9997162,0,0,1.0253012,0.00675149,-1.1563521)"
       x1="19.871"
       y1="10.081"
       x2="30.905001"
       y2="14.615" />
    <linearGradient
       inkscape:collect="always"
       xlink:href="#linearGradient3526"
       id="linearGradient3093"
       gradientUnits="userSpaceOnUse"
       gradientTransform="matrix(0.9997162,0,0,1.0253012,0.00675149,-1.1563521)"
       x1="8.9230003"
       y1="17.122"
       x2="20.646999"
       y2="28.375" />
    <radialGradient
       inkscape:collect="always"
       xlink:href="#radialGradient3176"
       id="radialGradient3095"
       gradientUnits="userSpaceOnUse"
       cx="21.743999"
       cy="15.051"
       r="8.2327995" />
    <linearGradient
       inkscape:collect="always"
       xlink:href="#linearGradient3506"
       id="linearGradient3097"
       gradientUnits="userSpaceOnUse"
       gradientTransform="matrix(0.9500875,0,0,0.8192275,0.7168075,5.1034995)"
       x1="23.441"
       y1="15.245"
       x2="26.101"
       y2="20.499001" />
    <linearGradient
       inkscape:collect="always"
       xlink:href="#linearGradient3506"
       id="linearGradient3100"
       gradientUnits="userSpaceOnUse"
       gradientTransform="matrix(0.9500875,0,0,0.8192275,2.1869453,2.2980808)"
       x1="23.441"
       y1="15.245"
       x2="26.101"
       y2="20.499001" />
    <radialGradient
       inkscape:collect="always"
       xlink:href="#radialGradient3176"
       id="radialGradient3107"
       gradientUnits="userSpaceOnUse"
       cx="21.743999"
       cy="15.051"
       r="8.2327995"
       gradientTransform="matrix(0.9500875,0,0,0.8192275,2.1869453,2.2980808)" />
    <linearGradient
       inkscape:collect="always"
       xlink:href="#linearGradient3526"
       id="linearGradient3110"
       gradientUnits="userSpaceOnUse"
       gradientTransform="matrix(0.9997162,0,0,1.0253012,1.4768893,-3.9617708)"
       x1="8.9230003"
       y1="17.122"
       x2="20.646999"
       y2="28.375" />
    <linearGradient
       inkscape:collect="always"
       xlink:href="#linearGradient3524"
       id="linearGradient3113"
       gradientUnits="userSpaceOnUse"
       gradientTransform="matrix(0.9997162,0,0,1.0253012,1.4768893,-3.9617708)"
       x1="19.871"
       y1="10.081"
       x2="30.905001"
       y2="14.615" />
    <radialGradient
       inkscape:collect="always"
       xlink:href="#radialGradient3512"
       id="radialGradient3116"
       gradientUnits="userSpaceOnUse"
       gradientTransform="matrix(0.9997162,0,0,0.9340033,1.4768893,-1.0101098)"
       cx="29.003"
       cy="28.597"
       r="14.96" />
    <radialGradient
       inkscape:collect="always"
       xlink:href="#radialGradient7197"
       id="radialGradient3120"
       gradientUnits="userSpaceOnUse"
       gradientTransform="matrix(1.1964912,0,0,0.70877191,-2.8144112,8.5927938)"
       cx="23.302"
       cy="31.313999"
       r="20.948999" />
    <radialGradient
       inkscape:collect="always"
       xlink:href="#radialGradient3512"
       id="radialGradient3134"
       gradientUnits="userSpaceOnUse"
       gradientTransform="matrix(0.9997162,0,0,0.9340033,1.4768893,-1.0101098)"
       cx="29.003"
       cy="28.597"
       r="14.96" />
    <linearGradient
       inkscape:collect="always"
       xlink:href="#linearGradient3524"
       id="linearGradient3136"
       gradientUnits="userSpaceOnUse"
       gradientTransform="matrix(0.9997162,0,0,1.0253012,1.4768893,-3.9617708)"
       x1="19.871"
       y1="10.081"
       x2="30.905001"
       y2="14.615" />
    <linearGradient
       inkscape:collect="always"
       xlink:href="#linearGradient3526"
       id="linearGradient3138"
       gradientUnits="userSpaceOnUse"
       gradientTransform="matrix(0.9997162,0,0,1.0253012,1.4768893,-3.9617708)"
       x1="8.9230003"
       y1="17.122"
       x2="20.646999"
       y2="28.375" />
    <radialGradient
       inkscape:collect="always"
       xlink:href="#radialGradient3176"
       id="radialGradient3140"
       gradientUnits="userSpaceOnUse"
       gradientTransform="matrix(0.9500875,0,0,0.8192275,2.1869453,2.2980808)"
       cx="21.743999"
       cy="15.051"
       r="8.2327995" />
    <linearGradient
       inkscape:collect="always"
       xlink:href="#linearGradient3506"
       id="linearGradient3142"
       gradientUnits="userSpaceOnUse"
       gradientTransform="matrix(0.9500875,0,0,0.8192275,2.1869453,2.2980808)"
       x1="23.441"
       y1="15.245"
       x2="26.101"
       y2="20.499001" />
  </defs>
  <metadata
     id="metadata7">
    <rdf:RDF>
      <cc:Work
         rdf:about="">
        <dc:format>image/svg+xml</dc:format>
        <dc:type
           rdf:resource="http://purl.org/dc/dcmitype/StillImage" />
        <dc:title></dc:title>
      </cc:Work>
    </rdf:RDF>
  </metadata>
  <g
     id="g3122"
     transform="translate(-2.8750007,-0.01036246)">
    <path
       style="fill:#312e34"
       inkscape:connector-curvature="0"
       d="m 47.634092,21.573487 c 0,11.90788 -9.698961,21.561007 -21.66338,21.561007 -11.96442,0 -21.663381,-9.653127 -21.663381,-21.561007 0,-11.9078799 9.698961,-21.56100716 21.663381,-21.56100716 11.964419,0 21.66338,9.65312726 21.66338,21.56100716 z"
       id="path3178" />
    <path
       inkscape:connector-curvature="0"
       stroke-miterlimit="5.71428585"
       d="m 26.439138,27.349581 c -2.6202,2.4326 -5.0349,4.932 -8.2379,7.175 1.2127,2.3882 3.6614,5.4667 8.4276,8.1216 9.8516,0 21.387,-7.1452 20.428,-23.476 -4.4422,-2.4327 -7.2659,-2.5047 -10.958,-3.444 -0.2991,6.2377 -1.6281,10.062 -9.6602,11.624 z"
       style="fill:url(#radialGradient3134);fill-rule:evenodd;stroke:#c4a000;stroke-width:1;stroke-linecap:butt;stroke-linejoin:miter;stroke-miterlimit:5.71428585;stroke-dasharray:none"
       id="path3208" />
    <path
       inkscape:connector-curvature="0"
       stroke-miterlimit="5.71428585"
       d="m 46.603138,16.730581 c -2.902,-1.343 -6.738,-2.129 -10.648,-2.87 -5.395,-6.8524997 -13.183,-7.3760997 -18.626,-1.554 -2.024,-2.4299997 -3.572,-4.8599997 -2.959,-8.4155997 13.202,-8.1535 29.859,-0.7132 32.233,12.8399997 z"
       style="fill:url(#linearGradient3136);fill-rule:evenodd;stroke:#a40000;stroke-width:1;stroke-linecap:butt;stroke-linejoin:miter;stroke-miterlimit:5.71428585;stroke-dasharray:none"
       id="path3210" />
    <path
       inkscape:connector-curvature="0"
       stroke-miterlimit="5.71428585"
       d="m 12.409138,5.3658813 c 0.30327,3.3711 1.5694,6.0317997 3.7934,8.6382997 -2.0485,7.6089 3.5279,11.956 7.4392,12.999 -2.4253,2.5421 -5.3361,4.8868 -8.5927,7.091 2.2979,3.6154 4.3839,6.1712 7.7965,8.3073 -2.296,-0.176 -19.4740002,-3.718 -19.4740002,-20.505 0,-8.5555 7.6059002,-15.4509997 9.0387002,-16.5309997 z"
       style="fill:url(#linearGradient3138);fill-rule:evenodd;stroke:#4e9a06;stroke-width:1;stroke-linecap:butt;stroke-linejoin:miter;stroke-miterlimit:5.71428585;stroke-dasharray:none"
       id="path3212" />
    <path
       inkscape:connector-curvature="0"
       style="fill:url(#radialGradient3140)"
       d="m 33.823909,17.533255 c 0,3.724863 -3.501928,6.744536 -7.82188,6.744536 -4.319858,0 -7.821881,-3.019591 -7.821881,-6.744536 0,-3.724864 3.501928,-6.744537 7.821881,-6.744537 4.319857,0 7.82188,3.019591 7.82188,6.744537 z"
       id="path2398" />
    <path
       inkscape:connector-curvature="0"
       stroke-miterlimit="5.71428585"
       d="m 11.610138,7.4795813 c 0.67787,3.1466997 1.6745,4.3617997 3.5432,6.6762997 -1.5289,6.6037 2.0413,10.694 6.5584,13.189 -2.1762,2.2902 -4.9774,4.3976 -7.8353,6.4883 1.0994,2.5007 2.5775,4.5321 5.2905,6.784 -2.251,-0.713 -14.8520002,-4.246 -14.8290002,-19.115 0.7401,-7.492 4.5973,-11.065 7.2734002,-14.0219997 z"
       style="opacity:0.3;fill:none;stroke:#fefefe;stroke-width:1;stroke-linecap:butt;stroke-linejoin:miter;stroke-miterlimit:5.71428585;stroke-dasharray:none"
       id="path3479" />
    <path
       inkscape:connector-curvature="0"
       stroke-miterlimit="5.71428585"
       d="m 26.837138,28.164581 c -2.2357,2.2866 -4.5022,4.5566 -7.3497,6.5116 1.2249,2.191 3.5612,4.8292 7.4949,7.0202 8.9752,0.11832 20.265,-7.4152 19.209,-21.885 -3.9129,-2.1429 -5.9772,-2.0532 -9.2293,-2.8806 -0.28275,5.5905 -3.1253,10.236 -10.125,11.234 z"
       style="opacity:0.3;fill:none;stroke:#fefefe;stroke-width:1;stroke-linecap:butt;stroke-linejoin:miter;stroke-miterlimit:5.71428585;stroke-dasharray:none"
       id="path3481" />
    <path
       inkscape:connector-curvature="0"
       stroke-miterlimit="5.71428585"
       d="m 45.377138,15.341581 c -1.955,-0.647 -5.889,-1.596 -9.003,-2.223 -4.612,-6.2213997 -13.019,-7.8663997 -18.942,-2.143 -1.595,-1.9139997 -2.738,-3.5989997 -2.254,-6.3994997 11.643,-7.3168 27.062,-1.0901 30.199,10.7659997 z"
       style="opacity:0.3;fill:none;stroke:#fcfcfc;stroke-width:1;stroke-linecap:butt;stroke-linejoin:miter;stroke-miterlimit:5.71428585;stroke-dasharray:none"
       id="path3483" />
    <path
       inkscape:connector-curvature="0"
       stroke-miterlimit="5.71428585"
       d="m 33.386511,17.524037 c 0,3.521632 -3.310859,6.376548 -7.395111,6.376548 -4.084163,0 -7.395112,-2.854839 -7.395112,-6.376548 0,-3.521631 3.310859,-6.376547 7.395112,-6.376547 4.084162,0 7.395111,2.854839 7.395111,6.376547 z"
       style="opacity:0.3;fill:none;stroke:#fcfcfc;stroke-width:1;stroke-linecap:round;stroke-linejoin:round;stroke-miterlimit:5.71428585;stroke-dasharray:none;stroke-dashoffset:0"
       id="path3485" />
    <path
       inkscape:connector-curvature="0"
       style="opacity:0.25;fill:url(#linearGradient3142)"
       d="m 33.823138,17.533581 c -13.092,-5.1076 -14.886,7.3849 -15.644,0 0,-3.723 3.5042,-6.7445 7.8219,-6.7445 4.3177,0 7.8219,3.0215 7.8219,6.7445 z"
       id="path3497" />
  </g>
</svg>
