<?xml version="1.0" encoding="UTF-8" standalone="no"?>
<!DOCTYPE svg PUBLIC "-//W3C//DTD SVG 20010904//EN"
 "http://www.w3.org/TR/2001/REC-SVG-20010904/DTD/svg10.dtd">
<svg xmlns="http://www.w3.org/2000/svg"
     xmlns:xlink="http://www.w3.org/1999/xlink"
     xmlns:a="http://ns.adobe.com/AdobeSVGViewerExtensions/3.0/"
     width="100%" height="100%"
     viewBox="0 0 588 649"
     xml:space="preserve"
     a:scriptImplementation="Adobe"
     onload="">
  <defs>
    <style type="text/css"><![CDATA[
      svg {
        overflow: visible;
      }
      path, circle {
        stroke-opacity: 0.75;
        fill-opacity: 0.25;
        fill: none;
        stroke: black;
        stroke-linecap: round;
        enable-background: new;
      }
      path:hover {
        fill-opacity: .5;
      }
      #nouadhibou {
        stroke: red;
        fill: red;
      }
      #inchiri {
        stroke: green;
        fill: green;
      }
      #nouakchott {
        stroke: orange;
        fill: orange;
      }
      #trarza {
        stroke: blue;
        fill: blue;
      }
      #brakna {
        stroke: purple;
        fill: purple;
      }
      #guidimaka {
        stroke: yellow;
        fill: yellow;
      }
      #gorgol {
        fill: aqua;
        stroke: aqua;
      }
      #assaba {
        fill: lightblue;
        stroke: lightblue;
      }
      #hodh-el-gharbi {
        fill: brown;
        stroke: brown;
      }
      #hodh-ech-chargui {
       fill: rgb(168, 102, 0);
       stroke: rgb(168, 102, 0);
      }
      #tagant {
        fill: rgb(48, 200, 125);
        stroke: rgb(48, 200, 125);
      }
      #adrar {
        fill: gray;
        stroke: gray;
      }
      #tiris-zemmour {
        fill: rgb(132, 113, 89);
        stroke: rgb(132, 113, 89);
      }
    ]]></style>
    <script type="text/ecmascript" a:scriptImplementation="Adobe"><![CDATA[
      /**
       * This is all mucked up because the third argument for the setProperty
       * function is different between batik and Adobe. Adobe liked null
       * whereas batik liked undefined. I can only do one or the other...
       */
       
      var blank_var = undefined;
      //var blank_var = null;

      var random_opacity = function (event) {
        event.target.style.setProperty('fill-opacity', Math.random(), blank_var);
        //window.status = event.target.id;
      }

      var solid_opacity = function (event) {
        event.target.style.setProperty('fill-opacity', .95, blank_var);
      }

      var translucent_opacity = function (event) {
        event.target.style.setProperty('fill-opacity', .25, blank_var);
      }

      /**
       * This images takes some parameters because I need to render the
       * different elements to pngs to make a webpage. If a region name
       * is specified then that region will be highlighted. If "clear"
       * is specified then everything but that region will not be
       * displayed.
       *
       * Exe: regioned_map.svg?assaba&brakna&clear
       */
      var params = document.URL.substring(document.URL.indexOf("?") + 1).split(/&/);

      var marked_regions = new Array();
      var clear = false;

      for(var i = 0; i < params.length; i++) {
        var arg = unescape(params[i]);
        if(arg == "clear") {
          clear = true;
        } else if(typeof(document.getElementById(arg)) != "undefined") {
          marked_regions[arg] = true;
        }
      }

      for(var i = 0; i < document.rootElement.childNodes.length; i++) {
        var node = document.rootElement.childNodes.item(i);
        if(node.nodeName == "path") {
          node.addEventListener("click", random_opacity, false);
          node.addEventListener("mouseover", solid_opacity, false);
          node.addEventListener("mouseout", translucent_opacity, false);
          if(marked_regions[node.id]) {
            node.style.setProperty("fill-opacity", .95, blank_var);
          } else if(clear) {
            // Doesn't work in Batik
            // node.style.setProperty("display", "none", blank_var);
            node.style.setProperty("opacity", 0, blank_var);
          }
        }
      }

    ]]></script>
  </defs>
  <path class="st0"
        d="M 249,646 c 8,-6 4,-33 13,-31
        c 3,0 3,-8 7,-7 c 9,3 20,10 34,25
        c 4,-2 0,-7 4,-14 c 1,-5 3,10 10,-7
        c 11,0 23,7 33,7 c 13,0 20,-6 26,-4
        c 3,-2 -2,-8 0,-10 c 4,-4, 7,-2, 8,-3
        v 9 l 188,1 l 7,-47 l -10,-8 l -62,-436
        l 77,-9 L 410,1 l 2,63 l -159,4 l -4,130
        c -33,-2 -49,14 -51,31 l 4,78 l -166,1
        c 0,0 -20,-7 -24,-5 C 7,304, 1,317, 1,320
        c -1,6 1,1 4,11 c 3,-7 5,-14, 6,-17
        c 0,-2 10,34 13,29 c 38,14 4,51 5,63
        c 25,40 43,45 -3,152 c 0,0 -7,19 -4,20
        c 4,2 10,-22 18,-26 c 7,8 34,-2 39,-3
        c 12,2 25,-3 33,-3 c 4,1 18,5 24,5
        c 8,6 8,9 9,17 c 5,6 13,10 25,12
        c 5,-2 11,26 27,32 c 12,6 4,11 13,18
        c 6,4 10,-1 19,17 C 228,646 241,652 249,646 z"/>
  <path id="nouadhibou"
        d="M 29 407
        C 34 404 64 347 67 336
        C 70 329 67 328 63 323
        l 90,0     
        l -15,-16
        
        l -102,0
        c 0,0, -20,-7, -24,-5
        C 7,304, 1,317, 1,320
        c -1,6, 1,1, 4,11
        c 3,-7, 5,-14, 6,-17
        c 0,-2, 10,34, 13,29
        c 38,14, 4,51, 5,63
        z"/>
  <path id="inchiri"
        d="M 64 323
        C 146 323 160 323 160 323
        l -13,114
        l -98,0
        
        l -20,-30
        C 34 404 64 347 67 336
        C 70 329 67 328 63 323
        z"/>
  <path id="nouakchott"
        d="M 54 471
        l 11,0
        l 0,20
        l -15,0
        z"/>
  <path id="trarza"
        d="M 79 547
        C 83 547 109 532 113 528
        C 128 514 140 498 160 491
        C 177 485 194 461 204 456
        C 176 438 176 437 175 437
        l -127,0
        c 7,7 7,30, 5,33
        l 13,0
        l 0,22
        l -17,0
        c -10,40 -32,74 -28,86
        
        c 4,2, 10,-22, 18,-26
        c 7,8, 34,-2, 39,-4
        z" />
  <path id="brakna"
        onclick="document.getElementById('brakna').style.setProperty('fill-opacity', Math.random(), null)"
        d="M 79 548
        C 83 547 109 532 113 528
        C 128 514 140 498 160 491
        C 177 485 194 461 204 456
        
        C 209 458 210 465 216 470
        C 217 478 215 497 216 511
        C 218 515 228 521 230 525
        C 220 539 217 526 208 539
        C 208 549 204 552 192 556
        C 182 550 170 575 170 580
        
        c -12,-2 -20,-6 -25,-12
        c -1,-8 -1,-11 -9,-17
        c -6,0, -20,-4 -24,-5
        c -8,0 -21,5 -33,3
        z"/>
  <path id="guidimaka"
        d="M 210 630
        C 211 609 231 593 245 590
        C 253 581 251 595 253 575
        C 254 570 264 577 268 576
        C 276 576 269 586 268 595
        C 262 603 262 614 262 615

        c -9,-2 -5,25 -13,31
        c -8,6 -21,0 -20,1
        c -9,-18 -13,-13, -19,-17
        z"/>
  <path id="gorgol"
        d="M 245 589
        C 241 588 240 580 236 578
        C 229 577 234 574 224 574
        C 219 574 220 560 218 559
        C 210 554 216 552 213 548
        C 211 546 211 550 207 545

        C 208 549 198 556 192 556
        C 182 550 170 575 170 580

        c 5,-2 11,26 27,32
        c 12,6 4,11 13,18

        C 211 609 231 593 245 590
        z"/>
  <path id="assaba"
        d="M 230 525
        C 234 525 245 527 249 529
        C 252 532 253 535 259 535
        C 266 535 264 535 269 532
        C 274 527 278 539 278 525
        C 278 519 278 511 275 505
        C 274 502 269 501 272 498
        C 272 497 277 498 277 498
        C 282 498 288 490 291 492
        C 293 493 288 500 288 503
        C 288 506 288 509 290 511
        C 291 512 294 531 294 533
        C 295 542 298 551 298 561
        C 298 563 301 562 304 563
        C 305 562 301 569 299 570
        C 297 572 307 579 308 583
        C 311 587 309 596 314 600
        C 312 603 315 609 317 612

        c -7,17 -9,2 -10,7
        c -4,7, 0,12 -4,14
        c -14,-15 -25,-22 -34,-25
        c -4,-1 -4,7 -7,7

        C 262 614 262 603 268 595
        C 269 586 276 576 268 576
        C 264 577 254 570 253 575
        C 251 595 253 581 245 590

        C 241 588 240 580 236 578
        C 229 577 234 574 224 574
        C 219 574 220 560 218 559
        C 210 554 216 552 213 548
        C 211 546 211 550 207 545

        C 208 542 208 542 208 539
        C 217 526 220 539 230 525
        z"/>
  <path id="hodh-el-gharbi"
        d="M 291 514
        C 296 514 312 522 314 522
        C 317 522 328 518 334 517
        C 340 516 360 518 362 519
        C 364 520 381 528 383 528
        C 385 529 406 524 407 525
        C 410 526 415 534 415 534
        C 415 534 401 562 399 566
        C 393 573 405 585 407 593
        C 409 600 406 606 406 611

        l -22,0
        v -9

        c -1,1 -4,-1 -8,3
        c -2,2 3,8 0,10
        c -6,-2 -13,4 -26,4
        c -10,0 -22,-7 -33,-7

        C 315 609 312 603 314 600
        C 309 596 311 587 308 583
        C 307 579 297 572 299 570
        C 301 569 305 562 304 563
        C 301 562 298 563 298 561
        C 298 551 295 542 294 533
        C 294 531 291 512 291 514
        z"/>
  <path id="hodh-ech-chargui"
        d="M 383 528

        C 385 529 406 524 407 525
        C 410 526 415 534 415 534
        C 415 534 401 562 399 566
        C 393 573 405 585 407 593
        C 409 600 406 606 406 611

        l 166,1
        l 7,-47
        l -10,-8
        l -45,-315
        z"/>
  <path id="tagant"
        d="M 204 456
        C 211 452 249 417 256 409
        C 263 405 270 408 281 410
        C 277 398 293 387 305 379
        C 308 377 457 374 458 372

        L 383 526

        C 381 528 364 520 362 519
        C 360 518 340 516 334 517
        C 328 518 317 522 314 522
        C 312 522 296 514 291 514

        C 288 509 288 506 288 503
        C 288 500 293 493 291 492

        C 288 490 282 498 277 498
        C 277 498 272 497 272 498
        C 269 501 274 502 275 505
        C 278 511 278 519 278 525
        C 278 539 274 527 269 532
        C 264 535 266 535 259 535
        C 253 535 252 532 249 529
        C 245 527 234 525 230 525

        C 228 521 218 515 216 511
        C 215 497 217 478 216 470
        C 210 465 209 458 204 456

        z"/>
  <path id="tiris-zemmour"
        d="M 201 292
        L 244 308
        L 335 292
        L 510 143

        l -3,-22
        l 77,-9
        L 410,1
        l 2,63
        l -159,4
        l -4,130
        c -33,-2 -49,14, -51,31
        z"/>
  <path id="adrar"
        d="M 204 456
        C 211 452 249 417 256 409
        C 263 405 270 408 281 410
        C 277 398 293 387 305 379
        C 308 377 457 374 458 372

        L 524 242

        L 510 143
        L 335 292
        L 244 308
        L 201 292

        l 1,15
        l -63,0

        l 15,16

        l 6,0
        l -13,114

        l 28,0
        z"/>
</svg>
