<?xml version="1.0" encoding="UTF-8" standalone="no"?>
<!-- Created with Inkscape (http://www.inkscape.org/) -->
<svg
   xmlns:dc="http://purl.org/dc/elements/1.1/"
   xmlns:cc="http://creativecommons.org/ns#"
   xmlns:rdf="http://www.w3.org/1999/02/22-rdf-syntax-ns#"
   xmlns:svg="http://www.w3.org/2000/svg"
   xmlns="http://www.w3.org/2000/svg"
   xmlns:xlink="http://www.w3.org/1999/xlink"
   xmlns:sodipodi="http://sodipodi.sourceforge.net/DTD/sodipodi-0.dtd"
   xmlns:inkscape="http://www.inkscape.org/namespaces/inkscape"
   width="100%"
   height="100%"
   id="svg2"
   sodipodi:version="0.32"
   inkscape:version="0.46"
   sodipodi:docname="l_curve_large.svg"
   inkscape:output_extension="org.inkscape.output.svg.inkscape"
   version="1.0"
   viewBox="0 0 750.04946 745.0387">
  <defs
     id="defs4">
    <pattern
       inkscape:collect="always"
       xlink:href="#pattern8106"
       id="pattern8213"
       patternTransform="matrix(18.300786,0,0,18.300786,5.3006906e-2,715.41401)" />
    <pattern
       inkscape:collect="always"
       xlink:href="#pattern7586"
       id="pattern8106"
       patternTransform="matrix(18.300786,0,0,18.300786,590.6184,1015.9473)" />
    <pattern
       inkscape:collect="always"
       xlink:href="#pattern5024"
       id="pattern7586"
       patternTransform="matrix(9.4514257,0,0,9.4514257,728.76343,866.26041)" />
    <pattern
       inkscape:collect="always"
       xlink:href="#pattern5024"
       id="pattern7492"
       patternTransform="matrix(4.9308841,0,0,4.9308841,1990.0807,755.39583)" />
    <inkscape:perspective
       sodipodi:type="inkscape:persp3d"
       inkscape:vp_x="0 : 526.18109 : 1"
       inkscape:vp_y="0 : 1000 : 0"
       inkscape:vp_z="744.09448 : 526.18109 : 1"
       inkscape:persp3d-origin="372.04724 : 350.78739 : 1"
       id="perspective10" />
    <inkscape:perspective
       id="perspective2447"
       inkscape:persp3d-origin="372.04724 : 350.78739 : 1"
       inkscape:vp_z="744.09448 : 526.18109 : 1"
       inkscape:vp_y="0 : 1000 : 0"
       inkscape:vp_x="0 : 526.18109 : 1"
       sodipodi:type="inkscape:persp3d" />
    <clipPath
       id="clipPath4183"
       clipPathUnits="userSpaceOnUse">
      <path
         id="path4185"
         d="M 453.96255,449.9072 L 465.27626,523.44631 L 489.31789,865.68599 L 671.75144,865.68599 L 818.82965,534.76002 L 642.05296,271.7163 L 475.17576,277.37315 L 453.96255,449.9072 z"
         style="fill:none;fill-rule:evenodd;stroke:#000000;stroke-width:1px;stroke-linecap:butt;stroke-linejoin:miter;stroke-opacity:1" />
    </clipPath>
    <inkscape:perspective
       id="perspective4289"
       inkscape:persp3d-origin="372.04724 : 350.78739 : 1"
       inkscape:vp_z="744.09448 : 526.18109 : 1"
       inkscape:vp_y="0 : 1000 : 0"
       inkscape:vp_x="0 : 526.18109 : 1"
       sodipodi:type="inkscape:persp3d" />
    <inkscape:perspective
       sodipodi:type="inkscape:persp3d"
       inkscape:vp_x="0 : 526.18109 : 1"
       inkscape:vp_y="0 : 1000 : 0"
       inkscape:vp_z="744.09448 : 526.18109 : 1"
       inkscape:persp3d-origin="372.04724 : 350.78739 : 1"
       id="perspective5328" />
    <inkscape:perspective
       id="perspective5282"
       inkscape:persp3d-origin="372.04724 : 350.78739 : 1"
       inkscape:vp_z="744.09448 : 526.18109 : 1"
       inkscape:vp_y="0 : 1000 : 0"
       inkscape:vp_x="0 : 526.18109 : 1"
       sodipodi:type="inkscape:persp3d" />
    <clipPath
       id="clipPath4809"
       clipPathUnits="userSpaceOnUse">
      <path
         id="path4811"
         d="M 453.96255,449.9072 L 465.27626,523.44631 L 489.31789,865.68599 L 671.75144,865.68599 L 818.82965,534.76002 L 642.05296,271.7163 L 475.17576,277.37315 L 453.96255,449.9072 z"
         style="fill:none;fill-rule:evenodd;stroke:#000000;stroke-width:1px;stroke-linecap:butt;stroke-linejoin:miter;stroke-opacity:1" />
    </clipPath>
    <inkscape:perspective
       id="perspective4806"
       inkscape:persp3d-origin="0.5 : 0.33333333 : 1"
       inkscape:vp_z="1 : 0.5 : 1"
       inkscape:vp_y="0 : 1000 : 0"
       inkscape:vp_x="0 : 0.5 : 1"
       sodipodi:type="inkscape:persp3d" />
    <pattern
       patternUnits="userSpaceOnUse"
       width="2.4731498"
       height="1.2213951"
       patternTransform="translate(728.76343,866.26041)"
       id="pattern5024">
      <g
         transform="matrix(2.485754e-2,0,0,2.485754e-2,4.1371022e-2,4.1371095e-2)"
         id="g4988">
        <g
           inkscape:label="Layer 1"
           id="g4990"
           transform="translate(-221.29285,-444.36933)">
          <rect
             style="opacity:1;fill:#489b48;fill-opacity:1;stroke:#000000;stroke-width:1.70000005;stroke-linecap:round;stroke-linejoin:round;stroke-miterlimit:4;stroke-dasharray:none;stroke-dashoffset:0;stroke-opacity:1"
             id="rect4992"
             width="94.464287"
             height="44.107143"
             x="222.14285"
             y="445.21933"
             rx="1"
             ry="1" />
          <path
             style="fill:#35a435;fill-opacity:1;fill-rule:evenodd;stroke:#000000;stroke-width:1px;stroke-linecap:butt;stroke-linejoin:miter;stroke-opacity:1"
             d="M 222.14286,449.4107 L 316.22108,449.4107"
             id="path4994"
             sodipodi:nodetypes="cc" />
          <path
             style="fill:#35a435;fill-opacity:1;fill-rule:evenodd;stroke:#000000;stroke-width:1px;stroke-linecap:butt;stroke-linejoin:miter;stroke-opacity:1"
             d="M 222.14286,453.43743 L 316.22108,453.43743"
             id="path4996"
             sodipodi:nodetypes="cc" />
          <path
             style="fill:#35a435;fill-opacity:1;fill-rule:evenodd;stroke:#000000;stroke-width:1px;stroke-linecap:butt;stroke-linejoin:miter;stroke-opacity:1"
             d="M 222.14286,457.2691 L 316.22108,457.2691"
             id="path4998"
             sodipodi:nodetypes="cc" />
          <path
             style="fill:#35a435;fill-opacity:1;fill-rule:evenodd;stroke:#000000;stroke-width:1px;stroke-linecap:butt;stroke-linejoin:miter;stroke-opacity:1"
             d="M 222.14286,461.33477 L 316.22108,461.33477"
             id="path5000"
             sodipodi:nodetypes="cc" />
          <path
             style="fill:#35a435;fill-opacity:1;fill-rule:evenodd;stroke:#000000;stroke-width:1px;stroke-linecap:butt;stroke-linejoin:miter;stroke-opacity:1"
             d="M 222.14286,465.36149 L 316.22108,465.36149"
             id="path5002"
             sodipodi:nodetypes="cc" />
          <path
             style="fill:#35a435;fill-opacity:1;fill-rule:evenodd;stroke:#000000;stroke-width:1px;stroke-linecap:butt;stroke-linejoin:miter;stroke-opacity:1"
             d="M 222.14286,469.72888 L 316.22108,469.72888"
             id="path5004"
             sodipodi:nodetypes="cc" />
          <path
             style="fill:#35a435;fill-opacity:1;fill-rule:evenodd;stroke:#000000;stroke-width:1px;stroke-linecap:butt;stroke-linejoin:miter;stroke-opacity:1"
             d="M 222.14286,473.74549 L 316.22108,473.74549"
             id="path5006"
             sodipodi:nodetypes="cc" />
          <path
             style="fill:#35a435;fill-opacity:1;fill-rule:evenodd;stroke:#000000;stroke-width:1px;stroke-linecap:butt;stroke-linejoin:miter;stroke-opacity:1"
             d="M 222.14286,477.75574 L 316.22108,477.75574"
             id="path5008"
             sodipodi:nodetypes="cc" />
          <path
             style="fill:#35a435;fill-opacity:1;fill-rule:evenodd;stroke:#000000;stroke-width:1px;stroke-linecap:butt;stroke-linejoin:miter;stroke-opacity:1"
             d="M 222.14286,481.52221 L 316.22108,481.52221"
             id="path5010"
             sodipodi:nodetypes="cc" />
          <path
             style="fill:#35a435;fill-opacity:1;fill-rule:evenodd;stroke:#000000;stroke-width:1px;stroke-linecap:butt;stroke-linejoin:miter;stroke-opacity:1"
             d="M 222.14286,485.17469 L 316.22108,485.17469"
             id="path5012"
             sodipodi:nodetypes="cc" />
          <rect
             style="opacity:1;fill:#dfc19b;fill-opacity:1;stroke:#000000;stroke-width:1.70000005;stroke-linecap:round;stroke-linejoin:round;stroke-miterlimit:4;stroke-dasharray:none;stroke-dashoffset:0;stroke-opacity:1"
             id="rect5014"
             width="25.178568"
             height="43.928528"
             x="255.89287"
             y="445.21933" />
          <text
             xml:space="preserve"
             style="font-size:20px;font-style:normal;font-weight:normal;text-align:center;text-anchor:middle;fill:#000000;fill-opacity:1;stroke:none;stroke-width:1px;stroke-linecap:butt;stroke-linejoin:miter;stroke-opacity:1;font-family:Bitstream Vera Sans"
             x="268.75"
             y="480.07645"
             id="text5016"><tspan
               sodipodi:role="line"
               id="tspan5018"
               x="268.75"
               y="480.07645"
               style="font-size:32px;font-style:normal;font-variant:normal;font-weight:bold;font-stretch:normal;text-align:center;text-anchor:middle;font-family:AR PL UMing CN;-inkscape-font-specification:AR PL UMing CN Bold">$</tspan></text>
          <path
             style="fill:#0c0e0c;fill-opacity:0.24669602;fill-rule:evenodd;stroke:none;stroke-width:1px;stroke-linecap:butt;stroke-linejoin:miter;stroke-opacity:1"
             d="M 223.92858,488.96932 C 239.73349,479.61317 300.38989,473.14938 316.42857,464.50504 C 317.14285,464.1479 316.25,489.32647 316.25,489.32647 C 316.25,489.32647 224.47435,489.7985 223.92858,488.96932 z"
             id="path5020"
             sodipodi:nodetypes="cccc" />
        </g>
        <g
           id="g5022"
           inkscape:label="Background"
           transform="translate(-221.29285,-444.36933)" />
      </g>
    </pattern>
    <inkscape:perspective
       id="perspective7837"
       inkscape:persp3d-origin="372.04724 : 350.78739 : 1"
       inkscape:vp_z="744.09448 : 526.18109 : 1"
       inkscape:vp_y="0 : 1000 : 0"
       inkscape:vp_x="0 : 526.18109 : 1"
       sodipodi:type="inkscape:persp3d" />
    <clipPath
       clipPathUnits="userSpaceOnUse"
       id="clipPath8206">
      <path
         sodipodi:type="arc"
         style="opacity:0.98999999;fill:none;fill-opacity:1;stroke:#121135;stroke-width:4.9000001;stroke-linecap:round;stroke-linejoin:round;stroke-miterlimit:4;stroke-dasharray:none;stroke-dashoffset:0;stroke-opacity:1"
         id="path8208"
         sodipodi:cx="290.71429"
         sodipodi:cy="287.9801"
         sodipodi:rx="153.31776"
         sodipodi:ry="90.714287"
         d="M 443.15752,297.65536 A 153.31776,90.714287 0 1 1 443.15893,297.64758"
         sodipodi:start="0.10685966"
         sodipodi:end="6.3899587"
         sodipodi:open="true"
         transform="matrix(12.522696,0,0,12.522696,-3518.2204,-3063.9119)" />
    </clipPath>
    <pattern
       patternUnits="userSpaceOnUse"
       width="45.35142"
       height="581.62573"
       patternTransform="translate(590.56539,300.53329)"
       id="pattern8210">
      <path
         sodipodi:nodetypes="ccccc"
         id="money"
         d="M -1.3093709e-05,581.62573 L 0.63080691,0.16364 L 44.849897,1.1368684e-13 L 45.351407,581.60448 L -1.3093709e-05,581.62573 z"
         style="fill:url(#pattern8213);fill-opacity:1;fill-rule:evenodd;stroke:none;stroke-width:1px;stroke-linecap:butt;stroke-linejoin:miter;stroke-opacity:1" />
    </pattern>
    <pattern
       patternUnits="userSpaceOnUse"
       width="96.164287"
       height="45.807143"
       patternTransform="translate(-69.397284,425.58246)"
       id="pattern8348">
      <g
         id="g8283"
         transform="translate(-221.29287,-444.36933)">
        <rect
           style="opacity:1;fill:#489b48;fill-opacity:1;stroke:#000000;stroke-width:1.70000005;stroke-linecap:round;stroke-linejoin:round;stroke-miterlimit:4;stroke-dasharray:none;stroke-dashoffset:0;stroke-opacity:1"
           id="rect5334"
           width="94.464287"
           height="44.107143"
           x="222.14285"
           y="445.21933"
           rx="1"
           ry="1" />
        <path
           style="fill:#35a435;fill-opacity:1;fill-rule:evenodd;stroke:#000000;stroke-width:1px;stroke-linecap:butt;stroke-linejoin:miter;stroke-opacity:1"
           d="M 222.14286,449.4107 L 316.22108,449.4107"
           id="path5845"
           sodipodi:nodetypes="cc" />
        <path
           style="fill:#35a435;fill-opacity:1;fill-rule:evenodd;stroke:#000000;stroke-width:1px;stroke-linecap:butt;stroke-linejoin:miter;stroke-opacity:1"
           d="M 222.14286,453.43743 L 316.22108,453.43743"
           id="path5851"
           sodipodi:nodetypes="cc" />
        <path
           style="fill:#35a435;fill-opacity:1;fill-rule:evenodd;stroke:#000000;stroke-width:1px;stroke-linecap:butt;stroke-linejoin:miter;stroke-opacity:1"
           d="M 222.14286,457.2691 L 316.22108,457.2691"
           id="path5853"
           sodipodi:nodetypes="cc" />
        <path
           style="fill:#35a435;fill-opacity:1;fill-rule:evenodd;stroke:#000000;stroke-width:1px;stroke-linecap:butt;stroke-linejoin:miter;stroke-opacity:1"
           d="M 222.14286,461.33477 L 316.22108,461.33477"
           id="path5855"
           sodipodi:nodetypes="cc" />
        <path
           style="fill:#35a435;fill-opacity:1;fill-rule:evenodd;stroke:#000000;stroke-width:1px;stroke-linecap:butt;stroke-linejoin:miter;stroke-opacity:1"
           d="M 222.14286,465.36149 L 316.22108,465.36149"
           id="path5859"
           sodipodi:nodetypes="cc" />
        <path
           style="fill:#35a435;fill-opacity:1;fill-rule:evenodd;stroke:#000000;stroke-width:1px;stroke-linecap:butt;stroke-linejoin:miter;stroke-opacity:1"
           d="M 222.14286,469.72888 L 316.22108,469.72888"
           id="path5861"
           sodipodi:nodetypes="cc" />
        <path
           style="fill:#35a435;fill-opacity:1;fill-rule:evenodd;stroke:#000000;stroke-width:1px;stroke-linecap:butt;stroke-linejoin:miter;stroke-opacity:1"
           d="M 222.14286,473.74549 L 316.22108,473.74549"
           id="path5863"
           sodipodi:nodetypes="cc" />
        <path
           style="fill:#35a435;fill-opacity:1;fill-rule:evenodd;stroke:#000000;stroke-width:1px;stroke-linecap:butt;stroke-linejoin:miter;stroke-opacity:1"
           d="M 222.14286,477.75574 L 316.22108,477.75574"
           id="path5865"
           sodipodi:nodetypes="cc" />
        <path
           style="fill:#35a435;fill-opacity:1;fill-rule:evenodd;stroke:#000000;stroke-width:1px;stroke-linecap:butt;stroke-linejoin:miter;stroke-opacity:1"
           d="M 222.14286,481.52221 L 316.22108,481.52221"
           id="path5867"
           sodipodi:nodetypes="cc" />
        <path
           style="fill:#35a435;fill-opacity:1;fill-rule:evenodd;stroke:#000000;stroke-width:1px;stroke-linecap:butt;stroke-linejoin:miter;stroke-opacity:1"
           d="M 222.14286,485.17469 L 316.22108,485.17469"
           id="path5871"
           sodipodi:nodetypes="cc" />
        <rect
           style="opacity:1;fill:#dfc19b;fill-opacity:1;stroke:#000000;stroke-width:1.70000005;stroke-linecap:round;stroke-linejoin:round;stroke-miterlimit:4;stroke-dasharray:none;stroke-dashoffset:0;stroke-opacity:1"
           id="rect5875"
           width="25.178568"
           height="43.928528"
           x="255.89287"
           y="445.21933" />
        <text
           xml:space="preserve"
           style="font-size:20px;font-style:normal;font-weight:normal;text-align:center;text-anchor:middle;fill:#000000;fill-opacity:1;stroke:none;stroke-width:1px;stroke-linecap:butt;stroke-linejoin:miter;stroke-opacity:1;font-family:Bitstream Vera Sans"
           x="268.75"
           y="480.07645"
           id="text5877"><tspan
             sodipodi:role="line"
             id="tspan5879"
             x="268.75"
             y="480.07645"
             style="font-size:32px;font-style:normal;font-variant:normal;font-weight:bold;font-stretch:normal;text-align:center;text-anchor:middle;font-family:AR PL UMing CN;-inkscape-font-specification:AR PL UMing CN Bold">$</tspan></text>
        <path
           style="fill:#0c0e0c;fill-opacity:0.24669602;fill-rule:evenodd;stroke:none;stroke-width:1px;stroke-linecap:butt;stroke-linejoin:miter;stroke-opacity:1"
           d="M 223.92858,488.96932 C 239.73349,479.61317 300.38989,473.14938 316.42857,464.50504 C 317.14285,464.1479 316.25,489.32647 316.25,489.32647 C 316.25,489.32647 224.47435,489.7985 223.92858,488.96932 z"
           id="path5881"
           sodipodi:nodetypes="cccc" />
      </g>
    </pattern>
  </defs>
  <sodipodi:namedview
     id="base"
     pagecolor="#ffffff"
     bordercolor="#666666"
     borderopacity="1.0"
     gridtolerance="10000"
     guidetolerance="10"
     objecttolerance="10"
     inkscape:pageopacity="0.0"
     inkscape:pageshadow="2"
     inkscape:zoom="2.8"
     inkscape:cx="422.51418"
     inkscape:cy="811.42424"
     inkscape:document-units="px"
     inkscape:current-layer="layer1"
     showgrid="false"
     inkscape:window-width="1440"
     inkscape:window-height="829"
     inkscape:window-x="0"
     inkscape:window-y="25" />
  <metadata
     id="metadata7">
    <rdf:RDF>
      <cc:Work
         rdf:about="">
        <dc:format>image/svg+xml</dc:format>
        <dc:type
           rdf:resource="http://purl.org/dc/dcmitype/StillImage" />
      </cc:Work>
    </rdf:RDF>
  </metadata>
  <g
     inkscape:label="Layer 1"
     inkscape:groupmode="layer"
     id="layer1"
     transform="translate(-161.54202,-147.73305)">
    <g
       id="g7494"
       clip-path="url(#clipPath8206)"
       transform="matrix(9.1281401e-2,0,0,9.1281401e-2,326.77934,628.77044)">
      <g
         id="g7344"
         transform="matrix(4.9308841,0,0,4.9308841,-1603.3674,-3516.034)">
        <g
           id="g7346">
          <path
             sodipodi:nodetypes="cccc"
             id="path7348"
             d="M -14.285714,828.07647 L -13.928572,856.29076 L 32.5,831.64789 L 32.5,809.50504"
             style="fill:none;fill-rule:evenodd;stroke:#000000;stroke-width:3.5;stroke-linecap:round;stroke-linejoin:round;stroke-miterlimit:4;stroke-dasharray:none;stroke-opacity:1" />
          <path
             id="path7350"
             d="M -6.7857143,852.36218 L -6.7857143,877.00504"
             style="fill:none;fill-rule:evenodd;stroke:#000000;stroke-width:1px;stroke-linecap:butt;stroke-linejoin:miter;stroke-opacity:1" />
          <path
             id="path7352"
             d="M 25.357143,835.21933 L 25.357143,860.21933"
             style="fill:none;fill-rule:evenodd;stroke:#000000;stroke-width:1px;stroke-linecap:butt;stroke-linejoin:miter;stroke-opacity:1" />
        </g>
        <g
           id="g7354">
          <path
             sodipodi:nodetypes="ccccc"
             id="path7356"
             d="M -67.142857,908.07647 L 87.142857,828.07647 L 809.28571,828.43361 L 655,908.07647 L -67.142857,908.07647 z"
             style="fill:#a3e59f;fill-opacity:1;fill-rule:evenodd;stroke:#000000;stroke-width:1.60000002;stroke-linecap:butt;stroke-linejoin:round;stroke-miterlimit:4;stroke-dasharray:none;stroke-opacity:1" />
          <g
             id="g7358">
            <path
               sodipodi:nodetypes="cc"
               id="path7360"
               d="M 510.0893,908.03182 L 666.07143,828.92468"
               style="fill:none;fill-rule:evenodd;stroke:#000000;stroke-width:1.79999995;stroke-linecap:round;stroke-linejoin:miter;stroke-miterlimit:4;stroke-dasharray:none;stroke-opacity:1" />
            <path
               style="fill:none;fill-rule:evenodd;stroke:#000000;stroke-width:1.79999995;stroke-linecap:round;stroke-linejoin:miter;stroke-miterlimit:4;stroke-dasharray:none;stroke-opacity:1"
               d="M 3.75,907.89789 L 160.17856,828.16575"
               id="path7362"
               sodipodi:nodetypes="cc" />
            <path
               style="fill:none;fill-rule:evenodd;stroke:#000000;stroke-width:2.5;stroke-linecap:round;stroke-linejoin:miter;stroke-miterlimit:4;stroke-dasharray:none;stroke-opacity:1"
               d="M 98.571429,853.79075 L 118.57143,853.96932"
               id="path7364"
               sodipodi:nodetypes="cc" />
            <path
               style="fill:none;fill-rule:evenodd;stroke:#000000;stroke-width:2.5;stroke-linecap:round;stroke-linejoin:miter;stroke-miterlimit:4;stroke-dasharray:none;stroke-opacity:1"
               d="M 46.428574,880.84432 L 66.428574,881.02289"
               id="path7366"
               sodipodi:nodetypes="cc" />
            <path
               style="fill:none;fill-rule:evenodd;stroke:#000000;stroke-width:1.79999995;stroke-linecap:round;stroke-linejoin:miter;stroke-miterlimit:4;stroke-dasharray:none;stroke-opacity:1"
               d="M 74.642863,907.94253 L 231.07142,828.21039"
               id="path7368"
               sodipodi:nodetypes="cc" />
            <path
               style="fill:none;fill-rule:evenodd;stroke:#000000;stroke-width:2.5;stroke-linecap:round;stroke-linejoin:miter;stroke-miterlimit:4;stroke-dasharray:none;stroke-opacity:1"
               d="M 169.46429,853.83539 L 189.46429,854.01396"
               id="path7370"
               sodipodi:nodetypes="cc" />
            <path
               style="fill:none;fill-rule:evenodd;stroke:#000000;stroke-width:2.5;stroke-linecap:round;stroke-linejoin:miter;stroke-miterlimit:4;stroke-dasharray:none;stroke-opacity:1"
               d="M 117.32143,880.88896 L 137.32143,881.06753"
               id="path7372"
               sodipodi:nodetypes="cc" />
            <path
               style="fill:none;fill-rule:evenodd;stroke:#000000;stroke-width:1.79999995;stroke-linecap:round;stroke-linejoin:miter;stroke-miterlimit:4;stroke-dasharray:none;stroke-opacity:1"
               d="M 146.78572,907.94253 L 303.21428,828.21039"
               id="path7374"
               sodipodi:nodetypes="cc" />
            <path
               style="fill:none;fill-rule:evenodd;stroke:#000000;stroke-width:2.5;stroke-linecap:round;stroke-linejoin:miter;stroke-miterlimit:4;stroke-dasharray:none;stroke-opacity:1"
               d="M 241.60715,853.83539 L 261.60715,854.01396"
               id="path7376"
               sodipodi:nodetypes="cc" />
            <path
               style="fill:none;fill-rule:evenodd;stroke:#000000;stroke-width:2.5;stroke-linecap:round;stroke-linejoin:miter;stroke-miterlimit:4;stroke-dasharray:none;stroke-opacity:1"
               d="M 189.4643,880.88896 L 209.4643,881.06753"
               id="path7378"
               sodipodi:nodetypes="cc" />
            <path
               style="fill:none;fill-rule:evenodd;stroke:#000000;stroke-width:1.79999995;stroke-linecap:round;stroke-linejoin:miter;stroke-miterlimit:4;stroke-dasharray:none;stroke-opacity:1"
               d="M 219.28573,907.94253 L 374.64286,828.92468"
               id="path7380"
               sodipodi:nodetypes="cc" />
            <path
               style="fill:none;fill-rule:evenodd;stroke:#000000;stroke-width:2.5;stroke-linecap:round;stroke-linejoin:miter;stroke-miterlimit:4;stroke-dasharray:none;stroke-opacity:1"
               d="M 313.03573,854.54968 L 333.03573,854.72825"
               id="path7382"
               sodipodi:nodetypes="cc" />
            <path
               style="fill:none;fill-rule:evenodd;stroke:#000000;stroke-width:2.5;stroke-linecap:round;stroke-linejoin:miter;stroke-miterlimit:4;stroke-dasharray:none;stroke-opacity:1"
               d="M 260.89287,881.60325 L 280.89287,881.78182"
               id="path7384"
               sodipodi:nodetypes="cc" />
            <path
               style="fill:none;fill-rule:evenodd;stroke:#000000;stroke-width:1.79999995;stroke-linecap:round;stroke-linejoin:miter;stroke-miterlimit:4;stroke-dasharray:none;stroke-opacity:1"
               d="M 293.48215,908.03183 L 448.21428,828.92469"
               id="path7386"
               sodipodi:nodetypes="cc" />
            <path
               style="fill:none;fill-rule:evenodd;stroke:#000000;stroke-width:2.5;stroke-linecap:round;stroke-linejoin:miter;stroke-miterlimit:4;stroke-dasharray:none;stroke-opacity:1"
               d="M 386.60715,854.54969 L 406.60715,854.72826"
               id="path7388"
               sodipodi:nodetypes="cc" />
            <path
               style="fill:none;fill-rule:evenodd;stroke:#000000;stroke-width:2.5;stroke-linecap:round;stroke-linejoin:miter;stroke-miterlimit:4;stroke-dasharray:none;stroke-opacity:1"
               d="M 334.46429,881.60326 L 354.46429,881.78183"
               id="path7390"
               sodipodi:nodetypes="cc" />
            <path
               style="fill:none;fill-rule:evenodd;stroke:#000000;stroke-width:1.79999995;stroke-linecap:round;stroke-linejoin:miter;stroke-miterlimit:4;stroke-dasharray:none;stroke-opacity:1"
               d="M 365.71429,907.94253 L 521.07142,828.92468"
               id="path7392"
               sodipodi:nodetypes="cc" />
            <path
               style="fill:none;fill-rule:evenodd;stroke:#000000;stroke-width:2.5;stroke-linecap:round;stroke-linejoin:miter;stroke-miterlimit:4;stroke-dasharray:none;stroke-opacity:1"
               d="M 459.46429,854.54968 L 479.46429,854.72825"
               id="path7394"
               sodipodi:nodetypes="cc" />
            <path
               style="fill:none;fill-rule:evenodd;stroke:#000000;stroke-width:2.5;stroke-linecap:round;stroke-linejoin:miter;stroke-miterlimit:4;stroke-dasharray:none;stroke-opacity:1"
               d="M 407.32143,881.60325 L 427.32143,881.78182"
               id="path7396"
               sodipodi:nodetypes="cc" />
            <path
               style="fill:none;fill-rule:evenodd;stroke:#000000;stroke-width:2.5;stroke-linecap:round;stroke-linejoin:miter;stroke-miterlimit:4;stroke-dasharray:none;stroke-opacity:1"
               d="M 604.4643,854.54968 L 624.4643,854.72825"
               id="path7398"
               sodipodi:nodetypes="cc" />
            <path
               style="fill:none;fill-rule:evenodd;stroke:#000000;stroke-width:2.5;stroke-linecap:round;stroke-linejoin:miter;stroke-miterlimit:4;stroke-dasharray:none;stroke-opacity:1"
               d="M 552.32144,881.60325 L 572.32144,881.78182"
               id="path7400"
               sodipodi:nodetypes="cc" />
            <path
               style="fill:none;fill-rule:evenodd;stroke:#000000;stroke-width:1.79999995;stroke-linecap:round;stroke-linejoin:miter;stroke-miterlimit:4;stroke-dasharray:none;stroke-opacity:1"
               d="M 438.2143,907.94254 L 593.92857,828.92469"
               id="path7402"
               sodipodi:nodetypes="cc" />
            <path
               style="fill:none;fill-rule:evenodd;stroke:#000000;stroke-width:2.5;stroke-linecap:round;stroke-linejoin:miter;stroke-miterlimit:4;stroke-dasharray:none;stroke-opacity:1"
               d="M 532.32144,854.54969 L 552.32144,854.72826"
               id="path7404"
               sodipodi:nodetypes="cc" />
            <path
               style="fill:none;fill-rule:evenodd;stroke:#000000;stroke-width:2.5;stroke-linecap:round;stroke-linejoin:miter;stroke-miterlimit:4;stroke-dasharray:none;stroke-opacity:1"
               d="M 480.17858,881.60326 L 500.17858,881.78183"
               id="path7406"
               sodipodi:nodetypes="cc" />
            <path
               style="fill:none;fill-rule:evenodd;stroke:#000000;stroke-width:1.79999995;stroke-linecap:round;stroke-linejoin:miter;stroke-miterlimit:4;stroke-dasharray:none;stroke-opacity:1"
               d="M 580.44644,908.03182 L 736.78571,828.92468"
               id="path7408"
               sodipodi:nodetypes="cc" />
            <path
               style="fill:none;fill-rule:evenodd;stroke:#000000;stroke-width:2.5;stroke-linecap:round;stroke-linejoin:miter;stroke-miterlimit:4;stroke-dasharray:none;stroke-opacity:1"
               d="M 675.17858,854.54968 L 695.17858,854.72825"
               id="path7410"
               sodipodi:nodetypes="cc" />
            <path
               style="fill:none;fill-rule:evenodd;stroke:#000000;stroke-width:2.5;stroke-linecap:round;stroke-linejoin:miter;stroke-miterlimit:4;stroke-dasharray:none;stroke-opacity:1"
               d="M 623.03572,881.60325 L 643.03572,881.78182"
               id="path7412"
               sodipodi:nodetypes="cc" />
          </g>
        </g>
        <g
           id="g7414"
           transform="translate(724.17857,-1.223211)">
          <path
             sodipodi:nodetypes="cccc"
             id="path7416"
             d="M -14.285714,828.07647 L -13.928572,856.29076 L 32.5,831.64789 L 32.5,809.50504"
             style="fill:none;fill-rule:evenodd;stroke:#000000;stroke-width:3.5;stroke-linecap:round;stroke-linejoin:round;stroke-miterlimit:4;stroke-dasharray:none;stroke-opacity:1" />
          <path
             id="path7418"
             d="M -6.7857143,852.36218 L -6.7857143,877.00504"
             style="fill:none;fill-rule:evenodd;stroke:#000000;stroke-width:1px;stroke-linecap:butt;stroke-linejoin:miter;stroke-opacity:1" />
          <path
             id="path7420"
             d="M 25.357143,835.21933 L 25.357143,860.21933"
             style="fill:none;fill-rule:evenodd;stroke:#000000;stroke-width:1px;stroke-linecap:butt;stroke-linejoin:miter;stroke-opacity:1" />
        </g>
      </g>
      <g
         transform="matrix(0.1450484,0,0,0.1450484,145.87196,649.45653)"
         inkscape:label="Layer 1"
         id="g7422">
        <g
           id="g7424">
          <path
             sodipodi:nodetypes="ccsccccsccccsccccccssccsc"
             id="path7426"
             d="M 259.35029,646.37966 C 254.62105,614.8322 265.91494,577.7961 270.65121,532.05038 C 270.63034,518.47245 281.40356,434.98035 305.25572,424.219 C 329.38233,413.33383 333.28804,420.64502 352.85715,414.50504 L 445.71429,415.21932 L 570,420.93361 L 651.76649,407.5355 C 650.95296,408.59522 686.06156,435.18617 674.32777,471.42382 C 662.663,507.44832 455.05052,477.95017 456.42857,474.50504 L 454.66824,451.99452 L 469.46466,607.3406 L 497.85714,830.93361 C 496.23048,839.06695 412.07385,854.13575 406.42857,843.79075 C 400.91147,833.68062 395,624.50504 395,624.50504 L 411.42857,618.07647 L 393.57143,625.93361 L 377.14286,616.6479 L 394.28571,625.21932 L 397.85714,844.50504 C 397.85714,844.50504 303.57142,848.07647 302.14285,828.07647 C 301.36719,817.21711 315.79042,710.44379 327.1775,609.23823 C 336.76234,524.05045 342.26541,463.99381 342.26541,463.99381 L 340,474.50504 C 339.98428,474.50504 322.69817,626.52307 310.35684,651.55657 C 302.52887,667.43503 264.75856,647.30938 259.35029,646.37966 z"
             style="fill:#f58e34;fill-opacity:1;fill-rule:evenodd;stroke:#383838;stroke-width:8.75;stroke-linecap:round;stroke-linejoin:round;stroke-miterlimit:4;stroke-dasharray:none;stroke-opacity:1" />
          <path
             transform="translate(-41.428572,-20)"
             d="M 535.71429,352.36218 A 95.714287,95.714287 0 1 1 344.28571,352.36218 A 95.714287,95.714287 0 1 1 535.71429,352.36218 z"
             sodipodi:ry="95.714287"
             sodipodi:rx="95.714287"
             sodipodi:cy="352.36218"
             sodipodi:cx="440"
             id="path7428"
             style="fill:#f58e34;fill-opacity:1;stroke:#383838;stroke-width:8.75;stroke-linecap:round;stroke-linejoin:round;stroke-miterlimit:4;stroke-dasharray:none;stroke-dashoffset:0;stroke-opacity:1"
             sodipodi:type="arc" />
          <path
             sodipodi:nodetypes="cssssscsc"
             id="path7430"
             d="M 269.62901,631.94443 C 266.83183,628.30667 265.47171,610.13962 269.94178,592.56781 C 273.34377,579.19468 282.13102,567.03489 284.48656,556.80735 C 287.11368,545.40067 279.85994,545.47178 278.8837,537.37372 C 278.00456,530.08119 283.31902,531.80798 284.73694,524.12397 C 287.20311,510.75939 280.335,485.15144 289.61179,475.77668 C 295.72393,469.59997 291.72711,525.75745 291.72711,525.75745 C 291.72711,525.75745 301.45943,531.65105 292.58697,549.94161 C 283.7145,568.23217 289.12234,631.60941 269.62901,631.94443 z"
             style="fill:#ffffff;fill-opacity:0.27467813;fill-rule:evenodd;stroke:none;stroke-width:1px;stroke-linecap:butt;stroke-linejoin:miter;stroke-opacity:1" />
          <path
             sodipodi:nodetypes="cczc"
             id="path7432"
             d="M 303.57142,358.07646 C 425.99019,448.71214 493.58005,344.1329 446.42857,250.93361 C 446.28516,249.92971 554.1253,333.09721 460.71428,404.50504 C 367.64682,475.65025 297.85714,359.50504 303.57142,358.07646 z"
             style="fill:#000000;fill-opacity:0.13304719;fill-rule:evenodd;stroke:none;stroke-width:1px;stroke-linecap:butt;stroke-linejoin:miter;stroke-opacity:1" />
          <path
             sodipodi:nodetypes="csss"
             id="path7434"
             d="M 343.57143,333.07647 C 353.90712,333.27488 373.50872,305.18189 383.57143,302.36218 C 394.91481,299.18361 395.4958,255.34154 365,267.36218 C 310.26569,288.93699 336.45172,332.9398 343.57143,333.07647 z"
             style="fill:#ffffff;fill-opacity:0.32618025;fill-rule:evenodd;stroke:none;stroke-width:1px;stroke-linecap:butt;stroke-linejoin:miter;stroke-opacity:1" />
          <path
             sodipodi:nodetypes="cssscsc"
             id="path7436"
             d="M 626.92374,443.79742 C 632.23213,443.11155 669.6222,425.10097 653.8663,421.44481 C 642.51584,418.81094 586.38796,437.96887 578.48457,436.49701 C 571.26339,435.15221 558.09781,431.74842 550.29487,432.1591 C 536.72344,432.87339 506.50654,426.31762 496.00915,434.30196 C 545.4617,446.61299 564.58059,439.22779 578.15201,441.44482 C 589.58024,443.31173 620.49266,444.01298 626.92374,443.79742 z"
             style="fill:#ffffff;fill-opacity:0.27467813;fill-rule:evenodd;stroke:none;stroke-width:1px;stroke-linecap:butt;stroke-linejoin:miter;stroke-opacity:1" />
          <path
             sodipodi:nodetypes="cssccsscssscssssssscc"
             id="path7438"
             d="M 265.36916,649.02504 C 265.36916,649.02504 279.0965,648.88459 294.70563,624.70088 C 313.34572,595.82121 296.2047,490.19954 342.14285,443.07646 C 347.15915,437.93077 346.02045,415.9336 346.42857,415.9336 C 391.47849,436.93846 422.64212,428.62782 450.71429,413.79075 C 450.71429,413.79075 457.09535,455.36742 479.28572,453.79076 C 508.93476,451.68414 689.66407,524.06799 648.7868,414.25993 C 646.97264,409.38658 656.64394,411.40279 656.64394,411.40279 C 656.64394,411.40279 692.18492,463.86254 670.04206,478.86254 C 647.8992,493.86254 456.42857,487.36218 457.14286,477.36218 C 457.77733,468.4796 490.40844,763.82145 497.33229,828.80989 C 498.95816,844.07061 407.13762,849.47363 406.42857,845.21933 C 406.42857,845.21933 399.37874,840.50791 405.72282,838.84019 C 421.1206,834.79247 459.52452,827.71399 463.57143,797.36218 C 468.89855,757.4088 456.65645,615.75179 430.63603,612.82967 C 429.22812,612.67156 429.00657,608.26931 430.71429,608.07647 C 432.30778,607.89653 451.65552,446.67059 425.71429,443.79075 C 390.66817,439.90014 380.99919,428.59709 340,484.50504 C 339.10276,485.72855 338.79085,473.92831 337.61175,479.92625 C 317.64894,581.47484 319.12269,639.61084 305.35684,654.83214 C 289.64147,658.86179 277.33628,654.36601 265.36916,649.02504 z"
             style="fill:#000000;fill-opacity:0.16309013;fill-rule:evenodd;stroke:none;stroke-width:1px;stroke-linecap:butt;stroke-linejoin:miter;stroke-opacity:1" />
          <path
             sodipodi:nodetypes="cssssscsc"
             id="path7440"
             d="M 420.39558,814.19122 C 417.02909,811.07286 412.64793,793.38962 414.11436,775.31756 C 415.2304,761.56369 417.5731,748.10487 418.18388,737.62736 C 418.86507,725.94189 417.30849,716.75968 414.99083,708.93919 C 412.9037,701.89662 416.44271,688.01712 417.51155,680.27683 C 419.43576,666.34214 415.32577,645.92676 419.94113,635.72411 C 423.52264,627.80686 425.74793,681.43177 425.74793,681.43177 C 425.74793,681.43177 431.42183,710.69972 425.73537,730.21714 C 420.04891,749.73455 439.55796,810.59876 420.39558,814.19122 z"
             style="fill:#ffffff;fill-opacity:0.27467813;fill-rule:evenodd;stroke:none;stroke-width:1px;stroke-linecap:butt;stroke-linejoin:miter;stroke-opacity:1" />
          <path
             sodipodi:nodetypes="cssssscssc"
             id="path7442"
             d="M 330.0339,809.49459 C 326.66741,806.37623 320.85768,788.69299 322.32411,770.62093 C 323.44015,756.86706 331.9685,720.92377 331.75077,710.43073 C 331.50445,698.55976 333.43947,665.6473 334.62915,658.52827 C 335.83986,651.28341 342.54153,622.32243 342.50701,614.50877 C 342.44399,600.24288 342.05601,566.34069 350.29374,556.74177 C 355.95288,550.14751 346.81482,612.44943 346.81482,612.44943 C 346.81482,612.44943 351.06015,644.93166 345.37369,664.44908 C 343.11183,672.21238 335.77694,691.66794 336.75249,718.06468 C 338.23054,758.05811 341.9664,807.33108 330.0339,809.49459 z"
             style="fill:#ffffff;fill-opacity:0.27467813;fill-rule:evenodd;stroke:none;stroke-width:1px;stroke-linecap:butt;stroke-linejoin:miter;stroke-opacity:1" />
          <path
             sodipodi:nodetypes="csscscc"
             id="path7444"
             d="M 330,842.36218 C 331.62504,826.11181 372.92728,838.80369 371.42857,763.79076 C 369.91589,688.0781 366.46635,612.09476 381.42857,619.50504 C 397.13626,627.28453 410.99845,619.79696 411.42857,618.07647 C 411.42857,618.07647 403.17767,680.49632 395.71429,682.36218 C 392.85714,683.07647 397.14286,844.50504 397.14286,844.50504 L 330,842.36218 z"
             style="fill:#000000;fill-opacity:0.16309013;fill-rule:evenodd;stroke:none;stroke-width:1px;stroke-linecap:butt;stroke-linejoin:miter;stroke-opacity:1" />
        </g>
        <g
           id="g7446"
           transform="matrix(1.0247186,0,0,1.0247186,-23.499108,-22.2256)">
          <path
             sodipodi:nodetypes="ccscccssccccsccccccssccsc"
             id="path7448"
             d="M 759.51495,739.34033 C 761.69884,724.77219 755.98349,718.37659 753.79636,697.25191 C 753.80599,690.98183 750.12397,648.80512 739.10941,643.8357 C 727.96811,638.80909 730.40715,642.8924 721.37043,640.05705 L 678.49042,640.38689 L 638.09716,606.02566 C 632.77735,597.17016 628.90289,578.64694 616.83864,581.83862 C 612.8209,582.90154 606.0017,589.60728 611.42019,606.34127 C 616.8068,622.97684 674.17909,669.35504 673.54272,667.76413 L 674.35562,657.36912 L 667.52286,729.10558 L 654.41164,832.35743 C 655.16281,836.11328 694.02506,843.07183 696.63196,838.29466 C 699.17968,833.62596 701.9095,737.03185 701.9095,737.03185 L 694.32304,734.06324 L 702.5692,737.69155 L 710.15566,733.40355 L 702.23935,737.3617 L 700.59012,838.62451 C 700.59012,838.62451 744.12983,840.27374 744.78952,831.03805 C 745.14771,826.02336 738.48728,776.71706 733.2289,729.98187 C 728.80277,690.64345 726.26154,662.91021 726.26154,662.91021 L 727.30767,667.76413 C 727.31493,667.76413 738.28864,732.74894 739.99643,745.52384 C 741.86417,759.49524 752.38718,757.36484 759.51495,739.34033 z"
             style="fill:#c992e9;fill-opacity:1;fill-rule:evenodd;stroke:#383838;stroke-width:4.04061699;stroke-linecap:round;stroke-linejoin:round;stroke-miterlimit:4;stroke-dasharray:none;stroke-opacity:1" />
          <path
             transform="matrix(-5.0786423e-2,0.4589836,0.4589836,5.0786423e-2,560.84975,382.24536)"
             d="M 535.71429,352.36218 A 95.714287,95.714287 0 1 1 344.28571,352.36218 A 95.714287,95.714287 0 1 1 535.71429,352.36218 z"
             sodipodi:ry="95.714287"
             sodipodi:rx="95.714287"
             sodipodi:cy="352.36218"
             sodipodi:cx="440"
             id="path7450"
             style="fill:#c992e9;fill-opacity:1;stroke:#383838;stroke-width:8.75;stroke-linecap:round;stroke-linejoin:round;stroke-miterlimit:4;stroke-dasharray:none;stroke-dashoffset:0;stroke-opacity:1"
             sodipodi:type="arc" />
          <path
             sodipodi:nodetypes="cssssscsc"
             id="path7452"
             d="M 753.06128,732.22461 C 754.35298,730.54475 754.98106,722.15548 752.91685,714.04109 C 751.34586,707.86558 747.28804,702.25037 746.20029,697.52745 C 744.98713,692.26002 748.33679,692.29286 748.78761,688.5533 C 749.19358,685.18572 746.73944,685.98312 746.08467,682.43476 C 744.94583,676.2632 748.11742,664.43784 743.83354,660.10872 C 741.01104,657.25641 742.85671,683.18908 742.85671,683.18908 C 742.85671,683.18908 738.36248,685.91065 742.45964,694.35696 C 746.55682,702.80326 744.05956,732.06991 753.06128,732.22461 z"
             style="fill:#ffffff;fill-opacity:0.27467813;fill-rule:evenodd;stroke:none;stroke-width:1px;stroke-linecap:butt;stroke-linejoin:miter;stroke-opacity:1" />
          <path
             sodipodi:nodetypes="cczc"
             id="path7454"
             d="M 716.85933,559.79585 C 752.24241,620.58711 700.8096,646.29854 660.42732,619.92353 C 659.97382,619.80672 692.66953,673.52736 730.18856,634.27978 C 767.56961,595.17655 717.80523,557.24563 716.85933,559.79585 z"
             style="fill:#000000;fill-opacity:0.13304719;fill-rule:evenodd;stroke:none;stroke-width:1px;stroke-linecap:butt;stroke-linejoin:miter;stroke-opacity:1" />
          <path
             sodipodi:nodetypes="csss"
             id="path7456"
             d="M 703.35329,576.88553 C 702.91944,581.63952 689.02973,589.20959 687.22448,593.68501 C 685.18947,598.73001 665.03717,596.77009 672.10322,583.3835 C 684.78547,559.35706 703.65214,573.61076 703.35329,576.88553 z"
             style="fill:#ffffff;fill-opacity:0.32618025;fill-rule:evenodd;stroke:none;stroke-width:1px;stroke-linecap:butt;stroke-linejoin:miter;stroke-opacity:1" />
          <path
             sodipodi:nodetypes="cssccsscssscssssssscc"
             id="path7458"
             d="M 759.27106,746.35482 C 759.27106,746.35482 755.43198,748.28996 748.22392,737.12229 C 739.61621,723.7861 747.53167,675.01162 726.31813,653.25089 C 724.00168,650.87469 724.52752,640.71673 724.33905,640.71673 C 703.53568,650.41646 689.14479,646.57873 676.18149,639.7272 C 676.18149,639.7272 676.31589,656.39801 671.48764,653.1986 C 670.19637,652.34295 604.71884,614.37197 619.71462,582.94386 C 620.74871,580.77661 616.08631,581.62448 616.08631,581.62448 C 616.08631,581.62448 611.50991,586.60752 609.39926,598.77636 C 607.3077,610.83513 671.31736,674.6286 673.21288,669.08352 C 674.54305,665.1923 657.85134,801.36606 654.65401,831.37673 C 653.90321,838.4239 696.30454,840.91893 696.63196,838.95436 C 696.63196,838.95436 699.88747,836.7787 696.95787,836.00857 C 689.84741,834.13939 672.11306,830.87066 670.24426,816.85465 C 667.78428,798.40479 673.43749,732.98974 685.45333,731.64035 C 686.10348,731.56733 686.20579,729.53444 685.41719,729.44539 C 684.68134,729.3623 675.74685,654.91061 687.72611,653.58074 C 703.90988,651.78412 708.37487,646.56454 727.30767,672.38198 C 727.722,672.94698 727.86604,667.49781 728.41053,670.26757 C 737.62905,717.16116 736.94849,746.50748 743.30535,753.53645 C 750.56247,755.39728 753.74482,748.8212 759.27106,746.35482 z"
             style="fill:#000000;fill-opacity:0.16309013;fill-rule:evenodd;stroke:none;stroke-width:1px;stroke-linecap:butt;stroke-linejoin:miter;stroke-opacity:1" />
          <path
             sodipodi:nodetypes="cssssscsc"
             id="path7460"
             d="M 690.18221,824.62605 C 691.73681,823.18604 693.75996,815.02019 693.08278,806.67478 C 692.56741,800.32346 691.48559,794.10838 691.20354,789.27002 C 690.88898,783.87385 691.60778,779.63365 692.67804,776.02226 C 693.64185,772.77011 692.00759,766.36077 691.51401,762.78642 C 690.62544,756.35159 692.52337,746.92408 690.39207,742.21265 C 688.73818,738.55659 687.71058,763.31975 687.71058,763.31975 C 687.71058,763.31975 685.09046,776.83525 687.71638,785.8481 C 690.3423,794.86094 681.33332,822.96711 690.18221,824.62605 z"
             style="fill:#ffffff;fill-opacity:0.27467813;fill-rule:evenodd;stroke:none;stroke-width:1px;stroke-linecap:butt;stroke-linejoin:miter;stroke-opacity:1" />
          <path
             sodipodi:nodetypes="cssssscssc"
             id="path7462"
             d="M 731.90986,822.45722 C 733.46446,821.01721 736.1473,812.85135 735.47013,804.50595 C 734.95476,798.15462 731.01649,781.55656 731.11704,776.71103 C 731.23078,771.2292 730.33722,756.03073 729.78784,752.74327 C 729.22876,749.3977 726.13403,736.02396 726.14997,732.41573 C 726.17907,725.82796 726.35823,710.17244 722.55418,705.73981 C 719.94087,702.69468 724.16069,731.46476 724.16069,731.46476 C 724.16069,731.46476 722.20026,746.46456 724.82618,755.47741 C 725.87067,759.06238 729.25781,768.04666 728.80732,780.23627 C 728.12478,798.70463 726.39961,821.45814 731.90986,822.45722 z"
             style="fill:#ffffff;fill-opacity:0.27467813;fill-rule:evenodd;stroke:none;stroke-width:1px;stroke-linecap:butt;stroke-linejoin:miter;stroke-opacity:1" />
          <path
             sodipodi:nodetypes="csscscc"
             id="path7464"
             d="M 731.92552,837.63497 C 731.1751,830.1308 712.10235,835.99171 712.79443,801.35188 C 713.49296,766.38893 715.08591,731.30098 708.17658,734.72293 C 700.92301,738.31538 694.52166,734.85774 694.32304,734.06324 C 694.32304,734.06324 698.13318,762.88778 701.57966,763.7494 C 702.89904,764.07925 700.91996,838.62451 700.91996,838.62451 L 731.92552,837.63497 z"
             style="fill:#000000;fill-opacity:0.16309013;fill-rule:evenodd;stroke:none;stroke-width:1px;stroke-linecap:butt;stroke-linejoin:miter;stroke-opacity:1" />
          <path
             sodipodi:nodetypes="cssscsc"
             id="path7466"
             d="M 625.81965,611.01358 C 624.16599,609.17653 616.48264,591.61922 623.10298,595.07745 C 627.87223,597.56874 641.77588,621.16429 644.98782,623.02586 C 647.9225,624.72677 653.55933,627.49427 656.16982,629.98524 C 660.71016,634.31772 667.61272,638.98845 668.88918,644.94357 C 647.85878,634.3821 649.03813,628.16493 643.61606,624.85953 C 639.05026,622.07612 628.00815,613.02354 625.81965,611.01358 z"
             style="fill:#ffffff;fill-opacity:0.27467813;fill-rule:evenodd;stroke:none;stroke-width:1px;stroke-linecap:butt;stroke-linejoin:miter;stroke-opacity:1" />
        </g>
        <g
           id="g7468"
           clip-path="url(#clipPath4183)">
          <path
             sodipodi:nodetypes="ccccccssccssscsccccccssssccsc"
             id="path7470"
             d="M 358.32422,447.00374 L 416.18945,457.12326 C 454.72286,454.26592 498.55561,456.60088 527.95783,450.6998 L 611.46294,451.34213 L 697.80644,499.55147 L 779.8279,527.77293 C 783.43962,537.88299 784.47464,556.21697 766.88249,567.71935 C 758.3317,573.31017 716.67792,558.14657 680.68027,538.85534 C 669.71048,532.9766 649.47439,525.95439 635.87145,511.47722 L 630.52978,490.46306 C 630.52978,490.46306 634.24401,503.94903 636.06906,511.52248 C 641.2237,532.91264 634.53386,550.2905 633.66982,572.43922 C 632.98686,589.94635 638.12798,601.24673 639.96417,621.25693 C 645.75092,684.31929 642.63998,832.33096 642.63998,832.33096 C 641.17715,839.64515 581.21057,846.05345 576.13385,836.75034 C 571.1724,827.65845 565.35122,640.30742 565.35122,640.30742 C 576.0091,641.42286 579.43943,632.90158 582.14551,623.41463 C 578.21833,634.72166 573.83382,642.86505 564.57161,640.83451 C 556.23381,640.16325 549.73019,635.82362 546.76717,624.40277 C 550.04686,633.49155 553.98755,641.699 565.21395,640.19215 L 568.42569,837.39269 C 568.66036,836.92334 497.25009,846.70253 499.14742,836.24091 C 500.63199,828.0551 485.52221,718.26189 489.15021,627.24916 C 490.03521,605.04779 493.125,595.00515 498.05557,575.45259 C 504.05158,551.67491 496.29206,528.65418 498.54445,510.54034 C 500.86619,491.86883 503.82108,484.17888 503.82108,484.17888 L 499.96702,501.08552 C 499.97002,501.07054 350.61553,517.60302 346.82466,494.70189 C 340.63536,457.31156 352.36627,456.58851 358.32422,447.00374 z"
             style="fill:#8decb5;fill-opacity:1;fill-rule:evenodd;stroke:#383838;stroke-width:7.86875057;stroke-linecap:round;stroke-linejoin:round;stroke-miterlimit:4;stroke-dasharray:none;stroke-opacity:1" />
          <path
             sodipodi:nodetypes="cssssscsc"
             id="path7472"
             d="M 356.92025,468.87979 C 359.83825,465.96178 365.98007,462.6328 382.16971,464.57199 C 394.49095,466.04783 390.09405,470.34577 399.48843,471.2549 C 409.9659,472.26884 421.24661,471.57716 428.35401,469.76336 C 434.75444,468.12996 441.93207,468.3162 448.94915,468.68552 C 461.15374,469.32786 483.18859,460.22062 492.62874,467.40082 C 498.84854,472.13161 448.3068,475.10899 448.3068,475.10899 C 448.3068,475.10899 423.89762,483.4595 406.55424,477.67837 C 389.21088,471.89724 359.48964,486.22317 356.92025,468.87979 z"
             style="fill:#ffffff;fill-opacity:0.27467813;fill-rule:evenodd;stroke:none;stroke-width:1px;stroke-linecap:butt;stroke-linejoin:miter;stroke-opacity:1" />
          <path
             sodipodi:nodetypes="cssscsc"
             id="path7474"
             d="M 711.00053,530.9061 C 715.50098,532.6135 746.84189,541.51661 735.89799,531.93518 C 728.01408,525.03275 697.34929,520.9271 691.70609,516.40807 C 686.55002,512.27912 680.65963,505.80008 674.29771,502.81652 C 663.2326,497.62729 644.05083,476.61352 632.3402,478.49317 C 666.33509,509.22872 679.52208,512.67689 689.34401,520.19065 C 697.61486,526.51785 705.80925,528.34962 711.00053,530.9061 z"
             style="fill:#ffffff;fill-opacity:0.27467813;fill-rule:evenodd;stroke:none;stroke-width:1px;stroke-linecap:butt;stroke-linejoin:miter;stroke-opacity:1" />
          <path
             sodipodi:nodetypes="cssccccssssscsssssssssscc"
             id="path7476"
             d="M 345.12863,468.61965 C 345.12863,468.61965 341.53468,494.85786 369.08975,489.23953 C 386.18647,485.7536 462.49695,501.81875 502.60833,483.53652 C 508.48876,480.8563 502.52398,456.98447 512.89099,454.12734 C 553.40375,473.01672 595.8915,464.66291 621.1364,451.32014 C 621.1364,451.32014 622.97746,500.497 631.81442,493.54411 C 671.20783,542.49938 776.45684,556.98271 780.62977,536.3677 C 780.62977,536.3677 788.68067,571.2675 764.70578,569.3482 C 713.27507,565.23095 659.76854,527.60126 637.96221,511.59905 C 637.4695,511.23748 638.22005,517.55971 636.71232,531.20332 C 632.74823,567.07492 642.07917,638.00867 643.96051,703.32913 C 645.57481,759.37793 639.30651,811.29386 641.71983,833.3798 C 643.21899,847.09955 576.77149,841.86088 576.13385,838.03505 C 576.13385,838.03505 569.79404,833.79812 575.49918,832.29837 C 589.34619,828.65832 627.96924,832.51012 627.52161,794.99779 C 627.08911,758.75289 626.30307,630.96385 602.90328,628.33603 C 601.63716,628.19385 602.15965,625.87275 602.2668,624.27076 C 602.32933,623.33598 619.07572,611.50903 614.25934,544.9013 C 614.03837,541.84538 622.88098,519.60863 621.80077,512.18858 C 618.86209,492.00272 600.89254,477.85921 593.47723,477.03601 C 566.24937,474.01335 534.50949,473.42274 510.84011,500.73647 C 504.81102,507.69385 498.86629,519.64797 500.68129,527.93552 C 502.01728,534.0358 505.23298,499.49606 499.83025,500.51024 C 420.50823,515.40025 353.27563,509.42573 348.08658,495.34443 L 345.12863,468.61965 z"
             style="fill:#000000;fill-opacity:0.16309013;fill-rule:evenodd;stroke:none;stroke-width:1px;stroke-linecap:butt;stroke-linejoin:miter;stroke-opacity:1" />
          <path
             sodipodi:nodetypes="cssssscsc"
             id="path7478"
             d="M 588.69419,810.13191 C 585.66675,807.3276 581.72683,791.42531 583.04557,775.17337 C 584.04921,762.80472 586.15597,750.70139 586.70524,741.27911 C 587.31782,730.77053 587.93832,723.01818 585.85408,715.98532 C 583.97715,709.65205 587.66481,697.67548 588.626,690.71475 C 590.35641,678.18347 584.13498,658.81407 588.28551,649.63897 C 591.50631,642.51909 593.50748,690.74322 593.50748,690.74322 C 593.50748,690.74322 598.60994,717.06346 593.49618,734.6152 C 588.38243,752.16693 605.92664,806.90125 588.69419,810.13191 z"
             style="fill:#ffffff;fill-opacity:0.27467813;fill-rule:evenodd;stroke:none;stroke-width:1px;stroke-linecap:butt;stroke-linejoin:miter;stroke-opacity:1" />
          <path
             sodipodi:nodetypes="cssssscssc"
             id="path7480"
             d="M 512.48397,806.91843 C 509.45653,804.11415 504.23193,788.21186 505.55067,771.95991 C 506.5543,759.59125 504.62728,725.75273 504.43148,716.31649 C 504.20996,705.6411 499.88919,677.55862 500.95905,671.15657 C 502.04783,664.64138 508.07454,648.69871 508.0435,641.67199 C 507.98683,628.84288 507.13284,605.42618 514.54092,596.79402 C 519.6301,590.86389 511.91745,639.82006 511.91745,639.82006 C 511.91745,639.82006 515.73522,658.92933 510.62147,676.48107 C 508.58741,683.46249 508.05215,699.44337 508.92945,723.18159 C 510.25864,759.14711 523.2147,804.97282 512.48397,806.91843 z"
             style="fill:#ffffff;fill-opacity:0.27467813;fill-rule:evenodd;stroke:none;stroke-width:1px;stroke-linecap:butt;stroke-linejoin:miter;stroke-opacity:1" />
          <path
             sodipodi:nodetypes="csscscc"
             id="path7482"
             d="M 511.44333,840.5164 C 513.12034,826.47769 556.44367,844.27195 551.72992,767.83795 C 547.53804,699.86617 541.20654,631.92495 554.66186,638.58892 C 568.78756,645.5849 580.24348,635.31591 580.63028,633.7687 C 579.544,629.78568 570.422,679.678 566.49865,691.57992 C 565.66949,694.09525 567.78334,837.39269 567.78334,837.39269 L 511.44333,840.5164 z"
             style="fill:#000000;fill-opacity:0.16309013;fill-rule:evenodd;stroke:none;stroke-width:1px;stroke-linecap:butt;stroke-linejoin:miter;stroke-opacity:1" />
          <path
             transform="matrix(0.8841987,0,0,0.8841987,177.49212,73.852842)"
             d="M 535.71429,352.36218 A 95.714287,95.714287 0 1 1 344.28571,352.36218 A 95.714287,95.714287 0 1 1 535.71429,352.36218 z"
             sodipodi:ry="95.714287"
             sodipodi:rx="95.714287"
             sodipodi:cy="352.36218"
             sodipodi:cx="440"
             id="path7484"
             style="fill:#8decb5;fill-opacity:1;stroke:#383838;stroke-width:8.75;stroke-linecap:round;stroke-linejoin:round;stroke-miterlimit:4;stroke-dasharray:none;stroke-dashoffset:0;stroke-opacity:1"
             sodipodi:type="arc" />
          <path
             sodipodi:nodetypes="cczc"
             id="path7486"
             d="M 482.54066,408.14756 C 590.78318,488.2875 650.54604,395.81867 608.85477,313.41199 C 608.72796,312.52434 704.08007,386.06092 621.48617,449.19964 C 539.19605,512.10614 477.48811,409.4107 482.54066,408.14756 z"
             style="fill:#000000;fill-opacity:0.13304719;fill-rule:evenodd;stroke:none;stroke-width:1px;stroke-linecap:butt;stroke-linejoin:miter;stroke-opacity:1" />
          <path
             sodipodi:nodetypes="csss"
             id="path7488"
             d="M 517.90862,386.04258 C 527.04743,386.21803 544.37913,361.37824 553.27657,358.88506 C 563.30637,356.07457 563.82008,317.30948 536.85574,327.93811 C 488.45973,347.01452 511.61338,385.92175 517.90862,386.04258 z"
             style="fill:#ffffff;fill-opacity:0.32618025;fill-rule:evenodd;stroke:none;stroke-width:1px;stroke-linecap:butt;stroke-linejoin:miter;stroke-opacity:1" />
        </g>
      </g>
      <path
         sodipodi:nodetypes="ccccccccccc"
         id="path7490"
         d="M -1562.8637,773.37603 L -1557.8002,770.48183 L 1868.5005,764.94973 L 1875.5499,756.16543 L 1996.622,755.74343 L 2002.2525,726.90243 L 2010.9766,-1394.556 L 2014.3438,-1394.5829 L 2014.5287,773.51803 L 392.88382,773.45366 L -1562.8637,773.37603 z"
         style="fill:url(#pattern7492);fill-opacity:1;fill-rule:evenodd;stroke:none;stroke-width:1px;stroke-linecap:butt;stroke-linejoin:miter;stroke-opacity:1" />
    </g>
    <path
       sodipodi:type="arc"
       style="opacity:0.98999999;fill:none;fill-opacity:1;stroke:#121135;stroke-width:4.9000001;stroke-linecap:round;stroke-linejoin:round;stroke-miterlimit:4;stroke-dasharray:none;stroke-dashoffset:0;stroke-opacity:1"
       id="path7570"
       sodipodi:cx="290.71429"
       sodipodi:cy="287.9801"
       sodipodi:rx="153.31776"
       sodipodi:ry="90.714287"
       d="M 443.15752,297.65536 A 153.31776,90.714287 0 1 1 443.15893,297.64758"
       sodipodi:start="0.10685966"
       sodipodi:end="6.3899587"
       sodipodi:open="true"
       transform="matrix(1.1430892,0,0,1.1430892,7.2991957,348.29584)" />
    <path
       style="fill:#000000"
       d="M 643.15351,845.68401 C 643.19211,845.61967 643.37131,845.36954 643.55179,845.12818 C 643.84383,844.73753 643.88294,844.70996 643.90728,844.87731 C 643.92229,844.98062 643.864,845.15998 643.77768,845.27576 C 643.60255,845.51076 643.03473,845.88209 643.15351,845.68401 z"
       id="path8187" />
    <path
       style="fill:#000000"
       d="M 878.29075,782.88179 C 875.8622,782.74707 874.34797,782.37416 868.84159,780.55446 C 867.04266,779.95997 864.9711,779.30091 864.2382,779.08992 C 863.03488,778.74352 862.80771,778.70326 861.89612,778.67458 C 860.63971,778.63507 859.43013,778.78815 857.63,779.21423 C 855.69128,779.67315 853.45781,780.09998 852.46118,780.202 C 850.93986,780.35773 848.38166,780.14084 846.58204,779.70344 C 846.04367,779.57256 845.04425,779.39389 844.36111,779.30636 C 842.09555,779.016 837.52122,778.73355 833.95107,778.66355 C 832.09754,778.62714 830.54819,778.57715 830.50809,778.55231 C 830.46799,778.52753 829.45483,778.44779 828.25672,778.37506 C 825.79798,778.22591 825.33361,778.14873 823.78496,777.63173 C 822.43876,777.18232 822.18735,777.05734 821.82683,776.65829 C 821.52172,776.32056 820.8678,775.19391 820.8712,775.01175 C 820.87657,774.72183 822.554,773.40645 822.91829,773.40645 C 823.01451,773.40645 823.01957,773.36386 822.94662,773.17053 C 822.86724,772.96028 822.89549,772.86196 823.2073,772.26452 C 823.82695,771.07714 824.99377,769.18555 825.54174,768.47999 C 826.46904,767.28618 828.17561,765.68299 830.23751,764.06884 C 832.17146,762.55477 835.26012,760.3392 836.40316,759.64608 C 838.00281,758.67612 840.50656,757.49123 842.27097,756.86911 C 844.07511,756.23302 846.06731,756.20493 849.26788,756.77026 C 851.46215,757.15789 854.08862,758.17499 858.50406,760.34698 C 860.99617,761.5728 864.16932,762.99603 865.5356,763.50079 C 866.86066,763.99023 868.34453,764.44161 869.94153,764.84102 C 874.61878,766.0109 878.10208,766.53204 885.64,767.18974 C 890.79039,767.63907 891.27039,767.71226 895.25068,768.65579 C 898.73761,769.48227 900.29027,769.97993 903.00382,771.14059 C 905.5399,772.2254 906.93133,773.01353 908.77828,774.41123 C 910.05357,775.37635 910.52036,775.91186 911.24526,777.24153 C 911.58026,777.85594 911.59658,777.91712 911.59061,778.53372 C 911.58661,778.94937 911.5342,779.30417 911.44402,779.52551 C 911.24511,780.01382 910.69623,780.46286 909.94354,780.75314 C 909.38146,780.96988 909.21101,780.99805 908.46194,780.99805 C 907.51335,780.99805 906.26192,780.85049 904.67618,780.55151 C 902.65726,780.17089 897.71153,779.31595 896.34094,779.11068 C 894.26214,778.79932 891.91297,778.57517 890.7277,778.57517 C 890.22263,778.57517 890.17966,778.59044 889.91602,778.86238 C 889.50672,779.28476 888.98466,779.59386 887.92127,780.04335 C 887.39951,780.26387 886.55468,780.65549 886.04388,780.91355 C 884.84502,781.51929 883.76676,781.91984 882.40953,782.2636 C 881.25259,782.55661 879.17212,782.94644 878.89852,782.92145 C 878.8085,782.91321 878.53504,782.89538 878.29075,782.88179 z"
       id="path8185" />
    <path
       style="fill:#ffffff;fill-opacity:1"
       d="M 908.01102,778.53441 C 908.29972,778.45374 908.54425,778.38231 908.5543,778.37567 C 908.56442,778.36902 908.48256,778.07004 908.37238,777.71132 C 908.17254,777.06065 908.16975,777.05688 907.18296,776.08963 C 905.1481,774.09511 904.55512,773.67432 902.10296,772.48489 C 898.91055,770.93639 897.94276,770.61248 894.25278,769.85737 C 891.35065,769.26349 890.23374,769.10875 886.04463,768.72027 C 881.80447,768.32706 880.89727,768.19558 875.70633,767.22213 C 869.35392,766.03076 867.0589,765.48046 864.59223,764.55708 C 862.53343,763.78634 858.82629,762.29748 856.60618,761.34957 C 851.838,759.31388 850.5822,758.90284 848.40885,758.66661 C 846.98516,758.5118 845.29143,758.51467 844.21967,758.67363 C 842.24892,758.96596 838.5436,760.44908 836.56251,761.73849 C 835.71775,762.28827 834.10415,763.51092 833.14491,764.32795 C 831.16555,766.01398 828.70018,769.01503 826.78818,772.06584 L 826.12513,773.12379 L 827.43425,773.22686 C 828.77698,773.33259 830.10338,773.32014 833.14491,773.17309 C 835.61037,773.05393 836.03599,773.00227 838.95978,772.46729 C 840.78922,772.13259 842.01239,771.93315 847.58426,771.06099 C 850.14948,770.65953 850.81902,770.51295 852.01389,770.09148 C 853.98954,769.39459 855.58155,768.8948 856.36316,768.72602 C 858.66483,768.22895 862.23861,768.07414 864.07666,768.39193 C 865.75855,768.68274 869.13974,769.84574 872.18307,771.18024 C 873.74111,771.86337 876.39159,772.72836 877.51592,772.92064 C 878.60059,773.10603 880.90127,773.14553 881.96865,772.99705 C 882.31007,772.94963 883.50289,772.67943 884.61944,772.39661 C 887.35518,771.7038 887.94862,771.60344 889.35507,771.59573 C 891.03522,771.58653 891.41417,771.67881 892.84925,772.44631 C 894.17454,773.15505 895.11143,773.73881 896.13908,774.49588 C 897.39971,775.42462 900.39759,777.04638 902.18852,777.76841 C 904.35296,778.64103 906.58002,778.93404 908.01102,778.53441 z"
       id="path8183" />
    <path
       style="fill:#000000"
       d="M 762.76113,891.39856 C 759.97191,890.91888 757.78649,890.06415 755.16953,888.4294 C 752.32776,886.65418 750.34531,884.94231 749.02842,883.12632 C 748.05928,881.78985 747.87758,881.5753 747.47975,881.29793 C 747.00194,880.96474 747.14378,880.97078 744.99353,881.19235 C 742.77416,881.42117 740.53707,881.90608 738.57299,882.58423 C 738.06218,882.76059 737.11321,883.08916 736.46412,883.31443 C 732.91571,884.54599 730.71925,884.59108 729.03571,883.46691 C 728.42476,883.05888 727.92679,882.44242 727.48448,881.54638 C 727.17221,880.91384 727.14335,880.80048 727.11716,880.10459 C 727.06777,878.79312 727.33571,877.47441 727.96471,875.93345 C 728.41433,874.83185 729.03458,873.70323 730.25043,871.77417 C 731.1186,870.39671 731.42747,869.8492 731.36803,869.79317 C 731.35527,869.78115 730.99958,869.69695 730.57758,869.60611 C 729.39738,869.35191 728.09921,869.24331 726.87134,869.29595 C 722.56261,869.48059 718.8187,869.78078 714.02143,870.3261 C 713.24411,870.41445 710.99087,870.61277 709.01423,870.76675 C 701.0507,871.38722 700.7055,871.44052 694.11369,873.06735 C 690.24532,874.02207 688.51216,874.41491 686.98607,874.68309 L 685.99639,874.857 L 685.03738,874.61626 C 682.21638,873.90811 680.33038,872.20697 679.77003,869.86522 C 679.62201,869.24663 679.60456,868.99047 679.64165,867.97837 C 679.68802,866.71268 679.85136,865.94713 680.33476,864.73039 C 680.71212,863.78043 682.03182,861.18794 683.60532,858.30569 C 684.38777,856.87242 685.02802,855.67665 685.02802,855.64841 C 685.02802,855.56617 681.80646,855.6848 680.26309,855.82377 C 672.42921,856.52927 663.73602,858.46518 654.375,861.58888 C 651.54395,862.5336 651.17286,862.60559 649.12938,862.60641 C 648.09592,862.60679 647.33967,862.56896 647.02959,862.50128 C 644.20178,861.88392 642.81837,860.47232 643.11779,858.5099 C 643.22639,857.79798 643.86528,856.55237 644.56352,855.69139 C 645.11021,855.01721 645.18051,854.96285 646.64483,854.08163 C 651.49856,851.16055 656.80006,847.67294 658.90161,846.01855 C 663.23262,842.60903 667.20218,839.20697 670.9615,835.68281 C 671.70212,834.98851 673.61577,833.22151 675.21405,831.75606 C 678.68225,828.57628 680.3775,826.98819 682.96855,824.49161 C 684.03465,823.46447 686.01355,821.5898 687.36624,820.32568 C 695.94533,812.30816 702.83128,805.65495 707.84316,800.54097 C 713.64437,794.6215 719.41831,788.6583 721.13538,786.81293 C 726.42902,781.12371 729.653,777.055 731.85225,773.28796 L 732.41647,772.32147 L 731.86049,771.70569 C 731.55464,771.36699 731.30445,771.02572 731.30445,770.94725 C 731.30445,770.77296 731.9715,769.92232 732.46473,769.46768 C 732.66379,769.28418 733.11939,768.98694 733.47713,768.80704 C 734.08444,768.50166 734.17288,768.47999 734.8126,768.47999 C 736.38989,768.47999 738.04095,768.79654 738.93465,769.27027 C 739.41517,769.525 741.07379,771.14843 741.24219,771.5289 C 741.33086,771.72917 741.40871,771.79125 741.57138,771.79125 C 741.68859,771.79125 742.96078,771.64414 744.39849,771.46441 C 747.52815,771.07307 748.49593,771.0168 750.04113,771.13635 C 751.98475,771.28663 753.28368,771.63734 754.48027,772.33483 C 755.7579,773.07952 757.80747,775.46494 758.71053,777.25821 C 758.87041,777.5757 759.27126,778.57435 759.60135,779.47732 C 759.93145,780.38038 760.31621,781.40994 760.45645,781.76533 C 761.52384,784.4701 762.75018,786.22517 763.8517,786.62421 C 764.24855,786.76792 764.40388,786.77842 765.3176,786.72314 C 767.75452,786.57564 768.7479,786.18295 770.27133,784.76455 C 771.73459,783.40219 772.91661,781.92709 773.74248,780.43272 C 773.95114,780.0552 774.46837,778.92854 774.8918,777.92912 C 775.77717,775.83958 776.01151,775.35422 776.50291,774.59217 C 777.19603,773.51717 778.12664,772.71425 779.20415,772.26151 L 779.77236,772.0228 L 782.20995,772.10911 C 783.55063,772.15654 785.19263,772.25154 785.85895,772.32026 C 787.06211,772.44418 788.96933,772.47855 789.36657,772.38332 C 789.84649,772.26838 790.20649,771.98632 791.23453,770.91984 C 792.58676,769.517 793.62878,768.80041 794.99627,768.33287 C 795.76415,768.07037 796.40244,767.99674 797.91583,767.99606 C 800.28802,767.995 801.64487,768.21112 803.46087,768.8794 C 804.07583,769.10564 804.59389,769.27595 804.61215,769.25774 C 804.63036,769.23948 804.51209,768.88445 804.34935,768.46865 C 803.429,766.11714 803.10087,764.81557 803.10253,763.52277 C 803.10413,762.32587 803.38739,761.554 804.06864,760.89041 C 804.69197,760.28332 805.48017,759.91577 806.66605,759.67931 L 807.12119,759.58861 L 806.96358,758.9665 C 806.44794,756.93172 805.99943,755.82877 804.57062,753.08207 C 802.2105,748.5452 800.59817,745.93859 798.40096,743.10755 C 795.45029,739.3057 791.0455,735.28704 787.65781,733.30618 L 786.93026,732.88071 L 786.66013,733.04014 C 786.5115,733.12782 785.92525,733.31267 785.35719,733.45095 C 784.46207,733.66889 784.17382,733.70304 783.1938,733.70726 C 782.09214,733.71201 782.04758,733.70538 781.45673,733.4502 C 780.39018,732.98953 779.59474,732.47267 778.95229,731.82276 C 778.09841,730.95898 777.80131,730.34449 777.14665,728.0879 C 776.39235,725.48794 775.74653,723.5425 774.7878,720.98279 C 773.80289,718.35338 773.54061,717.75881 772.97912,716.88356 C 772.49468,716.12829 772.60833,716.12497 771.60454,716.92425 C 770.57674,717.74266 769.36441,719.0054 768.78149,719.86466 C 765.53479,724.65081 764.55312,726.18474 763.14838,728.66653 C 760.92346,732.59743 754.42499,744.51468 752.42593,748.32998 C 748.76017,755.32603 746.879,758.27806 744.06742,761.44624 C 743.43345,762.16056 742.48335,762.96604 741.95917,763.23346 C 741.29597,763.57178 740.43883,763.33541 739.74663,762.62311 C 739.11422,761.97245 738.92966,761.32193 739.20251,760.70508 C 739.57912,759.85384 740.30621,759.06165 743.03411,756.53064 C 747.32486,752.54973 751.23817,747.32609 754.68349,740.98062 C 756.24567,738.10359 758.31383,733.77795 762.56063,724.50529 C 766.06765,716.84805 766.52703,715.97785 768.18928,713.84476 C 769.45505,712.22035 770.07152,711.65085 771.0929,711.16232 C 772.41229,710.53121 773.7026,710.75905 775.56128,711.95135 C 776.21413,712.37016 776.242,712.40106 776.5372,713.03284 C 777.01342,714.0519 777.45657,715.42317 778.15685,718.04435 C 779.09397,721.5522 779.84251,723.42552 781.39026,726.13673 C 782.09637,727.37372 782.13813,727.41314 782.96159,727.6178 C 783.34024,727.71197 783.44792,727.70222 784.2248,727.50392 C 786.35827,726.95928 787.31954,727.19067 789.01721,728.65747 C 789.59373,729.15559 789.84695,729.46091 790.52412,730.4746 C 791.89026,732.5195 793.0472,734.06318 796.03759,737.83097 C 797.9187,740.20112 799.29405,742.03524 802.21467,746.06863 C 806.84472,752.4629 807.37185,753.14928 809.71912,755.84077 C 811.63321,758.03565 812.53333,759.15236 812.72054,759.56468 C 813.21443,760.65237 813.24003,761.88862 812.78783,762.81153 C 812.27491,763.85815 810.78152,765.07393 809.57336,765.42841 L 808.9785,765.60294 L 809.03076,766.05212 C 809.11625,766.78745 809.55221,768.45082 809.94099,769.52508 C 810.76921,771.81367 811.5407,773.25511 816.42707,781.6442 C 821.4675,790.29759 823.50327,793.96071 828.0967,802.6422 C 832.48532,810.93643 833.61267,812.98488 837.40809,819.56174 C 839.58892,823.34078 841.16062,826.01649 843.36185,829.69736 C 844.43761,831.49636 845.60936,833.47698 845.96573,834.09889 C 848.01215,837.67002 850.27869,840.9449 854.71346,846.73811 C 857.34514,850.17586 863.17051,856.71995 864.90743,858.18977 C 875.3952,865.90213 874.18266,871.09511 859.73855,868.27191 C 858.05562,867.94386 856.35969,867.68943 854.66791,867.41243 C 851.168,866.83667 848.24678,866.64531 843.96699,866.71153 C 840.21196,866.76969 837.85834,866.94467 833.36173,867.50018 C 826.29082,868.37363 819.93327,869.61087 811.37962,871.77795 C 802.70931,873.97463 802.57926,874.01301 800.71908,874.92126 C 799.32871,875.60026 798.00976,876.4648 797.48211,877.04319 C 796.91543,877.66426 796.77006,878.12016 796.82292,879.10992 C 796.85916,879.78906 796.93326,880.10103 797.39187,881.50598 C 798.00856,883.39501 798.10447,883.86096 798.1041,884.96648 C 798.10365,886.42437 797.66186,887.49667 796.62483,888.55709 C 795.83702,889.36267 794.75468,890.05154 793.77106,890.3734 C 791.50827,891.11379 789.37631,891.41828 784.60714,891.68207 C 777.57997,893.5939 769.93384,892.65889 762.76113,891.39856 z"
       id="path8189" />
    <rect
       style="fill:url(#pattern8348);fill-opacity:1;stroke:none"
       width="97.530464"
       height="734.31348"
       x="604.01422"
       y="149.8759"
       id="rect8215" />
    <g
       id="g8193"
       transform="matrix(8.0761643e-2,0,0,8.0761643e-2,825.3583,758.47683)">
      <path
         transform="translate(-67.942854,430.23743)"
         id="path8191"
         d="M -2331.4286,-309.87703 L -2328.5714,-352.73418 L -2054.2857,-507.01989 L -1897.1429,-441.30561 L -1722.8572,-441.30561 L -1491.4286,-372.73418 L -2257.1429,-272.73418 L -2331.4286,-309.87703 z"
         style="fill:#ffffff;fill-opacity:1;fill-rule:evenodd;stroke:#000000;stroke-width:1px;stroke-linecap:butt;stroke-linejoin:miter;stroke-opacity:1" />
      <path
         id="path7843"
         d="M -2235.5855,218.80502 C -2247.2978,217.35956 -2261.6816,214.21215 -2277.0138,209.73984 C -2284.7532,207.48229 -2295.9422,204.34305 -2301.8783,202.76376 C -2315.601,199.11279 -2335.2587,190.70197 -2341.3681,185.8675 C -2347.6138,180.92516 -2350.3962,179.58282 -2361.0855,176.35526 C -2366.0355,174.86063 -2373.2537,172.12681 -2377.1259,170.2801 C -2384.9007,166.57226 -2394.7174,164.02401 -2413.5855,160.8159 C -2429.1401,158.17118 -2434.3825,155.73433 -2449.9924,143.89285 C -2456.5412,138.92501 -2462.3312,134.86041 -2462.8591,134.86041 C -2463.3869,134.86041 -2463.5747,133.92701 -2463.2763,132.7862 C -2462.4731,129.71444 -2465.7119,127.10382 -2471.2634,126.34843 C -2478.4964,125.36424 -2479.7315,124.8586 -2479.3816,123.02497 C -2479.1357,121.73611 -2477.5053,121.22645 -2472.1578,120.76689 C -2466.318,120.26503 -2464.8981,119.76256 -2462.9632,117.51315 C -2461.0761,115.31922 -2457.9941,114.16359 -2445.3802,110.92021 C -2422.9454,105.15155 -2421.5046,105.10191 -2398.1046,109.29123 C -2387.1151,111.25869 -2372.9401,113.34951 -2366.6046,113.93749 C -2360.2691,114.52548 -2349.2659,116.36749 -2342.153,118.03083 C -2335.0402,119.69418 -2324.2402,121.41798 -2318.153,121.8615 C -2312.0659,122.30502 -2305.1164,123.38621 -2302.7098,124.26415 C -2292.604,127.95074 -2278.0273,124.60335 -2255.8864,113.51159 C -2247.7459,109.4335 -2239.9941,105.76333 -2238.6602,105.35564 C -2237.3264,104.94795 -2225.8514,100.23472 -2213.1602,94.88179 C -2156.2306,70.86966 -2122.5699,59.44959 -2098.4814,55.97459 C -2087.118,54.33531 -2062.0542,52.86041 -2045.5604,52.86041 C -2025.9629,52.86041 -2009.0448,54.31016 -1987.0855,57.87124 C -1951.8609,63.58352 -1900.6226,68.89061 -1866.0681,70.40582 C -1843.9404,71.37611 -1799.8389,68.0843 -1772.2932,63.40631 C -1763.4333,61.90164 -1744.831,57.2019 -1722.8715,50.92022 C -1679.5734,38.53447 -1669.1721,35.91869 -1659.5855,35.00475 L -1652.0855,34.28972 L -1673.0855,29.14649 C -1693.8307,24.06564 -1753.2014,11.47077 -1790.0855,4.3261402 C -1828.7985,-3.1727598 -1850.0176,-4.2757498 -1895.0855,-1.1318798 C -1929.9383,1.2994002 -1952.4701,1.1808102 -1967.1851,-1.5113698 C -1988.1454,-5.3461698 -2026.5385,-18.81237 -2043.3521,-28.22654 C -2052.6676,-33.44245 -2076.211,-43.98032 -2086.7255,-47.64017 C -2107.0419,-54.71187 -2117.4286,-55.05405 -2142.5855,-49.48041 C -2165.6258,-44.37571 -2189.6785,-34.73716 -2229.0423,-14.83492 C -2252.5334,-2.9578598 -2269.7139,7.1982202 -2297.0855,25.38821 C -2321.7929,41.80767 -2335.1892,52.5154 -2351.3605,68.77031 C -2365.7709,83.25526 -2373.9626,93.15158 -2378.7327,101.83853 C -2383.714,110.90998 -2389.1308,111.25717 -2400.8415,103.2556 C -2413.6321,94.51617 -2423.5855,80.59537 -2423.5855,71.44581 C -2423.5855,67.05649 -2423.3605,66.67737 -2419.3355,64.28329 C -2399.4025,52.4272 -2374.6897,38.44406 -2361.7125,31.67872 C -2340.4962,20.61808 -2328.0947,13.59494 -2294.0855,-6.6193698 C -2262.161,-25.59459 -2252.4818,-30.98639 -2223.5855,-45.89156 C -2190.8749,-62.7642 -2174.7662,-69.30562 -2151.6376,-75.10821 C -2122.4937,-82.41996 -2109.8984,-83.54044 -2094.0855,-80.22804 C -2079.7904,-77.23357 -2069.1142,-72.8292 -2036.9794,-56.66935 C -1998.1408,-37.13836 -1973.6771,-26.9937 -1956.4673,-23.28251 C -1936.4724,-18.97073 -1909.0501,-17.91808 -1859.5855,-19.56354 C -1814.1579,-21.07471 -1802.9688,-19.14994 -1743.5855,0.39102021 C -1714.4027,9.9940402 -1682.8637,19.16157 -1647.5855,28.29562 C -1625.4773,34.01975 -1621.5235,34.74783 -1607.0855,35.75357 C -1587.9839,37.08418 -1572.842,39.53051 -1554.5855,44.23554 C -1539.1499,48.21357 -1520.7289,51.89914 -1499.0877,55.33928 C -1461.4757,61.31815 -1441.91,62.33065 -1401.5589,60.38626 C -1384.2485,59.55213 -1362.863,58.86758 -1354.0354,58.86503 C -1335.0019,58.85955 -1314.1841,57.40575 -1303.0855,55.30699 C -1297.6824,54.28525 -1291.6771,52.11404 -1284.5855,48.61825 C -1273.5874,43.19677 -1273.3732,43.14189 -1261.9624,42.82154 C -1252.8704,42.5663 -1248.5787,44.01867 -1244.2427,48.81804 C -1238.6408,55.01875 -1237.3278,66.12109 -1240.6697,79.03124 C -1241.7242,83.1046 -1242.1653,83.2716 -1258.8355,85.90878 C -1264.9869,86.88191 -1266.5855,87.48594 -1266.5855,88.83709 C -1266.5855,89.77335 -1267.823,91.11362 -1269.3355,91.81546 C -1291.2397,101.97966 -1336.2778,121.3132 -1343.5855,123.68878 C -1364.718,130.55858 -1406.866,138.94428 -1443.0108,143.47031 C -1468.5305,146.66586 -1529.3493,146.83687 -1567.8517,143.82132 C -1589.0925,142.15772 -1624.4031,143.08589 -1638.5855,145.68062 C -1651.7176,148.0832 -1667.0426,153.88174 -1698.5855,168.38295 C -1724.5687,180.32821 -1733.5964,183.60564 -1749.3121,186.79878 C -1775.4217,192.10378 -1806.7613,192.01859 -1876.5855,186.4528 C -1980.4248,178.17561 -2018.9591,175.76074 -2048.5855,175.67385 C -2075.9418,175.59363 -2077.5096,175.69348 -2087.6533,178.16213 C -2101.2123,181.46198 -2127.0378,190.59732 -2140.9126,197.00175 C -2154.0155,203.04988 -2176.14,210.51481 -2195.0855,215.28003 C -2210.6756,219.20129 -2223.4005,220.30882 -2235.5855,218.80502 z"
         style="fill:#000000" />
    </g>
    <path
       style="fill:#000000;fill-opacity:1;fill-rule:evenodd;stroke:none;stroke-width:1px;stroke-linecap:butt;stroke-linejoin:round;stroke-opacity:1"
       d="M 505.49968,640.07599 L 699.70091,885.64113 L 514.00316,671.77415 L 505.49968,640.07599 z"
       id="path7580"
       sodipodi:nodetypes="cccc" />
    <path
       style="fill:#000000;fill-opacity:1;fill-rule:evenodd;stroke:none;stroke-width:1px;stroke-linecap:butt;stroke-linejoin:round;stroke-opacity:1"
       d="M 272.17823,773.30054 L 699.24426,885.46095 L 348.72389,780.85243 L 272.17823,773.30054 z"
       id="path7584"
       sodipodi:nodetypes="cccc" />
  </g>
</svg>
