<?xml version="1.0" encoding="UTF-8" standalone="no"?>
<!-- Created with Inkscape (http://www.inkscape.org/) -->
<svg
   xmlns:dc="http://purl.org/dc/elements/1.1/"
   xmlns:cc="http://creativecommons.org/ns#"
   xmlns:rdf="http://www.w3.org/1999/02/22-rdf-syntax-ns#"
   xmlns:svg="http://www.w3.org/2000/svg"
   xmlns="http://www.w3.org/2000/svg"
   xmlns:xlink="http://www.w3.org/1999/xlink"
   xmlns:sodipodi="http://sodipodi.sourceforge.net/DTD/sodipodi-0.dtd"
   xmlns:inkscape="http://www.inkscape.org/namespaces/inkscape"
   width="100%"
   height="100%"
   id="svg2"
   sodipodi:version="0.32"
   inkscape:version="0.46"
   sodipodi:docname="l_curve.svg"
   inkscape:output_extension="org.inkscape.output.svg.inkscape"
   version="1.0"
   viewBox="0 0 878.02857 478.6944">
  <defs
     id="defs4">
    <inkscape:perspective
       sodipodi:type="inkscape:persp3d"
       inkscape:vp_x="0 : 526.18109 : 1"
       inkscape:vp_y="0 : 1000 : 0"
       inkscape:vp_z="744.09448 : 526.18109 : 1"
       inkscape:persp3d-origin="372.04724 : 350.78739 : 1"
       id="perspective10" />
    <inkscape:perspective
       id="perspective2447"
       inkscape:persp3d-origin="372.04724 : 350.78739 : 1"
       inkscape:vp_z="744.09448 : 526.18109 : 1"
       inkscape:vp_y="0 : 1000 : 0"
       inkscape:vp_x="0 : 526.18109 : 1"
       sodipodi:type="inkscape:persp3d" />
    <clipPath
       id="clipPath4183"
       clipPathUnits="userSpaceOnUse">
      <path
         id="path4185"
         d="M 453.96255,449.9072 L 465.27626,523.44631 L 489.31789,865.68599 L 671.75144,865.68599 L 818.82965,534.76002 L 642.05296,271.7163 L 475.17576,277.37315 L 453.96255,449.9072 z"
         style="fill:none;fill-rule:evenodd;stroke:#000000;stroke-width:1px;stroke-linecap:butt;stroke-linejoin:miter;stroke-opacity:1" />
    </clipPath>
    <inkscape:perspective
       id="perspective4289"
       inkscape:persp3d-origin="372.04724 : 350.78739 : 1"
       inkscape:vp_z="744.09448 : 526.18109 : 1"
       inkscape:vp_y="0 : 1000 : 0"
       inkscape:vp_x="0 : 526.18109 : 1"
       sodipodi:type="inkscape:persp3d" />
    <inkscape:perspective
       sodipodi:type="inkscape:persp3d"
       inkscape:vp_x="0 : 526.18109 : 1"
       inkscape:vp_y="0 : 1000 : 0"
       inkscape:vp_z="744.09448 : 526.18109 : 1"
       inkscape:persp3d-origin="372.04724 : 350.78739 : 1"
       id="perspective5328" />
    <inkscape:perspective
       id="perspective5282"
       inkscape:persp3d-origin="372.04724 : 350.78739 : 1"
       inkscape:vp_z="744.09448 : 526.18109 : 1"
       inkscape:vp_y="0 : 1000 : 0"
       inkscape:vp_x="0 : 526.18109 : 1"
       sodipodi:type="inkscape:persp3d" />
    <clipPath
       id="clipPath4809"
       clipPathUnits="userSpaceOnUse">
      <path
         id="path4811"
         d="M 453.96255,449.9072 L 465.27626,523.44631 L 489.31789,865.68599 L 671.75144,865.68599 L 818.82965,534.76002 L 642.05296,271.7163 L 475.17576,277.37315 L 453.96255,449.9072 z"
         style="fill:none;fill-rule:evenodd;stroke:#000000;stroke-width:1px;stroke-linecap:butt;stroke-linejoin:miter;stroke-opacity:1" />
    </clipPath>
    <inkscape:perspective
       id="perspective4806"
       inkscape:persp3d-origin="0.5 : 0.33333333 : 1"
       inkscape:vp_z="1 : 0.5 : 1"
       inkscape:vp_y="0 : 1000 : 0"
       inkscape:vp_x="0 : 0.5 : 1"
       sodipodi:type="inkscape:persp3d" />
    <pattern
       patternUnits="userSpaceOnUse"
       width="2.4731498"
       height="1.2213951"
       patternTransform="translate(728.76343,866.26041)"
       id="pattern5024">
      <g
         transform="matrix(2.485754e-2,0,0,2.485754e-2,4.1371022e-2,4.1371095e-2)"
         id="g4988">
        <g
           inkscape:label="Layer 1"
           id="g4990"
           transform="translate(-221.29285,-444.36933)">
          <rect
             style="opacity:1;fill:#489b48;fill-opacity:1;stroke:#000000;stroke-width:1.70000005;stroke-linecap:round;stroke-linejoin:round;stroke-miterlimit:4;stroke-dasharray:none;stroke-dashoffset:0;stroke-opacity:1"
             id="rect4992"
             width="94.464287"
             height="44.107143"
             x="222.14285"
             y="445.21933"
             rx="1"
             ry="1" />
          <path
             style="fill:#35a435;fill-opacity:1;fill-rule:evenodd;stroke:#000000;stroke-width:1px;stroke-linecap:butt;stroke-linejoin:miter;stroke-opacity:1"
             d="M 222.14286,449.4107 L 316.22108,449.4107"
             id="path4994"
             sodipodi:nodetypes="cc" />
          <path
             style="fill:#35a435;fill-opacity:1;fill-rule:evenodd;stroke:#000000;stroke-width:1px;stroke-linecap:butt;stroke-linejoin:miter;stroke-opacity:1"
             d="M 222.14286,453.43743 L 316.22108,453.43743"
             id="path4996"
             sodipodi:nodetypes="cc" />
          <path
             style="fill:#35a435;fill-opacity:1;fill-rule:evenodd;stroke:#000000;stroke-width:1px;stroke-linecap:butt;stroke-linejoin:miter;stroke-opacity:1"
             d="M 222.14286,457.2691 L 316.22108,457.2691"
             id="path4998"
             sodipodi:nodetypes="cc" />
          <path
             style="fill:#35a435;fill-opacity:1;fill-rule:evenodd;stroke:#000000;stroke-width:1px;stroke-linecap:butt;stroke-linejoin:miter;stroke-opacity:1"
             d="M 222.14286,461.33477 L 316.22108,461.33477"
             id="path5000"
             sodipodi:nodetypes="cc" />
          <path
             style="fill:#35a435;fill-opacity:1;fill-rule:evenodd;stroke:#000000;stroke-width:1px;stroke-linecap:butt;stroke-linejoin:miter;stroke-opacity:1"
             d="M 222.14286,465.36149 L 316.22108,465.36149"
             id="path5002"
             sodipodi:nodetypes="cc" />
          <path
             style="fill:#35a435;fill-opacity:1;fill-rule:evenodd;stroke:#000000;stroke-width:1px;stroke-linecap:butt;stroke-linejoin:miter;stroke-opacity:1"
             d="M 222.14286,469.72888 L 316.22108,469.72888"
             id="path5004"
             sodipodi:nodetypes="cc" />
          <path
             style="fill:#35a435;fill-opacity:1;fill-rule:evenodd;stroke:#000000;stroke-width:1px;stroke-linecap:butt;stroke-linejoin:miter;stroke-opacity:1"
             d="M 222.14286,473.74549 L 316.22108,473.74549"
             id="path5006"
             sodipodi:nodetypes="cc" />
          <path
             style="fill:#35a435;fill-opacity:1;fill-rule:evenodd;stroke:#000000;stroke-width:1px;stroke-linecap:butt;stroke-linejoin:miter;stroke-opacity:1"
             d="M 222.14286,477.75574 L 316.22108,477.75574"
             id="path5008"
             sodipodi:nodetypes="cc" />
          <path
             style="fill:#35a435;fill-opacity:1;fill-rule:evenodd;stroke:#000000;stroke-width:1px;stroke-linecap:butt;stroke-linejoin:miter;stroke-opacity:1"
             d="M 222.14286,481.52221 L 316.22108,481.52221"
             id="path5010"
             sodipodi:nodetypes="cc" />
          <path
             style="fill:#35a435;fill-opacity:1;fill-rule:evenodd;stroke:#000000;stroke-width:1px;stroke-linecap:butt;stroke-linejoin:miter;stroke-opacity:1"
             d="M 222.14286,485.17469 L 316.22108,485.17469"
             id="path5012"
             sodipodi:nodetypes="cc" />
          <rect
             style="opacity:1;fill:#dfc19b;fill-opacity:1;stroke:#000000;stroke-width:1.70000005;stroke-linecap:round;stroke-linejoin:round;stroke-miterlimit:4;stroke-dasharray:none;stroke-dashoffset:0;stroke-opacity:1"
             id="rect5014"
             width="25.178568"
             height="43.928528"
             x="255.89287"
             y="445.21933" />
          <text
             xml:space="preserve"
             style="font-size:20px;font-style:normal;font-weight:normal;text-align:center;text-anchor:middle;fill:#000000;fill-opacity:1;stroke:none;stroke-width:1px;stroke-linecap:butt;stroke-linejoin:miter;stroke-opacity:1;font-family:Bitstream Vera Sans"
             x="268.75"
             y="480.07645"
             id="text5016"><tspan
               sodipodi:role="line"
               id="tspan5018"
               x="268.75"
               y="480.07645"
               style="font-size:32px;font-style:normal;font-variant:normal;font-weight:bold;font-stretch:normal;text-align:center;text-anchor:middle;font-family:AR PL UMing CN;-inkscape-font-specification:AR PL UMing CN Bold">$</tspan></text>
          <path
             style="fill:#0c0e0c;fill-opacity:0.24669602;fill-rule:evenodd;stroke:none;stroke-width:1px;stroke-linecap:butt;stroke-linejoin:miter;stroke-opacity:1"
             d="M 223.92858,488.96932 C 239.73349,479.61317 300.38989,473.14938 316.42857,464.50504 C 317.14285,464.1479 316.25,489.32647 316.25,489.32647 C 316.25,489.32647 224.47435,489.7985 223.92858,488.96932 z"
             id="path5020"
             sodipodi:nodetypes="cccc" />
        </g>
        <g
           id="g5022"
           inkscape:label="Background"
           transform="translate(-221.29285,-444.36933)" />
      </g>
    </pattern>
    <pattern
       patternUnits="userSpaceOnUse"
       width="22.380007"
       height="10.66055"
       patternTransform="translate(759.545,643.67483)"
       id="pattern8830">
      <g
         id="g8283"
         transform="matrix(0.2327268,0,0,0.2327268,-51.500772,-103.41665)">
        <rect
           style="opacity:1;fill:#489b48;fill-opacity:1;stroke:#000000;stroke-width:1.70000005;stroke-linecap:round;stroke-linejoin:round;stroke-miterlimit:4;stroke-dasharray:none;stroke-dashoffset:0;stroke-opacity:1"
           id="rect5334"
           width="94.464287"
           height="44.107143"
           x="222.14285"
           y="445.21933"
           rx="1"
           ry="1" />
        <path
           style="fill:#35a435;fill-opacity:1;fill-rule:evenodd;stroke:#000000;stroke-width:1px;stroke-linecap:butt;stroke-linejoin:miter;stroke-opacity:1"
           d="M 222.14286,449.4107 L 316.22108,449.4107"
           id="path5845"
           sodipodi:nodetypes="cc" />
        <path
           style="fill:#35a435;fill-opacity:1;fill-rule:evenodd;stroke:#000000;stroke-width:1px;stroke-linecap:butt;stroke-linejoin:miter;stroke-opacity:1"
           d="M 222.14286,453.43743 L 316.22108,453.43743"
           id="path5851"
           sodipodi:nodetypes="cc" />
        <path
           style="fill:#35a435;fill-opacity:1;fill-rule:evenodd;stroke:#000000;stroke-width:1px;stroke-linecap:butt;stroke-linejoin:miter;stroke-opacity:1"
           d="M 222.14286,457.2691 L 316.22108,457.2691"
           id="path5853"
           sodipodi:nodetypes="cc" />
        <path
           style="fill:#35a435;fill-opacity:1;fill-rule:evenodd;stroke:#000000;stroke-width:1px;stroke-linecap:butt;stroke-linejoin:miter;stroke-opacity:1"
           d="M 222.14286,461.33477 L 316.22108,461.33477"
           id="path5855"
           sodipodi:nodetypes="cc" />
        <path
           style="fill:#35a435;fill-opacity:1;fill-rule:evenodd;stroke:#000000;stroke-width:1px;stroke-linecap:butt;stroke-linejoin:miter;stroke-opacity:1"
           d="M 222.14286,465.36149 L 316.22108,465.36149"
           id="path5859"
           sodipodi:nodetypes="cc" />
        <path
           style="fill:#35a435;fill-opacity:1;fill-rule:evenodd;stroke:#000000;stroke-width:1px;stroke-linecap:butt;stroke-linejoin:miter;stroke-opacity:1"
           d="M 222.14286,469.72888 L 316.22108,469.72888"
           id="path5861"
           sodipodi:nodetypes="cc" />
        <path
           style="fill:#35a435;fill-opacity:1;fill-rule:evenodd;stroke:#000000;stroke-width:1px;stroke-linecap:butt;stroke-linejoin:miter;stroke-opacity:1"
           d="M 222.14286,473.74549 L 316.22108,473.74549"
           id="path5863"
           sodipodi:nodetypes="cc" />
        <path
           style="fill:#35a435;fill-opacity:1;fill-rule:evenodd;stroke:#000000;stroke-width:1px;stroke-linecap:butt;stroke-linejoin:miter;stroke-opacity:1"
           d="M 222.14286,477.75574 L 316.22108,477.75574"
           id="path5865"
           sodipodi:nodetypes="cc" />
        <path
           style="fill:#35a435;fill-opacity:1;fill-rule:evenodd;stroke:#000000;stroke-width:1px;stroke-linecap:butt;stroke-linejoin:miter;stroke-opacity:1"
           d="M 222.14286,481.52221 L 316.22108,481.52221"
           id="path5867"
           sodipodi:nodetypes="cc" />
        <path
           style="fill:#35a435;fill-opacity:1;fill-rule:evenodd;stroke:#000000;stroke-width:1px;stroke-linecap:butt;stroke-linejoin:miter;stroke-opacity:1"
           d="M 222.14286,485.17469 L 316.22108,485.17469"
           id="path5871"
           sodipodi:nodetypes="cc" />
        <rect
           style="opacity:1;fill:#dfc19b;fill-opacity:1;stroke:#000000;stroke-width:1.70000005;stroke-linecap:round;stroke-linejoin:round;stroke-miterlimit:4;stroke-dasharray:none;stroke-dashoffset:0;stroke-opacity:1"
           id="rect5875"
           width="25.178568"
           height="43.928528"
           x="255.89287"
           y="445.21933" />
        <text
           xml:space="preserve"
           style="font-size:20px;font-style:normal;font-weight:normal;text-align:center;text-anchor:middle;fill:#000000;fill-opacity:1;stroke:none;stroke-width:1px;stroke-linecap:butt;stroke-linejoin:miter;stroke-opacity:1;font-family:Bitstream Vera Sans"
           x="268.75"
           y="480.07645"
           id="text5877"><tspan
             sodipodi:role="line"
             id="tspan5879"
             x="268.75"
             y="480.07645"
             style="font-size:32px;font-style:normal;font-variant:normal;font-weight:bold;font-stretch:normal;text-align:center;text-anchor:middle;font-family:AR PL UMing CN;-inkscape-font-specification:AR PL UMing CN Bold">$</tspan></text>
        <path
           style="fill:#0c0e0c;fill-opacity:0.24669602;fill-rule:evenodd;stroke:none;stroke-width:1px;stroke-linecap:butt;stroke-linejoin:miter;stroke-opacity:1"
           d="M 223.92858,488.96932 C 239.73349,479.61317 300.38989,473.14938 316.42857,464.50504 C 317.14285,464.1479 316.25,489.32647 316.25,489.32647 C 316.25,489.32647 224.47435,489.7985 223.92858,488.96932 z"
           id="path5881"
           sodipodi:nodetypes="cccc" />
      </g>
    </pattern>
    <clipPath
       clipPathUnits="userSpaceOnUse"
       id="clipPath10260">
      <path
         sodipodi:type="arc"
         style="opacity:0.98999999;fill:none;fill-opacity:1;stroke:#000000;stroke-width:4.9000001;stroke-linecap:round;stroke-linejoin:round;stroke-miterlimit:4;stroke-dasharray:none;stroke-dashoffset:0;stroke-opacity:1"
         id="path10262"
         sodipodi:cx="290.71429"
         sodipodi:cy="287.9801"
         sodipodi:rx="90.714287"
         sodipodi:ry="90.714287"
         d="M 380.91114,297.65536 A 90.714287,90.714287 0 1 1 380.91198,297.64758"
         transform="matrix(1.4126136,0,0,1.4126136,32.981417,-871.81056)"
         sodipodi:start="0.10685966"
         sodipodi:end="6.3899587"
         sodipodi:open="true" />
    </clipPath>
    <clipPath
       clipPathUnits="userSpaceOnUse"
       id="clipPath3612">
      <use
         x="0"
         y="0"
         xlink:href="#path10257"
         id="use3614"
         transform="matrix(0.1159519,0,0,0.1159519,349.90792,784.32839)"
         width="1"
         height="1" />
    </clipPath>
    <clipPath
       clipPathUnits="userSpaceOnUse"
       id="clipPath3626">
      <path
         sodipodi:type="arc"
         style="opacity:0.98999999;fill:none;fill-opacity:1;stroke:#000000;stroke-width:4.9000001;stroke-linecap:round;stroke-linejoin:round;stroke-miterlimit:4;stroke-dasharray:none;stroke-dashoffset:0;stroke-opacity:1"
         id="path3628"
         sodipodi:cx="290.71429"
         sodipodi:cy="287.9801"
         sodipodi:rx="90.714287"
         sodipodi:ry="90.714287"
         d="M 380.91114,297.65536 A 90.714287,90.714287 0 1 1 380.91198,297.64758"
         sodipodi:start="0.10685966"
         sodipodi:end="6.3899587"
         sodipodi:open="true"
         transform="matrix(0.1700304,0,0,0.1700304,686.27865,810.05917)" />
    </clipPath>
  </defs>
  <sodipodi:namedview
     id="base"
     pagecolor="#ffffff"
     bordercolor="#666666"
     borderopacity="1.0"
     gridtolerance="10000"
     guidetolerance="10"
     objecttolerance="10"
     inkscape:pageopacity="0.0"
     inkscape:pageshadow="2"
     inkscape:zoom="0.7"
     inkscape:cx="408.3991"
     inkscape:cy="112.35259"
     inkscape:document-units="px"
     inkscape:current-layer="layer1"
     showgrid="false"
     inkscape:window-width="1440"
     inkscape:window-height="829"
     inkscape:window-x="0"
     inkscape:window-y="25" />
  <metadata
     id="metadata7">
    <rdf:RDF>
      <cc:Work
         rdf:about="">
        <dc:format>image/svg+xml</dc:format>
        <dc:type
           rdf:resource="http://purl.org/dc/dcmitype/StillImage" />
      </cc:Work>
    </rdf:RDF>
  </metadata>
  <g
     inkscape:label="Layer 1"
     inkscape:groupmode="layer"
     id="layer1"
     transform="translate(67.942854,-430.23743)">
    <use
       x="0"
       y="0"
       xlink:href="#g2746"
       id="use3622"
       transform="matrix(8.9022211,0,0,8.9022211,-6015.9577,-6994.0088)"
       width="878.02856"
       height="478.6944"
       clip-path="url(#clipPath3626)" />
    <use
       x="0"
       y="0"
       xlink:href="#g2746"
       id="use3608"
       transform="matrix(8.624268,0,0,8.624268,-3016.2711,-6763.6868)"
       width="878.02856"
       height="478.6944"
       clip-path="url(#clipPath3612)" />
    <path
       sodipodi:type="arc"
       style="opacity:0.98999999000000005;fill:none;fill-opacity:1;stroke:#000000;stroke-width:4.90000009999999975;stroke-linecap:round;stroke-linejoin:round;stroke-miterlimit:4;stroke-dasharray:none;stroke-dashoffset:0;stroke-opacity:1"
       id="path10257"
       sodipodi:cx="290.71429"
       sodipodi:cy="287.9801"
       sodipodi:rx="90.714287"
       sodipodi:ry="90.714287"
       d="M 380.91114,297.65536 A 90.714287,90.714287 0 1 1 380.91198,297.64758"
       sodipodi:start="0.10685966"
       sodipodi:end="6.3899587"
       sodipodi:open="true"
       transform="matrix(1.5136481,0,0,1.5136481,-268.69627,217.31702)" />
    <g
       id="g2746">
      <g
         id="field">
        <g
           id="g3231">
          <path
             sodipodi:nodetypes="cccc"
             id="path2455"
             d="M -14.285714,828.07647 L -13.928572,856.29076 L 32.5,831.64789 L 32.5,809.50504"
             style="fill:none;fill-rule:evenodd;stroke:#000000;stroke-width:3.5;stroke-linecap:round;stroke-linejoin:round;stroke-miterlimit:4;stroke-dasharray:none;stroke-opacity:1" />
          <path
             id="path3227"
             d="M -6.7857143,852.36218 L -6.7857143,877.00504"
             style="fill:none;fill-rule:evenodd;stroke:#000000;stroke-width:1px;stroke-linecap:butt;stroke-linejoin:miter;stroke-opacity:1" />
          <path
             id="path3229"
             d="M 25.357143,835.21933 L 25.357143,860.21933"
             style="fill:none;fill-rule:evenodd;stroke:#000000;stroke-width:1px;stroke-linecap:butt;stroke-linejoin:miter;stroke-opacity:1" />
        </g>
        <g
           id="g5791">
          <path
             sodipodi:nodetypes="ccccc"
             id="path2453"
             d="M -67.142857,908.07647 L 87.142857,828.07647 L 809.28571,828.43361 L 655,908.07647 L -67.142857,908.07647 z"
             style="fill:#a3e59f;fill-opacity:1;fill-rule:evenodd;stroke:#000000;stroke-width:1.60000002;stroke-linecap:butt;stroke-linejoin:round;stroke-miterlimit:4;stroke-dasharray:none;stroke-opacity:1" />
          <g
             id="g5763">
            <path
               sodipodi:nodetypes="cc"
               id="path3274"
               d="M 510.0893,908.03182 L 666.07143,828.92468"
               style="fill:none;fill-rule:evenodd;stroke:#000000;stroke-width:1.79999995;stroke-linecap:round;stroke-linejoin:miter;stroke-miterlimit:4;stroke-dasharray:none;stroke-opacity:1" />
            <path
               style="fill:none;fill-rule:evenodd;stroke:#000000;stroke-width:1.79999995;stroke-linecap:round;stroke-linejoin:miter;stroke-miterlimit:4;stroke-dasharray:none;stroke-opacity:1"
               d="M 3.75,907.89789 L 160.17856,828.16575"
               id="path3236"
               sodipodi:nodetypes="cc" />
            <path
               style="fill:none;fill-rule:evenodd;stroke:#000000;stroke-width:2.5;stroke-linecap:round;stroke-linejoin:miter;stroke-miterlimit:4;stroke-dasharray:none;stroke-opacity:1"
               d="M 98.571429,853.79075 L 118.57143,853.96932"
               id="path3240"
               sodipodi:nodetypes="cc" />
            <path
               style="fill:none;fill-rule:evenodd;stroke:#000000;stroke-width:2.5;stroke-linecap:round;stroke-linejoin:miter;stroke-miterlimit:4;stroke-dasharray:none;stroke-opacity:1"
               d="M 46.428574,880.84432 L 66.428574,881.02289"
               id="path3242"
               sodipodi:nodetypes="cc" />
            <path
               style="fill:none;fill-rule:evenodd;stroke:#000000;stroke-width:1.79999995;stroke-linecap:round;stroke-linejoin:miter;stroke-miterlimit:4;stroke-dasharray:none;stroke-opacity:1"
               d="M 74.642863,907.94253 L 231.07142,828.21039"
               id="path3244"
               sodipodi:nodetypes="cc" />
            <path
               style="fill:none;fill-rule:evenodd;stroke:#000000;stroke-width:2.5;stroke-linecap:round;stroke-linejoin:miter;stroke-miterlimit:4;stroke-dasharray:none;stroke-opacity:1"
               d="M 169.46429,853.83539 L 189.46429,854.01396"
               id="path3246"
               sodipodi:nodetypes="cc" />
            <path
               style="fill:none;fill-rule:evenodd;stroke:#000000;stroke-width:2.5;stroke-linecap:round;stroke-linejoin:miter;stroke-miterlimit:4;stroke-dasharray:none;stroke-opacity:1"
               d="M 117.32143,880.88896 L 137.32143,881.06753"
               id="path3248"
               sodipodi:nodetypes="cc" />
            <path
               style="fill:none;fill-rule:evenodd;stroke:#000000;stroke-width:1.79999995;stroke-linecap:round;stroke-linejoin:miter;stroke-miterlimit:4;stroke-dasharray:none;stroke-opacity:1"
               d="M 146.78572,907.94253 L 303.21428,828.21039"
               id="path3250"
               sodipodi:nodetypes="cc" />
            <path
               style="fill:none;fill-rule:evenodd;stroke:#000000;stroke-width:2.5;stroke-linecap:round;stroke-linejoin:miter;stroke-miterlimit:4;stroke-dasharray:none;stroke-opacity:1"
               d="M 241.60715,853.83539 L 261.60715,854.01396"
               id="path3252"
               sodipodi:nodetypes="cc" />
            <path
               style="fill:none;fill-rule:evenodd;stroke:#000000;stroke-width:2.5;stroke-linecap:round;stroke-linejoin:miter;stroke-miterlimit:4;stroke-dasharray:none;stroke-opacity:1"
               d="M 189.4643,880.88896 L 209.4643,881.06753"
               id="path3254"
               sodipodi:nodetypes="cc" />
            <path
               style="fill:none;fill-rule:evenodd;stroke:#000000;stroke-width:1.79999995;stroke-linecap:round;stroke-linejoin:miter;stroke-miterlimit:4;stroke-dasharray:none;stroke-opacity:1"
               d="M 219.28573,907.94253 L 374.64286,828.92468"
               id="path3256"
               sodipodi:nodetypes="cc" />
            <path
               style="fill:none;fill-rule:evenodd;stroke:#000000;stroke-width:2.5;stroke-linecap:round;stroke-linejoin:miter;stroke-miterlimit:4;stroke-dasharray:none;stroke-opacity:1"
               d="M 313.03573,854.54968 L 333.03573,854.72825"
               id="path3258"
               sodipodi:nodetypes="cc" />
            <path
               style="fill:none;fill-rule:evenodd;stroke:#000000;stroke-width:2.5;stroke-linecap:round;stroke-linejoin:miter;stroke-miterlimit:4;stroke-dasharray:none;stroke-opacity:1"
               d="M 260.89287,881.60325 L 280.89287,881.78182"
               id="path3260"
               sodipodi:nodetypes="cc" />
            <path
               style="fill:none;fill-rule:evenodd;stroke:#000000;stroke-width:1.79999995;stroke-linecap:round;stroke-linejoin:miter;stroke-miterlimit:4;stroke-dasharray:none;stroke-opacity:1"
               d="M 293.48215,908.03183 L 448.21428,828.92469"
               id="path3262"
               sodipodi:nodetypes="cc" />
            <path
               style="fill:none;fill-rule:evenodd;stroke:#000000;stroke-width:2.5;stroke-linecap:round;stroke-linejoin:miter;stroke-miterlimit:4;stroke-dasharray:none;stroke-opacity:1"
               d="M 386.60715,854.54969 L 406.60715,854.72826"
               id="path3264"
               sodipodi:nodetypes="cc" />
            <path
               style="fill:none;fill-rule:evenodd;stroke:#000000;stroke-width:2.5;stroke-linecap:round;stroke-linejoin:miter;stroke-miterlimit:4;stroke-dasharray:none;stroke-opacity:1"
               d="M 334.46429,881.60326 L 354.46429,881.78183"
               id="path3266"
               sodipodi:nodetypes="cc" />
            <path
               style="fill:none;fill-rule:evenodd;stroke:#000000;stroke-width:1.79999995;stroke-linecap:round;stroke-linejoin:miter;stroke-miterlimit:4;stroke-dasharray:none;stroke-opacity:1"
               d="M 365.71429,907.94253 L 521.07142,828.92468"
               id="path3268"
               sodipodi:nodetypes="cc" />
            <path
               style="fill:none;fill-rule:evenodd;stroke:#000000;stroke-width:2.5;stroke-linecap:round;stroke-linejoin:miter;stroke-miterlimit:4;stroke-dasharray:none;stroke-opacity:1"
               d="M 459.46429,854.54968 L 479.46429,854.72825"
               id="path3270"
               sodipodi:nodetypes="cc" />
            <path
               style="fill:none;fill-rule:evenodd;stroke:#000000;stroke-width:2.5;stroke-linecap:round;stroke-linejoin:miter;stroke-miterlimit:4;stroke-dasharray:none;stroke-opacity:1"
               d="M 407.32143,881.60325 L 427.32143,881.78182"
               id="path3272"
               sodipodi:nodetypes="cc" />
            <path
               style="fill:none;fill-rule:evenodd;stroke:#000000;stroke-width:2.5;stroke-linecap:round;stroke-linejoin:miter;stroke-miterlimit:4;stroke-dasharray:none;stroke-opacity:1"
               d="M 604.4643,854.54968 L 624.4643,854.72825"
               id="path3276"
               sodipodi:nodetypes="cc" />
            <path
               style="fill:none;fill-rule:evenodd;stroke:#000000;stroke-width:2.5;stroke-linecap:round;stroke-linejoin:miter;stroke-miterlimit:4;stroke-dasharray:none;stroke-opacity:1"
               d="M 552.32144,881.60325 L 572.32144,881.78182"
               id="path3278"
               sodipodi:nodetypes="cc" />
            <path
               style="fill:none;fill-rule:evenodd;stroke:#000000;stroke-width:1.79999995;stroke-linecap:round;stroke-linejoin:miter;stroke-miterlimit:4;stroke-dasharray:none;stroke-opacity:1"
               d="M 438.2143,907.94254 L 593.92857,828.92469"
               id="path3280"
               sodipodi:nodetypes="cc" />
            <path
               style="fill:none;fill-rule:evenodd;stroke:#000000;stroke-width:2.5;stroke-linecap:round;stroke-linejoin:miter;stroke-miterlimit:4;stroke-dasharray:none;stroke-opacity:1"
               d="M 532.32144,854.54969 L 552.32144,854.72826"
               id="path3282"
               sodipodi:nodetypes="cc" />
            <path
               style="fill:none;fill-rule:evenodd;stroke:#000000;stroke-width:2.5;stroke-linecap:round;stroke-linejoin:miter;stroke-miterlimit:4;stroke-dasharray:none;stroke-opacity:1"
               d="M 480.17858,881.60326 L 500.17858,881.78183"
               id="path3284"
               sodipodi:nodetypes="cc" />
            <path
               style="fill:none;fill-rule:evenodd;stroke:#000000;stroke-width:1.79999995;stroke-linecap:round;stroke-linejoin:miter;stroke-miterlimit:4;stroke-dasharray:none;stroke-opacity:1"
               d="M 580.44644,908.03182 L 736.78571,828.92468"
               id="path3286"
               sodipodi:nodetypes="cc" />
            <path
               style="fill:none;fill-rule:evenodd;stroke:#000000;stroke-width:2.5;stroke-linecap:round;stroke-linejoin:miter;stroke-miterlimit:4;stroke-dasharray:none;stroke-opacity:1"
               d="M 675.17858,854.54968 L 695.17858,854.72825"
               id="path3288"
               sodipodi:nodetypes="cc" />
            <path
               style="fill:none;fill-rule:evenodd;stroke:#000000;stroke-width:2.5;stroke-linecap:round;stroke-linejoin:miter;stroke-miterlimit:4;stroke-dasharray:none;stroke-opacity:1"
               d="M 623.03572,881.60325 L 643.03572,881.78182"
               id="path3290"
               sodipodi:nodetypes="cc" />
          </g>
        </g>
        <g
           id="g3292"
           transform="translate(724.17857,-1.223211)">
          <path
             sodipodi:nodetypes="cccc"
             id="path3294"
             d="M -14.285714,828.07647 L -13.928572,856.29076 L 32.5,831.64789 L 32.5,809.50504"
             style="fill:none;fill-rule:evenodd;stroke:#000000;stroke-width:3.5;stroke-linecap:round;stroke-linejoin:round;stroke-miterlimit:4;stroke-dasharray:none;stroke-opacity:1" />
          <path
             id="path3296"
             d="M -6.7857143,852.36218 L -6.7857143,877.00504"
             style="fill:none;fill-rule:evenodd;stroke:#000000;stroke-width:1px;stroke-linecap:butt;stroke-linejoin:miter;stroke-opacity:1" />
          <path
             id="path3298"
             d="M 25.357143,835.21933 L 25.357143,860.21933"
             style="fill:none;fill-rule:evenodd;stroke:#000000;stroke-width:1px;stroke-linecap:butt;stroke-linejoin:miter;stroke-opacity:1" />
        </g>
      </g>
      <g
         transform="matrix(2.9416299e-2,0,0,2.9416299e-2,354.75164,844.77558)"
         inkscape:label="Layer 1"
         id="family">
        <g
           id="man">
          <path
             sodipodi:nodetypes="ccsccccsccccsccccccssccsc"
             id="path3380"
             d="M 259.35029,646.37966 C 254.62105,614.8322 265.91494,577.7961 270.65121,532.05038 C 270.63034,518.47245 281.40356,434.98035 305.25572,424.219 C 329.38233,413.33383 333.28804,420.64502 352.85715,414.50504 L 445.71429,415.21932 L 570,420.93361 L 651.76649,407.5355 C 650.95296,408.59522 686.06156,435.18617 674.32777,471.42382 C 662.663,507.44832 455.05052,477.95017 456.42857,474.50504 L 454.66824,451.99452 L 469.46466,607.3406 L 497.85714,830.93361 C 496.23048,839.06695 412.07385,854.13575 406.42857,843.79075 C 400.91147,833.68062 395,624.50504 395,624.50504 L 411.42857,618.07647 L 393.57143,625.93361 L 377.14286,616.6479 L 394.28571,625.21932 L 397.85714,844.50504 C 397.85714,844.50504 303.57142,848.07647 302.14285,828.07647 C 301.36719,817.21711 315.79042,710.44379 327.1775,609.23823 C 336.76234,524.05045 342.26541,463.99381 342.26541,463.99381 L 340,474.50504 C 339.98428,474.50504 322.69817,626.52307 310.35684,651.55657 C 302.52887,667.43503 264.75856,647.30938 259.35029,646.37966 z"
             style="fill:#f58e34;fill-opacity:1;fill-rule:evenodd;stroke:#383838;stroke-width:8.75;stroke-linecap:round;stroke-linejoin:round;stroke-miterlimit:4;stroke-dasharray:none;stroke-opacity:1" />
          <path
             transform="translate(-41.428572,-20)"
             d="M 535.71429,352.36218 A 95.714287,95.714287 0 1 1 344.28571,352.36218 A 95.714287,95.714287 0 1 1 535.71429,352.36218 z"
             sodipodi:ry="95.714287"
             sodipodi:rx="95.714287"
             sodipodi:cy="352.36218"
             sodipodi:cx="440"
             id="path3378"
             style="fill:#f58e34;fill-opacity:1;stroke:#383838;stroke-width:8.75;stroke-linecap:round;stroke-linejoin:round;stroke-miterlimit:4;stroke-dasharray:none;stroke-dashoffset:0;stroke-opacity:1"
             sodipodi:type="arc" />
          <path
             sodipodi:nodetypes="cssssscsc"
             id="path3891"
             d="M 269.62901,631.94443 C 266.83183,628.30667 265.47171,610.13962 269.94178,592.56781 C 273.34377,579.19468 282.13102,567.03489 284.48656,556.80735 C 287.11368,545.40067 279.85994,545.47178 278.8837,537.37372 C 278.00456,530.08119 283.31902,531.80798 284.73694,524.12397 C 287.20311,510.75939 280.335,485.15144 289.61179,475.77668 C 295.72393,469.59997 291.72711,525.75745 291.72711,525.75745 C 291.72711,525.75745 301.45943,531.65105 292.58697,549.94161 C 283.7145,568.23217 289.12234,631.60941 269.62901,631.94443 z"
             style="fill:#ffffff;fill-opacity:0.27467813;fill-rule:evenodd;stroke:none;stroke-width:1px;stroke-linecap:butt;stroke-linejoin:miter;stroke-opacity:1" />
          <path
             sodipodi:nodetypes="cczc"
             id="path3895"
             d="M 303.57142,358.07646 C 425.99019,448.71214 493.58005,344.1329 446.42857,250.93361 C 446.28516,249.92971 554.1253,333.09721 460.71428,404.50504 C 367.64682,475.65025 297.85714,359.50504 303.57142,358.07646 z"
             style="fill:#000000;fill-opacity:0.13304719;fill-rule:evenodd;stroke:none;stroke-width:1px;stroke-linecap:butt;stroke-linejoin:miter;stroke-opacity:1" />
          <path
             sodipodi:nodetypes="csss"
             id="path3893"
             d="M 343.57143,333.07647 C 353.90712,333.27488 373.50872,305.18189 383.57143,302.36218 C 394.91481,299.18361 395.4958,255.34154 365,267.36218 C 310.26569,288.93699 336.45172,332.9398 343.57143,333.07647 z"
             style="fill:#ffffff;fill-opacity:0.32618025;fill-rule:evenodd;stroke:none;stroke-width:1px;stroke-linecap:butt;stroke-linejoin:miter;stroke-opacity:1" />
          <path
             sodipodi:nodetypes="cssscsc"
             id="path3897"
             d="M 626.92374,443.79742 C 632.23213,443.11155 669.6222,425.10097 653.8663,421.44481 C 642.51584,418.81094 586.38796,437.96887 578.48457,436.49701 C 571.26339,435.15221 558.09781,431.74842 550.29487,432.1591 C 536.72344,432.87339 506.50654,426.31762 496.00915,434.30196 C 545.4617,446.61299 564.58059,439.22779 578.15201,441.44482 C 589.58024,443.31173 620.49266,444.01298 626.92374,443.79742 z"
             style="fill:#ffffff;fill-opacity:0.27467813;fill-rule:evenodd;stroke:none;stroke-width:1px;stroke-linecap:butt;stroke-linejoin:miter;stroke-opacity:1" />
          <path
             sodipodi:nodetypes="cssccsscssscssssssscc"
             id="path3899"
             d="M 265.36916,649.02504 C 265.36916,649.02504 279.0965,648.88459 294.70563,624.70088 C 313.34572,595.82121 296.2047,490.19954 342.14285,443.07646 C 347.15915,437.93077 346.02045,415.9336 346.42857,415.9336 C 391.47849,436.93846 422.64212,428.62782 450.71429,413.79075 C 450.71429,413.79075 457.09535,455.36742 479.28572,453.79076 C 508.93476,451.68414 689.66407,524.06799 648.7868,414.25993 C 646.97264,409.38658 656.64394,411.40279 656.64394,411.40279 C 656.64394,411.40279 692.18492,463.86254 670.04206,478.86254 C 647.8992,493.86254 456.42857,487.36218 457.14286,477.36218 C 457.77733,468.4796 490.40844,763.82145 497.33229,828.80989 C 498.95816,844.07061 407.13762,849.47363 406.42857,845.21933 C 406.42857,845.21933 399.37874,840.50791 405.72282,838.84019 C 421.1206,834.79247 459.52452,827.71399 463.57143,797.36218 C 468.89855,757.4088 456.65645,615.75179 430.63603,612.82967 C 429.22812,612.67156 429.00657,608.26931 430.71429,608.07647 C 432.30778,607.89653 451.65552,446.67059 425.71429,443.79075 C 390.66817,439.90014 380.99919,428.59709 340,484.50504 C 339.10276,485.72855 338.79085,473.92831 337.61175,479.92625 C 317.64894,581.47484 319.12269,639.61084 305.35684,654.83214 C 289.64147,658.86179 277.33628,654.36601 265.36916,649.02504 z"
             style="fill:#000000;fill-opacity:0.16309013;fill-rule:evenodd;stroke:none;stroke-width:1px;stroke-linecap:butt;stroke-linejoin:miter;stroke-opacity:1" />
          <path
             sodipodi:nodetypes="cssssscsc"
             id="path3901"
             d="M 420.39558,814.19122 C 417.02909,811.07286 412.64793,793.38962 414.11436,775.31756 C 415.2304,761.56369 417.5731,748.10487 418.18388,737.62736 C 418.86507,725.94189 417.30849,716.75968 414.99083,708.93919 C 412.9037,701.89662 416.44271,688.01712 417.51155,680.27683 C 419.43576,666.34214 415.32577,645.92676 419.94113,635.72411 C 423.52264,627.80686 425.74793,681.43177 425.74793,681.43177 C 425.74793,681.43177 431.42183,710.69972 425.73537,730.21714 C 420.04891,749.73455 439.55796,810.59876 420.39558,814.19122 z"
             style="fill:#ffffff;fill-opacity:0.27467813;fill-rule:evenodd;stroke:none;stroke-width:1px;stroke-linecap:butt;stroke-linejoin:miter;stroke-opacity:1" />
          <path
             sodipodi:nodetypes="cssssscssc"
             id="path3903"
             d="M 330.0339,809.49459 C 326.66741,806.37623 320.85768,788.69299 322.32411,770.62093 C 323.44015,756.86706 331.9685,720.92377 331.75077,710.43073 C 331.50445,698.55976 333.43947,665.6473 334.62915,658.52827 C 335.83986,651.28341 342.54153,622.32243 342.50701,614.50877 C 342.44399,600.24288 342.05601,566.34069 350.29374,556.74177 C 355.95288,550.14751 346.81482,612.44943 346.81482,612.44943 C 346.81482,612.44943 351.06015,644.93166 345.37369,664.44908 C 343.11183,672.21238 335.77694,691.66794 336.75249,718.06468 C 338.23054,758.05811 341.9664,807.33108 330.0339,809.49459 z"
             style="fill:#ffffff;fill-opacity:0.27467813;fill-rule:evenodd;stroke:none;stroke-width:1px;stroke-linecap:butt;stroke-linejoin:miter;stroke-opacity:1" />
          <path
             sodipodi:nodetypes="csscscc"
             id="path3905"
             d="M 330,842.36218 C 331.62504,826.11181 372.92728,838.80369 371.42857,763.79076 C 369.91589,688.0781 366.46635,612.09476 381.42857,619.50504 C 397.13626,627.28453 410.99845,619.79696 411.42857,618.07647 C 411.42857,618.07647 403.17767,680.49632 395.71429,682.36218 C 392.85714,683.07647 397.14286,844.50504 397.14286,844.50504 L 330,842.36218 z"
             style="fill:#000000;fill-opacity:0.16309013;fill-rule:evenodd;stroke:none;stroke-width:1px;stroke-linecap:butt;stroke-linejoin:miter;stroke-opacity:1" />
        </g>
        <g
           id="child"
           transform="matrix(1.0247186,0,0,1.0247186,-23.499108,-22.2256)">
          <path
             sodipodi:nodetypes="ccscccssccccsccccccssccsc"
             id="path4075"
             d="M 759.51495,739.34033 C 761.69884,724.77219 755.98349,718.37659 753.79636,697.25191 C 753.80599,690.98183 750.12397,648.80512 739.10941,643.8357 C 727.96811,638.80909 730.40715,642.8924 721.37043,640.05705 L 678.49042,640.38689 L 638.09716,606.02566 C 632.77735,597.17016 628.90289,578.64694 616.83864,581.83862 C 612.8209,582.90154 606.0017,589.60728 611.42019,606.34127 C 616.8068,622.97684 674.17909,669.35504 673.54272,667.76413 L 674.35562,657.36912 L 667.52286,729.10558 L 654.41164,832.35743 C 655.16281,836.11328 694.02506,843.07183 696.63196,838.29466 C 699.17968,833.62596 701.9095,737.03185 701.9095,737.03185 L 694.32304,734.06324 L 702.5692,737.69155 L 710.15566,733.40355 L 702.23935,737.3617 L 700.59012,838.62451 C 700.59012,838.62451 744.12983,840.27374 744.78952,831.03805 C 745.14771,826.02336 738.48728,776.71706 733.2289,729.98187 C 728.80277,690.64345 726.26154,662.91021 726.26154,662.91021 L 727.30767,667.76413 C 727.31493,667.76413 738.28864,732.74894 739.99643,745.52384 C 741.86417,759.49524 752.38718,757.36484 759.51495,739.34033 z"
             style="fill:#c992e9;fill-opacity:1;fill-rule:evenodd;stroke:#383838;stroke-width:4.04061699;stroke-linecap:round;stroke-linejoin:round;stroke-miterlimit:4;stroke-dasharray:none;stroke-opacity:1" />
          <path
             transform="matrix(-5.0786423e-2,0.4589836,0.4589836,5.0786423e-2,560.84975,382.24536)"
             d="M 535.71429,352.36218 A 95.714287,95.714287 0 1 1 344.28571,352.36218 A 95.714287,95.714287 0 1 1 535.71429,352.36218 z"
             sodipodi:ry="95.714287"
             sodipodi:rx="95.714287"
             sodipodi:cy="352.36218"
             sodipodi:cx="440"
             id="path4077"
             style="fill:#c992e9;fill-opacity:1;stroke:#383838;stroke-width:8.75;stroke-linecap:round;stroke-linejoin:round;stroke-miterlimit:4;stroke-dasharray:none;stroke-dashoffset:0;stroke-opacity:1"
             sodipodi:type="arc" />
          <path
             sodipodi:nodetypes="cssssscsc"
             id="path4079"
             d="M 753.06128,732.22461 C 754.35298,730.54475 754.98106,722.15548 752.91685,714.04109 C 751.34586,707.86558 747.28804,702.25037 746.20029,697.52745 C 744.98713,692.26002 748.33679,692.29286 748.78761,688.5533 C 749.19358,685.18572 746.73944,685.98312 746.08467,682.43476 C 744.94583,676.2632 748.11742,664.43784 743.83354,660.10872 C 741.01104,657.25641 742.85671,683.18908 742.85671,683.18908 C 742.85671,683.18908 738.36248,685.91065 742.45964,694.35696 C 746.55682,702.80326 744.05956,732.06991 753.06128,732.22461 z"
             style="fill:#ffffff;fill-opacity:0.27467813;fill-rule:evenodd;stroke:none;stroke-width:1px;stroke-linecap:butt;stroke-linejoin:miter;stroke-opacity:1" />
          <path
             sodipodi:nodetypes="cczc"
             id="path4081"
             d="M 716.85933,559.79585 C 752.24241,620.58711 700.8096,646.29854 660.42732,619.92353 C 659.97382,619.80672 692.66953,673.52736 730.18856,634.27978 C 767.56961,595.17655 717.80523,557.24563 716.85933,559.79585 z"
             style="fill:#000000;fill-opacity:0.13304719;fill-rule:evenodd;stroke:none;stroke-width:1px;stroke-linecap:butt;stroke-linejoin:miter;stroke-opacity:1" />
          <path
             sodipodi:nodetypes="csss"
             id="path4083"
             d="M 703.35329,576.88553 C 702.91944,581.63952 689.02973,589.20959 687.22448,593.68501 C 685.18947,598.73001 665.03717,596.77009 672.10322,583.3835 C 684.78547,559.35706 703.65214,573.61076 703.35329,576.88553 z"
             style="fill:#ffffff;fill-opacity:0.32618025;fill-rule:evenodd;stroke:none;stroke-width:1px;stroke-linecap:butt;stroke-linejoin:miter;stroke-opacity:1" />
          <path
             sodipodi:nodetypes="cssccsscssscssssssscc"
             id="path4087"
             d="M 759.27106,746.35482 C 759.27106,746.35482 755.43198,748.28996 748.22392,737.12229 C 739.61621,723.7861 747.53167,675.01162 726.31813,653.25089 C 724.00168,650.87469 724.52752,640.71673 724.33905,640.71673 C 703.53568,650.41646 689.14479,646.57873 676.18149,639.7272 C 676.18149,639.7272 676.31589,656.39801 671.48764,653.1986 C 670.19637,652.34295 604.71884,614.37197 619.71462,582.94386 C 620.74871,580.77661 616.08631,581.62448 616.08631,581.62448 C 616.08631,581.62448 611.50991,586.60752 609.39926,598.77636 C 607.3077,610.83513 671.31736,674.6286 673.21288,669.08352 C 674.54305,665.1923 657.85134,801.36606 654.65401,831.37673 C 653.90321,838.4239 696.30454,840.91893 696.63196,838.95436 C 696.63196,838.95436 699.88747,836.7787 696.95787,836.00857 C 689.84741,834.13939 672.11306,830.87066 670.24426,816.85465 C 667.78428,798.40479 673.43749,732.98974 685.45333,731.64035 C 686.10348,731.56733 686.20579,729.53444 685.41719,729.44539 C 684.68134,729.3623 675.74685,654.91061 687.72611,653.58074 C 703.90988,651.78412 708.37487,646.56454 727.30767,672.38198 C 727.722,672.94698 727.86604,667.49781 728.41053,670.26757 C 737.62905,717.16116 736.94849,746.50748 743.30535,753.53645 C 750.56247,755.39728 753.74482,748.8212 759.27106,746.35482 z"
             style="fill:#000000;fill-opacity:0.16309013;fill-rule:evenodd;stroke:none;stroke-width:1px;stroke-linecap:butt;stroke-linejoin:miter;stroke-opacity:1" />
          <path
             sodipodi:nodetypes="cssssscsc"
             id="path4089"
             d="M 690.18221,824.62605 C 691.73681,823.18604 693.75996,815.02019 693.08278,806.67478 C 692.56741,800.32346 691.48559,794.10838 691.20354,789.27002 C 690.88898,783.87385 691.60778,779.63365 692.67804,776.02226 C 693.64185,772.77011 692.00759,766.36077 691.51401,762.78642 C 690.62544,756.35159 692.52337,746.92408 690.39207,742.21265 C 688.73818,738.55659 687.71058,763.31975 687.71058,763.31975 C 687.71058,763.31975 685.09046,776.83525 687.71638,785.8481 C 690.3423,794.86094 681.33332,822.96711 690.18221,824.62605 z"
             style="fill:#ffffff;fill-opacity:0.27467813;fill-rule:evenodd;stroke:none;stroke-width:1px;stroke-linecap:butt;stroke-linejoin:miter;stroke-opacity:1" />
          <path
             sodipodi:nodetypes="cssssscssc"
             id="path4091"
             d="M 731.90986,822.45722 C 733.46446,821.01721 736.1473,812.85135 735.47013,804.50595 C 734.95476,798.15462 731.01649,781.55656 731.11704,776.71103 C 731.23078,771.2292 730.33722,756.03073 729.78784,752.74327 C 729.22876,749.3977 726.13403,736.02396 726.14997,732.41573 C 726.17907,725.82796 726.35823,710.17244 722.55418,705.73981 C 719.94087,702.69468 724.16069,731.46476 724.16069,731.46476 C 724.16069,731.46476 722.20026,746.46456 724.82618,755.47741 C 725.87067,759.06238 729.25781,768.04666 728.80732,780.23627 C 728.12478,798.70463 726.39961,821.45814 731.90986,822.45722 z"
             style="fill:#ffffff;fill-opacity:0.27467813;fill-rule:evenodd;stroke:none;stroke-width:1px;stroke-linecap:butt;stroke-linejoin:miter;stroke-opacity:1" />
          <path
             sodipodi:nodetypes="csscscc"
             id="path4093"
             d="M 731.92552,837.63497 C 731.1751,830.1308 712.10235,835.99171 712.79443,801.35188 C 713.49296,766.38893 715.08591,731.30098 708.17658,734.72293 C 700.92301,738.31538 694.52166,734.85774 694.32304,734.06324 C 694.32304,734.06324 698.13318,762.88778 701.57966,763.7494 C 702.89904,764.07925 700.91996,838.62451 700.91996,838.62451 L 731.92552,837.63497 z"
             style="fill:#000000;fill-opacity:0.16309013;fill-rule:evenodd;stroke:none;stroke-width:1px;stroke-linecap:butt;stroke-linejoin:miter;stroke-opacity:1" />
          <path
             sodipodi:nodetypes="cssscsc"
             id="path4085"
             d="M 625.81965,611.01358 C 624.16599,609.17653 616.48264,591.61922 623.10298,595.07745 C 627.87223,597.56874 641.77588,621.16429 644.98782,623.02586 C 647.9225,624.72677 653.55933,627.49427 656.16982,629.98524 C 660.71016,634.31772 667.61272,638.98845 668.88918,644.94357 C 647.85878,634.3821 649.03813,628.16493 643.61606,624.85953 C 639.05026,622.07612 628.00815,613.02354 625.81965,611.01358 z"
             style="fill:#ffffff;fill-opacity:0.27467813;fill-rule:evenodd;stroke:none;stroke-width:1px;stroke-linecap:butt;stroke-linejoin:miter;stroke-opacity:1" />
        </g>
        <g
           id="woman"
           clip-path="url(#clipPath4183)">
          <path
             sodipodi:nodetypes="ccccccssccssscsccccccssssccsc"
             id="path3923"
             d="M 358.32422,447.00374 L 416.18945,457.12326 C 454.72286,454.26592 498.55561,456.60088 527.95783,450.6998 L 611.46294,451.34213 L 697.80644,499.55147 L 779.8279,527.77293 C 783.43962,537.88299 784.47464,556.21697 766.88249,567.71935 C 758.3317,573.31017 716.67792,558.14657 680.68027,538.85534 C 669.71048,532.9766 649.47439,525.95439 635.87145,511.47722 L 630.52978,490.46306 C 630.52978,490.46306 634.24401,503.94903 636.06906,511.52248 C 641.2237,532.91264 634.53386,550.2905 633.66982,572.43922 C 632.98686,589.94635 638.12798,601.24673 639.96417,621.25693 C 645.75092,684.31929 642.63998,832.33096 642.63998,832.33096 C 641.17715,839.64515 581.21057,846.05345 576.13385,836.75034 C 571.1724,827.65845 565.35122,640.30742 565.35122,640.30742 C 576.0091,641.42286 579.43943,632.90158 582.14551,623.41463 C 578.21833,634.72166 573.83382,642.86505 564.57161,640.83451 C 556.23381,640.16325 549.73019,635.82362 546.76717,624.40277 C 550.04686,633.49155 553.98755,641.699 565.21395,640.19215 L 568.42569,837.39269 C 568.66036,836.92334 497.25009,846.70253 499.14742,836.24091 C 500.63199,828.0551 485.52221,718.26189 489.15021,627.24916 C 490.03521,605.04779 493.125,595.00515 498.05557,575.45259 C 504.05158,551.67491 496.29206,528.65418 498.54445,510.54034 C 500.86619,491.86883 503.82108,484.17888 503.82108,484.17888 L 499.96702,501.08552 C 499.97002,501.07054 350.61553,517.60302 346.82466,494.70189 C 340.63536,457.31156 352.36627,456.58851 358.32422,447.00374 z"
             style="fill:#8decb5;fill-opacity:1;fill-rule:evenodd;stroke:#383838;stroke-width:7.86875057;stroke-linecap:round;stroke-linejoin:round;stroke-miterlimit:4;stroke-dasharray:none;stroke-opacity:1" />
          <path
             sodipodi:nodetypes="cssssscsc"
             id="path3927"
             d="M 356.92025,468.87979 C 359.83825,465.96178 365.98007,462.6328 382.16971,464.57199 C 394.49095,466.04783 390.09405,470.34577 399.48843,471.2549 C 409.9659,472.26884 421.24661,471.57716 428.35401,469.76336 C 434.75444,468.12996 441.93207,468.3162 448.94915,468.68552 C 461.15374,469.32786 483.18859,460.22062 492.62874,467.40082 C 498.84854,472.13161 448.3068,475.10899 448.3068,475.10899 C 448.3068,475.10899 423.89762,483.4595 406.55424,477.67837 C 389.21088,471.89724 359.48964,486.22317 356.92025,468.87979 z"
             style="fill:#ffffff;fill-opacity:0.27467813;fill-rule:evenodd;stroke:none;stroke-width:1px;stroke-linecap:butt;stroke-linejoin:miter;stroke-opacity:1" />
          <path
             sodipodi:nodetypes="cssscsc"
             id="path3933"
             d="M 711.00053,530.9061 C 715.50098,532.6135 746.84189,541.51661 735.89799,531.93518 C 728.01408,525.03275 697.34929,520.9271 691.70609,516.40807 C 686.55002,512.27912 680.65963,505.80008 674.29771,502.81652 C 663.2326,497.62729 644.05083,476.61352 632.3402,478.49317 C 666.33509,509.22872 679.52208,512.67689 689.34401,520.19065 C 697.61486,526.51785 705.80925,528.34962 711.00053,530.9061 z"
             style="fill:#ffffff;fill-opacity:0.27467813;fill-rule:evenodd;stroke:none;stroke-width:1px;stroke-linecap:butt;stroke-linejoin:miter;stroke-opacity:1" />
          <path
             sodipodi:nodetypes="cssccccssssscsssssssssscc"
             id="path3935"
             d="M 345.12863,468.61965 C 345.12863,468.61965 341.53468,494.85786 369.08975,489.23953 C 386.18647,485.7536 462.49695,501.81875 502.60833,483.53652 C 508.48876,480.8563 502.52398,456.98447 512.89099,454.12734 C 553.40375,473.01672 595.8915,464.66291 621.1364,451.32014 C 621.1364,451.32014 622.97746,500.497 631.81442,493.54411 C 671.20783,542.49938 776.45684,556.98271 780.62977,536.3677 C 780.62977,536.3677 788.68067,571.2675 764.70578,569.3482 C 713.27507,565.23095 659.76854,527.60126 637.96221,511.59905 C 637.4695,511.23748 638.22005,517.55971 636.71232,531.20332 C 632.74823,567.07492 642.07917,638.00867 643.96051,703.32913 C 645.57481,759.37793 639.30651,811.29386 641.71983,833.3798 C 643.21899,847.09955 576.77149,841.86088 576.13385,838.03505 C 576.13385,838.03505 569.79404,833.79812 575.49918,832.29837 C 589.34619,828.65832 627.96924,832.51012 627.52161,794.99779 C 627.08911,758.75289 626.30307,630.96385 602.90328,628.33603 C 601.63716,628.19385 602.15965,625.87275 602.2668,624.27076 C 602.32933,623.33598 619.07572,611.50903 614.25934,544.9013 C 614.03837,541.84538 622.88098,519.60863 621.80077,512.18858 C 618.86209,492.00272 600.89254,477.85921 593.47723,477.03601 C 566.24937,474.01335 534.50949,473.42274 510.84011,500.73647 C 504.81102,507.69385 498.86629,519.64797 500.68129,527.93552 C 502.01728,534.0358 505.23298,499.49606 499.83025,500.51024 C 420.50823,515.40025 353.27563,509.42573 348.08658,495.34443 L 345.12863,468.61965 z"
             style="fill:#000000;fill-opacity:0.16309013;fill-rule:evenodd;stroke:none;stroke-width:1px;stroke-linecap:butt;stroke-linejoin:miter;stroke-opacity:1" />
          <path
             sodipodi:nodetypes="cssssscsc"
             id="path3937"
             d="M 588.69419,810.13191 C 585.66675,807.3276 581.72683,791.42531 583.04557,775.17337 C 584.04921,762.80472 586.15597,750.70139 586.70524,741.27911 C 587.31782,730.77053 587.93832,723.01818 585.85408,715.98532 C 583.97715,709.65205 587.66481,697.67548 588.626,690.71475 C 590.35641,678.18347 584.13498,658.81407 588.28551,649.63897 C 591.50631,642.51909 593.50748,690.74322 593.50748,690.74322 C 593.50748,690.74322 598.60994,717.06346 593.49618,734.6152 C 588.38243,752.16693 605.92664,806.90125 588.69419,810.13191 z"
             style="fill:#ffffff;fill-opacity:0.27467813;fill-rule:evenodd;stroke:none;stroke-width:1px;stroke-linecap:butt;stroke-linejoin:miter;stroke-opacity:1" />
          <path
             sodipodi:nodetypes="cssssscssc"
             id="path3939"
             d="M 512.48397,806.91843 C 509.45653,804.11415 504.23193,788.21186 505.55067,771.95991 C 506.5543,759.59125 504.62728,725.75273 504.43148,716.31649 C 504.20996,705.6411 499.88919,677.55862 500.95905,671.15657 C 502.04783,664.64138 508.07454,648.69871 508.0435,641.67199 C 507.98683,628.84288 507.13284,605.42618 514.54092,596.79402 C 519.6301,590.86389 511.91745,639.82006 511.91745,639.82006 C 511.91745,639.82006 515.73522,658.92933 510.62147,676.48107 C 508.58741,683.46249 508.05215,699.44337 508.92945,723.18159 C 510.25864,759.14711 523.2147,804.97282 512.48397,806.91843 z"
             style="fill:#ffffff;fill-opacity:0.27467813;fill-rule:evenodd;stroke:none;stroke-width:1px;stroke-linecap:butt;stroke-linejoin:miter;stroke-opacity:1" />
          <path
             sodipodi:nodetypes="csscscc"
             id="path3941"
             d="M 511.44333,840.5164 C 513.12034,826.47769 556.44367,844.27195 551.72992,767.83795 C 547.53804,699.86617 541.20654,631.92495 554.66186,638.58892 C 568.78756,645.5849 580.24348,635.31591 580.63028,633.7687 C 579.544,629.78568 570.422,679.678 566.49865,691.57992 C 565.66949,694.09525 567.78334,837.39269 567.78334,837.39269 L 511.44333,840.5164 z"
             style="fill:#000000;fill-opacity:0.16309013;fill-rule:evenodd;stroke:none;stroke-width:1px;stroke-linecap:butt;stroke-linejoin:miter;stroke-opacity:1" />
          <path
             transform="matrix(0.8841987,0,0,0.8841987,177.49212,73.852842)"
             d="M 535.71429,352.36218 A 95.714287,95.714287 0 1 1 344.28571,352.36218 A 95.714287,95.714287 0 1 1 535.71429,352.36218 z"
             sodipodi:ry="95.714287"
             sodipodi:rx="95.714287"
             sodipodi:cy="352.36218"
             sodipodi:cx="440"
             id="path3925"
             style="fill:#8decb5;fill-opacity:1;stroke:#383838;stroke-width:8.75;stroke-linecap:round;stroke-linejoin:round;stroke-miterlimit:4;stroke-dasharray:none;stroke-dashoffset:0;stroke-opacity:1"
             sodipodi:type="arc" />
          <path
             sodipodi:nodetypes="cczc"
             id="path3929"
             d="M 482.54066,408.14756 C 590.78318,488.2875 650.54604,395.81867 608.85477,313.41199 C 608.72796,312.52434 704.08007,386.06092 621.48617,449.19964 C 539.19605,512.10614 477.48811,409.4107 482.54066,408.14756 z"
             style="fill:#000000;fill-opacity:0.13304719;fill-rule:evenodd;stroke:none;stroke-width:1px;stroke-linecap:butt;stroke-linejoin:miter;stroke-opacity:1" />
          <path
             sodipodi:nodetypes="csss"
             id="path3931"
             d="M 517.90862,386.04258 C 527.04743,386.21803 544.37913,361.37824 553.27657,358.88506 C 563.30637,356.07457 563.82008,317.30948 536.85574,327.93811 C 488.45973,347.01452 511.61338,385.92175 517.90862,386.04258 z"
             style="fill:#ffffff;fill-opacity:0.32618025;fill-rule:evenodd;stroke:none;stroke-width:1px;stroke-linecap:butt;stroke-linejoin:miter;stroke-opacity:1" />
        </g>
      </g>
      <path
         sodipodi:nodetypes="ccccccccc"
         id="money"
         d="M 8.2142824,869.90683 L 9.2411844,869.31988 L 376.74501,868.99592 L 683.27216,864.78872 C 688.08842,863.99149 705.62093,857.0209 714.62753,847.47612 L 714.67423,438.53967 L 737.21063,438.57119 L 738.14098,869.36746 L 8.2142824,869.90683 z"
         style="fill:url(#pattern8830);fill-opacity:1.0;fill-rule:evenodd;stroke:none;stroke-width:1px;stroke-linecap:butt;stroke-linejoin:miter;stroke-opacity:1" />
      <g
         transform="translate(-0.7142857,0)"
         id="gates">
        <g
           id="g4924"
           transform="matrix(2.8500894e-2,0,0,2.8500894e-2,705.17079,836.44638)">
          <path
             sodipodi:nodetypes="ccsccsccsccccsccccccssccsc"
             id="path4817"
             d="M 984.29014,962.8419 C 979.5609,931.29444 990.85479,894.25834 995.59106,848.51262 C 995.57019,834.93469 1006.3434,751.44259 1030.1956,740.68124 C 1054.3222,729.79607 1058.2279,737.10726 1077.797,730.96728 L 1170.6541,731.68156 C 1170.6541,731.68156 1203.8476,738.0555 1220.5709,744.96044 C 1233.0268,750.10341 1246.3682,824.53821 1249.2256,844.53871 L 1268.1349,941.1406 C 1265.3119,959.28085 1222.8609,955.12865 1216.4105,946.45749 C 1193.8099,916.07586 1179.9904,794.41241 1181.3684,790.96728 L 1179.6081,768.45676 L 1194.4045,923.80284 L 1222.797,1147.3958 C 1221.1703,1155.5292 1137.0137,1170.598 1131.3684,1160.253 C 1125.8513,1150.1429 1119.9398,940.96728 1119.9398,940.96728 L 1136.3684,934.53871 L 1118.5113,942.39585 L 1102.0827,933.11014 L 1119.2256,941.68156 L 1122.797,1160.9673 C 1122.797,1160.9673 1028.5113,1164.5387 1027.0827,1144.5387 C 1026.307,1133.6793 1040.7303,1026.906 1052.1173,925.70047 C 1061.7022,840.51269 1067.2053,780.45605 1067.2053,780.45605 L 1064.9398,790.96728 C 1064.9241,790.96728 1047.638,942.98531 1035.2967,968.01881 C 1027.4687,983.89727 989.69841,963.77162 984.29014,962.8419 z"
             style="fill:#6975f8;fill-opacity:1;fill-rule:evenodd;stroke:#383838;stroke-width:8.75;stroke-linecap:round;stroke-linejoin:round;stroke-miterlimit:4;stroke-dasharray:none;stroke-opacity:1" />
          <path
             transform="translate(683.51128,296.46224)"
             d="M 535.71429,352.36218 A 95.714287,95.714287 0 1 1 344.28571,352.36218 A 95.714287,95.714287 0 1 1 535.71429,352.36218 z"
             sodipodi:ry="95.714287"
             sodipodi:rx="95.714287"
             sodipodi:cy="352.36218"
             sodipodi:cx="440"
             id="path4819"
             style="fill:#6975f8;fill-opacity:1;stroke:#383838;stroke-width:8.75;stroke-linecap:round;stroke-linejoin:round;stroke-miterlimit:4;stroke-dasharray:none;stroke-dashoffset:0;stroke-opacity:1"
             sodipodi:type="arc" />
          <path
             sodipodi:nodetypes="cssssscsc"
             id="path4821"
             d="M 994.56886,948.40667 C 991.77168,944.76891 990.41156,926.60186 994.88163,909.03005 C 998.28362,895.65692 1007.0709,883.49713 1009.4264,873.26959 C 1012.0535,861.86291 1004.7998,861.93402 1003.8235,853.83596 C 1002.9444,846.54343 1008.2589,848.27022 1009.6768,840.58621 C 1012.143,827.22163 1005.2749,801.61368 1014.5516,792.23892 C 1020.6638,786.06221 1016.667,842.21969 1016.667,842.21969 C 1016.667,842.21969 1026.3993,848.11329 1017.5268,866.40385 C 1008.6544,884.69441 1014.0622,948.07165 994.56886,948.40667 z"
             style="fill:#ffffff;fill-opacity:0.27467813;fill-rule:evenodd;stroke:none;stroke-width:1px;stroke-linecap:butt;stroke-linejoin:miter;stroke-opacity:1" />
          <path
             sodipodi:nodetypes="cczc"
             id="path4823"
             d="M 1028.5113,674.5387 C 1150.93,765.17438 1218.5199,660.59514 1171.3684,567.39585 C 1171.225,566.39195 1279.0651,649.55945 1185.6541,720.96728 C 1092.5867,792.11249 1022.797,675.96728 1028.5113,674.5387 z"
             style="fill:#000000;fill-opacity:0.13304719;fill-rule:evenodd;stroke:none;stroke-width:1px;stroke-linecap:butt;stroke-linejoin:miter;stroke-opacity:1" />
          <path
             sodipodi:nodetypes="csss"
             id="path4825"
             d="M 1068.5113,649.53871 C 1078.847,649.73712 1098.4486,621.64413 1108.5113,618.82442 C 1119.8547,615.64585 1120.4356,571.80378 1089.9398,583.82442 C 1035.2055,605.39923 1061.3916,649.40204 1068.5113,649.53871 z"
             style="fill:#ffffff;fill-opacity:0.32618025;fill-rule:evenodd;stroke:none;stroke-width:1px;stroke-linecap:butt;stroke-linejoin:miter;stroke-opacity:1" />
          <path
             sodipodi:nodetypes="cssscsc"
             id="path4827"
             d="M 1249.5785,872.89421 C 1250.6939,878.12921 1246.118,919.37793 1237.4384,905.7295 C 1231.1857,895.89728 1230.623,836.59255 1226.6107,829.62605 C 1222.9448,823.26087 1215.3633,811.97211 1213.1601,804.47536 C 1209.3282,791.43659 1193.1125,765.10998 1197.159,752.55721 C 1225.1896,795.11784 1224.5706,815.60404 1231.1675,827.66978 C 1236.7226,837.83001 1247.6467,866.75632 1249.5785,872.89421 z"
             style="fill:#ffffff;fill-opacity:0.27467813;fill-rule:evenodd;stroke:none;stroke-width:1px;stroke-linecap:butt;stroke-linejoin:miter;stroke-opacity:1" />
          <path
             sodipodi:nodetypes="cssccsscssscssssssscc"
             id="path4829"
             d="M 990.30901,965.48728 C 990.30901,965.48728 1004.0363,965.34683 1019.6455,941.16312 C 1038.2856,912.28345 1021.1445,806.66178 1067.0827,759.5387 C 1072.099,754.39301 1070.9603,732.39584 1071.3684,732.39584 C 1116.4183,753.4007 1147.582,745.09006 1175.6541,730.25299 C 1176.6778,729.96051 1193.2047,762.48044 1192.797,767.39586 C 1189.9096,802.20315 1218.503,914.62862 1252.2981,935.00789 C 1262.5831,941.21003 1260.1552,950.72217 1260.1552,950.72217 C 1260.8074,957.89579 1238.1745,954.38241 1220.6962,945.32478 C 1204.7922,937.08299 1182.5612,803.82442 1182.0827,793.82442 C 1181.6571,784.92939 1215.3483,1080.2837 1222.2721,1145.2721 C 1223.898,1160.5329 1132.0775,1165.9359 1131.3684,1161.6816 C 1131.3684,1161.6816 1124.3186,1156.9701 1130.6627,1155.3024 C 1146.0604,1151.2547 1184.4644,1144.1762 1188.5113,1113.8244 C 1193.8384,1073.871 1181.5963,932.21403 1155.5759,929.29191 C 1154.168,929.1338 1153.9464,924.73155 1155.6541,924.53871 C 1157.2476,924.35877 1176.5954,763.13283 1150.6541,760.25299 C 1115.608,756.36238 1105.939,745.05933 1064.9398,800.96728 C 1064.0426,802.19079 1063.7307,790.39055 1062.5516,796.38849 C 1042.5888,897.93708 1044.0625,956.07308 1030.2967,971.29438 C 1014.5813,975.32403 1002.2761,970.82825 990.30901,965.48728 z"
             style="fill:#000000;fill-opacity:0.16309013;fill-rule:evenodd;stroke:none;stroke-width:1px;stroke-linecap:butt;stroke-linejoin:miter;stroke-opacity:1" />
          <path
             sodipodi:nodetypes="cssssscsc"
             id="path4831"
             d="M 1145.3354,1130.6535 C 1141.9689,1127.5351 1137.5878,1109.8519 1139.0542,1091.7798 C 1140.1702,1078.0259 1142.5129,1064.5671 1143.1237,1054.0896 C 1143.8049,1042.4041 1142.2483,1033.2219 1139.9307,1025.4014 C 1137.8436,1018.3589 1141.3826,1004.4794 1142.4514,996.73907 C 1144.3756,982.80438 1140.2656,962.389 1144.881,952.18635 C 1148.4625,944.2691 1150.6878,997.89401 1150.6878,997.89401 C 1150.6878,997.89401 1156.3617,1027.162 1150.6752,1046.6794 C 1144.9888,1066.1968 1164.4978,1127.061 1145.3354,1130.6535 z"
             style="fill:#ffffff;fill-opacity:0.27467813;fill-rule:evenodd;stroke:none;stroke-width:1px;stroke-linecap:butt;stroke-linejoin:miter;stroke-opacity:1" />
          <path
             sodipodi:nodetypes="cssssscssc"
             id="path4833"
             d="M 1054.9737,1125.9568 C 1051.6073,1122.8385 1045.7975,1105.1552 1047.264,1087.0832 C 1048.38,1073.3293 1056.9083,1037.386 1056.6906,1026.893 C 1056.4443,1015.022 1058.3793,982.10954 1059.569,974.99051 C 1060.7797,967.74565 1067.4814,938.78467 1067.4469,930.97101 C 1067.3838,916.70512 1066.9959,882.80293 1075.2336,873.20401 C 1080.8927,866.60975 1071.7547,928.91167 1071.7547,928.91167 C 1071.7547,928.91167 1076,961.3939 1070.3135,980.91132 C 1068.0517,988.67462 1060.7168,1008.1302 1061.6923,1034.5269 C 1063.1704,1074.5204 1066.9062,1123.7933 1054.9737,1125.9568 z"
             style="fill:#ffffff;fill-opacity:0.27467813;fill-rule:evenodd;stroke:none;stroke-width:1px;stroke-linecap:butt;stroke-linejoin:miter;stroke-opacity:1" />
          <path
             sodipodi:nodetypes="csscscc"
             id="path4835"
             d="M 1054.9398,1158.8244 C 1056.5649,1142.574 1097.8671,1155.2659 1096.3684,1080.253 C 1094.8557,1004.5403 1091.4062,928.557 1106.3684,935.96728 C 1122.0761,943.74677 1135.9383,936.2592 1136.3684,934.53871 C 1136.3684,934.53871 1128.1175,996.95856 1120.6541,998.82442 C 1117.797,999.53871 1122.0827,1160.9673 1122.0827,1160.9673 L 1054.9398,1158.8244 z"
             style="fill:#000000;fill-opacity:0.16309013;fill-rule:evenodd;stroke:none;stroke-width:1px;stroke-linecap:butt;stroke-linejoin:miter;stroke-opacity:1" />
        </g>
        <path
           style="fill:#ffffff;fill-opacity:0.37768244;fill-rule:evenodd;stroke:#000000;stroke-width:0.15000001;stroke-linecap:butt;stroke-linejoin:miter;stroke-miterlimit:4;stroke-dasharray:none;stroke-opacity:1"
           d="M 735.19978,853.74093 C 735.19978,853.74093 738.47638,853.83636 739.375,853.8354 C 739.38077,854.4148 739.6641,855.49547 738.52678,855.48719 C 737.38157,855.47885 737.80036,854.11534 737.80213,853.82233 C 737.68969,853.82243 736.87344,853.81439 736.7417,853.80544 C 736.73576,854.09863 737.00317,855.44062 735.91406,855.39271 C 734.82209,855.34468 735.06585,854.41365 735.19978,853.74093 z"
           id="path4936"
           sodipodi:nodetypes="cczcczc" />
      </g>
      <path
         transform="matrix(0.1681968,0,0,0.1681968,320.65994,811.56594)"
         sodipodi:open="true"
         sodipodi:end="6.3899587"
         sodipodi:start="0.10685966"
         d="M 380.91114,297.65536 A 90.714287,90.714287 0 1 1 380.91198,297.64758"
         sodipodi:ry="90.714287"
         sodipodi:rx="90.714287"
         sodipodi:cy="287.9801"
         sodipodi:cx="290.71429"
         id="path7576"
         style="opacity:0.98999999000000005;fill:none;fill-opacity:1;stroke:#09091c;stroke-width:5.94541636000000029;stroke-linecap:round;stroke-linejoin:round;stroke-miterlimit:4;stroke-dasharray:none;stroke-dashoffset:0;stroke-opacity:1"
         sodipodi:type="arc" />
    </g>
    <path
       style="fill:#000000;fill-rule:evenodd;stroke:none;stroke-width:1px;stroke-linecap:butt;stroke-linejoin:round;stroke-opacity:1;fill-opacity:1"
       d="M 371.88288,177.11354 L 447.85715,418.6944 L 374.61748,229.28613 L 371.88288,177.11354 z"
       id="path7580"
       transform="translate(-67.942854,430.23743)"
       sodipodi:nodetypes="cccc" />
    <path
       style="fill:#000000;fill-rule:evenodd;stroke:none;stroke-width:1px;stroke-linecap:butt;stroke-linejoin:round;stroke-opacity:1;fill-opacity:1"
       d="M 189.97154,354.83454 L 423.57143,437.26583 L 246.21193,362.30915 L 189.97154,354.83454 z"
       id="path7584"
       transform="translate(-67.942854,430.23743)"
       sodipodi:nodetypes="cccc" />
    <use
       x="0"
       y="0"
       xlink:href="#path7580"
       id="use3616"
       transform="translate(362.85715,0)"
       width="878.02856"
       height="478.6944" />
    <use
       x="0"
       y="0"
       xlink:href="#path7584"
       id="use3618"
       transform="translate(362.85715,0)"
       width="878.02856"
       height="478.6944" />
    <path
       sodipodi:type="arc"
       style="opacity:0.98999999;fill:none;fill-opacity:1;stroke:#000000;stroke-width:4.9000001;stroke-linecap:round;stroke-linejoin:round;stroke-miterlimit:4;stroke-dasharray:none;stroke-dashoffset:0;stroke-opacity:1"
       id="path3630"
       sodipodi:cx="290.71429"
       sodipodi:cy="287.9801"
       sodipodi:rx="90.714287"
       sodipodi:ry="90.714287"
       d="M 380.91114,297.65536 A 90.714287,90.714287 0 1 1 380.91198,297.64758"
       sodipodi:start="0.10685966"
       sodipodi:end="6.3899587"
       sodipodi:open="true"
       transform="matrix(1.5136481,0,0,1.5136481,93.446582,215.88843)" />
  </g>
</svg>
