<?xml version="1.0" encoding="UTF-8" standalone="no"?>
<!-- Created with Inkscape (http://www.inkscape.org/) -->
<svg xmlns="http://www.w3.org/2000/svg"
     xmlns:dc="http://purl.org/dc/elements/1.1/"
     xmlns:cc="http://web.resource.org/cc/"
     xmlns:rdf="http://www.w3.org/1999/02/22-rdf-syntax-ns#"
     xmlns:xlink="http://www.w3.org/1999/xlink"
     xmlns:sodipodi="http://sodipodi.sourceforge.net/DTD/sodipodi-0.dtd"
     xmlns:inkscape="http://www.inkscape.org/namespaces/inkscape"
     width="100%" height="100%" id="honir"
     sodipodi:version="0.32" inkscape:version="0.45.1"
     sodipodi:docname="honir_header.svg" inkscape:output_extension="org.inkscape.output.svg.inkscape"
     version="1.0" viewBox="0 0 770 200"
     onload="makestars('background', 'stars')">
  <defs>
    <style type="text/css">
      path { stroke-linejoin: round; }
      #ship { fill: black; stroke: black; }
      #bgnight { fill: #0d3250; stroke: none; }
      #starsbase path { stroke: none; }
      #background { fill: url(#nightsky); fill-opacity: 1; stroke: black; stroke-width: 2.5; filter:url(#blur); } 
      #stars { fill-opacity: .5; }
      text { font-size: 64px; font-family: Georgia; fill: #0a0a0a; stroke: white; stroke-width: 1.3; text-anchor: end; }
      #textshadow { fill: url(#linearGradient3914); filter: url(#textblur); stroke: none; }
      #star { stroke: black; stroke-width: 1px; }
    </style>
    <script xlink:href="starfield.js" type="text/ecmascript" />
    <linearGradient id="nightsky"
                    x1="25%" y1="25%" x2="-10%" y2="100%"
                    gradientUnits="userSpaceOnUse">
      <stop style="stop-color: #0d3250; stop-opacity: 1.0" offset="0.000" />
      <stop style="stop-color: #284c6b; stop-opacity: 0.7" offset="0.637" />
      <stop style="stop-color: #08365b; stop-opacity: 0.5" offset="0.9" />
      <stop style="stop-color: #9fbed6; stop-opacity: 0.9" offset="1.000" />
    </linearGradient>
    <linearGradient id="linearGradient6821">
      <stop style="stop-color:#000000;stop-opacity:0.53608245;" offset="0"/>
      <stop style="stop-color:#000000;stop-opacity:0.12371134;" offset="1"/>
    </linearGradient>
    <linearGradient id="linearGradient26628">
      <stop style="stop-color:#ffffff;" offset="0"/>
      <stop style="stop-color:#fffe7c;" offset="1"/>
    </linearGradient>
    <filter id="blur"><feGaussianBlur stdDeviation="0.7" /></filter>
    <filter id="textblur"><feGaussianBlur stdDeviation="1.8"/></filter>
    <radialGradient inkscape:collect="always" xlink:href="#linearGradient26628" id="radialGradient26665" gradientUnits="userSpaceOnUse" gradientTransform="matrix(1.1531545,-0.8602038,0.4700814,0.6301722,-340.06603,404.17481)" cx="184.71262" cy="663.23926" fx="184.71262" fy="663.23926" r="84.377434"/>
    <linearGradient inkscape:collect="always" xlink:href="#linearGradient6821" id="linearGradient6827" x1="858.0022" y1="506.57648" x2="571.78345" y2="407.57648" gradientUnits="userSpaceOnUse"/>
    <linearGradient inkscape:collect="always" xlink:href="#linearGradient6821" id="linearGradient3914" gradientUnits="userSpaceOnUse" x1="858.0022" y1="506.57648" x2="571.78345" y2="407.57648"/>
  </defs>
  <metadata id="metadata7">
    <rdf:RDF>
      <cc:Work rdf:about="">
        <dc:format>image/svg+xml</dc:format>
        <dc:type rdf:resource="http://purl.org/dc/dcmitype/StillImage"/>
        <dc:title>Hoenir Blog Header</dc:title>
        <dc:date>2008/03/26</dc:date>
        <dc:creator><cc:Agent><dc:title>Will Holcomb</dc:title></cc:Agent></dc:creator>
        <cc:license rdf:resource="http://creativecommons.org/licenses/by-nc-sa/2.5/"/>
      </cc:Work>
      <cc:License rdf:about="http://creativecommons.org/licenses/by-nc-sa/2.5/">
        <cc:permits rdf:resource="http://web.resource.org/cc/Reproduction"/>
        <cc:permits rdf:resource="http://web.resource.org/cc/Distribution"/>
        <cc:requires rdf:resource="http://web.resource.org/cc/Notice"/>
        <cc:requires rdf:resource="http://web.resource.org/cc/Attribution"/>
        <cc:prohibits rdf:resource="http://web.resource.org/cc/CommercialUse"/>
        <cc:permits rdf:resource="http://web.resource.org/cc/DerivativeWorks"/>
        <cc:requires rdf:resource="http://web.resource.org/cc/ShareAlike"/>
      </cc:License>
    </rdf:RDF>
  </metadata>
  <g inkscape:label="Header" id="header" inkscape:groupmode="layer" transform="translate(-70.178574,-265.39789)">
    <rect id="background" width="765" y="266.64789" x="71.428574" height="200" rx="15" ry="21"/>
    <g id="stars" />
    <g id="text" transform="translate(-8.4852813,-25.455844)">
      <text id="textshadow" x="830" y="480">10 Years</text>
      <text x="825" y="475">10 Years</text>
    </g>
    <g id="ship" transform="matrix(-0.6084064,0,0,0.6084064,330.30862,270.47701)">
      <path d="M 154.628,51.829 C 155.054,56.172 149.581,57.515 146.853,59.604 C 136.235,67.728 126.675,79.279 119.211,90.701 C 118.936,83.508 128.91,79.098 130.44,70.834 C 137.168,64.029 145.561,58.888 152.035,51.83 C 152.899,51.829 153.763,51.829 154.628,51.829 z"/>
      <path d="M 209.912,57.012 C 205.528,62.704 198.005,65.262 192.637,69.968 C 195.332,62.587 202.514,59.691 209.912,57.012 z"/>
      <path d="M 150.308,69.105 C 150.449,68.092 151.883,68.376 152.899,68.242 C 152.761,69.254 151.325,68.971 150.308,69.105 z"/>
      <path d="M 221.141,70.833 C 219.639,74.514 216.049,76.105 212.503,77.742 C 215.164,75.222 216.372,71.247 221.141,70.833 z"/>
      <path d="M 140.807,76.017 C 141.073,74.845 142.97,75.299 144.262,75.152 C 143.995,76.323 142.099,75.87 140.807,76.017 z"/>
      <path d="M 207.32,81.2 C 210.198,80.607 207.246,84.77 207.32,84.655 C 205.176,87.95 199.098,92.261 197.818,95.884 C 197.289,90.735 204.164,85.539 207.32,81.2 z"/>
      <path d="M 197.817,82.063 C 199.109,83.363 202.742,82.321 202.137,85.518 C 200.085,84.978 198.116,84.356 197.817,82.063 z"/>
      <path d="M 127.849,85.518 C 129.582,85.224 130.551,85.695 130.441,87.246 C 129.578,87.246 128.712,87.246 127.849,87.246 C 127.849,86.67 127.849,86.093 127.849,85.518 z"/>
      <path d="M 181.407,86.38 C 181.513,84.473 185.071,86.014 186.588,85.517 C 186.481,87.425 182.924,85.884 181.407,86.38 z"/>
      <path d="M 92.433,88.972 C 92.541,87.065 96.097,88.605 97.616,88.109 C 97.507,90.017 93.952,88.476 92.433,88.972 z"/>
      <path d="M 116.62,91.564 C 118.602,92.242 117.46,96.911 114.891,95.884 C 115.262,94.238 116.752,93.714 116.62,91.564 z"/>
      <path d="M 122.666,91.564 C 122.289,92.627 121.56,93.339 120.074,93.292 C 119.671,91.449 121.309,91.647 122.666,91.564 z"/>
      <path d="M 93.295,95.021 C 92.423,96.451 89.628,95.959 88.114,96.747 C 87.296,93.626 91.516,95.542 93.295,95.021 z"/>
      <path d="M 173.632,95.884 C 174.003,93.953 177.888,95.534 179.678,95.021 C 179.305,96.952 175.42,95.37 173.632,95.884 z"/>
      <path d="M 113.165,98.475 C 115.313,98.605 113.416,101.399 113.165,101.93 C 111.017,101.8 112.912,99.006 113.165,98.475 z"/>
      <path d="M 89.841,101.067 C 88.364,102.469 86.697,103.682 83.795,103.658 C 84.449,101.434 86.552,100.656 89.841,101.067 z"/>
      <path d="M 169.312,103.658 C 172.044,103.515 172.2,105.953 175.358,105.385 C 174.261,107.256 168.722,106.331 169.312,103.658 z"/>
      <path d="M 166.721,108.841 C 169.059,106.561 171.183,111.823 175.359,110.568 C 172.895,112.974 168.43,110.054 166.721,108.841 z"/>
      <path d="M 84.658,113.159 C 83.181,114.561 81.514,115.774 78.612,115.751 C 79.398,113.658 82.083,113.464 84.658,113.159 z"/>
      <path d="M 77.749,125.254 C 77.962,124.167 79.467,124.382 79.475,125.254 C 78.708,125.785 77.93,126.296 77.749,125.254 z"/>
      <path d="M 80.34,130.437 C 79.626,132.601 77.314,133.169 76.02,134.755 C 73.748,132.982 78.081,130.54 80.34,130.437 z"/>
      <path d="M 140.807,152.896 C 143.599,151.074 149.003,156.423 152.899,153.759 C 151.54,159.464 144.072,153.41 140.807,152.896 z"/>
      <path d="M 100.207,158.942 C 100.339,161.459 96.704,161.566 95.887,160.671 C 96.62,159.386 98.668,159.419 100.207,158.942 z"/>
      <path d="M 144.262,161.534 C 146.052,160.364 151.911,162.489 152.9,164.989 C 149.604,164.253 147.405,162.42 144.262,161.534 z"/>
      <path d="M 103.662,164.125 C 101.273,165.19 99.037,166.41 95.887,166.716 C 96.251,163.626 100.367,164.285 103.662,164.125 z"/>
      <path d="M 171.904,183.129 C 176.65,181.855 182.046,187.37 188.316,187.447 C 184.452,190.838 176.695,184.44 171.904,183.129 z"/>
      <path d="M 101.936,183.129 C 101.727,184.649 100.448,185.099 98.479,184.856 C 99.048,183.697 100.327,183.247 101.936,183.129 z"/>
      <path d="M 183.133,190.904 C 181.096,193.681 179.642,187.865 183.133,190.904 L 183.133,190.904 z"/>
      <path d="M 168.449,193.494 C 174.813,193.763 183.103,199.566 190.045,202.134 C 183.321,202.225 174.907,196.545 168.449,193.494 z"/>
      <path d="M 55.29,225.456 C 58.259,225.079 60.13,225.797 62.199,226.319 C 62.206,230.752 60.935,231.988 62.199,235.822 C 57.717,235.594 59.91,229.501 54.425,232.367 C 53.761,229.111 55.479,228.237 55.29,225.456 z"/>
      <path d="M 29.374,229.776 C 29.868,226.31 28.643,234.884 29.374,229.776 L 29.374,229.776 z"/>
      <path d="M 163.266,231.501 C 166.702,239.967 154.878,246.483 158.946,253.097 C 156.28,252.956 154.063,255.139 152.036,253.097 C 157.931,248.051 160.962,240.14 163.266,231.501 z"/>
      <path d="M 50.97,240.14 C 51.464,236.674 50.239,245.25 50.97,240.14 L 50.97,240.14 z"/>
      <path d="M 103.662,255.689 C 106.091,255.851 107.342,257.192 107.117,260.009 C 106.349,260.39 105.574,260.768 105.39,261.736 C 101.49,261.846 101.271,257.341 103.662,255.689 z"/>
      <path d="M 183.133,266.918 C 181.324,268.643 180.857,270.663 183.999,271.238 C 182.733,273.544 179.259,270.876 179.679,268.646 C 181.394,268.636 180.776,266.29 183.133,266.918 z"/>
      <path d="M 196.954,266.918 C 195.213,270.036 197.041,271.1 197.817,273.829 C 195.061,274.569 195.146,272.47 193.499,272.101 C 193.154,268.877 194.19,267.034 196.954,266.918 z"/>
      <path d="M 249.646,272.102 C 250.749,272.297 250.78,274.68 249.646,274.693 C 250.623,275.733 252.112,276.259 251.375,279.013 C 249.475,277.747 247.33,276.724 247.921,272.964 C 248.924,273.105 249.457,272.775 249.646,272.102 z"/>
      <path d="M 394.768,285.922 C 386.792,288.954 389.199,284.128 394.768,285.922 L 394.768,285.922 z"/>
      <path d="M 397.359,285.922 C 397.732,283.991 401.618,285.572 403.406,285.059 C 403.39,287.57 398.525,287.101 397.359,285.922 z"/>
      <path d="M 351.577,286.786 C 353.906,284.798 359.91,286.481 363.672,285.923 C 365.688,285.923 367.701,285.923 369.718,285.923 C 364.417,287.519 357.41,288.071 351.577,286.786 z"/>
      <path d="M 374.901,286.786 C 374.755,284.915 377.965,286.396 379.22,285.923 C 379.366,287.796 376.156,286.315 374.901,286.786 z"/>
      <path d="M 391.313,291.106 C 384.357,295.187 372.2,290.27 361.943,291.969 C 368.232,288.557 383.585,290.277 391.313,291.106 z"/>
      <path d="M 335.166,292.834 C 332.775,296.201 323.981,293.166 320.48,295.425 C 320.857,296.487 321.585,297.198 323.071,297.152 C 321.061,299.661 318.417,295.53 315.297,296.289 C 318.807,292.48 329.968,292.118 335.166,292.834 z"/>
      <path d="M 28.511,293.698 C 26.57,296.424 19.317,293.572 13.824,294.56 C 13.73,292.71 24.338,294.154 28.511,293.698 z"/>
      <path d="M 379.22,294.56 C 379.326,292.653 382.884,294.194 384.401,293.698 C 384.294,295.605 380.738,294.064 379.22,294.56 z"/>
      <path d="M 35.42,298.88 C 32.04,299.901 27.801,296.783 21.599,298.017 C 20.742,297.184 34.843,295.479 35.42,298.88 z"/>
      <path d="M 299.75,299.744 C 299.889,298.731 301.322,299.015 302.341,298.881 C 302.2,299.893 300.766,299.609 299.75,299.744 z"/>
      <path d="M 321.342,300.607 C 333.752,298.621 349.828,300.3 363.671,299.744 C 365.214,299.501 365.443,300.56 364.533,300.607 C 350.439,300.912 337.084,301.95 322.207,301.472 C 320.665,301.715 320.435,300.656 321.342,300.607 z"/>
      <path d="M 40.603,300.607 C 34.538,303.718 30.26,301.577 19.873,302.336 C 17.528,301.801 13.017,303.434 12.098,301.473 C 14.977,301.473 17.857,301.473 20.736,301.473 C 26.181,300.005 33.883,300.798 40.603,300.607 z"/>
      <path d="M 93.295,303.199 C 99.196,301.332 105.746,307.945 113.165,304.928 C 108.643,309.416 96.234,304.465 88.977,305.79 C 88.916,303.92 97.046,305.907 93.295,303.199 z"/>
      <path d="M 381.812,304.064 C 378.34,306.063 371.168,304.362 366.262,304.927 C 370.312,302.31 376.493,303.509 381.812,304.064 z"/>
      <path d="M 15.553,305.79 C 20.457,303.785 29.08,305.496 35.42,304.928 C 30.516,306.932 21.896,305.223 15.553,305.79 z"/>
      <path d="M 123.529,304.927 C 124.409,305.487 124.424,306.913 126.12,306.655 C 126.014,308.563 122.456,307.022 120.939,307.518 C 121.078,306.506 122.512,306.789 123.529,306.655 C 123.529,306.08 123.529,305.502 123.529,304.927 z"/>
      <path d="M 183.133,306.655 C 190.094,306.73 173.713,308.068 183.133,306.655 L 183.133,306.655 z"/>
      <path d="M 152.899,307.518 C 153.008,305.611 156.563,307.152 158.082,306.655 C 157.976,308.563 154.419,307.022 152.899,307.518 z"/>
      <path d="M 165.857,307.518 C 165.996,306.506 167.432,306.789 168.448,306.655 C 168.308,307.667 166.874,307.384 165.857,307.518 z"/>
      <path d="M 285.063,307.518 C 282.361,308.846 278.377,308.893 274.699,309.247 C 276.813,305.986 281.011,307.071 285.063,307.518 z"/>
      <path d="M 395.633,307.518 C 389.285,309.396 381.983,309.281 374.901,308.381 C 376.825,306.496 389.593,306.11 395.633,307.518 z"/>
      <path d="M 91.569,308.381 C 91.708,307.368 93.144,307.652 94.16,307.518 C 94.02,308.531 92.586,308.248 91.569,308.381 z"/>
      <path d="M 103.662,308.381 C 103.803,307.368 105.237,307.652 106.253,307.518 C 106.115,308.531 104.679,308.248 103.662,308.381 z"/>
      <path d="M 188.316,308.381 C 188.457,307.368 189.891,307.652 190.908,307.518 C 190.767,308.531 189.333,308.248 188.316,308.381 z"/>
      <path d="M 183.999,308.381 C 185.06,308.758 185.772,309.487 185.725,310.973 C 184.329,311.216 184.237,310.157 183.133,310.11 C 183.297,309.411 184,309.249 183.999,308.381 z"/>
      <path d="M 267.788,309.247 C 268.161,307.314 272.044,308.897 273.834,308.382 C 273.375,311.335 269.671,309.705 267.788,309.247 z"/>
      <path d="M 353.305,309.247 C 355.065,307.266 360.478,308.934 363.671,308.382 C 361.911,310.364 356.498,308.695 353.305,309.247 z"/>
      <path d="M 100.207,309.247 C 94.022,311.828 90.291,308.282 100.207,309.247 L 100.207,309.247 z"/>
      <path d="M 235.826,309.247 C 239.008,310.383 242.514,311.199 247.055,310.974 C 245.497,314.172 236.493,312.42 235.826,309.247 z"/>
      <path d="M 297.158,309.247 C 295.261,311.885 291.625,308.25 297.158,309.247 L 297.158,309.247 z"/>
      <path d="M 87.25,310.973 C 87.358,309.066 90.916,310.607 92.433,310.11 C 92.326,312.017 88.769,310.476 87.25,310.973 z"/>
      <path d="M 285.928,310.973 C 293.286,308.073 292.113,312.712 285.928,310.973 L 285.928,310.973 z"/>
      <path d="M 116.62,310.973 C 117.355,310.815 117.434,311.31 117.483,311.838 C 120.456,313.411 125.399,312.554 130.441,312.701 C 134.347,312.816 140.377,311.214 141.67,314.43 C 133.591,313.92 128.28,316.866 119.212,315.293 C 117.545,315.003 116.435,313.588 114.892,313.564 C 107.774,313.458 100.767,317.308 93.296,315.293 C 89.824,316.859 92.813,319.825 86.387,318.747 C 86.637,317.739 91.286,316.254 87.25,316.155 C 94.053,312.245 105.237,313.438 115.757,312.701 C 116.594,312.642 116.428,311.672 116.62,310.973 z"/>
      <path d="M 219.413,312.702 C 219.554,311.689 220.988,311.973 222.005,311.839 C 221.866,312.851 220.429,312.567 219.413,312.702 z"/>
      <path d="M 295.429,312.702 C 295.284,310.828 298.493,312.309 299.749,311.839 C 299.894,313.711 296.684,312.228 295.429,312.702 z"/>
      <path d="M 157.22,314.43 C 152.798,313.749 150.943,315.64 146.853,315.293 C 148.3,313.799 155.708,310.234 157.22,314.43 z"/>
      <path d="M 163.266,312.702 C 162.571,314.535 159.709,316.069 158.083,314.431 C 158.179,312.222 160.975,312.714 163.266,312.702 z"/>
      <path d="M 259.15,313.565 C 259.256,311.657 262.813,313.198 264.333,312.702 C 264.224,314.609 260.667,313.068 259.15,313.565 z"/>
      <path d="M 191.771,317.884 C 195.869,315.374 207.804,314.587 215.095,315.293 C 222.313,315.991 213.978,316.216 214.232,316.155 C 210.336,317.082 200.477,318.228 191.771,317.884 z"/>
      <path d="M 287.655,249.643 C 285.928,247.626 281.608,248.205 279.88,246.188 C 281.221,243.219 289.307,246.959 291.975,246.188 C 291.443,244.129 288.211,244.769 289.384,241.005 C 290.769,239.509 291.998,237.861 295.43,238.413 C 296.464,232.218 296.493,228.249 296.293,224.592 C 301.34,225.266 297.495,228.912 297.158,231.501 C 296.653,235.385 296.826,240.144 295.429,245.322 C 295.642,246.409 297.147,246.194 297.158,245.322 C 298.46,246.964 292.926,249.116 294.566,253.962 C 297.507,253.187 301.41,245.037 299.75,245.322 C 297.733,243.249 304.26,242.389 304.933,240.139 C 303.965,237.074 301.212,235.797 302.341,230.638 C 305.068,231.06 305.391,229.081 308.388,229.775 C 309.577,228.66 309.242,226.022 309.251,223.728 C 312.972,225.743 304.999,238.95 310.98,241.004 C 310.836,239.484 312.188,237.943 314.434,236.684 C 313.746,234.027 312.7,233.917 310.115,234.957 C 314.488,232.56 316.318,225.486 323.072,228.046 C 321.826,227.251 319.737,219.885 318.755,215.953 C 321.933,214.606 321.801,208.018 323.936,208.179 C 322.043,204.257 319.251,196.146 314.435,200.404 C 312.093,198.884 311.927,193.12 315.298,192.63 C 318.981,193.555 317.834,199.31 323.072,198.677 C 325.174,197.971 321.361,194.122 323.935,192.63 C 326.578,192.004 326.478,194.12 329.119,193.493 C 328.791,198.419 326.9,197.971 329.119,202.133 C 326.646,205.303 324.824,213.292 329.119,215.954 C 326.973,219.696 325.941,223.638 327.392,228.91 C 330.698,228.185 328.556,222.011 333.439,222.863 C 333.462,223.703 334.496,223.535 335.167,223.728 C 335.442,227.17 335.214,230.109 333.439,231.5 C 335.103,233.25 336.915,233.51 339.485,232.365 C 342.859,235.038 338.995,244.95 343.804,246.186 C 344.211,248.897 341.48,248.466 341.213,250.504 C 343.536,260.482 341.786,276.421 345.53,285.057 C 345.977,286.089 346.583,286.854 348.122,286.784 C 343.77,289.668 350.294,292.828 350.714,296.287 C 343.212,297.851 344.944,293.572 340.348,293.696 C 341.051,292.184 340.056,290.935 339.485,289.376 C 339.21,288.628 337.675,286.245 337.758,286.784 C 337.643,286.049 339.395,286.013 339.485,285.057 C 340.303,276.401 336.821,262.554 336.893,252.233 C 334.642,259.53 330.599,266.509 330.847,273.828 C 329.023,274.596 328.293,276.459 325.663,276.42 C 320.184,289.655 304.858,293.048 294.566,301.471 C 277.864,300.633 264.203,304.553 250.511,305.788 C 249.725,304.271 247.483,304.209 246.192,303.197 C 237.273,303.094 229.995,306.341 222.87,305.788 C 214.481,305.141 202.014,298.419 190.908,304.926 C 179.297,305.28 169.159,303.649 160.675,303.197 C 159.29,301.703 157.446,300.667 155.492,299.742 C 147.3,300.699 140.294,302.941 132.17,302.334 C 128.05,302.027 124.92,300.299 120.941,300.605 C 118.475,300.796 116.496,302.332 114.03,302.334 C 106.869,302.342 98.898,299.306 91.571,298.879 C 87.767,298.657 84.067,299.699 80.342,299.742 C 81.196,302.63 87.102,300.469 88.98,302.334 C 89.392,301.66 81.014,305.692 85.525,304.063 C 82.038,305.322 80.687,305.516 75.159,306.654 C 74.541,308.999 79.232,306.036 78.614,308.381 C 77.996,312.658 68.257,307.815 67.385,311.838 C 72.805,312.601 80.164,312.431 86.389,314.43 C 75.835,318.098 60.356,310.479 49.244,313.565 C 48.143104,312.89965 45.991715,306.43356 46.651,305.79 C 46.385,304.618 44.49,305.074 43.196,304.928 C 54.048,302.203 65.09,306.873 76.021,303.199 C 73.274,300.04 68.295,305.245 66.52,303.199 C 63.781,299.445 70.576,297.668 72.566,298.881 C 71.997,300.04 70.72,300.49 69.111,300.608 C 72.014,303.176 76.653,300.127 79.475,299.745 C 77.727,297.175 71.839,298.745 70.837,295.427 C 64.803,295.153 62.478,298.584 57.881,299.745 C 53.082,298.498 51.029,294.502 47.515,291.971 C 46.846,294.179 50.895,295.944 48.378,297.154 C 44.293,295.196 41.793,291.647 39.74,287.653 C 34.77,287.728 29.763,287.839 25.919,286.788 C 27.592,283.101 33.786,286.75 37.148,286.788 C 33.295,275.951 21.895,269.05 20.735,258.283 C 17.796,261.003 21.88,263.999 22.464,266.057 C 20.286,264.491 17.618,263.416 17.281,260.011 C 11.471,258.719 10.165,254.418 6.052,247.053 C 3.978,243.343 0.119,238.662 0.004,233.232 C -0.19,224.017 8.105,214.91 6.916,201.27 C 6.696,198.757 4.565,196.349 4.324,194.361 C 3.152,184.662 11.675,182.126 12.962,175.357 C 12.798,174.658 12.094,174.496 12.099,173.628 C 8.817,171.733 8.821,175.36 5.187,175.357 C 4.077,173.119 3.401,172.642 0.869,173.628 C 0.287,169.304 1.668,166.942 1.732,163.262 C 4.965,161.026 9.56,160.148 13.824,158.944 C 13.824,156.065 13.824,153.185 13.824,150.306 C 18.683,150.343 17.362,156.559 20.736,158.081 C 23.038,156.638 20.257,150.115 22.465,148.578 C 27.416,151.977 25.92,161.824 30.237,165.853 C 29.871,180.746 20.474,186.613 17.281,198.679 C 21.126,199.103 23.455,194.945 25.919,192.632 C 40.398,179.035 56.897,164.106 71.7,149.441 C 68.765,94.1 90.751,63.683 126.986,47.511 C 126.634,45.847 123.636,46.829 124.395,44.056 C 140.818,44.293 159.976,48.966 175.359,44.056 C 176.186,47.186 171.631,44.934 171.041,46.647 C 171.836,48.156 173.741,48.553 176.224,48.375 C 158.75,50.686 140.848,44.499 125.258,50.102 C 120.742,51.725 115.075,55.56 109.709,59.605 C 102.237,65.238 97.546,69.654 91.57,77.744 C 85.992,85.297 81.999,90.563 78.612,100.203 C 73.989,113.357 72.996,129.26 73.429,147.714 C 77.159,145.685 79.207,141.972 82.932,139.939 C 80.933,138.56 77.521,143.134 76.02,145.123 C 76.623,139.758 83.106,137.828 87.249,134.756 C 96.767,127.697 105.799,117.757 114.028,109.706 C 113.889,108.694 112.453,108.977 111.436,108.843 C 112.919,106.297 118.256,107.601 120.074,105.386 C 120.392,103.918 119.401,103.758 118.348,103.659 C 120.984,103.101 136.685,92.259 129.577,91.565 C 129.43,89.691 132.639,91.175 133.895,90.702 C 135.525,89.453 137.725,88.773 137.35,85.519 C 139.827,87.364 142.169,83.302 144.262,82.064 C 143.612,79.259 135.818,83.596 136.487,79.472 C 141.289,79.378 146.964,80.158 149.445,77.743 C 149.762,76.275 148.772,76.115 147.716,76.017 C 151.16,75.118 157.211,72.296 155.491,69.105 C 167.349,62.534 174.99,51.747 184.861,43.19 C 181.605,42.526 180.731,44.244 177.949,44.054 C 180.204,41.688 192.128,41.541 193.499,35.416 C 191.116,33.192 186.065,33.636 183.132,31.96 C 184.059,29.72 185.232,27.724 184.861,24.186 C 189.017,23.734 192.233,22.345 196.09,21.595 C 195.485,17.822 197.558,16.729 196.953,12.956 C 189.694,9.927 179.892,8.554 171.903,8.637 C 174.599,3.327 179.513,4.534 185.724,4.318 C 188.752,4.213 191.327,1.548 194.362,0.862 C 197.438,0.169 200.53,1.993 203,-2.6323388e-013 C 203.313,5.351 199.965,14.134 200.408,22.459 C 202.836,25.215 207.181,26.053 209.911,28.506 C 210.288,31.475 209.57,33.347 209.048,35.416 C 206.951,37.052 203.824,33.669 201.274,35.416 C 201.423,42.398 203.25,41.708 209.912,44.918 C 215.298,47.513 224.008,53.095 230.642,55.283 C 235.401,56.852 242.488,56.922 246.192,57.875 C 264.469,62.574 275.632,72.698 287.655,77.742 C 282.508,81.376 275.886,76.849 270.379,76.016 C 264.12,75.067 255.523,72.312 248.783,73.424 C 242.436,74.47 236.295,80.135 231.508,83.788 C 225.976,88.01 220.982,92.475 217.688,97.611 C 228.61,146.002 241.627,192.299 253.104,240.139 C 249.423,236.869 248.886,229.285 247.056,221.999 C 237.401,183.589 225.805,140.992 216.822,101.065 C 211.055,105.088 216.007,110.862 216.822,114.886 C 220.066,130.853 222.963,147.558 226.326,164.124 C 231.018,187.235 237.472,207.505 241.01,232.365 C 250.258,242.41 263.002,248.957 274.7,256.551 C 278.689,253.92 284.567,253.176 287.655,249.643 z M 277.291,258.281 C 281.56,260.495 287.12,257.407 288.52,253.963 C 285.579,250.278 279.622,255.876 277.291,258.281 z M 63.927,309.247 C 61.466,310.219 55.677,308.178 54.424,310.974 C 61.325,311.412 63.484,311.592 69.11,310.111 C 66.802,304.468 63.552,309.394 63.927,309.247 z M 133.032,128.709 C 132.61,123.66 124.912,125.887 122.666,122.663 C 125.744,122.104 130.658,125.815 133.032,121.798 C 130.095,118.401 121.766,120.393 118.348,117.48 C 124.818,116.301 131.261,121.54 134.758,115.751 C 133.814,113.682 124.149,114.775 120.074,113.159 C 124.972,111.655 131.611,112.19 135.624,114.022 C 137.109,108.217 131.423,109.585 128.712,107.976 C 131.591,107.976 134.47,107.976 137.35,107.976 C 137.725,103.641 139.53,103.226 140.807,101.067 C 141.693,99.565 143.036,96.93 143.398,95.884 C 145.007,91.21 143.701,92.881 146.853,88.972 C 149.404,85.809 148.901,83.806 149.445,80.334 C 145.161,82.868 135.745,88.514 140.807,92.429 C 136.642,89.931 130.379,94.583 133.895,96.746 C 129.387,96.303 125.347,99.847 126.985,102.792 C 123.693,102.956 121.301,104.02 120.939,107.112 C 122.192,107.585 125.402,106.102 125.257,107.975 C 122.111,107.709 119.635,108.114 117.483,108.84 C 115.74,113.231 112.069,113.237 109.708,118.341 C 103.447,120.735 98.498,127.126 90.706,134.754 C 85.287,140.057 75.297,146.429 74.291,151.167 C 73.746,153.742 74.903,156.581 76.02,158.942 C 79.464,155.187 82.584,151.109 87.249,148.576 C 87.784,146.232 86.153,141.72 88.114,140.801 C 87.86,154.588 90.533,165.448 93.295,176.218 C 96.415,176.977 99.06,172.846 101.07,175.355 C 97.522,175.548 95.727,177.497 94.16,179.672 C 96.398,183.769 96.946,189.557 100.206,192.63 C 104.019,190.109 109.379,189.135 113.164,186.584 C 110.193,180.308 106.491,169.971 105.389,160.67 C 104.771,155.455 104.539,149.031 106.252,145.121 C 105.316,152.391 107.633,156.41 107.981,162.396 C 109.518,162.874 111.568,162.839 112.299,164.125 C 110.296,163.848 108.983,164.264 107.981,164.988 C 109.449,171.582 121.585,167.509 126.12,171.034 C 121.727,171.85 116.819,169.127 109.707,170.171 C 110.027,175.034 118.196,172.049 120.938,174.491 C 118.834,176.814 114.042,174.525 111.435,174.491 C 111.559,178.685 112.797,181.767 114.027,184.855 C 120.572,185.509 128.702,184.578 133.031,187.447 C 129.975,188.208 128.581,185.228 127.848,188.312 C 130.114,188.74 138.723,190.715 137.349,189.175 C 135.742,189.055 134.463,188.606 133.894,187.446 C 135.414,186.949 138.971,188.49 139.077,186.583 C 131.098,182.947 121.944,183.541 114.027,181.399 C 121.706,178.915 129.625,183.643 137.349,183.991 C 133.342,177.634 120.393,180.217 113.164,177.08 C 121.655,176.939 127.388,179.557 135.623,179.671 C 134.035,176.078 128.108,176.819 125.256,174.49 C 129.028,173.883 130.122,175.959 133.894,175.353 C 134.663,170.839 127.362,174.4 127.848,170.169 C 130.574,168.899 132.999,174.136 133.031,170.169 C 129.027,166.399 121.497,166.154 115.755,164.123 C 122.705,163.507 126.162,166.384 132.168,166.714 C 131.145,159.385 119.093,163.087 114.89,158.94 C 122.281,159.803 124.525,160.592 131.303,161.531 C 129.095,154.238 116.532,157.299 109.707,154.62 C 116.022,150.886 128.276,160.615 131.303,154.62 C 126.31,150.112 114.241,152.681 109.707,147.71 C 116.781,149.274 124.673,150.02 131.303,152.028 C 129.061,144.194 115.234,147.943 109.707,143.39 C 117.235,144.215 123.933,145.867 131.303,146.845 C 129.266,139.769 114.501,140.82 106.253,139.935 C 105.869,141.568 107.427,145.142 104.524,144.255 C 104.56,135.472 104.993,133.332 106.253,124.385 C 113.881,127.127 123.778,127.596 133.032,128.709 z M 122.666,128.709 C 119.252,127.848 108.877,125.096 107.117,128.709 C 114.983,130.42 125.703,133.632 132.169,133.892 C 131.86,130.29 126.592,129.698 122.666,128.709 z M 118.348,132.164 C 114.522,131.396 106.912,128.471 106.253,133.027 C 107.099,135.062 111.238,133.802 112.299,135.618 C 109.669,135.868 106.404,135.482 106.253,138.21 C 116.074,136.394 124.989,143.923 131.303,139.938 C 126.342,137.99 119.351,138.069 114.89,135.618 C 121.759,135.085 125.563,137.615 131.303,138.21 C 131.338,133.728 123.314,133.161 118.348,132.164 z M 197.817,6.911 C 197.942,5.89 199.356,4.952 197.817,4.319 C 197.693,5.34 196.281,6.277 197.817,6.911 z M 195.228,32.825 C 198.274,32.703 197.687,28.95 198.683,26.778 C 194.961,26.225 195.547,29.978 195.228,32.825 z M 193.5,25.915 C 192.001,28.337 191.236,26.727 188.316,26.778 C 188.316,28.507 188.316,30.234 188.316,31.961 C 190.957,31.337 191.464,32.844 193.5,32.825 C 194.151,30.944 196.896,26.746 193.5,25.915 z M 202.137,29.369 C 204.21,27.295 199.303,27.132 199.545,28.506 C 199.535,28.445 202.469,29.038 202.137,29.369 z M 198.683,31.098 C 197.951,36.207 199.177,27.632 198.683,31.098 L 198.683,31.098 z M 201.274,41.463 C 201.024,38.833 201.41,35.567 198.683,35.417 C 198.488,38.49 199.264,40.592 201.274,41.463 z M 189.179,41.463 C 187.798,44.689 183.806,45.303 183.133,49.238 C 186.607,48.643 188.065,50.065 190.908,50.101 C 192.025,48.524 195.784,41.697 191.771,40.6 C 189.87,41.579 191.711,46.298 189.179,46.646 C 188.943,45.132 191.613,42.335 189.179,41.463 z M 203,50.101 C 202.899,47.034 203.624,43.143 200.408,43.191 C 200.494,46.273 200.813,49.123 203,50.101 z M 199.545,46.646 C 199.782,45.47 199.01,43.273 198.682,44.918 C 198.448,46.094 199.217,48.291 199.545,46.646 z M 205.592,50.965 C 210.946,50.24 216.542,53.809 220.278,51.829 C 214.714,49.618 210.176,46.382 203.866,44.918 C 203.778,47.597 204.92,49.045 205.592,50.965 z M 161.537,189.176 C 152.258,189.16 145.287,182.498 139.079,182.264 C 137.764,186.746 143.026,184.654 143.399,187.448 C 142.295,187.401 142.201,186.342 140.808,186.585 C 141.43,191.596 145.151,194.572 150.309,192.631 C 147.461,194.498 153.627,196.602 153.764,195.223 C 152.796,195.039 152.419,194.264 152.037,193.494 C 156.144,194.447 163.224,200.107 165.858,196.951 C 164.496,195.143 161.042,195.431 159.812,193.494 C 165.782,192.371 170.409,196.938 176.225,200.405 C 173.439,200.83 171.119,196.373 169.313,198.677 C 170.956,200.778 175.242,200.235 176.225,202.996 C 174.256,204.184 172.977,200.769 172.768,202.996 C 175.888,204.524 182.435,211.392 184,206.451 C 188.056,206.451 191.517,211.568 194.364,209.905 C 191.981,207.091 182.968,206.352 184,202.996 C 188.073,204.124 191.983,209.961 196.956,207.314 C 195.907,204.908 193.318,204.043 190.91,202.996 C 192.189,200.279 195.375,206.274 195.23,202.133 C 191.752,199.721 194.314,195.15 189.182,193.493 C 193.178,190.665 187.997,182.788 184.001,182.264 C 186.26,181.256 187.715,184.93 187.456,181.401 C 182.782,175.422 171.657,175.892 165.86,171.035 C 173.65,170.643 179.984,179.268 185.727,175.355 C 180.145,170.858 170.719,170.206 164.995,165.852 C 172.444,165.586 179.913,173.6 184.864,170.172 C 178.835,165.835 169.27,165.036 163.268,160.672 C 171.147,161.43 175.442,165.774 183.135,166.718 C 182.519,161.567 176.026,160.563 171.906,158.944 C 167.078,157.045 161.763,155.66 158.085,152.898 C 167.253,154.381 173.722,158.567 181.409,161.536 C 183.8,159.693 179.81,156.83 183.135,156.353 C 185.904,177.771 192.798,195.062 202.139,209.908 C 205.135,211.521 209.376,213.197 210.777,214.228 C 215.939,218.024 219.247,225.014 225.464,225.457 C 217.598,219.215 212.023,210.682 205.595,202.998 C 209.927,203.173 214.073,204.06 210.778,207.316 C 212.072,208.328 214.311,208.39 215.098,209.907 C 214.761,211.141 214.06,211.365 215.098,212.499 C 218.827,212.632 218.505,216.361 220.281,218.548 C 220.91,219.323 223.314,219.399 223.736,220.275 C 223.981,220.786 223.343,222.485 223.736,222.866 C 225.822,224.901 230.402,225.618 232.374,228.05 C 234.602,230.797 236.206,235.575 240.148,234.096 C 216.592,215.041 196.978,181.843 199.548,141.669 C 201.085,117.68 212.357,96.843 228.918,82.928 C 240.854,72.901 254.154,67.287 272.973,70.836 C 270.41,70.84 268.497,68.555 266.062,67.381 C 262.23,65.531 258.686,65.397 254.833,63.924 C 248.791,61.616 247.557,59.74 241.012,62.197 C 234.582,64.61 229.746,66.841 224.6,67.38 C 230.35,65.354 233.421,60.65 241.012,60.469 C 236.336,55.71 228.063,56.731 221.145,55.285 C 209.385,52.83 194.816,50.285 180.545,50.102 C 176.591,54.799 167.221,60.106 166.724,64.789 C 171.609,60.74 178.151,53.766 184.865,54.423 C 173.284,60.407 164.608,69.293 155.495,77.745 C 155.495,78.898 155.495,80.049 155.495,81.202 C 134.279,101.723 126.553,145.963 137.354,179.675 C 145.579,182.107 151.75,186.587 160.678,188.316 C 161.901,183.06 155.653,185.279 154.632,182.267 C 157.072,181.553 156.87,183.486 158.95,183.132 C 145.787,138.402 163.617,90.09 190.912,70.836 C 180.605,83.851 168.033,94.601 163.27,113.162 C 165.423,114.752 170.15,113.769 171.045,116.617 C 168.984,115.223 165.51,115.24 163.27,114.025 C 162.431,117.218 159.864,118.684 160.679,123.528 C 164.605,123.634 166.727,125.542 169.317,126.983 C 165.244,127.025 164.042,124.195 159.816,124.391 C 159.596,127.341 157.631,128.543 158.087,132.166 C 161.073,132.925 164.071,133.668 165.862,135.621 C 162.686,135.342 161.082,133.492 158.087,133.03 C 156.84,134.952 155.918,137.197 156.358,140.804 C 158.253,142.654 161.471,143.178 163.27,145.124 C 159.832,145.682 159.796,142.837 156.358,143.395 C 154.6,148.533 160.827,148.859 164.133,150.306 C 169.523,152.665 175.192,154.805 181.411,155.49 C 181.411,154.049 181.411,152.611 181.411,151.17 C 176.294,151.677 173.636,149.73 171.045,147.715 C 175.013,148.065 177.626,149.772 181.411,150.306 C 178.306,141.317 163.639,143.889 158.087,137.348 C 166.397,138.829 172.172,142.842 180.546,144.26 C 179.444,137.875 169.864,139.968 166.725,135.62 C 171.175,136.931 175.263,138.601 180.546,139.077 C 180.817,132.184 171.74,134.638 168.453,131.302 C 173.975,130.963 176.367,133.753 181.411,133.894 C 182.634,129.495 183.824,125.97 179.682,124.391 C 181.315,124.197 181.587,125.365 183.137,125.256 C 185.697,116.627 186.884,107.876 194.366,101.069 C 186.532,115.111 180.745,136.494 183.137,155.49 C 181.906,155.697 181.681,156.911 180.546,157.216 C 171.009,155.814 164.671,151.21 156.358,148.578 C 156.919,152.808 156.509,152.636 156.358,157.216 C 158.656,157.8 160.757,158.576 162.407,159.807 C 159.766,160.432 159.259,158.925 157.224,158.944 C 156.214,170.896 160.29,177.761 168.453,180.539 C 163.513,181.735 164.423,177.083 159.815,177.948 C 163.474,184.94 174.314,184.757 179.682,190.04 C 172.489,188.883 168.57,184.452 161.541,183.131 C 166.564,189.337 176.957,190.175 183.137,195.224 C 185.153,195.224 187.17,195.224 189.183,195.224 C 187.746,197.937 192.397,198.753 190.048,199.544 C 181.975,194.656 172.216,191.46 163.269,187.449 C 163.265,189.795 166.901,191.494 163.269,192.632 C 163.895,190.273 161.55,190.891 161.537,189.176 z M 169.312,201.268 C 170.333,201.394 171.27,202.807 171.904,201.268 C 170.883,201.145 169.945,199.732 169.312,201.268 z M 155.491,75.151 C 156.38,73.678 161.427,71.952 158.946,69.968 C 158.677,72.061 153.63,73.79 155.491,75.151 z M 151.173,79.471 C 151.38,78.239 152.594,78.013 152.899,76.879 C 151.12,76.123 149.021,79.12 151.173,79.471 z M 210.775,110.568 C 217.687,146.13 223.618,184.34 229.779,221.138 C 233.166,224.085 234.754,228.833 239.282,230.639 C 231.171,189.512 221.796,149.65 213.367,108.841 C 213.185,107.871 212.408,107.496 211.64,107.113 C 211.357,108.283 210.423,108.761 210.775,110.568 z M 202.137,136.483 C 198.574,171.559 210.658,199.552 225.461,215.089 C 225.182,214.799 226.934,220.579 228.05,216.818 C 222.782,185.478 215.919,148.357 209.911,114.888 C 209.722,114.215 209.186,113.884 208.182,114.023 C 205.824,121.06 202.945,128.541 202.137,136.483 z M 87.25,163.26 C 89.375,160.515 87.648,154.258 87.25,151.167 C 80.53,153.528 72.67,162.002 78.612,169.308 C 78.819,168.369 80.034,167.235 80.341,168.443 C 79.574,169.98 77.928,170.64 78.612,173.626 C 81.835,174.545 79.98,170.387 82.932,171.034 C 81.717,173.415 77.81,176.778 81.203,178.809 C 81.885,177.131 84.34,172.809 85.523,174.491 C 82.936,176.223 81.714,179.32 82.066,183.992 C 85.28,184.324 83.664,179.832 86.386,179.672 C 85.331,182.362 84.374,185.15 84.657,189.176 C 87.6,189.815 86.081,185.991 88.114,185.721 C 86.556,188.183 85.482,197.684 88.977,193.493 C 88.715,195.51 87.134,197.217 89.84,197.813 C 90.509,195.027 91.645,192.709 93.295,190.903 C 93.107,194.818 89.18,199.959 92.432,202.132 C 91.837,199.257 94.218,200.738 95.023,201.267 C 95.328,198.693 95.522,196.007 97.615,195.221 C 97.809,195.892 97.638,196.926 98.478,196.95 C 98.001,195.411 98.035,193.363 96.752,192.63 C 95.134,194.47 95.341,198.131 93.295,199.542 C 93.715,195.642 96.055,193.664 96.752,190.038 C 95.985,188.502 94.339,187.844 95.023,184.855 C 91.191,184.765 92.335,189.655 89.84,190.903 C 89.908,186.074 94.1,185.373 93.295,179.672 C 90.523,178.916 91.505,181.914 89.84,182.264 C 94.338,177.002 89.883,168.752 87.25,163.26 z M 99.344,211.634 C 98.016,207.491 98.103,201.931 96.752,197.814 C 94.577,202.304 96.298,209.565 99.344,211.634 z M 111.437,250.506 C 113.709,249.61 116.737,249.472 120.075,249.643 C 121.015,243.671 129.013,244.76 128.713,237.55 C 103.174,220.724 82.295,199.706 74.292,165.851 C 73.358,161.898 75.021,155.903 70.837,152.895 C 52.977,169.299 35.859,186.445 17.281,202.132 C 15.67,214.958 27.901,220.681 37.148,225.454 C 37.61,221.599 42.408,222.076 41.466,216.816 C 38.182,215.545 41.298,220.677 38.011,219.408 C 38.689,211.831 37.346,207.454 41.466,203.858 C 46.813,205.711 45.944,213.779 48.378,218.545 C 50.407,218.268 51.62,217.179 54.424,217.68 C 59.042,210.609 55.579,200.326 62.198,196.084 C 61.591,205.268 56.421,209.886 57.015,220.272 C 54.989,220.546 55.082,222.946 53.56,223.728 C 53.185,218.515 49.048,224.146 45.786,223.728 C 45.918,227.626 48.808,228.769 49.241,232.366 C 52.018,233.125 50.426,229.519 52.698,229.775 C 50.29,232.614 53.197,235.671 56.153,235.821 C 56.287,234.804 56.004,233.368 57.016,233.229 C 57.016,234.092 57.016,234.958 57.016,235.821 C 71.743,239.361 86.335,249.857 102.799,246.187 C 103.313,244.397 101.731,240.512 103.662,240.139 C 105.744,239.787 105.539,241.718 107.982,241.004 C 111.051,238.602 108.828,230.908 112.3,228.909 C 110.795,235.786 108.598,243.884 111.437,250.506 z M 20.736,164.125 C 20.005,169.234 21.23,160.66 20.736,164.125 L 20.736,164.125 z M 22.464,168.443 C 21.322,168.434 21.673,166.93 20.735,166.716 C 19.747,168.488 22.091,170.834 22.464,168.443 z M 19.873,170.171 C 19.178,175.402 23.833,170.748 19.873,170.171 L 19.873,170.171 z M 13.824,187.448 C 13.973,186.156 13.517,184.26 14.69,183.993 C 14.69,185.144 14.69,186.297 14.69,187.448 C 17.893,188.566 18.121,182.333 16.416,181.401 C 14.62,181.828 11.035,188.001 13.824,187.448 z M 9.507,196.085 C 10.507,195.473 7.48,192.374 11.233,192.63 C 10.707,193.436 9.223,195.817 12.098,195.222 C 12.98,194 13.076,186.22 9.507,186.584 C 8.68,189.304 7.616,197.243 9.507,196.085 z M 124.395,186.584 C 121.769,187.125 116.955,185.478 115.757,187.447 C 118.382,186.906 123.197,188.553 124.395,186.584 z M 100.207,197.814 C 100.018,199.617 102.249,201.066 103.662,203.86 C 107.17,210.793 107.432,211.901 111.436,216.818 C 116.728,223.314 122.94,231.864 130.44,234.093 C 131.668,232.625 131.084,227.065 133.895,229.776 C 133.846,232.894 131.742,233.957 131.303,236.685 C 136.022,237.725 136.19,243.315 141.669,243.596 C 145.614,229.089 151.211,211.704 152.035,196.95 C 146.56,195.332 146.243,201.065 145.124,203.859 C 140.527,215.348 140.277,228.485 134.757,236.684 C 137.892,220.633 142.17,209.142 145.989,195.221 C 138.254,191.388 101.654,184.072 100.207,197.814 z M 138.215,274.693 C 125.468,276.49 124.991,256.005 133.895,254.826 C 135.817,254.57 141.118,254.471 140.807,259.144 C 143.823,258.102 148.175,253.879 152.036,256.552 C 146.631,256.126 151.48,261.123 151.173,263.463 C 155.222,262.43 154.508,257.24 158.945,260.872 C 158.951,257.123 155.158,257.174 152.899,255.688 C 157.187,254.857 157.507,257.992 160.674,258.28 C 163.76,256.182 161.603,248.842 164.992,247.051 C 166.14,249.167 168.208,246.103 168.449,247.914 C 167.744,250.578 166.523,257.304 164.129,253.097 C 164.129,253.96 164.129,254.826 164.129,255.689 C 163.603,255.738 163.106,255.819 163.266,256.552 C 165.919,254.973 167.151,257.33 169.312,255.689 C 170.099,238.913 172.792,224.041 174.495,208.18 C 170.465,205.873 166.97,203.034 161.537,202.133 C 158.004,212.706 157.731,226.542 152.899,235.821 C 154.325,223.138 158.289,212.992 159.811,200.404 C 157.776,200.424 157.267,198.917 154.628,199.542 C 149.654,214.869 148.501,233.036 142.533,245.322 C 144.001,249.039 149.127,249.094 150.308,253.096 C 148.343,252.979 146.962,247.896 145.125,250.505 C 146.08,251.091 149.607,253.375 147.716,253.961 C 144.783,252.861 144.445,249.17 140.807,248.778 C 138.902,253.158 142.175,254.957 141.67,256.55 C 126.212,241.123 119.062,280.25 138.215,274.693 z M 168.449,201.268 C 167.919,201.017 165.124,199.121 164.992,201.268 C 166.601,200.444 167.88,203.856 168.449,201.268 z M 10.37,218.546 C 10.896,212.836 8.861,209.689 9.507,203.859 C 9.315,203.185 8.782,202.855 7.778,202.996 C 8.874,207.948 7.688,215.179 10.37,218.546 z M 203,215.955 C 203.441,214.239 198.234,213.977 201.273,212.498 C 201.269,212.977 201.972,213.48 202.136,212.498 C 200.262,209.853 200.124,210.477 196.953,209.906 C 196.032,210.712 196.684,213.094 194.361,212.498 C 190.851,211.69 188.965,209.259 184.86,209.044 C 187.65,212.878 194.653,212.496 196.953,216.818 C 198.445,216.294 196.887,212.719 198.682,212.498 C 199.538,216.824 204.958,216.588 207.319,219.41 C 205.834,219.363 205.105,220.075 204.728,221.139 C 212.809,223.044 217.014,228.285 223.732,228.048 C 216.056,225.293 211.658,214.872 203,215.955 z M 16.416,217.681 C 16.503,215.004 16.026,212.89 14.69,211.634 C 14.837,214.08 13.946,217.562 16.416,217.681 z M 177.087,258.281 C 181.919,257.104 184.505,258.281 188.316,260.01 C 190.405,257.667 187.368,255.212 188.316,251.372 C 190.464,251.466 190.991,252.989 192.636,251.372 C 194.432,244.471 187.685,234.964 193.499,232.367 C 193.149,243.558 194.351,247.971 194.362,258.281 C 196.282,258.952 197.732,260.096 200.408,260.01 C 201.045,256.293 202.463,251.863 203,247.052 C 203.478,242.791 201.859,236.846 205.592,234.959 C 208.974,242.906 196.039,259.332 206.457,263.464 C 205.732,261.022 205.453,258.132 204.728,255.69 C 207.236,255.032 206.967,251.596 210.774,252.236 C 212.355,254.109 210.612,259.309 212.503,260.874 C 214.014,256.933 217.269,253.693 219.412,249.645 C 221.39,245.911 221.296,239.681 226.324,238.416 C 226.375,242.949 219.648,247.746 218.549,253.965 C 222.867,255.012 223.899,261.342 220.278,263.466 C 227.889,263.119 232.337,267.024 236.691,261.738 C 235.071,256.149 231.958,247.48 234.099,241.008 C 236.748,250.738 235.269,264.598 244.465,267.786 C 249.638,261.435 241.033,250.374 241.873,240.142 C 239.211,238.484 237.534,235.843 233.233,235.824 C 233.086,237.116 233.542,239.012 232.37,239.279 C 232.485,237.15 232.5,235.117 231.507,234.095 C 213.988,227.716 199.029,218.776 181.406,212.499 C 180.49,228.284 177.993,242.486 177.087,258.281 z M 322.208,216.818 C 321.818,214.414 326.916,217.496 326.526,215.089 C 325.25,211.969 319.743,214.529 322.208,216.818 z M 5.187,222 C 7.551,222.003 8.552,216.227 6.916,215.089 C 5.734,216.791 6.09,220.023 5.187,222 z M 19.008,228.047 C 20.216,225.564 16.655,223.658 19.008,222.863 C 19.741,226.691 23.138,226.525 21.599,230.638 C 25.919,230.199 28.494,237.308 31.102,233.229 C 31.036,234.734 31.294,235.917 31.965,236.684 C 51.532,244.184 70.384,252.398 91.569,258.28 C 92.961,255.929 92.121,251.347 94.16,249.642 C 84.572,247.711 76.997,243.768 66.518,242.73 C 57.554,236.426 42.83,234.274 36.285,228.046 C 34.78,227.982 33.597,228.237 32.828,228.909 C 31.958,222.381 23.647,225.591 23.327,220.271 C 21.628,220.012 21.614,221.438 20.735,221.999 C 20.778,219.365 19.951,217.601 18.144,216.816 C 19.617,220.984 14.596,226.551 19.008,228.047 z M 44.058,220.273 C 46.579,221.543 46.579,216.411 44.058,217.681 C 44.058,218.546 44.058,219.41 44.058,220.273 z M 202.137,218.546 C 198.646,215.507 200.1,221.326 202.137,218.546 L 202.137,218.546 z M 44.923,230.639 C 43.774,228.042 42.538,225.536 40.603,223.729 C 37.813,227.363 41.827,230.167 44.923,230.639 z M 3.46,237.55 C 6.307,237.518 6.761,235.093 6.915,232.366 C 5.898,232.23 4.462,232.513 4.323,231.501 C 4.807,230.259 5.67,229.394 6.915,228.91 C 7.049,229.927 6.766,231.363 7.778,231.501 C 9.726,229.635 7.064,228.556 7.778,225.455 C 6.273,225.518 5.092,225.264 4.323,224.592 C 2.499,228.664 0.969,233.405 3.46,237.55 z M 10.37,226.319 C 9.4,226.409 9.025,225.064 8.644,226.319 C 8.652,227.191 10.157,227.406 10.37,226.319 z M 12.098,228.047 C 11.367,233.158 12.593,224.582 12.098,228.047 L 12.098,228.047 z M 333.438,228.047 C 332.705,227.314 330.974,228.673 330.846,228.91 C 330.03,230.427 334.034,228.644 333.438,228.047 z M 170.175,256.552 C 171.43,256.081 174.64,257.562 174.495,255.689 C 170.567,255.355 173.406,251.512 174.495,249.643 C 171.149,245.312 176.475,238.621 174.495,231.501 C 171.334,238.132 170.697,247.286 170.175,256.552 z M 326.526,238.414 C 327.128,239.09 331.347,240.336 331.71,238.414 C 326.236,238.537 332.835,231.965 328.255,231.502 C 328.206,234.334 325.797,234.805 326.526,238.414 z M 333.438,244.459 C 333.678,242.49 333.229,241.211 331.709,241.005 C 330.716,242.026 330.732,244.059 330.846,246.188 C 334.846,243.565 333.606,247.695 335.165,249.643 C 337.109,244.21 335.813,236.184 332.574,233.23 C 329.327,236.903 337.295,240.278 333.438,244.459 z M 6.915,244.459 C 6.286,242.496 8.471,237.721 5.186,238.413 C 5.102,241.09 5.579,243.205 6.915,244.459 z M 112.3,258.281 C 110.088,266.196 117.479,276.452 126.121,271.239 C 125.237,265.723 123.698,265.073 120.94,262.601 C 120.324,265.152 120.702,268.698 118.349,269.51 C 118.349,267.493 118.349,265.48 118.349,263.463 C 116.542,260.573 115.101,266.794 114.029,264.326 C 113.528,258.93 116.637,257.146 120.075,255.688 C 119.849,259.369 123.54,259.134 124.395,261.735 C 124.787,258.796 127.57,255.174 125.258,252.234 C 119.906,252.466 113.868,252.673 112.3,258.281 z M 130.441,239.277 C 128.039,240.33 128.836,244.584 128.712,247.915 C 128.609,250.404 125.029,249.415 125.257,252.235 C 131.093,256.082 135.146,240.37 130.441,239.277 z M 131.304,251.372 C 132.027,252.104 138.056,253.737 137.35,250.507 C 135.381,249.321 134.104,252.734 133.895,250.507 C 134.409,247.751 132.273,247.836 133.895,246.189 C 135.389,246.504 139.236,248.8 139.941,247.052 C 137.91,245.628 136.898,243.186 133.895,242.732 C 133.688,246.269 131.274,247.597 131.304,251.372 z M 248.783,265.192 C 251.45,264.979 253.666,264.316 255.695,263.463 C 255.985,256.55 252.151,253.762 253.103,246.188 C 250.329,244.066 247.605,241.896 243.6,241.005 C 244.574,249.82 246.991,257.194 248.783,265.192 z M 38.877,245.323 C 39.022,243.162 37.549,242.621 36.286,241.869 C 36.648,243.52 36.599,245.587 38.877,245.323 z M 308.387,247.051 C 307.234,245.611 308.7,241.555 305.795,241.868 C 307.243,244.162 304.135,246.783 308.387,247.051 z M 43.195,247.051 C 42.656,244.998 42.033,243.03 39.74,242.731 C 40.228,244.837 40.479,247.175 43.195,247.051 z M 47.515,248.78 C 47.027,246.675 46.776,244.337 44.058,244.46 C 44.834,246.278 44.085,249.615 47.515,248.78 z M 323.071,246.188 C 325.727,246.06 326.957,249.227 329.118,247.051 C 330.127,243.509 323.112,243.582 323.071,246.188 z M 51.833,251.372 C 53.257,250.029 51.539,248.005 50.97,246.188 C 50.107,246.188 49.241,246.188 48.378,246.188 C 48.005,249.44 50.202,250.123 51.833,251.372 z M 44.923,253.962 C 44.82,251.392 41.805,246.784 40.603,250.506 C 42.328,251.375 41.967,254.325 44.923,253.962 z M 37.148,247.051 C 37.992,249.086 37.427,252.53 40.603,252.235 C 40.07,249.888 38.89,248.189 37.148,247.051 z M 12.098,251.372 C 9.903,252.028 10.649,245.469 8.643,248.78 C 9.703,249.257 10.325,254.449 12.098,251.372 z M 258.285,262.601 C 262.624,261.467 267.417,260.789 270.379,258.281 C 264.955,255.067 261.177,250.208 254.83,247.915 C 256.055,252.738 256.345,258.494 258.285,262.601 z M 57.881,253.097 C 58.037,250.858 55.456,246.977 53.561,249.643 C 55.285,250.51 54.925,253.462 57.881,253.097 z M 97.616,266.918 C 100.836,268.016 102.714,270.46 107.982,269.51 C 107.899,263.668 107.568,257.579 109.708,253.962 C 103.042,241.246 90.785,256.042 97.616,266.918 z M 124.395,249.643 C 124.384,248.771 122.879,248.556 122.666,249.643 C 123.636,249.555 124.011,250.898 124.395,249.643 z M 300.613,250.506 C 302.143,250.31 304.939,251.377 304.067,248.779 C 302.098,248.537 300.821,248.987 300.613,250.506 z M 13.824,256.552 C 16.974,253.547 16.032,254.777 19.008,257.417 C 18.946,254.022 16.864,252.649 15.553,250.506 C 16.354,253.899 12.55,252.686 13.824,256.552 z M 56.153,259.144 C 60.573,257.328 59.622,260.009 63.062,260.873 C 62.779,258.854 62.024,257.305 61.336,255.689 C 58.335,258.396 56.764,253.023 54.424,255.689 C 56.022,255.819 54.955,258.616 56.153,259.144 z M 64.791,261.736 C 67.261,260.148 69.524,263.62 71.7,263.464 C 72.054,263.439 71.555,261.359 72.566,261.736 C 73.576,262.115 72.943,265.964 75.157,264.327 C 75.432,262.324 75.018,261.012 74.292,260.01 C 70.825,262.595 65.929,254.292 63.063,259.145 C 64.149,259.5 64.829,260.258 64.791,261.736 z M 45.787,250.506 C 46.22,258.98 50.505,253.594 54.425,257.417 C 52.916,249.969 49.25,255.218 45.787,250.506 z M 65.654,254.826 C 63.836,252.899 62.779,250.215 58.744,250.507 C 58.399,254.056 63.307,256.835 65.654,254.826 z M 305.795,251.372 C 305.399,254.07 307.641,254.132 310.113,253.963 C 310.392,251.158 307.789,249.364 305.795,251.372 z M 39.74,255.689 C 37.681,253.319 35.931,255.649 33.694,253.097 C 33.363,256.253 39.612,258.253 39.74,255.689 z M 70.837,257.417 C 71.031,255.782 69.863,255.51 69.974,253.962 C 68.682,254.109 66.786,253.653 66.519,254.825 C 68.554,255.092 68.126,257.825 70.837,257.417 z M 43.195,259.144 C 43.159,257.955 43.602,257.248 44.058,256.552 C 42.89,256.281 42.408,255.323 40.603,255.689 C 40.456,257.852 41.931,258.394 43.195,259.144 z M 76.02,259.144 C 77.348,256.009 72.853,254.359 71.7,256.552 C 73.041,257.518 73.501,259.361 76.02,259.144 z M 128.712,262.601 C 130.741,262.875 131.956,263.964 134.758,263.463 C 134.89,260.716 136.719,259.663 136.487,256.552 C 132.57,254.187 129.978,259.544 128.712,262.601 z M 49.241,262.601 C 47.378,261.008 48.416,256.516 44.923,256.552 C 45.603,259.328 45.723,262.665 49.241,262.601 z M 80.34,260.009 C 80.581,258.039 80.131,256.761 78.611,256.552 C 77.522,257.567 77.919,260.143 80.34,260.009 z M 321.342,260.009 C 323.84,260.162 326.104,257.091 323.071,256.552 C 323.7,258.91 321.356,258.292 321.342,260.009 z M 49.241,260.009 C 50.347,260.056 50.439,261.114 51.832,260.872 C 51.879,259.387 51.167,258.657 50.106,258.28 C 50.108,259.148 49.405,259.31 49.241,260.009 z M 85.523,261.736 C 85.417,259.539 84.266,258.387 82.066,258.281 C 82.173,260.478 83.324,261.631 85.523,261.736 z M 145.125,272.102 C 148.584,272.106 147.989,268.054 150.308,266.918 C 148.942,264.254 147.866,261.298 146.853,258.28 C 144.292,260.565 143.16,268.083 145.125,272.102 z M 160.674,267.784 C 160.312,271.14 163.464,273.642 161.537,276.422 C 163.191,279.291 169.152,279.787 172.766,278.149 C 171.281,272.288 171.982,265.907 173.631,260.874 C 167.319,254.677 161.427,260.787 160.674,267.784 z M 277.291,260.873 C 277.886,258.55 275.505,259.204 274.699,258.281 C 274.102,260.604 276.483,259.952 277.291,260.873 z M 282.471,260.873 C 283.978,260.073 287.109,260.902 286.791,258.281 C 284.775,258.571 283.07,259.167 282.471,260.873 z M 288.52,264.327 C 291.246,263.905 291.57,265.886 294.566,265.192 C 294.174,260.471 291.15,265.588 291.109,262.601 C 291.107,262.334 293.786,262.571 292.838,260.872 C 292.54,260.337 289.835,261.328 290.247,260.009 C 291.572,259.802 290.374,258.585 289.384,258.28 C 289.108,260.31 288.019,261.522 288.52,264.327 z M 213.367,263.463 C 215.46,264.018 216.604,259.348 215.096,259.144 C 214.726,260.792 212.627,260.708 213.367,263.463 z M 31.102,260.873 C 30.371,265.983 31.597,257.407 31.102,260.873 L 31.102,260.873 z M 50.97,263.463 C 51.496,263.513 51.993,263.594 51.833,264.326 C 52.888,264.228 53.879,264.068 53.562,262.6 C 52.544,262.735 51.108,262.452 50.97,263.463 z M 56.153,265.192 C 57.176,264.065 56.56,259.707 53.561,260.009 C 53.233,262.929 55.06,263.694 56.153,265.192 z M 90.706,263.463 C 91.107,260.759 89.954,259.609 87.249,260.009 C 86.849,262.713 88.001,263.865 90.706,263.463 z M 185.725,278.148 C 185.518,279.382 184.304,279.606 183.999,280.74 C 186.017,280.473 187.566,279.05 189.18,280.74 C 186.166,274.506 187.128,269.278 188.317,261.736 C 185.757,261.129 184.556,259.163 180.543,260.009 C 175.772,264.712 172.701,280.275 185.725,278.148 z M 261.741,264.327 C 266.718,267.128 269.482,263.786 274.699,262.601 C 272.817,256.706 264.405,262.799 261.741,264.327 z M 34.557,261.736 C 33.828,266.846 35.051,258.27 34.557,261.736 L 34.557,261.736 z M 189.179,276.421 C 191.545,281.472 198.469,281.534 203,280.739 C 199.524,275.677 200.468,268.9 203,263.463 C 193.917,255.887 185.2,267.916 189.179,276.421 z M 314.433,270.374 C 316.322,267.395 315.974,265.167 312.704,263.464 C 307.647,266.806 309.776,274.069 312.704,278.149 C 315.626,275.442 317.244,278.688 319.616,277.286 C 317.933,274.938 317.641,271.198 314.433,270.374 z M 318.753,273.83 C 321.441,271.625 322.378,267.667 323.934,264.327 C 323.802,267.629 323.979,270.619 325.663,272.102 C 326.124,269.107 324.38,263.91 327.392,263.463 C 327.149,265.433 327.599,266.711 329.119,266.918 C 329.628,263.819 328.115,262.738 327.392,260.872 C 324.288,261.396 324.293,265.023 320.481,262.601 C 318.649,264.834 316.701,270.471 318.753,273.83 z M 58.744,266.055 C 59.933,266.017 60.641,266.462 61.336,266.918 C 61.052,265.117 59.85,259.857 57.881,262.601 C 59.16,262.76 58.672,264.687 58.744,266.055 z M 80.34,266.055 C 80.615,264.052 80.201,262.739 79.475,261.736 C 78.612,261.736 77.749,261.736 76.884,261.736 C 77.371,263.839 77.623,266.179 80.34,266.055 z M 301.475,275.556 C 304.546,276.899 301.997,272.623 304.067,272.964 C 304.101,275.812 303.713,279.077 306.659,279.013 C 306.836,274.516 304.317,272.715 303.204,269.51 C 307.216,271.803 304.377,266.354 308.388,268.647 C 308.162,266.117 310.34,265.994 310.115,263.463 C 308.838,263.014 307.938,262.185 306.66,261.735 C 305.054,266.466 300.323,268.07 301.475,275.556 z M 153.763,266.918 C 154.524,269.039 154.541,271.901 157.22,272.102 C 155.798,268.459 159.82,262.72 156.354,262.601 C 156.088,264.636 153.355,264.208 153.763,266.918 z M 63.927,264.327 C 64.123,265.859 63.055,268.654 65.654,267.784 C 66.008,265.702 64.077,265.906 64.791,263.464 C 63.774,263.599 62.34,263.316 62.199,264.327 C 62.774,264.327 63.35,264.327 63.927,264.327 z M 85.523,266.918 C 85.924,264.214 84.771,263.063 82.066,263.463 C 81.666,266.168 82.818,267.319 85.523,266.918 z M 110.573,264.327 C 109.842,269.438 111.068,260.862 110.573,264.327 L 110.573,264.327 z M 208.183,264.327 C 207.81,267.582 210.01,268.262 211.64,269.511 C 213.976,267.927 211.789,266.587 213.367,265.193 C 213.378,266.909 215.724,266.291 215.096,268.648 C 210.817,270.843 211.776,277.471 213.367,282.469 C 214.475,279.76 217.48,284.348 217.687,280.74 C 212.745,276.136 216.125,267.209 219.413,263.464 C 214.299,262.584 218.094,265.25 215.096,266.056 C 213.925,263.596 210.252,263.647 208.183,264.327 z M 68.245,268.647 C 72.303,268.287 74.123,269.873 77.748,272.102 C 83.805,270.748 85.455,273.416 90.706,273.83 C 89.491,265.89 82.831,272.164 79.475,267.784 C 79.058,268.805 78.554,269.741 77.749,270.374 C 78.755,266.329 74.239,266.149 73.429,268.647 C 72.811,263.746 69.932,266.435 66.52,264.327 C 66.385,266.477 67.875,267.001 68.245,268.647 z M 94.161,269.51 C 94.14,265.211 90.144,264.89 86.387,264.326 C 87.622,270.785 89.8,266.177 94.161,269.51 z M 139.079,275.556 C 141.95,275.277 140.017,279.802 144.262,278.148 C 144.253,275.486 140.187,271.929 139.079,275.556 z M 139.942,264.327 C 138.791,264.327 137.64,264.327 136.487,264.327 C 135.151,266.097 135.151,272.061 136.487,273.83 C 137.64,273.83 138.791,273.83 139.942,273.83 C 140.773,271.554 141.613,266.43 139.942,264.327 z M 228.916,281.605 C 228.784,278.856 226.958,277.802 227.188,274.693 C 224.393,273.626 226.529,277.49 223.733,276.422 C 222.219,275.632 220.732,274.816 221.141,272.103 C 222.776,270.389 225.222,271.683 227.188,272.103 C 227.462,270.076 228.553,268.861 228.05,266.056 C 213.292,259.265 213.307,289.592 228.916,281.605 z M 229.779,276.421 C 234.431,274.452 235.64,269.034 239.282,266.055 C 232.245,261.772 224.875,271.452 229.779,276.421 z M 203,270.374 C 203.854,269.689 206.293,266.313 204.729,266.056 C 203.673,267.032 201.242,274.446 203,270.374 z M 255.695,279.013 C 258.222,279.363 259.194,281.27 260.876,282.468 C 263.183,279.829 257.812,274.002 261.741,272.102 C 262.845,272.151 262.937,273.209 264.333,272.964 C 264.107,270.437 266.285,270.311 266.06,267.783 C 259.989,263.86 253.741,269.734 255.695,279.013 z M 278.154,282.468 C 276.916,278.329 274.844,277.288 274.699,273.829 C 272.926,274.648 272.303,276.617 271.242,278.147 C 271.242,276.133 271.242,274.117 271.242,272.101 C 272.766,272.855 273.917,274.993 274.699,272.101 C 271.718,270.162 278.196,270.498 276.426,266.917 C 260.729,262.524 266.824,286.869 278.154,282.468 z M 292.837,280.74 C 292.837,278.725 292.837,276.71 292.837,274.693 C 291.687,272.575 290.231,276.25 289.383,273.83 C 288.012,269.579 293.846,272.535 292.837,268.647 C 292.379,266.226 288.675,267.05 286.791,266.055 C 287.548,270.173 285.142,273.781 287.654,279.013 C 289.997,279.478 289.805,279.704 292.837,280.74 z M 281.608,275.556 C 281.802,273.924 280.634,273.651 280.746,272.102 C 282.506,270.595 282.44,272.746 284.2,271.239 C 284.614,268.521 282.971,267.861 282.471,266.055 C 280.839,265.862 280.566,267.03 279.017,266.918 C 279.585,272.531 277.821,275.886 279.017,279.876 C 281.732,278.706 281.983,279.607 282.471,282.468 C 284.6,282.58 286.633,282.598 287.655,281.605 C 287.655,280.74 287.655,279.876 287.655,279.013 C 283.343,279.552 285.447,273.163 281.608,275.556 z M 294.566,275.556 C 297.812,274.377 296.361,270.42 299.75,271.239 C 299.75,269.51 299.75,267.784 299.75,266.055 C 294.622,265.826 294.164,270.26 294.566,275.556 z M 50.97,268.647 C 51.545,268.647 52.121,268.647 52.698,268.647 C 52.698,268.072 52.698,267.494 52.698,266.918 C 52.121,266.918 51.545,266.918 50.97,266.918 C 50.97,267.494 50.97,268.072 50.97,268.647 z M 244.465,281.605 C 248.943,282.189 249.366,283.482 253.103,283.332 C 253.337,278.098 252.171,271.459 254.83,268.647 C 247.214,263.088 239.606,274.374 244.465,281.605 z M 203.866,276.421 C 208.224,275.803 210.586,270.089 206.458,267.783 C 204.794,269.866 203.906,272.72 203.866,276.421 z M 63.062,270.374 C 63.054,269.502 61.549,269.289 61.336,270.374 C 62.306,270.286 62.681,271.63 63.062,270.374 z M 68.245,274.693 C 68.599,272.611 66.668,272.816 67.382,270.374 C 66.519,270.374 65.654,270.374 64.791,270.374 C 65.751,272.003 66.005,274.343 68.245,274.693 z M 146.853,276.421 C 148.486,277.983 156.018,279.802 157.22,276.421 C 153.518,276.091 153.882,271.694 151.174,270.373 C 149.775,272.434 148.07,274.182 146.853,276.421 z M 327.391,273.83 C 329.669,274.093 329.619,272.027 329.983,270.374 C 329.118,270.374 328.254,270.374 327.391,270.374 C 327.391,271.526 327.391,272.677 327.391,273.83 z M 49.241,276.421 C 49.569,273.501 47.745,272.734 46.649,271.238 C 45.098,272.894 46.407,276.556 49.241,276.421 z M 69.974,272.964 C 70.55,272.964 71.125,272.964 71.7,272.964 C 73.045,270.84 68.768,270.426 69.111,272.102 C 69.637,272.151 70.131,272.232 69.974,272.964 z M 91.569,274.693 C 95.868,274.135 95.243,274.273 98.478,275.556 C 98.478,274.406 98.478,273.254 98.478,272.102 C 94.437,273.459 95.61,271.385 91.569,271.239 C 91.569,272.389 91.569,273.542 91.569,274.693 z M 174.495,272.102 C 173.764,277.212 174.99,268.636 174.495,272.102 L 174.495,272.102 z M 323.934,276.421 C 324.959,275.294 324.343,270.936 321.342,271.238 C 321.309,273.864 320.842,276.922 323.934,276.421 z M 64.791,272.964 C 61.881,270.343 62.171,276.16 64.791,272.964 L 64.791,272.964 z M 234.099,283.332 C 237.94,283.718 240.395,282.718 242.737,281.605 C 242.311,278.574 241.45,275.981 241.874,272.102 C 236.55,273.114 235.954,278.851 234.099,283.332 z M 101.936,277.285 C 103.615,275.619 102.837,271.998 99.345,272.965 C 99.632,274.981 100.229,276.688 101.936,277.285 z M 127.849,274.693 C 127.838,273.822 126.336,273.606 126.12,274.693 C 127.09,274.606 127.465,275.949 127.849,274.693 z M 82.932,276.421 C 83.507,276.421 84.083,276.421 84.658,276.421 C 86.001,274.294 81.725,273.881 82.067,275.556 C 82.595,275.605 83.089,275.686 82.932,276.421 z M 117.483,279.876 C 118.058,279.876 118.636,279.876 119.212,279.876 C 116.735,272.964 108.684,276.603 103.663,274.692 C 105.943,279.905 114.409,274.601 114.029,284.196 C 118.683,283.211 117.65,284.481 121.803,285.058 C 121.803,283.906 121.803,282.754 121.803,281.604 C 117.747,281.917 114.672,281.248 114.029,278.147 C 116.822,277.081 114.689,280.944 117.483,279.876 z M 297.158,279.013 C 298.856,279.397 302.499,282.216 304.067,279.876 C 301.134,278.778 300.493,275.388 297.158,274.692 C 297.158,276.134 297.158,277.573 297.158,279.013 z M 310.979,279.876 C 312.818,277.783 309.054,276.055 307.524,274.692 C 307.29,277.807 307.306,280.669 310.979,279.876 z M 90.706,279.876 C 91.514,276.983 87.94,274.094 86.386,276.421 C 87.974,277.425 86.985,281.006 90.706,279.876 z M 94.161,280.74 C 95.455,279.461 94.24,276.275 91.57,276.422 C 91.399,278.894 91.46,281.136 94.161,280.74 z M 206.458,279.876 C 209.096,279.251 209.605,280.758 211.641,280.739 C 212.353,278.299 210.422,278.501 210.776,276.421 C 207.823,276.059 205.854,276.682 206.458,279.876 z M 234.099,279.876 C 234.244,277.713 232.771,277.171 231.507,276.421 C 231.361,278.583 232.833,279.126 234.099,279.876 z M 264.333,282.468 C 264.184,280.023 265.075,276.54 262.604,276.421 C 261.562,277.566 261.741,282.362 264.333,282.468 z M 98.479,281.605 C 100.101,279.958 97.968,280.041 98.479,277.285 C 97.616,277.285 96.753,277.285 95.888,277.285 C 95.478,279.998 96.965,280.814 98.479,281.605 z M 120.939,280.74 C 122.378,280.74 123.816,280.74 125.257,280.74 C 125.451,279.107 124.283,278.835 124.394,277.285 C 123.241,277.285 122.09,277.285 120.939,277.285 C 120.939,278.436 120.939,279.588 120.939,280.74 z M 128.712,281.605 C 128.84,279.46 128.874,277.413 126.985,277.285 C 125.616,278.577 125.722,282.21 128.712,281.605 z M 63.062,279.013 C 66.713,284.019 77.373,281.509 81.203,284.197 C 81.045,278.442 76.348,282.596 74.291,279.013 C 73.626,281.259 68.669,279.226 66.519,278.148 C 67.291,281.166 63.702,279.625 63.062,279.013 z M 159.811,280.74 C 160.387,280.74 160.962,280.74 161.537,280.74 C 161.535,279.875 162.238,279.713 162.403,279.013 C 161.297,278.964 161.205,277.905 159.811,278.148 C 159.811,279.013 159.811,279.876 159.811,280.74 z M 182.27,279.876 C 180.976,279.893 178.736,276.666 177.95,279.013 C 179.05,279.188 182.183,281.524 182.27,279.876 z M 267.788,282.468 C 267.5,280.451 266.903,278.746 265.196,278.148 C 265.217,280.43 264.39,283.561 267.788,282.468 z M 103.662,282.468 C 104.791,279.799 101.211,277.568 100.207,279.876 C 101.872,280.228 100.889,283.224 103.662,282.468 z M 104.525,279.876 C 104.38,282.037 105.853,282.58 107.117,283.331 C 107.844,282.329 108.257,281.017 107.982,279.013 C 106.477,278.947 105.294,279.205 104.525,279.876 z M 112.3,283.332 C 111.814,281.228 111.56,278.888 108.845,279.014 C 108.485,281.965 109.105,283.934 112.3,283.332 z M 130.441,282.468 C 132.717,282.728 133.275,281.272 133.032,279.013 C 132.169,279.013 131.303,279.013 130.441,279.013 C 130.441,280.164 130.441,281.315 130.441,282.468 z M 133.896,281.605 C 136.025,284.376 139.232,279.591 135.625,279.013 C 135.417,280.245 134.2,280.469 133.896,281.605 z M 255.695,282.468 C 255.936,280.498 255.486,279.22 253.966,279.013 C 254.163,280.543 253.097,283.337 255.695,282.468 z M 294.566,279.876 C 292.477,282.775 297.462,277.788 294.566,279.876 L 294.566,279.876 z M 138.215,280.74 C 138.215,281.315 138.215,281.892 138.215,282.469 C 138.741,282.518 139.238,282.599 139.078,283.332 C 139.653,283.332 140.231,283.332 140.807,283.332 C 140.856,282.805 140.935,282.309 141.67,282.469 C 141.67,281.893 141.67,281.316 141.67,280.74 C 141.144,280.691 140.647,280.612 140.807,279.877 C 140.231,279.877 139.654,279.877 139.078,279.877 C 139.029,280.403 138.951,280.899 138.215,280.74 z M 143.398,283.332 C 145.921,283.56 146.714,279.981 144.261,279.877 C 143.989,281.044 143.032,281.526 143.398,283.332 z M 148.582,284.197 C 148.853,283.029 149.81,282.545 149.445,280.74 C 146.5,280.089 146.075,284.039 148.582,284.197 z M 85.523,285.059 C 86.65,282.391 83.07,280.158 82.066,282.468 C 83.73,282.82 82.748,285.816 85.523,285.059 z M 151.173,284.197 C 152.036,284.197 152.899,284.197 153.762,284.197 C 153.762,283.332 153.762,282.468 153.762,281.605 C 152.899,281.605 152.035,281.605 151.173,281.605 C 151.173,282.468 151.173,283.332 151.173,284.197 z M 156.354,284.197 C 158.875,285.465 158.875,280.335 156.354,281.605 C 156.354,282.468 156.354,283.332 156.354,284.197 z M 88.978,285.922 C 89.221,283.663 88.663,282.207 86.387,282.468 C 86.239,284.629 87.714,285.172 88.978,285.922 z M 93.295,285.922 C 93.54,283.663 92.98,282.207 90.706,282.468 C 90.461,284.727 91.02,286.183 93.295,285.922 z M 96.752,287.651 C 98.08,286.334 98.291,281.728 95.023,282.468 C 93.383,284.094 94.919,286.957 96.752,287.651 z M 125.257,285.922 C 125.53,284.754 126.487,284.273 126.12,282.468 C 125.257,282.468 124.394,282.468 123.529,282.468 C 123.288,284.437 123.738,285.716 125.257,285.922 z M 127.849,285.922 C 128.712,285.922 129.578,285.922 130.441,285.922 C 130.684,283.663 130.126,282.207 127.849,282.468 C 127.849,283.619 127.849,284.772 127.849,285.922 z M 159.811,284.197 C 160.301,288.114 164.758,279.248 160.674,283.332 C 160.263,283.743 159.681,283.167 159.811,284.197 z M 166.721,285.059 C 166.721,284.484 166.721,283.907 166.721,283.331 C 165.126,280.462 162.509,285.925 166.721,285.059 z M 101.936,287.651 C 101.936,286.211 101.936,284.772 101.936,283.332 C 101.071,283.332 100.207,283.332 99.345,283.332 C 99.173,285.805 99.235,288.045 101.936,287.651 z M 132.169,286.786 C 134.49,287.383 133.838,285.002 134.758,284.197 C 133.571,284.233 132.863,283.79 132.169,283.332 C 130.729,285.048 132.246,284.431 132.169,286.786 z M 176.224,285.059 C 176.799,285.059 177.375,285.059 177.95,285.059 C 177.95,284.484 177.95,283.907 177.95,283.331 C 177.375,283.331 176.799,283.331 176.224,283.331 C 176.224,283.907 176.224,284.484 176.224,285.059 z M 179.678,285.059 C 180.846,285.33 181.327,286.289 183.133,285.922 C 183.783,282.977 179.834,282.553 179.678,285.059 z M 304.067,283.332 C 299.625,285.419 307.042,285.565 304.067,283.332 L 304.067,283.332 z M 102.799,285.059 C 102.539,287.335 103.994,287.894 106.254,287.651 C 106.497,285.392 105.939,283.934 103.663,284.197 C 103.613,284.723 103.534,285.217 102.799,285.059 z M 138.215,287.651 C 138.486,286.483 139.445,286.002 139.078,284.197 C 137.927,284.197 136.774,284.197 135.623,284.197 C 134.869,286.964 136.954,286.897 138.215,287.651 z M 184.861,286.786 C 187.38,288.057 187.38,282.927 184.861,284.197 C 184.861,285.059 184.861,285.922 184.861,286.786 z M 189.179,286.786 C 190.044,286.786 190.908,286.786 191.771,286.786 C 191.929,284.902 191.065,284.039 189.179,284.197 C 189.179,285.059 189.179,285.922 189.179,286.786 z M 195.228,287.651 C 196.349,286.503 196.366,284.437 194.363,284.197 C 193.241,285.343 193.224,287.411 195.228,287.651 z M 299.75,286.786 C 299.799,286.26 299.878,285.765 300.613,285.923 C 300.514,284.87 300.355,283.877 298.884,284.197 C 299.02,285.213 298.737,286.647 299.75,286.786 z M 342.076,285.059 C 339.987,287.956 344.974,282.971 342.076,285.059 L 342.076,285.059 z M 72.565,286.786 C 75.337,286.029 74.355,289.028 76.02,289.378 C 77.258,285.716 73.377,283.412 72.565,286.786 z M 108.845,288.514 C 109.97,287.364 109.375,285.908 107.982,285.059 C 108.129,286.351 107.673,288.248 108.845,288.514 z M 114.028,289.377 C 114.437,286.664 112.951,285.848 111.436,285.059 C 109.644,286.837 111.438,289.439 114.028,289.377 z M 140.807,287.651 C 142.776,287.892 144.053,287.442 144.262,285.922 C 143.094,285.651 142.613,284.693 140.807,285.059 C 140.807,285.922 140.807,286.788 140.807,287.651 z M 146.853,288.514 C 147.124,287.346 148.083,286.865 147.716,285.059 C 146.853,285.059 145.99,285.059 145.125,285.059 C 144.884,287.029 145.333,288.307 146.853,288.514 z M 200.409,285.059 C 199.646,284.395 197.943,285.59 197.818,285.922 C 196.581,289.222 202.12,286.547 200.409,285.059 z M 204.729,285.922 C 203.759,286.01 203.384,284.667 203,285.922 C 203.011,286.794 204.515,287.009 204.729,285.922 z M 206.458,286.786 C 207.033,286.786 207.608,286.786 208.184,286.786 C 208.184,286.211 208.184,285.636 208.184,285.059 C 207.609,285.059 207.034,285.059 206.458,285.059 C 206.458,285.635 206.458,286.21 206.458,286.786 z M 214.232,287.651 C 214.807,287.651 215.382,287.651 215.959,287.651 C 216.926,286.407 216.89,285.544 215.096,285.059 C 215.046,286.164 213.987,286.255 214.232,287.651 z M 218.549,287.651 C 219.412,287.651 220.278,287.651 221.141,287.651 C 221.141,286.788 221.141,285.922 221.141,285.059 C 220.278,285.059 219.412,285.059 218.549,285.059 C 218.549,285.922 218.549,286.788 218.549,287.651 z M 222.87,287.651 C 223.445,287.651 224.021,287.651 224.597,287.651 C 224.646,286.547 225.705,286.454 225.462,285.059 C 224.884,285.059 224.309,285.059 223.733,285.059 C 223.686,286.164 222.625,286.255 222.87,287.651 z M 227.188,286.786 C 228.292,286.835 228.385,287.894 229.779,287.651 C 229.826,286.166 229.114,285.437 228.05,285.059 C 228.055,285.925 227.352,286.086 227.188,286.786 z M 245.329,287.651 C 245.329,287.076 245.329,286.499 245.329,285.922 C 243.734,283.054 241.117,288.516 245.329,287.651 z M 253.966,287.651 C 254.013,286.166 253.301,285.437 252.237,285.059 C 251.004,286.321 250.97,288.404 253.966,287.651 z M 77.749,288.514 C 78.324,288.514 78.9,288.514 79.475,288.514 C 79.473,287.649 80.176,287.487 80.34,286.785 C 79.236,286.738 79.142,285.679 77.749,285.922 C 77.749,286.786 77.749,287.651 77.749,288.514 z M 152.899,285.922 C 152.136,285.26 150.433,286.453 150.308,286.785 C 149.072,290.084 154.611,287.411 152.899,285.922 z M 158.083,288.514 C 158.343,286.238 156.888,285.679 154.628,285.922 C 153.761,288.806 155.826,288.755 158.083,288.514 z M 234.099,285.922 C 233.082,286.057 231.646,285.773 231.507,286.785 C 232.524,286.652 233.958,286.935 234.099,285.922 z M 239.282,287.651 C 239.858,287.651 240.433,287.651 241.009,287.651 C 241.009,287.076 241.009,286.499 241.009,285.922 C 240.434,285.922 239.859,285.922 239.282,285.922 C 239.282,286.499 239.282,287.076 239.282,287.651 z M 249.646,286.786 C 249.638,285.915 248.133,285.701 247.92,286.786 C 248.101,287.83 248.879,287.319 249.646,286.786 z M 258.285,285.922 C 257.27,286.057 255.834,285.773 255.695,286.785 C 256.711,286.652 258.146,286.935 258.285,285.922 z M 266.924,290.243 C 268.074,290.243 269.226,290.243 270.378,290.243 C 269.901,288.704 269.936,286.656 268.65,285.923 C 269.294,288.583 266.281,287.583 266.924,290.243 z M 272.107,290.243 C 276.583,291.413 273.851,283.738 272.107,286.786 C 274.464,287.568 269.48,288.719 272.107,290.243 z M 290.247,287.651 C 291.732,287.698 292.461,286.986 292.838,285.922 C 291.352,285.875 290.624,286.587 290.247,287.651 z M 304.067,287.651 C 305.424,287.568 307.064,287.766 306.659,285.922 C 306.084,285.922 305.508,285.922 304.932,285.922 C 304.934,286.791 304.231,286.952 304.067,287.651 z M 54.424,287.651 C 53.695,292.759 54.918,284.186 54.424,287.651 L 54.424,287.651 z M 84.658,287.651 C 84.366,286.952 82.365,286.609 82.067,287.651 C 81.495,289.652 85.442,289.518 84.658,287.651 z M 125.257,290.243 C 125.498,288.273 125.049,286.995 123.529,286.786 C 122.169,288.071 122.568,290.645 125.257,290.243 z M 163.266,286.786 C 162.115,286.786 160.962,286.786 159.811,286.786 C 159.129,290.113 163.946,290.113 163.266,286.786 z M 164.992,289.377 C 165.857,289.377 166.721,289.377 167.583,289.377 C 167.583,288.514 167.583,287.65 167.583,286.785 C 166.72,286.785 165.857,286.785 164.992,286.785 C 164.992,287.651 164.992,288.514 164.992,289.377 z M 171.904,289.377 C 171.951,287.892 171.239,287.162 170.175,286.785 C 168.941,288.049 168.907,290.132 171.904,289.377 z M 276.425,287.651 C 275.555,290.25 278.35,289.181 279.879,289.378 C 279.879,288.515 279.879,287.651 279.879,286.786 C 278.377,286.722 277.195,286.98 276.425,287.651 z M 299.75,289.377 C 300.613,289.377 301.476,289.377 302.341,289.377 C 302.205,288.36 302.488,286.926 301.476,286.785 C 301.269,288.02 300.054,288.244 299.75,289.377 z M 88.978,287.651 C 88.215,286.986 86.512,288.182 86.387,288.514 C 85.148,291.813 90.689,289.136 88.978,287.651 z M 121.803,290.243 C 121.959,288.359 121.095,287.494 119.212,287.651 C 119.054,289.535 119.919,290.398 121.803,290.243 z M 129.578,291.106 C 129.578,289.955 129.578,288.802 129.578,287.651 C 126.25,286.969 126.25,291.786 129.578,291.106 z M 177.087,288.514 C 176.927,287.236 175.001,287.721 173.632,287.651 C 171.787,290.829 178.031,291.547 177.087,288.514 z M 178.815,290.243 C 179.391,290.243 179.966,290.243 180.542,290.243 C 180.54,289.376 181.243,289.214 181.407,288.514 C 180.301,288.467 180.209,287.408 178.815,287.651 C 178.815,288.514 178.815,289.379 178.815,290.243 z M 183.133,290.243 C 184.286,290.243 185.437,290.243 186.588,290.243 C 187.27,286.916 182.453,286.916 183.133,290.243 z M 187.453,290.243 C 188.604,290.243 189.757,290.243 190.908,290.243 C 191.587,286.916 186.771,286.916 187.453,290.243 z M 341.212,287.651 C 341.027,296.355 347.538,289.846 341.212,287.651 L 341.212,287.651 z M 93.295,289.377 C 93.003,288.68 91.002,288.335 90.706,289.377 C 90.133,291.38 94.08,291.247 93.295,289.377 z M 96.752,291.106 C 96.752,290.243 96.752,289.377 96.752,288.514 C 95.887,288.514 95.023,288.514 94.16,288.514 C 94.003,290.398 94.866,291.263 96.752,291.106 z M 134.758,291.106 C 135.02,288.83 133.563,288.271 131.303,288.514 C 130.599,291.605 133.143,292.802 134.758,291.106 z M 192.636,290.243 C 194.797,290.349 195.338,291.89 196.091,289.378 C 194.942,288.256 192.877,288.24 192.636,290.243 z M 203,291.106 C 203.126,290.085 204.538,289.147 203,288.514 C 202.876,289.535 201.464,290.473 203,291.106 z M 205.592,291.106 C 207.738,291.236 209.176,290.661 209.911,289.377 C 208.621,288.007 204.987,288.116 205.592,291.106 z M 210.775,291.106 C 212.745,291.346 214.023,290.897 214.232,289.377 C 212.947,288.018 210.373,288.417 210.775,291.106 z M 256.558,290.243 C 257.915,290.16 259.552,290.358 259.15,288.514 C 258.574,288.514 257.997,288.514 257.421,288.514 C 257.425,289.381 256.722,289.543 256.558,290.243 z M 261.741,290.243 C 263.098,290.16 264.736,290.358 264.333,288.514 C 263.758,288.514 263.18,288.514 262.604,288.514 C 262.606,289.381 261.905,289.543 261.741,290.243 z M 298.884,289.377 C 298.875,288.505 297.37,288.292 297.157,289.377 C 297.338,290.421 298.117,289.91 298.884,289.377 z M 101.936,291.969 C 102.196,289.695 100.738,289.134 98.479,289.377 C 97.611,292.261 99.679,292.212 101.936,291.969 z M 135.624,291.969 C 136.487,291.969 137.35,291.969 138.215,291.969 C 138.215,291.106 138.215,290.242 138.215,289.377 C 137.35,289.377 136.486,289.377 135.624,289.377 C 135.624,290.243 135.624,291.106 135.624,291.969 z M 141.67,292.834 C 142.791,291.685 142.808,289.618 140.807,289.377 C 139.684,290.526 139.667,292.593 141.67,292.834 z M 215.958,291.106 C 216.82,291.106 217.687,291.106 218.549,291.106 C 218.66,289.554 217.691,289.085 215.958,289.377 C 215.958,289.955 215.958,290.531 215.958,291.106 z M 220.278,291.106 C 221.808,290.91 224.602,291.977 223.733,289.377 C 221.763,289.136 220.485,289.586 220.278,291.106 z M 225.461,291.106 C 226.991,290.91 229.785,291.977 228.915,289.377 C 227.763,289.377 226.611,289.377 225.461,289.377 C 225.461,289.955 225.461,290.531 225.461,291.106 z M 229.779,291.106 C 232.07,291.093 234.867,291.585 234.963,289.377 C 233.183,289.902 228.96,287.984 229.779,291.106 z M 236.691,291.106 C 237.554,291.106 238.417,291.106 239.282,291.106 C 239.393,289.554 238.424,289.085 236.691,289.377 C 236.691,289.955 236.691,290.531 236.691,291.106 z M 241.008,291.106 C 241.873,291.106 242.737,291.106 243.6,291.106 C 243.71,289.554 242.744,289.085 241.008,289.377 C 241.008,289.955 241.008,290.531 241.008,291.106 z M 245.329,291.106 C 246.859,290.91 249.655,291.977 248.783,289.377 C 247.633,289.377 246.479,289.377 245.329,289.377 C 245.329,289.955 245.329,290.531 245.329,291.106 z M 254.83,289.377 C 253.574,289.85 250.365,288.369 250.512,290.242 C 251.767,289.769 254.976,291.25 254.83,289.377 z M 288.52,291.969 C 291.071,291.355 294.618,291.732 295.429,289.377 C 292.763,291.658 288.654,287.157 288.52,291.969 z M 108.845,292.834 C 109.363,290.59 108.497,289.725 106.253,290.242 C 105.659,292.564 108.04,291.912 108.845,292.834 z M 113.165,293.698 C 113.408,291.438 112.85,289.983 110.573,290.243 C 110.331,292.501 110.889,293.958 113.165,293.698 z M 149.445,292.834 C 151.964,294.104 151.964,288.972 149.445,290.242 C 149.445,291.106 149.445,291.969 149.445,292.834 z M 152.899,293.698 C 155.043,293.826 157.091,293.859 157.219,291.969 C 155.501,291.958 156.119,289.614 153.762,290.242 C 153.492,291.411 152.533,291.892 152.899,293.698 z M 117.483,293.698 C 118.001,291.454 117.138,290.591 114.891,291.106 C 114.297,293.429 116.677,292.775 117.483,293.698 z M 272.107,294.56 C 272.97,294.56 273.834,294.56 274.699,294.56 C 274.94,292.591 274.49,291.315 272.97,291.106 C 272.698,292.274 271.741,292.755 272.107,294.56 z M 285.928,292.834 C 287.26,290.226 281.456,290.56 281.608,291.969 C 283.646,293.082 283.215,291.856 285.928,292.834 z M 54.424,291.969 C 53.407,292.105 51.973,291.822 51.832,292.834 C 52.849,292.698 54.286,292.981 54.424,291.969 z M 57.881,294.56 C 58.638,292.781 55.639,290.681 55.29,292.834 C 56.649,292.911 55.965,295.036 57.881,294.56 z M 82.066,293.698 C 82.931,293.698 83.794,293.698 84.657,293.698 C 84.768,292.146 83.8,291.677 82.066,291.969 C 82.066,292.546 82.066,293.122 82.066,293.698 z M 125.257,294.56 C 125.257,293.698 125.257,292.834 125.257,291.969 C 124.394,291.969 123.529,291.969 122.666,291.969 C 122.51,293.853 123.374,294.718 125.257,294.56 z M 158.946,293.698 C 159.811,293.698 160.675,293.698 161.537,293.698 C 161.65,292.146 160.681,291.677 158.946,291.969 C 158.946,292.546 158.946,293.122 158.946,293.698 z M 166.721,292.834 C 166.561,291.553 164.634,292.041 163.266,291.969 C 161.422,295.147 167.665,295.867 166.721,292.834 z M 171.041,292.834 C 170.879,291.553 168.952,292.041 167.584,291.969 C 165.74,295.147 171.982,295.867 171.041,292.834 z M 171.904,294.56 C 173.04,295.668 175.088,295.668 176.224,294.56 C 176.484,292.285 175.026,291.726 172.767,291.969 C 172.805,293.158 172.362,293.866 171.904,294.56 z M 177.087,295.425 C 180.011,295.666 182.046,296.798 185.725,296.288 C 186,294.285 185.586,292.973 184.862,291.969 C 181.15,294.366 181.964,292.027 177.088,291.969 C 177.087,293.122 177.087,294.273 177.087,295.425 z M 186.588,292.834 C 185.983,295.824 189.616,295.931 190.908,294.56 C 191.513,291.571 187.879,291.463 186.588,292.834 z M 267.788,294.56 C 268.651,294.56 269.517,294.56 270.379,294.56 C 270.379,293.698 270.379,292.834 270.379,291.969 C 269.517,291.969 268.651,291.969 267.788,291.969 C 267.788,292.834 267.788,293.698 267.788,294.56 z M 131.304,294.56 C 132.939,294.367 133.212,295.535 134.759,295.425 C 135.411,292.478 131.459,292.056 131.304,294.56 z M 191.771,295.425 C 193.74,295.666 195.019,295.217 195.228,293.697 C 194.06,293.426 193.577,292.467 191.771,292.834 C 191.771,293.698 191.771,294.56 191.771,295.425 z M 196.091,295.425 C 196.954,295.425 197.82,295.425 198.683,295.425 C 198.683,294.56 198.683,293.697 198.683,292.834 C 198.107,292.834 197.53,292.834 196.954,292.834 C 196.907,293.938 195.848,294.03 196.091,295.425 z M 200.409,296.289 C 202.572,296.436 203.113,294.962 203.866,293.698 C 202.698,293.427 202.217,292.468 200.409,292.835 C 200.409,293.985 200.409,295.138 200.409,296.289 z M 204.729,296.289 C 206.988,296.532 208.444,295.974 208.183,293.698 C 207.079,293.651 206.988,292.592 205.592,292.835 C 205.321,294.002 204.362,294.484 204.729,296.289 z M 209.048,295.425 C 211.018,295.666 212.294,295.217 212.503,293.697 C 210.306,293.251 209.153,292.225 209.048,295.425 z M 217.687,293.698 C 217.687,294.273 217.687,294.848 217.687,295.426 C 221.177,298.915 222.424,290.441 217.687,293.698 z M 224.596,296.289 C 224.839,294.32 224.389,293.041 222.869,292.835 C 221.507,294.117 221.907,296.694 224.596,296.289 z M 226.325,293.698 C 226.325,294.273 226.325,294.848 226.325,295.426 C 226.851,295.476 227.347,295.554 227.188,296.289 C 227.763,296.289 228.34,296.289 228.916,296.289 C 228.966,295.763 229.044,295.267 229.779,295.426 C 229.779,294.849 229.779,294.274 229.779,293.698 C 229.253,293.648 228.757,293.567 228.916,292.835 C 228.341,292.835 227.764,292.835 227.188,292.835 C 227.138,293.361 227.06,293.855 226.325,293.698 z M 253.966,293.698 C 255.116,295.138 253.651,299.194 256.558,298.881 C 255.426,294.943 256.67,296.151 258.285,293.698 C 257.15,292.589 255.1,292.589 253.966,293.698 z M 259.15,295.425 C 260.758,295.306 262.035,294.857 262.604,293.697 C 261.321,292.337 258.745,292.734 259.15,295.425 z M 290.247,294.56 C 291.604,294.48 293.241,294.677 292.838,292.834 C 292.263,292.834 291.688,292.834 291.109,292.834 C 291.114,293.7 290.411,293.862 290.247,294.56 z M 60.471,295.425 C 61.048,295.425 61.624,295.425 62.199,295.425 C 62.199,294.848 62.199,294.273 62.199,293.697 C 61.624,293.697 61.048,293.697 60.471,293.697 C 60.471,294.273 60.471,294.848 60.471,295.425 z M 136.487,294.56 C 136.304,297.13 139.569,297.608 140.807,296.289 C 141.412,293.298 137.778,293.19 136.487,294.56 z M 215.958,296.289 C 215.958,295.426 215.958,294.56 215.958,293.698 C 215.095,293.698 214.229,293.698 213.366,293.698 C 213.211,295.582 214.074,296.445 215.958,296.289 z M 230.642,295.425 C 231.927,296.785 234.501,296.387 234.099,293.697 C 232.129,293.457 230.851,293.906 230.642,295.425 z M 239.282,294.56 C 238.115,294.289 237.633,293.331 235.826,293.698 C 235.175,296.643 239.126,297.067 239.282,294.56 z M 240.145,295.425 C 241.675,295.228 244.472,296.295 243.6,293.697 C 241.63,293.457 240.354,293.906 240.145,295.425 z M 245.329,295.425 C 245.819,299.343 250.275,290.479 246.192,294.56 C 245.781,294.972 245.199,294.399 245.329,295.425 z M 249.646,295.425 C 250.511,295.425 251.375,295.425 252.238,295.425 C 252.351,293.874 251.382,293.403 249.646,293.697 C 249.646,294.273 249.646,294.848 249.646,295.425 z M 285.928,295.425 C 287.285,295.342 288.922,295.54 288.52,293.697 C 287.942,293.697 287.367,293.697 286.791,293.697 C 286.793,294.565 286.092,294.724 285.928,295.425 z M 142.533,297.152 C 145.052,298.423 145.052,293.291 142.533,294.56 C 142.533,295.425 142.533,296.289 142.533,297.152 z M 101.936,298.017 C 102.092,296.131 101.228,295.268 99.345,295.425 C 99.187,297.31 100.049,298.173 101.936,298.017 z M 105.39,298.88 C 106.989,297.357 105.168,296.205 103.662,295.425 C 102.573,296.438 102.969,299.015 105.39,298.88 z M 267.788,298.88 C 269.793,298.582 271.835,298.321 271.242,295.425 C 268.538,295.025 267.386,296.176 267.788,298.88 z M 274.699,298.017 C 274.823,296.996 276.236,296.059 274.699,295.425 C 274.573,296.447 273.16,297.382 274.699,298.017 z M 277.291,297.152 C 278.646,297.071 280.285,297.269 279.88,295.425 C 279.305,295.425 278.73,295.425 278.154,295.425 C 278.156,296.292 277.453,296.453 277.291,297.152 z M 107.117,298.017 C 108.223,298.064 108.315,299.123 109.708,298.88 C 109.755,297.395 109.043,296.666 107.982,296.288 C 107.984,297.154 107.281,297.316 107.117,298.017 z M 250.511,299.744 C 252.787,300.004 253.346,298.549 253.103,296.289 C 250.827,296.029 250.266,297.485 250.511,299.744 z M 258.285,298.88 C 260.254,299.121 261.532,298.671 261.741,297.151 C 260.458,295.792 257.881,296.191 258.285,298.88 z M 262.604,298.017 C 263.887,299.377 266.463,298.978 266.059,296.288 C 264.089,296.048 262.813,296.498 262.604,298.017 z M 164.992,298.88 C 165.57,298.88 166.145,298.88 166.721,298.88 C 166.721,298.305 166.721,297.727 166.721,297.151 C 166.145,297.151 165.57,297.151 164.992,297.151 C 164.992,297.727 164.992,298.305 164.992,298.88 z M 169.312,299.744 C 170.175,299.744 171.041,299.744 171.904,299.744 C 171.904,298.881 171.904,298.015 171.904,297.152 C 171.041,297.152 170.175,297.152 169.312,297.152 C 169.312,298.015 169.312,298.88 169.312,299.744 z M 173.632,299.744 C 174.208,299.744 174.783,299.744 175.359,299.744 C 175.408,298.64 176.467,298.549 176.224,297.152 C 175.359,297.152 174.495,297.152 173.632,297.152 C 173.632,298.015 173.632,298.88 173.632,299.744 z M 177.95,299.744 C 178.815,299.744 179.679,299.744 180.542,299.744 C 180.542,298.881 180.542,298.015 180.542,297.152 C 179.679,297.152 178.815,297.152 177.95,297.152 C 177.95,298.015 177.95,298.88 177.95,299.744 z M 182.27,298.017 C 181.624,301.306 187.864,299.884 186.588,297.152 C 184.584,296.877 183.271,297.291 182.27,298.017 z M 187.453,299.744 C 188.316,299.744 189.179,299.744 190.044,299.744 C 190.044,298.881 190.044,298.015 190.044,297.152 C 189.466,297.152 188.891,297.152 188.315,297.152 C 188.269,298.256 187.208,298.35 187.453,299.744 z M 191.771,298.017 C 190.439,300.623 196.242,300.289 196.091,298.88 C 195.262,297.422 193.375,296.333 191.771,298.017 z M 197.817,299.744 C 200.338,301.015 200.338,295.883 197.817,297.152 C 197.817,298.015 197.817,298.88 197.817,299.744 z M 219.413,300.607 C 222.574,300.419 222.727,299.421 225.462,300.607 C 225.733,299.439 226.691,298.958 226.325,297.152 C 223.072,298.801 222.668,298.801 219.413,297.152 C 218.414,298.431 218.414,299.331 219.413,300.607 z M 228.05,299.744 C 228.915,299.744 229.779,299.744 230.642,299.744 C 230.642,298.881 230.642,298.015 230.642,297.152 C 230.067,297.152 229.492,297.152 228.915,297.152 C 228.867,298.256 227.808,298.35 228.05,299.744 z M 232.371,299.744 C 233.524,299.744 234.675,299.744 235.826,299.744 C 235.826,298.881 235.826,298.015 235.826,297.152 C 234.963,297.152 234.099,297.152 233.234,297.152 C 233.272,298.341 232.829,299.048 232.371,299.744 z M 241.008,298.017 C 240.849,296.737 238.922,297.224 237.554,297.152 C 235.71,300.33 241.953,301.05 241.008,298.017 z M 241.874,299.744 C 242.737,299.744 243.601,299.744 244.466,299.744 C 244.466,298.881 244.466,298.015 244.466,297.152 C 243.601,297.152 242.737,297.152 241.874,297.152 C 241.874,298.015 241.874,298.88 241.874,299.744 z M 246.192,299.744 C 247.055,299.744 247.921,299.744 248.783,299.744 C 248.783,298.881 248.783,298.015 248.783,297.152 C 247.921,297.152 247.055,297.152 246.192,297.152 C 246.192,298.015 246.192,298.88 246.192,299.744 z M 293.701,297.152 C 292.684,297.289 291.25,297.006 291.109,298.017 C 292.128,297.881 293.562,298.165 293.701,297.152 z M 201.274,299.744 C 202.631,299.663 204.268,299.859 203.866,298.017 C 203.291,298.017 202.713,298.017 202.137,298.017 C 202.139,298.882 201.438,299.044 201.274,299.744 z M 207.32,298.88 C 205.232,301.779 210.218,296.792 207.32,298.88 L 207.32,298.88 z M 210.775,299.744 C 211.35,299.744 211.928,299.744 212.504,299.744 C 212.504,299.169 212.504,298.594 212.504,298.017 C 211.929,298.017 211.351,298.017 210.775,298.017 C 210.775,298.593 210.775,299.168 210.775,299.744 z M 214.232,299.744 C 215.589,299.663 217.226,299.859 216.821,298.017 C 216.246,298.017 215.671,298.017 215.095,298.017 C 215.097,298.882 214.394,299.044 214.232,299.744 z M 140.807,300.607 C 141.67,300.607 142.533,300.607 143.398,300.607 C 143.509,299.057 142.539,298.586 140.807,298.88 C 140.807,299.456 140.807,300.032 140.807,300.607 z M 286.792,298.88 C 284.166,299.421 279.352,297.774 278.154,299.743 C 280.779,299.203 285.593,300.85 286.792,298.88 z M 224.596,304.064 C 226.128,303.866 228.922,304.933 228.05,302.335 C 226.9,302.335 225.748,302.335 224.596,302.335 C 224.596,302.911 224.596,303.488 224.596,304.064 z M 231.507,304.064 C 232.082,304.064 232.658,304.064 233.234,304.064 C 234.579,301.937 230.301,301.523 230.642,303.199 C 231.17,303.248 231.666,303.329 231.507,304.064 z M 71.7,306.655 C 70.686,306.79 69.249,306.507 69.111,307.518 C 70.127,307.384 71.562,307.667 71.7,306.655 z M 46.649,310.11 C 48.137,310.157 48.866,309.445 49.241,308.381 C 47.756,308.336 47.027,309.046 46.649,310.11 z"/>
      <path d="M 141.67,50.965 C 128.719,57.019 118.376,65.678 109.708,76.017 C 115.122,65.876 126.046,53.773 141.67,50.965 z"/>
      <path d="M 107.117,79.471 C 99.267,89.75 94.393,104.792 90.706,118.342 C 89.724,121.95 91.623,128.384 87.249,130.437 C 87.498,125.213 89.442,121.687 89.84,116.614 C 85.258,117.503 82.133,119.849 77.748,120.934 C 83.157,116.842 92.845,117.027 92.432,107.113 C 89.589,104.89 84.521,107.808 82.931,109.704 C 81.222,106.239 90.115,105.968 93.295,104.521 C 93.099,102.991 94.167,100.195 91.569,101.066 C 96.354,102.206 94.389,97.824 97.615,91.563 C 100.139,86.668 103.387,83.227 107.117,79.471 z"/>
      <path d="M 162.403,120.071 C 165.163,117.929 168.641,122.437 172.767,121.798 C 170.229,123.717 165.354,120.606 162.403,120.071 z"/>
      <path d="M 76.883,137.347 C 80.666,134.54 69.869,142.551 76.883,137.347 L 76.883,137.347 z"/>
      <path d="M 80.34,149.439 C 81.431,147.615 77.853,154.627 75.157,154.623 C 76.519,152.529 78.247,150.803 80.34,149.439 z"/>
      <path d="M 149.445,168.443 C 149.532,166.796 152.663,169.131 153.763,169.308 C 152.979,171.653 150.736,168.428 149.445,168.443 z"/>
      <path d="M 103.662,168.443 C 103.449,169.383 101.944,169.029 101.935,170.171 C 89.66,171.651 98.519,169.479 103.662,168.443 z"/>
      <path d="M 138.215,171.035 C 135.402,169.409 142.465,173.497 138.215,171.035 L 138.215,171.035 z"/>
      <path d="M 159.811,172.763 C 166.015,172.614 173.877,178.27 180.541,180.537 C 174.35,180.672 166.742,174.764 159.811,172.763 z"/>
      <path d="M 152.899,176.218 C 147.137,173.62 159.796,178.458 152.899,176.218 L 152.899,176.218 z"/>
      <path d="M 143.398,178.81 C 148.352,177.853 151.65,182.675 143.398,178.81 L 143.398,178.81 z"/>
      <path d="M 101.936,178.81 C 101.384,180.561 97.897,179.378 97.616,181.401 C 94.996,179.822 100.071,178.756 101.936,178.81 z"/>
      <path d="M 145.99,191.767 C 143.177,190.139 150.24,194.229 145.99,191.767 L 145.99,191.767 z"/>
      <path d="M 195.228,184.856 C 197.965,187.59 197.609,193.415 203.001,193.494 C 198.945,195.738 204.128,198.503 207.32,198.678 C 205.306,200.077 202.64,199.481 204.729,202.997 C 200.76,197.75 197.233,192.066 195.228,184.856 z"/>
      <path d="M 164.129,269.51 C 163.379,266.168 166.239,266.437 166.721,264.326 C 170.288,265.398 166.395,266.839 165.858,268.646 C 165.997,269.659 167.433,269.375 168.449,269.509 C 169.621,269.242 169.165,267.346 169.312,266.054 C 170.557,266.25 169.612,268.631 171.041,268.646 C 170.257,270.454 168.492,271.28 165.858,271.238 C 166.175,269.768 165.184,269.608 164.129,269.51 z"/>
      <path d="M 343.803,304.927 C 341.472,310.657 328.02,305.268 323.071,308.381 C 324.122,304.814 337.003,305.624 343.803,304.927 z"/>
      <path d="M 304.067,306.655 C 304.314,307.804 296.339,308.111 292.838,308.382 C 295.766,306.992 299.707,306.613 304.067,306.655 z"/>
      <path d="M 332.575,314.43 C 335.113,316.197 326.844,314.389 326.526,316.156 C 326.731,318.544 331.4,316.466 330.846,319.611 C 324.595,317.013 314.829,319.99 309.25,315.294 C 303.803,315.029 299.02,315.43 294.565,316.156 C 294.77,318.544 299.437,316.466 298.883,319.611 C 291.758,318.744 286.424,320.152 279.878,317.884 C 279.996,316.463 285.81,316.463 285.927,317.884 C 297.026,312.282 316.585,315.144 332.575,314.43 z M 324.799,315.293 C 322.174,315.834 317.36,314.187 316.161,316.155 C 318.376,317.94 323.009,316.608 324.799,315.293 z"/>
    </g>
    <g id="star" transform="matrix(-0.2519838,4.5381278e-2,4.5381278e-2,0.2519838,430.2584,123.69412)">
      <path d="M 51.785715,724.68361 L 48.928572,769.32646 C 48.928572,769.32646 9.2857128,792.52597 9.4642858,793.07646 C 9.5193858,793.24632 43.928572,805.04075 43.928572,805.04075 L 26.785715,850.57646 L 71.428572,829.86218 L 99.642853,863.25503 L 106.25,822.36218 L 147.32143,820.04075 L 114.28571,789.86218 L 147.32143,754.86218 L 88.214283,758.25503 L 51.785715,724.68361 z" style="fill:#241c1c;"/>
      <path d="M 28.035715,790.21932 L 63.571429,794.50503 L 68.214286,788.61218 L 76.250001,788.61217 L 48.214286,825.93361 L 75.178572,813.96932 L 93.214283,838.61218 L 92.857143,791.64789 L 96.964283,791.6479 L 97.857143,793.25504 L 100.35714,792.8979 L 101.07143,789.14789 L 91.607143,780.57646 L 110.35714,770.39789 L 75.535714,770.93361 L 62.321429,749.50503 C 62.321429,749.50503 60.998928,778.98325 60.892857,779.50503 C 60.800982,779.95697 37.907463,785.75221 28.035715,790.21932 z" style="fill:#e18629;"/>
      <path d="M 89.642853,810.75503 L 90.357143,786.82647 L 93.571433,788.43361 L 87.678572,779.68361 L 95.178573,774.50503 C 95.178573,774.50503 74.048425,776.17349 73.571429,775.39789 C 73.095095,774.62336 64.464286,758.25503 64.464286,758.25503 L 64.642857,774.86218 L 66.785715,778.43361 L 65.892857,782.18361 L 40.714286,788.61218 L 58.928572,789.68361 L 65.714286,785.21932 L 81.964286,785.57646 L 56.607143,818.79075 L 73.035715,810.04075 L 74.285715,802.71932 L 81.785715,796.11218 L 89.642853,810.75503 z" style="fill:#ffb600;stroke:none;"/>
      <path d="M 75.535715,805.93361 L 80.535715,801.11218 C 80.535715,801.11218 84.464286,818.25503 85.357143,818.25503 C 86.25,818.25503 88.035713,817.36218 88.035713,817.36218 L 88.035713,822.36218 L 85.892857,822.36218 L 75.535715,805.93361 z" style="fill:#000203;"/>
      <path d="M 101.69642,795.75504 L 101.25,809.32646 L 125,812.54075 L 101.69642,795.75504 z" style="fill:#ec9e31;"/>
      <path d="M 111.07142,757.71932 C 150.7411,713.8866 206.90935,674.71575 261.74868,654.40313 C 327.72067,629.96695 390.7734,626.36745 409.28571,612.00503 C 377.5,594.50503 326.69684,588.9436 313.21428,589.86218 C 315.26786,586.6479 331.95463,551.00082 339.64286,533.07646 C 195.54972,563.3271 109.23547,670.07227 76.428572,748.43361 C 75.818295,749.8913 87.142857,765.21932 87.142857,765.21932 C 87.142857,765.21932 108.12499,758.43361 111.07142,757.71932 z" style="fill:#241c1c;"/>
      <g style="fill: #fcda08;">
        <path d="M 85.357143,759.86218 C 106.69643,688.70147 187.28037,590.05509 281.07143,564.86218 C 280.21963,569.31212 248.90031,582.86399 250.35714,584.86218 C 252.49312,587.79191 262.333,579.39869 264.28572,582.8979 C 265.49127,585.05821 251.46722,594.1105 247.23214,597.63004 C 242.17288,601.8345 230.14372,606.90059 231.07143,608.79075 C 232.0076,610.69814 279.50048,598.54054 279.19643,601.46933 C 278.89103,604.41112 239.01581,622.2432 240.89286,625.66575 C 242.80767,629.15713 247.44169,624.22906 250.80357,622.80861 C 254.13259,621.40204 282.78057,615.43477 286.96428,612.80861 C 291.06958,610.23166 293.20112,604.20783 297.03539,609.84555 C 300.89812,615.52512 282.67823,620.43491 280.625,622.54074 C 278.57099,624.64737 269.99752,629.71848 272.14285,632.00503 C 274.19745,634.19487 278.98429,628.95228 281.07143,627.89789 C 283.08713,626.87959 295.75564,624.63994 302.41072,621.5586 C 303.50854,621.05031 309.4244,618.50732 311.11966,620.34825 C 312.77094,622.14143 301.44063,629.09085 357.32143,612.63004 C 287.5253,638.62251 180.92779,651.50588 98.571433,759.50503 C 97.465073,760.00418 84.375,761.38004 85.357143,759.86218 z"/>
        <path d="M 330,605.9336 C 328.64955,603.58718 314.14855,608.44737 315.44643,610.84432 C 317.53278,614.69745 331.32768,608.24046 330,605.9336 z"/>
        <path d="M 303.79076,594.79716 C 302.44031,592.45074 291.35908,597.6537 292.63005,600.06503 C 294.00212,602.66816 305.11844,597.10402 303.79076,594.79716 z"/>
        <path d="M 307.09393,564.41796 C 303.35652,562.39554 293.1139,572.7287 295.12965,573.6144 C 298.7553,575.20749 309.6221,565.78602 307.09393,564.41796 z"/>
        <path d="M 297.09393,581.56082 C 294.9046,579.16747 268.15026,589.45124 271.1118,592.18583 C 274.13692,594.97913 299.68883,584.39753 297.09393,581.56082 z"/>
      </g>
      <path d="M 102.14285,739.50503 C 108.27976,745.62206 114.51597,720.67247 128.57143,713.79075 C 153.10222,701.78018 198.79083,663.82156 224.64286,651.64789 C 260.16647,634.91989 269.05765,631.39775 268.57143,629.32647 C 268.07429,627.20868 222.54464,636.29075 221.78571,633.79075 C 221.01012,631.23588 249.82885,614.15711 249.10714,612.00503 C 248.3314,609.69181 215.73234,617.68254 215.35714,615.75503 C 214.97395,613.7865 246.08624,589.91061 244.64285,586.29075 C 243.63283,583.75773 217.12985,599.16442 195.60632,616.86502 C 175.20929,633.63922 159.77274,654.895 150.17857,662.36218 C 130.92373,677.34829 116.10516,696.47468 110.78807,713.74508 C 107.27952,725.1412 97.282773,734.66069 102.14285,739.50503 z" style="fill:url(#radialGradient26665);"/>
      <g style="fill: #241c1c;">
        <path d="M 101.24999,737.09432 C 102.07988,738.32467 108.57464,725.65128 108.39285,724.50503 C 107.17083,723.67406 99.222993,734.08919 101.24999,737.09432 z"/>
        <path d="M 113.82342,713.63834 C 115.51601,715.00218 117.40195,710.64965 119.86431,706.9772 C 122.44936,703.12176 127.53368,700.58422 125.87699,698.63834 C 124.65497,697.80737 111.75771,709.2839 113.82342,713.63834 z"/>
        <path d="M 136.68057,699.35263 C 137.30371,699.92825 139.56286,697.33727 141.2536,695.84549 C 142.1087,695.09101 140.32988,692.25438 140.252,691.76334 C 139.02998,690.93237 135.45714,698.2225 136.68057,699.35263 z"/>
        <path d="M 150.69842,685.33476 C 151.98836,686.06861 156.86235,680.49887 156.68056,679.35262 C 155.45854,678.52165 149.65356,684.74035 150.69842,685.33476 z"/>
        <path d="M 151.23413,668.72762 C 150.9279,669.50225 153.21764,672.02735 153.95138,670.83809 C 157.94656,664.36265 173.97337,650.74455 173.91271,649.35262 C 169.83355,645.66451 153.04318,664.15165 151.23413,668.72762 z"/>
        <path d="M 171.50199,674.79905 C 184.19624,664.35584 189.89807,663.98101 199.09128,650.24548 C 194.89401,647.85933 188.82954,655.84541 185.81253,658.79993 C 182.98516,661.56696 174.21279,666.60148 171.50199,674.79905 z"/>
        <path d="M 182.30557,647.74548 C 184.56403,649.7794 205.61236,630.40958 204.627,628.72762 C 199.83355,627.18236 179.61202,645.31972 182.30557,647.74548 z"/>
        <path d="M 184.26985,632.56691 C 184.44945,632.79597 189.3423,628.24081 195.42197,623.90165 C 202.20271,619.06212 209.32517,615.96993 211.85914,612.83476 C 203.94069,611.55736 180.86414,628.22318 184.26985,632.56691 z"/>
        <path d="M 203.28771,643.45977 C 203.7908,644.20563 214.34676,642.1391 216.93159,637.68687 C 217.72482,636.32058 214.16286,632.21471 213.55556,632.65619 C 212.24426,632.89665 201.2607,640.45464 203.28771,643.45977 z"/>
        <path d="M 236.80261,640.68229 C 236.97558,642.46059 248.32368,638.9714 248.76689,636.12872 C 243.97344,634.58346 236.36754,636.20941 236.80261,640.68229 z"/>
        <path d="M 197.96331,662.64657 C 221.48439,645.77371 209.30582,661.73925 227.07047,646.75372 C 224.76938,646.01192 214.7457,645.88995 207.53333,649.39569 C 216.12453,650.40142 200.95527,657.72904 197.96331,662.64657 z"/>
      </g>
    </g>
  </g>
</svg>
