<?xml version="1.0" encoding="iso-8859-1"?>
<!-- Generator: Adobe Illustrator 19.0.0, SVG Export Plug-In . SVG Version: 6.00 Build 0)  -->
<svg version="1.1" id="Layer_1" xmlns="http://www.w3.org/2000/svg" xmlns:xlink="http://www.w3.org/1999/xlink" x="0px" y="0px"
	 viewBox="0 0 512.002 512.002" style="enable-background:new 0 0 512.002 512.002;" xml:space="preserve">
<g>
	<g>
		<path d="M506.835,350.846l-41.2-17.066c-17.983-50.302-17.983-105.253,0-155.555l36.738-15.218
			c4.269-1.768,6.297-6.663,4.528-10.93c-1.768-4.268-6.661-6.297-10.93-4.528l-36.739,15.218
			c-48.284-22.853-87.141-61.709-109.994-109.994l6.52-15.74c1.769-4.269-0.258-9.162-4.528-10.93
			c-4.264-1.766-9.161,0.259-10.93,4.528l-6.52,15.74c-50.303,17.982-105.253,17.982-155.556-0.001l-8.872-21.42
			c-1.768-4.268-6.661-6.297-10.93-4.528c-4.269,1.769-6.297,6.663-4.528,10.93l8.872,21.42
			c-22.853,48.284-61.71,87.141-109.994,109.994L11.57,145.699c-4.269-1.768-9.162,0.26-10.93,4.528
			c-1.769,4.269,0.258,9.162,4.528,10.93l41.2,17.066c17.983,50.302,17.983,105.253,0,155.555L9.63,348.999
			c-4.269,1.768-6.297,6.663-4.528,10.93c1.334,3.221,4.448,5.167,7.732,5.167c1.066,0,2.152-0.205,3.198-0.639l36.739-15.218
			c48.284,22.854,87.141,61.71,109.994,109.994l-6.52,15.74c-1.769,4.269,0.258,9.162,4.528,10.93
			c1.046,0.434,2.13,0.639,3.198,0.639c3.282,0,6.397-1.945,7.732-5.167l6.52-15.74c50.304-17.984,105.252-17.984,155.556,0
			l8.872,21.419c1.334,3.221,4.448,5.167,7.732,5.167c1.066,0,2.152-0.205,3.198-0.639c4.269-1.768,6.297-6.663,4.528-10.93
			l-8.872-21.42c22.853-48.284,61.71-87.14,109.994-109.994l41.201,17.066c1.046,0.434,2.132,0.639,3.198,0.639
			c3.283,0,6.397-1.945,7.732-5.167C513.132,357.508,511.104,352.614,506.835,350.846z M340.822,73.091
			c22.688,41.373,56.717,75.402,98.091,98.092l-38.212,15.828c-30.019-20.252-55.455-45.689-75.707-75.707L340.822,73.091z
			 M388.783,301.947l-35.563-14.731c-1.979-20.739-1.979-41.689,0-62.428l35.563-14.731
			C383.988,240.609,383.988,271.396,388.783,301.947z M123.22,210.059l35.563,14.731c1.979,20.74,1.979,41.69,0,62.428
			l-35.563,14.731C128.016,271.397,128.016,240.61,123.22,210.059z M335.819,280.008l-57.956-24.005l57.956-24.007
			C334.707,247.972,334.707,264.033,335.819,280.008z M329.416,216.54l-57.956,24.007l24.007-57.957
			C305.976,194.67,317.334,206.029,329.416,216.54z M302.674,165.187l14.731-35.563c18.212,24.994,39.982,46.764,64.976,64.976
			l-35.563,14.731C330.753,196.064,315.939,181.25,302.674,165.187z M231.979,176.149c8.006,0.551,16.042,0.84,24.022,0.84
			s16.017-0.289,24.022-0.84l-24.022,57.994L231.979,176.149z M280.024,335.858c-8.007-0.551-16.043-0.84-24.022-0.84
			s-16.016,0.289-24.022,0.84l24.022-57.994L280.024,335.858z M287.227,158.756c-10.369,0.976-20.846,1.5-31.227,1.5
			c-10.38,0-20.857-0.524-31.226-1.5l-14.719-35.536c30.318,4.707,61.574,4.707,91.891,0L287.227,158.756z M216.538,182.588
			l24.005,57.957l-57.956-24.007C194.67,206.029,206.029,194.67,216.538,182.588z M176.184,231.997l57.956,24.006l-57.956,24.007
			C177.296,264.034,177.296,247.973,176.184,231.997z M165.186,209.33L129.623,194.6c24.994-18.213,46.764-39.982,64.976-64.976
			l14.731,35.563C196.064,181.25,181.25,196.064,165.186,209.33z M165.186,302.675c16.067,13.268,30.881,28.082,44.144,44.144
			l-14.731,35.564c-18.212-24.994-39.982-46.764-64.976-64.977L165.186,302.675z M182.586,295.466l57.957-24.005l-24.007,57.956
			C206.029,317.337,194.67,305.978,182.586,295.466z M224.775,353.25c10.37-0.976,20.848-1.5,31.227-1.5
			c10.379,0,20.857,0.524,31.227,1.5l14.718,35.532c-15.158-2.359-30.548-3.57-45.945-3.57s-30.787,1.211-45.944,3.57
			L224.775,353.25z M295.465,329.418l-24.005-57.957l57.956,24.007C317.332,305.979,305.974,317.337,295.465,329.418z
			 M346.818,302.675l35.563,14.731c-24.994,18.213-46.764,39.982-64.976,64.976l-14.731-35.563
			C315.937,330.758,330.751,315.944,346.818,302.675z M325.364,66.689l-15.834,38.225c-35.117,6.797-71.941,6.797-107.058,0
			l-15.834-38.226C231.938,79.9,280.064,79.9,325.364,66.689z M171.182,73.091l15.828,38.213
			c-20.252,30.019-45.689,55.455-75.709,75.707l-38.213-15.828C114.463,148.493,148.492,114.465,171.182,73.091z M66.687,186.641
			l38.212,15.828c6.907,35.547,6.907,71.52,0,107.067l-38.212,15.828C79.899,280.065,79.899,231.941,66.687,186.641z
			 M171.183,438.916c-22.69-41.374-56.719-75.403-98.093-98.093l38.213-15.828c30.019,20.252,55.455,45.689,75.709,75.709
			L171.183,438.916z M256.002,435.404c-23.357,0-46.713,3.308-69.363,9.914l15.834-38.226c35.113-6.796,71.944-6.796,107.057,0
			l15.834,38.226C302.714,438.713,279.359,435.404,256.002,435.404z M340.821,438.916l-15.828-38.213
			c20.252-30.019,45.689-55.455,75.709-75.707l38.213,15.828C397.54,363.513,363.511,397.542,340.821,438.916z M445.316,325.365
			l-38.212-15.828c-6.907-35.547-6.907-71.52,0-107.067l38.212-15.828C432.106,231.941,432.106,280.065,445.316,325.365z"/>
	</g>
</g>
<g>
</g>
<g>
</g>
<g>
</g>
<g>
</g>
<g>
</g>
<g>
</g>
<g>
</g>
<g>
</g>
<g>
</g>
<g>
</g>
<g>
</g>
<g>
</g>
<g>
</g>
<g>
</g>
<g>
</g>
</svg>
