<?xml version="1.0" encoding="UTF-8" standalone="no"?>
<svg
   xmlns:dc="http://purl.org/dc/elements/1.1/"
   xmlns:cc="http://creativecommons.org/ns#"
   xmlns:rdf="http://www.w3.org/1999/02/22-rdf-syntax-ns#"
   xmlns:svg="http://www.w3.org/2000/svg"
   xmlns="http://www.w3.org/2000/svg"
   xmlns:sodipodi="http://sodipodi.sourceforge.net/DTD/sodipodi-0.dtd"
   xmlns:inkscape="http://www.inkscape.org/namespaces/inkscape"
   viewBox="0 0 2052.6252 1536.1501"
   fill="none"
   version="1.1"
   id="svg172"
   sodipodi:docname="svg.svg"
   width="100%"
   height="100%"
   inkscape:version="1.0.1 (0767f8302a, 2020-10-17)">
  <metadata
     id="metadata176">
    <rdf:RDF>
      <cc:Work
         rdf:about="">
        <dc:format>image/svg+xml</dc:format>
        <dc:type
           rdf:resource="http://purl.org/dc/dcmitype/StillImage" />
        <dc:title></dc:title>
      </cc:Work>
    </rdf:RDF>
  </metadata>
  <sodipodi:namedview
     pagecolor="#ffffff"
     bordercolor="#666666"
     borderopacity="1"
     objecttolerance="10"
     gridtolerance="10"
     guidetolerance="10"
     inkscape:pageopacity="0"
     inkscape:pageshadow="2"
     inkscape:window-width="3142"
     inkscape:window-height="1283"
     id="namedview174"
     showgrid="false"
     fit-margin-top="0"
     fit-margin-left="0"
     fit-margin-right="0"
     fit-margin-bottom="0"
     inkscape:zoom="0.52719665"
     inkscape:cx="1329.9921"
     inkscape:cy="1554.9451"
     inkscape:window-x="0"
     inkscape:window-y="30"
     inkscape:window-maximized="0"
     inkscape:current-layer="svg172" />
  <path
     d="m 2048.24,949.581 c -9.93,-63.22 -40.25,-124.664 -85.25,-172.85 -42.5,-45.932 -98.57,-81.102 -162.44,-101.807 l -4.16,-1.334 c -5.13,-1.656 -10.94,-3.526 -17.21,-5.17 -7.33,-2.05 -14.56,-4.022 -22.08,-5.635 l -10.98,-2.406 -10.42,-1.847 c -7.25,-1.405 -14.29,-2.305 -20.49,-3.096 l -3.48,-0.445 c -14.99,-1.78 -30.08,-2.671 -45.17,-2.666 -5.9,0 -11.83,0.3 -17.76,0.569 16.03,-13.128 31.21,-27.262 45.45,-42.317 20.94,-21.979 39.31,-46.264 54.76,-72.388 16.23,-27.431 28.84,-56.846 37.53,-87.514 8.71,-31.049 13.39,-63.09 13.93,-95.335 0.9,-57.803 -10.79,-117.04 -34.52,-175.525 C 1739.96,113.522 1691.3,58.4611 1632.63,28.8389 1601.41,12.9166 1567.5,3.31824 1534.47,1.071838 c -5.78,-0.38 -11.61,-0.57141075 -17.32,-0.57141075 -28.92,0 -56.35,4.80519275 -81.38,14.22807275 -33.19,12.3577 -62.06,32.1227 -83.36,57.0135 -21.74,25.1929 -36.6,56.682 -41.84,88.578 -1.69,10.287 -2.55,20.694 -2.56,31.12 -4.88,-8.678 -10.24,-17.282 -16.19,-25.771 C 1210.94,50.2747 1045.69,46.9449 1027.12,46.9449 h -1.62 c -18.57,0 -183.822,3.33 -264.702,118.7241 -5.944,8.48 -11.293,17.073 -16.174,25.74 -0.017,-10.384 -0.872,-20.75 -2.558,-30.996 C 736.811,128.423 721.945,96.9345 700.332,71.8786 678.909,46.8508 650.037,27.0858 617.007,14.7866 591.822,5.30522 564.391,0.5 535.469,0.5 529.757,0.5 523.93,0.691607 518.04,1.079407 485.12,3.31781 451.213,12.9162 420.163,28.7527 361.317,58.4607 312.661,113.522 286.886,179.286 c -23.948,59.014 -35.633,118.25 -34.725,176.301 0.543,32.084 5.2,63.966 13.856,94.865 8.7,30.771 21.349,60.286 37.633,87.806 15.422,26.07 33.753,50.305 54.642,72.24 14.259,15.083 29.464,29.243 45.52,42.397 -5.924,-0.27 -11.853,-0.57 -17.752,-0.57 -15.259,0 -30.504,0.909 -45.655,2.724 l -2.993,0.387 c -6.206,0.791 -13.238,1.691 -19.769,2.962 l -11.144,1.98 -10.742,2.356 c -7.755,1.663 -14.987,3.635 -22.313,5.685 -6.288,1.648 -12.115,3.526 -17.265,5.185 l -4.433,1.421 c -63.549,20.603 -119.612,55.773 -161.979004,101.549 -45.1334,48.343 -75.46,109.786 -85.3566902,172.803 -5.17829998,31.642 -5.21373998,63.913 -0.10492,95.563 2.61776,15.91 6.6202102,31.55 11.9617102,46.76 5.4483,15.16 12.2889,29.78 20.4342,43.67 8.2248,13.92 17.8419,26.96 28.7031,38.93 5.4296,5.91 11.1883,11.51 17.2486,16.77 5.7489,5.02 11.767,9.72 18.028004,14.09 6.32,4.51 12.13,8.24 18.752,12.07 6.585,3.8 13.226,7.22 19.499,10.06 13.515,6.15 27.652,10.83 42.167,13.96 13.836,3.01 27.953,4.54 42.113,4.55 38.489,0.02 76.034,-11.91 107.449,-34.15 l -0.43,9.66 -0.058,8.55 c 0.05,4.21 0.214,10.02 0.469,13.92 0.25,4.58 0.591,9.17 1.053,13.46 0.947,9.41 2.317,18.59 4.1,27.45 3.749,18.1 9.182,35.81 16.228,52.91 7.122,17.21 15.79,33.73 25.897,49.38 10.187,15.55 21.74,30.15 34.522,43.65 48.953,51.74 116.355,87.11 189.597,99.55 21.173,3.66 42.62,5.48 64.105,5.47 13.447,-0.01 26.884,-0.7 40.261,-2.07 16.715,-1.8 33.31,-4.58 49.701,-8.31 7.455,-1.72 15.34,-3.8 24.574,-6.51 l 8.715,-2.67 12.412,-4.12 12.241,-4.38 c 2.754,-1.03 5.376,-2.09 7.998,-3.15 l 3.631,-1.46 c 8.801,-3.66 15.61,-6.66 21.832,-9.65 14.672,-6.91 28.93,-14.67 42.703,-23.24 28.679,-17.69 54.631,-39.47 77.041,-64.63 21.984,-24.54 40.057,-52.3 53.597,-82.34 1.96,-4.27 3.67,-8.66 5.46,-13.02 1.75,4.29 3.44,8.63 5.36,12.82 6.75,14.84 14.56,29.17 23.37,42.87 9.11,13.98 19.26,27.25 30.36,39.71 22.33,25.08 48.19,46.78 76.76,64.44 13.77,8.58 28.04,16.35 42.72,23.28 6.45,3.1 13.26,6.1 22.74,10.03 l 2.95,1.19 c 2.63,1.06 5.25,2.12 8.62,3.37 l 10.65,3.82 14.09,4.68 8.48,2.6 c 8.76,2.56 16.65,4.64 24.18,6.37 16.45,3.75 33.1,6.53 49.87,8.33 13.3,1.35 26.65,2.03 40.02,2.04 21.42,0.02 42.8,-1.8 63.91,-5.44 73.43,-12.47 140.83,-47.84 189.85,-99.64 12.81,-13.55 24.39,-28.21 34.6,-43.81 10.06,-15.59 18.68,-32.06 25.77,-49.21 7.06,-17.13 12.5,-34.88 16.25,-53.02 1.75,-8.7 3.12,-17.88 4.03,-26.99 0.5,-4.58 0.84,-9.18 1.06,-13.32 0.28,-4.34 0.45,-10.15 0.5,-14.36 l -0.09,-9.22 -0.4,-8.99 c 31.41,22.23 68.96,34.17 107.45,34.15 14.18,-0.01 28.31,-1.54 42.16,-4.56 14.41,-3.11 28.45,-7.75 41.88,-13.84 6.51,-2.95 13.15,-6.37 19.7,-10.16 6.66,-3.84 12.47,-7.57 18.79,-12.08 6.16,-4.29 12.08,-8.92 17.74,-13.85 6.21,-5.37 12.11,-11.1 17.66,-17.15 10.88,-12.01 20.51,-25.1 28.74,-39.07 8.14,-13.93 14.98,-28.58 20.41,-43.78 5.28,-15.1 9.24,-30.63 11.84,-46.42 5.09,-31.57 5.06,-63.751 -0.09,-95.309 z M 783.482,626.354 c -0.744,1.278 -1.517,2.545 -2.213,3.837 -0.57,1.057 -1.071,2.133 -1.61,3.199 -0.67,1.325 -1.37,2.643 -1.992,3.982 -0.492,1.06 -0.915,2.138 -1.378,3.207 -0.59,1.364 -1.208,2.721 -1.749,4.1 -0.419,1.067 -0.77,2.152 -1.159,3.228 -0.508,1.403 -1.044,2.798 -1.502,4.213 -0.338,1.046 -0.608,2.109 -0.918,3.162 -0.432,1.464 -0.89,2.92 -1.269,4.397 -0.26,1.02 -0.456,2.056 -0.693,3.082 -0.128,0.559 -0.243,1.12 -0.374,1.679 -12.466,-9.002 -25.177,-17.689 -38.304,-25.794 -18.532,-11.247 -35.883,-21.037 -53.363,-30.112 l -12.236,-6.355 -11.837,-6.417 c -7.435,-4.116 -15.339,-8.672 -23.205,-13.356 -16.298,-9.485 -31.706,-19.404 -46.225,-29.755 -14.984,-10.408 -29.351,-21.677 -43.029,-33.75 -7,-6.351 -13.567,-12.589 -19.777,-18.795 -5.916,-6.03 -11.751,-12.47 -17.014,-18.806 -5.267,-6.342 -10.21,-12.947 -14.811,-19.788 l -2.571,-3.992 -3.474,-5.275 c -0.145,-0.236 -0.295,-0.481 -0.449,-0.736 -25.585,-42.225 -34.866,-92.341 -26.099,-140.927 l 1.041,-5.802 c 3.379,-18.479 8.322,-36.637 14.777,-54.279 l 0.939,-2.583 1.459,-3.822 1.956,-4.739 c 0.952,-2.195 2.466,-5.322 3.957,-8.198 2.761,-5.408 5.961,-10.58 9.567,-15.465 3.318,-4.471 7.027,-8.638 11.083,-12.452 3.976,-3.639 8.231,-6.962 12.725,-9.939 12.194,-7.825 26.345,-12.058 40.833,-12.212 8.025,0.141 15.77,2.967 22.001,8.026 6.23,5.059 10.586,12.06 12.372,19.884 19.042,83.421 -109.054,109.787 -109.086,109.787 0,0 70.624,96.169 187.328,35.05 15.182,-7.951 27.722,-22.004 38.906,-37.074 -7.528,79.885 12.667,157.247 34.876,214.752 l 6.402,15.935 c 10.793,26.153 23.454,51.496 37.886,75.832 -0.624,1.013 -1.176,2.049 -1.771,3.071 z m 786.358,-174.11 -3.47,5.275 -2.57,3.992 c -4.6,6.841 -9.55,13.446 -14.81,19.788 -5.27,6.336 -11.1,12.777 -17.02,18.807 -6.21,6.206 -12.77,12.443 -19.77,18.794 -13.68,12.073 -28.05,23.342 -43.03,33.75 -14.52,10.347 -29.93,20.265 -46.23,29.756 -7.86,4.684 -15.77,9.239 -23.2,13.355 l -11.84,6.418 -12.24,6.355 c -17.48,9.074 -34.83,18.865 -53.36,30.111 -13.13,8.105 -25.84,16.793 -38.3,25.794 -0.13,-0.559 -0.25,-1.12 -0.38,-1.678 -0.23,-1.026 -0.43,-2.062 -0.69,-3.082 -0.38,-1.477 -0.84,-2.934 -1.27,-4.398 -0.31,-1.053 -0.58,-2.116 -0.92,-3.161 -0.45,-1.416 -0.99,-2.811 -1.5,-4.213 -0.39,-1.077 -0.74,-2.162 -1.16,-3.229 -0.54,-1.379 -1.16,-2.735 -1.75,-4.099 -0.46,-1.069 -0.88,-2.148 -1.38,-3.207 -0.62,-1.34 -1.32,-2.657 -1.99,-3.983 -0.54,-1.066 -1.04,-2.142 -1.61,-3.199 -0.69,-1.292 -1.47,-2.559 -2.21,-3.836 -0.6,-1.023 -1.15,-2.059 -1.77,-3.072 14.43,-24.335 27.09,-49.678 37.88,-75.832 l 6.41,-15.934 c 22.21,-57.506 42.4,-134.868 34.87,-214.752 11.19,15.07 23.73,29.123 38.91,37.073 116.7,61.119 187.33,-35.049 187.33,-35.049 -0.04,0 -128.13,-26.366 -109.09,-109.788 1.79,-7.824 6.14,-14.825 12.37,-19.884 6.23,-5.059 13.98,-7.884 22,-8.026 14.49,0.155 28.64,4.388 40.84,12.213 4.49,2.977 8.75,6.3 12.72,9.939 4.06,3.814 7.77,7.981 11.08,12.451 3.61,4.885 6.81,10.057 9.57,15.465 1.49,2.876 3.01,6.003 3.96,8.198 l 1.95,4.739 1.46,3.823 0.94,2.583 c 6.46,17.641 11.4,35.8 14.78,54.279 l 1.04,5.796 c 8.77,48.588 -0.51,98.705 -26.1,140.933 -0.15,0.254 -0.3,0.499 -0.45,0.736 z"
     fill="#190735"
     id="path2"
     style="fill:#073335;fill-opacity:1;stroke:#11372c;stroke-opacity:1" />
  <path
     d="m 1120.32,744.498 c 0,0 16.97,-39.499 63.14,-55.871 0,0 3.65,70.374 -63.14,55.871 z"
     fill="#3372fe"
     id="path4" />
  <path
     d="m 928.5,742.832 c 0,0 -15.917,-37.057 -59.235,-52.417 0,0 -3.418,66.022 59.235,52.417 z"
     fill="#f43253"
     id="path6" />
  <path
     d="m 924.42,625.622 c 38.082,20.329 92.99,66.433 72.086,114.697 -11.89,27.448 -31.42,39.083 -43.641,43.865 -0.752,0.291 -1.395,0.809 -1.838,1.482 -0.444,0.674 -0.666,1.469 -0.636,2.274 0.03,0.806 0.31,1.582 0.802,2.221 0.492,0.639 1.171,1.108 1.943,1.342 1.542,0.465 2.982,0.856 4.308,1.186 0.763,0.189 1.451,0.605 1.971,1.194 0.521,0.589 0.85,1.322 0.945,2.102 0.094,0.78 -0.051,1.57 -0.416,2.266 -0.366,0.696 -0.934,1.264 -1.63,1.63 -36.327,19.146 -82.814,13.594 -112.639,-10.535 -27.166,-21.977 -48.155,-84.158 -28.308,-126.42 0.356,-0.748 0.942,-1.362 1.672,-1.753 0.73,-0.391 1.566,-0.537 2.385,-0.417 0.82,0.12 1.579,0.499 2.167,1.082 0.588,0.583 0.974,1.339 1.101,2.157 2.609,16.811 10.286,48.792 32.38,73.083 25.691,28.247 61.895,21.271 79.848,10.569 0.72,-0.423 1.557,-0.601 2.386,-0.509 0.83,0.092 1.608,0.449 2.218,1.019 0.61,0.569 1.02,1.321 1.168,2.142 0.148,0.821 0.028,1.669 -0.344,2.416 -0.046,0.091 -0.092,0.183 -0.139,0.275 -0.391,0.753 -0.524,1.614 -0.379,2.45 0.146,0.836 0.561,1.601 1.183,2.178 0.623,0.578 1.417,0.935 2.261,1.017 0.845,0.082 1.693,-0.115 2.415,-0.561 12.084,-7.452 21.404,-18.646 26.542,-31.88 0.3,-0.737 0.366,-1.548 0.191,-2.323 -0.176,-0.776 -0.586,-1.479 -1.174,-2.014 -0.588,-0.536 -1.326,-0.878 -2.115,-0.98 -0.789,-0.103 -1.59,0.04 -2.295,0.407 -5.941,3.216 -14.461,5.178 -24.775,0.164 -20.488,-9.961 -21.835,-53.49 -115.872,-83.593 -0.609,-0.19 -1.257,-0.229 -1.885,-0.113 -0.628,0.115 -1.219,0.383 -1.721,0.778 -17.211,13.383 -23.92,32.024 -26.184,48.082 -0.642,4.548 -7.305,4.338 -7.698,-0.239 -1.912,-22.304 4.503,-40.301 14.65,-55.296 14.094,-20.829 7.318,-33.865 7.318,-33.865 l 0.151,0.05 c -0.208,-0.403 -0.384,-0.774 -0.59,-1.175 -0.05,-0.097 -0.095,-0.193 -0.136,-0.294 -5.191,-12.966 -82.59,-130.15 -59.597,-234.71 3.806,-17.308 15.557,-16.703 8.057,-0.646 -0.236,0.504 -0.469,1.01 -0.7,1.518 -0.338,0.752 -0.906,1.377 -1.623,1.783 -0.717,0.407 -1.546,0.574 -2.364,0.477 -0.819,-0.097 -1.585,-0.452 -2.187,-1.015 -0.603,-0.562 -1.01,-1.302 -1.163,-2.112 0,0 1.006,-51.873 17.851,-113.454 29.9,-109.304 128.388,-185.9635 241.68,-188.6289 3.47,-0.0818 5.36,-0.0567 5.36,-0.0567 0,0 166.27,-2.2854 241.43,101.9766 128.09,177.676 -26.76,418.722 -29.7,423.257 -0.03,0.048 -0.05,0.092 -0.08,0.142 -2.7,4.649 -4.98,8.889 -7.07,12.943 0.04,-0.011 0.17,-0.055 0.17,-0.055 0,0 -6.78,13.036 7.32,33.865 10.14,14.995 16.56,32.992 14.65,55.296 -0.4,4.577 -7.06,4.787 -7.7,0.239 -2.27,-16.058 -8.98,-34.699 -26.19,-48.082 -0.5,-0.395 -1.09,-0.663 -1.72,-0.778 -0.63,-0.116 -1.27,-0.077 -1.88,0.113 -94.04,30.103 -95.39,73.632 -115.87,83.593 -10.32,5.014 -18.84,3.052 -24.78,-0.164 -0.71,-0.367 -1.51,-0.509 -2.29,-0.407 -0.79,0.102 -1.53,0.444 -2.12,0.98 -0.59,0.535 -1,1.238 -1.17,2.014 -0.18,0.775 -0.11,1.586 0.19,2.323 5.14,13.236 14.46,24.431 26.54,31.883 0.72,0.445 1.56,0.644 2.4,0.567 0.84,-0.077 1.64,-0.426 2.26,-0.994 0.62,-0.568 1.04,-1.324 1.2,-2.154 0.15,-0.829 0.03,-1.686 -0.35,-2.44 -0.05,-0.113 -0.11,-0.226 -0.17,-0.339 -0.37,-0.747 -0.49,-1.594 -0.34,-2.416 0.14,-0.822 0.55,-1.573 1.16,-2.143 0.61,-0.571 1.39,-0.928 2.22,-1.02 0.83,-0.092 1.67,0.086 2.39,0.508 17.95,10.703 54.16,17.679 79.85,-10.568 22.09,-24.291 29.77,-56.273 32.38,-73.084 0.12,-0.818 0.51,-1.574 1.1,-2.157 0.59,-0.583 1.34,-0.962 2.16,-1.082 0.82,-0.119 1.66,0.027 2.39,0.417 0.73,0.391 1.32,1.005 1.67,1.753 19.85,42.263 -1.14,104.443 -28.31,126.42 -29.82,24.129 -76.31,29.682 -112.64,10.535 -0.69,-0.365 -1.26,-0.933 -1.63,-1.629 -0.36,-0.696 -0.51,-1.487 -0.41,-2.267 0.09,-0.78 0.42,-1.513 0.94,-2.102 0.52,-0.588 1.21,-1.005 1.97,-1.194 1.33,-0.33 2.77,-0.721 4.31,-1.185 0.77,-0.235 1.45,-0.704 1.95,-1.343 0.49,-0.638 0.77,-1.415 0.8,-2.22 0.03,-0.806 -0.19,-1.601 -0.64,-2.274 -0.44,-0.673 -1.08,-1.192 -1.84,-1.482 -12.22,-4.783 -31.75,-16.417 -43.64,-43.866 -20.91,-48.263 34.01,-94.368 72.09,-114.697"
     fill="#280b60"
     id="path8" />
  <path
     d="M 906.423,265.624 1018.85,198.339 V 459.28 Z m 120.427,-78.651 v -2.745 l -2.32,1.392 c -1.17,-0.272 -2.41,-0.082 -3.46,0.571 l -123.291,73.786 c -1.015,0.597 -1.781,1.606 -2.111,2.76 l -0.127,0.076 0.074,0.127 c -0.26,1.096 -0.128,2.306 0.551,3.412 l 123.284,212.376 c 0.62,1.119 1.62,1.846 2.7,2.172 l 4.7,8.093 v -9.346 c 0.81,-0.861 1.27,-2.012 1.27,-3.185 V 190.137 c 0,-1.355 -0.57,-2.421 -1.27,-3.164 z"
     fill="#00ffb6"
     stroke="#00ffb6"
     stroke-width="8"
     id="path10" />
  <path
     d="m 1153.47,267.004 -118.48,196.27 V 198.2 Z m 8.79,-5.604 -0.02,-0.018 -0.03,-0.018 -129.47,-75.161 c -1.04,-0.637 -2.28,-0.82 -3.43,-0.55 l -2.32,-1.35 v 2.682 c -0.85,0.895 -1.27,2.076 -1.27,3.184 v 289.765 c 0,1.172 0.45,2.323 1.27,3.184 v 8.888 l 4.58,-7.598 c 1.25,-0.343 2.14,-1.173 2.66,-1.947 l 0.04,-0.07 0.04,-0.072 129.48,-214.485 c 0.96,-1.474 0.7,-2.995 0.61,-3.408 0,-0.015 0,-0.03 0,-0.045 l 0.12,-0.209 -0.21,-0.12 c -0.35,-1.226 -1.16,-2.117 -2.05,-2.652 z"
     fill="#00ffb6"
     stroke="#00ffb6"
     stroke-width="8"
     id="path12" />
  <path
     d="m 898.671,269.363 122.769,58.083 c 0.44,0.213 1.13,0.458 1.98,0.458 1.64,0 3.34,-0.893 4.19,-2.603 l 0.07,-0.148 0.06,-0.154 c 0.84,-2.105 0.07,-4.753 -2.23,-5.91 l -0.05,-0.022 -0.04,-0.021 -122.79,-58.093 -0.107,-0.05 -0.11,-0.045 c -2.139,-0.861 -4.79,-0.046 -5.93,2.25 l -0.074,0.148 -0.061,0.154 c -0.837,2.105 -0.064,4.753 2.235,5.91 l 0.044,0.022 z"
     fill="#00ffb6"
     stroke="#00ffb6"
     stroke-width="8"
     id="path14" />
  <path
     d="m 1028.46,319.413 c -2.27,0.985 -3.44,3.683 -2.38,6.076 0.8,1.898 2.6,2.797 4.24,2.797 0.01,0 0.13,10e-4 0.26,-0.006 0.15,-0.007 0.38,-0.025 0.66,-0.081 0.42,-0.085 0.8,-0.227 1.13,-0.399 l 129.21,-58.39 c 2.29,-0.993 3.46,-3.727 2.36,-6.134 -1,-2.25 -3.73,-3.452 -6.16,-2.3 z"
     fill="#00ffb6"
     stroke="#00ffb6"
     stroke-width="8"
     id="path16" />
  <path
     d="m 990.368,891.592 c 2.316,-7.252 5.049,-14.364 8.185,-21.3 2.707,-5.633 4.807,-10.06 6.457,-12.887 1.59,-2.897 2.41,-4.391 2.41,-4.391 l -3.73,3.344 c -3.682,3.264 -7.195,6.713 -10.527,10.332 -12.926,14.143 -23.421,30.329 -31.058,47.902 -10.392,22.806 -17.775,53.162 -20.767,87.478 -1.719,17.13 -2.193,35.24 -2.85,53.62 -0.329,9.13 -0.732,18.51 -1.263,27.33 -0.355,4.67 -0.714,9.4 -1.076,14.18 -0.33,5.07 -0.663,10.19 -0.999,15.36 -1.374,20 -2.711,39.74 -5.733,59.67 0,0 -18.475,193.06 -168.11,245.87 0,0 22.078,-15.58 41.409,-48.6 -9.57,5.12 -19.425,9.7 -29.518,13.7 -5.156,2.1 -10.47,4 -15.828,5.84 l -8.044,2.64 -7.608,2.37 -9.453,2.72 -1.196,0.34 -0.598,0.17 c 0.123,-0.04 -1.118,0.33 0.123,-0.05 l -2.045,0.51 -4.088,1.03 c -5.454,1.34 -10.945,2.44 -16.423,3.53 -10.907,2.08 -21.927,3.52 -33.002,4.32 -21.741,1.71 -43.611,0.68 -65.097,-3.06 -42.311,-7.35 -81.541,-26.41 -110.47,-54.25 -14.263,-13.57 -26.123,-29.47 -35.076,-47 -4.307,-8.58 -7.799,-17.54 -10.43,-26.77 -1.411,-4.56 -2.59,-9.19 -3.538,-13.87 -0.505,-2.34 -0.916,-4.69 -1.29,-7.05 -0.408,-2.53 -0.609,-3.82 -0.946,-6.45 l -0.394,-4.71 -0.097,-1.18 c -0.039,-0.95 -0.006,0.63 -0.014,0.3 l -0.018,-0.47 -0.078,-1.88 -0.354,-7.53 c -0.093,-2.5 0.036,-4.97 0.024,-7.45 -0.003,-2.49 0.006,-4.97 0.236,-7.4 0.412,-9.71 1.555,-19.38 3.419,-28.92 1.909,-9.32 4.525,-18.48 7.826,-27.41 3.374,-8.75 7.297,-17.27 11.744,-25.52 17.846,-31.57 44.346,-57.36 76.375,-74.36 3.572,-1.94 7.186,-3.71 10.823,-5.34 -27.907,-2.93 -47.782,-1.12 -47.782,-1.12 103.424,-43.9 172.712,0 172.712,0 l -0.018,0.03 c 12.287,6.95 22.97,16.42 31.35,27.77 2.829,3.71 5.43,7.58 7.79,11.59 3.797,6.52 7.083,13.33 9.829,20.36 4.482,11.67 5.698,18.47 5.698,18.47 0,0 0.272,-1.68 0.519,-5 0.367,-4.93 0.413,-9.87 0.139,-14.81 -0.425,-8.1 -1.605,-16.15 -3.525,-24.04 -2.632,-11.06 -6.812,-21.7 -12.416,-31.59 -7.243,-12.87 -16.842,-24.27 -28.297,-33.59 -6.62,-5.38 -13.732,-10.13 -21.242,-14.18 -8.085,-4.24 -16.514,-7.8 -25.197,-10.624 -4.462,-1.628 -9.03,-2.654 -13.71,-3.984 -2.341,-0.508 -4.7,-1.019 -7.077,-1.534 -2.186,-0.437 -3.984,-0.95 -6.832,-1.282 -5.268,-0.749 -10.752,-1.49 -15.748,-1.779 -5.158,-0.506 -10.365,-0.549 -15.682,-0.638 -10.888,-0.033 -21.759,0.837 -32.502,2.6 -11.29,1.768 -22.43,4.391 -33.323,7.841 -44.474,13.95 -89.524,42.95 -122.998,87.33 -8.496,11.25 -16.058,23.18 -22.612,35.67 -6.62,12.93 -12.22,26.35 -16.751,40.16 -1.23,3.47 -2.104,7.04 -3.161,10.58 -1.027,3.56 -2.045,7.13 -2.801,10.75 -0.811,3.62 -1.625,7.26 -2.441,10.9 -0.598,3.67 -1.198,7.35 -1.8,11.04 -0.64,3.7 -1.031,7.41 -1.386,11.14 -0.348,3.72 -0.813,7.47 -1.033,11.21 -0.171,3.75 -0.343,7.5 -0.515,11.26 l -0.118,2.83 -0.029,0.71 0.006,1.48 -0.015,1.18 -0.061,4.72 c 0.048,3.66 0.179,8.69 0.42,12.45 0.217,3.94 0.505,7.89 0.928,11.84 0.795,7.91 1.94,15.83 3.528,23.71 3.291,15.88 8.061,31.42 14.247,46.41 6.264,15.15 13.888,29.7 22.78,43.47 9.026,13.77 19.261,26.7 30.585,38.65 45.376,47.96 107.282,78.58 170.862,89.39 31.525,5.38 63.638,6.42 95.446,3.1 15.542,-1.67 30.972,-4.26 46.211,-7.74 7.548,-1.73 14.998,-3.74 22.359,-5.91 l 5.497,-1.67 2.745,-0.84 3.081,-1.01 9.523,-3.18 11.172,-4 c 3.643,-1.37 7.022,-2.79 10.533,-4.18 6.944,-2.88 13.849,-5.86 20.664,-9.13 13.708,-6.46 27.03,-13.71 39.899,-21.72 25.887,-16.01 49.326,-35.68 69.592,-58.4 9.946,-11.16 19.036,-23.04 27.194,-35.57 7.857,-12.22 14.816,-25.01 20.824,-38.24 11.358,-24.9 19.446,-51.17 24.062,-78.14 9.206,-51.33 6.236,-99.38 1.491,-140.15 -0.567,-4.91 -1.127,-9.76 -1.681,-14.57 -0.534,-5.08 -1.063,-10.12 -1.585,-15.09 -1.176,-10.48 -2.805,-19.92 -4.342,-29.13 -3.124,-18.29 -5.903,-35 -8.048,-50.64 -1.963,-14.452 -3.091,-29.003 -3.377,-43.583 -0.183,-12.329 0.608,-24.652 2.366,-36.857 1.507,-9.964 3.76,-19.801 6.74,-29.428 z"
     fill="#280b60"
     id="path18" />
  <path
     d="m 923.839,890.325 c -9.996,13.253 -21.344,25.43 -33.86,36.335 -8.48,7.435 -17.769,13.894 -27.692,19.255 -10.771,5.949 -22.564,9.824 -34.765,11.424 -24.873,3.321 -51.784,-5.96 -77.45,-26.065 -6.384,-5.017 -12.828,-10.419 -19.106,-16.438 -3.114,-3.082 -6.272,-6.118 -9.34,-9.424 l -2.323,-2.437 c -0.966,-0.946 -1.693,-1.893 -2.553,-2.843 -1.659,-1.899 -3.325,-3.806 -4.998,-5.722 -3.278,-3.833 -6.781,-7.672 -10.438,-11.583 -3.616,-3.88 -7.261,-7.792 -10.934,-11.734 -7.375,-7.797 -14.884,-15.801 -22.852,-23.584 -31.714,-31.274 -67.921,-63.152 -111.98,-90.478 -10.953,-6.872 -22.556,-13.22 -34.454,-19.409 -12.074,-5.916 -24.489,-11.632 -37.503,-16.553 -54.116,-20.916 -112.52,-28.304 -170.14,-21.522 -7.206,0.938 -14.456,1.785 -21.541,3.154 l -10.688,1.898 -10.533,2.312 c -7.056,1.51 -13.929,3.412 -20.798,5.333 -6.936,1.798 -13.606,4.079 -20.36,6.216 -54.786,17.763 -108.095,49.213 -148.570504,92.943 -40.6355,43.531 -67.7511,98.542 -76.5954702,154.847 -4.54444494,27.822 -4.58812894,56.19 -0.1294,84.03 2.23726,13.65 5.66021,27.07 10.2299702,40.12 4.6156,12.87 10.4116,25.29 17.3139,37.09 6.8401,11.6 14.8386,22.48 23.873,32.47 4.4751,4.87 9.2266,9.48 14.231,13.81 4.6592,4.08 9.5428,7.89 14.6278,11.42 5.1376,3.7 10.4597,7.13 15.945604,10.28 5.2971,3.07 10.7071,5.88 16.2261,8.37 10.868,4.94 22.235,8.7 33.906,11.2 22.9,4.97 45.849,4.75 66.257,-0.12 19.108,-4.3 37.102,-12.56 52.82,-24.25 13.383,-9.84 24.792,-22.12 33.63,-36.18 7.303,-11.48 12.672,-24.07 15.892,-37.29 4.346,-17.65 4.753,-36.04 1.191,-53.87 -0.89,-4.5 -2.041,-8.95 -3.448,-13.32 -0.971,-2.93 -1.473,-4.44 -1.473,-4.44 0,0 -0.068,1.59 -0.201,4.65 -0.154,3.05 -0.573,7.57 -1.36,13.31 -2.215,16.02 -7.529,31.46 -15.644,45.45 -5.522,9.29 -12.37,17.72 -20.328,25.04 -8.974,8.14 -19.276,14.68 -30.459,19.34 -7.077,2.87 -14.447,4.95 -21.978,6.21 v 0.01 c 0,0 -0.106,0.02 -0.306,0.04 -5.219,0.87 -10.5,1.31 -15.79,1.31 -0.034,0 -0.069,0 -0.103,0 -30.804,1.14 -97.461,-3.57 -127.391704,-61.35 13.822,9.57 29.186704,16.71 45.423704,21.08 -0.73,-0.86 -1.444,-1.72 -2.161,-2.62 -2.367,-2.89 -4.487,-6.02 -6.593,-9.17 -4.254,-6.5 -7.849,-13.4 -10.731,-20.61 -11.685904,-29.57 -13.146604,-66.4 -3.573,-101.911 9.393,-35.624 29.573,-69.477 57.606,-96.34 28.072,-27.023 63.76,-47.149 104.054,-59.555 14.049,-4.428 28.339,-8.049 42.802,-10.845 -26.949,-9.95 -58.672,-15.82 -58.672,-15.82 125.429,-13.937 230.384,32.845 230.384,32.845 l -0.073,0.012 c 8.623,3.361 17.189,7.011 25.699,10.948 38.125,17.724 74.865,40.18 109.479,63.262 8.689,5.848 17.256,11.615 25.701,17.299 l 24.909,17.29 c 2.091,1.448 4.173,2.89 6.246,4.326 l 3.044,2.135 3.289,2.474 c 4.319,3.322 8.834,6.441 13.253,9.536 8.89,6.09 18.147,11.626 27.719,16.577 18.989,9.723 39.197,16.849 59.632,19.441 20.416,2.516 40.639,0.195 57.653,-5.926 15.364,-5.668 29.522,-14.183 41.729,-25.099 9.692,-8.747 18.331,-18.594 25.742,-29.341 9.946,-14.477 18.085,-30.115 24.237,-46.567 2.175,-5.694 4.028,-11.505 5.55,-17.407 -3.22,5.082 -6.693,9.999 -10.407,14.731 z"
     fill="#280b60"
     id="path20" />
  <path
     d="m 820.062,815 c -2.375,-12.477 -8.101,-25.314 -15.825,-37.8 -7.81,-12.462 -17.837,-24.564 -29.314,-36.302 -12.233,-12.16 -25.259,-23.495 -38.992,-33.931 -14.407,-10.835 -29.943,-21.477 -46.535,-31.723 -16.664,-10.11 -34.233,-20.137 -52.716,-29.734 -4.375,-2.271 -8.786,-4.561 -13.235,-6.869 -4.237,-2.301 -8.509,-4.619 -12.814,-6.955 -8.633,-4.779 -17.392,-9.822 -26.099,-15.007 C 567,606.48 549.584,595.322 532.597,583.217 c -17.213,-11.984 -33.721,-24.951 -49.44,-38.837 -7.779,-7.057 -15.414,-14.274 -22.815,-21.673 -7.326,-7.465 -14.357,-15.187 -20.988,-23.177 -6.602,-7.937 -12.793,-16.206 -18.55,-24.776 -1.045,-1.523 -1.986,-3.098 -2.999,-4.638 l -0.027,0.096 c 0,0 -81.17,-116.794 -54.03,-250.293 0,0 5.894,28.779 16.141,53.365 4.048,-22.205 9.978,-44.025 17.726,-65.223 l 0.337,-0.963 c -0.1,0.235 0.462,-1.204 -0.181,0.405 l 0.204,-0.536 0.818,-2.14 1.635,-4.277 c 0.605,-1.631 0.953,-2.368 1.361,-3.345 l 1.181,-2.855 c 1.755,-4.08 3.891,-8.517 6,-12.591 4.16,-8.116 8.98,-15.876 14.413,-23.201 5.253,-7.062 11.123,-13.643 17.542,-19.664 6.309,-5.804 13.071,-11.096 20.221,-15.825 21.56,-13.955 46.747,-21.263 72.428,-21.014 -15.977,-17.708 -37.429,-30.6708 -37.429,-30.6708 66.544,13.1964 98.253,42.7398 113.394,68.5158 2.919,4.542 5.395,9.353 7.394,14.368 2.05,5.273 3.601,10.726 4.632,16.289 1.148,5.031 1.743,10.173 1.775,15.334 0.242,3.431 0.463,7.255 0.499,10.94 0.346,13.556 -1.446,27.082 -5.309,40.08 -3.435,11.168 -9.18,21.488 -16.863,30.29 -7.073,7.875 -15.451,14.474 -24.764,19.505 -17.65,9.552 -34.495,13.16 -45.806,15.084 -5.891,1.035 -11.845,1.672 -17.822,1.905 0,0 1.484,0.536 4.442,1.383 4.382,1.257 8.831,2.27 13.325,3.035 7.354,1.296 14.797,2.013 22.263,2.144 10.429,0.27 20.852,-0.731 31.04,-2.98 13.396,-2.868 26.141,-8.209 37.58,-15.748 12.935,-8.322 25.103,-20.904 34.523,-36.333 9.574,-15.407 15.814,-33.57 19.813,-52.547 0.972,-4.752 1.852,-9.506 2.505,-14.769 0.281,-2.269 0.563,-4.552 0.847,-6.849 l 0.199,-1.65 0.154,-2.389 0.271,-4.036 c 0.661,-11.363 0.06,-22.763 -1.79,-33.994 C 674.594,115.517 663.627,91.0104 646.129,70.7246 628.681,50.3463 605.081,34.8596 579.284,25.2504 553.401,15.5084 525.083,12.1246 496.678,13.9955 468.228,15.9261 439.731,24.257 413.336,37.7181 360.124,64.5849 318.874,115.16 297.557,169.537 c -20.35,50.157 -33.638,106.399 -32.725,164.894 0.494,29.405 4.756,58.625 12.68,86.946 7.949,28.045 19.487,54.946 34.327,80.035 14.251,24.078 31.19,46.462 50.489,66.72 18.102,19.235 37.868,36.832 59.068,52.587 19.919,14.804 40.765,28.316 62.411,40.455 21.025,11.652 41.939,21.897 62.512,30.944 10.361,4.409 20.56,8.525 30.747,12.462 5.146,1.933 10.251,3.851 15.316,5.754 4.92,1.75 9.8,3.485 14.64,5.207 18.497,6.082 36.24,12.199 52.916,18.722 16.765,6.348 32.578,12.864 47.111,19.802 13.775,6.233 27.151,13.314 40.05,21.202 24.02,14.556 42.204,30.692 51.119,47.126 4.147,7.318 6.539,15.498 6.988,23.897 0.239,6.621 -0.75,13.23 -2.918,19.491 -1.421,4.117 -3.271,8.073 -5.519,11.803 -0.783,1.319 -1.651,2.586 -2.599,3.792 1.352,-0.784 2.651,-1.656 3.888,-2.611 3.738,-2.795 7.111,-6.048 10.04,-9.683 5.026,-6.123 8.752,-13.205 10.952,-20.815 2.839,-9.176 3.518,-20.849 1.012,-33.267 z"
     fill="#280b60"
     id="path22" />
  <path
     d="m 1062.25,891.592 c -2.31,-7.252 -5.05,-14.364 -8.18,-21.3 -2.71,-5.633 -4.81,-10.06 -6.46,-12.887 -1.59,-2.897 -2.41,-4.391 -2.41,-4.391 l 3.73,3.344 c 3.68,3.264 7.19,6.713 10.53,10.332 12.92,14.143 23.42,30.33 31.05,47.902 10.4,22.806 17.78,53.162 20.77,87.478 1.72,17.13 2.19,35.24 2.85,53.62 0.33,9.13 0.73,18.51 1.26,27.33 0.36,4.67 0.72,9.4 1.08,14.18 0.33,5.07 0.66,10.19 1,15.36 1.37,20 2.71,39.74 5.73,59.67 0,0 18.48,193.06 168.11,245.87 0,0 -22.08,-15.58 -41.41,-48.6 9.57,5.12 19.43,9.7 29.52,13.7 5.16,2.1 10.47,4 15.83,5.84 l 8.04,2.64 7.61,2.37 9.45,2.72 1.2,0.34 0.6,0.17 c -0.12,-0.04 1.12,0.33 -0.13,-0.05 l 2.05,0.51 4.09,1.03 c 5.45,1.34 10.94,2.44 16.42,3.53 10.91,2.08 21.93,3.52 33,4.32 21.74,1.71 43.61,0.68 65.1,-3.06 42.31,-7.35 81.54,-26.41 110.47,-54.25 14.26,-13.57 26.12,-29.47 35.08,-47 4.3,-8.58 7.8,-17.54 10.43,-26.77 1.41,-4.56 2.59,-9.19 3.53,-13.87 0.51,-2.34 0.92,-4.69 1.3,-7.05 0.4,-2.53 0.6,-3.82 0.94,-6.45 l 0.39,-4.71 0.1,-1.18 c 0.04,-0.95 0.01,0.63 0.02,0.3 l 0.01,-0.47 0.08,-1.88 0.36,-7.53 c 0.09,-2.5 -0.04,-4.97 -0.03,-7.45 0,-2.49 0,-4.97 -0.23,-7.4 -0.42,-9.71 -1.56,-19.38 -3.42,-28.92 -1.91,-9.32 -4.53,-18.48 -7.83,-27.41 -3.37,-8.75 -7.3,-17.27 -11.74,-25.52 -17.85,-31.57 -44.35,-57.36 -76.38,-74.36 -3.57,-1.94 -7.18,-3.71 -10.82,-5.34 27.91,-2.93 47.78,-1.12 47.78,-1.12 -103.42,-43.9 -172.71,0 -172.71,0 l 0.02,0.03 c -12.29,6.95 -22.97,16.42 -31.35,27.77 -2.83,3.71 -5.43,7.58 -7.79,11.59 -3.8,6.52 -7.09,13.33 -9.83,20.36 -4.49,11.67 -5.7,18.47 -5.7,18.47 0,0 -0.27,-1.68 -0.52,-5 -0.37,-4.93 -0.41,-9.87 -0.14,-14.81 0.43,-8.1 1.61,-16.15 3.53,-24.04 2.63,-11.06 6.81,-21.7 12.41,-31.59 7.24,-12.87 16.84,-24.27 28.3,-33.59 6.62,-5.38 13.73,-10.13 21.24,-14.18 8.09,-4.24 16.51,-7.8 25.2,-10.624 4.46,-1.628 9.03,-2.654 13.71,-3.984 2.34,-0.508 4.7,-1.019 7.08,-1.534 2.18,-0.437 3.98,-0.95 6.83,-1.282 5.26,-0.749 10.75,-1.49 15.75,-1.779 5.15,-0.506 10.36,-0.549 15.68,-0.638 10.88,-0.033 21.76,0.837 32.5,2.6 11.29,1.768 22.43,4.391 33.32,7.841 44.48,13.95 89.53,42.95 123,87.33 8.5,11.25 16.06,23.18 22.61,35.67 6.62,12.93 12.22,26.35 16.75,40.16 1.23,3.47 2.11,7.04 3.16,10.58 1.03,3.56 2.05,7.13 2.8,10.75 0.82,3.62 1.63,7.26 2.45,10.9 0.59,3.67 1.19,7.35 1.8,11.04 0.64,3.7 1.03,7.41 1.38,11.14 0.35,3.72 0.82,7.47 1.04,11.21 0.17,3.75 0.34,7.5 0.51,11.26 l 0.12,2.83 0.03,0.71 -0.01,1.48 0.02,1.18 0.06,4.72 c -0.05,3.66 -0.18,8.69 -0.42,12.45 -0.22,3.94 -0.51,7.89 -0.93,11.84 -0.8,7.91 -1.94,15.83 -3.53,23.71 -3.29,15.88 -8.06,31.42 -14.25,46.41 -6.26,15.15 -13.88,29.7 -22.78,43.47 -9.02,13.77 -19.26,26.7 -30.58,38.65 -45.38,47.96 -107.28,78.58 -170.86,89.39 -31.53,5.38 -63.64,6.42 -95.45,3.1 -15.54,-1.67 -30.97,-4.26 -46.21,-7.74 -7.55,-1.73 -15,-3.74 -22.36,-5.91 l -5.5,-1.67 -2.74,-0.84 -3.08,-1.01 -9.53,-3.18 -11.17,-4 c -3.64,-1.37 -7.02,-2.79 -10.53,-4.18 -6.94,-2.88 -13.85,-5.86 -20.66,-9.13 -13.71,-6.46 -27.03,-13.71 -39.9,-21.72 -25.89,-16.01 -49.33,-35.68 -69.59,-58.4 -9.95,-11.15 -19.04,-23.04 -27.2,-35.57 -7.86,-12.22 -14.81,-25.01 -20.82,-38.24 -11.36,-24.9 -19.45,-51.17 -24.07,-78.14 -9.2,-51.33 -6.23,-99.38 -1.49,-140.15 0.57,-4.91 1.13,-9.76 1.68,-14.57 0.54,-5.08 1.07,-10.12 1.59,-15.09 1.18,-10.48 2.81,-19.92 4.34,-29.13 3.13,-18.29 5.91,-35 8.05,-50.64 1.96,-14.452 3.09,-29.003 3.38,-43.583 0.18,-12.329 -0.61,-24.652 -2.37,-36.857 -1.51,-9.964 -3.76,-19.801 -6.74,-29.428 z"
     fill="#280b60"
     id="path24" />
  <path
     d="m 1128.78,890.325 c 10,13.253 21.35,25.43 33.86,36.335 8.48,7.435 17.77,13.893 27.69,19.254 10.77,5.95 22.57,9.825 34.77,11.424 24.87,3.322 51.78,-5.96 77.45,-26.064 6.38,-5.018 12.83,-10.419 19.11,-16.439 3.11,-3.081 6.27,-6.117 9.33,-9.423 l 2.33,-2.437 c 0.96,-0.946 1.69,-1.893 2.55,-2.843 1.66,-1.899 3.33,-3.806 5,-5.722 3.28,-3.834 6.78,-7.672 10.44,-11.583 3.61,-3.88 7.26,-7.792 10.93,-11.735 7.38,-7.796 14.88,-15.801 22.85,-23.583 31.72,-31.274 67.92,-63.153 111.98,-90.478 10.95,-6.872 22.56,-13.22 34.46,-19.409 12.07,-5.917 24.49,-11.632 37.5,-16.553 54.12,-20.916 112.52,-28.304 170.14,-21.522 7.21,0.938 14.46,1.785 21.54,3.153 l 10.69,1.899 10.53,2.312 c 7.06,1.51 13.93,3.412 20.8,5.333 6.94,1.798 13.61,4.079 20.36,6.215 54.79,17.764 108.1,49.214 148.57,92.944 40.64,43.531 67.75,98.541 76.6,154.847 4.54,27.822 4.58,56.19 0.13,84.03 -2.24,13.65 -5.67,27.07 -10.24,40.12 -4.61,12.87 -10.41,25.29 -17.31,37.09 -6.84,11.6 -14.84,22.48 -23.87,32.47 -4.48,4.87 -9.23,9.48 -14.23,13.81 -4.66,4.08 -9.55,7.89 -14.63,11.42 -5.14,3.7 -10.46,7.13 -15.95,10.28 -5.29,3.07 -10.7,5.88 -16.22,8.37 -10.87,4.94 -22.24,8.7 -33.91,11.2 -22.9,4.97 -45.85,4.75 -66.26,-0.12 -19.1,-4.3 -37.1,-12.56 -52.82,-24.25 -13.38,-9.84 -24.79,-22.12 -33.63,-36.18 -7.3,-11.48 -12.67,-24.07 -15.89,-37.29 -4.34,-17.65 -4.75,-36.04 -1.19,-53.87 0.89,-4.5 2.04,-8.95 3.45,-13.32 0.97,-2.93 1.47,-4.44 1.47,-4.44 0,0 0.07,1.59 0.2,4.65 0.16,3.05 0.58,7.57 1.36,13.31 2.22,16.02 7.53,31.46 15.65,45.45 5.52,9.29 12.37,17.72 20.33,25.04 8.97,8.14 19.27,14.68 30.45,19.34 7.08,2.87 14.45,4.95 21.98,6.21 v 0.01 c 0,0 0.11,0.01 0.31,0.04 5.22,0.87 10.5,1.31 15.79,1.31 0.03,0 0.07,0 0.1,0 30.81,1.14 97.46,-3.57 127.39,-61.35 -13.82,9.57 -29.18,16.71 -45.42,21.08 0.73,-0.86 1.44,-1.72 2.16,-2.62 2.37,-2.89 4.49,-6.02 6.59,-9.17 4.26,-6.5 7.85,-13.4 10.73,-20.61 11.69,-29.57 13.15,-66.4 3.58,-101.911 -9.4,-35.624 -29.58,-69.477 -57.61,-96.34 -28.07,-27.024 -63.76,-47.149 -104.05,-59.555 -14.05,-4.429 -28.34,-8.049 -42.8,-10.845 26.94,-9.95 58.67,-15.82 58.67,-15.82 -125.43,-13.937 -230.39,32.845 -230.39,32.845 l 0.08,0.012 c -8.63,3.361 -17.19,7.01 -25.7,10.948 -38.13,17.724 -74.87,40.18 -109.48,63.262 -8.69,5.848 -17.26,11.614 -25.7,17.299 l -24.91,17.29 c -2.09,1.448 -4.17,2.89 -6.25,4.326 l -3.04,2.135 -3.29,2.474 c -4.32,3.322 -8.83,6.441 -13.25,9.536 -8.89,6.09 -18.15,11.626 -27.72,16.577 -18.99,9.723 -39.2,16.849 -59.63,19.441 -20.42,2.516 -40.64,0.194 -57.66,-5.926 -15.36,-5.668 -29.52,-14.184 -41.73,-25.099 -9.69,-8.747 -18.33,-18.594 -25.74,-29.342 -9.94,-14.476 -18.08,-30.115 -24.24,-46.566 -2.17,-5.694 -4.02,-11.505 -5.54,-17.407 3.21,5.082 6.69,9.999 10.4,14.731 z"
     fill="#280b60"
     id="path26" />
  <path
     d="m 1232.56,815 c 2.37,-12.477 8.1,-25.314 15.82,-37.8 7.81,-12.462 17.84,-24.564 29.32,-36.302 12.23,-12.16 25.26,-23.495 38.99,-33.931 14.41,-10.835 29.94,-21.477 46.53,-31.723 16.67,-10.11 34.24,-20.137 52.72,-29.734 4.37,-2.271 8.79,-4.561 13.23,-6.869 4.24,-2.301 8.51,-4.619 12.82,-6.955 8.63,-4.779 17.39,-9.822 26.1,-15.007 17.53,-10.199 34.95,-21.357 51.93,-33.462 17.22,-11.984 33.72,-24.951 49.44,-38.837 7.78,-7.057 15.42,-14.274 22.82,-21.673 7.32,-7.465 14.35,-15.187 20.99,-23.177 6.6,-7.937 12.79,-16.206 18.55,-24.776 1.04,-1.523 1.98,-3.098 2.99,-4.638 l 0.03,0.096 c 0,0 81.17,-116.794 54.03,-250.293 0,0 -5.89,28.779 -16.14,53.365 -4.05,-22.205 -9.98,-44.025 -17.72,-65.223 l -0.34,-0.963 c 0.1,0.235 -0.46,-1.204 0.18,0.405 l -0.21,-0.536 -0.81,-2.14 -1.64,-4.277 c -0.6,-1.631 -0.95,-2.368 -1.36,-3.345 l -1.18,-2.855 c -1.76,-4.08 -3.89,-8.517 -6,-12.591 -4.16,-8.116 -8.98,-15.876 -14.41,-23.201 -5.26,-7.062 -11.13,-13.643 -17.55,-19.664 -6.3,-5.804 -13.07,-11.096 -20.22,-15.825 -21.56,-13.955 -46.74,-21.263 -72.42,-21.014 15.97,-17.708 37.42,-30.6708 37.42,-30.6708 -66.54,13.1964 -98.25,42.7398 -113.39,68.5158 -2.92,4.542 -5.39,9.353 -7.39,14.368 -2.05,5.273 -3.6,10.726 -4.64,16.289 -1.14,5.031 -1.74,10.173 -1.77,15.334 -0.24,3.431 -0.46,7.255 -0.5,10.94 -0.35,13.556 1.45,27.082 5.31,40.08 3.43,11.168 9.18,21.488 16.86,30.29 7.08,7.875 15.45,14.474 24.77,19.505 17.65,9.552 34.49,13.16 45.8,15.084 5.89,1.035 11.85,1.672 17.82,1.905 0,0 -1.48,0.536 -4.44,1.383 -4.38,1.257 -8.83,2.27 -13.32,3.035 -7.36,1.296 -14.8,2.013 -22.27,2.144 -10.42,0.27 -20.85,-0.731 -31.04,-2.98 -13.39,-2.868 -26.14,-8.209 -37.58,-15.748 -12.93,-8.322 -25.1,-20.904 -34.52,-36.333 -9.57,-15.407 -15.81,-33.57 -19.81,-52.547 -0.97,-4.752 -1.85,-9.506 -2.51,-14.769 -0.28,-2.269 -0.56,-4.552 -0.84,-6.849 l -0.2,-1.65 -0.16,-2.389 -0.27,-4.036 c -0.66,-11.363 -0.06,-22.763 1.79,-33.994 3.86,-23.445 14.82,-47.9516 32.32,-68.2374 17.45,-20.3783 41.05,-35.865 66.85,-45.4742 25.88,-9.742 54.2,-13.1258 82.6,-11.2549 28.45,1.9306 56.95,10.2615 83.34,23.7226 53.22,26.8668 94.47,77.4419 115.78,131.8189 20.35,50.157 33.64,106.399 32.73,164.894 -0.5,29.405 -4.76,58.625 -12.68,86.946 -7.95,28.045 -19.49,54.946 -34.33,80.035 -14.25,24.078 -31.19,46.461 -50.49,66.72 -18.1,19.235 -37.87,36.832 -59.07,52.587 -19.91,14.804 -40.76,28.316 -62.41,40.455 -21.02,11.652 -41.94,21.897 -62.51,30.944 -10.36,4.409 -20.56,8.525 -30.75,12.462 -5.14,1.933 -10.25,3.851 -15.31,5.754 -4.92,1.75 -9.8,3.485 -14.64,5.207 -18.5,6.082 -36.24,12.199 -52.92,18.722 -16.76,6.348 -32.58,12.864 -47.11,19.802 -13.77,6.233 -27.15,13.314 -40.05,21.202 -24.02,14.556 -42.2,30.692 -51.12,47.126 -4.15,7.318 -6.54,15.498 -6.99,23.897 -0.24,6.621 0.75,13.23 2.92,19.491 1.42,4.117 3.27,8.073 5.52,11.803 0.78,1.319 1.65,2.586 2.6,3.792 -1.35,-0.784 -2.65,-1.656 -3.89,-2.611 -3.74,-2.795 -7.11,-6.048 -10.04,-9.683 -5.02,-6.123 -8.75,-13.205 -10.95,-20.815 -2.84,-9.176 -3.52,-20.849 -1.01,-33.267 z"
     fill="#280b60"
     id="path28" />
  <path
     d="m 1262.17,303.573 c 9.18,22.03 19.5,58.969 19.5,83.01 -0.01,23.852 3.3,83.489 -32.88,123.097 -33.07,36.198 -67.38,21.783 -123.12,54.393 -44.04,25.761 -70.52,62.777 -86,90 23.19,-79.836 59.41,-124.637 89,-151 22.55,-20.101 40.15,-28.5 64.27,-55.028 36.62,-40.277 53.86,-84.505 62.73,-115.972 z"
     fill="#190735"
     id="path30" />
  <path
     d="m 796.243,303.573 c -9.185,22.03 -19.504,58.969 -19.5,83.01 0.004,23.852 -3.3,83.489 32.878,123.097 33.064,36.198 67.379,21.783 123.122,54.393 44.036,25.761 70.517,62.777 85.997,90 -23.195,-79.836 -59.413,-124.637 -88.997,-151 -22.557,-20.101 -40.156,-28.5 -64.274,-55.028 -36.617,-40.277 -53.86,-84.505 -62.726,-115.972 z"
     fill="#190735"
     id="path32" />
  <path
     d="m 1475.97,642.004 c 175.1,-93.854 253.54,-191.21 253.54,-310.978 0,-119.769 -49.73,-178.557 -49.73,-178.557 -1.4,17.555 -7.7,36.375 -7.7,36.375 C 1641.96,110.4 1568.42,83.0841 1568.42,83.0841 c 12.61,-14.7084 42.02,-29.4168 42.02,-29.4168 -159.69,-40.164 -237.67,96.6347 -197.51,181.7537 40.16,85.119 121.97,69.658 121.97,69.658 2.96,-0.847 4.44,-1.384 4.44,-1.384 -5.97,-0.233 -11.93,-0.869 -17.82,-1.904 -11.31,-1.923 -28.15,-5.532 -45.8,-15.084 -9.32,-5.032 -17.69,-11.63 -24.77,-19.505 -7.68,-8.803 -13.42,-19.123 -16.86,-30.29 -3.86,-12.999 -5.66,-26.525 -5.31,-40.081 0.04,-3.685 0.26,-7.508 0.5,-10.94 0.03,-5.161 0.63,-10.302 1.77,-15.333 1.04,-5.563 2.59,-11.016 4.64,-16.289 2,-5.015 4.47,-9.827 7.39,-14.368 15.14,-25.776 46.85,-55.3198 113.39,-68.5158 0,0 -21.45,12.9627 -37.42,30.6698 25.68,-0.249 50.86,7.059 72.42,21.015 7.15,4.729 13.92,10.021 20.22,15.825 6.42,6.022 12.29,12.602 17.55,19.664 5.43,7.325 10.25,15.085 14.41,23.201 2.11,4.074 4.25,8.511 6,12.591 l 1.18,2.855 c 0.41,0.977 0.76,1.714 1.36,3.345 l 1.64,4.277 0.81,2.14 0.21,0.536 c -0.64,-1.61 -0.08,-0.17 -0.18,-0.405 l 0.33,0.962 c 7.75,21.199 13.68,43.019 17.73,65.225 10.25,-24.587 16.14,-53.366 16.14,-53.366 27.14,133.498 -54.03,250.292 -54.03,250.292 l -0.02,-0.094 c -1.02,1.539 -1.96,3.114 -3,4.637 -5.76,8.57 -11.95,16.839 -18.55,24.776 -6.64,7.99 -13.67,15.712 -20.99,23.177 -7.4,7.399 -15.04,14.616 -22.82,21.673 -15.72,13.886 -32.22,26.853 -49.44,38.837 -16.98,12.105 -34.4,23.263 -51.93,33.462 -8.71,5.185 -17.47,10.229 -26.1,15.007 -4.31,2.336 -8.58,4.654 -12.82,6.955 -4.44,2.307 -8.86,4.597 -13.23,6.869 -18.48,9.597 -36.05,19.624 -52.72,29.733 -16.59,10.247 -32.12,20.888 -46.53,31.724 -13.73,10.436 -26.76,21.771 -38.99,33.931 -11.48,11.738 -21.51,23.84 -29.32,36.302 -7.72,12.486 -13.45,25.323 -15.82,37.8 -2.51,12.417 -1.83,24.091 1.01,33.266 2.2,7.611 5.93,14.693 10.95,20.817 2.93,3.634 6.3,6.887 10.04,9.683 -56.11,-67.213 58.31,-149.345 221.41,-236.763 z"
     fill="#00ffb6"
     id="path34" />
  <path
     d="m 1448.47,690.368 c 0,0 12.17,-8.089 8.77,-15.278 -1.25,-2.653 -4.09,-3.711 -5.61,-4.302 -1.52,-0.59 -10.15,-1.412 -14.15,1.587 -8.03,6.026 -10.16,16.088 -9.21,17.534 1.64,2.505 6.53,7.117 20.2,0.459 z"
     fill="#00ffb6"
     id="path36" />
  <path
     d="m 1492.86,672.005 c 0,0 15.12,-10.047 10.89,-18.977 -1.55,-3.296 -5.08,-4.61 -6.97,-5.344 -1.88,-0.733 -12.6,-1.754 -17.57,1.971 -9.97,7.485 -12.63,19.984 -11.45,21.78 2.05,3.111 8.12,8.842 25.1,0.57 z"
     fill="#00ffb6"
     id="path38" />
  <path
     d="m 1461.16,657.64 c 0,0 9.65,-6.42 6.96,-12.125 -1,-2.105 -3.25,-2.945 -4.46,-3.414 -1.2,-0.469 -8.05,-1.121 -11.22,1.26 -6.38,4.781 -8.07,12.767 -7.32,13.915 1.31,1.987 5.19,5.649 16.04,0.364 z"
     fill="#00ffb6"
     id="path40" />
  <path
     d="m 1889.52,859.586 c 0,0 12.47,7.608 17.55,1.49 1.87,-2.257 1.63,-5.277 1.53,-6.903 -0.11,-1.627 -3.01,-9.794 -7.42,-12.15 -8.85,-4.731 -18.88,-2.418 -19.79,-0.943 -1.57,2.552 -3.68,8.933 8.13,18.506 z"
     fill="#00ffb6"
     id="path42" />
  <path
     d="m 1924.92,892.056 c 0,0 15.49,9.451 21.8,1.851 2.33,-2.804 2.03,-6.556 1.9,-8.576 -0.13,-2.021 -3.74,-12.165 -9.21,-15.092 -11,-5.877 -23.45,-3.002 -24.58,-1.171 -1.96,3.17 -4.58,11.096 10.09,22.988 z"
     fill="#00ffb6"
     id="path44" />
  <path
     d="m 1924.54,857.25 c 0,0 9.9,6.038 13.93,1.182 1.49,-1.791 1.29,-4.188 1.21,-5.478 -0.08,-1.29 -2.39,-7.773 -5.89,-9.643 -7.02,-3.755 -14.98,-1.918 -15.7,-0.748 -1.25,2.026 -2.93,7.089 6.45,14.687 z"
     fill="#00ffb6"
     id="path46" />
  <path
     d="m 1148.05,1388.87 c 0,0 12.48,7.6 17.56,1.49 1.87,-2.26 1.63,-5.28 1.52,-6.91 -0.1,-1.62 -3,-9.79 -7.41,-12.15 -8.86,-4.73 -18.88,-2.42 -19.79,-0.94 -1.57,2.55 -3.69,8.93 8.12,18.51 z"
     fill="#190735"
     id="path48" />
  <path
     d="m 1183.46,1421.33 c 0,0 15.49,9.46 21.8,1.86 2.33,-2.81 2.03,-6.56 1.9,-8.58 -0.14,-2.02 -3.74,-12.17 -9.22,-15.09 -10.99,-5.88 -23.44,-3 -24.57,-1.17 -1.96,3.17 -4.59,11.09 10.09,22.98 z"
     fill="#190735"
     id="path50" />
  <path
     d="m 1183.08,1386.53 c 0,0 9.9,6.04 13.93,1.18 1.48,-1.79 1.29,-4.19 1.21,-5.48 -0.09,-1.29 -2.39,-7.77 -5.89,-9.64 -7.03,-3.75 -14.98,-1.92 -15.7,-0.75 -1.25,2.03 -2.93,7.09 6.45,14.69 z"
     fill="#190735"
     id="path52" />
  <path
     d="m 1697.99,1293.77 c 0,0 -1.68,-14.51 -9.63,-14.75 -2.93,-0.09 -5.17,1.96 -6.38,3.05 -1.22,1.08 -5.87,8.4 -5.01,13.32 1.72,9.89 9.71,16.37 11.43,16.18 2.98,-0.34 9.31,-2.6 9.59,-17.8 z"
     fill="#7655c6"
     id="path54" />
  <path
     d="m 1701.79,1245.89 c 0,0 -2.09,-18.03 -11.97,-18.33 -3.64,-0.11 -6.41,2.44 -7.92,3.79 -1.51,1.34 -7.29,10.43 -6.22,16.55 2.13,12.28 12.06,20.33 14.2,20.09 3.7,-0.41 11.56,-3.22 11.91,-22.1 z"
     fill="#7655c6"
     id="path56" />
  <path
     d="m 1674.59,1267.61 c 0,0 -1.33,-11.52 -7.64,-11.71 -2.33,-0.07 -4.1,1.56 -5.07,2.42 -0.96,0.86 -4.65,6.67 -3.97,10.57 1.36,7.85 7.71,12.99 9.07,12.84 2.37,-0.26 7.39,-2.06 7.61,-14.12 z"
     fill="#7655c6"
     id="path58" />
  <path
     d="m 1509.87,773.956 c 0,0 -11.92,8.45 -8.3,15.535 1.33,2.614 4.2,3.585 5.73,4.131 1.54,0.545 10.19,1.107 14.1,-2.011 7.84,-6.264 9.68,-16.385 8.68,-17.803 -1.72,-2.453 -6.74,-6.918 -20.21,0.148 z"
     fill="#190735"
     id="path60" />
  <path
     d="m 1466.05,793.642 c 0,0 -14.8,10.497 -10.31,19.297 1.65,3.247 5.22,4.454 7.12,5.131 1.91,0.677 12.66,1.376 17.51,-2.497 9.74,-7.78 12.02,-20.353 10.79,-22.114 -2.14,-3.048 -8.38,-8.593 -25.11,0.183 z"
     fill="#190735"
     id="path62" />
  <path
     d="m 1514.22,806.933 c -1.37,-1.948 -5.36,-5.49 -16.04,0.117 0,0 -9.46,6.707 -6.6,12.329 1.06,2.074 3.34,2.845 4.56,3.278"
     fill="#190735"
     id="path64" />
  <path
     d="m 1766.97,446.099 c 3.01,-8.123 5.79,-16.34 8.14,-24.721 7.92,-28.321 12.18,-57.541 12.68,-86.946 0.91,-58.495 -12.38,-114.737 -32.73,-164.894 -21.31,-54.377 -62.56,-104.9521 -115.78,-131.8189 -26.39,-13.4611 -54.89,-21.792 -83.34,-23.7226 -28.4,-1.8709 -56.72,1.5129 -82.6,11.2549 -21.9,8.156 -42.17,20.5842 -58.48,36.6054 10.9,-10.2866 166.07,-101.9528 289.09,52.7452 104.71,131.676 67.76,316.096 63.02,331.497 z"
     fill="#190735"
     id="path66" />
  <path
     d="m 1400.32,860.529 c 123.26,-118.723 288.92,-123.971 288.92,-123.971 0,0 -28.37,-14.709 -64.09,-13.309 0,0 168.75,-31.385 286.47,72.842 117.71,104.227 110.66,221.329 110.66,221.329 0,0 25.34,-83.901 -56.88,-212.298 -39.65,-40.399 -90.25,-69.78 -142.31,-86.662 -6.76,-2.137 -13.42,-4.418 -20.36,-6.216 -6.87,-1.921 -13.74,-3.822 -20.8,-5.333 l -10.53,-2.312 -10.69,-1.898 c -7.09,-1.37 -14.34,-2.216 -21.54,-3.155 -57.62,-6.781 -116.03,0.607 -170.14,21.523 -13.02,4.921 -25.43,10.637 -37.5,16.552 -11.9,6.19 -23.51,12.538 -34.46,19.41 -44.06,27.326 -80.26,59.203 -111.98,90.478 -7.97,7.782 -15.48,15.786 -22.85,23.583 -3.67,3.942 -7.32,7.853 -10.93,11.735 -3.66,3.911 -7.17,7.75 -10.44,11.583 -1.68,1.916 -3.34,3.823 -5,5.722 -0.86,0.95 -1.59,1.897 -2.55,2.842 l -2.33,2.438 c -3.06,3.306 -6.22,6.343 -9.34,9.423 -6.27,6.02 -12.72,11.422 -19.1,16.439 -25.67,20.105 -52.58,29.386 -77.45,26.064 0,0 51.97,21.912 175.22,-96.809 z"
     fill="#190735"
     id="path68" />
  <path
     d="m 1148.16,939.567 c 7.41,10.748 16.05,20.595 25.74,29.341 12.21,10.916 26.37,19.431 41.73,25.1 17.01,6.119 37.24,8.442 57.65,5.926 20.44,-2.592 40.65,-9.719 59.64,-19.441 9.57,-4.952 18.82,-10.488 27.71,-16.577 4.42,-3.096 8.94,-6.216 13.26,-9.536 l 3.29,-2.475 3.04,-2.134 c 2.07,-1.436 4.16,-2.878 6.25,-4.326 8.16,-5.67 16.47,-11.434 24.91,-17.29 8.44,-5.683 17,-11.449 25.7,-17.299 34.61,-23.083 71.35,-45.539 109.47,-63.262 8.51,-3.958 17.07,-7.607 25.7,-10.948 l -0.07,-0.012 c 0,0 104.96,-46.782 230.38,-32.845 0,0 -31.72,5.87 -58.67,15.82 14.47,2.794 28.76,6.415 42.8,10.844 40.3,12.407 75.99,32.531 104.06,59.555 28.03,26.864 48.21,60.716 57.6,96.34 9.58,35.512 8.12,72.342 -3.57,101.912 -2.88,7.21 -6.48,14.11 -10.73,20.61 -2.11,3.15 -4.23,6.28 -6.59,9.17 -0.72,0.9 -1.43,1.76 -2.16,2.62 16.23,-4.37 31.6,-11.51 45.42,-21.08 -29.93,57.78 -96.59,62.49 -127.39,61.35 -0.04,0 -0.07,0 -0.1,0 -5.29,0 -10.57,-0.44 -15.79,-1.31 -0.2,-0.03 -0.31,-0.04 -0.31,-0.04 v -0.01 c -7.53,-1.26 -14.9,-3.34 -21.98,-6.21 -11.18,-4.66 -21.48,-11.2 -30.46,-19.34 -7.96,-7.32 -14.8,-15.75 -20.33,-25.05 -8.11,-13.99 -13.42,-29.42 -15.64,-45.44 -0.78,-5.74 -1.21,-10.26 -1.36,-13.31 -0.13,-3.07 -0.2,-4.65 -0.2,-4.65 0,0 -11.15,139.59 130.68,137.49 141.83,-2.1 130.27,-138.68 130.27,-138.68 -3.67,6.83 -15.05,13.66 -15.05,13.66 0,0 4.9,-95.954 -35.02,-155.488 -39.93,-59.533 -123.97,-89.301 -123.97,-89.301 15.75,-1.05 44.82,-1.05 44.82,-1.05 -176.5,-118.391 -399.58,42.696 -450.18,80.896 -40.49,30.567 -116.44,96.305 -187.7,85.799 -71.26,-10.506 -112.64,-103.302 -112.64,-103.302 1.52,5.902 3.38,11.713 5.55,17.406 6.15,16.452 14.29,32.09 24.24,46.567 z"
     fill="#00ffb6"
     id="path70" />
  <path
     d="m 1054.07,870.292 c 3.13,6.936 5.87,14.048 8.18,21.299 2.98,9.628 5.24,19.465 6.74,29.429 1.76,12.204 2.55,24.528 2.37,36.857 -0.29,14.58 -1.41,29.131 -3.38,43.583 -2.14,15.64 -4.92,32.34 -8.05,50.64 -1.53,9.21 -3.16,18.65 -4.34,29.13 -0.52,4.97 -1.05,10 -1.58,15.09 -0.56,4.81 -1.12,9.66 -1.68,14.57 -4.75,40.77 -7.72,88.82 1.49,140.15 4.61,26.97 12.7,53.24 24.06,78.14 6.01,13.23 12.97,26.02 20.82,38.24 8.16,12.53 17.25,24.42 27.2,35.57 20.26,22.72 43.7,42.39 69.59,58.4 12.87,8.01 26.19,15.26 39.9,21.72 6.81,3.27 13.72,6.25 20.66,9.12 3.51,1.4 6.89,2.82 10.54,4.18 l 11.17,4.01 9.52,3.18 3.08,1.01 2.75,0.84 5.49,1.67 c 7.36,2.17 14.81,4.18 22.36,5.91 15.24,3.48 30.67,6.07 46.21,7.74 31.81,3.32 63.92,2.27 95.45,-3.1 63.58,-10.81 125.49,-41.43 170.86,-89.39 11.32,-11.95 21.56,-24.88 30.59,-38.65 3.41,-5.3 6.58,-10.75 9.62,-16.26 -0.36,0.51 -119.55,169.39 -335,114.72 -215.78,-54.76 -258.18,-222.03 -258.18,-222.03 10.78,14.01 35.31,27.32 35.31,27.32 -20.8,-26.27 -53.79,-122.92 -32.78,-252.15 21.01,-129.222 -37.84,-188.217 -37.84,-188.217 0,0 0.82,1.495 2.41,4.39 1.65,2.829 3.75,7.256 6.46,12.889 z"
     fill="#190735"
     id="path72" />
  <path
     d="m 1454.89,1418.4 c 133.49,-14.71 188.88,-121.87 170.64,-214.33 -18.24,-92.45 -72.87,-129.22 -72.87,-129.22 0,0 26.97,7.7 36.77,16.11 0,0 -22.29,-56.97 -105.06,-73.54 -82.77,-16.58 -160.82,36.56 -169.01,115.98 0,0 1.22,-6.8 5.7,-18.47 2.74,-7.03 6.03,-13.84 9.83,-20.36 2.36,-4.02 4.96,-7.88 7.79,-11.59 8.38,-11.36 19.06,-20.82 31.35,-27.77 -0.01,0 -0.02,-0.03 -0.02,-0.03 0,0 69.29,-43.9 172.71,0 0,0 -19.87,-1.81 -47.78,1.12 3.64,1.63 7.25,3.4 10.82,5.34 32.03,17 58.53,42.79 76.38,74.36 4.45,8.25 8.37,16.77 11.74,25.52 3.3,8.93 5.92,18.09 7.83,27.41 1.86,9.54 3.01,19.21 3.42,28.92 0.23,2.43 0.24,4.91 0.23,7.4 -0.01,2.48 0.12,4.95 0.03,7.45 l -0.36,7.53 -0.07,1.88 -0.02,0.47 c -0.01,0.32 0.02,-1.25 -0.02,-0.3 l -0.09,1.18 -0.4,4.71 c -0.34,2.63 -0.54,3.92 -0.94,6.45 -0.38,2.36 -0.79,4.71 -1.29,7.05 -0.96,4.68 -2.14,9.3 -3.54,13.87 -2.63,9.23 -6.13,18.19 -10.43,26.77 -8.96,17.53 -20.82,33.43 -35.08,47 -28.93,27.84 -68.16,46.9 -110.47,54.25 -21.48,3.74 -43.35,4.77 -65.1,3.06 -11.07,-0.8 -22.09,-2.24 -33,-4.32 -5.48,-1.09 -10.97,-2.19 -16.42,-3.53 l -4.09,-1.03 -2.04,-0.51 c 1.24,0.38 0,0.01 0.12,0.05 l -0.6,-0.17 -1.19,-0.34 -9.46,-2.72 -7.61,-2.37 -8.04,-2.64 c -5.36,-1.85 -10.67,-3.74 -15.83,-5.84 -10.09,-4 -19.95,-8.58 -29.52,-13.7 0,0 71.5,63.61 204.99,48.9 z"
     fill="#00ffb6"
     id="path74" />
  <path
     d="m 1698.32,1311.72 c 1.02,-3.98 1.95,-7.96 2.77,-11.97 1.59,-7.88 2.74,-15.8 3.53,-23.71 0.42,-3.95 0.71,-7.9 0.93,-11.84 0.24,-3.76 0.37,-8.79 0.42,-12.45 l -0.06,-4.72 -0.02,-1.18 0.01,-1.48 -0.03,-0.71 -0.12,-2.83 c -0.17,-3.76 -0.34,-7.51 -0.51,-11.26 -0.22,-3.74 -0.69,-7.49 -1.04,-11.21 -0.35,-3.73 -0.74,-7.44 -1.38,-11.14 -0.6,-3.69 -1.2,-7.37 -1.8,-11.04 -0.82,-3.64 -1.63,-7.28 -2.44,-10.9 -0.37,-1.77 -0.91,-3.5 -1.37,-5.25 -17.83,-44.54 -46.84,-72.61 -46.84,-72.61 0,0 52.53,76.69 32.57,183.85 -19.97,107.17 -142.89,158.65 -142.89,158.65 0,0 112.73,-24.3 158.27,-138.2 z"
     fill="#7655c6"
     id="path76" />
  <path
     d="M 576.656,642.004 C 401.556,548.15 323.11,450.794 323.11,331.026 c 0,-119.769 49.729,-178.557 49.729,-178.557 1.401,17.555 7.705,36.375 7.705,36.375 C 410.661,110.4 484.203,83.0841 484.203,83.0841 471.595,68.3757 442.179,53.6673 442.179,53.6673 601.87,13.5033 679.856,150.302 639.692,235.421 c -40.165,85.119 -121.973,69.658 -121.973,69.658 -2.958,-0.847 -4.442,-1.384 -4.442,-1.384 5.977,-0.233 11.931,-0.869 17.822,-1.904 11.311,-1.923 28.156,-5.532 45.806,-15.084 9.314,-5.032 17.691,-11.63 24.764,-19.505 7.683,-8.803 13.428,-19.123 16.863,-30.29 3.863,-12.999 5.655,-26.525 5.309,-40.081 -0.035,-3.685 -0.256,-7.508 -0.498,-10.94 -0.033,-5.161 -0.628,-10.302 -1.776,-15.333 -1.031,-5.563 -2.581,-11.016 -4.631,-16.289 -1.999,-5.015 -4.475,-9.827 -7.395,-14.368 -15.14,-25.776 -46.851,-55.3198 -113.394,-68.5158 0,0 21.452,12.9627 37.428,30.6698 -25.681,-0.249 -50.867,7.059 -72.427,21.015 -7.15,4.729 -13.912,10.021 -20.221,15.825 -6.418,6.022 -12.289,12.602 -17.542,19.664 -5.433,7.325 -10.253,15.085 -14.413,23.201 -2.11,4.074 -4.245,8.511 -6,12.591 l -1.181,2.855 c -0.407,0.977 -0.756,1.714 -1.36,3.345 l -1.635,4.277 -0.819,2.14 -0.204,0.536 c 0.644,-1.61 0.081,-0.17 0.181,-0.405 l -0.337,0.962 c -7.748,21.199 -13.678,43.019 -17.725,65.225 -10.247,-24.587 -16.142,-53.366 -16.142,-53.366 -27.14,133.498 54.03,250.292 54.03,250.292 l 0.027,-0.094 c 1.013,1.539 1.954,3.114 2.999,4.637 5.757,8.57 11.949,16.839 18.551,24.776 6.631,7.99 13.661,15.712 20.988,23.177 7.4,7.399 15.036,14.616 22.814,21.673 15.72,13.886 32.228,26.853 49.442,38.837 16.986,12.105 34.402,23.263 51.934,33.462 8.707,5.185 17.466,10.229 26.098,15.007 4.305,2.336 8.577,4.654 12.815,6.955 4.448,2.307 8.859,4.597 13.234,6.869 18.484,9.597 36.053,19.624 52.717,29.733 16.592,10.247 32.128,20.888 46.535,31.724 13.733,10.436 26.759,21.771 38.992,33.931 11.477,11.738 21.504,23.84 29.314,36.302 7.724,12.486 13.45,25.323 15.824,37.8 2.507,12.417 1.828,24.091 -1.011,33.266 -2.2,7.611 -5.926,14.693 -10.952,20.817 -2.929,3.634 -6.302,6.887 -10.04,9.683 56.11,-67.213 -58.312,-149.345 -221.405,-236.763 z"
     fill="#00ffb6"
     id="path78" />
  <path
     d="m 604.149,690.368 c 0,0 -12.167,-8.089 -8.769,-15.278 1.254,-2.653 4.093,-3.711 5.612,-4.302 1.519,-0.59 10.147,-1.412 14.145,1.587 8.031,6.026 10.169,16.088 9.218,17.534 -1.648,2.505 -6.537,7.117 -20.206,0.459 z"
     fill="#00ffb6"
     id="path80" />
  <path
     d="m 559.76,672.005 c 0,0 -15.114,-10.047 -10.893,-18.977 1.558,-3.296 5.085,-4.61 6.971,-5.344 1.886,-0.733 12.605,-1.754 17.571,1.971 9.976,7.485 12.632,19.984 11.449,21.78 -2.047,3.111 -8.118,8.842 -25.098,0.57 z"
     fill="#00ffb6"
     id="path82" />
  <path
     d="m 591.465,657.64 c 0,0 -9.656,-6.42 -6.959,-12.125 0.995,-2.105 3.248,-2.945 4.453,-3.414 1.206,-0.469 8.054,-1.121 11.227,1.26 6.373,4.781 8.07,12.767 7.314,13.915 -1.307,1.987 -5.187,5.649 -16.035,0.364 z"
     fill="#00ffb6"
     id="path84" />
  <path
     d="m 163.105,859.586 c 0,0 -12.473,7.608 -17.553,1.49 -1.874,-2.257 -1.632,-5.277 -1.526,-6.903 0.106,-1.627 3.009,-9.794 7.417,-12.15 8.854,-4.731 18.877,-2.418 19.786,-0.943 1.573,2.552 3.688,8.933 -8.124,18.506 z"
     fill="#00ffb6"
     id="path86" />
  <path
     d="m 127.702,892.056 c 0,0 -15.493,9.451 -21.803,1.851 -2.329,-2.804 -2.028,-6.556 -1.896,-8.576 0.132,-2.021 3.737,-12.165 9.213,-15.092 10.998,-5.877 23.448,-3.002 24.577,-1.171 1.954,3.17 4.582,11.096 -10.091,22.988 z"
     fill="#00ffb6"
     id="path88" />
  <path
     d="m 128.084,857.25 c 0,0 -9.9,6.038 -13.931,1.182 -1.487,-1.791 -1.296,-4.188 -1.212,-5.478 0.084,-1.29 2.388,-7.773 5.886,-9.643 7.028,-3.755 14.982,-1.918 15.703,-0.748 1.249,2.026 2.927,7.089 -6.446,14.687 z"
     fill="#00ffb6"
     id="path90" />
  <path
     d="m 904.568,1388.87 c 0,0 -12.473,7.6 -17.553,1.49 -1.874,-2.26 -1.633,-5.28 -1.526,-6.91 0.107,-1.62 3.008,-9.79 7.416,-12.15 8.855,-4.73 18.878,-2.42 19.786,-0.94 1.573,2.55 3.688,8.93 -8.123,18.51 z"
     fill="#190735"
     id="path92" />
  <path
     d="m 869.166,1421.33 c 0,0 -15.494,9.46 -21.804,1.86 -2.328,-2.81 -2.028,-6.56 -1.896,-8.58 0.132,-2.02 3.737,-12.17 9.213,-15.09 10.998,-5.88 23.448,-3 24.577,-1.17 1.954,3.17 4.581,11.09 -10.09,22.98 z"
     fill="#190735"
     id="path94" />
  <path
     d="m 869.546,1386.53 c 0,0 -9.899,6.04 -13.93,1.18 -1.487,-1.79 -1.296,-4.19 -1.212,-5.48 0.084,-1.29 2.388,-7.77 5.887,-9.64 7.027,-3.75 14.981,-1.92 15.702,-0.75 1.249,2.03 2.927,7.09 -6.447,14.69 z"
     fill="#190735"
     id="path96" />
  <path
     d="m 354.634,1293.77 c 0,0 1.681,-14.51 9.63,-14.75 2.932,-0.09 5.164,1.96 6.38,3.05 1.216,1.08 5.866,8.4 5.01,13.32 -1.721,9.89 -9.715,16.37 -11.436,16.18 -2.98,-0.34 -9.309,-2.6 -9.584,-17.8 z"
     fill="#190735"
     id="path98" />
  <path
     d="m 350.836,1245.89 c 0,0 2.089,-18.03 11.962,-18.33 3.643,-0.11 6.415,2.44 7.925,3.79 1.511,1.34 7.288,10.43 6.223,16.55 -2.137,12.28 -12.067,20.33 -14.205,20.09 -3.701,-0.41 -11.564,-3.22 -11.905,-22.1 z"
     fill="#190735"
     id="path100" />
  <path
     d="m 378.032,1267.61 c 0,0 1.335,-11.52 7.644,-11.71 2.327,-0.07 4.098,1.56 5.063,2.42 0.964,0.86 4.656,6.67 3.976,10.57 -1.366,7.85 -7.71,12.99 -9.076,12.84 -2.365,-0.26 -7.388,-2.06 -7.607,-14.12 z"
     fill="#190735"
     id="path102" />
  <path
     d="m 542.749,773.956 c 0,0 11.918,8.45 8.306,15.535 -1.332,2.614 -4.202,3.585 -5.738,4.131 -1.535,0.545 -10.185,1.107 -14.091,-2.011 -7.846,-6.264 -9.682,-16.385 -8.687,-17.803 1.722,-2.453 6.747,-6.918 20.21,0.148 z"
     fill="#190735"
     id="path104" />
  <path
     d="m 586.568,793.642 c 0,0 14.804,10.497 10.318,19.297 -1.656,3.247 -5.22,4.454 -7.128,5.131 -1.908,0.677 -12.652,1.376 -17.504,-2.497 -9.746,-7.78 -12.026,-20.353 -10.791,-22.114 2.14,-3.048 8.381,-8.593 25.105,0.183 z"
     fill="#190735"
     id="path106" />
  <path
     d="m 554.446,807.05 c 0,0 9.458,6.707 6.592,12.329 -1.059,2.074 -3.335,2.845 -4.554,3.278 -1.219,0.433 -8.084,0.878 -11.184,-1.596 -6.227,-4.97 -7.683,-13.003 -6.894,-14.128 1.367,-1.948 5.355,-5.49 16.04,0.117 z"
     fill="#190735"
     id="path108" />
  <path
     d="m 285.648,446.099 c -3.002,-8.123 -5.789,-16.34 -8.134,-24.721 -7.924,-28.321 -12.186,-57.541 -12.68,-86.946 -0.913,-58.495 12.376,-114.737 32.725,-164.894 21.317,-54.377 62.567,-104.9521 115.779,-131.8189 26.395,-13.4611 54.892,-21.792 83.342,-23.7226 28.405,-1.8709 56.723,1.5129 82.605,11.2549 21.895,8.156 42.166,20.5842 58.477,36.6054 C 626.866,51.5702 471.692,-40.096 348.675,114.602 243.965,246.278 280.908,430.698 285.648,446.099 Z"
     fill="#190735"
     id="path110" />
  <path
     d="M 652.299,860.529 C 529.041,741.806 363.379,736.558 363.379,736.558 c 0,0 28.37,-14.709 64.091,-13.309 0,0 -168.752,-31.385 -286.463,72.842 C 23.295796,900.318 30.343296,1017.42 30.343296,1017.42 c 0,0 -25.3400602,-83.901 56.8778,-212.298 C 126.871,764.723 177.468,735.342 229.534,718.46 c 6.754,-2.137 13.424,-4.418 20.36,-6.216 6.869,-1.921 13.742,-3.822 20.798,-5.333 l 10.534,-2.312 10.687,-1.898 c 7.086,-1.37 14.336,-2.216 21.541,-3.155 57.62,-6.781 116.024,0.607 170.14,21.523 13.014,4.921 25.43,10.636 37.503,16.552 11.898,6.19 23.502,12.538 34.454,19.41 44.059,27.326 80.266,59.203 111.98,90.478 7.968,7.782 15.477,15.786 22.851,23.583 3.674,3.941 7.319,7.853 10.935,11.735 3.657,3.911 7.16,7.75 10.438,11.583 1.673,1.916 3.339,3.823 4.998,5.722 0.861,0.95 1.587,1.897 2.553,2.842 l 2.323,2.438 c 3.068,3.306 6.226,6.343 9.34,9.423 6.278,6.02 12.722,11.422 19.106,16.439 25.666,20.105 52.577,29.386 77.45,26.064 0,0 -51.968,21.912 -175.226,-96.809 z"
     fill="#190735"
     id="path112" />
  <path
     d="m 904.462,939.567 c -7.411,10.748 -16.049,20.595 -25.741,29.341 -12.208,10.916 -26.365,19.431 -41.729,25.1 -17.015,6.119 -37.238,8.442 -57.654,5.926 -20.434,-2.592 -40.643,-9.719 -59.632,-19.441 -9.571,-4.952 -18.828,-10.488 -27.719,-16.577 -4.418,-3.096 -8.933,-6.216 -13.253,-9.536 l -3.288,-2.475 -3.045,-2.134 c -2.073,-1.436 -4.155,-2.878 -6.245,-4.326 -8.169,-5.67 -16.472,-11.434 -24.909,-17.29 -8.442,-5.683 -17.009,-11.449 -25.701,-17.299 -34.615,-23.083 -71.354,-45.539 -109.479,-63.262 -8.502,-3.958 -17.068,-7.607 -25.7,-10.948 l 0.074,-0.012 c 0,0 -104.955,-46.782 -230.384,-32.845 0,0 31.723,5.87 58.671,15.82 -14.462,2.794 -28.753,6.415 -42.801,10.844 -40.294,12.407 -75.982,32.531 -104.053,59.555 -28.035,26.864 -48.215,60.716 -57.607,96.34 -9.573704,35.512 -8.113004,72.342 3.573,101.912 2.881,7.21 6.477,14.11 10.732,20.61 2.105,3.15 4.225,6.28 6.592,9.17 0.717,0.9 1.431,1.76 2.161,2.62 -16.237,-4.37 -31.601904,-11.51 -45.423904,-21.08 29.929904,57.78 96.587904,62.49 127.391904,61.35 0.034,0 0.069,0 0.103,0 5.29,0 10.571,-0.44 15.79,-1.31 0.2,-0.03 0.305,-0.04 0.305,-0.04 v -0.01 c 7.532,-1.26 14.902,-3.34 21.979,-6.21 11.183,-4.66 21.484,-11.2 30.459,-19.34 7.958,-7.32 14.806,-15.75 20.328,-25.05 8.115,-13.99 13.429,-29.42 15.644,-45.44 0.786,-5.74 1.206,-10.26 1.36,-13.31 0.133,-3.07 0.201,-4.65 0.201,-4.65 0,0 11.151,139.59 -130.68,137.49 -141.830504,-2.1 -130.274904,-138.68 -130.274904,-138.68 3.6771,6.83 15.0589,13.66 15.0589,13.66 0,0 -4.9034,-95.954 35.020004,-155.488 39.922,-59.533 123.97,-89.301 123.97,-89.301 -15.759,-1.05 -44.825,-1.05 -44.825,-1.05 176.501,-118.391 399.581,42.696 450.182,80.896 40.49,30.567 116.442,96.305 187.7,85.799 71.257,-10.506 112.636,-103.302 112.636,-103.302 -1.522,5.902 -3.375,11.713 -5.55,17.406 -6.151,16.452 -14.291,32.09 -24.237,46.567 z"
     fill="#00ffb6"
     id="path114" />
  <path
     d="m 998.556,870.292 c -3.137,6.936 -5.87,14.048 -8.185,21.299 -2.98,9.628 -5.234,19.465 -6.742,29.429 -1.757,12.204 -2.548,24.528 -2.366,36.857 0.287,14.58 1.415,29.131 3.377,43.583 2.145,15.64 4.925,32.34 8.049,50.64 1.536,9.21 3.166,18.65 4.342,29.13 0.522,4.97 1.051,10 1.585,15.09 0.554,4.81 1.114,9.66 1.681,14.57 4.743,40.77 7.713,88.82 -1.492,140.15 -4.615,26.97 -12.703,53.24 -24.061,78.14 -6.008,13.23 -12.968,26.02 -20.825,38.24 -8.157,12.53 -17.248,24.42 -27.195,35.57 -20.265,22.72 -43.704,42.39 -69.59,58.4 -12.869,8.01 -26.191,15.26 -39.9,21.72 -6.814,3.27 -13.719,6.25 -20.663,9.12 -3.511,1.4 -6.889,2.82 -10.534,4.18 l -11.171,4.01 -9.523,3.18 -3.081,1.01 -2.745,0.84 -5.498,1.67 c -7.36,2.17 -14.81,4.18 -22.358,5.91 -15.239,3.48 -30.669,6.07 -46.212,7.74 -31.808,3.32 -63.921,2.27 -95.446,-3.1 -63.578,-10.81 -125.486,-41.43 -170.862,-89.39 -11.323,-11.95 -21.559,-24.88 -30.585,-38.65 -3.414,-5.3 -6.586,-10.75 -9.627,-16.26 0.36,0.51 119.554,169.39 335.004,114.72 215.778,-54.76 258.179,-222.03 258.179,-222.03 -10.774,14.01 -35.309,27.32 -35.309,27.32 20.802,-26.27 53.789,-122.92 32.777,-252.15 -21.012,-129.222 37.84,-188.217 37.84,-188.217 0,0 -0.82,1.495 -2.4,4.39 -1.66,2.829 -3.76,7.256 -6.464,12.889 z"
     fill="#190735"
     id="path116" />
  <path
     d="m 597.733,1418.4 c -133.492,-14.71 -188.88,-121.87 -170.641,-214.33 18.239,-92.45 72.87,-129.22 72.87,-129.22 0,0 -26.965,7.7 -36.771,16.11 0,0 22.288,-56.97 105.06,-73.54 82.772,-16.58 160.823,36.56 169.012,115.98 0,0 -1.216,-6.8 -5.698,-18.47 -2.746,-7.03 -6.032,-13.84 -9.83,-20.36 -2.359,-4.02 -4.961,-7.88 -7.79,-11.59 -8.38,-11.36 -19.063,-20.82 -31.35,-27.77 l 0.018,-0.03 c 0,0 -69.288,-43.9 -172.712,0 0,0 19.876,-1.81 47.782,1.12 -3.636,1.63 -7.251,3.4 -10.823,5.34 -32.028,17 -58.528,42.79 -76.375,74.36 -4.447,8.25 -8.37,16.77 -11.744,25.52 -3.301,8.93 -5.917,18.09 -7.826,27.41 -1.864,9.54 -3.007,19.21 -3.419,28.92 -0.231,2.43 -0.239,4.91 -0.236,7.4 0.012,2.48 -0.117,4.95 -0.024,7.45 l 0.354,7.53 0.078,1.88 0.018,0.47 c 0.008,0.32 -0.025,-1.25 0.014,-0.3 l 0.097,1.18 0.394,4.71 c 0.337,2.63 0.538,3.92 0.946,6.45 0.374,2.36 0.785,4.71 1.29,7.05 0.954,4.68 2.133,9.3 3.538,13.87 2.631,9.23 6.123,18.19 10.43,26.77 8.953,17.53 20.813,33.43 35.076,47 28.929,27.84 68.159,46.9 110.47,54.25 21.486,3.74 43.356,4.77 65.097,3.06 11.076,-0.8 22.095,-2.24 33.003,-4.32 5.477,-1.09 10.967,-2.19 16.422,-3.53 l 4.088,-1.03 2.045,-0.51 c -1.241,0.38 -10e-4,0.01 -0.122,0.05 l 0.597,-0.17 1.196,-0.34 9.453,-2.72 7.608,-2.37 8.044,-2.64 c 5.358,-1.85 10.672,-3.74 15.828,-5.84 10.093,-4 19.948,-8.58 29.518,-13.7 0,0 -71.495,63.61 -204.985,48.9 z"
     fill="#00ffb6"
     id="path118" />
  <path
     d="m 354.301,1311.72 c -1.023,-3.98 -1.947,-7.96 -2.771,-11.97 -1.588,-7.88 -2.733,-15.8 -3.528,-23.71 -0.423,-3.95 -0.711,-7.9 -0.928,-11.84 -0.24,-3.76 -0.372,-8.79 -0.42,-12.45 l 0.061,-4.72 0.015,-1.18 -0.006,-1.48 0.029,-0.71 0.117,-2.83 c 0.174,-3.76 0.345,-7.51 0.515,-11.26 0.22,-3.74 0.686,-7.49 1.033,-11.21 0.356,-3.73 0.747,-7.44 1.387,-11.14 0.602,-3.69 1.202,-7.37 1.8,-11.04 0.816,-3.64 1.63,-7.28 2.442,-10.9 0.368,-1.77 0.903,-3.5 1.367,-5.25 17.832,-44.54 46.841,-72.61 46.841,-72.61 0,0 -52.53,76.69 -32.568,183.85 19.961,107.17 142.881,158.65 142.881,158.65 0,0 -112.721,-24.3 -158.267,-138.2 z"
     fill="#190735"
     id="path120" />
  <path
     d="m 1296.67,380.573 c -1.38,9.773 -3.13,19.497 -5.13,29.189 -2.05,9.68 -4.51,19.282 -7.36,28.806 -2.84,9.551 -6.2,18.942 -10.05,28.132 -3.85,9.271 -8.33,18.271 -13.39,26.938 -5.13,8.759 -11.03,17.041 -17.63,24.747 -6.7,7.793 -14.25,14.816 -22.51,20.939 -4.17,3.069 -8.52,5.878 -13.03,8.409 -4.53,2.513 -9.19,4.767 -13.97,6.751 -9.52,3.959 -19.09,6.863 -28.19,10.052 -9.01,3.092 -17.8,6.808 -26.3,11.122 -8.48,4.359 -16.68,9.239 -24.56,14.613 -8.13,5.486 -15.96,11.002 -23.36,16.949 -7.35,5.864 -14.21,12.321 -20.5,19.305 -6.21,6.922 -11.73,14.427 -16.48,22.411 -2.37,3.985 -4.53,8.089 -6.47,12.297 -1.88,4.095 -3.46,8.321 -4.72,12.646 -2.6,8.988 -4.45,18.175 -5.54,27.469 -0.59,4.7 -1.03,9.439 -1.34,14.185 -0.15,2.373 -0.27,4.746 -0.35,7.118 l -0.1,3.542 c -0.02,1.152 -0.03,2.399 -0.02,3.41 l -17.99,-0.188 c 0.72,-18.662 -2.03,-37.295 -8.11,-54.952 -6.07,-17.619 -15.614,-33.839 -28.071,-47.697 -6.276,-7.009 -13.126,-13.482 -20.479,-19.352 -7.39,-5.951 -15.23,-11.46 -23.365,-16.846 -4.114,-2.74 -8.072,-5.305 -12.18,-7.784 -4.088,-2.475 -8.24,-4.807 -12.458,-6.998 -8.459,-4.387 -17.223,-8.157 -26.225,-11.282 -9.059,-3.209 -18.643,-6.034 -28.201,-9.965 -4.797,-1.963 -9.475,-4.203 -14.011,-6.71 -4.529,-2.52 -8.894,-5.322 -13.071,-8.39 -8.279,-6.113 -15.848,-13.133 -22.565,-20.929 -6.618,-7.708 -12.529,-15.995 -17.663,-24.762 -5.071,-8.675 -9.551,-17.684 -13.408,-26.964 -3.855,-9.199 -7.21,-18.599 -10.052,-28.16 -2.84,-9.53 -5.294,-19.141 -7.363,-28.834 -2.002,-9.701 -3.753,-19.435 -5.13,-29.216 2.403,9.582 4.893,19.124 7.763,28.541 2.793,9.436 5.942,18.737 9.447,27.902 7.03,18.27 15.369,36.045 26.214,52.028 10.694,16.024 23.873,30.279 39.532,40.709 7.818,5.187 16.227,9.425 25.048,12.625 8.831,3.255 18.316,5.628 27.952,8.715 9.749,3.041 19.267,6.78 28.479,11.187 4.612,2.212 9.115,4.62 13.537,7.136 4.404,2.507 8.795,5.201 12.959,7.827 8.628,5.302 16.978,11.046 25.016,17.207 8.189,6.303 15.837,13.279 22.866,20.853 14.229,15.391 25.179,33.511 32.189,53.261 6.91,19.722 10.07,40.559 9.33,61.442 v 0.048 c -0.07,2.357 -1.07,4.59 -2.77,6.219 -1.71,1.63 -3.98,2.525 -6.34,2.494 -2.36,-0.031 -4.61,-0.986 -6.27,-2.659 -1.66,-1.674 -2.59,-3.933 -2.61,-6.29 0,-1.453 0.01,-2.67 0.04,-3.982 l 0.12,-3.847 c 0.1,-2.555 0.24,-5.104 0.41,-7.645 0.35,-5.088 0.83,-10.166 1.49,-15.243 0.64,-5.076 1.47,-10.15 2.49,-15.22 1.01,-5.121 2.28,-10.186 3.82,-15.174 1.56,-5.123 3.49,-10.126 5.78,-14.967 2.24,-4.718 4.72,-9.318 7.44,-13.78 5.41,-8.918 11.72,-17.264 18.82,-24.908 7.05,-7.542 14.7,-14.494 22.88,-20.787 8.06,-6.288 16.54,-11.876 24.88,-17.214 8.55,-5.537 17.44,-10.521 26.63,-14.92 9.23,-4.319 18.75,-7.992 28.49,-10.991 9.6,-3.042 19.04,-5.475 27.86,-8.768 8.8,-3.241 17.19,-7.502 25,-12.696 15.63,-10.459 28.79,-24.709 39.47,-40.725 10.83,-15.974 19.16,-33.735 26.19,-51.986 3.5,-9.141 6.65,-18.433 9.44,-27.877 2.86,-9.409 5.35,-18.941 7.75,-28.516 z"
     fill="#00ffb6"
     id="path122" />
  <path
     d="m 1103,595.573 22,-6 c 0,0 -13,-2 -7,-7 6,-5 -15,13 -15,13 z"
     fill="#00ffb6"
     id="path124" />
  <path
     d="m 762.5,329.573 c 0,-147.46 119.54,-266.9995 267,-266.9995 147.46,0 267,119.5395 267,266.9995 C 1271.15,203.026 1159.49,111.015 1030.91,110.352 901.292,109.684 788.055,202.007 762.5,329.573 Z"
     fill="#00ffb6"
     id="path126" />
  <defs
     id="defs170">
    <linearGradient
       id="paint0_linear"
       x1="159579"
       y1="195366"
       x2="164087"
       y2="195366"
       gradientUnits="userSpaceOnUse">
      <stop
         stop-color="#190A35"
         stop-opacity="0"
         id="stop132" />
      <stop
         offset="0.0528"
         stop-color="#172047"
         stop-opacity="0.0906"
         id="stop134" />
      <stop
         offset="0.2033"
         stop-color="#115A77"
         stop-opacity="0.3281"
         id="stop136" />
      <stop
         offset="0.3531"
         stop-color="#0C8DA1"
         stop-opacity="0.5332"
         id="stop138" />
      <stop
         offset="0.4983"
         stop-color="#07B6C3"
         stop-opacity="0.7008"
         id="stop140" />
      <stop
         offset="0.6383"
         stop-color="#04D6DD"
         stop-opacity="0.8312"
         id="stop142" />
      <stop
         offset="0.7715"
         stop-color="#02ECF0"
         stop-opacity="0.9244"
         id="stop144" />
      <stop
         offset="0.8952"
         stop-color="#00FAFB"
         stop-opacity="0.9807"
         id="stop146" />
      <stop
         offset="1"
         stop-color="#00FFFF"
         id="stop148" />
    </linearGradient>
    <linearGradient
       id="paint1_linear"
       x1="215986"
       y1="250533"
       x2="222942"
       y2="250533"
       gradientUnits="userSpaceOnUse">
      <stop
         stop-color="#190A35"
         stop-opacity="0"
         id="stop151" />
      <stop
         offset="0.0528"
         stop-color="#172047"
         stop-opacity="0.0906"
         id="stop153" />
      <stop
         offset="0.2033"
         stop-color="#115A77"
         stop-opacity="0.3281"
         id="stop155" />
      <stop
         offset="0.3531"
         stop-color="#0C8DA1"
         stop-opacity="0.5332"
         id="stop157" />
      <stop
         offset="0.4983"
         stop-color="#07B6C3"
         stop-opacity="0.7008"
         id="stop159" />
      <stop
         offset="0.6383"
         stop-color="#04D6DD"
         stop-opacity="0.8312"
         id="stop161" />
      <stop
         offset="0.7715"
         stop-color="#02ECF0"
         stop-opacity="0.9244"
         id="stop163" />
      <stop
         offset="0.8952"
         stop-color="#00FAFB"
         stop-opacity="0.9807"
         id="stop165" />
      <stop
         offset="1"
         stop-color="#00FFFF"
         id="stop167" />
    </linearGradient>
  </defs>
</svg>
