<?xml version="1.0" encoding="UTF-8" standalone="no"?>
<!-- Created with Inkscape (http://www.inkscape.org/) -->

<svg
   width="85.599998mm"
   height="53.98mm"
   viewBox="0 0 85.599999 53.979999"
   version="1.1"
   id="svg5"
   inkscape:version="1.2.2 (b0a8486541, 2022-12-01)"
   sodipodi:docname="name.svg"
   xmlns:inkscape="http://www.inkscape.org/namespaces/inkscape"
   xmlns:sodipodi="http://sodipodi.sourceforge.net/DTD/sodipodi-0.dtd"
   xmlns="http://www.w3.org/2000/svg"
   xmlns:svg="http://www.w3.org/2000/svg">
  <sodipodi:namedview
     id="namedview7"
     pagecolor="#ffffff"
     bordercolor="#000000"
     borderopacity="0.25"
     inkscape:showpageshadow="2"
     inkscape:pageopacity="0.0"
     inkscape:pagecheckerboard="0"
     inkscape:deskcolor="#d1d1d1"
     inkscape:document-units="mm"
     showgrid="false"
     inkscape:zoom="1.1893044"
     inkscape:cx="142.09987"
     inkscape:cy="100.4789"
     inkscape:window-width="1854"
     inkscape:window-height="1131"
     inkscape:window-x="0"
     inkscape:window-y="0"
     inkscape:window-maximized="1"
     inkscape:current-layer="g2518" />
  <defs
     id="defs2" />
  <g
     inkscape:label="Layer 1"
     inkscape:groupmode="layer"
     id="layer1">
    <g
       id="g2518"
       transform="matrix(0.03527778,0,0,-0.03527778,-392.11634,329.46275)">
      <g
         id="g9324"
         transform="matrix(0.08831122,0,0,0.05661304,11170.331,8118.1884)">
        <path
           d="M 5722.49,2776.1 1367.93,-1164 -3310.96,-4712.9 1043.6,-772.801 5722.49,2776.1"
           style="fill:#272525;fill-opacity:1;fill-rule:nonzero;stroke:none"
           id="path3720" />
        <path
           d="M 5227.79,13553.7 -900.586,17412.5 -4447.04,20193.3 -613.043,17831.5 5227.79,13553.7"
           style="fill:#272525;fill-opacity:1;fill-rule:nonzero;stroke:none"
           id="path3722" />
        <path
           d="m -3925.46,17688.8 3155.378,-1584.5 7097.372,-4122.4 -7344.52,3678.4 -2908.23,2028.5"
           style="fill:#272525;fill-opacity:1;fill-rule:nonzero;stroke:none"
           id="path3724" />
        <path
           d="m 22124.5,8099.96 5872.4,29.77 5853,-478.04 -5872.4,-29.76 -5853,478.03"
           style="fill:#272525;fill-opacity:1;fill-rule:nonzero;stroke:none"
           id="path3726" />
        <path
           d="m 22810.2,10455.6 5714.4,1353.6 5810,854.4 -5714.4,-1353.5 -5810,-854.5"
           style="fill:#272525;fill-opacity:1;fill-rule:nonzero;stroke:none"
           id="path3728" />
        <path
           d="m 3417.89,13500.9 -5270.41,2590.2 -5026.75,3036.2 5270.41,-2590.3 5026.75,-3036.1"
           style="fill:#272525;fill-opacity:1;fill-rule:nonzero;stroke:none"
           id="path3730" />
        <path
           d="M -466.391,-6432.9 3213.4,-1856.2 7275.07,2385.1 3595.28,-2191.5 -466.391,-6432.9"
           style="fill:#272525;fill-opacity:1;fill-rule:nonzero;stroke:none"
           id="path3732" />
        <path
           d="m 11086,16877.2 -1299.19,5727 -799.17,5817.9 1299.16,-5727 799.2,-5817.9"
           style="fill:#272525;fill-opacity:1;fill-rule:nonzero;stroke:none"
           id="path3734" />
        <path
           d="M 2131.44,-6572.1 5280.74,-1615.5 8846.75,3050.4 5697.46,-1906.3 2131.44,-6572.1"
           style="fill:#272525;fill-opacity:1;fill-rule:nonzero;stroke:none"
           id="path3736" />
        <path
           d="M -2512.89,-1886.8 -859.316,-197.398 7164.86,4748.6 -571.953,-616.598 -2512.89,-1886.8"
           style="fill:#272525;fill-opacity:1;fill-rule:nonzero;stroke:none"
           id="path3738" />
        <path
           d="M 3418.39,-9256.6 5899.73,-3934 8831.92,1154 6350.58,-4168.5 3418.39,-9256.6"
           style="fill:#272525;fill-opacity:1;fill-rule:nonzero;stroke:none"
           id="path3740" />
        <path
           d="m 6849.5,-10630.6 1456.53,5689 L 10248.9,600.199 8792.4,-5088.8 6849.5,-10630.6"
           style="fill:#272525;fill-opacity:1;fill-rule:nonzero;stroke:none"
           id="path3742" />
        <path
           d="M 19907.5,3716.1 26116.2,-80.8984 29713.3,-2728.7 25837.1,-505.5 19907.5,3716.1"
           style="fill:#272525;fill-opacity:1;fill-rule:nonzero;stroke:none"
           id="path3744" />
        <path
           d="m 15609.1,16259.7 1869.2,5567.1 2343.5,5384.7 -1869.2,-5567.1 -2343.5,-5384.7"
           style="fill:#272525;fill-opacity:1;fill-rule:nonzero;stroke:none"
           id="path3746" />
        <path
           d="m 28265,20966.7 -4424.3,-3861.6 -4741.6,-3464.6 4424.4,3861.6 4741.5,3464.6"
           style="fill:#272525;fill-opacity:1;fill-rule:nonzero;stroke:none"
           id="path3748" />
        <path
           d="M -319.707,-4133.7 3020.42,-556.801 8081.99,4057.7 3375.17,-920.602 -319.707,-4133.7"
           style="fill:#272525;fill-opacity:1;fill-rule:nonzero;stroke:none"
           id="path3750" />
        <path
           d="m 12679.8,-9824.9 -273.5,5866.1 234.6,5867.8 273.5,-5866.1 -234.6,-5867.8"
           style="fill:#272525;fill-opacity:1;fill-rule:nonzero;stroke:none"
           id="path3752" />
        <path
           d="m 16307.6,-9530.8 -1417.6,5698.9 -919.6,5800 1417.6,-5698.8 919.6,-5800.1"
           style="fill:#272525;fill-opacity:1;fill-rule:nonzero;stroke:none"
           id="path3754" />
        <path
           d="m 21635.2,9414.66 5810.3,852.24 5862.3,346.8 -5810.4,-852.25 -5862.2,-346.79"
           style="fill:#272525;fill-opacity:1;fill-rule:nonzero;stroke:none"
           id="path3756" />
        <path
           d="m 15897.9,26466.3 -796.4,-5818.2 -1296.4,-5727.7 796.4,5818.3 1296.4,5727.6"
           style="fill:#272525;fill-opacity:1;fill-rule:nonzero;stroke:none"
           id="path3758" />
        <path
           d="M 21047.7,5408.7 26643.3,3626.4 32063.8,1367.1 26468.2,3149.4 21047.7,5408.7"
           style="fill:#272525;fill-opacity:1;fill-rule:nonzero;stroke:none"
           id="path3760" />
        <path
           d="M 4239.04,2936.3 -509.918,-518.199 -5539.74,-3549.3 -790.785,-94.8008 4239.04,2936.3"
           style="fill:#272525;fill-opacity:1;fill-rule:nonzero;stroke:none"
           id="path3762" />
        <path
           d="m -5916.07,6773.3 4852.19,698.79 6832.29,378.33 -6785.64,-884.32 -4898.84,-192.8"
           style="fill:#272525;fill-opacity:1;fill-rule:nonzero;stroke:none"
           id="path3764" />
        <path
           d="M 6639.96,143.801 3419.54,-4767 -213.359,-9380.9 3007.06,-4470.2 6639.96,143.801"
           style="fill:#272525;fill-opacity:1;fill-rule:nonzero;stroke:none"
           id="path3766" />
        <path
           d="m -4345.49,14574.1 3624.549,-1095.9 7418.891,-2870.3 -7590.653,2392 -3452.787,1574.2"
           style="fill:#272525;fill-opacity:1;fill-rule:nonzero;stroke:none"
           id="path3768" />
        <path
           d="M 2626.66,7951.62 -3217.97,7380 l -5872.17,-64.21 5844.63,571.63 5872.17,64.2"
           style="fill:#272525;fill-opacity:1;fill-rule:nonzero;stroke:none"
           id="path3770" />
        <path
           d="M 8380.07,26272.1 9986.79,20623.7 11099.2,14857.5 9492.46,20505.9 8380.07,26272.1"
           style="fill:#272525;fill-opacity:1;fill-rule:nonzero;stroke:none"
           id="path3772" />
        <path
           d="M 21473.5,3193.2 26634.6,391.5 31534.1,-2846 26373,-44.1992 21473.5,3193.2"
           style="fill:#272525;fill-opacity:1;fill-rule:nonzero;stroke:none"
           id="path3774" />
        <path
           d="m 20893.2,13037.6 5012.6,3059.4 5258.3,2614.7 -5012.6,-3059.5 -5258.3,-2614.6"
           style="fill:#272525;fill-opacity:1;fill-rule:nonzero;stroke:none"
           id="path3776" />
        <path
           d="m 20335.7,1845.8 4610.8,-3636.9 4279.2,-4021.8 -4610.9,3636.8 -4279.1,4021.9"
           style="fill:#272525;fill-opacity:1;fill-rule:nonzero;stroke:none"
           id="path3778" />
        <path
           d="M 1827.32,22618 5595.03,18113.5 8959.2,13300.1 5191.5,17804.6 1827.32,22618"
           style="fill:#272525;fill-opacity:1;fill-rule:nonzero;stroke:none"
           id="path3780" />
        <path
           d="m 31902.1,4960.9 -5817.3,803.3 -5726,1303.33 5817.3,-803.33 5726,-1303.3"
           style="fill:#272525;fill-opacity:1;fill-rule:nonzero;stroke:none"
           id="path3782" />
        <path
           d="m 12337.8,26548.8 353.2,-5861.9 -154.8,-5870.5 -353.3,5861.9 154.9,5870.5"
           style="fill:#272525;fill-opacity:1;fill-rule:nonzero;stroke:none"
           id="path3784" />
        <path
           d="m 12622.2,16830.9 -274.2,5866.1 233.9,5867.8 274.2,-5866.1 -233.9,-5867.8"
           style="fill:#272525;fill-opacity:1;fill-rule:nonzero;stroke:none"
           id="path3786" />
        <path
           d="m 19604.5,24984.9 -2052.7,-5502.1 -2520.6,-5304 2052.7,5502.1 2520.6,5304"
           style="fill:#272525;fill-opacity:1;fill-rule:nonzero;stroke:none"
           id="path3788" />
        <path
           d="m 6005.54,16100.5 -4048.51,4253.9 -3665.6,4588.1 4048.52,-4254 3665.59,-4588"
           style="fill:#272525;fill-opacity:1;fill-rule:nonzero;stroke:none"
           id="path3790" />
        <path
           d="m 6577.08,14422.1 -4370.41,3922.5 -4014.93,4285.7 4370.4,-3922.5 4014.94,-4285.7"
           style="fill:#272525;fill-opacity:1;fill-rule:nonzero;stroke:none"
           id="path3792" />
        <path
           d="m 18044.1,1594.1 3832,-4450 3433,-4764.5 -3832,4449.9 -3433,4764.6"
           style="fill:#272525;fill-opacity:1;fill-rule:nonzero;stroke:none"
           id="path3794" />
        <path
           d="m 3506.85,12090.2 -5547.2,1927.5 -5359.8,2399.8 5547.2,-1927.5 5359.8,-2399.8"
           style="fill:#272525;fill-opacity:1;fill-rule:nonzero;stroke:none"
           id="path3796" />
        <path
           d="m 21178.4,14519.8 4640.4,3599 4934.2,3184.4 -4640.4,-3599 -4934.2,-3184.4"
           style="fill:#272525;fill-opacity:1;fill-rule:nonzero;stroke:none"
           id="path3798" />
        <path
           d="m 29164.9,16671.6 -2364.5,-1496.8 -8150,-3712.1 7924.5,4167.4 2590,1041.5"
           style="fill:#272525;fill-opacity:1;fill-rule:nonzero;stroke:none"
           id="path3800" />
        <path
           d="m 19627.3,-8074 -2516.7,5306 -2048.4,5503.6 2516.6,-5306 2048.5,-5503.6"
           style="fill:#272525;fill-opacity:1;fill-rule:nonzero;stroke:none"
           id="path3802" />
        <path
           d="m 5338.84,1028.1 -3917.5,-4374.9 -4281.06,-4019.8 3917.51,4374.9 4281.05,4019.8"
           style="fill:#272525;fill-opacity:1;fill-rule:nonzero;stroke:none"
           id="path3804" />
        <path
           d="M 22588.7,-7853.1 19316.2,-2976.9 16477.5,2164 19750,-2712.3 22588.7,-7853.1"
           style="fill:#272525;fill-opacity:1;fill-rule:nonzero;stroke:none"
           id="path3806" />
        <path
           d="m 2473.59,9547.98 -5862.23,347.4 -5810.25,852.92 5862.23,-347.4 5810.25,-852.92"
           style="fill:#272525;fill-opacity:1;fill-rule:nonzero;stroke:none"
           id="path3808" />
        <path
           d="m 22930.6,6686.3 5824.1,-752.5 5737.2,-1253.2 -5824.1,752.5 -5737.2,1253.2"
           style="fill:#272525;fill-opacity:1;fill-rule:nonzero;stroke:none"
           id="path3810" />
        <path
           d="m 30854.7,7962.6 -4476.1,-158.8 -7253.4,485.65 7267.6,22.32 4461.9,-349.17"
           style="fill:#272525;fill-opacity:1;fill-rule:nonzero;stroke:none"
           id="path3812" />
        <path
           d="m 22384.4,25699.7 -2673.5,-5228.7 -3115.5,-4977.9 2673.5,5228.6 3115.5,4978"
           style="fill:#272525;fill-opacity:1;fill-rule:nonzero;stroke:none"
           id="path3814" />
        <path
           d="M 3274.5,6700.3 -2444,5364.1 l -5812.6,-836.7 5718.5,1336.1 5812.6,836.8"
           style="fill:#272525;fill-opacity:1;fill-rule:nonzero;stroke:none"
           id="path3816" />
        <path
           d="m -6141.09,11641.6 5309.817,-631 6262.513,-1310.37 -6346.588,809.17 -5225.742,1132.2"
           style="fill:#272525;fill-opacity:1;fill-rule:nonzero;stroke:none"
           id="path3818" />
        <path
           d="m 24959.5,21743.1 -3808.1,-4470.4 -4180.3,-4124.5 3808.1,4470.4 4180.3,4124.5"
           style="fill:#272525;fill-opacity:1;fill-rule:nonzero;stroke:none"
           id="path3820" />
        <path
           d="M -5081.69,633.102 -1166.53,2653.4 5645.99,5387.5 -960.629,2188.8 -5081.69,633.102"
           style="fill:#272525;fill-opacity:1;fill-rule:nonzero;stroke:none"
           id="path3822" />
        <path
           d="m 22167.3,12123.4 5392.8,2324.7 5573.6,1849.7 -5392.8,-2324.6 -5573.6,-1849.8"
           style="fill:#272525;fill-opacity:1;fill-rule:nonzero;stroke:none"
           id="path3824" />
        <path
           d="M 19280.6,407.5 23211.9,-3955 26751.3,-8641 22820,-4278.6 19280.6,407.5"
           style="fill:#272525;fill-opacity:1;fill-rule:nonzero;stroke:none"
           id="path3826" />
        <path
           d="M 4722.18,11082.1 -929.652,12676.8 -6422.45,14754.2 -770.621,13159.5 4722.18,11082.1"
           style="fill:#272525;fill-opacity:1;fill-rule:nonzero;stroke:none"
           id="path3828" />
        <path
           d="M 24578.1,-5136.7 20516.4,-895.398 16836.6,3681.2 20898.3,-560.098 24578.1,-5136.7"
           style="fill:#272525;fill-opacity:1;fill-rule:nonzero;stroke:none"
           id="path3830" />
        <path
           d="m 19539.6,-9983 -2291.8,5406.8 -1815.7,5584.8 2291.7,-5406.9 1815.8,-5584.7"
           style="fill:#272525;fill-opacity:1;fill-rule:nonzero;stroke:none"
           id="path3832" />
        <path
           d="m 27414,19054.6 -1633.9,-1486.8 -7907,-5344 7611.2,5757.2 1929.7,1073.6"
           style="fill:#272525;fill-opacity:1;fill-rule:nonzero;stroke:none"
           id="path3834" />
        <path
           d="m 3011.81,5372.6 -5507.14,-2039.1 -5662.8,-1555.4 5507.14,2039.1 5662.8,1555.4"
           style="fill:#272525;fill-opacity:1;fill-rule:nonzero;stroke:none"
           id="path3836" />
        <path
           d="m -5487.56,4210.9 4172.92,1223.5 7249.8,1461.5 -7133.52,-1956.2 -4289.2,-728.8"
           style="fill:#272525;fill-opacity:1;fill-rule:nonzero;stroke:none"
           id="path3838" />
        <path
           d="m 1270.25,24450.1 3611.21,-4630.9 3197.32,-4925.9 -3611.2,4631 -3197.33,4925.8"
           style="fill:#272525;fill-opacity:1;fill-rule:nonzero;stroke:none"
           id="path3840" />
        <path
           d="m 30938.5,11156.1 -4318.4,-899.5 -7293.5,-788.64 7220.4,1291.54 4391.5,396.6"
           style="fill:#272525;fill-opacity:1;fill-rule:nonzero;stroke:none"
           id="path3842" />
        <path
           d="m 5438.13,25263.4 2544.8,-5292.5 2077.77,-5492.7 -2544.84,5292.5 -2077.73,5492.7"
           style="fill:#272525;fill-opacity:1;fill-rule:nonzero;stroke:none"
           id="path3844" />
        <path
           d="m 2604.82,10793.7 -5774.75,1067.1 -5660.87,1562.4 5774.75,-1067.1 5660.87,-1562.4"
           style="fill:#272525;fill-opacity:1;fill-rule:nonzero;stroke:none"
           id="path3846" />
        <path
           d="m 10516.4,-11210.9 370.3,5860.8 875.6,5806.901 -370.3,-5860.901 -875.6,-5806.8"
           style="fill:#272525;fill-opacity:1;fill-rule:nonzero;stroke:none"
           id="path3848" />
        <path
           d="m 19796.1,15288.3 4074.7,4228.9 4424.9,3860.9 -4074.6,-4228.9 -4425,-3860.9"
           style="fill:#272525;fill-opacity:1;fill-rule:nonzero;stroke:none"
           id="path3850" />
        <path
           d="M 8897.46,15982 6051.45,21118.8 3660.18,26482.4 6506.19,21345.6 8897.46,15982"
           style="fill:#272525;fill-opacity:1;fill-rule:nonzero;stroke:none"
           id="path3852" />
        <path
           d="m 30269.5,13979.2 -3619.2,-1307.5 -7585.8,-2176.1 7435,2661.3 3770,822.3"
           style="fill:#272525;fill-opacity:1;fill-rule:nonzero;stroke:none"
           id="path3854" />
        <path
           d="m 20695.6,11224.2 5476.8,2119.2 5639.5,1637.8 -5476.8,-2119.2 -5639.5,-1637.8"
           style="fill:#272525;fill-opacity:1;fill-rule:nonzero;stroke:none"
           id="path3856" />
        <path
           d="M 8576.72,-9153.7 9642.86,-3378.8 11204.3,2282.3 10138.1,-3492.6 8576.72,-9153.7"
           style="fill:#272525;fill-opacity:1;fill-rule:nonzero;stroke:none"
           id="path3858" />
        <path
           d="M 3886.08,4234.4 -1278.8,1439.7 -6665.95,-898 -1501.07,1896.7 3886.08,4234.4"
           style="fill:#272525;fill-opacity:1;fill-rule:nonzero;stroke:none"
           id="path3860" />
        <path
           d="m -6303.13,9258.03 5229.3,51.4 6495.31,-521.69 -6515.68,13.93 -5208.93,456.36"
           style="fill:#272525;fill-opacity:1;fill-rule:nonzero;stroke:none"
           id="path3862" />
        <path
           d="m 19129.1,16344.1 3542.8,4683.5 3934.3,4359.8 -3542.7,-4683.6 -3934.4,-4359.7"
           style="fill:#272525;fill-opacity:1;fill-rule:nonzero;stroke:none"
           id="path3864" />
        <path
           d="M -3699.33,1555.5 -1023.2,2962.3 7103.25,6137.1 -824.781,2494.4 -3699.33,1555.5"
           style="fill:#272525;fill-opacity:1;fill-rule:nonzero;stroke:none"
           id="path3866" />
        <path
           d="M 5232.93,-8039.5 7401.77,-2582.2 10034.3,2667.2 7865.45,-2790.1 5232.93,-8039.5"
           style="fill:#272525;fill-opacity:1;fill-rule:nonzero;stroke:none"
           id="path3868" />
        <path
           d="m 30033.6,3390.1 -3549.3,783.6 -7711.6,2514.8 7854.4,-2027.2 3406.5,-1271.2"
           style="fill:#272525;fill-opacity:1;fill-rule:nonzero;stroke:none"
           id="path3870" />
        <path
           d="M 28948.2,-15.6992 23629,2472.7 18544.8,5411.6 23864,2923.2 28948.2,-15.6992"
           style="fill:#272525;fill-opacity:1;fill-rule:nonzero;stroke:none"
           id="path3872" />
        <path
           d="M 22372,4681.7 27927.3,2777.9 33297.3,400.801 27742,2304.7 l -5370,2377"
           style="fill:#272525;fill-opacity:1;fill-rule:nonzero;stroke:none"
           id="path3874" />
        <path
           d="m 24621.1,24256.9 -3349,-4823.9 -3753.5,-4516.4 3349,4824 3753.5,4516.3"
           style="fill:#272525;fill-opacity:1;fill-rule:nonzero;stroke:none"
           id="path3876" />
        <path
           d="m -1634.93,20013.2 2929.55,-2123.7 6196.51,-5252.1 -6515.935,4856.8 -2610.125,2519"
           style="fill:#272525;fill-opacity:1;fill-rule:nonzero;stroke:none"
           id="path3878" />
        <path
           d="m 27081.1,-3025.3 -2898.7,1999 -6278.7,5312.8 6595.4,-4915.301 2582,-2396.499"
           style="fill:#272525;fill-opacity:1;fill-rule:nonzero;stroke:none"
           id="path3880" />
        <path
           d="M 4594.26,14932.4 -140.289,18406.7 -4556.75,22277.2 177.797,18802.9 4594.26,14932.4"
           style="fill:#272525;fill-opacity:1;fill-rule:nonzero;stroke:none"
           id="path3882" />
        <path
           d="m 22361.8,-6589.8 -2945.4,4490.4 -2845,4554.5 2945.3,-4490.3 2845.1,-4554.6"
           style="fill:#272525;fill-opacity:1;fill-rule:nonzero;stroke:none"
           id="path3884" />
        <path
           d="m 27455.7,-6505 -3805.2,3789.3 -3720.3,3872.8 3805.3,-3789.3 3720.2,-3872.8"
           style="fill:#272525;fill-opacity:1;fill-rule:nonzero;stroke:none"
           id="path3886" />
        <path
           d="m 2204.01,14836.7 -4554.02,2845.9 -4489.78,2946.2 4554.02,-2845.9 4489.78,-2946.2"
           style="fill:#272525;fill-opacity:1;fill-rule:nonzero;stroke:none"
           id="path3888" />
        <path
           d="m 29295.3,19857.3 -4379.4,-3107.8 -4447.3,-3010 4379.4,3107.9 4447.3,3009.9"
           style="fill:#272525;fill-opacity:1;fill-rule:nonzero;stroke:none"
           id="path3890" />
        <path
           d="M 28097.4,-2774.7 23732.2,353.301 19437.6,3577.3 23802.7,449.301 28097.4,-2774.7"
           style="fill:#272525;fill-opacity:1;fill-rule:nonzero;stroke:none"
           id="path3892" />
        <path
           d="m 11112.6,-8548.9 415.2,5354 533.8,5343.6 -415.2,-5354.1 -533.8,-5343.5"
           style="fill:#272525;fill-opacity:1;fill-rule:nonzero;stroke:none"
           id="path3894" />
        <path
           d="m 33258.8,8493.95 -5369.5,-81.48 -5370,37.65 5369.5,81.47 5370,-37.64"
           style="fill:#272525;fill-opacity:1;fill-rule:nonzero;stroke:none"
           id="path3896" />
        <path
           d="M -5137.8,16163.2 -201.23,14049.3 4687.24,11826.4 -249.332,13940.3 -5137.8,16163.2"
           style="fill:#272525;fill-opacity:1;fill-rule:nonzero;stroke:none"
           id="path3898" />
        <path
           d="m 30039.3,14420.4 -5049.5,-1827.7 -5088.9,-1715.3 5049.6,1827.7 5088.8,1715.3"
           style="fill:#272525;fill-opacity:1;fill-rule:nonzero;stroke:none"
           id="path3900" />
        <path
           d="m -7789.92,11639 5312.31,-785.9 5293.58,-903.56 -5312.32,785.86 -5293.57,903.6"
           style="fill:#272525;fill-opacity:1;fill-rule:nonzero;stroke:none"
           id="path3902" />
        <path
           d="m 12312.3,26697.9 161.7,-5367.7 42.6,-5370 -161.7,5367.7 -42.6,5370"
           style="fill:#272525;fill-opacity:1;fill-rule:nonzero;stroke:none"
           id="path3904" />
        <path
           d="m 23773.9,13269.9 4865.7,2272.3 4914.9,2163.9 -4865.7,-2272.3 -4914.9,-2163.9"
           style="fill:#272525;fill-opacity:1;fill-rule:nonzero;stroke:none"
           id="path3906" />
        <path
           d="m 25371.6,16582.3 4441.7,3018.2 4507.6,2918.9 -4441.7,-3018.2 -4507.6,-2918.9"
           style="fill:#272525;fill-opacity:1;fill-rule:nonzero;stroke:none"
           id="path3908" />
        <path
           d="m 18118.8,-7472.5 -1783,5065.5 -1670.3,5103.8 1783.1,-5065.5 1670.2,-5103.8"
           style="fill:#272525;fill-opacity:1;fill-rule:nonzero;stroke:none"
           id="path3910" />
        <path
           d="m 13151.1,-9139.9 -210.8,5366 -91.7,5369.3 210.8,-5366 91.7,-5369.3"
           style="fill:#272525;fill-opacity:1;fill-rule:nonzero;stroke:none"
           id="path3912" />
        <path
           d="m -5844.68,8263.75 5368.672,125.23 5370.128,6.14 -5368.671,-125.25 -5370.129,-6.12"
           style="fill:#272525;fill-opacity:1;fill-rule:nonzero;stroke:none"
           id="path3914" />
        <path
           d="m 7879.69,25260.1 1504.11,-5155.2 1389.4,-5187.3 -1504.11,5155.2 -1389.4,5187.3"
           style="fill:#272525;fill-opacity:1;fill-rule:nonzero;stroke:none"
           id="path3916" />
        <path
           d="m 23679.2,22495 -3238.2,-4284 -3332.3,-4211.1 3238.1,4284 3332.4,4211.1"
           style="fill:#272525;fill-opacity:1;fill-rule:nonzero;stroke:none"
           id="path3918" />
        <path
           d="m 26273.9,24251.5 -3434.3,-4128.4 -3525,-4051.3 3434.3,4128.5 3525,4051.2"
           style="fill:#272525;fill-opacity:1;fill-rule:nonzero;stroke:none"
           id="path3920" />
        <path
           d="M -712.672,20264.9 3322.41,16721.4 7277.91,13089.3 3242.83,16632.8 -712.672,20264.9"
           style="fill:#272525;fill-opacity:1;fill-rule:nonzero;stroke:none"
           id="path3922" />
        <path
           d="M 19505.8,-9597.8 17558.9,-4593 15723.3,453.699 17670.3,-4551.1 19505.8,-9597.8"
           style="fill:#272525;fill-opacity:1;fill-rule:nonzero;stroke:none"
           id="path3924" />
        <path
           d="M -4118.63,1563.3 821.914,3667.9 5807.92,5662.4 867.379,3557.8 -4118.63,1563.3"
           style="fill:#272525;fill-opacity:1;fill-rule:nonzero;stroke:none"
           id="path3926" />
        <path
           d="M 1274.47,3775.8 -3650.1,1634.1 -8620.96,-397.898 -3696.39,1743.8 l 4970.86,2032"
           style="fill:#272525;fill-opacity:1;fill-rule:nonzero;stroke:none"
           id="path3928" />
        <path
           d="M 7773.89,-8154.2 9215.11,-2981 10770.7,2158.8 9329.5,-3014.3 7773.89,-8154.2"
           style="fill:#272525;fill-opacity:1;fill-rule:nonzero;stroke:none"
           id="path3930" />
        <path
           d="M 22785.6,3279.8 27558.5,818.602 32275.7,-1747.9 27502.8,713.301 22785.6,3279.8"
           style="fill:#272525;fill-opacity:1;fill-rule:nonzero;stroke:none"
           id="path3932" />
        <path
           d="M -475.383,24353.5 2964.79,20230 6312.65,16031.1 2872.48,20154.7 -475.383,24353.5"
           style="fill:#272525;fill-opacity:1;fill-rule:nonzero;stroke:none"
           id="path3934" />
        <path
           d="m 30472.7,6427.2 -5343,539.5 -5329.7,657.89 5343,-539.5 5329.7,-657.89"
           style="fill:#272525;fill-opacity:1;fill-rule:nonzero;stroke:none"
           id="path3936" />
        <path
           d="M -6733.06,4053.9 -1508.73,5296.7 3741.88,6423.4 -1482.45,5180.6 -6733.06,4053.9"
           style="fill:#272525;fill-opacity:1;fill-rule:nonzero;stroke:none"
           id="path3938" />
        <path
           d="m 640.57,7556.93 -5352.01,-440.75 -5360.46,-321.98 5352,440.8 5360.47,321.93"
           style="fill:#272525;fill-opacity:1;fill-rule:nonzero;stroke:none"
           id="path3940" />
        <path
           d="m 25413.1,10933.5 5252.1,1119.9 5275.6,1003.1 -5252.1,-1119.9 -5275.6,-1003.1"
           style="fill:#272525;fill-opacity:1;fill-rule:nonzero;stroke:none"
           id="path3942" />
        <path
           d="m 18556.1,25390.4 -1686.1,-5098.5 -1798.7,-5060 1686,5098.6 1798.8,5059.9"
           style="fill:#272525;fill-opacity:1;fill-rule:nonzero;stroke:none"
           id="path3944" />
        <path
           d="M 25397,5559 30642.3,4407.8 35860.7,3140.4 30615.4,4291.7 25397,5559"
           style="fill:#272525;fill-opacity:1;fill-rule:nonzero;stroke:none"
           id="path3946" />
        <path
           d="M 3684.64,25042 6266.63,20333.3 8743.54,15568.5 6161.56,20277.2 3684.64,25042"
           style="fill:#272525;fill-opacity:1;fill-rule:nonzero;stroke:none"
           id="path3948" />
        <path
           d="M -4007.56,-2068 484.219,875.199 5040.18,3718 548.395,774.801 -4007.56,-2068"
           style="fill:#272525;fill-opacity:1;fill-rule:nonzero;stroke:none"
           id="path3950" />
        <path
           d="m 2501.88,900.301 -4222.87,-3317.501 -4295.42,-3223 4222.88,3317.5 4295.41,3223.001"
           style="fill:#272525;fill-opacity:1;fill-rule:nonzero;stroke:none"
           id="path3952" />
        <path
           d="M 2222.51,21797 5546.71,17579.4 8776.54,13289.1 5452.34,17506.7 2222.51,21797"
           style="fill:#272525;fill-opacity:1;fill-rule:nonzero;stroke:none"
           id="path3954" />
        <path
           d="M 522.473,-5480.1 3986.75,-1376.8 7541.18,2648.6 4076.9,-1454.7 522.473,-5480.1"
           style="fill:#272525;fill-opacity:1;fill-rule:nonzero;stroke:none"
           id="path3956" />
        <path
           d="m 31417.1,3188.8 -5185,1397.9 -5152.7,1512.5 5185,-1397.8 5152.7,-1512.6"
           style="fill:#272525;fill-opacity:1;fill-rule:nonzero;stroke:none"
           id="path3958" />
        <path
           d="M 24732.2,2897.7 29609.4,650.199 34435.6,-1705 29558.4,542.602 24732.2,2897.7"
           style="fill:#272525;fill-opacity:1;fill-rule:nonzero;stroke:none"
           id="path3960" />
        <path
           d="M 29513.1,-3115.1 25063.3,-108.801 20681.3,2995.5 25131.1,-10.7969 29513.1,-3115.1"
           style="fill:#272525;fill-opacity:1;fill-rule:nonzero;stroke:none"
           id="path3962" />
        <path
           d="M -4038.7,20824.9 288.367,17644.6 4543.82,14369 216.758,17549.4 -4038.7,20824.9"
           style="fill:#272525;fill-opacity:1;fill-rule:nonzero;stroke:none"
           id="path3964" />
        <path
           d="m 31968.9,11287.2 -5301.9,-853.6 -5319.5,-735.9 5301.9,853.7 5319.5,735.8"
           style="fill:#272525;fill-opacity:1;fill-rule:nonzero;stroke:none"
           id="path3966" />
        <path
           d="m -2800.58,-4930.1 4006.38,3576 4084.69,3486.2 -4006.36,-3576 -4084.71,-3486.2"
           style="fill:#272525;fill-opacity:1;fill-rule:nonzero;stroke:none"
           id="path3968" />
        <path
           d="m 22059.2,15472.1 4193.3,3354.6 4266.8,3260.9 -4193.4,-3354.7 -4266.7,-3260.8"
           style="fill:#272525;fill-opacity:1;fill-rule:nonzero;stroke:none"
           id="path3970" />
      </g>
      <g
         aria-label="Will Holcomb"
         transform="scale(1,-1)"
         id="text9380"
         style="font-size:442.719px;-inkscape-font-specification:'sans-serif, Normal';stroke:#ffffff;stroke-width:64.4598;stroke-opacity:0.996078;paint-order:stroke fill markers">
        <path
           d="m 11319.536,-8648.296 28.776,-8.8544 c 65.08,-93.4137 85.002,-122.6332 132.816,-195.2391 -0.885,53.1263 -5.755,163.806 -9.74,204.0935 l 28.334,-9.2971 c 15.053,-23.0214 20.365,-30.5477 48.699,-65.5225 84.117,-102.7108 112.894,-153.1807 112.894,-196.1245 0,-12.3961 -1.771,-19.4796 -6.641,-29.2194 -6.198,-3.5418 -7.526,-3.9845 -17.709,-7.0835 -12.396,5.7553 -17.266,8.8544 -28.334,18.1515 11.954,12.3961 16.381,23.9068 16.381,42.0583 0,19.9223 -7.084,43.3864 -21.251,70.835 -17.708,34.0894 -41.173,65.5224 -95.184,128.8312 1.328,-20.365 2.213,-34.0893 2.213,-38.9592 l 2.657,-62.4234 c 1.328,-30.9904 2.213,-50.9127 6.198,-112.4506 l -25.678,10.1825 c -20.365,34.5321 -97.398,148.7536 -130.602,193.9109 4.87,-35.8602 22.136,-133.2584 32.761,-186.3847 9.297,-3.099 14.61,-6.1981 23.021,-14.167 -85.887,0.8854 -91.2,0.8854 -107.138,6.1981 -38.073,12.3961 -62.866,42.9437 -62.866,77.9185 0,15.0525 3.542,27.0059 11.068,39.8447 l 33.204,-20.8078 c -10.625,-15.9379 -14.609,-28.334 -14.609,-43.3864 0,-18.5942 8.854,-31.8758 25.235,-37.6311 10.625,-3.9845 22.135,-4.87 54.454,-5.3127 -4.427,30.5476 -5.313,38.0739 -9.297,61.9807 -16.823,101.8254 -23.022,139.8992 -23.464,142.5555 z"
           style="font-family:Z003;-inkscape-font-specification:'Z003, Normal'"
           id="path9569" />
        <path
           d="m 11712.669,-8928.5372 c -12.396,9.7399 -22.578,17.7088 -30.547,23.0214 3.099,9.2971 7.083,16.8233 16.823,30.9904 12.396,-11.068 13.724,-12.3962 28.777,-23.9069 -1.328,-2.6563 -2.214,-4.4272 -5.755,-10.1825 -2.657,-5.3126 -3.1,-5.3126 -6.641,-14.167 z m 16.824,221.3595 -7.526,3.9845 c -30.548,16.8233 -35.861,19.0369 -41.173,19.0369 -4.87,0 -7.969,-4.8699 -7.969,-12.3961 0,-7.5262 0,-7.5262 14.609,-65.9651 16.381,-67.2933 16.381,-67.2933 16.381,-70.8351 0,-2.6563 -2.214,-4.4272 -5.313,-4.4272 -7.526,0 -33.646,14.6098 -69.949,38.9593 l -0.886,12.3961 c 27.006,-14.6097 28.334,-15.0524 32.319,-15.0524 3.542,0 5.312,2.6563 5.312,7.5262 0,6.1981 -1.328,12.3961 -7.968,37.6311 -20.808,77.0331 -20.808,77.0331 -20.808,88.5438 0,10.6253 3.984,17.7088 10.625,17.7088 7.526,0 19.48,-5.7554 42.944,-20.8078 8.411,-5.3126 16.823,-10.6253 25.235,-16.3806 3.984,-2.2136 7.083,-4.4272 12.396,-7.5262 z"
           style="font-family:Z003;-inkscape-font-specification:'Z003, Normal'"
           id="path9571" />
        <path
           d="m 11833.974,-8712.933 c -9.297,5.3126 -9.297,5.3126 -28.334,17.266 -12.839,7.969 -20.365,11.5107 -25.235,11.5107 -4.427,0 -7.969,-5.3126 -7.969,-11.5107 v -3.9844 -3.9845 c 0,-7.969 19.923,-93.8564 36.303,-156.2798 17.266,-65.5224 21.251,-73.0487 40.73,-73.0487 6.641,0 11.068,0.4428 21.694,3.0991 l 19.037,-23.4641 c -9.297,-2.2136 -13.725,-2.6563 -19.923,-2.6563 -17.709,0 -31.433,6.6407 -53.126,26.1204 -19.48,17.266 -24.35,24.3495 -30.105,40.2874 -3.542,10.6253 -13.281,46.4855 -17.709,65.9651 l -31.875,138.5711 c -0.443,2.6563 -0.886,5.3126 -0.886,7.9689 0,13.7243 7.526,27.0059 14.61,27.0059 h 2.656 1.328 c 2.657,1.3281 16.824,-8.4117 78.804,-53.1263 z"
           style="font-family:Z003;-inkscape-font-specification:'Z003, Normal'"
           id="path9573" />
        <path
           d="m 11940.227,-8712.933 c -9.297,5.3126 -9.297,5.3126 -28.334,17.266 -12.839,7.969 -20.365,11.5107 -25.235,11.5107 -4.427,0 -7.969,-5.3126 -7.969,-11.5107 v -3.9844 -3.9845 c 0,-7.969 19.922,-93.8564 36.303,-156.2798 17.266,-65.5224 21.25,-73.0487 40.73,-73.0487 6.641,0 11.068,0.4428 21.693,3.0991 l 19.037,-23.4641 c -9.297,-2.2136 -13.724,-2.6563 -19.922,-2.6563 -17.709,0 -31.433,6.6407 -53.127,26.1204 -19.479,17.266 -24.349,24.3495 -30.104,40.2874 -3.542,10.6253 -13.282,46.4855 -17.709,65.9651 l -31.876,138.5711 c -0.443,2.6563 -0.885,5.3126 -0.885,7.9689 0,13.7243 7.526,27.0059 14.609,27.0059 h 2.657 1.328 c 2.656,1.3281 16.823,-8.4117 78.804,-53.1263 z"
           style="font-family:Z003;-inkscape-font-specification:'Z003, Normal'"
           id="path9575" />
        <path
           d="m 12181.508,-8798.3778 c 2.657,-8.4116 3.985,-14.167 4.87,-16.3806 2.656,-10.6252 5.313,-20.8078 7.969,-30.9903 2.656,-10.6253 5.313,-21.2505 8.412,-31.8758 0.442,-1.7709 1.771,-7.9689 3.542,-16.3806 l 17.266,-14.6097 c -11.511,-0.8854 -19.48,-0.8854 -25.678,-0.8854 -43.387,0 -73.049,7.9689 -96.956,25.6777 -23.906,17.7087 -34.532,38.0738 -34.532,65.9651 0,7.0835 0.886,11.5107 3.542,22.1359 l 33.204,-11.0679 c -3.984,-14.1671 -4.87,-20.8078 -4.87,-30.5477 0,-24.3495 10.183,-42.0583 27.891,-50.0272 11.068,-4.4272 21.694,-5.7553 48.699,-5.7553 -6.64,21.6932 -7.083,23.9068 -22.135,82.7884 l -3.1,12.8389 -15.937,16.8233 11.51,0.8854 c -21.25,82.3457 -30.99,94.2992 -78.361,94.2992 -7.083,0 -12.396,0 -23.464,-0.8855 l -20.808,28.7768 c 9.74,1.3281 13.724,1.7708 21.693,1.7708 14.167,0 25.235,-1.3281 34.09,-4.4272 13.724,-3.9844 35.86,-21.6932 58.881,-45.6 23.464,-24.3496 24.793,-27.0059 39.402,-73.0486 54.897,-3.5418 70.835,-4.4272 95.628,-4.87 -2.214,9.2971 -3.985,15.4952 -4.428,18.1515 l -10.182,37.6311 c -15.495,61.9807 -15.495,61.9807 -15.495,67.736 0,4.87 4.427,9.2971 9.74,9.2971 3.099,0 7.526,-0.8854 12.396,-2.2136 11.51,-3.099 18.594,-4.4271 66.85,-13.2815 l 7.969,-11.068 c -23.021,2.2136 -30.547,2.6563 -42.058,2.6563 -8.854,0 -14.167,-4.4272 -14.167,-11.9534 0,-13.7243 0,-13.7243 28.334,-123.9613 28.334,-98.7263 28.334,-98.7263 33.647,-107.138 6.64,-10.6253 14.167,-15.0525 26.563,-15.0525 8.854,0 13.724,0.8855 23.464,4.4272 l 15.052,-24.3495 c -7.969,-2.6563 -11.51,-3.099 -19.479,-3.099 -5.756,0 -10.183,0.4427 -14.61,1.7708 -11.068,3.5418 -33.647,21.2505 -52.684,41.1729 -17.708,19.0369 -23.906,30.5476 -31.433,57.9962 l -11.953,42.9437 c -0.443,1.3282 -1.771,6.1981 -3.985,13.7243 z"
           style="font-family:Z003;-inkscape-font-specification:'Z003, Normal'"
           id="path9577" />
        <path
           d="m 12467.948,-8837.7798 c -17.709,0 -46.043,12.8389 -72.164,32.3185 -28.334,21.2505 -48.256,67.2933 -48.256,111.5652 0,26.5631 15.052,43.8292 38.517,43.8292 12.396,0 25.235,-4.4272 45.157,-15.0525 22.136,-12.3961 36.746,-23.4641 44.715,-33.6466 17.708,-24.3496 31.875,-67.736 31.875,-98.2836 0,-23.9069 -16.38,-40.7302 -39.844,-40.7302 z m -23.022,20.8078 c 17.709,0 28.777,16.8233 28.777,43.8292 0,19.0369 -6.198,41.6156 -16.823,63.3088 -12.839,25.235 -28.777,38.9593 -45.6,38.9593 -18.152,0 -29.663,-16.3806 -29.663,-41.6156 0,-51.3554 32.319,-104.4817 63.309,-104.4817 z"
           style="font-family:Z003;-inkscape-font-specification:'Z003, Normal'"
           id="path9579" />
        <path
           d="m 12622.014,-8712.933 c -9.297,5.3126 -9.297,5.3126 -28.334,17.266 -12.839,7.969 -20.365,11.5107 -25.235,11.5107 -4.428,0 -7.969,-5.3126 -7.969,-11.5107 v -3.9844 -3.9845 c 0,-7.969 19.922,-93.8564 36.303,-156.2798 17.266,-65.5224 21.25,-73.0487 40.73,-73.0487 6.641,0 11.068,0.4428 21.693,3.0991 l 19.037,-23.4641 c -9.297,-2.2136 -13.724,-2.6563 -19.922,-2.6563 -17.709,0 -31.433,6.6407 -53.127,26.1204 -19.479,17.266 -24.349,24.3495 -30.105,40.2874 -3.541,10.6253 -13.281,46.4855 -17.708,65.9651 l -31.876,138.5711 c -0.443,2.6563 -0.886,5.3126 -0.886,7.9689 0,13.7243 7.527,27.0059 14.61,27.0059 h 2.656 1.329 c 2.656,1.3281 16.823,-8.4117 78.804,-53.1263 z"
           style="font-family:Z003;-inkscape-font-specification:'Z003, Normal'"
           id="path9581" />
        <path
           d="m 12761.913,-8712.0476 c -33.647,24.3496 -57.554,36.7457 -71.721,36.7457 -15.938,0 -25.235,-12.3961 -25.235,-33.6466 0,-21.6933 5.313,-49.5846 13.725,-70.3924 9.297,-23.4641 20.365,-35.4175 33.203,-35.4175 10.626,0 16.381,8.4117 18.595,27.8913 l 25.677,-15.0524 c 0.443,-2.2136 0.443,-4.4272 0.443,-5.3127 0,-19.0369 -9.74,-30.5476 -25.235,-30.5476 -8.412,0 -12.396,1.7709 -28.777,12.3962 -33.204,20.8078 -40.287,27.4485 -50.027,45.6 -12.396,23.9068 -21.693,61.538 -21.693,88.9865 0,26.1205 11.511,40.7302 32.318,40.7302 21.251,0 56.668,-17.2661 97.841,-47.8137 z"
           style="font-family:Z003;-inkscape-font-specification:'Z003, Normal'"
           id="path9583" />
        <path
           d="m 12901.812,-8837.7798 c -17.709,0 -46.043,12.8389 -72.163,32.3185 -28.334,21.2505 -48.257,67.2933 -48.257,111.5652 0,26.5631 15.053,43.8292 38.517,43.8292 12.396,0 25.235,-4.4272 45.157,-15.0525 22.136,-12.3961 36.746,-23.4641 44.715,-33.6466 17.709,-24.3496 31.876,-67.736 31.876,-98.2836 0,-23.9069 -16.381,-40.7302 -39.845,-40.7302 z m -23.021,20.8078 c 17.708,0 28.776,16.8233 28.776,43.8292 0,19.0369 -6.198,41.6156 -16.823,63.3088 -12.839,25.235 -28.777,38.9593 -45.6,38.9593 -18.152,0 -29.662,-16.3806 -29.662,-41.6156 0,-51.3554 32.318,-104.4817 63.309,-104.4817 z"
           style="font-family:Z003;-inkscape-font-specification:'Z003, Normal'"
           id="path9585" />
        <path
           d="m 12960.693,-8651.3951 31.433,-11.9534 28.334,-107.5807 c 28.777,-19.9224 47.814,-30.5476 53.569,-30.5476 3.542,0 5.756,3.5417 5.756,9.7398 0,13.2816 -16.824,80.1321 -35.418,140.3419 l 33.647,-11.9534 27.449,-110.6797 c 25.234,-16.3806 49.141,-29.6622 54.454,-29.6622 3.984,0 5.755,3.099 5.755,8.4117 0,9.7398 -3.984,29.6621 -15.938,75.2622 -6.64,27.4486 -8.854,38.5165 -8.854,48.6991 0,9.2971 2.214,14.167 10.625,19.9223 25.678,-12.8388 50.47,-28.7767 74.82,-48.2563 l 0.443,-10.1826 c -37.632,23.0214 -37.632,23.0214 -43.83,23.0214 -4.87,0 -7.969,-4.4272 -7.969,-11.5107 0,-10.1825 5.313,-33.6466 14.61,-66.4078 14.167,-49.1418 16.823,-59.3244 16.823,-66.4079 0,-4.4272 -2.213,-6.6408 -7.083,-6.6408 -7.969,0 -35.418,14.167 -89.429,46.0428 1.771,-7.9689 1.771,-7.9689 5.755,-25.235 1.771,-6.6408 3.099,-14.167 3.099,-15.9379 0,-3.099 -2.214,-4.8699 -5.755,-4.8699 -7.526,0 -24.35,9.2971 -88.101,49.5846 7.083,-30.1049 9.297,-40.2875 9.297,-43.3865 0,-3.9845 -2.657,-6.1981 -6.641,-6.1981 -4.427,0 -9.297,2.6563 -31.433,15.0525 -29.22,16.8233 -29.22,16.8233 -37.188,22.1359 l -3.1,12.3962 c 23.465,-11.9535 27.449,-13.2816 32.762,-13.2816 3.541,0 6.198,3.5417 6.198,8.4116 0,6.6408 -1.328,12.3962 -19.037,82.7885 -3.985,14.167 -7.526,28.7767 -11.068,43.3865 z"
           style="font-family:Z003;-inkscape-font-specification:'Z003, Normal'"
           id="path9587" />
        <path
           d="m 13237.393,-8648.296 14.167,-11.9535 c 12.396,4.87 21.693,6.6408 30.105,6.6408 11.511,0 14.167,-1.3281 41.616,-18.5942 19.922,-11.0679 19.922,-11.0679 22.578,-12.8388 11.954,-7.5262 20.365,-16.8233 27.006,-28.7768 14.167,-25.6777 24.792,-64.1942 24.792,-90.3146 0,-20.3651 -10.182,-33.6467 -26.12,-33.6467 -15.052,0 -27.006,6.6408 -71.278,38.0739 3.542,-15.4952 3.542,-15.4952 8.412,-37.6312 8.854,-43.8291 9.74,-46.4854 18.594,-66.4078 8.412,-19.0369 16.823,-24.7923 37.189,-24.7923 h 18.151 l 18.152,-25.6777 c -8.855,-0.8854 -14.61,-1.3281 -19.48,-1.3281 -16.381,0 -24.35,4.4272 -61.538,35.4175 -30.105,24.3495 -30.105,24.3495 -45.6,92.971 -8.412,36.7457 -16.381,70.835 -25.235,109.7943 -7.969,34.9748 -8.854,38.9593 -15.938,67.2933 z m 58.439,-133.2585 c 25.235,-18.5942 40.73,-26.5631 50.913,-26.5631 8.854,0 14.61,7.9689 14.61,21.6932 0,17.7088 -5.313,44.2719 -12.839,63.3088 -11.954,29.6622 -27.449,44.2719 -46.929,44.2719 -8.854,0 -17.266,-2.2135 -29.219,-8.4116 z"
           style="font-family:Z003;-inkscape-font-specification:'Z003, Normal'"
           id="path9589" />
      </g>
      <g
         aria-label="will@dhappy.org"
         transform="scale(1,-1)"
         id="text9486"
         style="font-size:285.292px;font-family:'URW Gothic';-inkscape-font-specification:'URW Gothic, Normal';stroke:#ffffff;stroke-width:51.874;stroke-opacity:0.996078;paint-order:stroke fill markers">
        <path
           d="m 11253.532,-8165.7363 h 22.824 l 33.664,-103.561 33.95,103.561 h 22.538 l 60.482,-156.0547 h -20.541 l -50.782,130.6637 -36.803,-111.5492 h -17.403 l -36.802,111.5492 -49.641,-130.6637 h -21.112 z"
           id="path9538" />
        <path
           d="m 11448.672,-8165.7363 h 21.112 v -156.0547 h -21.112 z m 0,-174.884 h 21.112 v -35.9468 h -21.112 z"
           id="path9540" />
        <path
           d="m 11505.731,-8165.7363 h 21.111 v -210.8308 h -21.111 z"
           id="path9542" />
        <path
           d="m 11562.789,-8165.7363 h 21.112 v -210.8308 h -21.112 z"
           id="path9544" />
        <path
           d="m 11789.026,-8329.4939 h -17.403 l -4.85,14.2646 c -3.138,-7.1323 -5.42,-10.5558 -9.985,-13.4088 -5.991,-3.994 -14.265,-6.2764 -22.823,-6.2764 -35.377,0 -69.612,42.2232 -69.612,85.8729 0,24.8204 16.262,42.2232 39.371,42.2232 13.408,0 23.394,-4.2794 33.949,-14.8352 4.565,11.697 11.697,16.2617 25.106,16.2617 13.124,0 25.106,-5.4206 37.373,-16.8322 18.83,-17.4029 29.1,-41.0821 29.1,-67.0437 0,-26.8174 -10.556,-49.6408 -30.811,-66.7583 -18.259,-15.4058 -42.509,-24.2498 -67.615,-24.2498 -60.196,0 -108.696,48.7849 -108.696,109.8374 0,60.7672 47.644,108.411 108.411,108.411 31.097,0 61.053,-12.8382 78.741,-33.6645 l -11.412,-9.4146 c -17.688,18.8292 -40.797,28.8145 -66.758,28.8145 -52.494,0 -94.147,-41.938 -94.147,-94.4317 0,-52.2084 42.224,-95.0022 93.861,-95.0022 47.929,0 84.162,32.8086 84.162,76.1729 0,20.8264 -8.274,40.7968 -23.109,55.632 -8.274,8.2735 -18.259,13.694 -25.676,13.694 -5.421,0 -9.415,-3.1382 -9.415,-7.9882 0,-4.2794 0,-4.5646 5.706,-22.2527 z m -54.206,9.9852 c 12.839,0 21.112,8.844 21.112,22.8233 0,11.1264 -6.847,32.5233 -15.406,47.9291 -9.985,17.6881 -19.685,25.391 -32.808,25.391 -13.694,0 -22.824,-10.5558 -22.824,-26.2469 0,-35.0909 24.821,-69.8965 49.926,-69.8965 z"
           id="path9546" />
        <path
           d="m 12026.674,-8376.5671 h -21.111 v 79.5965 c -15.406,-18.544 -36.803,-28.5292 -61.338,-28.5292 -47.359,0 -83.02,35.3762 -83.02,82.164 0,46.2174 36.803,81.3083 85.017,81.3083 26.247,0 43.364,-9.4147 59.341,-31.9527 v 28.2439 h 21.111 z m -83.02,70.4671 c 34.806,0 62.765,27.6733 62.765,61.9084 0,34.5203 -27.388,62.7642 -60.768,62.7642 -35.946,0 -63.049,-27.1027 -63.049,-63.0495 0,-34.2351 27.103,-61.6231 61.052,-61.6231 z"
           id="path9548" />
        <path
           d="m 12062.621,-8165.7363 h 21.112 v -85.5876 c 0,-16.8323 2.282,-26.8175 8.558,-35.3762 8.559,-12.2676 23.109,-19.3999 39.085,-19.3999 15.121,0 29.385,6.2764 37.659,16.8322 7.417,9.4147 10.556,21.3969 10.556,39.6556 v 83.8759 h 21.111 v -83.8759 c 0,-23.3939 -4.279,-39.6556 -13.408,-51.9231 -11.697,-15.1205 -31.383,-23.9645 -54.206,-23.9645 -21.112,0 -38.8,8.5587 -49.355,23.9645 v -75.0318 h -21.112 z"
           id="path9550" />
        <path
           d="m 12395.557,-8321.791 h -21.112 v 27.6733 c -15.691,-21.6822 -34.52,-31.3821 -61.623,-31.3821 -46.788,0 -82.164,35.3762 -82.164,82.164 0,46.7879 35.662,81.3083 83.876,81.3083 26.532,0 43.079,-8.5588 59.911,-31.0969 v 27.3881 h 21.112 z m -82.164,15.691 c 34.52,0 61.052,26.8175 61.052,61.6231 0,35.6615 -26.247,63.0495 -59.911,63.0495 -35.376,0 -62.479,-27.6733 -62.479,-63.3348 0,-33.9498 27.388,-61.3378 61.338,-61.3378 z"
           id="path9552" />
        <path
           d="m 12431.504,-8321.791 v 210.8307 h 21.112 v -81.5935 c 13.694,19.9705 34.805,30.5263 60.767,30.5263 46.788,0 82.734,-35.6615 82.734,-81.3083 0,-46.7878 -35.661,-82.164 -82.164,-82.164 -26.817,0 -47.929,10.5558 -61.337,30.5262 v -26.8174 z m 81.593,15.691 c 35.377,0 61.623,26.8175 61.623,62.7642 0,35.091 -26.532,61.9084 -61.337,61.9084 -35.662,0 -62.194,-26.8174 -62.194,-63.0495 0,-34.5203 27.103,-61.6231 61.908,-61.6231 z"
           id="path9554" />
        <path
           d="m 12626.073,-8321.791 v 210.8307 h 21.111 v -81.5935 c 13.694,19.9705 34.806,30.5263 60.768,30.5263 46.787,0 82.734,-35.6615 82.734,-81.3083 0,-46.7878 -35.661,-82.164 -82.164,-82.164 -26.817,0 -47.929,10.5558 -61.338,30.5262 v -26.8174 z m 81.593,15.691 c 35.376,0 61.623,26.8175 61.623,62.7642 0,35.091 -26.532,61.9084 -61.337,61.9084 -35.662,0 -62.194,-26.8174 -62.194,-63.0495 0,-34.5203 27.103,-61.6231 61.908,-61.6231 z"
           id="path9556" />
        <path
           d="m 12833.765,-8110.9603 h 22.538 l 90.152,-210.8307 h -22.538 l -52.779,124.3873 -49.355,-124.3873 h -23.109 l 60.482,150.9194 z"
           id="path9558" />
        <path
           d="m 12957.296,-8165.7363 h 21.112 v -35.9468 h -21.112 z"
           id="path9560" />
        <path
           d="m 13101.369,-8325.4998 c -46.503,0 -81.879,35.0909 -81.879,80.7376 0,48.2143 35.091,82.7347 83.59,82.7347 45.647,0 79.312,-34.5204 79.312,-81.3083 0,-47.6437 -33.95,-82.164 -81.023,-82.164 z m 0,19.3998 c 34.52,0 59.626,26.5322 59.626,63.0495 0,35.9468 -24.535,61.6231 -58.485,61.6231 -35.947,0 -61.623,-25.9616 -61.623,-62.7642 0,-35.3762 25.961,-61.9084 60.482,-61.9084 z"
           id="path9562" />
        <path
           d="m 13212.347,-8165.7363 h 21.112 v -91.0082 c -0.285,-28.2439 15.406,-45.6467 44.22,-47.929 v -20.8263 c -22.538,1.1411 -35.947,8.844 -44.22,25.9615 v -22.2527 h -21.112 z"
           id="path9564" />
        <path
           d="m 13447.999,-8321.791 h -21.112 v 27.6733 c -15.691,-21.6822 -34.805,-31.3821 -61.338,-31.3821 -45.646,0 -79.596,35.3762 -79.596,82.4493 0,45.6468 35.376,81.023 81.308,81.023 28.244,0 47.359,-11.4117 59.626,-35.3762 v 10.5558 c 0,15.4057 -1.712,25.1057 -6.276,34.8056 -8.274,17.9734 -26.818,28.2439 -51.067,28.2439 -17.403,0 -30.812,-5.1353 -41.938,-15.6911 -5.421,-4.8499 -8.844,-9.6999 -15.406,-21.3969 h -20.541 c 11.411,36.5174 39.085,56.4879 78.455,56.4879 27.103,0 49.926,-10.2706 63.335,-27.9587 10.556,-14.2646 14.55,-30.8115 14.55,-61.3377 z m -81.023,15.691 c 33.664,0 59.911,26.5322 59.911,60.4819 0,36.5174 -25.676,64.1907 -59.626,64.1907 -34.235,0 -59.911,-27.1027 -59.911,-63.3348 0,-35.6615 25.106,-61.3378 59.626,-61.3378 z"
           id="path9566" />
      </g>
    </g>
  </g>
</svg>
