<?xml version="1.0" encoding="UTF-8" standalone="no"?>
<!-- Created with Inkscape (http://www.inkscape.org/) -->

<svg
   version="1.1"
   viewBox="0 0 6329.3867 5278"
   sodipodi:docname="svg.svg"
   inkscape:version="1.1.2 (0a00cf5339, 2022-02-04)"
   id="svg1071"
   xmlns:inkscape="http://www.inkscape.org/namespaces/inkscape"
   xmlns:sodipodi="http://sodipodi.sourceforge.net/DTD/sodipodi-0.dtd"
   xmlns="http://www.w3.org/2000/svg"
   xmlns:svg="http://www.w3.org/2000/svg">
  <defs
     id="defs6">
    <linearGradient
       x1="0"
       y1="0"
       x2="1"
       y2="0"
       gradientUnits="userSpaceOnUse"
       gradientTransform="matrix(1814,-3560.17,-3560.17,-1814,7091.61,33394.4)"
       spreadMethod="pad"
       id="linearGradient20">
      <stop
         style="stop-opacity:1;stop-color:#f1ef1e"
         offset="0"
         id="stop16" />
      <stop
         style="stop-opacity:1;stop-color:#ef2e33"
         offset="1"
         id="stop18" />
    </linearGradient>
    <linearGradient
       x1="0"
       y1="0"
       x2="1"
       y2="0"
       gradientUnits="userSpaceOnUse"
       gradientTransform="matrix(-1052.4,2479.31,2479.31,1052.4,19366.5,30743.8)"
       spreadMethod="pad"
       id="linearGradient32">
      <stop
         style="stop-opacity:1;stop-color:#cde313"
         offset="0"
         id="stop28" />
      <stop
         style="stop-opacity:1;stop-color:#50ade5"
         offset="1"
         id="stop30" />
    </linearGradient>
    <linearGradient
       x1="0"
       y1="0"
       x2="1"
       y2="0"
       gradientUnits="userSpaceOnUse"
       gradientTransform="matrix(-1203.58,2467.7,2467.7,1203.58,30192.6,30094.4)"
       spreadMethod="pad"
       id="linearGradient44">
      <stop
         style="stop-opacity:1;stop-color:#68cddc"
         offset="0"
         id="stop40" />
      <stop
         style="stop-opacity:1;stop-color:#3971c1"
         offset="1"
         id="stop42" />
    </linearGradient>
    <linearGradient
       x1="0"
       y1="0"
       x2="1"
       y2="0"
       gradientUnits="userSpaceOnUse"
       gradientTransform="matrix(-1655.81,3394.92,3394.92,1655.81,40566.5,29754.8)"
       spreadMethod="pad"
       id="linearGradient56">
      <stop
         style="stop-opacity:1;stop-color:#eb038d"
         offset="0"
         id="stop52" />
      <stop
         style="stop-opacity:1;stop-color:#5e2791"
         offset="1"
         id="stop54" />
    </linearGradient>
    <linearGradient
       x1="0"
       y1="0"
       x2="1"
       y2="0"
       gradientUnits="userSpaceOnUse"
       gradientTransform="matrix(1814,-3560.17,-3560.17,-1814,7935.4,15139.7)"
       spreadMethod="pad"
       id="linearGradient68">
      <stop
         style="stop-opacity:1;stop-color:#f1ef1e"
         offset="0"
         id="stop64" />
      <stop
         style="stop-opacity:1;stop-color:#ef2e33"
         offset="1"
         id="stop66" />
    </linearGradient>
    <linearGradient
       x1="0"
       y1="0"
       x2="1"
       y2="0"
       gradientUnits="userSpaceOnUse"
       gradientTransform="matrix(-1052.4,2479.31,2479.31,1052.4,20210.3,12489)"
       spreadMethod="pad"
       id="linearGradient80">
      <stop
         style="stop-opacity:1;stop-color:#cde313"
         offset="0"
         id="stop76" />
      <stop
         style="stop-opacity:1;stop-color:#50ade5"
         offset="1"
         id="stop78" />
    </linearGradient>
    <linearGradient
       x1="0"
       y1="0"
       x2="1"
       y2="0"
       gradientUnits="userSpaceOnUse"
       gradientTransform="matrix(-1251.87,2566.72,2566.72,1251.87,31210.6,11918.8)"
       spreadMethod="pad"
       id="linearGradient92">
      <stop
         style="stop-opacity:1;stop-color:#68cddc"
         offset="0"
         id="stop88" />
      <stop
         style="stop-opacity:1;stop-color:#3971c1"
         offset="1"
         id="stop90" />
    </linearGradient>
    <linearGradient
       x1="0"
       y1="0"
       x2="1"
       y2="0"
       gradientUnits="userSpaceOnUse"
       gradientTransform="matrix(-1883.27,3861.27,3861.27,1883.27,41957,11056.2)"
       spreadMethod="pad"
       id="linearGradient104">
      <stop
         style="stop-opacity:1;stop-color:#eb038d"
         offset="0"
         id="stop100" />
      <stop
         style="stop-opacity:1;stop-color:#5e2791"
         offset="1"
         id="stop102" />
    </linearGradient>
  </defs>
  <sodipodi:namedview
     id="namedview4"
     pagecolor="#ffffff"
     bordercolor="#666666"
     borderopacity="1.0"
     inkscape:pageshadow="2"
     inkscape:pageopacity="0.0"
     inkscape:pagecheckerboard="0"
     showgrid="false"
     inkscape:zoom="0.17032967"
     inkscape:cx="3167.3871"
     inkscape:cy="2639"
     inkscape:window-width="3440"
     inkscape:window-height="1369"
     inkscape:window-x="0"
     inkscape:window-y="34"
     inkscape:window-maximized="1"
     inkscape:current-layer="g10" />
  <g
     id="g8"
     inkscape:groupmode="layer"
     inkscape:label="ink_ext_XXXXXX"
     transform="matrix(1.3333333,0,0,-1.3333333,0,5278)">
    <g
       id="g10"
       transform="scale(0.1)">
      <path
         d="M 47470.4,0 H 0 V 39585 H 47470.4 V 0"
         style="fill:#ffffff;fill-opacity:1;fill-rule:nonzero;stroke:none"
         id="path12" />
      <path
         d="M 0,39585 H 47470.4 V 20290.5 H 0 V 39585"
         style="fill:#18182b;fill-opacity:1;fill-rule:evenodd;stroke:none"
         id="path14" />
      <path
         d="m 6502.87,30190.9 35.86,-81 79.18,36.6 -35.92,81 z m -244.24,62.7 28.79,-65 63.56,29.4 -28.72,65 -63.63,-29.4 z m -301.49,5 48.24,-109 106.53,49.3 -48.15,108.9 -106.62,-49.2 z m 1023.87,103.8 138.86,64.2 62.78,-142 -138.8,-64.2 -62.84,142 z m -847.21,63.7 79.19,36.7 35.84,-81 -79.18,-36.6 -35.85,80.9 z m 642.19,15.7 54.13,-122.4 119.72,55.4 -54.14,122.4 -119.71,-55.4 z m -430.4,42.8 24.62,-55.8 54.49,25.1 -24.62,55.9 -54.49,-25.2 z m -511.9,-13.4 92.35,42.7 41.9,-94.4 -92.35,-42.7 -41.9,94.4 z m -309.76,-28.7 70.11,-158.2 154.71,71.7 -70.04,158.2 -154.78,-71.7 z m 973.98,48.1 54.14,-122.3 119.62,55.4 -54.12,122.2 -119.64,-55.3 z m 491.3,44.5 70.69,32.6 32.04,-72.3 -70.76,-32.6 -31.97,72.3 z m 1916.93,58.3 -11.73,-2255.6 67.23,-385.1 117.05,486.1 -68.74,2159.4 -103.81,-4.8 z m -3827.16,54.7 34.99,-79.1 77.39,35.8 -34.99,79.1 -77.39,-35.8 z m 1203.04,-0.7 35.78,-81 79.18,36.6 -35.84,81 -79.12,-36.6 z m 624.42,17.6 20.36,-46.1 45.07,20.8 -20.38,46.1 -45.05,-20.8 z m -958.08,-38.6 78.75,-177.8 173.78,80.4 -78.68,177.9 -173.85,-80.5 z m -210.56,48 35.06,-79.1 77.31,35.8 -34.98,79.1 -77.39,-35.8 z m 798.76,16.3 79.26,36.7 35.78,-81.1 -79.11,-36.6 -35.93,81 z m -1144.29,84.4 34.98,-79.2 77.46,35.8 -35.05,79.1 -77.39,-35.7 z m 546.66,27.4 35.06,-79 77.31,35.8 -34.98,79.1 -77.39,-35.9 z m 738.73,21.4 54.2,-122.4 119.64,55.3 -54.2,122.4 -119.64,-55.3 z m 220.99,44.6 31.97,-72.4 70.76,32.8 -32.03,72.3 -70.7,-32.7 z m -537.51,-9.4 64.78,-146.4 143.18,66.2 -64.86,146.4 -143.1,-66.2 z m -231.23,22.7 49.24,-111.4 108.98,50.4 -49.3,111.4 -108.92,-50.4 z m -1605.22,45.1 48.23,-109 106.46,49.4 -48.09,108.8 -106.6,-49.2 z m 2116.76,82.3 31.96,-72.2 70.69,32.6 -32.03,72.4 -70.62,-32.8 z m -1764.1,17.8 33.18,-74.9 73.36,33.9 -33.26,75 -73.28,-34 z m 1128.53,86.8 34.99,-79.2 77.39,35.8 -35.07,79.1 -77.31,-35.7 z m 1222.54,-291.4 142.83,66 64.63,-146 -142.88,-66.1 -64.58,146.1 z m -104.23,255.2 32.25,-73.1 -111.37,-51.5 -26.41,-93.6 70.26,32.4 1.94,-4.5 h 0.14 l 33.47,-75.7 h -0.07 l 4.04,-9.3 -85.74,-39.6 21.74,-76.3 38.37,17.7 27.28,-61.6 -46.94,-21.6 17.43,-61.1 110.57,51.1 60.97,-137.6 -73.35,-33.9 34.05,-77 825.03,-46 448.19,225.8 107.54,369.9 v 267 l -175.21,26.2 -1314.18,-127.7 z m 2214.22,101.5 v -267 l 88.41,-360.1 467.34,-235.6 1277.54,71.3 400.9,304.2 -238.8,336.5 -1901.66,184.9 -93.73,-34.2 z m -2808.68,-4 38.07,-86.1 84.16,39 -38.09,86 -84.14,-38.9 z m 229.64,-20.8 78.75,-177.7 173.77,80.3 -78.61,177.8 -173.91,-80.4 z m -1153.73,26.8 70.03,-158.2 154.77,71.6 -69.96,158.3 -154.84,-71.7 z m -522.84,-15.7 90.42,-204.2 199.68,92.3 -90.34,204.2 -199.76,-92.3 z m 1097.65,38.5 78.6,-177.9 173.93,80.5 -78.76,177.7 -173.77,-80.3 z m 2619.95,90.4 -63,-202.3 -13.39,-260.2 155.99,-186.2 186.02,-0.1 153.48,186.3 21.31,358.4 -88.26,148.3 -352.15,-44.2 z m -4541.13,65.9 33.19,-75 73.43,33.9 -33.18,75.1 -73.44,-34 z m 3079.43,-73.5 h 143.83 v 147.2 H 7338.7 v -147.2 z m -1306.33,114.8 34.99,-79.1 77.39,35.8 -34.98,79.1 -77.4,-35.8 z m -1351.68,150.3 48.29,-108.9 106.48,49.2 -48.17,109 -106.6,-49.3 z m 2099.76,70.5 -0.65,-28.5 0.65,-0.3 7.49,-4.6 v 33.4 h -7.49 z m -1419.06,72.7 78.6,-177.8 173.93,80.4 -78.62,177.8 -173.91,-80.4 z m 3419.71,65.3 -98.19,-272.5 117.26,-146.7 299.89,28.2 79.41,100.7 -19.58,286.7 -105.25,132.8 -94.72,3.6 -178.82,-132.8 z m -2385.63,-66.4 h 203.58 v 208.1 h -203.58 v -208.1 z m -1506.6,165 48.15,-108.9 106.54,49.3 -48.15,108.9 -106.54,-49.3 z m 2014.04,-135 h 239.13 v 244.5 h -239.13 v -244.5 z m -2303.57,234.8 33.26,-74.9 73.28,33.9 -33.12,75 -73.42,-34 z m 1998.27,-22.4 h 113.66 v 116.2 h -113.66 v -116.2 z m -383.76,44.9 h 92.36 v 94.5 h -92.36 v -94.5 z m 1146.38,-408 v -83.2 h 81.28 v 83.2 h -81.28 z m 136.05,99.6 v -190 h 185.73 v 190 h -185.73 z m -100.85,116 v -83 h 81.27 v 83 h -81.27 z m -25.19,190 v -83.1 h 81.27 v 83.1 h -81.27 z m -91.5,7 v 92.1 l 354.61,-121.2 h -84.51 v -174.8 h 170.96 v 145.2 l 897.17,-306.8 26.78,-342.3 -1125.94,48.2 v 152.1 h -13.54 v 0.9 h -203.64 v -55.3 h -0.37 v -88.4 l -103.37,4.4 -181.05,110.3 h 236.12 v 240.2 h 36.08 v 121.9 h -12.18 v 156.1 h -3.02 v 17.4 h 5.9 z m -145.2,32.2 h 113.68 v 116.4 H 7133.54 V 32018 Z m -599.93,123.4 h 92.36 v 94.4 h -92.36 v -94.4 z m 2801.42,-517.3 -26.27,-336.3 1446.34,55.8 876.7,533.9 -46.9,301.2 -287.9,116.4 -1961.97,-671 z m -2489.43,584.2 h 169.89 v 173.8 H 6845.6 v -173.8 z m -961.38,11.6 h 169.75 v 173.8 h -169.75 v -173.8 z m 365.04,7.3 h 169.9 v 173.6 h -169.9 v -173.6 z m 849.88,86.2 h 113.66 v 116.2 h -113.66 v -116.2 z m -498.72,46.6 h 113.74 v 116.3 H 6600.42 V 32360 Z m -547.67,61.1 h 84.86 v 86.8 h -84.86 v -86.8 z m -298.17,97.3 h 84.94 v 86.8 h -84.94 v -86.8 z m 1236.29,57.5 h 46.21 v 47.3 h -46.21 v -47.3 z m -779.47,46.6 h 84.87 v 86.8 h -84.87 v -86.8 z m -1011.91,-85.9 h 169.81 v 173.7 h -169.81 v -173.7 z m 1544.47,79.7 h 92.29 v 94.5 h -92.29 v -94.5 z m -368.21,-73.1 h 169.81 v 173.6 h -169.81 v -173.6 z m -405.79,97.8 h 84.94 v 86.8 h -84.94 v -86.8 z m -482.24,103.6 h 84.87 v 86.8 h -84.87 v -86.8 z m 234.9,32 h 84.93 v 86.8 h -84.93 v -86.8 z m 688.4,82.7 h 92.43 v 94.5 h -92.43 v -94.5 z m -337.33,-39.7 h 169.89 v 173.7 h -169.89 v -173.7 z m -860.16,162.3 h 84.86 v 86.7 h -84.86 v -86.7 z m 1944.93,39 h 92.35 v 94.5 h -92.35 v -94.5 z m -1249.4,11 h 84.95 v 86.7 h -84.95 v -86.7 z m -1330.17,7.4 h 169.89 v 173.7 h -169.89 v -173.7 z m 992.77,135.8 h 169.82 v 173.6 h -169.82 v -173.6 z m 477.56,107.8 h 84.94 v 86.8 h -84.94 v -86.8 z m -1065.77,87 h 84.95 v 86.9 h -84.95 v -86.9 z m 435.82,181.3 h 84.86 v 86.9 h -84.86 v -86.9 z m 474.39,280.8 h 84.94 v 86.9 h -84.94 v -86.9 z m -764.14,-63.8 h 169.89 v 173.7 h -169.89 v -173.7 z m -586.69,150.7 h 84.87 v 86.9 h -84.87 v -86.9 0"
         style="fill:url(#linearGradient20);fill-opacity:1;fill-rule:evenodd;stroke:none"
         id="path22" />
      <path
         d="m 5582.96,27119.2 h -301.84 v -725.1 h 315.09 c 154.98,0 257.27,73.5 257.27,198.9 0,100.5 -67.87,150.2 -151.96,176 55.72,24.9 112.45,73.6 112.45,168.9 0,110.8 -91.14,181.3 -231.01,181.3 z m -13.1,-323.2 h -209.7 v 249.6 h 215.74 c 101.29,0 157.01,-46.6 157.01,-119.1 0,-86 -66.81,-130.5 -163.05,-130.5 z m 28.36,-328.4 h -238.06 v 255.9 h 223.88 c 123.6,0 188.39,-45.6 188.39,-125.4 0,-81.8 -66.88,-130.5 -174.21,-130.5 z m 1000.83,-73.5 -217.83,296.2 c 111.43,20.7 192.56,91.2 192.56,212.4 0,130.4 -100.35,216.5 -256.41,216.5 h -304.8 v -725.1 h 79.98 v 281.7 h 202.64 l 205.66,-281.7 h 98.2 z m -106.4,505.5 c 0,-94.4 -75.94,-150.2 -182.34,-150.2 h -217.76 v 294.1 h 218.77 c 114.46,0 181.33,-53.8 181.33,-143.9 z m 589.65,224.7 h -74.95 l -323.21,-730.2 h 82.06 c 102.44,233.4 170.47,390.6 277.58,635 107.9,-247.9 172.98,-398.5 275.57,-635 h 86.09 l -323.14,730.2 z m 984.62,-586.2 -446.75,581.1 h -74.93 v -725.1 h 77.95 v 594.6 l 457.92,-594.6 h 63.77 v 725.1 h -77.96 v -581.1 z m 901.63,219.6 c 0,205 -154.05,361.5 -376.84,361.5 H 8345.5 v -725.1 h 246.21 c 222.79,0 376.84,158.5 376.84,363.6 z m -83.15,-2.1 c 0,-161.6 -114.45,-285.9 -293.69,-285.9 h -166.15 v 573.8 h 166.15 c 179.24,0 293.69,-126.3 293.69,-287.9 z m 1077.93,-217.5 -446.75,581.1 h -75.01 v -725.1 h 77.97 v 594.6 l 457.9,-594.6 h 63.86 v 725.1 h -77.97 v -581.1 z m 615.87,586.2 h -75 l -323.1,-730.2 h 82.1 c 102.5,233.9 170,389.6 277.5,635 107.5,-246.8 173.2,-399 275.5,-635 h 86.1 l -323.1,730.2 z m 1061.7,-142.9 v -587.3 h 80 v 725.1 h -81.1 l -258.3,-395.7 -258.3,395.7 h -81 v -725.1 h 77.9 v 586.3 l 258.3,-387.4 h 4.1 l 258.4,388.4 z m 793.1,137.8 h -512.6 v -725.1 h 517.7 v 74.5 h -437.6 v 253.8 h 387 v 74.6 h -387 v 247.5 h 432.5 v 74.7 0"
         style="fill:#ffffff;fill-opacity:1;fill-rule:evenodd;stroke:none"
         id="path24" />
      <path
         d="m 6791.82,26048.5 h 101.58 v 32.1 h -237.56 v -32.1 h 101.5 v -276.9 h 34.48 z m 691.94,34.3 h -31.96 l -137.78,-311.2 H 7349 l 35.84,81.7 h 164.57 l 35.42,-81.7 h 36.71 l -137.78,311.2 z m 52.26,-198.3 h -137.77 l 69.03,157.7 68.74,-157.7 z m 810.64,-71.1 v 123.3 h -124.83 v -31.4 h 91.93 v -76.8 c -20.65,-17.3 -52.61,-31 -87.17,-31 -73.43,0 -119.64,54.8 -119.64,129 0,69.3 47.93,127.2 114.88,127.2 42.69,0 68.69,-14.6 91.93,-35.3 l 22.03,26.5 c -30.16,26 -61.7,41 -112.66,41 -90.77,0 -151.67,-75 -151.67,-160.3 0,-88.8 58.81,-159.4 153.83,-159.4 50.9,0 93.22,21.6 121.37,47.2 z m 498.29,-41.8 h 204.37 v 32.1 h -170.17 v 276.9 h -34.2 v -309 z m 691.86,0 H 9571 v 309 h -34.19 v -309 z m 766.69,61.3 -190.6,247.7 h -31.9 v -309 h 33.2 v 253.4 l 195.2,-253.4 h 27.3 v 309 h -33.2 v -247.7 z m 758.7,247.7 h -218.6 v -309 h 220.8 v 31.7 h -186.6 v 108.2 h 165 v 31.8 h -165 v 105.5 h 184.4 v 31.8 0"
         style="fill:#ffffff;fill-opacity:1;fill-rule:evenodd;stroke:none"
         id="path26" />
      <path
         d="m 16212.6,30190.9 35.8,-81 79.2,36.6 -35.9,81 z m -244.3,62.7 28.8,-65 63.6,29.4 -28.7,64.9 -63.7,-29.3 z m -301.4,5 48.1,-109 106.6,49.3 -48.2,108.9 -106.5,-49.2 z m 1023.8,103.8 138.9,64.2 62.7,-142 -138.7,-64.2 -62.9,142 z m -847.2,63.7 79.2,36.7 35.8,-80.9 -79.2,-36.7 -35.8,80.9 z m 642.2,15.7 54.1,-122.4 119.8,55.4 -54.2,122.4 -119.7,-55.4 z m -430.5,42.8 24.7,-55.8 54.5,25.1 -24.6,55.9 -54.6,-25.2 z m -511.8,-13.4 92.4,42.7 41.8,-94.4 -92.4,-42.8 -41.8,94.5 z m -309.8,-28.7 70.1,-158.2 154.7,71.7 -70,158.2 -154.8,-71.7 z m 974,48.2 54.1,-122.4 119.7,55.4 -54.1,122.3 -119.7,-55.3 z m 491.4,44.4 70.6,32.6 32,-72.3 -70.7,-32.6 -31.9,72.3 z m -1910.4,113 35.1,-79.1 77.4,35.8 -35.1,79.1 -77.4,-35.8 z m 1203.1,-0.7 35.8,-81 79.2,36.6 -35.8,81 -79.2,-36.6 z m 624.4,17.6 20.4,-46.1 45.1,20.8 -20.4,46.1 -45.1,-20.8 z m -958,-38.6 78.7,-177.8 173.8,80.4 -78.7,177.9 -173.8,-80.5 z m -210.6,48 35,-79.1 77.3,35.8 -35,79.1 -77.3,-35.8 z m 798.8,16.3 79.2,36.7 35.8,-81.1 -79.2,-36.6 -35.8,81 z m -1144.3,84.4 35,-79.3 77.5,35.9 -35.1,79.1 -77.4,-35.7 z m 546.7,27.4 35,-79 77.3,35.8 -34.9,79.1 -77.4,-35.9 z m 738.7,21.4 54.1,-122.4 119.7,55.3 -54.2,122.4 -119.6,-55.3 z m 220.9,44.6 32,-72.4 70.7,32.8 -32,72.3 -70.7,-32.7 z m -537.4,-9.4 64.7,-146.4 143.2,66.2 -64.8,146.4 -143.1,-66.2 z m -231.3,22.7 49.3,-111.4 108.9,50.4 -49.2,111.4 -109,-50.4 z m -1605.2,45.1 48.3,-109 106.4,49.4 -48.1,108.8 -106.6,-49.2 z m 2116.8,82.3 31.9,-72.2 70.7,32.6 -32,72.4 -70.6,-32.8 z m -1764.2,17.8 33.3,-74.9 73.3,33.9 -33.2,75 -73.4,-34 z m 1128.5,86.8 35.1,-79.2 77.4,35.8 -35.1,79.1 -77.4,-35.7 z m 1222.7,-291.5 142.8,66.1 64.6,-146 -142.9,-66.1 -64.5,146 z m -104.3,255.3 32.3,-73.1 -111.4,-51.6 -26.4,-93.5 70.3,32.4 1.9,-4.5 h 0.1 l 33.4,-75.7 v 0 l 4.1,-9.3 -85.8,-39.6 21.8,-76.3 38.3,17.7 27.3,-61.6 -46.9,-21.6 17.4,-61.1 110.6,51.1 61,-137.6 -73.4,-33.9 34.1,-77 824.9,-46 448.3,225.8 107.4,369.9 v 267 l -175.1,26.2 -1314.2,-127.7 z m -594.5,97.5 38.1,-86.1 84.2,39 -38.1,86 -84.2,-38.9 z m 229.6,-20.8 78.9,-177.7 173.7,80.3 -78.7,177.8 -173.9,-80.4 z m -1153.6,26.8 70,-158.2 154.7,71.6 -70,158.3 -154.7,-71.7 z m -522.9,-15.7 90.4,-204.2 199.7,92.3 -90.4,204.2 -199.7,-92.3 z m 1097.6,38.5 78.7,-177.9 173.8,80.5 -78.6,177.7 -173.9,-80.3 z m -1921.1,156.3 33.2,-74.9 73.4,33.8 -33.2,75.1 -73.4,-34 z m 3079.5,-73.5 h 143.8 v 147.2 h -143.8 v -147.2 z m -1306.5,114.8 35,-79.1 77.4,35.8 -35,79.1 -77.4,-35.8 z m -1351.6,150.3 48.2,-108.9 106.5,49.2 -48.1,109 -106.6,-49.3 z m 2099.8,70.5 -0.7,-28.5 0.6,-0.3 7.6,-4.6 v 33.4 h -7.5 z m -1419.1,72.7 78.6,-177.8 174,80.4 -78.7,177.8 -173.9,-80.4 z m 1034,-1.1 h 203.7 v 208.1 h -203.7 v -208.1 z m -1506.6,165 48.2,-108.9 106.6,49.3 -48.2,108.9 -106.6,-49.3 z m 2014.1,-135 h 239.1 v 244.5 h -239.1 v -244.5 z m -2303.5,234.8 33.2,-74.9 73.3,33.9 -33.2,75 -73.3,-34 z m 1998.2,-22.4 h 113.6 v 116.2 h -113.6 v -116.2 z m -383.8,44.9 h 92.4 v 94.5 h -92.4 v -94.5 z m 1146.5,-408 v -83.2 h 81.2 v 83.2 h -81.2 z m 135.9,99.6 v -190 h 185.9 v 190 h -185.9 z m -100.8,116 v -83.1 h 81.3 v 83.1 h -81.3 z m -25.1,190 v -83.1 h 81.2 v 83.1 h -81.2 z m -91.5,7 v 92.1 l 354.5,-121.2 h -84.5 v -174.8 h 171 v 145.2 l 897.1,-306.8 26.8,-342.3 -1125.9,48.2 v 152.1 h -13.6 v 0.9 h -203.6 v -55.3 h -0.4 v -88.4 l -103.3,4.4 -181.1,110.3 h 236.2 v 240.2 h 36 v 121.9 h -12.2 v 156.1 h -3 v 17.4 h 6 z m -145.2,32.2 h 113.6 v 116.4 h -113.6 V 32018 Z m -600,123.4 h 92.3 v 94.4 h -92.3 v -94.4 z m 312,66.9 h 169.9 v 173.8 h -169.9 v -173.8 z m -961.4,11.6 h 169.8 v 173.8 h -169.8 v -173.8 z m 365.1,7.3 h 169.8 v 173.6 H 15959 v -173.6 z m 849.8,86.2 h 113.7 v 116.2 h -113.7 v -116.2 z m -498.6,46.6 h 113.6 v 116.3 h -113.6 V 32360 Z m -547.7,61 h 84.9 v 86.9 h -84.9 v -86.9 z m -298.2,97.4 h 84.9 v 86.8 h -84.9 v -86.8 z m 1236.2,57.5 h 46.2 v 47.3 h -46.2 v -47.3 z m -779.4,46.6 h 84.9 v 86.8 h -84.9 v -86.8 z m -1011.9,-85.9 h 169.8 v 173.7 h -169.8 v -173.7 z m 1544.4,79.7 h 92.4 v 94.5 h -92.4 v -94.5 z m -368.1,-73.1 h 169.8 v 173.6 h -169.8 v -173.6 z m -405.8,97.8 h 84.9 v 86.8 h -84.9 v -86.8 z m -482.3,103.6 h 84.9 v 86.8 h -84.9 v -86.8 z m 235,32 h 84.8 v 86.8 h -84.8 v -86.8 z m 688.4,82.7 h 92.4 v 94.5 h -92.4 v -94.5 z m -337.4,-39.7 h 169.9 v 173.7 h -169.9 v -173.7 z m -860.2,162.3 h 84.9 v 86.7 h -84.9 v -86.7 z m 1945,39 h 92.4 v 94.4 h -92.4 v -94.4 z m -1249.5,11 h 85 v 86.7 h -85 v -86.7 z m -1330.1,7.4 h 169.9 v 173.7 h -169.9 v -173.7 z m 992.8,135.8 h 169.8 v 173.6 h -169.8 v -173.6 z m 477.6,107.8 h 84.9 v 86.8 h -84.9 v -86.8 z m -1065.9,87 h 85 v 86.9 h -85 v -86.9 z m 435.8,181.3 h 84.9 v 86.9 h -84.9 v -86.9 z m 474.5,280.8 h 84.9 v 86.9 h -84.9 v -86.9 z m -764.1,-63.8 h 169.8 v 173.7 h -169.8 v -173.7 z m 6318.3,-3577.3 -35.7,-81 -79.3,36.6 35.9,81 79.1,-36.6 z m 244.4,62.7 -28.8,-65 -63.7,29.4 28.8,64.9 63.7,-29.3 z m 301.5,5 -48.3,-109 -106.5,49.3 48.1,108.9 106.7,-49.2 z m -1024,103.8 -138.8,64.2 -62.7,-142 138.7,-64.2 62.8,142 z m 847.3,63.7 -79.3,36.7 -35.7,-80.9 79.1,-36.7 35.9,80.9 z m -642.2,15.7 -54.1,-122.4 -119.8,55.4 54.2,122.4 119.7,-55.4 z m 430.4,42.8 -24.6,-55.8 -54.5,25.1 24.5,55.9 54.6,-25.2 z m 511.8,-13.4 -92.3,42.7 -41.9,-94.4 92.4,-42.8 41.8,94.5 z m 309.9,-28.7 -70.2,-158.2 -154.7,71.7 70.1,158.2 154.8,-71.7 z m -974,48.2 -54.2,-122.4 -119.6,55.4 54.1,122.3 119.7,-55.3 z m -491.4,44.4 -70.7,32.6 -31.9,-72.3 70.7,-32.6 31.9,72.3 z m -1916.9,58.3 11.7,-2255.6 -67.1,-385 -13.9,57.3 -13.8,-57.3 -67.2,385 11.8,2255.6 69.2,3.2 69.3,-3.2 z m 3827.2,54.7 -35,-79.1 -77.4,35.8 35,79.1 77.4,-35.8 z m -1203,-0.7 -35.9,-81 -79.2,36.6 35.9,81 79.2,-36.6 z m -624.4,17.6 -20.4,-46.1 -45.1,20.8 20.4,46.1 45.1,-20.8 z m 958,-38.6 -78.7,-177.8 -173.9,80.4 78.7,177.9 173.9,-80.5 z m 210.6,48 -35.1,-79.1 -77.3,35.8 35,79.1 77.4,-35.8 z m -798.8,16.3 -79.2,36.7 -35.9,-81.1 79.2,-36.6 35.9,81 z m 1144.2,84.4 -34.9,-79.3 -77.4,35.9 35,79.1 77.3,-35.7 z m -546.6,27.4 -35,-79 -77.3,35.8 35,79.1 77.3,-35.9 z m -738.7,21.4 -54.2,-122.4 -119.6,55.3 54.2,122.4 119.6,-55.3 z m -221,44.6 -31.9,-72.4 -70.8,32.8 32,72.3 70.7,-32.7 z m 537.5,-9.4 -64.7,-146.4 -143.2,66.2 64.8,146.4 143.1,-66.2 z m 231.3,22.7 -49.3,-111.4 -108.9,50.4 49.2,111.4 109,-50.4 z m 1605.2,45.1 -48.3,-109 -106.5,49.4 48.2,108.8 106.6,-49.2 z m -2116.8,82.3 -31.8,-72.2 -70.9,32.6 32.1,72.4 70.6,-32.8 z m 1764.1,17.8 -33.1,-74.9 -73.4,33.9 33.2,75 73.3,-34 z m -1128.5,86.8 -35,-79.2 -77.4,35.8 35,79.1 77.4,-35.7 z m -1222.6,-291.5 -142.8,66.1 -64.7,-146 142.9,-66.1 64.6,146 z m 104.2,255.3 -32.2,-73.1 111.4,-51.6 26.4,-93.5 -70.2,32.4 -2,-4.5 h -0.1 l -33.5,-75.7 h 0.1 l -4.1,-9.3 85.7,-39.6 -21.7,-76.3 -38.3,17.7 -27.3,-61.6 46.9,-21.6 -17.4,-61.1 -110.6,51.1 -60.9,-137.6 73.3,-33.9 -34.1,-77 -825,-46 -448.2,225.8 -107.5,369.9 v 267 l 175.2,26.2 1314.1,-127.7 z m 594.6,97.5 -38.1,-86.1 -84.2,39 38,86 84.3,-38.9 z m -229.7,-20.8 -78.7,-177.7 -173.9,80.3 78.7,177.8 173.9,-80.4 z m 1153.7,26.8 -70,-158.2 -154.8,71.6 70,158.3 154.8,-71.7 z m 522.8,-15.7 -90.3,-204.2 -199.8,92.3 90.4,204.2 199.7,-92.3 z m -1097.6,38.5 -78.6,-177.9 -173.9,80.5 78.7,177.7 173.8,-80.3 z m -2620,90.4 63.1,-202.3 13.4,-260.2 -156.1,-186.2 -95.4,-0.1 -95.4,0.1 -156,186.2 13.4,260.2 63,202.3 175,21.9 175,-21.9 z m 4541.2,65.9 -33.3,-74.9 -73.3,33.8 33.2,75.1 73.4,-34 z m -3079.4,-73.5 H 20178 v 147.2 h 143.9 v -147.2 z m 1306.3,114.8 -35,-79.1 -77.4,35.8 35,79.1 77.4,-35.8 z m 1351.6,150.3 -48.2,-108.9 -106.5,49.2 48.2,109 106.5,-49.3 z m -2099.7,70.5 0.6,-28.5 -0.6,-0.3 -7.4,-4.6 v 33.4 h 7.4 z m 1419.1,72.7 -78.7,-177.8 -173.8,80.4 78.6,177.8 173.9,-80.4 z m -3419.7,65.3 98.2,-272.5 -117.4,-146.7 -175.2,16.5 -175.2,-16.5 -117.3,146.7 98.2,272.5 178.9,132.8 15.4,-0.6 15.5,0.6 178.9,-132.8 z m 2385.6,-66.4 h -203.6 v 208.1 h 203.6 v -208.1 z m 1506.6,165 -48.1,-108.9 -106.7,49.3 48.3,108.9 106.5,-49.3 z m -2014,-135 h -239.2 v 244.5 h 239.2 v -244.5 z m 2303.5,234.8 -33.2,-74.9 -73.4,33.9 33.2,75 73.4,-34 z m -1998.3,-22.4 h -113.6 v 116.2 h 113.6 v -116.2 z m 383.8,44.9 h -92.4 v 94.5 h 92.4 v -94.5 z m -1146.4,-408 v -83.2 h -81.2 v 83.2 h 81.2 z m -136,99.6 v -190 h -185.8 v 190 h 185.8 z m 100.9,116 v -83.1 h -81.3 v 83.1 h 81.3 z m 25.1,190 v -83.1 h -81.3 v 83.1 h 81.3 z m 91.5,7 v 92.1 l -354.6,-121.2 h 84.6 v -174.8 h -171.1 v 145.2 l -897.1,-306.8 -26.8,-342.3 1125.9,48.2 v 152.1 h 13.6 v 0.9 h 203.7 v -55.3 h 0.3 v -88.4 l 103.3,4.4 181.1,110.3 h -236.2 v 240.2 h -35.9 v 121.9 h 12.1 v 156.1 h 3.1 v 17.4 h -6 z m 145.2,32.2 h -113.7 v 116.4 H 20527 V 32018 Z m 600,123.4 h -92.4 v 94.4 h 92.4 v -94.4 z m -312.1,66.9 H 20645 v 173.8 h 169.9 v -173.8 z m 961.5,11.6 h -169.9 v 173.8 h 169.9 v -173.8 z m -365.1,7.3 h -169.9 v 173.6 h 169.9 v -173.6 z m -849.8,86.2 h -113.7 v 116.2 h 113.7 v -116.2 z m 498.6,46.6 h -113.7 v 116.3 h 113.7 V 32360 Z m 547.7,61 h -84.9 v 86.9 h 84.9 v -86.9 z m 298.2,97.4 h -84.9 v 86.8 h 84.9 v -86.8 z m -1236.3,57.5 h -46.2 v 47.3 h 46.2 v -47.3 z m 779.5,46.6 h -85 v 86.8 h 85 v -86.8 z m 1011.9,-85.9 h -169.8 v 173.7 h 169.8 v -173.7 z m -1544.5,79.7 h -92.3 v 94.5 h 92.3 v -94.5 z m 368.2,-73.1 H 21115 v 173.6 h 169.8 v -173.6 z m 405.8,97.8 h -84.9 v 86.8 h 84.9 v -86.8 z m 482.3,103.6 h -85 v 86.8 h 85 v -86.8 z m -235,32 h -84.9 v 86.8 h 84.9 v -86.8 z m -688.3,82.7 h -92.5 v 94.5 h 92.5 v -94.5 z m 337.2,-39.7 h -169.9 v 173.7 h 169.9 v -173.7 z m 860.3,162.3 h -84.9 v 86.7 h 84.9 v -86.7 z m -1945,39 h -92.4 v 94.4 h 92.4 v -94.4 z m 1249.4,11 h -84.9 v 86.7 h 84.9 v -86.7 z m 1330.2,7.4 h -170 v 173.7 h 170 v -173.7 z m -992.8,135.8 H 21919 v 173.6 h 169.9 v -173.6 z m -477.5,107.8 h -85 v 86.8 h 85 v -86.8 z m 1065.7,87 h -84.9 v 86.9 h 84.9 v -86.9 z m -435.8,181.3 h -84.8 v 86.9 h 84.8 v -86.9 z m -474.4,280.8 h -84.9 v 86.9 h 84.9 v -86.9 z m 764.2,-63.8 h -169.9 v 173.7 h 169.9 v -173.7 z m 586.7,150.7 h -84.9 v 86.9 h 84.9 v -86.9 z m -8865.3,0 h 84.9 v 86.9 h -84.9 v -86.9 0"
         style="fill:url(#linearGradient32);fill-opacity:1;fill-rule:evenodd;stroke:none"
         id="path34" />
      <path
         d="m 15165.9,27119.2 h -302 v -725.1 h 315.1 c 155,0 257.3,73.5 257.3,198.9 0,100.5 -67.8,150.2 -151.9,176 55.7,24.9 112.5,73.6 112.5,168.9 0,110.8 -91.2,181.3 -231,181.3 z m -13.2,-323.2 h -209.6 v 249.6 h 215.7 c 101.3,0 157,-46.6 157,-119.1 0,-86 -66.8,-130.5 -163.1,-130.5 z m 28.3,-328.4 h -237.9 v 255.9 h 223.8 c 123.6,0 188.4,-45.6 188.4,-125.4 0,-81.8 -66.8,-130.5 -174.3,-130.5 z m 1000.9,-73.5 -217.8,296.2 c 111.4,20.7 192.5,91.2 192.5,212.4 0,130.4 -100.3,216.5 -256.3,216.5 h -304.9 v -725.1 h 80 v 281.7 h 202.6 l 205.7,-281.7 h 98.2 z m -106.4,505.5 c 0,-94.4 -75.9,-150.2 -182.3,-150.2 h -217.8 v 294.1 h 218.8 c 114.5,0 181.3,-53.8 181.3,-143.9 z m 589.6,224.7 h -74.9 l -323.2,-730.2 h 82.1 c 102.4,233.4 170.5,390.6 277.6,635 107.9,-247.9 173,-398.5 275.5,-635 h 86.1 l -323.2,730.2 z m 984.7,-586.2 -446.7,581.1 h -75 v -725.1 h 78 v 594.6 l 457.9,-594.6 h 63.8 v 725.1 h -78 v -581.1 z m 901.6,219.6 c 0,205 -154,361.5 -376.9,361.5 h -246.1 v -725.1 h 246.1 c 222.9,0 376.9,158.5 376.9,363.6 z m -83.1,-2.1 c 0,-161.6 -114.5,-285.9 -293.8,-285.9 h -166.1 v 573.8 h 166.1 c 179.3,0 293.8,-126.3 293.8,-287.9 z m 1077.9,-217.5 -446.8,581.1 h -74.9 v -725.1 h 77.9 v 594.6 l 457.9,-594.6 h 63.9 v 725.1 h -78 v -581.1 z m 615.9,586.2 h -75 l -323.1,-730.2 h 82 c 102.6,233.9 170,389.6 277.6,635 107.4,-246.8 173.2,-399 275.5,-635 h 86 l -323,730.2 z m 1061.6,-142.9 v -587.3 h 80 v 725.1 h -81 l -258.3,-395.7 -258.3,395.7 h -81.1 v -725.1 h 78 v 586.3 l 258.3,-387.4 h 4.1 l 258.3,388.4 z m 793.2,137.8 h -512.6 v -725.1 h 517.7 v 74.5 h -437.6 v 253.8 h 387 v 74.6 h -387 v 247.5 h 432.5 v 74.7 0"
         style="fill:#ffffff;fill-opacity:1;fill-rule:evenodd;stroke:none"
         id="path36" />
      <path
         d="m 16374.7,26048.5 h 101.5 v 32.1 h -237.5 v -32.1 h 101.5 v -276.9 h 34.5 z m 691.9,34.3 h -32 l -137.7,-311.2 h 34.9 l 35.9,81.7 h 164.6 l 35.4,-81.7 h 36.7 l -137.8,311.2 z m 52.3,-198.3 h -137.8 l 69.1,157.7 68.7,-157.7 z m 810.6,-71.1 v 123.3 h -124.8 v -31.4 h 92 v -76.8 c -20.7,-17.3 -52.7,-31 -87.2,-31 -73.4,0 -119.7,54.8 -119.7,129 0,69.3 47.9,127.2 114.9,127.2 42.7,0 68.6,-14.6 92,-35.3 l 22,26.5 c -30.2,26 -61.8,41 -112.7,41 -90.8,0 -151.6,-75 -151.6,-160.3 0,-88.8 58.7,-159.4 153.7,-159.4 51,0 93.3,21.6 121.4,47.2 z m 498.3,-41.8 h 204.4 v 32.1 H 18462 v 276.9 h -34.2 v -309 z m 691.9,0 h 34.1 v 309 h -34.1 v -309 z m 766.6,61.3 -190.5,247.7 h -31.9 v -309 h 33.2 v 253.4 l 195.2,-253.4 h 27.3 v 309 h -33.3 v -247.7 z m 758.8,247.7 h -218.6 v -309 h 220.8 v 31.7 h -186.6 v 108.2 h 165 v 31.8 h -165 v 105.5 h 184.4 v 31.8 0"
         style="fill:#ffffff;fill-opacity:1;fill-rule:evenodd;stroke:none"
         id="path38" />
      <path
         d="m 33017.7,30704.1 c -78.6,37.1 -171.8,1.9 -208.1,-78.5 -36.1,-80.3 -1.8,-175.5 76.9,-212.6 78.6,-37 171.6,-1.9 207.9,78.5 36.2,80.4 1.9,175.6 -76.7,212.6 z m -1100.8,-819.2 c -66.8,31.5 -146,1.6 -176.7,-66.6 -30.8,-68.4 -1.6,-149.3 65.1,-180.7 66.9,-31.6 146,-1.6 176.8,66.6 30.7,68.4 1.4,149.2 -65.2,180.7 z m 25.9,678.6 c -94.5,44.6 -206.3,2.3 -249.7,-94.2 -43.6,-96.6 -2.3,-210.9 92.2,-255.3 94.3,-44.6 206.1,-2.3 249.6,94.3 43.5,96.4 2.3,210.8 -92.1,255.2 z m -751.8,255.8 c -6.7,41.4 -32.7,78.8 -72.6,97.6 -64.2,30.3 -140.2,1.6 -169.9,-64 -29.5,-65.7 -1.4,-143.3 62.8,-173.6 64.2,-30.3 140.1,-1.6 169.7,64.1 4.5,10 7.7,20.2 9.5,30.6 l -3.1,0.3 3.6,45 z m 19.1,-122.4 435.5,-174.6 c 65.8,112.8 205.6,158.9 324.8,102.7 127.6,-60.1 183.4,-214.6 124.7,-345.1 -36.3,-80.3 -107.4,-132.7 -186.4,-147.3 l -1.6,-168.4 c 13.4,-3.1 26.3,-7.7 39.3,-13.8 27.1,-12.7 50.1,-30.9 68.5,-52.5 l 778.6,517 c -52.7,60.8 -69.2,149.1 -36.5,228.1 l -1518.5,127 c -2.5,-15.9 -7.1,-31.9 -14.1,-47.1 -4.1,-9.2 -8.8,-17.8 -14.3,-26 z m -740.2,-299.8 c 38.8,21.3 55.3,61.7 43.8,104.7 -6.6,25.1 -23.8,47.1 -48.8,58.9 -44.8,21.1 -97.9,1.1 -118.6,-44.9 -20.6,-45.7 -1,-100.1 43.7,-121.3 26.5,-12.3 56.1,-10.4 79.9,2.6 z m 454.8,292.2 -350.9,-160.2 c 10,-30.1 11.3,-63.5 2.3,-95.4 l 1113,-560.9 c 36.4,58.9 98.3,93.9 163.8,96.6 l 1.5,159.3 c -32.6,1.3 -65.4,8.9 -96.9,23.8 -119.4,56.3 -175.8,194.9 -134.6,319.4 l -453.4,181.8 c -49.8,-37.8 -117.9,-47.3 -178.4,-18.9 -27,12.8 -49.5,31.8 -66.4,54.5 z m -1005.9,94 -4.6,-8.9 386.4,-206.6 c 41.9,61.9 122.4,86.1 191.6,53.5 22.1,-10.5 40.7,-25.5 55.1,-43.6 l 351.7,160.4 c -4.2,12.5 -7.2,25.2 -8.8,38.4 l -971.4,6.8 z m 2951.7,1957.4 c -92.8,0 -168.1,-77 -168.1,-172 0,-94.9 75.3,-171.9 168.1,-171.9 92.9,0 168.2,77 168.2,171.9 0,95 -75.3,172 -168.2,172 z m -712.8,-1303.6 c -78.9,0 -142.8,-65.3 -142.8,-146.1 0,-80.7 63.9,-146 142.8,-146 78.9,0 142.8,65.3 142.8,146 0,80.8 -63.9,146.1 -142.8,146.1 z m -272.7,673.2 c -111.5,0 -201.9,-92.5 -201.9,-206.5 0,-114.1 90.4,-206.5 201.9,-206.5 111.5,0 201.9,92.4 201.9,206.5 0,114 -90.4,206.5 -201.9,206.5 z m -844.6,-96 c -24.8,37.2 -66.4,61.7 -113.8,61.7 -75.9,0 -137.3,-62.9 -137.3,-140.4 0,-77.4 61.4,-140.3 137.3,-140.3 75.9,0 137.2,62.9 137.2,140.3 0,11.8 -1.3,23.3 -4,34.3 l -3.2,-1.2 -16.2,45.6 z m 72.2,-110.5 501.1,29.7 c 14.5,140.3 130.4,249.4 271.3,249.4 150.8,0 272.9,-125 272.9,-279.1 0,-94.9 -46.2,-178.6 -116.9,-229 l 72.5,-164.9 c 14.3,3 29,4.6 44.2,4.6 32.1,0 62.5,-7.1 89.9,-19.7 l 531.5,861.1 c -77.9,35.1 -132.9,113.5 -135.8,205.4 l -1535.1,-573.4 c 4.6,-16.6 7,-34.1 7,-52.3 0,-10.8 -0.8,-21.4 -2.6,-31.8 z m -591.3,-634.1 c 31.1,26 16.7,96.3 7.8,111.1 -16.8,28.9 -47.5,48.1 -82.6,48.1 -53,0 -95.9,-43.8 -95.9,-97.9 0,-54.2 42.9,-98.2 95.9,-98.2 30.2,0 57.3,14.4 74.8,36.9 z m 316.6,495.6 -271.6,-317.1 c 23.1,-24.8 39,-56.6 44.2,-92 l 1330.6,-35.5 c 9.6,74.1 54.7,136.7 117.3,169.4 l -68.5,156 c -32.3,-13.8 -67.7,-21.4 -104.9,-21.4 -140.9,0 -256.8,109.2 -271.3,249.4 l -521.7,-31 c -31.9,-59.8 -94,-100.3 -165.4,-100.3 -32.1,0 -62.2,8.2 -88.7,22.5 z m -71.8,69.2 -970.5,-449.1 487.6,-24.9 c 13.7,79.6 81.6,140 163.3,140 26,0 50.6,-6.1 72.7,-17.2 l 272.2,318 c -9.6,10.1 -18,21.1 -25.3,33.2 z m -4767.5,-1130.4 c -78.7,-37 -113.1,-132.2 -76.8,-212.6 36.2,-80.4 129.3,-115.5 207.9,-78.5 78.7,37.1 113.1,132.3 76.8,212.6 -36.2,80.4 -129.3,115.6 -207.9,78.5 z m 1100.8,-819.2 c -66.8,-31.5 -96,-112.3 -65.2,-180.7 30.8,-68.2 109.8,-98.2 176.6,-66.6 66.8,31.4 96.1,112.3 65.3,180.7 -30.9,68.2 -109.9,98.1 -176.7,66.6 z m -26,678.6 c -94.4,-44.4 -135.6,-158.8 -92.1,-255.2 43.5,-96.6 155.3,-138.9 249.7,-94.3 94.5,44.4 135.7,158.7 92.1,255.3 -43.4,96.5 -155.2,138.8 -249.7,94.2 z m 751.8,255.8 3.6,-45 -3.1,-0.3 c 1.8,-10.4 5.1,-20.6 9.6,-30.6 29.6,-65.7 105.5,-94.4 169.8,-64.1 64.1,30.3 92.2,107.9 62.6,173.6 -29.6,65.6 -105.6,94.3 -169.8,64 -40,-18.8 -66,-56.2 -72.7,-97.6 z m -19.1,-122.4 c -5.3,8.2 -10.2,16.8 -14.3,26 -6.9,15.2 -11.6,31.2 -14,47.1 l -1518.6,-127 c 32.7,-79 16.1,-167.3 -36.4,-228.1 l 778.5,-517 c 18.4,21.6 41.5,39.8 68.6,52.5 12.8,6.1 26,10.7 39.2,13.8 l -1.5,168.4 c -79.1,14.6 -150.2,67 -186.4,147.3 -58.8,130.5 -3,285 124.6,345.1 119.2,56.2 259,10.1 324.8,-102.7 l 435.5,174.6 z m 740.2,-299.8 c 23.9,-13 53.4,-14.9 79.9,-2.6 44.7,21.2 64.4,75.6 43.6,121.3 -20.6,46 -73.7,66 -118.4,44.9 -25.1,-11.8 -42.2,-33.8 -49,-58.9 -11.4,-43 5.1,-83.4 43.9,-104.7 z m -454.9,292.2 c -16.8,-22.7 -39.2,-41.7 -66.4,-54.5 -60.4,-28.4 -128.4,-18.9 -178.3,18.9 l -453.4,-181.8 c 41.3,-124.5 -15.3,-263.1 -134.6,-319.4 -31.5,-14.9 -64.3,-22.5 -97,-23.8 l 1.5,-159.3 c 65.5,-2.7 127.5,-37.7 163.9,-96.6 l 1113.1,560.9 c -9.1,31.9 -7.8,65.3 2.3,95.4 l -351.1,160.2 z m 1006,94 -971.4,-6.8 c -1.6,-13.2 -4.5,-25.9 -8.8,-38.4 l 351.8,-160.4 c 14.4,18.1 32.9,33.1 55,43.6 69.2,32.6 149.8,8.4 191.6,-53.5 l 386.5,206.6 -4.7,8.9 z m -2951.7,1957.4 c -92.9,0 -168.1,-77 -168.1,-172 0,-94.9 75.2,-171.9 168.1,-171.9 92.9,0 168.2,77 168.2,171.9 0,95 -75.3,172 -168.2,172 z m 712.8,-1303.6 c -78.9,0 -142.8,-65.3 -142.8,-146.1 0,-80.7 63.9,-146 142.8,-146 78.8,0 142.8,65.3 142.8,146 0,80.8 -64,146.1 -142.8,146.1 z m 272.7,673.2 c -111.5,0 -201.9,-92.5 -201.9,-206.5 0,-114.1 90.4,-206.5 201.9,-206.5 111.6,0 201.9,92.4 201.9,206.5 0,114 -90.3,206.5 -201.9,206.5 z m 844.7,-96 -16.3,-45.6 -3.1,1.2 c -2.8,-11 -4.2,-22.5 -4.2,-34.3 0,-77.4 61.4,-140.3 137.3,-140.3 75.8,0 137.3,62.9 137.3,140.3 0,77.5 -61.5,140.4 -137.3,140.4 -47.3,0 -89,-24.5 -113.7,-61.7 z m -72.3,-110.5 c -1.8,10.4 -2.6,21 -2.6,31.8 0,18.2 2.5,35.7 7,52.3 l -1535.1,573.4 c -2.9,-91.9 -57.9,-170.3 -135.8,-205.4 l 531.6,-861.1 c 27.4,12.6 57.7,19.7 89.8,19.7 15.2,0 30,-1.6 44.3,-4.6 l 72.4,164.9 c -70.7,50.4 -116.9,134.1 -116.9,229 0,154.1 122.2,279.1 272.9,279.1 140.9,0 256.8,-109.1 271.4,-249.4 l 501,-29.7 z m 591.2,-634.1 c 17.6,-22.5 44.7,-36.9 75,-36.9 52.9,0 95.9,44 95.9,98.2 0,54.1 -43,97.9 -95.9,97.9 -35.2,0 -66,-19.2 -82.7,-48.1 -9,-14.8 -23.3,-85.1 7.7,-111.1 z m -316.6,495.6 c -26.4,-14.3 -56.5,-22.5 -88.6,-22.5 -71.4,0 -133.4,40.5 -165.4,100.3 l -521.6,31 c -14.5,-140.2 -130.4,-249.4 -271.4,-249.4 -37.1,0 -72.6,7.6 -104.9,21.4 l -68.4,-156 c 62.5,-32.7 107.6,-95.3 117.2,-169.4 l 1330.7,35.5 c 5.1,35.4 21,67.2 44.1,92 l -271.7,317.1 z m 71.9,69.2 c -7.3,-12.1 -15.7,-23.1 -25.3,-33.2 l 272.3,-318 c 21.9,11.1 46.6,17.2 72.7,17.2 81.6,0 149.6,-60.4 163.2,-140 l 487.7,24.9 -970.6,449.1 z m 1225.6,-64.5 0.5,-0.2 h 0.5 l 0.5,-0.2 0.8,-0.1 1,-0.1 0.6,-0.2 h 0.5 0.6 l 0.6,-0.2 0.6,-0.1 h 0.5 l 0.6,-0.2 h 0.6 0.3 0.3 0.5 l 0.6,-0.2 0.6,-0.1 h 0.6 l 1.1,-0.2 0.6,-0.1 h 0.6 0.5 l 0.6,-0.1 0.6,-0.1 h 0.6 l 0.4,-0.1 3,-0.2 h 0.6 l 0.1,-0.1 0.5,-0.1 h 0.6 l 4,-0.2 0.6,-0.1 h 0.1 0.4 l 4.2,-0.1 0.6,-0.1 h 0.6 v 0 h 0.5 0.6 l 4.8,-0.1 h 0.4 0.4 l 3.5,0.1 h 0.6 0.4 0.4 v 0 h 0.4 l 0.5,0.1 h 0.4 0.5 2.7 l 0.3,0.1 h 0.4 0.6 v 0 h 0.3 l 0.4,0.1 h 0.6 0.4 l 3,0.2 h 0.5 l 0.4,0.1 h 0.1 l 0.3,0.1 h 0.5 0.4 0.4 0.5 l 0.8,0.2 h 0.5 0.4 l 0.4,0.1 h 0.5 0.4 l 0.4,0.1 h 0.4 v 0 l 0.5,0.1 h 0.4 0.4 l 0.5,0.1 0.4,0.1 0.4,0.1 h 0.5 0.4 0.4 l 0.5,0.2 0.4,0.1 c 111.9,13.9 198.2,111.3 198.2,229.5 0,127.7 -101.2,231.3 -226.1,231.3 -125,0 -226.4,-103.6 -226.4,-231.3 0,-114.9 82,-210.2 189.4,-228.2 z m 32.4,-1766 c -93.8,0 -169.8,-77.8 -169.8,-173.7 0,-95.9 76,-173.6 169.8,-173.6 93.8,0 169.8,77.7 169.8,173.6 0,95.9 -76,173.7 -169.8,173.7 z m 32.5,-642.3 v 0 c -10.4,2.5 -21.3,3.9 -32.4,3.9 -11.2,0 -22.2,-1.4 -32.5,-3.9 v 0 c -58,-14.8 -101.1,-68.4 -101.1,-132.4 0,-75.4 59.7,-136.5 133.5,-136.5 73.8,0 133.6,61.1 133.6,136.5 0,64 -43.1,117.6 -101.1,132.4 z m -32.5,-504 c -62.5,0 -113.3,-51.9 -113.3,-116 0,-63.9 50.8,-115.8 113.3,-115.8 62.6,0 113.4,51.9 113.4,115.8 0,64.1 -50.8,116 -113.4,116 z m 0,2568.3 c -224.9,0 -407.3,-186.5 -407.3,-416.5 0,-230 182.4,-416.4 407.3,-416.4 225,0 407.3,186.4 407.3,416.4 0,230 -182.3,416.5 -407.3,416.5 z m 10.2,-3101.9 v -1.9 h -20.3 v 1.9 c -41.9,-5.1 -74.3,-41.5 -74.3,-85.7 0,-47.7 37.7,-86.4 84.4,-86.4 46.6,0 84.5,38.7 84.5,86.4 0,44.2 -32.4,80.6 -74.3,85.7 z m 22.3,3162.3 h 48.8 v -4.6 c 53.6,-10.4 104,-30.1 149.6,-57.4 l 1004.6,464.8 c -3.7,15 -5.6,30.5 -5.6,46.4 0,106.6 84.5,192.9 188.6,192.9 65.7,0 123.5,-34.3 157.2,-86.3 l 1558.7,582.1 4.6,-13.1 c 19.6,108.1 112.1,190 223.4,190 125.6,0 227.2,-104.1 227.2,-232.5 0,-128.4 -101.6,-232.4 -227.2,-232.4 -11.3,0 -22.4,0.9 -33.2,2.6 l -540.5,-875.6 c 48.5,-41 79.5,-102.9 79.5,-172.3 0,-123.4 -97.9,-223.5 -218.6,-223.5 -110.8,0 -202.4,84.5 -216.6,193.7 l -1332.1,35.6 c -15.4,-77.3 -82.3,-135.5 -162.5,-135.5 -81.7,0 -149.5,60.4 -163.3,139.7 l -424.7,21.7 c 71.2,-84.5 114.4,-194.7 114.4,-315.1 0,-59.5 -10.6,-116.4 -29.9,-169.1 l 949.1,-6.7 c 2.6,14.1 6.9,28 12.9,41.5 40.8,90.2 145.1,129.7 233.4,88.1 55.6,-26.2 91.4,-78.3 100.1,-135.8 l 1541.6,-129 -1,-12.9 c 57.8,83.7 167.3,116 261.6,71.6 106.3,-50 152.8,-178.7 103.7,-287.4 -49,-108.6 -174.8,-156.1 -281.1,-106 -9.5,4.4 -18.5,9.6 -27.2,15.3 l -791.4,-525.6 c 25.4,-54 27.9,-118.9 1.5,-177.6 -47.3,-104.4 -168.2,-150.2 -270.4,-101.9 -93.7,44.2 -139.1,152.1 -109.4,250.3 l -1114.4,561.5 c -42.4,-59.2 -121.2,-81.7 -189.2,-49.8 -69.1,32.5 -103.5,110.6 -84.9,183.4 l -392.8,209.9 c -78.3,-112.2 -202.4,-188.6 -344.5,-200.7 v -481.6 c 101.9,-16.1 180,-106.1 180,-214.8 0,-108.6 -78.1,-198.7 -180,-214.7 v -218.7 c 76.7,-15.5 134.6,-84.6 134.6,-167.6 0,-82.9 -57.9,-152.1 -134.6,-167.5 V 28883 c 62.6,-15 109.3,-72.6 109.3,-141.3 0,-76.4 -58,-139.2 -131.6,-144.5 v -242.4 c 58.4,-5.3 104.1,-55.4 104.1,-116.4 0,-64.6 -51.1,-116.9 -114.3,-116.9 -63.1,0 -114.2,52.3 -114.2,116.9 0,61 45.6,111.1 104.1,116.4 v 242.4 c -73.6,5.3 -131.6,68.1 -131.6,144.5 0,68.7 46.5,126.3 109.3,141.3 v 178.8 c -76.8,15.4 -134.6,84.6 -134.6,167.5 0,83 57.8,152.1 134.6,167.6 v 218.7 c -102,16 -180,106.1 -180,214.7 0,108.7 78,198.7 180,214.8 v 481.6 c -142.1,12.1 -266.2,88.5 -344.6,200.7 l -392.8,-209.9 c 18.7,-72.8 -15.8,-150.9 -84.9,-183.4 -67.9,-31.9 -146.7,-9.4 -189.3,49.8 l -1114.3,-561.5 c 29.8,-98.2 -15.6,-206.1 -109.4,-250.3 -102.2,-48.3 -223.1,-2.5 -270.3,101.9 -26.5,58.7 -24,123.6 1.5,177.6 l -791.5,525.6 c -8.6,-5.7 -17.7,-10.9 -27.3,-15.3 -106.2,-50.1 -232.1,-2.6 -281,106 -49,108.7 -2.6,237.4 103.7,287.4 94.3,44.4 203.8,12.1 261.6,-71.6 l -1,12.9 1541.6,129 c 8.8,57.5 44.6,109.6 100.2,135.8 88.2,41.6 192.6,2.1 233.2,-88.1 6.1,-13.5 10.4,-27.4 13.1,-41.5 l 949,6.7 c -19.3,52.7 -29.9,109.6 -29.9,169.1 0,120.4 43.2,230.6 114.5,315.1 L 28733,31301 c -13.8,-79.3 -81.6,-139.7 -163.2,-139.7 -80.3,0 -147.2,58.2 -162.5,135.5 l -1332.2,-35.6 c -14.2,-109.2 -105.8,-193.7 -216.6,-193.7 -120.8,0 -218.5,100.1 -218.5,223.5 0,69.4 30.9,131.3 79.3,172.3 l -540.3,875.6 c -10.9,-1.7 -22,-2.6 -33.3,-2.6 -125.5,0 -227.3,104 -227.3,232.4 0,128.4 101.8,232.5 227.3,232.5 111.3,0 203.9,-81.9 223.4,-190 l 4.7,13.1 1558.6,-582.1 c 33.7,52 91.6,86.3 157.2,86.3 104.1,0 188.6,-86.3 188.6,-192.9 0,-15.9 -1.9,-31.4 -5.5,-46.4 l 1004.6,-464.8 c 45.5,27.3 96,47 149.6,57.4 v 4.6 h 48.8 v 224.8 c -139,18.4 -246.2,140 -246.2,287 0,159.9 126.8,289.5 283.2,289.5 156.3,0 283.2,-129.6 283.2,-289.5 0,-150.3 -112.1,-273.7 -255.3,-288.1 v -223.7 0"
         style="fill:url(#linearGradient44);fill-opacity:1;fill-rule:evenodd;stroke:none"
         id="path46" />
      <path
         d="m 26231,27152 h -301.9 v -725.1 h 315.1 c 155,0 257.3,73.5 257.3,198.9 0,100.5 -67.9,150.2 -152,176 55.7,24.9 112.5,73.6 112.5,168.9 0,110.9 -91.2,181.3 -231,181.3 z m -13.1,-323.2 h -209.7 v 249.6 h 215.7 c 101.4,0 157,-46.6 157,-119 0,-86.1 -66.8,-130.6 -163,-130.6 z m 28.3,-328.4 h -238 v 255.9 h 223.8 c 123.6,0 188.4,-45.6 188.4,-125.4 0,-81.7 -66.8,-130.5 -174.2,-130.5 z m 1000.8,-73.5 -217.8,296.3 c 111.4,20.7 192.6,91.1 192.6,212.3 0,130.5 -100.4,216.5 -256.4,216.5 h -304.8 v -725.1 h 79.9 v 281.8 h 202.7 l 205.6,-281.8 h 98.2 z m -106.4,505.5 c 0,-94.3 -75.8,-150.2 -182.2,-150.2 h -217.9 v 294.1 h 218.9 c 114.4,0 181.2,-53.8 181.2,-143.9 z m 589.7,224.7 h -74.9 l -323.3,-730.2 h 82.1 c 102.4,233.4 170.5,390.6 277.6,634.9 108,-247.7 173,-398.5 275.5,-634.9 h 86.1 l -323.1,730.2 z m 984.6,-586.2 -446.7,581.1 h -75 v -725.1 h 78.1 v 594.6 l 457.8,-594.6 h 63.8 v 725.1 h -78 v -581.1 z m 901.6,219.6 c 0,205 -153.9,361.5 -376.8,361.5 h -246.2 v -725.1 h 246.2 c 222.9,0 376.8,158.5 376.8,363.6 z m -83.1,-2 c 0,-161.6 -114.5,-285.9 -293.7,-285.9 h -166.1 v 573.7 h 166.1 c 179.2,0 293.7,-126.3 293.7,-287.8 z m 1077.9,-217.6 -446.7,581.1 h -75 v -725.1 h 78 v 594.6 l 457.8,-594.6 h 63.8 v 725.1 h -77.9 v -581.1 z m 615.9,586.2 h -75 l -323.2,-730.2 h 82.1 c 102.6,233.9 170,389.6 277.6,634.9 107.5,-246.6 173.3,-399 275.5,-634.9 h 86.1 l -323.1,730.2 z m 1061.7,-142.9 v -587.3 h 79.9 v 725.1 h -81 l -258.4,-395.7 -258.2,395.7 h -81.1 v -725.1 h 78 v 586.3 l 258.3,-387.4 h 4 l 258.5,388.4 z m 793.2,137.8 h -512.6 v -725.1 h 517.6 v 74.6 h -437.7 v 253.8 h 387 v 74.6 h -387 v 247.6 h 432.7 v 74.5 0"
         style="fill:#ffffff;fill-opacity:1;fill-rule:evenodd;stroke:none"
         id="path48" />
      <path
         d="m 27439.8,26081.3 h 101.6 v 32.2 h -237.6 v -32.2 h 101.5 v -277 h 34.5 z m 692,34.4 h -32 l -137.8,-311.4 h 35 l 35.8,81.7 h 164.6 l 35.4,-81.7 h 36.7 l -137.7,311.4 z m 52.2,-198.3 h -137.8 l 69.1,157.6 68.7,-157.6 z m 810.6,-71.1 v 123.2 h -124.8 v -31.4 h 92 v -76.8 c -20.7,-17.2 -52.7,-30.9 -87.2,-30.9 -73.4,0 -119.7,54.7 -119.7,128.9 0,69.4 48,127.2 114.9,127.2 42.8,0 68.7,-14.5 92,-35.3 l 22.1,26.5 c -30.3,26.1 -61.8,41.1 -112.8,41.1 -90.7,0 -151.7,-75.1 -151.7,-160.3 0,-88.8 58.9,-159.5 153.9,-159.5 51,0 93.3,21.7 121.3,47.3 z m 498.3,-42 h 204.3 v 32.3 h -170 v 276.9 h -34.3 v -309.2 z m 692,0 h 34.1 v 309.2 h -34.1 v -309.2 z m 766.5,61.4 -190.5,247.8 h -32 v -309.2 h 33.3 v 253.5 l 195.2,-253.5 h 27.2 v 309.2 h -33.2 v -247.8 z m 758.9,247.8 h -218.6 v -309.2 h 220.7 v 31.8 h -186.6 v 108.2 h 165 v 31.8 h -165 v 105.6 h 184.5 v 31.8 0"
         style="fill:#ffffff;fill-opacity:1;fill-rule:evenodd;stroke:none"
         id="path50" />
      <path
         d="m 39853.1,31444.3 c 12.3,-6.7 26.6,-10.5 41.6,-10.5 40.9,0 75.4,27.9 86.2,66.1 l 261.2,36 c 11.1,-62.7 64.8,-110.1 129.4,-110.1 26.9,0 52,8.2 72.9,22.5 l 455.9,-335 c 4.3,-46.8 42.8,-83.2 89.6,-83.2 7,0 13.8,0.8 20.4,2.3 l 142,-104.3 -727.8,-40.7 -496.3,250.2 z m -18.7,359.2 v -209.4 c 15.9,14.8 37.1,23.7 60.3,23.7 41.2,0 75.9,-28.4 86.5,-67.1 l 261.2,36.1 c 11.9,61.6 65.2,108.2 129.1,108.2 51.4,0 95.9,-30.2 117.5,-74.2 l 348.1,48 c 10,39.6 45.2,68.9 87.1,68.9 49.7,0 90,-41.2 90,-92 0,-50.8 -40.3,-92 -90,-92 -40.3,0 -74.4,27.1 -85.9,64.4 l -335.8,-46.3 c 0.3,-3.8 0.6,-7.6 0.6,-11.5 0,-28.2 -8.6,-54.5 -23.2,-76.1 l 431.5,-317.1 c 15.4,28 44.8,46.9 78.5,46.9 41.2,0 75.9,-28.2 86.7,-66.8 l 477.5,53.9 c 1.2,49.8 41.1,89.8 90,89.8 42.2,0 77.6,-29.7 87.4,-69.8 l 108,12.2 5.3,-50.1 -115.2,-13.1 c -11.8,-36.7 -45.6,-63.3 -85.5,-63.3 -33,0 -61.8,18.1 -77.5,45 l -490.2,-55.3 c -3.9,-13.6 -10.6,-25.9 -19.7,-36.2 l 174.1,-127.8 550.4,30.7 425.7,323 -253.6,357.3 -2019.3,196.3 -99.6,-36.3 z m -406.3,-3390.7 -6.2,-35.4 -124.3,516.3 73,2293 57.5,-2.7 57.5,2.7 73.1,-2293 -124.4,-516.3 -6.2,35.4 z m -1982.8,2529.8 c -4.2,10 -6.5,21.2 -6.5,33 0,46.4 36.7,84 82.1,84 26,0 49.2,-12.3 64.2,-31.6 l 213.9,157.2 c -8.3,9.3 -14.5,20.6 -18,33 l -447.7,50.5 c -14.3,-24.6 -40.6,-41.1 -70.6,-41.1 -36.5,0 -67.3,24.3 -78.1,57.8 l -105.2,11.9 4.9,45.8 98.6,-11.2 c 9,36.7 41.2,63.7 79.8,63.7 44.6,0 81.1,-36.5 82.1,-82 l 436.1,-49.1 c 9.8,35.2 41.4,61 79,61 30.8,0 57.6,-17.3 71.7,-42.9 l 393.9,289.5 c -13.2,19.8 -21,43.7 -21,69.6 0,3.5 0.1,7.1 0.4,10.4 l -306.6,42.4 c -10.4,-34.1 -41.6,-58.9 -78.3,-58.9 -45.4,0 -82.2,37.7 -82.2,84 0,5.1 0.4,10.1 1.2,15 l -936.1,-91.1 -253.7,-357.3 425.8,-323 370.3,-20.6 z m 1576.5,860.9 V 31520 l -93.9,-382.4 -496.3,-250.2 -839.2,46.8 c 6.8,12.3 10.7,26.4 10.7,41.4 0,2.9 -0.2,5.7 -0.5,8.6 l 238.7,175.4 c 5.9,-1.4 12.3,-2.1 18.6,-2.1 42.8,0 77.9,33.3 81.8,75.9 l 416.4,306 c 19.1,-13.1 41.9,-20.6 66.6,-20.6 58.9,0 107.9,43.4 118.1,100.6 l 238.4,-32.9 c 9.9,-34.9 41.5,-60.3 78.9,-60.3 45.2,0 82.1,37.6 82.1,83.9 0,46.5 -36.9,84.1 -82.1,84.1 -37.7,0 -69.6,-25.9 -79.2,-61.3 l -238.4,32.9 c -11,56.3 -59.6,98.8 -117.8,98.8 -47.1,0 -87.6,-27.6 -107.5,-67.7 l -317.8,43.8 c -0.7,3.2 -1.7,6.2 -2.7,9.2 l 925.6,89.9 99.5,-36.3 z m 406.3,-566.4 H 39311 l -162.8,197.7 -22.8,380.6 93.8,157.4 208.9,-26.2 208.9,26.2 93.7,-157.4 -22.6,-380.6 -163,-197.7 h -117 z m 0,754.2 -153.2,14.2 -84.2,106.9 20.7,304.5 111.7,141.1 100.7,3.7 4.3,-3.3 4.4,3.3 100.5,-3.7 111.7,-141.1 20.9,-304.5 -84.3,-106.9 -153.2,-14.2 z m -2801.2,813.8 c 2.8,0.3 5.8,0.4 8.7,0.4 41,0 75.6,-28.2 86.1,-66.7 l 259.4,35.8 c 11.9,61.3 64.9,107.5 128.3,107.5 51.1,0 95.3,-29.9 116.9,-73.7 l 172.9,23.9 -457.3,156.3 -305.6,-123.5 -9.4,-60 z m 1403.2,-846.6 c -16.4,16.6 -26.6,39.6 -26.6,65.1 0,3.1 0.1,6.2 0.4,9.3 l -259.7,191 c -6.5,-1.6 -13.3,-2.4 -20.4,-2.4 -46.4,0 -84.6,36.2 -88.9,82.7 l -453.1,332.9 c -20.7,-14.2 -45.6,-22.4 -72.4,-22.4 -64.1,0 -117.5,47.1 -128.6,109.4 l -259.3,-35.8 c -10.9,-38 -45.2,-65.6 -85.9,-65.6 -12.7,0 -24.8,2.7 -35.9,7.6 l -13.2,-85.1 930.9,-567 512.7,-19.7 z m 995.3,317.6 27.9,-357.1 -902.6,34.8 c 19.3,16.8 31.6,41.8 31.6,69.8 0,50.5 -40.1,91.4 -89.4,91.4 -28.4,0 -53.6,-13.4 -70,-34.5 l -232.7,171.1 c 9.1,10.2 15.7,22.4 19.6,36 l 487.1,54.9 c 15.7,-26.7 44.3,-44.8 77,-44.8 39.6,0 73.3,26.5 84.9,63 l 114.5,12.9 -5.5,49.9 -107.2,-12.2 c -9.7,39.8 -44.8,69.3 -86.7,69.3 -48.7,0 -88.3,-39.7 -89.4,-89.1 l -474.5,-53.6 c -10.7,38.4 -45.3,66.4 -86.2,66.4 -33.4,0 -62.6,-18.7 -77.8,-46.6 l -428.8,315 c 14.6,21.5 22.9,47.6 22.9,75.7 0,3.9 -0.1,7.6 -0.4,11.4 l 264.6,36.5 96.8,-33 c 15.5,-13.4 35.7,-21.5 57.6,-21.5 l 4.6,0.1 1362.1,-465.8 z m 3226.1,385.7 c -37,-0.2 -69.2,-20.6 -86.9,-50.9 l -553.8,62.5 c -4.3,15.4 -12,29.3 -22.3,40.8 l 264.5,194.5 c 18.7,-23.9 47.4,-39.2 79.6,-39.2 45.4,0 83.8,30.5 96.9,72.6 l 190.3,-77 31.7,-203.3 z m -719.8,-566.2 c -16,36.2 -51.6,61.3 -92.8,61.3 -45.4,0 -84.1,-30.5 -97,-72.8 l -379.2,52.4 c 0.4,4.2 0.5,8.6 0.5,12.9 0,32 -9.6,61.6 -26.2,86.1 l 487.4,358.2 c 17.4,-31.7 50.7,-53 88.7,-53 46.5,0 85.7,31.8 97.7,75.4 l 539.5,-60.9 c 0.7,-25.7 10.4,-49 26.1,-66.9 l -644.7,-392.7 z m -1700.8,180.5 -28.1,-357.1 1535.9,59.2 19.5,11.8 c -8.3,10.9 -14.3,23.4 -17.8,36.9 l -393,54.3 c -24.5,-49.7 -74.7,-83.8 -132.9,-83.8 -72.1,0 -132.2,52.6 -145.7,122.3 l -295,40.6 c -11.9,-43.7 -51.2,-75.7 -97.9,-75.7 -56.1,0 -101.6,46.5 -101.6,103.9 0,57.4 45.5,103.9 101.6,103.9 46.2,0 85.3,-31.5 97.6,-74.6 l 294.9,-40.7 c 12.7,70.8 73.3,124.4 146.1,124.4 30.5,0 58.8,-9.4 82.4,-25.5 l 515,378.5 c 4.9,52.7 48.3,94 101.2,94 7.9,0 15.7,-1 23,-2.7 l 289,212.4 -1994.2,-682.1 v 0"
         style="fill:url(#linearGradient56);fill-opacity:1;fill-rule:evenodd;stroke:none"
         id="path58" />
      <path
         d="M 36141.9,26964.5 H 35840 v -725.1 h 315.1 c 155,0 257.3,73.6 257.3,198.9 0,100.5 -67.9,150.2 -151.9,176.1 55.8,24.9 112.5,73.5 112.5,168.8 0,110.9 -91.3,181.3 -231.1,181.3 z m -13.1,-323.2 H 35919 v 249.6 h 215.8 c 101.4,0 157.1,-46.6 157.1,-119.1 0,-86 -66.8,-130.5 -163.1,-130.5 z m 28.3,-328.3 H 35919 v 255.8 h 224 c 123.6,0 188.4,-45.6 188.4,-125.3 0,-81.8 -66.8,-130.5 -174.3,-130.5 z m 1000.9,-73.6 -217.8,296.2 c 111.5,20.8 192.5,91.2 192.5,212.4 0,130.5 -100.3,216.5 -256.4,216.5 h -304.8 v -725.1 h 79.9 v 281.8 h 202.7 l 205.6,-281.8 h 98.3 z m -106.3,505.5 c 0,-94.3 -76.1,-150.2 -182.5,-150.2 h -217.8 v 294.2 h 218.9 c 114.4,0 181.4,-53.8 181.4,-144 z m 589.5,224.8 h -75 l -323.2,-730.3 h 82.2 c 102.4,233.4 170.5,390.7 277.6,635 107.8,-247.8 172.9,-398.6 275.4,-635 h 86.1 l -323.1,730.3 z m 984.6,-586.3 -446.7,581.1 h -75 v -725.1 h 78 v 594.6 l 458,-594.6 h 63.8 v 725.1 h -78.1 v -581.1 z m 901.6,219.6 c 0,205.1 -153.9,361.5 -376.8,361.5 h -246.2 v -725.1 h 246.2 c 222.9,0 376.8,158.5 376.8,363.6 z m -83.1,-2.1 c 0,-161.6 -114.4,-285.9 -293.7,-285.9 h -166.1 v 573.9 h 166.1 c 179.3,0 293.7,-126.4 293.7,-288 z m 1078,-217.5 -446.8,581.1 h -75 v -725.1 h 78 v 594.6 l 457.9,-594.6 h 63.7 v 725.1 h -77.8 v -581.1 z m 615.9,586.3 h -75 l -323.3,-730.3 h 82.2 c 102.6,233.9 169.9,389.6 277.5,635 107.5,-246.7 173.3,-399 275.5,-635 h 86.2 l -323.1,730.3 z m 1061.6,-143 v -587.3 h 79.9 v 725.1 h -80.9 l -258.4,-395.7 -258.3,395.7 h -81 v -725.1 h 78 v 586.3 l 258.3,-387.4 h 4 l 258.4,388.4 z m 793.2,137.8 h -512.6 v -725.1 h 517.6 v 74.7 h -437.5 v 253.7 h 386.8 v 74.5 h -386.8 v 247.6 h 432.5 v 74.6 0"
         style="fill:#ffffff;fill-opacity:1;fill-rule:evenodd;stroke:none"
         id="path60" />
      <path
         d="m 37350.7,25893.8 h 101.6 v 32.2 h -237.5 v -32.2 h 101.5 v -276.9 h 34.4 z m 691.9,34.4 h -31.9 l -137.8,-311.3 h 35 l 35.8,81.7 h 164.6 l 35.4,-81.7 h 36.7 l -137.8,311.3 z m 52.3,-198.3 h -137.8 l 69.1,157.7 68.7,-157.7 z m 810.7,-71.1 v 123.2 h -124.8 v -31.3 h 91.8 v -76.9 c -20.6,-17.2 -52.5,-30.9 -87.1,-30.9 -73.4,0 -119.6,54.8 -119.6,129 0,69.3 47.9,127.1 114.9,127.1 42.7,0 68.6,-14.5 91.8,-35.3 l 22.2,26.5 c -30.2,26.1 -61.8,41.1 -112.7,41.1 -90.8,0 -151.8,-75.1 -151.8,-160.3 0,-88.8 58.9,-159.5 153.9,-159.5 50.8,0 93.3,21.7 121.4,47.3 z m 498.3,-41.9 h 204.3 v 32.2 H 39438 v 276.9 h -34.1 v -309.1 z m 691.8,0 h 34.2 v 309.1 h -34.2 v -309.1 z m 766.6,61.3 -190.5,247.8 h -31.9 v -309.1 h 33.2 v 253.4 l 195.3,-253.4 h 27.2 v 309.1 h -33.3 v -247.8 z m 758.9,247.8 h -218.6 v -309.1 h 220.8 v 31.7 h -186.6 v 108.2 h 165 v 31.8 h -165 v 105.6 h 184.4 v 31.8 0"
         style="fill:#ffffff;fill-opacity:1;fill-rule:evenodd;stroke:none"
         id="path62" />
      <path
         d="m 7346.66,11936.2 35.85,-81 79.19,36.6 -35.92,81 z m -244.24,62.7 28.79,-65 63.56,29.4 -28.72,65 -63.63,-29.4 z m -301.49,5 48.24,-109 106.53,49.3 -48.15,108.9 -106.62,-49.2 z m 1023.86,103.8 138.87,64.1 62.78,-141.9 -138.8,-64.1 -62.85,141.9 z m -847.2,63.7 79.19,36.7 35.84,-81 -79.18,-36.6 -35.85,80.9 z m 642.19,15.7 54.13,-122.3 119.72,55.3 -54.14,122.4 -119.71,-55.4 z m -430.4,42.8 24.61,-55.8 54.5,25.1 -24.62,55.9 -54.49,-25.2 z m -511.9,-13.4 92.35,42.7 41.9,-94.4 -92.35,-42.7 -41.9,94.4 z m -309.76,-28.7 70.11,-158.2 154.7,71.7 -70.03,158.2 -154.78,-71.7 z m 973.98,48.1 54.13,-122.3 119.63,55.4 -54.12,122.2 -119.64,-55.3 z m 491.3,44.5 70.69,32.6 32.04,-72.2 -70.76,-32.7 -31.97,72.3 z m 1916.93,58.2 -11.73,-2255.5 67.22,-385.1 117.06,486.1 -68.74,2159.4 -103.81,-4.9 z m -3827.16,54.8 34.99,-79.1 77.39,35.8 -34.99,79.1 -77.39,-35.8 z m 1203.04,-0.7 35.78,-81 79.18,36.6 -35.84,81 -79.12,-36.6 z m 624.41,17.6 20.37,-46.1 45.06,20.8 -20.37,46.1 -45.06,-20.8 z m -958.07,-38.6 78.75,-177.8 173.78,80.4 -78.68,177.9 -173.85,-80.5 z m -210.56,48 35.06,-79.1 77.31,35.8 -34.98,79.1 -77.39,-35.8 z m 798.76,16.3 79.25,36.7 35.79,-81 -79.12,-36.7 -35.92,81 z m -1144.29,84.4 34.98,-79.2 77.46,35.8 -35.05,79.1 -77.39,-35.7 z m 546.66,27.4 35.06,-79 77.31,35.8 -34.98,79.1 -77.39,-35.9 z m 738.73,21.4 54.2,-122.4 119.64,55.3 -54.2,122.4 -119.64,-55.3 z m 220.99,44.6 31.96,-72.4 70.77,32.8 -32.04,72.3 -70.69,-32.7 z m -537.51,-9.4 64.78,-146.4 143.18,66.2 -64.86,146.4 -143.1,-66.2 z m -231.23,22.6 49.23,-111.3 108.99,50.4 -49.3,111.4 -108.92,-50.5 z m -1605.22,45.2 48.23,-109 106.46,49.3 -48.09,108.9 -106.6,-49.2 z m 2116.76,82.3 31.96,-72.2 70.69,32.6 -32.03,72.4 -70.62,-32.8 z m -1764.1,17.8 33.18,-74.9 73.36,33.9 -33.26,75 -73.28,-34 z m 1128.53,86.8 34.99,-79.2 77.39,35.8 -35.07,79.1 -77.31,-35.7 z m 1222.54,-291.4 142.82,66 64.64,-146 -142.88,-66.1 -64.58,146.1 z m -104.23,255.2 32.24,-73.1 -111.36,-51.5 -26.41,-93.6 70.26,32.4 1.94,-4.5 h 0.14 l 33.47,-75.7 h -0.07 l 4.04,-9.3 -85.74,-39.6 21.74,-76.3 38.37,17.7 27.28,-61.6 -46.94,-21.6 17.43,-61.1 110.57,51.1 60.97,-137.6 -73.35,-33.9 34.05,-77 825.03,-46 448.19,225.8 107.54,369.9 v 266.9 l -175.21,26.3 -1314.18,-127.7 z m 2214.22,101.4 v -266.9 l 88.4,-360.1 467.3,-235.6 1277.6,71.3 400.9,304.2 -238.8,336.5 -1901.7,184.9 -93.7,-34.3 z m -2808.68,-3.9 38.07,-86.1 84.16,39 -38.09,86 -84.14,-38.9 z m 229.63,-20.8 78.76,-177.8 173.77,80.4 -78.61,177.8 -173.92,-80.4 z m -1153.72,26.8 70.03,-158.2 154.77,71.6 -69.96,158.3 -154.84,-71.7 z m -522.84,-15.7 90.42,-204.2 199.68,92.3 -90.34,204.2 -199.76,-92.3 z m 1097.65,38.5 78.6,-177.9 173.93,80.5 -78.76,177.7 -173.77,-80.3 z m 2619.94,90.4 -62.99,-202.3 -13.39,-260.2 155.99,-186.2 186.02,-0.1 153.49,186.3 21.3,358.4 -88.26,148.3 -352.16,-44.2 z m -4541.12,65.9 33.19,-75 73.43,33.9 -33.19,75.1 -73.43,-34 z m 3079.43,-73.5 h 143.83 v 147.2 H 8182.49 V 13032 Z m -1306.33,114.8 34.99,-79.1 77.39,35.8 -34.99,79.1 -77.39,-35.8 z m -1351.68,150.3 48.29,-108.9 106.48,49.2 -48.17,109 -106.6,-49.3 z m 2099.76,70.5 -0.65,-28.5 0.65,-0.3 7.49,-4.6 v 33.4 h -7.49 z m -1419.06,72.7 78.59,-177.8 173.94,80.4 -78.62,177.8 -173.91,-80.4 z m 3419.71,65.3 -98.19,-272.5 117.26,-146.7 299.89,28.2 79.45,100.7 -19.6,286.7 -105.27,132.8 -94.72,3.5 -178.82,-132.7 z m -2385.63,-66.4 h 203.58 v 208.1 h -203.58 v -208.1 z m -1506.6,165 48.15,-108.9 106.54,49.3 -48.16,108.9 -106.53,-49.3 z m 2014.03,-135 h 239.14 v 244.5 h -239.14 v -244.5 z m -2303.56,234.8 33.26,-74.9 73.28,33.9 -33.12,75 -73.42,-34 z m 1998.27,-22.4 h 113.66 v 116.2 H 7441.4 v -116.2 z m -383.76,44.9 H 7150 v 94.5 h -92.36 v -94.5 z m 1146.38,-408 v -83.2 h 81.28 v 83.2 h -81.28 z m 136.05,99.6 v -190 h 185.73 v 190 h -185.73 z m -100.85,116 v -83 h 81.27 v 83 h -81.27 z m -25.19,190 v -83.1 h 81.27 v 83.1 h -81.27 z m -91.51,7 v 92.2 l 354.62,-121.3 h -84.51 v -174.8 h 170.96 v 145.2 l 897.17,-306.8 26.77,-342.3 -1125.93,48.2 v 152.1 h -13.54 v 0.9 h -203.64 v -55.3 h -0.37 v -88.4 l -103.37,4.4 -181.05,110.3 h 236.12 v 240.2 h 36.08 v 121.9 h -12.18 v 156.1 h -3.02 v 17.4 h 5.89 z m -145.19,32.2 h 113.68 v 116.3 h -113.68 v -116.3 z m -599.93,123.4 h 92.36 v 94.4 h -92.36 v -94.4 z m 2801.4,-517.3 -26.2,-336.3 1446.3,55.8 876.7,533.9 -46.9,301.2 -288,116.4 -1961.9,-671 z m -2489.42,584.2 h 169.9 v 173.8 h -169.9 v -173.8 z m -961.37,11.6 h 169.75 v 173.8 h -169.75 v -173.8 z m 365.04,7.3 h 169.89 v 173.6 h -169.89 v -173.6 z m 849.88,86.2 h 113.66 v 116.2 h -113.66 v -116.2 z m -498.73,46.6 h 113.74 v 116.3 H 7444.2 v -116.3 z m -547.66,61.1 h 84.86 v 86.8 h -84.86 v -86.8 z m -298.18,97.3 h 84.95 v 86.8 h -84.95 v -86.8 z m 1236.3,57.5 h 46.21 v 47.3 h -46.21 v -47.3 z m -779.47,46.6 h 84.87 v 86.8 h -84.87 v -86.8 z m -1011.91,-85.9 h 169.81 v 173.7 h -169.81 v -173.7 z m 1544.47,79.7 h 92.28 v 94.5 h -92.28 v -94.5 z m -368.21,-73.1 h 169.81 v 173.6 h -169.81 v -173.6 z m -405.79,97.8 h 84.94 v 86.8 h -84.94 v -86.8 z m -482.24,103.6 h 84.87 v 86.8 h -84.87 v -86.8 z m 234.9,32 h 84.93 v 86.8 h -84.93 v -86.8 z m 688.39,82.7 h 92.44 v 94.5 h -92.44 v -94.5 z m -337.32,-39.7 h 169.89 v 173.7 h -169.89 v -173.7 z m -860.16,162.3 h 84.86 v 86.8 h -84.86 v -86.8 z m 1944.93,39 h 92.35 v 94.5 h -92.35 v -94.5 z m -1249.4,10.9 h 84.95 v 86.8 h -84.95 v -86.8 z m -1330.17,7.5 h 169.89 v 173.7 h -169.89 v -173.7 z m 992.77,135.8 h 169.82 v 173.6 h -169.82 v -173.6 z m 477.56,107.8 h 84.94 v 86.8 h -84.94 v -86.8 z m -1065.77,87 h 84.95 v 86.9 h -84.95 v -86.9 z m 435.82,181.3 h 84.86 v 86.9 h -84.86 v -86.9 z m 474.39,280.8 h 84.94 v 86.9 h -84.94 v -86.9 z m -764.14,-63.8 h 169.89 v 173.7 h -169.89 v -173.7 z m -586.69,150.7 h 84.87 v 86.9 h -84.87 v -86.9 0"
         style="fill:url(#linearGradient68);fill-opacity:1;fill-rule:evenodd;stroke:none"
         id="path70" />
      <path
         d="M 6426.75,8864.5 H 6124.91 V 8139.4 H 6440 c 154.98,0 257.27,73.5 257.27,198.9 0,100.5 -67.88,150.2 -151.96,176 55.72,24.9 112.45,73.6 112.45,168.9 0,110.8 -91.14,181.3 -231.01,181.3 z m -13.1,-323.2 h -209.7 v 249.6 h 215.74 c 101.29,0 157,-46.6 157,-119.1 0,-86 -66.8,-130.5 -163.04,-130.5 z m 28.36,-328.4 h -238.06 v 255.9 h 223.88 c 123.6,0 188.39,-45.6 188.39,-125.4 0,-81.8 -66.88,-130.5 -174.21,-130.5 z M 7442.84,8139.4 7225,8435.6 c 111.44,20.7 192.57,91.2 192.57,212.4 0,130.4 -100.35,216.5 -256.41,216.5 h -304.8 v -725.1 h 79.98 v 281.7 h 202.64 l 205.66,-281.7 h 98.2 z m -106.4,505.5 c 0,-94.4 -75.94,-150.2 -182.34,-150.2 h -217.76 v 294.1 h 218.77 c 114.46,0 181.33,-53.8 181.33,-143.9 z m 589.65,224.7 h -74.95 l -323.22,-730.2 h 82.07 c 102.44,233.4 170.46,390.6 277.58,635 107.9,-247.9 172.98,-398.5 275.57,-635 h 86.09 l -323.14,730.2 z m 984.62,-586.2 -446.75,581.1 h -74.93 v -725.1 h 77.95 V 8734 l 457.92,-594.6 h 63.77 v 725.1 h -77.96 v -581.1 z m 901.63,219.6 c 0,205 -154.05,361.5 -376.84,361.5 h -246.21 v -725.1 h 246.21 c 222.79,0 376.84,158.5 376.84,363.6 z m -83.16,-2.1 c 0,-161.6 -114.44,-285.9 -293.68,-285.9 h -166.15 v 573.8 h 166.15 c 179.24,0 293.68,-126.3 293.68,-287.9 z m 1077.92,-217.5 -446.7,581.1 h -75 v -725.1 h 77.9 V 8734 l 457.9,-594.6 h 63.9 v 725.1 h -78 v -581.1 z m 615.9,586.2 h -75 l -323.1,-730.2 h 82 c 102.6,233.9 170.1,389.6 277.6,635 107.5,-246.8 173.2,-399.1 275.5,-635 h 86.1 l -323.1,730.2 z m 1061.7,-142.9 v -587.3 h 80 v 725.1 h -81.1 l -258.3,-395.7 -258.3,395.7 h -81 v -725.1 h 77.9 v 586.3 l 258.3,-387.4 h 4.1 l 258.4,388.4 z m 793.1,137.8 h -512.6 v -725.1 h 517.7 v 74.5 h -437.6 v 253.8 h 387 v 74.6 h -387 v 247.5 h 432.5 v 74.7 0"
         style="fill:#3b393d;fill-opacity:1;fill-rule:evenodd;stroke:none"
         id="path72" />
      <path
         d="m 7635.61,7793.8 h 101.58 v 32.1 h -237.56 v -32.1 h 101.5 v -276.9 h 34.48 z m 691.94,34.3 h -31.96 l -137.78,-311.2 h 34.98 l 35.84,81.7 h 164.57 l 35.42,-81.7 h 36.71 l -137.78,311.2 z m 52.26,-198.3 h -137.77 l 69.02,157.7 68.75,-157.7 z m 810.63,-71.1 V 7682 h -124.82 v -31.4 h 91.93 v -76.9 c -20.65,-17.2 -52.61,-30.9 -87.17,-30.9 -73.43,0 -119.64,54.8 -119.64,129 0,69.3 47.93,127.2 114.88,127.2 42.69,0 68.69,-14.6 91.93,-35.3 l 22.03,26.5 c -30.17,26 -61.7,41 -112.67,41 -90.76,0 -151.66,-75 -151.66,-160.3 0,-88.8 58.81,-159.4 153.83,-159.4 50.9,0 93.22,21.6 121.36,47.2 z m 498.3,-41.8 h 204.37 v 32.1 h -170.17 v 276.9 h -34.2 v -309 z m 691.86,0 h 34.2 v 309 h -34.2 v -309 z m 766.7,61.3 -190.6,247.7 h -32 v -309 h 33.3 v 253.4 l 195.2,-253.4 h 27.3 v 309 h -33.2 v -247.7 z m 758.7,247.7 h -218.6 v -309 h 220.8 v 31.7 h -186.6 v 108.2 h 164.9 v 31.8 h -164.9 v 105.5 h 184.4 v 31.8 0"
         style="fill:#3b393d;fill-opacity:1;fill-rule:evenodd;stroke:none"
         id="path74" />
      <path
         d="m 17056.4,11936.2 35.8,-81 79.2,36.6 -35.9,81 z m -244.3,62.7 28.8,-65 63.6,29.4 -28.7,65 -63.7,-29.4 z m -301.4,5 48.1,-109 106.6,49.3 -48.2,108.9 -106.5,-49.2 z m 1023.8,103.8 138.9,64.1 62.7,-141.9 -138.7,-64.1 -62.9,141.9 z m -847.2,63.7 79.2,36.7 35.8,-80.9 -79.2,-36.7 -35.8,80.9 z m 642.1,15.7 54.2,-122.3 119.8,55.3 -54.2,122.4 -119.8,-55.4 z m -430.4,42.8 24.7,-55.8 54.5,25.1 -24.6,55.9 -54.6,-25.2 z m -511.8,-13.4 92.4,42.7 41.8,-94.4 -92.4,-42.8 -41.8,94.5 z m -309.8,-28.7 70.1,-158.2 154.7,71.7 -70,158.2 -154.8,-71.7 z m 974,48.2 54.1,-122.4 119.7,55.4 -54.1,122.3 -119.7,-55.3 z m 491.3,44.4 70.7,32.6 32,-72.2 -70.7,-32.7 -32,72.3 z m -1910.3,113 35.1,-79.1 77.4,35.8 -35.1,79.1 -77.4,-35.8 z m 1203.1,-0.7 35.8,-81 79.2,36.6 -35.8,81 -79.2,-36.6 z m 624.4,17.6 20.4,-46.1 45.1,20.8 -20.5,46.1 -45,-20.8 z m -958,-38.6 78.7,-177.8 173.8,80.4 -78.7,177.9 -173.8,-80.5 z m -210.6,48 35,-79.1 77.3,35.8 -35,79.1 -77.3,-35.8 z m 798.8,16.3 79.2,36.7 35.8,-81 -79.2,-36.7 -35.8,81 z m -1144.3,84.4 35,-79.3 77.4,35.9 -35,79.1 -77.4,-35.7 z m 546.7,27.4 34.9,-79 77.4,35.8 -35,79.1 -77.3,-35.9 z m 738.7,21.4 54.1,-122.4 119.7,55.3 -54.2,122.4 -119.6,-55.3 z m 220.9,44.6 32,-72.4 70.7,32.8 -32,72.3 -70.7,-32.7 z m -537.4,-9.4 64.7,-146.4 143.2,66.2 -64.8,146.4 -143.1,-66.2 z m -231.3,22.6 49.3,-111.3 108.9,50.4 -49.2,111.4 -109,-50.5 z m -1605.2,45.2 48.2,-109 106.5,49.3 -48.1,108.9 -106.6,-49.2 z m 2116.8,82.3 31.9,-72.2 70.7,32.6 -32,72.4 -70.6,-32.8 z m -1764.2,17.8 33.3,-74.9 73.2,33.9 -33.1,75 -73.4,-34 z m 1128.5,86.8 35.1,-79.2 77.4,35.8 -35.1,79.1 -77.4,-35.7 z m 1222.6,-291.5 142.9,66.1 64.6,-146 -142.9,-66.1 -64.6,146 z m -104.2,255.2 32.3,-73 -111.4,-51.6 -26.4,-93.5 70.2,32.4 2,-4.5 h 0.1 l 33.4,-75.7 v 0 l 4.1,-9.3 -85.8,-39.6 21.8,-76.3 38.3,17.7 27.2,-61.6 -46.8,-21.6 17.4,-61.1 110.6,51.1 60.9,-137.6 -73.3,-33.9 34,-77 825,-46 448.3,225.8 107.4,369.9 v 266.9 l -175.1,26.3 -1314.2,-127.8 z m -594.5,97.6 38.1,-86.1 84.2,39 -38.1,86 -84.2,-38.9 z m 229.6,-20.8 78.8,-177.8 173.8,80.4 -78.7,177.8 -173.9,-80.4 z m -1153.6,26.8 70,-158.2 154.7,71.6 -70,158.3 -154.7,-71.7 z m -522.9,-15.7 90.4,-204.2 199.7,92.3 -90.4,204.2 -199.7,-92.3 z m 1097.6,38.5 78.7,-177.9 173.8,80.5 -78.6,177.7 -173.9,-80.3 z m -1921.1,156.3 33.2,-74.9 73.3,33.8 -33.1,75.1 -73.4,-34 z m 3079.4,-73.5 h 143.9 v 147.2 h -143.9 V 13032 Z m -1306.4,114.8 35,-79.1 77.4,35.8 -35,79.1 -77.4,-35.8 z m -1351.6,150.3 48.2,-108.9 106.5,49.2 -48.1,109 -106.6,-49.3 z m 2099.8,70.5 -0.7,-28.5 0.6,-0.3 7.6,-4.6 v 33.4 h -7.5 z m -1419.2,72.7 78.7,-177.8 173.9,80.4 -78.6,177.8 -174,-80.4 z m 1034.1,-1.1 h 203.7 v 208.1 h -203.7 v -208.1 z m -1506.6,165 48.2,-108.9 106.6,49.3 -48.2,108.9 -106.6,-49.3 z m 2014.1,-135 h 239.1 v 244.5 h -239.1 v -244.5 z m -2303.5,234.8 33.1,-74.9 73.4,33.9 -33.2,75 -73.3,-34 z m 1998.2,-22.4 h 113.6 v 116.2 h -113.6 v -116.2 z m -383.8,44.9 h 92.4 v 94.5 h -92.4 v -94.5 z m 1146.5,-408 v -83.2 h 81.2 v 83.2 h -81.2 z m 135.9,99.6 v -190 h 185.8 v 190 h -185.8 z m -100.8,116 v -83.1 h 81.3 v 83.1 h -81.3 z m -25.1,190 v -83.1 h 81.2 v 83.1 h -81.2 z m -91.5,7 v 92.2 l 354.5,-121.3 h -84.5 v -174.8 h 171 v 145.2 l 897.1,-306.8 26.8,-342.3 -1125.9,48.2 v 152.1 h -13.6 v 0.9 h -203.6 v -55.3 h -0.4 v -88.4 l -103.3,4.4 -181.1,110.3 h 236.2 v 240.2 h 36 v 121.9 h -12.2 v 156.1 h -3 v 17.4 h 6 z m -145.2,32.2 h 113.6 v 116.3 h -113.6 v -116.3 z m -600,123.4 h 92.3 v 94.4 h -92.3 v -94.4 z m 312,66.9 h 169.9 v 173.8 h -169.9 v -173.8 z m -961.4,11.6 h 169.8 v 173.8 h -169.8 v -173.8 z m 365.1,7.3 h 169.8 v 173.6 h -169.8 v -173.6 z m 849.8,86.2 h 113.7 v 116.2 h -113.7 v -116.2 z m -498.7,46.6 h 113.7 v 116.3 h -113.7 v -116.3 z m -547.6,61 h 84.8 v 86.9 h -84.8 v -86.9 z m -298.2,97.4 h 84.9 v 86.8 h -84.9 v -86.8 z m 1236.2,57.5 h 46.2 v 47.3 h -46.2 v -47.3 z m -779.4,46.6 h 84.9 v 86.8 h -84.9 v -86.8 z m -1012,-85.9 h 169.9 v 173.7 h -169.9 v -173.7 z m 1544.5,79.7 h 92.4 v 94.5 h -92.4 v -94.5 z m -368.1,-73.1 h 169.8 v 173.6 h -169.8 v -173.6 z m -405.8,97.8 h 84.9 v 86.8 h -84.9 v -86.8 z m -482.3,103.6 h 84.9 v 86.8 h -84.9 v -86.8 z m 234.9,32 h 84.9 v 86.8 h -84.9 v -86.8 z m 688.4,82.7 h 92.5 v 94.5 h -92.5 v -94.5 z m -337.3,-39.7 h 169.9 v 173.7 h -169.9 v -173.7 z m -860.2,162.3 h 84.9 v 86.8 h -84.9 v -86.8 z m 1945,39 h 92.3 v 94.4 h -92.3 v -94.4 z m -1249.5,10.9 h 85 v 86.8 h -85 v -86.8 z m -1330.2,7.5 h 170 v 173.7 h -170 v -173.7 z m 992.9,135.8 h 169.8 v 173.6 h -169.8 v -173.6 z m 477.5,107.8 h 85 v 86.8 h -85 v -86.8 z m -1065.8,87 h 85 v 86.9 h -85 v -86.9 z m 435.8,181.3 h 84.9 v 86.9 h -84.9 v -86.9 z m 474.5,280.8 h 84.9 v 86.9 h -84.9 v -86.9 z m -764.2,-63.8 h 169.9 v 173.7 H 15683 v -173.7 z m 6318.4,-3577.3 -35.7,-81 -79.3,36.6 35.9,81 79.1,-36.6 z m 244.4,62.7 -28.8,-65 -63.7,29.4 28.8,65 63.7,-29.4 z m 301.4,5 -48.2,-109 -106.5,49.3 48.1,108.9 106.6,-49.2 z m -1023.9,103.8 -138.8,64.1 -62.8,-141.9 138.8,-64.1 62.8,141.9 z m 847.3,63.7 -79.3,36.7 -35.8,-80.9 79.2,-36.7 35.9,80.9 z m -642.2,15.7 -54.1,-122.3 -119.8,55.3 54.2,122.4 119.7,-55.4 z m 430.4,42.8 -24.6,-55.8 -54.5,25.1 24.5,55.9 54.6,-25.2 z m 511.8,-13.4 -92.3,42.7 -41.9,-94.4 92.4,-42.8 41.8,94.5 z m 309.8,-28.7 -70.1,-158.2 -154.7,71.7 70.1,158.2 154.7,-71.7 z m -973.9,48.2 -54.2,-122.4 -119.6,55.4 54.1,122.3 119.7,-55.3 z m -491.4,44.4 -70.7,32.6 -32,-72.2 70.8,-32.7 31.9,72.3 z m -1916.9,58.3 11.7,-2255.6 -67.2,-385 -13.8,57.3 -13.8,-57.3 -67.2,385 11.8,2255.6 69.2,3.2 69.3,-3.2 z m 3827.2,54.7 -35,-79.1 -77.5,35.8 35.1,79.1 77.4,-35.8 z m -1203,-0.7 -35.9,-81 -79.2,36.6 35.9,81 79.2,-36.6 z m -624.5,17.6 -20.3,-46.1 -45.2,20.8 20.5,46.1 45,-20.8 z m 958.1,-38.6 -78.7,-177.8 -173.9,80.4 78.7,177.9 173.9,-80.5 z m 210.6,48 -35.1,-79.1 -77.3,35.8 35,79.1 77.4,-35.8 z m -798.9,16.3 -79.1,36.7 -35.9,-81 79.2,-36.7 35.8,81 z m 1144.3,84.4 -34.9,-79.3 -77.4,35.9 35,79.1 77.3,-35.7 z m -546.6,27.4 -35,-79 -77.3,35.8 35,79.1 77.3,-35.9 z m -738.7,21.4 -54.2,-122.4 -119.6,55.3 54.2,122.4 119.6,-55.3 z m -221,44.6 -31.9,-72.4 -70.8,32.8 32,72.3 70.7,-32.7 z m 537.5,-9.4 -64.7,-146.4 -143.2,66.2 64.8,146.4 143.1,-66.2 z m 231.3,22.6 -49.3,-111.3 -109,50.4 49.3,111.4 109,-50.5 z m 1605.2,45.2 -48.3,-109 -106.5,49.3 48.2,108.9 106.6,-49.2 z m -2116.8,82.3 -31.9,-72.2 -70.8,32.6 32,72.4 70.7,-32.8 z m 1764.1,17.8 -33.2,-74.9 -73.3,33.9 33.2,75 73.3,-34 z m -1128.5,86.8 -35.1,-79.2 -77.3,35.8 35,79.1 77.4,-35.7 z m -1222.6,-291.5 -142.8,66.1 -64.7,-146 142.9,-66.1 64.6,146 z m 104.2,255.2 -32.2,-73 111.4,-51.6 26.4,-93.5 -70.2,32.4 -2.1,-4.5 v 0 l -33.5,-75.7 h 0.1 l -4.1,-9.3 85.7,-39.6 -21.7,-76.3 -38.3,17.7 -27.3,-61.6 46.9,-21.6 -17.4,-61.1 -110.6,51.1 -60.9,-137.6 73.2,-33.9 -34,-77 -825,-46 -448.2,225.8 -107.5,369.9 v 266.9 l 175.2,26.3 1314.1,-127.8 z m 594.5,97.6 -38,-86.1 -84.3,39 38.1,86 84.2,-38.9 z m -229.6,-20.8 -78.7,-177.8 -173.9,80.4 78.7,177.8 173.9,-80.4 z m 1153.7,26.8 -70,-158.2 -154.8,71.6 70,158.3 154.8,-71.7 z m 522.8,-15.7 -90.3,-204.2 -199.8,92.3 90.4,204.2 199.7,-92.3 z m -1097.6,38.5 -78.7,-177.9 -173.8,80.5 78.7,177.7 173.8,-80.3 z m -2620,90.4 63.1,-202.3 13.4,-260.2 -156.1,-186.2 -95.4,-0.1 -95.4,0.1 -156,186.2 13.4,260.2 63,202.3 175,21.9 175,-21.9 z m 4541.2,65.9 -33.3,-74.9 -73.3,33.8 33.2,75.1 73.4,-34 z m -3079.4,-73.5 h -143.9 v 147.2 h 143.9 V 13032 Z m 1306.3,114.8 -35,-79.1 -77.4,35.8 35,79.1 77.4,-35.8 z m 1351.6,150.3 -48.2,-108.9 -106.5,49.2 48.2,109 106.5,-49.3 z m -2099.8,70.5 0.7,-28.5 -0.6,-0.3 -7.5,-4.6 v 33.4 h 7.4 z m 1419.2,72.7 -78.7,-177.8 -173.8,80.4 78.6,177.8 173.9,-80.4 z m -3419.7,65.3 98.2,-272.5 -117.4,-146.7 -175.2,16.5 -175.2,-16.5 -117.3,146.7 98.2,272.5 178.8,132.7 15.5,-0.5 15.5,0.5 178.9,-132.7 z m 2385.6,-66.4 h -203.6 v 208.1 h 203.6 v -208.1 z m 1506.6,165 -48.1,-108.9 -106.7,49.3 48.3,108.9 106.5,-49.3 z m -2014,-135 h -239.2 v 244.5 h 239.2 v -244.5 z m 2303.5,234.8 -33.2,-74.9 -73.4,33.9 33.2,75 73.4,-34 z m -1998.3,-22.4 h -113.6 v 116.2 h 113.6 v -116.2 z m 383.8,44.9 h -92.4 v 94.5 h 92.4 v -94.5 z m -1146.4,-408 v -83.2 h -81.2 v 83.2 h 81.2 z m -136,99.6 v -190 h -185.8 v 190 h 185.8 z m 100.9,116 v -83.1 h -81.3 v 83.1 h 81.3 z m 25.1,190 v -83.1 h -81.3 v 83.1 h 81.3 z m 91.5,7 v 92.2 L 20871,13702 h 84.6 v -174.8 h -171.1 v 145.2 l -897.1,-306.8 -26.8,-342.3 1125.9,48.2 v 152.1 h 13.6 v 0.9 h 203.6 v -55.3 h 0.4 v -88.4 l 103.3,4.4 181.1,110.3 h -236.2 v 240.2 h -35.9 v 121.9 h 12.1 v 156.1 h 3 v 17.4 h -5.9 z m 145.2,32.2 h -113.7 v 116.3 h 113.7 v -116.3 z m 600,123.4 h -92.4 v 94.4 h 92.4 v -94.4 z m -312.1,66.9 h -169.9 v 173.8 h 169.9 v -173.8 z m 961.5,11.6 h -169.9 v 173.8 h 169.9 v -173.8 z m -365.2,7.3 h -169.8 v 173.6 h 169.8 v -173.6 z m -849.8,86.2 h -113.6 v 116.2 h 113.6 v -116.2 z m 498.7,46.6 h -113.7 v 116.3 h 113.7 v -116.3 z m 547.7,61 h -84.9 v 86.9 h 84.9 v -86.9 z m 298.2,97.4 h -84.9 v 86.8 h 84.9 v -86.8 z m -1236.3,57.5 h -46.2 v 47.3 h 46.2 v -47.3 z m 779.5,46.6 h -85 v 86.8 h 85 v -86.8 z m 1011.9,-85.9 h -169.8 v 173.7 h 169.8 v -173.7 z m -1544.5,79.7 h -92.3 v 94.5 h 92.3 v -94.5 z m 368.2,-73.1 h -169.9 v 173.6 h 169.9 v -173.6 z m 405.8,97.8 h -84.9 v 86.8 h 84.9 v -86.8 z m 482.3,103.6 h -85 v 86.8 h 85 v -86.8 z m -235,32 h -84.9 v 86.8 h 84.9 v -86.8 z m -688.3,82.7 h -92.6 v 94.5 h 92.6 v -94.5 z m 337.2,-39.7 h -169.9 v 173.7 h 169.9 v -173.7 z m 860.2,162.3 h -84.8 v 86.8 h 84.8 v -86.8 z m -1944.9,39 h -92.4 v 94.4 h 92.4 v -94.4 z m 1249.4,10.9 h -84.9 v 86.8 h 84.9 v -86.8 z m 1330.2,7.5 h -170 v 173.7 h 170 v -173.7 z m -992.8,135.8 h -169.9 v 173.6 h 169.9 v -173.6 z m -477.5,107.8 h -85.1 v 86.8 h 85.1 v -86.8 z m 1065.7,87 h -84.9 v 86.9 h 84.9 v -86.9 z m -435.8,181.3 h -84.8 v 86.9 h 84.8 v -86.9 z m -474.4,280.8 h -84.9 v 86.9 h 84.9 v -86.9 z m 764.2,-63.8 H 23205 v 173.7 h 169.9 v -173.7 z m 586.6,150.7 h -84.8 v 86.9 h 84.8 v -86.9 z m -8865.2,0 h 84.9 v 86.9 h -84.9 v -86.9 0"
         style="fill:url(#linearGradient80);fill-opacity:1;fill-rule:evenodd;stroke:none"
         id="path82" />
      <path
         d="m 16009.6,8864.5 h -301.9 v -725.1 h 315.1 c 155,0 257.3,73.5 257.3,198.9 0,100.5 -67.8,150.2 -151.9,176 55.7,24.9 112.4,73.6 112.4,168.9 0,110.8 -91.2,181.3 -231,181.3 z m -13.1,-323.2 h -209.6 v 249.6 h 215.7 c 101.3,0 157,-46.6 157,-119.1 0,-86 -66.8,-130.5 -163.1,-130.5 z m 28.3,-328.4 h -237.9 v 255.9 h 223.8 c 123.6,0 188.4,-45.6 188.4,-125.4 0,-81.8 -66.9,-130.5 -174.3,-130.5 z m 1000.9,-73.5 -217.8,296.2 c 111.4,20.7 192.5,91.2 192.5,212.4 0,130.4 -100.3,216.5 -256.3,216.5 h -304.9 v -725.1 h 80 v 281.7 h 202.6 l 205.7,-281.7 h 98.2 z m -106.4,505.5 c 0,-94.4 -75.9,-150.2 -182.3,-150.2 h -217.8 v 294.1 h 218.8 c 114.5,0 181.3,-53.8 181.3,-143.9 z m 589.6,224.7 h -74.9 l -323.2,-730.2 h 82.1 c 102.4,233.4 170.4,390.6 277.6,635 107.9,-247.9 172.9,-398.5 275.5,-635 h 86.1 l -323.2,730.2 z m 984.6,-586.2 -446.6,581.1 h -75 v -725.1 h 78 V 8734 l 457.9,-594.6 h 63.8 v 725.1 h -78.1 v -581.1 z m 901.7,219.6 c 0,205 -154,361.5 -376.9,361.5 h -246.1 v -725.1 h 246.1 c 222.9,0 376.9,158.5 376.9,363.6 z m -83.1,-2.1 c 0,-161.6 -114.5,-285.9 -293.8,-285.9 h -166.1 v 573.8 h 166.1 c 179.3,0 293.8,-126.3 293.8,-287.9 z m 1077.9,-217.5 -446.8,581.1 h -74.9 v -725.1 h 77.9 V 8734 l 457.9,-594.6 h 63.9 v 725.1 h -78 v -581.1 z m 615.9,586.2 h -75 l -323.1,-730.2 h 82 c 102.6,233.9 170,389.6 277.5,635 107.5,-246.8 173.3,-399.1 275.6,-635 h 86 l -323,730.2 z m 1061.6,-142.9 v -587.3 h 80 v 725.1 h -81 l -258.3,-395.7 -258.3,395.7 h -81.1 v -725.1 h 78 v 586.3 l 258.3,-387.4 h 4.1 l 258.3,388.4 z m 793.2,137.8 h -512.6 v -725.1 h 517.7 v 74.5 h -437.6 v 253.8 h 387 v 74.6 h -387 v 247.5 h 432.5 v 74.7 0"
         style="fill:#3b393d;fill-opacity:1;fill-rule:evenodd;stroke:none"
         id="path84" />
      <path
         d="m 17218.5,7793.8 h 101.5 v 32.1 h -237.5 v -32.1 h 101.5 v -276.9 h 34.5 z m 691.9,34.3 h -32 l -137.7,-311.2 h 34.9 l 35.9,81.7 h 164.6 l 35.3,-81.7 h 36.8 l -137.8,311.2 z m 52.2,-198.3 h -137.7 l 69.1,157.7 68.6,-157.7 z m 810.7,-71.1 V 7682 h -124.8 v -31.4 h 91.9 v -76.9 c -20.6,-17.2 -52.6,-30.9 -87.1,-30.9 -73.5,0 -119.7,54.8 -119.7,129 0,69.3 47.9,127.2 114.9,127.2 42.7,0 68.6,-14.6 91.9,-35.3 l 22.1,26.5 c -30.3,26 -61.8,41 -112.8,41 -90.7,0 -151.6,-75 -151.6,-160.3 0,-88.8 58.8,-159.4 153.8,-159.4 51,0 93.3,21.6 121.4,47.2 z m 498.3,-41.8 h 204.4 v 32.1 h -170.2 v 276.9 h -34.2 v -309 z m 691.9,0 h 34.1 v 309 h -34.1 v -309 z m 766.6,61.3 -190.5,247.7 h -32 v -309 h 33.3 v 253.4 l 195.2,-253.4 h 27.2 v 309 h -33.2 v -247.7 z m 758.8,247.7 h -218.6 v -309 h 220.7 v 31.7 h -186.5 v 108.2 h 164.9 v 31.8 h -164.9 v 105.5 h 184.4 v 31.8 0"
         style="fill:#3b393d;fill-opacity:1;fill-rule:evenodd;stroke:none"
         id="path86" />
      <path
         d="m 34149,12553.1 c -81.7,38.6 -178.6,1.9 -216.4,-81.7 -37.6,-83.5 -1.9,-182.6 80,-221.1 81.8,-38.6 178.5,-2 216.2,81.6 37.6,83.7 2,182.6 -79.8,221.2 z m -1145,-852.2 c -69.5,32.8 -151.8,1.7 -183.7,-69.3 -32.1,-71.1 -1.7,-155.2 67.7,-187.9 69.6,-32.8 151.8,-1.6 183.9,69.3 31.9,71.2 1.5,155.2 -67.9,187.9 z m 27,705.9 c -98.2,46.4 -214.6,2.4 -259.7,-98 -45.4,-100.4 -2.4,-219.3 95.9,-265.6 98,-46.3 214.4,-2.3 259.6,98.1 45.2,100.3 2.4,219.3 -95.8,265.5 z m -782,266.1 c -6.9,43 -34,81.9 -75.5,101.5 -66.8,31.5 -145.9,1.6 -176.7,-66.6 -30.7,-68.3 -1.5,-149.1 65.3,-180.6 66.8,-31.5 145.7,-1.6 176.6,66.7 4.6,10.4 7.9,21 9.8,31.8 l -3.2,0.3 3.7,46.9 z m 19.9,-127.3 453,-181.6 c 68.4,117.3 213.8,165.3 337.8,106.8 132.7,-62.6 190.8,-223.3 129.7,-359 -37.7,-83.5 -111.7,-138 -193.9,-153.2 l -1.7,-175.1 c 14,-3.3 27.4,-8.1 40.9,-14.4 28.2,-13.3 52.1,-32.1 71.3,-54.6 l 809.9,537.8 c -54.9,63.1 -72.1,155 -38.1,237.1 l -1579.4,132.2 c -2.5,-16.6 -7.3,-33.2 -14.7,-49 -4.2,-9.6 -9.1,-18.5 -14.8,-27 z m -769.9,-311.9 c 40.3,22.1 57.5,64.2 45.5,108.9 -6.8,26.1 -24.7,49 -50.7,61.2 -46.6,22 -101.8,1.2 -123.4,-46.6 -21.4,-47.6 -1,-104.1 45.5,-126.2 27.6,-12.8 58.3,-10.8 83.1,2.7 z m 473.1,303.9 -365.1,-166.6 c 10.5,-31.3 11.8,-66 2.4,-99.2 l 1157.7,-583.4 c 37.9,61.2 102.3,97.7 170.4,100.5 l 1.5,165.7 c -33.8,1.3 -67.9,9.2 -100.7,24.7 -124.2,58.5 -182.9,202.7 -140.1,332.2 l -471.5,189.1 c -51.9,-39.3 -122.7,-49.2 -185.6,-19.7 -28.1,13.4 -51.5,33.1 -69,56.7 z m -1046.3,97.8 -4.8,-9.3 401.9,-214.8 c 43.6,64.4 127.3,89.5 199.3,55.6 23,-10.9 42.3,-26.5 57.3,-45.4 l 365.8,166.9 c -4.3,13 -7.5,26.2 -9.1,39.9 l -1010.4,7.1 z m 3070.2,2035.9 c -96.6,0 -174.9,-80.1 -174.9,-178.8 0,-98.8 78.3,-178.9 174.9,-178.9 96.6,0 174.9,80.1 174.9,178.9 0,98.7 -78.3,178.8 -174.9,178.8 z m -741.5,-1355.8 c -82,0 -148.5,-68 -148.5,-152 0,-83.9 66.5,-151.9 148.5,-151.9 82.1,0 148.6,68 148.6,151.9 0,84 -66.5,152 -148.6,152 z m -283.6,700.1 c -116,0 -210.1,-96.2 -210.1,-214.7 0,-118.7 94.1,-214.8 210.1,-214.8 115.9,0 210,96.1 210,214.8 0,118.5 -94.1,214.7 -210,214.7 z m -878.6,-99.8 c -25.7,38.7 -69,64.2 -118.3,64.2 -78.9,0 -142.8,-65.4 -142.8,-146 0,-80.6 63.9,-146 142.8,-146 78.9,0 142.7,65.4 142.7,146 0,12.3 -1.3,24.2 -4.1,35.6 l -3.3,-1.2 -17,47.4 z m 75.2,-114.9 521.1,30.9 c 15.2,145.9 135.7,259.3 282.3,259.3 156.8,0 283.8,-130 283.8,-290.2 0,-98.7 -48.1,-185.8 -121.6,-238.2 l 75.5,-171.5 c 14.8,3.1 30.1,4.7 45.9,4.7 33.4,0 65,-7.3 93.5,-20.4 l 552.9,895.6 c -81.1,36.5 -138.2,118.1 -141.3,213.6 l -1596.7,-596.3 c 4.8,-17.3 7.3,-35.5 7.3,-54.4 0,-11.2 -0.9,-22.3 -2.7,-33.1 z m -615,-659.6 c 32.3,27.1 17.4,100.2 8.1,115.6 -17.5,30 -49.4,50.1 -86,50.1 -55.1,0 -99.7,-45.7 -99.7,-101.9 0,-56.4 44.6,-102.2 99.7,-102.2 31.5,0 59.6,15 77.9,38.4 z m 329.3,515.5 -282.6,-329.8 c 24.1,-25.8 40.6,-58.9 46,-95.7 l 1384,-37 c 10,77.2 56.9,142.3 122,176.3 l -71.3,162.2 c -33.5,-14.3 -70.3,-22.2 -109,-22.2 -146.6,0 -267.1,113.6 -282.3,259.4 l -542.5,-32.3 c -33.2,-62.2 -97.8,-104.3 -172.1,-104.3 -33.4,0 -64.6,8.5 -92.2,23.4 z m -74.7,72 -1009.5,-467.1 507.2,-25.9 c 14.2,82.7 84.9,145.6 169.8,145.6 27.1,0 52.7,-6.4 75.7,-17.9 l 283.1,330.7 c -10,10.5 -18.7,22 -26.3,34.6 z m -4958.9,-1175.7 c -81.8,-38.6 -117.5,-137.5 -79.8,-221.2 37.7,-83.6 134.5,-120.2 216.3,-81.6 81.8,38.5 117.5,137.6 79.9,221.1 -37.8,83.6 -134.6,120.3 -216.4,81.7 z m 1145,-852.2 c -69.4,-32.7 -99.8,-116.7 -67.8,-187.9 32,-70.9 114.2,-102.1 183.7,-69.3 69.5,32.7 99.9,116.8 68,187.9 -32.2,71 -114.4,102.1 -183.9,69.3 z m -27,705.9 c -98.2,-46.2 -141.1,-165.2 -95.8,-265.5 45.3,-100.4 161.5,-144.4 259.7,-98.1 98.3,46.3 141.2,165.2 95.8,265.6 -45.1,100.4 -161.5,144.4 -259.7,98 z m 782,266.1 3.7,-46.9 -3.3,-0.3 c 2,-10.8 5.3,-21.4 10.1,-31.8 30.8,-68.3 109.7,-98.2 176.5,-66.7 66.8,31.5 95.9,112.3 65.2,180.6 -30.8,68.2 -109.9,98.1 -176.6,66.6 -41.7,-19.6 -68.6,-58.5 -75.6,-101.5 z m -19.9,-127.3 c -5.6,8.5 -10.6,17.4 -14.8,27 -7.2,15.8 -12.1,32.4 -14.7,49 l -1579.4,-132.2 c 33.9,-82.1 16.7,-174 -37.9,-237.1 l 809.7,-537.8 c 19.2,22.5 43.1,41.3 71.3,54.6 13.4,6.3 27.1,11.1 40.8,14.4 l -1.5,175.1 c -82.3,15.2 -156.3,69.7 -193.9,153.2 -61.2,135.7 -3.1,296.4 129.6,359 123.9,58.5 269.3,10.5 337.8,-106.8 l 453,181.6 z m 769.9,-311.9 c 24.9,-13.5 55.5,-15.5 83.1,-2.7 46.5,22.1 67,78.6 45.4,126.2 -21.5,47.8 -76.7,68.6 -123.2,46.6 -26.1,-12.2 -43.9,-35.1 -51,-61.2 -11.8,-44.7 5.4,-86.8 45.7,-108.9 z m -473.1,303.9 c -17.5,-23.6 -40.8,-43.3 -69.1,-56.7 -62.9,-29.5 -133.6,-19.6 -185.5,19.7 l -471.6,-189.1 c 43,-129.5 -15.9,-273.7 -140,-332.2 -32.7,-15.5 -66.8,-23.4 -100.8,-24.7 l 1.5,-165.7 c 68.1,-2.8 132.6,-39.3 170.5,-100.5 l 1157.8,583.4 c -9.5,33.2 -8.1,67.9 2.4,99.2 l -365.2,166.6 z m 1046.3,97.8 -1010.4,-7.1 c -1.6,-13.7 -4.6,-26.9 -9.1,-39.9 l 365.9,-166.9 c 15,18.9 34.2,34.5 57.2,45.4 72,33.9 155.8,8.8 199.3,-55.6 l 402,214.8 -4.9,9.3 z m -3070.1,2035.9 c -96.7,0 -174.9,-80.1 -174.9,-178.8 0,-98.8 78.2,-178.9 174.9,-178.9 96.6,0 174.9,80.1 174.9,178.9 0,98.7 -78.3,178.8 -174.9,178.8 z m 741.4,-1355.8 c -82.1,0 -148.6,-68 -148.6,-152 0,-83.9 66.5,-151.9 148.6,-151.9 82,0 148.5,68 148.5,151.9 0,84 -66.5,152 -148.5,152 z m 283.6,700.1 c -115.9,0 -210,-96.2 -210,-214.7 0,-118.7 94.1,-214.8 210,-214.8 116.1,0 210,96.1 210,214.8 0,118.5 -93.9,214.7 -210,214.7 z m 878.6,-99.8 -16.9,-47.4 -3.3,1.2 c -2.8,-11.4 -4.3,-23.3 -4.3,-35.6 0,-80.6 63.8,-146 142.8,-146 78.9,0 142.8,65.4 142.8,146 0,80.6 -63.9,146 -142.8,146 -49.2,0 -92.6,-25.5 -118.3,-64.2 z m -75.2,-114.9 c -1.8,10.8 -2.6,21.9 -2.6,33.1 0,18.9 2.5,37.1 7.2,54.4 l -1596.8,596.3 c -2.9,-95.5 -60.1,-177.1 -141.1,-213.6 l 552.9,-895.6 c 28.4,13.1 60,20.4 93.4,20.4 15.8,0 31.1,-1.6 46.1,-4.7 l 75.3,171.5 c -73.6,52.4 -121.6,139.5 -121.6,238.2 0,160.2 127,290.2 283.8,290.2 146.6,0 267.1,-113.4 282.3,-259.3 l 521.1,-30.9 z m 615,-659.6 c 18.3,-23.4 46.4,-38.4 77.9,-38.4 55.1,0 99.8,45.8 99.8,102.2 0,56.2 -44.7,101.9 -99.8,101.9 -36.6,0 -68.6,-20.1 -85.9,-50.1 -9.4,-15.4 -24.4,-88.5 8,-115.6 z m -329.4,515.5 c -27.5,-14.9 -58.8,-23.4 -92.1,-23.4 -74.3,0 -138.8,42.1 -172.1,104.3 l -542.5,32.3 c -15,-145.8 -135.7,-259.4 -282.3,-259.4 -38.6,0 -75.5,7.9 -109.1,22.2 l -71.2,-162.2 c 65,-34 112,-99.1 122,-176.3 l 1384.1,37 c 5.3,36.8 21.8,69.9 45.9,95.7 l -282.7,329.8 z m 74.8,72 c -7.6,-12.6 -16.3,-24.1 -26.3,-34.6 l 283.2,-330.7 c 22.8,11.5 48.5,17.9 75.6,17.9 84.9,0 155.6,-62.9 169.8,-145.6 l 507.2,25.9 -1009.5,467.1 z m 1274.7,-67.1 0.6,-0.2 h 0.5 l 0.6,-0.2 0.8,-0.1 1,-0.1 0.6,-0.2 h 0.6 l 0.6,-0.1 0.6,-0.1 0.6,-0.1 h 0.6 l 0.6,-0.2 h 0.6 l 0.3,-0.1 h 0.3 0.6 l 0.6,-0.2 h 0.6 l 0.6,-0.1 1.2,-0.1 0.6,-0.1 h 0.6 l 0.6,-0.1 0.6,-0.1 h 0.6 0.6 l 0.4,-0.2 3.2,-0.2 h 0.6 l 0.1,-0.1 0.5,-0.1 h 0.6 l 4.1,-0.2 0.7,-0.1 h 0.1 0.5 l 4.3,-0.2 h 0.6 0.6 v 0 h 0.6 0.6 l 4.9,-0.1 h 0.5 0.4 l 3.6,0.1 h 0.6 0.5 0.4 v 0 h 0.5 0.4 0.5 0.4 l 2.9,0.1 0.3,0.1 h 0.4 0.6 v 0 h 0.3 l 0.5,0.1 h 0.6 0.4 l 3.2,0.2 h 0.4 l 0.5,0.1 h 0.1 l 0.3,0.1 h 0.5 0.4 0.5 0.4 l 0.9,0.2 h 0.5 0.4 l 0.5,0.2 h 0.4 0.5 0.4 0.4 v 0 l 0.5,0.2 h 0.5 0.4 l 0.4,0.1 h 0.5 l 0.4,0.1 h 0.5 l 0.5,0.1 h 0.4 l 0.5,0.1 0.4,0.1 c 116.3,14.6 206.2,115.8 206.2,238.7 0,132.9 -105.3,240.7 -235.3,240.7 -129.9,0 -235.4,-107.8 -235.4,-240.7 0,-119.4 85.2,-218.6 196.9,-237.3 z m 33.8,-1836.9 c -97.5,0 -176.6,-80.8 -176.6,-180.6 0,-99.8 79.1,-180.6 176.6,-180.6 97.6,0 176.7,80.8 176.7,180.6 0,99.8 -79.1,180.6 -176.7,180.6 z m 33.8,-668 v 0 c -10.8,2.6 -22.2,4 -33.7,4 -11.7,0 -23.1,-1.4 -33.9,-4 v 0 c -60.3,-15.4 -105.1,-71.2 -105.1,-137.7 0,-78.4 62.2,-142 138.9,-142 76.8,0 138.9,63.6 138.9,142 0,66.5 -44.8,122.3 -105.1,137.7 z m -33.8,-524.3 c -65,0 -117.9,-53.9 -117.9,-120.6 0,-66.4 52.9,-120.4 117.9,-120.4 65.1,0 117.9,54 117.9,120.4 0,66.7 -52.8,120.6 -117.9,120.6 z m 0,2671.4 c -234,0 -423.6,-194 -423.6,-433.2 0,-239.2 189.6,-433.2 423.6,-433.2 234,0 423.6,194 423.6,433.2 0,239.2 -189.6,433.2 -423.6,433.2 z m 10.6,-3226.4 v -1.9 h -21.1 v 1.9 c -43.6,-5.3 -77.3,-43.2 -77.3,-89.1 0,-49.6 39.2,-89.9 87.8,-89.9 48.5,0 87.9,40.3 87.9,89.9 0,45.9 -33.7,83.8 -77.3,89.1 z m 23.2,3289.3 h 50.8 v -4.9 c 55.7,-10.8 108.1,-31.3 155.6,-59.7 l 1044.9,483.5 c -3.9,15.6 -5.8,31.7 -5.8,48.3 0,110.8 87.9,200.6 196.1,200.6 68.3,0 128.5,-35.7 163.6,-89.8 l 1621.2,605.5 4.8,-13.7 c 20.3,112.5 116.6,197.6 232.4,197.6 130.5,0 236.3,-108.2 236.3,-241.7 0,-133.6 -105.8,-241.7 -236.3,-241.7 -11.9,0 -23.4,0.9 -34.6,2.6 l -562.2,-910.7 c 50.5,-42.6 82.7,-107.1 82.7,-179.2 0,-128.4 -101.9,-232.5 -227.4,-232.5 -115.3,0 -210.5,87.9 -225.3,201.5 l -1385.5,37 c -16,-80.4 -85.7,-140.9 -169.1,-140.9 -84.9,0 -155.4,62.8 -169.8,145.3 l -441.8,22.6 c 74.2,-88 119.1,-202.5 119.1,-327.8 0,-61.8 -11.1,-121.1 -31.1,-175.8 l 987.1,-7 c 2.7,14.6 7.2,29.1 13.5,43.1 42.3,93.9 150.9,134.9 242.7,91.7 57.8,-27.3 95.1,-81.5 104.1,-141.3 l 1603.5,-134.2 -1,-13.4 c 60,87.1 174,120.6 272.1,74.5 110.5,-52 158.9,-185.8 107.8,-298.9 -50.9,-113 -181.8,-162.4 -292.3,-110.4 -9.9,4.7 -19.3,10.1 -28.3,16.1 l -823.2,-546.8 c 26.4,-56.2 29,-123.6 1.5,-184.7 -49.1,-108.6 -174.9,-156.2 -281.2,-106 -97.5,46 -144.7,158.2 -113.8,260.4 l -1159.1,584 c -44.2,-61.6 -126.1,-85 -196.8,-51.8 -71.9,33.8 -107.7,115.1 -88.3,190.8 l -408.6,218.3 c -81.4,-116.7 -210.5,-196.2 -358.3,-208.8 v -500.9 c 106,-16.8 187.2,-110.3 187.2,-223.4 0,-113 -81.2,-206.7 -187.2,-223.3 v -227.5 c 79.8,-16.2 140,-88 140,-174.3 0,-86.3 -60.2,-158.2 -140,-174.3 v -186 c 65.1,-15.6 113.7,-75.5 113.7,-146.9 0,-79.5 -60.4,-144.8 -136.9,-150.3 v -252.1 c 60.8,-5.5 108.2,-57.6 108.2,-121.1 0,-67.2 -53.1,-121.6 -118.8,-121.6 -65.6,0 -118.8,54.4 -118.8,121.6 0,63.5 47.5,115.6 108.3,121.1 v 252.1 c -76.6,5.5 -136.9,70.8 -136.9,150.3 0,71.4 48.4,131.3 113.6,146.9 v 186 c -79.8,16.1 -140,88 -140,174.3 0,86.3 60.2,158.1 140,174.3 v 227.5 c -106,16.6 -187.1,110.3 -187.1,223.3 0,113.1 81.1,206.6 187.1,223.4 v 500.9 c -147.7,12.6 -276.8,92.1 -358.4,208.8 l -408.5,-218.3 c 19.4,-75.7 -16.5,-157 -88.3,-190.8 -70.7,-33.2 -152.6,-9.8 -196.9,51.8 l -1159,-584 c 30.9,-102.2 -16.3,-214.4 -113.8,-260.4 -106.3,-50.2 -232.1,-2.6 -281.1,106 -27.6,61.1 -25,128.5 1.5,184.7 l -823.3,546.8 c -8.9,-6 -18.3,-11.4 -28.4,-16.1 -110.4,-52 -241.4,-2.6 -292.2,110.4 -51,113.1 -2.7,246.9 107.8,298.9 98.1,46.1 212.1,12.6 272.1,-74.5 l -1,13.4 1603.5,134.2 c 9.1,59.8 46.3,114 104.1,141.3 91.8,43.2 200.4,2.2 242.6,-91.7 6.4,-14 10.9,-28.5 13.7,-43.1 l 987,7 c -20,54.7 -31,114 -31,175.8 0,125.3 44.9,239.8 119,327.8 l -441.8,-22.6 c -14.4,-82.5 -84.9,-145.3 -169.8,-145.3 -83.4,0 -153,60.5 -169,140.9 l -1385.6,-37 c -14.8,-113.6 -110.1,-201.5 -225.3,-201.5 -125.6,0 -227.3,104.1 -227.3,232.5 0,72.1 32.1,136.6 82.5,179.2 l -562,910.7 c -11.3,-1.7 -22.9,-2.6 -34.6,-2.6 -130.6,0 -236.5,108.1 -236.5,241.7 0,133.5 105.9,241.7 236.5,241.7 115.8,0 212,-85.1 232.3,-197.6 l 4.9,13.7 1621.2,-605.5 c 35,54.1 95.2,89.8 163.5,89.8 108.3,0 196.1,-89.8 196.1,-200.6 0,-16.6 -1.9,-32.7 -5.7,-48.3 l 1044.9,-483.5 c 47.3,28.4 99.9,48.9 155.6,59.7 v 4.9 h 50.7 v 233.7 c -144.5,19.2 -256,145.6 -256,298.5 0,166.4 131.9,301.2 294.5,301.2 162.7,0 294.6,-134.8 294.6,-301.2 0,-156.2 -116.5,-284.6 -265.5,-299.6 v -232.6 0"
         style="fill:url(#linearGradient92);fill-opacity:1;fill-rule:evenodd;stroke:none"
         id="path94" />
      <path
         d="m 27074.7,8897.3 h -301.8 v -725.1 h 315.1 c 155,0 257.3,73.5 257.3,198.9 0,100.5 -67.9,150.2 -152,176 55.7,24.9 112.5,73.6 112.5,168.9 0,110.9 -91.2,181.3 -231.1,181.3 z m -13.1,-323.2 H 26852 v 249.6 h 215.7 c 101.3,0 157,-46.6 157,-119 0,-86.1 -66.8,-130.6 -163.1,-130.6 z m 28.4,-328.4 h -238 v 255.9 h 223.8 c 123.6,0 188.4,-45.6 188.4,-125.4 0,-81.8 -66.8,-130.5 -174.2,-130.5 z m 1000.8,-73.5 -217.8,296.3 c 111.4,20.7 192.6,91.1 192.6,212.3 0,130.5 -100.4,216.5 -256.4,216.5 h -304.8 v -725.1 h 79.9 V 8454 h 202.7 l 205.6,-281.8 h 98.2 z m -106.4,505.5 c 0,-94.3 -75.8,-150.2 -182.3,-150.2 h -217.8 v 294.1 h 218.9 c 114.4,0 181.2,-53.8 181.2,-143.9 z m 589.7,224.7 h -75 l -323.2,-730.2 h 82.1 c 102.4,233.4 170.5,390.6 277.6,634.9 108,-247.7 173,-398.5 275.5,-634.9 h 86.1 l -323.1,730.2 z m 984.6,-586.2 -446.7,581.1 h -75 v -725.1 h 78.1 v 594.6 l 457.8,-594.6 h 63.8 v 725.1 h -78 v -581.1 z m 901.6,219.6 c 0,205 -154,361.5 -376.8,361.5 h -246.2 v -725.1 h 246.2 c 222.8,0 376.8,158.6 376.8,363.6 z m -83.1,-2 c 0,-161.6 -114.5,-285.9 -293.7,-285.9 h -166.2 v 573.7 h 166.2 c 179.2,0 293.7,-126.3 293.7,-287.8 z m 1077.9,-217.6 -446.7,581.1 h -75 v -725.1 h 78 v 594.6 l 457.8,-594.6 h 63.8 v 725.1 h -77.9 v -581.1 z m 615.9,586.2 h -75 l -323.2,-730.2 h 82.1 c 102.6,233.9 170,389.6 277.5,634.9 107.6,-246.6 173.4,-399 275.6,-634.9 h 86.1 l -323.1,730.2 z m 1061.7,-142.9 v -587.3 h 79.9 v 725.1 h -81.1 l -258.3,-395.7 -258.2,395.7 h -81.1 v -725.1 h 78 v 586.3 l 258.3,-387.4 h 4 l 258.5,388.4 z m 793.1,137.8 h -512.5 v -725.1 h 517.6 v 74.6 h -437.7 v 253.8 h 387 v 74.6 h -387 v 247.5 h 432.6 v 74.6 0"
         style="fill:#3b393d;fill-opacity:1;fill-rule:evenodd;stroke:none"
         id="path96" />
      <path
         d="m 28283.6,7826.6 h 101.6 v 32.2 h -237.6 v -32.2 h 101.5 v -277 h 34.5 z m 691.9,34.4 h -31.9 l -137.8,-311.4 h 35 l 35.8,81.7 h 164.6 l 35.4,-81.7 h 36.7 l -137.8,311.4 z m 52.3,-198.3 H 28890 l 69.1,157.6 68.7,-157.6 z m 810.6,-71.1 v 123.2 h -124.8 v -31.4 h 92 v -76.8 c -20.7,-17.2 -52.7,-30.9 -87.2,-30.9 -73.5,0 -119.7,54.7 -119.7,128.9 0,69.4 48,127.2 114.9,127.2 42.8,0 68.7,-14.5 92,-35.3 l 22.1,26.5 c -30.3,26.1 -61.8,41.2 -112.8,41.2 -90.7,0 -151.7,-75.2 -151.7,-160.4 0,-88.8 58.9,-159.5 153.9,-159.5 50.9,0 93.3,21.6 121.3,47.3 z m 498.3,-42 h 204.3 v 32.3 h -170 v 276.9 h -34.3 v -309.2 z m 692,0 h 34.1 v 309.2 h -34.1 v -309.2 z m 766.5,61.4 -190.5,247.8 h -32 v -309.2 h 33.3 v 253.5 l 195.2,-253.5 h 27.2 v 309.2 h -33.2 V 7611 Z m 758.8,247.8 h -218.5 v -309.2 h 220.7 v 31.8 h -186.6 v 108.2 h 165 v 31.8 h -165 V 7827 h 184.4 v 31.8 0"
         style="fill:#3b393d;fill-opacity:1;fill-rule:evenodd;stroke:none"
         id="path98" />
      <path
         d="m 41145.6,12977.7 c 14,-7.6 30.3,-11.9 47.3,-11.9 46.5,0 85.8,31.8 98.1,75.2 l 297,40.9 c 12.6,-71.3 73.7,-125.2 147.3,-125.2 30.5,0 59,9.4 82.8,25.6 l 518.6,-381.1 c 4.9,-53.1 48.6,-94.6 101.8,-94.6 8.1,0 15.8,0.9 23.3,2.7 l 161.4,-118.7 -827.7,-46.2 -564.5,284.6 z m -21.3,408.7 v -238.2 c 18.2,16.7 42.2,26.9 68.6,26.9 46.8,0 86.3,-32.3 98.4,-76.3 l 297.1,41 c 13.5,70.1 74.1,123.1 146.9,123.1 58.4,0 109,-34.4 133.6,-84.4 l 395.9,54.6 c 11.3,45.1 51.4,78.4 99.1,78.4 56.5,0 102.3,-46.9 102.3,-104.7 0,-57.7 -45.8,-104.6 -102.3,-104.6 -45.9,0 -84.7,30.8 -97.8,73.3 l -381.8,-52.7 c 0.3,-4.4 0.6,-8.6 0.6,-13.1 0,-32.1 -9.8,-62 -26.3,-86.6 l 490.7,-360.7 c 17.5,31.9 50.9,53.4 89.2,53.4 46.9,0 86.3,-32 98.6,-76 l 543.2,61.4 c 1.3,56.6 46.7,102.1 102.3,102.1 48,0 88.3,-33.8 99.4,-79.4 l 122.8,13.9 6.1,-57 -131,-14.9 c -13.4,-41.7 -51.9,-72 -97.3,-72 -37.5,0 -70.2,20.6 -88.1,51.2 l -557.5,-62.9 c -4.5,-15.5 -12.2,-29.5 -22.5,-41.2 l 198,-145.4 626,34.9 484.2,367.5 -288.3,406.3 -2296.8,223.3 -113.3,-41.2 z m -462.1,-3856.6 -7,-40.2 -141.4,587.1 83.1,2608.1 65.3,-3.1 65.5,3.1 83,-2608.1 -141.5,-587.1 -7,40.2 z M 38407,12407.1 c -4.7,11.4 -7.3,24.2 -7.3,37.6 0,52.7 41.7,95.5 93.3,95.5 29.7,0 56,-14 73,-35.9 l 243.4,178.7 c -9.5,10.7 -16.6,23.5 -20.5,37.6 l -509.3,57.5 c -16.2,-28 -46.1,-46.9 -80.2,-46.9 -41.6,0 -76.6,27.8 -88.9,65.8 l -119.6,13.6 5.6,52 112.2,-12.7 c 10.1,41.8 46.8,72.5 90.7,72.5 50.8,0 92.2,-41.5 93.3,-93.3 l 496.1,-55.8 c 11.1,40 47.1,69.4 89.8,69.4 35.1,0 65.5,-19.8 81.6,-48.8 l 448,329.2 c -15.1,22.5 -23.9,49.8 -23.9,79.2 0,4 0.2,8 0.5,11.8 l -348.8,48.3 c -11.8,-38.9 -47.3,-67 -89.1,-67 -51.6,0 -93.5,42.8 -93.5,95.5 0,5.8 0.5,11.5 1.5,17 l -1064.7,-103.6 -288.5,-406.3 484.2,-367.5 421.1,-23.4 z m 1793.1,979.3 v -322.5 l -106.8,-434.9 -564.4,-284.6 -954.5,53.2 c 7.7,14 12.1,30 12.1,47.1 0,3.2 -0.2,6.5 -0.5,9.8 l 271.5,199.5 c 6.7,-1.6 13.9,-2.4 21.1,-2.4 48.7,0 88.6,37.9 93.1,86.3 l 473.5,348.1 c 21.8,-14.9 47.7,-23.5 75.8,-23.5 67,0 122.7,49.3 134.3,114.4 l 271.2,-37.4 c 11.3,-39.7 47.1,-68.6 89.7,-68.6 51.4,0 93.3,42.8 93.3,95.4 0,52.9 -41.9,95.6 -93.3,95.6 -42.9,0 -79.1,-29.4 -90.1,-69.6 l -271.1,37.3 c -12.5,64.2 -67.8,112.5 -134,112.5 -53.5,0 -99.7,-31.4 -122.3,-77.1 l -361.4,49.9 c -0.8,3.6 -2,7.1 -3.1,10.4 l 1052.7,102.3 113.2,-41.2 z m 462.1,-644.4 h -133.1 l -185.3,224.9 -25.8,432.9 106.6,179 237.6,-29.8 237.6,29.8 106.6,-179 -25.7,-432.9 -185.4,-224.9 h -133.1 z m 0,857.9 -174.2,16.2 -95.8,121.5 23.5,346.4 127.1,160.4 114.5,4.3 4.9,-3.8 5.1,3.8 114.3,-4.3 127,-160.4 23.8,-346.4 -96,-121.5 -174.2,-16.2 z m -3185.9,925.5 c 3.1,0.4 6.5,0.5 9.8,0.5 46.7,0 86,-32 97.9,-75.8 l 295.1,40.7 c 13.6,69.7 73.8,122.2 145.9,122.2 58.1,0 108.4,-34 133,-83.7 l 196.6,27.1 -520,177.8 -347.7,-140.5 -10.6,-68.3 z m 1595.9,-962.8 c -18.7,18.8 -30.3,45 -30.3,74 0,3.6 0.1,7.1 0.5,10.6 l -295.4,217.2 c -7.4,-1.8 -15.1,-2.7 -23.1,-2.7 -52.9,0 -96.3,41.2 -101.2,94 l -515.3,378.7 c -23.6,-16.1 -51.9,-25.5 -82.4,-25.5 -72.9,0 -133.6,53.6 -146.2,124.4 l -294.9,-40.6 c -12.5,-43.2 -51.5,-74.7 -97.8,-74.7 -14.4,0 -28.2,3.1 -40.8,8.7 l -15,-96.8 1058.8,-644.9 583.1,-22.4 z m 1132,361.2 31.8,-406.2 -1026.6,39.6 c 21.9,19.1 35.9,47.6 35.9,79.4 0,57.4 -45.6,104 -101.7,104 -32.3,0 -60.9,-15.3 -79.6,-39.2 l -264.6,194.6 c 10.3,11.5 17.8,25.4 22.3,40.9 l 553.9,62.4 c 17.9,-30.3 50.4,-50.9 87.6,-50.9 45,0 83.4,30.1 96.6,71.6 l 130.2,14.8 -6.2,56.6 -122,-13.9 c -11,45.4 -50.9,78.9 -98.6,78.9 -55.3,0 -100.3,-45.1 -101.7,-101.4 l -539.7,-60.8 c -12.1,43.6 -51.4,75.5 -97.9,75.5 -38,0 -71.2,-21.4 -88.6,-53.1 l -487.6,358.3 c 16.5,24.4 26,54.2 26,86.1 0,4.4 -0.2,8.7 -0.5,13 l 301,41.5 110,-37.6 c 17.7,-15.3 40.6,-24.4 65.5,-24.4 l 5.3,0.1 1549.2,-529.8 z m 3669.3,438.7 c -42.1,-0.2 -78.8,-23.4 -98.9,-57.8 l -629.8,71 c -4.9,17.5 -13.7,33.3 -25.4,46.4 l 300.8,221.2 c 21.3,-27.2 53.9,-44.5 90.6,-44.5 51.6,0 95.3,34.6 110.2,82.5 l 216.4,-87.6 36.1,-231.2 z m -818.8,-643.9 c -18.1,41.1 -58.6,69.7 -105.4,69.7 -51.7,0 -95.6,-34.8 -110.4,-82.8 l -431.3,59.5 c 0.5,4.9 0.6,9.8 0.6,14.8 0,36.4 -10.9,70 -29.8,97.8 l 554.3,407.4 c 19.9,-36 57.7,-60.3 100.9,-60.3 52.9,0 97.5,36.3 111.2,85.8 l 613.6,-69.2 c 0.8,-29.2 11.8,-55.8 29.6,-76.1 l -733.3,-446.6 z m -1934.3,205.2 -32,-406.2 1746.9,67.4 22.1,13.4 c -9.3,12.4 -16.2,26.6 -20.1,42.1 l -447.1,61.6 c -27.8,-56.5 -84.9,-95.2 -151.1,-95.2 -82,0 -150.3,59.8 -165.7,139 l -335.5,46.2 c -13.6,-49.7 -58.3,-86.1 -111.4,-86.1 -63.9,0 -115.6,52.9 -115.6,118.2 0,65.3 51.7,118.2 115.6,118.2 52.6,0 97,-35.8 111,-84.9 l 335.4,-46.3 c 14.4,80.5 83.3,141.5 166.2,141.5 34.7,0 66.8,-10.7 93.7,-29 l 585.7,430.5 c 5.6,60 55,106.9 115.1,106.9 9,0 17.9,-1.1 26.2,-3.1 l 328.7,241.6 -2268.1,-775.8 v 0"
         style="fill:url(#linearGradient104);fill-opacity:1;fill-rule:evenodd;stroke:none"
         id="path106" />
      <path
         d="m 36985.7,8709.8 h -301.9 v -725.1 h 315.1 c 154.9,0 257.3,73.6 257.3,198.9 0,100.5 -68,150.2 -151.9,176.1 55.7,24.8 112.5,73.5 112.5,168.8 0,110.9 -91.3,181.3 -231.1,181.3 z m -13.1,-323.2 h -209.8 v 249.6 h 215.8 c 101.4,0 157.1,-46.6 157.1,-119.1 0,-86 -66.8,-130.5 -163.1,-130.5 z m 28.3,-328.3 h -238.1 v 255.8 h 224 c 123.6,0 188.4,-45.6 188.4,-125.3 0,-81.8 -66.9,-130.5 -174.3,-130.5 z m 1000.9,-73.6 -217.8,296.2 c 111.4,20.8 192.5,91.2 192.5,212.4 0,130.5 -100.3,216.5 -256.4,216.5 h -304.8 v -725.1 h 79.9 v 281.8 h 202.7 l 205.6,-281.8 h 98.3 z m -106.4,505.5 c 0,-94.3 -76,-150.2 -182.4,-150.2 h -217.8 v 294.2 h 218.8 c 114.5,0 181.4,-53.9 181.4,-144 z M 38485,8715 h -75 l -323.2,-730.3 h 82.2 c 102.3,233.4 170.5,390.6 277.6,635 107.8,-247.8 172.9,-398.6 275.4,-635 h 86.1 L 38485,8715 Z m 984.6,-586.3 -446.7,581.1 h -75 v -725.1 h 78 v 594.6 l 458,-594.6 h 63.8 v 725.1 h -78.1 v -581.1 z m 901.6,219.6 c 0,205.1 -153.9,361.5 -376.8,361.5 h -246.2 v -725.1 h 246.2 c 222.9,0 376.8,158.5 376.8,363.6 z m -83.1,-2.1 c 0,-161.6 -114.4,-285.9 -293.7,-285.9 h -166.1 v 573.9 h 166.1 c 179.3,0 293.7,-126.4 293.7,-288 z m 1078,-217.5 -446.8,581.1 h -75 v -725.1 h 78 v 594.6 l 457.9,-594.6 h 63.7 v 725.1 h -77.8 V 8128.7 Z M 41982,8715 h -75 l -323.3,-730.3 h 82.2 c 102.6,233.9 169.9,389.6 277.5,635 107.5,-246.7 173.3,-399 275.5,-635 h 86.1 l -323,730.3 z m 1061.6,-143 v -587.3 h 79.9 v 725.1 h -80.9 l -258.4,-395.7 -258.3,395.7 h -81.1 v -725.1 h 78.1 V 8571 l 258.3,-387.4 h 4 l 258.4,388.4 z m 793.2,137.8 h -512.6 v -725.1 h 517.6 v 74.6 h -437.5 v 253.8 h 386.8 v 74.5 h -386.8 v 247.6 h 432.5 v 74.6 0"
         style="fill:#3b393d;fill-opacity:1;fill-rule:evenodd;stroke:none"
         id="path108" />
      <path
         d="m 38194.5,7639.1 h 101.6 v 32.2 h -237.5 v -32.2 h 101.5 v -276.9 h 34.4 z m 691.9,34.4 h -31.9 l -137.8,-311.3 h 35 l 35.8,81.7 h 164.6 l 35.4,-81.7 h 36.7 l -137.8,311.3 z m 52.3,-198.3 h -137.8 l 69.1,157.7 68.7,-157.7 z m 810.7,-71.1 v 123.2 h -124.8 v -31.4 h 91.8 v -76.8 c -20.6,-17.2 -52.5,-30.9 -87.1,-30.9 -73.4,0 -119.6,54.8 -119.6,128.9 0,69.4 47.9,127.2 114.9,127.2 42.7,0 68.6,-14.5 91.8,-35.3 l 22.2,26.5 c -30.2,26.2 -61.8,41.1 -112.8,41.1 -90.7,0 -151.7,-75.1 -151.7,-160.3 0,-88.8 58.9,-159.5 153.9,-159.5 50.8,0 93.3,21.7 121.4,47.3 z m 498.3,-41.9 h 204.3 v 32.2 h -170.2 v 276.9 h -34.1 v -309.1 z m 691.8,0 h 34.2 v 309.1 h -34.2 v -309.1 z m 766.6,61.3 -190.5,247.8 h -31.9 v -309.1 h 33.2 v 253.4 l 195.2,-253.4 h 27.3 v 309.1 h -33.3 v -247.8 z m 758.9,247.8 h -218.6 v -309.1 h 220.7 v 31.7 h -186.5 v 108.2 h 164.9 v 31.8 h -164.9 v 105.6 h 184.4 v 31.8 0"
         style="fill:#3b393d;fill-opacity:1;fill-rule:evenodd;stroke:none"
         id="path110" />
    </g>
  </g>
</svg>
