<?xml version="1.0" encoding="UTF-8" standalone="no"?>
<!-- Created with Inkscape (http://www.inkscape.org/) -->
<svg
   xmlns:a="http://ns.adobe.com/AdobeSVGViewerExtensions/3.0/"
   xmlns:dc="http://purl.org/dc/elements/1.1/"
   xmlns:cc="http://creativecommons.org/ns#"
   xmlns:rdf="http://www.w3.org/1999/02/22-rdf-syntax-ns#"
   xmlns:svg="http://www.w3.org/2000/svg"
   xmlns="http://www.w3.org/2000/svg"
   xmlns:sodipodi="http://sodipodi.sourceforge.net/DTD/sodipodi-0.dtd"
   xmlns:inkscape="http://www.inkscape.org/namespaces/inkscape"
   width="100%"
   height="100%"
   id="svg2"
   sodipodi:version="0.32"
   inkscape:version="0.46"
   sodipodi:docname="alpha_hover.svg"
   inkscape:output_extension="org.inkscape.output.svg.inkscape"
   version="1.0"
   viewBox="0 0 126.55161 126.55161"
   inkscape:export-filename="/home/will/Himinbiorg/projects/alpha_hover.png"
   inkscape:export-xdpi="88.900002"
   inkscape:export-ydpi="88.900002">
  <defs
     id="defs4">
    <pattern
       inkscape:stockid="Wavy"
       id="Wavy"
       height="5.1805778"
       width="30.066020"
       patternUnits="userSpaceOnUse"
       inkscape:collect="always">
      <path
         id="path8468"
         d="M 7.597,0.061 C 5.079,-0.187 2.656,0.302 -0.01,1.788 L -0.01,3.061 C 2.773,1.431 5.173,1.052 7.472,1.280 C 9.770,1.508 11.969,2.361 14.253,3.218 C 18.820,4.931 23.804,6.676 30.066,3.061 L 30.062,1.788 C 23.622,5.497 19.246,3.770 14.691,2.061 C 12.413,1.207 10.115,0.311 7.597,0.061 z "
         style="fill:black;stroke:none;" />
    </pattern>
    <inkscape:perspective
       sodipodi:type="inkscape:persp3d"
       inkscape:vp_x="0 : 526.18109 : 1"
       inkscape:vp_y="0 : 1000 : 0"
       inkscape:vp_z="744.09448 : 526.18109 : 1"
       inkscape:persp3d-origin="372.04724 : 350.78739 : 1"
       id="perspective10" />
    <inkscape:perspective
       id="perspective3631"
       inkscape:persp3d-origin="372.04724 : 350.78739 : 1"
       inkscape:vp_z="744.09448 : 526.18109 : 1"
       inkscape:vp_y="0 : 1000 : 0"
       inkscape:vp_x="0 : 526.18109 : 1"
       sodipodi:type="inkscape:persp3d" />
    <inkscape:perspective
       id="perspective7075"
       inkscape:persp3d-origin="0.5 : 0.33333333 : 1"
       inkscape:vp_z="1 : 0.5 : 1"
       inkscape:vp_y="0 : 1000 : 0"
       inkscape:vp_x="0 : 0.5 : 1"
       sodipodi:type="inkscape:persp3d" />
  </defs>
  <sodipodi:namedview
     id="base"
     pagecolor="#ffffff"
     bordercolor="#666666"
     borderopacity="1.0"
     gridtolerance="10000"
     guidetolerance="10"
     objecttolerance="10"
     inkscape:pageopacity="0.0"
     inkscape:pageshadow="2"
     inkscape:zoom="2.8284271"
     inkscape:cx="52.354241"
     inkscape:cy="79.985004"
     inkscape:document-units="px"
     inkscape:current-layer="layer1"
     showgrid="false"
     inkscape:window-width="1440"
     inkscape:window-height="829"
     inkscape:window-x="0"
     inkscape:window-y="25" />
  <metadata
     id="metadata7">
    <rdf:RDF>
      <cc:Work
         rdf:about="">
        <dc:format>image/svg+xml</dc:format>
        <dc:type
           rdf:resource="http://purl.org/dc/dcmitype/StillImage" />
      </cc:Work>
    </rdf:RDF>
  </metadata>
  <g
     inkscape:label="Layer 1"
     inkscape:groupmode="layer"
     id="layer1"
     transform="translate(-97.52404,-381.14365)">
    <rect
       style="opacity:1;fill:#cffff5;fill-opacity:0.75965667;fill-rule:nonzero;stroke:#020315;stroke-width:4;stroke-linecap:round;stroke-linejoin:round;marker:none;marker-start:none;marker-mid:none;marker-end:none;stroke-miterlimit:4;stroke-dasharray:none;stroke-dashoffset:0;stroke-opacity:1;visibility:visible;display:inline;overflow:visible;enable-background:accumulate"
       id="rect8570"
       width="122.55161"
       height="122.55161"
       x="99.52404"
       y="383.14365"
       rx="10.605186"
       ry="10.605184" />
    <rect
       style="opacity:0.67948717999999997;fill:url(#Wavy);fill-opacity:1;fill-rule:nonzero;stroke:none;stroke-width:4;stroke-linecap:round;stroke-linejoin:round;marker:none;marker-start:none;marker-mid:none;marker-end:none;stroke-miterlimit:4;stroke-dasharray:none;stroke-dashoffset:0;stroke-opacity:1;visibility:visible;display:inline;overflow:visible;enable-background:accumulate"
       id="rect2383"
       width="122.55161"
       height="122.55161"
       x="99.52404"
       y="383.14365"
       rx="10.605186"
       ry="10.605184" />
    <rect
       style="opacity:1;fill:#cac6ff;fill-opacity:0.75965666;fill-rule:nonzero;stroke:#150602;stroke-width:2;stroke-linecap:round;stroke-linejoin:round;marker:none;marker-start:none;marker-mid:none;marker-end:none;stroke-miterlimit:4;stroke-dasharray:none;stroke-dashoffset:0;stroke-opacity:1;visibility:visible;display:inline;overflow:visible;enable-background:accumulate"
       id="rect7118"
       width="93.051613"
       height="93.051613"
       x="113.68757"
       y="398.83365"
       rx="10.605186"
       ry="10.605184" />
    <g
       style="overflow:visible"
       id="g7079"
       transform="matrix(0.2968377,0,0,0.2968377,127.03665,413.3343)">
      <g
         id="Layer_3_11_">
		<linearGradient
   y2="33.4841"
   x2="187.7205"
   y1="187.0737"
   x1="34.130901"
   gradientUnits="userSpaceOnUse"
   id="XMLID_1_">
			<stop
   id="stop7004"
   style="stop-color:#2FB1E6"
   offset="0.0899" />

			<stop
   id="stop7006"
   style="stop-color:#38B3E7"
   offset="0.2397" />

			<stop
   id="stop7008"
   style="stop-color:#4DB6E8"
   offset="0.3787" />

			<stop
   id="stop7010"
   style="stop-color:#67BDEA"
   offset="0.5136" />

			<stop
   id="stop7012"
   style="stop-color:#86C7EE"
   offset="0.6458" />

			<stop
   id="stop7014"
   style="stop-color:#ABD5F2"
   offset="0.7763" />

			<stop
   id="stop7016"
   style="stop-color:#D5E9F8"
   offset="0.9035" />

			<stop
   id="stop7018"
   style="stop-color:#FFFFFF"
   offset="1" />

			<a:midPointStop
   style="stop-color:#2FB1E6"
   offset="0.0899" />

			<a:midPointStop
   style="stop-color:#2FB1E6"
   offset="0.7222" />

			<a:midPointStop
   style="stop-color:#FFFFFF"
   offset="1" />

		</linearGradient>

		<path
   id="path7020"
   d="M 219.8525,110.2783 C 219.8525,170.0805 171.0839,218.5596 110.9248,218.5596 C 50.7661,218.5596 1.9976,170.0806 1.9976,110.2783 C 1.9976,50.4765 50.7662,1.9975 110.9248,1.9975 C 171.084,1.9976 219.8525,50.4766 219.8525,110.2783 z"
   class="st2"
   style="fill:url(#XMLID_1_);stroke:#231f20;stroke-width:4;stroke-linecap:round" />

	</g>
      <g
         id="Layer_2_11_">
		<linearGradient
   y2="185.7618"
   x2="141.13609"
   y1="231.9736"
   x1="94.924301"
   gradientUnits="userSpaceOnUse"
   id="XMLID_2_">
			<stop
   id="stop7024"
   style="stop-color:#D3E9F2"
   offset="0.0899" />

			<stop
   id="stop7026"
   style="stop-color:#DFEFF5"
   offset="0.2033" />

			<stop
   id="stop7028"
   style="stop-color:#F0F7FA"
   offset="0.4205" />

			<stop
   id="stop7030"
   style="stop-color:#FAFDFF"
   offset="0.6665" />

			<stop
   id="stop7032"
   style="stop-color:#FFFFFF"
   offset="1" />

			<a:midPointStop
   style="stop-color:#D3E9F2"
   offset="0.0899" />

			<a:midPointStop
   style="stop-color:#D3E9F2"
   offset="0.2346" />

			<a:midPointStop
   style="stop-color:#FFFFFF"
   offset="1" />

		</linearGradient>

		<path
   id="path7034"
   d="M 75.0454,212.0942 C 93.7925,199.8115 99.6108,203.0434 99.6108,203.0434 C 99.6108,203.0434 120.9443,202.3969 126.7622,204.3364 C 132.5801,206.2759 140.9844,194.6401 147.4487,199.165 C 153.913,203.6899 157.792,199.1645 160.3779,206.2758 C 159.0845,211.4478 105.4287,226.3164 75.0454,212.0942 z"
   class="st1"
   style="opacity:0.88999999;fill:url(#XMLID_2_);stroke:#231f20;stroke-width:2" />

		<path
   id="path7036"
   d="M 54.3589,18.1577 C 54.3589,18.1577 67.2876,16.8642 72.4595,14.9253 C 77.6314,12.9864 85.3887,11.0469 85.3887,11.0469 C 85.3887,11.0469 95.086,12.9864 99.6109,12.3399 C 104.1358,11.6934 112.5396,8.461 112.5396,8.461 C 112.5396,8.461 119.0044,11.6934 124.1758,5.2286 C 111.2466,1.3501 64.7021,8.4609 54.3589,18.1577 z"
   class="st4"
   style="fill:#d2edf3;stroke:#231f20;stroke-width:2" />

		<linearGradient
   y2="37.551601"
   x2="189.4684"
   y1="188.1792"
   x1="38.840801"
   gradientUnits="userSpaceOnUse"
   id="XMLID_3_">
			<stop
   id="stop7039"
   style="stop-color:#1C5A2D"
   offset="0.0225" />

			<stop
   id="stop7041"
   style="stop-color:#256132"
   offset="0.1485" />

			<stop
   id="stop7043"
   style="stop-color:#3C7544"
   offset="0.363" />

			<stop
   id="stop7045"
   style="stop-color:#58915F"
   offset="0.5843" />

			<stop
   id="stop7047"
   style="stop-color:#629866"
   offset="0.6644" />

			<stop
   id="stop7049"
   style="stop-color:#78AA79"
   offset="0.7981" />

			<stop
   id="stop7051"
   style="stop-color:#A2D09D"
   offset="0.9681" />

			<stop
   id="stop7053"
   style="stop-color:#A7D6A2"
   offset="0.9831" />

			<a:midPointStop
   style="stop-color:#1C5A2D"
   offset="0.0225" />

			<a:midPointStop
   style="stop-color:#1C5A2D"
   offset="0.59" />

			<a:midPointStop
   style="stop-color:#58915F"
   offset="0.5843" />

			<a:midPointStop
   style="stop-color:#58915F"
   offset="0.5946" />

			<a:midPointStop
   style="stop-color:#A7D6A2"
   offset="0.9831" />

		</linearGradient>

		<path
   id="path7055"
   d="M 97.6714,38.8442 C 97.6714,38.8442 109.3071,27.8545 114.479,31.0869 C 119.6509,34.3193 102.7793,50.4482 108.0146,53.0664 C 113.186,55.6523 116.4184,58.2378 116.4184,56.2983 C 116.4184,54.3588 124.4804,42.9882 126.7617,36.9047 C 128.7012,31.7333 132.4204,30.4403 137.7514,30.4403 C 140.9833,30.4403 138.3974,36.9047 142.9228,38.8441 C 147.4482,40.7835 131.2866,43.369 131.9331,49.1874 C 132.5796,55.0058 120.9438,57.5912 136.4585,54.3593 C 145.52,52.4716 143.5698,58.8842 141.6304,59.5307 C 134.6382,61.8613 134.5196,76.9848 129.9942,78.2778 C 125.4688,79.5708 115.126,83.4502 118.358,96.3789 C 121.59,109.3076 107.3687,89.9145 109.3077,83.4497 C 111.2467,76.9849 73.7524,100.2573 94.439,99.6108 C 115.1256,98.9643 104.1353,108.6611 102.1963,109.3076 C 100.2573,109.9541 110.6001,121.5898 122.8828,108.6611 C 135.1655,95.7324 148.0947,108.6616 157.7915,107.3686 C 167.4883,106.0756 169.4272,122.8837 164.2559,128.7016 C 159.0846,134.5195 170.7207,153.913 161.024,156.499 C 151.3273,159.085 139.691,163.6098 140.3375,173.3066 C 140.984,183.0034 127.4083,166.8422 128.7013,175.2461 C 129.9943,183.65 128.0543,188.1758 124.1759,190.7612 C 120.2975,193.3466 111.2467,201.7509 113.1862,186.8823 C 115.1257,172.0137 104.7824,173.3071 107.3683,157.1455 C 109.9542,140.9839 86.6813,162.9639 89.9137,135.8125 C 93.1461,108.6611 113.1862,133.8735 95.7321,116.4189 C 78.278,98.9643 72.4601,117.0654 68.5812,104.7827 C 64.7023,92.5 64.7023,109.9541 62.7628,110.6006 C 60.8233,111.2471 51.127,94.4395 45.3086,93.793 C 43.3691,85.3892 58.8838,75.6924 34.9653,72.46 C 19.4502,85.3892 31.0864,53.7129 36.2583,52.42 C 41.4302,51.1271 47.248,45.9556 65.3486,42.7232 C 83.4492,39.4908 87.9746,38.1978 97.6714,38.8442 z M 3.9355,109.3076 C 15.5717,108.6611 14.2788,98.3183 17.5107,90.5605 C 27.1069,67.5258 10.3999,75.0459 10.3999,75.0459 C 5.2285,91.207 4.582,98.3179 3.9355,109.3076 z M 36.9048,186.2358 C 44.6621,148.0947 27.854,163.6098 28.5005,155.206 C 29.147,146.8022 32.3794,144.2163 27.2075,132.58 C 19.4502,138.3984 13.6323,146.1557 12.9858,152.62 C 18.1577,168.1348 36.9048,186.2358 36.9048,186.2358 z M 190.1143,38.1978 C 184.2959,47.8946 190.7613,49.834 183.6499,50.4805 C 176.5385,51.127 180.417,69.2276 188.8213,67.9346 C 197.2256,66.6416 203.044,67.9351 199.8115,74.3994 C 196.579,80.8637 212.7402,80.8638 215.9726,85.3891 C 209.5078,61.4702 203.6895,54.3594 190.1143,38.1978 z M 215.9727,87.9746 C 208.8614,86.0356 216.6182,95.7324 202.3965,93.793 C 188.1748,91.8536 190.7608,94.4395 184.9424,103.4898 C 176.5386,102.1968 190.1148,119.0044 183.6499,130.6407 C 177.185,142.277 198.5186,139.0445 199.165,143.5699 C 199.8114,148.0953 203.6914,157.1451 199.8115,160.3775 C 195.9321,163.6099 197.2265,166.8423 198.5185,170.0748 C 208.8623,157.792 226.3154,116.4189 215.9727,87.9746 z M 143.5693,17.5112 C 143.5693,17.5112 153.9121,21.3896 153.2661,27.8545 C 152.6201,34.3194 166.1953,31.7329 166.1953,27.208 C 166.1953,22.6831 171.3667,23.3291 169.4277,20.7436 C 167.4882,18.1577 144.8623,6.5214 141.6303,8.4609 C 138.3983,10.4004 128.7011,7.1684 129.9941,11.6933 C 131.2871,16.2182 139.6904,20.0972 143.5693,17.5112 z"
   class="st0"
   style="fill:url(#XMLID_3_);stroke:#231f20;stroke-width:2" />

	</g>
      <g
         id="Layer_1_11_">
		<path
   id="path7058"
   d="M 110.9248,218.5596 C 3.9365,164.9023 31.7319,33.6709 89.9136,5.2285"
   class="st3"
   style="fill:none;stroke:#231f20;stroke-width:3;stroke-linecap:round;stroke-miterlimit:5;stroke-dasharray:10, 6, 8, 4" />

		<path
   id="path7060"
   d="M 111.5703,218.5576 C 166.1963,164.9023 172.0146,30.4399 91.854,2.6421"
   class="st3"
   style="fill:none;stroke:#231f20;stroke-width:3;stroke-linecap:round;stroke-miterlimit:5;stroke-dasharray:10, 6, 8, 4" />

		<path
   id="path7062"
   d="M 109.9648,218.6807 C 199.165,211.4473 279.6372,22.5605 92.4995,5.875"
   class="st3"
   style="fill:none;stroke:#231f20;stroke-width:3;stroke-linecap:round;stroke-miterlimit:5;stroke-dasharray:10, 6, 8, 4" />

		<path
   id="path7064"
   d="M 31.7329,186.2354 C 41.4297,166.8423 144.2158,100.2574 197.2256,177.1856"
   class="st3"
   style="fill:none;stroke:#231f20;stroke-width:3;stroke-linecap:round;stroke-miterlimit:5;stroke-dasharray:10, 6, 8, 4" />

		<path
   id="path7066"
   d="M 3.6631,131.812 C 30.44,91.207 142.2774,41.4302 219.2051,108.0146"
   class="st3"
   style="fill:none;stroke:#231f20;stroke-width:3;stroke-linecap:round;stroke-miterlimit:5;stroke-dasharray:10, 6, 8, 4" />

		<path
   id="path7068"
   d="M 6.249,77.5098 C 70.52,9.1074 173.3066,29.1475 196.5791,44.6626"
   class="st3"
   style="fill:none;stroke:#231f20;stroke-width:3;stroke-linecap:round;stroke-miterlimit:5;stroke-dasharray:10, 6, 8, 4" />

	</g>
    </g>
  </g>
  <style
     id="style7000"
     type="text/css">
	
		.st0{fill:url(#XMLID_3_);stroke:#231F20;stroke-width:2;}
		.st1{opacity:0.89;fill:url(#XMLID_2_);stroke:#231F20;stroke-width:2;}
		.st2{fill:url(#XMLID_1_);stroke:#231F20;stroke-width:4;stroke-linecap:round;}
		.st3{fill:none;stroke:#231F20;stroke-width:3;stroke-linecap:round;stroke-miterlimit:5;stroke-dasharray:10 6 8 4;}
		.st4{fill:#D2EDF3;stroke:#231F20;stroke-width:2;}
	
	</style>
</svg>
