<?xml version="1.0" encoding="UTF-8" standalone="no"?>
<svg
   xmlns:dc="http://purl.org/dc/elements/1.1/"
   xmlns:cc="http://creativecommons.org/ns#"
   xmlns:rdf="http://www.w3.org/1999/02/22-rdf-syntax-ns#"
   xmlns:svg="http://www.w3.org/2000/svg"
   xmlns="http://www.w3.org/2000/svg"
   xmlns:xlink="http://www.w3.org/1999/xlink"
   xmlns:sodipodi="http://sodipodi.sourceforge.net/DTD/sodipodi-0.dtd"
   xmlns:inkscape="http://www.inkscape.org/namespaces/inkscape"
   version="1.0"
   width="100%"
   height="100%"
   viewBox="0 0 125.5 125.5"
   id="svg7706"
   sodipodi:version="0.32"
   inkscape:version="0.46"
   sodipodi:docname="beach.svg"
   inkscape:output_extension="org.inkscape.output.svg.inkscape">
  <metadata
     id="metadata8303">
    <rdf:RDF>
      <cc:Work
         rdf:about="">
        <dc:format>image/svg+xml</dc:format>
        <dc:type
           rdf:resource="http://purl.org/dc/dcmitype/StillImage" />
      </cc:Work>
    </rdf:RDF>
  </metadata>
  <sodipodi:namedview
     inkscape:window-height="829"
     inkscape:window-width="1440"
     inkscape:pageshadow="2"
     inkscape:pageopacity="0.0"
     guidetolerance="10.0"
     gridtolerance="10.0"
     objecttolerance="10.0"
     borderopacity="1.0"
     bordercolor="#666666"
     pagecolor="#ffffff"
     id="base"
     showgrid="false"
     inkscape:zoom="2.8284271"
     inkscape:cx="31.986546"
     inkscape:cy="64.74168"
     inkscape:window-x="0"
     inkscape:window-y="25"
     inkscape:current-layer="svg7706"
     showguides="true"
     inkscape:guide-bbox="true" />
  <rect
     style="opacity:1;fill:#bed9fd;fill-opacity:1;fill-rule:nonzero;stroke:#020215;stroke-width:4;stroke-linecap:round;stroke-linejoin:round;marker:none;marker-start:none;marker-mid:none;marker-end:none;stroke-miterlimit:4;stroke-dasharray:none;stroke-dashoffset:0;stroke-opacity:1;visibility:visible;display:inline;overflow:visible;enable-background:accumulate"
     id="rect8570"
     width="122.55161"
     height="122.55161"
     x="1.7554506"
     y="1.9999987"
     rx="10.605186"
     ry="10.605184" />
  <path
     style="fill:#0005a4;fill-opacity:1;fill-rule:evenodd;stroke:none;stroke-width:1px;stroke-linecap:butt;stroke-linejoin:miter;stroke-opacity:1"
     d="M 4.6772089,111.8418 C 7.0987549,111.8418 7.5696129,110.17591 9.7119209,107.08009 C 11.458196,104.55657 10.817349,101.66119 15.018957,98.136825 C 19.812392,94.116025 27.84177,96.635025 27.883129,103.01344 C 27.908546,106.93314 25.152261,109.83402 22.169001,109.82132 C 19.404569,109.80956 16.436062,108.71178 16.476336,105.08741 C 16.521946,100.98237 19.306344,100.18219 21.100712,100.15474 C 24.889002,100.0972 25.089627,105.91142 22.165717,106.04031 C 19.89438,106.14043 19.273203,103.47263 20.70834,103.43384 C 21.745323,103.40581 20.754539,104.79373 21.66124,104.75109 C 22.125071,104.72927 22.446209,104.81097 22.361905,103.37779 C 22.249797,101.47198 18.430713,101.14399 18.494242,104.80714 C 18.531894,106.9615 21.270027,107.58635 22.108072,107.54964 C 24.720936,107.4352 25.596405,104.71957 25.556928,103.23766 C 25.488823,100.68102 23.801126,98.491595 20.360146,98.505835 C 17.215842,98.518855 14.706674,101.77913 14.57053,105.08741 C 14.517481,111.5262 18.982201,111.8418 27.960464,111.8418 L 27.960464,113.13102 L 4.6491799,113.13102 L 4.6772089,111.8418 z"
     id="path12857"
     sodipodi:nodetypes="cssssssssssssssccccc" />
  <path
     style="fill:#212235;fill-rule:evenodd;stroke:none;stroke-width:1px;stroke-linecap:butt;stroke-linejoin:miter;stroke-opacity:1;fill-opacity:1"
     d="M 41.881508,45.114901 L 42.398564,48.734291 L 45.500898,50.02693 L 66.958707,49.251346 L 81.953321,72.001795 L 84.5386,73.294434 L 100.82585,45.114901 L 89.967684,20.554758 L 85.572711,17.710952 L 43.174147,28.56912 L 41.881508,45.114901 z"
     id="path12783" />
  <path
     sodipodi:nodetypes="cccc"
     style="fill:#56ffff;fill-opacity:1;stroke:#4b4b4b;stroke-width:0.84652466000000004;stroke-linejoin:round;stroke-miterlimit:4;stroke-dasharray:none;stroke-opacity:1"
     d="M 7.1866381,26.892172 C 30.6841,10.260784 80.512628,13.964861 86.88891,18.442458 C 79.230178,17.878771 57.173559,22.524138 42.24655,48.265826 C 37.117096,36.467864 24.734339,26.983445 7.1866381,26.892172 z"
     id="path14" />
  <path
     sodipodi:nodetypes="cccc"
     style="fill:#8cff82;fill-opacity:1;stroke:#4b4b4b;stroke-width:0.84652466000000004;stroke-linejoin:round;stroke-miterlimit:4;stroke-dasharray:none;stroke-opacity:1"
     d="M 44.596399,49.608524 C 51.548609,38.189294 72.73754,19.316619 88.728502,18.970569 C 95.797029,31.895164 89.802403,59.444972 81.785248,71.552625 C 73.283071,60.343817 63.463669,50.452236 44.596399,49.608524 z"
     id="path16" />
  <path
     sodipodi:nodetypes="cccc"
     style="fill:#ff5b68;fill-opacity:1;stroke:#4b4b4b;stroke-width:0.84652466000000004;stroke-linejoin:round;stroke-miterlimit:4;stroke-dasharray:none;stroke-opacity:1"
     d="M 118.52016,94.6586 C 119.36232,67.431588 117.23449,40.85797 89.336165,19.953867 C 95.676163,28.935717 97.921576,51.897706 84.063791,73.16144 C 105.38941,73.98902 115.7422,85.906226 118.52016,94.6586 z"
     id="path18" />
  <use
     x="0"
     y="0"
     xlink:href="#path12857"
     id="use13303"
     transform="translate(23.29264,0)"
     width="125"
     height="125" />
  <use
     x="0"
     y="0"
     xlink:href="#use13303"
     id="use13305"
     transform="translate(23.29264,0)"
     width="125"
     height="125" />
  <use
     x="0"
     y="0"
     xlink:href="#use13305"
     id="use13307"
     transform="translate(23.29264,0)"
     width="125"
     height="125" />
  <path
     style="fill:#0005a4;fill-opacity:1;fill-rule:nonzero;stroke:none;stroke-width:1;stroke-linecap:round;stroke-linejoin:round;stroke-miterlimit:4;stroke-dashoffset:0;stroke-opacity:1;marker:none;marker-start:none;marker-mid:none;marker-end:none;visibility:visible;display:inline;overflow:visible;enable-background:accumulate"
     d="M 3.7202368,111.81508 L 122.31491,111.81508 L 122.31491,116.75 C 120.34432,120.22407 117.71519,122.60059 113.75,122.75033 L 12.186335,122.57903 C 7.9738019,122.54305 4.4985133,119.61442 3.7202368,115.00033 L 3.7202368,111.81508 z"
     id="rect13311"
     sodipodi:nodetypes="ccccccc" />
  <use
     x="0"
     y="0"
     xlink:href="#use13307"
     id="use13309"
     transform="translate(23.289048,0)"
     width="125"
     height="125" />
  <path
     style="fill:#8c4000;fill-opacity:1;fill-rule:nonzero;stroke:#321004;stroke-width:1;stroke-linecap:round;stroke-linejoin:round;marker:none;marker-start:none;marker-mid:none;marker-end:none;stroke-miterlimit:4;stroke-dashoffset:0;stroke-opacity:1;visibility:visible;display:inline;overflow:visible;enable-background:accumulate"
     d="M 63.651968,59.919425 C 65.268161,60.984616 67.076719,61.067879 65.552379,63.380732 L 33.827728,114.31235 C 32.303388,116.6252 29.775089,117.62963 28.158896,116.56445 C 26.542704,115.49925 26.468758,112.77975 27.993099,110.46689 L 59.717749,59.53528 C 61.242089,57.222427 62.035776,58.854234 63.651968,59.919425 z"
     id="rect12780"
     sodipodi:nodetypes="cccsccc" />
</svg>
