<?xml version="1.0" encoding="UTF-8" standalone="no"?>
<svg
   xmlns="http://www.w3.org/2000/svg"
   xmlns:xlink="http://www.w3.org/1999/xlink"
   version="1.0"
   width="100%"
   height="100%"
   viewBox="0 0 125.5 125.5"
   id="svg7706">
  <rect
     style="fill:#518dad;stroke:#020215;stroke-width:4;stroke-linecap:round;"
     id="rect8570"
     width="122.5"
     height="122.5"
     x="1.75"
     y="1.75"
     rx="10.5"
     ry="10.5" />
  <g
     id="cookie"
     transform="matrix(0.5660714,0.1942885,-0.1942885,0.5660714,170.31974,54.884292)">
    <path
       id="path13392"
       d="M -238.64854,113.33274 C -241.73223,113.33274 -258.00305,102.01903 -251.73001,67.370798 C -244.8118,29.159042 -188.79751,5.145401 -178.19091,4.7918476 C -174.30182,3.0240806 -169.36226,-6.2794132 -158.39192,-7.2289676 C -151.69476,-7.8086505 -142.25829,-0.60070283 -133.64318,4.7918476 C -122.19965,8.4166311 -85.913473,19.994643 -82.37794,63.128157 C -78.642484,109.07428 -130.4612,145.5061 -138.59293,145.5061 C -146.72466,145.5061 -174.30182,104.84746 -171.47339,76.916739 C -190.91883,82.927145 -215.88617,113.33274 -238.64854,113.33274 z"
       style="fill:#000000;fill-opacity:0.97424897;fill-rule:evenodd;stroke:#000000;stroke-width:1px;stroke-linecap:butt;stroke-linejoin:miter;stroke-opacity:1" />
    <path
       id="path13394"
       d="M -246.42671,76.916739 C -246.42671,76.916739 -231.01132,98.42388 -233.91976,101.53289 C -237.76465,105.64295 -246.20575,98.174136 -246.02897,91.54501 C -245.78393,82.355889 -246.91285,78.684506 -246.42671,76.916739 z"
       style="fill:#ffd09f;fill-opacity:1;fill-rule:evenodd;stroke:none;stroke-width:1px;stroke-linecap:butt;stroke-linejoin:miter;stroke-opacity:1" />
    <path
       id="path13396"
       d="M -228.3071,101.5329 C -223.86807,96.97621 -214.15242,94.153059 -204.97258,91.765982 C -195.75926,89.370198 -192.33304,77.447069 -181.01933,75.679302 C -169.70562,73.911535 -170.50112,71.171497 -170.50112,71.171497 C -170.23823,63.214066 -166.46474,49.445529 -163.69522,44.389827 C -170.73681,48.614902 -176.86509,56.410642 -180.75418,56.49903 C -175.89281,50.753788 -164.93108,41.301103 -159.09903,13.719071 C -157.74619,7.3209814 -149.55308,13.272145 -149.55308,19.64109 C -149.55308,19.64109 -149.11937,36.460738 -149.55309,37.31876 C -152.92335,43.986201 -185.57158,83.306939 -145.664,128.53553 C -143.40985,113.66004 -141.62883,105.69277 -112.2532,95.301516 C -97.511058,90.086671 -88.574339,38.679732 -122.68303,23.176624 C -118.2544,34.720351 -118.26361,36.2581 -118.61716,40.854294 C -120.71579,39.007504 -125.11081,31.365026 -127.27565,21.496219 C -129.55914,11.086526 -144.10663,-0.8650066 -153.79573,-0.33467651 C -166.50462,0.36094173 -167.58139,-7.2538003 -192.15626,36.434876 C -193.74725,39.263303 -196.39891,37.141983 -193.74725,32.722566 C -190.92337,28.016112 -183.49421,11.155808 -183.49421,11.155808 C -188.52093,12.882614 -232.64609,26.130655 -240.68147,66.884662 C -237.40315,75.818864 -239.3033,74.015598 -237.83353,76.209229 C -228.56005,90.049867 -228.56087,96.215641 -228.3071,101.5329 z"
       style="fill:#ffd09f;fill-opacity:1;fill-rule:evenodd;stroke:none;stroke-width:1px;stroke-linecap:butt;stroke-linejoin:miter;stroke-opacity:1" />
    <path
       id="path13398"
       d="M -130.10765,9.7415951 L -126.46856,16.39477 C -122.06927,19.962224 -76.010491,38.72798 -103.71614,92.680195 C -109.17039,103.32606 -129.03789,98.752562 -138.59293,121.11091 C -141.23642,127.29654 -143.97979,136.60784 -131.62541,133.21751 C -111.00316,127.55829 -79.347112,81.857733 -86.991901,55.764196 C -96.810237,22.251814 -129.75394,10.094834 -130.10765,9.7415951 z"
       style="fill:#ffd09f;fill-opacity:1;fill-rule:evenodd;stroke:none;stroke-width:1px;stroke-linecap:butt;stroke-linejoin:miter;stroke-opacity:1" />
  </g>
</svg>
