<?xml version="1.0" encoding="UTF-8" standalone="no"?>
<!-- Generator: Adobe Illustrator 19.0.0, SVG Export Plug-In . SVG Version: 6.00 Build 0)  -->

<svg
   version="1.1"
   id="Layer_1"
   x="0px"
   y="0px"
   viewBox="0 0 1400 980"
   style="enable-background:new 0 0 1400 980;"
   xml:space="preserve"
   sodipodi:docname="svg.svg"
   inkscape:version="1.1.2 (0a00cf5339, 2022-02-04)"
   xmlns:inkscape="http://www.inkscape.org/namespaces/inkscape"
   xmlns:sodipodi="http://sodipodi.sourceforge.net/DTD/sodipodi-0.dtd"
   xmlns="http://www.w3.org/2000/svg"
   xmlns:svg="http://www.w3.org/2000/svg"><defs
   id="defs555" /><sodipodi:namedview
   id="namedview553"
   pagecolor="#505050"
   bordercolor="#ffffff"
   borderopacity="1"
   inkscape:pageshadow="0"
   inkscape:pageopacity="0"
   inkscape:pagecheckerboard="1"
   showgrid="false"
   inkscape:zoom="0.76020408"
   inkscape:cx="700.4698"
   inkscape:cy="490"
   inkscape:window-width="3440"
   inkscape:window-height="1369"
   inkscape:window-x="0"
   inkscape:window-y="34"
   inkscape:window-maximized="1"
   inkscape:current-layer="Layer_1" />
<style
   type="text/css"
   id="style2">
	.st0{fill:#EFEFEF;}
	.st1{fill:#F4C940;}
	.st2{fill:#B3D684;}
	.st3{fill:#F89D1F;}
	.st4{fill:#15A797;}
	.st5{fill:#F06367;}
	.st6{fill:#556772;}
</style>
<rect
   class="st0"
   width="1400"
   height="980"
   id="rect4" />
<g
   id="g550">
	<circle
   class="st1"
   cx="354.9"
   cy="674.8"
   r="138.7"
   id="circle6" />
	<circle
   class="st2"
   cx="1045.1"
   cy="674.7"
   r="138.7"
   id="circle8" />
	<circle
   class="st3"
   cx="700"
   cy="674.7"
   r="138.7"
   id="circle10" />
	<circle
   class="st4"
   cx="354.9"
   cy="294.6"
   r="138.7"
   id="circle12" />
	<circle
   class="st5"
   cx="1045.1"
   cy="294.6"
   r="138.7"
   id="circle14" />
	<circle
   class="st6"
   cx="700"
   cy="294.6"
   r="138.7"
   id="circle16" />
	<g
   id="g74">
		<g
   id="g20">
			<path
   class="st0"
   d="M321.1,205.4c4.7,50.1,26.3,97,47.9,141.8c16.6,34.4,41.5,74.1,82.8,80.4c2.9,0.4,4.1-3.4,1.2-4.4     c-41.2-14.7-62.5-44.4-81.2-82.5c-10.2-20.8-20.1-41.7-28.3-63.4c-8.9-23.5-14-47.9-20.3-72.1     C322.9,203.9,320.9,204.1,321.1,205.4L321.1,205.4z"
   id="path18" />
		</g>
		<g
   id="g24">
			<path
   class="st0"
   d="M317.9,204.6c0.2,17.5-11.4,26.8-20.4,40c-7.2,10.4-11.4,22-15.2,34c-7.3,22.5-10.4,42.2-0.9,64.7     c7.2,17.2,22.4,32.7,39.7,39.8c8.9,3.7,20.5,7.5,30.4,5.7c13.1-2.4,23.3-10.3,37.1-10.1c2.1,0,2.4-3,0.5-3.6     c-7.3-2.3-13.1-0.7-20.1,2.2c-12.5,5.2-20.9,7.9-34.6,5.1c-25.9-5.3-45.4-27.9-52.6-52.4c-7-24.1,4.4-54.4,15.4-75.9     c8.6-16.9,27.1-28.8,22.9-49.9C319.7,203.2,317.9,203.5,317.9,204.6L317.9,204.6z"
   id="path22" />
		</g>
		<g
   id="g28">
			<path
   class="st0"
   d="M318.9,204c5.6,15.4,24.6,18.2,38.7,20.9c26.4,5,57.5,11.8,74.7,34.3c14.3,18.7,12.4,45.8,5.3,66.8     c-3.9,11.5-10.5,21.9-19,30.5c-9.5,9.6-21.7,11-33.3,16.2c-3.6,1.6-0.5,6.7,3.1,5.2c11.8-5,21.8-6.4,31.8-14.8     c7.8-6.4,13.5-15.4,18-24.3c9.6-18.8,12-41.5,7.4-61.9c-5-22.5-23.1-36.5-43.5-44.9c-12.5-5.2-26.5-8.1-39.7-10.9     c-14.9-3.2-32.5-4-41.9-17.7C320,202.6,318.5,203,318.9,204L318.9,204z"
   id="path26" />
		</g>
		<g
   id="g32">
			<path
   class="st0"
   d="M344.6,220.8c-0.4,13.7-5.7,24.8-11.2,37c-0.9,1.9,1.5,4.1,3.1,2.4c9.3-10.1,13.1-26,11.7-39.4     C348,218.5,344.7,218.4,344.6,220.8L344.6,220.8z"
   id="path30" />
		</g>
		<g
   id="g36">
			<path
   class="st0"
   d="M363,224.3c11.4,21.3,2.2,52.9-13.9,69.5c-2.8,2.9,1.6,7.3,4.4,4.4c16.2-16.7,28.2-55.4,10.3-74.5     C363.4,223.3,362.8,223.8,363,224.3L363,224.3z"
   id="path34" />
		</g>
		<g
   id="g40">
			<path
   class="st0"
   d="M383.1,234.1c8.5,37.4,3.8,71.2-12.8,105.6c-1.8,3.8,3.3,6.9,5.6,3.3c20.1-31.2,23.4-75.4,9.8-109.6     C385.1,231.8,382.7,232.3,383.1,234.1L383.1,234.1z"
   id="path38" />
		</g>
		<g
   id="g44">
			<path
   class="st0"
   d="M410.5,243.8c5.6,23.7,3.4,46.4-3.3,69.7c-5.9,20.2-17.4,38-23.9,57.8c-0.9,2.7,3,5.1,4.9,2.8     c13.9-17.1,21.9-42.6,27.4-63.6c5.7-22.1,7.7-46.7-2.3-67.8C412.5,241.1,410.2,242.3,410.5,243.8L410.5,243.8z"
   id="path42" />
		</g>
		<g
   id="g48">
			<path
   class="st0"
   d="M411.1,323.3c14,1.5,35-12,35.1-27.3c0-1.8-2.8-2.8-3.6-1c-3.1,7.2-5.7,12.8-12.2,17.7     c-5.9,4.5-12.7,5.8-19.7,7.7C409.1,320.9,409.6,323.2,411.1,323.3L411.1,323.3z"
   id="path46" />
		</g>
		<g
   id="g52">
			<path
   class="st0"
   d="M304.2,239.6c7.9,8.9,17.9,14.7,29.7,16.9c2.2,0.4,3.2-2.9,1-3.5c-11.2-2.7-20.4-7.2-28.6-15.5     C304.9,236.2,302.9,238.2,304.2,239.6L304.2,239.6z"
   id="path50" />
		</g>
		<g
   id="g56">
			<path
   class="st0"
   d="M297.4,247c8,21,26.8,37,47.4,45.4c3.2,1.3,5.1-3.8,2.3-5.4c-8.9-5.2-17.8-9.6-25.9-16.2     c-8.5-7-14.8-16-21.4-24.7C299,244.9,296.8,245.5,297.4,247L297.4,247z"
   id="path54" />
		</g>
		<g
   id="g60">
			<path
   class="st0"
   d="M288.8,265.9c14.9,26,32.1,56,65.8,55.7c3.8,0,3.8-5.9,0-5.9c-33.2,0.5-45.1-29.8-63.8-51.3     C289.8,263.3,288.1,264.7,288.8,265.9L288.8,265.9z"
   id="path58" />
		</g>
		<g
   id="g64">
			<path
   class="st0"
   d="M281.1,288.3c18.5,39.7,60.7,79.1,105,85.6c3.5,0.5,5-4.8,1.5-5.4c-46.5-6.8-79.4-45.1-105.2-81     C281.8,286.8,280.7,287.4,281.1,288.3L281.1,288.3z"
   id="path62" />
		</g>
		<g
   id="g68">
			<path
   class="st0"
   d="M282.7,342.4c14,10.1,35,13.7,51.5,7.8c2.7-0.9,2.4-5.1-0.7-5.1c-7.5,0.1-14.9,1.6-22.5,1.5     c-9.6-0.2-18.3-2.5-27-6.5C282.5,339.4,281.3,341.4,282.7,342.4L282.7,342.4z"
   id="path66" />
		</g>
		<g
   id="g72">
			<path
   class="st0"
   d="M306.3,369.3c15,11.7,49.2,12.8,62.5-2.5c2.5-2.8-1.7-7-4.1-4.1c-12,13.8-42.2,11.2-57.6,5.4     C306.3,367.8,305.7,368.9,306.3,369.3L306.3,369.3z"
   id="path70" />
		</g>
	</g>
	<g
   id="g164">
		<g
   id="g78">
			<path
   class="st0"
   d="M384.3,670c-21.9,15.6-42.3,32-58.8,53.5C307.5,747,298,772.3,285,798.2c-1.2,2.3-4.7,1.3-4.3-1.3     c3.8-25.9,21.9-52.4,38.1-72.3c17.7-21.9,39.3-43.5,64.7-56.3C384.4,667.8,385.2,669.4,384.3,670L384.3,670z"
   id="path76" />
		</g>
		<g
   id="g82">
			<path
   class="st0"
   d="M418.8,628.2c4.4,17.9-20,37.3-36.4,36.9c-2.1-0.1-3.3-3.2-0.9-3.9c17.1-5.3,32.4-13.2,34.9-32.7     C416.5,627.3,418.5,627,418.8,628.2L418.8,628.2z"
   id="path80" />
		</g>
		<g
   id="g86">
			<path
   class="st0"
   d="M418.2,631.3c-13.7,8.5-26.3,18.1-32.8,33.3c-1.4,3.3-6.5,0.9-5.1-2.3c7.2-16.1,20.4-27.2,37-32.7     C418.4,629.2,419.2,630.7,418.2,631.3L418.2,631.3z"
   id="path84" />
		</g>
		<g
   id="g90">
			<path
   class="st0"
   d="M369.1,623.7c16.5,8,10.3,34.4,4.9,47.2c-1.2,2.9-5.4,0.9-4.4-2c2.4-6.9,4.3-13.9,4.9-21.2     c0.7-8.9-2.2-15-6.9-22.2C367,624.5,368,623.2,369.1,623.7L369.1,623.7z"
   id="path88" />
		</g>
		<g
   id="g94">
			<path
   class="st0"
   d="M369.9,670.9c-8.9-10.8-10.8-30.7-4-42.9c0.6-1.1,2.5-0.6,2.2,0.7c-4.1,13.9-2.1,28.2,3.7,41.3     C372.3,671.1,370.6,671.8,369.9,670.9L369.9,670.9z"
   id="path92" />
		</g>
		<g
   id="g98">
			<path
   class="st0"
   d="M430.5,688.3c-19-4.1-34.5-12.5-54.2-6.4c-3.1,1-4.6-3.3-1.7-4.6c19.3-8.8,38.5,2.3,56.6,9     C432.3,686.7,431.7,688.6,430.5,688.3L430.5,688.3z"
   id="path96" />
		</g>
		<g
   id="g102">
			<path
   class="st0"
   d="M374.8,680.5c8.4,1.8,16.2,5.1,24.7,6.5c10.6,1.7,21.1-0.7,31.7-0.5c1.3,0,1.8,1.7,0.5,2.2     c-17.2,7.1-43.4,6.4-57.4-7.1C374,681.1,374.2,680.4,374.8,680.5L374.8,680.5z"
   id="path100" />
		</g>
		<g
   id="g106">
			<path
   class="st0"
   d="M303,668.7c7.3,3.9,13.1,15.5,17,22.5c4.3,7.9,8.6,17.3,6.3,26.6c-0.6,2.2-4,2.4-4.2-0.1     c-0.7-10.4-1.6-19.2-6.9-28.5c-3.6-6.4-11.1-12.7-13.1-19.7C302,669,302.5,668.4,303,668.7L303,668.7z"
   id="path104" />
		</g>
		<g
   id="g110">
			<path
   class="st0"
   d="M390.3,733c-23-6.7-43.8-11.9-67.1-3.3c-3.3,1.2-4.8-3.4-1.8-4.9c21.9-11,48.5-3.3,69.5,6.2     C391.9,731.5,391.4,733.3,390.3,733L390.3,733z"
   id="path108" />
		</g>
		<g
   id="g114">
			<path
   class="st0"
   d="M341,650.3c1,16.2-6.8,30.1-21.9,37c-2.1,0.9-3.8-2.3-1.9-3.6c12-7.5,22.3-18.6,23.4-33.5     C340.6,650,341,650.1,341,650.3L341,650.3z"
   id="path112" />
		</g>
		<g
   id="g118">
			<path
   class="st0"
   d="M342.5,654.5c-13.2,2.7-19.2,13.4-23.4,25c-0.9,2.4-4.6,1.1-4.2-1.3c2.4-13.6,13.6-25,27.3-27.1     C344.4,650.8,344.6,654,342.5,654.5L342.5,654.5z"
   id="path116" />
		</g>
		<g
   id="g122">
			<path
   class="st0"
   d="M298.5,666.9c-1.3-7.6-3.1-14.4-7.1-21.1c-4.1-6.9-10.6-11.3-15.9-17c-1-1.1-0.1-2.9,1.5-2.3     c14.5,5.8,25.3,25.1,23.2,40.5C300.1,668,298.7,667.8,298.5,666.9L298.5,666.9z"
   id="path120" />
		</g>
		<g
   id="g126">
			<path
   class="st0"
   d="M278.8,626.2c-4.4,8.2-2.8,16.5,2,24.2c4.2,6.8,10.5,10.4,15.9,15.8c1.6,1.6,0,3.9-2,3.2     c-8-2.7-15.7-12.4-19.4-19.7c-4.2-8.5-4.8-17.3,1-25.1C277.3,623.2,279.6,624.7,278.8,626.2L278.8,626.2z"
   id="path124" />
		</g>
		<g
   id="g130">
			<path
   class="st0"
   d="M315.2,692.8c-8.9,15.6-41.5,10.6-49.3-4c-1.2-2.1,1.5-4,3.1-2.2c9.8,11.2,33,16.8,44.5,5.1     C314.3,691,315.8,691.8,315.2,692.8L315.2,692.8z"
   id="path128" />
		</g>
		<g
   id="g134">
			<path
   class="st0"
   d="M266.5,685.1c15.4-6.9,36.1-5.3,50.8,2.8c2.4,1.3,0.8,4.6-1.8,3.8c-9.3-3-18.2-5.2-28-5.5     c-7-0.2-13.9,0.5-20.9-0.1C266,686.1,266.1,685.3,266.5,685.1L266.5,685.1z"
   id="path132" />
		</g>
		<g
   id="g138">
			<path
   class="st0"
   d="M372.2,723.6c-1,0.3-1.7,0.2-2.7-0.2c-0.3-0.1-0.1-0.5,0.2-0.4c0.8,0.4,1.4,0.6,2.4,0.3     C372.2,723.3,372.4,723.6,372.2,723.6L372.2,723.6z"
   id="path136" />
		</g>
		<g
   id="g142">
			<path
   class="st0"
   d="M370.1,722.6c1.5-3.7,3.6-7,5.7-10.3c3.4-5.2,5.1-9.7,6.3-15.8c0.3-1.4,2.3-1.7,2.8-0.3     c3.7,10.4-7.2,19.5-10.8,28.2C373,727.1,369,725.2,370.1,722.6L370.1,722.6z"
   id="path140" />
		</g>
		<g
   id="g146">
			<path
   class="st0"
   d="M384.1,696.3c-4.3,3.1-9.1,6.2-12.9,10c-6.4,6.2-3.8,13.2-1,20.4c0.7,1.8-1.8,3.1-2.9,1.5     c-11.1-15.5,2.2-27.6,16.5-32.6C384.2,695.5,384.5,696,384.1,696.3L384.1,696.3z"
   id="path144" />
		</g>
		<g
   id="g150">
			<path
   class="st0"
   d="M390.9,731.3c2.9-8.2,14.8-6.7,21.1-4.6c8.4,2.7,19.7,8.1,23.2,16.9c1.1,2.7-2.7,4.5-4.4,2.3     c-7.3-10.1-26.1-21.6-37.7-12.6C391.8,734.2,390.4,732.6,390.9,731.3L390.9,731.3z"
   id="path148" />
		</g>
		<g
   id="g154">
			<path
   class="st0"
   d="M434.4,746.9c-13.5,6.5-35.5,4.1-42-11.3c-1-2.4,2.8-4.5,4.1-2.1c6.9,12.5,24.3,14.9,37.1,11.3     C435,744.3,435.7,746.2,434.4,746.9L434.4,746.9z"
   id="path152" />
		</g>
		<g
   id="g158">
			<path
   class="st0"
   d="M367,728c21,2.2,25.5,37.6,19.3,52.8c-1,2.4-4.2,1-4-1.2c0.6-9.6,1.9-18.3-0.4-27.9     c-2.4-10.3-8-15.4-15.8-21.8C365.2,729.2,366,727.9,367,728L367,728z"
   id="path156" />
		</g>
		<g
   id="g162">
			<path
   class="st0"
   d="M385.7,780.9c-16.5-7.6-41.1-35.4-22-52.3c1.2-1.1,3.1,0.6,2.4,2c-5.4,10.3-5.5,18.1,1,28     c5.3,8.1,13.3,14,18.9,21.9C386.3,780.7,386,781,385.7,780.9L385.7,780.9z"
   id="path160" />
		</g>
	</g>
	<g
   id="g238">
		<g
   id="g168">
			<path
   class="st0"
   d="M646.6,593.5c41.7,29.8,72.5,73.8,96.1,118.7c1.4,2.7-2.6,5-4,2.4c-24.1-45.9-54.6-85-93.4-119.3     C644.3,594.4,645.6,592.7,646.6,593.5L646.6,593.5z"
   id="path166" />
		</g>
		<g
   id="g172">
			<path
   class="st0"
   d="M646.6,594.9c-5.8,20.2-2.5,46.4-3.5,67.3c-1.2,24.7,3.3,46.7,13.4,69c6.6,14.7,19.5,39.9,39.2,35.9     c24.6-5,24.8-43.4,40.8-58.8c2.3-2.2,5.8,1.3,3.5,3.5c-18.4,17.4-15.4,51.9-42.7,61.2c-17.2,5.9-31.7-15.1-38.9-27.2     c-10.9-18.4-17-39.5-19.1-60.7c-1.8-18.7,2-37.2,2.2-55.9c0.2-11.4-1.9-24.2,2.2-35.1C644.5,592.4,647.2,593,646.6,594.9     L646.6,594.9z"
   id="path170" />
		</g>
		<g
   id="g176">
			<path
   class="st0"
   d="M645.2,593.3c53.2-1.7,110.5,21,143.6,63.3c7.8,9.9,19.2,27.3,13,40.6c-10.7,23.5-41.5,12.6-60.5,17.7     c-3.1,0.8-4.4-3.9-1.3-4.7c17.4-4.6,51.4,6.6,58.9-16.7c4.9-15.2-12.7-34.5-21.8-44.4c-33.4-36.3-84.6-48.6-131.9-53.5     C643.7,595.5,643.6,593.3,645.2,593.3L645.2,593.3z"
   id="path174" />
		</g>
		<g
   id="g180">
			<path
   class="st0"
   d="M683.2,635c-16.3-1.8-34,7.9-42.1,21.9c-1,1.7-4,0.5-3.2-1.4c6.2-15.3,29.7-27.7,45.6-22.2     C684.3,633.6,684.3,635.1,683.2,635L683.2,635z"
   id="path178" />
		</g>
		<g
   id="g184">
			<path
   class="st0"
   d="M680.8,634.2c-6.3-1.2-12.4-1.5-18.9-1.1c-6.6,0.4-11.9,3.2-18,5.3c-1,0.3-1.8-1.1-1.1-1.8     c10-9.3,26.3-6.3,38-2.6C681,634,680.9,634.3,680.8,634.2L680.8,634.2z"
   id="path182" />
		</g>
		<g
   id="g188">
			<path
   class="st0"
   d="M688.3,630.2c-2.2-6.5,6.2-10.5,11-12.5c8.2-3.4,18.1-4.3,26.9-3.2c1.1,0.1,1.2,1.8,0,1.8     c-10.6,0-32.4,2.2-36.6,13.8C689.3,630.8,688.5,630.8,688.3,630.2L688.3,630.2z"
   id="path186" />
		</g>
		<g
   id="g192">
			<path
   class="st0"
   d="M691.2,627.1c-4.5-2.8,1.3-10.1,3.6-12.3c4.4-4.3,11.3-7.9,17.3-9.1c1-0.2,1.6,1.1,0.7,1.7     c-4.1,2.7-8.8,4.5-12.8,7.3c-2.4,1.7-4.7,3.7-6.3,6.2c-1.2,1.8-0.9,4.3-2.1,6C691.5,627.1,691.3,627.2,691.2,627.1L691.2,627.1z"
   id="path190" />
		</g>
		<g
   id="g196">
			<path
   class="st0"
   d="M710.8,652.7c9.5-11.4,20.7-23.8,35.4-28.3c0.9-0.3,1.4,1,0.6,1.4c-13.6,7.3-22.8,18.6-34.4,28.4     C711.2,655.2,709.8,653.8,710.8,652.7L710.8,652.7z"
   id="path194" />
		</g>
		<g
   id="g200">
			<path
   class="st0"
   d="M710.2,654.8c8.7-14.9,42.2-24.8,57.7-17.7c1,0.5,0.5,2.3-0.6,2.2c-20.5-2.2-39.4,5.2-56.3,16.4     C710.5,656,709.9,655.3,710.2,654.8L710.2,654.8z"
   id="path198" />
		</g>
		<g
   id="g204">
			<path
   class="st0"
   d="M705.3,661.7c-26.2,6.1-45.8,37.3-49.5,62.7c-0.3,2.3-3.8,1.3-3.5-1c3.4-23.9,24.8-63.1,52.7-63.5     C706.1,659.9,706.3,661.4,705.3,661.7L705.3,661.7z"
   id="path202" />
		</g>
		<g
   id="g208">
			<path
   class="st0"
   d="M704.3,662.3c-25.5,2.5-43.1,17.8-57.1,38c-0.8,1.1-2.8,0.5-2.4-1c6.6-22.2,36.7-42,59.6-38.3     C705.2,661.1,704.9,662.2,704.3,662.3L704.3,662.3z"
   id="path206" />
		</g>
		<g
   id="g212">
			<path
   class="st0"
   d="M722.3,689.3c-23.1,18.7-31.4,49.9-32.2,78.2c0,1.4-1.8,1.5-2.3,0.3c-9.1-24.8,12.8-66.5,32.7-80.8     C721.9,686.1,723.6,688.3,722.3,689.3L722.3,689.3z"
   id="path210" />
		</g>
		<g
   id="g216">
			<path
   class="st0"
   d="M723,686.4c-28.9,9.6-38.4,41.9-48.1,67c-0.5,1.3-2.9,1.3-2.7-0.4c2.9-28.1,23.1-59.3,50.6-67.6     C723.4,685.2,723.6,686.2,723,686.4L723,686.4z"
   id="path214" />
		</g>
		<g
   id="g220">
			<path
   class="st0"
   d="M731,680.1c23.6-1.7,51.9-6.8,73.5,5.3c1.4,0.8,0.5,3.2-1.1,2.7c-24.6-8.4-47.3-3.7-72.4-6.2     C729.8,681.8,729.8,680.2,731,680.1L731,680.1z"
   id="path218" />
		</g>
		<g
   id="g224">
			<path
   class="st0"
   d="M792.4,670.7c-22.9,2.5-46.2,2.3-66.4,14.8c-1.5,1-2.9-1.4-1.4-2.4c18.5-12.9,46-14.9,67.8-12.7     C792.6,670.4,792.6,670.6,792.4,670.7L792.4,670.7z"
   id="path222" />
		</g>
		<g
   id="g228">
			<path
   class="st0"
   d="M726.9,694.3c6.3,6.9,10.8,15.9,14.7,24.3c4.7,10.1,8.6,20.5,12.3,31c7.3,20.5,12.4,41.7,16.3,63.1     c0.6,3.5,5.7,1.9,5.2-1.4c-3.2-22.5-9.2-44.6-16.9-66.1c-3.7-10.4-7.9-20.6-13-30.4c-4.6-8.7-9.6-16.1-17.5-21.9     C727.1,692.3,726.2,693.6,726.9,694.3L726.9,694.3z"
   id="path226" />
		</g>
		<g
   id="g232">
			<path
   class="st0"
   d="M734.6,703.5c0,0.4,0,0.7,0,1.1c0,0.1,0.1,0.1,0.1,0C734.7,704.2,734.7,703.9,734.6,703.5     C734.7,703.4,734.6,703.4,734.6,703.5L734.6,703.5z"
   id="path230" />
		</g>
		<g
   id="g236">
			<path
   class="st0"
   d="M733.3,704.5c3.7,7.8,6,16.1,8.1,24.4c2.3,8.9,4.7,17.7,6.8,26.7c4.9,20.6,8.9,41.4,11.5,62.5     c0.3,2.7,4.6,2.8,4.3,0c-2.1-20.9-6.5-41.6-11.3-62.1c-2.2-9.4-4.8-18.8-7.4-28.1c-2.3-8.5-5.2-17-10.5-24.2     C734.2,702.6,732.8,703.4,733.3,704.5L733.3,704.5z"
   id="path234" />
		</g>
	</g>
	<g
   id="g308">
		<g
   id="g242">
			<path
   class="st0"
   d="M1110.2,639.5c-13.7,12.5-30.1,21.4-44.4,33.2c-1.4,1.2-3.5-0.9-2-2c14.5-11.7,30.5-21.5,46.2-31.5     C1110.1,639.1,1110.4,639.4,1110.2,639.5L1110.2,639.5z"
   id="path240" />
		</g>
		<g
   id="g246">
			<path
   class="st0"
   d="M1061.6,623.2c0.6,17,0.4,34.1,2,51c0.2,1.7-2.5,1.7-2.6,0c-1.3-17.1-0.3-33.9,0.4-51     C1061.4,623.1,1061.6,623.1,1061.6,623.2L1061.6,623.2z"
   id="path244" />
		</g>
		<g
   id="g250">
			<path
   class="st0"
   d="M1065.1,671.8c-4.4,23.5-23.6,43.1-34.4,63.8c-1,1.9-3.9,0.2-2.9-1.7c11.8-21.2,25.8-40.7,36.8-62.4     C1064.7,671.3,1065.1,671.5,1065.1,671.8L1065.1,671.8z"
   id="path248" />
		</g>
		<g
   id="g254">
			<path
   class="st0"
   d="M1054.9,614.5c-4.9,18-22.6,29.1-30,46c-0.9,2-3.8,0.3-2.9-1.7c7.5-17,23.9-27.9,31.6-44.8     C1054,613.2,1055.2,613.7,1054.9,614.5L1054.9,614.5z"
   id="path252" />
		</g>
		<g
   id="g258">
			<path
   class="st0"
   d="M1024.3,661.2c-11.9-12.7-16.2-35.9-17.9-52.5c-0.1-1.1,1.5-1.2,1.8-0.2c5.7,17.5,8.9,35.1,17.9,51.4     C1026.7,661,1025.2,662.2,1024.3,661.2L1024.3,661.2z"
   id="path256" />
		</g>
		<g
   id="g262">
			<path
   class="st0"
   d="M1025.5,658c-1.7,26.4,4.7,52.3,3.4,78.5c-0.1,1.4-2.4,1.9-2.6,0.3c-3.7-24.9-9.5-54.4-3.1-79.1     C1023.5,656.4,1025.6,656.7,1025.5,658L1025.5,658z"
   id="path260" />
		</g>
		<g
   id="g266">
			<path
   class="st0"
   d="M1032.2,608.5c1,4.3,1.4,8.6,1.9,13c0.7,5.8,2,11.4,2.7,17.1c0.2,1.4-2,1.5-2.4,0.3     c-3.2-9-4.2-20.7-3.5-30.2C1031,608,1032.1,607.7,1032.2,608.5L1032.2,608.5z"
   id="path264" />
		</g>
		<g
   id="g270">
			<path
   class="st0"
   d="M1089.2,628.9c-0.1,8.4-0.3,16.7-0.9,25.1c-0.1,1.1-1.7,1.1-1.8,0c-0.5-8.5,0.8-16.8,2.3-25.1     C1088.9,628.6,1089.2,628.7,1089.2,628.9L1089.2,628.9z"
   id="path268" />
		</g>
		<g
   id="g274">
			<path
   class="st0"
   d="M1001.3,607.9c-2.2,21-7.9,41.9-12.6,62.5c-0.2,1-1.7,0.6-1.5-0.4c3.5-20.8,8.7-41.5,13.3-62.2     C1000.5,607.2,1001.4,607.4,1001.3,607.9L1001.3,607.9z"
   id="path272" />
		</g>
		<g
   id="g278">
			<path
   class="st0"
   d="M977.1,605.3c4.3,19.6,9.4,40.7,10.2,60.8c0.1,1.2-1.8,1.4-2,0.3c-4.3-19.4-9.8-41-9.2-60.9     C976.1,604.9,977,604.7,977.1,605.3L977.1,605.3z"
   id="path276" />
		</g>
		<g
   id="g282">
			<path
   class="st0"
   d="M960.8,619.3c6.7,4.3,14,8.2,19.9,13.6c1,0.9-0.4,2.8-1.5,1.9c-6.4-4.8-13.3-9-19.4-14.2     C959.1,620,960.1,618.8,960.8,619.3L960.8,619.3z"
   id="path280" />
		</g>
		<g
   id="g286">
			<path
   class="st0"
   d="M945.9,623.2c15.2,16.2,32.1,30.4,47.3,46.5c0.5,0.6-0.3,1.4-0.9,0.9c-15.7-15.7-36.4-26.6-48.3-45.9     C943.3,623.5,945,622.2,945.9,623.2L945.9,623.2z"
   id="path284" />
		</g>
		<g
   id="g290">
			<path
   class="st0"
   d="M991.8,669.2c5.3,27,22.9,43.5,36.7,66c0.7,1.1-0.8,2.1-1.7,1.3c-10.1-8.8-18.1-21.4-25.1-32.6     c-6.3-10.2-12.3-22.2-11.2-34.4C990.6,668.7,991.6,668.4,991.8,669.2L991.8,669.2z"
   id="path288" />
		</g>
		<g
   id="g294">
			<path
   class="st0"
   d="M1124,653.4c-13.7,16.4-25.1,34.9-40.9,49.5c-15.1,13.9-35.5,24-54,32.5c-1.8,0.8-3.3-1.6-1.6-2.7     c17.2-11.7,36.4-19.3,52.6-32.7c16.4-13.6,27.5-32.7,43.3-47C1123.9,652.6,1124.3,653.1,1124,653.4L1124,653.4z"
   id="path292" />
		</g>
		<g
   id="g298">
			<path
   class="st0"
   d="M1139.3,664.9c-9.1,3-18.9,3.5-28.4,4c-1.6,0.1-1.5-2.3,0-2.4c9.4-0.9,18.8-1.1,28.2-2.5     C1139.6,664,1139.9,664.7,1139.3,664.9L1139.3,664.9z"
   id="path296" />
		</g>
		<g
   id="g302">
			<path
   class="st0"
   d="M1150.6,677.6c-16.6,12.7-38.7,23-60,23.2c-2,0-1.9-2.9,0-3c20.8-1.2,42.2-9.6,59.7-20.5     C1150.6,677.1,1150.8,677.4,1150.6,677.6L1150.6,677.6z"
   id="path300" />
		</g>
		<g
   id="g306">
			<path
   class="st0"
   d="M1026.6,731.6c-1.2,7-3.3,13.3-5.8,19.9c-2.9,7.6-5.3,15.4-8.3,23c-6.2,15.4-13.9,30.6-18.4,46.7     c-0.7,2.4,3.1,4.2,4.2,1.8c6.6-15.5,12.5-31.5,18.3-47.3c3-8,5.1-16.3,8-24.3c2.2-6.1,5.3-13.1,3.6-19.7     C1027.9,730.9,1026.7,730.8,1026.6,731.6L1026.6,731.6z"
   id="path304" />
		</g>
	</g>
	<g
   id="g450">
		<g
   id="g312">
			<path
   class="st0"
   d="M1083.8,403.2c8.2-29.7-5.3-59.6-18.7-85.7c-17.9-34.9-37.3-71.4-62.5-101.6c-1.4-1.7-3.9,0.1-2.8,2     c18.2,31.4,39.9,60.6,57.1,92.7c15.8,29.5,29.3,57.9,24.9,92.2C1081.7,404.2,1083.5,404.4,1083.8,403.2L1083.8,403.2z"
   id="path310" />
		</g>
		<g
   id="g316">
			<path
   class="st0"
   d="M980.2,376.8c31.8-2.7,67-23.7,86.8-48.2c1.4-1.8-1.2-3.8-2.7-2.2c-23.4,25.5-52.7,37.4-84.7,48     C978.2,374.8,978.8,376.9,980.2,376.8L980.2,376.8z"
   id="path314" />
		</g>
		<g
   id="g320">
			<path
   class="st0"
   d="M941.8,289.9c22.8,8.5,44.9,17.2,67.1,27.4c18.8,8.7,38.9,14.7,59.8,14.7c2.8,0,2.8-4.8,0.1-4.9     c-24.3-0.9-46.4-8.2-68.6-17.7c-18.6-7.9-37.6-18.3-57.8-21.3C941.3,288,940.8,289.5,941.8,289.9L941.8,289.9z"
   id="path318" />
		</g>
		<g
   id="g324">
			<path
   class="st0"
   d="M1004,280.6c11.1,8.1,30.2,13.5,43.7,10c1.7-0.4,0.8-2.8-0.7-2.8c-8.6,0-16.1-0.3-24.4-2.8     c-6-1.8-11.9-4.9-18.2-5.5C1003.9,279.6,1003.5,280.3,1004,280.6L1004,280.6z"
   id="path322" />
		</g>
		<g
   id="g328">
			<path
   class="st0"
   d="M1044,283.3c8.9-5.6,15.2-18.4,15.5-28.7c0.1-1.7-2.3-2.2-2.7-0.4c-2.3,11.1-6.8,19.1-14.6,27.3     C1041.2,282.5,1042.8,284,1044,283.3L1044,283.3z"
   id="path326" />
		</g>
		<g
   id="g332">
			<path
   class="st0"
   d="M1106.7,207.6c-25.2,33.2-30.6,78-44.8,116.4c-0.7,2,2.1,3.2,3,1.3c17.9-38,19-81.4,42.2-117.5     C1107.2,207.7,1106.9,207.4,1106.7,207.6L1106.7,207.6z"
   id="path330" />
		</g>
		<g
   id="g336">
			<path
   class="st0"
   d="M1155.9,284.4c-31.1,3.9-67.7,22.6-88.7,46c-1.2,1.3,0.8,3.5,2.2,2.3c25.9-22,52.7-40.2,86.7-46.9     C1156.9,285.5,1156.8,284.3,1155.9,284.4L1155.9,284.4z"
   id="path334" />
		</g>
		<g
   id="g340">
			<path
   class="st0"
   d="M1085.3,258.9c-10.6-3.7-13.8-13.3-13.4-23.8c0.1-2.1-3.2-2.6-3.2-0.5c-0.4,12,3.8,22.8,16.1,26.3     C1085.9,261.3,1086.4,259.3,1085.3,258.9L1085.3,258.9z"
   id="path338" />
		</g>
		<g
   id="g344">
			<path
   class="st0"
   d="M1129.2,243.2c-11.6,13.9-31.1,13.1-47.2,17.3c-1.2,0.3-0.6,2.1,0.5,2c15.8-0.5,37.1-5.7,46.9-19.2     C1129.5,243.2,1129.3,243,1129.2,243.2L1129.2,243.2z"
   id="path342" />
		</g>
		<g
   id="g348">
			<path
   class="st0"
   d="M1117.1,270.5c-6.5,3.7-12.6,8-19.2,11.4c-7,3.6-14.1,4.7-21.6,6.6c-1.8,0.5-1,3.2,0.7,3     c14.3-1.4,29.8-11.4,40.3-20.8C1117.5,270.6,1117.3,270.4,1117.1,270.5L1117.1,270.5z"
   id="path346" />
		</g>
		<g
   id="g352">
			<path
   class="st0"
   d="M1143.9,305.8c-10.9,0.9-18.7-4.6-28.7-7.4c-1.3-0.4-2.2,1.7-1.1,2.4c8.3,5.1,20.2,8.3,29.9,6     C1144.7,306.6,1144.6,305.7,1143.9,305.8L1143.9,305.8z"
   id="path350" />
		</g>
		<g
   id="g356">
			<path
   class="st0"
   d="M1120,324.6c-7.8-2.8-16.9-6.1-21.9-13.1c-0.8-1.2-2.6,0.1-1.8,1.3c5.6,8.1,14.8,9.7,23.6,12.2     C1120.1,325.2,1120.3,324.7,1120,324.6L1120,324.6z"
   id="path354" />
		</g>
		<g
   id="g360">
			<path
   class="st0"
   d="M1038.8,372.2c3.3-6.4,7.1-12.9,7.5-20.2c0.1-2.4-3.4-3-3.7-0.5c-0.8,7-4,13.1-6.5,19.6     C1035.4,372.8,1038,373.9,1038.8,372.2L1038.8,372.2z"
   id="path358" />
		</g>
		<g
   id="g364">
			<path
   class="st0"
   d="M991.3,343.6c15.7,0.2,28.5-11.8,38.6-22.5c1.6-1.7-1.2-4-2.9-2.3c-10.5,11-20.9,19.2-36,22.5     C989.5,341.5,989.7,343.5,991.3,343.6L991.3,343.6z"
   id="path362" />
		</g>
		<g
   id="g368">
			<path
   class="st0"
   d="M967.1,337.9c15.3-1.4,33.6-7.3,42.9-20.4c1.2-1.7-1.1-3.6-2.5-2c-6.1,6.4-12,11.1-20.2,14.5     c-6.6,2.8-13.7,4.1-20.6,6.2C965.7,336.5,966.1,338,967.1,337.9L967.1,337.9z"
   id="path366" />
		</g>
		<g
   id="g372">
			<path
   class="st0"
   d="M999.3,288c2.4,3.6,4.5,7.3,5.4,11.6c1,4.6-0.1,8.9-0.7,13.4c-0.1,1,1.2,1.3,1.6,0.5     c3.6-7.7,0.8-20.4-4.3-26.9C1000.4,285.2,998.4,286.6,999.3,288L999.3,288z"
   id="path370" />
		</g>
		<g
   id="g376">
			<path
   class="st0"
   d="M1006.7,218.7c0.5,0.2,1,0.4,1.5,0.6c0.2,0.1,0.3-0.2,0.1-0.3c-0.5-0.2-1-0.5-1.5-0.7     C1006.6,218.2,1006.4,218.6,1006.7,218.7L1006.7,218.7z"
   id="path374" />
		</g>
		<g
   id="g380">
			<path
   class="st0"
   d="M997.8,216.5c0.1-0.1,0.3-0.1,0.4,0c1,0.2,1.2-1.2,0.5-1.6c-0.9-0.5-1.7,0.1-2.1,0.9     C996.3,216.6,997.2,217.1,997.8,216.5L997.8,216.5z"
   id="path378" />
		</g>
		<g
   id="g384">
			<path
   class="st0"
   d="M943.8,290.2c13.7,0.3,25.7-4.3,33.2-15.9c1.2-1.9-1.5-4.2-2.7-2.2c-3.3,5.3-7,9.9-12.9,12.4     c-5.5,2.4-11.7,1.8-17.5,2.7C942.3,287.4,942.1,290.1,943.8,290.2L943.8,290.2z"
   id="path382" />
		</g>
		<g
   id="g388">
			<path
   class="st0"
   d="M974.1,273.7c2.3,6.3,11.5,12.1,17.3,14.7c6.2,2.8,12.8,0.4,14.4-6.4c1.5-6.2-4.3-13.1-7.9-17.4     c-2.4-2.9-5.1-5.6-7.7-8.3c-1.9-1.9-3.8-5-6.3-6.2c-1.6-0.7-3.4,0.7-3.2,2.4c0.3,3.3,4.8,6.4,7,8.6c4.3,4.3,8.8,8.9,11.7,14.4     c1.1,2,1.9,4.4,1.1,6.6c-1.5,4.1-6.8,2-9.4,0.7c-5.7-2.7-9.3-8.6-14.8-11.2C975,271,973.6,272.4,974.1,273.7L974.1,273.7z"
   id="path386" />
		</g>
		<g
   id="g392">
			<path
   class="st0"
   d="M983.1,254.4c6.7-3.2,10.8-8.8,13.9-15.5c2.8-6.1,6.1-15.9,4.6-22.4c-0.3-1.2-2.1-2.3-3-0.9     c-3,4.9-3.1,11.2-4.7,16.7c-2.3,7.8-6.6,13.5-12.7,18.6C979.6,252.3,980.9,255.4,983.1,254.4L983.1,254.4z"
   id="path390" />
		</g>
		<g
   id="g396">
			<path
   class="st0"
   d="M1000.7,217.4c15.6,9.3,29.5,17.3,43.9,2.5c-1.4-0.8-2.8-1.7-4.1-2.5c-5.5,10.5,0.5,38.5,16.1,37.5     c14.5-0.9,16.6-22.9,13.6-33.7c-0.9-3.1-6-1.8-5.4,1.3c1.4,7.3,0.7,14.5-2.1,21.4c-4.4,10.8-13.6,0.6-16.1-5     c-2.6-5.8-3.8-13.5-1.6-19.5c0.9-2.6-2.2-4.5-4.1-2.5c-14.5,15.2-23.8-0.3-39.3-2.2C999.8,214.4,999.4,216.6,1000.7,217.4     L1000.7,217.4z"
   id="path394" />
		</g>
		<g
   id="g400">
			<path
   class="st0"
   d="M1067.9,220.5c3.7,7.2,14.8,5.7,21,3.4c6.6-2.5,17.1-10.1,18.5-17.5c0.2-1.3-1.3-2.2-2.3-1.4     c-2.3,1.7-3.7,4.5-5.6,6.6c-2.5,2.8-5.4,5-8.6,7c-3.3,2.1-7,3.2-10.8,3.6c-4.2,0.4-7.6-2-11.5-2.4     C1068.1,219.7,1067.7,220.1,1067.9,220.5L1067.9,220.5z"
   id="path398" />
		</g>
		<g
   id="g404">
			<path
   class="st0"
   d="M1105.5,206c-3.1,7.6,1.7,19.9,4.8,26.8c3.3,7.4,10,16.2,19.1,12.7c2.9-1.1,1.2-5.3-1.7-4.4     c-8.2,2.6-12.8-7.9-15.2-13.9c-2.7-6.8-3.4-13.5-4-20.6C1108.2,204.9,1106,204.6,1105.5,206L1105.5,206z"
   id="path402" />
		</g>
		<g
   id="g408">
			<path
   class="st0"
   d="M1130.5,242.1c-9.8,4.8-16.4,19.5-14.5,30.1c0.4,2,3.2,1.7,3.1-0.4c-0.5-9.8,3.8-22.4,12.4-27.9     C1132.5,243.3,1131.6,241.5,1130.5,242.1L1130.5,242.1z"
   id="path406" />
		</g>
		<g
   id="g412">
			<path
   class="st0"
   d="M1116.5,274.3c11.7,7.4,28.2,15.9,42.3,11.1c2.7-0.9,1.4-4.5-1.1-4.5c-8,0-14.5-0.3-22.1-3.1     c-5.7-2.1-11-5.3-16.9-7C1116.6,270.1,1114.3,272.9,1116.5,274.3L1116.5,274.3z"
   id="path410" />
		</g>
		<g
   id="g416">
			<path
   class="st0"
   d="M1153.8,286.7c0.2-0.5,0.5-0.9,1-1.2c0.2-0.1,0-0.5-0.2-0.4c-0.7,0.3-1,0.7-1.3,1.4     C1153.1,286.8,1153.6,287.1,1153.8,286.7L1153.8,286.7z"
   id="path414" />
		</g>
		<g
   id="g420">
			<path
   class="st0"
   d="M1160,282.9c-14.2,1.1-22.8,25.8-9.7,33.8c2.1,1.3,4.5-1.4,2.5-3.1c-12-9.4-2-23.2,7.8-29.4     C1161.2,283.8,1160.7,282.8,1160,282.9L1160,282.9z"
   id="path418" />
		</g>
		<g
   id="g424">
			<path
   class="st0"
   d="M1151.2,312.5c-10.4,0.2-26.8,5.1-35.4,10.9c-12.6,8.5-3.3,24.2,2.3,34.6c1,1.9,4.7,1.5,4.1-1     c-0.9-4.1-3-7.8-4.9-11.6c-1.1-2.4-2.1-4.8-3-7.3c-2.9-8,4.6-12.2,11-14.5c8.3-3,17.5-6.5,26.4-6.9     C1154.4,316.6,1153.9,312.5,1151.2,312.5L1151.2,312.5z"
   id="path422" />
		</g>
		<g
   id="g428">
			<path
   class="st0"
   d="M1119.2,357.1c-3.4-4.3-10.1-8-14.9-10.7c-9.1-5.2-18.6-9.4-28.4-13.2c-2.5-1-4.3,2.9-1.7,3.9     c10.2,3.9,20.6,8.2,29.9,13.9c4.2,2.6,9.5,8.4,14.9,6.7C1119.3,357.7,1119.4,357.3,1119.2,357.1L1119.2,357.1z"
   id="path426" />
		</g>
		<g
   id="g432">
			<path
   class="st0"
   d="M1054.9,394.6c10.8-18.2,20.2-37.4,18.2-59c-0.2-2.4-3.9-1.9-3.7,0.4c2.1,22.6-10,37.4-16.7,57.6     C1052.2,395.1,1054.1,395.9,1054.9,394.6L1054.9,394.6z"
   id="path430" />
		</g>
		<g
   id="g436">
			<path
   class="st0"
   d="M1055,393.5c0.1-8.9-3.9-26.8-15.1-27.4c-5.3-0.3-11.3,3-15.7,5.5c-5.7,3.3-13.4,7.2-17.4,12.5     c-1.4,1.8,0.8,3.7,2.5,2.7c8.5-4.7,15.4-11.3,24.5-15.2c12.6-5.4,17.9,12.4,19.2,22.2C1053.2,395,1055,394.7,1055,393.5     L1055,393.5z"
   id="path434" />
		</g>
		<g
   id="g440">
			<path
   class="st0"
   d="M1010,384.9c4.1-6.8,0.4-12.2-6.8-13.8c-6.9-1.6-16.4-0.1-22.8,2.7c-2.1,0.9-1.5,4.7,1,4.1     c5.1-1.1,10-2.3,15.3-2.7c3-0.2,6.2-0.2,9,0.8c3.7,1.3,3,5.3,2.5,8.4C1008,385.5,1009.5,385.7,1010,384.9L1010,384.9z"
   id="path438" />
		</g>
		<g
   id="g444">
			<path
   class="st0"
   d="M984.1,375.9c8.7-3.3,14.3-17.6,11.5-26.3c-4.4-13.7-20.7-13.4-32.1-10.6c-3.5,0.9-2.3,5.8,1.2,4.9     c9-2.3,24.1-3.7,26.5,8.4c1.7,8.4-4.5,15-9,21.1C981.3,374.6,982.6,376.5,984.1,375.9L984.1,375.9z"
   id="path442" />
		</g>
		<g
   id="g448">
			<path
   class="st0"
   d="M963.5,341.6c7-5.9,1.7-18.6-1.3-25.2c-4.8-10.7-12-20.9-19.6-29.8c-1.8-2.1-4.8,0.1-3.4,2.5     c4.8,8.2,10.8,15.6,15.6,23.8c2.8,4.7,5,9.7,6.5,15c1.3,4.5,0.7,9,1.6,13.4C963,341.6,963.3,341.8,963.5,341.6L963.5,341.6z"
   id="path446" />
		</g>
	</g>
	<g
   id="g544">
		<g
   id="g454">
			<path
   class="st0"
   d="M770.5,329.4c3.7,0.6,4.1-4.5,3.6-7.1c-0.7-3.7-3.9-6.1-7.3-7.1c-4.7-1.3-8.9,0.9-10.4,5.5     c-1.2,3.8-0.3,8.7,2.7,11.4c4.4,3.9,10.7,0.5,13.8-3.3c1-1.3-0.4-3.5-1.9-2.4c-2.4,1.8-6,5.3-9.3,3.3c-2.2-1.3-2.6-4.5-2.4-6.8     c0.2-2.6,2-4.7,4.6-4.8c2.4-0.1,4.8,1.1,6.2,3c0.9,1.2,1.4,2.8,1.2,4.3c-0.2,1.3-0.9,2.4-1.1,3.7     C770.3,329.2,770.4,329.4,770.5,329.4L770.5,329.4z"
   id="path452" />
		</g>
		<g
   id="g458">
			<path
   class="st0"
   d="M788.3,306.5c8.4-3.8,3.6-15.9-2.6-19.4c-4.8-2.7-13.4-1.1-14,5.3c-0.5,5.2,3.1,10.6,7.5,13.1     c5.5,3.3,11.7-0.8,12.7-6.7c0.1-0.9-1-1.8-1.7-0.9c-2.4,3-4.8,7.6-9.4,5.6c-3.4-1.5-6-5.3-6.5-8.9c-0.7-4.9,3.9-6.2,7.9-5.5     c7.8,1.3,8.9,11.4,5.3,16.9C787.4,306.4,787.9,306.7,788.3,306.5L788.3,306.5z"
   id="path456" />
		</g>
		<g
   id="g462">
			<path
   class="st0"
   d="M771.3,279.4c4.4,0.1,3.4-7.7,2.5-10.1c-1.3-3.8-4.8-6-8.6-7c-5.2-1.3-8.5,2.6-9,7.4c-0.4,4.4,1.6,9.3,5,12     c5,4,9.7-1.9,11.7-6.1c0.8-1.6-1.5-2.9-2.4-1.3c-1.4,2.2-4.5,7.6-7.8,5.4c-2.4-1.6-2.7-6-2.8-8.5c-0.1-2.6,0.6-5.4,3.5-5.3     c2.4,0.1,5.3,1.8,6.5,3.7c1,1.6,1.3,3.5,1.2,5.3c0,1.5-0.6,2.8-0.4,4.3C770.9,279.3,771.1,279.4,771.3,279.4L771.3,279.4z"
   id="path460" />
		</g>
		<g
   id="g466">
			<path
   class="st0"
   d="M754.1,250.5c2.2-0.9,3.7-1.6,3.8-4.2c0.1-2.3-1.9-4.7-3.7-5.9c-3.9-2.8-10.4-1.8-12.3,3     c-1.3,3.5,0.2,7.9,3.3,10c3.5,2.4,7.2,1,9.4-2.3c1-1.5-1.4-2.7-2.3-1.3c-1.3,1.9-3.1,2.9-4.9,1c-1.2-1.2-2.2-3.4-2-5.2     c0.3-2.5,2.9-3.7,5.2-3.2c2.9,0.6,7,5.2,3.2,7.7C753.7,250.3,753.8,250.6,754.1,250.5L754.1,250.5z"
   id="path464" />
		</g>
		<g
   id="g470">
			<path
   class="st0"
   d="M731.6,243.3c2.7-0.2,4.6-2.4,4.4-5.2c-0.2-3-2.8-4.9-5.5-5.6c-4.1-1-8.4,1.1-8.8,5.5     c-0.3,3.3,1.3,6.9,4.2,8.7c3.8,2.3,7.4-1.6,8.7-4.9c0.6-1.6-1.5-2.9-2.4-1.3c-0.9,1.5-2.4,4.8-4.5,3.7c-1.6-0.8-2.5-3-2.6-4.7     c-0.2-1.9,0.5-3.4,2.4-3.8c1.7-0.4,3.9,0.3,5,1.7c1.3,1.7-0.2,3.7-1.2,5C731,242.7,731.1,243.3,731.6,243.3L731.6,243.3z"
   id="path468" />
		</g>
		<g
   id="g474">
			<path
   class="st0"
   d="M707.1,233.8c8.5-3,3.7-14.1-2.4-16.9c-5.9-2.8-13.7,1.4-15,7.6c-1.1,5.3,1.8,11.6,6.1,14.7     c5.3,3.8,11,0.6,13.2-4.9c0.8-2-1.8-3.6-3-1.7c-1.9,3.2-4.4,5.8-8.1,3.5c-2.9-1.9-4.6-5.8-4.8-9.1c-0.2-4.6,3.5-6.8,7.7-7.2     c6.7-0.6,10,9.2,6,13.6C706.7,233.6,706.9,233.9,707.1,233.8L707.1,233.8z"
   id="path472" />
		</g>
		<g
   id="g478">
			<path
   class="st0"
   d="M688.4,245.9c3.9-3.1,3.1-8.7-1.1-11.1c-4.2-2.4-9.7,0.3-11.3,4.5c-1.2,3.3,0.7,7.3,3.7,8.9     c4.1,2.2,8.2-1.1,10-4.7c0.7-1.3-1.2-2.9-2.2-1.6c-1.4,1.8-3.2,4.1-5.7,3.5c-1.8-0.5-2.6-2.5-2.6-4.2c0.1-2.8,3.4-4.5,5.9-4.1     c4,0.6,4,5,2.4,7.8C687,245.5,687.8,246.3,688.4,245.9L688.4,245.9z"
   id="path476" />
		</g>
		<g
   id="g482">
			<path
   class="st0"
   d="M656.1,249.9c7.1-0.2,5.5-9.7,2.3-13.3c-4.5-5.1-12.1-5-16,0.7c-3.2,4.6,0,10.8,4.2,13.3     c6.5,3.9,13-1.9,15.1-7.8c0.9-2.4-2.8-3.7-4.1-1.6c-1.8,3-4.3,7.6-8.5,5.7c-2.3-1-4.4-4.1-3.3-6.7c1.6-4,6.7-3.4,9.2-0.9     c3.1,3,2.2,6.5,0.6,9.9C655.5,249.5,655.7,249.9,656.1,249.9L656.1,249.9z"
   id="path480" />
		</g>
		<g
   id="g486">
			<path
   class="st0"
   d="M633,269.9c1.2-1,1.9-1.5,2.5-3c0.5-1.2,0.3-3-0.4-4.1c-1.6-2.7-4.5-4.3-7.5-4.8     c-5.5-0.9-13.1,4.2-10.7,10.5c1.5,3.8,6.2,6.2,10.1,6c5.7-0.2,9.4-5.8,8.1-11.2c-0.3-1.3-2.3-1.2-2.6,0c-0.7,3.4-1,7.4-4.9,8.6     c-2.5,0.8-7,0-8-2.8c-1.2-3.3,2.9-6.7,5.8-7.1c3.8-0.4,9.6,2.9,7,7.3C632.2,269.8,632.7,270.1,633,269.9L633,269.9z"
   id="path484" />
		</g>
		<g
   id="g490">
			<path
   class="st0"
   d="M658.9,303.9c2.2-0.5,3.3-2.4,3.4-4.6c0.1-2.2-1.4-4.4-3-5.7c-4.7-3.7-10.8-0.9-13.1,4.1     c-2,4.4,0.5,8.4,4.8,10c4.8,1.7,9.9-1.4,11.4-6.1c0.5-1.6-1.9-2.5-2.7-1.1c-1.4,2.7-3.6,5.1-7,4.5c-2.4-0.4-4.4-2.6-3.3-5.1     c1.2-2.7,4.3-4.6,7.1-3.1c2.6,1.3,2.5,4.2,2,6.6C658.4,303.8,658.7,304,658.9,303.9L658.9,303.9z"
   id="path488" />
		</g>
		<g
   id="g494">
			<path
   class="st0"
   d="M687.7,386.3c10.8-2,21.3-3.2,31.1-8.4c9.9-5.4,18.5-13.8,25.8-22.3c1.9-2.3-1.3-5.4-3.4-3.2     c-7.6,8.2-15.5,15.5-24.8,21.7c-8.8,5.9-19.6,6.7-29.4,10C685.7,384.5,686.3,386.5,687.7,386.3L687.7,386.3z"
   id="path492" />
		</g>
		<g
   id="g498">
			<path
   class="st0"
   d="M746.7,349.1c-25-1.6-47.6,17.6-61.9,36.3c-1.4,1.9,1,4.4,2.7,2.6c7.9-8.3,15.3-16.5,24.5-23.4     c10.5-7.9,22.5-11,34.8-14.6C747.3,349.8,747.2,349.1,746.7,349.1L746.7,349.1z"
   id="path496" />
		</g>
		<g
   id="g502">
			<path
   class="st0"
   d="M760.8,318.1c-14.5-11.7-32.7-17.6-51.3-13.8c-2.8,0.6-2.1,5.4,0.7,5c18-2.5,33.8,1.2,49.6,10.1     C760.6,319.8,761.5,318.7,760.8,318.1L760.8,318.1z"
   id="path500" />
		</g>
		<g
   id="g506">
			<path
   class="st0"
   d="M663,299c7.5,1.3,15.1,1.9,22.6,2.8c8.5,1.1,16.1,4.4,23.8,7.9c2.7,1.2,4.5-2.3,2.2-3.9     c-13.5-9.5-32.4-7.1-48-9.1C662.1,296.4,661.5,298.7,663,299L663,299z"
   id="path504" />
		</g>
		<g
   id="g510">
			<path
   class="st0"
   d="M634.1,268.6c14.8,4.3,28,11.2,41.1,19.2c11.8,7.3,22.8,17.2,35.5,23c1.9,0.8,4-1.6,2.2-3     c-11.6-9.9-25.7-18.2-38.7-26.3c-12.2-7.6-25.4-13.6-39.8-15.2C632.9,266.1,632.8,268.3,634.1,268.6L634.1,268.6z"
   id="path508" />
		</g>
		<g
   id="g514">
			<path
   class="st0"
   d="M658.1,248.5c6.8,10,16.4,17.4,24.9,25.8c10.5,10.4,17.6,24.4,25.4,36.8c1.3,2.1,4.7,0.1,3.4-2.1     c-7.2-11.3-14.5-22.6-22.7-33.2c-8.3-10.6-20-18.8-29.3-28.7C658.9,246.3,657.5,247.6,658.1,248.5L658.1,248.5z"
   id="path512" />
		</g>
		<g
   id="g518">
			<path
   class="st0"
   d="M686.5,247.3c4.3,20.1,14.2,39.5,20.5,59.2c0.8,2.4,4.5,1.3,3.7-1.1c-6.4-19.5-12.6-40.8-22.6-58.8     C687.6,245.7,686.3,246.4,686.5,247.3L686.5,247.3z"
   id="path516" />
		</g>
		<g
   id="g522">
			<path
   class="st0"
   d="M703,237.9c-1.5,7.9-0.2,14.6,1.8,22.4c4.3,16.8,3.9,32.6,0.4,49.5c-0.6,2.7,3.7,3.8,4.2,1.1     c2.6-13.4,2.9-26.8,1-40.3c-1.5-10.8-8.1-21.6-6.8-32.6C703.6,237.7,703.1,237.6,703,237.9L703,237.9z"
   id="path520" />
		</g>
		<g
   id="g526">
			<path
   class="st0"
   d="M725,245.9c-7.3,20-11.9,40.8-20.3,60.4c-1.4,3.2,3.3,5.9,4.8,2.7c9-19.8,11.3-41.8,17.1-62.7     C726.9,245.2,725.4,244.9,725,245.9L725,245.9z"
   id="path524" />
		</g>
		<g
   id="g530">
			<path
   class="st0"
   d="M742.7,252.3c-8.2,6.9-13.4,15.5-18.5,24.8c-6.2,11.2-12.9,20.4-21.2,30.1c-0.9,1.1,0.3,2.8,1.6,2     c19.5-12,23-40.5,38.4-56.6C743.1,252.4,742.9,252.2,742.7,252.3L742.7,252.3z"
   id="path528" />
		</g>
		<g
   id="g534">
			<path
   class="st0"
   d="M757.3,274.8c-20.6-3.2-37.5,18.1-51,30.5c-2.2,2,1.1,4.9,3.3,3.1c6.5-5.3,12.3-11.3,18.4-17     c8.8-8.3,18-12.2,29.3-15.8C757.7,275.5,757.8,274.9,757.3,274.8L757.3,274.8z"
   id="path532" />
		</g>
		<g
   id="g538">
			<path
   class="st0"
   d="M773,295c-20.7-5.9-48.8-0.7-66.2,12c-2.5,1.8-0.3,5.5,2.5,4.1c20.7-10.4,40.5-13.4,63.4-14.2     C773.9,296.9,774.1,295.3,773,295L773,295z"
   id="path536" />
		</g>
		<g
   id="g542">
			<path
   class="st0"
   d="M705.2,298.5c1,24.6-11.4,50.7-20.3,73.2c-10,25.1-23.2,47.8-40.2,68.8c-2.2,2.8,1.5,6.4,4,3.8     C668,425.1,680.8,400,691,375c9.6-23.4,21.5-50.9,19.5-76.6C710.2,295,705,295,705.2,298.5L705.2,298.5z"
   id="path540" />
		</g>
	</g>
	<g
   id="g548">
		<path
   class="st0"
   d="M1072.2,338.8c-0.2,8.3,3.5,16.9,5.7,24.8c2.5,9.3,2.8,18.9,3,28.5c0.2,9.1,0,18.2-0.8,27.3    c-0.8,9.6-3.2,18.8-4.7,28.2c-0.5,2.9,3.7,5.3,5.1,2.2c3.7-8.2,4.8-17.2,5.8-26.1c1.1-10,1.1-20.1,0.6-30.2    c-0.5-9.5-1.5-19.2-4-28.4c-1.2-4.5-2.9-9-4.5-13.4c-1.7-4.4-3.3-9.1-5.5-13.2C1072.7,338.3,1072.2,338.5,1072.2,338.8    L1072.2,338.8z"
   id="path546" />
	</g>
</g>
</svg>
