<?xml version="1.0" encoding="UTF-8" standalone="no"?>
<!-- Created with Inkscape (http://www.inkscape.org/) -->
<svg
   xmlns:svg="http://www.w3.org/2000/svg"
   xmlns="http://www.w3.org/2000/svg"
   version="1.0"
   viewBox="0 0 563 563"
   id="svg3489"
   xml:space="preserve"><defs
   id="defs3505" />

		<g
   id="Layer_1">
			<circle
   cx="281.5"
   cy="281.5"
   r="281"
   style="stroke:#000000"
   id="circle3494" />
			<circle
   cx="281.5"
   cy="281.5"
   r="258.311"
   style="fill:#ffffff;stroke:#000000"
   id="circle3496" />
			<path
   d="M 557.975,331.98 L 557.975,231.019 L 367.487,231.019 C 364.697,226.277 361.527,221.786 358.017,217.588 L 362.206,213.399 L 412.362,163.243 L 475.35,100.254 L 475.345,100.258 L 475.351,100.252 L 475.35,100.252 L 475.351,100.251 L 463.165,88.066 L 463.159,88.072 L 463.164,88.067 L 400.176,151.057 L 350.02,201.213 L 345.865,205.368 C 341.537,201.705 336.893,198.406 331.979,195.514 L 331.979,5.026 L 231.02,5.026 L 231.02,195.513 C 226.026,198.451 221.31,201.812 216.922,205.546 L 212.855,201.479 L 162.699,151.323 L 99.71,88.334 L 99.714,88.339 L 99.708,88.333 L 99.708,88.334 L 99.707,88.333 L 87.522,100.519 L 87.528,100.525 L 87.523,100.52 L 150.512,163.508 L 200.668,213.664 L 204.804,217.8 C 201.365,221.936 198.257,226.357 195.514,231.019 L 5.026,231.019 L 5.026,331.98 L 195.515,331.98 C 198.471,337.003 201.852,341.745 205.613,346.154 L 87.788,463.98 L 87.789,463.98 L 87.788,463.982 L 95.911,472.103 L 99.973,476.165 L 99.974,476.163 L 99.974,476.165 L 217.879,358.26 C 221.993,361.673 226.387,364.759 231.02,367.484 L 231.02,557.974 L 331.98,557.974 L 331.98,367.484 C 336.751,364.677 341.267,361.486 345.487,357.951 L 463.435,475.898 L 463.435,475.897 L 463.437,475.898 L 471.558,467.775 L 475.62,463.713 L 475.618,463.712 L 475.62,463.712 L 357.697,345.789 C 361.334,341.482 364.611,336.865 367.486,331.98 L 557.975,331.98 z "
   id="path3498" />
			<circle
   cx="281.5"
   cy="281.5"
   r="77.920998"
   style="fill:#ffffff;stroke:#000000"
   id="circle3500" />
			<circle
   cx="281.5"
   cy="281.5"
   r="50.48"
   style="stroke:#000000"
   id="circle3502" />
		</g>
	</svg>