<?xml version="1.0" encoding="UTF-8" standalone="no"?>
<svg
   viewBox="0 0 1015.8151 1296.6406"
   version="1.1"
   sodipodi:docname="svg.svg"
   inkscape:version="1.4 (e7c3feb100, 2024-10-09)"
   id="svg1"
   xmlns:inkscape="http://www.inkscape.org/namespaces/inkscape"
   xmlns:sodipodi="http://sodipodi.sourceforge.net/DTD/sodipodi-0.dtd"
   xmlns:xlink="http://www.w3.org/1999/xlink"
   xmlns="http://www.w3.org/2000/svg"
   xmlns:svg="http://www.w3.org/2000/svg">
  <sodipodi:namedview
     id="namedview960"
     pagecolor="#ffffff"
     bordercolor="#000000"
     borderopacity="0.25"
     inkscape:showpageshadow="2"
     inkscape:pageopacity="0.0"
     inkscape:pagecheckerboard="0"
     inkscape:deskcolor="#d1d1d1"
     inkscape:zoom="0.54479218"
     inkscape:cx="1167.4176"
     inkscape:cy="838.85198"
     inkscape:window-width="3440"
     inkscape:window-height="1361"
     inkscape:window-x="0"
     inkscape:window-y="282"
     inkscape:window-maximized="1"
     inkscape:current-layer="g948" />
  <defs
     id="defs948">
    <linearGradient
       id="linearGradient2"
       inkscape:collect="always">
      <stop
         style="stop-color:#9500ba;stop-opacity:1;"
         offset="0"
         id="stop2" />
      <stop
         style="stop-color:#9500ba;stop-opacity:0;"
         offset="1"
         id="stop3" />
    </linearGradient>
    <linearGradient
       id="linear-pattern-0"
       gradientUnits="userSpaceOnUse"
       x1="-0.054075442"
       y1="-3.921381e-06"
       x2="1.054069"
       y2="0"
       gradientTransform="matrix(1189.69,772.597,-772.597,1189.69,539.621,728)">
      <stop
         offset="0"
         stop-color="rgb(97.253418%, 60.783386%, 16.078186%)"
         stop-opacity="1"
         id="stop4" />
      <stop
         offset="1"
         stop-color="rgb(100%, 5.882263%, 48.234558%)"
         stop-opacity="1"
         id="stop238" />
    </linearGradient>
    <linearGradient
       inkscape:collect="always"
       xlink:href="#linearGradient2"
       id="linearGradient3"
       x1="626"
       y1="1114"
       x2="1643"
       y2="1114"
       gradientUnits="userSpaceOnUse" />
    <linearGradient
       inkscape:collect="always"
       xlink:href="#linearGradient2"
       id="linearGradient4"
       gradientUnits="userSpaceOnUse"
       x1="1791.582"
       y1="1136.0267"
       x2="1817.3784"
       y2="1141.5334" />
    <linearGradient
       inkscape:collect="always"
       xlink:href="#linear-pattern-0"
       id="linearGradient8"
       x1="827.97375"
       y1="653.56293"
       x2="1504.9607"
       y2="1555.4688"
       gradientUnits="userSpaceOnUse" />
    <linearGradient
       inkscape:collect="always"
       xlink:href="#linearGradient2"
       id="linearGradient10"
       x1="1134.4688"
       y1="1544.5"
       x2="1133.5562"
       y2="1192.8446"
       gradientUnits="userSpaceOnUse" />
    <linearGradient
       inkscape:collect="always"
       xlink:href="#linearGradient2"
       id="linearGradient4-7"
       gradientUnits="userSpaceOnUse"
       x1="626"
       y1="1114"
       x2="1643"
       y2="1114"
       gradientTransform="rotate(180,1141.6235,1118.7281)" />
    <linearGradient
       inkscape:collect="always"
       xlink:href="#linearGradient2"
       id="linearGradient11"
       gradientUnits="userSpaceOnUse"
       x1="1134.4688"
       y1="1192.3524"
       x2="1133.8931"
       y2="1284.2402"
       gradientTransform="rotate(180,1141.6235,1118.7281)" />
    <linearGradient
       inkscape:collect="always"
       xlink:href="#linearGradient2"
       id="linearGradient12"
       gradientUnits="userSpaceOnUse"
       x1="626"
       y1="1114"
       x2="1643"
       y2="1114" />
    <linearGradient
       inkscape:collect="always"
       xlink:href="#linearGradient2"
       id="linearGradient13"
       gradientUnits="userSpaceOnUse"
       x1="827.97375"
       y1="653.56293"
       x2="1504.9607"
       y2="1555.4688" />
    <linearGradient
       inkscape:collect="always"
       xlink:href="#linearGradient2"
       id="linearGradient14"
       gradientUnits="userSpaceOnUse"
       x1="626"
       y1="1114"
       x2="1643"
       y2="1114" />
    <linearGradient
       inkscape:collect="always"
       xlink:href="#linearGradient2"
       id="linearGradient15"
       gradientUnits="userSpaceOnUse"
       x1="626"
       y1="1114"
       x2="1643"
       y2="1114" />
  </defs>
  <g
     id="g4"
     clip-path="none"
     transform="translate(1666.6905,-66.080245)">
    <g
       inkscape:label="Clip"
       id="g3">
      <g
         clip-path="url(#clip-0)"
         id="g948"
         transform="translate(-626.55951,-465.96875)"
         style="fill:none;fill-opacity:1;stroke:url(#linearGradient3)">
        <g
           id="g12"
           style="stroke:url(#linearGradient15)"
           transform="translate(-1667.1881,65.58022)">
          <path
             style="fill:url(#linearGradient8);fill-opacity:1;stroke:url(#linearGradient13)"
             d="M 1460.6094,1762.6094 H 808.32422 c -65.64844,0 -124.41797,-33.9492 -157.21094,-90.8203 -32.79297,-56.8672 -32.73437,-124.7383 0.15234,-181.5586 l 202.73829,-350.2617 c 9.16406,-15.8399 9.16406,-35.5079 -0.004,-51.3477 L 651.26562,738.35937 c -32.88671,-56.82031 -32.94531,-124.6875 -0.15234,-181.55859 32.79297,-56.87109 91.5625,-90.83203 157.21094,-90.83203 h 652.28518 c 65.6523,0 124.4219,33.96094 157.2109,90.83203 32.7891,56.87109 32.7383,124.73828 -0.1484,181.55859 l -202.7422,350.26173 c -9.1602,15.8398 -9.1602,35.5078 0,51.3477 l 202.7422,350.2617 c 32.8867,56.8203 32.9375,124.6914 0.1484,181.5586 -32.789,56.8711 -91.5586,90.8203 -157.2109,90.8203 z"
             id="path6" />
          <path
             style="fill:none;fill-opacity:1;stroke:url(#linearGradient12)"
             d="M 1460.6094,1762.6094"
             id="path7" />
          <path
             style="fill:#ffffff;fill-opacity:1;stroke:url(#linearGradient14)"
             d="m 808.32422,596.19922 c -26.72266,0 -39.94922,17.9414 -44.39453,25.65234 -4.44922,7.70703 -13.34375,28.14844 0.043,51.26953 l 202.73828,350.26951 c 32.45312,56.0703 32.45312,125.7383 0,181.8086 l -202.73828,350.2696 c -13.38672,23.1328 -4.49219,43.5625 -0.043,51.2695 4.44531,7.7109 17.67187,25.6523 44.39453,25.6523 h 652.28518 c 26.7187,0 39.9492,-17.9414 44.4023,-25.6523 4.4375,-7.707 13.3399,-28.1367 -0.051,-51.2695 l -202.7304,-350.2696 c -32.461,-56.0703 -32.461,-125.7383 -0.012,-181.8086 l 202.7421,-350.26951 c 13.3907,-23.12109 4.4883,-43.5625 0.051,-51.26953 -4.4531,-7.71094 -17.6836,-25.65234 -44.4023,-25.65234 z"
             id="path5" />
          <path
             style="fill:url(#linearGradient10);fill-opacity:1;stroke:url(#linearGradient4)"
             d="m 1322.6484,1465.5703 -142.6679,-246.4922 c -20.25,-34.9883 -70.7696,-34.9883 -91.0313,0 l -142.66795,246.4922 c -20.29297,35.0586 5.00781,78.9297 45.51562,78.9297 h 285.34373 c 40.5078,0 65.8086,-43.8711 45.5078,-78.9297 z"
             id="path3" />
          <path
             style="fill:url(#linearGradient11);fill-opacity:1;stroke:url(#linearGradient4-7)"
             d="m 960.59859,771.88588 142.66781,246.49222 c 20.25,34.9883 70.7696,34.9883 91.0313,0 l 142.668,-246.49222 c 20.293,-35.0586 -5.0078,-78.9297 -45.5157,-78.9297 h -285.3437 c -40.50771,0 -65.80851,43.8711 -45.50771,78.9297 z"
             id="path3-3" />
        </g>
      </g>
    </g>
  </g>
</svg>
