<?xml version="1.0" standalone="no"?>
<!--Created with Inkscape (http://www.inkscape.org/)-->
<svg xmlns="http://www.w3.org/2000/svg" xmlns:xlink="http://www.w3.org/1999/xlink" viewBox="0 0 48 48">
  <defs>
    <linearGradient id="i">
      <stop offset="0" stop-color="#fff" stop-opacity="1"/>
      <stop offset="1" stop-color="#fff" stop-opacity="0"/>
    </linearGradient>
    <linearGradient id="h">
      <stop offset="0" stop-color="#790000" stop-opacity="1"/>
      <stop offset="1" stop-color="#b03636" stop-opacity="1"/>
    </linearGradient>
    <linearGradient id="g">
      <stop offset="0" stop-color="#555753"/>
      <stop offset="1" stop-color="#555753" stop-opacity="0"/>
    </linearGradient>
    <linearGradient id="f">
      <stop offset="0" stop-color="#babdb6" stop-opacity="1"/>
      <stop offset="1" stop-color="#8f9488" stop-opacity="1"/>
    </linearGradient>
    <linearGradient id="e">
      <stop offset="0" stop-color="#ffa4a4" stop-opacity="1"/>
      <stop offset="1" stop-color="#a40000"/>
    </linearGradient>
    <linearGradient id="d">
      <stop offset="0" stop-color="#ccc" stop-opacity="1"/>
      <stop offset="1" stop-color="#9b9b9b" stop-opacity="1"/>
    </linearGradient>
    <linearGradient id="a">
      <stop offset="0" stop-color="#888a85"/>
      <stop offset="1" stop-color="#d3d7cf" stop-opacity="0"/>
    </linearGradient>
    <linearGradient id="b">
      <stop offset="0" stop-color="#babdb6"/>
      <stop offset="1" stop-color="#d3d7cf" stop-opacity="0"/>
    </linearGradient>
    <linearGradient id="c">
      <stop offset="0" stop-color="#fff" stop-opacity="1"/>
      <stop offset="1" stop-color="#e3e3e3" stop-opacity="1"/>
    </linearGradient>
    <linearGradient xlink:href="#a" id="q" x1="24" y1="19.505583" x2="19.982143" y2="19.550226" gradientUnits="userSpaceOnUse" gradientTransform="matrix(-1,0,0,1,48,0)"/>
    <linearGradient xlink:href="#b" id="p" x1="24" y1="19.996655" x2="32" y2="19.90625" gradientUnits="userSpaceOnUse" gradientTransform="matrix(-1,0,0,1,48,0)"/>
    <linearGradient xlink:href="#c" id="o" gradientUnits="userSpaceOnUse" x1="15.714286" y1="16.82852" x2="36.482143" y2="20.667807"/>
    <linearGradient xlink:href="#d" gradientUnits="userSpaceOnUse" x1="19.940901" y1="10.918805" x2="24" y2="22.750927"/>
    <linearGradient xlink:href="#e" id="s" x1="32.794643" y1="21.696428" x2="34.79464" y2="32.321426" gradientUnits="userSpaceOnUse"/>
    <linearGradient xlink:href="#f" id="l" x1="37.535713" y1="34.196426" x2="9.9285688" y2="20.089285" gradientUnits="userSpaceOnUse"/>
    <radialGradient xlink:href="#g" id="j" cx="24" cy="36.75" fx="24" fy="36.75" r="22.5" gradientTransform="matrix(1,0,0,0.3,-3.16587e-17,25.725)" gradientUnits="userSpaceOnUse"/>
    <linearGradient xlink:href="#h" x1="23.955357" y1="10.008928" x2="29.214285" y2="30.276785" gradientUnits="userSpaceOnUse"/>
    <linearGradient xlink:href="#i" id="n" x1="6.7230334" y1="37.683041" x2="37.804565" y2="29.096745" gradientUnits="userSpaceOnUse"/>
  </defs>
  <metadata/>
  <path style="marker:none" d="M 46.5 36.75 A 22.5 6.75 0 1 1  1.5,36.75 A 22.5 6.75 0 1 1  46.5 36.75 z" transform="matrix(1.066667,0,0,0.962963,-1.600001,1.111111)" opacity=".50196078" color="#000" fill="url(#j)" fill-opacity="1" fill-rule="nonzero" stroke="none" stroke-width="1" stroke-linecap="round" stroke-linejoin="miter" marker-start="none" marker-mid="none" marker-end="none" stroke-miterlimit="4" stroke-dasharray="none" stroke-dashoffset="17.85" stroke-opacity="1" visibility="visible" display="block" overflow="visible"/>
  <path style="marker:none" d="M 4.5,11.5 L 43.5,11.5 L 47.5,38.5 L 29,38.5 L 28,37.5 C 26,39 22,39 20,37.5 L 19,38.5 L 0.5,38.5 L 4.5,11.5 z " id="k" color="#000" fill="#523856" fill-opacity="1" fill-rule="nonzero" stroke="#3e263b" stroke-width="1" stroke-linecap="round" stroke-linejoin="round" marker-start="none" marker-mid="none" marker-end="none" stroke-miterlimit="4" stroke-dasharray="none" stroke-dashoffset="17.85" stroke-opacity="1" visibility="visible" display="block" overflow="visible"/>
  <path xlink:href="#k" style="marker:none" d="M 5.28125,12.40625 L 1.5625,37.59375 L 18.59375,37.59375 L 19.34375,36.84375 C 19.667151,36.507336 20.191452,36.467006 20.5625,36.75 C 21.327469,37.323727 22.653015,37.71875 24,37.71875 C 25.346985,37.71875 26.672531,37.323727 27.4375,36.75 C 27.808548,36.467006 28.332849,36.507336 28.65625,36.84375 L 29.40625,37.59375 L 46.4375,37.59375 L 42.71875,12.40625 L 5.28125,12.40625 z " opacity=".13333333" color="#000" fill="none" fill-opacity="1" fill-rule="nonzero" stroke="#fff" stroke-width="1" stroke-linecap="round" stroke-linejoin="round" marker-start="none" marker-mid="none" marker-end="none" stroke-miterlimit="4" stroke-dasharray="none" stroke-dashoffset="17.85" stroke-opacity="1" visibility="visible" display="block" overflow="visible"/>
  <path d="M 2,36.5 C 7.6666667,36.5 16,35 19,36.5 C 22,34 26,34 29,36.5 C 32,35 41,36.5 46,36.5 L 45.5,34 C 38.5,31.5 29,28.5 24,33 C 19,28.5 9.5,31.5 2.5,34 L 2,36.5 z " id="m" fill="url(#l)" fill-opacity="1" fill-rule="evenodd" stroke="#888a85" stroke-width="1" stroke-linecap="butt" stroke-linejoin="miter" stroke-miterlimit="4" stroke-dasharray="none" stroke-opacity="1"/>
  <path xlink:href="#m" d="M 14.375,31.9375 C 10.963293,32.392394 7.260823,33.622273 3.90625,34.8125 L 3.8125,35.34375 C 6.2979599,35.262594 9.0476285,35.037732 11.6875,34.875 C 14.462294,34.703951 16.881256,34.711661 18.78125,35.40625 C 20.133116,34.409774 21.661646,33.894157 23.21875,33.75 C 21.042747,31.830616 17.941674,31.461944 14.375,31.9375 z M 28.625,31.9375 C 27.145571,32.213473 25.86037,32.798142 24.78125,33.75 C 26.338354,33.894157 27.866884,34.409774 29.21875,35.40625 C 31.163554,34.697135 33.704549,34.703523 36.5625,34.875 C 39.261382,35.036933 41.920385,35.260963 44.1875,35.34375 L 44.09375,34.8125 C 40.739177,33.622273 37.036707,32.392394 33.625,31.9375 C 31.827105,31.697781 30.128781,31.656984 28.625,31.9375 z " opacity=".30196078" fill="none" fill-opacity="1" fill-rule="evenodd" stroke="url(#n)" stroke-width="1" stroke-linecap="butt" stroke-linejoin="miter" stroke-miterlimit="4" stroke-dasharray="none" stroke-opacity="1"/>
  <path d="M 2.5,34 C 9,31.5 20,29 24,33 C 28,29 39,31.5 45.5,34 L 42.5,10.5 C 37,8 27.5,6 24,9 C 20,6 12,8 5.5,10.5 L 2.5,34 z " id="r" fill="url(#o)" fill-opacity="1" fill-rule="evenodd" stroke="url(#linearGradient2247)" stroke-width="1" stroke-linecap="butt" stroke-linejoin="miter" stroke-miterlimit="4" stroke-dasharray="none" stroke-opacity="1"/>
  <path style="marker:none" d="M 24,9.5 C 22,8 19.5,7.5 16,8 L 16,30.5 C 18,29.5 22,30.5 24,32.5 L 24,9.5 z " color="#000" fill="url(#p)" fill-opacity="1" fill-rule="nonzero" stroke="none" stroke-width="1" stroke-linecap="round" stroke-linejoin="miter" marker-start="none" marker-mid="none" marker-end="none" stroke-miterlimit="4" stroke-dashoffset="17.85" stroke-opacity="1" visibility="visible" display="block" overflow="visible"/>
  <path style="marker:none" d="M 24,9.5 C 25.221264,8.803878 26.327771,7.9069322 28,8 L 29,30.5 C 27.5,30 25.5,31.5 24,32.5 L 24,9.5 z " color="#000" fill="url(#q)" fill-opacity="1" fill-rule="nonzero" stroke="none" stroke-width="1" stroke-linecap="round" stroke-linejoin="miter" marker-start="none" marker-mid="none" marker-end="none" stroke-miterlimit="4" stroke-dashoffset="17.85" stroke-opacity="1" visibility="visible" display="block" overflow="visible"/>
  <path xlink:href="#r" d="M 17.03125,8.375 C 14.611845,8.6563261 11.827815,9.5624782 8.78125,10.71875 L 4.25,32.59375 C 7.5567067,31.338728 11.345145,30.271354 14.90625,29.9375 C 16.969491,29.744071 18.927893,29.768608 20.625,30.125 C 21.963283,30.406039 23.09173,31.003906 24,31.8125 C 24.90827,31.003906 26.036717,30.406039 27.375,30.125 C 29.072107,29.768608 31.030509,29.744071 33.09375,29.9375 C 36.654855,30.271354 40.443293,31.338728 43.75,32.59375 L 39.1875,10.6875 C 36.612085,9.5579242 33.750698,8.6570052 31.15625,8.375 C 28.420939,8.0776836 26.053467,8.4675643 24.59375,9.71875 C 24.262671,9.9972426 23.783138,10.010203 23.4375,9.75 C 21.660341,8.417131 19.571761,8.0795918 17.03125,8.375 z " opacity=".65098039" fill="none" fill-opacity="1" fill-rule="evenodd" stroke="#fff" stroke-width="1" stroke-linecap="butt" stroke-linejoin="miter" stroke-miterlimit="4" stroke-dasharray="none" stroke-opacity="1"/>
  <path d="M 24.455357,8.7321429 C 24.5,20.5 34,20 33.5,30.5 L 32.5,34.5 L 34,34 L 35,35 L 35.5,31 C 36,20 24.544643,19.089286 24.5,8.5 L 24.455357,8.7321429 z " fill="url(#s)" fill-opacity="1" fill-rule="evenodd" stroke="url(#linearGradient2307)" stroke-width="1" stroke-linecap="square" stroke-linejoin="miter" stroke-opacity="1" stroke-miterlimit="4" stroke-dasharray="none"/>
</svg>
