<svg viewBox="0 0 84 97" xmlns="http://www.w3.org/2000/svg">
  <defs>
    <linearGradient id="a" x1="41.97" x2="41.97" y1="96.24" y2=".00039007" gradientUnits="userSpaceOnUse">
      <stop stop-color="#40008A" offset="0">
      <stop stop-color="#3B1489" offset=".1092"/>
      <stop stop-color="#2E4887" offset=".3334"/>
      <stop stop-color="#199D83" offset=".6536"/>
      <stop stop-color="#00FF7F" offset="1"/>
    </linearGradient>
  </defs>
  <path
    d="m73.02 6.2892c2.801 0 4.9912 2.632 4.492 5.4881-1.7075 9.7694-7.8984 22.144-25.396 25.106-.2052.0346-.4072.0511-.6069.0511-2.1666 0-3.9276-1.9701-3.5746-4.2011 2.6462-16.713 13.828-25.015 24.498-26.406.1973-.02516.3939-.03773.5873-.03773zm-61.987 10.945c.1635 0 .3302.0086.4984.0251 13.598 1.3766 29.973 10.361 34.11 20.17.1801.4277.3994.8899.3994 1.3537v20.411c0 2.0628 1.3553 3.7805 3.3828 4.1602 4.8395.9057 9.8968 2.695 14.129 5.2428 1.86 1.1195 3.768 2.386 5.4999 3.7885 2.3199 1.8734 4.5455 4.0117 5.0549 7.0816.1588.9552-.5621 2.4968-1.4245 3.1021-6.455 4.5322-17.771 7.3827-29.4 7.3827-9.591 0-19.402-1.9402-26.875-6.4763-1.5746-.9559-2.0408-2.6225-1.2618-4.3411 2.9536-6.5218 8.5014-11.103 15.028-13.847 2.5243-1.0613 4.8049-1.7641 7.4267-2.1659 2.1588-.3309 3.7232-2.1516 3.7232-4.3356v-11.614c0-2.0251-1.5259-3.676-3.5447-3.8324-17.42-1.3506-26.778-10.651-31.023-19.456-1.5118-3.1359.9025-6.6484 4.2766-6.6484zm61.987-17.234c-.4654 0-.9364.030658-1.4002.091191-10.288 1.3404-22.996 8.5973-28.19 24.501-8.4054-7.4558-20.964-12.548-31.263-13.591-.3758-.0377-.7563-.0574-1.1321-.0574-3.8112 0-7.2986 1.9308-9.33 5.165-2.0015 3.1871-2.2727 7.1139-.63834 10.504 6.1374 12.73 18.246 20.948 33.969 22.78v7.7852c-3.1446.489-4.7963 1.2366-7.3513 2.3112-8.5643 3.6014-14.873 9.4975-18.294 17.05-2.1022 4.6414-.5566 9.7042 3.7397 12.312 7.8496 4.7648 18.559 7.389 30.142 7.389 13.066 0 25.41-3.187 33.013-8.525 2.8781-2.0211 4.5644-5.9236 4.007-9.2796-.849-5.1155-4.1784-8.4032-7.3245-10.944-1.724-1.3962-3.5668-2.7586-6.1005-4.2837-4.2208-2.5408-9.8213-4.5423-14.538-5.709v-14.29c0-.0205.6069-.0622.978-.125 16.542-2.7995 27.602-13.816 30.47-30.223.5613-3.2106-.3569-6.4842-2.4559-8.9817-2.0708-2.4638-5.1194-3.8781-8.3017-3.8781z"
    fill="url(#a)"
  />
</svg>
