<?xml version="1.0" encoding="UTF-8" standalone="no"?>
<!-- Created with Inkscape (http://www.inkscape.org/) -->
<svg xmlns:dc="http://purl.org/dc/elements/1.1/" xmlns:cc="http://web.resource.org/cc/" xmlns:rdf="http://www.w3.org/1999/02/22-rdf-syntax-ns#" xmlns:svg="http://www.w3.org/2000/svg" xmlns="http://www.w3.org/2000/svg" xmlns:xlink="http://www.w3.org/1999/xlink" xmlns:sodipodi="http://sodipodi.sourceforge.net/DTD/sodipodi-0.dtd" xmlns:inkscape="http://www.inkscape.org/namespaces/inkscape" viewBox="0 0 793.15332 345.95935" id="svg2" inkscape:label="Pozad  " sodipodi:version="0.32" inkscape:version="0.44.1" sodipodi:docbase="D:\_petr_\School\INKSCAPE\svg\05.Ovoce, zelenina, jidlo" sodipodi:docname="okurka.svg" version="1.0">
  <defs id="defs3">
    <linearGradient inkscape:collect="always" id="linearGradient2832">
      <stop style="stop-color: rgb(202, 192, 192); stop-opacity: 1;" offset="0" id="stop2834"/>
      <stop style="stop-color: rgb(202, 192, 192); stop-opacity: 0;" offset="1" id="stop2836"/>
    </linearGradient>
    <linearGradient id="linearGradient2892">
      <stop style="stop-color: rgb(204, 204, 204); stop-opacity: 1;" offset="0" id="stop2894"/>
      <stop id="stop2830" offset="0" style="stop-color: rgb(204, 204, 204); stop-opacity: 0.498039;"/>
      <stop style="stop-color: rgb(204, 204, 204); stop-opacity: 0;" offset="1" id="stop2896"/>
    </linearGradient>
    <linearGradient inkscape:collect="always" xlink:href="#linearGradient2892" id="linearGradient2898" x1="197.84694" y1="534.33893" x2="456.82022" y2="534.33893" gradientUnits="userSpaceOnUse" gradientTransform="matrix(0.582615, 0, 0, 0.86069, 92.5388, 76.4782)"/>
    <radialGradient inkscape:collect="always" xlink:href="#linearGradient2832" id="radialGradient2838" cx="515.03491" cy="306.60938" fx="515.03491" fy="306.60938" r="340.3076" gradientTransform="matrix(0.884555, -0.259268, 0.0666178, 0.227283, 39.0327, 370.454)" gradientUnits="userSpaceOnUse"/>
  </defs>
  <sodipodi:namedview id="base" pagecolor="#ffffff" bordercolor="#666666" borderopacity="1.0" inkscape:pageopacity="0.0" inkscape:pageshadow="2" inkscape:zoom="0.49032549" inkscape:cx="372.04724" inkscape:cy="496.05025" inkscape:document-units="px" inkscape:current-layer="layer1" inkscape:window-width="1024" inkscape:window-height="712" inkscape:window-x="-4" inkscape:window-y="-4" width="1052.3622px" height="744.09448px"/>
  <metadata id="metadata6">
    <rdf:RDF>
      <cc:Work rdf:about="">
        <dc:format>image/svg+xml</dc:format>
        <dc:type rdf:resource="http://purl.org/dc/dcmitype/StillImage"/>
        <dc:title>okurka</dc:title>
        <dc:date>13.11.2006</dc:date>
        <dc:creator>
          <cc:Agent>
            <dc:title>Petra Thurlova</dc:title>
          </cc:Agent>
        </dc:creator>
        <dc:publisher>
          <cc:Agent>
            <dc:title>ZS a MS Machovo namesti</dc:title>
          </cc:Agent>
        </dc:publisher>
        <dc:language>cz</dc:language>
        <dc:subject>
          <rdf:Bag>
            <rdf:li>okurka</rdf:li>
            <rdf:li>cuke</rdf:li>
          </rdf:Bag>
        </dc:subject>
        <cc:license rdf:resource="http://web.resource.org/cc/PublicDomain"/>
      </cc:Work>
      <cc:License rdf:about="http://web.resource.org/cc/PublicDomain">
        <cc:permits rdf:resource="http://web.resource.org/cc/Reproduction"/>
        <cc:permits rdf:resource="http://web.resource.org/cc/Distribution"/>
        <cc:permits rdf:resource="http://web.resource.org/cc/DerivativeWorks"/>
      </cc:License>
    </rdf:RDF>
  </metadata>
  <g inkscape:label="Vrstva 1" inkscape:groupmode="layer" id="layer1" transform="translate(-131.987, -176.976)">
    <g id="g2840">
      <path sodipodi:nodetypes="csssssssc" id="path1871" d="M 564.11739,471.40979 C 455.16267,501.8826 342.82107,522.25825 265.85149,522.5149 C 188.88189,522.77154 142.34113,485.235 133.92785,455.15352 C 125.51457,425.07206 151.79113,373.52197 217.72591,333.81065 C 283.66069,294.09933 385.409,252.48021 494.36371,222.0074 C 603.31844,191.53459 715.15057,177.65366 792.12018,177.39702 C 869.08977,177.14037 915.0415,204.2546 923.45478,234.33606 C 931.86806,264.41754 898.02149,313.85001 832.08671,353.56133 C 766.15192,393.27264 673.07211,440.93698 564.11739,471.40979 z " style="fill: rgb(43, 110, 66); fill-opacity: 1; fill-rule: nonzero; stroke: black; stroke-width: 0.83834; stroke-miterlimit: 4; stroke-opacity: 1;"/>
      <path id="path2777" d="M 741.6524,235.4163 C 740.57439,235.10992 728.67283,238.4013 721.46218,238.94544" style="fill: none; fill-rule: evenodd; stroke: black; stroke-width: 1px; stroke-linecap: butt; stroke-linejoin: miter; stroke-opacity: 1;"/>
      <path id="path2779" d="M 683.57961,300.36596 C 672.45383,303.47766 646.61737,310.70368 628.58511,315.74701" style="fill: none; fill-rule: evenodd; stroke: black; stroke-width: 1px; stroke-linecap: butt; stroke-linejoin: miter; stroke-opacity: 1;"/>
      <path id="path2781" d="M 536.82224,343.52928 C 529.14511,345.67644 504.83966,350.92805 492.19751,358.12779" style="fill: none; fill-rule: evenodd; stroke: black; stroke-width: 1px; stroke-linecap: butt; stroke-linejoin: miter; stroke-opacity: 1;"/>
      <path id="path2783" d="M 525.78913,463.08996 C 514.84685,466.15033 489.56949,471.10226 472.20939,475.95759" style="fill: none; fill-rule: evenodd; stroke: black; stroke-width: 1px; stroke-linecap: butt; stroke-linejoin: miter; stroke-opacity: 1;"/>
      <path id="path2787" d="M 502.19935,272.73914 C 491.98276,270.76441 456.20003,285.60438 439.3485,290.31747" style="fill: none; fill-rule: evenodd; stroke: black; stroke-width: 1px; stroke-linecap: butt; stroke-linejoin: miter; stroke-opacity: 1;"/>
      <path id="path2793" d="M 843.4378,319.18808 C 838.56805,318.5183 825.36281,328.4788 815.07511,331.35609" style="fill: none; fill-rule: evenodd; stroke: black; stroke-width: 1px; stroke-linecap: butt; stroke-linejoin: miter; stroke-opacity: 1;"/>
      <path id="path2795" d="M 384.00677,418.03509 C 373.71106,419.26256 364.29301,421.43097 353.9961,424.31084" style="fill: none; fill-rule: evenodd; stroke: black; stroke-width: 1px; stroke-linecap: butt; stroke-linejoin: miter; stroke-opacity: 1;"/>
      <path id="path2797" d="M 285.73495,407.40101 C 277.9146,412.41617 240.52962,415.80873 219.82135,421.60049" style="fill: none; fill-rule: evenodd; stroke: black; stroke-width: 1px; stroke-linecap: butt; stroke-linejoin: miter; stroke-opacity: 1;"/>
      <path id="path2799" d="M 386.00196,311.59078 C 373.56273,315.06983 361.1235,318.54887 348.68427,322.02792" style="fill: none; fill-rule: evenodd; stroke: black; stroke-width: 1px; stroke-linecap: butt; stroke-linejoin: miter; stroke-opacity: 1;"/>
      <path id="path2801" d="M 420.04443,486.31181 C 418.41832,486.7666 402.60882,491.18825 394.51127,493.453" style="fill: none; fill-rule: evenodd; stroke: black; stroke-width: 1px; stroke-linecap: butt; stroke-linejoin: miter; stroke-opacity: 1;"/>
      <path id="path2803" d="M 295.69012,480.85484 C 295.39876,480.93632 280.8111,485.01625 270.15696,487.99603" style="fill: none; fill-rule: evenodd; stroke: black; stroke-width: 1px; stroke-linecap: butt; stroke-linejoin: miter; stroke-opacity: 1;"/>
      <path id="path2805" d="M 649.77551,383.94081 C 649.36053,384.05687 633.45355,388.50578 622.27825,391.63133" style="fill: none; fill-rule: evenodd; stroke: black; stroke-width: 1px; stroke-linecap: butt; stroke-linejoin: miter; stroke-opacity: 1;"/>
      <path id="path2807" d="M 623.72413,283.22294 C 621.15971,283.94016 605.11686,288.42708 596.22687,290.91346" style="fill: none; fill-rule: evenodd; stroke: black; stroke-width: 1px; stroke-linecap: butt; stroke-linejoin: miter; stroke-opacity: 1;"/>
      <path id="path2809" d="M 577.15086,245.42328 C 570.95126,247.15721 550.40396,252.90394 537.86908,256.40974" style="fill: none; fill-rule: evenodd; stroke: black; stroke-width: 1px; stroke-linecap: butt; stroke-linejoin: miter; stroke-opacity: 1;"/>
      <path id="path2811" d="M 679.7499,233.66985 C 679.26866,233.80445 658.89777,239.50184 646.36038,243.00834" style="fill: none; fill-rule: evenodd; stroke: black; stroke-width: 1px; stroke-linecap: butt; stroke-linejoin: miter; stroke-opacity: 1;"/>
      <path id="path2813" d="M 742.17061,343.27537 C 739.71706,343.96158 715.22767,350.81085 700.92474,354.81115" style="fill: none; fill-rule: evenodd; stroke: black; stroke-width: 1px; stroke-linecap: butt; stroke-linejoin: miter; stroke-opacity: 1;"/>
      <path id="path2815" d="M 815.63999,280.3727 C 803.20076,283.85175 790.76153,287.33079 778.3223,290.80983" style="fill: none; fill-rule: evenodd; stroke: black; stroke-width: 1px; stroke-linecap: butt; stroke-linejoin: miter; stroke-opacity: 1;"/>
      <path id="path2817" d="M 845.89941,229.55513 C 844.8245,229.85576 831.56239,233.56495 824.29443,235.59768" style="fill: none; fill-rule: evenodd; stroke: black; stroke-width: 1px; stroke-linecap: butt; stroke-linejoin: miter; stroke-opacity: 1;"/>
      <path id="path2819" d="M 586.37532,399.55505 C 584.37178,398.25594 565.10299,403.38685 552.43649,406.92945" style="fill: none; fill-rule: evenodd; stroke: black; stroke-width: 1px; stroke-linecap: butt; stroke-linejoin: miter; stroke-opacity: 1;"/>
      <path id="path2821" d="M 442.54596,369.89678 C 435.999,371.72785 429.45203,373.55893 422.90507,375.39" style="fill: none; fill-rule: evenodd; stroke: black; stroke-width: 1px; stroke-linecap: butt; stroke-linejoin: miter; stroke-opacity: 1;"/>
      <path id="path2823" d="M 479.68226,442.10167 C 469.69976,444.29181 459.88151,447.67612 450.77025,452.3056" style="fill: none; fill-rule: evenodd; stroke: black; stroke-width: 1px; stroke-linecap: butt; stroke-linejoin: miter; stroke-opacity: 1;"/>
      <path id="path2825" d="M 332.09056,383.84749 C 326.19527,373.53388 307.76387,380.06263 301.84669,381.71756" style="fill: none; fill-rule: evenodd; stroke: black; stroke-width: 1px; stroke-linecap: butt; stroke-linejoin: miter; stroke-opacity: 1;"/>
      <path id="path2827" d="M 267.60729,342.58607 C 253.07067,346.65172 240.58192,356.49778 226.04529,360.56343" style="fill: none; fill-rule: evenodd; stroke: black; stroke-width: 1px; stroke-linecap: butt; stroke-linejoin: miter; stroke-opacity: 1;"/>
      <path id="path2829" d="M 221.76989,473.99866 C 218.83063,474.82072 197.66913,478.62151 187.83105,481.37305" style="fill: none; fill-rule: evenodd; stroke: black; stroke-width: 1px; stroke-linecap: butt; stroke-linejoin: miter; stroke-opacity: 1;"/>
      <path id="path2831" d="M 177.71004,437.61376 C 177.52308,437.66605 169.9174,439.79323 163.96141,441.45902" style="fill: none; fill-rule: evenodd; stroke: black; stroke-width: 1px; stroke-linecap: butt; stroke-linejoin: miter; stroke-opacity: 1;"/>
      <path id="path2833" d="M 493.13032,391.7505 C 492.97351,391.79436 485.24946,393.95465 479.38169,395.59577" style="fill: none; fill-rule: evenodd; stroke: black; stroke-width: 1px; stroke-linecap: butt; stroke-linejoin: miter; stroke-opacity: 1;"/>
      <path id="path2835" d="M 774.01063,260.24985 C 770.88773,261.12327 754.88315,265.45069 747.0627,269.90445" style="fill: none; fill-rule: evenodd; stroke: black; stroke-width: 1px; stroke-linecap: butt; stroke-linejoin: miter; stroke-opacity: 1;"/>
      <path id="path2837" d="M 882.41903,261.69572 C 882.03798,261.80229 876.88396,263.24379 870.63449,264.99166" style="fill: none; fill-rule: evenodd; stroke: black; stroke-width: 1px; stroke-linecap: butt; stroke-linejoin: miter; stroke-opacity: 1;"/>
      <path id="path2839" d="M 700.9921,392.91137 C 696.23337,394.24231 678.55254,399.18734 667.60258,402.24986" style="fill: none; fill-rule: evenodd; stroke: black; stroke-width: 1px; stroke-linecap: butt; stroke-linejoin: miter; stroke-opacity: 1;"/>
      <path id="path2841" d="M 789.10666,215.79095 C 784.47726,217.08572 779.57469,217.04507 774.80871,217.67213" style="fill: none; fill-rule: evenodd; stroke: black; stroke-width: 1px; stroke-linecap: butt; stroke-linejoin: miter; stroke-opacity: 1;"/>
      <path id="path2843" d="M 621.22627,228.86068 C 620.73886,228.997 608.18878,232.50705 601.58537,234.35391" style="fill: none; fill-rule: evenodd; stroke: black; stroke-width: 1px; stroke-linecap: butt; stroke-linejoin: miter; stroke-opacity: 1;"/>
      <path style="opacity: 0.303738; fill: url(&quot;#radialGradient2838&quot;) rgb(0, 0, 0); fill-opacity: 1; fill-rule: nonzero; stroke: none; stroke-width: 0.83834; stroke-miterlimit: 4; stroke-opacity: 1;" d="M 535.72203,377.45481 C 441.94578,403.68246 346.05114,424.06794 281.33845,429.7745 C 216.62573,435.48107 180.21499,416.21146 175.31328,398.68553 C 170.41157,381.1596 196.21579,348.19044 254.49945,319.49697 C 312.78311,290.8035 401.30622,258.37678 495.08246,232.14914 C 588.85871,205.92149 683.85668,189.48771 748.5694,183.78115 C 813.28211,178.07458 849.94951,191.10422 854.85122,208.63015 C 859.75293,226.15607 827.73874,258.3948 769.45509,287.08826 C 711.17142,315.78173 629.49827,351.22717 535.72203,377.45481 z " id="path2005" sodipodi:nodetypes="csssssssc"/>
    </g>
  </g>
</svg>
