<svg version="1.1" viewBox="0 0 611 480" xmlns="http://www.w3.org/2000/svg" xmlns:xlink="http://www.w3.org/1999/xlink">
  <defs>
    <rect id="d" width="611.43" height="480.22"/>
  </defs>
  <clipPath id="b">
    <use overflow="visible" xlink:href="#d"/>
  </clipPath>
  <path d="m458.26 307.34c10.539-6.415 17.958-17.35 17.359-27.096l56.323-63.531c8.971 0.784 17.737-2.74 22.012-2.521 8.582 0.758 8.019-1.382 17.543 1.358 9.553 2.916 8.01 4.494 13.262 5.251 5.464 0.784 13.456-2.926 14.619-6.415 3.11-9.561 1.568-6.449-1.35-11.693 7.385 0 14.61-7.613 13.236-15.597-1.551-8.203-4.476-11.886-11.509-15.402 3.137-2.547 10.53-10.53 4.115-19.871-7.604-10.714-13.455-3.709-24.364-6.626-11.314-2.925-11.314 0-14.046-9.182-2.521-9.146 5.058-5.631 2.538-16.944-6.625-29.616-31.175-24.171-38.189-18.513-2.925 2.545-1.568 5.842 0.379 8.96 3.516 6.441 7.799 30.4 6.636 40.93-1.384 12.284-5.473 10.151-11.129 23.007-5.631 13.041-3.111 26.311-3.904 34.673l-46.771 60.826c-1.947-8.96-17.323-9.366-30.4-9.56l13.64 47.946" clip-path="url(#b)" clip-rule="evenodd" fill-rule="evenodd"/>
  <path d="m182.48 233.87c-19.87-3.11-26.879 1.551-28.637 7.992-13.076-1.762-54.385 10.909-61.8 16.566-7.389 5.656-10.503 30.02-11.693 36.436-1.164 6.441-2.925-4.283-9.935 2.731-6.82 7.014 1.568 6.256-2.736 9.931-4.084 3.709-3.111-2.705-10.31 2.926-7.42 5.472-2.926 4.309-8.961 10.723-6.252 6.627-37.625-7.393-42.877-6.414-5.089 0.783-9.178 17.351-0.406 20.654 8.957 3.296 30.616 7.604 38.004 8.952-6.036 5.278-25.906 11.888-30.02 16.972-4.278 5.252-8.363 12.864-6.037 15.597 2.137 2.925 11.314 5.251 23.007 5.251 11.697 0 19.87-18.327 28.263-14.019 8.362 4.08 1.947 31.562 1.758 37.599 0 6.036-1.379 11.878 8.367 11.878 9.93 0 9.552-1.727 13.83-12.663 4.115-10.908-1.542-34.108 7.041-40.338 8.362-6.037 6.036-7.411 13.64-4.09 7.393 3.12 0.974 6.23 9.936 10.725 23.196 11.692 32.347-6.635 32.726-23.008 0-7.991-7.389-8.582-10.314-8.582-2.731 0-5.062 4.301-9.746 4.301-4.868 0-9.552-3.71-16.566-10.337-6.82-6.635-10.34-8.961-10.34-12.478 0-3.304 1.952 0.97 2.357-7.013 0.378-7.984-5.657-6.037-5.089-14.618 0.406-8.583 7.794-31.186 11.125-37.405 6.631-3.332 38.789-15.598 46.587-15.219 1.947 4.873 3.3 8.583 18.893 17.165l9.933-30.215" clip-path="url(#b)" clip-rule="evenodd" fill-rule="evenodd"/>
  <path d="m333.53 9.146c-33.921 32.153-85.948 99.8-106.03 138-20.25 38.189-49.703 102.5-61.775 146.18-11.881 43.847-27.879 102.51-28.853 130.58-0.978 28.074 0 48.13 20.082 47.151 20.276-0.97 15.593-11.094 63.721-34.674 48.16-23.792 74.061-30.427 126.5-18.134 52.437 12.283 65.293 58.279 84.969 56.333 19.703-1.957 32.568-40.552 32.375-107.99 0-67.427-49.134-174.44-60.413-202.69-11.13-28.064-50.49-116.56-70.572-154.75" clip-rule="evenodd" fill="#fff" fill-rule="evenodd"/>
  <path d="m333.53 9.146c-33.921 32.153-85.948 99.8-106.03 138-20.25 38.189-49.703 102.5-61.775 146.18-11.881 43.847-27.879 102.51-28.853 130.58-0.978 28.074 0 48.13 20.082 47.151 20.276-0.97 15.593-11.094 63.721-34.674 48.16-23.792 74.061-30.427 126.5-18.134 52.437 12.283 65.293 58.279 84.969 56.333 19.703-1.957 32.568-40.552 32.375-107.99 0-67.427-49.134-174.44-60.413-202.69-11.13-28.064-50.49-116.56-70.572-154.75z" fill="none" stroke="#000" stroke-miterlimit="2.613" stroke-width="1.239"/>
  <path d="m334.49 7.2008c-67.431 55.733-130.57 170.15-159.61 255.72 57.117-33.73 225.89-22.416 272.86 7.983l-60.184-147.34z" clip-rule="evenodd" fill-rule="evenodd"/>
  <defs>
    <path id="c" d="m306.84 165.06c-48.349-0.969-80.697 31.378-80.507 74.255 0 42.878 34.705 67.453 76.014 65.294 41.334-2.142 86.16-29.237 83.992-69.761-2.327-40.552-31.176-68.81-79.499-69.788"/>
  </defs>
  <clipPath id="a">
    <use overflow="visible" xlink:href="#c"/>
  </clipPath>
  <path d="m306.84 165.06c-48.349-0.969-80.697 31.378-80.507 74.255 0 42.878 34.705 67.453 76.014 65.294 41.334-2.142 86.16-29.237 83.992-69.761-2.327-40.552-31.176-68.81-79.499-69.788" clip-path="url(#a)" fill="#A90533"/>
  <path d="m274.86 206.9h22.69c0-12.54-10.161-22.708-22.69-22.708-12.525 0-22.693 10.168-22.693 22.708 0 12.521 10.168 22.689 22.693 22.689 12.53 0 22.69-10.168 22.69-22.689" clip-path="url(#a)" fill="#fff"/>
  <g fill="none" stroke-linejoin="round" stroke-miterlimit="2.613">
    <path d="m306.84 165.06c-48.349-0.969-80.697 31.378-80.507 74.255 0 42.878 34.705 67.453 76.014 65.294 41.334-2.142 86.16-29.237 83.992-69.761-2.327-40.552-31.176-68.81-79.499-69.788z" stroke="#000" stroke-width="1.745"/>
    <g stroke="#808285" stroke-linecap="round">
      <path d="m594.7 147.71c-10.134 0.784-40.744 1.383-32.947 19.712" stroke-width=".498"/>
      <path d="m598.21 171.69c-31.591-2.547-45.019 5.851-34.109 18.893" stroke-width=".389"/>
      <path d="m596.07 201.9c-10.715-4.679-39.388-11.499-35.862 7.798" stroke-width=".444"/>
    </g>
  </g>
</svg>
