<?xml version="1.0" encoding="UTF-8" standalone="no"?>
<!-- Created with Inkscape (http://www.inkscape.org/) -->

<svg
   xmlns:dc="http://purl.org/dc/elements/1.1/"
   xmlns:cc="http://creativecommons.org/ns#"
   xmlns:rdf="http://www.w3.org/1999/02/22-rdf-syntax-ns#"
   xmlns:svg="http://www.w3.org/2000/svg"
   xmlns="http://www.w3.org/2000/svg"
   xmlns:sodipodi="http://sodipodi.sourceforge.net/DTD/sodipodi-0.dtd"
   xmlns:inkscape="http://www.inkscape.org/namespaces/inkscape"
   version="1.1"
   inkscape:version="0.48.0 r9654"
   xml:space="preserve"
   sodipodi:docname="svg.svg"
   viewBox="0 0 494.55264 419.97525"
   width="100%"
   height="100%"
   id="svg12735"><metadata
     id="metadata2991"><rdf:RDF><cc:Work
         rdf:about=""><dc:format>image/svg+xml</dc:format><dc:type
           rdf:resource="http://purl.org/dc/dcmitype/StillImage" /><dc:title /></cc:Work></rdf:RDF></metadata><defs
     id="defs2989"><clipPath
       clipPathUnits="userSpaceOnUse"
       id="clipPath3001"><path
         d="m 0,0 1630,0 0,1386.75 -1630,0 L 0,0 z"
         id="path3003"
         inkscape:connector-curvature="0" /></clipPath></defs><sodipodi:namedview
     pagecolor="#ffffff"
     bordercolor="#666666"
     borderopacity="1"
     objecttolerance="10"
     gridtolerance="10"
     guidetolerance="10"
     inkscape:pageopacity="0"
     inkscape:pageshadow="2"
     inkscape:window-width="1280"
     inkscape:window-height="718"
     id="namedview2987"
     showgrid="false"
     inkscape:zoom="0.98921015"
     inkscape:cx="211.81689"
     inkscape:cy="195.20622"
     inkscape:window-x="-8"
     inkscape:window-y="-8"
     inkscape:window-maximized="1"
     inkscape:current-layer="g2993"
     fit-margin-top="0"
     fit-margin-left="0"
     fit-margin-right="0"
     fit-margin-bottom="0" /><g
     id="g2993"
     inkscape:groupmode="layer"
     inkscape:label="NattyBoh"
     transform="matrix(1.25,0,0,-1.25,4.0381764,418.23459)"><g
       id="g8227"><path
         sodipodi:nodetypes="sccsssscs"
         inkscape:connector-curvature="0"
         d="m 305.20904,187.64014 c 0,29.12179 -23.83418,52.72968 -53.23513,52.72968 -4.83697,-2.7e-4 -10.15036,-1.27781 -13.51853,-2.48159 -36.1277,56.84894 -98.97858,94.47415 -170.46664,94.47415 -112.03066,0 -202.84944,-92.40289 -202.84944,-206.38762 0,-113.984733 90.81878,-206.387617 202.84944,-206.387617 112.03065,0 202.84944,92.402884 202.84944,206.387617 0,3.9993 -0.10811,7.96588 -0.45421,12.00048 20.42916,7.40247 34.82507,26.78762 34.82507,49.6649 z"
         style="fill:#694237;fill-opacity:1;stroke:black;stroke-width:7.19999981;stroke-linecap:round;stroke-linejoin:round;stroke-miterlimit:4;stroke-opacity:1;stroke-dashoffset:0"
         transform="matrix(0.8,0,0,-0.8,145.36434,267.37739)"
         id="path7372-5" /><path
         sodipodi:nodetypes="scsscssscscccscsccsscccscccccc"
         inkscape:connector-curvature="0"
         id="path8164"
         transform="matrix(0.8,0,0,-0.8,0,332.82)"
         d="M 250.6875,-0.40625 C 206.6192,0.05225073 175.84375,15 175.84375,15 c 0,0 -22.83158,-20.081092 -52.90625,-3.5625 -22.91273,12.584878 -4.66751,35.530489 7.875,42.875 29.21668,17.108398 87.97574,-11.241051 91.5,-14.28125 0.84369,8.039504 1.75499,23.437522 52.90625,42.875 53.61147,20.37236 76.8455,0.326061 74.3125,-15 C 346.56612,49.965603 310.19569,42.608851 294.5,56.125 c -22.22399,19.137915 9.65625,33.59375 9.65625,33.59375 -13.40229,-3.578717 -34.4388,-22.983337 -13.59375,-37.90625 20.69229,-14.81355 53.18945,-6.515884 73.625,13.59375 25.43929,15.820717 59.03995,69.98668 60.78125,87.9375 -4.43699,-15.82313 -39.38573,-70.144932 -64.8125,-82.46875 -0.0538,3.691535 1.21089,10.176709 -5.90625,17.15625 -8.03697,7.881584 -10.89928,6.80004 -16.26762,8.292158 15.93698,10.184002 40.95046,30.997432 56.33012,56.426592 14.86282,24.57461 20.89774,48.87581 18.6875,69.3125 l 46.375,0.15625 c 2.9697,-56.88104 -21.17752,-168.231941 -142,-211.5 -23.88247,-8.5526131 -46.65645,-11.33340942 -66.6875,-11.125 z M 370.28125,94.375 c -3.984,3.345 -9.93925,6.29975 -13.28125,6.59375 -3.342,0.291 -2.82775,-2.18925 1.15625,-5.53125 3.987,-3.345 9.93045,-6.72311 13.28125,-6.5625 4.00476,0.191955 -0.65557,5.071197 -1.15625,5.5 z m 13.28125,6.59375 c 3.345,-0.294 2.83075,2.18625 -1.15625,5.53125 -3.984,3.342 -9.93625,6.29975 -13.28125,6.59375 -3.345,0.291 -2.82775,-2.18625 1.15625,-5.53125 3.987,-3.345 9.93925,-6.30275 13.28125,-6.59375 z"
         style="fill:#0a0604;fill-opacity:1;stroke:black;stroke-width:1px;stroke-linecap:butt;stroke-linejoin:miter;stroke-opacity:1" /><path
         d="m 271.6824,192.25968 c 0,24.80352 -20.1288,44.9316 -44.93208,44.9316 -24.8016,0 -44.93064,-20.12808 -44.93064,-44.9316 0,-24.80064 20.12904,-44.92968 44.93064,-44.92968 24.80328,0 44.93208,20.12904 44.93208,44.92968 l 0,0"
         style="fill:#7a7b7d;fill-opacity:1;fill-rule:nonzero;stroke:none"
         id="path3139"
         inkscape:connector-curvature="0" /><path
         d="m 267.144,192.25968 c 0,22.29648 -18.096,40.39224 -40.39368,40.39224 -22.29552,0 -40.39032,-18.09576 -40.39032,-40.39224 0,-22.29456 18.0948,-40.38936 40.39032,-40.38936 22.29768,0 40.39368,18.0948 40.39368,40.38936 l 0,0"
         style="fill:white;fill-opacity:1;fill-rule:nonzero;stroke:none"
         id="path3141"
         inkscape:connector-curvature="0" /><path
         d="m 254.2176,190.6452 c 0,19.62 -15.92472,35.54352 -35.54472,35.54352 -19.62,0 -35.54352,-15.92352 -35.54352,-35.54352 0,-19.62 15.92352,-35.54424 35.54352,-35.54424 19.62,0 35.54472,15.92424 35.54472,35.54424 l 0,0"
         style="fill:#7a7b7d;fill-opacity:1;fill-rule:nonzero;stroke:none"
         id="path3205"
         inkscape:connector-curvature="0" /><path
         transform="matrix(0.8,0,0,-0.8,25.398519,342.54154)"
         d="m 305.20904,187.64014 c 0,29.12179 -23.83418,52.72968 -53.23513,52.72968 -29.40095,0 -53.23513,-23.60789 -53.23513,-52.72968 0,-29.1218 23.83418,-52.72968 53.23513,-52.72968 29.40095,0 53.23513,23.60788 53.23513,52.72968 z"
         sodipodi:ry="52.729679"
         sodipodi:rx="53.23513"
         sodipodi:cy="187.64014"
         sodipodi:cx="251.97391"
         id="path7372"
         style="fill:none;stroke:black;stroke-width:7.19999981;stroke-linecap:round;stroke-linejoin:round;stroke-miterlimit:4;stroke-opacity:1;stroke-dasharray:none;stroke-dashoffset:0"
         sodipodi:type="arc" /><path
         transform="matrix(0.8,0,0,-0.8,17.181266,340.16273)"
         d="m 294.59451,187.64014 c 0,24.93448 -19.08189,45.14787 -42.6206,45.14787 -23.53871,0 -42.6206,-20.21339 -42.6206,-45.14787 0,-24.93448 19.08189,-45.14788 42.6206,-45.14788 23.53871,0 42.6206,20.2134 42.6206,45.14788 z"
         sodipodi:ry="45.147873"
         sodipodi:rx="42.620602"
         sodipodi:cy="187.64014"
         sodipodi:cx="251.97391"
         id="path7372-3"
         style="fill:black;fill-opacity:1;stroke:black;stroke-width:7.19999981;stroke-linecap:round;stroke-linejoin:round;stroke-miterlimit:4;stroke-opacity:1;stroke-dasharray:none;stroke-dashoffset:0"
         sodipodi:type="arc" /><path
         sodipodi:nodetypes="ccc"
         transform="matrix(0.8,0,0,-0.8,0,332.82)"
         inkscape:connector-curvature="0"
         id="path8162"
         d="m 222.90511,330.09785 c -19.4173,9.98584 -35.24168,6.04912 -49.28174,-4.80181 -0.84017,16.60924 36.7812,38.33233 49.28174,4.80181 z"
         style="fill:white;fill-opacity:1;stroke:black;stroke-width:4.5;stroke-linecap:butt;stroke-linejoin:bevel;stroke-miterlimit:4;stroke-opacity:1;stroke-dasharray:none" /><path
         sodipodi:nodetypes="cscscscsc"
         transform="matrix(0.8,0,0,-0.8,0,332.82)"
         inkscape:connector-curvature="0"
         id="path8160"
         d="m -3.5381764,295.22155 c 24.4155874,17.26824 63.3553624,-8.72835 96.5416704,-44.98539 53.160506,-58.07946 88.959866,4.04363 88.959866,4.04363 4.5898,-7.97703 44.29239,-37.52109 76.82898,-4.54909 42.42675,42.99453 129.40481,119.76436 171.85427,80.36715 -11.6341,34.9045 -84.35359,42.22835 -170.84337,19.7127 -39.79493,-10.35971 -72.19436,-20.31916 -81.88351,-43.97448 -4.23609,24.357 -103.126007,37.65202 -143.04342,18.19634 C 22.147046,317.82819 7.4060696,312.43488 -3.5381764,295.22155 z"
         style="fill:#0a0604;fill-opacity:1;stroke:black;stroke-width:1px;stroke-linecap:butt;stroke-linejoin:miter;stroke-opacity:1" /></g></g></svg>