<?xml version="1.0" standalone="no"?>
<!--Created with Inkscape (http://www.inkscape.org/)-->
<svg xmlns="http://www.w3.org/2000/svg" xmlns:xlink="http://www.w3.org/1999/xlink" viewBox="0 0 48 48">
  <defs>
    <linearGradient id="h">
      <stop offset="0" stop-color="#fff" stop-opacity="1"/>
      <stop offset="0.50000000" stop-color="#e6e6e6" stop-opacity="1"/>
      <stop offset="0.75000000" stop-color="#fff" stop-opacity="1"/>
      <stop offset="0.84166664" stop-color="#e1e1e1" stop-opacity="1"/>
      <stop offset="1.0000000" stop-color="#fff" stop-opacity="1"/>
    </linearGradient>
    <linearGradient id="g">
      <stop offset="0.0000000" stop-color="#fff" stop-opacity=".25490198"/>
      <stop offset="1.0000000" stop-color="#fff" stop-opacity="1"/>
    </linearGradient>
    <linearGradient id="f">
      <stop offset="0" stop-color="#000" stop-opacity="1"/>
      <stop offset="1" stop-color="#000" stop-opacity="0"/>
    </linearGradient>
    <linearGradient id="e">
      <stop offset="0" stop-color="#fff" stop-opacity="1"/>
      <stop offset="1.0000000" stop-color="#989898" stop-opacity="1"/>
    </linearGradient>
    <linearGradient id="d">
      <stop offset="0.0000000" stop-color="#e4e4e4" stop-opacity="1"/>
      <stop offset="1.0000000" stop-color="#d3d3d3" stop-opacity="1"/>
    </linearGradient>
    <linearGradient id="c">
      <stop offset="0" stop-color="#eee" stop-opacity="1"/>
      <stop offset="1" stop-color="#eee" stop-opacity="0"/>
    </linearGradient>
    <linearGradient id="b">
      <stop offset="0.0000000" stop-color="#bbb" stop-opacity="1"/>
      <stop offset="1.0000000" stop-color="#9f9f9f" stop-opacity="1"/>
    </linearGradient>
    <linearGradient id="a">
      <stop offset="0.0000000" stop-color="#838383" stop-opacity="1"/>
      <stop offset="1.0000000" stop-color="#bbb" stop-opacity="0"/>
    </linearGradient>
    <linearGradient gradientTransform="translate(0.795493,-1.325821)" y2="35.281250" x2="24.687500" y1="35.281250" x1="7.0625000" gradientUnits="userSpaceOnUse" id="k" xlink:href="#a"/>
    <linearGradient gradientUnits="userSpaceOnUse" y2="40.943935" x2="36.183067" y1="28.481176" x1="7.6046205" id="i" xlink:href="#b"/>
    <linearGradient gradientUnits="userSpaceOnUse" y2="33.758667" x2="12.221823" y1="37.205811" x1="12.277412" id="l" xlink:href="#c"/>
    <radialGradient gradientUnits="userSpaceOnUse" gradientTransform="matrix(1.286242,0.781698,-0.710782,1.169552,-2.354348,-4.876862)" r="20.935817" fy="2.9585190" fx="15.571491" cy="2.9585190" cx="15.571491" id="j" xlink:href="#d"/>
    <linearGradient gradientUnits="userSpaceOnUse" y2="36.306927" x2="27.125538" y1="28.116465" x1="27.125538" id="n" xlink:href="#e"/>
    <radialGradient gradientUnits="userSpaceOnUse" gradientTransform="matrix(1.000000,0.000000,0.000000,0.651032,-1.442531e-16,9.455693)" r="23.555494" fy="27.096155" fx="23.201941" cy="27.096155" cx="23.201941" xlink:href="#f"/>
    <linearGradient gradientUnits="userSpaceOnUse" y2="26.357183" x2="23.688078" y1="11.318835" x1="23.688078" id="m" xlink:href="#g"/>
    <linearGradient xlink:href="#h" id="o" x1="33.431175" y1="31.964777" x2="21.747974" y2="11.780679" gradientUnits="userSpaceOnUse"/>
  </defs>
  <metadata/>
  <rect style="marker:none" width="48.083263" height="6.7175117" x="0.17677665" y="36.15596" rx="3.4214847" ry="3.3587558" opacity=".2" color="#000" fill="#000" fill-opacity="1" fill-rule="evenodd" stroke="none" stroke-width="1" stroke-linecap="round" stroke-linejoin="round" marker-start="none" marker-mid="none" marker-end="none" stroke-miterlimit="4" stroke-dasharray="none" stroke-dashoffset="0" stroke-opacity="1" visibility="visible" display="inline" overflow="visible"/>
  <path d="M 11.285690,7.9626278 C 10.660690,7.9626278 10.254441,8.2528080 10.004442,8.8063808 C 10.004441,8.8063808 3.5356915,25.909938 3.5356915,25.909938 C 3.5356915,25.909938 3.2856915,26.581497 3.2856915,27.691188 C 3.2856915,27.691188 3.2856915,37.341156 3.2856915,37.341156 C 3.2856915,38.423769 3.9434770,38.966158 4.9419415,38.966156 L 43.504440,38.966156 C 44.489293,38.966156 45.098190,38.247976 45.098190,37.122406 L 45.098190,27.472438 C 45.098190,27.472438 45.204153,26.702015 45.004440,26.159938 L 38.285690,8.9626314 C 38.101165,8.4507246 37.648785,7.9745331 37.160690,7.9626278 L 11.285690,7.9626278 z " stroke-opacity="1" stroke-dasharray="none" stroke-miterlimit="4" stroke-linejoin="round" stroke-linecap="round" stroke-width="4" stroke="#000" fill-rule="evenodd" fill-opacity="1" fill="none"/>
  <path d="M 3.2735915,26.996812 L 4.0381936,26.304597 L 41.647883,26.367097 L 45.110290,26.684395 L 45.110290,37.122927 C 45.110290,38.248496 44.503272,38.966258 43.518419,38.966258 L 4.9354314,38.966258 C 3.9369667,38.966258 3.2735915,38.424207 3.2735915,37.341594 L 3.2735915,26.996812 z " fill="url(#i)" fill-opacity="1" fill-rule="evenodd" stroke="none" stroke-width="1.020443px" stroke-linecap="butt" stroke-linejoin="miter" stroke-opacity="1"/>
  <path d="M 3.5490842,25.914404 C 2.8347985,27.378690 3.5484686,28.307261 4.5847985,28.307261 C 4.5847985,28.307261 43.584797,28.307261 43.584797,28.307261 C 44.703844,28.283451 45.430035,27.295356 45.013368,26.164403 L 38.299082,8.9537044 C 38.114558,8.4417976 37.644320,7.9656058 37.156225,7.9537008 L 11.299083,7.9537008 C 10.674083,7.9537008 10.263369,8.2572740 10.013370,8.8108468 C 10.013370,8.8108468 3.5490842,25.914404 3.5490842,25.914404 z " fill="url(#j)" fill-opacity="1" fill-rule="evenodd" stroke="none" stroke-width="1px" stroke-linecap="butt" stroke-linejoin="miter" stroke-opacity="1"/>
  <rect y="31.174183" x="7.8579960" height="5.5625000" width="17.625000" style="marker:none" opacity="1" color="#000" fill="url(#k)" fill-opacity="1" fill-rule="evenodd" stroke="none" stroke-width="2.4089999" stroke-linecap="round" stroke-linejoin="round" marker-start="none" marker-mid="none" marker-end="none" stroke-miterlimit="4" stroke-dasharray="none" stroke-dashoffset="0" stroke-opacity="1" visibility="visible" display="inline" overflow="visible"/>
  <path d="M 7.8579947,36.736680 C 7.8579947,36.736680 7.8579947,32.725195 7.8579947,32.725195 C 9.6935221,35.904421 16.154485,36.736680 20.795492,36.736680 C 20.795492,36.736680 7.8579947,36.736680 7.8579947,36.736680 z " opacity=".81142857" stroke-opacity="1" stroke-linejoin="miter" stroke-linecap="butt" stroke-width="1px" stroke="none" fill-rule="evenodd" fill-opacity="1" fill="url(#l)"/>
  <path d="M 44.796162,25.628688 C 44.859684,26.878662 44.382159,27.944528 43.474046,27.972438 C 43.474046,27.972438 5.3553296,27.972437 5.3553297,27.972438 C 4.0660978,27.972438 3.4875937,27.647491 3.2712790,27.104382 C 3.3630404,28.048714 4.0970964,28.753688 5.3553297,28.753688 C 5.3553296,28.753687 43.474046,28.753688 43.474046,28.753688 C 44.550053,28.720617 45.226851,27.329664 44.826210,25.758897 L 44.796162,25.628688 z " fill="#fff" fill-opacity="1" fill-rule="evenodd" stroke="none" stroke-width="1px" stroke-linecap="butt" stroke-linejoin="miter" stroke-opacity="1"/>
  <path d="M 10.968750 10.156250 C 10.922675 10.356571 10.781250 10.543047 10.781250 10.750000 C 10.781250 11.698605 11.372230 12.539474 12.125000 13.343750 C 12.365268 13.189675 12.490117 12.989342 12.750000 12.843750 C 11.809691 12.027746 11.196604 11.127168 10.968750 10.156250 z M 37.625000 10.156250 C 37.396273 11.125866 36.782988 12.028676 35.843750 12.843750 C 36.117894 12.997332 36.247738 13.211990 36.500000 13.375000 C 37.257262 12.568344 37.812500 11.701956 37.812500 10.750000 C 37.812500 10.543047 37.670906 10.356571 37.625000 10.156250 z M 39.812500 18.593750 C 39.198709 22.633861 32.513887 25.843750 24.281250 25.843750 C 16.068996 25.843751 9.4211001 22.650964 8.7812500 18.625000 C 8.7488928 18.822132 8.6562500 19.016882 8.6562500 19.218750 C 8.6562503 23.536697 15.645354 27.062501 24.281250 27.062500 C 32.917146 27.062500 39.937499 23.536698 39.937500 19.218750 C 39.937500 19.005826 39.848449 18.801394 39.812500 18.593750 z " style="marker:none" opacity=".69142857" color="#000" fill="url(#m)" fill-opacity="1" fill-rule="evenodd" stroke="none" stroke-width="2" stroke-linecap="round" stroke-linejoin="round" marker-start="none" marker-mid="none" marker-end="none" stroke-miterlimit="4" stroke-dasharray="none" stroke-dashoffset="0" stroke-opacity="1" visibility="visible" display="inline" overflow="visible"/>
  <path transform="translate(8.838843e-2,0.176776)" d="M 8.5736699 25.593554 A 1.3700194 1.0164660 0 1 1  5.8336310,25.593554 A 1.3700194 1.0164660 0 1 1  8.5736699 25.593554 z" style="marker:none" opacity="1" color="#000" fill="#fff" fill-opacity=".45762709" fill-rule="evenodd" stroke="none" stroke-width="2" stroke-linecap="round" stroke-linejoin="round" marker-start="none" marker-mid="none" marker-end="none" stroke-miterlimit="4" stroke-dasharray="none" stroke-dashoffset="0" stroke-opacity="1" visibility="visible" display="inline" overflow="visible"/>
  <path style="marker:none" d="M 8.5736699 25.593554 A 1.3700194 1.0164660 0 1 1  5.8336310,25.593554 A 1.3700194 1.0164660 0 1 1  8.5736699 25.593554 z" transform="translate(33.96705,8.838804e-2)" opacity="1" color="#000" fill="#fff" fill-opacity=".45762709" fill-rule="evenodd" stroke="none" stroke-width="2" stroke-linecap="round" stroke-linejoin="round" marker-start="none" marker-mid="none" marker-end="none" stroke-miterlimit="4" stroke-dasharray="none" stroke-dashoffset="0" stroke-opacity="1" visibility="visible" display="inline" overflow="visible"/>
  <path d="M 11.642515,8.4157227 C 11.040823,8.4157227 10.649724,8.6950813 10.409049,9.2280100 C 10.409048,9.2280100 3.9940341,25.818732 3.9940341,25.818732 C 3.9940341,25.818732 3.7533573,26.465247 3.7533573,27.533555 C 3.7533573,27.533555 3.7533573,36.823651 3.7533573,36.823651 C 3.7533573,38.178391 4.1974134,38.450550 5.3478414,38.450550 L 43.034746,38.450550 C 44.357872,38.450550 44.569062,38.134153 44.569062,36.613058 L 44.569062,27.322962 C 44.569062,27.322962 44.671072,26.581271 44.478807,26.059409 L 37.885616,9.2534336 C 37.707973,8.7606171 37.334964,8.4271840 36.865071,8.4157227 L 11.642515,8.4157227 z " fill="none" fill-opacity="1" fill-rule="evenodd" stroke="url(#n)" stroke-width="1.0000002" stroke-linecap="round" stroke-linejoin="round" stroke-miterlimit="4" stroke-dasharray="none" stroke-opacity="1"/>
  <path d="M 40.500000,31.429166 L 40.500000,36.450101" fill="none" fill-opacity=".75" fill-rule="evenodd" stroke="#fff" stroke-width="1.0000005px" stroke-linecap="square" stroke-linejoin="miter" stroke-opacity=".42372882"/>
  <path d="M 38.500000,31.488943 L 38.500000,36.509878" fill="none" fill-opacity=".75" fill-rule="evenodd" stroke="#fff" stroke-width="1.0000005px" stroke-linecap="square" stroke-linejoin="miter" stroke-opacity=".42372882"/>
  <path d="M 36.500000,31.488943 L 36.500000,36.509878" fill="none" fill-opacity=".75" fill-rule="evenodd" stroke="#fff" stroke-width="1.0000005px" stroke-linecap="square" stroke-linejoin="miter" stroke-opacity=".42372882"/>
  <path d="M 34.500000,31.488943 L 34.500000,36.509878" fill="none" fill-opacity=".75" fill-rule="evenodd" stroke="#fff" stroke-width="1.0000005px" stroke-linecap="square" stroke-linejoin="miter" stroke-opacity=".42372882"/>
  <path d="M 32.500000,31.488943 L 32.500000,36.509878" fill="none" fill-opacity=".75" fill-rule="evenodd" stroke="#fff" stroke-width="1.0000005px" stroke-linecap="square" stroke-linejoin="miter" stroke-opacity=".42372882"/>
  <path d="M 30.500000,31.488943 L 30.500000,36.509878" fill="none" fill-opacity=".75" fill-rule="evenodd" stroke="#fff" stroke-width="1.0000005px" stroke-linecap="square" stroke-linejoin="miter" stroke-opacity=".42372882"/>
  <path d="M 39.500000,31.479065 L 39.500000,36.500000" opacity=".097142857" fill="none" fill-opacity=".75" fill-rule="evenodd" stroke="#000" stroke-width="1.0000005px" stroke-linecap="square" stroke-linejoin="miter" stroke-opacity="1"/>
  <path d="M 37.500000,31.538842 L 37.500000,36.559777" opacity=".097142857" fill="none" fill-opacity=".75" fill-rule="evenodd" stroke="#000" stroke-width="1.0000005px" stroke-linecap="square" stroke-linejoin="miter" stroke-opacity="1"/>
  <path d="M 35.500000,31.538842 L 35.500000,36.559777" opacity=".097142857" fill="none" fill-opacity=".75" fill-rule="evenodd" stroke="#000" stroke-width="1.0000005px" stroke-linecap="square" stroke-linejoin="miter" stroke-opacity="1"/>
  <path d="M 33.500000,31.538842 L 33.500000,36.559777" opacity=".097142857" fill="none" fill-opacity=".75" fill-rule="evenodd" stroke="#000" stroke-width="1.0000005px" stroke-linecap="square" stroke-linejoin="miter" stroke-opacity="1"/>
  <path d="M 31.500000,31.538842 L 31.500000,36.559777" opacity=".097142857" fill="none" fill-opacity=".75" fill-rule="evenodd" stroke="#000" stroke-width="1.0000005px" stroke-linecap="square" stroke-linejoin="miter" stroke-opacity="1"/>
  <path d="M 7.8750000,31.187500 L 7.8750000,36.718750 L 20.437500,36.718750 L 8.2187500,36.375000 L 7.8750000,31.187500 z " opacity=".44" fill="#fff" fill-opacity="1" fill-rule="evenodd" stroke="none" stroke-width="1px" stroke-linecap="butt" stroke-linejoin="miter" stroke-opacity="1"/>
  <path style="marker:none" d="M 39.875000 19.562500 A 14.875000 6.6875000 0 1 1  10.125000,19.562500 A 14.875000 6.6875000 0 1 1  39.875000 19.562500 z" transform="matrix(1.037815,0.000000,0.000000,1.060747,-1.632878,-2.094626)" opacity=".20571424" color="#000" fill="url(#o)" fill-opacity="1" fill-rule="evenodd" stroke="none" stroke-width=".93365198" stroke-linecap="square" stroke-linejoin="round" marker-start="none" marker-mid="none" marker-end="none" stroke-miterlimit="4" stroke-dasharray="none" stroke-dashoffset="0" stroke-opacity=".42372879" visibility="visible" display="inline" overflow="visible"/>
</svg>
