<?xml version="1.0" encoding="UTF-8" standalone="no"?>
<!-- Created with Inkscape (http://www.inkscape.org/) -->

<svg
   version="1.1"
   id="svg2"
   xml:space="preserve"
   viewBox="0 0 491.51999 434.35999"
   sodipodi:docname="svg.svg"
   inkscape:version="1.1.2 (0a00cf5339, 2022-02-04)"
   inkscape:export-filename="/home/dys/Downloads/&lt;â„&gt;.png"
   inkscape:export-xdpi="117.19"
   inkscape:export-ydpi="117.19"
   xmlns:inkscape="http://www.inkscape.org/namespaces/inkscape"
   xmlns:sodipodi="http://sodipodi.sourceforge.net/DTD/sodipodi-0.dtd"
   xmlns="http://www.w3.org/2000/svg"
   xmlns:svg="http://www.w3.org/2000/svg"><defs
     id="defs6" /><sodipodi:namedview
     id="namedview4"
     pagecolor="#ffffff"
     bordercolor="#666666"
     borderopacity="1.0"
     inkscape:pageshadow="2"
     inkscape:pageopacity="0.0"
     inkscape:pagecheckerboard="0"
     showgrid="false"
     inkscape:zoom="2.0697118"
     inkscape:cx="245.68638"
     inkscape:cy="217.17999"
     inkscape:window-width="3440"
     inkscape:window-height="1369"
     inkscape:window-x="0"
     inkscape:window-y="34"
     inkscape:window-maximized="1"
     inkscape:current-layer="layer2" /><g
     id="g8"
     inkscape:groupmode="layer"
     inkscape:label="Monitor"
     transform="matrix(1.3333333,0,0,-1.3333333,0,434.36)"
     style="display:inline"><path
       d="m 2928.29,76.8555 c -721.79,13.5273 -1444.94,15.4492 -2170.173,0 L 758.125,0 H 2928.29 v 76.8555"
       style="display:inline;fill:#4d4d4d;fill-opacity:1;fill-rule:nonzero;stroke:none"
       id="path12"
       transform="scale(0.1)" /><path
       d="m 2928.29,76.8555 c -723.4,0 -1446.79,0 -2170.173,0 L 868.637,242.637 H 2817.76 L 2928.29,76.8555"
       style="display:inline;fill:#333333;fill-opacity:1;fill-rule:nonzero;stroke:none"
       id="path14"
       transform="scale(0.1)" /><path
       d="m 1573.13,567.859 h 540.15 l 282.2,-385.086 c -366.68,-34.043 -734.86,-34.179 -1104.56,0 l 282.21,385.086"
       style="display:inline;fill:#1a1a1a;fill-opacity:1;fill-rule:evenodd;stroke:none"
       id="path16"
       transform="scale(0.1)" /><path
       d="M 167.996,3257.7 H 3518.41 c 92.39,0 167.99,-75.59 167.99,-167.99 V 624.895 c 0,-92.395 -75.6,-167.993 -167.99,-167.993 H 167.996 C 75.6016,456.902 0,532.5 0,624.895 V 3089.71 c 0,92.4 75.6016,167.99 167.996,167.99"
       style="display:inline;fill:#000000;fill-opacity:1;fill-rule:evenodd;stroke:none"
       id="path18"
       transform="scale(0.1)" /><path
       d="M 3465.36,3036.21 H 221.051 V 871.809 H 3465.36 V 3036.21"
       style="display:inline;fill:#ffecff;fill-opacity:1;fill-rule:nonzero;stroke:none"
       id="path20"
       transform="scale(0.1)" /><path
       d="m 1843.2,559.57 c 57.83,0 105,47.168 105,105 0,57.84 -47.17,105.008 -105,105.008 -57.83,0 -105,-47.168 -105,-105.008 0,-57.832 47.17,-105 105,-105"
       style="display:inline;fill:#fffffe;fill-opacity:1;fill-rule:evenodd;stroke:none"
       id="path30"
       transform="scale(0.1)" /><path
       d="m 3141.89,617.461 c 25.95,0 47.11,21.164 47.11,47.109 0,25.957 -21.16,47.118 -47.11,47.118 -25.96,0 -47.12,-21.161 -47.12,-47.118 0,-25.945 21.16,-47.109 47.12,-47.109"
       style="display:inline;fill:#fffffe;fill-opacity:1;fill-rule:evenodd;stroke:none"
       id="path32"
       transform="scale(0.1)" /><path
       d="m 3344.2,617.461 c 25.94,0 47.11,21.164 47.11,47.109 0,25.957 -21.17,47.118 -47.11,47.118 -25.95,0 -47.13,-21.161 -47.13,-47.118 0,-25.945 21.18,-47.109 47.13,-47.109"
       style="display:inline;fill:#fffffe;fill-opacity:1;fill-rule:evenodd;stroke:none"
       id="path34"
       transform="scale(0.1)" /></g><g
     inkscape:groupmode="layer"
     id="layer1"
     inkscape:label="&lt;/&gt;"
     transform="matrix(1.3333333,0,0,-1.3333333,0,434.36)"
     sodipodi:insensitive="true"
     style="display:inline"><text
       xml:space="preserve"
       style="font-size:1600px;line-height:1.25;font-family:sans-serif;fill:#f25185;fill-opacity:1;stroke-width:6.41259"
       x="515.67877"
       y="-1164.8929"
       id="text2484"
       transform="scale(0.08550125,-0.11695736)"><tspan
         sodipodi:role="line"
         id="tspan2482"
         style="font-weight:bold;font-size:1600px;fill:#f25185;fill-opacity:1;stroke-width:6.41259"
         x="515.67877"
         y="-1164.8929">&lt;/&gt;</tspan></text></g><g
     inkscape:groupmode="layer"
     id="layer2"
     inkscape:label="Screen"
     style="display:inline"><g
       id="g10"
       transform="matrix(0.13333333,0,0,-0.13333333,0,434.36)" /><path
       d="M 3465.36,871.809 221.051,3036.21 V 871.809 Z"
       style="display:inline;fill:#360036;fill-opacity:0.34481257;fill-rule:evenodd;stroke:none"
       id="path22"
       transform="matrix(0.13333333,0,0,-0.13333333,0,434.36)" /></g></svg>
