<?xml version="1.0" encoding="UTF-8" standalone="no"?>
<!-- Created with Inkscape (http://www.inkscape.org/) -->

<svg
   version="1.1"
   id="svg32847"
   viewBox="0 0 1670.4387 3290.6345"
   sodipodi:docname="svg.svg"
   inkscape:version="1.2.1 (9c6d41e410, 2022-07-14)"
   xmlns:inkscape="http://www.inkscape.org/namespaces/inkscape"
   xmlns:sodipodi="http://sodipodi.sourceforge.net/DTD/sodipodi-0.dtd"
   xmlns="http://www.w3.org/2000/svg"
   xmlns:svg="http://www.w3.org/2000/svg">
  <defs
     id="defs32851" />
  <sodipodi:namedview
     id="namedview32849"
     pagecolor="#505050"
     bordercolor="#ffffff"
     borderopacity="1"
     inkscape:showpageshadow="0"
     inkscape:pageopacity="0"
     inkscape:pagecheckerboard="1"
     inkscape:deskcolor="#505050"
     showgrid="false"
     inkscape:zoom="0.21242124"
     inkscape:cx="378.96398"
     inkscape:cy="1266.3517"
     inkscape:window-width="3440"
     inkscape:window-height="1328"
     inkscape:window-x="0"
     inkscape:window-y="34"
     inkscape:window-maximized="1"
     inkscape:current-layer="g32857">
    <inkscape:page
       x="0"
       y="0"
       id="page32853"
       width="1670.4387"
       height="3290.6345"
       inkscape:export-filename="../../../../../Documents/Cone.png"
       inkscape:export-xdpi="58.347408"
       inkscape:export-ydpi="58.347408" />
  </sodipodi:namedview>
  <g
     id="g32855"
     inkscape:groupmode="layer"
     inkscape:label="Page 1"
     transform="matrix(1.3333333,0,0,-1.3333333,-697.53202,3836.7545)">
    <g
       id="g32857"
       transform="scale(0.1)">
      <path
         d="M 9687.9,7674.6 6477.06,19200.8 c -22.18,60.1 -34.31,125.1 -34.31,192.9 0,307.8 249.55,557.4 557.31,557.4 h 9005.04 v -1.7 c 48.9,0 98.6,-6.5 148,-20.2 295.7,-81.7 469.2,-387.7 387.5,-683.5 L 13317.3,7674.6 c -210.4,-755.1 -446.7,-1565 -673.9,-2181.7 -303.5,-823.2 -674.8,-1397 -1140.8,-1397 -465.7,0 -837.4,573.8 -1140.8,1397 -227.3,616.6 -463.56,1426.7 -673.9,2181.7 z M 7732.08,18836.4 10758.9,7970.6 c 200.7,-720.5 427,-1495.6 647.8,-2094.6 144.5,-392.1 -15.2,-665.4 95.9,-665.4 111.2,0 -48.6,273.3 95.9,665.4 220.8,599 447.1,1374.1 647.8,2094.6 l 3026.8,10865.8 H 7732.08 v 0"
         style="fill:#751d33;fill-opacity:1;fill-rule:nonzero;stroke:none"
         id="path32861" />
      <path
         d="M 7000.06,19393.7 10223.4,7822.6 c 411.1,-1475.9 924.6,-3169.3 1279.2,-3169.3 354.6,0 868,1693.4 1279.2,3169.3 l 3223.3,11571.1 H 11502.6 7000.06 v 0"
         style="fill:#e10fb6;fill-opacity:1;fill-rule:evenodd;stroke:none"
         id="path32863" />
      <path
         d="m 7403.34,19393.7 c 978.16,-3511.5 1956.48,-7023.1 2934.76,-10534.6 374.2,-1343.6 841.7,-3704.4 1164.5,-3704.4 -305.3,4466.2 -1714.74,11289.5 0,14239 -1366.4,0 -2732.87,0 -4099.26,0 v 0"
         style="fill:#fd215f;fill-opacity:1;fill-rule:evenodd;stroke:none"
         id="path32865" />
      <path
         d="m 10816.7,18653.7 c -244.3,-217.5 -494.2,-429.8 -748.8,-636 -252.3,-204.4 -509.95,-403.7 -771.92,-597 113.68,-96 226.89,-189.1 339.36,-279.1 125.52,-100.3 255.85,-201.5 390.26,-302.8 149.5,-112.8 302,-224.1 456.9,-333.5 148,-104.3 297.2,-206.5 447.1,-305.8 272.3,212.6 537.9,431 795.7,654.1 251.8,217.6 497.4,440.7 735.9,668.6 -252.6,155 -501.6,315.9 -745.9,481.8 -257.4,174.8 -508.5,354.3 -752.1,538 z m 2047.6,-1372.6 c -243.2,-236.5 -494.2,-468.2 -751.6,-694.3 -252.6,-222 -511.8,-438.8 -776.4,-649.6 224.2,-140.5 453.2,-277.8 686.6,-411.2 240.4,-137.4 485.2,-270.8 733.7,-399.4 l 233.8,226.2 c 83.2,81.9 165.7,164.5 246.9,247.4 163.7,167.1 324.9,338 483.1,512.3 145.2,160 286.5,321.2 422.8,482.9 -215.6,106.1 -428.9,215.6 -639.2,328.3 -215.7,115.5 -429.2,234.8 -639.7,357.4 z M 9301.44,15044.8 c 217.11,139.4 430.75,282 640.16,427 203.7,141.2 404.4,285.4 601.3,432.3 -120,81.3 -240.4,165.2 -361.2,251.4 -133.4,95.1 -264.93,191.5 -393.85,288.7 -154.2,116.2 -306.53,235.1 -455.95,355.6 -140.29,113.2 -279.18,228.9 -416.08,346.8 -179.22,-126.5 -359.29,-249.7 -539.63,-369 -176.6,-116.9 -355.44,-231.6 -535.78,-343.7 219.45,-239.3 449.45,-473.5 688.85,-701.3 247.3,-235.4 505.13,-465.1 772.18,-687.8 z m 1810.56,-1324 c 226.2,174 448.9,352.3 666.6,534 208.7,174.4 414.3,353.1 616,535.8 -245.7,130.5 -487.4,265.2 -724.3,403.4 -243.7,142.4 -484.3,289.7 -721,441.8 -209.2,-159.1 -421.8,-314.9 -636.6,-466.3 -207.6,-146.3 -419.07,-290.1 -633.73,-430.7 l 120.16,-93.8 165.68,-126.5 c 187.89,-141.7 379.09,-280 572.69,-414.4 187.7,-130.3 379.6,-258.3 574.5,-383.3 z m 1934.7,-1092.2 c 99.8,93.4 198.1,187.3 294.5,281.5 102.3,99.8 203.4,200.7 302.9,302.2 117.5,119.9 233.6,241.7 347.7,364.7 100.1,107.7 198.7,216.6 295.4,326.1 -243.3,99.8 -485.4,204.4 -725.4,313.5 -247.8,112.4 -493.7,230 -736.7,351.8 -208.9,-193.3 -424.4,-384.3 -645.3,-572.3 -213,-181.2 -431,-359.3 -653.3,-533.8 240.5,-145.8 485.5,-287.3 734.5,-424 258.2,-141.7 520.5,-278.5 785.7,-409.7 z m -1749,-1463.5 c 244.6,183 484.1,370.2 717.5,561 227.7,186.3 448.9,375 662.9,565.6 -262.1,132.9 -519.8,270.6 -772.3,412.5 -261.4,146.9 -519.4,299.4 -772.8,456.9 -226.3,-169.4 -455.8,-334.4 -688.2,-494.6 -224.5,-154.8 -452.24,-305.8 -682.71,-452.5 l 57.45,-43.7 c 238.46,-179.7 482.66,-354.5 731.66,-523.6 242.6,-164.6 491.7,-325.4 746.5,-481.6 z m 164.9,-2476 c 249.5,175 495.1,355.3 736.1,540.3 231.3,177.5 457.9,358.9 678.8,543.4 -263.1,127.5 -522,259.6 -775.7,395.9 -264.3,141.8 -525.2,289.4 -781.5,441.9 -232.3,-169.2 -469.1,-334.9 -709.7,-496.2 -230.8,-154.7 -464.9,-305.4 -701.07,-451.2 242.57,-169 490.97,-333.3 743.87,-492.3 263.2,-165.4 533.2,-326.3 809.2,-481.8 z m 3016.9,10374.5 c -192.2,-243.1 -392.4,-482.5 -599.5,-717.4 -215.6,-244.7 -441.1,-487.1 -675.2,-726 197.8,-113.1 399.4,-223.8 604.3,-331.7 211,-111 424,-218.7 638.4,-322.2 195.7,245.7 383.6,496.1 562.9,750.4 174.6,247.8 340.3,498.5 496.3,751.4 -174.8,94.6 -347.1,191.2 -516.3,289.3 -171.7,99.4 -342.1,201.6 -510.9,306.2 z M 10539.2,6730.2 c 69.4,-229 140,-451.9 210.3,-661.5 145.5,-83.3 292.2,-165 440.1,-245.1 -96.7,-59.4 -193.9,-118.1 -291.6,-176.1 59.6,-159.8 118.5,-306 176.4,-434.5 198.7,117.6 395.5,238.1 590,361.6 115.1,-58.5 230.8,-116.1 347.3,-172.5 54.6,133.8 110,281.3 165.6,438.8 l -59.9,29.1 91.6,61.7 c 78.2,226.1 156.6,470.7 234.2,723.7 -261.3,-186.8 -528.4,-368.8 -800.4,-545.4 -312.3,162.8 -618.4,332.7 -917.3,508.9 -62.4,36.8 -124.5,73.9 -186.3,111.3 z m -3539.14,12663.5 183.54,-658.9 81.81,61.5 c 197.09,-231.4 404.7,-459.4 621.72,-682.9 215.61,-222.2 440.82,-440.1 674.2,-653 -164.93,-114.6 -333.43,-228.2 -504.94,-340.4 -119.13,-77.9 -238.84,-154.6 -358.91,-229.8 l 374.32,-1343.9 74.21,-72.4 c 240.61,-233.5 491.2,-461.4 750.25,-682.9 -176.3,-107.8 -352.05,-212.1 -527.04,-312.3 l 128.54,-461.5 140.3,80.5 c 212.98,123.1 424.54,250.4 633.95,381 l 214.47,-170.1 240.63,-184.7 c 167.47,-126.2 337.89,-250.2 510.59,-371.4 157.2,-110.3 317.8,-219.3 481.1,-326.7 -214.4,-157.2 -431.6,-310.1 -650.3,-458.3 -226.86,-153.8 -458.18,-304.2 -693.25,-450.6 -206.12,166.2 -406.78,336 -601.23,508.8 l 337.19,-1210.5 c 78.8,46.5 157.5,93.5 235.83,141 l 234.8,-180.4 c 216.74,-163.5 439.16,-323.4 665.96,-479.3 211.9,-145.5 427.7,-287.5 647,-425.5 -222.8,-158.7 -447.8,-312.8 -674,-461.4 -200.7,-131.9 -404.27,-260.9 -610.38,-386.6 l 245.61,-881.6 c 132.39,-90.1 265.87,-178.6 400.57,-265.4 254.2,-163.9 514.7,-323.4 780.6,-478 -252.1,-168.1 -507.4,-330.9 -765.3,-487.5 l -62.4,-37.9 13.9,-50 c 38,-136.2 76.7,-274.3 116.2,-412.7 113.3,67.8 226.1,136.7 338.2,206.5 273.3,170.2 542.9,346.5 808.1,528.2 293.6,-161 593.1,-315.8 897.2,-463.8 104.9,-51 210.4,-101.2 316.5,-150.8 l 82.2,292.6 45.6,163.6 -61.5,28.9 c -289.4,136.8 -574.5,279.7 -854.5,428.4 240.3,172.9 476.9,351 709.6,533.3 211.9,166.2 420,335.8 624,508.6 l 222.9,800.1 c -67.2,-60.6 -134.7,-120.8 -202.6,-180.5 -269.5,126.7 -535.6,258.9 -797.5,396.2 -250.7,131.2 -499.2,268.3 -744.7,410.4 238.3,182.3 472.1,369.1 701.2,559.8 237.9,198.4 469.3,399.9 693.2,603.8 250.8,-120 502.3,-234.4 753.4,-342.8 l 127,455.8 c -173.1,75 -344.2,151.7 -513.2,230.3 l 205.5,199.5 c 81.1,80 161.6,160.7 241,241.7 121.9,124.4 241.5,249.9 358.5,376 l 293.6,1054 c -238.8,95.8 -474.5,195.4 -706.1,298.2 -230.6,102.4 -461.3,210.1 -691.5,322.5 l 151.6,148.9 187,188.3 c 187,190.8 368.7,384.1 544.4,579.2 167.9,186.6 331.9,376.4 491.3,569.1 180.1,-84 361,-165.1 542.2,-243.4 l 127,455.9 c -123,53.3 -245.4,107.8 -367,163.2 189,241.8 370.2,487.1 542.3,735.2 42.6,61.3 84.9,122.8 126.4,184.5 l 446.9,1604.4 c -74.7,-143.1 -152.6,-285.5 -233.4,-427.3 -168.4,90.5 -335.3,183.3 -500.3,278 -140.6,80.8 -280.4,163.3 -418.5,247.3 h -860.9 l 135.7,-89.2 c -178.1,-222.5 -363.1,-441.8 -554,-657.4 -202.3,-228.4 -412.1,-453.4 -628.6,-674.3 l -115.3,-116.6 c -275.2,166 -545.4,338.2 -809.4,516 -271.8,183.1 -536.3,371.4 -792.2,564.3 l -40.1,30.4 c 104.4,97.5 208.1,196.3 310.6,295.9 44.6,43.4 89.1,87.1 133.4,130.9 h -102.2 -550.3 c -51,-48 -102.7,-95.9 -154.5,-143.6 -59.3,47.6 -118.2,95.4 -176.8,143.6 h -701.12 c 174.02,-153.9 352.22,-305 534.32,-453.1 -239.4,-210.3 -484.02,-415.6 -733.01,-614.8 -253.6,-203 -514.25,-401.9 -781.11,-596.1 -241.65,216.3 -473.82,437.5 -695.63,662.9 -217.49,221 -426.05,447.2 -624.45,677.7 134.36,106.1 267.7,213.9 399.72,323.4 H 7000.06 v 0"
         style="fill:#e0a065;fill-opacity:1;fill-rule:evenodd;stroke:none"
         id="path32867" />
      <path
         d="m 10942.4,6492.9 c 62.4,-231.8 124.3,-447.5 184.6,-635.3 l 62.6,-34 -42.9,-26.3 c 58.9,-178.3 116.4,-328 171.5,-438 l 162,99.7 c -19.4,251.1 -41.7,508.8 -66.5,772.3 -158.8,85.3 -316,172.6 -471.3,261.6 z m -592.6,2323.4 c 224.5,-143 454,-282.5 687.4,-418.3 -163.8,-109.2 -328.8,-216.2 -495.1,-320.7 38.6,-154.4 77.8,-312.8 117.2,-472.3 l 18.5,11.4 c 186.3,116 370.9,234.9 553.5,356.4 -33.4,299.4 -67.8,602.6 -102.3,908.6 -160.8,94.8 -319.4,191.3 -475.6,289.5 -165.9,104.3 -329.8,210.8 -491.3,319.4 L 10338,8859 Z m 360.9,4603.5 c -211.9,-155 -426.2,-306 -642.2,-452.3 -226.86,-153.8 -458.18,-304.2 -693.25,-450.6 l -72.59,58.8 207.43,-744.8 71.75,-55.1 c 216.74,-163.5 439.16,-323.4 665.96,-479.3 211.9,-145.5 427.7,-287.5 647,-425.5 -222.8,-158.7 -447.8,-312.8 -674,-461.4 -88.3,-58 -177.3,-115.5 -266.71,-172.4 l 129.71,-465.3 c 177.1,111.6 352.9,225.9 526.8,342.5 119.6,80.2 238.3,161.6 355.9,243.7 -38.1,361.1 -74.6,723.2 -108,1084.4 -103.5,67.4 -206,135.5 -307.3,204.2 -249,169.1 -493.2,343.9 -731.66,523.6 l -57.45,43.7 c 230.47,146.7 458.21,297.7 682.71,452.5 99.9,68.9 199.4,138.7 298.2,209.3 -12,182.4 -22.9,363.7 -32.3,544 z m -3003.06,4881.9 c 59.13,-63.1 118.93,-125.8 179.49,-188.3 215.61,-222.2 440.82,-440.1 674.2,-653 -164.93,-114.6 -333.43,-228.2 -504.94,-340.4 l -16.65,-10.8 130.05,-466.7 c 69.11,44.7 137.94,89.7 206.4,135.1 180.34,119.3 360.41,242.5 539.63,369 136.9,-117.9 275.79,-233.6 416.08,-346.8 149.42,-120.5 301.75,-239.4 455.95,-355.6 128.92,-97.2 260.45,-193.6 393.85,-288.7 120.8,-86.2 241.2,-170.1 361.2,-251.4 -196.9,-146.9 -397.6,-291.1 -601.3,-432.3 -209.41,-145 -423.05,-287.6 -640.16,-427 -267.05,222.7 -524.88,452.4 -772.18,687.8 -48.7,46.4 -97.04,93 -144.99,139.9 l 233.48,-838 c 91.67,-82 184.58,-163.1 278.51,-243.5 -60.18,-36.8 -120.35,-73.1 -180.35,-109.1 l 129.01,-463 c 143.21,85 285.66,171.6 427.09,259.8 l 214.47,-170.1 240.63,-184.7 c 167.47,-126.2 337.89,-250.2 510.59,-371.4 154.4,-108.3 312.1,-215.3 472.4,-320.9 -10,191.8 -18.3,382.2 -24.9,571 -49.6,33.7 -98.8,67.6 -147.7,101.5 -193.6,134.4 -384.8,272.7 -572.69,414.4 l -165.68,126.5 -120.16,93.8 c 214.66,140.6 426.13,284.4 633.73,430.7 121.1,85.4 241.6,172.1 361.1,260.1 7.3,312.1 21.6,616.9 44.5,912 -78.9,53.9 -157.5,108.5 -235.8,163.7 -154.9,109.4 -307.4,220.7 -456.9,333.5 -134.41,101.3 -264.74,202.5 -390.26,302.8 -112.47,90 -225.68,183.1 -339.36,279.1 261.97,193.3 519.62,392.6 771.92,597 254.6,206.2 504.5,418.5 748.8,636 l 146.5,-111.7 129.3,-96.6 c 49.7,156 104.6,305.6 164.5,449 l -56.1,42.1 -40.1,30.4 c 76.9,71.8 153.4,144.2 229.2,217.2 36,71.8 73.3,142 112.6,209.6 h -64.1 -64 -64 -64.2 -64 -64 -64.1 -64 -37.9 c -51,-48 -102.7,-95.9 -154.5,-143.6 -59.3,47.6 -118.2,95.4 -176.8,143.6 h -15.1 -64 -64.2 -64 -64 -64 -64.1 -64 -64.1 -64.1 -64.01 -45.51 c 174.02,-153.9 352.22,-305 534.32,-453.1 -239.4,-210.3 -484.02,-415.6 -733.01,-614.8 -253.6,-203 -514.25,-401.9 -781.11,-596.1 -241.65,216.3 -473.82,437.5 -695.63,662.9 -217.49,221 -426.05,447.2 -624.45,677.7 134.36,106.1 267.7,213.9 399.72,323.4 h -39.97 -64.03 -64.04 -64.02 -64.04 -64.04 -64.13 -64.03 -64.03 -64.05 l 304.3,-1092 v 0"
         style="fill:#d18843;fill-opacity:1;fill-rule:evenodd;stroke:none"
         id="path32869" />
      <path
         d="m 14553.1,19643.2 c -771.1,191.6 -1849,310.3 -3050.5,310.3 -1201.5,0 -2279.49,-118.7 -3050.54,-310.3 -551.2,-137 -892.24,-231.1 -892.24,-249.5 0,-18.4 341.04,-112.4 892.24,-249.4 771.05,-191.6 1849.04,-310.3 3050.54,-310.3 1201.5,0 2279.4,118.7 3050.5,310.3 551.2,137 892.2,231 892.2,249.4 0,18.4 -341,112.5 -892.2,249.5 z M 11502.6,21073 c 1284.9,0 2458.7,-132.1 3317.2,-345.4 1078.1,-268.1 1745.1,-733.9 1745.1,-1333.9 0,-599.9 -667,-1065.7 -1745.1,-1333.8 -858.5,-213.3 -2032.3,-345.4 -3317.2,-345.4 -1284.9,0 -2458.71,132.1 -3317.21,345.4 -1078.14,268.1 -1745.09,733.9 -1745.09,1333.8 0,600 666.95,1065.8 1745.09,1333.9 858.5,213.3 2032.31,345.4 3317.21,345.4 v 0"
         style="fill:#751d33;fill-opacity:1;fill-rule:nonzero;stroke:none"
         id="path32871" />
      <path
         d="m 11502.6,20513.3 c 2486.7,0 4502.5,-501.2 4502.5,-1119.6 0,-618.3 -2015.8,-1119.5 -4502.5,-1119.5 -2486.73,0 -4502.54,501.2 -4502.54,1119.5 0,618.4 2015.81,1119.6 4502.54,1119.6 v 0"
         style="fill:#e0a065;fill-opacity:1;fill-rule:evenodd;stroke:none"
         id="path32873" />
      <path
         d="m 15327.2,18802.9 c -794.7,-317.4 -2210.3,-528.7 -3824.6,-528.7 -1614.32,0 -3029.94,211.3 -3824.68,528.7 794.74,317.3 2210.36,528.6 3824.68,528.6 1614.3,0 3029.9,-211.3 3824.6,-528.6 v 0"
         style="fill:#d18843;fill-opacity:1;fill-rule:evenodd;stroke:none"
         id="path32875" />
      <path
         d="m 16626.1,19866.3 c -51.7,148.9 -169.5,302.6 -341,471.2 -168,143.9 -240.8,382.5 -165,605.6 238.3,699.7 348.2,1355.9 350.8,1961.3 5,1117.9 -350.9,2084 -933.2,2846.3 -586.2,767.3 -1402.4,1332.2 -2312.5,1642.2 -517,176 -1062.6,270.1 -1611.8,272.6 -811,3.5 -1652.16,-180.9 -2419.06,-529.4 -782.99,-355.9 -1482.38,-881.5 -1983.56,-1549.4 -491.6,-655.3 -794.56,-1451.2 -798.6,-2361.2 -3.01,-670.5 154.12,-1409.2 513.5,-2207.7 109.64,-213.9 71.94,-483.7 -109.55,-658.1 -330.23,-318.4 -473.72,-594.9 -483.87,-821.1 -5.92,-133 38.36,-256.9 117.91,-364.8 97.13,-131.8 246.55,-245.1 427.55,-331.6 393.81,-188.4 904.57,-236.7 1361.65,-80.1 l 0.28,-1 c 55.38,19 114.73,29.3 176.4,29.3 303.44,0 549.51,-248.6 549.51,-555.1 l 107.48,-81.7 c 118.29,-88.2 282.09,-158.9 463.95,-197.5 182.21,-38.6 373.66,-42.8 544.91,2.5 186.4,49.2 353.8,166.6 453.3,378 l 0.9,-0.5 c 52,111.7 141.1,206.6 259.8,263.9 273.8,132.2 601.8,15.3 732.7,-261.2 69.3,-145.8 327.6,-259.8 638.8,-323.7 192.7,-39.7 401,-53.2 601.2,-38.6 182,13.4 348.9,50.1 477.9,111.5 96.5,45.8 163.6,100.5 175.7,159.5 l 8.7,32.6 c 79.7,295.8 381.8,470.2 674.5,389.7 708.7,-195.4 1257.9,-170.1 1665.2,-30.3 477.9,164 747.9,481.3 836.3,754.7 61.1,189 64.7,341.1 19.2,472.1 z m 639.9,1039.3 c 180.1,-212.4 315,-432.3 398.7,-673.5 126.9,-364.9 130.1,-747.2 -10.5,-1181.8 -177.5,-549.2 -677.7,-1171.8 -1530.2,-1464.3 -497.8,-170.8 -1119.5,-230.1 -1867.8,-89.4 -138.8,-174.2 -323.9,-311.6 -540,-414.4 -256.8,-122.2 -558.7,-192.9 -869.9,-215.8 -293.3,-21.5 -604.6,-0.4 -898.8,60.2 -314.1,64.6 -612.3,178.1 -860.2,337.8 -214.3,-187.7 -464.6,-311 -729.5,-381.2 -344.2,-91 -709.48,-86.7 -1044.99,-15.6 -335.77,71.2 -651.91,212.1 -894.98,393.5 -129.37,96.4 -240.71,206.3 -328.82,326.7 -588.34,-84.6 -1191.16,14.3 -1681.06,248.6 -339.35,162.3 -632.44,392.3 -841.28,675.6 -226.25,306.9 -351.68,670.6 -333.43,1074.5 18.52,411 187.49,850.2 555.8,1291.4 -332.2,832.5 -479.07,1619.7 -475.88,2351.9 5.27,1171.9 391.63,2191.6 1018.43,3027.3 617.32,822.8 1466.4,1464.3 2410.28,1893.4 905.79,411.5 1905.73,629.3 2875.93,625.1 669.9,-2.9 1332.1,-116.6 1956.4,-329.2 1112.9,-379 2113.1,-1072.7 2834.2,-2016.6 724.7,-948.6 1167.8,-2147.2 1161.5,-3529.7 -2.7,-632.8 -98.8,-1300.1 -303.9,-1994.5 v 0"
         style="fill:#751d33;fill-opacity:1;fill-rule:nonzero;stroke:none"
         id="path32877" />
      <path
         d="m 16641.6,20762.4 c 489.7,-472.1 690.7,-916.4 489,-1540.2 -233.1,-720.4 -1239,-1620.2 -3169.6,-1087.9 -208,-1010.6 -2518,-896.6 -2928,-35 -607.2,-1289.8 -2615.17,-626 -2616.95,136 -1609.33,-551.3 -3723.96,845.1 -1979.23,2527.1 -2047.5,4504.8 1781.68,7473.4 5178.78,7458.1 3348.2,-14.9 6517.8,-3078 5026,-7458.1 v 0"
         style="fill:#7c7cfa;fill-opacity:1;fill-rule:evenodd;stroke:none"
         id="path32879" />
      <path
         d="m 16641.6,20762.4 c 1159.3,-979.3 444.7,-2430.3 -898.3,-2709.6 1580.4,951.3 1004,2214.1 426.8,2609.6 1032.9,3191.5 -112.9,5974.9 -3596.2,7470.3 2957.1,-529.6 5415.9,-3412 4067.7,-7370.3 v 0"
         style="fill:#ffd4e7;fill-opacity:1;fill-rule:evenodd;stroke:none"
         id="path32881" />
      <path
         d="M 9086.02,27342.2 C 6176.54,26336.4 5668.97,23163.1 6754.17,20720.5 c -1393.53,-996.1 -443.26,-2568.8 1216.65,-2302.8 533.15,85.4 838.94,474.2 64.6,527.1 -768.42,53.3 -1384.4,834.8 -381.1,1447 202.63,123.5 129,261.3 69.49,510.7 -502.13,2103.2 -255.77,4386.7 1563.9,6123.7 372.46,355.5 421.9,531.5 -201.69,316 v 0"
         style="fill:#96ffa7;fill-opacity:1;fill-rule:evenodd;stroke:none"
         id="path32883" />
      <path
         d="m 8763.31,23762.9 c 23.03,-19.3 10.62,-6 -7.25,13.8 2.17,-6.8 4.61,-11.5 7.25,-13.8 z M 13533,22808.3 c 12.9,3.5 16.7,19.1 13.7,44.5 -25.8,-31.9 -49.3,-54.3 -13.7,-44.5 z m -4968,4039 c -804.14,-490.2 -1471.47,-1176.8 -1849.85,-2023.1 84.34,57.5 194.17,193.7 295.34,319.2 376.5,466.9 704.94,874.5 1311.06,419.7 402.45,-302.1 406.86,-785.7 411.28,-1278.1 1.42,-159.6 3.01,-321.1 10.82,-421.7 89.71,115.2 187.22,281.2 281.53,442.1 316.88,540 613.26,1045 1198.52,884.6 l 33,-9 c 500.8,-156.2 662.2,-612.6 824.3,-1071.8 74,-209.8 139.4,-421.4 150.7,-444 h 3.4 c 76.3,0 -21.7,213.7 29.3,413.1 137.9,539.5 267.7,1045.7 877.2,1045.7 v -2.1 c 301.7,1.5 562.9,-141.3 779.1,-379.8 114.3,-126 216.3,-281.5 303.9,-454.9 -15.9,221 -5.1,421.7 60.6,588.3 225.5,572.5 687.5,539.9 1236.4,231.5 286.9,-161.2 606.6,-407.3 894.4,-630.3 74.6,-57.7 176.5,-90.7 281.5,-93.9 81.6,-2.5 161.3,13.5 226,50.3 49.2,27.9 90.5,72.6 115.1,135.5 37.9,96.9 46.4,235.6 11.6,423.5 -393.3,815.1 -1015.4,1475.7 -1761.9,1940.9 -793.6,494.5 -1726.5,767.8 -2674.8,772.1 -1041.9,4.6 -2130.39,-297.9 -3048.5,-857.8 z M 5725.21,25115.2 c 458.2,1111.2 1297.6,1999.4 2311.53,2617.5 1074,654.9 2352.56,1008.7 3580.76,1003.3 1137.2,-5.1 2255.6,-332.9 3207.2,-925.7 927.4,-577.9 1698.5,-1409 2178,-2440.5 16.5,-35.7 28.7,-72.5 36.5,-109.4 l 1.6,0.3 c 92.8,-428 61.5,-783.2 -49.7,-1068 -118.7,-304.2 -322.3,-521.8 -567.4,-661.2 -229.5,-130.6 -494.2,-187.6 -754.2,-179.7 -315.5,9.7 -631.2,116.4 -873.9,304.2 -167.5,129.7 -346.3,267.8 -510.1,382.4 l 38,-226.2 c 143.4,-844.9 300.4,-1770.8 -522.4,-1998.6 -724.5,-200.5 -1034.8,246.6 -1201.9,848.7 -51.9,185.2 -84,378.2 -114.3,559.6 -27.1,163.1 -52.5,315 -78.1,384.8 -269.7,733.3 -61.7,-976.5 -1171.7,-976.5 -18.8,0 -37.5,1 -55.8,3.1 -673.2,25.7 -869,579.2 -1062.8,1128.1 -197.75,419.7 -232.46,-139.4 -623.14,-602.4 -383.65,-454.9 -825.59,-661.5 -1386.38,-188.5 -385.62,325.4 -390.32,820.6 -394.74,1306.4 l -0.28,103.6 c -181.19,-219.3 -388.25,-438.2 -685.86,-549 -29.43,-10.9 -59.14,-18.8 -88.95,-24.1 -139.44,-27.4 -281.99,-29.5 -417.87,-6.7 -186.46,31.4 -362.57,110 -506.16,234.5 -153.74,133.3 -266.67,312 -314.15,533.6 -28.12,131.3 -31.97,276.5 -5.74,433.2 6.58,39.6 17.4,77.5 31.98,113.2 v 0"
         style="fill:#751d33;fill-opacity:1;fill-rule:nonzero;stroke:none"
         id="path32885" />
      <path
         d="m 6197.51,24917.1 c 858.77,2082.6 3227.96,3313.2 5417.99,3303.4 2053.9,-9.2 4040.2,-1165.6 4924.9,-3069 280.9,-1295.9 -880.9,-1513.8 -1434.6,-1085.1 -550.9,426.7 -1219.9,939.8 -1346.3,619.1 -184.7,-468.7 522.1,-2204.5 -92.4,-2374.6 -666.1,-184.4 -615.6,1023.6 -782,1475.6 -170.5,463.1 -434.9,822.1 -743.5,820 -459.6,0 -308.4,-1458.8 -906.5,-1458.8 -664.2,-4 -577.6,1368.1 -1128.5,1540 -520.54,161 -931.35,-1945.3 -1671.46,-1321 -409.31,345.4 -18.14,1481.9 -417.77,1782 -377.91,283.6 -663.3,-644.3 -1167.39,-832 -355.24,-76.1 -730.42,136 -652.47,600.4 v 0"
         style="fill:#ffca94;fill-opacity:1;fill-rule:evenodd;stroke:none"
         id="path32887" />
      <path
         d="m 14663.6,27303 c 31,-20.3 61.8,-40.9 92.4,-61.8 z m -1954.4,803.7 5.8,-1.2 c 182.3,-37.4 362.5,-83.9 539.7,-139 l 3.3,-1 c 87.3,-27.2 173.7,-56.4 259.5,-87.7 l 12.1,-4.5 c 39.4,-14.5 78.7,-29.4 117.8,-44.8 l 7.5,-3 c 42,-16.6 83.6,-33.6 125.1,-51.2 l 7.6,-3.2 c 39.2,-16.7 78.1,-33.8 116.9,-51.3 l 9.1,-4.1 c 39.4,-17.9 78.5,-36.2 117.4,-55 l 19.5,-9.5 c 33.6,-16.4 66.9,-33 100.2,-50.1 l 18.9,-9.6 c 36.9,-19.1 73.5,-38.6 110,-58.4 l 25.2,-13.9 c 28.3,-15.7 56.5,-31.5 84.5,-47.7 l 29.5,-17.1 c 35.3,-20.5 70.4,-41.4 105.1,-62.8 l 19.2,-11.9 80.6,-50.9 39.9,-25.8 c 31,-20.3 61.8,-40.8 92.4,-61.8 l 31.8,-22.2 65.5,-46.2 44.5,-32.3 74.6,-55.7 37.6,-28.8 c 22.7,-17.5 45.2,-35.1 67.5,-53 l 47.1,-38.2 38.9,-32.2 c 29.7,-24.7 59.1,-49.7 88.2,-75.1 l 35.1,-30.7 51.5,-46.4 43.7,-40.3 70.2,-66.6 40.8,-39.6 51.4,-51.4 33.1,-33.9 44.2,-45.9 64.8,-70 2.9,-3.3 53.8,-60.1 15.6,-17.8 c 57.5,-65.9 113.4,-133.3 167.8,-202.2 l 14.2,-18.2 c 53.5,-68.7 105.3,-138.7 155.5,-210.3 l 16,-22.9 c 50.3,-72.7 98.9,-146.8 145.7,-222.5 l 8.9,-14.5 c 47.5,-77.4 93,-156.2 136.4,-236.6 l 8.8,-16.2 c 44,-81.9 85.9,-165.5 125.5,-250.6 l 2.8,-6.2 c 116.4,-537 15.5,-815.4 -163.5,-1002.4 -402.7,1703.7 -1647.1,3058.3 -3803,3983.8 45.2,-8.1 90.3,-16.8 135.3,-26 v 0"
         style="fill:#ffffff;fill-opacity:1;fill-rule:evenodd;stroke:none"
         id="path32889" />
      <path
         d="m 7979.09,25173.4 c -359.28,196.4 -642.21,-675.4 -1129.11,-856.7 -170.47,-36.5 -345.37,-6.7 -472.77,85.6 323.83,1296.1 1188.05,2414.2 2708.81,2939.9 623.59,215.5 574.15,39.5 201.69,-316 -594.64,-567.7 -1021.16,-1193.8 -1308.62,-1852.8 v 0"
         style="fill:#96ffa7;fill-opacity:1;fill-rule:evenodd;stroke:none"
         id="path32891" />
      <path
         d="m 13409.7,26179 c 533,-209.2 941.7,-599.4 1344,-1017.1 420.4,-436.6 386,57.3 272.8,357.5 -255.2,676.9 -684.4,1152.2 -1310,1458.5 -743.6,363.9 -1297.7,-410.1 -306.8,-798.9 v 0"
         style="fill:#ffffff;fill-opacity:1;fill-rule:evenodd;stroke:none"
         id="path32893" />
      <path
         d="m 12263.5,27430.7 c 199.4,-12.9 369.9,-200.1 380.8,-417.9 10.9,-217.9 -141.9,-384.1 -341.3,-371.1 -199.3,13 -369.8,200.1 -380.7,418 -11,217.8 141.8,384 341.2,371 v 0"
         style="fill:#ffffff;fill-opacity:1;fill-rule:evenodd;stroke:none"
         id="path32895" />
      <path
         d="m 15651.6,19520.6 c -287.3,-93.7 -636.5,-0.3 -780.1,208.4 -143.6,208.7 -27.1,453.9 260.2,547.6 287.3,93.6 636.6,0.3 780.2,-208.4 143.5,-208.8 27,-454 -260.3,-547.6 v 0"
         style="fill:#ffd4e7;fill-opacity:1;fill-rule:evenodd;stroke:none"
         id="path32897" />
      <path
         d="m 14810.7,20616 c -185.1,-60.3 -410.2,-0.2 -502.7,134.3 -92.5,134.5 -17.4,292.5 167.7,352.8 185.1,60.4 410.2,0.2 502.7,-134.3 92.5,-134.5 17.4,-292.5 -167.7,-352.8 v 0"
         style="fill:#ffd4e7;fill-opacity:1;fill-rule:evenodd;stroke:none"
         id="path32899" />
    </g>
  </g>
</svg>
