<?xml version="1.0" encoding="UTF-8" standalone="no"?>
<svg xmlns:dc="http://purl.org/dc/elements/1.1/" xmlns:cc="http://creativecommons.org/ns#" xmlns:rdf="http://www.w3.org/1999/02/22-rdf-syntax-ns#" xmlns:svg="http://www.w3.org/2000/svg" xmlns="http://www.w3.org/2000/svg" xmlns:sodipodi="http://sodipodi.sourceforge.net/DTD/sodipodi-0.dtd" xmlns:inkscape="http://www.inkscape.org/namespaces/inkscape" width="100%" height="100%" id="doh logo" viewBox="0 0 16.923128 20.233015" version="1.1" inkscape:version="0.48.0 r9654" sodipodi:docname="bomb.svg">
  <metadata id="metadata4231">
    <rdf:RDF>
      <cc:Work rdf:about="">
        <dc:format>image/svg+xml</dc:format>
        <dc:type rdf:resource="http://purl.org/dc/dcmitype/StillImage" />
        <dc:title>The Department of Happiness</dc:title>
      </cc:Work>
    </rdf:RDF>
  </metadata>
  <defs id="defs4229" />
  <sodipodi:namedview pagecolor="#ffffff" bordercolor="#666666" borderopacity="1" objecttolerance="10" gridtolerance="10" guidetolerance="10" inkscape:pageopacity="0" inkscape:pageshadow="2" inkscape:window-width="884" inkscape:window-height="689" id="namedview4227" showgrid="false" fit-margin-top="0" fit-margin-left="0" fit-margin-right="0" fit-margin-bottom="0" inkscape:zoom="12.343015" inkscape:cx="4.4917618" inkscape:cy="2.0795679" inkscape:window-x="316" inkscape:window-y="2" inkscape:window-maximized="0" inkscape:current-layer="doh logo" />
  <title id="title4205">The Department of Happiness</title>
  <g transform="matrix(2.9441457,2.8104302,-2.8104302,2.9441457,502.12894,-2688.8611)" id="utensils" class="menuitem">
    <path inkscape:connector-curvature="0" style="fill:#f0fafa;fill-opacity:1;fill-rule:evenodd;stroke:black;stroke-width:0.12769619;stroke-linecap:butt;stroke-linejoin:miter;stroke-miterlimit:4;stroke-opacity:1;stroke-dasharray:none" d="m 369.5023,562.09343 -0.16583,-0.94124 c 0,0 -0.0517,-0.18477 0.10072,-0.21344 0.14696,-0.0276 0.15509,0.16531 0.15509,0.16531 l 0.17127,0.94021 c 0,0 10e-4,0.097 0.12756,0.079 0.12622,-0.018 0.0837,-0.12443 0.0837,-0.12443 l -0.17904,-0.92159 c 0,0 -0.0483,-0.19684 0.0823,-0.22142 0.13063,-0.0246 0.14187,0.18496 0.14187,0.18496 l 0.17776,0.94471 c 0,0 0.0562,0.0738 0.14517,0.0528 0.089,-0.021 0.09,-0.0984 0.0931,-0.0969 l -0.16459,-0.94219 c 0,0 -0.0374,-0.19888 0.0758,-0.22591 0.11326,-0.027 0.15276,0.1829 0.15276,0.1829 l 0.18167,0.99547 c 0,0 0.2121,0.79193 -0.14984,0.91598 -0.32037,0.10979 0.66755,2.8328 0.56048,2.9395 -0.10129,0.10094 -0.12775,0.1203 -0.23557,0.14631 -0.10781,0.026 -0.22175,0.006 -0.30636,-0.0605 -0.15587,-0.12335 -0.26768,-2.95847 -0.52066,-2.94781 -0.32966,0.0139 -0.53383,-0.85616 -0.52734,-0.85166 z" id="path4031" />
    <g id="g5525" transform="matrix(0.01565856,-0.01557288,0.01557288,0.01565856,364.74116,554.668)">
      <path inkscape:connector-curvature="0" id="path8399" d="m -195.23005,373.64481 c -0.56511,-14.88627 10.5498,-23.72169 15.86789,-26.75737 5.31808,-3.03567 20.37465,-9.93385 31.84372,0.71541 11.61558,10.78529 44.04086,71.90506 30.14687,82.7527 -12.2978,9.60144 71.69239,113.30684 68.635635,119.56399 -2.89161,5.91912 -3.752712,7.16057 -8.056062,9.91523 -4.303351,2.75466 -8.619805,4.24378 -13.311309,2.60139 -8.643219,-3.02579 -56.359334,-124.10638 -67.214984,-119.83575 -14.14556,5.5649 -57.34665,-54.06934 -57.91176,-68.9556 z" style="fill:#f0fafa;fill-opacity:1;fill-rule:evenodd;stroke:black;stroke-width:5.8829999;stroke-linecap:butt;stroke-linejoin:miter;stroke-miterlimit:4;stroke-opacity:1;stroke-dasharray:none" />
      <path inkscape:connector-curvature="0" transform="matrix(0.8684702,-0.4957413,0.6179286,1.0825255,-489.16312,122.31283)" d="m 158.5168,292.88708 c 9.28898,-1.61201 17.64517,8.99465 18.66408,23.69064 1.01892,14.69598 -5.68529,27.91623 -14.97427,29.52824 -0.92528,0.16057 -1.85736,0.20007 -2.78675,0.1181" id="path8401" style="fill:none;stroke:black;stroke-width:5.8829999;stroke-linecap:round;stroke-linejoin:miter;stroke-miterlimit:4;stroke-opacity:1;stroke-dasharray:none;stroke-dashoffset:0" />
    </g>
  </g>
</svg>
