<?xml version="1.0" standalone="no"?>
<!--Generator: Adobe Illustrator 9.0, SVG Export Plug-In-->
<svg xmlns="http://www.w3.org/2000/svg" xmlns:xlink="http://www.w3.org/1999/xlink" viewBox="0 0 48 48">
  <metadata/>
  <defs>
    <radialGradient id="a" cx="23.6826" cy="19.9106" r="7.8359" fx="23.6826" fy="19.9106" gradientUnits="userSpaceOnUse">
      <stop offset="0" stop-color="#b6b6b6"/>
      <stop offset="1" stop-color="#878787"/>
    </radialGradient>
    <radialGradient gradientTransform="translate(2.000000,0.500000)" r="7.8359" fy="19.9106" fx="23.6826" cy="19.9106" cx="23.6826" gradientUnits="userSpaceOnUse" id="ac" xlink:href="#a"/>
    <radialGradient gradientTransform="translate(2.000000,0.500000)" r="7.8359" fy="19.9106" fx="23.6826" cy="19.9106" cx="23.6826" gradientUnits="userSpaceOnUse" id="ab" xlink:href="#a"/>
    <linearGradient gradientTransform="matrix(1.000000,-2.300000e-3,2.300000e-3,1.000000,-0.249600,0.270600)" y2="18.891199" x2="21.178200" y1="7.1201000" x1="21.178200" gradientUnits="userSpaceOnUse" id="c">
      <stop offset="0" stop-color="#120751"/>
      <stop offset="1" stop-color="#7473b5"/>
    </linearGradient>
    <linearGradient gradientTransform="matrix(1.000000,-2.300000e-3,2.300000e-3,1.000000,-0.249600,0.270600)" y2="18.933300" x2="21.347200" y1="7.1641002" x1="21.347200" gradientUnits="userSpaceOnUse" id="b">
      <stop offset="0" stop-color="#120751"/>
      <stop offset="1" stop-color="#7473b5"/>
    </linearGradient>
    <linearGradient y2="18.9333" x2="21.3472" y1="7.1641" x1="21.3472" gradientTransform="matrix(1.000000,-2.300000e-3,2.300000e-3,1.000000,1.750400,0.770600)" gradientUnits="userSpaceOnUse" id="ah" xlink:href="#b"/>
    <linearGradient y2="18.8912" x2="21.1782" y1="7.1201" x1="21.1782" gradientTransform="matrix(1.000000,-2.300000e-3,2.300000e-3,1.000000,1.750400,0.770600)" gradientUnits="userSpaceOnUse" id="ag" xlink:href="#c"/>
    <linearGradient y2="5.0770998" x2="33.023399" y1="5.0770998" x1="14.700200" gradientUnits="userSpaceOnUse" id="d">
      <stop offset="0" stop-color="#ebebeb"/>
      <stop offset="1" stop-color="#eaeaea"/>
    </linearGradient>
    <linearGradient gradientTransform="translate(2.000000,0.500000)" y2="5.0771" x2="33.0234" y1="5.0771" x1="14.7002" gradientUnits="userSpaceOnUse" id="af" xlink:href="#d"/>
    <linearGradient y2="10.313800" x2="36.129101" y1="20.447300" x1="27.521500" gradientUnits="userSpaceOnUse" id="e">
      <stop offset="0" stop-color="#9f9f9f"/>
      <stop offset="1" stop-color="#828282"/>
    </linearGradient>
    <linearGradient gradientTransform="translate(2.000000,0.500000)" y2="10.3138" x2="36.1291" y1="20.4473" x1="27.5215" gradientUnits="userSpaceOnUse" id="ae" xlink:href="#e"/>
    <linearGradient y2="14.983600" x2="29.891100" y1="13.839800" x1="14.011200" gradientUnits="userSpaceOnUse" id="f">
      <stop offset="0" stop-color="#f8f8f8"/>
      <stop offset="1" stop-color="#c9c9c9"/>
    </linearGradient>
    <linearGradient gradientTransform="translate(2.000000,0.500000)" y2="14.9836" x2="29.8911" y1="13.8398" x1="14.0112" gradientUnits="userSpaceOnUse" id="ad" xlink:href="#f"/>
    <linearGradient id="i" gradientUnits="userSpaceOnUse" x1="10.244600" y1="39.306599" x2="18.507500" y2="31.208500">
      <stop offset="0" stop-color="#dbdbdb"/>
      <stop offset="1" stop-color="#acacac"/>
    </linearGradient>
    <linearGradient id="h" gradientUnits="userSpaceOnUse" x1="9.8895998" y1="40.302700" x2="17.351299" y2="31.518400">
      <stop offset="0" stop-color="#9f9f9f"/>
      <stop offset="1" stop-color="#828282"/>
    </linearGradient>
    <linearGradient id="g" gradientUnits="userSpaceOnUse" x1="2.7651000" y1="35.448200" x2="22.361799" y2="35.448200">
      <stop offset="0" stop-color="#ebebeb"/>
      <stop offset="1" stop-color="#eaeaea"/>
    </linearGradient>
    <linearGradient gradientTransform="translate(2.000000,0.500000)" y2="35.4482" x2="22.3618" y1="35.4482" x1="2.7651" gradientUnits="userSpaceOnUse" id="U" xlink:href="#g"/>
    <linearGradient gradientTransform="translate(2.000000,0.500000)" y2="31.5184" x2="17.3513" y1="40.3027" x1="9.8896" gradientUnits="userSpaceOnUse" id="T" xlink:href="#h"/>
    <linearGradient gradientTransform="translate(2.000000,0.500000)" y2="31.2085" x2="18.5075" y1="39.3066" x1="10.2446" gradientUnits="userSpaceOnUse" id="S" xlink:href="#i"/>
    <linearGradient id="q" gradientUnits="userSpaceOnUse" x1="13.387200" y1="26.143600" x2="39.688499" y2="26.143600" gradientTransform="matrix(0.997000,7.730000e-2,-7.730000e-2,0.997000,1.203400,-3.003600)">
      <stop offset="0" stop-color="#ebebeb"/>
      <stop offset="1" stop-color="#eaeaea"/>
    </linearGradient>
    <linearGradient id="p" gradientUnits="userSpaceOnUse" x1="14.072800" y1="32.205101" x2="27.986200" y2="33.207199" gradientTransform="matrix(0.997000,7.730000e-2,-7.730000e-2,0.997000,1.203400,-3.003600)">
      <stop offset="0" stop-color="#f8f8f8"/>
      <stop offset="1" stop-color="#c9c9c9"/>
    </linearGradient>
    <linearGradient id="o" gradientUnits="userSpaceOnUse" x1="30.713900" y1="34.670898" x2="39.295200" y2="24.568399" gradientTransform="matrix(0.997000,7.730000e-2,-7.730000e-2,0.997000,1.203400,-3.003600)">
      <stop offset="0" stop-color="#9f9f9f"/>
      <stop offset="1" stop-color="#828282"/>
    </linearGradient>
    <linearGradient id="n" gradientUnits="userSpaceOnUse" x1="21.110399" y1="32.287102" x2="26.002001" y2="32.287102">
      <stop offset="0" stop-color="#2a2a2a"/>
      <stop offset="0.4743" stop-color="#585858"/>
      <stop offset="1" stop-color="#878787"/>
    </linearGradient>
    <linearGradient id="m" gradientUnits="userSpaceOnUse" x1="36.438499" y1="25.446301" x2="32.953800" y2="31.967699">
      <stop offset="0" stop-color="#fff"/>
      <stop offset="1" stop-color="#fff"/>
    </linearGradient>
    <linearGradient id="l" gradientUnits="userSpaceOnUse" x1="36.438499" y1="24.493200" x2="32.953800" y2="31.014601">
      <stop offset="0" stop-color="#fff"/>
      <stop offset="1" stop-color="#fff"/>
    </linearGradient>
    <linearGradient id="k" gradientUnits="userSpaceOnUse" x1="36.439499" y1="25.138700" x2="32.954300" y2="31.660999">
      <stop offset="0" stop-color="#000"/>
      <stop offset="1" stop-color="#6a6a6a"/>
    </linearGradient>
    <linearGradient id="j" gradientUnits="userSpaceOnUse" x1="36.439499" y1="24.185499" x2="32.954300" y2="30.707800">
      <stop offset="0" stop-color="#000"/>
      <stop offset="1" stop-color="#6a6a6a"/>
    </linearGradient>
    <linearGradient gradientTransform="translate(2.000000,0.500000)" y2="30.7078" x2="32.9543" y1="24.1855" x1="36.4395" gradientUnits="userSpaceOnUse" id="R" xlink:href="#j"/>
    <linearGradient gradientTransform="translate(2.000000,0.500000)" y2="31.661" x2="32.9543" y1="25.1387" x1="36.4395" gradientUnits="userSpaceOnUse" id="Q" xlink:href="#k"/>
    <linearGradient gradientTransform="translate(2.000000,0.500000)" y2="31.0146" x2="32.9538" y1="24.4932" x1="36.4385" gradientUnits="userSpaceOnUse" id="P" xlink:href="#l"/>
    <linearGradient gradientTransform="translate(2.000000,0.500000)" y2="31.9677" x2="32.9538" y1="25.4463" x1="36.4385" gradientUnits="userSpaceOnUse" id="O" xlink:href="#m"/>
    <linearGradient gradientTransform="translate(2.000000,0.500000)" y2="32.2871" x2="26.002" y1="32.2871" x1="21.1104" gradientUnits="userSpaceOnUse" id="N" xlink:href="#n"/>
    <linearGradient y2="24.5684" x2="39.2952" y1="34.6709" x1="30.7139" gradientTransform="matrix(0.997000,7.730000e-2,-7.730000e-2,0.997000,3.203400,-2.503600)" gradientUnits="userSpaceOnUse" id="M" xlink:href="#o"/>
    <linearGradient y2="33.2072" x2="27.9862" y1="32.2051" x1="14.0728" gradientTransform="matrix(0.997000,7.730000e-2,-7.730000e-2,0.997000,3.203400,-2.503600)" gradientUnits="userSpaceOnUse" id="L" xlink:href="#p"/>
    <linearGradient y2="26.1436" x2="39.6885" y1="26.1436" x1="13.3872" gradientTransform="matrix(0.997000,7.730000e-2,-7.730000e-2,0.997000,3.203400,-2.503600)" gradientUnits="userSpaceOnUse" id="K" xlink:href="#q"/>
    <linearGradient y2="31.645500" x2="12.463100" y1="33.472698" x1="11.326700" gradientUnits="userSpaceOnUse" id="r">
      <stop offset="0" stop-color="#dbdbdb"/>
      <stop offset="1" stop-color="#acacac"/>
    </linearGradient>
    <linearGradient gradientTransform="translate(2.000000,0.500000)" y2="31.6455" x2="12.4631" y1="33.4727" x1="11.3267" gradientUnits="userSpaceOnUse" id="aa" xlink:href="#r"/>
    <linearGradient y2="30.978100" x2="13.897300" y1="33.298801" x1="11.529300" gradientUnits="userSpaceOnUse" id="s">
      <stop offset="0" stop-color="#686868"/>
      <stop offset="1" stop-color="#6d6d6d"/>
    </linearGradient>
    <linearGradient gradientTransform="translate(2.000000,0.500000)" y2="30.9781" x2="13.8973" y1="33.2988" x1="11.5293" gradientUnits="userSpaceOnUse" id="Z" xlink:href="#s"/>
    <linearGradient y2="35.876499" x2="17.895500" y1="38.442402" x1="15.277300" gradientUnits="userSpaceOnUse" id="t">
      <stop offset="0" stop-color="#dbdbdb"/>
      <stop offset="1" stop-color="#acacac"/>
    </linearGradient>
    <linearGradient gradientTransform="translate(2.000000,0.500000)" y2="35.8765" x2="17.8955" y1="38.4424" x1="15.2773" gradientUnits="userSpaceOnUse" id="Y" xlink:href="#t"/>
    <linearGradient y2="36.228298" x2="18.241501" y1="39.132801" x1="15.277800" gradientUnits="userSpaceOnUse" id="u">
      <stop offset="0" stop-color="#686868"/>
      <stop offset="1" stop-color="#6d6d6d"/>
    </linearGradient>
    <linearGradient gradientTransform="translate(2.000000,0.500000)" y2="36.2283" x2="18.2415" y1="39.1328" x1="15.2778" gradientUnits="userSpaceOnUse" id="X" xlink:href="#u"/>
    <linearGradient y2="32.361198" x2="11.788500" y1="36.094700" x1="7.9790001" gradientUnits="userSpaceOnUse" id="v">
      <stop offset="0" stop-color="#dbdbdb"/>
      <stop offset="1" stop-color="#acacac"/>
    </linearGradient>
    <linearGradient gradientTransform="translate(2.000000,0.500000)" y2="32.3612" x2="11.7885" y1="36.0947" x1="7.979" gradientUnits="userSpaceOnUse" id="W" xlink:href="#v"/>
    <linearGradient y2="32.884102" x2="12.259100" y1="36.923801" x1="8.1372004" gradientUnits="userSpaceOnUse" id="w">
      <stop offset="0" stop-color="#686868"/>
      <stop offset="1" stop-color="#6d6d6d"/>
    </linearGradient>
    <linearGradient gradientTransform="translate(2.000000,0.500000)" y2="32.8841" x2="12.2591" y1="36.9238" x1="8.1372" gradientUnits="userSpaceOnUse" id="V" xlink:href="#w"/>
    <linearGradient id="x" gradientUnits="userSpaceOnUse" x1="21.680700" y1="6.6269999" x2="21.680700" y2="11.332400" gradientTransform="matrix(1.000000,-2.300000e-3,2.300000e-3,1.000000,-0.249600,0.270600)">
      <stop offset="0" stop-color="#e7ebef"/>
      <stop offset="1" stop-color="#52699f"/>
    </linearGradient>
    <linearGradient y2="11.3324" x2="21.6807" y1="6.627" x1="21.6807" gradientTransform="matrix(1.000000,-2.300000e-3,2.300000e-3,1.000000,1.750400,0.770600)" gradientUnits="userSpaceOnUse" id="ai" xlink:href="#x"/>
    <linearGradient y2="17.6041" x2="29.1478" y1="18.3115" x1="28.5469" gradientUnits="userSpaceOnUse" id="aj" xlink:href="#y"/>
    <linearGradient y2="15.784" x2="29.4527" y1="16.4917" x1="28.8516" gradientUnits="userSpaceOnUse" id="ak" xlink:href="#z"/>
    <linearGradient y2="13.9656" x2="29.7603" y1="14.6733" x1="29.1592" gradientUnits="userSpaceOnUse" id="al" xlink:href="#A"/>
    <linearGradient y2="12.1469" x2="30.0656" y1="12.853" x1="29.4658" gradientUnits="userSpaceOnUse" id="am" xlink:href="#B"/>
    <linearGradient y2="10.3276" x2="30.3723" y1="11.0337" x1="29.7725" gradientUnits="userSpaceOnUse" id="an" xlink:href="#C"/>
    <linearGradient y2="8.508" x2="30.6782" y1="9.2144" x1="30.0781" gradientUnits="userSpaceOnUse" id="ao" xlink:href="#D"/>
    <linearGradient y2="8.685" x2="30.7971" y1="9.1934" x1="30.3652" gradientUnits="userSpaceOnUse" id="ap" xlink:href="#E"/>
    <linearGradient y2="10.5048" x2="30.4982" y1="11.0132" x1="30.0664" gradientUnits="userSpaceOnUse" id="aq" xlink:href="#F"/>
    <linearGradient y2="12.3251" x2="30.2013" y1="12.8335" x1="29.7695" gradientUnits="userSpaceOnUse" id="ar" xlink:href="#G"/>
    <linearGradient y2="14.1445" x2="29.9029" y1="14.6533" x1="29.4707" gradientUnits="userSpaceOnUse" id="as" xlink:href="#H"/>
    <linearGradient y2="15.9648" x2="29.6041" y1="16.4736" x1="29.1719" gradientUnits="userSpaceOnUse" id="at" xlink:href="#I"/>
    <linearGradient y2="17.7841" x2="29.3072" y1="18.293" x1="28.875" gradientUnits="userSpaceOnUse" id="au" xlink:href="#J"/>
  </defs>
  <path d="M 40.200000,23.300000 C 39.700665,23.197119 27.600000,19.800000 27.000000,19.600000 C 26.400000,19.400000 25.600000,19.400000 25.300000,19.500000 C 25.000000,19.600000 15.000000,25.400000 14.400000,25.700000 C 14.300000,25.700000 14.300000,25.800000 14.200000,25.900000 C 13.500000,26.500000 13.500000,27.400000 13.500000,27.400000 C 13.500000,27.400000 13.500000,27.400000 13.500000,27.300000 C 13.500000,27.300000 13.500000,27.400000 13.500000,27.400000 L 13.700000,30.000000 C 13.700000,30.500000 13.800000,30.700000 14.200000,30.900000 C 14.200000,30.900000 27.200000,36.100000 28.700000,36.500000 C 28.800000,36.500000 28.800000,36.500000 28.900000,36.500000 C 28.900000,36.500000 28.900000,36.500000 28.900000,36.500000 C 29.600000,36.600000 29.800000,36.600000 30.100000,36.300000 C 30.100000,36.300000 30.200000,36.300000 30.200000,36.200000 C 30.500000,36.000000 40.400000,28.400000 40.700000,28.100000 C 41.000000,27.800000 41.000000,27.600000 41.100000,27.300000 C 41.100000,27.000000 41.300000,25.000000 41.300000,24.600000 C 41.300000,24.600000 41.300000,24.500000 41.300000,24.500000 L 41.300000,24.500000 C 41.300000,24.100000 40.946324,23.453770 40.200000,23.300000 z M 29.600000,36.100000 C 29.600000,36.100000 29.600000,36.100000 29.600000,36.100000 L 29.600000,36.100000 L 29.600000,36.100000 C 29.600000,36.100000 29.600000,36.100000 29.600000,36.200000 C 29.600000,36.200000 29.600000,36.100000 29.600000,36.100000 L 29.600000,36.100000 z M 39.900000,24.800000 C 40.300000,24.500000 40.500000,24.300000 40.500000,24.300000 C 40.500000,24.300000 40.200000,24.500000 39.800000,24.800000 C 39.100000,25.300000 38.200000,25.900000 37.200000,26.700000 C 38.900000,25.500000 40.400000,24.500000 40.800000,24.200000 C 40.700000,24.300000 40.400000,24.500000 39.900000,24.800000 z " fill="#000" fill-rule="nonzero" stroke="#000" stroke-width="2.9273" stroke-linecap="round" stroke-linejoin="round" stroke-miterlimit="4"/>
  <path d="M 27.000000,19.700000 C 26.400000,19.500000 25.600000,19.500000 25.300000,19.600000 C 25.000000,19.700000 15.000000,25.400000 14.400000,25.800000 C 13.900000,26.100000 13.700000,26.700000 14.400000,27.000000 C 15.100000,27.200000 28.200000,31.500000 28.700000,31.600000 C 29.300000,31.800000 30.200000,31.800000 30.500000,31.500000 C 30.800000,31.300000 40.515496,24.572314 40.815496,24.272314 C 41.115496,23.972314 40.520526,23.440175 40.100000,23.300000 C 39.620526,23.140175 27.500000,19.800000 26.900000,19.600000 L 27.000000,19.700000 z " fill="url(#K)" fill-rule="nonzero" stroke="none" stroke-miterlimit="4"/>
  <path d="M 13.600000,27.500000 C 13.600000,27.000000 13.900000,26.700000 14.300000,26.800000 C 14.600000,26.900000 28.700000,31.500000 29.200000,31.900000 C 29.700000,32.200000 30.000000,32.400000 30.000000,32.800000 C 30.000000,33.200000 29.800000,35.500000 29.800000,35.900000 C 29.800000,36.300000 29.500000,36.700000 28.900000,36.500000 C 27.400000,36.100000 14.400000,30.900000 14.400000,30.900000 C 14.000000,30.700000 13.900000,30.500000 13.900000,30.000000 L 13.600000,27.500000 z " fill="url(#L)" fill-rule="nonzero" stroke="none" stroke-miterlimit="4"/>
  <path d="M 30.300000,36.300000 C 30.000000,36.500000 29.677340,36.266854 29.677340,35.700563 C 29.677340,35.200563 29.800000,33.100000 29.800000,32.700000 C 29.800000,32.300000 30.000000,31.900000 30.300000,31.700000 C 30.600000,31.500000 40.400000,24.600000 40.800000,24.300000 C 41.200000,24.000000 41.400000,24.600000 41.300000,24.900000 C 41.300000,25.200000 41.100000,27.300000 41.100000,27.600000 C 41.100000,27.900000 41.000000,28.100000 40.700000,28.300000 C 40.400000,28.600000 30.400000,36.100000 30.200000,36.400000 L 30.300000,36.300000 z " fill="url(#M)" fill-rule="nonzero" stroke="none" stroke-miterlimit="4"/>
  <path d="M 14.200000,26.600000 C 14.100000,26.600000 14.200000,26.100000 14.500000,25.800000 C 13.600000,26.400000 13.600000,27.500000 13.600000,27.500000 C 13.600000,27.500000 13.700000,27.000000 14.200000,27.000000 C 16.000000,27.600000 28.400000,31.900000 28.900000,32.100000 C 29.400000,32.300000 29.467417,32.833709 29.467417,33.333709 L 29.689515,36.123223 L 30.100000,33.400000 C 30.100000,32.900000 30.300000,32.100000 30.900000,31.700000 C 31.200000,31.500000 38.757025,26.156198 40.891736,24.249587 C 38.863636,25.329752 30.837119,31.600000 29.732583,31.600000 C 28.881845,31.600000 14.300000,26.600000 14.200000,26.600000 z " fill="#fff" fill-rule="nonzero" stroke="none" stroke-miterlimit="4"/>
  <path d="M 39.700000,25.100000 C 40.200000,24.700000 40.600000,24.500000 40.600000,24.500000 C 40.600000,24.500000 40.300000,24.700000 39.700000,25.100000 z " fill="#fff" fill-rule="nonzero" stroke="none" stroke-miterlimit="4"/>
  <path d="M 30.376777,36.234272 C 30.076777,36.534272 29.677903,36.766291 28.966854,36.522660 C 29.577340,36.566291 29.711049,35.923223 29.711049,35.923223 C 29.711049,35.923223 29.788951,36.466291 30.376777,36.234272 z " fill="#848484" fill-rule="nonzero" stroke="none" stroke-miterlimit="4"/>
  <path d="M 40.577893,24.434298 C 41.079339,24.192975 41.289669,24.453926 41.305165,24.882645 C 41.377479,24.441322 41.361983,23.648347 40.112190,23.301860 C 40.112190,23.301860 41.115496,23.798554 40.577893,24.434298 z " fill="#545454" fill-rule="nonzero" stroke="none" stroke-miterlimit="4"/>
  <path d="M 23.100000,31.600000 L 23.100000,32.200000 L 28.000000,33.900000 L 28.000000,33.400000 L 23.100000,31.600000 L 23.100000,31.600000 z " fill="url(#N)" fill-rule="nonzero" stroke="none" stroke-miterlimit="4"/>
  <path d="M 23.100000,32.200000 L 22.800000,32.400000 L 22.800000,31.200000 L 28.200000,33.100000 L 28.000000,33.400000 L 23.100000,31.600000 L 23.100000,32.200000 z " opacity=".21999998" fill="#000" fill-rule="nonzero" stroke="none" stroke-miterlimit="4"/>
  <path d="M 28.200000,34.300000 L 28.200000,33.100000 L 28.000000,33.400000 L 28.000000,33.900000 L 23.100000,32.200000 L 22.800000,32.400000 L 28.200000,34.300000 L 28.200000,34.300000 z " opacity=".72000003" fill="#fff" fill-rule="nonzero" stroke="none" stroke-miterlimit="4"/>
  <path d="M 41.163281,26.721094 L 30.500000,34.500000 L 30.500000,34.900000 L 41.135937,27.017187 L 41.300000,26.600000 L 41.163281,26.721094 z " opacity=".12999995" fill="url(#O)" fill-rule="nonzero" stroke="none" stroke-miterlimit="4"/>
  <path d="M 41.245312,25.623438 L 30.400000,33.500000 L 30.400000,33.900000 L 41.227344,25.888281 L 41.245312,25.623438 z " opacity=".12999995" fill="url(#P)" fill-rule="nonzero" stroke="none" stroke-miterlimit="4"/>
  <path d="M 41.300000,26.300000 L 30.400000,34.200000 L 30.400000,34.600000 L 41.200000,26.600000 L 41.200000,26.300000 L 41.300000,26.300000 z " opacity=".12999995" fill="url(#Q)" fill-rule="nonzero" stroke="none" stroke-miterlimit="4"/>
  <path d="M 41.300000,25.300000 L 30.400000,33.200000 L 30.400000,33.600000 L 41.250781,25.550000 L 41.300000,25.300000 z " opacity=".12999995" fill="url(#R)" fill-rule="nonzero" stroke="none" stroke-miterlimit="4"/>
  <path d="M 24.300000,35.400000 L 11.200000,30.400000 C 10.800000,31.300000 10.200000,32.100000 9.5000000,32.700000 L 9.5000000,32.700000 C 9.2000000,32.600000 8.7000000,32.600000 8.5000000,32.900000 L 6.2000000,34.500000 C 6.0000000,34.700000 6.0000000,34.900000 6.2000000,35.100000 L 6.2000000,35.100000 C 5.3000000,35.600000 4.7000000,35.800000 4.7000000,35.800000 C 4.1000000,36.400000 5.0000000,37.300000 5.0000000,37.300000 L 18.100000,43.100000 C 19.300000,43.600000 23.900000,40.300000 24.600000,39.000000 C 25.400000,37.700000 24.200000,35.300000 24.200000,35.300000 L 24.300000,35.400000 z " fill="url(#S)" fill-rule="nonzero" stroke="#000" stroke-width="2.9273" stroke-linecap="round" stroke-linejoin="round" stroke-miterlimit="4"/>
  <path d="M 5.1000000,37.400000 L 18.200000,43.200000 C 19.400000,43.700000 24.000000,40.400000 24.700000,39.100000 C 25.500000,37.800000 24.300000,35.400000 24.300000,35.400000 L 11.200000,30.400000 C 9.5000000,34.000000 4.7000000,35.900000 4.7000000,35.900000 C 4.1000000,36.500000 5.0000000,37.400000 5.0000000,37.400000 L 5.1000000,37.400000 z " fill="url(#T)" fill-rule="nonzero" stroke="none" stroke-miterlimit="4"/>
  <path d="M 24.400000,35.400000 C 23.400000,38.200000 18.500000,41.600000 18.500000,41.600000 L 4.8000000,35.800000 C 4.8000000,35.800000 9.2000000,34.200000 11.300000,30.300000 L 24.400000,35.300000 L 24.400000,35.400000 z " fill="url(#U)" fill-rule="nonzero" stroke="none" stroke-miterlimit="4"/>
  <path d="M 24.400000,35.400000 C 23.600000,37.600000 18.900000,41.300000 18.400000,41.300000 C 17.900000,41.300000 4.8000000,35.800000 4.8000000,35.800000 L 18.000000,41.500000 C 18.000000,41.500000 18.300000,41.700000 18.300000,41.900000 L 18.500000,43.100000 L 18.600000,42.000000 C 18.600000,42.000000 18.600000,41.500000 18.800000,41.400000 C 18.800000,41.400000 23.700000,37.700000 24.400000,35.300000 L 24.400000,35.400000 z " fill="#fff" fill-rule="nonzero" stroke="none" stroke-miterlimit="4"/>
  <path d="M 6.1000000,35.200000 C 5.8000000,35.400000 5.9000000,35.700000 6.2000000,35.800000 L 13.900000,38.900000 C 14.200000,39.000000 14.700000,38.900000 15.000000,38.700000 L 17.200000,36.600000 C 17.500000,36.400000 17.400000,36.000000 17.100000,35.900000 L 9.8000000,33.100000 C 9.5000000,33.000000 9.0000000,33.000000 8.7000000,33.300000 L 6.3000000,35.200000 L 6.1000000,35.200000 z " fill="url(#V)" fill-rule="nonzero" stroke="none" stroke-miterlimit="4"/>
  <path d="M 6.3000000,34.600000 C 6.0000000,34.800000 6.0000000,35.000000 6.3000000,35.200000 L 13.400000,38.100000 C 13.700000,38.200000 14.200000,38.100000 14.400000,37.900000 L 16.400000,36.000000 C 16.600000,35.800000 16.600000,35.500000 16.300000,35.400000 L 9.5000000,32.800000 C 9.2000000,32.700000 8.7000000,32.800000 8.5000000,33.000000 L 6.3000000,34.700000 L 6.3000000,34.600000 z " fill="url(#W)" fill-rule="nonzero" stroke="none" stroke-miterlimit="4"/>
  <path d="M 18.800000,36.600000 C 18.500000,36.500000 18.000000,36.600000 17.700000,36.800000 L 15.500000,39.000000 C 15.200000,39.300000 15.300000,39.600000 15.600000,39.700000 L 17.700000,40.600000 C 18.000000,40.700000 18.500000,40.700000 18.800000,40.400000 L 21.100000,38.100000 C 21.400000,37.800000 21.300000,37.500000 20.900000,37.400000 L 18.700000,36.500000 L 18.800000,36.600000 z " fill="url(#X)" fill-rule="nonzero" stroke="none" stroke-miterlimit="4"/>
  <path d="M 18.700000,36.200000 C 18.400000,36.100000 17.900000,36.200000 17.700000,36.400000 L 15.700000,38.300000 C 15.500000,38.500000 15.500000,38.800000 15.800000,39.000000 L 17.700000,39.800000 C 18.000000,39.900000 18.400000,39.800000 18.700000,39.600000 L 20.700000,37.600000 C 20.900000,37.400000 20.900000,37.100000 20.600000,37.000000 L 18.700000,36.200000 z " fill="url(#Y)" fill-rule="nonzero" stroke="none" stroke-miterlimit="4"/>
  <path d="M 11.300000,31.100000 C 11.000000,31.000000 10.600000,31.100000 10.400000,31.400000 L 10.400000,31.500000 C 10.200000,31.800000 10.300000,32.200000 10.700000,32.300000 L 17.500000,35.000000 C 17.800000,35.100000 18.200000,35.000000 18.400000,34.700000 L 18.500000,34.500000 C 18.700000,34.200000 18.600000,33.900000 18.200000,33.700000 L 11.300000,31.100000 L 11.300000,31.100000 z " fill="url(#Z)" fill-rule="nonzero" stroke="none" stroke-miterlimit="4"/>
  <path d="M 11.300000,30.700000 C 11.000000,30.600000 10.600000,30.700000 10.400000,31.000000 L 10.400000,31.100000 C 10.200000,31.400000 10.400000,31.700000 10.700000,31.800000 L 17.200000,34.400000 C 17.500000,34.500000 17.900000,34.400000 18.100000,34.100000 L 18.200000,33.900000 C 18.400000,33.600000 18.200000,33.300000 17.900000,33.200000 L 11.400000,30.700000 L 11.300000,30.700000 z " fill="url(#aa)" fill-rule="nonzero" stroke="none" stroke-miterlimit="4"/>
  <path d="M 23.400000,35.700000 L 22.400000,37.100000 L 18.200000,35.400000 L 19.200000,34.100000 L 23.400000,35.600000 L 23.400000,35.700000 z " fill="#f8f8f8" fill-rule="nonzero" stroke="none" stroke-miterlimit="4"/>
  <path d="M 18.200000,35.400000 L 19.200000,34.100000 L 23.400000,35.600000 L 23.100000,35.600000 L 19.200000,34.300000 L 18.100000,35.300000 L 18.200000,35.400000 z " fill="#c9c9c9" fill-rule="nonzero" stroke="none" stroke-miterlimit="4"/>
  <path d="M 17.200000,34.500000 L 10.600000,31.800000 C 10.100000,31.500000 10.500000,31.000000 10.500000,31.000000 C 10.500000,31.000000 10.200000,31.500000 10.700000,31.700000 L 17.100000,34.200000 C 17.600000,34.400000 18.100000,33.900000 18.100000,33.900000 C 18.100000,33.900000 17.800000,34.600000 17.200000,34.400000 L 17.200000,34.500000 z " fill="#fff" fill-rule="nonzero" stroke="none" stroke-miterlimit="4"/>
  <path d="M 13.600000,38.100000 L 6.4000000,35.200000 C 5.8000000,34.900000 6.3000000,34.600000 6.3000000,34.600000 C 6.3000000,34.600000 6.0000000,34.900000 6.5000000,35.100000 L 13.500000,37.900000 C 14.000000,38.100000 14.600000,37.700000 14.600000,37.700000 C 14.600000,37.700000 14.200000,38.200000 13.600000,38.100000 L 13.600000,38.100000 z " fill="#fff" fill-rule="nonzero" stroke="none" stroke-miterlimit="4"/>
  <path d="M 17.800000,39.900000 L 15.800000,39.000000 C 15.200000,38.700000 15.700000,38.400000 15.700000,38.400000 C 15.700000,38.400000 15.400000,38.700000 16.000000,38.900000 L 17.800000,39.700000 C 18.300000,39.900000 18.900000,39.500000 18.900000,39.500000 C 18.900000,39.500000 18.500000,40.000000 17.900000,39.900000 L 17.800000,39.900000 z " fill="#fff" fill-rule="nonzero" stroke="none" stroke-miterlimit="4"/>
  <path d="M 34.20629 27.317127 A 8.7946405 4.9497476 0 1 1  16.617009,27.317127 A 8.7946405 4.9497476 0 1 1  34.20629 27.317127 z" transform="translate(1.734833,-2.560659)" opacity=".2" fill="#000" fill-opacity="1" fill-rule="evenodd" stroke="none" stroke-width="1px" stroke-linecap="butt" stroke-linejoin="miter" stroke-opacity="1"/>
  <path d="M 27.400000,20.500000 C 23.800000,20.500000 20.900000,21.800000 20.900000,23.400000 L 20.900000,24.200000 C 20.900000,25.800000 23.800000,27.100000 27.400000,27.100000 C 31.000000,27.100000 33.900000,25.800000 33.900000,24.200000 L 33.900000,23.400000 C 33.900000,21.800000 31.000000,20.500000 27.400000,20.500000 z " fill="url(#ab)" fill-rule="nonzero" stroke="#000" stroke-width="1.8322001" stroke-linecap="round" stroke-linejoin="round" stroke-miterlimit="4"/>
  <path d="M 27.400000,20.500000 C 23.800000,20.500000 20.900000,21.800000 20.900000,23.400000 L 20.900000,24.200000 C 20.900000,25.800000 23.800000,27.100000 27.400000,27.100000 C 31.000000,27.100000 33.900000,25.800000 33.900000,24.200000 L 33.900000,23.400000 C 33.900000,21.800000 31.000000,20.500000 27.400000,20.500000 z " fill="url(#ac)" fill-rule="nonzero" stroke="none" stroke-miterlimit="4"/>
  <path d="M 20.900000,23.000000 C 21.100000,24.200000 22.500000,26.000000 28.500000,26.100000 C 23.900000,26.500000 20.300000,25.200000 20.900000,23.000000 z " fill="#b3b3b3" fill-rule="nonzero" stroke="none" stroke-miterlimit="4"/>
  <path d="M 35.500000,7.7000000 C 35.600000,7.4000000 35.500000,7.1000000 35.300000,7.0000000 C 35.100000,7.0000000 35.000000,7.0000000 35.000000,7.0000000 C 35.000000,7.0000000 35.000000,7.0000000 35.000000,7.0000000 C 35.000000,7.0000000 34.700000,7.0000000 34.400000,6.9000000 L 18.000000,4.1000000 C 17.700000,4.0000000 17.200000,4.0000000 17.000000,4.0000000 C 16.800000,4.0000000 16.500000,4.0000000 16.300000,4.0000000 C 16.100000,4.0000000 16.000000,4.3000000 15.900000,4.6000000 L 13.700000,20.000000 C 13.700000,20.300000 13.900000,20.700000 14.200000,20.800000 L 29.900000,25.500000 C 30.200000,25.600000 30.500000,25.700000 30.500000,25.700000 C 30.500000,25.700000 30.500000,25.700000 30.500000,25.700000 C 30.500000,25.700000 30.600000,25.700000 30.800000,25.800000 C 31.000000,25.800000 31.200000,25.900000 31.200000,25.800000 C 31.300000,25.800000 31.400000,25.700000 31.500000,25.700000 C 31.600000,25.700000 31.800000,25.600000 31.800000,25.600000 C 31.800000,25.600000 32.000000,25.600000 32.100000,25.500000 C 32.300000,25.500000 32.500000,25.100000 32.600000,24.800000 L 35.500000,7.7000000 L 35.500000,7.7000000 z " fill="#000" fill-rule="nonzero" stroke="none" stroke-miterlimit="4"/>
  <path d="M 35.500000,7.7000000 C 35.600000,7.4000000 35.500000,7.1000000 35.300000,7.0000000 C 35.100000,7.0000000 35.000000,7.0000000 35.000000,7.0000000 C 35.000000,7.0000000 35.000000,7.0000000 35.000000,7.0000000 C 35.000000,7.0000000 34.700000,7.0000000 34.400000,6.9000000 L 18.000000,4.1000000 C 17.700000,4.0000000 17.200000,4.0000000 17.000000,4.0000000 C 16.800000,4.0000000 16.500000,4.0000000 16.300000,4.0000000 C 16.100000,4.0000000 16.000000,4.3000000 15.900000,4.6000000 L 13.700000,20.000000 C 13.700000,20.300000 13.900000,20.700000 14.200000,20.800000 L 29.900000,25.500000 C 30.200000,25.600000 30.500000,25.700000 30.500000,25.700000 C 30.500000,25.700000 30.500000,25.700000 30.500000,25.700000 C 30.500000,25.700000 30.600000,25.700000 30.800000,25.800000 C 31.000000,25.800000 31.200000,25.900000 31.200000,25.800000 C 31.300000,25.800000 31.400000,25.700000 31.500000,25.700000 C 31.600000,25.700000 31.800000,25.600000 31.800000,25.600000 C 31.800000,25.600000 32.000000,25.600000 32.100000,25.500000 C 32.300000,25.500000 32.500000,25.100000 32.600000,24.800000 L 35.500000,7.7000000 L 35.500000,7.7000000 z " fill="none" fill-rule="nonzero" stroke="#000" stroke-width="2.9273" stroke-linecap="round" stroke-linejoin="round" stroke-miterlimit="4"/>
  <path d="M 16.800000,4.2000000 C 16.400000,4.1000000 16.000000,4.4000000 15.900000,4.9000000 L 13.700000,19.900000 C 13.600000,20.300000 13.900000,20.800000 14.400000,20.900000 L 30.400000,25.600000 C 30.800000,25.700000 31.200000,25.500000 31.300000,25.000000 L 34.300000,7.9000000 C 34.300000,7.5000000 34.000000,7.1000000 33.600000,7.0000000 L 16.800000,4.2000000 z " fill="url(#ad)" fill-rule="nonzero" stroke="none" stroke-miterlimit="4"/>
  <path d="M 32.700000,24.600000 C 32.600000,25.000000 32.200000,25.500000 31.800000,25.600000 C 31.400000,25.700000 31.100000,25.400000 31.200000,25.000000 L 34.200000,7.9000000 C 34.300000,7.5000000 34.700000,7.1000000 35.000000,7.1000000 C 35.300000,7.1000000 35.600000,7.5000000 35.500000,7.9000000 L 32.700000,24.600000 L 32.700000,24.600000 z " fill="url(#ae)" fill-rule="nonzero" stroke="none" stroke-miterlimit="4"/>
  <path d="M 18.200000,4.1000000 C 17.800000,4.0000000 17.100000,4.0000000 16.700000,4.0000000 C 16.300000,4.0000000 16.400000,4.1000000 16.800000,4.2000000 L 33.600000,7.0000000 C 34.000000,7.1000000 34.700000,7.1000000 35.000000,7.1000000 C 35.300000,7.1000000 35.300000,7.0000000 34.800000,7.0000000 L 18.200000,4.1000000 z " fill="url(#af)" fill-rule="nonzero" stroke="none" stroke-miterlimit="4"/>
  <path d="M 31.900000,25.600000 C 31.500000,25.800000 31.100000,25.800000 30.600000,25.600000 C 31.100000,25.500000 31.300000,25.100000 31.300000,25.100000 C 31.300000,25.100000 31.400000,25.700000 31.900000,25.600000 z " fill="#848484" fill-rule="nonzero" stroke="none" stroke-miterlimit="4"/>
  <path d="M 33.600000,7.2000000 C 34.000000,7.3000000 34.300000,7.3000000 34.100000,8.3000000 L 31.600000,22.500000 L 31.300000,24.900000 L 31.900000,22.600000 L 34.500000,7.9000000 C 34.600000,7.4000000 34.900000,7.2000000 35.100000,7.1000000 L 16.800000,4.1000000 C 16.700000,4.1000000 16.700000,4.0000000 16.700000,4.0000000 C 16.300000,4.0000000 16.100000,4.4000000 16.000000,4.8000000 C 16.200000,4.5000000 16.300000,4.2000000 16.700000,4.3000000 L 33.700000,7.1000000 L 33.600000,7.2000000 z " fill="#fff" fill-rule="nonzero" stroke="none" stroke-miterlimit="4"/>
  <path d="M 35.500000,7.9000000 C 35.500000,7.2000000 35.000000,7.1000000 35.000000,7.1000000 C 35.000000,7.1000000 35.100000,7.0000000 35.000000,7.0000000 C 35.300000,7.0000000 35.500000,7.4000000 35.400000,7.9000000 L 35.500000,7.9000000 z " fill="#545454" fill-rule="nonzero" stroke="none" stroke-miterlimit="4"/>
  <path d="M 28.200000,21.900000 L 15.400000,18.200000 L 17.100000,5.7000000 L 30.500000,8.0000000 L 28.100000,21.800000 L 28.200000,21.900000 z " fill="url(#ag)" fill-rule="nonzero" stroke="none" stroke-miterlimit="4"/>
  <path d="M 28.300000,21.900000 L 15.600000,18.200000 L 17.300000,5.7000000 L 30.700000,8.0000000 L 28.300000,21.800000 L 28.300000,21.900000 z " fill="url(#ah)" fill-rule="nonzero" stroke="none" stroke-miterlimit="4"/>
  <path d="M 18.000000,6.5000000 C 17.900000,6.5000000 17.800000,6.6000000 17.800000,6.8000000 L 17.000000,12.700000 C 17.000000,12.800000 17.000000,12.900000 17.100000,13.000000 C 20.500000,13.000000 26.300000,11.400000 29.600000,9.9000000 C 29.700000,9.8000000 29.800000,9.7000000 29.800000,9.5000000 L 29.900000,8.9000000 C 29.900000,8.7000000 29.900000,8.6000000 29.800000,8.6000000 L 18.000000,6.5000000 z " opacity=".57999998" fill="url(#ai)" fill-rule="nonzero" stroke="none" stroke-miterlimit="4"/>
  <g transform="translate(2.000000,0.500000)" stroke-miterlimit="4" stroke="none" fill-rule="nonzero" fill="#dedede">
    <linearGradient id="y" gradientUnits="userSpaceOnUse" x1="28.546900" y1="18.311501" x2="29.147800" y2="17.604099">
      <stop offset="0" stop-color="#9f9f9f"/>
      <stop offset="1" stop-color="#828282"/>
    </linearGradient>
    <path d="M 29.700000,18.000000 L 28.100000,17.600000 L 28.000000,18.000000 L 29.700000,17.900000 L 29.700000,18.000000 z " fill="url(#aj)"/>
    <path d="M 29.600000,18.400000 L 29.700000,18.000000 L 28.000000,18.100000 L 29.600000,18.400000 L 29.600000,18.400000 z "/>
  </g>
  <g transform="translate(2.000000,0.500000)" stroke-miterlimit="4" stroke="none" fill-rule="nonzero" fill="#dedede">
    <linearGradient id="z" gradientUnits="userSpaceOnUse" x1="28.851601" y1="16.491699" x2="29.452700" y2="15.784000">
      <stop offset="0" stop-color="#9f9f9f"/>
      <stop offset="1" stop-color="#828282"/>
    </linearGradient>
    <path d="M 30.000000,16.200000 L 28.400000,15.800000 L 28.300000,16.200000 L 30.000000,16.100000 L 30.000000,16.200000 z " fill="url(#ak)"/>
    <path d="M 29.900000,16.600000 L 30.000000,16.200000 L 28.300000,16.300000 L 29.900000,16.600000 L 29.900000,16.600000 z "/>
  </g>
  <g transform="translate(2.000000,0.500000)" stroke-miterlimit="4" stroke="none" fill-rule="nonzero" fill="#dedede">
    <linearGradient id="A" gradientUnits="userSpaceOnUse" x1="29.159201" y1="14.673300" x2="29.760300" y2="13.965600">
      <stop offset="0" stop-color="#9f9f9f"/>
      <stop offset="1" stop-color="#828282"/>
    </linearGradient>
    <path d="M 30.300000,14.400000 L 28.700000,14.000000 L 28.600000,14.400000 L 30.300000,14.300000 L 30.300000,14.400000 z " fill="url(#al)"/>
    <path d="M 30.200000,14.800000 L 30.300000,14.400000 L 28.600000,14.500000 L 30.200000,14.800000 L 30.200000,14.800000 z "/>
  </g>
  <g transform="translate(2.000000,0.500000)" stroke-miterlimit="4" stroke="none" fill-rule="nonzero" fill="#dedede">
    <linearGradient id="B" gradientUnits="userSpaceOnUse" x1="29.465799" y1="12.853000" x2="30.065599" y2="12.146900">
      <stop offset="0" stop-color="#9f9f9f"/>
      <stop offset="1" stop-color="#828282"/>
    </linearGradient>
    <path d="M 30.700000,12.600000 L 29.100000,12.200000 L 29.000000,12.600000 L 30.700000,12.500000 L 30.700000,12.600000 z " fill="url(#am)"/>
    <path d="M 30.500000,13.000000 L 30.600000,12.600000 L 29.000000,12.600000 L 30.600000,12.900000 L 30.500000,13.000000 z "/>
  </g>
  <g transform="translate(2.000000,0.500000)" stroke-miterlimit="4" stroke="none" fill-rule="nonzero" fill="#dedede">
    <linearGradient id="C" gradientUnits="userSpaceOnUse" x1="29.772499" y1="11.033700" x2="30.372299" y2="10.327600">
      <stop offset="0" stop-color="#9f9f9f"/>
      <stop offset="1" stop-color="#828282"/>
    </linearGradient>
    <path d="M 31.000000,10.800000 L 29.400000,10.400000 L 29.300000,10.800000 L 31.000000,10.700000 L 31.000000,10.800000 z " fill="url(#an)"/>
    <path d="M 30.800000,11.100000 L 30.900000,10.700000 L 29.200000,10.800000 L 30.800000,11.100000 L 30.800000,11.100000 z "/>
  </g>
  <g transform="translate(2.000000,0.500000)" stroke-miterlimit="4" stroke="none" fill-rule="nonzero" fill="#dedede">
    <linearGradient id="D" gradientUnits="userSpaceOnUse" x1="30.078100" y1="9.2144003" x2="30.678200" y2="8.5080004">
      <stop offset="0" stop-color="#9f9f9f"/>
      <stop offset="1" stop-color="#828282"/>
    </linearGradient>
    <path d="M 31.300000,8.9000000 L 29.700000,8.5000000 L 29.600000,9.0000000 L 31.300000,8.9000000 z " fill="url(#ao)"/>
    <path d="M 31.200000,9.3000000 L 31.300000,8.9000000 L 29.600000,9.0000000 L 31.200000,9.3000000 L 31.200000,9.3000000 z "/>
  </g>
  <g transform="translate(2.000000,0.500000)" stroke-miterlimit="4" stroke="none" fill-rule="nonzero" fill="#dedede">
    <linearGradient id="E" gradientUnits="userSpaceOnUse" x1="30.365200" y1="9.1934004" x2="30.797100" y2="8.6850004">
      <stop offset="0" stop-color="#9f9f9f"/>
      <stop offset="1" stop-color="#828282"/>
    </linearGradient>
    <path d="M 29.900000,8.9000000 L 31.000000,9.2000000 L 31.100000,8.9000000 L 29.900000,8.9000000 L 29.900000,8.9000000 z " fill="url(#ap)"/>
    <path d="M 30.000000,8.7000000 L 29.900000,9.0000000 L 31.100000,9.0000000 L 30.000000,8.7000000 z "/>
  </g>
  <g transform="translate(2.000000,0.500000)" stroke-miterlimit="4" stroke="none" fill-rule="nonzero" fill="#dedede">
    <linearGradient id="F" gradientUnits="userSpaceOnUse" x1="30.066401" y1="11.013200" x2="30.498199" y2="10.504800">
      <stop offset="0" stop-color="#9f9f9f"/>
      <stop offset="1" stop-color="#828282"/>
    </linearGradient>
    <path d="M 29.600000,10.800000 L 30.800000,11.100000 L 30.900000,10.800000 L 29.700000,10.800000 L 29.600000,10.800000 z " fill="url(#aq)"/>
    <path d="M 29.700000,10.500000 L 29.600000,10.800000 L 30.800000,10.800000 L 29.700000,10.600000 L 29.700000,10.500000 z "/>
  </g>
  <g transform="translate(2.000000,0.500000)" stroke-miterlimit="4" stroke="none" fill-rule="nonzero" fill="#dedede">
    <linearGradient id="G" gradientUnits="userSpaceOnUse" x1="29.769501" y1="12.833500" x2="30.201300" y2="12.325100">
      <stop offset="0" stop-color="#9f9f9f"/>
      <stop offset="1" stop-color="#828282"/>
    </linearGradient>
    <path d="M 29.300000,12.600000 L 30.400000,12.900000 L 30.500000,12.600000 L 29.300000,12.600000 L 29.300000,12.600000 z " fill="url(#ar)"/>
    <path d="M 29.400000,12.300000 L 29.300000,12.600000 L 30.500000,12.600000 L 29.400000,12.400000 L 29.400000,12.300000 z "/>
  </g>
  <g transform="translate(2.000000,0.500000)" stroke-miterlimit="4" stroke="none" fill-rule="nonzero" fill="#dedede">
    <linearGradient id="H" gradientUnits="userSpaceOnUse" x1="29.470699" y1="14.653300" x2="29.902901" y2="14.144500">
      <stop offset="0" stop-color="#9f9f9f"/>
      <stop offset="1" stop-color="#828282"/>
    </linearGradient>
    <path d="M 29.000000,14.400000 L 30.100000,14.700000 L 30.200000,14.400000 L 29.000000,14.400000 L 29.000000,14.400000 z " fill="url(#as)"/>
    <path d="M 29.100000,14.100000 L 29.000000,14.400000 L 30.200000,14.400000 L 29.100000,14.200000 L 29.100000,14.100000 z "/>
  </g>
  <g transform="translate(2.000000,0.500000)" stroke-miterlimit="4" stroke="none" fill-rule="nonzero" fill="#dedede">
    <linearGradient id="I" gradientUnits="userSpaceOnUse" x1="29.171900" y1="16.473600" x2="29.604099" y2="15.964800">
      <stop offset="0" stop-color="#9f9f9f"/>
      <stop offset="1" stop-color="#828282"/>
    </linearGradient>
    <path d="M 28.700000,16.200000 L 29.900000,16.500000 L 30.000000,16.200000 L 28.800000,16.200000 L 28.700000,16.200000 z " fill="url(#at)"/>
    <path d="M 28.800000,15.900000 L 28.700000,16.200000 L 29.900000,16.200000 L 28.800000,16.000000 L 28.800000,15.900000 z "/>
  </g>
  <g transform="translate(2.000000,0.500000)" stroke-miterlimit="4" stroke="none" fill-rule="nonzero" fill="#dedede">
    <linearGradient id="J" gradientUnits="userSpaceOnUse" x1="28.875000" y1="18.292999" x2="29.307199" y2="17.784100">
      <stop offset="0" stop-color="#9f9f9f"/>
      <stop offset="1" stop-color="#828282"/>
    </linearGradient>
    <path d="M 28.400000,18.000000 L 29.500000,18.300000 L 29.600000,18.000000 L 28.400000,18.000000 L 28.400000,18.000000 z " fill="url(#au)"/>
    <path d="M 28.500000,17.800000 L 28.400000,18.000000 L 29.600000,18.000000 L 28.500000,17.800000 L 28.500000,17.800000 z "/>
  </g>
</svg>
