<?xml version="1.0" standalone="no"?>
<!--Created with Inkscape (http://www.inkscape.org/)-->
<svg xmlns="http://www.w3.org/2000/svg" xmlns:xlink="http://www.w3.org/1999/xlink" viewBox="0 0 48.000000 48.000000">
  <defs>
    <linearGradient id="a">
      <stop offset="0" stop-color="#000" stop-opacity="1"/>
      <stop offset="1" stop-color="#000" stop-opacity="0"/>
    </linearGradient>
    <radialGradient xlink:href="#a" id="d" cx="23.500000" cy="35.000000" fx="23.500000" fy="35.000000" r="18.500000" gradientTransform="matrix(1.000000,0.000000,0.000000,0.540541,0.000000,16.08108)" gradientUnits="userSpaceOnUse"/>
    <radialGradient id="b" cx="7.3892" cy="8.1001" r="12.1101" fx="7.3892" fy="8.1001" gradientUnits="userSpaceOnUse">
      <stop offset="0" stop-color="#fff"/>
      <stop offset="1" stop-color="#f0e1bd"/>
    </radialGradient>
    <radialGradient id="c" cx="8.7339" cy="7.9097" r="13.5742" fx="8.7339" fy="7.9097" gradientUnits="userSpaceOnUse">
      <stop offset="0" stop-color="#fed182"/>
      <stop offset="0.2809" stop-color="#ffb310"/>
      <stop offset="1" stop-color="#996e04"/>
    </radialGradient>
    <radialGradient xlink:href="#b" id="f" gradientUnits="userSpaceOnUse" gradientTransform="matrix(1.522982,0.000000,0.000000,1.522982,43.99413,5.817581)" cx="-16.387266" cy="9.4259253" fx="-16.387266" fy="9.4259253" r="12.1101"/>
    <radialGradient xlink:href="#c" id="e" gradientUnits="userSpaceOnUse" gradientTransform="matrix(2.306122,0.000000,0.000000,2.306122,-2.748945,-3.748943)" cx="8.7339" cy="7.9097" fx="8.7339" fy="7.9097" r="13.5742"/>
  </defs>
  <metadata/>
  <path style="marker:none" d="M 42.000000 35.000000 A 18.500000 10.000000 0 1 1  5.0000000,35.000000 A 18.500000 10.000000 0 1 1  42.000000 35.000000 z" transform="matrix(1.000000,0.000000,0.000000,1.371231,0.353553,-15.99830)" opacity="1" color="#000" fill="url(#d)" fill-opacity="1" fill-rule="evenodd" stroke="none" stroke-width="2" stroke-linecap="butt" stroke-linejoin="miter" marker-start="none" marker-mid="none" marker-end="none" stroke-miterlimit="4" stroke-dasharray="none" stroke-dashoffset="0" stroke-opacity="1" visibility="visible" display="inline" overflow="visible"/>
  <path d="M 42.998053,23.463303 C 42.998053,33.627520 34.627520,41.998053 24.463302,41.998053 C 14.299084,41.998053 5.9285525,33.627520 5.9285525,23.463303 C 5.9285525,13.299085 14.299084,4.9285530 24.463302,4.9285530 C 34.627520,4.9285530 42.998053,13.299085 42.998053,23.463303 z " fill="url(#e)" fill-rule="evenodd" stroke="#000" stroke-width="2.0000007" stroke-miterlimit="4" stroke-dasharray="none" stroke-opacity="1"/>
  <path d="M 33.308908,16.346515 C 32.448365,15.313863 30.899388,15.313863 29.866736,16.346515 C 28.834085,17.207058 28.834085,18.756035 29.866736,19.788687 C 32.104147,22.198207 32.104147,25.984597 29.694628,28.394116 C 28.489867,29.598877 26.940890,30.115203 25.391913,30.115203 C 23.842935,30.115203 22.293958,29.426768 21.089197,28.222008 C 18.851786,25.984597 18.851786,22.542424 20.744980,20.132904 L 23.154501,22.714533 C 23.326610,22.886642 23.670826,23.058751 24.015044,22.886642 C 24.359261,22.714533 24.531369,22.542424 24.531369,22.198207 L 24.703478,14.281211 C 24.703478,14.109103 24.703478,13.936994 24.531369,13.764886 C 24.359261,13.592778 24.187153,13.592778 24.015044,13.592778 L 15.925940,13.420669 C 15.581722,13.420669 15.409613,13.592778 15.237505,13.936994 C 15.065397,14.281211 15.237505,14.625429 15.409613,14.797538 L 17.302808,16.690732 C 13.344310,20.993447 13.516419,27.533574 17.474917,31.664180 C 19.540220,33.729483 22.293958,34.934243 25.219804,35.106352 C 28.145650,35.106352 30.899388,34.073700 32.964691,32.008397 C 37.267406,27.877791 37.439514,20.821338 33.308908,16.518624 L 33.308908,16.346515 z " style="marker:none" opacity="1" color="#000" fill="url(#f)" fill-opacity="1" fill-rule="evenodd" stroke="none" stroke-width="1" stroke-linecap="butt" stroke-linejoin="miter" marker-start="none" marker-mid="none" marker-end="none" stroke-miterlimit="4" stroke-dasharray="none" stroke-dashoffset="0" stroke-opacity="1" visibility="visible" display="inline" overflow="visible"/>
</svg>
