<?xml version="1.0" standalone="no"?>
<!--Created with Inkscape (http://www.inkscape.org/)-->
<svg xmlns="http://www.w3.org/2000/svg" xmlns:xlink="http://www.w3.org/1999/xlink" viewBox="0 0 48 48">
  <defs>
    <linearGradient id="a">
      <stop offset="0" stop-color="#000" stop-opacity="1"/>
      <stop offset="1" stop-color="#000" stop-opacity="0"/>
    </linearGradient>
    <linearGradient id="i">
      <stop offset="0" stop-color="#204a87"/>
      <stop offset="1" stop-color="#204a87" stop-opacity=".3984375"/>
    </linearGradient>
    <linearGradient id="e">
      <stop offset="0" stop-color="#8a9580" stop-opacity="1"/>
      <stop offset="0.38488522" stop-color="#dcded9" stop-opacity="1"/>
      <stop offset="0.6339286" stop-color="#b8bcb4" stop-opacity="1"/>
      <stop offset="0.8214286" stop-color="#d7d9d5" stop-opacity="1"/>
      <stop offset="1" stop-color="#babdb6"/>
    </linearGradient>
    <linearGradient id="d">
      <stop offset="0" stop-color="#fff" stop-opacity="1"/>
      <stop offset="1" stop-color="#fff" stop-opacity="0"/>
    </linearGradient>
    <linearGradient id="f">
      <stop offset="0" stop-color="#3465a4"/>
      <stop offset="1" stop-color="#3465a4" stop-opacity="0"/>
    </linearGradient>
    <linearGradient id="b">
      <stop offset="0" stop-color="#eeeeec"/>
      <stop offset="1" stop-color="#fff" stop-opacity="1"/>
    </linearGradient>
    <linearGradient id="c">
      <stop offset="0" stop-color="#204a87" stop-opacity="1"/>
      <stop offset="1" stop-color="#204a87" stop-opacity="0"/>
    </linearGradient>
    <linearGradient id="g">
      <stop offset="0" stop-color="#fff" stop-opacity="1"/>
      <stop offset="1" stop-color="#fff" stop-opacity="0"/>
    </linearGradient>
    <linearGradient id="j">
      <stop offset="0" stop-color="#3465a4"/>
      <stop offset="1" stop-color="#729fcf"/>
    </linearGradient>
    <linearGradient id="h">
      <stop offset="0" stop-color="#fff" stop-opacity="1"/>
      <stop offset="1" stop-color="#fff" stop-opacity="0"/>
    </linearGradient>
    <radialGradient xlink:href="#a" id="n" cx="26" cy="39.75" fx="26" fy="39.75" r="24.25" gradientTransform="matrix(1,0,0,0.175258,0,32.78351)" gradientUnits="userSpaceOnUse"/>
    <linearGradient xlink:href="#b" id="w" gradientUnits="userSpaceOnUse" x1="21.875" y1="7.6059465" x2="21.875" y2="18.51421" gradientTransform="translate(2,0)"/>
    <linearGradient xlink:href="#c" id="v" gradientUnits="userSpaceOnUse" x1="37.625" y1="7.625" x2="37.625" y2="3.4829895" gradientTransform="translate(2,0)"/>
    <linearGradient xlink:href="#d" id="u" gradientUnits="userSpaceOnUse" x1="20.484835" y1="35" x2="27.375" y2="42.125" gradientTransform="translate(2,0)"/>
    <linearGradient xlink:href="#e" id="t" gradientUnits="userSpaceOnUse" x1="10" y1="27.996471" x2="31" y2="42" gradientTransform="translate(2,0)"/>
    <linearGradient xlink:href="#f" id="s" gradientUnits="userSpaceOnUse" x1="18.75" y1="27.654568" x2="18.826717" y2="36.774681" gradientTransform="translate(2,0)"/>
    <linearGradient xlink:href="#g" id="r" gradientUnits="userSpaceOnUse" x1="34.840229" y1="38.464149" x2="30.685976" y2="29" gradientTransform="translate(2,0)"/>
    <linearGradient xlink:href="#h" id="q" gradientUnits="userSpaceOnUse" x1="10.875" y1="11.5" x2="47" y2="47.375" gradientTransform="translate(2,0)"/>
    <linearGradient xlink:href="#i" id="p" gradientUnits="userSpaceOnUse" x1="33.349056" y1="28.69302" x2="35.974056" y2="33.049397" gradientTransform="translate(2,0)"/>
    <linearGradient xlink:href="#j" id="o" gradientUnits="userSpaceOnUse" x1="43.375" y1="-9.375" x2="21.125" y2="31.75" gradientTransform="translate(2,0)"/>
    <linearGradient id="l">
      <stop offset="0" stop-color="#fce94f" stop-opacity="1"/>
      <stop offset="1" stop-color="#c4a000"/>
    </linearGradient>
    <linearGradient id="m">
      <stop offset="0" stop-color="#c4a000" stop-opacity="1"/>
      <stop offset="1" stop-color="#edd400"/>
    </linearGradient>
    <linearGradient id="k">
      <stop offset="0" stop-color="#000" stop-opacity="1"/>
      <stop offset="1" stop-color="#000" stop-opacity="0"/>
    </linearGradient>
    <linearGradient xlink:href="#k" id="x" gradientUnits="userSpaceOnUse" gradientTransform="translate(-0.5,-0.5)" x1="27.25279" y1="14.353221" x2="30.443666" y2="17.544096"/>
    <linearGradient xlink:href="#l" id="y" gradientUnits="userSpaceOnUse" x1="26.993084" y1="11.252465" x2="30.432114" y2="14.691495"/>
    <linearGradient xlink:href="#m" gradientUnits="userSpaceOnUse" x1="29.03377" y1="14.298466" x2="25.991804" y2="11.2565"/>
  </defs>
  <metadata/>
  <g display="inline">
    <path style="marker:none" d="M 50.25 39.75 A 24.25 4.25 0 1 1  1.75,39.75 A 24.25 4.25 0 1 1  50.25 39.75 z" transform="matrix(0.989691,0,0,1.176471,-1.731959,-5.764706)" opacity=".3" color="#000" fill="url(#n)" fill-opacity="1" fill-rule="nonzero" stroke="none" stroke-width="1" stroke-linecap="round" stroke-linejoin="miter" marker-start="none" marker-mid="none" marker-end="none" stroke-miterlimit="4" stroke-dasharray="none" stroke-dashoffset="0" stroke-opacity="1" visibility="visible" display="inline" overflow="visible"/>
    <path style="marker:none" d="M 7.0026019,3.5 L 41.997398,3.5 C 42.82984,3.5 43.5,4.1701604 43.5,5.0026019 L 43.5,39.997398 C 43.5,40.82984 42.82984,41.5 41.997398,41.5 L 9,41.5 L 5.5,38 L 5.5,5.0026019 C 5.5,4.1701604 6.1701604,3.5 7.0026019,3.5 z " color="#000" fill="url(#o)" fill-opacity="1" fill-rule="nonzero" stroke="#204a87" stroke-width="1" stroke-linecap="square" stroke-linejoin="round" marker-start="none" marker-mid="none" marker-end="none" stroke-miterlimit="4" stroke-dashoffset="0" stroke-opacity="1" visibility="visible" display="inline" overflow="visible"/>
    <path style="marker:none" d="M 15.065102,28.5 L 37.934898,28.5 C 38.801965,28.5 39.5,29.198035 39.5,30.065102 L 39.5,41.5 L 13.5,41.5 L 13.5,30.065102 C 13.5,29.198035 14.198035,28.5 15.065102,28.5 z " opacity=".4" color="#000" fill="none" fill-opacity="1" fill-rule="nonzero" stroke="url(#p)" stroke-width="1" stroke-linecap="square" stroke-linejoin="round" marker-start="none" marker-mid="none" marker-end="none" stroke-miterlimit="4" stroke-dashoffset="0" stroke-opacity="1" visibility="visible" display="inline" overflow="visible"/>
    <path style="marker:none" d="M 6.9767135,4.5 L 42.023286,4.5 C 42.287386,4.5 42.5,4.7126142 42.5,4.9767135 L 42.5,40.023286 C 42.5,40.287386 42.287386,40.5 42.023286,40.5 L 9.5,40.5 L 6.5,37.5 L 6.5,4.9767135 C 6.5,4.7126142 6.7126142,4.5 6.9767135,4.5 z " opacity=".6" color="#000" fill="none" fill-opacity="1" fill-rule="nonzero" stroke="url(#q)" stroke-width="1" stroke-linecap="square" stroke-linejoin="round" marker-start="none" marker-mid="none" marker-end="none" stroke-miterlimit="4" stroke-dashoffset="0" stroke-opacity="1" visibility="visible" display="inline" overflow="visible"/>
    <path style="marker:none" d="M 14.5,40.5 L 14.5,29.976713 C 14.5,29.712614 14.712614,29.5 14.976714,29.5 L 38.023286,29.5 C 38.287386,29.5 38.5,29.712614 38.5,29.976713 L 38.5,40.5" opacity=".23921569" color="#000" fill="none" fill-opacity="1" fill-rule="nonzero" stroke="url(#r)" stroke-width="1" stroke-linecap="round" stroke-linejoin="round" marker-start="none" marker-mid="none" marker-end="none" stroke-miterlimit="4" stroke-dasharray="none" stroke-dashoffset="0" stroke-opacity="1" visibility="visible" display="inline" overflow="visible"/>
    <rect style="marker:none" width="7" height="10" x="15.5" y="29.5" color="#000" fill="url(#s)" fill-opacity="1" fill-rule="nonzero" stroke="none" stroke-width="1" stroke-linecap="square" stroke-linejoin="round" marker-start="none" marker-mid="none" marker-end="none" stroke-miterlimit="4" stroke-dasharray="none" stroke-dashoffset="0" stroke-opacity="1" visibility="visible" display="inline" overflow="visible"/>
    <path style="marker:none" d="M 13.8125,28.5 C 13.511005,28.538105 13.217911,28.686355 13,28.875 C 12.697874,29.149487 12.5,29.557765 12.5,30 L 12.5,41.5 L 32.5,41.5 L 32.5,30 C 32.5,29.167558 31.832442,28.5 31,28.5 L 14,28.5 C 13.934965,28.5 13.875311,28.492062 13.8125,28.5 z M 16.9375,30.5 C 16.974353,30.492497 17.023367,30.5 17.0625,30.5 L 20.9375,30.5 C 21.064683,30.5 21.187018,30.554615 21.28125,30.625 C 21.309138,30.647996 21.352004,30.690862 21.375,30.71875 C 21.445385,30.812982 21.5,30.935317 21.5,31.0625 L 21.5,37.9375 C 21.5,38.064683 21.445385,38.187018 21.375,38.28125 C 21.352004,38.309138 21.309138,38.352004 21.28125,38.375 C 21.187018,38.445385 21.064683,38.5 20.9375,38.5 L 17.0625,38.5 C 16.935317,38.5 16.812982,38.445385 16.71875,38.375 C 16.690862,38.352004 16.647996,38.309138 16.625,38.28125 C 16.554615,38.187018 16.5,38.064683 16.5,37.9375 L 16.5,31.0625 C 16.5,30.935317 16.554615,30.812982 16.625,30.71875 C 16.647996,30.690862 16.690862,30.647996 16.71875,30.625 C 16.783987,30.576272 16.854581,30.516882 16.9375,30.5 z " color="#000" fill="url(#t)" fill-opacity="1" fill-rule="nonzero" stroke="#555753" stroke-width="1" stroke-linecap="square" stroke-linejoin="round" marker-start="none" marker-mid="none" marker-end="none" stroke-miterlimit="4" stroke-dashoffset="0" stroke-opacity="1" visibility="visible" display="inline" overflow="visible"/>
    <rect style="marker:none" width="2" height="2" x="7" y="6" opacity=".2" color="#000" fill="#fff" fill-opacity="1" fill-rule="nonzero" stroke="none" stroke-width="1" stroke-linecap="square" stroke-linejoin="round" marker-start="none" marker-mid="none" marker-end="none" stroke-miterlimit="4" stroke-dasharray="none" stroke-dashoffset="0" stroke-opacity="1" visibility="visible" display="inline" overflow="visible"/>
    <rect style="marker:none" width="1" height="1" x="7" y="6" color="#000" fill="#000" fill-opacity="1" fill-rule="nonzero" stroke="none" stroke-width="1" stroke-linecap="square" stroke-linejoin="round" marker-start="none" marker-mid="none" marker-end="none" stroke-miterlimit="4" stroke-dasharray="none" stroke-dashoffset="0" stroke-opacity="1" visibility="visible" display="inline" overflow="visible"/>
    <rect style="marker:none" width="2" height="2" x="40" y="6" opacity=".2" color="#000" fill="#fff" fill-opacity="1" fill-rule="nonzero" stroke="none" stroke-width="1" stroke-linecap="square" stroke-linejoin="round" marker-start="none" marker-mid="none" marker-end="none" stroke-miterlimit="4" stroke-dasharray="none" stroke-dashoffset="0" stroke-opacity="1" visibility="visible" display="inline" overflow="visible"/>
    <rect style="marker:none" width="1" height="1" x="40" y="6" color="#000" fill="#000" fill-opacity="1" fill-rule="nonzero" stroke="none" stroke-width="1" stroke-linecap="square" stroke-linejoin="round" marker-start="none" marker-mid="none" marker-end="none" stroke-miterlimit="4" stroke-dasharray="none" stroke-dashoffset="0" stroke-opacity="1" visibility="visible" display="inline" overflow="visible"/>
    <path style="marker:none" d="M 14,29.5 L 30.96967,29.5 C 31.263473,29.5 31.5,29.736527 31.5,30.03033 L 31.5,40.5 L 13.46967,40.5 L 13.46967,30.03033 C 13.46967,29.736527 13.706197,29.5 14,29.5 z " opacity=".29803922" color="#000" fill="none" fill-opacity="1" fill-rule="nonzero" stroke="url(#u)" stroke-width="1" stroke-linecap="square" stroke-linejoin="miter" marker-start="none" marker-mid="none" marker-end="none" stroke-miterlimit="4" stroke-dashoffset="0" stroke-opacity="1" visibility="visible" display="inline" overflow="visible"/>
    <path style="marker:none" d="M 39.5,3.5 L 39.5,23.984724 C 39.5,24.824187 38.824187,25.5 37.984724,25.5 L 11.015276,25.5 C 10.175813,25.5 9.5,24.824187 9.5,23.984724 L 9.5,3.5 L 39.5,3.5 z " opacity=".6" color="#000" fill="none" fill-opacity="1" fill-rule="nonzero" stroke="url(#v)" stroke-width="1" stroke-linecap="square" stroke-linejoin="round" marker-start="none" marker-mid="none" marker-end="none" stroke-miterlimit="4" stroke-dashoffset="0" stroke-opacity="1" visibility="visible" display="inline" overflow="visible"/>
    <rect style="marker:none" width="28" height="21" x="10.5" y="3.5" rx="0.51527631" ry="0.51527631" color="#000" fill="url(#w)" fill-opacity="1" fill-rule="nonzero" stroke="#e2e2df" stroke-width="1" stroke-linecap="square" stroke-linejoin="round" marker-start="none" marker-mid="none" marker-end="none" stroke-miterlimit="4" stroke-dasharray="none" stroke-dashoffset="0" stroke-opacity="1" visibility="visible" display="inline" overflow="visible"/>
    <rect style="marker:none" width="29" height="3" x="10" y="3" rx="0" ry="0" color="#000" fill="#f57900" fill-opacity="1" fill-rule="nonzero" stroke="none" stroke-width="1" stroke-linecap="square" stroke-linejoin="round" marker-start="none" marker-mid="none" marker-end="none" stroke-miterlimit="4" stroke-dasharray="none" stroke-dashoffset="0" stroke-opacity="1" visibility="visible" display="inline" overflow="visible"/>
    <path d="M 10.5,3.5 L 38.5,3.5" fill="#ce5c00" fill-opacity=".75" fill-rule="evenodd" stroke="#ce5c00" stroke-width="1" stroke-linecap="square" stroke-linejoin="miter" stroke-miterlimit="4" stroke-dasharray="none" stroke-opacity="1"/>
    <path d="M 10.5,4.5 L 38.5,4.5" opacity=".34901961" fill="#ce5c00" fill-opacity=".75" fill-rule="evenodd" stroke="#fff" stroke-width="1" stroke-linecap="square" stroke-linejoin="miter" stroke-miterlimit="4" stroke-dasharray="none" stroke-opacity="1" display="inline"/>
    <path d="M 12.5,10.5 L 36.478306,10.5" fill="none" fill-opacity=".75" fill-rule="evenodd" stroke="#babdb6" stroke-width="1.00000036" stroke-linecap="round" stroke-linejoin="miter" stroke-miterlimit="4" stroke-dasharray="none" stroke-opacity="1"/>
    <path d="M 12.5,15.5 L 36.478306,15.5" fill="none" fill-opacity=".75" fill-rule="evenodd" stroke="#babdb6" stroke-width="1.00000036" stroke-linecap="round" stroke-linejoin="miter" stroke-miterlimit="4" stroke-dasharray="none" stroke-opacity="1" display="inline"/>
    <path d="M 12.5,20.5 L 36.478306,20.5" fill="none" fill-opacity=".75" fill-rule="evenodd" stroke="#babdb6" stroke-width="1.00000036" stroke-linecap="round" stroke-linejoin="miter" stroke-miterlimit="4" stroke-dasharray="none" stroke-opacity="1" display="inline"/>
    <path style="marker:none" d="M 42.5 14.5 A 4.25 4.5 0 1 1  34,14.5 A 4.25 4.5 0 1 1  42.5 14.5 z" transform="matrix(0.117647,0,0,0.111111,32,8.888889)" color="#000" fill="#2e3436" fill-opacity="1" fill-rule="nonzero" stroke="none" stroke-width="1" stroke-linecap="round" stroke-linejoin="miter" marker-start="none" marker-mid="none" marker-end="none" stroke-miterlimit="4" stroke-dasharray="none" stroke-dashoffset="0" stroke-opacity="1" visibility="visible" display="inline" overflow="visible"/>
    <path style="marker:none" d="M 42.5 14.5 A 4.25 4.5 0 1 1  34,14.5 A 4.25 4.5 0 1 1  42.5 14.5 z" transform="matrix(0.117647,0,0,0.111111,32,13.88889)" color="#000" fill="#2e3436" fill-opacity="1" fill-rule="nonzero" stroke="none" stroke-width="1" stroke-linecap="round" stroke-linejoin="miter" marker-start="none" marker-mid="none" marker-end="none" stroke-miterlimit="4" stroke-dasharray="none" stroke-dashoffset="0" stroke-opacity="1" visibility="visible" display="inline" overflow="visible"/>
    <path style="marker:none" d="M 42.5 14.5 A 4.25 4.5 0 1 1  34,14.5 A 4.25 4.5 0 1 1  42.5 14.5 z" transform="matrix(0.117647,0,0,0.111111,32,18.88889)" color="#000" fill="#2e3436" fill-opacity="1" fill-rule="nonzero" stroke="none" stroke-width="1" stroke-linecap="round" stroke-linejoin="miter" marker-start="none" marker-mid="none" marker-end="none" stroke-miterlimit="4" stroke-dasharray="none" stroke-dashoffset="0" stroke-opacity="1" visibility="visible" display="inline" overflow="visible"/>
    <path style="marker:none" d="M 42.5 14.5 A 4.25 4.5 0 1 1  34,14.5 A 4.25 4.5 0 1 1  42.5 14.5 z" transform="matrix(0.117647,0,0,0.111111,8,18.88889)" color="#000" fill="#2e3436" fill-opacity="1" fill-rule="nonzero" stroke="none" stroke-width="1" stroke-linecap="round" stroke-linejoin="miter" marker-start="none" marker-mid="none" marker-end="none" stroke-miterlimit="4" stroke-dasharray="none" stroke-dashoffset="0" stroke-opacity="1" visibility="visible" display="inline" overflow="visible"/>
    <path style="marker:none" d="M 42.5 14.5 A 4.25 4.5 0 1 1  34,14.5 A 4.25 4.5 0 1 1  42.5 14.5 z" transform="matrix(0.117647,0,0,0.111111,8.000002,13.88889)" color="#000" fill="#2e3436" fill-opacity="1" fill-rule="nonzero" stroke="none" stroke-width="1" stroke-linecap="round" stroke-linejoin="miter" marker-start="none" marker-mid="none" marker-end="none" stroke-miterlimit="4" stroke-dasharray="none" stroke-dashoffset="0" stroke-opacity="1" visibility="visible" display="inline" overflow="visible"/>
    <path style="marker:none" d="M 42.5 14.5 A 4.25 4.5 0 1 1  34,14.5 A 4.25 4.5 0 1 1  42.5 14.5 z" transform="matrix(0.117647,0,0,0.111111,8,8.888889)" color="#000" fill="#2e3436" fill-opacity="1" fill-rule="nonzero" stroke="none" stroke-width="1" stroke-linecap="round" stroke-linejoin="miter" marker-start="none" marker-mid="none" marker-end="none" stroke-miterlimit="4" stroke-dasharray="none" stroke-dashoffset="0" stroke-opacity="1" visibility="visible" display="inline" overflow="visible"/>
    <g transform="translate(-1e-5,-1.8e-5)">
      <path d="M 37.6875,1.7150703 L 19.96875,17.28125 L 19.84375,17.4375 L 19.75,17.625 L 17,24.5 L 24.4375,22.46875 L 24.71875,22.40625 L 24.90625,22.21875 L 42.59375,6.6213203 L 37.6875,1.7150703 z " opacity=".43921569" fill="url(#x)" fill-opacity="1" fill-rule="evenodd" stroke="none" stroke-width="2" stroke-linecap="butt" stroke-linejoin="miter" stroke-miterlimit="4" stroke-dasharray="none" stroke-opacity="1" display="inline"/>
      <g transform="translate(-0.15625,-0.25)">
        <path d="M 19.5,18 L 36.5,1 L 40,4.5 L 23,21.5 L 17.5,23 L 19.5,18 z " fill="url(#y)" fill-opacity="1" fill-rule="evenodd" stroke="url(#linearGradient1820)" stroke-width="1" stroke-linecap="butt" stroke-linejoin="miter" stroke-miterlimit="4" stroke-dasharray="none" stroke-opacity="1"/>
        <path d="M 20.399998,18.5 L 36.5,2.5 L 38.5,4.5 L 22.5,20.600002 L 19.199997,21.500003 L 20.399998,18.5 z " opacity=".28235294" fill="none" fill-opacity="1" fill-rule="evenodd" stroke="#fff" stroke-width="1.0000006" stroke-linecap="butt" stroke-linejoin="miter" stroke-miterlimit="4" stroke-dasharray="none" stroke-opacity="1" display="inline"/>
        <path d="M 18.34633,22.276561 L 19.94414,18.268127 C 19.94414,18.268127 21.094356,18.503399 21.796875,19.203125 C 22.499394,19.902851 22.754217,21.067032 22.754217,21.067032 L 18.34633,22.276561 z " opacity=".50196078" fill="#fff" fill-opacity="1" fill-rule="evenodd" stroke="none" stroke-width=".31200001" stroke-linecap="butt" stroke-linejoin="miter" stroke-miterlimit="4" stroke-dasharray="none" stroke-opacity="1"/>
        <path d="M 17.5625,21.5 L 16.65625,23.75 L 19,23.09375 C 19.00202,23.061913 19,23.032344 19,23 C 19,22.197875 18.354692,21.540199 17.5625,21.5 z " fill="#000" fill-opacity="1" fill-rule="evenodd" stroke="none" stroke-width="1" stroke-linecap="butt" stroke-linejoin="miter" stroke-miterlimit="4" stroke-dasharray="none" stroke-opacity="1" display="inline"/>
      </g>
    </g>
  </g>
</svg>
