<?xml version="1.0" standalone="no"?>
<!--Created with Inkscape (http://www.inkscape.org/)-->
<svg xmlns="http://www.w3.org/2000/svg" xmlns:xlink="http://www.w3.org/1999/xlink" viewBox="0 0 48.000000 48.000000">
  <metadata/>
  <defs>
    <linearGradient id="h">
      <stop offset="0" stop-color="black" stop-opacity="0"/>
      <stop offset="0.18072289" stop-color="black" stop-opacity="1"/>
      <stop offset="1" stop-color="black" stop-opacity="0"/>
    </linearGradient>
    <linearGradient id="g">
      <stop offset="0" stop-color="white" stop-opacity="1"/>
      <stop offset="1" stop-color="white" stop-opacity="0"/>
    </linearGradient>
    <linearGradient id="a">
      <stop offset="0" stop-color="#cccdbc" stop-opacity="1"/>
      <stop offset="1" stop-color="#b9baa4" stop-opacity="1"/>
    </linearGradient>
    <linearGradient xlink:href="#a" id="n" x1="24.588383" y1="1.8991361" x2="24.588383" y2="40.858932" gradientUnits="userSpaceOnUse"/>
    <linearGradient id="d">
      <stop offset="0.0000000" stop-color="#fffff3" stop-opacity=".54455447"/>
      <stop offset="1.0000000" stop-color="#fffff3" stop-opacity="0"/>
    </linearGradient>
    <linearGradient id="c">
      <stop offset="0.0000000" stop-color="#cfcfc4" stop-opacity="1"/>
      <stop offset="0.32673267" stop-color="#cfcfc4" stop-opacity="1"/>
      <stop offset="1" stop-color="#cfcfc4" stop-opacity="0"/>
    </linearGradient>
    <linearGradient id="b">
      <stop offset="0" stop-color="#676756" stop-opacity="1"/>
      <stop offset="1" stop-color="#90937c" stop-opacity="1"/>
    </linearGradient>
    <linearGradient xlink:href="#b" id="i" gradientTransform="scale(1.068312,0.936056)" x1="24.983023" y1="43.710369" x2="24.983023" y2="19.705572" gradientUnits="userSpaceOnUse"/>
    <linearGradient xlink:href="#c" id="j" gradientUnits="userSpaceOnUse" gradientTransform="scale(0.750458,1.33252)" x1="32.827568" y1="7.9206076" x2="60.071049" y2="7.8678756"/>
    <linearGradient xlink:href="#d" id="o" gradientUnits="userSpaceOnUse" gradientTransform="matrix(0.806859,0,0,0.67071,-0.104854,18.69867)" x1="24.710207" y1="16.329607" x2="29.842236" y2="27.759533"/>
    <linearGradient y2="8.1000004" x2="19.387241" y1="6.1438289" x1="19.489662" gradientUnits="userSpaceOnUse" xlink:href="#e"/>
    <linearGradient y2="8.1000004" x2="19.387241" y1="6.1438289" x1="19.489662" gradientUnits="userSpaceOnUse" xlink:href="#e"/>
    <linearGradient id="e">
      <stop offset="0" stop-color="#000" stop-opacity="1"/>
      <stop offset="1" stop-color="#000" stop-opacity="0"/>
    </linearGradient>
    <linearGradient id="f">
      <stop offset="0" stop-color="#babdb6" stop-opacity="1"/>
      <stop offset="0.26671854" stop-color="#eeeeec" stop-opacity="1"/>
      <stop offset="0.37147304" stop-color="white" stop-opacity="1"/>
      <stop offset="1" stop-color="#888a85" stop-opacity="1"/>
    </linearGradient>
    <linearGradient xlink:href="#f" id="l" gradientUnits="userSpaceOnUse" x1="25.874996" y1="-1.066829" x2="26.249996" y2="43.417534"/>
    <linearGradient xlink:href="#g" id="m" gradientUnits="userSpaceOnUse" x1="12.3125" y1="-13" x2="13.875" y2="23.687767"/>
    <linearGradient xlink:href="#h" id="k" x1="12.67269" y1="7.1869569" x2="12.67269" y2="27.90205" gradientUnits="userSpaceOnUse" gradientTransform="translate(0,5)"/>
  </defs>
  <g display="inline">
    <g transform="matrix(0.216083,0,0,0.226386,-1.393233,-2.889517)">
      <path d="M 32.706693,164.36026 C 22.319193,164.36026 13.956693,172.72276 13.956693,183.11026 C 13.956693,193.49776 22.319193,201.86026 32.706693,201.86026 L 205.20669,201.86026 C 215.59419,201.86026 223.95669,193.49776 223.95669,183.11026 C 223.95669,172.72276 215.59419,164.36026 205.20669,164.36026 L 32.706693,164.36026 z " opacity=".04787233" fill-rule="evenodd" stroke-width="3pt"/>
      <path d="M 32.706693,165.61026 C 23.011693,165.61026 15.206693,173.41526 15.206693,183.11026 C 15.206693,192.80526 23.011693,200.61026 32.706693,200.61026 L 205.20669,200.61026 C 214.90169,200.61026 222.70669,192.80526 222.70669,183.11026 C 222.70669,173.41526 214.90169,165.61026 205.20669,165.61026 L 32.706693,165.61026 z " opacity=".04787233" fill-rule="evenodd" stroke-width="3pt"/>
      <path d="M 32.706694,166.86026 C 23.704194,166.86026 16.456694,174.10776 16.456694,183.11026 C 16.456694,192.11276 23.704194,199.36026 32.706694,199.36026 L 205.20669,199.36026 C 214.20919,199.36026 221.45669,192.11276 221.45669,183.11026 C 221.45669,174.10776 214.20919,166.86026 205.20669,166.86026 L 32.706694,166.86026 z " opacity=".04787233" fill-rule="evenodd" stroke-width="3pt"/>
      <path d="M 32.706694,168.11026 C 24.396694,168.11026 17.706694,174.80026 17.706694,183.11026 C 17.706694,191.42026 24.396694,198.11026 32.706694,198.11026 L 205.20669,198.11026 C 213.51669,198.11026 220.20669,191.42026 220.20669,183.11026 C 220.20669,174.80026 213.51669,168.11026 205.20669,168.11026 L 32.706694,168.11026 z " opacity=".04787233" fill-rule="evenodd" stroke-width="3pt"/>
      <path d="M 32.707764,169.36026 C 25.090264,169.36026 18.957764,175.49276 18.957764,183.11026 C 18.957764,190.72776 25.090264,196.86026 32.707764,196.86026 L 205.20618,196.86026 C 212.82368,196.86026 218.95618,190.72776 218.95618,183.11026 C 218.95618,175.49276 212.82368,169.36026 205.20618,169.36026 L 32.707764,169.36026 z " opacity=".04787233" fill-rule="evenodd" stroke-width="3pt"/>
      <path d="M 32.706694,170.61026 C 25.781694,170.61026 20.206694,176.18526 20.206694,183.11026 C 20.206694,190.03526 25.781694,195.61026 32.706694,195.61026 L 205.20669,195.61026 C 212.13169,195.61026 217.70669,190.03526 217.70669,183.11026 C 217.70669,176.18526 212.13169,170.61026 205.20669,170.61026 L 32.706694,170.61026 z " opacity=".04787233" fill-rule="evenodd" stroke-width="3pt"/>
      <path d="M 32.706694,171.86026 C 26.474194,171.86026 21.456694,176.87776 21.456694,183.11026 C 21.456694,189.34276 26.474194,194.36026 32.706694,194.36026 L 205.20669,194.36026 C 211.43919,194.36026 216.45669,189.34276 216.45669,183.11026 C 216.45669,176.87776 211.43919,171.86026 205.20669,171.86026 L 32.706694,171.86026 z " opacity=".04787233" fill-rule="evenodd" stroke-width="3pt"/>
      <path d="M 32.706694,173.11026 C 27.166694,173.11026 22.706694,177.57026 22.706694,183.11026 C 22.706694,188.65026 27.166694,193.11026 32.706694,193.11026 L 205.20669,193.11026 C 210.74669,193.11026 215.20669,188.65026 215.20669,183.11026 C 215.20669,177.57026 210.74669,173.11026 205.20669,173.11026 L 32.706694,173.11026 z " opacity=".04787233" fill-rule="evenodd" stroke-width="3pt"/>
    </g>
    <path d="M 5.4186638,5.45611 C 4.9536872,5.45611 4.6035534,5.6913368 4.6035534,6.182833 L 4.6035534,39.203794 C 4.6035534,39.93094 5.0906584,40.415354 5.7526104,40.415354 L 43.489564,40.415354 C 44.155366,40.415354 44.419872,39.962588 44.419872,39.328794 L 44.419872,10.425912 C 44.419872,9.8829469 44.019585,9.589354 43.520814,9.589354 L 24.41149,9.589354 C 24.074477,9.589354 23.71481,9.390928 23.517009,9.118067 L 20.914778,5.918058 C 20.696913,5.617519 20.272703,5.456125 19.9015,5.456125 L 5.4186638,5.45611 z " style="marker:none" opacity="1" color="#000" fill="url(#i)" fill-opacity="1" fill-rule="evenodd" stroke="#555753" stroke-width="1" stroke-linecap="butt" stroke-linejoin="miter" marker-start="none" marker-mid="none" marker-end="none" stroke-miterlimit="4" stroke-dasharray="none" stroke-dashoffset="0" stroke-opacity="1" visibility="visible" display="inline" overflow="visible"/>
    <path style="marker:none" d="M 5.0625,7.90625 L 5.0625,36.15625 L 6.03125,31.78125 L 6.25,9.15625 C 6.25,8.4058274 6.7614657,8.03125 7.4869586,8.03125 L 19.09375,8.03125 C 20.655346,8.03125 22.108598,11.21875 24.411417,11.21875 C 30.383036,11.21875 43.749813,11.306338 43.75,11.21875 L 43.75,10.1875 L 24.21875,10.0625 C 22.362615,10.050621 21.088324,6.90625 19.65625,6.90625 L 6.2838336,6.90625 C 5.4685048,6.90625 5.0625,7.2604161 5.0625,7.90625 z " color="#000" fill="url(#j)" fill-opacity="1" fill-rule="evenodd" stroke="none" stroke-width=".25pt" stroke-linecap="butt" stroke-linejoin="miter" marker-start="none" marker-mid="none" marker-end="none" stroke-miterlimit="4" stroke-dashoffset="0" stroke-opacity="1" visibility="visible" display="inline" overflow="visible"/>
    <path style="marker:none" d="M 11,11 L 43,11 L 43,36 L 11,36 L 11,11 z " opacity=".2" color="#000" fill="url(#k)" fill-opacity="1" fill-rule="nonzero" stroke="none" stroke-width="1" stroke-linecap="round" stroke-linejoin="round" marker-start="none" marker-mid="none" marker-end="none" stroke-miterlimit="4" stroke-dashoffset="1.20000057" stroke-opacity="1" visibility="visible" display="inline" overflow="visible"/>
    <g transform="translate(0,8)">
      <rect ry="1.5026019" rx="1.5026019" y="3.5" x="12.499999" height="27.073856" width="28.999996" style="marker:none" opacity="1" color="#000" fill="url(#l)" fill-opacity="1" fill-rule="nonzero" stroke="#555753" stroke-width=".99999988" stroke-linecap="round" stroke-linejoin="round" marker-start="none" marker-mid="none" marker-end="none" stroke-miterlimit="4" stroke-dasharray="none" stroke-dashoffset="1.20000057" stroke-opacity="1" visibility="visible" display="inline" overflow="visible"/>
      <rect ry="0.45105508" rx="0.45105508" y="4.4999995" x="13.499995" height="24.948849" width="26.999983" style="marker:none" opacity="1" color="#000" fill="none" fill-opacity="1" fill-rule="nonzero" stroke="url(#m)" stroke-width=".99999952" stroke-linecap="round" stroke-linejoin="round" marker-start="none" marker-mid="none" marker-end="none" stroke-miterlimit="4" stroke-dasharray="none" stroke-dashoffset="1.20000057" stroke-opacity="1" visibility="visible" display="inline" overflow="visible"/>
    </g>
    <path d="M 16.5,16.5 L 37.46875,16.5" opacity=".2" fill="none" fill-rule="evenodd" stroke="#000" stroke-width="1px" stroke-linecap="round" stroke-linejoin="miter" stroke-opacity="1" display="inline"/>
    <path d="M 16.5,19.5 L 37.46875,19.5" opacity=".2" fill="none" fill-rule="evenodd" stroke="#000" stroke-width="1px" stroke-linecap="round" stroke-linejoin="miter" stroke-opacity="1" display="inline"/>
    <path d="M 16.5,22.5 L 37.46875,22.5" opacity=".2" fill="none" fill-rule="evenodd" stroke="#000" stroke-width="1px" stroke-linecap="round" stroke-linejoin="miter" stroke-opacity="1" display="inline"/>
    <path style="marker:none" d="M 19.046371,25.96875 C 18.568516,25.96875 18.171592,26.141231 17.957661,26.3125 C 17.883255,26.372068 17.619912,26.585758 17.322581,26.8125 C 17.02525,27.039242 16.678536,27.294116 16.657258,27.3125 C 16.244472,27.669139 15.590136,27.84375 14.8125,27.84375 L 12,27.84375 L 12,35.46875 L 42,35.46875 L 42,25.96875 L 19.046371,25.96875 z " opacity=".05" color="#000" fill="#000" fill-opacity="1" fill-rule="evenodd" stroke="none" stroke-width=".99999988" stroke-linecap="butt" stroke-linejoin="round" marker-start="none" marker-mid="none" marker-end="none" stroke-miterlimit="4" stroke-dasharray="none" stroke-dashoffset="0" stroke-opacity="1" visibility="visible" display="inline" overflow="visible"/>
    <path style="marker:none" d="M 2.0236282,29.499437 L 14.898103,29.499437 C 15.636925,29.499437 16.260703,29.297454 16.578647,29.031618 C 16.714853,28.917736 17.841652,28.096752 17.930992,28.027535 C 18.228606,27.796956 18.700874,27.625003 19.267706,27.625003 L 46.173991,27.625003 C 47.176801,27.625003 47.695063,28.703042 47.484882,29.495483 L 44.72546,39.899257 C 44.551522,40.555052 44.019171,40.681456 43.219486,40.681456 L 5.443473,40.681456 C 4.643789,40.681456 4.1553885,40.315646 4,39.915832 L 0.7285534,31.498408 C 0.4113946,30.682359 0.3510672,29.499437 2.0236282,29.499437 z " opacity="1" color="#000" fill="url(#n)" fill-opacity="1" fill-rule="evenodd" stroke="#555753" stroke-width=".99999988" stroke-linecap="butt" stroke-linejoin="round" marker-start="none" marker-mid="none" marker-end="none" stroke-miterlimit="4" stroke-dasharray="none" stroke-dashoffset="0" stroke-opacity="1" visibility="visible" display="inline" overflow="visible"/>
    <path style="marker:none" d="M 19.179997,28.088388 C 17.854432,28.088388 17.457721,29.975139 14.938039,30.013665 C 13.688423,30.032771 2.63052,29.96947 2.13052,29.96947 C 0.7187979,29.96947 1.0420794,30.616323 1.1760152,31.225875 C 1.3085977,31.829268 4.3411486,39.433308 4.3411486,39.433308 C 4.590842,39.984847 4.3231494,40.116308 5.1773161,40.116308 C 5.1773161,40.116308 2.3527919,31.873464 2.3527919,31.535234 C 2.3527919,31.304616 2.1661238,30.95258 2.616656,30.95258 C 3.116656,30.95258 12.84835,30.95258 14.09835,30.95258 C 17.775964,30.95258 17.993814,29.027304 20.093369,29.027304 C 21.310036,29.027304 45.044195,29.061127 45.044195,29.061127 L 46.900349,28.078017 C 46.900349,28.078017 20.46333,28.088388 19.179997,28.088388 z " color="#000" fill="url(#o)" fill-opacity="1" fill-rule="evenodd" stroke="none" stroke-width=".25pt" stroke-linecap="butt" stroke-linejoin="miter" marker-start="none" marker-mid="none" marker-end="none" stroke-miterlimit="4" stroke-dashoffset="0" stroke-opacity="1" visibility="visible" display="inline" overflow="visible"/>
    <rect style="marker:none" width="1.25" height="1.25" x="5.5290294" y="7.3598347" rx="1.4434735" ry="1.25" color="#000" fill="#fffffd" fill-opacity="1" fill-rule="evenodd" stroke="none" stroke-width=".25pt" stroke-linecap="butt" stroke-linejoin="miter" marker-start="none" marker-mid="none" marker-end="none" stroke-miterlimit="4" stroke-dashoffset="0" stroke-opacity="1" visibility="visible" display="inline" overflow="visible"/>
    <rect style="marker:none" width="28" height="1" x="13" y="12" rx="0.5" ry="0.5" opacity="1" color="#000" fill="#fff" fill-opacity="1" fill-rule="nonzero" stroke="none" stroke-width="1" stroke-linecap="round" stroke-linejoin="round" marker-start="none" marker-mid="none" marker-end="none" stroke-miterlimit="4" stroke-dasharray="none" stroke-dashoffset="1.20000057" stroke-opacity="1" visibility="visible" display="inline" overflow="visible"/>
  </g>
</svg>
