<?xml version="1.0" encoding="UTF-8" standalone="no"?>





<svg xmlns="http://www.w3.org/2000/svg" width="100%" height="100%"
     viewBox="-1 -11 68 41">
    <rect style="fill: #e4be9c" x="0" y="-10" width="67" height="1"/>
    <rect style="fill: none; stroke-width: 0.1; stroke: #000000" x="0" y="-10"
          width="67" height="1"/>
    <rect style="fill: #e4be9c" x="66" y="-9" width="1" height="38"/>
    <rect style="fill: none; stroke-width: 0.1; stroke: #000000" x="66" y="-9"
          width="1" height="38"/>
    <rect style="fill: #e4be9c" x="33" y="29" width="34" height="1"/>
    <rect style="fill: none; stroke-width: 0.1; stroke: #000000" x="33" y="29"
          width="34" height="1"/>
    <rect style="fill: #e4be9c" x="33" y="11" width="1" height="18"/>
    <rect style="fill: none; stroke-width: 0.1; stroke: #000000" x="33" y="11"
          width="1" height="18"/>
    <rect style="fill: #e4be9c" x="0" y="-9" width="1" height="19"/>
    <rect style="fill: none; stroke-width: 0.1; stroke: #000000" x="0" y="-9"
          width="1" height="19"/>
    <rect style="fill: #e4be9c" x="0" y="10" width="34" height="1"/>
    <rect style="fill: none; stroke-width: 0.1; stroke: #000000" x="0" y="10"
          width="34" height="1"/>
    <rect style="fill: #f0e2c0" x="28" y="-9" width="5" height="6"/>
    <rect style="fill: none; stroke-width: 0.1; stroke: #63462b" x="28" y="-9"
          width="5" height="6"/>
    <rect style="fill: #f0e2c0" x="28" y="-3" width="5" height="2"/>
    <rect style="fill: none; stroke-width: 0.1; stroke: #63462b" x="28" y="-3"
          width="5" height="2"/>
    <rect style="fill: #f0e2c0" x="28" y="-1" width="5" height="2"/>
    <rect style="fill: none; stroke-width: 0.1; stroke: #63462b" x="28" y="-1"
          width="5" height="2"/>
    <rect style="fill: #f0e2c0" x="28" y="1" width="5" height="2"/>
    <rect style="fill: none; stroke-width: 0.1; stroke: #63462b" x="28" y="1"
          width="5" height="2"/>
    <rect style="fill: #f0e2c0" x="28" y="3" width="5" height="2"/>
    <rect style="fill: none; stroke-width: 0.1; stroke: #63462b" x="28" y="3"
          width="5" height="2"/>
    <rect style="fill: #f0e2c0" x="28" y="7" width="5" height="2"/>
    <rect style="fill: none; stroke-width: 0.1; stroke: #63462b" x="28" y="7"
          width="5" height="2"/>
    <rect style="fill: #f0e2c0" x="28" y="5" width="5" height="2"/>
    <rect style="fill: none; stroke-width: 0.1; stroke: #63462b" x="28" y="5"
          width="5" height="2"/>
</svg>
