<?xml version="1.0" encoding="UTF-8" standalone="no"?>
<svg
   id="master-artboard"
   viewBox="0 0 841.3834228515625 579.3963623046875"
   version="1.1"
   x="0px"
   y="0px"
   style="enable-background:new 0 0 1400 980;"
   width="841.3834228515625px"
   height="579.3963623046875px"
   sodipodi:docname="svg.svg"
   inkscape:version="1.1.2 (0a00cf5339, 2022-02-04)"
   xmlns:inkscape="http://www.inkscape.org/namespaces/inkscape"
   xmlns:sodipodi="http://sodipodi.sourceforge.net/DTD/sodipodi-0.dtd"
   xmlns="http://www.w3.org/2000/svg"
   xmlns:svg="http://www.w3.org/2000/svg">
  <defs
     id="defs385" />
  <sodipodi:namedview
     id="namedview383"
     pagecolor="#505050"
     bordercolor="#ffffff"
     borderopacity="1"
     inkscape:pageshadow="0"
     inkscape:pageopacity="0"
     inkscape:pagecheckerboard="1"
     showgrid="false"
     inkscape:zoom="1.285821"
     inkscape:cx="420.35401"
     inkscape:cy="289.69818"
     inkscape:window-width="3440"
     inkscape:window-height="1369"
     inkscape:window-x="0"
     inkscape:window-y="34"
     inkscape:window-maximized="1"
     inkscape:current-layer="master-artboard" />
  <rect
     id="ee-background"
     x="0"
     y="0"
     width="841.3834228515625"
     height="579.3963623046875"
     style="fill: white; fill-opacity: 0; pointer-events: none;" />
  <path
     d="M 0 0 H 1400 V 980 H 0 V 0 Z"
     class="st0"
     style="fill: rgb(73, 56, 49);"
     transform="matrix(0.601083817300308, 0, 0, 0.601083817300308, 0, 0)"
     id="path3" />
  <g
     transform="matrix(0.601083817300308, 0, 0, 0.601083817300308, 1.371721771646452e-14, 0)"
     id="g380">
    <g
       id="g130">
      <g
         id="g112">
        <g
           id="g11">
          <path
             class="st1"
             d="M842,253.3c-4-2.6-6.3-6-3.7-10c2.6-4,7.8-5.1,11.8-2.5c4,2.6,5.1,7.8,2.5,11.8
					C850.1,256.5,846,255.8,842,253.3z"
             style="fill: rgb(192, 119, 114);"
             id="path5" />
          <path
             class="st2"
             d="M849.6,245.1c-0.7,1.6-2.6,0.1-4.1-0.4c-1.5-0.5-3.5-1.2-2.7-2.7c1-1.7,2.8-2,4-1.5
					C848.8,241.4,850.2,243.6,849.6,245.1z"
             style="fill: rgb(204, 147, 130);"
             id="path7" />
          <path
             class="st2"
             d="M843.2,249c0.6-1.4,2.3-0.1,3.6,0.3c1.3,0.4,3.1,1,2.3,2.3c-0.8,1.5-2.4,1.8-3.5,1.3
					C843.9,252.3,842.6,250.4,843.2,249z"
             style="fill: rgb(204, 147, 130);"
             id="path9" />
        </g>
        <path
           class="st2"
           d="M849.7,249.5c13.1,8.5,16.8,25.9,8.3,38.9l-64.1,99c-8.5,13.1-25.9,16.8-38.9,8.3l-5.9-3.8
				c-13.1-8.4-16.8-25.9-8.3-38.9l64.1-99c8.5-13.1,25.9-16.8,38.9-8.3L849.7,249.5z"
           style="fill: rgb(204, 147, 130);"
           id="path13" />
        <linearGradient
           id="SVGID_1_"
           gradientUnits="userSpaceOnUse"
           x1="760.8151"
           y1="251.7304"
           x2="800.5702"
           y2="308.013">
          <stop
             offset="0"
             style="stop-color:#FFFFFF"
             id="stop15" />
          <stop
             offset="1"
             style="stop-color:#FFFFFF;stop-opacity:0"
             id="stop17" />
        </linearGradient>
        <path
           class="st3"
           d="M758.2,334.4c0,0,47.6-78.1,48.7-80c3.4-5.9,12-10.9,13.1-10c1.1,0.9-9.7,7.5-14.1,19.6
				c-4.4,12.1,10.6-5.8,12.8-8.4c6.2-7.3,15.4-11.1,11.9-3.7c-3.5,7.5-19.5,30.9-17.8,32.6c3.5,3.5,26.6-34,29.7-32.4
				c3.1,1.5-11,42-39.2,82.2c-28.2,40.2-37.7,43.3-39.4,36.1C762,363.3,758.2,334.4,758.2,334.4z"
           style="fill: url('#SVGID_1_');"
           id="path20" />
        <g
           id="g34">
          <g
             id="g30">
            <path
               class="st1"
               d="M755.3,386.2c0.4,0.5-1.1,2.3-2.6-0.4c-1.2-2.2-9.5-12.6,2.4-33.8C755,351.9,745.2,374.6,755.3,386.2z"
               style="fill: rgb(192, 119, 114);"
               id="path22" />
            <path
               class="st1"
               d="M770.2,394.8c-0.7-0.1-1.3,2.2,1.9,1.9c2.5-0.3,15.8,0.3,26-21.8C798.1,374.9,785.5,396.1,770.2,394.8z"
               style="fill: rgb(192, 119, 114);"
               id="path24" />
            <path
               class="st1"
               d="M766.9,392.6c-1.1,0.9-3.1,0.5-1.6-1.1c6.3-6.8,22.8-31.3,22.8-31.3S774.9,385.4,766.9,392.6z"
               style="fill: rgb(192, 119, 114);"
               id="path26" />
            <path
               class="st1"
               d="M758.3,388.3c0,1.4,1.6,2.7,1.9,0.5c1-9.2,8.6-37.7,8.6-37.7S758.4,377.6,758.3,388.3z"
               style="fill: rgb(192, 119, 114);"
               id="path28" />
          </g>
          <path
             class="st1"
             d="M774.5,396.4c0,0-3.7-0.3-3.1,2l-3,0.4l-12-7.2l-5.3-4.4c0,0,2.3,1.4,1.7-1.1l1.6-1c0,0,2.9,4.8,3.9,1.9
					l2.1-0.2c0,0-0.6,8.6,5.7,3.9l1.9,0.7c0,0-3.2,3.5,4.3,3.4L774.5,396.4z"
             style="fill: rgb(192, 119, 114);"
             id="path32" />
        </g>
        <path
           class="st1"
           d="M749.1,391.9l5.9,3.8c3.8,2.5,8,3.9,12.2,4.3c13.4-7.3,18.6-23.9,11.7-37.6l-19.6-38.2L740.7,353
				C732.3,366,736,383.5,749.1,391.9z"
           style="fill: rgb(192, 119, 114);"
           id="path36" />
        <path
           class="st2"
           d="M676.8,252.7c13.1,8.3,17,25.7,8.7,38.9l-63.2,99.6c-8.3,13.1-25.7,17-38.9,8.7l-5.9-3.8
				c-13.1-8.3-17-25.7-8.7-38.9l63.2-99.6c8.3-13.1,25.7-17,38.9-8.7L676.8,252.7z"
           style="fill: rgb(204, 147, 130);"
           id="path38" />
        <path
           class="st1"
           d="M678.3,255.1L678.3,255.1c-0.2-0.7-0.2-1.1,0-1.3c-0.5-0.4-1-0.7-1.5-1.1l-5.9-3.8
				c-3.7-2.3-7.7-3.7-11.7-4.2c-0.1,0.5-0.6,0.9-1.1,1c-3.4,0.4-15.8,1.8-24.2,23.2c0,0,11.2-21.8,26.5-21.5
				c4.8,0.2,2.5,3.2,2.5,3.2l0,0c-7.5,8.8-18.2,32.4-18.2,32.4s14.5-24.5,20.6-32.2c5.6-4.3,5.6,3.8,5.6,3.9
				c-1,10.7-6.2,36.3-6.2,36.3s8.1-25.2,8.2-36.6h0c0.5-1.9,2-0.7,3,0.4c0,0.1,0,0.2,0.1,0.2c10.7,11,2.2,34.2,2.2,34.2
				c10.7-21.9,1.8-31.8,0.4-33.9C678.5,255.4,678.4,255.3,678.3,255.1z"
           style="fill: rgb(192, 119, 114);"
           id="path40" />
        <path
           class="st1"
           d="M585.4,391.8l-7.7-1.2V390l-4.5-0.5c0.4,3.1-1.9,1.1-2.4,0.6c1.9,2.3,4.1,4.3,6.7,6l5.9,3.8
				c1.9,1.2,3.9,2.1,6,2.8c-1.2-3.2,4.2-1.1,4.2-1.1l-7.4-8.2L585.4,391.8z"
           style="fill: rgb(192, 119, 114);"
           id="path42" />
        <path
           class="st1"
           d="M676.8,252.7l-5.9-3.8c-1.7-1.1-3.6-2-5.4-2.7c-13.1,7.4-17.1,26.2-10.2,39.8l15.1,29.4l15.2-23.9
				C693.8,278.4,689.9,261.1,676.8,252.7z"
           style="fill: rgb(192, 119, 114);"
           id="path44" />
        <path
           class="st1"
           d="M681.4,244.6c0,0-10.6-8.5-16,1.7l1.8,4.5l12.4,3.6L681.4,244.6z"
           style="fill: rgb(192, 119, 114);"
           id="path46" />
        <path
           class="st1"
           d="M767.2,400.1c0,0-9.3,14.1-22.9-2.4c-13.6-16.5,2-19.1,2-19.1l6.7-2.2l10.7,1.1L767.2,400.1z"
           style="fill: rgb(192, 119, 114);"
           id="path48" />
        <path
           class="st2"
           d="M752.1,402.2c-13.8,7.1-30.8,1.6-37.9-12.2l-53.7-105c-7.1-13.8-1.6-30.8,12.3-37.9l6.3-3.2
				c13.8-7.1,30.8-1.6,37.9,12.2l53.7,105c7.1,13.8,1.6,30.8-12.2,37.9L752.1,402.2z"
           style="fill: rgb(204, 147, 130);"
           id="path50" />
        <path
           class="st2"
           d="M675.8,243.2c0.9,1-2.8,1.8-4.5,2.6c-1.7,0.8-3.3,1.8-3.9,0.6c-0.6-1.3,0.9-2.8,2.6-3.5
				C672.3,241.9,674.9,242.2,675.8,243.2z"
           style="fill: rgb(204, 147, 130);"
           id="path52" />
        <path
           class="st2"
           d="M753.9,403.1c-0.8-1.1,3-1.5,4.7-2c1.7-0.5,3.5-1.4,3.9-0.1c0.4,1.3-1.2,2.7-3,3.2
				C757.2,404.8,754.7,404.2,753.9,403.1z"
           style="fill: rgb(204, 147, 130);"
           id="path54" />
        <g
           id="g68">
          <g
             id="g64">
            <path
               class="st1"
               d="M684.9,245.3c-0.7,0.1-1.3-2.2,1.8-2c2.5,0.2,15.8-1,26.8,20.7C713.5,264.1,700.1,243.4,684.9,245.3z"
               style="fill: rgb(192, 119, 114);"
               id="path56" />
            <path
               class="st1"
               d="M669.4,253c0.4-0.5-1.2-2.3-2.6,0.5c-1.1,2.2-9,13,3.8,33.7C670.6,287.3,659.9,265.1,669.4,253z"
               style="fill: rgb(192, 119, 114);"
               id="path58" />
            <path
               class="st1"
               d="M673.1,251.5c-0.2-1.4,1.3-2.9,1.8-0.7c2.2,9,13.5,36.3,13.5,36.3S674.6,262.1,673.1,251.5z"
               style="fill: rgb(192, 119, 114);"
               id="path60" />
            <path
               class="st1"
               d="M681.4,246.7c-1.2-0.8-3.2-0.1-1.4,1.3c7.1,5.9,26.7,28,26.7,28S690.3,252.7,681.4,246.7z"
               style="fill: rgb(192, 119, 114);"
               id="path62" />
          </g>
          <path
             class="st1"
             d="M665.7,255.7c0,0,2.3-3,0-3.7l1.3-2.7l12.6-6l6.6-2c0,0-2.4,1.1,0,2v1.9c0,0-5.6-0.3-3.8,2.2l-1,1.8
					c0,0-6.9-5.3-6.4,2.6l-1.6,1.2c0,0-1.2-4.6-5.2,1.7L665.7,255.7z"
             style="fill: rgb(192, 119, 114);"
             id="path66" />
        </g>
        <g
           id="g82">
          <g
             id="g78">
            <path
               class="st1"
               d="M850.8,253.2c-0.4-0.5,1.1-2.3,2.6,0.4c1.2,2.2,9.4,12.7-2.8,33.8C850.7,287.4,860.8,264.9,850.8,253.2z"
               style="fill: rgb(192, 119, 114);"
               id="path70" />
            <path
               class="st1"
               d="M836,244.5c0.7,0.1,1.3-2.2-1.9-1.9c-2.5,0.3-15.8-0.5-26.2,21.5C807.9,264.1,820.7,243,836,244.5z"
               style="fill: rgb(192, 119, 114);"
               id="path72" />
            <path
               class="st1"
               d="M839.2,246.7c1.1-0.9,3.1-0.5,1.6,1.1c-6.4,6.7-23.1,31.1-23.1,31.1S831.2,253.8,839.2,246.7z"
               style="fill: rgb(192, 119, 114);"
               id="path74" />
            <path
               class="st1"
               d="M847.8,251.1c0-1.4-1.6-2.7-1.9-0.5c-1,9.2-9,37.7-9,37.7S847.6,261.8,847.8,251.1z"
               style="fill: rgb(192, 119, 114);"
               id="path76" />
          </g>
          <path
             class="st1"
             d="M831.7,242.7c0,0,3.7,0.3,3.1-2l3-0.4l11.9,7.4l5.3,4.4c0,0-2.3-1.4-1.7,1.1l-1.6,1c0,0-2.8-4.8-3.9-2
					l-2.1,0.1c0,0,0.7-8.6-5.7-4l-1.9-0.7c0,0,3.2-3.5-4.2-3.4L831.7,242.7z"
             style="fill: rgb(192, 119, 114);"
             id="path80" />
        </g>
        <path
           class="st1"
           d="M764.7,393.3c1.7-3,8.1-13.7-4.1-33.3c0,0,10.7,22,1.3,34.1c-3.1,3.7-4,0.1-4,0.1l0,0c-2.5-11.3-15-34-15-34
				s10.9,26.3,13.4,35.8c0.1,7.1-6.4,2.1-6.4,2.1c-8-7.2-25.3-26.8-25.3-26.8s15.3,21.6,24.3,28.6l0,0c1.2,1.6-0.7,2-2.2,2.2
				c-0.1-0.1-0.2-0.1-0.2-0.1c-15.2,1.9-28.7-18.7-28.7-18.7c11.1,21.7,24.4,20.5,26.9,20.7c0.2,0,0.3,0,0.4,0v0
				c0.5,0.2,0.7,0.3,0.9,0.5c2.1-0.5,4.1-1.2,6.1-2.3l6.3-3.2c2.4-1.2,4.5-2.7,6.3-4.5C764.5,394.2,764.6,393.7,764.7,393.3z"
           style="fill: rgb(192, 119, 114);"
           id="path84" />
        <g
           id="g92">
          <path
             class="st1"
             d="M584.7,390.9c4,2.6,6.3,6,3.7,10c-2.6,4-7.8,5.1-11.8,2.5c-4-2.6-5.1-7.8-2.5-11.8
					C576.6,387.7,580.7,388.4,584.7,390.9z"
             style="fill: rgb(192, 119, 114);"
             id="path86" />
          <path
             class="st2"
             d="M574.9,396c1-2.4,4-0.1,6.3,0.7c2.3,0.8,5.4,1.8,4.1,4.1c-1.5,2.6-4.3,3-6.1,2.3
					C576.1,401.8,573.8,398.4,574.9,396z"
             style="fill: rgb(204, 147, 130);"
             id="path88" />
          <path
             class="st2"
             d="M583.5,395.2c-0.6,1.4-2.3,0.1-3.6-0.3c-1.3-0.4-3.1-1-2.3-2.3c0.8-1.5,2.4-1.8,3.5-1.3
					C582.7,391.9,584,393.8,583.5,395.2z"
             style="fill: rgb(204, 147, 130);"
             id="path90" />
        </g>
        <g
           id="g108">
          <g
             id="g106">
            <path
               class="st1"
               d="M579.5,384.2c0.4,0.5-1.2,2.3-2.6-0.6c-1.1-2.2-8.7-13.2,4.7-33.6C581.6,350,570.3,371.9,579.5,384.2z"
               style="fill: rgb(192, 119, 114);"
               id="path94" />
            <path
               class="st1"
               d="M576.8,389.4c0.6,0.4-0.1,2-2.9,0.6c-2.2-1.1-14.4-12.6-2-33.1C571.9,356.9,560.7,379.4,576.8,389.4z"
               style="fill: rgb(192, 119, 114);"
               id="path96" />
            <path
               class="st1"
               d="M593.8,393.8c-0.7-0.1-1.4,2.2,1.7,2c2.5-0.1,15.7,1.4,27.4-20C623,375.8,609,396.1,593.8,393.8z"
               style="fill: rgb(192, 119, 114);"
               id="path98" />
            <path
               class="st1"
               d="M589.1,397.9c-0.6-0.3-1.7,0.3,0.9,2.1c4.5,3.1,18.5,6.4,32.3-11.7C622.3,388.2,605.4,406.7,589.1,397.9z"
               style="fill: rgb(192, 119, 114);"
               id="path100" />
            <path
               class="st1"
               d="M590.7,391.4c-1.1,0.9-3.1,0.3-1.5-1.2c6.7-6.3,24.8-29.7,24.8-29.7S599.2,384.7,590.7,391.4z"
               style="fill: rgb(192, 119, 114);"
               id="path102" />
            <path
               class="st1"
               d="M582.4,386.5c-0.1,1.4,1.5,2.8,1.8,0.6c1.6-9.1,11.1-37.1,11.1-37.1S583.2,375.8,582.4,386.5z"
               style="fill: rgb(192, 119, 114);"
               id="path104" />
          </g>
        </g>
        <path
           class="st1"
           d="M576.3,382.5c0,0,2.3,5.9-2.6,4.6l0.8,1.8l1.5,1.2h2.4l3.8,1h0.6l6,8.2l2.7,1l2.8-0.3c0,0-5.1-3.3,2.1-4.1
				l0.4-1.8c0,0-7.4-0.3-2.5-6.2l-1.6-1.5c0,0-9.4,8.2-8.1-2.2l-2.1-0.4c0,0-0.2,3.1-1.7,2.1c-1.5-1-2.5-3-2.5-3L576.3,382.5z"
           style="fill: rgb(192, 119, 114);"
           id="path110" />
      </g>
      <linearGradient
         id="SVGID_2_"
         gradientUnits="userSpaceOnUse"
         x1="579.578"
         y1="313.4682"
         x2="706.2901"
         y2="328.4273">
        <stop
           offset="0"
           style="stop-color:#FFFFFF"
           id="stop114" />
        <stop
           offset="1"
           style="stop-color:#FFFFFF;stop-opacity:0"
           id="stop116" />
      </linearGradient>
      <path
         class="st4"
         d="M660.5,279.1c-1.6-3.4-3.7-10.6,0-15c3.7-4.4-0.2,2.2,0.9,7.5c1.1,5.3,8.5,21.1,10.3,19.6
			c1.8-1.5-9.7-29.3-1.7-30c8-0.6,12.6,32.4,19.9,31.1c7.3-1.3-12.1-32.3-8.4-35.9c4.7-4.5,18.7,15.4,25.3,27.3
			c6.5,11.9,49.5,110.7,45.3,111.6c-4.2,0.9-24.4-29.4-29.5-27.7c-5.1,1.7,24,32.2,22,32.7c-2,0.5-17.6-5.9-24.9-19.3
			c-7.3-13.4-6-0.6-1.9,6.3c4.1,6.9,14.9,14.6,12.5,13.9c-2.4-0.7-11.2-3-27.6-39C685.3,324.4,670.7,300.7,660.5,279.1z"
         style="fill: url('#SVGID_2_');"
         id="path119" />
      <linearGradient
         id="SVGID_3_"
         gradientUnits="userSpaceOnUse"
         x1="546.3323"
         y1="170.9685"
         x2="651.7133"
         y2="382.3161">
        <stop
           offset="0"
           style="stop-color:#FFFFFF"
           id="stop121" />
        <stop
           offset="0.7052"
           style="stop-color:#FFFFFF;stop-opacity:0.1039"
           id="stop123" />
        <stop
           offset="1"
           style="stop-color:#FFFFFF;stop-opacity:0"
           id="stop125" />
      </linearGradient>
      <path
         class="st5"
         d="M627.2,268c0,0,9.1-14,13.3-16c3.6-1.6-3.3,0.7-9,17.6c-5.7,16.9,3.4-6.5,16.1-13.9c5.4-3.2,12.9-6.7,6.5,4.3
			c-3,5.3-11,23.8-11.8,25.2c-3.7,6.6-20.9,62.8-30.6,75.1c-9.7,12.3-23.4,33-23.3,22.1c0-11,12.4-33.7,8.7-35
			c-3.7-1.3-16.5,18.8-16.6,26.2c-0.1,7.4-5.2-4.3,0.6-18c5.5-13.1,2.5-11.5,1.3-9.9c-1.6,2-9.6,14.5-8.6,8
			C574.7,348,627.2,268,627.2,268z"
         style="fill: url('#SVGID_3_');"
         id="path128" />
    </g>
    <g
       id="g232">
      <g
         id="g134">
        <path
           class="st6"
           d="M393.3,355.4c1.4-7.7,6.6-11.6,12.4-12.3v-45.3c0.1-1.2,0.2-2.5,0.2-3.7c0-1.2-0.1-2.5-0.2-3.7v-0.6h-0.1
				c-3.8-39.4-59.8-70.7-128.3-70.7c-68.5,0-124.5,31.3-128.3,70.7h-0.1v0.6c-0.1,1.2-0.2,2.5-0.2,3.7c0,1.2,0.1,2.5,0.2,3.7v49.4
				c-0.1,1.2-0.2,2.5-0.2,3.7c0,1.2,0.1,2.5,0.2,3.7v1.7h0.2c4.7,38.9,60.3,69.7,128.2,69.7c24.8,0,48-4.1,67.7-11.3
				c0.6-0.4,10.3-7.2,10.3-15.5V363c12.6,3.6,27.2,7.3,34.8,7.5C391.7,365.5,392.5,359.9,393.3,355.4z"
           style="fill: rgb(250, 175, 64);"
           id="path132" />
      </g>
      <g
         id="g144">
        <path
           class="st7"
           d="M148.9,294.1c0-0.6-0.1-1.2-0.1-1.8c0,0.6-0.1,1.2-0.1,1.9c0,1.2,0.1,2.5,0.2,3.7V294.1z"
           style="fill: rgb(245, 150, 29);"
           id="path136" />
        <path
           class="st7"
           d="M345,410.9c-19.7,7.1-42.8,11.3-67.7,11.3c-67.9,0-123.5-30.7-128.2-69.7h-0.2v-1.7c0-0.6-0.1-1.2-0.1-1.8
				c0,0.6-0.1,1.2-0.1,1.9c0,1.2,0.1,2.5,0.2,3.7v1.7h0.2c4.7,38.9,60.3,69.7,128.2,69.7c24.8,0,48-4.1,67.7-11.3
				c0.6-0.4,10.3-7.2,10.3-15.5v-3.7C355.3,403.7,345.6,410.5,345,410.9z"
           style="fill: rgb(245, 150, 29);"
           id="path138" />
        <path
           class="st7"
           d="M393.3,351.7c-0.8,4.5-1.6,10-3.2,15.1c-7.6-0.2-22.2-3.9-34.8-7.5v3.8c12.6,3.6,27.2,7.3,34.8,7.5
				c1.6-5.1,2.4-10.6,3.2-15.1c1.4-7.7,6.6-11.6,12.4-12.3v-3.7C399.9,340.1,394.8,343.9,393.3,351.7z"
           style="fill: rgb(245, 150, 29);"
           id="path140" />
        <path
           class="st7"
           d="M405.7,294.1v3.8c0.1-1.2,0.2-2.5,0.2-3.7c0-0.6-0.1-1.2-0.1-1.9C405.7,292.8,405.7,293.5,405.7,294.1z"
           style="fill: rgb(245, 150, 29);"
           id="path142" />
      </g>
      <linearGradient
         id="SVGID_4_"
         gradientUnits="userSpaceOnUse"
         x1="222.4828"
         y1="54.8942"
         x2="292.5034"
         y2="336.4073">
        <stop
           offset="0"
           style="stop-color:#FFFFFF"
           id="stop146" />
        <stop
           offset="1"
           style="stop-color:#FFFFFF;stop-opacity:0"
           id="stop148" />
      </linearGradient>
      <path
         class="st8"
         d="M375.7,274.3c0,24.6-44.1,44.5-98.6,44.5c-54.5,0-98.6-19.9-98.6-44.5c0-24.6,44.1-44.5,98.6-44.5
			C331.5,229.8,375.7,249.7,375.7,274.3z"
         style="opacity: 0.4; fill: url('#SVGID_4_');"
         id="path151" />
      <g
         id="g155">
        <path
           class="st9"
           d="M405.7,297.8c0.1-1.2,0.2-2.5,0.2-3.7c0-1.2-0.1-2.5-0.2-3.7v-0.6h-0.1c-0.7-7.7-3.5-15-7.9-21.9
				c-12-10.5-27.6-8.2-27.6-8.2l-99.2,8l71.2,40c13.3,5.7,13.1,22.9,13.1,22.9s0,15.9,0,32.5c13,3.7,28.2,7.5,35.5,7.5
				c8.8,0,12.4-5.6,13.9-9.8c-0.1,0.4-0.2,0.8-0.3,1.2c0.5-1.9,0.9-3.8,1.1-5.8h0.2v-1.7c0.1-1.2,0.2-2.5,0.2-3.7
				c0-1.2-0.1-2.5-0.2-3.7V297.8z"
           style="fill: rgb(255, 203, 3);"
           id="path153" />
      </g>
      <path
         class="st7"
         d="M355.3,330.6c0,0,0,15.9,0,32.5c2.3,0.7,4.7,1.3,7.1,2c0-9.5,0-24,0-35.9c0-19.3-11.4-23.6-11.4-23.6
			l-80-37.9l71.2,40C355.4,313.4,355.3,330.6,355.3,330.6z"
         style="fill: rgb(245, 150, 29);"
         id="path157" />
      <g
         id="g163">
        <path
           class="st7"
           d="M404.7,360.8c0,0.1-0.1,0.3-0.1,0.4c-0.1,0.3-0.1,0.6-0.2,0.8C404.5,361.6,404.6,361.2,404.7,360.8z"
           style="fill: rgb(245, 150, 29);"
           id="path159" />
        <path
           class="st7"
           d="M405.7,296.9L372.4,360v7.5c7.4,1.8,14.2,3,18.4,3c8.5,0,12.2-5.2,13.7-9.4c0.4-1.6,0.7-3.3,0.9-4.9h0.2
				v-1.7c0.1-1.2,0.2-2.5,0.2-3.7c0-1.2-0.1-2.5-0.2-3.7v-49.4C405.7,297.5,405.7,297.2,405.7,296.9z"
           style="fill: rgb(245, 150, 29);"
           id="path161" />
      </g>
      <path
         class="st6"
         d="M381,363.6l37.2-78.1c0,0,55.7-10.4,74.3,32c0,0-12.1,38.8-14.3,39.5C476,357.7,381,363.6,381,363.6z"
         style="fill: rgb(250, 175, 64);"
         id="path165" />
      <path
         d="M 381 363.6000061035156 L 381 423.6000061035156 L 492.5 377.70001220703125 L 492.5 317.5 Z"
         class="st9"
         style="fill: rgb(255, 203, 3);"
         id="path167" />
      <g
         id="g173">
        <path
           d="M 351.600006 279.5 A 9 9 0 0 1 342.600006 288.5 A 9 9 0 0 1 333.600006 279.5 A 9 9 0 0 1 342.600006 270.5 A 9 9 0 0 1 351.600006 279.5 Z"
           class="st7"
           style="fill: rgb(245, 150, 29);"
           id="path169" />
        <path
           d="M 347.5 277.399994 A 8 8 0 0 1 339.5 285.399994 A 8 8 0 0 1 331.5 277.399994 A 8 8 0 0 1 339.5 269.399994 A 8 8 0 0 1 347.5 277.399994 Z"
           class="st9"
           style="fill: rgb(255, 203, 3);"
           id="path171" />
      </g>
      <g
         id="g179">
        <path
           class="st7"
           d="M395.7,308.7c0,5-4,9-9,9c-5,0-9-4-9-9c0-5,4-9,9-9C391.7,299.7,395.7,303.7,395.7,308.7z"
           style="fill: rgb(245, 150, 29);"
           id="path175" />
        <path
           d="M 391.700012 306.600006 A 8 8 0 0 1 383.700012 314.600006 A 8 8 0 0 1 375.700012 306.600006 A 8 8 0 0 1 383.700012 298.600006 A 8 8 0 0 1 391.700012 306.600006 Z"
           class="st9"
           style="fill: rgb(255, 203, 3);"
           id="path177" />
      </g>
      <g
         id="g185">
        <path
           d="M 320.1 277.399994 A 6.1 6.1 0 0 1 314 283.499994 A 6.1 6.1 0 0 1 307.9 277.399994 A 6.1 6.1 0 0 1 314 271.299994 A 6.1 6.1 0 0 1 320.1 277.399994 Z"
           class="st7"
           style="fill: rgb(245, 150, 29);"
           id="path181" />
        <path
           d="M 317.399994 276 A 5.5 5.5 0 0 1 311.899994 281.5 A 5.5 5.5 0 0 1 306.399994 276 A 5.5 5.5 0 0 1 311.899994 270.5 A 5.5 5.5 0 0 1 317.399994 276 Z"
           class="st9"
           style="fill: rgb(255, 203, 3);"
           id="path183" />
      </g>
      <g
         id="g191">
        <path
           class="st7"
           d="M393.6,280.5c0,6.6-5.3,11.9-11.9,11.9c-6.6,0-11.9-5.3-11.9-11.9c0-6.6,5.3-11.9,11.9-11.9
				C388.3,268.6,393.6,273.9,393.6,280.5z"
           style="fill: rgb(245, 150, 29);"
           id="path187" />
        <path
           d="M 389.800006 278.899994 A 10.7 10.7 0 0 1 379.100006 289.599994 A 10.7 10.7 0 0 1 368.400006 278.899994 A 10.7 10.7 0 0 1 379.100006 268.199994 A 10.7 10.7 0 0 1 389.800006 278.899994 Z"
           class="st9"
           style="fill: rgb(255, 203, 3);"
           id="path189" />
      </g>
      <g
         id="g197">
        <path
           d="M 477.600012 353.100006 A 11.9 11.9 0 0 1 465.700012 365.000006 A 11.9 11.9 0 0 1 453.800013 353.100006 A 11.9 11.9 0 0 1 465.700012 341.200006 A 11.9 11.9 0 0 1 477.600012 353.100006 Z"
           class="st7"
           style="fill: rgb(245, 150, 29);"
           id="path193" />
        <path
           d="M 473.7 351.5 A 10.7 10.7 0 0 1 463 362.2 A 10.7 10.7 0 0 1 452.3 351.5 A 10.7 10.7 0 0 1 463 340.8 A 10.7 10.7 0 0 1 473.7 351.5 Z"
           class="st9"
           style="fill: rgb(255, 203, 3);"
           id="path195" />
      </g>
      <g
         id="g203">
        <path
           d="M 437.199994 379 A 7.3 7.3 0 0 1 429.899994 386.3 A 7.3 7.3 0 0 1 422.599994 379 A 7.3 7.3 0 0 1 429.899994 371.7 A 7.3 7.3 0 0 1 437.199994 379 Z"
           class="st7"
           style="fill: rgb(245, 150, 29);"
           id="path199" />
        <path
           class="st9"
           d="M434.8,378c0,3.6-2.9,6.5-6.5,6.5c-3.6,0-6.5-2.9-6.5-6.5c0-3.6,2.9-6.5,6.5-6.5
				C431.9,371.4,434.8,374.4,434.8,378z"
           style="fill: rgb(255, 203, 3);"
           id="path201" />
      </g>
      <g
         id="g209">
        <path
           d="M 404.800006 378.5 A 7.7 7.7 0 0 1 397.100006 386.2 A 7.7 7.7 0 0 1 389.400006 378.5 A 7.7 7.7 0 0 1 397.100006 370.8 A 7.7 7.7 0 0 1 404.800006 378.5 Z"
           class="st7"
           style="fill: rgb(245, 150, 29);"
           id="path205" />
        <path
           d="M 402.299994 377.5 A 6.9 6.9 0 0 1 395.399994 384.4 A 6.9 6.9 0 0 1 388.499994 377.5 A 6.9 6.9 0 0 1 395.399994 370.6 A 6.9 6.9 0 0 1 402.299994 377.5 Z"
           class="st9"
           style="fill: rgb(255, 203, 3);"
           id="path207" />
      </g>
      <g
         id="g215">
        <path
           class="st7"
           d="M367.9,298c0,2.8-2.3,5.1-5.1,5.1c-2.8,0-5.1-2.3-5.1-5.1c0-2.8,2.3-5.1,5.1-5.1
				C365.6,292.8,367.9,295.1,367.9,298z"
           style="fill: rgb(245, 150, 29);"
           id="path211" />
        <path
           d="M 366.200006 297.299988 A 4.6 4.6 0 0 1 361.600006 301.899988 A 4.6 4.6 0 0 1 357.000006 297.299988 A 4.6 4.6 0 0 1 361.600006 292.699988 A 4.6 4.6 0 0 1 366.200006 297.299988 Z"
           class="st9"
           style="fill: rgb(255, 203, 3);"
           id="path213" />
      </g>
      <g
         id="g221">
        <path
           d="M 377.800012 333.799988 A 5.1 5.1 0 0 1 372.700012 338.899988 A 5.1 5.1 0 0 1 367.600012 333.799988 A 5.1 5.1 0 0 1 372.700012 328.699988 A 5.1 5.1 0 0 1 377.800012 333.799988 Z"
           class="st7"
           style="fill: rgb(245, 150, 29);"
           id="path217" />
        <path
           class="st9"
           d="M376.2,333.1c0,2.5-2.1,4.6-4.6,4.6c-2.5,0-4.6-2.1-4.6-4.6c0-2.5,2.1-4.6,4.6-4.6
				C374.1,328.5,376.2,330.6,376.2,333.1z"
           style="fill: rgb(255, 203, 3);"
           id="path219" />
      </g>
      <path
         d="M 381 367.6000061035156 L 492.5 320.8999938964844 L 492.5 317.5 L 381 363.6000061035156 Z"
         class="st7"
         style="fill: rgb(245, 150, 29);"
         id="path223" />
      <linearGradient
         id="SVGID_5_"
         gradientUnits="userSpaceOnUse"
         x1="400.5164"
         y1="243.0702"
         x2="433.3834"
         y2="329.5247">
        <stop
           offset="0"
           style="stop-color:#FFFFFF"
           id="stop225" />
        <stop
           offset="1"
           style="stop-color:#FFFFFF;stop-opacity:0"
           id="stop227" />
      </linearGradient>
      <path
         class="st10"
         d="M420,288.4L386.8,355l92.8-51.9C479.6,303.1,450.3,282,420,288.4z"
         style="opacity: 0.4; fill: url('#SVGID_5_');"
         id="path230" />
    </g>
    <path
       class="st11"
       d="M706.4,549c-81.6,0-147.8,46-147.8,102.8v37.8c0,18,23.4,71.3,148,71.3c127.7,0,147.6-53.2,147.6-71.3v-37.8
		C854.2,595.1,788,549,706.4,549z"
       style="fill: rgb(205, 121, 43);"
       id="path234" />
    <defs
       id="defs243">
      <filter
         id="Adobe_OpacityMaskFilter"
         filterUnits="userSpaceOnUse"
         x="567.1"
         y="554.2"
         width="271.7"
         height="134.3">
        <feColorMatrix
           type="matrix"
           values="-1 0 0 0 1  0 -1 0 0 1  0 0 -1 0 1  0 0 0 1 0"
           color-interpolation-filters="sRGB"
           result="source"
           id="feColorMatrix236" />
        <feFlood
           style="flood-color:white;flood-opacity:1"
           result="back"
           id="feFlood238" />
        <feBlend
           in="source"
           in2="back"
           mode="normal"
           id="feBlend240" />
      </filter>
    </defs>
    <mask
       maskUnits="userSpaceOnUse"
       x="567.1"
       y="554.2"
       width="271.7"
       height="134.3"
       id="SVGID_6_">
      <g
         class="st12"
         style="filter: url('#Adobe_OpacityMaskFilter');"
         id="g245" />
    </mask>
    <g
       class="st13"
       style="opacity: 0.5; mask: url('#SVGID_6_');"
       mask="url(#SVGID_6_)"
       id="g260">
      <path
         class="st14"
         d="M726.1,582.3c-5.1,0.9-10.2,2-15.4,3.4c-0.1,0-0.2,0.1-0.4,0.1c1,0.1,1.9,0.3,2.8,0.7
			c4.2,1.8,8.5,3.7,12.8,5.7c-1-1.7-1.5-3.6-1.3-5.6C724.7,585,725.2,583.5,726.1,582.3z"
         style="fill: rgb(232, 187, 110);"
         id="path248" />
      <path
         class="st14"
         d="M708.5,567.3c19.3-4.8,38.1-6.6,56.1-5.2c-16.4-5.3-33.1-7.9-49.5-7.9c-21.8,0-38.5,0.5-59.9,6.1
			c-4.7,1.2-9.4,2.6-14,4.1C664.1,560.5,686.4,560.7,708.5,567.3z"
         style="fill: rgb(232, 187, 110);"
         id="path250" />
      <path
         class="st14"
         d="M706.7,586.2c0.3-0.1,0.5-0.2,0.8-0.2c-0.7-0.1-1.3-0.2-2-0.4c-4.5-1.4-9-2.6-13.5-3.5
			c0.3,0.9,0.5,1.8,0.5,2.8c0.1,2.7-1,5.2-2.9,7C695.2,589.9,700.9,588,706.7,586.2z"
         style="fill: rgb(232, 187, 110);"
         id="path252" />
      <path
         class="st14"
         d="M576.8,643.5c2.1-2.2,17.6-14.9,17.6-14.9c8-6.9,30.9-25.6,62.2-41.5c-17.7-4-27.6-3.9-27.7-3.9
			c-0.5,0-0.9,0-1.4-0.1c0,0,0,0,0,0c0,0-21.1-1.9-34,8.3c-10.8,9.8-19.8,22.1-24.5,35.8c-2.5,7.3-2.5,12.8-0.1,16.7
			C571.3,645.4,575.4,645,576.8,643.5z"
         style="fill: rgb(232, 187, 110);"
         id="path254" />
      <path
         class="st14"
         d="M838.2,620c-3.8-11.2-14.5-24.9-24.8-33.4c-14.4-6.6-29.7-4-29.7-4c-0.1,0-10.7,2.8-27.2,7.6
			c32.2,21.6,50.9,47.9,54.1,52.7c0.4,0.5,0.7,1,1,1.6c9.5,12.9,16.9,8.4,18.6,7c2.5-2.1,4.8-4.3,6-7.8
			C838,638.6,839.8,625,838.2,620z"
         style="fill: rgb(232, 187, 110);"
         id="path256" />
      <path
         class="st14"
         d="M794.6,670.6c17.5-4.3-2.1-18.4-2.3-18.6c-28.3-19.7-56.2-35.6-83.2-47.4c-39.8,12.9-73.2,25.6-99.4,37.7
			c-13.5,9-4,18.3-4,18.3c4.7,3.5,8.4,5.3,15.7,4.3c-0.1-14.4,12.3-16.7,19.7-6.8c6,8,9.3,33.1,21.9,30.1c1.9-5.5,5.4-18,10.8-20.9
			c3.5-1.9,6.9-0.9,10.6-0.1c1.8,0.4,3.2,4.4,5.1,4.5c3.4,0.1,4.2-3.1,6.9-3.5c7.5-0.9,15.7,3.1,23.1,1.9c11-1.7,15-8.1,25.9,0.7
			c7.6,6.1,10.5,11.2,20.3,12.6c4,0.6,11.1,0.8,14.3-1.2c3.4-2.2,3.5-9.4,7-11.3C789.6,669.7,792.1,669.8,794.6,670.6L794.6,670.6z"
         style="fill: rgb(232, 187, 110);"
         id="path258" />
    </g>
    <path
       class="st15"
       d="M706.6,751.5c-124.6,0-148-53.2-148-71.3v9.4c0,18,23.4,71.3,148,71.3c127.7,0,147.6-53.2,147.6-71.3v-9.4
		C854.2,698.2,834.4,751.5,706.6,751.5z"
       style="fill: rgb(166, 98, 31);"
       id="path262" />
    <path
       class="st16"
       d="M709.5,594.9c26.1,11,57.7,27.9,93.8,53.7c0,0-24.9-38.1-69.6-61.3c28.1-8.5,47.7-13.6,47.7-13.6
		c-25.1-5.3-50-3-73.1,3.1c-22.9-7.2-49.5-9.7-79.5-2.8c0,0,19.7-0.5,54.6,11c-49.9,19.7-85.8,53-85.8,53
		C631.3,621.5,673.8,606.4,709.5,594.9z"
       style="fill: rgb(243, 196, 115);"
       id="path264" />
    <path
       class="st17"
       d="M687.6,602.1l-4.2-17.1c-49.9,19.7-85.8,53-85.8,53C624.6,624.8,657.3,612.4,687.6,602.1z"
       style="fill: rgb(239, 167, 107);"
       id="path266" />
    <path
       class="st17"
       d="M803.3,648.6c0,0-24.9-38.1-69.6-61.3l-4.3,16.6C751.1,614.6,776,629.1,803.3,648.6z"
       style="fill: rgb(239, 167, 107);"
       id="path268" />
    <path
       class="st11"
       d="M1291.1,259.7c11.4,34.1-66.2,76.9-168.3,111.1c-102.1,34.2-189.8,46.9-201.3,12.8
		c-11.4-34.1,67.8-72.2,169.9-106.4C1193.5,243,1279.7,225.6,1291.1,259.7z"
       style="fill: rgb(205, 121, 43);"
       id="path270" />
    <path
       class="st15"
       d="M1122.8,362.6c-102.1,34.2-189.8,46.9-201.3,12.8c-0.3-0.9-0.5-1.7-0.7-2.6c-0.7,3.7-0.5,7.3,0.7,10.9
		c11.4,34.1,99.2,21.4,201.3-12.8c99.3-33.3,175.6-74.7,169-108.4C1285.9,294.5,1214.1,332,1122.8,362.6z"
       style="fill: rgb(166, 98, 31);"
       id="path272" />
    <path
       class="st16"
       d="M982.5,326.7c0,0,30.3,0.6,49.4,35.7C1032,362.4,1031.2,309.5,982.5,326.7z"
       style="fill: rgb(243, 196, 115);"
       id="path274" />
    <path
       class="st16"
       d="M1200.5,251.4c0,0,30.3,0.6,49.4,35.7C1250,287.1,1249.2,234.2,1200.5,251.4z"
       style="fill: rgb(243, 196, 115);"
       id="path276" />
    <path
       class="st16"
       d="M1034.7,299.6c0,0,41.6,1.4,75.5,47.8C1110.2,347.4,1119.2,272.9,1034.7,299.6z"
       style="fill: rgb(243, 196, 115);"
       id="path278" />
    <path
       class="st16"
       d="M1107.6,273.3c0,0,41.6,1.4,75.5,47.8C1183.1,321.1,1192.1,246.6,1107.6,273.3z"
       style="fill: rgb(243, 196, 115);"
       id="path280" />
    <g
       class="st18"
       style="opacity: 0.5;"
       id="g300">
      <path
         class="st14"
         d="M1005.8,341.5c4.8,2.7,12.8,8.6,5.6,13.7c-4.9,3.5-11.3-1.9-15.8-3.5c-5.9-2.1-8.3-0.2-14.7,1.8
			c-3.3,1-4.5,0.9-7.6,2.5c-2.6,1.3-4.4,3.6-7,4.4c-4.2,1.4-14.4,1.7-17.7-1.3c-6.5-6.1,1.1-8.2,4.1-12.1c1.5-1.9,0.6-5.1,2.5-7
			c3.5-3.4,16.9-8,21.8-8.1C986.9,331.8,997.5,336.9,1005.8,341.5z"
         style="fill: rgb(232, 187, 110);"
         id="path282" />
      <path
         class="st14"
         d="M999.2,358.9c0.1,5-7.7,5.2-11.5,4.8c-2.4-0.2-8.5,0.7-10.1-1.5c-2-2.8,4.2-4.1,6.4-5.1
			C988.3,355.2,999.1,350.3,999.2,358.9z"
         style="fill: rgb(232, 187, 110);"
         id="path284" />
      <path
         class="st14"
         d="M1056.6,340.1c-4.3,2.6-10.3,10.5-16.2,9.2c-7.5-1.6-4.4-13.9-7.7-19.2c-3.5-5.4-11.2-7-16.6-9.6
			c-0.5-8.3,2.8-10.6,10.9-12.2c5.3-1.1,11.9-1.3,17.2-0.7c7.6,0.8,17.8,2.4,23.8,7.5C1077.1,322.8,1063.7,335.8,1056.6,340.1z"
         style="fill: rgb(232, 187, 110);"
         id="path286" />
      <path
         class="st14"
         d="M1068.8,337.3c2.3-2.8,3.6-8.5,6.9-10.4c5-2.8,11,0.6,13.3,4.9c3.4,6.3-1.6,10.3-6.9,13.1
			c-3.3,1.7-6.8,2.5-10.4,3.2c-2.7,0.5-7.2,2.8-9.8,2C1053,347.1,1066.9,339.6,1068.8,337.3z"
         style="fill: rgb(232, 187, 110);"
         id="path288" />
      <path
         class="st14"
         d="M1116.2,332.1c-1.8-4.3-1.9-9-3.9-13.1c-1.7-3.5-3.4-7.1-5.3-10.5c-4.2-7.5-8.7-10-15.7-13.9
			c-1.9-1.1-8.7-3.4-8.9-6.1c-0.3-3.3,6.3-4,8.7-4.2c7.8-0.4,15.6,4.4,22.9,6.9c3.3,1.1,6.4,2,9.7,3.3c3.7,1.4,6.2,4.1,9.5,6.4
			c3.6,2.6,8,4.6,12.1,6.3c3.5,1.4,7,1.2,10.4,2.4c2.4,0.8,6.3,3.3,5.9,6.4c-0.4,3.7-4.6,3.3-7.2,4.1c-5,1.6-9.2,6-13.2,9.3
			C1133.8,335.6,1121.9,345.8,1116.2,332.1z"
         style="fill: rgb(232, 187, 110);"
         id="path290" />
      <path
         class="st14"
         d="M1137.2,297c-3.6-1.6-7.2-2.8-10.6-4.6c-3.1-1.7-6.2-4-9.3-5.4c-2.7-1.2-6.3-1.7-9.2-2.2
			c-2.7-0.5-7.1-1.8-3.1-4.5c2.3-1.5,7.3-0.9,10-0.7c6.4,0.5,13,3.7,18.8,6.4c3.5,1.6,7.2,3.2,10.6,5c2.2,1.2,5.6,3.5,3.6,5.9
			C1145.8,299.2,1139.7,298.1,1137.2,297z"
         style="fill: rgb(232, 187, 110);"
         id="path292" />
      <path
         class="st14"
         d="M1186.7,288.7c1,4.8-0.5,12.6,3.2,16.4c1.9,1.9,4.9,2.5,7.1,0.8c2.3-1.8,2.3-5.5,2.5-8.4
			c0.2-3.6-0.1-7.8,0.4-11.4c0.4-3.1,2.1-5.7,2.6-8.9c0.9-5.8,2.6-13.3-2.9-17.2c-5.9-4.2-12.4-4.1-19.1-1.7
			c-3.8,1.3-6.4,2.2-10.6,2.2c-1.7,0-7.8-0.9-8.9,0.3c-3.5,4,8.7,8.7,11.1,10.3c3.4,2.4,7.2,3.2,9.9,6.7
			C1184.1,281.1,1185.9,285,1186.7,288.7z"
         style="fill: rgb(232, 187, 110);"
         id="path294" />
      <path
         class="st14"
         d="M1207.7,281.7c0.8-4-0.7-14.8,2.1-17.3c1.7-1.6,7.6-1.6,10-0.9c2.4,0.8,5.2,3,7,4.8
			c3.9,3.9,6.2,12.2,4.1,17.5c-2.7,6.8-11.6,13-19,12.7C1203.9,298.2,1206.6,286.9,1207.7,281.7z"
         style="fill: rgb(232, 187, 110);"
         id="path296" />
      <path
         class="st14"
         d="M1256.7,246.3c6.1,0.2,13.2,6,12.9,12.7c-0.2,3.3-2.1,4.9-4.5,6.5c-2.8,1.9-7.6,8.9-11.6,6.6
			c-2.8-1.6-4.1-9.4-5.7-12.3c-1.9-3.4-5.7-8-1.8-11.4C1248.6,246.2,1253.5,246.2,1256.7,246.3z"
         style="fill: rgb(232, 187, 110);"
         id="path298" />
    </g>
    <path
       class="st17"
       d="M1110.2,347.4c-17.7-54.2-75.5-47.8-75.5-47.8S1076.3,301,1110.2,347.4z"
       style="fill: rgb(239, 167, 107);"
       id="path302" />
    <path
       class="st17"
       d="M1182.7,320.5c-20.6-57.6-75-47.2-75-47.2S1148.8,274.7,1182.7,320.5z"
       style="fill: rgb(239, 167, 107);"
       id="path304" />
    <path
       class="st17"
       d="M1250,287.1c-14.4-46.9-49.4-35.7-49.4-35.7S1230.8,252,1250,287.1z"
       style="fill: rgb(239, 167, 107);"
       id="path306" />
    <path
       class="st17"
       d="M1032,362.4c-15.4-44.3-49.4-35.7-49.4-35.7S1012.8,327.3,1032,362.4z"
       style="fill: rgb(239, 167, 107);"
       id="path308" />
    <g
       id="g348">
      <path
         class="st2"
         d="M1303.9,636.6c0.2,14.9-7.7,30.8-29,46.2c-45.7,33.2-75.6-11.6-148.3-11.6c-33.4,0-125.4,37.2-147.9,12.2
			c-6.8-7.5-9.8-14.1-8.7-21.1l-0.2,35.7c0.4,5.6,3.4,11,8.9,17.1c22.6,25,114.5-12.2,147.9-12.2c72.7,0,102.5,44.7,148.3,11.6
			c19.3-14,27.6-28.3,28.8-42L1303.9,636.6z"
         style="fill: rgb(204, 147, 130);"
         id="path310" />
      <g
         id="g316">
        <path
           class="st1"
           d="M969.9,662.9c-0.2,1.5-0.2,3,0,4.5L969.9,662.9z"
           style="fill: rgb(192, 119, 114);"
           id="path312" />
        <path
           class="st1"
           d="M1303.7,665.3c-1.3,13.7-9.5,28-28.8,42c-45.7,33.2-75.6-11.6-148.3-11.6c-33.4,0-125.4,37.2-147.9,12.2
				c-5.4-6-8.4-11.4-8.9-16.8l0,7.1c0.4,5.6,3.4,11,8.9,17.1c22.6,25,114.5-12.2,147.9-12.2c72.7,0,102.5,44.7,148.3,11.6
				c19.3-14,27.6-28.3,28.8-42l0.2-36c0,0.7,0,1.3,0,2L1303.7,665.3z"
           style="fill: rgb(192, 119, 114);"
           id="path314" />
      </g>
      <path
         class="st2"
         d="M1134.2,547.8c45.6-10.9,87.4,2.6,111.3,16.5c27.5,16,97.8,69,29.4,118.6c-45.7,33.2-75.6-11.6-148.3-11.6
			c-33.4,0-125.4,37.2-147.9,12.2c-21.9-24.3-4.5-39,63.4-87.5C1090.9,561,1109,553.8,1134.2,547.8z"
         style="fill: rgb(204, 147, 130);"
         id="path318" />
      <linearGradient
         id="SVGID_7_"
         gradientUnits="userSpaceOnUse"
         x1="872.6598"
         y1="508.1875"
         x2="1173.241"
         y2="654.2249">
        <stop
           offset="0"
           style="stop-color:#FFFFFF"
           id="stop320" />
        <stop
           offset="1"
           style="stop-color:#FFFFFF;stop-opacity:0"
           id="stop322" />
      </linearGradient>
      <path
         class="st19"
         d="M1134.2,547.8c45.6-10.9,87.4,2.6,111.3,16.5c27.5,16,97.8,69,29.4,118.6c-45.7,33.2-75.6-11.6-148.3-11.6
			c-33.4,0-125.4,37.2-147.9,12.2c-21.9-24.3-4.5-39,63.4-87.5C1090.9,561,1109,553.8,1134.2,547.8z"
         style="fill: url('#SVGID_7_');"
         id="path325" />
      <path
         class="st20"
         d="M1134.5,555c41-9.8,78.7,2.3,100.2,14.8c24.8,14.4,88,62.1,26.5,106.7c-41.2,29.8-68.1-10.4-133.5-10.4
			c-30.1,0-112.8,33.5-133.1,11c-19.7-21.8-4-35.1,57.1-78.8C1095.5,566.9,1111.7,560.4,1134.5,555z"
         style="fill: rgb(204, 48, 62);"
         id="path327" />
      <path
         class="st21"
         d="M1283.2,621.9c-8.7-28.9-41.1-46.9-66.5-58.6c-63.3-29.3-124.9,3.6-174.4,43.9c-5.8,1.9-11,6.2-16,10.8
			c-10.9,3.7-20,11.6-25.7,21.6c-0.8,0.9-1.5,1.8-2.1,2.7c-8.2,5.7-13.8,18.6-9.4,27c2.6,5,7.4,8.6,12.6,10.6
			c4.5,1.7,12.1,4.9,17,2.8c6.1,0.5,12.3,0.2,17.1-0.4c13.8-1.7,27.4-5.8,40.9-8.8c20.3-4.5,40.9-6.1,61.6-6.6
			c21.1-0.6,40.4,3.2,60,10.9c17.1,6.7,32.4,10.1,50.2,3.8C1272.9,673,1291,647.7,1283.2,621.9z M994.5,667.1
			c-2.5-3.6-1.7-8,0.5-12.3c-0.5,2.5-0.8,5-0.9,7.5C994,664,994.2,665.6,994.5,667.1z M1273.6,644.4c-4,14.4-19.4,24.4-32.6,29.1
			c-14.7,5.2-30.7-1.2-44.5-6.3c-12.7-4.7-25.2-7.4-38.7-8.6c-27.4-2.4-56.5,1.4-83.3,7.3c-19.7,4.4-41.2,13-61.7,8.7
			c-14.1-3-12.3-16.8-8-27.3c3.4-5.2,9-8.4,14-11.8c2.1-1.4,4.3-2.8,6.6-4.1c1.1,0.4,2.4,0.3,3.6-0.5c24.3-15.8,45.1-36.1,70.7-50.4
			c27.7-15.4,59.7-21.8,90.8-14.8c13.5,3,27.3,8.6,40,16c-2.4-0.1-4.6,3.1-2.6,5.6c9.5,11.4,18.1,23.5,23.5,37.5
			c8.6,22.7-7.9,38.5-31,34.3c-16-2.9-30.5-11.2-46.6-14.3c-16.6-3.3-33.7-2.2-50.3,0.5c-19.9,3.3-39.1,10.2-59.1,12.8
			c-10.3,1.4-21.9,1.6-31.5-2.8c-13.8-6.4,17.2-24.8,20.8-27c15.2-9.3,28-22,42.5-32.2c15.6-10.9,38.4-19.4,57.9-22.1
			c4.9-0.5,9.8-0.8,14.7-0.5c8.3,0.5,16.3,1.5,24.6,1.1c11.8-0.5,20.1,3.8,30.2,9.3c1.2,0.6,2.6-1,1.5-1.9
			c-15-11.7-28.4-9.9-46.4-10.9c-6.8-0.4-13-0.2-19.1,0.3c-0.2-0.6-0.8-1.2-1.8-1c-22.7,3.5-48.4,12.7-67.7,25.2
			c-11.3,7.3-21.5,16.2-32.3,24.2c-7.8,5.7-17.1,9.2-24.4,15.6c-9.7,8.5-14.2,19.1-0.2,25.5c19.2,8.7,47.9-0.3,67.1-4.8
			c29.4-7,56.9-10.6,86.5-2.1c17.1,4.9,39.9,19.9,58,9.8c35.6-19.8,6-59.8-12.2-81c10.3,6.2,19.7,13.5,27.6,21.5
			C1270.9,615,1277.8,629.4,1273.6,644.4z M1205.8,578.1c-19-5.8-50,3.3-51.4,26.4c0,0.2,0.1,0.4,0.1,0.5c-6.5-1.6-15.2,0.6-21,2.1
			c-2,0.5-1.1,3.4,0.8,3c7.7-1.6,14.8-1.6,22.5-1c0.2,0,0.4,0,0.6-0.1c1.4,4.2,4.6,8,8.5,11c-2.1-1.1-4.2-2.1-6.4-2.9
			c-9.3-3.3-18.1-3.7-27.8-1.9c-5.2,1-10.4,1.8-15.7,2c-5.6,0.3-7.6-5.4-1.6-7.6c2.5-0.9,5.1-1.4,7.7-1.9c11-2.2,20.9-7.3,31.9-9.1
			c1.1-0.2,1-1.8,0-2.1c-7.7-2-15,1.9-22.3,4.4c-6.8,2.4-14.1,2.4-21,4.9c-7,2.6-10.7,10.9-2.7,14.9c11.7,5.9,30.4-3.5,43.2-1.3
			c19.9,3.4,34.1,24.6,55,11.2c1-0.6,0.9-1.9,0.2-2.5c5.3-1.4,10.4-3.8,15-7.6c1.8-1.5,3.3-2.9,4.5-4.4c5.2,7.7,12.2,19.5-3.9,25.6
			c-6.1,2.3-14,1.2-20.2,0.4c-13.2-1.9-25.8-6.8-38.5-10.6c-24.9-7.4-46.3-3-70.6,4.3c-9.4,2.8-21.3,7.7-31.3,6.1
			c-8.7-1.4,9.8-18,10.6-18.6c4.9-3.7,10.4-6.5,15.8-9.4c23.9-12.6,46.5-24,73-30.3c2.2-0.5,1.2-3.6-0.9-3.3
			c-18.6,2.9-36.1,9.2-52.6,18.1c-13.5,7.3-28,13.8-40.3,23.2c-4.6,3.5-14.7,13.1-11.7,20.1c3.2,7.3,13.7,4.7,19.7,3.3
			c21.7-5.1,42.8-14.8,65.5-13.6c20.6,1.1,39.9,11.8,60,15.7c11.8,2.3,23.9,2.1,33.4-5.8c10.3-8.5,1.5-22.2-4.8-29.9
			C1235.6,597.2,1221.4,582.9,1205.8,578.1z M1177.1,626.1c5.8,2.2,11.9,3.4,17.9,3.5C1188.9,630.1,1183.5,629.2,1177.1,626.1z
			 M1208.4,621.4c-8.4,2.8-18.7,0.7-26.9-1.5c-11.2-3-18.6-8.4-17.7-19.3c1.7-2.7,3.3-5.4,5.4-8c5.4-6.3,18.7-7.5,26.2-8.2
			c7.2-0.7,14.9,2.9,21.1,5.9C1233,598.1,1219.6,617.7,1208.4,621.4z"
         style="fill: rgb(185, 40, 56);"
         id="path329" />
      <linearGradient
         id="SVGID_8_"
         gradientUnits="userSpaceOnUse"
         x1="1096.4666"
         y1="454.3625"
         x2="1151.3593"
         y2="711.5353">
        <stop
           offset="0"
           style="stop-color:#FFFFFF"
           id="stop331" />
        <stop
           offset="0.7052"
           style="stop-color:#FFFFFF;stop-opacity:0.1039"
           id="stop333" />
        <stop
           offset="1"
           style="stop-color:#FFFFFF;stop-opacity:0"
           id="stop335" />
      </linearGradient>
      <path
         class="st22"
         d="M1134.8,563.1c35.9-8.6,68.8,2,87.6,13c21.6,12.6,76.9,54.3,23.1,93.3c-36,26.1-59.5-9.1-116.7-9.1
			c-26.3,0-98.7,29.3-116.4,9.6c-17.3-19.1-3.5-30.7,49.9-68.9C1100.7,573.5,1114.9,567.8,1134.8,563.1z"
         style="opacity: 0.6; fill: url('#SVGID_8_');"
         id="path338" />
      <path
         class="st1"
         d="M1229.7,688.9c-11.9,0-23.6-4-37.2-8.6c-17.8-6-38-12.9-64.9-12.9c-10,0-26.4,3.9-43.8,8
			c-21.4,5.1-45.6,10.8-64,10.8c-12.7,0-21.3-2.7-26.3-8.2c-6.3-7-9-13.1-8.3-19.3c1.6-14.4,20.2-29.1,65.6-61.6
			c42.7-30.5,59.6-37.9,83.4-43.6c10-2.4,20.4-3.6,30.9-3.6c34.5,0,60.6,13,70.3,18.6c8.6,5,51.5,31.6,53.2,64.8
			c0.8,16-8.2,30.8-26.6,44.2C1251.3,685.3,1241.1,688.9,1229.7,688.9C1229.7,688.9,1229.7,688.9,1229.7,688.9z M1127.6,664.7
			c27.4,0,47.8,6.9,65.8,13c13.3,4.5,24.8,8.4,36.3,8.4c10.7,0,20.4-3.4,30.5-10.8c17.7-12.8,26.3-26.9,25.5-41.9
			c-1.6-31.8-43.5-57.7-51.8-62.5c-9.4-5.5-35-18.2-68.9-18.2c-10.2,0-20.4,1.2-30.3,3.6c-23.5,5.6-40.1,12.9-82.5,43.1
			c-43.7,31.3-63,46.4-64.4,59.6c-0.6,5.4,1.8,10.7,7.6,17.1c4.4,4.9,12.4,7.3,24.3,7.3c18.1,0,42.2-5.7,63.4-10.7
			C1100.7,668.6,1117.3,664.7,1127.6,664.7z"
         style="fill: rgb(192, 119, 114);"
         id="path340" />
      <path
         d="M 1222.700001 602.900024 A 29.700001 17.799999 0 0 1 1193 620.700024 A 29.700001 17.799999 0 0 1 1163.299999 602.900024 A 29.700001 17.799999 0 0 1 1193 585.100025 A 29.700001 17.799999 0 0 1 1222.700001 602.900024 Z"
         transform="matrix(0.996 -8.893716e-02 8.893716e-02 0.996 -48.897 108.4894)"
         class="st23"
         style="fill: rgb(255, 223, 208);"
         id="path342" />
      <path
         class="st2"
         d="M1210.1,588.4c-10.5-3.8-24.3-3.6-34,2.6c-11.4,0.5-14.3,18.7-5.3,24.8c12,8.2,31.4,6.6,43.4-0.7
			C1226.3,607.7,1222.1,592.7,1210.1,588.4z M1214.7,606.4c-3.8,7.4-16.7,7.6-23.7,8.1c-5.3,0.4-10.6,0.1-15.5-2.2
			c-3.3-1.5-4.7-3.7-4.8-6.1c0.5,0,1.1-0.2,1.7-0.7c7-5.3,11.2-10.8,20.5-11.9C1200.4,592.8,1221.6,592.7,1214.7,606.4z"
         style="fill: rgb(204, 147, 130);"
         id="path344" />
      <path
         class="st15"
         d="M1190.1,622.3c-15.5,0-27.3-7-28.1-16.6c-0.5-5.2,2.4-10.4,8.1-14.6c5.5-4,13-6.6,21.2-7.3
			c1.5-0.1,3-0.2,4.5-0.2c15.4,0,27.3,7,28.1,16.6c0.5,5.2-2.4,10.4-8.1,14.6c-5.5,4-13,6.6-21.2,7.3
			C1193.2,622.2,1191.6,622.3,1190.1,622.3z M1195.8,586.4c-1.4,0-2.9,0.1-4.3,0.2c-7.7,0.7-14.7,3.1-19.8,6.8
			c-4.9,3.6-7.4,7.9-7,12.1c0.7,8,11.6,14.1,25.4,14.1c1.4,0,2.9-0.1,4.3-0.2c7.7-0.7,14.7-3.1,19.8-6.8c4.9-3.6,7.4-7.9,7-12.1
			C1220.5,592.4,1209.6,586.4,1195.8,586.4z"
         style="fill: rgb(166, 98, 31);"
         id="path346" />
    </g>
    <g
       id="g376">
      <path
         class="st24"
         d="M271.2,551.1c0,0-42.5-4.1-63.3,9.2c-20.8,13.3-34,9.8-45.8,21.8c-11.8,12-7.8,23.4-29.9,37
			c-22.1,13.6-37.9,23.4-35.8,42c2,18.6,8.8,36.2,20.8,43.4c12,7.2,48.6,14.1,71.4,10.5c22.8-3.6,40.4,2.7,74.4,7.2
			c34,4.5,83.8-4.3,105.4-15.6c21.6-11.3,29.5-17.1,52.1-37.9c22.6-20.8,23.2-29.7,21.1-48.9c-2-19.2-7.8-43.8-27.1-45.7
			c-19.3-1.9-33.6-9.9-52.8-16.9c-19.1-7-52-11.7-60.8-9.1C292,550.6,271.2,551.1,271.2,551.1z"
         style="fill: rgb(255, 255, 255);"
         id="path350" />
      <path
         class="st25"
         d="M414.5,574c-19.3-1.9-33.6-9.9-52.8-16.9c-11.7-4.3-28.7-7.7-42.1-9.1c-0.5,0.4-1,0.8-1.3,1.2
			c-5.3,6.7,26.8,6.2,38.1,10.7c11.3,4.5,19.2,8.1,23.4,13.3c4.3,5.3,42.3,6.9,39.5,17.4c-2.7,10.5,2.8,18.7,3.3,31.9
			c0.5,13.3-4.4,18.9-24.7,33.4c-20.3,14.5-29.1,13.7-46.4,27.1c-17.3,13.4-53.1,12.4-82.5,8.1c-29.3-4.2-54,5.5-71.5-2.8
			c-17.5-8.3-27.3-3.4-34-9.1c-6.8-5.7-11.6-10.5-5.1-20.5c6.5-10-0.5-15.5-1.9-25.3c-1.4-9.8,8.7-13.7,27.8-24.8
			c19.1-11.1,13.5-18.5,19.7-33.5c6.2-15,45.2-20.6,50.1-23c1.3-0.6,2.3-1.2,3.2-1.7c-14.3-0.1-36.2,1.3-49.4,9.8
			c-20.8,13.3-34,9.8-45.8,21.8c-11.8,12-7.8,23.4-29.9,37c-22.1,13.6-37.9,23.4-35.8,42c2,18.6,8.8,36.2,20.8,43.4
			c12,7.2,48.6,14.1,71.4,10.5c22.8-3.6,40.4,2.7,74.4,7.2c34,4.5,83.8-4.3,105.4-15.6c21.6-11.3,29.5-17.1,52.1-37.9
			c22.6-20.8,23.2-29.7,21.1-48.9C439.5,600.5,433.8,575.9,414.5,574z"
         style="opacity: 0.4; fill: rgb(255, 211, 155);"
         id="path352" />
      <path
         class="st25"
         d="M426.1,660c-22.6,20.8-30.4,26.6-52.1,37.9c-21.6,11.3-71.4,20.1-105.4,15.6c-34-4.5-51.6-10.7-74.4-7.2
			c-22.8,3.6-59.4-3.3-71.4-10.5c-12-7.2-18.8-24.8-20.8-43.4c-0.5-4.8,0.1-9,1.8-12.8c-5.5,6.1-8.4,12.8-7.5,21.4
			c2,18.6,8.8,36.2,20.8,43.4c12,7.2,48.6,14.1,71.4,10.5c22.8-3.6,40.4,2.7,74.4,7.2c34,4.5,83.8-4.3,105.4-15.6
			c21.6-11.3,29.5-17.1,52.1-37.9c9.6-8.8,15.2-15.4,18.3-21.7C435.5,650.9,431.4,655.1,426.1,660z"
         style="opacity: 0.4; fill: rgb(255, 211, 155);"
         id="path354" />
      <linearGradient
         id="SVGID_9_"
         gradientUnits="userSpaceOnUse"
         x1="1091.5388"
         y1="1202.0134"
         x2="1150.4507"
         y2="1447.1935"
         gradientTransform="matrix(-1.6397 0.208 -0.1034 -0.5968 2224.5051 1165.6469)">
        <stop
           offset="0.1024"
           style="stop-color:#FFFFFF"
           id="stop356" />
        <stop
           offset="1"
           style="stop-color:#FFFFFF;stop-opacity:0"
           id="stop358" />
      </linearGradient>
      <path
         class="st26"
         d="M244.9,559.2c-5.3,2.6-47.7,8.7-54.4,25c-6.7,16.2-0.7,24.3-21.4,36.4c-20.7,12.1-31.7,16.2-30.2,26.9
			c1.5,10.7,9.2,16.6,2.1,27.5c-7.1,10.9-1.8,16.1,5.6,22.3c7.4,6.2,18,0.8,37,9.8c19,9.1,45.9-1.5,77.7,3.1
			c31.9,4.6,70.9,5.8,89.6-8.8c18.8-14.6,28.4-13.7,50.4-29.4c22.1-15.8,27.4-21.9,26.9-36.3c-0.5-14.4-6.5-23.3-3.6-34.7
			c3-11.4-38.4-13.2-43-18.9c-4.6-5.7-13.2-9.6-25.5-14.5c-12.3-4.9-47.2-4.3-41.4-11.6c0.4-0.5,0.9-0.9,1.4-1.3
			c-9.1-1-16.7-1.1-20.4,0c-9.6,2.8-32.3,3.4-32.3,3.4s-6.2-0.6-15.1-0.6C247.4,557.9,246.3,558.5,244.9,559.2z"
         style="opacity: 0.4; fill: url('#SVGID_9_');"
         id="path361" />
      <g
         id="g374">
        <path
           class="st6"
           d="M348.2,588.3c0,20.7-33.7,32.2-65.4,32.2c-31.8,0-49.6-11.4-49.6-32.2c0-20.7,25.8-37.6,57.5-37.6
				C322.4,550.8,348.2,567.6,348.2,588.3z"
           style="fill: rgb(250, 175, 64);"
           id="path363" />
        <path
           class="st27"
           d="M286.6,612.4c-31.1,0-49.9-10.2-53-28.8c-0.3,1.6-0.5,3.1-0.5,4.7c0,20.7,17.9,32.2,49.6,32.2
				c27.1,0,55.5-8.3,63.3-23.6C332.8,607,309.2,612.4,286.6,612.4z"
           style="opacity: 0.4; fill: rgb(250, 175, 64);"
           id="path365" />
        <linearGradient
           id="SVGID_10_"
           gradientUnits="userSpaceOnUse"
           x1="257.3805"
           y1="448.9391"
           x2="301.8166"
           y2="448.9391"
           gradientTransform="matrix(0.9901 -0.1406 0.1406 0.9901 -63.8066 164.3541)">
          <stop
             offset="0"
             style="stop-color:#FFFFFF"
             id="stop367" />
          <stop
             offset="1"
             style="stop-color:#FFFFFF;stop-opacity:0"
             id="stop369" />
        </linearGradient>
        <path
           class="st28"
           d="M298.3,568.1c0.2,7.5-9.5,14.3-21.8,15.1c-12.3,0.8-22.4-4.6-22.6-12.2c-0.2-7.5,9.5-14.3,21.8-15.1
				C288,555.1,298.1,560.5,298.3,568.1z"
           style="opacity: 0.4; fill: url('#SVGID_10_');"
           id="path372" />
      </g>
    </g>
    <path
       class="st9"
       d="M171.3,302.6c43.3,57.7,148.8,28.4,148.8,28.4S220.7,348.5,171.3,302.6z"
       style="fill: rgb(255, 203, 3);"
       id="path378" />
  </g>
</svg>
