<?xml version="1.0" standalone="no"?><!DOCTYPE svg PUBLIC "-//W3C//DTD SVG 1.1//EN" "http://www.w3.org/Graphics/SVG/1.1/DTD/svg11.dtd">
<svg preserveAspectRatio="xMinYMin meet" width="100%" height="100%" viewBox="0 0 660.000 520.000"   version="1.1" xmlns="http://www.w3.org/2000/svg" xmlns:xlink="http://www.w3.org/1999/xlink">
  <desc>Matlab Figure Converted by PLOT2SVG written by Juerg Schwizer</desc>
  <rect x="0" y="0" width="660.000" height="520.000" fill="#ffffff" stroke="none" />
  <g>
  <clipPath id="ID000000">
    <rect x="85.800" y="39.000" width="511.500" height="423.800"/>
  </clipPath>
      <polyline fill="#ffffff" fill-opacity="1.00" stroke="none" stroke-width="0.5pt" stroke-opacity="1.00" stroke-dasharray="none" points="85.800,462.800 597.300,462.800 597.300,39.000 85.800,39.000 "/>
      <polyline fill="#ffffff" fill-opacity="1.00" stroke="none" stroke-width="0.5pt" stroke-opacity="1.00" stroke-dasharray="none" points="85.800,39.000 597.300,39.000 597.300,39.000 85.800,39.000 "/>
      <polyline fill="#ffffff" fill-opacity="1.00" stroke="none" stroke-width="0.5pt" stroke-opacity="1.00" stroke-dasharray="none" points="85.800,462.800 85.800,462.800 85.800,39.000 85.800,39.000 "/>
    <g>
<g clip-path="url(#ID000000)">
      <polyline fill="none" stroke="#ff0000" stroke-width="0.5pt" stroke-dasharray="none" points="85.800,462.800 98.588,456.068 111.375,440.490 124.163,418.587 136.950,392.105 149.737,362.571 162.525,331.345 175.313,299.618 188.100,268.392 200.887,238.471 213.675,210.464 226.463,184.789 239.250,161.698 252.038,141.294 264.825,123.559 277.613,108.383 290.400,95.588 303.188,84.954 315.975,76.234 328.763,69.179 341.550,63.544 354.337,59.098 367.125,55.632 379.913,52.963 392.700,50.931 405.488,49.401 418.275,48.263 431.063,47.424 443.850,46.814 456.637,46.374 469.425,46.060 482.213,45.838 495.000,45.684 507.788,45.576 520.575,45.503 533.362,45.453 546.150,45.420 558.938,45.398 571.725,45.383 584.513,45.374 597.300,45.368 "/>
<g>
</g>
</g>
<g clip-path="url(#ID000000)">
<g>
<circle cx="188.100" cy="250.900" r="3.000" fill="none" stroke="#0000ff" stroke-width="0.5pt" />
<circle cx="223.010" cy="200.044" r="3.000" fill="none" stroke="#0000ff" stroke-width="0.5pt" />
<circle cx="262.523" cy="140.712" r="3.000" fill="none" stroke="#0000ff" stroke-width="0.5pt" />
<circle cx="313.673" cy="98.332" r="3.000" fill="none" stroke="#0000ff" stroke-width="0.5pt" />
<circle cx="339.248" cy="39.000" r="3.000" fill="none" stroke="#0000ff" stroke-width="0.5pt" />
<circle cx="532.212" cy="47.476" r="3.000" fill="none" stroke="#0000ff" stroke-width="0.5pt" />
</g>
</g>
  <g transform="translate(340.281,489.577)">
    <g transform="rotate(-0.0)">
      <text x="0.000" y="0.000" font-family="Helvetica" text-anchor="middle" font-size="10.0pt" fill="#000000" >Intensity</text>
    </g>
  </g>
  <g transform="translate(58.512,251.630)">
    <g transform="rotate(-90.0)">
      <text x="0.000" y="0.000" font-family="Helvetica" text-anchor="middle" font-size="10.0pt" fill="#000000" >P(Correct)</text>
    </g>
  </g>
  <g transform="translate(341.550,34.645)">
    <g transform="rotate(-0.0)">
      <text x="0.000" y="0.000" font-family="Helvetica" text-anchor="middle" font-size="10.0pt" fill="#000000" >Wiebull Fit w/ 0 Lower Bound</text>
    </g>
  </g>
  <g transform="translate(469.425,253.900)">
    <g transform="rotate(-0.0)">
      <text x="0.000" y="0.000" font-family="Helvetica" text-anchor="start" font-size="10.0pt" fill="#000000" >lnL = -56.2193</text>
    </g>
  </g>
    </g>
    <g>
      <polyline fill="none" stroke="#000000" stroke-width="0.5pt" stroke-dasharray="none" points="149.738,462.800 149.738,457.685 "/>
      <polyline fill="none" stroke="#000000" stroke-width="0.5pt" stroke-dasharray="none" points="213.675,462.800 213.675,457.685 "/>
      <polyline fill="none" stroke="#000000" stroke-width="0.5pt" stroke-dasharray="none" points="277.613,462.800 277.613,457.685 "/>
      <polyline fill="none" stroke="#000000" stroke-width="0.5pt" stroke-dasharray="none" points="341.550,462.800 341.550,457.685 "/>
      <polyline fill="none" stroke="#000000" stroke-width="0.5pt" stroke-dasharray="none" points="405.488,462.800 405.488,457.685 "/>
      <polyline fill="none" stroke="#000000" stroke-width="0.5pt" stroke-dasharray="none" points="469.425,462.800 469.425,457.685 "/>
      <polyline fill="none" stroke="#000000" stroke-width="0.5pt" stroke-dasharray="none" points="533.363,462.800 533.363,457.685 "/>
      <polyline fill="none" stroke="#000000" stroke-width="0.5pt" stroke-dasharray="none" points="85.800,462.800 597.300,462.800 "/>
      <polyline fill="none" stroke="#000000" stroke-width="0.5pt" stroke-dasharray="none" points="149.738,39.000 149.738,44.115 "/>
      <polyline fill="none" stroke="#000000" stroke-width="0.5pt" stroke-dasharray="none" points="213.675,39.000 213.675,44.115 "/>
      <polyline fill="none" stroke="#000000" stroke-width="0.5pt" stroke-dasharray="none" points="277.613,39.000 277.613,44.115 "/>
      <polyline fill="none" stroke="#000000" stroke-width="0.5pt" stroke-dasharray="none" points="341.550,39.000 341.550,44.115 "/>
      <polyline fill="none" stroke="#000000" stroke-width="0.5pt" stroke-dasharray="none" points="405.488,39.000 405.488,44.115 "/>
      <polyline fill="none" stroke="#000000" stroke-width="0.5pt" stroke-dasharray="none" points="469.425,39.000 469.425,44.115 "/>
      <polyline fill="none" stroke="#000000" stroke-width="0.5pt" stroke-dasharray="none" points="533.363,39.000 533.363,44.115 "/>
      <polyline fill="none" stroke="#000000" stroke-width="0.5pt" stroke-dasharray="none" points="85.800,39.000 597.300,39.000 "/>
  <g transform="translate(85.800,479.276)">
    <g transform="rotate(-0.0)">
      <text x="0.000" y="0.000" font-family="Helvetica" text-anchor="middle" font-size="10.0pt" fill="#000000" >0</text>
    </g>
  </g>
  <g transform="translate(149.738,479.276)">
    <g transform="rotate(-0.0)">
      <text x="0.000" y="0.000" font-family="Helvetica" text-anchor="middle" font-size="10.0pt" fill="#000000" >0.5</text>
    </g>
  </g>
  <g transform="translate(213.675,479.276)">
    <g transform="rotate(-0.0)">
      <text x="0.000" y="0.000" font-family="Helvetica" text-anchor="middle" font-size="10.0pt" fill="#000000" >1</text>
    </g>
  </g>
  <g transform="translate(277.613,479.276)">
    <g transform="rotate(-0.0)">
      <text x="0.000" y="0.000" font-family="Helvetica" text-anchor="middle" font-size="10.0pt" fill="#000000" >1.5</text>
    </g>
  </g>
  <g transform="translate(341.550,479.276)">
    <g transform="rotate(-0.0)">
      <text x="0.000" y="0.000" font-family="Helvetica" text-anchor="middle" font-size="10.0pt" fill="#000000" >2</text>
    </g>
  </g>
  <g transform="translate(405.488,479.276)">
    <g transform="rotate(-0.0)">
      <text x="0.000" y="0.000" font-family="Helvetica" text-anchor="middle" font-size="10.0pt" fill="#000000" >2.5</text>
    </g>
  </g>
  <g transform="translate(469.425,479.276)">
    <g transform="rotate(-0.0)">
      <text x="0.000" y="0.000" font-family="Helvetica" text-anchor="middle" font-size="10.0pt" fill="#000000" >3</text>
    </g>
  </g>
  <g transform="translate(533.363,479.276)">
    <g transform="rotate(-0.0)">
      <text x="0.000" y="0.000" font-family="Helvetica" text-anchor="middle" font-size="10.0pt" fill="#000000" >3.5</text>
    </g>
  </g>
  <g transform="translate(597.300,479.276)">
    <g transform="rotate(-0.0)">
      <text x="0.000" y="0.000" font-family="Helvetica" text-anchor="middle" font-size="10.0pt" fill="#000000" >4</text>
    </g>
  </g>
      <polyline fill="none" stroke="#000000" stroke-width="0.5pt" stroke-dasharray="none" points="85.800,420.420 90.915,420.420 "/>
      <polyline fill="none" stroke="#000000" stroke-width="0.5pt" stroke-dasharray="none" points="85.800,378.040 90.915,378.040 "/>
      <polyline fill="none" stroke="#000000" stroke-width="0.5pt" stroke-dasharray="none" points="85.800,335.660 90.915,335.660 "/>
      <polyline fill="none" stroke="#000000" stroke-width="0.5pt" stroke-dasharray="none" points="85.800,293.280 90.915,293.280 "/>
      <polyline fill="none" stroke="#000000" stroke-width="0.5pt" stroke-dasharray="none" points="85.800,250.900 90.915,250.900 "/>
      <polyline fill="none" stroke="#000000" stroke-width="0.5pt" stroke-dasharray="none" points="85.800,208.520 90.915,208.520 "/>
      <polyline fill="none" stroke="#000000" stroke-width="0.5pt" stroke-dasharray="none" points="85.800,166.140 90.915,166.140 "/>
      <polyline fill="none" stroke="#000000" stroke-width="0.5pt" stroke-dasharray="none" points="85.800,123.760 90.915,123.760 "/>
      <polyline fill="none" stroke="#000000" stroke-width="0.5pt" stroke-dasharray="none" points="85.800,81.380 90.915,81.380 "/>
      <polyline fill="none" stroke="#000000" stroke-width="0.5pt" stroke-dasharray="none" points="85.800,462.800 85.800,39.000 "/>
      <polyline fill="none" stroke="#000000" stroke-width="0.5pt" stroke-dasharray="none" points="597.300,420.420 592.185,420.420 "/>
      <polyline fill="none" stroke="#000000" stroke-width="0.5pt" stroke-dasharray="none" points="597.300,378.040 592.185,378.040 "/>
      <polyline fill="none" stroke="#000000" stroke-width="0.5pt" stroke-dasharray="none" points="597.300,335.660 592.185,335.660 "/>
      <polyline fill="none" stroke="#000000" stroke-width="0.5pt" stroke-dasharray="none" points="597.300,293.280 592.185,293.280 "/>
      <polyline fill="none" stroke="#000000" stroke-width="0.5pt" stroke-dasharray="none" points="597.300,250.900 592.185,250.900 "/>
      <polyline fill="none" stroke="#000000" stroke-width="0.5pt" stroke-dasharray="none" points="597.300,208.520 592.185,208.520 "/>
      <polyline fill="none" stroke="#000000" stroke-width="0.5pt" stroke-dasharray="none" points="597.300,166.140 592.185,166.140 "/>
      <polyline fill="none" stroke="#000000" stroke-width="0.5pt" stroke-dasharray="none" points="597.300,123.760 592.185,123.760 "/>
      <polyline fill="none" stroke="#000000" stroke-width="0.5pt" stroke-dasharray="none" points="597.300,81.380 592.185,81.380 "/>
      <polyline fill="none" stroke="#000000" stroke-width="0.5pt" stroke-dasharray="none" points="597.300,462.800 597.300,39.000 "/>
  <g transform="translate(75.570,465.800)">
    <g transform="rotate(-0.0)">
      <text x="0.000" y="0.000" font-family="Helvetica" text-anchor="end" font-size="10.0pt" fill="#000000" >0</text>
    </g>
  </g>
  <g transform="translate(75.570,423.420)">
    <g transform="rotate(-0.0)">
      <text x="0.000" y="0.000" font-family="Helvetica" text-anchor="end" font-size="10.0pt" fill="#000000" >0.1</text>
    </g>
  </g>
  <g transform="translate(75.570,381.040)">
    <g transform="rotate(-0.0)">
      <text x="0.000" y="0.000" font-family="Helvetica" text-anchor="end" font-size="10.0pt" fill="#000000" >0.2</text>
    </g>
  </g>
  <g transform="translate(75.570,338.660)">
    <g transform="rotate(-0.0)">
      <text x="0.000" y="0.000" font-family="Helvetica" text-anchor="end" font-size="10.0pt" fill="#000000" >0.3</text>
    </g>
  </g>
  <g transform="translate(75.570,296.280)">
    <g transform="rotate(-0.0)">
      <text x="0.000" y="0.000" font-family="Helvetica" text-anchor="end" font-size="10.0pt" fill="#000000" >0.4</text>
    </g>
  </g>
  <g transform="translate(75.570,253.900)">
    <g transform="rotate(-0.0)">
      <text x="0.000" y="0.000" font-family="Helvetica" text-anchor="end" font-size="10.0pt" fill="#000000" >0.5</text>
    </g>
  </g>
  <g transform="translate(75.570,211.520)">
    <g transform="rotate(-0.0)">
      <text x="0.000" y="0.000" font-family="Helvetica" text-anchor="end" font-size="10.0pt" fill="#000000" >0.6</text>
    </g>
  </g>
  <g transform="translate(75.570,169.140)">
    <g transform="rotate(-0.0)">
      <text x="0.000" y="0.000" font-family="Helvetica" text-anchor="end" font-size="10.0pt" fill="#000000" >0.7</text>
    </g>
  </g>
  <g transform="translate(75.570,126.760)">
    <g transform="rotate(-0.0)">
      <text x="0.000" y="0.000" font-family="Helvetica" text-anchor="end" font-size="10.0pt" fill="#000000" >0.8</text>
    </g>
  </g>
  <g transform="translate(75.570,84.380)">
    <g transform="rotate(-0.0)">
      <text x="0.000" y="0.000" font-family="Helvetica" text-anchor="end" font-size="10.0pt" fill="#000000" >0.9</text>
    </g>
  </g>
  <g transform="translate(75.570,42.000)">
    <g transform="rotate(-0.0)">
      <text x="0.000" y="0.000" font-family="Helvetica" text-anchor="end" font-size="10.0pt" fill="#000000" >1</text>
    </g>
  </g>
      <polyline fill="none" stroke="#000000" stroke-width="0.5pt" stroke-dasharray="none" points="85.800,462.800 85.800,458.562 "/>
      <polyline fill="none" stroke="#000000" stroke-width="0.5pt" stroke-dasharray="none" points="85.800,462.800 85.800,462.800 "/>
    </g>
  </g>
</svg>
