<?xml version="1.0" encoding="UTF-8" standalone="no"?>
<!-- Created with Inkscape (http://www.inkscape.org/) -->

<svg
   version="1.1"
   viewBox="0 0 1383.0053 1626.6666"
   sodipodi:docname="svg.svg"
   inkscape:version="1.1.2 (0a00cf5339, 2022-02-04)"
   id="svg1650"
   xmlns:inkscape="http://www.inkscape.org/namespaces/inkscape"
   xmlns:sodipodi="http://sodipodi.sourceforge.net/DTD/sodipodi-0.dtd"
   xmlns="http://www.w3.org/2000/svg"
   xmlns:svg="http://www.w3.org/2000/svg">
  <defs
     id="defs6">
    <clipPath
       clipPathUnits="userSpaceOnUse"
       id="clipPath20">
      <path
         d="m 14448,15702.7 v 1344.4 l -1164.4,672.3 -1164.3,-672.3 v -1344.4 l 1164.3,-672.3 z"
         id="path18" />
    </clipPath>
    <linearGradient
       x1="0"
       y1="0"
       x2="1"
       y2="0"
       gradientUnits="userSpaceOnUse"
       gradientTransform="matrix(-1164.38,2016.77,2016.77,1164.38,13865.9,15366.6)"
       spreadMethod="pad"
       id="linearGradient30">
      <stop
         style="stop-opacity:1;stop-color:#ffe46e"
         offset="0"
         id="stop22" />
      <stop
         style="stop-opacity:1;stop-color:#ffe46e"
         offset="0.149254"
         id="stop24" />
      <stop
         style="stop-opacity:1;stop-color:#ffaa00"
         offset="0.839552"
         id="stop26" />
      <stop
         style="stop-opacity:1;stop-color:#ffaa00"
         offset="1"
         id="stop28" />
    </linearGradient>
    <clipPath
       clipPathUnits="userSpaceOnUse"
       id="clipPath40">
      <path
         d="m 15697.6,14872.4 -1164.4,672.3 -1164.3,-672.3 V 13528 l 1164.3,-672.3 1164.4,672.3 z"
         id="path38" />
    </clipPath>
    <linearGradient
       x1="0"
       y1="0"
       x2="1"
       y2="0"
       gradientUnits="userSpaceOnUse"
       gradientTransform="matrix(-1164.36,2016.74,2016.74,1164.36,15115.4,13191.8)"
       spreadMethod="pad"
       id="linearGradient50">
      <stop
         style="stop-opacity:1;stop-color:#ffe46e"
         offset="0"
         id="stop42" />
      <stop
         style="stop-opacity:1;stop-color:#ffe46e"
         offset="0.149254"
         id="stop44" />
      <stop
         style="stop-opacity:1;stop-color:#ffaa00"
         offset="0.839552"
         id="stop46" />
      <stop
         style="stop-opacity:1;stop-color:#ffaa00"
         offset="1"
         id="stop48" />
    </linearGradient>
    <clipPath
       clipPathUnits="userSpaceOnUse"
       id="clipPath60">
      <path
         d="m 13198.4,13528 v 1344.4 l -1164.3,672.3 -1164.4,-672.3 V 13528 l 1164.4,-672.3 z"
         id="path58" />
    </clipPath>
    <linearGradient
       x1="0"
       y1="0"
       x2="1"
       y2="0"
       gradientUnits="userSpaceOnUse"
       gradientTransform="matrix(-1164.35,2016.71,2016.71,1164.35,12616.2,13191.8)"
       spreadMethod="pad"
       id="linearGradient70">
      <stop
         style="stop-opacity:1;stop-color:#ffe46e"
         offset="0"
         id="stop62" />
      <stop
         style="stop-opacity:1;stop-color:#ffe46e"
         offset="0.149254"
         id="stop64" />
      <stop
         style="stop-opacity:1;stop-color:#ffaa00"
         offset="0.839552"
         id="stop66" />
      <stop
         style="stop-opacity:1;stop-color:#ffaa00"
         offset="1"
         id="stop68" />
    </linearGradient>
    <clipPath
       clipPathUnits="userSpaceOnUse"
       id="clipPath80">
      <path
         d="m 10699.2,13528 v 1344.4 l -1164.33,672.3 -1164.31,-672.3 V 13528 l 1164.31,-672.3 z"
         id="path78" />
    </clipPath>
    <linearGradient
       x1="0"
       y1="0"
       x2="1"
       y2="0"
       gradientUnits="userSpaceOnUse"
       gradientTransform="matrix(-1164.36,2016.74,2016.74,1164.36,10117.1,13191.8)"
       spreadMethod="pad"
       id="linearGradient90">
      <stop
         style="stop-opacity:1;stop-color:#ffe46e"
         offset="0"
         id="stop82" />
      <stop
         style="stop-opacity:1;stop-color:#ffe46e"
         offset="0.149254"
         id="stop84" />
      <stop
         style="stop-opacity:1;stop-color:#ffaa00"
         offset="0.839552"
         id="stop86" />
      <stop
         style="stop-opacity:1;stop-color:#ffaa00"
         offset="1"
         id="stop88" />
    </linearGradient>
    <clipPath
       clipPathUnits="userSpaceOnUse"
       id="clipPath100">
      <path
         d="m 15782.9,13376.5 -1164.4,-672.3 v -1344.4 l 1164.4,-672.3 1164.3,672.3 v 1344.4 z"
         id="path98" />
    </clipPath>
    <linearGradient
       x1="0"
       y1="0"
       x2="1"
       y2="0"
       gradientUnits="userSpaceOnUse"
       gradientTransform="matrix(-1164.35,2016.71,2016.71,1164.35,16365,11023.6)"
       spreadMethod="pad"
       id="linearGradient110">
      <stop
         style="stop-opacity:1;stop-color:#ffe46e"
         offset="0"
         id="stop102" />
      <stop
         style="stop-opacity:1;stop-color:#ffe46e"
         offset="0.149254"
         id="stop104" />
      <stop
         style="stop-opacity:1;stop-color:#ffaa00"
         offset="0.839552"
         id="stop106" />
      <stop
         style="stop-opacity:1;stop-color:#ffaa00"
         offset="1"
         id="stop108" />
    </linearGradient>
    <clipPath
       clipPathUnits="userSpaceOnUse"
       id="clipPath120">
      <path
         d="m 12119.3,12704.2 v -1344.4 l 1164.3,-672.3 1164.4,672.3 v 1344.4 l -1164.4,672.3 z"
         id="path118" />
    </clipPath>
    <linearGradient
       x1="0"
       y1="0"
       x2="1"
       y2="0"
       gradientUnits="userSpaceOnUse"
       gradientTransform="matrix(-1164.35,2016.71,2016.71,1164.35,13865.8,11023.6)"
       spreadMethod="pad"
       id="linearGradient130">
      <stop
         style="stop-opacity:1;stop-color:#ffe46e"
         offset="0"
         id="stop122" />
      <stop
         style="stop-opacity:1;stop-color:#ffe46e"
         offset="0.149254"
         id="stop124" />
      <stop
         style="stop-opacity:1;stop-color:#ffaa00"
         offset="0.839552"
         id="stop126" />
      <stop
         style="stop-opacity:1;stop-color:#ffaa00"
         offset="1"
         id="stop128" />
    </linearGradient>
    <clipPath
       clipPathUnits="userSpaceOnUse"
       id="clipPath140">
      <path
         d="m 11948.9,12704.2 -1164.4,672.3 -1164.41,-672.3 v -1344.4 l 1164.41,-672.3 1164.4,672.3 z"
         id="path138" />
    </clipPath>
    <linearGradient
       x1="0"
       y1="0"
       x2="1"
       y2="0"
       gradientUnits="userSpaceOnUse"
       gradientTransform="matrix(-1164.35,2016.71,2016.71,1164.35,11366.7,11023.6)"
       spreadMethod="pad"
       id="linearGradient150">
      <stop
         style="stop-opacity:1;stop-color:#ffe46e"
         offset="0"
         id="stop142" />
      <stop
         style="stop-opacity:1;stop-color:#ffe46e"
         offset="0.149254"
         id="stop144" />
      <stop
         style="stop-opacity:1;stop-color:#ffaa00"
         offset="0.839552"
         id="stop146" />
      <stop
         style="stop-opacity:1;stop-color:#ffaa00"
         offset="1"
         id="stop148" />
    </linearGradient>
    <clipPath
       clipPathUnits="userSpaceOnUse"
       id="clipPath160">
      <path
         d="M 10869.7,10538.6 V 9194.1 l 1164.4,-672.2 1164.3,672.2 v 1344.5 l -1164.3,672.3 z"
         id="path158" />
    </clipPath>
    <linearGradient
       x1="0"
       y1="0"
       x2="1"
       y2="0"
       gradientUnits="userSpaceOnUse"
       gradientTransform="matrix(-1164.38,2016.77,2016.77,1164.38,12616.3,8858)"
       spreadMethod="pad"
       id="linearGradient170">
      <stop
         style="stop-opacity:1;stop-color:#ffe46e"
         offset="0"
         id="stop162" />
      <stop
         style="stop-opacity:1;stop-color:#ffe46e"
         offset="0.149254"
         id="stop164" />
      <stop
         style="stop-opacity:1;stop-color:#ffaa00"
         offset="0.839552"
         id="stop166" />
      <stop
         style="stop-opacity:1;stop-color:#ffaa00"
         offset="1"
         id="stop168" />
    </linearGradient>
    <clipPath
       clipPathUnits="userSpaceOnUse"
       id="clipPath180">
      <path
         d="M 8370.56,10538.6 V 9194.1 l 1164.31,-672.2 1164.33,672.2 v 1344.5 l -1164.33,672.3 z"
         id="path178" />
    </clipPath>
    <linearGradient
       x1="0"
       y1="0"
       x2="1"
       y2="0"
       gradientUnits="userSpaceOnUse"
       gradientTransform="matrix(-1164.38,2016.77,2016.77,1164.38,10117.1,8858)"
       spreadMethod="pad"
       id="linearGradient190">
      <stop
         style="stop-opacity:1;stop-color:#ffe46e"
         offset="0"
         id="stop182" />
      <stop
         style="stop-opacity:1;stop-color:#ffe46e"
         offset="0.149254"
         id="stop184" />
      <stop
         style="stop-opacity:1;stop-color:#ffaa00"
         offset="0.839552"
         id="stop186" />
      <stop
         style="stop-opacity:1;stop-color:#ffaa00"
         offset="1"
         id="stop188" />
    </linearGradient>
    <clipPath
       clipPathUnits="userSpaceOnUse"
       id="clipPath200">
      <path
         d="m 9449.62,12704.2 -1164.3,672.3 -1164.38,-672.3 v -1344.4 l 1164.38,-672.3 1164.3,672.3 z"
         id="path198" />
    </clipPath>
    <linearGradient
       x1="0"
       y1="0"
       x2="1"
       y2="0"
       gradientUnits="userSpaceOnUse"
       gradientTransform="matrix(-1164.35,2016.71,2016.71,1164.35,8867.47,11023.6)"
       spreadMethod="pad"
       id="linearGradient210">
      <stop
         style="stop-opacity:1;stop-color:#ffe46e"
         offset="0"
         id="stop202" />
      <stop
         style="stop-opacity:1;stop-color:#ffe46e"
         offset="0.149254"
         id="stop204" />
      <stop
         style="stop-opacity:1;stop-color:#ffaa00"
         offset="0.839552"
         id="stop206" />
      <stop
         style="stop-opacity:1;stop-color:#ffaa00"
         offset="1"
         id="stop208" />
    </linearGradient>
    <clipPath
       clipPathUnits="userSpaceOnUse"
       id="clipPath220">
      <path
         d="m 16844.6,11433.6 -1061.7,-612.9 -1061.7,612.9 v 1226 l 1061.7,612.9 1061.7,-612.9 z M 13095.8,9267.9 12034.1,8655 10972.4,9267.9 V 10494 l 1061.7,612.9 1061.7,-612.9 z m -4622.54,0 V 10494 l 1061.64,612.9 1061.7,-612.9 V 9267.9 L 9534.9,8655 Z m -1249.62,3391.7 1061.73,612.9 1061.64,-612.9 v -1226 l -1061.64,-612.9 -1061.73,612.9 z m 1249.62,2168.2 1061.64,612.9 1061.7,-612.9 v -1226 l -1061.7,-612.9 -1061.64,612.8 z m 3748.74,2174.7 1061.7,613 1061.7,-613 v -1226 l -1061.7,-612.9 -1061.7,612.9 z m 3373,-3400.7 -1061.7,-612.9 -1061.7,612.9 v 1226 l 1061.7,612.9 1061.7,-612.9 z m -3373,-2168.2 v 1226 l 1061.7,612.9 1061.7,-612.9 v -1226 l -1061.7,-612.9 z m 873.8,3394.2 v -1226.1 l -1061.7,-612.8 -1061.7,612.9 v 1226 l 1061.7,612.9 z m -3373.02,-2168.2 1061.72,612.9 1061.7,-612.9 v -1226 l -1061.7,-612.9 -1061.72,612.9 z m 6248.02,938.3 v 1446.8 l -1249.6,721.5 v 1453.2 l -1437.5,830 -1437.5,-830 v -1453.2 l -1061.7,-613 -1249.6,721.5 -1437.42,-830 v -1446.8 l -1249.62,-721.5 v -1659.7 l 1249.62,-721.5 V 9051.1 l 1437.42,-830 1249.6,721.5 1249.6,-721.5 1437.5,830 v 1444.1 l 1061.7,613 1249.6,-721.5 1437.5,830 v 1659.7 z"
         id="path218" />
    </clipPath>
    <linearGradient
       x1="0"
       y1="0"
       x2="1"
       y2="0"
       gradientUnits="userSpaceOnUse"
       gradientTransform="matrix(-3943.41,6830.19,6830.19,3943.41,13693.4,9179.1)"
       spreadMethod="pad"
       id="linearGradient226">
      <stop
         style="stop-opacity:1;stop-color:#ff8100"
         offset="0"
         id="stop222" />
      <stop
         style="stop-opacity:1;stop-color:#ffbc00"
         offset="1"
         id="stop224" />
    </linearGradient>
    <clipPath
       clipPathUnits="userSpaceOnUse"
       id="clipPath238">
      <path
         d="m 14865.2,6172.6 c -632.3,0 -1146.7,514.5 -1146.7,1146.8 0,340.4 221.7,858.8 624.3,1459.7 191.6,286 386.8,535.7 521.3,699.9 134.7,-166.2 330.7,-419.3 522.8,-707.7 402.4,-604.1 624,-1119.8 624,-1451.9 0,-632.3 -514,-1146.8 -1145.7,-1146.8 z"
         id="path236" />
    </clipPath>
    <linearGradient
       x1="0"
       y1="0"
       x2="1"
       y2="0"
       gradientUnits="userSpaceOnUse"
       gradientTransform="matrix(-1508.53,2612.85,2612.85,1508.53,15458.2,6338.1)"
       spreadMethod="pad"
       id="linearGradient248">
      <stop
         style="stop-opacity:1;stop-color:#ffe46e"
         offset="0"
         id="stop240" />
      <stop
         style="stop-opacity:1;stop-color:#ffe46e"
         offset="0.149254"
         id="stop242" />
      <stop
         style="stop-opacity:1;stop-color:#ffaa00"
         offset="0.839552"
         id="stop244" />
      <stop
         style="stop-opacity:1;stop-color:#ffaa00"
         offset="1"
         id="stop246" />
    </linearGradient>
  </defs>
  <sodipodi:namedview
     id="namedview4"
     pagecolor="#ffffff"
     bordercolor="#666666"
     borderopacity="1.0"
     inkscape:pageshadow="2"
     inkscape:pageopacity="0.0"
     inkscape:pagecheckerboard="0"
     showgrid="false"
     fit-margin-top="0"
     fit-margin-left="0"
     fit-margin-right="0"
     fit-margin-bottom="0"
     inkscape:zoom="0.26970001"
     inkscape:cx="754.54207"
     inkscape:cy="739.71077"
     inkscape:window-width="3440"
     inkscape:window-height="1369"
     inkscape:window-x="0"
     inkscape:window-y="34"
     inkscape:window-maximized="1"
     inkscape:current-layer="g10" />
  <g
     id="g8"
     inkscape:groupmode="layer"
     inkscape:label="ink_ext_XXXXXX"
     transform="matrix(1.3333333,0,0,-1.3333333,-913.04798,2406.5866)">
    <g
       id="g10"
       transform="scale(0.1)">
      <g
         id="g14">
        <g
           id="g16"
           clip-path="url(#clipPath20)">
          <path
             d="m 14448,15702.7 v 1344.4 l -1164.4,672.3 -1164.3,-672.3 v -1344.4 l 1164.3,-672.3 1164.4,672.3"
             style="fill:url(#linearGradient30);fill-opacity:1;fill-rule:nonzero;stroke:none"
             id="path32" />
        </g>
      </g>
      <g
         id="g34">
        <g
           id="g36"
           clip-path="url(#clipPath40)">
          <path
             d="m 15697.6,14872.4 -1164.4,672.3 -1164.3,-672.3 V 13528 l 1164.3,-672.3 1164.4,672.3 v 1344.4"
             style="fill:url(#linearGradient50);fill-opacity:1;fill-rule:nonzero;stroke:none"
             id="path52" />
        </g>
      </g>
      <g
         id="g54">
        <g
           id="g56"
           clip-path="url(#clipPath60)">
          <path
             d="m 13198.4,13528 v 1344.4 l -1164.3,672.3 -1164.4,-672.3 V 13528 l 1164.4,-672.3 1164.3,672.3"
             style="fill:url(#linearGradient70);fill-opacity:1;fill-rule:nonzero;stroke:none"
             id="path72" />
        </g>
      </g>
      <g
         id="g74">
        <g
           id="g76"
           clip-path="url(#clipPath80)">
          <path
             d="m 10699.2,13528 v 1344.4 l -1164.33,672.3 -1164.31,-672.3 V 13528 l 1164.31,-672.3 1164.33,672.3"
             style="fill:url(#linearGradient90);fill-opacity:1;fill-rule:nonzero;stroke:none"
             id="path92" />
        </g>
      </g>
      <g
         id="g94">
        <g
           id="g96"
           clip-path="url(#clipPath100)">
          <path
             d="m 15782.9,13376.5 -1164.4,-672.3 v -1344.4 l 1164.4,-672.3 1164.3,672.3 v 1344.4 l -1164.3,672.3"
             style="fill:url(#linearGradient110);fill-opacity:1;fill-rule:nonzero;stroke:none"
             id="path112" />
        </g>
      </g>
      <g
         id="g114">
        <g
           id="g116"
           clip-path="url(#clipPath120)">
          <path
             d="m 12119.3,12704.2 v -1344.4 l 1164.3,-672.3 1164.4,672.3 v 1344.4 l -1164.4,672.3 -1164.3,-672.3"
             style="fill:url(#linearGradient130);fill-opacity:1;fill-rule:nonzero;stroke:none"
             id="path132" />
        </g>
      </g>
      <g
         id="g134">
        <g
           id="g136"
           clip-path="url(#clipPath140)">
          <path
             d="m 11948.9,12704.2 -1164.4,672.3 -1164.41,-672.3 v -1344.4 l 1164.41,-672.3 1164.4,672.3 v 1344.4"
             style="fill:url(#linearGradient150);fill-opacity:1;fill-rule:nonzero;stroke:none"
             id="path152" />
        </g>
      </g>
      <g
         id="g154">
        <g
           id="g156"
           clip-path="url(#clipPath160)">
          <path
             d="M 10869.7,10538.6 V 9194.1 l 1164.4,-672.2 1164.3,672.2 v 1344.5 l -1164.3,672.3 -1164.4,-672.3"
             style="fill:url(#linearGradient170);fill-opacity:1;fill-rule:nonzero;stroke:none"
             id="path172" />
        </g>
      </g>
      <g
         id="g174">
        <g
           id="g176"
           clip-path="url(#clipPath180)">
          <path
             d="M 8370.56,10538.6 V 9194.1 l 1164.31,-672.2 1164.33,672.2 v 1344.5 l -1164.33,672.3 -1164.31,-672.3"
             style="fill:url(#linearGradient190);fill-opacity:1;fill-rule:nonzero;stroke:none"
             id="path192" />
        </g>
      </g>
      <g
         id="g194">
        <g
           id="g196"
           clip-path="url(#clipPath200)">
          <path
             d="m 9449.62,12704.2 -1164.3,672.3 -1164.38,-672.3 v -1344.4 l 1164.38,-672.3 1164.3,672.3 v 1344.4"
             style="fill:url(#linearGradient210);fill-opacity:1;fill-rule:nonzero;stroke:none"
             id="path212" />
        </g>
      </g>
      <g
         id="g214">
        <g
           id="g216"
           clip-path="url(#clipPath220)">
          <path
             d="m 16844.6,11433.6 -1061.7,-612.9 -1061.7,612.9 v 1226 l 1061.7,612.9 1061.7,-612.9 z M 13095.8,9267.9 12034.1,8655 10972.4,9267.9 V 10494 l 1061.7,612.9 1061.7,-612.9 z m -4622.54,0 V 10494 l 1061.64,612.9 1061.7,-612.9 V 9267.9 L 9534.9,8655 Z m -1249.62,3391.7 1061.73,612.9 1061.64,-612.9 v -1226 l -1061.64,-612.9 -1061.73,612.9 z m 1249.62,2168.2 1061.64,612.9 1061.7,-612.9 v -1226 l -1061.7,-612.9 -1061.64,612.8 z m 3748.74,2174.7 1061.7,613 1061.7,-613 v -1226 l -1061.7,-612.9 -1061.7,612.9 z m 3373,-3400.7 -1061.7,-612.9 -1061.7,612.9 v 1226 l 1061.7,612.9 1061.7,-612.9 z m -3373,-2168.2 v 1226 l 1061.7,612.9 1061.7,-612.9 v -1226 l -1061.7,-612.9 z m 873.8,3394.2 v -1226.1 l -1061.7,-612.8 -1061.7,612.9 v 1226 l 1061.7,612.9 z m -3373.02,-2168.2 1061.72,612.9 1061.7,-612.9 v -1226 l -1061.7,-612.9 -1061.72,612.9 z m 6248.02,938.3 v 1446.8 l -1249.6,721.5 v 1453.2 l -1437.5,830 -1437.5,-830 v -1453.2 l -1061.7,-613 -1249.6,721.5 -1437.42,-830 v -1446.8 l -1249.62,-721.5 v -1659.7 l 1249.62,-721.5 V 9051.1 l 1437.42,-830 1249.6,721.5 1249.6,-721.5 1437.5,830 v 1444.1 l 1061.7,613 1249.6,-721.5 1437.5,830 v 1659.7 l -1249.6,721.5"
             style="fill:url(#linearGradient226);fill-opacity:1;fill-rule:nonzero;stroke:none"
             id="path228" />
        </g>
      </g>
      <path
         d="m 14865.2,5849.4 c -810.5,0 -1469.9,659.4 -1469.9,1470 0,997.6 1343.6,2514.9 1400.7,2579 l 69.7,78.1 69.2,-78.6 c 57.1,-65 1399.2,-1602.1 1399.2,-2578.5 0,-810.6 -658.9,-1470 -1468.9,-1470"
         style="fill:#ff9700;fill-opacity:1;fill-rule:nonzero;stroke:none"
         id="path230" />
      <g
         id="g232">
        <g
           id="g234"
           clip-path="url(#clipPath238)">
          <path
             d="m 14865.2,6172.6 c -632.3,0 -1146.7,514.5 -1146.7,1146.8 0,340.4 221.7,858.8 624.3,1459.7 191.6,286 386.8,535.7 521.3,699.9 134.7,-166.2 330.7,-419.3 522.8,-707.7 402.4,-604.1 624,-1119.8 624,-1451.9 0,-632.3 -514,-1146.8 -1145.7,-1146.8"
             style="fill:url(#linearGradient248);fill-opacity:1;fill-rule:nonzero;stroke:none"
             id="path250" />
        </g>
      </g>
    </g>
  </g>
</svg>
