<svg version="1.1" viewBox="0 0 3096.6 3247.2" xmlns="http://www.w3.org/2000/svg">
  <path transform="matrix(.13333 0 0 -.13333 0 3247.2)" d="m9339.8 23528c-577.8-131-1152-392.4-1534-859.5-244.35-282.2-350.55-647.6-437.4-1002.6-791.1-2753.1-1571-5509.4-2345.8-8267-222.3-821.7-470.7-1636.6-675.9-2462.4-96.3-250.6-132.75-522.9-238.05-770.4-114.3-150.7-293.4-236.2-435.15-358.6-671.4-513-1285.6-1106.6-1785.6-1789.2-617.85-820.4-1083.6-1780.7-1205.6-2808.9-110.7-802.8 18.903-1631.3 334.8-2375.6 332.1-804.1 967.5-1483.6 1766.2-1837.3 907.2-412.7 1949.8-433.8 2914.6-240.8 606.6 90 1184.4 317.3 1754.6 539.1-376.2 328.5-814.95 574.7-1250.1 815-521.55 291.6-1092.2 604.3-1712.2 509.4-63.9-21.2-212.4-32.9-167.4-133.2 120.15-140.4 322.65-259.2 282.6-475.7 9.45-202-201.6-274.9-337.95-369-251.1 188.1-543.15 389.3-612.45 717.8-91.35 319.5 88.65 672.7 387.9 806.8 380.25 193.1 823.05 151.2 1225.8 63.9 1391.8-392.8 2454.3-1435.5 3742.2-2043.4 639.45-290.3 1331.1-490.5 2038.1-493.7 686.2-11.699 1373.8 125.1 2005.2 395.6 930.6 365.8 1737 969.7 2613.6 1439.5 621.9 354.2 1283.4 667.8 1995.3 784.8 350.5 47.3 729.4 52.2 1053-112 256.5-121.5 436.5-404.1 406.3-691.2-24.3-283.1-218.2-528.8-471.1-648.9-178.2 27.4-369.9 139-390.6 334.3-25.2 149.9 95.8 257.4 177.7 364.5-43.2 72.5-131.8 86.9-206.5 104-341.1 56.2-693 4.9-1013.4-119.3-410.4-161.5-816.3-337.9-1202.9-551.2-183.6-120.6-394.6-201.2-556.2-354.2 251.1-163.8 531.9-281.7 802.4-407.2 381.6-169.2 774-314.6 1177.6-421.7 709.7-182.2 1459.4-225.4 2180.7-89.102 619.7 131.9 1224.9 400.5 1685.7 843.3 996.8 915.8 1440 2354.4 1233 3680.6-124.2 882.4-495.9 1714.9-992.2 2449.3-575.6 873.5-1316.7 1629.5-2144.3 2266.2-114.3 78.3-121.5 224.6-143.5 347.9-562.1 3896.1-1122.8 7792.6-1696.5 11687-18.9 94-10.8 228.1-125.1 261-671.9 323.5-1373.4 584.5-2089.4 791.1-960.7 295.6-1952.1 485.1-2951.5 587.2-1016.6 95-2054.7 120.2-3056.4-106.6zm103.5 686.7c1096.2 201.6 2220.3 159.3 3322.8 34.2 1672.6-206.1 3319.2-655.2 4851.4-1360.4 296.1-118.8 531.9-391.9 572-712.8 581.4-3929.4 1142.5-7862.4 1713.6-11793 717.7-537.8 1349.5-1186.2 1892.2-1899 521.6-704.7 961.7-1482.3 1203.8-2329.2 382-1282.1 288-2718.9-354.6-3902.4-363.6-673.2-890.1-1269.9-1557.9-1652.4-809.1-492.8-1784.3-644-2718.9-587.7-1280.3 86.801-2477.3 618.3-3578.4 1246-769.5-460.8-1575-888.7-2460.2-1074.6-1414.8-339.7-2929-20.7-4169.2 712.8-815.4-362.2-1662.3-672.3-2547.4-807.7-969.75-158.9-1991.2-117.5-2913.3 242.1-724.5 285.7-1363.5 779.8-1814.8 1414.3-540 758.7-823.95 1681.7-877.5 2606.9-44.098 871.2 128.25 1749.6 476.55 2548.3 639.9 1481.9 1784.7 2688.3 3068.5 3639.2 1065.6 3826.3 2146.5 7649.1 3237.8 11469 106.2 508.5 390.6 965.2 752.85 1331.5 517.95 490.1 1211.8 741.2 1900.8 875.3" style="fill:#321813"/>
  <path d="m1499.5 86.918c-85.382-1.4189-170.75 4.3559-254.23 23.256-77.04 17.467-153.6 52.32-204.54 114.6-32.58 37.627-46.74 86.346-58.32 133.68-105.48 367.08-209.46 734.59-312.78 1102.3-29.64 109.56-62.759 218.21-90.119 328.32-12.84 33.413-17.7 69.721-31.74 102.72-15.24 20.093-39.12 31.495-58.02 47.814h-2e-3c-89.519 68.4-171.42 147.54-238.08 238.56-82.38 109.39-144.48 237.43-160.74 374.52-14.76 107.04 2.5202 217.51 44.641 316.75 44.28 107.21 129 197.81 235.5 244.97 120.96 55.026 259.98 57.841 388.62 32.107 80.88-12 157.92-42.308 233.94-71.881-50.16-43.8-108.66-76.626-166.68-108.67-69.54-38.88-145.62-80.573-228.3-67.92-8.52 2.8267-28.32 4.3864-22.32 17.76 16.02 18.72 43.022 34.559 37.682 63.426 1.26 26.933-26.881 36.654-45.061 49.201-33.479-25.08-72.42-51.907-81.658-95.707-12.18-42.6 11.819-89.694 51.719-107.57 50.7-25.747 109.74-20.16 163.44-8.5196 185.58 52.373 327.24 191.4 498.96 272.45 85.259 38.707 177.48 65.402 271.74 65.828 91.493 1.5599 183.17-16.682 267.36-52.748 124.08-48.773 231.6-129.29 348.48-191.93 82.92-47.227 171.12-89.039 266.04-104.64 46.733-6.3067 97.254-6.9598 140.4 14.934 34.2 16.2 58.2 53.878 54.174 92.158-3.24 37.747-29.094 70.508-62.814 86.522-23.76-3.6534-49.32-18.534-52.08-44.574-3.36-19.987 12.773-34.32 23.693-48.6-5.76-9.6666-17.573-11.587-27.533-13.867-45.48-7.4934-92.399-0.6538-135.12 15.906-54.72 21.533-108.84 45.054-160.39 73.494-24.48 16.08-52.614 26.827-74.16 47.227 33.48 21.84 70.92 37.56 106.99 54.293 50.88 22.56 103.2 41.946 157.01 56.226 94.627 24.293 194.59 30.054 290.76 11.881 82.627-17.587 163.32-53.4 224.76-112.44 132.91-122.11 192-313.92 164.4-490.75-16.56-117.65-66.12-228.65-132.29-326.57-76.747-116.47-175.56-217.27-285.91-302.16-15.24-10.44-16.2-29.947-19.133-46.387-74.947-519.48-149.71-1039-226.2-1558.3-2.52-12.533-1.4398-30.414-16.68-34.801-89.587-43.133-183.12-77.932-278.59-105.48-128.09-39.413-260.28-64.68-393.53-78.293-50.83-4.75-102.06-8.1916-153.29-9.0431zm1078.2 2004.5c16.451 13.361 32.184 27.635 47.184 42.629-14.999-14.994-30.733-29.268-47.184-42.629zm-1978.6 539.41c18.95 5.5161 38.26 9.6465 57.689 13.125-19.429-3.4785-38.74-7.6088-57.689-13.125zm142.4 33.164c28.012 7.6283 55.973 15.519 84.383 21.606-28.409-6.0867-56.37-13.977-84.383-21.606zm1301.7 57.006c29.49 6.66 59.204 12.119 89.072 16.5-29.869-4.3811-59.582-9.84-89.072-16.5zm686.45 14.586c-9.5067 14.16-19.557 28.183-30.717 41.18 11.16-12.997 21.21-27.02 30.717-41.18z" style="fill:#7e563f"/>
  <path d="m2295.8 2908c42.72-16.56 89.64-23.4 135.12-15.907 9.96 2.28 21.773 4.2 27.533 13.867-10.92 14.28-27.053 28.613-23.693 48.6 2.76 26.04 28.32 40.92 52.08 44.573-40.387 37.387-91.147 61.8-144.84 73.08-57.12 12.84-115.75 10.08-173.76 10.8-36.067-16.733-73.507-32.453-106.99-54.293 21.547-20.4 49.68-31.147 74.16-47.227 51.547-28.44 105.67-51.96 160.39-73.493" style="fill-opacity:.48335;fill:#050202"/>
  <path d="m598.68 2898c82.68-12.653 158.76 29.04 228.3 67.92 58.02 32.04 116.52 64.867 166.68 108.67-76.02 29.573-153.06 59.88-233.94 71.88-69.84-27.36-139.8-61.32-190.74-118.08 18.18-12.547 46.32-22.267 45.06-49.2 5.34-28.867-21.66-44.707-37.68-63.427-6-13.373 13.8-14.933 22.32-17.76" style="fill-opacity:.48335;fill:#050202"/>
  <path d="m3005.2 2548c-16.56-117.65-66.12-228.65-132.29-326.57-76.747-116.47-175.56-217.27-285.91-302.16-15.24-10.44-16.2-29.947-19.133-46.387-54.36-28.133-117.67-33.12-177.31-22.92-65.64 13.2-122.52 62.587-144.6 125.83-2.64 7.32-1.9733 15.293-2.2133 23.04 29.333 1.8533 58.2-6.24 87.6-4.6267 47.52 2.16 95.093 11.52 139.2 29.587 77.04 35.76 143.09 92.28 197.16 157.25 61.373 74.347 107.4 162.84 124.49 258.12 17.04 102.12-5.4533 210.07-62.52 296.47-19.013 28.32-40.2 56.093-68.093 76.2-24.12-14.827-47.16-32.16-74.467-40.867-58.68-21.413-122.09-21.893-183.77-19.853-120.6 4.0133-242.16-3.4267-360.12-30.067-61.56-12.36-122.16-34.44-185.88-30.36-88.387 1.32-165.24 50.467-249.12 71.227-134.52 40.2-276.66 54.6-416.46 41.213-108.96-8.9333-217.26-36.653-314.28-87.72-17.16-9.96-34.08-20.4-51.541-29.76-56.819-12.173-111.84-31.56-169.08-41.64-19.44-3.48-38.76-7.6133-57.72-13.133-26.64-26.04-57.72-47.467-81.36-76.56-53.34-63.84-78.66-147.19-83.52-229.27-4.86-107.21 23.7-211.97 52.14-314.28 5.1-18.773 10.86-37.493 13.2-56.88-3.3-4.8-6.6-9.5333-9.78-14.28-89.52 68.4-171.42 147.55-238.08 238.56-82.38 109.39-144.48 237.43-160.74 374.52-14.76 107.04 2.5204 217.51 44.641 316.75 44.28 107.21 129 197.81 235.5 244.97 120.96 55.026 259.98 57.84 388.62 32.107-69.841-27.36-139.8-61.32-190.74-118.08-33.479-25.08-72.42-51.907-81.659-95.707-12.18-42.6 11.82-89.693 51.72-107.57 50.7-25.747 109.74-20.16 163.44-8.52 185.58 52.373 327.24 191.4 498.96 272.45 85.259 38.707 177.47 65.4 271.74 65.827 91.493 1.5598 183.17-16.68 267.36-52.747 124.08-48.773 231.6-129.29 348.48-191.93 82.92-47.227 171.12-89.04 266.04-104.64 46.733-6.3067 97.253-6.96 140.4 14.933 34.2 16.2 58.2 53.88 54.173 92.16-3.24 37.747-29.093 70.507-62.813 86.52-40.387 37.387-91.147 61.8-144.84 73.08-57.12 12.84-115.75 10.08-173.76 10.8 50.88 22.56 103.2 41.946 157.01 56.227 94.627 24.293 194.59 30.053 290.76 11.88 82.627-17.587 163.32-53.4 224.76-112.44 132.91-122.11 192-313.92 164.4-490.75" style="fill-opacity:.13179;fill:#070201"/>
</svg>
