<?xml version="1.0" encoding="UTF-8" standalone="no"?>
<svg
   xmlns:dc="http://purl.org/dc/elements/1.1/"
   xmlns:cc="http://creativecommons.org/ns#"
   xmlns:rdf="http://www.w3.org/1999/02/22-rdf-syntax-ns#"
   xmlns:svg="http://www.w3.org/2000/svg"
   xmlns="http://www.w3.org/2000/svg"
   xmlns:sodipodi="http://sodipodi.sourceforge.net/DTD/sodipodi-0.dtd"
   xmlns:inkscape="http://www.inkscape.org/namespaces/inkscape"
   id="svg16720"
   sodipodi:docname="ace.svg"
   viewBox="0 0 47.700001 60.557999"
   sodipodi:version="0.32"
   version="1.0"
   inkscape:output_extension="org.inkscape.output.svg.inkscape"
   inkscape:version="1.0 (9f2f71dc58, 2020-08-02)"
   width="100%"
   height="100%">
  <defs
     id="defs897" />
  <sodipodi:namedview
     id="base"
     bordercolor="#666666"
     inkscape:pageshadow="2"
     guidetolerance="10"
     pagecolor="#ffffff"
     gridtolerance="10000"
     inkscape:window-height="1294"
     inkscape:zoom="3.959798"
     objecttolerance="10"
     showgrid="false"
     borderopacity="1.0"
     inkscape:current-layer="layer1"
     inkscape:cx="10.034703"
     inkscape:cy="37.050723"
     inkscape:window-y="47"
     inkscape:window-x="97"
     inkscape:window-width="2678"
     inkscape:pageopacity="0.0"
     inkscape:document-units="px"
     inkscape:document-rotation="0"
     fit-margin-top="0"
     fit-margin-left="0"
     fit-margin-right="0"
     fit-margin-bottom="0"
     inkscape:window-maximized="0" />
  <g
     id="layer1"
     inkscape:label="Layer 1"
     inkscape:groupmode="layer"
     transform="translate(-139,-386.382)">
    <path
       id="text4436"
       style="fill:#002929;fill-opacity:0.80722529;stroke:#05dafc;stroke-opacity:1;opacity:0.04359809"
       d="m 173.4,409.262 c 0.3,0.854 0.6,1.68 0.9,2.48 0.4,0.8 0.8,1.6 1.1,2.4 l -0.1,0.16 c -4.8,0.16 -9.6,0.854 -14.2,2.08 -4.7,1.174 -9,3.227 -13.2,6.16 l -0.1,-0.08 c 0.4,-0.746 0.7,-1.493 0.9,-2.24 0.2,-0.746 0.5,-1.52 0.8,-2.32 3.8,-2.026 7.7,-3.76 11.6,-5.2 4,-1.493 8,-2.666 12.2,-3.52 l 0.1,0.08 m -9.9,-22.88 c 1.6,3.68 3.2,7.254 4.8,10.72 1.6,3.467 3.1,7.04 4.5,10.72 h -0.1 c -3.8,0.747 -7.6,1.787 -11.2,3.12 -3.7,1.334 -7.2,2.88 -10.8,4.64 l -0.3,0.08 c 2.3,-4.96 4.4,-9.866 6.5,-14.72 2.1,-4.906 4.2,-9.733 6.5,-14.48 l 0.1,-0.08 M 139,445.34 c 1.4,-3.36 2.7,-6.77 3.9,-10.24 1.3,-3.46 2.6,-6.9 4.1,-10.32 1.9,-1.438 4,-2.718 6.3,-3.838 2.4,-1.173 4.8,-2.16 7.3,-2.96 2.5,-0.8 5,-1.413 7.6,-1.84 2.6,-0.426 5.2,-0.64 7.7,-0.64 l -0.1,-0.16 c 2,5.227 3.9,10.428 5.6,15.598 1.7,5.18 3.5,10.35 5.3,15.52 l -0.2,0.16 c -3.4,0.16 -6.9,0.24 -10.4,0.24 -3.5,0 -7.1,0.03 -10.7,0.08 l -0.1,-0.08 c -0.5,-1.7 -0.9,-3.41 -1.4,-5.12 -0.4,-1.76 -0.8,-3.49 -1.3,-5.2 l -2.2,9.12 0.1,-0.16 H 139 v -0.16" />
  </g>
  <metadata
     id="metadata894">
    <rdf:RDF>
      <cc:Work>
        <dc:format>image/svg+xml</dc:format>
        <dc:type
           rdf:resource="http://purl.org/dc/dcmitype/StillImage" />
        <cc:license
           rdf:resource="http://creativecommons.org/publicdomain/zero/1.0/" />
        <dc:publisher>
          <cc:Agent
             rdf:about="http://openclipart.org/">
            <dc:title>Openclipart</dc:title>
          </cc:Agent>
        </dc:publisher>
        <dc:title></dc:title>
        <dc:date>2009-02-07T18:43:37</dc:date>
        <dc:description>Ace of spades from a funky card deck</dc:description>
        <dc:source>https://openclipart.org/detail/21444/ace-of-spades-by-momoko</dc:source>
        <dc:creator>
          <cc:Agent>
            <dc:title>momoko</dc:title>
          </cc:Agent>
        </dc:creator>
        <dc:subject>
          <rdf:Bag>
            <rdf:li>ace</rdf:li>
            <rdf:li>card</rdf:li>
            <rdf:li>remix</rdf:li>
            <rdf:li>spade</rdf:li>
          </rdf:Bag>
        </dc:subject>
      </cc:Work>
      <cc:License
         rdf:about="http://creativecommons.org/publicdomain/zero/1.0/">
        <cc:permits
           rdf:resource="http://creativecommons.org/ns#Reproduction" />
        <cc:permits
           rdf:resource="http://creativecommons.org/ns#Distribution" />
        <cc:permits
           rdf:resource="http://creativecommons.org/ns#DerivativeWorks" />
      </cc:License>
    </rdf:RDF>
  </metadata>
</svg>
