<?xml version="1.0" standalone="no"?>
<!--Created with Inkscape (http://www.inkscape.org/)-->
<svg xmlns="http://www.w3.org/2000/svg" xmlns:xlink="http://www.w3.org/1999/xlink" viewBox="0 0 48 48">
  <defs>
    <linearGradient id="g">
      <stop offset="0" stop-color="white" stop-opacity=".61802578"/>
      <stop offset="1" stop-color="white" stop-opacity="0"/>
    </linearGradient>
    <linearGradient id="f">
      <stop offset="0" stop-color="white" stop-opacity="1"/>
      <stop offset="1" stop-color="white" stop-opacity=".53725493"/>
    </linearGradient>
    <linearGradient id="e">
      <stop offset="0" stop-color="white" stop-opacity=".74901962"/>
      <stop offset="1" stop-color="white" stop-opacity="0"/>
    </linearGradient>
    <linearGradient id="c">
      <stop offset="0" stop-color="#000" stop-opacity=".46000001"/>
      <stop offset="1" stop-color="#000" stop-opacity="0"/>
    </linearGradient>
    <linearGradient id="b">
      <stop offset="0" stop-color="#fff" stop-opacity="1"/>
      <stop offset="1" stop-color="#fff" stop-opacity="0"/>
    </linearGradient>
    <linearGradient id="a">
      <stop offset="0.0000000" stop-color="#000" stop-opacity=".26041666"/>
      <stop offset="1" stop-color="#000" stop-opacity="0"/>
    </linearGradient>
    <linearGradient id="d">
      <stop offset="0" stop-color="#1fdc49" stop-opacity="1"/>
      <stop offset="1" stop-color="#17af3a" stop-opacity="1"/>
    </linearGradient>
    <radialGradient xlink:href="#a" id="j" gradientUnits="userSpaceOnUse" gradientTransform="matrix(1,0,0,0.175824,-6.163817e-14,81.60896)" cx="51.752022" cy="99.018867" fx="51.752022" fy="99.018867" r="47.094337"/>
    <linearGradient xlink:href="#b" x1="-4.8199644" y1="44.156403" x2="86.398415" y2="61.867584" gradientUnits="userSpaceOnUse"/>
    <linearGradient xlink:href="#c" id="h" x1="73.487869" y1="154.91104" x2="78.663643" y2="89.624825" gradientUnits="userSpaceOnUse" gradientTransform="matrix(0.34824,0,0,0.367937,-0.893814,2.023696)"/>
    <linearGradient xlink:href="#d" id="l" gradientUnits="userSpaceOnUse" gradientTransform="matrix(1.86923e-2,0.662477,0.66372,-1.226491e-2,-13.98709,-5.7129)" x1="37.520218" y1="46.576817" x2="43.730457" y2="74.78167"/>
    <linearGradient xlink:href="#d" id="i" gradientUnits="userSpaceOnUse" gradientTransform="matrix(1.544781e-2,0.549119,0.548515,-1.016626e-2,-7.697533,6.85797)" x1="37.520218" y1="46.576817" x2="43.730457" y2="74.78167"/>
    <linearGradient xlink:href="#e" id="k" x1="8.9759321" y1="10.658385" x2="21.100155" y2="0.23790067" gradientUnits="userSpaceOnUse" gradientTransform="matrix(1,0,0,-1,0,47)"/>
    <linearGradient xlink:href="#f" id="m" x1="15.747671" y1="45.670807" x2="23.381948" y2="14.289549" gradientUnits="userSpaceOnUse" gradientTransform="matrix(1,0,0,-1,0,47)"/>
    <linearGradient xlink:href="#g" id="n" x1="17.590061" y1="4.5702972" x2="17.590061" y2="23.617346" gradientUnits="userSpaceOnUse"/>
  </defs>
  <metadata/>
  <path d="M 21.63383,43.978449 C 21.63383,43.978449 42.179042,40.741397 41.998821,37.31393 C 41.8186,33.88646 10.820561,34.64812 11.000783,37.123515 C 11.181003,39.598908 16.227195,44.35928 21.63383,43.978449 z " fill="url(#h)" fill-opacity="1" fill-rule="evenodd" stroke="none" stroke-width=".25pt" stroke-linecap="butt" stroke-linejoin="miter" stroke-opacity="1"/>
  <path d="M 8.4659452,39.427268 C 12.600527,45.11552 32.014752,44.755694 35.80254,38.920608 C 39.590326,33.085521 27.00559,14.39515 21.394848,14.499138 C 15.782773,14.603152 4.3313635,33.739015 8.4659452,39.427268 z " fill="url(#i)" fill-opacity="1" fill-rule="evenodd" stroke="#007f0a" stroke-width=".99741226" stroke-linecap="butt" stroke-linejoin="miter" stroke-miterlimit="4" stroke-dasharray="none" stroke-opacity="1"/>
  <path style="marker:none" d="M 98.846359 99.018867 A 47.094337 8.280323 0 1 1  4.6576843,99.018867 A 47.094337 8.280323 0 1 1  98.846359 99.018867 z" transform="matrix(-0.339351,0,0,0.362305,38.54361,8.124967)" opacity="1" color="#000" fill="url(#j)" fill-opacity="1" fill-rule="evenodd" stroke="none" stroke-width="2.99999905" stroke-linecap="round" stroke-linejoin="round" marker-start="none" marker-mid="none" marker-end="none" stroke-miterlimit="4" stroke-dasharray="none" stroke-dashoffset="0" stroke-opacity="1" visibility="visible" display="inline" overflow="visible"/>
  <path d="M 9.2954409,38.790215 C 13.177421,44.130943 31.405535,43.793101 34.961908,38.314509 C 38.51828,32.835916 26.702407,15.287432 21.434453,15.385067 C 16.165248,15.482726 5.4134612,33.449485 9.2954409,38.790215 z " fill="none" fill-opacity="1" fill-rule="evenodd" stroke="url(#k)" stroke-width=".93647546" stroke-linecap="butt" stroke-linejoin="miter" stroke-miterlimit="4" stroke-dasharray="none" stroke-opacity="1"/>
  <path d="M 5.5712161,33.579813 C 10.574187,40.442314 34.066003,40.008209 38.649344,32.968561 C 43.232682,25.928912 28.004761,3.3802093 21.215589,3.5056643 C 14.424803,3.6311503 0.56824381,26.71731 5.5712161,33.579813 z " fill="url(#l)" fill-opacity="1" fill-rule="evenodd" stroke="#007f0a" stroke-width="1.01028585" stroke-linecap="butt" stroke-linejoin="miter" stroke-miterlimit="4" stroke-dasharray="none" stroke-opacity="1"/>
  <path d="M 6.4839267,32.880934 C 11.208955,39.362186 33.395671,38.952197 37.72438,32.303641 C 42.053088,25.655083 27.671164,4.3590853 21.259168,4.4775723 C 14.845649,4.5960853 1.7588966,26.399682 6.4839267,32.880934 z " fill="none" fill-opacity="1" fill-rule="evenodd" stroke="url(#m)" stroke-width=".9541589" stroke-linecap="butt" stroke-linejoin="miter" stroke-miterlimit="4" stroke-dasharray="none" stroke-opacity="1"/>
  <path d="M 21.25,4 C 16.973165,4.0790311 9.8425991,13.542914 6.65625,22 C 14.168255,15.510826 24.887639,16.861914 37.15625,22 C 33.575271,13.521992 25.625373,3.9191488 21.25,4 z " fill="url(#n)" fill-opacity="1" fill-rule="evenodd" stroke="none" stroke-width="1.01028585" stroke-linecap="butt" stroke-linejoin="miter" stroke-miterlimit="4" stroke-dasharray="none" stroke-opacity="1"/>
</svg>
