<?xml version="1.0" standalone="no"?>
<!--Created with Inkscape (http://www.inkscape.org/)-->
<svg xmlns="http://www.w3.org/2000/svg" xmlns:xlink="http://www.w3.org/1999/xlink" viewBox="0 0 48 48">
  <defs>
    <linearGradient id="f">
      <stop offset="0" stop-color="#aaa" stop-opacity="1"/>
      <stop offset="0.5" stop-color="#dbdbdb" stop-opacity="1"/>
      <stop offset="0.75" stop-color="#8e8e8e" stop-opacity="1"/>
      <stop offset="1" stop-color="#a8a8a8" stop-opacity="1"/>
    </linearGradient>
    <linearGradient id="g">
      <stop offset="0" stop-color="white" stop-opacity="1"/>
      <stop offset="1" stop-color="gray" stop-opacity="1"/>
    </linearGradient>
    <linearGradient id="d">
      <stop offset="0" stop-color="#fff" stop-opacity="1"/>
      <stop offset="0.61764705" stop-color="#fff" stop-opacity="1"/>
      <stop offset="1" stop-color="#fff" stop-opacity="0"/>
    </linearGradient>
    <linearGradient id="e">
      <stop offset="0" stop-color="#9ec4f0" stop-opacity=".30653265"/>
      <stop offset="0.61764705" stop-color="#9ec4f0" stop-opacity=".3137255"/>
      <stop offset="1" stop-color="#9ec4f0" stop-opacity="1"/>
    </linearGradient>
    <linearGradient id="c">
      <stop offset="0" stop-color="#d57e00" stop-opacity="1"/>
      <stop offset="1" stop-color="#bfb600" stop-opacity="1"/>
    </linearGradient>
    <linearGradient id="a">
      <stop offset="0" stop-color="#fff" stop-opacity="1"/>
      <stop offset="1" stop-color="white" stop-opacity=".44313726"/>
    </linearGradient>
    <linearGradient id="b">
      <stop offset="0" stop-color="#c9c9c9" stop-opacity="1"/>
      <stop offset="0.5" stop-color="#fff" stop-opacity="1"/>
      <stop offset="0.75" stop-color="#a5a5a5" stop-opacity="1"/>
      <stop offset="1" stop-color="#d4d4d4" stop-opacity="1"/>
    </linearGradient>
    <linearGradient xlink:href="#a" id="l" gradientUnits="userSpaceOnUse" gradientTransform="matrix(1.614663,-1.663048,1.614663,1.663048,-9.275704,20.20955)" x1="14.607078" y1="6.4781427" x2="7.7626853" y2="13.879766"/>
    <linearGradient xlink:href="#b" id="j" gradientUnits="userSpaceOnUse" gradientTransform="matrix(2.52541,-2.549984,1.6378,1.653738,-18.0081,27.61456)" x1="6.9188247" y1="17.483641" x2="10.358043" y2="17.483641"/>
    <linearGradient xlink:href="#c" id="i" gradientUnits="userSpaceOnUse" gradientTransform="matrix(1.677012,-1.685581,1.677012,1.685581,-11.81476,19.36691)" x1="6.6440091" y1="20.073732" x2="10.793779" y2="20.073732"/>
    <radialGradient xlink:href="#d" id="o" gradientUnits="userSpaceOnUse" gradientTransform="matrix(1,-8.420189e-17,2.255455e-16,0.803279,1.094962e-14,0.985551)" cx="-5.3766184" cy="5.0098858" fx="-5.3766184" fy="5.0098858" r="4.372983"/>
    <radialGradient xlink:href="#d" id="n" gradientUnits="userSpaceOnUse" gradientTransform="matrix(1,1.323542e-16,1.812598e-16,0.803279,2.864913e-15,0.985551)" cx="-5.3766184" cy="5.0098858" fx="-5.3766184" fy="5.0098858" r="4.372983"/>
    <radialGradient xlink:href="#e" id="m" gradientUnits="userSpaceOnUse" gradientTransform="matrix(1.227473,-7.846193e-17,-2.511663e-16,1.227473,3.136218,-2.253726)" cx="-13.583885" cy="10.198135" fx="-13.583885" fy="10.198135" r="6.1843319"/>
    <linearGradient xlink:href="#f" id="h" gradientUnits="userSpaceOnUse" gradientTransform="matrix(1.759161,-1.66975,1.759161,1.66975,-9.884412,20.09135)" x1="2.939218" y1="3.7911859" x2="7.3838892" y2="14.346088"/>
    <linearGradient xlink:href="#b" id="k" gradientUnits="userSpaceOnUse" gradientTransform="matrix(1.578895,-1.624194,1.578895,1.624194,-8.323852,20.0842)" x1="2.939218" y1="3.7911859" x2="7.3838892" y2="14.346088"/>
    <linearGradient xlink:href="#g" id="p" x1="-14.412675" y1="15.501576" x2="-14.412678" y2="6.0857162" gradientUnits="userSpaceOnUse"/>
  </defs>
  <metadata/>
  <path style="marker:none" d="M 18.5 1.5 C 13.899687 1.486955 9.2927136 3.2643922 5.78125 6.875 C 5.671517 6.987831 5.5438047 7.135005 5.4375 7.25 C 2.5074948 10.419536 0.88315896 14.396313 0.5625 18.46875 C 0.51287601 19.050527 0.4920198 19.635399 0.5 20.21875 C 0.55893287 24.885558 2.3246542 29.539558 5.78125 33.09375 C 9.4763131 36.893144 14.400592 38.667406 19.25 38.46875 C 24.502404 38.666643 29.810389 36.892453 33.8125 33.09375 C 41.420391 25.872536 41.389145 14.158713 33.78125 6.9375 C 29.977303 3.3268938 24.983492 1.513045 20 1.5 C 19.740573 1.4993209 19.478048 1.5222188 19.21875 1.53125 C 18.978545 1.5207398 18.740326 1.5006815 18.5 1.5 z M 18.6875 5.5625 C 22.16091 5.7257926 25.600019 7.1000197 28.25 9.75 C 33.903292 15.403292 33.903291 24.596709 28.25 30.25 C 25.60002 32.89998 22.163956 34.303126 18.6875 34.46875 C 14.926735 34.299981 11.210559 32.896381 8.34375 30.25 C 2.2195728 24.596708 2.2195731 15.403291 8.34375 9.75 C 11.210558 7.1036191 14.930011 5.7288965 18.6875 5.5625 z " color="#000" fill="url(#h)" fill-opacity="1" fill-rule="nonzero" stroke="#505050" stroke-width=".99999964" stroke-linecap="round" stroke-linejoin="round" marker-start="none" marker-mid="none" marker-end="none" stroke-miterlimit="4" stroke-dasharray="none" stroke-dashoffset="0" stroke-opacity="1" visibility="visible" display="inline" overflow="visible"/>
  <path style="marker:none" d="M 29.500005,37.651973 L 35.620711,31.499991 L 43.441612,39.360855 C 47.012023,42.94951 40.640644,48.849535 37.320903,45.512837 L 29.500005,37.651973 z " color="#000" fill="url(#i)" fill-opacity="1" fill-rule="nonzero" stroke="#994700" stroke-width="1" stroke-linecap="round" stroke-linejoin="round" marker-start="none" marker-mid="none" marker-end="none" stroke-miterlimit="4" stroke-dasharray="none" stroke-dashoffset="0" stroke-opacity="1" visibility="visible" display="inline" overflow="visible"/>
  <path d="M 31.499995,38.261263 L 36.206859,33.500012 L 42.689559,40.057619 C 45.435229,42.835016 40.535595,47.401267 37.982693,44.81887 L 31.499995,38.261263 z " style="marker:none" color="#000" fill="none" fill-opacity="1" fill-rule="nonzero" stroke="#fff" stroke-width="1.00000024" stroke-linecap="round" stroke-linejoin="round" marker-start="none" marker-mid="none" marker-end="none" stroke-miterlimit="4" stroke-dasharray="none" stroke-dashoffset="0" stroke-opacity=".35678394" visibility="visible" display="inline" overflow="visible"/>
  <path style="marker:none" d="M 26.244688,36.718379 C 29.658941,35.038995 31.347686,33.166602 33.178058,30.797883 C 33.615281,30.048378 34.940743,27.789867 36.430472,29.354364 C 37.677511,30.869129 40.722107,33.51022 38.894993,34.153979 C 35.465188,34.153979 31.610767,39.295849 32.195669,41.47873 C 30.749641,42.65715 27.982033,38.787145 26.244688,36.718379 z " color="#000" fill="url(#j)" fill-opacity="1" fill-rule="nonzero" stroke="#505050" stroke-width="1.00000036" stroke-linecap="round" stroke-linejoin="round" marker-start="none" marker-mid="none" marker-end="none" stroke-miterlimit="4" stroke-dasharray="none" stroke-dashoffset="0" stroke-opacity="1" visibility="visible" display="inline" overflow="visible"/>
  <path style="marker:none" d="M 18.497297,2.0000705 C 14.024476,1.9873814 9.5451798,3.7163249 6.1310322,7.2284246 C 6.0243404,7.3381772 5.9001674,7.4813359 5.7968089,7.5931935 C -0.71474215,14.640191 -0.59056856,25.817403 6.1310322,32.731849 C 12.959324,39.75605 24.065655,39.75605 30.893946,32.731849 C 37.722239,25.707652 37.691857,14.313416 30.863562,7.2892194 C 27.449414,3.7771213 22.970118,2.0127596 18.497297,2.0000705 z M 18.011154,5.9213361 C 21.615819,5.9213361 25.228779,7.2754597 27.977087,10.024986 C 33.473706,15.524039 33.473705,24.466633 27.977087,29.965686 C 22.480471,35.464738 13.541837,35.464738 8.0452207,29.965686 C 2.5486036,24.466632 2.5486034,15.524038 8.0452207,10.024986 C 10.79353,7.2754597 14.406489,5.9213361 18.011154,5.9213361 z " color="#000" fill="url(#k)" fill-opacity="1" fill-rule="nonzero" stroke="none" stroke-width=".99999982" stroke-linecap="round" stroke-linejoin="round" marker-start="none" marker-mid="none" marker-end="none" stroke-miterlimit="4" stroke-dasharray="none" stroke-dashoffset="0" stroke-opacity="1" visibility="visible" display="inline" overflow="visible"/>
  <path style="marker:none" d="M 6.1943809,7.9822044 C -0.11010981,14.813579 0.020919828,25.634826 6.5287798,32.337702 C 13.139938,39.146971 23.898909,39.146971 30.510069,32.337702 C 37.121232,25.528428 37.073459,14.496257 30.462297,7.6869874 C 23.851139,0.87771684 13.139942,0.82851068 6.5287793,7.6377853 C 6.4254815,7.7441787 6.2944523,7.8737698 6.1943809,7.9822044 z " color="#000" fill="none" fill-opacity="1" fill-rule="nonzero" stroke="url(#l)" stroke-width="1.11072791" stroke-linecap="round" stroke-linejoin="round" marker-start="none" marker-mid="none" marker-end="none" stroke-miterlimit="4" stroke-dasharray="none" stroke-dashoffset="0" stroke-opacity="1" visibility="visible" display="inline" overflow="visible"/>
  <path style="marker:none" d="M -8.0092163 9.3271885 A 6.1843319 6.1843319 0 1 1  -20.37788,9.3271885 A 6.1843319 6.1843319 0 1 1  -8.0092163 9.3271885 z" transform="matrix(1.60098,-1.60098,1.60098,1.60098,25.79095,-17.65622)" color="#000" fill="url(#m)" fill-opacity="1" fill-rule="nonzero" stroke="none" stroke-width=".5" stroke-linecap="round" stroke-linejoin="round" marker-start="none" marker-mid="none" marker-end="none" stroke-miterlimit="4" stroke-dasharray="none" stroke-dashoffset="0" stroke-opacity="1" visibility="visible" display="inline" overflow="visible"/>
  <path style="marker:none" d="M -1.0036354 5.0098858 A 4.372983 3.5127239 0 1 1  -9.7496014,5.0098858 A 4.372983 3.5127239 0 1 1  -1.0036354 5.0098858 z" transform="matrix(1.001035,-1.866799,1.733844,1.077798,9.195824,1.56329)" opacity=".57213931" color="#000" fill="url(#n)" fill-opacity="1" fill-rule="nonzero" stroke="none" stroke-width=".5" stroke-linecap="round" stroke-linejoin="round" marker-start="none" marker-mid="none" marker-end="none" stroke-miterlimit="4" stroke-dasharray="none" stroke-dashoffset="0" stroke-opacity="1" visibility="visible" display="inline" overflow="visible"/>
  <path style="marker:none" d="M -1.0036354 5.0098858 A 4.372983 3.5127239 0 1 1  -9.7496014,5.0098858 A 4.372983 3.5127239 0 1 1  -1.0036354 5.0098858 z" transform="matrix(0.600622,-1.041154,1.040306,0.601112,23.5175,15.39412)" opacity=".38308459" color="#000" fill="url(#o)" fill-opacity="1" fill-rule="nonzero" stroke="none" stroke-width=".5" stroke-linecap="round" stroke-linejoin="round" marker-start="none" marker-mid="none" marker-end="none" stroke-miterlimit="4" stroke-dasharray="none" stroke-dashoffset="0" stroke-opacity="1" visibility="visible" display="inline" overflow="visible"/>
  <path style="marker:none" d="M -8.0092163 9.3271885 A 6.1843319 6.1843319 0 1 1  -20.37788,9.3271885 A 6.1843319 6.1843319 0 1 1  -8.0092163 9.3271885 z" transform="matrix(1.650606,-1.650607,1.650606,1.650607,26.03244,-18.82348)" color="#000" fill="none" fill-opacity="1" fill-rule="nonzero" stroke="url(#p)" stroke-width=".48496726" stroke-linecap="round" stroke-linejoin="round" marker-start="none" marker-mid="none" marker-end="none" stroke-miterlimit="4" stroke-dasharray="none" stroke-dashoffset="0" stroke-opacity="1" visibility="visible" display="inline" overflow="visible"/>
</svg>
