<?xml version="1.0" encoding="UTF-8" standalone="no"?>
<!-- Created with Inkscape (http://www.inkscape.org/) -->

<svg
   width="210mm"
   height="297mm"
   viewBox="0 0 210 297"
   version="1.1"
   id="svg1"
   inkscape:version="1.3.2 (091e20ef0f, 2023-11-25)"
   sodipodi:docname="svg.svg"
   xml:space="preserve"
   xmlns:inkscape="http://www.inkscape.org/namespaces/inkscape"
   xmlns:sodipodi="http://sodipodi.sourceforge.net/DTD/sodipodi-0.dtd"
   xmlns:xlink="http://www.w3.org/1999/xlink"
   xmlns="http://www.w3.org/2000/svg"
   xmlns:svg="http://www.w3.org/2000/svg"><sodipodi:namedview
     id="namedview1"
     pagecolor="#505050"
     bordercolor="#ffffff"
     borderopacity="1"
     inkscape:showpageshadow="0"
     inkscape:pageopacity="0"
     inkscape:pagecheckerboard="1"
     inkscape:deskcolor="#d1d1d1"
     inkscape:document-units="mm"
     showguides="true"
     inkscape:zoom="1.4274173"
     inkscape:cx="181.79688"
     inkscape:cy="397.57121"
     inkscape:window-width="3440"
     inkscape:window-height="1363"
     inkscape:window-x="0"
     inkscape:window-y="40"
     inkscape:window-maximized="1"
     inkscape:current-layer="g5"><sodipodi:guide
       position="136.75451,261.09231"
       orientation="0,-1"
       id="guide1"
       inkscape:locked="false" /></sodipodi:namedview><defs
     id="defs1"><inkscape:perspective
       sodipodi:type="inkscape:persp3d"
       inkscape:vp_x="0 : 526.18109 : 1"
       inkscape:vp_y="0 : 1000 : 0"
       inkscape:vp_z="744.09448 : 526.18109 : 1"
       inkscape:persp3d-origin="372.04724 : 350.78739 : 1"
       id="perspective5690" /><clipPath
       clipPathUnits="userSpaceOnUse"
       id="clipPath34"><g
         id="g37"
         clip-path="none"
         transform="translate(1.4011811,1.4011278)"
         style="display:none"><path
           style="fill:#351e10;fill-opacity:1;fill-rule:nonzero;stroke:#ff3800;stroke-width:2.02205;stroke-dasharray:none;stroke-opacity:1"
           d="m 1914.4932,1153.1294 c 2.2667,-11.5293 1.36,-22.9947 -0.2666,-34.4187 -14.9067,22.1387 -32.4,44.3574 -44.6534,75.668 -1.4533,11.3134 -1.0266,22.7787 2.5334,34.4907 0,0.015 0.013,0.029 0.013,0.051 0,0.019 0.013,0.045 0.013,0.064 9.72,28.8533 17.3334,60.0693 11.96,90.5693 -1.7333,8.8093 -4.2666,17.212 -7.52,25.1093 22.2267,-31.1693 35.0667,-58.496 28.7867,-104.34 -3.0533,-29.588 8.32,-57.8053 9.1333,-87.1933 z"
           id="path34" /><path
           style="fill:#351e10;fill-opacity:1;fill-rule:nonzero;stroke:#ff3800;stroke-width:2.02205;stroke-dasharray:none;stroke-opacity:1"
           d="m 1457.0132,1189.7907 c 6.9334,-9.34 12.72,-18.1186 16.9867,-27.06 -5.9867,-13.812 -16.1333,-25.3013 -34.1467,-36.0053 -24.0533,-18.0693 -46.7066,-39.5173 -64.04,-64.4013 9.4267,18.7586 23.4267,35.8813 36.72,59.7626 10.9467,22.692 17.28,48.1294 18.1867,73.2907 -0.1467,9.712 -0.56,19.4173 -1,29.124 9.8267,-10.9813 19.3867,-22.1387 27.2933,-34.7107 z"
           id="path35" /><path
           style="fill:#351e10;fill-opacity:1;fill-rule:nonzero;stroke:#ff3800;stroke-width:2.02205;stroke-dasharray:none;stroke-opacity:1"
           d="m 1745.9834,1414.1875 -42.5665,-10.3381 -17.0028,13.0184 c -17.1264,-0.049 -25.2547,-38.1756 -45.7994,-25.1844 -11.4815,7.2601 -11.9,40.7588 -24.1747,47.4246 -23.0424,12.5132 -12.7678,7.4221 -25.6163,3.6076 -10.8534,7.7973 -46.2343,-46.6545 -55.0076,-36.8572 -10.32,-17.9627 -4.7146,53.6968 -31.6346,47.9595 1.36,-20.2533 -12.1016,-27.4418 -24.7149,-43.3992 -17.6,-24.5 -33.12,-50.6586 -40.52,-80.172 -16.88,-43.748 18.6266,-69.4266 42.7466,-99.8866 17.2267,-24.5014 36.6534,-49.5907 42.48,-79.6187 3.2134,-21.8147 0.28,-43.1227 -3.9866,-64.3493 13.6933,25.156 33.32,46.8253 44.7066,73.2506 13.3067,39.608 26.0667,80.3534 29.72,122.6707 -0.6133,31.432 -14.04,60.8587 -23.8266,90.2613 25.84,-28.284 53.1333,-60.28 57.2933,-99.908 3.1067,-38.66 -3.9067,-77.6333 -16.48,-114.2333 -1.3733,-9.7467 -2.92,-19.4627 -4.64,-29.1293 -15.7467,-67.5734 49.5733,-91.0867 60.12,-151.36275 4.44,-25.41733 5.8133,-51.43467 5.8133,-77.20933 -0.1466,-4.588 -0.5333,-8.988 -1.1333,-13.228 6.28,11.74133 12.52,23.488 18.04,35.50133 9.5467,26.58667 19.04,53.60667 23.2,81.63335 7.3067,40.9774 -12.7067,78.48 -20.6933,117.552 -11.68,64.3307 20.6533,135.8534 88.3466,150.532 -3.4133,-4.4826 -7.08,-9.0226 -10.68,-13.4493 0.1334,0.176 0.2667,0.348 0.4,0.524 -7.6533,-9.788 -13.96,-20.5067 -19.0266,-31.8347 0.8266,-3.7333 2.72,-7.284 5.04,-10.2866 18.9333,-21.4587 39.9333,-43.1987 57.96,-65.952 14.4666,-18.708 28.7066,-38.9627 39.3733,-60.5614 -2.6267,16.4467 -9.0933,33.22 -20.4133,62.9494 -18.56,53.6213 -4.9734,75.6626 6.8,125.7026 5.4533,31.2414 -3.04,62.7934 -17.3734,90.5427 -7.5066,12.0347 -21.0794,37.4363 -32.0527,46.343 z"
           id="path36" /><path
           style="fill:#351e10;fill-opacity:1;fill-rule:nonzero;stroke:#ff3800;stroke-width:2.02205;stroke-dasharray:none;stroke-opacity:1"
           d="m 1403.8266,1363.6787 c -4.36,-11.716 -7.7067,-23.1706 -9.6934,-34.404 -11.56,-24.944 -11.0133,-54.2506 -9.76,-84.06 -8.4,-9.6213 -17.72,-18.548 -27.08,-27.2466 -0.1466,1.924 -0.3466,3.8533 -0.6133,5.7773 -3.08,28.9093 -3.36,58.1 8.6533,85.1747 4.76,14.904 10.0134,30.1973 22.0534,40.892 4.96,5.308 10.56,9.772 16.44,13.8666 z"
           id="path37" /></g><path
         id="lpe_path-effect37"
         class="powerclip"
         d="m 1288.6953,637.92305 h 676.6956 v 860.00855 h -676.6956 z m 625.7979,515.20635 c 2.2667,-11.5293 1.36,-22.9947 -0.2666,-34.4187 -14.9067,22.1387 -32.4,44.3574 -44.6534,75.668 -1.4533,11.3134 -1.0266,22.7787 2.5334,34.4907 0,0.015 0.013,0.029 0.013,0.051 0,0.019 0.013,0.045 0.013,0.064 9.72,28.8533 17.3334,60.0693 11.96,90.5693 -1.7333,8.8093 -4.2666,17.212 -7.52,25.1093 22.2267,-31.1693 35.0667,-58.496 28.7867,-104.34 -3.0533,-29.588 8.32,-57.8053 9.1333,-87.1933 z m -457.48,36.6613 c 6.9334,-9.34 12.72,-18.1186 16.9867,-27.06 -5.9867,-13.812 -16.1333,-25.3013 -34.1467,-36.0053 -24.0533,-18.0693 -46.7066,-39.5173 -64.04,-64.4013 9.4267,18.7586 23.4267,35.8813 36.72,59.7626 10.9467,22.692 17.28,48.1294 18.1867,73.2907 -0.1467,9.712 -0.56,19.4173 -1,29.124 9.8267,-10.9813 19.3867,-22.1387 27.2933,-34.7107 z m 288.9702,224.3968 44.6971,2.5129 c 10.9733,-8.9067 24.5461,-34.3083 32.0527,-46.343 14.3334,-27.7493 22.8267,-59.3013 17.3734,-90.5427 -11.7734,-50.04 -25.36,-72.0813 -6.8,-125.7026 11.32,-29.7294 17.7866,-46.5027 20.4133,-62.9494 -10.6667,21.5987 -24.9067,41.8534 -39.3733,60.5614 -18.0267,22.7533 -39.0267,44.4933 -57.96,65.952 -2.32,3.0026 -4.2134,6.5533 -5.04,10.2866 5.0666,11.328 11.3733,22.0467 19.0266,31.8347 -0.1333,-0.176 -0.2666,-0.348 -0.4,-0.524 3.6,4.4267 7.2667,8.9667 10.68,13.4493 -67.6933,-14.6786 -100.0266,-86.2013 -88.3466,-150.532 7.9866,-39.072 28,-76.5746 20.6933,-117.552 -4.16,-28.02668 -13.6533,-55.04668 -23.2,-81.63335 -5.52,-12.01333 -11.76,-23.76 -18.04,-35.50133 0.6,4.24 0.9867,8.64 1.1333,13.228 0,25.77466 -1.3733,51.792 -5.8133,77.20933 -10.5467,60.27605 -75.8667,83.78935 -60.12,151.36275 1.72,9.6666 3.2667,19.3826 4.64,29.1293 12.5733,36.6 19.5867,75.5733 16.48,114.2333 -4.16,39.628 -31.4533,71.624 -57.2933,99.908 9.7866,-29.4026 23.2133,-58.8293 23.8266,-90.2613 -3.6533,-42.3173 -16.4133,-83.0627 -29.72,-122.6707 -11.3866,-26.4253 -31.0133,-48.0946 -44.7066,-73.2506 4.2666,21.2266 7.2,42.5346 3.9866,64.3493 -5.8266,30.028 -25.2533,55.1173 -42.48,79.6187 -24.12,30.46 -59.6266,56.1386 -42.7466,99.8866 7.4,29.5134 22.92,55.672 40.52,80.172 12.6133,15.9574 26.0749,23.1459 24.7149,43.3992 26.92,5.7373 21.3146,-65.9222 31.6346,-47.9595 8.7733,-9.7973 44.1542,44.6545 55.0076,36.8572 12.8485,3.8145 2.5739,8.9056 25.6163,-3.6076 12.2747,-6.6658 12.6932,-40.1645 24.1747,-47.4246 20.5447,-12.9912 28.673,25.1354 45.7994,25.1844 l 17.0028,-13.0184 z m -342.1568,-50.5088 c -4.36,-11.716 -7.7067,-23.1706 -9.6934,-34.404 -11.56,-24.944 -11.0133,-54.2506 -9.76,-84.06 -8.4,-9.6213 -17.72,-18.548 -27.08,-27.2466 -0.1466,1.924 -0.3466,3.8533 -0.6133,5.7773 -3.08,28.9093 -3.36,58.1 8.6533,85.1747 4.76,14.904 10.0134,30.1973 22.0534,40.892 4.96,5.308 10.56,9.772 16.44,13.8666 z" /></clipPath><inkscape:path-effect
       effect="powerclip"
       id="path-effect37"
       is_visible="true"
       lpeversion="1"
       inverse="true"
       flatten="false"
       hide_clip="false"
       message="Use fill-rule evenodd on &lt;b&gt;fill and stroke&lt;/b&gt; dialog if no flatten result after convert clip to paths." /><clipPath
       clipPathUnits="userSpaceOnUse"
       id="clipPath5"><g
         id="g4"
         clip-path="none"
         transform="translate(1.4011811,1.4011278)"
         style="display:none"><path
           style="fill:#351e10;fill-opacity:1;fill-rule:nonzero;stroke:#ff3800;stroke-width:2.02205;stroke-dasharray:none;stroke-opacity:1"
           d="m 1914.4932,1153.1294 c 2.2667,-11.5293 1.36,-22.9947 -0.2666,-34.4187 -14.9067,22.1387 -32.4,44.3574 -44.6534,75.668 -1.4533,11.3134 -1.0266,22.7787 2.5334,34.4907 0,0.015 0.013,0.029 0.013,0.051 0,0.019 0.013,0.045 0.013,0.064 9.72,28.8533 17.3334,60.0693 11.96,90.5693 -1.7333,8.8093 -4.2666,17.212 -7.52,25.1093 22.2267,-31.1693 35.0667,-58.496 28.7867,-104.34 -3.0533,-29.588 8.32,-57.8053 9.1333,-87.1933 z"
           id="path1-2" /><path
           style="fill:#351e10;fill-opacity:1;fill-rule:nonzero;stroke:#ff3800;stroke-width:2.02205;stroke-dasharray:none;stroke-opacity:1"
           d="m 1457.0132,1189.7907 c 6.9334,-9.34 12.72,-18.1186 16.9867,-27.06 -5.9867,-13.812 -16.1333,-25.3013 -34.1467,-36.0053 -24.0533,-18.0693 -46.7066,-39.5173 -64.04,-64.4013 9.4267,18.7586 23.4267,35.8813 36.72,59.7626 10.9467,22.692 17.28,48.1294 18.1867,73.2907 -0.1467,9.712 -0.56,19.4173 -1,29.124 9.8267,-10.9813 19.3867,-22.1387 27.2933,-34.7107 z"
           id="path2-3" /><path
           style="fill:#351e10;fill-opacity:1;fill-rule:nonzero;stroke:#ff3800;stroke-width:2.02205;stroke-dasharray:none;stroke-opacity:1"
           d="m 1745.9834,1414.1875 -42.5665,-10.3381 -17.0028,13.0184 c -17.1264,-0.049 -25.2547,-38.1756 -45.7994,-25.1844 -11.4815,7.2601 -11.9,40.7588 -24.1747,47.4246 -23.0424,12.5132 -12.7678,7.4221 -25.6163,3.6076 -10.8534,7.7973 -46.2343,-46.6545 -55.0076,-36.8572 -10.32,-17.9627 -4.7146,53.6968 -31.6346,47.9595 1.36,-20.2533 -12.1016,-27.4418 -24.7149,-43.3992 -17.6,-24.5 -33.12,-50.6586 -40.52,-80.172 -16.88,-43.748 18.6266,-69.4266 42.7466,-99.8866 17.2267,-24.5014 36.6534,-49.5907 42.48,-79.6187 3.2134,-21.8147 0.28,-43.1227 -3.9866,-64.3493 13.6933,25.156 33.32,46.8253 44.7066,73.2506 13.3067,39.608 26.0667,80.3534 29.72,122.6707 -0.6133,31.432 -14.04,60.8587 -23.8266,90.2613 25.84,-28.284 53.1333,-60.28 57.2933,-99.908 3.1067,-38.66 -3.9067,-77.6333 -16.48,-114.2333 -1.3733,-9.7467 -2.92,-19.4627 -4.64,-29.1293 -15.7467,-67.5734 49.5733,-91.0867 60.12,-151.36275 4.44,-25.41733 5.8133,-51.43467 5.8133,-77.20933 -0.1466,-4.588 -0.5333,-8.988 -1.1333,-13.228 6.28,11.74133 12.52,23.488 18.04,35.50133 9.5467,26.58667 19.04,53.60667 23.2,81.63335 7.3067,40.9774 -12.7067,78.48 -20.6933,117.552 -11.68,64.3307 20.6533,135.8534 88.3466,150.532 -3.4133,-4.4826 -7.08,-9.0226 -10.68,-13.4493 0.1334,0.176 0.2667,0.348 0.4,0.524 -7.6533,-9.788 -13.96,-20.5067 -19.0266,-31.8347 0.8266,-3.7333 2.72,-7.284 5.04,-10.2866 18.9333,-21.4587 39.9333,-43.1987 57.96,-65.952 14.4666,-18.708 28.7066,-38.9627 39.3733,-60.5614 -2.6267,16.4467 -9.0933,33.22 -20.4133,62.9494 -18.56,53.6213 -4.9734,75.6626 6.8,125.7026 5.4533,31.2414 -3.04,62.7934 -17.3734,90.5427 -7.5066,12.0347 -21.0794,37.4363 -32.0527,46.343 z"
           id="path3-7" /><path
           style="fill:#351e10;fill-opacity:1;fill-rule:nonzero;stroke:#ff3800;stroke-width:2.02205;stroke-dasharray:none;stroke-opacity:1"
           d="m 1403.8266,1363.6787 c -4.36,-11.716 -7.7067,-23.1706 -9.6934,-34.404 -11.56,-24.944 -11.0133,-54.2506 -9.76,-84.06 -8.4,-9.6213 -17.72,-18.548 -27.08,-27.2466 -0.1466,1.924 -0.3466,3.8533 -0.6133,5.7773 -3.08,28.9093 -3.36,58.1 8.6533,85.1747 4.76,14.904 10.0134,30.1973 22.0534,40.892 4.96,5.308 10.56,9.772 16.44,13.8666 z"
           id="path4-5" /></g><path
         id="path5"
         class="powerclip"
         d="m 1288.6953,637.92305 h 676.6956 v 860.00855 h -676.6956 z m 625.7979,515.20635 c 2.2667,-11.5293 1.36,-22.9947 -0.2666,-34.4187 -14.9067,22.1387 -32.4,44.3574 -44.6534,75.668 -1.4533,11.3134 -1.0266,22.7787 2.5334,34.4907 0,0.015 0.013,0.029 0.013,0.051 0,0.019 0.013,0.045 0.013,0.064 9.72,28.8533 17.3334,60.0693 11.96,90.5693 -1.7333,8.8093 -4.2666,17.212 -7.52,25.1093 22.2267,-31.1693 35.0667,-58.496 28.7867,-104.34 -3.0533,-29.588 8.32,-57.8053 9.1333,-87.1933 z m -457.48,36.6613 c 6.9334,-9.34 12.72,-18.1186 16.9867,-27.06 -5.9867,-13.812 -16.1333,-25.3013 -34.1467,-36.0053 -24.0533,-18.0693 -46.7066,-39.5173 -64.04,-64.4013 9.4267,18.7586 23.4267,35.8813 36.72,59.7626 10.9467,22.692 17.28,48.1294 18.1867,73.2907 -0.1467,9.712 -0.56,19.4173 -1,29.124 9.8267,-10.9813 19.3867,-22.1387 27.2933,-34.7107 z m 288.9702,224.3968 44.6971,2.5129 c 10.9733,-8.9067 24.5461,-34.3083 32.0527,-46.343 14.3334,-27.7493 22.8267,-59.3013 17.3734,-90.5427 -11.7734,-50.04 -25.36,-72.0813 -6.8,-125.7026 11.32,-29.7294 17.7866,-46.5027 20.4133,-62.9494 -10.6667,21.5987 -24.9067,41.8534 -39.3733,60.5614 -18.0267,22.7533 -39.0267,44.4933 -57.96,65.952 -2.32,3.0026 -4.2134,6.5533 -5.04,10.2866 5.0666,11.328 11.3733,22.0467 19.0266,31.8347 -0.1333,-0.176 -0.2666,-0.348 -0.4,-0.524 3.6,4.4267 7.2667,8.9667 10.68,13.4493 -67.6933,-14.6786 -100.0266,-86.2013 -88.3466,-150.532 7.9866,-39.072 28,-76.5746 20.6933,-117.552 -4.16,-28.02668 -13.6533,-55.04668 -23.2,-81.63335 -5.52,-12.01333 -11.76,-23.76 -18.04,-35.50133 0.6,4.24 0.9867,8.64 1.1333,13.228 0,25.77466 -1.3733,51.792 -5.8133,77.20933 -10.5467,60.27605 -75.8667,83.78935 -60.12,151.36275 1.72,9.6666 3.2667,19.3826 4.64,29.1293 12.5733,36.6 19.5867,75.5733 16.48,114.2333 -4.16,39.628 -31.4533,71.624 -57.2933,99.908 9.7866,-29.4026 23.2133,-58.8293 23.8266,-90.2613 -3.6533,-42.3173 -16.4133,-83.0627 -29.72,-122.6707 -11.3866,-26.4253 -31.0133,-48.0946 -44.7066,-73.2506 4.2666,21.2266 7.2,42.5346 3.9866,64.3493 -5.8266,30.028 -25.2533,55.1173 -42.48,79.6187 -24.12,30.46 -59.6266,56.1386 -42.7466,99.8866 7.4,29.5134 22.92,55.672 40.52,80.172 12.6133,15.9574 26.0749,23.1459 24.7149,43.3992 26.92,5.7373 21.3146,-65.9222 31.6346,-47.9595 8.7733,-9.7973 44.1542,44.6545 55.0076,36.8572 12.8485,3.8145 2.5739,8.9056 25.6163,-3.6076 12.2747,-6.6658 12.6932,-40.1645 24.1747,-47.4246 20.5447,-12.9912 28.673,25.1354 45.7994,25.1844 l 17.0028,-13.0184 z m -342.1568,-50.5088 c -4.36,-11.716 -7.7067,-23.1706 -9.6934,-34.404 -11.56,-24.944 -11.0133,-54.2506 -9.76,-84.06 -8.4,-9.6213 -17.72,-18.548 -27.08,-27.2466 -0.1466,1.924 -0.3466,3.8533 -0.6133,5.7773 -3.08,28.9093 -3.36,58.1 8.6533,85.1747 4.76,14.904 10.0134,30.1973 22.0534,40.892 4.96,5.308 10.56,9.772 16.44,13.8666 z" /></clipPath><inkscape:path-effect
       effect="powerclip"
       id="path-effect5"
       is_visible="true"
       lpeversion="1"
       inverse="true"
       flatten="false"
       hide_clip="false"
       message="Use fill-rule evenodd on &lt;b&gt;fill and stroke&lt;/b&gt; dialog if no flatten result after convert clip to paths." /><clipPath
       clipPathUnits="userSpaceOnUse"
       id="clipPath10"><g
         id="g9"
         clip-path="none"
         transform="translate(1.4011811,1.4011278)"
         style="display:none"><path
           style="fill:#351e10;fill-opacity:1;fill-rule:nonzero;stroke:#ff3800;stroke-width:2.02205;stroke-dasharray:none;stroke-opacity:1"
           d="m 1914.4932,1153.1294 c 2.2667,-11.5293 1.36,-22.9947 -0.2666,-34.4187 -14.9067,22.1387 -32.4,44.3574 -44.6534,75.668 -1.4533,11.3134 -1.0266,22.7787 2.5334,34.4907 0,0.015 0.013,0.029 0.013,0.051 0,0.019 0.013,0.045 0.013,0.064 9.72,28.8533 17.3334,60.0693 11.96,90.5693 -1.7333,8.8093 -4.2666,17.212 -7.52,25.1093 22.2267,-31.1693 35.0667,-58.496 28.7867,-104.34 -3.0533,-29.588 8.32,-57.8053 9.1333,-87.1933 z"
           id="path6" /><path
           style="fill:#351e10;fill-opacity:1;fill-rule:nonzero;stroke:#ff3800;stroke-width:2.02205;stroke-dasharray:none;stroke-opacity:1"
           d="m 1457.0132,1189.7907 c 6.9334,-9.34 12.72,-18.1186 16.9867,-27.06 -5.9867,-13.812 -16.1333,-25.3013 -34.1467,-36.0053 -24.0533,-18.0693 -46.7066,-39.5173 -64.04,-64.4013 9.4267,18.7586 23.4267,35.8813 36.72,59.7626 10.9467,22.692 17.28,48.1294 18.1867,73.2907 -0.1467,9.712 -0.56,19.4173 -1,29.124 9.8267,-10.9813 19.3867,-22.1387 27.2933,-34.7107 z"
           id="path7" /><path
           style="fill:#351e10;fill-opacity:1;fill-rule:nonzero;stroke:#ff3800;stroke-width:2.02205;stroke-dasharray:none;stroke-opacity:1"
           d="m 1745.9834,1414.1875 -42.5665,-10.3381 -17.0028,13.0184 c -17.1264,-0.049 -25.2547,-38.1756 -45.7994,-25.1844 -11.4815,7.2601 -11.9,40.7588 -24.1747,47.4246 -23.0424,12.5132 -12.7678,7.4221 -25.6163,3.6076 -10.8534,7.7973 -46.2343,-46.6545 -55.0076,-36.8572 -10.32,-17.9627 -4.7146,53.6968 -31.6346,47.9595 1.36,-20.2533 -12.1016,-27.4418 -24.7149,-43.3992 -17.6,-24.5 -33.12,-50.6586 -40.52,-80.172 -16.88,-43.748 18.6266,-69.4266 42.7466,-99.8866 17.2267,-24.5014 36.6534,-49.5907 42.48,-79.6187 3.2134,-21.8147 0.28,-43.1227 -3.9866,-64.3493 13.6933,25.156 33.32,46.8253 44.7066,73.2506 13.3067,39.608 26.0667,80.3534 29.72,122.6707 -0.6133,31.432 -14.04,60.8587 -23.8266,90.2613 25.84,-28.284 53.1333,-60.28 57.2933,-99.908 3.1067,-38.66 -3.9067,-77.6333 -16.48,-114.2333 -1.3733,-9.7467 -2.92,-19.4627 -4.64,-29.1293 -15.7467,-67.5734 49.5733,-91.0867 60.12,-151.36275 4.44,-25.41733 5.8133,-51.43467 5.8133,-77.20933 -0.1466,-4.588 -0.5333,-8.988 -1.1333,-13.228 6.28,11.74133 12.52,23.488 18.04,35.50133 9.5467,26.58667 19.04,53.60667 23.2,81.63335 7.3067,40.9774 -12.7067,78.48 -20.6933,117.552 -11.68,64.3307 20.6533,135.8534 88.3466,150.532 -3.4133,-4.4826 -7.08,-9.0226 -10.68,-13.4493 0.1334,0.176 0.2667,0.348 0.4,0.524 -7.6533,-9.788 -13.96,-20.5067 -19.0266,-31.8347 0.8266,-3.7333 2.72,-7.284 5.04,-10.2866 18.9333,-21.4587 39.9333,-43.1987 57.96,-65.952 14.4666,-18.708 28.7066,-38.9627 39.3733,-60.5614 -2.6267,16.4467 -9.0933,33.22 -20.4133,62.9494 -18.56,53.6213 -4.9734,75.6626 6.8,125.7026 5.4533,31.2414 -3.04,62.7934 -17.3734,90.5427 -7.5066,12.0347 -21.0794,37.4363 -32.0527,46.343 z"
           id="path8" /><path
           style="fill:#351e10;fill-opacity:1;fill-rule:nonzero;stroke:#ff3800;stroke-width:2.02205;stroke-dasharray:none;stroke-opacity:1"
           d="m 1403.8266,1363.6787 c -4.36,-11.716 -7.7067,-23.1706 -9.6934,-34.404 -11.56,-24.944 -11.0133,-54.2506 -9.76,-84.06 -8.4,-9.6213 -17.72,-18.548 -27.08,-27.2466 -0.1466,1.924 -0.3466,3.8533 -0.6133,5.7773 -3.08,28.9093 -3.36,58.1 8.6533,85.1747 4.76,14.904 10.0134,30.1973 22.0534,40.892 4.96,5.308 10.56,9.772 16.44,13.8666 z"
           id="path9" /></g><path
         id="path10"
         class="powerclip"
         d="m 1288.6953,637.92305 h 676.6956 v 860.00855 h -676.6956 z m 625.7979,515.20635 c 2.2667,-11.5293 1.36,-22.9947 -0.2666,-34.4187 -14.9067,22.1387 -32.4,44.3574 -44.6534,75.668 -1.4533,11.3134 -1.0266,22.7787 2.5334,34.4907 0,0.015 0.013,0.029 0.013,0.051 0,0.019 0.013,0.045 0.013,0.064 9.72,28.8533 17.3334,60.0693 11.96,90.5693 -1.7333,8.8093 -4.2666,17.212 -7.52,25.1093 22.2267,-31.1693 35.0667,-58.496 28.7867,-104.34 -3.0533,-29.588 8.32,-57.8053 9.1333,-87.1933 z m -457.48,36.6613 c 6.9334,-9.34 12.72,-18.1186 16.9867,-27.06 -5.9867,-13.812 -16.1333,-25.3013 -34.1467,-36.0053 -24.0533,-18.0693 -46.7066,-39.5173 -64.04,-64.4013 9.4267,18.7586 23.4267,35.8813 36.72,59.7626 10.9467,22.692 17.28,48.1294 18.1867,73.2907 -0.1467,9.712 -0.56,19.4173 -1,29.124 9.8267,-10.9813 19.3867,-22.1387 27.2933,-34.7107 z m 288.9702,224.3968 44.6971,2.5129 c 10.9733,-8.9067 24.5461,-34.3083 32.0527,-46.343 14.3334,-27.7493 22.8267,-59.3013 17.3734,-90.5427 -11.7734,-50.04 -25.36,-72.0813 -6.8,-125.7026 11.32,-29.7294 17.7866,-46.5027 20.4133,-62.9494 -10.6667,21.5987 -24.9067,41.8534 -39.3733,60.5614 -18.0267,22.7533 -39.0267,44.4933 -57.96,65.952 -2.32,3.0026 -4.2134,6.5533 -5.04,10.2866 5.0666,11.328 11.3733,22.0467 19.0266,31.8347 -0.1333,-0.176 -0.2666,-0.348 -0.4,-0.524 3.6,4.4267 7.2667,8.9667 10.68,13.4493 -67.6933,-14.6786 -100.0266,-86.2013 -88.3466,-150.532 7.9866,-39.072 28,-76.5746 20.6933,-117.552 -4.16,-28.02668 -13.6533,-55.04668 -23.2,-81.63335 -5.52,-12.01333 -11.76,-23.76 -18.04,-35.50133 0.6,4.24 0.9867,8.64 1.1333,13.228 0,25.77466 -1.3733,51.792 -5.8133,77.20933 -10.5467,60.27605 -75.8667,83.78935 -60.12,151.36275 1.72,9.6666 3.2667,19.3826 4.64,29.1293 12.5733,36.6 19.5867,75.5733 16.48,114.2333 -4.16,39.628 -31.4533,71.624 -57.2933,99.908 9.7866,-29.4026 23.2133,-58.8293 23.8266,-90.2613 -3.6533,-42.3173 -16.4133,-83.0627 -29.72,-122.6707 -11.3866,-26.4253 -31.0133,-48.0946 -44.7066,-73.2506 4.2666,21.2266 7.2,42.5346 3.9866,64.3493 -5.8266,30.028 -25.2533,55.1173 -42.48,79.6187 -24.12,30.46 -59.6266,56.1386 -42.7466,99.8866 7.4,29.5134 22.92,55.672 40.52,80.172 12.6133,15.9574 26.0749,23.1459 24.7149,43.3992 26.92,5.7373 21.3146,-65.9222 31.6346,-47.9595 8.7733,-9.7973 44.1542,44.6545 55.0076,36.8572 12.8485,3.8145 2.5739,8.9056 25.6163,-3.6076 12.2747,-6.6658 12.6932,-40.1645 24.1747,-47.4246 20.5447,-12.9912 28.673,25.1354 45.7994,25.1844 l 17.0028,-13.0184 z m -342.1568,-50.5088 c -4.36,-11.716 -7.7067,-23.1706 -9.6934,-34.404 -11.56,-24.944 -11.0133,-54.2506 -9.76,-84.06 -8.4,-9.6213 -17.72,-18.548 -27.08,-27.2466 -0.1466,1.924 -0.3466,3.8533 -0.6133,5.7773 -3.08,28.9093 -3.36,58.1 8.6533,85.1747 4.76,14.904 10.0134,30.1973 22.0534,40.892 4.96,5.308 10.56,9.772 16.44,13.8666 z" /></clipPath><inkscape:path-effect
       effect="powerclip"
       id="path-effect10"
       is_visible="true"
       lpeversion="1"
       inverse="true"
       flatten="false"
       hide_clip="false"
       message="Use fill-rule evenodd on &lt;b&gt;fill and stroke&lt;/b&gt; dialog if no flatten result after convert clip to paths." /><clipPath
       clipPathUnits="userSpaceOnUse"
       id="clipPath15"><g
         id="g14"
         clip-path="none"
         transform="translate(1.4011811,1.4011278)"
         style="display:none"><path
           style="fill:#351e10;fill-opacity:1;fill-rule:nonzero;stroke:#ff3800;stroke-width:2.02205;stroke-dasharray:none;stroke-opacity:1"
           d="m 1914.4932,1153.1294 c 2.2667,-11.5293 1.36,-22.9947 -0.2666,-34.4187 -14.9067,22.1387 -32.4,44.3574 -44.6534,75.668 -1.4533,11.3134 -1.0266,22.7787 2.5334,34.4907 0,0.015 0.013,0.029 0.013,0.051 0,0.019 0.013,0.045 0.013,0.064 9.72,28.8533 17.3334,60.0693 11.96,90.5693 -1.7333,8.8093 -4.2666,17.212 -7.52,25.1093 22.2267,-31.1693 35.0667,-58.496 28.7867,-104.34 -3.0533,-29.588 8.32,-57.8053 9.1333,-87.1933 z"
           id="path11" /><path
           style="fill:#351e10;fill-opacity:1;fill-rule:nonzero;stroke:#ff3800;stroke-width:2.02205;stroke-dasharray:none;stroke-opacity:1"
           d="m 1457.0132,1189.7907 c 6.9334,-9.34 12.72,-18.1186 16.9867,-27.06 -5.9867,-13.812 -16.1333,-25.3013 -34.1467,-36.0053 -24.0533,-18.0693 -46.7066,-39.5173 -64.04,-64.4013 9.4267,18.7586 23.4267,35.8813 36.72,59.7626 10.9467,22.692 17.28,48.1294 18.1867,73.2907 -0.1467,9.712 -0.56,19.4173 -1,29.124 9.8267,-10.9813 19.3867,-22.1387 27.2933,-34.7107 z"
           id="path12" /><path
           style="fill:#351e10;fill-opacity:1;fill-rule:nonzero;stroke:#ff3800;stroke-width:2.02205;stroke-dasharray:none;stroke-opacity:1"
           d="m 1745.9834,1414.1875 -42.5665,-10.3381 -17.0028,13.0184 c -17.1264,-0.049 -25.2547,-38.1756 -45.7994,-25.1844 -11.4815,7.2601 -11.9,40.7588 -24.1747,47.4246 -23.0424,12.5132 -12.7678,7.4221 -25.6163,3.6076 -10.8534,7.7973 -46.2343,-46.6545 -55.0076,-36.8572 -10.32,-17.9627 -4.7146,53.6968 -31.6346,47.9595 1.36,-20.2533 -12.1016,-27.4418 -24.7149,-43.3992 -17.6,-24.5 -33.12,-50.6586 -40.52,-80.172 -16.88,-43.748 18.6266,-69.4266 42.7466,-99.8866 17.2267,-24.5014 36.6534,-49.5907 42.48,-79.6187 3.2134,-21.8147 0.28,-43.1227 -3.9866,-64.3493 13.6933,25.156 33.32,46.8253 44.7066,73.2506 13.3067,39.608 26.0667,80.3534 29.72,122.6707 -0.6133,31.432 -14.04,60.8587 -23.8266,90.2613 25.84,-28.284 53.1333,-60.28 57.2933,-99.908 3.1067,-38.66 -3.9067,-77.6333 -16.48,-114.2333 -1.3733,-9.7467 -2.92,-19.4627 -4.64,-29.1293 -15.7467,-67.5734 49.5733,-91.0867 60.12,-151.36275 4.44,-25.41733 5.8133,-51.43467 5.8133,-77.20933 -0.1466,-4.588 -0.5333,-8.988 -1.1333,-13.228 6.28,11.74133 12.52,23.488 18.04,35.50133 9.5467,26.58667 19.04,53.60667 23.2,81.63335 7.3067,40.9774 -12.7067,78.48 -20.6933,117.552 -11.68,64.3307 20.6533,135.8534 88.3466,150.532 -3.4133,-4.4826 -7.08,-9.0226 -10.68,-13.4493 0.1334,0.176 0.2667,0.348 0.4,0.524 -7.6533,-9.788 -13.96,-20.5067 -19.0266,-31.8347 0.8266,-3.7333 2.72,-7.284 5.04,-10.2866 18.9333,-21.4587 39.9333,-43.1987 57.96,-65.952 14.4666,-18.708 28.7066,-38.9627 39.3733,-60.5614 -2.6267,16.4467 -9.0933,33.22 -20.4133,62.9494 -18.56,53.6213 -4.9734,75.6626 6.8,125.7026 5.4533,31.2414 -3.04,62.7934 -17.3734,90.5427 -7.5066,12.0347 -21.0794,37.4363 -32.0527,46.343 z"
           id="path13" /><path
           style="fill:#351e10;fill-opacity:1;fill-rule:nonzero;stroke:#ff3800;stroke-width:2.02205;stroke-dasharray:none;stroke-opacity:1"
           d="m 1403.8266,1363.6787 c -4.36,-11.716 -7.7067,-23.1706 -9.6934,-34.404 -11.56,-24.944 -11.0133,-54.2506 -9.76,-84.06 -8.4,-9.6213 -17.72,-18.548 -27.08,-27.2466 -0.1466,1.924 -0.3466,3.8533 -0.6133,5.7773 -3.08,28.9093 -3.36,58.1 8.6533,85.1747 4.76,14.904 10.0134,30.1973 22.0534,40.892 4.96,5.308 10.56,9.772 16.44,13.8666 z"
           id="path14" /></g><path
         id="path15"
         class="powerclip"
         d="m 1288.6953,637.92305 h 676.6956 v 860.00855 h -676.6956 z m 625.7979,515.20635 c 2.2667,-11.5293 1.36,-22.9947 -0.2666,-34.4187 -14.9067,22.1387 -32.4,44.3574 -44.6534,75.668 -1.4533,11.3134 -1.0266,22.7787 2.5334,34.4907 0,0.015 0.013,0.029 0.013,0.051 0,0.019 0.013,0.045 0.013,0.064 9.72,28.8533 17.3334,60.0693 11.96,90.5693 -1.7333,8.8093 -4.2666,17.212 -7.52,25.1093 22.2267,-31.1693 35.0667,-58.496 28.7867,-104.34 -3.0533,-29.588 8.32,-57.8053 9.1333,-87.1933 z m -457.48,36.6613 c 6.9334,-9.34 12.72,-18.1186 16.9867,-27.06 -5.9867,-13.812 -16.1333,-25.3013 -34.1467,-36.0053 -24.0533,-18.0693 -46.7066,-39.5173 -64.04,-64.4013 9.4267,18.7586 23.4267,35.8813 36.72,59.7626 10.9467,22.692 17.28,48.1294 18.1867,73.2907 -0.1467,9.712 -0.56,19.4173 -1,29.124 9.8267,-10.9813 19.3867,-22.1387 27.2933,-34.7107 z m 288.9702,224.3968 44.6971,2.5129 c 10.9733,-8.9067 24.5461,-34.3083 32.0527,-46.343 14.3334,-27.7493 22.8267,-59.3013 17.3734,-90.5427 -11.7734,-50.04 -25.36,-72.0813 -6.8,-125.7026 11.32,-29.7294 17.7866,-46.5027 20.4133,-62.9494 -10.6667,21.5987 -24.9067,41.8534 -39.3733,60.5614 -18.0267,22.7533 -39.0267,44.4933 -57.96,65.952 -2.32,3.0026 -4.2134,6.5533 -5.04,10.2866 5.0666,11.328 11.3733,22.0467 19.0266,31.8347 -0.1333,-0.176 -0.2666,-0.348 -0.4,-0.524 3.6,4.4267 7.2667,8.9667 10.68,13.4493 -67.6933,-14.6786 -100.0266,-86.2013 -88.3466,-150.532 7.9866,-39.072 28,-76.5746 20.6933,-117.552 -4.16,-28.02668 -13.6533,-55.04668 -23.2,-81.63335 -5.52,-12.01333 -11.76,-23.76 -18.04,-35.50133 0.6,4.24 0.9867,8.64 1.1333,13.228 0,25.77466 -1.3733,51.792 -5.8133,77.20933 -10.5467,60.27605 -75.8667,83.78935 -60.12,151.36275 1.72,9.6666 3.2667,19.3826 4.64,29.1293 12.5733,36.6 19.5867,75.5733 16.48,114.2333 -4.16,39.628 -31.4533,71.624 -57.2933,99.908 9.7866,-29.4026 23.2133,-58.8293 23.8266,-90.2613 -3.6533,-42.3173 -16.4133,-83.0627 -29.72,-122.6707 -11.3866,-26.4253 -31.0133,-48.0946 -44.7066,-73.2506 4.2666,21.2266 7.2,42.5346 3.9866,64.3493 -5.8266,30.028 -25.2533,55.1173 -42.48,79.6187 -24.12,30.46 -59.6266,56.1386 -42.7466,99.8866 7.4,29.5134 22.92,55.672 40.52,80.172 12.6133,15.9574 26.0749,23.1459 24.7149,43.3992 26.92,5.7373 21.3146,-65.9222 31.6346,-47.9595 8.7733,-9.7973 44.1542,44.6545 55.0076,36.8572 12.8485,3.8145 2.5739,8.9056 25.6163,-3.6076 12.2747,-6.6658 12.6932,-40.1645 24.1747,-47.4246 20.5447,-12.9912 28.673,25.1354 45.7994,25.1844 l 17.0028,-13.0184 z m -342.1568,-50.5088 c -4.36,-11.716 -7.7067,-23.1706 -9.6934,-34.404 -11.56,-24.944 -11.0133,-54.2506 -9.76,-84.06 -8.4,-9.6213 -17.72,-18.548 -27.08,-27.2466 -0.1466,1.924 -0.3466,3.8533 -0.6133,5.7773 -3.08,28.9093 -3.36,58.1 8.6533,85.1747 4.76,14.904 10.0134,30.1973 22.0534,40.892 4.96,5.308 10.56,9.772 16.44,13.8666 z" /></clipPath><inkscape:path-effect
       effect="powerclip"
       id="path-effect15"
       is_visible="true"
       lpeversion="1"
       inverse="true"
       flatten="false"
       hide_clip="false"
       message="Use fill-rule evenodd on &lt;b&gt;fill and stroke&lt;/b&gt; dialog if no flatten result after convert clip to paths." /><clipPath
       clipPathUnits="userSpaceOnUse"
       id="clipPath20"><g
         id="g19"
         clip-path="none"
         transform="translate(1.4011811,1.4011278)"
         style="display:none"><path
           style="fill:#351e10;fill-opacity:1;fill-rule:nonzero;stroke:#ff3800;stroke-width:2.02205;stroke-dasharray:none;stroke-opacity:1"
           d="m 1914.4932,1153.1294 c 2.2667,-11.5293 1.36,-22.9947 -0.2666,-34.4187 -14.9067,22.1387 -32.4,44.3574 -44.6534,75.668 -1.4533,11.3134 -1.0266,22.7787 2.5334,34.4907 0,0.015 0.013,0.029 0.013,0.051 0,0.019 0.013,0.045 0.013,0.064 9.72,28.8533 17.3334,60.0693 11.96,90.5693 -1.7333,8.8093 -4.2666,17.212 -7.52,25.1093 22.2267,-31.1693 35.0667,-58.496 28.7867,-104.34 -3.0533,-29.588 8.32,-57.8053 9.1333,-87.1933 z"
           id="path16" /><path
           style="fill:#351e10;fill-opacity:1;fill-rule:nonzero;stroke:#ff3800;stroke-width:2.02205;stroke-dasharray:none;stroke-opacity:1"
           d="m 1457.0132,1189.7907 c 6.9334,-9.34 12.72,-18.1186 16.9867,-27.06 -5.9867,-13.812 -16.1333,-25.3013 -34.1467,-36.0053 -24.0533,-18.0693 -46.7066,-39.5173 -64.04,-64.4013 9.4267,18.7586 23.4267,35.8813 36.72,59.7626 10.9467,22.692 17.28,48.1294 18.1867,73.2907 -0.1467,9.712 -0.56,19.4173 -1,29.124 9.8267,-10.9813 19.3867,-22.1387 27.2933,-34.7107 z"
           id="path17" /><path
           style="fill:#351e10;fill-opacity:1;fill-rule:nonzero;stroke:#ff3800;stroke-width:2.02205;stroke-dasharray:none;stroke-opacity:1"
           d="m 1745.9834,1414.1875 -42.5665,-10.3381 -17.0028,13.0184 c -17.1264,-0.049 -25.2547,-38.1756 -45.7994,-25.1844 -11.4815,7.2601 -11.9,40.7588 -24.1747,47.4246 -23.0424,12.5132 -12.7678,7.4221 -25.6163,3.6076 -10.8534,7.7973 -46.2343,-46.6545 -55.0076,-36.8572 -10.32,-17.9627 -4.7146,53.6968 -31.6346,47.9595 1.36,-20.2533 -12.1016,-27.4418 -24.7149,-43.3992 -17.6,-24.5 -33.12,-50.6586 -40.52,-80.172 -16.88,-43.748 18.6266,-69.4266 42.7466,-99.8866 17.2267,-24.5014 36.6534,-49.5907 42.48,-79.6187 3.2134,-21.8147 0.28,-43.1227 -3.9866,-64.3493 13.6933,25.156 33.32,46.8253 44.7066,73.2506 13.3067,39.608 26.0667,80.3534 29.72,122.6707 -0.6133,31.432 -14.04,60.8587 -23.8266,90.2613 25.84,-28.284 53.1333,-60.28 57.2933,-99.908 3.1067,-38.66 -3.9067,-77.6333 -16.48,-114.2333 -1.3733,-9.7467 -2.92,-19.4627 -4.64,-29.1293 -15.7467,-67.5734 49.5733,-91.0867 60.12,-151.36275 4.44,-25.41733 5.8133,-51.43467 5.8133,-77.20933 -0.1466,-4.588 -0.5333,-8.988 -1.1333,-13.228 6.28,11.74133 12.52,23.488 18.04,35.50133 9.5467,26.58667 19.04,53.60667 23.2,81.63335 7.3067,40.9774 -12.7067,78.48 -20.6933,117.552 -11.68,64.3307 20.6533,135.8534 88.3466,150.532 -3.4133,-4.4826 -7.08,-9.0226 -10.68,-13.4493 0.1334,0.176 0.2667,0.348 0.4,0.524 -7.6533,-9.788 -13.96,-20.5067 -19.0266,-31.8347 0.8266,-3.7333 2.72,-7.284 5.04,-10.2866 18.9333,-21.4587 39.9333,-43.1987 57.96,-65.952 14.4666,-18.708 28.7066,-38.9627 39.3733,-60.5614 -2.6267,16.4467 -9.0933,33.22 -20.4133,62.9494 -18.56,53.6213 -4.9734,75.6626 6.8,125.7026 5.4533,31.2414 -3.04,62.7934 -17.3734,90.5427 -7.5066,12.0347 -21.0794,37.4363 -32.0527,46.343 z"
           id="path18" /><path
           style="fill:#351e10;fill-opacity:1;fill-rule:nonzero;stroke:#ff3800;stroke-width:2.02205;stroke-dasharray:none;stroke-opacity:1"
           d="m 1403.8266,1363.6787 c -4.36,-11.716 -7.7067,-23.1706 -9.6934,-34.404 -11.56,-24.944 -11.0133,-54.2506 -9.76,-84.06 -8.4,-9.6213 -17.72,-18.548 -27.08,-27.2466 -0.1466,1.924 -0.3466,3.8533 -0.6133,5.7773 -3.08,28.9093 -3.36,58.1 8.6533,85.1747 4.76,14.904 10.0134,30.1973 22.0534,40.892 4.96,5.308 10.56,9.772 16.44,13.8666 z"
           id="path19" /></g><path
         id="path20"
         class="powerclip"
         d="m 1288.6953,637.92305 h 676.6956 v 860.00855 h -676.6956 z m 625.7979,515.20635 c 2.2667,-11.5293 1.36,-22.9947 -0.2666,-34.4187 -14.9067,22.1387 -32.4,44.3574 -44.6534,75.668 -1.4533,11.3134 -1.0266,22.7787 2.5334,34.4907 0,0.015 0.013,0.029 0.013,0.051 0,0.019 0.013,0.045 0.013,0.064 9.72,28.8533 17.3334,60.0693 11.96,90.5693 -1.7333,8.8093 -4.2666,17.212 -7.52,25.1093 22.2267,-31.1693 35.0667,-58.496 28.7867,-104.34 -3.0533,-29.588 8.32,-57.8053 9.1333,-87.1933 z m -457.48,36.6613 c 6.9334,-9.34 12.72,-18.1186 16.9867,-27.06 -5.9867,-13.812 -16.1333,-25.3013 -34.1467,-36.0053 -24.0533,-18.0693 -46.7066,-39.5173 -64.04,-64.4013 9.4267,18.7586 23.4267,35.8813 36.72,59.7626 10.9467,22.692 17.28,48.1294 18.1867,73.2907 -0.1467,9.712 -0.56,19.4173 -1,29.124 9.8267,-10.9813 19.3867,-22.1387 27.2933,-34.7107 z m 288.9702,224.3968 44.6971,2.5129 c 10.9733,-8.9067 24.5461,-34.3083 32.0527,-46.343 14.3334,-27.7493 22.8267,-59.3013 17.3734,-90.5427 -11.7734,-50.04 -25.36,-72.0813 -6.8,-125.7026 11.32,-29.7294 17.7866,-46.5027 20.4133,-62.9494 -10.6667,21.5987 -24.9067,41.8534 -39.3733,60.5614 -18.0267,22.7533 -39.0267,44.4933 -57.96,65.952 -2.32,3.0026 -4.2134,6.5533 -5.04,10.2866 5.0666,11.328 11.3733,22.0467 19.0266,31.8347 -0.1333,-0.176 -0.2666,-0.348 -0.4,-0.524 3.6,4.4267 7.2667,8.9667 10.68,13.4493 -67.6933,-14.6786 -100.0266,-86.2013 -88.3466,-150.532 7.9866,-39.072 28,-76.5746 20.6933,-117.552 -4.16,-28.02668 -13.6533,-55.04668 -23.2,-81.63335 -5.52,-12.01333 -11.76,-23.76 -18.04,-35.50133 0.6,4.24 0.9867,8.64 1.1333,13.228 0,25.77466 -1.3733,51.792 -5.8133,77.20933 -10.5467,60.27605 -75.8667,83.78935 -60.12,151.36275 1.72,9.6666 3.2667,19.3826 4.64,29.1293 12.5733,36.6 19.5867,75.5733 16.48,114.2333 -4.16,39.628 -31.4533,71.624 -57.2933,99.908 9.7866,-29.4026 23.2133,-58.8293 23.8266,-90.2613 -3.6533,-42.3173 -16.4133,-83.0627 -29.72,-122.6707 -11.3866,-26.4253 -31.0133,-48.0946 -44.7066,-73.2506 4.2666,21.2266 7.2,42.5346 3.9866,64.3493 -5.8266,30.028 -25.2533,55.1173 -42.48,79.6187 -24.12,30.46 -59.6266,56.1386 -42.7466,99.8866 7.4,29.5134 22.92,55.672 40.52,80.172 12.6133,15.9574 26.0749,23.1459 24.7149,43.3992 26.92,5.7373 21.3146,-65.9222 31.6346,-47.9595 8.7733,-9.7973 44.1542,44.6545 55.0076,36.8572 12.8485,3.8145 2.5739,8.9056 25.6163,-3.6076 12.2747,-6.6658 12.6932,-40.1645 24.1747,-47.4246 20.5447,-12.9912 28.673,25.1354 45.7994,25.1844 l 17.0028,-13.0184 z m -342.1568,-50.5088 c -4.36,-11.716 -7.7067,-23.1706 -9.6934,-34.404 -11.56,-24.944 -11.0133,-54.2506 -9.76,-84.06 -8.4,-9.6213 -17.72,-18.548 -27.08,-27.2466 -0.1466,1.924 -0.3466,3.8533 -0.6133,5.7773 -3.08,28.9093 -3.36,58.1 8.6533,85.1747 4.76,14.904 10.0134,30.1973 22.0534,40.892 4.96,5.308 10.56,9.772 16.44,13.8666 z" /></clipPath><inkscape:path-effect
       effect="powerclip"
       id="path-effect20"
       is_visible="true"
       lpeversion="1"
       inverse="true"
       flatten="false"
       hide_clip="false"
       message="Use fill-rule evenodd on &lt;b&gt;fill and stroke&lt;/b&gt; dialog if no flatten result after convert clip to paths." /><clipPath
       clipPathUnits="userSpaceOnUse"
       id="clipPath25"><g
         id="g24"
         clip-path="none"
         transform="translate(1.4011811,1.4011278)"
         style="display:none"><path
           style="fill:#351e10;fill-opacity:1;fill-rule:nonzero;stroke:#ff3800;stroke-width:2.02205;stroke-dasharray:none;stroke-opacity:1"
           d="m 1914.4932,1153.1294 c 2.2667,-11.5293 1.36,-22.9947 -0.2666,-34.4187 -14.9067,22.1387 -32.4,44.3574 -44.6534,75.668 -1.4533,11.3134 -1.0266,22.7787 2.5334,34.4907 0,0.015 0.013,0.029 0.013,0.051 0,0.019 0.013,0.045 0.013,0.064 9.72,28.8533 17.3334,60.0693 11.96,90.5693 -1.7333,8.8093 -4.2666,17.212 -7.52,25.1093 22.2267,-31.1693 35.0667,-58.496 28.7867,-104.34 -3.0533,-29.588 8.32,-57.8053 9.1333,-87.1933 z"
           id="path21" /><path
           style="fill:#351e10;fill-opacity:1;fill-rule:nonzero;stroke:#ff3800;stroke-width:2.02205;stroke-dasharray:none;stroke-opacity:1"
           d="m 1457.0132,1189.7907 c 6.9334,-9.34 12.72,-18.1186 16.9867,-27.06 -5.9867,-13.812 -16.1333,-25.3013 -34.1467,-36.0053 -24.0533,-18.0693 -46.7066,-39.5173 -64.04,-64.4013 9.4267,18.7586 23.4267,35.8813 36.72,59.7626 10.9467,22.692 17.28,48.1294 18.1867,73.2907 -0.1467,9.712 -0.56,19.4173 -1,29.124 9.8267,-10.9813 19.3867,-22.1387 27.2933,-34.7107 z"
           id="path22" /><path
           style="fill:#351e10;fill-opacity:1;fill-rule:nonzero;stroke:#ff3800;stroke-width:2.02205;stroke-dasharray:none;stroke-opacity:1"
           d="m 1745.9834,1414.1875 -42.5665,-10.3381 -17.0028,13.0184 c -17.1264,-0.049 -25.2547,-38.1756 -45.7994,-25.1844 -11.4815,7.2601 -11.9,40.7588 -24.1747,47.4246 -23.0424,12.5132 -12.7678,7.4221 -25.6163,3.6076 -10.8534,7.7973 -46.2343,-46.6545 -55.0076,-36.8572 -10.32,-17.9627 -4.7146,53.6968 -31.6346,47.9595 1.36,-20.2533 -12.1016,-27.4418 -24.7149,-43.3992 -17.6,-24.5 -33.12,-50.6586 -40.52,-80.172 -16.88,-43.748 18.6266,-69.4266 42.7466,-99.8866 17.2267,-24.5014 36.6534,-49.5907 42.48,-79.6187 3.2134,-21.8147 0.28,-43.1227 -3.9866,-64.3493 13.6933,25.156 33.32,46.8253 44.7066,73.2506 13.3067,39.608 26.0667,80.3534 29.72,122.6707 -0.6133,31.432 -14.04,60.8587 -23.8266,90.2613 25.84,-28.284 53.1333,-60.28 57.2933,-99.908 3.1067,-38.66 -3.9067,-77.6333 -16.48,-114.2333 -1.3733,-9.7467 -2.92,-19.4627 -4.64,-29.1293 -15.7467,-67.5734 49.5733,-91.0867 60.12,-151.36275 4.44,-25.41733 5.8133,-51.43467 5.8133,-77.20933 -0.1466,-4.588 -0.5333,-8.988 -1.1333,-13.228 6.28,11.74133 12.52,23.488 18.04,35.50133 9.5467,26.58667 19.04,53.60667 23.2,81.63335 7.3067,40.9774 -12.7067,78.48 -20.6933,117.552 -11.68,64.3307 20.6533,135.8534 88.3466,150.532 -3.4133,-4.4826 -7.08,-9.0226 -10.68,-13.4493 0.1334,0.176 0.2667,0.348 0.4,0.524 -7.6533,-9.788 -13.96,-20.5067 -19.0266,-31.8347 0.8266,-3.7333 2.72,-7.284 5.04,-10.2866 18.9333,-21.4587 39.9333,-43.1987 57.96,-65.952 14.4666,-18.708 28.7066,-38.9627 39.3733,-60.5614 -2.6267,16.4467 -9.0933,33.22 -20.4133,62.9494 -18.56,53.6213 -4.9734,75.6626 6.8,125.7026 5.4533,31.2414 -3.04,62.7934 -17.3734,90.5427 -7.5066,12.0347 -21.0794,37.4363 -32.0527,46.343 z"
           id="path23" /><path
           style="fill:#351e10;fill-opacity:1;fill-rule:nonzero;stroke:#ff3800;stroke-width:2.02205;stroke-dasharray:none;stroke-opacity:1"
           d="m 1403.8266,1363.6787 c -4.36,-11.716 -7.7067,-23.1706 -9.6934,-34.404 -11.56,-24.944 -11.0133,-54.2506 -9.76,-84.06 -8.4,-9.6213 -17.72,-18.548 -27.08,-27.2466 -0.1466,1.924 -0.3466,3.8533 -0.6133,5.7773 -3.08,28.9093 -3.36,58.1 8.6533,85.1747 4.76,14.904 10.0134,30.1973 22.0534,40.892 4.96,5.308 10.56,9.772 16.44,13.8666 z"
           id="path24" /></g><path
         id="path25"
         class="powerclip"
         d="m 1288.6953,637.92305 h 676.6956 v 860.00855 h -676.6956 z m 625.7979,515.20635 c 2.2667,-11.5293 1.36,-22.9947 -0.2666,-34.4187 -14.9067,22.1387 -32.4,44.3574 -44.6534,75.668 -1.4533,11.3134 -1.0266,22.7787 2.5334,34.4907 0,0.015 0.013,0.029 0.013,0.051 0,0.019 0.013,0.045 0.013,0.064 9.72,28.8533 17.3334,60.0693 11.96,90.5693 -1.7333,8.8093 -4.2666,17.212 -7.52,25.1093 22.2267,-31.1693 35.0667,-58.496 28.7867,-104.34 -3.0533,-29.588 8.32,-57.8053 9.1333,-87.1933 z m -457.48,36.6613 c 6.9334,-9.34 12.72,-18.1186 16.9867,-27.06 -5.9867,-13.812 -16.1333,-25.3013 -34.1467,-36.0053 -24.0533,-18.0693 -46.7066,-39.5173 -64.04,-64.4013 9.4267,18.7586 23.4267,35.8813 36.72,59.7626 10.9467,22.692 17.28,48.1294 18.1867,73.2907 -0.1467,9.712 -0.56,19.4173 -1,29.124 9.8267,-10.9813 19.3867,-22.1387 27.2933,-34.7107 z m 288.9702,224.3968 44.6971,2.5129 c 10.9733,-8.9067 24.5461,-34.3083 32.0527,-46.343 14.3334,-27.7493 22.8267,-59.3013 17.3734,-90.5427 -11.7734,-50.04 -25.36,-72.0813 -6.8,-125.7026 11.32,-29.7294 17.7866,-46.5027 20.4133,-62.9494 -10.6667,21.5987 -24.9067,41.8534 -39.3733,60.5614 -18.0267,22.7533 -39.0267,44.4933 -57.96,65.952 -2.32,3.0026 -4.2134,6.5533 -5.04,10.2866 5.0666,11.328 11.3733,22.0467 19.0266,31.8347 -0.1333,-0.176 -0.2666,-0.348 -0.4,-0.524 3.6,4.4267 7.2667,8.9667 10.68,13.4493 -67.6933,-14.6786 -100.0266,-86.2013 -88.3466,-150.532 7.9866,-39.072 28,-76.5746 20.6933,-117.552 -4.16,-28.02668 -13.6533,-55.04668 -23.2,-81.63335 -5.52,-12.01333 -11.76,-23.76 -18.04,-35.50133 0.6,4.24 0.9867,8.64 1.1333,13.228 0,25.77466 -1.3733,51.792 -5.8133,77.20933 -10.5467,60.27605 -75.8667,83.78935 -60.12,151.36275 1.72,9.6666 3.2667,19.3826 4.64,29.1293 12.5733,36.6 19.5867,75.5733 16.48,114.2333 -4.16,39.628 -31.4533,71.624 -57.2933,99.908 9.7866,-29.4026 23.2133,-58.8293 23.8266,-90.2613 -3.6533,-42.3173 -16.4133,-83.0627 -29.72,-122.6707 -11.3866,-26.4253 -31.0133,-48.0946 -44.7066,-73.2506 4.2666,21.2266 7.2,42.5346 3.9866,64.3493 -5.8266,30.028 -25.2533,55.1173 -42.48,79.6187 -24.12,30.46 -59.6266,56.1386 -42.7466,99.8866 7.4,29.5134 22.92,55.672 40.52,80.172 12.6133,15.9574 26.0749,23.1459 24.7149,43.3992 26.92,5.7373 21.3146,-65.9222 31.6346,-47.9595 8.7733,-9.7973 44.1542,44.6545 55.0076,36.8572 12.8485,3.8145 2.5739,8.9056 25.6163,-3.6076 12.2747,-6.6658 12.6932,-40.1645 24.1747,-47.4246 20.5447,-12.9912 28.673,25.1354 45.7994,25.1844 l 17.0028,-13.0184 z m -342.1568,-50.5088 c -4.36,-11.716 -7.7067,-23.1706 -9.6934,-34.404 -11.56,-24.944 -11.0133,-54.2506 -9.76,-84.06 -8.4,-9.6213 -17.72,-18.548 -27.08,-27.2466 -0.1466,1.924 -0.3466,3.8533 -0.6133,5.7773 -3.08,28.9093 -3.36,58.1 8.6533,85.1747 4.76,14.904 10.0134,30.1973 22.0534,40.892 4.96,5.308 10.56,9.772 16.44,13.8666 z" /></clipPath><inkscape:path-effect
       effect="powerclip"
       id="path-effect25"
       is_visible="true"
       lpeversion="1"
       inverse="true"
       flatten="false"
       hide_clip="false"
       message="Use fill-rule evenodd on &lt;b&gt;fill and stroke&lt;/b&gt; dialog if no flatten result after convert clip to paths." /><clipPath
       clipPathUnits="userSpaceOnUse"
       id="clipPath30"><g
         id="g29"
         clip-path="none"
         transform="translate(1.4011811,1.4011278)"
         style="display:none"><path
           style="fill:#351e10;fill-opacity:1;fill-rule:nonzero;stroke:#ff3800;stroke-width:2.02205;stroke-dasharray:none;stroke-opacity:1"
           d="m 1914.4932,1153.1294 c 2.2667,-11.5293 1.36,-22.9947 -0.2666,-34.4187 -14.9067,22.1387 -32.4,44.3574 -44.6534,75.668 -1.4533,11.3134 -1.0266,22.7787 2.5334,34.4907 0,0.015 0.013,0.029 0.013,0.051 0,0.019 0.013,0.045 0.013,0.064 9.72,28.8533 17.3334,60.0693 11.96,90.5693 -1.7333,8.8093 -4.2666,17.212 -7.52,25.1093 22.2267,-31.1693 35.0667,-58.496 28.7867,-104.34 -3.0533,-29.588 8.32,-57.8053 9.1333,-87.1933 z"
           id="path26" /><path
           style="fill:#351e10;fill-opacity:1;fill-rule:nonzero;stroke:#ff3800;stroke-width:2.02205;stroke-dasharray:none;stroke-opacity:1"
           d="m 1457.0132,1189.7907 c 6.9334,-9.34 12.72,-18.1186 16.9867,-27.06 -5.9867,-13.812 -16.1333,-25.3013 -34.1467,-36.0053 -24.0533,-18.0693 -46.7066,-39.5173 -64.04,-64.4013 9.4267,18.7586 23.4267,35.8813 36.72,59.7626 10.9467,22.692 17.28,48.1294 18.1867,73.2907 -0.1467,9.712 -0.56,19.4173 -1,29.124 9.8267,-10.9813 19.3867,-22.1387 27.2933,-34.7107 z"
           id="path27" /><path
           style="fill:#351e10;fill-opacity:1;fill-rule:nonzero;stroke:#ff3800;stroke-width:2.02205;stroke-dasharray:none;stroke-opacity:1"
           d="m 1745.9834,1414.1875 -42.5665,-10.3381 -17.0028,13.0184 c -17.1264,-0.049 -25.2547,-38.1756 -45.7994,-25.1844 -11.4815,7.2601 -11.9,40.7588 -24.1747,47.4246 -23.0424,12.5132 -12.7678,7.4221 -25.6163,3.6076 -10.8534,7.7973 -46.2343,-46.6545 -55.0076,-36.8572 -10.32,-17.9627 -4.7146,53.6968 -31.6346,47.9595 1.36,-20.2533 -12.1016,-27.4418 -24.7149,-43.3992 -17.6,-24.5 -33.12,-50.6586 -40.52,-80.172 -16.88,-43.748 18.6266,-69.4266 42.7466,-99.8866 17.2267,-24.5014 36.6534,-49.5907 42.48,-79.6187 3.2134,-21.8147 0.28,-43.1227 -3.9866,-64.3493 13.6933,25.156 33.32,46.8253 44.7066,73.2506 13.3067,39.608 26.0667,80.3534 29.72,122.6707 -0.6133,31.432 -14.04,60.8587 -23.8266,90.2613 25.84,-28.284 53.1333,-60.28 57.2933,-99.908 3.1067,-38.66 -3.9067,-77.6333 -16.48,-114.2333 -1.3733,-9.7467 -2.92,-19.4627 -4.64,-29.1293 -15.7467,-67.5734 49.5733,-91.0867 60.12,-151.36275 4.44,-25.41733 5.8133,-51.43467 5.8133,-77.20933 -0.1466,-4.588 -0.5333,-8.988 -1.1333,-13.228 6.28,11.74133 12.52,23.488 18.04,35.50133 9.5467,26.58667 19.04,53.60667 23.2,81.63335 7.3067,40.9774 -12.7067,78.48 -20.6933,117.552 -11.68,64.3307 20.6533,135.8534 88.3466,150.532 -3.4133,-4.4826 -7.08,-9.0226 -10.68,-13.4493 0.1334,0.176 0.2667,0.348 0.4,0.524 -7.6533,-9.788 -13.96,-20.5067 -19.0266,-31.8347 0.8266,-3.7333 2.72,-7.284 5.04,-10.2866 18.9333,-21.4587 39.9333,-43.1987 57.96,-65.952 14.4666,-18.708 28.7066,-38.9627 39.3733,-60.5614 -2.6267,16.4467 -9.0933,33.22 -20.4133,62.9494 -18.56,53.6213 -4.9734,75.6626 6.8,125.7026 5.4533,31.2414 -3.04,62.7934 -17.3734,90.5427 -7.5066,12.0347 -21.0794,37.4363 -32.0527,46.343 z"
           id="path28" /><path
           style="fill:#351e10;fill-opacity:1;fill-rule:nonzero;stroke:#ff3800;stroke-width:2.02205;stroke-dasharray:none;stroke-opacity:1"
           d="m 1403.8266,1363.6787 c -4.36,-11.716 -7.7067,-23.1706 -9.6934,-34.404 -11.56,-24.944 -11.0133,-54.2506 -9.76,-84.06 -8.4,-9.6213 -17.72,-18.548 -27.08,-27.2466 -0.1466,1.924 -0.3466,3.8533 -0.6133,5.7773 -3.08,28.9093 -3.36,58.1 8.6533,85.1747 4.76,14.904 10.0134,30.1973 22.0534,40.892 4.96,5.308 10.56,9.772 16.44,13.8666 z"
           id="path29" /></g><path
         id="path30"
         class="powerclip"
         d="m 1288.6953,637.92305 h 676.6956 v 860.00855 h -676.6956 z m 625.7979,515.20635 c 2.2667,-11.5293 1.36,-22.9947 -0.2666,-34.4187 -14.9067,22.1387 -32.4,44.3574 -44.6534,75.668 -1.4533,11.3134 -1.0266,22.7787 2.5334,34.4907 0,0.015 0.013,0.029 0.013,0.051 0,0.019 0.013,0.045 0.013,0.064 9.72,28.8533 17.3334,60.0693 11.96,90.5693 -1.7333,8.8093 -4.2666,17.212 -7.52,25.1093 22.2267,-31.1693 35.0667,-58.496 28.7867,-104.34 -3.0533,-29.588 8.32,-57.8053 9.1333,-87.1933 z m -457.48,36.6613 c 6.9334,-9.34 12.72,-18.1186 16.9867,-27.06 -5.9867,-13.812 -16.1333,-25.3013 -34.1467,-36.0053 -24.0533,-18.0693 -46.7066,-39.5173 -64.04,-64.4013 9.4267,18.7586 23.4267,35.8813 36.72,59.7626 10.9467,22.692 17.28,48.1294 18.1867,73.2907 -0.1467,9.712 -0.56,19.4173 -1,29.124 9.8267,-10.9813 19.3867,-22.1387 27.2933,-34.7107 z m 288.9702,224.3968 44.6971,2.5129 c 10.9733,-8.9067 24.5461,-34.3083 32.0527,-46.343 14.3334,-27.7493 22.8267,-59.3013 17.3734,-90.5427 -11.7734,-50.04 -25.36,-72.0813 -6.8,-125.7026 11.32,-29.7294 17.7866,-46.5027 20.4133,-62.9494 -10.6667,21.5987 -24.9067,41.8534 -39.3733,60.5614 -18.0267,22.7533 -39.0267,44.4933 -57.96,65.952 -2.32,3.0026 -4.2134,6.5533 -5.04,10.2866 5.0666,11.328 11.3733,22.0467 19.0266,31.8347 -0.1333,-0.176 -0.2666,-0.348 -0.4,-0.524 3.6,4.4267 7.2667,8.9667 10.68,13.4493 -67.6933,-14.6786 -100.0266,-86.2013 -88.3466,-150.532 7.9866,-39.072 28,-76.5746 20.6933,-117.552 -4.16,-28.02668 -13.6533,-55.04668 -23.2,-81.63335 -5.52,-12.01333 -11.76,-23.76 -18.04,-35.50133 0.6,4.24 0.9867,8.64 1.1333,13.228 0,25.77466 -1.3733,51.792 -5.8133,77.20933 -10.5467,60.27605 -75.8667,83.78935 -60.12,151.36275 1.72,9.6666 3.2667,19.3826 4.64,29.1293 12.5733,36.6 19.5867,75.5733 16.48,114.2333 -4.16,39.628 -31.4533,71.624 -57.2933,99.908 9.7866,-29.4026 23.2133,-58.8293 23.8266,-90.2613 -3.6533,-42.3173 -16.4133,-83.0627 -29.72,-122.6707 -11.3866,-26.4253 -31.0133,-48.0946 -44.7066,-73.2506 4.2666,21.2266 7.2,42.5346 3.9866,64.3493 -5.8266,30.028 -25.2533,55.1173 -42.48,79.6187 -24.12,30.46 -59.6266,56.1386 -42.7466,99.8866 7.4,29.5134 22.92,55.672 40.52,80.172 12.6133,15.9574 26.0749,23.1459 24.7149,43.3992 26.92,5.7373 21.3146,-65.9222 31.6346,-47.9595 8.7733,-9.7973 44.1542,44.6545 55.0076,36.8572 12.8485,3.8145 2.5739,8.9056 25.6163,-3.6076 12.2747,-6.6658 12.6932,-40.1645 24.1747,-47.4246 20.5447,-12.9912 28.673,25.1354 45.7994,25.1844 l 17.0028,-13.0184 z m -342.1568,-50.5088 c -4.36,-11.716 -7.7067,-23.1706 -9.6934,-34.404 -11.56,-24.944 -11.0133,-54.2506 -9.76,-84.06 -8.4,-9.6213 -17.72,-18.548 -27.08,-27.2466 -0.1466,1.924 -0.3466,3.8533 -0.6133,5.7773 -3.08,28.9093 -3.36,58.1 8.6533,85.1747 4.76,14.904 10.0134,30.1973 22.0534,40.892 4.96,5.308 10.56,9.772 16.44,13.8666 z" /></clipPath><inkscape:path-effect
       effect="powerclip"
       id="path-effect30"
       is_visible="true"
       lpeversion="1"
       inverse="true"
       flatten="false"
       hide_clip="false"
       message="Use fill-rule evenodd on &lt;b&gt;fill and stroke&lt;/b&gt; dialog if no flatten result after convert clip to paths." /><clipPath
       clipPathUnits="userSpaceOnUse"
       id="clipPath39"><g
         id="g38"
         clip-path="none"
         transform="translate(1.4011811,1.4011278)"
         style="display:none"><path
           style="fill:#351e10;fill-opacity:1;fill-rule:nonzero;stroke:#ff3800;stroke-width:2.02205;stroke-dasharray:none;stroke-opacity:1"
           d="m 1914.4932,1153.1294 c 2.2667,-11.5293 1.36,-22.9947 -0.2666,-34.4187 -14.9067,22.1387 -32.4,44.3574 -44.6534,75.668 -1.4533,11.3134 -1.0266,22.7787 2.5334,34.4907 0,0.015 0.013,0.029 0.013,0.051 0,0.019 0.013,0.045 0.013,0.064 9.72,28.8533 17.3334,60.0693 11.96,90.5693 -1.7333,8.8093 -4.2666,17.212 -7.52,25.1093 22.2267,-31.1693 35.0667,-58.496 28.7867,-104.34 -3.0533,-29.588 8.32,-57.8053 9.1333,-87.1933 z"
           id="path31" /><path
           style="fill:#351e10;fill-opacity:1;fill-rule:nonzero;stroke:#ff3800;stroke-width:2.02205;stroke-dasharray:none;stroke-opacity:1"
           d="m 1457.0132,1189.7907 c 6.9334,-9.34 12.72,-18.1186 16.9867,-27.06 -5.9867,-13.812 -16.1333,-25.3013 -34.1467,-36.0053 -24.0533,-18.0693 -46.7066,-39.5173 -64.04,-64.4013 9.4267,18.7586 23.4267,35.8813 36.72,59.7626 10.9467,22.692 17.28,48.1294 18.1867,73.2907 -0.1467,9.712 -0.56,19.4173 -1,29.124 9.8267,-10.9813 19.3867,-22.1387 27.2933,-34.7107 z"
           id="path32" /><path
           style="fill:#351e10;fill-opacity:1;fill-rule:nonzero;stroke:#ff3800;stroke-width:2.02205;stroke-dasharray:none;stroke-opacity:1"
           d="m 1745.9834,1414.1875 -42.5665,-10.3381 -17.0028,13.0184 c -17.1264,-0.049 -25.2547,-38.1756 -45.7994,-25.1844 -11.4815,7.2601 -11.9,40.7588 -24.1747,47.4246 -23.0424,12.5132 -12.7678,7.4221 -25.6163,3.6076 -10.8534,7.7973 -46.2343,-46.6545 -55.0076,-36.8572 -10.32,-17.9627 -4.7146,53.6968 -31.6346,47.9595 1.36,-20.2533 -12.1016,-27.4418 -24.7149,-43.3992 -17.6,-24.5 -33.12,-50.6586 -40.52,-80.172 -16.88,-43.748 18.6266,-69.4266 42.7466,-99.8866 17.2267,-24.5014 36.6534,-49.5907 42.48,-79.6187 3.2134,-21.8147 0.28,-43.1227 -3.9866,-64.3493 13.6933,25.156 33.32,46.8253 44.7066,73.2506 13.3067,39.608 26.0667,80.3534 29.72,122.6707 -0.6133,31.432 -14.04,60.8587 -23.8266,90.2613 25.84,-28.284 53.1333,-60.28 57.2933,-99.908 3.1067,-38.66 -3.9067,-77.6333 -16.48,-114.2333 -1.3733,-9.7467 -2.92,-19.4627 -4.64,-29.1293 -15.7467,-67.5734 49.5733,-91.0867 60.12,-151.36275 4.44,-25.41733 5.8133,-51.43467 5.8133,-77.20933 -0.1466,-4.588 -0.5333,-8.988 -1.1333,-13.228 6.28,11.74133 12.52,23.488 18.04,35.50133 9.5467,26.58667 19.04,53.60667 23.2,81.63335 7.3067,40.9774 -12.7067,78.48 -20.6933,117.552 -11.68,64.3307 20.6533,135.8534 88.3466,150.532 -3.4133,-4.4826 -7.08,-9.0226 -10.68,-13.4493 0.1334,0.176 0.2667,0.348 0.4,0.524 -7.6533,-9.788 -13.96,-20.5067 -19.0266,-31.8347 0.8266,-3.7333 2.72,-7.284 5.04,-10.2866 18.9333,-21.4587 39.9333,-43.1987 57.96,-65.952 14.4666,-18.708 28.7066,-38.9627 39.3733,-60.5614 -2.6267,16.4467 -9.0933,33.22 -20.4133,62.9494 -18.56,53.6213 -4.9734,75.6626 6.8,125.7026 5.4533,31.2414 -3.04,62.7934 -17.3734,90.5427 -7.5066,12.0347 -21.0794,37.4363 -32.0527,46.343 z"
           id="path33" /><path
           style="fill:#351e10;fill-opacity:1;fill-rule:nonzero;stroke:#ff3800;stroke-width:2.02205;stroke-dasharray:none;stroke-opacity:1"
           d="m 1403.8266,1363.6787 c -4.36,-11.716 -7.7067,-23.1706 -9.6934,-34.404 -11.56,-24.944 -11.0133,-54.2506 -9.76,-84.06 -8.4,-9.6213 -17.72,-18.548 -27.08,-27.2466 -0.1466,1.924 -0.3466,3.8533 -0.6133,5.7773 -3.08,28.9093 -3.36,58.1 8.6533,85.1747 4.76,14.904 10.0134,30.1973 22.0534,40.892 4.96,5.308 10.56,9.772 16.44,13.8666 z"
           id="path38" /></g><path
         id="path39"
         class="powerclip"
         d="m 1288.6953,637.92305 h 676.6956 v 860.00855 h -676.6956 z m 625.7979,515.20635 c 2.2667,-11.5293 1.36,-22.9947 -0.2666,-34.4187 -14.9067,22.1387 -32.4,44.3574 -44.6534,75.668 -1.4533,11.3134 -1.0266,22.7787 2.5334,34.4907 0,0.015 0.013,0.029 0.013,0.051 0,0.019 0.013,0.045 0.013,0.064 9.72,28.8533 17.3334,60.0693 11.96,90.5693 -1.7333,8.8093 -4.2666,17.212 -7.52,25.1093 22.2267,-31.1693 35.0667,-58.496 28.7867,-104.34 -3.0533,-29.588 8.32,-57.8053 9.1333,-87.1933 z m -457.48,36.6613 c 6.9334,-9.34 12.72,-18.1186 16.9867,-27.06 -5.9867,-13.812 -16.1333,-25.3013 -34.1467,-36.0053 -24.0533,-18.0693 -46.7066,-39.5173 -64.04,-64.4013 9.4267,18.7586 23.4267,35.8813 36.72,59.7626 10.9467,22.692 17.28,48.1294 18.1867,73.2907 -0.1467,9.712 -0.56,19.4173 -1,29.124 9.8267,-10.9813 19.3867,-22.1387 27.2933,-34.7107 z m 288.9702,224.3968 44.6971,2.5129 c 10.9733,-8.9067 24.5461,-34.3083 32.0527,-46.343 14.3334,-27.7493 22.8267,-59.3013 17.3734,-90.5427 -11.7734,-50.04 -25.36,-72.0813 -6.8,-125.7026 11.32,-29.7294 17.7866,-46.5027 20.4133,-62.9494 -10.6667,21.5987 -24.9067,41.8534 -39.3733,60.5614 -18.0267,22.7533 -39.0267,44.4933 -57.96,65.952 -2.32,3.0026 -4.2134,6.5533 -5.04,10.2866 5.0666,11.328 11.3733,22.0467 19.0266,31.8347 -0.1333,-0.176 -0.2666,-0.348 -0.4,-0.524 3.6,4.4267 7.2667,8.9667 10.68,13.4493 -67.6933,-14.6786 -100.0266,-86.2013 -88.3466,-150.532 7.9866,-39.072 28,-76.5746 20.6933,-117.552 -4.16,-28.02668 -13.6533,-55.04668 -23.2,-81.63335 -5.52,-12.01333 -11.76,-23.76 -18.04,-35.50133 0.6,4.24 0.9867,8.64 1.1333,13.228 0,25.77466 -1.3733,51.792 -5.8133,77.20933 -10.5467,60.27605 -75.8667,83.78935 -60.12,151.36275 1.72,9.6666 3.2667,19.3826 4.64,29.1293 12.5733,36.6 19.5867,75.5733 16.48,114.2333 -4.16,39.628 -31.4533,71.624 -57.2933,99.908 9.7866,-29.4026 23.2133,-58.8293 23.8266,-90.2613 -3.6533,-42.3173 -16.4133,-83.0627 -29.72,-122.6707 -11.3866,-26.4253 -31.0133,-48.0946 -44.7066,-73.2506 4.2666,21.2266 7.2,42.5346 3.9866,64.3493 -5.8266,30.028 -25.2533,55.1173 -42.48,79.6187 -24.12,30.46 -59.6266,56.1386 -42.7466,99.8866 7.4,29.5134 22.92,55.672 40.52,80.172 12.6133,15.9574 26.0749,23.1459 24.7149,43.3992 26.92,5.7373 21.3146,-65.9222 31.6346,-47.9595 8.7733,-9.7973 44.1542,44.6545 55.0076,36.8572 12.8485,3.8145 2.5739,8.9056 25.6163,-3.6076 12.2747,-6.6658 12.6932,-40.1645 24.1747,-47.4246 20.5447,-12.9912 28.673,25.1354 45.7994,25.1844 l 17.0028,-13.0184 z m -342.1568,-50.5088 c -4.36,-11.716 -7.7067,-23.1706 -9.6934,-34.404 -11.56,-24.944 -11.0133,-54.2506 -9.76,-84.06 -8.4,-9.6213 -17.72,-18.548 -27.08,-27.2466 -0.1466,1.924 -0.3466,3.8533 -0.6133,5.7773 -3.08,28.9093 -3.36,58.1 8.6533,85.1747 4.76,14.904 10.0134,30.1973 22.0534,40.892 4.96,5.308 10.56,9.772 16.44,13.8666 z" /></clipPath><inkscape:path-effect
       effect="powerclip"
       id="path-effect39"
       is_visible="true"
       lpeversion="1"
       inverse="true"
       flatten="false"
       hide_clip="false"
       message="Use fill-rule evenodd on &lt;b&gt;fill and stroke&lt;/b&gt; dialog if no flatten result after convert clip to paths." /></defs><g
     inkscape:label="Layer 1"
     inkscape:groupmode="layer"
     id="layer1"><g
       id="g5"
       transform="translate(60.554806,-4.6535206)"><path
         sodipodi:type="star"
         style="fill:#625955;fill-rule:evenodd;stroke:#00a6a9;stroke-width:0.978958;stroke-miterlimit:400;stroke-dashoffset:2.71521;paint-order:stroke fill markers"
         id="path3"
         inkscape:flatsided="true"
         sodipodi:sides="5"
         sodipodi:cx="-92.595245"
         sodipodi:cy="61.466427"
         sodipodi:r1="70.342163"
         sodipodi:r2="48.988937"
         sodipodi:arg1="1.0386327"
         sodipodi:arg2="1.6669512"
         inkscape:rounded="0"
         inkscape:randomized="0"
         d="M -56.903706,122.08106 -139.2139,114.14205 -157.0987,33.407118 -85.841919,-8.5508031 -23.91801,46.252708 Z"
         inkscape:transform-center-x="0.9022994"
         transform="rotate(-3.9127113,338.22361,-1928.7057)"
         inkscape:transform-center-y="-1.0733463" /><path
         sodipodi:type="star"
         style="fill:#625955;fill-rule:evenodd;stroke:#00a6a9;stroke-width:0.978958;stroke-miterlimit:400;stroke-dashoffset:2.71521;paint-order:stroke fill markers"
         id="path4"
         inkscape:flatsided="true"
         sodipodi:sides="3"
         sodipodi:cx="130.98642"
         sodipodi:cy="52.284393"
         sodipodi:r1="82.408302"
         sodipodi:r2="44.124134"
         sodipodi:arg1="0.97050529"
         sodipodi:arg2="2.0177029"
         inkscape:rounded="0"
         inkscape:randomized="0"
         d="M 177.53744,120.28535 48.820349,58.598279 166.60147,-22.030454 Z"
         inkscape:transform-center-x="-9.8256639"
         inkscape:transform-center-y="-21.223545"
         transform="rotate(-25.409545,188.66101,262.38176)" /><path
         sodipodi:type="star"
         style="fill:#2e6207;fill-opacity:0.312474;fill-rule:evenodd;stroke:#00a6a9;stroke-width:10.779;stroke-linejoin:round;stroke-miterlimit:400;stroke-dasharray:none;stroke-dashoffset:2.71521;paint-order:stroke fill markers"
         id="path1"
         inkscape:flatsided="true"
         sodipodi:sides="8"
         sodipodi:cx="44.507004"
         sodipodi:cy="87.800629"
         sodipodi:r1="72.982559"
         sodipodi:r2="72.982559"
         sodipodi:arg1="0.64537166"
         sodipodi:arg2="1.0380707"
         inkscape:rounded="0"
         inkscape:randomized="0"
         d="M 102.81104,131.6993 54.693133,160.06886 0.60833084,146.10466 -27.761224,97.986758 -13.797031,43.901956 34.320875,15.532401 88.405677,29.496594 116.77523,77.6145 Z"
         inkscape:transform-center-x="7.4306534"
         inkscape:transform-center-y="1.4350932"
         transform="rotate(9.5277305,52.709708,85.062694)" /><path
         sodipodi:type="star"
         style="fill:#625955;fill-rule:evenodd;stroke:#df7800;stroke-width:10.879;stroke-miterlimit:400;stroke-dasharray:none;stroke-dashoffset:2.71521;stroke-opacity:1;paint-order:stroke fill markers;stroke-linecap:round"
         id="path2"
         inkscape:flatsided="true"
         sodipodi:sides="6"
         sodipodi:cx="-113.28444"
         sodipodi:cy="60.728657"
         sodipodi:r1="72.416534"
         sodipodi:r2="54.268875"
         sodipodi:arg1="0.94039889"
         sodipodi:arg2="1.4639977"
         inkscape:rounded="0"
         inkscape:randomized="0"
         d="m -70.597365,119.22625 -72.003935,7.71929 -42.68708,-58.497588 29.31687,-66.2168863 72.003934,-7.7192951 42.687074,58.4975914 z"
         inkscape:transform-center-x="4.7076243e-06"
         transform="rotate(6.4198628,-264.69073,1481.0455)" /><g
         id="g41"
         transform="matrix(0.17443302,0,0,0.17443302,35.123135,98.016987)"><use
           x="0"
           y="0"
           xlink:href="#use39"
           id="use40"
           transform="matrix(-0.94006055,0.34100758,0.34100758,0.94006055,117.6581,-29.550617)" /><g
           id="g52"
           transform="matrix(0.26458333,0,0,0.26458333,-651.31441,-209.47734)"><g
             id="g57"
             transform="translate(1144.1901,-438.11065)"><path
               id="path40"
               d="m 11618.1,5555.32 c -99.5,11.56 -177,81.34 -271.7,107.78 -41.8,2.83 -84.9,3.7 -121.6,28.83 -51.2,7.2 -102.3,14.18 -150.9,32.79 -144.1,60.65 -218.1,213.19 -275.5,349.01 -52,94.23 -113.6,183.09 -174.2,271.72 -272,-197.47 -476.1,240.24 -585.6,426.25 -83.6,160.99 -122.67,335.8 -144.49,513.63 -8.19,85.15 -29.38,175.01 0.57,257.95 36.19,104.05 182.82,134.06 259.42,56.34 125.8,-190.03 198,-415.74 282.1,-627.35 56.3,130.89 125.7,258.19 231.2,356.11 -206.7,58.06 -137.4,349.83 -214.6,500.47 -53.9,158.84 -125,310.88 -183.2,467.97 -51.8,147.45 -67.3,304.61 -115.9,452.74 -12.7,9.43 -31.2,33.88 -9.5,43.08 52.8,12.16 99.5,-32.96 142.9,-57.36 112.9,-81.62 204.1,-190.84 277.6,-308.53 50.5,-0.05 101.6,-21.25 131.4,-62.72 7.5,-10.45 14.5,-21.07 21,-31.87 218.3,10.64 224.2,-279 277.2,-431.81 51.4,136.49 53.3,293.82 130.7,418.74 -207.8,365 283.3,521.84 368.5,69.2 57.8,-63.26 137.7,-94.1 217.9,-118.26 13.8,122.31 87.8,230.73 129.2,345.54 114.1,280.77 231.3,595.6 486.8,777.68 -96.7,203.66 -149.7,339.78 -97.2,568.33 0.5,45.82 -2,91.52 -3.5,137.32 -8.7,170.9 241.2,228.7 308.2,70.3 57,-161 131.3,-317.3 161.6,-486.88 35.2,-183.56 46,-370.64 71.8,-555.61 34,-262.64 39.9,-532.98 -28.5,-790.79 -41,-118.53 -56.4,-160.11 -34.6,-288.22 16.1,-133.18 13.6,-280.31 87.2,-396.95 117.8,90.59 218.7,202.59 343.5,284.15 147.5,95.8 274.4,126.51 265.4,330.57 21.8,104.19 23.7,233.14 108,308.45 102.1,86.9 260.3,2.89 264.4,-126.25 7,-245.31 -95.3,-477.51 -105.5,-722.58 68,-97.35 69.5,-225.84 74.3,-340.61 50.2,-33.16 67.9,-91.36 86.5,-144.86 -16.8,241.55 -41.7,489.81 29.6,725.51 28.9,97.29 76.6,186.82 122.6,276.75 25.7,49.94 39.7,108.76 86.1,144.66 84.2,69.94 223.8,28.15 252.6,-78.46 27,-136.95 -2.4,-278.75 -3.5,-417.31 -14.5,-292.47 -26.3,-588.64 -133.2,-864.98 0.2,0.7 0.4,1.4 0.7,2.09 0.5,1.87 1.1,3.74 1.7,5.61 -40.2,-109.4 -53.4,-218.33 -119.1,-312.02 -88.4,-181.59 -243.5,-319.73 -390.6,-453.55 -94.9,-87.31 -172.5,-196.18 -288,-258.27 -155.7,-73.49 -315.7,-138.23 -480.3,-190.7 -168.2,-58.99 -348.4,-70.05 -524.4,-85.18 -249.1,-75.86 -498.4,-199.64 -765.1,-178.45 z m 1497,1931.05 c 2.4,0.54 4.7,1.03 7.1,1.47 1.1,4.48 2.3,8.93 3.6,13.35 -4.6,-3.99 -9.2,-7.97 -13.9,-11.92 1.1,-0.96 2.2,-1.92 3.2,-2.9 z m -857,1234.68 c 0.1,9.95 0.3,19.92 0.5,29.89 -4,-9.59 -8,-19.19 -12,-28.8 3.9,-0.23 7.7,-0.6 11.5,-1.09"
               style="fill:#f3ba52;fill-opacity:1;fill-rule:nonzero;stroke:none"
               transform="matrix(0.13333333,0,0,-0.13333333,0,2240)" /><path
               id="path41"
               d="m 12228.5,5678.36 c -161.2,-5.42 -350.3,20.25 -426.3,181.85 -6.4,14.6 -13.2,47.45 12.1,39.83 0,0 -0.1,0.22 -0.1,0.22 102.9,34.1 199.7,94.94 309.1,106.43 112.8,10.14 236.3,-30.46 335.8,41.07 108.6,82.47 157.6,227.77 172.6,359.12 4.7,124.61 42.6,247.31 124.3,343.41 115.6,141.44 300.9,188.43 460.7,261.35 -19.8,-65.9 -50.2,-128.05 -85.6,-187.31 -221,-312.69 -124,-362.5 -217.5,-670.45 -89.5,-305.95 -361.4,-515.74 -685.1,-475.52"
               style="fill:#e31e24;fill-opacity:1;fill-rule:nonzero;stroke:none"
               transform="matrix(0.13333333,0,0,-0.13333333,0,2240)" /><path
               id="path42"
               d="m 12259.1,7930.95 c -68.2,157.78 -170.5,308.88 -181.7,484.21 9.3,448.49 369.1,555.66 254,1138.84 -18.6,92.59 -28.3,186.98 -28.2,281.46 -2.1,109.61 23.3,234.64 -39.5,331.74 -0.7,-1 -1,-2.8 -1.9,-3.4 -5.7,11.9 5.7,12.7 15.8,12.3 147.3,-25.9 246.4,-194.54 296.9,-308.65 131.8,-264.22 149.4,-584.82 68.5,-867.06 -37.1,-112.04 -85.9,-221.21 -152.6,-318.97 -79.5,-120.56 -197.2,-229.16 -205.4,-382.05 -5.5,-122.8 -6.6,-247.08 -25.9,-368.42"
               style="fill:#e31e24;fill-opacity:1;fill-rule:nonzero;stroke:none"
               transform="matrix(0.13333333,0,0,-0.13333333,0,2240)" /><path
               id="path43"
               d="m 11293.2,6210.15 c -286.8,140.94 -290.5,494.59 -187.6,757.48 -1.5,-4.07 -2.9,-8 -4.3,-12 6.6,18.57 11.3,31.66 18.3,50.97 -1,-2.77 -2,-5.53 -3,-8.29 -0.4,-1.14 -0.8,-2.28 -1.2,-3.42 51.5,135.37 104,273.17 154.5,408.57 27.6,93.34 85.7,181.28 89.9,279.74 -11.8,44.86 24,7.15 42.5,-7.84 34.3,-36.23 52.6,-84.85 69.4,-131.02 84.2,-235.44 48.4,-468.91 -54.3,-691.29 -76.2,-201.57 -23.5,-425.41 -43.3,-631.23 -0.6,-12.39 -1.9,-26.14 6.2,-36.31 -29.5,-12.36 -62.8,11.14 -87.1,24.64"
               style="fill:#e31e24;fill-opacity:1;fill-rule:nonzero;stroke:none"
               transform="matrix(0.13333333,0,0,-0.13333333,0,2240)" /><path
               id="path44"
               d="m 11554.6,6822.4 c -20.3,69.4 -23.8,146.89 2.4,215.11 -0.2,-0.4 -0.3,-0.8 -0.5,-1.21 15.5,41.87 38.1,81.82 67.9,114.97 26,-56.97 37.3,-120.63 23.9,-182.36 -12.4,-56.51 -49.9,-110.24 -93.7,-146.51"
               style="fill:#e31e24;fill-opacity:1;fill-rule:nonzero;stroke:none"
               transform="matrix(0.13333333,0,0,-0.13333333,0,2240)" /><path
               id="path45"
               d="m 10516.3,7151.16 c -48.3,190.77 7.5,392.79 88.7,566.87 47.6,141.7 55.9,292.97 101.2,435.56 176.7,-415.08 116.5,-678.36 -189.9,-1002.43"
               style="fill:#e31e24;fill-opacity:1;fill-rule:nonzero;stroke:none"
               transform="matrix(0.13333333,0,0,-0.13333333,0,2240)" /><path
               id="path46"
               d="m 10558,6171.96 c -183.4,84.27 -334.3,249.96 -402.2,438.2 -46.3,173.4 -52.5,359.71 -26.3,536.99 32.2,-61.69 63.6,-125.02 97.2,-186.4 65.9,-114.15 108.6,-242.42 194.7,-343.87 118.6,-114.98 158.2,-279.16 148,-439.41 6.1,-9.07 -5.6,-6.75 -11.4,-5.51"
               style="fill:#e31e24;fill-opacity:1;fill-rule:nonzero;stroke:none"
               transform="matrix(0.13333333,0,0,-0.13333333,0,2240)" /><path
               id="path47"
               d="m 13619.3,6268.55 c 167.2,124.33 130.8,548.45 162.6,743.12 9.7,73.89 31.8,145.46 46.9,218.31 27.1,159.77 46,335.93 171.4,452.25 16.5,17.62 33.5,35.95 51.1,51.73 -11.8,-84.73 -27.8,-171.3 -9.7,-256.3 44.9,-166.27 68.6,-335.04 61.1,-507.43 7.3,-187.17 -3.7,-391.94 -124,-544.93 -85.7,-98.66 -221.8,-206.37 -359.4,-156.75"
               style="fill:#e31e24;fill-opacity:1;fill-rule:nonzero;stroke:none"
               transform="matrix(0.13333333,0,0,-0.13333333,0,2240)" /><path
               id="path48"
               d="m 13161.4,6343.67 c -19.6,286.51 135,495.22 265.7,731.74 84.7,-263.78 4.1,-610.7 -265.7,-731.74"
               style="fill:#e31e24;fill-opacity:1;fill-rule:nonzero;stroke:none"
               transform="matrix(0.13333333,0,0,-0.13333333,0,2240)" /><path
               id="path49"
               d="m 13415,7283.03 c -33.3,40.88 -14.2,107.73 29.2,132.98 47.9,-32.73 23.3,-118.75 -29.2,-132.98"
               style="fill:#e31e24;fill-opacity:1;fill-rule:nonzero;stroke:none"
               transform="matrix(0.13333333,0,0,-0.13333333,0,2240)" /><path
               id="path50"
               d="m 12208.6,7150.68 c -51.7,157.55 -55.8,342.34 28.2,484.98 108.8,-143.59 108.6,-359.67 -28.2,-484.98"
               style="fill:#e31e24;fill-opacity:1;fill-rule:nonzero;stroke:none"
               transform="matrix(0.13333333,0,0,-0.13333333,0,2240)" /><path
               id="path51"
               d="m 10879,6681.25 c -156.6,122.94 -145,375.13 32.6,471.81 -1.2,-157.26 -2,-316.81 -32.6,-471.81"
               style="fill:#e31e24;fill-opacity:1;fill-rule:nonzero;stroke:none"
               transform="matrix(0.13333333,0,0,-0.13333333,0,2240)" /><path
               style="fill:#351e10;fill-opacity:1;fill-rule:nonzero;stroke:#ff3800;stroke-width:2.02205;stroke-dasharray:none;stroke-opacity:1"
               d="m 1470.1111,1479.6166 c -16.1078,-4.3161 -28.5245,-39.9672 -24.0045,-40.6965 -0.3334,-0.4947 -0.6667,-0.9827 -1,-1.4774 -12.0134,-9.1013 -26.12,-15.8106 -39.8667,-21.196 -19.08,-8.856 -36.7733,-20.844 -51.36,-36.0613 -21.4747,-20.5013 -28.9747,-50.1547 -38.1973,-77.396 -10.6694,-33.5267 -4.4987,-69.156 -1.884,-103.448 -2.7347,-21.6507 -12.14,-39.648 -15.8467,-59.8067 -0.01,-0.016 -0.011,-0.031 -0.011,-0.051 -3.8186,-15.6654 -4.78,-31.92 0.136,-42.544 0.388,-12.0187 1.324,-5.2134 11.0614,11.812 1.5066,3.9586 3.2693,7.7573 5.2293,11.4346 2.0547,2.3574 4.0293,4.7254 5.7067,7.1827 16.0333,21.7453 37.3653,38.6547 54.352,59.4787 3.8,5.5266 7.52,11.288 11,17.248 -0.3734,-21.6654 -3.2134,-42.64 -13.0267,-61.4027 -40.7747,-63 -55.584,-107.232 -18.4667,-170.56938 2.7334,-14.34134 9.4,-26.728 22.0134,-33.44267 -0.6,1.16933 -1.1067,2.37333 -1.52,3.608 1.9333,-2.41867 3.8933,-4.796 5.8266,-7.13333 -2.4666,8.39733 -4.8133,16.82933 -6.9333,25.32133 3.5067,22.53733 21.5467,48.48405 31.1733,64.46135 20.8134,29.412 47.0667,54.1854 70.6,81.2147 1.9867,2.0493 3.8134,4.16 5.5067,6.3213 -0.2267,-1.3146 -0.4933,-2.6453 -0.7867,-3.9946 -5.6,-29.76 -14.1866,-58.8347 -16.1866,-89.2134 -1.9067,-15.5493 -5.0134,-31.20002 -3.24,-46.90668 2.24,-20.04267 12.0133,-38.1 17.0666,-57.42267 6.8667,-35.7 31.6934,-66.67333 27.7334,-104.42 -0.1067,-4.8 -0.2534,-9.66666 -0.6267,-14.38666 9.2,12.45333 17.1067,26.30666 20.72,41.48 1.0667,4.84 1.7733,9.75999 2.1467,14.69333 v 0.0133 c 20.1866,63.11867 0.093,90.32933 12.2,155.45478 3.5866,24.6813 13.5866,45.5013 25.36,65.388 1.84,-6.4627 4.2,-12.8094 7.1333,-18.9854 12.9733,-25.9666 36.0533,-45.6173 47.6667,-72.39472 9.28,-28.93333 9.2133,-60.74799 8.0133,-90.87599 -3.1867,-17.33334 -11.0133,-33.36 -15.3867,-50.38667 -7.7466,-29.8 -5.56,-62.09333 4.64,-91.02666 13.3467,-35.42667 39.04,-65.6 46.6667,-103.32 11.7467,25.65333 10.1067,52.96 4.4533,79.77333 3.2134,33.13333 9.1067,66.04 21.76,96.98667 16.1467,38.59999 41.1467,73.11999 51.9334,113.90266 12.12,36.41867 21.1466,75.90538 14.7733,114.07208 -3.1333,29.1093 -17.8267,55.3587 -21.68,84.272 -0.6,13.8373 0.013,27.9813 2.0133,41.9547 9.3467,-16.94 25.5467,-32.3787 36.9867,-45.8187 22.8933,-30.8973 48.08,-62.3453 54.1067,-101.4387 7.4133,-24.4506 5.64,-49.87738 2.16,-74.83205 -0.6134,-5.68666 -3.8134,-44.176 0.7866,-34.00666 11.16,19.656 25.0934,38.248 33.32,59.24799 22.48,24.70802 35.8267,58.30012 36.4267,91.48142 1.76,-1.9707 3.5467,-3.9547 5.3867,-5.9653 3.1333,-4.0747 6.0133,-8.3054 8.68,-12.6534 3.4666,-8.196 7.88,-17.796 13.4933,-25.7693 4.04,-8.8253 7.76,-17.812 11.5733,-26.6987 0.92,4.6 1.6534,9.028 2.2134,13.2987 1.6,-0.8907 3.2533,-1.612 4.9733,-2.1253 -6.0133,33.8093 6.8933,68.6866 11.2,102.28 4.6,38.1413 -6.5333,75.568 -10.08,113.1946 9.0533,81.452 -10.44,125.436 -79.4,170.0654 2.7467,0.9426 5.44,2.0053 8.0667,3.1946 -2.9074,5.8734 -96.1844,54.1518 -117.8757,61.267 -94.3407,30.9459 -206.0284,39.9632 -288.8795,17.7633 z"
               id="path52"
               clip-path="url(#clipPath34)"
               inkscape:path-effect="#path-effect37"
               inkscape:original-d="m 1470.1111,1479.6166 c -16.1078,-4.3161 -28.5245,-39.9672 -24.0045,-40.6965 -0.3334,-0.4947 -0.6667,-0.9827 -1,-1.4774 -12.0134,-9.1013 -26.12,-15.8106 -39.8667,-21.196 -19.08,-8.856 -36.7733,-20.844 -51.36,-36.0613 -21.4747,-20.5013 -28.9747,-50.1547 -38.1973,-77.396 -10.6694,-33.5267 -4.4987,-69.156 -1.884,-103.448 -2.7347,-21.6507 -12.14,-39.648 -15.8467,-59.8067 -0.01,-0.016 -0.011,-0.031 -0.011,-0.051 -3.8186,-15.6654 -4.78,-31.92 0.136,-42.544 0.388,-12.0187 1.324,-5.2134 11.0614,11.812 1.5066,3.9586 3.2693,7.7573 5.2293,11.4346 2.0547,2.3574 4.0293,4.7254 5.7067,7.1827 16.0333,21.7453 37.3653,38.6547 54.352,59.4787 3.8,5.5266 7.52,11.288 11,17.248 -0.3734,-21.6654 -3.2134,-42.64 -13.0267,-61.4027 -40.7747,-63 -55.584,-107.232 -18.4667,-170.56938 2.7334,-14.34134 9.4,-26.728 22.0134,-33.44267 -0.6,1.16933 -1.1067,2.37333 -1.52,3.608 1.9333,-2.41867 3.8933,-4.796 5.8266,-7.13333 -2.4666,8.39733 -4.8133,16.82933 -6.9333,25.32133 3.5067,22.53733 21.5467,48.48405 31.1733,64.46135 20.8134,29.412 47.0667,54.1854 70.6,81.2147 1.9867,2.0493 3.8134,4.16 5.5067,6.3213 -0.2267,-1.3146 -0.4933,-2.6453 -0.7867,-3.9946 -5.6,-29.76 -14.1866,-58.8347 -16.1866,-89.2134 -1.9067,-15.5493 -5.0134,-31.20002 -3.24,-46.90668 2.24,-20.04267 12.0133,-38.1 17.0666,-57.42267 6.8667,-35.7 31.6934,-66.67333 27.7334,-104.42 -0.1067,-4.8 -0.2534,-9.66666 -0.6267,-14.38666 9.2,12.45333 17.1067,26.30666 20.72,41.48 1.0667,4.84 1.7733,9.75999 2.1467,14.69333 v 0.0133 c 20.1866,63.11867 0.093,90.32933 12.2,155.45478 3.5866,24.6813 13.5866,45.5013 25.36,65.388 1.84,-6.4627 4.2,-12.8094 7.1333,-18.9854 12.9733,-25.9666 36.0533,-45.6173 47.6667,-72.39472 9.28,-28.93333 9.2133,-60.74799 8.0133,-90.87599 -3.1867,-17.33334 -11.0133,-33.36 -15.3867,-50.38667 -7.7466,-29.8 -5.56,-62.09333 4.64,-91.02666 13.3467,-35.42667 39.04,-65.6 46.6667,-103.32 11.7467,25.65333 10.1067,52.96 4.4533,79.77333 3.2134,33.13333 9.1067,66.04 21.76,96.98667 16.1467,38.59999 41.1467,73.11999 51.9334,113.90266 12.12,36.41867 21.1466,75.90538 14.7733,114.07208 -3.1333,29.1093 -17.8267,55.3587 -21.68,84.272 -0.6,13.8373 0.013,27.9813 2.0133,41.9547 9.3467,-16.94 25.5467,-32.3787 36.9867,-45.8187 22.8933,-30.8973 48.08,-62.3453 54.1067,-101.4387 7.4133,-24.4506 5.64,-49.87738 2.16,-74.83205 -0.6134,-5.68666 -3.8134,-44.176 0.7866,-34.00666 11.16,19.656 25.0934,38.248 33.32,59.24799 22.48,24.70802 35.8267,58.30012 36.4267,91.48142 1.76,-1.9707 3.5467,-3.9547 5.3867,-5.9653 3.1333,-4.0747 6.0133,-8.3054 8.68,-12.6534 3.4666,-8.196 7.88,-17.796 13.4933,-25.7693 4.04,-8.8253 7.76,-17.812 11.5733,-26.6987 0.92,4.6 1.6534,9.028 2.2134,13.2987 1.6,-0.8907 3.2533,-1.612 4.9733,-2.1253 -6.0133,33.8093 6.8933,68.6866 11.2,102.28 4.6,38.1413 -6.5333,75.568 -10.08,113.1946 9.0533,81.452 -10.44,125.436 -79.4,170.0654 2.7467,0.9426 5.44,2.0053 8.0667,3.1946 -2.9074,5.8734 -96.1844,54.1518 -117.8757,61.267 -94.3407,30.9459 -206.0284,39.9632 -288.8795,17.7633 z" /><path
               style="fill:#351e10;fill-opacity:1;fill-rule:nonzero;stroke:#ff3800;stroke-width:2.02205;stroke-dasharray:none;stroke-opacity:1"
               d="m 1836.9066,1436.1787 c -25.0934,-0.8213 -38.4667,14.14 -54.4267,30.52 -0.6267,0.5894 -1.2533,1.144 -1.8667,1.6774 0.1867,0.061 0.3734,0.132 0.56,0.1973 z"
               id="path53" /><path
               style="fill:#351e10;fill-opacity:1;fill-rule:nonzero;stroke:#ff3800;stroke-width:2.02205;stroke-dasharray:none;stroke-opacity:1"
               d="m 1433.6932,1506.1454 c 7.0534,-5.268 21.2267,-34.6667 13.6934,-40.7213 z"
               id="path54" /><path
               id="path55"
               d="m 11346.2,7282.18 c -25.4,-163.58 -26.7,-334.53 -56.2,-496.15 -29.5,-122.18 -35.5,-247.49 -33.5,-372.35 -211.3,256.98 -128.6,643.27 89.7,868.5"
               style="fill:#351e10;fill-opacity:1;fill-rule:nonzero;stroke:none"
               transform="matrix(0.13333333,0,0,-0.13333333,0,2240)" /><path
               id="path56"
               d="m 12465.8,7579.2 c 127.5,-361.81 185.3,-811.07 -99.6,-1114.78 -83.6,-96.26 -187.4,-172.72 -268.2,-271.29 -72,-93.5 -130.7,-204.84 -193.4,-303.25 -36.9,-71.93 -94.1,-125.43 -116,-200.68 4.4,-6.09 -7.5,-2.12 -10.8,0.79 -90.7,124.56 -98.3,301.44 -73.3,449.46 69.2,302.6 356.2,440.23 527.3,663.81 162.6,224.22 175.6,514.05 234,775.94"
               style="fill:#351e10;fill-opacity:1;fill-rule:nonzero;stroke:none"
               transform="matrix(0.13333333,0,0,-0.13333333,0,2240)" /><path
               id="path57"
               d="m 11499.4,5427.52 c -255.1,84.59 -411.1,164.64 -691.2,129.23 82.4,132.66 215.3,233.81 372.9,253.64 130.1,25.55 255.9,-23.62 378,-62.71 49.8,-11.07 105.7,-50.13 155.8,-25.12 307.5,223.21 370.8,-12.43 567,37.58 100.6,106.13 241.5,183.27 391.3,170.16 78.5,0.25 155.8,-50.59 233.1,-28.55 86.9,28.53 134.5,118.47 225.1,140.04 159.5,51.47 211.7,-173.68 128.3,-275.18 -107,-132.5 -288.7,-216.67 -459.7,-190.36 -63.4,3.95 -126.9,43.65 -190.1,26.82 -73.4,-25.74 -114.6,-99.67 -183.1,-134.15 -147.2,-81.6 -320.7,-35.54 -465.7,27.44 -133.3,-104.39 -303.8,-136.82 -461.7,-68.84"
               style="fill:#351e10;fill-opacity:1;fill-rule:nonzero;stroke:none"
               transform="matrix(0.13333333,0,0,-0.13333333,0,2240)" /></g></g><use
           x="0"
           y="0"
           xlink:href="#g52"
           id="use39"
           transform="rotate(42.165061,88.963004,87.118866)" /><use
           x="0"
           y="0"
           xlink:href="#g52"
           id="use39-9"
           transform="rotate(-162.05565,73.169262,70.087199)" /><use
           x="0"
           y="0"
           xlink:href="#use39-9"
           id="use41"
           transform="rotate(-43.875424,84.742952,-0.90421262)" /><g
           id="g60"
           transform="matrix(2.4426758,0,0,2.4426758,-220.73083,-117.23993)"><path
             style="fill:#dbe4d4;fill-opacity:1;fill-rule:evenodd;stroke:#df7800;stroke-width:10.879;stroke-linecap:round;stroke-linejoin:round;stroke-miterlimit:400;stroke-dashoffset:2.71521;paint-order:stroke fill markers"
             d="M 142.53824,68.436352 V 90.79318 l -4.71153,4.711533 h -18.07108 l -2.93414,-5.08209 V 49.90167 Z"
             id="path58" /><path
             style="fill:#dbe4d4;fill-opacity:1;fill-rule:evenodd;stroke:#df7800;stroke-width:10.879;stroke-linecap:round;stroke-linejoin:round;stroke-miterlimit:400;stroke-dashoffset:2.71521;paint-order:stroke fill markers"
             d="m 111.38199,62.676839 c 0,0 -45.185458,-4.424322 -51.474703,-4.53723 -16.237571,-0.291506 -20.449146,7.834946 -20.232733,25.735407 0.07586,6.27458 0.434297,43.722004 0.434297,43.722004 h -8.09876 l 5.293018,39.51034 H 54.253238 L 61.952031,128.1681 H 54.4499 c 0,0 -0.07905,-35.071411 0,-38.941894 0.108116,-5.293511 5.937464,-11.304571 11.231576,-11.231575 4.122908,0.05685 45.700514,-0.107737 45.700514,-0.107737 z"
             id="path59"
             sodipodi:nodetypes="cssccccccsscc" /><path
             style="fill:#dbe4d4;fill-opacity:1;fill-rule:evenodd;stroke:none;stroke-width:10.879;stroke-linecap:round;stroke-linejoin:round;stroke-miterlimit:400;stroke-dashoffset:2.71521;paint-order:stroke fill markers"
             d="m 103.2809,61.893269 20.98494,2.004298 -1.08609,13.936791 -21.58586,0.08904 z"
             id="path60"
             sodipodi:nodetypes="ccccc" /></g></g><g
         id="g12596"
         transform="matrix(0.44847509,0.1729243,-0.1729243,0.44847509,-37.430585,-23.406538)"><path
           inkscape:connector-curvature="0"
           id="path2558"
           d="m 299.21389,103.10372 16.34934,36.59188 -43.76868,-8.39349"
           class="outer"
           style="fill:#fffa88;fill-opacity:1;stroke:#140b02;stroke-width:1.42907;stroke-linecap:round;stroke-linejoin:miter;stroke-miterlimit:4;stroke-dasharray:none;stroke-opacity:1" /><path
           inkscape:connector-curvature="0"
           id="path2560"
           d="m 281.40681,125.23015 16.5237,1.83597 -5.5079,-12.85178"
           class="inner"
           style="fill:#ffad6d;fill-opacity:1;stroke:#692c01;stroke-width:1.04195;stroke-linecap:round;stroke-linejoin:miter;stroke-miterlimit:4;stroke-dasharray:none;stroke-opacity:1" /><path
           inkscape:connector-curvature="0"
           id="path2562"
           d="m 286.23187,55.683246 42.65203,2.520201 -27.14495,32.304481"
           class="outer"
           style="fill:#fffa88;fill-opacity:1;stroke:#140b02;stroke-width:1.42907;stroke-linecap:round;stroke-linejoin:miter;stroke-miterlimit:4;stroke-dasharray:none;stroke-opacity:1" /><path
           inkscape:connector-curvature="0"
           id="path2564"
           d="m 292.34554,65.177443 19.04908,1.301403 -12.85177,12.852118"
           class="inner"
           style="fill:#ffad6d;fill-opacity:1;stroke:#692c01;stroke-width:1.04195;stroke-linecap:round;stroke-linejoin:miter;stroke-miterlimit:4;stroke-dasharray:none;stroke-opacity:1"
           sodipodi:nodetypes="ccc" /><path
           inkscape:connector-curvature="0"
           id="path2566"
           d="M 237.03498,40.481513 265.8405,5.5474236 279.32371,45.997403"
           class="outer"
           style="fill:#fffa88;fill-opacity:1;stroke:#140b02;stroke-width:1.42907;stroke-linecap:round;stroke-linejoin:miter;stroke-miterlimit:4;stroke-dasharray:none;stroke-opacity:1" /><path
           inkscape:connector-curvature="0"
           id="path2568"
           d="m 253.36582,38.659574 8.56785,-12.239782 4.28392,14.07575"
           class="inner"
           style="fill:#ffad6d;fill-opacity:1;stroke:#692c01;stroke-width:1.04195;stroke-linecap:round;stroke-linejoin:miter;stroke-miterlimit:4;stroke-dasharray:none;stroke-opacity:1" /><path
           inkscape:connector-curvature="0"
           id="path2570"
           d="M 201.1567,70.073326 189.51188,33.913522 228.73615,44.945303"
           class="outer"
           style="fill:#fffa88;fill-opacity:1;stroke:#140b02;stroke-width:1.42907;stroke-linecap:round;stroke-linejoin:miter;stroke-miterlimit:4;stroke-dasharray:none;stroke-opacity:1" /><path
           inkscape:connector-curvature="0"
           id="path2572"
           d="m 207.35543,60.35826 -4.89591,-14.07575 13.46376,4.89626"
           class="inner"
           style="fill:#ffad6d;fill-opacity:1;stroke:#692c01;stroke-width:1.04195;stroke-linecap:round;stroke-linejoin:miter;stroke-miterlimit:4;stroke-dasharray:none;stroke-opacity:1" /><path
           inkscape:connector-curvature="0"
           id="path2574"
           d="m 210.34973,116.65223 -36.1598,-9.19304 26.35374,-28.192481"
           class="outer"
           style="fill:#fffa88;fill-opacity:1;stroke:#140b02;stroke-width:1.42907;stroke-linecap:round;stroke-linejoin:miter;stroke-miterlimit:4;stroke-dasharray:none;stroke-opacity:1" /><path
           inkscape:connector-curvature="0"
           id="path2576"
           d="m 201.23519,92.794378 -9.79182,9.180182 13.46376,2.44796"
           class="inner"
           style="fill:#ffad6d;fill-opacity:1;stroke:#692c01;stroke-width:1.04195;stroke-linecap:round;stroke-linejoin:miter;stroke-miterlimit:4;stroke-dasharray:none;stroke-opacity:1" /><path
           inkscape:connector-curvature="0"
           id="path2578"
           d="m 258.68576,131.6286 -28.97953,30.87627 -10.24995,-37.18963"
           class="outer"
           style="fill:#fffa88;fill-opacity:1;stroke:#140b02;stroke-width:1.42907;stroke-linecap:round;stroke-linejoin:miter;stroke-miterlimit:4;stroke-dasharray:none;stroke-opacity:1" /><path
           inkscape:connector-curvature="0"
           id="path2580"
           d="m 232.44733,128.90208 2.44796,15.91207 10.40381,-12.23979"
           class="inner"
           style="fill:#ffad6d;fill-opacity:1;stroke:#692c01;stroke-width:1.04195;stroke-linecap:round;stroke-linejoin:miter;stroke-miterlimit:4;stroke-dasharray:none;stroke-opacity:1" /><path
           inkscape:connector-curvature="0"
           d="m 249.574,46.783702 c 23.69391,0 42.90175,17.561517 42.90175,39.224612 0,21.662746 -19.20784,39.224266 -42.90175,39.224266 -23.69392,0 -42.90176,-17.56152 -42.90176,-39.224266 3.5e-4,-21.663095 19.20784,-39.224612 42.90176,-39.224612 z"
           id="circle"
           style="fill:#fffa88;fill-opacity:1;stroke:#140b02;stroke-width:1.42907;stroke-linecap:round;stroke-linejoin:miter;stroke-miterlimit:4;stroke-dasharray:none;stroke-opacity:1" /><path
           inkscape:connector-curvature="0"
           d="m 209.48451,72.309194 c 19.03985,-1.589251 26.84824,-0.149559 40.02199,-0.155992 12.54355,-0.0062 24.37562,-1.120485 40.15733,0.40853 0.9213,2.820785 2.02425,2.400084 1.42828,4.954619 -2.84306,12.186431 -15.21212,15.92351 -22.54968,16.032821 -9.30835,0.104198 -15.00346,-4.410561 -18.0856,-14.002927 -3.2996,9.450751 -11.52166,14.574332 -21.02104,14.353085 -7.66012,-0.184871 -19.59639,-4.312058 -21.42249,-16.55608 -0.39852,-2.672087 0.66567,-1.86203 1.47121,-5.034056 z"
           id="glasses"
           style="fill:#000000;stroke:#000000;stroke-width:0.347326;stroke-linecap:round;stroke-linejoin:round"
           sodipodi:nodetypes="cscscccsc" /></g></g></g></svg>
