<?xml version="1.0" standalone="no"?>
<!--Created with Inkscape (http://www.inkscape.org/)-->
<svg xmlns="http://www.w3.org/2000/svg" xmlns:xlink="http://www.w3.org/1999/xlink" viewBox="0 0 48 48">
  <defs>
    <linearGradient id="d">
      <stop offset="0" stop-color="#2760a0" stop-opacity="1"/>
      <stop offset="1" stop-color="#164882" stop-opacity="1"/>
    </linearGradient>
    <linearGradient id="b">
      <stop offset="0" stop-color="#fff" stop-opacity="1"/>
      <stop offset="1" stop-color="#fff" stop-opacity=".25233644"/>
    </linearGradient>
    <linearGradient id="a">
      <stop offset="0" stop-color="#000" stop-opacity=".40654206"/>
      <stop offset="1" stop-color="#000" stop-opacity="0"/>
    </linearGradient>
    <linearGradient id="c">
      <stop offset="0" stop-color="#71b2ee" stop-opacity="1"/>
      <stop offset="0" stop-color="#449ae7" stop-opacity="1"/>
      <stop offset="1" stop-color="#2069a7" stop-opacity="1"/>
    </linearGradient>
    <linearGradient id="e">
      <stop offset="0.0000000" stop-color="#e0e0e0" stop-opacity="1"/>
      <stop offset="1.0000000" stop-color="#989898" stop-opacity="1"/>
    </linearGradient>
    <linearGradient id="g">
      <stop offset="0.0000000" stop-color="#5a5a5a" stop-opacity="1"/>
      <stop offset="1.0000000" stop-color="#666" stop-opacity="0"/>
    </linearGradient>
    <linearGradient id="f">
      <stop offset="0.0000000" stop-color="#a8a8a8" stop-opacity="1"/>
      <stop offset="1.0000000" stop-color="#a7a7a7" stop-opacity="0"/>
    </linearGradient>
    <linearGradient id="h">
      <stop offset="0" stop-color="#b5b5b5" stop-opacity="1"/>
      <stop offset="0.5" stop-color="#ebebeb" stop-opacity="1"/>
      <stop offset="1" stop-color="#b7b7b7" stop-opacity="1"/>
    </linearGradient>
    <radialGradient xlink:href="#a" id="i" cx="63.137466" cy="92.808624" fx="63.137466" fy="92.808624" r="63.137466" gradientTransform="matrix(1,0,0,0.251366,9.320074e-17,69.47968)" gradientUnits="userSpaceOnUse"/>
    <linearGradient xlink:href="#b" id="n" gradientUnits="userSpaceOnUse" gradientTransform="matrix(0.452447,0,0,0.452447,-5.192325,-6.641138)" x1="92.73848" y1="39.98679" x2="92.73848" y2="55.883747"/>
    <linearGradient xlink:href="#c" id="m" gradientUnits="userSpaceOnUse" gradientTransform="matrix(0.452447,0,0,0.452447,-5.192325,-6.641138)" x1="97.68544" y1="48.017063" x2="97.68544" y2="60.215137"/>
    <linearGradient xlink:href="#d" gradientUnits="userSpaceOnUse" gradientTransform="matrix(1.222132,0,0,1.222132,-9.956336,-1.019578)" x1="48.765755" y1="13.806906" x2="48.765755" y2="18.807886"/>
    <linearGradient xlink:href="#e" id="l" gradientUnits="userSpaceOnUse" gradientTransform="matrix(0.452447,0,0,0.452447,-5.46049,-6.641136)" x1="92.528755" y1="49.637089" x2="92.528755" y2="57.454906"/>
    <linearGradient xlink:href="#f" id="k" gradientUnits="userSpaceOnUse" gradientTransform="matrix(0.452447,0,0,0.452447,-5.460489,-6.641138)" x1="68.553146" y1="70.175613" x2="68.553146" y2="76.542877"/>
    <linearGradient xlink:href="#g" gradientUnits="userSpaceOnUse" gradientTransform="matrix(0.452447,0,0,0.452447,-5.460489,-6.641138)" x1="72.212563" y1="70.648842" x2="72.212563" y2="76.540955"/>
    <linearGradient xlink:href="#h" id="j" gradientUnits="userSpaceOnUse" gradientTransform="matrix(0.452776,0,0,0.419753,-3.448022,-4.66987)" x1="41.056602" y1="69.347717" x2="46.921833" y2="98.077805"/>
  </defs>
  <metadata/>
  <path style="marker:none" d="M 126.27493 92.808624 A 63.137466 15.87062 0 1 1  0,92.808624 A 63.137466 15.87062 0 1 1  126.27493 92.808624 z" transform="matrix(0.355391,0,0,0.621639,-0.21254,-27.50387)" opacity="1" color="#000" fill="url(#i)" fill-opacity="1" fill-rule="nonzero" stroke="none" stroke-width="3" stroke-linecap="round" stroke-linejoin="round" marker-start="none" marker-mid="none" marker-end="none" stroke-miterlimit="4" stroke-dasharray="none" stroke-dashoffset="0" stroke-opacity="1" visibility="visible" display="inline" overflow="visible"/>
  <path d="M 25.856524,23.508249 C 25.089731,23.520746 24.334546,23.566904 23.580527,23.601149 C 13.778295,24.046333 5.1535514,26.303435 0.49999991,30.28991 L 0.49999991,31.590502 C 6.7221701,37.613541 26.063561,39.118567 41.499992,35.709045 L 41.499992,33.758157 L 30.504686,23.570182 C 29.719926,23.538843 28.941615,23.517614 28.164576,23.508249 C 27.387537,23.498885 26.623316,23.495753 25.856524,23.508249 z " fill="#838383" fill-opacity="1" fill-rule="evenodd" stroke="#646464" stroke-width="1.00000024" stroke-linecap="butt" stroke-linejoin="round" stroke-miterlimit="4" stroke-dasharray="none" stroke-opacity="1"/>
  <path d="M 1,30.357623 C 7.0700784,35.092328 25.94089,36.675389 41,33.995166 L 30.279713,24.062758 C 18.030473,23.593304 6.5874489,25.764057 1,30.357623 z " fill="url(#j)" fill-opacity="1" fill-rule="evenodd" stroke="none" stroke-width="1.00000024" stroke-linecap="butt" stroke-linejoin="round" stroke-miterlimit="4" stroke-dasharray="none" stroke-opacity="1"/>
  <path d="M 1.4154426,30.535216 C 6.9049459,34.840757 25.965781,35.668029 39.584561,33.230746 L 30.482545,24.465645 C 19.404889,24.038745 6.4684773,26.358021 1.4154426,30.535216 z " fill="none" fill-opacity="1" fill-rule="evenodd" stroke="#fff" stroke-width=".8308841" stroke-linecap="butt" stroke-linejoin="round" stroke-miterlimit="4" stroke-dasharray="none" stroke-opacity="1"/>
  <path d="M 24.510732,29.105795 L 24.198532,15.993385 L 45.740347,15.837285 L 45.896447,20.051988 L 28.725436,20.208089 L 28.413235,28.793595 L 24.510732,29.105795 z " fill="url(#k)" fill-opacity="1" fill-rule="evenodd" stroke="url(#linearGradient3974)" stroke-width="1.00000024" stroke-linecap="round" stroke-linejoin="round" stroke-miterlimit="4" stroke-dasharray="none" stroke-opacity="1"/>
  <path d="M 24.860809,16.655662 L 44.912502,16.389183 L 45.068601,19.72085 L 28.173538,19.71138 L 24.860809,16.655662 z " fill="url(#l)" fill-opacity="1" fill-rule="evenodd" stroke="none" stroke-width="3" stroke-linecap="round" stroke-linejoin="round" stroke-miterlimit="4" stroke-dasharray="none" stroke-opacity="1"/>
  <path d="M 30.608433,21.275728 C 30.608433,22.729173 40.755078,22.208251 45.869324,22.281838 C 47.360159,22.281838 47.75315,15.379403 46.137488,14.172664 C 44.178655,12.561342 29.692201,12.521736 29.692201,15.177931 C 32.631288,15.965457 31.675906,19.426811 30.608433,21.275728 z " fill="url(#m)" fill-opacity="1" fill-rule="evenodd" stroke="url(#linearGradient3966)" stroke-width="1.00000024" stroke-linecap="butt" stroke-linejoin="round" stroke-miterlimit="4" stroke-dasharray="none" stroke-opacity="1"/>
  <path d="M 31.245217,20.81146 C 31.245217,22.201723 40.01222,21.511065 44.904143,21.581453 C 46.330168,21.581453 46.385444,14.401933 44.904143,14.401933 C 39.67913,13.989412 31.234452,13.699633 31.10918,15.366413 C 33.920503,16.119705 32.266286,19.042918 31.245217,20.81146 z " fill="none" fill-opacity="1" fill-rule="evenodd" stroke="url(#n)" stroke-width="1.00000024" stroke-linecap="butt" stroke-linejoin="round" stroke-miterlimit="4" stroke-dasharray="none" stroke-opacity="1"/>
</svg>
