<?xml version="1.0" standalone="no"?>
<!--Created with Inkscape (http://www.inkscape.org/)-->
<svg xmlns="http://www.w3.org/2000/svg" xmlns:xlink="http://www.w3.org/1999/xlink" viewBox="0 0 48 48">
  <defs>
    <linearGradient id="e">
      <stop offset="0" stop-color="#000" stop-opacity="1"/>
      <stop offset="1" stop-color="#000" stop-opacity="0"/>
    </linearGradient>
    <linearGradient id="a">
      <stop offset="0" stop-color="#fff" stop-opacity="1"/>
      <stop offset="1" stop-color="#fff" stop-opacity="0"/>
    </linearGradient>
    <linearGradient xlink:href="#a" id="t" gradientUnits="userSpaceOnUse" gradientTransform="matrix(-3.277938e-2,-0.999463,0.999463,-3.277938e-2,-0.709646,45.06274)" x1="33.396004" y1="36.921333" x2="34.170048" y2="38.070381"/>
    <linearGradient id="d">
      <stop offset="0.0000000" stop-color="#fff" stop-opacity="1"/>
      <stop offset="1.0000000" stop-color="#f8f8f8" stop-opacity="1"/>
    </linearGradient>
    <linearGradient id="b">
      <stop offset="0.0000000" stop-color="#a3a3a3" stop-opacity="1"/>
      <stop offset="1" stop-color="#8a8a8a" stop-opacity="1"/>
    </linearGradient>
    <linearGradient id="c">
      <stop offset="0.0000000" stop-color="#fafafa" stop-opacity="1"/>
      <stop offset="1.0000000" stop-color="#bbb" stop-opacity="1"/>
    </linearGradient>
    <radialGradient xlink:href="#b" gradientUnits="userSpaceOnUse" gradientTransform="matrix(0.968273,0,0,1.032767,3.353553,0.646447)" cx="8.824419" cy="3.7561285" fx="8.824419" fy="3.7561285" r="37.751713"/>
    <radialGradient xlink:href="#c" id="p" gradientUnits="userSpaceOnUse" gradientTransform="scale(0.960493,1.041132)" cx="33.966679" cy="35.736916" fx="33.966679" fy="35.736916" r="86.70845"/>
    <radialGradient xlink:href="#d" id="q" gradientUnits="userSpaceOnUse" gradientTransform="matrix(0.968273,0,0,1.032767,3.353553,0.646447)" cx="8.1435566" cy="7.2678967" fx="8.1435566" fy="7.2678967" r="38.158695"/>
    <radialGradient xlink:href="#b" gradientUnits="userSpaceOnUse" gradientTransform="matrix(0.331735,-2.3449e-17,2.501087e-17,0.353831,20.10526,9.5823)" cx="31.863327" cy="2.3667307" fx="31.863327" fy="2.3667307" r="37.751713"/>
    <radialGradient xlink:href="#c" id="s" gradientUnits="userSpaceOnUse" gradientTransform="matrix(0.148355,1.009137e-2,-1.104438e-2,0.162365,25.06011,12.81706)" cx="30.653816" cy="14.9373" fx="30.653816" fy="14.9373" r="86.70845"/>
    <radialGradient xlink:href="#e" id="r" cx="37.030354" cy="12.98915" fx="37.030354" fy="12.98915" r="4.2929163" gradientTransform="matrix(1.744653,2.313551e-22,-1.663e-22,1.283833,-26.58256,-3.478359)" gradientUnits="userSpaceOnUse"/>
    <linearGradient id="j">
      <stop offset="0" stop-color="#888a85" stop-opacity="1"/>
      <stop offset="1" stop-color="#888a85" stop-opacity="0"/>
    </linearGradient>
    <linearGradient id="i">
      <stop offset="0" stop-color="white" stop-opacity="1"/>
      <stop offset="1" stop-color="white" stop-opacity="0"/>
    </linearGradient>
    <linearGradient id="g">
      <stop offset="0" stop-color="#d3d7cf" stop-opacity="1"/>
      <stop offset="1" stop-color="#d3d7cf" stop-opacity="0"/>
    </linearGradient>
    <linearGradient id="h">
      <stop offset="0" stop-color="#6f716c" stop-opacity="1"/>
      <stop offset="1" stop-color="#888a85" stop-opacity="0"/>
    </linearGradient>
    <linearGradient id="f">
      <stop offset="0" stop-color="white" stop-opacity="1"/>
      <stop offset="1" stop-color="white" stop-opacity="0"/>
    </linearGradient>
    <linearGradient xlink:href="#f" id="u" gradientUnits="userSpaceOnUse" x1="34.715317" y1="37.277191" x2="34.739281" y2="39.821026"/>
    <linearGradient xlink:href="#g" id="v" gradientUnits="userSpaceOnUse" x1="35.197689" y1="46.093544" x2="33.97504" y2="48.780663"/>
    <linearGradient xlink:href="#h" gradientUnits="userSpaceOnUse" x1="38.045502" y1="44.886215" x2="35.045086" y2="49.835117"/>
    <linearGradient xlink:href="#i" id="w" gradientUnits="userSpaceOnUse" x1="33.358002" y1="37.386215" x2="33.358002" y2="49.240597"/>
    <linearGradient xlink:href="#j" id="x" gradientUnits="userSpaceOnUse" x1="36.201752" y1="37.667465" x2="30.034962" y2="41.842426"/>
    <linearGradient id="l">
      <stop offset="0" stop-color="black" stop-opacity="0"/>
      <stop offset="0.5" stop-color="black" stop-opacity="1"/>
      <stop offset="1" stop-color="black" stop-opacity="0"/>
    </linearGradient>
    <linearGradient id="k">
      <stop offset="0" stop-color="black" stop-opacity="1"/>
      <stop offset="1" stop-color="black" stop-opacity="0"/>
    </linearGradient>
    <radialGradient xlink:href="#k" id="m" gradientUnits="userSpaceOnUse" gradientTransform="matrix(2.003784,0,0,1.4,27.98813,-17.4)" cx="4.9929786" cy="43.5" fx="4.9929786" fy="43.5" r="2.5"/>
    <radialGradient xlink:href="#k" id="n" gradientUnits="userSpaceOnUse" gradientTransform="matrix(2.003784,0,0,1.4,-20.01187,-104.4)" cx="4.9929786" cy="43.5" fx="4.9929786" fy="43.5" r="2.5"/>
    <linearGradient xlink:href="#l" id="o" gradientUnits="userSpaceOnUse" x1="25.058096" y1="47.027729" x2="25.058096" y2="39.999443"/>
  </defs>
  <metadata/>
  <g transform="translate(-6.251e-2,-0.1904) matrix(1.052632,0,0,1.285713,-1.263158,-13.42854)" opacity=".4" display="inline">
    <rect y="40" x="38" height="7" width="5" opacity="1" fill="url(#m)" fill-opacity="1" stroke="none" stroke-width="1" stroke-linecap="round" stroke-linejoin="miter" stroke-miterlimit="4" stroke-dasharray="none" stroke-opacity="1"/>
    <rect transform="scale(-1,-1)" y="-47" x="-10" height="7" width="5" opacity="1" fill="url(#n)" fill-opacity="1" stroke="none" stroke-width="1" stroke-linecap="round" stroke-linejoin="miter" stroke-miterlimit="4" stroke-dasharray="none" stroke-opacity="1"/>
    <rect y="40" x="10" height="7.0000005" width="28" opacity="1" fill="url(#o)" fill-opacity="1" stroke="none" stroke-width="1" stroke-linecap="round" stroke-linejoin="miter" stroke-miterlimit="4" stroke-dasharray="none" stroke-opacity="1"/>
  </g>
  <g display="inline">
    <path style="marker:none" d="M 7.7526014,3.6464462 L 31.199616,3.6308212 C 31.199616,3.6308212 41.478553,13.174533 41.478553,13.811106 L 41.478553,43.417892 C 41.478553,44.054465 40.966077,44.56694 40.329504,44.56694 L 7.7526014,44.56694 C 7.1160285,44.56694 6.6035528,44.054465 6.6035528,43.417892 L 6.6035528,4.7954948 C 6.6035528,4.1589219 7.1160285,3.6464462 7.7526014,3.6464462 z " color="#000" fill="url(#p)" fill-opacity="1" fill-rule="nonzero" stroke="url(#radialGradient15656)" stroke-width="1" stroke-linecap="round" stroke-linejoin="round" marker-start="none" marker-mid="none" marker-end="none" stroke-miterlimit="4" stroke-dashoffset="0" stroke-opacity="1" visibility="visible" display="block" overflow="visible"/>
    <path style="marker:none" d="M 7.8151023,4.5839462 L 32.691494,4.5839462 C 32.691494,4.5839462 40.44194,12.605373 40.44194,12.687946 L 40.44194,43.381282 C 40.44194,43.463855 40.375465,43.530331 40.292892,43.530331 L 7.8151023,43.530331 C 7.7325294,43.530331 7.6660538,43.463855 7.6660538,43.381282 L 7.6660538,4.7329948 C 7.6660538,4.6504219 7.7325294,4.5839462 7.8151023,4.5839462 z " color="#000" fill="none" fill-opacity="1" fill-rule="nonzero" stroke="url(#q)" stroke-width="1" stroke-linecap="round" stroke-linejoin="round" marker-start="none" marker-mid="none" marker-end="none" stroke-miterlimit="4" stroke-dashoffset="0" stroke-opacity="1" visibility="visible" display="block" overflow="visible"/>
  </g>
  <g display="inline">
    <path style="marker:none" d="M 40.985189,13.861445 C 40.256827,12.514817 34.882221,10.130934 32.084635,9.3314083 C 32.254143,10.904354 31.961856,15.649439 31.961856,15.649439 C 34.024356,14.274439 40.204485,13.699331 40.985189,13.861445 z " opacity=".35714285" color="#000" fill="url(#r)" fill-opacity="1" fill-rule="evenodd" stroke="none" stroke-width="1.00000024" stroke-linecap="butt" stroke-linejoin="miter" marker-start="none" marker-mid="none" marker-end="none" stroke-miterlimit="4" stroke-dasharray="none" stroke-dashoffset="0" stroke-opacity="1" visibility="visible" display="inline" overflow="visible"/>
    <path style="marker:none" d="M 41.410559,13.739267 C 41.423724,12.324125 35.058025,3.5320142 31.175441,3.6354934 C 32.148479,3.8684884 32.925796,9.803523 31.536076,12.616023 C 34.286076,12.616023 40.446694,11.881093 41.410559,13.739267 z " opacity="1" color="#000" fill="url(#s)" fill-opacity="1" fill-rule="nonzero" stroke="url(#radialGradient5350)" stroke-width="1" stroke-linecap="butt" stroke-linejoin="round" marker-start="none" marker-mid="none" marker-end="none" stroke-miterlimit="4" stroke-dasharray="none" stroke-dashoffset="0" stroke-opacity="1" visibility="visible" display="block" overflow="visible"/>
    <path d="M 39.121563,11.586207 C 38.393201,10.239579 34.963027,6.5166576 33.040441,5.2796316 C 33.279381,6.7054805 33.577496,8.9620596 32.961856,11.524439 C 32.961856,11.524439 38.340859,11.424093 39.121563,11.586207 z " style="marker:none" opacity="1" color="#000" fill="none" fill-opacity="1" fill-rule="evenodd" stroke="url(#t)" stroke-width="1.00000024" stroke-linecap="butt" stroke-linejoin="miter" marker-start="none" marker-mid="none" marker-end="none" stroke-miterlimit="4" stroke-dasharray="none" stroke-dashoffset="0" stroke-opacity="1" visibility="visible" display="inline" overflow="visible"/>
    <g transform="translate(-60.17678,0.431825)">
      <path style="marker:none" d="M 32.25,22.25 C 32.043286,22.280154 31.842792,22.343467 31.65625,22.4375 C 28.640502,23.872923 26.5625,26.95081 26.5625,30.5 C 26.5625,33.580722 28.174273,36.238535 30.5625,37.84375 L 30.5625,52.53125 C 30.564822,53.600338 31.430912,54.466428 32.5,54.46875 L 38.53125,54.46875 C 39.600338,54.466428 40.466428,53.600338 40.46875,52.53125 L 40.46875,37.84375 C 42.844043,36.232086 44.4375,33.567313 44.4375,30.5 C 44.4375,26.966258 42.379089,23.882338 39.375,22.4375 C 38.773479,22.149072 38.066011,22.189623 37.501386,22.544893 C 36.936761,22.900162 36.594042,23.520404 36.59375,24.1875 L 36.59375,29.09375 L 35.53125,29.46875 L 34.4375,29.09375 L 34.4375,24.1875 C 34.440787,23.627701 34.202308,23.093722 33.783242,22.72255 C 33.364176,22.351377 32.805304,22.179131 32.25,22.25 z " transform="matrix(0.707107,-0.707107,0.707107,0.707107,44.01958,36.46818)" opacity=".6" color="#000" fill="url(#u)" fill-opacity="1" fill-rule="nonzero" stroke="none" stroke-width="1" stroke-linecap="round" stroke-linejoin="round" marker-start="none" marker-mid="none" marker-end="none" stroke-miterlimit="4" stroke-dasharray="none" stroke-dashoffset="1.4" stroke-opacity="1" visibility="visible" display="inline" overflow="visible"/>
      <path d="M 32.5,24.1875 C 30.13715,25.312159 28.5,27.710447 28.5,30.5 C 28.5,33.289555 30.137147,35.687838 32.5,36.8125 L 32.5,52.52167 L 38.53125,52.52167 L 38.53125,36.8125 C 40.880361,35.682677 42.5,33.279516 42.5,30.5 C 42.5,27.720486 40.880357,25.31732 38.53125,24.1875 L 38.53125,30.5 L 35.515625,31.5 L 32.5,30.5 L 32.5,24.1875 z " style="marker:none" transform="matrix(0.707107,-0.707107,0.707107,0.707107,44.01958,36.46818)" opacity="1" color="#000" fill="url(#v)" fill-opacity="1" fill-rule="nonzero" stroke="url(#linearGradient3209)" stroke-width="1" stroke-linecap="round" stroke-linejoin="round" marker-start="none" marker-mid="none" marker-end="none" stroke-miterlimit="4" stroke-dasharray="none" stroke-dashoffset="1.4" stroke-opacity="1" visibility="visible" display="inline" overflow="visible"/>
      <path d="M 31.5,26.34375 C 30.359137,27.432066 29.5,28.792056 29.5,30.5 C 29.5,32.900502 30.909032,34.940748 32.9375,35.90625 C 33.284845,36.073728 33.504061,36.426909 33.5,36.8125 L 33.5,51.499573 L 37.53125,51.499573 L 37.53125,36.8125 C 37.527189,36.426909 37.746405,36.073728 38.09375,35.90625 C 40.107408,34.937766 41.5,32.893233 41.5,30.5 C 41.5,28.802203 40.65724,27.433848 39.53125,26.34375 L 39.53125,30.5 C 39.527628,30.92786 39.250736,31.305441 38.84375,31.4375 L 35.8125,32.4375 C 35.60958,32.504668 35.39042,32.504668 35.1875,32.4375 L 32.1875,31.4375 C 31.780514,31.305441 31.503622,30.92786 31.5,30.5 L 31.5,26.34375 z " style="marker:none" transform="matrix(0.707107,-0.707107,0.707107,0.707107,44.01958,36.46818)" color="#000" fill="none" fill-opacity="1" fill-rule="nonzero" stroke="url(#w)" stroke-width="1" stroke-linecap="round" stroke-linejoin="miter" marker-start="none" marker-mid="none" marker-end="none" stroke-miterlimit="4" stroke-dashoffset="1.4" stroke-opacity="1" visibility="visible" display="inline" overflow="visible"/>
      <rect ry="1.0000045" rx="1.0000045" y="37.499985" x="34.500008" height="15.000015" width="2.0000091" style="marker:none" transform="matrix(0.707107,-0.707107,0.707107,0.707107,44.01958,36.46818)" opacity=".4" color="#000" fill="none" fill-opacity="1" fill-rule="nonzero" stroke="url(#x)" stroke-width=".99999976" stroke-linecap="round" stroke-linejoin="miter" marker-start="none" marker-mid="none" marker-end="none" stroke-miterlimit="4" stroke-dasharray="none" stroke-dashoffset="1.4" stroke-opacity="1" visibility="visible" display="inline" overflow="visible"/>
    </g>
  </g>
</svg>
