<?xml version="1.0" standalone="no"?>
<!--Created with Inkscape (http://www.inkscape.org/)-->
<svg xmlns="http://www.w3.org/2000/svg" xmlns:xlink="http://www.w3.org/1999/xlink" viewBox="0 0 48 48">
  <defs>
    <linearGradient id="c">
      <stop offset="0" stop-color="black" stop-opacity="1"/>
      <stop offset="1" stop-color="black" stop-opacity="0"/>
    </linearGradient>
    <linearGradient id="b">
      <stop offset="0" stop-color="white" stop-opacity="1"/>
      <stop offset="1" stop-color="white" stop-opacity="0"/>
    </linearGradient>
    <linearGradient id="a">
      <stop offset="0" stop-color="white" stop-opacity="1"/>
      <stop offset="0.5" stop-color="#8ae234" stop-opacity="1"/>
      <stop offset="1" stop-color="#73d216" stop-opacity="1"/>
    </linearGradient>
    <linearGradient id="e">
      <stop offset="0" stop-color="#eeeeec" stop-opacity="1"/>
      <stop offset="0.5" stop-color="#e0e2dd" stop-opacity="1"/>
      <stop offset="1" stop-color="#eeeeec" stop-opacity="0"/>
    </linearGradient>
    <linearGradient id="g">
      <stop offset="0" stop-color="white" stop-opacity="1"/>
      <stop offset="1" stop-color="white" stop-opacity="0"/>
    </linearGradient>
    <linearGradient id="d">
      <stop offset="0" stop-color="black" stop-opacity="1"/>
      <stop offset="1" stop-color="black" stop-opacity="0"/>
    </linearGradient>
    <linearGradient id="f">
      <stop offset="0" stop-color="#888a85" stop-opacity="1"/>
      <stop offset="1" stop-color="#888a85" stop-opacity="0"/>
    </linearGradient>
    <radialGradient xlink:href="#a" id="l" gradientUnits="userSpaceOnUse" gradientTransform="matrix(0.700022,0,0,0.633863,0.819259,1.117278)" cx="2.1628973" cy="2.3786261" fx="2.1628973" fy="2.3786261" r="2.3145763"/>
    <linearGradient xlink:href="#b" id="m" gradientUnits="userSpaceOnUse" x1="2.1291261" y1="1.5277346" x2="3.7071068" y2="7.7466836"/>
    <linearGradient xlink:href="#c" id="h" gradientUnits="userSpaceOnUse" gradientTransform="translate(-53,0)" x1="14.125" y1="6.125" x2="28.250938" y2="6.125"/>
    <linearGradient xlink:href="#c" gradientUnits="userSpaceOnUse" gradientTransform="translate(-3,0)" x1="14.125" y1="6.125" x2="28.250938" y2="6.125"/>
    <radialGradient xlink:href="#d" gradientUnits="userSpaceOnUse" gradientTransform="matrix(1,0,0,0.3125,0,13.40625)" cx="12" cy="19.5" fx="12" fy="19.5" r="8"/>
    <linearGradient xlink:href="#e" gradientUnits="userSpaceOnUse" gradientTransform="matrix(1.295112,1.292994,-1.295112,1.292994,24.82837,7.225528)" x1="9.9106054" y1="9.2537603" x2="2.2502754" y2="1.5934311"/>
    <linearGradient xlink:href="#f" gradientUnits="userSpaceOnUse" gradientTransform="matrix(1.295112,1.292994,-1.295112,1.292994,24.82837,7.225528)" x1="6.7207937" y1="7.385416" x2="0.55194509" y2="1.2165676"/>
    <linearGradient xlink:href="#g" gradientUnits="userSpaceOnUse" x1="24.375" y1="24.25" x2="24.375" y2="7.6019897"/>
    <radialGradient xlink:href="#a" gradientUnits="userSpaceOnUse" gradientTransform="matrix(0.700022,0,0,0.633863,0.819259,1.117278)" cx="2.1628973" cy="2.3786261" fx="2.1628973" fy="2.3786261" r="2.3145763"/>
    <linearGradient xlink:href="#b" gradientUnits="userSpaceOnUse" x1="2.1291261" y1="1.5277346" x2="3.7071068" y2="7.7466836"/>
    <linearGradient xlink:href="#e" id="j" gradientUnits="userSpaceOnUse" gradientTransform="matrix(1.295112,-1.292994,-1.295112,-1.292994,29.82837,35.77445)" x1="9.9106054" y1="9.2537603" x2="2.2502754" y2="1.5934311"/>
    <linearGradient xlink:href="#f" gradientUnits="userSpaceOnUse" gradientTransform="matrix(1.295112,-1.292994,-1.295112,-1.292994,29.82837,35.77445)" x1="6.7207937" y1="7.385416" x2="0.55194509" y2="1.2165676"/>
    <linearGradient xlink:href="#g" id="k" gradientUnits="userSpaceOnUse" x1="24.375" y1="24.25" x2="24.375" y2="7.6019897"/>
    <radialGradient xlink:href="#d" id="i" gradientUnits="userSpaceOnUse" gradientTransform="matrix(1,0,0,0.3125,0,13.40625)" cx="12" cy="19.5" fx="12" fy="19.5" r="8"/>
  </defs>
  <metadata/>
  <g transform="translate(50,0)" display="inline">
    <path d="M -38.5,5 C -39.331,5 -40,5.669 -40,6.5 C -40,7.331 -39.331,8 -38.5,8 L -36.5,8 C -35.669,8 -35,7.331 -35,6.5 C -35,5.669 -35.669,5 -36.5,5 L -38.5,5 z M -32.5,5 C -33.331,5 -34,5.669 -34,6.5 C -34,7.331 -33.331,8 -32.5,8 L -31.5,8 C -30.669,8 -30,7.331 -30,6.5 C -30,5.669 -30.669,5 -31.5,5 L -32.5,5 z M -27.5,5 C -28.331,5 -29,5.669 -29,6.5 C -29,7.331 -28.331,8 -27.5,8 L -14.5,8 C -13.669,8 -13,7.331 -13,6.5 C -13,5.669 -13.669,5 -14.5,5 L -27.5,5 z M -38.5,16 C -39.331,16 -40,16.669 -40,17.5 C -40,18.331 -39.331,19 -38.5,19 C -37.669,19 -37,18.331 -37,17.5 C -37,16.669 -37.669,16 -38.5,16 z M -34.5,16 C -35.331,16 -36,16.669 -36,17.5 C -36,18.331 -35.331,19 -34.5,19 L -29.5,19 C -28.669,19 -28,18.331 -28,17.5 C -28,16.669 -28.669,16 -29.5,16 L -34.5,16 z M -25.5,16 C -26.331,16 -27,16.669 -27,17.5 C -27,18.331 -26.331,19 -25.5,19 L -20.5,19 C -19.669,19 -19,18.331 -19,17.5 C -19,16.669 -19.669,16 -20.5,16 L -25.5,16 z M -38.5,27 C -39.331,27 -40,27.669 -40,28.5 C -40,29.331 -39.331,30 -38.5,30 C -37.669,30 -37,29.331 -37,28.5 C -37,27.669 -37.669,27 -38.5,27 z M -34.5,27 C -35.331,27 -36,27.669 -36,28.5 C -36,29.331 -35.331,30 -34.5,30 C -33.669,30 -33,29.331 -33,28.5 C -33,27.669 -33.669,27 -34.5,27 z M -30.5,27 C -31.331,27 -32,27.669 -32,28.5 C -32,29.331 -31.331,30 -30.5,30 L -26.5,30 C -25.669,30 -25,29.331 -25,28.5 C -25,27.669 -25.669,27 -26.5,27 L -30.5,27 z M -22.5,27 C -23.331,27 -24,27.669 -24,28.5 C -24,29.331 -23.331,30 -22.5,30 L -17.5,30 C -16.669,30 -16,29.331 -16,28.5 C -16,27.669 -16.669,27 -17.5,27 L -22.5,27 z M -38.5,38 C -39.331,38 -40,38.669 -40,39.5 C -40,40.331 -39.331,41 -38.5,41 C -37.669,41 -37,40.331 -37,39.5 C -37,38.669 -37.669,38 -38.5,38 z M -34.5,38 C -35.331,38 -36,38.669 -36,39.5 C -36,40.331 -35.331,41 -34.5,41 L -29.5,41 C -28.669,41 -28,40.331 -28,39.5 C -28,38.669 -28.669,38 -29.5,38 L -34.5,38 z M -25.5,38 C -26.331,38 -27,38.669 -27,39.5 C -27,40.331 -26.331,41 -25.5,41 L -20.5,41 C -19.669,41 -19,40.331 -19,39.5 C -19,38.669 -19.669,38 -20.5,38 L -25.5,38 z " opacity=".2" fill="url(#h)" fill-opacity="1" stroke="none" stroke-width="1.20000005" stroke-linecap="round" stroke-linejoin="round" stroke-miterlimit="4" stroke-dasharray="none" stroke-dashoffset="0" stroke-opacity="1"/>
    <path transform="matrix(1.977341,0,0,2.258045,-41.46526,-6.610336)" d="M 20 19.5 A 8 2.5 0 1 1  4,19.5 A 8 2.5 0 1 1  20 19.5 z" opacity=".02999998" fill="url(#i)" fill-opacity="1" stroke="none" stroke-width="2" stroke-linecap="round" stroke-linejoin="round" stroke-miterlimit="4" stroke-dasharray="none" stroke-dashoffset="0" stroke-opacity="1" display="inline"/>
    <g transform="translate(-50,3)">
      <path d="M 34.342191,37.499975 L 30.679061,37.499975 L 27.931714,16.47142 L 21.521236,16.47142 L 32.510626,5.499999 L 43.500017,16.47142 L 37.089539,16.47142 L 34.342191,37.499975 z " fill="url(#j)" fill-opacity="1" fill-rule="evenodd" stroke="url(#linearGradient1976)" stroke-width="1.00000024px" stroke-linecap="butt" stroke-linejoin="miter" stroke-opacity="1" display="inline"/>
      <path d="M 26.5625,6.5 L 23.9375,26.65625 C 23.875831,27.160123 23.4451,27.537012 22.9375,27.53125 L 18.96875,27.53125 L 27.5,36.0625 L 36.0625,27.53125 L 32.09375,27.53125 C 31.58615,27.537012 31.155419,27.160123 31.09375,26.65625 L 28.46875,6.5 L 26.5625,6.5 z " transform="matrix(1,0,0,-1,5,42.99997)" fill="none" fill-opacity="1" fill-rule="evenodd" stroke="url(#k)" stroke-width="1.00000024px" stroke-linecap="butt" stroke-linejoin="miter" stroke-opacity="1" display="inline"/>
    </g>
    <g transform="translate(-52,-11)" id="n" display="inline">
      <path d="M 5 3.21875 A 2 1.78125 0 1 1  1,3.21875 A 2 1.78125 0 1 1  5 3.21875 z" transform="matrix(1.5,0,0,1.684211,3,12.07895)" fill="url(#l)" fill-opacity="1" stroke="#4e9a06" stroke-width=".62915254" stroke-linecap="round" stroke-linejoin="round" stroke-miterlimit="4" stroke-dasharray="none" stroke-dashoffset="0" stroke-opacity="1"/>
      <path d="M 5 3.21875 A 2 1.78125 0 1 1  1,3.21875 A 2 1.78125 0 1 1  5 3.21875 z" transform="matrix(1,0,0,1.122807,4.5,13.88597)" opacity=".8" fill="none" fill-opacity="1" stroke="url(#m)" stroke-width=".94372869" stroke-linecap="round" stroke-linejoin="round" stroke-miterlimit="4" stroke-dasharray="none" stroke-dashoffset="0" stroke-opacity="1" display="inline"/>
    </g>
    <use height="48" width="48" transform="translate(0,11)" xlink:href="#n" y="0" x="0"/>
    <use height="48" width="48" transform="translate(0,22)" xlink:href="#n" y="0" x="0"/>
    <use height="48" width="48" transform="translate(0,33)" xlink:href="#n" y="0" x="0"/>
  </g>
  <rect width="200" height="72" x="-135" y="-11" opacity="0" fill="#eeeeec" fill-opacity="1" stroke="none" stroke-width="1" stroke-linecap="round" stroke-linejoin="round" stroke-miterlimit="4" stroke-dasharray="none" stroke-dashoffset="0" stroke-opacity="1" display="none"/>
</svg>
