<?xml version="1.0" standalone="no"?>
<!--Created with Inkscape (http://www.inkscape.org/)-->
<svg xmlns="http://www.w3.org/2000/svg" xmlns:xlink="http://www.w3.org/1999/xlink" viewBox="0 0 48 48">
  <defs>
    <linearGradient id="c">
      <stop offset="0" stop-color="white" stop-opacity="1"/>
      <stop offset="1" stop-color="white" stop-opacity=".46875"/>
    </linearGradient>
    <linearGradient id="b">
      <stop offset="0" stop-color="#3465a4" stop-opacity="1"/>
      <stop offset="1" stop-color="#729fcf" stop-opacity="1"/>
    </linearGradient>
    <linearGradient id="a">
      <stop offset="0" stop-color="#d3d7cf" stop-opacity="1"/>
      <stop offset="1" stop-color="#eeeeec" stop-opacity="1"/>
    </linearGradient>
    <linearGradient xlink:href="#a" id="j" x1="24.925514" y1="40.000107" x2="24.925514" y2="19.53867" gradientUnits="userSpaceOnUse"/>
    <linearGradient xlink:href="#b" id="k" x1="23.069359" y1="6.7993021" x2="23.069359" y2="12.403291" gradientUnits="userSpaceOnUse"/>
    <linearGradient xlink:href="#c" id="l" x1="9.5" y1="16.26436" x2="9.5" y2="13.408723" gradientUnits="userSpaceOnUse"/>
    <linearGradient id="d">
      <stop offset="0" stop-color="black" stop-opacity="0"/>
      <stop offset="0.5" stop-color="black" stop-opacity="1"/>
      <stop offset="1" stop-color="black" stop-opacity="0"/>
    </linearGradient>
    <linearGradient id="e">
      <stop offset="0" stop-color="black" stop-opacity="1"/>
      <stop offset="1" stop-color="black" stop-opacity="0"/>
    </linearGradient>
    <linearGradient xlink:href="#d" id="g" gradientUnits="userSpaceOnUse" gradientTransform="matrix(2.774389,0,0,1.969706,-1892.179,-872.8854)" x1="302.85715" y1="366.64789" x2="302.85715" y2="609.50507"/>
    <radialGradient xlink:href="#e" id="h" gradientUnits="userSpaceOnUse" gradientTransform="matrix(2.774389,0,0,1.969706,-1891.633,-872.8854)" cx="605.71429" cy="486.64789" fx="605.71429" fy="486.64789" r="117.14286"/>
    <radialGradient xlink:href="#e" id="i" gradientUnits="userSpaceOnUse" gradientTransform="matrix(-2.774389,0,0,1.969706,112.7623,-872.8854)" cx="605.71429" cy="486.64789" fx="605.71429" fy="486.64789" r="117.14286"/>
    <linearGradient id="f">
      <stop offset="0" stop-color="#fff" stop-opacity="1"/>
      <stop offset="0.25" stop-color="#fefede" stop-opacity=".91836733"/>
      <stop offset="0.5" stop-color="#f5f328" stop-opacity="1"/>
      <stop offset="1" stop-color="#f5f32d" stop-opacity=".12234043"/>
    </linearGradient>
    <radialGradient xlink:href="#f" id="m" gradientUnits="userSpaceOnUse" cx="38.658855" cy="9.3411446" fx="38.658855" fy="9.3411446" r="8.341651"/>
  </defs>
  <metadata/>
  <g transform="matrix(2.019273e-2,0,0,1.254292e-2,42.96013,37.39018)" opacity=".58730164" display="inline">
    <rect y="-150.69685" x="-1559.2523" height="478.35718" width="1339.6335" style="marker:none" opacity=".40206185" color="#000" fill="url(#g)" fill-opacity="1" fill-rule="nonzero" stroke="none" stroke-width="1" stroke-linecap="round" stroke-linejoin="miter" marker-start="none" marker-mid="none" marker-end="none" stroke-miterlimit="4" stroke-dasharray="none" stroke-dashoffset="0" stroke-opacity="1" visibility="visible" display="inline" overflow="visible"/>
    <path d="M -219.61876,-150.68038 C -219.61876,-150.68038 -219.61876,327.65041 -219.61876,327.65041 C -76.744594,328.55086 125.78146,220.48075 125.78138,88.454235 C 125.78138,-43.572302 -33.655436,-150.68036 -219.61876,-150.68038 z " style="marker:none" opacity=".40206185" color="#000" fill="url(#h)" fill-opacity="1" fill-rule="nonzero" stroke="none" stroke-width="1" stroke-linecap="round" stroke-linejoin="miter" marker-start="none" marker-mid="none" marker-end="none" stroke-miterlimit="4" stroke-dasharray="none" stroke-dashoffset="0" stroke-opacity="1" visibility="visible" display="inline" overflow="visible"/>
    <path style="marker:none" d="M -1559.2523,-150.68038 C -1559.2523,-150.68038 -1559.2523,327.65041 -1559.2523,327.65041 C -1702.1265,328.55086 -1904.6525,220.48075 -1904.6525,88.454235 C -1904.6525,-43.572302 -1745.2157,-150.68036 -1559.2523,-150.68038 z " opacity=".40206185" color="#000" fill="url(#i)" fill-opacity="1" fill-rule="nonzero" stroke="none" stroke-width="1" stroke-linecap="round" stroke-linejoin="miter" marker-start="none" marker-mid="none" marker-end="none" stroke-miterlimit="4" stroke-dasharray="none" stroke-dashoffset="0" stroke-opacity="1" visibility="visible" display="inline" overflow="visible"/>
  </g>
  <rect width="33.000038" height="30.499985" x="8.5" y="9" rx="2" ry="2" opacity="1" fill="url(#j)" stroke="#888a85" stroke-width="1.00000024" stroke-miterlimit="4" stroke-dasharray="none" stroke-opacity="1" fill-opacity="1"/>
  <path d="M 8.499999,14.030334 L 8.499999,10.500005 C 8.499999,9.3920048 9.391999,8.5000048 10.499999,8.5000048 L 39.499999,8.5000048 C 40.607999,8.5000048 41.499999,9.3920048 41.499999,10.500005 L 41.499999,14.030334" fill="url(#k)" stroke="#204a87" stroke-width="1.00000048" stroke-miterlimit="4" stroke-opacity="1" fill-opacity="1"/>
  <rect width="31.000004" height="29.000008" x="9.5" y="9.5000076" rx="0.99539089" ry="0.99539089" opacity=".8" fill="none" stroke="url(#l)" stroke-width="1.00000083" stroke-miterlimit="4" stroke-dasharray="none" stroke-opacity="1" fill-opacity="1"/>
  <g transform="translate(-45.44588,7.00315)">
    <path d="M 47.000506,9.3411446 C 47.000506,13.948111 43.265822,17.682796 38.658855,17.682796 C 34.051888,17.682796 30.317204,13.948111 30.317204,9.3411446 C 30.317204,4.734178 34.051888,0.9994936 38.658855,0.9994936 C 43.265822,0.9994936 47.000506,4.734178 47.000506,9.3411446 z " transform="matrix(1.14985,0,0,1.14985,37.40235,-4.152422)" fill="url(#m)" fill-opacity="1" fill-rule="evenodd" stroke="none" stroke-width="1px" stroke-linecap="butt" stroke-linejoin="miter" stroke-opacity="1" display="inline"/>
    <path style="marker:none" d="M 44.520054,15.50279 C 44.012883,16.381236 39.925351,15.341967 38.998703,15.754538 C 38.072055,16.167108 36.109289,19.900142 35.117113,19.689249 C 34.124936,19.478355 33.850222,15.26973 33.171495,14.515926 C 32.492767,13.762123 28.335913,13.048993 28.229885,12.040207 C 28.123857,11.031421 32.041607,9.4696164 32.548778,8.5911701 C 33.055949,7.7127238 32.449637,3.5389508 33.376285,3.1263806 C 34.302933,2.7138103 36.998949,5.957187 37.991126,6.1680807 C 38.983302,6.3789743 42.765436,4.5125708 43.444163,5.2663741 C 44.122891,6.0201775 41.871371,9.5864995 41.977399,10.595285 C 42.083426,11.604071 45.027225,14.624343 44.520054,15.50279 z " transform="matrix(0.674116,0.299577,-0.299577,0.674116,60.46181,-11.83579)" opacity="1" color="#000" fill="#fff" fill-opacity="1" fill-rule="evenodd" stroke="none" stroke-width=".5" stroke-linecap="butt" stroke-linejoin="miter" marker-start="none" marker-mid="none" marker-end="none" stroke-miterlimit="4" stroke-dasharray="none" stroke-dashoffset="0" stroke-opacity="1" visibility="visible" display="inline" overflow="visible"/>
  </g>
</svg>
