<?xml version="1.0" encoding="UTF-8" standalone="no"?>
<svg
   viewBox="0 0 1228.5156 863.80347"
   version="1.1"
   sodipodi:docname="Hot Sauce.svg"
   inkscape:version="1.4.2 (ebf0e940d0, 2025-05-08)"
   id="svg1"
   xmlns:inkscape="http://www.inkscape.org/namespaces/inkscape"
   xmlns:sodipodi="http://sodipodi.sourceforge.net/DTD/sodipodi-0.dtd"
   xmlns:xlink="http://www.w3.org/1999/xlink"
   xmlns="http://www.w3.org/2000/svg"
   xmlns:svg="http://www.w3.org/2000/svg">
  <sodipodi:namedview
     id="namedview1826"
     pagecolor="#ffffff"
     bordercolor="#000000"
     borderopacity="0.25"
     inkscape:showpageshadow="2"
     inkscape:pageopacity="0.0"
     inkscape:pagecheckerboard="0"
     inkscape:deskcolor="#d1d1d1"
     inkscape:zoom="0.87601958"
     inkscape:cx="861.85289"
     inkscape:cy="558.2067"
     inkscape:window-width="3440"
     inkscape:window-height="1361"
     inkscape:window-x="0"
     inkscape:window-y="282"
     inkscape:window-maximized="1"
     showguides="true" />
  <defs
     id="defs1806">
    <linearGradient
       id="linearGradient2096"
       gradientUnits="userSpaceOnUse"
       x1="8.8800001e-16"
       y1="0"
       x2="1.0000089"
       y2="0"
       gradientTransform="matrix(0,323.381,-323.381,0,1662.57,939.826)">
      <stop
         offset="0.1290964"
         stop-color="rgb(0%, 0%, 0%)"
         stop-opacity="1"
         id="stop2095"
         style="stop-color:#aa000b;stop-opacity:1;" />
      <stop
         offset="1"
         stop-color="rgb(0%, 44.313049%, 73.724365%)"
         stop-opacity="1"
         id="stop2096"
         style="stop-color:#bc5500;stop-opacity:1;" />
    </linearGradient>
    <linearGradient
       inkscape:collect="always"
       xlink:href="#linearGradient2096"
       id="linearGradient2102"
       x1="1194.8792"
       y1="284.57355"
       x2="1194.7642"
       y2="1148.377"
       gradientUnits="userSpaceOnUse"
       gradientTransform="translate(-637.3154,-284.57354)" />
  </defs>
  <path
     id="path2086"
     style="fill:url(#linearGradient2102);fill-opacity:1;stroke:#000000;stroke-width:12;stroke-linecap:round;stroke-miterlimit:5.8;stroke-dasharray:none;paint-order:stroke fill markers"
     d="m 130.61429,12.672548 c -0.43632,10e-4 -0.82177,0.43303 -1.34766,1.54297 1.89969,-0.0954 3.18894,-0.081 3.70117,0.0664 -1.14597,-0.89888 -1.79253,-1.6109 -2.35351,-1.60938 z m 2.35351,1.60938 c 0.08,0.0628 0.16302,0.12503 0.24805,0.18945 0.006,-0.0789 -0.079,-0.14079 -0.24805,-0.18945 z m -3.70117,-0.0664 c -16.54441,0.83078 -79.433588,9.87891 -79.433588,9.87891 -1.75341,1.23267 -2.38172,3.32955 -5.75782,2.77734 -0.44497,-0.63072 -1.46461,-2.04297 -2.85156,-4.01367 -0.18333,-0.86365 0.94033,-2.78096 -0.65625,-4.15234 -1.43936,0.80345 -2.82477,1.59221 -4.05469,2.29882 -1.17769,-1.09134 -1.96284,-1.807 -2.8789,-2.65234 -0.86366,0.2146 -1.83364,0.45287 -3.08984,0.76953 0.86365,1.03639 1.49349,1.7735 2.17382,2.55078 -0.13073,1.60691 0.70622,3.39552 -0.70703,5.16993 h -4.76367 c -1.33474,-1.36614 -2.48598,-2.87742 -4.52734,-1.4668 -0.44498,1.24051 -0.88902,2.48011 -1.33399,3.73633 h -4.05664 c -3.76866,2.55695 -6.25543,5.78739 -7.6425802,10.0664 0.3140602,0.34809 1.0199402,1.10031 1.7265702,1.88282 v 8.50195 c 1.02068,1.02592 2.04254,2.03287 3.0371,3.01953 1.07291,0.45538 2.80027,-0.47981 3.14063,1.88867 -1.96285,0.28528 -3.9274,0.57443 -6.36133,0.92774 0.88976,1.11228 1.46564,1.82895 2.09375,2.58007 -0.5233,1.42895 -2.7738,2.18606 -1.91015,4.31641 0.68052,0.75635 1.38802,1.52303 2.06836,2.26367 -0.70663,0.7799 -1.41454,1.55419 -1.99024,2.17969 v 4.20117 c 0.73273,0.88981 1.33478,1.60936 1.96289,2.40235 -1.43936,0.58885 -2.64183,1.08843 -3.9765602,1.63281 v 5.46094 c 1.8843302,0.10201 3.5579102,0.19485 5.1543002,0.28125 0.78513,0.66998 1.5194,1.29215 2.17382,1.8496 0.86365,-0.68569 1.56967,-1.25056 2.25,-1.79492 0.73292,0.71187 1.2301,1.21636 2.09375,2.09571 h 30.12305 c 0.44478,0.64905 0.81055,0.92571 0.81055,1.20312 0.0255,5.68704 0.0254,11.37441 0.0254,16.750002 -0.83735,0.99188 -1.41225,1.71759 -1.93555,2.3457 0.68032,0.89245 1.23042,1.59178 1.75391,2.25391 -0.75903,0.75636 -1.25737,1.26067 -1.85938,1.86524 v 8.60156 c 0.5235,0.60717 1.23121,1.38577 1.99024,2.23633 v 4.1914 c -0.68052,0.73542 -1.38713,1.51054 -2.09375,2.27735 -0.81125,2.22194 1.38679,3.00144 2.04101,4.28906 v 10.60547 c -0.73274,0.89245 -1.30951,1.61567 -1.67578,2.05273 0.83735,1.43942 1.49227,2.57908 2.14649,3.69922 -0.94217,1.12013 -1.62274,1.90783 -2.35547,2.77148 -0.13092,2.29261 -0.65453,4.72173 0.33984,7.01172 0.5759,0.55745 1.07312,1.06324 1.57031,1.56836 -0.68032,0.7668 -1.38713,1.53253 -2.09375,2.32813 v 33.87695 c -0.94217,1.30857 -1.72762,2.38963 -2.53906,3.50977 1.02068,1.44726 1.78009,2.54128 2.4082,3.41015 v 6.41406 c -2.77409,1.82937 -2.17107,4.24326 -1.54297,6.65626 0.49739,0.5051 0.99455,1.00829 1.70118,1.69921 0,12.99141 1.1e-4,26.16977 -0.0254,39.34961 0,0.63596 -0.3409,1.27419 -0.52344,1.91016 -0.52349,0.50509 -1.02234,1.00789 -1.51953,1.51562 0.68032,0.7642 1.36102,1.52864 2.09375,2.31641 v 51.27149 c 0.73293,0.827 1.43992,1.59972 2.01562,2.23046 v 4.19922 c -0.73273,0.88721 -1.30757,1.61107 -1.67383,2.0586 0.81124,1.4211 1.4915,2.56148 2.30274,3.95117 -2.3293,2.10417 -4.34568,3.96825 -6.43945,5.77929 -0.20944,0.17532 -0.67892,0.0234 -1.22852,0.0234 -2.8526,-1.71422 -4.52767,-5.09821 -7.06641,-6.42773 h -2.82422 c -0.1307,1.3503 -0.26108,2.68712 -0.39257,3.97461 -2.17208,0.25125 -3.84665,0.44501 -5.39063,0.62304 -0.88995,1.88958 -1.72762,3.6189 -2.53906,5.375 2.8528,1.35566 1.15119,4.39177 2.17187,6.52735 0.99457,0.94217 2.01611,1.90501 2.98438,2.81055 1.77972,-0.36641 3.71644,0.7356 4.97266,-0.82422 0.23554,-1.16724 0.44538,-2.14242 0.70703,-3.49024 2.25079,0 4.34464,-0.17295 6.41211,0.0469 1.98895,0.21462 4.29189,-1.06642 5.96679,1.04297 v 14.9375 c 0.73273,0.80084 1.46454,1.57155 2.19727,2.375 v 23.43359 c 0.57571,0.57054 1.07313,1.07701 1.96289,1.95898 v 8.36133 c 1.07309,1.32951 1.72846,2.12506 2.25195,2.77149 0,1.67234 -0.10612,3.10951 0.0254,4.52539 0.23554,2.67732 3.45387,4.55025 2.11914,7.67773 1.57027,1.41586 1.62392,3.82995 2.90625,5.16992 1.77971,1.88957 1.17729,3.89006 1.38672,5.84766 0.75884,0.80084 1.46434,1.57283 2.19727,2.37891 v 5.67187 c 1.62249,2.88931 2.9064,5.22207 4.21484,7.57227 v 5.25 c 1.1516,1.96024 2.2505,3.86476 4.00391,6.85351 0.41809,-3.78698 0.1319,-6.57949 0.31445,-9.33008 0.20943,-2.7663 -0.68163,-5.61904 0.4961,-8.39843 1.54475,1.28241 1.5444,1.28169 1.64843,5.00586 0.73273,0.79823 1.44058,1.57186 2.1211,2.3125 -0.5496,3.73989 1.83252,6.42222 3.19336,9.50781 2.19839,-2.74013 1.59648,-5.11521 -1.04688,-7.48633 0,-3.33423 -0.0531,-6.87443 0.0254,-10.41016 0.0263,-0.4737 0.68042,-0.93064 1.04688,-1.39648 3.97791,4.00421 3.97691,4.00362 4.81445,3.79687 0.91606,-0.9762 1.85835,-1.99531 2.61719,-2.80664 0.39257,-3.3944 -0.68076,-6.62358 0.99414,-9.80078 1.30863,3.32637 3.95337,5.89322 3.35156,9.57813 2.19839,2.95736 3.61051,6.33496 5.07617,9.6875 1.15335,0.44083 2.783178,-0.0885 2.628908,-0.73242 0.98453,3.30891 1.24582,4.25695 1.55859,5.25781 3.00983,-1.47867 -7.2e-4,-4.93218 2.51172,-6.40039 2.14618,2.14082 4.29337,4.28824 7.48633,7.47851 v -25.76953 c 1.57027,-1.05731 1.80601,-2.75594 2.48633,-4.31836 0.78514,-1.77442 2.7728,-3.01229 3.8457,-4.08008 0.13033,-2.08586 0.18322,-3.45694 0.26172,-4.52734 1.54397,-1.54672 2.80042,-2.81079 4.05664,-4.07227 -0.65422,-0.75634 -1.33407,-1.51267 -1.98828,-2.24023 0.70662,-0.7799 1.41218,-1.55634 2.0664,-2.27344 v -33.29492 c 0,-0.23895 0.0554,-0.47767 0.0762,-0.51172 v -0.002 h 0.002 v -0.002 h 0.002 0.002 v 0.002 0.002 c 10e-4,0.009 0.002,0.0325 -0.002,0.0664 0.99457,-1.54411 1.72613,-2.65428 2.32813,-3.57813 -1.12529,-1.84508 -1.98863,-3.24514 -2.82617,-4.61914 0.99457,-1.15676 1.64839,-1.94522 2.56445,-3.01562 0,-7.50068 -0.0255,-15.32517 0,-23.15039 0,-0.28002 0.36824,-0.55981 0.55078,-0.83985 0.49719,-0.50249 1.02039,-1.0079 1.51758,-1.51562 -0.70662,-0.7642 -1.38837,-1.53123 -2.1211,-2.32422 V 300.2155 c -0.70663,-0.81131 -1.35892,-1.55196 -1.96093,-2.23242 0.68052,-0.82178 1.28152,-1.54208 1.85742,-2.24609 -0.68052,-0.66737 -1.1773,-1.17344 -1.7793,-1.77539 v -18.07618 c 1.1777,-0.0864 2.72111,-0.57694 3.03516,-0.1582 2.35542,3.17196 6.69966,3.72901 8.97656,6.7832 2.61707,3.45985 7.32812,3.94401 9.81445,7.49805 0.75904,1.08874 2.04072,2.44736 3.16602,2.53906 2.98353,0.24076 3.66529,3.82868 5.78516,4.11133 3.34999,0.45016 4.81565,2.82149 6.54296,4.81836 1.51806,1.74039 3.8195,1.46011 5.28516,2.94141 1.7273,1.78488 3.5074,3.53811 5.28711,5.30469 4.10883,-0.7511 4.71148,5.28165 8.82031,4.54101 2.35541,2.08584 4.39726,4.83757 7.11914,6.08594 3.4022,1.55197 4.99701,4.83277 7.84961,6.52344 5.83613,1.48391 9.94627,5.67018 14.76172,8.64062 1.75341,1.08873 3.11422,2.8379 4.6582,4.28516 3.74256,-0.62811 4.13532,4.87205 7.85157,4.2832 2.35542,2.12509 4.68521,4.25398 7.11914,6.4707 h 1.93554 c 2.80019,2.81864 5.57552,5.59497 8.34961,8.36914 4.94637,-0.20152 5.62557,6.12666 10.12696,6.58203 3.11445,2.85267 6.28138,5.63382 9.29101,8.58594 1.49177,1.47867 2.66909,3.26928 3.34961,4.10938 1.98895,0.23815 2.67032,0.31854 3.37695,0.40234 2.74799,2.77154 5.52193,5.54985 7.40626,7.44727 3.16686,1.47606 5.23451,2.45203 8.24414,3.85742 2.77428,2.79771 6.28126,6.34429 9.55273,9.65234 4.29216,0.81654 7.27476,3.92808 11.22656,4.78125 1.04679,2.14606 3.79646,1.38648 5.1836,3.01172 0.91606,1.08088 1.98746,2.0332 3.06054,3.08789 h 4.44922 c 1.7273,3.69279 6.07266,3.9806 8.87305,6.45117 0.20924,0.17858 0.70671,0.0608 1.04687,0.0137 0.34016,-0.0471 0.62704,-0.18196 1.28125,-0.38086 0.18333,-0.80608 0.39369,-1.78141 0.68164,-3.06641 0.75903,-0.74588 1.77867,-1.73381 2.85157,-2.76758 1.62268,-0.16227 3.2973,-0.3346 4.78906,-0.48633 1.1516,-1.24837 2.06875,-2.26985 2.38281,-2.59961 2.2506,-4.09318 -1.91029,-5.69225 -1.64844,-9.19921 0.89535,-0.68708 1.98127,-1.52902 2.99219,-2.31641 28.16583,18.28574 62.36453,29.00163 99.23633,29.00195 45.0804,8e-5 86.1642,-16.01601 117.1133,-42.30273 l -15.9727,33.74414 142.6524,-0.043 13.8203,-82.23438 h 79.8984 l 15.2813,82.27735 h 142.8086 l -0.01,-0.0195 c 191.01406,-0.25191 196.54116,-3.73132 248.15236,-49.31641 26.7034,-23.58553 40.5196,-70.91336 40.6562,-115.1875 0.1367,-44.2973 -27.5397,-85.55379 -51.3398,-106.89453 -53.5965,-48.058082 -113.2249,-39.27869 -275.37886,-38.72266 l -0.1758,229.27149 -108.0859,-228.02539 -41.8477,-0.42969 6.7969,59.20703 h -33.6602 l 8.4571,-59.20703 h -41.6094 l -73.209,154.66211 c -4e-4,-90.14345 -78.0593,-163.218912 -174.3496,-163.218752 -56.5556,5e-4 -106.82143,25.210792 -138.67578,64.281252 0.004,-3.11986 0.007,-6.24299 0.0137,-9.36524 0,-0.62288 0.41908,-1.24623 0.70703,-2.00781 0.41867,-0.38733 0.94194,-0.86059 1.38672,-1.27148 v -10.72656 c -0.70663,-0.79823 -1.36088,-1.54218 -1.96289,-2.23047 0.73293,-0.86889 1.41355,-1.65463 2.14648,-2.50782 v -5.99609 c 0.83735,-1.05994 1.4926,-1.85495 2.19922,-2.75 v -12.47656 c 0.70663,-0.71185 1.20308,-1.21559 1.72657,-1.72071 0.051,-0.32715 0.18359,-0.65527 0.18359,-0.98242 0.0275,-6.78099 0.0272,-13.560802 0.0527,-20.341792 0,-0.28265 0.33907,-0.56501 0.4961,-0.84766 0.52349,-0.50249 1.02071,-1.00899 1.57031,-1.55859 v -40.69336 c -0.65422,-0.69878 -1.36011,-1.46744 -2.11914,-2.25782 v -3.48632 c -1.33473,-3.03587 -3.82192,-3.45169 -5.86328,-4.66602 -2.35542,-1.41588 -4.16105,-3.7803 -6.22852,-5.68555 -0.20944,-0.17532 -0.70665,-0.0234 -1.57031,-0.0234 -1.38714,1.21434 -3.03571,2.68812 -4.6582,4.14062 -0.86365,-0.8427 -1.36024,-1.34776 -1.85742,-1.85547 -2.40783,-0.11516 -4.81522,-0.22861 -6.75196,-0.32031 -0.94216,-0.93692 -1.4394,-1.44019 -1.96289,-1.95312 h -7.09375 c -1.02068,-1.28765 -2.32887,-2.95371 -3.48047,-4.41407 h -6.67383 c -0.62811,-0.62287 -1.15002,-1.1265 -2.01367,-2.00586 h -14.99609 c -0.88996,-0.88196 -1.3883,-1.38697 -2.25195,-2.25586 h -87.83008 c -0.86365,-0.87151 -1.38661,-1.37495 -2.04102,-2.04492 -5.18191,0 -10.49504,-0.0192 -15.83398,0.0254 -0.62811,0.005 -1.25666,0.36427 -1.88477,0.56055 -0.5235,0.50512 -1.0198,1.0095 -1.5957,1.58789 -0.96828,-1.97594 -1.937,-3.89359 -2.66992,-5.39844 0.68051,-1.29548 1.17806,-2.17134 1.62304,-3.0664 0.0189,-0.0408 0.0362,-0.082 0.0547,-0.1211 z m 67.43945,72.81641 c 0.49719,0.49988 0.99415,1.007 1.38672,1.43359 0.36646,0.28265 0.62807,0.6816 0.91602,0.6836 12.82386,0.0281 25.64918,0.0254 38.39453,0.0254 1.07309,1.08612 2.093,2.09755 3.03516,3.03711 0.78514,2.18529 -0.65446,3.30728 -1.96289,4.35937 v 15.095702 c -0.5235,0.5051 -1.02111,1.00802 -1.88477,1.88477 V 126.405 c -0.88995,0.87412 -1.38635,1.37787 -2.25,2.24414 v 27.84961 c -0.86365,0.86626 -1.38836,1.3713 -2.12109,2.11718 0.5235,0.66737 1.07391,1.3683 1.80664,2.32617 v 14.98633 c -0.65421,0.71185 -1.59604,1.72911 -2.82618,3.0586 -0.68051,-0.51819 -1.36089,-1.03854 -2.35546,-1.80274 h -40.90625 c -0.65422,0.66474 -1.17737,1.17085 -2.04102,2.03711 H 155.9053 c -0.86365,0.86627 -1.36089,1.3714 -1.96289,1.9707 h -14.8125 c -0.81125,0.7328 -1.59657,1.4283 -2.48633,2.23438 -4.10902,0 -8.37477,0.0125 -12.64062,-0.0293 -0.28795,-0.003 -0.55041,-0.41407 -1.02148,-0.80664 v -68.68359 c 0.28774,-0.34546 0.8898,-1.14688 1.96289,-2.51563 V 88.045618 c 0.62811,-0.55221 0.89069,-0.98437 1.15234,-0.98437 23.52804,-0.0309 47.05522,-0.0293 70.60937,-0.0293 z M 437.1221,181.39327 c 38.2998,-7e-4 69.3481,35.6472 69.3477,79.62109 -6e-4,43.97312 -31.0486,79.61984 -69.3477,79.61914 -38.2983,-5.7e-4 -69.3451,-35.64691 -69.3457,-79.61914 -4e-4,-43.97299 31.0467,-79.62052 69.3457,-79.62109 z m 561.9453,6.28711 c 76.6082,-1.20435 116.8379,26.31385 117.1348,64.06836 0.3336,42.4159 -32.5125,83.46103 -117.1348,82.60351 z m -283.5547,14.27734 h 38.3008 l 11.9805,83.71875 h -62.2383 z m -456.64451,39.25391 c 0.95198,0.0337 1.9194,0.32565 2.95313,0.82422 0.71908,0.3438 1.41735,0.71123 2.08984,1.10156 -0.75021,6.14661 -1.13669,12.3978 -1.13672,18.73242 -9e-5,10.83303 1.1266,21.41926 3.27735,31.66211 -1.15987,-1.19113 -2.25496,-2.45586 -3.52344,-3.50195 -2.61707,-2.14343 -6.09816,-3.09929 -8.24414,-5.92579 -3.11444,0.40042 -3.7688,-3.2899 -5.88867,-3.77929 -2.66947,-0.61765 -3.97752,-2.5565 -5.91406,-3.9043 -1.93674,-1.33213 -4.57933,-1.55904 -5.91407,-3.83594 -1.1514,-1.96546 -4.08336,-0.85319 -5.15625,-3.02539 -1.20401,-2.43917 -3.97889,-2.55307 -5.99414,-3.66797 -2.40763,-1.33212 -4.81455,-2.49653 -6.64648,-4.64257 -0.88995,-1.05732 -2.09423,-2.76267 -3.0625,-2.69727 -3.76866,0.25909 -4.16051,-5.02505 -7.87696,-4.43359 -2.32912,-2.12772 -4.68514,-4.25258 -6.85742,-6.22852 -1.1253,-0.28265 -2.09312,-0.52471 -3.16601,-0.79687 0.10403,-1.22745 0.18137,-2.19269 0.23437,-2.98829 0.52329,-0.335 0.81166,-0.66978 1.09961,-0.67578 2.8265,-0.0393 5.65325,-0.0234 8.11328,-0.0234 1.04679,0.84271 1.75346,1.42072 2.35547,1.91796 0.91606,-0.70399 1.62313,-1.23517 2.27734,-1.73242 0.78516,0.78775 1.28153,1.29333 1.85743,1.87696 h 36.03711 c 2.17208,-1.24052 4.18911,-2.40721 6.23046,-3.52735 0.96839,-0.53653 1.90349,-0.76221 2.85547,-0.72851 z M 549.7276,426.81708 c -3.469,-0.20068 -1.2743,3.36734 -3.0684,4.91211 h -7.9707 l -94.1367,-4.29882 h -4.3438 c -0.8403,0.77239 -1.6407,1.50729 -2.4863,2.28515 h -13.2012 c -0.8157,0.75882 -1.6145,1.50429 -2.4492,2.2793 h -8.6836 c -0.897,0.79964 -1.7052,1.51629 -2.5644,2.2832 h -8.666 c -0.6342,0.63419 -1.1589,1.15778 -2.0723,2.06836 h -11.0899 c -0.9133,0.9132 -1.4363,1.43618 -2.3496,2.34961 h -8.5234 c -1.5096,1.10031 -2.3511,1.71577 -2.9121,2.125 h -3.8516 c -0.7507,0.68835 -1.5513,1.42331 -2.4023,2.20117 h -6.54103 c -0.81848,0.76144 -1.61883,1.50363 -2.45899,2.28125 h -5.45312 c -3.34706,3.02455 -6.08344,5.47698 -8.77734,7.97852 -0.18441,0.17331 -0.0215,0.7167 -0.0215,1.35351 0.561,0.9132 1.24012,2.01585 2.05859,3.34375 -4.02188,1.35515 -0.2303,6.53214 -4.27929,8.15821 v 9.85937 c 0,3.62899 0.006,7.25788 0,9.43946 -1.88355,3.4502 -3.04115,5.57141 -4.45313,8.16211 v 7.20312 c -1.74535,3.63434 -3.09709,6.41669 -4.39258,9.22461 -0.10568,0.23294 0.1732,0.64165 0.53907,1.83398 2.59363,-1.74808 3.39534,1.0447 3.57422,1.16016 3.23052,1.59358 5.26427,0.0997 6.73047,1.86133 0.18155,1.78319 0.36347,3.52788 0.52343,5.07812 1.28462,1.1734 2.34034,2.13955 3.00977,2.75196 h 9.07226 c 0.70735,-0.70478 1.22958,-1.2276 2.13477,-2.13282 h 48.79879 l 2.1192,-2.11914 c 9.0465,0 18.2619,-0.0151 27.4765,0.0254 0.6559,0.003 1.3109,0.37495 1.9668,0.57813 0.523,0.52326 1.0442,1.04487 1.6133,1.61133 1.7969,0 3.6445,-0.10492 5.4766,0.0312 2.1193,0.1545 4.3643,-0.67645 6.7383,0.9414 l -6.6895,328.3574 c 1.4987,2.656 4.4171,3.2889 6.4063,4.6387 0.4039,1.2387 0.7242,2.2149 1.0332,3.1602 h 4.7168 c 0.7344,-0.683 1.5323,-1.4232 2.3535,-2.1875 h 4.3808 c 1.0624,-1.0628 2.1051,-2.1064 4.2598,-4.2618 0.6476,-0.3354 -2.8329,-3.2959 0.4355,-4.3144 1.328,1.3258 2.6352,2.6312 3.9415,3.9375 1.7481,0.1781 3.4962,0.3594 4.9433,0.5078 0.7996,0.7992 1.3202,1.3202 1.8867,1.8848 h 4.3164 c 0.8429,0.7799 1.646,1.5212 2.4239,2.2421 h 8.873 c 4.0733,-1.6883 7.2581,-4.4797 9.9981,-7.9785 v -3.3418 c 1.1275,-2.3579 1.8668,-3.9019 3.2246,-6.7402 2.6884,-2.5884 6.4011,-6.1627 10.0898,-9.7129 v -4.4336 c 1.1084,-1.1084 2.1539,-2.1552 3.1973,-3.2012 0.166,0.023 0.5767,-2.6708 1.1836,-7.5644 -0.085,-0.8075 -0.1604,-1.5128 -0.2305,-2.1758 0.095,0.2932 0.2247,0.6698 0.3633,1.0879 5.9647,-48.9066 29.0888,-288.61758 31.789,-290.63672 2.3496,-0.46351 5.2036,0.46548 6.7754,-2.39648 h 75.3379 c 0.8211,-0.76144 1.6196,-1.50015 2.4571,-2.27539 1.4175,0 3.4266,0.61382 4.2695,-0.11524 2.4608,-2.13837 5.4472,-3.60584 8.2793,-4.09375 3.488,-0.59896 6.2468,-3.02996 9.9707,-3.00976 1.7209,0.0109 3.4536,-1.94019 5.2559,-3.04883 v -6.3418 c 0.7587,-0.92141 1.3737,-1.66926 1.9726,-2.39844 -0.6857,-0.68823 -1.209,-1.21176 -1.9082,-1.9082 0.5935,-0.72644 1.2034,-1.47102 2.0625,-2.52539 0,-8.85952 0.011,-18.07225 -0.023,-27.28125 0,-0.66145 -0.3592,-1.32188 -0.5489,-1.98047 -0.5258,-0.52302 -1.0463,-1.04443 -1.5722,-1.57031 0.6938,-0.78321 1.3911,-1.56697 2.0605,-2.32031 -0.7318,-0.80488 -1.4588,-1.60858 -2.2285,-2.45704 v -4.26367 c -1.141,-1.1409 -2.1843,-2.18365 -3.2305,-3.23242 -2.5854,0 -5.173,0.0481 -7.7558,-0.0352 -0.6396,-0.0217 -1.2651,-0.48016 -1.8965,-0.74024 -0.5394,-0.48243 -1.0797,-0.96471 -1.6895,-1.50391 h -10.8183 c -0.9214,-0.81048 -1.7323,-1.52085 -2.5996,-2.28515 h -10.8614 c -0.6478,-0.64776 -1.1714,-1.16677 -2.082,-2.08008 h -17.7461 c -0.9105,-0.91058 -1.434,-1.43332 -2.0898,-2.0918 -0.7453,0.62598 -1.4976,1.25875 -2.3242,1.95508 -0.7209,-0.65562 -1.4979,-1.35817 -2.3028,-2.08984 h -13.0078 c -1.2494,-0.94843 -2.3496,-1.78248 -3.4961,-2.65235 -1.4716,0.962 -2.5663,1.68069 -3.6016,2.35547 -0.7534,-0.60158 -1.4918,-1.1881 -2.1992,-1.75195 -0.7372,0.73716 -1.2601,1.2619 -1.7832,1.78516 h -9.2929 c -2.065,-1.52596 -2.9427,-3.85605 -5.4063,-4.04102 -0.3198,2.14909 -2.1462,3.15178 -3.8047,4.30078 -0.6641,-0.0894 -1.3283,-0.17914 -2.5371,-0.34375 -0.071,-1.10044 -0.1452,-2.30999 -0.2402,-3.82226 2.5449,0 4.5737,-5.5e-4 6.582,-0.13672 0.018,-3.82396 -15.5566,-9.70118 -15.5566,-9.70118 z m -24.209,384.73438 c -0.046,0.3738 -0.089,0.7366 -0.1328,1.0879 0.1002,0.9469 0.2153,2.0355 0.3554,3.3633 1.0858,-0.2139 0.3577,-2.7008 -0.2226,-4.4512 z m 16.0312,-375.24609 c 0.2084,-0.004 0.3859,0.0245 0.4239,0.0976 1.103,2.1273 3.8494,1.93781 5.7168,3.23047 -2.0652,1.88901 -3.9333,0.82641 -5.6055,1.18945 -0.2602,-0.23842 -0.5281,-0.46314 -0.7774,-0.70703 -0.7616,-0.75334 -1.5144,-1.51446 -2.6445,-2.64453 0.8618,-0.41209 1.5514,-0.79198 2.2832,-1.06836 0.1558,-0.0577 0.3952,-0.0938 0.6035,-0.0976 z m 7.1153,84.20312 c 1.4526,1.8158 1.5293,3.04354 0.3261,4.3418 -2.4067,-0.91879 -1.7625,-2.32805 -0.3261,-4.3418 z m 313.8437,0.75 103.2129,168.19141 -60.5996,103.66406 -121.8047,-256.96875 -41.8476,-0.42969 6.7968,59.20703 h -33.6601 l 8.457,-59.20703 h -41.6094 l -146.4179,309.32424 142.6523,-0.043 13.8203,-82.2344 h 79.8985 l 15.2812,82.2774 h 88.0781 l -0.2304,0.3945 109.9218,-0.789 58.7793,-111.3633 69.6543,111.3633 h 104.7305 l -101.3105,-160.19927 99.1347,-163.1875 H 1110.1065 L 1043.5987,633.05537 977.5284,521.25849 Z M 712.2862,630.46552 h 38.3007 l 11.9805,83.71875 H 700.3291 Z M 477.6807,844.53386 c 1.5936,1.485 1.5936,2.9651 0,4.4473 -1.5935,-1.4822 -1.5935,-2.9623 0,-4.4473 z" />
</svg>
