<?xml version="1.0" encoding="UTF-8" standalone="no"?>
<!-- Created with Inkscape (http://www.inkscape.org/) -->

<svg
   version="1.1"
   id="svg2"
   xml:space="preserve"
   width="3785.3733"
   height="2916"
   viewBox="0 0 3785.3733 2916"
   sodipodi:docname="svg.svg"
   inkscape:version="1.1.2 (0a00cf5339, 2022-02-04)"
   xmlns:inkscape="http://www.inkscape.org/namespaces/inkscape"
   xmlns:sodipodi="http://sodipodi.sourceforge.net/DTD/sodipodi-0.dtd"
   xmlns="http://www.w3.org/2000/svg"
   xmlns:svg="http://www.w3.org/2000/svg"><defs
     id="defs6" /><sodipodi:namedview
     id="namedview4"
     pagecolor="#505050"
     bordercolor="#ffffff"
     borderopacity="1"
     inkscape:pageshadow="0"
     inkscape:pageopacity="0"
     inkscape:pagecheckerboard="1"
     showgrid="false"
     inkscape:zoom="0.30829904"
     inkscape:cx="1894.2647"
     inkscape:cy="1458"
     inkscape:window-width="3440"
     inkscape:window-height="1369"
     inkscape:window-x="0"
     inkscape:window-y="34"
     inkscape:window-maximized="1"
     inkscape:current-layer="g10" /><g
     id="g8"
     inkscape:groupmode="layer"
     inkscape:label="ink_ext_XXXXXX"
     transform="matrix(1.3333333,0,0,-1.3333333,0,2916)"><g
       id="g10"
       transform="scale(0.1)"><path
         d="M 28390.3,0 H 0 V 21870 H 28390.3 V 0"
         style="fill:#f4f4f9;fill-opacity:1;fill-rule:nonzero;stroke:none"
         id="path12" /><path
         d="m 16141.4,5600.9 82.2,-602.8 c 43.7,-320.1 168.3,-623.7 362.1,-882.2 l 469.5,-626 v -227.8 h -5720.1 v 227.8 l 469.5,626 c 193.8,258.5 318.4,562.1 362.1,882.2 l 82.2,602.8 h 3892.5"
         style="fill:#bcb4cf;fill-opacity:1;fill-rule:nonzero;stroke:none"
         id="path14" /><path
         d="M 24653,7187.7 H 3737.27 V 18259.5 H 24653 V 7187.7"
         style="fill:#ffffff;fill-opacity:1;fill-rule:nonzero;stroke:none"
         id="path16" /><path
         d="M 24020.6,19258.3 H 4362.38 c -345.24,0 -625.11,-279.9 -625.11,-625.1 v -366.6 H 24653 v 359.3 c 0,349.3 -283.1,632.4 -632.4,632.4"
         style="fill:#bcb4cf;fill-opacity:1;fill-rule:nonzero;stroke:none"
         id="path18" /><path
         d="M 4357.92,5600.9 H 24027.9 c 345.3,0 625.1,279.9 625.1,625.1 v 961.7 H 3737.27 v -966.1 c 0,-342.8 277.87,-620.7 620.65,-620.7"
         style="fill:#bcb4cf;fill-opacity:1;fill-rule:nonzero;stroke:none"
         id="path20" /><path
         d="m 4365.32,19226.5 c -328.75,0 -596.21,-267.5 -596.21,-596.2 V 6229 c 0,-328.8 267.46,-596.3 596.21,-596.3 H 24025 c 328.7,0 596.2,267.5 596.2,596.3 v 12401.3 c 0,328.7 -267.5,596.2 -596.2,596.2 z M 24025,5569 H 4365.32 c -363.87,0 -659.91,296.1 -659.91,660 v 12401.3 c 0,363.8 296.04,659.9 659.91,659.9 H 24025 c 363.9,0 659.9,-296.1 659.9,-659.9 V 6229 c 0,-363.9 -296,-660 -659.9,-660"
         style="fill:#494e5e;fill-opacity:1;fill-rule:nonzero;stroke:none"
         id="path22" /><path
         d="M 24653,7155.8 H 3737.27 c -17.6,0 -31.86,14.3 -31.86,31.9 0,17.5 14.26,31.8 31.86,31.8 H 24653 c 17.6,0 31.9,-14.3 31.9,-31.8 0,-17.6 -14.3,-31.9 -31.9,-31.9"
         style="fill:#494e5e;fill-opacity:1;fill-rule:nonzero;stroke:none"
         id="path24" /><path
         d="m 17055.2,3230.2 h -5720.1 c -17.6,0 -31.9,14.3 -31.9,31.9 v 227.8 c 0,6.9 2.3,13.6 6.4,19.2 l 469.5,625.9 c 190.1,253.5 313.2,553.4 356,867.4 l 82.2,602.8 c 2.4,17.4 18.5,29.7 35.9,27.2 17.4,-2.3 29.6,-18.4 27.3,-35.8 l -82.2,-602.8 c -44.3,-324.7 -171.6,-634.8 -368.2,-897 l -463.2,-617.5 v -185.4 h 5656.5 v 185.4 l -463.2,617.5 c -196.6,262.2 -323.9,572.3 -368.1,897 l -82.2,602.8 c -2.4,17.4 9.8,33.5 27.2,35.8 17.3,2.4 33.5,-9.8 35.9,-27.2 l 82.2,-602.8 c 42.8,-314 165.9,-613.9 356,-867.4 l 469.5,-625.9 c 4.1,-5.6 6.4,-12.3 6.4,-19.2 v -227.8 c 0,-17.6 -14.3,-31.9 -31.9,-31.9"
         style="fill:#494e5e;fill-opacity:1;fill-rule:nonzero;stroke:none"
         id="path26" /><path
         d="M 24653,18234.8 H 3737.27 c -17.6,0 -31.86,14.2 -31.86,31.8 0,17.6 14.26,31.9 31.86,31.9 H 24653 c 17.6,0 31.9,-14.3 31.9,-31.9 0,-17.6 -14.3,-31.8 -31.9,-31.8"
         style="fill:#494e5e;fill-opacity:1;fill-rule:nonzero;stroke:none"
         id="path28" /><path
         d="m 17055.2,3458.1 h -5720.1 c -17.6,0 -31.9,14.3 -31.9,31.8 0,17.6 14.3,31.9 31.9,31.9 h 5720.1 c 17.6,0 31.9,-14.3 31.9,-31.9 0,-17.5 -14.3,-31.8 -31.9,-31.8"
         style="fill:#494e5e;fill-opacity:1;fill-rule:nonzero;stroke:none"
         id="path30" /><path
         d="M 15995.7,16363.3 H 6068.34 v 853.3 h 9927.36 v -853.3"
         style="fill:#dfe3f0;fill-opacity:1;fill-rule:nonzero;stroke:none"
         id="path32" /><path
         d="m 21144.5,16363.3 h -3794.3 v 853.3 h 3794.3 v -853.3"
         style="fill:#dfe3f0;fill-opacity:1;fill-rule:nonzero;stroke:none"
         id="path34" /><path
         d="m 14520,11157.4 -9629.44,894.7 320.78,3452.6 9629.46,-894.7 -320.8,-3452.6"
         style="fill:#dfe3f0;fill-opacity:1;fill-rule:nonzero;stroke:none"
         id="path36" /><path
         d="m 23473.9,8174.3 -6163.3,-401.9 -475.9,7298.6 6163.3,401.9 475.9,-7298.6"
         style="fill:#dfe3f0;fill-opacity:1;fill-rule:nonzero;stroke:none"
         id="path38" /><path
         d="M 12072.9,8181.6 H 4860.38 V 9919.8 H 12072.9 V 8181.6"
         style="fill:#dfe3f0;fill-opacity:1;fill-rule:nonzero;stroke:none"
         id="path40" /><path
         d="m 9660.47,11869.6 9054.43,-1.5 2.9,-5237.9 -9057.33,24.5 v 5214.9"
         style="fill:#f3f6ff;fill-opacity:1;fill-rule:nonzero;stroke:none"
         id="path42" /><path
         d="m 7021.97,2254.1 c 0,0 151.14,-112.8 312.55,-127.4 161.41,-14.7 411.98,20.3 433.44,-205.5 0,0 -21.46,-149 -173.83,-185.1 -152.38,-36.1 -445.85,-47.4 -574.52,-40.6 -128.67,6.8 -220.68,-20.4 -269.21,-8 -48.54,12.4 -124.72,94.9 -205.99,89.3 -81.27,-5.7 -101.58,-53.1 -195.26,-94.9 -93.69,-41.7 -230.26,-15.8 -321.69,6.8 -91.43,22.6 -188.5,35 -304.76,149 l 201.88,613.9 1097.39,-197.5"
         style="fill:#768e99;fill-opacity:1;fill-rule:nonzero;stroke:none"
         id="path44" /><path
         d="m 8884.83,2086.5 c 0,0 156.21,-116.1 231.1,-162.8 74.88,-46.6 219.82,-145.8 364.29,-162.7 144.49,-17 419.9,-9.1 408.61,-268.7 0,0 -18.63,-145 -301.37,-178.9 -282.74,-33.8 -672.16,-18.6 -861.79,6.8 0,0 -19.46,85.5 -19.46,88.9 0,3.4 -238.73,43.2 -238.73,43.2 0,0 -19.78,-142 -363.16,-101.6 -439.07,51.6 -392.81,184.5 -392.81,184.5 0,0 38.26,288.2 106.32,420.1 l 1067,131.2"
         style="fill:#768e99;fill-opacity:1;fill-rule:nonzero;stroke:none"
         id="path46" /><path
         d="m 7987.37,12637.9 c 0,0 -92.39,189.1 -60.83,310.9 31.56,121.7 81.64,235.1 132.49,318.2 50.85,83.2 106.2,186.6 201.87,226.5 95.65,39.8 197.11,98.2 365.09,98.2 167.97,0 416.16,-196.6 480.62,-261.1 0,0 221.09,31.2 343.63,-117.7 122.54,-148.9 27.9,-248.6 -215.98,-236.6 l -483.65,-24 -726.44,-246.1 -36.8,-68.3"
         style="fill:#ed737c;fill-opacity:1;fill-rule:nonzero;stroke:none"
         id="path48" /><path
         d="m 8795.1,11642.9 c 0,0 265.81,-106.6 262.42,-335.2 0,0 49.1,-9 141.66,-154.6 92.55,-145.6 92.55,-162.6 222.35,-217.9 129.81,-55.3 238.17,-153.5 238.17,-153.5 V 10486 c 0,0 -345.39,-291.2 -579.04,-338.6 0,0 -47.41,-294.6 -51.92,-500 -4.51,-205.5 -2.26,-486.5 1.13,-587 3.38,-100.4 21.45,-379.2 21.45,-379.2 l -1901.91,9 c 0,0 -74.5,27.1 -162.54,314.9 -88.03,287.8 -181.16,482.5 -33.85,871.9 0,0 20.31,188 37.24,418.2 16.94,230.3 54.18,469.6 101.59,617.5 47.41,147.8 143.91,364.5 243.8,506.8 99.9,142.2 196.4,241.5 297.98,300.2 101.59,58.7 250.58,106.1 347.09,265.2 l 64.34,234.5 c 0,0 59.26,-14.3 227.43,-172.4 168.18,-158 512.44,-453.7 512.44,-453.7 l 10.17,49.6"
         style="fill:#ed737c;fill-opacity:1;fill-rule:nonzero;stroke:none"
         id="path50" /><path
         d="m 8143.82,9071.7 c 0,0 -29.35,-49.7 -127.55,-118.5 -98.19,-68.9 -132.06,-88 -256.22,-107.2 -124.16,-19.2 -174.95,-41.8 -259.6,-83.6 -84.66,-41.7 -209.95,-104.9 -351.04,-72.2 0,0 -82.96,-79.6 -99.89,-314.9 -16.93,-235.4 -35.56,-513 -28.78,-728 6.77,-215.1 33.86,-487.7 81.26,-600.5 0,0 -32.72,-557.6 -21.44,-973 0,0 -92.55,-413.1 -146.73,-684 -54.18,-270.9 -141.66,-637.7 -11.29,-778.2 C 6868.36,4449 6778.07,4155 6649.38,3854.7 6520.71,3554.5 6335.6,3271.2 6394.3,3077.1 c 0,0 -347.99,-53.4 -469.72,-625.5 0,0 602.55,-304.8 1097.39,-197.5 0,0 10.05,172.3 -46.38,295.6 0,0 277.82,428.7 418.88,638.8 141.07,210.2 448.46,650.9 536.51,847.2 88.04,196.2 260.99,484.8 260.99,1030.1 0,0 133.46,-335.5 166.81,-561.6 33.36,-226.2 0.82,-377.4 7.99,-519.7 7.16,-142.4 38,-377.6 38,-377.6 0,0 -358.37,-978.1 -437.07,-1208.6 -44.88,-131.5 -131.84,-342.6 -149.87,-443 0,0 263.23,-45.9 586.94,-22.5 323.73,23.4 490.84,68.8 490.84,183.3 0,114.6 -19.25,183.3 -19.25,183.3 0,0 179.04,74.2 261.11,327.2 82.07,252.9 316.49,1051.9 421.05,1442.8 104.54,390.9 154.42,573.9 166.81,686.9 12.38,113 40.51,199.8 -22.19,415.5 -62.69,215.7 -279.17,1058.7 -349.24,1313.4 -70.07,254.8 -176.17,664.3 -201,935.8 l -781,1697.4 c 0,0 -168.26,-46.7 -228.08,-46.7"
         style="fill:#7d9abc;fill-opacity:1;fill-rule:nonzero;stroke:none"
         id="path52" /><path
         d="m 8813.72,13210.7 c 0,0 419.88,44.1 413.11,-342 -6.77,-386 -11.85,-567.1 -47.41,-699.2 -35.55,-132.1 -126.98,-320 -330.14,-264.1 0,0 -59.83,-235.4 -58.7,-321.2 l -651.27,575.7 -3.39,168.2 c 0,0 -133.2,59.8 -154.64,179.5 -21.45,119.6 21.44,153.5 21.44,153.5 0,0 95.95,153.5 193.02,248.3 0,0 171,-25.4 348.77,108.3 177.78,133.8 269.21,193 269.21,193"
         style="fill:#ffeede;fill-opacity:1;fill-rule:nonzero;stroke:none"
         id="path54" /><path
         d="m 10546.6,11866.4 c 0,0 -37.3,66.1 -64.3,67.7 -27.1,1.8 -43.2,-10.1 -43.2,-10.1 0,0 -44.9,55 -113.5,34.7 0,0 -49.1,73.7 -122.7,16.9 0,0 -45.7,51.7 -124.4,11.9 -78.77,-39.8 -103.32,-116 -103.32,-116 0,0 6.76,-50.8 138.82,-22 0,0 9.3,-91.4 134.6,5.9 0,0 70.3,-64.3 148.2,16.1 l 149.8,-5.1"
         style="fill:#ffeede;fill-opacity:1;fill-rule:nonzero;stroke:none"
         id="path56" /><path
         d="m 9141.61,10164.3 514.7,-197.5 3.39,519.2 c 0,0 -317.17,-267.5 -518.09,-321.7"
         style="fill:#ffeede;fill-opacity:1;fill-rule:nonzero;stroke:none"
         id="path58" /><path
         d="m 8774.77,9237.6 c 0,0 33.87,-118.5 92.56,-230.2 58.69,-111.8 185.11,-285 262.99,-467.9 77.88,-182.8 142.23,-397.9 181.16,-480.8 38.95,-83 145.06,-295 226.41,-414.1 81.36,-119 218.55,-304.3 218.55,-304.3 0,0 213.33,-46.2 341.26,-148.3 128,-102.2 119.1,-76.6 171.1,-197.5 51.9,-120.9 88.6,-188.5 102.9,-239.6 14.3,-51.2 24.9,-121 -64.8,-100.2 0,0 -19.6,-164.4 -154,-112.5 0,0 -110.6,-89.1 -279.87,38.4 0,0 -154.64,-98.2 -247.2,11.3 -92.55,109.5 -128.67,182.9 -171.56,330.7 -42.89,147.9 -108.36,275.4 -204.3,383.8 -95.95,108.3 -401.83,409.7 -506.8,548.5 -104.97,138.9 -362.32,422.2 -551.95,1210 l 583.55,172.7"
         style="fill:#ffeede;fill-opacity:1;fill-rule:nonzero;stroke:none"
         id="path60" /><path
         d="m 7493.67,11602.3 c 0,0 329.59,164.2 598.79,106.7 269.2,-57.6 421.58,-233.7 518.09,-452.1 0,0 -260.74,321.7 -662,311.5 -401.27,-10.1 -675.54,-275.9 -675.54,-275.9 0,0 28.22,99.9 220.66,309.8"
         style="fill:#7d9abc;fill-opacity:1;fill-rule:nonzero;stroke:none"
         id="path62" /><path
         d="m 9012.94,9679 c 0,0 24.83,149 47.4,318.3 69.98,363.4 68.29,672.1 68.29,672.1 -164.23,-52.5 -341.43,-6.2 -341.43,-6.2 0,0 0,-187.4 -27.09,-286.7 0,0 2.25,-130.9 20.31,-259.6 18.06,-128.7 27.97,-308.9 67.16,-468.4 39.2,-159.5 121.9,-371.4 -72.81,-410.9 l 32.17,-115.7 60.39,-114.5 178.34,-303.7 -32.73,975.3"
         style="fill:#7d9abc;fill-opacity:1;fill-rule:nonzero;stroke:none"
         id="path64" /><path
         d="m 19805.8,2537.5 c 0,0 -121.9,-143.3 -298,-229.1 -176.1,-85.8 -269.7,-89.2 -377,-108.4 -107.2,-19.2 -294.6,-28.2 -288.9,-292.3 0,0 401.2,-125.3 707.7,-74.5 -55.9,-36.4 -138,-83.8 -191.3,-111.7 -53.4,-28 -129.6,-53.4 -117.7,-285.3 0,0 231.1,-42.1 534.7,-44.3 303.7,-2.3 423.3,11.3 514.7,63.2 91.5,51.9 108.4,63.2 108.4,63.2 0,0 136.6,-10.2 296.8,13.5 160.3,23.7 228,61 219,164.8 -9,103.9 -75.6,298 -75.6,298 l -1032.8,542.9"
         style="fill:#768e99;fill-opacity:1;fill-rule:nonzero;stroke:none"
         id="path66" /><path
         d="m 18458.1,11872.1 c 0,0 -18.1,124.1 105,226.8 l 665.9,-14.6 959.7,92.8 c 0,0 112.6,-8.4 121.1,-92.3 0,0 74.5,-82.9 97.3,-197.2 0,0 441.1,-251.4 576.5,-816.9 0,0 133.8,-198.1 159.2,-695.9 25.4,-497.8 -88.1,-848.2 -88.1,-848.2 0,0 174.4,-121.9 159.2,-413.1 -11.9,-98.2 -102.4,-183.7 -117.7,-211.7 -15.2,-27.9 -44.8,-75.3 -18.6,-220.1 26.2,-144.7 6.8,-182.8 6.8,-182.8 0,0 -245.8,-0.6 -447.9,152.9 -202,153.5 -401.8,287.8 -401.8,287.8 l 120.8,118 -817.8,306.5 112.3,396.1 c 0,0 -84.6,73.4 -156.9,164.8 -72.2,91.5 -197.5,215.6 -251.7,260.8 -54.1,45.1 -231.3,126.4 -231.3,126.4 0,0 -29.4,218.4 67.1,477.4 96.5,259.1 247.8,555.4 247.8,555.4 l -31.6,119.6 c 0,0 -163.7,-292.3 -221.3,-427.8 -57.5,-135.4 -160.8,-413.1 -160.8,-413.1 0,0 42.8,454.4 105,643.4 0,0 -191.4,74.5 -299.7,62.6 l -1.7,538.4 -256.8,4"
         style="fill:#ed737c;fill-opacity:1;fill-rule:nonzero;stroke:none"
         id="path68" /><path
         d="m 19293.4,11464.6 c 0,0 -141.1,-228 -194.2,-356.7 -53,-128.6 -177.2,-470.7 -197.5,-595.9 0,0 7.9,-460.6 23.7,-769.8 15.8,-309.3 20.3,-553.1 33.9,-758.5 13.5,-205.5 9.6,-616.9 9.6,-616.9 l -45.8,-897.3 c 0,0 -76.1,-342.9 -99.8,-456.3 -23.7,-113.4 -191.4,-977.8 -220.7,-1178.7 -29.4,-200.9 -84.1,-515.2 -41.8,-689.6 42.3,-174.4 89.8,-328.5 181.2,-555.4 91.4,-226.8 224,-594.8 431.7,-965 207.7,-370.2 308.2,-541.8 400.4,-618 0,0 25.4,-110.9 94,-187.9 68.6,-77.1 160,-203.2 160,-203.2 0,0 -88,-179.5 106.7,-220.1 0,0 32.1,-161.7 -44.9,-215.9 0,0 226.3,-52.7 406.9,-117.1 180.6,-64.3 347.6,-128.6 541.8,-67.7 0,0 109.5,187.4 73.4,322.8 -36.2,135.5 -100.5,214.5 -182.9,324 0,0 -133.2,484.2 -158,644.5 -24.8,160.2 -56.5,387.7 -66.6,619.6 -10.2,232 -1.7,651.9 -272.6,799.2 0,0 69.4,377.5 37.3,640 0,0 234.2,641.1 324.5,875.8 208.1,541.3 726.2,1482.2 490.7,2278.4 0,0 -268.4,2.8 -412.9,128.1 -144.4,125.3 -436.8,312.6 -436.8,312.6 l 120.8,118 -817.8,306.5 112.3,396.1 c 0,0 -106.3,91.5 -141.9,148.2 -35.6,56.7 -56.7,175.2 20.3,244.6 77.1,69.4 182.9,141.4 216.7,237.1 33.9,95.6 127.3,346.5 210.8,450.3 83.6,103.9 257.4,335.3 579.1,330.2 321.7,-5.1 491,-233.7 567.1,-474.1 0,0 -37.2,609.5 -555.3,609.5 -518.1,0 -851.6,-557 -931.2,-795.7 -52.5,-76.2 -132,-151.6 -171,-187.1 -38.9,-35.6 -136.3,-119.4 -138.8,-190.5 0,0 -88.9,88.9 -147.3,118.5 -58.4,29.7 -148.4,61 -148.4,61 0,0 -19.2,203.2 50.2,414.8 69.4,211.6 201.5,520.9 262.4,603.3 l -29.3,134.3"
         style="fill:#7d9abc;fill-opacity:1;fill-rule:nonzero;stroke:none"
         id="path70" /><path
         d="m 19104.3,12918.7 c 0,0 33.9,-429.2 62.6,-605.3 28.8,-176.1 81.3,-409.7 267.6,-452.1 0,0 95.9,-387.7 77.8,-547.9 0,0 125.3,68.8 247.2,165.3 121.9,96.5 433.5,397.9 433.5,397.9 l 3.3,524.8 c 0,0 115.2,10.2 176.1,204.9 25.4,93.1 -63.5,151.5 -63.5,151.5 0,0 -90.6,6 -133.7,-61.8 0,0 -104.1,50 -105,204.1 0,0 -155.8,-48.3 -265.8,2.5 -110.1,50.8 -354.7,204 -528.2,184.6 0,0 -72.9,-130.4 -171.9,-168.5"
         style="fill:#ffeede;fill-opacity:1;fill-rule:nonzero;stroke:none"
         id="path72" /><path
         d="m 18547.3,12094.4 c 0,0 -530.5,53.1 -577.9,-48.5 0,0 -85.8,44 -123.1,-11.3 0,0 -98.2,21.5 -118.5,-29.3 0,0 -154.6,32.7 -154.6,-133.2 h 71.1 c 0,0 51.9,-176.1 93.7,-164.8 41.7,11.3 31.6,85.8 31.6,85.8 0,0 21.4,-149 66.6,-147.9 45.1,1.1 57.6,127.5 57.6,127.5 0,0 11.2,-164.8 79,-176 67.7,-11.3 48.5,161.4 48.5,161.4 0,0 16.9,-73.4 49.7,-72.3 32.7,1.2 72.2,186.3 72.2,186.3 h 314.9 c 0,0 -5.6,123 89.2,222.3"
         style="fill:#ffeede;fill-opacity:1;fill-rule:nonzero;stroke:none"
         id="path74" /><path
         d="m 19537.7,9364.1 -50.8,-254 c 0,0 -3.3,-77.1 -83.8,-135.5 -80.4,-58.4 -212.4,-218.4 -364.8,-484.2 -152.4,-265.8 -558.7,-924.4 -780.5,-1112.3 0,0 -186.8,-59.3 -281.7,-162 -94.8,-102.7 -178.3,-185.1 -181.7,-259.6 -3.4,-74.5 132.1,-100.5 132.1,-100.5 l -39.5,-213.3 c -11.3,-49.7 54.2,-200.9 193,-63.2 -11.3,-58.7 22.6,-173.8 142.2,-57.6 0,0 54.2,-112.9 151.3,23.7 0,0 56.4,-41.7 103.8,-11.3 47.4,30.5 41.8,108.4 65.5,200.9 23.7,92.6 137.7,431.2 165.9,500.1 0,0 229.7,257.9 415.9,415.3 186.3,157.5 517.9,416.1 623.1,563.8 105.2,147.8 157.4,259.1 264.1,426.7 106.7,167.6 286.1,379.3 343.7,416.5 l -817.8,306.5"
         style="fill:#ffeede;fill-opacity:1;fill-rule:nonzero;stroke:none"
         id="path76" /><path
         d="m 20105.8,12927.2 c 0,0 139.6,-60.1 211.6,-64.4 l -8.5,-105 -133.7,-61.8 c 0,0 -114.3,49.2 -105,204.1 l 35.6,27.1"
         style="fill:#bc8e79;fill-opacity:1;fill-rule:nonzero;stroke:none"
         id="path78" /><path
         d="m 20317.4,12862.8 c 0,0 55,601.9 -495.2,712 -550.3,110 -689.1,-447 -711.1,-508 0,0 -226.1,-90.5 -230.3,-192.1 -4.2,-101.6 381,87.2 395.4,212.5 0,0 176,4.2 331.8,-81.3 155.8,-85.5 234.5,-169.3 513.8,-86.4 l 195.6,-56.7"
         style="fill:#ed737c;fill-opacity:1;fill-rule:nonzero;stroke:none"
         id="path80" /><path
         d="m 17627.3,11837.8 h -7232.2 c -17.6,0 -31.9,14.2 -31.9,31.8 0,17.6 14.3,31.9 31.9,31.9 h 7232.2 c 17.5,0 31.8,-14.3 31.8,-31.9 0,-17.6 -14.3,-31.8 -31.8,-31.8"
         style="fill:#494e5e;fill-opacity:1;fill-rule:nonzero;stroke:none"
         id="path82" /><path
         d="m 17887.7,6598.4 h -7580.8 c -17.5,0 -31.8,14.3 -31.8,31.8 0,17.6 14.3,31.9 31.8,31.9 h 7580.8 c 17.6,0 31.8,-14.3 31.8,-31.9 0,-17.5 -14.2,-31.8 -31.8,-31.8"
         style="fill:#494e5e;fill-opacity:1;fill-rule:nonzero;stroke:none"
         id="path84" /><path
         d="m 19509.5,11819 c -321.1,0 -370.9,431.2 -400.7,688.9 l -3.8,32.6 c -2,17.5 10.5,33.3 27.9,35.4 17.5,2 33.4,-10.4 35.4,-27.9 l 3.8,-32.8 c 27.4,-236.6 73.1,-632.5 337.4,-632.5 109.4,0 243.3,61.9 367.3,169.7 13.2,11.6 33.4,10.2 44.9,-3.1 11.6,-13.3 10.2,-33.4 -3.1,-44.9 -135.4,-117.8 -284.5,-185.4 -409.1,-185.4"
         style="fill:#494e5e;fill-opacity:1;fill-rule:nonzero;stroke:none"
         id="path86" /><path
         d="m 19155.8,12753.1 c -11.2,0 -22.1,5.9 -27.9,16.4 -8.5,15.4 -2.9,34.8 12.5,43.3 56.3,31.1 127.9,34.5 186.9,8.9 16.1,-7 23.5,-25.8 16.5,-41.9 -7,-16.2 -25.7,-23.6 -41.9,-16.6 -41.3,18 -91.4,15.6 -130.7,-6.2 -4.9,-2.7 -10.2,-3.9 -15.4,-3.9"
         style="fill:#494e5e;fill-opacity:1;fill-rule:nonzero;stroke:none"
         id="path88" /><path
         d="m 19791.5,12775.8 c -4,0 -8.1,0.8 -12,2.3 -59.6,24.2 -129,27 -190.3,7.7 -16.8,-5.3 -34.7,4 -40,20.8 -5.3,16.8 4.1,34.7 20.8,40 76.4,24 159.3,20.6 233.4,-9.4 16.3,-6.6 24.2,-25.2 17.6,-41.5 -5,-12.4 -16.9,-19.9 -29.5,-19.9"
         style="fill:#494e5e;fill-opacity:1;fill-rule:nonzero;stroke:none"
         id="path90" /><path
         d="m 19314.5,12679.2 c 0,-24.8 -18.3,-44.9 -40.8,-44.9 -22.5,0 -40.7,20.1 -40.7,44.9 0,24.7 18.2,44.8 40.7,44.8 22.5,0 40.8,-20.1 40.8,-44.8"
         style="fill:#494e5e;fill-opacity:1;fill-rule:nonzero;stroke:none"
         id="path92" /><path
         d="m 19273.7,12719.5 c -19.9,0 -36.2,-18.1 -36.2,-40.3 0,-22.2 16.3,-40.3 36.2,-40.3 20,0 36.2,18.1 36.2,40.3 0,22.2 -16.2,40.3 -36.2,40.3 z m 0,-89.7 c -25,0 -45.3,22.1 -45.3,49.4 0,27.2 20.3,49.4 45.3,49.4 25,0 45.3,-22.2 45.3,-49.4 0,-27.3 -20.3,-49.4 -45.3,-49.4"
         style="fill:#494e5e;fill-opacity:1;fill-rule:nonzero;stroke:none"
         id="path94" /><path
         d="m 19736.8,12699.9 c 0,-24.8 -18.2,-44.9 -40.7,-44.9 -22.5,0 -40.8,20.1 -40.8,44.9 0,24.7 18.3,44.8 40.8,44.8 22.5,0 40.7,-20.1 40.7,-44.8"
         style="fill:#494e5e;fill-opacity:1;fill-rule:nonzero;stroke:none"
         id="path96" /><path
         d="m 19696.1,12740.2 c -20,0 -36.2,-18.1 -36.2,-40.3 0,-22.2 16.2,-40.3 36.2,-40.3 19.9,0 36.2,18.1 36.2,40.3 0,22.2 -16.3,40.3 -36.2,40.3 z m 0,-89.7 c -25,0 -45.3,22.1 -45.3,49.4 0,27.2 20.3,49.4 45.3,49.4 24.9,0 45.3,-22.2 45.3,-49.4 0,-27.3 -20.4,-49.4 -45.3,-49.4"
         style="fill:#494e5e;fill-opacity:1;fill-rule:nonzero;stroke:none"
         id="path98" /><path
         d="m 19432.9,12347.1 c -5.5,0 -11.1,1.4 -16.1,4.4 -20.3,11.9 -45.6,26.8 -63,51.1 -22.8,31.8 -24.5,73.4 -4.2,101.3 8.3,11.3 18.7,18.7 27,24.6 3.7,2.6 7.2,5.1 9.8,7.4 10.2,9.2 16.4,25.4 17,44.5 0.7,20.7 -4.8,43.3 -10.1,65.1 -4.1,17.1 6.4,34.3 23.4,38.4 17.1,4.2 34.4,-6.3 38.5,-23.4 6,-24.7 12.8,-52.8 11.9,-82.1 -1.2,-37 -14.8,-68.9 -38.3,-89.9 -5.2,-4.7 -10.6,-8.6 -15.3,-11.9 -5.3,-3.8 -10.3,-7.3 -12.4,-10.3 -4,-5.4 -2,-17.6 4.4,-26.6 9.6,-13.3 26.9,-23.5 43.6,-33.3 15.1,-8.9 20.2,-28.4 11.3,-43.6 -6,-10.1 -16.6,-15.7 -27.5,-15.7"
         style="fill:#494e5e;fill-opacity:1;fill-rule:nonzero;stroke:none"
         id="path100" /><path
         d="m 19478.2,12139.9 c -37.1,0 -74.2,9 -106.5,27.5 -15.3,8.7 -20.6,28.1 -11.9,43.4 8.7,15.3 28.1,20.6 43.4,11.9 52.2,-29.7 121.8,-24.9 169.3,11.7 14,10.8 34,8.2 44.7,-5.8 10.7,-13.9 8.1,-33.9 -5.8,-44.6 -37.9,-29.2 -85.6,-44.1 -133.2,-44.1"
         style="fill:#494e5e;fill-opacity:1;fill-rule:nonzero;stroke:none"
         id="path102" /><path
         d="m 20191.5,12366.9 c -13.5,0 -26.1,8.8 -30.4,22.4 -5.2,16.8 4.2,34.6 21,39.9 83.3,26 123.3,88.9 139.7,124.1 23,49.4 28.3,104.3 13.4,139.8 -7,16.8 -16.3,27.5 -27.7,31.7 -18.8,6.9 -42.5,-2.6 -54.9,-8.9 -15.7,-7.9 -34.9,-1.6 -42.8,14.1 -8,15.7 -1.7,34.9 14,42.8 26.5,13.4 66.4,26.3 105.7,11.8 19.7,-7.3 46.9,-24.8 64.5,-67 21.8,-52 16.2,-125.3 -14.5,-191.2 -36,-77.2 -99.4,-133.3 -178.5,-158 -3.1,-1 -6.3,-1.5 -9.5,-1.5"
         style="fill:#494e5e;fill-opacity:1;fill-rule:nonzero;stroke:none"
         id="path104" /><path
         d="m 20231.4,12532.8 c -3.7,0 -7.5,0.7 -11.1,2.1 -16.5,6.1 -24.9,24.4 -18.8,40.9 13.3,35.6 34.9,68.2 62.5,94.3 12.8,12.1 32.9,11.5 45,-1.2 12.1,-12.8 11.5,-33 -1.2,-45 -20.6,-19.5 -36.7,-43.8 -46.6,-70.3 -4.7,-12.8 -16.9,-20.8 -29.8,-20.8"
         style="fill:#494e5e;fill-opacity:1;fill-rule:nonzero;stroke:none"
         id="path106" /><path
         d="m 20191.4,11849.2 c -16.7,0 -30.7,13 -31.8,29.8 -8.2,127.2 -5.2,282.1 -2.6,418.8 0.6,31.7 1.2,62.5 1.6,91.8 0.3,17.6 14.7,31.8 32.3,31.4 17.6,-0.2 31.7,-14.7 31.4,-32.3 -0.4,-29.4 -1,-60.3 -1.6,-92.1 -2.6,-135.5 -5.6,-288.9 2.5,-413.5 1.1,-17.5 -12.2,-32.7 -29.8,-33.8 -0.7,-0.1 -1.3,-0.1 -2,-0.1"
         style="fill:#494e5e;fill-opacity:1;fill-rule:nonzero;stroke:none"
         id="path108" /><path
         d="m 19510.3,11283.7 c -0.4,0 -0.9,0.1 -1.4,0.1 -17.6,0.8 -31.2,15.7 -30.4,33.2 6.8,148.6 -33,377.9 -75.7,527.5 -4.8,16.9 5,34.6 21.9,39.4 16.9,4.8 34.5,-5 39.4,-21.9 44.1,-154.6 85.1,-392.5 78,-547.9 -0.7,-17 -14.8,-30.4 -31.8,-30.4"
         style="fill:#494e5e;fill-opacity:1;fill-rule:nonzero;stroke:none"
         id="path110" /><path
         d="m 19356.6,10985.6 c -17.6,0 -31.9,14.2 -31.9,31.8 0,205.6 -37.1,395.8 -116.8,598.5 -8.8,22.4 -25.1,64 -1.5,99.8 13,19.6 33.4,29 46.9,35.2 l 167.5,77 c 16,7.3 34.9,0.4 42.3,-15.6 7.3,-16 0.3,-34.9 -15.6,-42.3 l -167.6,-77 c -6.9,-3.2 -17.4,-8 -20.3,-12.4 -5.4,-8.2 4,-32.3 7.6,-41.4 82.7,-210.4 121.2,-408 121.2,-621.8 0,-17.5 -14.2,-31.8 -31.8,-31.8"
         style="fill:#494e5e;fill-opacity:1;fill-rule:nonzero;stroke:none"
         id="path112" /><path
         d="m 19168.7,10225.5 c -3.2,0 -6.5,0.5 -9.7,1.5 -16.7,5.4 -26,23.3 -20.6,40.1 10.3,32.2 32.3,132.4 55.7,238.5 31.2,142 66.6,303 89.2,372.4 8,24.7 19.3,63 31.2,103.5 17.5,59.3 35.6,120.6 48.4,156.5 55.3,156.1 116.1,195.4 226.5,266.9 111.3,72 279.4,180.7 567.2,483.8 115.2,121.3 120.6,180.1 113.6,204.3 -10,34.2 -59.2,46.5 -80.2,51.8 -17,4.3 -27.4,21.6 -23.1,38.7 4.3,17 21.6,27.4 38.7,23.1 28.9,-7.3 105.6,-26.5 125.7,-95.8 19.6,-67.3 -22.5,-154.3 -128.5,-266 -293,-308.5 -465,-419.8 -578.8,-493.4 -108.2,-70 -153,-99 -201.1,-234.6 -12.2,-34.4 -30.8,-97.6 -47.3,-153.4 -12.1,-40.9 -23.5,-79.6 -31.7,-105 -21.6,-66.5 -56.7,-225.9 -87.6,-366.5 -24.7,-112.3 -46.1,-209.2 -57.3,-244.2 -4.3,-13.6 -16.8,-22.2 -30.3,-22.2"
         style="fill:#494e5e;fill-opacity:1;fill-rule:nonzero;stroke:none"
         id="path114" /><path
         d="m 19784.1,10932.8 c 0,0 -0.1,0 -0.2,0 -13.6,0.1 -25.7,8.8 -30,21.7 -44.5,133.7 -104.6,240.5 -184.6,376.7 -8.9,15.1 -3.8,34.7 11.4,43.6 15.1,8.9 34.6,3.8 43.5,-11.4 66.6,-113.2 119.7,-206.7 162.2,-312.5 62.2,122.4 156.2,203.8 254.8,289.2 48.7,42.1 99,85.7 147.6,136 l 2,2.1 c 85,88 172.9,179.1 192.3,292.5 18.5,108.3 -50.2,222.7 -110.9,323.7 l -5.6,9.4 c -9.1,15.1 -4.2,34.7 10.9,43.7 15.1,9.1 34.6,4.2 43.7,-10.9 l 5.6,-9.4 c 66.4,-110.5 141.5,-235.7 119,-367.2 -22.6,-132.8 -121.7,-235.5 -209.1,-326 l -2,-2.1 c -50.6,-52.4 -102.1,-96.9 -151.8,-140 -115.8,-100.3 -215.8,-186.9 -268.7,-337.8 -4.5,-12.8 -16.5,-21.3 -30.1,-21.3"
         style="fill:#494e5e;fill-opacity:1;fill-rule:nonzero;stroke:none"
         id="path116" /><path
         d="m 17979.2,12033.3 c -11.8,0 -23.2,6.6 -28.7,18 -7.6,15.9 -0.9,34.9 14.9,42.5 91.9,44.3 195.3,42.2 286.5,40.3 l 941,-19.5 c 17.5,-0.3 31.5,-14.9 31.1,-32.5 -0.3,-17.6 -14.8,-31.5 -32.5,-31.2 l -940.9,19.5 c -84.1,1.7 -179.4,3.7 -257.6,-34 -4.4,-2.1 -9.1,-3.1 -13.8,-3.1"
         style="fill:#494e5e;fill-opacity:1;fill-rule:nonzero;stroke:none"
         id="path118" /><path
         d="m 18459.7,11870.6 c -1,0 -2.1,0 -3.2,0.2 -17.5,1.7 -30.2,17.3 -28.5,34.8 7.8,78 45.9,152.5 104.6,204.4 13.2,11.7 33.3,10.4 45,-2.7 11.6,-13.2 10.4,-33.4 -2.8,-45 -46.8,-41.4 -77.2,-100.8 -83.4,-163 -1.6,-16.4 -15.5,-28.7 -31.7,-28.7"
         style="fill:#494e5e;fill-opacity:1;fill-rule:nonzero;stroke:none"
         id="path120" /><path
         d="m 18066.5,11654.9 c -1,0 -1.9,0 -2.9,0 -45.4,1.8 -71,50.5 -75.6,95 -1.7,17.5 11,33.2 28.5,34.9 17.6,1.8 33.1,-10.9 34.9,-28.4 1.8,-17.5 9.9,-34.2 14.8,-37.6 7.9,5.5 16.7,34.9 19.6,44.8 1,3.4 2,6.5 2.8,9.3 13.6,42.7 17.9,73.1 23.9,115.2 1,7.3 2.1,14.9 3.3,22.8 4.3,29.8 6.6,60.2 -6.7,80.9 -10.3,16.1 -31.9,27.3 -57.8,29.9 -27.3,2.7 -57,-3.3 -85.6,-9.1 -17.2,-3.5 -34.1,7.6 -37.6,24.9 -3.5,17.2 7.7,34 24.9,37.5 31.7,6.5 67.8,13.8 104.7,10.1 45.7,-4.6 84,-26.1 105.1,-59 24.5,-38.4 21.9,-84.4 16,-124.4 -1.2,-7.9 -2.2,-15.3 -3.2,-22.5 -6.2,-43.5 -11.1,-77.8 -26.2,-125.5 -0.8,-2.5 -1.6,-5.3 -2.5,-8.2 -8.8,-29.6 -26.9,-90.6 -80.4,-90.6"
         style="fill:#494e5e;fill-opacity:1;fill-rule:nonzero;stroke:none"
         id="path122" /><path
         d="m 17971.4,11566.5 c -23,0 -46.7,10.8 -63.3,30.2 -17.1,20 -24.5,44.3 -30,67.6 -21.5,91.6 -24.7,185.4 -27.7,276.1 -0.6,17.6 13.2,32.3 30.8,32.9 0.3,0 0.7,0 1,0 17.1,0 31.3,-13.5 31.9,-30.7 2.9,-87.7 5.9,-178.2 26,-263.7 3.4,-14.4 7.7,-30.7 16.4,-40.7 5.5,-6.5 13.7,-9 16.6,-7.8 2.3,1 5.7,5.1 7.7,11.1 2.9,8.7 3.3,19.9 3.7,31.7 l 10.2,280.5 c 0.6,17.6 15.4,31.3 33,30.7 17.5,-0.7 31.3,-15.4 30.6,-33 l -10.1,-280.5 c -0.6,-15.1 -1.2,-32.1 -7,-49.5 -7.7,-23.2 -23.6,-41.4 -43.5,-49.7 -8.3,-3.5 -17.3,-5.2 -26.3,-5.2"
         style="fill:#494e5e;fill-opacity:1;fill-rule:nonzero;stroke:none"
         id="path124" /><path
         d="m 17835.4,11678.1 v 0 z m -2.5,-63.3 c -6.1,0 -10.7,0.9 -13.1,1.5 -57.3,14.5 -68.1,88.8 -72.7,120.5 l -25.3,173.9 c -2.5,17.4 9.6,33.6 27,36.1 17.5,2.4 33.6,-9.6 36.1,-27 l 25.2,-173.6 c 7,-48.4 16.4,-62.9 22.7,-66.9 5.3,5.2 26,33.2 21.4,146.5 -0.7,17.6 12.9,32.4 30.5,33.1 17.5,0.6 32.4,-13 33.1,-30.5 4.3,-105.8 -10.5,-170.9 -45.3,-199.1 -14.6,-11.8 -29.2,-14.5 -39.6,-14.5"
         style="fill:#494e5e;fill-opacity:1;fill-rule:nonzero;stroke:none"
         id="path126" /><path
         d="m 17845.8,12008.5 c -9,0 -18.1,3.9 -24.4,11.4 -11.3,13.5 -9.5,33.6 4,44.9 21.2,17.8 48,28.1 75.7,29.1 27.7,1.1 55.2,-7.3 77.6,-23.5 14.3,-10.2 17.5,-30.1 7.2,-44.4 -10.2,-14.3 -30.1,-17.5 -44.4,-7.2 -10.8,7.8 -24.8,12 -38.1,11.5 -13.3,-0.5 -26.9,-5.7 -37.1,-14.3 -6,-5 -13.2,-7.5 -20.5,-7.5"
         style="fill:#494e5e;fill-opacity:1;fill-rule:nonzero;stroke:none"
         id="path128" /><path
         d="m 17725.9,11973.7 c -4,0 -8,0.8 -11.9,2.4 -16.4,6.6 -24.2,25.1 -17.6,41.4 11.8,29.1 41.2,50.1 76.9,54.6 27.4,3.5 53,-2.3 75.6,-7.5 17.2,-4 27.9,-21.1 23.9,-38.2 -3.9,-17.1 -21,-27.8 -38.1,-23.9 -18.3,4.2 -37.2,8.5 -53.3,6.4 -12.3,-1.5 -23,-7.8 -26,-15.3 -5,-12.3 -16.9,-19.9 -29.5,-19.9"
         style="fill:#494e5e;fill-opacity:1;fill-rule:nonzero;stroke:none"
         id="path130" /><path
         d="m 17573,11862.1 c -0.5,0 -0.9,0 -1.4,0 -17.5,0.7 -31.2,15.6 -30.4,33.2 1.9,46.1 25.3,90.1 62.6,117.4 37.2,27.4 86.1,36.5 130.8,24.6 17,-4.6 27.1,-22.1 22.5,-39.1 -4.6,-16.9 -22,-27 -39,-22.5 -25.8,7 -55.1,1.5 -76.6,-14.3 -21.5,-15.8 -35.6,-42.2 -36.7,-68.8 -0.7,-17.1 -14.8,-30.5 -31.8,-30.5"
         style="fill:#494e5e;fill-opacity:1;fill-rule:nonzero;stroke:none"
         id="path132" /><path
         d="m 17729,11674.8 c -83.3,0 -114.7,187.1 -120.3,225.4 -2.5,17.4 9.5,33.5 26.9,36.1 17.5,2.5 33.6,-9.6 36.1,-27 12.6,-86.4 41.6,-155.5 57.6,-169.3 2.7,4.4 9.8,20.5 6.5,64.7 -1.4,17.5 11.8,32.8 29.3,34.1 17.5,1.3 32.8,-11.8 34.2,-29.3 8.4,-110.7 -37,-131.7 -64.7,-134.4 -1.9,-0.2 -3.7,-0.3 -5.6,-0.3"
         style="fill:#494e5e;fill-opacity:1;fill-rule:nonzero;stroke:none"
         id="path134" /><path
         d="m 18257.7,11850.3 c -1.3,0 -2.7,0.1 -4,0.3 -17.5,2.2 -29.8,18.1 -27.6,35.6 4.1,32.7 -0.1,66.3 -12.1,97.1 -6.4,16.4 1.7,34.8 18.1,41.2 16.4,6.4 34.9,-1.7 41.3,-18.1 15.8,-40.6 21.3,-84.9 15.9,-128.2 -2.1,-16.1 -15.8,-27.9 -31.6,-27.9"
         style="fill:#494e5e;fill-opacity:1;fill-rule:nonzero;stroke:none"
         id="path136" /><path
         d="m 18995.1,11241.6 c -4.7,0 -9.5,1 -14,3.3 -75.9,37.3 -160.7,57.1 -245.3,57.1 -0.9,0 -1.8,-0.1 -2.6,0 -17.6,0 -31.8,14.1 -31.9,31.7 -0.1,17.5 14.1,31.9 31.7,32 0.9,0 1.9,0 2.8,0 94.3,0 188.8,-22 273.4,-63.7 15.8,-7.8 22.3,-26.8 14.5,-42.6 -5.5,-11.3 -16.8,-17.8 -28.6,-17.8"
         style="fill:#494e5e;fill-opacity:1;fill-rule:nonzero;stroke:none"
         id="path138" /><path
         d="m 18930.6,9621.1 c -16.8,0 -30.7,13 -31.8,29.9 -18.2,299.4 -37.1,609 -23,914.7 16.1,346.7 72.6,641.7 172.9,901.8 6.3,16.4 24.7,24.6 41.2,18.2 16.4,-6.3 24.6,-24.7 18.3,-41.1 -97.8,-253.7 -153,-542.1 -168.7,-881.9 -13.5,-290.2 3.3,-585.6 20.7,-872.1 1.5,-3.7 2.3,-7.7 2.3,-11.9 v -25.8 c 0,-17.2 -13.7,-31.3 -30.9,-31.8 -0.3,0 -0.7,0 -1,0"
         style="fill:#494e5e;fill-opacity:1;fill-rule:nonzero;stroke:none"
         id="path140" /><path
         d="m 18967.2,8335.1 c -0.2,0 -0.4,0 -0.6,0.1 -17.6,0.3 -31.6,14.8 -31.3,32.4 5.7,317.6 -7.7,713.9 -40,1177.9 -1.2,17.6 12,32.8 29.6,34 17.6,1.2 32.7,-12 33.9,-29.6 32.4,-465.8 46,-864 40.2,-1183.5 -0.3,-17.4 -14.5,-31.3 -31.8,-31.3"
         style="fill:#494e5e;fill-opacity:1;fill-rule:nonzero;stroke:none"
         id="path142" /><path
         d="m 18914.3,12887.7 c 3,-0.6 7.8,-1.1 14.8,-0.8 94.2,5.2 222.5,81 295,169.2 -122.1,-13.1 -233.3,-70.2 -301.7,-155.9 -4.6,-5.8 -6.9,-9.9 -8.1,-12.5 z m 10,-64.6 c -41.7,0 -60.2,18.4 -68.5,34.4 -8.7,17 -12.9,45.1 16.8,82.4 85.2,106.9 226.8,175 378.7,182.1 129.2,6.1 269.4,-29.6 405.1,-103.3 15.6,-8.5 31.2,-17.4 46.3,-26.1 50.9,-29.3 99,-57 152,-69.6 83.2,-20 173.8,-0.1 251.4,22 16.9,4.8 34.5,-5 39.4,-21.9 4.8,-16.9 -5,-34.6 -22,-39.4 -85.5,-24.3 -186.1,-46 -283.6,-22.7 -61.9,14.8 -116.4,46.1 -169,76.4 -14.7,8.5 -30,17.2 -44.9,25.3 -107.9,58.7 -218.2,91.3 -321.8,95.8 -74.2,-119.5 -245.1,-228.3 -371.7,-235.1 -2.8,-0.2 -5.6,-0.3 -8.2,-0.3"
         style="fill:#494e5e;fill-opacity:1;fill-rule:nonzero;stroke:none"
         id="path144" /><path
         d="m 20308.5,12751.1 c -1.8,0 -3.6,0.1 -5.4,0.4 -17.4,3 -29,19.5 -26,36.8 28.8,167.6 -2.4,342.7 -85.8,480.5 -87.3,143.9 -233.4,248.6 -391,279.8 -164.1,32.5 -338.9,-15.4 -456.3,-125 -92,-85.8 -148.1,-201.3 -204.1,-348.3 -6.3,-16.5 -24.7,-24.7 -41.1,-18.4 -16.5,6.2 -24.7,24.6 -18.4,41.1 51.1,134.3 113.3,272.4 220.1,372.2 132.1,123.3 328.4,177.3 512.1,140.9 174.9,-34.7 336.8,-150.3 433.1,-309.3 91.3,-150.7 125.6,-341.8 94.2,-524.3 -2.7,-15.5 -16.2,-26.4 -31.4,-26.4"
         style="fill:#494e5e;fill-opacity:1;fill-rule:nonzero;stroke:none"
         id="path146" /><path
         d="m 20312.1,12830.3 c -2.3,0 -4.6,0.2 -6.9,0.7 -116,25.4 -219.9,69.8 -330,116.7 -235.6,100.6 -479.3,204.7 -853.6,107.8 -17,-4.4 -34.4,5.8 -38.8,22.9 -4.4,17 5.8,34.4 22.8,38.8 395.4,102.3 649.2,-6.1 894.6,-110.9 107.2,-45.7 208.5,-89 318.6,-113.1 17.2,-3.7 28.1,-20.7 24.3,-37.9 -3.2,-14.9 -16.4,-25 -31,-25"
         style="fill:#494e5e;fill-opacity:1;fill-rule:nonzero;stroke:none"
         id="path148" /><path
         d="m 20176.6,12664.1 c -5.1,0 -10.2,1.2 -15,3.7 -77.3,41.2 -126.2,127.7 -121.6,215.3 1,17.5 16,30.9 33.5,30.1 17.6,-1 31.1,-16 30.2,-33.5 -3.3,-62.3 32.8,-126.3 87.9,-155.7 15.5,-8.3 21.4,-27.6 13.1,-43.1 -5.7,-10.7 -16.7,-16.8 -28.1,-16.8"
         style="fill:#494e5e;fill-opacity:1;fill-rule:nonzero;stroke:none"
         id="path150" /><path
         d="m 19295.4,10090.4 c -10.2,0 -20.2,4.9 -26.3,14 -62.1,91 -159.5,156.2 -267.4,178.8 -17.2,3.6 -28.3,20.5 -24.7,37.7 3.6,17.2 20.5,28.3 37.7,24.6 123.9,-25.9 235.8,-100.7 307,-205.3 9.9,-14.5 6.2,-34.3 -8.4,-44.2 -5.5,-3.8 -11.7,-5.6 -17.9,-5.6"
         style="fill:#494e5e;fill-opacity:1;fill-rule:nonzero;stroke:none"
         id="path152" /><path
         d="m 18906.1,10476.4 c -2.2,0 -4.4,0.2 -6.6,0.7 -17.2,3.6 -28.2,20.5 -24.6,37.7 71.1,336.7 195.2,650 379.5,957.8 9,15.1 28.6,20 43.7,11 15.1,-9 20,-28.6 10.9,-43.7 -180.5,-301.6 -302.1,-608.6 -371.7,-938.2 -3.2,-15 -16.4,-25.3 -31.2,-25.3"
         style="fill:#494e5e;fill-opacity:1;fill-rule:nonzero;stroke:none"
         id="path154" /><path
         d="m 19008.2,10282.5 c -15.6,0 -29.3,11.5 -31.5,27.4 -50.4,356.5 258.5,954.6 304.3,1027.1 9.4,14.9 29,19.4 43.9,10 14.9,-9.4 19.3,-29.1 10,-43.9 -72.3,-114.5 -339.2,-672.6 -295.1,-984.3 2.4,-17.4 -9.7,-33.5 -27.1,-36 -1.5,-0.2 -3,-0.3 -4.5,-0.3"
         style="fill:#494e5e;fill-opacity:1;fill-rule:nonzero;stroke:none"
         id="path156" /><path
         d="m 19324.1,9983.3 c -10.6,0 -21,5.3 -27,15 -34.8,55.8 -34.9,133.3 -0.4,202.4 30.2,60.2 79.8,106.1 124,144.3 5.6,4.9 11.2,9.7 16.8,14.6 39.6,33.9 77,65.9 105.2,105.3 10.2,14.3 30.2,17.6 44.4,7.4 14.3,-10.3 17.6,-30.2 7.4,-44.5 -32.7,-45.6 -74.8,-81.7 -115.5,-116.6 -5.5,-4.8 -11.1,-9.5 -16.6,-14.3 -39.5,-34.3 -83.8,-74.9 -108.7,-124.7 -19.3,-38.7 -30.2,-95.9 -2.6,-140.2 9.3,-15 4.8,-34.6 -10.2,-43.9 -5.2,-3.3 -11,-4.8 -16.8,-4.8"
         style="fill:#494e5e;fill-opacity:1;fill-rule:nonzero;stroke:none"
         id="path158" /><path
         d="m 21047.6,9483.6 c -3.3,0 -6.7,0.5 -10,1.6 -16.7,5.5 -25.8,23.5 -20.3,40.2 58.3,177.8 95.7,476.6 95.2,761.2 -0.3,179.2 -23.7,360.7 -73.7,571.2 -22.5,94.9 -65.6,181 -124.5,248.9 -92.7,106.7 -232.6,165.5 -394,165.5 -335.7,0 -689.1,-311.5 -879.3,-775.2 -6.7,-16.3 -25.3,-24.1 -41.6,-17.4 -16.3,6.7 -24,25.3 -17.4,41.6 200,487.3 577.1,814.7 938.3,814.7 180.1,0 337.1,-66.6 442.1,-187.5 65.7,-75.6 113.5,-171 138.4,-275.9 51.2,-215.4 75.1,-401.5 75.4,-585.8 0.5,-290.8 -38.1,-597.4 -98.4,-781.2 -4.4,-13.4 -16.9,-21.9 -30.2,-21.9"
         style="fill:#494e5e;fill-opacity:1;fill-rule:nonzero;stroke:none"
         id="path160" /><path
         d="m 19647,9730.2 c -8.8,0 -17.4,3.5 -23.7,10.6 -14.9,16.5 -32.2,33.2 -50.4,50.7 -65.8,63.4 -140.4,135.3 -136.1,239.4 3.6,85.5 61.4,147.1 123.3,201 8.7,7.6 17.5,15 26.2,22.4 33.2,28.1 64.4,54.5 89.1,86.5 39,50.3 59.9,112 82.1,177.2 4.7,13.9 9.4,27.8 14.3,41.5 65.4,183.7 159.7,333.2 280.4,444.3 138.8,127.9 315.7,201.3 485.3,201.3 0.4,0 0.7,0 1.1,0 277,-0.6 459.9,-155.2 593.1,-501.3 6.3,-16.4 -1.9,-34.8 -18.3,-41.1 -16.4,-6.3 -34.8,1.8 -41.1,18.2 -124.1,322.3 -283.7,460 -533.8,460.5 -154,0.5 -315.6,-66.9 -443.2,-184.4 -113,-104.1 -201.6,-245 -263.5,-418.9 -4.7,-13.4 -9.4,-27 -14,-40.6 -22.9,-67.3 -46.5,-136.9 -92,-195.7 -28.8,-37.2 -64.1,-67.2 -98.3,-96.1 -8.5,-7.2 -17.1,-14.5 -25.5,-21.8 -47.7,-41.5 -98.8,-91.2 -101.5,-155.6 -3.2,-75.5 57.7,-134.2 116.6,-190.9 18.2,-17.6 37.1,-35.8 53.5,-54.1 11.8,-13.1 10.7,-33.2 -2.4,-45 -6.1,-5.4 -13.7,-8.1 -21.2,-8.1"
         style="fill:#494e5e;fill-opacity:1;fill-rule:nonzero;stroke:none"
         id="path162" /><path
         d="m 20985.1,11044.8 c -14.5,0 -27.6,9.9 -31,24.6 -57.6,244.4 -258.1,597.3 -562.3,794.6 -14.7,9.5 -18.9,29.3 -9.3,44 9.5,14.8 29.3,19 44,9.4 320.6,-207.9 527.1,-568.4 589.6,-833.4 4,-17.1 -6.6,-34.3 -23.7,-38.3 -2.4,-0.6 -4.9,-0.9 -7.3,-0.9"
         style="fill:#494e5e;fill-opacity:1;fill-rule:nonzero;stroke:none"
         id="path164" /><path
         d="m 21063,8782.1 c -1,0 -2.1,0.1 -3.1,0.2 -17.5,1.7 -30.3,17.3 -28.6,34.8 5.1,51.5 34.3,91.2 65.2,133.3 46.4,63.1 99,134.6 87.1,271.3 -7.1,82.9 -44.6,164.5 -102.7,224 -12.3,12.6 -12,32.8 0.5,45.1 12.6,12.3 32.8,12 45.1,-0.6 69.2,-70.9 112.1,-164.3 120.6,-263 13.9,-160.6 -48.8,-246 -99.3,-314.5 -27.8,-37.9 -49.7,-67.7 -53.1,-101.9 -1.6,-16.4 -15.5,-28.7 -31.7,-28.7"
         style="fill:#494e5e;fill-opacity:1;fill-rule:nonzero;stroke:none"
         id="path166" /><path
         d="m 21083,8465.4 c -0.7,0 -1.3,0 -2,0 -17.6,1.1 -30.9,16.2 -29.8,33.8 4.7,75.8 0.8,152.2 -11.6,227.1 -2.9,17.3 8.8,33.7 26.1,36.6 17.4,2.9 33.8,-8.8 36.7,-26.2 13.2,-79.6 17.4,-160.9 12.4,-241.5 -1.1,-16.9 -15.1,-29.8 -31.8,-29.8"
         style="fill:#494e5e;fill-opacity:1;fill-rule:nonzero;stroke:none"
         id="path168" /><path
         d="m 21083,8465.4 c -0.8,0 -1.5,0 -2.3,0 -284.2,20.5 -397.3,108.1 -553.8,229.3 -70.2,54.3 -149.8,116 -259.6,183.9 -15,9.3 -19.6,28.9 -10.3,43.9 9.3,14.9 28.9,19.6 43.8,10.3 112.6,-69.8 193.6,-132.4 265.1,-187.8 153.2,-118.6 254.4,-196.9 519.4,-216 17.5,-1.3 30.7,-16.5 29.4,-34.1 -1.2,-16.7 -15.1,-29.5 -31.7,-29.5"
         style="fill:#494e5e;fill-opacity:1;fill-rule:nonzero;stroke:none"
         id="path170" /><path
         d="m 19480.2,9072.7 c -2,0 -4,0.2 -6.1,0.6 -17.2,3.3 -28.6,20 -25.3,37.2 70.1,365.5 181.9,723.2 332.5,1063.4 7.2,16 26,23.3 42.1,16.2 16,-7.1 23.3,-25.9 16.2,-42 -148.7,-335.8 -259.1,-688.9 -328.2,-1049.5 -2.9,-15.3 -16.3,-25.9 -31.2,-25.9"
         style="fill:#494e5e;fill-opacity:1;fill-rule:nonzero;stroke:none"
         id="path172" /><path
         d="m 20424.6,9001.6 c -3.7,0 -7.5,0.7 -11.1,2.1 l -887.8,331.7 c -16.5,6.2 -24.8,24.5 -18.7,41 6.2,16.5 24.5,24.8 41,18.7 l 857,-320.3 c 25.6,66.7 67.6,125.7 105.3,178.7 l 336.6,472.4 c 10.2,14.3 30.1,17.7 44.4,7.5 14.3,-10.2 17.7,-30.1 7.5,-44.5 l -336.6,-472.4 c -42.7,-60 -86.9,-122 -107,-191.8 -2.4,-8.5 -8.3,-15.6 -16.2,-19.6 -4.5,-2.3 -9.4,-3.5 -14.4,-3.5"
         style="fill:#494e5e;fill-opacity:1;fill-rule:nonzero;stroke:none"
         id="path174" /><path
         d="m 18717.8,7938.1 c -17.6,0 -31.8,14.3 -31.8,31.9 v 3867.8 h -544.8 c -17.6,0 -31.9,14.2 -31.9,31.8 0,17.6 14.3,31.9 31.9,31.9 h 576.6 c 17.6,0 31.9,-14.3 31.9,-31.9 V 7970 c 0,-17.6 -14.3,-31.9 -31.9,-31.9"
         style="fill:#494e5e;fill-opacity:1;fill-rule:nonzero;stroke:none"
         id="path176" /><path
         d="m 18717.8,6598.4 h -193.2 c -17.6,0 -31.9,14.3 -31.9,31.8 0,17.6 14.3,31.9 31.9,31.9 h 161.4 v 585.4 c 0,7.8 2.8,15.4 8.1,21.3 155.3,173.2 329.2,340.7 531.6,512 41.6,35.1 84.2,69.7 125.5,103.2 138.5,112.4 269.3,218.5 377.5,355.6 35.1,44.6 67.8,91.4 97,139.2 30.2,49.3 59,101 86.9,150.9 36.1,64.7 73.4,131.6 114.6,195.2 83.5,129 183.8,246.6 298,349.3 13.1,11.8 33.2,10.7 45,-2.3 11.8,-13.1 10.7,-33.3 -2.4,-45 -110.1,-99 -206.7,-212.3 -287.1,-336.6 -40.1,-61.9 -76.9,-127.9 -112.5,-191.6 -28.2,-50.5 -57.3,-102.7 -88.2,-153.1 -30.5,-50 -64.6,-98.9 -101.3,-145.4 -112.6,-142.7 -252.3,-256.1 -387.4,-365.7 -41,-33.2 -83.4,-67.6 -124.4,-102.4 -196.7,-166.4 -366,-329 -517.2,-496.8 v -605.1 c 0,-17.5 -14.3,-31.8 -31.9,-31.8"
         style="fill:#494e5e;fill-opacity:1;fill-rule:nonzero;stroke:none"
         id="path178" /><path
         d="m 18432.8,6489.3 c -26.7,0 -52.5,10.5 -69.2,30.3 -11.3,13.4 -9.6,33.5 3.9,44.9 13.4,11.3 33.5,9.6 44.8,-3.8 7.4,-8.8 25.4,-10.3 38.6,-3.2 20.1,10.9 30.6,35 35,48.5 5.8,17.5 8.6,36.6 11.7,56.8 1.1,7.4 2.2,14.8 3.5,22.1 18.1,105.8 134.7,493 189.8,579.7 9.5,14.8 29.1,19.2 44,9.8 14.8,-9.5 19.2,-29.1 9.8,-44 -46.6,-73.2 -162.4,-448.4 -180.8,-556.2 -1.2,-7 -2.3,-14 -3.3,-20.9 -3.3,-22 -6.8,-44.6 -14.2,-67.3 -9.1,-27.4 -27.7,-64.2 -65.2,-84.5 -15.3,-8.2 -32,-12.2 -48.4,-12.2"
         style="fill:#494e5e;fill-opacity:1;fill-rule:nonzero;stroke:none"
         id="path180" /><path
         d="m 17919.2,6822.8 c -6.5,0 -13.1,2 -18.8,6.2 -11.5,8.4 -25.6,14.7 -40.6,21.4 -11.4,5.1 -23.2,10.3 -34.8,16.9 -41.6,23.6 -65.8,59.9 -64.8,97.3 0.6,22.6 10,41.7 18.8,57.9 99.6,182.9 270.6,323.5 469.2,385.8 16.8,5.3 34.7,-4.1 40,-20.9 5.2,-16.7 -4.1,-34.6 -20.9,-39.9 -183,-57.4 -340.6,-187 -432.3,-355.5 -5.5,-10.1 -10.9,-20.7 -11.1,-29.1 -0.5,-15.8 17.2,-31.5 32.5,-40.1 9,-5.1 18.8,-9.5 29.3,-14.2 17.4,-7.8 35.5,-15.8 52.4,-28.3 14.2,-10.4 17.2,-30.4 6.8,-44.6 -6.2,-8.4 -15.9,-12.9 -25.7,-12.9"
         style="fill:#494e5e;fill-opacity:1;fill-rule:nonzero;stroke:none"
         id="path182" /><path
         d="m 17982.5,6492.9 c -3.4,0 -6.4,0.2 -9,0.4 -36.6,3.1 -66.5,18.7 -86.4,45.1 -38.3,50.6 -30.4,127.9 -22.3,169.5 24.9,128.1 53,257.5 83.4,384.5 4.1,17.1 21.3,27.7 38.4,23.5 17.1,-4.1 27.7,-21.3 23.6,-38.4 -30.3,-126.1 -58.2,-254.5 -82.9,-381.7 -10.2,-52.3 -6.2,-96.8 10.6,-119 9.1,-12.1 22.1,-18.4 41,-20 15.7,-1.4 45.8,4.3 71.4,56.8 7.7,15.8 26.8,22.4 42.6,14.7 15.8,-7.7 22.4,-26.7 14.7,-42.6 -39.4,-80.8 -95.5,-92.8 -125.1,-92.8"
         style="fill:#494e5e;fill-opacity:1;fill-rule:nonzero;stroke:none"
         id="path184" /><path
         d="m 18141.2,6445.8 c -35.8,0 -69.4,18.9 -84.7,49.3 -11.9,23.9 -10.8,48.9 -8.7,72.5 3.3,36 7.6,71.7 11.8,106.2 2.1,17.4 17.9,29.9 35.4,27.8 17.4,-2.1 29.9,-18 27.8,-35.4 -4.1,-34.1 -8.3,-69.3 -11.5,-104.4 -1.4,-15 -2.2,-29.2 2.2,-38.2 5.1,-10.1 21.3,-16.2 35.4,-13.3 15.9,3.3 32,15.8 44.1,34.3 12.8,19.6 20.9,44.2 28.7,68 5.4,16.7 23.4,25.8 40.1,20.4 16.8,-5.5 25.9,-23.5 20.4,-40.2 -8.7,-26.4 -18.5,-56.4 -35.9,-83 -21.6,-33.1 -51.6,-55.1 -84.5,-61.9 -6.8,-1.4 -13.7,-2.1 -20.6,-2.1"
         style="fill:#494e5e;fill-opacity:1;fill-rule:nonzero;stroke:none"
         id="path186" /><path
         d="m 18284.9,6451.5 c -47.1,0 -88.9,34.3 -93.3,78.7 -1.8,17.5 10.9,33.1 28.4,34.9 17.6,1.7 33.2,-11 34.9,-28.5 1.2,-12 17.9,-22.6 33,-21.3 17.7,1.6 36.5,15.6 49,36.3 13.7,22.6 20.3,51 26.7,78.5 4,17.1 21.1,27.7 38.3,23.7 17.1,-4 27.7,-21.1 23.7,-38.2 -7.2,-30.8 -15.3,-65.7 -34.1,-96.8 -23.1,-38.4 -59.7,-63.4 -97.8,-66.9 -2.9,-0.3 -5.9,-0.4 -8.8,-0.4"
         style="fill:#494e5e;fill-opacity:1;fill-rule:nonzero;stroke:none"
         id="path188" /><path
         d="m 18257.8,7346.1 c -7.7,0 -15.3,2.7 -21.4,8.2 -13.1,11.8 -14,32 -2.2,45 238.5,263.1 508.8,640 705.3,983.5 16.6,29 33,58.3 49.5,87.7 109.9,196.1 223.6,398.9 403.6,539.8 13.9,10.9 33.9,8.4 44.7,-5.4 10.9,-13.9 8.4,-33.9 -5.4,-44.7 -170,-133.1 -280.5,-330.2 -387.3,-520.8 -16.6,-29.6 -33.1,-59 -49.8,-88.2 -198.6,-347.3 -472,-728.4 -713.4,-994.7 -6.3,-6.9 -15,-10.4 -23.6,-10.4"
         style="fill:#494e5e;fill-opacity:1;fill-rule:nonzero;stroke:none"
         id="path190" /><path
         d="m 19561.6,2973.8 c -9.5,0 -18.8,4.2 -25.1,12.2 -453.2,577.4 -815.9,1548.6 -950.9,1939.4 -84.4,244.3 -107,367.7 20.7,1130.7 78.5,468.3 175.8,953.9 281.6,1404.2 4,17.1 21.1,27.7 38.3,23.7 17.1,-4 27.7,-21.2 23.7,-38.3 -105.4,-449 -202.5,-933.1 -280.7,-1400.1 -125.3,-747.8 -103.8,-866.5 -23.4,-1099.4 104.5,-302.5 481.1,-1335 940.8,-1920.8 10.9,-13.9 8.5,-33.9 -5.4,-44.8 -5.8,-4.5 -12.7,-6.8 -19.6,-6.8"
         style="fill:#494e5e;fill-opacity:1;fill-rule:nonzero;stroke:none"
         id="path192" /><path
         d="m 19239.9,6757.4 c -12.4,0 -24.2,7.3 -29.3,19.4 -57.7,135.7 -84,285.2 -76.1,432.4 1,17.5 16,30.9 33.5,30.1 17.6,-1 31.1,-16 30.1,-33.5 -7.4,-137.6 17.2,-277.3 71.1,-404.1 6.9,-16.1 -0.7,-34.8 -16.8,-41.7 -4.1,-1.7 -8.3,-2.6 -12.5,-2.6"
         style="fill:#494e5e;fill-opacity:1;fill-rule:nonzero;stroke:none"
         id="path194" /><path
         d="m 19240.2,6163.6 c -16.9,0 -31,13.4 -31.8,30.5 -6.5,146.2 -3,294.2 10.6,440 1.6,17.5 17,30.2 34.6,28.7 17.6,-1.6 30.4,-17.1 28.8,-34.6 -13.3,-142.9 -16.8,-288 -10.4,-431.3 0.8,-17.6 -12.8,-32.4 -30.3,-33.2 -0.5,0 -1,-0.1 -1.5,-0.1"
         style="fill:#494e5e;fill-opacity:1;fill-rule:nonzero;stroke:none"
         id="path196" /><path
         d="m 19826.3,2576.7 c -10.9,0 -21.5,5.6 -27.4,15.6 -35.2,59.4 -38.3,63.6 -76.5,115.7 l -5.4,7.5 c -13.1,17.8 -27.6,35.2 -43.1,53.7 -29.1,34.8 -59.3,70.9 -80.1,111.6 -65.1,127.6 -96.8,265 -127.4,398 -9,39.4 -18.4,80.1 -28.5,119.8 -32.9,129.5 -67.1,260.9 -100.1,388.1 -17.2,65.9 -34.3,131.9 -51.4,197.9 l -3.4,13.2 c -36.8,142.4 -74.9,289.7 -109,435.6 -52.4,224 -106.5,455.5 -116.1,691.1 -13.9,341.5 65.7,670.3 145.4,946.9 4.8,16.9 22.5,26.6 39.4,21.8 16.9,-4.9 26.6,-22.5 21.8,-39.4 -78.3,-271.7 -156.5,-594.3 -143,-926.7 9.4,-229.5 62.8,-458.1 114.5,-679.2 34,-145.1 71.9,-292.1 108.7,-434.2 l 3.4,-13.2 c 17,-65.9 34.2,-131.8 51.3,-197.8 33.1,-127.2 67.3,-258.8 100.2,-388.4 10.3,-40.4 19.8,-81.5 28.9,-121.2 31.1,-135.2 60.5,-262.8 122,-383.3 17.6,-34.4 45.4,-67.6 72.3,-99.8 15.4,-18.4 31.3,-37.4 45.6,-56.9 l 5.4,-7.4 c 39.1,-53.3 43.2,-58.9 79.9,-120.9 9,-15.1 4,-34.7 -11.2,-43.6 -5.1,-3.1 -10.6,-4.5 -16.2,-4.5"
         style="fill:#494e5e;fill-opacity:1;fill-rule:nonzero;stroke:none"
         id="path198" /><path
         d="m 19937.4,2363.3 c -0.4,0 -0.9,0 -1.4,0.1 -56.4,2.4 -109.4,34.1 -138.4,82.5 -29.1,48.4 -31.9,110.1 -7.5,161 7.6,15.8 26.6,22.5 42.5,14.9 15.8,-7.6 22.5,-26.6 14.9,-42.5 -15,-31.3 -13.2,-70.9 4.7,-100.7 17.9,-29.8 51.9,-50.1 86.6,-51.6 17.6,-0.8 31.2,-15.6 30.4,-33.2 -0.7,-17.1 -14.8,-30.5 -31.8,-30.5"
         style="fill:#494e5e;fill-opacity:1;fill-rule:nonzero;stroke:none"
         id="path200" /><path
         d="m 19893.1,2155.6 c -6.8,0 -13.8,2.2 -19.6,6.8 -13.8,10.8 -16.2,30.8 -5.4,44.7 20.8,26.4 53.3,85.4 37.9,183.1 -2.8,17.4 9.1,33.7 26.5,36.4 17.3,2.8 33.6,-9.1 36.4,-26.5 19.2,-121.5 -23.5,-197.7 -50.7,-232.3 -6.3,-8 -15.6,-12.2 -25.1,-12.2"
         style="fill:#494e5e;fill-opacity:1;fill-rule:nonzero;stroke:none"
         id="path202" /><path
         d="m 20673.5,1941.9 c -90,0 -190.8,19.3 -306.9,58.2 -38.3,12.8 -77.4,27 -118.8,42 -119.4,43.4 -242.8,88.2 -355.7,103.1 -17.5,2.3 -29.8,18.3 -27.5,35.7 2.3,17.4 18.3,29.7 35.8,27.4 119.8,-15.8 246.6,-61.8 369.1,-106.3 41,-14.9 79.8,-28.9 117.3,-41.5 184,-61.6 324.4,-71.1 441.7,-29.7 16.6,5.8 34.8,-2.9 40.7,-19.5 5.8,-16.5 -2.9,-34.7 -19.5,-40.6 -54.4,-19.2 -112.6,-28.8 -176.2,-28.8"
         style="fill:#494e5e;fill-opacity:1;fill-rule:nonzero;stroke:none"
         id="path204" /><path
         d="m 20839.1,1968.9 c -5.3,0 -10.6,1.3 -15.5,4.1 -15.4,8.6 -20.8,28 -12.2,43.3 149.9,267.6 35.3,417.8 -56.8,538.6 -20.7,27.1 -40.3,52.8 -55.8,78.2 -9.2,15 -4.4,34.6 10.6,43.8 15,9.1 34.6,4.4 43.8,-10.6 13.7,-22.6 32.3,-47 52,-72.8 98,-128.4 232.2,-304.3 61.7,-608.3 -5.8,-10.4 -16.6,-16.3 -27.8,-16.3"
         style="fill:#494e5e;fill-opacity:1;fill-rule:nonzero;stroke:none"
         id="path206" /><path
         d="m 20703.8,2711.2 c -13.9,0 -26.7,9.2 -30.7,23.3 -120.8,432.9 -184.8,796.2 -201.2,1143.5 -1.9,39.6 -2.9,79.8 -3.9,118.7 -2.7,110.3 -5.6,224.4 -29,332.3 -34.9,161.5 -118.1,289.2 -228.1,350.3 -15.3,8.5 -20.9,27.9 -12.3,43.3 8.5,15.4 27.9,20.9 43.3,12.4 172.5,-95.8 236.6,-287.1 259.4,-392.6 24.7,-113.7 27.6,-230.9 30.4,-344.1 1,-38.6 1.9,-78.4 3.8,-117.3 16.2,-342.4 79.5,-701.2 199,-1129.4 4.7,-16.9 -5.2,-34.5 -22.1,-39.2 -2.9,-0.8 -5.8,-1.2 -8.6,-1.2"
         style="fill:#494e5e;fill-opacity:1;fill-rule:nonzero;stroke:none"
         id="path208" /><path
         d="m 20226.4,4675.3 c -1.5,0 -3.1,0.1 -4.7,0.3 -17.4,2.6 -29.4,18.8 -26.8,36.2 2.4,16.4 5,33.1 7.5,50.2 28.4,188 60.6,401 33.3,574.7 -2.7,17.4 9.1,33.7 26.5,36.4 17.4,2.7 33.7,-9.1 36.4,-26.5 28.8,-183.4 -5.6,-411.1 -33.2,-594.1 -2.5,-17 -5.1,-33.7 -7.5,-50 -2.3,-15.9 -15.9,-27.2 -31.5,-27.2"
         style="fill:#494e5e;fill-opacity:1;fill-rule:nonzero;stroke:none"
         id="path210" /><path
         d="m 20317.4,5451.5 c -3.4,0 -6.9,0.6 -10.3,1.7 -16.6,5.7 -25.5,23.8 -19.9,40.4 155.6,458.5 343.4,914.6 525.1,1355.6 l 10.7,26 c 12,29.2 24.1,58.1 36.1,87 76.9,184.4 149.6,358.5 191.6,553.7 50,232.1 66.6,459.7 49.3,676.5 -8.2,103.3 -24.3,203.2 -47.9,297 -4.3,17.1 6.1,34.4 23.1,38.7 17.1,4.3 34.4,-6.1 38.7,-23.1 24.4,-97.3 41.1,-200.7 49.6,-307.6 17.8,-222.9 0.8,-456.7 -50.5,-694.9 -43.3,-200.9 -117,-377.7 -195.1,-564.8 -12,-28.8 -24,-57.7 -36,-86.8 l -10.7,-25.9 c -181.3,-440.2 -368.7,-895.3 -523.7,-1351.8 -4.5,-13.3 -16.9,-21.7 -30.1,-21.7"
         style="fill:#494e5e;fill-opacity:1;fill-rule:nonzero;stroke:none"
         id="path212" /><path
         d="m 18843.3,1880.7 c -16.3,0 -30.2,12.5 -31.7,29.1 -6.1,71.6 12.7,172.2 68.4,224.3 45.2,42.1 106.6,70.6 187.6,87.2 34.5,7 69.3,11.4 103,15.7 28.9,3.6 58.8,7.4 87.4,12.7 177.2,33.2 415.5,173.8 520.3,307 10.9,13.9 30.9,16.2 44.7,5.4 13.9,-10.9 16.3,-30.9 5.4,-44.8 -114.8,-145.9 -365.4,-294 -558.7,-330.2 -30.5,-5.7 -61.3,-9.6 -91.1,-13.3 -32.5,-4.2 -66.2,-8.4 -98.2,-15 -69.3,-14.1 -120.6,-37.4 -156.9,-71.3 -37.9,-35.4 -53.3,-115.2 -48.4,-172.3 1.5,-17.5 -11.5,-32.9 -29,-34.4 -0.9,-0.1 -1.9,-0.1 -2.8,-0.1"
         style="fill:#494e5e;fill-opacity:1;fill-rule:nonzero;stroke:none"
         id="path214" /><path
         d="m 19405,1791.1 c -195.5,0 -420.5,42.9 -571.3,91.1 -16.8,5.3 -26,23.3 -20.7,40 5.4,16.8 23.3,26.1 40.1,20.7 179.8,-57.5 468,-107.3 675.6,-81 17.4,2.2 33.4,-10.1 35.6,-27.6 2.2,-17.4 -10.1,-33.4 -27.6,-35.6 -41.3,-5.2 -85.7,-7.6 -131.7,-7.6"
         style="fill:#494e5e;fill-opacity:1;fill-rule:nonzero;stroke:none"
         id="path216" /><path
         d="m 19600.9,1902.5 c -263.6,0 -643.7,70.9 -742.8,120.7 -15.7,7.9 -22,27.1 -14.1,42.8 7.8,15.7 27,22.1 42.7,14.1 99.8,-50.1 530,-126 777.7,-112.3 17.5,0.9 32.6,-12.4 33.6,-30 0.9,-17.6 -12.5,-32.6 -30.1,-33.6 -21.2,-1.2 -43.7,-1.7 -67,-1.7"
         style="fill:#494e5e;fill-opacity:1;fill-rule:nonzero;stroke:none"
         id="path218" /><path
         d="m 19239.7,1401.9 c -0.1,0 -0.1,0 -0.2,0 -17.6,0.1 -31.8,14.5 -31.7,32.1 0.1,9.5 0,20 -0.2,31 -0.8,62.1 -1.8,139.4 28.3,190.4 38.8,65.6 108.9,100.6 170.6,131.4 8.3,4.1 16.4,8.2 24.5,12.3 169.3,86.7 344.6,271.3 435.8,406.2 9.8,14.5 29.7,18.4 44.2,8.5 14.6,-9.9 18.4,-29.7 8.5,-44.2 -95.6,-141.4 -280.2,-335.4 -459.4,-427.2 -8.3,-4.2 -16.7,-8.4 -25.1,-12.6 -59.1,-29.5 -115,-57.4 -144.2,-106.9 -21.1,-35.5 -20.2,-105.8 -19.5,-157.1 0.2,-11.4 0.3,-22.3 0.2,-32.3 -0.1,-17.5 -14.3,-31.6 -31.8,-31.6"
         style="fill:#494e5e;fill-opacity:1;fill-rule:nonzero;stroke:none"
         id="path220" /><path
         d="m 19938.6,1361.1 c -10.3,0 -20.6,0 -30.7,0.1 -224.6,0.7 -461.6,6.3 -673.4,41.1 -17.3,2.9 -29.1,19.3 -26.2,36.6 2.8,17.4 19.2,29.2 36.6,26.3 207.3,-34.2 441.3,-39.6 663.2,-40.3 108,-0.4 219.5,-0.8 319.8,38 47.5,18.3 93.9,46.4 138.7,73.4 75.1,45.4 152.8,92.4 244.3,101.3 17.6,1.7 33.1,-11.1 34.8,-28.6 1.7,-17.6 -11.1,-33.1 -28.6,-34.8 -77.1,-7.6 -145.3,-48.7 -217.5,-92.4 -47.2,-28.5 -96,-58 -148.8,-78.4 -101,-39 -211.5,-42.3 -312.2,-42.3"
         style="fill:#494e5e;fill-opacity:1;fill-rule:nonzero;stroke:none"
         id="path222" /><path
         d="m 20392.1,1481.1 c -17.5,0 -31.8,14.2 -31.8,31.8 -0.1,17.5 14.1,31.9 31.7,31.9 138.1,0.5 281,1.1 412.5,45 22.2,7.4 46.7,17.2 60.2,34.1 18.1,22.8 18,59 15.5,91.4 -5.8,74.5 -39.8,191.4 -70.9,274.3 -6.2,16.4 2.2,34.8 18.6,41 16.5,6.2 34.9,-2.2 41.1,-18.6 30.2,-80.7 68,-205.5 74.7,-291.8 3.3,-42.1 2.9,-95.7 -29.2,-136 -23.8,-29.9 -58.8,-44.5 -89.9,-54.9 -141.1,-47.1 -289.2,-47.7 -432.4,-48.2 h -0.1"
         style="fill:#494e5e;fill-opacity:1;fill-rule:nonzero;stroke:none"
         id="path224" /><path
         d="m 19861,1473.3 c -122.6,0 -245,12.8 -364.2,25.3 -79.5,8.4 -161.8,17 -242.4,21.6 -17.5,1 -31,16 -29.9,33.6 1,17.6 15.8,31.1 33.6,30 82.1,-4.7 165.1,-13.4 245.3,-21.8 147.8,-15.5 300.5,-31.6 449.7,-22.3 183,11.4 299.5,59.5 460.8,126 123.4,50.9 263.2,108.6 471.5,166.7 16.9,4.7 34.5,-5.2 39.2,-22.2 4.7,-16.9 -5.2,-34.5 -22.1,-39.2 -204.6,-57 -342.5,-113.9 -464.3,-164.2 -160.7,-66.3 -287.6,-118.7 -481.2,-130.7 -31.9,-2 -64,-2.8 -96,-2.8"
         style="fill:#494e5e;fill-opacity:1;fill-rule:nonzero;stroke:none"
         id="path226" /><path
         d="m 19834.8,1736.9 c -6,0 -12,1.7 -17.4,5.2 -14.7,9.7 -18.8,29.5 -9.1,44.2 81.2,123.2 181,232.4 296.5,324.3 13.8,10.9 33.8,8.7 44.7,-5.1 11,-13.8 8.7,-33.8 -5,-44.7 -110.3,-87.8 -205.5,-191.9 -283,-309.6 -6.1,-9.3 -16.3,-14.3 -26.7,-14.3"
         style="fill:#494e5e;fill-opacity:1;fill-rule:nonzero;stroke:none"
         id="path228" /><path
         d="m 19906.7,1855.1 c -4.9,0 -9.9,1.2 -14.6,3.6 -63.3,32.6 -134.5,48.1 -205.7,44.5 -17.6,-0.9 -32.5,12.6 -33.4,30.2 -0.8,17.6 12.7,32.5 30.3,33.4 82.3,4.1 164.7,-13.7 238,-51.5 15.6,-8.1 21.8,-27.3 13.7,-42.9 -5.6,-11 -16.8,-17.3 -28.3,-17.3"
         style="fill:#494e5e;fill-opacity:1;fill-rule:nonzero;stroke:none"
         id="path230" /><path
         d="m 20002.4,1964.8 c -5.7,0 -11.6,1.6 -16.9,4.9 -50.9,32.1 -109.4,53.5 -169,61.9 -17.4,2.5 -29.5,18.6 -27.1,36 2.5,17.4 18.7,29.5 36,27.1 68.5,-9.7 135.5,-34.3 194,-71 14.9,-9.4 19.4,-29.1 10,-44 -6,-9.6 -16.4,-14.9 -27,-14.9"
         style="fill:#494e5e;fill-opacity:1;fill-rule:nonzero;stroke:none"
         id="path232" /><path
         d="m 9660.47,7450.8 c -17.6,0 -31.86,14.3 -31.86,31.9 v 4386.9 c 0,17.6 14.26,31.9 31.86,31.9 h 315.72 c 17.6,0 31.81,-14.3 31.81,-31.9 0,-17.6 -14.21,-31.8 -31.81,-31.8 H 9692.31 V 7482.7 c 0,-17.6 -14.25,-31.9 -31.84,-31.9"
         style="fill:#494e5e;fill-opacity:1;fill-rule:nonzero;stroke:none"
         id="path234" /><path
         d="m 8894.65,11869.1 c -163.22,0 -359.7,103.6 -522.93,281.1 -11.91,12.9 -11.07,33.1 1.87,45 12.94,11.9 33.1,11 45.01,-1.9 173.18,-188.3 391,-289.9 542,-253 88.45,21.6 148.26,88 177.75,197.1 20.7,76.7 46.34,219.1 50.88,462.3 0.33,17.6 15.04,31.4 32.44,31.3 17.59,-0.3 31.57,-14.9 31.25,-32.4 -3.74,-200.6 -21.6,-361.3 -53.07,-477.8 -44.85,-166 -146.63,-223.4 -224.11,-242.4 -25.8,-6.3 -52.97,-9.3 -81.09,-9.3"
         style="fill:#494e5e;fill-opacity:1;fill-rule:nonzero;stroke:none"
         id="path236" /><path
         d="m 9012.02,12438.2 c -4.5,0 -9.1,0.3 -13.79,1.1 -17.37,2.8 -29.2,19.1 -26.42,36.5 2.79,17.3 19.13,29.1 36.49,26.4 14.25,-2.3 27.74,11.6 32.56,26.3 4.88,14.9 4.23,24.2 -22.8,45 -51.1,39.1 -78.43,115.8 -66.46,186.3 2.94,17.4 19.42,29 36.73,26.1 17.34,-3 29.01,-19.4 26.07,-36.8 -7.93,-46.7 10.31,-100.5 42.41,-125.1 17.99,-13.8 65.82,-50.4 44.6,-115.3 -12.05,-36.8 -45.8,-70.5 -89.39,-70.5"
         style="fill:#494e5e;fill-opacity:1;fill-rule:nonzero;stroke:none"
         id="path238" /><path
         d="m 9204.1,12855.1 c -4.46,0 -8.99,0.9 -13.31,2.9 -44.94,20.8 -97.4,23 -143.95,6.2 -16.54,-6 -34.8,2.6 -40.79,19.1 -5.97,16.5 2.59,34.8 19.14,40.8 62.15,22.4 132.24,19.5 192.26,-8.2 15.98,-7.4 22.96,-26.3 15.6,-42.3 -5.37,-11.6 -16.91,-18.5 -28.95,-18.5"
         style="fill:#494e5e;fill-opacity:1;fill-rule:nonzero;stroke:none"
         id="path240" /><path
         d="m 8605.55,12849.9 c -12.37,0 -24.13,7.3 -29.3,19.4 -6.91,16.1 0.6,34.9 16.77,41.8 70.33,30 152.09,32.8 224.28,7.5 16.61,-5.8 25.36,-24 19.55,-40.6 -5.82,-16.6 -23.99,-25.3 -40.59,-19.5 -57.36,20.1 -122.32,17.9 -178.21,-6 -4.08,-1.7 -8.32,-2.6 -12.5,-2.6"
         style="fill:#494e5e;fill-opacity:1;fill-rule:nonzero;stroke:none"
         id="path242" /><path
         d="m 8775.58,12769.3 c 0,-24.8 -18.26,-44.9 -40.77,-44.9 -22.51,0 -40.76,20.1 -40.76,44.9 0,24.7 18.25,44.8 40.76,44.8 22.51,0 40.77,-20.1 40.77,-44.8"
         style="fill:#494e5e;fill-opacity:1;fill-rule:nonzero;stroke:none"
         id="path244" /><path
         d="m 8734.81,12809.5 c -19.97,0 -36.21,-18 -36.21,-40.2 0,-22.3 16.24,-40.3 36.21,-40.3 19.96,0 36.21,18 36.21,40.3 0,22.2 -16.25,40.2 -36.21,40.2 z m 0,-89.6 c -24.99,0 -45.31,22.1 -45.31,49.4 0,27.2 20.32,49.3 45.31,49.3 24.98,0 45.31,-22.1 45.31,-49.3 0,-27.3 -20.33,-49.4 -45.31,-49.4"
         style="fill:#494e5e;fill-opacity:1;fill-rule:nonzero;stroke:none"
         id="path246" /><path
         d="m 9155.08,12769.3 c 0,-24.8 -18.25,-44.9 -40.76,-44.9 -22.51,0 -40.77,20.1 -40.77,44.9 0,24.7 18.26,44.8 40.77,44.8 22.51,0 40.76,-20.1 40.76,-44.8"
         style="fill:#494e5e;fill-opacity:1;fill-rule:nonzero;stroke:none"
         id="path248" /><path
         d="m 9114.32,12809.5 c -19.97,0 -36.22,-18 -36.22,-40.2 0,-22.3 16.25,-40.3 36.22,-40.3 19.97,0 36.21,18 36.21,40.3 0,22.2 -16.24,40.2 -36.21,40.2 z m 0,-89.6 c -24.98,0 -45.32,22.1 -45.32,49.4 0,27.2 20.34,49.3 45.32,49.3 24.99,0 45.31,-22.1 45.31,-49.3 0,-27.3 -20.32,-49.4 -45.31,-49.4"
         style="fill:#494e5e;fill-opacity:1;fill-rule:nonzero;stroke:none"
         id="path250" /><path
         d="m 8977.88,12209.3 c -64.64,0 -129.59,25.4 -175.2,71.3 -12.41,12.4 -12.34,32.6 0.13,45 12.48,12.4 32.65,12.3 45.05,-0.2 46.14,-46.4 119.08,-64.4 181.52,-44.7 16.8,5.3 34.66,-4 39.95,-20.8 5.28,-16.8 -4.04,-34.7 -20.81,-40 -22.84,-7.1 -46.71,-10.6 -70.64,-10.6"
         style="fill:#494e5e;fill-opacity:1;fill-rule:nonzero;stroke:none"
         id="path252" /><path
         d="m 8140.31,12143.5 c -0.05,0 -0.09,0 -0.13,0 -17.59,0.1 -31.79,14.4 -31.72,32 0.17,47 -1.75,128.3 -4.25,156.2 -1.57,17.5 11.36,33 28.88,34.5 17.45,1.7 32.99,-11.3 34.57,-28.8 2.94,-32.9 4.65,-119.4 4.5,-162.2 -0.07,-17.5 -14.32,-31.7 -31.85,-31.7"
         style="fill:#494e5e;fill-opacity:1;fill-rule:nonzero;stroke:none"
         id="path254" /><path
         d="m 8136.47,12297.6 c -2.95,0 -5.97,0.4 -8.96,1.3 -56.89,16.6 -108.35,57.2 -141.19,111.2 -29.79,49 -44.79,108 -43.36,170.7 0.97,42.7 11.92,73.8 33.49,95.2 22.64,22.4 57.22,32.8 92.48,27.6 25.22,-3.6 49.89,-14.2 77.65,-33.2 14.5,-10 18.19,-29.8 8.23,-44.3 -9.96,-14.5 -29.8,-18.2 -44.28,-8.2 -19.41,13.3 -35.52,20.5 -50.71,22.7 -15.38,2.2 -30.14,-1.6 -38.54,-9.9 -9.28,-9.2 -14.06,-26 -14.64,-51.4 -1.15,-50.4 10.65,-97.5 34.12,-136.1 24.69,-40.6 62.83,-71 104.66,-83.2 16.87,-4.9 26.55,-22.6 21.61,-39.5 -4.07,-13.9 -16.78,-22.9 -30.56,-22.9"
         style="fill:#494e5e;fill-opacity:1;fill-rule:nonzero;stroke:none"
         id="path256" /><path
         d="m 8099.99,12474.6 c -11.07,0 -21.84,5.7 -27.71,16 -10.24,18 -24.36,34.1 -40.84,46.6 -14.02,10.6 -16.77,30.6 -6.16,44.6 10.63,14 30.61,16.8 44.63,6.2 23.29,-17.7 43.24,-40.4 57.72,-65.8 8.71,-15.3 3.38,-34.8 -11.91,-43.5 -4.97,-2.8 -10.39,-4.1 -15.73,-4.1"
         style="fill:#494e5e;fill-opacity:1;fill-rule:nonzero;stroke:none"
         id="path258" /><path
         d="m 7985.44,12623.7 c -10.54,0 -20.86,5.2 -26.92,14.8 -61.68,97.2 -84.12,259.2 -52.18,376.6 29.87,109.9 88.27,206.8 144.74,300.6 35.2,58.4 75.09,124.6 136.1,170.4 43.2,32.4 92.17,51.5 139.54,69.8 78.85,30.6 168.21,65.3 261.54,68.2 88.45,2.7 184.26,-23.5 276.74,-76 80.32,-45.6 174.26,-114.2 245.17,-178.8 12.99,-11.9 13.91,-32.1 2.06,-45 -11.85,-13 -32.01,-14 -44.99,-2.1 -66.64,60.8 -158.36,127.7 -233.7,170.5 -82.29,46.7 -166.43,70.2 -243.29,67.7 -82.44,-2.5 -162.79,-33.7 -240.49,-63.9 -43.33,-16.8 -88.15,-34.2 -124.33,-61.3 -51.09,-38.4 -86.02,-96.4 -119.79,-152.4 -54.22,-90 -110.29,-183.1 -137.83,-284.4 -26.82,-98.7 -6.86,-244.8 44.49,-325.8 9.43,-14.8 5.02,-34.5 -9.83,-43.9 -5.28,-3.4 -11.19,-5 -17.03,-5"
         style="fill:#494e5e;fill-opacity:1;fill-rule:nonzero;stroke:none"
         id="path260" /><path
         d="m 7998.84,12621.5 c -5.52,0 -11.12,1.4 -16.21,4.4 -15.13,9 -20.13,28.5 -11.17,43.7 168.15,283.7 366.2,400.2 540.92,503 131.12,77.1 265.56,131.8 399.6,162.5 113.17,26 281.6,52.6 437.14,-15 51.06,-22.2 154.29,-86.7 179.55,-171.8 10.94,-36.8 5.5,-73.2 -15.7,-105.4 -20.81,-31.6 -54.86,-47.1 -85.42,-58.1 -61.54,-22.2 -125.85,-35.8 -191.12,-40.2 -17.49,-1.4 -32.75,12 -33.95,29.6 -1.2,17.5 12.05,32.7 29.61,33.9 59.36,4.1 117.85,16.4 173.83,36.6 20.72,7.5 43.32,17.3 53.85,33.2 10.99,16.7 13.48,33.3 7.85,52.3 -16.21,54.5 -93.92,109.7 -143.92,131.5 -105.26,45.8 -231.57,49.4 -397.48,11.4 -127.7,-29.3 -256.05,-81.6 -381.54,-155.4 -209.99,-123.5 -370.09,-230.3 -518.41,-480.6 -5.95,-10 -16.55,-15.6 -27.43,-15.6"
         style="fill:#494e5e;fill-opacity:1;fill-rule:nonzero;stroke:none"
         id="path262" /><path
         d="m 8246.65,12871.9 c -17.46,0 -34.65,1.3 -51.55,3.8 -17.4,2.7 -29.39,18.9 -26.78,36.3 2.62,17.4 18.9,29.3 36.22,26.7 89.02,-13.3 189.93,16.7 299.84,89.1 39.15,25.8 77.54,55.2 114.66,83.6 52.78,40.3 107.34,82.1 166.88,116 129.71,74.1 271.68,102.9 399.75,81.1 155.21,-26.4 278.58,-114.5 330.01,-235.6 6.88,-16.2 -0.67,-34.9 -16.86,-41.8 -16.16,-6.9 -34.89,0.7 -41.77,16.9 -42.91,101 -148.36,174.9 -282.07,197.7 -113.58,19.3 -240.54,-6.8 -357.48,-73.6 -55.82,-31.8 -108.66,-72.2 -159.76,-111.3 -37.99,-29.1 -77.28,-59.1 -118.29,-86.1 -103.56,-68.3 -201.8,-102.8 -292.8,-102.8"
         style="fill:#494e5e;fill-opacity:1;fill-rule:nonzero;stroke:none"
         id="path264" /><path
         d="m 9196.15,13009.4 c -10.63,0 -21.02,5.3 -27.06,15 -41.22,66.1 -167.15,182.9 -348.79,151.4 -17.3,-3 -33.82,8.6 -36.8,26 -3,17.3 8.61,33.8 25.94,36.8 215.05,37.2 364.65,-101.8 413.7,-180.5 9.31,-15 4.75,-34.6 -10.17,-43.9 -5.25,-3.3 -11.07,-4.8 -16.82,-4.8"
         style="fill:#494e5e;fill-opacity:1;fill-rule:nonzero;stroke:none"
         id="path266" /><path
         d="m 8794.02,11550.8 c -16.21,0 -30.07,12.4 -31.66,28.8 -8.72,89.9 38.29,254.8 58.92,321.6 5.19,16.7 23.02,26.2 39.83,21 16.8,-5.2 26.22,-23.1 21.03,-39.9 -31.33,-101.4 -62.59,-232.5 -56.38,-296.5 1.7,-17.5 -11.11,-33.1 -28.62,-34.8 -1.05,-0.1 -2.09,-0.2 -3.12,-0.2"
         style="fill:#494e5e;fill-opacity:1;fill-rule:nonzero;stroke:none"
         id="path268" /><path
         d="m 8841.07,11166 c -1.57,0 -3.16,0.1 -4.76,0.4 -17.39,2.6 -29.39,18.8 -26.78,36.2 15.07,100.6 49.44,150.2 101.32,222 -98.2,105.9 -210.61,201.4 -319.51,293.9 -45.59,38.8 -92.74,78.9 -138.35,119.3 -44.84,39.7 -85.02,77.5 -123.89,114.1 -84.42,79.5 -158.7,149.4 -257.03,217.7 -9.14,-43.4 -22.94,-82.4 -36.41,-120.4 -8.04,-22.7 -16.35,-46.2 -23.71,-70.7 -5.08,-16.8 -22.87,-26.3 -39.68,-21.3 -16.85,5.1 -26.38,22.9 -21.31,39.7 7.79,25.9 16.36,50.1 24.65,73.5 18.07,51.1 35.15,99.3 41.16,156.6 1.15,11 7.93,20.6 17.91,25.4 9.98,4.8 21.72,4 31.01,-2 124.42,-80.1 213.14,-163.7 307.07,-252.1 38.53,-36.3 78.35,-73.8 122.46,-112.8 45.13,-40 92.03,-79.9 137.37,-118.4 116.96,-99.4 237.91,-202.2 342.93,-318.9 10.04,-11.1 10.93,-27.7 2.16,-39.9 l -10.84,-15 c -52.31,-72.3 -81.13,-112.1 -94.31,-200.2 -2.37,-15.8 -15.96,-27.1 -31.46,-27.1"
         style="fill:#494e5e;fill-opacity:1;fill-rule:nonzero;stroke:none"
         id="path270" /><path
         d="m 8841.03,11166 c -8.36,0 -16.71,3.3 -22.96,9.8 -20.85,21.7 -46.33,49.8 -75.83,82.3 -151.53,167.1 -405.14,446.8 -778.81,703.4 -14.5,9.9 -18.19,29.8 -8.24,44.3 9.97,14.5 29.8,18.1 44.29,8.2 379.81,-260.7 646.61,-555 789.95,-713.1 29.17,-32.2 54.36,-59.9 74.56,-81 12.19,-12.7 11.79,-32.8 -0.89,-45 -6.18,-5.9 -14.13,-8.9 -22.07,-8.9"
         style="fill:#494e5e;fill-opacity:1;fill-rule:nonzero;stroke:none"
         id="path272" /><path
         d="m 9651.5,10754.2 c -9.99,0 -19.82,4.7 -26.03,13.5 -41.01,58 -108.92,88.5 -180.8,120.7 -52.09,23.3 -105.96,47.5 -152.16,83.6 -48.81,38.2 -82.57,97.1 -115.22,154 -39.57,69.1 -76.94,134.2 -134.59,155.2 -12.77,4.6 -21.2,16.8 -20.97,30.4 2.65,162.1 -147.25,258.1 -236.85,300.9 -15.87,7.6 -22.59,26.6 -15.01,42.5 7.58,15.9 26.61,22.6 42.47,15 169.7,-81.1 265.72,-200.4 272.71,-337.9 67.02,-34 107.88,-105.3 147.51,-174.4 30.96,-54 60.2,-105 99.21,-135.5 40.08,-31.4 88.1,-52.9 138.95,-75.7 76.55,-34.3 155.7,-69.8 206.76,-142 10.16,-14.4 6.75,-34.2 -7.62,-44.4 -5.57,-3.9 -12,-5.9 -18.36,-5.9"
         style="fill:#494e5e;fill-opacity:1;fill-rule:nonzero;stroke:none"
         id="path274" /><path
         d="m 8956.67,10624 c -16.67,0 -30.68,13 -31.76,29.9 -10.02,158 -52.63,357.5 -113.95,533.5 -5.79,16.6 2.97,34.7 19.59,40.5 16.62,5.8 34.77,-3 40.55,-19.6 63.14,-181.1 107.01,-386.9 117.4,-550.4 1.1,-17.6 -12.22,-32.7 -29.78,-33.8 -0.68,-0.1 -1.37,-0.1 -2.05,-0.1"
         style="fill:#494e5e;fill-opacity:1;fill-rule:nonzero;stroke:none"
         id="path276" /><path
         d="m 9080.15,10114.5 c -13.6,0 -26.2,8.8 -30.42,22.4 -5.2,16.8 4.21,34.7 21.02,39.9 213.4,65.9 398.17,176.6 549.14,329 12.39,12.5 32.56,12.6 45.04,0.2 12.5,-12.4 12.59,-32.5 0.22,-45 -158.43,-159.9 -352.08,-276 -575.58,-345.1 -3.14,-1 -6.31,-1.4 -9.42,-1.4"
         style="fill:#494e5e;fill-opacity:1;fill-rule:nonzero;stroke:none"
         id="path278" /><path
         d="m 9637.66,9941.8 c -3.76,0 -7.58,0.7 -11.3,2.1 l -489.92,186 c -16.44,6.2 -24.71,24.6 -18.46,41.1 6.25,16.4 24.64,24.7 41.07,18.4 l 489.91,-185.9 c 16.45,-6.3 24.71,-24.7 18.47,-41.1 -4.82,-12.7 -16.93,-20.6 -29.77,-20.6"
         style="fill:#494e5e;fill-opacity:1;fill-rule:nonzero;stroke:none"
         id="path280" /><path
         d="m 6950.95,9840.5 c -1.98,0 -3.97,0.2 -5.97,0.6 -17.29,3.2 -28.64,19.9 -25.36,37.2 23.12,122 30.09,249.3 36.82,372.4 4.02,73.4 8.18,149.4 15.72,224.1 29.62,293.6 109.66,558.7 237.9,788 41.85,74.8 88.29,154.2 144.1,227.5 54.47,71.6 118.6,137.4 190.63,195.6 40.12,32.4 83.31,63.4 132.06,94.7 23.47,15.1 47.91,28.6 71.54,41.7 25.71,14.3 49.99,27.7 73.14,43 46.55,30.7 87.89,82.8 124.37,128.9 l 10.65,13.4 c 10.96,13.7 31,16 44.76,5 13.75,-10.9 16.01,-31 5.05,-44.7 l -10.54,-13.3 c -39.44,-49.8 -84.16,-106.2 -139.22,-142.5 -25.2,-16.6 -51.71,-31.3 -77.34,-45.5 -22.75,-12.6 -46.25,-25.6 -67.97,-39.6 -46.79,-30.1 -88.17,-59.7 -126.48,-90.7 -68.04,-54.9 -128.59,-117 -179.96,-184.5 -53.42,-70.2 -98.47,-147.3 -139.2,-220.1 -123.95,-221.7 -201.37,-478.5 -230.11,-763.3 -7.4,-73.3 -11.51,-148.5 -15.49,-221.2 -6.86,-125.2 -13.94,-254.6 -37.84,-380.8 -2.9,-15.2 -16.26,-25.9 -31.26,-25.9"
         style="fill:#494e5e;fill-opacity:1;fill-rule:nonzero;stroke:none"
         id="path282" /><path
         d="m 7259.05,6767.6 c -8.24,0 -16.48,3.2 -22.71,9.5 -141.82,144.4 -223.97,364.2 -237.57,635.7 -19.26,384.5 -11.6,704.6 23.4,978.5 l 2.14,17 c 12.49,99.5 28.04,223.4 104.71,297.4 12.67,12.2 32.83,11.8 45.04,-0.8 12.22,-12.7 11.86,-32.8 -0.81,-45 -60.5,-58.4 -73.91,-165.3 -85.74,-259.5 l -2.16,-17.1 c -34.52,-270.2 -42.03,-586.6 -22.96,-967.3 8.94,-178.3 54.24,-426.1 219.39,-594.2 12.32,-12.6 12.15,-32.7 -0.4,-45.1 -6.2,-6.1 -14.27,-9.1 -22.33,-9.1"
         style="fill:#494e5e;fill-opacity:1;fill-rule:nonzero;stroke:none"
         id="path284" /><path
         d="m 6953.21,4550 c -6.53,0 -13.12,2 -18.81,6.2 -58.73,43 -98.03,114.5 -110.68,201.2 -10.43,71.5 -2.57,141.3 7.94,218.5 45.23,332.5 108.46,652 198.95,1005.4 9.39,36.7 17.09,69.7 16.23,102.3 -8.43,313.7 -1.5,685.4 18.08,970.2 1.2,17.5 16.29,30.6 33.97,29.6 17.54,-1.2 30.79,-16.4 29.58,-34 -19.46,-282.9 -26.33,-652.3 -17.96,-964.1 1.09,-40.8 -7.98,-79.9 -18.19,-119.8 -89.87,-351 -152.64,-668.2 -197.54,-998.1 -9.85,-72.5 -17.26,-137.5 -8.02,-200.8 10.01,-68.7 41.1,-126.6 85.31,-159 14.18,-10.4 17.26,-30.4 6.86,-44.6 -6.25,-8.5 -15.91,-13 -25.72,-13"
         style="fill:#494e5e;fill-opacity:1;fill-rule:nonzero;stroke:none"
         id="path286" /><path
         d="m 6381.06,3071.8 c -15.31,0 -28.8,11.1 -31.38,26.7 -22.22,134.6 40.86,264.7 96.51,379.5 l 0.65,1.4 c 163.74,337.8 304,690.6 416.88,1048.7 5.29,16.7 23.19,26 39.95,20.8 16.78,-5.3 26.1,-23.2 20.8,-40 -113.81,-361 -255.22,-716.7 -420.31,-1057.3 l -0.64,-1.4 c -54.05,-111.4 -109.92,-226.7 -90.99,-341.3 2.86,-17.4 -8.88,-33.8 -26.24,-36.6 -1.75,-0.3 -3.51,-0.5 -5.23,-0.5"
         style="fill:#494e5e;fill-opacity:1;fill-rule:nonzero;stroke:none"
         id="path288" /><path
         d="m 5924.59,2419.7 c -2.99,0 -6.04,0.5 -9.05,1.4 -16.87,5 -26.5,22.7 -21.5,39.5 34.31,115.9 69.79,235.7 129.71,345.2 47.82,87.4 132.85,204.5 266.36,266.1 30.2,13.9 62.41,24.7 90.83,34.3 16.67,5.6 34.72,-3.4 40.33,-20.1 5.6,-16.7 -3.37,-34.7 -20.04,-40.3 -28.2,-9.5 -57.37,-19.3 -84.45,-31.8 -117.72,-54.2 -193.94,-159.8 -237.15,-238.8 -56.66,-103.5 -91.15,-220 -124.51,-332.7 -4.1,-13.8 -16.79,-22.8 -30.53,-22.8"
         style="fill:#494e5e;fill-opacity:1;fill-rule:nonzero;stroke:none"
         id="path290" /><path
         d="m 6843.21,2200.3 c -295.4,0 -631.63,79 -932.35,222.5 -15.87,7.6 -22.6,26.6 -15.03,42.5 7.58,15.9 26.59,22.6 42.46,15 344.35,-164.3 735.61,-241.7 1052.41,-209 11.92,90.2 -4.62,182.9 -47.37,263.4 -8.25,15.6 -2.33,34.9 13.19,43.1 15.56,8.2 34.84,2.3 43.07,-13.2 53.15,-100.1 70.93,-216.7 50.03,-328.1 -2.55,-13.6 -13.65,-24.1 -27.43,-25.7 -57.4,-7.1 -117.33,-10.5 -178.98,-10.5"
         style="fill:#494e5e;fill-opacity:1;fill-rule:nonzero;stroke:none"
         id="path292" /><path
         d="m 6971.43,2517.8 c -5.87,0 -11.81,1.6 -17.11,5 -14.83,9.5 -19.17,29.2 -9.7,44 127.11,199 273.38,416.4 414.82,626.7 141.25,210 287.32,427.1 414.04,625.5 63.44,99.3 380.29,624.6 386.65,1215.3 0.18,17.5 14.41,31.5 31.83,31.5 0.13,0 0.25,0 0.35,0 17.6,-0.2 31.7,-14.6 31.52,-32.2 -6.39,-592.7 -305.24,-1105.8 -396.68,-1248.9 -127.12,-199 -273.4,-416.4 -414.86,-626.7 -141.24,-210 -287.28,-427.2 -413.99,-625.5 -6.07,-9.5 -16.37,-14.7 -26.87,-14.7"
         style="fill:#494e5e;fill-opacity:1;fill-rule:nonzero;stroke:none"
         id="path294" /><path
         d="m 8383.71,4279.1 c -16.33,0 -30.22,12.5 -31.69,29 -24.3,274.6 -94.91,540.8 -209.9,791.3 -67.47,146.9 -151.19,289.5 -232.15,427.4 -57.34,97.7 -116.63,198.7 -170.1,301 -161.89,309.9 -277.13,644.5 -388.57,968.1 -5.72,16.6 3.11,34.7 19.74,40.5 16.64,5.7 34.76,-3.1 40.48,-19.8 110.69,-321.3 225.13,-653.6 384.81,-959.3 52.74,-100.9 111.63,-201.2 168.57,-298.2 81.76,-139.3 166.3,-283.3 235.11,-433.2 118.04,-257.1 190.53,-530.3 215.46,-812.1 1.55,-17.6 -11.4,-33 -28.92,-34.6 -0.95,-0.1 -1.9,-0.1 -2.84,-0.1"
         style="fill:#494e5e;fill-opacity:1;fill-rule:nonzero;stroke:none"
         id="path296" /><path
         d="m 8428.7,3460 c -14.45,0 -27.54,9.9 -30.98,24.6 -56.67,241.4 -75.45,489 -55.86,736.1 1.4,17.6 16.75,30.5 34.28,29.2 17.53,-1.3 30.63,-16.7 29.23,-34.2 -19.08,-240.6 -0.79,-481.6 54.37,-716.5 4.01,-17.1 -6.62,-34.3 -23.73,-38.3 -2.46,-0.6 -4.9,-0.9 -7.31,-0.9"
         style="fill:#494e5e;fill-opacity:1;fill-rule:nonzero;stroke:none"
         id="path298" /><path
         d="m 7817.79,1923.4 c -15.82,0 -29.54,11.8 -31.56,27.9 -8.47,67.5 21.99,124.3 51.45,179.3 16.09,30 31.27,58.3 40.12,87.8 132.71,442.2 311.89,883.9 398,1096.2 26.54,65.4 49.45,121.9 51.92,131.9 4.14,17 21.2,27.7 38.27,23.8 17,-4 27.69,-20.7 23.87,-37.7 -3.01,-13.5 -18.1,-51 -55.03,-142 -85.75,-211.4 -264.18,-651.2 -396.02,-1090.5 -10.69,-35.6 -28.12,-68.1 -44.98,-99.6 -25.89,-48.3 -50.33,-93.9 -44.4,-141.3 2.2,-17.4 -10.17,-33.3 -27.62,-35.5 -1.35,-0.2 -2.69,-0.3 -4.02,-0.3"
         style="fill:#494e5e;fill-opacity:1;fill-rule:nonzero;stroke:none"
         id="path300" /><path
         d="m 8201.85,1891.6 c -129.1,0 -260.15,10.7 -389.25,32.3 -17.36,2.9 -29.08,19.3 -26.17,36.6 2.89,17.4 19.35,29 36.65,26.2 312.18,-52.1 635.92,-39 911.6,36.8 38.46,10.5 78.11,23.1 103.07,49.6 21.99,23.3 33.89,60.7 32.66,102.4 -1.23,41.1 -13.83,83.2 -26.02,123.8 -5.04,16.9 4.53,34.6 21.37,39.7 16.82,5.1 34.6,-4.5 39.66,-21.4 13.37,-44.6 27.19,-90.7 28.66,-140.2 1.75,-59.4 -15.98,-111.9 -49.94,-148 -36.27,-38.5 -87.45,-55 -132.58,-67.4 -170.06,-46.7 -357.68,-70.4 -549.71,-70.4"
         style="fill:#494e5e;fill-opacity:1;fill-rule:nonzero;stroke:none"
         id="path302" /><path
         d="m 8874.88,2276.6 c -14.15,0 -27.07,9.5 -30.8,23.8 -4.43,17.1 5.77,34.5 22.79,38.9 50.21,13.1 139.21,93.3 174.17,147.3 34.04,52.7 54.9,115.7 73.31,171.3 132.55,400.5 252.85,810.8 357.54,1219.5 4.37,17 21.7,27.3 38.76,23 17.04,-4.4 27.32,-21.8 22.95,-38.8 -105.06,-410.1 -225.77,-821.8 -358.78,-1223.7 -19.61,-59.2 -41.83,-126.4 -80.29,-185.9 -37.81,-58.4 -139.05,-155.5 -211.59,-174.3 -2.7,-0.7 -5.4,-1.1 -8.06,-1.1"
         style="fill:#494e5e;fill-opacity:1;fill-rule:nonzero;stroke:none"
         id="path304" /><path
         d="m 9535.56,3952.6 c -2.75,0 -5.55,0.4 -8.33,1.1 -16.99,4.6 -27.03,22.1 -22.44,39.1 l 77.77,287.5 c 37.62,139.1 76.53,282.9 102.37,426.6 15.45,85.9 31.33,198.4 16.89,307.1 -15.92,119.7 -53.19,239.7 -89.22,355.8 -17.32,55.8 -35.22,113.4 -50.56,170.4 l -21.86,81.1 c -48.47,179.7 -98.59,365.5 -143.27,549.3 -9.76,40.2 -19.32,80.5 -28.88,120.8 -28.55,120.3 -58.05,244.7 -93.17,364.8 -70.73,242 -144.83,521.9 -158.18,763 -0.98,17.6 12.48,32.6 30.04,33.6 17.6,0.9 32.6,-12.5 33.56,-30.1 12.99,-234.7 86.01,-510.1 155.73,-748.6 35.56,-121.7 65.27,-246.9 94,-368 9.53,-40.2 19.06,-80.4 28.8,-120.5 44.49,-183 94.5,-368.4 142.87,-547.7 l 21.87,-81.1 c 15.02,-55.8 32.75,-112.9 49.89,-168.1 36.81,-118.6 74.89,-241.2 91.51,-366.3 15.62,-117.4 -1.05,-236.3 -17.32,-326.8 -26.33,-146.4 -65.61,-291.5 -103.59,-431.9 l -77.75,-287.6 c -3.85,-14.1 -16.69,-23.5 -30.73,-23.5"
         style="fill:#494e5e;fill-opacity:1;fill-rule:nonzero;stroke:none"
         id="path306" /><path
         d="m 9742.8,6507.4 c -14.48,0 -28.98,1.3 -43.33,3.9 -27.44,4.9 -49.35,15 -65.12,29.7 -102.25,95.7 -176.12,221.7 -207.98,354.8 -15.82,66.1 -31.46,125.5 -62.67,183.4 -31.61,58.6 -71.47,113.9 -109.85,164.9 -89.53,119.1 -195.62,228.3 -298.21,333.9 -97.91,100.7 -199.14,204.9 -287.26,318.7 -280.24,361.8 -415.29,789.1 -510.45,1159.2 -4.39,17.1 5.88,34.4 22.92,38.8 17.03,4.4 34.4,-5.9 38.77,-22.9 93.54,-363.9 225.98,-783.4 499.12,-1136.1 85.94,-110.9 185.91,-213.8 282.59,-313.3 103.96,-107 211.47,-217.7 303.44,-340 39.86,-53 81.38,-110.6 115,-173 34.85,-64.6 51.66,-128.2 68.55,-198.8 28.99,-121.1 96.31,-235.8 189.56,-323.1 6.59,-6.1 18,-10.8 33,-13.6 46.65,-8.5 97.67,2.7 136.47,30 14.37,10.1 34.26,6.7 44.37,-7.7 10.13,-14.4 6.66,-34.3 -7.74,-44.4 -41.3,-29 -91.05,-44.4 -141.18,-44.4"
         style="fill:#494e5e;fill-opacity:1;fill-rule:nonzero;stroke:none"
         id="path308" /><path
         d="m 10055.2,6476.3 c -20.3,0 -41.4,2.9 -62.74,8.9 -51.67,14.6 -97.19,44.2 -137.34,70.4 -14.74,9.6 -18.9,29.3 -9.29,44.1 9.61,14.7 29.33,18.9 44.07,9.3 38.11,-24.9 77.51,-50.6 119.8,-62.4 42.6,-12 84.3,-7.1 111.6,13.1 14.1,10.4 34.1,7.4 44.5,-6.7 10.5,-14.2 7.5,-34.1 -6.7,-44.6 -28.7,-21.2 -64.8,-32.1 -103.9,-32.1"
         style="fill:#494e5e;fill-opacity:1;fill-rule:nonzero;stroke:none"
         id="path310" /><path
         d="m 10196.2,6497.2 c -9.4,0 -18.7,1.1 -27.7,3.5 -37.9,10 -62.7,37.7 -84.6,62.2 -12.2,13.5 -23.6,26.3 -36.1,35.1 -14.4,10.2 -17.8,30.1 -7.7,44.4 10.1,14.4 30,17.8 44.4,7.7 18.4,-13 32.9,-29.1 46.8,-44.7 18.3,-20.4 34,-38 53.5,-43.1 16.7,-4.4 37.4,1.5 52.7,15.2 14,12.4 32.3,56 38.3,83.8 3.7,17.2 20.6,28.2 37.8,24.5 17.2,-3.7 28.2,-20.6 24.5,-37.8 -6.8,-31.7 -28.6,-91.7 -58.2,-118.1 -23.8,-21.2 -54.2,-32.7 -83.7,-32.7"
         style="fill:#494e5e;fill-opacity:1;fill-rule:nonzero;stroke:none"
         id="path312" /><path
         d="m 10334.5,6619.4 c -8.7,0 -17.5,1.2 -26.2,3.7 -24.4,7 -46.9,22.9 -68.9,48.5 -58,67.9 -79.8,155.2 -99.1,232.3 -4.2,17.1 6.2,34.4 23.2,38.6 17.1,4.3 34.4,-6.1 38.6,-23.2 17.6,-70.2 37.4,-149.8 85.7,-206.2 13.6,-15.9 26.1,-25.3 38.1,-28.8 9.8,-2.8 21.5,-0.4 25.5,5.3 8.5,12 -4.6,42.6 -9,52.7 l -137.1,319.1 c -7,16.3 -24.2,30.9 -38.5,41.8 -106.5,81.3 -227.45,161.1 -389.42,193.7 -47.91,9.6 -75.43,52.2 -97.55,86.4 -4.79,7.4 -9.5,14.7 -14.29,21.5 -130.56,183.9 -265.57,374.1 -358.68,586 -34.62,78.8 -63.45,160.8 -91.33,240.2 -22.21,63.1 -45.18,128.4 -70.75,191.1 -86.52,212.1 -209.58,410.9 -328.59,603.3 -9.26,14.9 -4.63,34.6 10.32,43.8 14.97,9.3 34.59,4.7 43.85,-10.3 120.39,-194.6 244.87,-395.8 333.41,-612.7 26.15,-64.2 49.38,-130.2 71.84,-194.1 27.49,-78.2 55.92,-159.1 89.58,-235.7 90.48,-205.9 223.58,-393.4 352.29,-574.7 5.46,-7.7 10.75,-15.9 15.86,-23.8 17.24,-26.7 35.05,-54.3 56.59,-58.6 174.63,-35.1 302.97,-119.5 415.57,-205.5 21.7,-16.6 45.6,-37.6 58.4,-67.2 l 137.1,-319.2 c 9.4,-22 31.6,-73.5 2.4,-114.7 -15.1,-21.1 -41.3,-33.3 -68.9,-33.3"
         style="fill:#494e5e;fill-opacity:1;fill-rule:nonzero;stroke:none"
         id="path314" /><path
         d="m 8807.26,9086.6 c -14.84,0 -28.11,10.4 -31.19,25.4 -4.19,20.7 -8,37.8 -11.82,55 -3.9,17.5 -7.8,35 -12.07,56 -3.52,17.2 7.61,34 24.85,37.6 17.27,3.5 34.05,-7.7 37.57,-24.9 4.19,-20.6 8.01,-37.8 11.83,-54.9 3.89,-17.5 7.79,-35 12.07,-56 3.51,-17.3 -7.62,-34.1 -24.86,-37.6 -2.14,-0.4 -4.29,-0.6 -6.38,-0.6"
         style="fill:#494e5e;fill-opacity:1;fill-rule:nonzero;stroke:none"
         id="path316" /><path
         d="m 8712.32,11042.4 c -11.96,0 -23.42,6.8 -28.84,18.4 -119.51,254.6 -377.24,440.2 -656.63,472.8 -287.47,33.5 -566.27,-78.5 -764.95,-307.3 -11.54,-13.2 -31.65,-14.7 -44.93,-3.1 -13.28,11.5 -14.7,31.6 -3.16,44.9 212.69,245 511.71,364.8 820.44,328.8 300.76,-35.1 578.24,-234.9 706.89,-509.1 7.47,-15.9 0.62,-34.9 -15.3,-42.3 -4.38,-2.1 -8.98,-3.1 -13.52,-3.1"
         style="fill:#494e5e;fill-opacity:1;fill-rule:nonzero;stroke:none"
         id="path318" /><path
         d="m 8675.59,11110.5 c -12.24,0 -23.9,7.1 -29.16,19 -125.54,284.3 -280.57,456.7 -473.96,527.2 -184.71,67.2 -406.76,38.3 -659.95,-86.1 -15.8,-7.7 -34.87,-1.2 -42.63,14.6 -7.75,15.8 -1.24,34.9 14.54,42.6 269.37,132.3 508.2,162.1 709.84,88.7 210.55,-76.7 377.52,-260.3 510.43,-561.3 7.11,-16.1 -0.18,-34.9 -16.27,-42 -4.18,-1.8 -8.55,-2.7 -12.84,-2.7"
         style="fill:#494e5e;fill-opacity:1;fill-rule:nonzero;stroke:none"
         id="path320" /><path
         d="m 8763.58,10348.6 c -1.93,0 -3.88,0.2 -5.85,0.5 -17.29,3.2 -28.71,19.9 -25.49,37.2 35.59,191.6 30.98,393.3 -13.33,583.2 -4.01,17.1 6.64,34.2 23.77,38.2 17.15,4 34.26,-6.6 38.26,-23.7 46.31,-198.4 51.12,-409.1 13.92,-609.4 -2.85,-15.3 -16.23,-26 -31.28,-26"
         style="fill:#494e5e;fill-opacity:1;fill-rule:nonzero;stroke:none"
         id="path322" /><path
         d="m 8168.93,9033.6 c -18.83,0 -38.17,3.2 -56.71,12.1 -33.55,16 -55,46.6 -70.66,68.9 -186.36,265.7 -360.9,544.2 -518.8,827.7 -8.55,15.4 -3.03,34.7 12.33,43.3 15.37,8.6 34.76,3.1 43.33,-12.3 156.82,-281.6 330.2,-558.2 515.29,-822.1 15.58,-22.2 28.86,-39.9 45.95,-48 24.89,-11.9 58.71,-3.6 94.08,6.7 l 482.68,140.9 c 60.22,17.5 120.94,38.7 144.03,86 20.27,41.5 7.04,96.3 -4.64,144.7 -58.37,241.8 -97.09,490.2 -115.09,738.3 -1.28,17.5 11.92,32.8 29.46,34.1 17.55,1.3 32.8,-12 34.08,-29.5 17.74,-244.6 55.92,-489.5 113.47,-727.9 13.5,-55.9 30.29,-125.5 -0.03,-187.6 -34.49,-70.7 -112.77,-98.7 -183.43,-119.3 l -482.68,-140.9 c -22.36,-6.5 -51.83,-15.1 -82.66,-15.1"
         style="fill:#494e5e;fill-opacity:1;fill-rule:nonzero;stroke:none"
         id="path324" /><path
         d="m 8942.97,10615.8 c -48.67,0 -97.35,4.7 -145.04,14.3 -17.25,3.4 -28.44,20.2 -24.98,37.5 3.46,17.2 20.2,28.4 37.49,24.9 102.91,-20.6 210.78,-16.8 311.98,11.1 16.97,4.6 34.49,-5.4 39.15,-22.3 4.67,-17 -5.31,-34.5 -22.27,-39.2 -63.83,-17.5 -130.09,-26.3 -196.33,-26.3"
         style="fill:#494e5e;fill-opacity:1;fill-rule:nonzero;stroke:none"
         id="path326" /><path
         d="m 9043.84,8680.8 c -16.83,0 -30.89,13.2 -31.79,30.2 -20.08,382.6 -42.85,816.3 4.94,1217.7 9.14,76.7 20.99,154.3 32.43,229.3 25.35,166 51.58,337.7 49.08,506.8 -0.27,17.6 13.78,32.1 31.37,32.3 0.16,0.1 0.32,0.1 0.48,0.1 17.37,0 31.58,-14 31.84,-31.4 2.58,-174.5 -24.05,-348.8 -49.8,-517.5 -11.37,-74.4 -23.13,-151.5 -32.14,-227.1 -47.15,-396 -24.54,-826.8 -4.59,-1206.9 0.93,-17.5 -12.56,-32.5 -30.13,-33.4 -0.57,-0.1 -1.14,-0.1 -1.69,-0.1"
         style="fill:#494e5e;fill-opacity:1;fill-rule:nonzero;stroke:none"
         id="path328" /><path
         d="m 7217.8,8647.1 c -67.62,0 -116.94,26.8 -153.53,82.9 -43.16,66.2 -69.36,144.3 -94.69,219.9 -6.19,18.4 -12.31,36.7 -18.57,54.4 -40.12,113.4 -66.8,206.9 -83.96,294.4 -36.27,184.9 -30.35,352.1 17.57,496.8 5.53,16.7 23.56,25.7 40.25,20.2 16.7,-5.5 25.75,-23.6 20.23,-40.3 -44.45,-134.1 -49.67,-290.4 -15.54,-464.4 16.54,-84.4 42.44,-175.1 81.5,-285.5 6.38,-18 12.6,-36.6 18.91,-55.4 24.06,-71.7 48.96,-145.9 87.65,-205.3 29.03,-44.5 66,-59.6 127.58,-52.3 41.06,4.9 82.02,14 125.18,27.9 26.9,8.6 52.27,21.8 79.13,35.8 10.09,5.2 20.21,10.5 30.47,15.6 57.96,28.5 135.41,63.5 220.71,80.4 20.46,4.1 41.1,7.4 61.06,10.6 45.57,7.4 88.62,14.3 129.85,29.2 68,24.5 176.68,110.8 231.68,173 11.66,13.2 31.8,14.4 44.96,2.7 13.18,-11.6 14.42,-31.8 2.76,-44.9 -51.26,-58 -168.66,-158.7 -257.83,-190.8 -46.79,-16.8 -94.82,-24.6 -141.27,-32.1 -19.4,-3.1 -39.48,-6.3 -58.83,-10.2 -60.84,-12 -124.05,-35.2 -204.92,-75.1 -9.85,-4.8 -19.55,-9.9 -29.22,-14.9 -28.04,-14.6 -57.04,-29.7 -89.08,-40 -47.1,-15.1 -91.95,-25.1 -137.12,-30.5 -12.15,-1.4 -23.8,-2.1 -34.93,-2.1"
         style="fill:#494e5e;fill-opacity:1;fill-rule:nonzero;stroke:none"
         id="path330" /><path
         d="m 5722.6,1804.5 c -3.46,0 -6.97,0.5 -10.41,1.7 -16.62,5.8 -25.44,23.9 -19.69,40.5 30.04,86.9 65.98,198.7 100.73,306.9 34.88,108.6 70.96,220.8 101.25,308.4 5.74,16.6 23.87,25.5 40.51,19.7 16.62,-5.8 25.44,-23.9 19.69,-40.5 -30.06,-86.9 -66.02,-198.8 -100.8,-307.1 -34.87,-108.5 -70.91,-220.7 -101.19,-308.2 -4.55,-13.2 -16.89,-21.4 -30.09,-21.4"
         style="fill:#494e5e;fill-opacity:1;fill-rule:nonzero;stroke:none"
         id="path332" /><path
         d="m 6245.03,1635.4 c -23.22,0 -46.52,1.4 -69.46,3.2 -75.43,5.6 -155.61,13 -233.72,35.4 -72.45,20.8 -181.99,77 -242.32,140.4 -12.13,12.7 -11.64,32.9 1.1,45 12.73,12.1 32.89,11.6 45.03,-1.1 50.68,-53.2 148.46,-104.3 213.72,-123.1 72.34,-20.7 148.81,-27.7 220.95,-33.1 66.06,-5 129.48,-7.1 179.8,20.6 13.63,7.5 26.59,17.5 40.31,28 15.36,11.7 31.25,23.9 49.62,33.8 83.37,45.2 181.65,-3.3 260.63,-42.2 15.12,-7.5 29.4,-14.5 42.57,-20.4 83.48,-37.3 602.61,-6.7 771.46,29.2 70.06,14.9 121.62,39.3 157.58,74.5 41.47,40.5 59.2,98.6 44.13,144.4 -18.3,55.7 -79.77,88.3 -131.19,100.1 -41.79,9.7 -85.09,10.9 -130.94,12.2 -22.39,0.7 -45.53,1.3 -68.54,3 -122.33,9.2 -289.13,78.3 -390.67,141.8 -14.91,9.4 -19.46,29 -10.12,43.9 9.32,14.9 28.97,19.5 43.89,10.1 92.6,-57.9 250.83,-123.9 361.67,-132.2 21.53,-1.7 43.92,-2.3 65.58,-2.9 46.95,-1.4 95.48,-2.7 143.46,-13.8 88.51,-20.4 154.82,-73.6 177.39,-142.3 22.81,-69.4 -0.78,-151.8 -60.11,-209.9 -44.86,-43.8 -106.64,-73.7 -188.88,-91.2 -151.18,-32.2 -700.91,-74.1 -810.71,-25 -14.27,6.3 -29.07,13.6 -44.74,21.4 -69.23,34.1 -147.72,72.8 -202.12,43.3 -13.97,-7.6 -27.23,-17.7 -41.25,-28.4 -14.98,-11.5 -30.47,-23.3 -48.26,-33.1 -44.99,-24.9 -95.21,-31.6 -145.86,-31.6"
         style="fill:#494e5e;fill-opacity:1;fill-rule:nonzero;stroke:none"
         id="path334" /><path
         d="m 7134.57,1804.5 c -100.38,0 -199.04,3.7 -293.69,7.3 -349.15,13.3 -710.2,27 -1051.78,136.5 -16.75,5.3 -25.99,23.2 -20.61,40 5.36,16.8 23.31,26 40.04,20.6 333.29,-106.8 689.9,-120.3 1034.76,-133.4 289.8,-11 618.23,-23.5 909.55,77.1 16.63,5.7 34.76,-3.1 40.5,-19.7 5.74,-16.7 -3.09,-34.8 -19.72,-40.5 -205.62,-71 -426.15,-87.9 -639.05,-87.9"
         style="fill:#494e5e;fill-opacity:1;fill-rule:nonzero;stroke:none"
         id="path336" /><path
         d="m 7708.43,1506 c -1.44,0 -2.89,0.1 -4.36,0.3 -17.42,2.4 -29.62,18.4 -27.24,35.9 16.61,121.4 65.53,321.6 111.9,426 7.13,16.1 25.95,23.3 42.03,16.2 16.08,-7.2 23.32,-26 16.18,-42 -43.51,-98.1 -91.32,-294.2 -107,-408.9 -2.18,-15.9 -15.84,-27.5 -31.51,-27.5"
         style="fill:#494e5e;fill-opacity:1;fill-rule:nonzero;stroke:none"
         id="path338" /><path
         d="m 8262.82,1313.4 c -12.54,0 -25.14,0.3 -37.83,0.7 -92.92,3 -276.18,26.7 -364.38,51.6 -87.37,24.7 -177.55,64.2 -184.02,170.2 -1.06,17.6 12.3,32.7 29.85,33.7 17.48,1.3 32.67,-12.3 33.74,-29.8 3.34,-54.8 40.67,-85.3 137.75,-112.8 81.71,-23.1 260.27,-46.3 349.12,-49.2 44.35,-1.4 87.35,-1.7 125.9,10.5 39.16,12.4 68.67,37.7 78.93,67.8 5.69,16.7 23.79,25.6 40.43,19.9 16.65,-5.7 25.54,-23.8 19.87,-40.4 -16.78,-49.2 -61.63,-89.6 -120,-108 -35.95,-11.4 -72.36,-14.2 -109.36,-14.2"
         style="fill:#494e5e;fill-opacity:1;fill-rule:nonzero;stroke:none"
         id="path340" /><path
         d="m 8700.11,1387.1 c -1.49,0 -2.98,0.1 -4.49,0.3 l -236.8,33.3 c -17.41,2.5 -29.55,18.6 -27.1,36 2.44,17.4 18.57,29.6 35.97,27.1 l 236.81,-33.3 c 17.42,-2.5 29.55,-18.6 27.1,-36 -2.24,-15.9 -15.88,-27.4 -31.49,-27.4"
         style="fill:#494e5e;fill-opacity:1;fill-rule:nonzero;stroke:none"
         id="path342" /><path
         d="m 8722.46,1289.3 c -15.03,0 -28.4,10.7 -31.27,26 l -18.11,96.4 c -3.26,17.3 8.13,34 25.43,37.2 17.27,3.3 33.92,-8.1 37.17,-25.4 l 18.12,-96.5 c 3.25,-17.3 -8.14,-33.9 -25.42,-37.1 -1.99,-0.4 -3.97,-0.6 -5.92,-0.6"
         style="fill:#494e5e;fill-opacity:1;fill-rule:nonzero;stroke:none"
         id="path344" /><path
         d="m 9240.59,1258.7 c -178.61,0 -356.02,15.9 -520.94,30.7 -17.52,1.6 -30.45,17.1 -28.88,34.6 1.57,17.5 17.09,30.4 34.57,28.9 285.33,-25.6 608.72,-54.6 905.07,3 52.44,10.2 107.18,23.6 152.31,52.9 45.56,29.5 74.48,72.9 77.35,116.2 2.89,43.6 -21.05,91.1 -62.47,123.9 -35.23,27.9 -83.2,47.2 -146.63,59 -28.09,5.3 -57.44,8.9 -85.8,12.4 -28.59,3.5 -58.14,7.1 -87.4,12.5 -229.84,42.2 -421.75,183.2 -594.92,329.4 -13.44,11.3 -15.14,31.4 -3.8,44.8 11.36,13.5 31.46,15.2 44.88,3.8 166.45,-140.4 350.13,-275.9 565.34,-315.3 27.41,-5.1 56.02,-8.6 83.69,-12 29.33,-3.6 59.67,-7.4 89.7,-13 73.85,-13.7 130.92,-37.2 174.48,-71.7 57.61,-45.6 90.74,-113.8 86.48,-178 -4.19,-63.3 -43.92,-125.1 -106.29,-165.5 -54.23,-35.1 -116.04,-50.5 -174.77,-61.9 -131.36,-25.6 -267,-34.7 -401.97,-34.7"
         style="fill:#494e5e;fill-opacity:1;fill-rule:nonzero;stroke:none"
         id="path346" /><path
         d="m 9419.93,1388.3 c -162.73,0 -357.34,18.5 -574.34,74.3 -146.97,37.8 -327.87,53.6 -502.8,68.9 -245.08,21.4 -476.55,41.7 -611.35,119.5 -15.23,8.8 -20.45,28.2 -11.67,43.5 8.8,15.2 28.27,20.5 43.51,11.7 122.57,-70.8 347.22,-90.4 585.06,-111.2 177.51,-15.6 361.06,-31.6 513.1,-70.7 491.29,-126.3 862.88,-56.3 999.84,-20.4 16.96,4.5 34.42,-5.7 38.9,-22.7 4.46,-17 -5.72,-34.4 -22.73,-38.9 -80.94,-21.2 -240.99,-54 -457.52,-54"
         style="fill:#494e5e;fill-opacity:1;fill-rule:nonzero;stroke:none"
         id="path348" /><path
         d="m 10404.3,11848.1 c -4.3,0 -8.7,0.8 -12.9,2.7 -16,7.2 -23.3,26 -16.1,42.1 22.3,50.2 85.3,78.3 124.6,69 36,-8.5 65,-37.3 73.8,-73.2 4.2,-17.1 -6.2,-34.3 -23.3,-38.5 -17.1,-4.3 -34.4,6.2 -38.6,23.3 -3,12.5 -14,23.4 -26.6,26.4 -9.6,1.9 -41.9,-10.8 -51.7,-32.9 -5.3,-11.9 -16.9,-18.9 -29.2,-18.9"
         style="fill:#494e5e;fill-opacity:1;fill-rule:nonzero;stroke:none"
         id="path350" /><path
         d="m 10301,11799.5 c -32.6,0 -59.8,14.8 -71.7,39.4 -13,27 2.8,51.3 11.3,64.4 2.1,3.1 4,6.1 5.1,8.3 14.8,28.5 37.2,71.6 86.8,84.5 50.3,13.1 103.6,-8 126.8,-50.2 8.5,-15.4 2.8,-34.7 -12.6,-43.2 -15.4,-8.5 -34.8,-2.8 -43.2,12.6 -8.9,16.1 -33.5,24.8 -54.9,19.2 -18.9,-5 -30,-20.8 -46.3,-52.3 -2.6,-4.9 -5.6,-9.5 -8.2,-13.6 -0.8,-1.2 -1.8,-2.7 -2.7,-4.1 2.9,-0.9 6.9,-1.5 11.8,-1.3 29.3,1.4 56.9,11.6 65.5,24.3 9.9,14.6 29.7,18.4 44.2,8.5 14.6,-9.9 18.4,-29.7 8.5,-44.2 -30.3,-44.8 -95.9,-51.3 -115.2,-52.2 -1.7,-0.1 -3.5,-0.1 -5.2,-0.1"
         style="fill:#494e5e;fill-opacity:1;fill-rule:nonzero;stroke:none"
         id="path352" /><path
         d="m 10157.6,11775.7 c -26.6,0 -53.5,11.3 -68,36.4 -12,20.8 -12.9,47.1 -2.5,72.3 7.7,18.8 19.8,33.4 30.5,46.2 l 44.1,52.8 c 12.9,15.6 30.7,36.9 58,45.9 22.7,7.5 49,5.1 74,-6.7 19.3,-9.1 35.2,-22.3 49.2,-33.9 13.5,-11.2 15.4,-31.3 4.2,-44.8 -11.3,-13.6 -31.3,-15.4 -44.9,-4.2 -12.1,10.1 -23.6,19.6 -35.7,25.3 -10,4.7 -19.8,6.1 -26.8,3.8 -10.1,-3.3 -20.6,-16 -29.1,-26.1 l -44.1,-52.9 c -8.5,-10.2 -16.5,-19.9 -20.5,-29.6 -2.9,-7 -2.8,-13.5 -1.2,-16.3 2.5,-4.4 14.7,-6.4 24,-2.3 17.1,7.4 53,35.8 64,50.6 10.4,14.1 30.4,17.1 44.5,6.6 14.1,-10.5 17.1,-30.5 6.6,-44.6 -17.7,-23.9 -62.2,-59.1 -89.7,-71 -11.2,-4.9 -23.9,-7.5 -36.6,-7.5"
         style="fill:#494e5e;fill-opacity:1;fill-rule:nonzero;stroke:none"
         id="path354" /><path
         d="m 10037.6,11810.6 c -11.8,0 -23.6,1.1 -35.1,3.4 -32.12,6.3 -53.7,25.3 -57.75,50.6 -3.81,23.7 9.64,42.8 16.11,51.9 16.62,23.5 33.81,47.8 55.94,69.2 26.9,26.1 56.1,42.6 86.7,49.2 39,8.3 78.6,-1.1 105.9,-25.1 13.2,-11.6 14.5,-31.7 2.9,-44.9 -11.6,-13.2 -31.8,-14.5 -45,-2.9 -12,10.6 -31.4,14.6 -50.5,10.6 -18.5,-4 -37.8,-15.3 -55.7,-32.6 -17.9,-17.3 -32.6,-38.2 -48.2,-60.3 -0.6,-0.8 -1.2,-1.6 -1.7,-2.3 1.1,-0.3 2.3,-0.6 3.6,-0.9 24,-4.7 49.4,-1.8 71.7,8.1 16.1,7.2 34.9,0.1 42.1,-16 7.2,-16.1 0,-34.9 -16,-42.1 -23.5,-10.5 -49.3,-15.9 -75,-15.9"
         style="fill:#494e5e;fill-opacity:1;fill-rule:nonzero;stroke:none"
         id="path356" /><path
         d="m 9019.82,9417.9 c -17.1,0 -31.23,13.6 -31.81,30.8 -10.78,319.9 -60.42,676.8 -139.77,1005 -4.13,17.1 6.38,34.3 23.48,38.5 17.05,4.1 34.3,-6.4 38.44,-23.5 80.33,-332.3 130.58,-693.8 141.51,-1017.8 0.6,-17.6 -13.17,-32.4 -30.75,-32.9 -0.37,-0.1 -0.74,-0.1 -1.1,-0.1"
         style="fill:#494e5e;fill-opacity:1;fill-rule:nonzero;stroke:none"
         id="path358" /><path
         d="m 8952.06,10694.1 c -3.08,0 -6.21,0.5 -9.31,1.4 -16.82,5.2 -26.3,23 -21.16,39.8 37.93,124.2 74.66,293.3 71.22,391.1 -0.6,17.5 13.14,32.3 30.72,32.9 17.38,0.7 32.33,-13.1 32.95,-30.7 3.94,-112.3 -37.38,-292.1 -73.96,-411.9 -4.19,-13.7 -16.82,-22.6 -30.46,-22.6"
         style="fill:#494e5e;fill-opacity:1;fill-rule:nonzero;stroke:none"
         id="path360" /><path
         d="m 15481.1,9338.6 h -5135.9 c -17.6,0 -31.9,14.3 -31.9,31.9 0,17.5 14.3,31.8 31.9,31.8 h 5135.9 c 17.6,0 31.8,-14.3 31.8,-31.8 0,-17.6 -14.2,-31.9 -31.8,-31.9"
         style="fill:#494e5e;fill-opacity:1;fill-rule:nonzero;stroke:none"
         id="path362" /><path
         d="m 16859.2,9338.6 h -841.5 c -17.5,0 -31.8,14.3 -31.8,31.9 0,17.5 14.3,31.8 31.8,31.8 h 841.5 c 17.6,0 31.8,-14.3 31.8,-31.8 0,-17.6 -14.2,-31.9 -31.8,-31.9"
         style="fill:#494e5e;fill-opacity:1;fill-rule:nonzero;stroke:none"
         id="path364" /><path
         d="m 10981.4,11281.5 c -333.2,0 -604.4,-271.1 -604.4,-604.4 0,-333.3 271.2,-604.5 604.4,-604.5 333.3,0 604.5,271.2 604.5,604.5 0,333.3 -271.2,604.4 -604.5,604.4 z m 0,-1272.6 c -368.4,0 -668.1,299.7 -668.1,668.2 0,368.4 299.7,668.1 668.1,668.1 368.5,0 668.2,-299.7 668.2,-668.1 0,-368.5 -299.7,-668.2 -668.2,-668.2"
         style="fill:#494e5e;fill-opacity:1;fill-rule:nonzero;stroke:none"
         id="path366" /><path
         d="m 17350.2,10694.2 h -5038.6 c -17.6,0 -31.8,14.2 -31.8,31.8 0,17.6 14.2,31.9 31.8,31.9 h 5038.6 c 17.6,0 31.9,-14.3 31.9,-31.9 0,-17.6 -14.3,-31.8 -31.9,-31.8"
         style="fill:#494e5e;fill-opacity:1;fill-rule:nonzero;stroke:none"
         id="path368" /><path
         d="m 18038,8582.5 h -7674.6 c -17.6,0 -31.8,14.3 -31.8,31.9 0,17.5 14.2,31.8 31.8,31.8 H 18038 c 17.6,0 31.9,-14.3 31.9,-31.8 0,-17.6 -14.3,-31.9 -31.9,-31.9"
         style="fill:#494e5e;fill-opacity:1;fill-rule:nonzero;stroke:none"
         id="path370" /><path
         d="m 16469.8,7769.7 h -6129.5 c -17.6,0 -31.9,14.3 -31.9,31.9 0,17.6 14.3,31.8 31.9,31.8 h 6129.5 c 17.6,0 31.9,-14.2 31.9,-31.8 0,-17.6 -14.3,-31.9 -31.9,-31.9"
         style="fill:#494e5e;fill-opacity:1;fill-rule:nonzero;stroke:none"
         id="path372" /></g></g></svg>
