<?xml version="1.0" encoding="UTF-8" standalone="no"?>
<!-- Created with Inkscape (http://www.inkscape.org/) -->
<svg
   xmlns:dc="http://purl.org/dc/elements/1.1/"
   xmlns:cc="http://creativecommons.org/ns#"
   xmlns:rdf="http://www.w3.org/1999/02/22-rdf-syntax-ns#"
   xmlns:svg="http://www.w3.org/2000/svg"
   xmlns="http://www.w3.org/2000/svg"
   xmlns:sodipodi="http://sodipodi.sourceforge.net/DTD/sodipodi-0.dtd"
   xmlns:inkscape="http://www.inkscape.org/namespaces/inkscape"
   id="svg1"
   sodipodi:version="0.32"
   inkscape:version="0.46"
   width="100%"
   height="100%"
   sodipodi:docbase="/home/nicu"
   sodipodi:docname="abstract_person.svg"
   inkscape:output_extension="org.inkscape.output.svg.inkscape"
   version="1.0"
   viewBox="0 0 77.257515 89.951889">
  <metadata
     id="metadata2457" />
  <defs
     id="defs3">
    <inkscape:perspective
       sodipodi:type="inkscape:persp3d"
       inkscape:vp_x="0 : 50 : 1"
       inkscape:vp_y="0 : 1000 : 0"
       inkscape:vp_z="100 : 50 : 1"
       inkscape:persp3d-origin="50 : 33.333333 : 1"
       id="perspective2461" />
  </defs>
  <sodipodi:namedview
     id="base"
     pagecolor="#ffffff"
     bordercolor="#666666"
     borderopacity="1.0"
     inkscape:pageopacity="0.0"
     inkscape:pageshadow="2"
     inkscape:zoom="8"
     inkscape:cx="57.551"
     inkscape:cy="43.602555"
     inkscape:window-width="1680"
     inkscape:window-height="975"
     inkscape:window-x="0"
     inkscape:window-y="25"
     showgrid="false"
     inkscape:current-layer="svg1" />
  <path
     id="path861"
     d="M 37.920872,1.619598 C 27.683072,1.619598 19.639622,10.767576 19.639622,18.963348 C 19.639622,24.556057 23.553732,29.369158 29.264622,31.900848 C 21.698922,33.356804 14.855372,35.867137 10.795872,39.713348 C 2.1658318,51.1679 5.3587718,60.176822 5.2021218,61.807098 C 5.9748618,62.673154 10.907462,65.998961 14.577122,65.744598 C 14.205942,58.258704 16.358372,47.775848 16.358372,47.775848 C 15.888422,48.152062 14.187872,62.282341 14.733372,65.775848 C 14.683912,65.780659 14.627062,65.741137 14.577122,65.744598 C 14.579062,65.783782 14.575042,65.830581 14.577122,65.869598 C 14.977112,72.35946 18.229752,87.271786 19.639622,88.525848 C 33.458782,90.509208 46.662612,90.240948 61.108372,88.838348 C 62.530251,81.851915 62.907485,75.011353 63.264622,67.869598 C 62.475792,56.826974 60.382162,49.331039 60.452122,49.494598 C 62.088602,54.298173 63.264622,67.869599 63.264622,67.869598 C 68.046302,67.055203 71.420442,66.221324 76.202122,63.525848 C 77.768642,61.895567 78.543522,52.59607 71.452122,39.932098 C 68.471242,34.608783 59.508252,31.650787 49.233372,30.807098 C 64.407756,19.962287 52.860087,3.3825226 37.920872,1.619598 z"
     style="fill:#000000;fill-opacity:0.5;fill-rule:evenodd;stroke-width:1pt"
     sodipodi:nodetypes="csccccccssccccccscc" />
  <g
     id="g836"
     transform="translate(-17.735378,-7.974152)">
    <path
       sodipodi:nodetypes="ccccccccccccc"
       id="path828"
       d="M 18.815381,66.311465 C 18.97203,64.68119 15.769036,55.67184 24.399078,44.217288 C 37.415368,31.884895 77.966373,31.743657 85.05778,44.40763 C 92.149187,57.071603 91.37708,66.40116 89.810561,68.031441 C 85.02888,70.726921 81.657068,71.541315 76.875385,72.35571 C 76.875385,72.35571 75.69771,58.800506 74.061235,53.996931 C 73.991268,53.83337 76.086553,61.317549 76.875385,72.360173 C 75.784402,83.277395 74.693413,93.316769 74.693413,93.316769 C 60.247656,94.719369 47.055114,94.993311 33.235956,93.009952 C 31.826092,91.755891 28.569868,76.850028 28.169873,70.360166 C 27.769878,62.867061 29.963002,52.268028 29.963002,52.268028 C 29.49305,52.644242 27.78103,66.766013 28.326527,70.25952 C 24.64242,70.617881 19.59864,67.189306 18.815381,66.311465 z"
       style="fill:#0000cc;fill-rule:evenodd;stroke:#000000;stroke-width:1.25;stroke-linejoin:round;stroke-dasharray:none" />
    <path
       id="path827"
       d="M 70.32947,23.44657 C 70.32947,31.642344 62.020523,38.293988 51.782713,38.293988 C 41.544909,38.293988 33.235956,31.642344 33.235956,23.44657 C 33.235956,15.250797 41.544909,8.599152 51.782713,8.599152 C 62.020523,8.599152 70.32947,15.250797 70.32947,23.44657 z"
       style="fill:#0000cc;fill-rule:evenodd;stroke:#000000;stroke-width:1.25;stroke-linejoin:round;stroke-dasharray:none" />
    <path
       sodipodi:nodetypes="ccc"
       id="path830"
       d="M 51.511942,9.7194887 C 43.435157,7.0272269 24.409841,21.026988 39.486506,33.590876 C 48.640196,31.796035 31.050752,17.257821 51.511942,9.7194887 z"
       style="fill:#ffffff;fill-opacity:0.25;fill-rule:evenodd;stroke:none;stroke-width:1pt;stroke-linecap:butt;stroke-linejoin:miter;stroke-opacity:1" />
    <path
       sodipodi:nodetypes="ccccc"
       id="path831"
       d="M 42.178768,37.180559 C 41.281348,37.001075 29.255912,39.154884 24.948292,45.07786 C 21.35861,47.231669 17.948412,57.462265 19.384285,65.718533 C 21.179126,67.154406 24.589324,69.4877 25.486745,68.949248 C 30.5123,58.359684 13.640793,47.411153 42.178768,37.180559 z"
       style="fill:#ffffff;fill-opacity:0.25;fill-rule:evenodd;stroke:none;stroke-width:1pt;stroke-linecap:butt;stroke-linejoin:miter;stroke-opacity:1" />
    <path
       sodipodi:nodetypes="cccc"
       id="path832"
       d="M 30.153332,55.12897 C 26.563649,66.077501 29.973848,85.641271 33.922499,92.102698 C 37.871149,93.359087 43.435157,93.89754 44.691545,93.538572 C 45.76845,84.384881 29.794364,85.64127 30.153332,55.12897 z"
       style="fill:#ffffff;fill-opacity:0.25;fill-rule:evenodd;stroke:none;stroke-width:1pt;stroke-linecap:butt;stroke-linejoin:miter;stroke-opacity:1" />
    <path
       sodipodi:nodetypes="ccc"
       id="path833"
       d="M 52.588846,37.539527 C 67.844996,33.411393 63.896346,17.078338 70.716742,21.56544 C 70.17829,24.975638 68.02448,37.001075 52.588846,37.539527 z"
       style="fill:#000000;fill-opacity:0.25;fill-rule:evenodd;stroke:none;stroke-width:1pt;stroke-linecap:butt;stroke-linejoin:miter;stroke-opacity:1" />
    <path
       sodipodi:nodetypes="cccc"
       id="path834"
       d="M 81.306305,70.564605 C 81.306305,70.564605 89.562574,68.949248 89.921543,67.333891 C 91.895869,61.051946 86.511345,46.154765 83.998567,43.641987 C 71.793647,39.334368 97.280392,68.590279 81.306305,70.564605 z"
       style="fill:#000000;fill-opacity:0.25;fill-rule:evenodd;stroke:none;stroke-width:1pt;stroke-linecap:butt;stroke-linejoin:miter;stroke-opacity:1" />
    <path
       sodipodi:nodetypes="cccc"
       id="path835"
       d="M 64.973251,93.538572 C 64.973251,93.538572 72.870552,94.077024 73.767972,92.641151 C 74.665393,91.205278 78.793528,78.64139 76.28075,72.53893 C 68.02448,65.718534 79.33198,93.359088 64.973251,93.538572 z"
       style="fill:#000000;fill-opacity:0.25;fill-rule:evenodd;stroke:none;stroke-width:1pt;stroke-linecap:butt;stroke-linejoin:miter;stroke-opacity:1" />
  </g>
  <metadata
     id="metadata2459">
    <rdf:RDF>
      <cc:Work
         rdf:about="">
        <dc:title>Clipart by Nicu Buculei - head1</dc:title>
        <dc:rights>
          <cc:Agent>
            <dc:title>Nicu Buculei</dc:title>
          </cc:Agent>
        </dc:rights>
        <dc:type
           rdf:resource="http://purl.org/dc/dcmitype/StillImage" />
        <cc:license
           rdf:resource="http://web.resource.org/cc/PublicDomain" />
        <dc:format>image/svg+xml</dc:format>
      </cc:Work>
      <cc:License
         rdf:about="http://web.resource.org/cc/PublicDomain">
        <cc:permits
           rdf:resource="http://web.resource.org/cc/Reproduction" />
        <cc:permits
           rdf:resource="http://web.resource.org/cc/Distribution" />
        <cc:permits
           rdf:resource="http://web.resource.org/cc/DerivativeWorks" />
      </cc:License>
    </rdf:RDF>
  </metadata>
</svg>
