<?xml version="1.0" encoding="UTF-8" standalone="no"?>
<!-- Created with Inkscape (http://www.inkscape.org/) -->
<svg
   xmlns:dc="http://purl.org/dc/elements/1.1/"
   xmlns:cc="http://creativecommons.org/ns#"
   xmlns:rdf="http://www.w3.org/1999/02/22-rdf-syntax-ns#"
   xmlns:svg="http://www.w3.org/2000/svg"
   xmlns="http://www.w3.org/2000/svg"
   xmlns:sodipodi="http://sodipodi.sourceforge.net/DTD/sodipodi-0.dtd"
   xmlns:inkscape="http://www.inkscape.org/namespaces/inkscape"
   width="100%" height="100%"
   viewBox="0 0 169.13734 218.21567"
   id="svg2"
   sodipodi:version="0.32"
   inkscape:version="0.46"
   version="1.0"
   sodipodi:docname="golden_apple.svg"
   inkscape:output_extension="org.inkscape.output.svg.inkscape">
  <defs
     id="defs4">
    <inkscape:perspective
       sodipodi:type="inkscape:persp3d"
       inkscape:vp_x="0 : 526.18109 : 1"
       inkscape:vp_y="0 : 1000 : 0"
       inkscape:vp_z="744.09448 : 526.18109 : 1"
       inkscape:persp3d-origin="372.04724 : 350.78739 : 1"
       id="perspective10" />
    <inkscape:perspective
       id="perspective2464"
       inkscape:persp3d-origin="372.04724 : 350.78739 : 1"
       inkscape:vp_z="744.09448 : 526.18109 : 1"
       inkscape:vp_y="0 : 1000 : 0"
       inkscape:vp_x="0 : 526.18109 : 1"
       sodipodi:type="inkscape:persp3d" />
  </defs>
  <sodipodi:namedview
     id="base"
     pagecolor="#ffffff"
     bordercolor="#666666"
     borderopacity="1.0"
     gridtolerance="10000"
     guidetolerance="10"
     objecttolerance="10"
     inkscape:pageopacity="0.0"
     inkscape:pageshadow="2"
     inkscape:zoom="1.4"
     inkscape:cx="36.426094"
     inkscape:cy="192.74015"
     inkscape:document-units="px"
     inkscape:current-layer="layer1"
     showgrid="false"
     inkscape:window-width="1440"
     inkscape:window-height="829"
     inkscape:window-x="0"
     inkscape:window-y="25" />
  <metadata
     id="metadata7">
    <rdf:RDF>
      <cc:Work
         rdf:about="">
        <dc:format>image/svg+xml</dc:format>
        <dc:type
           rdf:resource="http://purl.org/dc/dcmitype/StillImage" />
      </cc:Work>
    </rdf:RDF>
  </metadata>
  <g
     inkscape:groupmode="layer"
     id="layer2"
     inkscape:label="Apple"
     transform="translate(-265.05886,-222.53125)" />
  <g
     inkscape:label="Layer 1"
     inkscape:groupmode="layer"
     id="layer1"
     transform="translate(-265.05886,-222.53125)">
    <g
       id="g3308">
      <path
         sodipodi:nodetypes="cssssssscs"
         style="fill:#d7d30e;fill-opacity:1"
         d="M 281.26642,347.92798 C 279.04947,332.11639 285.41435,316.38826 288.61988,309.561 C 294.7267,296.55447 315.0019,293.61988 325.54245,295.00143 C 335.68967,296.33143 336.90689,293.19072 360.63794,280.63517 C 382.31971,269.16386 396.83008,276.55368 410.4469,303.68306 C 419.05764,320.8386 424.25908,344.44727 422.83708,361.93188 C 420.3859,392.07092 415.16533,402.41973 389.47386,411.55493 C 385.92736,412.81597 377.21874,416.35212 374.12853,418.65738 C 357.51151,431.05347 331.87047,428.58624 316.50293,416.09973 C 293.70894,395.26509 284.81654,373.24791 281.26642,347.92798 z"
         id="path2476" />
      <path
         sodipodi:nodetypes="ccsc"
         id="path3290"
         d="M 291.11633,238.52253 C 302.88095,275.10723 320.29563,280.68501 336.74134,282.62968 C 336.70388,282.74955 336.76266,268.25454 331.65205,259.05825 C 325.56976,248.11345 290.96173,238.76989 291.11633,238.52253 z"
         style="fill:#33cc33;fill-opacity:1;fill-rule:evenodd;stroke:none;stroke-width:1px;stroke-linecap:butt;stroke-linejoin:miter;stroke-opacity:1" />
      <path
         id="path2510"
         d="M 278.0625,222.53125 C 287.0649,256.38668 307.75764,282.7626 338.0625,281.625 C 320.7716,283.63828 306.33687,277.55088 282.75,292.0625 C 271.89113,298.74333 258.62299,325.98978 268.5625,365.09375 C 280.54872,412.24992 325.9793,469.03395 383.21875,424.75 C 384.34108,423.8817 392.42554,422.73954 393.53125,422.875 C 454.01754,430.28514 434.70033,312.29566 413.875,276.59375 C 406.61957,264.15539 388.47521,260.23645 365.59375,273.5625 C 353.44612,278.17341 338.74464,289.1543 338.90625,268.90625 C 341.44379,241.29394 303.85415,228.00535 278.0625,222.53125 z M 285.34375,229.875 C 297.84375,234.6512 311.56568,236.03098 322.84375,244.875 C 331.779,251.88184 330.50605,272.6723 335.34375,275.9375 C 315.52519,275.50839 296.66578,267.12234 285.34375,229.875 z M 378.6875,274.125 C 390.15818,274.03259 399.71798,278.51129 403.5,284.1875 C 440.50448,339.72548 430.97574,409.78644 393.96875,421.5 C 386.9225,423.06122 377.86911,423.25982 371.5625,426.96875 C 323.61994,453.32718 282.1614,383.57428 277.46875,329.3125 C 275.40377,305.43493 290.79584,281.85043 314.28125,284.6875 C 328.55198,286.41142 341.14718,288.58012 356.8125,279.96875 C 364.23885,275.88642 371.80509,274.18044 378.6875,274.125 z"
         style="fill:#414140" />
      <path
         id="text3297"
         d="M 206.08734,447.3978 C 206.48729,443.26451 208.28729,439.86451 211.48734,437.1978 C 214.75395,434.53118 218.52061,433.19785 222.78734,433.1978 C 226.78727,433.19785 230.1206,434.76452 232.78734,437.8978 C 234.45393,439.89785 235.08726,441.93118 234.68734,443.9978 C 234.35393,445.53117 232.82059,448.19784 230.08734,451.9978 C 227.4206,455.53116 226.08727,457.89783 226.08734,459.0978 C 226.08727,460.76449 227.0206,461.59782 228.88734,461.5978 C 230.6206,461.59782 232.92059,460.83116 235.78734,459.2978 C 238.18725,458.03116 240.22059,456.66449 241.88733,455.1978 C 243.55392,453.73116 245.25391,452.99783 246.98733,452.9978 C 248.72058,452.99783 250.22057,453.6645 251.48733,454.9978 C 252.75391,456.26449 253.38724,457.76449 253.38733,459.4978 C 253.38724,463.16449 249.58724,466.29782 241.98733,468.8978 C 237.85392,470.36448 233.88726,471.09781 230.08734,471.0978 C 221.82061,471.09781 217.68728,467.59782 217.68734,460.5978 C 217.68728,457.86449 218.65394,454.69783 220.58734,451.0978 C 222.5206,447.43117 223.48727,445.26451 223.48734,444.5978 C 223.48727,443.19784 222.6206,441.83118 220.88734,440.4978 C 220.15394,439.89785 219.18728,439.59785 217.98734,439.5978 C 214.12061,439.59785 210.15395,442.19784 206.08734,447.3978 M 204.68734,451.4978 C 204.08729,454.1645 203.78729,457.19783 203.78734,460.5978 C 203.78729,469.26448 205.65396,477.06447 209.38734,483.9978 C 213.92061,492.46446 220.58727,497.83112 229.38734,500.0978 C 230.9206,500.49778 232.42059,500.69778 233.88734,500.6978 C 236.28726,500.69778 238.32059,499.99778 239.98734,498.5978 C 241.65392,497.26445 242.48725,495.43112 242.48733,493.0978 C 242.48725,491.03112 241.85392,489.33113 240.58733,487.9978 C 239.32059,486.66446 237.65392,485.9978 235.58734,485.9978 C 234.92059,485.9978 233.92059,486.0978 232.58734,486.2978 C 231.25393,486.56446 230.25393,486.6978 229.58734,486.6978 C 224.05394,486.6978 219.18728,484.2978 214.98734,479.4978 C 209.58729,473.36448 206.15396,464.03115 204.68734,451.4978 M 195.38734,422.3978 C 189.98731,420.1312 185.05398,418.99787 180.58734,418.9978 C 174.12066,418.99787 170.22066,421.46453 168.88734,426.3978 C 168.68733,427.13119 168.58733,427.79786 168.58734,428.3978 C 168.58733,431.13119 169.88733,433.26452 172.48734,434.7978 C 174.68732,436.06452 177.25399,436.69785 180.18734,436.6978 C 180.25398,436.69785 183.28731,436.29785 189.28734,435.4978 C 191.02064,435.03118 192.5873,434.16452 193.98734,432.8978 C 203.25396,424.49786 215.55395,420.29787 230.88734,420.2978 C 232.68726,420.29787 234.38726,420.36453 235.98734,420.4978 C 225.98727,423.0312 217.65394,426.59786 210.98734,431.1978 C 201.98729,437.46451 197.4873,444.83117 197.48734,453.2978 C 197.4873,454.5645 197.82063,456.39783 198.48734,458.7978 C 199.22063,461.19782 199.5873,462.96449 199.58734,464.0978 C 199.5873,466.43115 198.72063,468.39781 196.98734,469.9978 C 195.25397,471.53114 193.22064,472.29781 190.88734,472.2978 C 187.82064,472.29781 185.42064,471.06448 183.68734,468.5978 C 182.15398,466.46448 181.38732,463.76449 181.38734,460.4978 C 181.38732,455.89783 182.45398,451.33117 184.58734,446.7978 C 178.85399,447.53117 174.22066,447.3645 170.68734,446.2978 C 161.62067,443.56451 157.08734,437.96451 157.08734,429.4978 C 157.08734,423.89786 158.95401,419.49787 162.68734,416.2978 C 166.22067,413.29787 170.85399,411.79788 176.58734,411.7978 C 184.72065,411.79788 190.98731,415.33121 195.38734,422.3978"
         style="font-size:20px;font-style:normal;font-variant:normal;font-weight:normal;font-stretch:normal;text-align:start;line-height:125%;text-anchor:start;fill:#282b00;fill-opacity:1;stroke:none;stroke-width:1px;stroke-linecap:butt;stroke-linejoin:miter;stroke-opacity:1;font-family:Rachana;-inkscape-font-specification:Rachana"
         transform="matrix(0.9336347,-0.3582264,0.3582264,0.9336347,0,0)" />
      <path
         sodipodi:nodetypes="cssccc"
         id="path3293"
         d="M 374.99999,275.93361 C 388.52987,272.66149 398.65224,281.86029 408.92857,300.57646 C 415.05394,311.73254 425.16952,335.97677 422.5,362.71932 C 418.31431,404.6504 406.78789,404.04742 390,410.93361 L 374.28571,418.07646 C 388.1279,379.28054 403.73853,350.11112 374.99999,275.93361 z"
         style="fill:#000000;fill-opacity:0.10300431;fill-rule:evenodd;stroke:none;stroke-width:1px;stroke-linecap:butt;stroke-linejoin:miter;stroke-opacity:1" />
      <path
         sodipodi:nodetypes="cssccc"
         id="path3295"
         d="M 375.56873,311.23328 C 382.04716,309.66651 386.89399,314.07112 391.81455,323.03287 C 394.74752,328.37467 399.5911,339.98339 398.31287,352.78836 C 396.30866,372.86597 390.78954,372.57725 382.75109,375.87452 L 375.22671,379.29469 C 381.85469,360.71827 389.32943,346.75125 375.56873,311.23328 z"
         style="fill:#ffffff;fill-opacity:0.30042922;fill-rule:evenodd;stroke:none;stroke-width:1px;stroke-linecap:butt;stroke-linejoin:miter;stroke-opacity:1" />
      <path
         sodipodi:nodetypes="ccsssc"
         id="path2474"
         d="M 341.60901,279.36217 C 343.83728,263.44439 343.22317,249.23427 333.07918,237.40699 C 330.25496,234.52379 325.10783,230.01989 325.42858,226.4702 C 325.55235,225.10048 331.80195,226.19508 337.45864,228.34445 C 345.98059,231.58254 344.41079,232.2546 344.27456,243.30288 C 344.15029,253.38075 342.60579,282.02106 341.60901,279.36217 z"
         style="fill:#414140" />
    </g>
  </g>
</svg>
