<?xml version="1.0" encoding="UTF-8" standalone="no"?>
<!DOCTYPE svg PUBLIC "-//W3C//DTD SVG 1.1//EN" "http://www.w3.org/Graphics/SVG/1.1/DTD/svg11.dtd">
<svg width="100%" height="100%" viewBox="0 0 550 275" preserveAspectRatio="none" xmlns="http://www.w3.org/2000/svg" version="1.1" xmlns:xlink="http://www.w3.org/1999/xlink">
<!-- From: http://upload.wikimedia.org/wikipedia/commons/b/b7/Population_curve.svg -->
<style type="text/css">
text {
	font-family : Verdana, Tahoma, sans-serif;
	font-size : 11px;
	fill : black;
	stroke : none;
}
/* As at 20060630, Wikipedia's SVG rasteriser couldn't make use of these styles. Leave them in in case it improves. */
#percentage_numbers text {
	text-anchor : end;
}
#x_axis_numbers text {
	text-anchor : middle;
}
</style>
<desc>Usage share of Netscape Navigator</desc>
<defs>
	<!-- The lines in the graph are scaled significantly. Make sure the stroke width is set appropriately. -->
	<line id="horizontal_line" x1="-10000" x2="2000" y1="0" y2="0" stroke-width="25"/>
	<line id="vertical_line" x1="0" x2="0" y1="100" y2="-100" stroke-width="25"/>
</defs>
<!--
	ORDER OF TRANSFORMATIONS:
	(1)	Shift origin from (x, y) to (0, 0) (e.g., from [2004, 0] to [0, 0])
	(2)	Scale as appropriate
	(3)	Shift back to viewport's origin
	(4)	Shift away from edge as desired
	
	In working out your calculations, opt for a number that divides nicely into 100s (e.g., 1, 2, 2.5, 5, 10, 20, 25, etc.)
	
	CALCULATIONS:
	Horizontal	=	Width/Range
				=	500/(2000-(-10000))
				~	0.04
	Vertical	=	[-1 * Height]/Range
				=	-250/(6070 - 0)
				~	-0.04
-->
<g transform="translate(55)">
	<g transform="translate(0, 250) scale(0.04, -0.04) translate(10000)">
		<!-- X-axis -->
		<use xlink:href="#horizontal_line" x="0" y="0" stroke="black"/>
		<!-- Horizontal gridlines -->
		<g stroke="#ccc">
			<use xlink:href="#horizontal_line" x="0" y="0"/>
			<use xlink:href="#horizontal_line" x="0" y="1000" stroke-dasharray="100"/>
			<use xlink:href="#horizontal_line" x="0" y="2000"/>
			<use xlink:href="#horizontal_line" x="0" y="3000" stroke-dasharray="100"/>
			<use xlink:href="#horizontal_line" x="0" y="4000"/>
			<use xlink:href="#horizontal_line" x="0" y="5000" stroke-dasharray="100"/>
			<use xlink:href="#horizontal_line" x="0" y="6000"/>
		</g>
		<!-- Vertical ticks -->
		<g stroke="black">
			<use xlink:href="#vertical_line" x="-10000" y="0"/>
			<use xlink:href="#vertical_line" x="-8000" y="0"/>
			<use xlink:href="#vertical_line" x="-6000" y="0"/>
			<use xlink:href="#vertical_line" x="-4000" y="0"/>
			<use xlink:href="#vertical_line" x="-2000" y="0"/>
			<use xlink:href="#vertical_line" x="0" y="0" transform="scale(1, 1.5)"/>
			<use xlink:href="#vertical_line" x="1000" y="0"/>
			<use xlink:href="#vertical_line" x="2000" y="0"/>
		</g>
		<!-- Plot -->
		<path fill="#555" stroke="black" stroke-width="20" d="M -10000 0 L -10000   4 L -8000    5 L -7000    5 L -6000    5 L -5000    5 L -4000    7 L -3000   14 L -2000   27 L -1000   50 L -750    60 L -500   100 L -400    160 L -200    150 L 1       170 L 200     190 L 400     190 L 500     190 L 600     200 L 700     210 L 800     220 L 900     226 L 1000    310 L 1100    301 L 1200    360 L 1250    400 L 1300    360 L 1340    443 L 1400    350 L 1500    425 L 1600    545 L 1650    470 L 1700    600 L 1750    790 L 1800    980 L 1850    1260 L 1900    1650 L 1910    1750 L 1920    1860 L 1930    2070 L 1940    2300 L 1950    2400 L 1960    3020 L 1970    3700 L 1974    4000 L 1980    4430 L 1987    5000 L 1990    5260 L 2000    6070 V 0 z"/>
	</g>
	<!-- Text can't be scaled or it goes strange. Its location must be calculated directly. -->
	<!-- Y-axis label -->
	<text transform="translate(-160, 120) rotate(270)" x="0" y="125" text-anchor="middle">World population, billions</text>
	<!-- Y-axis -->
	<g id="percentage_numbers" transform="translate(-10, 2)" text-anchor="end">
		<text x="0" y="250">0</text>
		<text x="0" y="210">1</text>
		<text x="0" y="170">2</text>
		<text x="0" y="130">3</text>
		<text x="0" y="90">4</text>
		<text x="0" y="50">5</text>
		<text x="0" y="10">6</text>
	</g>
	<!-- X-axis -->
	<g id="x_axis_numbers" transform="translate(0, 20)" text-anchor="middle">
		<text x="0" y="250">10,000 BC</text>
		<text x="80" y="250">8000</text>
		<text x="160" y="250">6000</text>
		<text x="240" y="250">4000</text>
		<text x="320" y="250">2000</text>
		<text x="400" y="250">AD 1</text>
		<text x="440" y="250">1000</text>
		<text x="480" y="250">2000</text>
	</g>
	
</g>
</svg>
