<?xml version="1.0" encoding="UTF-8" standalone="no"?>
<!-- Created with Inkscape (http://www.inkscape.org/) -->
<svg
   xmlns:dc="http://purl.org/dc/elements/1.1/"
   xmlns:cc="http://creativecommons.org/ns#"
   xmlns:rdf="http://www.w3.org/1999/02/22-rdf-syntax-ns#"
   xmlns:svg="http://www.w3.org/2000/svg"
   xmlns="http://www.w3.org/2000/svg"
   xmlns:sodipodi="http://sodipodi.sourceforge.net/DTD/sodipodi-0.dtd"
   xmlns:inkscape="http://www.inkscape.org/namespaces/inkscape"
   width="100%"
   height="100%"
   id="svg33716"
   sodipodi:version="0.32"
   inkscape:version="0.46"
   version="1.0"
   sodipodi:docname="wd_logo.svg"
   inkscape:output_extension="org.inkscape.output.svg.inkscape"
   viewBox="0 0 799.27136 461.271">
  <defs
     id="defs33718">
    <inkscape:perspective
       sodipodi:type="inkscape:persp3d"
       inkscape:vp_x="0 : 526.18109 : 1"
       inkscape:vp_y="0 : 1000 : 0"
       inkscape:vp_z="744.09448 : 526.18109 : 1"
       inkscape:persp3d-origin="372.04724 : 350.78739 : 1"
       id="perspective33724" />
  </defs>
  <sodipodi:namedview
     id="base"
     pagecolor="#ffffff"
     bordercolor="#666666"
     borderopacity="1.0"
     gridtolerance="10000"
     guidetolerance="10"
     objecttolerance="10"
     inkscape:pageopacity="0.0"
     inkscape:pageshadow="2"
     inkscape:zoom="0.7"
     inkscape:cx="352.7501"
     inkscape:cy="271.71233"
     inkscape:document-units="px"
     inkscape:current-layer="layer1"
     showgrid="false"
     inkscape:window-width="1440"
     inkscape:window-height="829"
     inkscape:window-x="0"
     inkscape:window-y="25" />
  <metadata
     id="metadata33721">
    <rdf:RDF>
      <cc:Work
         rdf:about="">
        <dc:format>image/svg+xml</dc:format>
        <dc:type
           rdf:resource="http://purl.org/dc/dcmitype/StillImage" />
      </cc:Work>
    </rdf:RDF>
  </metadata>
  <g
     inkscape:label="Layer 1"
     inkscape:groupmode="layer"
     id="layer1"
     transform="translate(13.921373,-319.92142)">
    <rect
       style="opacity:1;fill:#2c4592;fill-opacity:0.98039216;stroke:none;stroke-width:1;stroke-linecap:round;stroke-linejoin:round;stroke-miterlimit:4;stroke-dasharray:none;stroke-dashoffset:0.62619999;stroke-opacity:1"
       id="rect33662"
       width="799.27136"
       height="461.271"
       x="-13.921373"
       y="319.92142"
       rx="43.569466"
       ry="43.328442" />
    <path
       style="opacity:0.98000004;fill:#ffffff;fill-opacity:1;fill-rule:evenodd"
       id="path33670"
       d="M 89.761501,674.77687 L 83.270311,671.64819 L 92.712031,585.88185 L 103.55958,492.66449 L 170.70472,495.69797 L 161.76895,574.00007 L 176.62095,549.76698 L 197.07876,511.8277 L 203.99858,499.43546 L 220.93844,499.51874 L 301.69928,504.64655 L 306.20214,538.38248 L 314.26349,582.05039 L 319.07132,572.0186 L 330.45334,534.25174 L 338.96936,506.51673 L 372.68184,506.51673 L 406.39443,506.51673 L 403.00994,517.91331 L 375.40219,601.02566 L 345.27778,674.36916 L 302.19995,676.2322 L 265.02261,673.51696 L 257.94196,604.47449 L 250.86119,535.43196 L 211.73989,604.47449 L 176.61235,676.46749 L 136.43252,676.11382 L 89.761501,674.77687 z"
       sodipodi:nodetypes="ccccccccccccccccccccccccccccc" />
    <path
       style="opacity:0.98000004;fill:#ffffff;fill-opacity:1;fill-rule:evenodd"
       id="path33672"
       d="M 103.81118,480.73974 L 111.04615,430.02852 L 179.18086,430.30722 L 172.37919,481.01637 L 103.81118,480.73974 z"
       sodipodi:nodetypes="ccccc" />
    <path
       style="opacity:0.98000004;fill:#ffffff;fill-opacity:1;fill-rule:evenodd"
       id="path33674"
       d="M 224.47315,459.89829 C 230.54909,448.53871 236.5819,437.50693 237.87949,435.38312 C 239.77553,432.27969 245.32342,431.35293 266.13743,430.66224 C 291.82399,429.80982 292.05855,429.85121 294.77553,435.70395 C 296.28214,438.94949 298.07027,450.36806 298.7491,461.07851 L 299.98325,480.55203 L 256.70466,480.55203 L 213.42612,480.55203 L 224.47315,459.89829 z" />
    <path
       style="opacity:0.98000004;fill:#ffffff;fill-opacity:1;fill-rule:evenodd"
       id="path33676"
       d="M 349.55243,479.319 C 348.87417,478.64085 351.56641,467.48782 355.53508,454.53452 L 362.75087,430.98306 L 397.68215,430.98306 C 416.89445,430.98306 432.61355,431.72521 432.61355,432.63224 C 432.61355,433.53926 429.2011,444.69229 425.03031,457.41672 L 417.44714,480.55203 L 384.11633,480.55203 C 365.78429,480.55203 350.23053,479.9972 349.55238,479.319 L 349.55243,479.319 z" />
    <path
       style="opacity:0.98000004;fill:#ffffff;fill-opacity:1;fill-rule:evenodd"
       id="path33678"
       d="M 378.91384,674.80173 C 375.99278,674.23903 373.60287,673.05617 373.60287,672.17304 C 373.60287,671.28991 385.93297,633.57659 401.00316,588.36562 L 428.40345,506.1639 L 460.60386,507.59803 C 505.94485,509.61746 518.14577,511.08685 516.91933,514.3803 C 514.50282,520.86952 491.96968,595.64237 490.55552,601.86481 L 489.00273,608.69684 L 508.60683,607.46106 C 541.95484,605.35902 556.95007,599.01241 577.2723,578.399 C 591.57869,563.88763 600.27067,546.12368 601.90983,528.04695 C 603.0197,515.80683 602.38722,512.53036 597.20869,503.69386 C 593.56123,497.47001 587.21805,491.22148 580.96182,487.68965 C 570.90961,482.01472 569.43623,481.87975 509.32743,481.12721 C 475.57334,480.70459 445.64373,479.87034 442.81714,479.27334 L 453.87699,429.80284 L 536.82923,430.53419 L 619.78147,431.26554 L 633.791,438.33747 C 662.56496,452.86251 678.02357,475.73897 679.91546,506.59484 C 681.37933,530.46875 677.45514,547.45282 664.48946,573.36005 C 655.4748,591.37244 649.82805,598.86114 631.05422,617.70059 C 592.81009,656.0784 562.41591,670.37287 511.06889,674.12988 C 481.31232,676.30716 389.16203,676.77555 378.91384,674.80167 L 378.91384,674.80173 z"
       sodipodi:nodetypes="cscccscccssssscccccsssscc" />
    <path
       style="fill:none;fill-rule:evenodd;stroke:#000000;stroke-width:5.62358332px;stroke-linecap:butt;stroke-linejoin:miter;stroke-opacity:1"
       d="M 114.34854,402.18931 L 76.389351,726.95124"
       id="path33690" />
    <path
       style="fill:none;fill-rule:evenodd;stroke:#000000;stroke-width:5.62358332px;stroke-linecap:butt;stroke-linejoin:miter;stroke-opacity:1"
       d="M 189.56396,371.2596 L 145.27825,701.64511"
       id="path33692" />
    <path
       style="fill:none;fill-rule:evenodd;stroke:#000000;stroke-width:5.62358332px;stroke-linecap:butt;stroke-linejoin:miter;stroke-opacity:1"
       d="M 255.64107,401.48636 L 133.32813,627.83558"
       id="path33694" />
    <path
       style="fill:none;fill-rule:evenodd;stroke:#000000;stroke-width:5.62358332px;stroke-linecap:butt;stroke-linejoin:miter;stroke-opacity:1"
       d="M 292.89731,410.62468 C 292.19436,413.43647 321.71817,623.6179 321.71817,623.6179"
       id="path33696"
       sodipodi:nodetypes="cc" />
    <path
       style="fill:none;fill-rule:evenodd;stroke:#000000;stroke-width:5.62358379px;stroke-linecap:butt;stroke-linejoin:miter;stroke-opacity:1"
       d="M 369.87629,403.94667 C 369.17329,406.75847 302.39329,621.15758 302.39329,621.15758"
       id="path33698"
       sodipodi:nodetypes="cc" />
    <path
       style="fill:none;fill-rule:evenodd;stroke:#000000;stroke-width:5.62358379px;stroke-linecap:butt;stroke-linejoin:miter;stroke-opacity:1"
       d="M 245.45451,512.9036 C 244.75151,515.71539 274.27537,725.89682 274.27537,725.89682"
       id="path33700"
       sodipodi:nodetypes="cc" />
    <path
       style="fill:none;fill-rule:evenodd;stroke:#000000;stroke-width:5.62358379px;stroke-linecap:butt;stroke-linejoin:miter;stroke-opacity:1"
       d="M 165.31839,699.88774 L 263.7311,510.79476"
       id="path33702"
       sodipodi:nodetypes="cc" />
    <path
       style="fill:none;fill-rule:evenodd;stroke:#000000;stroke-width:5.62358379px;stroke-linecap:butt;stroke-linejoin:miter;stroke-opacity:1"
       d="M 445.437,408.51584 L 329.45054,718.51586"
       id="path33704"
       sodipodi:nodetypes="cc" />
    <path
       style="fill:none;fill-rule:evenodd;stroke:#000000;stroke-width:5.62358379px;stroke-linecap:butt;stroke-linejoin:miter;stroke-opacity:1"
       d="M 471.0946,396.9172 L 355.1082,706.91722"
       id="path33706"
       sodipodi:nodetypes="cc" />
    <path
       style="fill:none;fill-rule:evenodd;stroke:#000000;stroke-width:5.62358379px;stroke-linecap:butt;stroke-linejoin:miter;stroke-opacity:1"
       d="M 98.180681,430.30717 L 656.32138,429.60427"
       id="path33708"
       sodipodi:nodetypes="cc" />
    <path
       style="fill:none;fill-rule:evenodd;stroke:#000000;stroke-width:5.62358379px;stroke-linecap:butt;stroke-linejoin:miter;stroke-opacity:1"
       d="M 62.330341,676.69046 L 620.47103,675.98752"
       id="path33710"
       sodipodi:nodetypes="cc" />
    <path
       style="fill:none;fill-rule:evenodd;stroke:#000000;stroke-width:5.62358379px;stroke-linecap:butt;stroke-linejoin:miter;stroke-opacity:1"
       d="M 67.953921,483.37979 L 689.35993,482.67684"
       id="path33712"
       sodipodi:nodetypes="cc" />
    <path
       style="fill:none;fill-rule:evenodd;stroke:#000000;stroke-width:5.62358379px;stroke-linecap:butt;stroke-linejoin:miter;stroke-opacity:1"
       d="M 72.874561,493.92401 L 666.86559,519.23013"
       id="path33714"
       sodipodi:nodetypes="cc" />
  </g>
</svg>
