<?xml version="1.0" encoding="UTF-8" standalone="no"?>
<!-- Generator: Adobe Illustrator 13.0.0, SVG Export Plug-In . SVG Version: 6.00 Build 14948)  -->
<svg
   xmlns:dc="http://purl.org/dc/elements/1.1/"
   xmlns:cc="http://creativecommons.org/ns#"
   xmlns:rdf="http://www.w3.org/1999/02/22-rdf-syntax-ns#"
   xmlns:svg="http://www.w3.org/2000/svg"
   xmlns="http://www.w3.org/2000/svg"
   xmlns:sodipodi="http://sodipodi.sourceforge.net/DTD/sodipodi-0.dtd"
   xmlns:inkscape="http://www.inkscape.org/namespaces/inkscape"
   version="1.0"
   id="svg2"
   x="0px"
   y="0px"
   width="100%"
   height="100%"
   enable-background="new 0 0 600 600"
   xml:space="preserve"
   sodipodi:version="0.32"
   inkscape:version="0.46"
   sodipodi:docname="x.svg"
   inkscape:output_extension="org.inkscape.output.svg.inkscape"
   sodipodi:docbase="C:\Documents and Settings\KevinDuke\Desktop"
   viewBox="0 0 536.22995 612.8086"><metadata
     id="metadata7"><rdf:RDF><cc:Work
         rdf:about=""><dc:format>image/svg+xml</dc:format><dc:type
           rdf:resource="http://purl.org/dc/dcmitype/StillImage" /></cc:Work></rdf:RDF></metadata><defs
     id="defs5"><inkscape:perspective
       sodipodi:type="inkscape:persp3d"
       inkscape:vp_x="0 : 300 : 1"
       inkscape:vp_y="0 : 1000 : 0"
       inkscape:vp_z="600 : 300 : 1"
       inkscape:persp3d-origin="300 : 200 : 1"
       id="perspective4520" /></defs><sodipodi:namedview
     inkscape:window-height="829"
     inkscape:window-width="1440"
     inkscape:pageshadow="2"
     inkscape:pageopacity="0.0"
     guidetolerance="10.0"
     gridtolerance="10.0"
     objecttolerance="10.0"
     borderopacity="1.0"
     bordercolor="#666666"
     pagecolor="#ffffff"
     id="base"
     inkscape:zoom="0.65666667"
     inkscape:cx="36.548225"
     inkscape:cy="299.97916"
     inkscape:window-x="0"
     inkscape:window-y="25"
     inkscape:current-layer="svg2"
     showgrid="false"
     showguides="true"
     inkscape:guide-bbox="true" /><path
     id="X"
     d="M 9.4499853,528.46949 C 9.4499853,512.9483 178.15971,321.84607 177.58231,304.88147 C 177.05667,289.43786 12.495671,104.93759 12.495671,90.761862 C 12.495671,76.586136 92.079324,9.4499998 112.52508,9.4499998 C 131.44801,9.4499998 259.11391,193.92328 275.94745,195.06289 C 292.60997,196.19093 405.23743,12.495685 421.86091,12.495685 C 436.96155,12.495685 525.69364,74.631961 525.69364,89.753591 C 525.69364,103.35237 354.6539,277.48214 354.97587,298.7901 C 355.27484,318.57556 527.95641,502.76737 526.77391,520.30525 C 525.69364,536.32688 436.34467,603.35863 420.60329,603.35863 C 403.33907,603.35863 281.78812,418.4369 265.28755,418.45157 C 248.7182,418.4663 131.19734,603.35863 116.09659,603.35863 C 99.472997,603.35863 9.4499853,542.46784 9.4499853,528.46949 z"
     sodipodi:nodetypes="czzzzzzzzzzzz"
     style="opacity:1;fill:#efc1c1;fill-opacity:1;stroke:#672020;stroke-width:18.89999962;stroke-miterlimit:4;stroke-dasharray:none;stroke-opacity:1" /></svg>