<?xml version="1.0" encoding="UTF-8" standalone="no"?>
<!-- Created with Inkscape (http://www.inkscape.org/) -->

<svg
   version="1.1"
   id="svg1"
   width="1587.4"
   height="1436.2267"
   viewBox="0 0 1587.4 1436.2267"
   sodipodi:docname="pipe.svg"
   inkscape:version="1.4 (e7c3feb100, 2024-10-09)"
   xmlns:inkscape="http://www.inkscape.org/namespaces/inkscape"
   xmlns:sodipodi="http://sodipodi.sourceforge.net/DTD/sodipodi-0.dtd"
   xmlns:xlink="http://www.w3.org/1999/xlink"
   xmlns="http://www.w3.org/2000/svg"
   xmlns:svg="http://www.w3.org/2000/svg">
  <defs
     id="defs1">
    <linearGradient
       id="linearGradient57"
       inkscape:collect="always">
      <stop
         style="stop-color:#414141;stop-opacity:1;"
         offset="0"
         id="stop58" />
      <stop
         style="stop-color:#3a3a3a;stop-opacity:1;"
         offset="0.46132782"
         id="stop60" />
      <stop
         style="stop-color:#000000;stop-opacity:1;"
         offset="1"
         id="stop59" />
    </linearGradient>
    <linearGradient
       id="linearGradient54"
       inkscape:collect="always">
      <stop
         style="stop-color:#ffffff;stop-opacity:0.34059268;"
         offset="0"
         id="stop55" />
      <stop
         style="stop-color:#ffffff;stop-opacity:0.16527732;"
         offset="0.46920311"
         id="stop57" />
      <stop
         style="stop-color:#ffffff;stop-opacity:0.09247001;"
         offset="1"
         id="stop56" />
    </linearGradient>
    <linearGradient
       id="linearGradient52"
       inkscape:collect="always">
      <stop
         style="stop-color:#ffffff;stop-opacity:0.20730209;"
         offset="0"
         id="stop52" />
      <stop
         style="stop-color:#ffffff;stop-opacity:0;"
         offset="0.67547077"
         id="stop54" />
      <stop
         style="stop-color:#ffffff;stop-opacity:0;"
         offset="1"
         id="stop53" />
    </linearGradient>
    <linearGradient
       id="linearGradient49"
       inkscape:collect="always">
      <stop
         style="stop-color:#ca9e2c;stop-opacity:1;"
         offset="0"
         id="stop50" />
      <stop
         style="stop-color:#aca91d;stop-opacity:1;"
         offset="1"
         id="stop51" />
    </linearGradient>
    <linearGradient
       id="linearGradient47"
       inkscape:collect="always">
      <stop
         style="stop-color:#b67d1a;stop-opacity:1;"
         offset="0"
         id="stop47" />
      <stop
         style="stop-color:#bcb111;stop-opacity:1;"
         offset="0.48442101"
         id="stop49" />
      <stop
         style="stop-color:#956c00;stop-opacity:1;"
         offset="1"
         id="stop48" />
    </linearGradient>
    <clipPath
       clipPathUnits="userSpaceOnUse"
       id="clipPath3">
      <path
         d="m 5256.9,938.742 c 0,-255.441 -966.71,-462.512 -2159.22,-462.512 -1192.5,0 -2159.219,207.071 -2159.219,462.512 0,255.448 966.719,462.528 2159.219,462.528 1192.51,0 2159.22,-207.08 2159.22,-462.528"
         transform="translate(0,2.5000001e-4)"
         id="path3" />
    </clipPath>
    <clipPath
       clipPathUnits="userSpaceOnUse"
       id="clipPath5">
      <path
         d="M 6132.38,6257.13 C 5789.71,5730.05 4490.69,3178.4 3661.29,4947.8 c -120.66,256.32 -244.22,557.57 -244.22,557.57 L 667.016,4600.81 c 0,0 229.593,-3523.56 2330.754,-3541.97 1964.12,-17.23 3396.76,2478 4358.13,4474.67 l -1223.52,723.62"
         transform="translate(0,2.5000001e-4)"
         id="path5" />
    </clipPath>
    <clipPath
       clipPathUnits="userSpaceOnUse"
       id="clipPath7">
      <path
         d="M 3589.24,1749.41 C 1781.75,1763.86 1437.61,4272.77 1389.91,4729.8 L 938.461,4594.66 c 0,0 217.299,-3035.81 2205.949,-3051.68 467.93,-3.72 746.07,204.03 444.83,206.43"
         transform="translate(0,2.5000001e-4)"
         id="path7" />
    </clipPath>
    <clipPath
       clipPathUnits="userSpaceOnUse"
       id="clipPath9">
      <path
         d="M 3589.24,1749.41 C 1781.75,1763.86 1437.61,4272.77 1389.91,4729.8 L 938.461,4594.66 c 0,0 217.299,-3035.81 2205.949,-3051.68 467.93,-3.72 746.07,204.03 444.83,206.43"
         transform="translate(0,2.5000001e-4)"
         id="path9" />
    </clipPath>
    <clipPath
       clipPathUnits="userSpaceOnUse"
       id="clipPath11">
      <path
         d="m 3417.07,5198.84 c 0,0 123.56,-301.25 244.22,-557.59 783,-1670.42 2210.13,783.48 2655.65,1506.72 l -184.56,109.16 C 5789.71,5730.05 4490.69,3178.4 3661.29,4947.8 c -120.66,256.32 -244.22,557.57 -244.22,557.57 v -306.53"
         transform="translate(0,2.5000001e-4)"
         id="path11" />
    </clipPath>
    <clipPath
       clipPathUnits="userSpaceOnUse"
       id="clipPath13">
      <path
         d="M 7169,5644.04 C 6209.04,3681.84 4804.66,1338.44 2901,1355.13 1840.06,1364.43 1256.44,2267.41 938.461,3159.18 1228.98,2183.3 1818.65,1069.17 2997.77,1058.84 c 1964.12,-17.23 3396.76,2478 4358.13,4474.67 L 7169,5644.04"
         transform="translate(0,2.5000001e-4)"
         id="path13" />
    </clipPath>
    <clipPath
       clipPathUnits="userSpaceOnUse"
       id="clipPath15">
      <path
         d="m 11132.8,9768.21 c -30.9,0 -71.4,-72.06 -179.9,-111.02 v 0 C 10561,9620.64 9264.44,9446.44 8213.79,8689.34 7551.81,8212.32 6905.27,7395.99 6385.5,6636.75 l 1164.75,-693.67 c 922.31,1968.75 1349.89,3083.96 3417.45,3263.8 85.1,-0.14 151.9,-102.84 178.6,-102.84 58.5,0 92.5,173.22 92.5,347.91 0,174.68 -47.4,316.26 -106,316.26"
         transform="translate(0,2.5000001e-4)"
         id="path15" />
    </clipPath>
    <clipPath
       clipPathUnits="userSpaceOnUse"
       id="clipPath18">
      <path
         d="m 8303.63,8611.34 c 965.52,695.73 2138.57,899.22 2626.57,956 107,15.93 205.4,148.38 202.6,200.87 -30.9,0 -71.4,-72.06 -179.9,-111.02 v 0 C 10561,9620.64 9264.44,9446.44 8213.79,8689.34 7551.81,8212.32 6905.27,7395.99 6385.5,6636.75 l 101.8,-60.61 c 517.74,754.26 1159.4,1561.83 1816.33,2035.2"
         transform="translate(0,2.5000001e-4)"
         id="path18" />
    </clipPath>
    <clipPath
       clipPathUnits="userSpaceOnUse"
       id="clipPath20">
      <path
         d="m 6385.5,6636.75 c -92.59,-135.23 -181.16,-268.66 -265.06,-398.04 l 1215.8,-746.03 c 74.09,153.41 145.43,303.98 214.01,450.4 L 6385.5,6636.75"
         transform="translate(0,2.5000001e-4)"
         id="path20" />
    </clipPath>
    <clipPath
       clipPathUnits="userSpaceOnUse"
       id="clipPath22">
      <path
         d="m 6385.5,6636.75 c -92.59,-135.23 -181.16,-268.66 -265.06,-398.04 l 1215.8,-746.03 c 74.09,153.41 145.43,303.98 214.01,450.4 L 6385.5,6636.75"
         transform="translate(0,2.5000001e-4)"
         id="path22" />
    </clipPath>
    <clipPath
       clipPathUnits="userSpaceOnUse"
       id="clipPath24">
      <path
         d="m 6385.5,6636.75 c -92.59,-135.23 -181.16,-268.66 -265.06,-398.04 l 1215.8,-746.03 c 74.09,153.41 145.43,303.98 214.01,450.4 L 6385.5,6636.75"
         transform="translate(0,2.5000001e-4)"
         id="path24" />
    </clipPath>
    <clipPath
       clipPathUnits="userSpaceOnUse"
       id="clipPath26">
      <path
         d="m 6385.5,6636.75 c -92.59,-135.23 -181.16,-268.66 -265.06,-398.04 l 1215.8,-746.03 c 74.09,153.41 145.43,303.98 214.01,450.4 L 6385.5,6636.75"
         transform="translate(0,2.5000001e-4)"
         id="path26" />
    </clipPath>
    <clipPath
       clipPathUnits="userSpaceOnUse"
       id="clipPath28">
      <path
         d="m 6385.5,6636.75 c -92.59,-135.23 -181.16,-268.66 -265.06,-398.04 l 1215.8,-746.03 c 74.09,153.41 145.43,303.98 214.01,450.4 L 6385.5,6636.75"
         transform="translate(0,2.5000001e-4)"
         id="path28" />
    </clipPath>
    <clipPath
       clipPathUnits="userSpaceOnUse"
       id="clipPath33">
      <path
         d="m 2942.17,5355.59 c 38.84,-90.51 -348.62,-318.27 -854.36,-488.64 -505.76,-170.44 -948.94,-221 -977.09,-128.45 -36.95,109.68 343.1,336.71 848.82,507.09 505.74,170.42 945.71,219.66 982.63,110"
         transform="translate(0,2.5000001e-4)"
         id="path33" />
    </clipPath>
    <clipPath
       clipPathUnits="userSpaceOnUse"
       id="clipPath35">
      <path
         d="M 3417.13,5504.88 C 3356.15,5685.89 2692,5625.53 1933.75,5369.99 1175.5,5114.54 610.211,4760.68 671.188,4579.73 c 46.875,-152.58 715.862,-90.12 1474.132,165.36 758.26,255.45 1334.75,610.12 1271.81,759.79 z M 2075.25,4895.06 c -497.71,-167.7 -933.88,-217.47 -961.58,-126.4 -36.37,107.91 337.66,331.35 835.35,499.07 497.73,167.66 930.71,216.16 967.07,108.22 38.21,-89.04 -343.11,-313.2 -840.84,-480.89"
         transform="translate(0,2.5000001e-4)"
         id="path35" />
    </clipPath>
    <clipPath
       clipPathUnits="userSpaceOnUse"
       id="clipPath37">
      <path
         d="m 2305.91,4212.59 c 693.39,233.62 1237.19,543.35 1347.76,751.45 -118.18,252.65 -236.6,541.33 -236.6,541.33 l -0.14,-0.06 c 0.05,-0.13 0.14,-0.26 0.2,-0.43 60.94,-180.91 -504.3,-534.79 -1262.56,-790.25 -758.27,-255.46 -1422.406,-315.85 -1483.382,-134.9 -2.297,6.77 -3.411,13.9 -3.958,21.13 l -0.214,-0.05 c 0,0 15.418,-235.03 74.234,-583.61 169.297,-131 825.48,-53.67 1564.66,195.39"
         transform="translate(0,2.5000001e-4)"
         id="path37" />
    </clipPath>
    <clipPath
       clipPathUnits="userSpaceOnUse"
       id="clipPath39">
      <path
         d="m 2305.91,4212.59 c 693.39,233.62 1237.19,543.35 1347.76,751.45 -118.18,252.65 -236.6,541.33 -236.6,541.33 l -0.14,-0.06 c 0.05,-0.13 0.14,-0.26 0.2,-0.43 60.94,-180.91 -504.3,-534.79 -1262.56,-790.25 -758.27,-255.46 -1422.406,-315.85 -1483.382,-134.9 -2.297,6.77 -3.411,13.9 -3.958,21.13 l -0.214,-0.05 c 0,0 15.418,-235.03 74.234,-583.61 169.297,-131 825.48,-53.67 1564.66,195.39"
         transform="translate(0,2.5000001e-4)"
         id="path39" />
    </clipPath>
    <clipPath
       clipPathUnits="userSpaceOnUse"
       id="clipPath41">
      <path
         d="m 2305.91,4212.59 c 693.39,233.62 1237.19,543.35 1347.76,751.45 -118.18,252.65 -236.6,541.33 -236.6,541.33 l -0.14,-0.06 c 0.05,-0.13 0.14,-0.26 0.2,-0.43 60.94,-180.91 -504.3,-534.79 -1262.56,-790.25 -758.27,-255.46 -1422.406,-315.85 -1483.382,-134.9 -2.297,6.77 -3.411,13.9 -3.958,21.13 l -0.214,-0.05 c 0,0 15.418,-235.03 74.234,-583.61 169.297,-131 825.48,-53.67 1564.66,195.39"
         transform="translate(0,2.5000001e-4)"
         id="path41" />
    </clipPath>
    <clipPath
       clipPathUnits="userSpaceOnUse"
       id="clipPath43">
      <path
         d="m 2305.91,4212.59 c 693.39,233.62 1237.19,543.35 1347.76,751.45 -118.18,252.65 -236.6,541.33 -236.6,541.33 l -0.14,-0.06 c 0.05,-0.13 0.14,-0.26 0.2,-0.43 60.94,-180.91 -504.3,-534.79 -1262.56,-790.25 -758.27,-255.46 -1422.406,-315.85 -1483.382,-134.9 -2.297,6.77 -3.411,13.9 -3.958,21.13 l -0.214,-0.05 c 0,0 15.418,-235.03 74.234,-583.61 169.297,-131 825.48,-53.67 1564.66,195.39"
         transform="translate(0,2.5000001e-4)"
         id="path43" />
    </clipPath>
    <clipPath
       clipPathUnits="userSpaceOnUse"
       id="clipPath45">
      <path
         d="m 2305.91,4212.59 c 693.39,233.62 1237.19,543.35 1347.76,751.45 -118.18,252.65 -236.6,541.33 -236.6,541.33 l -0.14,-0.06 c 0.05,-0.13 0.14,-0.26 0.2,-0.43 60.94,-180.91 -504.3,-534.79 -1262.56,-790.25 -758.27,-255.46 -1422.406,-315.85 -1483.382,-134.9 -2.297,6.77 -3.411,13.9 -3.958,21.13 l -0.214,-0.05 c 0,0 15.418,-235.03 74.234,-583.61 169.297,-131 825.48,-53.67 1564.66,195.39"
         transform="translate(0,2.5000001e-4)"
         id="path45" />
    </clipPath>
    <clipPath
       clipPathUnits="userSpaceOnUse"
       id="clipPath47">
      <path
         d="m 2305.91,4212.59 c 693.39,233.62 1237.19,543.35 1347.76,751.45 -118.18,252.65 -236.6,541.33 -236.6,541.33 l -0.14,-0.06 c 0.05,-0.13 0.14,-0.26 0.2,-0.43 60.94,-180.91 -504.3,-534.79 -1262.56,-790.25 -758.27,-255.46 -1422.406,-315.85 -1483.382,-134.9 -2.297,6.77 -3.411,13.9 -3.958,21.13 l -0.214,-0.05 c 0,0 15.418,-235.03 74.234,-583.61 169.297,-131 825.48,-53.67 1564.66,195.39"
         transform="translate(0,2.5000001e-4)"
         id="path47" />
    </clipPath>
    <linearGradient
       inkscape:collect="always"
       xlink:href="#linearGradient47"
       id="linearGradient48"
       x1="6120.44"
       y1="6064.7151"
       x2="7550.25"
       y2="6064.7151"
       gradientUnits="userSpaceOnUse" />
    <linearGradient
       inkscape:collect="always"
       xlink:href="#linearGradient49"
       id="linearGradient51"
       x1="667.016"
       y1="4729.8011"
       x2="3653.67"
       y2="4729.8011"
       gradientUnits="userSpaceOnUse" />
    <linearGradient
       inkscape:collect="always"
       xlink:href="#linearGradient52"
       id="linearGradient53"
       x1="938.461"
       y1="3136.3654"
       x2="3714.6496"
       y2="3136.3654"
       gradientUnits="userSpaceOnUse" />
    <filter
       inkscape:collect="always"
       style="color-interpolation-filters:sRGB"
       id="filter54"
       x="-0.08618241"
       y="-0.075076383"
       width="1.1723648"
       height="1.1501528">
      <feGaussianBlur
         inkscape:collect="always"
         stdDeviation="99.691093"
         id="feGaussianBlur54" />
    </filter>
    <linearGradient
       inkscape:collect="always"
       xlink:href="#linearGradient54"
       id="linearGradient56"
       x1="3417.07"
       y1="5163.6021"
       x2="6316.94"
       y2="5163.6021"
       gradientUnits="userSpaceOnUse" />
    <filter
       inkscape:collect="always"
       style="color-interpolation-filters:sRGB"
       id="filter57"
       x="-0.07030063"
       y="-0.093213288"
       width="1.1406013"
       height="1.1864266">
      <feGaussianBlur
         inkscape:collect="always"
         stdDeviation="84.942789"
         id="feGaussianBlur57" />
    </filter>
    <linearGradient
       inkscape:collect="always"
       xlink:href="#linearGradient57"
       id="linearGradient59"
       x1="6460.9775"
       y1="6982.2637"
       x2="9880.207"
       y2="10971.782"
       gradientUnits="userSpaceOnUse" />
  </defs>
  <sodipodi:namedview
     id="namedview1"
     pagecolor="#ffffff"
     bordercolor="#000000"
     borderopacity="0.25"
     inkscape:showpageshadow="2"
     inkscape:pageopacity="0.0"
     inkscape:pagecheckerboard="0"
     inkscape:deskcolor="#d1d1d1"
     inkscape:zoom="0.69557266"
     inkscape:cx="793.59071"
     inkscape:cy="718.83217"
     inkscape:window-width="3440"
     inkscape:window-height="1361"
     inkscape:window-x="0"
     inkscape:window-y="282"
     inkscape:window-maximized="1"
     inkscape:current-layer="g1">
    <inkscape:page
       x="0"
       y="0"
       inkscape:label="1"
       id="page1"
       width="1587.4"
       height="1436.2267"
       margin="0"
       bleed="0" />
  </sodipodi:namedview>
  <g
     id="g1"
     inkscape:groupmode="layer"
     inkscape:label="1">
    <path
       id="path1"
       d="M 11905.5,0 H 0 V 10771.7 H 11905.5 V 0"
       style="fill:#ffffff;fill-opacity:1;fill-rule:nonzero;stroke:none"
       transform="matrix(0.13333333,0,0,-0.13333333,0,1436.2267)" />
    <g
       id="g60">
      <path
         id="path6"
         d="M 3589.24,1749.41 C 1781.75,1763.86 1437.61,4272.77 1389.91,4729.8 L 938.461,4594.66 c 0,0 217.299,-3035.81 2205.949,-3051.68 467.93,-3.72 746.07,204.03 444.83,206.43"
         style="fill-opacity:1;fill-rule:nonzero;stroke:none"
         transform="matrix(0.13333333,0,0,-0.13333333,0,1436.2267)"
         clip-path="url(#clipPath7)" />
      <path
         id="path12"
         d="M 7169,5644.04 C 6209.04,3681.84 4804.66,1338.44 2901,1355.13 1840.06,1364.43 1256.44,2267.41 938.461,3159.18 1228.98,2183.3 1818.65,1069.17 2997.77,1058.84 c 1964.12,-17.23 3396.76,2478 4358.13,4474.67 L 7169,5644.04"
         style="fill-opacity:1;fill-rule:nonzero;stroke:none"
         transform="matrix(0.13333333,0,0,-0.13333333,0,1436.2267)"
         clip-path="url(#clipPath13)" />
      <path
         id="path14"
         d="m 11132.8,9768.21 c -30.9,0 -71.4,-72.06 -179.9,-111.02 v 0 C 10561,9620.64 9264.44,9446.44 8213.79,8689.34 7551.81,8212.32 6905.27,7395.99 6385.5,6636.75 l 1164.75,-693.67 c 922.31,1968.75 1349.89,3083.96 3417.45,3263.8 85.1,-0.14 151.9,-102.84 178.6,-102.84 58.5,0 92.5,173.22 92.5,347.91 0,174.68 -47.4,316.26 -106,316.26"
         style="fill-opacity:1;fill-rule:nonzero;stroke:none;fill:url(#linearGradient59)"
         transform="matrix(0.13333333,0,0,-0.13333333,0,1436.2267)"
         clip-path="url(#clipPath15)" />
      <path
         id="path16"
         d="M 10950.2,9278.13 C 8852.68,9095.67 8310.47,8028.3 7381.86,6043.38 l 168.39,-100.3 c 922.31,1968.75 1349.89,3083.96 3417.45,3263.8 85.1,-0.14 151.9,-102.84 178.6,-102.84 -49.5,35.8 -109.1,173.98 -196.1,174.09"
         style="fill:#000000;fill-opacity:1;fill-rule:nonzero;stroke:none"
         transform="matrix(0.13333333,0,0,-0.13333333,0,1436.2267)" />
      <path
         id="path17"
         d="m 8303.63,8611.34 c 965.52,695.73 2138.57,899.22 2626.57,956 107,15.93 205.4,148.38 202.6,200.87 -30.9,0 -71.4,-72.06 -179.9,-111.02 v 0 C 10561,9620.64 9264.44,9446.44 8213.79,8689.34 7551.81,8212.32 6905.27,7395.99 6385.5,6636.75 l 101.8,-60.61 c 517.74,754.26 1159.4,1561.83 1816.33,2035.2"
         style="fill-opacity:1;fill-rule:nonzero;stroke:none"
         transform="matrix(0.13333333,0,0,-0.13333333,0,1436.2267)"
         clip-path="url(#clipPath18)" />
      <path
         id="path19"
         d="m 6385.5,6636.75 c -92.59,-135.23 -181.16,-268.66 -265.06,-398.04 l 1215.8,-746.03 c 74.09,153.41 145.43,303.98 214.01,450.4 L 6385.5,6636.75"
         style="fill-opacity:1;fill-rule:nonzero;stroke:none"
         transform="matrix(0.13333333,0,0,-0.13333333,0,1436.2267)"
         clip-path="url(#clipPath20)" />
      <path
         id="path21"
         d="m 6385.5,6636.75 c -92.59,-135.23 -181.16,-268.66 -265.06,-398.04 l 1215.8,-746.03 c 74.09,153.41 145.43,303.98 214.01,450.4 L 6385.5,6636.75"
         style="fill-opacity:1;fill-rule:nonzero;stroke:none"
         transform="matrix(0.13333333,0,0,-0.13333333,0,1436.2267)"
         clip-path="url(#clipPath22)" />
      <path
         id="path23"
         d="m 6385.5,6636.75 c -92.59,-135.23 -181.16,-268.66 -265.06,-398.04 l 1215.8,-746.03 c 74.09,153.41 145.43,303.98 214.01,450.4 L 6385.5,6636.75"
         style="fill-opacity:1;fill-rule:nonzero;stroke:none"
         transform="matrix(0.13333333,0,0,-0.13333333,0,1436.2267)"
         clip-path="url(#clipPath24)" />
      <path
         id="path25"
         d="m 6385.5,6636.75 c -92.59,-135.23 -181.16,-268.66 -265.06,-398.04 l 1215.8,-746.03 c 74.09,153.41 145.43,303.98 214.01,450.4 L 6385.5,6636.75"
         style="fill-opacity:1;fill-rule:nonzero;stroke:none"
         transform="matrix(0.13333333,0,0,-0.13333333,0,1436.2267)"
         clip-path="url(#clipPath26)" />
      <path
         id="path29"
         d="m 11132.8,9768.21 c 49.9,-89.91 65.1,-520.16 13.5,-664.17 58.5,0 92.5,173.22 92.5,347.91 0,174.68 -47.4,316.26 -106,316.26"
         style="fill:#0d0d0d;fill-opacity:1;fill-rule:nonzero;stroke:none"
         transform="matrix(0.13333333,0,0,-0.13333333,0,1436.2267)" />
      <path
         id="path4"
         d="M 6132.38,6257.13 C 5789.71,5730.05 4490.69,3178.4 3661.29,4947.8 c -120.66,256.32 -244.22,557.57 -244.22,557.57 L 667.016,4600.81 c 0,0 229.593,-3523.56 2330.754,-3541.97 1964.12,-17.23 3396.76,2478 4358.13,4474.67 l -1223.52,723.62"
         style="fill-opacity:1;fill-rule:nonzero;stroke:none;fill:#4a3901"
         transform="matrix(0.13333333,0,0,-0.13333333,0,1436.2267)"
         clip-path="url(#clipPath5)" />
      <path
         id="path30"
         d="m 3417.13,5504.88 c 60.94,-180.91 -504.3,-534.79 -1262.56,-790.25 -758.27,-255.46 -1422.406,-315.85 -1483.382,-134.9 -60.977,180.95 504.312,534.81 1262.562,790.26 758.25,255.54 1422.4,315.9 1483.38,134.89"
         style="fill:#ddcbb9;fill-opacity:1;fill-rule:nonzero;stroke:none"
         transform="matrix(0.13333333,0,0,-0.13333333,0,1436.2267)" />
      <path
         id="path31"
         d="m 2930.65,5380.7 c 38.83,-90.5 -348.62,-318.24 -854.36,-488.63 -505.76,-170.41 -948.95,-221 -977.09,-128.46 -36.97,109.67 343.1,336.73 848.81,507.11 505.74,170.39 945.7,219.64 982.64,109.98"
         style="fill:#c49a6c;fill-opacity:1;fill-rule:nonzero;stroke:none"
         transform="matrix(0.13333333,0,0,-0.13333333,0,1436.2267)" />
      <path
         id="path32"
         d="m 2942.17,5355.59 c 38.84,-90.51 -348.62,-318.27 -854.36,-488.64 -505.76,-170.44 -948.94,-221 -977.09,-128.45 -36.95,109.68 343.1,336.71 848.82,507.09 505.74,170.42 945.71,219.66 982.63,110"
         style="fill-opacity:1;fill-rule:nonzero;stroke:none"
         transform="matrix(0.13333333,0,0,-0.13333333,0,1436.2267)"
         clip-path="url(#clipPath33)" />
      <path
         id="path34"
         d="M 3417.13,5504.88 C 3356.15,5685.89 2692,5625.53 1933.75,5369.99 1175.5,5114.54 610.211,4760.68 671.188,4579.73 c 46.875,-152.58 715.862,-90.12 1474.132,165.36 758.26,255.45 1334.75,610.12 1271.81,759.79 z M 2075.25,4895.06 c -497.71,-167.7 -933.88,-217.47 -961.58,-126.4 -36.37,107.91 337.66,331.35 835.35,499.07 497.73,167.66 930.71,216.16 967.07,108.22 38.21,-89.04 -343.11,-313.2 -840.84,-480.89"
         style="fill-opacity:1;fill-rule:nonzero;stroke:none"
         transform="matrix(0.13333333,0,0,-0.13333333,0,1436.2267)"
         clip-path="url(#clipPath35)" />
      <path
         id="path36"
         d="m 2305.91,4212.59 c 693.39,233.62 1237.19,543.35 1347.76,751.45 -118.18,252.65 -236.6,541.33 -236.6,541.33 l -0.14,-0.06 c 0.05,-0.13 0.14,-0.26 0.2,-0.43 60.94,-180.91 -504.3,-534.79 -1262.56,-790.25 -758.27,-255.46 -1422.406,-315.85 -1483.382,-134.9 -2.297,6.77 -3.411,13.9 -3.958,21.13 l -0.214,-0.05 c 0,0 15.418,-235.03 74.234,-583.61 169.297,-131 825.48,-53.67 1564.66,195.39"
         style="fill-opacity:1;fill-rule:nonzero;stroke:none"
         transform="matrix(0.13333333,0,0,-0.13333333,0,1436.2267)"
         clip-path="url(#clipPath37)" />
      <path
         id="path38"
         d="m 2305.91,4212.59 c 693.39,233.62 1237.19,543.35 1347.76,751.45 -118.18,252.65 -236.6,541.33 -236.6,541.33 l -0.14,-0.06 c 0.05,-0.13 0.14,-0.26 0.2,-0.43 60.94,-180.91 -504.3,-534.79 -1262.56,-790.25 -758.27,-255.46 -1422.406,-315.85 -1483.382,-134.9 -2.297,6.77 -3.411,13.9 -3.958,21.13 l -0.214,-0.05 c 0,0 15.418,-235.03 74.234,-583.61 169.297,-131 825.48,-53.67 1564.66,195.39"
         style="fill-opacity:1;fill-rule:nonzero;stroke:none"
         transform="matrix(0.13333333,0,0,-0.13333333,0,1436.2267)"
         clip-path="url(#clipPath39)" />
      <path
         id="path40"
         d="m 2305.91,4212.59 c 693.39,233.62 1237.19,543.35 1347.76,751.45 -118.18,252.65 -236.6,541.33 -236.6,541.33 l -0.14,-0.06 c 0.05,-0.13 0.14,-0.26 0.2,-0.43 60.94,-180.91 -504.3,-534.79 -1262.56,-790.25 -758.27,-255.46 -1422.406,-315.85 -1483.382,-134.9 -2.297,6.77 -3.411,13.9 -3.958,21.13 l -0.214,-0.05 c 0,0 15.418,-235.03 74.234,-583.61 169.297,-131 825.48,-53.67 1564.66,195.39"
         style="fill-opacity:1;fill-rule:nonzero;stroke:none"
         transform="matrix(0.13333333,0,0,-0.13333333,0,1436.2267)"
         clip-path="url(#clipPath41)" />
      <path
         id="path42"
         d="m 2305.91,4212.59 c 693.39,233.62 1237.19,543.35 1347.76,751.45 -118.18,252.65 -236.6,541.33 -236.6,541.33 l -0.14,-0.06 c 0.05,-0.13 0.14,-0.26 0.2,-0.43 60.94,-180.91 -504.3,-534.79 -1262.56,-790.25 -758.27,-255.46 -1422.406,-315.85 -1483.382,-134.9 -2.297,6.77 -3.411,13.9 -3.958,21.13 l -0.214,-0.05 c 0,0 15.418,-235.03 74.234,-583.61 169.297,-131 825.48,-53.67 1564.66,195.39"
         style="fill-opacity:1;fill-rule:nonzero;stroke:none"
         transform="matrix(0.13333333,0,0,-0.13333333,0,1436.2267)"
         clip-path="url(#clipPath43)" />
      <path
         id="path44"
         d="m 2305.91,4212.59 c 693.39,233.62 1237.19,543.35 1347.76,751.45 -118.18,252.65 -236.6,541.33 -236.6,541.33 l -0.14,-0.06 c 0.05,-0.13 0.14,-0.26 0.2,-0.43 60.94,-180.91 -504.3,-534.79 -1262.56,-790.25 -758.27,-255.46 -1422.406,-315.85 -1483.382,-134.9 -2.297,6.77 -3.411,13.9 -3.958,21.13 l -0.214,-0.05 c 0,0 15.418,-235.03 74.234,-583.61 169.297,-131 825.48,-53.67 1564.66,195.39"
         style="fill-opacity:1;fill-rule:nonzero;stroke:none"
         transform="matrix(0.13333333,0,0,-0.13333333,0,1436.2267)"
         clip-path="url(#clipPath45)" />
      <path
         id="path46"
         d="m 2305.91,4212.59 c 693.39,233.62 1237.19,543.35 1347.76,751.45 -118.18,252.65 -236.6,541.33 -236.6,541.33 l -0.14,-0.06 c 0.05,-0.13 0.14,-0.26 0.2,-0.43 60.94,-180.91 -504.3,-534.79 -1262.56,-790.25 -758.27,-255.46 -1422.406,-315.85 -1483.382,-134.9 -2.297,6.77 -3.411,13.9 -3.958,21.13 l -0.214,-0.05 c 0,0 15.418,-235.03 74.234,-583.61 169.297,-131 825.48,-53.67 1564.66,195.39"
         style="fill-opacity:1;fill-rule:nonzero;stroke:none;fill:url(#linearGradient51)"
         transform="matrix(0.13333333,0,0,-0.13333333,0,1436.2267)"
         clip-path="url(#clipPath47)" />
      <path
         id="path27"
         d="m 6385.5,6636.75 c -92.59,-135.23 -181.16,-268.66 -265.06,-398.04 l 1215.8,-746.03 c 74.09,153.41 145.43,303.98 214.01,450.4 L 6385.5,6636.75"
         style="fill-opacity:1;fill-rule:nonzero;stroke:none;fill:url(#linearGradient48)"
         transform="matrix(0.13333333,0,0,-0.13333333,0,1436.2267)"
         clip-path="url(#clipPath28)" />
      <path
         id="path8"
         d="M 3589.24,1749.41 C 1781.75,1763.86 1437.61,4272.77 1389.91,4729.8 L 938.461,4594.66 c 0,0 217.299,-3035.81 2205.949,-3051.68 467.93,-3.72 746.07,204.03 444.83,206.43"
         style="fill-opacity:1;fill-rule:nonzero;stroke:none;fill:url(#linearGradient53);filter:url(#filter54)"
         transform="matrix(0.13333333,0,0,-0.13333333,0,1436.2267)"
         clip-path="url(#clipPath9)" />
      <path
         id="path10"
         d="m 3417.07,5198.84 c 0,0 123.56,-301.25 244.22,-557.59 783,-1670.42 2210.13,783.48 2655.65,1506.72 l -184.56,109.16 C 5789.71,5730.05 4490.69,3178.4 3661.29,4947.8 c -120.66,256.32 -244.22,557.57 -244.22,557.57 v -306.53"
         style="fill-opacity:1;fill-rule:nonzero;stroke:none;fill:url(#linearGradient56);filter:url(#filter57)"
         transform="matrix(0.13333333,0,0,-0.13333333,0,1436.2267)"
         clip-path="url(#clipPath11)" />
    </g>
  </g>
</svg>
