<?xml version="1.0" encoding="UTF-8" standalone="no"?>
<svg
   xmlns:svg="http://www.w3.org/2000/svg"
   xmlns="http://www.w3.org/2000/svg"
   version="1.0"
   viewBox="0 0 265 541.5"
   id="svg2346"
   xml:space="preserve">
		<g id="Layer_1">
			<path
   d="M 245,143 L 245,118 L 218,118 L 218,143 L 144,143 L 144,51 L 179,51 L 179,22 L 144,22 L 144,0 L 121,0 L 121,22 L 86,22 L 86,51 L 121,51 L 121,143 L 50,143 L 50,118 L 23,118 L 23,143 L 0,143 L 0,170 L 23,170 L 23,195 L 50,195 L 50,170 L 121,170 L 121,501.815 C 121.003,501.815 121.006,501.815 121.009,501.815 C 121.1,508.073 122.072,541.614 132.5,541.501 C 142.932,541.388 143.9,507.64 143.99,501.362 C 143.994,501.362 143.997,501.362 144,501.362 L 144,170 L 218,170 L 218,195 L 245,195 L 245,170 L 265,170 L 265,143 L 245,143 z "
   id="path2351" />
		</g>
	</svg>