<svg xmlns="http://www.w3.org/2000/svg" width="100%" height="100%" viewBox="-100 -100 0 0" preserveAspectRatio="none">
  <title>Simple Man</title>
  <style type="text/css">
    path, circle, line{
      fill: none;
      stroke: black;
    }
    .body {
      fill: rgb(239, 196, 186);
    }
    #traincar line {
      stroke-width: 5px;
    }
  </style>
  <defs>
    <g id="man">
      <path
       id="shirt"
       d="M   0 -30
          l  10   0 l -1 -16 l 0  5 l  9  0 l -10 -20
          l -17   0
          l  -9  20 l  9   0 l 0 -5 l -1 16 l  10   0" />
      <path
       id="pants"
       d="M   0 -30
          l  10   0 l  1 20
          l -22   0
          l   1 -20 l 10  0
          M   0 -10
          l   0  -8"/>
      <circle class="body" cx="0" cy="-70" r="7.5"/>
      <circle class="body" cx="14" cy="-38" r="3.5"/>
      <circle class="body" cx="-14" cy="-38" r="3.5"/>
    </g>
    <g id="traincar">
      <line x1="-60" y1="-6" x2="60" y2="-6"/>
      <circle class="trainwheel" cx="-48" cy="1" r="6"/>
      <circle class="trainwheel" cx="-34" cy="1" r="6"/>
      <circle class="trainwheel" cx="48" cy="1" r="6"/>
      <circle class="trainwheel" cx="34" cy="1" r="6"/>
    </g>
    <g id="train">
      <use xlink:href="#traincar" transform="translate(0, 0)"/>
      <use xlink:href="#man" transform="translate(125, 0)"/>
      <use xlink:href="#traincar" transform="translate(125, 0)"/>
      <use xlink:href="#traincar" transform="translate(250, 0)"/>
    </g>
  </defs>

  <use xlink:href="#train" transform="translate(100, 100)">
    <animate
     attributeName="y" dur="2s" begin="click" restart="whenNotActive"
     values="0; -45; 0; 16; 0; -7; 0; 3; 0; -2; 0; 1; 0"/>
  </use>
  <path d="M 30, 0 q 28, 50 0, 100 q 40, -50 0, -100"
   style="stroke: none; fill: red;" stroke-width="5"/>
  <path d="M 420, 0 q -28, 50 0, 100 q -40, -50 0, -100"
   style="stroke: none; fill: red;" stroke-width="5">
    <animateMotion attributeName="y" dur="2s"/>
  </path>
  <g transform="translate(600, 300)">
    <g>
      <circle cx="60" cy="60" r="60"
       style="stroke: green;
              stroke-dasharray: 5 1;
              stroke-width: 7px;
              fill: green;
              fill-opacity: .5;"/>
      <circle cx="-60" cy="60" r="60"
       style="stroke: blue;
              stroke-dasharray: 5 1;
              stroke-width: 7px;
              fill: blue;
              fill-opacity: .5;"/>
      <circle cx="60" cy="-60" r="60"
       style="stroke: orange;
              stroke-dasharray: 5 1;
              stroke-width: 7px;
              fill: orange;
              fill-opacity: .5;"/>
      <circle cx="-60" cy="-60" r="60"
       style="stroke: red;
              stroke-dasharray: 5 1;
              stroke-width: 7px;
              fill: red;
              fill-opacity: .5;"/>
      <animateTransform dur="3s" begin="mouseover" end="mouseout"
       type="rotate" attributeName="transform" additive="sum"
       fill="freeze" restart="whenNotActive" accumulate="sum"
       from="0" to="360"/>
    </g>
    <text x="60" y="86"
     style="text-anchor: middle;
            font-size: 60pt;
            stroke: none;
            fill: white;
            fill-opacity: .75;">Go</text>
  </g>
</svg>
