<?xml version="1.0" encoding="UTF-8" standalone="no"?>
<svg
   viewBox="0 0 38.34 52.755676"
   version="1.1"
   sodipodi:docname="svg.svg"
   inkscape:version="1.3.2 (091e20ef0f, 2023-11-25)"
   id="svg1"
   xmlns:inkscape="http://www.inkscape.org/namespaces/inkscape"
   xmlns:sodipodi="http://sodipodi.sourceforge.net/DTD/sodipodi-0.dtd"
   xmlns="http://www.w3.org/2000/svg"
   xmlns:svg="http://www.w3.org/2000/svg">
  <sodipodi:namedview
     id="namedview16"
     pagecolor="#505050"
     bordercolor="#ffffff"
     borderopacity="1"
     inkscape:showpageshadow="0"
     inkscape:pageopacity="0"
     inkscape:pagecheckerboard="1"
     inkscape:deskcolor="#d1d1d1"
     inkscape:zoom="9.6521739"
     inkscape:cx="114.79279"
     inkscape:cy="26.263514"
     inkscape:window-width="3440"
     inkscape:window-height="1363"
     inkscape:window-x="0"
     inkscape:window-y="40"
     inkscape:window-maximized="1" />
  <defs
     id="defs8">
    <clipPath
       id="a">
      <path
         d="m 33.56,17.49 a 1.21,1.21 0 0 0 -1.38,-1 1.1,1.1 0 0 0 -0.65,0.33 l -6.24,6.23 -4.88,-9.32 a 1.2,1.2 0 0 0 -1.62,-0.51 1.39,1.39 0 0 0 -0.51,0.51 L 15.62,18.83 8.91,6.31 A 1.19,1.19 0 0 0 7.29,5.84 1.23,1.23 0 0 0 6.66,6.7 L 0.16,48.22 17.51,58 A 3.63,3.63 0 0 0 21,58 l 17.5,-9.74 z"
         style="fill:none"
         id="path1" />
    </clipPath>
    <linearGradient
       id="b"
       x1="7.6300001"
       y1="-231.98"
       x2="5.2399998"
       y2="-233.23"
       gradientTransform="translate(0,265.99)"
       gradientUnits="userSpaceOnUse">
      <stop
         offset="0"
         stop-color="#a52714"
         id="stop1" />
      <stop
         offset="0.4"
         stop-color="#a52714"
         stop-opacity="0.5"
         id="stop2" />
      <stop
         offset="0.8"
         stop-color="#a52714"
         stop-opacity="0"
         id="stop3" />
    </linearGradient>
    <linearGradient
       id="c"
       x1="17.809999"
       y1="-235.47"
       x2="16.74"
       y2="-236.53999"
       gradientTransform="translate(0,265.99)"
       gradientUnits="userSpaceOnUse">
      <stop
         offset="0"
         stop-color="#a52714"
         stop-opacity="0.8"
         id="stop4" />
      <stop
         offset="0.5"
         stop-color="#a52714"
         stop-opacity="0.21"
         id="stop5" />
      <stop
         offset="1"
         stop-color="#a52714"
         stop-opacity="0"
         id="stop6" />
    </linearGradient>
    <linearGradient
       id="d"
       x1="-620.53998"
       y1="-1271.77"
       x2="-605.54999"
       y2="-1286.77"
       gradientTransform="matrix(2.67,0,0,-2.67,1655.98,-3380.66)"
       gradientUnits="userSpaceOnUse">
      <stop
         offset="0"
         stop-color="#fff"
         stop-opacity="0.1"
         id="stop7" />
      <stop
         offset="1"
         stop-color="#fff"
         stop-opacity="0"
         id="stop8" />
    </linearGradient>
  </defs>
  <g
     clip-path="url(#a)"
     id="g15"
     transform="translate(-0.16,-5.6912621)">
    <path
       d="M 0.16,48.22 6.66,6.7 A 1.18,1.18 0 0 1 8,5.72 1.26,1.26 0 0 1 8.87,6.34 l 6.71,12.53 2.66,-5.1 a 1.2,1.2 0 0 1 1.62,-0.51 1.39,1.39 0 0 1 0.51,0.51 l 18.1,34.45 z"
       style="fill:#ffa000"
       id="path8" />
    <path
       d="M 22.33,6 -9.43,3.29 V 60.81 L 0.16,48.22 Z"
       style="opacity:0.12;isolation:isolate;fill:url(#b)"
       id="path9" />
    <path
       d="M 22.6,32.05 15.6,18.84 0.16,48.22 Z"
       style="fill:#f57c00"
       id="path10" />
    <path
       d="m 38.51,48.22 -5,-30.76 a 1.21,1.21 0 0 0 -1.38,-1 1.13,1.13 0 0 0 -0.65,0.33 L 0.16,48.22 17.51,58 A 3.63,3.63 0 0 0 21,58 Z"
       style="fill:#ffca28"
       id="path12" />
    <path
       d="m 33.56,17.49 a 1.21,1.21 0 0 0 -1.38,-1 1.1,1.1 0 0 0 -0.65,0.33 l -6.24,6.23 -4.88,-9.32 a 1.2,1.2 0 0 0 -1.62,-0.51 1.39,1.39 0 0 0 -0.51,0.51 L 15.62,18.83 8.91,6.31 A 1.19,1.19 0 0 0 7.29,5.84 1.23,1.23 0 0 0 6.66,6.7 l -6.5,41.52 v 0 0 l 0.18,0.09 25,-25 6.24,-6.23 a 1.18,1.18 0 0 1 1.7,0 1.07,1.07 0 0 1 0.33,0.66 l 4.92,30.46 h 0.06 z M 0.22,48.16 6.66,7 A 1.17,1.17 0 0 1 8,6 1.23,1.23 0 0 1 8.87,6.62 l 6.71,12.53 2.66,-5.1 a 1.19,1.19 0 0 1 1.62,-0.51 1.39,1.39 0 0 1 0.51,0.51 l 4.79,9.11 z"
       style="fill:#ffffff;fill-opacity:0.2"
       id="path13" />
    <path
       d="m 21,57.66 a 3.63,3.63 0 0 1 -3.5,0 L 0.19,48 v 0.27 L 17.51,58 A 3.63,3.63 0 0 0 21,58 l 17.5,-9.74 v -0.27 z"
       style="opacity:0.2;isolation:isolate;fill:#a52714"
       id="path14" />
    <path
       d="m 33.56,17.49 a 1.21,1.21 0 0 0 -1.38,-1 1.1,1.1 0 0 0 -0.65,0.33 l -6.24,6.23 -4.88,-9.32 a 1.2,1.2 0 0 0 -1.62,-0.51 1.39,1.39 0 0 0 -0.51,0.51 L 15.62,18.83 8.91,6.31 A 1.19,1.19 0 0 0 7.29,5.84 1.23,1.23 0 0 0 6.66,6.7 L 0.16,48.22 17.51,58 A 3.63,3.63 0 0 0 21,58 l 17.5,-9.74 z"
       style="fill:url(#d)"
       id="path15" />
  </g>
</svg>
