<?xml version="1.0" encoding="UTF-8" standalone="no"?>
<!-- Generator: Adobe Illustrator 16.0.0, SVG Export Plug-In . SVG Version: 6.00 Build 0)  -->

<svg
   version="1.1"
   viewBox="0 0 1094.772 887.34149"
   sodipodi:docname="svg.svg"
   inkscape:version="1.4 (e7c3feb100, 2024-10-09)"
   id="svg1798"
   xmlns:inkscape="http://www.inkscape.org/namespaces/inkscape"
   xmlns:sodipodi="http://sodipodi.sourceforge.net/DTD/sodipodi-0.dtd"
   xmlns="http://www.w3.org/2000/svg"
   xmlns:svg="http://www.w3.org/2000/svg">
  <defs
     id="defs283" />
  <sodipodi:namedview
     id="namedview281"
     pagecolor="#ffffff"
     bordercolor="#666666"
     borderopacity="1.0"
     inkscape:pageshadow="2"
     inkscape:pageopacity="0.0"
     inkscape:pagecheckerboard="0"
     showgrid="false"
     inkscape:zoom="0.91734694"
     inkscape:cx="542.86985"
     inkscape:cy="436.04004"
     inkscape:window-width="3440"
     inkscape:window-height="1361"
     inkscape:window-x="0"
     inkscape:window-y="282"
     inkscape:window-maximized="1"
     inkscape:showpageshadow="2"
     inkscape:deskcolor="#d1d1d1"
     inkscape:current-layer="svg1798" />
  <rect
     width="1094.772"
     height="887.34149"
     id="rect2"
     style="stroke:none;stroke-width:0.841454"
     x="-1.0900999"
     y="2.1802003" />
  <g
     id="g1262"
     style="stroke:none"
     transform="translate(-170.05561,-73.036708)">
    <path
       id="path4"
       style="fill:#ffffff;fill-opacity:1;stroke:#f9ff16;stroke-opacity:1"
       d="m 344.12417,134.82493 c -7.725,0.25 -15.77344,3.67422 -22.02344,8.57422 -16.69221,12.99698 -25.7187,30.47576 -30.27734,49.66992 -21.37452,0.87232 -42.68649,3.89145 -63.12305,9.73047 -5.4,1.5 -15.90039,6.50039 -13.90039,13.90039 2,7.3 13.6,6.69961 19,5.09961 17.27575,-4.94101 35.82375,-7.59193 54.75977,-8.26368 -1.84337,20.21228 -0.25657,41.20382 1.54101,60.16407 0.6,6.3 10.99961,6.29922 15.09961,5.19922 5.9,-1.5 11.29961,-5.7 10.59961,-12 -1.64772,-17.26815 -3.18794,-35.40112 -1.79883,-53.08985 13.00525,0.73572 26.00965,2.34231 38.75196,4.78125 0.47686,9.21356 0.64648,18.4494 0.64648,27.70899 0.1,15.4 0.10078,31.10039 -1.69922,46.40039 -1.5,13 24.60039,9.4 25.90039,-2 1.5,-12.8 1.49961,-25.79961 1.59961,-38.59961 0.0904,-9.08792 -0.0161,-18.17471 -0.33984,-27.24414 3.85646,1.11526 7.68247,2.27794 11.43945,3.54297 7.4,2.5 17.89922,-0.79922 23.19922,-6.19922 5.4,-5.3 3.10039,-11.20039 -3.59961,-13.40039 -10.63579,-3.58298 -21.51376,-6.47946 -32.53125,-8.77735 -0.23259,-2.6772 -0.48577,-5.35099 -0.76758,-8.02148 -1.7,-15.7 -3.80039,-33.10117 -12.40039,-46.70117 -4.95,-7.8 -12.35117,-10.72461 -20.07617,-10.47461 z m -7.0625,17.98828 c 0.0199,-0.007 0.20511,0.0211 0.44336,0.0762 -0.0418,-0.0114 -0.45079,-0.0737 -0.44336,-0.0762 z m 4.76367,0.0176 c -0.0129,0.007 -0.0179,0.009 -0.0312,0.0156 -0.0555,0.0137 -0.0699,0.0163 -0.12305,0.0293 0.0147,-0.009 0.0268,-0.0149 0.041,-0.0234 0.041,-0.008 0.0658,-0.0113 0.11328,-0.0215 z m -2.33789,1.80273 c 0.59831,0.76711 1.16305,1.60276 1.71289,2.4668 1.6,2.5 1.79883,3.2 3.29883,7.5 2.7,7.8 4.20039,15.99961 5.40039,24.09961 0.34075,2.32439 0.64862,4.65116 0.92969,6.97851 -9.5563,-1.18829 -19.15009,-2.027 -28.72852,-2.47851 -1.62047,-0.0777 -3.24918,-0.0984 -4.87304,-0.1543 0.50342,-2.06188 1.04498,-4.11505 1.67187,-6.14648 3.8,-12.2 10.20117,-23.8 20.20117,-32 0.0534,-0.0467 0.29647,-0.19813 0.38672,-0.26563 z" />
  </g>
  <g
     id="g14"
     transform="translate(-153.70411,-49.054505)"
     style="stroke:none">
    <path
       fill="#ffffff"
       stroke="#000000"
       stroke-miterlimit="10"
       d="m 418.6,66.6 c -8,4.2 -4.7,9.9 -1.2,15.6 4.3,7 9.2,13.7 14.1,20.3 10.5,14.2 21.2,28.6 33.2,41.6 6.4,6.9 14.3,12.6 21.2,19 7,6.6 17.2,16.3 13.6,26.9 -0.5,1.4 -1.7,2.6 -2.8,3.5 1.6,-1.4 -2.1,1.1 0.2,-0.1 -1.2,0.6 -2.4,1 -3.6,1.5 1.9,-0.7 -5.5,1.2 -4.4,1 -3.1,0.6 -6.2,0.9 -9.4,1.3 -11.1,1.2 -22.3,1 -33.4,2.5 -4.8,0.6 -10.8,2.6 -13.6,6.8 -3.3,4.9 2.8,7.7 7,7.6 23.6,-0.6 50.9,9.6 64.4,29.9 6,9 5.2,20 -0.5,28.9 -3.9,6 -9.7,10.7 -15.6,14.7 -3.2,2.2 -6.6,4.1 -10,5.9 -0.9,0.5 -2,0.9 -2.9,1.3 -0.9,0.4 -1.7,0.7 -2.6,1 1.3,-0.4 1.2,-0.4 -0.3,0 -3.6,1 2.6,-0.3 -0.8,0.1 3.6,-0.4 -1.7,-0.5 1.5,0 -0.6,-0.1 -0.8,-0.1 -1.7,-0.8 -3.1,-2.5 -4.4,-6.2 -5.5,-9.8 -4,-12.6 -4.6,-26.5 -6.4,-39.5 -5.6,-40.8 -10.2,-81.6 -16.8,-122.3 -0.3,-1.6 -0.5,-3.3 -0.8,-4.9 -1.5,-8.8 -27.2,-2.7 -25.6,6.8 6.8,40.6 11.4,81.5 17,122.3 1.9,14 2.9,28.4 6.5,42.1 2.3,9 6.9,16.9 16.2,19.6 12.9,3.8 27,-2.5 38.3,-8.3 13.8,-7.2 28.3,-17.6 35.8,-31.6 12.9,-24 -6.1,-45.2 -26.2,-56.7 -16,-9.2 -35.5,-13.9 -54,-13.4 -2.2,4.8 -4.5,9.6 -6.7,14.5 23.5,-3.1 50.8,0.4 71.3,-13.9 10,-6.9 15.1,-18 9.7,-29.5 -5.5,-11.5 -16.3,-19.9 -25.7,-28 -12.8,-11 -22.9,-24.4 -33.1,-37.6 -6.2,-8 -12.2,-16.1 -18,-24.4 -2.1,-3 -4.2,-6.1 -6.1,-9.2 -0.3,-0.5 -0.4,-0.6 -1.1,-2.1 -1.3,-2.7 0.2,-0.4 -1.3,1.4 -1.3,1.2 -2.6,2.4 -4,3.6 0,0 0.1,0 0.1,-0.1 3.7,-1.9 7.5,-7.5 2.2,-10.1 -5.8,-2.6 -13,-0.2 -18.2,2.6 z"
       id="path12"
       style="stroke:none" />
  </g>
  <g
     id="g18"
     style="stroke:none"
     transform="translate(-156.97441,-53.414906)">
    <path
       fill="#ffffff"
       stroke="#000000"
       stroke-miterlimit="10"
       d="m 615.8,201 c 3.3,-16.2 0.6,-33.4 -9.8,-46.5 -10.1,-12.8 -27.4,-12.9 -40.2,-4.2 -11.3,7.8 -17,21.8 -21,34.4 -5.1,16.2 -6.7,32.8 -4.5,49.7 3.2,25.3 20.5,68.4 53.3,54.7 21.7,-9.1 30.6,-37.1 39,-57 5.4,-12.6 -20.3,-10.9 -24.1,-1.8 -6.4,15 -12.2,32.9 -23.9,44.6 -1,0.9 -1.1,1 -0.3,0.3 -0.6,0.4 -1.1,0.8 -1.7,1.2 0.8,-0.6 1.7,-1 2.6,-1.2 3.2,-1.1 -0.7,-0.4 2.2,-0.2 1.6,0.1 0.2,-0.3 -1.3,-1.3 -1.6,-1.1 -2.9,-3.1 -4.1,-4.6 -7.9,-10.1 -12.5,-23.1 -15.1,-35.5 -4.7,-22.3 -0.7,-48.3 10.9,-68 0.8,-1.4 1.7,-2.7 2.8,-4 1,-1.2 3.2,-2.6 1.8,-1.9 -2,1 -6.9,-0.2 -4.2,1.3 2.2,1.3 3.9,3.5 5.4,5.5 8,10.1 8.8,24.7 6.4,36.9 -2.2,11.5 23.7,7.7 25.8,-2.4 z"
       id="path16"
       style="stroke:none" />
  </g>
  <g
     id="g1268"
     style="stroke:none"
     transform="translate(-156.97441,-53.414906)">
    <g
       id="g22"
       style="stroke:none">
      <path
         fill="#ffffff"
         stroke="#000000"
         stroke-miterlimit="10"
         d="m 626.4,124.2 c 7.9,14 16.8,27.4 26.5,40.3 9.9,13 20.9,26.1 34,36 9.6,7.2 21.2,11.9 31.6,17.8 4.6,2.6 9.3,5.4 13.3,9 1,0.9 3,3.2 3.3,3.6 0.2,0.5 0.3,1 0.5,1.5 0.3,1.2 0.3,-1.6 -0.1,0.4 0,0.1 0.4,-0.6 0.3,-0.5 -0.6,0.6 -2.3,1.7 0.4,-0.2 -0.6,0.4 -1.2,0.8 -1.8,1.1 3.5,-2.1 -1.2,0.5 -2.2,0.9 -0.7,0.3 -3.6,1.3 -0.1,0.1 -1.3,0.4 -2.5,0.8 -3.8,1.2 -4.3,1.3 -8.7,2.2 -13.1,3.1 3,-0.6 -1,0.2 -1.3,0.2 -1.2,0.2 -2.5,0.4 -3.7,0.6 -2.9,0.5 -5.9,0.9 -8.8,1.4 -17.4,2.5 -35.1,3.4 -52.4,6.4 -2.1,0.4 -4.1,0.7 -6.2,1.2 -4,1 -12.4,4.8 -10.9,10.4 1.5,5.6 10.7,4.6 14.6,3.5 3.3,-0.9 -3.5,0.6 -0.2,0 1.3,-0.2 2.7,-0.4 4,-0.6 3.9,-0.5 7.8,-0.9 11.7,-1.4 9.9,-1.1 19.9,-2.2 29.8,-3.5 19.8,-2.6 42,-5.1 59.5,-15.4 5.6,-3.3 11.9,-9.6 9.7,-16.7 -3.1,-9.8 -16.8,-16.1 -24.9,-20.7 -10.2,-5.7 -21.8,-10.3 -30.7,-18 -12.8,-11.2 -23.7,-24.7 -33.6,-38.4 -7.8,-10.7 -15,-22 -21.5,-33.5 -4.7,-7.9 -29.5,0.3 -23.9,10.2 z"
         id="path20"
         style="stroke:none" />
    </g>
    <g
       id="g26"
       style="stroke:none">
      <path
         fill="#ffffff"
         stroke="#000000"
         stroke-miterlimit="10"
         d="m 639.3,146.5 c 16.4,40.5 17.5,83.3 16.3,126.3 -0.3,12.2 25.5,7.6 25.7,-2.5 1.2,-44.4 0.4,-88.9 -16.5,-130.7 -4.2,-10.3 -29.5,-2.9 -25.5,6.9 z"
         id="path24"
         style="stroke:none" />
    </g>
  </g>
  <g
     id="g30"
     style="stroke:none"
     transform="translate(-156.97441,-53.414906)">
    <path
       fill="#ffffff"
       stroke="#000000"
       stroke-miterlimit="10"
       d="m 851.6,204 c 2.1,-30.5 -24.1,-74.2 -59,-66.1 -18.3,4.2 -36.1,22.4 -28.8,42 6,16.1 22.5,28.1 36.7,36.7 5.8,-5.2 11.5,-10.5 17.3,-15.7 -17.7,-7.3 -38.9,-2.5 -48.1,15.2 -7.7,14.7 -3,33.8 6.9,46.2 10.6,13.3 28.8,17.7 44.7,12.7 17.5,-5.6 28.8,-20.3 31.4,-38.2 1.9,-12.7 -24.2,-9.2 -25.9,2.1 -0.7,4.7 -1.9,9.6 -4.6,13.5 -3.1,4.4 -3.9,4.7 -7.7,6.4 1.4,-0.5 1.4,-0.6 -0.1,-0.1 -3.7,1 2.5,-0.2 -1.2,0.1 -1,0.1 -1.8,-0.1 -3.3,-0.5 -3.7,-1.1 -7.1,-3.8 -9.9,-7 -6.8,-7.9 -9.4,-18.5 -7.3,-28.7 0.3,-1.7 1.1,-3.2 1.9,-4.8 0.8,-1.6 1.7,-2.1 2.6,-2.7 -0.5,0.5 -1.1,0.8 -1.8,0.9 3.4,-1.2 -2.2,0 1.6,-0.2 -1.4,0.1 0.5,0.2 1.1,0.3 1.7,0.4 3.3,1.1 4.9,1.8 5,2.1 11.7,0.2 15.8,-2.8 4.1,-3 7,-9.6 1.5,-12.9 -10.9,-6.6 -21.4,-14.4 -28.6,-25 -3,-4.4 -4.3,-9.2 -3.2,-14.4 0.5,-2 2.8,-4.2 4.2,-5.5 -0.2,0.1 3.7,-2.5 1.9,-1.5 0.9,-0.5 1.6,-0.7 0.3,-0.5 0.4,-0.1 4,0 1.3,-0.1 3.3,0.2 -1.7,-0.6 1.6,0.3 2.3,0.7 3.7,1.6 6.1,3.3 4.9,3.5 8.6,8.7 11.8,13.7 6.1,9.5 10.9,22.1 10.2,33.4 -1,13.2 24.9,9.4 25.7,-1.9 z"
       id="path28"
       style="stroke:none" />
  </g>
  <g
     id="g1274"
     style="stroke:none"
     transform="translate(-156.97441,-53.414906)">
    <path
       id="path36"
       style="stroke:none;fill:#ffffff;fill-opacity:1"
       d="M 912.84355 138.52428 C 902.75084 138.43632 892.61543 144.20006 886.4998 153.70006 C 876.5998 169.00006 874.19941 191.29928 873.59941 208.89928 C 873.46584 212.34546 873.48635 215.79993 873.62871 219.25084 C 871.61886 219.53708 869.61288 219.82637 867.59941 220.10045 C 862.59941 220.80045 856.69941 222.80045 854.09941 227.60045 C 851.29941 232.90045 856.49941 237.29967 861.59941 237.29967 L 870.40019 237.29967 C 872.03692 237.29967 873.76651 237.17986 875.48418 236.89733 C 876.07274 240.42121 876.77237 243.92572 877.59941 247.39928 C 880.19941 258.39928 886.00058 269.00084 886.30058 280.50084 C 886.50058 292.70084 912.20019 287.99928 911.90019 277.89928 C 911.60019 268.19928 909.00019 259.60084 905.90019 250.50084 C 903.97463 244.78432 902.49086 238.92019 901.36894 232.97936 C 906.1519 232.81975 910.95617 232.93754 915.80058 233.50084 C 921.70058 234.20084 929.5998 231.40084 932.4998 226.00084 C 935.4998 220.40084 929.8998 216.89967 924.9998 216.29967 C 916.32103 215.27075 907.74228 215.40772 899.20097 216.10045 C 898.19546 199.49677 900.69383 182.20615 905.59941 166.39928 C 906.4162 163.78556 907.47956 161.00463 908.78691 158.48717 C 910.06728 159.89091 911.19683 161.44434 912.30058 162.89928 C 923.10058 177.09928 922.70058 196.20084 930.30058 212.00084 C 932.90058 217.60084 939.80097 217.79928 945.20097 216.39928 C 948.80097 215.39928 958.50019 210.70006 955.90019 205.20006 C 951.40019 195.70006 949.50058 185.39928 946.80058 175.39928 C 944.00058 165.09928 939.30097 155.60045 932.20097 147.60045 C 926.63535 141.38483 919.74909 138.58446 912.84355 138.52428 z " />
  </g>
  <g
     id="g42"
     style="stroke:none"
     transform="translate(-156.97441,-53.414906)">
    <path
       fill="#ffffff"
       stroke="#000000"
       stroke-miterlimit="10"
       d="m 1107,156.6 c -12.6,-24.6 -46.9,-19.5 -68.7,-12.1 2.3,-0.8 -9.2,3 -2.9,1 -2.1,0.7 -4.2,1.4 -6.2,2.2 -3.3,1.3 -6.4,3.1 -9.5,4.8 -6.3,3.5 -12.1,8.3 -17.4,13.1 -10.8,9.9 -19.9,22 -26.8,34.8 -11.3,20.9 -18.1,50.8 2,69 19.2,17.3 49.7,13.1 71.9,5 26.7,-9.8 63.9,-44.7 42.5,-74.5 -11.3,-15.8 -33.4,-12.8 -49.2,-7.3 -14.6,5.1 -27.9,15.7 -38.8,26.4 -4.4,4.4 -3.3,9.5 2.9,11 6.7,1.5 15.7,-0.6 20.7,-5.5 8.4,-8.3 17.2,-15.2 27,-19 -3.3,1.3 3,-0.6 -0.7,0.1 0.2,0 4.7,-0.3 1.9,-0.3 1.5,0 2,0.2 4.4,1.5 5.5,3 9,10.8 8.9,16.8 -0.1,7.2 -3.6,13.6 -7.6,19.4 -1.9,2.8 -4.1,5.2 -6.5,7.6 -1.2,1.2 -2.5,2.3 -3.8,3.4 -0.6,0.5 -1.2,1 -1.8,1.5 1,-0.8 1,-0.8 -0.3,0.1 -1,0.7 -2.1,1.4 -3.1,2 -0.3,0.2 -4,2.2 -1.1,0.7 -2.3,1.2 -4.7,2.2 -7.1,3.1 3.4,-1.3 -0.6,0.2 -1.2,0.3 -1.3,0.4 -2.5,0.7 -3.8,1 -0.5,0.1 -4.8,0.9 -1.2,0.3 -1.7,0.3 -3.4,0.5 -5.2,0.7 -4.2,0.4 2.8,0 -1.4,0.1 -1.3,0 -2.5,0 -3.8,-0.1 -0.1,0 -4.2,-0.4 -1.7,-0.1 -1.2,-0.2 -2.4,-0.4 -3.6,-0.7 -3.7,-0.8 -7.7,-2.5 -11.2,-5.4 -8.2,-6.8 -11.3,-18.2 -10.6,-28.5 1.8,-24.8 20.7,-51.6 40.3,-65 1.2,-0.8 2.5,-1.6 3.7,-2.3 3.9,-2.3 -2.3,1 1.7,-0.8 0.5,-0.2 4.6,-1.7 1.1,-0.5 -1.9,0.6 9.3,-3.2 2.6,-0.9 2.1,-0.7 4.3,-1.3 6.4,-1.9 1.2,-0.3 2.5,-0.6 3.7,-0.9 4.3,-1 -3.1,0.5 1.3,-0.2 1.4,-0.2 2.7,-0.4 4.1,-0.5 0.1,0 4.7,-0.3 1.9,-0.2 2.8,-0.1 5,0.2 6.2,0.5 4.2,0.8 8.5,3.6 10.7,8.1 5.4,10.5 33.9,1.2 29.3,-7.8 z"
       id="path40"
       style="stroke:none" />
  </g>
  <g
     id="g1282"
     style="stroke:none"
     transform="translate(-156.97441,-53.414906)">
    <g
       id="g46"
       style="stroke:none">
      <path
         fill="#ffffff"
         stroke="#000000"
         stroke-miterlimit="10"
         d="m 316.6,325.4 c -2.4,9.8 2.2,20.5 5.2,29.6 3.9,11.7 8.1,23.4 11.6,35.3 4.2,14.4 5.1,29.8 5.6,44.7 0.7,20.9 -1.2,41.8 -6.4,62.1 -2.3,8.8 2.7,18.3 10.8,22.3 7.2,3.6 17.3,1.6 19.5,-7.2 5.3,-20.7 7.8,-42 7.8,-63.4 0,-18 -0.9,-37.3 -5.2,-54.8 -2.8,-11.5 -7,-22.8 -10.8,-34 -1.8,-5.5 -3.7,-10.9 -5.3,-16.5 -0.6,-2 -1.2,-4.1 -1.7,-6.2 -0.2,-0.9 -0.4,-1.7 -0.5,-2.6 0.3,3.3 0.4,4.3 0.3,2.8 0.1,-1.5 -0.1,-0.5 -0.5,3 2.2,-8.9 -2.7,-18.2 -10.8,-22.3 -7.2,-3.5 -17.4,-1.6 -19.6,7.2 z"
         id="path44"
         style="stroke:none" />
    </g>
    <g
       id="g50"
       style="stroke:none">
      <path
         fill="#ffffff"
         stroke="#000000"
         stroke-miterlimit="10"
         d="m 402.1,338.6 c -6.5,22.6 -3.9,47.6 -1.3,70.6 2.9,25 7.6,49.8 11.9,74.6 1.9,10.6 36.5,9.9 35.3,2.8 -4.3,-24.8 -9,-49.5 -11.9,-74.6 -2.7,-22.9 -5.2,-48.1 1.3,-70.6 2.1,-7.2 -32.4,-12.9 -35.3,-2.8 z"
         id="path48"
         style="stroke:none" />
    </g>
    <g
       id="g54"
       style="stroke:none">
      <path
         fill="#ffffff"
         stroke="#000000"
         stroke-miterlimit="10"
         d="m 351.2,404.2 c 31.9,0 63.7,0 95.6,0 5.2,0 20.7,-1.2 20.7,-9.3 0,-8.1 -15.4,-9.4 -20.6,-9.4 -31.9,0 -63.7,0 -95.6,0 -5.2,0 -20.7,1.2 -20.7,9.3 0,8.2 15.4,9.4 20.6,9.4 z"
         id="path52"
         style="stroke:none" />
    </g>
  </g>
  <g
     id="g66"
     style="stroke:none"
     transform="translate(-156.97441,-53.414906)">
    <path
       fill="#ffffff"
       stroke="#000000"
       stroke-miterlimit="10"
       d="m 489.7,441.4 c -5.9,0.1 -12.3,0.7 -17.4,3.9 -4,2.5 -0.8,5.3 2.4,6.4 6.3,2.2 14.7,2.3 20.9,-0.2 17,-6.7 34.7,-11.2 52.5,-15.7 2.9,-0.7 11,-3.9 5.2,-7.3 -5.5,-3.3 -14.2,-3.2 -20.2,-1.7 -19.7,4.9 -39.5,9.9 -58.4,17.4 7.7,2.1 15.5,4.2 23.2,6.3 -2.7,0.5 -5.3,1 -8,1.6 2.9,-0.1 14.7,-0.4 14.7,-5.5 -0.1,-5 -11.9,-5.3 -14.9,-5.2 z"
       id="path64"
       style="stroke:none" />
  </g>
  <g
     id="g1296"
     style="stroke:none"
     transform="translate(-156.97441,-53.414906)">
    <g
       id="g70"
       style="stroke:none">
      <path
         fill="#ffffff"
         stroke="#000000"
         stroke-miterlimit="10"
         d="m 572.7,334.4 c 0.6,-0.5 1.1,-0.9 1.7,-1.3 -2.8,2.1 0.4,-0.1 1,-0.4 1.1,-0.6 2.3,-1.1 3.5,-1.6 -3.2,1.3 1.2,-0.3 1.5,-0.4 2.8,-0.8 5.8,-1.4 8.7,-1.9 -2.8,0.5 2.3,-0.2 2.3,-0.2 1.6,-0.2 3.2,-0.2 4.8,-0.3 11.1,-0.6 21.1,0.6 30.7,6.3 13.1,7.9 32,-11.8 16.1,-21.3 -13.1,-7.8 -29.9,-9.5 -44.8,-9 -15.5,0.5 -32.5,4.2 -44.9,14 -5.3,4.2 -6.8,12.3 -1.1,16.9 5.8,4.9 14.8,3.7 20.5,-0.8 z"
         id="path68"
         style="stroke:none" />
    </g>
    <g
       id="g74"
       style="stroke:none">
      <path
         fill="#ffffff"
         stroke="#000000"
         stroke-miterlimit="10"
         d="m 574.7,329.5 c 8.6,14.8 12.5,33.9 15.2,51.6 2.8,18.8 3.5,38 3.4,57 -0.1,16.6 -0.4,34.1 -7.9,49 -0.9,1.7 -3.9,5 -5.1,6 -1.4,0.9 -1.6,1.1 -0.7,0.6 -1,0.6 -2.1,1.2 -3.1,1.7 -1.8,0.6 -2,0.8 -0.8,0.5 -3.9,1.1 2.4,0.3 -1.3,0.1 1.5,0.1 4.8,2.2 3,0.7 0.8,1.1 0.8,1.1 -0.1,-0.2 -1.9,-2.7 0.3,1.6 -0.9,-1.7 -1.5,-4 -1.4,-7.5 -0.9,-12.1 -5.1,3.8 -10.2,7.6 -15.3,11.4 -5.6,-0.4 -8,-4.4 -4.4,-0.5 10.7,11.5 34.4,-2.5 21.6,-16.1 -4.5,-4.9 -9.4,-7.1 -16.2,-7.6 -7.1,-0.5 -14.5,3.9 -15.3,11.4 -1.2,11.6 1.4,24.3 10.7,32.2 11.1,9.4 26.4,7.7 38.3,1 21.9,-12.5 26,-38 27.6,-61.1 1.6,-22.7 0,-46.2 -2.7,-68.8 -2.7,-22.8 -7.4,-46.1 -19,-66.2 -7.8,-13.2 -35,-4.3 -26.1,11.1 z"
         id="path72"
         style="stroke:none" />
    </g>
  </g>
  <g
     id="g1290"
     style="stroke:none"
     transform="translate(-156.97441,-53.414906)">
    <g
       id="g58"
       style="stroke:none">
      <path
         fill="#ffffff"
         stroke="#000000"
         stroke-miterlimit="10"
         d="m 481.2,352.7 c 5.2,13.9 4.5,29.9 4.7,44.5 0.3,16.6 0.2,33.7 4.7,49.9 0.2,0.8 27.7,-8.8 26.7,-12.6 -4.5,-16.1 -4.4,-33.2 -4.7,-49.9 -0.2,-14.6 0.4,-30.6 -4.7,-44.5 -0.6,-1.5 -27.8,9.6 -26.7,12.6 z"
         id="path56"
         style="stroke:none" />
    </g>
    <g
       id="g62"
       style="stroke:none">
      <path
         fill="#ffffff"
         stroke="#000000"
         stroke-miterlimit="10"
         d="m 464.3,338.6 c -2.4,1.2 -4.7,2.4 -7.1,3.5 -7,3.5 7,26.9 14,25.4 22.7,-4.7 45.7,-8.2 68.4,-13 9.3,-1.9 -4.5,-27.4 -12.3,-25.8 -22.7,4.7 -45.7,8.2 -68.4,13 4.7,8.5 9.3,17 14,25.4 2.4,-1.2 4.7,-2.4 7.1,-3.5 6.9,-3.5 -7.7,-29 -15.7,-25 z"
         id="path60"
         style="stroke:none" />
    </g>
    <g
       id="g78"
       style="stroke:none">
      <path
         fill="#ffffff"
         stroke="#000000"
         stroke-miterlimit="10"
         d="m 474.9,448.6 c -2.7,6.4 1.7,12.4 8.3,12.9 7.4,0.6 14,-2 20.8,-4.6 1.1,-0.4 2.1,-0.8 3.2,-1.2 3.3,-1.2 -3.2,1 -0.5,0.2 4.9,-1.4 9.8,-3.3 14.7,-4.9 9.8,-3 19.5,-6 29.1,-9.4 5.4,-1.9 12.1,-9 9.3,-15.2 -3.1,-6.8 -12.2,-4.9 -17.6,-3 -11.3,4 -23,7 -34.3,10.9 -8.2,2.8 1.8,-0.7 -7.2,2.5 -1.7,0.6 -3.3,1.2 -4.9,1.9 -0.8,0.3 -1.5,0.6 -2.3,0.8 1.8,-0.6 2,-0.7 0.4,-0.2 -0.7,0.2 -1.4,0.4 -2,0.6 5.3,-1.4 8.3,12.1 10.4,7.2 2.8,-6.7 -5.2,-10.5 -10.5,-10.3 -7.4,0.5 -14,5 -16.9,11.8 z"
         id="path76"
         style="stroke:none" />
    </g>
  </g>
  <g
     id="g1304"
     style="stroke:none"
     transform="translate(-156.97441,-53.414906)">
    <g
       id="g82"
       style="stroke:none">
      <path
         fill="#ffffff"
         stroke="#000000"
         stroke-miterlimit="10"
         d="m 676.6,355.1 c 0.1,-5.1 3.8,-18.9 11.1,-17.7 -7.1,-4.2 -14.2,-8.4 -21.3,-12.6 0.5,4.9 -1.8,8.2 -4.5,12.1 -3.1,4.5 -4.5,9.6 -5.8,14.8 -2.8,11 -2.7,22.5 -2.7,33.8 -0.1,23.1 0.1,47.1 12.7,67.3 3.3,5.3 11.7,8.7 17.4,10.3 2.8,0.8 10.9,2 7.5,-3.3 -11.7,-18.7 -11,-42.8 -11,-64 0,-11.1 0.3,-21.9 3,-32.8 1.3,-5.2 3.1,-9.8 6.2,-14.3 3,-4.4 4.3,-8.2 3.7,-13.5 -0.3,-3.1 -5.7,-6.1 -7.8,-7.4 -4.1,-2.5 -8.7,-4.5 -13.4,-5.2 -14.5,-2.3 -21.5,9.3 -21.9,22.4 -0.1,4.8 11.6,9.6 14.9,10.9 2.6,0.7 11.7,4.3 11.9,-0.8 z"
         id="path80"
         style="stroke:none" />
    </g>
    <g
       id="g86"
       style="stroke:none">
      <path
         fill="#ffffff"
         stroke="#000000"
         stroke-miterlimit="10"
         d="m 687.8,398.2 c 15.7,-11.7 27.8,-27.9 41,-42.2 12.7,-13.8 27.4,-29 46.3,-33.3 -7,-6.7 -14,-13.3 -21,-20 0.9,16.5 -5.6,32.1 -7.1,48.4 -0.4,4.6 8.4,11.8 11.3,14.4 0.8,0.7 9.6,8.5 9.9,4.7 1.5,-16.3 8,-31.9 7.1,-48.4 -0.2,-4.1 -5.9,-9.1 -8.5,-11.7 -2.5,-2.5 -8.4,-9.3 -12.5,-8.3 -18.9,4.4 -33.6,19.6 -46.3,33.3 -13.3,14.3 -25.3,30.5 -41,42.2 -2.6,1.9 16.3,24.2 20.8,20.9 z"
         id="path84"
         style="stroke:none" />
    </g>
    <g
       id="g90"
       style="stroke:none">
      <path
         fill="#ffffff"
         stroke="#000000"
         stroke-miterlimit="10"
         d="m 671.1,389 c 24.2,32.5 44.7,69.1 76.8,94.6 4.6,3.7 14,6.4 19.1,2.1 5.5,-4.7 -0.5,-11.6 -4.4,-14.7 -27.5,-21.8 -46,-56.4 -67.1,-84.7 -4.3,-5.7 -11.4,-9.9 -18.8,-9.1 -6,0.8 -9.6,6.6 -5.6,11.8 z"
         id="path88"
         style="stroke:none" />
    </g>
  </g>
  <g
     id="g94"
     style="stroke:none"
     transform="translate(-156.97441,-53.414906)">
    <path
       fill="#ffffff"
       stroke="#000000"
       stroke-miterlimit="10"
       d="m 781.8,314.2 c 0,10.1 3.3,17.7 13,22.1 7.4,3.4 18.4,1.9 21.8,-6.5 3.4,-8.3 3.1,-14.7 -2.4,-22 -7.9,-10.4 -29.8,-6.9 -27.2,8.4 3.5,20.2 6.6,40.6 5.4,61.2 -1.2,21.3 -9.1,41.1 -21.4,58.4 -7.5,10.6 6.3,19.9 16.2,17.6 27.8,-6.5 56.2,-4.4 84.6,-4.4 6.8,0 14.7,-3.7 15,-11.4 0.9,-20.5 -16.9,-36.8 -22.9,-55 -4.7,-14.2 -33.7,-10.1 -28.6,5.5 3,9.3 8.4,17.8 13.2,26.3 2.2,3.8 4.3,7.6 6,11.6 2,4.5 2.9,7.1 2.7,10.9 5,-3.8 10,-7.6 15,-11.4 -30.9,-0.1 -62.1,-2 -92.4,5 5.4,5.9 10.8,11.8 16.2,17.6 14.3,-20 23.1,-42.2 25.5,-66.7 2.3,-23.7 -2,-47.7 -6.1,-71 -9.1,2.8 -18.1,5.6 -27.2,8.4 1.7,2.3 1.8,4.9 1.4,0.5 0.4,-1.3 0.3,-1.2 -0.2,0.3 -0.4,1 -0.8,2 -1.2,3 7.3,-2.2 14.6,-4.3 21.8,-6.5 -3.7,-1.7 0.7,0.6 1.3,2.1 0,1.2 0,1 -0.1,-0.6 0,-1 0,-2 0,-3 0.1,-15.3 -29.4,-15.9 -29.4,-0.4 z"
       id="path92"
       style="stroke:none" />
  </g>
  <g
     id="g1310"
     style="stroke:none"
     transform="translate(-156.97441,-53.414906)">
    <g
       id="g98"
       style="stroke:none">
      <path
         fill="#ffffff"
         stroke="#000000"
         stroke-miterlimit="10"
         d="m 892.7,309.9 c 1.3,39 2.7,79.5 15.3,116.8 2.5,7.5 30.6,3 29.5,-0.1 -12.6,-37.3 -14.1,-77.8 -15.3,-116.8 -0.2,-6.1 -29.6,-5.6 -29.5,0.1 z"
         id="path96"
         style="stroke:none" />
    </g>
    <g
       id="g102"
       style="stroke:none">
      <path
         fill="#ffffff"
         stroke="#000000"
         stroke-miterlimit="10"
         d="m 895.7,312.8 c 19.1,18.3 26.1,45.7 42.5,66.1 2.8,3.5 9.4,4.6 13.4,5.4 2.7,0.5 13.6,3 15.2,-0.9 5,-11.9 10.8,-23.6 16.8,-35 6.9,-13.3 14.2,-28.4 25.2,-38.8 0.8,-0.8 1.8,-1.5 2.7,-2.2 0.6,-0.4 3.2,-1.4 1.3,-0.8 0.1,0 0.3,-0.1 0.4,-0.1 -7.4,1.1 -14.7,-0.3 -21.8,-4.3 1.2,0.7 -1.1,-1.2 -0.1,-0.1 0.7,0.8 1.1,1.7 1.5,2.7 1.2,2.9 1.4,6.4 1.6,9.5 0.6,8.3 -0.2,16.7 -1.2,24.9 -4.1,33.4 -16.4,66.3 -8.2,100.1 1.1,4.4 10.2,5.8 13.8,6.5 0.9,0.2 16,2.3 15.2,-0.9 -8.4,-34.4 4.3,-68.2 8.4,-102.2 1.3,-11 2.4,-23.2 -1.2,-33.9 -3.4,-10.1 -20.3,-11.4 -28.8,-11.2 -13.1,0.2 -21.5,17 -27.3,26.6 -8.6,14.2 -16,29.2 -23,44.3 -1.5,3.1 -2.9,6.3 -4.2,9.5 9.5,1.5 19.1,3 28.6,4.5 -16.4,-20.4 -23.4,-47.8 -42.5,-66.1 -4.3,-4.1 -11.6,-5.3 -17.3,-6 -0.5,-0.2 -14.2,-0.6 -11,2.4 z"
         id="path100"
         style="stroke:none" />
    </g>
  </g>
  <g
     id="g106"
     style="stroke:none"
     transform="translate(-156.97441,-53.414906)">
    <path
       fill="#ffffff"
       stroke="#000000"
       stroke-miterlimit="10"
       d="m 346.1,662.9 c -5,-35.9 -30.1,-66 -31.6,-102.6 -9.3,0.6 -18.5,1.2 -27.8,1.8 14,20.1 26.4,41.4 41.4,60.8 13.8,17.9 32,39.1 56.2,40.9 9.2,0.7 18.6,-1.4 24.6,-8.9 3.6,-4.5 4.6,-10.9 4.8,-16.5 0.6,-16.2 -4.1,-33 -8.8,-48.4 -3.7,-12.4 -8.2,-24.5 -13.1,-36.5 -1.4,-3.4 -2.9,-6.8 -4.5,-10.1 -4,-8.1 -13,-12.3 -22.2,-9.5 -5.1,1.6 -10.9,6 -6.5,11.7 4.2,5.3 13.5,7.1 19.8,5.2 0,0 0,0 0,0 -4.9,-0.5 -9.9,-1 -14.8,-1.5 -6,-2.8 -5.9,-5.3 -4.7,-3.4 0.4,0.7 1,1.9 -0.9,-1.6 0.3,0.5 0.6,1.1 0.8,1.6 0.9,1.9 1.8,3.9 2.6,5.9 2.6,6 5,12.2 7.3,18.3 5.8,15.8 11,32 14.1,48.6 1.2,6.5 2,12 1.3,19.7 -0.1,1.4 -0.3,2.7 -0.6,4 -0.7,3.1 0.3,-0.3 -0.5,1.7 -0.4,1 -1,1.9 -1.6,2.8 1.7,-2.3 0.9,-1.1 0.3,-0.5 -2,1.9 2,-1 0.4,-0.1 -0.9,0.5 -2.8,0.9 1.2,-0.3 -1.1,0.3 -3.2,0.4 1.4,-0.1 -3.2,0.4 4,0.5 -0.6,-0.1 4.8,0.7 2,0.4 0.9,0.1 -0.9,-0.2 -3.3,-1.4 0,0.1 -1,-0.4 -2,-1 -3,-1.5 2.3,1.2 -1.8,-1.2 -2.2,-1.5 -9.6,-6.7 -17.1,-15.9 -24.4,-25.1 -15.6,-19.7 -28.1,-41.5 -42.4,-62.1 -3.3,-4.7 -10.9,-6.1 -16.2,-5.8 -3.7,0.2 -11.8,2.3 -11.6,7.5 0.8,19.1 6.7,36.7 14.2,54.1 7.4,17.3 15.4,34.5 18,53.3 0.9,6.6 12.6,8.4 17.4,8 5.8,-0.5 12.2,-3.3 11.3,-10 z"
       id="path104"
       style="stroke:none" />
  </g>
  <g
     id="g110"
     style="stroke:none"
     transform="translate(-156.97441,-53.414906)">
    <path
       fill="#ffffff"
       stroke="#000000"
       stroke-miterlimit="10"
       d="m 449.4,544.1 c -20.8,6.9 -29.2,27.4 -28.6,48.1 0.7,24.2 12.4,48.7 32.2,63 9.4,6.8 22.5,11.3 33.7,6.6 10.7,-4.5 17.4,-14.7 21.9,-25.1 9.6,-22.4 6.7,-46 -4,-67.4 -8.1,-16.3 -19.6,-31.2 -36,-39.9 -14.4,-7.6 -29.8,-3.5 -41.2,7.2 -7.9,7.4 11,30 18.4,23 4,-3.7 8.3,-7 13.6,-8.6 1.7,-0.5 4.1,-0.9 5.7,-0.9 2.5,0.1 5,0.8 6.1,1.2 1.1,0.4 2.1,1 3.1,1.5 -2.2,-1.2 1.1,0.9 1.2,1 3.3,2.3 -2,-1.8 1,0.8 1,0.8 1.8,1.8 2.7,2.7 -2.5,-2.5 0.5,0.7 0.8,1 0.9,1 1.6,2.1 2.4,3.2 -2,-2.7 0.6,1 0.8,1.3 1,1.6 1.9,3.2 2.7,4.8 -1.2,-2.3 0.8,1.7 0.8,1.8 0.6,1.3 1.1,2.5 1.6,3.8 1,2.4 1.7,4.6 2.1,6 1.5,5.1 2.3,10 2.3,14.5 0.2,10.5 -3.9,21.5 -9,30.6 -4.7,8.3 -12.9,15.8 -23,14.1 -2.2,-0.4 -4.3,-1.5 -6.3,-2.5 3,1.5 -4.9,-3.9 -1.6,-1.1 -0.8,-0.7 -1.6,-1.5 -2.4,-2.3 2.8,2.8 0.2,0.1 -0.3,-0.5 -0.4,-0.5 -2.6,-3.7 -0.5,-0.5 -0.9,-1.3 -1.6,-2.7 -2.4,-4.1 -1.9,-3.5 1.1,2.5 -0.5,-1.1 -0.5,-1.1 -0.9,-2.2 -1.4,-3.4 0,-0.1 -1.3,-3.8 -0.6,-1.6 -0.4,-1.2 -0.7,-2.4 -1,-3.6 -1.3,-5.3 -1.7,-9.1 -1.6,-14.3 0.1,-8.7 2.2,-18.1 7.6,-25.1 3.5,-4.5 8.4,-8 13.8,-9.8 11.7,-3.4 -4.8,-27.5 -14.1,-24.4 z"
       id="path108"
       style="stroke:none" />
  </g>
  <g
     id="g114"
     style="stroke:none"
     transform="translate(-156.97441,-53.414906)">
    <path
       fill="#ffffff"
       stroke="#000000"
       stroke-miterlimit="10"
       d="m 558.2,695.7 c 15.1,-26.4 15,-57.3 8.9,-86.3 -6.2,-29.3 -18.5,-57.7 -34.7,-82.9 -8.3,1.2 -16.6,2.4 -24.9,3.6 19.3,7.4 38.4,15.5 55.4,27.6 8.5,6.1 16,13.2 22.5,21.4 4.1,5.2 9,11.7 9.8,18.5 0.2,1.6 -0.2,3.7 -0.6,4.5 -0.4,0.7 -1,1.4 -1.6,2 -0.4,0.4 -0.3,0.4 -1.9,1.2 -0.4,0.2 -3.5,1.5 -1.3,0.7 -1.1,0.4 -2.2,0.7 -3.3,1.1 -2.8,0.8 -5.6,1.5 -8.5,2.1 -12.4,2.8 -25.6,5.6 -35,14.7 -4.1,4 8.3,7 9.9,7.2 5.3,0.9 14,1.6 18.3,-2.6 8.3,-8 20.5,-8.8 32,-11.6 9,-2.2 22.7,-6.5 21.3,-18.2 -0.9,-7.6 -6.1,-14.6 -10.6,-20.6 -6.7,-8.8 -15,-16.5 -23.8,-23.1 -18.4,-13.8 -40,-22.9 -61.3,-31.1 -5.6,-2.2 -11.8,-2.9 -17.8,-2 -2,0.3 -9.6,1.8 -7.2,5.6 15.7,24.4 27.5,51.6 33.8,80 6,27.4 6.7,58.5 -7.6,83.6 -4,6.9 24.3,11.3 28.2,4.6 z"
       id="path112"
       style="stroke:none" />
  </g>
  <g
     id="g1424"
     style="stroke:none"
     transform="translate(-156.97441,-53.414906)">
    <g
       id="g118"
       style="stroke:none">
      <path
         fill="#ffffff"
         stroke="#000000"
         stroke-miterlimit="10"
         d="m 704.4,516.7 c -35.7,-5.1 -58.9,31.3 -65.3,62.1 -3.1,15.1 -2.4,32 7,44.9 5.3,7.3 13.6,11.5 21.8,14.6 13.4,5.1 28.2,9 42.6,7.5 18.6,-2 33.6,-15.6 41.8,-31.7 7.5,-14.8 10.8,-35.8 3.3,-51.2 -6.6,-13.8 -20.1,-25 -33.8,-31.2 -10.2,-4.6 -23.4,-9.5 -34.8,-8.3 -7,0.7 -9.9,7.5 -10.9,13.5 -0.7,4.1 28,10.3 28.3,8.5 0.7,-4.2 1.9,-8.2 5.1,-11 1.2,-1.1 2.8,-1.5 4.4,-1.8 0.3,-0.1 1.7,0 0.4,-0.2 -16.3,-2.1 -16.6,-5.8 -11.5,-3.1 8.6,4.7 16,12.4 21.6,20.3 12.9,18.3 6.6,46 -4.8,63.4 -6.6,10.1 -16.3,17.9 -27.7,21.7 -5.5,1.8 -11.4,2.5 -17.2,2 0.7,0.1 -2.8,-0.6 -0.2,0 2.5,0.5 5.1,1.3 7.5,2.2 3.2,1.2 -0.9,-0.7 -1.9,-1.4 -12.9,-9.3 -15.6,-26.4 -14.3,-41.2 1.5,-17.6 8.7,-35 19.2,-49 5,-6.7 11.2,-12.6 18.4,-16.9 3.3,-2 7,-3.4 10.8,-4.3 1.7,-0.4 3.4,-0.6 5.1,-0.8 1.1,-0.1 4.8,0.2 4,0 0.2,0 4.2,0.9 4.5,-0.1 0.3,-1 -3.5,-2.5 -3.7,-2.6 -5.9,-2.7 -12.9,-4.9 -19.7,-5.9 z"
         id="path116"
         style="stroke:none" />
    </g>
    <g
       id="g122"
       style="stroke:none">
      <path
         fill="#ffffff"
         stroke="#000000"
         stroke-miterlimit="10"
         d="m 718.4,597.1 c -2.5,-1.4 -4.6,-3.3 -7.1,-4.7 -7.6,-4.5 -34.5,4.8 -23.1,13.1 25.8,18.8 54.5,42.6 63.3,74.7 2.8,10.2 31.4,3.1 28.7,-6.7 -9.6,-35.2 -40.6,-60.5 -68.9,-81.1 -7.7,4.4 -15.4,8.8 -23.1,13.1 2.5,1.4 4.6,3.3 7.1,4.7 5.7,3.4 14.9,1 20.3,-2 4.2,-2.4 8.6,-7.7 2.8,-11.1 z"
         id="path120"
         style="stroke:none" />
    </g>
  </g>
  <g
     id="g1432"
     style="stroke:none"
     transform="translate(-156.97441,-53.414906)">
    <g
       id="g126"
       style="stroke:none">
      <path
         fill="#ffffff"
         stroke="#000000"
         stroke-miterlimit="10"
         d="m 751.9,510.4 c 11.2,17.8 19.9,36.8 25,57.1 5.1,20 6.4,40.8 6.4,61.4 0,2.7 12.3,4.7 14,5 0.9,0.2 14.9,2.9 14.9,1 0,-21.3 -1.6,-42.4 -6.9,-63.1 -5.1,-20.3 -14.3,-39.1 -25.4,-56.7 -0.9,-1.4 -5.1,-2.2 -6.4,-2.6 -3.6,-1.1 -7.4,-1.9 -11.1,-2.5 -0.9,-0.1 -12,-1.9 -10.5,0.4 z"
         id="path124"
         style="stroke:none" />
    </g>
    <g
       id="g130"
       style="stroke:none">
      <path
         fill="#ffffff"
         stroke="#000000"
         stroke-miterlimit="10"
         d="m 769.5,527.6 c 11.3,-0.7 23.6,2.1 33.9,5.9 3.1,1.1 6.1,2.5 9.1,3.9 4.1,2 4.7,2.4 7.3,4.2 3.4,2.4 3.6,2.7 6.5,6 0,0 2.9,4.1 1.5,1.8 0.5,0.7 0.9,1.5 1.3,2.3 -0.5,-1.3 -0.5,-1.3 0.1,0.1 0.2,0.5 0.7,3.8 0.4,1 0.1,0.5 -0.2,3.6 0.2,0.9 -0.1,0.9 -0.5,1.8 -0.8,2.7 -0.5,1.2 -0.5,1.2 0.1,-0.1 -0.3,0.6 -0.7,1.1 -1.1,1.6 -0.6,0.8 -1.3,1.6 -2,2.3 -0.9,0.9 -1,1 -0.2,0.2 -0.6,0.5 -1.1,1 -1.7,1.4 -2.2,1.7 -4.6,3.1 -7.1,4.5 -8.9,4.9 -20,8 -30.7,10.9 -16.4,4.5 0.3,27.9 13.6,24.2 22.4,-6.1 64.7,-17.9 55.2,-49.5 -5.5,-18.3 -23.9,-31.1 -40.5,-38.4 -15.9,-6.9 -34.8,-12.1 -52.3,-11.1 -18.4,1.3 -7,26.1 7.2,25.2 z"
         id="path128"
         style="stroke:none" />
    </g>
    <g
       id="g134"
       style="stroke:none">
      <path
         fill="#ffffff"
         stroke="#000000"
         stroke-miterlimit="10"
         d="m 825.3,593.7 c 27.5,10.4 47.6,34.6 71.2,51.3 4.4,3.1 13.1,5.4 15.8,-1.2 2.8,-6.6 -2.8,-14.1 -7.9,-17.7 -25.7,-18.2 -47.5,-43.5 -77.5,-54.9 -5.4,-2 -12.8,-1.6 -13.3,5.7 -0.5,6.8 5.4,14.4 11.7,16.8 z"
         id="path132"
         style="stroke:none" />
    </g>
  </g>
  <g
     id="g138"
     style="stroke:none"
     transform="translate(-156.97441,-53.414906)">
    <path
       fill="#ffffff"
       stroke="#000000"
       stroke-miterlimit="10"
       d="m 950.4,531.7 c 6,-11.3 5.1,-26.2 7.7,-38.4 1.6,-7.7 -12.7,-15.8 -18.6,-16.4 -11,-1.2 -21.8,1.9 -32.1,5.3 -12.1,4 -23.9,9.4 -35,15.7 -7.9,4.5 -17.2,10.3 -21.8,18.5 -4.8,8.7 0.9,17.1 7.2,23.1 14.7,13.9 38.3,16.7 57.4,19.1 7.6,1 15.3,1.6 22.8,2.9 2.5,0.4 -3.7,-1 1.1,0.2 1.5,0.4 2.9,0.8 4.4,1.2 2.8,0.8 5.5,1.7 8.2,2.6 0.1,0 4.3,1.7 1.7,0.6 1.2,0.5 2.3,1.1 3.5,1.7 3.7,1.9 -2.5,-1.7 0.8,0.5 1.4,1 1.3,0.9 -0.4,-0.4 1.2,1.1 1.1,1 -0.1,-0.3 0.5,0.5 0.9,1.1 1.4,1.6 -2.1,-2.6 0.5,1.4 -0.3,-0.5 0.6,1.3 1,2.8 1.2,4.2 0.5,5.1 -0.9,10.3 -2.8,14.9 -3.9,9.8 -10.8,19.5 -18.4,26.7 -1.5,1.4 -3.3,2.4 -5.1,3.3 -0.6,0.3 -2,0.5 -0.5,0.5 -2.5,-0.1 1.3,0.4 1.7,0.6 1,0.5 2,1.1 2.8,1.8 -3,-2.5 1.7,2.1 -1,-1 -1.8,-2 -2.1,-2.6 -3.7,-5.3 -2.5,-4.1 -4.5,-8.4 -6.1,-12.9 -1.3,-3.6 -2.4,-7.7 -2.5,-10.5 -0.2,-6.5 -7,-11.6 -12.2,-14.3 -2.7,-1.3 -13.4,-5.1 -13.4,1.3 0,0.1 0,0.1 0,0.2 0,6.4 7.2,11.7 12.2,14.3 2.7,1.3 13.4,5.1 13.4,-1.3 0,-0.5 0,-0.9 0,-1.4 0,-6.4 -7.2,-11.7 -12.2,-14.3 -2.7,-1.3 -13.4,-5.1 -13.4,1.3 0,0.5 0,0.9 0,1.4 0,6.4 7.2,11.7 12.2,14.3 2.7,1.3 13.4,5.1 13.4,-1.3 0,-0.1 0,-0.1 0,-0.2 -8.5,-4.3 -17.1,-8.6 -25.6,-12.9 0.3,11.1 5.3,22.1 10.6,31.6 7.3,12.9 18.8,24.6 33.5,28.1 12.9,3.1 22.5,-7.9 29.3,-17.3 7,-9.7 13.4,-21.4 13.5,-33.7 0.1,-27.3 -35.2,-41.3 -57.5,-45.3 -7.2,-1.3 -14.6,-1.9 -21.8,-2.8 -4.5,-0.6 -9,-1.2 -13.5,-1.9 -2.3,-0.4 -4.5,-0.8 -6.8,-1.2 -1.1,-0.2 -2.2,-0.4 -3.3,-0.7 -0.5,-0.1 -4.9,-1.2 -2.2,-0.5 -2,-0.5 -4,-1.1 -5.9,-1.7 -0.9,-0.3 -1.8,-0.6 -2.7,-1 -3,-1.1 2.8,1.3 0,0 -1,-0.4 -3.7,-2 0.5,0.4 -1,-0.6 -3.2,-2.4 0.7,0.7 -2.1,-1.7 2.3,2.6 0.6,0.7 0.7,0.9 1.5,2.5 1.3,1.9 -0.6,-1.8 0,1.9 0,-0.1 0,-0.6 0.1,-1.3 0.3,-1.9 -0.3,1.5 0.3,-0.6 0.4,-0.8 0.5,-1 1.2,-2 1.9,-2.9 2.7,-3.6 6.3,-6.3 10,-8.8 10.7,-7.3 22.7,-12.8 34.7,-17.5 5.6,-2.2 11.4,-4.1 17.2,-5.5 2.4,-0.5 4.8,-1 7.2,-1.3 1.1,-0.1 2.1,-0.2 3.2,-0.3 0.7,0 1.3,0 2,0 -1.2,-0.1 -1.2,0 0,0.1 -6.2,-5.5 -12.4,-11 -18.6,-16.4 -1.3,6.1 -2,12.3 -2.9,18.4 -0.7,5.3 -1,11.5 -3.6,16.3 -5.3,9.5 19.5,25.2 24,17 z"
       id="path136"
       style="stroke:none" />
  </g>
  <g
     id="g1438"
     style="stroke:none"
     transform="translate(-156.97441,-53.414906)">
    <g
       id="g5"
       transform="translate(2.1802002,-13.081201)">
      <g
         id="g142"
         style="stroke:none">
        <path
           fill="#ffffff"
           stroke="#000000"
           stroke-miterlimit="10"
           d="m 1057.8,485.3 c -11.7,5.5 -23.2,11.3 -35.4,15.7 -6.1,2.2 -12.6,4.3 -19.1,5 -3,0.3 -6,0.2 -9.1,-0.1 1.7,0.2 -1.8,-0.6 -1.8,-0.5 -1.4,-0.5 -1.4,-0.5 -0.1,0 -1.4,-0.8 -1.3,-0.7 0.2,0.2 -3.7,-2.8 -12.1,-6.9 -14.9,-0.5 -2.6,6.1 3,14.1 7.6,17.6 26.9,20.2 62.3,-0.8 88.1,-13 12.3,-5.9 -5.4,-29.1 -15.5,-24.4 z"
           id="path140"
           style="stroke:none" />
      </g>
      <g
         id="g146"
         style="stroke:none">
        <path
           fill="#ffffff"
           stroke="#000000"
           stroke-miterlimit="10"
           d="m 1007,520.1 c 0,40.6 2.1,81.2 -3.5,121.5 -1.1,7.7 26.5,0.4 27.6,-7.6 5.6,-40.3 3.6,-81 3.5,-121.5 0,-5.5 -8.8,-3.3 -12,-2.5 -3.5,1 -15.6,5 -15.6,10.1 z"
           id="path144"
           style="stroke:none" />
      </g>
    </g>
  </g>
  <g
     id="g150"
     style="stroke:none"
     transform="translate(-156.97441,-53.414906)">
    <path
       fill="#ffffff"
       stroke="#000000"
       stroke-miterlimit="10"
       d="m 323.6,695.8 c 4.5,16.9 3.1,36.1 3.1,53.4 0,5.8 6.6,10.3 11.3,12.2 4,1.6 16.8,4 18.1,-3.1 1.8,-9.7 1.9,-19.4 2.2,-29.2 0.2,-8.3 0.7,-17.8 5.7,-24.8 -9.3,-3.7 -18.6,-7.5 -27.9,-11.2 3.3,37.9 -37.5,101.5 17.9,119.1 24,7.6 55.9,4.7 73,-15.7 14.7,-17.6 14.9,-41.9 8.9,-62.9 -3.2,-11.5 -9.1,-22.3 -16.1,-31.9 -4.3,-6 -13.2,-9.5 -20.5,-8.2 -6.7,1.1 -9,7.1 -5.1,12.6 11.6,16 19,38.1 14.3,57.9 -2.2,9.3 -6.3,16.3 -13.4,22.3 -7.2,6.1 -17.6,8.4 -26.8,8.4 -1.7,0 -3.4,-0.1 -5,-0.2 -5.4,-0.3 2.2,0.5 -2.3,-0.3 -0.6,-0.1 -5,-1.3 -1.2,-0.1 -1.1,-0.4 -2.3,-0.8 -3.4,-1.3 3.8,1.7 0.7,0.2 -0.1,-0.3 3.2,2.2 0.6,0.3 0,-0.4 2.4,2.4 0.3,0.1 -0.1,-0.5 -1.8,-2.6 1,2.2 -0.3,-0.7 -1.7,-3.7 -1.8,-5.7 -2,-10.8 -0.2,-5.4 0.5,-10.8 1.4,-16.1 3.4,-21.2 12.4,-42.5 10.5,-64.3 -0.5,-5.9 -6.2,-10.1 -11.3,-12.2 -4,-1.6 -13.4,-3.7 -16.6,0.9 -12.6,17.9 -7.1,38.1 -10.8,58.3 9.8,3 19.6,6.1 29.4,9.1 0,-19.5 0.8,-39.9 -4.3,-58.9 -3.1,-11.5 -32.9,-17 -28.6,-1.1 z"
       id="path148"
       style="stroke:none" />
  </g>
  <g
     id="g154"
     style="stroke:none"
     transform="translate(-156.97441,-53.414906)">
    <path
       fill="#ffffff"
       stroke="#000000"
       stroke-miterlimit="10"
       d="m 455.6,690.5 c -6.9,0.9 -11.3,5.4 -12.6,12 -1.1,5.5 4,12.2 7,16.1 6,7.8 23,8.2 27,-1.9 1.7,-4.3 3.6,-8.8 4.1,-13.5 0.8,-7.2 -8.8,-11.2 -14.5,-11.2 -1.2,0 -2.4,0 -3.5,0 -6.5,0 -14.5,3 -15,10.5 -1.8,24.5 6.4,49 15.5,71.3 9.3,23.1 21.2,45 31,67.9 5.1,11.8 26.7,11.2 29,-2.1 6.6,-38.7 9.7,-77.7 25.9,-113.9 6.3,-14.1 -22.6,-19.2 -28.3,-6.5 -17,37.9 -20.2,79.2 -27.1,119.7 9.7,-0.7 19.4,-1.4 29,-2.1 -9.4,-21.7 -20.4,-42.6 -29.6,-64.4 -9.1,-21.6 -17.7,-45.1 -16,-69 -5,3.5 -10,7 -15,10.5 1.2,0 2.4,0 3.5,0 -4.8,-3.7 -9.6,-7.5 -14.5,-11.2 0.4,-3.5 0.1,-0.6 -0.2,0.3 -0.4,1.1 -0.8,2.2 -1.2,3.3 -0.5,1.4 -1,2.7 -1.6,4.1 9,-0.6 18,-1.3 27,-1.9 -1.1,-1.5 -2.3,-2.8 -3,-4.5 -0.4,-1.4 -0.5,-1.4 -0.2,0.1 0.3,-4.8 -2.9,-2.3 -9.5,7.7 6.1,-0.8 13,-6.3 10.6,-13.1 -2.3,-7.3 -11.3,-9.1 -17.8,-8.2 z"
       id="path152"
       style="stroke:none" />
  </g>
  <g
     id="g1444"
     style="stroke:none"
     transform="translate(-156.97441,-53.414906)">
    <g
       id="g158"
       style="stroke:none">
      <path
         fill="#ffffff"
         stroke="#000000"
         stroke-miterlimit="10"
         d="m 573.7,715.9 c 0.3,0.5 0.5,1 0.7,1.5 -1.5,-3.2 0.1,0.2 0.3,0.7 0.8,2 1.6,4 2.3,6 2,5.4 3.8,10.8 5.7,16.2 3.6,10.6 6.9,21.3 10.1,32 5.6,18.5 17.7,46.7 40.5,47.8 19.2,0.9 29,-19.4 34.6,-34.5 6.7,-18 10.6,-37 14.2,-55.8 1.5,-7.5 -2,-13.9 -9.7,-16 -6.1,-1.7 -17,0.7 -18.5,8.2 -3.2,16.7 -6.8,33.4 -12,49.6 -1.2,3.7 -2.5,7.3 -4,10.9 -0.7,1.8 -1.6,3.6 -2.4,5.4 -0.3,0.7 -0.7,1.3 -1,2 1.4,-2.8 -0.2,0.2 -0.5,0.6 -0.7,1.1 -1.4,2.1 -2.1,3.2 -0.4,0.5 -0.7,0.9 -1.1,1.4 -1.9,2.3 2.2,-2.1 0.1,-0.2 -0.4,0.3 -0.8,0.6 -1.2,0.9 -2.2,1.7 3,-1.6 0.7,-0.5 -1.4,0.5 -0.8,0.4 1.7,-0.6 -2.5,0.6 4,0 1.4,-0.1 2.8,0.5 3.4,0.6 1.9,0.2 2.3,1 2.8,1.2 1.5,0.6 -3.2,-1.6 1.7,1.7 -1.3,-1.1 -0.5,-0.5 -1,-1 -1.4,-1.5 1,1.2 1,1.2 0,-0.1 -1.4,-1.8 -2.6,-3.8 -3.8,-5.8 -5.3,-9 -8.5,-18.7 -11.6,-28.6 -5.6,-18.2 -11,-37.1 -19.3,-54.3 -7,-14.6 -33.8,-4.4 -25.8,11.9 z"
         id="path156"
         style="stroke:none" />
    </g>
    <g
       id="g162"
       style="stroke:none">
      <path
         fill="#ffffff"
         stroke="#000000"
         stroke-miterlimit="10"
         d="m 666.6,692.9 c -0.6,-2 0.1,-2.2 -0.7,-0.9 -6.9,2.5 -13.7,5 -20.6,7.5 0,0 0.1,0 0.1,0 -2.4,-0.7 -4.9,-1.3 -7.3,-2 1.9,1.2 3.2,4.4 4.3,6.3 2.2,3.6 4.3,7.3 6.5,10.9 7.1,11.8 12.8,24.3 18.8,36.7 7.4,15.2 15.5,29.8 25.8,43.2 5.9,7.7 12.6,15.5 20.8,20.8 14.2,9.3 37.5,7.6 48.6,-6.1 9.1,-11.3 11.5,-27.1 13.6,-41 2,-13.2 3.2,-26.5 4.5,-39.7 1,-10.3 1.6,-20.6 4,-30.6 2.1,-8.4 -26.6,-5.2 -28.5,2.6 -3.4,13.9 -3.9,28.6 -5.3,42.8 -1.6,16.5 -3.1,33.2 -7.6,49.2 -0.9,3.2 -2,6.3 -3.2,9.3 -0.6,1.3 -1.2,2.7 -1.9,4 -0.4,0.7 -2.6,4.1 -1.7,2.8 -0.7,0.9 -1.5,1.8 -2.4,2.6 -1.5,1.4 2,-1.4 0.3,-0.2 -0.8,0.6 -2.6,1.3 0.9,-0.4 1.7,-0.8 7,-1.8 9.4,-1.8 -2.2,0 3.1,0.4 0.8,0.1 -1.6,-0.3 2.1,0.8 -0.6,-0.2 -6.7,-2.3 -12.7,-8.8 -17.9,-14.7 -10.5,-11.8 -18.9,-25.1 -26.1,-39.1 -9,-17.4 -17.1,-35.1 -27,-52 -2.5,-4.3 -4.9,-10.2 -8.6,-13.7 -5,-4.8 -17.1,-1.5 -22.2,0.8 -4.2,1.9 -7.2,4.2 -5.7,8.7 2.6,8.1 31.1,1.2 28.9,-5.9 z"
         id="path160"
         style="stroke:none" />
    </g>
  </g>
  <g
     id="g1450"
     style="stroke:none"
     transform="translate(-156.97441,-53.414906)">
    <g
       id="g166"
       style="stroke:none">
      <path
         fill="#ffffff"
         stroke="#000000"
         stroke-miterlimit="10"
         d="m 820.4,698.4 c -2.4,1.9 -4.8,3.8 -7.2,5.7 -2.6,0.1 -5.2,0.2 -7.8,0.2 -1.3,-0.3 -2.5,-0.8 -3.7,-1.4 -1,-1.1 -1,-1 0.1,0.1 1.2,1.3 2.3,2.8 3.4,4.3 2.1,2.9 4,5.9 6.2,8.8 7.1,9.7 14.4,19.2 21.2,29.2 12.6,18.8 24.8,37.8 40.8,54 5.3,5.4 13.3,7 20.3,3.5 5.4,-2.7 10.1,-10.6 4.8,-15.9 -19.9,-20.2 -34,-44.8 -50.3,-67.8 -4,-5.6 -8.3,-10.8 -12.4,-16.4 -3,-4 -5.6,-8.3 -8.8,-12.1 -9.9,-11.7 -27.9,-12.4 -35.1,2.5 -3.3,6.8 5.2,12.8 10.7,13.9 7.4,1.4 14.5,-1.7 17.8,-8.6 z"
         id="path164"
         style="stroke:none" />
    </g>
    <g
       id="g170"
       style="stroke:none">
      <path
         fill="#ffffff"
         stroke="#000000"
         stroke-miterlimit="10"
         d="m 858.9,680.9 c 2.8,11.9 1.4,22.2 -2.4,33.9 -4.6,14.2 -11.9,27.5 -20,40 -15.9,24.7 -35.3,46.9 -54.8,68.7 -10.2,11.4 9.5,33.1 20.6,20.6 20.3,-22.7 40.3,-45.8 56.6,-71.5 16.4,-25.9 32.9,-58.7 25.4,-90.2 -1.7,-7.1 -6.3,-14.3 -14.4,-14.7 -6.9,-0.5 -12.6,6.4 -11,13.2 z"
         id="path168"
         style="stroke:none" />
    </g>
  </g>
  <g
     id="g1456"
     style="stroke:none"
     transform="translate(-156.97441,-53.414906)">
    <g
       id="g174"
       style="stroke:none">
      <path
         fill="#ffffff"
         stroke="#000000"
         stroke-miterlimit="10"
         d="m 892.4,698 c 15.8,27 21.4,59.4 47.4,79.6 5.5,4.3 15.2,4.5 20,-1 5.1,-6 1.2,-13.4 -4.1,-17.5 -2.3,-1.8 -7.6,-8.1 -10.3,-12.2 -4,-6.3 -7.3,-13 -10.4,-19.8 -5.7,-12.3 -10,-25.4 -16.9,-37.1 -3.8,-6.5 -12.1,-10 -19.4,-7.8 -6.8,2.2 -10,9.6 -6.3,15.8 z"
         id="path172"
         style="stroke:none" />
    </g>
    <g
       id="g178"
       style="stroke:none">
      <path
         fill="#ffffff"
         stroke="#000000"
         stroke-miterlimit="10"
         d="m 976.8,684.3 c -30.3,59 -55.4,126.5 -51.8,193.9 0.4,7.2 5.5,11.4 12.9,10.4 6.3,-0.9 15.2,-6.9 14.9,-14.3 -3.3,-62.8 18.9,-126.1 47.3,-181.3 3,-5.8 3.5,-13.3 -3.9,-16.1 -6.6,-2.3 -16.2,1.2 -19.4,7.4 z"
         id="path176"
         style="stroke:none" />
    </g>
  </g>
  <g
     id="g182"
     style="stroke:none"
     transform="translate(-156.97441,-53.414906)">
    <path
       fill="#ffffff"
       stroke="#000000"
       stroke-miterlimit="10"
       d="m 1041.5,737.5 c 4.4,-6.2 1.6,-15.1 -0.4,-21.6 -2.5,-8.4 -6.2,-16.8 -6.4,-25.7 -1.9,0.6 -3.8,1.2 -5.7,1.9 25.6,8.3 51.9,9.3 78.6,9.3 -7.2,-5.7 -14.5,-11.4 -21.7,-17 -23.8,52.2 -71.7,87.6 -100.9,136.3 -1.9,3.2 4.7,8.3 6.5,9.8 3.8,3 11.7,8.8 17,7.1 18.8,-5.8 37.4,-14 57.2,-15.6 20.1,-1.6 39.4,6.7 59.5,5.1 1.2,-0.1 3.8,-0.2 3.3,-2.3 -5,-19.7 -22.2,-33.1 -36,-46.8 -4.4,-4.4 -11.4,-9.1 -17.9,-9.6 -6.6,-0.5 -1.1,6.5 0.8,8.4 10.1,10 24.1,20 27.7,34.6 1.1,-0.8 2.2,-1.5 3.3,-2.3 -20.8,1.7 -40.7,-6.6 -61.6,-4.9 -20.5,1.7 -39.5,9.6 -58.9,15.7 7.9,5.6 15.7,11.3 23.6,16.9 29.2,-48.7 77.1,-84 100.9,-136.3 1.6,-3.5 -4.4,-8.1 -6.5,-9.8 -3.9,-3.1 -9.9,-7.2 -15.2,-7.2 -25,0 -49.6,-0.6 -73.6,-8.4 -1.9,-0.6 -5.8,-1.2 -5.7,1.9 0.2,8.4 3.5,16.4 6,24.3 1.9,5.9 5.4,14.7 1.4,20.4 -3.9,5.2 20.5,21.7 24.7,15.8 z"
       id="path180"
       style="stroke:none" />
  </g>
  <g
     id="g1462"
     style="stroke:none"
     transform="translate(-156.97441,-53.414906)">
    <g
       id="g186"
       style="stroke:none">
      <path
         fill="#ffffff"
         stroke="#000000"
         stroke-miterlimit="10"
         d="m 1156.5,685.5 c 1.4,26.6 -7,59.1 -28.8,76.3 -4.4,3.5 -3.6,7.4 2.2,8 6.6,0.8 14.9,-1.3 20.1,-5.5 25.7,-20.3 36.7,-54.6 34.9,-86.6 -0.3,-7 -28.9,-1.6 -28.4,7.8 z"
         id="path184"
         style="stroke:none" />
    </g>
    <g
       id="g190"
       style="stroke:none">
      <path
         fill="#ffffff"
         stroke="#000000"
         stroke-miterlimit="10"
         d="m 1184.9,724.8 c 2.7,9.7 -0.8,20.3 -5.8,28.8 -3.1,5.4 -7,10.3 -11.2,14.8 -1.3,1.4 -3.9,3.6 -5.8,5.1 -3.1,2.6 -2.5,2 -5.2,3.6 -5.3,3 -10.5,9.8 -6,15.8 4.4,5.8 13.8,5.4 19.6,2.1 25.2,-14.2 51.3,-48.1 42.8,-78.7 -4.1,-14 -32.4,-5.6 -28.4,8.5 z"
         id="path188"
         style="stroke:none" />
    </g>
  </g>
  <g
     id="g1468"
     style="stroke:none"
     transform="translate(-156.97441,-53.414906)">
    <g
       id="g194"
       style="stroke:none">
      <path
         fill="#ffffff"
         stroke="#000000"
         stroke-miterlimit="10"
         d="m 225.7,256.4 c 3.2,17.3 8.9,34.4 15.5,50.7 3.4,8.4 7.4,16.6 12.7,24 6.6,9.3 16.9,15 27.7,17.9 2.5,0.7 11.4,1.5 7.3,-3.6 -4.1,-5.2 -11.7,-7.9 -17.8,-9.6 3.6,0.9 6.9,2.3 9.9,4.2 1.4,1.1 1.6,1.2 0.6,0.3 1.5,1.3 -1.1,-1.3 -1.4,-1.6 -2,-2.4 -3.6,-5.1 -5.2,-7.9 -4,-7.2 -7.1,-15 -10,-22.7 -5.2,-13.8 -9.7,-28.1 -12.4,-42.6 -1,-5.1 -11.4,-8.8 -15.4,-10.2 -1.7,-0.5 -12.5,-3.9 -11.5,1.1 z"
         id="path192"
         style="stroke:none" />
    </g>
    <g
       id="g198"
       style="stroke:none">
      <path
         fill="#ffffff"
         stroke="#000000"
         stroke-miterlimit="10"
         d="m 183.8,262.9 c 3.7,24.2 15.7,45.7 26.5,67.3 3.2,6.5 30.1,-2 29.3,-3.8 -10.8,-21.6 -22.8,-43.1 -26.5,-67.3 -0.8,-5 -30,-0.8 -29.3,3.8 z"
         id="path196"
         style="stroke:none" />
    </g>
  </g>
  <g
     id="g1474"
     style="stroke:none"
     transform="translate(-156.97441,-53.414906)">
    <g
       id="g202"
       style="stroke:none">
      <path
         fill="#ffffff"
         stroke="#000000"
         stroke-miterlimit="10"
         d="m 500.5,911 c 31.3,-6.3 122.7,-23 155.8,-26.3 70,-6.9 140.7,-19.2 209.4,-3.9 6.5,1.5 15.3,-1.3 16.8,-8.6 1.5,-7.5 -5.6,-13.1 -12.1,-14.5 -71.2,-15.9 -143.8,-24.1 -216.3,-17.2 -34.9,3.3 -73.7,10.3 -108.1,17.6 -31.9,6.7 -27.5,8.3 -59.5,14.8 -6.7,1.3 -8,11.6 -5,18.2 3.3,7 11.9,21.3 19,19.9 z"
         id="path200"
         style="stroke:none" />
    </g>
    <g
       id="g206"
       style="stroke:none">
      <path
         fill="#ffffff"
         stroke="#000000"
         stroke-miterlimit="10"
         d="m 888.9,876.8 c 0.6,1.2 1.2,2.4 1.8,3.5 0.8,1 1.6,2.1 2.4,3.1 1.6,1.8 3.6,3.1 5.8,4 2.8,1.1 6.1,1.3 8.8,-0.4 2.7,-1.7 4,-4.7 4.2,-7.7 0,-1.1 -0.1,-2.3 -0.1,-3.4 -0.4,-2.5 -1.3,-4.9 -2.7,-7.1 -0.6,-1.2 -1.2,-2.4 -1.8,-3.5 -0.8,-1 -1.6,-2.1 -2.4,-3.1 -1.6,-1.8 -3.6,-3.1 -5.8,-4 -2.8,-1.1 -6.1,-1.3 -8.8,0.4 -2.7,1.7 -4,4.7 -4.2,7.7 0,1.1 0.1,2.3 0.1,3.4 0.5,2.5 1.4,4.9 2.7,7.1 z"
         id="path204"
         style="stroke:none" />
    </g>
  </g>
  <g
     id="g1316"
     style="stroke:none"
     transform="translate(-156.97441,-53.414906)">
    <g
       id="g210"
       style="stroke:none">
      <path
         fill="#ffffff"
         stroke="#000000"
         stroke-miterlimit="10"
         d="m 1160.2,272.8 c 7.4,22.5 -4.7,47.9 -16.6,67.5 -13.8,22.8 -31.3,43 -47.8,63.8 -4.6,5.8 0.2,12.6 5.9,14.8 6.8,2.6 15.4,1 20,-4.8 17.2,-21.7 35.3,-42.8 49.5,-66.7 14.5,-24.3 26.4,-53.4 17.1,-81.6 -4.4,-13.4 -33.1,-8.1 -28.1,7 z"
         id="path208"
         style="stroke:none" />
    </g>
    <g
       id="g214"
       style="stroke:none">
      <path
         fill="#ffffff"
         stroke="#000000"
         stroke-miterlimit="10"
         d="m 1108.8,330.2 c -10.1,24 -2.8,52 -12.4,76.1 -3.9,9.7 14.5,23.3 23,17.7 26.3,-17.4 55.1,-30.4 81.4,-47.8 10.2,-6.8 -12.6,-25 -21.4,-19.2 -26.3,17.4 -55.1,30.4 -81.4,47.8 7.7,5.9 15.4,11.8 23,17.7 5,-12.6 6.3,-26.1 7.4,-39.6 0.9,-11.7 0.4,-25.5 5,-36.5 2.5,-6 -3.3,-11.8 -7.9,-14.8 -3,-2.1 -14.2,-7.3 -16.7,-1.4 z"
         id="path212"
         style="stroke:none" />
    </g>
  </g>
  <g
     id="g1322"
     style="stroke:none"
     transform="translate(-156.97441,-53.414906)">
    <g
       id="g218"
       style="stroke:none">
      <path
         fill="#ffffff"
         stroke="#000000"
         stroke-miterlimit="10"
         d="m 245.7,621.4 c 0,-13 -4.7,-26.2 -7.5,-38.7 -3.6,-15.7 -5.1,-30.6 -4.3,-46.8 1.9,-37 12,-73.6 31.4,-105.3 1.4,-2.3 -13,-5.8 -13.8,-6 -2.7,-0.6 -13,-3.3 -15.1,0 -19.5,31.9 -29.2,68.1 -31.4,105.3 -1,16.1 0.7,31 4.3,46.8 2.8,12.6 7.5,25.7 7.5,38.7 0,6.2 28.9,8.8 28.9,6 z"
         id="path216"
         style="stroke:none" />
    </g>
    <g
       id="g222"
       style="stroke:none">
      <path
         fill="#ffffff"
         stroke="#000000"
         stroke-miterlimit="10"
         d="m 189.8,416.1 c 4.8,8.8 20.6,11.2 29.4,12.3 9.4,1.2 18.8,-0.3 27.9,-2.7 9.3,-2.4 18.3,-5.7 27,-9.7 6.6,-3.1 13.5,-6.6 18.5,-12.1 -9.5,-2.5 -19,-5 -28.5,-7.5 -9.1,41 -11.2,82.1 -9.2,123.9 0.4,7.2 28.6,10.1 28.5,7.5 -2,-41.9 0.1,-82.9 9.2,-123.9 1.2,-5.4 -24.8,-11.5 -28.5,-7.5 -7.6,8.3 -21.2,12.8 -31.5,16.4 -6.7,2.4 -13.5,4.3 -20.5,5.4 -2.9,0.4 -4.9,0.6 -7,0.5 4.2,0.1 8.8,1.6 12.5,3.5 1.9,1 1,0.7 0.2,-0.7 -2.4,-4.4 -12.7,-6.1 -16.9,-7 -1.1,-0.1 -13.2,-2.2 -11.1,1.6 z"
         id="path220"
         style="stroke:none" />
    </g>
  </g>
  <g
     id="g226"
     style="stroke:none"
     transform="translate(-156.97441,-53.414906)">
    <path
       fill="#ffffff"
       stroke="#000000"
       stroke-miterlimit="10"
       d="m 1011.9,825.6 c 1,1.1 2.1,2.1 3.1,3.1 0.6,0.6 1.8,1.1 2.5,0.3 0.7,-0.9 0.2,-2.2 -0.5,-2.9 -1,-1 -2.1,-2.1 -3.1,-3.1 -0.6,-0.6 -1.8,-1.1 -2.5,-0.3 -0.6,0.9 -0.2,2.2 0.5,2.9 z"
       id="path224"
       style="stroke:none" />
  </g>
  <g
     id="g230"
     style="stroke:none"
     transform="translate(-156.97441,-53.414906)">
    <path
       fill="#ffffff"
       stroke="#000000"
       stroke-miterlimit="10"
       d="m 999.1,819.7 c 0,17.6 0,35.1 0,52.7 0,1.3 4.1,2.7 4.1,1.3 0,-17.6 0,-35.1 0,-52.7 0,-1.3 -4.1,-2.7 -4.1,-1.3 z"
       id="path228"
       style="stroke:none" />
  </g>
  <g
     id="g234"
     style="stroke:none"
     transform="translate(-156.97441,-53.414906)">
    <path
       fill="#ffffff"
       stroke="#000000"
       stroke-miterlimit="10"
       d="m 1011.3,829.5 c 1.7,0 4.6,-2.5 1.7,-2.5 -1.7,0 -4.6,2.5 -1.7,2.5 z"
       id="path232"
       style="stroke:none" />
  </g>
  <g
     id="g238"
     style="stroke:none"
     transform="translate(-156.97441,-53.414906)">
    <path
       fill="#ffffff"
       stroke="#000000"
       stroke-miterlimit="10"
       d="m 417.8,748 c 0,24 0,48 0,72 0,1.1 11.8,0.7 11.8,-0.9 0,-24 0,-48 0,-72 0,-1 -11.8,-0.7 -11.8,0.9 z"
       id="path236"
       style="stroke:none" />
  </g>
  <g
     id="g242"
     style="stroke:none"
     transform="translate(-156.97441,-53.414906)">
    <path
       fill="#ffffff"
       stroke="#000000"
       stroke-miterlimit="10"
       d="m 733.9,637.6 c 7.3,7.3 14.6,14.5 22.4,21.2 2.1,1.8 10.6,-5.9 9.8,-6.6 -7.8,-6.7 -15.1,-14 -22.4,-21.2 -1.9,-1.8 -10.8,5.7 -9.8,6.6 z"
       id="path240"
       style="stroke:none" />
  </g>
  <g
     id="g246"
     style="stroke:none"
     transform="translate(-156.97441,-53.414906)">
    <path
       fill="#ffffff"
       stroke="#000000"
       stroke-miterlimit="10"
       d="m 736,644.2 c 0,23.6 0,47.2 0,70.8 0,2.2 5.6,3.9 5.6,1.4 0,-23.6 0,-47.2 0,-70.8 -0.1,-2.1 -5.6,-3.9 -5.6,-1.4 z"
       id="path244"
       style="stroke:none" />
  </g>
  <g
     id="g250"
     style="stroke:none"
     transform="translate(-156.97441,-53.414906)">
    <path
       fill="#ffffff"
       stroke="#000000"
       stroke-miterlimit="10"
       d="m 451.5,566.7 c 0,12.6 0,25.2 0,37.8 0,1.3 5.8,1.7 5.8,0.8 0,-12.6 0,-25.2 0,-37.8 0,-1.3 -5.8,-1.7 -5.8,-0.8 z"
       id="path248"
       style="stroke:none" />
  </g>
  <g
     id="g254"
     style="stroke:none"
     transform="translate(-156.97441,-53.414906)">
    <path
       fill="#ffffff"
       stroke="#000000"
       stroke-miterlimit="10"
       d="m 1130,396.4 c 0,22.8 0,45.6 0,68.4 0,1.2 5.8,0.7 5.8,-0.9 0,-1.2 0,-2.4 0,-3.5 0,-1.2 -5.8,-0.7 -5.8,0.9 0,4.7 0,9.4 0,14.2 0,1.2 5.8,0.7 5.8,-0.9 0,-4.7 0,-9.4 0,-14.2 0,-1.2 -5.8,-0.7 -5.8,0.9 0,1.2 0,2.4 0,3.5 0,1.2 5.8,0.7 5.8,-0.9 0,-22.8 0,-45.6 0,-68.4 0,-1.2 -5.8,-0.7 -5.8,0.9 z"
       id="path252"
       style="stroke:none" />
  </g>
  <g
     id="g258"
     style="stroke:none"
     transform="translate(-156.97441,-53.414906)">
    <path
       fill="#ffffff"
       stroke="#000000"
       stroke-miterlimit="10"
       d="m 1119.5,409.5 c 0,9.8 0,19.7 0,29.5 0,3.4 5.5,5 5.5,1.2 0,-9.8 0,-19.7 0,-29.5 0,-3.3 -5.5,-4.9 -5.5,-1.2 z"
       id="path256"
       style="stroke:none" />
  </g>
  <g
     id="g262"
     style="stroke:none"
     transform="translate(-156.97441,-53.414906)">
    <path
       fill="#ffffff"
       stroke="#000000"
       stroke-miterlimit="10"
       d="m 703.5,415.9 c 2.7,2.7 5.4,5.3 8.4,7.6 1,0.8 2.7,1 3.5,-0.3 0.8,-1.3 0,-3 -1.1,-3.8 -2.6,-2 -5,-4.2 -7.3,-6.5 -0.9,-0.9 -2.5,-1.8 -3.7,-0.8 -1,1 -0.7,2.9 0.2,3.8 z"
       id="path260"
       style="stroke:none" />
  </g>
  <g
     id="g266"
     style="stroke:none"
     transform="translate(-156.97441,-53.414906)">
    <path
       fill="#ffffff"
       stroke="#000000"
       stroke-miterlimit="10"
       d="m 840.5,440.2 c 0,15.9 0,31.9 0,47.8 0,2.8 5.6,4.6 5.6,1.6 0,-15.9 0,-31.9 0,-47.8 0,-2.9 -5.6,-4.7 -5.6,-1.6 z"
       id="path264"
       style="stroke:none" />
  </g>
  <g
     id="g270"
     style="stroke:none"
     transform="translate(-156.97441,-53.414906)">
    <path
       fill="#ffffff"
       stroke="#000000"
       stroke-miterlimit="10"
       d="m 1087.8,216 c 0,18.3 0,36.5 0,54.8 0,1.6 4.3,4.2 4.3,4.3 0,-18.3 0,-36.5 0,-54.8 0,-1.6 -4.3,-4.3 -4.3,-4.3 z"
       id="path268"
       style="stroke:none" />
  </g>
  <g
     id="g278"
     style="stroke:none"
     transform="translate(-156.97441,-53.414906)">
    <path
       fill="#ffffff"
       d="m 1242.3,471.3 c 0,1.6 0,1.6 0,3.2"
       id="path272"
       style="stroke:none" />
    <g
       id="g276"
       style="stroke:none">
      <path
         d="m 1240.8,469.4 c 0,1.1 0,2.1 0,3.2 0,0.3 0.4,0.8 0.5,1 0.3,0.6 0.7,1.1 1.1,1.6 0.3,0.4 0.6,0.8 1,1.1 0.1,0.1 0.3,0.3 0.3,0.1 0,-1.1 0,-2.1 0,-3.2 0,-0.3 -0.4,-0.8 -0.5,-1 -0.3,-0.6 -0.7,-1.1 -1.1,-1.6 -0.3,-0.4 -0.6,-0.8 -1,-1.1 0,-0.1 -0.3,-0.4 -0.3,-0.1 z"
         id="path274"
         style="stroke:none" />
    </g>
  </g>
</svg>
