<?xml version="1.0" encoding="UTF-8" standalone="no"?>
<!-- Generator: Adobe Illustrator 16.0.0, SVG Export Plug-In . SVG Version: 6.00 Build 0)  -->

<svg
   version="1.1"
   viewBox="0 0 1400 980"
   sodipodi:docname="svg.svg"
   inkscape:version="1.1.2 (0a00cf5339, 2022-02-04)"
   id="svg1798"
   xmlns:inkscape="http://www.inkscape.org/namespaces/inkscape"
   xmlns:sodipodi="http://sodipodi.sourceforge.net/DTD/sodipodi-0.dtd"
   xmlns="http://www.w3.org/2000/svg"
   xmlns:svg="http://www.w3.org/2000/svg">
  <defs
     id="defs283" />
  <sodipodi:namedview
     id="namedview281"
     pagecolor="#ffffff"
     bordercolor="#666666"
     borderopacity="1.0"
     inkscape:pageshadow="2"
     inkscape:pageopacity="0.0"
     inkscape:pagecheckerboard="0"
     showgrid="false"
     inkscape:zoom="0.91734694"
     inkscape:cx="700.38932"
     inkscape:cy="490"
     inkscape:window-width="3440"
     inkscape:window-height="1369"
     inkscape:window-x="0"
     inkscape:window-y="34"
     inkscape:window-maximized="1" />
  <rect
     width="1400"
     height="980"
     id="rect2" />
  <g
     id="g1262">
    <g
       id="g6">
	<path
   fill="#FFFFFF"
   stroke="#000000"
   stroke-miterlimit="10"
   d="M315.8,266.9c-2.5-26.2-4.8-54.4,3.1-80   c3.8-12.2,10.2-23.8,20.2-32c0.8-0.7,6.2-4,2.2-1.8c3.7-2.1-2.2,0.4,0.7-0.3c-4,1-2.6,0.4-1.4,0.3c-3.8,0.2-2.4-0.1-1.3,0.1   c-3.5-0.5-2.1-0.5-1.1-0.1c1.6,0.6-2.5-1.5-0.2,0c2.6,1.7-0.6-0.9,1,0.9c0.8,0.9,1.5,2,2.2,3.1c1.6,2.5,1.8,3.2,3.3,7.5   c2.7,7.8,4.2,16,5.4,24.1c2.8,19.1,3.5,38.3,3.5,57.6c0.1,15.4,0.1,31.1-1.7,46.4c-1.5,13,24.6,9.4,25.9-2   c1.5-12.8,1.5-25.8,1.6-38.6c0.2-20.1-0.5-40.2-2.6-60.1c-1.7-15.7-3.8-33.1-12.4-46.7c-9.9-15.6-29.6-11.7-42.1-1.9   c-39.3,30.6-36.2,86-32,130.3c0.6,6.3,11,6.3,15.1,5.2C311.1,277.4,316.5,273.2,315.8,266.9L315.8,266.9z"
   id="path4" />

</g>
    <g
       id="g10">
	<path
   fill="#FFFFFF"
   stroke="#000000"
   stroke-miterlimit="10"
   d="M409.9,208.8c-28.2-9.5-58.1-14.2-87.8-15.6   c-31.3-1.5-63.3,1-93.4,9.6c-5.4,1.5-15.9,6.5-13.9,13.9c2,7.3,13.6,6.7,19,5.1c48.6-13.9,107.2-10,156.5,6.6   c7.4,2.5,17.9-0.8,23.2-6.2C418.9,216.9,416.6,211,409.9,208.8L409.9,208.8z"
   id="path8" />

</g>
  </g>
  <g
     id="g14">
	<path
   fill="#FFFFFF"
   stroke="#000000"
   stroke-miterlimit="10"
   d="M418.6,66.6c-8,4.2-4.7,9.9-1.2,15.6c4.3,7,9.2,13.7,14.1,20.3   c10.5,14.2,21.2,28.6,33.2,41.6c6.4,6.9,14.3,12.6,21.2,19c7,6.6,17.2,16.3,13.6,26.9c-0.5,1.4-1.7,2.6-2.8,3.5   c1.6-1.4-2.1,1.1,0.2-0.1c-1.2,0.6-2.4,1-3.6,1.5c1.9-0.7-5.5,1.2-4.4,1c-3.1,0.6-6.2,0.9-9.4,1.3c-11.1,1.2-22.3,1-33.4,2.5   c-4.8,0.6-10.8,2.6-13.6,6.8c-3.3,4.9,2.8,7.7,7,7.6c23.6-0.6,50.9,9.6,64.4,29.9c6,9,5.2,20-0.5,28.9c-3.9,6-9.7,10.7-15.6,14.7   c-3.2,2.2-6.6,4.1-10,5.9c-0.9,0.5-2,0.9-2.9,1.3c-0.9,0.4-1.7,0.7-2.6,1c1.3-0.4,1.2-0.4-0.3,0c-3.6,1,2.6-0.3-0.8,0.1   c3.6-0.4-1.7-0.5,1.5,0c-0.6-0.1-0.8-0.1-1.7-0.8c-3.1-2.5-4.4-6.2-5.5-9.8c-4-12.6-4.6-26.5-6.4-39.5   c-5.6-40.8-10.2-81.6-16.8-122.3c-0.3-1.6-0.5-3.3-0.8-4.9c-1.5-8.8-27.2-2.7-25.6,6.8c6.8,40.6,11.4,81.5,17,122.3   c1.9,14,2.9,28.4,6.5,42.1c2.3,9,6.9,16.9,16.2,19.6c12.9,3.8,27-2.5,38.3-8.3c13.8-7.2,28.3-17.6,35.8-31.6   c12.9-24-6.1-45.2-26.2-56.7c-16-9.2-35.5-13.9-54-13.4c-2.2,4.8-4.5,9.6-6.7,14.5c23.5-3.1,50.8,0.4,71.3-13.9   c10-6.9,15.1-18,9.7-29.5c-5.5-11.5-16.3-19.9-25.7-28c-12.8-11-22.9-24.4-33.1-37.6c-6.2-8-12.2-16.1-18-24.4   c-2.1-3-4.2-6.1-6.1-9.2c-0.3-0.5-0.4-0.6-1.1-2.1c-1.3-2.7,0.2-0.4-1.3,1.4c-1.3,1.2-2.6,2.4-4,3.6c0,0,0.1,0,0.1-0.1   c3.7-1.9,7.5-7.5,2.2-10.1C431,61.4,423.8,63.8,418.6,66.6L418.6,66.6z"
   id="path12" />

</g>
  <g
     id="g18">
	<path
   fill="#FFFFFF"
   stroke="#000000"
   stroke-miterlimit="10"
   d="M615.8,201c3.3-16.2,0.6-33.4-9.8-46.5   c-10.1-12.8-27.4-12.9-40.2-4.2c-11.3,7.8-17,21.8-21,34.4c-5.1,16.2-6.7,32.8-4.5,49.7c3.2,25.3,20.5,68.4,53.3,54.7   c21.7-9.1,30.6-37.1,39-57c5.4-12.6-20.3-10.9-24.1-1.8c-6.4,15-12.2,32.9-23.9,44.6c-1,0.9-1.1,1-0.3,0.3   c-0.6,0.4-1.1,0.8-1.7,1.2c0.8-0.6,1.7-1,2.6-1.2c3.2-1.1-0.7-0.4,2.2-0.2c1.6,0.1,0.2-0.3-1.3-1.3c-1.6-1.1-2.9-3.1-4.1-4.6   c-7.9-10.1-12.5-23.1-15.1-35.5c-4.7-22.3-0.7-48.3,10.9-68c0.8-1.4,1.7-2.7,2.8-4c1-1.2,3.2-2.6,1.8-1.9c-2,1-6.9-0.2-4.2,1.3   c2.2,1.3,3.9,3.5,5.4,5.5c8,10.1,8.8,24.7,6.4,36.9C587.8,214.9,613.7,211.1,615.8,201L615.8,201z"
   id="path16" />

</g>
  <g
     id="g1268">
    <g
       id="g22">
	<path
   fill="#FFFFFF"
   stroke="#000000"
   stroke-miterlimit="10"
   d="M626.4,124.2c7.9,14,16.8,27.4,26.5,40.3c9.9,13,20.9,26.1,34,36   c9.6,7.2,21.2,11.9,31.6,17.8c4.6,2.6,9.3,5.4,13.3,9c1,0.9,3,3.2,3.3,3.6c0.2,0.5,0.3,1,0.5,1.5c0.3,1.2,0.3-1.6-0.1,0.4   c0,0.1,0.4-0.6,0.3-0.5c-0.6,0.6-2.3,1.7,0.4-0.2c-0.6,0.4-1.2,0.8-1.8,1.1c3.5-2.1-1.2,0.5-2.2,0.9c-0.7,0.3-3.6,1.3-0.1,0.1   c-1.3,0.4-2.5,0.8-3.8,1.2c-4.3,1.3-8.7,2.2-13.1,3.1c3-0.6-1,0.2-1.3,0.2c-1.2,0.2-2.5,0.4-3.7,0.6c-2.9,0.5-5.9,0.9-8.8,1.4   c-17.4,2.5-35.1,3.4-52.4,6.4c-2.1,0.4-4.1,0.7-6.2,1.2c-4,1-12.4,4.8-10.9,10.4c1.5,5.6,10.7,4.6,14.6,3.5c3.3-0.9-3.5,0.6-0.2,0   c1.3-0.2,2.7-0.4,4-0.6c3.9-0.5,7.8-0.9,11.7-1.4c9.9-1.1,19.9-2.2,29.8-3.5c19.8-2.6,42-5.1,59.5-15.4c5.6-3.3,11.9-9.6,9.7-16.7   c-3.1-9.8-16.8-16.1-24.9-20.7c-10.2-5.7-21.8-10.3-30.7-18c-12.8-11.2-23.7-24.7-33.6-38.4c-7.8-10.7-15-22-21.5-33.5   C645.6,106.1,620.8,114.3,626.4,124.2L626.4,124.2z"
   id="path20" />

</g>
    <g
       id="g26">
	<path
   fill="#FFFFFF"
   stroke="#000000"
   stroke-miterlimit="10"
   d="M639.3,146.5c16.4,40.5,17.5,83.3,16.3,126.3   c-0.3,12.2,25.5,7.6,25.7-2.5c1.2-44.4,0.4-88.9-16.5-130.7C660.6,129.3,635.3,136.7,639.3,146.5L639.3,146.5z"
   id="path24" />

</g>
  </g>
  <g
     id="g30">
	<path
   fill="#FFFFFF"
   stroke="#000000"
   stroke-miterlimit="10"
   d="M851.6,204c2.1-30.5-24.1-74.2-59-66.1   c-18.3,4.2-36.1,22.4-28.8,42c6,16.1,22.5,28.1,36.7,36.7c5.8-5.2,11.5-10.5,17.3-15.7c-17.7-7.3-38.9-2.5-48.1,15.2   c-7.7,14.7-3,33.8,6.9,46.2c10.6,13.3,28.8,17.7,44.7,12.7c17.5-5.6,28.8-20.3,31.4-38.2c1.9-12.7-24.2-9.2-25.9,2.1   c-0.7,4.7-1.9,9.6-4.6,13.5c-3.1,4.4-3.9,4.7-7.7,6.4c1.4-0.5,1.4-0.6-0.1-0.1c-3.7,1,2.5-0.2-1.2,0.1c-1,0.1-1.8-0.1-3.3-0.5   c-3.7-1.1-7.1-3.8-9.9-7c-6.8-7.9-9.4-18.5-7.3-28.7c0.3-1.7,1.1-3.2,1.9-4.8c0.8-1.6,1.7-2.1,2.6-2.7c-0.5,0.5-1.1,0.8-1.8,0.9   c3.4-1.2-2.2,0,1.6-0.2c-1.4,0.1,0.5,0.2,1.1,0.3c1.7,0.4,3.3,1.1,4.9,1.8c5,2.1,11.7,0.2,15.8-2.8c4.1-3,7-9.6,1.5-12.9   c-10.9-6.6-21.4-14.4-28.6-25c-3-4.4-4.3-9.2-3.2-14.4c0.5-2,2.8-4.2,4.2-5.5c-0.2,0.1,3.7-2.5,1.9-1.5c0.9-0.5,1.6-0.7,0.3-0.5   c0.4-0.1,4,0,1.3-0.1c3.3,0.2-1.7-0.6,1.6,0.3c2.3,0.7,3.7,1.6,6.1,3.3c4.9,3.5,8.6,8.7,11.8,13.7c6.1,9.5,10.9,22.1,10.2,33.4   C824.9,219.1,850.8,215.3,851.6,204L851.6,204z"
   id="path28" />

</g>
  <g
     id="g1274">
    <g
       id="g34">
	<path
   fill="#FFFFFF"
   stroke="#000000"
   stroke-miterlimit="10"
   d="M911.9,277.9c-0.3-9.7-2.9-18.3-6-27.4   c-3.2-9.5-5.2-19.4-6.3-29.4c-1.9-18.1,0.6-37.3,6-54.7c1.5-4.8,3.8-10.2,7-13.4c-1.7,1.7-5.9,3.1-8.2,2c3.4,1.7,5.7,5,7.9,7.9   c10.8,14.2,10.4,33.3,18,49.1c2.6,5.6,9.5,5.8,14.9,4.4c3.6-1,13.3-5.7,10.7-11.2c-4.5-9.5-6.4-19.8-9.1-29.8   c-2.8-10.3-7.5-19.8-14.6-27.8c-13.7-15.3-35.4-9.9-45.7,6.1c-9.9,15.3-12.3,37.6-12.9,55.2c-0.5,12.9,1,25.9,4,38.5   c2.6,11,8.4,21.6,8.7,33.1C886.5,292.7,912.2,288,911.9,277.9L911.9,277.9z"
   id="path32" />

</g>
    <g
       id="g38">
	<path
   fill="#FFFFFF"
   stroke="#000000"
   stroke-miterlimit="10"
   d="M879.7,220.1c-2.9,0-5.9,0-8.8,0c-2,5.7-4,11.4-6,17.2   c17-2.3,33.7-5.8,50.9-3.8c5.9,0.7,13.8-2.1,16.7-7.5c3-5.6-2.6-9.1-7.5-9.7c-19.4-2.3-38.3,1.2-57.4,3.8c-5,0.7-10.9,2.7-13.5,7.5   c-2.8,5.3,2.4,9.7,7.5,9.7c2.9,0,5.9,0,8.8,0c6.1,0,13.5-1.6,16.7-7.5C890,224.5,884.7,220.1,879.7,220.1L879.7,220.1z"
   id="path36" />

</g>
  </g>
  <g
     id="g42">
	<path
   fill="#FFFFFF"
   stroke="#000000"
   stroke-miterlimit="10"
   d="M1107,156.6c-12.6-24.6-46.9-19.5-68.7-12.1c2.3-0.8-9.2,3-2.9,1   c-2.1,0.7-4.2,1.4-6.2,2.2c-3.3,1.3-6.4,3.1-9.5,4.8c-6.3,3.5-12.1,8.3-17.4,13.1c-10.8,9.9-19.9,22-26.8,34.8   c-11.3,20.9-18.1,50.8,2,69c19.2,17.3,49.7,13.1,71.9,5c26.7-9.8,63.9-44.7,42.5-74.5c-11.3-15.8-33.4-12.8-49.2-7.3   c-14.6,5.1-27.9,15.7-38.8,26.4c-4.4,4.4-3.3,9.5,2.9,11c6.7,1.5,15.7-0.6,20.7-5.5c8.4-8.3,17.2-15.2,27-19   c-3.3,1.3,3-0.6-0.7,0.1c0.2,0,4.7-0.3,1.9-0.3c1.5,0,2,0.2,4.4,1.5c5.5,3,9,10.8,8.9,16.8c-0.1,7.2-3.6,13.6-7.6,19.4   c-1.9,2.8-4.1,5.2-6.5,7.6c-1.2,1.2-2.5,2.3-3.8,3.4c-0.6,0.5-1.2,1-1.8,1.5c1-0.8,1-0.8-0.3,0.1c-1,0.7-2.1,1.4-3.1,2   c-0.3,0.2-4,2.2-1.1,0.7c-2.3,1.2-4.7,2.2-7.1,3.1c3.4-1.3-0.6,0.2-1.2,0.3c-1.3,0.4-2.5,0.7-3.8,1c-0.5,0.1-4.8,0.9-1.2,0.3   c-1.7,0.3-3.4,0.5-5.2,0.7c-4.2,0.4,2.8,0-1.4,0.1c-1.3,0-2.5,0-3.8-0.1c-0.1,0-4.2-0.4-1.7-0.1c-1.2-0.2-2.4-0.4-3.6-0.7   c-3.7-0.8-7.7-2.5-11.2-5.4c-8.2-6.8-11.3-18.2-10.6-28.5c1.8-24.8,20.7-51.6,40.3-65c1.2-0.8,2.5-1.6,3.7-2.3   c3.9-2.3-2.3,1,1.7-0.8c0.5-0.2,4.6-1.7,1.1-0.5c-1.9,0.6,9.3-3.2,2.6-0.9c2.1-0.7,4.3-1.3,6.4-1.9c1.2-0.3,2.5-0.6,3.7-0.9   c4.3-1-3.1,0.5,1.3-0.2c1.4-0.2,2.7-0.4,4.1-0.5c0.1,0,4.7-0.3,1.9-0.2c2.8-0.1,5,0.2,6.2,0.5c4.2,0.8,8.5,3.6,10.7,8.1   C1083.1,174.9,1111.6,165.6,1107,156.6L1107,156.6z"
   id="path40" />

</g>
  <g
     id="g1282">
    <g
       id="g46">
	<path
   fill="#FFFFFF"
   stroke="#000000"
   stroke-miterlimit="10"
   d="M316.6,325.4c-2.4,9.8,2.2,20.5,5.2,29.6   c3.9,11.7,8.1,23.4,11.6,35.3c4.2,14.4,5.1,29.8,5.6,44.7c0.7,20.9-1.2,41.8-6.4,62.1c-2.3,8.8,2.7,18.3,10.8,22.3   c7.2,3.6,17.3,1.6,19.5-7.2c5.3-20.7,7.8-42,7.8-63.4c0-18-0.9-37.3-5.2-54.8c-2.8-11.5-7-22.8-10.8-34c-1.8-5.5-3.7-10.9-5.3-16.5   c-0.6-2-1.2-4.1-1.7-6.2c-0.2-0.9-0.4-1.7-0.5-2.6c0.3,3.3,0.4,4.3,0.3,2.8c0.1-1.5-0.1-0.5-0.5,3c2.2-8.9-2.7-18.2-10.8-22.3   C329,314.7,318.8,316.6,316.6,325.4L316.6,325.4z"
   id="path44" />

</g>
    <g
       id="g50">
      <path
         fill="#FFFFFF"
         stroke="#000000"
         stroke-miterlimit="10"
         d="M402.1,338.6c-6.5,22.6-3.9,47.6-1.3,70.6   c2.9,25,7.6,49.8,11.9,74.6c1.9,10.6,36.5,9.9,35.3,2.8c-4.3-24.8-9-49.5-11.9-74.6c-2.7-22.9-5.2-48.1,1.3-70.6   C439.5,334.2,405,328.5,402.1,338.6L402.1,338.6z"
         id="path48" />
    </g>
    <g
       id="g54">
	<path
   fill="#FFFFFF"
   stroke="#000000"
   stroke-miterlimit="10"
   d="M351.2,404.2c31.9,0,63.7,0,95.6,0c5.2,0,20.7-1.2,20.7-9.3   c0-8.1-15.4-9.4-20.6-9.4c-31.9,0-63.7,0-95.6,0c-5.2,0-20.7,1.2-20.7,9.3C330.6,403,346,404.2,351.2,404.2L351.2,404.2z"
   id="path52" />

</g>
  </g>
  <g
     id="g66">
	<path
   fill="#FFFFFF"
   stroke="#000000"
   stroke-miterlimit="10"
   d="M489.7,441.4c-5.9,0.1-12.3,0.7-17.4,3.9c-4,2.5-0.8,5.3,2.4,6.4   c6.3,2.2,14.7,2.3,20.9-0.2c17-6.7,34.7-11.2,52.5-15.7c2.9-0.7,11-3.9,5.2-7.3c-5.5-3.3-14.2-3.2-20.2-1.7   c-19.7,4.9-39.5,9.9-58.4,17.4c7.7,2.1,15.5,4.2,23.2,6.3c-2.7,0.5-5.3,1-8,1.6c2.9-0.1,14.7-0.4,14.7-5.5   C504.5,441.6,492.7,441.3,489.7,441.4L489.7,441.4z"
   id="path64" />

</g>
  <g
     id="g1296">
    <g
       id="g70">
	<path
   fill="#FFFFFF"
   stroke="#000000"
   stroke-miterlimit="10"
   d="M572.7,334.4c0.6-0.5,1.1-0.9,1.7-1.3c-2.8,2.1,0.4-0.1,1-0.4   c1.1-0.6,2.3-1.1,3.5-1.6c-3.2,1.3,1.2-0.3,1.5-0.4c2.8-0.8,5.8-1.4,8.7-1.9c-2.8,0.5,2.3-0.2,2.3-0.2c1.6-0.2,3.2-0.2,4.8-0.3   c11.1-0.6,21.1,0.6,30.7,6.3c13.1,7.9,32-11.8,16.1-21.3c-13.1-7.8-29.9-9.5-44.8-9c-15.5,0.5-32.5,4.2-44.9,14   c-5.3,4.2-6.8,12.3-1.1,16.9C558,340.1,567,338.9,572.7,334.4L572.7,334.4z"
   id="path68" />

</g>
    <g
       id="g74">
	<path
   fill="#FFFFFF"
   stroke="#000000"
   stroke-miterlimit="10"
   d="M574.7,329.5c8.6,14.8,12.5,33.9,15.2,51.6   c2.8,18.8,3.5,38,3.4,57c-0.1,16.6-0.4,34.1-7.9,49c-0.9,1.7-3.9,5-5.1,6c-1.4,0.9-1.6,1.1-0.7,0.6c-1,0.6-2.1,1.2-3.1,1.7   c-1.8,0.6-2,0.8-0.8,0.5c-3.9,1.1,2.4,0.3-1.3,0.1c1.5,0.1,4.8,2.2,3,0.7c0.8,1.1,0.8,1.1-0.1-0.2c-1.9-2.7,0.3,1.6-0.9-1.7   c-1.5-4-1.4-7.5-0.9-12.1c-5.1,3.8-10.2,7.6-15.3,11.4c-5.6-0.4-8-4.4-4.4-0.5c10.7,11.5,34.4-2.5,21.6-16.1   c-4.5-4.9-9.4-7.1-16.2-7.6c-7.1-0.5-14.5,3.9-15.3,11.4c-1.2,11.6,1.4,24.3,10.7,32.2c11.1,9.4,26.4,7.7,38.3,1   c21.9-12.5,26-38,27.6-61.1c1.6-22.7,0-46.2-2.7-68.8c-2.7-22.8-7.4-46.1-19-66.2C593,305.2,565.8,314.1,574.7,329.5L574.7,329.5z"
   id="path72" />

</g>
  </g>
  <g
     id="g1290">
    <g
       id="g58">
	<path
   fill="#FFFFFF"
   stroke="#000000"
   stroke-miterlimit="10"
   d="M481.2,352.7c5.2,13.9,4.5,29.9,4.7,44.5   c0.3,16.6,0.2,33.7,4.7,49.9c0.2,0.8,27.7-8.8,26.7-12.6c-4.5-16.1-4.4-33.2-4.7-49.9c-0.2-14.6,0.4-30.6-4.7-44.5   C507.3,338.6,480.1,349.7,481.2,352.7L481.2,352.7z"
   id="path56" />

</g>
    <g
       id="g62">
	<path
   fill="#FFFFFF"
   stroke="#000000"
   stroke-miterlimit="10"
   d="M464.3,338.6c-2.4,1.2-4.7,2.4-7.1,3.5c-7,3.5,7,26.9,14,25.4   c22.7-4.7,45.7-8.2,68.4-13c9.3-1.9-4.5-27.4-12.3-25.8c-22.7,4.7-45.7,8.2-68.4,13c4.7,8.5,9.3,17,14,25.4   c2.4-1.2,4.7-2.4,7.1-3.5C486.9,360.1,472.3,334.6,464.3,338.6L464.3,338.6z"
   id="path60" />

</g>
    <g
       id="g78">
	<path
   fill="#FFFFFF"
   stroke="#000000"
   stroke-miterlimit="10"
   d="M474.9,448.6c-2.7,6.4,1.7,12.4,8.3,12.9c7.4,0.6,14-2,20.8-4.6   c1.1-0.4,2.1-0.8,3.2-1.2c3.3-1.2-3.2,1-0.5,0.2c4.9-1.4,9.8-3.3,14.7-4.9c9.8-3,19.5-6,29.1-9.4c5.4-1.9,12.1-9,9.3-15.2   c-3.1-6.8-12.2-4.9-17.6-3c-11.3,4-23,7-34.3,10.9c-8.2,2.8,1.8-0.7-7.2,2.5c-1.7,0.6-3.3,1.2-4.9,1.9c-0.8,0.3-1.5,0.6-2.3,0.8   c1.8-0.6,2-0.7,0.4-0.2c-0.7,0.2-1.4,0.4-2,0.6c5.3-1.4,8.3,12.1,10.4,7.2c2.8-6.7-5.2-10.5-10.5-10.3   C484.4,437.3,477.8,441.8,474.9,448.6L474.9,448.6z"
   id="path76" />

</g>
  </g>
  <g
     id="g1304">
    <g
       id="g82">
	<path
   fill="#FFFFFF"
   stroke="#000000"
   stroke-miterlimit="10"
   d="M676.6,355.1c0.1-5.1,3.8-18.9,11.1-17.7   c-7.1-4.2-14.2-8.4-21.3-12.6c0.5,4.9-1.8,8.2-4.5,12.1c-3.1,4.5-4.5,9.6-5.8,14.8c-2.8,11-2.7,22.5-2.7,33.8   c-0.1,23.1,0.1,47.1,12.7,67.3c3.3,5.3,11.7,8.7,17.4,10.3c2.8,0.8,10.9,2,7.5-3.3c-11.7-18.7-11-42.8-11-64   c0-11.1,0.3-21.9,3-32.8c1.3-5.2,3.1-9.8,6.2-14.3c3-4.4,4.3-8.2,3.7-13.5c-0.3-3.1-5.7-6.1-7.8-7.4c-4.1-2.5-8.7-4.5-13.4-5.2   c-14.5-2.3-21.5,9.3-21.9,22.4c-0.1,4.8,11.6,9.6,14.9,10.9C667.3,356.6,676.4,360.2,676.6,355.1L676.6,355.1z"
   id="path80" />

</g>
    <g
       id="g86">
	<path
   fill="#FFFFFF"
   stroke="#000000"
   stroke-miterlimit="10"
   d="M687.8,398.2c15.7-11.7,27.8-27.9,41-42.2   c12.7-13.8,27.4-29,46.3-33.3c-7-6.7-14-13.3-21-20c0.9,16.5-5.6,32.1-7.1,48.4c-0.4,4.6,8.4,11.8,11.3,14.4   c0.8,0.7,9.6,8.5,9.9,4.7c1.5-16.3,8-31.9,7.1-48.4c-0.2-4.1-5.9-9.1-8.5-11.7c-2.5-2.5-8.4-9.3-12.5-8.3   c-18.9,4.4-33.6,19.6-46.3,33.3c-13.3,14.3-25.3,30.5-41,42.2C664.4,379.2,683.3,401.5,687.8,398.2L687.8,398.2z"
   id="path84" />

</g>
    <g
       id="g90">
	<path
   fill="#FFFFFF"
   stroke="#000000"
   stroke-miterlimit="10"
   d="M671.1,389c24.2,32.5,44.7,69.1,76.8,94.6   c4.6,3.7,14,6.4,19.1,2.1c5.5-4.7-0.5-11.6-4.4-14.7c-27.5-21.8-46-56.4-67.1-84.7c-4.3-5.7-11.4-9.9-18.8-9.1   C670.7,378,667.1,383.8,671.1,389L671.1,389z"
   id="path88" />

</g>
  </g>
  <g
     id="g94">
	<path
   fill="#FFFFFF"
   stroke="#000000"
   stroke-miterlimit="10"
   d="M781.8,314.2c0,10.1,3.3,17.7,13,22.1c7.4,3.4,18.4,1.9,21.8-6.5   c3.4-8.3,3.1-14.7-2.4-22c-7.9-10.4-29.8-6.9-27.2,8.4c3.5,20.2,6.6,40.6,5.4,61.2c-1.2,21.3-9.1,41.1-21.4,58.4   c-7.5,10.6,6.3,19.9,16.2,17.6c27.8-6.5,56.2-4.4,84.6-4.4c6.8,0,14.7-3.7,15-11.4c0.9-20.5-16.9-36.8-22.9-55   c-4.7-14.2-33.7-10.1-28.6,5.5c3,9.3,8.4,17.8,13.2,26.3c2.2,3.8,4.3,7.6,6,11.6c2,4.5,2.9,7.1,2.7,10.9c5-3.8,10-7.6,15-11.4   c-30.9-0.1-62.1-2-92.4,5c5.4,5.9,10.8,11.8,16.2,17.6c14.3-20,23.1-42.2,25.5-66.7c2.3-23.7-2-47.7-6.1-71   c-9.1,2.8-18.1,5.6-27.2,8.4c1.7,2.3,1.8,4.9,1.4,0.5c0.4-1.3,0.3-1.2-0.2,0.3c-0.4,1-0.8,2-1.2,3c7.3-2.2,14.6-4.3,21.8-6.5   c-3.7-1.7,0.7,0.6,1.3,2.1c0,1.2,0,1-0.1-0.6c0-1,0-2,0-3C811.3,299.3,781.8,298.7,781.8,314.2L781.8,314.2z"
   id="path92" />

</g>
  <g
     id="g1310">
    <g
       id="g98">
	<path
   fill="#FFFFFF"
   stroke="#000000"
   stroke-miterlimit="10"
   d="M892.7,309.9c1.3,39,2.7,79.5,15.3,116.8c2.5,7.5,30.6,3,29.5-0.1   c-12.6-37.3-14.1-77.8-15.3-116.8C922,303.7,892.6,304.2,892.7,309.9L892.7,309.9z"
   id="path96" />

</g>
    <g
       id="g102">
	<path
   fill="#FFFFFF"
   stroke="#000000"
   stroke-miterlimit="10"
   d="M895.7,312.8c19.1,18.3,26.1,45.7,42.5,66.1   c2.8,3.5,9.4,4.6,13.4,5.4c2.7,0.5,13.6,3,15.2-0.9c5-11.9,10.8-23.6,16.8-35c6.9-13.3,14.2-28.4,25.2-38.8   c0.8-0.8,1.8-1.5,2.7-2.2c0.6-0.4,3.2-1.4,1.3-0.8c0.1,0,0.3-0.1,0.4-0.1c-7.4,1.1-14.7-0.3-21.8-4.3c1.2,0.7-1.1-1.2-0.1-0.1   c0.7,0.8,1.1,1.7,1.5,2.7c1.2,2.9,1.4,6.4,1.6,9.5c0.6,8.3-0.2,16.7-1.2,24.9c-4.1,33.4-16.4,66.3-8.2,100.1   c1.1,4.4,10.2,5.8,13.8,6.5c0.9,0.2,16,2.3,15.2-0.9c-8.4-34.4,4.3-68.2,8.4-102.2c1.3-11,2.4-23.2-1.2-33.9   c-3.4-10.1-20.3-11.4-28.8-11.2c-13.1,0.2-21.5,17-27.3,26.6c-8.6,14.2-16,29.2-23,44.3c-1.5,3.1-2.9,6.3-4.2,9.5   c9.5,1.5,19.1,3,28.6,4.5c-16.4-20.4-23.4-47.8-42.5-66.1c-4.3-4.1-11.6-5.3-17.3-6C906.2,310.2,892.5,309.8,895.7,312.8   L895.7,312.8z"
   id="path100" />

</g>
  </g>
  <g
     id="g106">
	<path
   fill="#FFFFFF"
   stroke="#000000"
   stroke-miterlimit="10"
   d="M346.1,662.9c-5-35.9-30.1-66-31.6-102.6   c-9.3,0.6-18.5,1.2-27.8,1.8c14,20.1,26.4,41.4,41.4,60.8c13.8,17.9,32,39.1,56.2,40.9c9.2,0.7,18.6-1.4,24.6-8.9   c3.6-4.5,4.6-10.9,4.8-16.5c0.6-16.2-4.1-33-8.8-48.4c-3.7-12.4-8.2-24.5-13.1-36.5c-1.4-3.4-2.9-6.8-4.5-10.1   c-4-8.1-13-12.3-22.2-9.5c-5.1,1.6-10.9,6-6.5,11.7c4.2,5.3,13.5,7.1,19.8,5.2c0,0,0,0,0,0c-4.9-0.5-9.9-1-14.8-1.5   c-6-2.8-5.9-5.3-4.7-3.4c0.4,0.7,1,1.9-0.9-1.6c0.3,0.5,0.6,1.1,0.8,1.6c0.9,1.9,1.8,3.9,2.6,5.9c2.6,6,5,12.2,7.3,18.3   c5.8,15.8,11,32,14.1,48.6c1.2,6.5,2,12,1.3,19.7c-0.1,1.4-0.3,2.7-0.6,4c-0.7,3.1,0.3-0.3-0.5,1.7c-0.4,1-1,1.9-1.6,2.8   c1.7-2.3,0.9-1.1,0.3-0.5c-2,1.9,2-1,0.4-0.1c-0.9,0.5-2.8,0.9,1.2-0.3c-1.1,0.3-3.2,0.4,1.4-0.1c-3.2,0.4,4,0.5-0.6-0.1   c4.8,0.7,2,0.4,0.9,0.1c-0.9-0.2-3.3-1.4,0,0.1c-1-0.4-2-1-3-1.5c2.3,1.2-1.8-1.2-2.2-1.5c-9.6-6.7-17.1-15.9-24.4-25.1   c-15.6-19.7-28.1-41.5-42.4-62.1c-3.3-4.7-10.9-6.1-16.2-5.8c-3.7,0.2-11.8,2.3-11.6,7.5c0.8,19.1,6.7,36.7,14.2,54.1   c7.4,17.3,15.4,34.5,18,53.3c0.9,6.6,12.6,8.4,17.4,8C340.6,672.4,347,669.6,346.1,662.9L346.1,662.9z"
   id="path104" />

</g>
  <g
     id="g110">
	<path
   fill="#FFFFFF"
   stroke="#000000"
   stroke-miterlimit="10"
   d="M449.4,544.1c-20.8,6.9-29.2,27.4-28.6,48.1   c0.7,24.2,12.4,48.7,32.2,63c9.4,6.8,22.5,11.3,33.7,6.6c10.7-4.5,17.4-14.7,21.9-25.1c9.6-22.4,6.7-46-4-67.4   c-8.1-16.3-19.6-31.2-36-39.9c-14.4-7.6-29.8-3.5-41.2,7.2c-7.9,7.4,11,30,18.4,23c4-3.7,8.3-7,13.6-8.6c1.7-0.5,4.1-0.9,5.7-0.9   c2.5,0.1,5,0.8,6.1,1.2c1.1,0.4,2.1,1,3.1,1.5c-2.2-1.2,1.1,0.9,1.2,1c3.3,2.3-2-1.8,1,0.8c1,0.8,1.8,1.8,2.7,2.7   c-2.5-2.5,0.5,0.7,0.8,1c0.9,1,1.6,2.1,2.4,3.2c-2-2.7,0.6,1,0.8,1.3c1,1.6,1.9,3.2,2.7,4.8c-1.2-2.3,0.8,1.7,0.8,1.8   c0.6,1.3,1.1,2.5,1.6,3.8c1,2.4,1.7,4.6,2.1,6c1.5,5.1,2.3,10,2.3,14.5c0.2,10.5-3.9,21.5-9,30.6c-4.7,8.3-12.9,15.8-23,14.1   c-2.2-0.4-4.3-1.5-6.3-2.5c3,1.5-4.9-3.9-1.6-1.1c-0.8-0.7-1.6-1.5-2.4-2.3c2.8,2.8,0.2,0.1-0.3-0.5c-0.4-0.5-2.6-3.7-0.5-0.5   c-0.9-1.3-1.6-2.7-2.4-4.1c-1.9-3.5,1.1,2.5-0.5-1.1c-0.5-1.1-0.9-2.2-1.4-3.4c0-0.1-1.3-3.8-0.6-1.6c-0.4-1.2-0.7-2.4-1-3.6   c-1.3-5.3-1.7-9.1-1.6-14.3c0.1-8.7,2.2-18.1,7.6-25.1c3.5-4.5,8.4-8,13.8-9.8C475.2,565.1,458.7,541,449.4,544.1L449.4,544.1z"
   id="path108" />

</g>
  <g
     id="g114">
	<path
   fill="#FFFFFF"
   stroke="#000000"
   stroke-miterlimit="10"
   d="M558.2,695.7c15.1-26.4,15-57.3,8.9-86.3   c-6.2-29.3-18.5-57.7-34.7-82.9c-8.3,1.2-16.6,2.4-24.9,3.6c19.3,7.4,38.4,15.5,55.4,27.6c8.5,6.1,16,13.2,22.5,21.4   c4.1,5.2,9,11.7,9.8,18.5c0.2,1.6-0.2,3.7-0.6,4.5c-0.4,0.7-1,1.4-1.6,2c-0.4,0.4-0.3,0.4-1.9,1.2c-0.4,0.2-3.5,1.5-1.3,0.7   c-1.1,0.4-2.2,0.7-3.3,1.1c-2.8,0.8-5.6,1.5-8.5,2.1c-12.4,2.8-25.6,5.6-35,14.7c-4.1,4,8.3,7,9.9,7.2c5.3,0.9,14,1.6,18.3-2.6   c8.3-8,20.5-8.8,32-11.6c9-2.2,22.7-6.5,21.3-18.2c-0.9-7.6-6.1-14.6-10.6-20.6c-6.7-8.8-15-16.5-23.8-23.1   c-18.4-13.8-40-22.9-61.3-31.1c-5.6-2.2-11.8-2.9-17.8-2c-2,0.3-9.6,1.8-7.2,5.6c15.7,24.4,27.5,51.6,33.8,80   c6,27.4,6.7,58.5-7.6,83.6C526,698,554.3,702.4,558.2,695.7L558.2,695.7z"
   id="path112" />

</g>
  <g
     id="g1424">
    <g
       id="g118">
	<path
   fill="#FFFFFF"
   stroke="#000000"
   stroke-miterlimit="10"
   d="M704.4,516.7c-35.7-5.1-58.9,31.3-65.3,62.1   c-3.1,15.1-2.4,32,7,44.9c5.3,7.3,13.6,11.5,21.8,14.6c13.4,5.1,28.2,9,42.6,7.5c18.6-2,33.6-15.6,41.8-31.7   c7.5-14.8,10.8-35.8,3.3-51.2c-6.6-13.8-20.1-25-33.8-31.2c-10.2-4.6-23.4-9.5-34.8-8.3c-7,0.7-9.9,7.5-10.9,13.5   c-0.7,4.1,28,10.3,28.3,8.5c0.7-4.2,1.9-8.2,5.1-11c1.2-1.1,2.8-1.5,4.4-1.8c0.3-0.1,1.7,0,0.4-0.2c-16.3-2.1-16.6-5.8-11.5-3.1   c8.6,4.7,16,12.4,21.6,20.3c12.9,18.3,6.6,46-4.8,63.4c-6.6,10.1-16.3,17.9-27.7,21.7c-5.5,1.8-11.4,2.5-17.2,2   c0.7,0.1-2.8-0.6-0.2,0c2.5,0.5,5.1,1.3,7.5,2.2c3.2,1.2-0.9-0.7-1.9-1.4c-12.9-9.3-15.6-26.4-14.3-41.2c1.5-17.6,8.7-35,19.2-49   c5-6.7,11.2-12.6,18.4-16.9c3.3-2,7-3.4,10.8-4.3c1.7-0.4,3.4-0.6,5.1-0.8c1.1-0.1,4.8,0.2,4,0c0.2,0,4.2,0.9,4.5-0.1   c0.3-1-3.5-2.5-3.7-2.6C718.2,519.9,711.2,517.7,704.4,516.7L704.4,516.7z"
   id="path116" />

</g>
    <g
       id="g122">
	<path
   fill="#FFFFFF"
   stroke="#000000"
   stroke-miterlimit="10"
   d="M718.4,597.1c-2.5-1.4-4.6-3.3-7.1-4.7   c-7.6-4.5-34.5,4.8-23.1,13.1c25.8,18.8,54.5,42.6,63.3,74.7c2.8,10.2,31.4,3.1,28.7-6.7c-9.6-35.2-40.6-60.5-68.9-81.1   c-7.7,4.4-15.4,8.8-23.1,13.1c2.5,1.4,4.6,3.3,7.1,4.7c5.7,3.4,14.9,1,20.3-2C719.8,605.8,724.2,600.5,718.4,597.1L718.4,597.1z"
   id="path120" />

</g>
  </g>
  <g
     id="g1432">
    <g
       id="g126">
	<path
   fill="#FFFFFF"
   stroke="#000000"
   stroke-miterlimit="10"
   d="M751.9,510.4c11.2,17.8,19.9,36.8,25,57.1   c5.1,20,6.4,40.8,6.4,61.4c0,2.7,12.3,4.7,14,5c0.9,0.2,14.9,2.9,14.9,1c0-21.3-1.6-42.4-6.9-63.1c-5.1-20.3-14.3-39.1-25.4-56.7   c-0.9-1.4-5.1-2.2-6.4-2.6c-3.6-1.1-7.4-1.9-11.1-2.5C761.5,509.9,750.4,508.1,751.9,510.4L751.9,510.4z"
   id="path124" />

</g>
    <g
       id="g130">
	<path
   fill="#FFFFFF"
   stroke="#000000"
   stroke-miterlimit="10"
   d="M769.5,527.6c11.3-0.7,23.6,2.1,33.9,5.9c3.1,1.1,6.1,2.5,9.1,3.9   c4.1,2,4.7,2.4,7.3,4.2c3.4,2.4,3.6,2.7,6.5,6c0,0,2.9,4.1,1.5,1.8c0.5,0.7,0.9,1.5,1.3,2.3c-0.5-1.3-0.5-1.3,0.1,0.1   c0.2,0.5,0.7,3.8,0.4,1c0.1,0.5-0.2,3.6,0.2,0.9c-0.1,0.9-0.5,1.8-0.8,2.7c-0.5,1.2-0.5,1.2,0.1-0.1c-0.3,0.6-0.7,1.1-1.1,1.6   c-0.6,0.8-1.3,1.6-2,2.3c-0.9,0.9-1,1-0.2,0.2c-0.6,0.5-1.1,1-1.7,1.4c-2.2,1.7-4.6,3.1-7.1,4.5c-8.9,4.9-20,8-30.7,10.9   c-16.4,4.5,0.3,27.9,13.6,24.2c22.4-6.1,64.7-17.9,55.2-49.5c-5.5-18.3-23.9-31.1-40.5-38.4c-15.9-6.9-34.8-12.1-52.3-11.1   C743.9,503.7,755.3,528.5,769.5,527.6L769.5,527.6z"
   id="path128" />

</g>
    <g
       id="g134">
	<path
   fill="#FFFFFF"
   stroke="#000000"
   stroke-miterlimit="10"
   d="M825.3,593.7c27.5,10.4,47.6,34.6,71.2,51.3   c4.4,3.1,13.1,5.4,15.8-1.2c2.8-6.6-2.8-14.1-7.9-17.7c-25.7-18.2-47.5-43.5-77.5-54.9c-5.4-2-12.8-1.6-13.3,5.7   C813.1,583.7,819,591.3,825.3,593.7L825.3,593.7z"
   id="path132" />

</g>
  </g>
  <g
     id="g138">
	<path
   fill="#FFFFFF"
   stroke="#000000"
   stroke-miterlimit="10"
   d="M950.4,531.7c6-11.3,5.1-26.2,7.7-38.4   c1.6-7.7-12.7-15.8-18.6-16.4c-11-1.2-21.8,1.9-32.1,5.3c-12.1,4-23.9,9.4-35,15.7c-7.9,4.5-17.2,10.3-21.8,18.5   c-4.8,8.7,0.9,17.1,7.2,23.1c14.7,13.9,38.3,16.7,57.4,19.1c7.6,1,15.3,1.6,22.8,2.9c2.5,0.4-3.7-1,1.1,0.2   c1.5,0.4,2.9,0.8,4.4,1.2c2.8,0.8,5.5,1.7,8.2,2.6c0.1,0,4.3,1.7,1.7,0.6c1.2,0.5,2.3,1.1,3.5,1.7c3.7,1.9-2.5-1.7,0.8,0.5   c1.4,1,1.3,0.9-0.4-0.4c1.2,1.1,1.1,1-0.1-0.3c0.5,0.5,0.9,1.1,1.4,1.6c-2.1-2.6,0.5,1.4-0.3-0.5c0.6,1.3,1,2.8,1.2,4.2   c0.5,5.1-0.9,10.3-2.8,14.9c-3.9,9.8-10.8,19.5-18.4,26.7c-1.5,1.4-3.3,2.4-5.1,3.3c-0.6,0.3-2,0.5-0.5,0.5   c-2.5-0.1,1.3,0.4,1.7,0.6c1,0.5,2,1.1,2.8,1.8c-3-2.5,1.7,2.1-1-1c-1.8-2-2.1-2.6-3.7-5.3c-2.5-4.1-4.5-8.4-6.1-12.9   c-1.3-3.6-2.4-7.7-2.5-10.5c-0.2-6.5-7-11.6-12.2-14.3c-2.7-1.3-13.4-5.1-13.4,1.3c0,0.1,0,0.1,0,0.2c0,6.4,7.2,11.7,12.2,14.3   c2.7,1.3,13.4,5.1,13.4-1.3c0-0.5,0-0.9,0-1.4c0-6.4-7.2-11.7-12.2-14.3c-2.7-1.3-13.4-5.1-13.4,1.3c0,0.5,0,0.9,0,1.4   c0,6.4,7.2,11.7,12.2,14.3c2.7,1.3,13.4,5.1,13.4-1.3c0-0.1,0-0.1,0-0.2c-8.5-4.3-17.1-8.6-25.6-12.9c0.3,11.1,5.3,22.1,10.6,31.6   c7.3,12.9,18.8,24.6,33.5,28.1c12.9,3.1,22.5-7.9,29.3-17.3c7-9.7,13.4-21.4,13.5-33.7c0.1-27.3-35.2-41.3-57.5-45.3   c-7.2-1.3-14.6-1.9-21.8-2.8c-4.5-0.6-9-1.2-13.5-1.9c-2.3-0.4-4.5-0.8-6.8-1.2c-1.1-0.2-2.2-0.4-3.3-0.7c-0.5-0.1-4.9-1.2-2.2-0.5   c-2-0.5-4-1.1-5.9-1.7c-0.9-0.3-1.8-0.6-2.7-1c-3-1.1,2.8,1.3,0,0c-1-0.4-3.7-2,0.5,0.4c-1-0.6-3.2-2.4,0.7,0.7   c-2.1-1.7,2.3,2.6,0.6,0.7c0.7,0.9,1.5,2.5,1.3,1.9c-0.6-1.8,0,1.9,0-0.1c0-0.6,0.1-1.3,0.3-1.9c-0.3,1.5,0.3-0.6,0.4-0.8   c0.5-1,1.2-2,1.9-2.9c2.7-3.6,6.3-6.3,10-8.8c10.7-7.3,22.7-12.8,34.7-17.5c5.6-2.2,11.4-4.1,17.2-5.5c2.4-0.5,4.8-1,7.2-1.3   c1.1-0.1,2.1-0.2,3.2-0.3c0.7,0,1.3,0,2,0c-1.2-0.1-1.2,0,0,0.1c-6.2-5.5-12.4-11-18.6-16.4c-1.3,6.1-2,12.3-2.9,18.4   c-0.7,5.3-1,11.5-3.6,16.3C921.1,524.2,945.9,539.9,950.4,531.7L950.4,531.7z"
   id="path136" />

</g>
  <g
     id="g1438">
    <g
       id="g142">
	<path
   fill="#FFFFFF"
   stroke="#000000"
   stroke-miterlimit="10"
   d="M1057.8,485.3c-11.7,5.5-23.2,11.3-35.4,15.7   c-6.1,2.2-12.6,4.3-19.1,5c-3,0.3-6,0.2-9.1-0.1c1.7,0.2-1.8-0.6-1.8-0.5c-1.4-0.5-1.4-0.5-0.1,0c-1.4-0.8-1.3-0.7,0.2,0.2   c-3.7-2.8-12.1-6.9-14.9-0.5c-2.6,6.1,3,14.1,7.6,17.6c26.9,20.2,62.3-0.8,88.1-13C1085.6,503.8,1067.9,480.6,1057.8,485.3   L1057.8,485.3z"
   id="path140" />

</g>
    <g
       id="g146">
	<path
   fill="#FFFFFF"
   stroke="#000000"
   stroke-miterlimit="10"
   d="M1007,520.1c0,40.6,2.1,81.2-3.5,121.5   c-1.1,7.7,26.5,0.4,27.6-7.6c5.6-40.3,3.6-81,3.5-121.5c0-5.5-8.8-3.3-12-2.5C1019.1,511,1007,515,1007,520.1L1007,520.1z"
   id="path144" />

</g>
  </g>
  <g
     id="g150">
	<path
   fill="#FFFFFF"
   stroke="#000000"
   stroke-miterlimit="10"
   d="M323.6,695.8c4.5,16.9,3.1,36.1,3.1,53.4   c0,5.8,6.6,10.3,11.3,12.2c4,1.6,16.8,4,18.1-3.1c1.8-9.7,1.9-19.4,2.2-29.2c0.2-8.3,0.7-17.8,5.7-24.8   c-9.3-3.7-18.6-7.5-27.9-11.2c3.3,37.9-37.5,101.5,17.9,119.1c24,7.6,55.9,4.7,73-15.7c14.7-17.6,14.9-41.9,8.9-62.9   c-3.2-11.5-9.1-22.3-16.1-31.9c-4.3-6-13.2-9.5-20.5-8.2c-6.7,1.1-9,7.1-5.1,12.6c11.6,16,19,38.1,14.3,57.9   c-2.2,9.3-6.3,16.3-13.4,22.3c-7.2,6.1-17.6,8.4-26.8,8.4c-1.7,0-3.4-0.1-5-0.2c-5.4-0.3,2.2,0.5-2.3-0.3c-0.6-0.1-5-1.3-1.2-0.1   c-1.1-0.4-2.3-0.8-3.4-1.3c3.8,1.7,0.7,0.2-0.1-0.3c3.2,2.2,0.6,0.3,0-0.4c2.4,2.4,0.3,0.1-0.1-0.5c-1.8-2.6,1,2.2-0.3-0.7   c-1.7-3.7-1.8-5.7-2-10.8c-0.2-5.4,0.5-10.8,1.4-16.1c3.4-21.2,12.4-42.5,10.5-64.3c-0.5-5.9-6.2-10.1-11.3-12.2   c-4-1.6-13.4-3.7-16.6,0.9c-12.6,17.9-7.1,38.1-10.8,58.3c9.8,3,19.6,6.1,29.4,9.1c0-19.5,0.8-39.9-4.3-58.9   C349.1,685.4,319.3,679.9,323.6,695.8L323.6,695.8z"
   id="path148" />

</g>
  <g
     id="g154">
	<path
   fill="#FFFFFF"
   stroke="#000000"
   stroke-miterlimit="10"
   d="M455.6,690.5c-6.9,0.9-11.3,5.4-12.6,12c-1.1,5.5,4,12.2,7,16.1   c6,7.8,23,8.2,27-1.9c1.7-4.3,3.6-8.8,4.1-13.5c0.8-7.2-8.8-11.2-14.5-11.2c-1.2,0-2.4,0-3.5,0c-6.5,0-14.5,3-15,10.5   c-1.8,24.5,6.4,49,15.5,71.3c9.3,23.1,21.2,45,31,67.9c5.1,11.8,26.7,11.2,29-2.1c6.6-38.7,9.7-77.7,25.9-113.9   c6.3-14.1-22.6-19.2-28.3-6.5c-17,37.9-20.2,79.2-27.1,119.7c9.7-0.7,19.4-1.4,29-2.1c-9.4-21.7-20.4-42.6-29.6-64.4   c-9.1-21.6-17.7-45.1-16-69c-5,3.5-10,7-15,10.5c1.2,0,2.4,0,3.5,0c-4.8-3.7-9.6-7.5-14.5-11.2c0.4-3.5,0.1-0.6-0.2,0.3   c-0.4,1.1-0.8,2.2-1.2,3.3c-0.5,1.4-1,2.7-1.6,4.1c9-0.6,18-1.3,27-1.9c-1.1-1.5-2.3-2.8-3-4.5c-0.4-1.4-0.5-1.4-0.2,0.1   c0.3-4.8-2.9-2.3-9.5,7.7c6.1-0.8,13-6.3,10.6-13.1C471.1,691.4,462.1,689.6,455.6,690.5L455.6,690.5z"
   id="path152" />

</g>
  <g
     id="g1444">
    <g
       id="g158">
	<path
   fill="#FFFFFF"
   stroke="#000000"
   stroke-miterlimit="10"
   d="M573.7,715.9c0.3,0.5,0.5,1,0.7,1.5c-1.5-3.2,0.1,0.2,0.3,0.7   c0.8,2,1.6,4,2.3,6c2,5.4,3.8,10.8,5.7,16.2c3.6,10.6,6.9,21.3,10.1,32c5.6,18.5,17.7,46.7,40.5,47.8c19.2,0.9,29-19.4,34.6-34.5   c6.7-18,10.6-37,14.2-55.8c1.5-7.5-2-13.9-9.7-16c-6.1-1.7-17,0.7-18.5,8.2c-3.2,16.7-6.8,33.4-12,49.6c-1.2,3.7-2.5,7.3-4,10.9   c-0.7,1.8-1.6,3.6-2.4,5.4c-0.3,0.7-0.7,1.3-1,2c1.4-2.8-0.2,0.2-0.5,0.6c-0.7,1.1-1.4,2.1-2.1,3.2c-0.4,0.5-0.7,0.9-1.1,1.4   c-1.9,2.3,2.2-2.1,0.1-0.2c-0.4,0.3-0.8,0.6-1.2,0.9c-2.2,1.7,3-1.6,0.7-0.5c-1.4,0.5-0.8,0.4,1.7-0.6c-2.5,0.6,4,0,1.4-0.1   c2.8,0.5,3.4,0.6,1.9,0.2c2.3,1,2.8,1.2,1.5,0.6c-3.2-1.6,1.7,1.7-1.3-1.1c-0.5-0.5-1-1-1.4-1.5c1,1.2,1,1.2,0-0.1   c-1.4-1.8-2.6-3.8-3.8-5.8c-5.3-9-8.5-18.7-11.6-28.6c-5.6-18.2-11-37.1-19.3-54.3C592.5,689.4,565.7,699.6,573.7,715.9   L573.7,715.9z"
   id="path156" />

</g>
    <g
       id="g162">
	<path
   fill="#FFFFFF"
   stroke="#000000"
   stroke-miterlimit="10"
   d="M666.6,692.9c-0.6-2,0.1-2.2-0.7-0.9c-6.9,2.5-13.7,5-20.6,7.5   c0,0,0.1,0,0.1,0c-2.4-0.7-4.9-1.3-7.3-2c1.9,1.2,3.2,4.4,4.3,6.3c2.2,3.6,4.3,7.3,6.5,10.9c7.1,11.8,12.8,24.3,18.8,36.7   c7.4,15.2,15.5,29.8,25.8,43.2c5.9,7.7,12.6,15.5,20.8,20.8c14.2,9.3,37.5,7.6,48.6-6.1c9.1-11.3,11.5-27.1,13.6-41   c2-13.2,3.2-26.5,4.5-39.7c1-10.3,1.6-20.6,4-30.6c2.1-8.4-26.6-5.2-28.5,2.6c-3.4,13.9-3.9,28.6-5.3,42.8   c-1.6,16.5-3.1,33.2-7.6,49.2c-0.9,3.2-2,6.3-3.2,9.3c-0.6,1.3-1.2,2.7-1.9,4c-0.4,0.7-2.6,4.1-1.7,2.8c-0.7,0.9-1.5,1.8-2.4,2.6   c-1.5,1.4,2-1.4,0.3-0.2c-0.8,0.6-2.6,1.3,0.9-0.4c1.7-0.8,7-1.8,9.4-1.8c-2.2,0,3.1,0.4,0.8,0.1c-1.6-0.3,2.1,0.8-0.6-0.2   c-6.7-2.3-12.7-8.8-17.9-14.7c-10.5-11.8-18.9-25.1-26.1-39.1c-9-17.4-17.1-35.1-27-52c-2.5-4.3-4.9-10.2-8.6-13.7   c-5-4.8-17.1-1.5-22.2,0.8c-4.2,1.9-7.2,4.2-5.7,8.7C640.3,706.9,668.8,700,666.6,692.9L666.6,692.9z"
   id="path160" />

</g>
  </g>
  <g
     id="g1450">
    <g
       id="g166">
	<path
   fill="#FFFFFF"
   stroke="#000000"
   stroke-miterlimit="10"
   d="M820.4,698.4c-2.4,1.9-4.8,3.8-7.2,5.7c-2.6,0.1-5.2,0.2-7.8,0.2   c-1.3-0.3-2.5-0.8-3.7-1.4c-1-1.1-1-1,0.1,0.1c1.2,1.3,2.3,2.8,3.4,4.3c2.1,2.9,4,5.9,6.2,8.8c7.1,9.7,14.4,19.2,21.2,29.2   c12.6,18.8,24.8,37.8,40.8,54c5.3,5.4,13.3,7,20.3,3.5c5.4-2.7,10.1-10.6,4.8-15.9c-19.9-20.2-34-44.8-50.3-67.8   c-4-5.6-8.3-10.8-12.4-16.4c-3-4-5.6-8.3-8.8-12.1c-9.9-11.7-27.9-12.4-35.1,2.5c-3.3,6.8,5.2,12.8,10.7,13.9   C810,708.4,817.1,705.3,820.4,698.4L820.4,698.4z"
   id="path164" />

</g>
    <g
       id="g170">
	<path
   fill="#FFFFFF"
   stroke="#000000"
   stroke-miterlimit="10"
   d="M858.9,680.9c2.8,11.9,1.4,22.2-2.4,33.9   c-4.6,14.2-11.9,27.5-20,40c-15.9,24.7-35.3,46.9-54.8,68.7c-10.2,11.4,9.5,33.1,20.6,20.6c20.3-22.7,40.3-45.8,56.6-71.5   c16.4-25.9,32.9-58.7,25.4-90.2c-1.7-7.1-6.3-14.3-14.4-14.7C863,667.2,857.3,674.1,858.9,680.9L858.9,680.9z"
   id="path168" />

</g>
  </g>
  <g
     id="g1456">
    <g
       id="g174">
	<path
   fill="#FFFFFF"
   stroke="#000000"
   stroke-miterlimit="10"
   d="M892.4,698c15.8,27,21.4,59.4,47.4,79.6c5.5,4.3,15.2,4.5,20-1   c5.1-6,1.2-13.4-4.1-17.5c-2.3-1.8-7.6-8.1-10.3-12.2c-4-6.3-7.3-13-10.4-19.8c-5.7-12.3-10-25.4-16.9-37.1   c-3.8-6.5-12.1-10-19.4-7.8C891.9,684.4,888.7,691.8,892.4,698L892.4,698z"
   id="path172" />

</g>
    <g
       id="g178">
	<path
   fill="#FFFFFF"
   stroke="#000000"
   stroke-miterlimit="10"
   d="M976.8,684.3c-30.3,59-55.4,126.5-51.8,193.9   c0.4,7.2,5.5,11.4,12.9,10.4c6.3-0.9,15.2-6.9,14.9-14.3c-3.3-62.8,18.9-126.1,47.3-181.3c3-5.8,3.5-13.3-3.9-16.1   C989.6,674.6,980,678.1,976.8,684.3L976.8,684.3z"
   id="path176" />

</g>
  </g>
  <g
     id="g182">
	<path
   fill="#FFFFFF"
   stroke="#000000"
   stroke-miterlimit="10"
   d="M1041.5,737.5c4.4-6.2,1.6-15.1-0.4-21.6   c-2.5-8.4-6.2-16.8-6.4-25.7c-1.9,0.6-3.8,1.2-5.7,1.9c25.6,8.3,51.9,9.3,78.6,9.3c-7.2-5.7-14.5-11.4-21.7-17   c-23.8,52.2-71.7,87.6-100.9,136.3c-1.9,3.2,4.7,8.3,6.5,9.8c3.8,3,11.7,8.8,17,7.1c18.8-5.8,37.4-14,57.2-15.6   c20.1-1.6,39.4,6.7,59.5,5.1c1.2-0.1,3.8-0.2,3.3-2.3c-5-19.7-22.2-33.1-36-46.8c-4.4-4.4-11.4-9.1-17.9-9.6   c-6.6-0.5-1.1,6.5,0.8,8.4c10.1,10,24.1,20,27.7,34.6c1.1-0.8,2.2-1.5,3.3-2.3c-20.8,1.7-40.7-6.6-61.6-4.9   c-20.5,1.7-39.5,9.6-58.9,15.7c7.9,5.6,15.7,11.3,23.6,16.9c29.2-48.7,77.1-84,100.9-136.3c1.6-3.5-4.4-8.1-6.5-9.8   c-3.9-3.1-9.9-7.2-15.2-7.2c-25,0-49.6-0.6-73.6-8.4c-1.9-0.6-5.8-1.2-5.7,1.9c0.2,8.4,3.5,16.4,6,24.3c1.9,5.9,5.4,14.7,1.4,20.4   C1012.9,726.9,1037.3,743.4,1041.5,737.5L1041.5,737.5z"
   id="path180" />

</g>
  <g
     id="g1462">
    <g
       id="g186">
	<path
   fill="#FFFFFF"
   stroke="#000000"
   stroke-miterlimit="10"
   d="M1156.5,685.5c1.4,26.6-7,59.1-28.8,76.3c-4.4,3.5-3.6,7.4,2.2,8   c6.6,0.8,14.9-1.3,20.1-5.5c25.7-20.3,36.7-54.6,34.9-86.6C1184.6,670.7,1156,676.1,1156.5,685.5L1156.5,685.5z"
   id="path184" />

</g>
    <g
       id="g190">
	<path
   fill="#FFFFFF"
   stroke="#000000"
   stroke-miterlimit="10"
   d="M1184.9,724.8c2.7,9.7-0.8,20.3-5.8,28.8   c-3.1,5.4-7,10.3-11.2,14.8c-1.3,1.4-3.9,3.6-5.8,5.1c-3.1,2.6-2.5,2-5.2,3.6c-5.3,3-10.5,9.8-6,15.8c4.4,5.8,13.8,5.4,19.6,2.1   c25.2-14.2,51.3-48.1,42.8-78.7C1209.2,702.3,1180.9,710.7,1184.9,724.8L1184.9,724.8z"
   id="path188" />

</g>
  </g>
  <g
     id="g1468">
    <g
       id="g194">
	<path
   fill="#FFFFFF"
   stroke="#000000"
   stroke-miterlimit="10"
   d="M225.7,256.4c3.2,17.3,8.9,34.4,15.5,50.7   c3.4,8.4,7.4,16.6,12.7,24c6.6,9.3,16.9,15,27.7,17.9c2.5,0.7,11.4,1.5,7.3-3.6c-4.1-5.2-11.7-7.9-17.8-9.6   c3.6,0.9,6.9,2.3,9.9,4.2c1.4,1.1,1.6,1.2,0.6,0.3c1.5,1.3-1.1-1.3-1.4-1.6c-2-2.4-3.6-5.1-5.2-7.9c-4-7.2-7.1-15-10-22.7   c-5.2-13.8-9.7-28.1-12.4-42.6c-1-5.1-11.4-8.8-15.4-10.2C235.5,254.8,224.7,251.4,225.7,256.4L225.7,256.4z"
   id="path192" />

</g>
    <g
       id="g198">
	<path
   fill="#FFFFFF"
   stroke="#000000"
   stroke-miterlimit="10"
   d="M183.8,262.9c3.7,24.2,15.7,45.7,26.5,67.3   c3.2,6.5,30.1-2,29.3-3.8c-10.8-21.6-22.8-43.1-26.5-67.3C212.3,254.1,183.1,258.3,183.8,262.9L183.8,262.9z"
   id="path196" />

</g>
  </g>
  <g
     id="g1474">
    <g
       id="g202">
	<path
   fill="#FFFFFF"
   stroke="#000000"
   stroke-miterlimit="10"
   d="M500.5,911c31.3-6.3,122.7-23,155.8-26.3   c70-6.9,140.7-19.2,209.4-3.9c6.5,1.5,15.3-1.3,16.8-8.6c1.5-7.5-5.6-13.1-12.1-14.5c-71.2-15.9-143.8-24.1-216.3-17.2   c-34.9,3.3-73.7,10.3-108.1,17.6c-31.9,6.7-27.5,8.3-59.5,14.8c-6.7,1.3-8,11.6-5,18.2C484.8,898.1,493.4,912.4,500.5,911   L500.5,911z"
   id="path200" />

</g>
    <g
       id="g206">
	<path
   fill="#FFFFFF"
   stroke="#000000"
   stroke-miterlimit="10"
   d="M888.9,876.8c0.6,1.2,1.2,2.4,1.8,3.5c0.8,1,1.6,2.1,2.4,3.1   c1.6,1.8,3.6,3.1,5.8,4c2.8,1.1,6.1,1.3,8.8-0.4c2.7-1.7,4-4.7,4.2-7.7c0-1.1-0.1-2.3-0.1-3.4c-0.4-2.5-1.3-4.9-2.7-7.1   c-0.6-1.2-1.2-2.4-1.8-3.5c-0.8-1-1.6-2.1-2.4-3.1c-1.6-1.8-3.6-3.1-5.8-4c-2.8-1.1-6.1-1.3-8.8,0.4c-2.7,1.7-4,4.7-4.2,7.7   c0,1.1,0.1,2.3,0.1,3.4C886.7,872.2,887.6,874.6,888.9,876.8L888.9,876.8z"
   id="path204" />

</g>
  </g>
  <g
     id="g1316">
    <g
       id="g210">
	<path
   fill="#FFFFFF"
   stroke="#000000"
   stroke-miterlimit="10"
   d="M1160.2,272.8c7.4,22.5-4.7,47.9-16.6,67.5   c-13.8,22.8-31.3,43-47.8,63.8c-4.6,5.8,0.2,12.6,5.9,14.8c6.8,2.6,15.4,1,20-4.8c17.2-21.7,35.3-42.8,49.5-66.7   c14.5-24.3,26.4-53.4,17.1-81.6C1183.9,252.4,1155.2,257.7,1160.2,272.8L1160.2,272.8z"
   id="path208" />

</g>
    <g
       id="g214">
	<path
   fill="#FFFFFF"
   stroke="#000000"
   stroke-miterlimit="10"
   d="M1108.8,330.2c-10.1,24-2.8,52-12.4,76.1   c-3.9,9.7,14.5,23.3,23,17.7c26.3-17.4,55.1-30.4,81.4-47.8c10.2-6.8-12.6-25-21.4-19.2c-26.3,17.4-55.1,30.4-81.4,47.8   c7.7,5.9,15.4,11.8,23,17.7c5-12.6,6.3-26.1,7.4-39.6c0.9-11.7,0.4-25.5,5-36.5c2.5-6-3.3-11.8-7.9-14.8   C1122.5,329.5,1111.3,324.3,1108.8,330.2L1108.8,330.2z"
   id="path212" />

</g>
  </g>
  <g
     id="g1322">
    <g
       id="g218">
	<path
   fill="#FFFFFF"
   stroke="#000000"
   stroke-miterlimit="10"
   d="M245.7,621.4c0-13-4.7-26.2-7.5-38.7c-3.6-15.7-5.1-30.6-4.3-46.8   c1.9-37,12-73.6,31.4-105.3c1.4-2.3-13-5.8-13.8-6c-2.7-0.6-13-3.3-15.1,0c-19.5,31.9-29.2,68.1-31.4,105.3   c-1,16.1,0.7,31,4.3,46.8c2.8,12.6,7.5,25.7,7.5,38.7C216.8,621.6,245.7,624.2,245.7,621.4L245.7,621.4z"
   id="path216" />

</g>
    <g
       id="g222">
	<path
   fill="#FFFFFF"
   stroke="#000000"
   stroke-miterlimit="10"
   d="M189.8,416.1c4.8,8.8,20.6,11.2,29.4,12.3   c9.4,1.2,18.8-0.3,27.9-2.7c9.3-2.4,18.3-5.7,27-9.7c6.6-3.1,13.5-6.6,18.5-12.1c-9.5-2.5-19-5-28.5-7.5   c-9.1,41-11.2,82.1-9.2,123.9c0.4,7.2,28.6,10.1,28.5,7.5c-2-41.9,0.1-82.9,9.2-123.9c1.2-5.4-24.8-11.5-28.5-7.5   c-7.6,8.3-21.2,12.8-31.5,16.4c-6.7,2.4-13.5,4.3-20.5,5.4c-2.9,0.4-4.9,0.6-7,0.5c4.2,0.1,8.8,1.6,12.5,3.5c1.9,1,1,0.7,0.2-0.7   c-2.4-4.4-12.7-6.1-16.9-7C199.8,414.4,187.7,412.3,189.8,416.1L189.8,416.1z"
   id="path220" />

</g>
  </g>
  <g
     id="g226">
	<path
   fill="#FFFFFF"
   stroke="#000000"
   stroke-miterlimit="10"
   d="M1011.9,825.6c1,1.1,2.1,2.1,3.1,3.1c0.6,0.6,1.8,1.1,2.5,0.3   c0.7-0.9,0.2-2.2-0.5-2.9c-1-1-2.1-2.1-3.1-3.1c-0.6-0.6-1.8-1.1-2.5-0.3C1010.8,823.6,1011.2,824.9,1011.9,825.6L1011.9,825.6z"
   id="path224" />

</g>
  <g
     id="g230">
	<path
   fill="#FFFFFF"
   stroke="#000000"
   stroke-miterlimit="10"
   d="M999.1,819.7c0,17.6,0,35.1,0,52.7c0,1.3,4.1,2.7,4.1,1.3   c0-17.6,0-35.1,0-52.7C1003.2,819.7,999.1,818.3,999.1,819.7L999.1,819.7z"
   id="path228" />

</g>
  <g
     id="g234">
	<path
   fill="#FFFFFF"
   stroke="#000000"
   stroke-miterlimit="10"
   d="M1011.3,829.5c1.7,0,4.6-2.5,1.7-2.5   C1011.3,827,1008.4,829.5,1011.3,829.5L1011.3,829.5z"
   id="path232" />

</g>
  <g
     id="g238">
	<path
   fill="#FFFFFF"
   stroke="#000000"
   stroke-miterlimit="10"
   d="M417.8,748c0,24,0,48,0,72c0,1.1,11.8,0.7,11.8-0.9   c0-24,0-48,0-72C429.6,746.1,417.8,746.4,417.8,748L417.8,748z"
   id="path236" />

</g>
  <g
     id="g242">
	<path
   fill="#FFFFFF"
   stroke="#000000"
   stroke-miterlimit="10"
   d="M733.9,637.6c7.3,7.3,14.6,14.5,22.4,21.2   c2.1,1.8,10.6-5.9,9.8-6.6c-7.8-6.7-15.1-14-22.4-21.2C741.8,629.2,732.9,636.7,733.9,637.6L733.9,637.6z"
   id="path240" />

</g>
  <g
     id="g246">
	<path
   fill="#FFFFFF"
   stroke="#000000"
   stroke-miterlimit="10"
   d="M736,644.2c0,23.6,0,47.2,0,70.8c0,2.2,5.6,3.9,5.6,1.4   c0-23.6,0-47.2,0-70.8C741.5,643.5,736,641.7,736,644.2L736,644.2z"
   id="path244" />

</g>
  <g
     id="g250">
	<path
   fill="#FFFFFF"
   stroke="#000000"
   stroke-miterlimit="10"
   d="M451.5,566.7c0,12.6,0,25.2,0,37.8c0,1.3,5.8,1.7,5.8,0.8   c0-12.6,0-25.2,0-37.8C457.3,566.2,451.5,565.8,451.5,566.7L451.5,566.7z"
   id="path248" />

</g>
  <g
     id="g254">
	<path
   fill="#FFFFFF"
   stroke="#000000"
   stroke-miterlimit="10"
   d="M1130,396.4c0,22.8,0,45.6,0,68.4c0,1.2,5.8,0.7,5.8-0.9   c0-1.2,0-2.4,0-3.5c0-1.2-5.8-0.7-5.8,0.9c0,4.7,0,9.4,0,14.2c0,1.2,5.8,0.7,5.8-0.9c0-4.7,0-9.4,0-14.2c0-1.2-5.8-0.7-5.8,0.9   c0,1.2,0,2.4,0,3.5c0,1.2,5.8,0.7,5.8-0.9c0-22.8,0-45.6,0-68.4C1135.8,394.3,1130,394.8,1130,396.4L1130,396.4z"
   id="path252" />

</g>
  <g
     id="g258">
	<path
   fill="#FFFFFF"
   stroke="#000000"
   stroke-miterlimit="10"
   d="M1119.5,409.5c0,9.8,0,19.7,0,29.5c0,3.4,5.5,5,5.5,1.2   c0-9.8,0-19.7,0-29.5C1125,407.4,1119.5,405.8,1119.5,409.5L1119.5,409.5z"
   id="path256" />

</g>
  <g
     id="g262">
	<path
   fill="#FFFFFF"
   stroke="#000000"
   stroke-miterlimit="10"
   d="M703.5,415.9c2.7,2.7,5.4,5.3,8.4,7.6c1,0.8,2.7,1,3.5-0.3   c0.8-1.3,0-3-1.1-3.8c-2.6-2-5-4.2-7.3-6.5c-0.9-0.9-2.5-1.8-3.7-0.8C702.3,413.1,702.6,415,703.5,415.9L703.5,415.9z"
   id="path260" />

</g>
  <g
     id="g266">
	<path
   fill="#FFFFFF"
   stroke="#000000"
   stroke-miterlimit="10"
   d="M840.5,440.2c0,15.9,0,31.9,0,47.8c0,2.8,5.6,4.6,5.6,1.6   c0-15.9,0-31.9,0-47.8C846.1,438.9,840.5,437.1,840.5,440.2L840.5,440.2z"
   id="path264" />

</g>
  <g
     id="g270">
	<path
   fill="#FFFFFF"
   stroke="#000000"
   stroke-miterlimit="10"
   d="M1087.8,216c0,18.3,0,36.5,0,54.8c0,1.6,4.3,4.2,4.3,4.3   c0-18.3,0-36.5,0-54.8C1092.1,218.7,1087.8,216,1087.8,216L1087.8,216z"
   id="path268" />

</g>
  <g
     id="g278">
	<path
   fill="#FFFFFF"
   d="M1242.3,471.3c0,1.6,0,1.6,0,3.2"
   id="path272" />

	<g
   id="g276">
		<path
   d="M1240.8,469.4c0,1.1,0,2.1,0,3.2c0,0.3,0.4,0.8,0.5,1c0.3,0.6,0.7,1.1,1.1,1.6c0.3,0.4,0.6,0.8,1,1.1    c0.1,0.1,0.3,0.3,0.3,0.1c0-1.1,0-2.1,0-3.2c0-0.3-0.4-0.8-0.5-1c-0.3-0.6-0.7-1.1-1.1-1.6c-0.3-0.4-0.6-0.8-1-1.1    C1241.1,469.4,1240.8,469.1,1240.8,469.4L1240.8,469.4z"
   id="path274" />

	</g>

</g>
</svg>
