<?xml version="1.0" standalone="no"?>
<!--Created with Inkscape (http://www.inkscape.org/)-->
<svg xmlns="http://www.w3.org/2000/svg" xmlns:xlink="http://www.w3.org/1999/xlink" viewBox="0 0 48 48">
  <defs>
    <linearGradient id="a">
      <stop offset="0" stop-color="#e2e2e2" stop-opacity="1"/>
      <stop offset="1.0000000" stop-color="#9f9f9f" stop-opacity="1"/>
    </linearGradient>
    <linearGradient id="b">
      <stop offset="0.0000000" stop-color="#e7ebeb" stop-opacity="1"/>
      <stop offset="0.50000000" stop-color="#e6ebeb" stop-opacity="1"/>
      <stop offset="1.0000000" stop-color="#fff" stop-opacity="1"/>
    </linearGradient>
    <linearGradient gradientTransform="translate(0.000000,-2.240250e-2)" gradientUnits="userSpaceOnUse" y2="30.785713" x2="42.214284" y1="30.785713" x1="6.7857148" id="c" xlink:href="#a"/>
    <linearGradient y2="28.428572" x2="42.214283" y1="14.428571" x1="13.357142" gradientTransform="translate(1.934101e-15,0.785718)" gradientUnits="userSpaceOnUse" id="d" xlink:href="#b"/>
  </defs>
  <metadata/>
  <rect style="marker:none" width="43.436558" height="6.7680221" x="3.4345186" y="36.989338" rx="4.4292879" ry="3.6870568" opacity=".2" color="#000" fill="#000" fill-opacity="1" fill-rule="evenodd" stroke="none" stroke-width="1" stroke-linecap="round" stroke-linejoin="round" marker-start="none" marker-mid="none" marker-end="none" stroke-miterlimit="4" stroke-dasharray="none" stroke-dashoffset="0" stroke-opacity="1" visibility="visible" display="inline" overflow="visible"/>
  <path d="M 11.307141,6.6235088 C 10.434024,6.6235088 9.7446415,7.2927936 9.7446415,8.1235088 L 9.3696415,10.248512 C 9.3696415,10.731797 9.6549755,11.099645 10.025891,11.373512 L 4.8696418,37.623512 C 4.6553558,38.623511 5.4499988,39.659226 6.8071418,39.623512 L 42.994641,39.623512 C 44.280355,39.587797 44.717855,38.400298 44.432141,37.436012 L 42.494641,30.373512 C 44.446835,29.461028 45.088391,28.592262 45.088391,28.592262 C 45.088393,28.592262 41.934889,27.458845 40.588391,22.779762 C 40.588391,22.779762 37.713391,11.873512 37.713391,11.873512 L 37.432141,11.873512 L 37.338391,11.561012 C 37.939456,11.349918 38.432141,10.895490 38.432141,10.248512 L 38.057141,8.1235088 C 38.057141,7.2927936 37.367759,6.6235089 36.494641,6.6235088 L 11.307141,6.6235088 z " fill="#000" fill-opacity="1" fill-rule="evenodd" stroke="#000" stroke-width="3" stroke-linecap="butt" stroke-linejoin="miter" stroke-miterlimit="4" stroke-dasharray="none" stroke-opacity="1"/>
  <path d="M 5.2605153,37.345588 C 5.0505925,38.325227 5.8552962,39.339853 7.1848063,39.304866 L 42.626749,39.304866 C 43.886284,39.269879 44.306130,38.115304 44.026234,37.170652 L 36.329069,8.9360523 L 10.858453,8.9360523 L 5.2605153,37.345588 z " fill="#a7a7a7" fill-opacity="1" fill-rule="evenodd" stroke="none" stroke-width="1" stroke-linecap="butt" stroke-linejoin="miter" stroke-miterlimit="4" stroke-dasharray="none" stroke-opacity="1"/>
  <path d="M 9.1625040,29.998338 L 39.395095,29.998338 C 40.252297,29.998338 40.942392,30.670624 40.942392,31.505705 L 42.269580,36.306640 C 42.269580,37.141721 41.579486,37.814007 40.722283,37.814007 L 8.2777114,37.814007 C 7.4205088,37.814007 6.7304142,37.141721 6.7304142,36.306640 L 7.6152068,31.505705 C 7.6152068,30.670624 8.3053014,29.998338 9.1625040,29.998338 z " style="marker:none" opacity=".10857142" color="#000" fill="#000" fill-opacity="1" fill-rule="evenodd" stroke="#000" stroke-width=".99999958" stroke-linecap="butt" stroke-linejoin="miter" marker-start="none" marker-mid="none" marker-end="none" stroke-miterlimit="4" stroke-dasharray="none" stroke-dashoffset="0" stroke-opacity="1" visibility="visible" display="inline" overflow="visible" font-family="Bitstream Vera Sans"/>
  <path d="M 6.0478436,36.997449 C 5.8479823,37.930135 5.6491963,38.577107 6.5227626,38.577107 L 42.837439,38.577107 C 43.753496,38.577107 43.579187,37.837417 43.312705,36.938041 L 35.770172,9.6638398 L 11.520336,9.6638398 L 6.0478436,36.997449 z " fill="none" fill-opacity="1" fill-rule="evenodd" stroke="#fff" stroke-width=".9999997px" stroke-linecap="butt" stroke-linejoin="miter" stroke-opacity=".34463277"/>
  <path style="marker:none" d="M 9.6418018,29.120454 L 38.929626,29.120454 C 39.760041,29.120454 40.428570,29.771731 40.428570,30.580715 L 41.714284,35.231622 C 41.714284,36.040606 41.045755,36.691883 40.215340,36.691883 L 8.7846589,36.691883 C 7.9542438,36.691883 7.2857146,36.040606 7.2857146,35.231622 L 8.1428575,30.580715 C 8.1428575,29.771731 8.8113867,29.120454 9.6418018,29.120454 z " opacity="1" color="#000" fill="#c5c5c5" fill-opacity="1" fill-rule="evenodd" stroke="#696969" stroke-width=".99999964" stroke-linecap="butt" stroke-linejoin="miter" marker-start="none" marker-mid="none" marker-end="none" stroke-miterlimit="4" stroke-dasharray="none" stroke-dashoffset="0" stroke-opacity="1" visibility="visible" display="inline" overflow="visible" font-family="Bitstream Vera Sans"/>
  <path d="M 9.6418018,26.977597 L 38.929626,26.977597 C 39.760041,26.977597 40.428570,27.628874 40.428570,28.437858 L 41.714284,33.088765 C 41.714284,33.897749 41.045755,34.549026 40.215340,34.549026 L 8.7846589,34.549026 C 7.9542438,34.549026 7.2857146,33.897749 7.2857146,33.088765 L 8.1428575,28.437858 C 8.1428575,27.628874 8.8113867,26.977597 9.6418018,26.977597 z " style="marker:none" color="#000" fill="url(#c)" fill-opacity="1" fill-rule="evenodd" stroke="#696969" stroke-width=".99999964" stroke-linecap="butt" stroke-linejoin="miter" marker-start="none" marker-mid="none" marker-end="none" stroke-miterlimit="4" stroke-dashoffset="0" stroke-opacity="1" visibility="visible" display="inline" overflow="visible"/>
  <g transform="matrix(0.942549,0.000000,0.000000,0.942549,-0.222619,1.047740)">
    <path d="M 10.891973,11.500004 L 6.5714281,33.214290 C 6.5714281,33.214290 32.857143,33.214291 32.857143,33.214291 C 45.441975,33.214291 48.085306,29.214290 48.085306,29.214290 C 48.085306,29.214290 44.728164,28.035719 43.299593,23.071433 C 43.299593,23.071433 40.238640,11.500004 40.238640,11.500004 L 10.891973,11.500004 z " fill="url(#d)" fill-opacity="1" fill-rule="evenodd" stroke="#696969" stroke-width="1.0609524px" stroke-linecap="butt" stroke-linejoin="miter" stroke-opacity="1"/>
    <path d="M 11.803734,12.474609 L 7.8122567,32.239668 C 7.8122567,32.239668 24.956518,32.239669 32.238382,32.239669 C 43.465021,32.239669 46.348811,29.388804 46.348811,29.388804 C 46.348811,29.388804 43.355751,27.525962 42.055419,23.007305 C 42.055419,23.007305 39.316856,12.546038 39.316856,12.546038 L 11.803734,12.474609 z " fill="none" fill-opacity="1" fill-rule="evenodd" stroke="#fff" stroke-width="1.0609519px" stroke-linecap="butt" stroke-linejoin="miter" stroke-opacity="1"/>
  </g>
  <path d="M 11.315699,6.6204483 L 36.494515,6.6204483 C 37.367632,6.6204483 38.070539,7.2892190 38.070539,8.1199342 L 38.427682,10.263822 C 38.427682,11.094537 37.724775,11.763308 36.851658,11.763308 L 10.958556,11.763308 C 10.085439,11.763308 9.3825323,11.094537 9.3825323,10.263822 L 9.7396752,8.1199342 C 9.7396752,7.2892190 10.442582,6.6204483 11.315699,6.6204483 z " style="marker:none" color="#000" fill="#9b9b9b" fill-opacity="1" fill-rule="evenodd" stroke="none" stroke-width=".99999952" stroke-linecap="butt" stroke-linejoin="miter" marker-start="none" marker-mid="none" marker-end="none" stroke-miterlimit="4" stroke-dashoffset="0" stroke-opacity="1" visibility="visible" display="inline" overflow="visible"/>
  <path d="M 20.969159,21.584900 C 21.957574,21.678657 22.691543,21.957303 23.171063,22.420841 C 23.651181,22.879181 23.849054,23.465119 23.764680,24.178659 C 23.640870,25.225539 23.075908,26.069292 22.069796,26.709917 C 21.063667,27.350545 19.762256,27.670857 18.165559,27.670858 C 16.939741,27.670857 15.906445,27.478149 15.065668,27.092731 L 15.305880,25.061474 C 16.189321,25.670853 17.193659,25.975541 18.318897,25.975540 C 19.217824,25.975541 19.926554,25.829708 20.445092,25.538039 C 20.964233,25.241164 21.255527,24.824497 21.318975,24.288034 C 21.385488,23.725536 21.176411,23.314077 20.691744,23.053655 C 20.207063,22.793242 19.398966,22.663034 18.267450,22.663029 L 16.994488,22.663029 L 17.201440,20.913024 L 18.559266,20.913024 C 19.451905,20.913030 20.149975,20.777613 20.653477,20.506772 C 21.157582,20.230737 21.439509,19.840111 21.499262,19.334893 C 21.555304,18.860942 21.408536,18.480733 21.058960,18.194265 C 20.709369,17.907815 20.154261,17.764585 19.393634,17.764576 C 18.431836,17.764585 17.490216,18.045836 16.568772,18.608328 L 16.798822,16.663010 C 17.831208,16.225519 18.988597,16.006769 20.270993,16.006758 C 21.509374,16.006769 22.459536,16.264582 23.121484,16.780197 C 23.789700,17.295834 24.076386,17.954690 23.981543,18.756766 C 23.893455,19.501569 23.598230,20.110945 23.095869,20.584897 C 22.594104,21.053655 21.885201,21.386989 20.969159,21.584900" style="line-height:100%" font-size="17.577877px" font-style="normal" font-variant="normal" font-weight="700" font-stretch="normal" writing-mode="lr-tb" text-anchor="start" fill="#000" fill-opacity="1" stroke="none" stroke-width="1px" stroke-linecap="butt" stroke-linejoin="miter" stroke-opacity="1" font-family="Segoe"/>
  <path d="M 33.007379,27.647420 L 30.499173,27.647420 L 29.387875,18.288014 L 26.295373,19.084892 L 26.086657,17.327074 L 31.627997,16.030194 L 33.007379,27.647420" style="line-height:100%" font-size="17.577877px" font-style="normal" font-variant="normal" font-weight="700" font-stretch="normal" writing-mode="lr-tb" text-anchor="start" fill="#000" fill-opacity="1" stroke="none" stroke-width="1px" stroke-linecap="butt" stroke-linejoin="miter" stroke-opacity="1" font-family="Segoe"/>
  <path transform="matrix(0.684211,0.000000,0.000000,0.684211,3.560154,1.470077)" d="M 12.857143 9.9285717 A 1.3571428 1.3571428 0 1 1  10.142857,9.9285717 A 1.3571428 1.3571428 0 1 1  12.857143 9.9285717 z" style="marker:none" opacity=".52571428" color="#000" fill="#fefefe" fill-opacity="1" fill-rule="evenodd" stroke="none" stroke-width=".99999964" stroke-linecap="butt" stroke-linejoin="miter" marker-start="none" marker-mid="none" marker-end="none" stroke-miterlimit="4" stroke-dasharray="none" stroke-dashoffset="0" stroke-opacity="1" visibility="visible" display="inline" overflow="visible"/>
  <path d="M 13.042053,7.7928927 L 36.371309,7.7928927" opacity=".30285713" fill="none" fill-opacity=".75" fill-rule="evenodd" stroke="#fff" stroke-width="1.0000001px" stroke-linecap="round" stroke-linejoin="miter" stroke-opacity="1"/>
</svg>
