<?xml version="1.0" standalone="no"?>
<!--Created with Inkscape (http://www.inkscape.org/)-->
<svg xmlns="http://www.w3.org/2000/svg" xmlns:xlink="http://www.w3.org/1999/xlink" viewBox="0 0 48 48">
  <defs>
    <linearGradient id="a">
      <stop offset="0.0000000" stop-color="#fff" stop-opacity="1"/>
      <stop offset="1.0000000" stop-color="#fff" stop-opacity="0"/>
    </linearGradient>
    <linearGradient xlink:href="#a" id="k" gradientUnits="userSpaceOnUse" gradientTransform="matrix(-0.857672,-4.842398e-17,6.373207e-17,-1.128803,44.46106,44.73353)" x1="9.7568795" y1="12.524661" x2="17.850138" y2="31.674618"/>
    <linearGradient id="b">
      <stop offset="0.0000000" stop-color="#fff" stop-opacity=".42603549"/>
      <stop offset="1" stop-color="#fff" stop-opacity="0"/>
    </linearGradient>
    <radialGradient id="e" cx="17.7881" cy="15.2314" r="29.6346" fx="17.7881" fy="15.2314" gradientUnits="userSpaceOnUse">
      <stop offset="0" stop-color="#99bba8"/>
      <stop offset="4.483276e-002" stop-color="#94b8a9"/>
      <stop offset="9.596599e-002" stop-color="#87b0a9"/>
      <stop offset="0.1502" stop-color="#72a1a9"/>
      <stop offset="0.2065" stop-color="#538fa8"/>
      <stop offset="0.264" stop-color="#2e79a7"/>
      <stop offset="0.2865" stop-color="#1d70a5"/>
      <stop offset="0.8539" stop-color="#190f50"/>
      <stop offset="1" stop-color="#585287"/>
    </radialGradient>
    <radialGradient id="d" cx="17.0264" cy="15.0728" r="24.3844" fx="17.0264" fy="15.0728" gradientUnits="userSpaceOnUse">
      <stop offset="0" stop-color="#d5d690"/>
      <stop offset="0.2202" stop-color="#cfd08c"/>
      <stop offset="0.4404" stop-color="#bfbf80"/>
      <stop offset="0.6607" stop-color="#a4a46d"/>
      <stop offset="0.8799" stop-color="#828257"/>
      <stop offset="0.927" stop-color="#7a7a52"/>
      <stop offset="1" stop-color="#9c9c68"/>
    </radialGradient>
    <radialGradient id="c" cx="19.5713" cy="16.7095" r="21.0888" fx="19.5713" fy="16.7095" gradientUnits="userSpaceOnUse">
      <stop offset="0" stop-color="#d5d690"/>
      <stop offset="0.2202" stop-color="#cfd08c"/>
      <stop offset="0.4404" stop-color="#bfbf80"/>
      <stop offset="0.6607" stop-color="#a4a46d"/>
      <stop offset="0.8799" stop-color="#828257"/>
      <stop offset="0.927" stop-color="#7a7a52"/>
      <stop offset="1" stop-color="#9c9c68"/>
    </radialGradient>
    <linearGradient xlink:href="#b" id="i" x1="19.878138" y1="8.8922558" x2="30.112162" y2="27.162256" gradientUnits="userSpaceOnUse"/>
    <radialGradient xlink:href="#c" id="h" gradientUnits="userSpaceOnUse" gradientTransform="matrix(0.884279,0.000000,0.000000,0.884279,2.538366,1.682420)" cx="19.571301" cy="16.709499" fx="19.571301" fy="16.709499" r="21.088800"/>
    <radialGradient xlink:href="#d" id="g" gradientUnits="userSpaceOnUse" gradientTransform="matrix(0.884279,0.000000,0.000000,0.884279,2.538366,1.682420)" cx="17.026400" cy="15.072800" fx="17.026400" fy="15.072800" r="24.384399"/>
    <radialGradient xlink:href="#e" id="f" gradientUnits="userSpaceOnUse" gradientTransform="matrix(0.809141,-2.773759e-16,2.773759e-16,0.809141,3.979968,2.969474)" cx="17.788099" cy="15.231400" fx="17.788099" fy="15.231400" r="29.634600"/>
    <linearGradient xlink:href="#a" id="j" gradientUnits="userSpaceOnUse" gradientTransform="matrix(-0.857672,-4.842398e-17,6.373207e-17,-1.128803,51.45656,47.21580)" x1="40.688156" y1="25.718857" x2="34.557568" y2="8.0326147"/>
  </defs>
  <metadata/>
  <path style="marker:none" d="M 10.780133,16.942946 C 6.6772666,28.037934 14.443499,38.148546 26.720051,38.148546 C 18.984564,38.148546 12.691298,31.855341 12.691298,24.119794 C 12.691298,18.688496 15.868385,13.702826 20.788529,11.403319 L 6.3988719,14.913712 L 10.780133,16.942946 z " opacity="1" color="#000" fill="#000" fill-opacity="1" fill-rule="nonzero" stroke="#000" stroke-width="3.9999981" stroke-linecap="butt" stroke-linejoin="miter" marker-start="none" marker-mid="none" marker-end="none" stroke-miterlimit="4" stroke-dasharray="none" stroke-dashoffset="0" stroke-opacity="1" visibility="visible" display="inline" overflow="visible"/>
  <path d="M 37.219846,28.197718 C 41.322712,17.102730 33.556480,6.9921200 21.279929,6.9921200 C 29.015416,6.9921200 35.308681,13.285324 35.308681,21.020868 C 35.308681,26.452167 32.131595,31.437838 27.211451,33.737345 L 41.601108,30.226952 L 37.219846,28.197718 z " fill="#000" fill-opacity="1" fill-rule="nonzero" stroke="#000" stroke-width="3.9999981" stroke-miterlimit="4" stroke-dasharray="none" stroke-opacity="1"/>
  <path d="M 45.052803 38.908627 A 20.203051 7.4751287 0 1 1  4.6467018,38.908627 A 20.203051 7.4751287 0 1 1  45.052803 38.908627 z" transform="matrix(0.718644,0,0,0.89345,5.917762,2.058406)" opacity=".2" fill="#000" fill-opacity="1" stroke="none" stroke-opacity="1"/>
  <path d="M 6.7570342,22.728268 C 6.7570342,32.185522 14.392250,39.820739 23.849506,39.820739 C 33.306761,39.820739 40.941977,32.185522 40.941977,22.728268 C 40.941977,13.271011 33.306761,5.6357957 23.849506,5.6357957 C 14.392250,5.6357957 6.7570342,13.271011 6.7570342,22.728268 L 6.7570342,22.728268 z " fill="url(#f)" fill-opacity="1" fill-rule="evenodd" stroke="#000" stroke-width="1.999999" stroke-miterlimit="4" stroke-dasharray="none" stroke-opacity="1"/>
  <path d="M 21.638808,12.293771 L 25.794921,15.830889 L 27.740336,12.382200 L 30.570030,15.477177 L 25.706493,18.306871 L 25.087498,22.551411 L 26.060205,24.319970 L 25.087498,24.319970 L 23.849507,22.551411 L 19.870250,22.551411 L 18.366975,25.204249 L 22.257804,27.503376 L 27.917192,30.775209 L 23.230511,34.666038 L 23.230511,38.556866 L 19.693394,30.421497 L 21.108240,27.945515 L 16.952128,25.204249 L 16.952128,21.755560 L 15.006714,14.681325 L 12.707588,13.354907 L 12.972872,10.878925 L 16.244705,8.7566544 L 16.244705,11.497921 L 21.638808,12.293771 z " fill="url(#g)" fill-opacity="1" fill-rule="evenodd" stroke="none" stroke-miterlimit="4"/>
  <path d="M 33.753434,10.259929 L 33.753434,12.470628 L 34.991426,14.681325 L 34.991426,18.130015 L 36.936840,19.279578 L 37.202124,17.068879 L 36.052561,14.946609 L 37.732691,14.946609 L 33.753434,10.259929 z " fill="url(#h)" fill-opacity="1" fill-rule="evenodd" stroke="none" stroke-miterlimit="4"/>
  <path style="marker:none" d="M 44.000000 23.142857 A 18.000000 18.000000 0 1 1  8.0000000,23.142857 A 18.000000 18.000000 0 1 1  44.000000 23.142857 z" transform="matrix(0.873380,0.000000,0.000000,0.873380,1.066433,2.575413)" opacity="1" color="#000" fill="none" fill-opacity="1" fill-rule="evenodd" stroke="url(#i)" stroke-width="1.2085867" stroke-linecap="round" stroke-linejoin="round" marker-start="none" marker-mid="none" marker-end="none" stroke-miterlimit="4" stroke-dasharray="none" stroke-dashoffset="0" stroke-opacity="1" visibility="visible" display="inline" overflow="visible"/>
  <path d="M 10.780138,16.942952 C 6.6772696,28.037945 14.443505,38.148561 26.720063,38.148561 C 18.984572,38.148561 12.691303,31.855353 12.691303,24.119803 C 12.691303,18.688503 15.868392,13.702832 20.788537,11.403323 L 6.3988749,14.913718 L 10.780138,16.942952 z " style="marker:none" opacity="1" color="#000" fill="url(#j)" fill-opacity="1" fill-rule="nonzero" stroke="none" stroke-width="1" stroke-linecap="butt" stroke-linejoin="miter" marker-start="none" marker-mid="none" marker-end="none" stroke-miterlimit="4" stroke-dasharray="none" stroke-dashoffset="0" stroke-opacity="1" visibility="visible" display="inline" overflow="visible"/>
  <path d="M 37.219861,28.197729 C 41.322729,17.102736 33.556494,6.9921222 21.279937,6.9921222 C 29.015428,6.9921222 35.308696,13.285328 35.308696,21.020876 C 35.308696,26.452177 32.131608,31.437851 27.211463,33.737359 L 41.601125,30.226964 L 37.219861,28.197729 z " fill="url(#k)" fill-opacity="1" fill-rule="nonzero" stroke="none" stroke-miterlimit="4"/>
</svg>
