<?xml version="1.0" encoding="UTF-8" standalone="no"?>
<!-- Generator: Adobe Illustrator 21.0.0, SVG Export Plug-In . SVG Version: 6.00 Build 0)  -->

<svg
   version="1.1"
   viewBox="0 0 572.77069 729.68683"
   sodipodi:docname="svg.svg"
   inkscape:version="1.1.2 (0a00cf5339, 2022-02-04)"
   id="svg16927"
   xmlns:inkscape="http://www.inkscape.org/namespaces/inkscape"
   xmlns:sodipodi="http://sodipodi.sourceforge.net/DTD/sodipodi-0.dtd"
   xmlns="http://www.w3.org/2000/svg"
   xmlns:svg="http://www.w3.org/2000/svg">
  <defs
     id="defs934" />
  <sodipodi:namedview
     id="namedview932"
     pagecolor="#ffffff"
     bordercolor="#666666"
     borderopacity="1.0"
     inkscape:pageshadow="2"
     inkscape:pageopacity="0.0"
     inkscape:pagecheckerboard="0"
     showgrid="false"
     fit-margin-top="0"
     fit-margin-left="0"
     fit-margin-right="0"
     fit-margin-bottom="0"
     inkscape:zoom="0.91734694"
     inkscape:cx="287.24138"
     inkscape:cy="361.36819"
     inkscape:window-width="3440"
     inkscape:window-height="1369"
     inkscape:window-x="0"
     inkscape:window-y="34"
     inkscape:window-maximized="1"
     inkscape:current-layer="XMLID_1_" />
  <style
     type="text/css"
     id="style2">
	.st0{fill:#C7E7EF;}
	.st1{fill:#45DBC6;}
	.st2{fill:#5253E3;}
	.st3{fill:#7A7AF9;}
	.st4{fill:#4BABF5;}
	.st5{fill:#3333B5;}
	.st6{fill:#5352EB;}
	.st7{fill:#534FEA;}
	.st8{fill:#D53535;}
	.st9{fill:#DD7676;}
	.st10{fill:#51E5CF;}
	.st11{fill:#71F8E7;}
	.st12{fill:#ED4848;}
	.st13{fill:#C12F2F;}
	.st14{fill:#FEB54F;}
	.st15{fill:#EBCD51;}
	.st16{fill:#E43C33;}
	.st17{fill:#FDFCE0;}
	.st18{fill:#F9C280;}
	.st19{fill:#E2C139;}
	.st20{fill:#3EC6AF;}
	.st21{fill:#09223D;}
</style>
  <g
     id="Object"
     transform="translate(-412.82599,-128.76155)">
    <rect
       class="st0"
       width="572.77069"
       height="729.68683"
       id="rect5"
       x="412.82599"
       y="128.76155" />
    <g
       id="g926">
      <g
         id="XMLID_1_">
        <g
           id="g465"><path
   class="st1"
   d="m 763,443 0.2,0.4 c -19.2,8.8 -40.6,13.8 -63.2,13.8 -0.8,0 -1.6,0 -2.4,0 l -1.3,-13.8 v 0 c 1.2,0 2.5,0 3.7,0 0,0 0,0 0,0 3.4,0 6.7,-0.1 10,-0.4 2.8,-0.2 5.6,-0.5 8.4,-0.9 3,-0.4 5.9,-0.9 8.8,-1.5 2.6,-0.5 5.2,-1.1 7.8,-1.8 3.6,-0.9 7.2,-2 10.7,-3.3 3.4,-1.2 6.6,-2.5 9.9,-3.9 z"
   id="path7" />

				<path
   class="st2"
   d="m 562.5,300.2 c -0.1,1.9 -0.1,3.7 -0.1,5.6 0,9.3 0.9,18.4 2.7,27.2 0.2,0.9 0.4,1.8 0.6,2.7 l -0.6,0.1 -13,2.6 c -2.3,-10.5 -3.5,-21.4 -3.5,-32.6 0,-14.6 2.1,-28.7 5.9,-42 l 12.6,6 c -0.7,2.4 -1.2,4.9 -1.8,7.3 -1.5,7.5 -2.4,15.2 -2.8,23.1 z"
   id="path9" />

				<path
   class="st2"
   d="m 779.4,176.9 -11.2,9.4 c -10.8,-6.2 -22.5,-10.9 -34.9,-14 -5.9,-1.5 -12,-2.6 -18.2,-3.2 l -0.8,-13.9 c 23.7,2.1 45.9,9.8 65.1,21.7 z"
   id="path11" />

				<path
   class="st1"
   d="m 851.4,305.8 c 0,13.6 -1.8,26.9 -5.2,39.5 L 845,345 833.2,340.4 c 0.6,-2.4 1.2,-4.9 1.7,-7.4 1.1,-5.6 1.9,-11.4 2.3,-17.2 0.2,-3.3 0.4,-6.6 0.4,-9.9 0,-13.1 -1.8,-25.9 -5.3,-37.9 -1.3,-4.6 -2.8,-9.1 -4.6,-13.4 l 12.2,-6.7 c 7.4,17.7 11.5,37.3 11.5,57.9 z"
   id="path13" />

				<path
   class="st2"
   d="m 696.2,443.3 1.3,13.8 c -26.1,-0.4 -50.7,-7.4 -72,-19.5 l 7,-11.9 c 3.9,2.2 7.8,4.2 11.9,6 3.2,1.4 6.5,2.7 9.9,3.9 3.5,1.2 7,2.3 10.7,3.3 2.6,0.7 5.1,1.3 7.8,1.8 2.9,0.6 5.8,1.1 8.8,1.5 3.1,0.4 6.3,0.7 9.5,0.9 1.7,0.1 3.4,0.1 5.1,0.2 z"
   id="path15" />

				<path
   class="st3"
   d="m 839.9,247.8 -12.2,6.7 c -1.8,-4.5 -3.9,-8.9 -6.1,-13.2 -1,-1.9 -2.1,-3.9 -3.2,-5.8 -7.7,-12.9 -17.4,-24.4 -28.7,-34.2 -6.6,-5.7 -13.8,-10.7 -21.4,-15.1 l 11.2,-9.4 c 26.8,16.7 48.1,41.5 60.4,71 z"
   id="path17" />

				<path
   class="st3"
   d="m 654.4,161.4 6.9,12.3 c -3.6,1.1 -7.1,2.2 -10.6,3.6 -5.3,2 -10.4,4.3 -15.3,7 -9.5,5 -18.2,11.1 -26.2,18.2 -1.8,1.6 -3.6,3.2 -5.3,4.9 l -10.8,-8.8 c 17,-16.9 37.9,-29.8 61.3,-37.2 z"
   id="path19" />

				<path
   class="st3"
   d="m 584.5,380.6 -10.8,8.7 C 563.6,374 556.1,356.8 552.1,338.4 l 13,-2.6 0.6,-0.1 c 3.6,16.2 10.1,31.3 18.8,44.9 z"
   id="path21" />

				<path
   class="st3"
   d="m 799.4,400.8 12.3,7 c -13.6,14.8 -30,27 -48.5,35.5 L 763,443 755.5,431.7 c 13.8,-6.1 26.4,-14.4 37.4,-24.4 2.2,-2.1 4.4,-4.3 6.5,-6.5 z"
   id="path23" />

				<path
   class="st4"
   d="m 845,344.9 1.2,0.3 c -6.4,23.7 -18.4,45.1 -34.4,62.7 v 0 l -12.3,-7 c 1.3,-1.3 2.6,-2.7 3.8,-4.1 14.1,-16 24.5,-35.2 30,-56.4 z"
   id="path25" />

				<path
   class="st1"
   d="m 714.3,155.1 0.8,13.9 c -5,-0.5 -10,-0.8 -15.1,-0.8 -13.4,0 -26.4,1.9 -38.7,5.5 l -6.9,-12.3 c 14.4,-4.5 29.7,-7 45.6,-7 4.8,0 9.6,0.2 14.3,0.7 z"
   id="path27" />

				<path
   class="st4"
   d="m 593.2,198.5 10.8,8.8 c -8.6,8.4 -16.1,17.9 -22.2,28.2 -1.1,1.9 -2.2,3.8 -3.2,5.8 -4.8,9 -8.6,18.5 -11.3,28.5 l -12.6,-6 c 7,-25 20.5,-47.4 38.5,-65.3 z"
   id="path29" />

				<path
   class="st4"
   d="m 632.6,425.7 -7,11.9 C 604.7,425.8 587,409.2 573.8,389.3 l 10.8,-8.7 c 3.7,5.7 7.8,11.1 12.2,16.1 3.3,3.7 6.7,7.2 10.4,10.6 7.7,7 16.2,13.2 25.4,18.4 z"
   id="path31" />

				<polygon
   class="st2"
   points="891.5,825.6 891.5,806.8 891.5,806.4 899.2,806.4 922.1,806.4 922.1,792.7 941.3,789.2 941.3,825.6 "
   id="polygon33" />

				<polygon
   class="st4"
   points="922.1,792.7 922.1,740.3 922.1,708.7 941.3,709.3 941.3,789.2 "
   id="polygon35" />

				<polygon
   class="st3"
   points="922.1,708.7 922.1,645.5 922.1,633.4 941.3,631.5 941.3,709.3 "
   id="polygon37" />

				<polygon
   class="st5"
   points="922.1,633.4 922.1,583.6 941.3,574.3 941.3,631.5 "
   id="polygon39" />

				<path
   class="st6"
   d="m 941.3,561.4 v 12.9 l -19.2,9.3 v -12.9 -9.3 c 0,-10.5 -1.2,-20.7 -3.6,-30.6 -1,-4.2 -2.3,-8.4 -3.7,-12.5 L 931.4,508 c 6.6,16.9 9.9,34.8 9.9,53.4 z"
   id="path41" />

				<path
   class="st4"
   d="m 931.4,508 -16.6,10.3 c -1.9,-5.5 -4.3,-10.9 -7,-16.2 -2.8,-5.4 -6,-10.7 -9.5,-15.8 -6.2,-8.9 -13.6,-17.5 -22.1,-25.5 l 15.2,-12 c 14,13.6 25.3,28.6 33.5,44.5 2.4,4.8 4.6,9.7 6.5,14.7 z"
   id="path43" />

				<path
   class="st3"
   d="m 928.3,396.7 c 6.2,21.7 12,46.9 17,76 0,0 -26.5,-43.3 -64.3,-67.9 l 0.1,-0.2 c 15.3,-9.8 46.5,-7.9 47.2,-7.9 0,0 0,0 0,0 z"
   id="path45" />

				<path
   class="st7"
   d="m 928.2,396.7 c -0.6,0 -31.8,-2 -47.1,7.9 l -0.1,0.2 c -6.4,-4.2 -13.1,-7.8 -20.1,-10.6 31.9,-48.4 45.9,-58.5 45.9,-58.5 7.1,16.4 14.5,36.5 21.4,61 z"
   id="path47" />

				<polygon
   class="st8"
   points="899.2,806.4 899.2,806.1 884.1,761.3 875.3,735 908.9,709.8 922,740.3 922.1,740.3 922.1,792.7 922.1,806.4 "
   id="polygon49" />

				<polygon
   class="st1"
   points="922,740.3 908.9,709.8 882.4,647.9 909.8,624.3 922,645.5 922.1,645.5 922.1,708.7 922.1,740.3 "
   id="polygon51" />

				<polygon
   class="st9"
   points="922,645.5 909.8,624.3 886.6,583.6 910,554.2 922,570.7 922.1,570.7 922.1,583.6 922.1,633.4 922.1,645.5 "
   id="polygon53" />

				<path
   class="st10"
   d="m 922.1,561.4 v 9.3 H 922 l -12,-16.5 -32.3,-44.6 20.6,-23.3 c 3.6,5.1 6.8,10.4 9.5,15.8 2.7,5.3 5,10.7 7,16.2 1.5,4.1 2.7,8.3 3.7,12.5 2.4,9.9 3.6,20.2 3.6,30.6 z"
   id="path55" />

				<polygon
   class="st8"
   points="886.6,583.6 869.8,554.2 848.4,516.8 869.8,498.8 877.7,509.7 910,554.2 "
   id="polygon57" />

				<polygon
   class="st11"
   points="873.2,626.3 844.8,560 845,559.9 869.8,554.2 886.6,583.6 909.8,624.3 882.4,647.9 "
   id="polygon59" />

				<polygon
   class="st9"
   points="875.3,735 868.4,714.7 848,654 873.2,626.3 882.4,647.9 908.9,709.8 "
   id="polygon61" />

				<polygon
   class="st1"
   points="891.5,806.4 862.2,806.4 862.2,806.1 856.7,786.8 851.9,769.9 884.1,761.3 899.2,806.1 899.2,806.4 "
   id="polygon63" />

				<path
   class="st11"
   d="m 898.3,486.3 -20.6,23.3 -7.9,-10.9 -18.4,-25.4 20.8,-16.3 c 1.4,1.2 2.7,2.4 4,3.7 8.5,8.1 15.9,16.7 22.1,25.6 z"
   id="path65" />

				<path
   class="st3"
   d="m 867.9,272.9 c 0.5,0.4 18.6,16.3 38.9,62.8 0,0 -14,10.2 -45.9,58.5 0.1,0.1 24.4,-73.2 7,-121.3 z"
   id="path67" />

				<polygon
   class="st3"
   points="837.3,825.6 837.3,806.8 837.3,806.4 862.2,806.4 891.5,806.4 891.5,806.8 891.5,825.6 "
   id="polygon69" />

				<path
   class="st3"
   d="m 891.4,448.9 -15.2,12 c -1.4,-1.3 -2.7,-2.5 -4,-3.7 -5.5,-4.9 -11,-9.2 -16.1,-12.8 l 9.1,-17.1 c 7.5,5.2 15.9,11.8 24.2,19.6 0.6,0.6 1.3,1.3 2,2 z"
   id="path71" />

				<polygon
   class="st11"
   points="851.9,769.9 838.7,723.4 839.6,723.1 868.4,714.7 875.3,735 884.1,761.3 "
   id="polygon73" />

				<polygon
   class="st12"
   points="845,645 839.6,629.1 818.1,565.2 840.6,550.3 844.8,560 873.2,626.3 848,654 "
   id="polygon75" />

				<path
   class="st4"
   d="m 872.1,457.1 -20.8,16.3 -6.4,-8.8 -18.5,-25.6 c 4.2,-2.7 7.9,-4.9 10.9,-6.5 4.7,2.6 11.3,6.5 18.7,11.9 5.1,3.5 10.6,7.8 16.1,12.7 z"
   id="path77" />

				<polygon
   class="st4"
   points="845,559.9 844.8,560 840.6,550.3 828.8,522.6 825.5,515.1 839.6,501.4 848.4,516.8 869.8,554.2 "
   id="polygon79" />

				<polygon
   class="st9"
   points="848.4,516.8 839.6,501.4 824,474 845,464.6 851.4,473.4 869.8,498.8 "
   id="polygon81" />

				<polygon
   class="st1"
   points="839.6,723.1 838.7,723.4 833.5,705.2 820.1,658.2 845,645 848,654 868.4,714.7 "
   id="polygon83" />

				<path
   class="st7"
   d="m 826.4,439 c -4.8,3.1 -10.3,6.9 -15.9,11.4 -1.2,1 -2.4,2 -3.7,3 L 787,445.3 c 24.8,-22.9 49.4,-34 49.7,-34.1 l 0.7,-0.3 0.6,0.3 c 0.2,0.1 11.8,5.3 27.1,16 l -9.1,17.1 c -7.4,-5.3 -14,-9.3 -18.7,-11.9 -2.9,1.7 -6.7,3.9 -10.9,6.6 z"
   id="path85" />

				<polygon
   class="st8"
   points="837.3,806.4 832.2,806.4 827.6,786.8 856.7,786.8 862.2,806.1 862.2,806.4 "
   id="polygon87" />

				<polygon
   class="st9"
   points="827.6,786.8 824.1,771.6 818.8,749 809.6,709.8 833.5,705.2 838.7,723.4 851.9,769.9 856.7,786.8 "
   id="polygon89" />

				<polygon
   class="st11"
   points="820.1,658.2 814.2,637.7 839.6,629.1 845,645 "
   id="polygon91" />

				<path
   class="st13"
   d="m 845,464.6 -21,9.5 -13.5,-23.6 c 5.7,-4.5 11.1,-8.3 15.9,-11.4 z"
   id="path93" />

				<polygon
   class="st13"
   points="815.7,557.9 809.6,540 828.8,522.6 840.6,550.3 818.1,565.2 "
   id="polygon95" />

				<path
   class="st11"
   d="m 824,474 15.7,27.4 -14.1,13.6 -14.8,-34.5 -9.1,-21.4 -0.7,-0.7 c 2,-1.8 3.9,-3.5 5.9,-5.1 1.2,-1 2.4,-2 3.7,-3 z"
   id="path97" />

				<polygon
   class="st1"
   points="814.2,637.7 805.8,608.1 798.8,583.6 795.6,572.5 795.7,572.5 815.7,557.9 818.1,565.2 839.6,629.1 "
   id="polygon99" />

				<polygon
   class="st4"
   points="837.3,806.8 837.3,825.6 776.6,825.6 775.9,806.8 775.9,806.4 787,806.4 805.8,806.4 832.2,806.4 837.3,806.4 "
   id="polygon101" />

				<path
   class="st14"
   d="m 837.6,305.8 c 0,3.3 -0.1,6.6 -0.4,9.9 l -24.8,-13.4 -22.6,-12.2 12.7,-22.8 29.7,0.6 c 3.5,12 5.4,24.7 5.4,37.9 z"
   id="path103" />

				<path
   class="st15"
   d="m 812.4,302.3 24.8,13.4 c -0.4,5.9 -1.2,11.6 -2.3,17.2 l -18.1,9.5 -31.6,-14.4 z"
   id="path105" />

				<path
   class="st16"
   d="m 816.8,342.4 18.1,-9.5 c -0.5,2.5 -1.1,4.9 -1.7,7.4 -5.5,21.2 -15.9,40.5 -30,56.4 l 9.2,-37 z"
   id="path107" />

				<polygon
   class="st8"
   points="809.6,709.8 804.4,687.5 791.9,633.9 789.4,623.1 805.8,608.1 814.2,637.7 820.1,658.2 833.5,705.2 "
   id="polygon109" />

				<path
   class="st16"
   d="m 832.3,267.9 -29.7,-0.6 6.4,-3.6 12.6,-22.4 v 0 c 2.3,4.3 4.3,8.6 6.1,13.2 1.7,4.3 3.3,8.8 4.6,13.4 z"
   id="path111" />

				<polygon
   class="st1"
   points="805.8,806.1 802.5,789.2 799.4,773.2 824.1,771.6 827.6,786.8 832.2,806.4 805.8,806.4 "
   id="polygon113" />

				<polygon
   class="st8"
   points="809.6,540 799.4,509.7 791,484.7 810.8,480.6 825.5,515.1 828.8,522.6 "
   id="polygon115" />

				<polygon
   class="st1"
   points="799.4,773.2 795.7,753.9 818.8,749 824.1,771.6 "
   id="polygon117" />

				<path
   class="st17"
   d="m 821.6,241.3 v 0 l -12.6,22.4 -6.4,3.6 -53,2.5 7.2,-15.4 11.7,-7.3 v 0 l 49.8,-11.6 v 0 c 1.1,1.9 2.2,3.8 3.3,5.8 z"
   id="path119" />

				<polygon
   class="st11"
   points="795.7,753.9 792.4,736.6 787.2,709.8 784.5,695.8 804.4,687.5 809.6,709.8 818.8,749 "
   id="polygon121" />

				<path
   class="st18"
   d="m 818.3,235.5 v 0 l -49.9,11.6 15.7,-34 5.5,-11.8 c 11.3,9.8 21.1,21.3 28.7,34.2 z"
   id="path123" />

				<polygon
   class="st14"
   points="766.3,355.8 742.6,327 748.4,318 757.9,315.7 785.2,328 816.8,342.4 812.4,359.7 "
   id="polygon125" />

				<polygon
   class="st11"
   points="795.7,572.5 795.6,572.5 787,542.2 782.6,526.9 799.4,509.7 809.6,540 815.7,557.9 "
   id="polygon127" />

				<path
   class="st15"
   d="m 812.4,359.7 -9.2,37 c -1.2,1.4 -2.5,2.8 -3.8,4.1 -2.1,2.2 -4.3,4.4 -6.6,6.4 l -32.3,-40.2 5.9,-11.2 z"
   id="path129" />

				<polygon
   class="st18"
   points="757.9,315.7 770.9,301.7 784.2,300.2 789.8,290.1 812.4,302.3 785.2,328 "
   id="polygon131" />

				<path
   class="st9"
   d="m 801.6,459.2 9.1,21.4 -19.7,4.1 -4,-12 c 3.6,-4.1 7.4,-8 11.5,-11.9 0.8,-0.8 1.7,-1.6 2.5,-2.3 z"
   id="path133" />

				<path
   class="st4"
   d="m 787,445.3 19.8,8.1 c -1.9,1.6 -3.9,3.3 -5.9,5.1 -0.8,0.8 -1.7,1.5 -2.5,2.3 -4.1,3.8 -7.9,7.8 -11.5,11.9 -2.3,2.6 -4.4,5.2 -6.5,7.9 L 765,469.3 c 6,-7.8 12.7,-15.3 20.3,-22.4 0.6,-0.5 1.1,-1.1 1.7,-1.6 z"
   id="path135" />

				<polygon
   class="st13"
   points="787,806.4 787,806.1 785.4,796.3 802.5,789.2 805.8,806.1 805.8,806.4 "
   id="polygon137" />

				<polygon
   class="st12"
   points="789.4,623.1 787.6,615.6 782.6,594.1 798.8,583.6 805.8,608.1 "
   id="polygon139" />

				<polygon
   class="st11"
   points="784.5,695.8 780.4,674.3 774.2,642.5 774.9,642.4 791.9,633.9 804.4,687.5 "
   id="polygon141" />

				<polygon
   class="st17"
   points="784.2,300.2 741,288 749.5,269.8 802.5,267.3 789.8,290.1 "
   id="polygon143" />

				<polygon
   class="st12"
   points="785.4,796.3 781.4,771.9 776.6,742.9 792.4,736.6 795.7,753.9 799.4,773.2 802.5,789.2 "
   id="polygon145" />

				<path
   class="st1"
   d="m 791,484.7 8.4,25 -16.8,17.2 -10,-35 c 2.4,-3.8 5,-7.6 7.9,-11.3 2,-2.7 4.2,-5.3 6.5,-7.9 z"
   id="path147" />

				<polygon
   class="st9"
   points="782.6,594.1 774.9,560.9 771.8,548 787,542.2 795.6,572.5 798.8,583.6 "
   id="polygon149" />

				<path
   class="st14"
   d="m 760.5,367 32.4,40.3 c -11,10.1 -23.6,18.3 -37.4,24.4 l -6.5,-22.9 -1.2,-4.2 4.4,-29.6 z"
   id="path151" />

				<polygon
   class="st9"
   points="775.9,738.4 772.6,718 787.2,709.8 792.4,736.6 776.6,742.9 "
   id="polygon153" />

				<polygon
   class="st10"
   points="774.9,642.4 774.2,642.5 770.7,624.3 787.6,615.6 789.4,623.1 791.9,633.9 "
   id="polygon155" />

				<path
   class="st18"
   d="m 768.2,186.3 c 7.6,4.4 14.8,9.4 21.4,15.1 l -5.5,11.8 -46,-9.1 v 0 l -13.1,-2.6 8.2,-29.2 v 0 c 12.5,3 24.2,7.8 35,14 z"
   id="path157" />

				<polygon
   class="st11"
   points="770.7,624.3 768.7,613.9 761.6,577.1 774.9,560.9 782.6,594.1 787.6,615.6 "
   id="polygon159" />

				<polygon
   class="st13"
   points="772.6,718 766.6,681.6 779.9,674.4 780.4,674.3 784.5,695.8 787.2,709.8 "
   id="polygon161" />

				<path
   class="st8"
   d="m 782.6,526.9 4.3,15.3 -15.1,5.8 -8.8,-37.8 v 0 c 1.2,-2.7 2.4,-5.4 3.8,-8 1.8,-3.5 3.7,-6.9 5.9,-10.2 z"
   id="path163" />

				<polygon
   class="st11"
   points="775.9,806.4 762.5,806.4 759.3,779.4 781.4,771.9 785.4,796.3 787,806.1 787,806.4 "
   id="polygon165" />

				<polygon
   class="st15"
   points="768.4,247.2 766.8,247.6 742.7,251.1 742.6,250.3 738.2,204.1 784.2,213.2 768.5,247.2 "
   id="polygon167" />

				<polygon
   class="st17"
   points="757.9,315.7 748.4,318 724.4,290.1 741,288 784.2,300.2 770.9,301.7 "
   id="polygon169" />

				<polygon
   class="st4"
   points="759.3,779.4 755.1,745.3 775.9,738.4 776.6,742.9 781.4,771.9 "
   id="polygon171" />

				<path
   class="st3"
   d="m 780.5,480.6 c -2.8,3.7 -5.5,7.5 -7.9,11.3 -2.1,3.4 -4.1,6.8 -5.9,10.2 -1.4,2.6 -2.6,5.3 -3.8,8 v 0 c -2.2,5.1 -4.1,10.3 -5.6,15.6 h -19.8 c 2.7,-11.2 6.8,-22 12.2,-32.4 4.3,-8.3 9.4,-16.3 15.3,-24 z"
   id="path173" />

				<polygon
   class="st12"
   points="779.9,674.4 766.6,681.6 764.2,666.6 761.2,648.9 756.6,620.4 768.7,613.9 770.7,624.3 774.2,642.5 780.4,674.3 "
   id="polygon175" />

				<polygon
   class="st7"
   points="775.9,806.8 776.6,825.6 733.3,825.6 733.3,761.3 752.2,761.3 752.5,761.3 752.5,806.4 762.5,806.4 775.9,806.4 "
   id="polygon177" />

				<polygon
   class="st11"
   points="755.1,745.3 752.6,724.4 752.5,724.4 752.5,700.7 752.5,670.9 764.2,666.6 766.6,681.6 772.6,718 775.9,738.4 "
   id="polygon179" />

				<path
   class="st1"
   d="m 771.8,548 3,12.9 -13.2,16.2 -1.2,-6.4 -6,-31.3 c 0.8,-4.6 1.8,-9.1 3.1,-13.6 1.5,-5.3 3.4,-10.5 5.6,-15.6 z"
   id="path181" />

				<polygon
   class="st13"
   points="756.6,620.4 752.5,595.3 752.5,577.1 760.4,570.7 761.6,577.1 768.7,613.9 "
   id="polygon183" />

				<polygon
   class="st19"
   points="727,272.9 730.1,252.9 742.7,251.1 766.8,247.6 768.4,247.2 756.7,254.4 "
   id="polygon185" />

				<polygon
   class="st14"
   points="760.5,367 729.4,340.3 725.1,325.3 742.6,327 766.3,355.8 "
   id="polygon187" />

				<polygon
   class="st10"
   points="752.5,670.9 752.5,655.5 752.9,655.5 761.2,648.9 764.2,666.6 "
   id="polygon189" />

				<polygon
   class="st8"
   points="752.5,806.4 752.5,761.3 752.5,724.4 752.6,724.4 755.1,745.3 759.3,779.4 762.5,806.4 "
   id="polygon191" />

				<polygon
   class="st11"
   points="752.9,655.5 752.5,655.5 752.5,603.3 752.5,595.3 756.6,620.4 761.2,648.9 "
   id="polygon193" />

				<polygon
   class="st17"
   points="740.5,379.2 734.7,358.9 729.4,340.3 760.5,367 752.1,375 "
   id="polygon195" />

				<path
   class="st8"
   d="m 754.3,539.4 6,31.3 -7.9,6.4 v -15.7 c 0.1,-7.5 0.7,-14.8 1.9,-22 z"
   id="path197" />

				<path
   class="st2"
   d="m 737.6,525.8 h 19.8 c -1.3,4.5 -2.3,9 -3.1,13.6 -1.2,7.2 -1.8,14.6 -1.8,22 v 15.7 18.2 7.9 l -19.2,1.7 v -43.6 c 0,-12.1 1.4,-24 4.3,-35.5 z"
   id="path199" />

				<polygon
   class="st17"
   points="724.4,290.1 719.7,290.7 711.3,277 727,272.9 756.7,254.4 749.5,269.8 741,288 "
   id="polygon201" />

				<path
   class="st8"
   d="m 748.9,408.8 6.5,22.9 c -3.2,1.4 -6.5,2.7 -9.9,3.9 v 0 l -6.3,-26.8 z"
   id="path203" />

				<polygon
   class="st4"
   points="752.2,761.3 733.3,761.3 733.3,695.8 752.2,700.7 752.5,700.7 752.5,724.4 752.5,761.3 "
   id="polygon205" />

				<polygon
   class="st5"
   points="752.2,700.7 733.3,695.8 733.3,605 752.5,603.3 752.5,655.5 752.5,670.9 752.5,700.7 "
   id="polygon207" />

				<polygon
   class="st18"
   points="740.5,379.2 752.1,375 747.7,404.6 "
   id="polygon209" />

				<polygon
   class="st9"
   points="739.3,408.8 732.7,380.6 729.1,365 734.7,358.9 740.5,379.2 747.7,404.6 748.9,408.8 "
   id="polygon211" />

				<polygon
   class="st17"
   points="742.6,327 725.1,325.3 717,296.8 716.6,296.6 719.7,290.7 724.4,290.1 748.4,318 "
   id="polygon213" />

				<path
   class="st18"
   d="m 726.1,392.9 -1.6,-8.5 8.3,-3.8 6.6,28.2 6.3,26.8 v 0 c -3.5,1.2 -7.1,2.3 -10.7,3.3 z"
   id="path215" />

				<polygon
   class="st14"
   points="730.1,252.9 718,226.7 718,226.7 725.1,201.4 738.2,204 738.2,204.1 742.6,250.3 742.7,251.1 "
   id="polygon217" />

				<path
   class="st12"
   d="m 726.1,392.9 8.9,46 c -2.6,0.7 -5.1,1.3 -7.8,1.8 L 720,396.6 Z"
   id="path219" />

				<polygon
   class="st8"
   points="729.1,365 714.3,301.7 714,301.5 716.6,296.6 717,296.8 725.1,325.3 729.4,340.3 734.7,358.9 "
   id="polygon221" />

				<path
   class="st19"
   d="m 733.3,172.3 v 0 l -8.2,29.2 -7.1,25.2 -8,-17.4 -14.6,-31.8 4.6,-9.3 c 5.1,0 10.1,0.3 15.1,0.8 6.2,0.7 12.3,1.8 18.2,3.3 z"
   id="path223" />

				<polygon
   class="st17"
   points="724.4,384.4 710,309.7 709.7,309.5 714,301.5 714.3,301.7 729.1,365 732.7,380.6 "
   id="polygon225" />

				<polygon
   class="st18"
   points="727,272.9 711.3,277 708.5,272.5 711.2,258.1 708.8,249.2 710,209.3 718,226.7 730.1,252.9 "
   id="polygon227" />

				<path
   class="st14"
   d="m 720,396.5 7.2,44.1 c -2.9,0.6 -5.8,1.1 -8.8,1.5 l -6.6,-54.8 h 6.7 z"
   id="path229" />

				<polygon
   class="st8"
   points="720,396.5 718.4,387.3 706.7,315.7 706.6,315.6 709.7,309.5 710,309.7 724.4,384.4 726.1,392.9 "
   id="polygon231" />

				<path
   class="st17"
   d="m 711.3,277 8.4,13.6 -3.1,5.9 -2.6,4.9 -4.2,8 -3.2,6 -2.9,5.5 -3.7,7.1 -3.7,-6.9 -3,-5.5 -3.3,-6 -4.3,-8 v 0 l -2.7,-4.9 -2.7,-4.9 c 0,0 8.2,-13.8 8.8,-14.7 0.6,-0.9 4.4,-16.5 4.4,-16.5 l -3.2,-7.3 -5,-5.6 14.7,-3.2 8.8,4.7 2.3,8.8 -2.6,14.4 z"
   id="path233" />

				<polygon
   class="st17"
   points="711.8,387.3 710,372.8 703.7,321.1 703.6,321.1 706.6,315.6 706.7,315.7 718.4,387.3 "
   id="polygon235" />

				<path
   class="st9"
   d="m 711.8,387.3 6.6,54.8 c -2.8,0.4 -5.6,0.7 -8.4,0.9 l -4.8,-55.7 -1.3,-14.5 h 6.1 z"
   id="path237" />

				<polygon
   class="st8"
   points="703.9,372.8 700,328 703.6,321.1 703.7,321.1 710,372.8 "
   id="polygon239" />

				<polygon
   class="st14"
   points="708.8,249.2 700,244.5 683,202.4 695.4,177.5 710,209.3 "
   id="polygon241" />

				<path
   class="st15"
   d="M 705.1,387.3 710,443 c -3.3,0.2 -6.6,0.4 -10,0.4 0,0 0,0 0,0 v -56 h 4.6 z"
   id="path243" />

				<polygon
   class="st17"
   points="704.6,387.3 700,387.3 700,328 703.9,372.8 705.1,387.3 "
   id="polygon245" />

				<path
   class="st18"
   d="m 661.3,173.7 c 12.3,-3.6 25.3,-5.5 38.7,-5.5 l -4.6,9.3 -12.4,25 -23.6,10.2 -8.7,-35.3 v 0 c 3.5,-1.4 7,-2.6 10.6,-3.7 z"
   id="path247" />

				<path
   class="st14"
   d="m 700,387.3 v 56 c -1.3,0 -2.5,0 -3.7,0 -1.7,0 -3.5,-0.1 -5.2,-0.2 l 2.2,-28.4 2.1,-27.3 h 4.6 z"
   id="path249" />

				<polygon
   class="st17"
   points="695.4,387.3 700,328 700,387.3 "
   id="polygon251" />

				<polygon
   class="st15"
   points="685.3,247.8 669.9,252.9 654.9,250.7 659.4,212.6 683,202.4 700,244.5 "
   id="polygon253" />

				<polygon
   class="st8"
   points="685.2,412.6 688.2,387.3 696.2,321.1 700,328 695.4,387.3 693.3,414.6 "
   id="polygon255" />

				<polygon
   class="st17"
   points="681.5,387.3 685.9,360.7 693.3,315.7 696.2,321.1 688.2,387.3 "
   id="polygon257" />

				<path
   class="st19"
   d="m 690.3,253.4 3.2,7.3 c 0,0 -3.8,15.6 -4.4,16.5 l -16.2,-4.3 -3,-20 15.4,-5.1 z"
   id="path259" />

				<polygon
   class="st8"
   points="685.9,360.7 680.5,358.9 690,309.7 693.3,315.7 "
   id="polygon261" />

				<path
   class="st12"
   d="m 693.3,414.6 -2.2,28.4 c -3.2,-0.2 -6.3,-0.5 -9.5,-0.9 l 3.6,-29.5 z"
   id="path263" />

				<polygon
   class="st17"
   points="667.2,380.6 674.1,351.2 685.7,301.7 690,309.7 680.5,358.9 675.6,384.4 "
   id="polygon265" />

				<path
   class="st17"
   d="m 673,272.9 16.2,4.3 c -0.6,0.9 -8.8,14.7 -8.8,14.7 l -16.2,-3.9 -2,-22.3 z"
   id="path267" />

				<path
   class="st18"
   d="m 688.2,387.3 -3.1,25.3 -3.6,29.5 c -3,-0.4 -5.9,-0.9 -8.8,-1.5 l 6.2,-37.7 2.6,-15.6 z"
   id="path269" />

				<polygon
   class="st13"
   points="679,402.9 672.2,401.8 675.6,384.4 680.5,358.9 685.9,360.7 681.5,387.3 "
   id="polygon271" />

				<polygon
   class="st8"
   points="674.1,351.2 674.1,351.2 667.5,351.2 670.6,340.3 674.9,325.3 683,296.8 685.7,301.7 "
   id="polygon273" />

				<polygon
   class="st17"
   points="674.9,325.3 657.4,327 651.6,318 680.3,291.9 683,296.8 "
   id="polygon275" />

				<polygon
   class="st17"
   points="642.1,315.7 629,301.7 664.1,288 680.3,291.9 651.6,318 "
   id="polygon277" />

				<path
   class="st9"
   d="m 679,402.9 -6.2,37.7 c -2.6,-0.5 -5.2,-1.1 -7.8,-1.8 v -0.1 l 7.1,-37 z"
   id="path279" />

				<path
   class="st14"
   d="m 675.6,384.4 -3.4,17.4 -7.1,37 v 0.1 c -3.6,-0.9 -7.2,-2 -10.7,-3.3 l 6.9,-29.7 4.3,-18.6 1.6,-6.7 z"
   id="path281" />

				<polygon
   class="st19"
   points="639.5,367 657.4,327 674.9,325.3 670.6,340.3 "
   id="polygon283" />

				<polygon
   class="st12"
   points="665.7,387.3 657.7,385.5 657.7,385.5 659.5,379.2 659.5,379.2 667.5,351.2 674.1,351.2 667.2,380.6 "
   id="polygon285" />

				<polygon
   class="st18"
   points="662.2,265.7 635.4,247.9 654.9,250.7 669.9,252.9 673,272.9 "
   id="polygon287" />

				<polygon
   class="st17"
   points="659.5,379.2 659.5,379.2 647.9,375 639.5,367 670.6,340.3 667.5,351.2 "
   id="polygon289" />

				<polygon
   class="st7"
   points="647.5,796.3 666.7,796.3 666.7,825.6 594.2,825.6 594.2,806.4 613,806.4 637.4,806.4 647.5,806.4 "
   id="polygon291" />

				<polygon
   class="st3"
   points="647.5,796.3 647.5,724.4 647.5,718.9 666.7,718 666.7,796.3 "
   id="polygon293" />

				<polygon
   class="st5"
   points="647.5,718.9 647.5,708.7 647.5,669.1 647.5,633.4 666.7,626.3 666.7,718 "
   id="polygon295" />

				<path
   class="st4"
   d="m 666.7,561.4 v 64.9 l -19.2,7.1 v -35.7 -36.3 c 0,-1.2 0,-2.4 0,-3.6 v 0 l 18.4,-11.7 c 0.5,5.1 0.8,10.2 0.8,15.3 z"
   id="path297" />

				<path
   class="st2"
   d="m 637,510.1 c -1.2,-2.7 -2.4,-5.3 -3.8,-8 -1.8,-3.5 -3.7,-6.9 -5.9,-10.3 -4.2,-6.6 -8.9,-13 -14.3,-19.2 -3.6,-4.1 -7.4,-8 -11.5,-11.9 -0.8,-0.8 -1.7,-1.6 -2.5,-2.3 -1.8,-1.6 -3.5,-3.1 -5.3,-4.6 l 0.4,-0.5 14,-11.3 0.6,-0.6 c 2,1.7 4,3.5 6,5.4 15,14.1 26.9,29.8 35.5,46.5 8.6,16.6 13.8,34.3 15.7,52.8 l -18.4,11.7 v 0 c -0.2,-6.1 -0.7,-12.1 -1.7,-17.9 -0.5,-3.1 -1.1,-6.1 -1.8,-9.1 -1.8,-7.1 -4.1,-14 -7,-20.7 z"
   id="path299" />

				<polygon
   class="st8"
   points="661.3,405.9 653.1,401.8 654.9,395.5 654.9,395.4 657.7,385.5 657.7,385.5 665.7,387.3 661.3,405.9 "
   id="polygon301" />

				<polygon
   class="st17"
   points="615.8,300.2 597.4,267.3 591.1,263.7 662.2,265.7 664.1,288 "
   id="polygon303" />

				<polygon
   class="st17"
   points="615.8,300.2 664.1,288 629,301.7 "
   id="polygon305" />

				<path
   class="st17"
   d="m 635.4,247.9 26.8,17.8 -71.1,-2 -12.6,-22.4 v 0 c 1,-2 2.1,-3.9 3.2,-5.8 v 0 l 51.5,12 z"
   id="path307" />

				<path
   class="st9"
   d="m 661.3,405.9 -6.9,29.7 c -3.4,-1.2 -6.6,-2.5 -9.9,-3.9 l 2.7,-9.5 5.8,-20.3 z"
   id="path309" />

				<polygon
   class="st19"
   points="654.9,395.4 647.9,375 659.5,379.2 657.7,385.5 "
   id="polygon311" />

				<path
   class="st14"
   d="m 650.7,177.3 8.7,35.3 -4.5,38.1 -19.5,-2.8 v 0 l -4.4,-7.6 4.4,-56 v 0 c 4.9,-2.7 10,-5 15.3,-7 z"
   id="path313" />

				<polygon
   class="st15"
   points="620.5,333.9 642.1,315.7 651.6,318 657.4,327 639.5,367 625.2,354.9 610.4,342.4 "
   id="polygon315" />

				<polygon
   class="st14"
   points="653.1,401.8 647.2,422.1 624.4,393.6 647.9,375 654.9,395.4 654.9,395.5 "
   id="polygon317" />

				<path
   class="st18"
   d="m 647.9,375 -23.5,18.6 -17.2,13.7 c -3.6,-3.3 -7.1,-6.9 -10.4,-10.6 l -3.6,-37 32,-4.8 14.3,12.1 z"
   id="path319" />

				<polygon
   class="st8"
   points="647.4,724.4 647.5,724.4 647.5,796.3 647.5,806.4 637.4,806.4 641,777.5 645.5,740.3 "
   id="polygon321" />

				<polygon
   class="st1"
   points="647.4,724.4 645.5,740.3 625.2,731.5 627.5,717.4 628.9,708.7 647.5,708.7 647.5,718.9 647.5,724.4 "
   id="polygon323" />

				<polygon
   class="st4"
   points="628.9,708.7 633.4,681.6 636.6,661.8 647.5,669.1 647.5,708.7 "
   id="polygon325" />

				<polygon
   class="st1"
   points="636.6,661.8 641.2,633.9 647.1,597.7 647.5,597.7 647.5,633.4 647.5,669.1 "
   id="polygon327" />

				<path
   class="st8"
   d="m 647.5,561.4 v 36.3 h -0.4 l -5.9,36.2 v 0 l -12.8,-4.8 2.2,-11.6 15,-77.5 h 0.2 c 1,5.9 1.5,11.9 1.7,17.9 0,1.2 0,2.3 0,3.5 z"
   id="path329" />

				<path
   class="st19"
   d="m 632.6,425.7 c -9.2,-5.2 -17.7,-11.4 -25.4,-18.4 l 17.2,-13.7 22.9,28.5 -2.7,9.5 c -4.2,-1.7 -8.1,-3.7 -12,-5.9 z"
   id="path331" />

				<path
   class="st11"
   d="m 624.4,564 8.2,-35 4.4,-18.8 c 2.9,6.7 5.2,13.6 6.9,20.7 0.7,3 1.3,6 1.8,9.1 h -0.2 l -15,77.5 v 0 l -17.6,-4.7 9,-38.5 z"
   id="path333" />

				<polygon
   class="st11"
   points="617.7,777.5 621,757 625.2,731.5 625.2,731.5 645.5,740.3 641,777.5 "
   id="polygon335" />

				<polygon
   class="st18"
   points="620.5,333.9 581.7,300.2 615.8,300.2 629,301.7 642.1,315.7 "
   id="polygon337" />

				<polygon
   class="st12"
   points="633.4,681.6 618.6,679.7 625.8,642.4 628.4,629.1 641.2,633.9 636.6,661.8 "
   id="polygon339" />

				<polygon
   class="st1"
   points="613,806.4 613,806.1 617.7,777.5 641,777.5 637.4,806.4 "
   id="polygon341" />

				<path
   class="st8"
   d="m 637,510.1 -4.4,18.8 -14,-6.3 8.8,-30.7 c 2.1,3.4 4.1,6.8 5.9,10.3 1.3,2.6 2.5,5.2 3.7,7.9 z"
   id="path343" />

				<path
   class="st16"
   d="m 635.4,184.3 v 0 l -4.4,56 -21.8,-37.8 v 0 c 8,-7.1 16.7,-13.2 26.2,-18.2 z"
   id="path345" />

				<path
   class="st19"
   d="m 603.9,207.3 c 1.7,-1.7 3.5,-3.3 5.3,-4.9 v 0 l 21.8,37.8 4.4,7.6 -2.2,-0.3 -51.5,-12 v 0 c 6.1,-10.3 13.6,-19.8 22.2,-28.2 z"
   id="path347" />

				<polygon
   class="st9"
   points="627.5,717.4 611.8,714.7 615.5,695.4 618.6,679.7 633.4,681.6 628.9,708.7 "
   id="polygon349" />

				<polygon
   class="st12"
   points="610.4,557.9 608.7,557.2 618.6,522.6 632.6,528.9 624.4,564 "
   id="polygon351" />

				<polygon
   class="st10"
   points="625.8,642.4 625.8,642.4 606.8,639.4 613,612.8 630.6,617.5 628.4,629.1 "
   id="polygon353" />

				<polygon
   class="st12"
   points="625.2,731.5 621,757 604.9,750.8 611.8,714.7 627.5,717.4 625.2,731.5 "
   id="polygon355" />

				<path
   class="st10"
   d="m 627.4,491.9 -8.8,30.7 -9.9,34.6 -21.2,-8.9 9.4,-27.8 11.2,-33.3 4.9,-14.4 c 5.4,6.1 10.2,12.5 14.4,19.1 z"
   id="path357" />

				<polygon
   class="st11"
   points="615.5,695.4 615.5,695.4 594.2,693.4 596.9,681.6 602.8,656.4 606.8,639.4 625.8,642.4 618.6,679.7 "
   id="polygon359" />

				<polygon
   class="st14"
   points="591.1,338.3 610.4,342.4 625.2,354.9 593.2,359.7 "
   id="polygon361" />

				<polygon
   class="st8"
   points="604.9,570.7 608.7,557.2 610.4,557.9 624.4,564 622,574.3 "
   id="polygon363" />

				<polygon
   class="st9"
   points="606.8,639.4 602.8,656.4 582.8,647.9 586.9,633.9 602.8,577.9 604.9,570.7 622,574.3 613,612.8 "
   id="polygon365" />

				<polygon
   class="st13"
   points="613,806.1 613,806.4 594.2,806.4 594.2,806.1 598.4,784.4 600.8,771.8 604.9,750.8 621,757 617.7,777.5 "
   id="polygon367" />

				<path
   class="st15"
   d="m 620.5,333.9 -10.1,8.5 -19.3,-4 -25.9,-5.4 c -1.8,-8.8 -2.7,-17.9 -2.7,-27.2 0,-1.9 0,-3.7 0.1,-5.6 h 19.1 z"
   id="path369" />

				<path
   class="st19"
   d="m 597.4,267.3 18.4,32.8 h -34.1 -19.1 c 0.3,-7.8 1.3,-15.5 2.9,-23 v 0 l 25.6,-13.5 z"
   id="path371" />

				<polygon
   class="st4"
   points="604.9,750.8 600.8,771.8 576.8,767.9 580.8,750.7 591.4,705.2 594.2,693.4 615.5,695.4 611.8,714.7 "
   id="polygon373" />

				<path
   class="st12"
   d="m 613,472.7 -4.9,14.4 -16.1,-13.1 6.3,-14.8 0.7,-0.7 c 0.8,0.8 1.7,1.5 2.5,2.3 4.1,3.9 8,7.8 11.5,11.9 z"
   id="path375" />

				<polygon
   class="st20"
   points="602.8,577.9 580,570.7 587.6,548.3 608.7,557.2 604.9,570.7 "
   id="polygon377" />

				<path
   class="st3"
   d="m 573.6,439 c -4.2,-2.7 -7.9,-4.9 -10.9,-6.5 -7,3.9 -18.4,10.9 -30.5,20.9 l -18.7,-9.1 c 24.4,-22.2 48.3,-33 48.6,-33.1 l 0.7,-0.3 0.6,0.3 c 0.2,0.1 22.1,10 45.4,30.2 l -0.6,0.6 -14,11.3 -0.4,0.5 c -1.4,-1.2 -2.9,-2.4 -4.3,-3.5 -5.7,-4.4 -11.1,-8.2 -15.9,-11.3 z"
   id="path379" />

				<polygon
   class="st9"
   points="576.8,509.7 586.4,487.1 592,474 608.2,487.1 596.9,520.4 "
   id="polygon381" />

				<polygon
   class="st4"
   points="562,624.3 569.7,601.4 580,570.7 602.8,577.9 586.9,633.9 "
   id="polygon383" />

				<polygon
   class="st8"
   points="576,671.8 582.8,647.9 602.8,656.4 596.9,681.6 "
   id="polygon385" />

				<polygon
   class="st11"
   points="572.4,786.8 576.8,767.9 600.8,771.8 598.4,784.4 "
   id="polygon387" />

				<path
   class="st11"
   d="m 599,458.5 -0.7,0.7 -6.3,14.8 -5.6,13.1 -15.2,-4.7 4.8,-8.4 13.5,-23.6 c 1.4,1.1 2.8,2.3 4.3,3.5 1.7,1.5 3.5,3 5.2,4.6 z"
   id="path389" />

				<polygon
   class="st1"
   points="594.2,806.4 567.8,806.4 572.4,786.8 598.4,784.4 594.2,806.1 "
   id="polygon391" />

				<polygon
   class="st13"
   points="569.7,601.4 540.6,594.1 565.4,536.3 571.2,522.6 576.8,509.7 596.9,520.4 587.6,548.3 580,570.7 "
   id="polygon393" />

				<polygon
   class="st9"
   points="591.4,705.2 567.7,701 573.8,679.7 576,671.8 596.9,681.6 594.2,693.4 "
   id="polygon395" />

				<path
   class="st16"
   d="m 584.5,380.6 c -8.8,-13.5 -15.3,-28.7 -18.9,-45 -0.2,-0.9 -0.4,-1.8 -0.6,-2.7 l 25.9,5.4 2.1,21.4 3.6,37 c -4.3,-5 -8.4,-10.4 -12.1,-16.1 z"
   id="path397" />

				<polygon
   class="st3"
   points="594.2,825.6 521,825.6 521,806.4 537.7,806.4 567.8,806.4 594.2,806.4 "
   id="polygon399" />

				<polygon
   class="st13"
   points="554.5,747.2 561,724.4 567.7,701 591.4,705.2 580.8,750.7 "
   id="polygon401" />

				<path
   class="st19"
   d="m 567.2,269.8 c 2.7,-10 6.5,-19.6 11.3,-28.5 v 0 l 12.6,22.4 -25.6,13.5 v 0 c 0.4,-2.5 1,-5 1.7,-7.4 z"
   id="path403" />

				<path
   class="st8"
   d="M 589.5,450.4 576,474 l -22.7,-7.2 20.2,-27.9 c 4.9,3.2 10.3,7 16,11.5 z"
   id="path405" />

				<polygon
   class="st1"
   points="576,671.8 573.8,679.7 573.8,679.7 546.9,669.1 555.9,642.4 562,624.3 586.9,633.9 582.8,647.9 "
   id="polygon407" />

				<polygon
   class="st11"
   points="571.2,522.6 554.5,511.7 571.2,482.4 586.4,487.1 576.8,509.7 "
   id="polygon409" />

				<polygon
   class="st8"
   points="572.4,786.8 567.8,806.4 537.7,806.4 537.7,806.1 551.7,757 554.5,747.2 580.8,750.7 576.8,767.9 "
   id="polygon411" />

				<polygon
   class="st9"
   points="554.5,511.7 544.7,528.9 537.7,541.1 514.5,520.4 526.1,504.4 543.4,480.6 553.4,466.9 576,474 571.2,482.4 "
   id="polygon413" />

				<polygon
   class="st11"
   points="561,724.4 529.2,721.8 536.9,698.7 546.9,669.1 573.8,679.7 567.7,701 "
   id="polygon415" />

				<path
   class="st10"
   d="m 573.6,439 -20.2,27.9 -9.9,13.7 -19.6,-19.8 c 2.8,-2.6 5.6,-5.1 8.4,-7.4 12.1,-10.1 23.4,-17 30.5,-20.9 2.9,1.6 6.6,3.8 10.8,6.5 z"
   id="path417" />

				<polygon
   class="st4"
   points="544.7,528.9 554.5,511.7 571.2,522.6 565.4,536.3 "
   id="polygon419" />

				<polygon
   class="st12"
   points="555.9,642.4 525.9,628.5 530.6,617.5 540.6,594.1 569.7,601.4 562,624.3 "
   id="polygon421" />

				<polygon
   class="st1"
   points="530.6,617.5 504.2,599.8 518.8,574.1 518.8,574.1 537.7,541.1 544.7,528.9 565.4,536.3 540.6,594.1 "
   id="polygon423" />

				<polygon
   class="st4"
   points="551.7,757 519.4,750.7 529.2,721.8 561,724.4 554.5,747.2 "
   id="polygon425" />

				<polygon
   class="st8"
   points="555.9,642.4 546.9,669.1 536.9,698.7 501.9,684.5 515.8,652.2 525.9,628.5 "
   id="polygon427" />

				<polygon
   class="st1"
   points="500.8,806.1 506.5,789.2 519.4,750.7 551.7,757 537.7,806.1 537.7,806.4 521,806.4 500.8,806.4 "
   id="polygon429" />

				<path
   class="st11"
   d="m 523.8,460.8 19.6,19.8 -17.3,23.9 -25.3,-16.8 c 6.4,-9.5 14.1,-18.5 23,-26.9 z"
   id="path431" />

				<polygon
   class="st12"
   points="496.9,545.6 496.5,545.3 514.5,520.4 537.7,541.1 518.8,574.1 "
   id="polygon433" />

				<polygon
   class="st9"
   points="478,740.3 495.8,698.7 501.9,684.5 536.9,698.7 529.2,721.8 519.4,750.7 506.5,789.2 477.9,778 477.9,777.6 477.9,740.3 "
   id="polygon435" />

				<path
   class="st3"
   d="m 532.1,272.9 c -17.4,48.1 7,121.4 7,121.4 -31.9,-48.4 -45.9,-58.5 -45.9,-58.5 20.2,-46.6 38.4,-62.5 38.9,-62.9 z"
   id="path437" />

				<path
   class="st4"
   d="m 513.5,444.3 18.7,9.1 c -2.8,2.3 -5.6,4.8 -8.4,7.4 -8.9,8.4 -16.6,17.4 -23,26.8 -3.2,4.7 -6.1,9.6 -8.6,14.5 -3.1,6 -5.6,12.1 -7.7,18.3 h -20.1 c 2.7,-9.3 6.2,-18.3 10.8,-27.1 8.6,-16.7 20.6,-32.3 35.5,-46.5 0.9,-0.8 1.8,-1.7 2.8,-2.5 z"
   id="path439" />

				<polygon
   class="st11"
   points="515.8,652.2 482.5,637.7 504.2,599.8 530.6,617.5 525.9,628.5 "
   id="polygon441" />

				<path
   class="st1"
   d="m 526.1,504.4 -11.6,16 -18.1,24.9 -18.4,25.4 h -0.2 v -9.3 c 0,-14.2 2.2,-27.9 6.6,-41 2.1,-6.3 4.7,-12.4 7.7,-18.3 2.5,-4.9 5.4,-9.8 8.6,-14.5 z"
   id="path443" />

				<polygon
   class="st7"
   points="458.7,825.6 458.7,794.6 477.6,777.9 477.9,778 477.9,806.4 500.8,806.4 521,806.4 521,825.6 "
   id="polygon445" />

				<path
   class="st7"
   d="m 539,394.3 c -7,2.8 -13.7,6.4 -20.1,10.6 l -0.1,-0.2 c -15.3,-9.9 -46.5,-8 -47.1,-7.9 6.9,-24.5 14.3,-44.6 21.4,-61 0.1,-0.1 14,10.1 45.9,58.5 z"
   id="path447" />

				<path
   class="st3"
   d="m 518.8,404.6 0.1,0.2 c -37.8,24.6 -64.3,67.9 -64.3,67.9 5,-29.1 10.9,-54.3 17,-76 0,0 0,0 0,0 0.7,0 32,-2 47.2,7.9 z"
   id="path449" />

				<polygon
   class="st8"
   points="504.2,599.8 482.5,637.7 478,645.5 477.9,645.5 477.9,615.6 477.9,570.7 478,570.7 496.5,545.3 496.9,545.6 518.8,574.1 "
   id="polygon451" />

				<polygon
   class="st1"
   points="501.9,684.5 495.8,698.7 477.9,691.6 477.9,645.5 478,645.5 482.5,637.7 515.8,652.2 "
   id="polygon453" />

				<polygon
   class="st13"
   points="500.8,806.4 477.9,806.4 477.9,778 506.5,789.2 500.8,806.1 "
   id="polygon455" />

				<polygon
   class="st11"
   points="477.9,740.3 477.9,709.8 477.9,691.6 495.8,698.7 478,740.3 "
   id="polygon457" />

				<path
   class="st2"
   d="m 464.4,520.4 h 20.1 c -4.4,13.1 -6.6,26.8 -6.6,41 v 9.3 44.9 l -19.2,1.5 v -55.7 c 0,-14.1 1.9,-27.8 5.7,-41 z"
   id="path459" />

				<polygon
   class="st3"
   points="458.7,708.7 477.9,709.8 477.9,740.3 477.9,777.6 477.6,777.9 458.7,794.6 "
   id="polygon461" />

				<polygon
   class="st4"
   points="458.7,708.7 458.7,617.2 477.9,615.6 477.9,645.5 477.9,691.6 477.9,709.8 "
   id="polygon463" />

			</g>
        <g
           id="g923">
				<path
   class="st21"
   d="m 667.7,826.6 h -210 V 561.4 c 0,-14.1 1.9,-28 5.7,-41.3 2.7,-9.4 6.3,-18.5 10.8,-27.3 8.7,-16.8 20.7,-32.5 35.8,-46.7 0.9,-0.9 1.9,-1.7 2.8,-2.6 24.7,-22.4 48.7,-33.2 48.9,-33.3 l 1.1,-0.5 1.1,0.5 c 0.2,0.1 22.1,9.9 45.6,30.4 2,1.8 4,3.6 6,5.5 15.1,14.2 27.1,29.9 35.8,46.8 8.6,16.7 13.9,34.6 15.8,53.2 0.5,5 0.8,10.2 0.8,15.4 v 265.1 z m -207.9,-2 H 665.7 V 561.4 c 0,-5.1 -0.3,-10.3 -0.8,-15.2 -1.8,-18.3 -7.1,-35.9 -15.6,-52.4 -8.5,-16.6 -20.4,-32.1 -35.3,-46.2 -2,-1.8 -4,-3.7 -6,-5.4 -23.2,-20.2 -44.9,-30 -45.1,-30 l -0.2,-0.1 -0.2,0.1 c -0.2,0.1 -23.9,10.7 -48.3,32.9 -0.9,0.8 -1.8,1.7 -2.8,2.6 -14.9,14.1 -26.8,29.6 -35.3,46.2 -4.4,8.6 -8,17.7 -10.7,26.9 -3.7,13.1 -5.6,26.8 -5.6,40.7 z"
   id="path467" />

				<path
   class="st21"
   d="M 648.6,807.5 H 476.8 V 561.4 c 0,-14.2 2.2,-28.1 6.6,-41.3 2.1,-6.3 4.7,-12.5 7.8,-18.5 2.5,-4.9 5.4,-9.8 8.7,-14.6 6.4,-9.5 14.2,-18.5 23.2,-27 2.7,-2.5 5.5,-5 8.4,-7.5 12,-10 23.3,-17 30.6,-21.1 l 0.5,-0.3 0.5,0.3 c 3.6,2 7.3,4.2 10.9,6.6 5.5,3.6 10.9,7.4 16,11.5 1.6,1.2 3,2.4 4.3,3.5 1.9,1.6 3.6,3.1 5.3,4.6 0.8,0.8 1.7,1.5 2.5,2.3 4.1,3.8 7.9,7.9 11.5,12 5.4,6.2 10.3,12.7 14.4,19.3 2.1,3.4 4.1,6.9 5.9,10.3 1.4,2.7 2.7,5.4 3.8,8 2.9,6.8 5.3,13.8 7,20.9 0.7,3.1 1.4,6.2 1.9,9.2 1,5.9 1.6,12 1.7,18.1 0,1.1 0,2.3 0,3.6 v 246.2 z m -169.7,-2.1 h 167.5 v -244 c 0,-1.3 0,-2.4 0,-3.5 -0.2,-6 -0.7,-12 -1.7,-17.8 -0.5,-2.9 -1.1,-6 -1.8,-9 -1.7,-7 -4,-13.9 -6.9,-20.6 -1.1,-2.6 -2.4,-5.3 -3.7,-7.9 -1.8,-3.4 -3.7,-6.8 -5.8,-10.2 -4.1,-6.5 -8.9,-13 -14.2,-19 -3.5,-4.1 -7.4,-8 -11.4,-11.8 -0.8,-0.8 -1.7,-1.6 -2.5,-2.3 -1.7,-1.5 -3.4,-3 -5.2,-4.6 -1.3,-1.1 -2.7,-2.2 -4.2,-3.5 -5.1,-4 -10.4,-7.8 -15.9,-11.4 -3.4,-2.2 -6.9,-4.3 -10.3,-6.2 -7.3,4.1 -18.2,10.9 -29.8,20.6 -2.9,2.4 -5.7,4.9 -8.3,7.4 -8.9,8.4 -16.6,17.3 -22.9,26.7 -3.2,4.7 -6.1,9.6 -8.6,14.4 -3,5.9 -5.6,12 -7.7,18.2 -4.3,13 -6.5,26.6 -6.5,40.7 v 243.8 z"
   id="path469" />

				<path
   class="st21"
   d="m 942.3,826.6 h -210 V 561.4 c 0,-12.2 1.4,-24.3 4.3,-35.9 2.8,-11.3 6.9,-22.2 12.3,-32.7 4.3,-8.3 9.5,-16.5 15.4,-24.2 6,-7.8 12.8,-15.4 20.4,-22.5 0.6,-0.6 1.1,-1.1 1.7,-1.6 25,-23 49.7,-34.1 49.9,-34.3 l 1.1,-0.5 1.1,0.5 c 0.1,0 11.9,5.4 27.3,16.1 8.7,6.1 16.9,12.7 24.3,19.7 0.7,0.7 1.4,1.3 2.1,2 14.1,13.7 25.4,28.7 33.7,44.8 2.5,4.8 4.7,9.8 6.6,14.7 6.6,17.1 9.9,35.2 9.9,53.8 v 265.3 z m -207.9,-2 H 940.3 V 561.4 c 0,-18.4 -3.3,-36.3 -9.8,-53.1 -1.9,-4.9 -4.1,-9.8 -6.5,-14.5 -8.1,-15.8 -19.3,-30.7 -33.3,-44.2 -0.7,-0.7 -1.4,-1.3 -2,-2 -7.4,-7 -15.5,-13.5 -24.1,-19.5 -15.4,-10.7 -26.9,-15.9 -27,-15.9 l -0.2,-0.1 -0.2,0.1 c -0.2,0.1 -24.7,11.1 -49.4,33.9 -0.6,0.5 -1.1,1 -1.6,1.5 -7.5,7.1 -14.3,14.6 -20.2,22.3 -5.8,7.6 -10.9,15.7 -15.2,23.9 -5.3,10.3 -9.4,21.1 -12.1,32.2 -2.8,11.4 -4.2,23.4 -4.2,35.4 v 263.2 z"
   id="path471" />

				<path
   class="st21"
   d="M 923.2,807.5 H 751.4 V 561.4 c 0,-7.5 0.6,-15 1.9,-22.2 0.8,-4.6 1.8,-9.2 3.1,-13.7 1.5,-5.4 3.4,-10.7 5.6,-15.8 l 1.9,0.8 c -2.2,5 -4,10.2 -5.6,15.5 -1.3,4.4 -2.3,9 -3.1,13.5 -1.2,7.1 -1.8,14.5 -1.8,21.9 v 244 h 167.5 v -244 c 0,-10.4 -1.2,-20.6 -3.6,-30.4 -1,-4.2 -2.3,-8.4 -3.7,-12.4 -1.9,-5.4 -4.2,-10.8 -6.9,-16 -2.8,-5.4 -6,-10.6 -9.5,-15.7 -6.1,-8.9 -13.5,-17.4 -22,-25.3 -1.4,-1.3 -2.7,-2.5 -4,-3.7 -5,-4.4 -10.4,-8.7 -16,-12.7 -5.9,-4.2 -12,-8.1 -18.1,-11.5 -3.4,1.9 -6.9,4 -10.3,6.2 -5.5,3.6 -10.8,7.4 -15.9,11.4 -1.1,0.9 -2.4,1.9 -3.6,3 -2.1,1.7 -4,3.4 -5.8,5.1 -0.8,0.8 -1.7,1.5 -2.5,2.3 -4.1,3.8 -7.9,7.8 -11.4,11.8 -2.2,2.5 -4.4,5.1 -6.4,7.8 -2.8,3.7 -5.5,7.5 -7.8,11.2 -2.1,3.3 -4,6.7 -5.8,10.2 -1.4,2.6 -2.6,5.3 -3.7,7.9 l -1.9,-0.8 c 1.2,-2.7 2.4,-5.4 3.8,-8 1.8,-3.5 3.8,-7 5.9,-10.3 2.4,-3.8 5.1,-7.6 7.9,-11.4 2.1,-2.7 4.3,-5.4 6.5,-7.9 3.5,-4.1 7.4,-8.1 11.5,-12 0.9,-0.8 1.7,-1.6 2.5,-2.3 1.9,-1.7 3.8,-3.4 5.9,-5.1 1.3,-1.1 2.5,-2.1 3.7,-3 5.1,-4 10.5,-7.9 16,-11.5 3.7,-2.4 7.4,-4.6 11,-6.6 l 0.5,-0.3 0.5,0.3 c 6.3,3.5 12.7,7.5 18.8,11.9 5.7,4.1 11.1,8.4 16.2,12.9 1.3,1.2 2.6,2.4 4.1,3.7 8.5,8.1 16,16.7 22.3,25.7 3.6,5.1 6.8,10.5 9.6,15.9 2.7,5.3 5.1,10.8 7,16.3 1.5,4.1 2.7,8.4 3.8,12.6 2.4,10 3.6,20.3 3.6,30.9 v 245.9 z"
   id="path473" />

				<path
   class="st21"
   d="m 700,444.4 c -1.4,0 -2.6,0 -3.8,0 -1.8,0 -3.6,-0.1 -5.2,-0.2 -3.2,-0.2 -6.4,-0.5 -9.5,-0.9 -3,-0.4 -5.9,-0.9 -8.8,-1.5 -2.7,-0.5 -5.3,-1.1 -7.8,-1.8 -3.6,-0.9 -7.2,-2 -10.7,-3.3 -3.4,-1.2 -6.8,-2.5 -9.9,-3.9 -4.1,-1.8 -8.1,-3.8 -12,-6 -9.2,-5.2 -17.8,-11.4 -25.6,-18.6 -3.7,-3.4 -7.2,-6.9 -10.4,-10.6 -4.5,-5.1 -8.7,-10.6 -12.3,-16.2 -9,-13.9 -15.4,-29.2 -19,-45.3 -0.2,-0.9 -0.4,-1.8 -0.6,-2.7 -1.8,-8.9 -2.7,-18.1 -2.7,-27.4 0,-1.9 0,-3.8 0.1,-5.6 0.3,-7.8 1.3,-15.6 2.9,-23.2 0.5,-2.5 1.1,-5 1.8,-7.4 2.7,-10 6.5,-19.6 11.3,-28.7 1,-1.9 2.1,-3.9 3.3,-5.8 6.2,-10.4 13.7,-20 22.4,-28.4 1.7,-1.7 3.5,-3.3 5.3,-4.9 8.1,-7.1 17,-13.3 26.4,-18.3 5,-2.7 10.2,-5 15.4,-7 3.5,-1.3 7.1,-2.5 10.7,-3.6 12.6,-3.7 25.7,-5.6 39,-5.6 5.1,0 10.2,0.3 15.2,0.8 6.2,0.7 12.4,1.8 18.4,3.3 12.3,3.1 24.1,7.8 35.2,14.1 7.6,4.4 14.9,9.5 21.5,15.2 11.5,9.9 21.2,21.5 28.9,34.4 1.1,1.9 2.2,3.8 3.3,5.8 2.3,4.3 4.4,8.8 6.2,13.3 1.8,4.4 3.3,8.9 4.6,13.5 3.5,12.3 5.3,25.2 5.3,38.2 0,3.3 -0.1,6.7 -0.4,10 -0.4,5.8 -1.2,11.7 -2.3,17.4 -0.5,2.5 -1.1,5 -1.7,7.4 -5.4,20.9 -15.9,40.6 -30.2,56.9 -1.3,1.5 -2.6,2.9 -3.8,4.2 -2.1,2.2 -4.3,4.4 -6.6,6.5 -11.2,10.2 -23.9,18.5 -37.7,24.6 -3.2,1.4 -6.5,2.7 -9.9,3.9 -3.6,1.3 -7.2,2.4 -10.8,3.3 -2.6,0.7 -5.2,1.3 -7.8,1.8 -2.9,0.6 -5.9,1.1 -8.8,1.5 -2.9,0.4 -5.7,0.7 -8.5,0.9 -3.6,-0.3 -7,-0.1 -10.4,-0.1 z m 0,-275.2 c -13.1,0 -26,1.8 -38.4,5.5 -3.6,1 -7.1,2.2 -10.5,3.6 -5.2,2 -10.3,4.3 -15.2,6.9 -9.3,5 -18.1,11 -26,18 -1.8,1.6 -3.6,3.2 -5.2,4.8 -8.6,8.4 -16,17.8 -22.1,28 -1.1,1.9 -2.2,3.8 -3.2,5.7 -4.8,9 -8.5,18.5 -11.2,28.3 -0.6,2.3 -1.2,4.8 -1.7,7.3 -1.6,7.5 -2.5,15.2 -2.8,22.8 -0.1,1.8 -0.1,3.7 -0.1,5.6 0,9.1 0.9,18.2 2.7,27 0.2,0.9 0.4,1.8 0.6,2.7 3.5,15.9 9.8,30.9 18.7,44.6 3.6,5.6 7.7,11 12.2,16 3.2,3.6 6.7,7.2 10.3,10.5 7.7,7 16.2,13.2 25.3,18.3 3.9,2.2 7.8,4.2 11.8,5.9 3.1,1.4 6.4,2.7 9.8,3.9 3.5,1.2 7.1,2.3 10.6,3.2 2.5,0.6 5,1.2 7.7,1.8 2.9,0.6 5.8,1.1 8.7,1.5 3.1,0.4 6.2,0.7 9.4,0.9 1.6,0.1 3.4,0.2 5.2,0.2 1.2,0 2.4,0 3.7,0 3.4,0 6.7,-0.1 9.9,-0.4 2.7,-0.2 5.5,-0.5 8.3,-0.9 2.9,-0.4 5.9,-0.9 8.7,-1.5 2.6,-0.5 5.1,-1.1 7.7,-1.8 3.5,-0.9 7.1,-2 10.6,-3.2 3.4,-1.2 6.7,-2.5 9.8,-3.9 13.6,-6 26.1,-14.1 37.1,-24.2 2.3,-2.1 4.5,-4.2 6.5,-6.4 1.2,-1.3 2.4,-2.6 3.8,-4.1 14.2,-16 24.4,-35.4 29.8,-56 0.6,-2.4 1.2,-4.9 1.7,-7.3 1.1,-5.6 1.9,-11.4 2.3,-17.1 0.2,-3.2 0.4,-6.5 0.4,-9.8 0,-12.8 -1.8,-25.5 -5.2,-37.6 v 0 c -1.3,-4.5 -2.8,-9 -4.6,-13.3 -1.8,-4.4 -3.8,-8.8 -6.1,-13.1 -1,-1.9 -2.1,-3.8 -3.2,-5.7 -7.6,-12.8 -17.2,-24.2 -28.5,-33.9 -6.6,-5.6 -13.7,-10.7 -21.2,-15 -10.9,-6.2 -22.5,-10.9 -34.7,-13.9 -5.9,-1.5 -12,-2.6 -18.1,-3.2 -5.3,-0.4 -10.3,-0.7 -15.3,-0.7 z"
   id="path475" />

				<path
   class="st21"
   d="m 700,458.2 c -0.8,0 -1.6,0 -2.4,0 C 672.2,457.8 647.1,451 625.1,438.6 604.2,426.8 586.2,410 572.9,390 562.5,374.3 555.2,357 551.2,338.7 548.9,328 547.7,317 547.7,305.9 c 0,-14.4 2,-28.6 5.9,-42.3 7.1,-24.7 20.6,-47.4 38.9,-65.7 17.3,-17.2 38.6,-30.1 61.7,-37.4 14.8,-4.7 30.3,-7 45.9,-7 4.8,0 9.7,0.2 14.4,0.7 23.4,2.2 45.5,9.6 65.5,22 27.1,16.7 48.7,42.1 60.9,71.4 7.7,18.5 11.6,38.2 11.6,58.4 0,13.5 -1.8,26.8 -5.2,39.7 -6.3,23.3 -18.3,45.1 -34.7,63.1 l -1.5,-1.4 c 16.2,-17.7 28,-39.2 34.2,-62.2 3.4,-12.7 5.2,-25.9 5.2,-39.2 0,-20 -3.8,-39.3 -11.4,-57.6 -12,-28.9 -33.3,-53.9 -60,-70.4 -19.8,-12.2 -41.5,-19.5 -64.6,-21.7 -4.7,-0.4 -9.4,-0.7 -14.2,-0.7 -15.5,0 -30.7,2.3 -45.3,6.9 -22.8,7.2 -43.8,19.9 -60.8,36.9 -18.1,18 -31.3,40.4 -38.4,64.8 -3.9,13.5 -5.9,27.5 -5.9,41.7 0,10.9 1.2,21.8 3.5,32.3 4,18.1 11.2,35.1 21.4,50.6 13.1,19.7 30.9,36.3 51.5,48 21.7,12.3 46.4,19 71.5,19.4 0.8,0 1.6,0 2.4,0 21.9,0 43,-4.6 62.7,-13.7 18.3,-8.4 34.5,-20.3 48.2,-35.2 l 1.5,1.4 c -13.9,15.2 -30.3,27.2 -48.9,35.7 -20.1,9.1 -41.5,13.8 -63.7,13.8 z"
   id="path477" />

				<path
   class="st21"
   d="m 947.3,477.9 -2.9,-4.7 c -0.3,-0.4 -26.8,-43.4 -63.9,-67.5 -6.6,-4.3 -13.3,-7.9 -19.9,-10.5 l -0.9,-0.4 0.3,-0.9 c 0.2,-0.7 24.1,-73.5 7,-120.7 l 1,-0.4 0.7,-0.8 0.2,0.2 0.1,0.2 c 16.3,45 -3.9,112.4 -6.7,121.1 6.4,2.6 12.9,6.1 19.4,10.3 30.5,19.9 54,52.3 61.8,63.9 -4.5,-25.3 -9.9,-49.1 -16.1,-70.9 l 2,-0.6 c 6.6,23.3 12.3,48.9 17.1,76.1 z"
   id="path479" />

				<path
   class="st21"
   d="m 927.2,397 c -6.3,-22.2 -13.5,-42.7 -21.4,-60.8 -20.1,-46.1 -37.9,-61.8 -38.6,-62.5 l 1.4,-1.6 c 0.8,0.7 18.9,16.7 39.2,63.2 7.9,18.2 15.2,38.8 21.5,61.1 z"
   id="path481" />

				<path
   class="st21"
   d="m 452.7,477.9 0.9,-5.4 c 4.7,-27.2 10.5,-52.8 17.1,-76.1 l 2,0.6 c -6.2,21.8 -11.6,45.6 -16.1,70.9 7.8,-11.6 31.2,-44 61.8,-63.9 6.5,-4.2 13,-7.7 19.4,-10.3 -2.7,-8.7 -22.9,-76.2 -6.7,-121.1 l 2,0.7 c -17.1,47.2 6.7,120 7,120.7 l 0.3,0.9 -0.9,0.4 c -6.6,2.6 -13.2,6.1 -19.9,10.5 -37.1,24.2 -63.7,67.1 -63.9,67.5 z"
   id="path483" />

				<path
   class="st21"
   d="m 472.8,397 -2,-0.6 c 6.3,-22.3 13.6,-42.9 21.5,-61.1 20.3,-46.5 38.4,-62.6 39.2,-63.2 l 0.6,0.7 0.8,0.8 -0.1,0.1 c -0.7,0.6 -18.5,16.4 -38.6,62.5 -7.9,18.1 -15.1,38.6 -21.4,60.8 z"
   id="path485" />

				<path
   class="st21"
   d="m 700,330.2 -15.3,-28 1.8,-1 13.4,24.6 18.5,-35.1 -11.1,-18.1 2.7,-14.6 -2.2,-8.2 -8.1,-4.3 -12.6,2.8 3.9,4.4 3.4,7.8 -0.1,0.3 c -1.4,5.9 -4,15.9 -4.6,16.8 -0.5,0.7 -6,10 -8.5,14.1 l 5.1,9.3 -1.8,1 -5.6,-10.4 0.3,-0.5 c 0.3,-0.6 8.3,-13.8 8.8,-14.7 0.4,-0.8 2.4,-8.6 4.2,-15.8 l -3,-6.9 -6.1,-6.8 16.8,-3.7 9.6,5.1 2.5,9.5 -2.6,14.2 11.3,18.4 z"
   id="path487" />

				<polygon
   class="st21"
   points="669,253.8 635.3,248.9 635.6,246.8 670.9,252 673.9,272 689.4,276.2 688.9,278.2 672,273.7 "
   id="polygon489" />

				<polygon
   class="st21"
   points="581.4,236.6 581.9,234.5 633.4,246.5 635.5,246.8 635.3,248.9 633,248.6 "
   id="polygon491" />

				<polygon
   class="st21"
   points="636.4,806.3 646.3,724.3 648.4,724.5 638.4,806.9 636.4,806.7 "
   id="polygon493" />

				<polygon
   class="st21"
   points="695.2,321 696.2,321.1 697.3,321.1 697.3,321.3 682.6,442.2 680.6,442 "
   id="polygon495" />

				
					<rect
   x="581.29999"
   y="767.70001"
   transform="matrix(0.1614,-0.9869,0.9869,0.1614,-239.5341,1255.6608)"
   class="st21"
   width="75.599998"
   height="2.0999999"
   id="rect497" />

				
					<rect
   x="568.40002"
   y="663.5"
   transform="matrix(0.1608,-0.987,0.987,0.1608,-122.0678,1185.605)"
   class="st21"
   width="135.60001"
   height="2.0999999"
   id="rect499" />

				
					<rect
   x="619.70001"
   y="377.10001"
   transform="matrix(0.1614,-0.9869,0.9869,0.1614,199.5773,991.1797)"
   class="st21"
   width="126.6"
   height="2.0999999"
   id="rect501" />

				<polygon
   class="st21"
   points="593.2,805.9 644.5,539.8 646.6,540.2 595.2,806.2 595.2,825.6 593.1,825.6 "
   id="polygon503" />

				
					<rect
   x="611.79999"
   y="373.20001"
   transform="matrix(0.1895,-0.9819,0.9819,0.1895,181.726,968.5715)"
   class="st21"
   width="131.5"
   height="2.0999999"
   id="rect505" />

				<polygon
   class="st21"
   points="566.8,806.2 636.1,509.5 638.1,510 638,510.3 568.7,807 566.7,806.5 "
   id="polygon507" />

				<polygon
   class="st21"
   points="684.6,301.5 685.6,301.7 686.7,301.7 686.7,301.9 655.4,435.8 653.4,435.3 "
   id="polygon509" />

				
					<rect
   x="419.20001"
   y="647.90002"
   transform="matrix(0.2741,-0.9617,0.9617,0.2741,-201.2617,1031.3151)"
   class="st21"
   width="326.70001"
   height="2.0999999"
   id="rect511" />

				
					<rect
   x="630.90002"
   y="412.5"
   transform="matrix(0.2747,-0.9615,0.9615,0.2747,73.5515,924.6462)"
   class="st21"
   width="37.700001"
   height="2.0999999"
   id="rect513" />

				
					<rect
   x="648.70001"
   y="386.29999"
   transform="matrix(0.2741,-0.9617,0.9617,0.2741,104.5363,913.1564)"
   class="st21"
   width="16.9"
   height="2.0999999"
   id="rect515" />

				
					<rect
   x="628.40002"
   y="337"
   transform="matrix(0.2741,-0.9617,0.9617,0.2741,162.184,890.8875)"
   class="st21"
   width="85.699997"
   height="2.0999999"
   id="rect517" />

				<polygon
   class="st21"
   points="751.6,724.5 753.6,724.3 763.6,806.7 761.5,806.9 758.2,779.5 "
   id="polygon519" />

				
					<rect
   x="710"
   y="320.70001"
   transform="matrix(0.9927,-0.1203,0.1203,0.9927,-40.7422,88.3058)"
   class="st21"
   width="2.0999999"
   height="121.9"
   id="rect521" />

				
					<rect
   x="768.70001"
   y="593.90002"
   transform="matrix(0.9869,-0.1615,0.1615,0.9869,-103.0554,133.5032)"
   class="st21"
   width="2.0999999"
   height="213.60001"
   id="rect523" />

				
					<rect
   x="715.90002"
   y="314.79999"
   transform="matrix(0.9869,-0.1615,0.1615,0.9869,-51.6547,120.7344)"
   class="st21"
   width="2.0999999"
   height="126.6"
   id="rect525" />

				
					<rect
   x="779"
   y="536.90002"
   transform="matrix(0.9819,-0.1895,0.1895,0.9819,-113.338,159.9917)"
   class="st21"
   width="2.0999999"
   height="271.60001"
   id="rect527" />

				
					<rect
   x="721.40002"
   y="308.5"
   transform="matrix(0.9819,-0.1895,0.1895,0.9819,-57.8261,143.6708)"
   class="st21"
   width="2.0999999"
   height="131.60001"
   id="rect529" />

				<polygon
   class="st21"
   points="762,510.2 762,510.1 763,510.1 764,509.9 833.3,806.5 831.3,807 831.2,806.7 "
   id="polygon531" />

				
					<rect
   x="728.90002"
   y="299.89999"
   transform="matrix(0.9738,-0.2274,0.2274,0.9738,-64.7057,175.6572)"
   class="st21"
   width="2.0999999"
   height="137.5"
   id="rect533" />

				
					<rect
   x="816.40002"
   y="485.60001"
   transform="matrix(0.9617,-0.2743,0.2743,0.9617,-146.6543,249.0952)"
   class="st21"
   width="2.0999999"
   height="326.70001"
   id="rect535" />

				<polygon
   class="st21"
   points="716,297.1 718,296.5 756.4,431.2 763.9,442.4 762.1,443.5 754.5,432.1 "
   id="polygon537" />

				<polygon
   class="st21"
   points="641.5,316.6 628.5,302.7 615.2,301.1 596.7,268.1 590.3,264.5 577.5,241.8 579.4,240.8 591.8,262.9 598.2,266.5 616.5,299.2 629.5,300.7 642.6,314.7 652.2,317 657.9,325.9 674.8,324.2 675,326.3 656.9,328.1 650.9,318.9 "
   id="polygon539" />

				<polygon
   class="st21"
   points="659.1,380.2 647.3,375.9 637.9,366.9 669.9,339.5 671.3,341.1 641.1,367 648.4,374.1 659.8,378.2 659.5,379.2 659.5,380.3 659.3,380.3 "
   id="polygon541" />

				
					<rect
   x="670.40002"
   y="377.89999"
   transform="matrix(0.4175,-0.9087,0.9087,0.4175,43.5449,832.905)"
   class="st21"
   width="2.0999999"
   height="9.1999998"
   id="rect543" />

				<rect
   x="681.5"
   y="386.29999"
   class="st21"
   width="6.6999998"
   height="2.0999999"
   id="rect545" />

				<polygon
   class="st21"
   points="698.9,355 692.1,443.1 690,443 698.9,327.9 701,328 701,443.3 698.9,443.3 "
   id="polygon547" />

				<rect
   x="695.20001"
   y="386.29999"
   class="st21"
   width="4.8000002"
   height="2.0999999"
   id="rect549" />

				<polygon
   class="st21"
   points="726.1,272 729.1,252 766.6,246.5 768.2,246.2 768.7,248.2 766.9,248.6 731,253.8 728,273.7 711.1,278.2 710.6,276.2 "
   id="polygon551" />

				
					<rect
   x="767.79999"
   y="240.3"
   transform="matrix(0.9739,-0.2269,0.2269,0.9739,-34.0696,186.2956)"
   class="st21"
   width="51.200001"
   height="2.0999999"
   id="rect553" />

				<polygon
   class="st21"
   points="725.2,324.2 742.1,325.9 747.8,317 757.3,314.7 770.4,300.7 783.5,299.2 801.8,266.5 808.2,262.9 820.6,240.8 822.4,241.8 809.7,264.5 803.3,268.1 784.8,301.1 771.4,302.7 758.4,316.6 749.1,318.9 743.1,328.1 725,326.3 "
   id="polygon555" />

				<polygon
   class="st21"
   points="751.6,374.1 758.9,367 728.7,341.1 730.1,339.5 762,366.9 752.7,375.9 740.8,380.2 740.1,378.2 "
   id="polygon557" />

				
					<rect
   x="724"
   y="381.39999"
   transform="matrix(0.9088,-0.4173,0.4173,0.9088,-93.1424,338.9168)"
   class="st21"
   width="9.1999998"
   height="2.0999999"
   id="rect559" />

				<rect
   x="711.79999"
   y="386.29999"
   class="st21"
   width="6.6999998"
   height="2.0999999"
   id="rect561" />

				<rect
   x="700"
   y="386.29999"
   class="st21"
   width="4.5999999"
   height="2.0999999"
   id="rect563" />

				
					<rect
   x="703.90002"
   y="327.79999"
   transform="matrix(0.9962,-0.08669059,0.08669059,0.9962,-30.7646,62.5673)"
   class="st21"
   width="2.0999999"
   height="115.4"
   id="rect565" />

				
					<rect
   x="381"
   y="638.29999"
   transform="matrix(0.319,-0.9478,0.9478,0.319,-226.7222,963.2683)"
   class="st21"
   width="351.79999"
   height="2.0999999"
   id="rect567" />

				
					<rect
   x="385.29999"
   y="598.70001"
   transform="matrix(0.3938,-0.9192,0.9192,0.3938,-225.0626,858.2604)"
   class="st21"
   width="305.79999"
   height="2.0999999"
   id="rect569" />

				
					<rect
   x="457.29999"
   y="608.79999"
   transform="matrix(0.4961,-0.8682,0.8682,0.4961,-278.3499,740.0338)"
   class="st21"
   width="82.199997"
   height="2.0999999"
   id="rect571" />

				<polygon
   class="st21"
   points="588.6,449.9 589.5,450.4 590.4,450.9 590.4,451 519.7,574.6 517.9,573.6 "
   id="polygon573" />

				
					<rect
   x="444.39999"
   y="503.70001"
   transform="matrix(0.5873,-0.8094,0.8094,0.5873,-191.4968,633.9304)"
   class="st21"
   width="163"
   height="2.0999999"
   id="rect575" />

				
					<rect
   x="842"
   y="463.5"
   transform="matrix(0.9477,-0.319,0.319,0.9477,-159.9241,302.369)"
   class="st21"
   width="2.0999999"
   height="351.79999"
   id="rect577" />

				
					<rect
   x="860.79999"
   y="446.89999"
   transform="matrix(0.9193,-0.3936,0.3936,0.9193,-166.4966,387.5636)"
   class="st21"
   width="2.0999999"
   height="305.79999"
   id="rect579" />

				<polygon
   class="st21"
   points="811.3,449.8 811.4,449.9 922.9,645 921.1,646.1 809.6,450.9 "
   id="polygon581" />

				<polygon
   class="st21"
   points="827.1,438.2 827.3,438.4 922.8,570.1 921.1,571.3 825.4,439.4 "
   id="polygon583" />

				<polygon
   class="st21"
   points="648.3,293.1 615.9,301.2 562.4,301.2 562.4,299.1 615.7,299.1 663.9,287 664.5,289 629.4,302.7 628.7,300.7 "
   id="polygon585" />

				<polygon
   class="st21"
   points="678.1,292.4 663.1,288.8 661.2,266.7 591.3,264.8 565.9,278.1 564.9,276.2 590.8,262.7 591.1,262.7 663.1,264.7 665.1,287.1 682.5,291.3 652.3,318.7 650.9,317.2 "
   id="polygon587" />

				<polygon
   class="st21"
   points="740.3,287 755.8,254 757.7,254.9 741.7,289 719.8,291.7 719.6,289.7 "
   id="polygon589" />

				
					<rect
   x="761.59998"
   y="271.70001"
   transform="matrix(0.2715,-0.9624,0.9624,0.2715,272.5444,948.2004)"
   class="st21"
   width="2.0999999"
   height="44.799999"
   id="rect591" />

				
					<rect
   x="735.40002"
   y="285.60001"
   transform="matrix(0.7578,-0.6524,0.6524,0.7578,-20.0261,554.0972)"
   class="st21"
   width="2.0999999"
   height="36.799999"
   id="rect593" />

				<polygon
   class="st21"
   points="565.3,331.9 610.1,341.2 641.4,314.9 642.8,316.5 610.6,343.5 564.9,333.9 "
   id="polygon595" />

				<polygon
   class="st21"
   points="758.3,314.7 816.7,341.2 834.4,332 835.4,333.8 816.8,343.5 757.5,316.6 "
   id="polygon597" />

				<polygon
   class="st21"
   points="765.1,356 741.8,327.7 743.4,326.4 767.6,355.7 761.7,366.9 793.7,406.6 792,407.9 759.2,367.1 "
   id="polygon599" />

				
					<rect
   x="735"
   y="388.79999"
   transform="matrix(0.1458,-0.9893,0.9893,0.1458,254.9213,1074.8784)"
   class="st21"
   width="30"
   height="2.0999999"
   id="rect601" />

				<polygon
   class="st21"
   points="648.4,373.3 655.9,395.3 655.9,395.4 654.8,395.5 653.9,395.8 647.4,376.7 607.8,408.1 606.5,406.4 "
   id="polygon603" />

				<polygon
   class="st21"
   points="611,341.6 639.1,365.3 656.4,326.6 658.3,327.4 639.9,368.7 609.7,343.2 "
   id="polygon605" />

				
					<rect
   x="592.90002"
   y="338.20001"
   transform="matrix(0.9952,-0.09768242,0.09768242,0.9952,-33.0597,59.7733)"
   class="st21"
   width="2.0999999"
   height="58.700001"
   id="rect607" />

				<polygon
   class="st21"
   points="625.2,353.9 625.2,354.9 625.4,355.9 593.3,360.8 593,358.7 "
   id="polygon609" />

				
					<rect
   x="634.79999"
   y="389.60001"
   transform="matrix(0.7802,-0.6256,0.6256,0.7802,-115.3763,487.4203)"
   class="st21"
   width="2.0999999"
   height="36.599998"
   id="rect611" />

				
					<rect
   x="782"
   y="368.5"
   transform="matrix(0.2422,-0.9702,0.9702,0.2422,255.3165,1065.9283)"
   class="st21"
   width="56"
   height="2.0999999"
   id="rect613" />

				
					<rect
   x="788.29999"
   y="334.70001"
   transform="matrix(0.08470625,-0.9964,0.9964,0.08470625,366.024,1114.0299)"
   class="st21"
   width="2.0999999"
   height="46.200001"
   id="rect615" />

				
					<rect
   x="812.5"
   y="275.89999"
   transform="matrix(0.4747,-0.8802,0.8802,0.4747,160.7674,875.1204)"
   class="st21"
   width="2.0999999"
   height="53.900002"
   id="rect617" />

				<polygon
   class="st21"
   points="749.5,268.8 802.5,266.3 832.3,266.8 832.3,268.9 802.5,268.4 749.6,270.9 749.5,269.8 "
   id="polygon619" />

				
					<rect
   x="780"
   y="314.10001"
   transform="matrix(0.7273,-0.6863,0.6863,0.7273,1.5203,634.1472)"
   class="st21"
   width="37.5"
   height="2.0999999"
   id="rect621" />

				
					<rect
   x="600"
   y="291.29999"
   transform="matrix(0.6557,-0.755,0.755,0.6557,-32.397,562.9617)"
   class="st21"
   width="2.0999999"
   height="51.400002"
   id="rect623" />

				<polygon
   class="st21"
   points="634.8,248.9 634.5,248.4 608.3,203 610.1,201.9 636.2,247.1 673.5,272 672.4,273.8 635.1,248.9 "
   id="polygon625" />

				
					<rect
   x="669.5"
   y="249.3"
   transform="matrix(0.9485,-0.3167,0.3167,0.9485,-44.402,227.5002)"
   class="st21"
   width="16.200001"
   height="2.0999999"
   id="rect627" />

				<polygon
   class="st21"
   points="658.3,212.7 649.7,177.5 651.7,177.1 660.4,212.5 655.9,250.8 653.8,250.6 "
   id="polygon629" />

				<polygon
   class="st21"
   points="682.2,201.6 699.1,167.7 700.9,168.7 683.8,203.2 659.8,213.6 658.9,211.6 "
   id="polygon631" />

				
					<rect
   x="605.09998"
   y="211.2"
   transform="matrix(0.07811513,-0.9969,0.9969,0.07811513,372.1265,826.9452)"
   class="st21"
   width="56.099998"
   height="2.0999999"
   id="rect633" />

				
					<rect
   x="690.40002"
   y="200.8"
   transform="matrix(0.9273,-0.3742,0.3742,0.9273,-33.3873,275.0286)"
   class="st21"
   width="2.0999999"
   height="45.400002"
   id="rect635" />

				
					<rect
   x="705.70001"
   y="175"
   transform="matrix(0.9086,-0.4176,0.4176,0.9086,-19.8245,313.5627)"
   class="st21"
   width="2.0999999"
   height="54.200001"
   id="rect637" />

				
					<rect
   x="723"
   y="225.39999"
   transform="matrix(0.9086,-0.4177,0.4177,0.9086,-33.9804,324.3277)"
   class="st21"
   width="2.0999999"
   height="28.799999"
   id="rect639" />

				
					<rect
   x="689.40002"
   y="228.2"
   transform="matrix(0.02929384,-0.9996,0.9996,0.02929384,459.4704,931.6385)"
   class="st21"
   width="40"
   height="2.0999999"
   id="rect641" />

				<polygon
   class="st21"
   points="717,226.7 717,226.6 717,226.4 732.3,172 734.3,172.5 719,227 718,226.7 "
   id="polygon643" />

				<polygon
   class="st21"
   points="767.6,246.4 788.7,200.9 790.6,201.8 769.3,247.8 769,248.1 727.6,273.8 726.5,272 "
   id="polygon645" />

				
					<rect
   x="760.09998"
   y="185.2"
   transform="matrix(0.1947,-0.9809,0.9809,0.1947,408.3352,914.6141)"
   class="st21"
   width="2.0999999"
   height="46.799999"
   id="rect647" />

				
					<rect
   x="730.59998"
   y="196.10001"
   transform="matrix(0.1945,-0.9809,0.9809,0.1945,390.4542,880.9944)"
   class="st21"
   width="2.0999999"
   height="13.4"
   id="rect649" />

				<polygon
   class="st21"
   points="738.3,204.1 739.3,204 743.6,250.2 741.6,250.4 737.2,204.1 "
   id="polygon651" />

				
					<rect
   x="516.40002"
   y="592.70001"
   transform="matrix(0.557,-0.8305,0.8305,0.557,-276.2674,699.3615)"
   class="st21"
   width="2.0999999"
   height="31.799999"
   id="rect653" />

				<polygon
   class="st21"
   points="497.7,545 519.9,573.8 519.9,574.1 518.8,574.1 518,574.8 496.1,546.3 "
   id="polygon655" />

				
					<rect
   x="525.09998"
   y="515.20001"
   transform="matrix(0.6637,-0.748,0.748,0.6637,-220.0602,572.0723)"
   class="st21"
   width="2.0999999"
   height="31.1"
   id="rect657" />

				
					<rect
   x="563.70001"
   y="458.60001"
   transform="matrix(0.3014,-0.9535,0.9535,0.3014,-54.0748,867.0851)"
   class="st21"
   width="2.0999999"
   height="23.799999"
   id="rect659" />

				
					<rect
   x="561.79999"
   y="507.20001"
   transform="matrix(0.549,-0.8358,0.8358,0.549,-178.3697,703.7335)"
   class="st21"
   width="2.0999999"
   height="20"
   id="rect661" />

				
					<rect
   x="554"
   y="521.59998"
   transform="matrix(0.3345,-0.9424,0.9424,0.3345,-132.5319,877.5359)"
   class="st21"
   width="2.0999999"
   height="22"
   id="rect663" />

				
					<rect
   x="577.79999"
   y="476.79999"
   transform="matrix(0.2941,-0.9558,0.9558,0.2941,-54.725,895.4667)"
   class="st21"
   width="2.0999999"
   height="15.9"
   id="rect665" />

				
					<rect
   x="599.09998"
   y="470.20001"
   transform="matrix(0.6302,-0.7765,0.7765,0.6302,-151.2099,643.6837)"
   class="st21"
   width="2.0999999"
   height="20.799999"
   id="rect667" />

				
					<rect
   x="585.79999"
   y="503.60001"
   transform="matrix(0.4713,-0.882,0.882,0.4713,-143.9953,789.8906)"
   class="st21"
   width="2.0999999"
   height="22.9"
   id="rect669" />

				
					<rect
   x="554.09998"
   y="582.79999"
   transform="matrix(0.2414,-0.9704,0.9704,0.2414,-158.9234,992.2061)"
   class="st21"
   width="2.0999999"
   height="30"
   id="rect671" />

				
					<rect
   x="539.79999"
   y="618.90002"
   transform="matrix(0.4188,-0.9081,0.9081,0.4188,-262.6836,860.4827)"
   class="st21"
   width="2.0999999"
   height="33.099998"
   id="rect673" />

				
					<rect
   x="518.40002"
   y="672.70001"
   transform="matrix(0.3754,-0.9268,0.9268,0.3754,-316.6092,913.3916)"
   class="st21"
   width="2.0999999"
   height="37.799999"
   id="rect675" />

				
					<rect
   x="573.40002"
   y="615.70001"
   transform="matrix(0.3594,-0.9332,0.9332,0.3594,-219.0468,939.053)"
   class="st21"
   width="2.0999999"
   height="26.6"
   id="rect677" />

				
					<rect
   x="590.40002"
   y="562.40002"
   transform="matrix(0.3003,-0.9538,0.9538,0.3003,-134.0152,965.9356)"
   class="st21"
   width="2.0999999"
   height="23.9"
   id="rect679" />

				<polygon
   class="st21"
   points="624,564.9 608.3,558.1 586.5,548.9 587.3,547 588,547.3 610.8,556.9 624.8,563 624.4,563.9 624.4,565 624.2,565 "
   id="polygon681" />

				
					<rect
   x="544.09998"
   y="707.09998"
   transform="matrix(0.08309394,-0.9965,0.9965,0.08309394,-220.7769,1206.2225)"
   class="st21"
   width="2.0999999"
   height="32"
   id="rect683" />

				
					<rect
   x="534.5"
   y="737.40002"
   transform="matrix(0.1908,-0.9816,0.9816,0.1908,-306.6308,1135.7582)"
   class="st21"
   width="2.0999999"
   height="32.900002"
   id="rect685" />

				<polygon
   class="st21"
   points="477,776.5 478.2,777 506.9,788.2 506.1,790.1 476.3,778.5 "
   id="polygon687" />

				
					<rect
   x="512.40002"
   y="480.89999"
   transform="matrix(0.5525,-0.8335,0.8335,0.5525,-183.6783,649.9723)"
   class="st21"
   width="2.0999999"
   height="30.4"
   id="rect689" />

				
					<rect
   x="532.59998"
   y="456.79999"
   transform="matrix(0.71,-0.7042,0.7042,0.71,-176.7126,512.2967)"
   class="st21"
   width="2.0999999"
   height="27.799999"
   id="rect691" />

				
					<rect
   x="612.40002"
   y="563.79999"
   transform="matrix(0.2052,-0.9787,0.9787,0.2052,-72.7708,1055.4408)"
   class="st21"
   width="2.0999999"
   height="17.5"
   id="rect693" />

				
					<rect
   x="624.5"
   y="518.09998"
   transform="matrix(0.4103,-0.9119,0.9119,0.4103,-110.5882,880.5145)"
   class="st21"
   width="2.0999999"
   height="15.4"
   id="rect695" />

				
					<rect
   x="591.79999"
   y="641.29999"
   transform="matrix(0.391,-0.9204,0.9204,0.391,-239.2193,942.843)"
   class="st21"
   width="2.0999999"
   height="21.700001"
   id="rect697" />

				
					<rect
   x="585.40002"
   y="665.20001"
   transform="matrix(0.4238,-0.9058,0.9058,0.4238,-274.9741,921.1702)"
   class="st21"
   width="2.0999999"
   height="23.1"
   id="rect699" />

				
					<rect
   x="578.5"
   y="691.09998"
   transform="matrix(0.1762,-0.9844,0.9844,0.1762,-214.6833,1149.7256)"
   class="st21"
   width="2.0999999"
   height="24.1"
   id="rect701" />

				
					<rect
   x="566.59998"
   y="735.70001"
   transform="matrix(0.1334,-0.9911,0.9911,0.1334,-250.3082,1211.6725)"
   class="st21"
   width="2.0999999"
   height="26.5"
   id="rect703" />

				
					<rect
   x="603.79999"
   y="683.70001"
   transform="matrix(0.0968485,-0.9953,0.9953,0.0968485,-144.844,1229.1689)"
   class="st21"
   width="2.0999999"
   height="21.4"
   id="rect705" />

				
					<rect
   x="615.20001"
   y="631.29999"
   transform="matrix(0.1552,-0.9879,0.9879,0.1552,-112.4968,1150.2213)"
   class="st21"
   width="2.0999999"
   height="19.200001"
   id="rect707" />

				
					<rect
   x="620.79999"
   y="606"
   transform="matrix(0.2597,-0.9657,0.9657,0.2597,-133.706,1055.8569)"
   class="st21"
   width="2.0999999"
   height="18.200001"
   id="rect709" />

				<polygon
   class="st21"
   points="515.3,653.1 482.1,638.7 482.9,636.8 516.2,651.2 515.8,652.2 515.8,653.2 515.6,653.2 "
   id="polygon711" />

				
					<rect
   x="485.79999"
   y="685.5"
   transform="matrix(0.3672,-0.9302,0.9302,0.3672,-338.5098,892.7672)"
   class="st21"
   width="2.0999999"
   height="19.299999"
   id="rect713" />

				
					<rect
   x="587.70001"
   y="757.70001"
   transform="matrix(0.1572,-0.9876,0.9876,0.1572,-264.0356,1230.3296)"
   class="st21"
   width="2.0999999"
   height="24.299999"
   id="rect715" />

				
					<rect
   x="572.29999"
   y="784.59998"
   transform="matrix(0.9958,-0.0914453,0.0914453,0.9958,-69.3875,56.8212)"
   class="st21"
   width="26.1"
   height="2.0999999"
   id="rect717" />

				
					<rect
   x="618.59998"
   y="708.09998"
   transform="matrix(0.1699,-0.9855,0.9855,0.1699,-191.2116,1205.0854)"
   class="st21"
   width="2.0999999"
   height="15.9"
   id="rect719" />

				
					<rect
   x="624.90002"
   y="673.20001"
   transform="matrix(0.128,-0.9918,0.9918,0.128,-129.1773,1214.3379)"
   class="st21"
   width="2.0999999"
   height="14.9"
   id="rect721" />

				
					<rect
   x="633.70001"
   y="624.59998"
   transform="matrix(0.3494,-0.937,0.937,0.3494,-178.6993,1005.5513)"
   class="st21"
   width="2.0999999"
   height="13.7"
   id="rect723" />

				
					<rect
   x="611.90002"
   y="745.20001"
   transform="matrix(0.3591,-0.9333,0.9333,0.3591,-310.7597,1055.2627)"
   class="st21"
   width="2.0999999"
   height="17.299999"
   id="rect725" />

				
					<rect
   x="559.29999"
   y="660"
   transform="matrix(0.366,-0.9306,0.9306,0.366,-272.355,949.0164)"
   class="st21"
   width="2.0999999"
   height="28.799999"
   id="rect727" />

				<rect
   x="617.70001"
   y="776.5"
   class="st21"
   width="23.5"
   height="2.0999999"
   id="rect729" />

				<polygon
   class="st21"
   points="625.2,731.5 625.2,730.4 625.4,730.4 645.9,739.4 645,741.3 624.8,732.4 "
   id="polygon731" />

				<rect
   x="628.90002"
   y="707.70001"
   class="st21"
   width="18.6"
   height="2.0999999"
   id="rect733" />

				
					<rect
   x="641"
   y="658.90002"
   transform="matrix(0.5562,-0.8311,0.8311,0.5562,-268.0843,828.9536)"
   class="st21"
   width="2.0999999"
   height="13.1"
   id="rect735" />

				
					<rect
   x="771.29999"
   y="544"
   transform="matrix(0.9338,-0.3578,0.3578,0.9338,-143.4318,314.9787)"
   class="st21"
   width="16.200001"
   height="2.0999999"
   id="rect737" />

				
					<rect
   x="781.09998"
   y="587.79999"
   transform="matrix(0.8379,-0.5459,0.5459,0.8379,-193.2483,527.1103)"
   class="st21"
   width="19.299999"
   height="2.0999999"
   id="rect739" />

				
					<rect
   x="786.5"
   y="614.59998"
   transform="matrix(0.7383,-0.6745,0.6745,0.7383,-206.4957,699.0828)"
   class="st21"
   width="22.200001"
   height="2.0999999"
   id="rect741" />

				
					<rect
   x="757.79999"
   y="567.90002"
   transform="matrix(0.6328,-0.7743,0.7743,0.6328,-158.4664,803.8306)"
   class="st21"
   width="20.9"
   height="2.0999999"
   id="rect743" />

				
					<rect
   x="755.79999"
   y="616.09998"
   transform="matrix(0.8816,-0.472,0.472,0.8816,-201.0182,433.0915)"
   class="st21"
   width="13.7"
   height="2.0999999"
   id="rect745" />

				
					<rect
   x="751.40002"
   y="572.90002"
   transform="matrix(0.7784,-0.6277,0.6277,0.7784,-192.6586,602.0153)"
   class="st21"
   width="10.1"
   height="2.0999999"
   id="rect747" />

				
					<rect
   x="751.79999"
   y="651.20001"
   transform="matrix(0.78,-0.6257,0.6257,0.78,-241.5689,617.1874)"
   class="st21"
   width="10.7"
   height="2.0999999"
   id="rect749" />

				<polygon
   class="st21"
   points="752.1,670 763.8,665.7 764.5,667.6 752.6,672 751.9,670.1 "
   id="polygon751" />

				
					<rect
   x="754.59998"
   y="740.79999"
   transform="matrix(0.9482,-0.3178,0.3178,0.9482,-196.0661,281.729)"
   class="st21"
   width="21.9"
   height="2.0999999"
   id="rect753" />

				
					<rect
   x="758.59998"
   y="774.59998"
   transform="matrix(0.9467,-0.322,0.322,0.9467,-208.7253,289.3384)"
   class="st21"
   width="23.4"
   height="2.0999999"
   id="rect755" />

				
					<rect
   x="771.5"
   y="712.90002"
   transform="matrix(0.8723,-0.4889,0.4889,0.8723,-249.4678,472.4241)"
   class="st21"
   width="16.799999"
   height="2.0999999"
   id="rect757" />

				
					<rect
   x="776"
   y="738.70001"
   transform="matrix(0.9299,-0.3679,0.3679,0.9299,-217.1418,340.5141)"
   class="st21"
   width="17"
   height="2.0999999"
   id="rect759" />

				
					<rect
   x="765.70001"
   y="676.90002"
   transform="matrix(0.8794,-0.4761,0.4761,0.8794,-229.5398,449.9539)"
   class="st21"
   width="15.1"
   height="2.0999999"
   id="rect761" />

				
					<rect
   x="773.79999"
   y="637.09998"
   transform="matrix(0.8944,-0.4472,0.4472,0.8944,-202.6718,417.7033)"
   class="st21"
   width="19.1"
   height="2.0999999"
   id="rect763" />

				
					<rect
   x="769.70001"
   y="618.90002"
   transform="matrix(0.8908,-0.4545,0.4545,0.8908,-196.6413,421.8578)"
   class="st21"
   width="19"
   height="2.0999999"
   id="rect765" />

				
					<rect
   x="809.40002"
   y="706.5"
   transform="matrix(0.9823,-0.1875,0.1875,0.9823,-118.074,166.5634)"
   class="st21"
   width="24.299999"
   height="2.0999999"
   id="rect767" />

				
					<rect
   x="783.70001"
   y="690.59998"
   transform="matrix(0.9226,-0.3858,0.3858,0.9226,-205.3223,360.0195)"
   class="st21"
   width="21.6"
   height="2.0999999"
   id="rect769" />

				
					<rect
   x="795.5"
   y="750.40002"
   transform="matrix(0.9779,-0.2093,0.2093,0.9779,-139.3989,185.6069)"
   class="st21"
   width="23.6"
   height="2.0999999"
   id="rect771" />

				
					<rect
   x="799.40002"
   y="771.40002"
   transform="matrix(0.998,-0.06314834,0.06314834,0.998,-47.1554,52.8026)"
   class="st21"
   width="24.700001"
   height="2.0999999"
   id="rect773" />

				
					<rect
   x="784.70001"
   y="791.70001"
   transform="matrix(0.9224,-0.3863,0.3863,0.9224,-244.6195,368.2699)"
   class="st21"
   width="18.6"
   height="2.0999999"
   id="rect775" />

				<polygon
   class="st21"
   points="820.1,658.2 819.6,657.3 844.5,644 845.5,645.9 820.3,659.3 820.1,659.3 "
   id="polygon777" />

				
					<rect
   x="793.29999"
   y="564.20001"
   transform="matrix(0.8055,-0.5926,0.5926,0.8055,-178.2283,587.3555)"
   class="st21"
   width="24.700001"
   height="2.0999999"
   id="rect779" />

				
					<rect
   x="779"
   y="517.20001"
   transform="matrix(0.6979,-0.7162,0.7162,0.6979,-132.2352,723.0615)"
   class="st21"
   width="24.1"
   height="2.0999999"
   id="rect781" />

				
					<rect
   x="806.29999"
   y="530.29999"
   transform="matrix(0.7408,-0.6718,0.6718,0.7408,-144.5422,688.0438)"
   class="st21"
   width="25.799999"
   height="2.0999999"
   id="rect783" />

				
					<rect
   x="815.90002"
   y="556.70001"
   transform="matrix(0.8341,-0.5515,0.5515,0.8341,-170.0707,549.9387)"
   class="st21"
   width="27"
   height="2.0999999"
   id="rect785" />

				
					<rect
   x="841.90002"
   y="639.09998"
   transform="matrix(0.6731,-0.7395,0.7395,0.6731,-192.1088,845.6801)"
   class="st21"
   width="37.400002"
   height="2.0999999"
   id="rect787" />

				
					<rect
   x="813.5"
   y="632.40002"
   transform="matrix(0.9463,-0.3232,0.3232,0.9463,-160.3179,301.2054)"
   class="st21"
   width="26.799999"
   height="2.0999999"
   id="rect789" />

				
					<rect
   x="839"
   y="717.79999"
   transform="matrix(0.96,-0.2799,0.2799,0.96,-167.0688,267.7504)"
   class="st21"
   width="30"
   height="2.0999999"
   id="rect791" />

				<polygon
   class="st21"
   points="874.7,734.2 908.3,709 909.5,710.6 874.7,736.7 873.5,735.1 "
   id="polygon793" />

				
					<rect
   x="851.40002"
   y="764.5"
   transform="matrix(0.966,-0.2584,0.2584,0.966,-168.3571,250.3299)"
   class="st21"
   width="33.299999"
   height="2.0999999"
   id="rect795" />

				<rect
   x="827.59998"
   y="785.79999"
   class="st21"
   width="29.1"
   height="2.0999999"
   id="rect797" />

				
					<rect
   x="844.70001"
   y="556"
   transform="matrix(0.9751,-0.2216,0.2216,0.9751,-102.1459,203.8945)"
   class="st21"
   width="25.5"
   height="2.0999999"
   id="rect799" />

				
					<rect
   x="822.79999"
   y="507.20001"
   transform="matrix(0.7187,-0.6953,0.6953,0.7187,-119.1953,721.8356)"
   class="st21"
   width="19.6"
   height="2.0999999"
   id="rect801" />

				
					<rect
   x="790.79999"
   y="481.60001"
   transform="matrix(0.9789,-0.2044,0.2044,0.9789,-81.7325,173.8659)"
   class="st21"
   width="20.200001"
   height="2.0999999"
   id="rect803" />

				
					<rect
   x="822.90002"
   y="468.29999"
   transform="matrix(0.9119,-0.4104,0.4104,0.9119,-119.0878,383.7992)"
   class="st21"
   width="23"
   height="2.0999999"
   id="rect805" />

				
					<rect
   x="844.70001"
   y="506.89999"
   transform="matrix(0.7645,-0.6447,0.6447,0.7645,-125.1697,673.3388)"
   class="st21"
   width="28.5"
   height="2.0999999"
   id="rect807" />

				
					<rect
   x="879.5"
   y="567.90002"
   transform="matrix(0.6237,-0.7816,0.7816,0.6237,-106.695,916.1945)"
   class="st21"
   width="37.599998"
   height="2.0999999"
   id="rect809" />

				
					<rect
   x="878"
   y="635.09998"
   transform="matrix(0.757,-0.6535,0.6535,0.757,-197.8789,740.1904)"
   class="st21"
   width="36.200001"
   height="2.0999999"
   id="rect811" />

				
					<rect
   x="872.40002"
   y="496.89999"
   transform="matrix(0.662,-0.7495,0.7495,0.662,-73.0995,833.9001)"
   class="st21"
   width="31.1"
   height="2.0999999"
   id="rect813" />

				
					<rect
   x="848.59998"
   y="464.20001"
   transform="matrix(0.7871,-0.6168,0.6168,0.7871,-103.5119,630.6179)"
   class="st21"
   width="26.4"
   height="2.0999999"
   id="rect815" />

				<path
   class="st21"
   d="m 538.2,394.8 c -31.3,-47.5 -45.5,-58.1 -45.6,-58.3 l 1.2,-1.7 c 0.6,0.4 14.5,10.8 46.1,58.8 z"
   id="path817" />

				<path
   class="st21"
   d="m 518.3,405.5 c -14.9,-9.6 -46.1,-7.8 -46.4,-7.8 h -0.1 v -2.1 c 1.2,-0.1 32.2,-1.9 47.6,8.1 z"
   id="path819" />

				<path
   class="st21"
   d="m 861.8,394.8 -1.7,-1.2 c 31.6,-48 45.5,-58.4 46.1,-58.8 l 1.2,1.7 c -0.1,0.2 -14.2,10.8 -45.6,58.3 z"
   id="path821" />

				<path
   class="st21"
   d="m 881.7,405.5 -1.1,-1.8 c 15.7,-10.1 47.4,-8.1 47.7,-8.1 l -0.1,1 v 1.1 h -0.1 c -0.2,0 -31.3,-2 -46.4,7.8 z"
   id="path823" />

				<rect
   x="739.29999"
   y="407.79999"
   class="st21"
   width="9.6000004"
   height="2.0999999"
   id="rect825" />

				
					<rect
   x="727.79999"
   y="360.89999"
   transform="matrix(0.6752,-0.7377,0.7377,0.6752,-29.2469,657.4752)"
   class="st21"
   width="8.3000002"
   height="2.0999999"
   id="rect827" />

				<polygon
   class="st21"
   points="725.8,391.8 726.1,391.8 726.1,392.9 726.6,393.8 720.5,397.4 719.4,395.6 "
   id="polygon829" />

				<rect
   x="703.90002"
   y="371.79999"
   class="st21"
   width="6.0999999"
   height="2.0999999"
   id="rect831" />

				
					<rect
   x="688.20001"
   y="409.5"
   transform="matrix(0.2404,-0.9707,0.9707,0.2404,122.0447,983.2198)"
   class="st21"
   width="2.0999999"
   height="8.3999996"
   id="rect833" />

				<polygon
   class="st21"
   points="680.5,358.9 680.5,357.8 680.7,357.8 686.2,359.7 685.6,361.7 680.2,359.9 "
   id="polygon835" />

				
					<rect
   x="674.59998"
   y="398.89999"
   transform="matrix(0.1695,-0.9855,0.9855,0.1695,164.5437,999.9932)"
   class="st21"
   width="2.0999999"
   height="6.9000001"
   id="rect837" />

				
					<rect
   x="656.09998"
   y="399.20001"
   transform="matrix(0.4481,-0.894,0.894,0.4481,1.6606,810.4014)"
   class="st21"
   width="2.0999999"
   height="9.1999998"
   id="rect839" />

				
					<rect
   x="660.59998"
   y="382.29999"
   transform="matrix(0.2228,-0.9749,0.9749,0.2228,137.5936,945.3919)"
   class="st21"
   width="2.0999999"
   height="8.1999998"
   id="rect841" />

				<rect
   x="667.5"
   y="350.10001"
   class="st21"
   width="6.5999999"
   height="2.0999999"
   id="rect843" />

				
					<rect
   x="521.79999"
   y="438.39999"
   transform="matrix(0.4362,-0.8998,0.8998,0.4362,-109.129,723.5299)"
   class="st21"
   width="2.0999999"
   height="20.799999"
   id="rect845" />

				<rect
   x="464.39999"
   y="519.40002"
   class="st21"
   width="20.1"
   height="2.0999999"
   id="rect847" />

				
					<rect
   x="458.70001"
   y="615.40002"
   transform="matrix(0.9968,-0.08008162,0.08008162,0.9968,-47.8588,39.4811)"
   class="st21"
   width="19.200001"
   height="2.0999999"
   id="rect849" />

				
					<rect
   x="467.20001"
   y="699.70001"
   transform="matrix(0.05630259,-0.9984,0.9984,0.05630259,-266.2107,1136.8723)"
   class="st21"
   width="2.0999999"
   height="19.200001"
   id="rect851" />

				<polygon
   class="st21"
   points="477.3,776.7 478.7,778.3 478.3,778.7 459.4,795.4 458,793.8 "
   id="polygon853" />

				<rect
   x="520"
   y="806.09998"
   class="st21"
   width="2.0999999"
   height="19.5"
   id="rect855" />

				<rect
   x="647.5"
   y="795.29999"
   class="st21"
   width="19.200001"
   height="2.0999999"
   id="rect857" />

				
					<rect
   x="647.5"
   y="717.40002"
   transform="matrix(0.9989,-0.04590982,0.04590982,0.9989,-32.291,30.9247)"
   class="st21"
   width="19.200001"
   height="2.0999999"
   id="rect859" />

				
					<rect
   x="646.90002"
   y="628.79999"
   transform="matrix(0.9381,-0.3463,0.3463,0.9381,-177.4786,266.5608)"
   class="st21"
   width="20.4"
   height="2.0999999"
   id="rect861" />

				
					<rect
   x="645.70001"
   y="550.70001"
   transform="matrix(0.843,-0.538,0.538,0.843,-193.6417,440.1649)"
   class="st21"
   width="22.700001"
   height="2.0999999"
   id="rect863" />

				
					<rect
   x="592.20001"
   y="446.70001"
   transform="matrix(0.7774,-0.629,0.629,0.7774,-147.8161,477.7815)"
   class="st21"
   width="18"
   height="2.0999999"
   id="rect865" />

				
					<rect
   x="795.90002"
   y="438.60001"
   transform="matrix(0.3777,-0.9259,0.9259,0.3777,79.8283,1017.4852)"
   class="st21"
   width="2.0999999"
   height="21.4"
   id="rect867" />

				
					<rect
   x="771.70001"
   y="465.39999"
   transform="matrix(0.5879,-0.8089,0.8089,0.5879,-65.739,820.8313)"
   class="st21"
   width="2.0999999"
   height="19.200001"
   id="rect869" />

				<rect
   x="737.59998"
   y="524.70001"
   class="st21"
   width="19.799999"
   height="2.0999999"
   id="rect871" />

				
					<rect
   x="733.29999"
   y="603.09998"
   transform="matrix(0.9959,-0.09047706,0.09047706,0.9959,-51.6128,69.6935)"
   class="st21"
   width="19.200001"
   height="2.0999999"
   id="rect873" />

				
					<rect
   x="741.70001"
   y="688.5"
   transform="matrix(0.2508,-0.968,0.968,0.2508,-119.4318,1242.2106)"
   class="st21"
   width="2.0999999"
   height="19.5"
   id="rect875" />

				<rect
   x="733.29999"
   y="760.20001"
   class="st21"
   width="18.9"
   height="2.0999999"
   id="rect877" />

				
					<rect
   x="775.20001"
   y="806.79999"
   transform="matrix(0.9992,-0.03921704,0.03921704,0.9992,-31.4114,31.0705)"
   class="st21"
   width="2.0999999"
   height="18.799999"
   id="rect879" />

				<rect
   x="836.29999"
   y="806.79999"
   class="st21"
   width="2.0999999"
   height="18.799999"
   id="rect881" />

				<rect
   x="890.5"
   y="806.79999"
   class="st21"
   width="2.0999999"
   height="18.799999"
   id="rect883" />

				<polygon
   class="st21"
   points="921.9,791.7 941.1,788.1 941.5,790.2 922.2,793.8 921.8,791.7 "
   id="polygon885" />

				
					<rect
   x="930.70001"
   y="699.40002"
   transform="matrix(0.02800747,-0.9996,0.9996,0.02800747,196.9069,1620.4755)"
   class="st21"
   width="2.0999999"
   height="19.200001"
   id="rect887" />

				
					<rect
   x="922.09998"
   y="631.40002"
   transform="matrix(0.9949,-0.1006,0.1006,0.9949,-58.896,96.9381)"
   class="st21"
   width="19.299999"
   height="2.0999999"
   id="rect889" />

				
					<rect
   x="921.09998"
   y="577.90002"
   transform="matrix(0.9,-0.436,0.436,0.9,-159.2032,464.126)"
   class="st21"
   width="21.299999"
   height="2.0999999"
   id="rect891" />

				
					<rect
   x="913.29999"
   y="512.09998"
   transform="matrix(0.8496,-0.5274,0.5274,0.8496,-131.8043,563.9771)"
   class="st21"
   width="19.6"
   height="2.0999999"
   id="rect893" />

				
					<rect
   x="874.09998"
   y="453.79999"
   transform="matrix(0.7858,-0.6185,0.6185,0.7858,-92.0041,644.0222)"
   class="st21"
   width="19.299999"
   height="2.0999999"
   id="rect895" />

				
					<rect
   x="850.90002"
   y="434.70001"
   transform="matrix(0.47,-0.8827,0.8827,0.47,71.4623,990.5663)"
   class="st21"
   width="19.299999"
   height="2.0999999"
   id="rect897" />

				<polygon
   class="st21"
   points="697.3,443.2 698.6,457.1 697.5,457.1 696.5,457.2 695.2,443.4 "
   id="polygon899" />

				<polygon
   class="st21"
   points="811.2,408.8 798.9,401.7 799.9,399.9 812.2,407 811.7,407.9 811.7,408.9 811.5,408.9 "
   id="polygon901" />

				
					<rect
   x="838"
   y="336.29999"
   transform="matrix(0.3666,-0.9304,0.9304,0.3666,212.7711,997.6908)"
   class="st21"
   width="2.0999999"
   height="12.6"
   id="rect903" />

				
					<rect
   x="826.79999"
   y="250.10001"
   transform="matrix(0.8771,-0.4802,0.4802,0.8771,-18.1524,431.2609)"
   class="st21"
   width="13.9"
   height="2.0999999"
   id="rect905" />

				<polygon
   class="st21"
   points="767.5,185.5 767.6,185.5 778.7,176.1 780.1,177.7 768.9,187.1 768.3,186.3 "
   id="polygon907" />

				
					<rect
   x="713.70001"
   y="155.10001"
   transform="matrix(0.9985,-0.05540525,0.05540525,0.9985,-7.8799,39.8478)"
   class="st21"
   width="2.0999999"
   height="14"
   id="rect909" />

				<polygon
   class="st21"
   points="660.4,174.2 653.5,161.9 655.3,160.9 662.2,173.2 661.3,173.7 660.6,174.5 660.5,174.4 "
   id="polygon911" />

				<polygon
   class="st21"
   points="593.8,197.7 604.7,206.6 603.9,207.3 603.3,208.1 592.5,199.4 "
   id="polygon913" />

				<polygon
   class="st21"
   points="554.5,263.8 554.5,262.7 554.8,262.7 567.6,268.9 566.7,270.8 554.1,264.7 "
   id="polygon915" />

				
					<rect
   x="552"
   y="336"
   transform="matrix(0.9805,-0.1963,0.1963,0.9805,-55.2921,116.2195)"
   class="st21"
   width="13.2"
   height="2.0999999"
   id="rect917" />

				<polygon
   class="st21"
   points="583.9,379.8 584.5,380.5 585.3,381.3 585.2,381.4 574.4,390.1 573.1,388.5 "
   id="polygon919" />

				<polygon
   class="st21"
   points="631.7,425.2 632.6,425.7 633.6,425.7 633.6,426 626.5,438.1 624.7,437.1 "
   id="polygon921" />

			</g>
      </g>
    </g>
  </g>
</svg>
