<?xml version="1.0" encoding="UTF-8" standalone="no"?>
<!-- Created with Inkscape (http://www.inkscape.org/) -->

<svg
   version="1.1"
   id="svg1"
   width="2666.6667"
   height="2666.6667"
   viewBox="0 0 2666.6667 2666.6667"
   sodipodi:docname="spartan.svg"
   inkscape:version="1.4 (e7c3feb100, 2024-10-09)"
   xmlns:inkscape="http://www.inkscape.org/namespaces/inkscape"
   xmlns:sodipodi="http://sodipodi.sourceforge.net/DTD/sodipodi-0.dtd"
   xmlns="http://www.w3.org/2000/svg"
   xmlns:svg="http://www.w3.org/2000/svg">
  <defs
     id="defs1" />
  <sodipodi:namedview
     id="namedview1"
     pagecolor="#ffffff"
     bordercolor="#000000"
     borderopacity="0.25"
     inkscape:showpageshadow="2"
     inkscape:pageopacity="0.0"
     inkscape:pagecheckerboard="0"
     inkscape:deskcolor="#d1d1d1"
     inkscape:zoom="0.37462498"
     inkscape:cx="1331.9987"
     inkscape:cy="1331.9987"
     inkscape:window-width="3440"
     inkscape:window-height="1361"
     inkscape:window-x="0"
     inkscape:window-y="282"
     inkscape:window-maximized="1"
     inkscape:current-layer="g90">
    <inkscape:page
       x="0"
       y="0"
       inkscape:label="1"
       id="page1"
       width="2666.6667"
       height="2666.6667"
       margin="0"
       bleed="0" />
  </sodipodi:namedview>
  <g
     id="g1"
     inkscape:groupmode="layer"
     inkscape:label="1">
    <g
       id="group-R5"
       transform="translate(0,-2.6693361)">
      <g
         id="g90">
        <circle
           style="fill:none;stroke-width:54.635;stroke-linecap:square;stroke-miterlimit:5.8;paint-order:stroke fill markers;stroke:#5b2610;stroke-opacity:1;stroke-dasharray:none"
           id="path91"
           cx="1338.6721"
           cy="1329.3574"
           r="807.47418" />
        <path
           id="path3"
           d="m 7440.04,17470.1 c 394.73,91.8 808.59,151.4 1210.16,64.7 405.07,-66.2 718.16,-388.3 899.41,-738.9 -60.94,25.2 -105.08,76.4 -162.31,107.6 38.48,-134.6 150.2,-230.1 204.11,-357.6 -124.42,108.6 -250.39,220.7 -396.1,300 110.16,-172.7 248.24,-327.9 337.5,-514.3 -222.46,127.6 -366.4,350.4 -566.6,506.5 -172.07,163.1 -346.68,345.7 -579.49,416 34.18,-52.2 93.16,-77.2 141.99,-112.7 300.59,-218.5 536.33,-514.1 726.37,-830.8 -117.78,2.3 -269.92,-13.5 -345.7,97.6 -314.26,408.2 -726.76,744.5 -1200.79,949.6 -88.28,40.4 -185.74,60 -268.55,112.3"
           style="fill:#a7382c;fill-opacity:1;fill-rule:nonzero;stroke:none"
           transform="matrix(0.13333333,0,0,-0.13333333,0,2666.6667)" />
        <path
           id="path4"
           d="m 9158.59,17575.8 c 292.78,-1.2 572.86,-125 818.36,-276.4 272.25,-200.6 545.35,-440.2 650.15,-773.4 -113.6,92.9 -186.7,231.8 -324,296.7 81.7,-164.3 215.3,-300.4 282.8,-474.1 -152.9,117.8 -289,259.4 -458.8,355.3 79.2,-149.8 211.4,-263.7 305.5,-404.3 -75.4,16.8 -171.5,-4.5 -228.9,56.3 -261.51,469.5 -597.06,914.2 -1045.11,1219.9"
           style="fill:#a7382c;fill-opacity:1;fill-rule:nonzero;stroke:none"
           transform="matrix(0.13333333,0,0,-0.13333333,0,2666.6667)" />
        <path
           id="path5"
           d="m 10294.3,17360.4 c 413.1,-75.8 816.2,-284.4 1059.2,-635.4 209.6,-267.4 322.7,-630.1 236.7,-964.4 -26.1,221.4 -29.5,485.3 -190.2,655.6 40.8,-131.8 96.3,-261.3 103.5,-401.2 -52.9,77.8 -77.5,171.7 -137.9,244.4 -3.9,-66.2 -1.3,-132.6 -1.5,-198.8 -80.3,100.3 -259.2,122.6 -263.3,273 -46.1,217.4 -120.7,455.8 -286.9,610 48.6,-157.9 154.1,-293.4 183.2,-458.6 -179.1,332.4 -446.1,602.7 -702.8,875.4"
           style="fill:#a7382c;fill-opacity:1;fill-rule:nonzero;stroke:none"
           transform="matrix(0.13333333,0,0,-0.13333333,0,2666.6667)" />
        <path
           id="path6"
           d="m 6269.34,16994.5 c 363.86,161.2 766.6,261.6 1166.6,222.5 319.72,-56.4 643.36,-195.5 863.67,-439.8 -158.59,68.5 -305.66,163.2 -472.66,212.1 -503.32,170.7 -1050.58,146.6 -1557.61,5.2"
           style="fill:#a7382c;fill-opacity:1;fill-rule:nonzero;stroke:none"
           transform="matrix(0.13333333,0,0,-0.13333333,0,2666.6667)" />
        <path
           id="path7"
           d="m 6855.86,17030.7 c 436.91,50 890.23,-59.6 1254.49,-307.1 160.94,-116.2 335.16,-222 462.31,-377.5 -150.98,66.4 -282.43,170.5 -437.5,228.5 -306.25,119.5 -628.91,207 -958.21,224.4 63.48,-44.3 144.73,-46.7 216.02,-72.6 378.32,-101.8 731.44,-291.2 1024.8,-550.4 -157.81,29.3 -286.72,126.3 -435.93,177.7 64.64,-93.5 166.99,-154.5 223.82,-255.3 -481.83,380.1 -1116.99,552 -1725.39,484 l -0.39,-19.7 c 379.1,2.5 774.42,-52.5 1106.45,-246.9 133.01,-76 242.77,-184 360.15,-280.8 -425,83 -820.89,270.5 -1245.11,356.8 -355.47,75.6 -707.62,167.4 -1054.69,274.8 389.06,159.6 783.2,340.2 1209.18,364.1"
           style="fill:#a7382c;fill-opacity:1;fill-rule:nonzero;stroke:none"
           transform="matrix(0.13333333,0,0,-0.13333333,0,2666.6667)" />
        <path
           id="path8"
           d="m 11836.5,16464.7 c 273.9,-267 441.4,-622.3 559.8,-981.1 38.5,-158 36.5,-331.7 -24.4,-484 -5.3,177.7 -31.1,364.3 -127.4,517.4 12.9,-346.9 66.6,-714.3 -72.4,-1044.7 2.1,142.5 68.1,315.6 -22.3,438.4 1.4,-68.5 20.5,-136.7 10.4,-205.4 -52.2,316.4 -94.4,638.1 -49.5,958.2 -5.4,81.2 24.7,203.7 -19.5,258.6 -7,-127 -28.9,-252.4 -50.6,-377.4 -10.7,316.6 -84.3,627.4 -204.1,920"
           style="fill:#a7382c;fill-opacity:1;fill-rule:nonzero;stroke:none"
           transform="matrix(0.13333333,0,0,-0.13333333,0,2666.6667)" />
        <path
           id="path9"
           d="m 5853.13,16354.1 c 57.22,18 118.55,57 179.1,29.3 214.65,-91.6 451.95,-109 666.21,-202.3 -16.41,-2.8 -49.42,-8.4 -65.82,-11.2 24.8,-18.5 57.61,-18.9 86.52,-27.5 -104.3,-24.6 -211.91,-22.9 -318.16,-29.3 0.78,-8.6 2.34,-26 3.12,-34.6 247.85,-44.3 503.52,-91.6 725.98,-213.8 -269.73,5 -527.54,111.7 -795.9,115.8 261.72,-117.2 553.32,-162.7 814.06,-288.7 -153.71,-10 -304.69,-46.1 -458.98,-50.4 41.99,-19.1 85.94,-33.8 129.49,-49 -451.76,-38.5 -915.43,19.5 -1355.47,-115.6 -599.22,-149.3 -1088.48,-543.4 -1611.91,-849.1 271.48,500.6 654.1,959 1152.54,1245.7 60.15,37.3 132.22,57.1 181.25,110.8 -132.23,-22.5 -242.19,-105.5 -360.16,-163.5 285.16,270.7 667.77,396.7 1028.13,533.4"
           style="fill:#a7382c;fill-opacity:1;fill-rule:nonzero;stroke:none"
           transform="matrix(0.13333333,0,0,-0.13333333,0,2666.6667)" />
        <path
           id="path10"
           d="m 8393.95,15822.3 c 709.18,251.5 1497.85,340.2 2233.55,154.6 352.2,-114.8 725.4,-221.6 1007.1,-474.7 132.6,-104 254.3,-240.3 291.2,-409 9.9,-115.9 2.7,-232.5 1.9,-348.7 -60.9,235.8 -135.3,497.1 -333.9,654.1 158,-283 322.8,-616.4 193.7,-944.5 -78.1,407.4 -239.5,816 -525,1122.1 119.9,-264.1 240.8,-559 156.8,-852.6 -52.5,363.7 -189,725.6 -453.3,988.9 -61.7,62.1 -121.5,135.9 -211.3,156.3 62.7,-91.9 148.4,-168 193,-271.9 113,-222.1 90.4,-485.4 16.6,-715.6 -1.2,350.5 -102.4,760.7 -442.8,929.4 183.8,-217.9 372.3,-471 354.7,-773 -50.8,79.3 -72.9,175.4 -137.5,245.5 2.7,-113.7 57.4,-227.1 18.9,-340 -129.3,259.7 -263.5,526.1 -474.6,730.4 -101.6,101.6 -204.9,219 -350.77,252.4 293.37,-244.9 513.47,-596.3 531.67,-985.8 -164.5,334.4 -347.5,702.6 -687.73,888.9 97.85,-129.7 222.07,-242.4 286.93,-394.9 100.2,-175 132.4,-375 170.1,-569.9 -179.1,315.2 -390.04,617.5 -668.94,853.3 -62.11,49.2 -118.75,111.5 -198.63,131 117.38,-148.2 275.39,-269.1 343.35,-453.1 -85.54,57 -162.3,132.6 -264.25,160.2 98.04,-144.8 266.01,-247.9 319.92,-419.2 -147.85,102.2 -263.28,257.3 -436.72,321.1 149.61,-175.6 328.12,-335.7 420.12,-552.9 -83.79,42.8 -133.99,133 -224.61,163.3 41.6,-95.3 121.09,-168.2 159.18,-265.7 -209.38,122.1 -353.71,322.7 -542.19,470.6 -220.9,218.5 -466.41,412.5 -746.48,549.4"
           style="fill:#a7382c;fill-opacity:1;fill-rule:nonzero;stroke:none"
           transform="matrix(0.13333333,0,0,-0.13333333,0,2666.6667)" />
        <path
           id="path11"
           d="m 7869.73,15651.8 c 125,37.3 253.9,90.8 386.13,81.8 377.54,-118.8 658.98,-433.8 848.44,-769.3 -365.04,294.9 -737.7,658 -1234.57,687.5"
           style="fill:#a7382c;fill-opacity:1;fill-rule:nonzero;stroke:none"
           transform="matrix(0.13333333,0,0,-0.13333333,0,2666.6667)" />
        <path
           id="path12"
           d="m 7626.56,15553.5 c 318.95,62.5 636.14,-115.4 848.83,-340 -195.31,74.6 -404.49,125.6 -614.84,101.5 347.65,-139.2 733.59,-277.9 967.58,-587.3 -101.76,21.1 -189.26,80.7 -278.52,130.7 -391.02,249.4 -863.87,350.4 -1323.44,339.7 -71.09,-12.9 -168.94,3.8 -221.48,-42 468.94,-19.4 967.97,-132.5 1315.23,-468.2 -271.29,97.1 -560.35,162.1 -850,135.3 214.65,-74.2 437.11,-137.3 636.33,-251.5 -239.06,16.4 -462.89,112.9 -694.14,168.1 -328.13,99.1 -672.27,124.1 -1004.49,202.4 75.58,97.1 190.82,148.8 293.75,210.9 293.75,163.3 596.68,320 925.19,400.4"
           style="fill:#a7382c;fill-opacity:1;fill-rule:nonzero;stroke:none"
           transform="matrix(0.13333333,0,0,-0.13333333,0,2666.6667)" />
        <path
           id="path13"
           d="m 4852.73,15088.3 c 253.13,130.5 525.4,234.8 811.14,257.8 -384.77,-137.9 -764.65,-293 -1122.07,-492.2 -105.67,-52.5 -210.55,-108 -322.85,-144.7 197.07,148.2 412.3,271.7 633.78,379.1"
           style="fill:#a7382c;fill-opacity:1;fill-rule:nonzero;stroke:none"
           transform="matrix(0.13333333,0,0,-0.13333333,0,2666.6667)" />
        <path
           id="path14"
           d="m 6581.45,14105.5 c 228.71,160.3 551.17,205.6 804.1,76.5 -269.73,36.6 -549.03,27.4 -804.1,-76.5"
           style="fill:#a7382c;fill-opacity:1;fill-rule:nonzero;stroke:none"
           transform="matrix(0.13333333,0,0,-0.13333333,0,2666.6667)" />
        <path
           id="path15"
           d="m 9004.49,12417.6 -4.29,-17 c 339.64,-3.7 679.29,2.3 1018.9,-0.4 337.2,9.2 670,-59.2 1005.3,-75.8 -289.4,84.2 -597.3,102.5 -898,127.8 -374.45,35.3 -748.47,-12.9 -1121.91,-34.6 z m -1019.33,127.9 c 151.17,150 250.58,354.5 426.56,482.8 -9.77,-41.4 -21.88,-82.2 -33.2,-123.2 -73.64,-156.7 -130.28,-327.4 -115.63,-502.8 98.44,7.5 198.24,21.7 291.02,57.3 303.51,110.5 624.8,165.2 935.15,255.1 478.13,139 971.34,-30.1 1423.84,-183.8 161.7,-30.9 321.1,47.4 483.6,33.8 108.4,-10 217.6,-17.8 326.4,-6.5 -112.2,67.2 -240.7,106.8 -339.7,194.5 211.3,-55.8 382.8,-219.3 598.4,-252.7 192.8,-186.9 319,-428.5 485.8,-634.8 -108,270.7 -306.3,493.4 -487.7,717.4 63.1,20.1 129.9,20.1 195.3,23.7 148.2,-144 269.1,-317.8 408.6,-471.9 93.5,-117.2 224.4,-223.8 241.2,-382.6 -79.5,48.2 -116,141 -193.9,190.6 31.8,-151 188.2,-222.1 238.8,-360.8 -1565.4,689.5 -3347.63,862.9 -5020.68,517.2 11.33,107.3 57.82,205.1 100.59,302.4 20.51,45.3 -6.64,110.5 35.55,144.3"
           style="fill:#a7382c;fill-opacity:1;fill-rule:nonzero;stroke:none"
           transform="matrix(0.13333333,0,0,-0.13333333,0,2666.6667)" />
        <path
           id="path16"
           d="m 10449.2,11186.1 c 108.2,-33.6 239.5,-8.2 335.2,-68.3 51.5,-211 70.9,-434.2 69.5,-652.2 -43.5,276.8 -164.4,560 -404.7,720.5"
           style="fill:#a7382c;fill-opacity:1;fill-rule:nonzero;stroke:none"
           transform="matrix(0.13333333,0,0,-0.13333333,0,2666.6667)" />
        <path
           id="path17"
           d="m 9153.32,8250.8 c 55.47,-182.4 244.14,-267.4 389.84,-367.8 163.48,-95.7 291.22,-238.1 402.35,-388.9 -18.17,134.4 -118.75,235.2 -212.5,324.3 -175.78,168.1 -425,239.8 -579.69,432.4 z m 505.27,95.3 c 138.29,-116.6 306.06,-194.9 439.31,-319.5 310.9,-247.3 480.4,-630.9 520.1,-1019.8 18.1,254.7 -7.6,526.2 -153,743.8 -190.2,283.4 -492.54,475.8 -806.41,595.5 z m -706.44,553.5 c -81.25,-21.9 -119.73,-125.2 -71.49,-194.5 48.64,-118.2 266.8,-90.3 262.11,45.3 21.49,103.1 -100.58,178.7 -190.62,149.2 z m -297.46,394.1 c -43.75,-118.5 128.12,-196.2 189.26,-88 56.05,123.4 -140.24,210.3 -189.26,88 z m -725.59,1111.2 c 37.7,-124 211.72,-59 309.38,-70.9 20.11,17.6 18.94,46.1 21.48,70.1 -109.96,8 -220.9,8.4 -330.86,0.8 z m -114.45,606 c 30.27,28.4 77.15,10.6 114.45,15.9 383.2,10.9 766.6,9.9 1149.81,8.4 -88.48,-117.2 -145.51,-254.9 -185.75,-395.4 -63.86,-262.9 -8.59,-532.8 32.62,-794.3 23.44,-52.7 84.96,-79.5 99.42,-138.9 66.79,-176.1 191.01,-325.5 340.82,-437.7 93.75,-72.4 217.77,-90 306.25,-170.9 220.31,-40.8 460.13,7.9 619.13,175 -1.4,-115.6 -2.1,-231 1.8,-346.6 8.9,-444.6 168.7,-869 371.8,-1258.6 7.3,273 -148.2,514.2 -209.5,774.4 -81.5,352.7 -85,724.6 19.3,1073.4 11.5,-70.3 13.5,-141.4 10.4,-212.5 47.6,62.7 112.3,46.7 145.7,-18.3 90,-591.1 161.1,-1189.5 297.2,-1773.9 84.8,-313.8 141.2,-634.7 218.4,-950.4 -924.6,370.2 -1789.27,868 -2689.08,1291.3 -372.85,188.6 -754.1,360.3 -1135.74,529.4 517.19,295 813.87,898.3 804.1,1484.6 200.78,11.5 402.15,-8.2 603.13,0.2 3.12,44 3.32,88.1 0.97,131.9 -305.47,6.2 -610.93,-2.2 -916.21,4 -4.1,38.3 -4.29,76.8 -0.97,114.9 226.36,7.6 453.32,-6.1 679.49,6.3 3.51,37.1 3.51,74.2 1.36,111.1 -225.78,13.3 -452.14,-1.4 -677.92,6.2 -10.75,82.5 -9.18,166.2 -2.93,248.9 218.94,19.3 447.65,-21.7 661.32,22.2 3.13,30.7 3.13,61.4 1.18,92 -220.12,10.4 -441.02,-6 -661.14,7.1 -10.15,41.3 -9.37,84.9 0.59,126.1 304.3,6.9 609.18,-6.4 913.28,7.8 3.12,36.8 3.52,73.7 0.78,110.2 -172.26,13.3 -345.9,-10.4 -517.58,8 -20.7,31.6 -11.33,99.4 -61.91,96.5 -4.3,-32.4 -6.25,-65.1 -10.94,-97.7 -108.01,-5.8 -216.6,-6 -324.8,-1.3 -3.32,50.2 -4.1,100.7 1.17,150.7"
           style="fill:#a7382c;fill-opacity:1;fill-rule:nonzero;stroke:none"
           transform="matrix(0.13333333,0,0,-0.13333333,0,2666.6667)" />
        <path
           id="path18"
           d="m 6191.41,7284.8 c 264.06,211.7 643.16,269.9 958.2,144.3 -356.64,-24.4 -704.49,-113.1 -1035.74,-243 18.55,37.9 43.55,73.1 77.54,98.7"
           style="fill:#a7382c;fill-opacity:1;fill-rule:nonzero;stroke:none"
           transform="matrix(0.13333333,0,0,-0.13333333,0,2666.6667)" />
        <path
           id="path19"
           d="m 5595.31,6299.8 c -50.19,-24.4 -111.13,-42.4 -137.89,-96.3 66.99,3.1 125.39,37.7 184.57,65.4 388.09,175.2 796.29,304.5 1211.33,397.1 l 11.91,17 c -441.79,-40.4 -865.62,-204.1 -1269.92,-383.2 z m 898.05,894.3 c 584.37,120.7 1193.94,15.1 1739.45,-212.1 119.34,-49.2 238.87,-103.5 339.85,-185.9 -487.89,157.6 -1010.75,276.2 -1520.71,152.9 l -5.47,-16.6 c 518.75,18.8 1040.04,-89.4 1508.79,-310.7 -368.94,103.9 -748.82,179.7 -1133.59,179.1 -196.48,-11.9 -391.6,-39.7 -586.52,-66.6 l -7.03,-19.2 c 197.85,-7.4 395.7,3.2 593.55,0.2 398.63,12.3 784.37,-102.3 1172.85,-173.6 253.71,-45.5 478.52,-181.8 688.09,-325.8 467.77,-302.1 864.28,-716 1148.08,-1194.7 -408.2,432.2 -830.31,871.7 -1352.77,1167.4 -644.73,319.7 -1387.5,374.4 -2095.51,328.9 -642.77,-51.8 -1270.31,-271.9 -1792.58,-652.4 -77.14,-50.5 -142.96,-120.1 -229.1,-155.6 -103.32,51.9 -81.44,197.4 -37.5,285.1 102.15,201.8 298.64,340.7 495.51,442 349.02,208.4 752.73,300 1149.02,369.4 26.96,8.7 64.85,2.9 81.45,30.4 -258.4,2.2 -517.19,-26.9 -775.2,-47.2 105.47,242 373.83,359.1 619.34,405"
           style="fill:#a7382c;fill-opacity:1;fill-rule:nonzero;stroke:none"
           transform="matrix(0.13333333,0,0,-0.13333333,0,2666.6667)" />
        <path
           id="path20"
           d="m 7266.02,6141.6 c 288.28,104.1 601.36,28.9 869.33,-97.7 256.64,-99.8 482.03,-261.1 691.6,-436.9 -101.56,39.7 -203.71,78 -302.54,124.2 -403.32,182.5 -828.71,309 -1258.39,410.4"
           style="fill:#a7382c;fill-opacity:1;fill-rule:nonzero;stroke:none"
           transform="matrix(0.13333333,0,0,-0.13333333,0,2666.6667)" />
        <path
           id="path21"
           d="m 7848.63,6188.3 c 521.88,-50.4 1012.11,-305.1 1407.82,-642 -455.28,240.2 -892.58,544.5 -1407.82,642"
           style="fill:#a7382c;fill-opacity:1;fill-rule:nonzero;stroke:none"
           transform="matrix(0.13333333,0,0,-0.13333333,0,2666.6667)" />
        <path
           id="path22"
           d="m 10863.7,5175.8 c 327.3,-476.4 456,-1082.1 892,-1485.6 -376,224.8 -538.7,661.2 -743,1026.6 31.4,-204.1 16.6,-449.6 -125.8,-606.8 -22.4,36.7 -67.8,79.6 -42.4,125 143,292.3 121.7,639.2 19.2,940.8"
           style="fill:#a7382c;fill-opacity:1;fill-rule:nonzero;stroke:none"
           transform="matrix(0.13333333,0,0,-0.13333333,0,2666.6667)" />
        <path
           id="path25"
           d="m 11942,9961.3 c 87.3,-57.6 181,-112.1 281,-144.7 7.9,11.7 23.3,34.8 30.9,46.5 -95.5,53.9 -205.3,80.3 -311.9,98.2 z m -697.1,528 c 37.1,124 175.6,209.3 301.2,225.9 163.3,3.9 329.5,-50.4 456.4,-154.3 -157.6,19 -344.3,-2.7 -458.9,-120.3 163.8,-13.1 335.1,2.4 488.6,-68.3 106.9,-51.6 185.2,-147.5 234.6,-253.5 53.5,-108.8 180.9,-137 263.1,-215.1 -140.1,2.2 -281.1,57.8 -377.2,160.7 -113.4,114.7 -229.5,259.4 -404.1,268.8 48.3,-75.2 130.7,-114.4 200.8,-165 -77.1,13.1 -162.3,51.3 -233.6,-1.6 292.6,-57.8 493.8,-296.3 764.7,-402.9 -27,-99.6 -81.7,-187.9 -133,-276.4 288.6,73.6 494.5,374.4 816.8,344.5 -4.5,77 -18,153.2 -20.2,230.1 64.1,2.2 140.1,0.4 169,-68.5 147.8,-281.5 261.1,-580.5 368.5,-879.5 34,-80.1 6.5,-190.9 -90.8,-203.9 -96.7,5 -192.4,24 -288.8,32.6 64,36.9 175.9,85.3 138.8,177.9 -55.3,116.8 -209.5,86.5 -313.3,73.6 -113.6,-7 -170.7,-116.2 -255.8,-175.2 11.1,187.7 123.8,340.7 212.1,498.1 -230.9,-66.6 -495.7,-114.9 -636.7,-332.8 -345.9,221.9 -689.1,450.8 -1005.1,714.2 -145.3,157.9 -166.8,387.9 -197.1,590.9"
           style="fill:#edeceb;fill-opacity:1;fill-rule:nonzero;stroke:none"
           transform="matrix(0.13333333,0,0,-0.13333333,0,2666.6667)" />
        <path
           id="path26"
           d="m 12769.5,9341.8 c 34,35.9 84.6,37.1 130.7,33.6 -8.4,-109.4 -86.1,-196.1 -125.6,-295.1 -71.9,-133.6 -108,-311 -258.8,-379.9 31.1,228.1 79.5,475.8 253.7,641.4"
           style="fill:#edeceb;fill-opacity:1;fill-rule:nonzero;stroke:none"
           transform="matrix(0.13333333,0,0,-0.13333333,0,2666.6667)" />
        <path
           id="path27"
           d="m 12319.9,5337.1 c 273.3,-141.2 550,-276.9 834.6,-394.3 -13.5,-6.7 -40.4,-19.9 -53.9,-26.6 -302.9,-156.6 -610.2,-309 -940.4,-399.4 -109.2,-45.7 -201.4,68 -147.1,167.8 74.8,119.3 232.6,157 310.9,276.1 81.9,111.8 36.4,257.9 -4.1,376.4"
           style="fill:#edeceb;fill-opacity:1;fill-rule:nonzero;stroke:none"
           transform="matrix(0.13333333,0,0,-0.13333333,0,2666.6667)" />
        <path
           id="path28"
           d="m 4586.72,5061.3 c 135.94,79.3 300.19,103.5 454.3,113.9 45.89,-11.3 92.18,-22.5 138.47,-32.8 -287.11,-43.4 -564.26,-147.1 -803.12,-312.9 52.54,90.8 134.76,160.7 210.35,231.8"
           style="fill:#edeceb;fill-opacity:1;fill-rule:nonzero;stroke:none"
           transform="matrix(0.13333333,0,0,-0.13333333,0,2666.6667)" />
        <path
           id="path29"
           d="m 1403.9866,2117.32 c -14.6133,20.2534 -29.0133,40.8 -42.16,62.08 17.4134,10.2134 35.3867,20.2934 54.5334,26.88 8.9466,-16.2 17.4133,-32.84 24.3733,-50 -8.5467,-15.7066 -22.8933,-27.8933 -36.7467,-38.96 z m -169.508,4.6267 c 37.3707,15.24 74.0374,32.2667 111.428,47.4267 13.1067,-21.8534 27.0667,-43.2 42.8667,-63.2534 -27.6,-26.3066 -59.5027,-47.7866 -92.1333,-67.3466 -25.468,23.6266 -42.812,54.6133 -62.1614,83.1733 z m 214.0147,-145.3866 c 13.6667,40.2133 16.5067,86.4666 -2.56,125.4399 -3.3867,6.0534 2.6667,11.7734 5.6533,16.6667 18.9867,-20.96 20.96,-53.6933 16.7734,-80.9067 27.24,48.72 48.9333,106.9067 99.0666,136.88 -58.1333,-53.8 -75.2933,-134.56 -118.9333,-198.0799 z m -319.196,78.9866 c 29.6613,17.2667 61.5627,31.1733 92.1867,46.96 19.948,-26.0533 36.9013,-54.8267 60,-78.5467 -25.9374,-19.9466 -53.828,-37.9733 -83.672,-51.4799 -25.572,25.2266 -47.448,53.9999 -68.5147,83.0666 z m -459.11465,-80.4133 1.95333,1.5067 c -20.548,1.3866 -42.448,4.6133 -60.57333,15.1866 -10.07867,9.48 -21.04133,18.8 -28.04666,30.9067 31.84799,-22.1067 68.80133,-35.9333 107.08266,-41.72 36.04133,-5.4133 72.57866,-5.3067 108.90666,-3.8 144.14,16.3067 279.29729,73.6 410.02529,133.52 3.1774,1.2 6.4854,1.64 9.9747,1.32 -33.62,-18.96 -69.0107,-35.1067 -104.844,-49.5734 -71.016,-30.5466 -143.56799,-58.3333 -219.16666,-75.2666 -73.28133,-19.4267 -150.39066,-23.9067 -225.31199,-12.08 z m 481.40535,-23.4667 c -31.8227,20.2667 -54.6867,51.4267 -78.828,79.8667 l 0.3906,1.8 c 12.3707,6.1466 25.1307,11.6666 38.2294,16.0666 21.016,-29.56 44.0626,-57.6533 68.204,-84.7066 -9.2454,-4.48 -18.048,-10.24 -27.996,-13.0267 z m -167.62936,47.2934 c 23.85336,9.3999 47.75996,20.8266 72.42136,27.0266 23.776,-27.9866 46.484,-57.8133 77.0053,-79.0133 -19.9733,-10.88 -41.224,-19.9733 -62.9947,-26.6133 -33.36,20.4933 -59.896,50.1866 -86.43196,78.6 z m -78.28133,-20.3867 c 21.016,5.6667 41.87467,12 62.73467,18.3067 25.39066,-30.48 53.61862,-59.0134 86.38002,-81.64 -18.7507,-5.1867 -37.292,-13.96 -56.87469,-14.4267 -34.92267,20.12 -66.32933,46.8667 -92.24,77.76 z m 3.672,-87.4267 c -31.90133,19.6134 -63.17733,42.0534 -86.432,71.7734 22.83734,1.72 44.84267,8.5066 67.29067,12.36 29.792,-29.8667 60.20933,-60.12 97.52666,-80.72 -21.95333,-2.8134 -43.75066,-6.8267 -65.83333,-8.2267 -4.71333,-0.4267 -8.69867,2.5733 -12.552,4.8133 z m -157.24,9.5334 c -44.13999,11.6666 -83.28133,37.4933 -115.98933,68.8266 55.75467,-14.2666 113.88,-12.48 170.75467,-8.6533 27.604,-28.4 59.376,-53.9067 93.20399,-75.2533 -49.73999,-3.6267 -99.73999,2.9466 -147.96933,15.08 z m 56.61467,-32.1867 c -19.636,4.1333 -40.208,7.68 -57.91733,17.36 63.75066,-13.5067 129.55733,-19.7867 194.47999,-11.3467 68.07336,6.3334 132.05736,32.1867 194.40136,58.5467 -17.552,-15.1867 -39.324,-24.3333 -60.6,-33.0533 -85.41602,-33.2534 -179.58269,-44.9734 -270.36402,-31.5067 z m 237.76002,-26.9333 c 68.6986,13 127.0053,53.5733 187.7093,85.6 -52.7613,-44.92 -118.1253,-78.88 -187.7093,-85.6 z m -77.68136,6.2266 c 57.29066,13.52 114.00936,30.3867 167.78536,54.72 13.1773,6.16 26.7973,11.2667 40.3386,16.56 -27.9426,-23.44 -57.9946,-44.9466 -92.2133,-58.2533 -35.7293,-16.88 -77.4733,-26.9067 -115.91066,-13.0267 z M 865.78131,1707.4534 c -32.73466,6.12 -68.516,21.7333 -82.57866,54 34.40133,-2.7067 68.90666,-6.5867 103.35999,-6.2933 -2.21333,3.6666 -7.26533,2.8933 -10.86,4.0533 -52.83866,9.2533 -106.66666,21.4667 -153.20266,49.2533 -26.24933,13.5067 -52.448,32.0267 -66.068,58.9334 -5.85866,11.6933 -8.776,31.0933 5,38.0133 11.48534,-4.7333 20.26134,-14.0133 30.54667,-20.7467 69.636,-50.7333 153.308,-80.08 239.01066,-86.9866 94.40129,-6.0667 193.43729,1.2266 279.40129,43.8533 69.6614,39.4267 125.9427,98.0267 180.3694,155.6533 -37.84,-63.8266 -90.708,-119.0133 -153.0774,-159.2933 -27.9426,-19.2 -57.9173,-37.3733 -91.7453,-43.44 -51.7973,-9.5067 -103.2293,-24.7867 -156.37999,-23.1467 -26.38,-0.4 -52.76,1.0134 -79.14,0.027 l 0.93733,-2.56 c 25.98934,-3.5867 52.00534,-7.2933 78.20267,-8.88 51.30269,-0.08 101.95329,10.0267 151.14529,23.88 -62.5,-29.5067 -132.0053,-43.9333 -201.17196,-41.4267 l 0.72934,-2.2133 c 67.99462,-16.44 137.70932,-0.6267 202.76132,20.3867 -13.464,-10.9867 -29.4013,-18.2267 -45.3133,-24.7867 -72.7347,-30.2933 -154.01069,-44.3733 -231.92669,-28.28 z m -40.26,-12.0933 c -4.532,3.4133 -7.86533,8.1066 -10.33866,13.16 44.16666,-17.32 90.54666,-29.1467 138.09866,-32.4 -42.00533,-16.7467 -92.552,-8.9867 -127.76,19.24 z m 892.75869,-112.6 c 0.3866,90.52 7.08,180.88 8.5466,271.3866 2.2934,41.5067 2.5734,83.0934 5.36,124.5734 7.32,6.9066 18.28,8.88 27.5334,12.7066 -6.9867,-130.28 -6.28,-261.0933 -10.2667,-391.4 -10.4933,-5.6266 -20.8133,-11.5066 -31.1733,-17.2666 z m -35.9867,-64.04 c 7.1067,147.4266 14.4533,294.8533 23.04,442.1866 -1.04,7.6134 7.76,9.6934 13,12.5867 -6.8533,-142.2133 -11.2533,-284.5333 -17.4267,-426.7467 18.88,6.56 38.36,11.4534 57.16,18.12 18.6534,11.96 28.6,33.7067 43.2667,49.2267 2.2667,-9.4267 10.0933,-20.6267 1.8933,-29.2533 -10.72,-12.68 -19.48,-27.24 -31.3466,-38.8 -28.9867,-11.56 -59.64,-18.6134 -89.5867,-27.32 z m -168.3867,-49.1334 c -15.6533,2.4134 -22.3733,21.9734 -12.0266,33.72 8.3066,11.4267 29.1866,10.16 34.5066,-3.6133 8.8,-13.84 -7.12,-34.3067 -22.48,-30.1067 z M 1702.6,1421.0934 c -23.2267,22.08 -29.68,55.1067 -33.8267,85.52 20.1067,-9.1867 24.92,-32.84 34.5067,-50.6533 5.2666,-13.2 15.6266,-24.76 16.7466,-39.3467 -6.1466,-0.4667 -12.8933,-0.3067 -17.4266,4.48 z m -368.04,-117.2667 c 1.6133,13.4667 -0.8667,29.56 10,39.84 -2.4267,-24.4 2.92,-50.3866 -4.12,-73.7733 -7.1334,9.5867 -5.6267,22.6267 -5.88,33.9333 z m -55.3934,-27.4133 c -18.36,27.3333 -8.724,67.36 16.12,87.4133 22.708,13.3067 49.22,19.0134 75.2867,20.7867 -3.2533,-31.0933 -4.2667,-62.3733 -6.36,-93.5733 -14.16,22.6533 -2.96,53.5733 -7.7067,79.4533 -18.56,-18.9867 -29.7093,-44.7867 -51.4026,-60.96 -4.2974,19.2933 6.224,36.1467 17.6826,50.4933 -12.9946,-6.1466 -28.6986,-11.1466 -35.208,-25.2133 -10.4426,-17.7067 -8.5426,-46.4267 11.5094,-56.4 12.292,16.28 15.0266,39.5067 32.9693,51.8267 -7.448,-18.44 -7.6307,-39.2534 -17.0573,-56.8 -7.864,-13.8 -28.568,-9.12 -35.8334,2.9733 z m 220.1534,-8.32 c 4.04,27.0667 6.9066,57.7333 26.28,78.7867 42.1333,35.12 87.8933,65.64 134.0133,95.2266 18.8,-29.0533 54.1067,-35.4933 84.8933,-44.3733 -11.7733,20.9867 -26.8,41.3867 -28.28,66.4133 11.3467,-7.8666 18.96,-22.4266 34.1067,-23.36 13.84,-1.72 34.4,-5.76 41.7733,9.8134 4.9467,12.3466 -9.9733,18.8 -18.5066,23.72 12.8533,1.1466 25.6133,3.68 38.5066,4.3466 12.9734,-1.7333 16.64,-16.5066 12.1067,-27.1866 -14.32,-39.8667 -29.4267,-79.7334 -49.1333,-117.2667 -3.8534,-9.1867 -13.9867,-9.4267 -22.5334,-9.1333 0.2934,10.2533 2.0934,20.4133 2.6934,30.68 -42.9734,-3.9867 -70.4267,36.12 -108.9067,45.9333 6.84,-11.8 14.1333,-23.5733 17.7333,-36.8533 -36.12,-14.2134 -62.9466,-46.0134 -101.96,-53.72 9.5067,-7.0534 20.8667,-1.96 31.1467,-0.2134 -9.3467,-6.7466 -20.3333,-11.9733 -26.7733,-22 23.28,1.2534 38.76,20.5467 53.88,35.84 12.8133,13.72 31.6133,21.1334 50.2933,21.4267 -10.96,-10.4133 -27.9467,-14.1733 -35.08,-28.68 -6.5867,-14.1333 -17.0267,-26.92 -31.28,-33.8 -20.4667,-9.4267 -43.3067,-7.36 -65.1467,-9.1067 15.28,-15.68 40.1734,-18.5733 61.1867,-16.04 -16.92,-13.8533 -39.08,-21.0933 -60.8533,-20.5733 -16.7467,2.2133 -35.2134,13.5867 -40.16,30.12 z m -457.3667,-69.5467 c -0.7027,6.6667 -0.5987,13.4 -0.156,20.0934 14.4267,0.6266 28.9053,0.6 43.3067,-0.1734 0.6253,-4.3466 0.8853,-8.7066 1.4586,-13.0266 6.744,-0.3867 5.4947,8.6533 8.2547,12.8666 22.8907,2.4534 46.0427,-0.7066 69.0107,1.0667 0.3653,4.8667 0.312,9.7867 -0.104,14.6933 -40.5467,1.8934 -81.1974,0.12 -121.7707,1.04 -1.328,5.4934 -1.432,11.3067 -0.079,16.8134 29.3494,1.7466 58.8027,-0.44 88.152,0.9466 0.26,4.08 0.26,8.1734 -0.1573,12.2667 -28.4893,5.8533 -58.984,0.3867 -88.176,2.96 -0.8333,11.0267 -1.0427,22.1867 0.3907,33.1867 30.104,1.0133 60.2853,-0.9467 90.3893,0.8266 0.2867,4.92 0.2867,9.8667 -0.1813,14.8134 -30.156,1.6533 -60.4174,-0.1734 -90.5987,0.84 -0.4427,5.08 -0.4173,10.2133 0.1293,15.32 40.704,0.8266 81.432,-0.2934 122.1614,0.5333 0.3133,5.84 0.2866,11.72 -0.1294,17.5867 -26.7973,1.12 -53.6466,-1.5067 -80.4173,0.027 1.3027,78.1734 -38.2547,158.6134 -107.21332,197.9467 50.88532,22.5467 101.71862,45.44 151.43202,70.5867 119.9746,56.44 235.264,122.8133 358.544,172.1733 -10.2934,-42.0933 -17.8134,-84.88 -29.12,-126.72 -18.1467,-77.92 -27.6267,-157.7067 -39.6267,-236.52 -5.9733,-51.64 -2.9467,-105.1067 -18.9867,-155.1067 -15.32,-40.72 -54.2,-74.76 -98.936,-75.8266 -43.6973,-2.4 -87.656,28.28 -98.0986,71.2266 -10.0254,52.24 15.3906,107.7334 57.5,138.88 30.8333,23.52 83.548,25.7067 106.348,-9.9733 -13.92,3.6933 -27.6267,9.6133 -42.3627,8.4933 -53.464,1.92 -96.5627,-47.24 -103.048,-97.5866 -8.02,-45.16 31.0947,-91.3734 77.1093,-90.1067 43.5414,0.7067 76.248,38.6267 89.0614,77.24 7.7066,33.4133 7.4266,68 10.6,101.9867 -13.9067,46.5066 -13.44,96.0933 -2.5734,143.12 8.1734,34.6933 28.9067,66.8533 27.9334,103.2533 -27.08,-51.9467 -48.3867,-108.5333 -49.5734,-167.8133 -0.52,-15.4134 -0.4266,-30.8 -0.24,-46.2134 -21.2,22.28 -53.176,28.7734 -82.5506,23.3334 -11.7974,-10.7867 -28.3334,-13.1334 -40.8334,-22.7867 -19.9746,-14.96 -36.5373,-34.88 -45.4426,-58.36 -1.928,-7.92 -10.1307,-11.4933 -13.256,-18.52 -5.4947,-34.8667 -12.864,-70.8533 -4.3494,-105.9067 5.3654,-18.7333 12.9694,-37.0933 24.7667,-52.72 -51.0947,-0.2 -102.2147,-0.3333 -153.308,1.12 -4.9733,0.7067 -11.224,-1.6666 -15.26,2.12 z m 419.14,-10.5733 c 5.6533,55.2 7.7867,110.6667 12.52,165.96 0.7067,19.76 9.8267,38.3333 21.2533,54.0933 -7.1866,-72.5066 -14.32,-145.08 -20.1733,-217.6933 -4.4267,-1.3467 -9.04,-1.9467 -13.6,-2.36 z m -492.86399,-6.6 c 20.28667,78.1067 10.65067,163.8667 -28.724,234.5333 -30,55.8934 -72.344,104.5867 -121.276,144.6934 -6.276,5.44 -13.85466,9.6666 -18.672,16.6133 66.484,-34.76 121.068,-91.2533 157.42133,-156.7467 36.876,-62.9466 46.45866,-139.56 33.776,-210.76 -2.05733,-12.5466 -6.432,-29.3733 -22.52533,-28.3333 z m 424.99729,-6.1867 c 32.04,21.4 48.16,59.16 53.96,96.0667 0.1867,-29.0667 -2.4,-58.8267 -9.2666,-86.96 -12.76,-8.0133 -30.2667,-4.6267 -44.6934,-9.1067 z m -112.6013,-12.04 c -22.8133,5.4667 -47.2133,19.1467 -55.912,42.04 12.552,-9.12 25.052,-18.76 39.8707,-23.9333 49.9213,-17.5067 110.176,3.9333 138.096,48.8533 25.4666,36.0134 27.3466,81.5334 31.9066,123.8 14.7867,161.64 47.7867,321.5334 97.2134,476.12 -72.7334,-31.1466 -143.3067,-67.24 -213.284,-104.1733 -115.3907,-59.5733 -227.188,-126.8933 -347.91736,-175.52 -5.312,-2.0267 -10.72933,-4.0267 -15.26,-7.4933 64.66136,-43.12 108.80136,-114.3734 117.36936,-191.8267 -9.0107,-0.7333 -18.1507,-0.9333 -27.1347,0.2667 -1.172,23.8533 -8.1253,47.08 -19.2707,68.12 -28.69862,53.8533 -70.28662,103.2 -125.10529,131.6133 114.14129,35.8133 222.89069,87.24 327.60529,144.7733 109.584,58.6667 220.3707,115.0267 332.0507,169.48 -54.4933,-176.5733 -96.7067,-357.7866 -113.7467,-542.04 -4.4,-47.8666 -17.08,-99.6133 -55.1333,-132.1333 -29.4933,-27.24 -72.7547,-34.8133 -111.348,-27.9467 z m 506.228,-4.56 c 6.76,52.5067 4.8133,105.6534 7.84,158.44 14.48,11.12 31.32,18.9867 46.5067,29.2267 -3.44,-61.6667 -3.0267,-123.44 -4.72,-185.1333 -16.48,-1.4134 -33.0667,-2.2667 -49.6267,-2.5334 z m -739.796,-12.8 c -8.62,0.4134 -16.068,6.12 -12.8907,15.4934 116.068,-17.04 234.2707,-31.4134 351.4067,-16 100.88,13.3333 201.5867,36.96 293.0933,82.56 34.9334,17.76 70.24,35.9866 99.9467,61.9066 0,-6 0.4533,-12.0933 -0.72,-17.9733 -8.72,-9.0133 -19.72,-15.3467 -30.1067,-22.1333 -100.4933,-64.0667 -216.64,-99.56 -333.8266,-117.12 -121.8507,-18.2534 -246.148,-8.28 -366.9027,13.2666 z m -19.6093,-74.8533 c -1.1974,22.2133 -1.7707,44.5333 -0.5467,66.7467 1.0413,-0.053 3.1253,-0.16 4.1667,-0.2 3.5413,-21.9067 2.0573,-44.6667 0.156,-66.72 -0.9374,0.053 -2.8387,0.1466 -3.776,0.1733 z m 17.5,-2.4667 c -1.4067,20.6267 -0.4174,41.3467 -0.5987,62.0267 129.6093,-21.9733 262.968,-30.68 393.1973,-8.44 120.4,21.36 239.56,61.0667 341.0667,130.6267 0.1867,-27.6534 -1.2933,-55.3067 -3.0133,-82.92 -3.6,-5.4667 -10.32,-7.4934 -15.76,-10.5734 -45.88,-22.2133 -93.28,-41.1866 -140.9867,-59.0266 -102.4533,-32.7067 -209.1867,-52.7334 -316.7693,-55.7867 -86.12,1.56 -172.8387,4.8933 -257.136,24.0933 z m -151.66669,-45.32 c -0.23467,34.9334 2.708,71.4667 19.688,102.7067 10.70267,19.72 33.95733,35.4533 56.97867,29.04 17.68266,-4.2933 37.29202,-15.5733 40.20802,-35.2 1.328,-16.3867 1.172,-32.92 -0.025,-49.3067 -41.87596,-5.4933 -86.14662,-16.0666 -116.84929,-47.24 z m 829.06529,-85.10662 c 24.8134,63.93332 43.9334,130.70662 46.4,199.69332 19.9734,5.84 41.4934,5.8133 62.2134,5.5733 -12.76,-52.48 -34.8934,-102.2666 -62.8667,-148.36 -11.9733,-21.28 -26.64,-41.50662 -45.7467,-56.90662 z m -11.5333,-40.38667 c 2.52,20.86667 25.2267,32.26667 38.4267,46.98667 -9.8934,-17.53334 -23.0134,-33.90667 -38.4267,-46.98667 z m -22.64,-32.57333 c -5.6,8.69333 -5.9867,19.45333 -2.36,28.98666 8.1733,-9.25333 12.6533,-21.33333 18.56,-32.09333 -5.4667,0.73334 -10.9067,1.66667 -16.2,3.10667 z m -540.1267,25.08 c -36.3533,26.06666 -67.2133,61.84 -83.3586,103.77332 -5.6254,4.5067 -2.0054,13.2 -4.74,19.24 -5.7027,12.9733 -11.9014,26.0133 -13.412,40.32 223.0733,-46.0933 460.704,-22.9733 669.424,68.96 -6.7467,-18.4933 -27.6,-27.9733 -31.84,-48.1067 10.3866,6.6134 15.2533,18.9867 25.8533,25.4134 -2.24,-21.1734 -19.6933,-35.3867 -32.16,-51.0134 -18.6,-20.5466 -34.72,-43.72 -54.48,-62.92 -22.24,-26.07996 -47.9733,-49.05329 -72.52,-72.82662 28.56,15.02666 52.1867,37.70666 76.2933,58.82666 31.8534,27.10666 56.88,60.98666 81.4934,94.50666 -3.96,-62.6133 -40.2934,-119.06666 -87.64,-158.49332 -44.0534,-39.94667 -98.7467,-66.28 -155.6534,-82.16 40.2667,-0.13333 78.8134,15.36 115.24,31.22667 49.1467,20.51999 90.1334,58.17333 118,103.22666 28.04,51.74669 39.0267,111.17329 41.1867,169.50669 3.9333,2.4933 8.3867,4.0533 12.8133,5.6 -1.04,-61.44 -15.3066,-123.44 -42.5733,-178.65336 -15.96,-29.61333 -42.8133,-51.01333 -63.64,-76.94666 -53.2133,-42.06667 -122.2133,-57.45333 -188.24,-65.08 -107.7867,-12.78667 -222.5987,8.85333 -310.0467,75.6 z M 877.52664,785.93341 c 34.00934,-13.85333 71.24934,-15.08 107.21334,-10.2 -33.724,-17.21333 -76.71867,-11.17333 -107.21334,10.2 z M 647.03065,654.89342 c -29.53067,14.32 -58.228,30.78666 -84.504,50.54666 14.97334,-4.89333 28.95734,-12.29333 43.04667,-19.29333 47.656,-26.56 98.30666,-47.24 149.60933,-65.62667 -38.09867,3.06667 -74.40133,16.97334 -108.152,34.37334 z M 1681.3866,596.90675 c 9.2934,40.96 19.6267,82.24 19.6,124.54667 -0.027,14.01333 -8.9333,25.70666 -14.24,38.10666 -9.6666,18.44 -16.9866,38.44 -28.2266,55.8 -132.48,-71.81333 -294.8267,-88.38666 -438.2334,-40.49333 -72.1093,25.49333 -139.3493,67.65333 -189.2453,126.11999 -28.776,34.97334 -53.64532,75.07996 -61.82266,120.26666 -2.05733,8.3333 0.98934,16.64 5.49467,23.5867 14.844,-29.68 22.76,-63.0667 41.35469,-91.14669 65.8853,-106.34666 187.2386,-169.18666 309.3746,-183.09333 118.4107,-16.38667 240.8374,11.06667 343.8774,70.73333 12.56,-24.25333 23.36,-49.41333 35.5466,-73.85333 5.92,-15.70667 18.2,-30.73333 14.7734,-48.44 -5.4534,-42.29333 -14.8,-85.94666 -38.2534,-122.13333 z m -664.512,-4.04 c -43.80129,10.72 -84.19196,31.61333 -123.35862,53.38667 -13.724,8.28 -29.08933,15.17333 -39.16667,28.12 44.296,10.44 90.18133,13.77333 133.932,26.98666 30.83329,7.36 60.67729,20.22667 92.55199,22.41334 -26.5627,-15.22667 -56.224,-23.64 -84.84399,-33.53334 38.61999,-3.57333 77.16129,5.09334 113.33329,18.04 -46.3013,-44.76 -112.83862,-59.84 -175.36396,-62.42666 7.00534,-6.10667 20.052,-3.88 29.53067,-5.6 61.27599,-1.42667 124.32269,12.04 176.45869,45.29333 11.9013,6.66667 23.568,14.61333 37.136,17.42667 -31.1987,-41.25334 -82.6574,-59.74667 -129.0107,-78.30667 28.0467,-3.21333 55.9373,3.58667 81.9787,13.53333 -28.3587,-29.94666 -70.6507,-53.66666 -113.1774,-45.33333 z m 32.4227,-13.10666 c 66.2493,3.93333 115.9373,52.34666 164.6093,91.66666 -25.2613,-44.73333 -62.7866,-86.73333 -113.1253,-102.57333 -17.6307,-1.2 -34.8173,5.93333 -51.484,10.90667 z m 69.896,-22.73334 c 37.3427,18.25334 70.0773,44.12 99.5307,73.25333 25.1306,19.72 44.3746,46.46667 72.292,62.74667 -5.0787,-13 -15.6774,-22.72 -21.224,-35.42667 12.0826,4.04 18.776,16.06667 29.948,21.77334 -12.2667,-28.96 -36.068,-50.30667 -56.016,-73.72 23.1253,8.50666 38.516,29.18666 58.2293,42.81333 -7.188,-22.84 -29.584,-36.58667 -42.656,-55.89333 13.5933,3.68 23.828,13.76 35.2333,21.36 -9.0613,-24.53333 -30.1293,-40.65333 -45.78,-60.41333 10.6507,2.6 18.2027,10.90666 26.484,17.46666 37.1867,31.44 65.312,71.74667 89.192,113.77333 -5.0266,-25.98666 -9.32,-52.65333 -22.68,-75.98666 -8.648,-20.33333 -25.2106,-35.36 -38.2573,-52.65333 45.364,24.84 69.764,73.93333 91.6973,118.51999 -2.4266,-51.93333 -31.7733,-98.78666 -70.8893,-131.43999 19.4493,4.45333 33.2227,20.10666 46.7693,33.65333 28.1467,27.24 46.04,62.76 63.28,97.38666 5.1334,-15.05333 -2.16,-30.17333 -2.52,-45.33333 8.6134,9.34667 11.56,22.16 18.3334,32.73333 2.3466,-40.26666 -22.7867,-74.01333 -47.2934,-103.06666 45.3867,22.49333 58.88,77.18666 59.04,123.92 9.84,-30.69334 12.8534,-65.8 -2.2133,-95.41333 -5.9467,-13.85334 -17.3733,-24 -25.7333,-36.25334 11.9733,2.72 19.9466,12.56 28.1733,20.84 35.24,35.10667 53.44,83.36 60.44,131.85333 11.2,-39.14666 -4.92,-78.46666 -20.9067,-113.67999 38.0667,40.81333 59.5867,95.29333 70,149.61332 17.2134,-43.74666 -4.76,-88.19999 -25.8266,-125.93333 26.48,20.93334 36.4,55.77334 44.52,87.21334 0.1066,-15.49334 1.0666,-31.04 -0.2534,-46.49334 -4.92,-22.49333 -21.1466,-40.66666 -38.8266,-54.53333 -37.56,-33.74666 -87.32,-47.98666 -134.28,-63.29333 -98.0934,-24.74667 -203.2494,-12.92 -297.8067,20.61333 z M 780.41731,486.12009 c -48.04799,18.22666 -99.06266,35.02666 -137.08399,71.12 15.72933,-7.73334 30.39066,-18.8 48.02133,-21.8 -6.53733,7.16 -16.14667,9.8 -24.16667,14.77333 -66.45866,38.22667 -117.47466,99.34666 -153.67199,166.09333 69.79066,-40.76 135.02533,-93.30667 214.92133,-113.21333 58.67199,-18.01333 120.49466,-10.28 180.72932,-15.41333 -5.80666,-2.02667 -11.66666,-3.98667 -17.26533,-6.53334 20.572,-0.57333 40.70267,-5.38666 61.19733,-6.72 -34.76533,-16.8 -73.64533,-22.86666 -108.54133,-38.49333 35.78133,0.54667 70.156,14.77333 106.12,15.44 -29.66133,-16.29333 -63.75067,-22.6 -96.79733,-28.50667 -0.104,-1.14666 -0.312,-3.46666 -0.416,-4.61333 14.16666,-0.85333 28.51466,-0.62667 42.42133,-3.90667 -3.85467,-1.14666 -8.22933,-1.2 -11.536,-3.66666 2.18667,-0.37334 6.588,-1.12 8.776,-1.49334 -28.568,-12.44 -60.208,-14.76 -88.828,-26.97333 -8.07333,-3.69333 -16.25066,1.50667 -23.88,3.90667 z M 1578.2,471.37342 c 15.9733,39.01333 25.7866,80.45333 27.2133,122.66667 2.8933,-16.66667 5.8133,-33.38667 6.7467,-50.32 5.8933,7.32 1.88,23.65333 2.6,34.48 -5.9867,42.67999 -0.36,85.57333 6.6,127.75999 1.3466,-9.16 -1.2,-18.25333 -1.3867,-27.38666 12.0533,16.37333 3.2533,39.45333 2.9733,58.45333 18.5334,-44.05333 11.3734,-93.04 9.6534,-139.29333 12.84,20.41333 16.28,45.29333 16.9866,68.98666 8.12,-20.30666 8.3867,-43.46666 3.2534,-64.53333 -15.7867,-47.84 -38.12,-95.21333 -74.64,-130.81333 z M 914.11464,395.90676 c -56.79733,3.18666 -109.34933,27.26666 -161.22399,48.54666 46.276,14.32 93.22933,26.56 140.62533,36.64 56.56266,11.50667 109.34802,36.50667 166.01462,47.57333 -15.6506,-12.90666 -30.2853,-27.30666 -48.02,-37.44 -44.27062,-25.91999 -96.97996,-33.25333 -147.52662,-32.91999 l 0.052,-2.62667 c 81.12,-9.06667 165.80802,13.85333 230.05202,64.53333 -7.5774,-13.44 -21.224,-21.57333 -29.8427,-34.04 19.8947,6.85333 37.0827,19.78667 58.124,23.69333 -39.1147,-34.56 -86.1973,-59.81333 -136.63999,-73.38666 -9.50533,-3.45333 -20.33867,-3.77333 -28.80267,-9.68 43.90666,2.32 86.92796,13.98667 127.76136,29.92 20.676,7.73333 38.2026,21.61333 58.3333,30.46666 -16.9533,-20.73333 -40.1827,-34.83999 -61.6413,-50.33333 -48.568,-33 -109.01069,-47.61333 -167.26536,-40.94666 z m -78.20266,4.82666 c 67.604,-18.85333 140.572,-22.06666 207.68132,0.69334 22.2667,6.52 41.876,19.14666 63.0213,28.28 -29.3746,-32.57334 -72.5266,-51.12 -115.15596,-58.64 -53.33333,-5.21334 -107.032,8.17333 -155.54666,29.66666 z m 536.66132,-48.78666 c 34.2267,36.36 69.8267,72.4 93.7067,116.71999 -3.88,-22.02666 -17.9467,-40.09333 -24.4267,-61.14666 22.16,20.56 32.1067,52.34667 38.2533,81.33333 0.5467,20.05333 24.4,23.02667 35.1067,36.4 0.027,-8.82667 -0.32,-17.68 0.2,-26.50667 8.0533,9.69334 11.3333,22.21334 18.3867,32.58667 -0.96,-18.65333 -8.36,-35.92 -13.8,-53.49333 21.4266,22.70666 21.88,57.89333 25.36,87.41333 11.4666,-44.57333 -3.6134,-92.93333 -31.56,-128.58666 -32.4,-46.8 -86.1467,-74.61334 -141.2267,-84.72 z m -151.428,-28.72 c 59.74,40.76 104.48,100.05333 139.348,162.65333 7.6533,8.10666 20.4667,5.26666 30.52,7.50666 -12.5467,-18.74666 -30.1733,-33.93333 -40.7333,-53.90666 22.64,12.78667 40.7866,31.66666 61.1733,47.37333 -9,-23.16 -26.8133,-41.30666 -37.7067,-63.21333 18.3067,8.65333 28.0534,27.17333 43.2,39.56 -13.9733,-44.42667 -50.3866,-76.37333 -86.6866,-103.12 -32.7334,-20.18667 -70.0774,-36.69333 -109.1147,-36.85333 z m -229.13999,14.09333 c 11.04129,6.97333 24.03599,9.58667 35.80669,14.97333 63.204,27.34667 118.204,72.18667 160.1053,126.61333 10.104,14.81334 30.3893,12.70667 46.0933,13.01334 -25.3386,-42.22667 -56.7706,-81.64 -96.8493,-110.77333 -6.5107,-4.73334 -14.3747,-8.06667 -18.932,-15.02667 31.0413,9.37333 54.3227,33.72 77.2653,55.46667 26.6934,20.81333 45.8854,50.51999 75.5467,67.53333 -11.9013,-24.85333 -30.312,-45.54667 -45,-68.57333 19.428,10.57333 36.224,25.52 52.8133,40 -7.188,-17 -22.084,-29.73334 -27.2146,-47.68 7.6306,4.16 13.516,10.98666 21.6413,14.34666 -24.1667,-46.74666 -65.912,-89.69333 -119.9213,-98.51999 -53.5427,-11.56 -108.724,-3.61334 -161.35469,8.62666 z m -137.63066,17 c 106.40666,-50.77333 225.80795,-73.93333 343.48935,-65.70666 127.5533,5.05333 253.8026,49.01333 355.0826,127.11999 49.4,35.93334 92,80.69333 125.72,131.61333 10.16,21.61334 21.1734,42.78667 31.6134,64.26667 12.9733,27.92 17.8133,58.96 32.6933,85.96 3.0133,19.14666 3.12,40.18666 -6.5467,57.66666 -14.2666,28.42667 -27.52,57.33333 -40.5866,86.32 15,-0.62667 31.8933,3.05333 40.6666,16.44 10.8134,16.45333 25.7067,29.37333 39.5067,43.22666 45.1067,49.65334 78.3867,110.46666 93.0533,176.11996 6.1734,21.2934 0.1067,43.7734 5.5734,65.2267 5.5733,5.4267 15.2533,7.32 18.0666,14.92 0.8934,23.0267 -0.2266,46.0933 0.2934,69.1467 6.0666,35.1066 -0.8134,70.96 4.7866,106.0666 1.0667,26.12 0.1334,52.2934 0.1334,78.4134 6.6666,36.9066 -0.5467,74.6933 5.0533,111.64 -0.4933,11.4533 3.4133,24.8933 -2.3733,34.9466 -28.5734,-3.3066 -50.7067,-25.9333 -78.3067,-33.72 -0.2667,7.96 -3.4133,15.8 -2.7333,23.8 8.2266,9.72 19.8666,15.88 28.1733,25.5467 3.3067,8 -0.52,15.88 -5.1067,22.3467 5.8667,5.88 14.1467,9.9466 18.6,17.4133 2.2134,38.44 -2.1066,77.1867 2.7867,115.48 1.2667,40 -1.2,80.1467 1.84,120.0267 -4.4933,15.9866 -4.4,32.52 -2.7333,48.9466 0.027,28.5467 -1.5334,57.3467 3.8533,85.5734 2.6933,27.8933 1.6933,56.0533 5.5733,83.8266 -19.6533,-16.24 -42.68,-27.7333 -65,-39.7333 -3.2266,1.3866 -6.2133,3.12 -9.3733,4.6133 -13.6933,-14.0667 -32.84,-17.92 -51.4267,-20.6533 1.8,-0.8934 5.3867,-2.6534 7.1867,-3.5467 -37.9467,-15.6533 -74.84,-33.7466 -111.28,-52.5733 5.4,15.8 11.4667,35.28 0.5467,50.1866 -10.44,15.88 -31.48,20.9067 -41.4534,36.8134 -7.24,13.3066 5.0534,28.4666 19.6134,22.3733 7.8533,15.7333 33.0933,17.7867 31.2133,39.04 0.1333,13.96 4.72,30.6 -5.9067,41.92 -8.4933,12.3733 -20.1333,22.4267 -32.7866,30.32 -21.6134,4.1333 -46.4267,-6.2533 -65.1867,8.5333 -11.1867,13.4934 -0.5467,35.3734 -17.88,43.7067 -5.48,4.16 -13.6,9.7867 -20.08,4.32 -9.2267,-13.8267 -14.5867,-29.56 -19.2,-45.36 -5.2,17.1067 -15.4133,32.08 -20.3867,49.0267 -19.6133,5.4266 -17.4266,-18.0934 -14.9733,-30 -1.5333,9.7733 -3.88,20.2666 -10.76,27.6666 -10.9333,4 -19.6533,-4.0133 -25.5467,-12.1466 -10.4666,-3.3067 -21.0933,-6.2134 -30.88,-11.2667 -32.6533,-15.7333 -68.492,-23.52 -100.888,-39.7467 -17.1346,4.4267 -32.2133,-6.7733 -47.9946,-11.2533 -15.052,-6.0133 -33.6974,-5.44 -44.5574,-18.88 -74.896,-34.0267 -152.6293,-61.6133 -231.01596,-86.4267 -85.75466,-30.1333 -178.33333,-48.9866 -269.00932,-33.2 -66.66667,10.9067 -127.65733,46.0667 -175.02667,93.5334 -8.22933,8.1066 -14.34933,18.2933 -23.88,25.0533 18.85467,-59.0533 49.97334,-114.48 92.292,-159.9466 17.812,-21.5867 39.97333,-38.88 59.71333,-58.5867 -10.33866,-8.8 -18.59333,-21.12 -18.43733,-35.16 -0.33867,-25.7067 14.55733,-49.04 33.04667,-65.7867 -0.67734,-2.28 -1.45867,-4.5466 -2.31734,-6.7333 13.828,12.6533 29.63467,-8.6533 38.69734,-18.2933 1.016,0.48 3.02133,1.44 4.036,1.9333 16.74533,-9.0667 31.64133,-22.5067 49.87066,-28.3067 6.66667,-26.0933 19.45333,-50.24 39.192,-68.8 22.42267,-30.92 -9.11467,-71.3866 -41.90133,-76.4933 -10.78,-2.5733 -23.95733,2.2133 -32.13467,-7.4933 1.87467,-6.0934 7.552,-9.56 12.292,-13.2 30.156,-20.1334 58.176,-43.3867 83.59333,-69.2534 32.08267,-27.7066 58.932,-60.9866 82.36933,-96.1733 48.85467,-73.72 67.10934,-168.48 44.376,-254.2667 -8.22933,-7.2133 -19.428,-10.4133 -27.448,-18.0666 -17.70933,-16.5467 -29.03733,-38.9334 -35.23466,-62.12 -8.54134,-39.4 -12.292,-80.3334 -5,-120.28 1.588,-1.0934 4.792,-3.28 6.40666,-4.3467 19.47867,18.6133 38.02,38.36 61.35334,52.3867 5.72933,-36.56 21.79733,-70.52002 39.81733,-102.46669 17.96933,-30.86667 44.63599,-55.02667 67.81329,-81.74666 -46.224,-32.29334 -105.20796,-43.22667 -160.49462,-34.81334 -24.06267,3.01334 -46.79733,14.26667 -63.36,32 -6.71867,6.01334 -12.76,15.38667 -22.708,15.26667 0.23467,-32.21333 27.708,-54.56 43.43733,-80.21333 -4.792,-7.92 -14.86933,-7.29334 -22.916,-7.49334 -37.57866,0.61334 -76.38133,16.81334 -98.67199,47.98667 -5.46934,-18.14667 -5.756,-37.18667 -7.89067,-55.85333 9.45333,-20.34667 21.744,-39.90667 39.896,-53.65333 15.12933,-13.01334 35.75466,-18.50667 51.484,-29.37334 -23.07334,-6.42666 -47.292,1.88 -67.24,13.6 -27.42133,16.24 -56.64,30.72 -88.15067,36.72 6.61467,-6.22666 13.74934,-11.82666 20.468,-17.94666 0.31334,-0.29334 0.964,-0.84 1.30267,-1.12 -0.23467,-2.01334 0.44267,-4.12 -0.57333,-5.96 20.31333,-11.90667 41.58933,-21.74667 63.41199,-30.46667 -24.53199,3.2 -48.07333,11.21333 -70.93733,20.36 -9.32266,3.8 -18.59466,8.85333 -24.81733,17 2.5,1.25333 5.052,2.42667 7.656,3.52 -17.83867,3.30667 -33.28133,13.93333 -51.04266,17.62667 -48.80134,12.23999 -96.06667,29.77333 -142.68133,48.46666 41.74399,-107.08 108.82799,-203.95999 190.49466,-284.53333 60.208,-59.73333 131.92666,-107.15999 208.69733,-142.86666"
           style="fill:#250f15;fill-opacity:1;fill-rule:nonzero;stroke:none;stroke-width:0.133333" />
        <path
           id="path30"
           d="m 8378.52,12905.1 c 235.74,365 632.61,602.3 1039.84,731 -339.06,-169.5 -670.12,-382.8 -895.7,-694.9 -81.25,-115 -156.84,-252.7 -139.85,-398 12.5,-80.9 105.28,-90.5 171.1,-83.6 -92.78,-35.6 -192.58,-49.8 -291.02,-57.3 -14.65,175.4 41.99,346.1 115.63,502.8"
           style="fill:#250f15;fill-opacity:1;fill-rule:nonzero;stroke:none"
           transform="matrix(0.13333333,0,0,-0.13333333,0,2666.6667)" />
        <path
           id="path31"
           d="m 10676.4,13459 c 343.5,-91 660.1,-274.6 929.3,-505.1 131.6,-116.6 244.9,-252 374,-371.3 181.4,-224 379.7,-446.7 487.7,-717.4 -166.8,206.3 -293,447.9 -485.8,634.8 -136.1,145.9 -267.9,296.7 -420.5,426 -250.4,243.1 -569.5,394.3 -884.7,533"
           style="fill:#250f15;fill-opacity:1;fill-rule:nonzero;stroke:none"
           transform="matrix(0.13333333,0,0,-0.13333333,0,2666.6667)" />
        <path
           id="path32"
           d="m 9004.49,12417.6 c 373.44,21.7 747.46,69.9 1121.91,34.6 300.7,-25.3 608.6,-43.6 898,-127.8 -335.3,16.6 -668.1,85 -1005.3,75.8 -339.61,2.7 -679.26,-3.3 -1018.9,0.4 l 4.29,17"
           style="fill:#250f15;fill-opacity:1;fill-rule:nonzero;stroke:none"
           transform="matrix(0.13333333,0,0,-0.13333333,0,2666.6667)" />
        <path
           id="path33"
           d="m 9671.88,11987.9 c -28.33,-64.7 1.75,-166.2 88.47,-130.9 90.63,55.5 -6.83,195.3 -88.47,130.9 z m 1.56,59.4 c 79.88,25.6 194.33,-18.2 192.58,-113.7 19.53,-117.6 -151.76,-202.7 -231.64,-112.1 -71.68,63.1 -54.11,193.7 39.06,225.8"
           style="fill:#250f15;fill-opacity:1;fill-rule:nonzero;stroke:none"
           transform="matrix(0.13333333,0,0,-0.13333333,0,2666.6667)" />
        <path
           id="path34"
           d="m 8782.23,11942 c -62.89,-44.5 -13.09,-127.2 47.07,-143 18.36,5.5 35.93,12.9 52.73,22.3 52.54,64.1 -27.73,177.1 -99.8,120.7 z m -4.69,61.1 c 87.89,33.2 208.79,-47.6 190.43,-146.8 -6.25,-112.9 -174.81,-140.1 -242.19,-64.1 -65.62,62.3 -40.62,189.4 51.76,210.9"
           style="fill:#250f15;fill-opacity:1;fill-rule:nonzero;stroke:none"
           transform="matrix(0.13333333,0,0,-0.13333333,0,2666.6667)" />
        <path
           id="path35"
           d="m 7192.97,11833 c -62.31,-17 -108.2,-97.3 -69.14,-155.3 43.75,-74.4 188.67,-55.8 186.72,41.4 16.6,69.6 -55.47,122.3 -117.58,113.9 z m -56.84,110.9 c 148.44,50.8 335.16,-116 273.25,-270.7 -36.72,-131.8 -218.95,-168.7 -322.86,-95.5 -127.93,87.3 -92.38,312.7 49.61,366.2"
           style="fill:#250f15;fill-opacity:1;fill-rule:nonzero;stroke:none"
           transform="matrix(0.13333333,0,0,-0.13333333,0,2666.6667)" />
        <path
           id="path36"
           d="m 10845.5,11874.4 c -45.5,-40 -22.5,-103.3 19.3,-135.7 137.9,-40.6 112,205.2 -19.3,135.7 z m -20.7,55.9 c 87.5,31 193.8,-24.2 210.2,-116.6 14.2,-103.1 -118.8,-183.2 -203.7,-124.4 -92,43.3 -103.8,197.6 -6.5,241"
           style="fill:#250f15;fill-opacity:1;fill-rule:nonzero;stroke:none"
           transform="matrix(0.13333333,0,0,-0.13333333,0,2666.6667)" />
        <path
           id="path37"
           d="m 8027.93,11831.6 c -3.91,-38.8 -3.71,-80.2 23.63,-111.7 12.31,-0.2 36.72,-0.8 49.03,-1 15.82,13.1 30.27,27.8 43.36,43.8 1.95,22.5 1.75,44.7 -0.79,67 -13.28,15.2 -27.73,28.9 -43.75,40.8 -27.53,-4.1 -53.12,-17.6 -71.48,-38.9 z m -39.06,41.6 c 56.44,72.3 187.5,57.7 217.97,-32 55.46,-102.7 -74.22,-213.7 -175.2,-180.1 -62.11,46.1 -102.54,148.3 -42.77,212.1"
           style="fill:#250f15;fill-opacity:1;fill-rule:nonzero;stroke:none"
           transform="matrix(0.13333333,0,0,-0.13333333,0,2666.6667)" />
        <path
           id="path38"
           d="m 11800.6,11594.1 c -6.8,-27.7 -5.7,-57 -3.3,-85.7 16.6,-18.4 35.5,-36.5 59.5,-45.5 142.8,14.3 52,222.1 -56.2,131.2 z m 2.1,79.5 c 108,40.7 242,-75.9 191.6,-188 -32.8,-88.9 -152.5,-103 -218.5,-42.4 -89.3,52.1 -66.6,197 26.9,230.4"
           style="fill:#250f15;fill-opacity:1;fill-rule:nonzero;stroke:none"
           transform="matrix(0.13333333,0,0,-0.13333333,0,2666.6667)" />
        <path
           id="path39"
           d="m 12858.6,11247.1 c -93.2,-46.1 -25.4,-189.1 68,-156.9 90.2,40.1 28.1,196.9 -68,156.9 z m -39.3,58.2 c 163.1,64.8 285.6,-190.1 136,-275 -163.3,-79.5 -303.7,190.6 -136,275"
           style="fill:#250f15;fill-opacity:1;fill-rule:nonzero;stroke:none"
           transform="matrix(0.13333333,0,0,-0.13333333,0,2666.6667)" />
        <path
           id="path40"
           d="m 7929.1,10404.9 c 109.96,7.6 220.9,7.2 330.86,-0.8 -2.54,-24 -1.37,-52.5 -21.48,-70.1 -97.66,11.9 -271.68,-53.1 -309.38,70.9"
           style="fill:#250f15;fill-opacity:1;fill-rule:nonzero;stroke:none"
           transform="matrix(0.13333333,0,0,-0.13333333,0,2666.6667)" />
        <path
           id="path41"
           d="m 8654.69,9293.7 c 49.02,122.3 245.31,35.4 189.26,-88 -61.14,-108.2 -233.01,-30.5 -189.26,88"
           style="fill:#250f15;fill-opacity:1;fill-rule:nonzero;stroke:none"
           transform="matrix(0.13333333,0,0,-0.13333333,0,2666.6667)" />
        <path
           id="path42"
           d="m 8923.05,8769.7 c -11.72,-70.1 59.18,-92.9 115.04,-76.9 22.07,20.7 34.76,48.8 44.14,77.1 -1.57,103 -165.82,99.8 -159.18,-0.2 z m 29.1,129.9 c 90.04,29.5 212.11,-46.1 190.62,-149.2 4.69,-135.6 -213.47,-163.5 -262.11,-45.3 -48.24,69.3 -9.76,172.6 71.49,194.5"
           style="fill:#250f15;fill-opacity:1;fill-rule:nonzero;stroke:none"
           transform="matrix(0.13333333,0,0,-0.13333333,0,2666.6667)" />
        <path
           id="path43"
           d="m 11327.7,8888.7 c 73.1,13.4 155.7,-35.2 115.9,-117.2 -71.5,-43.2 -144.6,47.8 -115.9,117.2"
           style="fill:#250f15;fill-opacity:1;fill-rule:nonzero;stroke:none"
           transform="matrix(0.13333333,0,0,-0.13333333,0,2666.6667)" />
        <path
           id="path44"
           d="m 9658.59,8346.1 c 313.87,-119.7 616.21,-312.1 806.41,-595.5 145.4,-217.6 171.1,-489.1 153,-743.8 -39.7,388.9 -209.2,772.5 -520.1,1019.8 -133.25,124.6 -301.02,202.9 -439.31,319.5"
           style="fill:#250f15;fill-opacity:1;fill-rule:nonzero;stroke:none"
           transform="matrix(0.13333333,0,0,-0.13333333,0,2666.6667)" />
        <path
           id="path46"
           d="m 4995.51,14786.7 c 171.48,68.6 348.04,128.7 532.03,152.7 -163.67,-65.4 -323.24,-139.2 -475.59,-228.5 7.62,-13.8 2.54,-29.6 4.3,-44.7 -2.54,-2.1 -7.42,-6.2 -9.77,-8.4 -60.54,-4.1 -119.92,-15.6 -179.68,-25 -19.53,8.2 -38.67,17 -57.42,26.4 46.67,61.1 116.21,99 186.13,127.5"
           style="fill:#5b2610;fill-opacity:1;fill-rule:nonzero;stroke:none"
           transform="matrix(0.13333333,0,0,-0.13333333,0,2666.6667)" />
        <path
           id="path48"
           d="m 13147.9,11276.6 c 44.9,-15.3 86.9,-50 77.1,-102.6 -5.7,-125.9 27,-268.3 -39.8,-381.8 -2,162.3 -7.1,324.2 -37.3,484.4"
           style="fill:#5b2610;fill-opacity:1;fill-rule:nonzero;stroke:none"
           transform="matrix(0.13333333,0,0,-0.13333333,0,2666.6667)" />
        <path
           id="path49"
           d="m 11942,9961.3 c 106.6,-17.9 216.4,-44.3 311.9,-98.2 -7.6,-11.7 -23,-34.8 -30.9,-46.5 -100,32.6 -193.7,87.1 -281,144.7"
           style="fill:#5b2610;fill-opacity:1;fill-rule:nonzero;stroke:none"
           transform="matrix(0.13333333,0,0,-0.13333333,0,2666.6667)" />
        <path
           id="path51"
           d="m 12610.4,15523.2 c 175.9,-271.4 246,-598.8 286.9,-916 25.7,-132.8 -66.4,-245.5 -110.8,-363.3 -91.4,-183.3 -172.4,-372 -266.6,-553.9 -772.8,447.5 -1691,653.4 -2579.08,530.5 -916.02,-104.3 -1826.17,-575.6 -2320.31,-1373.2 -139.46,-210.6 -198.83,-461 -310.16,-683.6 -33.79,52.1 -56.64,114.4 -41.21,176.9 61.33,338.9 247.85,639.7 463.67,902 374.22,438.5 878.52,754.7 1419.34,945.9 1075.55,359.2 2293.15,234.9 3286.75,-303.7 84.3,130.2 139.2,280.2 211.7,418.5 39.8,93 106.6,180.7 106.8,285.8 0.2,317.3 -77.3,626.9 -147,934.1"
           style="fill:#e69e3a;fill-opacity:1;fill-rule:nonzero;stroke:none"
           transform="matrix(0.13333333,0,0,-0.13333333,0,2666.6667)" />
        <path
           id="path52"
           d="m 8610.35,13323.8 c 655.86,500.6 1516.95,662.9 2325.35,567 495.2,-57.2 1012.7,-172.6 1411.8,-488.1 156.2,-194.5 357.6,-355 477.3,-577.1 204.5,-414.1 311.5,-879.1 319.3,-1339.9 -33.2,11.6 -66.6,23.3 -96.1,42 -16.2,437.5 -98.6,883.2 -308.9,1271.3 -209,337.9 -516.4,620.3 -885,774.2 -273.2,119 -562.3,235.2 -864.3,234.2 426.8,-119.1 837,-316.6 1167.4,-616.2 355.1,-295.7 627.6,-719.1 657.3,-1188.7 -184.6,251.4 -372.3,505.5 -611.2,708.8 -180.8,158.4 -358,328.5 -572.2,441.2 184.1,-178.3 377.1,-350.6 543.9,-546.2 -65.4,-3.6 -132.2,-3.6 -195.3,-23.7 -129.1,119.3 -242.4,254.7 -374,371.3 -269.2,230.5 -585.8,414.1 -929.3,505.1 315.2,-138.7 634.3,-289.9 884.7,-533 152.6,-129.3 284.4,-280.1 420.5,-426 -215.6,33.4 -387.1,196.9 -598.4,252.7 99,-87.7 227.5,-127.3 339.7,-194.5 -108.8,-11.3 -218,-3.5 -326.4,6.5 -162.5,13.6 -321.9,-64.7 -483.6,-33.8 -452.5,153.7 -945.71,322.8 -1423.84,183.8 -310.35,-89.9 -631.64,-144.6 -935.15,-255.1 -65.82,-6.9 -158.6,2.7 -171.1,83.6 -16.99,145.3 58.6,283 139.85,398 225.58,312.1 556.64,525.4 895.7,694.9 -407.23,-128.7 -804.1,-366 -1039.84,-731 11.32,41 23.43,81.8 33.2,123.2 -175.98,-128.3 -275.39,-332.8 -426.56,-482.8 121.09,314.5 352.54,582.8 625.19,778.3"
           style="fill:#e69e3a;fill-opacity:1;fill-rule:nonzero;stroke:none"
           transform="matrix(0.13333333,0,0,-0.13333333,0,2666.6667)" />
        <path
           id="path53"
           d="m 12661.3,13511.9 c 39.7,10.8 80.5,17.8 121.5,23.3 -44.3,-80.7 -77.9,-171.3 -139.2,-240.7 -27.2,71.5 -24.3,152.2 17.7,217.4"
           style="fill:#e69e3a;fill-opacity:1;fill-rule:nonzero;stroke:none"
           transform="matrix(0.13333333,0,0,-0.13333333,0,2666.6667)" />
        <path
           id="path54"
           d="m 12831.1,13267.6 c 115.6,-98.1 214,-220.9 288.2,-352.4 -99,110.4 -269.3,195.9 -288.2,352.4"
           style="fill:#e69e3a;fill-opacity:1;fill-rule:nonzero;stroke:none"
           transform="matrix(0.13333333,0,0,-0.13333333,0,2666.6667)" />
        <path
           id="path55"
           d="m 12917.6,12964.7 c 143.3,-115.5 253.3,-267.2 343.1,-426.8 209.8,-345.7 375.8,-719.1 471.5,-1112.7 -155.4,-1.8 -316.8,-2 -466.6,41.8 -18.5,517.4 -161.9,1018.2 -348,1497.7"
           style="fill:#e69e3a;fill-opacity:1;fill-rule:nonzero;stroke:none"
           transform="matrix(0.13333333,0,0,-0.13333333,0,2666.6667)" />
        <path
           id="path56"
           d="m 7136.13,11943.9 c -141.99,-53.5 -177.54,-278.9 -49.61,-366.2 103.91,-73.2 286.14,-36.3 322.86,95.5 61.91,154.7 -124.81,321.5 -273.25,270.7 z m -400.19,310.4 c 41.21,-100.6 73.63,-211.9 148.04,-293.2 -33.59,103.7 -79.29,207.7 -148.04,293.2 z m -36.33,72.1 c 230.27,-233.8 562.3,-313.1 876.37,-354.3 8.98,-122.9 10.15,-246.9 0.19,-369.8 -21.87,-147.2 -168.94,-231.8 -301.56,-264 -172.66,-48.1 -347.07,69.9 -427.34,217.8 -127.35,234.3 -149.42,508.3 -147.66,770.3"
           style="fill:#e69e3a;fill-opacity:1;fill-rule:nonzero;stroke:none"
           transform="matrix(0.13333333,0,0,-0.13333333,0,2666.6667)" />
        <path
           id="path57"
           d="m 13147.9,11276.6 c 30.2,-160.2 35.3,-322.1 37.3,-484.4 66.8,113.5 34.1,255.9 39.8,381.8 9.8,52.6 -32.2,87.3 -77.1,102.6 z m -328.6,28.7 c -167.7,-84.4 -27.3,-354.5 136,-275 149.6,84.9 27.1,339.8 -136,275 z m -1016.6,368.3 c -93.5,-33.4 -116.2,-178.3 -26.9,-230.4 66,-60.6 185.7,-46.5 218.5,42.4 50.4,112.1 -83.6,228.7 -191.6,188 z m -3813.83,199.6 c -59.77,-63.8 -19.34,-166 42.77,-212.1 100.98,-33.6 230.66,77.4 175.2,180.1 -30.47,89.7 -161.53,104.3 -217.97,32 z m 2835.93,57.1 c -97.3,-43.4 -85.5,-197.7 6.5,-241 84.9,-58.8 217.9,21.3 203.7,124.4 -16.4,92.4 -122.7,147.6 -210.2,116.6 z m -2047.26,72.8 c -92.38,-21.5 -117.38,-148.6 -51.76,-210.9 67.38,-76 235.94,-48.8 242.19,64.1 18.36,99.2 -102.54,180 -190.43,146.8 z m 895.9,44.2 c -93.17,-32.1 -110.74,-162.7 -39.06,-225.8 79.88,-90.6 251.17,-5.5 231.64,112.1 1.75,95.5 -112.7,139.3 -192.58,113.7 z m -1836.33,-60.8 c 632.23,144 1282.62,169 1928.52,180.7 806.87,-22.9 1607.37,-173.1 2375.77,-418.4 357.8,-133.8 713.3,-276.1 1057.4,-442.7 40.8,-23.1 91.2,-38.3 118.2,-79.3 12.9,-207.1 24,-414.5 22.6,-621.9 -761.3,521.7 -1655,819.5 -2558,979.7 -976.72,166.8 -1976.91,101.5 -2948.98,-63.3 1.36,155.1 -6.06,310.5 4.49,465.2"
           style="fill:#e69e3a;fill-opacity:1;fill-rule:nonzero;stroke:none"
           transform="matrix(0.13333333,0,0,-0.13333333,0,2666.6667)" />
        <path
           id="path58"
           d="m 9671.88,11987.9 c 81.64,64.4 179.1,-75.4 88.47,-130.9 -86.72,-35.3 -116.8,66.2 -88.47,130.9"
           style="fill:#e69e3a;fill-opacity:1;fill-rule:nonzero;stroke:none"
           transform="matrix(0.13333333,0,0,-0.13333333,0,2666.6667)" />
        <path
           id="path59"
           d="m 7705.86,11968 c 7.03,0.2 21.29,0.9 28.32,1.3 14.26,-165.4 25.39,-336.1 -1.17,-500.4 -7.81,-0.3 -23.44,-1.1 -31.25,-1.5 -9.18,166.6 -4.88,334 4.1,500.6"
           style="fill:#e69e3a;fill-opacity:1;fill-rule:nonzero;stroke:none"
           transform="matrix(0.13333333,0,0,-0.13333333,0,2666.6667)" />
        <path
           id="path60"
           d="m 8782.23,11942 c 72.07,56.4 152.34,-56.6 99.8,-120.7 -16.8,-9.4 -34.37,-16.8 -52.73,-22.3 -60.16,15.8 -109.96,98.5 -47.07,143"
           style="fill:#e69e3a;fill-opacity:1;fill-rule:nonzero;stroke:none"
           transform="matrix(0.13333333,0,0,-0.13333333,0,2666.6667)" />
        <path
           id="path61"
           d="m 8027.93,11831.6 c 18.36,21.3 43.95,34.8 71.48,38.9 16.02,-11.9 30.47,-25.6 43.75,-40.8 2.54,-22.3 2.74,-44.5 0.79,-67 -13.09,-16 -27.54,-30.7 -43.36,-43.8 -12.31,0.2 -36.72,0.8 -49.03,1 -27.34,31.5 -27.54,72.9 -23.63,111.7"
           style="fill:#e69e3a;fill-opacity:1;fill-rule:nonzero;stroke:none"
           transform="matrix(0.13333333,0,0,-0.13333333,0,2666.6667)" />
        <path
           id="path62"
           d="m 10845.5,11874.4 c 131.3,69.5 157.2,-176.3 19.3,-135.7 -41.8,32.4 -64.8,95.7 -19.3,135.7"
           style="fill:#e69e3a;fill-opacity:1;fill-rule:nonzero;stroke:none"
           transform="matrix(0.13333333,0,0,-0.13333333,0,2666.6667)" />
        <path
           id="path63"
           d="m 7192.97,11833 c 62.11,8.4 134.18,-44.3 117.58,-113.9 1.95,-97.2 -142.97,-115.8 -186.72,-41.4 -39.06,58 6.83,138.3 69.14,155.3"
           style="fill:#e69e3a;fill-opacity:1;fill-rule:nonzero;stroke:none"
           transform="matrix(0.13333333,0,0,-0.13333333,0,2666.6667)" />
        <path
           id="path64"
           d="m 11800.6,11594.1 c 108.2,90.9 199,-116.9 56.2,-131.2 -24,9 -42.9,27.1 -59.5,45.5 -2.4,28.7 -3.5,58 3.3,85.7"
           style="fill:#e69e3a;fill-opacity:1;fill-rule:nonzero;stroke:none"
           transform="matrix(0.13333333,0,0,-0.13333333,0,2666.6667)" />
        <path
           id="path65"
           d="m 7852.93,11406.6 c 905.66,161.6 1837.89,236.4 2751.77,99.5 878.9,-131.7 1750,-397.9 2503.7,-878.4 77.9,-50.9 160.4,-98.4 225.8,-166 8.8,-44.1 5.4,-89.8 5.4,-134.8 -222.8,194.4 -487.6,331.1 -749.6,464.3 -686.3,342 -1441.6,519.2 -2198.2,619.2 -878.52,115.6 -1765.04,7.8 -2635.55,-120 -23.83,70.3 32.03,113.1 96.68,116.2"
           style="fill:#e69e3a;fill-opacity:1;fill-rule:nonzero;stroke:none"
           transform="matrix(0.13333333,0,0,-0.13333333,0,2666.6667)" />
        <path
           id="path66"
           d="m 13401.4,11310.6 c 124.2,-2 248.6,-8.4 372.2,-19 12.7,-462.7 9.6,-926 35.4,-1388.5 -113.9,76.8 -240.2,135.8 -348.8,219.2 -22.7,395.9 -8.1,794.5 -58.8,1188.3"
           style="fill:#e69e3a;fill-opacity:1;fill-rule:nonzero;stroke:none"
           transform="matrix(0.13333333,0,0,-0.13333333,0,2666.6667)" />
        <path
           id="path67"
           d="m 9604.69,11276.4 c 289.45,51.5 613.91,-5.3 835.11,-209.6 285.4,-243.9 380.5,-632 413.5,-991 127.8,-1381.9 444.4,-2741 853.1,-4065.3 -837.6,408.4 -1668.5,831.1 -2490.38,1271.1 -785.36,431.5 -1600.98,817.2 -2457.04,1085.8 411.14,213.1 723.05,583.2 938.29,987.1 83.59,157.8 135.74,332 144.53,510.9 67.38,9 135.93,7.5 203.51,2 -64.26,-580.9 -395.31,-1115.3 -880.27,-1438.7 33.98,-26 74.61,-41 114.45,-56.2 905.47,-364.7 1743.95,-869.6 2609.38,-1316.4 524.83,-277 1054.13,-547.7 1599.63,-781.3 -370.7,1159.4 -618.2,2358.6 -729.1,3570.9 -34.2,317 -48.3,658.4 -239.3,928.5 -209.4,336.9 -661.31,497.7 -1035.72,366.4 -111.14,-38.8 -204.89,-111.1 -299.03,-179.5 65.24,171.7 248.24,274.3 419.34,315.3"
           style="fill:#e69e3a;fill-opacity:1;fill-rule:nonzero;stroke:none"
           transform="matrix(0.13333333,0,0,-0.13333333,0,2666.6667)" />
        <path
           id="path68"
           d="m 12858.6,11247.1 c 96.1,40 158.2,-116.8 68,-156.9 -93.4,-32.2 -161.2,110.8 -68,156.9"
           style="fill:#e69e3a;fill-opacity:1;fill-rule:nonzero;stroke:none"
           transform="matrix(0.13333333,0,0,-0.13333333,0,2666.6667)" />
        <path
           id="path69"
           d="m 7261.72,11139.7 c 120.7,7.8 153.51,-118.4 168.94,-212.5 95.12,-534 23.25,-1108.6 -253.32,-1580.7 -272.65,-491.2 -682.03,-914.9 -1180.66,-1175.6 36.13,52.1 92.97,83.8 140.04,124.6 366.99,300.8 684.57,666 909.57,1085.2 295.31,530 367.58,1173.2 215.43,1759"
           style="fill:#e69e3a;fill-opacity:1;fill-rule:nonzero;stroke:none"
           transform="matrix(0.13333333,0,0,-0.13333333,0,2666.6667)" />
        <path
           id="path70"
           d="m 10958.2,11090.2 c 34.2,-3.1 68.8,-7.6 102,-17.7 43.9,-544.6 97.4,-1088.9 151.3,-1632.7 -85.7,118.2 -154.1,257.5 -159.4,405.7 -35.5,414.7 -51.5,830.7 -93.9,1244.7"
           style="fill:#e69e3a;fill-opacity:1;fill-rule:nonzero;stroke:none"
           transform="matrix(0.13333333,0,0,-0.13333333,0,2666.6667)" />
        <path
           id="path71"
           d="m 9010.74,10482.6 c 78.32,322.1 408.01,552.2 735.74,534.2 335.52,-8 627.12,-263.3 742.02,-568.7 120.3,-375 97.6,-776 142.4,-1163.3 -33.4,65 -98.1,81 -145.7,18.3 3.1,71.1 1.1,142.2 -10.4,212.5 -23.8,254.9 -21.7,514.3 -79.5,764.9 -96.1,289.6 -341.4,574 -667.96,579.3 -345.11,9.5 -638.47,-337.1 -578.32,-675.8 48.64,-377.6 371.88,-746.3 772.86,-731.9 110.52,-8.4 213.32,36 317.72,63.7 -171,-267.6 -566.36,-251.2 -797.61,-74.8 -315.82,233.6 -506.44,649.8 -431.25,1041.6"
           style="fill:#e69e3a;fill-opacity:1;fill-rule:nonzero;stroke:none"
           transform="matrix(0.13333333,0,0,-0.13333333,0,2666.6667)" />
        <path
           id="path72"
           d="m 9593.75,10426.9 c 54.49,90.7 209.77,125.8 268.75,22.3 70.7,-131.6 72.07,-287.7 127.93,-426 -134.57,92.4 -155.08,266.6 -247.27,388.7 -150.39,-74.8 -164.64,-290.2 -86.32,-423 48.82,-105.5 166.6,-143 264.06,-189.1 -85.94,107.6 -164.85,234 -132.62,378.7 162.7,-121.3 246.32,-314.8 385.52,-457.2 35.6,194.1 -48.4,426 57.8,595.9 15.7,-234 23.3,-468.6 47.7,-701.8 -195.5,13.3 -394.34,56.1 -564.65,155.9 -186.33,150.4 -258.6,450.6 -120.9,655.6"
           style="fill:#e69e3a;fill-opacity:1;fill-rule:nonzero;stroke:none"
           transform="matrix(0.13333333,0,0,-0.13333333,0,2666.6667)" />
        <path
           id="path73"
           d="m 10009.2,10221.3 c 1.9,84.8 -9.4,182.6 44.1,254.5 52.8,-175.4 12.7,-370.3 30.9,-553.3 -81.5,77.1 -62.9,197.8 -75,298.8"
           style="fill:#e69e3a;fill-opacity:1;fill-rule:nonzero;stroke:none"
           transform="matrix(0.13333333,0,0,-0.13333333,0,2666.6667)" />
        <path
           id="path74"
           d="m 11327.7,8888.7 c -28.7,-69.4 44.4,-160.4 115.9,-117.2 39.8,82 -42.8,130.6 -115.9,117.2 z m 26.6,89.4 c 115.2,31.5 234.6,-122 168.6,-225.8 -39.9,-103.3 -196.5,-112.8 -258.8,-27.1 -77.6,88.1 -27.2,234.8 90.2,252.9"
           style="fill:#e69e3a;fill-opacity:1;fill-rule:nonzero;stroke:none"
           transform="matrix(0.13333333,0,0,-0.13333333,0,2666.6667)" />
        <path
           id="path75"
           d="m 8923.05,8769.7 c -6.64,100 157.61,103.2 159.18,0.2 -9.38,-28.3 -22.07,-56.4 -44.14,-77.1 -55.86,-16 -126.76,6.8 -115.04,76.9"
           style="fill:#e69e3a;fill-opacity:1;fill-rule:nonzero;stroke:none"
           transform="matrix(0.13333333,0,0,-0.13333333,0,2666.6667)" />
        <path
           id="path76"
           d="m 12617.2,8609.6 c 224.6,-65.3 454.5,-118.2 671.9,-204.9 89,-86.7 154.7,-195.9 235.1,-291 61.5,-64.7 2.8,-148.7 -14.2,-219.4 -110,116.4 -184.6,279.5 -324.5,369.2 -141,50 -287.1,86.7 -428.7,135.9 46.3,-1066.6 79.3,-2134 130.7,-3200.6 -39.3,21.7 -105.3,37.3 -97.5,94.4 -64.4,1105 -119.5,2210.7 -172.8,3316.4"
           style="fill:#e69e3a;fill-opacity:1;fill-rule:nonzero;stroke:none"
           transform="matrix(0.13333333,0,0,-0.13333333,0,2666.6667)" />
        <path
           id="path77"
           d="m 12887.1,8129.3 c 77.7,-43.2 155.1,-87.3 233.8,-129.5 29.9,-977.3 24.6,-1958.4 77,-2935.5 -69.4,28.7 -151.6,43.5 -206.5,95.3 -20.9,311.1 -23,623 -40.2,934.3 -11,678.8 -61.2,1356.5 -64.1,2035.4"
           style="fill:#e69e3a;fill-opacity:1;fill-rule:nonzero;stroke:none"
           transform="matrix(0.13333333,0,0,-0.13333333,0,2666.6667)" />
        <path
           id="path78"
           d="m 6065.43,5986.3 c 680.86,101 1387.11,13.1 2027.73,-236.3 159.57,-65.4 322.86,-134 454.5,-247.9 -467.58,197.7 -947.46,391.6 -1458.01,439.1 -486.92,63.3 -980.47,16.2 -1458.6,-85.1 132.82,72.6 287.11,99.2 434.38,130.2"
           style="fill:#e69e3a;fill-opacity:1;fill-rule:nonzero;stroke:none"
           transform="matrix(0.13333333,0,0,-0.13333333,0,2666.6667)" />
        <path
           id="path79"
           d="m 5640.82,5744.9 c 361.72,91 736.72,140.3 1109.77,113.1 -253.71,-160.1 -492,-351.4 -699.03,-564.4 -426.56,28.7 -862.5,42.1 -1280.66,-64.9 245.31,235 538.87,428.7 869.92,516.2"
           style="fill:#e69e3a;fill-opacity:1;fill-rule:nonzero;stroke:none"
           transform="matrix(0.13333333,0,0,-0.13333333,0,2666.6667)" />
        <path
           id="path80"
           d="m 6820.12,5816.4 c 28.9,16.8 58.79,39.3 94.14,36.1 165.62,-10.5 329.1,-40.6 493.75,-61.7 -279.88,-154.5 -508.01,-381.4 -731.45,-605.4 -168.36,28.9 -333.4,79.8 -504.68,92.7 174.41,222.9 408.98,391.2 648.24,538.3"
           style="fill:#e69e3a;fill-opacity:1;fill-rule:nonzero;stroke:none"
           transform="matrix(0.13333333,0,0,-0.13333333,0,2666.6667)" />
        <path
           id="path81"
           d="m 6792.58,5160.7 c 194.33,231.7 429.88,432.3 691.8,583.2 146.87,-3.5 285.93,-69.3 426.56,-108.2 -245.71,-169.7 -457.42,-383.7 -647.85,-612.3 -156.45,47.3 -312.89,94.8 -470.51,137.3"
           style="fill:#e69e3a;fill-opacity:1;fill-rule:nonzero;stroke:none"
           transform="matrix(0.13333333,0,0,-0.13333333,0,2666.6667)" />
        <path
           id="path82"
           d="m 7379.69,5007.8 c 199.02,213.1 398.04,435.8 648.24,589.5 163.28,-49.8 322.66,-118 472.46,-199.6 -228.91,-159 -399.22,-382.7 -577.54,-592.6 -184.96,46.5 -364.26,132.2 -543.16,202.7"
           style="fill:#e69e3a;fill-opacity:1;fill-rule:nonzero;stroke:none"
           transform="matrix(0.13333333,0,0,-0.13333333,0,2666.6667)" />
        <path
           id="path83"
           d="m 8636.91,5362.5 c 74.61,-20.9 140.63,-64.1 209.97,-97.7 -181.06,-202.9 -353.91,-413.6 -511.53,-635.3 -98.24,33 -193.94,74.4 -286.72,120.5 l -2.93,13.5 c 181.06,213.3 352.54,447 591.21,599"
           style="fill:#e69e3a;fill-opacity:1;fill-rule:nonzero;stroke:none"
           transform="matrix(0.13333333,0,0,-0.13333333,0,2666.6667)" />
        <path
           id="path84"
           d="m 5026.37,5186.5 c 561.91,88.7 1140.23,55.1 1689.84,-90.6 566.99,-127 1111.13,-335.4 1643.75,-564.5 268.75,-108.5 534.18,-229.6 786.33,-371.8 -26.17,-2.4 -50.98,0.9 -74.81,9.9 -980.46,449.4 -1994.14,879.1 -3075.19,1001.4 -272.46,11.3 -546.49,12.1 -816.8,-28.5 -46.29,10.3 -92.58,21.5 -138.47,32.8 l -14.65,11.3"
           style="fill:#e69e3a;fill-opacity:1;fill-rule:nonzero;stroke:none"
           transform="matrix(0.13333333,0,0,-0.13333333,0,2666.6667)" />
        <path
           id="path85"
           d="m 8469.73,4583.4 c 158,218 322.07,433.8 513.86,623 223.83,-101.3 433.01,-236.5 627.54,-386.1 -173.24,-177.9 -300.39,-393.7 -450,-589.1 -229.68,118.4 -468.94,222.7 -691.4,352.2"
           style="fill:#e69e3a;fill-opacity:1;fill-rule:nonzero;stroke:none"
           transform="matrix(0.13333333,0,0,-0.13333333,0,2666.6667)" />
        <path
           id="path86"
           d="m 9258.59,4085.4 c 145.12,214.2 275.2,446.6 466.21,623.8 244.73,-146.7 484,-307.8 691,-505.1 -118.5,-150.4 -223.2,-310.5 -321.5,-474.4 -280.43,113.7 -555.43,241.4 -835.71,355.7"
           style="fill:#e69e3a;fill-opacity:1;fill-rule:nonzero;stroke:none"
           transform="matrix(0.13333333,0,0,-0.13333333,0,2666.6667)" />
        <path
           id="path87"
           d="m 10529.9,4120.1 c 103.9,-83 211.5,-174.4 275.6,-292.2 -52.2,-128.7 -115.7,-253.5 -182.8,-375 -143.6,49.4 -278.4,125 -409,201.6 98.6,159.6 206.6,313.7 316.2,465.6"
           style="fill:#e69e3a;fill-opacity:1;fill-rule:nonzero;stroke:none"
           transform="matrix(0.13333333,0,0,-0.13333333,0,2666.6667)" />
        <path
           id="path88"
           d="m 6735.94,12254.3 c 68.75,-85.5 114.45,-189.5 148.04,-293.2 -74.41,81.3 -106.83,192.6 -148.04,293.2"
           style="fill:#491d11;fill-opacity:1;fill-rule:nonzero;stroke:none"
           transform="matrix(0.13333333,0,0,-0.13333333,0,2666.6667)" />
        <path
           id="path89"
           d="m 9153.32,8250.8 c 154.69,-192.6 403.91,-264.3 579.69,-432.4 93.75,-89.1 194.33,-189.9 212.5,-324.3 -111.13,150.8 -238.87,293.2 -402.35,388.9 -145.7,100.4 -334.37,185.4 -389.84,367.8"
           style="fill:#491d11;fill-opacity:1;fill-rule:nonzero;stroke:none"
           transform="matrix(0.13333333,0,0,-0.13333333,0,2666.6667)" />
        <path
           id="path90"
           d="m 5595.31,6299.8 c 404.3,179.1 828.13,342.8 1269.92,383.2 l -11.91,-17 c -415.04,-92.6 -823.24,-221.9 -1211.33,-397.1 -59.18,-27.7 -117.58,-62.3 -184.57,-65.4 26.76,53.9 87.7,71.9 137.89,96.3"
           style="fill:#491d11;fill-opacity:1;fill-rule:nonzero;stroke:none"
           transform="matrix(0.13333333,0,0,-0.13333333,0,2666.6667)" />
      </g>
    </g>
  </g>
</svg>
