<?xml version="1.0" encoding="UTF-8" standalone="no"?>
<!-- Created with Inkscape (http://www.inkscape.org/) -->

<svg
   width="85.599998mm"
   height="53.98mm"
   viewBox="0 0 85.599999 53.979999"
   version="1.1"
   id="svg5"
   inkscape:version="1.2.2 (b0a8486541, 2022-12-01)"
   sodipodi:docname="svg.svg"
   xmlns:inkscape="http://www.inkscape.org/namespaces/inkscape"
   xmlns:sodipodi="http://sodipodi.sourceforge.net/DTD/sodipodi-0.dtd"
   xmlns="http://www.w3.org/2000/svg"
   xmlns:svg="http://www.w3.org/2000/svg">
  <sodipodi:namedview
     id="namedview7"
     pagecolor="#ffffff"
     bordercolor="#000000"
     borderopacity="0.25"
     inkscape:showpageshadow="2"
     inkscape:pageopacity="0.0"
     inkscape:pagecheckerboard="0"
     inkscape:deskcolor="#d1d1d1"
     inkscape:document-units="mm"
     showgrid="false"
     inkscape:zoom="2.6476023"
     inkscape:cx="155.80134"
     inkscape:cy="129.36233"
     inkscape:window-width="1680"
     inkscape:window-height="981"
     inkscape:window-x="0"
     inkscape:window-y="32"
     inkscape:window-maximized="1"
     inkscape:current-layer="layer1" />
  <defs
     id="defs2" />
  <g
     inkscape:label="Layer 1"
     inkscape:groupmode="layer"
     id="layer1">
    <g
       inkscape:label="QR Code: https://indivisibletn.org"
       transform="matrix(0.21785926,0,0,0.21785926,13.385867,-0.74869801)"
       id="g918">
      <rect
         x="0"
         y="0"
         width="148"
         height="148"
         style="fill:#ffffff;stroke:none"
         id="rect912" />
      <g
         style="fill:#000000;stroke:none"
         id="g916">
        <path
           d="M 115.6,132 H 92.4 c -0.220914,0 -0.4,-0.17909 -0.4,-0.4 v -3.2 c 0,-0.22091 0.179086,-0.4 0.4,-0.4 h 11.2 c 0.22091,0 0.4,-0.17909 0.4,-0.4 v -3.2 c 0,-0.22091 0.17909,-0.4 0.4,-0.4 h 3.2 c 0.22091,0 0.4,0.17909 0.4,0.4 v 3.2 c 0,0.22091 0.17909,0.4 0.4,0.4 h 3.2 c 0.22091,0 0.4,-0.17909 0.4,-0.4 v -3.2 c 0,-0.22091 -0.17909,-0.4 -0.4,-0.4 h -3.2 c -0.22091,0 -0.4,-0.17909 -0.4,-0.4 v -7.2 c 0,-0.22091 -0.17909,-0.4 -0.4,-0.4 H 92.4 c -0.220914,0 -0.4,-0.17909 -0.4,-0.4 v -3.2 c 0,-0.22091 -0.179086,-0.4 -0.4,-0.4 h -3.2 c -0.220914,0 -0.4,-0.17909 -0.4,-0.4 v -3.2 c 0,-0.22091 0.179086,-0.4 0.4,-0.4 h 3.2 c 0.220914,0 0.4,-0.17909 0.4,-0.4 v -3.2 c 0,-0.22091 0.179086,-0.4 0.4,-0.4 h 3.2 c 0.220914,0 0.4,-0.17909 0.4,-0.4 v -3.2 C 96,100.17909 95.820914,100 95.6,100 H 92.4 C 92.179086,100 92,99.820914 92,99.6 V 96.4 C 92,96.179086 92.179086,96 92.4,96 h 7.2 c 0.220914,0 0.4,-0.179086 0.4,-0.4 v -3.2 c 0,-0.220914 0.17909,-0.4 0.4,-0.4 h 7.2 c 0.22091,0 0.4,-0.179086 0.4,-0.4 V 80.4 c 0,-0.220914 0.17909,-0.4 0.4,-0.4 h 3.2 c 0.22091,0 0.4,0.179086 0.4,0.4 v 3.2 c 0,0.220914 0.17909,0.4 0.4,0.4 h 3.2 c 0.22091,0 0.4,-0.179086 0.4,-0.4 v -3.2 c 0,-0.220914 -0.17909,-0.4 -0.4,-0.4 h -3.2 c -0.22091,0 -0.4,-0.179086 -0.4,-0.4 v -3.2 c 0,-0.220914 0.17909,-0.4 0.4,-0.4 h 3.2 c 0.22091,0 0.4,-0.179086 0.4,-0.4 v -3.2 c 0,-0.220914 0.17909,-0.4 0.4,-0.4 h 3.2 c 0.22091,0 0.4,0.179086 0.4,0.4 v 3.2 c 0,0.220914 0.17909,0.4 0.4,0.4 h 3.2 c 0.22091,0 0.4,0.179086 0.4,0.4 v 3.2 c 0,0.220914 -0.17909,0.4 -0.4,0.4 h -3.2 c -0.22091,0 -0.4,0.179086 -0.4,0.4 v 7.2 c 0,0.220914 -0.17909,0.4 -0.4,0.4 h -7.2 c -0.22091,0 -0.4,0.179086 -0.4,0.4 v 7.2 c 0,0.220914 0.17909,0.4 0.4,0.4 h 3.2 c 0.22091,0 0.4,0.179086 0.4,0.4 v 3.2 c 0,0.220914 0.17909,0.4 0.4,0.4 h 3.2 c 0.22091,0 0.4,-0.179086 0.4,-0.4 V 88.4 c 0,-0.220914 0.17909,-0.4 0.4,-0.4 h 3.2 c 0.22091,0 0.4,0.179086 0.4,0.4 v 3.2 c 0,0.220914 0.17909,0.4 0.4,0.4 h 3.2 c 0.22091,0 0.4,0.179086 0.4,0.4 v 7.2 c 0,0.220914 -0.17909,0.4 -0.4,0.4 h -3.2 c -0.22091,0 -0.4,0.17909 -0.4,0.4 v 7.2 c 0,0.22091 -0.17909,0.4 -0.4,0.4 h -3.2 c -0.22091,0 -0.4,-0.17909 -0.4,-0.4 v -3.2 c 0,-0.22091 -0.17909,-0.4 -0.4,-0.4 h -3.2 c -0.22091,0 -0.4,0.17909 -0.4,0.4 v 3.2 c 0,0.22091 0.17909,0.4 0.4,0.4 h 3.2 c 0.22091,0 0.4,0.17909 0.4,0.4 v 3.2 c 0,0.22091 -0.17909,0.4 -0.4,0.4 h -3.2 c -0.22091,0 -0.4,0.17909 -0.4,0.4 v 3.2 c 0,0.22091 -0.17909,0.4 -0.4,0.4 h -3.2 c -0.22091,0 -0.4,0.17909 -0.4,0.4 v 3.2 c 0,0.22091 0.17909,0.4 0.4,0.4 h 7.2 c 0.22091,0 0.4,0.17909 0.4,0.4 v 3.2 c 0,0.22091 0.17909,0.4 0.4,0.4 h 3.2 c 0.22091,0 0.4,0.17909 0.4,0.4 v 3.2 c 0,0.22091 -0.17909,0.4 -0.4,0.4 h -7.2 c -0.22091,0 -0.4,0.17909 -0.4,0.4 v 3.2 c 0,0.22091 -0.17909,0.4 -0.4,0.4 z m -32,0 h -7.2 c -0.220914,0 -0.4,-0.17909 -0.4,-0.4 v -3.2 c 0,-0.22091 0.179086,-0.4 0.4,-0.4 h 3.2 c 0.220914,0 0.4,-0.17909 0.4,-0.4 v -3.2 c 0,-0.22091 0.179086,-0.4 0.4,-0.4 h 3.2 c 0.220914,0 0.4,0.17909 0.4,0.4 v 7.2 c 0,0.22091 -0.179086,0.4 -0.4,0.4 z m -16,0 h -3.2 c -0.220914,0 -0.4,-0.17909 -0.4,-0.4 v -3.2 c 0,-0.22091 -0.179086,-0.4 -0.4,-0.4 h -3.2 c -0.220914,0 -0.4,0.17909 -0.4,0.4 v 3.2 c 0,0.22091 -0.179086,0.4 -0.4,0.4 h -3.2 c -0.220914,0 -0.4,-0.17909 -0.4,-0.4 v -3.2 c 0,-0.22091 -0.179086,-0.4 -0.4,-0.4 h -7.2 c -0.220914,0 -0.4,-0.17909 -0.4,-0.4 v -3.2 c 0,-0.22091 0.179086,-0.4 0.4,-0.4 h 3.2 c 0.220914,0 0.4,-0.17909 0.4,-0.4 v -3.2 c 0,-0.22091 0.179086,-0.4 0.4,-0.4 h 3.2 c 0.220914,0 0.4,0.17909 0.4,0.4 v 3.2 c 0,0.22091 0.179086,0.4 0.4,0.4 h 3.2 c 0.220914,0 0.4,-0.17909 0.4,-0.4 v -3.2 c 0,-0.22091 0.179086,-0.4 0.4,-0.4 h 3.2 c 0.220914,0 0.4,-0.17909 0.4,-0.4 v -3.2 c 0,-0.22091 0.179086,-0.4 0.4,-0.4 h 7.2 c 0.220914,0 0.4,0.17909 0.4,0.4 v 3.2 c 0,0.22091 -0.179086,0.4 -0.4,0.4 h -3.2 c -0.220914,0 -0.4,0.17909 -0.4,0.4 v 11.2 c 0,0.22091 -0.179086,0.4 -0.4,0.4 z m -24,0 H 16.4 c -0.220914,0 -0.4,-0.17909 -0.4,-0.4 v -27.2 c 0,-0.22091 0.179086,-0.4 0.4,-0.4 h 27.2 c 0.220914,0 0.4,0.17909 0.4,0.4 v 27.2 c 0,0.22091 -0.179086,0.4 -0.4,0.4 z m 88,-4 h -3.2 c -0.22091,0 -0.4,-0.17909 -0.4,-0.4 v -3.2 c 0,-0.22091 -0.17909,-0.4 -0.4,-0.4 h -3.2 c -0.22091,0 -0.4,-0.17909 -0.4,-0.4 v -3.2 c 0,-0.22091 -0.17909,-0.4 -0.4,-0.4 h -3.2 c -0.22091,0 -0.4,-0.17909 -0.4,-0.4 v -3.2 c 0,-0.22091 0.17909,-0.4 0.4,-0.4 h 3.2 c 0.22091,0 0.4,-0.17909 0.4,-0.4 v -7.2 c 0,-0.22091 0.17909,-0.4 0.4,-0.4 h 7.2 c 0.22091,0 0.4,0.17909 0.4,0.4 v 3.2 c 0,0.22091 -0.17909,0.4 -0.4,0.4 h -3.2 c -0.22091,0 -0.4,0.17909 -0.4,0.4 v 7.2 c 0,0.22091 0.17909,0.4 0.4,0.4 h 3.2 c 0.22091,0 0.4,0.17909 0.4,0.4 v 7.2 c 0,0.22091 -0.17909,0.4 -0.4,0.4 z m -56,0 h -3.2 c -0.220914,0 -0.4,-0.17909 -0.4,-0.4 v -7.2 c 0,-0.22091 0.179086,-0.4 0.4,-0.4 h 7.2 c 0.220914,0 0.4,0.17909 0.4,0.4 v 3.2 c 0,0.22091 -0.179086,0.4 -0.4,0.4 h -3.2 c -0.220914,0 -0.4,0.17909 -0.4,0.4 v 3.2 c 0,0.22091 -0.179086,0.4 -0.4,0.4 z M 40,127.6 V 108.4 C 40,108.17909 39.820914,108 39.6,108 H 20.4 c -0.220914,0 -0.4,0.17909 -0.4,0.4 v 19.2 c 0,0.22091 0.179086,0.4 0.4,0.4 h 19.2 c 0.220914,0 0.4,-0.17909 0.4,-0.4 z m 63.6,-3.6 h -7.2 c -0.220914,0 -0.4,-0.17909 -0.4,-0.4 v -3.2 c 0,-0.22091 0.179086,-0.4 0.4,-0.4 h 7.2 c 0.22091,0 0.4,0.17909 0.4,0.4 v 3.2 c 0,0.22091 -0.17909,0.4 -0.4,0.4 z m -12,0 h -3.2 c -0.220914,0 -0.4,-0.17909 -0.4,-0.4 v -3.2 c 0,-0.22091 -0.179086,-0.4 -0.4,-0.4 h -3.2 c -0.220914,0 -0.4,-0.17909 -0.4,-0.4 v -7.2 c 0,-0.22091 0.179086,-0.4 0.4,-0.4 h 3.2 c 0.220914,0 0.4,0.17909 0.4,0.4 v 3.2 c 0,0.22091 0.179086,0.4 0.4,0.4 h 3.2 c 0.220914,0 0.4,0.17909 0.4,0.4 v 7.2 c 0,0.22091 -0.179086,0.4 -0.4,0.4 z m -56,0 H 24.4 c -0.220914,0 -0.4,-0.17909 -0.4,-0.4 v -11.2 c 0,-0.22091 0.179086,-0.4 0.4,-0.4 h 11.2 c 0.220914,0 0.4,0.17909 0.4,0.4 v 11.2 c 0,0.22091 -0.179086,0.4 -0.4,0.4 z m 16,-4 h -3.2 c -0.220914,0 -0.4,-0.17909 -0.4,-0.4 v -11.2 c 0,-0.22091 0.179086,-0.4 0.4,-0.4 h 7.2 c 0.220914,0 0.4,-0.17909 0.4,-0.4 v -3.2 c 0,-0.22091 0.179086,-0.4 0.4,-0.4 h 3.2 c 0.220914,0 0.4,-0.17909 0.4,-0.4 V 92.4 C 60,92.179086 59.820914,92 59.6,92 H 52.4 C 52.179086,92 52,92.179086 52,92.4 v 3.2 c 0,0.220914 0.179086,0.4 0.4,0.4 h 3.2 c 0.220914,0 0.4,0.179086 0.4,0.4 v 7.2 c 0,0.22091 -0.179086,0.4 -0.4,0.4 H 48.4 C 48.179086,104 48,103.82091 48,103.6 V 96.4 C 48,96.179086 47.820914,96 47.6,96 H 44.4 C 44.179086,96 44,95.820914 44,95.6 V 92.4 C 44,92.179086 44.179086,92 44.4,92 h 3.2 C 47.820914,92 48,91.820914 48,91.6 V 80.4 C 48,80.179086 48.179086,80 48.4,80 h 19.2 c 0.220914,0 0.4,0.179086 0.4,0.4 V 91.6 C 68,91.820914 67.820914,92 67.6,92 H 64.4 C 64.179086,92 64,92.179086 64,92.4 v 3.2 c 0,0.220914 0.179086,0.4 0.4,0.4 h 7.2 c 0.220914,0 0.4,0.179086 0.4,0.4 v 3.2 c 0,0.220914 0.179086,0.4 0.4,0.4 h 7.2 c 0.220914,0 0.4,0.17909 0.4,0.4 v 3.2 c 0,0.22091 0.179086,0.4 0.4,0.4 h 3.2 c 0.220914,0 0.4,0.17909 0.4,0.4 v 7.2 c 0,0.22091 -0.179086,0.4 -0.4,0.4 h -3.2 c -0.220914,0 -0.4,0.17909 -0.4,0.4 v 3.2 c 0,0.22091 -0.179086,0.4 -0.4,0.4 h -3.2 c -0.220914,0 -0.4,-0.17909 -0.4,-0.4 v -7.2 c 0,-0.22091 -0.179086,-0.4 -0.4,-0.4 h -3.2 c -0.220914,0 -0.4,-0.17909 -0.4,-0.4 v -3.2 c 0,-0.22091 -0.179086,-0.4 -0.4,-0.4 h -3.2 c -0.220914,0 -0.4,0.17909 -0.4,0.4 v 3.2 c 0,0.22091 -0.179086,0.4 -0.4,0.4 h -7.2 c -0.220914,0 -0.4,0.17909 -0.4,0.4 v 3.2 c 0,0.22091 0.179086,0.4 0.4,0.4 h 3.2 c 0.220914,0 0.4,0.17909 0.4,0.4 v 3.2 c 0,0.22091 -0.179086,0.4 -0.4,0.4 h -7.2 c -0.220914,0 -0.4,-0.17909 -0.4,-0.4 v -3.2 c 0,-0.22091 -0.179086,-0.4 -0.4,-0.4 h -3.2 c -0.220914,0 -0.4,0.17909 -0.4,0.4 v 7.2 c 0,0.22091 -0.179086,0.4 -0.4,0.4 z m 60.4,-8.4 v -11.2 c 0,-0.22091 -0.17909,-0.4 -0.4,-0.4 h -11.2 c -0.22091,0 -0.4,0.17909 -0.4,0.4 v 11.2 c 0,0.22091 0.17909,0.4 0.4,0.4 h 11.2 c 0.22091,0 0.4,-0.17909 0.4,-0.4 z M 71.6,112 h -3.2 c -0.220914,0 -0.4,-0.17909 -0.4,-0.4 v -3.2 c 0,-0.22091 0.179086,-0.4 0.4,-0.4 h 3.2 c 0.220914,0 0.4,0.17909 0.4,0.4 v 3.2 c 0,0.22091 -0.179086,0.4 -0.4,0.4 z m 36,-4 h -3.2 c -0.22091,0 -0.4,-0.17909 -0.4,-0.4 v -3.2 c 0,-0.22091 0.17909,-0.4 0.4,-0.4 h 3.2 c 0.22091,0 0.4,0.17909 0.4,0.4 v 3.2 c 0,0.22091 -0.17909,0.4 -0.4,0.4 z m -16,-4 h -7.2 c -0.220914,0 -0.4,-0.17909 -0.4,-0.4 v -3.2 C 84,100.17909 83.820914,100 83.6,100 H 80.4 C 80.179086,100 80,99.820914 80,99.6 V 96.4 C 80,96.179086 79.820914,96 79.6,96 H 72.4 C 72.179086,96 72,95.820914 72,95.6 V 92.4 C 72,92.179086 72.179086,92 72.4,92 h 7.2 C 79.820914,92 80,91.820914 80,91.6 V 88.4 C 80,88.179086 80.179086,88 80.4,88 h 3.2 c 0.220914,0 0.4,0.179086 0.4,0.4 v 7.2 c 0,0.220914 0.179086,0.4 0.4,0.4 h 3.2 c 0.220914,0 0.4,0.179086 0.4,0.4 v 3.2 c 0,0.220914 0.179086,0.4 0.4,0.4 h 3.2 c 0.220914,0 0.4,0.17909 0.4,0.4 v 3.2 c 0,0.22091 -0.179086,0.4 -0.4,0.4 z m -48,-4 H 36.4 C 36.179086,100 36,99.820914 36,99.6 V 92.4 C 36,92.179086 35.820914,92 35.6,92 H 32.4 C 32.179086,92 32,91.820914 32,91.6 V 80.4 C 32,80.179086 32.179086,80 32.4,80 h 3.2 c 0.220914,0 0.4,0.179086 0.4,0.4 v 3.2 c 0,0.220914 0.179086,0.4 0.4,0.4 h 3.2 c 0.220914,0 0.4,0.179086 0.4,0.4 v 3.2 c 0,0.220914 0.179086,0.4 0.4,0.4 h 3.2 c 0.220914,0 0.4,0.179086 0.4,0.4 v 3.2 C 44,91.820914 43.820914,92 43.6,92 H 40.4 C 40.179086,92 40,92.179086 40,92.4 v 3.2 c 0,0.220914 0.179086,0.4 0.4,0.4 h 3.2 c 0.220914,0 0.4,0.179086 0.4,0.4 v 3.2 c 0,0.220914 -0.179086,0.4 -0.4,0.4 z m -12,0 H 16.4 C 16.179086,100 16,99.820914 16,99.6 V 76.4 C 16,76.179086 16.179086,76 16.4,76 h 3.2 c 0.220914,0 0.4,0.179086 0.4,0.4 v 11.2 c 0,0.220914 0.179086,0.4 0.4,0.4 h 3.2 c 0.220914,0 0.4,0.179086 0.4,0.4 v 7.2 c 0,0.220914 0.179086,0.4 0.4,0.4 h 7.2 c 0.220914,0 0.4,0.179086 0.4,0.4 v 3.2 c 0,0.220914 -0.179086,0.4 -0.4,0.4 z m 60,-4 H 88.4 C 88.179086,96 88,95.820914 88,95.6 V 92.4 C 88,92.179086 88.179086,92 88.4,92 h 3.2 c 0.220914,0 0.4,0.179086 0.4,0.4 v 3.2 c 0,0.220914 -0.179086,0.4 -0.4,0.4 z m 40,-4 h -3.2 c -0.22091,0 -0.4,-0.179086 -0.4,-0.4 v -3.2 c 0,-0.220914 0.17909,-0.4 0.4,-0.4 h 3.2 c 0.22091,0 0.4,0.179086 0.4,0.4 v 3.2 c 0,0.220914 -0.17909,0.4 -0.4,0.4 z m -36,0 H 92.4 C 92.179086,92 92,91.820914 92,91.6 V 88.4 C 92,88.179086 92.179086,88 92.4,88 h 3.2 c 0.220914,0 0.4,0.179086 0.4,0.4 v 3.2 c 0,0.220914 -0.179086,0.4 -0.4,0.4 z m 8,-4 h -3.2 c -0.22091,0 -0.4,-0.179086 -0.4,-0.4 v -3.2 c 0,-0.220914 0.17909,-0.4 0.4,-0.4 h 3.2 c 0.22091,0 0.4,0.179086 0.4,0.4 v 3.2 c 0,0.220914 -0.17909,0.4 -0.4,0.4 z m -16,0 H 84.4 C 84.179086,88 84,87.820914 84,87.6 V 80.4 C 84,80.179086 84.179086,80 84.4,80 H 95.6 C 95.820914,80 96,79.820914 96,79.6 V 76.4 C 96,76.179086 95.820914,76 95.6,76 H 88.4 C 88.179086,76 88,75.820914 88,75.6 V 72.4 C 88,72.179086 88.179086,72 88.4,72 h 11.2 c 0.220914,0 0.4,0.179086 0.4,0.4 v 3.2 c 0,0.220914 0.17909,0.4 0.4,0.4 h 3.2 c 0.22091,0 0.4,0.179086 0.4,0.4 v 3.2 c 0,0.220914 -0.17909,0.4 -0.4,0.4 h -3.2 c -0.22091,0 -0.4,0.179086 -0.4,0.4 v 3.2 c 0,0.220914 -0.179086,0.4 -0.4,0.4 H 88.4 C 88.179086,84 88,84.179086 88,84.4 v 3.2 c 0,0.220914 -0.179086,0.4 -0.4,0.4 z m -12,0 H 72.4 C 72.179086,88 72,87.820914 72,87.6 V 80.4 C 72,80.179086 72.179086,80 72.4,80 h 3.2 c 0.220914,0 0.4,0.179086 0.4,0.4 v 7.2 C 76,87.820914 75.820914,88 75.6,88 Z M 60,87.6 V 84.4 C 60,84.179086 59.820914,84 59.6,84 H 52.4 C 52.179086,84 52,84.179086 52,84.4 v 3.2 c 0,0.220914 0.179086,0.4 0.4,0.4 h 7.2 C 59.820914,88 60,87.820914 60,87.6 Z M 27.6,88 H 24.4 C 24.179086,88 24,87.820914 24,87.6 V 76.4 C 24,76.179086 24.179086,76 24.4,76 h 7.2 c 0.220914,0 0.4,0.179086 0.4,0.4 v 3.2 C 32,79.820914 31.820914,80 31.6,80 H 28.4 C 28.179086,80 28,80.179086 28,80.4 v 7.2 c 0,0.220914 -0.179086,0.4 -0.4,0.4 z m 100,-4 h -3.2 c -0.22091,0 -0.4,-0.179086 -0.4,-0.4 v -3.2 c 0,-0.220914 0.17909,-0.4 0.4,-0.4 h 3.2 c 0.22091,0 0.4,0.179086 0.4,0.4 v 3.2 c 0,0.220914 -0.17909,0.4 -0.4,0.4 z m -84,0 H 40.4 C 40.179086,84 40,83.820914 40,83.6 V 80.4 C 40,80.179086 40.179086,80 40.4,80 h 3.2 c 0.220914,0 0.4,0.179086 0.4,0.4 v 3.2 c 0,0.220914 -0.179086,0.4 -0.4,0.4 z m 36,-4 H 76.4 C 76.179086,80 76,79.820914 76,79.6 V 76.4 C 76,76.179086 76.179086,76 76.4,76 h 3.2 c 0.220914,0 0.4,0.179086 0.4,0.4 v 3.2 c 0,0.220914 -0.179086,0.4 -0.4,0.4 z m 52,-4 h -3.2 c -0.22091,0 -0.4,-0.179086 -0.4,-0.4 v -7.2 c 0,-0.220914 0.17909,-0.4 0.4,-0.4 h 3.2 c 0.22091,0 0.4,0.179086 0.4,0.4 v 7.2 c 0,0.220914 -0.17909,0.4 -0.4,0.4 z m -20,0 h -3.2 c -0.22091,0 -0.4,-0.179086 -0.4,-0.4 v -3.2 c 0,-0.220914 0.17909,-0.4 0.4,-0.4 h 3.2 c 0.22091,0 0.4,0.179086 0.4,0.4 v 3.2 c 0,0.220914 -0.17909,0.4 -0.4,0.4 z m -28,0 H 80.4 C 80.179086,76 80,75.820914 80,75.6 V 68.4 C 80,68.179086 80.179086,68 80.4,68 h 3.2 c 0.220914,0 0.4,0.179086 0.4,0.4 v 7.2 c 0,0.220914 -0.179086,0.4 -0.4,0.4 z m -20,0 H 52.4 C 52.179086,76 52,75.820914 52,75.6 V 72.4 C 52,72.179086 52.179086,72 52.4,72 h 7.2 C 59.820914,72 60,71.820914 60,71.6 V 68.4 C 60,68.179086 60.179086,68 60.4,68 h 7.2 C 67.820914,68 68,67.820914 68,67.6 V 56.4 C 68,56.179086 68.179086,56 68.4,56 h 3.2 C 71.820914,56 72,55.820914 72,55.6 V 52.4 C 72,52.179086 71.820914,52 71.6,52 H 68.4 C 68.179086,52 68,51.820914 68,51.6 V 48.4 C 68,48.179086 68.179086,48 68.4,48 h 3.2 C 71.820914,48 72,47.820914 72,47.6 V 40.4 C 72,40.179086 71.820914,40 71.6,40 H 68.4 C 68.179086,40 68,40.179086 68,40.4 v 3.2 C 68,43.820914 67.820914,44 67.6,44 H 64.4 C 64.179086,44 64,43.820914 64,43.6 V 40.4 C 64,40.179086 63.820914,40 63.6,40 H 60.4 C 60.179086,40 60,39.820914 60,39.6 V 36.4 C 60,36.179086 60.179086,36 60.4,36 h 3.2 C 63.820914,36 64,35.820914 64,35.6 V 32.4 C 64,32.179086 64.179086,32 64.4,32 h 3.2 C 67.820914,32 68,31.820914 68,31.6 V 28.4 C 68,28.179086 68.179086,28 68.4,28 h 3.2 c 0.220914,0 0.4,0.179086 0.4,0.4 v 7.2 c 0,0.220914 0.179086,0.4 0.4,0.4 h 7.2 c 0.220914,0 0.4,0.179086 0.4,0.4 v 3.2 C 80,39.820914 79.820914,40 79.6,40 H 76.4 C 76.179086,40 76,40.179086 76,40.4 v 11.2 c 0,0.220914 0.179086,0.4 0.4,0.4 h 3.2 C 79.820914,52 80,51.820914 80,51.6 V 40.4 C 80,40.179086 80.179086,40 80.4,40 h 3.2 c 0.220914,0 0.4,0.179086 0.4,0.4 v 3.2 c 0,0.220914 0.179086,0.4 0.4,0.4 h 3.2 C 87.820914,44 88,43.820914 88,43.6 V 40.4 C 88,40.179086 88.179086,40 88.4,40 h 3.2 c 0.220914,0 0.4,0.179086 0.4,0.4 v 7.2 C 92,47.820914 91.820914,48 91.6,48 H 84.4 C 84.179086,48 84,48.179086 84,48.4 v 3.2 c 0,0.220914 0.179086,0.4 0.4,0.4 h 7.2 c 0.220914,0 0.4,0.179086 0.4,0.4 v 3.2 c 0,0.220914 0.179086,0.4 0.4,0.4 h 15.2 c 0.22091,0 0.4,-0.179086 0.4,-0.4 v -3.2 c 0,-0.220914 0.17909,-0.4 0.4,-0.4 h 3.2 c 0.22091,0 0.4,-0.179086 0.4,-0.4 v -3.2 c 0,-0.220914 0.17909,-0.4 0.4,-0.4 h 7.2 c 0.22091,0 0.4,0.179086 0.4,0.4 v 7.2 c 0,0.220914 -0.17909,0.4 -0.4,0.4 h -7.2 c -0.22091,0 -0.4,0.179086 -0.4,0.4 v 3.2 c 0,0.220914 -0.17909,0.4 -0.4,0.4 h -11.2 c -0.22091,0 -0.4,0.179086 -0.4,0.4 v 3.2 c 0,0.220914 0.17909,0.4 0.4,0.4 h 7.2 c 0.22091,0 0.4,0.179086 0.4,0.4 v 7.2 c 0,0.220914 -0.17909,0.4 -0.4,0.4 h -3.2 C 104.17909,72 104,71.820914 104,71.6 V 68.4 C 104,68.179086 103.82091,68 103.6,68 H 96.4 C 96.179086,68 96,67.820914 96,67.6 V 64.4 C 96,64.179086 95.820914,64 95.6,64 H 92.4 C 92.179086,64 92,63.820914 92,63.6 V 60.4 C 92,60.179086 91.820914,60 91.6,60 H 88.4 C 88.179086,60 88,60.179086 88,60.4 v 3.2 C 88,63.820914 87.820914,64 87.6,64 H 80.4 C 80.179086,64 80,63.820914 80,63.6 V 60.4 C 80,60.179086 79.820914,60 79.6,60 H 76.4 C 76.179086,60 76,60.179086 76,60.4 v 3.2 c 0,0.220914 0.179086,0.4 0.4,0.4 h 3.2 c 0.220914,0 0.4,0.179086 0.4,0.4 v 3.2 C 80,67.820914 79.820914,68 79.6,68 H 76.4 C 76.179086,68 76,68.179086 76,68.4 v 3.2 C 76,71.820914 75.820914,72 75.6,72 H 64.4 C 64.179086,72 64,72.179086 64,72.4 v 3.2 c 0,0.220914 -0.179086,0.4 -0.4,0.4 z m -20,0 H 36.4 C 36.179086,76 36,75.820914 36,75.6 V 72.4 C 36,72.179086 36.179086,72 36.4,72 h 7.2 c 0.220914,0 0.4,0.179086 0.4,0.4 v 3.2 c 0,0.220914 -0.179086,0.4 -0.4,0.4 z m -20,0 H 20.4 C 20.179086,76 20,75.820914 20,75.6 V 72.4 C 20,72.179086 20.179086,72 20.4,72 h 3.2 c 0.220914,0 0.4,0.179086 0.4,0.4 v 3.2 c 0,0.220914 -0.179086,0.4 -0.4,0.4 z m 100,-4 h -3.2 c -0.22091,0 -0.4,-0.179086 -0.4,-0.4 v -3.2 c 0,-0.220914 0.17909,-0.4 0.4,-0.4 h 3.2 c 0.22091,0 0.4,0.179086 0.4,0.4 v 3.2 c 0,0.220914 -0.17909,0.4 -0.4,0.4 z m -8,0 h -3.2 c -0.22091,0 -0.4,-0.179086 -0.4,-0.4 v -3.2 c 0,-0.220914 0.17909,-0.4 0.4,-0.4 h 3.2 c 0.22091,0 0.4,0.179086 0.4,0.4 v 3.2 c 0,0.220914 -0.17909,0.4 -0.4,0.4 z m 12,-4 h -3.2 c -0.22091,0 -0.4,-0.179086 -0.4,-0.4 v -3.2 c 0,-0.220914 0.17909,-0.4 0.4,-0.4 h 3.2 c 0.22091,0 0.4,0.179086 0.4,0.4 v 3.2 c 0,0.220914 -0.17909,0.4 -0.4,0.4 z m -8,0 h -3.2 c -0.22091,0 -0.4,-0.179086 -0.4,-0.4 v -7.2 c 0,-0.220914 0.17909,-0.4 0.4,-0.4 h 3.2 c 0.22091,0 0.4,0.179086 0.4,0.4 v 7.2 c 0,0.220914 -0.17909,0.4 -0.4,0.4 z m -72,0 H 40.4 C 40.179086,68 40,67.820914 40,67.6 V 64.4 C 40,64.179086 40.179086,64 40.4,64 h 3.2 C 43.820914,64 44,63.820914 44,63.6 V 60.4 C 44,60.179086 43.820914,60 43.6,60 H 40.4 C 40.179086,60 40,60.179086 40,60.4 v 3.2 C 40,63.820914 39.820914,64 39.6,64 H 36.4 C 36.179086,64 36,63.820914 36,63.6 V 56.4 C 36,56.179086 36.179086,56 36.4,56 h 11.2 c 0.220914,0 0.4,0.179086 0.4,0.4 v 11.2 c 0,0.220914 -0.179086,0.4 -0.4,0.4 z m -12,0 H 28.4 C 28.179086,68 28,67.820914 28,67.6 V 64.4 C 28,64.179086 27.820914,64 27.6,64 H 24.4 C 24.179086,64 24,63.820914 24,63.6 V 56.4 C 24,56.179086 23.820914,56 23.6,56 H 20.4 C 20.179086,56 20,55.820914 20,55.6 V 48.4 C 20,48.179086 20.179086,48 20.4,48 h 3.2 c 0.220914,0 0.4,0.179086 0.4,0.4 v 3.2 c 0,0.220914 0.179086,0.4 0.4,0.4 h 3.2 c 0.220914,0 0.4,0.179086 0.4,0.4 v 7.2 c 0,0.220914 0.179086,0.4 0.4,0.4 h 3.2 c 0.220914,0 0.4,0.179086 0.4,0.4 v 3.2 c 0,0.220914 0.179086,0.4 0.4,0.4 h 3.2 c 0.220914,0 0.4,0.179086 0.4,0.4 v 3.2 c 0,0.220914 -0.179086,0.4 -0.4,0.4 z m -16,0 H 16.4 C 16.179086,68 16,67.820914 16,67.6 V 64.4 C 16,64.179086 16.179086,64 16.4,64 h 3.2 c 0.220914,0 0.4,0.179086 0.4,0.4 v 3.2 c 0,0.220914 -0.179086,0.4 -0.4,0.4 z m 112,-4 h -3.2 c -0.22091,0 -0.4,-0.179086 -0.4,-0.4 v -3.2 c 0,-0.220914 0.17909,-0.4 0.4,-0.4 h 3.2 c 0.22091,0 0.4,0.179086 0.4,0.4 v 3.2 c 0,0.220914 -0.17909,0.4 -0.4,0.4 z m -72,0 H 56.4 C 56.179086,64 56,63.820914 56,63.6 V 56.4 C 56,56.179086 56.179086,56 56.4,56 h 3.2 c 0.220914,0 0.4,0.179086 0.4,0.4 v 7.2 c 0,0.220914 -0.179086,0.4 -0.4,0.4 z m 64,-4 h -3.2 c -0.22091,0 -0.4,-0.179086 -0.4,-0.4 v -3.2 c 0,-0.220914 0.17909,-0.4 0.4,-0.4 h 3.2 c 0.22091,0 0.4,0.179086 0.4,0.4 v 3.2 c 0,0.220914 -0.17909,0.4 -0.4,0.4 z m 4,-4 h -3.2 c -0.22091,0 -0.4,-0.179086 -0.4,-0.4 v -7.2 c 0,-0.220914 0.17909,-0.4 0.4,-0.4 h 3.2 c 0.22091,0 0.4,0.179086 0.4,0.4 v 7.2 c 0,0.220914 -0.17909,0.4 -0.4,0.4 z m -64,0 H 60.4 C 60.179086,56 60,55.820914 60,55.6 V 52.4 C 60,52.179086 60.179086,52 60.4,52 h 3.2 c 0.220914,0 0.4,0.179086 0.4,0.4 v 3.2 c 0,0.220914 -0.179086,0.4 -0.4,0.4 z m -12,0 H 48.4 C 48.179086,56 48,55.820914 48,55.6 V 40.4 C 48,40.179086 48.179086,40 48.4,40 h 3.2 c 0.220914,0 0.4,0.179086 0.4,0.4 v 15.2 c 0,0.220914 -0.179086,0.4 -0.4,0.4 z m 56,-4 h -7.2 c -0.22091,0 -0.4,-0.179086 -0.4,-0.4 v -3.2 c 0,-0.220914 0.17909,-0.4 0.4,-0.4 h 7.2 c 0.22091,0 0.4,0.179086 0.4,0.4 v 3.2 c 0,0.220914 -0.17909,0.4 -0.4,0.4 z m -64,0 H 28.4 C 28.179086,52 28,51.820914 28,51.6 V 48.4 C 28,48.179086 28.179086,48 28.4,48 h 15.2 c 0.220914,0 0.4,0.179086 0.4,0.4 v 3.2 c 0,0.220914 -0.179086,0.4 -0.4,0.4 z m 88,-8 H 104.4 C 104.17909,44 104,43.820914 104,43.6 V 16.4 c 0,-0.220914 0.17909,-0.4 0.4,-0.4 h 27.2 c 0.22091,0 0.4,0.179086 0.4,0.4 v 27.2 c 0,0.220914 -0.17909,0.4 -0.4,0.4 z m -32,0 H 96.4 C 96.179086,44 96,43.820914 96,43.6 V 40.4 C 96,40.179086 96.179086,40 96.4,40 h 3.2 c 0.220914,0 0.4,0.179086 0.4,0.4 v 3.2 c 0,0.220914 -0.179086,0.4 -0.4,0.4 z m -40,0 H 56.4 C 56.179086,44 56,43.820914 56,43.6 V 40.4 C 56,40.179086 56.179086,40 56.4,40 h 3.2 c 0.220914,0 0.4,0.179086 0.4,0.4 v 3.2 c 0,0.220914 -0.179086,0.4 -0.4,0.4 z m -16,0 H 16.4 C 16.179086,44 16,43.820914 16,43.6 V 16.4 C 16,16.179086 16.179086,16 16.4,16 h 27.2 c 0.220914,0 0.4,0.179086 0.4,0.4 V 43.6 C 44,43.820914 43.820914,44 43.6,44 Z M 128,39.6 V 20.4 c 0,-0.220914 -0.17909,-0.4 -0.4,-0.4 h -19.2 c -0.22091,0 -0.4,0.179086 -0.4,0.4 v 19.2 c 0,0.220914 0.17909,0.4 0.4,0.4 h 19.2 c 0.22091,0 0.4,-0.179086 0.4,-0.4 z M 55.6,40 H 52.4 C 52.179086,40 52,39.820914 52,39.6 V 36.4 C 52,36.179086 52.179086,36 52.4,36 h 3.2 c 0.220914,0 0.4,0.179086 0.4,0.4 v 3.2 C 56,39.820914 55.820914,40 55.6,40 Z M 40,39.6 V 20.4 C 40,20.179086 39.820914,20 39.6,20 H 20.4 C 20.179086,20 20,20.179086 20,20.4 v 19.2 c 0,0.220914 0.179086,0.4 0.4,0.4 H 39.6 C 39.820914,40 40,39.820914 40,39.6 Z M 123.6,36 H 112.4 C 112.17909,36 112,35.820914 112,35.6 V 24.4 c 0,-0.220914 0.17909,-0.4 0.4,-0.4 h 11.2 c 0.22091,0 0.4,0.179086 0.4,0.4 v 11.2 c 0,0.220914 -0.17909,0.4 -0.4,0.4 z m -28,0 H 88.4 C 88.179086,36 88,35.820914 88,35.6 V 32.4 C 88,32.179086 88.179086,32 88.4,32 h 7.2 c 0.220914,0 0.4,0.179086 0.4,0.4 v 3.2 c 0,0.220914 -0.179086,0.4 -0.4,0.4 z m -12,0 H 80.4 C 80.179086,36 80,35.820914 80,35.6 V 32.4 C 80,32.179086 80.179086,32 80.4,32 h 3.2 c 0.220914,0 0.4,0.179086 0.4,0.4 v 3.2 c 0,0.220914 -0.179086,0.4 -0.4,0.4 z m -24,0 H 56.4 C 56.179086,36 56,35.820914 56,35.6 V 28.4 C 56,28.179086 56.179086,28 56.4,28 h 3.2 c 0.220914,0 0.4,0.179086 0.4,0.4 v 7.2 c 0,0.220914 -0.179086,0.4 -0.4,0.4 z m -8,0 H 48.4 C 48.179086,36 48,35.820914 48,35.6 V 28.4 C 48,28.179086 48.179086,28 48.4,28 h 3.2 c 0.220914,0 0.4,0.179086 0.4,0.4 v 7.2 c 0,0.220914 -0.179086,0.4 -0.4,0.4 z m -16,0 H 24.4 C 24.179086,36 24,35.820914 24,35.6 V 24.4 C 24,24.179086 24.179086,24 24.4,24 h 11.2 c 0.220914,0 0.4,0.179086 0.4,0.4 v 11.2 c 0,0.220914 -0.179086,0.4 -0.4,0.4 z m 64,-4 H 96.4 C 96.179086,32 96,31.820914 96,31.6 V 28.4 C 96,28.179086 96.179086,28 96.4,28 h 3.2 c 0.220914,0 0.4,0.179086 0.4,0.4 v 3.2 c 0,0.220914 -0.179086,0.4 -0.4,0.4 z m -12,0 H 84.4 C 84.179086,32 84,31.820914 84,31.6 V 28.4 C 84,28.179086 84.179086,28 84.4,28 h 3.2 c 0.220914,0 0.4,0.179086 0.4,0.4 v 3.2 c 0,0.220914 -0.179086,0.4 -0.4,0.4 z m 8,-4 H 88.4 C 88.179086,28 88,27.820914 88,27.6 V 24.4 C 88,24.179086 88.179086,24 88.4,24 h 3.2 C 91.820914,24 92,23.820914 92,23.6 V 16.4 C 92,16.179086 92.179086,16 92.4,16 h 7.2 c 0.220914,0 0.4,0.179086 0.4,0.4 v 3.2 c 0,0.220914 -0.179086,0.4 -0.4,0.4 H 96.4 C 96.179086,20 96,20.179086 96,20.4 v 7.2 c 0,0.220914 -0.179086,0.4 -0.4,0.4 z m -12,0 H 80.4 C 80.179086,28 80,27.820914 80,27.6 V 24.4 C 80,24.179086 79.820914,24 79.6,24 H 76.4 C 76.179086,24 76,23.820914 76,23.6 V 20.4 C 76,20.179086 76.179086,20 76.4,20 h 7.2 c 0.220914,0 0.4,0.179086 0.4,0.4 v 7.2 c 0,0.220914 -0.179086,0.4 -0.4,0.4 z m -16,0 H 60.4 C 60.179086,28 60,27.820914 60,27.6 V 24.4 C 60,24.179086 60.179086,24 60.4,24 h 7.2 c 0.220914,0 0.4,0.179086 0.4,0.4 v 3.2 c 0,0.220914 -0.179086,0.4 -0.4,0.4 z m -12,0 H 52.4 C 52.179086,28 52,27.820914 52,27.6 V 24.4 C 52,24.179086 51.820914,24 51.6,24 H 48.4 C 48.179086,24 48,23.820914 48,23.6 V 20.4 C 48,20.179086 48.179086,20 48.4,20 h 3.2 C 51.820914,20 52,19.820914 52,19.6 V 16.4 C 52,16.179086 52.179086,16 52.4,16 h 3.2 c 0.220914,0 0.4,0.179086 0.4,0.4 v 11.2 c 0,0.220914 -0.179086,0.4 -0.4,0.4 z m 32,-8 H 84.4 C 84.179086,20 84,19.820914 84,19.6 V 16.4 C 84,16.179086 84.179086,16 84.4,16 h 3.2 c 0.220914,0 0.4,0.179086 0.4,0.4 v 3.2 c 0,0.220914 -0.179086,0.4 -0.4,0.4 z m -12,0 H 72.4 C 72.179086,20 72,19.820914 72,19.6 V 16.4 C 72,16.179086 72.179086,16 72.4,16 h 3.2 c 0.220914,0 0.4,0.179086 0.4,0.4 v 3.2 c 0,0.220914 -0.179086,0.4 -0.4,0.4 z m -8,0 H 64.4 C 64.179086,20 64,19.820914 64,19.6 V 16.4 C 64,16.179086 64.179086,16 64.4,16 h 3.2 c 0.220914,0 0.4,0.179086 0.4,0.4 v 3.2 c 0,0.220914 -0.179086,0.4 -0.4,0.4 z"
           id="path914" />
      </g>
    </g>
    <path
       d="m 8.5731444,28.82484 c -0.15156,-0.43263 -0.59579,-0.45123 -0.96646,-0.29951 z m 1.8675396,-0.43361 c 0.19072,-0.0778 0.33588,-0.23246 0.52072,-0.32887 0.66059,-0.34552 1.2439,-0.48744 1.99591,-0.43753 0.17251,0.0113 1.38715,0.19332 1.4426,0.24128 0.17608,0.15122 -0.15543,0.44143 -0.23149,0.56917 -0.34815,0.58287 -0.54377,1.41974 -1.11646,1.81811 -0.27152,0.18891 -0.62657,0.29266 -0.93749,0.39641 l -0.70683,0.10962 c 0.52737,0.008 1.11607,-0.0421 1.5897,-0.29363 0.12309,-0.0656 0.3625,-0.21925 0.41164,-0.33964 1.07041,0.59559 1.95827,1.47993 2.93599,2.21501 2.65219,1.99429 5.51325,3.84764 7.54577,6.5266 0.32961,0.43458 0.86393,1.15644 1.04623,1.65514 0.0997,0.27308 0.0843,0.66558 0.32981,0.83736 0.27622,0.1938 0.96284,0.25106 1.24674,0.0577 0.30988,-0.21093 0.74785,-0.9695 0.11183,-1.04976 -0.76346,-0.0959 -0.67116,0.89462 0.0528,0.73116 -0.0924,0.38026 -0.64356,0.47178 -0.91801,0.20114 -0.466,-0.45954 -0.12436,-1.47945 0.50427,-1.56607 0.85581,-0.11794 1.46443,0.64894 1.14886,1.4496 -0.31022,0.78695 -1.35332,1.2739 -2.13504,0.88238 0.14242,1.00914 -0.17447,2.09609 -0.56144,3.02399 -0.13942,0.33425 -0.2446,0.31517 -0.12298,0.74535 0.15646,0.55351 0.69113,0.71158 0.96896,1.16525 -0.005,0.64356 -0.0611,1.26852 0.0637,1.90425 0.0768,0.39151 0.24284,0.90342 0.39293,1.27488 0.0988,0.24421 0.53858,0.97488 0.44144,1.19119 -0.10737,0.23882 -0.39191,-0.0215 -0.41604,9.7e-4 0.23203,0.43361 0.27123,0.89951 0.0216,1.3385 -0.0594,0.10473 -0.44285,0.5173 -0.53985,0.36363 -0.0434,-0.069 -0.0427,-0.43263 -0.0489,-0.53492 l -0.12631,0.42333 c -0.0539,0.11354 -0.11266,0.24715 -0.24083,0.12724 -0.18152,-0.16933 -0.30167,-0.66802 -0.35633,-0.91076 -0.19248,-0.85449 -0.38193,-1.87831 -0.62629,-2.70882 -0.36024,-1.22447 -1.74064,-1.64437 -2.66672,-2.36868 -1.52222,-1.1907 -2.32948,-2.74454 -2.68537,-4.63508 -0.0606,-0.008 -0.0276,0.069 -0.0256,0.10767 0.0512,0.95432 0.39357,2.00799 0.86623,2.83752 0.45397,0.79625 1.14177,1.35416 1.84444,1.92382 0.12871,0.10424 0.27827,0.19234 0.41535,0.28581 0.019,0.0807 -0.40933,0.72578 -0.47187,0.85938 -0.16287,0.34796 -0.27172,0.92398 -0.29393,1.30718 -0.0188,0.32447 0.0562,0.86721 -0.0161,1.15106 -0.0968,0.37978 -0.26911,-0.002 -0.41735,-0.10081 0.0473,0.26134 0.2097,0.50114 0.15841,0.77618 -0.0435,0.23296 -0.43786,0.76346 -0.66905,0.83345 -0.1849,0.0558 -0.11256,-0.15074 -0.12352,-0.27553 l -0.25718,0.22854 c -0.0546,0.0176 -0.11017,0.002 -0.14501,-0.0431 l -0.36553,-1.80196 c -0.0175,-0.60343 0.11232,-1.19903 0.21098,-1.79267 0.1039,-0.62447 0.25762,-0.66068 -0.14922,-1.23768 -0.3717,-0.52708 -0.86359,-1.02529 -1.18762,-1.58027 -0.26902,-0.46052 -0.40204,-1.01843 -0.63964,-1.4951 -0.0161,-0.0504 -0.001,-0.0529 0.0435,-0.0436 0.23981,0.0475 0.55513,0.0729 0.79077,0.0122 0.0413,-0.0103 0.15979,-0.0343 0.16532,-0.0842 -0.35217,0.0122 -0.70576,-0.0289 -1.0522,-0.0842 -2.65445,-0.42577 -4.6022,-1.80196 -6.28196,-3.83638 -0.0637,-0.0768 -0.62696,-0.79772 -0.5677,-0.84911 0.80413,-0.11305 1.78219,-0.34796 2.13343,-1.1677 -0.12871,0.10082 -0.20985,0.24128 -0.33269,0.3509 -1.09341,0.97488 -3.4100196,0.63915 -4.7844896,0.75025 -0.39098,0.0318 -0.47452,0.11011 -0.7156,0.39298 -0.2241,0.26281 -0.6369,1.09625 -0.96524,1.12513 -0.17838,0.0157 -0.20775,-0.25498 -0.20388,-0.38418 l -0.14902,0.23393 c -0.37772,0.46395 -1.30141,0.3509 -1.8026,0.16737 -0.70845,-0.25938 0.17144,-0.53001 0.40121,-0.73556 0.5308,-0.47422 1.1467,-1.01599 1.60116,-1.56656 0.14271,-0.17325 0.23971,-0.37879 0.38403,-0.55008 0.53672,-0.63671 2.06917,-1.11093 2.8433,-1.59152 0.13928,-0.0866 0.38946,-0.29756 0.45636,-0.44437 0.007,-0.0142 0.008,-0.0548 -0.0163,-0.0494 -0.15621,0.18254 -0.31106,0.29755 -0.51626,0.41745 -0.73194,0.42773 -1.58286,0.72823 -2.32655,1.1447 -0.41114,-0.0734 -1.5092,-0.56329 -1.88491,-0.45416 -0.0524,0.0152 -0.41149,0.31077 -0.47892,0.37097 -0.19733,0.17716 -0.3578,0.42724 -0.58875,0.56182 -0.34047,0.1987 -0.49175,0.15269 -0.39015,-0.27308 -0.58458,0.64356 -1.47886,0.11648 -1.88315,-0.46737 -0.13258,-0.28385 0.45705,-0.35678 0.62961,-0.43655 0.16517,-0.0768 0.321,-0.22806 0.48558,-0.31517 0.32457,-0.17129 0.69935,-0.28434 1.03576,-0.46444 0.23364,-0.12528 0.44623,-0.29902 0.68687,-0.41354 0.90695,-0.43214 1.98059,-0.32789 2.95973,-0.40669 0.13077,0.29658 0.23481,0.62252 0.45347,0.86917 -0.14726,-0.38173 -0.28811,-0.76737 -0.38349,-1.16672 -0.0809,-0.33964 -0.16869,-0.72137 -0.13199,-1.06689 -1.02783,-0.98173 -1.91638,-2.1093 -2.63217,-3.33915 -0.13953,-0.23981 -0.41511,-0.68908 -0.50442,-0.92937 -0.012,-0.0323 -0.0362,-0.11501 9.7e-4,-0.13458 0.54073,0.28189 1.09336,0.2535 1.68401,0.23295 l -0.43199,-0.15122 c -0.51656,-0.19772 -1.00233,-0.48842 -1.43202,-0.83541 -0.32345,-0.26182 -0.14501,-0.74828 -0.0185,-1.08009 0.10776,-0.28239 0.5076,-1.30572 0.93303,-0.96852 0.0854,0.0675 0.0932,0.16835 0.17041,0.22952 0.35726,0.28239 1.47108,0.52268 1.93019,0.53785 0.30797,0.01 0.64693,-0.19527 0.94982,-0.28336 0.64184,-0.18695 1.20617,-0.20065 1.84664,0.01 0.36352,-0.50603 0.8754396,-0.99837 1.4871796,-1.17749 0.41863,-0.12284 1.10819,-0.13801 1.54165,-0.0744 0.0562,0.008 0.19591,0.024 0.18837,0.10229 l -0.56085,1.27488 c -0.0672,0.07 -0.62408,0.18352 -0.76742,0.23295 -0.41344,0.14339 -0.91454,0.30196 -1.06816,0.74878"
       style="fill:#231f20;fill-opacity:1;fill-rule:nonzero;stroke:none;stroke-width:0.00489398"
       id="path162" />
    <path
       d="m 51.93889,32.622623 c -1.05196,0.0489 -2.06805,0.49625 -2.6817,1.36933 -0.51294,0.73018 -0.57142,1.36444 -0.032,2.0956 0.30396,0.41207 0.98614,0.86477 1.47064,1.03067 0.0265,0.009 0.1128,0.0201 0.0593,-0.0264 -0.66034,-0.31712 -1.74108,-1.2323 -1.75287,-2.01827 -0.008,-0.56476 0.57617,-1.30131 1.00576,-1.63116 0.44907,-0.34503 0.9995,-0.56672 1.53818,-0.7292 z m -3.93446,-0.0998 c -0.38584,-0.15514 -0.9071,-0.26134 -1.29,-0.0401 -0.0534,0.0303 -0.12001,0.0651 -0.10997,0.13948 0.22698,-0.0905 0.41877,-0.12235 0.66651,-0.0998 l -0.13297,0.28385 c 0.1637,0.0509 0.42406,-0.24714 0.52473,-0.27846 0.0603,-0.0186 0.15945,0.021 0.22742,0.024 0.0391,10e-4 0.12196,0.0308 0.11428,-0.0289 z m -4.16791,0.56623 c -0.0433,-0.48156 -0.31825,-0.95726 -0.68417,-1.26607 -0.0854,-0.0719 -0.20746,-0.16933 -0.31576,-0.20065 l 0.52767,0.58875 z m 7.60225,-1.16721 c 9.7e-4,-0.12235 -0.0783,-0.99935 -0.18323,-0.99984 -0.17525,0.25889 -0.0249,0.67586 0.10185,0.93279 0.0235,0.048 -0.008,0.0842 0.0814,0.067 z m -13.8703,10.7731 -0.0693,0.3832 c 0.0259,0.26428 0.0942,0.56868 0.18636,0.8173 0.11413,0.30783 0.33304,0.5907 0.45558,0.87895 0.0153,0.0362 0.0458,0.0333 -0.005,0.0729 -1.18146,0.16885 -2.36413,0.15367 -3.53649,-0.0666 -0.83687,-0.1571 -1.62886,-0.4527 -2.43289,-0.71844 0.23922,-0.7385 0.44403,-1.5049 0.49987,-2.285 0.003,-0.0396 0.0279,-0.18254 -0.0326,-0.18254 0.004,0.1938 -0.0393,0.38467 -0.0774,0.57308 -0.2495,1.23426 -0.6231,2.22285 -1.47284,3.16249 -0.44428,0.49135 -1.20333,0.98026 -1.49002,1.54503 -0.53521,1.05318 -0.83917,2.89918 -0.39583,4.00963 0.0538,0.13458 0.44418,0.67047 0.0899,0.64649 -0.31311,-0.0215 -0.49517,-0.1522 -0.55556,-0.46444 -0.0621,-0.007 -0.0276,0.07 -0.0235,0.10669 0.0121,0.10963 0.14369,0.47423 0.002,0.52121 -0.1547,0.0519 -0.61405,-0.0504 -0.77863,-0.1106 -0.69563,-0.25302 -0.58498,-1.05221 -0.53315,-1.65123 l -0.23349,0.34943 c -0.19772,0.20359 -0.28327,0.0255 -0.26604,-0.19919 0.0606,-0.79184 0.52508,-1.72904 0.5956,-2.57325 0.0397,-0.47569 -0.10527,-1.67373 0.12318,-2.01093 0.36886,-0.5447 0.82101,-0.56819 0.6277,-1.40751 -0.34825,-1.51223 -0.62335,-2.24829 -0.44237,-3.87749 0.11036,-0.99299 0.39137,-1.95074 0.76342,-2.87178 l -0.36617,-0.11697 c -0.17012,0.44437 -0.85982,0.64649 -1.1681,0.21631 0.39005,0.0181 0.62531,-0.10962 0.86565,-0.40228 0.009,-0.0416 -0.46782,-0.39445 -0.533,-0.47325 -0.2633,-0.31908 -0.38467,-0.91272 -0.20105,-1.29396 0.49111,-1.01893 2.28265,-0.49381 1.6478,0.78107 -0.12812,0.25743 -0.27846,0.52121 -0.57905,0.30392 -0.0171,-0.024 0.17638,-0.27896 0.20163,-0.34796 0.0444,-0.12088 0.0863,-0.32839 0.0463,-0.45025 -0.1963,-0.59559 -1.03664,-0.30587 -0.67571,0.40963 0.12719,0.25204 0.62868,0.63768 0.89339,0.70669 0.12318,0.0323 0.19028,0.0387 0.28601,-0.0489 0.16027,-0.14731 0.37952,-0.54666 0.54837,-0.74291 1.5644,-1.81468 4.12082,-2.39413 6.36099,-2.91876 0.92271,-0.21583 1.86851,-0.43557 2.80145,-0.59951 0.41457,-0.0729 1.31335,-0.25204 1.69116,-0.24568 0.32051,0.006 0.23599,0.0568 0.29805,0.27112 0.32804,1.13198 0.96249,2.28451 2.25206,2.4328 l -0.53066,-0.25253 c -1.02108,-0.60245 -1.48547,-1.86999 -1.59886,-3.00099 -0.0357,-0.3553 -0.0961,-0.96019 -0.0719,-1.30032 0.006,-0.0798 0.0274,-0.26281 0.10057,-0.29951 0.16919,-0.0847 0.77951,0.0656 0.98222,0.11941 1.03395,0.27504 1.93616,0.86966 2.60276,1.6987 l -0.166,-0.36754 c -0.1776,-0.69984 0.37072,-0.68369 0.87475,-0.54127 0.19424,0.0548 0.64086,0.29706 0.76116,0.30881 0.1105,0.0103 0.38956,-0.0891 0.53104,-0.0998 1.20955,-0.0896 2.25382,0.44584 3.4252,0.0245 0.0936,-0.0333 0.59437,-0.28581 0.6252,-0.25791 -0.0224,0.14143 -0.0724,0.28336 -0.091,0.42577 -0.005,0.0362 -0.0369,0.11501 0.0241,0.10718 0.14682,-0.70424 0.54328,-1.51909 1.40809,-1.25775 0.66828,0.20212 1.281,1.50636 1.07056,2.15286 -0.1107,0.34013 -0.36132,0.29412 -0.60225,0.39837 -0.23848,0.10326 -0.89937,0.89902 -1.05656,1.14421 -0.68369,1.06737 -0.56198,2.02953 0.2677,2.96477 l 1.01339,-0.9328 v 0.61713 c 0,0.0161 -0.0711,0.27602 -0.0842,0.31616 -0.029,0.0886 -0.1826,0.34502 -0.18289,0.38515 -6.9e-4,0.0954 0.164,0.0979 0.0575,0.42333 -0.0856,0.26183 -0.72773,0.6832 -0.98276,0.81778 -0.34179,0.18108 -0.75362,0.21778 -1.09776,0.3695 -0.37615,0.1659 -0.70801,0.52218 -1.08128,0.71941 -0.31693,0.16786 -0.72205,0.31322 -1.06302,0.42088 -0.0114,0.0685 0.0953,0.006 0.10038,0.0504 0.005,0.048 -0.0319,0.1106 -0.0339,0.1664 -0.0179,0.50946 -0.0934,0.95334 -0.2655,1.4354 -0.19071,0.53393 -0.4891,0.80457 -0.44584,1.41093 0.0574,0.80457 0.30862,1.90865 0.49337,2.70784 0.36636,1.58515 1.27654,3.26085 2.22465,4.5788 0.16316,0.22708 0.39391,0.42773 0.53369,0.66704 0.0435,0.0744 0.18895,0.38027 0.18778,0.4478 -0.002,0.13752 -0.33739,4.9e-4 -0.41805,-0.0509 -0.0885,-0.0563 -0.10042,-0.11942 -0.17588,-0.17374 0.0121,0.12039 0.15665,0.24421 0.0353,0.35188 -0.17653,0.1566 -0.98961,0.068 -1.22628,-0.0113 -0.51945,-0.17422 -0.61351,-0.59511 -0.74359,-1.07423 l -0.0493,0.43361 c -0.0336,0.0573 -0.2282,0.0925 -0.27861,0.0612 -0.0341,-0.0215 -0.27088,-0.64747 -0.30582,-0.74437 -0.21235,-0.5907 -0.35946,-1.15547 -0.63764,-1.73051 -0.62153,-1.28467 -1.71705,-2.24731 -2.59532,-3.34062 -0.2493,-0.31028 -0.45372,-0.65629 -0.6993,-0.9695 l 0.0138,-0.048 c 0.58317,-0.46493 1.17935,-0.97243 1.63464,-1.56705 0.0201,-0.0264 0.09,-0.0641 0.0339,-0.0998 -0.83824,1.00767 -2.00922,1.63508 -3.26727,1.96836 l 0.0499,-0.45025 c -0.001,-0.0396 -0.0416,0 -0.0507,0.0157 -0.12299,0.21485 -0.44579,1.51811 -0.50736,1.82741 -0.13855,0.69642 -0.27074,1.61795 -0.34214,2.32611 -0.0746,0.73948 -0.0621,1.22398 0.2169,1.91697 0.23413,0.58091 0.74585,1.1721 0.89438,1.77602 0.0596,0.24225 -0.006,0.29755 -0.25371,0.25106 -0.29833,-0.0563 -0.57861,-0.56085 -0.67458,-0.82659 -0.0605,10e-4 0.0456,0.40522 0.0595,0.44143 0.0442,0.11501 0.29652,0.44682 0.15939,0.54568 -0.0412,0.0294 -0.88086,-0.047 -1.0106,-0.0612 -0.67889,-0.15465 -0.71927,-0.76738 -0.75905,-1.35857 l -0.14844,0.33426 c -0.41031,0.80261 -0.46654,-0.62398 -0.4498,-0.88679 0.0264,-0.41403 0.19913,-0.86868 0.22791,-1.26998 0.0352,-0.49087 -0.23369,-1.1403 -0.3532,-1.63948 -0.13131,-0.54911 -0.2009,-1.16281 -0.4177,-1.68353 -0.24485,-0.58826 -0.69695,-1.15302 -0.97155,-1.73002 -0.0403,-0.0847 -0.28757,-0.67439 -0.28757,-0.71256 v -0.5173"
       style="fill:#231f20;fill-opacity:1;fill-rule:nonzero;stroke:none;stroke-width:0.00489398"
       id="path172" />
    <path
       d="m 66.365044,12.633865 c 0.175609,0.03781 0.285197,0.191628 0.393511,0.322374 0.343045,0.440297 0.667984,0.897261 1.05493,1.30167 0.11408,-0.34865 0.171764,-0.71076 0.232649,-1.071586 -0.007,0.339676 -0.09614,0.668461 -0.15959,0.999806 -0.05316,0.172403 0.129464,0.26982 0.227524,0.378133 0.271102,-0.294173 0.538356,-0.594118 0.849195,-0.846631 -0.240976,0.277511 -0.50439,0.535151 -0.747933,0.810742 0.363392,0.04614 0.830607,0.260844 1.126228,-0.05319 0.456163,-0.464655 0.633052,-1.136963 1.115007,-1.578544 0.192913,-0.191629 0.563353,-0.283919 0.740403,-0.02241 0.429885,0.606293 0.545247,1.38499 0.500387,2.114338 -0.0391,0.594116 0.161507,1.171567 0.434532,1.690701 0.299944,0.595398 0.04229,1.254887 -0.09228,1.857336 -0.184581,0.585142 -0.01031,1.206817 -0.153176,1.799014 -0.05705,0.390947 -0.214701,0.771647 -0.192913,1.170929 0.07755,0.38326 0.196759,0.767159 0.419792,1.093381 -0.03956,-0.0097 -0.119848,-0.0282 -0.159585,-0.03781 0.09742,0.179453 0.194191,0.359547 0.286481,0.542203 -0.03655,-0.01085 -0.110232,-0.03333 -0.146761,-0.04422 0.174482,0.427479 0.07562,0.958791 0.422993,1.312569 0.457605,0.468499 1.089692,0.701786 1.643434,1.033135 -0.0604,0.01218 -0.180896,0.03591 -0.241781,0.04743 0.230248,0.176249 0.465936,0.345447 0.69794,0.519773 -0.102383,-0.007 -0.203806,-0.01537 -0.305068,-0.02115 0.185865,0.165994 0.374931,0.32814 0.556467,0.499903 -0.0931,-0.01475 -0.185383,-0.03012 -0.277034,-0.04422 0.197399,0.179453 0.396237,0.358262 0.587709,0.544765 -0.03718,0.0141 -0.112155,0.0423 -0.149975,0.05704 0.148051,0.146769 0.293053,0.298021 0.435818,0.450557 -0.04869,0.0033 -0.145485,0.009 -0.194192,0.01218 0.226234,0.262769 0.451353,0.528745 0.638334,0.821638 -0.101266,-0.04422 -0.200437,-0.09036 -0.299938,-0.137797 0.245466,0.250593 0.465938,0.52362 0.672952,0.806898 -0.09358,-0.04038 -0.185226,-0.08268 -0.276871,-0.123695 0.355698,0.322374 0.499421,0.774211 0.768599,1.154267 -0.01615,0.03012 -0.04886,0.08973 -0.06489,0.119207 0.153821,0.194835 0.307637,0.390311 0.445433,0.597961 -0.131387,-0.08203 -0.258923,-0.168554 -0.385825,-0.255718 0.22111,0.2711 0.409055,0.566556 0.601804,0.857527 -0.04805,-0.0018 -0.144199,-0.0052 -0.192267,-0.007 0.266772,0.389671 0.61142,0.815231 0.627445,1.295907 0.09613,0.17753 0.212778,0.342241 0.323016,0.512082 -0.09149,-0.05704 -0.181861,-0.114723 -0.272222,-0.171122 0.189542,0.282639 0.365308,0.574248 0.531784,0.871629 -0.07435,-0.04166 -0.149329,-0.08268 -0.223033,-0.122412 0.183297,0.359547 0.344967,0.73191 0.556944,1.076075 0.132665,0.209574 0.343683,0.427483 0.614627,0.399282 0.37941,-0.04422 0.693456,-0.28969 0.97609,-0.527464 0.0122,0.03269 0.03591,0.09742 0.04742,0.130105 0.323653,-0.225599 0.705631,-0.371084 0.961355,-0.685767 -0.02818,0.103184 -0.05702,0.205731 -0.08202,0.310196 0.258925,-0.209575 0.484515,-0.455041 0.704996,-0.703711 0.0044,0.04037 0.01151,0.121771 0.0148,0.162148 0.169831,-0.182658 0.334706,-0.370442 0.514001,-0.544126 -0.05965,0.153175 -0.123053,0.304431 -0.181213,0.458247 0.23184,-0.260208 0.453757,-0.529385 0.683043,-0.792157 0.0066,0.04037 0.01919,0.120491 0.02566,0.160868 0.235854,-0.23906 0.454558,-0.49542 0.628721,-0.783826 -0.01415,0.11216 -0.02884,0.224956 -0.04167,0.338396 0.209735,-0.262768 0.385827,-0.549254 0.542204,-0.84599 -0.0148,0.130745 -0.0295,0.261488 -0.04233,0.392874 0.120498,-0.172402 0.236654,-0.347371 0.351867,-0.522977 0.01469,0.03204 0.04551,0.09613 0.06086,0.128178 0.123053,-0.244182 0.260208,-0.481317 0.409534,-0.711401 -0.01414,0.132667 -0.0295,0.265976 -0.04298,0.399282 0.148691,-0.244182 0.282632,-0.497338 0.396716,-0.759467 0.02566,0.03077 0.05121,0.06153 0.07818,0.09293 0.107022,-0.238415 0.223025,-0.472346 0.337108,-0.707557 0.01151,0.09998 0.02369,0.200602 0.03652,0.301864 0.145488,-0.30058 0.282007,-0.606292 0.384555,-0.924823 0.01853,0.11152 0.03849,0.223037 0.05954,0.334553 0.11279,-0.356342 0.174963,-0.726143 0.18458,-1.099148 0.04737,0.08908 0.09551,0.178173 0.146124,0.267256 0.0099,-0.310196 -0.0055,-0.619751 -0.04551,-0.926746 0.06283,0.06409 0.126266,0.129462 0.189712,0.194195 -0.146772,-0.358906 -0.15061,-0.781901 -0.424283,-1.080562 0.01173,-0.02948 0.03597,-0.08908 0.04737,-0.118567 -0.222224,-0.188425 -0.481313,-0.321735 -0.743287,-0.445426 -0.164864,-0.208294 -0.418021,-0.308276 -0.648754,-0.422999 0.03268,-0.01923 0.09693,-0.05768 0.129468,-0.07691 -0.132506,-0.104467 -0.262774,-0.211497 -0.393997,-0.315963 0.03125,-0.007 0.09342,-0.01986 0.124819,-0.0269 -0.05702,-0.114724 -0.111353,-0.230088 -0.171125,-0.342884 0.04057,-0.152536 0.08783,-0.303789 0.144205,-0.451197 -0.0295,-0.05256 -0.05899,-0.105114 -0.08783,-0.15702 0.1245,-0.01537 0.248683,-0.03077 0.373655,-0.04614 -0.06217,-0.06858 -0.124171,-0.136513 -0.185709,-0.204447 0.192277,0.02241 0.385027,0.04422 0.57794,0.06666 -0.04551,-0.07435 -0.09101,-0.148049 -0.135225,-0.222393 0.30714,0.07883 0.610782,0.171119 0.905586,0.287766 -0.03334,-0.0814 -0.06535,-0.162791 -0.0966,-0.243546 0.302348,0.153176 0.591395,0.33263 0.853521,0.548614 -0.06711,-0.131387 -0.135224,-0.262129 -0.195951,-0.395438 0.264529,0.173045 0.495262,0.390311 0.724065,0.60822 -0.03575,-0.119851 -0.07226,-0.239059 -0.108996,-0.357626 0.227521,0.263412 0.467223,0.516568 0.663492,0.804974 -0.0033,-0.111516 -0.0033,-0.221752 -0.0033,-0.331988 0.203177,0.242901 0.344817,0.527463 0.455687,0.822921 0.02687,-0.09742 0.05187,-0.196116 0.08224,-0.292253 0.08191,0.221752 0.133153,0.453119 0.178012,0.684484 0.02621,-0.153817 0.05516,-0.306992 0.08718,-0.460168 0.119851,0.445429 0.235207,0.894061 0.266611,1.355509 0.04309,-0.15574 0.08728,-0.311479 0.137155,-0.465295 0.05318,0.394794 -0.0033,0.789592 -0.05647,1.181183 0.06667,-0.06858 0.133952,-0.137153 0.202683,-0.20509 -0.06875,0.298021 -0.145006,0.595402 -0.257642,0.880603 0.09211,-0.09485 0.185063,-0.189068 0.283126,-0.278155 -0.06283,0.253158 -0.164075,0.493496 -0.27624,0.728707 0.126903,-0.126255 0.255724,-0.249949 0.389194,-0.368517 -0.127056,0.394154 -0.34497,0.747293 -0.596044,1.073511 0.128031,-0.0846 0.254287,-0.172402 0.382625,-0.256361 -0.169996,0.326862 -0.376857,0.633213 -0.616703,0.913288 0.15061,-0.08331 0.301372,-0.166635 0.454394,-0.244186 -0.169843,0.219188 -0.351857,0.428766 -0.542204,0.630009 0.04551,0.0033 0.136508,0.009 0.182014,0.01218 -0.198035,0.220472 -0.414019,0.424279 -0.628085,0.628726 0.173691,-0.05704 0.346089,-0.120488 0.518015,-0.183937 -0.264211,0.288406 -0.55839,0.54733 -0.889094,0.756904 0.171915,-0.05576 0.343041,-0.11408 0.51592,-0.167915 -0.284397,0.284559 -0.616549,0.512723 -0.961355,0.717809 0.172409,-0.04037 0.346254,-0.07563 0.521699,-0.09998 -0.236972,0.174322 -0.497334,0.311476 -0.75434,0.453757 0.102526,0.0025 0.206368,0.0052 0.310199,0.0077 -0.199328,0.147409 -0.406332,0.284562 -0.615748,0.417229 0.119686,-0.01031 0.239538,-0.02115 0.360025,-0.02947 -0.25444,0.15638 -0.519604,0.292894 -0.779977,0.439018 0.124972,0.0077 0.251238,0.0128 0.377647,0.01794 -0.13347,0.07114 -0.266776,0.142283 -0.399435,0.215343 0.05143,0.01031 0.153811,0.03143 0.205085,0.04166 -0.216632,0.06729 -0.432605,0.135874 -0.649708,0.199323 0.134424,0.01085 0.269649,0.02181 0.404885,0.03525 -0.370279,0.234571 -0.776776,0.401206 -1.185038,0.555022 0.220481,0.02181 0.442233,0.04102 0.663339,0.06409 -0.308917,0.08845 -0.601801,0.220472 -0.907516,0.316607 0.132659,0.01475 0.266612,0.03077 0.400565,0.04807 -0.406815,0.163431 -0.820998,0.306352 -1.23743,0.441581 0.158143,0.01537 0.31725,0.03012 0.476028,0.05064 -0.217892,0.091 -0.443494,0.162787 -0.668294,0.233288 0.153021,0.01345 0.306196,0.0269 0.460007,0.03909 -0.345452,0.08525 -0.684479,0.192911 -1.031851,0.267255 0.204449,0.02756 0.41017,0.05256 0.611418,0.100619 -0.350574,0.08268 -0.702902,0.159583 -1.059408,0.210857 0.156542,0.04229 0.312754,0.08716 0.467859,0.13587 -0.305549,0.08076 -0.616549,0.144205 -0.927384,0.203167 0.160862,0.0282 0.321735,0.05511 0.482596,0.08396 -0.282643,0.0814 -0.570407,0.144201 -0.863302,0.176249 0.198045,0.06986 0.397362,0.139073 0.595408,0.211497 -0.340321,0.01859 -0.679206,0.04359 -1.019516,0.06024 0.156213,0.114723 0.311318,0.230083 0.458725,0.356343 -0.296733,0.01153 -0.592195,-0.02946 -0.884444,-0.07498 0.133942,0.178169 0.267248,0.357622 0.399918,0.538358 -0.206368,-0.122414 -0.413383,-0.242902 -0.614455,-0.371724 0.126727,0.165994 0.255712,0.331989 0.380531,0.500543 -0.198046,-0.08588 -0.392242,-0.182016 -0.572809,-0.299301 0.09979,0.168559 0.191467,0.341601 0.280714,0.51721 -0.143723,-0.103831 -0.284727,-0.210218 -0.423,-0.31981 0.07095,0.160867 0.138273,0.323654 0.202366,0.488369 -0.178813,-0.114084 -0.354258,-0.231368 -0.528103,-0.351215 0.09117,0.137792 0.181531,0.276869 0.27046,0.416583 -0.08849,-0.05704 -0.176247,-0.11408 -0.263889,-0.171117 0.09085,0.214702 0.183141,0.429402 0.261971,0.649875 -0.134589,-0.101265 -0.262772,-0.209578 -0.386467,-0.322374 0.107669,0.269176 0.203807,0.542843 0.313404,0.811382 -0.107033,-0.106397 -0.212782,-0.214704 -0.320452,-0.31981 0.04102,0.167914 0.08716,0.335193 0.134588,0.502466 -0.03974,-0.0128 -0.117924,-0.03781 -0.157021,-0.04999 0.04631,0.187144 0.09678,0.374289 0.151253,0.560149 -0.07034,-0.0705 -0.141481,-0.140997 -0.212779,-0.208934 0.02888,0.202523 0.06409,0.404409 0.09678,0.606932 -0.07883,-0.08331 -0.157022,-0.167914 -0.236978,-0.248026 0.02696,0.209574 0.06393,0.419148 0.09613,0.629366 -0.04039,-0.04166 -0.07963,-0.08203 -0.118721,-0.122415 0.0041,0.132026 0.0072,0.264696 0.0083,0.398002 -0.102548,-0.106386 -0.198682,-0.216625 -0.29225,-0.329425 0.03155,0.227524 0.0455,0.457608 0.05514,0.687692 -0.03847,-0.02564 -0.116003,-0.07755 -0.1551,-0.103831 0.0066,0.116648 0.01156,0.233291 0.01621,0.351215 -0.09373,-0.09485 -0.183459,-0.190988 -0.272548,-0.288406 0.05961,0.237775 0.10575,0.478755 0.151259,0.719736 -0.125618,-0.117927 -0.24739,-0.239058 -0.3666,-0.361469 5.82e-4,0.152536 0.0035,0.305708 0.0077,0.459527 -0.04741,-0.01345 -0.09421,-0.02564 -0.140359,-0.03717 -0.113922,0.07435 -0.248028,0.07626 -0.378777,0.07114 0.08652,0.07113 0.172565,0.143561 0.258923,0.216625 -0.136506,-0.02756 -0.273019,-0.05511 -0.409374,-0.07819 0.09085,0.106386 0.185063,0.210858 0.28264,0.312118 -0.137313,-0.0269 -0.274953,-0.05127 -0.4129,-0.06921 0.0737,0.0814 0.150608,0.162787 0.226879,0.243543 -0.158144,0.0077 -0.315806,0.02115 -0.472985,0.03461 0.06024,0.07819 0.121765,0.15638 0.183296,0.235851 -0.142282,-0.007 -0.284563,-0.01537 -0.4262,-0.02307 0.07899,0.07883 0.158301,0.15766 0.237774,0.237774 -0.133305,0.0025 -0.265332,0.0052 -0.397359,0.0097 0.136669,0.132026 0.278951,0.257644 0.42107,0.383902 -0.167115,-0.03591 -0.333905,-0.07178 -0.499741,-0.107668 0.140835,0.12049 0.283757,0.238433 0.419629,0.365985 -0.17368,-0.01215 -0.345444,-0.0333 -0.517207,-0.05445 0.170479,0.173061 0.344805,0.342244 0.506313,0.523556 -0.158307,-0.0192 -0.315323,-0.04363 -0.472346,-0.06978 0.175127,0.165354 0.346246,0.33452 0.521693,0.499136 -0.108152,-0.0095 -0.216624,-0.01848 -0.32365,-0.0269 0.101266,0.12443 0.207647,0.245528 0.313557,0.367957 -0.04951,0.0089 -0.14757,0.02817 -0.196916,0.03775 0.136512,0.133996 0.27815,0.264113 0.412739,0.401877 -0.09165,-0.01986 -0.182013,-0.03851 -0.27238,-0.05827 0.07051,0.08843 0.139714,0.176872 0.207648,0.268568 -0.08908,-0.02885 -0.176243,-0.0584 -0.262607,-0.08788 0.07499,0.103217 0.147249,0.209606 0.216467,0.318576 -0.03718,-0.01154 -0.112638,-0.03341 -0.149975,-0.04419 0.130749,0.337034 0.0064,0.690219 -0.171763,0.983705 -0.38518,0.64478 -0.555659,1.386256 -0.893416,2.054143 -0.5249,1.004293 -1.293982,1.862365 -2.148306,2.597592 -0.514645,0.349935 -1.214509,0.588335 -1.818237,0.331909 -0.313406,0.121099 -0.676152,0.180751 -0.984428,0.01154 -0.200605,-0.117863 -0.514006,-0.09866 -0.61142,-0.346681 -0.134589,-0.310872 -0.0018,-0.658174 0.199316,-0.906222 0.180095,-0.229505 0.371729,-0.531373 0.698585,-0.535185 0.268057,-0.03392 0.591074,0.07761 0.808342,-0.132683 0.292727,-0.267256 0.522977,-0.593413 0.779175,-0.894077 0.347529,-0.421664 0.696658,-0.894632 0.71332,-1.465068 -0.679191,0.913284 -1.458691,1.768874 -2.429656,2.377795 -0.337118,0.189018 -0.619113,0.516599 -1.024002,0.550455 -0.530187,0.04169 -1.062779,0.180126 -1.594727,0.07886 -0.272385,-0.05388 -0.555665,-0.0058 -0.825483,-0.0743 -0.380055,-0.09939 -0.537077,-0.591585 -0.392872,-0.929371 0.179456,-0.302475 0.500542,-0.487681 0.779976,-0.688971 0.343526,-0.223004 0.747933,0.04676 1.113886,-0.04362 0.354427,-0.183264 0.600533,-0.512593 0.893423,-0.774851 0.403766,-0.40569 0.916488,-0.833733 0.890214,-1.464368 -0.03079,0.01464 -0.09229,0.04481 -0.123695,0.0596 -0.009,-0.255114 -0.05578,-0.505657 -0.119209,-0.751748 -0.03893,0.0858 -0.07626,0.17362 -0.113917,0.260736 -0.05142,-0.233208 -0.123055,-0.460714 -0.213422,-0.681841 -0.02004,0.04481 -0.06104,0.133325 -0.08091,0.177512 -0.123695,-0.303177 -0.312121,-0.571059 -0.464014,-0.859464 -0.0122,0.05576 -0.03584,0.167915 -0.04805,0.223625 -0.10575,-0.251859 -0.207653,-0.505656 -0.319169,-0.754247 -0.01987,0.09745 -0.0391,0.196087 -0.05642,0.295472 -0.0769,-0.263426 -0.16471,-0.524304 -0.241621,-0.787108 -0.04039,0.04876 -0.07995,0.09877 -0.119848,0.149332 -0.06729,-0.25955 -0.133944,-0.5191 -0.200442,-0.778666 -0.03666,0.09165 -0.07066,0.185861 -0.103831,0.280075 -0.07001,-0.308275 -0.129622,-0.61847 -0.184099,-0.929311 -0.03847,0.113441 -0.07738,0.226241 -0.116641,0.340321 -0.0545,-0.286482 -0.09613,-0.574887 -0.139074,-0.862653 -0.04933,0.07114 -0.09742,0.144201 -0.145483,0.216625 -0.01458,-0.262772 -0.01923,-0.526181 -0.02696,-0.788952 -0.06024,0.109598 -0.117919,0.221112 -0.174325,0.333269 -0.0058,-0.215986 -0.01714,-0.431327 -0.03202,-0.645389 -0.03202,0.0141 -0.09613,0.04358 -0.128175,0.05769 0.0077,-0.425559 -0.13187,-0.847915 0.04805,-1.260015 -0.08331,0.07947 -0.165354,0.160227 -0.248029,0.240339 0.06666,-0.295456 0.148854,-0.58771 0.249313,-0.873551 -0.0697,0.03909 -0.139714,0.07819 -0.208937,0.117927 0.05514,-0.17561 0.116008,-0.349936 0.174971,-0.524261 -0.04166,0.01218 -0.125618,0.03653 -0.167917,0.04872 0.07178,-0.137794 0.142282,-0.275587 0.211017,-0.414024 -0.06938,0.03461 -0.137953,0.06986 -0.20573,0.105114 0.08315,-0.329426 0.138917,-0.664619 0.17737,-1.002371 -0.0955,0.105103 -0.191628,0.208934 -0.28905,0.312759 0.03526,-0.175606 0.07114,-0.349935 0.104467,-0.525541 -0.08525,0.08908 -0.169201,0.179454 -0.253799,0.26918 0.01604,-0.213421 0.03417,-0.4262 0.05323,-0.638981 -0.09165,0.102548 -0.183297,0.20509 -0.27751,0.305712 0.01348,-0.171121 0.03655,-0.33968 0.0577,-0.509518 -0.06458,0.09805 -0.130104,0.196115 -0.196759,0.292893 0.0041,-0.220473 0.01086,-0.440301 0.01031,-0.66013 -0.100618,0.101901 -0.198681,0.207653 -0.299943,0.309555 -0.009,-0.276231 -0.0122,-0.553097 -0.0046,-0.828688 -0.112155,0.132669 -0.228162,0.262771 -0.348005,0.38903 0.04039,-0.217269 0.08075,-0.435174 0.113439,-0.653078 -0.08525,0.09165 -0.168562,0.18522 -0.253158,0.27751 0.0205,-0.180098 0.04486,-0.358906 0.06666,-0.53836 -0.08396,0.104467 -0.165999,0.210215 -0.251236,0.3134 0.009,-0.226877 0.02242,-0.453757 0.01534,-0.681277 -0.09293,0.102537 -0.181856,0.20829 -0.271102,0.314039 0.01086,-0.349931 -0.02371,-0.698582 -0.08524,-1.042106 -0.07883,0.129463 -0.157661,0.258925 -0.24162,0.385823 -0.04229,-0.26854 -0.06409,-0.540922 -0.05497,-0.812666 -0.07642,0.133951 -0.158459,0.264053 -0.243701,0.392234 -0.0058,-0.236494 -0.0012,-0.472345 -0.0083,-0.708196 -0.08523,0.09613 -0.16791,0.195475 -0.249788,0.294812 0.03126,-0.201882 0.05624,-0.405048 0.07738,-0.607575 -0.04613,0.03077 -0.137791,0.09358 -0.183936,0.124338 0.0577,-0.312123 0.05386,-0.635777 -0.05578,-0.93636 -0.03144,0.139717 -0.06089,0.280074 -0.08908,0.420431 -0.06793,-0.219829 -0.126897,-0.442222 -0.194679,-0.66141 -0.02307,0.09036 -0.04631,0.180733 -0.06873,0.271742 -0.06538,-0.219828 -0.122411,-0.442224 -0.186981,-0.661413 -0.03155,0.114084 -0.06297,0.228163 -0.09421,0.342884 -0.06618,-0.258285 -0.116803,-0.519774 -0.152694,-0.783822 -0.05688,0.110876 -0.114724,0.221749 -0.172245,0.331985 -0.0046,-0.198039 -0.01487,-0.396079 -0.03155,-0.593474 -0.03974,0.02241 -0.11921,0.06858 -0.158784,0.091 -0.0029,-0.208295 -0.01231,-0.415945 -0.03283,-0.622318 -0.0506,0.07306 -0.09933,0.148052 -0.148686,0.222396 -0.03012,-0.281358 -0.07371,-0.562074 -0.145485,-0.835739 -0.04743,0.09101 -0.09422,0.183299 -0.141641,0.274946 -0.03204,-0.223672 -0.06409,-0.446709 -0.105114,-0.667818 -0.04807,0.07243 -0.09533,0.145485 -0.142281,0.218545 -0.03717,-0.244822 -0.07371,-0.489648 -0.11456,-0.733191 -0.06105,0.0673 -0.120651,0.135231 -0.180253,0.203168 0.01154,-0.200604 0.02307,-0.401206 0.0269,-0.601809 -0.06409,0.02498 -0.12754,0.05127 -0.190829,0.07755 0.0025,-0.216626 -0.0041,-0.432607 -0.02452,-0.647952 -0.06216,0.06729 -0.122412,0.135873 -0.183297,0.20509 0.0025,-0.154459 0.0038,-0.308915 0.0033,-0.462732 -0.05896,0.02181 -0.117288,0.04422 -0.175611,0.0673 -0.007,-0.165996 -0.02115,-0.331346 -0.03894,-0.496061 -0.03926,0.04102 -0.07835,0.08331 -0.117286,0.125619 -0.04694,-0.381336 -0.268055,-0.781262 -0.645547,-0.917132 0.009,-0.02947 0.0269,-0.08781 0.03652,-0.117286 -0.09485,0 -0.188904,6.97e-4 -0.282637,0.0025 0.01085,-0.03653 0.03269,-0.108952 0.04358,-0.144845 -0.101265,-0.01475 -0.201723,-0.0282 -0.303144,-0.04166 0.03846,-0.04294 0.07626,-0.08588 0.11488,-0.128822 -0.0931,-0.0141 -0.184581,-0.02756 -0.277031,-0.04037 -0.007,-0.03334 -0.02115,-0.09998 -0.0282,-0.132669 -0.04422,-0.01345 -0.13267,-0.03974 -0.176889,-0.05319 -0.11152,-0.105114 -0.242262,-0.187145 -0.380056,-0.253798 -0.0029,-0.0141 -0.0097,-0.04294 -0.01346,-0.05704 -0.36019,-0.280074 -0.580658,-0.688971 -0.804335,-1.077358 -0.419151,-0.81651 -1.775137,0.128179 -2.071238,-0.854322 -0.560948,-0.05961 -0.803211,-0.699226 -0.662854,-1.187595 -0.02354,-0.348012 0.200604,-0.665897 0.502471,-0.820353 0.437734,-0.190993 0.927387,-0.124979 1.386271,-0.06922 -0.09485,-0.492213 -0.206852,-0.980581 -0.314044,-1.469589 -0.01971,0.0077 -0.0596,0.02242 -0.08011,0.02947 0.08268,-0.487085 -0.09742,-0.956867 -0.24867,-1.409983 -0.145485,-0.411461 -0.11216,-0.87868 -0.360028,-1.252968 -0.218707,-0.40505 -0.681438,-0.713325 -0.659008,-1.217712 -0.0082,-0.259568 0.263412,-0.339681 0.456323,-0.419152 -0.01986,-0.352495 -0.123694,-0.764599 0.135231,-1.057488 0.110235,-0.153177 0.310194,-0.158304 0.478915,-0.187145 0.122253,-0.314043 0.476671,-0.270463 0.749055,-0.335832 0.315323,-0.03077 0.504391,0.27046 0.649875,0.503107 0.193552,0.03012 0.425718,0.04999 0.537715,0.237774 0.271743,0.401206 0.160227,0.905598 0.09678,1.351666 0.156538,0.108952 0.344164,0.22816 0.362269,0.439658 0.07163,0.323014 -0.21486,0.614626 -0.100782,0.935717 0.14116,0.621035 0.273826,1.24912 0.510798,1.842598 0.168557,0.431326 0.464014,0.792156 0.73784,1.15939 0.66638,-0.10382 1.128471,-0.674229 1.679645,-1.017753 0.244186,-0.174966 0.566078,-0.260205 0.726778,-0.532588 0.01476,-0.01218 0.04421,-0.03654 0.05897,-0.04872 0.03218,-0.06729 0.06601,-0.13459 0.09998,-0.201243 -0.278794,-0.268536 -0.628086,-0.511441 -0.719095,-0.912003 -0.05191,-0.305071 -0.269657,-0.530028 -0.437095,-0.775494 -0.688168,0.324937 -1.252963,0.840866 -1.782991,1.376019 0.378772,-0.471704 0.821637,-0.902389 1.349741,-1.202974 0.181536,-0.109599 0.436454,-0.170481 0.452636,-0.423635 -0.808338,0.03653 -1.596647,0.296096 -2.310612,0.667178 0.66205,-0.464016 1.473433,-0.645388 2.262544,-0.749214 0.0049,-0.09101 0.0094,-0.182017 0.01457,-0.272387 -0.704994,-0.180093 -1.431619,-0.211497 -2.155997,-0.214702 0.733831,-0.05832 1.480004,-0.03461 2.189481,0.176251 0.0274,-0.06666 0.05496,-0.133951 0.08316,-0.199964 -0.60886,-0.444785 -1.277961,-0.805614 -2.000098,-1.027367 0.54076,0.125618 1.061817,0.338396 1.527751,0.640905 0.190988,0.119847 0.369801,0.269178 0.592997,0.327501 0.05047,-0.189708 0.01923,-0.443506 0.206208,-0.564637 0.29802,-0.226236 0.792795,-0.306992 0.867783,-0.735115 0.06473,-0.353138 0.3025,-0.637056 0.572968,-0.858168 -0.20573,-0.196756 -0.440942,-0.356344 -0.685612,-0.499264 0.305557,0.09998 0.536439,0.330065 0.804177,0.497339 -0.164715,-0.531308 -0.578093,-0.923539 -1.003016,-1.256808 0.471062,0.258285 0.817952,0.682561 1.042107,1.164518 0.03144,-0.01986 0.0955,-0.05896 0.126902,-0.07818 0.04294,-0.718452 -0.148691,-1.436905 -0.49798,-2.061782 0.415306,0.587065 0.570405,1.318977 0.534509,2.029737 0.237297,-0.112799 0.510159,-0.168558 0.720375,-0.330065 0.165999,-0.692175 -0.244182,-1.356793 -0.16407,-2.048325 z"
       style="fill:#000000;fill-opacity:1;fill-rule:nonzero;stroke:none;stroke-width:0.00160226"
       id="path710" />
  </g>
</svg>
