<?xml version="1.0" encoding="UTF-8" standalone="no"?>
<!-- Generator: Adobe Illustrator 9.0, SVG Export Plug-In  -->
<svg
   xmlns:dc="http://purl.org/dc/elements/1.1/"
   xmlns:cc="http://web.resource.org/cc/"
   xmlns:rdf="http://www.w3.org/1999/02/22-rdf-syntax-ns#"
   xmlns:svg="http://www.w3.org/2000/svg"
   xmlns="http://www.w3.org/2000/svg"
   xmlns:xlink="http://www.w3.org/1999/xlink"
   xmlns:sodipodi="http://sodipodi.sourceforge.net/DTD/sodipodi-0.dtd"
   xmlns:inkscape="http://www.inkscape.org/namespaces/inkscape"
   sodipodi:docbase="/home/jimmac/gfx/ximian/gorilla-icon-theme/scalable/emotes"
   sodipodi:docname="face-smile.svg"
   inkscape:version="0.44"
   sodipodi:version="0.32"
   id="svg14850"
   xml:space="preserve"
   viewBox="0 0 48 48"
   height="48.000000px"
   width="48.000000px"
   inkscape:output_extension="org.inkscape.output.svg.inkscape"><metadata
   id="metadata14889">
  <rdf:RDF>
    <cc:Work
   rdf:about="">
      <dc:format>image/svg+xml</dc:format>
      <dc:type
   rdf:resource="http://purl.org/dc/dcmitype/StillImage" />
    <dc:title>Face Happy</dc:title><dc:creator><cc:Agent><dc:title>Jakub Steiner</dc:title></cc:Agent></dc:creator><dc:source>http://jimmac.musichall.cz</dc:source><dc:subject><rdf:Bag><rdf:li>face</rdf:li><rdf:li>:-)</rdf:li><rdf:li>:)</rdf:li><rdf:li>happy</rdf:li></rdf:Bag></dc:subject><cc:license
   rdf:resource="http://creativecommons.org/licenses/GPL/2.0/" /></cc:Work>
  <cc:License
   rdf:about="http://creativecommons.org/licenses/GPL/2.0/"><cc:permits
     rdf:resource="http://web.resource.org/cc/Reproduction" /><cc:permits
     rdf:resource="http://web.resource.org/cc/Distribution" /><cc:requires
     rdf:resource="http://web.resource.org/cc/Notice" /><cc:permits
     rdf:resource="http://web.resource.org/cc/DerivativeWorks" /><cc:requires
     rdf:resource="http://web.resource.org/cc/ShareAlike" /><cc:requires
     rdf:resource="http://web.resource.org/cc/SourceCode" /></cc:License></rdf:RDF>
</metadata>
<defs
   id="defs14887"><radialGradient
     id="aigrd1"
     cx="18.9292"
     cy="17.7773"
     r="22.4782"
     fx="18.9292"
     fy="17.7773"
     gradientUnits="userSpaceOnUse"
     gradientTransform="matrix(1.201572,0.000000,0.000000,1.201572,-4.857892,-6.551096)">
			<stop
   offset="0"
   style="stop-color:#FED182"
   id="stop14856" />

			<stop
   offset="0.2809"
   style="stop-color:#FFB310"
   id="stop14858" />

			<stop
   offset="1"
   style="stop-color:#996E04"
   id="stop14860" />

		</radialGradient><radialGradient
     id="aigrd2"
     cx="25.0527"
     cy="39.5928"
     r="15.7572"
     fx="25.0527"
     fy="39.5928"
     gradientUnits="userSpaceOnUse"
     gradientTransform="matrix(1.201572,0.000000,0.000000,1.201572,-4.857892,-6.551096)">
			<stop
   offset="0"
   style="stop-color:#595959"
   id="stop14867" />

			<stop
   offset="1"
   style="stop-color:#000000"
   id="stop14869" />

		</radialGradient><radialGradient
     inkscape:collect="always"
     xlink:href="#aigrd2"
     id="radialGradient2798"
     gradientUnits="userSpaceOnUse"
     gradientTransform="matrix(1.201572,0.000000,0.000000,1.201572,81.42783,-16.65309)"
     cx="25.0527"
     cy="39.5928"
     fx="25.0527"
     fy="39.5928"
     r="15.7572" /></defs>
<sodipodi:namedview
   inkscape:current-layer="svg14850"
   inkscape:window-y="161"
   inkscape:window-x="154"
   inkscape:cy="40.819641"
   inkscape:cx="10.371028"
   inkscape:zoom="5.6568542"
   id="base"
   pagecolor="#ffffff"
   bordercolor="#666666"
   borderopacity="0.14117647"
   inkscape:pageopacity="0.0"
   inkscape:pageshadow="2"
   inkscape:window-width="810"
   inkscape:window-height="619"
   inkscape:showpageshadow="false" />

	<path
   sodipodi:type="arc"
   style="opacity:0.2;color:black;fill:black;fill-opacity:1;fill-rule:nonzero;stroke:none;stroke-width:0.41612154;stroke-linecap:round;stroke-linejoin:round;marker:none;marker-start:none;marker-mid:none;marker-end:none;stroke-miterlimit:4;stroke-dasharray:none;stroke-dashoffset:0;stroke-opacity:1;visibility:visible;display:inline;overflow:visible"
   id="path2538"
   sodipodi:cx="24.297522"
   sodipodi:cy="41.223141"
   sodipodi:rx="17.355371"
   sodipodi:ry="5.7851238"
   d="M 41.652893 41.223141 A 17.355371 5.7851238 0 1 1  6.9421501,41.223141 A 17.355371 5.7851238 0 1 1  41.652893 41.223141 z"
   transform="matrix(1.00369,0,0,1.368514,-0.25496,-18.64965)" /><path
   style="fill:url(#aigrd1);fill-rule:evenodd;stroke:#000000;stroke-width:1.9999995;stroke-miterlimit:4.0000000;stroke-dasharray:none;stroke-opacity:1.0000000"
   d="M 42.604202,22.647104 C 42.604202,32.860466 34.313355,41.151312 24.099993,41.151312 C 13.886631,41.151312 5.5957844,32.860466 5.5957844,22.647104 C 5.5957844,12.433742 13.886631,4.1428918 24.099993,4.1428918 C 34.313355,4.1428918 42.604202,12.433742 42.604202,22.647104 L 42.604202,22.647104 z "
   id="path14862" />

	
<g
   id="g2789"
   transform="translate(-86.00000,7.750000)"><path
     style="opacity:0.35999998;color:#000000;fill:#ffffff;fill-opacity:1.0000000;fill-rule:nonzero;stroke:none;stroke-width:1.0000000;stroke-linecap:butt;stroke-linejoin:miter;marker:none;marker-start:none;marker-mid:none;marker-end:none;stroke-miterlimit:4.0000000;stroke-dasharray:none;stroke-dashoffset:0.0000000;stroke-opacity:1.0000000;visibility:visible;display:inline;overflow:visible"
     d="M 123.57036,14.617976 C 120.55389,19.842649 117.02685,23.608015 110.74821,23.608015 C 104.64820,23.608015 100.18268,19.268318 97.395736,14.441199 C 99.945149,17.497119 103.67867,21.007511 110.48305,21.007511 C 118.61325,21.007511 120.03482,18.100656 123.57036,14.617976 z "
     id="path2659"
     sodipodi:nodetypes="czczc" /><path
     sodipodi:nodetypes="czczc"
     id="path2768"
     d="M 123.57036,13.910872 C 120.55389,19.135545 117.02685,22.900911 110.74821,22.900911 C 104.64820,22.900911 100.18268,18.561214 97.395736,13.734095 C 99.945149,16.790015 103.67867,20.300407 110.48305,20.300407 C 118.61325,20.300407 120.03482,17.393552 123.57036,13.910872 z "
     style="fill:url(#radialGradient2798);fill-rule:nonzero;stroke:none;stroke-miterlimit:4.0000000" /><g
     id="g8666"
     transform="translate(86.63927,-7.709284)"><path
       id="path8610"
       d="M 21.398158,15.321428 C 21.398158,17.821428 20.273158,19.821428 18.898158,19.821428 C 17.523158,19.821428 16.273158,17.821428 16.273158,15.321428 C 16.273158,12.821428 17.398158,10.821428 18.773158,10.821428 C 20.148158,10.821428 21.273158,12.821428 21.273158,15.321428 L 21.398158,15.321428 z "
       style="opacity:0.35999998;fill:#ffffff;fill-rule:nonzero;stroke:none;stroke-miterlimit:4.0000000" /><path
       id="path8612"
       d="M 30.688512,15.321428 C 30.688512,17.821428 29.563512,19.821428 28.188512,19.821428 C 26.813512,19.821428 25.688512,17.821428 25.688512,15.321428 C 25.688512,12.821428 26.813512,10.821428 28.188512,10.821428 C 29.563512,10.821428 30.688512,12.821428 30.688512,15.321428 z "
       style="opacity:0.35999998;fill:#ffffff;fill-rule:nonzero;stroke:none;stroke-miterlimit:4.0000000" /><path
       id="path8614"
       d="M 21.398158,14.696428 C 21.398158,17.196428 20.273158,19.196428 18.898158,19.196428 C 17.523158,19.196428 16.398158,17.196428 16.398158,14.696428 C 16.398158,12.196428 17.523158,10.196428 18.898158,10.196428 C 20.273158,10.196428 21.398158,12.196428 21.398158,14.696428 z "
       style="fill:#000000;fill-rule:nonzero;stroke:none;stroke-miterlimit:4.0000000" /><path
       id="path8616"
       d="M 30.688512,14.696428 C 30.688512,17.196428 29.563512,19.196428 28.188512,19.196428 C 26.813512,19.196428 25.688512,17.196428 25.688512,14.696428 C 25.688512,12.196428 26.813512,10.196428 28.188512,10.196428 C 29.563512,10.196428 30.688512,12.196428 30.688512,14.696428 z "
       style="fill:#000000;fill-rule:nonzero;stroke:none;stroke-miterlimit:4.0000000" /></g></g></svg>