<?xml version="1.0" encoding="UTF-8" standalone="no"?>
<!-- Created with Inkscape (http://www.inkscape.org/) -->
<svg id="svg7528" xmlns:rdf="http://www.w3.org/1999/02/22-rdf-syntax-ns#" xmlns="http://www.w3.org/2000/svg" height="560" width="520" version="1.1" xmlns:cc="http://creativecommons.org/ns#" xmlns:dc="http://purl.org/dc/elements/1.1/" viewBox="0 0 520.00001 560.00001">
 <metadata id="metadata7533">
  <rdf:RDF>
   <cc:Work rdf:about="">
    <dc:format>image/svg+xml</dc:format>
    <dc:type rdf:resource="http://purl.org/dc/dcmitype/StillImage"/>
    <dc:title/>
   </cc:Work>
  </rdf:RDF>
 </metadata>
 <g id="layer2" stroke="#000" stroke-width="8">
  <g fill="none">
   <path id="path8208" stroke-linejoin="round" d="m41.916 475.01v-27.829l279.12-436.18h17.808z"/>
   <path id="path8090" d="m457.33 511.67-47.33 38.33h-320l-40-40 20 10v-20l10 20 10-30 10 20 10-10 10 10 5.3333-20.667 8 19.667 9.6667-14 11.333 15.333 6.3333-18 5.34 18.34 10.33-20.67 4.3333 20 11.667-20.333 10 18 3.6667-14 12 15.333 8.3333-21.333 5 17.333 8.3333-12.333 6 12.667 13-18.333 5.6667 19 10.333-19.667 8 15.667 10.34-17.33 8.3333 16 12.667-16 10 19.333 9.3333-17.667 11 17.667 6-22 10.333 23 7.6667-19.667 8.67 23.66 14.67-22.33 1.33 20.66 15-15.66 2.33 17.33 12.333-12.333 3 13.667 19.67-16.33-7.33 18z"/>
   <path id="path8102" stroke-linejoin="round" d="m325.16 32.383-88.96 139.03s65.509 43.194 95.838 69.617c14.309 12.466 31.81 39.216 48.732 55.85 16.923 16.633 32.268 28.15 32.268 28.15l88.96-139.03s-15.347-11.517-32.27-28.15c-16.92-16.63-34.42-43.38-48.73-55.85-30.33-26.424-95.84-69.617-95.84-69.617z"/>
   <g>
    <path id="path8108" d="m280.68 101.89s65.511 43.194 95.84 69.618c14.309 12.466 31.809 39.216 48.731 55.85 16.923 16.633 32.269 28.15 32.269 28.15"/>
    <path id="path8112" d="m414.93 96.869-88.96 139.02"/>
    <path id="path8118" d="m272.59 114.53s65.511 43.194 95.84 69.618c14.309 12.466 31.809 39.216 48.731 55.85 16.923 16.633 32.269 28.15 32.269 28.15"/>
    <path id="path8120" d="m288.76 89.26s65.511 43.194 95.84 69.618c14.309 12.466 31.809 39.216 48.731 55.85 16.923 16.633 32.269 28.15 32.269 28.15"/>
    <path id="path8122" d="m402.3 88.783-88.964 139.02"/>
    <path id="path8124" d="m427.57 104.95-88.964 139.02"/>
   </g>
   <circle id="path8133" stroke-linejoin="round" cx="116.52" cy="149.52" r="81.518"/>
  </g>
  <g stroke-linejoin="round" fill-rule="evenodd">
   <path id="path8191" d="m170.51 188.37a66.518 66.518 0 0 1 -53.991 27.664 66.518 66.518 0 0 1 -25.76 -5.1904l28.637-51.119z"/>
   <path id="path8173" d="m155.37 95.528a66.518 66.518 0 0 1 27.664 53.991 66.518 66.518 0 0 1 -5.1904 25.76l-51.119-28.637z"/>
   <path id="path8182" d="m62.527 110.66a66.518 66.518 0 0 1 53.993 -27.66 66.518 66.518 0 0 1 25.762 5.1911l-28.639 51.118z"/>
   <path id="path8135" d="m77.665 203.51a66.518 66.518 0 0 1 -27.665 -53.99 66.518 66.518 0 0 1 5.191 -25.76l51.118 28.639z"/>
  </g>
  <circle id="path8197" stroke-linejoin="round" fill-rule="evenodd" cx="370.45" cy="166.38" r="10.569" fill="#fff"/>
 </g>
 <g id="layer3">
  <g fill-rule="evenodd" fill="#fff">
   <path id="path8212" d="m185.33 230s95.782-23.037 134.67-12c48.957 13.895 103.03 45.183 121.33 92.667 5.29 13.7-9.33 65.33-9.33 65.33l28 35.333s-12.822 43.664-13.333 71.333c-0.12493 6.7575 3.3333 20 3.3333 20h-32s8.9141-23.856 7.3333-36c-3.3609-25.82-23.126-35.454-26-61.333-0.93-8.41-2.66-33.33-2.66-33.33s-70.866 35.518-109.33 37.333c-10.51 0.5-30.67-7.33-30.67-7.33s-17.675 10.921-27.333 10c-73.69-7.0256-116-56.667-116-56.667s-15.052 6.1462-22.333 6.5c-6.2819 0.30521-19-7.1667-19-7.1667l-10 4s-0.47343 12.518-6.3333 22.5c-1.4669 2.4987-9 15.5-9 15.5l5.323 10-20.667 26.66s-21.103-9.5168-16.667-20c7.7333-18.274 19.081-51.168 30-78 1.2813-3.1486 12.681-3.5999 15.5-5.5 8.382-5.65 11.167-21.83 11.167-21.83s-9.2438-13.98-10-22c-0.79433-8.4246 6-24.667 6-24.667s-11.509-4.2241-13.333-9.3333c-4.968-13.914 13.106-24.253 12-42.667-0.53876-8.9722-13.181 2.718-22.167 2.5-9.0623-0.21983-16.303-3.9865-21-2.6667-18.562 5.2161 12.192-17.366-4.6667-15.833-4.888 0.45-10.972 1-11.833-3.83-2.5184-14.14 9.32-25.27 19-32.17 7.378-5.25 19.795-4.9 32.5-11.33 15.914-8.0533 25.724-18.543 43.5-20 20.688-1.696 35.02 8.4586 49.667 23.167 11.424 11.472 7.7246 25.348 11.667 38.167 5.39 17.5 22.67 42.67 22.67 42.67z" stroke="#000" stroke-width="12"/>
   <path id="path8214" d="m418 314s1.8007 34.511-6 49c-9.9888 18.553-22.455 24.252-29 30-7.6305 6.7013 16.19 46.18 16 51.5-0.23817 6.6602-11.568 15.767-18.5 22.5-7.5044 7.2889-15.61 6.0948-24 18-4.3469 6.1684-11.5 19.5-11.5 19.5h-35s15.159-22.124 23-33c6.6863-9.2745 20.026-16.076 20.5-27.5 0.82189-19.823-23.785-32.222-31.5-50.5-8.1427-19.291-17.56-40.218-15-61 1.6133-13.097 18.5-35 18.5-35z"/>
   <path id="path8216" d="m216.5 503.5s2.8056-12.272 8.5-17c5.1986-4.3161-19.751-42.973-19-66 0.79389-24.348-9.2767-50.351-4-79 3.864-20.979-12.5-26.5-12.5-26.5l-85-1.5s42.022 31.171 53.5 51.5c9.7234 17.222 8.1178 38.714 12.5 58 5.9058 25.991 23.879 55.046 23 62.5-1.0045 8.5146-7 18.5-7 18.5z"/>
  </g>
  <path id="path8218" d="m67.5 152s6.1815-2.6239 9.5-2.5c3.5876 0.13393 10 3.5 10 3.5s-7.1443 5.6234-11.5 5c-3.2749-0.46873-8-6-8-6z" fill-rule="evenodd"/>
  <path id="path8220" d="m93.5 157.5s-5.6709 24.971 34 36c15.667 4.3556-3-38.5-3-38.5" stroke="#000" stroke-linecap="round" stroke-width="12" fill="none"/>
  <path id="path8236" d="m418 314 4 57s12.817-5.2949 23.048-18.656c16.266-21.243-3.7143-46.678-3.7143-46.678z" fill-rule="evenodd" fill="#fff"/>
  <path id="path8222" d="m418 314 4 57s12.817-5.2949 23.048-18.656c16.266-21.243-9.7143-53.678-9.7143-53.678" stroke="#000" stroke-width="12" fill="none"/>
  <g fill-rule="evenodd" stroke="#000" stroke-width="12">
   <path id="path8224" d="m31.333 433.33 3.167 12.67 28.5-36.5-11-2.83z"/>
   <path id="path8226" d="m186.5 504-7.5 9 35 0.5 2.5-10z"/>
   <path id="path8228" d="m310 504.5-8.5 12h43l0.5-12z"/>
   <path id="path8230" d="m418 502.67-5 11.83 41.5-0.5-4.5-11.33z"/>
  </g>
  <path id="path8232" d="m418 314s1.8007 34.511-6 49c-9.9888 18.553-22.455 24.252-29 30-7.6305 6.7013 16.19 46.18 16 51.5-0.23817 6.6602-11.568 15.767-18.5 22.5-7.5044 7.2889-15.61 6.0948-24 18-4.3469 6.1684-11.5 19.5-11.5 19.5h-35s15.159-22.124 23-33c6.6863-9.2745 20.026-16.076 20.5-27.5 0.82189-19.823-23.785-32.222-31.5-50.5-8.1427-19.291-17.56-40.218-15-61 1.6133-13.097 18.5-35 18.5-35" stroke="#000" stroke-width="12" fill="none"/>
  <path id="path8234" d="m104.5 313.5s42.022 31.171 53.5 51.5c9.7234 17.222 8.1178 38.714 12.5 58 5.9058 25.991 23.879 55.046 23 62.5-1.0045 8.5146-7 18.5-7 18.5l30-0.5s2.8056-12.272 8.5-17c5.1986-4.3161-19.751-42.973-19-66 0.79389-24.348-9.2767-50.351-4-79 3.864-20.979-12.5-26.5-12.5-26.5" stroke="#000" stroke-width="12" fill="none"/>
 </g>
</svg>
