<?xml version="1.0" encoding="UTF-8" standalone="no"?>
<!-- Created with Inkscape (http://www.inkscape.org/) -->
<svg
   xmlns:dc="http://purl.org/dc/elements/1.1/"
   xmlns:cc="http://creativecommons.org/ns#"
   xmlns:rdf="http://www.w3.org/1999/02/22-rdf-syntax-ns#"
   xmlns:svg="http://www.w3.org/2000/svg"
   xmlns="http://www.w3.org/2000/svg"
   xmlns:xlink="http://www.w3.org/1999/xlink"
   xmlns:sodipodi="http://sodipodi.sourceforge.net/DTD/sodipodi-0.dtd"
   xmlns:inkscape="http://www.inkscape.org/namespaces/inkscape"
   width="100%"
   height="100%"
   id="svg2"
   sodipodi:version="0.32"
   inkscape:version="0.46"
   version="1.0"
   sodipodi:docname="distribution_systems.svg"
   inkscape:output_extension="org.inkscape.output.svg.inkscape"
   viewBox="-20 0 861.72223 219.18927">
  <defs
     id="defs4">
    <linearGradient
       x1="102.7583"
       y1="92.283699"
       x2="195.3558"
       y2="184.8815"
       id="XMLID_10_"
       gradientUnits="userSpaceOnUse"
       gradientTransform="matrix(-1,0,0,1,256,0)">
      <stop
         style="stop-color: rgb(66, 138, 255); stop-opacity: 1;"
         offset="0"
         id="stop2663" />
      <stop
         style="stop-color: rgb(0, 51, 153); stop-opacity: 1;"
         offset="1"
         id="stop2665" />
    </linearGradient>
    <linearGradient
       x1="82.5718"
       y1="67.966797"
       x2="203.9104"
       y2="189.3054"
       id="XMLID_9_"
       gradientUnits="userSpaceOnUse"
       gradientTransform="matrix(-1,0,0,1,256,0)">
      <stop
         style="stop-color: rgb(255, 255, 255); stop-opacity: 1;"
         offset="0"
         id="stop2656" />
      <stop
         style="stop-color: rgb(223, 223, 223); stop-opacity: 1;"
         offset="1"
         id="stop2658" />
    </linearGradient>
    <linearGradient
       x1="83.397903"
       y1="66.984398"
       x2="204.80679"
       y2="188.3932"
       id="XMLID_8_"
       gradientUnits="userSpaceOnUse"
       gradientTransform="matrix(-1,0,0,1,256,0)">
      <stop
         style="stop-color: rgb(255, 255, 255); stop-opacity: 1;"
         offset="0"
         id="stop2649" />
      <stop
         style="stop-color: rgb(240, 240, 240); stop-opacity: 1;"
         offset="1"
         id="stop2651" />
    </linearGradient>
    <linearGradient
       x1="83.477501"
       y1="67.087402"
       x2="204.8054"
       y2="188.4153"
       id="XMLID_7_"
       gradientUnits="userSpaceOnUse"
       gradientTransform="matrix(-1,0,0,1,256,0)">
      <stop
         style="stop-color: rgb(0, 102, 204); stop-opacity: 1;"
         offset="0"
         id="stop2642" />
      <stop
         style="stop-color: rgb(0, 51, 153); stop-opacity: 1;"
         offset="1"
         id="stop2644" />
    </linearGradient>
    <linearGradient
       x1="83.459"
       y1="67.090302"
       x2="204.80161"
       y2="188.43291"
       id="XMLID_6_"
       gradientUnits="userSpaceOnUse"
       gradientTransform="matrix(-1,0,0,1,256,0)">
      <stop
         style="stop-color: rgb(0, 102, 204); stop-opacity: 1;"
         offset="0"
         id="stop2635" />
      <stop
         style="stop-color: rgb(0, 51, 153); stop-opacity: 1;"
         offset="1"
         id="stop2637" />
    </linearGradient>
    <inkscape:perspective
       sodipodi:type="inkscape:persp3d"
       inkscape:vp_x="0 : 526.18109 : 1"
       inkscape:vp_y="0 : 1000 : 0"
       inkscape:vp_z="744.09448 : 526.18109 : 1"
       inkscape:persp3d-origin="372.04724 : 350.78739 : 1"
       id="perspective10" />
    <inkscape:perspective
       id="perspective2529"
       inkscape:persp3d-origin="30 : 20 : 1"
       inkscape:vp_z="60 : 30 : 1"
       inkscape:vp_y="0 : 1000 : 0"
       inkscape:vp_x="0 : 30 : 1"
       sodipodi:type="inkscape:persp3d" />
    <linearGradient
       inkscape:collect="always"
       xlink:href="#XMLID_6_"
       id="linearGradient2748"
       gradientUnits="userSpaceOnUse"
       gradientTransform="matrix(-1,0,0,1,256,0)"
       x1="83.459"
       y1="67.090302"
       x2="204.80161"
       y2="188.43291" />
    <linearGradient
       inkscape:collect="always"
       xlink:href="#XMLID_7_"
       id="linearGradient2750"
       gradientUnits="userSpaceOnUse"
       gradientTransform="matrix(-1,0,0,1,256,0)"
       x1="83.477501"
       y1="67.087402"
       x2="204.8054"
       y2="188.4153" />
    <linearGradient
       inkscape:collect="always"
       xlink:href="#XMLID_8_"
       id="linearGradient2752"
       gradientUnits="userSpaceOnUse"
       gradientTransform="matrix(-1,0,0,1,256,0)"
       x1="83.397903"
       y1="66.984398"
       x2="204.80679"
       y2="188.3932" />
    <linearGradient
       inkscape:collect="always"
       xlink:href="#XMLID_9_"
       id="linearGradient2754"
       gradientUnits="userSpaceOnUse"
       gradientTransform="matrix(-1,0,0,1,256,0)"
       x1="82.5718"
       y1="67.966797"
       x2="203.9104"
       y2="189.3054" />
    <linearGradient
       inkscape:collect="always"
       xlink:href="#XMLID_10_"
       id="linearGradient2756"
       gradientUnits="userSpaceOnUse"
       gradientTransform="matrix(-1,0,0,1,256,0)"
       x1="102.7583"
       y1="92.283699"
       x2="195.3558"
       y2="184.8815" />
    <linearGradient
       inkscape:collect="always"
       xlink:href="#XMLID_6_"
       id="linearGradient2788"
       gradientUnits="userSpaceOnUse"
       gradientTransform="matrix(-1,0,0,1,256,0)"
       x1="83.459"
       y1="67.090302"
       x2="204.80161"
       y2="188.43291" />
    <linearGradient
       inkscape:collect="always"
       xlink:href="#XMLID_7_"
       id="linearGradient2790"
       gradientUnits="userSpaceOnUse"
       gradientTransform="matrix(-1,0,0,1,256,0)"
       x1="83.477501"
       y1="67.087402"
       x2="204.8054"
       y2="188.4153" />
    <linearGradient
       inkscape:collect="always"
       xlink:href="#XMLID_8_"
       id="linearGradient2792"
       gradientUnits="userSpaceOnUse"
       gradientTransform="matrix(-1,0,0,1,256,0)"
       x1="83.397903"
       y1="66.984398"
       x2="204.80679"
       y2="188.3932" />
    <linearGradient
       inkscape:collect="always"
       xlink:href="#XMLID_9_"
       id="linearGradient2794"
       gradientUnits="userSpaceOnUse"
       gradientTransform="matrix(-1,0,0,1,256,0)"
       x1="82.5718"
       y1="67.966797"
       x2="203.9104"
       y2="189.3054" />
    <linearGradient
       inkscape:collect="always"
       xlink:href="#XMLID_10_"
       id="linearGradient2796"
       gradientUnits="userSpaceOnUse"
       gradientTransform="matrix(-1,0,0,1,256,0)"
       x1="102.7583"
       y1="92.283699"
       x2="195.3558"
       y2="184.8815" />
    <linearGradient
       inkscape:collect="always"
       xlink:href="#XMLID_6_"
       id="linearGradient2834"
       gradientUnits="userSpaceOnUse"
       gradientTransform="matrix(-1,0,0,1,256,0)"
       x1="83.459"
       y1="67.090302"
       x2="204.80161"
       y2="188.43291" />
    <linearGradient
       inkscape:collect="always"
       xlink:href="#XMLID_7_"
       id="linearGradient2836"
       gradientUnits="userSpaceOnUse"
       gradientTransform="matrix(-1,0,0,1,256,0)"
       x1="83.477501"
       y1="67.087402"
       x2="204.8054"
       y2="188.4153" />
    <linearGradient
       inkscape:collect="always"
       xlink:href="#XMLID_8_"
       id="linearGradient2838"
       gradientUnits="userSpaceOnUse"
       gradientTransform="matrix(-1,0,0,1,256,0)"
       x1="83.397903"
       y1="66.984398"
       x2="204.80679"
       y2="188.3932" />
    <linearGradient
       inkscape:collect="always"
       xlink:href="#XMLID_9_"
       id="linearGradient2840"
       gradientUnits="userSpaceOnUse"
       gradientTransform="matrix(-1,0,0,1,256,0)"
       x1="82.5718"
       y1="67.966797"
       x2="203.9104"
       y2="189.3054" />
    <linearGradient
       inkscape:collect="always"
       xlink:href="#XMLID_10_"
       id="linearGradient2842"
       gradientUnits="userSpaceOnUse"
       gradientTransform="matrix(-1,0,0,1,256,0)"
       x1="102.7583"
       y1="92.283699"
       x2="195.3558"
       y2="184.8815" />
    <linearGradient
       inkscape:collect="always"
       xlink:href="#XMLID_6_"
       id="linearGradient3720"
       gradientUnits="userSpaceOnUse"
       gradientTransform="matrix(-1,0,0,1,256,0)"
       x1="83.459"
       y1="67.090302"
       x2="204.80161"
       y2="188.43291" />
    <linearGradient
       inkscape:collect="always"
       xlink:href="#XMLID_7_"
       id="linearGradient3722"
       gradientUnits="userSpaceOnUse"
       gradientTransform="matrix(-1,0,0,1,256,0)"
       x1="83.477501"
       y1="67.087402"
       x2="204.8054"
       y2="188.4153" />
    <linearGradient
       inkscape:collect="always"
       xlink:href="#XMLID_8_"
       id="linearGradient3724"
       gradientUnits="userSpaceOnUse"
       gradientTransform="matrix(-1,0,0,1,256,0)"
       x1="83.397903"
       y1="66.984398"
       x2="204.80679"
       y2="188.3932" />
    <linearGradient
       inkscape:collect="always"
       xlink:href="#XMLID_9_"
       id="linearGradient3726"
       gradientUnits="userSpaceOnUse"
       gradientTransform="matrix(-1,0,0,1,256,0)"
       x1="82.5718"
       y1="67.966797"
       x2="203.9104"
       y2="189.3054" />
    <linearGradient
       inkscape:collect="always"
       xlink:href="#XMLID_10_"
       id="linearGradient3728"
       gradientUnits="userSpaceOnUse"
       gradientTransform="matrix(-1,0,0,1,256,0)"
       x1="102.7583"
       y1="92.283699"
       x2="195.3558"
       y2="184.8815" />
  </defs>
  <sodipodi:namedview
     id="base"
     pagecolor="#ffffff"
     bordercolor="#666666"
     borderopacity="1.0"
     gridtolerance="10000"
     guidetolerance="10"
     objecttolerance="10"
     inkscape:pageopacity="0.0"
     inkscape:pageshadow="2"
     inkscape:zoom="1"
     inkscape:cx="374.59358"
     inkscape:cy="136.8301"
     inkscape:document-units="px"
     inkscape:current-layer="layer1"
     showgrid="false"
     showguides="true"
     inkscape:guide-bbox="true"
     inkscape:window-width="1440"
     inkscape:window-height="829"
     inkscape:window-x="0"
     inkscape:window-y="25" />
  <metadata
     id="metadata7">
    <rdf:RDF>
      <cc:Work
         rdf:about="">
        <dc:format>image/svg+xml</dc:format>
        <dc:type
           rdf:resource="http://purl.org/dc/dcmitype/StillImage" />
      </cc:Work>
    </rdf:RDF>
  </metadata>
  <g
     inkscape:label="Layer 1"
     inkscape:groupmode="layer"
     id="layer1"
     transform="translate(84.095315,-178.71292)">
    <rect
       style="fill:#fdffee;fill-opacity:1;stroke:#000000;stroke-width:1.79999994999999990;stroke-linecap:round;stroke-linejoin:round;stroke-miterlimit:4;stroke-dasharray:7.20000000000000018, 3.60000000000000009;stroke-dashoffset:0;stroke-opacity:1"
       id="rect2383"
       width="102.3321"
       height="46.348072"
       x="121.1748"
       y="181.87762" />
    <text
       xml:space="preserve"
       style="font-size:20px;font-style:normal;font-variant:normal;font-weight:normal;font-stretch:normal;text-align:center;line-height:100%;text-anchor:middle;fill:#000000;fill-opacity:1;stroke:none;stroke-width:1px;stroke-linecap:butt;stroke-linejoin:miter;stroke-opacity:1;font-family:RaggMoppRegular;-inkscape-font-specification:RaggMoppRegular"
       x="172.95511"
       y="201.05945"
       id="text2385"
       sodipodi:linespacing="100%"><tspan
         sodipodi:role="line"
         id="tspan2387"
         x="172.95511"
         y="201.05945"
         style="font-size:20px;font-style:normal;font-variant:normal;font-weight:bold;font-stretch:normal;text-align:center;line-height:100%;writing-mode:lr-tb;text-anchor:middle;font-family:Rasheeq;-inkscape-font-specification:Rasheeq Bold">Raw</tspan><tspan
         sodipodi:role="line"
         x="172.95511"
         y="221.05945"
         id="tspan2389"
         style="font-size:20px;font-style:normal;font-variant:normal;font-weight:bold;font-stretch:normal;text-align:center;line-height:100%;writing-mode:lr-tb;text-anchor:middle;font-family:Rasheeq;-inkscape-font-specification:Rasheeq Bold">Materials</tspan></text>
    <rect
       style="fill:#eefff0;fill-opacity:1;stroke:#000000;stroke-width:1.79999995;stroke-linecap:round;stroke-linejoin:round;stroke-miterlimit:4;stroke-dasharray:7.2, 3.6;stroke-dashoffset:0;stroke-opacity:1"
       id="rect2722"
       width="116.47424"
       height="46.348072"
       x="156.95583"
       y="267.61292" />
    <text
       xml:space="preserve"
       style="font-size:20px;font-style:normal;font-variant:normal;font-weight:normal;font-stretch:normal;text-align:center;line-height:100%;text-anchor:middle;fill:#000000;fill-opacity:1;stroke:none;stroke-width:1px;stroke-linecap:butt;stroke-linejoin:miter;stroke-opacity:1;font-family:RaggMoppRegular;-inkscape-font-specification:RaggMoppRegular"
       x="214.79704"
       y="295.9064"
       id="text2724"
       sodipodi:linespacing="100%"><tspan
         sodipodi:role="line"
         x="214.79704"
         y="295.9064"
         id="tspan2728"
         style="font-size:20px;font-style:normal;font-variant:normal;font-weight:bold;font-stretch:normal;text-align:center;line-height:100%;writing-mode:lr-tb;text-anchor:middle;font-family:Rasheeq;-inkscape-font-specification:Rasheeq Bold">Processing</tspan></text>
    <g
       transform="matrix(0.1238896,0,0,0.1238896,276.72093,278.20463)"
       style="overflow:visible"
       id="g2730">
      <rect
         style="fill:none"
         id="rect2732"
         y="0"
         x="0"
         height="256"
         width="256" />
      <path
         style="opacity:0.2"
         id="path2734"
         d="M 116.728,22.158 C 116.73,22.159 119.607,23.931 119.607,23.931 C 122.63,25.792 149.923,42.718 177.034,63.636 C 215.635,93.417 233.611,115.139 233.611,131.999 L 233.611,131.999 C 233.611,148.858 215.634,170.581 177.034,200.361 C 149.869,221.32 122.624,238.211 119.607,240.067 L 116.726,241.84 C 114.16,243.422 110.931,243.49 108.301,242.019 C 105.67,240.548 104.036,237.763 104.036,234.751 C 104.036,234.751 104.036,192.266 104.036,186.022 C 97.53,186.022 34.712,186.022 34.712,186.022 C 30.122,186.022 26.387,182.288 26.387,177.698 L 26.387,86.302 C 26.387,81.712 30.121,77.977 34.712,77.977 C 34.712,77.977 97.529,77.977 104.036,77.977 C 104.036,71.734 104.036,29.248 104.036,29.248 C 104.036,26.234 105.671,23.449 108.303,21.98 C 110.931,20.509 114.16,20.577 116.728,22.158 z" />
      <path
         style="opacity:0.2"
         id="path2736"
         d="M 115.728,20.158 C 115.73,20.159 118.607,21.931 118.607,21.931 C 121.63,23.792 148.923,40.718 176.034,61.636 C 214.635,91.417 232.611,113.139 232.611,129.999 L 232.611,129.999 C 232.611,146.858 214.634,168.581 176.034,198.361 C 148.869,219.32 121.624,236.211 118.607,238.067 L 115.726,239.84 C 113.16,241.422 109.931,241.49 107.301,240.019 C 104.67,238.548 103.036,235.763 103.036,232.751 C 103.036,232.751 103.036,190.266 103.036,184.022 C 96.53,184.022 33.712,184.022 33.712,184.022 C 29.122,184.022 25.387,180.288 25.387,175.698 L 25.387,84.302 C 25.387,79.712 29.121,75.977 33.712,75.977 C 33.712,75.977 96.529,75.977 103.036,75.977 C 103.036,69.734 103.036,27.248 103.036,27.248 C 103.036,24.234 104.671,21.449 107.303,19.98 C 109.931,18.509 113.16,18.577 115.728,20.158 z" />
      <path
         id="path2738"
         style="fill:url(#linearGradient2748)"
         d="M 114.728,18.158 C 114.73,18.159 117.607,19.931 117.607,19.931 C 120.63,21.792 147.923,38.718 175.034,59.636 C 213.635,89.417 231.611,111.139 231.611,127.999 L 231.611,127.999 C 231.611,144.858 213.634,166.581 175.034,196.361 C 147.869,217.32 120.624,234.211 117.607,236.067 L 114.726,237.84 C 112.16,239.422 108.931,239.49 106.301,238.019 C 103.67,236.548 102.036,233.763 102.036,230.751 C 102.036,230.751 102.036,188.266 102.036,182.022 C 95.53,182.022 32.712,182.022 32.712,182.022 C 28.122,182.022 24.387,178.288 24.387,173.698 L 24.387,82.302 C 24.387,77.712 28.121,73.977 32.712,73.977 C 32.712,73.977 95.529,73.977 102.036,73.977 C 102.036,67.734 102.036,25.248 102.036,25.248 C 102.036,22.234 103.671,19.449 106.303,17.98 C 108.931,16.509 112.16,16.577 114.728,18.158 z" />
      <path
         id="path2740"
         style="fill:url(#linearGradient2750)"
         d="M 112.839,21.224 L 115.72,22.997 L 115.72,22.997 C 118.724,24.847 145.858,41.673 172.836,62.487 C 209.964,91.132 228.012,112.562 228.012,128 C 228.012,143.438 209.964,164.866 172.836,193.512 C 145.874,214.314 118.728,231.153 115.72,233.003 L 112.839,234.776 C 111.381,235.674 109.551,235.714 108.058,234.879 C 106.563,234.043 105.637,232.465 105.637,230.753 C 105.637,230.753 105.637,186.373 105.637,178.424 C 97.303,178.424 32.713,178.424 32.713,178.424 C 30.104,178.424 27.988,176.309 27.988,173.699 L 27.988,82.302 C 27.988,79.693 30.104,77.577 32.713,77.577 C 32.713,77.577 97.302,77.577 105.637,77.577 C 105.637,69.628 105.637,25.247 105.637,25.247 C 105.637,23.535 106.563,21.957 108.058,21.122 C 109.551,20.287 111.382,20.326 112.839,21.224 z" />
      <path
         id="path2742"
         style="fill:url(#linearGradient2752)"
         d="M 113.242,27.021 C 117.736,29.787 223.286,95.148 223.286,128 C 223.286,160.852 117.736,226.213 113.242,228.979 L 110.361,230.752 C 110.361,230.752 110.361,177.225 110.361,173.698 C 106.763,173.698 32.712,173.698 32.712,173.698 L 32.712,82.302 C 32.712,82.302 106.763,82.302 110.361,82.302 C 110.361,78.775 110.361,25.247 110.361,25.247 L 113.242,27.021 z" />
      <path
         id="path2744"
         style="fill:url(#linearGradient2754)"
         d="M 216.986,128 C 216.986,148.505 158.054,193.1 116.661,219.402 C 116.661,204.837 116.661,167.398 116.661,167.398 C 116.661,167.398 49.651,167.398 39.013,167.398 C 39.013,157.284 39.013,98.715 39.013,88.601 C 49.651,88.601 116.661,88.601 116.661,88.601 C 116.661,88.601 116.661,51.162 116.661,36.596 C 158.055,62.896 216.986,107.488 216.986,128 z" />
      <path
         id="path2746"
         style="fill:url(#linearGradient2756)"
         d="M 155.735,80.997 L 155.735,80.997 C 195.381,111.262 201.876,125.278 202.825,128.002 C 201.875,130.728 195.37,144.745 155.735,175.002 C 148.104,180.828 139.693,186.905 130.702,193.112 C 130.702,182.05 130.702,153.359 130.702,153.359 C 130.702,153.359 61.04,153.359 53.053,153.359 C 53.053,146.292 53.053,109.709 53.053,102.641 C 61.04,102.641 130.702,102.641 130.702,102.641 C 130.702,102.641 130.702,73.949 130.702,62.887 C 139.687,69.09 148.099,75.167 155.735,80.997 z" />
    </g>
    <rect
       style="fill:#eefff0;fill-opacity:1;stroke:#000000;stroke-width:1.79999995;stroke-linecap:round;stroke-linejoin:round;stroke-miterlimit:4;stroke-dasharray:7.2, 3.6;stroke-dashoffset:0;stroke-opacity:1"
       id="rect2762"
       width="119.50469"
       height="46.348072"
       x="311.50922"
       y="267.61292" />
    <text
       xml:space="preserve"
       style="font-size:20px;font-style:normal;font-variant:normal;font-weight:normal;font-stretch:normal;text-align:center;line-height:100%;text-anchor:middle;fill:#000000;fill-opacity:1;stroke:none;stroke-width:1px;stroke-linecap:butt;stroke-linejoin:miter;stroke-opacity:1;font-family:RaggMoppRegular;-inkscape-font-specification:RaggMoppRegular"
       x="371.37073"
       y="296.89627"
       id="text2764"
       sodipodi:linespacing="100%"><tspan
         sodipodi:role="line"
         x="371.37073"
         y="296.89627"
         id="tspan2768"
         style="font-size:20px;font-style:normal;font-variant:normal;font-weight:bold;font-stretch:normal;text-align:center;line-height:100%;writing-mode:lr-tb;text-anchor:middle;font-family:Rasheeq;-inkscape-font-specification:Rasheeq Bold">Distribution</tspan></text>
    <g
       transform="matrix(0.1238896,0,0,0.1238896,438.34536,278.20463)"
       style="overflow:visible"
       id="g2770">
      <rect
         style="fill:none"
         id="rect2772"
         y="0"
         x="0"
         height="256"
         width="256" />
      <path
         style="opacity:0.2"
         id="path2774"
         d="M 116.728,22.158 C 116.73,22.159 119.607,23.931 119.607,23.931 C 122.63,25.792 149.923,42.718 177.034,63.636 C 215.635,93.417 233.611,115.139 233.611,131.999 L 233.611,131.999 C 233.611,148.858 215.634,170.581 177.034,200.361 C 149.869,221.32 122.624,238.211 119.607,240.067 L 116.726,241.84 C 114.16,243.422 110.931,243.49 108.301,242.019 C 105.67,240.548 104.036,237.763 104.036,234.751 C 104.036,234.751 104.036,192.266 104.036,186.022 C 97.53,186.022 34.712,186.022 34.712,186.022 C 30.122,186.022 26.387,182.288 26.387,177.698 L 26.387,86.302 C 26.387,81.712 30.121,77.977 34.712,77.977 C 34.712,77.977 97.529,77.977 104.036,77.977 C 104.036,71.734 104.036,29.248 104.036,29.248 C 104.036,26.234 105.671,23.449 108.303,21.98 C 110.931,20.509 114.16,20.577 116.728,22.158 z" />
      <path
         style="opacity:0.2"
         id="path2776"
         d="M 115.728,20.158 C 115.73,20.159 118.607,21.931 118.607,21.931 C 121.63,23.792 148.923,40.718 176.034,61.636 C 214.635,91.417 232.611,113.139 232.611,129.999 L 232.611,129.999 C 232.611,146.858 214.634,168.581 176.034,198.361 C 148.869,219.32 121.624,236.211 118.607,238.067 L 115.726,239.84 C 113.16,241.422 109.931,241.49 107.301,240.019 C 104.67,238.548 103.036,235.763 103.036,232.751 C 103.036,232.751 103.036,190.266 103.036,184.022 C 96.53,184.022 33.712,184.022 33.712,184.022 C 29.122,184.022 25.387,180.288 25.387,175.698 L 25.387,84.302 C 25.387,79.712 29.121,75.977 33.712,75.977 C 33.712,75.977 96.529,75.977 103.036,75.977 C 103.036,69.734 103.036,27.248 103.036,27.248 C 103.036,24.234 104.671,21.449 107.303,19.98 C 109.931,18.509 113.16,18.577 115.728,20.158 z" />
      <path
         id="path2778"
         style="fill:url(#linearGradient2788)"
         d="M 114.728,18.158 C 114.73,18.159 117.607,19.931 117.607,19.931 C 120.63,21.792 147.923,38.718 175.034,59.636 C 213.635,89.417 231.611,111.139 231.611,127.999 L 231.611,127.999 C 231.611,144.858 213.634,166.581 175.034,196.361 C 147.869,217.32 120.624,234.211 117.607,236.067 L 114.726,237.84 C 112.16,239.422 108.931,239.49 106.301,238.019 C 103.67,236.548 102.036,233.763 102.036,230.751 C 102.036,230.751 102.036,188.266 102.036,182.022 C 95.53,182.022 32.712,182.022 32.712,182.022 C 28.122,182.022 24.387,178.288 24.387,173.698 L 24.387,82.302 C 24.387,77.712 28.121,73.977 32.712,73.977 C 32.712,73.977 95.529,73.977 102.036,73.977 C 102.036,67.734 102.036,25.248 102.036,25.248 C 102.036,22.234 103.671,19.449 106.303,17.98 C 108.931,16.509 112.16,16.577 114.728,18.158 z" />
      <path
         id="path2780"
         style="fill:url(#linearGradient2790)"
         d="M 112.839,21.224 L 115.72,22.997 L 115.72,22.997 C 118.724,24.847 145.858,41.673 172.836,62.487 C 209.964,91.132 228.012,112.562 228.012,128 C 228.012,143.438 209.964,164.866 172.836,193.512 C 145.874,214.314 118.728,231.153 115.72,233.003 L 112.839,234.776 C 111.381,235.674 109.551,235.714 108.058,234.879 C 106.563,234.043 105.637,232.465 105.637,230.753 C 105.637,230.753 105.637,186.373 105.637,178.424 C 97.303,178.424 32.713,178.424 32.713,178.424 C 30.104,178.424 27.988,176.309 27.988,173.699 L 27.988,82.302 C 27.988,79.693 30.104,77.577 32.713,77.577 C 32.713,77.577 97.302,77.577 105.637,77.577 C 105.637,69.628 105.637,25.247 105.637,25.247 C 105.637,23.535 106.563,21.957 108.058,21.122 C 109.551,20.287 111.382,20.326 112.839,21.224 z" />
      <path
         id="path2782"
         style="fill:url(#linearGradient2792)"
         d="M 113.242,27.021 C 117.736,29.787 223.286,95.148 223.286,128 C 223.286,160.852 117.736,226.213 113.242,228.979 L 110.361,230.752 C 110.361,230.752 110.361,177.225 110.361,173.698 C 106.763,173.698 32.712,173.698 32.712,173.698 L 32.712,82.302 C 32.712,82.302 106.763,82.302 110.361,82.302 C 110.361,78.775 110.361,25.247 110.361,25.247 L 113.242,27.021 z" />
      <path
         id="path2784"
         style="fill:url(#linearGradient2794)"
         d="M 216.986,128 C 216.986,148.505 158.054,193.1 116.661,219.402 C 116.661,204.837 116.661,167.398 116.661,167.398 C 116.661,167.398 49.651,167.398 39.013,167.398 C 39.013,157.284 39.013,98.715 39.013,88.601 C 49.651,88.601 116.661,88.601 116.661,88.601 C 116.661,88.601 116.661,51.162 116.661,36.596 C 158.055,62.896 216.986,107.488 216.986,128 z" />
      <path
         id="path2786"
         style="fill:url(#linearGradient2796)"
         d="M 155.735,80.997 L 155.735,80.997 C 195.381,111.262 201.876,125.278 202.825,128.002 C 201.875,130.728 195.37,144.745 155.735,175.002 C 148.104,180.828 139.693,186.905 130.702,193.112 C 130.702,182.05 130.702,153.359 130.702,153.359 C 130.702,153.359 61.04,153.359 53.053,153.359 C 53.053,146.292 53.053,109.709 53.053,102.641 C 61.04,102.641 130.702,102.641 130.702,102.641 C 130.702,102.641 130.702,73.949 130.702,62.887 C 139.687,69.09 148.099,75.167 155.735,80.997 z" />
    </g>
    <rect
       style="fill:#eefff0;fill-opacity:1;stroke:#000000;stroke-width:1.79999995;stroke-linecap:round;stroke-linejoin:round;stroke-miterlimit:4;stroke-dasharray:7.2, 3.6;stroke-dashoffset:0;stroke-opacity:1"
       id="rect2810"
       width="136.62653"
       height="46.348057"
       x="473.13361"
       y="267.61292" />
    <text
       xml:space="preserve"
       style="font-size:20px;font-style:normal;font-variant:normal;font-weight:normal;font-stretch:normal;text-align:center;line-height:100%;text-anchor:middle;fill:#000000;fill-opacity:1;stroke:none;stroke-width:1px;stroke-linecap:butt;stroke-linejoin:miter;stroke-opacity:1;font-family:RaggMoppRegular;-inkscape-font-specification:RaggMoppRegular"
       x="541.99512"
       y="296.89627"
       id="text2812"
       sodipodi:linespacing="100%"><tspan
         sodipodi:role="line"
         x="541.99512"
         y="296.89627"
         id="tspan2814"
         style="font-size:20px;font-style:normal;font-variant:normal;font-weight:bold;font-stretch:normal;text-align:center;line-height:100%;writing-mode:lr-tb;text-anchor:middle;font-family:Rasheeq;-inkscape-font-specification:Rasheeq Bold">Consumption</tspan></text>
    <g
       transform="matrix(7.5169781e-2,-9.847912e-2,9.847912e-2,7.5169781e-2,565.60055,249.04609)"
       style="overflow:visible"
       id="g2816">
      <rect
         style="fill:none"
         id="rect2818"
         y="0"
         x="0"
         height="256"
         width="256" />
      <path
         style="opacity:0.2"
         id="path2820"
         d="M 116.728,22.158 C 116.73,22.159 119.607,23.931 119.607,23.931 C 122.63,25.792 149.923,42.718 177.034,63.636 C 215.635,93.417 233.611,115.139 233.611,131.999 L 233.611,131.999 C 233.611,148.858 215.634,170.581 177.034,200.361 C 149.869,221.32 122.624,238.211 119.607,240.067 L 116.726,241.84 C 114.16,243.422 110.931,243.49 108.301,242.019 C 105.67,240.548 104.036,237.763 104.036,234.751 C 104.036,234.751 104.036,192.266 104.036,186.022 C 97.53,186.022 34.712,186.022 34.712,186.022 C 30.122,186.022 26.387,182.288 26.387,177.698 L 26.387,86.302 C 26.387,81.712 30.121,77.977 34.712,77.977 C 34.712,77.977 97.529,77.977 104.036,77.977 C 104.036,71.734 104.036,29.248 104.036,29.248 C 104.036,26.234 105.671,23.449 108.303,21.98 C 110.931,20.509 114.16,20.577 116.728,22.158 z" />
      <path
         style="opacity:0.2"
         id="path2822"
         d="M 115.728,20.158 C 115.73,20.159 118.607,21.931 118.607,21.931 C 121.63,23.792 148.923,40.718 176.034,61.636 C 214.635,91.417 232.611,113.139 232.611,129.999 L 232.611,129.999 C 232.611,146.858 214.634,168.581 176.034,198.361 C 148.869,219.32 121.624,236.211 118.607,238.067 L 115.726,239.84 C 113.16,241.422 109.931,241.49 107.301,240.019 C 104.67,238.548 103.036,235.763 103.036,232.751 C 103.036,232.751 103.036,190.266 103.036,184.022 C 96.53,184.022 33.712,184.022 33.712,184.022 C 29.122,184.022 25.387,180.288 25.387,175.698 L 25.387,84.302 C 25.387,79.712 29.121,75.977 33.712,75.977 C 33.712,75.977 96.529,75.977 103.036,75.977 C 103.036,69.734 103.036,27.248 103.036,27.248 C 103.036,24.234 104.671,21.449 107.303,19.98 C 109.931,18.509 113.16,18.577 115.728,20.158 z" />
      <path
         id="path2824"
         style="fill:url(#linearGradient2834)"
         d="M 114.728,18.158 C 114.73,18.159 117.607,19.931 117.607,19.931 C 120.63,21.792 147.923,38.718 175.034,59.636 C 213.635,89.417 231.611,111.139 231.611,127.999 L 231.611,127.999 C 231.611,144.858 213.634,166.581 175.034,196.361 C 147.869,217.32 120.624,234.211 117.607,236.067 L 114.726,237.84 C 112.16,239.422 108.931,239.49 106.301,238.019 C 103.67,236.548 102.036,233.763 102.036,230.751 C 102.036,230.751 102.036,188.266 102.036,182.022 C 95.53,182.022 32.712,182.022 32.712,182.022 C 28.122,182.022 24.387,178.288 24.387,173.698 L 24.387,82.302 C 24.387,77.712 28.121,73.977 32.712,73.977 C 32.712,73.977 95.529,73.977 102.036,73.977 C 102.036,67.734 102.036,25.248 102.036,25.248 C 102.036,22.234 103.671,19.449 106.303,17.98 C 108.931,16.509 112.16,16.577 114.728,18.158 z" />
      <path
         id="path2826"
         style="fill:url(#linearGradient2836)"
         d="M 112.839,21.224 L 115.72,22.997 L 115.72,22.997 C 118.724,24.847 145.858,41.673 172.836,62.487 C 209.964,91.132 228.012,112.562 228.012,128 C 228.012,143.438 209.964,164.866 172.836,193.512 C 145.874,214.314 118.728,231.153 115.72,233.003 L 112.839,234.776 C 111.381,235.674 109.551,235.714 108.058,234.879 C 106.563,234.043 105.637,232.465 105.637,230.753 C 105.637,230.753 105.637,186.373 105.637,178.424 C 97.303,178.424 32.713,178.424 32.713,178.424 C 30.104,178.424 27.988,176.309 27.988,173.699 L 27.988,82.302 C 27.988,79.693 30.104,77.577 32.713,77.577 C 32.713,77.577 97.302,77.577 105.637,77.577 C 105.637,69.628 105.637,25.247 105.637,25.247 C 105.637,23.535 106.563,21.957 108.058,21.122 C 109.551,20.287 111.382,20.326 112.839,21.224 z" />
      <path
         id="path2828"
         style="fill:url(#linearGradient2838)"
         d="M 113.242,27.021 C 117.736,29.787 223.286,95.148 223.286,128 C 223.286,160.852 117.736,226.213 113.242,228.979 L 110.361,230.752 C 110.361,230.752 110.361,177.225 110.361,173.698 C 106.763,173.698 32.712,173.698 32.712,173.698 L 32.712,82.302 C 32.712,82.302 106.763,82.302 110.361,82.302 C 110.361,78.775 110.361,25.247 110.361,25.247 L 113.242,27.021 z" />
      <path
         id="path2830"
         style="fill:url(#linearGradient2840)"
         d="M 216.986,128 C 216.986,148.505 158.054,193.1 116.661,219.402 C 116.661,204.837 116.661,167.398 116.661,167.398 C 116.661,167.398 49.651,167.398 39.013,167.398 C 39.013,157.284 39.013,98.715 39.013,88.601 C 49.651,88.601 116.661,88.601 116.661,88.601 C 116.661,88.601 116.661,51.162 116.661,36.596 C 158.055,62.896 216.986,107.488 216.986,128 z" />
      <path
         id="path2832"
         style="fill:url(#linearGradient2842)"
         d="M 155.735,80.997 L 155.735,80.997 C 195.381,111.262 201.876,125.278 202.825,128.002 C 201.875,130.728 195.37,144.745 155.735,175.002 C 148.104,180.828 139.693,186.905 130.702,193.112 C 130.702,182.05 130.702,153.359 130.702,153.359 C 130.702,153.359 61.04,153.359 53.053,153.359 C 53.053,146.292 53.053,109.709 53.053,102.641 C 61.04,102.641 130.702,102.641 130.702,102.641 C 130.702,102.641 130.702,73.949 130.702,62.887 C 139.687,69.09 148.099,75.167 155.735,80.997 z" />
    </g>
    <rect
       style="fill:#eef3ff;fill-opacity:1;stroke:#000000;stroke-width:1.79999994999999990;stroke-linecap:round;stroke-linejoin:round;stroke-miterlimit:4;stroke-dasharray:7.20000000000000018, 3.60000000000000009;stroke-dashoffset:0;stroke-opacity:1"
       id="rect2844"
       width="81.504692"
       height="46.348057"
       x="555.24768"
       y="179.61292" />
    <text
       xml:space="preserve"
       style="font-size:20px;font-style:normal;font-variant:normal;font-weight:normal;font-stretch:normal;text-align:center;line-height:100%;text-anchor:middle;fill:#000000;fill-opacity:1;stroke:none;stroke-width:1px;stroke-linecap:butt;stroke-linejoin:miter;stroke-opacity:1;font-family:RaggMoppRegular;-inkscape-font-specification:RaggMoppRegular"
       x="597.10913"
       y="208.89627"
       id="text2846"
       sodipodi:linespacing="100%"><tspan
         sodipodi:role="line"
         x="597.10913"
         y="208.89627"
         id="tspan2848"
         style="font-size:20px;font-style:normal;font-variant:normal;font-weight:bold;font-stretch:normal;text-align:center;line-height:100%;writing-mode:lr-tb;text-anchor:middle;font-family:Rasheeq;-inkscape-font-specification:Rasheeq Bold">Waste</tspan></text>
    <text
       xml:space="preserve"
       style="font-size:20px;font-style:normal;font-variant:normal;font-weight:normal;font-stretch:normal;text-align:center;line-height:100%;text-anchor:middle;fill:#000000;fill-opacity:1;stroke:none;stroke-width:1px;stroke-linecap:butt;stroke-linejoin:miter;stroke-opacity:1;font-family:RaggMoppRegular;-inkscape-font-specification:RaggMoppRegular"
       x="4.9410706"
       y="258.47885"
       id="text2850"
       sodipodi:linespacing="100%"><tspan
         sodipodi:role="line"
         x="4.9410706"
         y="258.47885"
         style="font-size:36px;font-style:normal;font-variant:normal;font-weight:bold;font-stretch:normal;text-align:center;line-height:100%;writing-mode:lr-tb;text-anchor:middle;font-family:Rehan;-inkscape-font-specification:Rehan Bold"
         id="tspan2854"><tspan
           dy="-1"
           id="tspan3680"
           style="font-size:36px;font-style:normal;font-variant:normal;font-weight:bold;font-stretch:normal;text-align:center;line-height:100%;writing-mode:lr-tb;text-anchor:middle;font-family:Rehan;-inkscape-font-specification:Rehan Bold">Resource</tspan></tspan><tspan
         sodipodi:role="line"
         x="4.9410706"
         y="294.47885"
         style="font-size:36px;font-style:normal;font-variant:normal;font-weight:bold;font-stretch:normal;text-align:center;line-height:100%;writing-mode:lr-tb;text-anchor:middle;font-family:Rehan;-inkscape-font-specification:Rehan Bold"
         id="tspan3732">Distribution</tspan></text>
    <path
       style="fill:none;fill-rule:evenodd;stroke:#000000;stroke-width:2;stroke-linecap:butt;stroke-linejoin:miter;stroke-miterlimit:4;stroke-dasharray:2, 2;stroke-dashoffset:0;stroke-opacity:1"
       d="M 110,323.36218 L 660.31876,323.36218"
       id="path2856"
       sodipodi:nodetypes="cc" />
    <rect
       style="opacity:1;fill:#779bf2;fill-opacity:1;stroke:#000000;stroke-width:2;stroke-linecap:round;stroke-linejoin:round;stroke-miterlimit:4;stroke-dasharray:2, 2;stroke-dashoffset:0;stroke-opacity:1"
       id="rect3634"
       width="274"
       height="25"
       x="158"
       y="337.36218" />
    <rect
       style="opacity:1;fill:#ffdb98;fill-opacity:1;stroke:#000000;stroke-width:2;stroke-linecap:round;stroke-linejoin:round;stroke-miterlimit:4;stroke-dasharray:2, 2;stroke-dashoffset:0;stroke-opacity:1"
       id="rect3636"
       width="274"
       height="25"
       x="158"
       y="361.86218" />
    <text
       xml:space="preserve"
       style="font-size:20px;font-style:normal;font-variant:normal;font-weight:normal;font-stretch:normal;text-align:center;line-height:100%;text-anchor:middle;fill:#392500;fill-opacity:1;stroke:none;stroke-width:1px;stroke-linecap:butt;stroke-linejoin:miter;stroke-opacity:1;font-family:RaggMoppRegular;-inkscape-font-specification:RaggMoppRegular"
       x="289.87994"
       y="355.67886"
       id="text3638"
       sodipodi:linespacing="100%"><tspan
         sodipodi:role="line"
         x="289.87994"
         y="355.67886"
         id="tspan3640"
         style="font-size:20px;font-style:normal;font-variant:normal;font-weight:bold;font-stretch:normal;text-align:center;line-height:100%;writing-mode:lr-tb;text-anchor:middle;fill:#392500;fill-opacity:1;font-family:Rasheeq;-inkscape-font-specification:Rasheeq Bold">Spending</tspan></text>
    <text
       xml:space="preserve"
       style="font-size:20px;font-style:normal;font-variant:normal;font-weight:normal;font-stretch:normal;text-align:center;line-height:100%;text-anchor:middle;fill:#08225e;fill-opacity:1;stroke:none;stroke-width:1px;stroke-linecap:butt;stroke-linejoin:miter;stroke-opacity:1;font-family:RaggMoppRegular;-inkscape-font-specification:RaggMoppRegular"
       x="291.37994"
       y="380.67886"
       id="text3642"
       sodipodi:linespacing="100%"><tspan
         sodipodi:role="line"
         x="291.37994"
         y="380.67886"
         id="tspan3644"
         style="font-size:20px;font-style:normal;font-variant:normal;font-weight:bold;font-stretch:normal;text-align:center;line-height:100%;writing-mode:lr-tb;text-anchor:middle;fill:#08225e;fill-opacity:1;font-family:Rasheeq;-inkscape-font-specification:Rasheeq Bold">Earning</tspan></text>
    <rect
       style="opacity:1;fill:#779bf2;fill-opacity:1;stroke:#000000;stroke-width:2;stroke-linecap:round;stroke-linejoin:round;stroke-miterlimit:4;stroke-dasharray:2, 2;stroke-dashoffset:0;stroke-opacity:1"
       id="rect3656"
       width="136.11418"
       height="25"
       x="473.46552"
       y="361.49265" />
    <rect
       style="opacity:1;fill:#ffdb98;fill-opacity:1;stroke:#000000;stroke-width:2;stroke-linecap:round;stroke-linejoin:round;stroke-miterlimit:4;stroke-dasharray:2, 2;stroke-dashoffset:0;stroke-opacity:1"
       id="rect3658"
       width="136.11418"
       height="25"
       x="473.46552"
       y="336.49518" />
    <text
       xml:space="preserve"
       style="font-size:20px;font-style:normal;font-variant:normal;font-weight:normal;font-stretch:normal;text-align:center;line-height:100%;text-anchor:middle;fill:#392500;fill-opacity:1;stroke:none;stroke-width:1px;stroke-linecap:butt;stroke-linejoin:miter;stroke-opacity:1;font-family:RaggMoppRegular;-inkscape-font-specification:RaggMoppRegular"
       x="542.76648"
       y="379.80933"
       id="text3660"
       sodipodi:linespacing="100%"><tspan
         sodipodi:role="line"
         x="542.76648"
         y="379.80933"
         id="tspan3662"
         style="font-size:20px;font-style:normal;font-variant:normal;font-weight:bold;font-stretch:normal;text-align:center;line-height:100%;writing-mode:lr-tb;text-anchor:middle;fill:#392500;fill-opacity:1;font-family:Rasheeq;-inkscape-font-specification:Rasheeq Bold">Earning</tspan></text>
    <text
       xml:space="preserve"
       style="font-size:20px;font-style:normal;font-variant:normal;font-weight:normal;font-stretch:normal;text-align:center;line-height:100%;text-anchor:middle;fill:#08225e;fill-opacity:1;stroke:none;stroke-width:1px;stroke-linecap:butt;stroke-linejoin:miter;stroke-opacity:1;font-family:RaggMoppRegular;-inkscape-font-specification:RaggMoppRegular"
       x="542.85229"
       y="354.95831"
       id="text3664"
       sodipodi:linespacing="100%"><tspan
         sodipodi:role="line"
         x="542.85229"
         y="354.95831"
         id="tspan3666"
         style="font-size:20px;font-style:normal;font-variant:normal;font-weight:bold;font-stretch:normal;text-align:center;line-height:100%;writing-mode:lr-tb;text-anchor:middle;fill:#08225e;fill-opacity:1;font-family:Rasheeq;-inkscape-font-specification:Rasheeq Bold">Spending</tspan></text>
    <rect
       style="opacity:1;fill:#779bf2;fill-opacity:1;stroke:#000000;stroke-width:2;stroke-linecap:round;stroke-linejoin:round;stroke-miterlimit:4;stroke-dasharray:2, 2;stroke-dashoffset:0;stroke-opacity:1"
       id="rect3668"
       width="15.198918"
       height="14.393398"
       x="635.25043"
       y="340.98206" />
    <rect
       style="opacity:1;fill:#ffdb98;fill-opacity:1;stroke:#000000;stroke-width:2;stroke-linecap:round;stroke-linejoin:round;stroke-miterlimit:4;stroke-dasharray:2, 2;stroke-dashoffset:0;stroke-opacity:1"
       id="rect3670"
       width="15.906025"
       height="15.100505"
       x="635.25043"
       y="365.48206" />
    <text
       xml:space="preserve"
       style="font-size:20px;font-style:normal;font-variant:normal;font-weight:normal;font-stretch:normal;text-align:center;line-height:100%;text-anchor:middle;fill:#1c1c1c;fill-opacity:1;stroke:none;stroke-width:1px;stroke-linecap:butt;stroke-linejoin:miter;stroke-opacity:1;font-family:RaggMoppRegular;-inkscape-font-specification:RaggMoppRegular"
       x="653.65961"
       y="356.11615"
       id="text3672"
       sodipodi:linespacing="100%"><tspan
         sodipodi:role="line"
         x="653.65961"
         y="356.11615"
         id="tspan3674"
         style="font-size:20px;font-style:normal;font-variant:normal;font-weight:bold;font-stretch:normal;text-align:start;line-height:100%;writing-mode:lr-tb;text-anchor:start;fill:#000000;fill-opacity:1;font-family:Rasheeq;-inkscape-font-specification:Rasheeq Bold">Employers</tspan></text>
    <text
       xml:space="preserve"
       style="font-size:20px;font-style:normal;font-variant:normal;font-weight:normal;font-stretch:normal;text-align:center;line-height:100%;text-anchor:middle;fill:#1c1c1c;fill-opacity:1;stroke:none;stroke-width:1px;stroke-linecap:butt;stroke-linejoin:miter;stroke-opacity:1;font-family:RaggMoppRegular;-inkscape-font-specification:RaggMoppRegular"
       x="652.85193"
       y="380.20676"
       id="text3676"
       sodipodi:linespacing="100%"><tspan
         sodipodi:role="line"
         x="652.85193"
         y="380.20676"
         id="tspan3678"
         style="font-size:20px;font-style:normal;font-variant:normal;font-weight:bold;font-stretch:normal;text-align:start;line-height:100%;writing-mode:lr-tb;text-anchor:start;fill:#000000;fill-opacity:1;font-family:Rasheeq;-inkscape-font-specification:Rasheeq Bold">Employees</tspan></text>
    <g
       transform="matrix(6.464069e-2,0.1056892,-0.1056892,6.464069e-2,177.43472,227.6402)"
       style="overflow:visible"
       id="g3702">
      <rect
         style="fill:none"
         id="rect3704"
         y="0"
         x="0"
         height="256"
         width="256" />
      <path
         style="opacity:0.2"
         id="path3706"
         d="M 116.728,22.158 C 116.73,22.159 119.607,23.931 119.607,23.931 C 122.63,25.792 149.923,42.718 177.034,63.636 C 215.635,93.417 233.611,115.139 233.611,131.999 L 233.611,131.999 C 233.611,148.858 215.634,170.581 177.034,200.361 C 149.869,221.32 122.624,238.211 119.607,240.067 L 116.726,241.84 C 114.16,243.422 110.931,243.49 108.301,242.019 C 105.67,240.548 104.036,237.763 104.036,234.751 C 104.036,234.751 104.036,192.266 104.036,186.022 C 97.53,186.022 34.712,186.022 34.712,186.022 C 30.122,186.022 26.387,182.288 26.387,177.698 L 26.387,86.302 C 26.387,81.712 30.121,77.977 34.712,77.977 C 34.712,77.977 97.529,77.977 104.036,77.977 C 104.036,71.734 104.036,29.248 104.036,29.248 C 104.036,26.234 105.671,23.449 108.303,21.98 C 110.931,20.509 114.16,20.577 116.728,22.158 z" />
      <path
         style="opacity:0.2"
         id="path3708"
         d="M 115.728,20.158 C 115.73,20.159 118.607,21.931 118.607,21.931 C 121.63,23.792 148.923,40.718 176.034,61.636 C 214.635,91.417 232.611,113.139 232.611,129.999 L 232.611,129.999 C 232.611,146.858 214.634,168.581 176.034,198.361 C 148.869,219.32 121.624,236.211 118.607,238.067 L 115.726,239.84 C 113.16,241.422 109.931,241.49 107.301,240.019 C 104.67,238.548 103.036,235.763 103.036,232.751 C 103.036,232.751 103.036,190.266 103.036,184.022 C 96.53,184.022 33.712,184.022 33.712,184.022 C 29.122,184.022 25.387,180.288 25.387,175.698 L 25.387,84.302 C 25.387,79.712 29.121,75.977 33.712,75.977 C 33.712,75.977 96.529,75.977 103.036,75.977 C 103.036,69.734 103.036,27.248 103.036,27.248 C 103.036,24.234 104.671,21.449 107.303,19.98 C 109.931,18.509 113.16,18.577 115.728,20.158 z" />
      <path
         id="path3710"
         style="fill:url(#linearGradient3720)"
         d="M 114.728,18.158 C 114.73,18.159 117.607,19.931 117.607,19.931 C 120.63,21.792 147.923,38.718 175.034,59.636 C 213.635,89.417 231.611,111.139 231.611,127.999 L 231.611,127.999 C 231.611,144.858 213.634,166.581 175.034,196.361 C 147.869,217.32 120.624,234.211 117.607,236.067 L 114.726,237.84 C 112.16,239.422 108.931,239.49 106.301,238.019 C 103.67,236.548 102.036,233.763 102.036,230.751 C 102.036,230.751 102.036,188.266 102.036,182.022 C 95.53,182.022 32.712,182.022 32.712,182.022 C 28.122,182.022 24.387,178.288 24.387,173.698 L 24.387,82.302 C 24.387,77.712 28.121,73.977 32.712,73.977 C 32.712,73.977 95.529,73.977 102.036,73.977 C 102.036,67.734 102.036,25.248 102.036,25.248 C 102.036,22.234 103.671,19.449 106.303,17.98 C 108.931,16.509 112.16,16.577 114.728,18.158 z" />
      <path
         id="path3712"
         style="fill:url(#linearGradient3722)"
         d="M 112.839,21.224 L 115.72,22.997 L 115.72,22.997 C 118.724,24.847 145.858,41.673 172.836,62.487 C 209.964,91.132 228.012,112.562 228.012,128 C 228.012,143.438 209.964,164.866 172.836,193.512 C 145.874,214.314 118.728,231.153 115.72,233.003 L 112.839,234.776 C 111.381,235.674 109.551,235.714 108.058,234.879 C 106.563,234.043 105.637,232.465 105.637,230.753 C 105.637,230.753 105.637,186.373 105.637,178.424 C 97.303,178.424 32.713,178.424 32.713,178.424 C 30.104,178.424 27.988,176.309 27.988,173.699 L 27.988,82.302 C 27.988,79.693 30.104,77.577 32.713,77.577 C 32.713,77.577 97.302,77.577 105.637,77.577 C 105.637,69.628 105.637,25.247 105.637,25.247 C 105.637,23.535 106.563,21.957 108.058,21.122 C 109.551,20.287 111.382,20.326 112.839,21.224 z" />
      <path
         id="path3714"
         style="fill:url(#linearGradient3724)"
         d="M 113.242,27.021 C 117.736,29.787 223.286,95.148 223.286,128 C 223.286,160.852 117.736,226.213 113.242,228.979 L 110.361,230.752 C 110.361,230.752 110.361,177.225 110.361,173.698 C 106.763,173.698 32.712,173.698 32.712,173.698 L 32.712,82.302 C 32.712,82.302 106.763,82.302 110.361,82.302 C 110.361,78.775 110.361,25.247 110.361,25.247 L 113.242,27.021 z" />
      <path
         id="path3716"
         style="fill:url(#linearGradient3726)"
         d="M 216.986,128 C 216.986,148.505 158.054,193.1 116.661,219.402 C 116.661,204.837 116.661,167.398 116.661,167.398 C 116.661,167.398 49.651,167.398 39.013,167.398 C 39.013,157.284 39.013,98.715 39.013,88.601 C 49.651,88.601 116.661,88.601 116.661,88.601 C 116.661,88.601 116.661,51.162 116.661,36.596 C 158.055,62.896 216.986,107.488 216.986,128 z" />
      <path
         id="path3718"
         style="fill:url(#linearGradient3728)"
         d="M 155.735,80.997 L 155.735,80.997 C 195.381,111.262 201.876,125.278 202.825,128.002 C 201.875,130.728 195.37,144.745 155.735,175.002 C 148.104,180.828 139.693,186.905 130.702,193.112 C 130.702,182.05 130.702,153.359 130.702,153.359 C 130.702,153.359 61.04,153.359 53.053,153.359 C 53.053,146.292 53.053,109.709 53.053,102.641 C 61.04,102.641 130.702,102.641 130.702,102.641 C 130.702,102.641 130.702,73.949 130.702,62.887 C 139.687,69.09 148.099,75.167 155.735,80.997 z" />
    </g>
    <text
       xml:space="preserve"
       style="font-size:20px;font-style:normal;font-variant:normal;font-weight:normal;font-stretch:normal;text-align:center;line-height:100%;text-anchor:middle;fill:#000000;fill-opacity:1;stroke:none;stroke-width:1px;stroke-linecap:butt;stroke-linejoin:miter;stroke-opacity:1;font-family:RaggMoppRegular;-inkscape-font-specification:RaggMoppRegular"
       x="2.6143723"
       y="361.08218"
       id="text3734"
       sodipodi:linespacing="100%"><tspan
         sodipodi:role="line"
         x="2.6143723"
         y="361.08218"
         style="font-size:36px;font-style:normal;font-variant:normal;font-weight:bold;font-stretch:normal;text-align:center;line-height:100%;writing-mode:lr-tb;text-anchor:middle;font-family:Rehan;-inkscape-font-specification:Rehan Bold"
         id="tspan3736">Access</tspan><tspan
         sodipodi:role="line"
         x="2.6143723"
         y="397.08218"
         style="font-size:36px;font-style:normal;font-variant:normal;font-weight:bold;font-stretch:normal;text-align:center;line-height:100%;writing-mode:lr-tb;text-anchor:middle;font-family:Rehan;-inkscape-font-specification:Rehan Bold"
         id="tspan3740">Distribution</tspan></text>
  </g>
</svg>
