<?xml version="1.0" encoding="UTF-8" standalone="no"?>
<svg id="svg43182" xmlns:rdf="http://www.w3.org/1999/02/22-rdf-syntax-ns#" xmlns="http://www.w3.org/2000/svg" version="1.1" xmlns:cc="http://creativecommons.org/ns#" xmlns:dc="http://purl.org/dc/elements/1.1/" viewBox="0 0 350 350">
 <metadata id="metadata43187">
  <rdf:RDF>
   <cc:Work rdf:about="">
    <dc:format>image/svg+xml</dc:format>
    <dc:type rdf:resource="http://purl.org/dc/dcmitype/StillImage"/>
    <dc:title/>
   </cc:Work>
  </rdf:RDF>
 </metadata>
 <g id="layer13" transform="translate(0 -702.36)">
  <ellipse id="path43754" rx="125.67" ry="132.33" stroke="#000" cy="877.36" cx="175" stroke-width="18" fill="none"/>
  <path id="path44397" d="m181 745.03s6.9859-38.675 45.119-24.994c38.133 13.682 20.293 48.83 20.293 48.83l9.7082 7.0534s26.515-26.811 49.324 6.6712c22.808 33.482-12.338 50.089-12.338 50.089l3.7082 11.413s38.415-7.2234 37.187 33.271c-1.2282 40.494-37.187 33.271-37.187 33.271l-3.7082 11.413s35.146 16.607 12.338 50.089-49.324 6.6712-49.324 6.6712l-9.7082 7.0534s17.84 35.148-20.293 48.83c-38.13 13.7-45.12-25-45.12-25h-12s-6.9859 38.675-45.119 24.994c-38.133-13.682-20.293-48.83-20.293-48.83l-9.7082-7.0534s-26.515 26.811-49.324-6.6712c-22.808-33.482 12.338-50.089 12.338-50.089l-3.7082-11.413s-35.959 7.2234-37.187-33.271c-1.2282-40.494 37.187-33.271 37.187-33.271l3.7082-11.413s-35.146-16.607-12.338-50.089 49.324-6.6712 49.324-6.6712l9.7082-7.0534s-17.84-35.148 20.293-48.83c38.13-13.7 45.12 24.98 45.12 24.98z" stroke="#000" stroke-width="18" fill="none"/>
  <path id="path44430" d="m104.25 812.36s37.127-32.602 77.75-29.75c52.57 3.6914 62.552 51.133 66.5 53.5 3.9 2.3383 19.19-17.764 25.5 12.5 4.9811 23.891-18.254 12.344-20.917 23.833-2.8652 12.365 27.04 19.45 15.417 46.917-5.5028 13.004-31.992 3.2726-36.225-5.0626-7.4422-14.653-16.878-27.275-22.691-23.354-10.714 7.226 19.28 36.227-0.0833 38.417-22.271 2.5183-22.75-45.322-37.167-41.417-12.598 3.4124 8.5904 33.749-4.8333 38.667-15.312 5.6093-23.31-49.806-38.583-39.667-12.832 8.5192 23.286 44.491 38.083 56.917 27.689 23.251 66 14.917 66 14.917s-18.794 17.374-75.75 10.667c-21.895-2.5783-44.781-23.499-50.167-46.333-1.5962-6.7682-3.619-3.7051-10.044 2.1747-4.9706 4.5489-16.815 1.6186-19.123-11.591-4.978-28.5 17.527-13.19 22.834-27.34 2.27-6.06-2.732-10.62-11.199-15.88-8.658-5.39-13.769-20.58-5.551-34.87 16.463-28.616 46.967 39.917 63 34.25 11.464-4.052-9.4153-38.123 2.0833-40.5 21.171-4.3769 21.414 47.132 36.667 42.5 3.5692-1.084 7.3006-13.561 4.5761-20.403-3.6772-9.235-5.5716-20.05 1.1739-22.597 14.698-5.5489 21.599 39.824 34.5 33 13.732-7.2639-12.643-49.233-43.75-53.5-25.793-3.5385-78 4-78 4z" fill-rule="evenodd"/>
 </g>
</svg>
