<?xml version="1.0" standalone="no"?>
<?xml-stylesheet 
      type="text/css" href="map.css"
    ?><svg xmlns:x="http://ns.adobe.com/Extensibility/1.0/" xmlns:i="http://ns.adobe.com/AdobeIllustrator/10.0/" xmlns:graph="http://ns.adobe.com/Graphs/1.0/" xmlns="http://www.w3.org/2000/svg" xmlns:xlink="http://www.w3.org/1999/xlink" xmlns:a="http://ns.adobe.com/AdobeSVGViewerExtensions/3.0/" width="100%" height="100%" viewBox="0 0 587.873 649.013" style="overflow:visible;enable-background:new 0 0 587.873 649.013" xml:space="preserve" a:scriptImplementation="Adobe">
      <script xmlns:svg="http://www.w3.org/2000/svg" xmlns:html="http://www.w3.org/1999/xhtml" type="text/ecmascript" a:scriptImplementation="Adobe" xlink:href="coordinate.js"/>
      <script xmlns:svg="http://www.w3.org/2000/svg" xmlns:html="http://www.w3.org/1999/xhtml" type="text/ecmascript" a:scriptImplementation="Adobe" xlink:href="translate_to_user.js"/>
      <script xmlns:svg="http://www.w3.org/2000/svg" xmlns:html="http://www.w3.org/1999/xhtml" type="text/ecmascript" a:scriptImplementation="Adobe" xlink:href="load_file.js"/>
      <script xmlns:svg="http://www.w3.org/2000/svg" xmlns:html="http://www.w3.org/1999/xhtml" type="text/ecmascript" a:scriptImplementation="Adobe" xlink:href="add_cities.js"/>
      <script xmlns:svg="http://www.w3.org/2000/svg" xmlns:html="http://www.w3.org/1999/xhtml" type="text/ecmascript" a:scriptImplementation="Adobe" xlink:href="add_volunteers.js"/>
      <metadata xmlns:svg="http://www.w3.org/2000/svg" xmlns:html="http://www.w3.org/1999/xhtml"><html:link html:rel="volunteers" html:href="roster/volunteers.xml"/><html:link html:rel="geodata" html:href="mauritania.xml"/></metadata>
	
	<metadata>
		<sfw xmlns="http://ns.adobe.com/SaveForWeb/1.0/">
			<slices/>
			<sliceSourceBounds y="46.643" x="11.162" width="587.873" height="649.013" bottomLeftOrigin="true"/>
		</sfw>
	</metadata>
	<g id="Border_1_">
		<path class="st0" d="M249.084,646.081c8.068-5.763,4.355-32.584,13.255-31.122c3.042,0.499,3.174-7.652,6.916-6.917    c8.645,3.458,19.692,10.062,34.139,24.508c3.673-2.203,0-6.609,4.406-13.952c1.469-5.142,2.937-10.282,10.281-6.61    c10.949,0,22.766,7.344,33.047,7.344c13.219,0,20.294-5.943,26.438-4.406c3.261-2.125-1.852-8.308,0.326-10.357    c4.287-4.042,7.155-2.418,7.752-2.861v8.813l188.277,0.771l7.224-46.952l-10.376-8.07l-61.858-436.167l77.489-9.322L409.589,0.916    l1.807,63.205l-158.915,3.611l-3.612,130.021c-32.505-1.806-48.757,14.447-50.563,30.699l3.611,77.651l-166.099,0.96    c0,0-19.595-7.493-24.206-5.188C7.002,304.182,0.739,317.116,0.5,319.741c-0.519,5.74,1.273,0.705,3.62,10.95    c3.019-6.939,5.423-13.652,5.764-17.289c0.229-2.438,10.456,34.062,13.255,28.816c37.923,14.447,4.38,51.084,5.417,63.205    c25.282,39.729,43.34,45.146-3.447,151.965c0,0-6.653,18.614-3.716,20.083c3.537,1.769,9.546-22.031,17.625-26.438    c6.609,8.08,33.715-1.651,38.833-3.332c11.527,2.307,25.359-3.457,32.851-2.881c3.727,1.317,18.443,4.611,24.206,4.611    c7.76,5.977,8.069,9.221,9.222,16.712c4.871,5.986,12.679,9.799,24.782,12.104c5.231-2.245,11.107,25.661,27.149,32.101    c11.863,6.046,3.786,11.186,13.255,18.442c5.587,4.282,9.623-0.647,19.019,17.29C228.336,646.081,241.015,651.845,249.084,646.081    z"/>
	</g>
<defs>
    <circle id="target" r="5%">
      <animate attributeType="XML" attributeName="r" dur="1s" repeatCount="indefinite" from="5%" to=".5%"/>
      <animate attributeType="CSS" attributeName="stroke-width" calcMode="paced" dur="1s" from="4" to="1" repeatCount="indefinite"/>
      <animate attributeType="CSS" attributeName="opacity" calcMode="paced" dur="1s" from="0" to="1" repeatCount="indefinite"/>
    </circle>
  </defs></svg>
