<?xml version="1.0" encoding="UTF-8" standalone="no"?>
<svg
   xmlns:dc="http://purl.org/dc/elements/1.1/"
   xmlns:cc="http://creativecommons.org/ns#"
   xmlns:rdf="http://www.w3.org/1999/02/22-rdf-syntax-ns#"
   xmlns:svg="http://www.w3.org/2000/svg"
   xmlns="http://www.w3.org/2000/svg"
   version="1.1"
   id="svg2"
   viewBox="0 0 220 220">
  <defs
     id="defs4" />
  <metadata
     id="metadata7">
    <rdf:RDF>
      <cc:Work
         rdf:about="">
        <dc:format>image/svg+xml</dc:format>
        <dc:type
           rdf:resource="http://purl.org/dc/dcmitype/StillImage" />
        <dc:title></dc:title>
      </cc:Work>
    </rdf:RDF>
  </metadata>
  <g
     style="display:inline"
     id="layer2">
    <path
       id="path4711"
       d="m 65.642576,3.3144531 0,53.3124999 c 9.36507,0 11.883567,-0.0535 17.679687,0 l 0.04688,9.921875 c -2.03585,27.999091 -14.475336,46.239472 -35.978516,55.814452 -9.782355,4.2458 -18.993923,6.09851 -29.017578,6.08789 -15.1076302,15.86646 -14.7693101,28.02575 -15.1562501,40.5 l 0.1774553,16.86524 17.4921878,0.004 c 29.9837,1.01017 63.482841,4.10844 76.486607,25.07227 1.11207,1.79281 3.410151,5.49132 3.410151,7.87304 3.67278,0.005 7.08675,-0.11648 10.16407,-0.11718 3.07732,7e-4 6.21197,0.12215 9.88476,0.11718 0,-2.38172 2.30004,-6.08023 3.41211,-7.87304 13.00377,-20.96383 46.50096,-24.0621 76.48466,-25.07227 l 17.49218,-0.004 0.17746,-16.86524 c -0.38694,-12.47425 -0.0486,-24.63354 -15.15625,-40.5 -10.10261,0.21355 -19.7297,-2.01461 -29.01758,-6.08789 -21.50318,-9.57498 -33.94267,-27.815359 -35.97852,-55.814452 l 0.0488,-9.921875 c 5.79612,-0.0535 8.31462,0 17.67969,0 l 0,-53.3124999 z M 82.003319,19.761719 c 18.941401,0.0036 38.667191,0.0015 57.608601,0 l 0,19.856281 -5.96683,1.016766 c -10.27639,1.662646 -13.2738,9.515757 -11.76507,29.387106 1.07122,14.952608 4.79913,27.794941 13.17076,40.494138 13.63026,20.46709 33.09251,30.86349 58.52539,31.5211 7.01419,9.93148 8.58318,15.26805 8.42607,27.48828 -41.42096,-0.65691 -73.25107,6.95797 -91.05497,30.51367 C 93.143367,176.48336 61.035913,168.86848 19.614953,169.52539 19.457827,157.30516 21.024872,151.96859 28.03906,142.03711 53.47194,141.3795 72.936144,130.9831 86.566404,110.51601 94.938036,97.816815 98.665943,84.974484 99.737163,70.021872 101.24589,50.150523 98.246529,42.297412 87.970143,40.634766 L 82.003319,39.618 Z"
       style="fill:#000000;stroke:none;stroke-opacity:1" />
  </g>
</svg>
