<?xml version="1.0" encoding="UTF-8" standalone="no"?>
<!-- Created with Inkscape (http://www.inkscape.org/) -->

<svg
   viewBox="-60 -60 61.857784 27.185732"
   sodipodi:docname="svg.svg"
   version="1.1"
   inkscape:version="1.4 (e7c3feb100, 2024-10-09)"
   id="svg1"
   inkscape:export-filename="/home/dys/Documents/¡Boo!.png"
   inkscape:export-xdpi="198.64922"
   inkscape:export-ydpi="198.64922"
   xmlns:inkscape="http://www.inkscape.org/namespaces/inkscape"
   xmlns:sodipodi="http://sodipodi.sourceforge.net/DTD/sodipodi-0.dtd"
   xmlns:xlink="http://www.w3.org/1999/xlink"
   xmlns="http://www.w3.org/2000/svg"
   xmlns:svg="http://www.w3.org/2000/svg"
   xmlns:rdf="http://www.w3.org/1999/02/22-rdf-syntax-ns#"
   xmlns:cc="http://creativecommons.org/ns#"
   xmlns:dc="http://purl.org/dc/elements/1.1/">
  <defs
     id="defs3">
    <linearGradient
       id="linearGradient26"
       inkscape:collect="always">
      <stop
         style="stop-color:#fd8100;stop-opacity:1;"
         offset="0"
         id="stop27" />
      <stop
         style="stop-color:#80562a;stop-opacity:1;"
         offset="1"
         id="stop28" />
    </linearGradient>
    <linearGradient
       id="linearGradient23"
       inkscape:collect="always">
      <stop
         style="stop-color:#cd0000;stop-opacity:1;"
         offset="0"
         id="stop24" />
      <stop
         style="stop-color:#b50255;stop-opacity:1;"
         offset="0.29455611"
         id="stop26" />
      <stop
         style="stop-color:#9102c8;stop-opacity:1;"
         offset="0.49965549"
         id="stop25" />
      <stop
         style="stop-color:#100cff;stop-opacity:1;"
         offset="1"
         id="stop23" />
    </linearGradient>
    <linearGradient
       id="linearGradient14"
       inkscape:collect="always">
      <stop
         style="stop-color:#593c1d;stop-opacity:1;"
         offset="0"
         id="stop15" />
      <stop
         style="stop-color:#53381b;stop-opacity:1;"
         offset="0.60286975"
         id="stop20" />
      <stop
         style="stop-color:#653200;stop-opacity:1;"
         offset="0.66080904"
         id="stop17" />
      <stop
         style="stop-color:#b4793b;stop-opacity:1;"
         offset="1"
         id="stop16" />
    </linearGradient>
    <linearGradient
       id="linearGradient12"
       inkscape:collect="always">
      <stop
         style="stop-color:#0318bd;stop-opacity:1;"
         offset="0"
         id="stop12" />
      <stop
         style="stop-color:#115e9f;stop-opacity:1;"
         offset="0.42777273"
         id="stop14" />
      <stop
         style="stop-color:#ae001c;stop-opacity:1;"
         offset="1"
         id="stop13" />
    </linearGradient>
    <radialGradient
       inkscape:collect="always"
       xlink:href="#linearGradient12"
       id="radialGradient19"
       cx="-20.167694"
       cy="-14.76293"
       fx="-20.167694"
       fy="-14.76293"
       r="8.1191502"
       gradientTransform="matrix(0.96582957,0.2386161,-0.64722245,2.6197167,-11.202225,29.886192)"
       gradientUnits="userSpaceOnUse" />
    <radialGradient
       inkscape:collect="always"
       xlink:href="#linearGradient14"
       id="radialGradient20"
       cx="-19.591967"
       cy="-16.560184"
       fx="-19.591967"
       fy="-16.560184"
       r="9.4120903"
       gradientTransform="matrix(-0.28507464,2.0802146,-1.4308331,-0.19608264,-49.006437,20.54446)"
       gradientUnits="userSpaceOnUse" />
    <radialGradient
       inkscape:collect="always"
       xlink:href="#linearGradient23"
       id="radialGradient24"
       cx="27.733494"
       cy="22.645227"
       fx="27.733494"
       fy="22.645227"
       r="2.897017"
       gradientTransform="matrix(1,0,0,0.95029784,0,1.1255167)"
       gradientUnits="userSpaceOnUse" />
    <radialGradient
       inkscape:collect="always"
       xlink:href="#linearGradient26"
       id="radialGradient28"
       cx="28.156462"
       cy="16.696724"
       fx="28.156462"
       fy="16.696724"
       r="3.859937"
       gradientTransform="matrix(1,0,0,2.6133634,0,-26.937884)"
       gradientUnits="userSpaceOnUse" />
  </defs>
  <sodipodi:namedview
     pagecolor="#ffffff"
     bordercolor="#666666"
     borderopacity="1.0"
     inkscape:pageopacity="0.0"
     inkscape:pageshadow="2"
     inkscape:zoom="8"
     inkscape:cx="-19.4375"
     inkscape:cy="21.875"
     inkscape:document-units="mm"
     inkscape:current-layer="Template"
     showgrid="false"
     units="mm"
     showguides="true"
     inkscape:guide-bbox="true"
     inkscape:snap-global="true"
     inkscape:snap-bbox="true"
     inkscape:snap-bbox-midpoints="true"
     inkscape:window-width="3440"
     inkscape:window-height="1359"
     inkscape:window-x="0"
     inkscape:window-y="282"
     inkscape:window-maximized="1"
     inkscape:bbox-paths="true"
     inkscape:bbox-nodes="true"
     inkscape:snap-bbox-edge-midpoints="true"
     inkscape:snap-grids="true"
     id="namedview1"
     inkscape:showpageshadow="2"
     inkscape:pagecheckerboard="0"
     inkscape:deskcolor="#d1d1d1">
    <sodipodi:guide
       orientation="1,0"
       position="198.78805,256.44178"
       id="guide2827"
       inkscape:locked="false" />
    <sodipodi:guide
       orientation="0,1"
       position="198.78805,256.44178"
       id="guide2829"
       inkscape:locked="false" />
    <inkscape:grid
       type="xygrid"
       id="grid3072"
       empspacing="10"
       visible="true"
       enabled="true"
       snapvisiblegridlinesonly="true"
       units="mm"
       dotted="false"
       spacingx="0.1mm"
       spacingy="0.1mm"
       originx="-27.983602"
       originy="-29.670127" />
  </sodipodi:namedview>
  <metadata
     id="metadata2822">
    <rdf:RDF>
      <cc:Work
         rdf:about="">
        <dc:format>image/svg+xml</dc:format>
        <dc:type
           rdf:resource="http://purl.org/dc/dcmitype/StillImage" />
      </cc:Work>
    </rdf:RDF>
  </metadata>
  <g
     inkscape:label="Layer 1"
     inkscape:groupmode="layer"
     id="Template"
     style="fill:none;stroke:#000000;stroke-width:0.05"
     transform="translate(-27.983601,-29.670127)">
    <g
       id="g28"
       style="stroke:#f1f1f1;stroke-opacity:1">
      <g
         id="g37"
         style="stroke:#f1f1f1;stroke-opacity:1">
        <path
           id="path10"
           style="font-size:24.1671px;line-height:1;font-family:'Agent Orange';-inkscape-font-specification:'Agent Orange, Normal';text-align:center;letter-spacing:-0.515938px;word-spacing:-4.70429px;text-anchor:middle;fill:url(#radialGradient20);stroke:#f1f1f1;stroke-width:0.674688;stroke-opacity:1"
           d="m -22.943347,-29.992529 c -3.753956,0 -5.631181,0.483355 -5.631181,1.45004 0,0.918349 0.04854,2.295865 0.145211,4.132565 0.09667,1.820588 0.145211,3.189926 0.145211,4.108276 0,7.524024 0.281527,12.1639379 0.845426,13.9200806 0.161114,0.4994534 0.475347,0.9020784 0.942578,1.208195 l 0.845943,0.8459432 c 0.563899,0.5638991 1.755937,0.8459432 3.576526,0.8459432 3.318949,0 5.985587,-0.7168584 7.999512,-2.1507731 2.320042,-1.6433629 3.479891,-4.0601462 3.479891,-7.2502039 0,-1.868923 -0.515546,-3.29498 -1.546676,-4.277775 l -0.604097,-0.579809 c -0.09667,-0.128891 -0.169224,-0.217283 -0.217558,-0.265617 l 0.797884,-0.845943 c 0.177225,-0.193337 0.362185,-0.426839 0.555522,-0.700733 0.789459,-1.143909 1.184424,-2.239897 1.184424,-3.287138 0,-1.38558 -0.459344,-2.521416 -1.377694,-3.407543 l -0.652673,-0.628386 c -0.531676,-0.741124 -1.296561,-1.369074 -2.295468,-1.884639 -1.562805,-0.80557 -3.375652,-1.208712 -5.437911,-1.208712 h -0.241329 c -0.128891,-0.01611 -0.258165,-0.02377 -0.387056,-0.02377 z m 1.810742,6.941695 h 0.57981 c 2.158928,0 3.238562,0.362259 3.238562,1.087272 0,1.127798 -0.797591,1.691886 -2.392619,1.691886 -0.145003,0 -0.354492,-0.0082 -0.628386,-0.02429 -0.257782,-0.03222 -0.459094,-0.04806 -0.604097,-0.04806 -0.128891,-1.224466 -0.19327,-2.1268 -0.19327,-2.706811 z m 0.265617,7.90236 c 0.676679,0.09667 1.224414,0.177399 1.64331,0.241846 0.741124,0.11278 1.232658,0.298256 1.474329,0.556038 0.128891,0.145003 0.274002,0.402517 0.435116,0.773079 0.177225,0.354451 0.265616,0.620142 0.265616,0.797368 0,0.547787 -0.426638,1.015307 -1.280542,1.401981 -0.725013,0.322228 -1.385669,0.483175 -1.981791,0.483175 -0.46723,0 -0.700732,-0.386789 -0.700732,-1.160136 0,-0.966684 0.04802,-1.997776 0.144694,-3.093351 z" />
        <path
           id="path9"
           style="font-size:24.1671px;line-height:1;font-family:'Agent Orange';-inkscape-font-specification:'Agent Orange, Normal';text-align:center;letter-spacing:-0.515938px;word-spacing:-4.70429px;text-anchor:middle;fill:url(#radialGradient19);stroke:#f1f1f1;stroke-width:0.674688;stroke-opacity:1"
           d="m -22.943347,-29.267509 c -3.270614,0 -4.906161,0.241677 -4.906161,0.72502 0,0.918349 0.04854,2.295865 0.145211,4.132565 0.09667,1.820588 0.144694,3.189926 0.144694,4.108276 0,7.36291 0.274385,11.9302687 0.822172,13.7025228 0.177225,0.5800105 0.668241,0.9586226 1.473812,1.135848 0.370562,0.080557 1.031218,0.1209229 1.981791,0.1209229 3.141723,0 5.655074,-0.6524798 7.540108,-1.9575033 2.191151,-1.5144717 3.286622,-3.7779684 3.286622,-6.7908004 0,-1.143909 -0.233502,-2.134635 -0.700733,-2.972428 -0.531676,-0.966684 -1.32109,-1.554785 -2.368331,-1.764233 1.047241,-0.982795 1.772276,-1.756373 2.175061,-2.320272 0.708902,-0.998907 1.063501,-1.965621 1.063501,-2.900082 0,-1.772254 -0.926347,-3.125756 -2.779158,-4.060217 -1.49836,-0.757235 -3.206462,-1.135848 -5.123719,-1.135848 h -0.314192 c -0.128891,-0.01607 -0.257649,-0.02377 -0.38654,-0.02377 z m 0.628385,5.147489 h 0.57981 c 2.158928,0 3.238562,0.362259 3.238562,1.087273 0,1.127798 -0.79759,1.691886 -2.392619,1.691886 -0.145003,0 -0.354491,-0.0082 -0.628385,-0.02429 -0.257782,-0.03222 -0.459095,-0.04806 -0.604098,-0.04806 -0.128891,-1.224466 -0.19327,-2.126801 -0.19327,-2.706812 z m 0.265617,7.90236 c 0.676679,0.09667 1.224414,0.1774 1.643311,0.241846 0.741124,0.11278 1.232657,0.298257 1.474328,0.556039 0.128892,0.145002 0.274002,0.402516 0.435116,0.773079 0.177225,0.354451 0.265617,0.620142 0.265617,0.797367 0,0.547788 -0.426638,1.015308 -1.280542,1.401982 -0.725014,0.322228 -1.385669,0.483175 -1.981791,0.483175 -0.467231,0 -0.700733,-0.386789 -0.700733,-1.160136 0,-0.966684 0.04802,-1.997776 0.144694,-3.093352 z" />
      </g>
    </g>
    <g
       id="g2"
       style="stroke:#eefef0;stroke-opacity:1">
      <path
         id="path34"
         style="font-size:14.1111px;line-height:1;font-family:'Agent Orange';-inkscape-font-specification:'Agent Orange, Normal';text-align:center;letter-spacing:-0.515938px;word-spacing:-4.70429px;text-anchor:middle;opacity:1;fill:#3e474c;fill-opacity:1;stroke:#eefef0;stroke-width:0.674688;stroke-opacity:1"
         d="m 12.86532,-21.847807 c -1.175926,0 -2.370723,0.428086 -3.5842775,1.28416 -1.1006659,0.771406 -2.0038404,1.717038 -2.7093954,2.836519 -0.7902216,1.241777 -1.1854573,2.47397 -1.1854573,3.696932 0,2.229553 0.7151639,3.979293 2.1450887,5.2492919 0.1034814,0.075259 0.1974867,0.155112 0.2821533,0.2397786 l 0.1834513,0.1834513 c 1.4111099,1.4111101 3.2877049,2.1166667 5.6301469,2.1166667 1.91911,0 3.541994,-0.7004946 4.868437,-2.1021973 1.298221,-1.3640732 1.947168,-3.0152622 1.947168,-4.9531862 0,-2.718738 -0.667644,-4.745948 -2.003495,-6.081799 l -0.240296,-0.239779 c -1.175925,-1.486369 -2.953452,-2.229838 -5.333524,-2.229838 z m 1.083655,5.1139 c 0.733777,0 1.307416,0.253711 1.721342,0.761711 0.385703,0.47037 0.578776,1.077376 0.578776,1.82056 0,0.865481 -0.23553,1.61804 -0.7059,2.257744 -0.517407,0.705555 -1.194659,1.058333 -2.031918,1.058333 -0.771406,0 -1.39711,-0.21177 -1.876888,-0.635103 -0.479778,-0.423333 -0.719336,-1.01567 -0.719336,-1.77767 0,-0.799629 0.300714,-1.571402 0.902788,-2.314587 0.639703,-0.780814 1.350322,-1.170988 2.131136,-1.170988 z" />
      <path
         id="path33"
         style="font-size:14.1111px;line-height:1;font-family:'Agent Orange';-inkscape-font-specification:'Agent Orange, Normal';text-align:center;letter-spacing:-0.515938px;word-spacing:-4.70429px;text-anchor:middle;fill:#ae703b;fill-opacity:1;stroke:#eefef0;stroke-width:0.674688;stroke-opacity:1"
         d="m 12.86532,-21.424577 c -1.091259,0 -2.197113,0.395236 -3.3165936,1.185458 -1.0348141,0.733777 -1.8955311,1.632406 -2.5822713,2.695442 -0.7714068,1.19474 -1.1570353,2.365778 -1.1570353,3.513481 0,2.107257 0.6630992,3.762991 1.9895426,4.9671385 1.2794065,1.1571103 2.9872046,1.7358114 5.1226846,1.7358114 1.806221,0 3.334582,-0.6630992 4.585767,-1.9895426 1.232369,-1.2982213 1.848982,-2.8599503 1.848982,-4.6849853 0,-2.304813 -0.494302,-4.082857 -1.48208,-5.334041 -1.100665,-1.392296 -2.770035,-2.088762 -5.008996,-2.088762 z m 0.183451,3.626652 c 0.733777,0 1.307417,0.254228 1.721342,0.762228 0.385703,0.47037 0.578776,1.076859 0.578776,1.820044 0,0.86548 -0.23553,1.61804 -0.7059,2.257743 -0.517407,0.705555 -1.194659,1.058333 -2.031917,1.058333 -0.771407,0 -1.397111,-0.211253 -1.876888,-0.634586 -0.479778,-0.423333 -0.719336,-1.016187 -0.719336,-1.778186 0,-0.79963 0.300714,-1.570886 0.902787,-2.314071 0.639703,-0.780814 1.350322,-1.171505 2.131136,-1.171505 z" />
    </g>
    <g
       id="g1"
       style="stroke:#eefef0;stroke-opacity:1">
      <path
         id="path30"
         style="font-size:14.1111px;line-height:1;font-family:'Agent Orange';-inkscape-font-specification:'Agent Orange, Normal';text-align:center;letter-spacing:-0.515938px;word-spacing:-4.70429px;text-anchor:middle;opacity:1;fill:#ff730c;fill-opacity:1;stroke:#eefef0;stroke-width:0.674688;stroke-opacity:1"
         d="m -2.1694214,-21.847807 c -1.175925,0 -2.3707227,0.428086 -3.5842773,1.28416 -1.1006658,0.771406 -2.0038404,1.717038 -2.7093954,2.836519 -0.7902216,1.241777 -1.1849406,2.47397 -1.1849406,3.696932 0,2.229553 0.7146471,3.979293 2.144572,5.2492919 0.1034814,0.075259 0.1974867,0.155112 0.2821533,0.2397786 l 0.1834513,0.1834513 c 1.41111,1.4111101 3.2882215,2.1166667 5.6306641,2.1166667 1.91910966,0 3.5414765,-0.7004946 4.8679199,-2.1021973 1.2982212,-1.3640732 1.9476847,-3.0152622 1.9476847,-4.9531862 0,-2.718738 -0.6681612,-4.745948 -2.004012,-6.081799 L 3.16462,-19.617969 c -1.175925,-1.486369 -2.95396912,-2.229838 -5.3340414,-2.229838 z m 1.1363648,5.146973 c 0.73377718,0 1.30741659,0.253711 1.72134192,0.76171 0.38570398,0.47037 0.57877608,1.077377 0.57877608,1.820561 0,0.865481 -0.2355301,1.61804 -0.7059001,2.257744 -0.51740727,0.705555 -1.19465864,1.058333 -2.0319173,1.058333 -0.7714068,0 -1.3971106,-0.21177 -1.876888,-0.635104 -0.4797774,-0.423332 -0.719336,-1.015669 -0.719336,-1.777669 0,-0.799629 0.3007137,-1.571403 0.9027873,-2.314587 0.6397032,-0.780814 1.3503219,-1.170988 2.1311361,-1.170988 z" />
      <path
         id="path29"
         style="font-size:14.1111px;line-height:1;font-family:'Agent Orange';-inkscape-font-specification:'Agent Orange, Normal';text-align:center;letter-spacing:-0.515938px;word-spacing:-4.70429px;text-anchor:middle;fill:#074000;fill-opacity:1;stroke:#eefef0;stroke-width:0.674688;stroke-opacity:1"
         d="m -2.1363485,-21.391504 c -1.0912584,0 -2.196596,0.395236 -3.3160766,1.185457 -1.034814,0.733778 -1.8955312,1.632406 -2.5822714,2.695443 -0.7714068,1.194739 -1.1570353,2.365777 -1.1570353,3.513481 0,2.107257 0.6630992,3.762991 1.9895427,4.9671385 1.2794064,1.1571102 2.9866881,1.7358113 5.1221679,1.7358113 1.80622091,0 3.3350992,-0.6630992 4.5862834,-1.9895426 1.2323694,-1.2982212 1.848466,-2.8599502 1.848466,-4.6849852 0,-2.304814 -0.4937863,-4.082858 -1.4815633,-5.334042 -1.1006658,-1.392295 -2.7705521,-2.088761 -5.0095134,-2.088761 z m 0.1503784,3.593579 c 0.7337773,0 1.30741641,0.254228 1.72134201,0.762228 0.3857034,0.47037 0.57877604,1.076859 0.57877604,1.820044 0,0.86548 -0.2350133,1.61804 -0.7053833,2.257743 -0.51740697,0.705555 -1.19465865,1.058333 -2.03191735,1.058333 -0.7714068,0 -1.3971106,-0.211253 -1.876888,-0.634586 -0.4797774,-0.423333 -0.7198527,-1.016187 -0.7198527,-1.778186 0,-0.79963 0.3012304,-1.570886 0.903304,-2.314071 0.6397032,-0.780814 1.3498051,-1.171505 2.1306193,-1.171505 z" />
    </g>
    <g
       id="g3"
       style="stroke:#eefef0;stroke-opacity:1">
      <path
         style="font-size:21.4021px;line-height:1;font-family:'Agent Orange';-inkscape-font-specification:'Agent Orange, Normal';text-align:center;letter-spacing:-0.456907px;word-spacing:-4.16605px;text-anchor:middle;fill:#5c3b1f;fill-opacity:1;stroke:#eefef0;stroke-width:0.597493;stroke-opacity:1"
         d="m 26.48214,-29.088466 q -0.385237,-0.0428 -0.984496,-0.0428 -0.620661,0 -1.840581,0.0428 -1.198517,0.0214 -1.819178,0.0214 -0.513651,7.661952 -0.513651,9.802162 0,1.284126 0.385238,5.222112 h 0.06421 q 0.0214,-0.0214 0.0428,-0.0214 l 0.92029,0.92029 q -0.235423,0.192619 -0.535052,0.492248 -1.241322,1.284126 -1.241322,2.611056 0,1.7549726 1.369734,2.696665 l 0.642063,0.642063 q 0.963095,0.9630945 2.525448,0.9630945 1.348332,0 2.611056,-0.8988882 1.433941,-1.0273008 1.433941,-2.4398393 0,-1.754972 -1.048703,-2.760871 l -0.599259,-0.577857 q -0.171217,-0.299629 -0.663465,-0.749073 0.770476,-0.08561 1.647962,-0.321032 v -0.62066 q 0,-0.385238 0.0428,-1.134312 0.0428,-0.749073 0.0428,-1.134311 v -0.40664 q 0,-6.270815 -0.92029,-10.70105 l -0.984497,-0.984496 q -0.0214,-0.0214 -0.0214,-0.107011 z"
         id="path37" />
      <path
         style="font-size:21.4021px;line-height:1;font-family:'Agent Orange';-inkscape-font-specification:'Agent Orange, Normal';text-align:center;letter-spacing:-0.456907px;word-spacing:-4.16605px;text-anchor:middle;fill:#00c7f7;fill-opacity:0.608764;stroke:#eefef0;stroke-width:0.597493;stroke-opacity:1"
         d="m 26.41793,-28.446403 q 0.92029,4.558647 0.92029,9.117294 0,0.727672 -0.0214,1.476745 -0.0214,0.214021 -0.0428,1.32693 l -0.0214,0.920291 q 0,0.321031 -0.0214,0.51365 0,0.149815 0,0.08561 -1.005899,0.235423 -1.819179,0.235423 0.235424,0 -1.776374,-0.149814 -0.299629,-0.0214 -0.492248,-0.0214 -0.51365,0 -0.856084,0.08561 -0.321032,-3.274521 -0.321032,-4.408832 0,-1.605158 0.470847,-9.181501 1.498147,-0.0428 3.0605,-0.0428 0.535052,0 0.92029,0.0428 z"
         id="path36" />
      <path
         style="font-size:21.4021px;line-height:1;font-family:'Agent Orange';-inkscape-font-specification:'Agent Orange, Normal';text-align:center;letter-spacing:-0.456907px;word-spacing:-4.16605px;text-anchor:middle;fill:#020202;fill-opacity:1;stroke:#eefef0;stroke-width:0.597493;stroke-opacity:1"
         d="m 27.894675,-10.147608 q 0,1.1557134 -1.177115,1.9903952 -1.091508,0.7704756 -2.290025,0.7704756 -1.21992,0 -2.0332,-0.7276714 -0.791877,-0.7276713 -0.791877,-1.9261894 0,-1.091507 1.048703,-2.183014 1.048703,-1.112909 2.14021,-1.112909 1.412538,0 2.24722,0.898888 0.856084,0.877486 0.856084,2.290025 z"
         id="text5" />
    </g>
    <g
       id="g29"
       inkscape:label="¡"
       transform="translate(0,0.03125)"
       style="stroke:#f1f1f1;stroke-opacity:1">
      <path
         style="font-size:17.9985px;line-height:1;font-family:'Agent Orange';-inkscape-font-specification:'Agent Orange, Normal';text-align:center;letter-spacing:2.46311px;word-spacing:-3.50352px;text-anchor:middle;fill:url(#radialGradient28);stroke:#f1f1f1;stroke-width:0.502475;stroke-opacity:1"
         d="m 29.191377,6.8965405 q -0.323973,-0.035997 -0.827931,-0.035997 -0.521956,0 -1.547871,0.035997 -1.007916,0.017999 -1.529872,0.017999 -0.431964,6.4434635 -0.431964,8.2433135 0,1.07991 0.323973,4.391635 h 0.05399 q 0.018,-0.018 0.036,-0.018 l 0.773936,0.773936 q -0.197984,0.161986 -0.449963,0.413965 -1.043913,1.07991 -1.043913,2.195817 0,1.475877 1.151904,2.267811 l 0.539955,0.539955 q 0.809933,0.809933 2.123823,0.809933 1.133906,0 2.195817,-0.755936 1.2059,-0.863929 1.2059,-2.05183 0,-1.475877 -0.881927,-2.321807 l -0.503958,-0.485959 q -0.143988,-0.251979 -0.557953,-0.629948 0.647946,-0.07199 1.385884,-0.269977 V 19.49549 q 0,-0.323973 0.036,-0.95392 0.036,-0.629948 0.036,-0.953921 v -0.341972 q 0,-5.273559 -0.773935,-8.9992494 L 29.677332,7.418497 q -0.018,-0.017999 -0.018,-0.089993 z"
         transform="scale(-1)"
         id="path23" />
      <path
         style="font-size:17.9985px;line-height:1;font-family:'Agent Orange';-inkscape-font-specification:'Agent Orange, Normal';text-align:center;letter-spacing:2.46311px;word-spacing:-3.50352px;text-anchor:middle;fill:#2f8d31;fill-opacity:1;stroke:#f1f1f1;stroke-width:0.502475;stroke-opacity:1"
         d="m 29.137377,7.4364955 q 0.773935,3.8336805 0.773935,7.6673615 0,0.611949 -0.018,1.241896 -0.018,0.179985 -0.036,1.115908 l -0.018,0.773935 q 0,0.269978 -0.018,0.431964 0,0.12599 0,0.07199 -0.84593,0.197984 -1.529873,0.197984 0.197984,0 -1.493875,-0.12599 -0.251979,-0.018 -0.413966,-0.018 -0.431964,0 -0.71994,0.07199 -0.269977,-2.753771 -0.269977,-3.707692 0,-1.349887 0.395967,-7.7213565 1.259895,-0.035997 2.573785,-0.035997 0.449963,0 0.773936,0.035997 z"
         transform="scale(-1)"
         id="path22" />
      <path
         style="font-size:17.9985px;line-height:1;font-family:'Agent Orange';-inkscape-font-specification:'Agent Orange, Normal';text-align:center;letter-spacing:2.46311px;word-spacing:-3.50352px;text-anchor:middle;fill:url(#radialGradient24);stroke:#f1f1f1;stroke-width:0.502475;stroke-opacity:1"
         d="m 30.379273,22.825214 q 0,0.971919 -0.989917,1.67386 -0.917924,0.647946 -1.92584,0.647946 -1.025914,0 -1.709857,-0.611949 -0.665945,-0.611949 -0.665945,-1.619865 0,-0.917923 0.881927,-1.835847 0.881926,-0.935922 1.79985,-0.935922 1.187901,0 1.889842,0.755937 0.71994,0.737939 0.71994,1.92584 z"
         transform="scale(-1)"
         id="text4" />
    </g>
  </g>
</svg>
