<?xml version="1.0" encoding="iso-8859-1"?>
<!-- Generator: Adobe Illustrator 13.0.0, SVG Export Plug-In . SVG Version: 6.00 Build 14948)  -->
<!DOCTYPE svg PUBLIC "-//W3C//DTD SVG 1.1//EN" "http://www.w3.org/Graphics/SVG/1.1/DTD/svg11.dtd">
<svg version="1.1" id="Layer_1" xmlns="http://www.w3.org/2000/svg" xmlns:xlink="http://www.w3.org/1999/xlink"
     viewBox="0 0 300 250" style="enable-background:new 0 0 300 250;" xml:space="preserve">
<path style="fill:#C2B9B5;" d="M148.532,244.494c78.688,0,142.483-51.56,142.483-115.164c0-63.601-63.795-115.164-142.483-115.164
	S6.052,65.729,6.052,129.33C6.052,192.935,69.844,244.494,148.532,244.494"/>
<path style="fill:#C2B9B5;" d="M149.334,125.589"/>
<linearGradient id="SVGID_1_" gradientUnits="userSpaceOnUse" x1="300.8389" y1="271.2021" x2="-4.1611" y2="-34.7979">
	<stop  offset="0" style="stop-color:#7D1517"/>
	<stop  offset="0.1665" style="stop-color:#AE2729"/>
	<stop  offset="0.37" style="stop-color:#EF3E42"/>
	<stop  offset="0.3805" style="stop-color:#F04649"/>
	<stop  offset="0.3964" style="stop-color:#F15B5E"/>
	<stop  offset="0.4159" style="stop-color:#F47D80"/>
	<stop  offset="0.438" style="stop-color:#F8ADAF"/>
	<stop  offset="0.4622" style="stop-color:#FDEAEA"/>
	<stop  offset="0.47" style="stop-color:#FFFFFF"/>
	<stop  offset="0.472" style="stop-color:#FFF9F9"/>
	<stop  offset="0.4957" style="stop-color:#F9B7B9"/>
	<stop  offset="0.5172" style="stop-color:#F58386"/>
	<stop  offset="0.5357" style="stop-color:#F25D61"/>
	<stop  offset="0.5506" style="stop-color:#F0464A"/>
	<stop  offset="0.56" style="stop-color:#EF3E42"/>
	<stop  offset="0.6073" style="stop-color:#DA3539"/>
	<stop  offset="0.7402" style="stop-color:#A21E20"/>
	<stop  offset="0.8547" style="stop-color:#7A0E0F"/>
	<stop  offset="0.945" style="stop-color:#610404"/>
	<stop  offset="1" style="stop-color:#580000"/>
</linearGradient>
<path style="fill:url(#SVGID_1_);" d="M153.148,238.189c78.688,0,142.478-51.563,142.478-115.162
	c0-63.604-63.79-115.164-142.478-115.164c-78.69,0-142.482,51.56-142.482,115.164C10.667,186.627,74.458,238.189,153.148,238.189"/>
<path style="fill:#FFFFFF;" d="M153.538,225.72c70.087,0,126.905-46.02,126.905-102.787c0-56.764-56.818-102.783-126.905-102.783
	c-70.089,0-126.908,46.019-126.908,102.783C26.63,179.7,83.449,225.72,153.538,225.72"/>
<path style="fill:#FFFFFF;" d="M153.538,122.933"/>
<linearGradient id="SVGID_2_" gradientUnits="userSpaceOnUse" x1="154.3057" y1="120.8335" x2="154.3057" y2="44.8335">
	<stop  offset="0" style="stop-color:#00529F"/>
	<stop  offset="0.121" style="stop-color:#00458B"/>
	<stop  offset="0.3076" style="stop-color:#003674"/>
	<stop  offset="0.5068" style="stop-color:#002B63"/>
	<stop  offset="0.7253" style="stop-color:#002459"/>
	<stop  offset="1" style="stop-color:#002256"/>
</linearGradient>
<path style="fill:url(#SVGID_2_);" d="M154.306,219.138c67.19,0,121.663-43.672,121.663-97.54
	c0-53.869-54.473-97.542-121.663-97.542S32.643,67.729,32.643,121.598C32.643,175.466,87.115,219.138,154.306,219.138"/>
<path d="M153.887,122.338"/>
<linearGradient id="SVGID_3_" gradientUnits="userSpaceOnUse" x1="186.6357" y1="80.1108" x2="201.3018" y2="28.7773">
	<stop  offset="0" style="stop-color:#00529F"/>
	<stop  offset="0.2536" style="stop-color:#0254A0"/>
	<stop  offset="0.3909" style="stop-color:#0A59A3"/>
	<stop  offset="0.5003" style="stop-color:#1862A8"/>
	<stop  offset="0.5952" style="stop-color:#2B6FAF"/>
	<stop  offset="0.6805" style="stop-color:#4480B9"/>
	<stop  offset="0.759" style="stop-color:#6395C4"/>
	<stop  offset="0.8324" style="stop-color:#88AED2"/>
	<stop  offset="0.9016" style="stop-color:#B3CBE2"/>
	<stop  offset="0.9652" style="stop-color:#E2EBF4"/>
	<stop  offset="1" style="stop-color:#FFFFFF"/>
</linearGradient>
<path style="fill:url(#SVGID_3_);" d="M207.863,58.572c0.539-7.841-2.043-15.765-3.639-22.026
	c-8.847-3.33-17.764-5.423-28.429-7.237c-2.336-0.38-0.44,1.083-0.44,1.083c5.322,3.837,16.743,11.557,18.6,38.254
	c0,0,0.681,5.226,2.598,6.271c1.914,1.045,7.77,6.914,14.583,12.105C209.673,81.571,206.875,72.911,207.863,58.572"/>
<linearGradient id="SVGID_4_" gradientUnits="userSpaceOnUse" x1="209.915" y1="105.814" x2="245.915" y2="51.147">
	<stop  offset="0" style="stop-color:#00529F"/>
	<stop  offset="0.2536" style="stop-color:#0254A0"/>
	<stop  offset="0.3909" style="stop-color:#0A59A3"/>
	<stop  offset="0.5003" style="stop-color:#1862A8"/>
	<stop  offset="0.5952" style="stop-color:#2B6FAF"/>
	<stop  offset="0.6805" style="stop-color:#4480B9"/>
	<stop  offset="0.759" style="stop-color:#6395C4"/>
	<stop  offset="0.8324" style="stop-color:#88AED2"/>
	<stop  offset="0.9016" style="stop-color:#B3CBE2"/>
	<stop  offset="0.9652" style="stop-color:#E2EBF4"/>
	<stop  offset="1" style="stop-color:#FFFFFF"/>
</linearGradient>
<path style="fill:url(#SVGID_4_);" d="M249.782,66.38c-10.322-11.016-22.516-20.042-38.612-26.892
	c1.708,6.456,2.795,14.806,2.293,22.873c-0.991,15.821,3.108,24.814,4.648,29.786c1.63,1.37,2.783,2.839,4.517,4.417
	c0,0,13.32,16.486,26.58,11.063C257.363,104.289,264.485,82.074,249.782,66.38"/>
<path style="fill:#002458;" d="M143.842,99.624l-11.126-0.029c-0.351-6.64-0.653-12.625-0.804-19.066
	c-0.253-6.69-2.314-14.186-8.502-17.606l-4.075-1.762c-7.194-1.255-15.143-0.704-20.022,4.831
	c-3.772,4.679-4.427,10.766-4.878,16.451c-1.109,9.456-0.706,19.97-5.937,28.474c-3.32,4.627-8.602,6.74-13.482,8.703
	c-0.402,0.25-0.704,0.753-0.504,1.207c1.863,1.557,4.58,1.962,6.542,3.472c6.941,4.224,7.797,13.179,8.904,20.575
	c0.452,3.371,0.853,6.892,1.71,10.36c0.15,0.755-0.604,1.057-1.158,1.157l-8.703-0.05c-0.854-0.251-1.156-1.155-1.458-1.91
	c-1.712-6.34-1.411-13.081-2.517-19.419c-0.604-4.376-3.119-8.1-7.094-9.66c-1.357-0.449-2.816-0.855-4.326-0.554
	c-1.308,0.506-1.259,2.114-1.259,3.169c0.202,9.056,0.104,17.81,0.104,28.223l-0.605,0.252l-9.257-0.101
	c-0.3-0.151-0.854-0.151-0.753-0.653V82.742c3.319-0.251,6.842-0.101,10.262-0.149v30.535c0.552,0.704,0.452,1.911,1.459,2.263
	c4.125,0.201,8.2-1.308,11.066-4.326c4.578-4.98,4.932-11.921,5.484-18.161c0.401-8.048,0.855-16.753,3.874-24.249
	c3.673-9.254,13.18-14.335,22.839-15.241c4.679-0.704,9.66-0.201,14.035,0.955c0.252,0.201,0.655,0.252,1.005,0.301
	c5.183,1.811,9.611,5.032,12.678,9.559c5.836,8.151,5.785,17.356,6.44,27.218L143.842,99.624z"/>
<path style="fill:#002458;" d="M97.098,156.477l-0.101-20.813l-0.018-0.703c-0.454-7.999,0.773-17.257-0.988-25.155
	c0.101-0.552,0.555-0.853,1.005-1.107c2.466-0.301,5.283-0.35,7.749,0c1.157,0.101,1.308,1.408,1.758,2.165
	c0.204,0.453,0.454,1.408,1.209,1.054c0.604,0.051,0.806-0.652,1.156-0.854c1.963-1.862,4.578-3.069,7.496-2.768l1.61,0.202
	l0.004,9.311c-2.817,0.113-6.141,0.702-7.952,2.613c-2.515,2.012-2.869,5.382-2.918,8.502v27.564L97.098,156.477z"/>
<path style="fill:#002458;" d="M238.258,156.578v-42.243c-0.502-0.704-0.301-2.011-0.653-2.969c-0.1-0.502-0.403-1.508,0.102-2.061
	c0.251-0.404,0.803-0.203,1.106-0.454c2.414,0.102,5.183-0.201,7.545,0.251c1.207,0.655,1.207,2.515,2.365,3.271
	c1.459-0.454,2.416-2.265,3.873-2.765c1.559-1.058,3.772-0.354,5.786-0.555c0.352,0.15,0.251,0.402,0.651,0.451l0.053,9.761
	c-0.253,0.152-0.504,0-0.555-0.201c-3.367-0.403-6.489,0.704-8.603,2.767c-2.214,2.165-1.834,5.297-1.887,8.262l-0.023,0.542v25.943
	H238.258z"/>
<path style="fill:#002458;" d="M214.262,115.894c-3.725,1.511-4.676,5.888-4.628,9.607c0,0.756,0.554,1.36,1.209,1.562h8.349
	c1.26-0.05,2.414,0,3.22-0.906c0.454-2.465-0.101-5.081-1.055-7.294C220.149,116.448,217.181,114.838,214.262,115.894
	 M211.998,147.286c1.662,1.76,4.578,1.813,6.743,0.904c3.267-1.71,3.472-5.685,4.174-8.955l0.455-0.149l8.902,0.031
	c-0.049,6.338-3.319,14.758-9.407,17.323c-1.608,0.905-3.674,0.808-5.534,1.158c-3.724,0.302-6.842-1.057-9.811-2.366
	c-4.778-2.614-6.934-8.248-8.099-13.431c-2.516-11.192,0.451-21.205,2.715-26.36c2.21-5.027,7.296-8.4,12.78-8.703
	c3.571-0.252,6.688,0.552,9.657,2.061c7.045,4.529,8.301,14.49,8.2,22.89c-0.101,0.604-0.201,1.311-0.854,1.511l-2.263,0.249
	l-20.842,0.113C208.616,137.489,209.182,144.269,211.998,147.286"/>
<path style="fill:#002458;" d="M138.15,116.097c-2.466-0.655-4.831,0.25-6.389,2.061c-3.069,4.528-2.92,9.861-3.121,15.043
	c0.301,5.331,0.201,12.474,5.685,15.14c1.408,0.758,3.32,0.303,4.629-0.201c4.929-3.02,4.878-9.655,5.283-14.891
	c-0.302-5.13,0-11.217-3.323-15.442C140.211,116.951,139.257,116.448,138.15,116.097 M146.299,109.305
	c6.038,3.823,7.444,11.569,8.051,18.412c0.35,10.263-0.202,23.492-10.666,29.026c-3.673,1.458-8.453,2.013-12.325,0.703
	c-5.132-1.306-9.208-5.432-10.866-10.462c-1.561-3.824-1.988-8.175-2.013-12.375c-0.037-6.289,0.452-12.123,2.463-17.86v0.149
	c2.668-5.983,8.754-9.961,15.445-9.961C140.111,106.739,143.482,107.443,146.299,109.305"/>
<path style="fill:#002458;" d="M174.622,116.801c-3.624,2.012-4.578,6.187-4.93,10.11c-0.203,6.739-1.107,13.483,2.917,18.915
	c1.106,1.059,2.465,1.862,4.125,1.709c1.961-0.148,3.82-1.255,4.628-3.117c2.516-6.438,1.105-13.383,1.358-20.172
	c-0.1-1.812-0.201-3.875-1.308-5.384C180.204,116.549,177.084,115.894,174.622,116.801 M171.199,195.377
	c7.987-2.854,10.414-11.769,11.067-19.469c0.555-6.791,0.655-13.479,0.153-20.274c-0.201-0.349-0.855-0.702-1.26-0.349
	c-2.516,1.508-5.381,2.564-8.551,1.862c-4.428-0.758-8.301-3.122-10.213-7.298c-2.261-4.274-2.834-9.759-3.271-13.985
	c-0.438-4.274,0.529-14.762,2.919-19.919c2.186-4.72,6.739-8.855,12.376-8.754c2.214-0.15,4.771,0.757,6.326,1.86
	c0.826,0.585,2.074,1.864,3.027,0.755c0.455-0.652,1.313-1.006,2.114-1.107c2.465,0,5.181-0.25,7.346,0.455
	c0.314,0.156,0.391,0.326,0.201,0.704c-1.308,5.987-0.755,12.174-0.906,18.161c-0.201,5.381,0.454,10.915,0.253,16.701
	c-0.05,6.489,0.101,13.13-0.15,19.519l0.15,0.301c0.051,8.149,0.201,16.904-3.37,23.846c-4.377,9.457-13.987,14.64-24.047,15.646
	c-5.029,0.05-10.313,0.151-14.639-1.661c-2.968-0.854-5.285-2.864-7.799-4.476c-6.289-4.828-9.205-12.827-9.708-20.676
	c-0.452-3.069-0.603-6.54-0.652-9.811c0.049-0.451,0.149-1.059,0.652-1.155h10.111c0.704,0.904,0.755,2.212,0.704,3.42
	c0.204,6.337,0.554,12.879,2.667,18.813c1.862,4.78,6.053,8.125,11.144,8.601c2.163,0.201,4.401,0.354,6.665,0.354
	C165.453,197.566,169.692,196.008,171.199,195.377"/>
<path style="fill:#FFFFFF;" d="M211.45,167.266c0.746,0,1.415-0.053,1.415-0.947c0-0.721-0.655-0.854-1.27-0.854h-1.2v1.801H211.45z
	 M210.396,170.536h-0.88v-5.817h2.214c1.374,0,2.057,0.504,2.057,1.653c0,1.04-0.655,1.494-1.511,1.601l1.654,2.563h-0.986
	l-1.535-2.523h-1.013V170.536z M211.463,171.828c2.281,0,4.082-1.788,4.082-4.216c0-2.39-1.801-4.188-4.082-4.188
	c-2.309,0-4.108,1.799-4.108,4.188C207.354,170.04,209.154,171.828,211.463,171.828 M206.337,167.612
	c0-2.894,2.35-5.029,5.126-5.029c2.748,0,5.095,2.136,5.095,5.029c0,2.924-2.347,5.059-5.095,5.059
	C208.687,172.671,206.337,170.536,206.337,167.612"/>
<linearGradient id="SVGID_5_" gradientUnits="userSpaceOnUse" x1="159.6553" y1="48.1665" x2="159.6553" y2="200.833">
	<stop  offset="0" style="stop-color:#5B78B7"/>
	<stop  offset="0.033" style="stop-color:#6D86BF"/>
	<stop  offset="0.087" style="stop-color:#8698CA"/>
	<stop  offset="0.12" style="stop-color:#8F9FCE"/>
	<stop  offset="0.3029" style="stop-color:#93A2D0"/>
	<stop  offset="0.4664" style="stop-color:#9DABD4"/>
	<stop  offset="0.6226" style="stop-color:#B0BBDC"/>
	<stop  offset="0.7742" style="stop-color:#C9D1E8"/>
	<stop  offset="0.9212" style="stop-color:#EAEDF6"/>
	<stop  offset="1" style="stop-color:#FFFFFF"/>
</linearGradient>
<path style="fill:url(#SVGID_5_);" d="M184.209,114.695c1.107,1.509,1.208,3.572,1.309,5.383
	c-0.251,6.792,1.158,13.734-1.355,20.173c-0.808,1.86-2.668,2.967-4.633,3.12c-1.659,0.15-3.017-0.655-4.121-1.714
	c-4.025-5.432-3.12-12.173-2.919-18.914c0.351-3.925,1.308-8.1,4.929-10.109C179.883,111.726,183.003,112.381,184.209,114.695
	 M167.309,193.274c-2.266,0-4.504-0.154-6.667-0.356c-5.091-0.473-9.282-3.819-11.142-8.599c-2.115-5.936-2.465-12.478-2.667-18.813
	c0.049-1.209,0-2.515-0.704-3.421h-10.113c-0.501,0.102-0.602,0.705-0.653,1.155c0.051,3.271,0.201,6.741,0.653,9.811
	c0.505,7.849,3.422,15.845,9.711,20.679c2.515,1.608,4.828,3.618,7.798,4.475c4.325,1.81,9.605,1.712,14.636,1.659
	c10.064-1.004,19.671-6.187,24.048-15.645c3.572-6.941,3.424-15.696,3.371-23.843l-0.153-0.304c0.254-6.39,0.105-13.03,0.153-19.519
	c0.201-5.785-0.454-11.321-0.253-16.702c0.152-5.986-0.399-12.174,0.905-18.16c0.19-0.378,0.114-0.548-0.2-0.704
	c-2.163-0.705-4.879-0.454-7.344-0.454c-0.806,0.101-1.662,0.454-2.111,1.107c-0.959,1.105-2.205-0.172-3.032-0.756
	c-1.554-1.102-4.115-2.01-6.327-1.86c-5.634-0.101-10.188,4.035-12.375,8.754c-2.389,5.157-3.358,15.642-2.916,19.921
	c0.432,4.227,1.004,9.708,3.271,13.984c1.911,4.175,5.784,6.541,10.212,7.296c3.165,0.703,6.034-0.354,8.548-1.862
	c0.402-0.353,1.058,0,1.258,0.352c0.505,6.79,0.403,13.482-0.148,20.271c-0.654,7.7-3.083,16.615-11.068,19.47
	C172.489,191.838,168.252,193.398,167.309,193.274 M143.714,113.64c3.321,4.226,3.018,10.313,3.321,15.444
	c-0.403,5.23-0.354,11.872-5.283,14.889c-1.308,0.507-3.221,0.956-4.629,0.201c-5.482-2.664-5.384-9.809-5.683-15.14
	c0.201-5.183,0.049-10.517,3.119-15.043c1.557-1.811,3.923-2.717,6.389-2.062C142.054,112.281,143.01,112.784,143.714,113.64
	 M139.185,102.771c-6.691,0-12.777,3.974-15.443,9.961v-0.151c-2.014,5.737-2.503,11.573-2.466,17.859
	c0.025,4.2,0.452,8.552,2.013,12.376c1.658,5.029,5.736,9.156,10.866,10.463c3.874,1.309,8.652,0.757,12.325-0.706
	c10.463-5.532,11.018-18.762,10.665-29.024c-0.604-6.843-2.014-14.588-8.047-18.411C146.278,103.277,142.91,102.573,139.185,102.771
	 M224.15,114.695c0.957,2.213,1.512,4.829,1.06,7.293c-0.806,0.906-1.963,0.856-3.221,0.906h-8.35
	c-0.654-0.2-1.207-0.805-1.207-1.561c-0.053-3.719,0.903-8.096,4.628-9.608C219.978,110.672,222.946,112.281,224.15,114.695
	 M211.613,129.397l20.84-0.112l2.265-0.251c0.651-0.201,0.753-0.906,0.854-1.509c0.101-8.402-1.156-18.363-8.198-22.892
	c-2.97-1.509-6.09-2.314-9.659-2.061c-5.483,0.301-10.572,3.674-12.779,8.702c-2.264,5.155-5.233,15.168-2.718,26.36
	c1.166,5.183,3.322,10.817,8.101,13.432c2.967,1.312,6.087,2.667,9.812,2.365c1.859-0.352,3.921-0.253,5.532-1.155
	c6.087-2.567,9.355-10.989,9.406-17.325l-8.904-0.032l-0.45,0.15c-0.705,3.271-0.908,7.244-4.179,8.955
	c-2.161,0.904-5.079,0.854-6.74-0.905C211.978,140.102,211.413,133.321,211.613,129.397 M250.814,152.412v-25.943l0.024-0.542
	c0.053-2.969-0.326-6.099,1.888-8.262c2.114-2.064,5.231-3.17,8.604-2.769c0.051,0.201,0.299,0.354,0.553,0.201l-0.049-9.759
	c-0.404-0.049-0.306-0.302-0.657-0.452c-2.01,0.202-4.224-0.503-5.784,0.555c-1.461,0.501-2.416,2.314-3.875,2.766
	c-1.155-0.754-1.155-2.616-2.365-3.271c-2.362-0.45-5.13-0.149-7.545-0.25c-0.301,0.25-0.855,0.052-1.106,0.455
	c-0.502,0.552-0.201,1.558-0.1,2.061c0.351,0.958,0.149,2.265,0.654,2.969v42.243H250.814z M109.907,152.325v-27.568
	c0.049-3.118,0.403-6.489,2.917-8.502c1.811-1.911,5.135-2.499,7.952-2.613l-0.002-9.311l-1.61-0.201
	c-2.918-0.301-5.536,0.905-7.498,2.767c-0.351,0.202-0.553,0.906-1.156,0.857c-0.753,0.35-1.005-0.606-1.208-1.058
	c-0.453-0.755-0.603-2.063-1.76-2.164c-2.463-0.352-5.281-0.302-7.747,0c-0.453,0.252-0.907,0.554-1.007,1.107
	c1.761,7.897,0.536,17.155,0.988,25.153l0.02,0.706l0.099,20.815L109.907,152.325z M146.641,95.457l-11.126-0.03
	c-0.353-6.639-0.655-12.625-0.807-19.065c-0.25-6.691-2.314-14.187-8.501-17.606l-4.075-1.762
	c-7.194-1.256-15.141-0.704-20.021,4.832c-3.773,4.678-4.426,10.766-4.88,16.448c-1.107,9.458-0.704,19.972-5.937,28.472
	c-3.321,4.63-8.603,6.743-13.48,8.705c-0.402,0.251-0.704,0.753-0.505,1.207c1.862,1.559,4.579,1.961,6.542,3.473
	c6.943,4.225,7.796,13.18,8.903,20.572c0.455,3.37,0.856,6.894,1.711,10.364c0.152,0.757-0.604,1.058-1.156,1.158l-8.705-0.053
	c-0.853-0.249-1.156-1.154-1.457-1.91c-1.71-6.337-1.408-13.078-2.515-19.418c-0.604-4.375-3.119-8.1-7.093-9.659
	c-1.359-0.451-2.817-0.856-4.329-0.555c-1.307,0.505-1.255,2.114-1.255,3.171c0.201,9.055,0.101,17.81,0.101,28.223l-0.604,0.253
	l-9.257-0.104c-0.302-0.148-0.856-0.148-0.753-0.65V78.574c3.319-0.25,6.841-0.1,10.261-0.149v30.536
	c0.554,0.704,0.454,1.912,1.459,2.262c4.125,0.202,8.201-1.308,11.066-4.326c4.58-4.979,4.932-11.921,5.486-18.161
	c0.401-8.049,0.854-16.752,3.872-24.248c3.673-9.255,13.18-14.336,22.839-15.241c4.68-0.704,9.66-0.202,14.037,0.954
	c0.25,0.202,0.653,0.252,1.005,0.302c5.183,1.81,9.609,5.03,12.678,9.559c5.834,8.15,5.786,17.356,6.438,27.216L146.641,95.457z"/>
<linearGradient id="SVGID_6_" gradientUnits="userSpaceOnUse" x1="161.6924" y1="196.833" x2="161.6924" y2="104.1665">
	<stop  offset="0" style="stop-color:#5B78B7"/>
	<stop  offset="0.033" style="stop-color:#6D86BF"/>
	<stop  offset="0.087" style="stop-color:#8698CA"/>
	<stop  offset="0.12" style="stop-color:#8F9FCE"/>
	<stop  offset="0.3029" style="stop-color:#93A2D0"/>
	<stop  offset="0.4664" style="stop-color:#9DABD4"/>
	<stop  offset="0.6226" style="stop-color:#B0BBDC"/>
	<stop  offset="0.7742" style="stop-color:#C9D1E8"/>
	<stop  offset="0.9212" style="stop-color:#EAEDF6"/>
	<stop  offset="1" style="stop-color:#FFFFFF"/>
</linearGradient>
<path style="fill:url(#SVGID_6_);" d="M186.249,112.351c1.104,1.508,1.207,3.571,1.308,5.382c-0.253,6.793,1.154,13.735-1.36,20.172
	c-0.803,1.862-2.663,2.969-4.628,3.12c-1.659,0.15-3.017-0.655-4.122-1.712c-4.025-5.432-3.122-12.173-2.918-18.914
	c0.351-3.923,1.306-8.099,4.93-10.11C181.922,109.384,185.042,110.037,186.249,112.351 M169.344,190.93
	c-2.263,0-4.502-0.152-6.663-0.358c-5.092-0.471-9.283-3.814-11.145-8.597c-2.112-5.938-2.466-12.474-2.667-18.815
	c0.052-1.207,0-2.515-0.704-3.421h-10.11c-0.503,0.101-0.604,0.705-0.653,1.157c0.049,3.271,0.201,6.741,0.653,9.811
	c0.503,7.847,3.42,15.845,9.708,20.677c2.515,1.608,4.833,3.621,7.802,4.477c4.324,1.812,9.604,1.712,14.635,1.659
	c10.064-1.004,19.669-6.187,24.048-15.646c3.572-6.939,3.419-15.693,3.369-23.843l-0.151-0.302c0.253-6.39,0.101-13.03,0.151-19.519
	c0.203-5.788-0.452-11.319-0.251-16.703c0.15-5.986-0.402-12.174,0.905-18.161c0.189-0.377,0.114-0.548-0.203-0.704
	c-2.161-0.704-4.877-0.454-7.344-0.454c-0.803,0.104-1.659,0.454-2.112,1.109c-0.955,1.107-2.205-0.171-3.03-0.757
	c-1.552-1.103-4.113-2.009-6.327-1.86c-5.634-0.099-10.187,4.037-12.373,8.754c-2.391,5.157-3.358,15.648-2.922,19.921
	c0.438,4.227,1.01,9.71,3.271,13.984c1.914,4.175,5.785,6.541,10.217,7.296c3.166,0.703,6.034-0.354,8.549-1.862
	c0.402-0.351,1.058,0,1.258,0.352c0.504,6.794,0.403,13.482-0.151,20.271c-0.651,7.7-3.08,16.619-11.067,19.472
	C174.528,189.496,170.286,191.057,169.344,190.93 M145.751,111.295c3.319,4.226,3.02,10.312,3.319,15.441
	c-0.399,5.233-0.351,11.875-5.28,14.894c-1.31,0.505-3.221,0.954-4.63,0.199c-5.483-2.663-5.382-9.809-5.685-15.14
	c0.202-5.183,0.053-10.514,3.121-15.044c1.559-1.81,3.924-2.715,6.39-2.061C144.091,109.937,145.047,110.438,145.751,111.295
	 M141.224,100.429c-6.691,0-12.779,3.975-15.445,9.958v-0.15c-2.012,5.736-2.502,11.571-2.464,17.859
	c0.025,4.2,0.452,8.554,2.009,12.374c1.662,5.029,5.737,9.158,10.867,10.465c3.874,1.309,8.654,0.754,12.326-0.702
	c10.464-5.536,11.017-18.766,10.665-29.028c-0.603-6.843-2.012-14.59-8.049-18.412C148.317,100.931,144.946,100.227,141.224,100.429
	 M226.189,112.351c0.957,2.214,1.512,4.828,1.058,7.293c-0.804,0.908-1.961,0.857-3.218,0.908h-8.351
	c-0.657-0.204-1.209-0.808-1.209-1.561c-0.051-3.722,0.905-8.1,4.63-9.607C222.016,108.326,224.985,109.937,226.189,112.351
	 M213.65,127.054l20.84-0.113l2.266-0.251c0.652-0.204,0.754-0.906,0.854-1.509c0.103-8.402-1.154-18.363-8.199-22.889
	c-2.967-1.512-6.087-2.316-9.66-2.064c-5.484,0.303-10.568,3.675-12.775,8.703c-2.266,5.157-5.233,15.168-2.718,26.36
	c1.163,5.181,3.32,10.815,8.099,13.43c2.97,1.313,6.089,2.669,9.809,2.365c1.865-0.35,3.926-0.251,5.537-1.155
	c6.086-2.564,9.356-10.982,9.406-17.325l-8.904-0.03l-0.454,0.15c-0.704,3.271-0.904,7.244-4.175,8.955
	c-2.161,0.904-5.079,0.854-6.741-0.905C214.017,137.755,213.452,130.979,213.65,127.054 M252.854,150.067v-25.945l0.024-0.54
	c0.051-2.967-0.325-6.099,1.888-8.263c2.112-2.063,5.231-3.17,8.603-2.768c0.047,0.201,0.301,0.354,0.554,0.201l-0.052-9.757
	c-0.402-0.052-0.302-0.303-0.653-0.455c-2.015,0.201-4.227-0.503-5.784,0.555c-1.461,0.503-2.416,2.313-3.876,2.765
	c-1.157-0.753-1.157-2.615-2.363-3.271c-2.365-0.451-5.131-0.149-7.546-0.25c-0.304,0.25-0.855,0.051-1.106,0.453
	c-0.502,0.552-0.203,1.559-0.1,2.062c0.351,0.956,0.147,2.264,0.651,2.968v42.244H252.854z M111.946,149.98v-27.568
	c0.049-3.119,0.403-6.491,2.918-8.502c1.811-1.912,5.134-2.5,7.951-2.613l-0.005-9.309l-1.606-0.203
	c-2.92-0.302-5.535,0.907-7.498,2.767c-0.351,0.201-0.554,0.906-1.156,0.856c-0.755,0.352-1.005-0.603-1.209-1.057
	c-0.452-0.753-0.604-2.061-1.76-2.165c-2.466-0.351-5.282-0.299-7.748,0c-0.452,0.253-0.905,0.554-1.006,1.109
	c1.762,7.898,0.535,17.153,0.989,25.155l0.017,0.703l0.101,20.813L111.946,149.98z M148.679,93.111l-11.127-0.028
	c-0.354-6.641-0.653-12.626-0.805-19.067c-0.251-6.688-2.314-14.186-8.501-17.606l-4.075-1.761
	c-7.194-1.256-15.141-0.701-20.023,4.831c-3.771,4.679-4.426,10.767-4.878,16.451c-1.109,9.456-0.704,19.971-5.938,28.473
	c-3.319,4.627-8.601,6.74-13.481,8.703c-0.403,0.25-0.704,0.753-0.503,1.207c1.862,1.56,4.578,1.963,6.542,3.472
	c6.941,4.226,7.796,13.181,8.903,20.576c0.452,3.37,0.854,6.891,1.711,10.359c0.149,0.759-0.604,1.06-1.159,1.16l-8.703-0.051
	c-0.854-0.251-1.156-1.156-1.457-1.914c-1.712-6.335-1.412-13.076-2.519-19.416c-0.603-4.377-3.118-8.1-7.092-9.659
	c-1.357-0.452-2.816-0.854-4.326-0.552c-1.308,0.503-1.256,2.112-1.256,3.168c0.199,9.056,0.1,17.81,0.1,28.223l-0.606,0.251
	l-9.253-0.101c-0.303-0.15-0.857-0.15-0.756-0.654V76.232c3.32-0.253,6.842-0.101,10.263-0.152v30.535
	c0.552,0.706,0.451,1.913,1.459,2.263c4.125,0.203,8.2-1.305,11.066-4.326c4.578-4.98,4.932-11.921,5.484-18.161
	c0.402-8.048,0.856-16.753,3.874-24.248c3.673-9.255,13.18-14.336,22.839-15.242c4.68-0.704,9.66-0.201,14.035,0.955
	c0.252,0.201,0.655,0.253,1.005,0.301c5.182,1.811,9.609,5.032,12.677,9.559c5.837,8.151,5.786,17.356,6.441,27.217L148.679,93.111z
	"/>
</svg>
