<?xml version="1.0" encoding="UTF-8" standalone="no"?>
<!-- Created with Inkscape (http://www.inkscape.org/) -->
<svg id="svg11963" xmlns:rdf="http://www.w3.org/1999/02/22-rdf-syntax-ns#" xmlns="http://www.w3.org/2000/svg" height="400" width="460" version="1.1" xmlns:cc="http://creativecommons.org/ns#" xmlns:dc="http://purl.org/dc/elements/1.1/" viewBox="0 0 460 399.99999">
 <metadata id="metadata11968">
  <rdf:RDF>
   <cc:Work rdf:about="">
    <dc:format>image/svg+xml</dc:format>
    <dc:type rdf:resource="http://purl.org/dc/dcmitype/StillImage"/>
    <dc:title/>
   </cc:Work>
  </rdf:RDF>
 </metadata>
 <g id="layer3">
  <path id="path19461" stroke-linejoin="round" fill="none" stroke="#000" stroke-width="10" d="m157.84 362.16a90 86 0 0 1 -20.954 -68.204 90 86 0 0 1 39.925 -59.977"/>
  <path id="path19465" stroke-linejoin="round" d="m273.73 233.09a90 86 0 0 1 40.952 58.264 90 86 0 0 1 -18.115 68.017" stroke="#000" stroke-width="10" fill="none"/>
  <path id="path19467" d="m27 140 155.5 2.3333h100.75l149.75-1s23.602 2.4026 23.922 14.449c0.32788 12.328-21.504 16.27-21.504 16.27s2.7663 8.8817-1 14.549c-3.5593 5.3559-11.009 6.7746-11.009 6.7746s1.1266 9.3729-3.9008 14.936c-4.9658 5.4953-14.909 7.2611-14.909 7.2611s-2.4703 10.604-6.2611 14.063c-5.4074 4.9329-15.603 4.7476-15.603 4.7476s-7.6922 9.3291-15.09 11.342c-7.1819 1.9542-17.603-3.5674-17.603-3.5674s-9.6875 6.729-18.657 6.9547c-8.9561 0.22538-21.117-8.8015-21.117-8.8015s-7.5969 4.3603-14.576 3.7476c-5.8145-0.5105-15.396-8.342-15.396-8.342s-9.3178 24.251-48.016 24.251-63.764-25.098-63.764-25.098-3.6595 8.1846-8.2158 9.342c-5.7246 1.4541-17.576-4.9277-17.576-4.9277s-11.044 9.9793-17.936 10.342c-7.0937 0.37329-19.477-8.6484-19.477-8.6484s-11.583 4.3298-17.297 3.054c-6.1285-1.3684-15.396-10.855-15.396-10.855s-10.626 1.0109-14.756-1.7206c-4.5502-3.009-8.1079-14.216-8.1079-14.216s-11.926-2.98-16.09-7.1079c-4.8182-4.7766-2.8738-13.036-2.8738-13.036s-10.161-6.1114-11.675-11.315c-1.9303-6.6318 3.0539-13.09 3.0539-13.09s-18.897-4.1395-19.504-15.423c-0.723-14.12 24.37-17.26 24.37-17.26z" fill-rule="evenodd"/>
  <path id="path19471" d="m179.83 107c-4.9039 20.722 2.8751 33.915 2.6667 50-0.20032 15.462-7.8537 29.384-5.5 44.667 3.7153 24.125 12.347 43.876 0.83333 98.333-7.4812 35.383-17.401 60.227-38.333 63.5-2.3482 0.36719-1.4974-3.2142-1.4974-3.2142s5.5157-11.772-6.6693-14.119c-11.473-2.2101-18.474 15.92-4.8333 22.167 12.566 5.7543 22 0.16667 22 0.16667s2.7337 12.272 8.8333 15.667c6.879 3.828 19.667 3.1667 19.667 3.1667s7.1121 8.465 13 9.6667c5.3167 1.0851 19.167-2.8333 19.167-2.8333s11.074 6.1383 20.833 5.8333c7.4235-0.23199 21.833-7 21.833-7s10.9 5.299 18.5 3c6.5775-1.9897 13.5-12 13.5-12s12.204-1.3536 16.167-5c2.7425-2.5234 5.6667-10.667 5.6667-10.667s20.458 4.1633 26.167-7c4.104-8.0255-6.238-20.852-14.667-14.667-9.0741 6.6586-2.9555 13.581-2.9555 13.581s1.0334 1.4794-2.3778 2.0861c-10.898 1.9383-31.703-37.373-38.167-73-6.46-35.64-15.22-60.43-6.66-78.68 8.29-17.67-6.72-35.93-1-46.67 3.7876-7.1094 21-10 21-10s-3.1047-16.091 0-22c6.1958-11.792 22.134-12.032 33-19 5.7779-3.705 12.808-14.895 10-18-1.394-1.5417-18.5 2.5-18.5 2.5s0.99876-4.0929-1.1667-5.5c-1.2499-0.81217-6.9443 2.7574-9.3333 6-7.7777 10.557-16.563 25.02-30 25-16.265-0.0248-24.303-22.713-36-32.667-1.621-1.3793-12.174-1.5825-7.6667-10.667 5.7977-11.684 13.88 7.2305 20.333 2 5.5722-4.5163-8.0666-21.478-7.3333-26 0.62-3.827 6.79-4.239 7.67-6.67 0.73-1.994-5.02-6.539-5.33-11-0.23-3.154 1.83-3.504 1.83-6.667 0-4.2164-2.7999-12.288-2.8333-14.667-0.07-4.446 4.63-9.4667 2.16-13.166-1.74-2.6098-13.05-2.8663-18.83-2.1667-11.07 1.3398-42.42 9.9377-45.83 18.167-2.4071 5.8105 8.5585 13.316 8.3333 15.5-0.24005 2.329-3.5604 7.3822-4.6667 10.5-1.8333 5.1667-7.5 4-7.5 4s1.1446 12.674 5.1667 17c3.8786 4.1714 16.5 6.3333 16.5 6.3333s-0.21832 6.0696-3 9.1667c-7.3592 8.1936-11.586 14.096-14.167 25z" fill-rule="evenodd"/>
  <g fill="#fff" fill-rule="evenodd">
   <path id="path19473" d="m179.67 157.33c-9.66-3.65-15.17 20.51-15.34 37.67-0.16 17.16 16.67 31.67 16.67 31.67s-5.8007-20.531-4.6667-30.667c1.7082-15.267 9.7035-36.259 3.3333-38.667z"/>
   <path id="path19475" d="m269.33 200.33c0.42274-11.993-10.759-35.502-0.46667-38 9.6098-2.3326 13.097 16.773 13.533 28.467 0.43648 11.694-4.8593 38.978-17.733 34.867-5.5632-1.7765 4.3331-15.871 4.6667-25.333z"/>
   <path id="path19477" d="m204.8 101.4c-3.2231 2.5362 5.2593 6.5616 11.4 14.2 8.3991 10.448 10.498 20.347 16.8 22.8 3.531 1.3744 18.358-3.1721 18.2-9.2-0.10504-4-15-2-15-2s-9.695-12.301-15.2-17.2c-5.3837-4.7908-12.309-11.662-16.2-8.6z"/>
   <path id="path19479" d="m197.4 186.4c-0.5498-2.8988 6.1532-2.0821 10.2-3.8 6.6324-2.8154 16.83-14.371 21.4-8.8 3.9186 4.7766-5.1815 12.347-10.8 14.6-8.5627 3.434-19.502 4.8433-20.8-2z"/>
   <path id="path19481" d="m205.2 239.4c-3.2322-2.2576 10.223-7.9983 17.2-16.8 11.39-14.368 18.005-31.09 25.6-47.8 2.6032-5.7276 2.7838-17.57 8.2-17 6.8214 0.71755 0.0201 19.529-1.8 24.2-2.8031 7.194-11.157 29.42-18.8 38.4-10.368 12.182-25.608 22.347-30.4 19z"/>
   <path id="path19489" d="m190.6 294.8c4.6963-3.2293 11.139-2.8342 11.8 2.8 1.2518 10.677-6.5534 27.135-10.4 31-7.6603 7.6969-10.94-0.53849-10.8-4 0.22997-5.6874 3.6967-10.769 5.4-16.2 1.414-4.5088 0.10633-10.923 4-13.6z"/>
   <path id="path19491" d="m196.6 255c-1.3574 1.5802-0.43331 16.729-2.8 27-0.49062 2.1291 7.2657 3.8001 10.2 0 5.0825-6.5821 6.3823-20.052 4.8-23-0.54369-1.0128-10.571-5.8964-12.2-4z"/>
   <path id="path19493" d="m221.4 260 13.4-0.4s1.7225 22.508-0.6 25.8c-1.7333 2.4571-10.41 3.0216-13.6-0.2-2.6388-2.6648 0.8-25.2 0.8-25.2z"/>
   <path id="path19495" d="m245.6 257.8c0.61165-1.3094 9.4002-3.5493 10.2-2.8 2.6042 2.4396 3.9912 24.985 3.4 26.6-0.82035 2.2408-8.3924 3.2839-10.8 0.6-2.4455-2.7262-3.6882-22.498-2.8-24.4z"/>
   <path id="path19497" d="m209.6 298.8c-0.2308-3.0645 9.7235-4.0952 11.2-1.4 3.331 6.0804 1.1182 26.663-6 34-4.1267 4.2535-12.536-0.36431-11-4 3.7944-8.981 6.2252-22.955 5.8-28.6z"/>
   <path id="path19499" d="m234 297.2c1.6792-3.0948 8.9901-2.8549 9.8-0.8 3.0299 7.6876 8.2169 29.674 5 35.2-2.1 3.6072-8.8914-0.63696-11.2-5.6-2.9075-6.2505-5.7757-24.79-3.6-28.8z"/>
   <path id="path19501" d="m253.4 295.4c0.6192-3.4168 9.5884-2.8304 11.6 0 2.5912 3.6459 1.86 9.9545 3.9217 14.447 2.7369 5.9644 5.9161 12.97 5.2783 16.553-1.3219 7.4261-11.46 5.412-13.4 0.6-3.9176-9.7163-8.9795-22.884-7.4-31.6z"/>
   <path id="path19503" d="m180.6 339.4c2.554-1.4565 7.7864 2.4599 7.8 5.4 0.0392 8.4946-6.34 18.675-12.4 26.2-7.9106 9.8236-12.049-1.259-11-4.6 1.8806-5.989 6.6731-10.614 9.6992-15.93 3.0261-5.3155 3.8858-9.9209 5.9008-11.07z"/>
   <path id="path19505" d="m201.8 343.4c4.0398-3.359 10.042 1.0993 10.4 3.8 1.2843 9.6805-6.5205 28.859-10.8 34.8-2.6506 3.6794-10.559 0.62237-11.4-4.2-1.1353-6.5126 4.7073-13.2 7-19.4 1.7328-4.6863 0.95811-11.806 4.8-15z"/>
   <path id="path19507" d="m222 347.4c2.1027-3.0849 10.024-3.2837 11.8 0 2.2666 4.1902 0.0397 11.042 1.2096 19.57 0.99595 7.2605 2.1366 11.933-2.0096 18.43-2.2267 3.4888-8.1614 5.3028-10.8-0.4-2.0615-4.4556-2.9994-17.334-2.6114-19.754 1.31-8.21-0.21-14.01 2.41-17.85z"/>
   <path id="path19509" d="m245.2 346.6c0.24009-3.3573 11.2-5.742 12.4-0.6 2.3192 9.9408 6.539 21.501 11.2 30.4 1.5531 2.9652-4.3663 8.6647-7.6 7.8-8.5532-2.2871-16.905-24.944-16-37.6z"/>
   <path id="path19511" d="m267 345.6c-1.1939-2.8412 4.2428-8.4676 7.2-7.6 5.4034 1.5853 7.6692 8.5948 10.051 14.803 2.285 5.9555 8.0804 9.6158 7.7488 15.197-0.1748 2.9418-4.612 6.9268-6.4 5.8-8.5863-5.4114-14.533-18.522-18.6-28.2z"/>
   <path id="path19513" d="m25 161c-0.01483-2.4287 5.7379-4.6654 9.1667-4.6667 3.8014-0.001 10.776 1.9903 10.792 5.7917 0.0138 3.3793-4.4958 4.3918-7.875 4.4167-3.852 0.03-12.064-2.31-12.084-5.54z"/>
   <path id="path19515" d="m33.333 181.33c0.22736-3.4203 8.4135-6.4022 13.333-6.3333 3.18 0.0445 9.1435 1.5365 9.375 4.7083 0.30749 4.2125-4.2547 6.9105-10.583 7.3333-5.7177 0.38203-12.405-1.4921-12.125-5.7083z"/>
   <path id="path19517" d="m65.167 160c-0.01589-4.5392 8.3908-5.0269 12.917-5.375 6.3168-0.48589 8.832-0.19894 9.5833 3.5417 0.74821 3.7251-3.6047 6.8099-9.25 7.2917-6.0461 0.51593-13.234-0.99106-13.25-5.4583z"/>
   <path id="path19519" d="m63.292 192.33c3.8543 0.29986 4.2468 5.0215 3.0833 7.9583-2.2637 5.7143-12.557 5.9801-18.625 5-5.9894-0.96743-4.9492-6.1053-3.2917-8.0417 0.87238-1.0191 5.0153-1.1462 8.5735-2.9406 4.6994-2.3699 7.5966-2.1833 10.26-1.9761z"/>
   <path id="path19521" d="m63.5 219.25c-0.82322-2.8852 4.911-8.7694 8.3333-10.667 3.7668-2.0882 9.4832-5.2101 13.333-0.625 3.2453 3.8647-1.3786 9.7135-4.7083 11.917-4.403 2.91-15.874 3.17-16.958-0.63z"/>
   <path id="path19523" d="m78.417 177.33c4.2187-3.8013 10.678-6.2491 17.083-5.5 2.0741 0.24257 7.5095 2.1368 4 7.875-2.1911 3.5826-7.5212 5.2867-11.667 5.9583-8.7813 1.4228-11.902-6.0938-9.4167-8.3333z"/>
   <path id="path19525" d="m87.417 227.96c-0.70933-4.725 8.0884-12.787 13.75-12.75 2.7509 0.018 5.0158-0.69933 5.375 5.4167 0.24428 4.1595-1.7278 9.0268-7.5 10.875-6.5957 2.1118-11.254-1.0674-11.625-3.5417z"/>
   <path id="path19527" d="m92.75 196.21c-1.2988-4.5046 6.4897-7.999 10.917-9.5417 4.4105-1.5369 10.784-0.91728 11.667 3 0.95336 4.233-5.5573 7.7161-9.75 8.8333-4.0333 1.0748-11.853 1.1084-12.833-2.2917z"/>
   <path id="path19529" d="m99 160.5c-0.22449-2.6907 2.5634-5.8144 6.875-5.5833 2.0846 0.11171 4.8541 1.3754 5.2917 3.4167 0.53678 2.5041-0.74757 5.769-4.875 6.0833-4.31 0.32-7.067-1.25-7.29-3.92z"/>
   <path id="path19531" d="m121.17 160.5c-0.42691-4.0471 3.7314-6.0037 6.5417-6.3333 3.0066-0.35263 5.1658 1.3643 5.625 3.4583 0.53135 2.4232-2.2347 6.0517-4.6667 6.5417-3.5636 0.7179-7.2081-0.89925-7.5-3.6667z"/>
   <path id="path19533" d="m143.33 158c-0.0165-3.7305 3.9822-5.0082 6.8333-5.1667 3.232-0.1796 5.5513 1.6592 5.8333 4 0.33887 2.8124-1.9768 5.8925-5.6667 6.3333-3.757 0.44881-6.9872-2.2666-7-5.1667z"/>
   <path id="path19535" d="m114.25 178.21c-0.23106-5.0473 3.4961-5.9461 6.9167-6.0833 2.5757-0.10331 5.904 1.4773 6.1667 4.0417 0.30089 2.9374-3.048 6.2927-5.9583 6.7917-3.0156 0.51699-6.9513-0.95503-7.125-4.75z"/>
   <path id="path19537" d="m136.33 175.83c-0.18944-2.1931 1.4239-4.4299 4.625-4.5833 2.711-0.12997 4.6931 1.455 4.6667 4.2917-0.0219 2.3526-2.0765 4.5646-4.0417 4.7917-2.1203 0.245-4.969-1.2463-5.25-4.5z"/>
   <path id="path19539" d="m125.62 191.21c4.9223-1.2143 8.247 2.5287 6.4167 7.9167-1.4849 4.3711-6.4277 8.5556-11.042 8.7083-2.4657 0.0816-7.0516-2.8889-6-4.4583 3.6109-5.3891 6.2491-11.087 10.625-12.167z"/>
   <path id="path19541" d="m141.5 188.67c-4.693 1.2701-6.1767 2.7504-6.1667 8.8333 0.007 4.1246 2.2808 9.4315 6.0417 11.125 3.61 1.6256 6.3162 0.62109 6.875-1.8333 1.921-8.4378-1.1912-19.629-6.75-18.125z"/>
   <path id="path19543" d="m122.33 219.33c2.4569-1.6464 7.3668-1.3827 9.4583 0.70834 2.2268 2.2263-0.59374 12.436-3.9583 14.958-2.7726 2.0788-10.113 2.08-10.292-1.875-0.21512-4.7577 0.83532-11.14 4.7917-13.792z"/>
   <path id="path19545" d="m141.83 221.5c0.0679-3.9768 3.0226-5.0405 5.5-5 5.2639 0.086 10.239 5.8503 11.333 11 0.6836 3.2182-0.1146 6.0117-5.3333 5.6667-5.4487-0.36024-11.593-6.2069-11.5-11.667z"/>
   <path id="path19547" d="m405.75 157.88c-2.1619 1.1385-0.71794 7.3881 1.75 8.125 7.3734 2.2015 13.03 1.1941 18.25-2 2.4391-1.4924 5.6252-4.6532 0.375-5.5-3.2703-0.52746-7.2867-1.1511-10.734-0.90905-3.4464 0.24196-6.3049-1.4727-9.6408 0.28405z"/>
   <path id="path19549" d="m400 175.62c7.4855-2.3444 9.8625 0.47153 14.75 1.125 7.9457 1.0624 5.5694 4.1475 2.75 5.875-5.9264 3.6312-10.39 3.4908-15.25 1.875-5.6854-1.8901-6.6709-7.4904-2.25-8.875z"/>
   <path id="path19551" d="m391.25 191.25c-2.3648-0.33003-5.5666 4.6078-3.5 6.25 4.5661 3.6284 9.2363 5.3623 14.375 5.625 4.9427 0.25272 9.1598-2.4705 7.125-4.375-1.5031-1.4068-5.1339-3.0209-8.3235-4.4138s-5.9381-2.5645-9.6765-3.0862z"/>
   <path id="path19553" d="m370.25 206.5c-2.7251 0.97048-4.432 4.4548-1.75 8.5 3.999 6.0315 9.9384 8.4306 15.875 8.125 4.5467-0.23406 9.6548-5.4053 5.5-8.125-2.718-1.7792-6.3942-3.8422-10.006-5.7415-3.6118-1.8992-7.159-3.6346-9.619-2.7585z"/>
   <path id="path19555" d="m363.88 158.5c0.0177-3.4108 5.8426-4.2229 9.25-4.375 4.7014-0.20992 12.406 0.24519 13.25 4.875 0.88146 4.8348-4.3591 5.6766-9.375 5.875-4.86 0.19222-13.15-1.5113-13.125-6.375z"/>
   <path id="path19557" d="m357.75 171.12c-5.2437 0.65456-7.393 6.4553-5.625 8.875 2.667 3.6501 10.455 6.8618 16.125 6 4.5812-0.69629 11.144-3.8684 11-8.5-0.20119-6.4655-5.1531-3.6574-10.208-4.2917-2.5937-0.32545-7.3404-2.5766-11.292-2.0833z"/>
   <path id="path19559" d="m349.5 216.25c-3.7847 0.47611-2.6197 7.5259 1.25 11.375 3.3036 3.286 9.1582 4.7848 13.625 3.4583 3.2494-0.96495 5.0198-2.6936 2.2917-5.5417-4.51-4.7-8.57-10.37-17.17-9.29z"/>
   <path id="path19561" d="m335.5 192c-0.52135-4.7831 4.0099-7.3441 7.625-7.875 2.8856-0.42377 6.5044 1.4642 10.165 5.7225 3.104 3.6105 8.6973 4.2202 8.418 7.9442-0.24801 3.3076-3.7256 4.2428-9.2083 3.8333-6.4938-0.48499-16.294-3.1515-17-9.625z"/>
   <path id="path19563" d="m333.12 158.12c-0.11428-3.0634 3.1657-4.7093 7.875-4.75 4.5361-0.0392 7.6621 1.213 7.875 4.375 0.20375 3.0265-2.9055 5.0734-7.25 5.5-4.6396 0.4556-8.333-0.64983-8.5-5.125z"/>
   <path id="path19565" d="m322.12 172.75c0.14502-2.2488 3.3732-3.8361 5.625-3.75 5.451 0.20839 8.5987 2.7944 8.7083 7.25 0.0544 2.2092-1.3743 4.2306-5.5833 4.125-3.8675-0.097-8.999-3.7643-8.75-7.625z"/>
   <path id="path19567" d="m318.75 150.62c-2.2834-0.0545-5.324 1.9665-5.375 4.25-0.0741 3.3154 6.7399 8.7262 9.875 8.375 2.1738-0.2435 4.7178-1.4834 4.25-5-0.61978-4.6591-4.8824-7.5326-8.75-7.625z"/>
   <path id="path19569" d="m298.12 150c-2.3898 0.0768-5.0128 2.1651-4.75 5.375 0.24352 2.9738 3.7804 5.5572 7.25 5.25 2.8971-0.2565 4.9467-0.8926 4.625-4.125-0.3184-3.199-1.7482-6.6727-7.125-6.5z"/>
   <path id="path19571" d="m300.88 175.5c-0.0127-2.9726 4.9857-4.7905 7.9583-4.7917 5.9207-0.002 7.174 2.8885 7.5417 5.9583 0.46155 3.8543-2.9486 4.6118-5.2917 4.875-3.8062 0.42754-10.192-2.2115-10.208-6.0417z"/>
   <path id="path19573" d="m323.62 191.12c-2.3363-0.042-4.727 2.6364-3.625 6 1.7008 5.191 5.0672 9.9149 9.875 11.25 2.9076 0.80742 11.002 3.2934 9.125-2.25-1.4448-4.268-5.0194-6.402-7.9664-9.2808-2.6032-2.5429-4.0579-5.6589-7.4086-5.7192z"/>
   <path id="path19575" d="m321.25 220.25c-2.3609 0.98456-2.4732 5.0867-1.625 7.5 1.601 4.5553 6.502 10.003 11.25 9.125 3.3592-0.62106 7.7412-0.42679 5.125-8.875-1.643-5.3054-6.7175-11.1-14.75-7.75z"/>
   <path id="path19577" d="m304.25 218.25c6.6199-0.54392 5.9307 5.0444 5.6667 8-0.44641 4.9974-6.4001 8.9123-11.417 9-6.0641 0.10607-7.0641-2.4947-6.625-6.375 0.51968-4.592 6.9564-10.18 12.375-10.625z"/>
   <path id="path19579" d="m299.83 194.71c0.28687-2.2752 4.694-4.2726 6.9167-3.7083 6.9181 1.7563 8.9997 8.1667 8.875 13.125-0.15188 6.0384-2.2978 8.2892-7.0417 8.3333-4.2862 0.0399-8.0795-1.5134-7.5833-4.2083 0.96394-5.2356-1.8494-8.127-1.1667-13.542z"/>
  </g>
 </g>
</svg>
