<?xml version="1.0" encoding="UTF-8" standalone="no"?>
<!-- Created with Inkscape (http://www.inkscape.org/) -->

<svg
   viewBox="0 0 204.09449 325.03937"
   version="1.1"
   id="svg5"
   inkscape:version="1.2.1 (9c6d41e410, 2022-07-14)"
   sodipodi:docname="front.removed bullseye.svg"
   inkscape:export-filename="../../../../../../Documents/Egyptian #1.front.png"
   inkscape:export-xdpi="940.74078"
   inkscape:export-ydpi="940.74078"
   xmlns:inkscape="http://www.inkscape.org/namespaces/inkscape"
   xmlns:sodipodi="http://sodipodi.sourceforge.net/DTD/sodipodi-0.dtd"
   xmlns:xlink="http://www.w3.org/1999/xlink"
   xmlns="http://www.w3.org/2000/svg"
   xmlns:svg="http://www.w3.org/2000/svg">
  <sodipodi:namedview
     id="namedview7"
     pagecolor="#505050"
     bordercolor="#ffffff"
     borderopacity="1"
     inkscape:showpageshadow="0"
     inkscape:pageopacity="0"
     inkscape:pagecheckerboard="1"
     inkscape:deskcolor="#505050"
     inkscape:document-units="mm"
     showgrid="false"
     inkscape:zoom="2.5464038"
     inkscape:cx="-19.046469"
     inkscape:cy="132.3435"
     inkscape:window-width="2039"
     inkscape:window-height="1306"
     inkscape:window-x="283"
     inkscape:window-y="56"
     inkscape:window-maximized="0"
     inkscape:current-layer="layer1"
     showguides="false" />
  <defs
     id="defs2">
    <linearGradient
       inkscape:collect="always"
       id="linearGradient30186">
      <stop
         style="stop-color:#9b00ff;stop-opacity:1;"
         offset="0"
         id="stop30182" />
      <stop
         style="stop-color:#9b00ff;stop-opacity:1;"
         offset="0.89510602"
         id="stop30190" />
      <stop
         style="stop-color:#9b00ff;stop-opacity:0;"
         offset="1"
         id="stop30184" />
    </linearGradient>
    <linearGradient
       inkscape:collect="always"
       id="linearGradient30176">
      <stop
         style="stop-color:#68009b;stop-opacity:1;"
         offset="0"
         id="stop30172" />
      <stop
         style="stop-color:#68009b;stop-opacity:1;"
         offset="0.88859278"
         id="stop30180" />
      <stop
         style="stop-color:#68009b;stop-opacity:0;"
         offset="1"
         id="stop30174" />
    </linearGradient>
    <linearGradient
       inkscape:collect="always"
       id="linearGradient30166">
      <stop
         style="stop-color:#0000ff;stop-opacity:1;"
         offset="0"
         id="stop30162" />
      <stop
         style="stop-color:#0000ff;stop-opacity:1;"
         offset="0.89234895"
         id="stop30170" />
      <stop
         style="stop-color:#0000ff;stop-opacity:0;"
         offset="1"
         id="stop30164" />
    </linearGradient>
    <linearGradient
       inkscape:collect="always"
       id="linearGradient30156">
      <stop
         style="stop-color:#009a2d;stop-opacity:1;"
         offset="0"
         id="stop30152" />
      <stop
         style="stop-color:#009a2d;stop-opacity:0.98756087;"
         offset="0.86841834"
         id="stop30160" />
      <stop
         style="stop-color:#009a2d;stop-opacity:0;"
         offset="1"
         id="stop30154" />
    </linearGradient>
    <linearGradient
       inkscape:collect="always"
       id="linearGradient30146">
      <stop
         style="stop-color:#ffff00;stop-opacity:1;"
         offset="0"
         id="stop30142" />
      <stop
         style="stop-color:#ffff00;stop-opacity:0.97151685;"
         offset="0.85572934"
         id="stop30150" />
      <stop
         style="stop-color:#ffff00;stop-opacity:0;"
         offset="1"
         id="stop30144" />
    </linearGradient>
    <linearGradient
       inkscape:collect="always"
       id="linearGradient30136">
      <stop
         style="stop-color:#ff6600;stop-opacity:1;"
         offset="0"
         id="stop30132" />
      <stop
         style="stop-color:#ff6600;stop-opacity:0.89924777;"
         offset="0.88784319"
         id="stop30140" />
      <stop
         style="stop-color:#ff6600;stop-opacity:0;"
         offset="1"
         id="stop30134" />
    </linearGradient>
    <linearGradient
       inkscape:collect="always"
       id="linearGradient30126">
      <stop
         style="stop-color:#ff0000;stop-opacity:1;"
         offset="0"
         id="stop30122" />
      <stop
         style="stop-color:#ff0000;stop-opacity:1;"
         offset="0.80985337"
         id="stop30130" />
      <stop
         style="stop-color:#ff0000;stop-opacity:0;"
         offset="1"
         id="stop30124" />
    </linearGradient>
    <linearGradient
       inkscape:collect="always"
       xlink:href="#linearGradient30126"
       id="linearGradient30128"
       x1="930.02179"
       y1="478.79596"
       x2="2894.0947"
       y2="284.90717"
       gradientUnits="userSpaceOnUse" />
    <linearGradient
       inkscape:collect="always"
       xlink:href="#linearGradient30136"
       id="linearGradient30138"
       x1="930.70001"
       y1="387.60962"
       x2="2894.0947"
       y2="284.90717"
       gradientUnits="userSpaceOnUse" />
    <linearGradient
       inkscape:collect="always"
       xlink:href="#linearGradient30146"
       id="linearGradient30148"
       x1="933"
       y1="399.70963"
       x2="2894.0947"
       y2="284.90717"
       gradientUnits="userSpaceOnUse" />
    <linearGradient
       inkscape:collect="always"
       xlink:href="#linearGradient30156"
       id="linearGradient30158"
       x1="935.29999"
       y1="411.85962"
       x2="2894.0947"
       y2="284.90717"
       gradientUnits="userSpaceOnUse" />
    <linearGradient
       inkscape:collect="always"
       xlink:href="#linearGradient30166"
       id="linearGradient30168"
       x1="937.70001"
       y1="424.10962"
       x2="2894.0947"
       y2="284.90717"
       gradientUnits="userSpaceOnUse" />
    <linearGradient
       inkscape:collect="always"
       xlink:href="#linearGradient30176"
       id="linearGradient30178"
       x1="940.29999"
       y1="436.45963"
       x2="2894.0947"
       y2="284.90717"
       gradientUnits="userSpaceOnUse" />
    <linearGradient
       inkscape:collect="always"
       xlink:href="#linearGradient30186"
       id="linearGradient30188"
       x1="942.90002"
       y1="449.10962"
       x2="2894.0947"
       y2="284.90717"
       gradientUnits="userSpaceOnUse" />
    <radialGradient
       inkscape:collect="always"
       xlink:href="#linearGradient23853"
       id="radialGradient23855-4"
       cx="116.54075"
       cy="153.56149"
       fx="116.54075"
       fy="153.56149"
       r="33.8899"
       gradientTransform="matrix(0.14636634,0,0,0.0850353,127.56106,284.32991)"
       gradientUnits="userSpaceOnUse" />
    <linearGradient
       inkscape:collect="always"
       id="linearGradient23853">
      <stop
         style="stop-color:#596ed9;stop-opacity:1;"
         offset="0"
         id="stop23849" />
      <stop
         style="stop-color:#a459d9;stop-opacity:1"
         offset="1"
         id="stop23851" />
    </linearGradient>
    <radialGradient
       inkscape:collect="always"
       xlink:href="#linearGradient23853"
       id="radialGradient31729"
       cx="116.54075"
       cy="153.56149"
       fx="116.54075"
       fy="153.56149"
       r="33.8899"
       gradientTransform="matrix(1,0,0,0.58097592,49.64848,11.511924)"
       gradientUnits="userSpaceOnUse" />
    <radialGradient
       inkscape:collect="always"
       xlink:href="#linearGradient23853"
       id="radialGradient31737"
       cx="116.54075"
       cy="153.56149"
       fx="116.54075"
       fy="153.56149"
       r="33.8899"
       gradientTransform="matrix(1,0,0,0.58097592,49.64848,11.511924)"
       gradientUnits="userSpaceOnUse" />
  </defs>
  <g
     inkscape:label="Layer 1"
     inkscape:groupmode="layer"
     id="layer1">
    <rect
       style="opacity:0.930726;fill:#000000;stroke:#0c601c;stroke-width:10.3879;stroke-linecap:round;stroke-linejoin:round;stroke-dasharray:4.60529, 6.90795;stroke-dashoffset:0;stroke-opacity:0.92577;paint-order:stroke fill markers"
       id="rect107236"
       width="369.94891"
       height="459.63556"
       x="-80.461006"
       y="-75.718918"
       inkscape:label="background" />
    <text
       xml:space="preserve"
       style="font-style:normal;font-variant:normal;font-weight:normal;font-stretch:normal;font-size:54.703px;line-height:0.55;font-family:'Permanent Marker';-inkscape-font-specification:'Permanent Marker, Normal';font-variant-ligatures:normal;font-variant-caps:normal;font-variant-numeric:normal;font-variant-east-asian:normal;fill:#2a1e77;fill-opacity:1;stroke:#e37c5d;stroke-width:4.67253;stroke-miterlimit:4;stroke-dasharray:none;stroke-opacity:1;paint-order:stroke fill markers"
       x="117.82246"
       y="47.830318"
       id="text39261"
       transform="scale(0.88285778,1.1326853)"
       inkscape:label="Salty Dog"><tspan
         sodipodi:role="line"
         style="font-style:normal;font-variant:normal;font-weight:normal;font-stretch:normal;font-size:54.703px;font-family:'Permanent Marker';-inkscape-font-specification:'Permanent Marker, Normal';font-variant-ligatures:normal;font-variant-caps:normal;font-variant-numeric:normal;font-variant-east-asian:normal;text-align:center;text-anchor:middle;fill:#2a1e77;fill-opacity:1;stroke:#e37c5d;stroke-width:4.67253;stroke-miterlimit:4;stroke-dasharray:none;stroke-opacity:1;paint-order:stroke fill markers"
         x="119.83991"
         y="47.830318"
         id="tspan28930"><tspan
           style="font-size:68.7886px;text-align:center;letter-spacing:-7.76629px;text-anchor:middle;stroke-width:4.67253;stroke-dasharray:none;paint-order:stroke fill markers"
           id="tspan1498">S</tspan><tspan
           style="font-size:42.5468px;text-align:center;text-anchor:middle;fill:#2a1e77;fill-opacity:1;stroke:#e37c5d;stroke-width:4.67253;stroke-miterlimit:4;stroke-dasharray:none;stroke-opacity:1;paint-order:stroke fill markers"
           id="tspan56605">alty</tspan><tspan
           style="font-size:49.1346px;text-align:center;letter-spacing:-7.07532px;text-anchor:middle;stroke-width:4.67253;stroke-dasharray:none;paint-order:stroke fill markers"
           id="tspan28932">            </tspan></tspan></text>
    <g
       id="g30226"
       transform="matrix(0.81534916,0.40389643,-0.40389643,0.81534916,193.96824,-19.737708)"
       inkscape:label="eight ball"
       style="opacity:1">
      <g
         id="g107298"
         transform="matrix(1.1019495,0,0,1.1019495,-2.998768,-3.1103549)">
        <g
           id="g3650"
           transform="matrix(0.00138116,-2.3298495e-4,-2.3298495e-4,-0.00138116,-13.531599,51.268302)"
           style="stroke:#daf3fb;stroke-opacity:0.575412">
          <g
             id="g108602"
             transform="translate(-1201.6807,-543.00926)"
             style="stroke:#daf3fb;stroke-opacity:0.575412">
            <g
               id="g108643"
               transform="matrix(1.2231584,0,0,1.2231584,-7210.0729,-23043.488)"
               style="stroke:#daf3fb;stroke-opacity:0.575412">
              <path
                 d="m 13.412608,-0.64399515 c 8.36777,0 15.151134,6.78342905 15.151134,15.15113415 0,8.36777 -6.783364,15.151134 -15.151134,15.151134 -8.367705,0 -15.1511315,-6.783364 -15.1511315,-15.151134 0,-8.3677051 6.7834265,-15.15113415 15.1511315,-15.15113415 v 0"
                 style="fill:#15021e;fill-opacity:1;fill-rule:evenodd;stroke:#daf3fb;stroke-width:1.701;stroke-dasharray:none;stroke-opacity:0.575412;paint-order:stroke fill markers"
                 id="path2673"
                 transform="matrix(703.99645,-118.75567,-118.75567,-703.99645,15614.599,34485.748)" />
              <path
                 d="m 12.210307,5.6044939 c 4.184759,-0.7059196 8.14938,2.1142642 8.855287,6.2989461 0.70592,4.184759 -2.114187,8.149367 -6.298946,8.855287 -4.184681,0.705906 -8.1492894,-2.1142 -8.855209,-6.298959 -0.7059067,-4.184682 2.1141867,-8.1493674 6.298868,-8.8552741 v 0"
                 style="fill:#0808c6;fill-opacity:1;fill-rule:evenodd;stroke:#daf3fb;stroke-width:0.000787915;stroke-opacity:0.575412"
                 id="path2675"
                 transform="matrix(703.99645,-118.75567,-118.75567,-703.99645,15614.599,34485.748)" />
              <path
                 d="m 3.4617,10.152093 c -0.4779136,1.363149 -0.738301,2.828621 -0.738301,4.355046 0,6.852721 5.2366107,12.481458 11.926315,13.105085 -0.407349,0.03801 -0.819803,0.0583 -1.237106,0.0583 -7.2699588,0 -13.16337502,-5.893429 -13.16337502,-13.163388 0,-1.844121 0.37968328,-3.599623 1.06458052,-5.1926893 L 3.4617,10.152093 v 0"
                 style="fill:#ffffff;fill-opacity:1;fill-rule:evenodd;stroke:#daf3fb;stroke-width:0.000646379;stroke-opacity:0.575412"
                 id="path2679"
                 transform="matrix(703.99645,-118.75567,-118.75567,-703.99645,15614.599,34485.748)" />
              <path
                 d="m 13.412608,1.3437509 c 0.417303,0 0.829757,0.020361 1.237106,0.058303 C 11.003487,1.7419853 7.7891069,3.569106 5.6189526,6.2706489 L 3.7687302,5.5490955 C 6.1723827,2.9625436 9.6031708,1.3437509 13.412608,1.3437509 v 0"
                 style="fill:#ffffff;fill-opacity:1;fill-rule:evenodd;stroke:#daf3fb;stroke-width:0.000646379;stroke-opacity:0.575412"
                 id="path2681"
                 transform="matrix(703.99645,-118.75567,-118.75567,-703.99645,15614.599,34485.748)" />
              <path
                 d="m 21605.1,23974.1 c -560.4,237.9 -970.2,563.1 -1224,980.8 -256.5,415.1 -383.4,872.5 -383.4,1366.9 0,848.7 296.1,1549.3 885.7,2101.9 589.6,552.6 1430.3,830.2 2517,830.2 1078.6,0 1914.1,-277.6 2509,-830.2 594.9,-552.6 893.6,-1253.2 893.6,-2101.9 0,-526.1 -137.5,-994 -412.5,-1406.5 -272.2,-409.8 -658.2,-724.4 -1155.4,-941.2 632,-253.9 1110.5,-624 1441,-1110.5 327.8,-489.1 491.8,-1049.6 491.8,-1686.7 0,-1052.3 -333.2,-1906.3 -1002,-2564.6 -666.3,-658.3 -1554.7,-986.2 -2665.1,-986.2 -1031.1,0 -1887.7,272.4 -2575.1,817 -809.1,639.8 -1213.5,1522.9 -1213.5,2641.2 0,616.1 153.3,1181.8 457.3,1697.4 304.1,515.5 782.6,912.1 1435.6,1192.4 v 0"
                 style="fill:#e7ffe7;fill-opacity:0.955477;fill-rule:nonzero;stroke:#daf3fb;stroke-opacity:0.575412"
                 id="path2677" />
              <path
                 d="m 21853.7,21293.2 c 0,-605.5 153.3,-1076.1 460,-1414.5 306.7,-338.4 687.4,-507.6 1144.8,-507.6 449.5,0 819.6,163.9 1113.1,489.1 293.4,325.2 438.9,795.8 438.9,1409.2 0,536.7 -148.1,967.6 -446.9,1292.8 -298.7,325.3 -676.8,489.2 -1134.2,489.2 -531.4,0 -925.3,-185.2 -1187,-555.3 -259.2,-370.1 -388.7,-769.3 -388.7,-1202.9 v 0"
                 style="fill:#1111da;fill-opacity:1;fill-rule:nonzero;stroke:#daf3fb;stroke-opacity:0.575412"
                 id="path2683" />
              <path
                 d="m 22059.9,26163.2 c 0,-433.6 121.6,-774.7 364.8,-1017.9 246,-243.2 571.2,-364.9 975.7,-364.9 412.4,0 740.2,124.3 986.1,370.1 245.9,246 370.2,587 370.2,1020.6 0,409.8 -121.7,737.7 -364.9,983.5 -245.8,245.9 -568.4,370.2 -967.7,370.2 -417.7,0 -748.2,-124.3 -994,-372.8 -246,-248.5 -370.2,-579 -370.2,-988.8 v 0"
                 style="fill:#1111da;fill-opacity:1;fill-rule:nonzero;stroke:#daf3fb;stroke-opacity:0.575412"
                 id="path2685" />
            </g>
          </g>
        </g>
      </g>
    </g>
    <rect
       style="opacity:1;fill:#f98d00;fill-opacity:1;stroke:none;stroke-width:60.4989;stroke-linecap:round;stroke-linejoin:round;stroke-dasharray:none;stroke-opacity:0.777837;paint-order:stroke fill markers"
       id="rect2222"
       width="212.58264"
       height="56.344585"
       x="41.137756"
       y="-106.96311"
       transform="rotate(46.865052)" />
    <g
       id="g27583"
       transform="matrix(0.26905257,0,0,0.26905257,167.60018,287.96195)"
       inkscape:label="Dog Face">
      <ellipse
         style="fill:#351dad;fill-opacity:1;stroke:none;stroke-width:4.8;stroke-linecap:round;stroke-linejoin:round;stroke-opacity:1"
         id="path21981"
         cx="76.476891"
         cy="89.308403"
         rx="68.080666"
         ry="67.834969" />
      <path
         style="fill:#04101b;fill-opacity:0.922467;stroke:#f65222;stroke-width:3.87;stroke-linecap:round;stroke-linejoin:round;stroke-miterlimit:4;stroke-dasharray:none;stroke-opacity:0.882353"
         d="m 62.007032,36.46576 c -1.586357,0.572484 -1.479949,-8.597819 -7.194684,-7.734057 -3.26893,0.494087 -3.2925,1.597579 -9.953811,2.766252 -6.661312,1.168672 -10.753964,-2.961941 -14.266512,0.802994 -1.54006,1.650718 -1.160478,3.847126 -0.579843,5.648643 0.380184,1.179585 1.863018,2.166713 2.467983,3.44245 0.465575,0.981794 1.140846,1.435823 1.5544,2.440637 0.67342,1.636208 -0.435078,-0.251891 2.624947,4.613643 1.721032,2.736496 0.730736,7.077227 -1.185135,5.192706 -2.511684,-2.470583 -0.765529,-3.205637 -4.039162,0.191256 -3.478683,3.609663 -9.161747,15.737389 -6.11371,22.9751 2.401405,5.702253 -6.029739,13.19845 0.846207,13.641416 1.814264,0.116879 0.982795,1.702866 0.709687,3.399905 -0.212707,1.321717 -0.6286,3.391089 -1.274931,5.536832 -0.599002,1.988613 1.732089,2.244553 4.108611,2.897463 0.810105,0.22256 2.544259,2.06542 0.517727,5.1541 -1.98354,3.02317 0.301282,2.94071 -1.807468,7.82341 -0.882657,2.04375 -2.41041,14.78898 4.559394,20.34774 1.08035,0.86163 5.199727,9.79529 22.184563,10.25218 3.099059,0.0834 4.426464,-2.5935 7.242308,-4.42375 2.267597,-1.4739 3.963153,7.32621 14.18134,6.43715 5.281683,-0.45954 14.564035,-3.346 16.610384,-1.86012 2.526974,1.83487 8.317763,3.36142 17.116273,-3.9946 2.59362,-2.1684 2.18709,0.0395 5.00252,-0.41506 1.64306,-0.26525 6.3805,-4.15525 7.63018,-5.58873 1.48615,-1.7047 -1.32238,-1.56538 -1.59442,-5.47269 -0.20426,-2.93371 3.93143,-1.73102 4.28049,-8.40756 0.25983,-4.96974 -0.53997,-6.2572 -1.44591,-8.00589 -1.07953,-2.08376 4.34349,-8.18292 2.64355,-10.22155 -1.66893,-2.00144 -2.75056,-2.68307 -1.30961,-4.715715 0.7152,-1.008895 0.26012,-3.922568 -0.35337,-5.790775 -0.65545,-1.995944 -1.78341,-8.388669 -4.30733,-12.619188 -0.95359,-1.598386 -3.02683,-4.503605 -0.89737,-5.422266 2.27573,-0.981761 5.52585,-4.834787 5.40916,-7.060349 -0.18228,-3.476601 -1.03065,-7.658567 -3.66663,-6.603271 -1.38487,0.554425 -0.77226,-2.308949 -1.62556,-3.894885 -1.33015,-2.472209 -3.78454,-4.37667 -4.15702,-4.913256 -1.20048,-1.729377 5.44777,-1.867967 2.60973,-9.186064 -2.33337,-6.016769 -9.97729,-2.070054 -11.55025,-3.197292 -2.39352,-1.715278 -5.31087,-0.977087 -6.78521,-1.025 -3.057894,-0.09938 -5.162983,0.122174 -8.428503,-0.825822 -4.10288,-1.191085 -10.341396,-5.132801 -15.691657,-5.289837 -4.472389,-0.131269 -8.885216,1.232275 -14.071358,3.10385 z"
         id="path1037"
         sodipodi:nodetypes="sssssssssssssssssssssssssssssssssssssssssss" />
      <g
         id="g23541"
         style="fill:#f65222;fill-opacity:0.882508">
        <path
           style="fill:#f65222;fill-opacity:0.882508;stroke:none;stroke-width:1.27;stroke-linecap:round;stroke-linejoin:round;stroke-opacity:0.62367"
           d="m 66.359341,49.262051 c -1.671045,1.359908 -4.09888,0.991778 -4.952802,1.419659 -0.853924,0.427882 -2.185627,1.225377 1.174549,-2.755763 3.360174,-3.98114 5.000181,0.34169 3.778253,1.336104 z"
           id="path15331"
           sodipodi:nodetypes="ssss" />
        <path
           style="fill:#f65222;fill-opacity:0.882508;stroke:none;stroke-width:1.27;stroke-linecap:round;stroke-linejoin:round;stroke-opacity:0.62367"
           d="m 54.883219,56.635948 c 0.982317,-1.034719 2.352841,-1.952212 3.896399,-1.771552 1.543558,0.180663 0.657662,-2.230636 -2.214853,-2.326232 -2.872513,-0.09559 -5.379162,5.084677 -5.484297,6.401043 -0.105132,1.316366 -1.254658,3.075259 -0.428672,4.224753 0.818206,1.138667 1.098833,2.211588 4.101806,0.932421 3.002973,-1.279166 -1.411854,-2.263003 -1.416039,-3.531167 -0.0046,-1.40744 0.576622,-2.908539 1.545656,-3.929266 z"
           id="path15333"
           sodipodi:nodetypes="ssssssss" />
        <g
           id="g15423"
           style="fill:#f65222;fill-opacity:0.882508;stroke:none">
          <path
             id="path15337"
             style="fill:#f65222;fill-opacity:0.882508;stroke:none;stroke-width:1.27;stroke-linecap:round;stroke-linejoin:round;stroke-opacity:0.62367"
             d="m 88.574456,48.806986 c -0.803862,0.357789 -2.308802,0.815705 -1.552271,2.135021 0.756531,1.319315 3.803909,3.078704 5.204372,3.454259 1.400461,0.375558 4.741622,1.283579 4.87358,0.520613 0.131956,-0.762966 2.244241,-0.31655 1.255943,-2.001504 -0.988295,-1.684951 -0.95767,-2.004791 -2.188069,-2.474027 -4.543755,-1.732847 -6.066808,-2.313899 -7.593555,-1.634362 z m -17.531924,4.872926 c 1.817396,0.123457 4.598482,0.484643 5.462563,0.154723 0.864085,-0.329917 3.353647,1.356781 4.203079,2.801869 0.849431,1.445088 2.480671,3.20844 4.265826,4.414669 1.571577,1.061913 4.365236,1.087172 5.421633,2.350131 1.056396,1.26296 4.983903,3.017391 8.030054,2.816156 3.046153,-0.201234 4.314303,-0.245597 4.338313,-1.14396 0.024,-0.898364 -0.67566,-6.537615 -1.40957,-6.268262 -3.488913,1.280466 -11.406774,-1.094523 -11.197118,-3.041991 0.209656,-1.947469 -8.815197,-3.450413 -7.386603,-6.531512 1.428591,-3.0811 0.936697,-4.175419 3.913087,-3.813718 2.97639,0.361704 6.829494,1.939343 7.013961,0.788398 0.184468,-1.150946 -1.257321,-6.908742 -1.257321,-6.908742 0,0 2.405033,-0.210063 2.405033,0.154474 0,0.364538 -0.434908,2.33263 -0.434908,2.33263 0,0 1.07152,3.70394 3.629593,4.109242 2.558076,0.405302 4.017586,0.90756 5.121706,-0.409851 1.10413,-1.31741 0.86086,-2.635485 1.42781,-4.240106 0.56696,-1.604624 -0.30402,-1.939838 -0.30402,-1.939838 l 2.67281,1.302607 2.72606,-0.2853 c 0,0 0.65333,2.765941 -0.309,4.119377 -0.96234,1.353437 -1.98861,3.342976 -4.23189,3.936521 -2.24327,0.593545 -5.472383,0.108226 -4.32801,1.723081 1.14438,1.614855 -0.65047,4.919231 2.43637,4.127278 3.08685,-0.791954 6.69356,-2.201352 6.17528,-1.082474 -0.51828,1.118875 -0.92783,3.432958 -3.67301,3.570843 -2.74519,0.137882 0.22193,7.206691 1.45915,6.464908 1.23723,-0.74178 4.98577,-2.502897 5.12379,-3.420205 0.13803,-0.917305 3.83659,-0.328025 1.98849,1.79201 -1.84811,2.120034 -4.21189,4.429791 -8.62229,8.172278 -1.46594,1.243938 -6.911863,-0.0772 -9.313649,-0.458663 -2.573888,-0.408794 -6.242681,-2.199202 -8.695249,-4.762792 -2.771961,-2.897441 -8.517762,-6.407547 -9.536194,-6.650482 -1.018431,-0.242935 -8.049126,-0.288217 -8.046791,-2.555678 0.0023,-2.267458 0.556463,-1.643065 0.931015,-1.617621 z"
             sodipodi:nodetypes="ssssssssssssssssssscscssscccsssssssssssssss" />
        </g>
        <path
           style="fill:#f65222;fill-opacity:0.882508;stroke:none;stroke-width:1.27;stroke-linecap:round;stroke-linejoin:round;stroke-opacity:0.62367"
           d="m 67.663617,65.668164 c 0,0 5.893658,0.4782 8.553051,1.857084 2.659393,1.378884 10.197052,7.267959 14.405684,7.380436 4.208631,0.112474 12.369808,4.319299 14.397818,2.090933 2.02801,-2.228368 -0.60964,-6.883238 -0.60964,-6.883238 l 1.85102,-0.938819 c 0,0 1.7716,4.686215 1.3409,5.919526 -0.43071,1.233313 5.47723,-0.91181 6.56123,-2.128605 1.084,-1.216795 4.80453,-8.376827 5.25287,-11.842784 0.44835,-3.465957 0.64522,-4.049908 0.64522,-4.049908 l 0.895,4.430469 1.68391,0.257482 c 0,0 0.007,0.325105 -2.78174,3.102912 -2.78911,2.777805 -5.11209,8.450338 -5.11209,8.450338 0,0 3.00508,-0.224386 4.76934,-0.704614 1.85516,-0.50497 2.21829,-1.415415 3.08235,-2.853968 1.12147,-1.65486 1.25033,-6.275817 0.39912,-6.877649 -1.15596,-0.817292 1.31026,-0.922461 1.31026,-0.922461 l 0.58718,3.338169 0.39284,3.385269 -0.6492,2.196651 -3.52407,4.028545 -1.70559,0.827942 -0.36907,2.367701 1.75394,3.053993 c 0,0 0.84515,2.105234 -2.03147,-0.369819 -2.87662,-2.475053 -4.9321,-2.3408 -5.49408,-2.408393 -0.56197,-0.0676 -0.28818,2.445224 -0.047,4.923406 0.23356,2.400342 3.42246,6.143243 -1.91639,8.580843 -4.23833,1.935129 -6.86913,0.470668 -7.52107,-2.498517 -1.73009,-7.879598 0.72426,-8.041491 -3.50072,-9.329626 -7.903353,-2.409615 -13.114776,5.336632 -15.727405,6.297454 -2.612625,0.960821 -4.601305,-0.72281 -4.601305,-0.72281 l -1.887699,2.190178 c 0,0 -7.284225,3.160384 -7.339763,1.041281 -0.05554,-2.119103 -3.178435,-5.735886 -0.05554,-4.404468 3.122895,1.331417 9.409955,-0.573099 10.825976,-1.88108 1.416021,-1.307978 4.648315,-1.644402 2.98031,-2.525204 -3.646759,-1.925698 -6.916083,0.27819 -9.188058,0.03879 -1.907854,-0.201033 -5.510397,-2.238779 -5.071523,-6.3718 0.314293,-2.959804 2.842128,3.901963 4.77956,1.738039 1.937436,-2.163924 2.121745,-2.85328 0.766464,-4.462606 -2.912883,-3.458899 -4.386866,1.549888 -4.926721,-0.0098 -0.539859,-1.559658 0.391162,-3.420621 -1.696572,-3.028405 -2.087732,0.392215 -4.896697,-1.145022 -1.477278,-2.282889 z"
           id="path19747"
           sodipodi:nodetypes="csssccssscccscscsccccccccsssssssccsssssssssssc" />
        <path
           style="fill:#f65222;fill-opacity:0.882508;stroke:none;stroke-width:1.27;stroke-linecap:round;stroke-linejoin:round;stroke-opacity:0.62367"
           d="m 57.36509,70.348125 c 0,0 -0.649595,6.054034 0.437785,7.871534 1.087379,1.817502 2.450367,4.595397 -0.209939,3.147666 -2.660304,-1.447731 -3.806143,-3.737303 -3.361071,-5.864852 0.445071,-2.127552 1.618186,-5.890967 3.133225,-5.154348 z"
           id="path20941" />
        <path
           style="fill:#f65222;fill-opacity:0.882508;stroke:none;stroke-width:1.27;stroke-linecap:round;stroke-linejoin:round;stroke-opacity:0.62367"
           d="m 52.720769,82.242876 c 0,0 2.331114,5.389184 0.714621,6.332122 -1.616493,0.942935 -3.367982,5.370393 -4.676733,-1.05079 -1.308754,-6.421184 1.319056,-15.28336 2.425462,-14.997022 1.106408,0.286337 3.125147,1.731584 1.922849,6.750896 -1.202301,5.019313 -0.386199,2.964794 -0.386199,2.964794 z"
           id="path20943" />
        <path
           style="fill:#f65222;fill-opacity:0.882508;stroke:none;stroke-width:1.27;stroke-linecap:round;stroke-linejoin:round;stroke-opacity:0.62367"
           d="m 86.812219,87.084465 c 0,0 -7.887967,8.47009 -10.409446,16.958275 -2.521479,8.48818 -0.607915,15.05475 -0.607915,15.05475 0,0 13.578586,-14.20223 16.630031,-14.36484 3.051442,-0.1626 2.911766,2.05594 -0.494054,4.5546 -3.405817,2.49865 -13.204526,14.32378 -13.204526,14.32378 0,0 -8.444748,7.40863 -8.776395,1.9629 -0.331648,-5.44572 1.540663,-23.65181 7.677861,-32.415666 6.137196,-8.763857 9.184444,-6.073799 9.184444,-6.073799 z"
           id="path20945" />
        <path
           style="fill:#f65222;fill-opacity:0.882508;stroke:none;stroke-width:1.27;stroke-linecap:round;stroke-linejoin:round;stroke-opacity:0.62367"
           d="m 105.94032,97.216305 c 0,0 -6.818157,2.33684 -3.54366,3.191805 3.2745,0.85496 9.98564,-1.54354 12.58777,0.12292 2.60212,1.66646 6.31141,2.69962 7.94739,1.91482 1.63596,-0.78479 2.77544,0.005 2.77544,0.005 l -0.73315,-1.69326 0.71982,-1.451687 c 0,0 -0.73004,1.289127 -3.66481,0.238797 -2.93478,-1.050335 -9.98778,-4.126323 -16.0888,-2.328228 z"
           id="path20947" />
        <path
           style="fill:#f65222;fill-opacity:0.882508;stroke:none;stroke-width:1.27;stroke-linecap:round;stroke-linejoin:round;stroke-opacity:0.62367"
           d="m 124.95189,110.76285 c 0,0 -4.51181,1.67171 -4.51181,2.71542 0,1.04372 -3.37917,0.91748 1.26741,3.55963 4.64659,2.64215 4.64659,2.52303 4.64659,2.52303 l -1.61984,-4.07274 -0.54455,-2.39474 z"
           id="path20949" />
        <path
           style="fill:#f65222;fill-opacity:0.882508;stroke:none;stroke-width:1.27;stroke-linecap:round;stroke-linejoin:round;stroke-opacity:0.62367"
           d="m 67.536337,96.279998 c 2.020371,-3.497305 0.430702,-6.265884 -2.699152,-2.802993 -3.129854,3.462888 -2.388442,7.391825 -0.262435,5.766252 2.126009,-1.625568 2.961587,-2.963259 2.961587,-2.963259 z"
           id="path20951" />
        <path
           style="fill:#f65222;fill-opacity:0.882508;stroke:none;stroke-width:1.27;stroke-linecap:round;stroke-linejoin:round;stroke-opacity:1"
           d="m 42.158369,77.962068 c 0,0 -1.214707,4.050271 -0.326099,6.735255 0.888609,2.684986 -1.325954,7.864774 -3.559754,1.423461 -2.233801,-6.441313 -0.188817,-11.760779 1.809702,-13.041752 1.99852,-1.280969 1.959004,0.499515 2.012889,2.991297 0.05388,2.49178 -0.05612,3.135001 -0.05612,3.135001"
           id="path21282" />
        <path
           style="fill:#f65222;fill-opacity:0.882508;stroke:none;stroke-width:1.27;stroke-linecap:round;stroke-linejoin:round;stroke-opacity:1"
           d="m 38.206844,51.049131 c 0,0 1.180607,7.111571 0.361063,8.194442 -0.819541,1.082874 -4.980945,15.39844 -4.691832,23.960968 0.289115,8.562528 1.182312,5.247299 -0.548167,6.70913 -1.730475,1.461833 -5.922478,3.126959 -5.922478,3.126959 v -1.588984 l -0.992811,-0.804804 -1.299811,-0.151231 0.564445,-1.806265 c 0,0 5.576073,2.995242 5.87913,-1.263484 0.303056,-4.258725 -1.477462,-13.399808 3.768561,-29.180879 0.255392,-0.768269 0.638622,-1.3334 0.638622,-2.385462 0,-1.052061 1.127779,-2.085806 1.127779,-2.085806 z"
           id="path21397"
           sodipodi:nodetypes="cssscccccssscc" />
        <path
           style="fill:#f65222;fill-opacity:0.882508;stroke:none;stroke-width:1.27;stroke-linecap:round;stroke-linejoin:round;stroke-opacity:1"
           d="m 40.955042,99.698634 c 0,0 3.147046,-2.894205 3.04738,-1.403556 -0.09966,1.490646 -0.67619,3.913112 -2.180431,4.165282 -1.504243,0.25217 -3.375062,2.75817 -3.082171,0.94981 0.292891,-1.80835 1.43773,-2.52129 2.215222,-3.711536 z"
           id="path21755" />
        <path
           style="fill:#f65222;fill-opacity:0.882508;stroke:none;stroke-width:1.27;stroke-linecap:round;stroke-linejoin:round;stroke-opacity:1"
           d="m 34.879126,91.570946 c 0,0 2.10715,-1.581078 2.573433,-0.583297 0.466283,0.997783 0.787352,4.63184 -0.522052,4.532225 -1.309405,-0.09962 -3.693205,0.171355 -3.544956,-1.045435 0.148251,-1.21679 0.30358,-2.378231 1.493575,-2.903493 z"
           id="path21757" />
      </g>
    </g>
    <text
       xml:space="preserve"
       style="font-size:70.8988px;line-height:1.25;font-family:sans-serif;fill:#ffffff;fill-opacity:0.932496;stroke:#d8e35d;stroke-width:0.737005;stroke-dasharray:none;stroke-opacity:1;paint-order:stroke fill markers"
       x="99.984032"
       y="-46.201393"
       id="text1008"
       transform="matrix(0.61881615,0.66047341,-0.80628275,0.75542903,0,0)"
       inkscape:label="3.5g"><tspan
         sodipodi:role="line"
         id="tspan1006"
         style="font-style:normal;font-variant:normal;font-weight:normal;font-stretch:normal;font-size:70.8988px;font-family:'Baby Silhouette Font';-inkscape-font-specification:'Baby Silhouette Font, Normal';font-variant-ligatures:normal;font-variant-caps:normal;font-variant-numeric:normal;font-variant-east-asian:normal;fill:#ffffff;fill-opacity:0.932496;stroke:#d8e35d;stroke-width:0.737005;stroke-dasharray:none;stroke-opacity:1;paint-order:stroke fill markers"
         x="99.984032"
         y="-46.201393">3.5<tspan
   style="font-size:47.2658px;fill:#ffffff;fill-opacity:0.932496;stroke:#d8e35d;stroke-width:0.737005;stroke-dasharray:none;stroke-opacity:1;paint-order:stroke fill markers"
   id="tspan1060">g</tspan></tspan></text>
    <text
       xml:space="preserve"
       style="font-style:normal;font-variant:normal;font-weight:normal;font-stretch:normal;font-size:68.2546px;line-height:0.55;font-family:'Permanent Marker';-inkscape-font-specification:'Permanent Marker, Normal';font-variant-ligatures:normal;font-variant-caps:normal;font-variant-numeric:normal;font-variant-east-asian:normal;fill:#2a1e77;fill-opacity:1;stroke:#e37c5d;stroke-width:5.83005;stroke-miterlimit:4;stroke-dasharray:none;stroke-opacity:1;paint-order:stroke fill markers"
       x="105.15192"
       y="94.386826"
       id="text39261-3"
       transform="scale(0.90458566,1.1054785)"
       inkscape:label="Salty Dog"><tspan
         sodipodi:role="line"
         style="font-style:normal;font-variant:normal;font-weight:normal;font-stretch:normal;font-size:68.2546px;font-family:'Permanent Marker';-inkscape-font-specification:'Permanent Marker, Normal';font-variant-ligatures:normal;font-variant-caps:normal;font-variant-numeric:normal;font-variant-east-asian:normal;text-align:center;text-anchor:middle;fill:#2a1e77;fill-opacity:1;stroke:#e37c5d;stroke-width:5.83005;stroke-miterlimit:4;stroke-dasharray:none;stroke-opacity:1;paint-order:stroke fill markers"
         x="105.15192"
         y="94.386826"
         id="tspan28930-3"><tspan
           style="font-size:61.3065px;text-align:center;letter-spacing:-8.82808px;text-anchor:middle;stroke-width:5.83005;stroke-dasharray:none;paint-order:stroke fill markers"
           id="tspan28932-5">D</tspan><tspan
           style="font-size:45.503px;text-align:center;text-anchor:middle;fill:#2a1e77;fill-opacity:1;stroke:#e37c5d;stroke-width:5.83005;stroke-miterlimit:4;stroke-dasharray:none;stroke-opacity:1;paint-order:stroke fill markers"
           id="tspan64833-6">og</tspan></tspan></text>
  </g>
  <g
     inkscape:groupmode="layer"
     id="layer2"
     inkscape:label="Rock Salt"
     style="display:inline">
    <text
       xml:space="preserve"
       style="font-size:3.71772px;line-height:0.75;font-family:sans-serif;fill:url(#radialGradient23855-4);fill-opacity:1;stroke:#00f749;stroke-width:0.797529;stroke-linecap:round;stroke-linejoin:round;stroke-miterlimit:4;stroke-dasharray:0.398762, 0.598141;stroke-dashoffset:0;stroke-opacity:0.863412;paint-order:stroke fill markers"
       x="144.41289"
       y="297.38"
       id="text15142-4"
       transform="rotate(-1.4569853)"><tspan
         sodipodi:role="line"
         style="font-style:normal;font-variant:normal;font-weight:normal;font-stretch:normal;font-size:95.9434px;font-family:'Best Friends Font';-inkscape-font-specification:'Best Friends Font, Normal';font-variant-ligatures:normal;font-variant-caps:normal;font-variant-numeric:normal;font-variant-east-asian:normal;text-align:center;text-anchor:middle;fill:url(#radialGradient23855-4);fill-opacity:1;stroke:#00f749;stroke-width:0.797529;stroke-linecap:round;stroke-linejoin:round;stroke-miterlimit:4;stroke-dasharray:0.398762, 0.598141;stroke-dashoffset:0;stroke-opacity:0.863412;paint-order:stroke fill markers"
         x="144.41289"
         y="297.38"
         id="tspan15144-6">Salt</tspan></text>
    <g
       id="g1861"
       transform="matrix(0.88315551,0.14341175,-0.14341175,0.88315551,-56.889502,40.76968)">
      <text
         xml:space="preserve"
         style="font-size:77.1587px;line-height:1.25;font-family:sans-serif;stroke:#0c601c;stroke-width:9.96184;stroke-dasharray:none;stroke-opacity:0.92577;paint-order:stroke fill markers"
         x="43.373718"
         y="291.81937"
         id="text103475-6"
         transform="matrix(1.0316783,-0.18886031,0.20928773,0.93098192,0,0)"><tspan
           sodipodi:role="line"
           id="tspan103473-2"
           x="43.373718"
           y="291.81937"
           style="font-style:normal;font-variant:normal;font-weight:normal;font-stretch:normal;font-size:77.1587px;font-family:'Blooms Font - Alt 2';-inkscape-font-specification:'Blooms Font - Alt 2, Normal';font-variant-ligatures:normal;font-variant-caps:normal;font-variant-numeric:normal;font-variant-east-asian:normal;stroke:#0c601c;stroke-width:9.96184;stroke-dasharray:none;stroke-opacity:0.92577;paint-order:stroke fill markers">Rock</tspan></text>
      <text
         xml:space="preserve"
         style="font-size:77.1587px;line-height:1.25;font-family:sans-serif;stroke:#fff41f;stroke-width:2.61683;stroke-dasharray:none;stroke-opacity:0.812571;paint-order:stroke fill markers"
         x="43.45982"
         y="292.22507"
         id="text103475"
         transform="matrix(1.0316783,-0.18886031,0.20928773,0.93098192,0,0)"><tspan
           sodipodi:role="line"
           id="tspan103473"
           x="43.45982"
           y="292.22507"
           style="font-style:normal;font-variant:normal;font-weight:normal;font-stretch:normal;font-size:77.1587px;font-family:'Blooms Font - Alt 2';-inkscape-font-specification:'Blooms Font - Alt 2, Normal';font-variant-ligatures:normal;font-variant-caps:normal;font-variant-numeric:normal;font-variant-east-asian:normal;stroke:#fff41f;stroke-width:2.61683;stroke-dasharray:none;stroke-opacity:0.812571;paint-order:stroke fill markers">Rock</tspan></text>
    </g>
  </g>
  <g
     inkscape:groupmode="layer"
     id="layer4"
     inkscape:label="Clear"
     style="display:inline;opacity:1">
    <path
       d="m 34.427304,144.26698 c 8.612226,0 16.359633,1.74068 23.233937,5.39611 v 16.35962 h -1.304126 c -4.263289,-12.61854 -11.576908,-18.88499 -21.929811,-18.88499 -4.699841,0 -8.615015,1.13283 -12.35886,3.91791 -1.389778,1.04441 -1.218471,1.13006 -0.870337,2.87074 1.044413,4.87391 0.262477,10.00752 -4.697072,12.61855 -7.8330619,4.09198 -14.8814334,-4.87114 -9.6593958,-9.57374 2.1744686,-2.0004 5.0452148,-1.65227 6.8715398,0.61338 1.655033,2.08605 1.306898,-1.04717 -0.08286,-2.43971 -3.7438357,-3.74109 -11.3171769,-0.2597 -11.2287614,6.26644 v 0 17.31563 l 1.4781939,2.43971 v -14.71012 c 0.6990365,1.13281 1.6550288,2.00316 2.6966716,2.78508 v 15.66612 l 1.5693823,2.26288 v -16.88182 c 0.5222269,0.34814 1.1300571,0.60785 1.7406779,0.95599 1.9147457,0.95599 1.3925437,1.0444 1.2184737,3.13322 -0.174053,1.65226 -0.262469,3.39294 -0.262469,5.04521 0.08842,10.27001 2.348536,18.27714 6.874303,24.02139 4.525767,5.82988 10.52975,8.70063 17.929035,8.70063 10.26725,0 17.144317,-6.08962 20.796979,-18.10031 h 1.304134 v 15.75177 c -5.304935,3.48137 -12.966686,5.21928 -22.8858,5.21928 -10.963552,0 -20.01509,-3.21888 -27.0634571,-9.57098 -7.04837527,-6.35486 -10.6153887,-15.05549 -10.6153887,-26.10743 0.082903,-5.21928 0.6078565,-8.35251 2.34577549,-13.31483 0.78469003,-2.43695 -0.69350819,-4.95955 1.48096161,-9.13718 5.2192728,-10.1816 19.5812657,-4.87115 16.8845957,4.09198 -0.610628,1.91197 -1.392545,2.26011 -2.00317,3.48136 1.132827,0.34536 3.044811,-2.3513 3.481363,-3.22164 1.914749,-4.3517 -0.171311,-8.09278 -2.870738,-11.40007 -1.395308,-1.74069 -0.262469,-1.82634 1.652264,-2.60827 5.310454,-2.17723 10.529754,-2.96191 16.27401,-2.96191 v 0"
       style="fill:#99cdf9;fill-opacity:0.78348547;fill-rule:nonzero;stroke:#3b0909;stroke-width:4.6000001;stroke-dasharray:none;stroke-opacity:0.77783722;paint-order:stroke fill markers"
       id="path4435-9" />
    <path
       d="m 89.977882,204.0069 h 0.771132 v 11.00905 H 62.452948 v -0.58105 c 1.592874,-0.77113 2.416141,-2.7994 2.416141,-5.98667 0,-0.77114 0.04746,-6.08326 -0.04903,-6.37455 -0.19469,-0.62702 -1.208074,-1.73698 -1.594405,-3.04009 -1.303121,-4.10559 2.270489,-8.2587 6.42207,-6.85746 2.318011,0.77114 3.187267,2.80093 2.753415,5.02236 -0.242242,1.0609 0.867714,-0.67762 0.577957,-2.27049 -0.288217,-2.02826 -1.7385,-3.28232 -3.52455,-3.86336 v -7.58108 l -0.86771,1.25713 v 6.08326 c -0.484466,-0.0966 -0.967369,-0.14559 -1.497825,-0.14559 v -3.91088 l -0.869259,1.40123 v 2.55871 0 c -1.69098,0.14407 -1.350642,0.0966 -1.350642,-1.54535 0,-1.69098 0,-3.42949 0,-5.11742 0,-3.23479 -0.823273,-5.21707 -2.416141,-5.98821 v -0.62704 h 11.637623 v 0.62704 c -1.592875,0.77113 -2.414611,2.75341 -2.414611,5.9882 0,0.5795 0,6.03574 0,6.13232 0.289732,0.86772 2.655285,2.2199 2.60776,5.50376 -0.144013,5.50529 -7.532006,6.6643 -9.077361,2.26895 -0.677608,-2.07579 0.627041,-4.15158 2.89599,-4.44132 1.592875,-0.19318 -0.530449,-0.48446 -1.44721,-0.14408 -4.105594,1.44723 -3.621154,8.6435 3.8143,8.93325 1.496275,0.0951 1.206521,0.0475 1.206521,1.54229 0,1.69098 0,3.38044 0,5.11895 0,1.5944 0.387881,2.75341 1.15901,3.4295 0.7742,0.72514 2.075788,1.06242 3.861834,1.06242 h 2.31801 c 3.234794,0 5.698462,-0.72515 7.338857,-2.27049 1.643453,-1.49628 2.849993,-3.91089 3.624211,-7.19321 v 0"
       style="fill:#99cdf9;fill-opacity:0.78348547;fill-rule:nonzero;stroke:#3b0909;stroke-width:4.6;stroke-dasharray:none;stroke-opacity:0.77783722;paint-order:stroke fill markers"
       id="path4453-2" />
    <path
       d="m 122.04047,206.03691 h 0.74455 v 8.97904 H 95.658818 v -0.60422 c 1.861397,-1.07104 2.186409,-3.21018 2.279465,-5.16465 0,-0.5599 -1.022283,-1.58219 -1.348767,-2.14209 -1.953007,-3.06983 -0.930698,-7.35105 2.883689,-8.1872 4.607705,-1.02525 7.259445,4.97702 2.792095,6.83991 -1.2099,0.51114 0.55843,0.23192 1.07106,-0.0488 2.88369,-1.39458 2.8379,-5.72307 -0.60571,-7.583 v -10.09737 l -0.79035,1.16412 v 8.56097 c -0.46684,-0.13882 -0.9307,-0.2792 -1.48912,-0.37229 v -6.18841 l -0.791846,1.34876 v 4.74657 c -0.137462,0 -0.231964,0 -0.372284,0 -1.675242,-0.0458 -1.348767,0.0931 -1.348767,-1.81411 0,-3.58245 0,-7.1664 0,-10.74738 0,-3.11858 -0.744544,-5.02577 -2.279465,-5.81761 v -0.60423 h 8.885952 17.1707 v 8.42212 h -0.74456 c -0.8849,-2.32821 -2.1879,-4.002 -3.81441,-5.11884 -1.67524,-1.16263 -3.95621,-1.72106 -6.79411,-1.72106 h -5.81762 v 15.95931 l 4.88692,-0.32504 c 1.67527,-0.093 2.97825,-0.60717 3.95474,-1.44332 0.9307,-0.83911 1.67378,-2.09335 2.18788,-3.72133 h 0.65002 v 11.77119 h -0.65002 c -0.5599,-1.62801 -1.30297,-2.83792 -2.23515,-3.62827 -0.97648,-0.79332 -2.32527,-1.25719 -4.0478,-1.35024 l -4.74659,-0.32651 c 0,0.93069 0.42105,1.16263 0.93217,1.95447 1.86143,2.97676 1.25571,7.02604 -2.32673,8.28175 -3.53518,1.25719 -7.16638,-1.95447 -5.211927,-5.63 0.51263,-0.97797 -0.883426,0.32504 -1.116845,1.76833 -0.556925,3.16439 2.465612,5.39658 5.584202,5.44386 0.41809,0.0458 1.81413,-0.18615 2.04755,0.13881 l 0.0915,0.27919 c 0,1.58367 0.328,2.69904 1.07105,3.3978 0.69729,0.69729 1.86141,1.02377 3.44359,1.02377 h 2.60598 c 2.97674,0 5.21042,-0.60421 6.79261,-1.8156 1.58221,-1.16263 2.79212,-3.07132 3.58247,-5.62852 v 0"
       style="fill:#99cdf9;fill-opacity:0.78348547;fill-rule:nonzero;stroke:#3b0909;stroke-width:4.6;stroke-dasharray:none;stroke-opacity:0.77783722;paint-order:stroke fill markers"
       id="path4439-6" />
    <path
       d="m 154.84136,201.74831 h -13.44361 c 0.79148,-1.90819 0.65221,-1.20961 2.18584,-2.41921 5.76927,-4.69659 -0.3239,-11.67501 -4.65082,-7.90739 -0.32499,0.2791 -0.97726,0.93046 -0.55754,-0.0932 0.88294,-2.04552 3.67473,-2.41919 5.67464,-1.95248 2.88307,0.74289 1.95364,1.58031 3.44238,-1.86238 0.27872,-0.60409 0.51116,-1.20812 0.79015,-1.86093 z m -22.18722,4.51196 c -0.8847,2.14153 -1.76935,3.72183 -2.60589,4.83837 -0.83652,1.11655 -1.81381,1.99975 -2.93108,2.69833 v 0.60406 h 13.11854 v -0.60406 c -0.97754,-0.37363 -1.58161,-1.1638 -1.76756,-2.41917 -0.18583,-1.21108 0.1396,-2.976 1.069,-5.25636 l 1.16335,-2.78989 h 14.83814 l 0.83828,2.13857 c 1.62802,3.99949 1.20975,6.79233 -1.34944,8.32685 v 0.60406 h 10.6072 v -0.60406 c -0.97757,-0.46667 -1.90879,-1.11654 -2.65208,-1.90818 -0.2325,-0.23188 -0.18611,-0.18604 -0.0932,-0.55826 0.32538,-1.16381 0.0469,-2.41771 -1.16337,-2.97747 -1.90699,-0.83593 -3.4421,1.44294 -2.04627,2.55949 1.07047,0.83741 2.37163,-0.37215 1.67453,-1.20958 -0.41826,-0.51098 -1.25626,0 -0.88304,-0.41946 0.41679,-0.51101 1.72119,0.0944 1.48725,1.21106 -0.32537,1.72061 -3.20845,1.53452 -3.39602,-0.60553 -0.0928,-0.8832 0.32537,-1.53601 0.97756,-2.14004 0.32548,-0.32496 0.27898,-0.23191 0.0463,-0.69713 -0.27873,-0.46519 -0.46478,-0.93044 -0.69873,-1.44146 L 146.0962,177.14138 h -0.83652 c -0.51295,1.11507 -4.18749,9.90715 -4.41981,10.23207 -0.60436,0.79163 -3.39601,1.25685 -4.37181,4.32737 -1.72134,5.53547 6.27879,8.28107 7.34927,2.74558 0.23238,-1.25687 0.65057,0.46522 0.51115,1.16086 -0.27883,1.90819 -1.8141,2.97893 -3.58182,3.30385 l -4.55761,10.88489 -0.32679,-1.44297 3.95502,-9.34886 c -0.51278,0 -1.02395,0 -1.5351,-0.0932 l -2.97746,7.07001 -0.23248,-1.58178 2.37163,-5.67431 c -1.76743,-0.46527 -1.30265,-0.51101 -2.37163,1.95396 -0.79162,1.85942 -1.58164,3.72035 -2.4183,5.58126 v 0"
       style="fill:#99cdf9;fill-opacity:0.78348547;fill-rule:nonzero;stroke:#3b0909;stroke-width:4.6;stroke-dasharray:none;stroke-opacity:0.77783722;paint-order:stroke fill markers"
       id="path4431-64" />
    <text
       xml:space="preserve"
       style="font-size:94.233px;line-height:1.25;font-family:sans-serif;fill:#bfe0fc;fill-opacity:0.731888;stroke:#190404;stroke-width:5.118;stroke-dasharray:none;stroke-opacity:0.779908"
       x="382.38608"
       y="184.79488"
       id="text1933"><tspan
         sodipodi:role="line"
         id="tspan1931"
         style="fill:#bfe0fc;fill-opacity:0.731888;stroke:#190404;stroke-width:5.118;stroke-dasharray:none;stroke-opacity:0.779908"
         x="382.38608"
         y="184.79488" /></text>
    <path
       d="m 187.74789,207.58706 c -0.66001,-0.83441 -6.4158,-8.5688 -6.50372,-8.5688 -0.17577,-0.0879 -0.87907,0.26231 0.0879,-0.61535 0.35164,-0.35302 1.84604,-0.48279 2.41674,-0.66 1.80138,-0.43953 3.25114,-1.1414 4.61441,-2.45999 1.62556,-1.58232 2.41672,-3.64743 2.41672,-6.19673 0,-2.54929 -0.74649,-4.48323 -2.24091,-5.84649 -1.53908,-1.40511 -3.78001,-2.06511 -6.76744,-2.06511 h -2.15301 c 0,1.27534 -0.0447,9.97671 0.0432,10.4609 0.17579,0.70185 0.79117,1.49442 1.01024,2.59255 0.96696,4.43859 -3.34046,8.08602 -7.47069,5.62603 -1.05487,-0.66 0.35164,0.70185 1.27534,1.09673 1.44837,0.61675 2.76698,0.48559 4.30604,0.1326 1.09814,-0.22045 0.83581,0.0894 0.83581,1.23069 0,2.02046 0,4.08836 0,6.10881 0,2.94558 0.7465,4.79023 2.19627,5.53674 v 0.57209 h -10.5488 v -0.57209 c 1.45116,-0.74651 2.15442,-2.59116 2.15442,-5.53674 0,-0.57068 0,-6.02091 0,-6.06555 -0.26234,-0.74651 -3.16325,-2.15302 -2.94417,-5.57998 0.26367,-5.14185 7.29484,-5.71394 8.04274,-1.40651 0.48281,2.85627 -3.16463,4.57114 -4.7023,2.15301 -0.17576,-0.30698 -0.57209,-0.96697 -0.4828,0 0.17449,1.58232 2.19629,2.28559 3.69069,1.88929 3.16465,-0.87767 3.55953,-5.01067 1.1428,-7.20694 -0.13106,-0.088 -0.2191,-0.17583 -0.35165,-0.26369 v -7.07579 l -0.74791,1.14279 v 5.40695 c -0.48279,-0.26511 -0.96556,-0.3977 -1.40651,-0.52885 v -3.03209 l -0.7465,1.27395 v 1.58232 c -0.57209,-0.088 -1.01023,-0.13106 -1.23069,-0.26368 -0.39486,-0.21907 -0.26373,-0.6586 -0.26373,-1.18604 0,-1.14418 0,-2.32884 0,-3.51627 0,-2.94557 -0.70325,-4.79023 -2.15442,-5.53673 v -0.57211 h 12.17578 c 4.70231,0 8.26183,0.83581 10.63533,2.46139 2.37208,1.62557 3.55952,3.8665 3.55952,6.81207 0,2.68046 -0.967,4.79022 -2.85768,6.3279 -1.88929,1.53905 -4.26277,2.50463 -7.11764,2.94556 l 4.08558,4.79023 c 2.6372,3.16463 4.7023,5.53673 6.24136,7.03114 1.4944,1.49441 2.85627,2.54789 4.13022,3.2079 l -0.0446,0.57069 c -1.05351,0.83581 -2.37211,1.23209 -3.95444,1.23209 -1.80138,0 -3.38369,-0.48418 -4.7902,-1.53908 -1.40651,-1.05486 -3.2958,-3.03207 -5.58137,-5.88974 v 0"
       style="fill:#99cdf9;fill-opacity:0.78348547;fill-rule:nonzero;stroke:#3b0909;stroke-width:4.6;stroke-dasharray:none;stroke-opacity:0.77783722;paint-order:stroke fill markers"
       id="path4465-9" />
  </g>
  <g
     inkscape:groupmode="layer"
     id="layer5"
     inkscape:label="Prism Crystal"
     style="opacity:0.48939467" />
  <g
     inkscape:groupmode="layer"
     id="layer6"
     inkscape:label="Egyptian">
    <g
       id="g30004"
       style="fill:#085d00;fill-opacity:1;stroke:#b09100;stroke-width:0.8;stroke-linecap:round;stroke-linejoin:round;stroke-dasharray:none;stroke-opacity:0.90618;paint-order:stroke fill markers"
       inkscape:label="Egyptian"
       transform="matrix(4.9902293,0,0,4.9902293,0.57880688,-22.906979)">
      <path
         d="m 10.428872,30.287243 h 0.25157 v 3.033759 H 1.5152643 v -0.204147 c 0.628916,-0.361873 0.7387369,-1.084627 0.7701855,-1.744986 0,-0.189174 -0.3454171,-0.534575 -0.4557178,-0.723749 -0.6598656,-1.037208 -0.3144677,-2.483709 0.9743139,-2.766221 1.5568059,-0.346402 2.4527661,1.681594 0.9433644,2.311008 -0.4087946,0.172701 0.188673,0.07836 0.3618715,-0.01647 0.9743321,-0.471187 0.9588577,-1.93366 -0.204647,-2.562075 V 24.202756 L 3.6376091,24.596077 V 27.48858 C 3.4798853,27.44166 3.3231412,27.394241 3.1344682,27.362796 V 25.271908 L 2.8669433,25.72762 v 1.603729 c -0.046424,0 -0.078372,0 -0.1257948,0 -0.5660187,-0.01547 -0.4556987,0.03145 -0.4556987,-0.61294 0,-1.210409 0,-2.421317 0,-3.631226 0,-1.05368 -0.2515702,-1.698067 -0.7701855,-1.965605 V 20.917431 H 4.517577 10.31907 v 2.845584 H 10.0675 C 9.7685076,22.976374 9.3282642,22.410851 8.7787186,22.033503 8.2127,21.640681 7.4420344,21.452007 6.4831953,21.452007 H 4.517577 v 5.392185 l 1.6511507,-0.109811 c 0.5660186,-0.03144 1.006262,-0.205146 1.3362046,-0.487658 0.3144482,-0.283508 0.5655189,-0.707277 0.7392167,-1.257327 h 0.2196217 v 3.977129 H 8.244149 C 8.0549763,28.416475 7.8039056,28.007682 7.4889583,27.740643 7.1590157,27.472605 6.7033167,27.315877 6.1213048,27.284432 L 4.517577,27.174121 c 0,0.314458 0.1422674,0.392823 0.3149662,0.660359 0.6289158,1.005763 0.4242688,2.3739 -0.7861404,2.798167 -1.1944351,0.424766 -2.4213176,-0.660359 -1.760953,-1.902213 0.1731982,-0.33043 -0.2984937,0.109809 -0.377365,0.597467 -0.1881736,1.069153 0.8330637,1.82335 1.886748,1.839322 0.1412505,0.01547 0.6129421,-0.06289 0.6918131,0.04692 l 0.030931,0.09434 c 0,0.535077 0.1108188,0.911925 0.3618895,1.148017 0.2355769,0.235594 0.6288964,0.345902 1.1634861,0.345902 h 0.8804668 c 1.0057623,0 1.7604733,-0.204147 2.295043,-0.613439 0.5345702,-0.392822 0.9433647,-1.037708 1.2104097,-1.901716 v 0"
         style="fill:#085d00;fill-opacity:1;fill-rule:nonzero;stroke:#b09100;stroke-width:0.799998;stroke-linecap:round;stroke-linejoin:round;stroke-dasharray:none;stroke-opacity:0.90618;paint-order:stroke fill markers"
         id="path4439" />
      <g
         id="g28826"
         transform="matrix(1.5551362,0,0,1.5551362,-32.617536,-8.5339561)"
         style="fill:#085d00;fill-opacity:1;stroke:#b09100;stroke-width:0.514424;stroke-linecap:round;stroke-linejoin:round;stroke-dasharray:none;stroke-opacity:0.90618;paint-order:stroke fill markers">
        <path
           d="m 35.122612,24.757232 c 0.60582,0 1.06898,0.12015 1.40038,0.36008 0.32596,0.24011 0.49148,0.5775 0.49148,1.00038 0,0.45735 -0.16007,0.81162 -0.49148,1.06335 -0.32595,0.25137 -0.75445,0.37732 -1.28604,0.38277 -0.12015,0 -0.22868,-0.005 -0.32578,-0.0229 v -0.0742 c 0.40563,-0.057 0.71453,-0.18857 0.90855,-0.40019 0.20018,-0.21724 0.29746,-0.51997 0.29746,-0.92016 0,-0.79475 -0.41162,-1.18913 -1.24049,-1.18913 h -0.25717 c 0,0.14864 -0.006,1.22343 0.006,1.2748 0.0229,0.0858 0.0973,0.19437 0.13158,0.32595 0.13721,0.55428 -0.37732,1.03468 -0.89166,0.7659 -0.19456,-0.10291 0.0283,0.1029 0.19419,0.15426 0.22287,0.0686 0.48005,-0.0114 0.53177,0.006 0.0456,0.0171 0.0285,0.0341 0.0285,0.0973 0,0.29148 0,0.58277 0,0.88023 v 0.0399 c 0,0.38313 0.0971,0.62306 0.28566,0.72016 v 0.0744 h -1.37752 v -0.0744 c 0.18876,-0.0971 0.28585,-0.33703 0.28585,-0.72016 0,-0.0915 0.006,-0.85174 -0.006,-0.87461 -0.0399,-0.0973 -0.31417,-0.2343 -0.34284,-0.60019 -0.0573,-0.64592 0.75446,-0.86317 0.9717,-0.38875 0.10273,0.24011 -0.0514,0.49747 -0.33158,0.49747 -0.18276,0 0.0343,0.10272 0.17713,0.0742 0.38313,-0.0857 0.49184,-0.6345 0.0858,-0.92016 v -0.92615 l -0.10291,0.14864 v 0.71435 c -0.0514,-0.0285 -0.11434,-0.0514 -0.17713,-0.0684 v -0.406 l -0.10291,0.16588 v 0.21725 h -0.0114 c -0.20581,-0.0343 -0.16008,-0.0229 -0.16008,-0.25155 0,-0.10871 0,-0.21724 0,-0.33158 0,-0.38313 -0.0971,-0.62306 -0.28585,-0.72016 v -0.0744 h 1.09186 0.50309"
           style="fill:#085d00;fill-opacity:1;fill-rule:nonzero;stroke:#b09100;stroke-width:0.514424;stroke-linecap:round;stroke-linejoin:round;stroke-dasharray:none;stroke-opacity:0.90618;paint-order:stroke fill markers"
           id="path4461-9" />
        <path
           d="m 35.961953,23.311617 h 3.93292 v 1.26899 h -0.0802 c -0.18258,-0.72016 -0.56571,-1.08042 -1.15447,-1.08042 h -0.33739 c 0,0.45736 0,0.90909 0,1.36626 0,0.0971 0.0688,0.14865 0.12596,0.22868 0.25136,0.38313 0.1657,0.90891 -0.29729,1.05755 -0.64048,0.21144 -1.02324,-0.66897 -0.39438,-0.89747 0.15409,-0.0572 -0.0802,-0.023 -0.17731,0.0343 -0.45736,0.29147 -0.23431,1.10328 0.606,1.04612 0.17713,-0.0114 0.13702,0.0114 0.13702,0.18276 0,0.17731 0,0.35445 0,0.53739 0,0.38313 0.0917,0.61743 0.28022,0.72016 v 0.0744 h -1.37189 v -0.0744 c 0.18857,-0.0971 0.28585,-0.33703 0.28585,-0.72016 0,-0.0857 0.005,-0.67442 -0.0114,-0.70872 -0.006,-0.0114 -0.16008,-0.20581 -0.19456,-0.28585 -0.36571,-0.72596 0.52033,-1.28623 0.94902,-0.78313 0.24573,0.29147 0.08,0.73739 -0.35428,0.73739 -0.14301,0 0.0799,0.0684 0.23994,0.0114 0.42886,-0.16026 0.44029,-0.78332 -0.0343,-1.01762 v -1.10329 l -0.0971,0.14302 v 0.92034 c -0.0572,-0.0229 -0.11452,-0.0343 -0.18295,-0.0399 v -0.63467 l -0.0973,0.16588 v 0.46298 c -0.0285,-0.006 -0.0628,-0.006 -0.0915,0 -0.17133,0.006 -0.12559,-0.0171 -0.12559,-0.18294 0,-0.41162 0,-0.82306 0,-1.24049 h -0.31452 c -0.58876,0 -0.97189,0.36026 -1.14884,1.08042 h -0.0917 v -1.26899"
           style="fill:#085d00;fill-opacity:1;fill-rule:nonzero;stroke:#b09100;stroke-width:0.514424;stroke-linecap:round;stroke-linejoin:round;stroke-dasharray:none;stroke-opacity:0.90618;paint-order:stroke fill markers"
           id="path4469-2" />
        <path
           d="m 33.158997,23.566319 h 1.31509 v 0.0632 c -0.33177,0.11416 -0.64629,0.41144 -0.96045,0.9031 l -0.78314,1.21763 v 1.0688 c 0,0.32577 0.0971,0.53739 0.29148,0.62886 v 0.0628 h -1.3777 v -0.0628 c 0.18875,-0.0858 0.28603,-0.29165 0.28603,-0.62886 v -0.91472 c -0.0229,-0.0285 -0.20019,-0.30291 -0.20581,-0.30853 -0.0802,-0.0742 -0.41162,-0.0857 -0.59457,-0.39438 -0.29728,-0.50872 0.37732,-0.96608 0.806,-0.64593 0.17151,0.12577 0.19438,0.33721 0.0572,0.4971 -0.0343,0.0345 -0.0857,0.0917 0.0114,0.0345 0.23993,-0.14284 0.19438,-0.45718 -0.006,-0.61744 -0.24574,-0.2 -0.58313,-0.17132 -0.86317,-0.0457 -0.1657,0.0744 -0.14283,0.0744 -0.22287,-0.0514 -0.15445,-0.21725 -0.28567,-0.38313 -0.39438,-0.5031 -0.11434,-0.11434 -0.22868,-0.19437 -0.35445,-0.23993 v -0.0632 h 1.66917 v 0.0632 c -0.0971,0.0514 -0.15445,0.11979 -0.18294,0.21707 -0.0287,0.0915 -0.0287,0.18875 0,0.28004 0.0343,0.0686 0.11996,0.0802 0.20563,0.12014 0.38312,0.16571 0.59456,0.56009 0.31452,0.86898 -0.37151,0.41725 -1.09748,0.0514 -0.85174,-0.36026 0.0343,-0.0514 0.16026,-0.14864 0.063,-0.10871 -0.20581,0.0859 -0.23449,0.34302 -0.13739,0.5089 0.11452,0.18857 0.32596,0.26861 0.54883,0.26861 l 0.11452,0.15445 0.18276,0.0742 -0.17713,-0.23449 c 0.0628,-0.0112 0.1314,-0.0285 0.18857,-0.0455 l 0.27441,0.36588 0.17133,0.0572 -0.34284,-0.46316 c 0.20581,-0.0915 0.14864,-0.0973 0.27442,0.0915 0.0455,0.063 0.0858,0.12577 0.1314,0.18857 l 0.6403,-1.09167 c 0.11996,-0.20581 0.17151,-0.38876 0.14864,-0.54883 -0.0172,-0.15989 -0.0973,-0.27442 -0.2403,-0.34284 v -0.0632"
           style="fill:#085d00;fill-opacity:1;fill-rule:nonzero;stroke:#b09100;stroke-width:0.514424;stroke-linecap:round;stroke-linejoin:round;stroke-dasharray:none;stroke-opacity:0.90618;paint-order:stroke fill markers"
           id="path4479-4" />
        <path
           d="m 30.037739,26.526426 h 1.40056 v 0.0742 c -0.18857,0.0915 -0.28004,0.3314 -0.28004,0.71453 v 0.54883 c 0,0.25717 0.0343,0.44592 0.10291,0.57151 -0.45155,0.26298 -1.00619,0.39438 -1.66355,0.39438 -0.74302,0 -1.34321,-0.21144 -1.80057,-0.62306 -0.28585,-0.25717 -0.45718,-0.52578 -0.5717,-0.88604 -0.0684,-0.20581 -0.19419,-0.2686 -0.2343,-0.53721 -0.0628,-0.42868 0.26298,-0.79457 0.72015,-0.74883 0.22868,0.0229 -0.0628,-0.0742 -0.13122,-0.0857 -0.10308,-0.0172 -0.34882,0.006 -0.37732,0 -0.0515,-0.0229 -0.0229,-0.08 -0.006,-0.13158 0.10871,-0.38875 0.29728,-0.68585 0.58295,-0.9717 0.45173,-0.44574 1.04611,-0.66317 1.77788,-0.66317 0.54865,0 1.06899,0.10871 1.56046,0.32596 v 1.08604 h -0.0857 c -0.32015,-0.81762 -0.81744,-1.22343 -1.49186,-1.22343 -0.47441,0 -0.84611,0.20018 -1.12633,0.61162 -0.17133,0.26317 -0.28004,0.52615 -0.34284,0.82887 -0.0172,0.0744 0.0229,0.10309 0.0686,0.16589 0.20581,0.29147 0.26878,0.65736 -0.006,0.92597 -0.42868,0.41724 -1.07461,-0.0572 -0.79439,-0.47442 0.0742,-0.10273 0.27423,-0.18295 0.12559,-0.16008 -0.2343,0.0285 -0.34846,0.32596 -0.29147,0.5374 0.0457,0.18294 0.17732,0.30853 0.33721,0.38313 v 0.30853 l 0.1029,0.1657 v -0.43431 c 0.0572,0.0171 0.11997,0.0229 0.17732,0.0285 v 0.65173 l 0.10273,0.14864 v -0.79456 h 0.0172 c 0.21724,0 0.1657,-0.0114 0.22868,0.18856 0.0686,0.21725 0.16007,0.40019 0.29165,0.58894 0.2913,0.40001 0.68005,0.60001 1.17171,0.60001 0.53159,0 0.79457,-0.24011 0.79457,-0.70872 v -0.61743 c 0,-0.21725 -0.0285,-0.37714 -0.0857,-0.48585 -0.0573,-0.10872 -0.14864,-0.18295 -0.27459,-0.22868 v -0.0742"
           style="fill:#085d00;fill-opacity:1;fill-rule:nonzero;stroke:#b09100;stroke-width:0.514424;stroke-linecap:round;stroke-linejoin:round;stroke-dasharray:none;stroke-opacity:0.90618;paint-order:stroke fill markers"
           id="path4443-1" />
        <path
           d="m 39.969709,29.210715 c 0,0.37732 0.0971,0.61162 0.28566,0.70872 v 0.0688 h -1.37189 v -0.0688 c 0.18857,-0.0913 0.28004,-0.3314 0.28004,-0.70872 0,-0.0799 0.006,-0.70872 -0.006,-0.73177 -0.0229,-0.0799 -0.16008,-0.21144 -0.20581,-0.41144 -0.17151,-0.69747 0.70309,-1.03468 1.00618,-0.54303 0.0857,0.14284 0.0514,0.2628 0.0742,0.30309 0.10853,-0.12595 0.0171,-0.37169 -0.0916,-0.48603 -0.0684,-0.0742 -0.14265,-0.12577 -0.22287,-0.15989 v -1.09784 l -0.10273,0.14882 v 0.92016 c -0.0632,-0.0171 -0.12014,-0.0229 -0.17731,-0.0285 v -0.65174 l -0.10273,0.16588 v 0.48586 c -0.0688,0 -0.12595,0.006 -0.14301,-0.006 -0.0516,-0.0229 -0.0287,-0.25137 -0.0287,-0.30854 0,-0.16007 0,-0.32595 0,-0.48585 0,-0.38294 -0.0915,-0.61761 -0.28004,-0.7089 v -0.0742 h 1.37189 v 0.0742 c -0.18857,0.0913 -0.28566,0.32596 -0.28566,0.7089 0,0.0915 -0.006,0.72016 0.005,0.75446 0.0345,0.0971 0.19456,0.20581 0.25173,0.45155 0.15989,0.67442 -0.68622,1.00038 -0.97751,0.52596 -0.0971,-0.16007 -0.0686,-0.30871 0.0285,-0.46298 0.0742,-0.10871 -0.0971,0.0114 -0.15427,0.13721 -0.14301,0.33158 0.14865,0.65717 0.49729,0.73177 0.0628,0.0114 0.29728,0.0229 0.31997,0.0341 0.0517,0.0287 0.0289,0.08 0.0289,0.14864 0,0.18857 0,0.37732 0,0.56589 v 0"
           style="fill:#085d00;fill-opacity:1;fill-rule:nonzero;stroke:#b09100;stroke-width:0.514424;stroke-linecap:round;stroke-linejoin:round;stroke-dasharray:none;stroke-opacity:0.90618;paint-order:stroke fill markers"
           id="path4447-0" />
        <path
           d="m 43.303444,27.753224 h -1.641843 c 0.0967,-0.233036 0.07961,-0.147724 0.266945,-0.295448 0.704593,-0.573586 -0.03955,-1.425842 -0.567989,-0.965714 -0.03965,0.03409 -0.119347,0.113633 -0.06808,-0.01138 0.107824,-0.249821 0.448778,-0.295458 0.693023,-0.238462 0.352108,0.09074 0.238602,0.193004 0.420414,-0.22745 0.03409,-0.07375 0.06242,-0.147545 0.09651,-0.227261 z m -2.709694,0.551044 c -0.10804,0.261539 -0.216079,0.454543 -0.318247,0.590907 -0.102158,0.136355 -0.221517,0.244216 -0.357971,0.329538 v 0.07375 h 1.602149 v -0.07375 c -0.119395,-0.04561 -0.193163,-0.14214 -0.215871,-0.295448 -0.02266,-0.147914 0.01709,-0.363458 0.130549,-0.641951 l 0.14209,-0.340729 h 1.812147 l 0.102387,0.261181 c 0.198817,0.488452 0.147744,0.829537 -0.164809,1.016947 v 0.07375 h 1.29544 v -0.07375 c -0.119395,-0.05705 -0.233115,-0.136365 -0.323903,-0.233046 -0.02842,-0.02833 -0.02276,-0.02276 -0.01138,-0.06818 0.03975,-0.14214 0.006,-0.29527 -0.142079,-0.363637 -0.232897,-0.102087 -0.420375,0.176228 -0.249902,0.312592 0.13073,0.102267 0.289636,-0.04542 0.204502,-0.147723 -0.05109,-0.06242 -0.153427,0 -0.107836,-0.05118 0.05088,-0.06242 0.210207,0.0115 0.181635,0.147913 -0.03975,0.210127 -0.391842,0.187398 -0.41475,-0.07394 -0.01138,-0.10786 0.03975,-0.187588 0.119395,-0.261361 0.03975,-0.03966 0.03409,-0.02833 0.006,-0.08517 -0.03399,-0.05685 -0.05675,-0.113633 -0.08537,-0.176048 L 42.23573,24.748065 h -0.102158 c -0.06262,0.136185 -0.51142,1.20994 -0.539784,1.249624 -0.07384,0.0967 -0.414749,0.153498 -0.53392,0.528493 -0.210227,0.67604 0.766816,1.011351 0.897546,0.335312 0.02842,-0.153498 0.07941,0.05685 0.06242,0.141771 -0.03409,0.233045 -0.221556,0.363815 -0.437438,0.403499 l -0.55662,1.329349 -0.03995,-0.176227 0.483016,-1.141762 c -0.06262,0 -0.125055,0 -0.187478,-0.01138 l -0.363635,0.863448 -0.02842,-0.193183 0.289644,-0.692994 c -0.215852,-0.05685 -0.159094,-0.06242 -0.289644,0.238641 -0.0967,0.227082 -0.193162,0.454353 -0.29535,0.681624 v 0"
           style="opacity:1;fill:#085d00;fill-opacity:1;fill-rule:nonzero;stroke:#b09100;stroke-width:0.511255;stroke-linecap:round;stroke-linejoin:round;stroke-dasharray:none;stroke-opacity:0.90618;paint-order:stroke fill markers"
           id="path4431-6"
           inkscape:transform-center-x="-6.4540556" />
        <path
           d="m 47.046372,29.418412 h -0.10871 c -0.13158,-0.14864 -1.28623,-1.4806 -1.30891,-1.49766 -0.0917,-0.0628 -0.3374,-0.0287 -0.5717,-0.25155 -0.50309,-0.48004 0.0287,-1.18332 0.53159,-0.92016 0.24592,0.13122 0.20581,0.36571 0.24011,0.3942 0.11434,-0.15989 -0.0399,-0.40563 -0.19438,-0.50291 -0.27423,-0.16007 -0.57732,-0.08 -0.81743,0.0973 -0.16552,0.11416 -0.1314,0.0971 -0.27442,-0.0688 -0.18857,-0.21725 -0.37714,-0.43449 -0.5717,-0.65156 l -0.0514,-0.063 0.0514,2.20076 c 0.0229,0.58314 0.17732,0.9434 0.48041,1.08605 v 0.0688 h -1.20038 v -0.0688 c 0.29129,-0.13703 0.44574,-0.49729 0.4628,-1.08605 l 0.0343,-1.98351 c 0.0114,-0.60019 -0.14864,-1.01181 -0.48585,-1.23468 v -0.0742 h 0.79457 c 0.41144,0.48004 0.81762,0.9717 1.23468,1.44594 0.063,0.0688 0.17714,0.0802 0.26861,0.11452 0.78314,0.32015 0.49166,1.25755 -0.1314,1.16608 -0.14301,-0.0229 -0.21724,-0.08 -0.30853,-0.17133 -0.0973,-0.0916 -0.0114,0.12559 0.17132,0.21706 0.14865,0.08 0.29729,0.0858 0.43449,0.0515 l 0.27442,0.31416 0.18276,0.0632 -0.35427,-0.41163 c 0.0572,-0.0285 0.10853,-0.0572 0.16007,-0.0915 l 0.48586,0.57152 0.17731,0.0457 -0.5775,-0.67442 c 0.0172,-0.0114 0.0343,-0.0287 0.0515,-0.0457 0.11997,-0.0917 0.11434,-0.0399 0.21144,0.0742 0.17713,0.21143 0.35445,0.41724 0.53739,0.62886 l 0.0229,0.0285 -0.0343,-2.2122 c -0.0114,-0.54883 -0.1657,-0.89729 -0.45155,-1.0403 v -0.0742 h 1.16608 v 0.0742 c -0.28585,0.13158 -0.44012,0.48004 -0.45736,1.05174 l -0.0742,3.42981"
           style="fill:#085d00;fill-opacity:1;fill-rule:nonzero;stroke:#b09100;stroke-width:0.514424;stroke-linecap:round;stroke-linejoin:round;stroke-dasharray:none;stroke-opacity:0.90618;paint-order:stroke fill markers"
           id="path4457-8" />
      </g>
    </g>
  </g>
  <g
     inkscape:groupmode="layer"
     id="layer3"
     inkscape:label="Prism"
     style="display:inline">
    <g
       id="g22344"
       transform="matrix(-0.0759246,0,0,0.0759246,218.22205,155.82605)"
       style="opacity:0.492646">
      <g
         id="g22192">
        <path
           d="m 803.99168,484.13526 282.83672,19.57795 -2.3,-4.59998 z"
           class="st17"
           style="fill:#dd0303"
           id="path22164"
           sodipodi:nodetypes="cccc" />
        <path
           d="m 2888.059,-257.03208 -1803.5306,756.14531 2.3,4.59998 1807.1929,-636.87592 z"
           class="st18"
           style="fill:url(#linearGradient30128);fill-opacity:1"
           id="path22166"
           sodipodi:nodetypes="ccccc" />
        <path
           d="m 803.99168,484.13526 285.13662,24.07795 -2.2999,-4.5 z"
           class="st19"
           style="fill:#dd5d05"
           id="path22168"
           sodipodi:nodetypes="cccc" />
        <path
           d="m 2892.6892,17.347079 1.3321,-150.509789 -1807.1929,636.87592 2.2999,4.5 v 0 z"
           class="st20"
           style="fill:url(#linearGradient30138);fill-opacity:1"
           id="path22170"
           sodipodi:nodetypes="cccccc" />
        <path
           d="m 803.99168,484.13526 287.43662,28.77796 -2.3,-4.70001 z"
           class="st21"
           style="fill:#ddd203"
           id="path22172"
           sodipodi:nodetypes="cccc" />
        <path
           d="M 2889.9045,180.26859 2892.6892,17.347079 1089.1283,508.21321 v 0 l 2.3,4.70001 v 0 z"
           class="st22"
           style="fill:url(#linearGradient30148);fill-opacity:1"
           id="path22174"
           sodipodi:nodetypes="ccccccc" />
        <path
           d="m 1093.8284,517.71321 -289.83672,-33.57795 292.43662,38.57795 v 0 z"
           class="st23"
           style="fill:#0303d8"
           id="path22176"
           sodipodi:nodetypes="ccccc" />
        <path
           d="m 2885.9634,311.94183 -1792.135,205.77139 2.5999,5 1787.43,-78.13242 z"
           class="st24"
           style="fill:url(#linearGradient30168);fill-opacity:1"
           id="path22178"
           sodipodi:nodetypes="ccccc" />
        <path
           d="m 2883.8583,444.5808 -1787.43,78.13241 2.6001,5.20001 1785.6904,55.89137 z"
           class="st25"
           style="fill:url(#linearGradient30178);fill-opacity:1"
           id="path22180"
           sodipodi:nodetypes="ccccc" />
        <path
           d="M 1096.4283,522.71321 803.99168,484.13526 1099.0284,527.91322 Z"
           class="st26"
           style="fill:#460177"
           id="path22182"
           sodipodi:nodetypes="cccc" />
        <path
           d="m 2884.7189,583.80459 -1785.6905,-55.89137 2.8,5.79999 1787.35,185.26712 z"
           class="st27"
           style="fill:url(#linearGradient30188);fill-opacity:1"
           id="path22184"
           sodipodi:nodetypes="ccccc" />
        <path
           d="m 803.99169,484.13525 297.83671,49.57796 -2.8,-5.79999 z"
           class="st28"
           style="fill:#7203dd"
           id="path22186"
           sodipodi:nodetypes="cccc" />
        <path
           d="m 803.99168,484.13526 289.83672,33.57795 v 0 l -2.4001,-4.79999 z"
           class="st29"
           style="fill:#01771d"
           id="path22188"
           sodipodi:nodetypes="ccccc" />
        <path
           d="M 2891.2652,180.96604 1091.4283,512.91322 v 0 l 2.4001,4.79999 1792.135,-205.77138 z"
           class="st30"
           style="fill:url(#linearGradient30158);fill-opacity:1"
           id="path22190"
           sodipodi:nodetypes="cccccc" />
      </g>
    </g>
  </g>
</svg>
