<?xml version="1.0" encoding="UTF-8" standalone="no"?>
<!-- Created with Inkscape (http://www.inkscape.org/) -->
<svg
   xmlns:dc="http://purl.org/dc/elements/1.1/"
   xmlns:cc="http://creativecommons.org/ns#"
   xmlns:rdf="http://www.w3.org/1999/02/22-rdf-syntax-ns#"
   xmlns:svg="http://www.w3.org/2000/svg"
   xmlns="http://www.w3.org/2000/svg"
   xmlns:sodipodi="http://sodipodi.sourceforge.net/DTD/sodipodi-0.dtd"
   xmlns:inkscape="http://www.inkscape.org/namespaces/inkscape"
   width="100%"
   height="100%"
   id="tip_dreidel"
   sodipodi:version="0.32"
   inkscape:version="0.46"
   version="1.0"
   sodipodi:docname="dreidel_logo.svg"
   inkscape:output_extension="org.inkscape.output.svg.inkscape"
   viewBox="0 0 88 88"
   inkscape:export-filename="/home/will/sites/technoanarchy.org/tip/plugin/src/chrome/skin/dreidel_logo.png"
   inkscape:export-xdpi="16.363636"
   inkscape:export-ydpi="16.363636">
  <defs
     id="defs4">
    <inkscape:perspective
       sodipodi:type="inkscape:persp3d"
       inkscape:vp_x="0 : 526.18109 : 1"
       inkscape:vp_y="0 : 1000 : 0"
       inkscape:vp_z="744.09448 : 526.18109 : 1"
       inkscape:persp3d-origin="372.04724 : 350.78739 : 1"
       id="perspective10" />
    <inkscape:perspective
       id="perspective2464"
       inkscape:persp3d-origin="372.04724 : 350.78739 : 1"
       inkscape:vp_z="744.09448 : 526.18109 : 1"
       inkscape:vp_y="0 : 1000 : 0"
       inkscape:vp_x="0 : 526.18109 : 1"
       sodipodi:type="inkscape:persp3d" />
  </defs>
  <sodipodi:namedview
     id="base"
     pagecolor="#ffffff"
     bordercolor="#666666"
     borderopacity="1.0"
     gridtolerance="10000"
     guidetolerance="10"
     objecttolerance="10"
     inkscape:pageopacity="0.0"
     inkscape:pageshadow="2"
     inkscape:zoom="5.6"
     inkscape:cx="46.414111"
     inkscape:cy="36.606286"
     inkscape:document-units="px"
     inkscape:current-layer="layer1"
     showgrid="false"
     inkscape:window-width="1440"
     inkscape:window-height="829"
     inkscape:window-x="0"
     inkscape:window-y="25" />
  <metadata
     id="metadata7">
    <rdf:RDF>
      <cc:Work
         rdf:about="">
        <dc:format>image/svg+xml</dc:format>
        <dc:type
           rdf:resource="http://purl.org/dc/dcmitype/StillImage" />
      </cc:Work>
    </rdf:RDF>
  </metadata>
  <g
     inkscape:label="Layer 1"
     inkscape:groupmode="layer"
     id="layer1"
     transform="translate(-195.09384,-623.47866)">
    <path
       style="fill:#251700;fill-opacity:1;fill-rule:evenodd;stroke:none;stroke-width:1px;stroke-linecap:butt;stroke-linejoin:miter;stroke-opacity:1"
       d="M 198.75751,661.97238 L 216.16211,694.86834 L 251.69612,707.17795 L 280.20969,673.6794 L 246.94364,658.7462 L 227.87083,628.18965 L 198.75751,661.97238 z"
       id="path2474"
       sodipodi:nodetypes="ccccccc" />
    <path
       style="fill:#1b1b1b;fill-opacity:1;fill-rule:evenodd;stroke:none;stroke-width:1px;stroke-linecap:butt;stroke-linejoin:miter;stroke-opacity:1"
       d="M 198.16595,661.60335 L 202.7658,710.71178 L 252.63199,707.43767 L 215.98346,695.49 L 198.16595,661.60335 z"
       id="path4041"
       sodipodi:nodetypes="ccccc" />
    <path
       style="fill:#1b1b1b;fill-opacity:1;fill-rule:evenodd;stroke:none;stroke-width:1px;stroke-linecap:butt;stroke-linejoin:miter;stroke-opacity:1"
       d="M 227.83262,627.69736 L 247.21805,658.89021 L 280.75122,673.35141 L 262.86853,641.4365 L 227.83262,627.69736 z"
       id="path4043"
       sodipodi:nodetypes="ccccc" />
    <g
       id="g4045"
       style="stroke:#ffffff;stroke-width:1.60000002;stroke-miterlimit:4;stroke-dasharray:none;stroke-opacity:1"
       transform="matrix(0.9247215,0.3806444,-0.3806444,0.9247215,275.08096,-39.838639)">
      <path
         sodipodi:nodetypes="cc"
         id="path2476"
         d="M 218.75,721.6479 L 240.17857,656.29075"
         style="fill:none;fill-rule:evenodd;stroke:#ffffff;stroke-width:1.60000002;stroke-linecap:butt;stroke-linejoin:miter;stroke-miterlimit:4;stroke-dasharray:none;stroke-opacity:1" />
      <path
         sodipodi:nodetypes="ccc"
         id="path2478"
         d="M 196.25,677.27289 L 225.17857,702.00504 L 264.01786,699.23718"
         style="fill:none;fill-rule:evenodd;stroke:#ffffff;stroke-width:1.60000002;stroke-linecap:butt;stroke-linejoin:miter;stroke-miterlimit:4;stroke-dasharray:none;stroke-opacity:1" />
      <path
         sodipodi:nodetypes="ccc"
         id="path2480"
         d="M 210.06696,635.79969 L 240,656.6479 L 277.41071,657.96487"
         style="fill:none;fill-rule:evenodd;stroke:#ffffff;stroke-width:1.60000002;stroke-linecap:butt;stroke-linejoin:miter;stroke-miterlimit:4;stroke-dasharray:none;stroke-opacity:1" />
    </g>
    <rect
       style="fill:#131e16;fill-opacity:1;stroke:#ffffff;stroke-width:1.73199987;stroke-linecap:round;stroke-linejoin:miter;stroke-miterlimit:4;stroke-dasharray:none;stroke-dashoffset:0;stroke-opacity:1"
       id="rect3266"
       width="8.4683914"
       height="31.919323"
       x="608.72943"
       y="302.42126"
       rx="2.4319477"
       ry="4.8638954"
       transform="matrix(0.7656969,0.6432016,-0.6432016,0.7656969,0,0)" />
    <text
       xml:space="preserve"
       style="font-size:21.53066635px;font-style:normal;font-variant:normal;font-weight:normal;font-stretch:normal;text-align:start;text-anchor:start;fill:#777efc;fill-opacity:1;stroke:none;stroke-width:1px;stroke-linecap:butt;stroke-linejoin:miter;stroke-opacity:1;font-family:Rachana;-inkscape-font-specification:Rachana"
       x="-624.9386"
       y="246.91013"
       id="text3268"
       transform="matrix(-0.6290043,-0.8298566,-0.6907668,0.6784732,0,0)"><tspan
         sodipodi:role="line"
         id="tspan3270"
         x="-624.9386"
         y="246.91013"
         style="font-size:54.99999237px;fill:#777efc;fill-opacity:1;stroke:none;stroke-opacity:1">א</tspan></text>
    <g
       id="g3431"
       style="fill:#ffffff;fill-opacity:1;stroke:none;stroke-linejoin:round;stroke-opacity:1"
       transform="matrix(9.014724e-2,6.8742336e-2,-6.9039345e-2,8.9495709e-2,271.79691,587.64853)"
       inkscape:transform-center-x="-6.9820111"
       inkscape:transform-center-y="-0.49845222">
      <g
         id="g3973"
         transform="matrix(0.9970184,-7.2010836e-2,7.1584327e-2,0.9978203,-53.382399,27.245841)"
         style="fill:#d9ad49;fill-opacity:1;stroke:none;stroke-opacity:1">
        <path
           style="fill:#d9ad49;fill-opacity:1;stroke:none;stroke-linejoin:round;stroke-opacity:1"
           d="M 394.64286,951.46932 C 410.61286,948.82154 405.25822,934.85896 403.68221,929.36218 C 388.90873,877.83539 374.085,831.39131 373.59789,790.04075 C 373.1108,748.69148 388.90873,701.45807 403.68221,650.57647 C 406.34928,641.36798 410.23539,630.57647 388.90873,627.71932 L 340,627.71932 C 319.45676,630.57647 323.30315,640.75946 326.0525,650.57647 C 340,700.50463 354.83298,748.61218 355.16468,790.04075 C 355.49637,831.46932 340,880.13004 325.89286,929.36218 C 322.76602,940.27447 319.46074,948.82154 340,951.46932 L 394.64286,951.46932 z"
           id="path3422"
           sodipodi:nodetypes="cszsccssscc" />
        <path
           style="fill:#d9ad49;fill-opacity:1;stroke:none;stroke-linejoin:round;stroke-opacity:1"
           d="M 266.71875,711.15625 C 333.94354,748.59796 332.77907,831.38568 266.71875,868.84375 C 319.8364,869.15293 342.48108,828.9241 342.4375,790.03125 C 342.39343,750.69708 319.33133,712.12248 266.71875,711.15625 z M 326.15625,748.53125 C 329.28267,748.11174 340,764.0351 340,790.03125 C 340,816.86597 328.62792,833.1071 325.90625,831.40625 C 323.33225,829.79768 333.74641,816.86599 333.4375,790.03125 C 333.12859,763.19649 323.47802,749.99903 325.90625,748.625 C 325.99072,748.5772 326.0554,748.54478 326.15625,748.53125 z"
           id="path3420" />
        <path
           style="fill:#d9ad49;fill-opacity:1;stroke:none;stroke-linejoin:round;stroke-opacity:1"
           d="M 340,748.61218 C 338.43871,749.16833 345.65369,763.20601 346.71336,790.04075 C 347.77303,816.87549 338.04699,831.13523 340,831.39131 C 341.95301,831.64739 352.0485,816.87549 351.68489,790.04075 C 351.32128,763.20601 341.56129,748.05603 340,748.61218 z"
           id="path3412" />
        <path
           style="fill:#d9ad49;fill-opacity:1;stroke:none;stroke-linejoin:round;stroke-opacity:1"
           d="M 462.20624,711.23718 C 394.98145,748.67889 396.14592,831.46661 462.20624,868.92468 C 409.08859,869.23386 386.44391,829.00503 386.48749,790.11218 C 386.53156,750.77801 409.59366,712.20341 462.20624,711.23718 z M 402.76874,748.61218 C 399.64232,748.19267 388.92499,764.11603 388.92499,790.11218 C 388.92499,816.9469 400.29707,833.18803 403.01874,831.48718 C 405.59274,829.87861 395.17858,816.94692 395.48749,790.11218 C 395.7964,763.27742 405.44697,750.07996 403.01874,748.70593 C 402.93427,748.65813 402.86959,748.62571 402.76874,748.61218 z"
           id="path3425" />
        <path
           style="fill:#d9ad49;fill-opacity:1;stroke:none;stroke-linejoin:round;stroke-opacity:1"
           d="M 388.92499,748.69311 C 390.48628,749.24926 383.2713,763.28694 382.21163,790.12168 C 381.15196,816.95642 390.878,831.21616 388.92499,831.47224 C 386.97198,831.72832 376.87649,816.95642 377.2401,790.12168 C 377.60371,763.28694 387.3637,748.13696 388.92499,748.69311 z"
           id="path3427" />
      </g>
    </g>
  </g>
</svg>
