<?xml version="1.0" standalone="no"?>
<!--Generator: Adobe Illustrator 9.0, SVG Export Plug-In-->
<svg xmlns="http://www.w3.org/2000/svg" xmlns:xlink="http://www.w3.org/1999/xlink" viewBox="0 0 48.000000 48.000000">
  <metadata/>
  <defs>
    <linearGradient id="a">
      <stop offset="0.0000000" stop-color="#fff" stop-opacity="1"/>
      <stop offset="0.50000000" stop-color="#fff520" stop-opacity=".89108908"/>
      <stop offset="1.0000000" stop-color="#fff300" stop-opacity="0"/>
    </linearGradient>
    <radialGradient r="14.375000" fy="121.79581" fx="64.906677" cy="121.79581" cx="64.906677" gradientUnits="userSpaceOnUse" id="k" xlink:href="#a" gradientTransform="translate(-9.906680,3.204195)"/>
    <radialGradient xlink:href="#b" id="h" gradientUnits="userSpaceOnUse" cx="7.8247" cy="30.7285" fx="7.8247" fy="30.7285" r="1.247"/>
    <radialGradient xlink:href="#c" id="i" gradientUnits="userSpaceOnUse" cx="7.8247" cy="18.8711" fx="7.8247" fy="18.8711" r="1.247"/>
    <linearGradient id="e" gradientUnits="userSpaceOnUse" x1="12.138700" y1="7.7627001" x2="31.453899" y2="41.316399">
      <stop offset="0" stop-color="#f0f0f0"/>
      <stop offset="1" stop-color="#d6d6d6"/>
    </linearGradient>
    <linearGradient id="d" gradientUnits="userSpaceOnUse" x1="10.019500" y1="7.5537000" x2="9.5965004" y2="41.082100">
      <stop offset="0" stop-color="#ededed"/>
      <stop offset="1" stop-color="#cacaca"/>
    </linearGradient>
    <linearGradient gradientTransform="translate(2.148757,2.638174e-10)" y2="41.0821" x2="9.5965" y1="7.5537" x1="10.0195" gradientUnits="userSpaceOnUse" id="j" xlink:href="#d"/>
    <linearGradient gradientTransform="matrix(1.013477,0.000000,0.000000,1.000000,2.106978,2.638174e-10)" y2="41.3164" x2="31.4539" y1="7.7627" x1="12.1387" gradientUnits="userSpaceOnUse" id="g" xlink:href="#e"/>
    <linearGradient xlink:href="#e" id="f" gradientUnits="userSpaceOnUse" gradientTransform="matrix(1.013477,0.000000,0.000000,1.000000,2.106978,2.638174e-10)" x1="12.1387" y1="7.7627" x2="31.4539" y2="41.3164"/>
  </defs>
  <path d="M 40.821799,40.225000 C 40.821799,41.825000 39.504279,43.025000 37.984064,43.025000 L 10.113446,43.025000 C 8.4918829,43.025000 7.2757105,41.725000 7.2757105,40.225000 L 7.2757105,8.8000000 C 7.2757105,7.2000000 8.5932306,6.0000000 10.113446,6.0000000 L 37.984064,6.0000000 C 39.605627,6.0000000 40.821799,7.3000000 40.821799,8.8000000 L 40.821799,40.225000 L 40.821799,40.225000 z " fill="url(#f)" fill-rule="nonzero" stroke="#000" stroke-width="3.9999998" stroke-miterlimit="4" stroke-dasharray="none" stroke-opacity="1"/>
  <path d="M 40.821803,40.225000 C 40.821803,41.825000 39.504283,43.025000 37.984067,43.025000 L 10.113447,43.025000 C 8.4918837,43.025000 7.2757112,41.725000 7.2757112,40.225000 L 7.2757112,8.8000000 C 7.2757112,7.2000000 8.5932314,6.0000000 10.113447,6.0000000 L 37.984067,6.0000000 C 39.605630,6.0000000 40.821803,7.3000000 40.821803,8.8000000 L 40.821803,40.225000 L 40.821803,40.225000 z " fill="url(#g)" fill-rule="nonzero" stroke="none" stroke-miterlimit="4"/>
  <g transform="translate(2.148757,2.638174e-10)" fill="#fff" fill-rule="nonzero" stroke="#000" stroke-miterlimit="4">
    <radialGradient id="b" cx="7.8246999" cy="30.728500" r="1.2470000" fx="7.8246999" fy="30.728500" gradientUnits="userSpaceOnUse">
      <stop offset="0" stop-color="#f0f0f0"/>
      <stop offset="1" stop-color="#474747"/>
    </radialGradient>
    <path d="M 8.4000000,30.400000 C 8.4000000,30.900000 8.0000000,31.200000 7.6000000,31.200000 C 7.2000000,31.200000 6.8000000,30.800000 6.8000000,30.400000 C 6.8000000,30.000000 7.2000000,29.600000 7.6000000,29.600000 C 8.0000000,29.600000 8.4000000,30.000000 8.4000000,30.400000 z " fill="url(#h)" stroke="none"/>
    <radialGradient id="c" cx="7.8246999" cy="18.871099" r="1.2470000" fx="7.8246999" fy="18.871099" gradientUnits="userSpaceOnUse">
      <stop offset="0" stop-color="#f0f0f0"/>
      <stop offset="1" stop-color="#474747"/>
    </radialGradient>
    <path d="M 8.4000000,18.500000 C 8.4000000,19.000000 8.0000000,19.300000 7.6000000,19.300000 C 7.2000000,19.300000 6.7000000,19.000000 6.7000000,18.500000 C 6.7000000,18.000000 7.1000000,17.700000 7.5000000,17.700000 C 7.9000000,17.700000 8.3000000,18.100000 8.3000000,18.500000 L 8.4000000,18.500000 z " fill="url(#i)" stroke="none"/>
  </g>
  <path d="M 12.548757,43.087500 L 12.148757,43.087500 L 12.148757,6.6000000 L 12.548757,6.6000000 L 12.548757,43.087500 z " fill="#fff" fill-rule="nonzero" stroke="none" stroke-miterlimit="4"/>
  <path d="M 12.148757,43.025000 L 11.748757,43.025000 L 11.748757,6.6000000 L 12.148757,6.6000000 L 12.148757,43.025000 z " fill="url(#j)" fill-rule="nonzero" stroke="none" stroke-miterlimit="4"/>
  <path d="M 8.4487570,9.8000000 L 7.8487570,41.400000 C 7.3487570,40.900000 7.1487570,39.900000 7.1487570,39.900000 L 7.1487570,8.7000000 C 7.1487570,8.7000000 7.1487570,7.9000000 7.8487570,7.0000000 C 8.5487570,6.1000000 9.8487570,6.0000000 9.8487570,6.0000000 L 37.848757,6.0000000 L 10.948757,7.3000000 C 9.8487570,7.3000000 9.2487570,7.8000000 9.0487570,8.1000000 C 8.8487570,8.3000000 8.4487570,9.1000000 8.4487570,9.8000000 L 8.4487570,9.8000000 z " fill="#fff" fill-rule="nonzero" stroke="none" stroke-miterlimit="4"/>
  <path d="M 39.523757,39.287500 L 40.123757,7.0000000 C 40.623757,7.5000000 40.723757,8.4000000 40.723757,8.4000000 L 40.723757,40.387500 C 40.723757,40.387500 40.723757,41.187500 40.023757,42.087500 C 39.223757,42.987500 38.023757,43.087500 38.023757,43.087500 L 10.023757,43.087500 L 36.923757,41.787500 C 38.023757,41.787500 38.623757,41.287500 38.823757,40.987500 C 39.023757,40.787500 39.423757,39.987500 39.423757,39.287500 L 39.523757,39.287500 z " fill="#bebebe" fill-rule="nonzero" stroke="none" stroke-miterlimit="4"/>
  <path transform="matrix(0.783292,0.000000,0.000000,0.783292,-6.581060,-86.41150)" d="M 69.375000 125.00000 A 14.375000 14.375000 0 1 1  40.625000,125.00000 A 14.375000 14.375000 0 1 1  69.375000 125.00000 z" style="marker:none" color="#000" fill="url(#k)" fill-opacity="1" fill-rule="nonzero" stroke="none" stroke-width="1.2500002" stroke-linecap="butt" stroke-linejoin="round" marker-start="none" marker-mid="none" marker-end="none" stroke-miterlimit="4" stroke-dashoffset="0" stroke-opacity="1" visibility="visible" display="block"/>
</svg>
