<?xml version="1.0" standalone="no"?>
<!--Generator: Adobe Illustrator 9.0, SVG Export Plug-In-->
<svg xmlns="http://www.w3.org/2000/svg" viewBox="0 0 24 24">
  <metadata/>
  <g fill-rule="nonzero" stroke="#000" stroke-miterlimit="4">
    <path d="M 19.7,4.5 C 20.306582,4.8899458 20.5,5.5 20.6,5.8 C 20.6,5.8 20.6,6 20.7,6 C 20.8,6 20.9,6 21,6 C 21.4,6 22.1,6.1 22.6,6.8 C 22.8,7 22.9,7.4 22.9,9.1 C 22.9,9.3 22.9,9.5 22.9,9.7 C 22.9,10.6 22.9,11.7 22.8,12.7 C 22.6,15.1 22.3,18.3 21.4,19.3 C 21.2,19.6 20.8,19.8 20.4,19.9 C 19.9,20.1 19,20.2 17.6,20.2 C 17.6,20.2 17.1,20.2 17.1,20.2 C 15.2,20.2 12.8,20.1 10.6,19.8 C 10.2,19.8 9.9,19.7 9.6,19.7 C 7.1,19.4 6.5,19.1 6.3,19 C 5.5,18.4 3.5,15.6 3.3,15.3 C 2.3,13.8 1,11.8 0.9,10.7 C 0.9,10.6 0.9,10.5 0.9,10.5 C 0.9,10.1 1,9.9 1.2,9.8 C 1.5,9.4 2,9.3 4,9.2 C 4.8,9.2 5.7,9.2 6.8,9.2 C 7.2,8 7.8,6.6 8.4,6.2 C 9.2,5.7 10.9,5.6 13.1,5.6 C 13.6,5.6 14.3,5.6 14.5,5.6 C 14.7,5.6 14.9,5.4 15.2,5.1 C 15.5,4.8 15.8,4.6 16.2,4.4 C 17.1,3.9 19.2625,4.21875 19.7,4.5 z " stroke-width=".83090001"/>
    <path d="M 19.3,4.9 C 19.8,5.2 19.9,5.6 20,6 C 20.1,6.3 20.1,6.4 20.2,6.4 C 20.3,6.5 20.5,6.5 20.7,6.5 C 21.1,6.5 21.6,6.6 22,7.1 C 22.1,7.2 22.2,7.4 22.3,9.2 C 22.3,10.3 22.3,11.5 22.2,12.8 C 22.1,14.7 21.7,18.2 20.9,19.2 C 20.6,19.5 19.9,20 16.9,20 C 15,20 12.6,19.9 10.4,19.6 C 6.8,19.1 6.5,18.7 6.4,18.6 C 5.7,17.7 5.5,16 5.8,13.6 C 6.2,11 7.4,7.2 8.2,6.7 C 8.9,6.2 10.6,6.2 12.7,6.2 C 13.4,6.2 14,6.2 14.2,6.2 C 14.5,6.1 14.8,5.9 15.1,5.6 C 15.3,5.4 15.6,5.1 16,4.9 C 16.8,4.5 18.5,4.3 19.4,4.9 L 19.3,4.9 z " stroke="none"/>
    <linearGradient id="a" gradientUnits="userSpaceOnUse" x1="182.2607" y1="26.0352" x2="178.6353" y2="35.746399" gradientTransform="matrix(0.9799,-0.1997,0.1997,0.9799,-168.8719,17.8115)">
      <stop offset="0" stop-color="#989c80"/>
      <stop offset="1" stop-color="#000"/>
    </linearGradient>
    <path d="M 8.4,7 C 7.5,7.6 4.8,16.1 6.7,18.3 C 7.3,19.1 19.4,20.3 20.6,18.9 C 21.9,17.3 22.1,7.9 21.7,7.3 C 21.3,6.7 20.5,7 20,6.7 C 19.5,6.3 19.8,5.6 19.1,5.2 C 18.4,4.7 16.8,4.9 16.1,5.2 C 15.4,5.6 15,6.3 14.3,6.5 C 13.4,6.7 9.3,6.4 8.4,7 z " fill="url(#a)" stroke="none"/>
    <path d="M 6.5,15.5 C 6.2,13.3 7.3,7.7 8.3,6.9 C 9.3,6.1 13.5,6.6 14.2,6.5 C 14.9,6.4 15.2,5.7 16,5.3 C 16.8,4.9 18.3,4.9 19,5.3 C 19.5,5.7 19.5,6.6 19.8,6.8 C 20.1,7 21.1,7.1 21.4,7.3 C 21.4,7.3 20.1,7.2 19.7,6.9 C 19.3,6.6 19.2,5.9 18.9,5.7 C 18.6,5.5 16.4,5.4 15.9,5.8 C 15.4,6.2 15,6.8 14.3,7.1 C 13.6,7.4 9.7,6.8 8.7,7.6 C 7.7,8.5 6.5,15.6 6.5,15.6 L 6.5,15.5 z " fill="#c1c2b4" stroke="none"/>
    <path d="M 8.1,9.8 C 11.2,10 14.7,10.3 15.6,10.5 C 16.6,10.9 18,13.2 18.6,14.2 C 19.4,15.7 20.4,17.7 20.5,18.8 C 20.5,19.4 20.3,19.6 20.1,19.7 C 19,20.2 14.7,19.9 13,19.8 C 12.8,19.8 7.2,19.3 6.3,18.8 C 5.8,18.4 4.4,16.7 3.4,15.2 C 2.6,14 1.2,11.8 1,10.8 C 1,10.5 1,10.3 1.1,10.1 C 1.3,9.9 1.6,9.7 3.6,9.7 C 4.8,9.7 6.3,9.7 8.1,9.8 L 8.1,9.8 z " stroke="none"/>
    <linearGradient id="b" gradientUnits="userSpaceOnUse" x1="176.5332" y1="31.929701" x2="178.5262" y2="39.008202" gradientTransform="matrix(0.9799,-0.1997,0.1997,0.9799,-168.8719,17.8115)">
      <stop offset="0" stop-color="#dedfce"/>
      <stop offset="1" stop-color="#c2c4b5"/>
    </linearGradient>
    <path d="M 19.7,19.3 C 20.7,18.8 16.9,11.4 15.3,10.9 C 13.9,10.4 1.8,9.7 1.3,10.3 C 0.7,11.1 5.4,17.8 6.3,18.4 C 7.2,19 18.1,20 19.7,19.3 L 19.7,19.3 z " fill="url(#b)" stroke="none"/>
    <linearGradient id="c" gradientUnits="userSpaceOnUse" x1="10.312" y1="35.749001" x2="11.779" y2="40.9594" gradientTransform="matrix(0.9773,-0.2117,0.2117,0.9773,-9.9229,-19.62358)">
      <stop offset="0" stop-color="#dedfce"/>
      <stop offset="1" stop-color="#fff"/>
    </linearGradient>
    <path d="M 10.9,19.023224 C 6.5,15.123224 14.3,16.288389 11.1,10.488389 C 11.1,10.488389 1.6,9.7883884 1.5,10.688389 C 1.3,11.688389 5.7,17.823224 6.4,18.323224 C 7.2,18.823224 10.9,19.123224 10.9,19.123224 L 10.9,19.023224 z " fill="url(#c)" stroke="none"/>
    <path d="M 6.3,18.4 C 6.3,18.4 1.7,12.1 1.8,11.1 C 1.9,10 14.4,10.7 14.4,10.7 C 14,10.6 2,9.6 1.4,10.4 C 0.7,11.2 5.6,18 6.4,18.4 L 6.3,18.4 z " fill="#f1f2e1" stroke="none"/>
    <path d="M 21.2,7.1 C 22,7.5 21.6,15.2 20.6,18.7 C 21.8,15.3 22,9.8 21.7,7.7 C 21.7,7.5 21.6,7.2 21.2,7.1 z " fill="#808078" stroke="none"/>
  </g>
  <path d="M 24,24 L 0,24 L 0,0 L 24,0 L 24,24 z " fill="none" stroke="none" fill-rule="nonzero" stroke-miterlimit="4"/>
</svg>
