<?xml version="1.0" encoding="UTF-8" standalone="no"?>
<!-- Generator: Adobe Illustrator 9.0, SVG Export Plug-In  -->
<svg
   xmlns:dc="http://purl.org/dc/elements/1.1/"
   xmlns:cc="http://web.resource.org/cc/"
   xmlns:rdf="http://www.w3.org/1999/02/22-rdf-syntax-ns#"
   xmlns:svg="http://www.w3.org/2000/svg"
   xmlns="http://www.w3.org/2000/svg"
   xmlns:xlink="http://www.w3.org/1999/xlink"
   xmlns:sodipodi="http://sodipodi.sourceforge.net/DTD/sodipodi-0.dtd"
   xmlns:inkscape="http://www.inkscape.org/namespaces/inkscape"
   sodipodi:docbase="/home/jimmac/gfx/ximian/gorilla-icon-theme/scalable/actions"
   sodipodi:docname="edit-select-all.svg"
   inkscape:version="0.44"
   sodipodi:version="0.32"
   id="svg9575"
   xml:space="preserve"
   height="48.000000px"
   width="48.000000px"
   inkscape:output_extension="org.inkscape.output.svg.inkscape"><metadata
   id="metadata9629">
  <rdf:RDF>
    <cc:Work
   rdf:about="">
      <dc:format>image/svg+xml</dc:format>


      <dc:type
   rdf:resource="http://purl.org/dc/dcmitype/StillImage" />


      <dc:title>Select All</dc:title>


      <dc:source>http://jimmac.musichall.cz</dc:source>


      <dc:creator>
        <cc:Agent>
          <dc:title>Jakub Steiner</dc:title>


        </cc:Agent>


      </dc:creator>


      <dc:subject>
        <rdf:Bag><rdf:li>edit</rdf:li><rdf:li>select</rdf:li><rdf:li>all</rdf:li><rdf:li>everything</rdf:li></rdf:Bag>


      </dc:subject>


      <cc:license
   rdf:resource="http://creativecommons.org/licenses/by-sa/2.0/" />


    </cc:Work>


    


  <cc:License
   rdf:about="http://creativecommons.org/licenses/by-sa/2.0/"><cc:permits
     rdf:resource="http://web.resource.org/cc/Reproduction" /><cc:permits
     rdf:resource="http://web.resource.org/cc/Distribution" /><cc:requires
     rdf:resource="http://web.resource.org/cc/Notice" /><cc:requires
     rdf:resource="http://web.resource.org/cc/Attribution" /><cc:permits
     rdf:resource="http://web.resource.org/cc/DerivativeWorks" /><cc:requires
     rdf:resource="http://web.resource.org/cc/ShareAlike" /></cc:License></rdf:RDF>


</metadata>


<defs
   id="defs9627"><radialGradient
     inkscape:collect="always"
     xlink:href="#aigrd2"
     id="radialGradient9569"
     gradientUnits="userSpaceOnUse"
     cx="7.8247"
     cy="30.7285"
     fx="7.8247"
     fy="30.7285"
     r="1.247" /><radialGradient
     inkscape:collect="always"
     xlink:href="#aigrd3"
     id="radialGradient9571"
     gradientUnits="userSpaceOnUse"
     cx="7.8247"
     cy="18.8711"
     fx="7.8247"
     fy="18.8711"
     r="1.247" /><linearGradient
     id="aigrd1"
     gradientUnits="userSpaceOnUse"
     x1="12.138700"
     y1="7.7627001"
     x2="31.453899"
     y2="41.316399">
			<stop
   offset="0"
   style="stop-color:#F0F0F0"
   id="stop9581" />



			<stop
   offset="1"
   style="stop-color:#D6D6D6"
   id="stop9583" />



		</linearGradient><linearGradient
     id="aigrd4"
     gradientUnits="userSpaceOnUse"
     x1="10.019500"
     y1="7.5537000"
     x2="9.5965004"
     y2="41.082100">
			<stop
   offset="0"
   style="stop-color:#EDEDED"
   id="stop9606" />



			<stop
   offset="1"
   style="stop-color:#CACACA"
   id="stop9608" />



		</linearGradient><linearGradient
     gradientTransform="translate(2.148757,2.638174e-10)"
     y2="41.0821"
     x2="9.5965"
     y1="7.5537"
     x1="10.0195"
     gradientUnits="userSpaceOnUse"
     id="linearGradient13394"
     xlink:href="#aigrd4"
     inkscape:collect="always" /><linearGradient
     gradientTransform="matrix(1.013477,0.000000,0.000000,1.000000,2.106978,2.638174e-10)"
     y2="41.3164"
     x2="31.4539"
     y1="7.7627"
     x1="12.1387"
     gradientUnits="userSpaceOnUse"
     id="linearGradient13407"
     xlink:href="#aigrd1"
     inkscape:collect="always" /><linearGradient
     inkscape:collect="always"
     xlink:href="#aigrd1"
     id="linearGradient2132"
     gradientUnits="userSpaceOnUse"
     gradientTransform="matrix(1.013477,0.000000,0.000000,1.000000,2.106978,2.638174e-10)"
     x1="12.1387"
     y1="7.7627"
     x2="31.4539"
     y2="41.3164" /></defs>


<sodipodi:namedview
   showgrid="true"
   inkscape:current-layer="svg9575"
   inkscape:window-y="444"
   inkscape:window-x="666"
   inkscape:cy="27.892615"
   inkscape:cx="52.568372"
   inkscape:zoom="1"
   id="base"
   pagecolor="#ffffff"
   bordercolor="#666666"
   borderopacity="0.20392157"
   inkscape:pageopacity="0.0"
   inkscape:pageshadow="2"
   inkscape:window-width="784"
   inkscape:window-height="581"
   inkscape:showpageshadow="false"
   fill="#204a87" />



	
<path
   id="path2130"
   d="M 40.821799,40.225000 C 40.821799,41.825000 39.504279,43.025000 37.984064,43.025000 L 10.113446,43.025000 C 8.4918829,43.025000 7.2757105,41.725000 7.2757105,40.225000 L 7.2757105,8.8000000 C 7.2757105,7.2000000 8.5932306,6.0000000 10.113446,6.0000000 L 37.984064,6.0000000 C 39.605627,6.0000000 40.821799,7.3000000 40.821799,8.8000000 L 40.821799,40.225000 L 40.821799,40.225000 z "
   style="fill:url(#linearGradient2132);fill-rule:nonzero;stroke:#000000;stroke-width:3.9999998;stroke-miterlimit:4.0000000;stroke-dasharray:none;stroke-opacity:1.0000000"
   sodipodi:nodetypes="cccccccccc" /><path
   style="fill:url(#linearGradient13407);fill-rule:nonzero;stroke:none;stroke-miterlimit:4.0000000"
   d="M 40.821803,40.225000 C 40.821803,41.825000 39.504283,43.025000 37.984067,43.025000 L 10.113447,43.025000 C 8.4918837,43.025000 7.2757112,41.725000 7.2757112,40.225000 L 7.2757112,8.8000000 C 7.2757112,7.2000000 8.5932314,6.0000000 10.113447,6.0000000 L 37.984067,6.0000000 C 39.605630,6.0000000 40.821803,7.3000000 40.821803,8.8000000 L 40.821803,40.225000 L 40.821803,40.225000 z "
   id="path9585"
   sodipodi:nodetypes="cccccccccc" />
<g
   style="fill:#ffffff;fill-rule:nonzero;stroke:#000000;stroke-miterlimit:4.0000000"
   transform="translate(2.148757,2.638174e-10)"
   id="g9587">
			<radialGradient
   id="aigrd2"
   cx="7.8246999"
   cy="30.728500"
   r="1.2470000"
   fx="7.8246999"
   fy="30.728500"
   gradientUnits="userSpaceOnUse">
				<stop
   offset="0"
   style="stop-color:#F0F0F0"
   id="stop9590" />



				<stop
   offset="1"
   style="stop-color:#474747"
   id="stop9592" />



			</radialGradient>



			<path
   style="fill:url(#radialGradient9569);stroke:none"
   d="M 8.4000000,30.400000 C 8.4000000,30.900000 8.0000000,31.200000 7.6000000,31.200000 C 7.2000000,31.200000 6.8000000,30.800000 6.8000000,30.400000 C 6.8000000,30.000000 7.2000000,29.600000 7.6000000,29.600000 C 8.0000000,29.600000 8.4000000,30.000000 8.4000000,30.400000 z "
   id="path9594" />



			<radialGradient
   id="aigrd3"
   cx="7.8246999"
   cy="18.871099"
   r="1.2470000"
   fx="7.8246999"
   fy="18.871099"
   gradientUnits="userSpaceOnUse">
				<stop
   offset="0"
   style="stop-color:#F0F0F0"
   id="stop9597" />



				<stop
   offset="1"
   style="stop-color:#474747"
   id="stop9599" />



			</radialGradient>



			<path
   style="fill:url(#radialGradient9571);stroke:none"
   d="M 8.4000000,18.500000 C 8.4000000,19.000000 8.0000000,19.300000 7.6000000,19.300000 C 7.2000000,19.300000 6.7000000,19.000000 6.7000000,18.500000 C 6.7000000,18.000000 7.1000000,17.700000 7.5000000,17.700000 C 7.9000000,17.700000 8.3000000,18.100000 8.3000000,18.500000 L 8.4000000,18.500000 z "
   id="path9601" />



		</g>
<path
   style="fill:#ffffff;fill-rule:nonzero;stroke:none;stroke-miterlimit:4.0000000"
   d="M 12.548757,43.087500 L 12.148757,43.087500 L 12.148757,6.6000000 L 12.548757,6.6000000 L 12.548757,43.087500 z "
   id="path9603"
   sodipodi:nodetypes="ccccc" />
<path
   style="fill:url(#linearGradient13394);fill-rule:nonzero;stroke:none;stroke-miterlimit:4.0000000"
   d="M 12.148757,43.025000 L 11.748757,43.025000 L 11.748757,6.6000000 L 12.148757,6.6000000 L 12.148757,43.025000 z "
   id="path9610"
   sodipodi:nodetypes="ccccc" />
<path
   style="fill:#ffffff;fill-rule:nonzero;stroke:none;stroke-miterlimit:4.0000000"
   d="M 8.4487570,9.8000000 L 7.8487570,41.400000 C 7.3487570,40.900000 7.1487570,39.900000 7.1487570,39.900000 L 7.1487570,8.7000000 C 7.1487570,8.7000000 7.1487570,7.9000000 7.8487570,7.0000000 C 8.5487570,6.1000000 9.8487570,6.0000000 9.8487570,6.0000000 L 37.848757,6.0000000 L 10.948757,7.3000000 C 9.8487570,7.3000000 9.2487570,7.8000000 9.0487570,8.1000000 C 8.8487570,8.3000000 8.4487570,9.1000000 8.4487570,9.8000000 L 8.4487570,9.8000000 z "
   id="path9612" />
<rect
   style="opacity:1;color:#000000;fill:#204a87;fill-opacity:1;fill-rule:evenodd;stroke:none;stroke-width:1;stroke-linecap:round;stroke-linejoin:round;marker:none;marker-start:none;marker-mid:none;marker-end:none;stroke-miterlimit:4;stroke-dasharray:none;stroke-dashoffset:0;stroke-opacity:1;visibility:visible;display:inline;overflow:visible"
   id="rect3289"
   width="24"
   height="32"
   x="13"
   y="8"
   rx="1.3912153"
   ry="1.3912143" /><path
   style="fill:#bebebe;fill-rule:nonzero;stroke:none;stroke-miterlimit:4.0000000"
   d="M 39.648757,39.287500 L 40.248757,7.0000000 C 40.748757,7.5000000 40.848757,8.4000000 40.848757,8.4000000 L 40.848757,40.387500 C 40.848757,40.387500 40.848757,41.187500 40.148757,42.087500 C 39.348757,42.987500 38.148757,43.087500 38.148757,43.087500 L 10.148757,43.087500 L 37.048757,41.787500 C 38.148757,41.787500 38.748757,41.287500 38.948757,40.987500 C 39.148757,40.787500 39.548757,39.987500 39.548757,39.287500 L 39.648757,39.287500 z "
   id="path9614"
   sodipodi:nodetypes="ccccccccccc" />



	
	


<path
   sodipodi:nodetypes="ccccccc"
   id="rect13767"
   d="M 15,10 L 35,10 L 35,23 L 22.875,23 L 22.875,23.9375 L 15,23.9375 L 15,10 z "
   style="color:#000000;fill:#ffffff;fill-opacity:1;fill-rule:nonzero;stroke:none;stroke-width:0.99813098;stroke-linecap:butt;stroke-linejoin:miter;marker:none;marker-start:none;marker-mid:none;marker-end:none;stroke-miterlimit:4;stroke-dashoffset:0;stroke-opacity:1;visibility:visible;display:inline;overflow:visible" />
<path
   style="color:#000000;fill:#ffffff;fill-opacity:1;fill-rule:nonzero;stroke:none;stroke-width:0.99813098;stroke-linecap:butt;stroke-linejoin:miter;marker:none;marker-start:none;marker-mid:none;marker-end:none;stroke-miterlimit:4;stroke-dashoffset:0;stroke-opacity:1;visibility:visible;display:inline;overflow:visible"
   d="M 15,26 L 35,26 L 35,36.05 L 29.033471,36.05 L 29.033471,37 L 15,37 L 15,26 z "
   id="path13774"
   sodipodi:nodetypes="ccccccc" />
</svg>