<?xml version="1.0" standalone="no"?>
<!--Generator: Adobe Illustrator 9.0, SVG Export Plug-In-->
<svg xmlns="http://www.w3.org/2000/svg" viewBox="0 0 24 24">
  <metadata/>
  <g transform="translate(-8.838834e-2,-0.265165)" fill="none" fill-rule="nonzero" stroke="#fff" stroke-width=".4508" stroke-linecap="round" stroke-miterlimit="4">
    <path d="M 4,1.3 C 3.2,1.3 2.6,1.9 2.6,2.7 L 2.6,21.6 C 2.6,22.3 3.1,22.8 3.9,22.8 L 20.1,22.8 C 20.8,22.8 21.3,22.2 21.3,21.6 L 21.3,5.6 C 21.3,5 21.1,4.6 20.8,4.2 L 18.6,2 C 18.2,1.6 17.6,1.3 16.9,1.3 L 4,1.3 L 4,1.3 z " fill="#000" stroke="#000" stroke-width="1" stroke-linecap="butt" stroke-miterlimit="4" stroke-dasharray="none"/>
    <linearGradient gradientUnits="userSpaceOnUse" x1="18.4277" y1="19.9326" x2="4.217" y2="5.3866">
      <stop offset="0" stop-color="#e4e4e4"/>
      <stop offset="1" stop-color="#fefefe"/>
    </linearGradient>
    <path d="M 16.9,1.7875 L 4,1.7875 C 3.6,1.7875 3.5,2.0875 3.5,2.2875 L 3.5,21.5 C 3.5,21.7 3.6,21.9 4,21.9 L 20.2,21.9 C 20.4,21.9 20.6,21.7 20.6,21.5 L 20.6,5.5 C 20.6,5.1 20.5,4.9 20.3,4.7 L 18,2.1875 C 17.7,1.8875 17.3,1.7875 16.9,1.7875 z " fill="#fff" fill-opacity="1" stroke="none"/>
    <linearGradient id="a" gradientUnits="userSpaceOnUse" x1="4.0015001" y1="5.1083999" x2="18.3699" y2="19.8489">
      <stop offset="0" stop-color="#d5d5d5" stop-opacity="1"/>
      <stop offset="1" stop-color="#eee" stop-opacity="1"/>
    </linearGradient>
    <path d="M 4.2,2.9 C 4.2,4.4 4.2,19.7 4.2,21.1 C 5.7,21.1 18.1,21.1 19.6,21.1 C 19.6,19.6 19.6,6 19.6,5.4 C 19.2,5 17.5,3.3 17.1,2.9 C 16.5,2.9 5.6,2.9 4.2,2.9 L 4.2,2.9 z " fill="url(#a)" stroke="none"/>
    <path d="M 9.6,20.9 L 12.5,15.4 L 20.4,9.5 L 21.6,9.6 L 23,11 L 22.9,12.4 L 15.4,18.6 L 9.6,20.9 L 9.6,20.9 z " stroke="#000" stroke-width="1.80309999" stroke-linejoin="round"/>
    <linearGradient id="b" gradientUnits="userSpaceOnUse" x1="162.7832" y1="-6.8374" x2="166.95889" y2="-10.0693" gradientTransform="matrix(0,-1,1,0,24.29,180.2402)">
      <stop offset="0" stop-color="#eff0ce"/>
      <stop offset="0.5" stop-color="#fff"/>
      <stop offset="1" stop-color="#eff0ce"/>
    </linearGradient>
    <path d="M 9.6,20.9 L 12.5,15.4 L 20.4,9.5 L 21.6,9.6 L 23,11 L 22.9,12.4 L 15.4,18.6 L 9.6,20.9 L 9.6,20.9 z " fill="url(#b)" stroke="none"/>
    <path d="M 15.9,16.7 L 23,11 L 22.9,12.4 L 15.4,18.6 L 15.9,16.7 L 15.9,16.7 z " fill="#96833e" stroke="none"/>
    <path d="M 14.4,15.2 L 21.7,9.6 L 23,11 L 15.8,16.7 L 14.3,15.2 L 14.4,15.2 z " fill="#c8af53" stroke="none"/>
    <path d="M 12.4,15.4 L 20.3,9.5 L 21.5,9.6 L 14.2,15.2 L 12.3,15.4 L 12.4,15.4 z " fill="#f7e46e" stroke="none"/>
    <linearGradient id="c" gradientUnits="userSpaceOnUse" x1="159.8643" y1="-13.3721" x2="160.7222" y2="-13.9155" gradientTransform="matrix(0,-1,1,0,24.29,180.2402)">
      <stop offset="0" stop-color="#000"/>
      <stop offset="0.5" stop-color="#616061"/>
      <stop offset="1" stop-color="#000"/>
    </linearGradient>
    <path d="M 10.9,18.4 C 11.8,18.4 12.3,18.9 12.3,19.8 L 9.6,20.9 L 10.9,18.4 L 10.9,18.4 z " fill="url(#c)" stroke="none"/>
    <path d="M 3.7,6.4 C 3.7,7.4 3.9,8.3 4.4,9.1 C 4.2,9.3 4.1,9.4 4,9.5 L 0.8,12.7 C 0.5,13 0.3,13.5 0.3,14 C 0.3,14.5 0.5,14.9 0.8,15.3 C 1.5,16 2.6,16 3.3,15.3 L 6.5,12 C 6.6,11.9 6.7,11.7 6.8,11.6 C 7.6,12 8.6,12.3 9.5,12.3 C 12.7,12.3 15.3,9.7 15.3,6.5 C 15.3,3.3 12.69997,0.65580583 9.5,0.65580583 C 6.5115315,0.65580583 3.7,3.2 3.7,6.4 z M 9.5,9.5 C 7.8,9.5 6.5,8.1 6.5,6.5 C 6.5,4.9 7.9,3.5 9.5,3.5 C 11.2,3.5 12.5,4.9 12.5,6.5 C 12.5,8.1 11.1,9.5 9.5,9.5 z " fill="#000" stroke="none"/>
    <path d="M 1.3,14.7 C 1.7,15.1 2.4,15.1 2.8,14.7 L 6,11.5 C 6.3,11.2 6.4,10.8 6.3,10.4 C 7.2,11.1 8.3,11.6 9.5,11.6 C 12.3,11.6 14.6,9.3 14.6,6.5 C 14.6,3.7 12.3,1.4 9.5,1.4 C 6.7,1.4 4.4,3.7 4.4,6.5 C 4.4,7.7 4.8,8.9 5.6,9.8 C 5.2,9.7 4.8,9.8 4.5,10.1 L 1.3,13.3 C 0.9,13.7 0.9,14.4 1.3,14.8 L 1.3,14.7 z M 5.8,6.5 C 5.8,4.4 7.5,2.7 9.6,2.7 C 11.7,2.7 13.3,4.4 13.3,6.5 C 13.3,8.6 11.6,10.2 9.6,10.2 C 7.5,10.2 5.8,8.5 5.8,6.5 L 5.8,6.5 z " fill="#919191" stroke="none"/>
    <linearGradient id="d" gradientUnits="userSpaceOnUse" x1="-5.3389001" y1="11.582" x2="-6.8599" y2="13.103" gradientTransform="matrix(-1,0,0,1,-2.4336,0)">
      <stop offset="0" stop-color="#304a2f"/>
      <stop offset="0.3315" stop-color="#6fab6c"/>
      <stop offset="1" stop-color="#304a2f"/>
    </linearGradient>
    <path d="M 4.5,10 L 6,11.5 L 2.8,14.7 L 1.3,13.2 L 4.5,10 z " fill="url(#d)" stroke="none"/>
    <path d="M 5,10.5 L 1.9,13.6" opacity=".54000005" stroke-width=".90149999"/>
    <path d="M 9.4,1.6 C 6.8,1.6 4.7,3.7 4.7,6.3" opacity=".5"/>
    <path d="M 9.5,10.6 C 11.8,10.6 13.7,8.7 13.7,6.4" opacity=".5"/>
    <radialGradient id="e" cx="-10.7666" cy="5.5439" r="4.4329" fx="-10.7666" fy="5.5439" gradientTransform="matrix(-1,0,0,1,-2.4336,0)" gradientUnits="userSpaceOnUse">
      <stop offset="0" stop-color="#fff"/>
      <stop offset="1.256170e-002" stop-color="#f5f3f8"/>
      <stop offset="7.182755e-002" stop-color="#c7c4d9"/>
      <stop offset="0.1357" stop-color="#a19fc1"/>
      <stop offset="0.2033" stop-color="#8182af"/>
      <stop offset="0.2758" stop-color="#696ca2"/>
      <stop offset="0.355" stop-color="#555c99"/>
      <stop offset="0.4444" stop-color="#495193"/>
      <stop offset="0.5524" stop-color="#424c8f"/>
      <stop offset="0.7303" stop-color="#3f4a8e"/>
      <stop offset="0.8388" stop-color="#3a4a92"/>
      <stop offset="0.997" stop-color="#2c499e"/>
      <stop offset="1" stop-color="#2c499e"/>
    </radialGradient>
    <path d="M 6.4,6.5 C 6.4,8.2 7.8,9.6 9.5,9.6 C 11.2,9.6 12.6,8.2 12.6,6.5 C 12.6,4.8 11.2,3.4 9.5,3.4 C 7.8,3.4 6.4,4.8 6.4,6.5 z " opacity=".47000002" fill="url(#e)" stroke="none"/>
  </g>
  <path d="M 24,24 L 0,24 L 0,0 L 24,0 L 24,24 z " fill="none" stroke="none" fill-rule="nonzero" stroke-miterlimit="4"/>
</svg>
