<?xml version="1.0" encoding="UTF-8" standalone="no"?>
<!-- Generator: Adobe Illustrator 9.0, SVG Export Plug-In  -->
<svg
   xmlns:dc="http://purl.org/dc/elements/1.1/"
   xmlns:cc="http://web.resource.org/cc/"
   xmlns:rdf="http://www.w3.org/1999/02/22-rdf-syntax-ns#"
   xmlns:svg="http://www.w3.org/2000/svg"
   xmlns="http://www.w3.org/2000/svg"
   xmlns:sodipodi="http://sodipodi.sourceforge.net/DTD/sodipodi-0.dtd"
   xmlns:inkscape="http://www.inkscape.org/namespaces/inkscape"
   width="48"
   height="48"
   viewBox="0 0 24 23.9"
   xml:space="preserve"
   id="svg2"
   sodipodi:version="0.32"
   inkscape:version="0.44"
   sodipodi:docname="edit-find.svg"
   sodipodi:docbase="/home/jimmac/gfx/ximian/gorilla-icon-theme/scalable/actions"
   version="1.0"
   inkscape:output_extension="org.inkscape.output.svg.inkscape"><metadata
   id="metadata75"><rdf:RDF><cc:Work
       rdf:about=""><dc:format>image/svg+xml</dc:format><dc:type
         rdf:resource="http://purl.org/dc/dcmitype/StillImage" /><dc:title>Edit Find</dc:title><dc:creator><cc:Agent><dc:title>Jakub Steiner</dc:title></cc:Agent></dc:creator><dc:source>http://jimmac.musichall.cz</dc:source><dc:subject><rdf:Bag><rdf:li>find</rdf:li><rdf:li>search</rdf:li><rdf:li>edit</rdf:li></rdf:Bag></dc:subject><cc:license
         rdf:resource="http://creativecommons.org/licenses/by-sa/2.0/" /></cc:Work><cc:License
       rdf:about="http://creativecommons.org/licenses/by-sa/2.0/"><cc:permits
         rdf:resource="http://web.resource.org/cc/Reproduction" /><cc:permits
         rdf:resource="http://web.resource.org/cc/Distribution" /><cc:requires
         rdf:resource="http://web.resource.org/cc/Notice" /><cc:requires
         rdf:resource="http://web.resource.org/cc/Attribution" /><cc:permits
         rdf:resource="http://web.resource.org/cc/DerivativeWorks" /><cc:requires
         rdf:resource="http://web.resource.org/cc/ShareAlike" /></cc:License></rdf:RDF></metadata><defs
   id="defs73" /><sodipodi:namedview
   inkscape:cy="37.26818"
   inkscape:cx="56.47661"
   inkscape:zoom="1"
   inkscape:window-height="800"
   inkscape:window-width="864"
   inkscape:pageshadow="2"
   inkscape:pageopacity="0.0"
   borderopacity="0.11372549"
   bordercolor="#666666"
   pagecolor="#ffffff"
   id="base"
   inkscape:showpageshadow="false"
   inkscape:window-x="457"
   inkscape:window-y="212"
   inkscape:current-layer="svg2" />
	<g
   id="Layer_x0020_3"
   style="fill:none;fill-rule:nonzero;stroke:#ffffff;stroke-width:0.45429999;stroke-linecap:round;stroke-miterlimit:4">
		<path
   style="fill:#000000;stroke:#000000;stroke-width:1;stroke-linecap:butt;stroke-miterlimit:4;stroke-dasharray:none"
   d="M 3.7,1.0337087 C 2.9,1.0337087 2.3,1.7 2.3,2.5 L 2.3,21.6 C 2.3,22.3 2.8,22.9 3.6,22.9 L 20.4,22.9 C 21.1,22.9 21.7,22.3 21.7,21.6 L 21.7,5.4 C 21.7,4.8 21.5,4.3 21.2,4 L 18.9,1.7 C 18.5,1.3 17.8,1 17.2,1 L 3.7,1.0337087 z "
   id="path5"
   sodipodi:nodetypes="ccccccccccc" />
		<linearGradient
   id="aigrd1"
   gradientUnits="userSpaceOnUse"
   x1="18.5986"
   y1="20.0044"
   x2="4.1006999"
   y2="5.1644001">
			<stop
   offset="0"
   style="stop-color:#E4E4E4"
   id="stop8" />
			<stop
   offset="1"
   style="stop-color:#FEFEFE"
   id="stop10" />
		</linearGradient>
		<path
   style="fill:#ffffff;stroke:none;fill-opacity:1"
   d="M 17.1,1.9 L 3.7,1.9 C 3.3,1.9 3.2,2.2 3.2,2.4 L 3.2,21.5 C 3.2,21.7 3.3,21.9 3.7,21.9 L 20.5,21.9 C 20.7,21.9 20.9,21.7 20.9,21.5 L 20.9,5.4 C 20.9,5 20.8,4.8 20.6,4.6 L 18.3,2.3 C 18,2 17.6,1.9 17.2,1.9 L 17.1,1.9 z "
   id="path12" />
		<linearGradient
   id="aigrd2"
   gradientUnits="userSpaceOnUse"
   x1="3.8740001"
   y1="4.8744998"
   x2="18.545099"
   y2="19.9254">
			<stop
   offset="0"
   style="stop-color:#c9c9c9;stop-opacity:1;"
   id="stop15" />
			<stop
   offset="1"
   style="stop-color:#eeeeee;stop-opacity:1;"
   id="stop17" />
		</linearGradient>
		<path
   style="fill:url(#aigrd2);stroke:none"
   d="M 4,2.8 C 4,4.3 4,19.7 4,21.1 C 5.5,21.1 18.5,21.1 20,21.1 C 20,19.6 20,5.9 20,5.2 C 19.6,4.8 17.9,3.1 17.5,2.7 C 16.9,2.7 5.5,2.7 4,2.7 L 4,2.8 z "
   id="path19" />
		<path
   style="fill:#000000;stroke:none"
   d="M 4.4,10.3 C 4.4,13.5 7,16.2 10.3,16.2 C 11.2,16.2 12.2,16 13,15.5 C 13.1,15.6 13.2,15.8 13.3,15.9 L 16.5,19.1 C 17.2,19.8 18.3,19.8 19.1,19.1 C 19.5,18.7 19.6,18.3 19.6,17.8 C 19.6,17.3 19.4,16.9 19.1,16.5 L 15.9,13.3 C 15.8,13.2 15.6,13.1 15.5,13 C 15.9,12.2 16.2,11.2 16.2,10.2 C 16.2,7 13.6,4.3 10.3,4.3 C 7.1,4.3 4.4,6.9 4.4,10.2 L 4.4,10.3 z M 7.2,10.3 C 7.2,8.6 8.6,7.2 10.3,7.2 C 12,7.2 13.4,8.6 13.4,10.3 C 13.4,12 12,13.4 10.3,13.4 C 8.6,13.4 7.2,12 7.2,10.3 L 7.2,10.3 z "
   id="path21" />
		<path
   style="fill:#919191;stroke:none"
   d="M 18.6,17.1 L 15.4,13.9 C 15.1,13.6 14.7,13.5 14.3,13.6 C 15,12.7 15.5,11.6 15.5,10.3 C 15.5,7.5 13.2,5.2 10.4,5.2 C 7.6,5.2 5.3,7.5 5.3,10.3 C 5.3,13.1 7.6,15.4 10.4,15.4 C 11.6,15.4 12.8,15 13.7,14.2 C 13.6,14.6 13.7,15 14,15.3 L 17.2,18.5 C 17.6,18.9 18.3,18.9 18.7,18.5 C 19.1,18.1 19.1,17.4 18.7,17 L 18.6,17.1 z M 10.3,14.1 C 8.2,14.1 6.5,12.4 6.5,10.3 C 6.5,8.2 8.2,6.5 10.3,6.5 C 12.4,6.5 14.1,8.2 14.1,10.3 C 14.1,12.4 12.4,14.1 10.3,14.1 L 10.3,14.1 z "
   id="path23" />
		<linearGradient
   id="aigrd3"
   gradientUnits="userSpaceOnUse"
   x1="16.970699"
   y1="15.4409"
   x2="15.438"
   y2="16.9736">
			<stop
   offset="0"
   style="stop-color:#304A2F"
   id="stop26" />
			<stop
   offset="0.3315"
   style="stop-color:#6FAB6C"
   id="stop28" />
			<stop
   offset="1"
   style="stop-color:#304A2F"
   id="stop30" />
		</linearGradient>
		<path
   style="fill:url(#aigrd3);stroke:none"
   d="M 15.4,13.8 L 13.9,15.3 L 17.1,18.5 L 18.6,17 L 15.4,13.8 L 15.4,13.8 z "
   id="path32" />
		<path
   style="opacity:0.54000005;stroke-width:0.90850002"
   d="M 14.9,14.3 L 18,17.4"
   id="path34" />
		<path
   style="opacity:0.5"
   d="M 5.4,10.2 C 5.4,7.6 7.5,5.4 10.2,5.4"
   id="path36" />
		<path
   style="opacity:0.5"
   d="M 14.4,10.2 C 14.4,12.5 12.5,14.4 10.2,14.4"
   id="path38" />
		<radialGradient
   id="aigrd4"
   cx="9.7275"
   cy="9.5424995"
   r="4.0488"
   fx="9.7275"
   fy="9.5424995"
   gradientUnits="userSpaceOnUse"
   gradientTransform="matrix(2.010032,0,0,2.010032,-9.825086,-9.63823)">
			<stop
   offset="0"
   style="stop-color:#FFFFFF"
   id="stop41" />
			<stop
   offset="1.256170e-002"
   style="stop-color:#F5F3F8"
   id="stop43" />
			<stop
   offset="7.182755e-002"
   style="stop-color:#C7C4D9"
   id="stop45" />
			<stop
   offset="0.1357"
   style="stop-color:#A19FC1"
   id="stop47" />
			<stop
   offset="0.2033"
   style="stop-color:#8182AF"
   id="stop49" />
			<stop
   offset="0.2758"
   style="stop-color:#696CA2"
   id="stop51" />
			<stop
   offset="0.355"
   style="stop-color:#555C99"
   id="stop53" />
			<stop
   offset="0.4444"
   style="stop-color:#495193"
   id="stop55" />
			<stop
   offset="0.5524"
   style="stop-color:#424C8F"
   id="stop57" />
			<stop
   offset="0.7303"
   style="stop-color:#3F4A8E"
   id="stop59" />
			<stop
   offset="0.8388"
   style="stop-color:#3A4A92"
   id="stop61" />
			<stop
   offset="0.997"
   style="stop-color:#2C499E"
   id="stop63" />
			<stop
   offset="1"
   style="stop-color:#2C499E"
   id="stop65" />
		</radialGradient>
		<path
   style="opacity:0.47000002;fill:url(#aigrd4);stroke:none"
   d="M 13.4,10.3 C 13.4,12 12,13.4 10.3,13.4 C 8.6,13.4 7.2,12 7.2,10.3 C 7.2,8.6 8.6,7.2 10.3,7.2 C 12,7.2 13.4,8.6 13.4,10.3 z "
   id="path67" />
	</g>
	<g
   id="Layer_x0020_2"
   style="fill-rule:nonzero;stroke:#000000;stroke-miterlimit:4">
		<path
   style="fill:none;stroke:none"
   d="M 24,23.9 L 0,23.9 L 0,0 L 24,0 L 24,23.9 z "
   id="path70" />
	</g>
</svg>