<?xml version="1.0" standalone="no"?>
<!--Created with Inkscape (http://www.inkscape.org/)-->
<svg xmlns="http://www.w3.org/2000/svg" xmlns:xlink="http://www.w3.org/1999/xlink" viewBox="0 0 48.000000 48.000000">
  <defs>
    <linearGradient id="c">
      <stop offset="0" stop-color="#000" stop-opacity="1"/>
      <stop offset="1" stop-color="#000" stop-opacity="0"/>
    </linearGradient>
    <radialGradient id="b" cx="7.3892" cy="8.1001" r="12.1101" fx="7.3892" fy="8.1001" gradientUnits="userSpaceOnUse">
      <stop offset="0" stop-color="#fff"/>
      <stop offset="1" stop-color="#f0e1bd"/>
    </radialGradient>
    <radialGradient id="a" cx="8.7339" cy="7.9097" r="13.5742" fx="8.7339" fy="7.9097" gradientUnits="userSpaceOnUse">
      <stop offset="0" stop-color="#fed182"/>
      <stop offset="0.2809" stop-color="#ffb310"/>
      <stop offset="1" stop-color="#996e04"/>
    </radialGradient>
    <radialGradient xlink:href="#a" id="e" gradientUnits="userSpaceOnUse" cx="8.7339" cy="7.9097" fx="8.7339" fy="7.9097" r="13.5742" gradientTransform="matrix(1.992984,0.000000,0.000000,1.992984,0.946094,-5.390644e-2)"/>
    <radialGradient xlink:href="#b" id="f" gradientUnits="userSpaceOnUse" gradientTransform="matrix(1.505709,5.592181e-23,-5.592181e-23,1.505709,43.04082,2.769544)" cx="-16.387266" cy="9.4259253" fx="-16.387266" fy="9.4259253" r="12.1101"/>
    <radialGradient xlink:href="#c" id="d" cx="23.500000" cy="35.000000" fx="23.500000" fy="35.000000" r="18.500000" gradientTransform="matrix(1.000000,0.000000,0.000000,0.540541,0.000000,16.08108)" gradientUnits="userSpaceOnUse"/>
    <radialGradient xlink:href="#b" id="g" gradientUnits="userSpaceOnUse" gradientTransform="matrix(-2.94298e-16,1.505709,-1.505709,-2.94298e-16,-2.769544,43.04082)" cx="-16.387266" cy="9.4259253" fx="-16.387266" fy="9.4259253" r="12.1101"/>
  </defs>
  <metadata/>
  <path style="marker:none" d="M 42.000000 35.000000 A 18.500000 10.000000 0 1 1  5.0000000,35.000000 A 18.500000 10.000000 0 1 1  42.000000 35.000000 z" transform="matrix(1.000000,0.000000,0.000000,1.371231,0.353553,-15.99830)" opacity="1" color="#000" fill="url(#d)" fill-opacity="1" fill-rule="evenodd" stroke="none" stroke-width="2" stroke-linecap="butt" stroke-linejoin="miter" marker-start="none" marker-mid="none" marker-end="none" stroke-miterlimit="4" stroke-dasharray="none" stroke-dashoffset="0" stroke-opacity="1" visibility="visible" display="inline" overflow="visible"/>
  <path d="M 42.998053,23.463303 C 42.998053,33.627520 34.627520,41.998053 24.463302,41.998053 C 14.299084,41.998053 5.9285525,33.627520 5.9285525,23.463303 C 5.9285525,13.299085 14.299084,4.9285534 24.463302,4.9285534 C 34.627520,4.9285534 42.998053,13.299085 42.998053,23.463303 z " fill="url(#e)" fill-rule="evenodd" stroke="#000" stroke-width="2.0000007" stroke-miterlimit="4" stroke-dasharray="none" stroke-opacity="1"/>
  <path d="M 12.986114,25.653938 C 12.986114,25.653938 19.104476,25.653938 23.945528,25.653938 C 21.895196,27.704271 19.838979,29.760664 19.838979,29.760664 C 19.403876,30.195945 19.186147,30.766393 19.186147,31.336842 C 19.186147,31.90729 19.403876,32.477738 19.838979,32.913019 C 20.709541,33.783401 22.12095,33.783401 22.991333,32.913019 L 30.90271,25.001107 C 30.951035,24.952783 30.995794,24.90214 31.038947,24.850426 C 31.052856,24.833842 31.065873,24.816902 31.079247,24.799783 C 31.108136,24.763048 31.135597,24.725601 31.16181,24.68744 C 31.175005,24.668539 31.188202,24.649636 31.200683,24.630378 C 31.23385,24.578843 31.265236,24.526417 31.293768,24.472743 C 31.303575,24.454375 31.311956,24.435475 31.321051,24.416928 C 31.3412,24.376627 31.36028,24.335971 31.377756,24.2946 C 31.388277,24.269813 31.397907,24.245028 31.407536,24.219884 C 31.421801,24.182614 31.43482,24.14481 31.447123,24.106651 C 31.454613,24.08329 31.462459,24.05993 31.469235,24.036393 C 31.486175,23.97719 31.501153,23.917452 31.513102,23.857002 C 31.515598,23.844518 31.517025,23.83168 31.519165,23.819197 C 31.528438,23.767663 31.535926,23.715771 31.541633,23.663702 C 31.543773,23.643373 31.545377,23.623045 31.546983,23.602715 C 31.550727,23.555461 31.553046,23.508028 31.553759,23.460594 C 31.554116,23.442405 31.554829,23.424217 31.554649,23.406027 C 31.554116,23.341297 31.551619,23.276389 31.545377,23.211658 C 31.545377,23.210588 31.5452,23.209518 31.545022,23.20827 C 31.538958,23.146036 31.529506,23.084159 31.518274,23.022282 C 31.514351,23.000348 31.509357,22.978771 31.504542,22.956838 C 31.495805,22.916002 31.485819,22.875167 31.474763,22.83451 C 31.467808,22.809189 31.460854,22.783866 31.453007,22.758902 C 31.440881,22.720029 31.426973,22.68151 31.412529,22.643172 C 31.403791,22.619813 31.396123,22.596273 31.386493,22.573092 C 31.386315,22.572736 31.386315,22.572199 31.386138,22.571844 C 31.363134,22.516029 31.337633,22.46182 31.310352,22.408858 C 31.298403,22.385677 31.285208,22.363208 31.272548,22.340384 C 31.252397,22.304185 31.231533,22.26852 31.209422,22.233749 C 31.196046,22.212528 31.182316,22.191486 31.168229,22.170621 C 31.13845,22.126933 31.107244,22.084671 31.074612,22.043302 C 31.066587,22.033137 31.059276,22.022438 31.050895,22.012451 C 31.007919,21.960025 30.962447,21.910275 30.915192,21.862306 C 30.910913,21.858025 30.907346,21.853211 30.903067,21.848753 L 22.991511,13.937019 C 22.12095,13.066458 20.709719,13.066458 19.839157,13.937019 C 18.968596,14.807581 18.968596,16.218812 19.839157,17.089374 L 23.945706,21.19592 L 12.986291,21.19592 C 11.755345,21.19592 10.757284,22.193983 10.757284,23.42493 C 10.757284,24.655877 11.755345,25.653938 12.986291,25.653938 L 12.986114,25.653938 z " style="marker:none" opacity="1" color="#000" fill="url(#f)" fill-opacity="1" fill-rule="evenodd" stroke="none" stroke-width="1" stroke-linecap="butt" stroke-linejoin="miter" marker-start="none" marker-mid="none" marker-end="none" stroke-miterlimit="4" stroke-dasharray="none" stroke-dashoffset="0" stroke-opacity="1" visibility="visible" display="inline" overflow="visible"/>
  <rect style="marker:none" width="19" height="4.25" x="-32.982159" y="31.2787" rx="2.125" ry="2.125" transform="matrix(-1.954545e-16,-1,1,-1.954545e-16,0,0)" opacity="1" color="#000" fill="url(#g)" fill-opacity="1" fill-rule="evenodd" stroke="none" stroke-width="1" stroke-linecap="butt" stroke-linejoin="miter" marker-start="none" marker-mid="none" marker-end="none" stroke-miterlimit="4" stroke-dasharray="none" stroke-dashoffset="0" stroke-opacity="1" visibility="visible" display="inline" overflow="visible"/>
</svg>
