<?xml version="1.0" standalone="no"?>
<!--Created with Inkscape (http://www.inkscape.org/)-->
<svg xmlns="http://www.w3.org/2000/svg" xmlns:xlink="http://www.w3.org/1999/xlink" viewBox="0 0 48.000000 48.000000">
  <defs>
    <linearGradient id="c">
      <stop offset="0" stop-color="#000" stop-opacity="1"/>
      <stop offset="1" stop-color="#000" stop-opacity="0"/>
    </linearGradient>
    <radialGradient id="b" cx="7.3892" cy="8.1001" r="12.1101" fx="7.3892" fy="8.1001" gradientUnits="userSpaceOnUse">
      <stop offset="0" stop-color="#fff"/>
      <stop offset="1" stop-color="#f0e1bd"/>
    </radialGradient>
    <radialGradient id="a" cx="8.7339" cy="7.9097" r="13.5742" fx="8.7339" fy="7.9097" gradientUnits="userSpaceOnUse">
      <stop offset="0" stop-color="#fed182"/>
      <stop offset="0.2809" stop-color="#ffb310"/>
      <stop offset="1" stop-color="#996e04"/>
    </radialGradient>
    <radialGradient xlink:href="#a" id="e" gradientUnits="userSpaceOnUse" cx="8.7339" cy="7.9097" fx="8.7339" fy="7.9097" r="13.5742" gradientTransform="matrix(1.992984,0.000000,0.000000,1.992984,0.946094,-5.390644e-2)"/>
    <radialGradient xlink:href="#b" id="f" gradientUnits="userSpaceOnUse" gradientTransform="matrix(1.728428,0.000000,0.000000,1.728428,45.77485,2.915073)" cx="-16.387266" cy="9.4259253" fx="-16.387266" fy="9.4259253" r="12.1101"/>
    <radialGradient xlink:href="#c" id="d" cx="23.500000" cy="35.000000" fx="23.500000" fy="35.000000" r="18.500000" gradientTransform="matrix(1.000000,0.000000,0.000000,0.540541,0.000000,16.08108)" gradientUnits="userSpaceOnUse"/>
  </defs>
  <metadata/>
  <path style="marker:none" d="M 42.000000 35.000000 A 18.500000 10.000000 0 1 1  5.0000000,35.000000 A 18.500000 10.000000 0 1 1  42.000000 35.000000 z" transform="matrix(1.000000,0.000000,0.000000,1.371231,0.353553,-15.99830)" opacity="1" color="#000" fill="url(#d)" fill-opacity="1" fill-rule="evenodd" stroke="none" stroke-width="2" stroke-linecap="butt" stroke-linejoin="miter" marker-start="none" marker-mid="none" marker-end="none" stroke-miterlimit="4" stroke-dasharray="none" stroke-dashoffset="0" stroke-opacity="1" visibility="visible" display="inline" overflow="visible"/>
  <path d="M 42.998053,23.463303 C 42.998053,33.627520 34.627520,41.998053 24.463302,41.998053 C 14.299084,41.998053 5.9285525,33.627520 5.9285525,23.463303 C 5.9285525,13.299085 14.299084,4.9285534 24.463302,4.9285534 C 34.627520,4.9285534 42.998053,13.299085 42.998053,23.463303 z " fill="url(#e)" fill-rule="evenodd" stroke="#000" stroke-width="2.0000007" stroke-miterlimit="4" stroke-dasharray="none" stroke-opacity="1"/>
  <path d="M 15.178880,20.568590 C 15.178880,20.568590 22.202249,20.568590 27.759372,20.568590 C 25.405762,18.214979 23.045397,15.854411 23.045397,15.854411 C 22.545935,15.354745 22.296000,14.699918 22.296000,14.045091 C 22.296000,13.390264 22.545935,12.735437 23.045397,12.235771 C 24.044729,11.236645 25.664909,11.236645 26.664036,12.235771 L 35.745636,21.317986 C 35.801109,21.373458 35.852489,21.431592 35.902025,21.490955 C 35.917991,21.509992 35.932934,21.529438 35.948286,21.549089 C 35.981448,21.591257 36.012971,21.634243 36.043061,21.678049 C 36.058208,21.699746 36.073357,21.721445 36.087684,21.743551 C 36.125758,21.802709 36.161786,21.862890 36.194538,21.924503 C 36.205796,21.945588 36.215417,21.967284 36.225857,21.988574 C 36.248986,22.034836 36.270889,22.081506 36.290950,22.128997 C 36.303027,22.157450 36.314081,22.185901 36.325134,22.214764 C 36.341510,22.257547 36.356454,22.300943 36.370577,22.344746 C 36.379175,22.371563 36.388181,22.398378 36.395960,22.425397 C 36.415405,22.493357 36.432599,22.561931 36.446315,22.631323 C 36.449181,22.645653 36.450819,22.660390 36.453275,22.674720 C 36.463920,22.733876 36.472516,22.793444 36.479067,22.853215 C 36.481523,22.876551 36.483365,22.899886 36.485208,22.923223 C 36.489506,22.977467 36.492168,23.031916 36.492986,23.086366 C 36.493396,23.107245 36.494215,23.128124 36.494008,23.149004 C 36.493396,23.223309 36.490530,23.297818 36.483365,23.372124 C 36.483365,23.373352 36.483161,23.374580 36.482957,23.376013 C 36.475996,23.447452 36.465146,23.518482 36.452252,23.589512 C 36.447749,23.614690 36.442017,23.639458 36.436489,23.664636 C 36.426460,23.711512 36.414997,23.758387 36.402306,23.805058 C 36.394322,23.834124 36.386339,23.863193 36.377331,23.891850 C 36.363412,23.936473 36.347446,23.980689 36.330866,24.024698 C 36.320836,24.051512 36.312033,24.078534 36.300979,24.105144 C 36.300775,24.105553 36.300775,24.106169 36.300571,24.106577 C 36.274165,24.170648 36.244892,24.232875 36.213575,24.293671 C 36.199859,24.320281 36.184712,24.346073 36.170179,24.372274 C 36.147048,24.413827 36.123098,24.454767 36.097716,24.494682 C 36.082362,24.519042 36.066601,24.543196 36.050430,24.567147 C 36.016246,24.617297 35.980424,24.665811 35.942965,24.713299 C 35.933753,24.724967 35.925361,24.737249 35.915740,24.748713 C 35.866408,24.808894 35.814209,24.866003 35.759965,24.921067 C 35.755053,24.925981 35.750958,24.931507 35.746046,24.936625 L 26.664240,34.018635 C 25.664909,35.017966 24.044934,35.017966 23.045601,34.018635 C 22.046270,33.019303 22.046270,31.399327 23.045601,30.399995 L 27.759576,25.686023 L 15.179083,25.686023 C 13.766059,25.686023 12.620369,24.540330 12.620369,23.127305 C 12.620369,21.714281 13.766059,20.568590 15.179083,20.568590 L 15.178880,20.568590 z " style="marker:none" opacity="1" color="#000" fill="url(#f)" fill-opacity="1" fill-rule="evenodd" stroke="none" stroke-width="1" stroke-linecap="butt" stroke-linejoin="miter" marker-start="none" marker-mid="none" marker-end="none" stroke-miterlimit="4" stroke-dasharray="none" stroke-dashoffset="0" stroke-opacity="1" visibility="visible" display="inline" overflow="visible"/>
</svg>
