<?xml version="1.0" encoding="UTF-8" standalone="no"?>
<!-- Created with Inkscape (http://www.inkscape.org/) -->
<svg
   xmlns:dc="http://purl.org/dc/elements/1.1/"
   xmlns:cc="http://web.resource.org/cc/"
   xmlns:rdf="http://www.w3.org/1999/02/22-rdf-syntax-ns#"
   xmlns:svg="http://www.w3.org/2000/svg"
   xmlns="http://www.w3.org/2000/svg"
   xmlns:xlink="http://www.w3.org/1999/xlink"
   xmlns:sodipodi="http://sodipodi.sourceforge.net/DTD/sodipodi-0.dtd"
   xmlns:inkscape="http://www.inkscape.org/namespaces/inkscape"
   width="48.000000px"
   height="48.000000px"
   id="svg1339"
   sodipodi:version="0.32"
   inkscape:version="0.44"
   sodipodi:docbase="/home/jimmac/gfx/ximian/gorilla-icon-theme/scalable/actions"
   sodipodi:docname="go-top.svg"
   inkscape:output_extension="org.inkscape.output.svg.inkscape">
  <defs
     id="defs1341">
    <linearGradient
       inkscape:collect="always"
       id="linearGradient2052">
      <stop
         style="stop-color:#000000;stop-opacity:1;"
         offset="0"
         id="stop2054" />
      <stop
         style="stop-color:#000000;stop-opacity:0;"
         offset="1"
         id="stop2056" />
    </linearGradient>
    <radialGradient
       id="aigrd2"
       cx="7.3892"
       cy="8.1001"
       r="12.1101"
       fx="7.3892"
       fy="8.1001"
       gradientUnits="userSpaceOnUse">
      <stop
         offset="0"
         style="stop-color:#FFFFFF"
         id="stop21" />
      <stop
         offset="1"
         style="stop-color:#F0E1BD"
         id="stop23" />
    </radialGradient>
    <radialGradient
       id="aigrd1"
       cx="8.7339"
       cy="7.9097"
       r="13.5742"
       fx="8.7339"
       fy="7.9097"
       gradientUnits="userSpaceOnUse">
      <stop
         offset="0"
         style="stop-color:#FED182"
         id="stop8" />
      <stop
         offset="0.2809"
         style="stop-color:#FFB310"
         id="stop10" />
      <stop
         offset="1"
         style="stop-color:#996E04"
         id="stop12" />
    </radialGradient>
    <radialGradient
       inkscape:collect="always"
       xlink:href="#aigrd1"
       id="radialGradient1389"
       gradientUnits="userSpaceOnUse"
       cx="8.7339"
       cy="7.9097"
       fx="8.7339"
       fy="7.9097"
       r="13.5742"
       gradientTransform="matrix(1.992984,0.000000,0.000000,1.992984,0.946094,-5.390644e-2)" />
    <radialGradient
       inkscape:collect="always"
       xlink:href="#aigrd2"
       id="radialGradient5904"
       gradientUnits="userSpaceOnUse"
       gradientTransform="matrix(1.505709,4.960543e-23,-4.960543e-23,1.505709,43.04082,2.769544)"
       cx="-16.387266"
       cy="9.4259253"
       fx="-16.387266"
       fy="9.4259253"
       r="12.1101" />
    <radialGradient
       inkscape:collect="always"
       xlink:href="#linearGradient2052"
       id="radialGradient2058"
       cx="23.500000"
       cy="35.000000"
       fx="23.500000"
       fy="35.000000"
       r="18.500000"
       gradientTransform="matrix(1.000000,0.000000,0.000000,0.540541,0.000000,16.08108)"
       gradientUnits="userSpaceOnUse" />
    <radialGradient
       inkscape:collect="always"
       xlink:href="#aigrd2"
       id="radialGradient2332"
       gradientUnits="userSpaceOnUse"
       gradientTransform="matrix(-1.505709,-2.117752e-16,2.117752e-16,-1.505709,-43.04082,-2.769544)"
       cx="-16.387266"
       cy="9.4259253"
       fx="-16.387266"
       fy="9.4259253"
       r="12.1101" />
  </defs>
  <sodipodi:namedview
     id="base"
     pagecolor="#ffffff"
     bordercolor="#666666"
     borderopacity="0.22745098"
     inkscape:pageopacity="0.0"
     inkscape:pageshadow="2"
     inkscape:zoom="1"
     inkscape:cx="76.094027"
     inkscape:cy="8.9147243"
     inkscape:current-layer="layer1"
     showgrid="false"
     inkscape:grid-bbox="true"
     inkscape:document-units="px"
     inkscape:showpageshadow="false"
     inkscape:window-width="800"
     inkscape:window-height="595"
     inkscape:window-x="645"
     inkscape:window-y="415" />
  <metadata
     id="metadata1344">
    <rdf:RDF>
      <cc:Work
         rdf:about="">
        <dc:format>image/svg+xml</dc:format>
        <dc:type
           rdf:resource="http://purl.org/dc/dcmitype/StillImage" />
        <dc:title>Go Top</dc:title>
        <cc:license
           rdf:resource="http://creativecommons.org/licenses/GPL/2.0/" />
        <dc:creator>
          <cc:Agent>
            <dc:title>Jakub Steiner</dc:title>
          </cc:Agent>
        </dc:creator>
        <dc:source>http://jimmac.musichall.cz</dc:source>
        <dc:subject>
          <rdf:Bag>
            <rdf:li>go</rdf:li>
            <rdf:li>top</rdf:li>
          </rdf:Bag>
        </dc:subject>
      </cc:Work>
      <cc:License
         rdf:about="http://creativecommons.org/licenses/GPL/2.0/">
        <cc:permits
           rdf:resource="http://web.resource.org/cc/Reproduction" />
        <cc:permits
           rdf:resource="http://web.resource.org/cc/Distribution" />
        <cc:requires
           rdf:resource="http://web.resource.org/cc/Notice" />
        <cc:permits
           rdf:resource="http://web.resource.org/cc/DerivativeWorks" />
        <cc:requires
           rdf:resource="http://web.resource.org/cc/ShareAlike" />
        <cc:requires
           rdf:resource="http://web.resource.org/cc/SourceCode" />
      </cc:License>
    </rdf:RDF>
  </metadata>
  <g
     id="layer1"
     inkscape:label="Layer 1"
     inkscape:groupmode="layer">
    <path
       sodipodi:type="arc"
       style="opacity:1.0000000;color:#000000;fill:url(#radialGradient2058);fill-opacity:1.0000000;fill-rule:evenodd;stroke:none;stroke-width:2.0000000;stroke-linecap:butt;stroke-linejoin:miter;marker:none;marker-start:none;marker-mid:none;marker-end:none;stroke-miterlimit:4.0000000;stroke-dasharray:none;stroke-dashoffset:0.0000000;stroke-opacity:1.0000000;visibility:visible;display:inline;overflow:visible"
       id="path1322"
       sodipodi:cx="23.500000"
       sodipodi:cy="35.000000"
       sodipodi:rx="18.500000"
       sodipodi:ry="10.000000"
       d="M 42.000000 35.000000 A 18.500000 10.000000 0 1 1  5.0000000,35.000000 A 18.500000 10.000000 0 1 1  42.000000 35.000000 z"
       transform="matrix(1.000000,0.000000,0.000000,1.371231,0.353553,-15.99830)" />
    <path
       id="path14"
       d="M 42.998053,23.463303 C 42.998053,33.627520 34.627520,41.998053 24.463302,41.998053 C 14.299084,41.998053 5.9285525,33.627520 5.9285525,23.463303 C 5.9285525,13.299085 14.299084,4.9285534 24.463302,4.9285534 C 34.627520,4.9285534 42.998053,13.299085 42.998053,23.463303 z "
       style="fill:url(#radialGradient1389);fill-rule:evenodd;stroke:#000000;stroke-width:2.0000007;stroke-miterlimit:4.0000000;stroke-dasharray:none;stroke-opacity:1.0000000" />
    <path
       id="path3311"
       d="M 26.786191,33.52117 C 26.786191,33.52117 26.786191,27.402808 26.786191,22.561756 C 28.836524,24.612088 30.892917,26.668305 30.892917,26.668305 C 31.328198,27.103408 31.898646,27.321137 32.469095,27.321137 C 33.039543,27.321137 33.609991,27.103408 34.045272,26.668305 C 34.915654,25.797743 34.915654,24.386334 34.045272,23.515951 L 26.13336,15.604574 C 26.085036,15.556249 26.034393,15.51149 25.982679,15.468337 C 25.966095,15.454428 25.949155,15.441411 25.932036,15.428037 C 25.895301,15.399148 25.857854,15.371687 25.819693,15.345474 C 25.800792,15.332279 25.781889,15.319082 25.762631,15.306601 C 25.711096,15.273434 25.65867,15.242048 25.604996,15.213516 C 25.586628,15.203709 25.567728,15.195328 25.549181,15.186233 C 25.50888,15.166084 25.468224,15.147004 25.426853,15.129528 C 25.402066,15.119007 25.377281,15.109377 25.352137,15.099748 C 25.314867,15.085483 25.277063,15.072464 25.238904,15.060161 C 25.215543,15.052671 25.192183,15.044825 25.168646,15.038049 C 25.109443,15.021109 25.049705,15.006131 24.989255,14.994182 C 24.976771,14.991686 24.963933,14.990259 24.95145,14.988119 C 24.899916,14.978846 24.848024,14.971358 24.795955,14.965651 C 24.775626,14.963511 24.755298,14.961907 24.734968,14.960301 C 24.687714,14.956557 24.640281,14.954238 24.592847,14.953525 C 24.574658,14.953168 24.55647,14.952455 24.53828,14.952635 C 24.47355,14.953168 24.408642,14.955665 24.343911,14.961907 C 24.342841,14.961907 24.341771,14.962084 24.340523,14.962262 C 24.278289,14.968326 24.216412,14.977778 24.154535,14.98901 C 24.132601,14.992933 24.111024,14.997927 24.089091,15.002742 C 24.048255,15.011479 24.00742,15.021465 23.966763,15.032521 C 23.941442,15.039476 23.916119,15.04643 23.891155,15.054277 C 23.852282,15.066403 23.813763,15.080311 23.775425,15.094755 C 23.752066,15.103493 23.728526,15.111161 23.705345,15.120791 C 23.704989,15.120969 23.704452,15.120969 23.704097,15.121146 C 23.648282,15.14415 23.594073,15.169651 23.541111,15.196932 C 23.51793,15.208881 23.495461,15.222076 23.472637,15.234736 C 23.436438,15.254887 23.400773,15.275751 23.366002,15.297862 C 23.344781,15.311238 23.323739,15.324968 23.302874,15.339055 C 23.259186,15.368834 23.216924,15.40004 23.175555,15.432672 C 23.16539,15.440697 23.154691,15.448008 23.144704,15.456389 C 23.092278,15.499365 23.042528,15.544837 22.994559,15.592092 C 22.990278,15.596371 22.985464,15.599938 22.981006,15.604217 L 15.069272,23.515773 C 14.198711,24.386334 14.198711,25.797565 15.069272,26.668127 C 15.939834,27.538688 17.351065,27.538688 18.221627,26.668127 L 22.328173,22.561578 L 22.328173,33.520993 C 22.328173,34.751939 23.326236,35.75 24.557183,35.75 C 25.78813,35.75 26.786191,34.751939 26.786191,33.520993 L 26.786191,33.52117 z "
       style="opacity:1;color:#000000;fill:url(#radialGradient5904);fill-opacity:1;fill-rule:evenodd;stroke:none;stroke-width:1;stroke-linecap:butt;stroke-linejoin:miter;marker:none;marker-start:none;marker-mid:none;marker-end:none;stroke-miterlimit:4;stroke-dasharray:none;stroke-dashoffset:0;stroke-opacity:1;visibility:visible;display:inline;overflow:visible" />
    <rect
       style="opacity:1;color:#000000;fill:url(#radialGradient2332);fill-opacity:1;fill-rule:evenodd;stroke:none;stroke-width:1;stroke-linecap:butt;stroke-linejoin:miter;marker:none;marker-start:none;marker-mid:none;marker-end:none;stroke-miterlimit:4;stroke-dasharray:none;stroke-dashoffset:0;stroke-opacity:1;visibility:visible;display:inline;overflow:visible"
       id="rect2331"
       width="19"
       height="4.25"
       x="-34.11441"
       y="-15.228584"
       rx="2.125"
       ry="2.125"
       transform="scale(-1,-1)" />
  </g>
</svg>
