<?xml version="1.0" encoding="UTF-8" standalone="no"?>
<!-- Generator: Adobe Illustrator 13.0.1, SVG Export Plug-In . SVG Version: 6.00 Build 14948)  -->

<svg
   xmlns:dc="http://purl.org/dc/elements/1.1/"
   xmlns:cc="http://creativecommons.org/ns#"
   xmlns:rdf="http://www.w3.org/1999/02/22-rdf-syntax-ns#"
   xmlns:svg="http://www.w3.org/2000/svg"
   xmlns="http://www.w3.org/2000/svg"
   xmlns:sodipodi="http://sodipodi.sourceforge.net/DTD/sodipodi-0.dtd"
   xmlns:inkscape="http://www.inkscape.org/namespaces/inkscape"
   version="1.1"
   viewBox="0 0 574 574"
   enable-background="new 0 0 120 40"
   xml:space="preserve"
   id="svg21775"
   inkscape:version="0.48.4 r9939"
   sodipodi:docname="svg.svg"
   inkscape:export-filename="/home/chromakode/Documents/code/reddit/reddit-about/reddit_about/public/static/about/assets/reddit-alien.png"
   inkscape:export-xdpi="184.19029"
   inkscape:export-ydpi="184.19029"
   width="100%"
   height="100%"><metadata
     id="metadata21839"><rdf:RDF><cc:Work
         rdf:about=""><dc:format>image/svg+xml</dc:format><dc:type
           rdf:resource="http://purl.org/dc/dcmitype/StillImage" /><dc:title></dc:title></cc:Work></rdf:RDF></metadata><defs
     id="defs21837" /><sodipodi:namedview
     pagecolor="#ffffff"
     bordercolor="#666666"
     borderopacity="1"
     objecttolerance="10"
     gridtolerance="10"
     guidetolerance="10"
     inkscape:pageopacity="0"
     inkscape:pageshadow="2"
     inkscape:window-width="1855"
     inkscape:window-height="1056"
     id="namedview21835"
     showgrid="false"
     inkscape:zoom="1"
     inkscape:cx="108.8494"
     inkscape:cy="172.80989"
     inkscape:window-x="65"
     inkscape:window-y="24"
     inkscape:window-maximized="1"
     inkscape:current-layer="svg21775"
     fit-margin-top="0"
     fit-margin-left="0"
     fit-margin-right="0"
     fit-margin-bottom="0" /><circle
     d="m 52.385998,11.836 c 0,1.492274 -1.209727,2.702 -2.702,2.702 -1.492273,0 -2.702,-1.209726 -2.702,-2.702 0,-1.492273 1.209727,-2.7019995 2.702,-2.7019995 1.492273,0 2.702,1.2097265 2.702,2.7019995 z"
     style="fill:#ffffff;stroke:#000000;stroke-width:1.10000002"
     sodipodi:ry="2.7019999"
     sodipodi:rx="2.7019999"
     sodipodi:cy="11.836"
     sodipodi:cx="49.683998"
     id="circle21800"
     r="2.7019999"
     cy="11.836"
     cx="49.683998"
     transform="matrix(12.584949,0,0,12.584949,-479.34433,135.62823)" /><circle
     d="m 74.488003,11.836 c 0,1.492274 -1.209727,2.702 -2.702,2.702 -1.492273,0 -2.702,-1.209726 -2.702,-2.702 0,-1.492273 1.209727,-2.7019995 2.702,-2.7019995 1.492273,0 2.702,1.2097265 2.702,2.7019995 z"
     style="fill:#ffffff;stroke:#000000;stroke-width:1.10000002"
     sodipodi:ry="2.7019999"
     sodipodi:rx="2.7019999"
     sodipodi:cy="11.836"
     sodipodi:cx="71.786003"
     id="circle21802"
     r="2.7019999"
     cy="11.836"
     cx="71.786003"
     transform="matrix(12.584949,0,0,12.584949,-479.34433,135.62823)" /><path
     style="fill:none;stroke:#000000;stroke-width:13.84344387;stroke-linecap:round;stroke-linejoin:round"
     inkscape:connector-curvature="0"
     id="path21804"
     d="m 379.2764,165.22803 c 0,0 0,0 -68.00906,-16.00805 l -24.99371,79.00831" /><circle
     d="m 72.561,2.789 c 0,1.1763666 -0.953634,2.1300001 -2.13,2.1300001 -1.176367,0 -2.13,-0.9536335 -2.13,-2.1300001 0,-1.1763665 0.953633,-2.13000008 2.13,-2.13000008 1.176366,0 2.13,0.95363358 2.13,2.13000008 z"
     style="fill:#ffffff;stroke:#000000;stroke-width:1.10000002"
     sodipodi:ry="2.1300001"
     sodipodi:rx="2.1300001"
     sodipodi:cy="2.789"
     sodipodi:cx="70.431"
     id="circle21808"
     r="2.1300001"
     cy="2.789"
     cx="70.431"
     transform="matrix(12.584949,0,0,12.584949,-479.34433,135.62823)" /><ellipse
     d="m 72.913999,15.552 c 0,4.411098 -5.47914,7.987 -12.238,7.987 -6.758861,0 -12.238,-3.575902 -12.238,-7.987 0,-4.411098 5.479139,-7.9869999 12.238,-7.9869999 6.75886,0 12.238,3.5759019 12.238,7.9869999 z"
     style="fill:#ffffff;stroke:#000000;stroke-width:1.10000002"
     sodipodi:ry="7.987"
     sodipodi:rx="12.238"
     sodipodi:cy="15.552"
     sodipodi:cx="60.675999"
     id="ellipse21820"
     ry="7.987"
     rx="12.238"
     cy="15.552"
     cx="60.675999"
     transform="matrix(12.584949,0,0,12.584949,-479.34433,135.62823)" /><g
     id="g21824"
     transform="matrix(12.584949,0,0,12.584949,-479.34433,135.62823)"><path
       inkscape:connector-curvature="0"
       id="circle21826"
       transform="matrix(0.07946,0,0,0.07946,45.637601,-0.68559946)"
       d="m 135.90625,159.65625 c -13.67995,0 -25.15625,11.4763 -25.15625,25.15625 0,13.67995 11.4763,24.78125 25.15625,24.78125 13.67995,0 24.78125,-11.1013 24.78125,-24.78125 0,-13.67995 -11.1013,-25.15625 -24.78125,-25.15625 z"
       style="fill:#ff4500;stroke:none" /><path
       inkscape:connector-curvature="0"
       id="circle21828"
       transform="matrix(0.07946,0,0,0.07946,45.637601,-0.68559946)"
       d="m 244.46875,159.65625 c -13.68691,0 -25.1875,11.46934 -25.1875,25.15625 0,13.68691 11.50059,24.78125 25.1875,24.78125 13.68692,0 24.78125,-11.09434 24.78125,-24.78125 0,-13.68691 -11.09433,-25.15625 -24.78125,-25.15625 z"
       style="fill:#ff4500;stroke:none" /><path
       style="fill:none;stroke:#000000;stroke-width:1.10000002;stroke-linecap:round"
       inkscape:connector-curvature="0"
       id="path21830"
       d="m 56.507,19.229 c 1.066,1.066 2.786,1.271 4.212,1.271" /><path
       style="fill:none;stroke:#000000;stroke-width:1.10000002;stroke-linecap:round"
       inkscape:connector-curvature="0"
       id="path21832"
       d="M 64.963,19.229 C 63.896,20.295 62.177,20.5 60.75,20.5" /></g><g
     id="Layer_3"
     transform="translate(48.501283,607.00081)" /><g
     transform="matrix(31.888889,0,0,31.888889,-95.666667,-95.666667)"
     id="g3159"><path
       inkscape:connector-curvature="0"
       id="path3161"
       d="M 12,21 C 7.037,21 3,16.962 3,12 3,7.038 7.037,3 12,3 c 4.963,0 9,4.038 9,9 0,4.962 -4.037,9 -9,9 z M 12,5 c -3.859,0 -7,3.14 -7,7 0,3.86 3.141,7 7,7 3.859,0 7,-3.14 7,-7 0,-3.86 -3.141,-7 -7,-7 z" /></g></svg>