<?xml version="1.0" standalone="no"?>
<!--Created with Inkscape (http://www.inkscape.org/)-->
<svg xmlns="http://www.w3.org/2000/svg" xmlns:xlink="http://www.w3.org/1999/xlink" viewBox="0 0 48 48">
  <defs>
    <linearGradient id="i">
      <stop offset="0" stop-color="#3465a4" stop-opacity="1"/>
      <stop offset="1" stop-color="#2d578e" stop-opacity="1"/>
    </linearGradient>
    <linearGradient id="h">
      <stop offset="0" stop-color="black" stop-opacity="1"/>
      <stop offset="1" stop-color="black" stop-opacity="0"/>
    </linearGradient>
    <linearGradient id="g">
      <stop offset="0" stop-color="white" stop-opacity="1"/>
      <stop offset="1" stop-color="white" stop-opacity="0"/>
    </linearGradient>
    <linearGradient id="f">
      <stop offset="0" stop-color="white" stop-opacity="1"/>
      <stop offset="1" stop-color="white" stop-opacity="0"/>
    </linearGradient>
    <linearGradient id="e">
      <stop offset="0" stop-color="black" stop-opacity="1"/>
      <stop offset="1" stop-color="black" stop-opacity="0"/>
    </linearGradient>
    <linearGradient id="d">
      <stop offset="0" stop-color="#edd400" stop-opacity="1"/>
      <stop offset="1" stop-color="#b19e00" stop-opacity="1"/>
    </linearGradient>
    <linearGradient id="c">
      <stop offset="0" stop-color="white" stop-opacity="1"/>
      <stop offset="1" stop-color="white" stop-opacity="0"/>
    </linearGradient>
    <radialGradient xlink:href="#a" id="l" gradientUnits="userSpaceOnUse" gradientTransform="matrix(-2.774389,0,0,1.969706,112.7623,-872.8854)" cx="605.71429" cy="486.64789" fx="605.71429" fy="486.64789" r="117.14286"/>
    <linearGradient id="a">
      <stop offset="0" stop-color="black" stop-opacity="1"/>
      <stop offset="1" stop-color="black" stop-opacity="0"/>
    </linearGradient>
    <radialGradient xlink:href="#a" id="k" gradientUnits="userSpaceOnUse" gradientTransform="matrix(2.774389,0,0,1.969706,-1891.633,-872.8854)" cx="605.71429" cy="486.64789" fx="605.71429" fy="486.64789" r="117.14286"/>
    <linearGradient id="b">
      <stop offset="0" stop-color="black" stop-opacity="0"/>
      <stop offset="0.5" stop-color="black" stop-opacity="1"/>
      <stop offset="1" stop-color="black" stop-opacity="0"/>
    </linearGradient>
    <linearGradient xlink:href="#b" id="j" gradientUnits="userSpaceOnUse" gradientTransform="matrix(2.774389,0,0,1.969706,-1892.179,-872.8854)" x1="302.85715" y1="366.64789" x2="302.85715" y2="609.50507"/>
    <linearGradient xlink:href="#c" id="u" x1="22.509596" y1="1.9792649" x2="31.603951" y2="58.909889" gradientUnits="userSpaceOnUse" gradientTransform="translate(-2.2e-6,0)"/>
    <linearGradient xlink:href="#d" id="o" x1="9.1648445" y1="4.4145103" x2="9.125" y2="11.352011" gradientUnits="userSpaceOnUse"/>
    <linearGradient xlink:href="#d" id="p" gradientUnits="userSpaceOnUse" x1="9.1648445" y1="4.4145103" x2="9.125" y2="11.352011" gradientTransform="translate(4,0)"/>
    <linearGradient xlink:href="#d" id="q" gradientUnits="userSpaceOnUse" gradientTransform="translate(8,0)" x1="9.1648445" y1="4.4145103" x2="9.125" y2="11.352011"/>
    <linearGradient xlink:href="#d" id="r" gradientUnits="userSpaceOnUse" gradientTransform="translate(12,0)" x1="9.1648445" y1="4.4145103" x2="9.125" y2="11.352011"/>
    <linearGradient xlink:href="#d" id="s" gradientUnits="userSpaceOnUse" gradientTransform="translate(16,0)" x1="9.1648445" y1="4.4145103" x2="9.125" y2="11.352011"/>
    <linearGradient xlink:href="#d" id="t" gradientUnits="userSpaceOnUse" gradientTransform="translate(20,0)" x1="9.1648445" y1="4.4145103" x2="9.125" y2="11.352011"/>
    <linearGradient xlink:href="#e" id="v" x1="22.937496" y1="29.93535" x2="22.937496" y2="40.689152" gradientUnits="userSpaceOnUse"/>
    <linearGradient xlink:href="#f" id="w" gradientUnits="userSpaceOnUse" x1="25.044359" y1="20.624216" x2="25.791954" y2="28.863333" gradientTransform="matrix(0.919614,0,0,0.919598,1.768501,2.487437)"/>
    <linearGradient xlink:href="#g" x1="19.500004" y1="10.687498" x2="19.500004" y2="2.1249981" gradientUnits="userSpaceOnUse"/>
    <linearGradient xlink:href="#h" id="n" x1="19.500004" y1="10.687498" x2="19.500004" y2="2.1249981" gradientUnits="userSpaceOnUse"/>
    <linearGradient xlink:href="#i" id="m" x1="19.864109" y1="17.906694" x2="37.166458" y2="41.594772" gradientUnits="userSpaceOnUse"/>
  </defs>
  <metadata/>
  <g transform="matrix(2.268614e-2,0,0,1.568626e-2,43.42786,42.48706)" opacity=".58730164" display="inline">
    <rect y="-150.69685" x="-1559.2523" height="478.35718" width="1339.6335" style="marker:none" opacity=".40206185" color="#000" fill="url(#j)" fill-opacity="1" fill-rule="nonzero" stroke="none" stroke-width="1" stroke-linecap="round" stroke-linejoin="miter" marker-start="none" marker-mid="none" marker-end="none" stroke-miterlimit="4" stroke-dasharray="none" stroke-dashoffset="0" stroke-opacity="1" visibility="visible" display="inline" overflow="visible"/>
    <path d="M -219.61876,-150.68038 C -219.61876,-150.68038 -219.61876,327.65041 -219.61876,327.65041 C -76.744594,328.55086 125.78146,220.48075 125.78138,88.454235 C 125.78138,-43.572302 -33.655436,-150.68036 -219.61876,-150.68038 z " style="marker:none" opacity=".40206185" color="#000" fill="url(#k)" fill-opacity="1" fill-rule="nonzero" stroke="none" stroke-width="1" stroke-linecap="round" stroke-linejoin="miter" marker-start="none" marker-mid="none" marker-end="none" stroke-miterlimit="4" stroke-dasharray="none" stroke-dashoffset="0" stroke-opacity="1" visibility="visible" display="inline" overflow="visible"/>
    <path style="marker:none" d="M -1559.2523,-150.68038 C -1559.2523,-150.68038 -1559.2523,327.65041 -1559.2523,327.65041 C -1702.1265,328.55086 -1904.6525,220.48075 -1904.6525,88.454235 C -1904.6525,-43.572302 -1745.2157,-150.68036 -1559.2523,-150.68038 z " opacity=".40206185" color="#000" fill="url(#l)" fill-opacity="1" fill-rule="nonzero" stroke="none" stroke-width="1" stroke-linecap="round" stroke-linejoin="miter" marker-start="none" marker-mid="none" marker-end="none" stroke-miterlimit="4" stroke-dasharray="none" stroke-dashoffset="0" stroke-opacity="1" visibility="visible" display="inline" overflow="visible"/>
  </g>
  <path d="M 39.494883,43.500017 L 39.494883,16.490271 L 38.303301,16.490271 L 38.303301,13.66199 L 39.494883,13.66199 L 39.494883,5.9262051 L 34.025919,1.5057567 L 5.5457713,1.5057567 L 5.5148657,43.500017 L 8.5624997,43.500017 L 9.4999997,42.562517 L 10.625,43.500017 L 33.499999,43.500017 L 34.374999,42.562517 L 35.499999,43.500017 L 39.494883,43.500017 z " opacity="1" fill="url(#m)" fill-opacity="1" fill-rule="evenodd" stroke="#204a87" stroke-width=".99999988px" stroke-linecap="butt" stroke-linejoin="miter" stroke-opacity="1"/>
  <path style="marker:none" d="M 32.500005,2.5937499 L 32.500005,11.281247 C 32.500005,12.510434 31.510442,13.499996 30.281255,13.499996 L 8.7187512,13.499996 C 7.4895636,13.499996 6.500001,12.510434 6.500001,11.281247 L 6.500001,2.5937499 C 6.500001,2.5937499 32.500005,2.5937499 32.500005,2.5937499 z " opacity=".18592966" color="#000" fill="url(#n)" fill-opacity="1" fill-rule="nonzero" stroke="url(#linearGradient4123)" stroke-width="1.00000024" stroke-linecap="round" stroke-linejoin="round" stroke-miterlimit="4" stroke-dashoffset="0" stroke-opacity="1" marker-start="none" marker-mid="none" marker-end="none" visibility="visible" display="inline" overflow="visible"/>
  <path d="M 11,1.9662134 L 11,10.507729 C 11,11.327692 10.339885,11.987807 9.519922,11.987807 C 8.6999591,11.987807 8.0398445,11.327692 8.0398445,10.507729 L 8.0398445,1.9662134 C 8.0398445,1.9662134 11,1.9662134 11,1.9662134 z " style="marker:none" color="#000" fill="url(#o)" fill-opacity="1" fill-rule="nonzero" stroke="none" stroke-width="1.00000036" stroke-linecap="round" stroke-linejoin="round" stroke-miterlimit="4" stroke-dashoffset="0" stroke-opacity="1" marker-start="none" marker-mid="none" marker-end="none" visibility="visible" display="inline" overflow="visible"/>
  <path style="marker:none" d="M 15,1.9662134 L 15,10.507729 C 15,11.327692 14.339885,11.987807 13.519922,11.987807 C 12.699959,11.987807 12.039844,11.327692 12.039844,10.507729 L 12.039844,1.9662134 C 12.039844,1.9662134 15,1.9662134 15,1.9662134 z " color="#000" fill="url(#p)" fill-opacity="1" fill-rule="nonzero" stroke="none" stroke-width="1.00000036" stroke-linecap="round" stroke-linejoin="round" marker-start="none" marker-mid="none" marker-end="none" stroke-miterlimit="4" stroke-dashoffset="0" stroke-opacity="1" visibility="visible" display="inline" overflow="visible"/>
  <path d="M 19,1.9662134 L 19,10.507729 C 19,11.327692 18.339885,11.987807 17.519922,11.987807 C 16.699959,11.987807 16.039844,11.327692 16.039844,10.507729 L 16.039844,1.9662134 C 16.039844,1.9662134 19,1.9662134 19,1.9662134 z " style="marker:none" color="#000" fill="url(#q)" fill-opacity="1" fill-rule="nonzero" stroke="none" stroke-width="1.00000036" stroke-linecap="round" stroke-linejoin="round" marker-start="none" marker-mid="none" marker-end="none" stroke-miterlimit="4" stroke-dashoffset="0" stroke-opacity="1" visibility="visible" display="inline" overflow="visible"/>
  <path style="marker:none" d="M 23,1.9662134 L 23,10.507729 C 23,11.327692 22.339885,11.987807 21.519922,11.987807 C 20.699959,11.987807 20.039844,11.327692 20.039844,10.507729 L 20.039844,1.9662134 C 20.039844,1.9662134 23,1.9662134 23,1.9662134 z " color="#000" fill="url(#r)" fill-opacity="1" fill-rule="nonzero" stroke="none" stroke-width="1.00000036" stroke-linecap="round" stroke-linejoin="round" marker-start="none" marker-mid="none" marker-end="none" stroke-miterlimit="4" stroke-dashoffset="0" stroke-opacity="1" visibility="visible" display="inline" overflow="visible"/>
  <path d="M 27,1.9662134 L 27,10.507729 C 27,11.327692 26.339885,11.987807 25.519922,11.987807 C 24.699959,11.987807 24.039844,11.327692 24.039844,10.507729 L 24.039844,1.9662134 C 24.039844,1.9662134 27,1.9662134 27,1.9662134 z " style="marker:none" color="#000" fill="url(#s)" fill-opacity="1" fill-rule="nonzero" stroke="none" stroke-width="1.00000036" stroke-linecap="round" stroke-linejoin="round" marker-start="none" marker-mid="none" marker-end="none" stroke-miterlimit="4" stroke-dashoffset="0" stroke-opacity="1" visibility="visible" display="inline" overflow="visible"/>
  <path style="marker:none" d="M 31,1.9662134 L 31,10.507729 C 31,11.327692 30.339885,11.987807 29.519922,11.987807 C 28.699959,11.987807 28.039844,11.327692 28.039844,10.507729 L 28.039844,1.9662134 C 28.039844,1.9662134 31,1.9662134 31,1.9662134 z " color="#000" fill="url(#t)" fill-opacity="1" fill-rule="nonzero" stroke="none" stroke-width="1.00000036" stroke-linecap="round" stroke-linejoin="round" marker-start="none" marker-mid="none" marker-end="none" stroke-miterlimit="4" stroke-dashoffset="0" stroke-opacity="1" visibility="visible" display="inline" overflow="visible"/>
  <path d="M 38.528573,42.499985 L 38.528573,17.437861 L 37.478041,17.437861 L 37.478041,12.707636 L 38.528573,12.707636 L 38.455625,6.4206575 L 33.591021,2.4792645 L 6.5197538,2.4792645 L 6.4906148,42.499985 L 8.131728,42.499985 L 9.4575528,41.262548 L 11.136932,42.499985 L 32.968854,42.499985 L 34.29468,41.350936 L 35.88567,42.499985 L 38.528573,42.499985 z " opacity="1" fill="none" fill-opacity="1" fill-rule="evenodd" stroke="url(#u)" stroke-width=".99999934px" stroke-linecap="butt" stroke-linejoin="miter" stroke-opacity=".453125"/>
  <rect style="marker:none" width="25" height="24.875011" x="9.4999981" y="18.500008" rx="1.4800774" ry="1.4800782" opacity=".18592965" color="#000" fill="none" fill-opacity="1" fill-rule="nonzero" stroke="url(#v)" stroke-width="1.00000048" stroke-linecap="round" stroke-linejoin="round" marker-start="none" marker-mid="none" marker-end="none" stroke-miterlimit="4" stroke-dasharray="none" stroke-dashoffset="0" stroke-opacity=".453125" visibility="visible" display="inline" overflow="visible"/>
  <rect y="19.500008" x="10.504832" height="22.875011" width="22.990351" style="marker:none" rx="0.46875" ry="0.46875" opacity=".18592966" color="#000" fill="none" fill-opacity="1" fill-rule="nonzero" stroke="url(#w)" stroke-width="1.00000072" stroke-linecap="round" stroke-linejoin="round" marker-start="none" marker-mid="none" marker-end="none" stroke-miterlimit="4" stroke-dasharray="none" stroke-dashoffset="0" stroke-opacity=".453125" visibility="visible" display="inline" overflow="visible"/>
</svg>
