<svg
   xmlns:dc="http://purl.org/dc/elements/1.1/"
   xmlns:cc="http://creativecommons.org/ns#"
   xmlns:rdf="http://www.w3.org/1999/02/22-rdf-syntax-ns#"
   xmlns:svg="http://www.w3.org/2000/svg"
   xmlns="http://www.w3.org/2000/svg"
   xmlns:sodipodi="http://sodipodi.sourceforge.net/DTD/sodipodi-0.dtd"
   xmlns:inkscape="http://www.inkscape.org/namespaces/inkscape"
   viewBox="0 0 162.92488 46.74355"
   version="1.1"
   inkscape:version="0.92.0 r15299"
   sodipodi:docname="food city.svg">
  <defs
     id="defs201" />
  <sodipodi:namedview
     id="base"
     pagecolor="#ffffff"
     bordercolor="#666666"
     borderopacity="1.0"
     inkscape:pageopacity="0.0"
     inkscape:pageshadow="2"
     inkscape:zoom="0.35"
     inkscape:cx="155.99977"
     inkscape:cy="686.44449"
     inkscape:document-units="mm"
     inkscape:current-layer="layer1"
     showgrid="false"
     fit-margin-top="0"
     fit-margin-left="0"
     fit-margin-right="0"
     fit-margin-bottom="0"
     inkscape:window-width="1280"
     inkscape:window-height="744"
     inkscape:window-x="-4"
     inkscape:window-y="-4"
     inkscape:window-maximized="1" />
  <metadata
     id="metadata204">
    <rdf:RDF>
      <cc:Work
         rdf:about="">
        <dc:format>image/svg+xml</dc:format>
        <dc:type
           rdf:resource="http://purl.org/dc/dcmitype/StillImage" />
        <dc:title></dc:title>
      </cc:Work>
    </rdf:RDF>
  </metadata>
  <g
     inkscape:label="Layer 1"
     inkscape:groupmode="layer"
     id="layer1"
     transform="translate(28.801726,-283.71155)">
    <g
       id="g270"
       transform="matrix(0.26458333,0,0,0.26458333,-28.301844,202.30819)">
      <g
         id="g211">
	<path
   id="path209"
   d="M 254.614,309.556 V 482.445 H 398.577 V 309.556 Z m 101.235,120.293 c -10.515,0 -18.845,-14.894 -18.845,-33.299 0,-18.408 8.544,-33.308 18.845,-33.308 3.508,0 6.79,1.757 9.641,4.819 v 16.214 c -1.537,-3.062 -3.728,-4.815 -6.353,-4.815 -5.042,0 -8.984,7.667 -8.984,17.307 0,9.421 3.942,17.312 8.984,17.312 2.411,0 4.815,-1.975 6.353,-5.042 v 16.217 c -2.629,3.07 -6.134,4.595 -9.641,4.595 z m 20.158,-45.574 h -1.533 c -6.137,-46.01 -56.972,-43.822 -59.819,5.916 11.611,-4.602 17.964,-13.583 24.104,-23.003 h 2.634 c -13.369,14.683 -10.301,47.987 0.657,58.945 l -2.848,-0.22 c -6.573,-8.761 -12.272,-17.308 -22.79,-20.373 l -1.097,-0.22 c 1.977,17.748 10.304,39.884 24.98,66.176 -17.971,-11.396 -50.835,-14.9 -60.26,-14.467 26.731,-62.45 6.796,-114.383 -7.23,-137.83 9.858,4.388 60.48,17.751 107.583,1.534 -5.251,8.325 -6.578,43.6 -4.381,63.542 z"
   inkscape:connector-curvature="0"
   style="fill:#007ac2" />

</g>
      <g
         id="g215">
	<path
   id="path213"
   d="m 459.707,352.504 c -0.874,6.356 -1.757,13.143 -2.631,19.505 -4.152,-1.314 -9.857,-1.971 -13.803,0.66 -10.738,8.981 -12.709,30.887 -9.207,37.904 3.068,6.133 9.638,5.262 15.993,4.825 -1.968,8.54 -2.41,19.932 -2.624,19.715 -6.137,3.945 -20.816,3.509 -27.389,-2.188 -12.492,-11.611 -12.052,-28.702 -9.424,-44.482 2.851,-12.703 7.666,-26.075 19.722,-33.745 8.114,-4.387 19.728,-6.792 29.363,-2.194 z"
   inkscape:connector-curvature="0"
   style="fill:#ed1c2e" />

</g>
      <g
         id="g219">
	<path
   id="path217"
   d="m 50.398,373.1 c -0.214,0 -16.437,-0.22 -16.868,0 l -1.757,12.055 h 15.12 c 0.217,0 -3.728,20.155 -3.728,20.155 h -14.9 c 0,0 -5.036,30.46 -5.256,30.46 0,0 -23.227,0 -23.007,0 0,0 12.929,-82.832 12.929,-83.049 H 53.47 Z"
   inkscape:connector-curvature="0"
   style="fill:#ed1c2e" />

</g>
      <g
         id="g223">
	<path
   id="path221"
   d="m 491.264,352.941 -12.488,82.832 h -23.661 c 4.159,-27.392 6.793,-55.88 12.492,-82.832 -0.006,-0.22 23.657,0.221 23.657,0 z"
   inkscape:connector-curvature="0"
   style="fill:#ed1c2e" />

</g>
      <g
         id="g227">
	<path
   id="path225"
   d="m 547.582,352.941 c 0.21,0 -2.852,21.259 -2.852,20.822 0,0 -12.263,0 -12.485,0 L 522.161,435.55 H 498.5 l 10.078,-62.23 h -13.58 c 1.095,-6.133 1.969,-12.712 3.502,-20.379 z"
   inkscape:connector-curvature="0"
   style="fill:#ed1c2e" />

</g>
      <g
         id="g231">
	<polygon
   id="polygon229"
   points="587.016,399.611 580.887,435.771 557.22,435.771 562.479,398.955 551.964,353.162 576.941,352.941 579.139,375.074 588.116,353.381 612,353.381 "
   style="fill:#ed1c2e" />

</g>
      <g
         id="g235">
	<path
   id="path233"
   d="m 240.375,367.184 c 6.133,15.774 3.945,38.126 -4.599,53.244 -10.518,17.534 -29.363,15.78 -54.781,15.78 l 12.706,-83.704 c 18.185,0.437 37.47,-3.067 46.674,14.68 z m -27.169,8.767 -6.136,39.878 c 10.301,0.656 12.492,-14.463 13.146,-28.263 0.437,-4.611 -1.531,-10.958 -7.01,-11.615 z"
   inkscape:connector-curvature="0"
   style="fill:#ed1c2e" />

</g>
      <g
         id="g239">
	<path
   id="path237"
   d="m 110.221,363.019 c 7.667,20.816 2.408,47.108 -8.544,63.328 -9.641,13.806 -23.224,15.337 -36.593,9.204 -9.204,-5.479 -14.463,-18.188 -13.803,-32.651 0.437,-13.802 5.036,-40.754 21.033,-49.518 11.172,-6.36 31.334,-4.606 37.907,9.637 z m -29.586,11.398 c -6.136,11.392 -7.013,27.172 -5.916,36.373 0.66,3.725 3.065,5.913 6.573,5.039 8.981,-3.071 10.735,-31.771 9.421,-40.098 -1.311,-5.699 -6.783,-7.233 -10.078,-1.314 z"
   inkscape:connector-curvature="0"
   style="fill:#ed1c2e" />

</g>
      <g
         id="g243">
	<path
   id="path241"
   d="m 177.05,363.019 c 7.667,20.816 2.411,47.108 -8.544,63.328 -9.641,13.806 -23.23,15.337 -36.592,9.204 -9.204,-5.479 -14.463,-18.188 -13.803,-32.651 0.44,-13.802 5.039,-40.754 21.036,-49.518 11.168,-6.36 31.327,-4.606 37.903,9.637 z m -29.8,11.398 c -6.133,11.392 -7.013,27.172 -5.916,36.373 0.66,3.725 3.071,5.913 6.573,5.039 8.987,-3.071 10.741,-31.771 9.424,-40.098 -1.32,-5.699 -6.792,-7.233 -10.081,-1.314 z"
   inkscape:connector-curvature="0"
   style="fill:#ed1c2e" />

</g>
    </g>
  </g>
</svg>
