<?xml version="1.0" standalone="no"?>
<!--Created with Inkscape (http://www.inkscape.org/)-->
<svg xmlns="http://www.w3.org/2000/svg" xmlns:xlink="http://www.w3.org/1999/xlink" viewBox="0 0 48 48">
  <defs>
    <linearGradient id="b">
      <stop offset="0.0000000" stop-color="#fff" stop-opacity="1"/>
      <stop offset="1.0000000" stop-color="#e7e6ae" stop-opacity="1"/>
    </linearGradient>
    <linearGradient id="e">
      <stop offset="0" stop-color="#fff" stop-opacity="1"/>
      <stop offset="1" stop-color="#fff" stop-opacity="0"/>
    </linearGradient>
    <linearGradient id="d">
      <stop offset="0" stop-color="#fff" stop-opacity="1"/>
      <stop offset="1" stop-color="#fff" stop-opacity="0"/>
    </linearGradient>
    <linearGradient id="c">
      <stop offset="0.0000000" stop-color="#f79403" stop-opacity="1"/>
      <stop offset="0.18691589" stop-color="#fdb343" stop-opacity="1"/>
      <stop offset="0.43008122" stop-color="#fdb74f" stop-opacity="1"/>
      <stop offset="1.0000000" stop-color="#8f5601" stop-opacity="1"/>
    </linearGradient>
    <linearGradient id="a">
      <stop offset="0.0000000" stop-color="#7e807a" stop-opacity="1"/>
      <stop offset="0.25000000" stop-color="#babbb8" stop-opacity="1"/>
      <stop offset="0.50000000" stop-color="#a5a6a3" stop-opacity="1"/>
      <stop offset="1.0000000" stop-color="#333432" stop-opacity="1"/>
    </linearGradient>
    <linearGradient id="f">
      <stop offset="0" stop-color="#000" stop-opacity="1"/>
      <stop offset="1" stop-color="#000" stop-opacity="0"/>
    </linearGradient>
    <linearGradient gradientTransform="matrix(1.026277,0.000000,0.000000,1.026277,-0.632340,-4.442884)" gradientUnits="userSpaceOnUse" y2="26.718750" x2="38.826412" y1="26.718750" x1="9.3030529" id="g" xlink:href="#a"/>
    <linearGradient gradientUnits="userSpaceOnUse" y2="20.095198" x2="36.075581" y1="8.0476589" x1="24.000000" id="j" xlink:href="#b"/>
    <linearGradient gradientTransform="translate(-1.142857e-6,-3.740806)" gradientUnits="userSpaceOnUse" y2="17.511776" x2="38.013393" y1="17.511776" x1="10.116071" id="h" xlink:href="#c"/>
    <linearGradient gradientTransform="translate(-1.142857e-6,-3.740806)" gradientUnits="userSpaceOnUse" y2="31.524130" x2="25.645538" y1="15.014635" x1="18.372278" id="i" xlink:href="#d"/>
    <linearGradient gradientTransform="translate(-0.142857,-1.097951)" gradientUnits="userSpaceOnUse" y2="30.000000" x2="15.785715" y1="19.500000" x1="16.071430" id="l" xlink:href="#e"/>
    <linearGradient y2="13.284962" x2="24.000000" y1="16.525082" x1="24.000000" gradientUnits="userSpaceOnUse" id="m" xlink:href="#b"/>
    <radialGradient r="17.142857" fy="40.000000" fx="23.857143" cy="40.000000" cx="23.857143" gradientTransform="matrix(1.000000,0.000000,0.000000,0.500000,-1.864227e-14,20.00000)" gradientUnits="userSpaceOnUse" id="k" xlink:href="#f"/>
  </defs>
  <metadata/>
  <path transform="matrix(1.147773,0,0,1.183328,-3.03769,-12.17823)" d="M 41 40 A 17.142857 8.5714283 0 1 1  6.7142868,40 A 17.142857 8.5714283 0 1 1  41 40 z" style="marker:none" opacity=".2" color="#000" fill="#000" fill-opacity="1" fill-rule="nonzero" stroke="none" stroke-width="1" stroke-linecap="butt" stroke-linejoin="miter" marker-start="none" marker-mid="none" marker-end="none" stroke-miterlimit="10" stroke-dasharray="none" stroke-dashoffset="0" stroke-opacity="1" visibility="visible" display="block" overflow="visible"/>
  <path d="M 23.911200,3.6012567 C 21.513829,3.6012567 18.367493,4.4561071 18.367493,5.5077022 C 18.367493,5.5831619 18.367493,8.5768513 18.367493,8.6554393 C 18.367493,9.7070340 21.513829,10.561886 23.911200,10.561886 C 26.308571,10.561886 29.190525,9.7070340 29.190524,8.6554393 C 29.190524,8.5931953 29.190524,5.5699469 29.190524,5.5077022 C 29.190524,4.4561060 26.308571,3.6012567 23.911200,3.6012567 z " style="marker:none" opacity="1" color="#000" fill="#fcaf3e" fill-opacity="1" fill-rule="nonzero" stroke="#000" stroke-width="2" stroke-linecap="butt" stroke-linejoin="miter" marker-start="none" marker-mid="none" marker-end="none" stroke-miterlimit="10" stroke-dasharray="none" stroke-dashoffset="0" stroke-opacity="1" visibility="visible" display="block" overflow="visible"/>
  <path d="M 23.934166,4.6973926 C 15.868216,4.6973926 9.3097191,7.5735348 9.3097181,11.111627 C 9.3097181,11.365512 9.3097181,34.579872 9.3097181,34.844282 C 9.3097181,38.382373 15.868215,41.258513 23.934166,41.258513 C 32.000116,41.258513 38.819766,38.382372 38.819763,34.844282 C 38.819763,34.634859 38.819763,11.321050 38.819763,11.111627 C 38.819763,7.5735338 32.000115,4.6973926 23.934166,4.6973926 z " style="marker:none" opacity="1" color="#000" fill="url(#g)" fill-opacity="1" fill-rule="nonzero" stroke="#000" stroke-width="2.000001" stroke-linecap="butt" stroke-linejoin="miter" marker-start="none" marker-mid="none" marker-end="none" stroke-miterlimit="10" stroke-dasharray="none" stroke-dashoffset="0" stroke-opacity="1" visibility="visible" display="block" overflow="visible"/>
  <path style="marker:none" d="M 23.941292,5.4219637 C 16.316147,5.4219637 10.116071,8.1409263 10.116070,11.485660 C 10.116070,11.725671 10.116070,17.793544 10.116070,18.043504 C 10.116070,21.388238 16.316146,23.691402 23.941292,23.691402 C 31.566438,23.691402 38.013394,21.388238 38.013392,18.043504 C 38.013392,17.845526 38.013392,11.683638 38.013392,11.485660 C 38.013392,8.1409253 31.566437,5.4219637 23.941292,5.4219637 z " opacity="1" color="#000" fill="url(#h)" fill-opacity="1" fill-rule="nonzero" stroke="none" stroke-width=".76899999" stroke-linecap="butt" stroke-linejoin="miter" marker-start="none" marker-mid="none" marker-end="none" stroke-miterlimit="10" stroke-dasharray="none" stroke-dashoffset="0" stroke-opacity="1" visibility="visible" display="block" overflow="visible"/>
  <path style="marker:none" d="M 23.946122,5.9447622 C 16.618364,5.9447622 10.660096,8.5576823 10.660095,11.771969 C 10.660095,12.002620 10.660095,33.658029 10.660095,33.898240 C 10.660095,37.112527 16.618363,39.725445 23.946122,39.725445 C 31.273880,39.725445 37.469399,37.112526 37.469397,33.898240 C 37.469397,33.707984 37.469397,11.962227 37.469397,11.771969 C 37.469397,8.5576813 31.273879,5.9447622 23.946122,5.9447622 z " opacity="1" color="#000" fill="none" fill-opacity="1" fill-rule="nonzero" stroke="url(#i)" stroke-width="1" stroke-linecap="butt" stroke-linejoin="miter" marker-start="none" marker-mid="none" marker-end="none" stroke-miterlimit="10" stroke-dasharray="none" stroke-dashoffset="0" stroke-opacity="1" visibility="visible" display="block" overflow="visible"/>
  <path transform="matrix(1.037291,0.000000,0.000000,0.954619,-0.894979,-2.102242)" d="M 36.857142 14.071428 A 12.857142 5.5000000 0 1 1  11.142858,14.071428 A 12.857142 5.5000000 0 1 1  36.857142 14.071428 z" style="marker:none" opacity="1" color="#000" fill="#fed496" fill-opacity="1" fill-rule="nonzero" stroke="url(#j)" stroke-width="1.004927" stroke-linecap="butt" stroke-linejoin="miter" marker-start="none" marker-mid="none" marker-end="none" stroke-miterlimit="10" stroke-dasharray="none" stroke-dashoffset="0" stroke-opacity="1" visibility="visible" display="block" overflow="visible"/>
  <path style="marker:none" d="M 41.000000 40.000000 A 17.142857 8.5714283 0 1 1  6.7142868,40.000000 A 17.142857 8.5714283 0 1 1  41.000000 40.000000 z" transform="matrix(0.363430,0.000000,0.000000,0.363430,15.47247,-6.145099)" opacity=".65822786" color="#000" fill="url(#k)" fill-opacity="1" fill-rule="nonzero" stroke="none" stroke-width="1" stroke-linecap="butt" stroke-linejoin="miter" marker-start="none" marker-mid="none" marker-end="none" stroke-miterlimit="10" stroke-dasharray="none" stroke-dashoffset="0" stroke-opacity="1" visibility="visible" display="block" overflow="visible"/>
  <path style="marker:none" d="M 23.889443,4.4388243 C 21.886649,4.4388243 19.258159,5.1529773 19.258159,6.0314933 C 19.258159,6.0945333 19.258159,8.5954983 19.258159,8.6611523 C 19.258159,9.5396683 21.886649,10.253822 23.889443,10.253822 C 25.892238,10.253822 28.299859,9.5396683 28.299858,8.6611523 C 28.299858,8.6091523 28.299858,6.0834933 28.299858,6.0314933 C 28.299858,5.1529763 25.892238,4.4388243 23.889443,4.4388243 z " opacity="1" color="#000" fill="#fcaf3e" fill-opacity="1" fill-rule="nonzero" stroke="#b46c02" stroke-width="1" stroke-linecap="butt" stroke-linejoin="miter" marker-start="none" marker-mid="none" marker-end="none" stroke-miterlimit="10" stroke-dasharray="none" stroke-dashoffset="0" stroke-opacity="1" visibility="visible" display="block" overflow="visible"/>
  <path d="M 13.642858,15.973477 L 14.000000,32.759192 L 18.571429,34.044906 L 18.428572,17.330620 C 18.428572,17.330620 20.500000,17.330620 23.857143,17.116334 C 18.641400,16.883261 12.673770,14.641654 10.642858,13.187763 C 12.059757,15.279939 13.642858,15.973477 13.642858,15.973477 z " style="marker:none" opacity=".49367085" color="#000" fill="url(#l)" fill-opacity="1" fill-rule="nonzero" stroke="none" stroke-width="1" stroke-linecap="butt" stroke-linejoin="miter" marker-start="none" marker-mid="none" marker-end="none" stroke-miterlimit="4" stroke-dasharray="none" stroke-dashoffset="0" stroke-opacity="1" visibility="visible" display="block" overflow="visible"/>
  <path style="marker:none" d="M 36.857142 14.071428 A 12.857142 5.5000000 0 1 1  11.142858,14.071428 A 12.857142 5.5000000 0 1 1  36.857142 14.071428 z" transform="matrix(0.271979,0.000000,0.000000,0.216619,17.27048,3.383220)" opacity="1" color="#000" fill="#fed496" fill-opacity="1" fill-rule="nonzero" stroke="url(#m)" stroke-width="4.1198664" stroke-linecap="butt" stroke-linejoin="miter" marker-start="none" marker-mid="none" marker-end="none" stroke-miterlimit="10" stroke-dasharray="none" stroke-dashoffset="0" stroke-opacity="1" visibility="visible" display="block" overflow="visible"/>
</svg>
