<?xml version="1.0" standalone="no"?>
<!--Created with Inkscape (http://www.inkscape.org/)-->
<svg xmlns="http://www.w3.org/2000/svg" xmlns:xlink="http://www.w3.org/1999/xlink" viewBox="0 0 48 48">
  <defs>
    <linearGradient id="f">
      <stop offset="0" stop-color="white" stop-opacity="1"/>
      <stop offset="1" stop-color="white" stop-opacity=".57939917"/>
    </linearGradient>
    <linearGradient id="c">
      <stop offset="0" stop-color="#fff" stop-opacity="1"/>
      <stop offset="1.0000000" stop-color="#d0d0d0" stop-opacity="1"/>
    </linearGradient>
    <linearGradient id="b">
      <stop offset="0" stop-color="#000" stop-opacity="1"/>
      <stop offset="1" stop-color="#000" stop-opacity="0"/>
    </linearGradient>
    <linearGradient id="a">
      <stop offset="0.0000000" stop-color="#000" stop-opacity=".19791669"/>
      <stop offset="1" stop-color="#000" stop-opacity="0"/>
    </linearGradient>
    <linearGradient id="e">
      <stop offset="0" stop-color="#f0f0f0" stop-opacity="1"/>
      <stop offset="1.0000000" stop-color="#ddd" stop-opacity="1"/>
    </linearGradient>
    <linearGradient id="d">
      <stop offset="0" stop-color="#0a0a0a" stop-opacity="1"/>
      <stop offset="1" stop-color="#0a0a0a" stop-opacity="0"/>
    </linearGradient>
    <radialGradient xlink:href="#a" id="m" cx="60.502419" cy="115.07005" fx="60.502419" fy="115.07005" r="56.111115" gradientTransform="matrix(1,0,0,0.213043,-2.766884e-16,90.55513)" gradientUnits="userSpaceOnUse"/>
    <linearGradient xlink:href="#b" id="l" x1="71.236717" y1="152.15218" x2="88.314011" y2="99.212555" gradientUnits="userSpaceOnUse" gradientTransform="matrix(0.368911,0,0,0.409902,1.019997,-3.067345)"/>
    <linearGradient xlink:href="#c" id="q" gradientUnits="userSpaceOnUse" x1="81.89402" y1="22.461552" x2="84.654594" y2="10.41062" gradientTransform="matrix(0.373185,0,0,0.36947,-1.509613,-0.729184)"/>
    <linearGradient xlink:href="#d" id="o" gradientUnits="userSpaceOnUse" gradientTransform="matrix(0.378019,0,0,0.366486,-1.594096,-1.346996)" x1="69.606209" y1="-2.7867124" x2="82.63073" y2="34.12973"/>
    <linearGradient xlink:href="#e" id="n" gradientUnits="userSpaceOnUse" x1="57.903072" y1="65.225105" x2="85.99958" y2="114.99323" gradientTransform="matrix(0.374016,0,0,0.37836,-1.630407,-0.678575)"/>
    <linearGradient xlink:href="#f" id="p" x1="7.9148936" y1="3.8297873" x2="7.9148936" y2="41.371349" gradientUnits="userSpaceOnUse"/>
    <linearGradient id="j">
      <stop offset="0" stop-color="#c9c9c9" stop-opacity="1"/>
      <stop offset="0.5" stop-color="#fff" stop-opacity="1"/>
      <stop offset="0.75" stop-color="#a5a5a5" stop-opacity="1"/>
      <stop offset="1" stop-color="#d4d4d4" stop-opacity="1"/>
    </linearGradient>
    <linearGradient id="i">
      <stop offset="0" stop-color="#fff" stop-opacity="1"/>
      <stop offset="1" stop-color="#fff" stop-opacity=".33725491"/>
    </linearGradient>
    <linearGradient id="k">
      <stop offset="0" stop-color="#ceba00" stop-opacity="1"/>
      <stop offset="1" stop-color="#f18200" stop-opacity="1"/>
    </linearGradient>
    <linearGradient id="g">
      <stop offset="0" stop-color="#9ec4f0" stop-opacity=".30653265"/>
      <stop offset="0.61764705" stop-color="#9ec4f0" stop-opacity=".3137255"/>
      <stop offset="1" stop-color="#9ec4f0" stop-opacity="1"/>
    </linearGradient>
    <linearGradient id="h">
      <stop offset="0" stop-color="#fff" stop-opacity="1"/>
      <stop offset="0.61764705" stop-color="#fff" stop-opacity="1"/>
      <stop offset="1" stop-color="#fff" stop-opacity="0"/>
    </linearGradient>
    <radialGradient xlink:href="#g" id="v" gradientUnits="userSpaceOnUse" gradientTransform="matrix(1.227473,-1.346632e-16,-1.162586e-16,1.227473,3.136218,-2.253726)" cx="-13.583885" cy="10.198135" fx="-13.583885" fy="10.198135" r="6.1843319"/>
    <radialGradient xlink:href="#h" id="w" gradientUnits="userSpaceOnUse" gradientTransform="matrix(1,-3.946765e-16,3.70401e-16,0.803279,3.60989e-16,0.985551)" cx="-5.3766184" cy="5.0098858" fx="-5.3766184" fy="5.0098858" r="4.372983"/>
    <radialGradient xlink:href="#h" id="x" gradientUnits="userSpaceOnUse" gradientTransform="matrix(1,-2.303795e-16,3.358905e-16,0.803279,8.51848e-15,0.985551)" cx="-5.3766184" cy="5.0098858" fx="-5.3766184" fy="5.0098858" r="4.372983"/>
    <linearGradient xlink:href="#i" id="u" gradientUnits="userSpaceOnUse" gradientTransform="matrix(1.285184,-1.287716,1.285184,1.287716,-0.476176,23.81808)" x1="4.0145416" y1="2.715862" x2="10.090094" y2="13.239027"/>
    <linearGradient xlink:href="#f" id="t" gradientUnits="userSpaceOnUse" x1="7.9148936" y1="3.8297873" x2="7.9148936" y2="41.371349" gradientTransform="matrix(1.188058,-1.190399,1.188058,1.190399,-0.339333,27.63195)"/>
    <linearGradient xlink:href="#j" id="s" gradientUnits="userSpaceOnUse" gradientTransform="matrix(1.919372,-1.919374,1.244767,1.244768,-5.343465,29.81732)" x1="6.9188247" y1="17.483641" x2="10.358043" y2="17.483641"/>
    <linearGradient xlink:href="#k" id="r" gradientUnits="userSpaceOnUse" gradientTransform="matrix(1.337261,-1.343742,1.337261,1.343742,-2.423637,22.84855)" x1="10.628082" y1="20.32057" x2="7.3931365" y2="20.264719"/>
  </defs>
  <metadata/>
  <path d="M 36.479999,47 L 47.999999,39.799995 L 30,36 L 36.479999,47 z " fill="url(#l)" fill-opacity="1" fill-rule="evenodd" stroke="none" stroke-width=".25pt" stroke-linecap="butt" stroke-linejoin="miter" stroke-opacity="1"/>
  <path style="marker:none" d="M 116.61353 115.07005 A 56.111115 11.954107 0 1 1  4.391304,115.07005 A 56.111115 11.954107 0 1 1  116.61353 115.07005 z" transform="matrix(0.374257,0,0,0.375482,-1.643478,0.304713)" opacity="1" color="#000" fill="url(#m)" fill-opacity="1" fill-rule="evenodd" stroke="none" stroke-width="2" stroke-linecap="round" stroke-linejoin="round" marker-start="none" marker-mid="none" marker-end="none" stroke-miterlimit="4" stroke-dasharray="none" stroke-dashoffset="0" stroke-opacity="1" visibility="visible" display="inline" overflow="visible"/>
  <path d="M 3.6381241,42.183118 C 4.3693547,30.869709 5.1005853,16.945515 3.5090833,3.543477 L 23.123274,1.5201175 C 26.564358,1.2807954 36.543511,4.9794104 36.543511,8.2428935 C 38.005971,22.03655 37.661861,34.785892 36.285427,46.490917 L 3.6381241,42.183118 z " fill="url(#n)" fill-opacity="1" fill-rule="evenodd" stroke="#bababa" stroke-width="1.01816666" stroke-linecap="round" stroke-linejoin="round" stroke-miterlimit="4" stroke-dasharray="none" stroke-opacity="1"/>
  <path d="M 24.65333,3.0742622 C 22.414428,6.3406944 23.110009,11.250879 25.370648,13 C 29.152871,9.1645772 31.696091,7.1625709 36,7.8790784 C 33.706755,4.844458 28.690962,2.5526868 24.65333,3.0742622 z " fill="url(#o)" fill-opacity="1" fill-rule="evenodd" stroke="none" stroke-width=".25pt" stroke-linecap="butt" stroke-linejoin="miter" stroke-opacity="1"/>
  <path d="M 4.6050865,41.395379 C 5.2943839,30.572095 5.9836814,17.251132 4.4834458,4.4297046 L 22.97284,2.494002 C 26.727951,2.265048 36.016642,5.8034297 35.623479,8.9255306 C 37.002072,22.121611 36.677695,34.318619 35.380195,45.516554 L 4.6050865,41.395379 z " fill="none" fill-opacity="1" fill-rule="evenodd" stroke="url(#p)" stroke-width=".96689165" stroke-linecap="round" stroke-linejoin="round" stroke-miterlimit="4" stroke-dasharray="none" stroke-opacity="1"/>
  <path d="M 22.352108,2.0552082 C 20.141837,5.3482383 20.828523,10.298406 23.060254,12.061771 C 26.79411,8.1951158 31.751128,7.069112 36,7.791454 C 35.023618,4.8595954 26.338108,1.5293855 22.352108,2.0552082 z " fill="url(#q)" fill-opacity="1" fill-rule="evenodd" stroke="none" stroke-width="1" stroke-linecap="butt" stroke-linejoin="miter" stroke-miterlimit="4" stroke-dasharray="none" stroke-opacity="1"/>
  <path style="marker:none" d="M 30.521006,37.425356 L 35.401695,32.521007 L 41.638128,38.787673 C 44.485197,41.648543 39.404621,46.352032 36.757438,43.692023 L 30.521006,37.425356 z " color="#000" fill="url(#r)" fill-opacity="1" fill-rule="nonzero" stroke="#834f06" stroke-width="1" stroke-linecap="round" stroke-linejoin="round" marker-start="none" marker-mid="none" marker-end="none" stroke-miterlimit="4" stroke-dasharray="none" stroke-dashoffset="0" stroke-opacity="1" visibility="visible" display="inline" overflow="visible"/>
  <path d="M 32.535232,38.095024 L 36.057425,34.570205 L 40.908492,39.42489 C 42.963104,41.481036 39.29666,44.861496 37.386298,42.949712 L 32.535232,38.095024 z " style="marker:none" color="#000" fill="none" fill-opacity="1" fill-rule="nonzero" stroke="#fff" stroke-width="1" stroke-linecap="round" stroke-linejoin="round" marker-start="none" marker-mid="none" marker-end="none" stroke-miterlimit="4" stroke-dasharray="none" stroke-dashoffset="0" stroke-opacity=".35678394" visibility="visible" display="inline" overflow="visible"/>
  <path style="marker:none" d="M 28.4838,36.125262 L 34.125262,30.4838 L 37.516201,33.87474 L 31.874741,39.516201 L 28.4838,36.125262 z " color="#000" fill="url(#s)" fill-opacity="1" fill-rule="nonzero" stroke="#505050" stroke-width="1" stroke-linecap="round" stroke-linejoin="round" marker-start="none" marker-mid="none" marker-end="none" stroke-miterlimit="4" stroke-dasharray="none" stroke-dashoffset="0" stroke-opacity="1" visibility="visible" display="inline" overflow="visible"/>
  <path style="marker:none" d="M 11.286542,13.826448 C 5.9862915,19.413547 6.0964497,28.263798 11.567676,33.745805 C 17.125746,39.314829 26.170924,39.314831 31.728995,33.745806 C 37.287066,28.176783 37.246907,19.154022 31.688835,13.585001 C 26.130761,8.0159795 17.125747,7.9757367 11.567676,13.54476 C 11.480831,13.631776 11.370673,13.737763 11.286542,13.826448 z M 13.214317,15.838505 C 13.314257,15.730446 13.430758,15.621638 13.535613,15.516575 C 18.009427,11.033946 25.247083,11.074188 29.720895,15.556818 C 34.194708,20.039446 34.234872,27.291361 29.761057,31.773991 C 25.287243,36.256621 18.009426,36.256621 13.535613,31.773991 C 9.1666546,27.396423 9.0501535,20.340952 13.214317,15.838505 z " color="#000" fill="url(#t)" fill-opacity="1" fill-rule="nonzero" stroke="#505050" stroke-width="1" stroke-linecap="round" stroke-linejoin="round" marker-start="none" marker-mid="none" marker-end="none" stroke-miterlimit="4" stroke-dasharray="none" stroke-dashoffset="0" stroke-opacity="1" visibility="visible" display="inline" overflow="visible"/>
  <path style="marker:none" d="M 11.837173,14.350309 C 6.8191402,19.639917 6.9234327,28.018928 12.103336,33.209038 C 17.36546,38.481531 25.929018,38.481531 31.191142,33.209038 C 36.453269,27.936542 36.415245,19.394212 31.153119,14.121719 C 25.890995,8.8492258 17.365463,8.8111249 12.103336,14.083621 C 12.021117,14.166003 11.916824,14.266347 11.837173,14.350309 z " color="#000" fill="none" fill-opacity="1" fill-rule="nonzero" stroke="url(#u)" stroke-width=".5" stroke-linecap="round" stroke-linejoin="round" marker-start="none" marker-mid="none" marker-end="none" stroke-miterlimit="4" stroke-dasharray="none" stroke-dashoffset="0" stroke-opacity="1" visibility="visible" display="inline" overflow="visible"/>
  <path style="marker:none" d="M -8.0092163 9.3271885 A 6.1843319 6.1843319 0 1 1  -20.37788,9.3271885 A 6.1843319 6.1843319 0 1 1  -8.0092163 9.3271885 z" transform="matrix(1.28544,-1.287972,1.28544,1.287972,27.88903,-6.602725)" color="#000" fill="url(#v)" fill-opacity="1" fill-rule="nonzero" stroke="none" stroke-width=".5" stroke-linecap="round" stroke-linejoin="round" marker-start="none" marker-mid="none" marker-end="none" stroke-miterlimit="4" stroke-dasharray="none" stroke-dashoffset="0" stroke-opacity="1" visibility="visible" display="inline" overflow="visible"/>
  <path style="marker:none" d="M -1.0036354 5.0098858 A 4.372983 3.5127239 0 1 1  -9.7496014,5.0098858 A 4.372983 3.5127239 0 1 1  -1.0036354 5.0098858 z" transform="matrix(0.840084,-1.457935,1.455068,0.841739,14.01537,9.825286)" opacity=".57213931" color="#000" fill="url(#w)" fill-opacity="1" fill-rule="nonzero" stroke="none" stroke-width=".5" stroke-linecap="round" stroke-linejoin="round" marker-start="none" marker-mid="none" marker-end="none" stroke-miterlimit="4" stroke-dasharray="none" stroke-dashoffset="0" stroke-opacity="1" visibility="visible" display="inline" overflow="visible"/>
  <path style="marker:none" d="M -1.0036354 5.0098858 A 4.372983 3.5127239 0 1 1  -9.7496014,5.0098858 A 4.372983 3.5127239 0 1 1  -1.0036354 5.0098858 z" transform="matrix(0.465624,-0.808071,0.806482,0.466541,26.21217,20.38854)" opacity=".38308459" color="#000" fill="url(#x)" fill-opacity="1" fill-rule="nonzero" stroke="none" stroke-width=".5" stroke-linecap="round" stroke-linejoin="round" marker-start="none" marker-mid="none" marker-end="none" stroke-miterlimit="4" stroke-dasharray="none" stroke-dashoffset="0" stroke-opacity="1" visibility="visible" display="inline" overflow="visible"/>
</svg>
