<?xml version="1.0" encoding="UTF-8" standalone="no"?>
<!-- Created with Inkscape (http://www.inkscape.org/) -->

<svg
   version="1.1"
   viewBox="0 0 3333.3333 3333.3333"
   sodipodi:docname="svg.svg"
   inkscape:version="1.1.2 (0a00cf5339, 2022-02-04)"
   id="svg916"
   xmlns:inkscape="http://www.inkscape.org/namespaces/inkscape"
   xmlns:sodipodi="http://sodipodi.sourceforge.net/DTD/sodipodi-0.dtd"
   xmlns="http://www.w3.org/2000/svg"
   xmlns:svg="http://www.w3.org/2000/svg">
  <defs
     id="defs6" />
  <sodipodi:namedview
     id="namedview4"
     pagecolor="#ffffff"
     bordercolor="#666666"
     borderopacity="1.0"
     inkscape:pageshadow="2"
     inkscape:pageopacity="0.0"
     inkscape:pagecheckerboard="0"
     showgrid="false"
     inkscape:zoom="0.26970001"
     inkscape:cx="1666.6666"
     inkscape:cy="1666.6666"
     inkscape:window-width="3440"
     inkscape:window-height="1369"
     inkscape:window-x="0"
     inkscape:window-y="34"
     inkscape:window-maximized="1"
     inkscape:current-layer="g8" />
  <g
     id="g8"
     inkscape:groupmode="layer"
     inkscape:label="ink_ext_XXXXXX"
     transform="matrix(1.3333333,0,0,-1.3333333,0,3333.3333)">
    <g
       id="g10"
       transform="scale(0.1)">
      <path
         d="M 25000,25000 V 0 H 0 v 25000 h 25000"
         style="fill:#ffffff;fill-opacity:1;fill-rule:nonzero;stroke:none"
         id="path12" />
      <path
         d="m 7767.1,4405.8 c 3.13,120.2 43.72,243.2 174.05,329.1 -52.76,-285.4 14.6,-487.4 123.85,-627.1 64.12,-82 155.22,-131 194.14,-131 38.91,0 -341.07,441.3 37.52,825.1 10.61,10.8 31.63,25.8 31.63,25.8 124.57,-0.5 291.51,-1.6 323.2,-3.5 393.91,-22.5 600.87,-149.2 507.19,-553.3 -43.16,-186.2 -190.94,-356.3 -626.14,-354.4 -667.99,2.9 -771.83,242.9 -765.44,489.3 z M 4083.23,1294 c 365.95,-128 1270.08,-393.5 1797.61,-453.898 146.71,-16.801 186.87,-3.204 338.43,422.398 192.17,539.8 405.64,1080.7 727.05,1861 250.24,607.6 328.12,659.1 1086.85,674.2 914.55,18.3 1101.37,-44.1 1387.78,764.6 42.39,119.7 103.7,235.4 238.59,266.5 27.46,6.3 1041.16,1.7 1375.86,1.8 40.1,0 66.3,38.5 81.9,86.4 1185.6,0.4 2081.2,0.6 2104.3,0.6 65.7,0.1 93.6,14.9 105.4,135.2 32.2,15.6 54.5,48.5 54.5,86.6 l -0.4,1046.4 c 0,35.1 -18.9,65.8 -46.9,82.5 -6.9,101 -45.7,126.1 -104.5,126.1 -64.8,0 -86.4,0 -86.4,0 0,0 -51.9,64.8 -112.5,64.8 -60.5,0 -112.4,-64.9 -112.4,-64.9 l -3506.67,-1.1 -164.27,-64.9 -994.51,-0.3 -172.98,64.8 c 0,0 -1636.38,0.9 -2295.99,0.5 -30.02,0 -37.84,64.8 -73.54,64.8 -17.3,0 -20.55,38.9 -20.55,38.9 -20.25,-0.1 -39.73,-0.1 -58.39,-0.1 0,0 -6.46,-38.9 -29.15,-38.9 -24.68,0 -47.78,-65 -69.14,-65 -91.78,-0.2 -151.25,-0.5 -164.39,-0.8 0,0 -79.93,-47.9 -168.01,-337.3 -12.9,-42.4 -32.22,-93.3 -40.07,-121.6 -160.88,-67.9 -293.94,68.5 -372.61,134.6 -78.71,66.1 -188.26,74 -249.36,38.4 -207.51,-121.2 199.42,-182.9 346.05,-427.8 142.42,-237.9 168.71,-256.3 138.48,-363.3 -61.85,-219 -259.34,-225 -517.46,-281.5 -373.75,-81.7 -448.59,-439.2 -169.82,-430.5 505.89,15.8 914.53,-55.5 752.55,-602.3 C 4928.53,3460.6 4098.87,2500 3986.8,1890.4 c -47.24,-257 -112.42,-523.3 96.43,-596.4"
         style="fill:#37404f;fill-opacity:1;fill-rule:nonzero;stroke:none"
         id="path14" />
      <path
         d="m 17295.5,6637.5 c 0,412.3 223.2,575.2 916.9,577.6 45.3,-85.4 351.6,-714.5 -292.3,-988.2 -13.2,-5.6 -1.7,-47.9 12.7,-47.4 247.3,7.7 525.4,220.3 599.8,555.1 l 37.5,4.6 c 27.6,3.2 43.3,25.8 43.9,55.9 0.4,17.8 -4.3,138.9 -17.6,246.6 44.3,31 73.4,82.2 73.8,140.3 345.8,-66.1 456.4,-235 456.4,-544.5 0,-337.2 -245.8,-591.5 -898.8,-591.5 -652.9,0 -932.3,265 -932.3,591.5 z m -4825.2,2033.9 c 0,-149.8 40.4,-288.7 59.5,-288.7 h 271.1 34.3 38.5 l 0.6,-95.1 v 0 l 0.6,-109.2 v 0 0 l 0.3,-44.2 v -2.9 0 l 2.5,-419 c 9.5,-60.4 45.9,-120.8 89.6,-121.8 19.4,-0.4 395,-0.6 559.8,-0.6 v 0 h 26.2 c 4.7,0 9.2,0 13.3,0 h 41.1 c 1.8,-10.1 3.8,-19.8 5.8,-28.5 13.7,-36.1 41.1,-93.9 75.7,-93.9 h 2883.2 c 411,0 628.2,-416.9 622.8,-801.1 -4.4,-317 -4.4,-403.6 -10.2,-564.7 374.5,-52.8 555.8,-137.1 904.7,-149.3 292.4,-10.3 526.2,2.8 763.2,47.5 315.9,59.5 661.7,64.7 889,-620.3 196.9,-593.8 299.1,-952 426.3,-1551.8 90.9,-428.1 26.9,-696.9 186.1,-688.3 1.1,0 2.3,0.1 3.4,0.1 h 0.1 c 5.5,-67.9 10.2,-124.6 11.5,-140.5 3.8,-47.1 30.2,-70 76.7,-64.4 1396.6,167.5 1703.5,203.9 1838.8,233.9 27.2,6 44.7,24.3 52.6,48.1 30.3,-97.1 131.2,-157.8 234,-138.6 111.5,21 184.8,128.8 164.3,240.4 -6.2,33.7 -12.5,62.3 -18.9,86.7 v 0 c 98.4,92.3 95.9,224.8 47,576.3 -128.2,920.4 -497.4,1436.4 -1009.2,2440 -223.5,438.1 -176.2,999.5 296.2,1028.4 334.1,20.5 356.3,23 358.2,128.7 1.2,66.3 -26.6,76.5 -232.9,144.2 -212.7,69.8 -253.1,284.9 -293.9,490.3 -7.2,36.2 -15.5,126.6 -41.6,241.5 l 22.9,16.5 c 0,0 164.5,201.1 166.7,203.9 2.3,2.7 9.8,10.7 11.7,12.4 31.6,30 51.4,72.5 51.4,119.6 0,90.9 -73.7,164.7 -164.7,164.7 -16.2,0 -31.9,-2.4 -46.7,-6.8 -3,-0.9 -14.2,-4.5 -16.4,-5.1 -187,-53.9 -178,75.4 -247.2,50.4 0.1,-0.2 0.2,-0.3 0.3,-0.5 -7.2,-1.2 -15.3,-2.5 -24,-3.9 -1,1.4 -2,3 -2.9,4.4 -31.6,48.3 -58.3,85.7 -73.1,106.1 -7.8,10.7 -20.2,17 -33.5,17 l -133.6,0.5 c -6.8,69.9 -16.1,165.6 -16.1,165.9 -0.7,7.1 -6.6,12.5 -13.8,12.5 h -220.9 c -12.8,0 -23.1,-8.3 -27.8,-19.4 -1,-2.4 -39.1,-90.9 -67.8,-157.6 l -2492.3,9.6 -27.9,-71.9 h -4890.7 l -42.5,71.9 c 0,0 -72.1,0 -166.2,0 -51,60.9 -120.4,138.3 -143.8,138.3 -206,0 -284.1,-94.9 -309.9,-140.9 -43.2,-10 -55.5,-51.6 -61.8,-145 l 0.2,-37.2 h -35 v 0 h -305.4 c -19.1,0 -59.5,-138.9 -59.5,-288.6"
         style="fill:#37404f;fill-opacity:1;fill-rule:nonzero;stroke:none"
         id="path16" />
      <path
         d="m 15807.6,14556 c -148.5,115.7 -246,294.4 -251.2,497.2 -9.5,359.9 274.6,659.3 634.4,668.7 2.9,0 5.8,-0.3 8.7,-0.3 l -2.8,-600.7 c -170.5,-64 -294.4,-185.6 -236.1,-410.2 -78.6,-42.2 -125.4,-98.6 -153,-154.7 z m 1704.3,-3745.3 c 359.4,100.2 634.8,518 675,656.9 12.6,43.3 -131.9,150 -145.5,161.3 48,-0.6 101.6,32 139.5,52.3 65.7,35 108.7,75 130.8,145.6 108.3,345.8 124.7,551.7 70.6,626 -40.4,55.6 -103.7,103.7 -164.3,142.1 38.8,33.1 89.4,106.1 96.5,174.5 1.1,9.2 1.3,18.3 0.6,27.1 -6.5,81.2 -16.1,159.5 -27.7,228.8 -21,126.4 -59,267.2 -84.6,295.4 -34.9,38.9 -194.3,122.1 -194.3,123.1 49.9,38.7 117.4,155.2 100.3,204 -90.5,258.6 -330.6,555.5 -689.1,681.8 87.9,285.2 -213,389.8 -216.1,391.1 37,154.3 -36.4,344.9 -240.3,399.4 v 0 l -8.4,322.8 -10.3,399.9 -28.1,1075.6 c -3.9,151.9 -129.1,272.5 -281,270.8 l -155.4,-1.7 c -151.8,-1.7 -274.2,-124.9 -274.9,-276.7 l -5.2,-1080.5 v -0.2 c -24.8,2.3 -49.9,3.6 -75.4,3.3 -410.1,-4.5 -738.9,-340.8 -734.3,-750.8 3.1,-276.6 157.4,-515.8 383.2,-641 -0.1,-0.2 -0.1,-0.4 -0.1,-0.6 -7.9,-59.8 0.1,-103.6 0.6,-105 -497.1,-268 -602.1,-581.3 -611.5,-765.7 26.6,-48.4 105.4,-87.6 143.3,-103.7 -25.2,-19 -172.7,-68.2 -224.6,-123.8 -53.8,-57.5 -93.2,-578.6 -68.2,-593.8 38,-23.2 197.7,-145.6 201.4,-146.7 -95.4,-41.3 -193.8,-85 -251.4,-173.4 -44.1,-67.8 -4.9,-556 81.8,-632.2 67,-59 172.4,-120.1 253.8,-156.1 -15.8,-14.9 -157.4,-107.9 -154.1,-131.1 0.7,-4.4 1.3,-8.7 2.1,-13.1 -0.1,-0.1 -0.2,-0.1 -0.2,-0.1 0.1,-0.7 0.4,-1.5 0.6,-2.2 110.6,-477 590.8,-656.8 605.2,-651.6 -4.5,-39.2 8.1,-183.6 33.3,-267.2 10.2,-33.6 36.8,-58.7 70.5,-68.6 89.3,-26.4 320.3,-76 797.1,-76 449.3,0 665.5,38.3 756.2,62 37.5,9.7 66,39.9 74.2,77.8 19.6,90 29.4,228.4 28.4,240.2"
         style="fill:#37404f;fill-opacity:1;fill-rule:nonzero;stroke:none"
         id="path18" />
      <path
         d="m 16941.2,15842.5 c 0,0 170.9,17.9 230.4,-157.7 55.3,-163.1 335.5,-599.2 422.6,-732.8 15.4,-23.7 41.1,-37.1 69.3,-37.9 55.8,-1.6 152.6,-17.6 213.4,-101.4 49,-67.7 62.7,-169.6 39.7,-245.5 -6.7,-22.1 -8.2,-45.3 1.8,-66.2 52.3,-109.4 244.5,-437.1 438.9,-664 10.1,-11.8 23.6,-20 38.2,-25.4 95.4,-35.5 137.3,-91.4 156.4,-202.1 17.3,-99.8 -37.2,-192.2 -64.6,-231 -9.4,-13.4 -15.3,-28.9 -16.5,-45.4 l -47.3,-668.9 c 0,0 -114.4,9.4 -130.7,208.6 -9.5,115.7 -5,306.9 2,482.4 1.3,32.8 13.3,64.1 34.6,89.1 20.1,23.6 40.3,64.7 30,130.7 -9.7,61.7 -60.4,97.6 -93.7,114.9 -21.6,11.3 -39.6,27.7 -53.3,47.8 l -466.3,687.5 c -12.5,18.3 -20.4,39.4 -21.5,61.6 -2.1,41.8 -13.7,120.1 -66.8,185.1 -42.6,52.1 -96.8,70.6 -136.6,76.7 -36,5.5 -67,25.9 -86.3,56.7 -83.4,132.9 -283.3,412 -433.9,588.4 -27.5,32.3 -248.2,-3.4 -286.3,17.6 -36.9,20.3 296.6,273.5 196.8,281.3 -99.8,7.8 -122,187.4 -122,187.4 l 151.7,-37.5"
         style="fill:#37404f;fill-opacity:1;fill-rule:nonzero;stroke:none"
         id="path20" />
      <path
         d="m 7427.56,12196 c -208.17,-156.8 -507.55,-259 -829.87,-276.6 -53.56,-3 -106.1,-4.2 -156.23,-4.2 -642.24,0 -985.5,240.2 -1020.13,714.3 -17.92,243.4 64.83,419.2 270.38,542.8 16.31,9.6 33.62,19.3 51.34,28.4 141.69,72.3 333.59,124.4 578.91,160 13.92,-11.4 29.68,-23.9 44.59,-35 -0.32,-0.1 -0.7,-0.1 -1.03,-0.2 12.47,-14.3 28.72,-24.7 47.63,-29.9 158.06,-44.4 580.11,-188.7 701.87,-495.5 111.09,-279.4 -60.99,-549.2 -140.24,-652.2 -18.03,-23.7 -10.9,-58.3 15.15,-72.4 6.89,-3.9 14.69,-5.7 22.03,-5.7 9.35,0 18.47,2.8 26.26,8.2 89.49,62.1 393.34,308.5 295.17,732.6 -30.27,129.4 -60.76,210.6 -84.14,260 -23.37,49.3 -20.92,107.3 7.12,154.2 l 55.54,82 c 224.51,-102.6 354.52,-291.1 393.48,-568.4 14.3,-99.4 -5.44,-199.9 -56.37,-295.1 l -14.3,-25 c -14.69,-24.7 -31.81,-49.1 -50.93,-73.1 -43.08,-53.7 -95.83,-103.8 -156.23,-149.2 z m 4027.64,-1921.4 c -3.2,18.5 -10.4,51.7 -20.7,93.8 -87.8,364.8 -247.7,794.3 -378.4,1070.5 -130.6,276 -487.3,1039 -487.3,1039 -23.6,53.6 -35.1,110.1 -35.1,166.3 0,96.4 33.6,191.9 97.9,267.4 144.9,169.9 323.3,272.6 543.3,284.2 l 153.2,8.3 c 48.4,2.8 92,31 114.8,74.9 31.2,60.4 15.3,135.3 -37.7,177.4 l -483.9,338.4 -6.3,4.4 -2.6,1.8 c -1,9.4 -111.3,235.4 -111.3,235.4 -3.4,6.6 -7.2,13.4 -10.7,20.1 41.9,95.7 103.8,251.2 103.8,332.8 0,11.5 0.3,23.3 -1,35.3 -14,138.2 -141.4,238.6 -282.8,222 -87,-10.4 -159,-65.8 -195.4,-139.4 -5.1,3.4 -9.8,7.1 -15,10.3 -34.8,21.8 -71.5,40.7 -110.1,56.2 -17.1,6.9 -30.6,16.5 -41.9,28.8 -12.7,13.5 -22.5,30 -31.6,48.7 l -70.7,146.2 -8.6,17.9 -18.7,38.8 c -7.5,15.8 -23.2,25.8 -20.2,25.8 h -186.8 -41.48 l -13.48,20.6 -51.75,78.5 c -7.65,11.9 -20.73,18.9 -34.63,18.9 h -44.75 v 68.3 c 0,9.3 -7.38,16.9 -16.48,16.9 h -62.95 c -9.11,0 -16.48,-7.6 -16.48,-16.9 v -68.3 h -44.76 c -13.89,0 -26.98,-7 -34.63,-18.9 l -51.74,-78.5 -13.49,-20.6 h -30.4 -6630.78 c -57.38,0 -96.44,-26.9 -110.93,-64.6 -2.41,-5.6 -4.03,-11.6 -5.03,-17.9 -1.21,-5.7 -1.61,-11.3 -1.61,-17.1 v -33.8 h -19.74 -34.02 c -20.54,0 -37.65,-15.7 -39.46,-36.7 -4.23,-46.3 -10.27,-139.5 -10.27,-294.3 0,-158.1 6.24,-257.1 10.47,-306 1.82,-21 18.93,-37.1 39.46,-37.1 h 57.58 19.93 c 4.43,-25.6 9.87,-51.1 15.71,-76.5 l 3.22,-13.9 44.49,-191.4 c 10.47,-45.3 49.53,-76.7 94.83,-76.7 h 216.62 c 57.18,-47.9 128.86,-76.6 204.35,-80.2 l 240.99,-11 c 287.29,-13.5 572.78,-91.8 805.71,-222.5 21.14,-11.7 41.68,-24 61.61,-36.4 v -0.3 l 14.1,-39 c 25.56,-58 70.26,-101.3 125.02,-123.8 14.7,-6.5 30.6,-10.9 46.5,-13.7 l 83.96,-14.7 2.62,-0.6 c 196.69,-34.6 357.35,-176 425.2,-367.8 38.05,-106.9 88.99,-210.6 166.29,-387.4 189.46,-433.3 571.98,-625.5 1127.24,-611 346.28,9 847.79,51.1 1215.21,80.3 75.7,5.9 145.56,11.3 207.57,15.7 32.81,2.2 64.83,3.2 96.24,2.7 296.55,-4.7 523.45,-139.2 594.11,-419 l 454.64,-1716.8 c 11.85,-44.7 52.31,-75.9 98.57,-75.9 h 3.43 v -56.7 h -124.49 c -52.52,0 -95.09,-43.5 -95.11,-97.1 l -0.01,-47.1 c -0.01,-27.7 21.9,-50.1 48.92,-50.1 h 1954.28 c 49.8,0 86.9,46.9 76.6,96.7 l -18.7,89.9 v 64.4 h 55.3 95.9 c 78.7,0 153,25.2 214.6,69.1 61.4,43.9 110.1,106.5 137.3,182 32.8,90.6 49.8,224.3 32.4,331"
         style="fill:#37404f;fill-opacity:1;fill-rule:nonzero;stroke:none"
         id="path22" />
      <path
         d="m 3013.12,13859.3 h -212.67 l -28.09,118.2 h 64.87 c 76.45,0 145.57,-46.5 175.89,-118.2"
         style="fill:#37404f;fill-opacity:1;fill-rule:nonzero;stroke:none"
         id="path24" />
      <path
         d="m 19752.1,18530.2 c 0,-137.4 -74.6,-264 -194.9,-330.5 -136.5,-75.5 -290.2,-115.2 -446.4,-115.2 h -747.3 c -77.5,0 -140.5,62.7 -140.5,140.4 v 457.4 c 0,34.7 4.4,68.5 12.5,100.7 109.1,33.4 189,134.1 190.8,253.7 60.8,35.8 131.9,56.5 207.6,56.5 h 352.5 c 86.4,0 173.1,-5.8 258.9,-17 l 13.4,-1.7 c 66.1,-205.2 124,-550.4 -104.9,-802.6 -294.1,-324 524.1,-54 463.5,670.2 83.4,-79.8 134.8,-192.2 134.8,-315.5 z m 3484.3,872.8 -584,94.6 c -68.5,11 -129.3,46.3 -172.5,97.7 l -132.3,513.6 c 111,198.4 228.5,308.9 309.7,367 58,41.6 81.7,116.4 57.4,183.5 -29.3,80.9 -117.6,123.7 -199.3,96.7 -101,-33.3 -242.3,-74.6 -383.2,-98.5 -2.9,3.7 -5.7,7.4 -8.8,10.9 l -345,428.2 -9.2,11.4 h -152.9 v 270.7 c 0,8.7 -7.5,15.6 -16.2,14.7 l -85.1,-8.1 c -74.8,-7.1 -144.8,-40.1 -198,-93.2 l -184.3,-184.1 h -539.3 l -115,62.1 h -1643.7 v -62.1 h -1734.2 l -6,-15.4 -5.9,-15.5 -24.6,-63.3 h -177.8 l -24.5,63.3 -6,15.5 -5.9,15.4 h -2388.9 l -5.9,-15.4 -6,-15.5 -24.3,-63.3 h -178.2 l -24.4,63.3 -5.9,15.5 -5.9,15.4 h -814.7 l -285.1,185.2 c -31.6,20.4 -70.5,26.2 -106.6,15.8 -57.2,-16.5 -95.9,-69.8 -93.7,-129.3 l 2.6,-71.7 H 12738 c -34.6,0 -63.8,-24.8 -69.5,-58.8 l -9,-53.6 c -6.8,-40.1 -4.4,-82 6.8,-121.3 l 7.2,-25.5 v -387.6 c 0,-124 25.7,-244 76.4,-357.3 l 60.6,-134.7 14,-31 213.6,-476.2 8.1,-18.2 h 638 v -66.1 c 0,-0.1 0,-0.2 0,-0.2 v -37.8 l 51.7,-148.5 h 212.7 l 43.9,113.6 h 201.6 l 43.9,-113.6 h 249.8 l 43.9,113.6 h 201.6 l 43.8,-113.6 h 249.8 l 43.9,113.6 h 201.6 l 43.9,-113.6 h 249.8 l 43.9,113.6 h 201.6 l 43.9,-113.6 h 249.8 l 43.9,113.6 h 201.5 l 43.9,-113.6 h 249.8 l 43.9,113.6 h 201.6 l 43.9,-113.6 h 249.8 l 43.9,113.6 h 179.1 c 7,0 14,0 21,-0.4 l 43.8,-113.2 v 0 c 291.2,0 532.3,-226.5 550.4,-517.3 l 1.7,-28.2 v 0 l 1.1,-280.4 c 0.5,-88.2 -21,-175.4 -62.5,-253.3 -12.5,-23.5 -18.2,-48.3 -18.2,-72.4 0,-80.5 64.5,-154.3 154,-154.7 l 244.5,-1.3 h 827.2 c 153.2,0 305.1,30.9 446.2,91 l 7.7,3.3 c 126.8,53.8 271.2,-22.1 298.4,-157.1 l 356.2,-1760.6 c 16.3,-79.9 17.8,-162.2 4.4,-242.5 l -53.5,-324.2 c -5.5,-32.9 14,-63.6 44.3,-73.7 v -41.4 l -86.6,8.7 c -29.3,2.8 -54.6,-20.1 -54.6,-49.5 v -23.4 c 0,-24.9 18.5,-45.9 43.2,-49.2 l 444.4,-58.7 h 1639.8 c 27.5,0 49.7,22.2 49.7,49.7 v 20.8 43.1 c 0,12.6 0,26.8 0,41.5 h 78.9 l 189,42.4 c 46.5,10.5 87.6,37.5 115.7,75.9 25,34.5 56.6,77.9 83.1,113.9 31,42.1 49.8,92 54.5,144 0.6,6.3 1.1,12.7 1.1,19.1 v 1.5 l -0.7,14.3 -6.4,123.8 c -25.4,480.4 -136,952.7 -327.4,1394.2 -102.1,235.8 -215.1,499.1 -309.5,725.8 -51.3,123.2 -75.7,246.1 -76.8,362.8 v 15.6 c 0,5.1 0,10.3 0.2,15.6 10.4,415.9 316.7,750.8 756.8,750.8 v 0.2 l 344.3,-8.3 c 66.3,-1.6 125.3,47.2 131.7,113.2 6.6,67.8 -41.3,127.3 -107.3,136.7"
         style="fill:#37404f;fill-opacity:1;fill-rule:nonzero;stroke:none"
         id="path26" />
      <path
         d="m 9068.27,22589.9 h 378.48 c 14.1,0 25.54,11.4 25.54,25.5 v 26.5 c 0,14 -11.44,25.5 -25.54,25.5 h -378.48 c -14.11,0 -25.54,-11.5 -25.54,-25.5 v -26.5 c 0,-14.1 11.43,-25.5 25.54,-25.5"
         style="fill:#37404f;fill-opacity:1;fill-rule:nonzero;stroke:none"
         id="path28" />
      <path
         d="m 8127.51,22589.9 h 378.48 c 14.11,0 25.54,11.4 25.54,25.5 v 26.5 c 0,14 -11.43,25.5 -25.54,25.5 h -378.48 c -14.11,0 -25.54,-11.5 -25.54,-25.5 v -26.5 c 0,-14.1 11.43,-25.5 25.54,-25.5"
         style="fill:#37404f;fill-opacity:1;fill-rule:nonzero;stroke:none"
         id="path30" />
      <path
         d="m 10009,22589.9 h 378.5 c 14.1,0 25.6,11.4 25.6,25.5 v 26.5 c 0,14 -11.5,25.5 -25.6,25.5 H 10009 c -14.08,0 -25.52,-11.5 -25.52,-25.5 v -26.5 c 0,-14.1 11.44,-25.5 25.52,-25.5"
         style="fill:#37404f;fill-opacity:1;fill-rule:nonzero;stroke:none"
         id="path32" />
      <path
         d="m 4155.49,21853.3 c 37.98,0 68.76,30.8 68.76,68.7 0,38 -30.78,68.8 -68.76,68.8 -37.97,0 -68.75,-30.8 -68.75,-68.8 0,-37.9 30.78,-68.7 68.75,-68.7"
         style="fill:#37404f;fill-opacity:1;fill-rule:nonzero;stroke:none"
         id="path34" />
      <path
         d="m 4173,21723.3 c 431.27,154.2 714.85,414 930.03,766 -3.79,11.8 -7.36,22.9 -9.82,30.5 -126.87,-210.5 -277.29,-388.9 -468.4,-531.6 -32.3,-24.1 -65.74,-47.2 -100.47,-69.3 -65.91,-41.9 -136.21,-80.2 -211.6,-114.6 -52.56,-24.1 -108.04,-45.9 -165.66,-66.2 8.09,-4.6 16.68,-9.5 25.92,-14.8"
         style="fill:#37404f;fill-opacity:1;fill-rule:nonzero;stroke:none"
         id="path36" />
      <path
         d="m 7102.59,20428.7 c 0.19,-1.4 0.38,-2.2 0.62,-2.3 0.23,0 0.49,0.8 0.77,2.4 h -1.44 c 0.02,-0.1 0.03,0 0.05,-0.1"
         style="fill:#37404f;fill-opacity:1;fill-rule:nonzero;stroke:none"
         id="path38" />
      <path
         d="m 5116.42,20040.3 c -12.77,5.9 -25.81,11.8 -39.48,17.8 -134.34,59.7 -301.55,134 -449,340.3 -62.96,88.2 -115.57,215.7 -176.49,363.4 -117.56,285 -258.21,623.5 -539.23,823.5 l -27.24,-24 c 278.04,-194.4 417.9,-530.2 534.43,-812.7 61.74,-149.7 115.06,-278.9 180.33,-370.3 152.93,-214.1 324.94,-290.5 463.14,-351.8 15.59,-6.9 30.29,-13.7 44.68,-20.4 l 8.86,34.2"
         style="fill:#37404f;fill-opacity:1;fill-rule:nonzero;stroke:none"
         id="path40" />
      <path
         d="m 7103.21,20426.4 c -0.24,0.1 -0.43,0.9 -0.62,2.3 -0.02,0.1 -0.03,0 -0.05,0.1 h 1.44 c -0.28,-1.6 -0.54,-2.4 -0.77,-2.4 z m -503.89,-880.6 c -186.76,-271.5 -695.01,-320.5 -934.05,-327.1 -247.83,-6.8 -415.13,96.1 -497.39,295.9 -78.51,190.7 -91.09,352.2 -38.04,481.1 l 14.58,31.5 c 1.74,3.3 3.31,6.8 5.16,10.1 9.91,17.9 21.31,34.9 34.02,51.1 l 37.91,-39.5 c 138.5,-146.2 339.53,-114.2 339.53,-114.2 0,0 6.02,-211.5 166.91,-404.1 138.17,-165.3 488.75,-182.8 325.59,-95.7 -304.58,162.5 -323.27,407.3 -296.47,583.3 26.71,175.4 148.03,134.2 122.66,251 l -5.52,50.6 c 75.87,5.1 144.9,7.6 207.86,7.6 201.55,0 346.66,-26.5 443.66,-81.1 105.82,-59.7 172.55,-169.3 172.55,-300.3 0,-174.6 -23.46,-290.4 -98.96,-400.2 z m 1502.65,3096.1 c 0,14 11.43,25.5 25.54,25.5 h 378.48 c 14.11,0 25.54,-11.5 25.54,-25.5 v -26.5 c 0,-14.1 -11.43,-25.5 -25.54,-25.5 h -378.48 c -14.11,0 -25.54,11.4 -25.54,25.5 z m 940.76,0 c 0,14 11.43,25.5 25.54,25.5 h 378.48 c 14.1,0 25.54,-11.5 25.54,-25.5 v -26.5 c 0,-14.1 -11.44,-25.5 -25.54,-25.5 h -378.48 c -14.11,0 -25.54,11.4 -25.54,25.5 z m 940.75,0 c 0,14 11.44,25.5 25.52,25.5 h 378.5 c 14.1,0 25.6,-11.5 25.6,-25.5 v -26.5 c 0,-14.1 -11.5,-25.5 -25.6,-25.5 H 10009 c -14.08,0 -25.52,11.4 -25.52,25.5 z m 1454.12,-252.5 c -9.4,22.6 -31.5,37.2 -56,37.5 h -9.5 v 54.7 85.5 136.9 c 0,0 0,36.6 0,71.6 0,27.1 0,53.3 0,61.2 0,10.1 -16.1,54.4 -30.4,91.6 -12.6,33 -44.3,54.8 -79.7,54.8 h -93.6 c -61.8,0 -123.3,-10.2 -181.8,-30.2 l -647.3,-177.4 H 7651.55 c -0.16,0 -0.33,0.1 -0.51,0.1 H 5610.22 l -139.28,198.1 h -180.29 v -199.5 c -24.14,-4.3 -45.13,-19.9 -56.04,-42.5 -24.47,-50.6 -49.83,-99.7 -76.18,-147.3 l -37.81,-10.4 c -47.73,-50.8 -218.27,-216 -387.44,-164.5 -199.3,60.6 -141.83,35.7 -263.13,165.7 -58.52,62.6 -246.15,71.7 -393.29,77.3 -54.24,2 -68.58,-73.8 -17.57,-92.2 91.92,-33.1 192.08,-73.7 249.39,-117.9 147.31,-113.7 210.85,-93.6 214.03,-225.9 2.66,-110 -3.93,-182 -12.36,-228.4 h -169.78 c -27.15,75.9 -99.71,130.2 -184.98,130.2 -108.48,0 -196.4,-87.9 -196.4,-196.4 0,-61.8 28.59,-117 73.25,-153 l -10,-71.4 c 0,0 -3.46,-12.2 -6.82,-23.9 -50.26,-13.9 -102.11,-26.8 -156.09,-38.2 -4.89,-1 -11.48,-2.3 -18.73,-3.7 l -54.74,-9.9 c -30.43,-5.4 -65.21,-11.4 -97.96,-16.9 -67.65,-11.4 -115.12,-72.9 -109.03,-141.2 4.33,-48.5 10.22,-112.9 18.08,-196.1 31.32,-331.2 -506.39,-643 -972.29,-1820.5 -474.57,-1199.4 -396.87,-1830.4 619.62,-1830.4 l 748.03,31.1 c 42.35,1.8 71.97,41.9 62.07,83.1 -14.29,59.6 -21.86,121.8 -21.86,185.8 0,160 47.39,308.9 128.9,433.6 27.4,41.9 33.04,94.3 16.7,141.6 -20.09,58.1 -30.99,120.5 -30.99,185.4 0,135.5 47.46,259.8 126.69,357.3 11.23,13.9 14.45,32.6 8.93,49.6 -13.55,41.6 -20.95,86 -21.05,132.1 -0.58,231.1 194.11,428.6 425.17,431.2 154.74,1.7 290.91,-78.4 368.03,-199.7 0.12,-0.1 0.17,-0.2 0.24,-0.4 166.26,-236.8 350.93,-324.9 593.04,-307.5 365.68,26.3 1147.28,32.1 1136.71,816.7 -2.42,178.9 398.08,274.9 729.16,283.4 27.58,0.7 50.47,21.5 54.05,48.8 l 60.97,465.6 114.24,286.7 28.88,238.1 v 41.5 c 972.61,0.8 3026.31,2.5 3455.31,2.8 44.8,0.1 81.8,34.8 84.6,79.5 l 21.7,340.6 v 45.1 h 25.5 c 25.1,0.1 47.7,15.4 57,38.8 27.1,68.5 66.3,192.9 66.3,319 0,111.8 -24.8,194.2 -45.1,242.8"
         style="fill:#37404f;fill-opacity:1;fill-rule:nonzero;stroke:none"
         id="path42" />
    </g>
  </g>
</svg>
