<?xml version="1.0" encoding="utf-8"?>
<!DOCTYPE svg PUBLIC "-//W3C//DTD SVG 1.0//EN"    "http://www.w3.org/TR/2001/REC-SVG-20010904/DTD/svg10.dtd" [
	<!ENTITY ns_flows "http://ns.adobe.com/Flows/1.0/">
	<!ENTITY ns_svg "http://www.w3.org/2000/svg">
	<!ENTITY ns_xlink "http://www.w3.org/1999/xlink">
]>
<svg  xmlns="&ns_svg;" xmlns:xlink="&ns_xlink;" xmlns:a="http://ns.adobe.com/AdobeSVGViewerExtensions/3.0/"
	 width="100%" height="100%" viewBox="0 0 189.7558594 31.7558594"
	 style="overflow:visible;enable-background:new 0 0 189.7558594 31.7558594" xml:space="preserve">
  <g>
    <polygon style="fill-rule:evenodd;clip-rule:evenodd;fill:none;"
             points="0,0 189.7558594,0 189.7558594,31.7558594 0,31.7558594 0,0 "/>
    <path style="fill-rule:evenodd;clip-rule:evenodd;"
          d="M13.0166016,3.0649414
             c0.5234375,0,1.2207031,0.1743164,1.9179688,0.8720703c0.6977539,0.5229492,0.6977539,1.5688477,0.5234375,2.440918
             c-0.1748047,0.6972656-0.3491211,1.2207031-1.2207031,1.7436523s-1.7436523,0.5229492-1.7436523,0.5229492v3.3129883
             l1.5693359,1.3945312l-1.5693359,1.2207031V19.28125c0,0,1.5693359-1.046875,2.6152344-3.1391602c0,0,0,0,0.1743164-0.3491211
             c0,0.6977539,0,1.7436523-0.6972656,3.3125c-0.3486328,1.046875-1.2202148,2.09375-2.440918,2.7910156
             c-1.9179688,1.0449219-3.3129883,1.0449219-4.8823242,0.8710938c-1.9179688-0.5234375-3.6616211-1.5683594-4.7075195-3.3125
             c-0.871582-1.2207031-1.2207031-2.7900391-1.2207031-4.359375c0.1743164-3.1381836,2.440918-5.753418,5.0566406-6.7998047
             C6.7397461,8.121582,6.9140625,8.121582,7.4370117,8.121582c-0.1743164,0-0.5229492,0.1743164-0.871582,0.5229492
             c-0.8720703,0.5229492-1.5693359,1.5693359-1.9179688,2.440918l5.230957-2.2666016v7.3232422L5.6933594,18.234375
             c0.5234375,0.6972656,1.918457,1.7441406,3.1386719,1.7441406c2.2666016,0.3476562,3.4873047-0.6972656,3.4873047-0.6972656
             v-4.7084961l-1.7436523-1.2207031l1.7436523-1.3945312V8.6445312c-0.871582-0.1743164-2.0922852-0.5229492-2.6152344-0.6972656
             C8.6577148,7.7729492,5.519043,6.9008789,5.1704102,6.9008789C4.6474609,6.7265625,3.9501953,6.7265625,3.6010742,7.0751953
             C3.2524414,7.4243164,3.078125,7.9472656,3.2524414,8.4702148c0,0.3486328,0.1743164,0.5229492,0.3486328,0.6972656
             c0,0-0.1743164,0-0.5229492-0.1743164C2.5551758,8.6445312,2.0322266,7.9472656,2.0322266,7.0751953
             c0-1.0458984,0.3486328-2.0922852,1.3945312-2.7895508C4.1245117,3.762207,4.9960938,3.4135742,6.0424805,3.5878906
             c1.5693359,0.1743164,3.6616211,1.0463867,5.5795898,1.5693359c0.6972656,0.1743164,1.2202148,0.1743164,1.7436523-0.1743164
             c0.1743164-0.1743164,0.6972656-0.5229492,0.3486328-1.0458984c-0.5229492-0.6977539-1.2207031-0.6977539-1.9179688-0.8720703
             C12.3193359,2.890625,12.4936523,2.890625,13.0166016,3.0649414L13.0166016,3.0649414z M6.7397461,17.5366211v-7.1484375
             L4.6474609,11.434082c0,0-0.5229492,1.2207031-0.5229492,2.9643555c0.1743164,1.3945312,0.871582,2.9638672,1.3945312,3.6611328
             L6.7397461,17.5366211L6.7397461,17.5366211z"/>
    <path style="fill-rule:evenodd;clip-rule:evenodd;"
          d="M33.2421875,10.0395508c0,0-1.7436523,1.0458984-2.7895508,1.7436523
             c-1.0463867,0.5229492-2.440918,1.2202148-2.440918,1.2202148v6.7993164L26.965332,20.5l0.1743164,0.1757812
             l0.8720703-0.6972656l2.9638672,2.6152344l5.230957-4.0107422l-0.1748047-0.1743164l-2.7895508,2.2670898l-2.440918-2.2670898
             v-0.6977539l4.7075195-3.4868164L33.2421875,10.0395508L33.2421875,10.0395508z M33.2421875,15.6186523l-2.440918,1.7436523
             v-5.753418L33.2421875,15.6186523L33.2421875,15.6186523z"/>
    <path style="fill-rule:evenodd;clip-rule:evenodd;"
          d="M19.8164062,25.2089844
             c0.6977539,0,1.7436523,0.1738281,3.3129883-0.5234375c1.5693359-0.8710938,2.2670898-2.4414062,2.2670898-4.1855469
             l0.1743164-2.4404297v-5.4047852l0.871582-0.6972656v-0.1743164l-1.0458984,0.6972656l-2.2670898-2.440918l-2.9638672,2.440918
             v-8.543457l-3.6616211,2.7895508c0.1743164,0.1743164,0.6972656,0.1743164,0.6972656,1.0463867v12.0297852l-1.5688477,1.046875
             l0.1743164,0.1738281L16.5039062,20.5l2.0922852,1.9179688l3.3129883-2.6152344l-0.1748047-0.1738281l-0.6972656,0.6972656
             l-0.871582-0.8710938v-6.6259766l0.871582-0.871582l1.5693359,1.7436523c0,0,0,4.3583984,0,5.7539062
             c0,1.5683594,0,3.4863281-0.8720703,4.359375C20.862793,24.859375,20.6884766,24.859375,19.8164062,25.2089844
             L19.8164062,25.2089844z"/>
    <path style="fill-rule:evenodd;clip-rule:evenodd;"
          d="M42.6577148,24.5117188
             c-1.3950195-0.1757812-1.9179688-0.8730469-1.9179688-1.5703125c0-0.3476562,0.5229492-1.2207031,1.2207031-1.2207031
             c0.871582-0.1738281,1.5688477,0.1757812,2.2666016,1.046875l3.1381836-3.4863281H47.190918l-0.871582,0.8710938
             c-0.6977539-0.8710938-1.9179688-1.5693359-3.1386719-1.7436523V8.121582l7.8461914,14.472168
             c0,0,0.1743164,0.1738281,0.5229492,0.1738281c0.1743164,0,0.1743164-0.1738281,0.1743164-0.1738281V8.121582
             c0.6977539-0.1743164,1.5693359-0.5229492,2.0922852-0.8720703c1.5693359-1.5688477,0.8720703-3.3125,0.6977539-3.4873047
             c0,0.6977539-0.6977539,1.3950195-1.5693359,1.5693359c-1.2207031,0-2.0922852-1.0458984-2.0922852-1.0458984
             l-2.9643555,3.4873047L48.0625,7.9472656l0.8720703-1.0463867c1.0458984,1.0463867,1.7436523,1.0463867,2.6152344,1.2207031
             v8.3691406L45.621582,5.8549805c-0.5229492-0.8720703-1.2202148-1.7436523-2.6152344-1.7436523
             c-1.3945312,0-2.440918,1.2202148-2.6152344,2.440918s0,1.5693359,0,1.5693359S40.5654297,6.7265625,41.4375,6.7265625
             c0.871582,0,1.2202148,0.6977539,1.5688477,1.2207031v3.1381836c-0.871582,0-2.9638672,0-2.9638672,2.2666016
             c0,0.6977539,0.5229492,1.5693359,0.871582,1.9179688c0.5234375,0.3486328,1.0463867,0.3486328,1.0463867,0.3486328
             s-0.6977539-0.3486328-0.5229492-1.0458984c0.1743164-0.6972656,1.5688477-0.6972656,1.5688477-0.5229492v4.3588867
             c-0.6972656,0-2.6152344,0-3.6616211,1.7436523c-0.5229492,1.046875-0.5229492,2.265625,0.1743164,3.1386719
             C40.0424805,23.9882812,40.9140625,24.859375,42.6577148,24.5117188L42.6577148,24.5117188z"/>
    <path style="fill-rule:evenodd;clip-rule:evenodd;"
          d="M59.3959961,10.0395508c0,0-1.5688477,1.0458984-2.7895508,1.7436523
             c-1.0463867,0.5229492-2.440918,1.2202148-2.440918,1.2202148v6.7993164L53.1191406,20.5l0.1743164,0.1757812
             l1.0463867-0.6972656l2.7895508,2.6152344l5.230957-4.0107422l-0.1748047-0.1743164l-2.7895508,2.2670898l-2.2666016-2.2670898
             v-0.6977539l4.5332031-3.4868164L59.3959961,10.0395508L59.3959961,10.0395508z M59.3959961,15.6186523l-2.2666016,1.7436523
             v-5.753418L59.3959961,15.6186523L59.3959961,15.6186523z"/>
    <path style="fill-rule:evenodd;clip-rule:evenodd;"
          d="M66.5449219,22.59375L63.9291992,20.5l-1.0458984,0.8730469
             l-0.1743164-0.1738281l1.2202148-0.8730469v-5.753418c0-2.440918-2.2666016-1.7436523-2.0922852-4.3588867
             c0-1.0463867,1.0463867-1.9179688,1.7436523-2.2666016c0.5229492-0.1743164,1.2207031-0.1743164,1.2207031-0.1743164
             s-1.0463867,0.5229492-0.8720703,1.5693359c0.3486328,1.3945312,2.7900391,1.3945312,2.9643555,3.3125V19.28125
             l1.7436523,1.3945312l0.5229492-0.3496094v-7.1484375l-1.0463867-0.871582l2.4414062-2.2666016l2.2666016,2.0922852
             l-0.871582,0.871582v6.277832l2.2666016,1.7421875l0.3486328-0.1738281v-7.671875l-1.0463867-0.871582l2.440918-2.2666016
             l2.440918,1.9179688l0.8720703-0.8720703l0.1743164,0.1748047l-2.0922852,1.9174805V19.28125l-5.4047852,3.3125L69.1601562,20.5
             L66.5449219,22.59375L66.5449219,22.59375z"/>
    <path style="fill-rule:evenodd;clip-rule:evenodd;"
          d="M176.390625,10.0395508c0,0-1.7441406,1.0458984-2.7900391,1.7436523
             c-1.0458984,0.5229492-2.4404297,1.2202148-2.4404297,1.2202148v6.7993164L170.1132812,20.5l0.1748047,0.1757812
             l0.8720703-0.6972656l2.9638672,2.6152344l5.2304688-4.0107422l-0.1738281-0.1743164l-2.7900391,2.2670898l-2.4414062-2.2670898
             v-0.6977539l4.7080078-3.4868164L176.390625,10.0395508L176.390625,10.0395508z M176.390625,15.6186523l-2.4414062,1.7436523
             v-5.753418L176.390625,15.6186523L176.390625,15.6186523z"/>
    <polygon style="fill-rule:evenodd;clip-rule:evenodd;"
             points="152.3291016,13.003418 152.5039062,13.003418 
                     153.375,12.3061523 154.7705078,13.8754883 154.7705078,19.4550781 154.0732422,19.9785156 156.3398438,22.59375 
                     158.6054688,20.3261719 157.734375,19.28125 157.734375,12.6547852 158.2568359,12.1318359 159.8261719,14.0498047 
                     159.8261719,19.6289062 159.3037109,20.1523438 161.3955078,22.4179688 163.6621094,20.3261719 162.7910156,19.4550781 
                     162.7910156,12.6547852 163.3134766,12.1318359 165.0576172,14.0498047 165.0576172,19.4550781 164.5341797,19.9785156 
                     166.8007812,22.59375 169.9394531,19.6289062 169.7646484,19.4550781 169.0673828,20.1523438 167.8466797,18.9316406 
                     167.8466797,12.6547852 168.8935547,11.7832031 168.8935547,11.6088867 167.6728516,12.4804688 165.5800781,10.2138672 
                     162.6162109,12.4804688 160.5234375,10.2138672 157.5595703,12.4804688 155.4677734,10.2138672 152.3291016,13.003418 "/>
    <polygon style="fill-rule:evenodd;clip-rule:evenodd;"
             points="146.0517578,12.8291016 146.0517578,12.8291016 
                     146.9238281,12.1318359 148.1445312,13.7011719 148.1445312,19.9785156 147.2724609,20.8496094 147.4472656,21.0234375 
                     148.3193359,20.1523438 150.4111328,22.59375 153.375,19.9785156 153.2011719,19.8027344 152.3291016,20.5 
                     151.1083984,19.1054688 151.1083984,12.8291016 152.1552734,11.9575195 152.1552734,11.7832031 151.1083984,12.6547852 
                     149.0166016,10.2138672 146.0517578,12.8291016 "/>
    <polygon style="fill-rule:evenodd;clip-rule:evenodd;"
             points="146.9238281,7.4243164 149.0166016,5.5058594 150.9345703,7.4243164 148.6679688,9.5166016 146.9238281,7.4243164 "/>
    <path style="fill-rule:evenodd;clip-rule:evenodd;"
          d="M143.7851562,3.0649414
             c0.5234375,0,1.3955078,0.1743164,2.0927734,0.8720703c0.5224609,0.5229492,0.6972656,1.5688477,0.5224609,2.440918
             c-0.1738281,0.6972656-0.5224609,1.2207031-1.2197266,1.7436523c-0.8720703,0.5229492-1.7441406,0.5229492-1.7441406,0.5229492
             v3.3129883l1.5693359,1.3945312l-1.5693359,1.2207031V19.28125c0,0,1.5693359-1.046875,2.6152344-3.1391602
             c0,0,0,0,0.1748047-0.3491211c0,0.6977539,0,1.7436523-0.6972656,3.3125
             c-0.3486328,1.046875-1.3955078,2.09375-2.4414062,2.7910156c-1.9179688,1.0449219-3.4873047,1.0449219-5.0556641,0.8710938
             c-1.7441406-0.5234375-3.4873047-1.5683594-4.5341797-3.3125c-0.8710938-1.2207031-1.2197266-2.7900391-1.2197266-4.359375
             c0-3.1381836,2.4404297-5.753418,5.0556641-6.7998047c0.3496094-0.1743164,0.5234375-0.1743164,1.046875-0.1743164
             c-0.3486328,0-0.5234375,0.1743164-0.8720703,0.5229492c-0.8720703,0.5229492-1.5693359,1.5693359-1.9179688,2.440918
             l5.2304688-2.2666016v7.3232422l-4.1845703,2.0922852c0.5234375,0.6972656,1.9179688,1.7441406,3.1386719,1.7441406
             c2.0917969,0.3476562,3.3125-0.6972656,3.3125-0.6972656v-4.7084961l-1.5693359-1.2207031l1.5693359-1.3945312V8.6445312
             c-0.8710938-0.1743164-1.9179688-0.5229492-2.6152344-0.6972656c-0.8720703-0.1743164-4.0097656-1.0463867-4.5332031-1.0463867
             c-0.3486328-0.1743164-1.0458984-0.1743164-1.3945312,0.1743164c-0.3486328,0.3491211-0.5234375,0.8720703-0.5234375,1.3950195
             c0.1748047,0.3486328,0.3486328,0.5229492,0.5234375,0.6972656c0,0-0.1748047,0-0.5234375-0.1743164
             c-0.5234375-0.3486328-1.0458984-1.0458984-1.0458984-1.9179688c-0.1748047-1.0458984,0.3486328-2.0922852,1.2207031-2.7895508
             c0.8710938-0.5234375,1.7431641-0.8720703,2.7890625-0.6977539c1.5693359,0.1743164,3.6621094,1.0463867,5.4052734,1.5693359
             c0.8720703,0.1743164,1.3945312,0.1743164,1.9179688-0.1743164c0.1738281-0.1743164,0.5234375-0.5229492,0.1738281-1.0458984
             c-0.3486328-0.6977539-1.0458984-0.6977539-1.7431641-0.8720703
             C143.2626953,2.890625,143.4365234,2.890625,143.7851562,3.0649414L143.7851562,3.0649414z M137.6835938,17.5366211v-7.1484375
             l-2.0927734,1.0458984c0,0-0.6972656,1.2207031-0.5234375,2.9643555c0,1.3945312,0.8720703,2.9638672,1.3955078,3.6611328
             L137.6835938,17.5366211L137.6835938,17.5366211z"/>
    <path style="fill-rule:evenodd;clip-rule:evenodd;"
          d="M181.9697266,23.4648438
             c-0.3486328,0.1738281-1.7431641-0.1738281-2.0917969-1.7441406c-0.3486328-1.5683594,0.6972656-2.4394531,2.2666016-4.184082
             l-1.9179688-1.5693359v-3.3125c0,0,1.3945312-0.5229492,2.4414062-1.2207031
             c1.0458984-0.6972656,2.0917969-1.3945312,2.0917969-1.3945312s0.8720703,1.0458984,1.7431641,0.871582
             c1.3955078-0.1743164,1.3955078-1.2202148,1.2207031-1.3945312c0.3486328,0.3486328,0.8720703,1.5688477-1.5693359,4.5332031
             l2.0927734,1.5688477v4.184082c0,0-2.4414062,1.2207031-4.5332031,2.7910156c0,0-1.2207031-1.5703125-2.2666016-0.8730469
             C180.5751953,22.2441406,180.9238281,23.1152344,181.9697266,23.4648438L181.9697266,23.4648438z M180.2265625,20.3261719
             c0,0,1.0458984-1.7431641,2.9638672-1.3945312c1.7441406,0.3496094,2.2666016,2.0917969,2.2666016,2.0917969v-4.184082
             l-1.2197266-1.0463867C183.0166016,17.1879883,180.5751953,19.1054688,180.2265625,20.3261719L180.2265625,20.3261719z
             M183.0166016,11.434082v3.3129883l1.0458984,1.0458984c0,0,2.4404297-1.9174805,3.3125-3.8354492
             c0,0-1.0458984,1.5693359-2.6152344,1.0458984C183.5390625,12.6547852,183.0166016,11.434082,183.0166016,11.434082
             L183.0166016,11.434082z"/>
    <path style="fill-rule:evenodd;clip-rule:evenodd;"
          d="M106.8212891,12.8291016l0.8720703-0.6972656h0.1748047
             l-0.8720703,0.871582v6.6254883c0,0-1.7441406,0.8710938-2.7900391,1.5703125
             c-1.2207031,0.6972656-2.4414062,1.3945312-2.4414062,1.3945312l-3.1376953-2.6152344l-0.6972656,0.6972656h-0.1748047
             l0.8720703-0.8730469v-7.1479492l0,0c0,0,1.3945312-0.5229492,2.6152344-1.2207031
             c1.0458984-0.6972656,2.2666016-1.3945312,2.2666016-1.3945312L106.8212891,12.8291016L106.8212891,12.8291016z
             M101.5908203,18.7578125l2.4414062,2.265625v-7.1479492l-2.4414062-2.2666016V18.7578125L101.5908203,18.7578125z"/>
    <path style="fill-rule:evenodd;clip-rule:evenodd;"
          d="M112.9238281,12.1318359l1.9179688-1.9179688
             c0,0,0.1748047,0.1743164,0.5234375,0.3486328c0.1738281,0.1743164,0.6972656,0.3486328,1.2207031,0.1743164
             c0.3486328-0.1743164,0.3486328-0.3486328,0.6972656-0.5229492c0,1.5693359-0.6972656,2.6152344-1.5693359,2.9638672
             c-0.5234375,0.1743164-1.5693359,0.5234375-2.7900391-0.871582v7.1489258L114.3193359,20.5l0.8710938-0.6972656h0.1748047
             l-3.1386719,2.7910156l-2.4404297-2.2675781l-0.8720703,0.8730469l-0.1748047-0.1757812l1.2207031-1.2207031v-6.1015625
             l-0.8720703-1.3950195l-0.8710938,0.6972656h-0.1748047l3.1386719-2.7895508L112.9238281,12.1318359L112.9238281,12.1318359z"/>
    <path style="fill-rule:evenodd;clip-rule:evenodd;"
          d="M121.1191406,15.2700195l3.4873047-5.2304688
             c0,0,0.5224609,0.5229492,1.3945312,0.6972656c1.0458984,0.3486328,2.0917969-0.6972656,2.0917969-0.6972656
             c-0.1738281,1.3945312-0.8710938,2.9638672-2.4404297,3.1381836c-1.2207031,0.1743164-2.4414062-0.871582-2.4414062-0.871582
             l-0.1738281,0.5229492l4.8818359,7.4970703l1.0458984-0.8710938l0.1748047,0.1738281l-3.4873047,2.9648438
             L121.1191406,15.2700195L121.1191406,15.2700195z"/>
    <path style="fill-rule:evenodd;clip-rule:evenodd;"
          d="M118.1552734,8.2958984
             c0-1.2207031-0.5234375-1.9179688-1.2207031-1.9179688l4.0097656-2.6157227V19.28125l1.046875,1.0449219l0.6972656-0.6972656
             l0.1738281,0.1738281l-3.1386719,2.7910156L117.6318359,20.5l-0.8720703,0.8730469l-0.1738281-0.1738281l1.5693359-1.3964844
             V8.2958984L118.1552734,8.2958984z"/>
    <path style="fill-rule:evenodd;clip-rule:evenodd;"
          d="M85.3754883,7.9472656
             c0-1.0463867-0.5229492-1.5693359-1.2207031-1.5693359c-1.0458984-0.1743164-1.2202148,1.3950195-1.2202148,1.3950195
             s-0.1743164-1.2207031,0.6972656-2.0922852c0.5229492-0.5234375,1.5693359-1.3950195,2.9643555-1.0463867
             c1.5688477,0.3486328,2.0922852,1.5693359,2.0922852,2.6152344v14.4711914c0,0,0.5229492,0.1757812,0.871582,0.1757812
             c0.5229492,0.1738281,0.871582,0.1738281,0.871582,0.1738281V4.6342773h0.1748047v2.440918l3.1381836-2.6152344
             l2.440918,2.0922852l1.0458984-0.871582H97.40625l-1.2207031,1.0458984v13.4257812
             c0,0.8710938-0.1743164,1.7441406-1.0458984,2.265625c-1.7436523,1.2207031-4.0102539-0.1738281-6.1025391-0.3476562
             c-1.3950195-0.3496094-3.6616211-0.5234375-4.3588867,0.8710938c-0.1743164,0.3496094-0.1743164,1.046875,0.5229492,1.5703125
             c1.3950195,0.8710938,7.3227539-1.5703125,9.4150391-0.5234375c1.9179688,0.8710938,1.9179688,2.0917969,1.5693359,3.1386719
             c-0.5229492,1.7421875-2.7895508,2.0917969-2.7895508,2.0917969s1.2202148-0.6972656,0.871582-1.7441406
             c-0.1743164-0.5234375-0.5229492-0.6972656-1.7436523-0.5234375c-2.6152344,0.3496094-5.5791016,1.5703125-7.6713867,0.6992188
             c-1.0463867-0.5234375-1.9179688-1.7441406-1.7436523-3.1386719c0-1.9179688,2.2666016-2.6152344,2.2666016-2.6152344
             v-6.9750977c-0.1743164-0.1743164-1.2207031-0.1743164-1.5693359,0.3486328
             c-0.3486328,0.8720703,0.5234375,1.2207031,0.5234375,1.2207031s-0.6977539,0-1.3950195-0.6977539
             c-0.1743164-0.3486328-0.8720703-1.3945312,0-2.6152344c0.5229492-0.871582,1.3950195-1.0458984,2.440918-1.0458984V7.9472656
             L85.3754883,7.9472656z M90.6064453,22.2441406c0,0,1.0458984,0.1738281,1.5688477-0.3476562
             C93.046875,21.1992188,92.8730469,20.5,92.8730469,20.5v-5.4042969c0,0-0.3491211-0.6972656-1.0463867-0.6972656
             s-1.2202148,0.6972656-1.2202148,0.6972656V22.2441406L90.6064453,22.2441406z M92.8730469,7.9472656l-1.3950195-1.2207031
             l-0.871582,0.5229492v5.0566406c0,0,0.5229492,0.5229492,1.2202148,0.5229492s1.0463867-0.5229492,1.0463867-0.5229492
             V7.9472656L92.8730469,7.9472656z M92.8730469,12.6547852c0,0-0.3491211,0.3486328-1.0463867,0.3486328
             s-1.2202148-0.3486328-1.2202148-0.3486328v2.0922852c0,0,0.5229492-0.5229492,1.2202148-0.5229492
             s1.0463867,0.5229492,1.0463867,0.5229492V12.6547852L92.8730469,12.6547852z"/>
  </g>
</svg>
