<?xml version="1.0" encoding="UTF-8" standalone="no"?>
<!-- Created with Inkscape (http://www.inkscape.org/) -->
<svg
   xmlns:dc="http://purl.org/dc/elements/1.1/"
   xmlns:cc="http://web.resource.org/cc/"
   xmlns:rdf="http://www.w3.org/1999/02/22-rdf-syntax-ns#"
   xmlns:svg="http://www.w3.org/2000/svg"
   xmlns="http://www.w3.org/2000/svg"
   xmlns:sodipodi="http://sodipodi.sourceforge.net/DTD/sodipodi-0.dtd"
   xmlns:inkscape="http://www.inkscape.org/namespaces/inkscape"
   width="209.07001"
   height="155.0145"
   id="svg2"
   sodipodi:version="0.32"
   inkscape:version="0.44"
   sodipodi:docbase="/home/will/sites/holcomb.info/property"
   sodipodi:docname="book.svg"
   version="1.0">
  <defs
     id="defs4" />
  <sodipodi:namedview
     id="base"
     pagecolor="#ffffff"
     bordercolor="#666666"
     borderopacity="1.0"
     gridtolerance="10000"
     guidetolerance="10"
     objecttolerance="10"
     inkscape:pageopacity="0.0"
     inkscape:pageshadow="2"
     inkscape:zoom="1.4"
     inkscape:cx="129.7672"
     inkscape:cy="75.53288"
     inkscape:document-units="px"
     inkscape:current-layer="layer1"
     inkscape:window-width="1265"
     inkscape:window-height="854"
     inkscape:window-x="9"
     inkscape:window-y="91"
     width="209.07001px" />
  <metadata
     id="metadata7">
    <rdf:RDF>
      <cc:Work
         rdf:about="">
        <dc:format>image/svg+xml</dc:format>
        <dc:type
           rdf:resource="http://purl.org/dc/dcmitype/StillImage" />
      </cc:Work>
    </rdf:RDF>
  </metadata>
  <g
     inkscape:label="Layer 1"
     inkscape:groupmode="layer"
     id="layer1"
     transform="translate(-293.7196,-343.5138)">
    <path
       style="fill:#480b4d;fill-rule:evenodd;stroke:black;stroke-width:3.51695585;stroke-linecap:butt;stroke-linejoin:miter;stroke-miterlimit:4;stroke-dasharray:none;stroke-opacity:0.98795184"
       d="M 295.48307,496.76984 L 295.4781,364.96179 L 501.02719,364.45678 L 501.02222,496.26476 C 501.02222,496.26476 418.9042,489.8564 418.39951,490.20461 C 407.03994,498.04229 395.78457,499.17451 381.6761,489.6996 C 381.04484,489.27565 295.48307,496.76984 295.48307,496.76984 z "
       id="path3291"
       sodipodi:nodetypes="ccccssc" />
    <path
       style="fill:#a78855;fill-rule:evenodd;stroke:black;stroke-width:2.95893002;stroke-linecap:butt;stroke-linejoin:miter;stroke-miterlimit:4;stroke-dasharray:none;stroke-opacity:0.98795184"
       d="M 309.08617,374.53786 L 325.29574,350.28715 L 397.50197,364.43341 L 471.1818,350.28715 L 486.40896,375.04309 L 486.40896,482.65566 C 486.40896,482.65566 412.87026,478.40713 412.72913,478.61387 C 405.85247,488.68799 391.19582,488.84843 384.2396,478.61387 C 383.98592,478.24064 309.57737,483.16089 309.57737,483.16089 L 309.08617,374.53786 z "
       id="path5068"
       sodipodi:nodetypes="ccccccsscc" />
    <path
       style="fill:#c6b18f;fill-rule:evenodd;stroke:black;stroke-width:2.95893002;stroke-linecap:butt;stroke-linejoin:round;stroke-miterlimit:4;stroke-dasharray:none;stroke-opacity:0.98795184"
       d="M 325.78693,349.2767 C 349.56598,344.94994 391.11638,337.15134 397.99317,366.4543 C 397.99317,367.46474 399.95237,486.75706 399.95796,486.19225 C 400.36523,444.59141 324.31333,460.42583 324.31333,460.42583 C 324.31333,460.42583 324.48456,349.51367 325.78693,349.2767 z "
       id="path2402"
       sodipodi:nodetypes="ccscs" />
    <path
       style="fill:#c6b18f;fill-rule:evenodd;stroke:black;stroke-width:2.96963954;stroke-linecap:butt;stroke-linejoin:round;stroke-miterlimit:4;stroke-dasharray:none;stroke-opacity:0.98795184"
       d="M 471.19855,349.65819 C 447.24366,345.33204 405.38603,337.53454 398.4584,366.83336 C 398.4584,367.84366 399.44644,486.61445 399.44081,486.04971 C 399.03052,444.45477 472.68305,460.79162 472.68305,460.79162 C 472.68305,460.79162 472.51054,349.89513 471.19855,349.65819 z "
       id="path5955"
       sodipodi:nodetypes="ccscs" />
    <path
       style="fill:white;fill-rule:evenodd;stroke:black;stroke-width:3;stroke-linecap:round;stroke-linejoin:miter;stroke-miterlimit:4;stroke-dasharray:none;stroke-opacity:0.98795184"
       d="M 310.62191,481.626 L 323.75389,460.41279"
       id="path5957"
       sodipodi:nodetypes="cc" />
    <path
       style="fill:white;fill-rule:evenodd;stroke:black;stroke-width:2.79816818;stroke-linecap:round;stroke-linejoin:miter;stroke-miterlimit:4;stroke-dasharray:none;stroke-opacity:0.98795184"
       d="M 485.88201,482.35469 L 472.75275,461.19931"
       id="path6844"
       sodipodi:nodetypes="cc" />
  </g>
</svg>
