<?xml version="1.0" standalone="no"?>
<!--Created with Inkscape (http://www.inkscape.org/)-->
<svg xmlns="http://www.w3.org/2000/svg" xmlns:xlink="http://www.w3.org/1999/xlink" viewBox="0 0 48 48">
  <defs>
    <linearGradient id="g">
      <stop offset="0" stop-color="#fff" stop-opacity="1"/>
      <stop offset="1" stop-color="#fff" stop-opacity="0"/>
    </linearGradient>
    <radialGradient gradientUnits="userSpaceOnUse" fy="18.3291" fx="18.1523" r="3.5495" cy="18.3291" cx="18.1523" id="f">
      <stop offset="0" stop-color="#3c3c3c"/>
      <stop offset="0.3633" stop-color="#3e3e3e"/>
      <stop offset="0.4942" stop-color="#454545"/>
      <stop offset="0.5875" stop-color="#505050"/>
      <stop offset="0.6629" stop-color="#616161"/>
      <stop offset="0.7276" stop-color="#777"/>
      <stop offset="0.7848" stop-color="#939393"/>
      <stop offset="0.8353" stop-color="#b2b2b2"/>
      <stop offset="0.8764" stop-color="#d2d2d2"/>
      <stop offset="0.8998" stop-color="#cecece"/>
      <stop offset="0.9223" stop-color="#c3c3c3"/>
      <stop offset="0.9446" stop-color="#afafaf"/>
      <stop offset="0.9666" stop-color="#949494"/>
      <stop offset="0.9884" stop-color="#717171"/>
      <stop offset="1" stop-color="#5b5b5b"/>
    </radialGradient>
    <radialGradient gradientUnits="userSpaceOnUse" fy="18.3291" fx="5.7334" r="3.5495" cy="18.3291" cx="5.7334" id="e">
      <stop offset="0" stop-color="#3c3c3c"/>
      <stop offset="0.3633" stop-color="#3e3e3e"/>
      <stop offset="0.4942" stop-color="#454545"/>
      <stop offset="0.5875" stop-color="#505050"/>
      <stop offset="0.6629" stop-color="#616161"/>
      <stop offset="0.7276" stop-color="#777"/>
      <stop offset="0.7848" stop-color="#939393"/>
      <stop offset="0.8353" stop-color="#b2b2b2"/>
      <stop offset="0.8764" stop-color="#d2d2d2"/>
      <stop offset="0.8998" stop-color="#cecece"/>
      <stop offset="0.9223" stop-color="#c3c3c3"/>
      <stop offset="0.9446" stop-color="#afafaf"/>
      <stop offset="0.9666" stop-color="#949494"/>
      <stop offset="0.9884" stop-color="#717171"/>
      <stop offset="1" stop-color="#5b5b5b"/>
    </radialGradient>
    <radialGradient gradientUnits="userSpaceOnUse" fy="5.6528" fx="5.7334" r="3.5497" cy="5.6528" cx="5.7334" id="d">
      <stop offset="0" stop-color="#3c3c3c"/>
      <stop offset="0.3633" stop-color="#3e3e3e"/>
      <stop offset="0.4942" stop-color="#454545"/>
      <stop offset="0.5875" stop-color="#505050"/>
      <stop offset="0.6629" stop-color="#616161"/>
      <stop offset="0.7276" stop-color="#777"/>
      <stop offset="0.7848" stop-color="#939393"/>
      <stop offset="0.8353" stop-color="#b2b2b2"/>
      <stop offset="0.8764" stop-color="#d2d2d2"/>
      <stop offset="0.8998" stop-color="#cecece"/>
      <stop offset="0.9223" stop-color="#c3c3c3"/>
      <stop offset="0.9446" stop-color="#afafaf"/>
      <stop offset="0.9666" stop-color="#949494"/>
      <stop offset="0.9884" stop-color="#717171"/>
      <stop offset="1" stop-color="#5b5b5b"/>
    </radialGradient>
    <radialGradient gradientUnits="userSpaceOnUse" fy="5.6528" fx="18.1523" r="3.5497" cy="5.6528" cx="18.1523" id="c">
      <stop offset="0" stop-color="#3c3c3c"/>
      <stop offset="0.3633" stop-color="#3e3e3e"/>
      <stop offset="0.4942" stop-color="#454545"/>
      <stop offset="0.5875" stop-color="#505050"/>
      <stop offset="0.6629" stop-color="#616161"/>
      <stop offset="0.7276" stop-color="#777"/>
      <stop offset="0.7848" stop-color="#939393"/>
      <stop offset="0.8353" stop-color="#b2b2b2"/>
      <stop offset="0.8764" stop-color="#d2d2d2"/>
      <stop offset="0.8998" stop-color="#cecece"/>
      <stop offset="0.9223" stop-color="#c3c3c3"/>
      <stop offset="0.9446" stop-color="#afafaf"/>
      <stop offset="0.9666" stop-color="#949494"/>
      <stop offset="0.9884" stop-color="#717171"/>
      <stop offset="1" stop-color="#5b5b5b"/>
    </radialGradient>
    <radialGradient gradientUnits="userSpaceOnUse" fy="11.3452" fx="11.5034" r="9.2994" cy="11.3452" cx="11.5034" id="b">
      <stop offset="0" stop-color="#c5c5c5"/>
      <stop offset="0.237" stop-color="#c8c8c8"/>
      <stop offset="0.4082" stop-color="#d1d1d1"/>
      <stop offset="0.5587" stop-color="#e1e1e1"/>
      <stop offset="0.6964" stop-color="#f7f7f7"/>
      <stop offset="0.736" stop-color="#fff"/>
      <stop offset="0.8191" stop-color="#fcfcfc"/>
      <stop offset="0.8812" stop-color="#f2f2f2"/>
      <stop offset="0.9364" stop-color="#e2e2e2"/>
      <stop offset="0.9875" stop-color="#ccc"/>
      <stop offset="1" stop-color="#c5c5c5"/>
    </radialGradient>
    <radialGradient gradientUnits="userSpaceOnUse" gradientTransform="matrix(0 1 -1 0 -17.6563 -25.5215)" fy="-29.6997" fx="37.6357" r="12.8245" cy="-29.6997" cx="37.6357" id="a">
      <stop offset="0.0000000" stop-color="#210101" stop-opacity="1"/>
      <stop offset="0.50000000" stop-color="#ff747e" stop-opacity="1"/>
      <stop offset="1.0000000" stop-color="#830000" stop-opacity="1"/>
    </radialGradient>
    <radialGradient r="12.824500" fy="12.071112" fx="11.925323" cy="12.071112" cx="11.925323" gradientTransform="matrix(1.834771,0.000000,0.000000,1.834771,0.203075,0.457681)" gradientUnits="userSpaceOnUse" id="t" xlink:href="#a"/>
    <radialGradient r="12.8245" fy="-28.883039" fx="37.638786" cy="-28.883039" cx="37.638786" gradientTransform="matrix(0.000000,1.815240,-1.815240,0.000000,-28.72343,-45.72418)" gradientUnits="userSpaceOnUse" id="s" xlink:href="#a"/>
    <radialGradient r="12.826500" fy="-56.636044" fx="-1.3652747" cy="-56.636044" cx="-1.3652747" gradientTransform="matrix(-1.912847,0.000000,0.000000,-1.911446,20.79352,-84.33165)" gradientUnits="userSpaceOnUse" id="r" xlink:href="#a"/>
    <radialGradient r="12.822400" fy="-14.617684" fx="-30.104782" cy="-14.617684" cx="-30.104782" gradientTransform="matrix(0.000000,-1.781202,1.781202,0.000000,47.87627,-29.29086)" gradientUnits="userSpaceOnUse" id="q" xlink:href="#a"/>
    <radialGradient r="9.2994" fy="11.676833" fx="11.586308" cy="11.676833" cx="11.586308" gradientTransform="matrix(2.132196,0.000000,0.000000,2.132196,-1.997869,-1.742005)" gradientUnits="userSpaceOnUse" id="p" xlink:href="#b"/>
    <radialGradient r="3.5497" fy="5.6528" fx="18.1523" cy="5.6528" cx="18.1523" gradientTransform="matrix(2.132196,0.000000,0.000000,2.132196,-4.567351,0.827477)" gradientUnits="userSpaceOnUse" id="o" xlink:href="#c"/>
    <radialGradient r="3.5497" fy="5.6528" fx="5.7334" cy="5.6528" cx="5.7334" gradientTransform="matrix(2.132196,0.000000,0.000000,2.132196,0.571613,0.827477)" gradientUnits="userSpaceOnUse" id="j" xlink:href="#d"/>
    <radialGradient r="3.5495" fy="18.3291" fx="5.7334" cy="18.3291" cx="5.7334" gradientTransform="matrix(2.132196,0.000000,0.000000,2.132196,0.571613,-4.311487)" gradientUnits="userSpaceOnUse" id="i" xlink:href="#e"/>
    <radialGradient r="3.5495" fy="18.3291" fx="18.1523" cy="18.3291" cx="18.1523" gradientTransform="matrix(2.132196,0.000000,0.000000,2.132196,-4.567351,-4.311487)" gradientUnits="userSpaceOnUse" id="h" xlink:href="#f"/>
    <radialGradient xlink:href="#c" id="l" gradientUnits="userSpaceOnUse" gradientTransform="matrix(2.132196,0.000000,0.000000,2.132196,-4.567351,0.827477)" cx="18.1523" cy="5.6528" fx="18.1523" fy="5.6528" r="3.5497"/>
    <radialGradient xlink:href="#d" id="n" gradientUnits="userSpaceOnUse" gradientTransform="matrix(2.132196,0.000000,0.000000,2.132196,0.571613,0.827477)" cx="5.7334" cy="5.6528" fx="5.7334" fy="5.6528" r="3.5497"/>
    <radialGradient xlink:href="#e" id="m" gradientUnits="userSpaceOnUse" gradientTransform="matrix(2.132196,0.000000,0.000000,2.132196,0.571613,-4.311487)" cx="5.7334" cy="18.3291" fx="5.7334" fy="18.3291" r="3.5495"/>
    <radialGradient xlink:href="#f" id="k" gradientUnits="userSpaceOnUse" gradientTransform="matrix(2.132196,0.000000,0.000000,2.132196,-4.567351,-4.311487)" cx="18.1523" cy="18.3291" fx="18.1523" fy="18.3291" r="3.5495"/>
    <linearGradient xlink:href="#g" id="u" x1="18.415108" y1="11.760777" x2="28.607494" y2="34.211418" gradientUnits="userSpaceOnUse"/>
  </defs>
  <metadata/>
  <path d="M 34.451839,27.031797 C 30.187448,27.031797 26.562714,30.656531 26.562714,34.920922 C 26.562714,39.185315 30.187448,42.810048 34.451839,42.810048 C 38.716231,42.810048 42.340965,39.185315 42.340965,34.920922 C 42.340965,30.656531 38.716231,27.031797 34.451839,27.031797 z M 34.451839,41.104292 C 31.040325,41.104292 28.268471,38.332437 28.268471,34.920922 C 28.268471,31.509409 31.040325,28.737554 34.451839,28.737554 C 37.863354,28.737554 40.635208,31.509409 40.635208,34.920922 C 40.635208,38.332437 37.863354,41.104292 34.451839,41.104292 z " fill="url(#h)" fill-rule="nonzero" stroke="#000" stroke-width="2" stroke-miterlimit="4" stroke-dasharray="none" stroke-opacity="1"/>
  <path d="M 13.151571,27.031797 C 8.8871776,27.031797 5.2624441,30.656531 5.2624441,34.920922 C 5.2624441,39.185315 8.8871776,42.810048 13.151571,42.810048 C 17.415964,42.810048 21.040697,39.185315 21.040697,34.920922 C 21.040697,30.656531 17.415964,27.031797 13.151571,27.031797 L 13.151571,27.031797 z M 13.151571,41.104292 C 9.7400561,41.104292 6.9682010,38.332437 6.9682010,34.920922 C 6.9682010,31.509409 9.7400561,28.737554 13.151571,28.737554 C 16.563085,28.737554 19.334940,31.509409 19.334940,34.920922 C 19.334940,38.332437 16.563085,41.104292 13.151571,41.104292 L 13.151571,41.104292 z " fill="url(#i)" fill-rule="nonzero" stroke="#000" stroke-width="2" stroke-miterlimit="4" stroke-dasharray="none" stroke-opacity="1"/>
  <path style="marker:none" d="M 44.75 39.75 A 19.75 6.5 0 1 1  5.25,39.75 A 19.75 6.5 0 1 1  44.75 39.75 z" transform="matrix(1.054845,0,0,1.202532,-2.593391,-8.550633)" opacity=".2" color="#000" fill="#000" fill-opacity="1" fill-rule="nonzero" stroke="none" stroke-width="1" stroke-linecap="butt" stroke-linejoin="miter" marker-start="none" marker-mid="none" marker-end="none" stroke-miterlimit="4" stroke-dasharray="none" stroke-dashoffset="0" stroke-opacity="1" visibility="visible" display="block" overflow="visible"/>
  <path d="M 13.151571,5.0918689 C 8.8871776,5.0918689 5.2624441,8.7166023 5.2624441,12.980996 C 5.2624441,17.245387 8.8871776,20.870121 13.151571,20.870121 C 17.415964,20.870121 21.040697,17.245387 21.040697,12.980996 C 21.040697,8.7166023 17.415964,5.0918689 13.151571,5.0918689 L 13.151571,5.0918689 z M 13.151571,19.164364 C 9.7400561,19.164364 6.9682010,16.392509 6.9682010,12.980996 C 6.9682010,9.5694808 9.7400561,6.7976257 13.151571,6.7976257 C 16.563085,6.7976257 19.334940,9.5694808 19.334940,12.980996 C 19.334940,16.392509 16.349866,19.164364 13.151571,19.164364 z " fill="url(#j)" fill-rule="nonzero" stroke="#000" stroke-width="2" stroke-miterlimit="4" stroke-dasharray="none" stroke-opacity="1"/>
  <path d="M 34.451839,27.031797 C 30.187448,27.031797 26.562714,30.656531 26.562714,34.920922 C 26.562714,39.185315 30.187448,42.810048 34.451839,42.810048 C 38.716231,42.810048 42.340965,39.185315 42.340965,34.920922 C 42.340965,30.656531 38.716231,27.031797 34.451839,27.031797 z M 34.451839,41.104292 C 31.040325,41.104292 28.268471,38.332437 28.268471,34.920922 C 28.268471,31.509409 31.040325,28.737554 34.451839,28.737554 C 37.863354,28.737554 40.635208,31.509409 40.635208,34.920922 C 40.635208,38.332437 37.863354,41.104292 34.451839,41.104292 z " fill="url(#k)" fill-rule="nonzero" stroke="none" stroke-width=".85650003" stroke-miterlimit="4"/>
  <path d="M 34.451839,21.083340 C 38.716231,21.083340 42.340965,17.458608 42.340965,13.194215 C 42.340965,8.9298220 38.716231,5.3050885 34.451839,5.3050885 C 30.187448,5.3050885 26.562714,8.9298220 26.562714,13.194215 C 26.562714,17.458608 30.187448,21.083340 34.451839,21.083340 z M 34.451839,7.0108454 C 37.863354,7.0108454 40.635208,9.7827001 40.635208,13.194215 C 40.635208,16.605729 37.863354,19.377584 34.451839,19.377584 C 31.040325,19.377584 28.268471,16.605729 28.268471,13.194215 C 28.268471,9.7827001 31.040325,7.0108454 34.451839,7.0108454 L 34.451839,7.0108454 z " fill="url(#l)" fill-rule="nonzero" stroke="#000" stroke-width="2" stroke-miterlimit="4" stroke-dasharray="none" stroke-opacity="1"/>
  <path d="M 13.151571,27.031797 C 8.8871776,27.031797 5.2624441,30.656531 5.2624441,34.920922 C 5.2624441,39.185315 8.8871776,42.810048 13.151571,42.810048 C 17.415964,42.810048 21.040697,39.185315 21.040697,34.920922 C 21.040697,30.656531 17.415964,27.031797 13.151571,27.031797 L 13.151571,27.031797 z M 13.151571,41.104292 C 9.7400561,41.104292 6.9682010,38.332437 6.9682010,34.920922 C 6.9682010,31.509409 9.7400561,28.737554 13.151571,28.737554 C 16.563085,28.737554 19.334940,31.509409 19.334940,34.920922 C 19.334940,38.332437 16.563085,41.104292 13.151571,41.104292 L 13.151571,41.104292 z " fill="url(#m)" fill-rule="nonzero" stroke="none" stroke-width=".85650003" stroke-miterlimit="4"/>
  <path d="M 13.151571,5.0918689 C 8.8871776,5.0918689 5.2624441,8.7166023 5.2624441,12.980996 C 5.2624441,17.245387 8.8871776,20.870121 13.151571,20.870121 C 17.415964,20.870121 21.040697,17.245387 21.040697,12.980996 C 21.040697,8.7166023 17.415964,5.0918689 13.151571,5.0918689 L 13.151571,5.0918689 z M 13.151571,19.164364 C 9.7400561,19.164364 6.9682010,16.392509 6.9682010,12.980996 C 6.9682010,9.5694808 9.7400561,6.7976257 13.151571,6.7976257 C 16.563085,6.7976257 19.334940,9.5694808 19.334940,12.980996 C 19.334940,16.392509 16.349866,19.164364 13.151571,19.164364 z " fill="url(#n)" fill-rule="nonzero" stroke="none" stroke-width=".85650003" stroke-miterlimit="4"/>
  <path d="M 34.451839,21.083340 C 38.716231,21.083340 42.340965,17.458608 42.340965,13.194215 C 42.340965,8.9298220 38.716231,5.3050885 34.451839,5.3050885 C 30.187448,5.3050885 26.562714,8.9298220 26.562714,13.194215 C 26.562714,17.458608 30.187448,21.083340 34.451839,21.083340 z M 34.451839,7.0108454 C 37.863354,7.0108454 40.635208,9.7827001 40.635208,13.194215 C 40.635208,16.605729 37.863354,19.377584 34.451839,19.377584 C 31.040325,19.377584 28.268471,16.605729 28.268471,13.194215 C 28.268471,9.7827001 31.040325,7.0108454 34.451839,7.0108454 L 34.451839,7.0108454 z " fill="url(#o)" fill-rule="nonzero" stroke="none" stroke-width=".85650003" stroke-miterlimit="4"/>
  <path d="M 4.8251594,24.057569 C 4.8251594,34.505330 13.353944,43.034115 23.801705,43.034115 C 34.249466,43.034115 42.778251,34.505330 42.778251,24.057569 C 42.778251,13.609807 34.249466,5.0810234 23.801705,5.0810234 C 13.353944,5.0810234 4.8251594,13.609807 4.8251594,24.057569 L 4.8251594,24.057569 z M 16.339018,24.057569 C 16.339018,20.006396 19.750533,16.594882 23.801705,16.594882 C 27.852877,16.594882 31.264392,20.006396 31.264392,24.057569 C 31.264392,28.108741 27.852877,31.520255 23.801705,31.520255 C 19.750533,31.520255 16.339018,28.108741 16.339018,24.057569 z " fill="url(#p)" fill-rule="nonzero" stroke="#000" stroke-width="2" stroke-miterlimit="4" stroke-opacity="1" stroke-dasharray="none"/>
  <path d="M 8.0788572,32.833392 L 16.422615,28.024145 C 17.313216,29.627227 17.969909,30.200237 19.450660,31.135873 L 15.381788,39.780082 C 12.709983,38.711361 9.1475787,35.148956 8.0788572,32.833392 L 8.0788572,32.833392 z " fill="url(#q)" fill-opacity="1" fill-rule="nonzero" stroke="none" stroke-width=".85650003" stroke-miterlimit="4"/>
  <path d="M 32.832399,40.139375 L 27.697303,31.214762 C 29.241332,30.347806 30.036060,29.524049 30.978732,27.935716 L 40.292500,32.302450 C 39.144792,35.169619 35.319099,38.992509 32.832399,40.139375 L 32.832399,40.139375 z " fill="url(#r)" fill-opacity="1" fill-rule="nonzero" stroke="none" stroke-width=".85650003" stroke-miterlimit="4"/>
  <path d="M 39.631796,15.125391 L 31.100167,20.026539 C 30.163839,18.450240 29.380325,17.781560 28.014259,16.940630 L 32.189311,8.0459551 C 34.912171,9.1350991 38.542651,12.584055 39.631796,15.125391 z " fill="url(#s)" fill-rule="nonzero" stroke="none" stroke-width=".85650003" stroke-miterlimit="4"/>
  <path d="M 14.881246,8.1637208 L 19.835128,16.787146 C 18.183834,17.704531 17.449926,18.380973 16.629817,19.877524 L 7.7256379,15.686283 C 8.8265007,12.934125 12.312566,9.2645836 14.881246,8.1637208 z " fill="url(#t)" fill-opacity="1" fill-rule="nonzero" stroke="none" stroke-width=".85650003" stroke-miterlimit="4"/>
  <path style="marker:none" d="M 41.542524 24.135145 A 17.854446 17.854446 0 1 1  5.8336315,24.135145 A 17.854446 17.854446 0 1 1  41.542524 24.135145 z" opacity="1" color="#000" fill="none" fill-opacity="1" fill-rule="evenodd" stroke="url(#u)" stroke-width="1" stroke-linecap="round" stroke-linejoin="round" marker-start="none" marker-mid="none" marker-end="none" stroke-miterlimit="4" stroke-dasharray="none" stroke-dashoffset="0" stroke-opacity="1" visibility="visible" display="inline" overflow="visible"/>
</svg>
