<?xml version="1.0" encoding="UTF-8" standalone="no"?>
<!-- Generator: Adobe Illustrator 9.0, SVG Export Plug-In  -->
<svg
   xmlns:dc="http://purl.org/dc/elements/1.1/"
   xmlns:cc="http://web.resource.org/cc/"
   xmlns:rdf="http://www.w3.org/1999/02/22-rdf-syntax-ns#"
   xmlns:svg="http://www.w3.org/2000/svg"
   xmlns="http://www.w3.org/2000/svg"
   xmlns:xlink="http://www.w3.org/1999/xlink"
   xmlns:sodipodi="http://sodipodi.sourceforge.net/DTD/sodipodi-0.dtd"
   xmlns:inkscape="http://www.inkscape.org/namespaces/inkscape"
   sodipodi:docbase="/home/jimmac/gfx/ximian/gorilla-icon-theme/scalable/apps"
   sodipodi:docname="preferences-desktop-screensaver.svg"
   inkscape:version="0.44"
   sodipodi:version="0.32"
   id="svg4805"
   xml:space="preserve"
   viewBox="0 0 48 48.2"
   height="48.000000px"
   width="48.000000px"
   inkscape:output_extension="org.inkscape.output.svg.inkscape"><metadata
   id="metadata5041">
  <rdf:RDF>
    <cc:Work
   rdf:about="">
      <dc:format>image/svg+xml</dc:format>
      <dc:type
   rdf:resource="http://purl.org/dc/dcmitype/StillImage" />
      <dc:title>Screensaver</dc:title>
      <dc:creator>
        <cc:Agent>
          <dc:title>Jakub Steiner</dc:title>
        </cc:Agent>
      </dc:creator>
      <dc:subject>
        <rdf:Bag><rdf:li>display</rdf:li><rdf:li>screensaver</rdf:li><rdf:li>screen</rdf:li><rdf:li>saver</rdf:li></rdf:Bag>
      </dc:subject>
      <cc:license
   rdf:resource="http://creativecommons.org/licenses/by-sa/2.5/" />
      <dc:source>http://jimmac.musichall.cz</dc:source>
    </cc:Work>
    
  <cc:License
   rdf:about="http://creativecommons.org/licenses/by-sa/2.5/"><cc:permits
     rdf:resource="http://web.resource.org/cc/Reproduction" /><cc:permits
     rdf:resource="http://web.resource.org/cc/Distribution" /><cc:requires
     rdf:resource="http://web.resource.org/cc/Notice" /><cc:requires
     rdf:resource="http://web.resource.org/cc/Attribution" /><cc:permits
     rdf:resource="http://web.resource.org/cc/DerivativeWorks" /><cc:requires
     rdf:resource="http://web.resource.org/cc/ShareAlike" /></cc:License></rdf:RDF>
</metadata>
<defs
   id="defs5039"><linearGradient
     inkscape:collect="always"
     id="linearGradient2523"><stop
       style="stop-color:#ffffff;stop-opacity:1;"
       offset="0"
       id="stop2525" /><stop
       style="stop-color:#ffffff;stop-opacity:0;"
       offset="1"
       id="stop2527" /></linearGradient><linearGradient
     inkscape:collect="always"
     id="linearGradient2541"><stop
       style="stop-color:#fee964;stop-opacity:1;"
       offset="0"
       id="stop2543" /><stop
       style="stop-color:#fee964;stop-opacity:0;"
       offset="1"
       id="stop2545" /></linearGradient><linearGradient
     id="linearGradient6323">
  <stop
   id="stop6327"
   style="stop-color:#120751;stop-opacity:1.0000000;"
   offset="0.0000000" />
  <stop
   id="stop6325"
   style="stop-color:#7473b5;stop-opacity:1.0000000;"
   offset="1.0000000" />
</linearGradient><linearGradient
     id="linearGradient6317">
  <stop
   id="stop6321"
   style="stop-color:#e7ebef;stop-opacity:1.0000000;"
   offset="0.0000000" />
  <stop
   id="stop6319"
   style="stop-color:#52699f;stop-opacity:1.0000000;"
   offset="1.0000000" />
</linearGradient><linearGradient
     id="linearGradient6311">
  <stop
   id="stop6315"
   style="stop-color:#000000;stop-opacity:1.0000000;"
   offset="0.0000000" />
  <stop
   id="stop6313"
   style="stop-color:#3a4a70;stop-opacity:1.0000000;"
   offset="1.0000000" />
</linearGradient><radialGradient
     id="aigrd1"
     cx="24.1899"
     cy="29.9287"
     r="12.3883"
     fx="24.1899"
     fy="29.9287"
     gradientUnits="userSpaceOnUse">
			<stop
   offset="0"
   style="stop-color:#B6B6B6"
   id="stop4813" />

			<stop
   offset="1"
   style="stop-color:#878787"
   id="stop4815" />

		</radialGradient><linearGradient
     y2="22.132"
     x2="34.007599"
     y1="20.3232"
     x1="8.8944998"
     gradientUnits="userSpaceOnUse"
     id="aigrd3">
				<stop
   id="stop4832"
   style="stop-color:#F8F8F8"
   offset="0" />

				<stop
   id="stop4834"
   style="stop-color:#C9C9C9"
   offset="1" />

			</linearGradient><linearGradient
     y2="14.7483"
     x2="43.876801"
     y1="30.773399"
     x1="30.264601"
     gradientUnits="userSpaceOnUse"
     id="aigrd4">
				<stop
   id="stop4841"
   style="stop-color:#9F9F9F"
   offset="0" />

				<stop
   id="stop4843"
   style="stop-color:#828282"
   offset="1" />

			</linearGradient><linearGradient
     id="aigrd20"
     gradientUnits="userSpaceOnUse"
     x1="32.567402"
     y1="27.665001"
     x2="33.304798"
     y2="26.7969">
							<stop
   offset="0"
   style="stop-color:#9F9F9F"
   id="stop5027" />

							<stop
   offset="1"
   style="stop-color:#828282"
   id="stop5029" />

						</linearGradient><linearGradient
     id="aigrd19"
     gradientUnits="userSpaceOnUse"
     x1="33.077099"
     y1="24.5581"
     x2="33.815102"
     y2="23.6894">
							<stop
   offset="0"
   style="stop-color:#9F9F9F"
   id="stop5016" />

							<stop
   offset="1"
   style="stop-color:#828282"
   id="stop5018" />

						</linearGradient><linearGradient
     id="aigrd18"
     gradientUnits="userSpaceOnUse"
     x1="33.587898"
     y1="21.4531"
     x2="34.326"
     y2="20.5842">
							<stop
   offset="0"
   style="stop-color:#9F9F9F"
   id="stop5005" />

							<stop
   offset="1"
   style="stop-color:#828282"
   id="stop5007" />

						</linearGradient><linearGradient
     id="aigrd17"
     gradientUnits="userSpaceOnUse"
     x1="34.096699"
     y1="18.3472"
     x2="34.8358"
     y2="17.476999">
							<stop
   offset="0"
   style="stop-color:#9F9F9F"
   id="stop4994" />

							<stop
   offset="1"
   style="stop-color:#828282"
   id="stop4996" />

						</linearGradient><linearGradient
     id="aigrd16"
     gradientUnits="userSpaceOnUse"
     x1="34.607399"
     y1="15.2417"
     x2="35.346802"
     y2="14.3713">
							<stop
   offset="0"
   style="stop-color:#9F9F9F"
   id="stop4983" />

							<stop
   offset="1"
   style="stop-color:#828282"
   id="stop4985" />

						</linearGradient><linearGradient
     id="aigrd15"
     gradientUnits="userSpaceOnUse"
     x1="35.116199"
     y1="12.1353"
     x2="35.856098"
     y2="11.2642">
							<stop
   offset="0"
   style="stop-color:#9F9F9F"
   id="stop4972" />

							<stop
   offset="1"
   style="stop-color:#828282"
   id="stop4974" />

						</linearGradient><linearGradient
     id="aigrd14"
     gradientUnits="userSpaceOnUse"
     x1="34.630901"
     y1="12.1758"
     x2="35.658001"
     y2="10.9666">
							<stop
   offset="0"
   style="stop-color:#9F9F9F"
   id="stop4957" />

							<stop
   offset="1"
   style="stop-color:#828282"
   id="stop4959" />

						</linearGradient><linearGradient
     id="aigrd13"
     gradientUnits="userSpaceOnUse"
     x1="34.105499"
     y1="15.2808"
     x2="35.133099"
     y2="14.0709">
							<stop
   offset="0"
   style="stop-color:#9F9F9F"
   id="stop4946" />

							<stop
   offset="1"
   style="stop-color:#828282"
   id="stop4948" />

						</linearGradient><linearGradient
     id="aigrd12"
     gradientUnits="userSpaceOnUse"
     x1="33.579102"
     y1="18.3857"
     x2="34.606998"
     y2="17.175699">
							<stop
   offset="0"
   style="stop-color:#9F9F9F"
   id="stop4935" />

							<stop
   offset="1"
   style="stop-color:#828282"
   id="stop4937" />

						</linearGradient><linearGradient
     id="aigrd11"
     gradientUnits="userSpaceOnUse"
     x1="33.054699"
     y1="21.492201"
     x2="34.083199"
     y2="20.281401">
							<stop
   offset="0"
   style="stop-color:#9F9F9F"
   id="stop4924" />

							<stop
   offset="1"
   style="stop-color:#828282"
   id="stop4926" />

						</linearGradient><linearGradient
     id="aigrd10"
     gradientUnits="userSpaceOnUse"
     x1="32.528301"
     y1="24.5972"
     x2="33.556999"
     y2="23.386101">
							<stop
   offset="0"
   style="stop-color:#9F9F9F"
   id="stop4913" />

							<stop
   offset="1"
   style="stop-color:#828282"
   id="stop4915" />

						</linearGradient><linearGradient
     id="aigrd9"
     gradientUnits="userSpaceOnUse"
     x1="32.003899"
     y1="27.7031"
     x2="33.033199"
     y2="26.4914">
							<stop
   offset="0"
   style="stop-color:#9F9F9F"
   id="stop4902" />

							<stop
   offset="1"
   style="stop-color:#828282"
   id="stop4904" />

						</linearGradient><linearGradient
     inkscape:collect="always"
     xlink:href="#aigrd20"
     id="linearGradient3295"
     gradientUnits="userSpaceOnUse"
     gradientTransform="translate(-2.344373,-4.985596e-14)"
     x1="32.5674"
     y1="27.665"
     x2="33.3048"
     y2="26.7969" /><linearGradient
     inkscape:collect="always"
     xlink:href="#aigrd19"
     id="linearGradient3299"
     gradientUnits="userSpaceOnUse"
     gradientTransform="translate(-2.344373,-4.985596e-14)"
     x1="33.0771"
     y1="24.5581"
     x2="33.8151"
     y2="23.6894" /><linearGradient
     inkscape:collect="always"
     xlink:href="#aigrd18"
     id="linearGradient3303"
     gradientUnits="userSpaceOnUse"
     gradientTransform="translate(-2.344373,-4.985596e-14)"
     x1="33.5879"
     y1="21.4531"
     x2="34.326"
     y2="20.5842" /><linearGradient
     inkscape:collect="always"
     xlink:href="#aigrd17"
     id="linearGradient3307"
     gradientUnits="userSpaceOnUse"
     gradientTransform="translate(-2.344373,-4.985596e-14)"
     x1="34.0967"
     y1="18.3472"
     x2="34.8358"
     y2="17.477" /><linearGradient
     inkscape:collect="always"
     xlink:href="#aigrd16"
     id="linearGradient3311"
     gradientUnits="userSpaceOnUse"
     gradientTransform="translate(-2.344373,-4.985596e-14)"
     x1="34.6074"
     y1="15.2417"
     x2="35.3468"
     y2="14.3713" /><linearGradient
     inkscape:collect="always"
     xlink:href="#aigrd15"
     id="linearGradient3315"
     gradientUnits="userSpaceOnUse"
     gradientTransform="translate(-2.344373,-4.985596e-14)"
     x1="35.1162"
     y1="12.1353"
     x2="35.8561"
     y2="11.2642" /><linearGradient
     inkscape:collect="always"
     xlink:href="#aigrd14"
     id="linearGradient3319"
     gradientUnits="userSpaceOnUse"
     gradientTransform="translate(-2.344373,-4.985596e-14)"
     x1="34.6309"
     y1="12.1758"
     x2="35.658"
     y2="10.9666" /><linearGradient
     inkscape:collect="always"
     xlink:href="#aigrd13"
     id="linearGradient3323"
     gradientUnits="userSpaceOnUse"
     gradientTransform="translate(-2.344373,-4.985596e-14)"
     x1="34.1055"
     y1="15.2808"
     x2="35.1331"
     y2="14.0709" /><linearGradient
     inkscape:collect="always"
     xlink:href="#aigrd12"
     id="linearGradient3327"
     gradientUnits="userSpaceOnUse"
     gradientTransform="translate(-2.344373,-4.985596e-14)"
     x1="33.5791"
     y1="18.3857"
     x2="34.607"
     y2="17.1757" /><linearGradient
     inkscape:collect="always"
     xlink:href="#aigrd11"
     id="linearGradient3331"
     gradientUnits="userSpaceOnUse"
     gradientTransform="translate(-2.344373,-4.985596e-14)"
     x1="33.0547"
     y1="21.4922"
     x2="34.0832"
     y2="20.2814" /><linearGradient
     inkscape:collect="always"
     xlink:href="#aigrd10"
     id="linearGradient3335"
     gradientUnits="userSpaceOnUse"
     gradientTransform="translate(-2.344373,-4.985596e-14)"
     x1="32.5283"
     y1="24.5972"
     x2="33.557"
     y2="23.3861" /><linearGradient
     inkscape:collect="always"
     xlink:href="#aigrd9"
     id="linearGradient3339"
     gradientUnits="userSpaceOnUse"
     gradientTransform="translate(-2.344373,-4.985596e-14)"
     x1="32.0039"
     y1="27.7031"
     x2="33.0332"
     y2="26.4914" /><linearGradient
     inkscape:collect="always"
     xlink:href="#linearGradient6317"
     id="linearGradient3342"
     gradientUnits="userSpaceOnUse"
     gradientTransform="matrix(1.000000,-2.300000e-3,2.300000e-3,1.000000,-2.594273,0.270600)"
     spreadMethod="pad"
     x1="20.882799"
     y1="9.0415001"
     x2="20.882799"
     y2="16.484100" /><linearGradient
     inkscape:collect="always"
     xlink:href="#linearGradient6323"
     id="linearGradient3345"
     gradientUnits="userSpaceOnUse"
     gradientTransform="matrix(1.000000,-2.300000e-3,2.300000e-3,1.000000,-2.594273,0.270600)"
     spreadMethod="pad"
     x1="20.356001"
     y1="9.8906002"
     x2="20.356001"
     y2="28.504700" /><linearGradient
     inkscape:collect="always"
     xlink:href="#linearGradient6311"
     id="linearGradient3348"
     gradientUnits="userSpaceOnUse"
     gradientTransform="matrix(1.000000,-2.300000e-3,2.300000e-3,1.000000,-2.594273,0.270600)"
     spreadMethod="pad"
     x1="20.087400"
     y1="9.8232002"
     x2="20.087400"
     y2="28.438700" /><linearGradient
     inkscape:collect="always"
     xlink:href="#aigrd4"
     id="linearGradient3353"
     gradientUnits="userSpaceOnUse"
     gradientTransform="translate(-2.344373,-4.985596e-14)"
     x1="30.2646"
     y1="30.7734"
     x2="43.8768"
     y2="14.7483" /><linearGradient
     inkscape:collect="always"
     xlink:href="#aigrd3"
     id="linearGradient3356"
     gradientUnits="userSpaceOnUse"
     gradientTransform="translate(-2.344373,-4.985596e-14)"
     x1="8.8945"
     y1="20.3232"
     x2="34.0076"
     y2="22.132" /><radialGradient
     inkscape:collect="always"
     xlink:href="#aigrd1"
     id="radialGradient3360"
     gradientUnits="userSpaceOnUse"
     gradientTransform="translate(-2.344373,-4.973800e-14)"
     cx="24.1899"
     cy="29.9287"
     fx="24.1899"
     fy="29.9287"
     r="12.3883" /><radialGradient
     inkscape:collect="always"
     xlink:href="#aigrd1"
     id="radialGradient3363"
     gradientUnits="userSpaceOnUse"
     gradientTransform="matrix(1.004167,0.000000,0.000000,1.004167,-2.315739,0.321402)"
     cx="24.1899"
     cy="29.9287"
     fx="24.1899"
     fy="29.9287"
     r="12.3883" /><radialGradient
     inkscape:collect="always"
     xlink:href="#linearGradient2541"
     id="radialGradient3404"
     gradientUnits="userSpaceOnUse"
     cx="16.086679"
     cy="13.970486"
     fx="16.086679"
     fy="13.970486"
     r="1.767767" /><radialGradient
     inkscape:collect="always"
     xlink:href="#linearGradient2523"
     id="radialGradient3406"
     gradientUnits="userSpaceOnUse"
     gradientTransform="matrix(1.952381,0.000000,0.000000,1.952381,-12.96362,-11.03238)"
     cx="13.611806"
     cy="11.584001"
     fx="13.611806"
     fy="11.584001"
     r="1.8561553" /><radialGradient
     inkscape:collect="always"
     xlink:href="#linearGradient2541"
     id="radialGradient3408"
     gradientUnits="userSpaceOnUse"
     cx="16.086679"
     cy="13.970486"
     fx="16.086679"
     fy="13.970486"
     r="1.767767" /><radialGradient
     inkscape:collect="always"
     xlink:href="#linearGradient2523"
     id="radialGradient3410"
     gradientUnits="userSpaceOnUse"
     gradientTransform="matrix(1.952381,0.000000,0.000000,1.952381,-12.96362,-11.03238)"
     cx="13.611806"
     cy="11.584001"
     fx="13.611806"
     fy="11.584001"
     r="1.8561553" /><radialGradient
     inkscape:collect="always"
     xlink:href="#linearGradient2541"
     id="radialGradient3412"
     gradientUnits="userSpaceOnUse"
     cx="16.086679"
     cy="13.970486"
     fx="16.086679"
     fy="13.970486"
     r="1.767767" /><radialGradient
     inkscape:collect="always"
     xlink:href="#linearGradient2523"
     id="radialGradient3414"
     gradientUnits="userSpaceOnUse"
     gradientTransform="matrix(1.952381,0.000000,0.000000,1.952381,-12.96362,-11.03238)"
     cx="13.611806"
     cy="11.584001"
     fx="13.611806"
     fy="11.584001"
     r="1.8561553" /><radialGradient
     inkscape:collect="always"
     xlink:href="#linearGradient2541"
     id="radialGradient3416"
     gradientUnits="userSpaceOnUse"
     cx="16.086679"
     cy="13.970486"
     fx="16.086679"
     fy="13.970486"
     r="1.767767" /><radialGradient
     inkscape:collect="always"
     xlink:href="#linearGradient2523"
     id="radialGradient3418"
     gradientUnits="userSpaceOnUse"
     gradientTransform="matrix(1.952381,0.000000,0.000000,1.952381,-12.96362,-11.03238)"
     cx="13.611806"
     cy="11.584001"
     fx="13.611806"
     fy="11.584001"
     r="1.8561553" /></defs>
<sodipodi:namedview
   inkscape:current-layer="svg4805"
   inkscape:window-y="379"
   inkscape:window-x="443"
   inkscape:cy="5.6313414"
   inkscape:cx="72.883468"
   inkscape:zoom="4"
   id="base"
   pagecolor="#ffffff"
   bordercolor="#666666"
   borderopacity="0.29803922"
   inkscape:pageopacity="0.0"
   inkscape:pageshadow="2"
   inkscape:window-width="810"
   inkscape:window-height="619"
   inkscape:showpageshadow="false" />

	










	
<path
   sodipodi:type="arc"
   style="opacity:0.2;color:black;fill:black;fill-opacity:1;fill-rule:nonzero;stroke:none;stroke-width:1.00194728;stroke-linecap:round;stroke-linejoin:round;marker:none;marker-start:none;marker-mid:none;marker-end:none;stroke-miterlimit:4;stroke-dasharray:none;stroke-dashoffset:0;stroke-opacity:1;visibility:visible;display:inline;overflow:visible"
   id="path5661"
   sodipodi:cx="9.4395838"
   sodipodi:cy="29.873959"
   sodipodi:rx="36.652084"
   sodipodi:ry="18.326042"
   d="M 46.091668 29.873959 A 36.652084 18.326042 0 1 1  -27.212501,29.873959 A 36.652084 18.326042 0 1 1  46.091668 29.873959 z"
   transform="matrix(0.424959,0,0,0.440543,20.28011,24.25076)" /><path
   sodipodi:nodetypes="csccccccccccccsscs"
   id="path5436"
   d="M 8.0057453,4.2381775 C 7.3123003,4.17161 7.0344777,4.6442257 6.9074379,5.4933863 L 3.330093,29.405112 C 3.230092,30.105112 3.7342601,30.805503 4.33426,31.005503 L 14.909388,34.112145 C 14.864086,34.215096 14.812662,34.320562 14.783867,34.425947 C 14.776181,34.385133 14.727136,34.340621 14.721107,34.300426 C 14.701911,34.37721 14.734348,34.444681 14.721107,34.520087 C 14.690234,34.661371 14.532825,34.783093 14.532825,34.92803 L 14.532825,36.120479 C 14.532825,38.620481 19.119675,40.60785 24.919678,40.60785 C 30.61968,40.607852 35.24377,38.62048 35.24377,36.120479 L 35.24377,34.92803 C 35.24377,34.205752 34.766219,33.553712 34.082702,32.951076 L 37.848328,10.42008 C 37.948599,9.820126 37.662941,9.227806 37.095203,9.1334916 L 27.461475,7.5331005 C 27.461475,7.5331005 8.0057453,4.2381775 8.0057453,4.2381775 z "
   style="fill:url(#radialGradient3363);fill-rule:nonzero;stroke:#000000;stroke-width:4.05054474;stroke-linecap:round;stroke-linejoin:round;stroke-miterlimit:4;stroke-dasharray:none;stroke-opacity:1" /><path
   style="fill:url(#radialGradient3360);fill-rule:nonzero;stroke:none;stroke-miterlimit:4"
   d="M 24.555627,30.1 C 18.855627,30.1 14.155627,32.1 14.155627,34.6 L 14.155627,35.8 C 14.155627,38.3 18.755627,40.3 24.555627,40.3 C 30.255627,40.3 34.855627,38.3 34.855627,35.8 L 34.855627,34.6 C 34.855627,32.1 30.255627,30.1 24.555627,30.1 L 24.555627,30.1 z "
   id="path4819" /><path
   style="fill:#b3b3b3;fill-rule:nonzero;stroke:none;stroke-miterlimit:4"
   d="M 14.355627,34 C 14.655627,36 16.955627,38.8 26.355627,39 C 19.155627,39.7 13.455627,37.6 14.355627,34 z "
   id="path4821" /><path
   id="path4836"
   d="M 7.8556273,4.3 C 7.1556273,4.2 6.555627,4.7 6.455627,5.3 L 2.955627,29.1 C 2.855627,29.8 3.355627,30.5 3.955627,30.7 L 29.255627,38.1 C 29.955627,38.3 30.555627,37.9 30.655627,37.2 L 35.455627,10.2 C 35.555627,9.5 35.155627,8.9 34.455627,8.7 L 7.8556273,4.3 z "
   style="fill:url(#linearGradient3356);fill-rule:nonzero;stroke:none;stroke-miterlimit:4" /><path
   id="path4845"
   d="M 32.955627,36.6 C 32.855627,37.3 32.255627,38 31.555627,38.1 C 30.855627,38.2 30.455627,37.8 30.655627,37.1 L 35.455627,10.1 C 35.555627,9.4 36.155627,8.9 36.655627,8.9 C 37.155627,8.9 37.555627,9.5 37.455627,10.1 L 33.055627,36.6 L 32.955627,36.6 z "
   style="fill:url(#linearGradient3353);fill-rule:nonzero;stroke:none;stroke-miterlimit:4" /><path
   style="fill:#848484;fill-rule:nonzero;stroke:none;stroke-miterlimit:4"
   d="M 31.655627,38.2 C 31.055627,38.5 30.355627,38.5 29.555627,38.2 C 30.255627,38 30.655627,37.4 30.655627,37.4 C 30.655627,37.4 30.755627,38.3 31.655627,38.2 z "
   id="path4856" /><path
   sodipodi:nodetypes="cccccsccc"
   style="fill:#ffffff;fill-rule:nonzero;stroke:none;stroke-miterlimit:4"
   d="M 34.499272,8.9559885 C 35.099272,9.0559885 35.599272,9.1559885 35.199272,10.655988 L 32.999272,23.755988 L 35.599272,10.055988 C 35.699272,9.2559885 36.199272,8.8561373 36.798974,8.922556 C 36.798974,8.922556 8.8528103,4.2555422 8.1205683,4.1445964 C 6.7858834,3.9423714 6.565839,4.6781777 6.465839,5.2781777 C 6.7658394,4.6781777 6.8992719,4.3559885 7.5992723,4.4559885 L 34.499272,8.9559885 z "
   id="path4858" /><path
   id="path4869"
   d="M 25.838,32.311768 L 5.555627,26.5 L 8.6066693,6.8 L 29.455627,10.5 L 25.838,32.311768 z "
   style="fill:url(#linearGradient3348);fill-rule:nonzero;stroke:#000000;stroke-width:0.5984;stroke-miterlimit:4"
   sodipodi:nodetypes="ccccc" /><path
   id="path4876"
   d="M 26.055627,32.3 L 5.855627,26.5 L 8.9694293,6.9255208 L 29.755627,10.5 L 26.055627,32.3 z "
   style="fill:url(#linearGradient3345);fill-rule:nonzero;stroke:none;stroke-miterlimit:4"
   sodipodi:nodetypes="ccccc" /><path
   style="opacity:0.57999998;fill:url(#linearGradient3342);fill-rule:nonzero;stroke:none;stroke-miterlimit:4"
   d="M 9.7556273,8 C 9.6556273,8 9.5556273,8.2 9.4556273,8.4 L 8.1556273,17.8 C 8.1556273,18 8.1556273,18.2 8.3556273,18.2 C 13.855627,18.2 22.955627,15.7 28.055627,13.3 C 28.255627,13.2 28.355627,13 28.355627,12.7 L 28.455627,11.8 C 28.455627,11.5 28.455627,11.3 28.255627,11.3 L 9.7556273,8 z "
   id="path4885" /><path
   style="fill:url(#linearGradient3339);fill-rule:nonzero;stroke:none;stroke-miterlimit:4"
   d="M 31.655627,27.2 L 28.955627,26.6 L 28.855627,27.3 L 31.755627,27.2 L 31.655627,27.2 z "
   id="path4906" /><path
   style="fill:#dedede;fill-rule:nonzero;stroke:none;stroke-miterlimit:4"
   d="M 31.455627,27.9 L 31.655627,27.2 L 28.755627,27.3 L 31.455627,27.9 L 31.455627,27.9 z "
   id="path4908" /><path
   style="fill:url(#linearGradient3335);fill-rule:nonzero;stroke:none;stroke-miterlimit:4"
   d="M 32.255627,24.1 L 29.555627,23.5 L 29.455627,24.2 L 32.355627,24.1 L 32.255627,24.1 z "
   id="path4917" /><path
   style="fill:#dedede;fill-rule:nonzero;stroke:none;stroke-miterlimit:4"
   d="M 32.055627,24.8 L 32.255627,24.1 L 29.355627,24.2 L 32.055627,24.8 L 32.055627,24.8 z "
   id="path4919" /><path
   style="fill:url(#linearGradient3331);fill-rule:nonzero;stroke:none;stroke-miterlimit:4"
   d="M 32.755627,21 L 30.055627,20.4 L 29.955627,21.1 L 32.855627,21 L 32.755627,21 z "
   id="path4928" /><path
   style="fill:#dedede;fill-rule:nonzero;stroke:none;stroke-miterlimit:4"
   d="M 32.555627,21.7 L 32.755627,21 L 29.855627,21.1 L 32.555627,21.7 L 32.555627,21.7 z "
   id="path4930" /><path
   style="fill:url(#linearGradient3327);fill-rule:nonzero;stroke:none;stroke-miterlimit:4"
   d="M 33.255627,17.9 L 30.555627,17.3 L 30.455627,18 L 33.355627,17.9 L 33.255627,17.9 z "
   id="path4939" /><path
   style="fill:#dedede;fill-rule:nonzero;stroke:none;stroke-miterlimit:4"
   d="M 33.055627,18.6 L 33.255627,17.9 L 30.455627,18 L 33.155627,18.6 L 33.055627,18.6 z "
   id="path4941" /><path
   style="fill:url(#linearGradient3323);fill-rule:nonzero;stroke:none;stroke-miterlimit:4"
   d="M 33.755627,14.8 L 31.055627,14.2 L 30.955627,14.9 L 33.855627,14.8 L 33.755627,14.8 z "
   id="path4950" /><path
   style="fill:#dedede;fill-rule:nonzero;stroke:none;stroke-miterlimit:4"
   d="M 33.555627,15.5 L 33.755627,14.8 L 30.855627,14.9 L 33.555627,15.5 L 33.555627,15.5 z "
   id="path4952" /><path
   style="fill:url(#linearGradient3319);fill-rule:nonzero;stroke:none;stroke-miterlimit:4"
   d="M 34.355627,11.7 L 31.655627,11.1 L 31.555627,11.8 L 34.455627,11.7 L 34.355627,11.7 z "
   id="path4961" /><path
   style="fill:#dedede;fill-rule:nonzero;stroke:none;stroke-miterlimit:4"
   d="M 34.155627,12.4 L 34.355627,11.7 L 31.455627,11.8 L 34.155627,12.4 L 34.155627,12.4 z "
   id="path4963" /><path
   style="fill:url(#linearGradient3315);fill-rule:nonzero;stroke:none;stroke-miterlimit:4"
   d="M 31.955627,11.7 L 33.955627,12.1 L 34.055627,11.6 L 31.955627,11.7 z "
   id="path4976" /><path
   style="fill:#dedede;fill-rule:nonzero;stroke:none;stroke-miterlimit:4"
   d="M 32.155627,11.2 L 32.055627,11.7 L 34.155627,11.6 L 32.255627,11.2 L 32.155627,11.2 z "
   id="path4978" /><path
   style="fill:url(#linearGradient3311);fill-rule:nonzero;stroke:none;stroke-miterlimit:4"
   d="M 31.455627,14.8 L 33.455627,15.2 L 33.555627,14.7 L 31.455627,14.8 z "
   id="path4987" /><path
   style="fill:#dedede;fill-rule:nonzero;stroke:none;stroke-miterlimit:4"
   d="M 31.655627,14.3 L 31.555627,14.8 L 33.655627,14.7 L 31.655627,14.3 z "
   id="path4989" /><path
   style="fill:url(#linearGradient3307);fill-rule:nonzero;stroke:none;stroke-miterlimit:4"
   d="M 30.955627,17.9 L 32.955627,18.3 L 33.055627,17.8 L 30.955627,17.9 z "
   id="path4998" /><path
   style="fill:#dedede;fill-rule:nonzero;stroke:none;stroke-miterlimit:4"
   d="M 31.155627,17.4 L 31.055627,17.9 L 33.155627,17.8 L 31.255627,17.4 L 31.155627,17.4 z "
   id="path5000" /><path
   style="fill:url(#linearGradient3303);fill-rule:nonzero;stroke:none;stroke-miterlimit:4"
   d="M 30.455627,21 L 32.455627,21.4 L 32.555627,20.9 L 30.455627,21 z "
   id="path5009" /><path
   style="fill:#dedede;fill-rule:nonzero;stroke:none;stroke-miterlimit:4"
   d="M 30.555627,20.5 L 30.455627,21 L 32.555627,20.9 L 30.655627,20.5 L 30.555627,20.5 z "
   id="path5011" /><path
   style="fill:url(#linearGradient3299);fill-rule:nonzero;stroke:none;stroke-miterlimit:4"
   d="M 29.955627,24.1 L 31.955627,24.5 L 32.055627,24 L 29.955627,24.1 z "
   id="path5020" /><path
   style="fill:#dedede;fill-rule:nonzero;stroke:none;stroke-miterlimit:4"
   d="M 30.055627,23.6 L 29.955627,24.1 L 32.055627,24 L 30.155627,23.6 L 30.055627,23.6 z "
   id="path5022" /><path
   style="fill:url(#linearGradient3295);fill-rule:nonzero;stroke:none;stroke-miterlimit:4"
   d="M 29.455627,27.2 L 31.455627,27.6 L 31.555627,27.1 L 29.455627,27.2 L 29.455627,27.2 z "
   id="path5031" /><path
   style="fill:#dedede;fill-rule:nonzero;stroke:none;stroke-miterlimit:4"
   d="M 29.555627,26.7 L 29.455627,27.2 L 31.555627,27.1 L 29.655627,26.7 L 29.555627,26.7 z "
   id="path5033" /><path
   style="opacity:1;color:#000000;fill:#fce94f;fill-opacity:1;fill-rule:nonzero;stroke:#edd400;stroke-width:1.00416708;stroke-linecap:butt;stroke-linejoin:miter;marker:none;marker-start:none;marker-mid:none;marker-end:none;stroke-miterlimit:4;stroke-dasharray:none;stroke-dashoffset:0;stroke-opacity:1;visibility:visible;display:inline;overflow:visible"
   d="M 24.031056,17.911141 C 24.067557,23.699257 19.620634,27.060171 14.182263,23.694684 C 14.281025,25.465946 19.084571,29.972544 23.211415,26.699361 C 27.307523,23.450556 25.566137,19.303854 24.031056,17.911141 z "
   id="path2317"
   sodipodi:nodetypes="cczc" /><path
   sodipodi:type="arc"
   style="opacity:1;color:#000000;fill:url(#radialGradient3404);fill-opacity:1;fill-rule:nonzero;stroke:none;stroke-width:2;stroke-linecap:butt;stroke-linejoin:miter;marker:none;marker-start:none;marker-mid:none;marker-end:none;stroke-miterlimit:4;stroke-dasharray:none;stroke-dashoffset:0;stroke-opacity:1;visibility:visible;display:inline;overflow:visible"
   id="path2531"
   sodipodi:cx="16.086679"
   sodipodi:cy="13.970486"
   sodipodi:rx="1.767767"
   sodipodi:ry="1.767767"
   d="M 17.854446 13.970486 A 1.767767 1.767767 0 1 1  14.318913,13.970486 A 1.767767 1.767767 0 1 1  17.854446 13.970486 z"
   transform="matrix(1.004167,0.000000,0.000000,1.004167,-4.855755,-0.766408)" /><path
   sodipodi:type="star"
   style="opacity:1;color:#000000;fill:url(#radialGradient3406);fill-opacity:1;fill-rule:nonzero;stroke:none;stroke-width:1;stroke-linecap:butt;stroke-linejoin:miter;marker:none;marker-start:none;marker-mid:none;marker-end:none;stroke-miterlimit:4;stroke-dasharray:none;stroke-dashoffset:0;stroke-opacity:1;visibility:visible;display:inline;overflow:visible"
   id="path3195"
   sodipodi:sides="4"
   sodipodi:cx="13.611806"
   sodipodi:cy="11.584001"
   sodipodi:r1="3.3587573"
   sodipodi:r2="0.41583434"
   sodipodi:arg1="-2.8980964e-09"
   sodipodi:arg2="0.69724012"
   inkscape:flatsided="false"
   inkscape:rounded="0"
   inkscape:randomized="0"
   d="M 16.970563,11.584001 L 13.930592,11.85101 L 13.611806,14.942758 L 13.344797,11.902786 L 10.253049,11.584001 L 13.29302,11.316992 L 13.611806,8.2252433 L 13.878815,11.265215 L 16.970563,11.584001 z "
   transform="matrix(1.004167,0.000000,0.000000,1.004167,-2.370568,1.630021)" /><path
   transform="matrix(0.634211,0.000000,0.000000,0.634211,9.083703,3.869519)"
   d="M 17.854446 13.970486 A 1.767767 1.767767 0 1 1  14.318913,13.970486 A 1.767767 1.767767 0 1 1  17.854446 13.970486 z"
   sodipodi:ry="1.767767"
   sodipodi:rx="1.767767"
   sodipodi:cy="13.970486"
   sodipodi:cx="16.086679"
   id="path2555"
   style="opacity:1;color:#000000;fill:url(#radialGradient3408);fill-opacity:1;fill-rule:nonzero;stroke:none;stroke-width:2;stroke-linecap:butt;stroke-linejoin:miter;marker:none;marker-start:none;marker-mid:none;marker-end:none;stroke-miterlimit:4;stroke-dasharray:none;stroke-dashoffset:0;stroke-opacity:1;visibility:visible;display:inline;overflow:visible"
   sodipodi:type="arc" /><path
   d="M 16.970563,11.584001 L 13.930592,11.85101 L 13.611806,14.942758 L 13.344797,11.902786 L 10.253049,11.584001 L 13.29302,11.316992 L 13.611806,8.2252433 L 13.878815,11.265215 L 16.970563,11.584001 z "
   inkscape:randomized="0"
   inkscape:rounded="0"
   inkscape:flatsided="false"
   sodipodi:arg2="0.69724012"
   sodipodi:arg1="-2.8980964e-09"
   sodipodi:r2="0.41583434"
   sodipodi:r1="3.3587573"
   sodipodi:cy="11.584001"
   sodipodi:cx="13.611806"
   sodipodi:sides="4"
   id="path2557"
   style="opacity:1;color:#000000;fill:url(#radialGradient3410);fill-opacity:1;fill-rule:nonzero;stroke:none;stroke-width:1;stroke-linecap:butt;stroke-linejoin:miter;marker:none;marker-start:none;marker-mid:none;marker-end:none;stroke-miterlimit:4;stroke-dasharray:none;stroke-dashoffset:0;stroke-opacity:1;visibility:visible;display:inline;overflow:visible"
   sodipodi:type="star"
   transform="matrix(0.634211,0.000000,0.000000,0.634211,10.65330,5.383054)" /><path
   sodipodi:type="arc"
   style="opacity:1;color:#000000;fill:url(#radialGradient3412);fill-opacity:1;fill-rule:nonzero;stroke:none;stroke-width:2;stroke-linecap:butt;stroke-linejoin:miter;marker:none;marker-start:none;marker-mid:none;marker-end:none;stroke-miterlimit:4;stroke-dasharray:none;stroke-dashoffset:0;stroke-opacity:1;visibility:visible;display:inline;overflow:visible"
   id="path2565"
   sodipodi:cx="16.086679"
   sodipodi:cy="13.970486"
   sodipodi:rx="1.767767"
   sodipodi:ry="1.767767"
   d="M 17.854446 13.970486 A 1.767767 1.767767 0 1 1  14.318913,13.970486 A 1.767767 1.767767 0 1 1  17.854446 13.970486 z"
   transform="matrix(0.634211,0.000000,0.000000,0.634211,5.710960,9.993725)" /><path
   sodipodi:type="star"
   style="opacity:1;color:#000000;fill:url(#radialGradient3414);fill-opacity:1;fill-rule:nonzero;stroke:none;stroke-width:1;stroke-linecap:butt;stroke-linejoin:miter;marker:none;marker-start:none;marker-mid:none;marker-end:none;stroke-miterlimit:4;stroke-dasharray:none;stroke-dashoffset:0;stroke-opacity:1;visibility:visible;display:inline;overflow:visible"
   id="path2567"
   sodipodi:sides="4"
   sodipodi:cx="13.611806"
   sodipodi:cy="11.584001"
   sodipodi:r1="3.3587573"
   sodipodi:r2="0.41583434"
   sodipodi:arg1="-2.8980964e-09"
   sodipodi:arg2="0.69724012"
   inkscape:flatsided="false"
   inkscape:rounded="0"
   inkscape:randomized="0"
   d="M 16.970563,11.584001 L 13.930592,11.85101 L 13.611806,14.942758 L 13.344797,11.902786 L 10.253049,11.584001 L 13.29302,11.316992 L 13.611806,8.2252433 L 13.878815,11.265215 L 16.970563,11.584001 z "
   transform="matrix(0.634211,0.000000,0.000000,0.634211,7.280553,11.50726)" /><path
   transform="matrix(0.634211,0.000000,0.000000,0.634211,0.563080,11.68009)"
   d="M 17.854446 13.970486 A 1.767767 1.767767 0 1 1  14.318913,13.970486 A 1.767767 1.767767 0 1 1  17.854446 13.970486 z"
   sodipodi:ry="1.767767"
   sodipodi:rx="1.767767"
   sodipodi:cy="13.970486"
   sodipodi:cx="16.086679"
   id="path2578"
   style="opacity:1;color:#000000;fill:url(#radialGradient3416);fill-opacity:1;fill-rule:nonzero;stroke:none;stroke-width:2;stroke-linecap:butt;stroke-linejoin:miter;marker:none;marker-start:none;marker-mid:none;marker-end:none;stroke-miterlimit:4;stroke-dasharray:none;stroke-dashoffset:0;stroke-opacity:1;visibility:visible;display:inline;overflow:visible"
   sodipodi:type="arc" /><path
   d="M 16.970563,11.584001 L 13.930592,11.85101 L 13.611806,14.942758 L 13.344797,11.902786 L 10.253049,11.584001 L 13.29302,11.316992 L 13.611806,8.2252433 L 13.878815,11.265215 L 16.970563,11.584001 z "
   inkscape:randomized="0"
   inkscape:rounded="0"
   inkscape:flatsided="false"
   sodipodi:arg2="0.69724012"
   sodipodi:arg1="-2.8980964e-09"
   sodipodi:r2="0.41583434"
   sodipodi:r1="3.3587573"
   sodipodi:cy="11.584001"
   sodipodi:cx="13.611806"
   sodipodi:sides="4"
   id="path2580"
   style="opacity:1;color:#000000;fill:url(#radialGradient3418);fill-opacity:1;fill-rule:nonzero;stroke:none;stroke-width:1;stroke-linecap:butt;stroke-linejoin:miter;marker:none;marker-start:none;marker-mid:none;marker-end:none;stroke-miterlimit:4;stroke-dasharray:none;stroke-dashoffset:0;stroke-opacity:1;visibility:visible;display:inline;overflow:visible"
   sodipodi:type="star"
   transform="matrix(0.634211,0.000000,0.000000,0.634211,2.132672,13.19363)" /></svg>