<?xml version="1.0" standalone="no"?>
<!--Created with Inkscape (http://www.inkscape.org/)-->
<svg xmlns="http://www.w3.org/2000/svg" xmlns:xlink="http://www.w3.org/1999/xlink" viewBox="0 0 48 48">
  <defs>
    <linearGradient id="k">
      <stop offset="0" stop-color="#fff" stop-opacity="1"/>
      <stop offset="1" stop-color="#fff" stop-opacity="0"/>
    </linearGradient>
    <linearGradient id="j">
      <stop offset="0" stop-color="#fff" stop-opacity="1"/>
      <stop offset="1" stop-color="#fff" stop-opacity="0"/>
    </linearGradient>
    <linearGradient id="i">
      <stop offset="0" stop-color="#fff" stop-opacity="1"/>
      <stop offset="1" stop-color="#fff" stop-opacity="0"/>
    </linearGradient>
    <linearGradient id="h">
      <stop offset="0" stop-color="#fff" stop-opacity="1"/>
      <stop offset="1" stop-color="#fff" stop-opacity="0"/>
    </linearGradient>
    <linearGradient id="g">
      <stop offset="0" stop-color="#000" stop-opacity="1"/>
      <stop offset="1" stop-color="#000" stop-opacity="0"/>
    </linearGradient>
    <linearGradient id="f">
      <stop offset="0" stop-color="#727e0a" stop-opacity="1"/>
      <stop offset="1.0000000" stop-color="#5b6508" stop-opacity="1"/>
    </linearGradient>
    <linearGradient id="e">
      <stop offset="0.0000000" stop-color="#e9b15e" stop-opacity="1"/>
      <stop offset="1.0000000" stop-color="#966416" stop-opacity="1"/>
    </linearGradient>
    <linearGradient id="c">
      <stop offset="0.0000000" stop-color="#3b74bc" stop-opacity="1"/>
      <stop offset="1.0000000" stop-color="#2d5990" stop-opacity="1"/>
    </linearGradient>
    <linearGradient id="b">
      <stop offset="0" stop-color="#fff" stop-opacity="1"/>
      <stop offset="1.0000000" stop-color="#c9c9c9" stop-opacity="1"/>
    </linearGradient>
    <linearGradient id="a">
      <stop offset="0" stop-color="#000" stop-opacity="1"/>
      <stop offset="1" stop-color="#000" stop-opacity="0"/>
    </linearGradient>
    <linearGradient id="d">
      <stop offset="0.0000000" stop-color="#f4d9b1" stop-opacity="1"/>
      <stop offset="1.0000000" stop-color="#df9725" stop-opacity="1"/>
    </linearGradient>
    <radialGradient xlink:href="#a" id="w" cx="31.112698" cy="19.008621" fx="31.112698" fy="19.008621" r="8.6620579" gradientUnits="userSpaceOnUse"/>
    <linearGradient xlink:href="#b" id="u" x1="30.935921" y1="29.553486" x2="30.935921" y2="35.803486" gradientUnits="userSpaceOnUse"/>
    <radialGradient xlink:href="#c" id="t" cx="28.089741" cy="27.203083" fx="28.089741" fy="27.203083" r="13.565360" gradientTransform="matrix(1.332158,2.957987e-16,-2.017101e-16,0.908421,-9.406910,4.195416)" gradientUnits="userSpaceOnUse"/>
    <radialGradient xlink:href="#d" id="x" gradientUnits="userSpaceOnUse" cx="29.344931" cy="17.064077" fx="29.344931" fy="17.064077" r="9.1620579" gradientTransform="matrix(0.787998,3.877637e-16,-3.877637e-16,0.787998,6.221198,3.617627)"/>
    <linearGradient xlink:href="#b" id="q" gradientUnits="userSpaceOnUse" gradientTransform="translate(-12.41789,-7.000000)" x1="30.935921" y1="29.553486" x2="30.935921" y2="35.803486"/>
    <radialGradient xlink:href="#e" id="o" gradientUnits="userSpaceOnUse" gradientTransform="matrix(0.787998,3.877637e-16,-3.877637e-16,0.787998,6.221198,3.617627)" cx="29.344931" cy="17.064077" fx="29.344931" fy="17.064077" r="9.1620579"/>
    <radialGradient xlink:href="#a" id="n" gradientUnits="userSpaceOnUse" cx="31.112698" cy="19.008621" fx="31.112698" fy="19.008621" r="8.6620579"/>
    <radialGradient xlink:href="#f" id="l" cx="16.214741" cy="19.836468" fx="16.214741" fy="19.836468" r="13.565360" gradientTransform="matrix(1.038460,0.000000,0.000000,0.708144,-0.686112,7.554890)" gradientUnits="userSpaceOnUse"/>
    <linearGradient xlink:href="#g" id="z" x1="20.661695" y1="35.817974" x2="22.626925" y2="36.217758" gradientUnits="userSpaceOnUse" gradientTransform="matrix(0.983375,0.181588,-0.181588,0.983375,6.231716,-2.651466)"/>
    <linearGradient xlink:href="#g" id="A" gradientUnits="userSpaceOnUse" x1="22.686766" y1="36.390400" x2="21.408455" y2="35.739632" gradientTransform="matrix(-0.977685,0.210075,0.210075,0.977685,55.10960,-3.945209)"/>
    <linearGradient xlink:href="#g" id="r" gradientUnits="userSpaceOnUse" gradientTransform="matrix(0.983375,0.181588,-0.181588,0.983375,-7.072120,-9.824920)" x1="20.661695" y1="35.817974" x2="22.626925" y2="36.217758"/>
    <linearGradient xlink:href="#g" id="s" gradientUnits="userSpaceOnUse" gradientTransform="matrix(-0.977685,0.210075,0.210075,0.977685,41.80576,-11.11866)" x1="22.686766" y1="36.390400" x2="21.408455" y2="35.739632"/>
    <linearGradient xlink:href="#h" id="p" x1="27.153664" y1="12.025341" x2="31.936378" y2="22.714035" gradientUnits="userSpaceOnUse"/>
    <linearGradient xlink:href="#i" id="y" x1="27.866243" y1="12.595405" x2="33.646568" y2="21.858940" gradientUnits="userSpaceOnUse"/>
    <linearGradient xlink:href="#j" id="v" x1="23.409775" y1="29.900097" x2="36.661869" y2="39.025097" gradientUnits="userSpaceOnUse"/>
    <linearGradient xlink:href="#k" id="m" x1="9.2809086" y1="22.635584" x2="17.846388" y2="31.635584" gradientUnits="userSpaceOnUse"/>
  </defs>
  <metadata/>
  <g display="inline">
    <path style="marker:none" d="M 9.5625 29.125 C 6.5774685 29.125 4.15625 31.248104 4.15625 33.90625 C 4.15625 36.564396 6.5774685 38.718751 9.5625 38.71875 L 16.71875 38.71875 C 16.605681 39.106899 16.53125 39.516995 16.53125 39.9375 C 16.53125 42.595646 18.952468 44.718749 21.9375 44.71875 L 40.1875 44.71875 C 43.172532 44.71875 45.593752 42.595647 45.59375 39.9375 C 45.59375 37.279354 43.172532 35.125 40.1875 35.125 L 33.03125 35.125 C 33.144319 34.736851 33.21875 34.326755 33.21875 33.90625 C 33.21875 31.248104 30.828782 29.125 27.84375 29.125 L 9.5625 29.125 z " opacity=".2" color="#000" fill="#000" fill-opacity="1" fill-rule="evenodd" stroke="none" stroke-width="1" stroke-linecap="round" stroke-linejoin="round" marker-start="none" marker-mid="none" marker-end="none" stroke-miterlimit="4" stroke-dasharray="none" stroke-dashoffset="0" stroke-opacity="1" visibility="visible" display="inline" overflow="visible"/>
    <path style="marker:none" d="M 12.669703,34.972587 L 23.684235,34.972587 C 26.805019,34.972587 29.894728,33.828275 31.027255,30.566774 C 32.102725,27.469592 31.210831,21.571573 24.234961,16.798610 L 11.201098,16.798610 C 4.2252285,21.204422 3.3534652,27.229765 4.9595308,30.750349 C 6.5957232,34.336972 9.3653428,34.972587 12.669703,34.972587 z " opacity="1" color="#000" fill="url(#l)" fill-opacity="1" fill-rule="evenodd" stroke="#000" stroke-width="2.0000005" stroke-linecap="round" stroke-linejoin="round" marker-start="none" marker-mid="none" marker-end="none" stroke-miterlimit="4" stroke-dasharray="none" stroke-dashoffset="0" stroke-opacity="1" visibility="visible" display="inline" overflow="visible"/>
    <path d="M 17.932367,19.786797 C 17.932367,19.786797 15.781044,21.447132 15.966376,23.447330 C 13.925150,21.646536 13.866503,18.195806 13.866503,18.195806 L 17.932367,19.786797 z " style="marker:none" opacity="1" color="#000" fill="#9db029" fill-opacity="1" fill-rule="evenodd" stroke="none" stroke-width="1px" stroke-linecap="round" stroke-linejoin="round" marker-start="none" marker-mid="none" marker-end="none" stroke-miterlimit="4" stroke-dasharray="none" stroke-dashoffset="0" stroke-opacity="1" visibility="visible" display="inline" overflow="visible"/>
    <path d="M 12.966639,33.571836 L 23.283309,33.571836 C 25.923032,33.571836 28.536470,32.603917 29.494421,29.845169 C 30.404110,27.225409 29.399699,22.236555 23.499142,18.199332 L 11.974417,18.199332 C 6.0738600,21.925999 5.0864770,27.022551 6.4449710,30.000446 C 7.8289490,33.034200 10.171638,33.571836 12.966639,33.571836 z " style="marker:none" opacity=".41142857" color="#000" fill="none" fill-opacity="1" fill-rule="evenodd" stroke="url(#m)" stroke-width=".99999976px" stroke-linecap="round" stroke-linejoin="round" marker-start="none" marker-mid="none" marker-end="none" stroke-miterlimit="4" stroke-dasharray="none" stroke-dashoffset="0" stroke-opacity="1" visibility="visible" display="inline" overflow="visible"/>
    <path style="marker:none" d="M 18.910795,19.786797 C 18.910795,19.786797 21.062118,21.447132 20.876786,23.447330 C 22.918012,21.646536 22.976659,18.195806 22.976659,18.195806 L 18.910795,19.786797 z " opacity="1" color="#000" fill="#9db029" fill-opacity="1" fill-rule="evenodd" stroke="none" stroke-width="1px" stroke-linecap="round" stroke-linejoin="round" marker-start="none" marker-mid="none" marker-end="none" stroke-miterlimit="4" stroke-dasharray="none" stroke-dashoffset="0" stroke-opacity="1" visibility="visible" display="inline" overflow="visible"/>
    <path d="M 39.774755 19.008621 A 8.6620579 8.6620579 0 1 1  22.450640,19.008621 A 8.6620579 8.6620579 0 1 1  39.774755 19.008621 z" style="marker:none" transform="translate(-13.25000,-3.500000)" opacity="1" color="#000" fill="url(#n)" fill-opacity="1" fill-rule="evenodd" stroke="none" stroke-width="1px" stroke-linecap="round" stroke-linejoin="round" marker-start="none" marker-mid="none" marker-end="none" stroke-miterlimit="4" stroke-dasharray="none" stroke-dashoffset="0" stroke-opacity="1" visibility="visible" display="inline" overflow="visible"/>
    <path style="marker:none" d="M 39.774755 19.008621 A 8.6620579 8.6620579 0 1 1  22.450640,19.008621 A 8.6620579 8.6620579 0 1 1  39.774755 19.008621 z" transform="matrix(1.077623,0.000000,0.000000,1.077623,-15.54007,-8.475510)" opacity="1" color="#000" fill="url(#o)" fill-opacity="1" fill-rule="evenodd" stroke="#000" stroke-width="1.8559363" stroke-linecap="round" stroke-linejoin="round" marker-start="none" marker-mid="none" marker-end="none" stroke-miterlimit="4" stroke-dasharray="none" stroke-dashoffset="0" stroke-opacity="1" visibility="visible" display="inline" overflow="visible"/>
    <path d="M 39.774755 19.008621 A 8.6620579 8.6620579 0 1 1  22.450640,19.008621 A 8.6620579 8.6620579 0 1 1  39.774755 19.008621 z" style="marker:none" transform="matrix(0.890635,0.000000,0.000000,0.890635,-9.722329,-4.921104)" opacity=".50857145" color="#000" fill="none" fill-opacity="1" fill-rule="evenodd" stroke="url(#p)" stroke-width="1.1227957px" stroke-linecap="round" stroke-linejoin="round" marker-start="none" marker-mid="none" marker-end="none" stroke-miterlimit="4" stroke-dasharray="none" stroke-dashoffset="0" stroke-opacity="1" visibility="visible" display="inline" overflow="visible"/>
    <path style="marker:none" d="M 22.583894,27.034641 L 26.826534,27.034641 L 24.351661,24.736544 L 23.821331,25.443651 L 23.291000,24.913321 L 22.583894,27.034641 z " opacity="1" color="#000" fill="url(#q)" fill-opacity="1" fill-rule="evenodd" stroke="none" stroke-width="1px" stroke-linecap="round" stroke-linejoin="round" marker-start="none" marker-mid="none" marker-end="none" stroke-miterlimit="4" stroke-dasharray="none" stroke-dashoffset="0" stroke-opacity="1" visibility="visible" display="inline" overflow="visible"/>
    <path style="marker:none" d="M 8.5479535,33.601747 C 7.3003465,33.056778 6.7419595,31.743470 6.7419595,31.743470 C 7.5832405,27.674334 10.461885,24.697254 10.461885,24.697254 C 10.461885,24.697254 8.1825635,31.108768 8.5479535,33.601747 z " opacity=".22784807" color="#000" fill="url(#r)" fill-opacity="1" fill-rule="evenodd" stroke="none" stroke-width="1px" stroke-linecap="round" stroke-linejoin="round" marker-start="none" marker-mid="none" marker-end="none" stroke-miterlimit="4" stroke-dasharray="none" stroke-dashoffset="0" stroke-opacity="1" visibility="visible" display="inline" overflow="visible"/>
    <path d="M 27.453661,32.743396 C 28.684912,32.162418 29.258041,30.741075 29.258041,30.741075 C 28.298921,26.698092 25.281892,23.898254 25.281892,23.898254 C 25.281892,23.898254 27.746485,30.240856 27.453661,32.743396 z " style="marker:none" opacity=".22784807" color="#000" fill="url(#s)" fill-opacity="1" fill-rule="evenodd" stroke="none" stroke-width="1px" stroke-linecap="round" stroke-linejoin="round" marker-start="none" marker-mid="none" marker-end="none" stroke-miterlimit="4" stroke-dasharray="none" stroke-dashoffset="0" stroke-opacity="1" visibility="visible" display="inline" overflow="visible"/>
  </g>
  <g display="inline">
    <path style="marker:none" d="M 25.853432,41.869326 L 36.742817,41.869326 C 39.828143,41.869326 42.882747,40.738016 44.002406,37.513572 C 45.065656,34.451581 44.183896,28.620575 37.287286,23.901842 L 24.401514,23.901842 C 17.504904,28.257595 16.643046,34.214478 18.230864,37.695061 C 19.848466,41.240933 22.586617,41.869326 25.853432,41.869326 z " opacity="1" color="#000" fill="url(#t)" fill-opacity="1" fill-rule="evenodd" stroke="#000" stroke-width="1.9999995" stroke-linecap="round" stroke-linejoin="round" marker-start="none" marker-mid="none" marker-end="none" stroke-miterlimit="4" stroke-dasharray="none" stroke-dashoffset="0" stroke-opacity="1" visibility="visible" display="inline" overflow="visible"/>
    <path style="marker:none" d="M 26.693281,25.726136 C 29.875261,28.554563 31.289475,38.807612 31.289475,38.807612 C 31.289475,38.807612 32.703688,28.554564 35.178562,25.549360 L 26.693281,25.726136 z " opacity="1" color="#000" fill="url(#u)" fill-opacity="1" fill-rule="evenodd" stroke="none" stroke-width="1px" stroke-linecap="round" stroke-linejoin="round" marker-start="none" marker-mid="none" marker-end="none" stroke-miterlimit="4" stroke-dasharray="none" stroke-dashoffset="0" stroke-opacity="1" visibility="visible" display="inline" overflow="visible"/>
    <path d="M 28.972721,26.786797 C 28.972721,26.786797 26.821398,28.447132 27.006730,30.447330 C 24.965504,28.646536 24.906857,25.195806 24.906857,25.195806 L 28.972721,26.786797 z " style="marker:none" opacity="1" color="#000" fill="#729fcf" fill-opacity="1" fill-rule="evenodd" stroke="none" stroke-width="1px" stroke-linecap="round" stroke-linejoin="round" marker-start="none" marker-mid="none" marker-end="none" stroke-miterlimit="4" stroke-dasharray="none" stroke-dashoffset="0" stroke-opacity="1" visibility="visible" display="inline" overflow="visible"/>
    <path d="M 25.914862,40.593933 L 36.408309,40.571836 C 39.048032,40.571836 41.661470,39.603917 42.619421,36.845169 C 43.529110,34.225409 42.524699,29.236555 36.624142,25.199332 L 25.099417,24.956264 C 19.198860,28.682931 18.056797,33.779483 19.437388,37.000446 C 20.817980,40.221409 22.832599,40.571836 25.914862,40.593933 z " style="marker:none" opacity=".49142857" color="#000" fill="none" fill-opacity="1" fill-rule="evenodd" stroke="url(#v)" stroke-width=".99999976px" stroke-linecap="round" stroke-linejoin="round" marker-start="none" marker-mid="none" marker-end="none" stroke-miterlimit="4" stroke-dasharray="none" stroke-dashoffset="0" stroke-opacity="1" visibility="visible" display="inline" overflow="visible"/>
    <path style="marker:none" d="M 33.410795,26.786797 C 33.410795,26.786797 35.562118,28.447132 35.376786,30.447330 C 37.418012,28.646536 37.476659,25.195806 37.476659,25.195806 L 33.410795,26.786797 z " opacity="1" color="#000" fill="#729fcf" fill-opacity="1" fill-rule="evenodd" stroke="none" stroke-width="1px" stroke-linecap="round" stroke-linejoin="round" marker-start="none" marker-mid="none" marker-end="none" stroke-miterlimit="4" stroke-dasharray="none" stroke-dashoffset="0" stroke-opacity="1" visibility="visible" display="inline" overflow="visible"/>
    <path d="M 39.774755 19.008621 A 8.6620579 8.6620579 0 1 1  22.450640,19.008621 A 8.6620579 8.6620579 0 1 1  39.774755 19.008621 z" style="marker:none" transform="translate(-0.125000,3.500000)" opacity="1" color="#000" fill="url(#w)" fill-opacity="1" fill-rule="evenodd" stroke="none" stroke-width="1px" stroke-linecap="round" stroke-linejoin="round" marker-start="none" marker-mid="none" marker-end="none" stroke-miterlimit="4" stroke-dasharray="none" stroke-dashoffset="0" stroke-opacity="1" visibility="visible" display="inline" overflow="visible"/>
    <path style="marker:none" d="M 39.774755 19.008621 A 8.6620579 8.6620579 0 1 1  22.450640,19.008621 A 8.6620579 8.6620579 0 1 1  39.774755 19.008621 z" transform="matrix(1.051667,0.000000,0.000000,1.051667,-1.607498,-0.982117)" opacity="1" color="#000" fill="url(#x)" fill-opacity="1" fill-rule="evenodd" stroke="#000" stroke-width="1.9017427" stroke-linecap="round" stroke-linejoin="round" marker-start="none" marker-mid="none" marker-end="none" stroke-miterlimit="4" stroke-dasharray="none" stroke-dashoffset="0" stroke-opacity="1" visibility="visible" display="inline" overflow="visible"/>
    <path d="M 39.774755 19.008621 A 8.6620579 8.6620579 0 1 1  22.450640,19.008621 A 8.6620579 8.6620579 0 1 1  39.774755 19.008621 z" style="marker:none" transform="matrix(0.877095,0.000000,0.000000,0.877095,3.823927,2.336267)" opacity=".68571429" color="#000" fill="none" fill-opacity="1" fill-rule="evenodd" stroke="url(#y)" stroke-width="1.1401283px" stroke-linecap="round" stroke-linejoin="round" marker-start="none" marker-mid="none" marker-end="none" stroke-miterlimit="4" stroke-dasharray="none" stroke-dashoffset="0" stroke-opacity="1" visibility="visible" display="inline" overflow="visible"/>
    <path style="marker:none" d="M 21.851790,40.775197 C 20.604183,40.230228 20.045796,38.916920 20.045796,38.916920 C 20.887077,34.847784 23.765721,31.870704 23.765721,31.870704 C 23.765721,31.870704 21.486400,38.282218 21.851790,40.775197 z " opacity=".22784807" color="#000" fill="url(#z)" fill-opacity="1" fill-rule="evenodd" stroke="none" stroke-width="1px" stroke-linecap="round" stroke-linejoin="round" marker-start="none" marker-mid="none" marker-end="none" stroke-miterlimit="4" stroke-dasharray="none" stroke-dashoffset="0" stroke-opacity="1" visibility="visible" display="inline" overflow="visible"/>
    <path d="M 40.757497,39.916846 C 41.988748,39.335868 42.561877,37.914525 42.561877,37.914525 C 41.602757,33.871542 38.585728,31.071704 38.585728,31.071704 C 38.585728,31.071704 41.050321,37.414306 40.757497,39.916846 z " style="marker:none" opacity=".22784807" color="#000" fill="url(#A)" fill-opacity="1" fill-rule="evenodd" stroke="none" stroke-width="1px" stroke-linecap="round" stroke-linejoin="round" marker-start="none" marker-mid="none" marker-end="none" stroke-miterlimit="4" stroke-dasharray="none" stroke-dashoffset="0" stroke-opacity="1" visibility="visible" display="inline" overflow="visible"/>
  </g>
</svg>
