<?xml version="1.0"?>
<svg xmlns="http://www.w3.org/2000/svg" version="1.0" width="100%" height="100%" viewBox="185.45251 42.202362 96.461372 87.087982"><style type="text/css"/><defs xmlns="http://www.w3.org/2000/svg" id="defs">
    <style type="text/css" id="style2386">
      @font-face {
        font-family: 'VKB KonQa'; 
        font-weight: normal;
        src: url("../fonts/VKB%20KonQa.svg#konqa") format(svg)
      }
      @font-face {
        font-family: 'Peace'; 
        font-weight: normal;
        src: url("../fonts/Peace.svg#peace") format(svg)
      }
   </style>
    <linearGradient x1="102.7583" y1="92.283699" x2="195.3558" y2="184.8815" id="XMLID_10_" gradientUnits="userSpaceOnUse" gradientTransform="matrix(-1,0,0,1,256,0)">
      <stop style="stop-color: rgb(66, 138, 255); stop-opacity: 1;" offset="0" id="stop2663"/>
      <stop style="stop-color: rgb(0, 51, 153); stop-opacity: 1;" offset="1" id="stop2665"/>
    </linearGradient>
    <linearGradient xmlns:inkscape="http://www.inkscape.org/namespaces/inkscape" xmlns:xlink="http://www.w3.org/1999/xlink" inkscape:collect="always" xlink:href="#XMLID_3_" id="linearGradient5715" gradientUnits="userSpaceOnUse" x1="38.840801" y1="188.1792" x2="189.4684" y2="37.551601"/>
    <linearGradient xmlns:inkscape="http://www.inkscape.org/namespaces/inkscape" xmlns:xlink="http://www.w3.org/1999/xlink" inkscape:collect="always" xlink:href="#XMLID_2_" id="linearGradient5713" gradientUnits="userSpaceOnUse" x1="94.924301" y1="231.9736" x2="141.13609" y2="185.7618"/>
    <linearGradient xmlns:inkscape="http://www.inkscape.org/namespaces/inkscape" xmlns:xlink="http://www.w3.org/1999/xlink" inkscape:collect="always" xlink:href="#XMLID_1_" id="linearGradient5711" gradientUnits="userSpaceOnUse" x1="34.130901" y1="187.0737" x2="187.7205" y2="33.4841"/>
    <linearGradient y2="37.551601" x2="189.4684" y1="188.1792" x1="38.840801" gradientUnits="userSpaceOnUse" id="XMLID_3_">
      <stop id="stop5274" style="stop-color:#1C5A2D" offset="0.0225"/>
      <stop id="stop5276" style="stop-color:#256132" offset="0.1485"/>
      <stop id="stop5278" style="stop-color:#3C7544" offset="0.363"/>
      <stop id="stop5280" style="stop-color:#58915F" offset="0.5843"/>
      <stop id="stop5282" style="stop-color:#629866" offset="0.6644"/>
      <stop id="stop5284" style="stop-color:#78AA79" offset="0.7981"/>
      <stop id="stop5286" style="stop-color:#A2D09D" offset="0.9681"/>
      <stop id="stop5288" style="stop-color:#A7D6A2" offset="0.9831"/>
      <a:midPointStop xmlns:a="http://ns.adobe.com/AdobeSVGViewerExtensions/3.0/" style="stop-color:#1C5A2D" offset="0.0225"/>
      <a:midPointStop xmlns:a="http://ns.adobe.com/AdobeSVGViewerExtensions/3.0/" style="stop-color:#1C5A2D" offset="0.59"/>
      <a:midPointStop xmlns:a="http://ns.adobe.com/AdobeSVGViewerExtensions/3.0/" style="stop-color:#58915F" offset="0.5843"/>
      <a:midPointStop xmlns:a="http://ns.adobe.com/AdobeSVGViewerExtensions/3.0/" style="stop-color:#58915F" offset="0.5946"/>
      <a:midPointStop xmlns:a="http://ns.adobe.com/AdobeSVGViewerExtensions/3.0/" style="stop-color:#A7D6A2" offset="0.9831"/>
    </linearGradient>
    <linearGradient y2="185.7618" x2="141.13609" y1="231.9736" x1="94.924301" gradientUnits="userSpaceOnUse" id="XMLID_2_">
      <stop id="stop5259" style="stop-color:#D3E9F2" offset="0.0899"/>
      <stop id="stop5261" style="stop-color:#DFEFF5" offset="0.2033"/>
      <stop id="stop5263" style="stop-color:#F0F7FA" offset="0.4205"/>
      <stop id="stop5265" style="stop-color:#FAFDFF" offset="0.6665"/>
      <stop id="stop5267" style="stop-color:#FFFFFF" offset="1"/>
      <a:midPointStop xmlns:a="http://ns.adobe.com/AdobeSVGViewerExtensions/3.0/" style="stop-color:#D3E9F2" offset="0.0899"/>
      <a:midPointStop xmlns:a="http://ns.adobe.com/AdobeSVGViewerExtensions/3.0/" style="stop-color:#D3E9F2" offset="0.2346"/>
      <a:midPointStop xmlns:a="http://ns.adobe.com/AdobeSVGViewerExtensions/3.0/" style="stop-color:#FFFFFF" offset="1"/>
    </linearGradient>
    <linearGradient y2="33.4841" x2="187.7205" y1="187.0737" x1="34.130901" gradientUnits="userSpaceOnUse" id="XMLID_1_">
      <stop id="stop5239" style="stop-color:#2FB1E6" offset="0.0899"/>
      <stop id="stop5241" style="stop-color:#38B3E7" offset="0.2397"/>
      <stop id="stop5243" style="stop-color:#4DB6E8" offset="0.3787"/>
      <stop id="stop5245" style="stop-color:#67BDEA" offset="0.5136"/>
      <stop id="stop5247" style="stop-color:#86C7EE" offset="0.6458"/>
      <stop id="stop5249" style="stop-color:#ABD5F2" offset="0.7763"/>
      <stop id="stop5251" style="stop-color:#D5E9F8" offset="0.9035"/>
      <stop id="stop5253" style="stop-color:#FFFFFF" offset="1"/>
      <a:midPointStop xmlns:a="http://ns.adobe.com/AdobeSVGViewerExtensions/3.0/" style="stop-color:#2FB1E6" offset="0.0899"/>
      <a:midPointStop xmlns:a="http://ns.adobe.com/AdobeSVGViewerExtensions/3.0/" style="stop-color:#2FB1E6" offset="0.7222"/>
      <a:midPointStop xmlns:a="http://ns.adobe.com/AdobeSVGViewerExtensions/3.0/" style="stop-color:#FFFFFF" offset="1"/>
    </linearGradient>
    <inkscape:perspective xmlns:inkscape="http://www.inkscape.org/namespaces/inkscape" xmlns:sodipodi="http://sodipodi.sourceforge.net/DTD/sodipodi-0.dtd" sodipodi:type="inkscape:persp3d" inkscape:vp_x="0 : 526.18109 : 1" inkscape:vp_y="0 : 1000 : 0" inkscape:vp_z="744.09448 : 526.18109 : 1" inkscape:persp3d-origin="372.04724 : 350.78739 : 1" id="perspective4049"/>
    <inkscape:perspective xmlns:inkscape="http://www.inkscape.org/namespaces/inkscape" xmlns:sodipodi="http://sodipodi.sourceforge.net/DTD/sodipodi-0.dtd" id="perspective4628" inkscape:persp3d-origin="372.04724 : 350.78739 : 1" inkscape:vp_z="744.09448 : 526.18109 : 1" inkscape:vp_y="0 : 1000 : 0" inkscape:vp_x="0 : 526.18109 : 1" sodipodi:type="inkscape:persp3d"/>
    <inkscape:perspective xmlns:inkscape="http://www.inkscape.org/namespaces/inkscape" xmlns:sodipodi="http://sodipodi.sourceforge.net/DTD/sodipodi-0.dtd" id="perspective2447" inkscape:persp3d-origin="372.04724 : 350.78739 : 1" inkscape:vp_z="744.09448 : 526.18109 : 1" inkscape:vp_y="0 : 1000 : 0" inkscape:vp_x="0 : 526.18109 : 1" sodipodi:type="inkscape:persp3d"/>
    <style id="style5101" type="text/css">
      #background { fill: #ff9208; }
      #foreground { fill: #056864; stroke: black;}
    </style>
    <inkscape:perspective xmlns:inkscape="http://www.inkscape.org/namespaces/inkscape" xmlns:sodipodi="http://sodipodi.sourceforge.net/DTD/sodipodi-0.dtd" sodipodi:type="inkscape:persp3d" inkscape:vp_x="0 : 526.18109 : 1" inkscape:vp_y="0 : 1000 : 0" inkscape:vp_z="744.09448 : 526.18109 : 1" inkscape:persp3d-origin="372.04724 : 350.78739 : 1" id="perspective5109"/>
    <inkscape:perspective xmlns:inkscape="http://www.inkscape.org/namespaces/inkscape" xmlns:sodipodi="http://sodipodi.sourceforge.net/DTD/sodipodi-0.dtd" id="perspective10" inkscape:persp3d-origin="372.04724 : 350.78739 : 1" inkscape:vp_z="744.09448 : 526.18109 : 1" inkscape:vp_y="0 : 1000 : 0" inkscape:vp_x="0 : 526.18109 : 1" sodipodi:type="inkscape:persp3d"/>
    <inkscape:perspective xmlns:inkscape="http://www.inkscape.org/namespaces/inkscape" xmlns:sodipodi="http://sodipodi.sourceforge.net/DTD/sodipodi-0.dtd" sodipodi:type="inkscape:persp3d" inkscape:vp_x="0 : 526.18109 : 1" inkscape:vp_y="0 : 1000 : 0" inkscape:vp_z="744.09448 : 526.18109 : 1" inkscape:persp3d-origin="372.04724 : 350.78739 : 1" id="perspective5328"/>
    <inkscape:perspective xmlns:inkscape="http://www.inkscape.org/namespaces/inkscape" xmlns:sodipodi="http://sodipodi.sourceforge.net/DTD/sodipodi-0.dtd" id="perspective5282" inkscape:persp3d-origin="372.04724 : 350.78739 : 1" inkscape:vp_z="744.09448 : 526.18109 : 1" inkscape:vp_y="0 : 1000 : 0" inkscape:vp_x="0 : 526.18109 : 1" sodipodi:type="inkscape:persp3d"/>
    <linearGradient xmlns:xlink="http://www.w3.org/1999/xlink" xmlns:inkscape="http://www.inkscape.org/namespaces/inkscape" y2="55.728371" x2="281.96432" y1="117.51517" x1="196.78905" gradientTransform="matrix(0.19215,0,0,1,4.00538,193.498)" gradientUnits="userSpaceOnUse" id="linearGradient4153" xlink:href="#linearGradient3172" inkscape:collect="always"/>
    <linearGradient xmlns:xlink="http://www.w3.org/1999/xlink" xmlns:inkscape="http://www.inkscape.org/namespaces/inkscape" gradientTransform="matrix(0.189971,0,0,1,411.035,329.184)" y2="155.81082" x2="277.80676" y1="60.087051" x1="279.27539" gradientUnits="userSpaceOnUse" id="linearGradient4149" xlink:href="#linearGradient3172" inkscape:collect="always"/>
    <linearGradient xmlns:xlink="http://www.w3.org/1999/xlink" xmlns:inkscape="http://www.inkscape.org/namespaces/inkscape" gradientUnits="userSpaceOnUse" y2="117.23363" x2="304.61481" y1="117.51517" x1="196.78905" id="linearGradient3170" xlink:href="#linearGradient3172" inkscape:collect="always"/>
    <linearGradient xmlns:xlink="http://www.w3.org/1999/xlink" xmlns:inkscape="http://www.inkscape.org/namespaces/inkscape" y2="737.01562" x2="470.00089" y1="737.01562" x1="175.71875" gradientTransform="matrix(0.471308,0,0,0.471308,-49.6934,-237.91)" gradientUnits="userSpaceOnUse" id="linearGradient2184" xlink:href="#linearGradient3172" inkscape:collect="always"/>
    <radialGradient xmlns:xlink="http://www.w3.org/1999/xlink" xmlns:inkscape="http://www.inkscape.org/namespaces/inkscape" r="147.14285" fy="602.7193" fx="328.57144" cy="602.7193" cx="328.57144" gradientTransform="matrix(1,0,0,0.177184,0,495.927)" gradientUnits="userSpaceOnUse" id="radialGradient13688" xlink:href="#linearGradient12828" inkscape:collect="always"/>
    <linearGradient xmlns:xlink="http://www.w3.org/1999/xlink" xmlns:inkscape="http://www.inkscape.org/namespaces/inkscape" y2="737.01562" x2="470.00089" y1="737.01562" x1="175.71875" gradientTransform="matrix(0.471308,0,0,0.471308,118.878,123.518)" gradientUnits="userSpaceOnUse" id="linearGradient13633" xlink:href="#linearGradient12001" inkscape:collect="always"/>
    <linearGradient id="linearGradient12001">
      <stop id="stop12003" offset="0" style="stop-color: rgb(27, 74, 120); stop-opacity: 1;"/>
      <stop id="stop12005" offset="1" style="stop-color: rgb(93, 172, 209); stop-opacity: 1;"/>
    </linearGradient>
    <radialGradient xmlns:xlink="http://www.w3.org/1999/xlink" xmlns:inkscape="http://www.inkscape.org/namespaces/inkscape" gradientUnits="userSpaceOnUse" gradientTransform="matrix(1,0,0,0.177184,0,495.927)" r="147.14285" fy="602.7193" fx="328.57144" cy="602.7193" cx="328.57144" id="radialGradient13651" xlink:href="#linearGradient12828" inkscape:collect="always"/>
    <linearGradient id="linearGradient12828">
      <stop style="stop-color: rgb(72, 72, 73); stop-opacity: 1;" offset="0" id="stop12830"/>
      <stop id="stop12862" offset="0" style="stop-color: rgb(67, 67, 68); stop-opacity: 1;"/>
      <stop style="stop-color: rgb(143, 143, 144); stop-opacity: 0;" offset="1.0000000" id="stop12832"/>
    </linearGradient>
    <linearGradient id="linearGradient3172">
      <stop style="stop-color: rgb(27, 120, 77); stop-opacity: 1;" offset="0" id="stop3174"/>
      <stop style="stop-color: rgb(93, 209, 119); stop-opacity: 1;" offset="1" id="stop3176"/>
    </linearGradient>
    <inkscape:perspective xmlns:inkscape="http://www.inkscape.org/namespaces/inkscape" xmlns:sodipodi="http://sodipodi.sourceforge.net/DTD/sodipodi-0.dtd" id="perspective7373" inkscape:persp3d-origin="99.550003 : 66.620834 : 1" inkscape:vp_z="199.10001 : 99.931252 : 1" inkscape:vp_y="0 : 1000 : 0" inkscape:vp_x="0 : 99.931252 : 1" sodipodi:type="inkscape:persp3d"/>
    <linearGradient xmlns:inkscape="http://www.inkscape.org/namespaces/inkscape" xmlns:xlink="http://www.w3.org/1999/xlink" inkscape:collect="always" xlink:href="#linearGradient3172" id="linearGradient7407" gradientUnits="userSpaceOnUse" gradientTransform="matrix(0.471308,0,0,0.471308,180.45581,-132.68155)" x1="175.71875" y1="737.01562" x2="470.00089" y2="737.01562"/>
  </defs>
    <rect xmlns="http://www.w3.org/2000/svg" xmlns:inkscape="http://www.inkscape.org/namespaces/inkscape" inkscape:transform-center-y="22.554721" inkscape:transform-center-x="-21.383047" ry="10" rx="10" y="46.202362" x="189.45251" height="79.087982" width="88.461372" id="rect4734" style="opacity:1;fill:#d5e2d5;fill-opacity:1;stroke:#000000;stroke-width:1.60000002;stroke-linecap:round;stroke-linejoin:round;stroke-miterlimit:4;stroke-dasharray:none;stroke-dashoffset:0;stroke-opacity:1"/>
    <g xmlns="http://www.w3.org/2000/svg" transform="matrix(0.2498598,3.6863352e-2,-3.6863352e-2,0.2498598,-148.16112,-100.13674)" id="g5167">
      <path xmlns:sodipodi="http://sodipodi.sourceforge.net/DTD/sodipodi-0.dtd" style="fill:#161008;fill-opacity:1;stroke:#2b231b;stroke-opacity:1" d="M 1717.6962,498.44912 C 1720.3267,498.47479 1728.0939,494.64889 1730.8058,493.5969 C 1733.5177,492.54491 1737.9065,488.17022 1739.6424,484.78877 C 1741.4739,481.22112 1742.0815,472.17521 1740.8787,466.38135 C 1738.9691,457.183 1731.1193,450.77262 1718.9356,448.46203 C 1712.0581,447.15774 1705.6719,441.9937 1702.3916,435.08407 C 1697.4519,424.67911 1690.9184,421.48218 1676.0953,422.21697 C 1665.4179,422.74626 1663.8508,421.97339 1658.007,413.29578 C 1652.5123,405.13666 1648.6842,403.87991 1630.2147,404.17175 L 1615.1437,404.40988 L 1609.1843,398.11724 C 1601.3289,389.82265 1595.3248,386.85316 1587.0676,387.17893 C 1571.8787,387.77819 1565.7857,395.33449 1565.7857,413.57215 L 1565.7857,422.14383 L 1559.9459,426.24025 C 1548.6404,434.17061 1542.3096,443.66909 1540.6854,455.13814 C 1539.6336,462.56552 1536.7272,468.84719 1533.5324,470.59807 C 1530.3376,472.34895 1523.1845,479.66584 1522.5142,481.43361 C 1521.946,482.932 1524.0315,482.00469 1521.3953,488.93361 C 1520.5583,491.13361 1519.8537,494.86952 1519.8296,497.23563 C 1519.7902,501.10017 1517.9574,499.98111 1516.7857,502.58345 C 1516.2537,503.76492 1515.2509,505.32733 1515.3369,506.84189 C 1515.4493,508.82073 1516.3572,508.73259 1511.3849,511.91332 C 1508.3582,513.84948 1505.4258,515.43361 1504.8685,515.43361 C 1501.4436,515.43361 1492.7857,526.70911 1492.7857,531.16948 C 1492.7857,532.16802 1490.3137,537.02345 1487.2923,541.95931 C 1480.3332,553.32803 1478.1445,558.09437 1475.595,567.43361 C 1474.4689,571.55861 1472.6131,576.73361 1471.4711,578.93361 C 1465.3985,590.6318 1472.7872,608.43361 1483.7151,608.43361 C 1486.2287,608.43361 1486.599,608.86436 1487.1734,612.45667 C 1487.5272,614.66936 1488.7097,617.24437 1489.8012,618.17891 C 1490.8927,619.11346 1491.7857,620.91754 1491.7857,622.18797 C 1491.7857,625.56745 1494.3174,631.06606 1496.442,632.30108 L 1500.2857,634.57453 L 1506.0624,634.50407 C 1511.6502,634.43591 1521.0167,631.90122 1534.5462,626.79597 C 1537.9895,625.49667 1541.4208,624.43361 1542.1713,624.43361 C 1543.4493,624.43361 1560.7342,617.66444 1570.7857,613.22747 C 1584.6617,607.1023 1595.2859,602.86293 1601.2857,601.05707 C 1604.0357,600.22936 1613.2607,597.31099 1621.7857,594.57181 C 1630.3107,591.83263 1639.0857,589.28125 1641.2857,588.90207 C 1643.4857,588.52289 1648.6607,587.09261 1652.7857,585.72366 C 1656.9107,584.35471 1662.5357,582.88759 1665.2857,582.4634 C 1675.151,580.94168 1693.7504,573.4697 1703.6402,567.05514 C 1711.7979,561.76403 1714.2901,557.12433 1715.8736,544.28042 C 1716.9782,535.32068 1716.672,524.53155 1714.8847,509.43361 C 1714.0507,502.38894 1715.0657,498.42345 1717.6962,498.44912 z" id="path5150" sodipodi:nodetypes="cssssssscccscccssssssssssssssssscccsssssssssssc"/>
      <path style="fill:#e0c18e;fill-opacity:1;stroke:#000000;stroke-opacity:1" d="M 1732.5357,467.80732 C 1728.7643,464.49697 1720.6772,460.80475 1712.8964,458.84089 C 1703.9503,456.58288 1700.5415,453.71778 1698.4594,446.70651 C 1695.0787,435.32238 1691.8815,433.43361 1675.9921,433.43361 C 1663.4464,433.43361 1662.7612,433.04118 1658.5308,423.43361 C 1655.5221,416.60044 1654.7876,416.00094 1646.9366,413.96995 C 1642.0596,412.70831 1638.4354,412.48546 1631.3056,413.00883 C 1617.2858,414.03794 1613.1597,412.72489 1604.3993,404.44646 C 1600.4868,400.74925 1596.3028,397.20886 1595.1015,396.57894 C 1591.0216,394.43967 1587.0892,395.19682 1583.467,398.81903 C 1579.7725,402.51348 1578.7974,405.72469 1578.7635,414.30861 C 1578.7376,420.845 1577.807,422.27923 1569.6877,428.29602 C 1563.5309,432.85851 1557.0737,440.03455 1554.3075,445.38842 C 1553.3258,447.28857 1552.2967,451.78857 1552.0208,455.38842 C 1551.397,463.52475 1550.0327,466.25513 1542.5041,474.43361 C 1535.4902,482.053 1533.8541,485.45956 1532.6606,494.9288 C 1532.1757,498.77615 1531.2829,503.42725 1530.6765,505.26457 C 1529.0547,510.17868 1524.4549,514.89263 1519.7743,516.43736 C 1512.7257,518.76364 1508.8039,525.48123 1508.7913,535.25033 C 1508.7838,541.06985 1505.3019,545.45988 1496.7173,550.47355 C 1489.1478,554.89437 1486.5466,558.31492 1483.7632,567.50805 L 1481.9434,573.51834 L 1484.1146,572.85618 C 1490.8885,570.7903 1493.7309,569.07373 1509.6415,557.44041 C 1513.2537,554.79927 1516.5092,553.31449 1519.6415,552.87957 C 1525.6842,552.04052 1534.1183,549.70113 1539.8697,547.26879 C 1542.9859,545.95089 1545.6962,543.70076 1548.3346,540.24105 C 1550.4692,537.44202 1553.6339,534.55932 1555.3674,533.83505 C 1558.8754,532.36929 1569.8379,529.88497 1576.8679,528.9626 C 1582.4622,528.2286 1587.6867,525.51686 1594.2847,519.92259 C 1603.5442,512.07168 1609.9979,509.79472 1626.534,508.54461 C 1639.524,507.56259 1646.1796,504.78782 1654.4464,496.90779 C 1661.2404,490.43166 1665.1236,489.207 1679.3975,489.03881 C 1686.6474,488.95339 1691.0335,488.4729 1692.0174,487.65629 C 1693.3106,486.58306 1693.6181,487.01241 1694.1754,490.66916 C 1694.5329,493.01461 1696.0111,499.16649 1697.4603,504.34 C 1699.9544,513.24341 1700.029,514.15456 1698.8557,521.37947 C 1698.1739,525.57767 1697.9222,530.64434 1698.2964,532.63876 C 1698.7337,534.96983 1698.3718,538.34546 1697.2833,542.09008 C 1694.0213,553.31086 1683.4491,560.43361 1670.0561,560.43361 C 1666.0233,560.43361 1664.6965,560.90845 1662.71,563.06249 C 1659.4315,566.61771 1655.3173,568.22099 1647.3885,569.03333 C 1643.726,569.40856 1640.4864,570.10894 1640.1892,570.58974 C 1638.8359,572.77939 1632.0562,574.43398 1624.4136,574.43977 C 1619.1595,574.44375 1615.273,574.97411 1613.4214,575.93977 C 1611.846,576.76138 1609.9713,577.43361 1609.2553,577.43361 C 1608.5392,577.43361 1606.0032,579.2741 1603.6196,581.52358 C 1597.9876,586.83867 1596.266,587.43251 1586.4706,587.43919 C 1576.8115,587.44577 1571.1206,588.80318 1570.3317,591.28867 C 1569.1097,595.13898 1564.3556,598.2039 1557.0883,599.82655 C 1553.1297,600.71043 1548.0887,601.43361 1545.8859,601.43361 C 1542.4314,601.43361 1541.2163,602.09827 1537.0454,606.26921 C 1532.7879,610.52665 1531.5567,611.18321 1526.7477,611.76052 C 1523.7436,612.12116 1519.7817,612.42014 1517.9434,612.42492 C 1516.1052,612.4297 1513.4858,613.31094 1512.1226,614.38324 C 1510.7594,615.45554 1507.2497,617.02893 1504.3232,617.87968 C 1498.9967,619.42816 1497.3454,621.1227 1498.4241,623.93361 C 1499.845,627.63637 1522.6758,623.42533 1533.9219,617.38622 C 1535.9218,616.31229 1538.2478,615.43361 1539.0908,615.43361 C 1539.9339,615.43361 1541.8976,614.79075 1543.4547,614.00504 C 1548.6447,611.38608 1558.1986,607.5959 1566.2857,604.9476 C 1570.6857,603.50672 1576.9857,601.27337 1580.2857,599.9846 C 1583.5857,598.69583 1588.3107,597.07895 1590.7857,596.39155 C 1593.2607,595.70414 1602.4857,592.75013 1611.2857,589.82707 C 1620.0857,586.90402 1630.8857,583.62346 1635.2857,582.53695 C 1639.6857,581.45043 1646.4357,579.44569 1650.2857,578.08198 C 1654.1357,576.71826 1660.8857,574.4509 1665.2857,573.04341 C 1673.581,570.38987 1690.5081,564.59843 1697.028,562.18311 C 1706.7093,558.59661 1707.9144,554.91941 1708.4158,527.43361 C 1708.8822,501.86685 1709.8373,496.25882 1714.3053,492.8509 C 1716.0424,491.5259 1718.9987,489.91805 1720.8747,489.27791 C 1722.7508,488.63776 1725.5577,487.06091 1727.1124,485.77381 C 1728.6671,484.4867 1730.273,483.43361 1730.681,483.43361 C 1732.0602,483.43361 1734.6574,476.95739 1734.7218,473.35792 C 1734.7667,470.84725 1734.1156,469.19401 1732.5357,467.80732 z" id="path5148"/>
      <path style="fill:#161008;fill-opacity:1;stroke:none;stroke-opacity:1" d="M 1725.323,478.26673 C 1723.4185,479.9389 1719.8185,482.21021 1717.323,483.31409 C 1714.8275,484.41797 1712.7857,485.79645 1712.7857,486.37738 C 1712.7857,486.95831 1711.5126,487.43361 1709.9567,487.43361 C 1707.5111,487.43361 1706.8067,486.72191 1704.7602,482.18361 C 1701.8018,475.623 1698.0783,471.43361 1695.2056,471.43361 C 1693.2136,471.43361 1691.7857,469.74409 1691.7857,467.38701 C 1691.7857,465.7731 1695.5816,464.4428 1698.5136,465.02918 C 1700.4533,465.41714 1702.9491,467.51479 1706.0954,471.40177 C 1708.6751,474.58861 1710.7857,477.69949 1710.7857,478.31482 C 1710.7857,480.20102 1717.3981,479.57333 1719.9249,477.44727 L 1722.2857,475.46093 L 1719.917,473.6034 C 1717.8974,472.01966 1717.7183,471.42807 1718.7022,469.58974 C 1720.156,466.87325 1722.7664,466.84397 1726.1509,469.50619 C 1729.6894,472.28961 1729.4685,474.62691 1725.323,478.26673 z" id="path5146"/>
      <path style="fill:#161008;fill-opacity:1;stroke:none;stroke-opacity:1" d="M 1681.9963,467.90628 C 1680.4325,468.50637 1678.8293,466.92792 1678.801,464.76034 C 1678.7495,460.80912 1666.8711,452.43361 1661.319,452.43361 C 1659.1458,452.43361 1658.7857,451.98726 1658.7857,449.29371 L 1658.7857,446.1538 L 1664.3038,446.72332 C 1673.809,447.70434 1677.2763,450.80803 1681.6106,462.21489 C 1683.3262,466.72985 1683.3702,467.37909 1681.9963,467.90628 z" id="path5144"/>
      <path style="fill:#161008;fill-opacity:1;stroke:none;stroke-opacity:1" d="M 1663.5437,481.97299 C 1659.4476,483.54481 1651.6051,477.02143 1648.404,469.37978 C 1645.3779,462.15591 1640.4232,459.43361 1630.3018,459.43361 C 1621.0626,459.43361 1617.5494,457.85088 1614.7923,452.44644 C 1612.236,447.43576 1611.0174,446.85128 1601.3734,446.01056 C 1592.7314,445.25718 1584.1754,442.03768 1583.2304,439.18361 C 1582.9117,438.22111 1582.9223,436.57858 1583.254,435.53353 C 1583.8213,433.74626 1584.1666,433.71587 1589.0714,435.02166 C 1591.9393,435.78518 1595.9511,436.41521 1597.9865,436.42174 C 1608.1246,436.45426 1616.0681,440.21134 1619.3283,446.51598 C 1621.0275,449.80181 1624.4306,450.91009 1635.7352,451.85921 C 1639.8324,452.2032 1643.8824,453.07977 1644.7352,453.80713 C 1645.588,454.53449 1647.0813,455.41199 1648.0537,455.75712 C 1649.0261,456.10225 1650.9737,458.98315 1652.3818,462.15912 C 1654.3571,466.61442 1656.0092,468.63741 1659.6138,471.01434 C 1663.5889,473.63555 1664.3321,474.64358 1664.5966,477.77238 C 1664.8007,480.18791 1664.4395,481.62924 1663.5437,481.97299 z" id="path5142"/>
      <path style="fill:#161008;fill-opacity:1;stroke:none;stroke-opacity:1" d="M 1649.4542,446.87229 C 1648.2055,448.58004 1647.7548,448.40791 1642.2042,444.10307 C 1635.936,439.24173 1629.4732,436.43361 1624.553,436.43361 C 1622.2453,436.43361 1621.7089,436.07622 1622.1787,434.85182 C 1622.5126,433.98184 1622.7857,432.85684 1622.7857,432.35182 C 1622.7857,430.34484 1638.3174,432.38006 1642.9521,434.99436 C 1644.7269,435.9955 1650.7857,443.25464 1650.7857,444.37998 C 1650.7857,444.74924 1650.1865,445.87077 1649.4542,446.87229 z" id="path5140"/>
      <path style="fill:#161008;fill-opacity:1;stroke:none;stroke-opacity:1" d="M 1609.6981,431.43361 C 1609.0999,431.43361 1606.7005,429.32396 1604.3661,426.7455 L 1600.1217,422.05739 L 1593.2037,422.13665 C 1589.3988,422.18025 1585.6513,421.86925 1584.8758,421.44553 C 1582.1002,419.92891 1588.0228,417.97395 1595.4552,417.95342 C 1601.7285,417.93609 1602.9632,418.24608 1605.334,420.43361 C 1609.3,424.09299 1612.2123,431.43361 1609.6981,431.43361 z" id="path5138"/>
      <path style="fill:#161008;fill-opacity:1;stroke:none;stroke-opacity:1" d="M 1604.7546,490.18361 C 1603.019,494.50132 1601.0977,492.81054 1600.5217,486.45877 C 1600.2041,482.9562 1599.1088,479.07443 1597.8747,477.07753 L 1595.7694,473.67114 L 1598.0276,473.06603 C 1601.5031,472.13471 1601.6825,472.21613 1603.7967,475.68361 C 1605.9015,479.13581 1606.3664,486.17346 1604.7546,490.18361 z" id="path5136"/>
      <path style="fill:#161008;fill-opacity:1;stroke:none;stroke-opacity:1" d="M 1583.7414,496.12507 C 1582.7932,499.20512 1578.2066,503.43361 1575.814,503.43361 C 1574.5741,503.43361 1574.9632,501.52725 1577.4359,495.48866 C 1578.577,492.70206 1578.6278,490.98213 1577.702,486.48866 C 1577.0725,483.43338 1575.9338,479.71846 1575.1716,478.23327 C 1574.4094,476.74808 1573.7857,474.57844 1573.7857,473.41184 C 1573.7857,472.24524 1573.1107,470.61575 1572.2857,469.79075 C 1570.0436,467.54862 1570.4444,465.43361 1573.1114,465.43361 C 1575.9174,465.43361 1578.7803,468.38861 1581.831,474.43361 C 1584.3906,479.50567 1585.3843,490.78858 1583.7414,496.12507 z" id="path5134"/>
      <path style="fill:#161008;fill-opacity:1;stroke:none;stroke-opacity:1" d="M 1560.6956,496.34289 C 1559.8088,498.56079 1557.0831,501.32604 1555.709,501.40181 C 1555.3917,501.4193 1555.5966,499.1668 1556.1641,496.39625 C 1556.9206,492.70298 1556.8766,490.5128 1555.9991,488.18799 C 1554.6822,484.69902 1555.6516,482.78443 1558.2335,483.7752 C 1561.3218,484.96028 1562.6125,491.54871 1560.6956,496.34289 z" id="path5132"/>
      <g id="g5152" style="fill:#f20c59;fill-opacity:1;stroke:#f20c59;stroke-width:3.79999995;stroke-miterlimit:4;stroke-dasharray:none;stroke-opacity:1">
        <path id="path5130" d="M 1690.8276,530.73443 C 1689.4784,528.52166 1687.6596,527.20746 1684.9288,526.47213 C 1680.1361,525.18161 1677.3527,526.10586 1673.3706,530.31007 C 1670.6376,533.1955 1670.5265,533.62512 1671.5933,537.18587 C 1673.1141,542.26186 1680.2426,549.43361 1683.7672,549.43361 C 1686.3915,549.43361 1689.4022,546.94117 1691.6187,542.93361 C 1693.3366,539.8277 1692.9753,534.25673 1690.8276,530.73443 z" style="fill:#f20c59;fill-opacity:1;stroke:#f20c59;stroke-width:3.79999995;stroke-miterlimit:4;stroke-dasharray:none;stroke-opacity:1"/>
        <path id="path5128" d="M 1689.7915,500.33902 C 1688.6908,497.92947 1688.2383,497.77817 1683.446,498.21749 C 1680.6078,498.47768 1678.0607,498.89664 1677.7857,499.14852 C 1677.5107,499.4004 1677.3747,502.1011 1677.4836,505.15007 C 1677.7443,512.45792 1680.3177,515.43361 1686.3767,515.43361 C 1688.8033,515.43361 1690.8603,514.8986 1691.1827,514.18361 C 1692.0377,512.28769 1691.1319,503.27323 1689.7915,500.33902 z" style="fill:#f20c59;fill-opacity:1;stroke:#f20c59;stroke-width:3.79999995;stroke-miterlimit:4;stroke-dasharray:none;stroke-opacity:1"/>
        <path id="path5126" d="M 1662.7221,512.74871 C 1661.6123,509.81129 1657.0053,504.43361 1655.5986,504.43361 C 1655.1515,504.43361 1653.0966,506.12111 1651.0321,508.18361 C 1648.9675,510.24611 1644.9175,513.05235 1642.0321,514.41969 C 1636.378,517.09897 1635.9758,517.96676 1638.3026,522.46634 C 1641.2377,528.1421 1650.4097,530.80881 1656.9116,527.87682 C 1663.0421,525.11238 1665.2356,519.40129 1662.7221,512.74871 z" style="fill:#f20c59;fill-opacity:1;stroke:#f20c59;stroke-width:3.79999995;stroke-miterlimit:4;stroke-dasharray:none;stroke-opacity:1"/>
        <path id="path5124" d="M 1661.2001,544.07112 C 1660.1724,541.39289 1653.781,537.24266 1649.878,536.71917 C 1644.6788,536.0218 1640.2986,538.50793 1637.6787,543.64334 C 1635.7543,547.41552 1635.6647,548.31487 1636.7361,553.10248 C 1637.6059,556.98915 1638.673,558.92921 1640.7573,560.41335 C 1644.7529,563.25848 1650.5477,563.06031 1654.7857,559.93361 C 1656.6494,558.55861 1658.9118,557.43361 1659.8133,557.43361 C 1660.7148,557.43361 1661.7973,557.09611 1662.2189,556.68361 C 1663.0001,555.91932 1662.2678,546.85343 1661.2001,544.07112 z" style="fill:#f20c59;fill-opacity:1;stroke:#f20c59;stroke-width:3.79999995;stroke-miterlimit:4;stroke-dasharray:none;stroke-opacity:1"/>
        <path id="path5122" d="M 1630.3435,560.28633 C 1629.4867,558.14507 1628.7857,555.27724 1628.7857,553.91337 C 1628.7857,551.43553 1627.4245,550.59106 1626.3175,552.38216 C 1625.9951,552.90387 1623.0435,554.1286 1619.7585,555.1038 C 1614.7757,556.58298 1613.7857,557.24673 1613.7857,559.10819 C 1613.7857,565.2677 1616.8698,567.53796 1627.1245,568.92725 C 1631.0082,569.4534 1632.356,569.22746 1633.9526,567.78262 C 1635.9374,565.98637 1635.9373,565.98048 1633.9215,565.08098 C 1632.8103,564.58517 1631.2002,562.42758 1630.3435,560.28633 z" style="fill:#f20c59;fill-opacity:1;stroke:#f20c59;stroke-width:3.79999995;stroke-miterlimit:4;stroke-dasharray:none;stroke-opacity:1"/>
        <path id="path5120" d="M 1630.4334,529.13282 C 1628.4538,524.39489 1622.4403,520.20292 1616.8531,519.66606 C 1613.4029,519.33454 1611.8651,519.63307 1610.8745,520.82667 C 1610.141,521.71049 1608.9511,522.43361 1608.2302,522.43361 C 1607.5094,522.43361 1605.2629,524.4554 1603.2381,526.92647 C 1599.8466,531.06528 1599.6089,531.76897 1600.2218,535.85609 C 1601.5072,544.4277 1606.9262,548.43361 1617.2361,548.43361 C 1623.544,548.43361 1623.9333,548.28599 1627.7857,544.43361 C 1631.1297,541.08966 1631.7857,539.7723 1631.7857,536.40149 C 1631.7857,534.18383 1631.1772,530.91293 1630.4334,529.13282 z" style="fill:#f20c59;fill-opacity:1;stroke:#f20c59;stroke-width:3.79999995;stroke-miterlimit:4;stroke-dasharray:none;stroke-opacity:1"/>
        <path id="path5118" d="M 1600.0339,562.1582 C 1596.4239,558.89121 1592.8344,558.25671 1587.6688,559.97246 C 1580.7954,562.25542 1576.7857,566.28171 1576.7857,570.90056 C 1576.7857,574.64991 1578.2237,578.35842 1580.1854,579.6683 C 1583.3327,581.76978 1597.2838,579.79264 1600.252,576.82449 C 1602.5054,574.57106 1602.352,564.25608 1600.0339,562.1582 z" style="fill:#f20c59;fill-opacity:1;stroke:#f20c59;stroke-width:3.79999995;stroke-miterlimit:4;stroke-dasharray:none;stroke-opacity:1"/>
        <path id="path5116" d="M 1592.3881,542.63159 C 1591.6194,541.1451 1590.0426,539.07103 1588.884,538.02255 C 1587.0286,536.34342 1586.331,536.25902 1583.0316,537.31445 C 1580.9714,537.97349 1576.6174,538.8324 1573.356,539.22315 C 1567.6184,539.91059 1567.4854,539.99265 1569.2499,541.75602 C 1572.1785,544.68283 1575.423,549.85227 1576.1504,552.75058 C 1576.7075,554.97014 1577.3831,555.43361 1580.0614,555.43361 C 1590.956,555.43361 1596.1947,549.99283 1592.3881,542.63159 z" style="fill:#f20c59;fill-opacity:1;stroke:#f20c59;stroke-width:3.79999995;stroke-miterlimit:4;stroke-dasharray:none;stroke-opacity:1"/>
        <path id="path5114" d="M 1569.3178,556.16476 C 1567.5285,551.88213 1563.9834,550.43361 1555.2915,550.43361 C 1550.3657,550.43361 1548.7247,550.84356 1547.2857,552.43361 C 1546.2902,553.53361 1544.9362,554.43361 1544.2768,554.43361 C 1543.6173,554.43361 1541.8871,555.53712 1540.4317,556.88586 C 1535.2617,561.67727 1537.8298,572.55236 1544.8144,575.44549 C 1547.4618,576.54209 1549.5889,576.57801 1556.0567,575.63533 C 1564.8895,574.34792 1566.0689,573.68848 1568.8093,568.5049 C 1571.1108,564.15144 1571.2494,560.78772 1569.3178,556.16476 z" style="fill:#f20c59;fill-opacity:1;stroke:#f20c59;stroke-width:3.79999995;stroke-miterlimit:4;stroke-dasharray:none;stroke-opacity:1"/>
        <path id="path5112" d="M 1563.676,581.8386 C 1562.0498,580.37026 1560.1734,579.96026 1555.4894,580.04986 C 1550.2086,580.15089 1549.1095,580.51843 1547.0991,582.85563 C 1544.2913,586.1199 1544.2916,586.11092 1546.8454,590.29976 C 1548.8582,593.60138 1549.0092,593.65783 1554.7195,593.24478 C 1561.987,592.7191 1565.7857,590.42629 1565.7857,586.56554 C 1565.7857,584.9633 1564.8738,582.92021 1563.676,581.8386 z" style="fill:#f20c59;fill-opacity:1;stroke:#f20c59;stroke-width:3.79999995;stroke-miterlimit:4;stroke-dasharray:none;stroke-opacity:1"/>
        <path id="path5110" d="M 1537.8469,585.18067 C 1535.2465,582.39822 1534.1516,581.98802 1528.3369,581.61776 C 1520.8771,581.14276 1516.6996,582.45629 1513.7518,586.20383 C 1509.9074,591.09118 1512.0968,601.4608 1517.3987,603.47657 C 1518.7832,604.00294 1522.383,604.43361 1525.3984,604.43361 C 1530.6371,604.43361 1531.1012,604.21333 1535.8333,599.48123 C 1541.8682,593.44635 1542.3532,590.0023 1537.8469,585.18067 z" style="fill:#f20c59;fill-opacity:1;stroke:#f20c59;stroke-width:3.79999995;stroke-miterlimit:4;stroke-dasharray:none;stroke-opacity:1"/>
        <path id="path5108" d="M 1528.7131,564.06847 C 1527.2822,562.24935 1525.6948,561.43361 1523.5858,561.43361 C 1519.7687,561.43361 1507.7697,567.23248 1508.3721,568.78608 C 1508.6168,569.41722 1510.3003,570.94611 1512.1133,572.18361 C 1516.8488,575.41611 1524.5382,575.31907 1528.1397,571.98136 C 1531.3281,569.02641 1531.4365,567.5307 1528.7131,564.06847 z" style="fill:#f20c59;fill-opacity:1;stroke:#f20c59;stroke-width:3.79999995;stroke-miterlimit:4;stroke-dasharray:none;stroke-opacity:1"/>
        <path id="path4595" d="M 1504.8384,582.53692 C 1503.6806,580.26735 1501.6751,578.2162 1499.8915,577.47741 C 1497.2226,576.37192 1496.0454,576.57667 1489.2157,579.33426 C 1484.9939,581.0389 1480.7131,582.43361 1479.7028,582.43361 C 1478.4338,582.43361 1477.5045,583.64035 1476.6965,586.33715 C 1475.1833,591.38778 1476.1428,596.26066 1479.3266,599.69427 C 1481.5398,602.08114 1482.6228,602.43361 1487.7433,602.43361 C 1495.3952,602.43361 1502.1099,599.59051 1504.7726,595.22316 C 1507.2993,591.07893 1507.3184,587.39812 1504.8384,582.53692 z" style="fill:#f20c59;fill-opacity:1;stroke:#f20c59;stroke-width:3.79999995;stroke-miterlimit:4;stroke-dasharray:none;stroke-opacity:1"/>
      </g>
    </g>
  </svg>
