<?xml version="1.0"?>
<svg xmlns="http://www.w3.org/2000/svg" version="1.0" width="100%" height="100%"
     viewBox="93.476135 42.202362 96.461372 87.087982">
  <defs id="defs">
  </defs>
    <rect ry="10" rx="10" y="46.202362" x="97.476135" height="79.087982" width="88.461372" id="rect4732" style="opacity:1;fill:#d5e2d5;fill-opacity:1;stroke:#000000;stroke-width:1.60000002;stroke-linecap:round;stroke-linejoin:round;stroke-miterlimit:4;stroke-dasharray:none;stroke-dashoffset:0;stroke-opacity:1"/>
    <g id="g9932">
      <g id="g4742" transform="matrix(0.217246,0,0,0.217246,120.6272,56.948903)">
        <path xmlns:sodipodi="http://sodipodi.sourceforge.net/DTD/sodipodi-0.dtd" sodipodi:nodetypes="csssccsccsssssssccsssssscccsssssssscscccccsc" id="path4648" d="M 27.903564,205.93536 C 29.427089,203.38424 30.475167,201.23365 30.475167,198.4132 C 30.475167,195.40102 31.223828,193.42645 33.33992,190.85748 C 36.363746,187.18652 37.960293,181.567 39.583979,168.87964 C 41.319893,155.31535 42.383581,148.37859 43.676037,147.01065 C 37.189885,143.36417 33.861783,136.38304 33.280925,129.15239 C 33.178329,121.91662 35.989911,115.95351 40.858545,113.08095 C 42.642656,112.0283 44.634852,111.18115 46.440502,110.03663 C 46.247824,92.310837 53.303787,83.044158 63.245729,73.729021 C 62.847614,70.669444 62.361539,68.723395 62.817851,64.197864 C 63.166847,60.736655 63.547602,57.149549 70.095224,50.376786 C 72.609948,47.775593 76.695564,44.846948 76.999245,42.743895 C 77.900028,36.505782 81.453117,31.314414 85.60729,28.521772 C 88.485991,26.586566 89.592463,24.51262 89.712551,18.745372 C 89.867643,11.297079 93.665684,8.236729 97.260078,7.2637876 C 98.516777,6.9236198 99.151197,4.0454233 99.977757,2.5077501 C 100.90191,0.78851062 104.8331,-0.44807278 106.74992,1.4687501 C 109.67255,4.7296246 105.15575,6.6177613 108.63812,13.107969 C 110.02414,16.028794 108.56056,20.02049 107.76418,21.384374 C 106.43516,23.660498 106.91678,25.81326 107.77532,28.010856 C 108.45551,29.751916 110.9645,33.180602 110.14591,37.472358 C 109.33734,41.711605 110.51025,46.168614 111.20724,47.440263 C 111.96087,48.815263 111.57292,51.577965 111.89109,53.042582 C 112.5075,55.880099 120.15004,61.026101 123.78808,61.026101 C 126.1304,61.026101 131.40147,58.055061 132.59698,56.202845 C 134.56846,49.354558 136.03076,42.146648 142.8471,38.37868 C 147.12333,36.357547 145.95692,35.29767 146.94538,32.416496 C 148.74945,27.821579 150.80424,28.53687 150.84517,22.5447 C 150.87984,17.470648 156.96298,14.879641 160.39255,14.879641 C 163.51206,14.879641 164.81005,15.488911 166.84649,17.909078 C 169.73543,21.342397 171.03815,26.602065 170.00057,30.643598 C 168.33238,37.141453 167.01833,40.386712 169.87896,44.045747 C 172.50846,47.409138 172.82306,60.552472 171.84734,62.65929 C 171.1026,64.267379 167.38184,70.100832 167.88933,72.207924 C 169.06066,77.071282 169.38736,82.105837 169.20267,83.989162 C 168.96228,86.440417 168.72874,94.663418 166.88604,97.223215 C 168.85129,100.07593 169.57176,107.70159 169.3593,110.69192 C 168.95576,116.37182 166.8145,123.96223 161.56377,125.20222 L 162.59701,160.9709 L 166.03609,168.14706 C 175.89876,198.46984 181.59109,227.54394 181.97166,265.51332 L 1.8978557,265.04617 C 0.056878381,261.92964 0.38135498,260.60006 0.92500958,259.00873 C 1.418917,257.56302 26.733089,207.8953 27.903564,205.93536 z" style="opacity:1;fill:#000000;fill-opacity:1;stroke:#000000;stroke-opacity:1"/>
        <path xmlns:sodipodi="http://sodipodi.sourceforge.net/DTD/sodipodi-0.dtd" sodipodi:nodetypes="czczsczsszzzzccsszzcczzc" id="coat" d="M 119.86024,219.31854 C 119.25759,215.62744 116.35328,209.64509 117.87956,208.08891 C 119.51255,206.42394 125.22384,209.6439 129.59976,208.30264 C 137.86187,200.66076 151.16689,179.08103 152.65171,178.98065 C 154.13609,178.88031 155.94005,180.65452 155.64775,181.36514 C 155.11581,182.65839 134.63924,210.86546 130.74442,213.65504 C 128.18983,213.86117 123.53239,210.6987 122.02339,212.00334 C 120.62152,213.21535 125.92895,216.97797 124.16067,220.26939 C 122.64112,223.09784 72.566235,263.22767 73.847304,265.30048 C 74.62308,266.55571 124.6212,265.21328 125.9323,264.09174 C 127.13561,263.06239 126.58873,236.30052 127.78074,235.33598 C 129.08008,234.28459 129.7756,233.67976 131.72425,234.91526 C 133.52292,236.05567 132.49329,260.9192 133.46448,261.75278 C 134.54951,262.68408 163.58218,263.12892 165.05367,261.91159 C 166.73129,252.57659 164.0358,242.55573 166.58697,233.31054 C 168.54624,232.09965 169.18678,234.78808 169.90045,247.21778 C 170.3408,254.88711 170.10312,260.37464 171.20264,262.13472 C 171.9784,263.37654 177.3233,263.5557 178.3508,262.27253 C 179.30276,261.08369 176.42161,225.30415 174.33714,217.6145 C 172.20032,209.73172 162.04554,167.25827 159.70089,167.25827 C 143.30469,177.69385 129.31645,188.7995 115.21143,199.74019 C 106.40121,207.5111 66.147636,259.91284 66.326388,261.28664 C 66.478606,262.45652 70.67739,262.86526 71.959422,262.0261 C 73.100408,261.27926 105.13677,231.77285 119.86024,219.31854 z" style="fill:#a9a9a9;fill-opacity:1;stroke:#000000;stroke-opacity:1"/>
        <g transform="translate(-2.5248333,-2.120359)" id="shirt">
          <path xmlns:sodipodi="http://sodipodi.sourceforge.net/DTD/sodipodi-0.dtd" sodipodi:nodetypes="czzzz" style="fill:#f5f5f5;fill-opacity:1;stroke:#000000;stroke-opacity:1" d="M 98.552338,215.01698 C 99.915,214.7506 107.08324,206.76694 106.15181,205.86104 C 105.33001,205.06175 64.228207,199.97281 63.128626,200.378 C 61.848738,200.84963 61.410532,212.69241 62.154592,213.70644 C 62.80392,214.59136 97.243358,215.27286 98.552338,215.01698 z" id="path4654"/>
          <path xmlns:sodipodi="http://sodipodi.sourceforge.net/DTD/sodipodi-0.dtd" sodipodi:nodetypes="czzzz" style="fill:#f5f5f5;fill-opacity:1;stroke:#000000;stroke-opacity:1" d="M 95.383554,218.70776 C 94.957773,217.64188 58.545361,216.06887 57.709431,217.02807 C 56.766662,218.10987 36.107963,263.13303 37.359217,263.92893 C 38.459489,264.6288 62.242763,264.60437 63.178924,263.73874 C 64.231817,262.76517 95.779291,219.69843 95.383554,218.70776 z" id="path4652"/>
          <path xmlns:sodipodi="http://sodipodi.sourceforge.net/DTD/sodipodi-0.dtd" sodipodi:nodetypes="czzsss" style="fill:#f5f5f5;fill-opacity:1;stroke:#000000;stroke-opacity:1" d="M 5.2305053,263.67661 C 5.9344614,264.79892 12.047312,264.85383 12.661779,264.23019 C 13.3259,263.55616 41.378085,213.25353 42.068535,211.57037 C 42.722791,209.97544 40.278151,208.22306 37.790511,207.43351 C 36.074802,206.88897 34.621021,207.14968 33.042834,209.80268 C 28.974049,216.64247 4.5983445,262.66877 5.2305053,263.67661 z" id="path4650"/>
          <path xmlns:sodipodi="http://sodipodi.sourceforge.net/DTD/sodipodi-0.dtd" sodipodi:nodetypes="czzsz" style="fill:#f5f5f5;fill-opacity:1;stroke:#000000;stroke-opacity:1" d="M 40.889366,203.03613 C 42.291673,202.35927 47.50168,194.85532 46.625562,193.62111 C 45.812941,192.47634 41.295555,190.16751 40.129429,190.32428 C 38.94525,190.48348 34.58558,200.18474 35.544068,201.18786 C 37.053407,202.76749 39.48706,203.71298 40.889366,203.03613 z" id="path4644"/>
        </g>
        <path xmlns:sodipodi="http://sodipodi.sourceforge.net/DTD/sodipodi-0.dtd" sodipodi:nodetypes="cczcsscscssssssscssssccsssccs" id="head" d="M 110.97517,197.65734 C 112.86995,196.83064 157.02036,165.18332 158.24052,162.45091 C 158.04667,151.58639 156.41388,130.35913 155.92169,128.16848 C 155.47391,126.17544 151.5443,126.88399 149.22057,126.57232 C 146.54289,126.19475 140.63516,124.07332 141.05259,121.82723 C 141.4307,119.7927 143.38609,119.79355 147.3435,121.81247 C 156.22295,126.34243 164.74134,121.60118 166.01326,111.42106 C 166.98951,103.68554 163.22216,94.92895 153.71776,93.020125 C 151.82889,92.640772 147.59436,95.806839 147.59436,95.806839 C 142.05673,98.453581 141.52639,98.527061 137.03565,97.269732 C 134.21783,96.480789 129.99132,94.018432 126.57509,91.175415 C 121.77405,87.179947 121.70937,85.971737 119.22872,81.203142 C 116.84841,76.627436 117.84907,73.420726 118.9269,70.938154 C 121.39218,65.259874 119.60257,63.323882 113.81335,62.42163 C 104.39842,60.95431 99.888917,60.944582 92.266875,62.375151 C 80.111046,64.656657 72.96121,68.843935 63.603793,77.286741 C 52.098507,87.66748 50.097273,96.837819 48.881819,109.86635 C 52.489127,109.63012 57.414312,109.07225 60.159406,109.15119 C 62.469237,109.21761 67.479756,109.90952 68.133937,110.54233 C 68.534402,110.92971 68.288938,112.65409 68.182248,112.95847 C 67.900741,113.7616 64.374409,112.16182 59.780655,112.06477 C 43.713775,111.72534 36.66075,117.61045 36.587346,129.26943 C 37.348149,140.677 45.210163,146.03029 60.420073,145.56551 C 67.136653,145.35623 73.187133,145.48101 73.446207,145.73005 C 74.009851,146.27188 74.038757,147.6036 73.310149,148.41632 C 72.678427,149.12096 66.006392,148.83125 59.230474,148.62622 C 49.261147,148.32456 49.949553,148.49199 46.463506,147.77481 L 40.6974,183.98392 C 47.551653,194.18294 101.45693,201.8102 110.97517,197.65734 z" style="fill:#fedcb9;fill-opacity:1;stroke:#000000;stroke-opacity:1"/>
        <path id="mouth" d="M 56.475167,170.41468 C 56.475167,164.51851 58.721158,163.30173 62.18069,167.32368 C 64.327709,169.81974 64.42737,170.32034 63.159677,172.24114 C 62.383423,173.41731 60.56185,174.52203 59.111736,174.69606 C 56.599391,174.99758 56.475167,174.79586 56.475167,170.41468 z" style="fill:#000000;fill-opacity:1;stroke:#000000;stroke-opacity:1"/>
        <path id="ear" d="M 146.67725,117.48067 C 146.31058,117.11401 146.01058,115.98901 146.01058,114.98067 C 146.01058,113.62024 146.98217,112.20244 148.93915,113.14734 C 156.5224,116.80882 158.67138,106.56636 152.72517,103.94917 C 151.21297,103.28359 149.63741,104.26283 149.21021,103.56615 C 148.56101,102.50743 149.79674,99.879641 151.88628,99.879641 C 153.37132,99.879641 155.33194,101.10914 156.99097,103.08078 C 159.21478,105.72364 160.32569,107.6939 159.89413,110.91138 C 159.25248,115.69523 155.05645,118.87964 151.46752,118.87964 C 150.00506,118.87964 147.04391,117.84734 146.67725,117.48067 z" style="fill:#000000;fill-opacity:1;stroke:#000000;stroke-opacity:1"/>
        <path id="path4636" d="M 78.710146,105.35709 C 77.197646,104.50936 75.960146,103.10787 75.960146,102.24267 C 75.960146,100.59459 78.276055,100.66025 87.378017,102.56639 C 91.410097,103.41079 93.567761,105.87099 90.293479,105.89065 C 89.285146,105.8967 86.885146,106.12592 84.960146,106.40003 C 82.808846,106.70636 80.400453,106.30447 78.710146,105.35709 z" style="fill:#000000;fill-opacity:1;stroke:#000000;stroke-opacity:1"/>
        <path xmlns:sodipodi="http://sodipodi.sourceforge.net/DTD/sodipodi-0.dtd" sodipodi:nodetypes="cssssc" id="path4053" d="M 91.637709,98.757171 C 90.635369,98.175281 87.592621,97.935351 86.394961,97.913311 C 83.405753,97.858313 74.689622,96.568068 74.189666,95.068201 C 73.818252,93.95396 78.859922,93.34142 84.460146,93.820384 C 88.449218,94.161552 96.053116,97.100722 95.698556,98.164421 C 95.169866,99.750491 93.714647,99.962911 91.637709,98.757171 z" style="fill:#000000;fill-opacity:1;stroke:#000000;stroke-opacity:1"/>
        <g transform="translate(-2.5248333,-2.120359)" style="fill:#2331e7;fill-opacity:1" id="tie">
          <path xmlns:sodipodi="http://sodipodi.sourceforge.net/DTD/sodipodi-0.dtd" sodipodi:nodetypes="czzzszz" style="fill:#2331e7;fill-opacity:1;stroke:#000000;stroke-opacity:1" d="M 58.664877,211.01627 C 59.716622,210.50862 60.513325,200.97135 59.637207,199.73714 C 58.824586,198.59237 51.034478,194.88041 49.723517,195.61181 C 48.412556,196.34321 44.179955,202.28385 44.069326,203.89779 C 43.965764,205.40865 45.892409,210.0079 46.277341,210.41076 C 47.031978,211.20054 52.56445,214.63131 53.54652,214.6665 C 54.622453,214.70506 57.613132,211.52392 58.664877,211.01627 z" id="path4666"/>
          <path xmlns:sodipodi="http://sodipodi.sourceforge.net/DTD/sodipodi-0.dtd" sodipodi:nodetypes="czzzz" style="fill:#2331e7;fill-opacity:1;stroke:#000000;stroke-opacity:1" d="M 16.217579,264.25184 C 16.795346,264.79688 31.70894,265.03126 33.38371,264.39117 C 34.87633,263.8207 54.229281,218.69618 53.780545,217.53083 C 53.307998,216.30365 45.37612,212.24163 44.324405,212.46191 C 43.173293,212.70301 15.37293,263.45505 16.217579,264.25184 z" id="path4668"/>
        </g>
        <path xmlns:sodipodi="http://sodipodi.sourceforge.net/DTD/sodipodi-0.dtd" sodipodi:nodetypes="cssssc" id="path4680" d="M 51.429349,96.200625 C 52.505514,95.770335 55.550874,95.974454 56.739057,96.126431 C 59.70461,96.505754 68.515713,96.493894 69.228011,95.082445 C 69.757174,94.03389 64.857742,92.696275 59.247289,92.357564 C 55.25093,92.116298 47.301026,93.92102 47.497489,95.02491 C 47.79044,96.670913 49.199435,97.092241 51.429349,96.200625 z" style="fill:#000000;fill-opacity:1;stroke:#000000;stroke-opacity:1"/>
        <path id="path4682" d="M 53.709715,103.88512 C 52.101266,103.23767 50.69478,102.00585 50.584192,101.14774 C 50.373537,99.513181 52.678842,99.282291 61.949786,100.0094 C 66.056723,100.33149 68.511148,102.49573 65.266236,102.93374 C 64.266947,103.06862 61.915931,103.60273 60.041757,104.12064 C 57.947258,104.69943 55.50725,104.60868 53.709715,103.88512 z" style="fill:#000000;fill-opacity:1;stroke:#000000;stroke-width:1;stroke-opacity:1"/>
      </g>
      <g id="g3715" transform="translate(-91.963344,42.180257)">
        <g id="g3696">
          <path xmlns:sodipodi="http://sodipodi.sourceforge.net/DTD/sodipodi-0.dtd" sodipodi:type="arc" style="fill:none;fill-opacity:1;stroke:#ce0004;stroke-width:6;stroke-linecap:round;stroke-linejoin:round;stroke-miterlimit:4;stroke-dasharray:none;stroke-dashoffset:0;stroke-opacity:1" id="path4761" sodipodi:cx="108.5333" sodipodi:cy="-55.029835" sodipodi:rx="32.725693" sodipodi:ry="32.725693" d="M 141.259,-55.029835 A 32.725693,32.725693 0 1 1 75.80761,-55.029835 A 32.725693,32.725693 0 1 1 141.259,-55.029835 z" transform="translate(125.26952,98.591389)"/>
        </g>
        <g style="stroke:#000000;stroke-width:0.99974287;stroke-miterlimit:4;stroke-dasharray:none;stroke-opacity:1" transform="matrix(0.8971135,0,0,0.8971135,24.001274,4.4076786)" id="g3699">
          <path xmlns:sodipodi="http://sodipodi.sourceforge.net/DTD/sodipodi-0.dtd" sodipodi:type="arc" style="fill:none;fill-opacity:1;stroke:#000000;stroke-width:0.99974287;stroke-linecap:round;stroke-linejoin:round;stroke-miterlimit:4;stroke-dasharray:none;stroke-dashoffset:0;stroke-opacity:1" id="path3701" sodipodi:cx="108.5333" sodipodi:cy="-55.029835" sodipodi:rx="32.725693" sodipodi:ry="32.725693" d="M 141.259,-55.029835 A 32.725693,32.725693 0 1 1 75.80761,-55.029835 A 32.725693,32.725693 0 1 1 141.259,-55.029835 z" transform="translate(125.26952,98.591389)"/>
        </g>
        <path id="path4765" d="M 206.42384,62.303484 L 257.03932,21.91988" style="fill:none;fill-rule:evenodd;stroke:#ce0004;stroke-width:6;stroke-linecap:butt;stroke-linejoin:miter;stroke-miterlimit:4;stroke-dasharray:none;stroke-opacity:1"/>
        <g style="stroke:#000000;stroke-width:0.99974287;stroke-miterlimit:4;stroke-dasharray:none;stroke-opacity:1" transform="matrix(1.0822507,0,0,1.0822507,-18.991414,-3.6571867)" id="g3707">
          <path xmlns:sodipodi="http://sodipodi.sourceforge.net/DTD/sodipodi-0.dtd" sodipodi:type="arc" style="fill:none;fill-opacity:1;stroke:#000000;stroke-width:0.99974287;stroke-linecap:round;stroke-linejoin:round;stroke-miterlimit:4;stroke-dasharray:none;stroke-dashoffset:0;stroke-opacity:1" id="path3709" sodipodi:cx="108.5333" sodipodi:cy="-55.029835" sodipodi:rx="32.725693" sodipodi:ry="32.725693" d="M 141.259,-55.029835 A 32.725693,32.725693 0 1 1 75.80761,-55.029835 A 32.725693,32.725693 0 1 1 141.259,-55.029835 z" transform="translate(125.26952,98.591389)"/>
        </g>
        <path xmlns:sodipodi="http://sodipodi.sourceforge.net/DTD/sodipodi-0.dtd" sodipodi:nodetypes="cc" id="path3711" d="M 211.37729,62.819954 L 257.47533,26.022072" style="fill:none;fill-rule:evenodd;stroke:#000000;stroke-width:1px;stroke-linecap:butt;stroke-linejoin:miter;stroke-opacity:1"/>
        <path xmlns:sodipodi="http://sodipodi.sourceforge.net/DTD/sodipodi-0.dtd" sodipodi:nodetypes="cc" id="path3713" d="M 207.38627,57.071429 L 252.82525,20.822769" style="fill:none;fill-rule:evenodd;stroke:#000000;stroke-width:1px;stroke-linecap:butt;stroke-linejoin:miter;stroke-opacity:1"/>
      </g>
    </g>
  </svg>
