<?xml version="1.0" encoding="UTF-8" standalone="no"?>
<!-- Created with Inkscape (http://www.inkscape.org/) -->

<svg
   version="1.1"
   viewBox="0 0 4538.6665 2453.3333"
   sodipodi:docname="svg.svg"
   inkscape:version="1.1.2 (0a00cf5339, 2022-02-04)"
   id="svg988"
   xmlns:inkscape="http://www.inkscape.org/namespaces/inkscape"
   xmlns:sodipodi="http://sodipodi.sourceforge.net/DTD/sodipodi-0.dtd"
   xmlns="http://www.w3.org/2000/svg"
   xmlns:svg="http://www.w3.org/2000/svg">
  <defs
     id="defs6">
    <clipPath
       clipPathUnits="userSpaceOnUse"
       id="clipPath20">
      <path
         d="m 30285,9089.65 c 0,1720.55 -1394.8,3115.45 -3115.4,3115.45 -1720.7,0 -3115.5,-1394.9 -3115.5,-3115.45 0,-1720.65 1394.8,-3115.55 3115.5,-3115.55 1720.6,0 3115.4,1394.9 3115.4,3115.55 z m 380.5,0 c 0,-1930.75 -1565.1,-3496.05 -3495.9,-3496.05 -1930.9,0 -3496.1,1565.3 -3496.1,3496.05 0,1930.75 1565.2,3495.95 3496.1,3495.95 1930.8,0 3495.9,-1565.2 3495.9,-3495.95 z M 29077,8759.18 c 40.8,-91.26 0.2,-198.4 -90.9,-239.19 l -335,-150.59 260.4,-150.4 c 86.7,-50 116.3,-160.7 66.3,-247.3 -50,-86.6 -160.6,-116.1 -247.2,-66.1 l -260.2,150.2 36.9,-365.2 c 10.2,-99.2 -62.3,-187.9 -161.7,-198.3 -99.5,-10 -188.3,62.5 -198.5,161.8 l -63.2,624.9 -733.5,423.43 V 7855.6 l 509.6,-367.2 c 81.2,-58.4 99.3,-171.5 41,-252.6 -35.4,-49.1 -90.6,-75.2 -146.9,-75.2 -36.8,0 -73.8,11.1 -105.6,34.2 l -298.1,214.8 v -300.8 c 0,-100 -80.8,-181 -180.7,-181 -100.1,0 -181.1,81 -181.1,181 v 300.6 l -297.5,-214.6 c -80.9,-58.3 -194.4,-40.2 -252.8,41 -58.6,81.1 -39.9,194.2 41,252.6 l 509.3,367.2 v 846.76 l -733.1,-423.26 -63.5,-625.2 c -10.2,-99.3 -99,-171.7 -198.5,-161.7 -99.4,10.3 -171.9,99 -161.7,198.3 l 37.1,365.4 -260.4,-150.3 c -86.6,-50 -197.3,-20.4 -247.3,66.3 -50,86.5 -20.3,197.1 66.3,247.1 l 260.2,150.2 -334.7,150.63 c -91.1,40.8 -131.6,147.93 -90.9,239.18 41.1,91.26 148.2,131.83 239.3,91.04 l 572.9,-257.68 733.4,423.43 -733.4,423.41 -572.8,-257.72 c -91.2,-41.06 -198.2,-0.23 -239.2,90.84 -24.9,55.19 -19.9,116.04 8.3,164.87 18.3,31.82 46.5,58.32 82.4,74.28 l 335.1,150.72 -260.6,150.43 c -86.5,49.99 -116.3,160.55 -66.3,247.07 50,86.7 160.7,116.3 247.3,66.3 l 260.3,-150.26 -37.1,364.96 c -10.1,99.2 62.4,188.4 161.9,198.3 99.5,10.3 188.1,-62.5 198.3,-161.7 l 63.4,-624.68 733.3,-423.37 v 846.55 l -509.8,367.5 c -80.8,58.5 -99.1,171.6 -40.8,252.8 58.7,80.9 171.7,99.3 252.6,40.8 l 298,-214.8 v 300.7 c 0,100 81,181 181.1,181 99.9,0 180.7,-81 180.7,-181 v -300.4 l 297.9,214.5 c 80.8,58.5 193.9,40.1 252.5,-40.8 58.5,-81.2 40.1,-194.3 -40.8,-252.8 l -509.6,-367.2 v -846.93 l 733.4,423.42 63.2,624.91 c 10.1,99.5 98.9,171.8 198.3,161.8 60.2,-6.1 110.4,-40.8 138.6,-89.6 18.4,-31.9 27.3,-69.5 23.2,-108.5 l -37.1,-365.63 260.6,150.43 c 86.6,50 197.2,20.5 247.2,-66.1 50,-86.63 20.3,-197.33 -66.3,-247.31 l -260.3,-150.3 334.6,-150.33 c 90.9,-40.88 132,-148.29 90.8,-239.42 -40.8,-91.3 -148.1,-131.62 -239.2,-90.83 l -572.6,257.46 -733.3,-423.37 733.1,-423.26 573.1,257.67 c 91.1,40.8 198.2,0.08 239.3,-91.03 z"
         id="path18" />
    </clipPath>
    <linearGradient
       x1="0"
       y1="0"
       x2="1"
       y2="0"
       gradientUnits="userSpaceOnUse"
       gradientTransform="matrix(-3496.58,6056.26,6056.26,3496.58,28917.9,6061.5)"
       spreadMethod="pad"
       id="linearGradient32">
      <stop
         style="stop-opacity:1;stop-color:#0e6df3"
         offset="0"
         id="stop22" />
      <stop
         style="stop-opacity:1;stop-color:#039aff"
         offset="0.418972"
         id="stop24" />
      <stop
         style="stop-opacity:1;stop-color:#0df7ff"
         offset="0.81489256"
         id="stop26" />
      <stop
         style="stop-opacity:1;stop-color:#0df7ff"
         offset="0.901227"
         id="stop28" />
      <stop
         style="stop-opacity:1;stop-color:#0df7ff"
         offset="1"
         id="stop30" />
    </linearGradient>
    <clipPath
       clipPathUnits="userSpaceOnUse"
       id="clipPath42">
      <path
         d="m 20135.5,9089.65 c 0,1720.55 -1394.9,3115.45 -3115.5,3115.45 -1720.6,0 -3115.5,-1394.9 -3115.5,-3115.45 0,-1720.65 1394.9,-3115.55 3115.5,-3115.55 1720.6,0 3115.5,1394.9 3115.5,3115.55 z m 380.5,0 c 0,-1930.75 -1565.2,-3496.05 -3496,-3496.05 -1930.8,0 -3496,1565.3 -3496,3496.05 0,1930.75 1565.2,3495.95 3496,3495.95 1930.8,0 3496,-1565.2 3496,-3495.95 z M 17019.9,7143.2 c -859.3,0 -1558.3,699 -1558.3,1558.43 0,832.68 409.3,1953.57 1562.1,2371.07 14.1,5.2 30.5,1.4 41.6,-9.7 10.3,-11.1 14.1,-27.5 8.2,-41.6 -2.9,-6.7 -198.4,-511.8 -26,-1033.97 38.6,64.57 105.5,158.17 205.7,283.77 286.7,356.5 647.1,410 661.9,412.2 14.8,2.3 29,-3.7 37.8,-16.3 8.2,-11.9 9.8,-27.5 3.1,-40.9 -194,-371.4 1.4,-649.18 227.2,-970.8 184.9,-263.7 395.2,-563.05 395.2,-953.77 0,-859.43 -699,-1558.43 -1558.5,-1558.43 z"
         id="path40" />
    </clipPath>
    <linearGradient
       x1="0"
       y1="0"
       x2="1"
       y2="0"
       gradientUnits="userSpaceOnUse"
       gradientTransform="matrix(-3496.58,6056.26,6056.26,3496.58,18768.3,6061.5)"
       spreadMethod="pad"
       id="linearGradient58">
      <stop
         style="stop-opacity:1;stop-color:#c6138a"
         offset="0"
         id="stop44" />
      <stop
         style="stop-opacity:1;stop-color:#c6138a"
         offset="0.012987"
         id="stop46" />
      <stop
         style="stop-opacity:1;stop-color:#ed0660"
         offset="0.43482712"
         id="stop48" />
      <stop
         style="stop-opacity:1;stop-color:#ed0660"
         offset="0.489177"
         id="stop50" />
      <stop
         style="stop-opacity:1;stop-color:#ff2e6c"
         offset="0.83855535"
         id="stop52" />
      <stop
         style="stop-opacity:1;stop-color:#ff2e6c"
         offset="0.991342"
         id="stop54" />
      <stop
         style="stop-opacity:1;stop-color:#ff2e6c"
         offset="1"
         id="stop56" />
    </linearGradient>
    <clipPath
       clipPathUnits="userSpaceOnUse"
       id="clipPath68">
      <path
         d="m 9985.95,9089.65 c 0,1720.55 -1394.85,3115.45 -3115.45,3115.45 -1720.69,0 -3115.54,-1394.9 -3115.54,-3115.45 0,-1720.65 1394.85,-3115.55 3115.54,-3115.55 1720.6,0 3115.45,1394.9 3115.45,3115.55 z m 380.55,0 c 0,-1930.75 -1565.24,-3496.05 -3496,-3496.05 -1930.85,0 -3496.05,1565.3 -3496.05,3496.05 0,1930.75 1565.2,3495.95 3496.05,3495.95 1930.76,0 3496,-1565.2 3496,-3495.95 z M 7056.78,10950.2 c 290.05,-320.2 1304.1,-1494.89 1304.1,-2266.51 0,-793.19 -668.35,-1438.59 -1489.82,-1438.59 -822.18,0 -1491.03,645.4 -1491.03,1438.59 0,761.25 1011.57,1942.81 1301.31,2265.71 47.95,53.4 116.31,83.9 188.1,83.9 v 0 c 71.4,0 139.41,-30.2 187.34,-83.1 z"
         id="path66" />
    </clipPath>
    <linearGradient
       x1="0"
       y1="0"
       x2="1"
       y2="0"
       gradientUnits="userSpaceOnUse"
       gradientTransform="matrix(-3496.58,6056.26,6056.26,3496.58,8618.76,6061.5)"
       spreadMethod="pad"
       id="linearGradient76">
      <stop
         style="stop-opacity:1;stop-color:#432eff"
         offset="0"
         id="stop70" />
      <stop
         style="stop-opacity:1;stop-color:#432eff"
         offset="0.36129988"
         id="stop72" />
      <stop
         style="stop-opacity:1;stop-color:#6ba6ff"
         offset="1"
         id="stop74" />
    </linearGradient>
  </defs>
  <sodipodi:namedview
     id="namedview4"
     pagecolor="#ffffff"
     bordercolor="#666666"
     borderopacity="1.0"
     inkscape:pageshadow="2"
     inkscape:pageopacity="0.0"
     inkscape:pagecheckerboard="0"
     showgrid="false"
     inkscape:zoom="0.36644023"
     inkscape:cx="2269.1286"
     inkscape:cy="1226.6666"
     inkscape:window-width="3440"
     inkscape:window-height="1369"
     inkscape:window-x="0"
     inkscape:window-y="34"
     inkscape:window-maximized="1"
     inkscape:current-layer="g8" />
  <g
     id="g8"
     inkscape:groupmode="layer"
     inkscape:label="ink_ext_XXXXXX"
     transform="matrix(1.3333333,0,0,-1.3333333,0,2453.3333)">
    <g
       id="g10"
       transform="scale(0.1)">
      <path
         d="M 34040,0 H 0 V 18400 H 34040 V 0"
         style="fill:#0e0e1e;fill-opacity:1;fill-rule:nonzero;stroke:none"
         id="path12" />
      <g
         id="g14">
        <g
           id="g16"
           clip-path="url(#clipPath20)">
          <path
             d="m 30285,9089.65 c 0,1720.55 -1394.8,3115.45 -3115.4,3115.45 -1720.7,0 -3115.5,-1394.9 -3115.5,-3115.45 0,-1720.65 1394.8,-3115.55 3115.5,-3115.55 1720.6,0 3115.4,1394.9 3115.4,3115.55 z m 380.5,0 c 0,-1930.75 -1565.1,-3496.05 -3495.9,-3496.05 -1930.9,0 -3496.1,1565.3 -3496.1,3496.05 0,1930.75 1565.2,3495.95 3496.1,3495.95 1930.8,0 3495.9,-1565.2 3495.9,-3495.95 z M 29077,8759.18 c 40.8,-91.26 0.2,-198.4 -90.9,-239.19 l -335,-150.59 260.4,-150.4 c 86.7,-50 116.3,-160.7 66.3,-247.3 -50,-86.6 -160.6,-116.1 -247.2,-66.1 l -260.2,150.2 36.9,-365.2 c 10.2,-99.2 -62.3,-187.9 -161.7,-198.3 -99.5,-10 -188.3,62.5 -198.5,161.8 l -63.2,624.9 -733.5,423.43 V 7855.6 l 509.6,-367.2 c 81.2,-58.4 99.3,-171.5 41,-252.6 -35.4,-49.1 -90.6,-75.2 -146.9,-75.2 -36.8,0 -73.8,11.1 -105.6,34.2 l -298.1,214.8 v -300.8 c 0,-100 -80.8,-181 -180.7,-181 -100.1,0 -181.1,81 -181.1,181 v 300.6 l -297.5,-214.6 c -80.9,-58.3 -194.4,-40.2 -252.8,41 -58.6,81.1 -39.9,194.2 41,252.6 l 509.3,367.2 v 846.76 l -733.1,-423.26 -63.5,-625.2 c -10.2,-99.3 -99,-171.7 -198.5,-161.7 -99.4,10.3 -171.9,99 -161.7,198.3 l 37.1,365.4 -260.4,-150.3 c -86.6,-50 -197.3,-20.4 -247.3,66.3 -50,86.5 -20.3,197.1 66.3,247.1 l 260.2,150.2 -334.7,150.63 c -91.1,40.8 -131.6,147.93 -90.9,239.18 41.1,91.26 148.2,131.83 239.3,91.04 l 572.9,-257.68 733.4,423.43 -733.4,423.41 -572.8,-257.72 c -91.2,-41.06 -198.2,-0.23 -239.2,90.84 -24.9,55.19 -19.9,116.04 8.3,164.87 18.3,31.82 46.5,58.32 82.4,74.28 l 335.1,150.72 -260.6,150.43 c -86.5,49.99 -116.3,160.55 -66.3,247.07 50,86.7 160.7,116.3 247.3,66.3 l 260.3,-150.26 -37.1,364.96 c -10.1,99.2 62.4,188.4 161.9,198.3 99.5,10.3 188.1,-62.5 198.3,-161.7 l 63.4,-624.68 733.3,-423.37 v 846.55 l -509.8,367.5 c -80.8,58.5 -99.1,171.6 -40.8,252.8 58.7,80.9 171.7,99.3 252.6,40.8 l 298,-214.8 v 300.7 c 0,100 81,181 181.1,181 99.9,0 180.7,-81 180.7,-181 v -300.4 l 297.9,214.5 c 80.8,58.5 193.9,40.1 252.5,-40.8 58.5,-81.2 40.1,-194.3 -40.8,-252.8 l -509.6,-367.2 v -846.93 l 733.4,423.42 63.2,624.91 c 10.1,99.5 98.9,171.8 198.3,161.8 60.2,-6.1 110.4,-40.8 138.6,-89.6 18.4,-31.9 27.3,-69.5 23.2,-108.5 l -37.1,-365.63 260.6,150.43 c 86.6,50 197.2,20.5 247.2,-66.1 50,-86.63 20.3,-197.33 -66.3,-247.31 l -260.3,-150.3 334.6,-150.33 c 90.9,-40.88 132,-148.29 90.8,-239.42 -40.8,-91.3 -148.1,-131.62 -239.2,-90.83 l -572.6,257.46 -733.3,-423.37 733.1,-423.26 573.1,257.67 c 91.1,40.8 198.2,0.08 239.3,-91.03"
             style="fill:url(#linearGradient32);fill-opacity:1;fill-rule:nonzero;stroke:none"
             id="path34" />
        </g>
      </g>
      <g
         id="g36">
        <g
           id="g38"
           clip-path="url(#clipPath42)">
          <path
             d="m 20135.5,9089.65 c 0,1720.55 -1394.9,3115.45 -3115.5,3115.45 -1720.6,0 -3115.5,-1394.9 -3115.5,-3115.45 0,-1720.65 1394.9,-3115.55 3115.5,-3115.55 1720.6,0 3115.5,1394.9 3115.5,3115.55 z m 380.5,0 c 0,-1930.75 -1565.2,-3496.05 -3496,-3496.05 -1930.8,0 -3496,1565.3 -3496,3496.05 0,1930.75 1565.2,3495.95 3496,3495.95 1930.8,0 3496,-1565.2 3496,-3495.95 z M 17019.9,7143.2 c -859.3,0 -1558.3,699 -1558.3,1558.43 0,832.68 409.3,1953.57 1562.1,2371.07 14.1,5.2 30.5,1.4 41.6,-9.7 10.3,-11.1 14.1,-27.5 8.2,-41.6 -2.9,-6.7 -198.4,-511.8 -26,-1033.97 38.6,64.57 105.5,158.17 205.7,283.77 286.7,356.5 647.1,410 661.9,412.2 14.8,2.3 29,-3.7 37.8,-16.3 8.2,-11.9 9.8,-27.5 3.1,-40.9 -194,-371.4 1.4,-649.18 227.2,-970.8 184.9,-263.7 395.2,-563.05 395.2,-953.77 0,-859.43 -699,-1558.43 -1558.5,-1558.43"
             style="fill:url(#linearGradient58);fill-opacity:1;fill-rule:nonzero;stroke:none"
             id="path60" />
        </g>
      </g>
      <g
         id="g62">
        <g
           id="g64"
           clip-path="url(#clipPath68)">
          <path
             d="m 9985.95,9089.65 c 0,1720.55 -1394.85,3115.45 -3115.45,3115.45 -1720.69,0 -3115.54,-1394.9 -3115.54,-3115.45 0,-1720.65 1394.85,-3115.55 3115.54,-3115.55 1720.6,0 3115.45,1394.9 3115.45,3115.55 z m 380.55,0 c 0,-1930.75 -1565.24,-3496.05 -3496,-3496.05 -1930.85,0 -3496.05,1565.3 -3496.05,3496.05 0,1930.75 1565.2,3495.95 3496.05,3495.95 1930.76,0 3496,-1565.2 3496,-3495.95 z M 7056.78,10950.2 c 290.05,-320.2 1304.1,-1494.89 1304.1,-2266.51 0,-793.19 -668.35,-1438.59 -1489.82,-1438.59 -822.18,0 -1491.03,645.4 -1491.03,1438.59 0,761.25 1011.57,1942.81 1301.31,2265.71 47.95,53.4 116.31,83.9 188.1,83.9 v 0 c 71.4,0 139.41,-30.2 187.34,-83.1"
             style="fill:url(#linearGradient76);fill-opacity:1;fill-rule:nonzero;stroke:none"
             id="path78" />
        </g>
      </g>
    </g>
  </g>
</svg>
