<?xml version="1.0" encoding="UTF-8" standalone="no"?>
<!-- Created with Inkscape (http://www.inkscape.org/) -->

<svg
   xmlns:dc="http://purl.org/dc/elements/1.1/"
   xmlns:cc="http://creativecommons.org/ns#"
   xmlns:rdf="http://www.w3.org/1999/02/22-rdf-syntax-ns#"
   xmlns:svg="http://www.w3.org/2000/svg"
   xmlns="http://www.w3.org/2000/svg"
   xmlns:xlink="http://www.w3.org/1999/xlink"
   xmlns:sodipodi="http://sodipodi.sourceforge.net/DTD/sodipodi-0.dtd"
   xmlns:inkscape="http://www.inkscape.org/namespaces/inkscape"
   width="100%"
   height="100%"
   viewBox="0 0 462.03027 241.02349"
   version="1.1"
   id="svg8"
   inkscape:version="0.92.0 r15299"
   sodipodi:docname="loy'l.svg">
  <defs
     id="defs2" />
  <sodipodi:namedview
     id="base"
     pagecolor="#ffffff"
     bordercolor="#666666"
     borderopacity="1.0"
     inkscape:pageopacity="0.0"
     inkscape:pageshadow="2"
     inkscape:zoom="1.4"
     inkscape:cx="217.12862"
     inkscape:cy="105.30835"
     inkscape:document-units="mm"
     inkscape:current-layer="layer4"
     showgrid="false"
     inkscape:window-width="1280"
     inkscape:window-height="961"
     inkscape:window-x="-8"
     inkscape:window-y="-8"
     inkscape:window-maximized="1"
     inkscape:pagecheckerboard="false"
     fit-margin-top="0"
     fit-margin-left="0"
     fit-margin-right="0"
     fit-margin-bottom="0" />
  <metadata
     id="metadata5">
    <rdf:RDF>
      <cc:Work
         rdf:about="">
        <dc:format>image/svg+xml</dc:format>
        <dc:type
           rdf:resource="http://purl.org/dc/dcmitype/StillImage" />
        <dc:title />
        <cc:license
           rdf:resource="http://creativecommons.org/licenses/by-nc-sa/4.0/" />
      </cc:Work>
      <cc:License
         rdf:about="http://creativecommons.org/licenses/by-nc-sa/4.0/">
        <cc:permits
           rdf:resource="http://creativecommons.org/ns#Reproduction" />
        <cc:permits
           rdf:resource="http://creativecommons.org/ns#Distribution" />
        <cc:requires
           rdf:resource="http://creativecommons.org/ns#Notice" />
        <cc:requires
           rdf:resource="http://creativecommons.org/ns#Attribution" />
        <cc:prohibits
           rdf:resource="http://creativecommons.org/ns#CommercialUse" />
        <cc:permits
           rdf:resource="http://creativecommons.org/ns#DerivativeWorks" />
        <cc:requires
           rdf:resource="http://creativecommons.org/ns#ShareAlike" />
      </cc:License>
    </rdf:RDF>
  </metadata>
  <g
     inkscape:label="Original"
     inkscape:groupmode="layer"
     id="layer1"
     style="display:none;opacity:1"
     sodipodi:insensitive="true"
     transform="translate(77.649447,-45.43377)">
    <image
       sodipodi:absref="C:\Users\Sonja\Pictures\loy'l tag.jpg"
       xlink:href="loy'l tag.jpg"
       style="opacity:0.5979996"
       y="7.0166726"
       x="-137.8857"
       id="image3688"
       preserveAspectRatio="none"
       height="304.79999"
       width="541.86664" />
  </g>
  <g
     inkscape:groupmode="layer"
     id="layer2"
     inkscape:label="Background"
     style="display:inline;opacity:1"
     transform="translate(77.649447,-45.43377)">
    <path
       id="path4528"
       style="fill:#000e00;fill-opacity:1;stroke:#000000;stroke-width:0.26458332px;stroke-linecap:butt;stroke-linejoin:miter;stroke-opacity:1"
       d="m 32.789435,153.27455 12.756696,-10.58333 c -1.320065,2.7341 -0.228516,4.81851 -5.10268,8.78794 -2.581869,2.10263 -5.305189,1.5571 -7.654016,1.79539 z M 211.71317,45.569827 c -0.19048,-0.0054 -0.38028,-0.0051 -0.56947,0.0016 -7.12545,0.252259 -4.27183,-0.126013 -5.05034,11.621513 -0.24189,3.650062 -1.27135,8.427672 0.72647,11.859014 1.97705,3.395675 3.74419,6.856849 5.32033,10.362922 0.57249,1.273495 -8.40314,-3.270039 -9.44889,-4.180816 -5.86966,-5.112073 -4.43826,14.409091 -8.32201,26.01258 -1.59493,4.7652 -2.53596,11.3925 -3.05481,14.80425 -1.2996,8.54546 6.88267,5.70057 7.91336,6.31887 1.67366,1.00401 15.67358,-37.17635 16.43512,-34.138076 4.42313,17.646776 9.79627,59.691516 7.48107,71.582896 -0.38887,1.99732 -20.73069,8.76221 -20.50521,16.72559 0.13067,4.61478 0.96507,17.25816 3.40186,14.74122 1.12785,-1.16495 1.88603,0.4828 3.68557,-0.0946 5.05194,-1.62089 14.36294,-6.89828 14.36294,-6.89828 0,0 -1.63719,12.26004 -0.0946,17.85937 1.7265,6.2668 12.56771,18.04851 12.56771,18.04851 0,0 -15.43759,1.48297 -34.90639,3.53105 -63.15033,6.64329 -60.12884,9.29585 -61.57196,5.35162 -2.92258,-7.98784 -12.66367,-19.86285 -13.4183,-35.43557 -0.21309,-4.39724 0.28378,-1.22812 32.78973,-0.94464 36.93895,0.32213 32.98071,-18.57312 32.50603,-30.23847 -1.88563,-46.34003 -7.75461,-50.07215 -14.36347,-51.78236 -13.38559,-3.4639 -21.83048,-13.840865 -24.75714,-14.2689 -2.92564,-0.427884 -6.58835,-0.776747 -6.42597,2.456699 0.13275,2.643341 -0.3607,4.788131 -0.80925,13.335621 -0.0602,1.14791 1.26837,1.50344 1.65985,2.72851 10.96131,34.30134 12.56355,40.18881 -12.75685,41.76644 -20.68705,1.28895 -17.33683,-14.24813 -15.91316,-24.22392 2.34047,-5.70334 1.21025,-15.26452 -0.33959,-17.07019 -8.08443,-9.41895 -14.08785,-13.86267 -24.137544,-22.382099 -1.015931,-0.861235 1.211323,-2.773447 0.514181,-3.697967 -0.978996,-1.2983 -0.67305,-3.976119 -2.551266,-4.157885 C 85.746506,84.551287 77.911723,81.72515 74.032659,84.881143 69.868733,88.268899 57.274789,97.799315 54.850367,99.338656 50.819549,100.12204 33.740798,88.017447 16.485785,93.385531 c -45.171956,14.053129 -32.033703,56.979979 -32.033703,56.979979 0,0 -3.836088,-1.57665 -5.669421,-1.51205 -1.473783,0.052 -2.057002,1.57854 -2.551266,0.18914 -9.358806,-26.3081 -8.801604,-77.900172 -8.051187,-80.53462 1.504799,-5.282808 -3.067799,-9.227201 -6.190837,-8.973611 -12.089829,0.981689 -35.621703,-9.30993 -36.383309,-9.403561 -1.534962,-0.188704 -4.073657,19.675572 -2.756421,21.309811 16.126348,20.007265 28.833984,92.587671 27.868067,93.193271 0,0 -12.192296,7.32034 -17.522444,10.90011 -1.060878,0.71249 -0.191331,5.60433 -0.491961,10.74818 -0.576564,9.8652 -2.153679,11.58903 3.012221,8.65839 11.149546,-6.32519 15.447584,-10.53014 16.109611,-10.08879 1.17635,0.78426 1.743495,10.30797 1.181322,13.51339 -0.450369,2.56792 17.115618,8.09368 26.033036,11.85095 0.785256,0.33086 2.723325,-0.87206 4.739245,-2.05672 1.20958,-0.71081 1.256838,-0.24501 2.174544,-1.11569 1.183693,-1.12303 0.924903,-3.8414 1.119829,-6.51072 0.207139,-2.83657 -1.126355,-6.98527 0.7953,-6.8771 28.757367,1.61893 102.480895,3.33386 102.06302,3.55948 -3.42519,1.8493 23.836189,89.2952 30.539739,89.10928 3.84563,-0.10665 5.73874,-0.55941 9.62008,-3.20498 50.09335,-34.14432 176.87306,-41.63226 203.69197,-20.45094 0.22386,0.1768 4.62478,-3.25936 5.40223,-9.08833 0.50885,-3.81497 0.57981,-15.10649 -3.499,-15.99696 -26.16174,-5.71152 -51.36563,-13.98007 -75.02797,-33.07291 -1.66172,-1.34082 -5.83684,-13.56315 -2.64584,-17.76481 0.99627,-1.31181 1.67824,-0.9192 7.66982,1.65468 23.4493,10.07342 79.14952,11.96612 117.80469,7.53236 1.27593,-0.14635 0.57669,-4.32574 0.5142,-7.84138 -0.0805,-4.52917 -2.63875,-10.66978 -4.6204,-12.73876 -6.31743,-6.59584 -21.14566,-30.2715 -22.20486,-45.28458 -0.20487,-2.9038 -20.45123,11.4784 -21.7909,13.80743 -1.54379,2.68388 -3.71726,8.35651 -3.26234,13.5015 0.22802,2.57888 5.58279,5.90369 3.10367,7.64036 -1.81258,1.26976 -5.35107,0.54501 -9.40303,0.78755 -20.58839,1.23238 -62.05205,-13.41211 -73.67354,-20.50211 -1.62237,-0.98977 -2.45308,0.99942 -2.45308,0.99942 0,0 -3.63973,-13.18326 -2.52698,-31.67713 0.52862,-8.78551 4.49562,-20.282317 6.68487,-26.72033 1.98337,-5.832581 1.02189,-11.804574 0,-17.387052 -1.02545,-5.601959 -10.61478,-8.06455 -22.88749,-15.040943 -6.83114,-3.883136 -13.34928,-9.739487 -19.25413,-9.906889 z M 86.719475,112.62221 c 0.339619,8.44399 -2.170485,20.61993 -2.170485,20.61993 -5.764985,3.03471 -7.998503,7.15561 -11.506274,5.15643 -3.406789,-1.94164 0.403349,-8.70107 -1.036556,-14.42696 -0.447439,-1.77928 -1.870332,-6.09153 4.375563,-7.96964 11.278907,-3.39152 9.990822,-12.00551 10.337752,-3.37976 z"
       inkscape:connector-curvature="0" />
  </g>
  <g
     inkscape:groupmode="layer"
     id="layer3"
     inkscape:label="Inside"
     style="display:inline;opacity:1"
     transform="translate(77.649447,-45.43377)">
    <path
       id="path4497"
       style="display:inline;opacity:1;fill:#0008ff;fill-opacity:1;stroke:#000000;stroke-width:0.99999994px;stroke-linecap:butt;stroke-linejoin:miter;stroke-opacity:1"
       d="m 293.47852,325.82031 c -6.1675,0.0566 -11.21457,1.28441 -15.00782,4.43164 -15.61391,12.95477 -60.86808,55.00821 -70.03125,60.82617 -1.65754,0.32217 -16.28216,10.66962 -19.34375,9.69922 -6.71963,-2.1298 6.51068,-13.74433 -1.95312,-16.76757 -31.5151,-11.25702 -90.130443,-38.503 -134.757814,-16.56446 -132.039106,64.90963 -102.565271,166.39557 -85.867188,204.14258 1.829501,4.13571 60.6608,-42.99585 65.867188,-35.70703 5.026351,7.0368 -57.748047,52.33984 -57.748047,52.33984 L -67.34375,622.42773 -68.808594,651.3418 6.6210938,602.92578 C 144.47421,674.45871 309.21466,583.32446 243.89258,428.02148 c 17.50374,-23.52272 104.50633,-93.35378 89.15625,-96.19531 -15.89792,-2.94294 -29.29115,-6.10017 -39.57031,-6.00586 z m -131.76563,91.13477 c 2.47037,0.0878 5.15481,1.17084 6.85938,2.70703 7.08153,6.38203 -1.79378,14.71614 -11.41407,21.91992 l -121.443356,90.9375 c 4.730235,-7.36668 -4.824234,-24.07168 5.427734,-44.71875 17.037725,-34.31327 49.149901,-73.73499 98.142582,-63.85156 15.98722,3.22515 12.89806,0.83062 17.61328,-5.13672 1.10056,-1.39281 2.89306,-1.92575 4.81445,-1.85742 z M 210,453.94922 c 8.25788,11.60295 -23.86696,28.16241 -26.78487,34.99888 -9.54276,22.358 32.41749,46.979 -23.92997,96.42885 -32.61561,28.62307 -85.350733,-0.50233 -102.857426,-13.57226 0,0 89.836726,-76.78979 134.999996,-113.21345 5.09932,-4.11255 14.77368,-9.97933 18.57227,-4.64202 z M -83.747839,669.53398 c 10.65478,0.93022 -9.945229,-23.8405 -2.478553,-47.68702 5.821731,-18.59304 47.093537,-30.2759 34.113577,-36.11592 -14.983884,-1.00883 -34.238566,-7.76262 -37.900978,-7.63358 -2.217808,0.0782 5.408346,9.25863 -11.617897,11.95956 -1.39103,0.22072 -7.19973,-4.4767 -6.11852,-7.47924 0.76262,-2.11782 8.506187,-2.4407 8.093837,-3.76546 -30.321227,-97.41189 -37.811587,-303.51726 -34.975367,-313.47423 5.68743,-19.96652 -7.04914,-34.87446 -18.85276,-33.91601 -45.69383,3.71028 -124.63321,-35.18718 -127.51172,-35.54107 -5.80143,-0.7132 23.7443,75.84578 27.96783,82.56133 48.82814,77.63832 80.59304,333.27454 76.94233,335.56343 2.51577,-7.5473 74.4014,-27.70912 34.64881,2.87374 -13.54822,10.42305 -33.62205,16.35093 -85.80756,44.61465 -13.87932,7.51706 -26.99744,28.58903 0.092,12.35116 42.14002,-23.90623 54.56498,-25.93232 57.06713,-24.26426 0.51124,0.34091 20.14389,-12.50067 22.70637,-7.05029 1.66931,3.55064 -21.52321,22.33213 -21.2903,24.1977 1.36481,10.93236 1.86448,21.00949 9.44824,26.39029 18.97881,13.4657 52.90323,37.73318 86.606854,51.93389 2.967901,1.25049 1.007176,-2.22456 8.626394,-6.70201 3.139355,-1.84487 -2.422843,-34.98256 -11.170711,-46.11357 -5.734866,-7.29717 -27.170867,-10.25548 -25.064897,-19.29441 1.654046,-7.09924 -0.81773,-4.91856 16.475901,-3.40868 z M 955.94212,728.51774 c -4.93731,-15.33078 1.35988,-76.36826 -24.16384,-82.08336 -15.48575,-3.46746 -15.47607,-12.77477 -12.3625,-16.87446 3.76551,-4.95802 65.26753,32.99112 88.48762,41.25385 88.2316,31.39683 268.6582,53.68701 408.4603,28.82592 27.2262,-4.84165 17.6177,-17.44667 13.7663,-22.14251 -19.4971,-23.77164 -75.0562,-111.41877 -83.9239,-169.13401 -1.6709,-10.87465 -48.7168,28.90991 -57.7165,33.61413 -16.929,8.84894 -13.5389,13.3248 -16.5001,20.17645 -5.4,12.49477 6.7445,25.02153 11.3434,37.6933 6.5693,18.10095 7.7752,34.63982 5.9856,35.96512 -6.7218,4.97797 -46.2959,6.70272 -61.6104,7.61941 -77.8144,4.65781 -228.81316,-54.26287 -272.73698,-81.05976 -2.18415,-1.33251 -33.71648,22.17275 -36.74233,13.44908 -2.96939,-8.5609 13.94762,-9.49342 12.47085,-21.10028 -3.18701,-25.04893 -10.18496,-23.04083 -5.97929,-92.93892 1.9979,-33.20508 -0.15156,-88.80045 8.12277,-113.1331 7.49617,-22.0444 10.11134,-58.68124 16.07142,-79.28627 6.12431,-21.17277 -29.99992,-25.88783 -75.78962,-53.27623 -16.53244,-9.88863 -20.99826,-13.15243 -47.05723,-26.01493 -43.6424,-21.54154 -18.48454,20.90559 -11.70875,37.32277 13.72868,33.26358 20.35638,90.74553 24.39148,113.65486 5.12402,29.09175 28.23564,168.07893 21.70746,229.58828 -4.39363,41.39751 6.23565,14.25521 22.96131,9.00329 20.38091,-6.39972 12.59656,9.72133 8.35162,12.22201 -24.52732,14.44902 -131.26016,89.28261 -105.7129,74.48259 11.62042,-3.72836 111.13546,-69.21793 117.42596,-52.80394 5.48602,14.31489 -45.28358,36.37452 -45.28358,36.37452 0,0 -3.65326,30.25111 4.72119,28.65626 5.21046,-0.99227 11.22887,-27.62997 14.72622,-23.37978 19.18454,35.50371 44.8272,60.67439 78.29442,73.32571 z m -581.1674,-41.42801 c -13.41297,-2.56089 -23.83208,-1.27537 -17.32431,33.97571 14.72448,79.75911 75.69612,303.57126 93.76574,303.07006 14.53467,-0.4031 27.79385,1.5639 40.64507,-10.6847 246.30059,-129.54781 619.97138,-129.88994 739.43228,-74.63339 16.9461,7.8384 45.7815,-27.42748 31.812,-31.92855 -97.6089,-19.04677 -203.5159,-64.64977 -293.33256,-125.97428 -36.38971,-24.84596 -91.70923,-97.37522 -91.70923,-97.37522 0.81672,3.26018 -18.419,20.73109 -17.75112,23.71317 2.08222,9.29711 -0.39953,10.20374 1.45871,16.94876 -0.065,13.82767 45.67143,69.26374 87.64732,108.91299 38.93337,36.77537 76.15208,48.10753 57.33648,49.87918 -9.30424,0.87606 -67.84092,-37.56968 -67.84092,-37.56968 0,0 -103.08101,4.06776 -176.57258,12.63141 -237.51129,27.67615 -231.1151,49.33373 -243.9979,18.0837 -11.04594,-30.19022 -62.80142,-131.75277 -65.65356,-190.61029 -0.80538,-16.61949 26.36003,-0.96223 149.14324,-5.35604 22.43411,-0.80278 104.44842,-14.63917 102.65443,-58.72868 -7.12679,-175.14346 -8.09556,-190.25923 -33.07397,-196.72306 -50.59121,-13.09186 -82.5089,-52.31193 -93.57029,-53.9297 -11.05754,-1.6172 -15.80943,-3.9459 -15.19571,8.27501 0.50174,9.99058 3.03682,16.62822 13.10381,47.37188 49.90738,152.41255 23.25166,160.10382 -62.14442,177.26132 -76.22412,14.6877 -92.24002,-47.01467 -87.4184,-87.51439 -0.24567,-25.59655 18.7163,-63.7536 12.85863,-70.57818 -32.57563,-30.54841 -93.1263,-89.18935 -95.24718,-77.9674 -3.96471,20.97802 -15.19662,112.35084 -7.90365,136.34821 13.07044,43.00803 44.67576,134.45666 76.12733,166.10522 15.77632,15.87514 19.47298,27.82672 -37.24924,16.99694 z M 320.67079,518.89165 c -17.61613,8.37849 -72.63854,21.3635 -58.32871,38.36969 36.76954,43.69792 47.53871,65.4034 0.51449,65.93204 -16.09595,0.18104 -43.01459,-10.05075 -68.76446,-2.06842 -45.95772,14.24666 -124.428662,41.29625 -189.9147792,4.47288 0.7828876,-10.72089 -78.8999518,47.88465 -71.6370008,48.29352 106.465502,17.23763 421.27873,3.21723 422.68802,3.35157 39.60106,3.77495 53.2191,-10.60722 29.1373,-19.0979 -18.76216,-6.61509 -37.7391,-82.34326 -48.48548,-116.46445 -9.14229,-29.02801 -0.31668,-29.87211 -15.20938,-22.78893 z M 772.68352,301.47367 c -16.14009,-16.29896 -0.90995,10.78382 -29.31046,95.81534 -3.22601,9.65877 -12.36756,9.85644 13.00581,17.33537 9.2434,2.72451 49.60154,-95.94279 44.61706,-98.31154 -19.92756,-9.47012 -21.34228,-10.23707 -28.31241,-14.83917 z"
       inkscape:connector-curvature="0"
       sodipodi:nodetypes="cccccscccccccscccccssscssscsscscccccsscscssccccccccsccsccsccscscscscscssscssccccccccssccscscscsccsccccsscscccsssssscsccssssccccc"
       transform="scale(0.26458333)" />
  </g>
  <g
     inkscape:groupmode="layer"
     id="layer4"
     inkscape:label="Drip"
     style="display:inline;opacity:1"
     transform="translate(77.649447,-45.43377)">
    <path
       id="path4583"
       style="fill:#ff0000;fill-opacity:1;stroke:#000000;stroke-width:1px;stroke-linecap:butt;stroke-linejoin:miter;stroke-opacity:1"
       d="m 113.24341,221.63582 c 0.0742,-0.44674 3.20404,-1.17287 3.92857,0 0.94109,1.52343 -0.33338,5.73934 -1.96429,5 -1.69035,-0.76628 -2.3712,-2.55099 -1.96428,-5 z m 1.60714,-16.78571 c 1.9706,-0.512 4.68091,3.01068 3.75,4.82143 -0.68093,1.3245 -3.51735,0.9709 -4.46428,-0.17857 -0.9956,-1.20855 -0.80123,-4.2491 0.71428,-4.64286 z M 56.006358,172.43628 c 0.532303,-0.24881 -2.221316,0.87704 -2.020305,2.39912 0.177564,1.34453 1.691697,2.93161 3.03046,2.71478 1.172404,-0.18989 1.76777,-3.09359 1.76777,-3.09359 0.67696,-1.94308 -2.909311,-1.9589 -2.777925,-2.02031 z M 77.649515,86.206621 c -1.63182,0.015 -2.96719,0.33984 -3.97082,1.17254 -4.13118,3.42762 -16.10468,14.554259 -18.52911,16.093599 -0.43855,0.0852 -4.30798,2.823 -5.11803,2.56625 -1.7779,-0.56351 1.72262,-3.63652 -0.51676,-4.43642 -8.33837,-2.978429 -23.84701,-10.187259 -35.65467,-4.382689 -34.935351,17.174009 -27.137064,44.025509 -22.7190268,54.012719 0.484052,1.09424 16.0498362,-11.37597 17.4273602,-9.44747 1.329889,1.86182 -15.2791712,13.84824 -15.2791712,13.84824 l -10.8238542,8.67263 c 5.06995,-0.90927 7.51406,-2.16129 15.4874282,-2.1772 l 3.79896,-2.60471 c 0.9477768,0.49181 2.9436804,-2.2285 4.0256528,-2.36037 1.9172166,-0.23368 1.3817835,2.2717 4.697231,2.38824 11.474285,0.40333 22.666811,-0.23683 32.119567,-2.49744 1.375546,-0.32896 0.162911,5.82786 1.460285,5.42849 4.560344,-1.40379 4.478367,-0.76212 8.063955,-3.75285 0.860728,-0.71793 0.654654,-5.25654 2.818005,-6.6832 2.195798,-1.44806 6.760124,0.21446 7.470548,-0.67844 7.261955,-9.12731 8.551253,-22.75904 2.12283,-38.12119 4.6312,-6.22372 27.65064,-24.699859 23.58926,-25.451679 -4.20632,-0.77865 -7.74995,-1.614 -10.46964,-1.58905 z m -34.86299,24.112749 c 0.65361,0.0232 1.36387,0.30978 1.81487,0.71623 1.87366,1.68858 -0.4746,3.89365 -3.01997,5.79965 L 9.4495424,140.8958 c 1.2515396,-1.9491 -1.276414,-6.36897 1.4360866,-11.83184 4.507899,-9.07872 13.004244,-19.50905 25.966886,-16.89406 4.22995,0.85332 3.41261,0.21977 4.66018,-1.35909 0.29119,-0.36851 0.76546,-0.50952 1.27383,-0.49144 z m 12.77596,9.78803 c 2.1849,3.06995 -6.3148,7.45131 -7.08683,9.26012 -2.52486,5.91556 8.57713,12.42986 -6.33147,25.51346 -8.62955,7.57319 -22.582379,-0.13291 -27.214358,-3.59099 0,0 23.769298,-20.31729 35.718748,-29.95439 1.34919,-1.08811 3.90887,-2.64036 4.91391,-1.2282 z m -76.203203,41.77711 c 3.272083,-3.98331 10.286803,-5.36467 6.852522,-6.90984 -3.964485,-0.26692 -9.058955,-2.05386 -10.027965,-2.01972 -0.586798,0.0207 1.43096,2.44968 -3.073905,3.1643 -0.368041,0.0584 -1.904929,-1.18446 -1.618859,-1.97888 0.201777,-0.56034 2.250599,-0.64577 2.141498,-0.99628 -8.022492,-25.77356 -10.004319,-80.305609 -9.2539,-82.940049 1.504797,-5.28281 -1.865085,-9.2272 -4.988126,-8.97361 -12.089826,0.98167 -32.975871,-9.30995 -33.737477,-9.40358 -1.534961,-0.1887 6.282346,20.06753 7.399822,21.84435 12.919112,20.54181 20.372819,83.431999 20.074174,84.532259 -0.739515,2.72448 0.228023,3.64067 3.47807,1.73402 1.520075,-0.89176 0.965887,0.1941 2.874796,0.50242 1.78284,0.28796 3.482171,-2.96333 5.463498,-2.223 1.965861,0.73456 0.07765,2.82541 1.875137,4.00663 1.58522,1.04172 3.054868,-0.16691 4.832189,-0.0508 3.500722,0.22873 5.500274,2.4 7.708526,-0.28823 z m 317.814808,4.29706 c -18.10774,-4.86561 -37.08306,-12.85961 -44.50467,-17.38736 -0.5779,-0.35255 -8.92082,5.86654 -9.7214,3.5584 -0.78565,-2.26507 3.69031,-2.5118 3.29957,-5.58277 -0.84323,-6.62753 -2.69475,-6.09622 -1.58202,-24.5901 0.52861,-8.78551 -0.0401,-23.495119 2.14915,-29.933129 1.98337,-5.83258 2.67529,-15.52608 4.25223,-20.97783 1.62039,-5.60196 -7.93747,-6.84949 -20.05267,-14.096 -4.37419,-2.61637 -5.5558,-3.47991 -12.45055,-6.88312 -11.54705,-5.69953 -4.89071,5.53128 -3.09795,9.87499 3.63239,8.80099 5.38596,24.00975 6.45358,30.07118 1.35573,7.69719 6.60845,40.713449 5.95266,56.630649 1.33937,0.19506 33.62727,18.48119 37.43323,19.75495 0.55394,6.4622 0.51944,12.15718 6.04114,12.1274 2.84496,-0.0153 3.34071,-6.60849 4.65394,-10.91269 z m 58.58623,21.44523 c 3.64064,-0.32838 4.65851,-6.33206 5.98616,-11.62845 0.50482,-2.01386 2.77644,3.20632 4.20914,2.44474 3.09833,-1.64697 -0.65185,-10.32376 0.70938,-10.50268 0,0 5.04016,0.6872 4.02114,-0.55524 -4.32692,-6.28958 -10.98026,-17.61026 -14.50245,-32.88074 -0.4421,-2.87726 -12.88966,7.64908 -15.27083,8.89374 -4.47913,2.34128 -3.58217,3.52552 -4.36565,5.33834 -1.42875,3.30591 1.78448,6.62028 3.00127,9.97302 1.73813,4.78921 2.05719,9.16512 1.58369,9.51577 -1.77847,1.31709 -12.24912,1.77343 -16.30108,2.01597 0,0 4.39888,5.39134 7.23752,7.3183 4.10995,2.78997 12.55352,-7.59501 17.40443,-5.5685 3.52841,1.47401 3.61,15.87722 6.28728,15.63573 z M 51.227256,165.602 c 0.552297,-1.93588 -2.299162,-0.47628 -4.465924,0.43088 -1.806628,0.75639 -2.906334,0.78235 -3.322756,1.37976 -0.988902,1.4187 -0.165556,8.84868 3.44113,9.28138 1.74672,0.20956 2.910355,-6.05445 4.34755,-11.09202 z m 39.224695,-21.64388 c 4.574188,0.6624 12.599899,11.46711 19.509709,21.42426 1.84775,2.66265 0.71157,29.95612 2.56488,32.09218 7.29175,8.4042 6.86141,-17.93456 6.01014,-21.74462 -0.0913,-1.88403 1.40315,-1.16324 5.69643,0.18469 2.44034,0.76617 -0.98841,-8.20677 3.43807,-7.17953 6.04321,1.40243 15.78383,3.03599 27.01819,-4.05134 1.82202,-1.14944 8.82877,-14.48557 11.57451,-13.69656 1.37951,0.39641 -0.53372,7.85235 0.56556,9.16825 6.15767,7.37111 6.86545,-3.94285 8.93344,-12.57512 1.16318,-4.85538 9.36161,-1.22379 9.24387,-4.11731 -1.88556,-26.38951 -0.75299,-29.37874 -7.36186,-31.08897 -13.38559,-3.46388 -21.83048,-13.840869 -24.75714,-14.268899 -2.92564,-0.42788 -4.18291,-1.04402 -4.02053,2.189429 0.13275,2.64334 0.80349,4.39955 3.46705,12.53381 13.20466,40.32582 6.152,42.3608 -16.44238,46.90039 -22.6024,2.84264 -24.40551,-12.43944 -23.12944,-23.15484 -0.065,-6.77243 4.95201,-16.86814 3.40217,-18.67381 -8.61896,-8.0826 -24.639665,-23.598019 -25.200815,-20.628879 -2.264438,6.765889 -2.836071,33.291549 -2.09117,36.075459 -16.838175,10.3409 -22.074529,10.28244 -20.158513,13.64998 1.421821,2.49895 10.287543,-5.81957 10.262201,-0.7978 -0.02539,5.03129 -1.92,11.69719 0.79933,15.70711 0.928261,1.36881 4.091866,4.0168 6.140497,0.52899 2.279145,-3.88025 1.185588,-18.96202 4.535801,-18.47687 z M 204.43916,79.764911 c -4.2704,-4.31244 -0.24077,2.85322 -7.75507,25.351139 -0.85354,2.55555 -3.27223,2.60785 3.44112,4.58665 2.44565,0.72086 13.12376,-25.384859 11.80494,-26.011599 -5.27251,-2.50563 -5.64681,-2.70855 -7.49099,-3.92619 z"
       inkscape:connector-curvature="0"
       sodipodi:nodetypes="ccccscsscsccccccccscccccccsscssccsccsccssccsssccscccccccccsccccccccccccsssccsscccccccccccsccccsccscccsscsccscccsccscscccccssscsccccc" />
  </g>
</svg>
