<?xml version="1.0" encoding="UTF-8" standalone="no"?>
<!-- Created with Inkscape (http://www.inkscape.org/) -->

<svg
   xmlns:dc="http://purl.org/dc/elements/1.1/"
   xmlns:cc="http://creativecommons.org/ns#"
   xmlns:rdf="http://www.w3.org/1999/02/22-rdf-syntax-ns#"
   xmlns:svg="http://www.w3.org/2000/svg"
   xmlns="http://www.w3.org/2000/svg"
   xmlns:xlink="http://www.w3.org/1999/xlink"
   xmlns:sodipodi="http://sodipodi.sourceforge.net/DTD/sodipodi-0.dtd"
   xmlns:inkscape="http://www.inkscape.org/namespaces/inkscape"
   width="100%"
   height="100%"
   viewBox="0 0 462.03027 241.02349"
   version="1.1"
   id="svg8"
   inkscape:version="0.92.0 r15299"
   sodipodi:docname="loy'l cutout.svg">
  <defs
     id="defs2" />
  <sodipodi:namedview
     id="base"
     pagecolor="#ffffff"
     bordercolor="#666666"
     borderopacity="1.0"
     inkscape:pageopacity="0.0"
     inkscape:pageshadow="2"
     inkscape:zoom="1.979899"
     inkscape:cx="333.67638"
     inkscape:cy="140.26286"
     inkscape:document-units="mm"
     inkscape:current-layer="layer2"
     showgrid="false"
     inkscape:window-width="1280"
     inkscape:window-height="961"
     inkscape:window-x="-8"
     inkscape:window-y="-8"
     inkscape:window-maximized="1"
     inkscape:pagecheckerboard="false"
     fit-margin-top="0"
     fit-margin-left="0"
     fit-margin-right="0"
     fit-margin-bottom="0" />
  <metadata
     id="metadata5">
    <rdf:RDF>
      <cc:Work
         rdf:about="">
        <dc:format>image/svg+xml</dc:format>
        <dc:type
           rdf:resource="http://purl.org/dc/dcmitype/StillImage" />
        <dc:title />
        <cc:license
           rdf:resource="http://creativecommons.org/licenses/by-nc-sa/4.0/" />
      </cc:Work>
      <cc:License
         rdf:about="http://creativecommons.org/licenses/by-nc-sa/4.0/">
        <cc:permits
           rdf:resource="http://creativecommons.org/ns#Reproduction" />
        <cc:permits
           rdf:resource="http://creativecommons.org/ns#Distribution" />
        <cc:requires
           rdf:resource="http://creativecommons.org/ns#Notice" />
        <cc:requires
           rdf:resource="http://creativecommons.org/ns#Attribution" />
        <cc:prohibits
           rdf:resource="http://creativecommons.org/ns#CommercialUse" />
        <cc:permits
           rdf:resource="http://creativecommons.org/ns#DerivativeWorks" />
        <cc:requires
           rdf:resource="http://creativecommons.org/ns#ShareAlike" />
      </cc:License>
    </rdf:RDF>
  </metadata>
  <g
     inkscape:label="Original"
     inkscape:groupmode="layer"
     id="layer1"
     style="display:none;opacity:1"
     sodipodi:insensitive="true"
     transform="translate(77.649447,-45.43377)">
    <image
       sodipodi:absref="C:\Users\Sonja\Pictures\loy'l tag.jpg"
       xlink:href="loy'l tag.jpg"
       width="541.86664"
       height="304.79999"
       preserveAspectRatio="none"
       id="image3688"
       x="-137.8857"
       y="7.0166726"
       style="opacity:0.5979996" />
  </g>
  <g
     inkscape:groupmode="layer"
     id="layer2"
     inkscape:label="Background"
     style="display:inline;opacity:1"
     transform="translate(77.649447,-45.43377)">
    <path
       style="fill:#000e00;fill-opacity:1;stroke:#000000;stroke-width:0.26458332px;stroke-linecap:butt;stroke-linejoin:miter;stroke-opacity:1"
       d="m 288.79297,0.13671875 c -7.12545,0.252259 -4.27227,-0.124479 -5.05078,11.62304725 -0.24189,3.650062 -1.27126,8.428033 0.72656,11.859375 1.97705,3.395675 3.74417,6.855255 5.32031,10.361328 0.57249,1.273495 -8.40347,-3.268911 -9.44922,-4.179688 -5.86966,-5.112073 -4.43656,14.40823 -8.32031,26.011719 -1.59493,4.7652 -2.53584,11.392938 -3.05469,14.804688 -1.2996,8.545459 6.88142,5.700059 7.91211,6.318359 1.67366,1.00401 15.67401,-37.174993 16.43555,-34.136719 4.42313,17.646776 9.79567,59.690652 7.48047,71.582032 -0.38887,1.99732 -20.72939,8.76123 -20.50391,16.72461 0.13067,4.61478 0.9636,17.25913 3.40039,14.74219 1.12785,-1.16495 1.88601,0.48365 3.68555,-0.0937 5.05194,-1.62089 14.36328,-6.89844 14.36328,-6.89844 0,0 -1.63634,12.26004 -0.0937,17.85937 1.7265,6.2668 12.56641,18.04688 12.56641,18.04688 0,0 -15.43745,1.48317 -34.90625,3.53125 -63.15033,6.64329 -60.12915,9.29579 -61.57227,5.35156 -2.92258,-7.98784 -12.66334,-19.86283 -13.41797,-35.43555 -0.21309,-4.39724 0.28507,-1.22683 32.79102,-0.94336 36.93895,0.32213 32.98054,-18.57293 32.50586,-30.23828 -1.88563,-46.340026 -7.75442,-50.072989 -14.36328,-51.783199 -13.38559,-3.4639 -21.83116,-13.841497 -24.75782,-14.269532 -2.92564,-0.427884 -6.58816,-0.776414 -6.42578,2.457032 0.13275,2.643341 -0.36004,4.788447 -0.80859,13.335937 -0.0602,1.14791 1.26672,1.503446 1.6582,2.728516 10.96131,34.301336 12.56454,40.187996 -12.75586,41.765626 -20.68705,1.28895 -17.33773,-14.246868 -15.91406,-24.222658 2.34047,-5.703339 1.21,-15.264642 -0.33984,-17.070312 -8.08443,-9.41895 -14.08703,-13.863384 -24.13672,-22.382812 -1.01593,-0.861235 1.21081,-2.772746 0.51367,-3.697266 -0.979,-1.2983 -0.67257,-3.976437 -2.55078,-4.158203 C 163.3958,39.117427 155.5607,36.291273 151.68164,39.447266 147.51771,42.835022 134.92442,52.364956 132.5,53.904297 128.46918,54.687681 111.38978,42.583088 94.134766,47.951172 48.96281,62.004301 62.101563,104.93164 62.101562,104.93164 c 0,0 -3.836588,-1.57632 -5.669921,-1.51172 -1.473783,0.052 -2.056518,1.57885 -2.550782,0.18946 C 44.522053,77.301275 45.079661,25.708667 45.830078,23.074219 47.334877,17.791411 42.76171,13.847973 39.638672,14.101562 27.548843,15.083251 4.0174654,4.7908966 3.2558594,4.6972656 1.7208974,4.5085616 -0.81723599,24.373574 0.5,26.007812 c 16.126348,20.007265 28.833104,92.585808 27.867188,93.191408 0,0 -12.19329,7.32062 -17.523438,10.90039 -1.060878,0.71249 -0.189604,5.6042 -0.490234,10.74805 -0.5765644,9.8652 -2.1541816,11.58884 3.011718,8.6582 11.149546,-6.32519 15.447348,-10.52924 16.109375,-10.08789 1.17635,0.78426 1.743814,10.30825 1.181641,13.51367 -0.450369,2.56792 17.115785,8.09429 26.033203,11.85156 0.785256,0.33086 2.722361,-0.87198 4.738281,-2.05664 1.20958,-0.71081 1.258076,-0.24651 2.175782,-1.11718 1.183693,-1.12303 0.924214,-3.84045 1.11914,-6.50977 0.207139,-2.83657 -1.126733,-6.98512 0.794922,-6.87695 28.757367,1.61893 102.480372,3.33297 102.062502,3.55859 -3.42519,1.8493 23.83746,89.29529 30.54101,89.10937 3.84563,-0.10664 5.7378,-0.5595 9.61914,-3.20507 50.09335,-34.14432 176.87445,-41.63249 203.69336,-20.45117 0.22386,0.17679 4.62294,-3.25893 5.40039,-9.0879 0.50885,-3.81497 0.58077,-15.10562 -3.49804,-15.99609 -26.16174,-5.71152 -51.36501,-13.98138 -75.02735,-33.07422 -1.66172,-1.34082 -5.83748,-13.56201 -2.64648,-17.76367 0.99627,-1.31181 1.67834,-0.91958 7.66992,1.6543 23.4493,10.07342 79.14952,11.96501 117.80469,7.53125 1.27593,-0.14635 0.57616,-4.32421 0.51367,-7.83985 -0.0805,-4.52917 -2.63749,-10.67125 -4.61914,-12.74023 -6.31743,-6.59584 -21.14588,-30.270125 -22.20508,-45.283204 -0.20487,-2.9038 -20.45134,11.47761 -21.79101,13.80664 -1.54379,2.683884 -3.7186,8.356964 -3.26368,13.501954 0.22802,2.57888 5.58264,5.90395 3.10352,7.64062 -1.81258,1.26976 -5.35038,0.54457 -9.40234,0.78711 -20.58839,1.23238 -62.05234,-13.41195 -73.67383,-20.501949 -1.62237,-0.98977 -2.45313,0.999999 -2.45313,0.999999 0,0 -3.64009,-13.183864 -2.52734,-31.677734 0.52862,-8.78551 4.4963,-20.28269 6.68555,-26.720703 1.98337,-5.832581 1.02189,-11.804241 0,-17.386719 -1.02545,-5.601959 -10.61401,-8.064622 -22.88672,-15.041015 -6.83114,-3.8831362 -13.34906,-9.73884825 -19.25391,-9.90625025 -0.19048,-0.0054 -0.38112,-0.0067 -0.57031,0 z m 2.69336,3.14257815 c 1.0372,0.035248 2.56149,0.5075095 4.72656,1.5761719 6.89477,3.403203 8.07696,4.2664458 12.45117,6.8828122 12.11519,7.246514 21.67313,8.495695 20.05274,14.097657 -1.57694,5.451747 -2.26859,15.143981 -4.25196,20.976562 -2.18925,6.438013 -1.62178,21.148083 -2.15039,29.933594 -1.11275,18.493869 0.7388,17.962314 1.58203,24.589846 0.39073,3.07098 -4.08447,3.31696 -3.29882,5.58203 0.80059,2.30814 9.14281,-3.9092 9.7207,-3.55664 11.62151,7.09001 51.57372,22.67769 72.16211,21.44531 4.05196,-0.24254 14.5223,-0.69854 16.30078,-2.01562 0.4735,-0.35066 0.15414,-4.72642 -1.58398,-9.51563 -1.2168,-3.35274 -4.42875,-6.66675 -3,-9.97266 0.78348,-1.81283 -0.1139,-2.9966 4.36523,-5.337886 2.38117,-1.244658 14.82939,-11.771783 15.27148,-8.894532 2.34625,15.270488 17.04452,38.460418 22.20313,44.749998 1.01902,1.24244 3.46643,4.12081 -3.64063,5.85938 -36.75936,8.99228 -84.6887,-1.08459 -100.68271,-5.50729 -3.56187,5.2282 -3.99919,-0.42134 -6.76455,-1.40538 -6.14365,-2.18618 -23.04082,-12.94211 -24.03711,-11.6303 -0.8238,1.08471 -0.82774,3.54741 3.26953,4.46484 6.75315,1.51212 5.0882,17.66248 6.39453,21.71875 -8.85487,-3.34733 -15.63893,-10.0067 -20.71484,-19.40039 -0.92534,-1.12453 -2.51789,5.92301 -3.89649,6.18555 -2.21574,0.42197 -1.25,-7.58203 -1.25,-7.58203 0,0 13.43198,-5.83752 11.98047,-9.625 -1.66436,-4.34287 -27.99379,12.98424 -31.06836,13.9707 -6.75938,3.91584 21.48119,-15.88211 27.97071,-19.70508 1.12314,-0.66164 3.18151,-4.92763 -2.21094,-3.23437 -4.42533,1.38957 -7.2367,8.57028 -6.07422,-2.38281 1.72725,-16.274353 -4.38841,-53.046954 -5.74414,-60.744146 -1.06762,-6.061426 -2.82075,-21.271277 -6.45313,-30.072265 -1.45661,-3.529266 -6.12343,-11.6039124 -1.6289,-11.4511721 z M 3.3027344,6.3925781 c 0.7616057,0.093633 21.6465026,10.3859749 33.7363276,9.4042969 3.123042,-0.25359 6.493081,3.689848 4.988282,8.972656 -0.750417,2.634449 1.231415,57.167845 9.253906,82.941409 0.109101,0.35051 -1.938848,0.43575 -2.140625,0.99609 -0.28607,0.79442 1.251097,2.03692 1.619141,1.97852 4.50486,-0.71462 2.487423,-3.14338 3.074218,-3.16407 0.969014,-0.0341 6.062858,1.75262 10.027344,2.01954 3.434281,1.54517 -7.485058,4.63527 -9.02539,9.55468 -1.975558,6.30939 3.473374,12.86331 0.654296,12.61719 -4.575606,-0.39949 -3.919789,-0.976 -4.357422,0.90234 -0.557204,2.39155 5.11351,3.17476 6.63086,5.10547 2.31454,2.94508 3.785699,11.71305 2.955078,12.20118 -2.015918,1.18465 -1.495993,2.10429 -2.28125,1.77343 -8.917417,-3.75727 -17.894539,-10.17939 -22.916016,-13.74219 -2.006536,-1.42366 -2.138894,-4.0899 -2.5,-6.98242 -0.06162,-0.4936 6.076438,-5.4629 5.634766,-6.40234 -0.677989,-1.44208 -5.872547,1.95543 -6.007812,1.86523 -0.662028,-0.44134 -3.950063,0.0947 -15.09961,6.41993 -7.167414,4.29627 -3.697627,-1.27869 -0.02539,-3.26758 13.807415,-7.47811 19.118491,-9.04497 22.703124,-11.80274 10.517873,-8.09171 -8.500384,-2.75861 -9.166015,-0.76172 0.965917,-0.6056 -7.43831,-68.241394 -20.357422,-88.783199 C 9.5856494,26.461459 1.7677727,6.2038773 3.3027344,6.3925781 Z M 280.43164,33.140625 c 0.34791,-0.02388 0.85555,0.382825 1.65625,1.191406 1.84418,1.217639 2.21969,1.420146 7.49219,3.925781 1.31881,0.626732 -9.35904,26.732579 -11.80469,26.011719 -6.71337,-1.9788 -4.29495,-2.032341 -3.44141,-4.58789 6.10537,-18.279562 4.59005,-26.437546 6.09766,-26.541016 z m -125.13281,7.632813 c 2.71969,-0.02495 6.26438,0.809237 10.4707,1.58789 4.06138,0.751822 -18.95864,19.229406 -23.58984,25.453125 17.28313,41.090577 -26.30566,65.201807 -62.779299,46.275387 l -19.957032,12.81055 0.388672,-7.65039 11.107422,-9.05078 c 0,0 16.609186,-11.985838 15.279297,-13.847658 -1.377523,-1.9285 -16.943679,10.541508 -17.427734,9.447268 -4.418035,-9.987231 -12.216596,-36.837715 22.71875,-54.011721 11.807654,-5.804572 27.315924,1.40244 35.654294,4.38086 2.23938,0.799899 -1.26032,3.87399 0.51758,4.4375 0.81005,0.256751 4.67863,-2.481166 5.11719,-2.566407 2.42442,-1.539335 14.39811,-12.666133 18.52929,-16.09375 1.00364,-0.832704 2.33889,-1.156899 3.97071,-1.171874 z m 13.86133,10.695312 c 2.95336,0.243712 16.84335,13.673191 24.65429,20.998047 1.54984,1.80567 -3.46734,11.901408 -3.40234,18.673828 -1.27572,10.715555 2.96127,27.040415 23.12891,23.154295 22.59437,-4.53959 29.64802,-6.57457 16.44336,-46.900389 -2.66356,-8.13426 -3.33405,-9.889862 -3.4668,-12.533203 -0.16238,-3.233449 1.09389,-2.617337 4.01953,-2.189453 2.92666,0.428035 11.37222,10.80369 24.75781,14.267578 6.60887,1.710222 6.86437,5.710742 8.75,52.050777 0.47466,11.66535 -21.22446,15.32666 -27.16015,15.53907 -32.48639,1.16253 -39.67403,-2.98123 -39.46094,1.41601 0.75463,15.57272 14.44852,42.44577 17.37109,50.4336 3.40858,8.26823 1.71512,2.53749 64.55664,-4.78516 19.44465,-2.2658 46.71875,-3.3418 46.71875,-3.3418 0,0 15.48747,10.17125 17.94922,9.93946 4.9783,-0.46875 -4.8688,-3.46712 -15.16992,-13.19727 -11.10612,-10.49053 -23.20665,-25.15783 -23.18945,-28.81641 -0.49166,-1.78462 0.1642,-2.02451 -0.38672,-4.48437 -0.17671,-0.78901 4.91335,-5.41085 4.69726,-6.27344 0,0 14.63556,19.18985 24.26368,25.76367 23.76399,16.22545 51.78564,28.29062 77.61132,33.33008 3.6961,1.19091 -3.93236,10.52118 -8.41601,8.44727 -31.60736,-14.61996 -130.47555,-14.52815 -195.64258,19.74804 -3.40022,3.24078 -6.90828,2.71952 -10.75391,2.82618 -4.78092,0.13261 -20.91274,-59.08457 -24.80859,-80.1875 -1.72185,-9.32685 1.03514,-9.66585 4.58398,-8.98828 15.00776,2.86537 14.02962,-0.29775 9.85547,-4.49805 -8.32156,-8.37368 -16.68436,-32.570013 -20.14258,-43.949221 -1.92959,-6.349304 1.04281,-30.523784 2.0918,-36.074218 0.0526,-0.278357 0.24136,-0.394353 0.54688,-0.369141 z m -5.07032,11.998047 c 0.22249,0.0139 0.17089,1.025156 0.2793,3.720703 0.33962,8.44399 -2.16992,20.621094 -2.16992,20.621094 -5.76499,3.03471 -8.00004,7.15543 -11.50781,5.15625 -3.40679,-1.94164 0.40474,-8.701845 -1.03516,-14.427735 -0.44744,-1.77928 -1.87089,-6.09064 4.375,-7.96875 7.75425,-2.33167 9.56912,-7.132147 10.05859,-7.101562 z m -43.65429,1.417969 c -0.50837,-0.01808 -0.98225,0.123673 -1.27344,0.492187 -1.24757,1.578859 -0.43021,2.212696 -4.66016,1.359375 -12.96264,-2.614991 -21.458896,7.815812 -25.966794,16.894531 -2.7125,5.462871 -0.184005,9.882931 -1.435547,11.832032 L 119.23047,71.402344 c 2.54537,-1.906 4.89318,-4.112203 3.01953,-5.800782 -0.451,-0.40645 -1.16083,-0.693566 -1.81445,-0.716796 z m 11.77343,9.232422 c -1.20715,-0.108181 -2.89826,0.969072 -3.91015,1.785156 -11.94945,9.637093 -35.718752,29.953126 -35.718752,29.953126 4.631979,3.45808 18.583342,11.16498 27.212892,3.5918 14.9086,-13.08361 3.80717,-19.598122 6.33203,-25.513676 0.77203,-1.808816 9.27279,-6.189819 7.08789,-9.259766 -0.25126,-0.353041 -0.60152,-0.52058 -1.00391,-0.55664 z m 32.47657,16.759765 c 0.75301,-0.02737 0.16904,1.729541 1.83203,7.009766 2.84331,9.027901 7.86397,29.064211 12.82812,30.814451 6.37165,2.24649 2.7688,6.05153 -7.70898,5.05274 -0.37288,-0.0356 -83.666942,3.67407 -111.835939,-0.88672 -1.921655,-0.10818 19.160264,-15.61391 18.953125,-12.77735 17.326535,9.74285 38.090354,2.58584 50.250004,-1.18359 6.81298,-2.11199 13.93464,0.59478 18.19336,0.54687 12.44182,-0.13986 9.59188,-5.88357 -0.13672,-17.44531 -3.78615,-4.499552 10.77266,-7.935532 15.43359,-10.152341 1.23136,-0.585654 1.84913,-0.966077 2.19141,-0.978516 z m -41.49024,6.380859 c -1.32006,2.7341 -0.2274,4.817678 -5.10156,8.787108 -2.58187,2.10263 -5.30547,1.55663 -7.6543,1.79492 z"
       transform="translate(-77.649447,45.43377)"
       id="path4528"
       inkscape:connector-curvature="0"
       sodipodi:nodetypes="csscsccsssscccccsccsscscccsccscsscscccsscsccsscssccscccsccssssscsscccsscssccscsssssscscsccccccscccsccccscscsssscsscccccscsccssccccsccscsccccscscccccccscccccccccscsscsccsccscscccsccscscccccccssccssscccccccscccssscccsccsscscc" />
  </g>
  <g
     inkscape:groupmode="layer"
     id="layer3"
     inkscape:label="Inside"
     style="display:inline;opacity:1"
     transform="translate(77.649447,-45.43377)" />
  <g
     inkscape:groupmode="layer"
     id="layer4"
     inkscape:label="Drip"
     style="display:inline;opacity:1"
     transform="translate(77.649447,-45.43377)">
    <path
       id="path4583"
       style="fill:none;fill-opacity:1;stroke:#000000;stroke-width:2.51338577;stroke-linecap:butt;stroke-linejoin:miter;stroke-miterlimit:4;stroke-dasharray:none;stroke-opacity:1"
       d="m 113.24341,221.63582 c 0.0742,-0.44674 3.20404,-1.17287 3.92857,0 0.94109,1.52343 -0.33338,5.73934 -1.96429,5 -1.69035,-0.76628 -2.3712,-2.55099 -1.96428,-5 z m 1.60714,-16.78571 c 1.9706,-0.512 4.68091,3.01068 3.75,4.82143 -0.68093,1.3245 -3.51735,0.9709 -4.46428,-0.17857 -0.9956,-1.20855 -0.80123,-4.2491 0.71428,-4.64286 z M 56.006358,172.43628 c 0.532303,-0.24881 -2.221316,0.87704 -2.020305,2.39912 0.177564,1.34453 1.691697,2.93161 3.03046,2.71478 1.172404,-0.18989 1.76777,-3.09359 1.76777,-3.09359 0.67696,-1.94308 -2.909311,-1.9589 -2.777925,-2.02031 z M 77.649515,86.206621 c -1.63182,0.015 -2.96719,0.33984 -3.97082,1.17254 -4.13118,3.42762 -16.10468,14.554259 -18.52911,16.093599 -0.43855,0.0852 -4.30798,2.823 -5.11803,2.56625 -1.7779,-0.56351 1.72262,-3.63652 -0.51676,-4.43642 -8.33837,-2.978429 -23.84701,-10.187259 -35.65467,-4.382689 -34.935351,17.174009 -27.137064,44.025509 -22.7190268,54.012719 0.484052,1.09424 16.0498362,-11.37597 17.4273602,-9.44747 1.329889,1.86182 -15.2791712,13.84824 -15.2791712,13.84824 l -10.8238542,8.67263 c 5.06995,-0.90927 7.51406,-2.16129 15.4874282,-2.1772 l 3.79896,-2.60471 c 0.9477768,0.49181 2.9436804,-2.2285 4.0256528,-2.36037 1.9172166,-0.23368 1.3817835,2.2717 4.697231,2.38824 11.474285,0.40333 22.666811,-0.23683 32.119567,-2.49744 1.375546,-0.32896 0.162911,5.82786 1.460285,5.42849 4.560344,-1.40379 4.478367,-0.76212 8.063955,-3.75285 0.860728,-0.71793 0.654654,-5.25654 2.818005,-6.6832 2.195798,-1.44806 6.760124,0.21446 7.470548,-0.67844 7.261955,-9.12731 8.551253,-22.75904 2.12283,-38.12119 4.6312,-6.22372 27.65064,-24.699859 23.58926,-25.451679 -4.20632,-0.77865 -7.74995,-1.614 -10.46964,-1.58905 z m -34.86299,24.112749 c 0.65361,0.0232 1.36387,0.30978 1.81487,0.71623 1.87366,1.68858 -0.4746,3.89365 -3.01997,5.79965 L 9.4495424,140.8958 c 1.2515396,-1.9491 -1.276414,-6.36897 1.4360866,-11.83184 4.507899,-9.07872 13.004244,-19.50905 25.966886,-16.89406 4.22995,0.85332 3.41261,0.21977 4.66018,-1.35909 0.29119,-0.36851 0.76546,-0.50952 1.27383,-0.49144 z m 12.77596,9.78803 c 2.1849,3.06995 -6.3148,7.45131 -7.08683,9.26012 -2.52486,5.91556 8.57713,12.42986 -6.33147,25.51346 -8.62955,7.57319 -22.582379,-0.13291 -27.214358,-3.59099 0,0 23.769298,-20.31729 35.718748,-29.95439 1.34919,-1.08811 3.90887,-2.64036 4.91391,-1.2282 z m -76.203203,41.77711 c 3.272083,-3.98331 10.286803,-5.36467 6.852522,-6.90984 -3.964485,-0.26692 -9.058955,-2.05386 -10.027965,-2.01972 -0.586798,0.0207 1.43096,2.44968 -3.073905,3.1643 -0.368041,0.0584 -1.904929,-1.18446 -1.618859,-1.97888 0.201777,-0.56034 2.250599,-0.64577 2.141498,-0.99628 -8.022492,-25.77356 -10.004319,-80.305609 -9.2539,-82.940049 1.504797,-5.28281 -1.865085,-9.2272 -4.988126,-8.97361 -12.089826,0.98167 -32.975871,-9.30995 -33.737477,-9.40358 -1.534961,-0.1887 6.282346,20.06753 7.399822,21.84435 12.919112,20.54181 20.372819,83.431999 20.074174,84.532259 -0.739515,2.72448 0.228023,3.64067 3.47807,1.73402 1.520075,-0.89176 0.965887,0.1941 2.874796,0.50242 1.78284,0.28796 3.482171,-2.96333 5.463498,-2.223 1.965861,0.73456 0.07765,2.82541 1.875137,4.00663 1.58522,1.04172 3.054868,-0.16691 4.832189,-0.0508 3.500722,0.22873 5.500274,2.4 7.708526,-0.28823 z m 317.814808,4.29706 c -18.10774,-4.86561 -37.08306,-12.85961 -44.50467,-17.38736 -0.5779,-0.35255 -8.92082,5.86654 -9.7214,3.5584 -0.78565,-2.26507 3.69031,-2.5118 3.29957,-5.58277 -0.84323,-6.62753 -2.69475,-6.09622 -1.58202,-24.5901 0.52861,-8.78551 -0.0401,-23.495119 2.14915,-29.933129 1.98337,-5.83258 2.67529,-15.52608 4.25223,-20.97783 1.62039,-5.60196 -7.93747,-6.84949 -20.05267,-14.096 -4.37419,-2.61637 -5.5558,-3.47991 -12.45055,-6.88312 -11.54705,-5.69953 -4.89071,5.53128 -3.09795,9.87499 3.63239,8.80099 5.38596,24.00975 6.45358,30.07118 1.35573,7.69719 5.47203,40.965989 4.81624,56.883189 1.20608,1.66123 34.13407,17.83636 38.56965,19.50241 2.03003,0.7625 1.09848,15.29487 6.62018,15.26509 2.84496,-0.0153 2.76167,-9.74618 4.0749,-14.05038 z m 58.58623,21.44523 c 3.64064,-0.32838 4.65851,-6.33206 5.98616,-11.62845 0.50482,-2.01386 2.77644,3.20632 4.20914,2.44474 3.09833,-1.64697 -0.65185,-10.32376 0.70938,-10.50268 0,0 5.04016,0.6872 4.02114,-0.55524 -4.32692,-6.28958 -10.98026,-17.61026 -14.50245,-32.88074 -0.4421,-2.87726 -12.88966,7.64908 -15.27083,8.89374 -4.47913,2.34128 -3.58217,3.52552 -4.36565,5.33834 -1.42875,3.30591 1.78448,6.62028 3.00127,9.97302 1.73813,4.78921 2.05719,9.16512 1.58369,9.51577 -1.77847,1.31709 -12.24912,1.77343 -16.30108,2.01597 0,0 4.39888,5.39134 7.23752,7.3183 4.10995,2.78997 12.55352,-7.59501 17.40443,-5.5685 3.52841,1.47401 3.61,15.87722 6.28728,15.63573 z M 51.227256,165.602 c 0.552297,-1.93588 -2.299162,-0.47628 -4.465924,0.43088 -1.806628,0.75639 -2.906334,0.78235 -3.322756,1.37976 -0.988902,1.4187 -0.165556,8.84868 3.44113,9.28138 1.74672,0.20956 2.910355,-6.05445 4.34755,-11.09202 z m 39.224695,-21.64388 c 4.574188,0.6624 12.599899,11.46711 19.509709,21.42426 1.84775,2.66265 0.71157,29.95612 2.56488,32.09218 7.29175,8.4042 6.86141,-17.93456 6.01014,-21.74462 -0.0913,-1.88403 1.40315,-1.16324 5.69643,0.18469 2.44034,0.76617 -0.98841,-8.20677 3.43807,-7.17953 6.04321,1.40243 15.78383,3.03599 27.01819,-4.05134 1.82202,-1.14944 8.82877,-14.48557 11.57451,-13.69656 1.37951,0.39641 -0.53372,7.85235 0.56556,9.16825 6.15767,7.37111 6.86545,-3.94285 8.93344,-12.57512 1.16318,-4.85538 9.36161,-1.22379 9.24387,-4.11731 -1.88556,-26.38951 -0.75299,-29.37874 -7.36186,-31.08897 -13.38559,-3.46388 -21.83048,-13.840869 -24.75714,-14.268899 -2.92564,-0.42788 -4.18291,-1.04402 -4.02053,2.189429 0.13275,2.64334 0.80349,4.39955 3.46705,12.53381 13.20466,40.32582 6.152,42.3608 -16.44238,46.90039 -22.6024,2.84264 -24.40551,-12.43944 -23.12944,-23.15484 -0.065,-6.77243 4.95201,-16.86814 3.40217,-18.67381 -8.61896,-8.0826 -24.639665,-23.598019 -25.200815,-20.628879 -2.264438,6.765889 -2.836071,33.291549 -2.09117,36.075459 -16.838175,10.3409 -22.074529,10.28244 -20.158513,13.64998 1.421821,2.49895 10.287543,-5.81957 10.262201,-0.7978 -0.02539,5.03129 -1.92,11.69719 0.79933,15.70711 0.928261,1.36881 4.091866,4.0168 6.140497,0.52899 2.279145,-3.88025 1.185588,-18.96202 4.535801,-18.47687 z M 204.43916,79.764911 c -4.2704,-4.31244 -0.24077,2.85322 -7.75507,25.351139 -0.85354,2.55555 -3.27223,2.60785 3.44112,4.58665 2.44565,0.72086 13.12376,-25.384859 11.80494,-26.011599 -5.27251,-2.50563 -5.64681,-2.70855 -7.49099,-3.92619 z"
       inkscape:connector-curvature="0"
       sodipodi:nodetypes="ccccscsscsccccccccscccccccsscssccsccsccssccsssccscccccccccsccccccccccccsssccsscscccccccccsccccsccscccsscsccscccsccscscccccssscsccccc" />
  </g>
</svg>
