<?xml version="1.0" standalone="no"?>
<!--Created with Inkscape (http://www.inkscape.org/)-->
<svg xmlns="http://www.w3.org/2000/svg" xmlns:xlink="http://www.w3.org/1999/xlink" viewBox="0 0 32.000000 32.000000">
  <defs>
    <linearGradient id="a">
      <stop offset="0.0000000" stop-color="#ffd486" stop-opacity="1"/>
      <stop offset="1.0000000" stop-color="#d38700" stop-opacity="1"/>
    </linearGradient>
    <linearGradient gradientUnits="userSpaceOnUse" y2="48.716526" x2="40.463882" y1="13.703138" x1="17.126085" id="b" xlink:href="#a"/>
  </defs>
  <metadata/>
  <path d="M 58.403591 29.207693 A 29.010935 29.010935 0 1 1  0.38172150,29.207693 A 29.010935 29.010935 0 1 1  58.403591 29.207693 z" transform="matrix(0.474879,0.000000,0.000000,0.474879,3.122290,3.180454)" fill="#000" fill-opacity=".098039217" fill-rule="evenodd" stroke="none" stroke-width="2.5" stroke-linecap="butt" stroke-linejoin="miter" stroke-miterlimit="4" stroke-opacity="1"/>
  <path d="M 58.403591 29.207693 A 29.010935 29.010935 0 1 1  0.38172150,29.207693 A 29.010935 29.010935 0 1 1  58.403591 29.207693 z" transform="matrix(0.474879,0.000000,0.000000,0.474879,2.512690,2.745024)" fill="#000" fill-opacity=".098039217" fill-rule="evenodd" stroke="none" stroke-width="2.5" stroke-linecap="butt" stroke-linejoin="miter" stroke-miterlimit="4" stroke-opacity="1"/>
  <path d="M 58.403591 29.207693 A 29.010935 29.010935 0 1 1  0.38172150,29.207693 A 29.010935 29.010935 0 1 1  58.403591 29.207693 z" transform="matrix(0.474879,0.000000,0.000000,0.474879,1.990170,2.396674)" fill="#000" fill-opacity=".098039217" fill-rule="evenodd" stroke="none" stroke-width="2.5" stroke-linecap="butt" stroke-linejoin="miter" stroke-miterlimit="4" stroke-opacity="1"/>
  <path d="M 58.403591 29.207693 A 29.010935 29.010935 0 1 1  0.38172150,29.207693 A 29.010935 29.010935 0 1 1  58.403591 29.207693 z" transform="matrix(0.459870,0.000000,0.000000,0.459870,1.891210,2.169424)" stroke-dasharray="none" stroke-opacity="1" stroke-miterlimit="4" stroke-linejoin="miter" stroke-linecap="butt" stroke-width="2.1745276" stroke="#5b2219" fill-rule="evenodd" fill-opacity="1" fill="#feb32e"/>
  <path d="M 53.950159 30.352861 A 24.175779 24.175779 0 1 1  5.5986004,30.352861 A 24.175779 24.175779 0 1 1  53.950159 30.352861 z" transform="matrix(0.510519,0.000000,0.000000,0.510519,0.315780,0.161334)" fill="none" fill-opacity="1" fill-rule="evenodd" stroke="url(#b)" stroke-width="2.4093129" stroke-linecap="round" stroke-linejoin="round" stroke-miterlimit="4" stroke-dashoffset="0" stroke-opacity="1" stroke-dasharray="none"/>
  <path d="M 21.831922,24.310214 L 15.446230,20.265387 L 9.0283023,24.255216 L 10.901874,16.932141 L 5.1240724,12.061254 L 12.667696,11.580172 L 15.514745,4.5799698 L 18.303390,11.605719 L 25.840764,12.150243 L 20.020618,16.973477 L 21.831922,24.310214 z " style="marker:none" color="#000" fill="#fff" fill-opacity="1" fill-rule="evenodd" stroke="none" stroke-width="4" stroke-linecap="round" stroke-linejoin="round" stroke-miterlimit="4" stroke-dashoffset="0" stroke-opacity="1" marker-start="none" marker-mid="none" marker-end="none" visibility="visible" display="inline" overflow="visible"/>
</svg>
