<?xml version="1.0" encoding="UTF-8" standalone="no"?>
<!-- Generator: Adobe Illustrator 9.0, SVG Export Plug-In  -->
<svg
   xmlns:xml="http://www.w3.org/XML/1998/namespace"
   xmlns:dc="http://purl.org/dc/elements/1.1/"
   xmlns:cc="http://web.resource.org/cc/"
   xmlns:rdf="http://www.w3.org/1999/02/22-rdf-syntax-ns#"
   xmlns:svg="http://www.w3.org/2000/svg"
   xmlns="http://www.w3.org/2000/svg"
   xmlns:xlink="http://www.w3.org/1999/xlink"
   xmlns:sodipodi="http://inkscape.sourceforge.net/DTD/sodipodi-0.dtd"
   xmlns:inkscape="http://www.inkscape.org/namespaces/inkscape"
   sodipodi:docbase="/home/jimmac/.icons/Gorilla/scalable/emblems"
   sodipodi:docname="emblem-pictures.svg"
   inkscape:version="0.41+cvs"
   sodipodi:version="0.32"
   id="svg16168"
   xml:space="preserve"
   height="36.000000px"
   width="36.000000px"><metadata
   id="metadata16236">
  <rdf:RDF
   id="RDF16238">
    <cc:Work
   id="Work16240"
   rdf:about="">
      <dc:format
   id="format16242">image/svg+xml</dc:format>


      <dc:type
   rdf:resource="http://purl.org/dc/dcmitype/StillImage"
   id="type16244" />


    </cc:Work>


  </rdf:RDF>


</metadata>


<defs
   id="defs16234">
		
		<linearGradient
   id="aigrd1"
   gradientUnits="userSpaceOnUse"
   x1="12.4873"
   y1="3.7319"
   x2="31.0813"
   y2="36.0328"
   style="stroke-dasharray:none;stroke-miterlimit:4.0000000;stroke-width:1.2166667">
			<stop
   offset="0"
   style="stop-color:#D2D2D2;stroke-dasharray:none;stroke-miterlimit:4.0000000;stroke-width:1.2166667"
   id="stop16177" />



			<stop
   offset="1"
   style="stop-color:#EDEDED;stroke-dasharray:none;stroke-miterlimit:4.0000000;stroke-width:1.2166667"
   id="stop16179" />



		</linearGradient>



		
		<linearGradient
   id="aigrd2"
   gradientUnits="userSpaceOnUse"
   x1="21.877"
   y1="30.3413"
   x2="21.9168"
   y2="22.5769"
   style="stroke-dasharray:none;stroke-miterlimit:4.0000000;stroke-width:1.2166667">
			<stop
   offset="0"
   style="stop-color:#163069;stroke-dasharray:none;stroke-miterlimit:4.0000000;stroke-width:1.2166667"
   id="stop16184" />



			<stop
   offset="1"
   style="stop-color:#83A1CB;stroke-dasharray:none;stroke-miterlimit:4.0000000;stroke-width:1.2166667"
   id="stop16186" />



		</linearGradient>



		
		
		
		
		
		<linearGradient
   id="aigrd3"
   gradientUnits="userSpaceOnUse"
   x1="21.9326"
   y1="24.6274"
   x2="21.9326"
   y2="7.1091"
   style="stroke-dasharray:none;stroke-miterlimit:4.0000000;stroke-width:1.2166667">
			<stop
   offset="0"
   style="stop-color:#D0D6E5;stroke-dasharray:none;stroke-miterlimit:4.0000000;stroke-width:1.2166667"
   id="stop16199" />



			<stop
   offset="1"
   style="stop-color:#093A80;stroke-dasharray:none;stroke-miterlimit:4.0000000;stroke-width:1.2166667"
   id="stop16201" />



		</linearGradient>



		
		
		
		
		
		
		
	<linearGradient
   y2="7.1091"
   x2="21.9326"
   y1="24.6274"
   x1="21.9326"
   gradientUnits="userSpaceOnUse"
   id="linearGradient16270"
   xlink:href="#aigrd3"
   inkscape:collect="always"
   gradientTransform="matrix(0.853828,0.000000,0.000000,0.853828,-0.606509,0.895275)" />


<linearGradient
   y2="22.5769"
   x2="21.9168"
   y1="30.3413"
   x1="21.877"
   gradientUnits="userSpaceOnUse"
   id="linearGradient16277"
   xlink:href="#aigrd2"
   inkscape:collect="always"
   gradientTransform="matrix(0.853828,0.000000,0.000000,0.853828,-0.606509,0.895275)" />


<linearGradient
   gradientTransform="matrix(0.869743,0.000000,0.000000,0.869743,-0.949476,0.584935)"
   y2="36.0328"
   x2="31.0813"
   y1="3.7319"
   x1="12.4873"
   gradientUnits="userSpaceOnUse"
   id="linearGradient16280"
   xlink:href="#aigrd1"
   inkscape:collect="always" />


</defs>


<sodipodi:namedview
   inkscape:current-layer="svg16168"
   inkscape:window-y="81"
   inkscape:window-x="241"
   inkscape:cy="22.571075"
   inkscape:cx="10.470024"
   inkscape:zoom="4.0000000"
   id="base"
   pagecolor="#ffffff"
   bordercolor="#666666"
   borderopacity="1.0"
   inkscape:pageopacity="0.0"
   inkscape:pageshadow="2"
   inkscape:window-width="585"
   inkscape:window-height="671" />



	
	<path
   style="fill:url(#linearGradient16280);fill-rule:nonzero;stroke:#000000;stroke-width:1.5000000;stroke-miterlimit:4.0000000;stroke-opacity:1.0000000;stroke-dasharray:none"
   d="M 33.057490,29.547387 C 33.057490,30.938977 31.926824,32.069643 30.535235,32.069643 L 5.0517552,32.069643 C 3.6601660,32.069643 2.5294996,30.938977 2.5294996,29.547387 L 2.5294996,5.5424721 C 2.5294996,4.1508828 3.6601660,3.0202164 5.0517552,3.0202164 L 30.535235,3.0202164 C 31.926824,3.0202164 33.057490,4.1508828 33.057490,5.5424721 L 33.057490,29.547387 L 33.057490,29.547387 z "
   id="path16181" />


<path
   style="fill:url(#linearGradient16277);fill-rule:nonzero;stroke:none;stroke-width:1.2166667;stroke-miterlimit:4.0000000"
   d="M 30.643613,26.168597 L 5.6264396,26.168597 L 5.6264396,9.1774111 L 30.643613,9.1774111 L 30.643613,26.168597 L 30.643613,26.168597 z "
   id="path16188" />


<path
   style="fill:#fcfcfc;fill-rule:nonzero;stroke:none;stroke-width:1.2166667;stroke-miterlimit:4.0000000"
   d="M 4.1735526,6.6975295 L 3.6731032,30.719097 C 3.3394704,30.302055 3.1726539,29.551381 3.1726539,29.551381 L 3.1726539,5.8634471 C 3.1726539,5.8634471 3.1726539,5.2795895 3.6731032,4.5289156 C 4.2569609,3.7782416 5.1744513,3.7782416 5.1744513,3.7782416 L 26.443547,3.7782416 L 6.0085335,4.7791403 C 5.1744513,4.7791403 4.7574102,5.1961814 4.5905938,5.3629978 C 4.4237773,5.6132224 4.1735526,6.1136717 4.1735526,6.6975295 z "
   id="path16190" />


<path
   style="fill:#bebebe;fill-rule:nonzero;stroke:none;stroke-width:1.2166667;stroke-miterlimit:4.0000000"
   d="M 31.739621,5.0108325 C 32.065828,5.3370396 32.228933,6.1525572 32.228933,6.1525572 L 32.317321,29.231707 C 32.322398,30.557353 31.692546,31.352054 30.013362,31.352054 L 9.5575404,31.352054 L 29.537724,30.210330 C 30.353241,30.210330 30.761001,29.802571 30.924103,29.639467 C 31.087208,29.476363 31.331863,28.905501 31.331863,28.416190 L 31.739621,5.0108325 z "
   id="path16192"
   sodipodi:nodetypes="ccssccccc" />


<path
   style="fill:#bebebe;fill-rule:nonzero;stroke:none;stroke-width:1.2166667;stroke-miterlimit:4.0000000"
   d="M 30.643613,9.1774111 L 31.155910,8.5797312 L 5.0287596,8.4943483 L 5.0287596,26.766277 L 5.6264396,26.083214 L 5.6264396,9.1774111 L 30.643613,9.1774111 z "
   id="path16194" />


<path
   style="fill:#ffffff;fill-rule:nonzero;stroke:none;stroke-width:1.2166667;stroke-miterlimit:4.0000000"
   d="M 5.0287596,26.766277 L 31.155910,26.680894 L 31.155910,8.5797312 L 30.558230,9.1774111 L 30.558230,26.168597 L 5.6264396,26.168597 L 5.0287596,26.851661 L 5.0287596,26.766277 z "
   id="path16196" />


<path
   style="fill:url(#linearGradient16270);fill-rule:nonzero;stroke:none;stroke-width:1.2166667;stroke-miterlimit:4.0000000"
   d="M 5.8825880,9.3481769 L 30.387464,9.3481769 L 30.387464,19.679501 L 5.8825880,19.679501 L 5.8825880,9.3481769 z "
   id="path16203" />


<g
   id="g16205"
   style="fill-rule:nonzero;stroke:#000000;stroke-width:1.2166667;stroke-miterlimit:4.0000000"
   transform="matrix(0.853828,0.000000,0.000000,0.853828,-0.606509,0.895275)">
			<g
   id="g16207">
				<path
   style="opacity:0.049999956;fill:#e8f52f;stroke:none"
   d="M 18.400000,15.400000 C 18.400000,17.600000 16.600000,19.500000 14.300000,19.500000 C 12.100000,19.500000 10.200000,17.700000 10.200000,15.400000 C 10.200000,13.200000 12.000000,11.300000 14.300000,11.300000 C 16.500000,11.300000 18.400000,13.100000 18.400000,15.400000 z "
   id="path16209" />



				<path
   style="opacity:0.20829995;fill:#ecf751;stroke:none"
   d="M 18.000000,15.400000 C 18.000000,17.400000 16.400000,19.100000 14.300000,19.100000 C 12.300000,19.100000 10.600000,17.500000 10.600000,15.400000 C 10.600000,13.400000 12.200000,11.700000 14.300000,11.700000 C 16.300000,11.700000 18.000000,13.300000 18.000000,15.400000 L 18.000000,15.400000 z "
   id="path16211" />



				<path
   style="opacity:0.36669996;fill:#f0f972;stroke:none"
   d="M 17.600000,15.400000 C 17.600000,17.200000 16.100000,18.700000 14.300000,18.700000 C 12.500000,18.700000 11.000000,17.200000 11.000000,15.400000 C 11.000000,13.600000 12.500000,12.100000 14.300000,12.100000 C 16.100000,12.100000 17.600000,13.600000 17.600000,15.400000 L 17.600000,15.400000 z "
   id="path16213" />



				<path
   style="opacity:0.52499998;fill:#f4fa95;stroke:none"
   d="M 17.200000,15.400000 C 17.200000,17.000000 15.900000,18.300000 14.300000,18.300000 C 12.700000,18.300000 11.400000,17.000000 11.400000,15.400000 C 11.400000,13.800000 12.700000,12.500000 14.300000,12.500000 C 15.900000,12.500000 17.200000,13.800000 17.200000,15.400000 z "
   id="path16215" />



				<path
   style="opacity:0.68330002;fill:#f7fcb7;stroke:none"
   d="M 16.800000,15.400000 C 16.800000,16.800000 15.700000,17.900000 14.300000,17.900000 C 12.900000,17.900000 11.800000,16.800000 11.800000,15.400000 C 11.800000,14.000000 12.900000,12.900000 14.300000,12.900000 C 15.700000,12.900000 16.800000,14.000000 16.800000,15.400000 L 16.800000,15.400000 z "
   id="path16217" />



				<path
   style="opacity:0.84170002;fill:#fbfddb;stroke:none"
   d="M 16.400000,15.400000 C 16.400000,16.600000 15.400000,17.500000 14.300000,17.500000 C 13.200000,17.500000 12.200000,16.500000 12.200000,15.400000 C 12.200000,14.300000 13.200000,13.300000 14.300000,13.300000 C 15.400000,13.300000 16.400000,14.300000 16.400000,15.400000 z "
   id="path16219" />



				<path
   style="fill:#ffffff;stroke:none"
   d="M 16.000000,15.400000 C 16.000000,16.400000 15.200000,17.200000 14.200000,17.200000 C 13.200000,17.200000 12.400000,16.400000 12.400000,15.400000 C 12.400000,14.400000 13.200000,13.600000 14.200000,13.600000 C 15.200000,13.600000 16.000000,14.400000 16.000000,15.400000 L 16.000000,15.400000 z "
   id="path16221" />



			</g>



		</g>


<path
   style="opacity:0.29999998;fill-rule:nonzero;stroke:none;stroke-width:1.2166667;stroke-miterlimit:4.0000000"
   d="M 19.885374,21.131009 L 26.118322,21.131009 L 27.313682,21.472541 L 25.264494,21.472541 C 25.264494,21.472541 27.313682,21.643306 28.338277,22.924049 C 29.362870,24.119409 27.142917,25.570918 27.142917,25.570918 C 27.142917,25.570918 27.142917,25.570918 27.142917,25.570918 C 27.057534,25.314769 26.545236,23.265580 25.520642,22.411752 C 24.752196,21.728689 23.898368,21.557923 23.898368,21.557923 L 19.885374,21.557923 L 19.885374,21.216392 L 19.885374,21.131009 z "
   id="path16223" />


<path
   style="opacity:0.29999998;fill-rule:nonzero;stroke:none;stroke-width:1.2166667;stroke-miterlimit:4.0000000"
   d="M 23.983752,21.643306 L 20.397672,21.643306 L 27.057534,25.400151 L 23.983752,21.643306 L 23.983752,21.643306 z "
   id="path16225" />


<path
   style="fill:#515151;fill-rule:nonzero;stroke:none;stroke-width:1.2166667;stroke-miterlimit:4.0000000"
   d="M 19.885374,21.216392 L 26.118322,21.216392 L 27.057534,20.618712 L 25.008346,20.618712 C 25.008346,20.618712 26.886767,20.277181 27.142917,18.142609 C 27.399064,16.008038 24.239899,13.617319 24.239899,13.617319 C 24.239899,13.617319 24.239899,13.617319 24.239899,13.702702 C 24.325282,14.214999 25.179110,17.801078 24.581431,19.167205 C 24.325282,20.362563 23.556837,20.618712 23.556837,20.618712 L 19.629225,20.618712 L 19.799991,21.216392 L 19.885374,21.216392 z "
   id="path16227" />


<path
   style="fill:#515151;fill-rule:nonzero;stroke:none;stroke-width:1.2166667;stroke-miterlimit:4.0000000"
   d="M 23.642220,20.277181 L 20.056140,20.277181 L 24.325282,13.788084 L 23.642220,20.277181 z "
   id="path16229" />


<path
   style="fill-rule:nonzero;stroke:none;stroke-width:1.2166667;stroke-miterlimit:4.0000000"
   d="M 5.6264396,9.1774111 L 5.6264396,26.168597 L 30.643613,26.168597 L 30.643613,9.1774111 L 5.6264396,9.1774111 z M 30.131316,25.656301 L 6.2241194,25.656301 L 6.2241194,9.6897082 L 30.131316,9.6897082 L 30.131316,25.656301 z "
   id="path16231" />



</svg>
