<?xml version="1.0" encoding="UTF-8" standalone="no"?>
<!-- Generator: Adobe Illustrator 9.0, SVG Export Plug-In  -->
<svg
   xmlns:xml="http://www.w3.org/XML/1998/namespace"
   xmlns:dc="http://purl.org/dc/elements/1.1/"
   xmlns:cc="http://web.resource.org/cc/"
   xmlns:rdf="http://www.w3.org/1999/02/22-rdf-syntax-ns#"
   xmlns:svg="http://www.w3.org/2000/svg"
   xmlns="http://www.w3.org/2000/svg"
   xmlns:xlink="http://www.w3.org/1999/xlink"
   xmlns:sodipodi="http://inkscape.sourceforge.net/DTD/sodipodi-0.dtd"
   xmlns:inkscape="http://www.inkscape.org/namespaces/inkscape"
   width="36.000000px"
   height="36.000000px"
   viewBox="0 0 48 48"
   xml:space="preserve"
   id="svg3817"
   sodipodi:version="0.32"
   inkscape:version="0.41+cvs"
   sodipodi:docname="emblem-danger.svg"
   sodipodi:docbase="/home/jimmac/.icons/Gorilla/scalable/emblems"><metadata
   id="metadata3832">
  <rdf:RDF
   id="RDF3834">
    <cc:Work
   rdf:about=""
   id="Work3836">
      <dc:format
   id="format3838">image/svg+xml</dc:format>

      <dc:type
   id="type3840"
   rdf:resource="http://purl.org/dc/dcmitype/StillImage" />

    </cc:Work>

  </rdf:RDF>

</metadata>

<defs
   id="defs3830"><linearGradient
   id="linearGradient12512">
  <stop
   id="stop12513"
   offset="0.0000000"
   style="stop-color:#ffffff;stop-opacity:1.0000000;" />

  <stop
   id="stop12517"
   offset="0.50000000"
   style="stop-color:#fff520;stop-opacity:0.89108908;" />

  <stop
   id="stop12514"
   offset="1.0000000"
   style="stop-color:#fff300;stop-opacity:0.0000000;" />

</linearGradient>

<radialGradient
   r="14.375000"
   fy="125.00000"
   fx="55.000000"
   cy="125.00000"
   cx="55.000000"
   gradientUnits="userSpaceOnUse"
   id="radialGradient278"
   xlink:href="#linearGradient12512"
   inkscape:collect="always" />

<linearGradient
   id="linearGradient3854">
  <stop
   style="stop-color:#939393;stop-opacity:1.0000000;"
   offset="0.0000000"
   id="stop3856" />

  <stop
   id="stop3862"
   offset="0.0000000"
   style="stop-color:#727272;stop-opacity:1.0000000;" />

  <stop
   style="stop-color:#000000;stop-opacity:1.0000000;"
   offset="1.0000000"
   id="stop3858" />

</linearGradient>


		
		
		
	<radialGradient
   inkscape:collect="always"
   xlink:href="#linearGradient3854"
   id="radialGradient3866"
   gradientTransform="matrix(0.845519,1.517986e-2,-1.625322e-2,0.905305,3.008125,5.538105)"
   cx="18.845793"
   cy="24.155804"
   fx="18.845793"
   fy="24.155804"
   r="30.412334"
   gradientUnits="userSpaceOnUse" />

</defs>

<sodipodi:namedview
   inkscape:window-height="538"
   inkscape:window-width="640"
   inkscape:pageshadow="2"
   inkscape:pageopacity="0.0"
   borderopacity="1.0"
   bordercolor="#666666"
   pagecolor="#ffffff"
   id="base"
   inkscape:zoom="6.0500000"
   inkscape:cx="22.473568"
   inkscape:cy="24.239895"
   inkscape:window-x="6"
   inkscape:window-y="42"
   inkscape:current-layer="svg3817" />


	<path
   id="path3820"
   d="M 35.472190,6.5881551 L 31.972021,6.5881551 L 31.972021,8.3382394 C 31.972021,8.9507690 31.884517,9.1257774 31.884517,9.1257774 C 31.709508,9.3882900 30.309441,9.4757943 29.784416,9.5632985 C 27.421802,9.8258111 23.134095,10.350836 21.909036,15.426081 C 21.384011,15.426081 19.108901,15.426081 19.108901,15.426081 C 19.108901,15.426081 19.108901,18.751242 19.108901,19.976301 C 13.771144,21.988898 10.183471,27.064142 10.183471,32.926925 C 10.183471,40.539792 16.396270,46.752591 24.009137,46.752591 C 31.622004,46.752591 37.834804,40.539792 37.834804,32.926925 C 37.834804,27.326655 34.334635,22.251410 29.171886,20.151309 C 29.171886,18.926250 29.171886,15.426081 29.171886,15.426081 C 29.171886,15.426081 28.121835,15.426081 27.684314,15.426081 C 28.209340,15.076065 29.084382,14.901056 30.396945,14.726048 C 32.584551,14.463535 37.222274,13.938510 37.222274,8.3382394 L 37.222274,6.5881551 L 35.472190,6.5881551 L 35.472190,6.5881551 z "
   style="fill-rule:nonzero;stroke:none;stroke-miterlimit:4.0000000" />

<path
   id="path3822"
   d="M 26.984281,20.938847 L 26.984281,16.738645 L 24.709171,16.738645 C 25.146692,13.150972 27.334297,12.888459 29.784416,12.625946 C 32.147029,12.363433 35.034669,12.013417 35.034669,7.9007184 L 33.284584,7.9007184 C 33.284584,10.350836 32.059525,10.525845 29.521903,10.875862 C 26.896776,11.225879 23.396608,11.575896 22.871582,16.738645 L 20.333960,16.738645 L 20.333960,20.851343 C 15.171211,22.251410 11.408530,26.889134 11.408530,32.489404 C 11.408530,39.139724 16.833791,44.564986 23.484112,44.564986 C 30.134432,44.564986 35.559694,39.139724 35.559694,32.489404 C 35.559694,26.976638 31.884517,22.426419 26.896776,20.938847 L 26.984281,20.938847 z "
   style="fill:#ababab;fill-rule:nonzero;stroke:none;stroke-miterlimit:4.0000000" />

<path
   id="path3824"
   d="M 26.984281,20.938847 L 26.984281,17.351174 L 24.709171,17.351174 C 25.146692,13.938510 27.421802,12.800955 29.784416,12.625946 C 32.497046,12.363433 35.034669,11.838408 35.034669,7.9007184 L 33.722105,7.9007184 C 33.722105,10.263332 32.322038,11.313383 29.959424,11.663400 C 27.509306,11.925912 24.271650,12.363433 23.746625,17.351174 L 21.384011,17.351174 L 21.384011,21.988898 C 19.633926,22.513923 18.058850,23.301461 16.746287,24.439016 C 17.883842,24.614024 18.758884,25.576571 18.758884,26.714125 C 18.758884,27.939184 17.708834,28.989235 16.483775,28.989235 C 15.521228,28.989235 14.646186,28.376706 14.296169,27.501663 C 13.508631,28.989235 13.071110,30.739319 13.071110,32.664412 C 13.071110,39.139724 17.796338,44.652490 24.009137,44.652490 C 30.221937,44.652490 35.647198,39.227228 35.647198,32.576908 C 35.647198,26.976638 32.059525,22.426419 26.984281,21.026351 L 26.984281,20.938847 z "
   style="fill:url(#radialGradient3866);fill-opacity:1.0000000;fill-rule:nonzero;stroke:none;stroke-miterlimit:4.0000000" />


	
<path
   inkscape:export-ydpi="33.852203"
   inkscape:export-xdpi="33.852203"
   inkscape:export-filename="/home/jimmac/ximian_art/icons/nautilus/suse93/stock_new-16.png"
   transform="matrix(0.530073,0.000000,0.000000,0.530073,4.661406,-59.16504)"
   d="M 69.375000 125.00000 A 14.375000 14.375000 0 1 1  40.625000,125.00000 A 14.375000 14.375000 0 1 1  69.375000 125.00000 z"
   sodipodi:ry="14.375000"
   sodipodi:rx="14.375000"
   sodipodi:cy="125.00000"
   sodipodi:cx="55.000000"
   id="path12511"
   style="color:#000000;fill:url(#radialGradient278);fill-opacity:1.0000000;fill-rule:nonzero;stroke:none;stroke-width:1.2500002;stroke-linecap:butt;stroke-linejoin:round;stroke-miterlimit:4.0000000;stroke-dashoffset:0.0000000;stroke-opacity:1.0000000;marker:none;marker-start:none;marker-mid:none;marker-end:none;visibility:visible;display:block"
   sodipodi:type="arc" />

</svg>
