<?xml version="1.0" encoding="UTF-8" standalone="no"?>
<!-- Generator: Adobe Illustrator 9.0, SVG Export Plug-In  -->
<svg
   xmlns:xml="http://www.w3.org/XML/1998/namespace"
   xmlns:dc="http://purl.org/dc/elements/1.1/"
   xmlns:cc="http://web.resource.org/cc/"
   xmlns:rdf="http://www.w3.org/1999/02/22-rdf-syntax-ns#"
   xmlns:svg="http://www.w3.org/2000/svg"
   xmlns="http://www.w3.org/2000/svg"
   xmlns:sodipodi="http://inkscape.sourceforge.net/DTD/sodipodi-0.dtd"
   xmlns:inkscape="http://www.inkscape.org/namespaces/inkscape"
   sodipodi:docbase="/home/jimmac/.icons/Gorilla/scalable/emblems"
   sodipodi:docname="emblem-documents.svg"
   inkscape:version="0.41+cvs"
   sodipodi:version="0.32"
   id="svg6536"
   xml:space="preserve"
   viewBox="0 0 48 48"
   height="36.000000px"
   width="36.000000px"><metadata
   id="metadata6659">
  <rdf:RDF
     id="RDF6661">
    <cc:Work
       id="Work6663"
       rdf:about="">
      <dc:format
         id="format6665">image/svg+xml</dc:format>
      <dc:type
         rdf:resource="http://purl.org/dc/dcmitype/StillImage"
         id="type6667" />
    </cc:Work>
  </rdf:RDF>
</metadata>
<defs
   id="defs6657" />
<sodipodi:namedview
   inkscape:current-layer="svg6536"
   inkscape:window-y="25"
   inkscape:window-x="0"
   inkscape:cy="30.000000"
   inkscape:cx="30.000000"
   inkscape:zoom="6.0500000"
   id="base"
   pagecolor="#ffffff"
   bordercolor="#666666"
   borderopacity="1.0"
   inkscape:pageopacity="0.0"
   inkscape:pageshadow="2"
   inkscape:window-width="640"
   inkscape:window-height="538" />

	
	<g
   style="fill-rule:nonzero;clip-rule:nonzero;fill:#FFFFFF;stroke:#000000;stroke-miterlimit:4;"
   id="Layer_x0020_3">
		<path
   id="path6542"
   d="M18.6,2.1c-2.2,0-4,1.8-4,4v23.4c0,2.2,1.8,4,4,4h20.9c2.2,0,4-1.8,4-4V6.1c0-2.2-1.8-4-4-4H18.6z"
   style="fill:#000000;stroke:none;" />

		<linearGradient
   y2="30.7419"
   x2="36.2626"
   y1="5.5015"
   x1="21.7329"
   gradientUnits="userSpaceOnUse"
   id="aigrd1">
			<stop
   id="stop6545"
   style="stop-color:#F0F0F0"
   offset="0" />

			<stop
   id="stop6547"
   style="stop-color:#D6D6D6"
   offset="1" />

		</linearGradient>

		<path
   id="path6549"
   d="M41.5,29.6c0,1.2-1,2.2-2.2,2.2H18.4c-1.2,0-2.2-1-2.2-2.2V6.1c0-1.2,1-2.2,2.2-2.2h20.9c1.2,0,2.2,1,2.2,2.2v23.4z"
   style="fill:url(#aigrd1);stroke:none;" />

		<g
   id="g6551">
			<radialGradient
   gradientUnits="userSpaceOnUse"
   fy="22.8379"
   fx="18.3589"
   r="0.9497"
   cy="22.8379"
   cx="18.3589"
   id="aigrd2">
				<stop
   id="stop6554"
   style="stop-color:#F0F0F0"
   offset="0" />

				<stop
   id="stop6556"
   style="stop-color:#474747"
   offset="1" />

			</radialGradient>

			<path
   id="path6558"
   d="M18.8,22.6c0,0.4-0.3,0.6-0.6,0.6s-0.6-0.3-0.6-0.6c0-0.4,0.3-0.6,0.6-0.6s0.6,0.3,0.6,0.6z"
   style="fill:url(#aigrd2);stroke:none;" />

			<radialGradient
   gradientUnits="userSpaceOnUse"
   fy="13.8076"
   fx="18.3589"
   r="0.9497"
   cy="13.8076"
   cx="18.3589"
   id="aigrd3">
				<stop
   id="stop6561"
   style="stop-color:#F0F0F0"
   offset="0" />

				<stop
   id="stop6563"
   style="stop-color:#474747"
   offset="1" />

			</radialGradient>

			<path
   id="path6565"
   d="M18.8,13.5c0,0.4-0.3,0.6-0.6,0.6s-0.6-0.3-0.6-0.6c0-0.4,0.3-0.6,0.6-0.6s0.6,0.3,0.6,0.6z"
   style="fill:url(#aigrd3);stroke:none;" />

		</g>

		<path
   id="path6567"
   d="M20.3,31.7H20V4.4h0.3v27.3z"
   style="stroke:none;" />

		<linearGradient
   y2="30.7231"
   x2="19.7091"
   y1="5.1885"
   x1="20.0313"
   gradientUnits="userSpaceOnUse"
   id="aigrd4">
			<stop
   id="stop6570"
   style="stop-color:#EDEDED"
   offset="0" />

			<stop
   id="stop6572"
   style="stop-color:#CACACA"
   offset="1" />

		</linearGradient>

		<path
   id="path6574"
   d="M20,31.7h-0.3V4.4H20v27.3z"
   style="fill:url(#aigrd4);stroke:none;" />

		<path
   id="path6576"
   d="M17.2,6.9l-0.5,24.1c-0.3-0.3-0.5-1.1-0.5-1.1l0-23.8c0,0,0-0.6,0.5-1.3c0.6-0.7,1.5-0.8,1.5-0.8l21.3,0L19.1,5c-0.8,0-1.3,0.4-1.5,0.6c-0.1,0.2-0.4,0.7-0.4,1.3z"
   style="stroke:none;" />

		<path
   id="path6578"
   d="M40.6,28.8l0.5-24.1c0.3,0.3,0.5,1.1,0.5,1.1l0,23.8c0,0,0,0.6-0.5,1.3c-0.6,0.7-1.5,0.8-1.5,0.8l-21.3,0l20.5-1c0.8,0,1.3-0.4,1.5-0.6c0.1-0.2,0.4-0.7,0.4-1.3z"
   style="fill:#BEBEBE;stroke:none;" />

		<path
   id="path6580"
   d="M13.4,8.2c-2.2,0-4,1.8-4,4v23.4c0,2.2,1.8,4,4,4h20.9c2.2,0,4-1.8,4-4V12.2c0-2.2-1.8-4-4-4H13.4z"
   style="fill:#000000;stroke:none;" />

		<linearGradient
   y2="36.7927"
   x2="31.0829"
   y1="11.5522"
   x1="16.5532"
   gradientUnits="userSpaceOnUse"
   id="aigrd5">
			<stop
   id="stop6583"
   style="stop-color:#F0F0F0"
   offset="0" />

			<stop
   id="stop6585"
   style="stop-color:#D6D6D6"
   offset="1" />

		</linearGradient>

		<path
   id="path6587"
   d="M36.3,35.6c0,1.2-1,2.2-2.2,2.2H13.2c-1.2,0-2.2-1-2.2-2.2V12.2c0-1.2,1-2.2,2.2-2.2h20.9c1.2,0,2.2,1,2.2,2.2v23.4z"
   style="fill:url(#aigrd5);stroke:none;" />

		<g
   id="g6589">
			<radialGradient
   gradientUnits="userSpaceOnUse"
   fy="28.8887"
   fx="13.1797"
   r="0.9497"
   cy="28.8887"
   cx="13.1797"
   id="aigrd6">
				<stop
   id="stop6592"
   style="stop-color:#F0F0F0"
   offset="0" />

				<stop
   id="stop6594"
   style="stop-color:#474747"
   offset="1" />

			</radialGradient>

			<path
   id="path6596"
   d="M13.6,28.6c0,0.4-0.3,0.6-0.6,0.6c-0.4,0-0.6-0.3-0.6-0.6S12.6,28,13,28c0.4,0,0.6,0.3,0.6,0.6z"
   style="fill:url(#aigrd6);stroke:none;" />

			<radialGradient
   gradientUnits="userSpaceOnUse"
   fy="19.8584"
   fx="13.1797"
   r="0.9497"
   cy="19.8584"
   cx="13.1797"
   id="aigrd7">
				<stop
   id="stop6599"
   style="stop-color:#F0F0F0"
   offset="0" />

				<stop
   id="stop6601"
   style="stop-color:#474747"
   offset="1" />

			</radialGradient>

			<path
   id="path6603"
   d="M13.6,19.6c0,0.4-0.3,0.6-0.6,0.6c-0.4,0-0.6-0.3-0.6-0.6c0-0.4,0.3-0.6,0.6-0.6c0.4,0,0.6,0.3,0.6,0.6z"
   style="fill:url(#aigrd7);stroke:none;" />

		</g>

		<path
   id="path6605"
   d="M15.1,37.8h-0.3V10.5h0.3v27.3z"
   style="stroke:none;" />

		<linearGradient
   y2="36.7729"
   x2="14.5299"
   y1="11.2393"
   x1="14.8521"
   gradientUnits="userSpaceOnUse"
   id="aigrd8">
			<stop
   id="stop6608"
   style="stop-color:#EDEDED"
   offset="0" />

			<stop
   id="stop6610"
   style="stop-color:#CACACA"
   offset="1" />

		</linearGradient>

		<path
   id="path6612"
   d="M14.8,37.8h-0.3V10.5h0.3v27.3z"
   style="fill:url(#aigrd8);stroke:none;" />

		<path
   id="path6614"
   d="M12,12.9L11.5,37c-0.3-0.3-0.5-1.1-0.5-1.1l0-23.8c0,0,0-0.6,0.5-1.3c0.6-0.7,1.5-0.8,1.5-0.8l21.3,0l-20.5,1c-0.8,0-1.3,0.4-1.5,0.6c-0.1,0.2-0.4,0.7-0.4,1.3z"
   style="stroke:none;" />

		<path
   id="path6616"
   d="M35.4,34.9l0.5-24.1c0.3,0.3,0.5,1.1,0.5,1.1l0,23.8c0,0,0,0.6-0.5,1.3c-0.6,0.7-1.5,0.8-1.5,0.8l-21.3,0l20.5-1c0.8,0,1.3-0.4,1.5-0.6c0.1-0.2,0.4-0.7,0.4-1.3z"
   style="fill:#BEBEBE;stroke:none;" />

		<path
   id="path6618"
   d="M8.5,13.9c-2.2,0-4,1.8-4,4v23.4c0,2.2,1.8,4,4,4h20.9c2.2,0,4-1.8,4-4V17.9c0-2.2-1.8-4-4-4H8.5z"
   style="fill:#000000;stroke:none;" />

		<linearGradient
   y2="42.4771"
   x2="26.2334"
   y1="17.2373"
   x1="11.7041"
   gradientUnits="userSpaceOnUse"
   id="aigrd9">
			<stop
   id="stop6621"
   style="stop-color:#F0F0F0"
   offset="0" />

			<stop
   id="stop6623"
   style="stop-color:#D6D6D6"
   offset="1" />

		</linearGradient>

		<path
   id="path6625"
   d="M31.4,41.3c0,1.2-1,2.2-2.2,2.2H8.3c-1.2,0-2.2-1-2.2-2.2V17.9c0-1.2,1-2.2,2.2-2.2h20.9c1.2,0,2.2,1,2.2,2.2v23.4z"
   style="fill:url(#aigrd9);stroke:none;" />

		<g
   id="g6627">
			<radialGradient
   gradientUnits="userSpaceOnUse"
   fy="34.5752"
   fx="8.3296"
   r="0.9493"
   cy="34.5752"
   cx="8.3296"
   id="aigrd10">
				<stop
   id="stop6630"
   style="stop-color:#F0F0F0"
   offset="0" />

				<stop
   id="stop6632"
   style="stop-color:#474747"
   offset="1" />

			</radialGradient>

			<path
   id="path6634"
   d="M8.8,34.3c0,0.4-0.3,0.6-0.6,0.6c-0.4,0-0.6-0.3-0.6-0.6c0-0.4,0.3-0.6,0.6-0.6c0.4,0,0.6,0.3,0.6,0.6z"
   style="fill:url(#aigrd10);stroke:none;" />

			<radialGradient
   gradientUnits="userSpaceOnUse"
   fy="25.5449"
   fx="8.3296"
   r="0.9503"
   cy="25.5449"
   cx="8.3296"
   id="aigrd11">
				<stop
   id="stop6637"
   style="stop-color:#F0F0F0"
   offset="0" />

				<stop
   id="stop6639"
   style="stop-color:#474747"
   offset="1" />

			</radialGradient>

			<path
   id="path6641"
   d="M8.8,25.3c0,0.4-0.3,0.6-0.6,0.6c-0.4,0-0.6-0.3-0.6-0.6s0.3-0.6,0.6-0.6c0.4,0,0.6,0.3,0.6,0.6z"
   style="fill:url(#aigrd11);stroke:none;" />

		</g>

		<path
   id="path6643"
   d="M10.3,43.5H10V16.2h0.3v27.3z"
   style="stroke:none;" />

		<linearGradient
   y2="42.4594"
   x2="9.6803"
   y1="16.9253"
   x1="10.0024"
   gradientUnits="userSpaceOnUse"
   id="aigrd12">
			<stop
   id="stop6646"
   style="stop-color:#EDEDED"
   offset="0" />

			<stop
   id="stop6648"
   style="stop-color:#CACACA"
   offset="1" />

		</linearGradient>

		<path
   id="path6650"
   d="M10,43.5H9.7V16.2H10v27.3z"
   style="fill:url(#aigrd12);stroke:none;" />

		<path
   id="path6652"
   d="M7.2,18.6L6.7,42.7c-0.3-0.3-0.5-1.1-0.5-1.1l0-23.8c0,0,0-0.6,0.5-1.3c0.6-0.7,1.5-0.8,1.5-0.8l21.3,0l-20.5,1c-0.8,0-1.3,0.4-1.5,0.6c-0.1,0.2-0.4,0.7-0.4,1.3z"
   style="stroke:none;" />

		<path
   id="path6654"
   d="M30.6,40.6L31,16.5c0.3,0.3,0.5,1.1,0.5,1.1l0,23.8c0,0,0,0.6-0.5,1.3c-0.6,0.7-1.5,0.8-1.5,0.8l-21.3,0l20.5-1c0.8,0,1.3-0.4,1.5-0.6c0.1-0.2,0.4-0.7,0.4-1.3z"
   style="fill:#BEBEBE;stroke:none;" />

	</g>

</svg>
