<?xml version="1.0" standalone="no"?>
<!--Generator: Adobe Illustrator 9.0, SVG Export Plug-In-->
<svg xmlns="http://www.w3.org/2000/svg" xmlns:xlink="http://www.w3.org/1999/xlink" viewBox="0 0 36.000000 36.000000">
  <metadata/>
  <defs>
    <linearGradient id="g">
      <stop offset="0" stop-color="#000" stop-opacity="1"/>
      <stop offset="1" stop-color="#000" stop-opacity="0"/>
    </linearGradient>
    <linearGradient y2="25.8145" x2="24.3907" y1="19.1899" x1="18.6235" gradientUnits="userSpaceOnUse" id="f">
      <stop offset="0" stop-color="#959595"/>
      <stop offset="1" stop-color="#5b5b5b"/>
    </linearGradient>
    <radialGradient gradientUnits="userSpaceOnUse" fy="12.3457" fx="13.5024" r="10.8808" cy="12.3457" cx="13.5024" id="e">
      <stop offset="0" stop-color="#454545"/>
      <stop offset="1" stop-color="#333"/>
    </radialGradient>
    <radialGradient gradientUnits="userSpaceOnUse" fy="29.0337" fx="23.1567" r="26.966" cy="29.0337" cx="23.1567" id="d">
      <stop offset="0" stop-color="#767676"/>
      <stop offset="1" stop-color="#484848"/>
    </radialGradient>
    <radialGradient gradientUnits="userSpaceOnUse" fy="22.6138" fx="9.3418" r="14.1515" cy="22.6138" cx="9.3418" id="c">
      <stop offset="0" stop-color="#767676"/>
      <stop offset="1" stop-color="#484848"/>
    </radialGradient>
    <radialGradient gradientUnits="userSpaceOnUse" fy="24.5933" fx="31.3135" r="14.4316" cy="24.5933" cx="31.3135" id="b">
      <stop offset="0" stop-color="#767676"/>
      <stop offset="1" stop-color="#484848"/>
    </radialGradient>
    <linearGradient y2="28.3922" x2="26.5278" y1="-3.2012" x1="-1.2432" gradientUnits="userSpaceOnUse" id="a">
      <stop offset="0" stop-color="#fff"/>
      <stop offset="1" stop-color="#959595"/>
    </linearGradient>
    <linearGradient gradientTransform="matrix(0.729727,0.000000,0.000000,0.729727,1.531706,3.849733)" xlink:href="#a" id="o" gradientUnits="userSpaceOnUse" x1="-1.2432" y1="-3.2012" x2="26.5278" y2="28.3922"/>
    <radialGradient gradientTransform="matrix(0.729727,0.000000,0.000000,0.729727,1.531706,3.849733)" xlink:href="#b" id="n" gradientUnits="userSpaceOnUse" cx="31.3135" cy="24.5933" fx="31.3135" fy="24.5933" r="14.4316"/>
    <radialGradient gradientTransform="matrix(0.729727,0.000000,0.000000,0.729727,1.531706,3.849733)" xlink:href="#c" id="m" gradientUnits="userSpaceOnUse" cx="9.3418" cy="22.6138" fx="9.3418" fy="22.6138" r="14.1515"/>
    <radialGradient gradientTransform="matrix(0.729727,0.000000,0.000000,0.729727,1.531706,3.849733)" xlink:href="#d" id="l" gradientUnits="userSpaceOnUse" cx="23.1567" cy="29.0337" fx="23.1567" fy="29.0337" r="26.966"/>
    <radialGradient gradientTransform="matrix(0.729727,0.000000,0.000000,0.729727,1.531706,3.849733)" xlink:href="#e" id="k" gradientUnits="userSpaceOnUse" cx="13.5024" cy="12.3457" fx="13.5024" fy="12.3457" r="10.8808"/>
    <linearGradient gradientTransform="matrix(0.729727,0.000000,0.000000,0.729727,1.531706,3.849733)" xlink:href="#f" id="j" gradientUnits="userSpaceOnUse" x1="18.6235" y1="19.1899" x2="24.3907" y2="25.8145"/>
    <linearGradient xlink:href="#f" gradientUnits="userSpaceOnUse" x1="18.6235" y1="19.1899" x2="24.3907" y2="25.8145" gradientTransform="translate(-42.39510,-13.57314)"/>
    <radialGradient xlink:href="#e" gradientUnits="userSpaceOnUse" cx="13.5024" cy="12.3457" fx="13.5024" fy="12.3457" r="10.8808" gradientTransform="translate(-42.39510,-13.57314)"/>
    <radialGradient xlink:href="#d" gradientUnits="userSpaceOnUse" cx="23.1567" cy="29.0337" fx="23.1567" fy="29.0337" r="26.966" gradientTransform="translate(-42.39510,-13.57314)"/>
    <radialGradient xlink:href="#c" gradientUnits="userSpaceOnUse" cx="9.3418" cy="22.6138" fx="9.3418" fy="22.6138" r="14.1515" gradientTransform="translate(-42.39510,-13.57314)"/>
    <radialGradient xlink:href="#b" gradientUnits="userSpaceOnUse" cx="31.3135" cy="24.5933" fx="31.3135" fy="24.5933" r="14.4316" gradientTransform="translate(-42.39510,-13.57314)"/>
    <linearGradient xlink:href="#a" gradientUnits="userSpaceOnUse" x1="-1.2432" y1="-3.2012" x2="26.5278" y2="28.3922" gradientTransform="translate(-42.39510,-13.57314)"/>
    <linearGradient xlink:href="#f" id="i" gradientUnits="userSpaceOnUse" gradientTransform="matrix(0.691720,0.000000,0.000000,0.691720,3.637546,2.423695)" x1="18.6235" y1="19.1899" x2="24.3907" y2="25.8145"/>
    <radialGradient gradientUnits="userSpaceOnUse" r="7.4104026" fy="47.606223" fx="8.6628649" cy="47.606223" cx="8.6628649" gradientTransform="scale(1.796461,0.556650)" id="h" xlink:href="#g"/>
  </defs>
  <path d="M 28.875002 26.500000 A 13.312501 4.1250000 0 1 1  2.2500000,26.500000 A 13.312501 4.1250000 0 1 1  28.875002 26.500000 z" style="marker:none" overflow="visible" display="inline" visibility="visible" marker-end="none" marker-mid="none" marker-start="none" stroke-opacity="1" stroke-dashoffset="0" stroke-miterlimit="10" stroke-linejoin="miter" stroke-linecap="butt" stroke-width="2" stroke="none" fill-rule="evenodd" fill-opacity="1" fill="url(#h)" color="#000" opacity=".63687151"/>
  <path d="M 14.416358,5.0898560 C 13.824737,5.1353213 13.211738,5.2499114 12.600591,5.4141000 C 8.2952001,6.5816636 4.3569538,10.511787 3.2623625,14.817178 C 2.4306555,18.095084 3.3472210,21.140400 5.5969194,22.815196 C 6.2212554,23.894165 7.5303966,25.472945 10.738409,25.650000 C 13.068556,25.778606 15.233738,25.189115 16.621217,24.501266 C 19.127374,24.811993 21.625180,24.944197 22.522459,25.841474 C 23.374980,26.661208 23.420785,27.791698 23.257410,28.802903 C 23.256158,28.809676 23.258683,28.817767 23.257410,28.824519 C 23.192077,29.073579 23.164317,29.341560 23.084481,29.559472 C 22.958367,29.956066 22.887557,30.129859 22.781853,30.359274 C 22.776148,30.371517 22.765683,30.390994 22.760237,30.402508 C 22.634607,30.644328 22.457610,31.029379 22.457610,31.029379 C 22.457610,31.029379 22.563379,31.008554 22.565690,31.007763 C 22.563723,31.011385 22.522459,31.094228 22.522459,31.094228 C 22.522459,31.094228 30.565610,28.326776 33.849383,30.661903 C 33.778096,29.743215 33.639867,28.942606 33.481906,28.219265 C 32.321554,21.943507 27.463579,22.222789 18.999006,23.096208 C 19.567067,22.636265 20.130558,22.117399 20.641843,21.539838 C 23.935832,17.879849 24.896605,11.068542 20.916711,8.1161348 L 20.419536,7.5108779 C 19.093573,5.8966621 16.782841,4.9079942 14.416358,5.0898560 z M 9.9417890,8.3755291 C 10.188373,8.4254698 10.390471,8.5580261 10.568661,8.6997732 C 10.574168,8.7039823 10.563239,8.7171448 10.568661,8.7213895 C 9.0064375,9.7570904 7.6392049,11.115278 6.5912680,12.677166 C 5.7573212,11.214854 7.9463626,8.4748102 9.8120920,8.5268426 C 9.6574350,8.4951856 9.5841407,8.3876381 9.4013831,8.3971454 C 9.5847121,8.3857626 9.7808784,8.3429388 9.9417890,8.3755291 z M 9.0339054,8.3971454 C 9.1276755,8.3763077 9.2035438,8.4070379 9.2933021,8.3971454 C 9.1476077,8.4125400 8.9766205,8.4798489 8.8177434,8.5268426 C 8.8970790,8.5020053 8.9533036,8.4150572 9.0339054,8.3971454 z M 18.631530,8.4187616 C 18.680835,8.4253897 18.713391,8.4527764 18.761227,8.4619939 C 18.766886,8.5462156 18.808923,8.6105218 18.804460,8.6997732 C 18.788355,9.0379641 18.689997,9.3692641 18.545065,9.6941208 C 18.447320,9.9177210 18.286568,10.115354 18.134356,10.320993 C 18.055025,10.429980 17.988075,10.542840 17.896577,10.645237 C 17.796447,10.570316 17.722888,10.472973 17.615566,10.407458 C 17.249795,9.8965340 16.790429,9.4821076 16.232125,9.1969471 C 16.640728,8.9253979 17.008206,8.5973391 17.485868,8.4836101 C 17.887218,8.3923940 18.283770,8.3720129 18.631530,8.4187616 z M 7.3046048,9.4131102 C 7.1107240,9.5997882 7.0175921,9.9001450 6.8506624,10.148063 C 7.0118617,9.8978600 7.0891145,9.6275357 7.3046048,9.4131102 z M 8.8825920,10.991097 C 8.8245352,11.049668 8.7877416,11.125488 8.7312786,11.185643 C 8.7910941,11.120744 8.8190109,11.052408 8.8825920,10.991097 z M 6.4615696,12.547470 C 6.4971705,12.605377 6.5244769,12.665911 6.5696518,12.720399 C 6.5640696,12.728781 6.5535978,12.733624 6.5480355,12.742016 C 6.5033408,12.688911 6.4982240,12.607664 6.4615696,12.547470 z M 18.091123,17.994769 C 18.060437,18.072464 18.062070,18.156758 18.026274,18.232548 C 17.606182,19.061600 16.848543,19.715408 15.972730,20.113163 C 16.811849,19.526174 17.511838,18.832943 18.091123,17.994769 z M 7.0019769,18.232548 C 7.2858377,18.822672 7.6987708,19.300299 8.2341037,19.680838 C 8.2804714,19.757627 8.3341343,19.823873 8.3854183,19.897000 C 7.8311590,20.422916 7.2293313,20.882610 6.5696518,20.956198 C 6.3960461,20.961356 6.2693127,20.880736 6.1157093,20.848116 C 6.0689618,20.500356 6.0893429,20.103805 6.1805590,19.702454 C 6.3122488,19.149359 6.6643017,18.696154 7.0019769,18.232548 z M 19.777192,18.967501 C 19.450420,20.475088 18.159613,21.737626 16.642833,22.015395 C 17.484182,21.428768 18.287480,20.768415 19.020623,19.940233 C 19.303670,19.625736 19.534993,19.294600 19.777192,18.967501 z M 18.804460,23.225907 C 18.862663,23.236062 18.898920,23.258394 18.955775,23.269139 C 18.933372,23.269800 18.913340,23.268529 18.890926,23.269139 C 18.844872,23.268444 18.807641,23.269635 18.761227,23.269139 C 18.777546,23.256532 18.788177,23.238607 18.804460,23.225907 z " fill="url(#i)" fill-rule="nonzero" stroke="#000" stroke-width="3" stroke-linecap="round" stroke-linejoin="miter" stroke-miterlimit="4" stroke-opacity="1"/>
  <path d="M 13.645173,6.7686411 C 9.3397842,7.8632318 5.3992580,11.876730 4.3046682,16.182119 C 3.0641322,21.071289 5.6181766,25.522623 10.872212,25.522623 C 17.147863,25.522623 23.058651,19.611836 23.058651,13.336184 C 23.058651,8.0091768 18.534344,5.4551327 13.645173,6.7686411 z M 10.945184,18.955081 C 10.653293,20.706427 9.1208655,22.165880 7.5884397,22.311825 C 6.1289853,22.384799 5.3262855,21.071289 5.6911491,19.465891 C 6.0560127,17.933464 7.3695211,16.546983 8.7560019,16.401037 C 10.215456,16.182119 11.164102,17.349682 10.945184,18.955081 L 10.945184,18.955081 z M 12.112748,11.584839 C 11.893829,12.971320 10.507348,14.357801 9.1208655,14.576720 C 7.8073572,14.795637 7.0046575,13.846992 7.2965486,12.533484 C 7.5884397,11.292948 8.8289755,10.052412 10.069511,9.7605213 C 11.383020,9.4686313 12.331665,10.271331 12.112748,11.584839 L 12.112748,11.584839 z M 19.410016,18.152382 C 19.337044,20.049672 17.585699,21.801016 15.688408,21.873989 C 13.864092,21.946962 12.623556,20.560480 12.915446,18.736163 C 13.134364,17.057791 14.666791,15.525364 16.345163,15.306446 C 18.096508,15.087529 19.555961,16.255092 19.482989,18.079409 L 19.410016,18.152382 z M 19.847853,10.052412 C 19.774880,11.584839 18.242453,13.117265 16.491109,13.409157 C 14.812736,13.701048 13.718146,12.679429 13.937065,11.292948 C 14.155981,9.9064674 15.469492,8.5929579 17.001917,8.2280954 C 18.607316,7.8632318 19.920825,8.6659315 19.847853,10.125385 L 19.847853,10.052412 z " fill="url(#j)" fill-rule="nonzero" stroke="none" stroke-miterlimit="4"/>
  <path d="M 19.045153,13.774020 C 19.045153,17.641573 15.323545,21.363180 11.383020,21.363180 C 8.0992483,21.363180 6.4938488,18.590217 7.2965486,15.525364 C 8.0262759,12.825375 10.434374,10.344304 13.134364,9.6875487 C 16.199217,8.8848490 19.045153,10.490249 19.045153,13.774020 z " fill="url(#k)" fill-rule="nonzero" stroke="none" stroke-miterlimit="4"/>
  <path d="M 17.950563,12.679429 C 17.950563,16.546983 14.228955,20.268590 10.288429,20.268590 C 7.0046575,20.268590 5.3992580,17.495628 6.2019577,14.430775 C 6.9316849,11.730784 9.3397842,9.2497126 12.039774,8.5929579 C 15.104628,7.7902593 17.950563,9.3956577 17.950563,12.679429 z " fill="url(#l)" fill-rule="nonzero" stroke="none" stroke-miterlimit="4"/>
  <path d="M 21.453251,8.5929579 C 24.007296,11.147003 24.080269,16.911845 20.139743,21.290207 C 16.199217,25.741542 10.288429,26.690187 6.7857400,24.282088 C 16.637054,28.952340 26.780259,15.744283 21.453251,8.5199855 L 21.453251,8.5929579 z " fill="#3b3b3b" fill-rule="nonzero" stroke="none" stroke-miterlimit="4"/>
  <path d="M 33.347801,30.411795 C 30.064030,28.076668 22.037033,30.849631 22.037033,30.849631 C 22.037033,30.849631 23.934324,27.419914 22.037033,25.595596 C 20.139743,23.698307 11.091129,25.303707 9.9235653,21.144262 C 19.774880,27.200995 32.253211,15.817255 33.347801,30.484767 L 33.347801,30.411795 z " fill="url(#m)" fill-rule="nonzero" stroke="none" stroke-miterlimit="4"/>
  <path d="M 33.274828,30.338822 C 29.991057,28.003696 21.964060,30.776658 21.964060,30.776658 C 21.964060,30.776658 26.196476,24.063170 17.950563,22.895607 C 27.801876,21.873989 32.909965,21.363180 33.274828,30.338822 z " fill="url(#n)" fill-rule="nonzero" stroke="none" stroke-miterlimit="4"/>
  <path d="M 22.839732,25.011815 C 23.861351,28.733422 22.037033,30.776658 22.037033,30.776658 C 22.037033,30.776658 23.715405,27.784778 22.401897,25.230733 C 20.796497,22.165880 13.645173,25.011815 9.9235653,21.071289 C 13.791120,24.938843 21.745143,20.925344 22.839732,25.011815 L 22.839732,25.011815 z " fill="#9f9f9f" fill-rule="nonzero" stroke="none" stroke-miterlimit="4"/>
  <path d="M 12.112748,5.1632419 C 7.8073572,6.3308050 3.8668318,10.271331 2.7722414,14.576720 C 1.5317056,19.465891 4.0857497,23.917225 9.3397842,23.917225 C 15.615436,23.917225 21.526224,18.006437 21.526224,11.730784 C 21.526224,6.4037776 17.001917,3.8497333 12.112748,5.1632419 L 12.112748,5.1632419 z M 9.4127567,17.422655 C 9.1208655,19.174000 7.5884397,20.633453 6.1289853,20.706427 C 4.6695319,20.779399 3.8668318,19.465891 4.2316958,17.860491 C 4.5965583,16.328064 5.9100677,14.941584 7.2965486,14.795637 C 8.7560019,14.576720 9.7046478,15.744283 9.4857292,17.349682 L 9.4127567,17.422655 z M 10.580321,9.9794399 C 10.361401,11.365921 8.9749205,12.752401 7.5884397,12.971320 C 6.2749314,13.190239 5.4722316,12.241593 5.7641216,10.928084 C 6.0560127,9.6875487 7.2235761,8.4470129 8.5370844,8.1551218 C 9.8505928,7.8632318 10.799238,8.6659315 10.580321,9.9794399 L 10.580321,9.9794399 z M 17.877589,16.619956 C 17.804617,18.517244 16.053272,20.268590 14.155981,20.341563 C 12.331665,20.414535 11.091129,19.028055 11.383020,17.203736 C 11.601937,15.525364 13.134364,13.992937 14.812736,13.774020 C 16.564081,13.555102 18.023536,14.722665 17.950563,16.546983 L 17.877589,16.619956 z M 18.315426,8.4470129 C 18.242453,9.9794399 16.710027,11.511867 14.958682,11.803757 C 13.280309,12.095648 12.185720,11.074029 12.404638,9.6875487 C 12.550584,8.2280954 13.937065,6.9145865 15.469492,6.5497230 C 17.074889,6.1848596 18.388399,6.9875591 18.315426,8.4470129 L 18.315426,8.4470129 z " fill="url(#o)" fill-rule="nonzero" stroke="none" stroke-miterlimit="4"/>
  <path d="M 17.001917,14.430775 C 15.907327,13.482129 13.937065,13.555102 12.623556,14.868611 C 11.237074,16.255092 10.580321,18.517244 12.331665,19.830753 C 9.7046478,16.546983 14.228955,12.752401 17.001917,14.430775 L 17.001917,14.430775 z " fill="#3b3b3b" fill-rule="nonzero" stroke="none" stroke-miterlimit="4"/>
  <path d="M 12.331665,19.830753 C 15.907327,22.238853 19.993797,16.546983 17.001917,14.430775 C 19.774880,17.276709 15.542463,21.655071 12.331665,19.830753 L 12.331665,19.830753 z " fill="#e6e6e6" fill-rule="nonzero" stroke="none" stroke-miterlimit="4"/>
  <path d="M 10.142484,8.5199855 C 9.6316753,8.0091768 8.3181658,7.7902593 6.8587125,9.1037676 C 5.9100677,9.9794399 5.0343955,11.803757 6.2749314,12.752401 C 4.6695319,11.219976 8.0992483,7.2794499 10.142484,8.5199855 z " fill="#545454" fill-rule="nonzero" stroke="none" stroke-miterlimit="4"/>
  <path d="M 6.2019577,12.679429 C 6.7127675,13.190239 8.0262759,13.409157 9.4857292,12.095648 C 10.434374,11.219976 11.310047,9.3956577 10.069511,8.4470129 C 11.601937,9.9794399 8.2451933,13.919965 6.1289853,12.679429 L 6.2019577,12.679429 z " fill="#e6e6e6" fill-rule="nonzero" stroke="none" stroke-miterlimit="4"/>
  <path d="M 8.6830294,15.160501 C 8.1722208,14.649692 6.7857400,14.503747 5.3992580,15.744283 C 3.8668318,17.203736 3.6479138,19.465891 4.8884493,20.341563 C 3.1371049,18.079409 6.3479038,14.065911 8.6830294,15.087529 L 8.6830294,15.160501 z " fill="#454545" fill-rule="nonzero" stroke="none" stroke-miterlimit="4"/>
  <path d="M 5.0343955,20.487508 C 5.5452041,20.998317 6.9316849,21.144262 8.3181658,19.903726 C 9.8505928,18.444272 10.069511,16.182119 8.8289755,15.306446 C 10.580321,17.568600 7.3695211,21.582099 5.0343955,20.560480 L 5.0343955,20.487508 z " fill="#e6e6e6" fill-rule="nonzero" stroke="none" stroke-miterlimit="4"/>
  <path d="M 17.512725,6.7686411 C 17.001917,6.2578322 15.031655,6.1848596 13.572201,7.4983680 C 12.258693,8.7389041 11.893829,10.271331 12.988419,11.292948 C 11.091129,8.8118765 15.177600,5.6740507 17.439753,6.6956683 L 17.512725,6.7686411 z " fill="#545454" fill-rule="nonzero" stroke="none" stroke-miterlimit="4"/>
  <path d="M 13.353283,11.657812 C 13.864092,12.168621 15.834353,12.241593 17.293808,10.928084 C 18.607316,9.6875487 18.972180,8.1551218 17.877589,7.1335046 C 19.774880,9.6145763 15.688408,12.752401 13.426256,11.730784 L 13.353283,11.657812 z " fill="#e6e6e6" fill-rule="nonzero" stroke="none" stroke-miterlimit="4"/>
  <path d="M 19.847853,6.9875591 C 22.401897,9.5416037 22.474869,15.306446 18.534344,19.684808 C 14.593818,24.136142 8.6830294,25.084788 5.1803405,22.676688 C 15.031655,27.346942 25.174859,14.138883 19.847853,6.9145865 L 19.847853,6.9875591 z " fill="#3b3b3b" fill-rule="nonzero" stroke="none" stroke-miterlimit="4"/>
</svg>
