<?xml version="1.0" encoding="UTF-8" standalone="no"?>
<!-- Generator: Adobe Illustrator 9.0, SVG Export Plug-In  -->
<svg
   xmlns:xml="http://www.w3.org/XML/1998/namespace"
   xmlns:dc="http://purl.org/dc/elements/1.1/"
   xmlns:cc="http://web.resource.org/cc/"
   xmlns:rdf="http://www.w3.org/1999/02/22-rdf-syntax-ns#"
   xmlns:svg="http://www.w3.org/2000/svg"
   xmlns="http://www.w3.org/2000/svg"
   xmlns:xlink="http://www.w3.org/1999/xlink"
   xmlns:sodipodi="http://inkscape.sourceforge.net/DTD/sodipodi-0.dtd"
   xmlns:inkscape="http://www.inkscape.org/namespaces/inkscape"
   sodipodi:docbase="/home/jimmac/.icons/Gorilla/scalable/emblems"
   sodipodi:docname="emblem-sound.svg"
   inkscape:version="0.41+cvs"
   sodipodi:version="0.32"
   id="svg23449"
   xml:space="preserve"
   viewBox="0 0 48 48"
   height="36.000000px"
   width="36.000000px"><metadata
   id="metadata23573">
  <rdf:RDF
     id="RDF23575">
    <cc:Work
       id="Work23577"
       rdf:about="">
      <dc:format
         id="format23579">image/svg+xml</dc:format>
      <dc:type
         rdf:resource="http://purl.org/dc/dcmitype/StillImage"
         id="type23581" />
      <dc:title
         id="title23583">Sound</dc:title>
      <dc:creator
         id="creator23662">
        <cc:Agent
           id="Agent23664">
          <dc:title
             id="title23666">Jakub Steiner</dc:title>
        </cc:Agent>
      </dc:creator>
      <dc:source
         id="source23668">http://jimmac.musichall.cz</dc:source>
      <cc:license
         rdf:resource="http://creativecommons.org/licenses/GPL/2.0/"
         id="license23670" />
    </cc:Work>
    <cc:License
       id="License23672"
       rdf:about="http://creativecommons.org/licenses/GPL/2.0/">
      <cc:permits
         id="permits23674"
         rdf:resource="http://web.resource.org/cc/Reproduction" />
      <cc:permits
         id="permits23676"
         rdf:resource="http://web.resource.org/cc/Distribution" />
      <cc:requires
         id="requires23678"
         rdf:resource="http://web.resource.org/cc/Notice" />
      <cc:permits
         id="permits23680"
         rdf:resource="http://web.resource.org/cc/DerivativeWorks" />
      <cc:requires
         id="requires23682"
         rdf:resource="http://web.resource.org/cc/ShareAlike" />
      <cc:requires
         id="requires23684"
         rdf:resource="http://web.resource.org/cc/SourceCode" />
    </cc:License>
  </rdf:RDF>
</metadata>
<defs
   id="defs23571"><linearGradient
   y2="47.3746"
   x2="39.7716"
   y1="0.8105"
   x1="9.458"
   gradientUnits="userSpaceOnUse"
   id="linearGradient23585"
   xlink:href="#aigrd1"
   inkscape:collect="always" />
<linearGradient
   y2="23.2692"
   x2="29.4494"
   y1="8.8682"
   x1="20.0742"
   gradientUnits="userSpaceOnUse"
   id="linearGradient23587"
   xlink:href="#aigrd2"
   inkscape:collect="always" />
<linearGradient
   y2="45.1442"
   x2="29.4494"
   y1="30.7432"
   x1="20.0742"
   gradientUnits="userSpaceOnUse"
   id="linearGradient23589"
   xlink:href="#aigrd3"
   inkscape:collect="always" />
<linearGradient
   y2="39.3874"
   x2="29.4494"
   y1="24.9863"
   x1="20.0742"
   gradientUnits="userSpaceOnUse"
   id="linearGradient23591"
   xlink:href="#aigrd4"
   inkscape:collect="always" />
<linearGradient
   y2="34.0153"
   x2="29.4494"
   y1="19.6143"
   x1="20.0742"
   gradientUnits="userSpaceOnUse"
   id="linearGradient23593"
   xlink:href="#aigrd5"
   inkscape:collect="always" />
<linearGradient
   y2="29.0256"
   x2="29.4494"
   y1="14.6245"
   x1="20.0742"
   gradientUnits="userSpaceOnUse"
   id="linearGradient23595"
   xlink:href="#aigrd6"
   inkscape:collect="always" />
<linearGradient
   y2="17.8962"
   x2="29.4494"
   y1="3.4951"
   x1="20.0742"
   gradientUnits="userSpaceOnUse"
   id="linearGradient23597"
   xlink:href="#aigrd7"
   inkscape:collect="always" />

		<linearGradient
   id="aigrd1"
   gradientUnits="userSpaceOnUse"
   x1="9.4580002"
   y1="0.81050003"
   x2="39.771599"
   y2="47.374599"
   style="stroke-dasharray:none;stroke-miterlimit:4.0000000;stroke-width:1.3333333">
			<stop
   offset="0"
   style="stop-color:#FFFFFF;stroke-dasharray:none;stroke-miterlimit:4.0000000;stroke-width:1.3333333"
   id="stop23453" />

			<stop
   offset="1"
   style="stop-color:#EFEFEF;stroke-dasharray:none;stroke-miterlimit:4.0000000;stroke-width:1.3333333"
   id="stop23455" />

		</linearGradient>

		
		
		
		
		
		
		
		
	<linearGradient
   gradientTransform="matrix(1.065789,0.000000,0.000000,1.065789,-1.634868,-1.611842)"
   y2="47.3746"
   x2="39.7716"
   y1="0.8105"
   x1="9.458"
   gradientUnits="userSpaceOnUse"
   id="linearGradient23660"
   xlink:href="#aigrd1"
   inkscape:collect="always" />
</defs>
<sodipodi:namedview
   inkscape:current-layer="svg23449"
   inkscape:window-y="78"
   inkscape:window-x="11"
   inkscape:cy="21.798070"
   inkscape:cx="25.129969"
   inkscape:zoom="5.6568542"
   id="base"
   pagecolor="#ffffff"
   bordercolor="#666666"
   borderopacity="1.0"
   inkscape:pageopacity="0.0"
   inkscape:pageshadow="2"
   inkscape:window-width="719"
   inkscape:window-height="583" />

	<path
   style="fill:url(#linearGradient23660);fill-rule:nonzero;stroke:#000000;stroke-width:1.4210519;stroke-linejoin:round;stroke-miterlimit:4.0000000"
   d="M 39.504587,45.389453 L 10.195390,45.389453 L 10.195390,3.6105241 L 39.504587,3.6105241 L 39.504587,45.282874 L 39.504587,45.389453 z "
   id="path23457" />
<g
   style="stroke-miterlimit:4.0000000;stroke-linejoin:round;stroke-width:1.3333333;stroke:#ffffff;fill-rule:nonzero;fill:none"
   transform="matrix(1.065789,0.000000,0.000000,1.065789,-1.634868,-1.611842)"
   id="g23459">
			<path
   d="M 37.700000,16.600000 L 11.300000,16.600000"
   id="path23461" />

			<linearGradient
   id="aigrd2"
   gradientUnits="userSpaceOnUse"
   x1="20.074200"
   y1="8.8682003"
   x2="29.449400"
   y2="23.269199"
   style="stroke-dasharray:none;stroke-miterlimit:4.0000000;stroke-width:1.3333333">
				<stop
   offset="0"
   style="stop-color:#FFFFFF;stroke-dasharray:none;stroke-miterlimit:4.0000000;stroke-width:1.3333333"
   id="stop23464" />

				<stop
   offset="1"
   style="stop-color:#EFEFEF;stroke-dasharray:none;stroke-miterlimit:4.0000000;stroke-width:1.3333333"
   id="stop23466" />

			</linearGradient>

			<path
   style="opacity:0.089999981;fill:url(#linearGradient23587);stroke:#000000"
   d="M 38.400000,16.200000 L 11.300000,16.200000"
   id="path23468" />

			<path
   d="M 37.700000,38.500000 L 11.900000,38.500000"
   id="path23470" />

			<linearGradient
   id="aigrd3"
   gradientUnits="userSpaceOnUse"
   x1="20.074200"
   y1="30.743200"
   x2="29.449400"
   y2="45.144199"
   style="stroke-dasharray:none;stroke-miterlimit:4.0000000;stroke-width:1.3333333">
				<stop
   offset="0"
   style="stop-color:#FFFFFF;stroke-dasharray:none;stroke-miterlimit:4.0000000;stroke-width:1.3333333"
   id="stop23473" />

				<stop
   offset="1"
   style="stop-color:#EFEFEF;stroke-dasharray:none;stroke-miterlimit:4.0000000;stroke-width:1.3333333"
   id="stop23475" />

			</linearGradient>

			<path
   style="opacity:0.089999981;fill:url(#linearGradient23589);stroke:#000000"
   d="M 38.400000,38.100000 L 11.300000,38.100000"
   id="path23477" />

			<path
   d="M 37.700000,32.700000 L 11.900000,32.700000"
   id="path23479" />

			<linearGradient
   id="aigrd4"
   gradientUnits="userSpaceOnUse"
   x1="20.074200"
   y1="24.986300"
   x2="29.449400"
   y2="39.387402"
   style="stroke-dasharray:none;stroke-miterlimit:4.0000000;stroke-width:1.3333333">
				<stop
   offset="0"
   style="stop-color:#FFFFFF;stroke-dasharray:none;stroke-miterlimit:4.0000000;stroke-width:1.3333333"
   id="stop23482" />

				<stop
   offset="1"
   style="stop-color:#EFEFEF;stroke-dasharray:none;stroke-miterlimit:4.0000000;stroke-width:1.3333333"
   id="stop23484" />

			</linearGradient>

			<path
   style="opacity:0.089999981;fill:url(#linearGradient23591);stroke:#000000"
   d="M 38.400000,32.300000 L 11.300000,32.300000"
   id="path23486" />

			<path
   d="M 37.700000,27.300000 L 11.900000,27.300000"
   id="path23488" />

			<linearGradient
   id="aigrd5"
   gradientUnits="userSpaceOnUse"
   x1="20.074200"
   y1="19.614300"
   x2="29.449400"
   y2="34.015301"
   style="stroke-dasharray:none;stroke-miterlimit:4.0000000;stroke-width:1.3333333">
				<stop
   offset="0"
   style="stop-color:#FFFFFF;stroke-dasharray:none;stroke-miterlimit:4.0000000;stroke-width:1.3333333"
   id="stop23491" />

				<stop
   offset="1"
   style="stop-color:#EFEFEF;stroke-dasharray:none;stroke-miterlimit:4.0000000;stroke-width:1.3333333"
   id="stop23493" />

			</linearGradient>

			<path
   style="opacity:0.089999981;fill:url(#linearGradient23593);stroke:#000000"
   d="M 38.400000,26.900000 L 11.300000,26.900000"
   id="path23495" />

			<path
   d="M 37.700000,22.300000 L 11.900000,22.300000"
   id="path23497" />

			<linearGradient
   id="aigrd6"
   gradientUnits="userSpaceOnUse"
   x1="20.074200"
   y1="14.624500"
   x2="29.449400"
   y2="29.025600"
   style="stroke-dasharray:none;stroke-miterlimit:4.0000000;stroke-width:1.3333333">
				<stop
   offset="0"
   style="stop-color:#FFFFFF;stroke-dasharray:none;stroke-miterlimit:4.0000000;stroke-width:1.3333333"
   id="stop23500" />

				<stop
   offset="1"
   style="stop-color:#EFEFEF;stroke-dasharray:none;stroke-miterlimit:4.0000000;stroke-width:1.3333333"
   id="stop23502" />

			</linearGradient>

			<path
   style="opacity:0.089999981;fill:url(#linearGradient23595);stroke:#000000"
   d="M 38.400000,22.000000 L 11.300000,22.000000"
   id="path23504" />

			<path
   d="M 37.700000,11.200000 L 11.900000,11.200000"
   id="path23506" />

			<linearGradient
   id="aigrd7"
   gradientUnits="userSpaceOnUse"
   x1="20.074200"
   y1="3.4951000"
   x2="29.449400"
   y2="17.896200"
   style="stroke-dasharray:none;stroke-miterlimit:4.0000000;stroke-width:1.3333333">
				<stop
   offset="0"
   style="stop-color:#FFFFFF;stroke-dasharray:none;stroke-miterlimit:4.0000000;stroke-width:1.3333333"
   id="stop23509" />

				<stop
   offset="1"
   style="stop-color:#EFEFEF;stroke-dasharray:none;stroke-miterlimit:4.0000000;stroke-width:1.3333333"
   id="stop23511" />

			</linearGradient>

			<path
   style="opacity:0.089999981;fill:url(#linearGradient23597);stroke:#000000"
   d="M 38.400000,10.800000 L 11.300000,10.800000"
   id="path23513" />

		</g>
<path
   style="fill:#cccccc;fill-rule:nonzero;stroke:none;stroke-width:1.3333333;stroke-linejoin:round;stroke-miterlimit:4.0000000"
   d="M 38.865114,4.7828920 L 38.865114,44.643401 L 10.941442,44.643401 L 37.159852,43.151296 L 38.865114,4.7828920 z "
   id="path23515" />
<g
   style="stroke-miterlimit:4.0000000;stroke-linejoin:round;stroke-width:1.3333333;stroke:#ffffff;fill-rule:nonzero;fill:none"
   transform="matrix(1.065789,0.000000,0.000000,1.065789,-1.634868,-1.611842)"
   id="g23517">
			<path
   style="fill:#000000;stroke:none"
   d="M 27.600000,41.000000 L 11.300000,41.000000 L 11.300000,36.400000 L 27.600000,36.400000 L 27.600000,41.000000 z "
   id="path23519" />

			<path
   style="fill:#585858;stroke:none"
   d="M 27.600000,36.400000 L 11.300000,36.400000 L 11.300000,41.000000 L 12.300000,39.600000 L 12.300000,37.600000 L 26.400000,37.600000 L 27.600000,36.400000 L 27.600000,36.400000 z "
   id="path23521" />

			<path
   style="fill:#888888;stroke:none"
   d="M 26.000000,37.600000 L 12.200000,37.400000 L 12.400000,39.100000 L 12.600000,37.700000 L 26.000000,37.600000 z "
   id="path23523" />

			<path
   style="fill:#3f3f3f;stroke:none"
   d="M 13.100000,39.900000 L 26.800000,39.900000 L 26.800000,38.300000 L 26.500000,39.600000 L 13.200000,39.900000 L 13.100000,39.900000 z "
   id="path23525" />

		</g>
<g
   style="stroke-miterlimit:4.0000000;stroke-linejoin:round;stroke-width:1.3333333;stroke:#ffffff;fill-rule:nonzero;fill:none"
   transform="matrix(1.065789,0.000000,0.000000,1.065789,-1.634868,-1.611842)"
   id="g23527">
			<path
   style="fill:#000000;stroke:none"
   d="M 27.600000,34.400000 L 11.300000,34.400000 L 11.300000,29.800000 L 27.600000,29.800000 L 27.600000,34.400000 z "
   id="path23529" />

			<path
   style="fill:#585858;stroke:none"
   d="M 27.600000,29.800000 L 11.300000,29.800000 L 11.300000,34.400000 L 12.300000,33.000000 L 12.300000,31.000000 L 26.400000,31.000000 L 27.600000,29.800000 L 27.600000,29.800000 z "
   id="path23531" />

			<path
   style="fill:#888888;stroke:none"
   d="M 26.000000,31.100000 L 12.200000,30.900000 L 12.400000,32.600000 L 12.600000,31.200000 L 26.000000,31.100000 z "
   id="path23533" />

			<path
   style="fill:#3f3f3f;stroke:none"
   d="M 13.100000,33.400000 L 26.800000,33.400000 L 26.800000,31.800000 L 26.500000,33.100000 L 13.200000,33.400000 L 13.100000,33.400000 z "
   id="path23535" />

		</g>
<g
   style="stroke-miterlimit:4.0000000;stroke-linejoin:round;stroke-width:1.3333333;stroke:#ffffff;fill-rule:nonzero;fill:none"
   transform="matrix(1.065789,0.000000,0.000000,1.065789,-1.634868,-1.611842)"
   id="g23537">
			<path
   style="fill:#000000;stroke:none"
   d="M 27.600000,24.100000 L 11.300000,24.100000 L 11.300000,19.500000 L 27.600000,19.500000 L 27.600000,24.100000 z "
   id="path23539" />

			<path
   style="fill:#585858;stroke:none"
   d="M 27.600000,19.500000 L 11.300000,19.500000 L 11.300000,24.100000 L 12.300000,22.700000 L 12.300000,20.700000 L 26.400000,20.700000 L 27.600000,19.500000 L 27.600000,19.500000 z "
   id="path23541" />

			<path
   style="fill:#888888;stroke:none"
   d="M 26.000000,20.700000 L 12.200000,20.500000 L 12.400000,22.200000 L 12.600000,20.800000 L 26.000000,20.700000 z "
   id="path23543" />

			<path
   style="fill:#3f3f3f;stroke:none"
   d="M 13.100000,23.100000 L 26.800000,23.100000 L 26.800000,21.500000 L 26.500000,22.800000 L 13.200000,23.100000 L 13.100000,23.100000 z "
   id="path23545" />

		</g>
<g
   style="stroke-miterlimit:4.0000000;stroke-linejoin:round;stroke-width:1.3333333;stroke:#ffffff;fill-rule:nonzero;fill:none"
   transform="matrix(1.065789,0.000000,0.000000,1.065789,-1.634868,-1.611842)"
   id="g23547">
			<path
   style="fill:#000000;stroke:none"
   d="M 27.600000,17.900000 L 11.300000,17.900000 L 11.300000,13.300000 L 27.600000,13.300000 L 27.600000,17.900000 z "
   id="path23549" />

			<path
   style="fill:#585858;stroke:none"
   d="M 27.600000,13.300000 L 11.300000,13.300000 L 11.300000,18.000000 L 12.300000,16.600000 L 12.300000,14.600000 L 26.400000,14.600000 L 27.600000,13.400000 L 27.600000,13.300000 z "
   id="path23551" />

			<path
   style="fill:#888888;stroke:none"
   d="M 26.000000,14.600000 L 12.200000,14.400000 L 12.400000,16.100000 L 12.600000,14.700000 L 26.000000,14.600000 z "
   id="path23553" />

			<path
   style="fill:#3f3f3f;stroke:none"
   d="M 13.100000,16.900000 L 26.800000,16.900000 L 26.800000,15.300000 L 26.500000,16.600000 L 13.200000,16.900000 L 13.100000,16.900000 z "
   id="path23555" />

		</g>
<g
   style="stroke-miterlimit:4.0000000;stroke-linejoin:round;stroke-width:1.3333333;stroke:#ffffff;fill-rule:nonzero;fill:none"
   transform="matrix(1.065789,0.000000,0.000000,1.065789,-1.634868,-1.611842)"
   id="g23557">
			<path
   style="fill:#000000;stroke:none"
   d="M 27.600000,11.800000 L 11.300000,11.800000 L 11.300000,7.2000000 L 27.600000,7.2000000 L 27.600000,11.800000 z "
   id="path23559" />

			<path
   style="fill:#585858;stroke:none"
   d="M 27.600000,7.2000000 L 11.300000,7.2000000 L 11.300000,11.800000 L 12.300000,10.400000 L 12.300000,8.4000000 L 26.400000,8.4000000 L 27.600000,7.2000000 L 27.600000,7.2000000 z "
   id="path23561" />

			<path
   style="fill:#888888;stroke:none"
   d="M 26.000000,8.4000000 L 12.200000,8.3000000 L 12.400000,10.000000 L 12.600000,8.6000000 L 26.000000,8.4000000 z "
   id="path23563" />

			<path
   style="fill:#3f3f3f;stroke:none"
   d="M 13.100000,10.800000 L 26.800000,10.800000 L 26.800000,9.2000000 L 26.500000,10.500000 L 13.200000,10.800000 L 13.100000,10.800000 z "
   id="path23565" />

		</g>

	
</svg>
