<?xml version="1.0" encoding="UTF-8" standalone="no"?>
<!-- Created with Inkscape (http://www.inkscape.org/) -->

<svg
   version="1.1"
   viewBox="0 0 3114.324 2308.8667"
   sodipodi:docname="svg.svg"
   inkscape:version="1.1.2 (0a00cf5339, 2022-02-04)"
   id="svg2432"
   xmlns:inkscape="http://www.inkscape.org/namespaces/inkscape"
   xmlns:sodipodi="http://sodipodi.sourceforge.net/DTD/sodipodi-0.dtd"
   xmlns="http://www.w3.org/2000/svg"
   xmlns:svg="http://www.w3.org/2000/svg">
  <defs
     id="defs6" />
  <sodipodi:namedview
     id="namedview4"
     pagecolor="#ffffff"
     bordercolor="#666666"
     borderopacity="1.0"
     inkscape:pageshadow="2"
     inkscape:pageopacity="0.0"
     inkscape:pagecheckerboard="0"
     showgrid="false"
     fit-margin-top="0"
     fit-margin-left="0"
     fit-margin-right="0"
     fit-margin-bottom="0"
     inkscape:zoom="0.2986711"
     inkscape:cx="1561.9188"
     inkscape:cy="1119.9611"
     inkscape:window-width="3440"
     inkscape:window-height="1369"
     inkscape:window-x="0"
     inkscape:window-y="34"
     inkscape:window-maximized="1"
     inkscape:current-layer="g10" />
  <g
     id="g8"
     inkscape:groupmode="layer"
     inkscape:label="ink_ext_XXXXXX"
     transform="matrix(1.3333333,0,0,-1.3333333,-294.14266,2626.6666)">
    <g
       id="g10"
       transform="scale(0.1)">
      <g
         id="g1565">
        <path
           d="m 24706.2,2820 h -382.4 c -43.5,0 -78.7,35.3 -78.7,78.8 0,43.5 35.2,78.7 78.7,78.7 h 382.4 c 43.5,0 78.7,-35.2 78.7,-78.7 0,-43.5 -35.2,-78.8 -78.7,-78.8"
           style="fill:#2e294e;fill-opacity:1;fill-rule:nonzero;stroke:none"
           id="path16" />
        <path
           d="m 23940.8,2820 h -402.6 c -43.5,0 -78.7,35.3 -78.7,78.8 0,43.5 35.2,78.7 78.7,78.7 h 402.6 c 43.5,0 78.8,-35.2 78.8,-78.7 0,-43.5 -35.3,-78.8 -78.8,-78.8"
           style="fill:#2e294e;fill-opacity:1;fill-rule:nonzero;stroke:none"
           id="path18" />
        <path
           d="m 24165.4,2710.2 h -79.6 c -117.2,0 -212.6,95.3 -212.6,212.5 v 121.7 c 0,43.5 35.3,78.8 78.8,78.8 43.4,0 78.7,-35.3 78.7,-78.8 v -121.7 c 0,-30.3 24.7,-55 55.1,-55 h 79.6 c 30.3,0 55.1,24.7 55.1,55 v 121.7 c 0,43.5 35.2,78.8 78.7,78.8 43.5,0 78.8,-35.3 78.8,-78.8 v -121.7 c 0,-117.2 -95.4,-212.5 -212.6,-212.5"
           style="fill:#2e294e;fill-opacity:1;fill-rule:nonzero;stroke:none"
           id="path20" />
        <path
           d="m 23804.3,3197.5 33.2,-9.2 c 187.5,-52 388.5,-52 576.2,0 l 33.2,9.2 c 6.2,279 218.8,508 490.8,540.2 -33.5,133.5 -154.5,232.6 -298.3,232.6 h -1027.7 c -143.7,0 -264.7,-99.1 -298.3,-232.6 272.1,-32.2 484.6,-261.2 490.9,-540.2 z m 321.3,-206 c -111.6,0 -222.7,15.2 -330.2,45 l -90.8,25.2 c -34.1,9.4 -57.6,40.5 -57.6,75.9 v 47.2 c 0,220.1 -179.2,399.3 -399.3,399.3 h -22.2 c -43.5,0 -78.8,35.2 -78.8,78.7 0,256.4 208.6,465 465,465 h 1027.7 c 256.4,0 465,-208.6 465,-465 0,-43.5 -35.2,-78.7 -78.7,-78.7 h -22.2 c -220.2,0 -399.3,-179.2 -399.3,-399.3 v -47.2 c 0,-35.4 -23.6,-66.5 -57.7,-75.9 l -90.7,-25.2 c -107.5,-29.8 -218.6,-45 -330.2,-45"
           style="fill:#2e294e;fill-opacity:1;fill-rule:nonzero;stroke:none"
           id="path22" />
        <path
           d="m 23998,4127.8 h 257.1 l -14.7,107.4 c -7.8,56.6 -56.7,99.2 -113.8,99.2 -57.1,0 -106.1,-42.6 -113.8,-99.2 z m 348.5,-157.5 c -0.3,0 -0.6,-0.1 -1,0 h -437.8 c -22.7,0 -44.4,9.8 -59.4,27 -14.9,17.1 -21.7,39.9 -18.6,62.5 l 27,196.8 c 18.5,134.2 134.5,235.3 269.9,235.3 135.4,0 251.4,-101.1 269.8,-235.3 l 25.3,-184.2 c 2.3,-7.4 3.5,-15.2 3.5,-23.4 0,-43.5 -35.2,-78.7 -78.7,-78.7"
           style="fill:#2e294e;fill-opacity:1;fill-rule:nonzero;stroke:none"
           id="path24" />
        <path
           d="m 23996.7,4295.5 c -25.5,0 -50.5,12.3 -65.7,35.1 -42.9,64.5 -118.2,108.6 -201.4,117.9 l -317.7,35.5 c -43.2,4.8 -74.3,43.8 -69.5,87 4.8,43.2 43.8,74.5 87.1,69.5 l 317.6,-35.5 c 130.8,-14.6 245.7,-82.8 315.1,-187.2 24.1,-36.2 14.2,-85.1 -22,-109.1 -13.4,-9 -28.5,-13.2 -43.5,-13.2"
           style="fill:#2e294e;fill-opacity:1;fill-rule:nonzero;stroke:none"
           id="path26" />
        <path
           d="m 24257.1,4295.5 c -15.1,0 -30.2,4.2 -43.6,13.2 -36.2,24 -46.1,72.9 -22,109.1 69.4,104.4 184.3,172.6 315.2,187.2 l 317.5,35.5 c 43.2,5.1 82.2,-26.3 87.1,-69.5 4.8,-43.2 -26.3,-82.2 -69.6,-87 l -317.5,-35.5 c -83.3,-9.3 -158.6,-53.4 -201.5,-117.9 -15.2,-22.8 -40.2,-35.1 -65.6,-35.1"
           style="fill:#2e294e;fill-opacity:1;fill-rule:nonzero;stroke:none"
           id="path28" />
        <path
           d="m 23206.7,3256.5 c -24.7,0 -44.8,-20 -44.8,-44.7 v -626.1 c 0,-24.6 20.1,-44.7 44.8,-44.7 h 182.4 c 24.6,0 44.7,20.1 44.7,44.7 v 626.1 c 0,24.7 -20.1,44.7 -44.7,44.7 z m 182.4,-873 h -182.4 c -111.6,0 -202.3,90.7 -202.3,202.2 v 626.1 c 0,111.5 90.7,202.3 202.3,202.3 h 182.4 c 111.5,0 202.2,-90.8 202.2,-202.3 v -626.1 c 0,-111.5 -90.7,-202.2 -202.2,-202.2"
           style="fill:#2e294e;fill-opacity:1;fill-rule:nonzero;stroke:none"
           id="path30" />
        <path
           d="m 24857.5,3256.5 c -24.7,0 -44.8,-20 -44.8,-44.7 v -626.1 c 0,-24.6 20.1,-44.7 44.8,-44.7 h 182.4 c 24.7,0 44.8,20.1 44.8,44.7 v 626.1 c 0,24.7 -20.1,44.7 -44.8,44.7 z m 182.4,-873 h -182.4 c -111.5,0 -202.3,90.7 -202.3,202.2 v 626.1 c 0,111.5 90.8,202.3 202.3,202.3 h 182.4 c 111.5,0 202.3,-90.8 202.3,-202.3 v -626.1 c 0,-111.5 -90.8,-202.2 -202.3,-202.2"
           style="fill:#2e294e;fill-opacity:1;fill-rule:nonzero;stroke:none"
           id="path32" />
        <path
           d="m 23709.9,2831.6 c -2,0 -3.9,0 -5.8,0.2 -43.4,3.2 -76,40.8 -72.9,84.2 l 16.5,227.2 c 3.2,43.5 41.4,76 84.3,72.9 43.3,-3.2 75.9,-40.9 72.8,-84.2 l -16.5,-227.3 c -3,-41.4 -37.6,-73 -78.4,-73"
           style="fill:#2e294e;fill-opacity:1;fill-rule:nonzero;stroke:none"
           id="path34" />
        <path
           d="m 24541.3,2831.6 c -40.9,0 -75.4,31.6 -78.4,73 l -16.5,227.3 c -3.2,43.3 29.4,81 72.8,84.2 42.9,3.2 81.1,-29.4 84.2,-72.9 L 24620,2916 c 3.1,-43.4 -29.5,-81 -72.9,-84.2 -2,-0.2 -3.8,-0.2 -5.8,-0.2"
           style="fill:#2e294e;fill-opacity:1;fill-rule:nonzero;stroke:none"
           id="path36" />
        <path
           d="m 23849.3,3624.3 c -8,0 -16.2,1.2 -24.2,3.8 l -216.2,70 c -41.4,13.4 -64.1,57.9 -50.7,99.2 13.4,41.4 57.9,64.1 99.2,50.7 l 216.2,-70 c 41.3,-13.4 64.1,-57.9 50.6,-99.2 -10.7,-33.3 -41.7,-54.5 -74.9,-54.5"
           style="fill:#2e294e;fill-opacity:1;fill-rule:nonzero;stroke:none"
           id="path38" />
        <path
           d="m 24397.2,3624.3 c -33.2,0 -64.1,21.2 -74.9,54.5 -13.4,41.3 9.3,85.8 50.7,99.2 l 216.2,70 c 41.2,13.4 85.8,-9.3 99.1,-50.7 13.5,-41.3 -9.2,-85.8 -50.6,-99.2 l -216.2,-70 c -8.1,-2.6 -16.2,-3.8 -24.3,-3.8"
           style="fill:#2e294e;fill-opacity:1;fill-rule:nonzero;stroke:none"
           id="path40" />
      </g>
      <g
         id="g1527">
        <path
           d="m 19964.4,3100.8 c -32.7,0 -63.3,20.6 -74.5,53.4 l -380.1,1112.9 c -12.1,35.4 2.4,74.5 34.8,93.4 36.4,21.3 162.1,86.8 253.7,38.8 25.8,-13.6 70.1,-48.1 76,-126.5 3.3,-43.4 -29.2,-81.1 -72.6,-84.4 -42.5,-3 -80,28.3 -84.3,70.6 -9.1,-0.8 -21.7,-3.9 -35.5,-8.6 L 20039,3205 c 14,-41.1 -8,-85.9 -49.1,-100 -8.4,-2.8 -17,-4.2 -25.5,-4.2"
           style="fill:#2e294e;fill-opacity:1;fill-rule:nonzero;stroke:none"
           id="path44" />
        <path
           d="m 19964.5,3597.8 c -230.7,0 -418.3,-187.6 -418.3,-418.2 0,-230.7 187.6,-418.3 418.3,-418.3 230.6,0 418.3,187.6 418.3,418.3 0,230.6 -187.7,418.2 -418.3,418.2 z m 0,-994 c -317.5,0 -575.8,258.3 -575.8,575.8 0,317.5 258.3,575.7 575.8,575.7 317.5,0 575.8,-258.2 575.8,-575.7 0,-317.5 -258.3,-575.8 -575.8,-575.8"
           style="fill:#2e294e;fill-opacity:1;fill-rule:nonzero;stroke:none"
           id="path46" />
        <path
           d="m 18071.1,2603.6 c -317.5,0 -575.8,258.3 -575.8,575.8 0,317.5 258.3,575.8 575.8,575.8 213.9,0 409.1,-117.6 509.5,-306.8 20.4,-38.4 5.7,-86.1 -32.7,-106.5 -38.5,-20.3 -86.1,-5.7 -106.5,32.7 -72.9,137.6 -214.8,223.1 -370.3,223.1 -230.7,0 -418.3,-187.7 -418.3,-418.3 0,-230.7 187.6,-418.3 418.3,-418.3 230.2,0 417.8,187.2 418.3,417.4 0,43.4 35.3,78.6 78.7,78.6 0.1,0 0.1,0 0.2,0 43.5,-0.1 78.6,-35.5 78.6,-78.9 -0.6,-316.9 -259,-574.6 -575.8,-574.6"
           style="fill:#2e294e;fill-opacity:1;fill-rule:nonzero;stroke:none"
           id="path48" />
        <path
           d="m 18252.4,3096.4 c -43.1,0 -78.3,34.7 -78.7,78 -0.5,43.4 34.5,79 77.9,79.5 l 471.2,4.8 c 0.2,0 0.5,0 0.8,0 43.1,0 78.3,-34.8 78.7,-78 0.5,-43.5 -34.4,-79.1 -77.9,-79.5 l -471.2,-4.8 c -0.3,0 -0.5,0 -0.8,0"
           style="fill:#2e294e;fill-opacity:1;fill-rule:nonzero;stroke:none"
           id="path50" />
        <path
           d="m 19090.5,3237.6 c -19.6,0 -39.3,7.3 -54.6,22 -31.3,30.2 -32.3,80 -2.1,111.3 l 570.2,592.4 -278.2,-98 c -230,-81 -484.4,-84.3 -716.4,-9.2 -41.4,13.4 -64,57.8 -50.7,99.2 13.4,41.3 58,63.9 99.2,50.7 199.3,-64.5 417.9,-61.7 615.6,7.9 l 356.1,125.4 c 19.8,7.1 41.5,5.8 60.4,-3.4 18.9,-9.1 33.4,-25.4 40.2,-45.2 l 41,-118.9 c 9.7,-27.9 2.9,-59 -17.7,-80.3 l -606.2,-629.8 c -15.5,-16 -36.1,-24.1 -56.8,-24.1"
           style="fill:#2e294e;fill-opacity:1;fill-rule:nonzero;stroke:none"
           id="path52" />
        <path
           d="m 18233.5,3181.5 c -29,0 -56.8,16 -70.6,43.7 -19.4,39 -3.5,86.3 35.5,105.6 l 180.8,89.9 c 29.2,14.6 57.3,32.4 83.1,52.7 30.5,24.5 57.5,51.9 79.6,81 61.7,81.2 73.8,192 33.1,291 l -122.3,297.4 c -16.6,40.2 2.6,86.2 42.8,102.8 40.3,16.4 86.3,-2.7 102.8,-42.8 l 122.4,-297.6 c 61.8,-150.4 41.9,-320.6 -51.9,-444.2 -31.4,-41.3 -67.4,-77.9 -108.5,-110.9 -34.8,-27.4 -71.9,-50.9 -110.8,-70.4 l -181,-89.9 c -11.3,-5.6 -23.2,-8.3 -35,-8.3"
           style="fill:#2e294e;fill-opacity:1;fill-rule:nonzero;stroke:none"
           id="path54" />
        <path
           d="m 19076.8,2766.8 c -30.2,0 -59,17.4 -72,46.8 l -74.3,167.3 c -17.7,39.8 0.3,86.3 40,103.9 39.8,17.8 86.3,-0.2 103.9,-40 l 74.3,-167.3 c 17.7,-39.8 -0.3,-86.3 -40,-104 -10.4,-4.6 -21.2,-6.7 -31.9,-6.7"
           style="fill:#2e294e;fill-opacity:1;fill-rule:nonzero;stroke:none"
           id="path56" />
        <path
           d="m 18998.8,2739.7 c -34.4,0 -66,22.8 -75.8,57.6 -11.7,41.9 12.9,85.3 54.7,97 l 163.7,45.7 c 41.9,11.6 85.3,-12.9 97,-54.7 11.7,-42 -12.8,-85.4 -54.7,-97.1 l -163.7,-45.6 c -7,-2 -14.2,-2.9 -21.2,-2.9"
           style="fill:#2e294e;fill-opacity:1;fill-rule:nonzero;stroke:none"
           id="path58" />
        <path
           d="m 18936,3262.4 c -50.2,0 -91.1,-40.9 -91.1,-91.1 0,-50.3 40.9,-91.2 91.1,-91.2 50.3,0 91.2,40.9 91.2,91.2 0,50.2 -40.9,91.1 -91.2,91.1 z m 0,-339.8 c -137.1,0 -248.6,111.6 -248.6,248.7 0,137.1 111.5,248.6 248.6,248.6 137.2,0 248.7,-111.5 248.7,-248.6 0,-137.1 -111.5,-248.7 -248.7,-248.7"
           style="fill:#2e294e;fill-opacity:1;fill-rule:nonzero;stroke:none"
           id="path60" />
        <path
           d="m 18071.2,3270.7 c -50.3,0 -91.2,-40.9 -91.2,-91.1 0,-50.3 40.9,-91.2 91.2,-91.2 50.3,0 91.1,40.9 91.1,91.2 0,50.2 -40.8,91.1 -91.1,91.1 z m 0,-339.8 c -137.1,0 -248.7,111.5 -248.7,248.7 0,137.1 111.6,248.6 248.7,248.6 137.1,0 248.6,-111.5 248.6,-248.6 0,-137.2 -111.5,-248.7 -248.6,-248.7"
           style="fill:#2e294e;fill-opacity:1;fill-rule:nonzero;stroke:none"
           id="path62" />
        <path
           d="m 18689.9,4140.3 h -259.4 c -43.5,0 -78.8,35.2 -78.8,78.7 0,43.5 35.3,78.8 78.8,78.8 h 259.4 c 43.5,0 78.8,-35.3 78.8,-78.8 0,-43.5 -35.3,-78.7 -78.8,-78.7"
           style="fill:#2e294e;fill-opacity:1;fill-rule:nonzero;stroke:none"
           id="path64" />
      </g>
      <g
         id="g1514">
        <path
           d="m 14568.5,2849.3 h -810.1 c -43.5,0 -78.8,35.3 -78.8,78.8 0,43.4 35.3,78.7 78.8,78.7 h 810.1 c 43.5,0 78.7,-35.3 78.7,-78.7 0,-43.5 -35.2,-78.8 -78.7,-78.8"
           style="fill:#2e294e;fill-opacity:1;fill-rule:nonzero;stroke:none"
           id="path68" />
        <path
           d="m 15242.1,2849.3 h -95.9 c -43.5,0 -78.7,35.3 -78.7,78.8 0,43.4 35.2,78.7 78.7,78.7 h 95.9 c 79.3,0 87.9,62.7 87.9,89.6 l -0.2,239.4 c 0,157.6 -69.9,206.7 -561.8,251.3 -56,5 -95.2,52.5 -166.2,138.8 -118.6,143.8 -317,384.6 -590.3,384.6 l -266.1,-0.1 c -209.7,-0.2 -458.3,-0.4 -913.3,0.1 -0.1,0 -0.1,0 -0.2,0 -33.9,0 -65.7,-13.2 -89.7,-37.2 -24,-23.9 -37.2,-55.7 -37.2,-89.6 v -850.1 c 0,-69.9 56.9,-126.8 126.8,-126.8 h 128 c 43.5,0 78.7,-35.3 78.7,-78.7 0,-43.5 -35.2,-78.8 -78.7,-78.8 h -128 c -156.8,0 -284.3,127.5 -284.3,284.3 v 850.1 c 0,76 29.6,147.4 83.4,201.1 53.7,53.6 125.1,83.2 201,83.2 0.1,0 0.2,0 0.3,0 454.9,-0.5 703.5,-0.3 913,-0.1 l 266.3,0.1 c 347.5,0 584.5,-287.5 711.8,-442 25.6,-31 56.8,-68.8 72.9,-83.3 387.3,-35.2 691.1,-66.8 691.1,-406.9 l 0.2,-239.4 c 0,-143.2 -103.2,-247.1 -245.4,-247.1"
           style="fill:#2e294e;fill-opacity:1;fill-rule:nonzero;stroke:none"
           id="path70" />
        <path
           d="m 14099.9,3504.6 c -43.5,0 -78.7,35.3 -78.7,78.8 v 276.9 c 0,43.5 35.2,78.7 78.7,78.7 43.5,0 78.8,-35.2 78.8,-78.7 v -276.9 c 0,-43.5 -35.3,-78.8 -78.8,-78.8"
           style="fill:#2e294e;fill-opacity:1;fill-rule:nonzero;stroke:none"
           id="path72" />
        <path
           d="m 13227.8,3145.1 c -93.9,0 -170.3,-76.3 -170.3,-170.2 0,-93.9 76.4,-170.2 170.3,-170.2 93.9,0 170.2,76.3 170.2,170.2 0,93.9 -76.3,170.2 -170.2,170.2 z m 0,-497.9 c -180.7,0 -327.8,147 -327.8,327.7 0,180.8 147.1,327.7 327.8,327.7 180.7,0 327.7,-146.9 327.7,-327.7 0,-180.7 -147,-327.7 -327.7,-327.7"
           style="fill:#2e294e;fill-opacity:1;fill-rule:nonzero;stroke:none"
           id="path74" />
        <path
           d="m 14872.9,3145.1 c -93.8,0 -170.2,-76.3 -170.2,-170.2 0,-93.9 76.4,-170.2 170.2,-170.2 93.9,0 170.3,76.3 170.3,170.2 0,93.9 -76.4,170.2 -170.3,170.2 z m 0,-497.9 c -180.7,0 -327.7,147 -327.7,327.7 0,180.8 147,327.7 327.7,327.7 180.8,0 327.8,-146.9 327.8,-327.7 0,-180.7 -147,-327.7 -327.8,-327.7"
           style="fill:#2e294e;fill-opacity:1;fill-rule:nonzero;stroke:none"
           id="path76" />
        <path
           d="m 15376.9,3197.2 h -97.2 c -43.5,0 -78.8,35.3 -78.8,78.7 0,43.5 35.3,78.8 78.8,78.8 h 97.2 c 43.5,0 78.7,-35.3 78.7,-78.8 0,-43.4 -35.2,-78.7 -78.7,-78.7"
           style="fill:#2e294e;fill-opacity:1;fill-rule:nonzero;stroke:none"
           id="path78" />
        <path
           d="m 14453.6,3504.6 h -316.9 c -43.5,0 -78.7,35.3 -78.7,78.8 0,43.5 35.2,78.7 78.7,78.7 h 316.9 c 43.5,0 78.7,-35.2 78.7,-78.7 0,-43.5 -35.2,-78.8 -78.7,-78.8"
           style="fill:#2e294e;fill-opacity:1;fill-rule:nonzero;stroke:none"
           id="path80" />
        <path
           d="m 13028.8,3963.3 c -43.5,0 -78.7,35.2 -78.7,78.7 v 109.8 c 0,43.5 35.2,78.8 78.7,78.8 43.5,0 78.8,-35.3 78.8,-78.8 V 4042 c 0,-43.5 -35.3,-78.7 -78.8,-78.7"
           style="fill:#2e294e;fill-opacity:1;fill-rule:nonzero;stroke:none"
           id="path82" />
        <path
           d="m 13664.2,3963.3 c -43.5,0 -78.7,35.2 -78.7,78.7 v 109.8 c 0,43.5 35.2,78.8 78.7,78.8 43.5,0 78.8,-35.3 78.8,-78.8 V 4042 c 0,-43.5 -35.3,-78.7 -78.8,-78.7"
           style="fill:#2e294e;fill-opacity:1;fill-rule:nonzero;stroke:none"
           id="path84" />
      </g>
      <g
         id="g1483">
        <path
           d="M 9281.36,2935.5 H 8482.1 c -43.51,0 -78.75,-35.3 -78.75,-78.8 0,-43.4 35.24,-78.7 78.75,-78.7 h 799.26 c 43.51,0 78.75,35.3 78.75,78.7 0,43.5 -35.24,78.8 -78.75,78.8"
           style="fill:#2e294e;fill-opacity:1;fill-rule:nonzero;stroke:none"
           id="path88" />
        <path
           d="m 10078.2,3478.6 -245.69,96.6 -166.39,437.8 c -46.66,122.7 -166.27,205.2 -297.65,205.2 h -44.37 c -3.62,105.4 -91.37,190.6 -197.14,190.6 h -1443.8 c -108.93,0 -197.23,-88.3 -197.23,-197.3 V 2975.4 c 0,-109 88.4,-197.4 197.44,-197.4 h 194.72 c 43.11,0 80.7,33.2 82.02,76.3 1.36,44.6 -34.39,81.2 -78.71,81.2 h -198.06 c -22.04,0 -39.91,17.9 -39.91,39.9 v 1236.1 c 0,22 17.8,39.8 39.76,39.8 h 1443.77 c 21.54,0 39.38,-17.6 39.74,-38 l 0.9,-1072.3 c 0.04,-43.6 35.34,-78.8 78.87,-78.8 v 0 c 43.57,0 78.89,35.3 78.86,78.9 l -0.57,919.6 h 43.71 c 66.39,0 126.84,-41.6 150.4,-103.7 l 178.78,-470.3 c 7.89,-20.8 24.17,-37.2 44.81,-45.4 L 10020.6,3332 c 33.5,-13.1 55.6,-45.5 55.6,-81.6 v -225.8 c 0,-23.6 -9.2,-45.7 -26,-62.3 -16.7,-16.6 -41.1,-26.8 -63.11,-25.4 h -80.74 c -40.03,0 -75.7,-28.8 -80.73,-68.5 -6.07,-48.1 31.22,-89 78.1,-89 h 84.8 c 65.08,0 126.38,25.2 172.58,71.1 46.8,46.4 72.6,108.2 72.6,174.1 v 225.8 c 0,101.5 -61,191.1 -155.5,228.2"
           style="fill:#2e294e;fill-opacity:1;fill-rule:nonzero;stroke:none"
           id="path90" />
        <path
           d="M 8599.48,3813.3 H 7582.29 c -43.5,0 -78.75,35.3 -78.75,78.8 0,43.5 35.25,78.7 78.75,78.7 h 1017.19 c 43.5,0 78.75,-35.2 78.75,-78.7 0,-43.5 -35.25,-78.8 -78.75,-78.8"
           style="fill:#2e294e;fill-opacity:1;fill-rule:nonzero;stroke:none"
           id="path92" />
        <path
           d="M 9241.32,3295 H 8224.14 c -43.51,0 -78.75,35.2 -78.75,78.8 0,43.5 35.24,78.7 78.75,78.7 h 1017.18 c 43.51,0 78.75,-35.2 78.75,-78.7 0,-43.6 -35.24,-78.8 -78.75,-78.8"
           style="fill:#2e294e;fill-opacity:1;fill-rule:nonzero;stroke:none"
           id="path94" />
        <path
           d="m 8049.38,2947.4 c -49.19,0 -89.23,-40 -89.23,-89.3 0,-49.1 40.04,-89.2 89.23,-89.2 49.22,0 89.26,40.1 89.26,89.2 0,49.3 -40.04,89.3 -89.26,89.3 z m 0,-336 c -136.04,0 -246.73,110.7 -246.73,246.7 0,136.1 110.69,246.8 246.73,246.8 136.07,0 246.76,-110.7 246.76,-246.8 0,-136 -110.69,-246.7 -246.76,-246.7"
           style="fill:#2e294e;fill-opacity:1;fill-rule:nonzero;stroke:none"
           id="path96" />
        <path
           d="m 9711.87,2947.4 c -49.21,0 -89.26,-40 -89.26,-89.3 0,-49.1 40.05,-89.2 89.26,-89.2 49.2,0 89.24,40.1 89.24,89.2 0,49.3 -40.04,89.3 -89.24,89.3 z m 0,-336 c -136.06,0 -246.76,110.7 -246.76,246.7 0,136.1 110.7,246.8 246.76,246.8 136.05,0 246.74,-110.7 246.74,-246.8 0,-136 -110.69,-246.7 -246.74,-246.7"
           style="fill:#2e294e;fill-opacity:1;fill-rule:nonzero;stroke:none"
           id="path98" />
        <path
           d="m 9771.27,3435.9 h -263.7 c -43.51,0 -78.75,35.2 -78.75,78.7 0,43.5 35.24,78.8 78.75,78.8 h 263.7 c 43.5,0 78.75,-35.3 78.75,-78.8 0,-43.5 -35.25,-78.7 -78.75,-78.7"
           style="fill:#2e294e;fill-opacity:1;fill-rule:nonzero;stroke:none"
           id="path100" />
        <path
           d="m 9608.16,3938.1 h -335.35 v -157.5 h 335.35 c 43.51,0 78.75,35.3 78.75,78.8 0,43.5 -35.24,78.7 -78.75,78.7"
           style="fill:#2e294e;fill-opacity:1;fill-rule:nonzero;stroke:none"
           id="path102" />
        <path
           d="m 10140.1,3106.8 h -143.86 c -43.5,0 -78.75,35.3 -78.75,78.7 0,43.5 35.25,78.8 78.75,78.8 h 143.86 c 43.5,0 78.8,-35.3 78.8,-78.8 0,-43.4 -35.3,-78.7 -78.8,-78.7"
           style="fill:#2e294e;fill-opacity:1;fill-rule:nonzero;stroke:none"
           id="path104" />
      </g>
      <g
         id="g1472">
        <path
           d="m 4673.18,3516.9 c -202.64,0 -367.5,-164.8 -367.5,-367.5 0,-202.6 164.86,-367.5 367.5,-367.5 202.65,0 367.5,164.9 367.5,367.5 0,202.7 -164.85,367.5 -367.5,367.5 z m 0,-892.5 c -289.49,0 -525,235.6 -525,525 0,289.5 235.51,525 525,525 289.5,0 525,-235.5 525,-525 0,-289.4 -235.5,-525 -525,-525"
           style="fill:#2e294e;fill-opacity:1;fill-rule:nonzero;stroke:none"
           id="path108" />
        <path
           d="m 2731.07,3516.9 c -202.65,0 -367.5,-164.8 -367.5,-367.5 0,-202.6 164.85,-367.5 367.5,-367.5 202.64,0 367.5,164.9 367.5,367.5 0,202.7 -164.86,367.5 -367.5,367.5 z m 0,-892.5 c -289.5,0 -525,235.6 -525,525 0,289.5 235.5,525 525,525 289.49,0 525,-235.5 525,-525 0,-289.4 -235.51,-525 -525,-525"
           style="fill:#2e294e;fill-opacity:1;fill-rule:nonzero;stroke:none"
           id="path110" />
        <path
           d="m 4673.18,3070.7 c -32.55,0 -63.01,20.3 -74.34,52.8 l -380.62,1089.4 -170.14,26.2 c -42.97,6.7 -72.44,46.9 -65.81,89.9 6.64,43 46.89,72.5 89.85,65.8 l 216.87,-33.5 c 28.77,-4.4 52.73,-24.4 62.32,-51.9 l 396.21,-1134 c 14.36,-41 -7.3,-85.9 -48.37,-100.3 -8.59,-3 -17.35,-4.4 -25.97,-4.4"
           style="fill:#2e294e;fill-opacity:1;fill-rule:nonzero;stroke:none"
           id="path112" />
        <path
           d="m 3364.32,3787.2 c -31.96,0 -62.03,19.6 -73.83,51.4 -15.12,40.8 5.64,86.1 46.43,101.2 l 176.44,65.5 c 250.04,76.7 504.6,123.3 760.97,140.1 l 64.06,4.2 c 42.63,3.3 80.91,-30 83.72,-73.4 2.88,-43.4 -30.01,-80.9 -73.41,-83.7 l -64.06,-4.2 c -244.25,-16 -486.76,-60.5 -720.83,-132.1 l -172.08,-64 c -9.03,-3.4 -18.31,-5 -27.41,-5"
           style="fill:#2e294e;fill-opacity:1;fill-rule:nonzero;stroke:none"
           id="path114" />
        <path
           d="m 3978.84,3308.2 c -7.08,0 -14.28,1 -21.43,3 -41.86,11.8 -66.22,55.3 -54.42,97.2 93.9,333 401.18,565.7 747.25,565.7 48.01,0 97.49,-4.6 147.04,-13.6 42.81,-7.8 71.19,-48.8 63.39,-91.6 -7.74,-42.8 -48.98,-71.2 -91.54,-63.4 -40.3,7.3 -80.28,11.1 -118.89,11.1 -275.86,0 -520.8,-185.5 -595.65,-451 -9.79,-34.7 -41.37,-57.4 -75.75,-57.4"
           style="fill:#2e294e;fill-opacity:1;fill-rule:nonzero;stroke:none"
           id="path116" />
        <path
           d="m 3798.37,2938.4 h -198.64 c -142.92,0 -259.17,116.3 -259.17,259.2 0,50.4 -8.61,100.1 -25.61,147.6 l -72.37,202.1 -649.2,419.8 c -24.68,16 -38.42,44.4 -35.63,73.7 2.79,29.2 21.64,54.5 48.89,65.5 l 165.9,67 c 19.15,7.8 40.63,7.7 59.78,-0.3 l 561.15,-233.7 c 1.61,-0.7 3.2,-1.5 4.77,-2.2 26.5,-12.7 44.83,-39.8 44.83,-71.1 0,-43.5 -35.25,-78.8 -78.75,-78.8 -11.33,0 -22.74,2.7 -33.14,7.4 l -508.44,211.8 527.76,-341.3 c 14.54,-9.4 25.56,-23.3 31.38,-39.6 l 81.34,-227.3 c 23.12,-64.5 34.84,-132 34.84,-200.6 0,-56 45.6,-101.7 101.67,-101.7 h 198.64 c 56.06,0 101.69,45.7 101.69,101.7 V 3387 c 0,43.5 35.25,78.7 78.75,78.7 43.51,0 78.75,-35.2 78.75,-78.7 v -189.4 c 0,-142.9 -116.28,-259.2 -259.19,-259.2"
           style="fill:#2e294e;fill-opacity:1;fill-rule:nonzero;stroke:none"
           id="path118" />
        <path
           d="m 3963.15,3239 h -312.62 c -43.5,0 -78.75,35.2 -78.75,78.7 0,43.5 35.25,78.7 78.75,78.7 h 312.62 c 43.5,0 78.75,-35.2 78.75,-78.7 0,-43.5 -35.25,-78.7 -78.75,-78.7"
           style="fill:#2e294e;fill-opacity:1;fill-rule:nonzero;stroke:none"
           id="path120" />
        <path
           d="m 3704.32,3503.9 h -383.4 c -43.5,0 -78.75,35.2 -78.75,78.7 0,43.5 35.25,78.8 78.75,78.8 h 383.4 c 43.5,0 78.75,-35.3 78.75,-78.8 0,-43.5 -35.25,-78.7 -78.75,-78.7"
           style="fill:#2e294e;fill-opacity:1;fill-rule:nonzero;stroke:none"
           id="path122" />
        <path
           d="m 2731.04,3067.6 c -33.38,0 -64.37,21.4 -75.03,54.9 -13.18,41.5 9.76,85.8 51.22,98.9 l 632.69,201.1 c 41.35,13.1 85.69,-9.8 98.9,-51.3 13.17,-41.4 -9.77,-85.7 -51.22,-98.9 l -632.69,-201 c -7.92,-2.5 -15.97,-3.7 -23.87,-3.7"
           style="fill:#2e294e;fill-opacity:1;fill-rule:nonzero;stroke:none"
           id="path124" />
      </g>
      <g
         id="g1908">
        <path
           d="m 24612.7,7806.4 h -545.8 c -43.5,0 -78.8,35.3 -78.8,78.8 0,43.5 35.3,78.7 78.8,78.7 h 545.8 c 43.4,0 78.7,-35.2 78.7,-78.7 0,-43.5 -35.3,-78.8 -78.7,-78.8"
           style="fill:#2e294e;fill-opacity:1;fill-rule:nonzero;stroke:none"
           id="path128" />
        <path
           d="m 25284.2,7806.4 h -115.3 c -43.5,0 -78.8,35.3 -78.8,78.8 0,43.5 35.3,78.7 78.8,78.7 h 115.3 c 25.7,0 46.6,20.7 46.6,46.1 v 32 c 0,64.9 -17.2,129 -49.7,185.2 l -311.8,538.9 c -14.1,24.4 -14.1,54.4 -0.1,78.8 14.1,24.4 40.1,39.4 68.2,39.4 h 197.3 c 25.7,0 46.6,20.9 46.6,46.6 v 242.3 c 0,25.3 -20.9,46 -46.6,46 h -2272.9 c -25.3,0 -46,-20.7 -46,-46 V 8010 c 0,-25.4 20.7,-46.1 46,-46.1 h 13.6 c 43.5,0 78.7,-35.2 78.7,-78.7 0,-43.5 -35.2,-78.8 -78.7,-78.8 h -13.6 c -112.2,0 -203.5,91.3 -203.5,203.6 v 1163.2 c 0,112.2 91.3,203.5 203.5,203.5 h 2272.9 c 112.5,0 204.1,-91.3 204.1,-203.5 v -242.3 c 0,-112.5 -91.6,-204.1 -204.1,-204.1 h -60.7 l 243.4,-420.7 c 46.4,-80.2 70.9,-171.5 70.9,-264.1 v -32 c 0,-112.3 -91.6,-203.6 -204.1,-203.6"
           style="fill:#2e294e;fill-opacity:1;fill-rule:nonzero;stroke:none"
           id="path130" />
        <path
           d="m 23565.3,7806.4 h -37.6 c -43.5,0 -78.7,35.3 -78.7,78.8 0,43.5 35.2,78.7 78.7,78.7 h 37.6 c 43.5,0 78.7,-35.2 78.7,-78.7 0,-43.5 -35.2,-78.8 -78.7,-78.8"
           style="fill:#2e294e;fill-opacity:1;fill-rule:nonzero;stroke:none"
           id="path132" />
        <path
           d="m 23253.2,7998.1 c -62.4,0 -113.1,-50.7 -113.1,-113.1 0,-62.4 50.7,-113.1 113.1,-113.1 62.4,0 113.1,50.7 113.1,113.1 0,62.4 -50.7,113.1 -113.1,113.1 z m 0,-383.7 c -149.2,0 -270.6,121.4 -270.6,270.6 0,149.2 121.4,270.6 270.6,270.6 149.2,0 270.6,-121.4 270.6,-270.6 0,-149.2 -121.4,-270.6 -270.6,-270.6"
           style="fill:#2e294e;fill-opacity:1;fill-rule:nonzero;stroke:none"
           id="path134" />
        <path
           d="m 23843.3,7998.1 c -62.4,0 -113.1,-50.7 -113.1,-113.1 0,-62.4 50.7,-113.1 113.1,-113.1 62.4,0 113.1,50.7 113.1,113.1 0,62.4 -50.7,113.1 -113.1,113.1 z m 0,-383.7 c -149.2,0 -270.6,121.4 -270.6,270.6 0,149.2 121.4,270.6 270.6,270.6 149.2,0 270.6,-121.4 270.6,-270.6 0,-149.2 -121.4,-270.6 -270.6,-270.6"
           style="fill:#2e294e;fill-opacity:1;fill-rule:nonzero;stroke:none"
           id="path136" />
        <path
           d="m 24890.8,7998.1 c -62.3,0 -113.1,-50.7 -113.1,-113.1 0,-62.4 50.8,-113.1 113.1,-113.1 62.4,0 113.2,50.7 113.2,113.1 0,62.4 -50.8,113.1 -113.2,113.1 z m 0,-383.7 c -149.2,0 -270.6,121.4 -270.6,270.6 0,149.2 121.4,270.6 270.6,270.6 149.3,0 270.7,-121.4 270.7,-270.6 0,-149.2 -121.4,-270.6 -270.7,-270.6"
           style="fill:#2e294e;fill-opacity:1;fill-rule:nonzero;stroke:none"
           id="path138" />
        <path
           d="m 25274.5,8254.7 h -282.3 c -43.5,0 -78.8,35.3 -78.8,78.8 0,43.5 35.3,78.7 78.8,78.7 h 282.3 c 43.5,0 78.8,-35.2 78.8,-78.7 0,-43.5 -35.3,-78.8 -78.8,-78.8"
           style="fill:#2e294e;fill-opacity:1;fill-rule:nonzero;stroke:none"
           id="path140" />
        <path
           d="m 23301.1,8671.6 h -179.3 c -43.5,0 -78.8,35.2 -78.8,78.7 0,43.5 35.3,78.8 78.8,78.8 h 179.3 c 43.5,0 78.7,-35.3 78.7,-78.8 0,-43.5 -35.2,-78.7 -78.7,-78.7"
           style="fill:#2e294e;fill-opacity:1;fill-rule:nonzero;stroke:none"
           id="path142" />
        <path
           d="m 23763.6,8671.6 h -179.3 c -43.5,0 -78.7,35.2 -78.7,78.7 0,43.5 35.2,78.8 78.7,78.8 h 179.3 c 43.5,0 78.8,-35.3 78.8,-78.8 0,-43.5 -35.3,-78.7 -78.8,-78.7"
           style="fill:#2e294e;fill-opacity:1;fill-rule:nonzero;stroke:none"
           id="path144" />
        <path
           d="m 24226.2,8671.6 h -179.3 c -43.5,0 -78.8,35.2 -78.8,78.7 0,43.5 35.3,78.8 78.8,78.8 h 179.3 c 43.5,0 78.8,-35.3 78.8,-78.8 0,-43.5 -35.3,-78.7 -78.8,-78.7"
           style="fill:#2e294e;fill-opacity:1;fill-rule:nonzero;stroke:none"
           id="path146" />
      </g>
      <g
         id="g1537">
        <path
           d="m 19805.4,7132.8 c -25.3,0 -50.2,12.1 -65.4,34.7 l -211.1,312.8 c -24.3,36 -14.8,85 21.2,109.3 36,24.4 85,14.8 109.3,-21.2 l 211.1,-312.9 c 24.4,-36 14.9,-84.9 -21.2,-109.3 -13.5,-9.1 -28.8,-13.4 -43.9,-13.4"
           style="fill:#2e294e;fill-opacity:1;fill-rule:nonzero;stroke:none"
           id="path150" />
        <path
           d="m 18230.2,7132.8 c -15.1,0 -30.4,4.3 -44,13.4 -36,24.4 -45.5,73.3 -21.2,109.3 l 211.1,312.9 c 24.3,36 73.3,45.6 109.3,21.2 36.1,-24.3 45.6,-73.3 21.3,-109.3 l -211.2,-312.8 c -15.2,-22.6 -40,-34.7 -65.3,-34.7"
           style="fill:#2e294e;fill-opacity:1;fill-rule:nonzero;stroke:none"
           id="path152" />
        <path
           d="m 19692.2,7273.1 h -1348.9 c -43.5,0 -78.7,35.3 -78.7,78.8 0,43.5 35.2,78.7 78.7,78.7 h 1348.9 c 43.5,0 78.8,-35.2 78.8,-78.7 0,-43.5 -35.3,-78.8 -78.8,-78.8"
           style="fill:#2e294e;fill-opacity:1;fill-rule:nonzero;stroke:none"
           id="path154" />
        <path
           d="m 18576.9,9251.3 c -147.4,0 -267.3,-120 -267.3,-267.4 v -910.7 c 0,-147.4 119.9,-267.3 267.3,-267.3 h 881.7 c 147.5,0 267.4,119.9 267.4,267.3 v 910.7 c 0,147.4 -119.9,267.4 -267.4,267.4 z m 881.7,-1602.9 h -881.7 c -234.2,0 -424.8,190.6 -424.8,424.8 v 910.7 c 0,234.3 190.6,424.9 424.8,424.9 h 881.7 c 234.3,0 424.9,-190.6 424.9,-424.9 v -910.7 c 0,-234.2 -190.6,-424.8 -424.9,-424.8"
           style="fill:#2e294e;fill-opacity:1;fill-rule:nonzero;stroke:none"
           id="path156" />
        <path
           d="m 19738.4,8265.4 h -1441.2 c -43.5,0 -78.8,35.2 -78.8,78.7 0,43.5 35.3,78.8 78.8,78.8 h 1441.2 c 43.5,0 78.8,-35.3 78.8,-78.8 0,-43.5 -35.3,-78.7 -78.8,-78.7"
           style="fill:#2e294e;fill-opacity:1;fill-rule:nonzero;stroke:none"
           id="path158" />
        <path
           d="m 18697.3,7977.9 h -182.1 c -43.5,0 -78.7,35.2 -78.7,78.7 0,43.5 35.2,78.8 78.7,78.8 h 182.1 c 43.5,0 78.7,-35.3 78.7,-78.8 0,-43.5 -35.2,-78.7 -78.7,-78.7"
           style="fill:#2e294e;fill-opacity:1;fill-rule:nonzero;stroke:none"
           id="path160" />
        <path
           d="m 19520.4,7977.9 h -182.1 c -43.5,0 -78.8,35.2 -78.8,78.7 0,43.5 35.3,78.8 78.8,78.8 h 182.1 c 43.5,0 78.7,-35.3 78.7,-78.8 0,-43.5 -35.2,-78.7 -78.7,-78.7"
           style="fill:#2e294e;fill-opacity:1;fill-rule:nonzero;stroke:none"
           id="path162" />
        <path
           d="m 18732.4,9302.5 c -30.7,0 -59.8,18 -72.6,47.9 l -116.9,275.4 c -11.5,27.1 -7,58.4 11.8,81.1 l 101.9,122.9 c 14.9,18.1 37.2,28.5 60.6,28.5 h 601.1 c 23.5,0 45.7,-10.4 60.7,-28.5 l 101.8,-122.9 c 18.9,-22.8 23.4,-54.2 11.8,-81.3 l -113.2,-263.7 c -17.1,-40 -63.5,-58.4 -103.4,-41.3 -39.9,17.2 -58.4,63.5 -41.3,103.4 l 94.2,219.4 -47.6,57.4 h -527.1 l -47.6,-57.5 98.2,-231.3 c 17,-40 -1.6,-86.2 -41.7,-103.3 -10,-4.2 -20.5,-6.2 -30.7,-6.2"
           style="fill:#2e294e;fill-opacity:1;fill-rule:nonzero;stroke:none"
           id="path164" />
      </g>
      <g
         id="g1503">
        <path
           d="m 14773.3,7561 c -245.2,0 -453.6,175.4 -495.5,417.1 -7.4,42.8 21.3,83.6 64.2,91 42.7,7.5 83.6,-21.3 91,-64.2 28.8,-165.9 171.9,-286.4 340.3,-286.4 190.8,0 346,155.4 346,346.5 0,175 -130.9,322.7 -304.4,343.5 -5.9,0.6 -28.3,2 -38.2,2 -43.5,0 -78.7,35.3 -78.7,78.8 0,43.5 35.2,78.7 78.7,78.7 15.1,0 50,-2.3 57.1,-3.2 252.5,-30.2 443,-245.1 443,-499.8 0,-277.9 -225.9,-504 -503.5,-504"
           style="fill:#2e294e;fill-opacity:1;fill-rule:nonzero;stroke:none"
           id="path168" />
        <path
           d="m 13583.7,8052.4 h 707.1 c 10.1,31.8 26.6,77 53.4,137 28.3,63.3 66.8,122.6 114.4,176.2 51.2,57.7 130.7,120.1 205.5,163.2 -38.7,129.1 -131.1,427 -203.8,580.6 -29.6,62.4 -56.8,111.3 -80.8,149.2 218.8,-760.1 -204.4,-1095.1 -223.6,-1109.8 -13.7,-10.5 -30.5,-16.2 -47.8,-16.2 h -103.5 c -183.2,0 -343.2,127.4 -380.4,303.1 l -53.9,257.1 c -13.1,62.9 -69.3,108.5 -133.5,108.5 h -511.3 c -48.6,0 -93.9,-26.2 -118.2,-68.3 -9.7,-16.9 -14.9,-40.1 -14.9,-67.1 l -0.1,-38.6 c 0,-35.3 13.7,-68.5 38.7,-93.4 25,-25 58.1,-38.8 93.4,-38.8 h 105.3 c 175.1,0 334.8,-88.9 427.1,-237.8 z m 768.4,-157.5 h -812.3 c -27.2,0 -52.5,14.1 -66.9,37.3 l -150,242.1 c -63.4,102.3 -173,163.3 -293.2,163.3 h -105.3 c -77.4,0 -150.1,30.2 -204.8,84.9 -54.7,54.7 -84.8,127.5 -84.8,204.9 l 0.1,38.6 c 0,55.3 12.1,104.4 36,145.8 52.3,90.7 149.9,147 254.6,147 h 511.3 c 138.3,0 259.3,-98.3 287.7,-233.7 l 53.8,-256.9 c 21.5,-101.5 118.8,-178.1 226.3,-178.1 h 73.9 c 76.6,73.2 349.8,393.4 107.9,1052.1 -1.4,3.7 -2.5,7.6 -3.3,11.4 l -243.2,-60.7 c -42.4,-10.5 -84.9,15.2 -95.4,57.4 -10.6,42.2 15.1,84.9 57.3,95.4 l 345.3,86 c 117,22.7 231.8,-93.7 355.5,-354.9 99.5,-210.1 225.9,-648.1 231.2,-666.6 10.9,-38.1 -8.1,-78.3 -44.4,-94.1 -67.4,-29.1 -163,-98.7 -213.1,-155.1 -36.9,-41.5 -66.6,-87.2 -88.3,-135.9 -38.7,-86.5 -51.9,-134.6 -55.7,-151.3 -1.3,-5.2 -1.9,-8.3 -2.1,-9.8 -5.5,-38.7 -39,-69.1 -78.1,-69.1"
           style="fill:#2e294e;fill-opacity:1;fill-rule:nonzero;stroke:none"
           id="path170" />
        <path
           d="m 14758.1,8975 h -174.5 c -43.5,0 -78.7,35.3 -78.7,78.8 0,43.5 35.2,78.7 78.7,78.7 h 95.8 v 81.5 h -171.2 c -43.5,0 -78.8,35.2 -78.8,78.7 0,43.5 35.3,78.8 78.8,78.8 h 249.9 c 43.5,0 78.8,-35.3 78.8,-78.8 v -238.9 c 0,-43.5 -35.3,-78.8 -78.8,-78.8"
           style="fill:#2e294e;fill-opacity:1;fill-rule:nonzero;stroke:none"
           id="path172" />
        <path
           d="m 13051.8,7562.7 c -277.7,0 -503.6,225.9 -503.6,503.5 0,156.1 70.6,300.7 193.6,396.9 34.3,26.8 83.8,20.8 110.6,-13.5 26.8,-34.3 20.7,-83.8 -13.6,-110.5 -84.6,-66.2 -133.1,-165.6 -133.1,-272.9 0,-190.8 155.3,-346 346.1,-346 190.8,0 346,155.2 346,346 0,43.5 35.3,78.8 78.8,78.8 43.5,0 78.7,-35.3 78.7,-78.8 0,-277.6 -225.9,-503.5 -503.5,-503.5"
           style="fill:#2e294e;fill-opacity:1;fill-rule:nonzero;stroke:none"
           id="path174" />
        <path
           d="m 13050.1,7986 c -14,0 -28.2,3.7 -41,11.6 -37.1,22.7 -48.8,71.2 -26,108.3 l 173.6,283.5 c 22.7,37.1 71.2,48.7 108.3,26 37.1,-22.7 48.7,-71.2 26,-108.3 l -173.6,-283.5 c -14.9,-24.3 -40.8,-37.6 -67.3,-37.6"
           style="fill:#2e294e;fill-opacity:1;fill-rule:nonzero;stroke:none"
           id="path176" />
        <path
           d="m 14776.8,7986 c -23.1,0 -45.9,10 -61.5,29.4 l -216,268.7 c -27.3,33.9 -21.9,83.5 12,110.7 33.9,27.2 83.5,21.8 110.7,-12 l 216.1,-268.7 c 27.2,-33.9 21.9,-83.5 -12,-110.7 -14.6,-11.7 -32,-17.4 -49.3,-17.4"
           style="fill:#2e294e;fill-opacity:1;fill-rule:nonzero;stroke:none"
           id="path178" />
      </g>
      <g
         id="g1495">
        <path
           d="m 9692.01,8652.7 c -27.46,0 -54.09,14.4 -68.6,40 l -160.81,283.8 c -54.04,95.4 -144.99,152.3 -243.32,152.3 h -822.39 c -98.31,0 -189.29,-57 -243.33,-152.3 l -160.8,-283.8 c -21.46,-37.8 -69.47,-51.1 -107.36,-29.7 -37.84,21.5 -51.12,69.5 -29.69,107.4 l 160.81,283.7 c 82.39,145.4 224.59,232.2 380.37,232.2 h 822.39 c 155.8,0 298,-86.8 380.37,-232.2 l 160.8,-283.7 c 21.43,-37.9 8.15,-85.9 -29.68,-107.4 -12.28,-7 -25.61,-10.3 -38.76,-10.3"
           style="fill:#2e294e;fill-opacity:1;fill-rule:nonzero;stroke:none"
           id="path182" />
        <path
           d="m 9634.38,8610 h -1652.6 c -43.5,0 -78.75,35.2 -78.75,78.7 0,43.5 35.25,78.8 78.75,78.8 h 1652.6 c 43.5,0 78.75,-35.3 78.75,-78.8 0,-43.5 -35.25,-78.7 -78.75,-78.7"
           style="fill:#2e294e;fill-opacity:1;fill-rule:nonzero;stroke:none"
           id="path184" />
        <path
           d="m 9522.15,8157.2 h -262.42 c -43.5,0 -78.75,35.2 -78.75,78.7 0,43.5 35.25,78.8 78.75,78.8 h 262.42 c 43.5,0 78.75,-35.3 78.75,-78.8 0,-43.5 -35.25,-78.7 -78.75,-78.7"
           style="fill:#2e294e;fill-opacity:1;fill-rule:nonzero;stroke:none"
           id="path186" />
        <path
           d="m 8356.44,8157.2 h -262.43 c -43.5,0 -78.75,35.2 -78.75,78.7 0,43.5 35.25,78.8 78.75,78.8 h 262.43 c 43.5,0 78.75,-35.3 78.75,-78.8 0,-43.5 -35.25,-78.7 -78.75,-78.7"
           style="fill:#2e294e;fill-opacity:1;fill-rule:nonzero;stroke:none"
           id="path188" />
        <path
           d="m 8037.85,7440.3 c -136.4,0 -247.38,114.9 -247.38,256 v 243.9 c 0,43.5 35.25,78.7 78.75,78.7 43.5,0 78.75,-35.2 78.75,-78.7 v -243.9 c 0,-54.3 40.33,-98.5 89.88,-98.5 49.55,0 89.87,44.2 89.87,98.5 v 125.6 c 0,43.5 35.25,78.8 78.75,78.8 43.5,0 78.75,-35.3 78.75,-78.8 v -125.6 c 0,-141.1 -110.97,-256 -247.37,-256"
           style="fill:#2e294e;fill-opacity:1;fill-rule:nonzero;stroke:none"
           id="path190" />
        <path
           d="m 9577.55,7440.3 c -136.4,0 -247.38,114.9 -247.38,256 v 125.6 c 0,43.5 35.25,78.8 78.75,78.8 43.51,0 78.75,-35.3 78.75,-78.8 v -125.6 c 0,-54.3 40.33,-98.5 89.88,-98.5 49.55,0 89.87,44.2 89.87,98.5 v 243.9 c 0,43.5 35.25,78.7 78.75,78.7 43.51,0 78.75,-35.2 78.75,-78.7 v -243.9 c 0,-141.1 -110.97,-256 -247.37,-256"
           style="fill:#2e294e;fill-opacity:1;fill-rule:nonzero;stroke:none"
           id="path192" />
        <path
           d="M 9563.81,7772.9 H 8052.36 c -167.4,0 -303.57,141.3 -303.57,315 v 349.3 c 0,43.5 35.25,78.7 78.75,78.7 43.5,0 78.75,-35.2 78.75,-78.7 v -349.3 c 0,-86.9 65.52,-157.5 146.07,-157.5 h 1511.45 c 80.54,0 146.06,70.6 146.06,157.5 v 349.3 c 0,43.5 35.25,78.7 78.75,78.7 43.51,0 78.75,-35.2 78.75,-78.7 v -349.3 c 0,-173.7 -136.17,-315 -303.56,-315"
           style="fill:#2e294e;fill-opacity:1;fill-rule:nonzero;stroke:none"
           id="path194" />
        <path
           d="m 9117.92,9159 c -33.38,0 -64.35,21.4 -75.01,54.9 l -72.29,227 c -10.92,34.3 -42.4,57.3 -78.37,57.3 h -167.98 c -35.91,0 -67.39,-23 -78.34,-57.2 l -72.7,-227.2 c -13.25,-41.4 -57.53,-64.2 -99,-51 -41.43,13.3 -64.27,57.6 -51.01,99 l 72.7,227.2 c 31.94,99.7 123.68,166.7 228.35,166.7 h 167.98 c 104.85,0 196.67,-67.1 228.44,-167 l 72.29,-227 c 13.2,-41.4 -9.69,-85.7 -51.15,-98.9 -7.94,-2.6 -15.99,-3.8 -23.91,-3.8"
           style="fill:#2e294e;fill-opacity:1;fill-rule:nonzero;stroke:none"
           id="path196" />
        <path
           d="m 9841.95,8358.4 h -53.33 c -43.5,0 -78.75,35.3 -78.75,78.8 0,43.5 35.25,78.7 78.75,78.7 h 53.33 c 25.94,0 47.03,21.1 47.03,47 0,26 -21.09,47.1 -47.03,47.1 h -215.47 c -43.5,0 -78.75,35.2 -78.75,78.7 0,43.5 35.25,78.8 78.75,78.8 h 215.47 c 112.79,0 204.55,-91.8 204.55,-204.6 0,-112.7 -91.76,-204.5 -204.55,-204.5"
           style="fill:#2e294e;fill-opacity:1;fill-rule:nonzero;stroke:none"
           id="path198" />
        <path
           d="m 7826,8358.4 h -53.32 c -112.77,0 -204.51,91.8 -204.51,204.5 0,112.8 91.74,204.6 204.51,204.6 h 215.49 c 43.5,0 78.75,-35.3 78.75,-78.8 0,-43.5 -35.25,-78.7 -78.75,-78.7 h -215.49 c -25.92,0 -47.01,-21.1 -47.01,-47.1 0,-25.9 21.09,-47 47.01,-47 H 7826 c 43.5,0 78.75,-35.2 78.75,-78.7 0,-43.5 -35.25,-78.8 -78.75,-78.8"
           style="fill:#2e294e;fill-opacity:1;fill-rule:nonzero;stroke:none"
           id="path200" />
      </g>
      <g
         id="g1461">
        <path
           d="m 4490.25,7627.2 h -624.36 c -43.5,0 -78.75,35.2 -78.75,78.7 0,43.5 35.25,78.8 78.75,78.8 h 545.61 v 979.5 l -92.77,683.7 c -5.54,40.7 -40.68,71.4 -81.78,71.4 H 3167.29 c -41.09,0 -76.24,-30.7 -81.77,-71.4 l -92.77,-683.7 v -979.5 h 545.5 c 43.51,0 78.75,-35.3 78.75,-78.8 0,-43.5 -35.24,-78.7 -78.75,-78.7 H 2914 c -43.51,0 -78.75,35.2 -78.75,78.7 v 1063.6 c 0,3.5 0.23,7.1 0.71,10.6 l 93.49,688.9 c 16.05,118.5 118.31,207.8 237.84,207.8 h 1069.66 c 119.54,0 221.8,-89.3 237.84,-207.8 l 93.49,-688.9 c 0.49,-3.5 0.72,-7.1 0.72,-10.6 V 7705.9 c 0,-43.5 -35.25,-78.7 -78.75,-78.7"
           style="fill:#2e294e;fill-opacity:1;fill-rule:nonzero;stroke:none"
           id="path204" />
        <path
           d="m 3702.14,8616.4 c -267.99,0 -535.97,23.9 -802.06,71.7 -42.81,7.7 -71.29,48.6 -63.6,91.4 7.71,42.9 49.06,71.1 91.44,63.6 513.77,-92.3 1034.67,-92.3 1548.44,0 42.27,7.7 83.7,-20.7 91.44,-63.6 7.69,-42.8 -20.79,-83.7 -63.6,-91.4 -266.09,-47.8 -534.08,-71.7 -802.06,-71.7"
           style="fill:#2e294e;fill-opacity:1;fill-rule:nonzero;stroke:none"
           id="path206" />
        <path
           d="m 2992.75,7627.2 v -108.7 l 75.7,0.5 v 108.2 z m 76.21,-108.2 v -78.7 l 0.05,78.7 c -0.03,0 -0.03,0 -0.05,0 z m 0,-157.5 h -76.75 c -86.55,0 -156.96,70.4 -156.96,157 v 187.4 c 0,43.5 35.24,78.8 78.75,78.8 h 233.2 c 43.5,0 78.75,-35.3 78.75,-78.8 v -187.4 c 0,-86.6 -70.42,-157 -156.99,-157"
           style="fill:#2e294e;fill-opacity:1;fill-rule:nonzero;stroke:none"
           id="path208" />
        <path
           d="m 4335.83,7627.2 v -108.7 l 75.67,0.5 v 108.2 z m 76.21,-108.2 v -78.7 l 0.05,78.7 c -0.02,0 -0.02,0 -0.05,0 z m 0,-157.5 h -76.75 c -86.54,0 -156.96,70.4 -156.96,157 v 187.4 c 0,43.5 35.25,78.8 78.75,78.8 h 233.17 c 43.5,0 78.75,-35.3 78.75,-78.8 v -187.4 c 0,-86.6 -70.42,-157 -156.96,-157"
           style="fill:#2e294e;fill-opacity:1;fill-rule:nonzero;stroke:none"
           id="path210" />
        <path
           d="m 3629.49,7871.2 -0.62,-398.8 145.92,-0.6 c 0.15,0 0.2,0 0.2,0 l 0.41,398.8 z m 145.3,-556.9 h -145.3 c -87.19,0 -158.12,70.9 -158.12,158.1 v 398.2 c 0,87.2 70.93,158.1 158.12,158.1 h 145.3 c 87.18,0 158.11,-70.9 158.11,-158.1 v -398.2 c 0,-87.2 -70.93,-158.1 -158.11,-158.1"
           style="fill:#2e294e;fill-opacity:1;fill-rule:nonzero;stroke:none"
           id="path212" />
        <path
           d="m 2909.25,8686.8 c -4.79,0 -9.64,0.5 -14.53,1.4 l -116.9,21.8 c -88.36,16.5 -152.52,93.8 -152.52,183.7 0,103 83.8,186.8 186.82,186.8 h 128.08 c 43.5,0 78.75,-35.2 78.75,-78.7 0,-43.5 -35.25,-78.8 -78.75,-78.8 h -128.08 c -16.17,0 -29.32,-13.1 -29.32,-29.3 0,-14.1 10.05,-26.2 23.92,-28.8 l 116.91,-21.9 c 42.76,-8 70.94,-49.1 62.96,-91.8 -7.07,-37.9 -40.17,-64.3 -77.34,-64.4"
           style="fill:#2e294e;fill-opacity:1;fill-rule:nonzero;stroke:none"
           id="path214" />
        <path
           d="m 4494.99,8686.8 c -37.19,0 -70.26,26.5 -77.34,64.4 -7.97,42.7 20.2,83.8 62.96,91.8 l 116.9,21.9 c 13.89,2.6 23.97,14.7 23.97,28.8 0,16.2 -13.15,29.3 -29.33,29.3 h -128.07 c -43.5,0 -78.75,35.3 -78.75,78.8 0,43.5 35.25,78.7 78.75,78.7 h 128.07 c 103.03,0 186.83,-83.8 186.83,-186.8 0,-89.9 -64.17,-167.2 -152.58,-183.7 l -116.87,-21.8 c -4.87,-0.9 -9.74,-1.4 -14.54,-1.4"
           style="fill:#2e294e;fill-opacity:1;fill-rule:nonzero;stroke:none"
           id="path216" />
        <path
           d="m 3344.02,8020.9 c -2.51,0 -5.03,0.1 -7.56,0.4 l -223.51,21.3 c -43.3,4.1 -75.06,42.6 -70.93,85.8 4.1,43.4 42.83,75.5 85.85,71 l 223.51,-21.3 c 43.29,-4.2 75.06,-42.6 70.93,-85.9 -3.87,-40.7 -38.17,-71.3 -78.29,-71.3"
           style="fill:#2e294e;fill-opacity:1;fill-rule:nonzero;stroke:none"
           id="path218" />
        <path
           d="m 4060.25,8020.9 c -40.11,0 -74.41,30.6 -78.28,71.3 -4.13,43.3 27.63,81.7 70.93,85.9 l 223.46,21.3 c 43.37,4.6 81.74,-27.6 85.87,-71 4.13,-43.2 -27.63,-81.7 -70.93,-85.8 l -223.46,-21.3 c -2.56,-0.3 -5.07,-0.4 -7.59,-0.4"
           style="fill:#2e294e;fill-opacity:1;fill-rule:nonzero;stroke:none"
           id="path220" />
      </g>
      <g
         id="g1418">
        <path
           d="m 24871.1,13288.4 c -64.5,0 -117,-52.5 -117,-117 v -403.5 c 0,-64.5 52.5,-116.9 117,-116.9 64.5,0 117,52.4 117,116.9 v 403.5 c 0,64.5 -52.5,117 -117,117 z m 0,-794.9 c -151.3,0 -274.5,123.1 -274.5,274.4 v 403.5 c 0,151.3 123.2,274.5 274.5,274.5 151.4,0 274.5,-123.2 274.5,-274.5 v -403.5 c 0,-151.3 -123.1,-274.4 -274.5,-274.4"
           style="fill:#2e294e;fill-opacity:1;fill-rule:nonzero;stroke:none"
           id="path224" />
        <path
           d="m 23375.4,13288.4 c -64.5,0 -116.9,-52.5 -116.9,-117 v -403.5 c 0,-64.5 52.4,-116.9 116.9,-116.9 64.5,0 117,52.4 117,116.9 v 403.5 c 0,64.5 -52.5,117 -117,117 z m 0,-794.9 c -151.3,0 -274.4,123.1 -274.4,274.4 v 403.5 c 0,151.3 123.1,274.5 274.4,274.5 151.4,0 274.5,-123.2 274.5,-274.5 v -403.5 c 0,-151.3 -123.1,-274.4 -274.5,-274.4"
           style="fill:#2e294e;fill-opacity:1;fill-rule:nonzero;stroke:none"
           id="path226" />
        <path
           d="m 24315.7,13003.1 c -43.5,0 -78.8,35.3 -78.8,78.8 v 270.9 c 0,29.6 -12,58.7 -33.1,79.7 -21,21 -50.5,33.1 -80.8,33.1 -62.2,0 -112.9,-50.6 -112.9,-112.8 v -270.9 c 0,-43.5 -35.3,-78.8 -78.7,-78.8 -43.5,0 -78.8,35.3 -78.8,78.8 v 270.9 c 0,149 121.3,270.3 270.4,270.3 71.8,0 141.8,-28.9 192.2,-79.2 50.4,-50.4 79.2,-120 79.2,-191.1 v -270.9 c 0,-43.5 -35.3,-78.8 -78.7,-78.8"
           style="fill:#2e294e;fill-opacity:1;fill-rule:nonzero;stroke:none"
           id="path228" />
        <path
           d="m 24123.3,14415.9 c -5,0 -9.9,0.5 -14.8,1.5 l -549.3,105 c -42.8,8.1 -70.8,49.4 -62.6,92.1 8.2,42.8 49.6,70.8 92.1,62.6 l 534.6,-102.2 534.5,102.2 c 42.4,8.2 84,-19.8 92.2,-62.6 8.1,-42.7 -19.9,-84 -62.6,-92.1 l -549.3,-105 c -4.9,-1 -9.8,-1.5 -14.8,-1.5"
           style="fill:#2e294e;fill-opacity:1;fill-rule:nonzero;stroke:none"
           id="path230" />
        <path
           d="m 24669.5,13003.1 h -353.8 c -43.5,0 -78.8,35.3 -78.8,78.8 0,43.5 35.3,78.7 78.8,78.7 h 353.8 c 43.5,0 78.7,-35.2 78.7,-78.7 0,-43.5 -35.2,-78.8 -78.7,-78.8"
           style="fill:#2e294e;fill-opacity:1;fill-rule:nonzero;stroke:none"
           id="path232" />
        <path
           d="M 23931.4,13003.1 H 23577 c -43.5,0 -78.8,35.3 -78.8,78.8 0,43.5 35.3,78.7 78.8,78.7 h 354.4 c 43.4,0 78.7,-35.2 78.7,-78.7 0,-43.5 -35.3,-78.8 -78.7,-78.8"
           style="fill:#2e294e;fill-opacity:1;fill-rule:nonzero;stroke:none"
           id="path234" />
        <path
           d="m 24123.4,12713.4 c -90.1,0 -180.2,10.1 -269.7,30.3 -42.4,9.5 -69,51.7 -59.4,94.1 9.5,42.4 51.2,69.2 94.1,59.5 155.9,-35.1 314,-35.1 469.8,0 42.5,9.6 84.5,-17 94.1,-59.5 9.6,-42.4 -17,-84.5 -59.5,-94.1 -89.3,-20.2 -179.4,-30.3 -269.4,-30.3"
           style="fill:#2e294e;fill-opacity:1;fill-rule:nonzero;stroke:none"
           id="path236" />
        <path
           d="m 24000,13434.7 c -40.8,0 -75.3,31.4 -78.4,72.8 -23.7,315.1 -0.7,645.9 68.6,983 8.8,42.7 50.7,70.1 93,61.3 42.6,-8.7 70,-50.4 61.3,-93 -66.4,-322.8 -88.5,-638.9 -65.9,-939.5 3.3,-43.4 -29.2,-81.2 -72.6,-84.4 -2,-0.2 -4,-0.2 -6,-0.2"
           style="fill:#2e294e;fill-opacity:1;fill-rule:nonzero;stroke:none"
           id="path238" />
        <path
           d="m 24246.5,13434.7 c -2.1,0 -4.1,0 -6.2,0.2 -43.4,3.3 -75.8,41.2 -72.4,84.5 22.9,298.6 0.8,614.7 -65.9,939.4 -8.7,42.6 18.7,84.3 61.3,93 42.3,8.8 84.2,-18.6 93,-61.3 69.6,-339.2 92.7,-669.9 68.5,-983.1 -3.1,-41.3 -37.6,-72.7 -78.3,-72.7"
           style="fill:#2e294e;fill-opacity:1;fill-rule:nonzero;stroke:none"
           id="path240" />
      </g>
      <g
         id="g1424">
        <path
           d="m 18066,13047.8 c -80.7,0 -146.4,-65.6 -146.4,-146.4 0,-80.7 65.7,-146.3 146.4,-146.3 80.7,0 146.3,65.6 146.3,146.3 0,80.8 -65.6,146.4 -146.3,146.4 z m 0,-450.2 c -167.6,0 -303.9,136.3 -303.9,303.8 0,167.6 136.3,303.9 303.9,303.9 167.5,0 303.8,-136.3 303.8,-303.9 0,-167.5 -136.3,-303.8 -303.8,-303.8"
           style="fill:#2e294e;fill-opacity:1;fill-rule:nonzero;stroke:none"
           id="path244" />
        <path
           d="m 19713.1,13047.8 c -80.7,0 -146.4,-65.6 -146.4,-146.4 0,-80.7 65.7,-146.3 146.4,-146.3 80.7,0 146.3,65.6 146.3,146.3 0,80.8 -65.6,146.4 -146.3,146.4 z m 0,-450.2 c -167.6,0 -303.9,136.3 -303.9,303.8 0,167.6 136.3,303.9 303.9,303.9 167.5,0 303.8,-136.3 303.8,-303.9 0,-167.5 -136.3,-303.8 -303.8,-303.8"
           style="fill:#2e294e;fill-opacity:1;fill-rule:nonzero;stroke:none"
           id="path246" />
        <path
           d="m 18066,12822.7 c -43,0 -78.1,34.5 -78.8,77.6 -0.6,43.5 34.2,79.3 77.7,79.9 l 1152,16.5 c 45.5,250.6 227.6,444.2 478.5,502 42.4,9.9 84.6,-16.6 94.4,-59 9.8,-42.4 -16.6,-84.6 -59,-94.4 -204.2,-47.1 -347.7,-214.6 -365.6,-426.8 -0.2,-2.3 -0.5,-4.5 -0.9,-6.7 l -1,-6.1 c -6.4,-37.4 -38.6,-64.9 -76.5,-65.5 l -1219.7,-17.5 c -0.4,0 -0.8,0 -1.1,0"
           style="fill:#2e294e;fill-opacity:1;fill-rule:nonzero;stroke:none"
           id="path248" />
        <path
           d="m 19713,12822.7 c -39.1,0 -73,29 -78,68.8 l -216.4,1701.1 h -132.5 c -43.5,0 -78.7,35.2 -78.7,78.7 0,43.5 35.2,78.8 78.7,78.8 h 201.9 c 39.6,0 73.1,-29.5 78.1,-68.8 l 225.1,-1769.9 c 5.5,-43.1 -25,-82.6 -68.2,-88.1 -3.4,-0.4 -6.7,-0.6 -10,-0.6"
           style="fill:#2e294e;fill-opacity:1;fill-rule:nonzero;stroke:none"
           id="path250" />
      </g>
      <g
         id="g1434">
        <path
           d="m 13458,14291.4 c -153.4,0 -278.1,-124.7 -278.1,-278 v -1023.6 c 0,-153.4 124.7,-278.1 278.1,-278.1 h 909 c 153.4,0 278.1,124.7 278.1,278.1 v 1023.6 c 0,153.3 -124.7,278 -278.1,278 z m 909,-1737.2 h -909 c -240.2,0 -435.6,195.4 -435.6,435.6 v 1023.6 c 0,240.1 195.4,435.5 435.6,435.5 h 909 c 240.2,0 435.6,-195.4 435.6,-435.5 v -1023.6 c 0,-240.2 -195.4,-435.6 -435.6,-435.6"
           style="fill:#2e294e;fill-opacity:1;fill-rule:nonzero;stroke:none"
           id="path254" />
        <path
           d="m 14655.5,13190.3 h -1486 c -43.5,0 -78.7,35.3 -78.7,78.8 0,43.5 35.2,78.7 78.7,78.7 h 1486 c 43.5,0 78.7,-35.2 78.7,-78.7 0,-43.5 -35.2,-78.8 -78.7,-78.8"
           style="fill:#2e294e;fill-opacity:1;fill-rule:nonzero;stroke:none"
           id="path256" />
        <path
           d="m 13582.1,12893.9 h -187.8 c -43.5,0 -78.7,35.2 -78.7,78.7 0,43.5 35.2,78.8 78.7,78.8 h 187.8 c 43.5,0 78.7,-35.3 78.7,-78.8 0,-43.5 -35.2,-78.7 -78.7,-78.7"
           style="fill:#2e294e;fill-opacity:1;fill-rule:nonzero;stroke:none"
           id="path258" />
        <path
           d="m 14430.7,12893.9 h -187.8 c -43.5,0 -78.7,35.2 -78.7,78.7 0,43.5 35.2,78.8 78.7,78.8 h 187.8 c 43.5,0 78.7,-35.3 78.7,-78.8 0,-43.5 -35.2,-78.7 -78.7,-78.7"
           style="fill:#2e294e;fill-opacity:1;fill-rule:nonzero;stroke:none"
           id="path260" />
        <path
           d="m 13360.2,12554.2 v -67.2 c 0,-35.8 29.1,-64.9 64.9,-64.9 35.8,0 64.9,29.1 64.9,64.9 v 67.2 z m 64.9,-289.6 c -122.6,0 -222.4,99.7 -222.4,222.4 v 145.9 c 0,43.5 35.3,78.8 78.8,78.8 h 287.3 c 43.5,0 78.7,-35.3 78.7,-78.8 V 12487 c 0,-122.7 -99.7,-222.4 -222.4,-222.4"
           style="fill:#2e294e;fill-opacity:1;fill-rule:nonzero;stroke:none"
           id="path262" />
        <path
           d="m 14335,12554.2 v -67.2 c 0,-35.8 29.1,-64.9 64.9,-64.9 35.8,0 64.9,29.1 64.9,64.9 v 67.2 z m 64.9,-289.6 c -122.7,0 -222.4,99.7 -222.4,222.4 v 145.9 c 0,43.5 35.2,78.8 78.7,78.8 h 287.3 c 43.5,0 78.8,-35.3 78.8,-78.8 V 12487 c 0,-122.7 -99.8,-222.4 -222.4,-222.4"
           style="fill:#2e294e;fill-opacity:1;fill-rule:nonzero;stroke:none"
           id="path264" />
        <path
           d="m 13653.2,14318.9 c -20.2,0 -40.3,7.7 -55.7,23.1 -30.7,30.8 -30.7,80.6 0,111.4 l 325.9,325.9 c 30.8,30.8 80.6,30.8 111.4,0 30.7,-30.7 30.7,-80.6 0,-111.4 l -325.9,-325.9 c -15.4,-15.4 -35.6,-23.1 -55.7,-23.1"
           style="fill:#2e294e;fill-opacity:1;fill-rule:nonzero;stroke:none"
           id="path266" />
        <path
           d="m 14171.8,14318.9 c -20.1,0 -40.3,7.7 -55.7,23.1 -30.7,30.8 -30.7,80.6 0,111.4 l 325.9,325.9 c 30.8,30.8 80.6,30.8 111.4,0 30.7,-30.7 30.7,-80.6 0,-111.4 l -325.9,-325.9 c -15.4,-15.4 -35.5,-23.1 -55.7,-23.1"
           style="fill:#2e294e;fill-opacity:1;fill-rule:nonzero;stroke:none"
           id="path268" />
      </g>
      <g
         id="g1441">
        <path
           d="m 9921.77,13091.8 h -310.13 c -43.5,0 -78.75,35.3 -78.75,78.8 0,43.5 35.25,78.7 78.75,78.7 h 310.13 c 80.23,0 145.53,65.3 145.53,145.6 0,199.8 -162.52,362.3 -362.35,362.3 H 8217.11 c -43.5,0 -78.75,35.3 -78.75,78.8 0,43.5 35.25,78.7 78.75,78.7 h 1487.84 c 286.65,0 519.85,-233.2 519.85,-519.8 0,-167.1 -135.9,-303.1 -303.03,-303.1"
           style="fill:#2e294e;fill-opacity:1;fill-rule:nonzero;stroke:none"
           id="path272" />
        <path
           d="m 8700.76,13091.8 c -300.23,0 -594.62,103.5 -828.87,291.2 -142.61,114.3 -231.66,284.4 -244.33,466.7 l -42.27,608.9 c -1.51,21.8 6.1,43.2 21,59.2 14.89,15.9 35.73,25 57.57,25 220.31,0 420.98,-138.3 499.39,-344.2 l 127.46,-334.6 c 15.48,-40.6 -4.92,-86.1 -45.55,-101.6 -40.81,-15.4 -86.19,5 -101.65,45.5 l -127.45,334.6 c -44.97,118.1 -146.99,204.7 -267.12,232.9 l 35.76,-514.8 c 9.62,-138.6 77.29,-267.8 185.68,-354.7 206.43,-165.5 465.81,-256.6 730.38,-256.6 43.5,0 78.75,-35.2 78.75,-78.7 0,-43.5 -35.25,-78.8 -78.75,-78.8"
           style="fill:#2e294e;fill-opacity:1;fill-rule:nonzero;stroke:none"
           id="path274" />
        <path
           d="m 7914.98,13757.2 h -446.4 c -43.51,0 -78.75,35.3 -78.75,78.8 0,43.5 35.24,78.7 78.75,78.7 h 446.4 c 43.5,0 78.75,-35.2 78.75,-78.7 0,-43.5 -35.25,-78.8 -78.75,-78.8"
           style="fill:#2e294e;fill-opacity:1;fill-rule:nonzero;stroke:none"
           id="path276" />
        <path
           d="m 10086.9,13476.3 h -211.22 c -43.5,0 -78.75,35.2 -78.75,78.7 0,43.5 35.25,78.8 78.75,78.8 h 211.22 c 43.5,0 78.8,-35.3 78.8,-78.8 0,-43.5 -35.3,-78.7 -78.8,-78.7"
           style="fill:#2e294e;fill-opacity:1;fill-rule:nonzero;stroke:none"
           id="path278" />
        <path
           d="m 8856.08,13312.7 -232.2,-485.3 c -5.89,-12.3 -1.51,-22.5 1.62,-27.4 3.13,-5 10.41,-13.3 24.07,-13.3 h 181.72 c 56.91,0 112.18,23.5 151.63,64.4 81.11,84.1 147.79,180.2 198.24,285.7 l 84.18,175.9 z m -24.79,-683.5 h -181.72 c -64.27,0 -123.07,32.4 -157.35,86.8 -34.24,54.4 -38.14,121.4 -10.4,179.4 l 253.6,530.1 c 13.07,27.3 40.71,44.7 71.04,44.7 h 583.85 c 27.05,0 52.22,-13.9 66.63,-36.7 14.43,-22.9 16.1,-51.6 4.41,-76 l -138.12,-288.7 c -57.73,-120.7 -134.07,-230.7 -226.9,-327 -68.96,-71.5 -165.57,-112.6 -265.04,-112.6"
           style="fill:#2e294e;fill-opacity:1;fill-rule:nonzero;stroke:none"
           id="path280" />
      </g>
      <g
         id="g1450">
        <path
           d="m 4489.71,12371.6 c -25.3,0 -50.14,12.1 -65.34,34.7 l -211.1,312.8 c -24.33,36.1 -14.84,85 21.22,109.3 36,24.4 85.01,14.9 109.31,-21.2 l 211.1,-312.8 c 24.33,-36.1 14.85,-85 -21.22,-109.3 -13.49,-9.2 -28.82,-13.5 -43.97,-13.5"
           style="fill:#2e294e;fill-opacity:1;fill-rule:nonzero;stroke:none"
           id="path284" />
        <path
           d="m 2914.56,12371.6 c -15.15,0 -30.45,4.3 -43.96,13.5 -36.07,24.3 -45.56,73.2 -21.23,109.3 l 211.1,312.8 c 24.33,36.1 73.27,45.6 109.31,21.2 36.07,-24.3 45.55,-73.2 21.23,-109.3 l -211.11,-312.8 c -15.2,-22.6 -40.04,-34.7 -65.34,-34.7"
           style="fill:#2e294e;fill-opacity:1;fill-rule:nonzero;stroke:none"
           id="path286" />
        <path
           d="m 4376.59,12512 h -1348.9 c -43.51,0 -78.75,35.2 -78.75,78.7 0,43.5 35.24,78.8 78.75,78.8 h 1348.9 c 43.5,0 78.75,-35.3 78.75,-78.8 0,-43.5 -35.25,-78.7 -78.75,-78.7"
           style="fill:#2e294e;fill-opacity:1;fill-rule:nonzero;stroke:none"
           id="path288" />
        <path
           d="m 3261.27,14642.8 c -147.42,0 -267.34,-119.9 -267.34,-267.3 V 13312 c 0,-147.4 119.92,-267.3 267.34,-267.3 H 4143 c 147.43,0 267.35,119.9 267.35,267.3 v 1063.5 c 0,147.4 -119.92,267.3 -267.35,267.3 z M 4143,12887.2 h -881.73 c -234.25,0 -424.84,190.6 -424.84,424.8 v 1063.5 c 0,234.3 190.59,424.8 424.84,424.8 H 4143 c 234.25,0 424.85,-190.5 424.85,-424.8 V 13312 c 0,-234.2 -190.6,-424.8 -424.85,-424.8"
           style="fill:#2e294e;fill-opacity:1;fill-rule:nonzero;stroke:none"
           id="path290" />
        <path
           d="M 4422.76,13504.2 H 2981.52 c -43.5,0 -78.75,35.2 -78.75,78.7 0,43.5 35.25,78.8 78.75,78.8 h 1441.24 c 43.5,0 78.75,-35.3 78.75,-78.8 0,-43.5 -35.25,-78.7 -78.75,-78.7"
           style="fill:#2e294e;fill-opacity:1;fill-rule:nonzero;stroke:none"
           id="path292" />
        <path
           d="m 3381.63,13216.7 h -182.09 c -43.5,0 -78.75,35.2 -78.75,78.8 0,43.5 35.25,78.7 78.75,78.7 h 182.09 c 43.5,0 78.75,-35.2 78.75,-78.7 0,-43.6 -35.25,-78.8 -78.75,-78.8"
           style="fill:#2e294e;fill-opacity:1;fill-rule:nonzero;stroke:none"
           id="path294" />
        <path
           d="m 4204.71,13216.7 h -182.06 c -43.5,0 -78.75,35.2 -78.75,78.8 0,43.5 35.25,78.7 78.75,78.7 h 182.06 c 43.5,0 78.75,-35.2 78.75,-78.7 0,-43.6 -35.25,-78.8 -78.75,-78.8"
           style="fill:#2e294e;fill-opacity:1;fill-rule:nonzero;stroke:none"
           id="path296" />
      </g>
      <g
         id="g1407">
        <path
           d="m 24625.1,19293 120.2,-266.3 195.4,67.1 c 21.6,8.6 37.9,20.3 42.5,31.5 4.9,12 1,34.1 -10.8,60.6 -35.8,81 -123,148.1 -233.3,179.4 -43.7,12.4 -94,19.3 -136.7,23.1 z m 78,-442.9 c -30.2,0 -58.8,17.4 -71.8,46.3 l -152.8,338.6 c -2.1,4.6 -3.6,9.3 -4.8,14.1 l -48.8,204.2 c -5.6,23.3 -0.3,47.9 14.4,66.7 14.7,18.9 37.2,30.1 61.1,30.4 0.4,0 5.3,0 5.6,0 37.1,0 166.6,-2.4 276.2,-33.6 157.1,-44.7 278.9,-142.1 334.3,-267.2 30.2,-68.3 34.4,-130.2 12.5,-183.8 -21.5,-52.7 -66.4,-92.9 -133.5,-119.7 l -266.9,-91.7 c -8.4,-2.9 -17,-4.3 -25.5,-4.3"
           style="fill:#2e294e;fill-opacity:1;fill-rule:nonzero;stroke:none"
           id="path300" />
        <path
           d="m 24071.7,18042.6 h -230.5 c -32.2,0 -61.2,19.6 -73.1,49.6 l -67.1,168.6 c -75.7,190.5 -199.4,360 -357.8,490.1 l -430.8,318.6 c -20,14.8 -31.9,38.1 -32,63 -0.1,24.8 11.6,48.3 31.4,63.2 130.1,98 301.2,113.4 446.8,40.1 l 359.1,-180.9 c 39.9,0.1 138.7,0.9 189.9,1.3 56.4,53.6 201.9,179.7 357.8,217.5 154.1,37.5 316.9,1.9 323.8,0.4 42.4,-9.5 69.2,-51.6 59.7,-94 -9.5,-42.4 -51.5,-69.2 -94,-59.7 -3.8,0.8 -135.6,28.5 -252.4,0.3 -150.1,-36.4 -303.8,-195.7 -305.4,-197.3 -14.6,-15.4 -35,-24.2 -56.3,-24.4 -226.2,-2 -265.6,-2.3 -285.8,11.1 l -367.3,185 c -55.9,28.2 -117.9,35.6 -176.1,23 l 328.4,-243 c 182,-149.6 321.8,-341 407.3,-556.1 l 47.3,-118.9 h 177.1 c 101.6,0 190.5,72.2 211.2,171.7 l 29.8,142.8 c 8.9,42.6 50.4,69.9 93.2,61.1 42.6,-8.9 69.9,-50.6 61,-93.2 l -29.8,-142.8 c -35.9,-172.2 -189.5,-297.1 -365.4,-297.1"
           style="fill:#2e294e;fill-opacity:1;fill-rule:nonzero;stroke:none"
           id="path302" />
        <path
           d="M 23784.4,18168.2 H 23167 c -78.2,0 -141.8,63.6 -141.8,141.8 0,66.3 45,123.1 109.5,138.1 l 506.5,117.9 c 42.3,9.9 84.7,-16.6 94.5,-58.9 9.8,-42.3 -16.5,-84.7 -58.9,-94.5 l -373.2,-86.9 h 480.8 c 43.4,0 78.7,-35.3 78.7,-78.8 0,-43.5 -35.3,-78.7 -78.7,-78.7"
           style="fill:#2e294e;fill-opacity:1;fill-rule:nonzero;stroke:none"
           id="path304" />
        <path
           d="m 25028.1,17769.2 c -295.6,0 -536.1,240.5 -536.1,536 0,68.5 12.9,135.2 38.1,198.3 16.1,40.4 62.1,60 102.4,43.9 40.3,-16.2 59.9,-62 43.8,-102.4 -17.7,-44.4 -26.8,-91.4 -26.8,-139.8 0,-208.7 169.8,-378.5 378.6,-378.5 208.4,0 377.9,169.8 377.9,378.5 0,208.4 -169.5,378 -377.9,378 -12.2,0 -24.2,-0.5 -36,-1.6 -43.4,-4.2 -81.7,27.9 -85.6,71.1 -4.1,43.4 27.8,81.7 71.2,85.7 16.5,1.5 33.3,2.3 50.4,2.3 295.2,0 535.4,-240.2 535.4,-535.5 0,-295.5 -240.2,-536 -535.4,-536"
           style="fill:#2e294e;fill-opacity:1;fill-rule:nonzero;stroke:none"
           id="path306" />
        <path
           d="m 25027.9,18226.2 c -29.1,0 -57,16.1 -70.7,43.9 l -155.4,314.5 c -19.3,39 -3.3,86.2 35.7,105.5 38.7,19.3 86.1,3.3 105.5,-35.7 l 155.4,-314.6 c 19.3,-38.9 3.3,-86.2 -35.7,-105.4 -11.2,-5.6 -23.1,-8.2 -34.8,-8.2"
           style="fill:#2e294e;fill-opacity:1;fill-rule:nonzero;stroke:none"
           id="path308" />
        <path
           d="m 23159,17769.2 c -295.3,0 -535.5,240.5 -535.5,536 0,295.3 240.2,535.5 535.5,535.5 218.5,0 413.2,-130.8 495.9,-333.1 16.4,-40.2 -2.9,-86.2 -43.2,-102.7 -40.4,-16.5 -86.2,2.9 -102.7,43.1 -58.4,142.9 -195.8,235.2 -350,235.2 -208.4,0 -378,-169.6 -378,-378 0,-208.7 169.6,-378.5 378,-378.5 189.5,0 350.6,141.7 374.8,329.7 5.5,43.1 44.6,73.4 88.1,68 43.2,-5.6 73.7,-45 68.1,-88.1 -34.3,-266.3 -262.5,-467.1 -531,-467.1"
           style="fill:#2e294e;fill-opacity:1;fill-rule:nonzero;stroke:none"
           id="path310" />
        <path
           d="m 24397.3,18301.9 c -27.8,0 -54.8,14.9 -69.1,41.1 -20.9,38.2 -6.8,86 31.4,106.9 l 436.7,238.3 c 55.6,30.4 94.3,85.9 103.5,148.7 l 26.7,182.8 c 6.3,43 46.5,72.7 89.4,66.5 43,-6.3 72.8,-46.3 66.5,-89.3 l -26.8,-182.9 c -16.3,-111.3 -85,-210.1 -183.8,-264 l -436.8,-238.4 c -12,-6.5 -24.9,-9.7 -37.7,-9.7"
           style="fill:#2e294e;fill-opacity:1;fill-rule:nonzero;stroke:none"
           id="path312" />
      </g>
      <g
         id="g1398">
        <path
           d="m 17889.8,17788.8 c -35.3,0 -67.3,23.8 -76.3,59.5 l -129.7,515.1 c -5.9,23.5 -0.6,48.5 14.3,67.6 14.9,19.1 37.8,30.3 62.1,30.3 h 1231.4 c 43.5,0 78.8,-35.2 78.8,-78.7 0,-43.5 -35.3,-78.8 -78.8,-78.8 h -1130.4 l 105,-417 c 10.6,-42.2 -15,-85 -57.1,-95.6 -6.5,-1.6 -13,-2.4 -19.3,-2.4"
           style="fill:#2e294e;fill-opacity:1;fill-rule:nonzero;stroke:none"
           id="path316" />
        <path
           d="m 20131.2,17788.8 c -11,0 -22.1,2.3 -32.7,7.2 -39.6,18.1 -56.9,64.8 -38.8,104.3 l 279.2,610.2 h -1058.2 c -43.5,0 -78.8,35.3 -78.8,78.8 0,43.5 35.3,78.7 78.8,78.7 h 1180.8 c 26.8,0 51.8,-13.6 66.3,-36.2 14.5,-22.5 16.5,-50.9 5.3,-75.3 l -330.2,-721.7 c -13.3,-28.9 -41.8,-46 -71.7,-46"
           style="fill:#2e294e;fill-opacity:1;fill-rule:nonzero;stroke:none"
           id="path318" />
        <path
           d="m 17947,18303.8 c -8.2,0 -16.6,1.3 -24.9,4.1 -41.3,13.8 -63.5,58.4 -49.8,99.6 l 164.2,491.5 c 10.7,32.1 40.8,53.8 74.7,53.8 h 758.1 l 159.6,186.9 c 15,17.5 36.8,27.6 59.9,27.6 h 839.3 c 30.7,0 58.5,-17.8 71.4,-45.5 l 220.1,-472.5 c 18.4,-39.4 1.3,-86.3 -38.1,-104.7 -39.4,-18.3 -86.3,-1.3 -104.6,38.2 l -198.9,427 h -752.9 l -159.6,-186.9 c -15,-17.5 -36.9,-27.6 -59.9,-27.6 h -737.7 l -146.2,-437.7 c -11,-33 -41.7,-53.8 -74.7,-53.8"
           style="fill:#2e294e;fill-opacity:1;fill-rule:nonzero;stroke:none"
           id="path320" />
        <path
           d="m 20039.6,18755.9 h -533.7 c -43.5,0 -78.8,35.3 -78.8,78.8 0,43.5 35.3,78.7 78.8,78.7 h 533.7 c 43.5,0 78.8,-35.2 78.8,-78.7 0,-43.5 -35.3,-78.8 -78.8,-78.8"
           style="fill:#2e294e;fill-opacity:1;fill-rule:nonzero;stroke:none"
           id="path322" />
        <path
           d="m 18816.2,18823.1 c -39.1,0 -73,29.1 -78,69 l -65.9,525.9 c -2.8,22.5 4.2,45 19.1,61.9 15,17 36.5,26.7 59.1,26.7 h 253.9 c 33.9,0 64,-21.7 74.7,-53.8 l 106.3,-318.3 c 13.7,-41.2 -8.6,-85.8 -49.8,-99.6 -41.3,-13.9 -85.9,8.5 -99.6,49.8 l -88.3,264.4 h -108 l 54.8,-437.4 c 5.4,-43.2 -25.2,-82.6 -68.4,-88 -3.3,-0.4 -6.6,-0.6 -9.9,-0.6"
           style="fill:#2e294e;fill-opacity:1;fill-rule:nonzero;stroke:none"
           id="path324" />
        <path
           d="m 20121.3,17741.2 c -138.2,0 -265.5,52.3 -361.3,145.9 -95.7,-93.2 -222.9,-145.3 -360.8,-145.3 -0.1,0 -0.1,0 -0.2,0 -137.9,0 -265,52.1 -360.7,145.5 -95.8,-93.4 -222.9,-145.5 -360.8,-145.5 0,0 0,0 -0.1,0 -137.9,0 -265,52.1 -360.7,145.4 -95.8,-93.3 -222.9,-145.3 -360.8,-145.3 -0.1,0 -0.1,0 -0.1,0 -171.8,0 -326.8,80.7 -425.3,221.4 -24.9,35.6 -16.3,84.7 19.4,109.7 35.6,25 84.7,16.3 109.6,-19.4 68.7,-98 176.7,-154.2 296.3,-154.2 119.7,0 227.7,56.2 296.3,154.2 14.8,21.1 38.8,33.6 64.5,33.6 v 0 c 25.7,0 49.8,-12.5 64.5,-33.6 68.7,-98 176.7,-154.3 296.4,-154.3 v 0 c 117,0 230.8,53.9 294.7,152 14.6,22.4 39.5,35.8 66.1,35.8 v 0 c 26.5,0 51.4,-13.2 65.9,-35.5 60,-91.7 157.1,-152.3 266.6,-152.3 h 28.4 c 117.5,0 229.6,55.8 295.5,153.1 14.6,21.6 39,34.7 65.1,34.7 0.1,0 0.1,0 0.2,0 25.5,0 49.6,-12.3 64.4,-33.2 69.4,-99 177.3,-155.2 296.9,-155.2 97.6,0 187.5,37.5 254.6,104.5 26.8,26.8 69.1,30.5 100.3,8.9 v 0 c 40.7,-28.2 45.2,-86.2 10.1,-121.2 -96.4,-96.2 -225.2,-149.7 -365,-149.7"
           style="fill:#2e294e;fill-opacity:1;fill-rule:nonzero;stroke:none"
           id="path326" />
      </g>
      <g
         id="g1390">
        <path
           d="m 12972.8,18653.6 c -217.2,0 -393.8,-176.6 -393.8,-393.8 0,-217.1 176.6,-393.7 393.8,-393.7 217.1,0 393.7,176.6 393.7,393.7 0,217.2 -176.6,393.8 -393.7,393.8 z m 0,-945 c -304,0 -551.3,247.3 -551.3,551.2 0,304 247.3,551.3 551.3,551.3 303.9,0 551.2,-247.3 551.2,-551.3 0,-303.9 -247.3,-551.2 -551.2,-551.2"
           style="fill:#2e294e;fill-opacity:1;fill-rule:nonzero;stroke:none"
           id="path330" />
        <path
           d="m 14852.2,18653.6 c -217.1,0 -393.7,-176.6 -393.7,-393.8 0,-217.1 176.6,-393.7 393.7,-393.7 217.1,0 393.8,176.6 393.8,393.7 0,217.2 -176.7,393.8 -393.8,393.8 z m 0,-945 c -303.9,0 -551.2,247.3 -551.2,551.2 0,304 247.3,551.3 551.2,551.3 304,0 551.3,-247.3 551.3,-551.3 0,-303.9 -247.3,-551.2 -551.3,-551.2"
           style="fill:#2e294e;fill-opacity:1;fill-rule:nonzero;stroke:none"
           id="path332" />
        <path
           d="m 14852.3,18181.1 c -30.4,0 -59.3,17.6 -72.2,47.2 l -486.9,1115.3 c -15.7,35.9 -2.5,78 30.9,98.5 41.9,25.8 257.7,150.3 392.1,70.3 44.8,-26.7 96.8,-85.2 89.8,-212.4 -2.3,-43.4 -39.7,-77.2 -82.9,-74.3 -43.4,2.4 -76.7,39.5 -74.3,82.9 2.2,40.6 -5,63.6 -13.2,68.5 -25.6,15.2 -100.2,-5 -169,-37.1 l 457.8,-1048.7 c 17.4,-39.8 -0.8,-86.2 -40.6,-103.6 -10.3,-4.5 -21,-6.6 -31.5,-6.6"
           style="fill:#2e294e;fill-opacity:1;fill-rule:nonzero;stroke:none"
           id="path334" />
        <path
           d="m 12972.9,18181.1 c -28.9,0 -55.4,15.8 -69.2,41.1 -13.8,25.3 -12.6,56.2 3.1,80.4 l 483.2,747 c 13.2,20.3 34.9,33.5 59,35.7 l 1029.3,93.3 c 34,3 65.7,-15.9 79.3,-46.9 l 40.3,-92.5 c 12,-27.4 7.4,-59.2 -11.8,-82.1 l -512.8,-611.1 c -27.9,-33.3 -77.6,-37.7 -110.9,-9.7 -33.3,27.9 -37.7,77.6 -9.7,110.9 l 477.3,568.8 -928.6,-84.1 -383.8,-593.3 527.6,0.1 c 43.4,0 78.7,-35.3 78.7,-78.8 0,-43.4 -35.2,-78.7 -78.7,-78.7 l -672.3,-0.1"
           style="fill:#2e294e;fill-opacity:1;fill-rule:nonzero;stroke:none"
           id="path336" />
        <path
           d="m 13768,18364.6 c -28.8,0 -56.5,15.9 -70.4,43.4 l -435.1,864.5 c -19.5,38.8 -3.9,86.1 35,105.7 38.8,19.5 86.1,4 105.7,-34.9 l 435.1,-864.5 c 19.6,-38.9 3.9,-86.2 -34.9,-105.8 -11.4,-5.7 -23.5,-8.4 -35.4,-8.4"
           style="fill:#2e294e;fill-opacity:1;fill-rule:nonzero;stroke:none"
           id="path338" />
        <path
           d="m 13609.8,19246.4 h -358.7 c -43.5,0 -78.8,35.2 -78.8,78.7 0,43.5 35.3,78.8 78.8,78.8 h 358.7 c 43.5,0 78.7,-35.3 78.7,-78.8 0,-43.5 -35.2,-78.7 -78.7,-78.7"
           style="fill:#2e294e;fill-opacity:1;fill-rule:nonzero;stroke:none"
           id="path340" />
        <path
           d="m 13858.3,18362.9 c -61.4,0 -111.4,-50 -111.4,-111.4 0,-61.4 50,-111.4 111.4,-111.4 61.4,0 111.4,50 111.4,111.4 0,61.4 -50,111.4 -111.4,111.4 z m 0,-380.3 c -148.3,0 -268.9,120.6 -268.9,268.9 0,148.3 120.6,268.9 268.9,268.9 148.2,0 268.9,-120.6 268.9,-268.9 0,-148.3 -120.7,-268.9 -268.9,-268.9"
           style="fill:#2e294e;fill-opacity:1;fill-rule:nonzero;stroke:none"
           id="path342" />
      </g>
      <g
         id="g1381">
        <path
           d="m 8352.77,19542.5 c -153.32,0 -278.06,-124.7 -278.06,-278.1 V 18168 c 0,-153.3 124.74,-278.1 278.06,-278.1 h 909.09 c 153.34,0 278.08,124.8 278.08,278.1 v 1096.4 c 0,153.4 -124.74,278.1 -278.08,278.1 z m 909.09,-1810.1 h -909.09 c -240.17,0 -435.56,195.4 -435.56,435.6 v 1096.4 c 0,240.2 195.39,435.6 435.56,435.6 h 909.09 c 240.17,0 435.58,-195.4 435.58,-435.6 V 18168 c 0,-240.2 -195.41,-435.6 -435.58,-435.6"
           style="fill:#2e294e;fill-opacity:1;fill-rule:nonzero;stroke:none"
           id="path346" />
        <path
           d="M 9550.27,18368.6 H 8064.35 c -43.5,0 -78.75,35.2 -78.75,78.7 0,43.5 35.25,78.8 78.75,78.8 h 1485.92 c 43.51,0 78.75,-35.3 78.75,-78.8 0,-43.5 -35.24,-78.7 -78.75,-78.7"
           style="fill:#2e294e;fill-opacity:1;fill-rule:nonzero;stroke:none"
           id="path348" />
        <path
           d="m 8476.87,18072.1 h -187.73 c -43.5,0 -78.75,35.3 -78.75,78.8 0,43.5 35.25,78.7 78.75,78.7 h 187.73 c 43.5,0 78.75,-35.2 78.75,-78.7 0,-43.5 -35.25,-78.8 -78.75,-78.8"
           style="fill:#2e294e;fill-opacity:1;fill-rule:nonzero;stroke:none"
           id="path350" />
        <path
           d="m 9325.48,18072.1 h -187.72 c -43.5,0 -78.75,35.3 -78.75,78.8 0,43.5 35.25,78.7 78.75,78.7 h 187.72 c 43.5,0 78.75,-35.2 78.75,-78.7 0,-43.5 -35.25,-78.8 -78.75,-78.8"
           style="fill:#2e294e;fill-opacity:1;fill-rule:nonzero;stroke:none"
           id="path352" />
        <path
           d="m 8255.03,17732.4 v -67.2 c 0,-35.8 29.12,-64.9 64.9,-64.9 35.79,0 64.91,29.1 64.91,64.9 v 67.2 z m 64.9,-289.6 c -122.63,0 -222.4,99.8 -222.4,222.4 v 146 c 0,43.5 35.24,78.7 78.75,78.7 h 287.31 c 43.5,0 78.75,-35.2 78.75,-78.7 v -146 c 0,-122.6 -99.77,-222.4 -222.41,-222.4"
           style="fill:#2e294e;fill-opacity:1;fill-rule:nonzero;stroke:none"
           id="path354" />
        <path
           d="m 9229.79,17732.4 v -67.2 c 0,-35.8 29.12,-64.9 64.9,-64.9 35.79,0 64.91,29.1 64.91,64.9 v 67.2 z m 64.9,-289.6 c -122.63,0 -222.4,99.8 -222.4,222.4 v 146 c 0,43.5 35.25,78.7 78.75,78.7 h 287.31 c 43.5,0 78.75,-35.2 78.75,-78.7 v -146 c 0,-122.6 -99.77,-222.4 -222.41,-222.4"
           style="fill:#2e294e;fill-opacity:1;fill-rule:nonzero;stroke:none"
           id="path356" />
      </g>
      <g
         id="g1373">
        <path
           d="m 4586.84,18860.8 c -27.45,0 -54.09,14.4 -68.59,40 l -160.81,283.8 c -54.04,95.3 -145.02,152.3 -243.35,152.3 H 3291.7 c -98.31,0 -189.29,-57 -243.33,-152.3 l -160.8,-283.8 c -21.48,-37.8 -69.45,-51.1 -107.36,-29.7 -37.84,21.5 -51.12,69.5 -29.69,107.3 l 160.81,283.8 c 82.39,145.4 224.59,232.2 380.37,232.2 h 822.39 c 155.81,0 298,-86.8 380.39,-232.2 l 160.81,-283.8 c 21.43,-37.8 8.15,-85.8 -29.69,-107.3 -12.27,-6.9 -25.61,-10.3 -38.76,-10.3"
           style="fill:#2e294e;fill-opacity:1;fill-rule:nonzero;stroke:none"
           id="path360" />
        <path
           d="m 4529.19,18818.1 h -1652.6 c -43.5,0 -78.75,35.2 -78.75,78.7 0,43.5 35.25,78.8 78.75,78.8 h 1652.6 c 43.5,0 78.75,-35.3 78.75,-78.8 0,-43.5 -35.25,-78.7 -78.75,-78.7"
           style="fill:#2e294e;fill-opacity:1;fill-rule:nonzero;stroke:none"
           id="path362" />
        <path
           d="m 4416.96,18365.3 h -262.42 c -43.5,0 -78.75,35.2 -78.75,78.7 0,43.6 35.25,78.8 78.75,78.8 h 262.42 c 43.51,0 78.75,-35.2 78.75,-78.8 0,-43.5 -35.24,-78.7 -78.75,-78.7"
           style="fill:#2e294e;fill-opacity:1;fill-rule:nonzero;stroke:none"
           id="path364" />
        <path
           d="m 3251.25,18365.3 h -262.4 c -43.5,0 -78.75,35.2 -78.75,78.7 0,43.6 35.25,78.8 78.75,78.8 h 262.4 c 43.5,0 78.75,-35.2 78.75,-78.8 0,-43.5 -35.25,-78.7 -78.75,-78.7"
           style="fill:#2e294e;fill-opacity:1;fill-rule:nonzero;stroke:none"
           id="path366" />
        <path
           d="m 2932.66,17648.4 c -136.4,0 -247.38,114.9 -247.38,256 v 243.9 c 0,43.5 35.25,78.7 78.75,78.7 43.51,0 78.75,-35.2 78.75,-78.7 v -243.9 c 0,-54.3 40.33,-98.5 89.88,-98.5 49.55,0 89.87,44.2 89.87,98.5 v 125.6 c 0,43.5 35.25,78.8 78.75,78.8 43.51,0 78.75,-35.3 78.75,-78.8 v -125.6 c 0,-141.1 -110.97,-256 -247.37,-256"
           style="fill:#2e294e;fill-opacity:1;fill-rule:nonzero;stroke:none"
           id="path368" />
        <path
           d="m 4472.36,17648.4 c -136.4,0 -247.38,114.9 -247.38,256 v 125.6 c 0,43.5 35.25,78.8 78.75,78.8 43.51,0 78.75,-35.3 78.75,-78.8 v -125.6 c 0,-54.3 40.33,-98.5 89.88,-98.5 49.55,0 89.88,44.2 89.88,98.5 v 243.9 c 0,43.5 35.24,78.7 78.75,78.7 43.5,0 78.75,-35.2 78.75,-78.7 v -243.9 c 0,-141.1 -110.98,-256 -247.38,-256"
           style="fill:#2e294e;fill-opacity:1;fill-rule:nonzero;stroke:none"
           id="path370" />
        <path
           d="M 4458.62,17980.9 H 2947.17 c -167.4,0 -303.57,141.4 -303.57,315 v 349.4 c 0,43.5 35.25,78.7 78.75,78.7 43.5,0 78.75,-35.2 78.75,-78.7 v -349.4 c 0,-86.8 65.52,-157.5 146.07,-157.5 h 1511.45 c 80.54,0 146.09,70.7 146.09,157.5 v 349.4 c 0,43.5 35.25,78.7 78.75,78.7 43.5,0 78.75,-35.2 78.75,-78.7 v -349.4 c 0,-173.6 -136.2,-315 -303.59,-315"
           style="fill:#2e294e;fill-opacity:1;fill-rule:nonzero;stroke:none"
           id="path372" />
        <path
           d="m 4736.76,18566.5 h -53.3 c -43.5,0 -78.75,35.3 -78.75,78.8 0,43.5 35.25,78.7 78.75,78.7 h 53.3 c 25.94,0 47.04,21.1 47.04,47 0,26 -21.1,47.1 -47.04,47.1 H 4521.3 c -43.51,0 -78.75,35.2 -78.75,78.7 0,43.5 35.24,78.8 78.75,78.8 h 215.46 c 112.79,0 204.54,-91.8 204.54,-204.6 0,-112.7 -91.75,-204.5 -204.54,-204.5"
           style="fill:#2e294e;fill-opacity:1;fill-rule:nonzero;stroke:none"
           id="path374" />
        <path
           d="m 2720.81,18566.5 h -53.32 c -112.77,0 -204.51,91.8 -204.51,204.5 0,112.8 91.74,204.6 204.51,204.6 h 215.49 c 43.5,0 78.75,-35.3 78.75,-78.8 0,-43.5 -35.25,-78.7 -78.75,-78.7 h -215.49 c -25.91,0 -47.01,-21.1 -47.01,-47.1 0,-25.9 21.1,-47 47.01,-47 h 53.32 c 43.51,0 78.75,-35.2 78.75,-78.7 0,-43.5 -35.24,-78.8 -78.75,-78.8"
           style="fill:#2e294e;fill-opacity:1;fill-rule:nonzero;stroke:none"
           id="path376" />
      </g>
    </g>
  </g>
</svg>
