<?xml version="1.0"?>
<svg xmlns="http://www.w3.org/2000/svg"><g xmlns:dc="http://purl.org/dc/elements/1.1/" xmlns:cc="http://creativecommons.org/ns#" xmlns:rdf="http://www.w3.org/1999/02/22-rdf-syntax-ns#" xmlns:svg="http://www.w3.org/2000/svg" xmlns:xlink="http://www.w3.org/1999/xlink" xmlns:sodipodi="http://sodipodi.sourceforge.net/DTD/sodipodi-0.dtd" xmlns:inkscape="http://www.inkscape.org/namespaces/inkscape" inkscape:groupmode="layer" id="layer14" inkscape:label="2nd floor/electrical/fan" style="display:none">
    <path style="fill:#ffffff;display:inline" d="m 16.999957,13.735163 c 2,0 0,3 0,3 0,0 3,-2 3,0 0,2 -3,0 -3,0 0,0 2,3 0,3 -2,0 0,-3 0,-3 0,0 -3,2 -3,0 0,-2 3,0 3,0 0,0 -2,-3 0,-3 z" id="path5008"/>
    <path style="fill:none;stroke:#000000;stroke-width:0.1;display:inline" d="m 16.999957,13.735163 c 2,0 0,3 0,3 0,0 3,-2 3,0 0,2 -3,0 -3,0 0,0 2,3 0,3 -2,0 0,-3 0,-3 0,0 -3,2 -3,0 0,-2 3,0 3,0 0,0 -2,-3 0,-3" id="path5010"/>
  </g></svg>
