<?xml version="1.0"?>
<svg xmlns="http://www.w3.org/2000/svg"><g xmlns:dc="http://purl.org/dc/elements/1.1/" xmlns:cc="http://creativecommons.org/ns#" xmlns:rdf="http://www.w3.org/1999/02/22-rdf-syntax-ns#" xmlns:svg="http://www.w3.org/2000/svg" xmlns:xlink="http://www.w3.org/1999/xlink" xmlns:sodipodi="http://sodipodi.sourceforge.net/DTD/sodipodi-0.dtd" xmlns:inkscape="http://www.inkscape.org/namespaces/inkscape" inkscape:groupmode="layer" id="layer22" inkscape:label="1st floor/stair/2nd floor" style="display:inline">
    <rect style="fill:#f0e2c0;display:inline" x="26.504627" y="-9.5457611" width="2" height="6" id="rect226"/>
    <rect style="fill:none;stroke:#63462b;stroke-width:0.1;display:inline" x="26.504627" y="-9.5457611" width="2" height="6" id="rect228"/>
    <rect style="fill:#f0e2c0;display:inline" x="28.504627" y="-9.5457611" width="2" height="6" id="rect230"/>
    <rect style="fill:none;stroke:#63462b;stroke-width:0.1;display:inline" x="28.504627" y="-9.5457611" width="2" height="6" id="rect232"/>
    <rect style="fill:#f0e2c0;display:inline" x="30.504627" y="-9.5457611" width="2" height="6" id="rect234"/>
    <rect style="fill:none;stroke:#63462b;stroke-width:0.1;display:inline" x="30.504627" y="-9.5457611" width="2" height="6" id="rect236"/>
    <rect style="fill:#f0e2c0;display:inline" x="32.504627" y="-9.5457611" width="5" height="6" id="rect238"/>
    <rect style="fill:none;stroke:#63462b;stroke-width:0.1;display:inline" x="32.504627" y="-9.5457611" width="5" height="6" id="rect240"/>
    <rect style="fill:#f0e2c0;display:inline" x="32.504627" y="-3.5457616" width="5" height="2" id="rect242"/>
    <rect style="fill:none;stroke:#63462b;stroke-width:0.1;display:inline" x="32.504627" y="-3.5457616" width="5" height="2" id="rect244"/>
    <rect style="fill:#f0e2c0;display:inline" x="32.504627" y="-1.5457616" width="5" height="2" id="rect246"/>
    <rect style="fill:none;stroke:#63462b;stroke-width:0.1;display:inline" x="32.504627" y="-1.5457616" width="5" height="2" id="rect248"/>
    <rect style="fill:#f0e2c0;display:inline" x="32.504627" y="0.45423838" width="5" height="2" id="rect250"/>
    <rect style="fill:none;stroke:#63462b;stroke-width:0.1;display:inline" x="32.504627" y="0.45423838" width="5" height="2" id="rect252"/>
    <rect style="fill:#f0e2c0;display:inline" x="32.504627" y="2.4542394" width="5" height="2" id="rect254"/>
    <rect style="fill:none;stroke:#63462b;stroke-width:0.1;display:inline" x="32.504627" y="2.4542394" width="5" height="2" id="rect256"/>
    <rect style="fill:#f0e2c0;display:inline" x="32.504627" y="6.4542394" width="5" height="2" id="rect258"/>
    <rect style="fill:none;stroke:#63462b;stroke-width:0.1;display:inline" x="32.504627" y="6.4542394" width="5" height="2" id="rect260"/>
    <rect style="fill:#f0e2c0;display:inline" x="32.504627" y="4.4542394" width="5" height="2" id="rect262"/>
    <rect style="fill:none;stroke:#63462b;stroke-width:0.1;display:inline" x="32.504627" y="4.4542394" width="5" height="2" id="rect264"/>
  </g></svg>
