<?xml version="1.0"?>
<svg xmlns="http://www.w3.org/2000/svg"><g xmlns:dc="http://purl.org/dc/elements/1.1/" xmlns:cc="http://creativecommons.org/ns#" xmlns:rdf="http://www.w3.org/1999/02/22-rdf-syntax-ns#" xmlns:svg="http://www.w3.org/2000/svg" xmlns:xlink="http://www.w3.org/1999/xlink" xmlns:sodipodi="http://sodipodi.sourceforge.net/DTD/sodipodi-0.dtd" xmlns:inkscape="http://www.inkscape.org/namespaces/inkscape" inkscape:groupmode="layer" id="layer24" inkscape:label="1st floor/electrical/outlets" style="display:none">
    <polyline transform="translate(-5.495373,-10.545761)" style="fill:none;stroke:#ff0000;stroke-width:0.1;display:inline" points="38,38.5 38.6,38.5 38.6667,38 38.8,39 38.9333,38 39.0667,39 39.2,38 39.3333,39 39.4,38.5 40,38.5 " id="polyline344"/>
    <polyline transform="translate(-5.495373,-10.545761)" style="fill:none;stroke:#ff0000;stroke-width:0.1;display:inline" points="50,38.5 50.6,38.5 50.6667,38 50.8,39 50.9333,38 51.0667,39 51.2,38 51.3333,39 51.4,38.5 52,38.5 " id="polyline350"/>
    <polyline transform="translate(-5.495373,-10.545761)" style="fill:none;stroke:#ff0000;stroke-width:0.1;display:inline" points="15,38.5 15.6,38.5 15.6667,38 15.8,39 15.9333,38 16.0667,39 16.2,38 16.3333,39 16.4,38.5 17,38.5 " id="polyline352"/>
    <polyline transform="translate(-5.495373,-10.545761)" style="fill:none;stroke:#ff0000;stroke-width:0.1;display:inline" points="28,38.5 28.6,38.5 28.6667,38 28.8,39 28.9333,38 29.0667,39 29.2,38 29.3333,39 29.4,38.5 30,38.5 " id="polyline368"/>
    <polyline transform="translate(-5.495373,-10.545761)" style="fill:none;stroke:#ff0000;stroke-width:0.1;display:inline" points="6,40.5 6.6,40.5 6.66667,40 6.8,41 6.93333,40 7.06667,41 7.2,40 7.33333,41 7.4,40.5 8,40.5 " id="polyline386"/>
    <polyline transform="translate(-5.495373,-10.545761)" style="fill:none;stroke:#ff0000;stroke-width:0.1;display:inline" points="28,40.5 28.6,40.5 28.6667,40 28.8,41 28.9333,40 29.0667,41 29.2,40 29.3333,41 29.4,40.5 30,40.5 " id="polyline388"/>
    <polyline transform="translate(-5.495373,-10.545761)" style="fill:none;stroke:#ff0000;stroke-width:0.1;display:inline" points="44,40.5 44.6,40.5 44.6667,40 44.8,41 44.9333,40 45.0667,41 45.2,40 45.3333,41 45.4,40.5 46,40.5 " id="polyline400"/>
    <polyline transform="translate(-5.495373,-10.545761)" style="fill:none;stroke:#ff0000;stroke-width:0.1;display:inline" points="60,1.5 60.6,1.5 60.6667,1 60.8,2 60.9333,1 61.0667,2 61.2,1 61.3333,2 61.4,1.5 62,1.5 " id="polyline346"/>
    <polyline transform="translate(-5.495373,-10.545761)" style="fill:none;stroke:#ff0000;stroke-width:0.1;display:inline" points="43,1.5 43.6,1.5 43.6667,1 43.8,2 43.9333,1 44.0667,2 44.2,1 44.3333,2 44.4,1.5 45,1.5 " id="polyline348"/>
    <polyline transform="translate(-5.495373,-10.545761)" style="fill:none;stroke:#ff0000;stroke-width:0.1;display:inline" points="59,20.5 59.6,20.5 59.6667,20 59.8,21 59.9333,20 60.0667,21 60.2,20 60.3333,21 60.4,20.5 61,20.5 " id="polyline356"/>
    <polyline transform="translate(-5.495373,-10.545761)" style="fill:none;stroke:#ff0000;stroke-width:0.1;display:inline" points="67,1.5 67.6,1.5 67.6667,1 67.8,2 67.9333,1 68.0667,2 68.2,1 68.3333,2 68.4,1.5 69,1.5 " id="polyline358"/>
    <polyline transform="translate(-5.495373,-10.545761)" style="fill:none;stroke:#ff0000;stroke-width:0.1;display:inline" points="65,20.5 65.6,20.5 65.6667,20 65.8,21 65.9333,20 66.0667,21 66.2,20 66.3333,21 66.4,20.5 67,20.5 " id="polyline360"/>
    <polyline transform="translate(-5.495373,-10.545761)" style="fill:none;stroke:#ff0000;stroke-width:0.1;display:inline" points="70.5,7 70.5,7.6 70,7.66667 71,7.8 70,7.93333 71,8.06667 70,8.2 71,8.33333 70.5,8.4 70.5,9 " id="polyline362"/>
    <polyline transform="translate(-5.495373,-10.545761)" style="fill:none;stroke:#ff0000;stroke-width:0.1;display:inline" points="70.5,14 70.5,14.6 70,14.6667 71,14.8 70,14.9333 71,15.0667 70,15.2 71,15.3333 70.5,15.4 70.5,16 " id="polyline364"/>
    <polyline transform="translate(-5.495373,-10.545761)" style="fill:none;stroke:#ff0000;stroke-width:0.1;display:inline" points="55.5,27 55.5,27.6 55,27.6667 56,27.8 55,27.9333 56,28.0667 55,28.2 56,28.3333 55.5,28.4 55.5,29 " id="polyline366"/>
    <polyline transform="translate(-5.495373,-10.545761)" style="fill:none;stroke:#ff0000;stroke-width:0.1;display:inline" points="11,1.5 11.6,1.5 11.6667,1 11.8,2 11.9333,1 12.0667,2 12.2,1 12.3333,2 12.4,1.5 13,1.5 " id="polyline372"/>
    <polyline transform="translate(-5.495373,-10.545761)" style="fill:none;stroke:#ff0000;stroke-width:0.1;display:inline" points="6.5,6 6.5,6.6 6,6.66667 7,6.8 6,6.93333 7,7.06667 6,7.2 7,7.33333 6.5,7.4 6.5,8 " id="polyline374"/>
    <polyline transform="translate(-5.495373,-10.545761)" style="fill:none;stroke:#ff0000;stroke-width:0.1;display:inline" points="6.5,3 6.5,3.6 6,3.66667 7,3.8 6,3.93333 7,4.06667 6,4.2 7,4.33333 6.5,4.4 6.5,5 " id="polyline376"/>
    <polyline transform="translate(-5.495373,-10.545761)" style="fill:none;stroke:#ff0000;stroke-width:0.1;display:inline" points="6.5,18 6.5,18.6 6,18.6667 7,18.8 6,18.9333 7,19.0667 6,19.2 7,19.3333 6.5,19.4 6.5,20 " id="polyline378"/>
    <polyline transform="translate(-5.495373,-10.545761)" style="fill:none;stroke:#ff0000;stroke-width:0.1;display:inline" points="9,1.5 9.6,1.5 9.66667,1 9.8,2 9.93333,1 10.0667,2 10.2,1 10.3333,2 10.4,1.5 11,1.5 " id="polyline380"/>
    <polyline transform="translate(-5.495373,-10.545761)" style="fill:none;stroke:#ff0000;stroke-width:0.1;display:inline" points="29,1.5 29.6,1.5 29.6667,1 29.8,2 29.9333,1 30.0667,2 30.2,1 30.3333,2 30.4,1.5 31,1.5 " id="polyline382"/>
    <polyline transform="translate(-5.495373,-10.545761)" style="fill:none;stroke:#ff0000;stroke-width:0.1;display:inline" points="16,1.5 16.6,1.5 16.6667,1 16.8,2 16.9333,1 17.0667,2 17.2,1 17.3333,2 17.4,1.5 18,1.5 " id="polyline384"/>
    <polyline transform="translate(-5.495373,-10.545761)" style="fill:none;stroke:#ff0000;stroke-width:0.1;display:inline" points="70.5,28 70.5,28.6 70,28.6667 71,28.8 70,28.9333 71,29.0667 70,29.2 71,29.3333 70.5,29.4 70.5,30 " id="polyline390"/>
    <polyline transform="translate(-5.495373,-10.545761)" style="fill:none;stroke:#ff0000;stroke-width:0.1;display:inline" points="70.5,30 70.5,30.6 70,30.6667 71,30.8 70,30.9333 71,31.0667 70,31.2 71,31.3333 70.5,31.4 70.5,32 " id="polyline392"/>
    <polyline transform="translate(-5.495373,-10.545761)" style="fill:none;stroke:#ff0000;stroke-width:0.1;display:inline" points="70.5,22 70.5,22.6 70,22.6667 71,22.8 70,22.9333 71,23.0667 70,23.2 71,23.3333 70.5,23.4 70.5,24 " id="polyline394"/>
    <polyline transform="translate(-5.495373,-10.545761)" style="fill:none;stroke:#ff0000;stroke-width:0.1;display:inline" points="49,1.5 49.6,1.5 49.6667,1 49.8,2 49.9333,1 50.0667,2 50.2,1 50.3333,2 50.4,1.5 51,1.5 " id="polyline396"/>
    <polyline transform="translate(-5.495373,-10.545761)" style="fill:none;stroke:#ff0000;stroke-width:0.1;display:inline" points="45,1.5 45.6,1.5 45.6667,1 45.8,2 45.9333,1 46.0667,2 46.2,1 46.3333,2 46.4,1.5 47,1.5 " id="polyline398"/>
    <polyline transform="translate(-5.495373,-10.545761)" style="fill:none;stroke:#ff0000;stroke-width:0.1;display:inline" points="22,1.5 22.6,1.5 22.6667,1 22.8,2 22.9333,1 23.0667,2 23.2,1 23.3333,2 23.4,1.5 24,1.5 " id="polyline402"/>
    <polyline transform="translate(-5.495373,-10.545761)" style="fill:none;stroke:#ff0000;stroke-width:0.1;display:inline" points="3.5,29 3.5,30.8 3,31 4,31.4 3,31.8 4,32.2 3,32.6 4,33 3.5,33.2 3.5,35 " id="polyline404"/>
    <polyline transform="translate(-5.495373,-10.545761)" style="fill:none;stroke:#ff0000;stroke-width:0.1;display:inline" points="28,19.5 28.6,19.5 28.6667,19 28.8,20 28.9333,19 29.0667,20 29.2,19 29.3333,20 29.4,19.5 30,19.5 " id="polyline354"/>
    <polyline transform="translate(-5.495373,-10.545761)" style="fill:none;stroke:#ff0000;stroke-width:0.1;display:inline" points="18,16.5 18.6,16.5 18.6667,16 18.8,17 18.9333,16 19.0667,17 19.2,16 19.3333,17 19.4,16.5 20,16.5 " id="polyline370"/>
  </g></svg>
