<?xml version="1.0" encoding="UTF-8" standalone="no"?>
<!-- Generator: Adobe Illustrator 20.1.0, SVG Export Plug-In . SVG Version: 6.00 Build 0)  -->

<svg
   version="1.1"
   viewBox="0 0 52 48.001999"
   id="svg12"
   sodipodi:docname="svg.svg"
   inkscape:version="1.3.2 (091e20ef0f, 2023-11-25)"
   inkscape:export-filename="../../../Downloads/images/school book.png"
   inkscape:export-xdpi="171.69231"
   inkscape:export-ydpi="171.69231"
   xmlns:inkscape="http://www.inkscape.org/namespaces/inkscape"
   xmlns:sodipodi="http://sodipodi.sourceforge.net/DTD/sodipodi-0.dtd"
   xmlns="http://www.w3.org/2000/svg"
   xmlns:svg="http://www.w3.org/2000/svg">
  <defs
     id="defs12" />
  <sodipodi:namedview
     id="namedview12"
     pagecolor="#505050"
     bordercolor="#ffffff"
     borderopacity="1"
     inkscape:showpageshadow="0"
     inkscape:pageopacity="0"
     inkscape:pagecheckerboard="1"
     inkscape:deskcolor="#d1d1d1"
     inkscape:zoom="17.703125"
     inkscape:cx="25.984113"
     inkscape:cy="23.978817"
     inkscape:window-width="3440"
     inkscape:window-height="1363"
     inkscape:window-x="0"
     inkscape:window-y="40"
     inkscape:window-maximized="1"
     inkscape:current-layer="svg12"
     inkscape:export-bgcolor="#ffacac00" />
  <linearGradient
     id="SVGID_1__44842"
     gradientUnits="userSpaceOnUse"
     x1="32"
     y1="7.7549"
     x2="32"
     y2="29.041599"
     spreadMethod="reflect"
     gradientTransform="translate(-6,-7.998)">
    <stop
       offset="0"
       style="stop-color:#6DC7FF"
       id="stop1" />
    <stop
       offset="1"
       style="stop-color:#E6ABFF"
       id="stop2" />
  </linearGradient>
  <path
     style="fill:#fad4ff;fill-opacity:1;fill-rule:evenodd;stroke:none;stroke-width:2.8;stroke-linejoin:round;stroke-miterlimit:12;stroke-opacity:0.353947;paint-order:stroke fill markers"
     d="M 4.7981507,38.675786 5.3455384,17.480398 c 0,0 20.2302416,-13.2992821 20.2867776,-13.6214807 0.05654,-0.3221986 21.846352,14.4831047 21.846352,14.4831047 L 47.25419,38.922307 30.912381,38.893177 26.76233,41.96512 25.700737,42.071222 22.704703,39.248896 Z"
     id="path13"
     sodipodi:nodetypes="ccsccccccc" />
  <path
     style="fill:url(#SVGID_1__44842)"
     d="M 23.753,1.7 2.086,16.461 C 1.407,16.924 1,17.694 1,18.517 v 0 c 0,1.996 2.229,3.177 3.876,2.055 L 23.753,7.711 c 1.356,-0.924 3.139,-0.924 4.495,0 L 47.124,20.572 C 48.771,21.694 51,20.512 51,18.517 v 0 c 0,-0.823 -0.407,-1.593 -1.086,-2.055 L 28.247,1.7 c -1.356,-0.924 -3.138,-0.924 -4.494,0 z"
     id="path2" />
  <linearGradient
     id="SVGID_2__44842"
     gradientUnits="userSpaceOnUse"
     x1="32"
     y1="7.5"
     x2="32"
     y2="56.655399"
     spreadMethod="reflect"
     gradientTransform="translate(-6,-7.998)">
    <stop
       offset="0"
       style="stop-color:#1A6DFF"
       id="stop3" />
    <stop
       offset="1"
       style="stop-color:#C822FF"
       id="stop4" />
  </linearGradient>
  <path
     style="fill:#aeaeff;fill-opacity:1;fill-rule:evenodd;stroke:none;stroke-width:2.8;stroke-linejoin:round;stroke-miterlimit:12;stroke-opacity:0.353947;paint-order:stroke fill markers"
     d="m 3.3877469,39.213125 18.1249531,0.284537 4.578041,3.081922 4.109547,-3.446419 18.928072,0.05944 c 0,0 -0.524678,6.203948 -0.355069,5.596998 0.169608,-0.606951 -18.278403,0.07939 -18.278403,0.07939 l -1.241092,2.029301 -6.134402,0.119918 -2.193423,-2.477214 -17.6084389,0.488101 c 0,0 -0.2933576,-5.124853 0.070215,-5.815972 z"
     id="path14" />
  <path
     style="fill:url(#SVGID_2__44842)"
     d="m 50,40.007 c 0,-1.103 -0.897,-2.005 -2,-2.005 H 32 c -2.548,0 -4.775,1.373 -6,3.414 -1.225,-2.041 -3.452,-3.414 -6,-3.414 H 4 c -1.103,0 -2,0.902 -2,2.005 v 3.995 H 0 v 2 h 21 c 0,1 0.897,2 2,2 h 6 c 1.103,0 2,-1 2,-2 h 21 v -2 H 50 Z M 21,44.002 H 4 v -4 h 16 c 2.757,0 5,2.248 5,5.005 v 0.995 h -2 c 0,-1 -0.897,-2 -2,-2 z m 8,2 h -2 v -0.995 c 0,-2.757 2.243,-5.005 5,-5.005 h 16 v 4 H 31 c -1.103,0 -2,1 -2,2 z"
     id="path4" />
  <linearGradient
     id="SVGID_3__44842"
     gradientUnits="userSpaceOnUse"
     x1="32"
     y1="7.5050001"
     x2="32"
     y2="56.653599"
     spreadMethod="reflect"
     gradientTransform="translate(-6,-7.998)">
    <stop
       offset="0"
       style="stop-color:#1A6DFF"
       id="stop5" />
    <stop
       offset="1"
       style="stop-color:#C822FF"
       id="stop6" />
  </linearGradient>
  <path
     style="fill:url(#SVGID_3__44842)"
     d="M 1.855,21.6 C 2.526,21.954 3.277,22.068 4,21.958 V 36.002 H 6 V 21.017 L 24.315,8.538 c 1.023,-0.695 2.347,-0.695 3.368,0 L 46,21.016 v 14.986 h 2 V 21.964 c 0.172,0.026 0.345,0.04 0.519,0.04 0.557,0 1.114,-0.134 1.626,-0.404 C 51.289,20.994 52,19.813 52,18.517 52,17.362 51.431,16.285 50.478,15.635 L 28.81,0.873 c -1.707,-1.164 -3.912,-1.164 -5.619,0 L 1.523,15.635 C 0.569,16.284 0,17.361 0,18.517 0,19.813 0.711,20.994 1.855,21.6 Z M 2.649,17.287 24.315,2.525 c 1.023,-0.695 2.347,-0.695 3.368,0 l 21.668,14.762 c 0.407,0.278 0.649,0.737 0.649,1.23 0,0.562 -0.296,1.053 -0.79,1.314 -0.494,0.26 -1.063,0.229 -1.522,-0.085 L 28.81,6.885 C 27.956,6.303 26.979,6.013 26,6.013 c -0.979,0 -1.957,0.29 -2.811,0.872 L 4.313,19.746 C 3.851,20.061 3.285,20.093 2.79,19.831 2.296,19.569 2,19.078 2,18.517 2,18.024 2.242,17.565 2.649,17.287 Z"
     id="path6" />
  <linearGradient
     id="SVGID_4__44842"
     gradientUnits="userSpaceOnUse"
     x1="32.5"
     y1="7.5"
     x2="32.5"
     y2="56.655399"
     spreadMethod="reflect"
     gradientTransform="translate(-6,-7.998)">
    <stop
       offset="0"
       style="stop-color:#1A6DFF"
       id="stop7" />
    <stop
       offset="1"
       style="stop-color:#C822FF"
       id="stop8" />
  </linearGradient>
  <path
     style="fill:url(#SVGID_4__44842)"
     d="M 32,36.002 V 25.007 c 0,-1.103 -0.897,-2.005 -2,-2.005 h -7 c -1.103,0 -2,0.902 -2,2.005 v 10.995 h 2 v -7 h 7 v 7 z m -9,-9 v -2 h 7 v 2 z"
     id="path8" />
  <linearGradient
     id="SVGID_5__44842"
     gradientUnits="userSpaceOnUse"
     x1="44"
     y1="7.5"
     x2="44"
     y2="56.655399"
     spreadMethod="reflect"
     gradientTransform="translate(-6,-7.998)">
    <stop
       offset="0"
       style="stop-color:#1A6DFF"
       id="stop9" />
    <stop
       offset="1"
       style="stop-color:#C822FF"
       id="stop10" />
  </linearGradient>
  <path
     style="fill:url(#SVGID_5__44842)"
     d="m 42,25.002 c 0,-1.105 -0.895,-2 -2,-2 h -4 c -1.105,0 -2,0.895 -2,2 v 4 c 0,1.105 0.895,2 2,2 h 4 c 1.105,0 2,-0.895 2,-2 z m -2,4 h -4 v -4 h 4 z"
     id="path10" />
  <linearGradient
     id="SVGID_6__44842"
     gradientUnits="userSpaceOnUse"
     x1="21"
     y1="7.5"
     x2="21"
     y2="56.655399"
     spreadMethod="reflect"
     gradientTransform="translate(-6,-7.998)">
    <stop
       offset="0"
       style="stop-color:#1A6DFF"
       id="stop11" />
    <stop
       offset="1"
       style="stop-color:#C822FF"
       id="stop12" />
  </linearGradient>
  <path
     style="fill:url(#SVGID_6__44842)"
     d="m 19,25.002 c 0,-1.105 -0.895,-2 -2,-2 h -4 c -1.105,0 -2,0.895 -2,2 v 4 c 0,1.105 0.895,2 2,2 h 4 c 1.105,0 2,-0.895 2,-2 z m -2,4 h -4 v -4 h 4 z"
     id="path12" />
</svg>
