<?xml version="1.0" encoding="UTF-8" standalone="no"?>
<svg
  version="1.1"
  viewBox="0 0 4800 4800"
  xmlns="http://www.w3.org/2000/svg"
>
  <title>Hawk W/ Fish</title>
  <defs>
    <style type="text/css">
      path {
        fill: black;
        stroke: none;
      }
      @media (prefers-color-scheme: dark) {
        :root {
          background-color: #00000088;
        }
        path {
          fill: white;
        }
      }
    </style>
  </defs>
  <path
    d="m 2540.0416,3195.9747 38.32,41.9867 c 17.4267,16.8133 25.88,16.4533 55.7867,17.4 68.3733,2.16 76.1867,-17.2267 97.2,44.6 -59.2,15.1467 -119.1867,19.3867 -177.92,-5.16 z m -912.88,-123.9466 c 7.2,0 13.0267,5.84 13.0267,13.0266 0,17.1334 -26.0533,17.1334 -26.0533,0 0,-7.1866 5.84,-13.0266 13.0266,-13.0266 z m -76.4,125.2666 c 8.9467,-85.0133 -178.9066,-91.84 -77.08,-133.9866 64.8667,-26.8534 141.9867,-46.5867 218.0534,-52.8534 114.0933,-9.4 187.5333,9.8267 231.4533,15.32 10.2533,-35.3866 38.12,-66.16 89.7333,-57.5333 62.8534,10.4933 101.6134,57.04 137.7334,-13.4533 140.2133,-273.68 62.52,-229.0267 -107.96,-345.4933 -93.32,-63.7467 -196.4534,-183.16 -356.2534,-186.5334 -113.04,-2.3866 -151.2,84.5734 -166.0533,113.48 -198.7026,-70.12 58.84,-343.08 72.08,-368.0533 -72.92,-55.76 -288.324,-102.4667 -318.9266,-199.4933 l 119.0999,1.6666 C 1276.363,1923.6548 1092.587,1831.7881 1070.6257,1738.0548 l 57.98,-9.6267 c -88.1814,-48.9467 -256.1667,-126.2133 -271.5107,-227.6133 78.63066,11.96 241.072,88.84 290.588,34.4266 -81.8187,-12.9466 -79.2507,-9.7466 -151.21201,-46.2666 -43.82133,-22.24 -84.06666,-47.2267 -120.99333,-72.5067 -45.40266,-31.0933 -224.89599,-191.5066 -200.78133,-292.92 74.252,24.6934 170.44133,80.2 251.612,112.5734 138.00797,55.04 347.75337,142.6266 491.90667,166.6533 l 29.2933,7.8133 c 31.8533,5.2933 28,7.08 66.52,14.8933 91.2933,42.52 387.6667,84.2267 532.5333,275.2134 13.8,18.1866 10.2267,15.8133 20.3467,32.44 l 31.8933,40.1466 c 94.04,-199.44 610.12,-264.1333 880.76,-316.2533 86.52,-16.6667 262.12,-61.1067 331.9733,-61.6133 l 138.28,-35.32 c 256.6534,-51.64 534.0667,-129.4533 677.7067,-361.62668 -19.3067,226.65338 -88.8,285.18668 -263.1733,422.17328 -1.1067,-2 -4.24,4.5734 -6.3867,6.84 35.8667,-8.0533 130.8667,-48.0666 159.9867,-50.8 -17.1867,103.5467 -118.7734,203.4 -216.3734,235.5067 l 66.0667,17.2533 c -81.0133,186.68 -234.8133,161.2 -338.6,191.2534 l 85.4267,19.56 c -33.4134,84.8133 -221.96,149.68 -341.6267,175.9733 56.7733,11.16 134.2267,4.48 91.92,33.44 -97.7733,102.1067 -157.7067,126.48 -345,138.84 29.52,17.5467 71.5733,21.7867 111.0133,30.52 -28.64,108.8933 -139.9066,134.68 -230.24,148.72 l -55.56,17.8 c 45.0134,15.7867 67.5067,22.2267 91.52,52.0133 -67.3466,65.1334 -179.8933,43.4 -274.8533,32.32 l 37.7467,32.44 c 53.96,39.4934 88.72,38.8 110.68,86.7067 -61.8534,19.9333 -89.7467,31.4667 -170.7333,29.4533 13.5066,23.8133 219.4133,183.7467 380.0533,306.2 47.2666,36.0133 241.32,173.6133 276.7066,224.0267 -82.9866,75.2133 -72.72,83.0933 -182.88,114.64 -57.7066,16.5333 -64.6666,78.9866 -252.6933,80.8266 -69.2133,0.68 -181.1733,61.8267 -382.1066,23.4 -58.0134,-12.5333 -86.8,-43.2666 -125.88,-65.48 -3.08,-70.2533 30.4133,-179.2266 -19.3734,-218.5066 -11.6666,-9.1867 -35.28,-16.7467 -56.2266,-15.1334 -18.0267,1.3867 -40.9867,9.5334 -31.5067,30.7467 11.7467,26.2933 41.9067,92.9333 -14.3867,100.9333 27.32,40.2534 -3.8533,31 -2.04,46.1067 35.0667,63.12 45.5734,162.3467 14.1067,233.708 -57.4133,130.208 -174.36,139.4 -269.1067,160.0173 -62.1733,13.5227 -53.5466,25.988 -85.4133,57.3294 -20.8533,20.5106 -112.88,99.4333 -148.56,103.8626 -68.6533,8.524 28.72,-131.0613 -7.6667,-206.3626 -20.0933,-41.588 -94.88,-83.8254 -91.8266,-136.1814 55.7733,-65.2133 377.8666,115.4787 488.1866,-45.7066 26.0267,-38.0267 25.36,-75.36 19.04,-109.84 -17.4,-95.1334 -95.9333,-127.2 -150.72,-98.84 63.6934,3.52 110.76,68.2133 108.4,135.7333 -1.9066,54.2267 -51.4533,100.8933 -159.7866,96.8267 5.3866,-39.68 3.2133,-54.3334 -26.72,-67.3867 -11.3867,24.1733 -4.16,35.76 -29.5734,52.1867 -95.3466,61.6306 -96.7466,-18.3334 -96.08,-93.8 -9.9466,23.9733 -4.6533,45.0666 -20.5733,58.2 -11.2133,9.2533 -34.4667,25.7466 -53.9467,17.68 -51.56,-21.3734 2.9334,-78.92 8.84,-100.2267 -37.88,-18.44 -124.3066,-25.76 -175.92,-47.5733 -138.8666,-58.6534 -128.9066,-129.16 -82.4933,-99.0667 17.3867,11.2667 40.6267,40.3333 81.5733,40.4933 z m 640.4534,-148.0666 0.8533,2.2666 c 54.8267,2.0267 57.3867,-8.2533 99.56,-11.9333 126.8667,-11.0933 24.4533,94.04 170.6267,-25.12 29.7066,52.4267 -0.68,29.6267 45.44,37.92 l 69.0266,-105.1067 c 0.7334,1.8267 4.6934,-2.0133 5.72,-2.32 43.16,-12.9066 28.4667,1.56 51.3067,-22.8933 l 44,-69 c 24.0267,14.8 11.5867,4.68 31.6933,26.7867 32.7467,36.0133 17.3067,31.3866 80.84,92.2666 143.32,137.3334 180.1733,297.36 412.9867,195.5467 -112.4134,-127.84 -520.1067,-426.96 -620.88,-505.9733 -89.8,-66.5067 -138.9867,-79.8133 -194.3867,-179.52 96.9067,22.56 135.8934,70.0267 264.6667,68.3867 -24.6,-39.4 -37.64,-27.48 -77.4933,-75.4534 -29.1734,-35.1066 -45.0934,-55.7466 -55.44,-105.9333 85.2533,19.8667 147.5066,58.32 248.8933,40.7333 -57.8933,-27.16 -184.1467,-70.76 -216.96,-119.9866 101.24,2.64 405.9066,47.0933 455.5866,-31.6267 -159.32,-57.2933 -217.08,-60.48 -348.7333,-151.0133 177.6667,-1.16 413.88,66.6533 562.6933,-36.04 -20.7733,-10.9467 -226.68,-75.1467 -291.32,-101.4667 146.9067,-14.1733 492.7734,16.72 546.76,-104.64 -104.9066,-2.88 -185.88,-17.3867 -268.5466,-45.68 61.6,-55.7867 333.1066,-5.5867 456.2666,-134.28 -76.04,-2.1467 -115.0933,34.3733 -344.1066,16.96 105.32,-62.48 371.6266,-37.6267 444.3866,-170.84 -99.6666,8.6267 -307.7466,57.4533 -410.8666,2.12 -18.68,-10.0133 -10.4667,-4.9467 -23.1467,-16.8267 131.48,-23.84 322.4,-52.84 378.36,-144.2133 l -497.96,111.24 c -176.4933,34.5733 -357.08,57.4 -531.0666,95.2667 -211.1734,45.96 -520.8,97.4666 -574.96,348.64 -34.1867,158.4933 30.0933,151.8 68.92,229.88 -84.7467,-17.96 -85.8267,-59.8534 -131.8934,-91.0534 -33.44,20.4534 -52.68,41.0134 -67.8533,86.6134 36.3467,28.1866 100.7733,95.5733 113.28,165.56 l -105.48,-18.9334 c 34.6667,77.0134 98.84,79.9067 126.2933,204.1067 l -93.3333,-23.2133 c 37.96,63.5733 84.28,108.4133 148.2133,148.1066 174.8667,108.5733 184.88,60.24 203.5067,67.48 74.92,195.4 -145.8667,325.1333 -175.4533,353.1867 z m 120.0133,-798.2933 c 60.7333,127.88 129.1467,188.2933 249.3733,260.4266 -123.9333,-45.28 -249.3733,-110.8266 -249.3733,-260.4266 z m 53.6533,-134.16 c 200.9334,91.4933 302.5734,124.72 514.5467,162.5733 -192.52,8.4933 -403.2133,13.2133 -514.5467,-162.5733 z m 73.4,-165.72 c 235.92,67.0533 407.36,104.3733 650.28,134.9466 -217.2533,13.5867 -471.6933,3.72 -650.28,-134.9466 z m 75.76,-99.44 c 257.4267,23.7733 509.96,45.6533 768.6667,48.9333 -278.0667,38.8667 -500.1867,23.2 -768.6667,-48.9333 z m 66.2934,-88.3867 c 261.9199,7.4267 503.8799,-8.4133 763.9199,-20.5067 -294.52,44.76 -464.64,69.24 -763.9199,20.5067 z m 243.0533,-69.44 c 233.4,-30.7067 474.9333,-72.2667 707.1066,-96.28 -278.1866,69.0533 -423.6133,96.28 -707.1066,96.28 z m -650.2667,170.4667 c 67.7067,-135.6134 181.12,-167.28 356.0267,-206.8534 242.2533,-54.7866 488.2533,-97.96 733.04,-140.3866 -237.24,87.7333 -474.16,112.4933 -720.0667,168.7733 -160.2666,36.6533 -277.2266,76.9733 -369,178.4667 z m -671.6133,167.2933 c 90.2133,28.8267 160.4533,27.6933 251.76,6.32 -84.56,48.8533 -171.92,48.8133 -251.76,-6.32 z m -298.308,-381.96 c 163.068,27.6 246.108,20.1333 410.3747,9.48 -119.4934,49.2 -293.824,50.8133 -410.3747,-9.48 z m 394.5347,648.3733 c 39.9733,12.6667 46.6533,-5.7733 56.5333,-34.1333 14.92,-25.84 18.6267,-28.4533 31.1867,-50.4533 -67.5734,34.7866 -89.4667,44.3066 -87.72,84.5866 z m 871.16,589.4533 c -10.2267,60.9734 -47.1334,84.0267 -75.9734,132.4934 46.76,-15.4267 54.4934,-11.84 80.1867,-64.6667 29.5867,17.6933 30.44,71.2667 87.1067,-43.6133 51.04,-103.4667 52.9733,3.08 52.4133,-94.0534 -94.1333,-3.4133 -32.5867,38.5067 -107.2667,112.76 z m 92.16,-193.8933 c 68.8666,55.3867 188.6399,167.7467 249.4666,220.5467 71.5067,62.0533 146.8267,122.9866 197.6533,173.56 23.96,23.8266 63.96,69.12 103.56,75.9466 63.7467,10.9867 22.5067,-27.4266 3.72,-43.6133 -37.9333,-29.48 -512.3999,-404.1467 -554.3999,-426.44 z M 1304.5537,1828.5081 c 292.5813,76.52 327.7679,32.0667 520.5946,50.1333 -140.1067,73.08 -383.7467,26.88 -520.5946,-50.1333 z m 233.5146,-291.2133 c 157.0533,15.8 421.8933,144.7333 459.4133,294.2666 -247.8266,-211.92 -304.6533,-183.72 -459.4133,-294.2666 z m 864.8933,1729.9333 -2.1733,-103.0934 c 55.8,179.4667 88.6667,40.5867 93.6667,156.1867 -50.8534,-7.32 -62.04,-28.1333 -91.4934,-53.0933 z m 248.5867,-227.9867 1.24,-9.2667 c 2.4933,0.2 131.0266,187.4 141.2133,206.6 163.76,20.0134 144.52,-62.1466 196.9867,19.88 -99.3734,39.3734 -111.08,42.28 -220.8667,34.0267 z M 1923.575,2158.3348 c 29.2533,16.0266 38.04,19.32 58.0933,49.2 10.8533,16.16 17.6,34.4666 21.5333,51.8 -50.7466,3.6133 -91.24,7.2933 -131.52,8.8266 33.56,62.4667 133.1467,72.84 155.1467,164.8667 l -96.4133,-27.76 25.0933,67.9733 c -80.68,-24.04 -120.6267,-83.4 -247.8533,-88.9733 -49.12,-2.1467 -95.2,5.6133 -135.0534,25.8667 -61.28,31.1466 -65.8266,61.6133 -73,73.7066 -40.16,-65.8 26.5867,-167.96 63.4934,-224.7733 21.7733,-33.4933 72.8533,-72.1867 107.8666,-94.4267 63.84,-40.56 223.4134,-103.52 311.92,-98.6266 -27.6133,12.8133 -61.84,51.64 -59.3066,92.32 z m -520.16,-600.0267 c -139.3547,-42.6 -219.808,-50.8 -338.3707,-114.8133 -75.85597,-40.9467 -209.91464,-143.3067 -236.80397,-197.4133 445.67997,215.3199 1088.40127,261.5199 1215.04127,545.7333 24.48,54.9466 -4.1733,143.84 -11.6933,212.7466 -137.88,18.1734 -214.84,42.0934 -323.2533,99.9734 -93.6934,50.0133 -265.3734,-55.7067 -289.3067,-88.3734 51.9733,-15.88 97.8133,-21.5066 143.48,-52.6933 -89.0133,-42.8133 -193.0133,-28.5067 -378.168,-172.4 7.92,-5.48 230.648,-67.0933 236.3413,-68.2667 -91.7266,-11.4 -139.6346,-8.32 -222.6466,-35.7466 -87.8,-29 -104.2347,-45.6134 -166.2573,-86.12 157.4306,1.4133 225.86,20 371.6373,-42.6267"
  />
</svg>