<?xml version="1.0" encoding="utf-8"?>
<!-- Svg Vector Icons : http://www.onlinewebfonts.com/icon -->
<!DOCTYPE svg PUBLIC "-//W3C//DTD SVG 1.1//EN" "http://www.w3.org/Graphics/SVG/1.1/DTD/svg11.dtd">
<svg version="1.1" xmlns="http://www.w3.org/2000/svg" xmlns:xlink="http://www.w3.org/1999/xlink" x="0px" y="0px" viewBox="0 0 1000 1000" enable-background="new 0 0 1000 1000" xml:space="preserve">
<metadata> Svg Vector Icons : http://www.onlinewebfonts.com/icon </metadata>
<g><g transform="translate(0.000000,511.000000) scale(0.100000,-0.100000)"><path d="M3527.1,4775.2C2149.7,4618.4,989.2,3612.1,652,2279.1C375,1184,662.5,18.3,1404.8-781.6c183-193.4,216.9-219.5,295.4-219.5c122.8,0,219.6,96.7,219.6,222.2c0,75.8-28.8,120.2-167.3,274.4C1530.2-264,1357.7,0,1237.5,282.3c-643,1487.2,28.8,3186.1,1513.3,3829.1c948.8,410.3,2085.8,266.6,2903.8-365.9c201.3-156.8,494-465.2,627.3-666.5c248.3-365.9,441.7-886.1,488.8-1312.1c36.6-342.4,149-407.7,444.3-258.8c595.9,298,1306.9,175.1,1790.4-311c305.8-305.8,449.6-650.8,452.2-1087.3c2.6-436.5-143.8-781.5-465.3-1097.8c-295.3-290.1-656-454.8-1001-457.4c-154.2,0-235.2-36.6-282.3-128.1c-49.7-96.7-31.4-185.6,54.9-266.6c57.5-52.3,78.4-57.5,305.8-41.8c831.2,49.7,1583.9,690,1785.2,1521.2c60.1,248.3,60.1,700.5,0,940.9c-81,321.5-258.7,643-491.4,888.7c-311,329.3-622.1,507.1-1048.1,601.2c-271.8,60.1-747.5,44.4-967.1-31.4l-149-52.3l-15.7,68c-41.8,198.6-151.6,551.5-219.6,710.9C6600.8,3622.6,5848.1,4317.8,4962,4613.2C4515.1,4762.2,3968.8,4824.9,3527.1,4775.2z"/><path d="M5124.1,734.4c-457.4-109.8-846.8-499.2-969.7-964.5c-88.9-345-20.9-546.3,180.3-546.3c143.8,0,203.9,75.8,227.4,287.5c41.8,334.6,230,603.8,520.1,739.7c120.2,57.5,180.4,68,365.9,68c185.6,0,245.7-10.4,368.5-68C6004.9,162,6166.9,0,6255.8-188.2c57.5-125.4,67.9-180.3,67.9-381.6c-2.6-196-13.1-258.8-65.3-365.9c-81-167.3-264-350.2-431.3-431.3l-130.7-65.3l-2733.9-13.1c-2616.3-13.1-2739.2-15.7-2788.8-62.7C69.2-1602.2,77-1769.5,192-1855.8c54.9-41.8,5389.5-47,5569.8-5.2c222.2,52.3,449.6,180.4,629.9,360.7c729.2,731.8,386.9,1976-616.8,2237.4C5586.7,784.1,5330.6,784.1,5124.1,734.4z"/><path d="M202.4-2383.8c-101.9-65.3-130.7-177.7-73.2-287.5c20.9-44.4,65.3-86.2,99.3-94.1c31.4-7.8,904.4-15.7,1939.4-20.9l1881.9-5.2l133.3-70.6c397.3-209.1,494-697.9,203.9-1035c-177.7-209.1-480.9-282.3-747.5-180.4c-219.6,83.6-413,355.5-413,577.6c0,88.8-62.7,214.3-117.6,235.2c-96.7,36.6-214.3,15.7-274.4-49.6c-52.3-57.5-57.5-81-47-253.5c31.4-494,433.9-912.2,954-993.2c433.9-67.9,930.5,185.6,1129.1,572.4c313.6,616.8,31.4,1338.2-616.8,1583.9c-149,57.5-167.3,57.5-2059.6,65.3C341-2334.1,283.5-2334.1,202.4-2383.8z"/><path d="M5589.3-2360.2c-143.8-57.5-183-248.3-75.8-352.9l62.7-65.3h1053.3c643,0,1089.9-10.5,1150-26.1c203.9-57.5,334.6-227.4,334.6-436.5c0-206.5-128.1-371.2-326.7-423.4c-271.8-67.9-512.3,107.2-554.1,405.1c-31.4,230-209.1,318.9-365.9,183c-65.3-57.5-73.2-78.4-70.6-219.5c7.9-397.3,316.3-739.7,742.3-818.1c410.4-73.2,836.4,180.3,982.7,582.9c52.3,143.8,52.3,446.9,0,590.7c-86.3,240.5-295.3,449.6-543.6,546.3c-99.3,39.2-250.9,47-1223.2,52.3C6143.4-2339.3,5618.1-2347.2,5589.3-2360.2z"/></g></g>
</svg>