# Exported from Wings 3D 0.98
mtllib sphere.mtl
#114 vertices, 128 faces
v 0.382683 0.923880 0.00000e+0
v 0.353553 0.923880 0.146447
v 0.270598 0.923880 0.270598
v 0.146447 0.923880 0.353553
v 2.34318e-17 0.923880 0.382683
v -0.146447 0.923880 0.353553
v -0.270598 0.923880 0.270598
v -0.353553 0.923880 0.146447
v -0.382683 0.923880 4.68637e-17
v -0.353553 0.923880 -0.146447
v -0.270598 0.923880 -0.270598
v -0.146447 0.923880 -0.353553
v -7.02955e-17 0.923880 -0.382683
v 0.146447 0.923880 -0.353553
v 0.270598 0.923880 -0.270598
v 0.353553 0.923880 -0.146447
v 0.707107 0.707107 0.00000e+0
v 0.653281 0.707107 0.270598
v 0.500000 0.707107 0.500000
v 0.270598 0.707107 0.653281
v 4.32964e-17 0.707107 0.707107
v -0.270598 0.707107 0.653281
v -0.500000 0.707107 0.500000
v -0.653281 0.707107 0.270598
v -0.707107 0.707107 8.65927e-17
v -0.653281 0.707107 -0.270598
v -0.500000 0.707107 -0.500000
v -0.270598 0.707107 -0.653281
v -1.29889e-16 0.707107 -0.707107
v 0.270598 0.707107 -0.653281
v 0.500000 0.707107 -0.500000
v 0.653281 0.707107 -0.270598
v 0.923880 0.382683 0.00000e+0
v 0.853553 0.382683 0.353553
v 0.653281 0.382683 0.653281
v 0.353553 0.382683 0.853553
v 5.65694e-17 0.382683 0.923880
v -0.353553 0.382683 0.853553
v -0.653281 0.382683 0.653281
v -0.853553 0.382683 0.353553
v -0.923880 0.382683 1.13139e-16
v -0.853553 0.382683 -0.353553
v -0.653281 0.382683 -0.653281
v -0.353553 0.382683 -0.853553
v -1.69708e-16 0.382683 -0.923880
v 0.353553 0.382683 -0.853553
v 0.653281 0.382683 -0.653281
v 0.853553 0.382683 -0.353553
v 1.00000 6.12303e-17 0.00000e+0
v 0.923880 6.12303e-17 0.382683
v 0.707107 6.12303e-17 0.707107
v 0.382683 6.12303e-17 0.923880
v 6.12303e-17 6.12303e-17 1.00000
v -0.382683 6.12303e-17 0.923880
v -0.707107 6.12303e-17 0.707107
v -0.923880 6.12303e-17 0.382683
v -1.00000 6.12303e-17 1.22461e-16
v -0.923880 6.12303e-17 -0.382683
v -0.707107 6.12303e-17 -0.707107
v -0.382683 6.12303e-17 -0.923880
v -1.83691e-16 6.12303e-17 -1.00000
v 0.382683 6.12303e-17 -0.923880
v 0.707107 6.12303e-17 -0.707107
v 0.923880 6.12303e-17 -0.382683
v 0.923880 -0.382683 0.00000e+0
v 0.853553 -0.382683 0.353553
v 0.653281 -0.382683 0.653281
v 0.353553 -0.382683 0.853553
v 5.65694e-17 -0.382683 0.923880
v -0.353553 -0.382683 0.853553
v -0.653281 -0.382683 0.653281
v -0.853553 -0.382683 0.353553
v -0.923880 -0.382683 1.13139e-16
v -0.853553 -0.382683 -0.353553
v -0.653281 -0.382683 -0.653281
v -0.353553 -0.382683 -0.853553
v -1.69708e-16 -0.382683 -0.923880
v 0.353553 -0.382683 -0.853553
v 0.653281 -0.382683 -0.653281
v 0.853553 -0.382683 -0.353553
v 0.707107 -0.707107 0.00000e+0
v 0.653281 -0.707107 0.270598
v 0.500000 -0.707107 0.500000
v 0.270598 -0.707107 0.653281
v 4.32964e-17 -0.707107 0.707107
v -0.270598 -0.707107 0.653281
v -0.500000 -0.707107 0.500000
v -0.653281 -0.707107 0.270598
v -0.707107 -0.707107 8.65927e-17
v -0.653281 -0.707107 -0.270598
v -0.500000 -0.707107 -0.500000
v -0.270598 -0.707107 -0.653281
v -1.29889e-16 -0.707107 -0.707107
v 0.270598 -0.707107 -0.653281
v 0.500000 -0.707107 -0.500000
v 0.653281 -0.707107 -0.270598
v 0.382683 -0.923880 0.00000e+0
v 0.353553 -0.923880 0.146447
v 0.270598 -0.923880 0.270598
v 0.146447 -0.923880 0.353553
v 2.34318e-17 -0.923880 0.382683
v -0.146447 -0.923880 0.353553
v -0.270598 -0.923880 0.270598
v -0.353553 -0.923880 0.146447
v -0.382683 -0.923880 4.68637e-17
v -0.353553 -0.923880 -0.146447
v -0.270598 -0.923880 -0.270598
v -0.146447 -0.923880 -0.353553
v -7.02955e-17 -0.923880 -0.382683
v 0.146447 -0.923880 -0.353553
v 0.270598 -0.923880 -0.270598
v 0.353553 -0.923880 -0.146447
v 0.00000e+0 1.00000 0.00000e+0
v 0.00000e+0 -1.00000 0.00000e+0
vn 0.382195 0.924082 -3.19454e-17
vn 0.353102 0.924082 0.146260
vn 0.270253 0.924082 0.270253
vn 0.146260 0.924082 0.353102
vn 7.09898e-18 0.924082 0.382195
vn -0.146260 0.924082 0.353102
vn -0.270253 0.924082 0.270253
vn -0.353102 0.924082 0.146260
vn -0.382195 0.924082 6.38908e-17
vn -0.353102 0.924082 -0.146260
vn -0.270253 0.924082 -0.270253
vn -0.146260 0.924082 -0.353102
vn -1.41980e-17 0.924082 -0.382195
vn 0.146260 0.924082 -0.353102
vn 0.270253 0.924082 -0.270253
vn 0.353102 0.924082 -0.146260
vn 0.706584 0.707629 -7.85876e-17
vn 0.652799 0.707629 0.270398
vn 0.499631 0.707629 0.499631
vn 0.270398 0.707629 0.652799
vn 7.14432e-18 0.707629 0.706584
vn -0.270398 0.707629 0.652799
vn -0.499631 0.707629 0.499631
vn -0.652799 0.707629 0.270398
vn -0.706584 0.707629 1.28598e-16
vn -0.652799 0.707629 -0.270398
vn -0.499631 0.707629 -0.499631
vn -0.270398 0.707629 -0.652799
vn -5.71546e-17 0.707629 -0.706584
vn 0.270398 0.707629 -0.652799
vn 0.499631 0.707629 -0.499631
vn 0.652799 0.707629 -0.270398
vn 0.923682 0.383160 -1.22222e-16
vn 0.853371 0.383160 0.353478
vn 0.653142 0.383160 0.653142
vn 0.353478 0.383160 0.853371
vn 0.00000e+0 0.383160 0.923682
vn -0.353478 0.383160 0.853371
vn -0.653142 0.383160 0.653142
vn -0.853371 0.383160 0.353478
vn -0.923682 0.383160 1.22222e-16
vn -0.853371 0.383160 -0.353478
vn -0.653142 0.383160 -0.653142
vn -0.353478 0.383160 -0.853371
vn -1.36601e-16 0.383160 -0.923682
vn 0.353478 0.383160 -0.853371
vn 0.653142 0.383160 -0.653142
vn 0.853371 0.383160 -0.353478
vn 1.00000 -7.20821e-18 -1.29748e-16
vn 0.923880 -1.44164e-17 0.382683
vn 0.707107 -7.20821e-18 0.707107
vn 0.382683 -1.44164e-17 0.923880
vn 0.00000e+0 -7.20821e-18 1.00000
vn -0.382683 0.00000e+0 0.923880
vn -0.707107 2.16246e-17 0.707107
vn -0.923880 7.20821e-18 0.382683
vn -1.00000 1.44164e-17 1.44164e-16
vn -0.923880 7.20821e-18 -0.382683
vn -0.707107 0.00000e+0 -0.707107
vn -0.382683 -7.20821e-18 -0.923880
vn -1.44164e-16 -7.20821e-18 -1.00000
vn 0.382683 1.44164e-17 -0.923880
vn 0.707107 7.20821e-18 -0.707107
vn 0.923880 7.20821e-18 -0.382683
vn 0.923682 -0.383160 -9.34639e-17
vn 0.853371 -0.383160 0.353478
vn 0.653142 -0.383160 0.653142
vn 0.353478 -0.383160 0.853371
vn 7.18953e-18 -0.383160 0.923682
vn -0.353478 -0.383160 0.853371
vn -0.653142 -0.383160 0.653142
vn -0.853371 -0.383160 0.353478
vn -0.923682 -0.383160 1.79738e-16
vn -0.853371 -0.383160 -0.353478
vn -0.653142 -0.383160 -0.653142
vn -0.353478 -0.383160 -0.853371
vn -7.90848e-17 -0.383160 -0.923682
vn 0.353478 -0.383160 -0.853371
vn 0.653142 -0.383160 -0.653142
vn 0.853371 -0.383160 -0.353478
vn 0.706584 -0.707629 -2.85773e-17
vn 0.652799 -0.707629 0.270398
vn 0.499631 -0.707629 0.499631
vn 0.270398 -0.707629 0.652799
vn 3.57216e-18 -0.707629 0.706584
vn -0.270398 -0.707629 0.652799
vn -0.499631 -0.707629 0.499631
vn -0.652799 -0.707629 0.270398
vn -0.706584 -0.707629 1.42886e-16
vn -0.652799 -0.707629 -0.270398
vn -0.499631 -0.707629 -0.499631
vn -0.270398 -0.707629 -0.652799
vn -7.14432e-17 -0.707629 -0.706584
vn 0.270398 -0.707629 -0.652799
vn 0.499631 -0.707629 -0.499631
vn 0.652799 -0.707629 -0.270398
vn 0.382195 -0.924082 -1.06485e-17
vn 0.353102 -0.924082 0.146260
vn 0.270253 -0.924082 0.270253
vn 0.146260 -0.924082 0.353102
vn -3.54949e-18 -0.924082 0.382195
vn -0.146260 -0.924082 0.353102
vn -0.270253 -0.924082 0.270253
vn -0.353102 -0.924082 0.146260
vn -0.382195 -0.924082 7.09898e-17
vn -0.353102 -0.924082 -0.146260
vn -0.270253 -0.924082 -0.270253
vn -0.146260 -0.924082 -0.353102
vn -8.51878e-17 -0.924082 -0.382195
vn 0.146260 -0.924082 -0.353102
vn 0.270253 -0.924082 -0.270253
vn 0.353102 -0.924082 -0.146260
vn -1.41603e-17 1.00000 -6.63765e-18
vn -1.41603e-17 -1.00000 -1.41603e-17
g sphere1_default
usemtl default
f 17//17 32//32 16//16 1//1
f 18//18 17//17 1//1 2//2
f 19//19 18//18 2//2 3//3
f 20//20 19//19 3//3 4//4
f 21//21 20//20 4//4 5//5
f 22//22 21//21 5//5 6//6
f 23//23 22//22 6//6 7//7
f 24//24 23//23 7//7 8//8
f 25//25 24//24 8//8 9//9
f 26//26 25//25 9//9 10//10
f 27//27 26//26 10//10 11//11
f 28//28 27//27 11//11 12//12
f 29//29 28//28 12//12 13//13
f 30//30 29//29 13//13 14//14
f 31//31 30//30 14//14 15//15
f 32//32 31//31 15//15 16//16
f 33//33 48//48 32//32 17//17
f 34//34 33//33 17//17 18//18
f 35//35 34//34 18//18 19//19
f 36//36 35//35 19//19 20//20
f 37//37 36//36 20//20 21//21
f 38//38 37//37 21//21 22//22
f 39//39 38//38 22//22 23//23
f 40//40 39//39 23//23 24//24
f 41//41 40//40 24//24 25//25
f 42//42 41//41 25//25 26//26
f 43//43 42//42 26//26 27//27
f 44//44 43//43 27//27 28//28
f 45//45 44//44 28//28 29//29
f 46//46 45//45 29//29 30//30
f 47//47 46//46 30//30 31//31
f 48//48 47//47 31//31 32//32
f 49//49 64//64 48//48 33//33
f 50//50 49//49 33//33 34//34
f 51//51 50//50 34//34 35//35
f 52//52 51//51 35//35 36//36
f 53//53 52//52 36//36 37//37
f 54//54 53//53 37//37 38//38
f 55//55 54//54 38//38 39//39
f 56//56 55//55 39//39 40//40
f 57//57 56//56 40//40 41//41
f 58//58 57//57 41//41 42//42
f 59//59 58//58 42//42 43//43
f 60//60 59//59 43//43 44//44
f 61//61 60//60 44//44 45//45
f 62//62 61//61 45//45 46//46
f 63//63 62//62 46//46 47//47
f 64//64 63//63 47//47 48//48
f 65//65 80//80 64//64 49//49
f 66//66 65//65 49//49 50//50
f 67//67 66//66 50//50 51//51
f 68//68 67//67 51//51 52//52
f 69//69 68//68 52//52 53//53
f 70//70 69//69 53//53 54//54
f 71//71 70//70 54//54 55//55
f 72//72 71//71 55//55 56//56
f 73//73 72//72 56//56 57//57
f 74//74 73//73 57//57 58//58
f 75//75 74//74 58//58 59//59
f 76//76 75//75 59//59 60//60
f 77//77 76//76 60//60 61//61
f 78//78 77//77 61//61 62//62
f 79//79 78//78 62//62 63//63
f 80//80 79//79 63//63 64//64
f 81//81 96//96 80//80 65//65
f 82//82 81//81 65//65 66//66
f 83//83 82//82 66//66 67//67
f 84//84 83//83 67//67 68//68
f 85//85 84//84 68//68 69//69
f 86//86 85//85 69//69 70//70
f 87//87 86//86 70//70 71//71
f 88//88 87//87 71//71 72//72
f 89//89 88//88 72//72 73//73
f 90//90 89//89 73//73 74//74
f 91//91 90//90 74//74 75//75
f 92//92 91//91 75//75 76//76
f 93//93 92//92 76//76 77//77
f 94//94 93//93 77//77 78//78
f 95//95 94//94 78//78 79//79
f 96//96 95//95 79//79 80//80
f 97//97 112//112 96//96 81//81
f 98//98 97//97 81//81 82//82
f 99//99 98//98 82//82 83//83
f 100//100 99//99 83//83 84//84
f 101//101 100//100 84//84 85//85
f 102//102 101//101 85//85 86//86
f 103//103 102//102 86//86 87//87
f 104//104 103//103 87//87 88//88
f 105//105 104//104 88//88 89//89
f 106//106 105//105 89//89 90//90
f 107//107 106//106 90//90 91//91
f 108//108 107//107 91//91 92//92
f 109//109 108//108 92//92 93//93
f 110//110 109//109 93//93 94//94
f 111//111 110//110 94//94 95//95
f 112//112 111//111 95//95 96//96
f 113//113 1//1 16//16
f 113//113 2//2 1//1
f 113//113 3//3 2//2
f 113//113 4//4 3//3
f 113//113 5//5 4//4
f 113//113 6//6 5//5
f 113//113 7//7 6//6
f 113//113 8//8 7//7
f 113//113 9//9 8//8
f 113//113 10//10 9//9
f 113//113 11//11 10//10
f 113//113 12//12 11//11
f 113//113 13//13 12//12
f 113//113 14//14 13//13
f 113//113 15//15 14//14
f 113//113 16//16 15//15
f 114//114 97//97 98//98
f 114//114 98//98 99//99
f 114//114 99//99 100//100
f 114//114 100//100 101//101
f 114//114 101//101 102//102
f 114//114 102//102 103//103
f 114//114 103//103 104//104
f 114//114 104//104 105//105
f 114//114 105//105 106//106
f 114//114 106//106 107//107
f 114//114 107//107 108//108
f 114//114 108//108 109//109
f 114//114 109//109 110//110
f 114//114 110//110 111//111
f 114//114 111//111 112//112
f 114//114 112//112 97//97
