# Exported from Wings 3D 0.98.15a
mtllib Wrench.mtl
o cube2
#76 vertices, 64 faces
v -0.650000 -0.122982 -4.47200
v -0.312260 -0.256000 -4.47200
v -0.650000 0.122982 -4.47200
v -0.312260 0.256000 -4.47200
v 0.312260 0.256000 -4.47200
v 0.650000 0.122982 -4.47200
v 0.650000 -0.122982 -4.47200
v 0.312260 -0.256000 -4.47200
v -0.650000 -0.122982 4.34902
v -0.312260 -0.256000 4.34902
v -0.650000 0.122982 4.34902
v -0.312260 0.256000 4.34902
v 0.312260 0.256000 4.34902
v 0.650000 0.122982 4.34902
v 0.650000 -0.122982 4.34902
v 0.312260 -0.256000 4.34902
v -0.543400 -0.102813 4.57939
v -0.261049 -0.214016 4.57939
v -0.543400 0.102813 4.57939
v -0.261049 0.214016 4.57939
v 0.261049 0.214016 4.57939
v 0.543400 0.102813 4.57939
v 0.543400 -0.102813 4.57939
v 0.261049 -0.214016 4.57939
v -7.04080e-2 3.20395e-2 4.76000
v -7.04080e-2 -3.20395e-2 4.76000
v -4.16962e-2 -4.33475e-2 4.76000
v 4.16962e-2 -4.33475e-2 4.76000
v 7.04080e-2 -3.20395e-2 4.76000
v 7.04080e-2 3.20395e-2 4.76000
v 4.16962e-2 4.33475e-2 4.76000
v -4.16962e-2 4.33475e-2 4.76000
v -0.312260 0.256000 -5.22800
v 0.312260 0.256000 -5.22800
v 0.312260 -0.256000 -5.22800
v -0.312260 -0.256000 -5.22800
v -0.312260 -0.256000 -5.22800
v -0.650000 -0.122982 -4.86501
v -0.312260 0.256000 -5.22800
v -0.650000 0.122982 -4.86501
v 0.312260 0.256000 -5.22800
v 0.650000 0.122982 -4.86501
v 0.312260 -0.256000 -5.22800
v 0.650000 -0.122982 -4.86501
v -1.23060 0.122982 -5.45059
v -0.756615 0.256000 -5.59608
v -0.756615 -0.256000 -5.59608
v -1.23060 -0.122982 -5.45059
v 1.23060 0.122982 -5.45059
v 1.23060 -0.122982 -5.45059
v 0.756615 -0.256000 -5.59608
v 0.756615 0.256000 -5.59608
v -1.21263 0.122982 -6.23948
v -0.774590 0.256000 -6.00719
v -0.774590 -0.256000 -6.00719
v -1.21263 -0.122982 -6.23948
v 1.21263 0.122982 -6.23948
v 1.21263 -0.122982 -6.23948
v 0.774590 -0.256000 -6.00719
v 0.774590 0.256000 -6.00719
v 0.580911 -0.256000 -6.44333
v 0.580911 0.256000 -6.44333
v 1.00683 0.122982 -6.58796
v 1.00683 -0.122982 -6.58796
v 0.639232 0.226526 -6.53643
v 0.757138 0.186339 -6.59837
v 0.757138 -0.186339 -6.59837
v 0.639232 -0.226526 -6.53643
v -0.612276 0.219931 -6.60026
v -0.558711 0.256000 -6.41430
v -0.612276 -0.219931 -6.60026
v -0.558711 -0.256000 -6.41430
v -0.822653 0.156046 -6.71182
v -0.991312 0.122982 -6.65683
v -0.822653 -0.156046 -6.71182
v -0.991312 -0.122982 -6.65683
vn -0.826574 -0.562828 0.00000e+0
vn -0.186497 -0.982456 0.00000e+0
vn -0.742098 0.670291 0.00000e+0
vn 0.168573 0.985689 0.00000e+0
vn 0.186497 0.982456 0.00000e+0
vn 0.826574 0.562828 0.00000e+0
vn 0.742098 -0.670291 0.00000e+0
vn -0.168573 -0.985689 0.00000e+0
vn -0.803333 -0.559976 0.202689
vn -0.184750 -0.976811 0.108200
vn -0.803333 0.559976 0.202689
vn -0.184750 0.976811 0.108200
vn 0.184750 0.976811 0.108200
vn 0.803333 0.559976 0.202689
vn 0.803333 -0.559976 0.202689
vn 0.184750 -0.976811 0.108200
vn -0.548312 -0.435885 0.713693
vn -0.153769 -0.846900 0.509034
vn -0.548312 0.435885 0.713693
vn -0.153769 0.846900 0.509034
vn 0.153769 0.846900 0.509034
vn 0.548312 0.435885 0.713693
vn 0.548312 -0.435885 0.713693
vn 0.153769 -0.846900 0.509034
vn -0.202770 0.196852 0.959236
vn -0.202770 -0.196852 0.959236
vn -7.86629e-2 -0.458638 0.885135
vn 7.86629e-2 -0.458638 0.885135
vn 0.202770 -0.196852 0.959236
vn 0.202770 0.196852 0.959236
vn 7.86629e-2 0.458638 0.885135
vn -7.86629e-2 0.458638 0.885135
vn 0.481486 0.707334 0.517542
vn 0.166210 0.875586 0.453568
vn -0.481486 -0.707334 0.517542
vn -0.166210 -0.875586 0.453568
vn 3.38275e-2 -0.974005 0.223987
vn -0.736776 -0.609269 0.293177
vn 0.700637 0.672876 0.237370
vn -0.515740 0.697813 0.497061
vn -3.38275e-2 0.974005 0.223987
vn 0.736776 0.609269 0.293177
vn -0.700637 -0.672876 0.237370
vn 0.515740 -0.697813 0.497061
vn -0.720090 0.623714 0.304057
vn 0.498946 0.830877 -0.246365
vn 0.494256 -0.827527 -0.266291
vn -0.722716 -0.628136 0.288317
vn 0.722716 0.628136 0.288317
vn 0.720090 -0.623714 0.304057
vn -0.498946 -0.830877 -0.246365
vn -0.494256 0.827527 -0.266291
vn -0.767492 0.611925 -0.191058
vn 0.571808 0.809478 0.133344
vn 0.574513 -0.808920 0.124836
vn -0.764880 -0.613188 -0.197382
vn 0.762534 0.609166 -0.217851
vn 0.771422 -0.602925 -0.203445
vn -0.570288 -0.814459 0.106904
vn -0.581402 0.808833 8.80942e-2
vn -0.832821 -0.535376 -0.140647
vn -0.835367 0.528754 -0.150271
vn 0.516062 0.428929 -0.741418
vn 0.530993 -0.426668 -0.732120
vn -0.501846 0.451714 -0.737635
vn -7.74319e-2 0.424987 -0.901882
vn -6.37740e-2 -0.427081 -0.901962
vn -0.494779 -0.456520 -0.739448
vn 0.599001 0.481919 -0.639493
vn 0.857700 0.512793 3.73289e-2
vn 0.599001 -0.481919 -0.639493
vn 0.857700 -0.512793 3.73289e-2
vn -3.22759e-2 0.442593 -0.896142
vn -0.616131 0.418371 -0.667344
vn -3.22759e-2 -0.442593 -0.896142
vn -0.616131 -0.418371 -0.667344
g cube2_default
usemtl default
f 1//1 9//9 11//11 3//3
f 1//1 38//38 37//37 36//36 2//2
f 2//2 36//36 35//35 8//8
f 3//3 40//40 38//38 1//1
f 4//4 12//12 13//13 5//5
f 4//4 33//33 39//39 40//40 3//3
f 5//5 13//13 14//14 6//6
f 5//5 34//34 33//33 4//4
f 6//6 14//14 15//15 7//7
f 6//6 42//42 41//41 34//34 5//5
f 7//7 15//15 16//16 8//8
f 7//7 44//44 42//42 6//6
f 8//8 16//16 10//10 2//2
f 8//8 35//35 43//43 44//44 7//7
f 10//10 9//9 1//1 2//2
f 10//10 16//16 24//24 18//18
f 11//11 9//9 17//17 19//19
f 11//11 12//12 4//4 3//3
f 13//13 12//12 20//20 21//21
f 15//15 14//14 22//22 23//23
f 17//17 18//18 27//27 26//26
f 18//18 17//17 9//9 10//10
f 19//19 20//20 12//12 11//11
f 20//20 19//19 25//25 32//32
f 21//21 22//22 14//14 13//13
f 22//22 21//21 31//31 30//30
f 23//23 24//24 16//16 15//15
f 24//24 23//23 29//29 28//28
f 26//26 25//25 19//19 17//17
f 26//26 27//27 28//28 29//29 30//30 31//31 32//32 25//25
f 28//28 27//27 18//18 24//24
f 30//30 29//29 23//23 22//22
f 32//32 31//31 21//21 20//20
f 33//33 34//34 41//41 43//43 35//35 36//36 37//37 39//39
f 37//37 47//47 46//46 39//39
f 38//38 48//48 47//47 37//37
f 39//39 46//46 45//45 40//40
f 40//40 45//45 48//48 38//38
f 41//41 52//52 51//51 43//43
f 42//42 49//49 52//52 41//41
f 43//43 51//51 50//50 44//44
f 44//44 50//50 49//49 42//42
f 45//45 53//53 56//56 48//48
f 46//46 54//54 53//53 45//45
f 47//47 55//55 54//54 46//46
f 48//48 56//56 55//55 47//47
f 49//49 57//57 60//60 52//52
f 50//50 58//58 57//57 49//49
f 51//51 59//59 58//58 50//50
f 52//52 60//60 59//59 51//51
f 53//53 74//74 76//76 56//56
f 54//54 70//70 69//69 73//73 74//74 53//53
f 55//55 72//72 70//70 54//54
f 56//56 76//76 75//75 71//71 72//72 55//55
f 57//57 63//63 66//66 65//65 62//62 60//60
f 58//58 64//64 63//63 57//57
f 59//59 61//61 68//68 67//67 64//64 58//58
f 60//60 62//62 61//61 59//59
f 61//61 62//62 65//65 68//68
f 64//64 67//67 66//66 63//63
f 68//68 65//65 66//66 67//67
f 69//69 71//71 75//75 73//73
f 71//71 69//69 70//70 72//72
f 74//74 73//73 75//75 76//76
