<?xml version="1.0" encoding="UTF-8" standalone="no"?>
<!-- Generator: Adobe Illustrator 16.0.0, SVG Export Plug-In . SVG Version: 6.00 Build 0)  -->

<svg
   version="1.1"
   viewBox="0 0 1400 980"
   sodipodi:docname="svg.svg"
   inkscape:version="1.1.2 (0a00cf5339, 2022-02-04)"
   id="svg959"
   xmlns:inkscape="http://www.inkscape.org/namespaces/inkscape"
   xmlns:sodipodi="http://sodipodi.sourceforge.net/DTD/sodipodi-0.dtd"
   xmlns="http://www.w3.org/2000/svg"
   xmlns:svg="http://www.w3.org/2000/svg"><defs
   id="defs63" />
<sodipodi:namedview
   id="namedview61"
   pagecolor="#ffffff"
   bordercolor="#666666"
   borderopacity="1.0"
   inkscape:pageshadow="2"
   inkscape:pageopacity="0.0"
   inkscape:pagecheckerboard="0"
   showgrid="false"
   inkscape:zoom="0.91734694"
   inkscape:cx="700.38932"
   inkscape:cy="490"
   inkscape:window-width="3440"
   inkscape:window-height="1369"
   inkscape:window-x="0"
   inkscape:window-y="34"
   inkscape:window-maximized="1" />

<rect
   width="1400"
   height="980"
   id="rect2" />

<path
   fill="#FFFFFF"
   d="M535.9,439.1c-19.1-18.1-44.7-26.6-66.7-40.2c-2.1-1.3-4.1-2.7-6.1-4.1c-1.1-0.7-2.2-1.5-3.2-2.3  c-0.5-0.4-1.1-0.8-1.6-1.2c-4.7-3.5-9.2-7.1-13.4-11.1c-0.3-0.2-1.1-1.1-1.6-1.6c-0.8-0.9-1.6-1.7-2.4-2.6c-1-1.1-1.9-2.2-2.9-3.4  c-0.4-0.5-0.7-1-1-1.5c-0.3-0.4-1.3-2.1-1.6-2.6c-0.4-0.8-0.7-1.5-1-2.3c-0.2-0.6-0.3-1.2-0.5-1.8c0-0.2,0-0.3-0.1-0.4  c0,0.1-0.1-1.1-0.1-1.5c-0.1-5.1-3.4-9.8-7.2-13c-2.1-1.8-11.1-6.9-12.3-1.1c-0.1,0.7-0.3,1.4-0.4,2.1c0,0,0,0,0,0c0,0,0,0,0,0  c-2.4,13.7-1,27.3-1,41.2c0,6,4.8,11.8,9.7,14.8c3.5,2.1,10.2,3.2,10.2-2.8c0-5.5-0.4-11-0.6-16.6c0.1,0.1,0.1,0.1,0.2,0.2  c9.5,10,20.4,18.2,31.7,26c11,7.5,22.9,13.2,34.7,19.3c0.5,0.2,0.9,0.5,1.4,0.7c-5.9-0.6-11.9-1.1-17.8-1.6  c-21.8-1.6-43.7-2.9-65.6-1.8c-8.9,0.5-18.2,1-26.7,3.8c-0.4-1.4-0.7-2.7-1-4.1c0-0.1-0.1-0.3-0.1-0.5c-0.2-1-0.3-2-0.5-3  c-0.3-1.7-0.5-3.3-0.6-5c-0.4-3.4-0.5-6.8-0.6-10.2c-0.4-13.3,0.4-26.9,1.5-40.2c0.2-3.2,0.5-6.3,0.8-9.5c0.2-1.6,0.3-3.2,0.5-4.9  c0.1-0.7,0.2-1.3,0.2-2c0-0.2,0-0.4,0.1-0.6c0-0.2,0.1-0.4,0.1-0.8c1-7,2.3-13.9,4-20.7c1.6-6.5,3.8-12.8,6.5-19  c0.7-1.5,1.4-3,2.1-4.5c0.5-1.1,0.6-1.2,0.2-0.3c0.5-0.9,1-1.7,1.5-2.6c1.8-3.2,3.9-6.2,6.2-9c8-10.2-12.1-20.8-20.1-14.2  c-8.4,7-16.2,14.8-25,21.4c-3.9,2.9-4.4,7.8-1.6,11.8c1.8,2.5,4.2,4.2,6.8,5.1c-4.3,15-6.2,30.8-7.4,46.2  c-1.1,13.9-1.9,28.1-1.5,42.1c0.5,15.6,3.6,30.9,11.6,44.4c2,3.4,6.2,5.5,10.4,6.1c0.9,0.8,1.9,1.6,3,2.2c3.4,2,10.3,3.2,10.2-2.8  c0-0.1,0-0.2,0-0.4c0.1-0.1,0.1-0.3,0.2-0.4c0,0,0-0.1,0.1-0.1c0.3-0.3,0.6-0.6,0.9-0.9c0.5-0.5,2.3-1.5,2.4-1.6  c1.1-0.5,2.2-0.9,3.3-1.2c3.5-1.1,7.1-1.8,10.7-2.3c2-0.3,4.1-0.5,6.2-0.7c1.1-0.1,2.2-0.2,3.3-0.3c0.3,0,0.6,0,0.8-0.1  c0.3,0,1.4-0.1,1.7-0.1c3.2-0.2,6.4-0.3,9.6-0.3c0,17.6,0,35.3,0,52.9c0,1.9,3.6,5.1,4.8,6.3c0.3,0.3,3.7,3.7,3.7,2.7  c0-20.7,0-41.3,0-62c2.7,0,5.4,0,8.1,0.1c0,8.9,0,17.9,0,26.8c0,5.4,11.8,0.7,11.8-4.2c0-7.4,0-14.8,0-22.2  c9.2,0.4,18.4,1.1,27.6,1.7c15.2,1.1,30.5,3.1,45.8,3.7c3,0.1,5.2-1.5,5.3-4.6C543.2,446.9,539.4,442.4,535.9,439.1z"
   id="path4" />

<path
   fill="#FFFFFF"
   d="M1317.3,232.9c0.5-8.1,0.3-16.2-0.8-24.1c-2.1-15.6-7.3-32-19.7-42.6c-4.5-3.8-13.3-6.6-18.2-2  c-3.9,3.6-5.4,8.3-6.2,13.5c-1.6,10.2-1.5,20.5-0.8,30.8c0.4,5.7,4.9,10.4,10.4,11.7c4.6,1,10.7-1.4,10.3-7  c-0.5-7.6-0.7-15.4-0.1-23c0.1,0.3,0.2,0.5,0.2,0.6c0.3,0.8,0.6,1.7,0.8,2.5c0.6,2,1.1,4,1.6,6.1c1.5,6.6,2,13.7,1.9,21.8  c-0.1,14.2-2.2,27-7.8,40.9c-0.3,0.7-0.6,1.5-1,2.2c0,0.1-0.1,0.1-0.1,0.2c-0.1,0.1-0.1,0.3-0.3,0.5c-0.7,1.3-1.5,2.4-2.4,3.6  c-0.1,0.2-0.6,0.6-0.8,0.9c-0.3,0.2-0.6,0.4-0.9,0.6c-0.1,0.1-0.3,0.2-0.5,0.3c-0.2,0-0.3,0.1-0.5,0.1c0,0,0,0,0,0  c-0.2-0.1-0.5-0.1-0.8-0.2c-0.3-0.2-0.7-0.3-0.9-0.5c-0.3-0.2-0.6-0.5-0.9-0.7c-0.1-0.1-0.1-0.1-0.2-0.2c-0.6-0.6-1.1-1.3-1.7-1.9  c-0.1-0.2-0.6-0.8-0.8-1.2c-0.5-0.8-1-1.6-1.4-2.3c-0.9-1.5-1.7-3.2-2.4-4.8c-0.1-0.2-0.7-1.5-0.7-1.6c-0.2-0.6-0.4-1.1-0.6-1.7  c-1.2-3.3-2.3-6.6-3.2-10c-0.9-3.4-1.5-7-2.1-10.5c0.1,0.5-0.3-1.8-0.3-1.9c-0.1-1-0.2-1.9-0.3-2.9c-0.3-2.3-0.5-4.6-0.6-7  c-1.3-17.3-0.2-34.8,2.1-52c1.9-13.8,5.6-31.7,12-44.2c4.1-7.9,9.1-15.5,13.6-23.3v34.2c0,1.1,2.4,3.1,2.4,1.6V99.4  c3.8-7.1,7.1-14.4,8.8-22.3c2.1-9.5-11.7-19.5-19-11.4c-13.6,15.3-30.7,27.6-48.5,38.1c-1.8,0.5-3.4,1.5-5,3c-4.1,4,0.5,11,3.8,13.6  c4.2,3.4,9.5,3.7,14,1c0.1-0.1,0.2-0.1,0.3-0.2c0.3-0.1,0.5-0.3,0.8-0.5c2.4-1.4,4.8-2.9,7.1-4.3c1.1-0.7,2.2-1.4,3.2-2.1  c-3.3,6.3-6.1,12.7-8,19.6c-2.1,7.6-3.6,15.3-4.9,23.1c-2.9,17.5-4.4,35.3-3.9,53.1c0.4,15.9,2.5,32,8.3,46.9  c6.2,15.9,19.4,35.9,39.3,32c7.1-1.4,11.8-6.6,15.1-12.9c-0.1,10.3,0.1,20.6,1,30.9c0.3,3.6,9.6,1.5,9.3-2.4  C1315.3,280.9,1317,256.8,1317.3,232.9z M1286,179.7C1286,179.7,1286,179.7,1286,179.7C1285.1,179.2,1285.5,179.4,1286,179.7z"
   id="path6" />

<g
   id="g10">
	<path
   fill="#FFFFFF"
   d="M567.4,208.6c-4.2,4.2-8.3,8.3-12.5,12.5c-2.9,2.9,5.9,6.5,8.5,3.9c4.2-4.2,8.3-8.3,12.5-12.5   C578.8,209.6,570,206,567.4,208.6L567.4,208.6z"
   id="path8" />

</g>

<path
   fill="#FFFFFF"
   d="M633.7,137.4c-9.3-12-20.8-21.9-32-31.6c-3-2.6-6.1-5.2-9.1-7.8c-1.1-0.9-2.1-1.9-3.2-2.8  c-0.3-0.3-0.7-0.7-0.9-0.8c-0.5-0.5-1-1-1.5-1.4c-5.6-5.1-11-10.4-16.1-16c-3.1-3.3-6-6.8-8.7-10.5c-1.4-1.8-2.6-3.7-3.9-5.6  c-0.1-0.2-0.3-0.4-0.3-0.5c-0.2-0.4-0.4-0.7-0.7-1.1c-0.5-0.9-1-1.9-1.5-2.8c-3.7-7.3-5.6-13.7-2.5-21.4c0.9-2.1-2.2-4.7-3.3-5.6  c-2.9-2.1-6.3-3.3-9.7-4c-4.5-0.9-13-1.9-15.3,3.8c-5.1,12.5,2.7,26.3,9.5,36.1c-1.3,0.7-2.5,1.7-3.4,3c-2.4,3.4-0.5,9.4,0.5,13  c1.2,4.6,2.8,9.1,4.1,13.7c2.6,9.7,4.9,19.5,6.1,29.4c-10.3-0.3-28.1,1.1-27.8,15.9c0.2,8.2,4.2,15.9,8.9,22.6c0,16.6,0,33.2,0,49.8  c0,1.8,2.9,4,4,4.9c0.4,0.3,3.6,2.6,3.6,0.9c0-15.4,0-30.8,0-46.2c1.8,1.9,3.8,3.7,5.8,5.4c0,44.7,0,89.4,0,134.1  c0,1.6,0.8,3.5,1.9,4.5c1,0.9,2,0.4,2-1c0-44.9,0-89.7,0-134.6c3.7,2.6,7.6,4.7,11.7,6.7c11.6,5.4,23.8,9.5,36.1,12  c20.2,4.1,56.9,5.7,60.3-24.7C649.7,160.6,641.6,147.5,633.7,137.4z M595,186.6C595.4,186.7,595.3,186.7,595,186.6L595,186.6z   M599.5,186.9C598.6,186.9,597.4,186.9,599.5,186.9L599.5,186.9z M618.8,174.1c-0.2,0.6-0.4,1.2-0.6,1.8c-0.1,0.1-0.4,1-0.5,1.1  c-0.5,1-1.1,1.9-1.8,2.8c-0.7,0.9-1.4,1.7-2.2,2.5c-0.3,0.3-0.7,0.6-1,0.9c-0.1,0-0.1,0.1-0.2,0.1c-0.9,0.6-1.8,1.1-2.8,1.6  c-0.5,0.2-0.9,0.4-1.4,0.6c-0.1,0-0.2,0.1-0.3,0.1c-1.1,0.4-2.2,0.6-3.3,0.8c-0.1,0-0.2,0-0.3,0.1c-0.3,0-0.5,0.1-0.8,0.1  c-1.2,0.1-2.4,0.2-3.6,0.2c-0.6,0-1.1,0-1.7-0.1c-1.3-0.1-2.6-0.2-3.9-0.3c-0.2,0-0.4,0-0.5-0.1c-0.1,0-0.2,0-0.3,0  c-2.9-0.5-5.8-1.1-8.6-1.8c-0.1,0-0.2,0-0.3-0.1c-0.2-0.1-0.4-0.1-0.5-0.2c-1.3-0.4-2.6-0.8-3.8-1.2c-2.7-0.8-5.3-1.8-7.9-2.8  c-0.4-0.1-1-0.4-1.7-0.7c-0.7-0.3-1.4-0.6-2.1-0.9c-2-0.9-4-1.9-5.9-2.9c-0.5-0.3-1.1-0.6-1.6-0.9c-0.1-0.1-0.2-0.2-0.3-0.3  c-0.7-0.5-1.4-1.1-2.1-1.7c-0.5-0.5-0.9-0.9-1.4-1.4c-3.4-3.4-6.4-7.2-9.1-11.2c-0.2-0.3-0.4-0.6-0.5-0.8c-0.1-0.2-0.5-0.9-0.7-1.1  c-0.6-1.1-1.2-2.2-1.7-3.3c-1-2.1-1.8-4.2-2.5-6.5c-0.2-0.8-0.4-1.6-0.5-2.4c0.1,0.4,0-1.6,0-2.1c0.1-0.9,0.3-1.7,0.5-2.6  c0,0,0,0,0-0.1c0.1-0.1,0.1-0.2,0.2-0.3c1.4,4,6.5,5.8,10.1,6.2c3.4,0.4,11.8-0.6,11.8-6.2c-0.1-15-2.8-29.7-6.5-44.1  c-0.6-2.3-1.3-4.7-1.9-7c1.5,1.4,3,2.8,4.5,4.2c4.4,4,8.7,8,13.2,11.9c2.4,2,4.7,4.1,7.1,6.1c1.3,1.1,2.5,2.2,3.8,3.3  c0.6,0.6,1.3,1.1,1.9,1.7c0.2,0.2,1.2,1.1,1.6,1.5c5.3,4.8,10.4,9.8,15.1,15.2c2.3,2.6,4.4,5.2,6.5,8c2.5,3.4,3.4,4.8,4.9,7.7  c1.4,2.7,2.6,5.5,3.5,8.4c0.4,1.4,0.8,2.8,1,4.2c0,0.1,0.2,1.3,0.2,1.4c0.1,0.8,0.1,1.6,0.1,2.3C620,168.7,619.5,171.5,618.8,174.1z  "
   id="path12" />

<path
   fill="#FFFFFF"
   d="M271.6,304.9c-1.7-0.7-4.1-0.6-5.8,0.1c-0.3,0.1-0.5,0.3-0.6,0.4c-0.1,0-0.2,0-0.3,0c-0.8,0-1.6,0.3-2,1.1  c-0.1,0.3-0.2,0.7-0.2,1c0,0.1,0,0.1,0,0.2c0,0,0,0,0,0.1c0,0,0,0,0,0c0.1,0.7,0.4,1.3,0.8,1.8c0.4,0.5,0.8,0.9,1.2,1.3  c0,0,0.1,0.1,0.2,0.2c0.2,1.6,3.5,2.6,5.3,2.1c0.1,0,0.3,0,0.4,0.1c0.8,0.1,2.6,0,2.8-1.1c0.2-0.9,0.3-1.9,0.4-2.8  C274.1,307.2,273.8,305.8,271.6,304.9z M265,311C265,311,265,311,265,311C265,311,265,311,265,311C265,311,265,311,265,311z   M365.3,106c-9.9-9.2-22-15.3-34.9-18c-0.4-0.2-1.4-0.6-1.8-0.8c-1.8-0.8-3.6-1.7-5.4-2.6c-4.4-2.1-8.8-4.4-13.2-6.8  c-4.6-2.5-9.1-5.1-13.6-7.8c-0.5-0.3-1-0.6-1.5-1c-1.1-0.7-2.3-1.4-3.4-2.2c-2.5-1.6-5-3.3-7.5-5c-2.2-1.5-4.3-3.1-6.5-4.7  c-0.7-0.5-1.4-1-2-1.5c-0.4-0.3-1.8-1.4-2.1-1.7c-2-1.6-3.9-3.2-5.9-4.9c-0.9-0.8-1.9-1.7-2.8-2.5c-0.2-0.2-0.9-0.8-1.4-1.3  c-1.5-1.4-2.9-2.9-4.3-4.4c-0.5-0.5-0.9-1-1.4-1.6c-0.4-0.4-1.1-1.4-1.4-1.7c-1-1.3-2-2.7-2.9-4c-0.1-0.3-0.9-1.5-1.1-1.8  c-0.6-1-1.1-2.1-1.6-3.2c-2.6-5.4-8.8-10.4-14.3-12.4c-1.5-0.5-4.1-1.3-5.3,0.2c-1.3,1.5-0.1,3.9,0.6,5.3  c4.6,9.7,11.8,18.2,19.3,25.8c9.3,9.4,19.7,17.7,30.4,25.4c3.8,2.7,7.6,5.3,11.5,7.8c-2.8-0.1-5.5,0-8.3,0.1  c-6.7,0.4-13.4,1.3-20,2.4c-4.6-9.3-9.1-18.5-12.3-28.4c-0.5-1.7-4.1-3.1-5.5-3.6c-3.2-1.3-6.5-2.2-9.9-2.8  c-1.7-0.3-11.5-1.9-10.2,2.3c6.7,20.7,19.3,38.9,26.3,59.4c-1.5,0.7-3,1.4-4.5,2.2c-9.6,5-20.6,12.3-25.8,22.2  c-9.8,18.7,0.5,38.4,11.4,54.1c7.6,10.9,17.8,19.3,29.4,24.9c0,26.8,0,53.6,0,80.4c0,5.7,10,4.8,10-1c0-25.1,0-50.3,0-75.4  c1.9,0.6,3.8,1.1,5.7,1.6c0,11.1,0,22.2,0,33.3c0,2.3,3.7,1.3,4.8,0.8c1.9-0.9,4-2.8,4-5.1c0-4.6,0-9.3,0-13.9  c2.7,3.8,7.2,6.3,12.3,6.3c5.8,0,10.8-3.3,13.3-8.1c1.3,1.8,3.4,3.1,5.9,3.4c4.6,0.5,8.7-2.9,9.2-7.5c0.5-4.6-2.9-8.7-7.5-9.2  c-2.5-0.3-4.8,0.6-6.5,2.1c-0.2-0.6-0.4-1.2-0.7-1.8c19.5-4.2,37.9-15.1,52.6-28.3c10.3-9.3,18.3-21.4,19.8-35.4  C388.4,136.6,379,118.6,365.3,106z M363,169.6c-0.9,6.2-3.2,12.1-6.4,17.4c-1.6,2.6-3.6,5-5.6,7.3c-0.2,0.2-0.3,0.3-0.4,0.4  c-0.1,0.1-0.3,0.3-0.6,0.6c-0.6,0.6-1.3,1.3-2,1.9c-0.1,0.1-1,0.8-1.3,1.1c-0.5,0.4-1.1,0.8-1.6,1.2c0.4-0.3-1.3,0.9-1.6,1.1  c-0.1,0-0.1,0.1-0.2,0.1c0,0,0,0,0,0c-0.2,0.1-0.5,0.3-0.9,0.5c-0.2,0.1-0.4,0.2-0.5,0.3c0.4-0.2-1.3,0.6-1.7,0.8  c-0.2,0.1-1,0.4-1.5,0.6c-0.6,0.2-1.3,0.5-1.9,0.7c-0.3,0.1-2.4,0.7-2.4,0.7c-6.9,1.8-14,2.5-21.1,2.2c-14.8-0.7-29.1-6.1-40.8-15.1  c-6.1-4.7-11.4-10.4-15.9-16.6c-5.6-7.8-10.6-16.5-13.5-25.6c-2.9-9-2.8-19.8,3-27.8c0.3-0.4,0.6-0.8,0.8-1.1  c1.3-0.2,2.6-0.3,3.9-0.4c1.6,0,3.1,0.1,4.6,0.2c0.1,0.3,0.2,0.6,0.2,1c0.1,0.7,0.9,1.3,1.8,1.9c-1.8,2.5-2.9,5.6-2.9,8.9  c0,8.3,6.7,15.1,15.1,15.1c6,0,11.2-3.5,13.6-8.6c1.2,1.8,2.3,3.6,3.3,5.6c7,13.7,8.6,29.8,8.7,44.9c0,2.2,12.4-4.1,13-4.4  c2.8-1.7,10-5.4,10-9.3c0-15-1.8-30.5-8.3-44.1c-6.5-13.8-19.7-24.2-35.1-25.5c0,0-0.1,0-0.1,0c-0.1-0.2-0.1-0.3-0.2-0.5  c1.8-0.4,3.7-0.7,5.5-1.1c7-1.3,14-2.2,21-2.6c0.6,0,1.2-0.1,1.8-0.1c10.2,1.3,20,5,28.7,10.5c0.1,23.9,0.9,47.7,0,71.6  c-0.1,2.9,9.5,4.7,9.5,3.1c0.8-22.5,0.2-45,0.1-67.5c5.4,4.8,10.2,10.4,13.9,16.6C361.5,145.6,364.7,157.8,363,169.6z"
   id="path14" />

<path
   fill="#FFFFFF"
   d="M751.6,176.4c-0.7-0.5-11.5-7.6-12.3-4.9c-4,14.2-5,33.5-17.8,43.1c-1.2,0.9-2.7,1.5-4.1,1.9  c-3.5-5.7-5.5-12-7.5-18.3c-6.5-20.9-10.5-43-11.9-65.2c0.1,0,0.1,0.1,0.1,0.1c0.4,0.3,0.9,0.5,1.3,0.8c1.3,0.9,2.6,1.8,3.8,2.8  c0.3,0.2,0.6,0.5,0.8,0.6c0.7,0.6,1.5,1.2,2.2,1.8c3.9,3.1,7.7,6.1,11.6,9.1c1.7,1.3,3.3,2.5,5.1,3.7c0,9.2,0,18.5,0,27.7  c0,1.5,0.8,3.2,1.9,4.1c1,0.8,2,0.4,2-0.9c0-9.4,0-18.9,0-28.3c0.9,0.5,1.7,1.1,2.6,1.6c4.1,2.4,8.8,5.2,13.6,5.6  c5.8,0.5,8.2-3.2,9.7-8.3c0-0.1,0.1-0.2,0.1-0.3c0.3-0.7,0.6-1.5,0.8-2.3c1.9-6.6,3-13.5,4.2-20.2c2.4-14,4.1-28.3,4-42.6  c0-2.9,0-5.8-0.2-8.7c-0.4-7.7-1.4-15.3-3.8-22.7c-3-9.5-9.9-16.5-17.7-22.3c-13.1-9.6-30.3-15.2-44.3-4.2  c-11.2,8.8-15.3,22.7-17.3,36.3c-0.4,2.1-0.7,4.2-1,6.2c-1.7,12-2.2,24.3-2.1,36.5c-1.7-0.5-3.5-0.9-5.3-1.2c-4-0.7-8.2-1-12.3-1  c-1.4,0-2.9,0-4.2,0.6c-1.6,0.8-1.5,2-0.8,3.3c-0.6,0.6-0.5,1.4-0.2,2.1c-2.4,1.3-0.4,3.8,1,5.5c3.8,4.5,9.3,8.4,14.7,10.5  c0.8,0.3,3.5,1.5,4.4,0.3c0.2-0.3,0.2-0.7,0.1-1.1c0.1,0,0.3,0,0.4-0.1c1-0.2,2-0.2,2.9-0.2c1.1,14.6,3.2,29.2,6.4,43.5  c0.8,3.5,1.6,7.1,2.5,10.7c0,28.4,0,56.7,0,85.1c0,3.2,5.5,5.6,5.5,1.5c0-23,0-46,0-69c1.1,2.7,2.3,5.4,3.7,8c0,9.9,0,19.8,0,29.8  c0,2.3,6.4,1.9,6.4-0.6c0-6.5,0-12.9,0-19.4c2.9,3.6,6.2,6.9,9.8,9.8c-0.9,1.9-1.5,4.1-1.5,6.4c0,8,6.5,14.4,14.4,14.4  c6.9,0,12.7-4.8,14.1-11.3c2.1-0.8,4.1-2,6.1-3.7c4.8-4.4,7.5-11,9.5-17.3c0.6-1.6,1.1-3.2,1.5-4.7c2.2-7.2,3.4-14.7,5.5-21.9  c0.2-0.6,0.1-1.3-0.2-2c0.1-0.2,0.1-0.4,0.2-0.6C761.2,182.8,753.9,178.1,751.6,176.4z M726.9,45.1c1.9-0.3,3.9-0.4,5.9-0.4  c0.5,0,1.1,0.1,1.6,0.2c0.1,0.2,0.2,0.3,0.3,0.5c1.6,3,2.4,6.8,3.1,10.1c1.7,7.8,2.1,15.9,2.1,23.8c0,10.9-1,21.9-2.7,32.8  c-0.5,3.1-1.1,6.2-1.8,9.2c-1,4.6-1.7,9.2-3.1,13.6c-0.9,2.7-2.3,5.4-5.2,5.7c0.2,0,0-0.1-0.2-0.2  C726.9,108.7,726.9,76.9,726.9,45.1z M697.5,116.9c0-7,0.3-14,0.9-21c0.7-8.9,1.7-17.9,4.3-26.5c1.4-3.8,3.1-7.5,5.4-11  c3.5-5.3,8.9-10,14.9-12.2c0,30.6,0,61.2,0,91.8c-0.2-0.1-0.3-0.2-0.3-0.2c-5-3.9-9.9-7.9-15-11.8c-3.3-2.4-6.6-4.8-10.2-7  C697.5,118.3,697.5,117.6,697.5,116.9z M741.7,251.8c-2.7-0.3-5.1,1.7-5.4,4.4c-0.3,2.7,1.7,5.1,4.4,5.4c2.7,0.3,5.1-1.7,5.4-4.4  C746.4,254.5,744.5,252,741.7,251.8z"
   id="path16" />

<path
   fill="#FFFFFF"
   d="M725.5,495.8c-15.4-24.4-20.4-53.9-21.9-82.2c-1.6-29.5,1-59.1,4.6-88.4c-0.4-1.3-1.1-2.5-2.1-3.5  c-2.2-2.6-5-4.7-7.9-6.6c-1.7-1.1-12.4-8-14.3-4.4c-16.1,28.9-31.6,58.2-46.3,87.8c-3.3-12.9-6.5-25.9-11.2-38.3  c-2.4-6.3-5-12.7-8.4-18.5c-2.7-4.6-5.9-9-9-13.3c-3.3-4.6-6.6-9.1-9.8-13.7c-1.4-2-2.7-4.1-3.8-6.2c-0.5-1-1-1.9-1.5-2.9  c0.3,0.6-0.5-1.5-0.6-1.9c-0.4-1.6-1.4-3.1-2.6-4.5c-3-5.5-7.1-9.9-12-13.9c-3.8-3.1-12.5-7.6-17.5-5c-4.1,2.2-0.1,6.8,2.9,9.6  c0,0.1,0.2,0.2,0.3,0.4c-0.7-0.6-0.3-0.3,0.2,0.2c0.4,0.4,0.8,0.9,1,1.2c0.1,0.2,0.2,0.4,0.4,0.5c0.1,0.1,0.1,0.2,0.2,0.3  c0.5,0.9,1,1.9,1.4,2.9c0.9,1.9,1.6,3.9,2.2,6c-0.2-0.4,0.6,2.2,0.7,2.7c0.3,1.3,0.5,2.5,0.7,3.8c2,11.4,1.7,23.2,0.6,34.6  c-1.1,11.6-3.1,21.7-6.7,32.7c-2.7,8.2-6.3,17-12.6,23.1c-1.5,1.4,0.8,4.8,1.6,5.8c2.1,2.7,5,4.9,8,6.6c2.7,1.5,6.6,3.4,10.2,3.6  c0.5,0.5,1.1,1,1.7,1.5c0,15.2,0,30.4,0,45.5c0,1.1,1.7,2.5,2.3,3.2c0.1,0.1,2.1,1.9,2.1,1.1c0-15.9,0-31.8,0-47.7  c1.3,0.4,2.7,0.6,4.2,0.6c8,0,14.4-6.5,14.4-14.4c0-5.4-3-10.2-7.5-12.6c0.4-1.1,0.8-2.3,1.1-3.4c3.9-12,6.1-24.5,7.2-37  c0.4-4.2,0.6-8.4,0.6-12.6c1.3,2.8,2.4,5.6,3.5,8.4c9.8,25.5,13.2,52.9,23.2,78.2c1.8,4.4,6.1,7.6,10,10.1c1.5,1,12.6,8,14.3,4.4  c9.4-19.7,19.2-39.3,29.3-58.7c0,6.5,0.1,12.9,0.4,19.4c0.9,16.9,3.1,34.2,7.9,50.6c0,34.3,0,68.5,0,102.8c0,2.6,6.1,1,6.1-1.2  c0-28.1,0-56.3,0-84.4c1.4,3.3,3,6.5,4.6,9.7c0,17.6,0,35.3,0,52.9c0,3.7,9.6,4.1,9.6,0.6c0-13.3,0-26.6,0-39.9  c3.3,2.7,7.2,4.9,10.7,6.4C720,498.6,728.9,501.2,725.5,495.8z M564.5,290.3c-0.2-0.2-0.3-0.3-0.4-0.4c0.8,0.7,1.5,1.3,2,1.7  C565.4,291,564.9,290.6,564.5,290.3z M600.1,414.3c-2.7-0.3-5.1,1.7-5.4,4.4c-0.3,2.7,1.7,5.1,4.4,5.4s5.1-1.7,5.4-4.4  C604.7,417,602.8,414.6,600.1,414.3z"
   id="path18" />

<path
   fill="#FFFFFF"
   d="M1062.2,48c-5.5-2-12.8,0.5-17.3,3.8c-5.7,4.1-9.3,10.1-12,16.6c-2.7-4.2-6-8-10.2-10.6  c-13.8-8.8-30.7-3.2-43.5,4.7c-11.8,7.3-20.1,19.3-25.6,31.8c-9.6,21.6-13.3,45.7-10.7,69.1c-3.4,2.6-5.7,6.8-5.7,11.5  c0,2.9,0.8,5.5,2.3,7.8c-5.3,2.1-9,7.3-9,13.4c0,8,6.5,14.4,14.4,14.4c0.6,0,1.1,0,1.7-0.1c0,2.5,0,5.1,0,7.6c-2.4,1-4,2.5-4.2,4.3  c-0.2,2.1,1.4,4.1,4.2,5.6c0,8.8,0,17.6,0,26.3c0,1.1,1.7,2.5,2.3,3.2c0.1,0.1,2.1,1.9,2.1,1.1c0-9.7,0-19.3,0-29  c1.2,0.3,2.4,0.5,3.7,0.7c4,0.4,7.7-0.1,10.2-1.4c0,0,0.1,0.1,0.1,0.1c5.4,8.3,12.5,16.5,22.5,19c14.6,3.7,30.9-2.4,41.2-13  c0.5-0.5,0.9-1,1.4-1.5c0,25.8,0,51.5,0,77.3c0,2.3,3.8,4.8,5.5,5.8c0.6,0.4,5.1,3,5.1,0.7c0-34.2,0-68.5,0-102.7  c1.7-4.8,2.9-9.7,3.8-14.5c2.4-12.8,2.6-26,1.7-38.9c-0.3-4.2-0.8-8.4-1.7-12.5c-0.4-2.1-3.4-2.6-5-2.9c-19-3.2-35.5,10.8-47.9,23.2  c-3.7,3.7-2.1,7.8,3,8.4c5.9,0.7,12.9-1.9,17.1-6.1c1.8-1.8,3.6-3.6,5.5-5.3c0.9-0.9,1.8-1.7,2.8-2.5c-0.6,0.6,0.5-0.4,1.4-1  c1.4,9.2,1.4,18,0.7,27.9c-0.4,6.6-1.4,13.1-2.8,19.5c-1.5,6.6-2.9,10.8-5.8,16.2c-0.6,1.2-1.3,2.4-2.1,3.5  c-0.4,0.6-0.7,1.1-1.1,1.6c0,0.1-0.1,0.1-0.1,0.2c-0.8,0.9-1.6,1.8-2.5,2.7c-0.2,0.2-0.4,0.3-0.7,0.5c-0.1,0-0.1,0.1-0.2,0.1  c-0.1,0-0.3,0-0.4,0c-0.2-0.1-1.7-0.4-2.2-0.6c-0.7-0.2-1.4-0.6-2-0.9c0.2,0.1-1.6-1-2-1.3c-1-0.7-2-1.5-2.9-2.4  c-1.7-1.5-3.3-3.2-4.7-5c-0.8-0.9-1.5-1.9-2.2-2.9c-0.1-0.1-0.1-0.1-0.1-0.2c-0.1-0.1-0.2-0.2-0.3-0.4c-0.5-0.7-0.9-1.4-1.4-2.1  c-10.6-16.8-16.8-37.4-20.1-56.8c-4-23.9,0-52.5,11-74.2c1.2-2.3,2.5-4.6,3.9-6.8c0.7-1.1,1.4-2.1,2.1-3.1c0.1-0.1,0.5-0.7,0.8-1  c0.3-0.4,0.6-0.8,1-1.2c0.3-0.4,0.6-0.7,0.9-1.1c0,26.5,0,53.1,0,79.6c0,1.1,1.7,2.5,2.3,3.2c0.1,0.1,2.1,1.9,2.1,1.1  c0-24.5,0-49,0-73.5c2.6,3.7,6.9,6.2,11.8,6.2c3.9,0,7.4-1.5,10-4c1.1,2.8,2.1,5.6,2.9,8.5c1.3,4.5,2.2,9.1,2.8,13.7  c0.6,4.2,0.7,6.8,0.5,11.8c-0.4,10.2,22.8,2.5,24.4-5.2c2.4-11.1,4.2-22.3,6.9-33.4c0.8-3.1,1.6-6.3,2.5-9.4  c0.4-1.5,0.9-2.9,1.4-4.4c0.2-0.7,0.5-1.4,0.7-2.1c0-0.1,0.1-0.2,0.1-0.3c0-0.1,0.1-0.3,0.2-0.5c1-2.4,2.1-4.7,3.4-6.8  c0.3-0.4,0.6-0.9,0.9-1.3c0.2-0.2,0.3-0.4,0.5-0.5C1064.2,55,1067.6,50,1062.2,48z M956.2,216.8c-1.8-0.2-3.5-0.2-5.1,0  c0-2.6,0-5.2,0-7.8c1-0.5,2-1.1,2.9-1.8c1.4,3.4,2.8,6.7,4.4,10C957.7,217,956.9,216.9,956.2,216.8z M1007.2,234.4  C1008.5,233.9,1007.8,234.2,1007.2,234.4C1007.1,234.4,1007.1,234.4,1007.2,234.4z M932,209.5c-2.7-0.3-5.1,1.7-5.4,4.4  c-0.3,2.7,1.7,5.1,4.4,5.4c2.7,0.3,5.1-1.7,5.4-4.4S934.7,209.8,932,209.5z M998.6,98.6c-0.3,2.7,1.7,5.1,4.4,5.4  c2.7,0.3,5.1-1.7,5.4-4.4c0.3-2.7-1.7-5.1-4.4-5.4C1001.3,93.9,998.9,95.9,998.6,98.6z M973,52.5c2.7,0.3,5.1-1.7,5.4-4.4  c0.3-2.7-1.7-5.1-4.4-5.4c-2.7-0.3-5.1,1.7-5.4,4.4C968.3,49.8,970.3,52.2,973,52.5z"
   id="path20" />

<path
   fill="#FFFFFF"
   d="M899.9,35.1c-15.5,10-33.4,16.6-51.4,20.5c-3.4,0.7-6.9,1.4-10.3,1.8c-3-3.4-8.2-3.9-12.8-2.9  c-2.8,0.6-5.6,1.8-7.8,3.7c-3.6-0.3-7.1-0.9-10.6-1.9c-0.9-0.2-1.8-0.5-2.6-0.8c0.9,0.3-1.9-0.8-2.3-1c-0.1-0.1-0.2-0.1-0.3-0.1  c-0.2-0.1-0.4-0.2-0.5-0.3c0,0-0.1-0.1-0.1-0.1c-2.9-2.2-9-6.7-10.9-4.4c-2.3,2.7,6.2,9.7,7.7,10.9c5.9,4.6,12.2,8.3,19,10.9  c6.3,18.2,7.9,36.9,7.4,55.9c-5.3-0.5-10.5-0.7-15.7-0.7c-5.9,0-2.5,9.8-1.2,12.1c2.7,4.9,7.3,9.8,13.2,9.8c0.8,0,1.6,0,2.4,0  c-1.3,14.8-3.3,29.7-4.6,44.3c-0.6,6,5.9,8.1,10.8,7.9c1.8-0.1,4.2-0.5,6.5-1.4c0,16.9,0,33.8,0,50.7c0,1.1,1.7,2.5,2.3,3.2  c0.1,0.1,2.1,1.9,2.1,1.1c0-19.1,0-38.2,0-57.4c1.8-1.3,3.1-3.1,3.3-5.2c1.2-13.4,3-27,4.3-40.6c0.8,0.2,1.6,0.3,2.4,0.5  c2.9,0.6,5.8,1.4,8.6,2.2c2.7,0.8,4.2,1.4,7.8,2.9c1.4,0.6,2.7,1.2,4,1.9c0.4,0.2,2.6,1.5,2.9,1.6c1,0.7,2,1.3,3,2  c0.3,0.2,0.6,0.5,0.9,0.7c0.2,0.2,1.1,0.9,1.3,1.1c2.5,2.3,9.5,7.5,12,2.2c2.4-5-2.3-12.2-5.7-15.4c-10.2-9.5-22.6-15.6-35.7-19.4  c1-19,0.4-37.9-4.4-56.2c6-0.2,12.1-0.9,18-2c4.7-0.9,9.5-2,14.2-3.3c-4.4,15.3-5.8,32-8.3,46.7c-0.3,1.6,2.4,4.4,3.2,5.4  c2.2,2.5,4.7,4.6,7.4,6.5c1.4,1,9,6.4,9.7,2.3c4.7-27.6,5.3-61.9,30.5-79.7C922.4,49.4,905.4,31.5,899.9,35.1z M830.3,206.3  c-2.7-0.3-5.1,1.7-5.4,4.4c-0.3,2.7,1.7,5.1,4.4,5.4c2.7,0.3,5.1-1.7,5.4-4.4C835,209,833,206.6,830.3,206.3z"
   id="path22" />

<path
   fill="#FFFFFF"
   d="M296.8,447.2c4.9-24,18.3-44.6,36.6-60.5c2.4-2.1-3.8-10.7-4.8-12.2c-1.7-2.6-5.7-9.4-9.5-9.1  c-14.4,1.1-28.3,5.4-42.4,8.4c-8,1.7-16.4,3.3-24.6,3.2c-0.1-1.3-0.3-2.7-0.5-4c9.4-4.9,18.8-9.8,27.4-16.1  c5.7-4.1,11.1-8.7,16.2-13.6c0.1,5.5,0.5,11,1.4,16.4c0.5,2.7,11.9-0.9,13-1.3c1.8-0.6,11.9-3.4,11.4-6.4  c-2.5-14.8-1.6-30.6,1.8-45.5c1.9-4.5,3.4-9.2,4-14.1c0.3-1.9-9.3,0.2-9.8,0.3c-3.2,0.8-6.3,1.9-9.3,3.2c-1.1,0.5-4.6,1.9-5.1,3.3  c-1.5,4.5-2.9,9.1-4,13.9c-3.4,7.8-8.6,15.1-13.8,21.5c-8.3,10.3-18.2,19.5-29,27.2c-1,0.7-2,1.4-3,2.1c-0.2,0.1-0.3,0.2-0.5,0.3  c-0.1,0.1-0.2,0.1-0.4,0.3c-0.4,0.3-0.9,0.6-1.4,0.8c-0.4-2.8-0.8-5.6-1.2-8.4c-1-6.5-2.6-12.9-3.7-19.4c-0.6-3.4-1.1-6.8-1.5-10.2  c-0.1-0.5-0.1-1-0.1-1.4c1.2-1.2,1.7-2.9,0.5-5.2c-1.6-3.1-4-5-6.9-6.8c-3.6-2.2-13.4-5.1-16.8-0.7c-2,2.7-1.5,6-1.2,9.2  c0.8,7.1,2,14.2,3.6,21.1c2.5,11.1,3.9,22.5,4.9,33.9c-1.7,0.9-3.5,1.8-5.2,2.7c-11.5,6.2-23.9,13.2-31.8,23.9  c-1.5,2,3.5,1.6,3.9,1.5c2.8-0.2,5.5-0.9,8.1-1.6c4.5-0.9,9.1-2.6,13-4.8c0.6-0.3,3.4-1.7,3-3c-0.2-0.6-1.1-0.8-2-0.8  c3-3.5,6.4-6.3,10.1-8.9c0,0.2,0,0.4,0,0.6c0,8.6,0,17.3,0,25.9c-5.5,2-9.5,7.3-9.5,13.5s3.9,11.5,9.5,13.5c0,28.5,0,56.9,0,85.4  c0,3.2,5.5,5.6,5.5,1.5c0-28.7,0-57.4,0-86.1c0.2,0,0.3,0,0.5,0c1.2,1.9,3.4,3.6,6,4.9c0,17,0,34,0,51c0,1.5,0.8,3.2,1.9,4.1  c1,0.8,2,0.4,2-0.9c0-17.5,0-35.1,0-52.6c6.7,2,13.8,1.3,13.5-4.4c-0.9-15.3-1.7-30.5-2.8-45.8c11.5,2.6,23.7,0.7,35.1-1.6  c1.9-0.4,3.8-0.8,5.8-1.3c-6.1,10.2-10.5,21.3-13,33.2c-5.3,24.9-2.2,51.1,3.5,75.7c1.3,5.5,5.3,10.9,8.9,15.1c0.9,1.1,7,7,5.7,1.7  C294.4,496.2,291.8,471.4,296.8,447.2z M201.6,399C198.1,400.3,196.1,400.6,201.6,399L201.6,399z M208.8,402.3  C212.3,401,214.2,400.7,208.8,402.3L208.8,402.3z M265.9,411.5c-2.7-0.3-5.1,1.7-5.4,4.4c-0.3,2.7,1.7,5.1,4.4,5.4s5.1-1.7,5.4-4.4  C270.6,414.2,268.6,411.8,265.9,411.5z M325,423c-6.2-0.6-11.7,3.9-12.4,10c-0.6,6.2,3.9,11.7,10,12.4c6.2,0.6,11.7-3.9,12.4-10  C335.7,429.1,331.2,423.6,325,423z M220.8,441.5c-2.7-0.3-5.1,1.7-5.4,4.4c-0.3,2.7,1.7,5.1,4.4,5.4c2.7,0.3,5.1-1.7,5.4-4.4  C225.5,444.2,223.5,441.8,220.8,441.5z"
   id="path24" />

<path
   fill="#FFFFFF"
   d="M209.7,277.3c-3.4-2.6-8.8-2.7-12.8-1.9c-6.1,1.1-12.2,2.1-18.3,2.9c-0.6,0.1-1.2,0.1-1.8,0.2  c-0.1,0-0.1,0-0.2,0c-1.6,0.2-3.2,0.3-4.8,0.5c-3.2,0.3-6.3,0.4-9.5,0.6c-2.4,0.1-4.8,0.1-7.2,0.1c-0.3,0-2.3-0.1-2.6-0.1  c-1.5-0.1-3-0.2-4.5-0.3c-2.7-0.2-5.3-0.5-8-0.8c-0.6-0.1-1.2-0.2-1.8-0.2c0,0-0.1,0-0.1,0c-0.1,0-0.4-0.1-0.7-0.1  c-1.4-0.2-2.9-0.5-4.3-0.8c-2.6-0.5-5.2-1.2-7.7-1.9c-1.1-0.3-2.3-0.7-3.4-1c-0.2-0.1-0.4-0.1-0.5-0.2c-0.8-0.3-1.5-0.5-2.3-0.8  c-5.5-1.9-10.8-4.3-15.9-6.9c-10.7-5.5-21.3-13.2-30.9-21.3c-3.2-2.7-8.9-2.6-12.8-1.9c-2.9,0.5-9.8,2.8-7.5,7.1  c3.4,6.3,7.7,12.3,12.1,18.2c0,18.3,0,36.7,0,55c0,1.2,2.4,2.9,2.4,1c0-17.6,0-35.2,0-52.8c9.7,12.7,19.5,25.4,22.1,41.2  c0.8,4.6,7.9,5.1,11.5,4.9c2.6-0.1,11.7-1.5,10.9-6c-2.1-12.6-8.3-23.2-15.4-33.3c8.4,3.7,17.2,6.6,26.3,8.5c18.9,4,38.3,4.1,57.5,2  c-15.3,17.8-26.1,39.4-34.9,61c-11.5,28.4-19.5,58.2-26.7,88c-1.4,5.7-2.7,11.5-4.1,17.2c-11.8-13.3-25.9-24.9-36.2-39.4  c7.4-2.6,14.2-6.4,20.2-11.6c7.8-6.7,13.5-15.9,16.8-25.6c2.8-8.1-19.4-8.7-21.7-1.9c-2.8,8.2-7,15.7-13.4,21.8  c-3.3,3.2-5.4,4.5-9.4,6.6c-0.8,0.4-1.5,0.8-2.3,1.1c1.7-0.8-1.5,0.6-1.8,0.7c-1.1,0.4-2.3,0.7-3.4,1.1c0,0-0.1,0-0.1,0  c-0.5,0.1-1.1,0.2-1.6,0.4c-2.6,0.5-10.2,2.9-7.5,7.1c4.4,6.9,9.7,13.1,15.4,19.1c0,22.6,0,45.2,0,67.8c0,5.7,8.8,6.7,8.8,0.5  c0-19.8,0-39.5,0-59.3c3.5,3.5,7,7,10.4,10.6c0,7,0,14,0,21.1c0,0.5,3.1,0.9,3.1,0.9c0-6.2,0-12.5,0-18.7c4.3,4.7,8.3,9.5,11.8,14.8  c-7.3,0.7-13,6.9-13,14.4c0,8,6.5,14.4,14.4,14.4c8,0,14.4-6.5,14.4-14.4c0-0.3,0-0.6,0-0.9c0.3,0,0.7,0,0.9,0  c2.6-0.1,9.8-1,10.6-4.5c6.5-27.9,12.7-55.9,20.8-83.5c8.5-29,18.8-58.1,34.4-84.1c6.9-11.5,14.7-21.8,24.5-31  C211.8,281.1,211.7,278.9,209.7,277.3z M114.8,503.8c-2.7-0.3-5.1,1.7-5.4,4.4c-0.3,2.7,1.7,5.1,4.4,5.4c2.7,0.3,5.1-1.7,5.4-4.4  C119.5,506.5,117.5,504.1,114.8,503.8z"
   id="path26" />

<path
   fill="#FFFFFF"
   d="M1197,248c-6.7-24.2-11.6-48.9-15.3-73.7c2.3,2,4.6,4,6.7,6.2c1.2,1.2,6.6,5.7,5.8,0.9  c-0.8-4.9-4.5-9.8-7.8-13.3c-2.1-2.2-4.3-4.3-6.5-6.3c-3.4-25-5.6-50.3-5.6-75.5c0-4.6-8.8-4.9-11.6-4.6c-3.4,0.3-10.8,1.7-10.8,6.3  c0,18.8,1.3,37.6,3.3,56.3c-0.5-0.3-1-0.5-1.4-0.8c-11-5.6-22.9-9.2-35-11.6c-1.3-0.3-2.6-0.5-3.9-0.7c-1.4-5.7-3-11.3-4.4-16.9  c-1.3-5.1-2.4-10.3-3.1-15.5c-0.3-2.1-0.5-4.2-0.5-6.3c0-0.4,0.1-2,0.1-2.3c0.1-0.6,0.2-1.3,0.4-1.9c3-10.7-19.3-11.5-21.9-2.1  c-2.5,8.9,0,18.8,2,27.5c1.1,4.8,2.4,9.5,3.6,14.3c-2.9-0.3-5.9-0.6-8.8-0.9c-3.3-0.3-6.5-0.7-9.8-1c-3.2-0.3-6.4-1-9.6-0.3  c-0.2,0-0.4,0.1-0.6,0.2c-1.2-0.7-2.2-0.9-2.3,0.4c0,0.4,0,0.8-0.1,1.2c0,0.1,0,0.1,0,0.2c-2.1,4.5,6.8,14.3,9.3,16.5  c0.8,0.7,2.5,2.1,3.7,1.4c0.3-0.1,0.4-0.4,0.6-0.7c0.5-0.3,1.1-0.5,1.6-0.6c2.6-0.7,5.8,0.2,8.4,0.5c3.9,0.4,7.7,0.8,11.6,1.2  c0.7,4.7,0.8,9.5,1,14.3c0.3,7,0.5,14,0.5,20.9c0,13.3-1,26.7-4.7,39.6c-3.1,10.7,19.2,11.5,21.9,2.1c3.8-13,4.8-26.8,5.1-40.3  c0.1-6.7,0-13.3-0.3-20c-0.2-4.6-0.3-9.3-0.6-13.9c4.8,0.7,9.7,1.5,14.5,2.6c6.1,1.3,12.2,3,18,5.2c0,22,0,44.1,0,66.2  c0,1.2,2.4,2.9,2.4,1c0-22.1,0-44.2,0-66.2c1.4,0.5,2.8,1.1,4.1,1.7c0.4,3,0.8,5.9,1.2,8.9c2.4,17.1,5.3,34.2,9,51.1  c-6.7,1.3-11.7,7.1-11.7,14.2c0,8,6.5,14.4,14.4,14.4c1.2,0,2.5-0.2,3.6-0.5c0,28.6,0,57.3,0,85.9c0,3.3,12.8,3.1,12.8-0.4  c0-25.8,0-51.5,0-77.3c0.1,0,0.2,0,0.4,0c1-0.1,3.4-0.5,5.6-1.2c0,24.6,0,49.3,0,73.9c0,3,6,0.8,6-1.9c0-25.6,0-51.3,0-76.9  C1198.1,248.5,1197.6,248.1,1197,248z M1060.1,127.2C1060.2,127.1,1060.2,127.1,1060.1,127.2  C1060.2,127.1,1060.2,127.1,1060.1,127.2C1060.2,127.1,1060.2,127.1,1060.1,127.2z M1071.5,152.2c-2.7-0.3-5.1,1.7-5.4,4.4  c-0.3,2.7,1.7,5.1,4.4,5.4c2.7,0.3,5.1-1.7,5.4-4.4C1076.1,154.9,1074.2,152.5,1071.5,152.2z M1163.5,251.4  c-2.7-0.3-5.1,1.7-5.4,4.4s1.7,5.1,4.4,5.4c2.7,0.3,5.1-1.7,5.4-4.4C1168.2,254.1,1166.2,251.7,1163.5,251.4z"
   id="path28" />

<path
   fill="#FFFFFF"
   d="M489.8,188.3c-0.1-2.1-0.2-4.3-0.3-6.4c-0.3-5.7-0.8-11.7,0-17.4c0.2-1.2-10.7,0.5-11.3,0.6  c-2.6,0.5-5.2,1.1-7.7,1.9c-0.5,0.2-2.9,0.7-3,1.6c-1.1,7.5-0.1,15.5,0.3,23c0.5,9.6,1,19.2,0,28.7c-0.3,2.8-0.8,5.5-1.6,8.2  c-0.4-0.3-0.8-0.5-1.2-0.8c-5.5-3.9-10.1-8.9-14-14.4c-8.3-11.7-13.2-25.7-16.8-39.5c-3.4-13.1-6.1-27-7-40.5  c-0.7-10.4-3.8-20.7-5.1-31.1c-1.1-8.7-2.3-20.7,3.1-28.5c0,0,0.1,0,0.1,0c5.9,2.9,10.9,7.7,15,12.8c4.3,5.2,7.9,11.1,10.4,17.4  c1.9,4.7,3.3,10.3,2,15.3c-0.2,1,10.8-0.5,11.3-0.6c2.6-0.5,5.2-1.1,7.7-1.9c0.6-0.2,2.8-0.7,3-1.6c0.1-0.3,0.2-0.7,0.2-1  c5.2-22,13.6-43.1,13.7-66c0-1.4-10.6,0.5-11.3,0.6c-1.2,0.2-10.7,1.6-10.8,3.5c-0.1,10.4-1.8,20.4-4.2,30.2  c-6.2-7.7-14.7-14.9-24.6-15.9c-4.7-0.5-9.5,0.3-14.1,1.1c-5,0.9-10.2,2-14.7,4.5c-4.1,2.3-6.7,6.2-8.1,10.6  c-3.5,10.8-1,23.4,0.9,34.3c1.9,10.5,3.4,20.9,4.9,31.4c2,14.2,4.8,28.4,9.3,42.1c1.5,4.4,3.2,8.8,5.2,13c0.3,19,0.6,38,0.6,56.9  c0,0.8,2.8,1.5,2.8,1.6c0-17.7-0.3-35.3-0.6-53c0.9,1.7,1.9,3.3,2.9,5c0,22.5,0,44.9,0,67.4c0,3,6,0.8,6-1.9c0-13.8,0-27.6,0-41.3  c2.6,2.5,6.2,4.1,10.1,4.1c4.3,0,8.2-1.9,10.9-4.9c5.2,1.3,10.8,0.4,16-0.6c4-0.8,9.1-1.5,12.7-3.9c0,7.7,0,15.4,0,23.1  c0,2.9,6.2,1.5,6.2-0.9c0-10.8,0-21.5,0-32.3c0.8-3.1,1.2-6.3,1.5-9.5c3,21.8,2.1,44.2,2.1,66.2c0,1.9,5.9,4.2,5.9,2.1  C498.1,250.4,499.6,218.4,489.8,188.3z M411.1,199.9c-2.7-0.3-5.1,1.7-5.4,4.4c-0.3,2.7,1.7,5.1,4.4,5.4c2.7,0.3,5.1-1.7,5.4-4.4  C415.8,202.6,413.8,200.2,411.1,199.9z"
   id="path30" />

<path
   fill="#FFFFFF"
   d="M197.3,179.5c-0.2-0.3-0.3-0.4-0.4-0.6c-0.3-0.5-0.7-1.1-1-1.6c-0.8-1.3-1.5-2.6-2.3-3.9  c-1.5-2.6-2.9-5.2-4.3-7.8c-2.9-5.4-5.5-11-7.9-16.7c-0.3-0.6-0.4-1-0.4-1c-0.2-0.5-0.4-0.9-0.6-1.4c-0.5-1.3-1-2.6-1.5-4  c-1.1-3-2.2-5.9-3.2-8.9c-1.9-5.6-3.7-11.3-5.4-17C163.5,93,158.8,68.8,153,45c-1.2-4.9-5.8-9.5-10.1-11.8c-4-2.2-9.3-2.7-9.7,3.1  c-0.6,9.6-2.6,19.6-5.2,29.5c-2.9,10.8-6.7,21.3-11.1,31.5c-3.1,7-6.5,13.9-10.3,20.6c-8.5-4.2-17.2-8-26.3-10.8  c-13-4-27.9-6.3-40.9-1c-8.5,3.4,3.5,19.4,11.9,20.5c0.7,24.3,1.3,48.6,1.3,73c0,3,8.7,6.5,8.7,3.3c0-26.1-0.7-52.3-1.5-78.4  c2.1-0.5,4-0.7,6.1-0.8c0,10.6,0,21.1,0,31.7c0,1.1,3.2,0.7,3.2-0.6c0-7.4,0-14.7,0-22.1c1.2,1,2.6,1.6,4.3,1.8  c4.4,0.5,8.3-2.7,8.8-7.1c0.1-0.6,0.1-1.2,0-1.8c1.4,0.4,2.7,0.7,4.1,1.1c3.2,1,6.3,2.1,9.4,3.3c0.9,0.3,1.8,0.7,2.6,1.1  c-4.8,6.9-10.1,13.4-15.9,19.3c-3.8,3.9,1.5,11.1,4.2,13.8c2.6,2.6,9.9,8.4,13.7,4.5c7.9-7.9,14.7-16.9,20.7-26.4  c0.2,0.1,0.4,0.2,0.6,0.3c10.9,6,21.6,12.1,32.8,17.7c3.2,1.6,6.4,3.4,9.5,5.2c0.4,0.3,2.8,1.7,3.1,2c1.4,1,2.8,2,4.2,3  c1,0.7,1.9,1.5,2.9,2.3c0.4,0.3,1.1,1,1.4,1.2c0.7,0.7,1.4,1.4,2.1,2.1c0.4,0.4,0.8,0.8,1.1,1.2c-0.5-0.5,0.9,1.1,1.2,1.5  c1.2,1.6,2.4,3.3,3.4,5c2.5,4,9.2,9.6,14.3,8C203.3,190,199,182.3,197.3,179.5z M157,144.7c-5.8-3.1-11.8-5.8-17.6-9  c-3.7-2.1-7.4-4.2-11.1-6.2c2.8-5.3,5.5-10.7,7.9-16.2c3.5-7.8,6.6-15.8,9.1-24c1.8,7.4,3.7,14.8,5.8,22.1c3.8,13,8.3,25.7,13.8,38  C162.4,147.7,159.7,146.1,157,144.7z M78.2,136c-2.2-0.2-4.2,1.4-4.5,3.6c-0.2,2.2,1.4,4.2,3.6,4.5c2.2,0.2,4.2-1.4,4.5-3.6  S80.4,136.2,78.2,136z"
   id="path32" />

<path
   fill="#FFFFFF"
   d="M1200.8,408.1c-6.2-9.9-16.5-17.2-26.1-23.4c-9.4-6.2-19.4-11.6-29.1-17.1c-8.4-4.8-17.1-9.6-24.5-16  c-0.3-0.2-2.1-1.9-1.2-1.1c-1.2-1.2-2.5-2.4-3.7-3.7c-1.9-1.8-3.7-3.6-5.6-5.3c-4.2-4-8.2-8.2-11.7-12.8  c-7.9-10.3-11.8-22.3-10.8-35.2c0.4-5.5-9.5-2.3-11.9-1.5c-3.5,1.3-6.8,3-9.8,5.3c-1.5,1.2-4.4,3.5-4.6,5.7  c-0.8,9.9,0.9,19,4.8,27.5c-3.3-1.3-8-2.7-7.6,0c3.8,22.6,9.7,44.8,15.4,67.1c-3.9,0.7-7.8,1.7-11.5,3.1  c-15.2,5.5-42.8,23.2-31.6,43.1c2.6,4.7,6.9,8.3,11.8,11.1c0,16.1,0,32.2,0,48.3c0,4.7,12.5,2.7,12.5-2.7c0-13.4,0-26.9,0-40.3  c1,0.3,2,0.6,3,0.9c0.7,0.2,1.3,0.4,2,0.5c0,10.1,0,20.3,0,30.4c0,2.3,5.6,5,5.6,1.7c0-10.2,0-20.5,0-30.7  c5.1,1.2,10.2,2.2,15.4,3.1c2.2,0.4,4.5,0.8,6.7,1.1c0.9,8.3,1.4,16.7,1.4,25.2c0,1.7,1.5,2.9,2.7,3.9c2.6,2.2,5.6,4,8.6,5.5  c0.6,0.3,14.2,6.4,14.2,4c0-12.1-1.1-24.1-2.7-35.9c10.8,0.7,21.7,0.6,32.4-0.6c11.9-1.3,23.9-4.3,34.5-9.9  c10.5-5.6,20.3-13,24.4-24.5C1206.9,426.3,1205.6,415.8,1200.8,408.1z M1063.5,412.5C1063.6,412.5,1063.6,412.5,1063.5,412.5  L1063.5,412.5z M1060,413.5c-0.1,0-0.1,0.1-0.2,0.1C1057.9,414.7,1059,414,1060,413.5z M1082.5,446.4c-0.2,0-0.4-0.1-0.5-0.1  c-1.7-0.5-3.3-1-4.9-1.6c-3.1-1.1-6.2-2.4-9.1-4c-4.6-2.5-7.4-4.6-10-8.3c-1-1.4-1.7-3-2.3-4.7c-0.2-0.8-0.4-1.5-0.5-2.3  c0,0,0-0.1,0-0.1c0-0.5,0-1,0-1.6c0.1-1.6,0.4-3.1,0.9-4.6c0-0.1,0.1-0.2,0.1-0.3c0.1-0.2,0.2-0.4,0.3-0.5c0.4-0.9,1-1.7,1.5-2.5  c0.1-0.1,0.2-0.3,0.4-0.5c0.2-0.2,0.3-0.4,0.5-0.5c0.3-0.3,0.6-0.7,1-1c0.2-0.2,0.5-0.4,0.7-0.6c0,0,0,0,0,0c0.1,0,0.2-0.1,0.3-0.1  c0.3-0.1,0.7-0.2,1-0.2c0.1,0,0.3-0.1,0.4-0.1c0.3,0,0.7-0.1,1-0.1c0.7-0.1,1.3-0.1,2-0.2c0.1,0,0.1,0,0.2,0c1.3,0,2.6,0.2,3.9,0.3  c0.7,0.1,1.4,0.2,2,0.4c0.3,0.1,0.4,0.1,0.6,0.1c0,0,0.1,0,0.1,0c2.4,0.7,4.7,1.8,6.9,3c2.4,10.3,4.7,20.5,6.4,30.9  C1084.5,446.9,1083.5,446.7,1082.5,446.4z M1170.2,451.8C1169.4,452.1,1167.7,452.6,1170.2,451.8L1170.2,451.8z M1177.6,444.4  c0,0.1-0.1,0.3-0.1,0.4c-0.1,0.2-0.3,0.6-0.4,0.8c-0.4,0.8-0.9,1.6-1.4,2.3c-0.2,0.3-0.4,0.6-0.6,0.9c-0.3,0.3-0.6,0.6-0.9,0.9  c-0.3,0.3-0.6,0.6-0.9,0.8c0,0,0,0-0.1,0c-0.2,0.1-0.4,0.2-0.6,0.3c-0.7,0.3-1.4,0.5-2.1,0.7c-0.2,0.1-0.4,0.1-0.6,0.2  c-1.1,0.3-2.2,0.5-3.3,0.8c-0.6,0.1-2.4,0.5-3,0.6c-4.5,0.7-9,1.1-13.6,1.3c-1.3,0.1-2.5,0.1-3.8,0.1c-0.2,0-0.5,0-0.8,0  c-0.4,0-0.8,0-1.2,0c-2.8,0-5.5-0.1-8.3-0.2c-8.9-0.4-17.8-1.3-26.6-2.5c-1.3-6.7-2.7-13.5-4.3-20.2c1.1-0.5,2-0.9,2.6-1.1  c2.6-1.3,12.8-6.5,10.7-11c-4.4-9.1-11.6-17-21.3-20.4c-3.6-14.2-7.1-28.3-10.1-42.6c0.7,0.6,1.3,1.3,2,1.9  c3.8,3.7,7.5,7.5,11.8,10.7c19.8,14.9,43.5,23.7,62.8,39.4c4.1,3.4,7.5,6.7,10.6,11.2c1.3,1.9,2.4,3.9,3.3,6c0.4,1,0.7,2.1,1,3.1  c0.1,0.5,0.2,1.1,0.3,1.6c0,0.2,0.2,1.5,0.2,1.5C1179.4,436.2,1179,440.4,1177.6,444.4z"
   id="path34" />

<path
   fill="#FFFFFF"
   d="M1336.4,432.1c-0.1-5.8-0.8-11.5-1.8-17.2c-1.8-10.4-5-20.8-10.4-30c-4.3-7.3-10.3-12.6-17.8-15.4  c0.4-0.4,0.7-0.8,0.8-1.2c4.1-14.3,8.9-28.4,14.4-42.2c2.7-6.7-22.2-6.5-24.8,0.1c-1.4,3.6-2.8,7.1-4.1,10.8  c-9.6-4.2-22.4-3-31.9-0.8c-11.5,2.6-22.6,7.9-31.6,15.6c-9.3,8-14.8,18.5-18,30.2c-6.4,23.4-2.1,48.4,8.9,69.8c0,5.6,0,11.2,0,16.8  c-0.3,1.2-0.5,2.4-0.5,3.6c0,1.3,0.2,2.5,0.5,3.6c0,13.9,0,27.8,0,41.7c0,3,6.2,1.5,6.2-1c0-10.7,0-21.5,0-32.2  c2.2,1.4,4.9,2.3,7.8,2.3c3.9,0,7.4-1.5,10-4.1c7.8,6.3,16.8,10.7,27.3,12.2c16.5,2.3,34.9-2.8,47.2-14.2  c7.2-6.7,11.9-14.7,14.6-23.4c1.6,2.2,3,4.5,4.3,7c4.5,8.4,5.7,19.3,3,27.6c-1.4,4.4-3.8,8.4-6.6,12.1c-0.4,0.4-0.7,0.9-1.1,1.3  c-0.1,0.1-0.1,0.1-0.1,0.2c-0.1,0.1-0.1,0.1-0.2,0.2c-0.8,0.9-1.6,1.7-2.5,2.5c-1.9,1.8-3.9,3.4-6,4.9c-0.4,0.3-2.2,1.4-2.3,1.6  c-0.8,0.5-1.7,1-2.5,1.5c-2,1.1-4.1,2.1-6.2,3.1c0.1,0-2.3,0.9-2.8,1.1c-1.2,0.4-2.4,0.8-3.7,1.2c-0.4,0.1-0.8,0.2-1.1,0.3  c-0.1,0-0.2,0-0.2,0.1c-1.5,0.4-2.9,0.7-4.4,1c-0.4,0.1-0.8,0.1-1.2,0.2c-1.3,0.2-2.5,0.3-3.8,0.4c-0.4,0-0.8,0.1-1.2,0.1  c-1.5,0.1-3,0.1-4.4,0c-0.1,0-0.2,0-0.4,0c-0.3,0-0.6,0-1-0.1c-1.3-0.1-2.5-0.3-3.8-0.4c-0.4-0.1-0.7-0.1-1.1-0.2  c-0.2,0-0.4-0.1-0.5-0.1c-1.4-0.3-2.8-0.7-4.2-1c-0.8-0.2-1.6-0.5-2.3-0.7c-0.2-0.1-0.3-0.1-0.5-0.2c-0.1,0-0.2-0.1-0.3-0.1  c-1.5-0.6-3-1.3-4.4-2c-1.4-0.7-2.8-1.5-4.2-2.4c-0.2-0.1-1.3-0.9-1.4-1c-0.7-0.5-1.4-1.1-2-1.6c-4.1-3.5-11.2-2.7-16-1.7  c-1.3,0.3-12.2,3.6-8.2,6.9c19.5,16.4,48.2,17.2,71.9,11.8c9.5-2.2,19.6-5.7,28.6-11c0,14.2,0,28.5,0,42.7c0,2.6,9.5,3.4,9.5,1.4  c0-16.9,0-33.8,0-50.7c2.3-1.8,4.4-3.8,6.3-6c0,33.6,0,67.3,0,100.9c0,1.3,6.1,2.1,6.1,2c0-37.1,0-74.2,0-111.2  c1.1-1.8,2-3.7,2.8-5.7C1374.3,468.8,1355.7,445.2,1336.4,432.1z M1287.8,377.1C1288.7,376.9,1290.2,376.7,1287.8,377.1  L1287.8,377.1z M1285.8,377.2C1284.1,377.2,1285,377.2,1285.8,377.2L1285.8,377.2z M1285.4,377.9c0.1,0,0.2-0.1,0.2-0.1  c0.4-0.1,0.7-0.3,1.1-0.4c0.1,0,0.3,0.1,0.4,0.1c0,0,0,0,0.1,0c0.5,0.2,1.1,0.5,1.6,0.7c0.8,0.4,1.5,0.9,2.2,1.3  c-0.4-0.2,1.5,1.2,1.8,1.5c1.8,1.6,3.3,3.4,4.7,5.3c3,4.1,4.8,7.9,6.6,12.4c2.4,6.2,4,12.6,5.2,19.2c-5.6-2.5-11.3-5-16.8-7.8  c-2.5-1.3-6.1-3.1-7.5-4.2c-2.4-1.9-4.4-4.3-6-6.9c-2.7-4.4-3-10.2-0.7-14.7c0.6-1.2,1.4-2.2,2-2.8c0.6-0.6,1.2-1.1,1.9-1.6  c0,0,1.4-0.9,1.4-1C1284.1,378.5,1284.7,378.2,1285.4,377.9z M1272.7,345C1273.2,345.2,1273.6,345.3,1272.7,345L1272.7,345z   M1283.7,485.1C1283.2,485.2,1282.9,485.2,1283.7,485.1L1283.7,485.1z M1307.3,460.5c-2.3,6-6.1,12.2-10.2,16.4  c-2,2-4.2,3.8-6.5,5.4c-0.1,0.1-1.1,0.7-1.3,0.8c-0.6,0.4-1.3,0.7-2,1c-0.2,0.1-0.5,0.2-0.8,0.4c-0.3,0.1-0.7,0.2-1,0.4  c-0.3,0.1-0.6,0.2-0.9,0.2c-0.4,0-1.1-0.1-1.4-0.1c-0.1,0-0.3,0-0.4,0c0,0,0,0,0,0c-0.8-0.2-1.5-0.4-2.3-0.6c-0.5-0.1-1-0.3-1.4-0.4  c-0.1,0-0.2-0.1-0.3-0.1c-7-2.8-12.5-7.6-17.5-13c-20.9-22.1-31.8-54.6-26.2-84.8c1.2-6.5,3.6-12.8,6.5-18.7c0.9-1.9,2-3.7,3.2-5.4  c0.6-0.9,1.3-1.8,2-2.7c0.1-0.1,0.5-0.6,0.7-0.8c0.3-0.3,0.6-0.6,0.9-0.9c1.5-1.5,3.1-3,4.8-4.3c0.9-0.8,1.9-1.5,2.8-2.2  c0.4-0.3,2.1-1.4,2.3-1.5c1.6-1,3.3-1.9,5-2.7c0.5-0.2,1-0.5,1.5-0.7c1-0.4,2-0.7,3-1.1c0.2-0.1,0.4-0.1,0.6-0.2  c0.3-0.1,0.7-0.2,1-0.2c0.3,0,0.6-0.1,0.9-0.1c0.1,0,0.2,0,0.4,0c0.2,0,0.4,0,0.5,0c0.4,0.1,0.7,0.2,1.1,0.3c0,0,0.1,0,0.1,0  c0.3,0.1,0.5,0.2,0.8,0.4c0.6,0.3,1.2,0.6,1.8,1c-0.1,0,1.1,0.9,1.4,1.1c0.7,0.6,1.3,1.4,1.9,2.1c1.5,1.9,1.8,2.8,2.5,4.7  c1.5,4.3,1.8,9,1.6,13.6c-10.8,1.8-21.5,6.6-27.7,14.7c-8.4,11,0.1,24.8,9.8,31.3c6.1,4.1,13.5,6.9,20.2,10  c7.2,3.2,14.4,6.4,21.3,10.2c1.8,1,3.5,2,5.2,3C1311.2,445,1310.2,452.9,1307.3,460.5z M1294.5,523.4  C1297.2,523.2,1295.4,523.3,1294.5,523.4L1294.5,523.4z M1299.5,522.8C1302.2,522.4,1300.4,522.7,1299.5,522.8L1299.5,522.8z   M1305.6,521.5C1306.8,521.1,1306.3,521.3,1305.6,521.5L1305.6,521.5z M1243.7,505c2.1-1.7,0.9-6.6-2.7-11  c-3.6-4.3-8.2-6.4-10.3-4.7c-2.1,1.7-0.9,6.6,2.7,11C1237,504.7,1241.6,506.8,1243.7,505z"
   id="path36" />

<path
   fill="#FFFFFF"
   d="M713.3,659.9c-8.6-15.3-17.4-30.6-24.6-46.6c-1.2-9.8-3.6-19.4-6.2-29c-2.4-8.9-4.9-17.8-6.3-26.9  c-1-5.9-7.4-9.1-12.8-8.7c-7.1,0.5-14.4,6.3-14.7,13.8c-1,21.1,4.6,41.3,12.9,60.5c0,0.5,0.1,0.9,0.1,1.4c0.1,1.5,0.1,2.9,0,4.4  c0,1.4-0.1,2.9-0.3,4.3c-0.1,0.7-0.5,3-0.6,3.7c-0.4,1.6-0.9,3.2-1.6,4.7c-0.2,0.4-1.2,2.4-1.6,3c-0.4,0.7-2,2.7-2.4,3.3  c-0.7,0.7-1.4,1.4-2.1,2.1c-0.5,0.5-2.4,2-2.9,2.4c-1,0.7-2,1.3-3.1,1.9c-0.7,0.4-1.4,0.8-2.1,1.2c-3.9,1.2-7.9,2.1-11.9,2.8  c0,0-2.8,0.5-3.6,0.6c-1.5,0.3-3.1,0.5-4.6,0.7c-3.4,0.5-6.9,0.9-10.3,1.2c-3.1,0.3-6.2,0.5-9.4,0.6c-1.5,0-2.9,0-4.4,0  c-0.3,0-0.5,0-0.8,0c-0.4,0-0.9-0.1-1.2-0.1c-1.2-0.1-2.4-0.3-3.7-0.5c-0.4-0.1-1.3-0.3-1.9-0.5c-0.4-0.2-0.8-0.3-1.1-0.5  c-0.6-0.4-1.1-0.9-1.7-1.4c0.1-0.2,0.2-0.4,0.2-0.6c0.1-0.2,0.1-0.4,0.2-0.6c0.3-0.5,0.6-1.1,0.9-1.6c4-6.9,8.5-13.5,12.1-20.6  c8.1-16,15-32.7,19.3-50.2c4.2-16.8,6.4-34.5,2.7-51.6c-1-4.6-2.7-9.1-4.7-13.4c-3.1-6.9-13.2-6.6-18.7-3.4  c-6.5,3.8-9.3,11.1-6.1,18c0.1,0.3,0.4,0.9,0.6,1.3c0.1,0.3,0.2,0.7,0.3,1c0.5,1.6,1,3.2,1.3,4.9c0.4,1.7,0.7,3.4,0.9,5.1  c0.1,0.9,0.2,1.8,0.3,2.6c0,0.1,0,0.1,0,0.2c0,0.3,0,0.7,0.1,1c0.4,8-0.5,16-1.9,23.8c0,0.2-0.2,0.8-0.3,1.3  c-0.2,0.8-0.3,1.5-0.5,2.3c-0.5,2-1,4-1.5,6c-1.2,4.3-2.5,8.6-4,12.9c-2.8,8.1-6.1,16.1-9.7,23.9c-0.2,0.5-0.4,0.9-0.7,1.4  c-0.2,0.4-0.7,1.4-0.8,1.7c-0.9,1.7-1.8,3.5-2.7,5.2c-2,3.8-4.4,7.4-6.7,11.1c-4.1,6.4-8.6,13.7-8.7,21.6  c-0.1,9.9,6.4,16.8,14.5,21.5c5.6,3.3,12.9,3.6,19.3,4c1.9,0.1,3.7,0.1,5.6,0.1c-0.1,7.8,0.1,15.6,1.7,23.2c0.4,2,6.1,4.6,5.5,1.7  c-1.7-8.2-1.8-16.7-1.6-25.1c2.4-0.1,4.8-0.3,7.2-0.6c0,20.4,0,40.8,0,61.2c0,3,6.2,1.5,6.2-1c0-20.3,0-40.6,0-60.9  c1.7-0.2,3.3-0.5,5-0.8c0.5,3.9,2.6,7.3,5.5,9.6c-0.1,0-0.3-0.1-0.4-0.1c-2.7-0.3-5.1,1.7-5.4,4.4c-0.3,2.7,1.7,5.1,4.4,5.4  c2.7,0.3,5.1-1.7,5.4-4.4c0.1-1.4-0.3-2.7-1.1-3.6c1.8,0.8,3.8,1.3,5.9,1.3c8,0,14.4-6.4,14.4-14.4c0-1.6-0.3-3.1-0.7-4.5  c7.3-2.9,14.4-8.5,19.7-13.8c2.1-2.1,4-4.4,5.7-6.8c3.1,5.6,6.2,11,9.3,16.5C696.5,688.7,721.3,674.1,713.3,659.9z M590.3,659  C590.3,659,590.3,658.9,590.3,659C590.5,660.7,590.2,660,590.3,659z M591.9,659.7C591.4,659.4,590.6,658.8,591.9,659.7L591.9,659.7z  "
   id="path38" />

<path
   fill="#FFFFFF"
   d="M856.4,772.4c-17.1-7.8-36.7-7-55-6.6c-2,0.1-4.1,0.1-6.1,0.2c-0.1,0-0.2,0-0.3,0c-0.9,0-1.7,0-2.6,0  c-4.4,0-8.7,0-13-0.2c-2-0.1-3.9-0.3-5.8-0.5c-0.3,0-0.7-0.1-1.1-0.1c-0.4-0.1-0.9-0.2-1.3-0.2c-1.8-0.3-3.6-0.8-5.4-1.2  c-0.6-0.2-1.3-0.4-1.9-0.6c0,0,0,0,0,0c-6.8-2.2-13.4-4.9-20-7.7c-3.4-1.5-6.8-3.1-10.2-4.7c-1.7-0.8-3.4-1.7-5.1-2.6  c-0.2-0.1-0.5-0.3-0.8-0.4c-0.9-0.5-1.8-1-2.7-1.5c-6.7-3.8-13.1-8-19.2-12.8c-0.7-0.5-1.4-1.1-2-1.7c-0.2-0.2-0.6-0.5-1-0.8  c-1-0.9-1.9-1.8-2.9-2.7c-2.4-2.4-4.6-4.9-6.5-7.6c-0.3-0.4-0.6-0.8-0.8-1.2c-3.4-5.1-12.3-6.1-17.8-5.5c-5,0.5-14.8,4.2-11.9,11.2  c5.6,13.3,14.1,25.2,22.6,36.8c4.1,5.6,8.2,11.2,12,17c0.4,0.6,0.8,1.2,1.1,1.7c0.2,0.3,0.3,0.5,0.4,0.7c0.1,0.1,0.2,0.3,0.3,0.5  c0.9,1.5,1.7,3,2.6,4.5c0.2,0.3,0.4,0.7,0.5,1c-1.5,2.3-1.8,5,0.9,7.7c4,3.9,8.2,7,13.8,8c5.2,1,10.8,1,15.7-1.5  c3.2-1.7,6.3-5.2,4.7-9.1c-3.2-7.5-7.2-14.6-11.7-21.4c5.4,2.4,10.8,4.6,16.3,6.5c7.5,2.7,15.2,5.3,23.1,6.4  c9.3,1.4,18.6,1.8,28,1.7c5.2-0.1,10.3-0.2,15.5-0.3c0.3,0,0.6,0,0.8,0c0.3,0,0.9,0,1.3,0c-16.9,7.7-33.8,15.4-50.1,24.3  c-26,14.1-52.2,31-69.5,55.6c-1.4,2.1-2.8,4.2-4,6.4c-2.9,5,2.6,9.6,6.7,11.3c7.2,3,15.7,2.5,22.1-2.1c0.2-0.1,0.3-0.2,0.4-0.3  c0.2-0.1,0.4-0.2,0.7-0.4c0.9-0.6,1.9-1.1,2.8-1.6c0.9-0.5,1.9-1,2.8-1.4c0.3-0.1,1.2-0.5,1.7-0.7c1.5-0.5,3-0.9,4.5-1.3  c0.1,0,0.1,0,0.2-0.1c1.2-0.2,2.4-0.3,3.6-0.4c0.3,0,0.6,0,0.8-0.1c0.5,0,1.2,0,1.6,0c1.3,0,2.5,0.1,3.8,0.3  c-1.4,2.2-2.1,4.8-2.1,7.6c0,8,6.4,14.4,14.4,14.4c7.9,0,14.2-6.3,14.4-14.1c1.9,0.8,3.8,1.5,5.6,2.3c7.6,3.1,15.2,6.3,23.1,8.8  c2.7,0.9,5.5,1.8,8.4,2.6c0,16.9,0,33.7,0,50.6c0,1.3,2.6,3,2.6,1.4c0-17.1,0-34.2,0-51.3c6.9,1.9,14,3.4,21.1,3.5  c0,20.7,0,41.4,0,62.1c0,2.4,9,4,9,3.2c0-22,0-44,0-66c2.6-0.5,5.1-1.2,7.6-2.3c4.1-1.8,7.9-5.9,7.7-10.6c-0.2-4.6-2.4-8.1-4.8-11.9  c-3.8-6-8.8-11.3-13.5-16.6c-2.1-2.4-4.2-4.8-6.2-7.2c-0.4-0.6-0.9-1.1-1.3-1.7c-0.2-0.4-0.4-0.9-0.5-1.3c-0.6-2.9-4.6-5.2-7-6.2  c-3.8-1.6-8.1-2.1-12.2-1.7c-6.2,0.7-13.3,3.9-11.9,11.2c0.6,2.9,3,5.6,4.7,7.8c2.3,2.9,4.7,5.6,7.2,8.3c2.7,3.1,5.5,6.2,8.1,9.4  c0.5,0.6,1,1.3,1.5,1.9c-0.9-0.2-1.7-0.5-2.6-0.7c-0.9-0.2-1.8-0.5-2.7-0.8c-0.1,0-0.1,0-0.2-0.1c-0.2-0.1-0.4-0.1-0.6-0.2  c-7.9-2.6-15.5-5.9-23.2-9c-14.9-6-30.2-11.3-46.3-12.7c-0.6-0.1-1.3-0.1-1.9-0.1c1.8-1.6,3.5-3.1,5.4-4.6c2.6-2.2,5.4-4.3,8.1-6.3  c1.4-1,2.8-2.1,4.3-3.1c0.1-0.1,0.2-0.1,0.2-0.2c0,0,0,0,0.1,0c1-0.7,2-1.3,3-2c6.3-4.2,12.8-8,19.3-11.7  c24.9-14,51.3-25.1,77.1-37.3c1.3-0.6,2.6-1.2,3.8-1.8c2.5-1.2,4.9-3.6,5.1-6.5C864.1,776.8,859.9,774,856.4,772.4z M793.3,766  C793,766,792.9,766,793.3,766L793.3,766z M818.6,884.8C818.6,884.8,818.6,884.8,818.6,884.8C818.6,884.9,818.6,884.9,818.6,884.8z   M771.1,890.3c-2.1,1.7-0.9,6.6,2.7,11c3.6,4.3,8.2,6.4,10.3,4.7c2.1-1.7,0.9-6.6-2.7-11C777.8,890.7,773.2,888.6,771.1,890.3z   M729.1,879.8c-2.7-0.3-5.1,1.7-5.4,4.4c-0.3,2.7,1.7,5.1,4.4,5.4c2.7,0.3,5.1-1.7,5.4-4.4C733.8,882.5,731.8,880,729.1,879.8z   M722,815.2c0.3-2.7-1.7-5.1-4.4-5.4c-2.7-0.3-5.1,1.7-5.4,4.4c-0.3,2.7,1.7,5.1,4.4,5.4C719.2,819.8,721.7,817.9,722,815.2z"
   id="path40" />

<path
   fill="#FFFFFF"
   d="M930.2,614.5c-5.4-0.6-12.9,0.2-17.1,4c-17.6,16-33.5,34.4-43.1,56.4c-4.3,9.9-7.2,20.3-9,30.9  c-5.4-12.3-9.2-25.4-12.1-38.3c-3.4-14.7-5.7-29.7-7.2-44.8c7.9-0.1,14.3-14.5,14.3-32.3c0-17.8-6.4-32.3-14.4-32.3  c-0.9,0-1.8,0.2-2.7,0.6c0.1-5.7,0.2-11.4,0.4-17.2c0.1-3.7-7.9-3.9-10-3.9c-4.2,0-13.1,0.9-15.2,5.6c-3.6,8.2-9.4,15.3-14.9,22.3  c-2.6,3.4-5.3,6.8-7.8,10.3c-1.6,2.3-3.4,4.9-4.2,7.6c-1.4,4.9,6.6,5.4,9.7,5.4c3.3,0,6.6-0.6,9.7-1.7c1.5-0.6,4.9-2,5.4-3.9  c0.3-1.2,0.9-2.3,1.5-3.5c0.3,15.8,1.2,31.6,2.8,47.3c3,28.9,8.6,58.4,20.6,85c5.5,12.2,12.4,23.8,21.6,33.5c3,3.1,8.9,2.8,12.7,2.3  c3.4-0.4,12-2,12-6.8c0-15.9,1.2-31.8,5-47.1c0,22.7,0,45.4,0,68.1c0,2.1,9.4,3,9.4,2.1c0-31.9,0-63.9,0-95.8  c9.2-18.3,22.8-33.5,37.9-47.3C939.9,617.2,933.3,614.9,930.2,614.5z M865.1,622.7c5.3,0,9.6-4.3,9.6-9.6c0-5.3-4.3-9.6-9.6-9.6  s-9.6,4.3-9.6,9.6C855.5,618.4,859.8,622.7,865.1,622.7z M854.1,622.1c-2.7-0.3-5.1,1.7-5.4,4.4c-0.3,2.7,1.7,5.1,4.4,5.4  c2.7,0.3,5.1-1.7,5.4-4.4C858.8,624.8,856.8,622.4,854.1,622.1z"
   id="path42" />

<path
   fill="#FFFFFF"
   d="M1342.5,779.5c-21.2-18-37.6-40.2-53.3-62.9c6.6-1.3,11.5-7.1,11.5-14.1c0-7-5-12.9-11.7-14.1  c1.9-2.2,3.8-4.5,5.7-6.7c0.6,1.3,1.5,2.6,2.5,3.9c3.6,4.3,8.2,6.4,10.3,4.7c2.1-1.7,0.9-6.6-2.7-11c-1.5-1.8-3.1-3.2-4.7-4.1  c6.5-7.7,12.8-15.5,18.6-23.7c0.7,18.4,1.5,36.7,1.5,55.1c0,2.5,6.2,3.9,6.2,0.9c0-21.6-1.1-43.1-1.9-64.6c1.3-2.1,2.5-4.1,3.7-6.3  c1.2,11.5,2.3,23-0.2,34.3c-0.3,1.5,5.5-0.2,5.9-1.9c3.1-14,0.7-28.2-0.6-42.4c2-4.5,3.7-9.2,4.9-13.9c1-3.8-2.4-7.1-5.1-9.1  c-7-5.1-15.1-8.7-23.8-9.3c-4.6-0.4-9.9,0.5-13.4,3.8c-4.5,4.3,1.3,10.1,8.9,13.6c-3.3,8.4-7.8,16.4-12.8,23.9  c-0.8,1.2-1.6,2.3-2.4,3.5c0-0.1-0.9,1.2-0.9,1.3c-0.5,0.7-0.9,1.3-1.4,1.9c-2.1,2.8-4.3,5.6-6.4,8.4c-4.3,5.4-8.8,10.7-13.3,16  c-2.6,3-5.2,6.1-7.8,9.1c-3-4-6-8-8.9-12c-5.9-8.1-12.1-16.1-18.9-23.4c-3.6-3.9-7.4-7.8-12.4-9.7c-2.3-0.8-4.9-0.9-7.3-1  c-6.5-0.4-13.6,0.5-19.9,2.4c-3,0.9-5.6,2.1-6.1,5.4c-0.3,1.9,5.1,2.2,9.7,2.2c2.8,2.4,5.4,5.3,7.8,8c6.1,6.9,11.7,14.2,17.1,21.7  c6.8,9.5,13.9,18.8,20.7,28.2c-8.7,11.1-16.5,22.8-22.3,35.7c-5.8,13-8.6,27.3-7.4,41.5c0.9,10.5,31.4,18.5,30.4,6.6  c-1-12,1.1-22.9,6.2-35.1c2.5-5.9,5.5-11.6,8.9-17c1-1.6,2-3.2,3-4.8c3.3,4.6,6.5,9.2,9.9,13.8c0,20,0,40,0,60c0,1.9,5.9,4,5.9,1.9  c0-18,0-36,0-54.1c1,1.3,2,2.6,3,3.8c1.8,2.3,3.6,4.5,5.4,6.7c0.1,9.1,0.4,18.2,1.2,27.3c0.2,2.2,5.8-0.6,5.7-2.6  c-0.5-6-0.8-11.9-1-17.9c6.6,7.4,13.6,14.4,21.2,20.8c1.6,1.4,5.6,1.3,7.5,1.3c4.1,0.1,8.2-0.2,12.3-0.8  C1332.8,784.5,1345.8,782.3,1342.5,779.5z"
   id="path44" />

<path
   fill="#FFFFFF"
   d="M191.7,671.6c-1.8-5.3-4.6-10.3-7.7-15c-3.1-4.7-6.7-9-11.7-11.7c-10.2-5.6-23.4-0.7-28.3,9.5  c-4.6,9.4-5.7,20-6.2,30.3c-0.5,10.3,0,21.2,3.3,31c1.7,5.1,7,6.6,12,6c3.4-0.4,11.9-3.6,10.2-8.7c-3-9.3-3.5-19.4-3.3-29.1  c0-1.3,0.1-2.6,0.2-3.8c0-0.4,0.1-0.8,0.1-1.2c0-0.3,0.1-1,0.1-1.2c0.2-2.6,0.6-5.2,1.1-7.8c0.4-2.2,0.9-4.3,1.5-6.5  c0-0.2,0.1-0.3,0.1-0.5c2.7,3.9,4.9,8.1,6.7,12.4c0.3,0.7,0.5,1.4,0.8,2.1c-0.2-0.4,0.6,1.9,0.7,2.4c0.7,2.5,1.2,4.9,1.6,7.4  c1,5.4,1.4,10.8,1.5,16.3c0,2.7,0,5.5-0.2,8.2c0,0.2,0,0.3,0,0.4c0,0.1,0,0.2,0,0.3c-0.1,0.7-0.1,1.4-0.2,2  c-0.2,1.6-0.4,3.2-0.7,4.7c-0.9,5.2-2.3,10.3-4.4,15.1c0-0.2-1.1,2.1-1.3,2.5c-0.6,1-1.3,2-1.9,3c-0.5,0.7-1.1,1.5-1.7,2.2  c0.4-0.5-1.7,1.7-2.2,2.1c-0.3,0.3-0.6,0.5-1,0.8c-0.1,0-0.1,0.1-0.2,0.1c-0.5,0.3-1.9,1-2.4,1.2c-0.2,0.1-0.4,0.1-0.6,0.2  c0.1-0.1-1.8,0.3-2.8,0.5c-0.3,0-0.6,0-0.9,0c-0.4,0-1.4-0.1-2-0.2c-0.5-0.1-0.9-0.2-1.4-0.3c-0.3-0.1-0.7-0.2-1-0.3c0,0,0,0-0.1,0  c-0.8-0.4-1.7-0.8-2.5-1.2c-0.4-0.2-0.7-0.4-1.1-0.6c-1.6-1.1-3-2.4-4.3-3.7c-0.4-0.5-0.9-0.9-1.3-1.4c0.1,0.1-1.2-1.5-1.5-1.9  c-1.3-1.8-2.5-3.8-3.6-5.7c-1.1-1.9-2-3.9-2.9-5.9c-0.5-1-0.9-2.1-1.3-3.2c-0.2-0.5-0.4-1.1-0.6-1.6c-0.1-0.2-0.4-1.1-0.5-1.5  c-1.5-4.7-2.6-9.4-3.5-14.2c-2-10.5-2.9-21.3-3.1-32c-0.1-5.2,0.1-10.4,0.4-15.6c0-0.6,0.1-1.2,0.1-1.8c0-0.1,0-0.1,0-0.2  c0-0.1,0-0.1,0-0.2c0.1-1.2,0.2-2.3,0.3-3.5c0.3-2.4,0.6-4.8,0.9-7.2c0.6-4,1.4-8.1,2.5-12c0.4-1.6,0.9-3.2,1.5-4.8  c0.2-0.7,0.5-1.4,0.8-2.1c0.1-0.3,0.2-0.5,0.3-0.8c6.4-1,12.9-2,19.4-2c4.4,0,9.2-3.4,11.8-6.9c1.5-2,3.8-7.6,0-9  c-6.1-2.2-11.8-5.7-17.5-8.8c-9.2-5.2-18.3-10.7-27.2-16.4c-9.1-5.9-18.1-12.1-26.6-18.9c-1.8-1.4-3.5-2.8-5.2-4.3  c-0.3-0.2-0.5-0.5-0.8-0.7c-0.2-0.2-0.5-0.4-0.6-0.5c-0.8-0.8-1.6-1.5-2.4-2.3c-2.2-2.2-4.3-4.6-5.7-7.4c0,0,0-0.1,0-0.1  c0-0.1,0-0.1,0-0.2c1.3-2.5,1.7-5.3-1.1-7c-4.3-2.5-10.9,0.9-13.9,4.1c-3.1,3.3-5.9,7.5-4.7,12.3c0.7,3.1,2.6,5.8,4.6,8.2  c5.9,7.1,13.6,12.9,20.9,18.3c13.4,10,27.6,19.1,42.2,27.4c-6,1.1-12,2.2-18,3.5c-8.9,1.9-17.8,3.9-26.6,6.5  c-4.6,1.4-9.2,2.9-13.4,5.2c-3.6-13.5-7.3-27-9-40.8c0.2-0.4,0.2-0.7,0.2-1.1c-0.1-2.3-0.8-4.4-1-6.7c-0.2-4-7.4-0.4-9,0.4  c-2.5,1.3-5,3-7,5c-1,0.9-3.2,3-3.1,4.7c0.8,12.7,3.6,25.2,6.8,37.5c-6,1.7-10.5,7.3-10.5,13.8c0,8,6.4,14.4,14.4,14.4  c1.1,0,2.2-0.1,3.2-0.4c2.6,11.6,4.5,23.3,4.3,35.4c-0.1,4.1,7.7,0.3,9-0.4c3-1.6,10.1-5.6,10.1-9.7c0.3-13.3-2-26.1-5.1-38.8  c0.3-0.2,0.6-0.4,0.8-0.6c0.2-0.1,0.3-0.2,0.5-0.2c0.4-0.1,2.6-0.9,3.3-1.2c1.7-0.6,3.5-1.1,5.2-1.6c0.3-0.1,0.7-0.2,1-0.3  c0,25.4,0,50.8,0,76.2c0,2,3.1,1.4,3.1-0.4c0-25.6,0-51.1,0-76.7c2-0.5,4.1-1.1,6.1-1.5c3.1,1,6.8,0.7,9.6-0.1  c2-0.6,3.9-1.1,5.9-1.5c0.2,0,0.4-0.1,0.5-0.1c0.3-0.1,0.5-0.1,0.8-0.1c-4,13.3-4.5,28-4.6,41.4c-0.1,20.9,2.5,43,11.4,62.1  c4,8.6,10,16.2,18,21.4c9.5,6.2,21.7,7.1,32.5,4.6c13.2-3.1,21.6-11.9,26.7-22.9c0,13.8,0,27.5,0,41.3c0,1.3,3.1,2.1,3.1,0.6  c0-16.6,0-33.3,0-49.9c2.6-8.4,3.7-17.5,3.8-26C196.7,692.7,195.1,681.9,191.7,671.6z M157.8,657.3c0,0,0.1,0.1,0.1,0.1  C157.7,657.3,157.7,657.3,157.8,657.3z M72.4,551.6c0.5-0.6,1.2-1.3,1.7-2.1c-0.1,0.2-0.3,0.4-0.4,0.7  C74.2,549.4,75.5,548.4,72.4,551.6z M74.6,548.8c0.1-0.1,0.1-0.2,0.2-0.3C74.8,548.5,74.7,548.6,74.6,548.8z M75.3,546.9  C75.3,546.9,75.3,546.9,75.3,546.9C75.3,546.9,75.3,546.8,75.3,546.9C75.3,546.8,75.3,546.9,75.3,546.9z M71.2,637.2  c-0.1,0.1-0.2,0.2-0.3,0.3c0.2-0.2,0.4-0.4,0.7-0.6C71.4,637,71.3,637.1,71.2,637.2z M160.7,744.9  C162.1,743.8,161.3,744.4,160.7,744.9L160.7,744.9z M38.2,657.8c-2.1,1.7-0.9,6.6,2.7,11c3.6,4.3,8.2,6.4,10.3,4.7  c2.1-1.7,0.9-6.6-2.7-11C44.9,658.2,40.3,656.1,38.2,657.8z"
   id="path46" />

<path
   fill="#FFFFFF"
   d="M626.4,884.3c-9-9.3-17.3-19.3-24.8-30c-3.8-5.4-7.4-11-10.7-16.8c-1.8-3-3.5-6.1-5.1-9.2c0,0,0-0.1-0.1-0.1  c-0.4-0.9-0.9-1.7-1.3-2.6c-0.8-1.6-1.5-3.2-2.3-4.8c-5.8-12.6-10.4-25.8-13.6-39.4c-0.8-3.2-1.4-6.3-2-9.5  c-0.3-1.8-0.6-3.6-0.9-5.4c0-0.3-0.1-0.7-0.1-1c0.1,0.5-0.2-1.8-0.3-2.1c-0.3-2.4-0.5-4.9-0.7-7.3c-0.2-4.2-0.5-8.4-0.6-12.6  c0-0.7,0-1.3,0-2c-0.1-18-30.7-12.1-30.6,4c0,2.3,0.1,4.7,0.2,7c0,0.4,0,0.8,0,1.2c0,0,0,0.1,0,0.1c0.4,10.6,1.4,21.2,1,31.8  c-0.1,3.2-0.4,6.4-0.8,9.6c-0.1,0.7-0.3,1.4-0.5,2.1c-0.3,1.1-0.6,2.1-1,3.1c-0.5,0.5-1.2,1.3-1.6,1.7c-0.1,0.1-0.2,0.2-0.3,0.2  c0,0,0,0-0.1,0c-1.1,0.8-2.2,1.4-3.4,2.1c-0.1,0.1-0.2,0.1-0.3,0.2c-1.2,0.5-2.4,1-3.5,1.4c-1.4,0.5-2.8,0.9-4.2,1.4  c-0.4,0.1-0.7,0.2-1.1,0.3c-3,0.7-6.1,1.1-9.1,1.5c-1.6,0.2-3.1,0.3-4.7,0.4c-0.7,0.1-3,0.1-3.6,0.2c-4.9,0-9.9-0.4-14.8-1.2  c0-0.1,0.1-0.1,0.1-0.2c0.7-1.4,1.5-2.7,2.2-4.1c3.2-5.7,6.7-11.2,10.3-16.6c7.5-11.5,14.9-22.9,20.9-35.5c5.8-12.2,9-26,8.3-39.7  c-0.2-4.8-1.7-7.6-5.4-10.4c-1.1-0.9-2.2-1.7-3.4-2.5c-3.7-2.7-7.9-4.2-12.5-3.4c-8.1,1.3-17.2,8.1-15.3,17.9  c0.2,3.9,2.4,7.5,5.9,9.4c-0.1,2.1-0.3,4.1-0.6,6.2c0,0.2-0.1,0.5-0.1,0.7c0,0.1,0,0.3-0.1,0.4c-0.2,1.2-0.5,2.3-0.8,3.5  c-0.6,2.3-1.3,4.6-2.1,6.9c-0.7,2-1.5,3.9-2.3,5.8c-0.2,0.4-0.8,1.7-1,2.3c-0.3,0.6-0.6,1.2-0.9,1.8c-2.3,4.3-4.8,8.5-7.3,12.6  c-10.6,17-22.5,33-29.6,52.1c-2.4,6.4,1.8,11.2,6.9,13.6c11,5.3,24.2,6.5,36.1,6.3c8-0.1,15.9-0.9,23.6-2.6  c-0.5,0.7-0.8,1.6-0.9,2.5c-0.3,2.8,1.7,5.4,4.3,5.7c2.5,0.3,4.8-1.6,5.3-4.2c0,15.6,0,31.2,0,46.7c0,0.2,0,0.3,0,0.4  c-13.5-0.3-27.1,0.3-40.7-0.5c-3.8-0.2-7.6-0.6-11.4-1.1c-2.1-0.2-4.1-0.6-6.1-0.9c-1-0.2-2-0.4-3-0.5c-0.2,0-0.8-0.2-1.3-0.3  c-0.4-0.1-0.8-0.2-1.1-0.3c2.4-1.6,4.9-3.1,7.4-4.5c0.6-0.3,2.9-1.5,3.6-1.8c1.1-0.5,2.2-0.9,3.3-1.3c6.3-2.3,13.6-9.3,11.1-17.3  c-2.5-7.9-12.3-8.9-18.6-6.6c-15.8,5.8-29,16.8-43.4,25.4c-6.2,3.7-12.2,15.8-3.4,20.7c16.3,9.1,34.3,12.9,52.5,14.2  c16.1,1.2,32.2,0.2,48.3,0.9c32.4,1.4,66.3,7.2,96.8-7.8C626.1,900,631.9,889.9,626.4,884.3z M520.7,704.6  C520.3,703.7,520.5,703.7,520.7,704.6L520.7,704.6z M496.6,720.9C496.6,720.9,496.6,721,496.6,720.9  C495,720.3,494.8,719.7,496.6,720.9z M518,807.6C520.8,806.9,519.1,807.4,518,807.6L518,807.6z M526.8,835.3  c-0.3-1.6-1.2-2.9-2.5-3.6c0.8-0.2,1.7-0.5,2.5-0.7C526.8,832.4,526.8,833.8,526.8,835.3z M530.8,802c0.4-0.3,0.6-0.5,0.7-0.5  c0,0,0,0,0,0C531.3,801.6,531,801.8,530.8,802z M531.4,801.4C531.4,801.4,531.4,801.4,531.4,801.4  C531.6,801.3,531.5,801.3,531.4,801.4z M582.4,886.6c-0.8,0-3.8,0.1-4.4,0.2c-1.3,0-2.7,0-4,0c-13.7-0.1-27.4-1.6-41.1-2.2  c0.1-0.2,0.1-0.5,0.1-0.8c0-13.9,0-27.7,0-41.6c2.5,3.6,6.5,5.9,11,6c0,5.6,0,11.2,0,16.9c0,0.9,1.9,2.3,1.9,2.5c0-6.5,0-13,0-19.5  c4.7-0.6,8.6-3.6,10.8-7.8c8.3,16.5,18.4,31.9,30,45.9C585.2,886.4,583.8,886.5,582.4,886.6z M521.7,854.8c0.3-2.8-1.7-5.4-4.3-5.7  c-2.7-0.3-5,1.8-5.3,4.6c-0.3,2.8,1.7,5.4,4.3,5.7C519.1,859.7,521.5,857.6,521.7,854.8z"
   id="path48" />

<path
   fill="#FFFFFF"
   d="M1156.8,644.1c-7.3-22.7-18.1-44.6-32.1-64c-13.2-18.4-34.6-41.6-59.8-36.9c-2.2,0.4-1.2,5.7-1,6.6  c0.9,4.1,2.8,8,4.9,11.6c2.7,4.5,8.1,13.1,14.3,11.9c-2.2,0.4,0.4,0,1-0.1c0.8-0.1,1.5-0.1,2.3-0.1c1.7,0,3.3,0.1,5,0.4  c0.7,0.1,1.4,0.2,2.1,0.4c3.6,34.9,7.4,69.9,6.2,105c-0.1,2.9,6.3,2.4,6.4-0.6c1.1-34.1-2.4-68-5.9-101.9c1.2,0.6,2.3,1.2,3.4,1.9  c0.3,0.2,0.5,0.3,0.8,0.5c0.5,0.4,1.5,1,1.9,1.4c0.4,0.3,0.8,0.6,1.2,1c0,16,0,32,0,47.9c0,0.6,6.4,0.3,6.4-0.7  c0-13.8,0-27.5,0-41.3c0.8,0.8,1.5,1.7,2.2,2.5c0.2,0.3,0.4,0.5,0.6,0.7c0.8,1,1.5,2,2.3,3c0.7,0.9,1.3,1.8,1.9,2.7c0,0,0,0,0,0  c1.2,1.9,2.4,3.8,3.5,5.7c0.6,1,1.2,2,1.8,3.1c0.1,0.1,0.2,0.3,0.2,0.4c1.1,2,2.1,4,3.1,6.1c1.1,2.2,2.1,4.4,3.1,6.7  c0.1,0.3,0.2,0.6,0.4,0.8c0.4,1.1,0.9,2.2,1.3,3.2c1.9,4.8,3.6,9.7,5.1,14.6c0.1,0.4,0.4,1.3,0.6,2c0.2,0.7,0.4,1.4,0.6,2.2  c0.7,2.6,1.3,5.1,1.9,7.7c1.1,4.9,2,9.8,2.7,14.7c0.1,0.4,0.1,0.9,0.2,1.3c0.1,1.1,0.2,2.1,0.3,3.2c0.2,2.4,0.4,4.9,0.5,7.3  c0.2,4.4,0.1,8.9-0.2,13.3c-0.1,1-0.2,2-0.3,3c0,0.4-0.1,0.9-0.2,1.3c-0.3,2-0.7,4-1.2,6c-0.9,3.6-2.1,7.2-3.7,10.5  c-0.7,1.5-1.6,3-2.5,4.4c-0.4,0.7-0.9,1.3-1.4,2c-0.3,0.4-0.7,0.8-1,1.2c-4.6,5.2-10.9,8.6-17.6,10.1c-0.1,0-0.4,0.1-0.6,0.1  c-0.3,0-0.6,0.1-0.9,0.1c-1.2,0.2-2.4,0.3-3.6,0.4c-2.6,0.2-5.2,0-7.7-0.3c-2.4-0.3-4.7-0.9-7-1.6c-0.1,0-0.1,0-0.1,0  c-0.6-0.2-1.1-0.4-1.7-0.7c-1.3-0.6-2.6-1.2-3.9-1.8c-1.1-0.6-2.2-1.2-3.3-1.9c-0.5-0.3-1.8-1.2-2.4-1.6c-2-1.4-3.8-3-5.7-4.6  c-0.4-0.3-0.7-0.7-1.1-1c-0.9-0.9-1.8-1.8-2.7-2.8c-1-1-1.9-2.1-2.9-3.2c0,0-0.1-0.1-0.1-0.1c-0.3-0.4-0.6-0.8-0.9-1.1  c-1.7-2.1-3.2-4.3-4.8-6.5c-0.3-0.4-0.5-0.8-0.8-1.2c-1-1.5-1.9-3-2.8-4.5c-0.7-1.2-1.4-2.5-2.2-3.7c-0.2-0.3-0.3-0.6-0.5-0.9  c-1.5-2.9-3-5.9-4.4-9c-0.5-1.2-1-2.3-1.6-3.5c0,0,0,0,0-0.1c-0.1-0.3-0.2-0.6-0.4-0.9c-1.1-2.8-2.2-5.5-3.2-8.3  c-0.9-2.5-1.7-5-2.5-7.5c-0.1-0.3-0.2-0.5-0.2-0.8c0-0.1-0.1-0.3-0.1-0.4c-0.4-1.3-0.7-2.6-1-4c-1.1-4.6-2.1-9.2-2.7-13.9  c0-0.5-0.1-0.9-0.1-1.4c-0.1-1.1-0.2-2.2-0.2-3.2c-0.1-2-0.1-4,0-6c0.3-6.3-4.3-13.6-7.9-18.5c-1.1-1.5-10.8-13-12.8-6.6  c-5,16.2-13.5,31.7-21.8,46.4c-5.3,9.3-11,18.5-17.3,27.1c-0.6,0.8-1.3,1.7-1.9,2.5c-0.2,0.2-0.6,0.8-0.7,0.9  c-0.4,0.5-0.7,0.9-1.1,1.4c-1.5,1.9-3.1,3.7-4.7,5.5c-2.7,3-5.7,5.8-8.9,8.3c-2.5,1.9-5.4,3.6-8.4,4.5c-0.2,0.1-0.3,0.1-0.4,0.1  c0,0-0.1,0-0.1,0c-0.1-0.8-0.1-1.6-0.2-2.4c-0.1-3.1,0-6.3,0.4-9.4c0-0.1,0.2-1.3,0.2-1.5c0.1-0.6,0.2-1.2,0.3-1.7  c0.3-1.9,0.8-3.8,1.3-5.6c1.8-6.9,4.4-13.6,7.4-20c6.1-13.1,14.2-25.4,23-36.8c7.8-10.1,16.3-19.7,25.4-28.7c2.6-2.6,1.1-7.2,0-10.2  c-1.9-5.4-5.1-11.1-9.2-15.2c-5.1-5.2-9.8-10.9-15-16c-3.5-3.4-6.9-6.6-11.1-9.1c-2-1.2-5.7-2.6-7.9-0.8c-1.9,1.6-1.5,4.5-1,6.6  c0.9,4.1,2.8,8,4.9,11.6c2.2,3.6,4.8,7,8,9.7c0.7,0.6,2.5,2,4.2,2.5c-15.8,17-30.1,35.9-40.4,56.6C944,645,939.5,659,939,673.5  c-0.6,16.4,5.5,33.4,15.3,46.5c6,8,14.1,15.4,24.6,12.6c0.1,0,0.2-0.1,0.3-0.1c2.6,3,6.5,4.8,10.8,4.8c8,0,14.4-6.4,14.4-14.4  c0-3.3-1.1-6.4-3-8.8c5.1-6.1,9.7-12.6,14-19.4c0.3,15.5,2.2,31,3.8,46.3c0.2,1.6,4.2,6.2,3.9,2.9c-1.8-18.4-4.3-37.1-3.7-55.7  c4.2-7.1,8.1-14.3,11.8-21.5c1.4-2.6,2.7-5.3,4.1-8c2.5,7.1,5.4,14.1,8.5,20.9c5.5,11.9,12,23.9,19.8,34.9c-1.5,1.7-2.7,4.7-3.1,8.2  c-0.6,5.6,1.2,10.3,3.9,10.6c2.7,0.3,5.4-4,6-9.6c0-0.1,0-0.2,0-0.3c1.5,1.9,3.1,3.7,4.7,5.5c-3.2,2.6-5.3,6.7-5.3,11.2  c0,8,6.4,14.4,14.4,14.4c5.1,0,9.6-2.6,12.1-6.6c0.7,0.5,1.3,0.9,2,1.4c15.1,10,37.1,13.2,52.1,1.2c12.8-10.3,16.4-28,17-43.5  C1168.1,685.7,1163.3,664.2,1156.8,644.1z M1050.8,661C1050.8,661.2,1050.8,661.2,1050.8,661L1050.8,661z M1085.1,704  c2.1-1.7,0.9-6.6-2.7-11c-3.6-4.3-8.2-6.4-10.3-4.7c-2.1,1.7-0.9,6.6,2.7,11C1078.4,703.6,1083,705.7,1085.1,704z M1061.8,738.3  c-2.7-0.3-5.1,1.7-5.4,4.4c-0.3,2.7,1.7,5.1,4.4,5.4c2.7,0.3,5.1-1.7,5.4-4.4C1066.5,741,1064.6,738.5,1061.8,738.3z M1108.5,689  c0.3-2.7-1.7-5.1-4.4-5.4c-2.7-0.3-5.1,1.7-5.4,4.4c-0.3,2.7,1.7,5.1,4.4,5.4C1105.8,693.7,1108.2,691.7,1108.5,689z"
   id="path50" />

<path
   fill="#FFFFFF"
   d="M335.7,759.3c-1.1-12.6-7-24.9-13.1-35.7c-10.2-18-23.6-34.4-37.9-49.3c-7.1-7.4-14.1-14.8-20.7-22.7  c0,0,0,0,0-0.1c-0.4-0.5-0.9-1.1-1.3-1.6c-0.9-1.1-1.7-2.2-2.6-3.3c-1.8-2.4-3.6-4.8-5.3-7.3c-3.2-4.6-6.1-9.3-8.6-14.3  c-0.6-1.1-1.1-2.3-1.6-3.4c-0.2-0.5-0.4-1-0.6-1.4c-0.8-2.3-1.5-4.7-2-7.2c-0.2-1.1-0.3-2.1-0.5-3.2c0-0.2,0-0.4,0-0.6  c0-0.1,0-0.2,0-0.3c0-1,0.1-2,0.3-3c0.1-0.5,0.4-1.9,0.6-2.5c0.2-0.5,0.4-1,0.7-1.5c0.2-0.3,0.3-0.6,0.5-0.9  c0.6-0.8,1.2-1.5,1.9-2.2c0,0,0.1-0.1,0.1-0.1c0.4-0.3,0.8-0.6,1.2-0.9c0.5-0.4,1-0.7,1.6-1.1c-0.1,0.1,1.2-0.6,2.1-1  c0.1,0,0.2,0,0.3-0.1c0.1,0,0.2,0,0.3,0c0.1,0,0.2,0.1,0.3,0.1c0.1,0,0.2,0.1,0.3,0.1c0.7,0.3,1.4,0.7,2,1.1c0.4,0.3,0.8,0.6,1.2,1  c0.8,0.7,1.5,1.4,2.3,2.2c0.3,0.3,1.2,1.3,1.6,1.8c1.3,1.7,2.5,3.5,3.6,5.3c2.8,4.6,5.1,9.5,7.1,14.5c0.1,0.2,0.2,0.5,0.3,0.8  c0.1,0.4,0.3,0.7,0.4,1.1c0.5,1.3,0.9,2.6,1.3,3.8c0.9,2.7,1.8,5.5,2.6,8.3c2.7,9.6,5,19.5,5.6,29.4c0.3,5.1,6.9,7.6,11.1,7.7  c5.2,0.1,14-3.5,14.1-10c0.1-22.2,8-42.8,13.1-64.1c1.5-6.4-6-10.3-11.2-10.4c-6.4-0.1-12.5,3.6-14.1,10c-0.7,2.8-1.4,5.6-2.1,8.5  c-0.8-1.8-1.7-3.6-2.6-5.3c-4.8-9.3-11.7-18.7-21.4-23.2c-12.5-5.8-26.9-2.4-37.2,6.1c-9.7,8-14,18.7-12.8,31.1  c1.1,10.7,6.7,21.1,12.4,30.1c11.4,17.8,26.4,32.9,40.9,48.2c2.6,2.7,5,5.6,7.4,8.5c0.3,0.4,0.6,0.8,0.9,1.2c0.8,1,1.6,2,2.4,3  c1.9,2.4,3.7,4.7,5.5,7.1c7.5,10.1,14.4,20.9,19.5,32.4c0.2,0.5,1.2,2.9,1.3,3.2c0.4,1.1,0.7,2.1,1.1,3.2c0.9,2.9,1.6,5.8,2.1,8.8  c0.2,1.3,0.4,2.6,0.5,3.9c0,0.2,0,0.4,0,0.6c0,0.3,0,0.9,0,1.1c0,2.2-0.3,4.4-0.8,6.6c-0.1,0.2-0.7,2.2-1,2.7  c-0.3,0.7-0.7,1.4-1.1,2.1c0.2-0.4-1.4,1.8-1.8,2.4c-0.4,0.4-0.8,0.9-1.2,1.3c-0.1,0.1-0.3,0.2-0.5,0.4c-1.1,0.9-2.3,1.7-3.4,2.4  c-0.4,0.2-0.8,0.5-1.2,0.7c-1,0.5-2.1,1-3.2,1.5c-0.5,0.2-1.1,0.4-1.6,0.6c0,0,0,0,0,0c-0.8,0.2-1.6,0.4-2.5,0.6  c-0.3,0.1-0.6,0.1-0.9,0.1c-0.7,0-1.5,0-2.2,0c-0.3,0-0.5,0-0.8,0c-0.9-0.2-1.8-0.4-2.6-0.6c-0.3-0.1-0.6-0.2-0.9-0.3  c-1.7-0.7-3.4-1.6-5-2.6c0,0,0,0,0,0c-0.1-0.1-0.3-0.2-0.4-0.3c-0.8-0.6-1.6-1.2-2.3-1.9c-1.7-1.4-3.2-3-4.7-4.7  c-0.2-0.2-0.4-0.5-0.6-0.7c0,0,0,0,0,0c-0.7-0.8-1.3-1.7-1.9-2.6c-1.4-1.9-2.6-3.9-3.7-5.9c-1.1-1.9-2.1-3.8-3-5.8  c-0.5-1-0.9-2-1.3-3c0-0.1-0.1-0.2-0.1-0.3c-0.1-0.4-0.3-0.9-0.4-1.2c-0.6-1.7-1.1-3.4-1.6-5.1c0-6.3,0-12.6,0-18.9  c1.6,2.7,3.2,5.5,4.6,8.3c0.3,0.6,0.6,1.2,0.9,1.8c0,0.1,0.6,1.6,0.7,1.8c0.4,1.3,0.8,2.7,1.1,4.1c2.8,13.1,27.9,8.1,25.1-5  c-3.2-14.8-13.7-26-19.8-39.4c-3.1-6.8-14.8-6.3-19.6-2.2c-0.7,0.6-1.3,1.1-2,1.6c-7.1,2.9-13,8.4-15.9,15.7  c-3.4,8.4-3.5,17.6-2.4,26.4c0.8,6.7,2.6,13.5,5.1,20c0,27.7,0,55.3,0,82.9c0,2.9,2.7,5.9,5,7.3c1.7,1.1,4.8,1.7,4.8-1.2  c0-23.6,0-47.2,0-70.8c1.8,2.5,3.8,4.9,6,7.2c0,29.7,0,59.4,0,89.1c0,1.3,2.1,3.1,2.8,3.9c0.3,0.3,3.6,3.1,3.6,3.2  c0-26.4,0-52.8,0-79.2c2.4,4.6,7.2,7.8,12.8,7.8c6.1,0,11.3-3.8,13.4-9.2c0.5,0,0.9,0,1.4,0.1c12.3,0.2,25.3-5.1,34.5-13.2  c5.1-4.5,9.5-9.9,11.7-16.5C335.8,772.4,336.3,766.1,335.7,759.3z M251.6,595.4C252.3,595.3,252.9,595.3,251.6,595.4L251.6,595.4z   M251.3,595.6c0.1,0,0.1,0.1,0.2,0.1C251.4,595.6,251.3,595.6,251.3,595.6C251.2,595.6,251.2,595.6,251.3,595.6z M250.5,595.3  C250.5,595.3,250.4,595.3,250.5,595.3C250.3,595.2,250.3,595.2,250.5,595.3z M246.1,598.1C246.5,597.7,246.7,597.6,246.1,598.1  L246.1,598.1z M241.5,609.7C241.6,610.5,241.5,610.2,241.5,609.7L241.5,609.7z M272.1,777.3C273.3,778.7,272.6,777.9,272.1,777.3  L272.1,777.3z M299.8,785.3C299.8,785.3,299.7,785.3,299.8,785.3C302.3,783.8,300.5,784.9,299.8,785.3z M270.3,822.3  c-2.7-0.3-5.1,1.7-5.4,4.4c-0.3,2.7,1.7,5.1,4.4,5.4c2.7,0.3,5.1-1.7,5.4-4.4C274.9,825.1,273,822.6,270.3,822.3z"
   id="path52" />

<path
   fill="#FFFFFF"
   d="M809.3,503.2c-2.7-0.3-5.1,1.7-5.4,4.4c-0.3,2.7,1.7,5.1,4.4,5.4c2.7,0.3,5.1-1.7,5.4-4.4  C814,505.9,812.1,503.4,809.3,503.2z M738.4,465.2c-2.7-0.3-5.1,1.7-5.4,4.4c-0.3,2.7,1.7,5.1,4.4,5.4c2.7,0.3,5.1-1.7,5.4-4.4  C743.1,467.9,741.2,465.4,738.4,465.2z M887.4,467.9c-0.1-20.5-3.7-41-7.2-61.1c-3.4-19.7-7.1-40.9-17-58.5  c-4.9-8.7-11.5-14.7-20.9-18.1c-7.2-2.6-18.2-2.8-24.1,2.8c-4.2,4-3,10.5-2,15.5c1.1,5.4,8.3,6.5,12.9,6.5c2.7,0,5.5-0.5,7.9-1.5  c0,23.1,0,46.2,0,69.4c0,1.4,3.2,0.9,3.2-0.5c0-22.4,0-44.8,0-67.1c3.6,7.1,6.1,15.1,7.9,21.5c5.4,19.9,8.8,40.7,11.2,61.1  c1.4,12.1,2.8,24.4,2.3,36.6c-0.1,2.9-0.4,5.8-0.8,8.7c-0.1,0.7-0.2,1.4-0.4,2c0,0.1-0.3,1.2-0.3,1.3c-0.3,1.2-0.7,2.5-1.2,3.7  c-0.4,0.9-0.8,1.8-1.2,2.7c-1.8-1.9-3.4-4.3-5.4-7.1c-5.1-7.2-10.8-13.8-16-20.9c-11-14.8-20.8-30.5-29.5-46.7  c-13-24.1-23.4-49.4-34.5-74.4c-0.4-0.9-1.1-1.7-2-2.3c0-0.5-0.1-1-0.1-1.5c-0.7-6.6-8.9-12-14.7-13.5c-5.5-1.4-11.5,0.4-10.8,7  c2.3,23.3,4.9,46.6,6.2,70c0.3,4.7,0.5,9.4,0.7,14.1c-4.7,2.4-7.9,7.2-7.9,12.8c0,2.9,0.8,5.5,2.3,7.8c-5.3,2.1-9,7.3-9,13.3  c0,7.5,5.7,13.6,13,14.3c-0.4,3.6-0.9,7.3-1.5,10.9c-1.9,11.1,23.5,24.2,25.7,11.5c4.3-25.5,3.7-51.6,2.4-77.3c0,0,0,0,0-0.1  c2.5,4.9,5.1,9.8,7.7,14.6c0,28.5,0,56.9,0,85.4c0,2.5,1.6,4.5,4.1,5.1c1.9,0.5,5.1-0.3,5.1-2.8c0-23.9,0-47.8,0-71.7  c1.8,3,3.7,5.9,5.6,8.9c0.9,1.4,1.9,2.8,2.8,4.2c0,11.2,0,22.4,0,33.6c0,2,1.4,4.5,2.6,6.1c0.4,0.6,2.2,2.8,2.2,0.8  c0-11.2,0-22.4,0-33.6c7.7,10.7,15.9,21,23.8,31.7c4.9,6.7,10.1,12.1,18.1,14.8c9.6,3.2,22.7,0.8,30-6.4  C887,493.1,887.5,479,887.4,467.9z"
   id="path54" />

<path
   fill="#FFFFFF"
   d="M946.8,457.5c-2.7-0.3-5.1,1.7-5.4,4.4c-0.3,2.7,1.7,5.1,4.4,5.4c2.7,0.3,5.1-1.7,5.4-4.4  C951.5,460.2,949.6,457.7,946.8,457.5z M1002.8,381.4c-2.2-10.3-5.9-20-11.6-28.9c-2.6-4-5.8-7.5-9.3-10.6c1.7-6,4.5-11.7,7-17.4  c2.7-6.2,5.7-13,5-19.9c-0.2-1.7-2.9-3.8-4.1-4.7c-2.6-2.1-5.4-3.8-8.3-5.3c-1.2-0.6-10.2-4.9-9.8-1c0.6,6.1-2.6,12.4-4.9,17.9  c-0.2,0.6-0.5,1.1-0.7,1.7c-4.5-3.5-9.7-6.2-14.6-8.2c-7.4-3.1-15.5-4.1-23-1c-5.9,2.4-10.5,7.1-14,12.2  c-6.8,10.1-10.2,22.6-12.8,34.4c-2.5,11.2-3,22.9-2.2,34.3c0.8,9.9,2.8,19.7,6.6,28.9c0,17.5,0,35,0,52.6c0,1.5,3,2.5,3,0.8  c0-15.7,0-31.3,0-47c1.4,2.6,2.9,5,4.6,7.4c0,10.1,0,20.3,0,30.4c0,0.2,3.2,0.1,3.2-0.3c0-8.7,0-17.3,0-26  c5.9,7.1,13.3,13,21.5,17.5c5.1,2.8,10.7,5.4,16.5,7.1c-0.2,1-0.3,2-0.3,3.1c0,8,6.4,14.4,14.4,14.4c2.3,0,4.6-0.6,6.5-1.6  c0,9.3,0,18.7,0,28c0,3.2,2.6,5,5.6,5.5c2.1,0.4,7-0.3,7-3.4c0-16,0-31.9,0-47.8c4.3-2.7,7.9-6.6,10.5-11c0,1.1,0,2.3,0,3.4  c0.1,19.7-0.5,39.6,1.8,59.2c0.2,1.5,0.8,3.1,2,4.1c0.9,0.8,1.9,0.4,1.7-0.8c-2.4-20.2-1.6-40.8-1.8-61.1c0-4.2-0.1-8.4-0.2-12.6  c2.6-7.5,3.4-15.7,3.7-23.6C1006.2,401.8,1005,391.4,1002.8,381.4z M983.2,408.4c-0.7,6.8-2.3,13.8-5.4,20c-1.3,0.5-2.3,1.4-2.3,2.9  c0,0.4,0,0.8,0,1.2c-0.5,0.8-1.1,1.6-1.7,2.4c-2.6,3.3-5.8,5.9-9.6,7.6c-4.4,2-9.4,2.6-13.5,2.4c-1.4-0.1-2.8-0.2-4.2-0.4  c-0.1,0-1.3-0.2-1.5-0.3c-0.5-0.1-1.1-0.3-1.6-0.4c-0.4-0.1-0.7-0.2-1.1-0.3c-0.3-0.1-1-0.3-1.2-0.4c-0.7-0.6-1.8-1.4-1.5-1  c-0.7-0.7-1.4-1.4-2.1-2.1c-0.1-0.1-0.5-0.5-0.7-0.8c-0.5-0.6-0.9-1.1-1.3-1.7c-6.9-9-10.5-20.1-12.5-31.5  c-4-22.9-0.5-47.3,9.1-68.4c4.6-10.2,11.7-19.6,23.5-21.2c0,0,0,0,0,0c2.2,3.7,3.3,8.5,3.5,13c-1.2-0.3-2.4-0.5-3.5-0.6  c-14.7-1.3-22.6,15.2-24.2,27.5c-1,7.7-0.1,15.7,3.5,22.6c6.2,11.9,18.3,19.6,30.3,24.6c1.6,0.7,9.5,2.9,6.3-1.6  c-2.8-3.9-7.5-6.7-12-8.8c-0.1-0.1-0.1-0.1-0.2-0.2c0,0-0.1-0.1-0.1-0.1c-0.4-0.5-0.8-1.1-1.2-1.7c-1.5-2.1-1.4-2.1-2.4-4.6  c-0.8-2.1-1.4-4.3-1.8-6.5c-1.5-8.2,0-16.8,3.5-24.2c2.7-5.6,6.8-10.8,12.5-12.5c1.6,2.3,3,4.8,4.3,7.3c4.2,8.4,6.4,17.7,8,26.9  C983.7,387.6,984.3,398.1,983.2,408.4z M960,393.6C960,393.6,959.9,393.6,960,393.6C960.9,394.2,960.6,394,960,393.6z M960.2,393.8  C960.1,393.8,960.1,393.8,960.2,393.8C961.9,395,960.8,394.3,960.2,393.8z"
   id="path56" />

<path
   fill="#FFFFFF"
   d="M398.5,667.9c-2.7-0.3-5.1,1.7-5.4,4.4c-0.3,2.7,1.7,5.1,4.4,5.4c2.7,0.3,5.1-1.7,5.4-4.4  C403.1,670.6,401.2,668.2,398.5,667.9z M549.1,550.1c-13.6,2.4-27.2,4.3-40.9,5.5c-7.2,0.6-14.4,1.1-21.6,1.3  c-3.5,0.1-7,0.1-10.5,0.1c-1.8,0-3.5,0-5.3-0.1c-0.9,0-1.8,0-2.6-0.1c-0.4,0-1.8-0.1-2.4-0.1c-13.9-0.7-27.7-2.5-41.2-5.7  c-1.7-1.1-3.7-1.9-5.4-2.5c-2.4-0.8-4.9-1.3-7.4-1.2c-2-0.7-4-1.4-6-2.2c-6.1-2.4-12-5.2-17.7-8.5c0,0-2.8-1.7-3.4-2.1  c-1.4-0.9-2.8-1.9-4.2-2.8c-3-2.1-5.9-4.4-8.6-6.8c-1.3-1.1-2.5-2.3-3.8-3.4c-0.1-0.1-0.2-0.2-0.3-0.3c-0.5-0.5-1-1-1.5-1.5  c-2.6-2.7-5.1-5.7-7.4-8.6c-3.3-4.2-9.1-6.4-14.2-4.4c-6.8,2.6-7.4,9.8-5.4,15.7c3.3,9.7,7.4,19.2,11.1,28.8  c2,5.2,4.1,10.5,5.9,15.7c0.1,0.2,0.2,0.5,0.2,0.7c0.2,0.7,0.4,1.4,0.6,2c0,0.1,0,0.2,0.1,0.3c-0.2,4.4,2.2,9,5.6,11.6  c5.2,4,12.5,3.6,16.5-1.7c3.3-4.4,1.9-10.3,0.4-15.1c-0.8-2.6-1.7-5.2-2.6-7.8c8.4,5,17.2,9.1,26.4,12.4c-1.7,19-3.3,38-3.3,57.1  c-2.1,0.4-3.8,2.1-4,4.3c-0.2,2.4,1.3,4.6,3.5,5.2c-6.1,1.7-10.6,7.3-10.6,13.9c0,7.8,6.1,14.1,13.8,14.4  c2.6,16.1,7.6,31.7,16.3,45.6c3.1,5,10.3,7.5,15.9,7.7c3.8,0.1,10.2-1.8,7.1-6.8c-13.6-21.7-17-48.2-17.5-73.7  c-0.4-20.3,1.4-40.5,3.2-60.8c2.1,0.5,4.2,0.9,6.3,1.3c0,18.8,0,37.7,0,56.5c0,1.4,3.1,2.1,3.1,0.5c0-18.8,0-37.6,0-56.4  c1.6,0.3,3.1,0.5,4.7,0.7c0,8.1,0,16.2,0,24.3c0,1.4,2.9,2.7,2.9,0.9c0-8.3,0-16.5,0-24.8c18.3,2.5,37.1,2.9,55.3,1.9  c-0.7,0.5-1.4,1-2.1,1.4c-15.3,10.7-29.3,22.9-41,37.5c-4.2,5.3-1.1,13.6,3.6,17.3c5.3,4.1,12.3,3.5,16.5-1.7  c1.4-1.7,2.8-3.4,4.3-5.1c0.5-0.6,1.1-1.2,1.6-1.8c-0.1,0.1,1.4-1.4,1.5-1.6c3-3.1,6.1-6,9.3-8.9c5.7-5.1,11.8-9.7,18-14.2  c0,18,0,36,0,54c0,2.9,6.3,3.9,6.3,1.1c0-19.8,0-39.6,0-59.5c4-2.8,8.1-5.5,12.2-8.1c0,27.4,0,54.7,0,82.1c0,3.7,12.8,4,12.8,0.5  c0-30.3,0-60.6,0-90.9c5.5-3.5,11-7.1,16.3-10.8C569.3,565.6,559.9,548.2,549.1,550.1z M357.5,571.6  C357.6,572.3,357.6,573.2,357.5,571.6L357.5,571.6z"
   id="path58" />

</svg>
