<?xml version="1.0" encoding="UTF-8"?>
<!DOCTYPE svg PUBLIC "-//W3C//DTD SVG 20001102//EN"
 "http://www.w3.org/TR/2000/CR-SVG-20001102/DTD/svg-20001102.dtd">
<svg viewBox="0 30 200 190" width="100%" height="100%" preserveAspectRatio="xMidYMid"
     xmlns="http://www.w3.org/2000/svg">
  <title>Béziers in a Uniform Direction</title>
  <desc></desc>
  <defs>
    <style type="text/css">
      path, line {
        stroke-width: 3;
        stroke: black;
      }
    </style>
    <marker id="triangle"
            viewBox="0 0 10 10" refX="0" refY="5" 
            markerUnits="strokeWidth"
            markerWidth="4" markerHeight="3"
            orient="auto">
      <path d="M 0 0 L 10 5 L 0 10 z" />
    </marker>
  </defs>
  <path style="fill: none;" d="M 50 50 c 25,-25 25,25 50,0 l 0,50 c -25,-25 -25,25 -50,0 z"/>
  <line x1="60" y1="35" x2="80" y2="35" marker-end="url(#triangle)"  />
  <line x1="90" y1="115" x2="70" y2="115" marker-end="url(#triangle)"  />

  <path style="fill: none;" d="M 50 150 c 25,-25 25,25 50,0 l -50,50 c 25,25 25,-25 50,0 z"/>
  <line x1="60" y1="135" x2="80" y2="135" marker-end="url(#triangle)"  />
  <line x1="60" y1="215" x2="80" y2="215" marker-end="url(#triangle)"  />

  <g transform="translate(75,0)">
    <path d="M 50 50 c 25,-25 25,25 50,0 l 0,50 c -25,-25 -25,25 -50,0 z"/>
    <path d="M 50 150 c 25,-25 25,25 50,0 l -50,50 c 25,25 25,-25 50,0 z"/>
  </g>


</svg>
