<?xml version="1.0" encoding="UTF-8" standalone="no"?>
<svg
   width="100%"
   height="100%"
   viewBox="0 0 256 196.6536"
   preserveAspectRatio="xMinYMin meet"
   version="1.1"
   id="svg926"
   sodipodi:docname="svg.svg"
   inkscape:version="1.1 (c4e8f9e, 2021-05-24)"
   xmlns:inkscape="http://www.inkscape.org/namespaces/inkscape"
   xmlns:sodipodi="http://sodipodi.sourceforge.net/DTD/sodipodi-0.dtd"
   xmlns:xlink="http://www.w3.org/1999/xlink"
   xmlns="http://www.w3.org/2000/svg"
   xmlns:svg="http://www.w3.org/2000/svg">
  <sodipodi:namedview
     id="namedview928"
     pagecolor="#ffffff"
     bordercolor="#666666"
     borderopacity="1.0"
     inkscape:pageshadow="2"
     inkscape:pageopacity="0.0"
     inkscape:pagecheckerboard="0"
     showgrid="false"
     fit-margin-top="0"
     fit-margin-left="0"
     fit-margin-right="0"
     fit-margin-bottom="0"
     inkscape:zoom="1.9248"
     inkscape:cx="130.66293"
     inkscape:cy="106.76434"
     inkscape:window-width="1669"
     inkscape:window-height="1095"
     inkscape:window-x="885"
     inkscape:window-y="154"
     inkscape:window-maximized="0"
     inkscape:current-layer="svg926" />
  <defs
     id="defs903">
    <path
       id="a"
       d="m 98.1,244.8 c 1.6,7.5 5.5,11.9 9.4,14.5 h 41.1 c 5,-3.4 10.1,-9.8 10.1,-21.8 v -31 c 0,0 0.6,-7.7 7.7,-10.2 0,0 4.1,-2.9 -0.3,-4.5 0,0 -19.5,-1.6 -19.5,14.4 v 23.6 c 0,0 0.8,8.7 -3.8,12.3 v -29.2 c 0,0 0.3,-9.3 5.1,-12.8 0,0 3.2,-5.7 -3.8,-4.2 0,0 -13.4,1.9 -14,17.6 l -0.3,30 h -3.2 l -0.3,-30 c -0.6,-15.6 -14,-17.6 -14,-17.6 -7,-1.6 -3.8,4.2 -3.8,4.2 4.8,3.5 5.1,12.8 5.1,12.8 v 29.5 c -4.6,-3.3 -3.8,-12.6 -3.8,-12.6 v -23.6 c 0,-16 -19.5,-14.4 -19.5,-14.4 -4.5,1.6 -0.3,4.5 -0.3,4.5 7,2.6 7.7,10.2 7.7,10.2 v 21.7 z" />
  </defs>
  <clipPath
     id="b">
    <use
       xlink:href="#a"
       overflow="visible"
       id="use905"
       x="0"
       y="0"
       width="100%"
       height="100%" />
  </clipPath>
  <path
     fill="#9edcf2"
     d="m 46.9,125.86836 -2.1,7.2 c 0,0 -0.5,2.6 1.9,3.1 2.6,-0.1 2.4,-2.5 2.2,-3.2 z m 0,0"
     id="path910" />
  <path
     fill="#010101"
     d="m 255.8,95.568365 0.2,-0.9 c -21.1,-4.2 -42.7,-4.3 -55.8,-3.7 2.1,-7.7 2.8,-16.7 2.8,-26.6 0,-14.3 -5.4,-25.7 -14,-34.3 1.5,-4.9 3.5,-15.8 -2,-29.70000031 0,0 -9.8,-3.09999999 -32.1,11.80000031 -8.7,-2.2000003 -18,-3.3000003 -27.3,-3.3000003 -10.2,0 -20.5,1.3000003 -30.2,3.9000003 C 74.4,-2.9316353 64.3,0.26836469 64.3,0.26836469 57.7,16.768365 61.8,29.068365 63,32.068365 c -7.8,8.4 -12.5,19.1 -12.5,32.2 0,9.9 1.1,18.8 3.9,26.5 -13.2,-0.5 -34,-0.3 -54.4,3.8 l 0.2,0.9 c 20.4,-4.1 41.4,-4.2 54.5,-3.7 0.6,1.6 1.3,3.2 2,4.7 -13,0.4 -35.1,2.1 -56.3,8.099995 l 0.3,0.9 c 21.4,-5.999995 43.7,-7.599995 56.6,-7.999995 7.8,14.399995 23,23.799995 50.2,26.699995 -3.9,2.6 -7.8,7 -9.4,14.5 -5.3,2.5 -21.9,8.7 -31.9,-8.5 0,0 -5.6,-10.2 -16.3,-11 0,0 -10.4,-0.2 -0.7,6.5 0,0 6.9,3.3 11.7,15.6 0,0 6.3,21 36.4,14.2 v 21.5 c 0,0 -0.6,7.7 -7.7,10.2 0,0 -4.2,2.9 0.3,4.5 0,0 19.5,1.6 19.5,-14.4 v -23.6 c 0,0 -0.8,-9.4 3.8,-12.6 v 38.8 c 0,0 -0.3,9.3 -5.1,12.8 0,0 -3.2,5.7 3.8,4.2 0,0 13.4,-1.9 14,-17.6 l 0.3,-39.3 h 3.2 l 0.3,39.3 c 0.6,15.6 14,17.6 14,17.6 7,1.6 3.8,-4.2 3.8,-4.2 -4.8,-3.5 -5.1,-12.8 -5.1,-12.8 v -38.5 c 4.6,3.6 3.8,12.3 3.8,12.3 v 23.6 c 0,16 19.5,14.4 19.5,14.4 4.5,-1.6 0.3,-4.5 0.3,-4.5 -7,-2.6 -7.7,-10.2 -7.7,-10.2 v -31 c 0,-12.1 -5.1,-18.5 -10.1,-21.8 29,-2.9 42.9,-12.2 49.3,-26.799995 12.7,0.3 35.6,1.9 57.4,8.099995 l 0.3,-0.9 c -21.7,-6.099995 -44.4,-7.699995 -57.3,-8.099995 0.6,-1.5 1.1,-3 1.6,-4.6 13.4,-0.5 35.1,-0.5 56.3,3.7 z m 0,0"
     id="path912"
     style="fill:#532051;fill-opacity:1" />
  <path
     fill="#F5CCB3"
     d="m 174.6,63.668365 c 6.2,5.7 9.9,12.5 9.9,19.8 0,34.399995 -25.6,35.299995 -57.2,35.299995 -31.6,0 -57.2,-4.8 -57.2,-35.299995 0,-7.3 3.6,-14.1 9.8,-19.7 10.3,-9.4 27.7,-4.4 47.4,-4.4 19.7,0 37,-5.1 47.3,4.3 z m 0,0"
     id="path914"
     style="fill:#f8d9c7;fill-opacity:1" />
  <path
     fill="#ffffff"
     d="m 108.3,85.268365 c 0,9.5 -5.3,17.099995 -11.9,17.099995 -6.6,0 -11.9,-7.699995 -11.9,-17.099995 0,-9.5 5.3,-17.1 11.9,-17.1 6.6,-0.1 11.9,7.6 11.9,17.1 z m 0,0"
     id="path916" />
  <path
     fill="#AF5C51"
     d="m 104.5,85.468365 c 0,6.3 -3.6,11.4 -7.9,11.4 -4.4,0 -7.9,-5.1 -7.9,-11.4 0,-6.3 3.6,-11.4 7.9,-11.4 4.3,0 7.9,5.1 7.9,11.4 z m 0,0"
     id="path918"
     style="fill:#241569;fill-opacity:1" />
  <path
     fill="#ffffff"
     d="m 172.2,85.268365 c 0,9.5 -5.3,17.099995 -11.9,17.099995 -6.6,0 -11.9,-7.699995 -11.9,-17.099995 0,-9.5 5.3,-17.1 11.9,-17.1 6.5,-0.1 11.9,7.6 11.9,17.1 z m 0,0"
     id="path920" />
  <path
     style="fill:#341b18;fill-opacity:1"
     d="M 120.6,107.96836"
     id="path1190" />
  <path
     style="fill:#341b18;fill-opacity:1"
     d="m 120.6,107.96836 c -0.2,-0.5 0.1,-1 0.6,-1.2 0.5,-0.2 1,0.1 1.2,0.6 0.8,2.2 2.8,3.6 5.1,3.6 2.3,0 4.3,-1.5 5.1,-3.6 0.2,-0.5 0.7,-0.8 1.2,-0.6 0.5,0.2 0.8,0.7 0.6,1.2 -1,2.9 -3.8,4.9 -6.9,4.9 -3.1,0 -5.9,-2 -6.9,-4.9 z"
     id="path1188" />
  <path
     style="fill:#341b18;fill-opacity:1"
     d="M 130.5,100.46836"
     id="path1186" />
  <path
     style="fill:#341b18;fill-opacity:1"
     d="m 130.5,100.46836 c 0,1.6 -1.3,3 -3,3 -1.6,0 -3,-1.3 -3,-3 0,-1.699995 1.3,-2.999995 3,-2.999995 1.6,0 3,1.3 3,2.999995 z"
     id="path1184" />
  <path
     style="fill:#341b18;fill-opacity:1"
     d="M 168.3,85.468365"
     id="path1182" />
  <path
     style="fill:#241569;fill-opacity:1"
     d="m 168.3,85.468365 c 0,6.3 -3.6,11.4 -7.9,11.4 -4.4,0 -7.9,-5.1 -7.9,-11.4 0,-6.3 3.6,-11.4 7.9,-11.4 4.4,0 7.9,5.1 7.9,11.4 z"
     id="path922" />
  <path
     fill="#c4e5d9"
     d="m 54.5,121.56836 c 0,0.8 -0.9,1.4 -2.1,1.4 -1.1,0 -2.1,-0.6 -2.1,-1.4 0,-0.8 0.9,-1.4 2.1,-1.4 1.2,0 2.1,0.6 2.1,1.4 z m 0,0 m 5.8,3.2 c 0,0.8 -0.9,1.4 -2.1,1.4 -1.1,0 -2.1,-0.6 -2.1,-1.4 0,-0.8 0.9,-1.4 2.1,-1.4 1.2,0 2.1,0.6 2.1,1.4 z m 0,0 m 3.5,4.2 c 0,0.8 -0.9,1.4 -2.1,1.4 -1.1,0 -2.1,-0.6 -2.1,-1.4 0,-0.8 0.9,-1.4 2.1,-1.4 1.2,-0.1 2.1,0.6 2.1,1.4 z m 0,0 m 3.2,4.8 c 0,0.8 -0.9,1.4 -2.1,1.4 -1.1,0 -2.1,-0.6 -2.1,-1.4 0,-0.8 0.9,-1.4 2.1,-1.4 1.2,-0.1 2.1,0.6 2.1,1.4 z m 0,0 m 3.5,4.4 c 0,0.8 -0.9,1.4 -2.1,1.4 -1.1,0 -2.1,-0.6 -2.1,-1.4 0,-0.8 0.9,-1.4 2.1,-1.4 1.2,0 2.1,0.6 2.1,1.4 z m 0,0 m 4.8,3.9 c 0,0.8 -0.9,1.4 -2.1,1.4 -1.1,0 -2.1,-0.6 -2.1,-1.4 0,-0.8 0.9,-1.4 2.1,-1.4 1.2,-0.1 2.1,0.6 2.1,1.4 z m 0,0 m 6.7,2.5 c 0,0.8 -0.9,1.4 -2.1,1.4 -1.1,0 -2.1,-0.6 -2.1,-1.4 0,-0.8 0.9,-1.4 2.1,-1.4 1.2,0 2.1,0.6 2.1,1.4 z m 0,0 m 6.7,0 c 0,0.8 -0.9,1.4 -2.1,1.4 -1.1,0 -2.1,-0.6 -2.1,-1.4 0,-0.8 0.9,-1.4 2.1,-1.4 1.2,0 2.1,0.6 2.1,1.4 z m 0,0 m 6.8,-1.1 c 0,0.8 -0.9,1.4 -2.1,1.4 -1.1,0 -2.1,-0.6 -2.1,-1.4 0,-0.8 0.9,-1.4 2.1,-1.4 1.1,0 2.1,0.6 2.1,1.4 z m 0,0"
     id="path924" />
</svg>
