<?xml version="1.0" encoding="UTF-8" standalone="no"?>
<!-- Created with Inkscape (http://www.inkscape.org/) -->

<svg
   width="85.599998mm"
   height="53.98mm"
   viewBox="0 0 85.599999 53.979999"
   version="1.1"
   id="svg5"
   sodipodi:docname="Indivisible Tennessee.svg"
   inkscape:version="1.2.2 (b0a8486541, 2022-12-01)"
   xmlns:inkscape="http://www.inkscape.org/namespaces/inkscape"
   xmlns:sodipodi="http://sodipodi.sourceforge.net/DTD/sodipodi-0.dtd"
   xmlns="http://www.w3.org/2000/svg"
   xmlns:svg="http://www.w3.org/2000/svg">
  <sodipodi:namedview
     id="namedview7"
     pagecolor="#ffffff"
     bordercolor="#000000"
     borderopacity="0.25"
     inkscape:showpageshadow="2"
     inkscape:pageopacity="0.0"
     inkscape:pagecheckerboard="0"
     inkscape:deskcolor="#d1d1d1"
     inkscape:document-units="mm"
     showgrid="false"
     inkscape:zoom="0.5946522"
     inkscape:cx="354.82926"
     inkscape:cy="253.08912"
     inkscape:window-width="1680"
     inkscape:window-height="981"
     inkscape:window-x="0"
     inkscape:window-y="32"
     inkscape:window-maximized="1"
     inkscape:current-layer="text724" />
  <defs
     id="defs2" />
  <g
     inkscape:label="Layer 1"
     inkscape:groupmode="layer"
     id="layer1">
    <g
       inkscape:label="QR Code: https://indivisibletn.org"
       transform="matrix(0,-0.32689838,0.32689838,0,3.0800834,53.982539)"
       id="g662">
      <rect
         x="0"
         y="0"
         width="164"
         height="164"
         style="fill:#ffffff;stroke:none"
         id="rect656" />
      <g
         style="fill:#000000;stroke:none"
         id="g660">
        <path
           d="m 143.6,148 h -7.2 c -0.22091,0 -0.4,-0.17909 -0.4,-0.4 v -3.2 c 0,-0.22091 0.17909,-0.4 0.4,-0.4 h 7.2 c 0.22091,0 0.4,0.17909 0.4,0.4 v 3.2 c 0,0.22091 -0.17909,0.4 -0.4,0.4 z m -20,0 h -3.2 c -0.22091,0 -0.4,-0.17909 -0.4,-0.4 v -3.2 c 0,-0.22091 0.17909,-0.4 0.4,-0.4 h 3.2 c 0.22091,0 0.4,0.17909 0.4,0.4 v 3.2 c 0,0.22091 -0.17909,0.4 -0.4,0.4 z m -8,0 h -7.2 c -0.22091,0 -0.4,-0.17909 -0.4,-0.4 v -3.2 c 0,-0.22091 0.17909,-0.4 0.4,-0.4 h 7.2 c 0.22091,0 0.4,0.17909 0.4,0.4 v 3.2 c 0,0.22091 -0.17909,0.4 -0.4,0.4 z m -12,0 h -7.2 c -0.220914,0 -0.4,-0.17909 -0.4,-0.4 v -3.2 c 0,-0.22091 -0.179086,-0.4 -0.4,-0.4 h -3.2 c -0.220914,0 -0.4,-0.17909 -0.4,-0.4 v -3.2 c 0,-0.22091 0.179086,-0.4 0.4,-0.4 h 3.2 c 0.220914,0 0.4,-0.17909 0.4,-0.4 v -3.2 c 0,-0.22091 0.179086,-0.4 0.4,-0.4 h 15.2 c 0.22091,0 0.4,0.17909 0.4,0.4 v 3.2 c 0,0.22091 -0.17909,0.4 -0.4,0.4 h -7.2 c -0.22091,0 -0.4,0.17909 -0.4,0.4 v 7.2 c 0,0.22091 -0.17909,0.4 -0.4,0.4 z m -12,0 h -7.2 c -0.220914,0 -0.4,-0.17909 -0.4,-0.4 v -3.2 c 0,-0.22091 0.179086,-0.4 0.4,-0.4 h 7.2 c 0.220914,0 0.4,0.17909 0.4,0.4 v 3.2 c 0,0.22091 -0.179086,0.4 -0.4,0.4 z m -12,0 h -3.2 c -0.220914,0 -0.4,-0.17909 -0.4,-0.4 v -3.2 c 0,-0.22091 -0.179086,-0.4 -0.4,-0.4 h -7.2 c -0.220914,0 -0.4,0.17909 -0.4,0.4 v 3.2 c 0,0.22091 -0.179086,0.4 -0.4,0.4 h -3.2 c -0.220914,0 -0.4,-0.17909 -0.4,-0.4 v -3.2 c 0,-0.22091 -0.179086,-0.4 -0.4,-0.4 h -3.2 c -0.220914,0 -0.4,-0.17909 -0.4,-0.4 v -3.2 c 0,-0.22091 0.179086,-0.4 0.4,-0.4 h 11.2 c 0.220914,0 0.4,-0.17909 0.4,-0.4 v -3.2 c 0,-0.22091 0.179086,-0.4 0.4,-0.4 h 7.2 c 0.220914,0 0.4,-0.17909 0.4,-0.4 v -11.2 c 0,-0.22091 0.179086,-0.4 0.4,-0.4 h 3.2 c 0.220914,0 0.4,0.17909 0.4,0.4 v 7.2 c 0,0.22091 0.179086,0.4 0.4,0.4 h 3.2 c 0.220914,0 0.4,0.17909 0.4,0.4 v 7.2 c 0,0.22091 -0.179086,0.4 -0.4,0.4 h -3.2 c -0.220914,0 -0.4,0.17909 -0.4,0.4 v 3.2 c 0,0.22091 -0.179086,0.4 -0.4,0.4 h -3.2 c -0.220914,0 -0.4,0.17909 -0.4,0.4 v 3.2 c 0,0.22091 -0.179086,0.4 -0.4,0.4 z m -20,0 h -3.2 c -0.220914,0 -0.4,-0.17909 -0.4,-0.4 v -3.2 c 0,-0.22091 0.179086,-0.4 0.4,-0.4 h 3.2 c 0.220914,0 0.4,0.17909 0.4,0.4 v 3.2 c 0,0.22091 -0.179086,0.4 -0.4,0.4 z m -16,0 H 16.4 c -0.220914,0 -0.4,-0.17909 -0.4,-0.4 v -27.2 c 0,-0.22091 0.179086,-0.4 0.4,-0.4 h 27.2 c 0.220914,0 0.4,0.17909 0.4,0.4 v 27.2 c 0,0.22091 -0.179086,0.4 -0.4,0.4 z m 92,-4 h -3.2 c -0.22091,0 -0.4,-0.17909 -0.4,-0.4 v -3.2 c 0,-0.22091 0.17909,-0.4 0.4,-0.4 h 3.2 c 0.22091,0 0.4,0.17909 0.4,0.4 v 3.2 c 0,0.22091 -0.17909,0.4 -0.4,0.4 z m -8,0 h -3.2 c -0.22091,0 -0.4,-0.17909 -0.4,-0.4 v -3.2 c 0,-0.22091 0.17909,-0.4 0.4,-0.4 h 3.2 c 0.22091,0 0.4,0.17909 0.4,0.4 v 3.2 c 0,0.22091 -0.17909,0.4 -0.4,0.4 z m -8,0 h -3.2 c -0.22091,0 -0.4,-0.17909 -0.4,-0.4 v -11.2 c 0,-0.22091 -0.17909,-0.4 -0.4,-0.4 h -3.2 c -0.22091,0 -0.4,-0.17909 -0.4,-0.4 v -3.2 c 0,-0.22091 -0.17909,-0.4 -0.4,-0.4 h -3.2 c -0.22091,0 -0.4,-0.17909 -0.4,-0.4 v -3.2 c 0,-0.22091 -0.17909,-0.4 -0.4,-0.4 h -3.2 c -0.22091,0 -0.4,-0.17909 -0.4,-0.4 v -3.2 c 0,-0.22091 0.17909,-0.4 0.4,-0.4 h 7.2 c 0.22091,0 0.4,-0.17909 0.4,-0.4 v -11.2 c 0,-0.22091 0.17909,-0.4 0.4,-0.4 h 3.2 c 0.22091,0 0.4,0.17909 0.4,0.4 v 3.2 c 0,0.22091 0.17909,0.4 0.4,0.4 h 15.2 c 0.22091,0 0.4,0.17909 0.4,0.4 v 3.2 c 0,0.22091 0.17909,0.4 0.4,0.4 h 7.2 c 0.22091,0 0.4,0.17909 0.4,0.4 v 3.2 c 0,0.22091 0.17909,0.4 0.4,0.4 h 3.2 c 0.22091,0 0.4,0.17909 0.4,0.4 v 3.2 c 0,0.22091 0.17909,0.4 0.4,0.4 h 3.2 c 0.22091,0 0.4,0.17909 0.4,0.4 v 7.2 c 0,0.22091 -0.17909,0.4 -0.4,0.4 h -3.2 c -0.22091,0 -0.4,0.17909 -0.4,0.4 v 3.2 c 0,0.22091 -0.17909,0.4 -0.4,0.4 h -3.2 c -0.22091,0 -0.4,-0.17909 -0.4,-0.4 v -7.2 c 0,-0.22091 -0.17909,-0.4 -0.4,-0.4 h -3.2 c -0.22091,0 -0.4,0.17909 -0.4,0.4 v 7.2 c 0,0.22091 -0.17909,0.4 -0.4,0.4 h -7.2 c -0.22091,0 -0.4,-0.17909 -0.4,-0.4 v -3.2 c 0,-0.22091 -0.17909,-0.4 -0.4,-0.4 h -7.2 c -0.22091,0 -0.4,0.17909 -0.4,0.4 v 3.2 c 0,0.22091 0.17909,0.4 0.4,0.4 h 3.2 c 0.22091,0 0.4,0.17909 0.4,0.4 v 3.2 c 0,0.22091 -0.17909,0.4 -0.4,0.4 h -3.2 c -0.22091,0 -0.4,0.17909 -0.4,0.4 v 3.2 c 0,0.22091 -0.17909,0.4 -0.4,0.4 z M 40,143.6 V 124.4 C 40,124.17909 39.820914,124 39.6,124 H 20.4 c -0.220914,0 -0.4,0.17909 -0.4,0.4 v 19.2 c 0,0.22091 0.179086,0.4 0.4,0.4 h 19.2 c 0.220914,0 0.4,-0.17909 0.4,-0.4 z M 55.6,140 h -7.2 c -0.220914,0 -0.4,-0.17909 -0.4,-0.4 v -11.2 c 0,-0.22091 0.179086,-0.4 0.4,-0.4 h 3.2 c 0.220914,0 0.4,-0.17909 0.4,-0.4 v -3.2 c 0,-0.22091 0.179086,-0.4 0.4,-0.4 h 7.2 c 0.220914,0 0.4,-0.17909 0.4,-0.4 v -3.2 c 0,-0.22091 0.179086,-0.4 0.4,-0.4 h 3.2 c 0.220914,0 0.4,0.17909 0.4,0.4 v 7.2 c 0,0.22091 -0.179086,0.4 -0.4,0.4 h -3.2 c -0.220914,0 -0.4,0.17909 -0.4,0.4 v 3.2 c 0,0.22091 -0.179086,0.4 -0.4,0.4 h -7.2 c -0.220914,0 -0.4,0.17909 -0.4,0.4 v 3.2 c 0,0.22091 0.179086,0.4 0.4,0.4 h 3.2 c 0.220914,0 0.4,0.17909 0.4,0.4 v 3.2 c 0,0.22091 -0.179086,0.4 -0.4,0.4 z m -20,0 H 24.4 c -0.220914,0 -0.4,-0.17909 -0.4,-0.4 v -11.2 c 0,-0.22091 0.179086,-0.4 0.4,-0.4 h 11.2 c 0.220914,0 0.4,0.17909 0.4,0.4 v 11.2 c 0,0.22091 -0.179086,0.4 -0.4,0.4 z m 28,-4 h -3.2 c -0.220914,0 -0.4,-0.17909 -0.4,-0.4 v -3.2 c 0,-0.22091 0.179086,-0.4 0.4,-0.4 h 3.2 c 0.220914,0 0.4,0.17909 0.4,0.4 v 3.2 c 0,0.22091 -0.179086,0.4 -0.4,0.4 z m 44,-4 H 96.4 c -0.220914,0 -0.4,-0.17909 -0.4,-0.4 v -7.2 c 0,-0.22091 0.179086,-0.4 0.4,-0.4 h 3.2 c 0.220914,0 0.4,0.17909 0.4,0.4 v 3.2 c 0,0.22091 0.17909,0.4 0.4,0.4 h 7.2 c 0.22091,0 0.4,0.17909 0.4,0.4 v 3.2 c 0,0.22091 -0.17909,0.4 -0.4,0.4 z m -32,0 h -7.2 c -0.220914,0 -0.4,-0.17909 -0.4,-0.4 v -11.2 c 0,-0.22091 0.179086,-0.4 0.4,-0.4 h 3.2 c 0.220914,0 0.4,-0.17909 0.4,-0.4 v -7.2 c 0,-0.22091 0.179086,-0.4 0.4,-0.4 h 11.2 c 0.220914,0 0.4,0.17909 0.4,0.4 v 7.2 c 0,0.22091 -0.179086,0.4 -0.4,0.4 h -3.2 c -0.220914,0 -0.4,-0.17909 -0.4,-0.4 v -3.2 c 0,-0.22091 -0.179086,-0.4 -0.4,-0.4 h -3.2 c -0.220914,0 -0.4,0.17909 -0.4,0.4 v 7.2 c 0,0.22091 -0.179086,0.4 -0.4,0.4 h -3.2 c -0.220914,0 -0.4,0.17909 -0.4,0.4 v 3.2 c 0,0.22091 0.179086,0.4 0.4,0.4 h 3.2 c 0.220914,0 0.4,0.17909 0.4,0.4 v 3.2 c 0,0.22091 -0.179086,0.4 -0.4,0.4 z m 52.4,-4.4 v -11.2 c 0,-0.22091 -0.17909,-0.4 -0.4,-0.4 h -11.2 c -0.22091,0 -0.4,0.17909 -0.4,0.4 v 11.2 c 0,0.22091 0.17909,0.4 0.4,0.4 h 11.2 c 0.22091,0 0.4,-0.17909 0.4,-0.4 z m -4.4,-3.6 h -3.2 c -0.22091,0 -0.4,-0.17909 -0.4,-0.4 v -3.2 c 0,-0.22091 0.17909,-0.4 0.4,-0.4 h 3.2 c 0.22091,0 0.4,0.17909 0.4,0.4 v 3.2 c 0,0.22091 -0.17909,0.4 -0.4,0.4 z m -32,0 h -3.2 c -0.220914,0 -0.4,-0.17909 -0.4,-0.4 v -7.2 c 0,-0.22091 0.179086,-0.4 0.4,-0.4 h 3.2 c 0.220914,0 0.4,0.17909 0.4,0.4 v 7.2 c 0,0.22091 -0.179086,0.4 -0.4,0.4 z m 56,-4 h -3.2 c -0.22091,0 -0.4,-0.17909 -0.4,-0.4 v -3.2 c 0,-0.22091 0.17909,-0.4 0.4,-0.4 h 3.2 c 0.22091,0 0.4,0.17909 0.4,0.4 v 3.2 c 0,0.22091 -0.17909,0.4 -0.4,0.4 z m -80,0 h -3.2 c -0.220914,0 -0.4,-0.17909 -0.4,-0.4 v -3.2 c 0,-0.22091 0.179086,-0.4 0.4,-0.4 h 3.2 c 0.220914,0 0.4,0.17909 0.4,0.4 v 3.2 c 0,0.22091 -0.179086,0.4 -0.4,0.4 z m -12,0 h -7.2 c -0.220914,0 -0.4,-0.17909 -0.4,-0.4 v -3.2 C 48,116.17909 47.820914,116 47.6,116 H 28.4 c -0.220914,0 -0.4,-0.17909 -0.4,-0.4 v -11.2 c 0,-0.22091 0.179086,-0.4 0.4,-0.4 h 3.2 c 0.220914,0 0.4,-0.17909 0.4,-0.4 v -3.2 c 0,-0.22091 0.179086,-0.4 0.4,-0.4 h 7.2 c 0.220914,0 0.4,0.17909 0.4,0.4 v 3.2 c 0,0.22091 0.179086,0.4 0.4,0.4 h 7.2 c 0.220914,0 0.4,-0.17909 0.4,-0.4 v -3.2 c 0,-0.22091 0.179086,-0.4 0.4,-0.4 h 7.2 c 0.220914,0 0.4,0.17909 0.4,0.4 v 3.2 c 0,0.22091 -0.179086,0.4 -0.4,0.4 h -3.2 c -0.220914,0 -0.4,0.17909 -0.4,0.4 v 3.2 c 0,0.22091 -0.179086,0.4 -0.4,0.4 H 40.4 c -0.220914,0 -0.4,0.17909 -0.4,0.4 v 3.2 c 0,0.22091 0.179086,0.4 0.4,0.4 h 11.2 c 0.220914,0 0.4,0.17909 0.4,0.4 v 3.2 c 0,0.22091 0.179086,0.4 0.4,0.4 h 3.2 c 0.220914,0 0.4,0.17909 0.4,0.4 v 3.2 c 0,0.22091 -0.179086,0.4 -0.4,0.4 z m 48,-4 h -7.2 c -0.220914,0 -0.4,-0.17909 -0.4,-0.4 v -3.2 C 96,112.17909 95.820914,112 95.6,112 H 84.4 c -0.220914,0 -0.4,-0.17909 -0.4,-0.4 v -3.2 c 0,-0.22091 0.179086,-0.4 0.4,-0.4 h 11.2 c 0.220914,0 0.4,-0.17909 0.4,-0.4 v -7.2 c 0,-0.22091 0.179086,-0.4 0.4,-0.4 h 7.2 c 0.22091,0 0.4,0.17909 0.4,0.4 v 3.2 c 0,0.22091 -0.17909,0.4 -0.4,0.4 h -3.2 c -0.22091,0 -0.4,0.17909 -0.4,0.4 v 3.2 c 0,0.22091 0.17909,0.4 0.4,0.4 h 3.2 c 0.22091,0 0.4,-0.17909 0.4,-0.4 v -3.2 c 0,-0.22091 0.17909,-0.4 0.4,-0.4 h 3.2 c 0.22091,0 0.4,0.17909 0.4,0.4 v 7.2 c 0,0.22091 -0.17909,0.4 -0.4,0.4 h -3.2 c -0.22091,0 -0.4,0.17909 -0.4,0.4 v 3.2 c 0,0.22091 -0.17909,0.4 -0.4,0.4 z m -44,0 h -3.2 c -0.220914,0 -0.4,-0.17909 -0.4,-0.4 v -7.2 c 0,-0.22091 0.179086,-0.4 0.4,-0.4 h 3.2 c 0.220914,0 0.4,0.17909 0.4,0.4 v 7.2 c 0,0.22091 -0.179086,0.4 -0.4,0.4 z m -40,0 h -3.2 c -0.220914,0 -0.4,-0.17909 -0.4,-0.4 v -15.2 c 0,-0.22091 0.179086,-0.4 0.4,-0.4 h 3.2 c 0.220914,0 0.4,0.17909 0.4,0.4 v 15.2 c 0,0.22091 -0.179086,0.4 -0.4,0.4 z m 128,-4 h -3.2 c -0.22091,0 -0.4,-0.17909 -0.4,-0.4 v -3.2 c 0,-0.22091 0.17909,-0.4 0.4,-0.4 h 3.2 c 0.22091,0 0.4,0.17909 0.4,0.4 v 3.2 c 0,0.22091 -0.17909,0.4 -0.4,0.4 z m -8,0 h -7.2 c -0.22091,0 -0.4,-0.17909 -0.4,-0.4 v -3.2 c 0,-0.22091 0.17909,-0.4 0.4,-0.4 h 7.2 c 0.22091,0 0.4,0.17909 0.4,0.4 v 3.2 c 0,0.22091 -0.17909,0.4 -0.4,0.4 z M 36,111.6 v -3.2 c 0,-0.22091 -0.179086,-0.4 -0.4,-0.4 h -3.2 c -0.220914,0 -0.4,0.17909 -0.4,0.4 v 3.2 c 0,0.22091 0.179086,0.4 0.4,0.4 h 3.2 c 0.220914,0 0.4,-0.17909 0.4,-0.4 z M 143.6,108 h -3.2 c -0.22091,0 -0.4,-0.17909 -0.4,-0.4 v -3.2 c 0,-0.22091 0.17909,-0.4 0.4,-0.4 h 3.2 c 0.22091,0 0.4,0.17909 0.4,0.4 v 3.2 c 0,0.22091 -0.17909,0.4 -0.4,0.4 z m -16,0 h -3.2 c -0.22091,0 -0.4,-0.17909 -0.4,-0.4 v -3.2 c 0,-0.22091 0.17909,-0.4 0.4,-0.4 h 3.2 c 0.22091,0 0.4,0.17909 0.4,0.4 v 3.2 c 0,0.22091 -0.17909,0.4 -0.4,0.4 z m -44,0 h -3.2 c -0.220914,0 -0.4,-0.17909 -0.4,-0.4 v -3.2 c 0,-0.22091 0.179086,-0.4 0.4,-0.4 h 3.2 c 0.220914,0 0.4,0.17909 0.4,0.4 v 3.2 c 0,0.22091 -0.179086,0.4 -0.4,0.4 z m -16,0 h -3.2 c -0.220914,0 -0.4,-0.17909 -0.4,-0.4 v -3.2 c 0,-0.22091 -0.179086,-0.4 -0.4,-0.4 h -3.2 c -0.220914,0 -0.4,-0.17909 -0.4,-0.4 v -3.2 c 0,-0.22091 0.179086,-0.4 0.4,-0.4 h 7.2 c 0.220914,0 0.4,0.17909 0.4,0.4 v 7.2 c 0,0.22091 -0.179086,0.4 -0.4,0.4 z m 80,-4 h -3.2 c -0.22091,0 -0.4,-0.17909 -0.4,-0.4 v -3.2 c 0,-0.22091 -0.17909,-0.4 -0.4,-0.4 h -3.2 c -0.22091,0 -0.4,-0.179086 -0.4,-0.4 v -3.2 c 0,-0.220914 0.17909,-0.4 0.4,-0.4 h 3.2 c 0.22091,0 0.4,-0.179086 0.4,-0.4 v -3.2 c 0,-0.220914 -0.17909,-0.4 -0.4,-0.4 h -3.2 c -0.22091,0 -0.4,0.179086 -0.4,0.4 v 3.2 c 0,0.220914 -0.17909,0.4 -0.4,0.4 h -3.2 c -0.22091,0 -0.4,0.179086 -0.4,0.4 v 7.2 c 0,0.22091 -0.17909,0.4 -0.4,0.4 h -3.2 c -0.22091,0 -0.4,-0.17909 -0.4,-0.4 v -3.2 c 0,-0.22091 -0.17909,-0.4 -0.4,-0.4 h -15.2 c -0.22091,0 -0.4,-0.179086 -0.4,-0.4 v -3.2 c 0,-0.220914 0.17909,-0.4 0.4,-0.4 h 3.2 c 0.22091,0 0.4,-0.179086 0.4,-0.4 v -3.2 c 0,-0.220914 -0.17909,-0.4 -0.4,-0.4 h -3.2 c -0.22091,0 -0.4,-0.179086 -0.4,-0.4 v -3.2 c 0,-0.220914 0.17909,-0.4 0.4,-0.4 h 3.2 c 0.22091,0 0.4,-0.179086 0.4,-0.4 v -3.2 c 0,-0.220914 0.17909,-0.4 0.4,-0.4 h 3.2 c 0.22091,0 0.4,0.179086 0.4,0.4 v 3.2 c 0,0.220914 0.17909,0.4 0.4,0.4 h 3.2 c 0.22091,0 0.4,0.179086 0.4,0.4 v 3.2 c 0,0.220914 -0.17909,0.4 -0.4,0.4 h -3.2 c -0.22091,0 -0.4,0.179086 -0.4,0.4 v 3.2 c 0,0.220914 0.17909,0.4 0.4,0.4 h 7.2 c 0.22091,0 0.4,-0.179086 0.4,-0.4 v -3.2 c 0,-0.220914 0.17909,-0.4 0.4,-0.4 h 3.2 c 0.22091,0 0.4,-0.179086 0.4,-0.4 v -3.2 c 0,-0.220914 0.17909,-0.4 0.4,-0.4 h 11.2 c 0.22091,0 0.4,0.179086 0.4,0.4 v 15.2 c 0,0.22091 -0.17909,0.4 -0.4,0.4 z m -32,0 h -3.2 c -0.22091,0 -0.4,-0.17909 -0.4,-0.4 v -3.2 c 0,-0.22091 0.17909,-0.4 0.4,-0.4 h 3.2 c 0.22091,0 0.4,0.17909 0.4,0.4 v 3.2 c 0,0.22091 -0.17909,0.4 -0.4,0.4 z m -24,0 H 84.4 C 84.179086,104 84,103.82091 84,103.6 V 96.4 C 84,96.179086 84.179086,96 84.4,96 h 3.2 c 0.220914,0 0.4,0.179086 0.4,0.4 v 3.2 c 0,0.220914 0.179086,0.4 0.4,0.4 h 3.2 c 0.220914,0 0.4,0.17909 0.4,0.4 v 3.2 c 0,0.22091 -0.179086,0.4 -0.4,0.4 z m -16,0 h -3.2 c -0.220914,0 -0.4,-0.17909 -0.4,-0.4 v -3.2 C 72,100.17909 71.820914,100 71.6,100 H 68.4 C 68.179086,100 68,99.820914 68,99.6 V 96.4 C 68,96.179086 67.820914,96 67.6,96 H 64.4 C 64.179086,96 64,95.820914 64,95.6 V 88.4 C 64,88.179086 63.820914,88 63.6,88 H 60.4 C 60.179086,88 60,88.179086 60,88.4 v 11.2 c 0,0.220914 -0.179086,0.4 -0.4,0.4 H 56.4 C 56.179086,100 56,99.820914 56,99.6 V 92.4 C 56,92.179086 55.820914,92 55.6,92 H 52.4 C 52.179086,92 52,92.179086 52,92.4 v 3.2 C 52,95.820914 51.820914,96 51.6,96 H 44.4 C 44.179086,96 44,95.820914 44,95.6 V 92.4 C 44,92.179086 43.820914,92 43.6,92 H 40.4 C 40.179086,92 40,91.820914 40,91.6 V 88.4 C 40,88.179086 40.179086,88 40.4,88 h 3.2 C 43.820914,88 44,87.820914 44,87.6 V 84.4 C 44,84.179086 43.820914,84 43.6,84 H 40.4 C 40.179086,84 40,84.179086 40,84.4 v 3.2 C 40,87.820914 39.820914,88 39.6,88 H 36.4 C 36.179086,88 36,88.179086 36,88.4 v 7.2 C 36,95.820914 35.820914,96 35.6,96 H 24.4 C 24.179086,96 24,96.179086 24,96.4 v 3.2 c 0,0.220914 -0.179086,0.4 -0.4,0.4 H 20.4 C 20.179086,100 20,99.820914 20,99.6 V 88.4 C 20,88.179086 20.179086,88 20.4,88 h 3.2 c 0.220914,0 0.4,0.179086 0.4,0.4 v 3.2 c 0,0.220914 0.179086,0.4 0.4,0.4 h 7.2 C 31.820914,92 32,91.820914 32,91.6 V 84.4 C 32,84.179086 32.179086,84 32.4,84 h 3.2 C 35.820914,84 36,83.820914 36,83.6 V 80.4 C 36,80.179086 36.179086,80 36.4,80 h 7.2 C 43.820914,80 44,79.820914 44,79.6 V 76.4 C 44,76.179086 44.179086,76 44.4,76 h 3.2 c 0.220914,0 0.4,0.179086 0.4,0.4 v 7.2 c 0,0.220914 0.179086,0.4 0.4,0.4 H 59.6 C 59.820914,84 60,83.820914 60,83.6 V 80.4 C 60,80.179086 60.179086,80 60.4,80 h 3.2 c 0.220914,0 0.4,0.179086 0.4,0.4 v 3.2 c 0,0.220914 0.179086,0.4 0.4,0.4 h 3.2 C 67.820914,84 68,83.820914 68,83.6 V 80.4 C 68,80.179086 68.179086,80 68.4,80 h 3.2 c 0.220914,0 0.4,0.179086 0.4,0.4 v 3.2 c 0,0.220914 0.179086,0.4 0.4,0.4 h 3.2 c 0.220914,0 0.4,0.179086 0.4,0.4 v 3.2 C 76,87.820914 75.820914,88 75.6,88 H 68.4 C 68.179086,88 68,88.179086 68,88.4 v 3.2 c 0,0.220914 0.179086,0.4 0.4,0.4 h 3.2 c 0.220914,0 0.4,0.179086 0.4,0.4 v 3.2 c 0,0.220914 0.179086,0.4 0.4,0.4 h 7.2 c 0.220914,0 0.4,0.179086 0.4,0.4 v 3.2 c 0,0.220914 -0.179086,0.4 -0.4,0.4 h -3.2 c -0.220914,0 -0.4,0.17909 -0.4,0.4 v 3.2 c 0,0.22091 -0.179086,0.4 -0.4,0.4 z m -48,0 h -3.2 c -0.220914,0 -0.4,-0.17909 -0.4,-0.4 v -3.2 c 0,-0.22091 0.179086,-0.4 0.4,-0.4 h 3.2 c 0.220914,0 0.4,0.17909 0.4,0.4 v 3.2 c 0,0.22091 -0.179086,0.4 -0.4,0.4 z m 80,-4 h -3.2 c -0.22091,0 -0.4,-0.179086 -0.4,-0.4 v -3.2 c 0,-0.220914 -0.17909,-0.4 -0.4,-0.4 h -3.2 c -0.22091,0 -0.4,-0.179086 -0.4,-0.4 v -7.2 c 0,-0.220914 0.17909,-0.4 0.4,-0.4 h 3.2 c 0.22091,0 0.4,0.179086 0.4,0.4 v 3.2 c 0,0.220914 0.17909,0.4 0.4,0.4 h 11.2 c 0.22091,0 0.4,0.179086 0.4,0.4 v 3.2 c 0,0.220914 -0.17909,0.4 -0.4,0.4 h -7.2 c -0.22091,0 -0.4,0.179086 -0.4,0.4 v 3.2 c 0,0.220914 -0.17909,0.4 -0.4,0.4 z m -64,0 H 40.4 C 40.179086,100 40,99.820914 40,99.6 V 96.4 C 40,96.179086 40.179086,96 40.4,96 h 3.2 c 0.220914,0 0.4,0.179086 0.4,0.4 v 3.2 c 0,0.220914 -0.179086,0.4 -0.4,0.4 z m 52,-4 H 88.4 C 88.179086,96 88,95.820914 88,95.6 V 92.4 C 88,92.179086 88.179086,92 88.4,92 h 7.2 c 0.220914,0 0.4,0.179086 0.4,0.4 v 3.2 c 0,0.220914 -0.179086,0.4 -0.4,0.4 z m -12,0 H 80.4 C 80.179086,96 80,95.820914 80,95.6 V 92.4 C 80,92.179086 79.820914,92 79.6,92 H 76.4 C 76.179086,92 76,91.820914 76,91.6 V 88.4 C 76,88.179086 76.179086,88 76.4,88 h 7.2 c 0.220914,0 0.4,0.179086 0.4,0.4 v 7.2 c 0,0.220914 -0.179086,0.4 -0.4,0.4 z m 32,-8 h -7.2 c -0.22091,0 -0.4,-0.179086 -0.4,-0.4 v -7.2 c 0,-0.220914 0.17909,-0.4 0.4,-0.4 h 3.2 c 0.22091,0 0.4,0.179086 0.4,0.4 v 3.2 c 0,0.220914 0.17909,0.4 0.4,0.4 h 3.2 c 0.22091,0 0.4,0.179086 0.4,0.4 v 3.2 c 0,0.220914 -0.17909,0.4 -0.4,0.4 z m -16,0 H 92.4 C 92.179086,88 92,87.820914 92,87.6 V 84.4 C 92,84.179086 92.179086,84 92.4,84 h 7.2 c 0.220914,0 0.4,0.179086 0.4,0.4 v 3.2 c 0,0.220914 -0.179086,0.4 -0.4,0.4 z m -12,0 H 84.4 C 84.179086,88 84,87.820914 84,87.6 V 84.4 C 84,84.179086 84.179086,84 84.4,84 h 3.2 c 0.220914,0 0.4,0.179086 0.4,0.4 v 3.2 c 0,0.220914 -0.179086,0.4 -0.4,0.4 z m -68,0 H 16.4 C 16.179086,88 16,87.820914 16,87.6 V 84.4 C 16,84.179086 16.179086,84 16.4,84 h 3.2 c 0.220914,0 0.4,0.179086 0.4,0.4 v 3.2 c 0,0.220914 -0.179086,0.4 -0.4,0.4 z m 128,-4 h -3.2 c -0.22091,0 -0.4,-0.179086 -0.4,-0.4 v -3.2 c 0,-0.220914 0.17909,-0.4 0.4,-0.4 h 3.2 c 0.22091,0 0.4,0.179086 0.4,0.4 v 3.2 c 0,0.220914 -0.17909,0.4 -0.4,0.4 z m -8,0 h -15.2 c -0.22091,0 -0.4,-0.179086 -0.4,-0.4 v -3.2 c 0,-0.220914 -0.17909,-0.4 -0.4,-0.4 h -3.2 c -0.22091,0 -0.4,-0.179086 -0.4,-0.4 v -3.2 c 0,-0.220914 -0.17909,-0.4 -0.4,-0.4 h -3.2 C 116.17909,76 116,75.820914 116,75.6 V 60.4 c 0,-0.220914 0.17909,-0.4 0.4,-0.4 h 3.2 c 0.22091,0 0.4,0.179086 0.4,0.4 v 7.2 c 0,0.220914 0.17909,0.4 0.4,0.4 h 7.2 c 0.22091,0 0.4,0.179086 0.4,0.4 v 3.2 c 0,0.220914 -0.17909,0.4 -0.4,0.4 h -3.2 c -0.22091,0 -0.4,0.179086 -0.4,0.4 v 3.2 c 0,0.220914 0.17909,0.4 0.4,0.4 h 3.2 c 0.22091,0 0.4,0.179086 0.4,0.4 v 3.2 c 0,0.220914 0.17909,0.4 0.4,0.4 h 7.2 c 0.22091,0 0.4,-0.179086 0.4,-0.4 v -3.2 c 0,-0.220914 -0.17909,-0.4 -0.4,-0.4 h -3.2 c -0.22091,0 -0.4,-0.179086 -0.4,-0.4 v -3.2 c 0,-0.220914 0.17909,-0.4 0.4,-0.4 h 3.2 c 0.22091,0 0.4,-0.179086 0.4,-0.4 v -3.2 c 0,-0.220914 0.17909,-0.4 0.4,-0.4 h 3.2 c 0.22091,0 0.4,0.179086 0.4,0.4 v 3.2 c 0,0.220914 0.17909,0.4 0.4,0.4 h 3.2 c 0.22091,0 0.4,0.179086 0.4,0.4 v 7.2 c 0,0.220914 -0.17909,0.4 -0.4,0.4 h -3.2 c -0.22091,0 -0.4,0.179086 -0.4,0.4 v 3.2 c 0,0.220914 -0.17909,0.4 -0.4,0.4 z m -48,0 H 88.4 C 88.179086,84 88,83.820914 88,83.6 V 80.4 C 88,80.179086 87.820914,80 87.6,80 H 84.4 C 84.179086,80 84,80.179086 84,80.4 v 3.2 C 84,83.820914 83.820914,84 83.6,84 H 80.4 C 80.179086,84 80,83.820914 80,83.6 V 80.4 C 80,80.179086 79.820914,80 79.6,80 H 76.4 C 76.179086,80 76,79.820914 76,79.6 V 76.4 C 76,76.179086 76.179086,76 76.4,76 H 87.6 C 87.820914,76 88,75.820914 88,75.6 V 72.4 C 88,72.179086 88.179086,72 88.4,72 h 3.2 C 91.820914,72 92,71.820914 92,71.6 V 68.4 C 92,68.179086 91.820914,68 91.6,68 H 88.4 C 88.179086,68 88,68.179086 88,68.4 v 3.2 C 88,71.820914 87.820914,72 87.6,72 H 84.4 C 84.179086,72 84,71.820914 84,71.6 V 68.4 C 84,68.179086 83.820914,68 83.6,68 H 80.4 C 80.179086,68 80,68.179086 80,68.4 v 3.2 C 80,71.820914 79.820914,72 79.6,72 H 76.4 C 76.179086,72 76,71.820914 76,71.6 V 60.4 C 76,60.179086 75.820914,60 75.6,60 H 72.4 C 72.179086,60 72,59.820914 72,59.6 V 52.4 C 72,52.179086 72.179086,52 72.4,52 h 3.2 c 0.220914,0 0.4,0.179086 0.4,0.4 v 3.2 c 0,0.220914 0.179086,0.4 0.4,0.4 h 7.2 c 0.220914,0 0.4,0.179086 0.4,0.4 v 3.2 C 84,59.820914 83.820914,60 83.6,60 H 80.4 C 80.179086,60 80,60.179086 80,60.4 v 3.2 c 0,0.220914 0.179086,0.4 0.4,0.4 h 7.2 C 87.820914,64 88,63.820914 88,63.6 V 56.4 C 88,56.179086 88.179086,56 88.4,56 h 3.2 c 0.220914,0 0.4,0.179086 0.4,0.4 v 3.2 c 0,0.220914 0.179086,0.4 0.4,0.4 h 3.2 C 95.820914,60 96,59.820914 96,59.6 V 56.4 C 96,56.179086 96.179086,56 96.4,56 h 3.2 c 0.220914,0 0.4,-0.179086 0.4,-0.4 v -3.2 c 0,-0.220914 0.17909,-0.4 0.4,-0.4 h 3.2 c 0.22091,0 0.4,0.179086 0.4,0.4 v 7.2 c 0,0.220914 0.17909,0.4 0.4,0.4 h 7.2 c 0.22091,0 0.4,0.179086 0.4,0.4 v 11.2 c 0,0.220914 -0.17909,0.4 -0.4,0.4 h -3.2 c -0.22091,0 -0.4,0.179086 -0.4,0.4 v 7.2 c 0,0.220914 -0.17909,0.4 -0.4,0.4 h -7.2 c -0.22091,0 -0.4,-0.179086 -0.4,-0.4 v -3.2 c 0,-0.220914 0.17909,-0.4 0.4,-0.4 h 3.2 c 0.22091,0 0.4,-0.179086 0.4,-0.4 v -7.2 c 0,-0.220914 0.17909,-0.4 0.4,-0.4 h 3.2 c 0.22091,0 0.4,-0.179086 0.4,-0.4 v -3.2 c 0,-0.220914 -0.17909,-0.4 -0.4,-0.4 h -3.2 c -0.22091,0 -0.4,0.179086 -0.4,0.4 v 3.2 c 0,0.220914 -0.17909,0.4 -0.4,0.4 h -3.2 C 100.17909,68 100,67.820914 100,67.6 V 64.4 C 100,64.179086 99.820914,64 99.6,64 H 96.4 C 96.179086,64 96,64.179086 96,64.4 v 3.2 c 0,0.220914 0.179086,0.4 0.4,0.4 h 3.2 c 0.220914,0 0.4,0.179086 0.4,0.4 v 7.2 c 0,0.220914 -0.179086,0.4 -0.4,0.4 H 92.4 C 92.179086,76 92,76.179086 92,76.4 v 7.2 c 0,0.220914 -0.179086,0.4 -0.4,0.4 z m -64,0 H 20.4 C 20.179086,84 20,83.820914 20,83.6 V 80.4 C 20,80.179086 19.820914,80 19.6,80 H 16.4 C 16.179086,80 16,79.820914 16,79.6 V 76.4 C 16,76.179086 16.179086,76 16.4,76 h 7.2 c 0.220914,0 0.4,0.179086 0.4,0.4 v 3.2 c 0,0.220914 0.179086,0.4 0.4,0.4 h 3.2 c 0.220914,0 0.4,0.179086 0.4,0.4 v 3.2 c 0,0.220914 -0.179086,0.4 -0.4,0.4 z m 88,-4 h -3.2 c -0.22091,0 -0.4,-0.179086 -0.4,-0.4 v -3.2 c 0,-0.220914 0.17909,-0.4 0.4,-0.4 h 3.2 c 0.22091,0 0.4,0.179086 0.4,0.4 v 3.2 c 0,0.220914 -0.17909,0.4 -0.4,0.4 z m -48,0 H 64.4 C 64.179086,80 64,79.820914 64,79.6 V 76.4 C 64,76.179086 63.820914,76 63.6,76 H 60.4 C 60.179086,76 60,76.179086 60,76.4 v 3.2 C 60,79.820914 59.820914,80 59.6,80 H 56.4 C 56.179086,80 56,79.820914 56,79.6 V 68.4 C 56,68.179086 55.820914,68 55.6,68 H 52.4 C 52.179086,68 52,67.820914 52,67.6 V 64.4 C 52,64.179086 52.179086,64 52.4,64 h 7.2 c 0.220914,0 0.4,0.179086 0.4,0.4 v 3.2 c 0,0.220914 0.179086,0.4 0.4,0.4 h 7.2 c 0.220914,0 0.4,0.179086 0.4,0.4 v 11.2 c 0,0.220914 -0.179086,0.4 -0.4,0.4 z m -32,0 H 32.4 C 32.179086,80 32,79.820914 32,79.6 V 76.4 C 32,76.179086 32.179086,76 32.4,76 h 3.2 c 0.220914,0 0.4,0.179086 0.4,0.4 v 3.2 c 0,0.220914 -0.179086,0.4 -0.4,0.4 z m 16,-4 H 48.4 C 48.179086,76 48,75.820914 48,75.6 V 72.4 C 48,72.179086 48.179086,72 48.4,72 h 3.2 c 0.220914,0 0.4,0.179086 0.4,0.4 v 3.2 c 0,0.220914 -0.179086,0.4 -0.4,0.4 z m -8,0 H 36.4 C 36.179086,76 36,75.820914 36,75.6 V 72.4 C 36,72.179086 36.179086,72 36.4,72 h 7.2 c 0.220914,0 0.4,0.179086 0.4,0.4 v 3.2 c 0,0.220914 -0.179086,0.4 -0.4,0.4 z m -16,0 H 24.4 C 24.179086,76 24,75.820914 24,75.6 V 68.4 C 24,68.179086 24.179086,68 24.4,68 h 3.2 c 0.220914,0 0.4,0.179086 0.4,0.4 v 7.2 c 0,0.220914 -0.179086,0.4 -0.4,0.4 z m 120,-4 h -3.2 c -0.22091,0 -0.4,-0.179086 -0.4,-0.4 v -7.2 c 0,-0.220914 0.17909,-0.4 0.4,-0.4 h 3.2 c 0.22091,0 0.4,0.179086 0.4,0.4 v 7.2 c 0,0.220914 -0.17909,0.4 -0.4,0.4 z m -100,0 H 44.4 C 44.179086,72 44,71.820914 44,71.6 V 68.4 C 44,68.179086 43.820914,68 43.6,68 H 40.4 C 40.179086,68 40,67.820914 40,67.6 V 64.4 C 40,64.179086 40.179086,64 40.4,64 h 3.2 C 43.820914,64 44,63.820914 44,63.6 V 60.4 C 44,60.179086 44.179086,60 44.4,60 h 3.2 C 47.820914,60 48,59.820914 48,59.6 V 56.4 C 48,56.179086 48.179086,56 48.4,56 h 3.2 c 0.220914,0 0.4,0.179086 0.4,0.4 v 7.2 C 52,63.820914 51.820914,64 51.6,64 H 48.4 C 48.179086,64 48,64.179086 48,64.4 v 7.2 c 0,0.220914 -0.179086,0.4 -0.4,0.4 z m -12,-4 H 32.4 C 32.179086,68 32,67.820914 32,67.6 V 64.4 C 32,64.179086 31.820914,64 31.6,64 H 20.4 C 20.179086,64 20,63.820914 20,63.6 V 60.4 C 20,60.179086 20.179086,60 20.4,60 h 3.2 C 23.820914,60 24,59.820914 24,59.6 V 56.4 C 24,56.179086 24.179086,56 24.4,56 h 3.2 C 27.820914,56 28,55.820914 28,55.6 V 52.4 C 28,52.179086 27.820914,52 27.6,52 H 24.4 C 24.179086,52 24,51.820914 24,51.6 V 48.4 C 24,48.179086 24.179086,48 24.4,48 h 11.2 c 0.220914,0 0.4,0.179086 0.4,0.4 v 3.2 c 0,0.220914 0.179086,0.4 0.4,0.4 h 3.2 c 0.220914,0 0.4,0.179086 0.4,0.4 v 3.2 c 0,0.220914 0.179086,0.4 0.4,0.4 h 3.2 c 0.220914,0 0.4,0.179086 0.4,0.4 v 3.2 C 44,59.820914 43.820914,60 43.6,60 H 36.4 C 36.179086,60 36,59.820914 36,59.6 V 56.4 C 36,56.179086 35.820914,56 35.6,56 H 32.4 C 32.179086,56 32,56.179086 32,56.4 v 3.2 c 0,0.220914 0.179086,0.4 0.4,0.4 h 3.2 c 0.220914,0 0.4,0.179086 0.4,0.4 v 7.2 c 0,0.220914 -0.179086,0.4 -0.4,0.4 z m -16,0 H 16.4 C 16.179086,68 16,67.820914 16,67.6 V 64.4 C 16,64.179086 16.179086,64 16.4,64 h 3.2 c 0.220914,0 0.4,0.179086 0.4,0.4 v 3.2 c 0,0.220914 -0.179086,0.4 -0.4,0.4 z m 124,-4 h -11.2 c -0.22091,0 -0.4,-0.179086 -0.4,-0.4 v -3.2 c 0,-0.220914 0.17909,-0.4 0.4,-0.4 h 3.2 c 0.22091,0 0.4,-0.179086 0.4,-0.4 v -3.2 c 0,-0.220914 0.17909,-0.4 0.4,-0.4 h 7.2 c 0.22091,0 0.4,0.179086 0.4,0.4 v 7.2 c 0,0.220914 -0.17909,0.4 -0.4,0.4 z m -16,-4 h -7.2 c -0.22091,0 -0.4,-0.179086 -0.4,-0.4 v -3.2 c 0,-0.220914 -0.17909,-0.4 -0.4,-0.4 h -3.2 c -0.22091,0 -0.4,-0.179086 -0.4,-0.4 v -7.2 c 0,-0.220914 0.17909,-0.4 0.4,-0.4 h 11.2 c 0.22091,0 0.4,0.179086 0.4,0.4 v 3.2 c 0,0.220914 -0.17909,0.4 -0.4,0.4 h -3.2 c -0.22091,0 -0.4,0.179086 -0.4,0.4 v 3.2 c 0,0.220914 0.17909,0.4 0.4,0.4 h 3.2 c 0.22091,0 0.4,0.179086 0.4,0.4 v 3.2 c 0,0.220914 -0.17909,0.4 -0.4,0.4 z m -68,0 H 56.4 C 56.179086,60 56,59.820914 56,59.6 V 52.4 C 56,52.179086 55.820914,52 55.6,52 H 48.4 C 48.179086,52 48,51.820914 48,51.6 V 36.4 C 48,36.179086 48.179086,36 48.4,36 h 3.2 C 51.820914,36 52,35.820914 52,35.6 V 32.4 C 52,32.179086 52.179086,32 52.4,32 h 7.2 c 0.220914,0 0.4,0.179086 0.4,0.4 v 3.2 c 0,0.220914 0.179086,0.4 0.4,0.4 h 3.2 c 0.220914,0 0.4,0.179086 0.4,0.4 v 3.2 C 64,39.820914 63.820914,40 63.6,40 H 60.4 C 60.179086,40 60,40.179086 60,40.4 v 3.2 C 60,43.820914 59.820914,44 59.6,44 H 56.4 C 56.179086,44 56,43.820914 56,43.6 V 40.4 C 56,40.179086 55.820914,40 55.6,40 H 52.4 C 52.179086,40 52,40.179086 52,40.4 v 3.2 c 0,0.220914 0.179086,0.4 0.4,0.4 h 3.2 c 0.220914,0 0.4,0.179086 0.4,0.4 v 3.2 c 0,0.220914 0.179086,0.4 0.4,0.4 h 7.2 c 0.220914,0 0.4,0.179086 0.4,0.4 v 3.2 C 64,51.820914 63.820914,52 63.6,52 H 60.4 C 60.179086,52 60,52.179086 60,52.4 v 7.2 c 0,0.220914 -0.179086,0.4 -0.4,0.4 z m 88,-4 h -3.2 c -0.22091,0 -0.4,-0.179086 -0.4,-0.4 v -3.2 c 0,-0.220914 -0.17909,-0.4 -0.4,-0.4 h -7.2 c -0.22091,0 -0.4,-0.179086 -0.4,-0.4 v -3.2 c 0,-0.220914 0.17909,-0.4 0.4,-0.4 h 11.2 c 0.22091,0 0.4,0.179086 0.4,0.4 v 7.2 c 0,0.220914 -0.17909,0.4 -0.4,0.4 z m -12,0 h -3.2 c -0.22091,0 -0.4,-0.179086 -0.4,-0.4 v -3.2 c 0,-0.220914 0.17909,-0.4 0.4,-0.4 h 3.2 c 0.22091,0 0.4,0.179086 0.4,0.4 v 3.2 c 0,0.220914 -0.17909,0.4 -0.4,0.4 z m -24,0 h -3.2 c -0.22091,0 -0.4,-0.179086 -0.4,-0.4 v -3.2 c 0,-0.220914 -0.17909,-0.4 -0.4,-0.4 h -3.2 c -0.22091,0 -0.4,-0.179086 -0.4,-0.4 v -3.2 c 0,-0.220914 0.17909,-0.4 0.4,-0.4 h 3.2 c 0.22091,0 0.4,-0.179086 0.4,-0.4 v -3.2 c 0,-0.220914 0.17909,-0.4 0.4,-0.4 h 3.2 c 0.22091,0 0.4,0.179086 0.4,0.4 v 11.2 c 0,0.220914 -0.17909,0.4 -0.4,0.4 z m -24,0 H 84.4 C 84.179086,56 84,55.820914 84,55.6 V 44.4 C 84,44.179086 84.179086,44 84.4,44 h 3.2 c 0.220914,0 0.4,0.179086 0.4,0.4 v 3.2 c 0,0.220914 0.179086,0.4 0.4,0.4 h 3.2 c 0.220914,0 0.4,0.179086 0.4,0.4 v 3.2 C 92,51.820914 91.820914,52 91.6,52 H 88.4 C 88.179086,52 88,52.179086 88,52.4 v 3.2 c 0,0.220914 -0.179086,0.4 -0.4,0.4 z m -20,0 H 64.4 C 64.179086,56 64,55.820914 64,55.6 V 52.4 C 64,52.179086 64.179086,52 64.4,52 h 3.2 c 0.220914,0 0.4,0.179086 0.4,0.4 v 3.2 c 0,0.220914 -0.179086,0.4 -0.4,0.4 z m -24,-4 H 40.4 C 40.179086,52 40,51.820914 40,51.6 V 48.4 C 40,48.179086 40.179086,48 40.4,48 h 3.2 c 0.220914,0 0.4,0.179086 0.4,0.4 v 3.2 c 0,0.220914 -0.179086,0.4 -0.4,0.4 z m 60,-4 H 92.4 C 92.179086,48 92,47.820914 92,47.6 V 44.4 C 92,44.179086 92.179086,44 92.4,44 h 3.2 C 95.820914,44 96,43.820914 96,43.6 V 40.4 C 96,40.179086 96.179086,40 96.4,40 h 3.2 c 0.220914,0 0.4,0.179086 0.4,0.4 v 3.2 c 0,0.220914 0.17909,0.4 0.4,0.4 h 3.2 c 0.22091,0 0.4,0.179086 0.4,0.4 v 3.2 c 0,0.220914 -0.17909,0.4 -0.4,0.4 z m -24,0 H 76.4 C 76.179086,48 76,47.820914 76,47.6 V 44.4 C 76,44.179086 76.179086,44 76.4,44 h 3.2 c 0.220914,0 0.4,0.179086 0.4,0.4 v 3.2 c 0,0.220914 -0.179086,0.4 -0.4,0.4 z m -8,0 H 68.4 C 68.179086,48 68,47.820914 68,47.6 V 44.4 C 68,44.179086 68.179086,44 68.4,44 h 3.2 c 0.220914,0 0.4,0.179086 0.4,0.4 v 3.2 c 0,0.220914 -0.179086,0.4 -0.4,0.4 z m 76,-4 H 120.4 C 120.17909,44 120,43.820914 120,43.6 V 16.4 c 0,-0.220914 0.17909,-0.4 0.4,-0.4 h 27.2 c 0.22091,0 0.4,0.179086 0.4,0.4 v 27.2 c 0,0.220914 -0.17909,0.4 -0.4,0.4 z m -32,0 h -3.2 c -0.22091,0 -0.4,-0.179086 -0.4,-0.4 v -3.2 c 0,-0.220914 -0.17909,-0.4 -0.4,-0.4 h -3.2 c -0.22091,0 -0.4,-0.179086 -0.4,-0.4 v -3.2 c 0,-0.220914 0.17909,-0.4 0.4,-0.4 h 7.2 c 0.22091,0 0.4,0.179086 0.4,0.4 v 7.2 c 0,0.220914 -0.17909,0.4 -0.4,0.4 z m -8,0 h -3.2 c -0.22091,0 -0.4,-0.179086 -0.4,-0.4 v -3.2 c 0,-0.220914 0.17909,-0.4 0.4,-0.4 h 3.2 c 0.22091,0 0.4,0.179086 0.4,0.4 v 3.2 c 0,0.220914 -0.17909,0.4 -0.4,0.4 z m -16,0 H 88.4 C 88.179086,44 88,43.820914 88,43.6 V 40.4 C 88,40.179086 88.179086,40 88.4,40 h 3.2 c 0.220914,0 0.4,0.179086 0.4,0.4 v 3.2 c 0,0.220914 -0.179086,0.4 -0.4,0.4 z m -8,0 H 80.4 C 80.179086,44 80,43.820914 80,43.6 V 40.4 C 80,40.179086 80.179086,40 80.4,40 h 3.2 c 0.220914,0 0.4,0.179086 0.4,0.4 v 3.2 c 0,0.220914 -0.179086,0.4 -0.4,0.4 z m -8,0 H 72.4 C 72.179086,44 72,43.820914 72,43.6 V 32.4 C 72,32.179086 72.179086,32 72.4,32 h 3.2 c 0.220914,0 0.4,0.179086 0.4,0.4 v 3.2 c 0,0.220914 0.179086,0.4 0.4,0.4 h 3.2 c 0.220914,0 0.4,0.179086 0.4,0.4 v 3.2 C 80,39.820914 79.820914,40 79.6,40 H 76.4 C 76.179086,40 76,40.179086 76,40.4 v 3.2 c 0,0.220914 -0.179086,0.4 -0.4,0.4 z m -8,0 H 64.4 C 64.179086,44 64,43.820914 64,43.6 V 40.4 C 64,40.179086 64.179086,40 64.4,40 h 3.2 c 0.220914,0 0.4,0.179086 0.4,0.4 v 3.2 c 0,0.220914 -0.179086,0.4 -0.4,0.4 z m -24,0 H 16.4 C 16.179086,44 16,43.820914 16,43.6 V 16.4 C 16,16.179086 16.179086,16 16.4,16 h 27.2 c 0.220914,0 0.4,0.179086 0.4,0.4 V 43.6 C 44,43.820914 43.820914,44 43.6,44 Z M 144,39.6 V 20.4 c 0,-0.220914 -0.17909,-0.4 -0.4,-0.4 h -19.2 c -0.22091,0 -0.4,0.179086 -0.4,0.4 v 19.2 c 0,0.220914 0.17909,0.4 0.4,0.4 h 19.2 c 0.22091,0 0.4,-0.179086 0.4,-0.4 z M 87.6,40 H 84.4 C 84.179086,40 84,39.820914 84,39.6 V 36.4 C 84,36.179086 84.179086,36 84.4,36 h 3.2 c 0.220914,0 0.4,0.179086 0.4,0.4 v 3.2 C 88,39.820914 87.820914,40 87.6,40 Z M 40,39.6 V 20.4 C 40,20.179086 39.820914,20 39.6,20 H 20.4 C 20.179086,20 20,20.179086 20,20.4 v 19.2 c 0,0.220914 0.179086,0.4 0.4,0.4 H 39.6 C 39.820914,40 40,39.820914 40,39.6 Z M 139.6,36 H 128.4 C 128.17909,36 128,35.820914 128,35.6 V 24.4 c 0,-0.220914 0.17909,-0.4 0.4,-0.4 h 11.2 c 0.22091,0 0.4,0.179086 0.4,0.4 v 11.2 c 0,0.220914 -0.17909,0.4 -0.4,0.4 z m -36,0 h -3.2 c -0.22091,0 -0.4,-0.179086 -0.4,-0.4 v -3.2 c 0,-0.220914 0.17909,-0.4 0.4,-0.4 h 3.2 c 0.22091,0 0.4,0.179086 0.4,0.4 v 3.2 c 0,0.220914 -0.17909,0.4 -0.4,0.4 z m -20,0 H 80.4 C 80.179086,36 80,35.820914 80,35.6 V 32.4 C 80,32.179086 80.179086,32 80.4,32 h 3.2 c 0.220914,0 0.4,0.179086 0.4,0.4 v 3.2 c 0,0.220914 -0.179086,0.4 -0.4,0.4 z m -48,0 H 24.4 C 24.179086,36 24,35.820914 24,35.6 V 24.4 C 24,24.179086 24.179086,24 24.4,24 h 11.2 c 0.220914,0 0.4,0.179086 0.4,0.4 v 11.2 c 0,0.220914 -0.179086,0.4 -0.4,0.4 z m 80,-4 h -11.2 c -0.22091,0 -0.4,-0.179086 -0.4,-0.4 v -3.2 c 0,-0.220914 -0.17909,-0.4 -0.4,-0.4 h -3.2 c -0.22091,0 -0.4,-0.179086 -0.4,-0.4 v -3.2 c 0,-0.220914 0.17909,-0.4 0.4,-0.4 h 11.2 c 0.22091,0 0.4,-0.179086 0.4,-0.4 v -3.2 c 0,-0.220914 -0.17909,-0.4 -0.4,-0.4 h -3.2 c -0.22091,0 -0.4,-0.179086 -0.4,-0.4 v -3.2 c 0,-0.220914 0.17909,-0.4 0.4,-0.4 h 7.2 c 0.22091,0 0.4,0.179086 0.4,0.4 v 15.2 c 0,0.220914 -0.17909,0.4 -0.4,0.4 z m -20,0 H 92.4 C 92.179086,32 92,31.820914 92,31.6 V 28.4 C 92,28.179086 92.179086,28 92.4,28 h 3.2 c 0.220914,0 0.4,0.179086 0.4,0.4 v 3.2 c 0,0.220914 -0.179086,0.4 -0.4,0.4 z m -16,0 H 76.4 C 76.179086,32 76,31.820914 76,31.6 V 24.4 C 76,24.179086 76.179086,24 76.4,24 h 3.2 C 79.820914,24 80,23.820914 80,23.6 V 20.4 C 80,20.179086 79.820914,20 79.6,20 H 76.4 C 76.179086,20 76,19.820914 76,19.6 V 16.4 C 76,16.179086 76.179086,16 76.4,16 h 7.2 c 0.220914,0 0.4,0.179086 0.4,0.4 v 3.2 c 0,0.220914 0.179086,0.4 0.4,0.4 h 7.2 c 0.220914,0 0.4,0.179086 0.4,0.4 v 7.2 C 92,27.820914 91.820914,28 91.6,28 H 80.4 C 80.179086,28 80,28.179086 80,28.4 v 3.2 c 0,0.220914 -0.179086,0.4 -0.4,0.4 z m -8,0 H 64.4 C 64.179086,32 64,31.820914 64,31.6 V 20.4 C 64,20.179086 64.179086,20 64.4,20 h 7.2 c 0.220914,0 0.4,0.179086 0.4,0.4 v 11.2 c 0,0.220914 -0.179086,0.4 -0.4,0.4 z m -12,-4 H 48.4 C 48.179086,28 48,27.820914 48,27.6 V 16.4 C 48,16.179086 48.179086,16 48.4,16 h 3.2 c 0.220914,0 0.4,0.179086 0.4,0.4 v 7.2 c 0,0.220914 0.179086,0.4 0.4,0.4 h 7.2 c 0.220914,0 0.4,0.179086 0.4,0.4 v 3.2 c 0,0.220914 -0.179086,0.4 -0.4,0.4 z m 44,-8 h -3.2 c -0.22091,0 -0.4,-0.179086 -0.4,-0.4 v -3.2 c 0,-0.220914 0.17909,-0.4 0.4,-0.4 h 3.2 c 0.22091,0 0.4,0.179086 0.4,0.4 v 3.2 c 0,0.220914 -0.17909,0.4 -0.4,0.4 z m -44,0 H 56.4 C 56.179086,20 56,19.820914 56,19.6 V 16.4 C 56,16.179086 56.179086,16 56.4,16 h 3.2 c 0.220914,0 0.4,0.179086 0.4,0.4 v 3.2 c 0,0.220914 -0.179086,0.4 -0.4,0.4 z"
           id="path658" />
      </g>
    </g>
    <g
       aria-label="Indivisible
Tennesee"
       transform="rotate(-90)"
       id="text724"
       style="font-size:9.85211px;font-family:'Rehearsal Curve BRK';-inkscape-font-specification:'Rehearsal Curve BRK, Normal';fill-rule:evenodd;stroke-width:5.82614;stroke-linecap:round;paint-order:stroke fill markers">
      <path
         d="m -46.261909,67.201379 v 0.06896 q 0,0.266007 -0.18719,0.453197 -0.177338,0.177338 -0.443345,0.177338 h -4.147738 q -0.256155,0 -0.443345,-0.18719 -0.18719,-0.18719 -0.18719,-0.443345 v -0.06896 q 0,-0.334972 0.08867,-0.443345 0.03941,-0.05911 0.09852,0 0.07882,0.08867 0.305415,0.13793 0.236451,0.04926 0.51231,0.04926 h 0.591127 q 0.256154,0 0.443345,-0.18719 0.18719,-0.18719 0.18719,-0.443345 v -4.453153 q 0,-0.256155 -0.18719,-0.443345 Q -49.818521,61.231 -50.074675,61.231 h -0.591127 q -0.630535,0 -0.817725,0.187191 -0.05911,0.05911 -0.108373,0 -0.07882,-0.108374 -0.07882,-0.443345 v -0.06896 q 0,-0.256155 0.18719,-0.443345 0.18719,-0.18719 0.443345,-0.18719 h 4.147738 q 0.256155,0 0.443345,0.18719 0.18719,0.18719 0.18719,0.443345 v 0.06896 q 0,0.344823 -0.08867,0.443345 -0.03941,0.05911 -0.09852,0 -0.08867,-0.08867 -0.305415,-0.13793 -0.216747,-0.04926 -0.51231,-0.04926 h -0.591127 q -0.256154,0 -0.443345,0.187191 -0.18719,0.18719 -0.18719,0.443345 v 4.453153 q 0,0.256155 0.18719,0.443345 0.187191,0.18719 0.443345,0.18719 h 0.591127 q 0.305415,0 0.522162,-0.04926 0.216746,-0.04926 0.295563,-0.13793 0.05911,-0.05911 0.118225,0.02956 0.06896,0.07882 0.06896,0.413789 z"
         id="path3193" />
      <path
         d="m -40.10434,63.132458 v 4.137886 q 0,0.266007 -0.18719,0.453197 -0.177338,0.177338 -0.443345,0.177338 h -0.06896 q -0.266007,0 -0.394084,-0.04926 -0.03941,-0.07882 -0.04926,-0.128077 0.07882,-0.08867 0.128078,-0.305415 0.05911,-0.226599 0.05911,-0.51231 v -2.817704 q 0,-0.256154 -0.18719,-0.443345 -0.18719,-0.18719 -0.443345,-0.18719 h -2.236429 q -0.266007,0 -0.443344,0.18719 -0.177338,0.187191 -0.177338,0.443345 v 2.817704 q 0,0.275859 0.04926,0.502457 0.04926,0.226599 0.128078,0.315268 0.05911,0.05911 0,0.09852 -0.108374,0.07882 -0.443345,0.07882 h -0.06896 q -0.256155,0 -0.443345,-0.18719 -0.18719,-0.18719 -0.18719,-0.443345 v -4.137886 q 0,-0.266007 0.177338,-0.443345 0.18719,-0.18719 0.453197,-0.18719 h 4.147738 q 0.256155,0 0.443345,0.18719 0.18719,0.18719 0.18719,0.443345 z"
         id="path3195" />
      <path
         d="m -34.577306,60.275346 q 0.256155,0 0.443345,0.18719 0.18719,0.18719 0.18719,0.443345 v 6.364463 q 0,0.256155 -0.18719,0.443345 -0.18719,0.18719 -0.443345,0.18719 h -4.147738 q -0.266007,0 -0.453197,-0.177338 -0.177338,-0.18719 -0.177338,-0.453197 v -4.137886 q 0,-0.256155 0.18719,-0.443345 0.18719,-0.18719 0.443345,-0.18719 h 3.192083 q 0.256155,0 0.443345,-0.18719 0.18719,-0.187191 0.18719,-0.443345 v -0.600979 q 0,-0.285711 -0.04926,-0.502458 -0.04926,-0.216746 -0.13793,-0.305415 -0.07882,-0.07882 0.03941,-0.128078 0.128077,-0.05911 0.403936,-0.05911 h 0.06896 z m -0.32512,3.812766 q 0,-0.256154 -0.18719,-0.443345 -0.18719,-0.18719 -0.443345,-0.18719 h -2.236429 q -0.256154,0 -0.443345,0.18719 -0.177338,0.177338 -0.177338,0.443345 v 2.226577 q 0,0.256155 0.177338,0.443345 0.177338,0.18719 0.443345,0.18719 h 2.236429 q 0.256155,0 0.443345,-0.18719 0.18719,-0.18719 0.18719,-0.443345 v -2.226577 z"
         id="path3197" />
      <path
         d="m -32.242357,63.132458 v 3.773358 q 0,0.295563 0.04926,0.51231 0.04926,0.216746 0.137929,0.305415 0.05911,0.05911 0,0.09852 -0.108373,0.07882 -0.443345,0.07882 h -0.06896 q -0.266007,0 -0.453197,-0.177338 -0.177338,-0.18719 -0.177338,-0.453197 v -3.773358 q 0,-0.246303 -0.05911,-0.492606 -0.05911,-0.246302 -0.128077,-0.325119 -0.05911,-0.05911 0,-0.09852 0.108373,-0.07882 0.443345,-0.07882 h 0.06896 q 0.256155,0 0.443345,0.18719 0.18719,0.18719 0.18719,0.443345 z m -0.955654,-2.374359 q 0,-0.206894 0.137929,-0.344824 0.13793,-0.137929 0.334972,-0.137929 0.206894,0 0.344824,0.137929 0.137929,0.13793 0.137929,0.344824 0,0.206895 -0.147781,0.344824 -0.13793,0.128077 -0.334972,0.128077 -0.197042,0 -0.334972,-0.137929 -0.137929,-0.13793 -0.137929,-0.334972 z"
         id="path3199" />
      <path
         d="m -26.084783,63.132458 v 1.330035 q 0,0.275859 -0.128077,0.581274 -0.128078,0.305415 -0.315268,0.492606 l -1.812788,1.812788 q -0.177338,0.18719 -0.443345,0.18719 -0.266007,0 -0.453197,-0.18719 l -1.812788,-1.812788 q -0.18719,-0.197043 -0.315268,-0.502458 -0.128077,-0.305415 -0.128077,-0.571422 v -1.330035 q 0,-0.266007 0.177338,-0.443345 0.18719,-0.18719 0.453197,-0.18719 h 0.06896 q 0.334971,0 0.443345,0.07882 0.06896,0.04926 0,0.09852 -0.07882,0.08867 -0.128078,0.325119 -0.04926,0.236451 -0.04926,0.492606 v 0.443345 q 0,0.275859 0.128077,0.581274 0.128077,0.305416 0.315267,0.492606 l 0.847282,0.857133 q 0.18719,0.18719 0.453197,0.18719 0.266007,0 0.443345,-0.18719 l 0.857133,-0.857133 q 0.187191,-0.197042 0.315268,-0.502458 0.128077,-0.305415 0.128077,-0.571422 v -0.443345 q 0,-0.246303 -0.05911,-0.492606 -0.05911,-0.246302 -0.128078,-0.325119 -0.05911,-0.05911 0,-0.09852 0.108374,-0.07882 0.443345,-0.07882 h 0.06896 q 0.256155,0 0.443345,0.18719 0.18719,0.18719 0.18719,0.443345 z"
         id="path3201" />
      <path
         d="m -24.380369,63.132458 v 3.773358 q 0,0.295563 0.04926,0.51231 0.04926,0.216746 0.137929,0.305415 0.05911,0.05911 0,0.09852 -0.108373,0.07882 -0.443344,0.07882 h -0.06896 q -0.266007,0 -0.453197,-0.177338 -0.177338,-0.18719 -0.177338,-0.453197 v -3.773358 q 0,-0.246303 -0.05911,-0.492606 -0.05911,-0.246302 -0.128077,-0.325119 -0.05911,-0.05911 0,-0.09852 0.108373,-0.07882 0.443345,-0.07882 h 0.06896 q 0.256155,0 0.443345,0.18719 0.18719,0.18719 0.18719,0.443345 z m -0.955654,-2.374359 q 0,-0.206894 0.137929,-0.344824 0.13793,-0.137929 0.334972,-0.137929 0.206894,0 0.344824,0.137929 0.137929,0.13793 0.137929,0.344824 0,0.206895 -0.147781,0.344824 -0.13793,0.128077 -0.334972,0.128077 -0.197042,0 -0.334972,-0.137929 -0.137929,-0.13793 -0.137929,-0.334972 z"
         id="path3203" />
      <path
         d="m -18.222797,65.349182 v 1.921162 q 0,0.266007 -0.18719,0.453197 -0.177338,0.177338 -0.443345,0.177338 h -4.147738 q -0.256155,0 -0.443345,-0.18719 -0.18719,-0.18719 -0.18719,-0.443345 v -0.06896 q 0,-0.334972 0.08867,-0.443345 0.03941,-0.05911 0.09852,0 0.07882,0.08867 0.305415,0.13793 0.236451,0.04926 0.51231,0.04926 h 2.817704 q 0.256154,0 0.443345,-0.18719 0.18719,-0.18719 0.18719,-0.453197 0,-0.266007 -0.18719,-0.443345 -0.187191,-0.177338 -0.443345,-0.177338 h -3.192084 q -0.256155,0 -0.443345,-0.18719 -0.18719,-0.18719 -0.18719,-0.443345 v -1.921161 q 0,-0.266007 0.177338,-0.443345 0.18719,-0.18719 0.453197,-0.18719 h 4.147738 q 0.256155,0 0.443345,0.18719 0.18719,0.18719 0.18719,0.443345 v 0.06896 q 0,0.344824 -0.08867,0.443345 -0.03941,0.05911 -0.09852,0 -0.07882,-0.08867 -0.315267,-0.137929 -0.226599,-0.04926 -0.502458,-0.04926 h -2.817703 q -0.266007,0 -0.443345,0.18719 -0.177338,0.187191 -0.177338,0.453197 0,0.266007 0.177338,0.443345 0.177338,0.177338 0.443345,0.177338 h 3.192083 q 0.256155,0 0.443345,0.18719 0.18719,0.187191 0.18719,0.443345 z"
         id="path3205" />
      <path
         d="m -16.518381,63.132458 v 3.773358 q 0,0.295563 0.04926,0.51231 0.04926,0.216746 0.13793,0.305415 0.05911,0.05911 0,0.09852 -0.108374,0.07882 -0.443345,0.07882 h -0.06896 q -0.266007,0 -0.453197,-0.177338 -0.177338,-0.18719 -0.177338,-0.453197 v -3.773358 q 0,-0.246303 -0.05911,-0.492606 -0.05911,-0.246302 -0.128077,-0.325119 -0.05911,-0.05911 0,-0.09852 0.108373,-0.07882 0.443345,-0.07882 h 0.06896 q 0.256155,0 0.443345,0.18719 0.18719,0.18719 0.18719,0.443345 z m -0.955654,-2.374359 q 0,-0.206894 0.137929,-0.344824 0.13793,-0.137929 0.334972,-0.137929 0.206894,0 0.344824,0.137929 0.137929,0.13793 0.137929,0.344824 0,0.206895 -0.147781,0.344824 -0.13793,0.128077 -0.334972,0.128077 -0.197042,0 -0.334972,-0.137929 -0.137929,-0.13793 -0.137929,-0.334972 z"
         id="path3207" />
      <path
         d="m -10.991344,62.501923 q 0.266007,0 0.443345,0.18719 0.18719,0.177338 0.18719,0.443345 v 4.137886 q 0,0.256155 -0.18719,0.443345 -0.18719,0.18719 -0.443345,0.18719 h -4.147738 q -0.266007,0 -0.453197,-0.177338 -0.177338,-0.18719 -0.177338,-0.453197 v -6.364463 q 0,-0.256155 0.18719,-0.443345 0.18719,-0.18719 0.443345,-0.18719 h 0.06897 q 0.334972,0 0.443345,0.07882 0.05911,0.04926 0,0.108373 -0.07882,0.07882 -0.128078,0.305415 -0.04926,0.216747 -0.04926,0.502458 v 0.600979 q 0,0.256154 0.177338,0.443345 0.177338,0.18719 0.443345,0.18719 h 3.192083 z m -0.325119,1.586189 q 0,-0.256154 -0.18719,-0.443345 -0.187191,-0.18719 -0.443345,-0.18719 h -2.236429 q -0.256155,0 -0.443345,0.18719 -0.177338,0.177338 -0.177338,0.443345 v 2.226577 q 0,0.256155 0.177338,0.443345 0.177338,0.18719 0.443345,0.18719 h 2.236429 q 0.256154,0 0.443345,-0.18719 0.18719,-0.18719 0.18719,-0.443345 v -2.226577 z"
         id="path3209" />
      <path
         d="m -9.3558923,60.275346 h 0.068965 q 0.2561549,0 0.4433449,0.18719 0.1871901,0.18719 0.1871901,0.443345 v 5.999935 q 0,0.295563 0.049261,0.51231 0.049261,0.216746 0.1379295,0.305415 0.059113,0.05911 0,0.09852 -0.1083732,0.07882 -0.4433449,0.07882 h -0.068965 q -0.266007,0 -0.4531971,-0.177338 -0.1773379,-0.18719 -0.1773379,-0.453197 v -5.999935 q 0,-0.256155 -0.059113,-0.492606 -0.059113,-0.246302 -0.1280774,-0.315267 -0.059113,-0.06896 0,-0.108373 0.1083732,-0.07882 0.4433449,-0.07882 z"
         id="path3211" />
      <path
         d="m -6.3214393,65.684154 q -0.2660069,0 -0.4433449,0.177338 -0.177338,0.177338 -0.177338,0.443345 0,0.266007 0.177338,0.453197 0.177338,0.18719 0.4433449,0.18719 h 2.8177035 q 0.2758591,0 0.5024576,-0.04926 0.2364506,-0.04926 0.3152675,-0.13793 0.059113,-0.05911 0.098521,0 0.088669,0.108373 0.088669,0.443345 v 0.06896 q 0,0.256155 -0.1871901,0.443345 -0.1871901,0.18719 -0.4433449,0.18719 h -4.1477383 q -0.266007,0 -0.4531971,-0.177338 -0.1773379,-0.18719 -0.1773379,-0.453197 v -4.137886 q 0,-0.256155 0.18719,-0.443345 0.1871901,-0.18719 0.443345,-0.18719 h 4.1477383 q 0.2660069,0 0.4433449,0.18719 0.1871901,0.177338 0.1871901,0.443345 v 1.921161 q 0,0.256155 -0.1871901,0.443345 -0.1871901,0.18719 -0.4433449,0.18719 h -3.1920837 z m 2.236429,-0.965507 q 0.2561549,0 0.4433449,-0.177338 0.1871901,-0.177338 0.1871901,-0.443345 0,-0.266006 -0.1871901,-0.453197 -0.18719,-0.18719 -0.4433449,-0.18719 h -2.236429 q -0.2561548,0 -0.4433449,0.18719 -0.177338,0.177338 -0.177338,0.443345 0,0.266007 0.177338,0.453197 0.1871901,0.177338 0.4433449,0.177338 z"
         id="path3213" />
      <path
         d="m -47.266824,73.546138 h -0.591127 q -0.256154,0 -0.443345,0.18719 -0.18719,0.18719 -0.18719,0.443345 v 5.04428 q 0,0.246303 0.05911,0.492606 0.05911,0.246302 0.128077,0.325119 0.05911,0.05911 0,0.09852 -0.108373,0.07882 -0.443345,0.07882 h -0.06896 q -0.256155,0 -0.443345,-0.18719 -0.18719,-0.18719 -0.18719,-0.443345 v -5.408808 q 0,-0.256155 -0.18719,-0.443345 -0.187191,-0.18719 -0.443345,-0.18719 h -0.591127 q -0.630535,0 -0.817725,0.18719 -0.05911,0.05911 -0.108373,0 -0.07882,-0.108373 -0.07882,-0.443345 v -0.06897 q 0,-0.256155 0.18719,-0.443345 0.18719,-0.18719 0.443345,-0.18719 h 4.147738 q 0.256155,0 0.443345,0.18719 0.18719,0.18719 0.18719,0.443345 v 0.06897 q 0,0.344824 -0.08867,0.443345 -0.03941,0.05911 -0.09852,0 -0.08867,-0.08867 -0.305415,-0.13793 -0.216747,-0.04926 -0.51231,-0.04926 z"
         id="path3215" />
      <path
         d="m -44.547639,77.999292 q -0.266007,0 -0.443345,0.177338 -0.177338,0.177338 -0.177338,0.443344 0,0.266007 0.177338,0.453198 0.177338,0.18719 0.443345,0.18719 h 2.817704 q 0.275859,0 0.502457,-0.04926 0.236451,-0.04926 0.315268,-0.137929 0.05911,-0.05911 0.09852,0 0.08867,0.108373 0.08867,0.443344 v 0.06897 q 0,0.256155 -0.18719,0.443345 -0.18719,0.18719 -0.443345,0.18719 h -4.147739 q -0.266007,0 -0.453197,-0.177338 -0.177338,-0.18719 -0.177338,-0.453197 v -4.137886 q 0,-0.256155 0.187191,-0.443345 0.18719,-0.18719 0.443344,-0.18719 h 4.147739 q 0.266007,0 0.443345,0.18719 0.18719,0.177338 0.18719,0.443345 v 1.921162 q 0,0.256154 -0.18719,0.443344 -0.18719,0.187191 -0.443345,0.187191 h -3.192084 z m 2.236429,-0.965507 q 0.256155,0 0.443345,-0.177338 0.18719,-0.177338 0.18719,-0.443345 0,-0.266007 -0.18719,-0.453197 -0.18719,-0.18719 -0.443345,-0.18719 h -2.236429 q -0.256155,0 -0.443345,0.18719 -0.177338,0.177338 -0.177338,0.443345 0,0.266007 0.177338,0.453197 0.18719,0.177338 0.443345,0.177338 z"
         id="path3217" />
      <path
         d="m -34.567452,75.447595 v 4.137886 q 0,0.266007 -0.18719,0.453197 -0.177338,0.177338 -0.443345,0.177338 h -0.06897 q -0.266007,0 -0.394084,-0.04926 -0.03941,-0.07882 -0.04926,-0.128078 0.07882,-0.08867 0.128078,-0.305415 0.05911,-0.226599 0.05911,-0.51231 V 76.40325 q 0,-0.256155 -0.187191,-0.443345 -0.18719,-0.18719 -0.443344,-0.18719 h -2.236429 q -0.266007,0 -0.443345,0.18719 -0.177338,0.18719 -0.177338,0.443345 v 2.817703 q 0,0.275859 0.04926,0.502458 0.04926,0.226598 0.128078,0.315267 0.05911,0.05911 0,0.09852 -0.108374,0.07882 -0.443345,0.07882 h -0.06896 q -0.256155,0 -0.443345,-0.18719 -0.18719,-0.18719 -0.18719,-0.443345 v -4.137886 q 0,-0.266007 0.177338,-0.443345 0.18719,-0.18719 0.453197,-0.18719 h 4.147738 q 0.256155,0 0.443345,0.18719 0.18719,0.18719 0.18719,0.443345 z"
         id="path3219" />
      <path
         d="m -28.409883,75.447595 v 4.137886 q 0,0.266007 -0.18719,0.453197 -0.177338,0.177338 -0.443345,0.177338 h -0.06897 q -0.266007,0 -0.394084,-0.04926 -0.03941,-0.07882 -0.04926,-0.128078 0.07882,-0.08867 0.128078,-0.305415 0.05911,-0.226599 0.05911,-0.51231 V 76.40325 q 0,-0.256155 -0.18719,-0.443345 -0.18719,-0.18719 -0.443345,-0.18719 h -2.236428 q -0.266007,0 -0.443345,0.18719 -0.177338,0.18719 -0.177338,0.443345 v 2.817703 q 0,0.275859 0.04926,0.502458 0.04926,0.226598 0.128078,0.315267 0.05911,0.05911 0,0.09852 -0.108374,0.07882 -0.443345,0.07882 h -0.06896 q -0.256155,0 -0.443345,-0.18719 -0.18719,-0.18719 -0.18719,-0.443345 v -4.137886 q 0,-0.266007 0.177338,-0.443345 0.18719,-0.18719 0.453197,-0.18719 h 4.147738 q 0.256155,0 0.443345,0.18719 0.18719,0.18719 0.18719,0.443345 z"
         id="path3221" />
      <path
         d="m -26.074934,77.999292 q -0.266006,0 -0.443344,0.177338 -0.177338,0.177338 -0.177338,0.443344 0,0.266007 0.177338,0.453198 0.177338,0.18719 0.443344,0.18719 h 2.817704 q 0.275859,0 0.502458,-0.04926 0.23645,-0.04926 0.315267,-0.137929 0.05911,-0.05911 0.09852,0 0.08867,0.108373 0.08867,0.443344 v 0.06897 q 0,0.256155 -0.18719,0.443345 -0.18719,0.18719 -0.443345,0.18719 h -4.147738 q -0.266007,0 -0.453197,-0.177338 -0.177338,-0.18719 -0.177338,-0.453197 v -4.137886 q 0,-0.256155 0.18719,-0.443345 0.18719,-0.18719 0.443345,-0.18719 h 4.147738 q 0.266007,0 0.443345,0.18719 0.18719,0.177338 0.18719,0.443345 v 1.921162 q 0,0.256154 -0.18719,0.443344 -0.18719,0.187191 -0.443345,0.187191 h -3.192084 z m 2.236429,-0.965507 q 0.256155,0 0.443345,-0.177338 0.18719,-0.177338 0.18719,-0.443345 0,-0.266007 -0.18719,-0.453197 -0.18719,-0.18719 -0.443345,-0.18719 h -2.236429 q -0.256154,0 -0.443344,0.18719 -0.177338,0.177338 -0.177338,0.443345 0,0.266007 0.177338,0.453197 0.18719,0.177338 0.443344,0.177338 z"
         id="path3223" />
      <path
         d="m -16.094745,77.66432 v 1.921161 q 0,0.266007 -0.18719,0.453197 -0.177338,0.177338 -0.443345,0.177338 h -4.147738 q -0.256155,0 -0.443345,-0.18719 -0.18719,-0.18719 -0.18719,-0.443345 v -0.06897 q 0,-0.334971 0.08867,-0.443344 0.03941,-0.05911 0.09852,0 0.07882,0.08867 0.305415,0.137929 0.236451,0.04926 0.51231,0.04926 h 2.817703 q 0.256155,0 0.443345,-0.18719 0.18719,-0.187191 0.18719,-0.453198 0,-0.266006 -0.18719,-0.443344 -0.18719,-0.177338 -0.443345,-0.177338 h -3.192083 q -0.256155,0 -0.443345,-0.187191 -0.18719,-0.18719 -0.18719,-0.443344 v -1.921162 q 0,-0.266007 0.177338,-0.443345 0.18719,-0.18719 0.453197,-0.18719 h 4.147738 q 0.256155,0 0.443345,0.18719 0.18719,0.18719 0.18719,0.443345 v 0.06896 q 0,0.344824 -0.08867,0.443345 -0.03941,0.05911 -0.09852,0 -0.07882,-0.08867 -0.315268,-0.13793 -0.226598,-0.04926 -0.502457,-0.04926 h -2.817704 q -0.266007,0 -0.443345,0.18719 -0.177338,0.18719 -0.177338,0.453197 0,0.266007 0.177338,0.443345 0.177338,0.177338 0.443345,0.177338 h 3.192084 q 0.256155,0 0.443345,0.18719 0.18719,0.18719 0.18719,0.443345 z"
         id="path3225" />
      <path
         d="m -13.759794,77.999292 q -0.266007,0 -0.443345,0.177338 -0.177338,0.177338 -0.177338,0.443344 0,0.266007 0.177338,0.453198 0.177338,0.18719 0.443345,0.18719 h 2.817704 q 0.275859,0 0.502457,-0.04926 0.236451,-0.04926 0.315268,-0.137929 0.05911,-0.05911 0.09852,0 0.088669,0.108373 0.088669,0.443344 v 0.06897 q 0,0.256155 -0.1871899,0.443345 -0.18719,0.18719 -0.443345,0.18719 h -4.147738 q -0.266007,0 -0.453197,-0.177338 -0.177338,-0.18719 -0.177338,-0.453197 v -4.137886 q 0,-0.256155 0.18719,-0.443345 0.18719,-0.18719 0.443345,-0.18719 h 4.147738 q 0.266007,0 0.443345,0.18719 0.1871899,0.177338 0.1871899,0.443345 v 1.921162 q 0,0.256154 -0.1871899,0.443344 -0.18719,0.187191 -0.443345,0.187191 h -3.192084 z m 2.236429,-0.965507 q 0.256155,0 0.443345,-0.177338 0.18719,-0.177338 0.18719,-0.443345 0,-0.266007 -0.18719,-0.453197 -0.18719,-0.18719 -0.443345,-0.18719 h -2.236429 q -0.256155,0 -0.443345,0.18719 -0.177338,0.177338 -0.177338,0.443345 0,0.266007 0.177338,0.453197 0.18719,0.177338 0.443345,0.177338 z"
         id="path3227" />
      <path
         d="m -7.6022277,77.999292 q -0.2660069,0 -0.4433449,0.177338 -0.177338,0.177338 -0.177338,0.443344 0,0.266007 0.177338,0.453198 0.177338,0.18719 0.4433449,0.18719 h 2.8177035 q 0.275859,0 0.5024576,-0.04926 0.2364506,-0.04926 0.3152675,-0.137929 0.059113,-0.05911 0.098521,0 0.088669,0.108373 0.088669,0.443344 v 0.06897 q 0,0.256155 -0.1871901,0.443345 -0.1871901,0.18719 -0.443345,0.18719 h -4.1477382 q -0.266007,0 -0.4531971,-0.177338 -0.177338,-0.18719 -0.177338,-0.453197 v -4.137886 q 0,-0.256155 0.1871901,-0.443345 0.1871901,-0.18719 0.443345,-0.18719 h 4.1477382 q 0.266007,0 0.443345,0.18719 0.1871901,0.177338 0.1871901,0.443345 v 1.921162 q 0,0.256154 -0.1871901,0.443344 -0.1871901,0.187191 -0.443345,0.187191 h -3.1920836 z m 2.236429,-0.965507 q 0.2561548,0 0.4433449,-0.177338 0.1871901,-0.177338 0.1871901,-0.443345 0,-0.266007 -0.1871901,-0.453197 -0.1871901,-0.18719 -0.4433449,-0.18719 h -2.236429 q -0.2561548,0 -0.4433449,0.18719 -0.177338,0.177338 -0.177338,0.443345 0,0.266007 0.177338,0.453197 0.1871901,0.177338 0.4433449,0.177338 z"
         id="path3229" />
    </g>
  </g>
</svg>
