<?xml version="1.0" standalone="no"?>
<!--Generator: Adobe Illustrator 9.0, SVG Export Plug-In-->
<svg xmlns="http://www.w3.org/2000/svg" viewBox="0 0 48 48">
  <metadata/>
  <defs>
    <radialGradient id="a" cx="18.9292" cy="17.7773" r="22.4782" fx="18.9292" fy="17.7773" gradientUnits="userSpaceOnUse" gradientTransform="matrix(1.201572,0.000000,0.000000,1.201572,-4.857892,-6.551096)">
      <stop offset="0" stop-color="#fed182"/>
      <stop offset="0.2809" stop-color="#ffb310"/>
      <stop offset="1" stop-color="#996e04"/>
    </radialGradient>
    <radialGradient id="b" cx="25.0527" cy="39.5928" r="15.7572" fx="25.0527" fy="39.5928" gradientUnits="userSpaceOnUse" gradientTransform="matrix(1.201572,0.000000,0.000000,1.201572,-4.857892,-6.551096)">
      <stop offset="0" stop-color="#595959"/>
      <stop offset="1" stop-color="#000"/>
    </radialGradient>
  </defs>
  <path style="marker:none" d="M 41.652893 41.223141 A 17.355371 5.7851238 0 1 1  6.9421501,41.223141 A 17.355371 5.7851238 0 1 1  41.652893 41.223141 z" transform="matrix(1.00369,0,0,1.368514,-0.25496,-18.64965)" opacity=".2" color="#000" fill="#000" fill-opacity="1" fill-rule="nonzero" stroke="none" stroke-width=".41612154" stroke-linecap="round" stroke-linejoin="round" marker-start="none" marker-mid="none" marker-end="none" stroke-miterlimit="4" stroke-dasharray="none" stroke-dashoffset="0" stroke-opacity="1" visibility="visible" display="inline" overflow="visible"/>
  <path d="M 42.604202,22.647104 C 42.604202,32.860466 34.313355,41.151312 24.099993,41.151312 C 13.886631,41.151312 5.5957844,32.860466 5.5957844,22.647104 C 5.5957844,12.433742 13.886631,4.1428918 24.099993,4.1428918 C 34.313355,4.1428918 42.604202,12.433742 42.604202,22.647104 L 42.604202,22.647104 z " fill="url(#a)" fill-rule="evenodd" stroke="#000" stroke-width="1.9999995" stroke-miterlimit="4" stroke-dasharray="none" stroke-opacity="1"/>
  <path d="M 33.472264,32.980631 C 33.472264,36.345034 29.386918,38.988493 24.460472,38.988493 C 19.534025,38.988493 15.448680,36.345034 15.448680,32.980631 C 15.448680,29.616229 19.534025,26.972770 24.460472,26.972770 C 29.386918,26.972770 33.472264,29.616229 33.472264,32.980631 z " opacity=".35999998" fill="#fff" fill-rule="nonzero" stroke="none" stroke-miterlimit="4"/>
  <path d="M 33.472264,32.019374 C 33.472264,35.383776 29.386918,38.027235 24.460472,38.027235 C 19.534025,38.027235 15.448680,35.383776 15.448680,32.019374 C 15.448680,28.654971 19.534025,26.011512 24.460472,26.011512 C 29.386918,26.011512 33.472264,28.654971 33.472264,32.019374 z " fill="url(#b)" fill-rule="nonzero" stroke="none" stroke-miterlimit="4"/>
  <g transform="matrix(1.201572,0.000000,0.000000,1.201572,-4.857892,-6.551096)" fill="#fff" fill-rule="nonzero" stroke="none" stroke-miterlimit="4">
    <path d="M 21.100000,19.000000 C 21.100000,21.000000 20.200000,22.600000 19.100000,22.600000 C 18.000000,22.600000 17.000000,21.000000 17.000000,19.000000 C 17.000000,17.000000 17.900000,15.400000 19.000000,15.400000 C 20.100000,15.400000 21.000000,17.000000 21.000000,19.000000 L 21.100000,19.000000 z " opacity=".35999998"/>
    <path d="M 30.800000,19.000000 C 30.800000,21.000000 29.900000,22.600000 28.800000,22.600000 C 27.700000,22.600000 26.800000,21.000000 26.800000,19.000000 C 26.800000,17.000000 27.700000,15.400000 28.800000,15.400000 C 29.900000,15.400000 30.800000,17.000000 30.800000,19.000000 z " opacity=".35999998"/>
    <path d="M 21.100000,18.500000 C 21.100000,20.500000 20.200000,22.100000 19.100000,22.100000 C 18.000000,22.100000 17.100000,20.500000 17.100000,18.500000 C 17.100000,16.500000 18.000000,14.900000 19.100000,14.900000 C 20.200000,14.900000 21.100000,16.500000 21.100000,18.500000 z " fill="#000"/>
    <path d="M 30.800000,18.500000 C 30.800000,20.500000 29.900000,22.100000 28.800000,22.100000 C 27.700000,22.100000 26.800000,20.500000 26.800000,18.500000 C 26.800000,16.500000 27.700000,14.900000 28.800000,14.900000 C 29.900000,14.900000 30.800000,16.500000 30.800000,18.500000 z " fill="#000"/>
  </g>
</svg>
