<?xml version="1.0" encoding="UTF-8" standalone="no"?>
<!-- Created with Inkscape (http://www.inkscape.org/) -->
<svg
   xmlns:dc="http://purl.org/dc/elements/1.1/"
   xmlns:cc="http://web.resource.org/cc/"
   xmlns:rdf="http://www.w3.org/1999/02/22-rdf-syntax-ns#"
   xmlns:svg="http://www.w3.org/2000/svg"
   xmlns="http://www.w3.org/2000/svg"
   xmlns:sodipodi="http://sodipodi.sourceforge.net/DTD/sodipodi-0.dtd"
   xmlns:inkscape="http://www.inkscape.org/namespaces/inkscape"
   width="100%" height="100%"
   viewBox="0 0 233.85812 306.42755"
   id="svg7517"
   sodipodi:version="0.32"
   inkscape:version="0.44.1"
   version="1.0"
   sodipodi:docbase="/home/will/sites/himinbi.org/odin/frontpanel"
   sodipodi:docname="max232_layout.svg">
  <defs>
    <style type="text/css">
      line, polygon, path, .trace { stroke: black; }
      #body, .brace, .trace { fill: none; }
      .inverter { fill: white; }
      text { font-size: 7px; }
      .subscript { font-size: 6px; }
    </style>
  </defs>
  <sodipodi:namedview
     id="base"
     pagecolor="#ffffff"
     bordercolor="#666666"
     borderopacity="1.0"
     gridtolerance="10000"
     guidetolerance="10"
     objecttolerance="10"
     inkscape:pageopacity="0.0"
     inkscape:pageshadow="2"
     inkscape:zoom="0.35"
     inkscape:cx="375"
     inkscape:cy="520"
     inkscape:document-units="px"
     inkscape:current-layer="layer1"
     inkscape:window-width="887"
     inkscape:window-height="620"
     inkscape:window-x="21"
     inkscape:window-y="90" />
  <metadata
     id="metadata7522">
    <rdf:RDF>
      <cc:Work
         rdf:about="">
        <dc:format>image/svg+xml</dc:format>
        <dc:type
           rdf:resource="http://purl.org/dc/dcmitype/StillImage" />
      </cc:Work>
    </rdf:RDF>
  </metadata>
  <g
     inkscape:label="Layer 1"
     inkscape:groupmode="layer"
     id="layer1"
     transform="translate(-258.0709,-379.1484)">
    <polygon id="body"
       points="376.23,412.19 461.98,412.19 461.98,608.38 376.23,608.38 376.23,412.19 "
       transform="matrix(1.249992,0,0,-1.249992,-152.4798,1184.932)" />
    <line y2="685.22284" x2="374.64191" y1="685.22284" x1="378.79181" />
    <line y2="679.73535" x2="370.97937" y1="679.73535" x1="382.45435" />
    <line y2="682.48535" x2="372.62939" y1="682.48535" x1="380.80432" />
    <line y2="635.27313" x2="392.82925" y1="629.67316" x1="392.82925" />
    <line y2="637.34808" x2="396.66675" y1="635.21063" x1="392.82925" />
    <line y2="640.51056" x2="389.04175" y1="637.34808" x1="396.66675" />
    <line y2="643.74805" x2="396.66675" y1="640.51056" x1="389.04175" />
    <line y2="646.92303" x2="389.04175" y1="643.74805" x1="396.66675" />
    <line y2="650.16052" x2="396.66675" y1="646.92303" x1="389.04175" />
    <line y2="653.33551" x2="389.04175" y1="650.16052" x1="396.66675" />
    <line y2="655.47302" x2="392.82925" y1="653.33551" x1="389.04175" />
    <line y2="658.32294" x2="392.82925" y1="655.41052" x1="392.82925" />
    <line y2="663.87292" x2="391.22925" y1="663.87292" x1="395.37924" />
    <line y2="658.3855" x2="387.5668" y1="658.3855" x1="399.04172" />
    <line y2="661.12299" x2="389.21677" y1="661.12299" x1="397.39169" />
    <line y2="595.49841" x2="393.86673" y1="589.89844" x1="393.86673" />
    <line y2="597.57336" x2="397.71671" y1="595.43585" x1="393.86673" />
    <line y2="600.74835" x2="390.07922" y1="597.57336" x1="397.71671" />
    <line y2="603.98578" x2="397.71671" y1="600.74835" x1="390.07922" />
    <line y2="607.16083" x2="390.07922" y1="603.98578" x1="397.71671" />
    <line y2="610.38574" x2="397.71671" y1="607.16083" x1="390.07922" />
    <line y2="613.57324" x2="390.07922" y1="610.38574" x1="397.71671" />
    <line y2="615.69824" x2="393.86673" y1="613.57324" x1="390.07922" />
    <line y2="618.56073" x2="393.86673" y1="615.64825" x1="393.86673" />
    <line y2="624.11072" x2="391.81674" y1="624.11072" x1="395.97919" />
    <line y2="618.61072" x2="388.21674" y1="618.61072" x1="399.69168" />
    <line y2="621.36072" x2="389.86676" y1="621.36072" x1="398.0542" />
    <line y2="669.73541" x2="376.7168" y1="679.79785" x1="376.7168" />
    <line y2="492.76154" x2="435.47894" y1="492.76154" x1="439.62894" />
    <line y2="487.26154" x2="431.86652" y1="487.26154" x1="443.35394" />
    <line y2="490.01157" x2="433.51648" y1="490.01157" x1="441.70395" />
    <line y2="533.96124" x2="356.44202" y1="528.79883" x1="356.44202" />
    <line y2="536.03625" x2="360.27945" y1="533.89874" x1="356.44202" />
    <line y2="539.19867" x2="352.65448" y1="536.03625" x1="360.27945" />
    <line y2="542.43622" x2="360.27945" y1="539.19867" x1="352.65448" />
    <line y2="545.61121" x2="352.65448" y1="542.43622" x1="360.27945" />
    <line y2="548.84869" x2="360.27945" y1="545.61121" x1="352.65448" />
    <line y2="552.02368" x2="352.65448" y1="548.84869" x1="360.27945" />
    <line y2="554.16113" x2="356.44202" y1="552.02368" x1="352.65448" />
    <line y2="559.69861" x2="356.44202" y1="554.09863" x1="356.44202" />
    <line y2="495.48651" x2="356.44202" y1="490.54904" x1="356.44202" />
    <line y2="497.56146" x2="360.27945" y1="495.42404" x1="356.44202" />
    <line y2="500.73651" x2="352.65448" y1="497.56146" x1="360.27945" />
    <line y2="503.97394" x2="360.27945" y1="500.73651" x1="352.65448" />
    <line y2="507.14896" x2="352.65448" y1="503.97394" x1="360.27945" />
    <line y2="510.3739" x2="360.27945" y1="507.14896" x1="352.65448" />
    <line y2="513.13641" x2="352.65448" y1="510.3739" x1="360.27945" />
    <line y2="515.27393" x2="356.44202" y1="513.13641" x1="352.65448" />
    <line y2="520.8114" x2="356.44202" y1="515.21136" x1="356.44202" />
    <line y2="520.98639" x2="306.19232" y1="520.96136" x1="436.50397" />
    <polygon class="inverter"
       points="413.96,522.01 429.5,531.2 413.96,539.99 413.96,522.01 "
       transform="matrix(1.249992,0,0,-1.249992,-152.4798,1184.932)" />
    <path class="inverter"
       d="M 384.2043,520.97385 L 384.2043,520.88636 L 384.2168,520.79886 L 384.2293,520.72385 L 384.2418,520.63636 L 384.2668,520.54886 L 384.2918,520.47385 L 384.3168,520.39886 L 384.3543,520.32386 L 384.3918,520.24885 L 384.4293,520.17386 L 384.4793,520.09886 L 384.5293,520.03636 L 384.57929,519.96136 L 384.6293,519.89886 L 384.69179,519.83636 L 384.7543,519.77386 L 384.81679,519.72386 L 384.8793,519.66136 L 384.95429,519.61136 L 385.02929,519.56136 L 385.1043,519.52387 L 385.17929,519.47386 L 385.25429,519.43636 L 385.32929,519.41137 L 385.41679,519.37386 L 385.50429,519.34886 L 385.59179,519.32386 L 385.66679,519.29887 L 385.76679,519.28637 L 385.85429,519.27387 L 385.94178,519.27387 L 386.02929,519.27387 C 387.00428,519.27387 387.86678,520.06136 387.86678,520.97385 C 387.86678,521.88635 387.00428,522.68634 386.02929,522.68634 C 385.05429,522.68634 384.2043,521.88635 384.2043,520.97385 z " />
    <polygon
        points="368.8,531.12 364.21,529.7 364.21,532.64 368.8,531.12 "
       transform="matrix(1.249992,0,0,-1.249992,-152.4798,1184.932)" />
    <polygon
       points="474.6,531.12 470.01,529.7 470.01,532.64 474.6,531.12 "
       transform="matrix(1.249992,0,0,-1.249992,-152.4798,1184.932)" />
    <line y2="560.21112" x2="306.19232" y1="560.1861" x1="436.50397" />
    <polygon class="inverter"
       points="413.96,490.63 429.5,499.81 413.96,508.95 413.96,490.63 "
       transform="matrix(1.249992,0,0,-1.249992,-152.4798,1184.932)" />
    <path class="inverter"
       d="M 384.2043,560.1986 L 384.2043,560.1111 L 384.2168,560.03611 L 384.2293,559.9486 L 384.2418,559.8611 L 384.2668,559.78611 L 384.2918,559.69861 L 384.3168,559.62361 L 384.3543,559.54861 L 384.3918,559.47361 L 384.4293,559.39861 L 384.4793,559.32361 L 384.5293,559.26111 L 384.57929,559.18611 L 384.6293,559.12361 L 384.69179,559.06111 L 384.7543,558.99861 L 384.81679,558.94861 L 384.8793,558.88611 L 384.95429,558.83611 L 385.02929,558.78611 L 385.1043,558.74862 L 385.17929,558.69861 L 385.25429,558.66111 L 385.32929,558.62361 L 385.41679,558.59861 L 385.50429,558.57361 L 385.59179,558.54861 L 385.66679,558.52362 L 385.76679,558.51112 L 385.85429,558.49862 L 385.94178,558.49862 L 386.02929,558.48611 C 387.00428,558.48611 387.86678,559.28611 387.86678,560.1986 C 387.86678,561.1236 387.00428,561.91109 386.02929,561.91109 C 385.05429,561.91109 384.2043,561.1236 384.2043,560.1986 z " />
    <polygon
       points="368.8,499.74 364.21,498.32 364.21,501.25 368.8,499.74 "
       transform="matrix(1.249992,0,0,-1.249992,-152.4798,1184.932)" />
    <polygon
       points="474.6,499.74 470.01,498.32 470.01,501.25 474.6,499.74 "
       transform="matrix(1.249992,0,0,-1.249992,-152.4798,1184.932)" />
    <line y2="589.84839" x2="436.50397" y1="589.87341" x1="306.19232" />
    <polygon class="inverter"
       points="428.68,466.9 413.15,476.09 428.68,485.22 428.68,466.9 "
       transform="matrix(1.249992,0,0,-1.249992,-152.4798,1184.932)" />
    <path class="inverter"
       d="M 364.14193,589.86091 L 364.12943,589.77342 L 364.12943,589.68591 L 364.11693,589.61091 L 364.10443,589.52342 L 364.07942,589.43592 L 364.05443,589.36091 L 364.01693,589.28592 L 363.99193,589.21092 L 363.95442,589.13592 L 363.90443,589.06092 L 363.86693,588.98592 L 363.81693,588.91092 L 363.76693,588.84842 L 363.70443,588.78592 L 363.64193,588.72342 L 363.59193,588.66092 L 363.51693,588.59842 L 363.45443,588.54842 L 363.37943,588.49843 L 363.31693,588.44842 L 363.24193,588.39842 L 363.15443,588.36092 L 363.07943,588.32342 L 363.00444,588.28592 L 362.91693,588.26093 L 362.82943,588.22342 L 362.75444,588.19842 L 362.66694,588.18592 L 362.56693,588.17342 L 362.47944,588.16093 L 362.39194,588.14843 L 362.30444,588.14843 C 361.32945,588.14843 360.46695,588.94842 360.46695,589.86091 C 360.46695,590.77341 361.32945,591.5734 362.30444,591.5734 C 363.27943,591.5734 364.14193,590.77341 364.14193,589.86091 z " />
    <polygon
       points="470.01,476.01 474.6,474.6 474.6,477.53 470.01,476.01 "
       transform="matrix(1.249992,0,0,-1.249992,-152.4798,1184.932)" />
    <polygon
       points="364.21,476.01 368.8,474.6 368.8,477.53 364.21,476.01 "
       transform="matrix(1.249992,0,0,-1.249992,-152.4798,1184.932)" />
    <line y2="629.82318" x2="436.50397" y1="629.84814" x1="306.19232" />
    <polygon class="inverter"
       points="428.68,434.92 413.15,444.1 428.68,453.23 428.68,434.92 "
       transform="matrix(1.249992,0,0,-1.249992,-152.4798,1184.932)" />
    <path class="inverter"
       d="M 364.14193,629.84815 L 364.12943,629.76066 L 364.12943,629.67316 L 364.11693,629.58566 L 364.10443,629.51066 L 364.07942,629.42316 L 364.05443,629.34816 L 364.01693,629.26066 L 363.99193,629.18566 L 363.95442,629.11066 L 363.90443,629.03566 L 363.86693,628.96066 L 363.81693,628.89817 L 363.76693,628.83566 L 363.70443,628.76067 L 363.64193,628.69816 L 363.59193,628.63567 L 363.51693,628.58566 L 363.45443,628.53567 L 363.37943,628.47316 L 363.31693,628.42317 L 363.24193,628.38567 L 363.15443,628.33567 L 363.07943,628.29817 L 363.00444,628.27317 L 362.91693,628.23566 L 362.82943,628.21067 L 362.75444,628.18567 L 362.66694,628.16067 L 362.56693,628.14817 L 362.47944,628.13567 L 362.39194,628.13567 L 362.30444,628.12317 C 361.32945,628.12317 360.46695,628.92316 360.46695,629.84815 C 360.46695,630.76065 361.32945,631.54815 362.30444,631.54815 C 363.27943,631.54815 364.14193,630.76065 364.14193,629.84815 z " />
    <polygon
       points="470.01,444.03 474.6,442.61 474.6,445.54 470.01,444.03 "
       transform="matrix(1.249992,0,0,-1.249992,-152.4798,1184.932)" />
    <polygon
       points="364.21,444.03 368.8,442.61 368.8,445.54 364.21,444.03 "
       transform="matrix(1.249992,0,0,-1.249992,-152.4798,1184.932)" />
    <path class="brace" d="M 440.61644,564.91107 C 442.89142,564.08608 444.55391,561.33609 444.55391,558.08611" />
    <path class="brace" d="M 440.64144,515.88639 C 442.94142,516.68638 444.61641,519.44886 444.61641,522.72384" />
    <path class="brace" d="M 447.56639,540.39873 C 445.8164,541.37372 444.59142,543.66121 444.59142,546.32369" />
    <path class="brace" d="M 447.56639,540.39873 C 445.8164,539.42374 444.59142,537.14875 444.59142,534.47377" />
    <line class="brace" y2="558.08612" x2="444.55392" y1="546.32367" x1="444.59143" />
    <line class="brace" y2="534.47375" x2="444.59143" y1="522.72382" x1="444.61639" />
    <line class="brace" y2="468.76169" x2="305.44229" y1="464.97424" x1="305.44229" />
    <line class="brace" y2="466.87418" x2="307.34225" y1="466.87418" x1="303.55481" />
    <line y2="470.28671" x2="295.97983" y1="470.28671" x1="307.40479" />
    <polyline class="trace"
       points="363.27,571.72 363.27,577.4 375.97,577.4 "
       transform="matrix(1.249992,0,0,-1.249992,-152.4798,1184.932)" />
    <polyline class="trace"
       points="363.27,568.64 363.27,564.45 375.76,564.45 "
       transform="matrix(1.249992,0,0,-1.249992,-152.4798,1184.932)" />
    <path class="brace"
       d="M 295.97987,476.31164 L 295.99236,476.22414 L 296.00486,476.12414 L 296.01736,476.03664 L 296.04236,475.94914 L 296.07987,475.87415 L 296.11736,475.78664 L 296.16736,475.71164 L 296.22986,475.62414 L 296.27986,475.54915 L 296.35486,475.48664 L 296.42986,475.41165 L 296.50486,475.34914 L 296.57986,475.28665 L 296.66736,475.21165 L 296.76736,475.16165 L 296.86736,475.09915 L 296.96736,475.03665 L 297.06735,474.98665 L 297.29235,474.88665 L 297.51735,474.78665 L 297.76735,474.71165 L 298.01735,474.62415 L 298.26735,474.54915 L 298.52985,474.48665 L 298.79234,474.42415 L 299.05484,474.37415 L 299.31734,474.32415 L 299.57984,474.28665 L 299.82984,474.24916 L 300.06733,474.22415 L 300.30483,474.18665 L 300.51733,474.17415 L 300.72984,474.14916 L 300.81733,474.13666 L 300.91733,474.13666 L 301.00483,474.12416 L 301.07983,474.12416 L 301.16733,474.11165 L 301.22983,474.11165 L 301.30483,474.11165 L 301.36733,474.09915 L 301.41733,474.09915 L 301.46733,474.09915 L 301.50483,474.09915 L 301.54233,474.09915 L 301.56732,474.08665 L 301.59233,474.08665 L 301.60483,474.08665 L 301.60483,474.08665 C 301.60483,474.08665 307.00479,474.36165 307.00479,476.31164" />
    <line class="brace" y2="440.99933" x2="305.44229" y1="437.21191" x1="305.44229" />
    <line class="brace" y2="439.11191" x2="307.34225" y1="439.11191" x1="303.55481" />
    <line y2="442.52435" x2="295.97983" y1="442.52435" x1="307.40479" />
    <polyline class="trace"
       id="polyline5181"
       points="363.27,593.93 363.27,599.61 375.97,599.61 "
       transform="matrix(1.249992,0,0,-1.249992,-152.4798,1184.932)" />
    <polyline class="trace"
       id="polyline5183"
       points="363.27,590.85 363.27,586.66 375.76,586.66 "
       transform="matrix(1.249992,0,0,-1.249992,-152.4798,1184.932)" />
    <path class="brace"
       id="path5185"
       d="M 295.97987,448.56182 L 295.99236,448.46182 L 296.00486,448.36182 L 296.01736,448.27432 L 296.04236,448.18682 L 296.07987,448.09932 L 296.11736,448.02432 L 296.16736,447.93682 L 296.22986,447.86182 L 296.27986,447.78682 L 296.35486,447.72432 L 296.42986,447.64933 L 296.50486,447.58682 L 296.57986,447.51183 L 296.66736,447.44932 L 296.76736,447.38683 L 296.86736,447.33682 L 296.96736,447.27433 L 297.06735,447.22432 L 297.29235,447.12433 L 297.51735,447.02433 L 297.76735,446.93683 L 298.01735,446.86183 L 298.26735,446.78683 L 298.52985,446.72433 L 298.79234,446.66183 L 299.05484,446.61183 L 299.31734,446.56183 L 299.57984,446.52433 L 299.82984,446.48683 L 300.06733,446.44933 L 300.30483,446.42433 L 300.51733,446.39933 L 300.72984,446.38683 L 300.81733,446.37433 L 300.91733,446.37433 L 301.00483,446.36183 L 301.07983,446.36183 L 301.16733,446.34933 L 301.22983,446.34933 L 301.30483,446.33683 L 301.36733,446.33683 L 301.41733,446.33683 L 301.46733,446.33683 L 301.50483,446.33683 L 301.54233,446.32433 L 301.56732,446.32433 L 301.59233,446.32433 L 301.60483,446.32433 L 301.60483,446.32433 C 301.60483,446.32433 307.00479,446.58683 307.00479,448.56182" />
    <line class="brace" y2="481.12411" x2="433.67899" y1="484.91156" x1="433.67899" />
    <line class="brace" y2="483.02405" x2="431.77899" y1="483.02405" x1="435.5665" />
    <line y2="479.59909" x2="443.14145" y1="479.59909" x1="431.71646" />
    <polyline class="trace"
       points="472,566.98 472,572.23 461.82,572.23 "
       transform="matrix(1.249992,0,0,-1.249992,-152.4798,1184.932)" />
    <line class="brace" y2="480.06158" x2="437.51645" y1="487.09906" x1="437.51645" />
    <path class="brace"
       id="path5197"
       d="M 443.12892,473.57416 L 443.12892,473.67416 L 443.11642,473.76166 L 443.09142,473.84915 L 443.06642,473.93665 L 443.02892,474.02416 L 442.99142,474.11165 L 442.94142,474.18665 L 442.89142,474.26166 L 442.82893,474.33665 L 442.76642,474.41165 L 442.69142,474.47415 L 442.61643,474.54915 L 442.52892,474.61165 L 442.44142,474.67415 L 442.35393,474.73665 L 442.25393,474.79915 L 442.15393,474.84915 L 442.05393,474.89915 L 441.82893,475.01165 L 441.59143,475.09915 L 441.35394,475.18665 L 441.10394,475.26165 L 440.84144,475.33664 L 440.59144,475.39915 L 440.32894,475.46164 L 440.06644,475.51165 L 439.80394,475.56164 L 439.54144,475.59914 L 439.29144,475.63665 L 439.05395,475.67414 L 438.81645,475.69914 L 438.60395,475.72414 L 438.39145,475.74914 L 438.29145,475.74914 L 438.20395,475.76165 L 438.11646,475.76165 L 438.02895,475.77415 L 437.95395,475.77415 L 437.87896,475.78664 L 437.81645,475.78664 L 437.75396,475.78664 L 437.70395,475.78664 L 437.65396,475.79914 L 437.61646,475.79914 L 437.57896,475.79914 L 437.55396,475.79914 L 437.52896,475.79914 L 437.51646,475.79914 L 437.51646,475.79914 C 437.51646,475.79914 432.11649,475.53665 432.11649,473.57416" />
    <line y2="402.71207" x2="420.70404" y1="391.29971" x1="420.70404" />
    <polyline class="trace"
       points="458.55,630.44 471.79,630.44 471.79,597.97 462.08,597.97 "
       transform="matrix(1.249992,0,0,-1.249992,-152.4798,1184.932)" />
    <path class="brace"
       d="M 414.6791,402.71211 L 414.7666,402.71211 L 414.8666,402.69961 L 414.95411,402.67461 L 415.0416,402.64961 L 415.1291,402.61211 L 415.2041,402.57461 L 415.2916,402.52461 L 415.3666,402.47461 L 415.4416,402.41211 L 415.5166,402.33711 L 415.57909,402.27462 L 415.6416,402.18711 L 415.7166,402.11211 L 415.7791,402.02462 L 415.8416,401.92462 L 415.8916,401.83712 L 415.95409,401.73712 L 416.0041,401.62462 L 416.1041,401.41212 L 416.20409,401.17462 L 416.29159,400.93712 L 416.36659,400.68712 L 416.44159,400.42463 L 416.50409,400.16213 L 416.56659,399.89963 L 416.61659,399.63713 L 416.66659,399.37463 L 416.70409,399.12463 L 416.74159,398.87464 L 416.77909,398.62464 L 416.80409,398.39964 L 416.82909,398.17464 L 416.84159,397.97464 L 416.85409,397.87464 L 416.85409,397.78714 L 416.86659,397.69964 L 416.87909,397.61214 L 416.87909,397.53714 L 416.87909,397.46214 L 416.89159,397.39964 L 416.89159,397.33714 L 416.89159,397.28715 L 416.89159,397.23715 L 416.89159,397.18715 L 416.90409,397.16215 L 416.90409,397.13715 L 416.90409,397.11215 L 416.90409,397.09965 L 416.90409,397.09965 C 416.90409,397.09965 416.64159,391.68718 414.6791,391.68718" />
    <line y2="421.12451" x2="349.91702" y1="421.12451" x1="354.06699" />
    <line y2="415.62451" x2="346.31705" y1="415.62451" x1="357.79196" />
    <line y2="418.37451" x2="347.96701" y1="418.37451" x1="356.14194" />
    <line class="brace" y2="402.03711" x2="424.19153" y1="398.26212" x1="424.19153" />
    <line class="brace" y2="400.1496" x2="426.09152" y1="400.1496" x1="422.30402" />
    <line class="brace" y2="402.36212" x2="356.17944" y1="398.57462" x1="356.17944" />
    <line class="brace" y2="400.47461" x2="358.06696" y1="400.47461" x1="354.27951" />
    <line y2="404.58707" x2="346.34201" y1="404.58707" x1="357.76697" />
    <polyline class="trace"
       points="403.56,624.28 403.56,630.39 455.39,630.39 "
       transform="matrix(1.249992,0,0,-1.249992,-152.4798,1184.932)" />
    <line class="brace" y2="408.42456" x2="351.96701" y1="415.47452" x1="351.96701" />
    <path class="brace"
       d="M 346.35454,410.59956 L 346.35454,410.51206 L 346.36704,410.41206 L 346.37954,410.32456 L 346.41704,410.23706 L 346.44204,410.16206 L 346.49204,410.07456 L 346.54204,409.99956 L 346.59204,409.91207 L 346.65454,409.83706 L 346.71704,409.77457 L 346.79204,409.69957 L 346.86704,409.63707 L 346.95453,409.57457 L 347.04204,409.51207 L 347.12954,409.44957 L 347.22954,409.38707 L 347.32953,409.33707 L 347.42953,409.27457 L 347.65453,409.17457 L 347.87953,409.08707 L 348.12953,408.99957 L 348.37953,408.91207 L 348.62953,408.84957 L 348.89202,408.77457 L 349.15452,408.72457 L 349.41702,408.66207 L 349.67952,408.62458 L 349.94202,408.57457 L 350.19201,408.53707 L 350.42951,408.51208 L 350.66701,408.48707 L 350.87951,408.46207 L 351.09201,408.43707 L 351.17951,408.43707 L 351.27951,408.42457 L 351.36701,408.42457 L 351.44201,408.41208 L 351.52951,408.41208 L 351.59201,408.39958 L 351.66701,408.39958 L 351.72951,408.39958 L 351.77951,408.38708 L 351.8295,408.38708 L 351.86701,408.38708 L 351.9045,408.38708 L 351.9295,408.38708 L 351.95451,408.38708 L 351.96701,408.38708 L 351.96701,408.38708 C 351.96701,408.38708 357.37947,408.64957 357.37947,410.59956" />
    <line class="brace" y2="457.44928" x2="424.52902" y1="457.44928" x1="318.27972" />
    <line class="brace" y2="483.77411" x2="424.52902" y1="483.77411" x1="318.27972" />
    <line class="brace" y2="397.14966" x2="375.31683" y1="424.1745" x1="375.31683" />
    <text x="415.39142" y="439.24969">V+</text>
    <text x="415.32877" y="471.93698">V-</text>
    <text x="430.16653" y="435.01178">2</text>
    <path
       d="M 375.31685,398.97463 L 375.40435,398.97463 L 375.50436,398.96213 L 375.59186,398.94963 L 375.67935,398.93713 L 375.76685,398.91213 L 375.85435,398.88713 L 375.94185,398.86214 L 376.02935,398.82464 L 376.10435,398.79964 L 376.19185,398.74964 L 376.26685,398.71214 L 376.34185,398.66214 L 376.40435,398.61214 L 376.47935,398.56214 L 376.54185,398.49964 L 376.60435,398.43714 L 376.66685,398.37464 L 376.72935,398.31214 L 376.77935,398.23714 L 376.82935,398.17464 L 376.87935,398.09964 L 376.91684,398.01214 L 376.96685,397.93714 L 376.99185,397.86214 L 377.02934,397.77464 L 377.05434,397.68714 L 377.07934,397.59964 L 377.10435,397.51214 L 377.11685,397.42464 L 377.12934,397.33714 L 377.14184,397.23715 L 377.14184,397.14965 C 377.14184,396.13715 376.32935,395.32466 375.31685,395.32466 C 374.30436,395.32466 373.49187,396.13715 373.49187,397.14965 C 373.49187,398.14964 374.30436,398.97463 375.31685,398.97463 z " />
    <path
       d="M 356.44197,562.14859 L 356.54197,562.14859 L 356.62948,562.13609 L 356.71698,562.12359 L 356.80447,562.11109 L 356.90447,562.08609 L 356.97948,562.06109 L 357.06697,562.03609 L 357.15447,562.01109 L 357.22947,561.97359 L 357.31697,561.92359 L 357.39197,561.88609 L 357.46697,561.83609 L 357.52947,561.78609 L 357.60447,561.73609 L 357.66697,561.67359 L 357.72947,561.61109 L 357.79197,561.54859 L 357.85447,561.48609 L 357.90447,561.4111 L 357.95447,561.34859 L 358.00447,561.2736 L 358.05446,561.1986 L 358.09197,561.11109 L 358.12947,561.0361 L 358.15446,560.9486 L 358.19196,560.8611 L 358.21697,560.7736 L 358.22947,560.6861 L 358.25447,560.5986 L 358.25447,560.5111 L 358.26696,560.4111 L 358.26696,560.3236 C 358.26696,559.31111 357.45447,558.49862 356.44197,558.49862 C 355.42948,558.49862 354.61699,559.31111 354.61699,560.3236 C 354.61699,561.33609 355.42948,562.14859 356.44197,562.14859 z " />
    <path
       d="M 356.26698,522.76135 L 356.35448,522.76135 L 356.45447,522.74885 L 356.54197,522.73634 L 356.62948,522.72384 L 356.71698,522.69884 L 356.80447,522.67384 L 356.89197,522.64885 L 356.97948,522.61134 L 357.05447,522.57384 L 357.12947,522.53635 L 357.21697,522.49884 L 357.29197,522.44884 L 357.35447,522.39885 L 357.42947,522.33634 L 357.49197,522.28635 L 357.55447,522.22384 L 357.61697,522.16135 L 357.67947,522.09884 L 357.72947,522.02385 L 357.77947,521.94885 L 357.82946,521.87384 L 357.86697,521.79885 L 357.91697,521.72385 L 357.95447,521.63635 L 357.97947,521.56135 L 358.01697,521.47385 L 358.02947,521.38635 L 358.05446,521.29885 L 358.06696,521.21135 L 358.07946,521.12386 L 358.09197,521.02386 L 358.09197,520.93635 C 358.09197,519.92386 357.26697,519.09886 356.26698,519.09886 C 355.25448,519.09886 354.44199,519.92386 354.44199,520.93635 C 354.44199,521.93635 355.25448,522.76135 356.26698,522.76135 z " />
    <path
       d="M 393.86674,591.7234 L 393.95423,591.7234 L 394.05423,591.7234 L 394.14174,591.7109 L 394.22924,591.6859 L 394.31673,591.6734 L 394.40423,591.6484 L 394.49173,591.62341 L 394.57923,591.5859 L 394.65423,591.5484 L 394.74173,591.51091 L 394.81673,591.4609 L 394.89173,591.4109 L 394.95423,591.3609 L 395.02923,591.3109 L 395.09173,591.24841 L 395.15423,591.1859 L 395.21673,591.1234 L 395.27923,591.06091 L 395.32922,590.99841 L 395.37923,590.92341 L 395.42922,590.8484 L 395.47923,590.77341 L 395.51673,590.69841 L 395.55422,590.61091 L 395.57922,590.52341 L 395.61673,590.44841 L 395.64173,590.36091 L 395.65422,590.27341 L 395.67922,590.17341 L 395.69172,590.08591 L 395.69172,589.99842 L 395.69172,589.89841 C 395.69172,588.88592 394.87923,588.07342 393.86674,588.07342 C 392.85425,588.07342 392.04175,588.88592 392.04175,589.89841 C 392.04175,590.91091 392.85425,591.7234 393.86674,591.7234 z " />
    <path
       d="M 392.85425,631.49814 L 392.95424,631.49814 L 393.04174,631.48564 L 393.14174,631.47314 L 393.22924,631.46065 L 393.31674,631.43565 L 393.40424,631.41065 L 393.49174,631.38565 L 393.56674,631.34815 L 393.65424,631.32315 L 393.72924,631.27315 L 393.80424,631.23565 L 393.87924,631.18565 L 393.95423,631.13565 L 394.01674,631.08565 L 394.09174,631.02315 L 394.15423,630.96065 L 394.21674,630.89815 L 394.26673,630.83565 L 394.31673,630.76065 L 394.37923,630.68565 L 394.41673,630.61065 L 394.46674,630.53565 L 394.50423,630.46065 L 394.54173,630.38566 L 394.57923,630.29815 L 394.60423,630.21065 L 394.62923,630.12315 L 394.64173,630.03566 L 394.66673,629.94816 L 394.67923,629.84815 L 394.67923,629.76066 L 394.67923,629.67316 C 394.67923,628.66067 393.86674,627.83567 392.85425,627.83567 C 391.84175,627.83567 391.02925,628.66067 391.02925,629.67316 C 391.02925,630.67315 391.84175,631.49814 392.85425,631.49814 z " />
    <polygon
       points="422.19,631.91 420.77,636.65 423.7,636.65 422.19,631.91 "
       transform="matrix(1.249992,0,0,-1.249992,-152.4798,1184.932)" />
    <text x="440.60367" y="438.92426">+10V</text>
    <path class="brace" d="M 440.71644,634.28563 C 442.99142,633.46063 444.66641,630.72315 444.66641,627.46067" />
    <path class="brace" d="M 440.75394,585.27344 C 443.04142,586.07344 444.72891,588.82342 444.72891,592.0984" />
    <path class="brace" d="M 447.66639,609.78579 C 445.9289,610.76078 444.69141,613.03577 444.69141,615.71075" />
    <path class="brace" d="M 447.66639,609.78579 C 445.9289,608.81079 444.69141,606.52331 444.69141,603.86082" />
    <line class="brace" y2="627.46069" x2="444.66644" y1="615.71075" x1="444.69141" />
    <line class="brace" y2="603.86084" x2="444.69141" y1="592.09839" x1="444.72888" />
    <path class="brace" d="M 302.20482,564.91107 C 299.92984,564.08608 298.25485,561.33609 298.25485,558.08611" />
    <path class="brace" d="M 302.16732,515.88639 C 299.87984,516.68638 298.19235,519.44886 298.19235,522.72384" />
    <path class="brace" d="M 295.25487,540.39873 C 297.00486,541.37372 298.22985,543.66121 298.22985,546.32369" />
    <path class="brace" d="M 295.25487,540.39873 C 297.00486,539.42374 298.22985,537.14875 298.22985,534.47377" />
    <line class="brace" y2="558.08612" x2="298.25485" y1="546.32367" x1="298.22983" />
    <line class="brace" y2="534.47375" x2="298.22983" y1="522.72382" x1="298.19238" />
    <path class="brace" d="M 302.30482,634.28563 C 300.02984,633.46063 298.36735,630.72315 298.36735,627.46067" />
    <path class="brace" d="M 302.27982,585.27344 C 299.99234,586.07344 298.30485,588.82342 298.30485,592.0984" />
    <path class="brace" d="M 295.35487,609.78579 C 297.10486,610.76078 298.32984,613.03577 298.32984,615.71075" />
    <path class="brace" d="M 295.35487,609.78579 C 297.10486,608.81079 298.32984,606.52331 298.32984,603.86082" />
    <line class="brace" y2="627.46069" x2="298.36734" y1="615.71075" x1="298.32983" />
    <line class="brace" y2="603.86084" x2="298.32983" y1="592.09839" x1="298.30484" />
    <text x="320.9296" y="438.81195">C1+</text>
    <text x="286.72961" y="445.87442">C1</text>
    <text x="286.72961" y="474.92426">C2</text>
    <text x="312.10455" y="433.68698">1</text>
    <text x="312.10455" y="449.52411">3</text>
    <text x="312.10455" y="461.6741">4</text>
    <text x="312.10455" y="476.76172">5</text>
    <text x="308.34253" y="518.98608">11</text>
    <text x="308.34253" y="558.19873">10</text>
    <text x="308.34253" y="587.66113">12</text>
    <text x="312.10455" y="627.72339">9</text>
    <text x="428.57898" y="467.02441">6</text>
    <text x="426.95389" y="518.88605">14</text>
    <text x="428.36655" y="557.56079">7</text>
    <text x="426.95389" y="588.08594">13</text>
    <text x="428.36655" y="627.19849">8</text>
    <text x="321.69208" y="518.06165">
      <tspan>T1</tspan>
      <tspan class="subscript" dx="-2" dy="2">IN</tspan>
    </text>
    <text id="text5337" x="321.50488" y="587.2356">
      <tspan>R1</tspan>
      <tspan class="subscript" dx="-2" dy="2">OUT</tspan>
    </text>
    <text x="321.69208" y="557.67383">
      <tspan>T2</tspan>
      <tspan class="subscript" dx="-2" dy="2">IN</tspan>
    </text>
    <text x="321.50488" y="627.83569">
      <tspan>R2</tspan>
      <tspan class="subscript" dx="-2" dy="2">OUT</tspan>
    </text>
    <text x="401.90439" y="518.34888">
      <tspan>T1</tspan>
      <tspan class="subscript" dx="-2" dy="2">OUT</tspan>
    </text>
    <text x="406.75433" y="587.2356">
      <tspan>R1</tspan>
      <tspan class="subscript" dx="-2" dy="2">IN</tspan>
    </text>
    <text x="401.90439" y="557.67383">
      <tspan>T2</tspan>
      <tspan class="subscript" dx="-2" dy="2">OUT</tspan>
    </text>
    <text x="407.59164" y="627.83569">
      <tspan>R2</tspan>
      <tspan class="subscript" dx="-2" dy="2">IN</tspan>
    </text>
    <text x="362.57944" y="386.99969">+5V INPUT</text>
    <text x="320.75464" y="467.39954">C2+</text>
    <text x="443.41669" y="467.16196">-10V</text>
    <text x="446.06635" y="480.41138">C4</text>
    <text x="449.99103" y="538.69897">RS-232</text>
    <text x="449.99103" y="548.599">Outputs</text>
    <text x="450.5289" y="608.64844">RS-232</text>
    <text x="450.5289" y="618.5484">Inputs</text>
    <text x="258.42996" y="538.69897">TTL/CMOS</text>
    <text x="268.31775" y="548.599">Inputs</text>
    <text x="257.89288" y="608.12354">TTL/CMOS</text>
    <text x="261.19266" y="618.01056">Outputs</text>
    <text x="367.87933" y="667.04761">GND</text>
    <text x="384.02893" y="678.32281">15</text>
    <text x="399.47946" y="647.86035">5k</text>
    <text x="400.01654" y="609.71112">5k</text>
    <text x="328.89209" y="548.19867">400k</text>
    <text x="327.96686" y="505.849">400k</text>
    <text x="338.52927" y="494.53635">+5V</text>
    <text x="337.64221" y="532.77411">+5V</text>
    <text x="350.21701" y="469.68698">+10V to -10V</text>
    <text x="340.55463" y="479.57404">Voltage Inverter</text>
    <text x="352.09189" y="444.13705">+5V to +10V</text>
    <text x="341.24222" y="454.03708">Voltage Doubler</text>
    <text x="379.26688" y="421.7746">16</text>
    <text x="413.36676" y="389.7247">C3</text>
    <text x="333.51736" y="410.11203">C5</text>
    <text x="320.81726" y="480.01178">C2-</text>
    <text x="320.35501" y="452.28674">C1-</text>
    <text x="365.12967" y="433.37451">
      <tspan>V</tspan>
      <tspan class="subscript" dx="-2" dy="2">CC</tspan>
    </text>
    <line y2="490.54904" x2="352.71701" y1="490.54904" x1="360.89194" />
    <line y2="528.76129" x2="352.65448" y1="528.76129" x1="360.82941" />
  </g>
</svg>
