<svg version="1.1" viewBox="0 0 685.36 1118" xmlns="http://www.w3.org/2000/svg">
  <defs>
    <clipPath id="d">
      <path d="m42443 1884.1c-697.5 0-2006.9 694.5-2522 1989.4-102.1 256.52-127 422.67-138.5 730.19 171.6-566.9 386.6-673.59 478.4-717.69-207.7 321.07-303.2 678.63-303.2 955.61 0 314.8 81.8 656.69 277 964.49-176.3-571.49 75.5-906.56 202.5-1013.5-151.1 402.85 161.2 807.63 438.1 1059.4 340 289.62 551.7 621.37 498.8 986.5-26.8 184.87-61.3 393.83-270.7 575.63 474.3-138.02 537.7-542.04 655.8-884.1-75.5 226.62-86.6 605.89 24.1 887.63 138.5 352.53 994.7 1397.5 51.4 2851.7 943.3-446.95 1696.1-1964.1 1648.3-2272.6 47.8 251.8 19.8 503.6-75.5 742.83 746.3-893.92 818.4-2099.3 730.2-2577.7-25.1-163.67-91.1-475.89-302.1-940.93 198.2 270.33 566.5 855.78 553.9 1491.6 838.8-1410.2 504.7-2260 227.8-2738.4-125.9-226.7-260-415.5-472.9-604.4 100.7-37.7 497.5 255 647.1 547.7-113.7-1017.7-1237.7-1903.7-2226.5-2033.4z"/>
    </clipPath>
    <linearGradient id="b" x2="1" gradientTransform="matrix(-52.804 8529.6 8529.6 52.804 42371 1843.6)" gradientUnits="userSpaceOnUse">
      <stop style="stop-color:#ed2422" offset="0"/>
      <stop style="stop-color:#f8a01a" offset="1"/>
    </linearGradient>
    <clipPath id="c">
      <path d="m42539 1895.1c-702 315.2-1320.7 1046.4-1249 1924.8 74.3 910.53 758 1698.1 1166.2 2444.3 173.7 317.46 330.2 969.53 57.8 1370.5 688.2-684.59 422.4-1562.6 255.9-2460.4-47.8-258.39 16.5-544.93 181.7-689.38-28.9 230.38 5.5 548.27 272.4 705.91-89.4-257.31-65.9-435.57 57.8-710.04 111.2-246.68 278-462.78 378.8-722.03 187.2-518.4 25.8-1020.1-403.5-1424.6-177.9-167.6-445.8-365.6-686.3-439.1z"/>
    </clipPath>
    <linearGradient id="a" x2="1" gradientTransform="matrix(184.85 -5703.9 -5703.9 -184.85 42377 7637.8)" gradientUnits="userSpaceOnUse">
      <stop style="stop-color:#f9d817" offset="0"/>
      <stop style="stop-color:#f9d817" offset=".012121"/>
      <stop style="stop-color:#f04525" offset="1"/>
    </linearGradient>
  </defs>
  <g transform="matrix(1.3333 0 0 -1.3333 -5304.4 1369.3)">
    <g transform="scale(.1)">
      <g clip-path="url(#d)">
        <path d="m42443 1884.1c-697.5 0-2006.9 694.5-2522 1989.4-102.1 256.52-127 422.67-138.5 730.19 171.6-566.9 386.6-673.59 478.4-717.69-207.7 321.07-303.2 678.63-303.2 955.61 0 314.8 81.8 656.69 277 964.49-176.3-571.49 75.5-906.56 202.5-1013.5-151.1 402.85 161.2 807.63 438.1 1059.4 340 289.62 551.7 621.37 498.8 986.5-26.8 184.87-61.3 393.83-270.7 575.63 474.3-138.02 537.7-542.04 655.8-884.1-75.5 226.62-86.6 605.89 24.1 887.63 138.5 352.53 994.7 1397.5 51.4 2851.7 943.3-446.95 1696.1-1964.1 1648.3-2272.6 47.8 251.8 19.8 503.6-75.5 742.83 746.3-893.92 818.4-2099.3 730.2-2577.7-25.1-163.67-91.1-475.89-302.1-940.93 198.2 270.33 566.5 855.78 553.9 1491.6 838.8-1410.2 504.7-2260 227.8-2738.4-125.9-226.7-260-415.5-472.9-604.4 100.7-37.7 497.5 255 647.1 547.7-113.7-1017.7-1237.7-1903.7-2226.5-2033.4h-122" style="fill:url(#b)"/>
      </g>
      <g clip-path="url(#c)">
        <path d="m42539 1895.1c-702 315.2-1320.7 1046.4-1249 1924.8 74.3 910.53 758 1698.1 1166.2 2444.3 173.7 317.46 330.2 969.53 57.8 1370.5 688.2-684.59 422.4-1562.6 255.9-2460.4-47.8-258.39 16.5-544.93 181.7-689.38-28.9 230.38 5.5 548.27 272.4 705.91-89.4-257.31-65.9-435.57 57.8-710.04 111.2-246.68 278-462.78 378.8-722.03 187.2-518.4 25.8-1020.1-403.5-1424.6-177.9-167.6-445.8-365.6-686.3-439.1h-31.8" style="fill:url(#a)"/>
      </g>
    </g>
  </g>
</svg>
