<?xml version="1.0" standalone="no"?>
<!--Created with Inkscape (http://www.inkscape.org/)-->
<svg xmlns="http://www.w3.org/2000/svg" xmlns:xlink="http://www.w3.org/1999/xlink" viewBox="0 0 48 48">
  <defs>
    <linearGradient id="h">
      <stop offset="0" stop-color="black" stop-opacity="1"/>
      <stop offset="1" stop-color="black" stop-opacity="0"/>
    </linearGradient>
    <linearGradient id="g">
      <stop offset="0" stop-color="black" stop-opacity="1"/>
      <stop offset="1" stop-color="black" stop-opacity="0"/>
    </linearGradient>
    <linearGradient id="d">
      <stop offset="0" stop-color="white" stop-opacity="1"/>
      <stop offset="1" stop-color="white" stop-opacity="0"/>
    </linearGradient>
    <linearGradient id="e">
      <stop offset="0" stop-color="#ffb745" stop-opacity="1"/>
      <stop offset="0.39473686" stop-color="#ffe47e" stop-opacity="1"/>
      <stop offset="1" stop-color="#a68018" stop-opacity="1"/>
    </linearGradient>
    <linearGradient id="c">
      <stop offset="0" stop-color="white" stop-opacity="1"/>
      <stop offset="1" stop-color="white" stop-opacity="0"/>
    </linearGradient>
    <linearGradient id="b">
      <stop offset="0" stop-color="#ffe5bd" stop-opacity="1"/>
      <stop offset="0.39473686" stop-color="#f8f8f8" stop-opacity="1"/>
      <stop offset="1" stop-color="#e7c25e" stop-opacity="1"/>
    </linearGradient>
    <linearGradient id="a">
      <stop offset="0" stop-color="white" stop-opacity=".73725492"/>
      <stop offset="1" stop-color="white" stop-opacity="0"/>
    </linearGradient>
    <linearGradient id="f">
      <stop offset="0" stop-color="#ccc" stop-opacity="1"/>
      <stop offset="0.39473686" stop-color="#ededed" stop-opacity="1"/>
      <stop offset="1" stop-color="#a5a5a5" stop-opacity="1"/>
    </linearGradient>
    <linearGradient xlink:href="#a" id="A" x1="5.361702" y1="18.38903" x2="5.361702" y2="7.5721941" gradientUnits="userSpaceOnUse" gradientTransform="matrix(1,0,0,0.997754,7.243758e-7,1.09547)"/>
    <linearGradient xlink:href="#b" id="z" gradientUnits="userSpaceOnUse" gradientTransform="matrix(0.966666,0,0,0.954265,0.650001,1.588135)" x1="6.6295714" y1="18.893618" x2="25.386137" y2="18.893618"/>
    <linearGradient xlink:href="#c" id="B" x1="18.51976" y1="9.7514734" x2="18.841196" y2="7.0145946" gradientUnits="userSpaceOnUse"/>
    <linearGradient xlink:href="#d" id="D" x1="19.064798" y1="6.9741855" x2="19.191425" y2="5.6838951" gradientUnits="userSpaceOnUse"/>
    <linearGradient xlink:href="#e" id="C" gradientUnits="userSpaceOnUse" x1="11" y1="4.5" x2="27" y2="4.5" gradientTransform="translate(7.243758e-7,0.999999)"/>
    <linearGradient xlink:href="#f" id="y" gradientUnits="userSpaceOnUse" gradientTransform="matrix(1,0,0,1.004557,7.243758e-7,0.802923)" x1="6.6295714" y1="18.893618" x2="25.386137" y2="18.893618"/>
    <radialGradient xlink:href="#g" id="x" cx="21.375" cy="40.375" fx="21.375" fy="40.375" r="20.625" gradientTransform="matrix(1,0,0,0.327273,-1.376936e-17,27.16136)" gradientUnits="userSpaceOnUse"/>
    <linearGradient xlink:href="#h" id="w" x1="33.098732" y1="40.369514" x2="33.778446" y2="33.44252" gradientUnits="userSpaceOnUse" gradientTransform="matrix(1.052633,0,0,1.333336,-1.894745,-13.33343)"/>
    <radialGradient r="16" fy="30.609259" fx="24.680851" cy="30.609259" cx="24.680851" gradientTransform="matrix(0.375,0,0,0.46875,-39.56251,26.88739)" gradientUnits="userSpaceOnUse" xlink:href="#i"/>
    <linearGradient id="i">
      <stop offset="0" stop-color="white" stop-opacity="1"/>
      <stop offset="1" stop-color="#e3e3e3" stop-opacity="1"/>
    </linearGradient>
    <radialGradient r="32.085793" fy="33.755856" fx="62.970509" cy="48.729244" cx="62.970509" gradientTransform="matrix(0.177259,0,0,0.132754,-43.4746,27.84979)" gradientUnits="userSpaceOnUse" xlink:href="#j"/>
    <linearGradient y2="98.832764" x2="57.994637" y1="3.4719357" x1="75.787148" gradientTransform="matrix(0.159363,0,0,0.178972,-40.88671,25.95054)" gradientUnits="userSpaceOnUse" xlink:href="#k"/>
    <linearGradient y2="63.299728" x2="66.135506" y1="63.299728" x1="109.38406" gradientTransform="matrix(0.175919,0,0,0.169323,-41.16541,26.60542)" gradientUnits="userSpaceOnUse" xlink:href="#l"/>
    <radialGradient r="49.918098" fy="76.752853" fx="67.655052" cy="76.752853" cx="67.655052" gradientTransform="matrix(0.194035,0,0,0.205941,-41.93773,25.89825)" gradientUnits="userSpaceOnUse" xlink:href="#m"/>
    <radialGradient r="57.5" fy="145.41862" fx="50.669872" cy="114" cx="52.5" gradientTransform="matrix(0.152547,0,0,3.378826e-2,-40.29976,43.07707)" gradientUnits="userSpaceOnUse" xlink:href="#n"/>
    <linearGradient y2="86.99852" x2="111.17001" y1="141.30928" x1="17.101027" gradientTransform="matrix(0.1655,0,0,0.1655,-41.14525,27.73098)" gradientUnits="userSpaceOnUse" xlink:href="#o"/>
    <linearGradient id="m">
      <stop offset="0" stop-color="#f85151" stop-opacity="1"/>
      <stop offset="1" stop-color="#d00303" stop-opacity="1"/>
    </linearGradient>
    <linearGradient id="k">
      <stop offset="0" stop-color="#fff" stop-opacity="1"/>
      <stop offset="1" stop-color="#fff" stop-opacity=".27843139"/>
    </linearGradient>
    <linearGradient id="j">
      <stop offset="0" stop-color="#fff" stop-opacity="1"/>
      <stop offset="1" stop-color="#fff" stop-opacity="0"/>
    </linearGradient>
    <linearGradient id="n">
      <stop offset="0" stop-color="#000" stop-opacity="1"/>
      <stop offset="1" stop-color="#000" stop-opacity="0"/>
    </linearGradient>
    <linearGradient id="o">
      <stop offset="0" stop-color="#000" stop-opacity=".19313304"/>
      <stop offset="1" stop-color="#000" stop-opacity="0"/>
    </linearGradient>
    <linearGradient id="l">
      <stop offset="0" stop-color="#000" stop-opacity=".36909872"/>
      <stop offset="1" stop-color="#000" stop-opacity="0"/>
    </linearGradient>
    <linearGradient y2="115.5" x2="87" y1="16.700232" x1="87" gradientTransform="matrix(0.293131,0,0,0.293195,15.41147,14.10201)" gradientUnits="userSpaceOnUse" xlink:href="#p"/>
    <linearGradient y2="52.214569" x2="50.190037" y1="-6.7369881" x1="2.3425686" gradientTransform="matrix(0.298289,0,0,0.281184,15.17672,18.51857)" gradientUnits="userSpaceOnUse" xlink:href="#q"/>
    <linearGradient y2="91.590004" x2="66.457069" y1="34.274498" x1="10.539051" gradientTransform="matrix(0.262608,0,0,0.256205,16.92212,16.58741)" gradientUnits="userSpaceOnUse" xlink:href="#r"/>
    <radialGradient r="33.42374" fy="37.778625" fx="31.560766" cy="37.778625" cx="31.560766" gradientTransform="matrix(0.289938,0,0,0.303573,14.94995,18.27846)" gradientUnits="userSpaceOnUse" xlink:href="#s"/>
    <radialGradient r="55.39838" fy="100.32574" fx="37.155838" cy="111.6349" cx="52.829132" gradientTransform="matrix(0.861338,2.056765e-6,-3.167113e-7,0.132633,7.687626,96.8282)" gradientUnits="userSpaceOnUse" xlink:href="#t"/>
    <radialGradient r="55.39838" fy="111.63478" fx="55.441345" cy="111.63478" cx="55.441345" gradientTransform="matrix(0.861338,2.056765e-6,-3.167113e-7,0.132633,7.687626,96.8282)" gradientUnits="userSpaceOnUse" xlink:href="#u"/>
    <linearGradient y2="99.945343" x2="108.54481" y1="140.02342" x1="100.19521" gradientTransform="matrix(0.249514,0,0,0.269084,15.91669,17.64543)" gradientUnits="userSpaceOnUse" xlink:href="#v"/>
    <linearGradient gradientTransform="matrix(0.293131,0,0,0.293195,0.411449,-0.897907)" gradientUnits="userSpaceOnUse" y2="115.5" x2="87" y1="16.700232" x1="87" xlink:href="#p"/>
    <linearGradient gradientTransform="matrix(0.262608,0,0,0.256205,1.922093,1.587492)" gradientUnits="userSpaceOnUse" y2="91.590004" x2="66.457069" y1="39.160255" x1="9.351552" xlink:href="#r"/>
    <linearGradient gradientTransform="matrix(0.249514,0,0,0.269084,0.916668,2.645516)" gradientUnits="userSpaceOnUse" y2="99.945343" x2="108.54481" y1="140.02342" x1="100.19521" xlink:href="#v"/>
    <radialGradient r="55.39838" fy="111.63478" fx="55.441345" cy="111.63478" cx="55.441345" gradientTransform="matrix(0.861338,2.056765e-6,-3.167113e-7,0.132633,7.687626,96.8282)" gradientUnits="userSpaceOnUse" xlink:href="#u"/>
    <radialGradient gradientUnits="userSpaceOnUse" gradientTransform="matrix(0.861338,2.056765e-6,-3.167113e-7,0.132633,7.687626,96.8282)" r="55.39838" fy="100.32574" fx="37.155838" cy="111.6349" cx="52.829132" xlink:href="#t"/>
    <radialGradient r="33.42374" fy="37.778625" fx="31.560766" cy="37.778625" cx="31.560766" gradientTransform="matrix(0.289938,0,0,0.303573,-5.007329e-2,3.278546)" gradientUnits="userSpaceOnUse" xlink:href="#s"/>
    <linearGradient y2="52.214569" x2="50.190037" y1="-6.7369881" x1="2.3425686" gradientTransform="matrix(0.298289,0,0,0.281184,0.176701,3.518652)" gradientUnits="userSpaceOnUse" xlink:href="#q"/>
    <linearGradient id="q">
      <stop offset="0.00000000" stop-color="#fff" stop-opacity=".69791669"/>
      <stop offset="1" stop-color="#fff" stop-opacity="0"/>
    </linearGradient>
    <linearGradient id="s">
      <stop offset="0.0000000" stop-color="#676767" stop-opacity="1"/>
      <stop offset="1.0000000" stop-color="#2d2d2d" stop-opacity="1"/>
    </linearGradient>
    <linearGradient id="u">
      <stop offset="0.0000000" stop-color="#000" stop-opacity=".17708331"/>
      <stop offset="1" stop-color="#000" stop-opacity="0"/>
    </linearGradient>
    <linearGradient id="v">
      <stop offset="0" stop-color="#000" stop-opacity="1"/>
      <stop offset="1" stop-color="#000" stop-opacity="0"/>
    </linearGradient>
    <linearGradient id="r">
      <stop offset="0" stop-color="black" stop-opacity="1"/>
      <stop offset="1" stop-color="white" stop-opacity="1"/>
    </linearGradient>
    <linearGradient id="t">
      <stop offset="0.0000000" stop-color="black" stop-opacity=".41960785"/>
      <stop offset="1" stop-color="#000" stop-opacity="0"/>
    </linearGradient>
    <linearGradient id="p">
      <stop offset="0" stop-color="white" stop-opacity="1"/>
      <stop offset="1" stop-color="white" stop-opacity=".60085839"/>
    </linearGradient>
    <linearGradient xlink:href="#p" gradientUnits="userSpaceOnUse" gradientTransform="matrix(0.293131,0,0,0.293195,-139.5885,51.10201)" x1="87" y1="16.700232" x2="87" y2="115.5"/>
    <linearGradient xlink:href="#q" gradientUnits="userSpaceOnUse" gradientTransform="matrix(0.298289,0,0,0.281184,-139.8233,55.51857)" x1="2.3425686" y1="-6.7369881" x2="50.190037" y2="52.214569"/>
    <radialGradient xlink:href="#s" gradientUnits="userSpaceOnUse" gradientTransform="matrix(0.289938,0,0,0.303573,-140.05,55.27846)" cx="31.560766" cy="37.778625" fx="31.560766" fy="37.778625" r="33.42374"/>
    <linearGradient xlink:href="#r" gradientUnits="userSpaceOnUse" gradientTransform="matrix(0.262608,0,0,0.256205,-138.0779,53.58741)" x1="10.539051" y1="34.274498" x2="66.457069" y2="91.590004"/>
    <linearGradient xlink:href="#v" gradientUnits="userSpaceOnUse" gradientTransform="matrix(0.249514,0,0,0.269084,-139.0833,54.64543)" x1="100.19521" y1="140.02342" x2="108.54481" y2="99.945343"/>
    <linearGradient xlink:href="#p" gradientUnits="userSpaceOnUse" gradientTransform="matrix(0.293131,0,0,0.293195,-154.5886,36.10209)" x1="87" y1="16.700232" x2="87" y2="115.5"/>
    <linearGradient xlink:href="#q" gradientUnits="userSpaceOnUse" gradientTransform="matrix(0.298289,0,0,0.281184,-154.8233,40.51865)" x1="2.3425686" y1="-6.7369881" x2="50.190037" y2="52.214569"/>
    <radialGradient xlink:href="#s" gradientUnits="userSpaceOnUse" gradientTransform="matrix(0.289938,0,0,0.303573,-155.0501,40.27855)" cx="31.560766" cy="37.778625" fx="31.560766" fy="37.778625" r="33.42374"/>
    <linearGradient xlink:href="#r" gradientUnits="userSpaceOnUse" gradientTransform="matrix(0.262608,0,0,0.256205,-153.0779,38.58749)" x1="9.351552" y1="39.160255" x2="66.457069" y2="91.590004"/>
    <linearGradient xlink:href="#v" gradientUnits="userSpaceOnUse" gradientTransform="matrix(0.249514,0,0,0.269084,-154.0833,39.64552)" x1="100.19521" y1="140.02342" x2="108.54481" y2="99.945343"/>
    <linearGradient xlink:href="#o" id="E" gradientUnits="userSpaceOnUse" gradientTransform="matrix(0.1655,0,0,0.1655,-41.14525,27.73098)" x1="17.101027" y1="141.30928" x2="111.17001" y2="86.99852"/>
    <radialGradient xlink:href="#n" id="F" gradientUnits="userSpaceOnUse" gradientTransform="matrix(0.152547,0,0,3.378826e-2,-40.29976,43.07707)" cx="52.5" cy="114" fx="50.669872" fy="145.41862" r="57.5"/>
    <radialGradient xlink:href="#m" id="G" gradientUnits="userSpaceOnUse" gradientTransform="matrix(0.194035,0,0,0.205941,-41.93773,25.89825)" cx="67.655052" cy="76.752853" fx="67.655052" fy="76.752853" r="49.918098"/>
    <linearGradient xlink:href="#l" id="H" gradientUnits="userSpaceOnUse" gradientTransform="matrix(0.175919,0,0,0.169323,-41.16541,26.60542)" x1="109.38406" y1="63.299728" x2="66.135506" y2="63.299728"/>
    <linearGradient xlink:href="#k" id="I" gradientUnits="userSpaceOnUse" gradientTransform="matrix(0.159363,0,0,0.178972,-40.88671,25.95054)" x1="75.787148" y1="3.4719357" x2="57.994637" y2="98.832764"/>
    <radialGradient xlink:href="#j" id="J" gradientUnits="userSpaceOnUse" gradientTransform="matrix(0.177259,0,0,0.132754,-43.4746,27.84979)" cx="62.970509" cy="48.729244" fx="62.970509" fy="33.755856" r="32.085793"/>
    <radialGradient xlink:href="#i" id="K" gradientUnits="userSpaceOnUse" gradientTransform="matrix(0.375,0,0,0.46875,-39.56251,26.88739)" cx="24.680851" cy="30.609259" fx="24.680851" fy="30.609259" r="16"/>
  </defs>
  <metadata/>
  <path d="M 34.157895,42 L 46,30 L 26,30 L 26,42 L 34.157895,42 z " opacity=".40167364" fill="url(#w)" fill-opacity="1" fill-rule="evenodd" stroke="none" stroke-width=".9999997px" stroke-linecap="butt" stroke-linejoin="miter" stroke-opacity="1"/>
  <path d="M 42 40.375 A 20.625 6.75 0 1 1  0.75,40.375 A 20.625 6.75 0 1 1  42 40.375 z" transform="matrix(0.945455,0,0,1.037038,-0.70909,-1.870402)" opacity=".67782427" fill="url(#x)" fill-opacity="1" stroke="none" stroke-width="1" stroke-linecap="round" stroke-linejoin="round" stroke-miterlimit="4" stroke-dasharray="none" stroke-dashoffset="0" stroke-opacity="1"/>
  <path d="M 19.000001,1.4999995 C 14.584003,1.4999995 10.469671,2.8826195 10.469671,3.9870057 L 10.469671,5.0498775 C 7.711653,5.3822281 4.5000007,6.568116 4.5000007,7.9258838 L 4.5000007,40.499781 C 4.5000007,45.824572 34.500001,45.842231 34.500001,40.499781 L 34.500001,7.9258838 C 34.500001,6.4192974 30.760307,5.2316463 27.486137,4.8935729 L 27.486137,3.9870057 C 27.486137,2.8826195 23.415999,1.4999995 19.000001,1.4999995 z " fill="url(#y)" fill-opacity="1" stroke="#989898" stroke-width=".9999997" stroke-linecap="round" stroke-linejoin="round" stroke-miterlimit="4" stroke-dashoffset="0" stroke-opacity="1"/>
  <path d="M 5.0000007,8.3498643 C 5.0000007,4.0465551 34.000001,3.9549641 34.000001,8.3498643 L 34.000001,18.976571 C 34.000001,22.890295 5.0000007,23.123947 5.0000007,18.976571 L 5.0000007,8.3498643 z " fill="url(#z)" fill-opacity="1" stroke="none" stroke-width=".99999952" stroke-linecap="round" stroke-linejoin="round" stroke-miterlimit="4" stroke-dashoffset="0" stroke-opacity="1"/>
  <path d="M 5.499999,8.8228721 C 5.499999,4.548424 33.500003,4.4641606 33.500003,8.8228721 L 33.500003,39.725522 C 33.500003,44.766475 5.499999,44.749812 5.499999,39.725522 L 5.499999,8.8228721 z " fill="none" fill-opacity="1" stroke="url(#A)" stroke-width=".99999952" stroke-linecap="round" stroke-linejoin="round" stroke-miterlimit="4" stroke-dashoffset="0" stroke-opacity="1"/>
  <path d="M 33.999985,8.3899444 C 33.999985,10.212648 27.503989,11.691943 19.499993,11.691943 C 11.495997,11.691943 5,10.212648 5,8.3899444 C 5,6.5672415 11.495997,5.0879464 19.499993,5.0879464 C 27.503989,5.0879464 33.999985,6.5672415 33.999985,8.3899444 z " fill="#fff" fill-opacity=".55364805" stroke="none" stroke-width=".92856455" stroke-linecap="round" stroke-linejoin="round" stroke-miterlimit="4" stroke-dashoffset="0" stroke-opacity=".7372549"/>
  <path d="M 32.765958 7.8297873 A 13.191489 2.8085105 0 1 1  6.3829794,7.8297873 A 13.191489 2.8085105 0 1 1  32.765958 7.8297873 z" transform="matrix(1.059079,0,0,1.068181,-1.230908,0.136368)" opacity="1" fill="none" fill-opacity="1" stroke="url(#B)" stroke-width=".94018507" stroke-linecap="round" stroke-linejoin="round" stroke-miterlimit="4" stroke-dasharray="none" stroke-dashoffset="0" stroke-opacity="1"/>
  <path d="M 19.000001,2 C 14.584003,2 11.000001,2.8960003 11.000001,4 L 11.000001,7 C 11.000001,8.1039997 14.584004,9 19.000001,9 C 23.415999,9 27.000001,8.1039998 27.000001,7 L 27.000001,4 C 27.000001,2.8960003 23.415999,2 19.000001,2 z " fill="url(#C)" fill-opacity="1" stroke="none" stroke-width="1.06675684" stroke-linecap="round" stroke-linejoin="round" stroke-miterlimit="4" stroke-dashoffset="0" stroke-opacity="1"/>
  <path d="M 23.234043 6.2127662 A 4.2978725 1.1914893 0 1 1  14.638298,6.2127662 A 4.2978725 1.1914893 0 1 1  23.234043 6.2127662 z" transform="matrix(1.861385,0,0,1.669899,-16.2475,-6.281579)" opacity="1" fill="#fff" fill-opacity=".49356223" stroke="none" stroke-width="1.06675684" stroke-linecap="round" stroke-linejoin="round" stroke-miterlimit="4" stroke-dasharray="none" stroke-dashoffset="0" stroke-opacity="1"/>
  <path d="M 23.234043 6.2127662 A 4.2978725 1.1914893 0 1 1  14.638298,6.2127662 A 4.2978725 1.1914893 0 1 1  23.234043 6.2127662 z" transform="matrix(1.74505,0,0,1.29475,-14.04456,-4.001299)" opacity="1" fill="none" fill-opacity="1" stroke="url(#D)" stroke-width=".6652779" stroke-linecap="round" stroke-linejoin="round" stroke-miterlimit="4" stroke-dasharray="none" stroke-dashoffset="0" stroke-opacity="1"/>
  <g transform="translate(66.0625,-3.871751)">
    <path d="M -20.43685,46.099889 C -21.831091,47.302971 -26.715601,48.279379 -31.339771,48.279379 C -35.963941,48.279379 -38.585329,47.302971 -37.191087,46.099889 C -35.796844,44.896813 -30.912336,43.9204 -26.288166,43.9204 C -21.663996,43.9204 -19.042606,44.896813 -20.43685,46.099889 z " fill="url(#E)" fill-opacity="1" stroke="none" stroke-width="3.00000095" stroke-linecap="round" stroke-linejoin="miter" stroke-miterlimit="4" stroke-dashoffset="0" stroke-opacity="1"/>
    <path d="M -23.519529,46.928943 C -23.519529,48.001383 -27.449155,48.871767 -32.291015,48.871767 C -37.132875,48.871767 -41.0625,48.001383 -41.0625,46.928943 C -41.0625,45.856504 -37.132875,44.986119 -32.291015,44.986119 C -27.449155,44.986119 -23.519529,45.856504 -23.519529,46.928943 z " opacity=".43096236" fill="url(#F)" fill-opacity="1" stroke="none" stroke-width="2" stroke-linecap="round" stroke-linejoin="miter" stroke-miterlimit="4" stroke-dashoffset="0" stroke-opacity="1"/>
    <path d="M -21.562515,38.371749 C -21.562515,43.891748 -25.783514,48.371747 -30.984386,48.371747 C -36.185258,48.371747 -40.406257,43.891748 -40.406257,38.371749 C -40.406257,32.85175 -36.185258,28.371751 -30.984386,28.371751 C -25.783514,28.371751 -21.562515,32.85175 -21.562515,38.371749 z " fill="url(#G)" fill-opacity="1" stroke="#8c0404" stroke-width=".99999946" stroke-linecap="round" stroke-linejoin="miter" stroke-miterlimit="4" stroke-dasharray="none" stroke-dashoffset="0" stroke-opacity="1"/>
    <path d="M -23.062489,38.371767 C -23.062489,43.063767 -26.80049,46.871766 -31.406242,46.871766 C -36.011992,46.871766 -39.749995,43.063767 -39.749995,38.371767 C -39.749995,33.679765 -36.011992,29.871765 -31.406242,29.871765 C -26.80049,29.871765 -23.062489,33.679765 -23.062489,38.371767 z " fill="none" fill-opacity="1" stroke="url(#H)" stroke-width="1.99999976" stroke-linecap="round" stroke-linejoin="miter" stroke-miterlimit="4" stroke-dasharray="none" stroke-dashoffset="0" stroke-opacity="1"/>
    <path d="M -23.562513,38.387381 C -23.562513,43.346754 -27.146513,47.371752 -31.562513,47.371752 C -35.978514,47.371752 -39.562514,43.346754 -39.562514,38.387381 C -39.562514,33.428006 -35.978514,29.403008 -31.562513,29.403008 C -27.146513,29.403008 -23.562513,33.428006 -23.562513,38.387381 z " fill="none" fill-opacity="1" stroke="url(#I)" stroke-width=".99999911" stroke-linecap="round" stroke-linejoin="miter" stroke-miterlimit="4" stroke-dasharray="none" stroke-dashoffset="0" stroke-opacity="1"/>
    <path d="M -26.625,34.318776 C -26.625,36.670026 -29.173,38.578288 -32.3125,38.578288 C -35.452,38.578288 -38,36.670026 -38,34.318776 C -38,31.967527 -35.452,30.059267 -32.3125,30.059267 C -29.173,30.059267 -26.625,31.967527 -26.625,34.318776 z " opacity=".5690377" fill="url(#J)" fill-opacity="1" stroke="none" stroke-width="2" stroke-linecap="round" stroke-linejoin="miter" stroke-miterlimit="4" stroke-dashoffset="0" stroke-opacity=".27843137"/>
    <path d="M -26.0625,38.371768 C -26.0625,42.511768 -28.7505,45.871767 -32.062501,45.871767 C -35.3745,45.871767 -38.0625,42.511768 -38.0625,38.371768 C -38.0625,34.231767 -35.3745,30.871767 -32.062501,30.871767 C -28.7505,30.871767 -26.0625,34.231767 -26.0625,38.371768 z " fill="url(#K)" fill-opacity="1" stroke="none" stroke-width="3" stroke-linecap="round" stroke-linejoin="miter" stroke-miterlimit="4" stroke-dasharray="none" stroke-dashoffset="0" stroke-opacity="1"/>
    <path d="M -32.562501,41.452086 C -33.371711,41.452086 -34.042764,41.993329 -34.042764,42.677846 C -34.042764,43.34644 -33.351973,43.871767 -32.562501,43.871767 C -31.753291,43.871767 -31.082238,43.34644 -31.082238,42.677846 C -31.082238,41.993329 -31.753291,41.452086 -32.562501,41.452086 M -31.141448,34.925313 C -31.082238,34.591015 -31.0625,34.336311 -31.0625,34.177122 C -31.0625,33.333418 -31.634869,32.871767 -32.562501,32.871767 C -33.49013,32.871767 -34.0625,33.317499 -34.0625,34.129365 C -34.0625,34.288554 -34.023026,34.575096 -33.963816,34.95715 L -33.075658,40.608381 L -32.029606,40.608381 L -31.141448,34.925313" style="text-align:start;line-height:125%" font-size="90.30408478px" font-style="normal" font-variant="normal" font-weight="700" font-stretch="normal" writing-mode="lr-tb" text-anchor="start" fill="#000" fill-opacity="1" stroke="none" stroke-width="1px" stroke-linecap="butt" stroke-linejoin="miter" stroke-opacity="1" font-family="Bitstream Charter"/>
  </g>
</svg>
