<?xml version="1.0" standalone="no"?>
<!--Created with Inkscape (http://www.inkscape.org/)-->
<svg xmlns="http://www.w3.org/2000/svg" xmlns:xlink="http://www.w3.org/1999/xlink" viewBox="0 0 48 48">
  <defs>
    <linearGradient id="h">
      <stop offset="0" stop-color="#fff" stop-opacity="1"/>
      <stop offset="1" stop-color="#fff" stop-opacity="0"/>
    </linearGradient>
    <linearGradient id="g">
      <stop offset="0" stop-color="#000" stop-opacity="1"/>
      <stop offset="1" stop-color="#000" stop-opacity="0"/>
    </linearGradient>
    <linearGradient id="e">
      <stop offset="0.0000000" stop-color="#fff" stop-opacity=".12371134"/>
      <stop offset="0.10344828" stop-color="#fff" stop-opacity="1"/>
      <stop offset="1" stop-color="#fff" stop-opacity="0"/>
    </linearGradient>
    <linearGradient id="f">
      <stop offset="0.0000000" stop-color="#bebebe" stop-opacity="1"/>
      <stop offset="1.0000000" stop-color="#acacac" stop-opacity="1"/>
    </linearGradient>
    <linearGradient id="a">
      <stop offset="0.0000000" stop-color="#fffffd" stop-opacity="1"/>
      <stop offset="0.50000000" stop-color="#bbbbb9" stop-opacity="1"/>
      <stop offset="1.0000000" stop-color="#000" stop-opacity="1"/>
    </linearGradient>
    <linearGradient id="c">
      <stop offset="0.0000000" stop-color="#666" stop-opacity="1"/>
      <stop offset="1" stop-color="#000" stop-opacity="0"/>
    </linearGradient>
    <linearGradient id="b">
      <stop offset="0" stop-color="#f7f6f5" stop-opacity="1"/>
      <stop offset="1" stop-color="#f7f6f5" stop-opacity="0"/>
    </linearGradient>
    <linearGradient id="d">
      <stop offset="0.0000000" stop-color="#e0e0e0" stop-opacity="1"/>
      <stop offset="0.40546969" stop-color="#fff" stop-opacity="1"/>
      <stop offset="0.53448278" stop-color="#cdcdcd" stop-opacity="1"/>
      <stop offset="1.0000000" stop-color="#494949" stop-opacity="1"/>
    </linearGradient>
    <radialGradient id="i" cx="20.8921" cy="64.5679" r="5.257" fx="20.8921" fy="64.5679" gradientUnits="userSpaceOnUse">
      <stop offset="0" stop-color="#f0f0f0"/>
      <stop offset="1.0000000" stop-color="#9a9a9a" stop-opacity="1"/>
    </radialGradient>
    <radialGradient r="2.1227016" fy="26.925594" fx="9.1295490" cy="26.925594" cx="9.1295490" gradientUnits="userSpaceOnUse" id="p" xlink:href="#a"/>
    <linearGradient y2="54.136139" x2="10.338233" y1="64.652260" x1="10.338233" gradientTransform="matrix(2.369844,0.000000,0.000000,0.421969,0.250000,2.000000)" gradientUnits="userSpaceOnUse" id="o" xlink:href="#b"/>
    <linearGradient y2="62.282467" x2="9.7052784" y1="70.724976" x1="9.7316532" gradientTransform="matrix(2.369844,0.000000,0.000000,0.421969,0.250000,2.000000)" gradientUnits="userSpaceOnUse" xlink:href="#c"/>
    <linearGradient y2="25.247311" x2="24.789707" y1="3.6785457" x1="25.056711" gradientTransform="matrix(0.902393,0.000000,0.000000,1.080979,1.355982,3.750001)" gradientUnits="userSpaceOnUse" id="n" xlink:href="#d"/>
    <linearGradient y2="58.831264" x2="15.487823" y1="32.539238" x1="15.387969" gradientTransform="matrix(1.495347,0.000000,0.000000,0.668741,0.250000,2.000000)" gradientUnits="userSpaceOnUse" id="m" xlink:href="#e"/>
    <linearGradient y2="88.294930" x2="18.972126" y1="88.294930" x1="1.8456430" gradientTransform="matrix(2.369080,0.000000,0.000000,0.446784,-0.439841,1.164264)" gradientUnits="userSpaceOnUse" id="l" xlink:href="#f"/>
    <radialGradient xlink:href="#g" id="k" cx="24.000000" cy="41.875000" fx="24.000000" fy="41.875000" r="19.125000" gradientTransform="matrix(1.000000,0.000000,0.000000,0.333333,0.000000,27.91667)" gradientUnits="userSpaceOnUse"/>
    <linearGradient xlink:href="#h" id="q" x1="23.457865" y1="6.9213619" x2="22.891855" y2="22.919653" gradientUnits="userSpaceOnUse"/>
    <radialGradient gradientTransform="matrix(2.010032,0,0,2.010032,133.4538,15.99756)" gradientUnits="userSpaceOnUse" fy="9.5424995" fx="9.7275" r="4.0488" cy="9.5424995" cx="9.7275" id="j">
      <stop offset="0" stop-color="#fff"/>
      <stop offset="1.256170e-002" stop-color="#f5f3f8"/>
      <stop offset="7.182755e-002" stop-color="#c7c4d9"/>
      <stop offset="0.1357" stop-color="#a19fc1"/>
      <stop offset="0.2033" stop-color="#8182af"/>
      <stop offset="0.2758" stop-color="#696ca2"/>
      <stop offset="0.355" stop-color="#555c99"/>
      <stop offset="0.4444" stop-color="#495193"/>
      <stop offset="0.5524" stop-color="#424c8f"/>
      <stop offset="0.7303" stop-color="#3f4a8e"/>
      <stop offset="0.8388" stop-color="#3a4a92"/>
      <stop offset="0.997" stop-color="#2c499e"/>
      <stop offset="1" stop-color="#2c499e"/>
    </radialGradient>
    <radialGradient xlink:href="#i" id="r" gradientUnits="userSpaceOnUse" gradientTransform="translate(143.2789,25.63579)" cx="20.8921" cy="64.5679" fx="20.8921" fy="64.5679" r="5.257"/>
    <radialGradient xlink:href="#j" id="s" gradientUnits="userSpaceOnUse" gradientTransform="matrix(2.010032,0,0,2.010032,133.4538,15.99756)" cx="9.7275" cy="9.5424995" fx="9.7275" fy="9.5424995" r="4.0488"/>
  </defs>
  <metadata/>
  <path style="marker:none" d="M 43.125000 41.875000 A 19.125000 6.3750000 0 1 1  4.8750000,41.875000 A 19.125000 6.3750000 0 1 1  43.125000 41.875000 z" transform="translate(0.250000,-3.084646)" opacity="1" color="#000" fill="url(#k)" fill-opacity="1" fill-rule="nonzero" stroke="none" stroke-width="4" stroke-linecap="round" stroke-linejoin="round" marker-start="none" marker-mid="none" marker-end="none" stroke-miterlimit="4" stroke-dasharray="none" stroke-dashoffset="0" stroke-opacity="1" visibility="visible" display="inline" overflow="visible"/>
  <rect style="marker:none" width="27.842913" height="21.292278" x="10.266064" y="3.1819868" rx="2.1142771" ry="2.1142764" opacity="1" color="#000" fill="none" fill-opacity="1" fill-rule="nonzero" stroke="#000" stroke-width="2.0000007" stroke-linecap="round" stroke-linejoin="round" marker-start="none" marker-mid="none" marker-end="none" stroke-miterlimit="4" stroke-dasharray="none" stroke-dashoffset="0" stroke-opacity="1" visibility="visible" display="inline" overflow="visible"/>
  <path d="M 6.6580244,21.226215 L 41.216955,21.226215 C 41.614980,21.226215 42.123551,21.522674 42.437180,21.970996 C 42.750809,22.419319 44.232185,24.656232 44.564966,25.133629 C 44.897748,25.611024 44.971162,26.063565 44.971162,26.652252 L 44.971162,39.077186 C 44.971162,40.017086 44.214491,40.773757 43.274591,40.773757 L 4.6003884,40.773757 C 3.6604881,40.773757 2.9038175,40.017086 2.9038175,39.077186 L 2.9038175,26.652252 C 2.9038175,26.143997 3.0083937,25.415193 3.3652718,24.951275 C 3.8156035,24.365872 5.0236994,22.329900 5.3423518,21.898155 C 5.6610042,21.466410 6.2461429,21.226215 6.6580244,21.226215 z " style="marker:none" color="#000" fill="url(#l)" fill-opacity="1" fill-rule="nonzero" stroke="#000" stroke-width="1.9999992" stroke-linecap="butt" stroke-linejoin="miter" marker-start="none" marker-mid="none" marker-end="none" stroke-miterlimit="4" stroke-dasharray="none" stroke-dashoffset="0" stroke-opacity="1" visibility="visible" display="inline" overflow="visible"/>
  <path d="M 7.6746212,21.975532 C 7.1718931,21.975532 6.5254774,22.107308 6.2604077,22.511224 L 4.4042523,25.339651 C 4.1054517,25.794966 4.4381986,26.868141 5.3373106,26.868141 L 42.538844,26.868141 C 43.755040,26.868141 43.758592,25.858073 43.471902,25.428039 L 41.704135,22.776389 C 41.383602,22.295589 41.267257,21.975532 40.466698,21.975532 L 7.6746212,21.975532 z " fill="#f3f3f3" fill-opacity="1" fill-rule="evenodd" stroke="none" stroke-width="1px" stroke-linecap="butt" stroke-linejoin="miter" stroke-opacity="1"/>
  <path style="marker:none" d="M 7.6107072,22.445756 L 40.175904,22.445756 C 40.542262,22.445756 41.010373,22.718629 41.299050,23.131283 C 41.587727,23.543938 42.597694,25.160945 42.904000,25.600360 C 43.210306,26.039775 43.340380,26.456312 43.340380,26.998164 L 43.340380,38.279261 C 43.340380,39.144385 43.206408,39.528356 42.341285,39.528356 L 5.5337150,39.528356 C 4.6685916,39.528356 4.4721204,39.144385 4.4721204,38.279261 L 4.4721204,26.998164 C 4.4721204,26.530345 4.6933766,25.859523 5.0218621,25.432514 C 5.4363663,24.893685 6.1064063,23.461633 6.3997073,23.064237 C 6.6930083,22.666841 7.2315943,22.445756 7.6107072,22.445756 z " color="#000" fill="none" fill-opacity="1" fill-rule="nonzero" stroke="url(#m)" stroke-width=".94696701" stroke-linecap="butt" stroke-linejoin="miter" marker-start="none" marker-mid="none" marker-end="none" stroke-miterlimit="4" stroke-dashoffset="0" stroke-opacity="1" visibility="visible" display="inline" overflow="visible"/>
  <path d="M 12.446422,4.1564048 L 35.969445,4.1564048 C 36.590402,4.1564048 37.090306,4.6688804 37.090306,5.3054531 C 37.090306,5.3054531 37.090306,24.095887 37.090306,24.095887 L 11.325561,24.095887 L 11.325561,5.3054531 C 11.325561,4.6688804 11.825465,4.1564048 12.446422,4.1564048 z " style="marker:none" color="#000" fill="url(#n)" fill-opacity="1" fill-rule="nonzero" stroke="none" stroke-width="2" stroke-linecap="round" stroke-linejoin="miter" marker-start="none" marker-mid="none" marker-end="none" stroke-miterlimit="4" stroke-dasharray="none" stroke-dashoffset="0" stroke-opacity="1" visibility="visible" display="block" overflow="visible"/>
  <rect ry="1.7115483" rx="1.7115483" y="27.375000" x="7.1250000" height="5.1875000" width="33.750000" fill="url(#o)" fill-opacity="1" stroke="url(#linearGradient1453)" stroke-width="1" stroke-miterlimit="4" stroke-opacity="1"/>
  <path transform="translate(0.250000,2.000000)" d="M 10.871767 27.626486 A 1.2816310 1.2816310 0 1 1  8.3085046,27.626486 A 1.2816310 1.2816310 0 1 1  10.871767 27.626486 z" fill="url(#p)" fill-opacity="1" stroke="none" stroke-width="1" stroke-miterlimit="4" stroke-opacity="1"/>
  <path d="M 11.993718,25.416053 L 37.556218,25.478553 C 38.243716,25.480234 38.544038,25.107558 38.493718,24.478553 L 38.368718,22.916053 L 40.234835,22.916053 C 41.047335,22.916053 41.225035,23.108616 41.422335,23.478553 L 41.922335,24.416053 C 42.449130,25.403793 43.733508,26.390165 42.420495,26.390165 C 37.917784,26.390165 14.243718,26.041053 11.993718,25.416053 z " fill="#e3e3e3" fill-opacity="1" fill-rule="evenodd" stroke="none" stroke-width="1px" stroke-linecap="butt" stroke-linejoin="miter" stroke-opacity="1"/>
  <path d="M 43.187500,26.750000 L 5.0625000,26.750000" fill="none" fill-opacity=".75" fill-rule="evenodd" stroke="#fff" stroke-width="1px" stroke-linecap="round" stroke-linejoin="round" stroke-opacity="1"/>
  <g transform="translate(0.250000,2.000000)" opacity=".43575415">
    <rect style="marker:none" width="19.000000" height="1.0000000" x="14.000000" y="5.0000000" color="#000" fill="#000" fill-opacity=".29239765" fill-rule="nonzero" stroke="none" stroke-width="1" stroke-linecap="round" stroke-linejoin="round" marker-start="none" marker-mid="none" marker-end="none" stroke-miterlimit="4" stroke-dashoffset="0" stroke-opacity="1" visibility="visible" display="inline" overflow="visible"/>
    <rect y="7.0000000" x="14.000000" height="1.0000000" width="19.000000" style="marker:none" color="#000" fill="#000" fill-opacity=".29239765" fill-rule="nonzero" stroke="none" stroke-width="1" stroke-linecap="round" stroke-linejoin="round" marker-start="none" marker-mid="none" marker-end="none" stroke-miterlimit="4" stroke-dashoffset="0" stroke-opacity="1" visibility="visible" display="inline" overflow="visible"/>
    <rect style="marker:none" width="19.000000" height="1.0000000" x="14.000000" y="9.0000000" color="#000" fill="#000" fill-opacity=".29239765" fill-rule="nonzero" stroke="none" stroke-width="1" stroke-linecap="round" stroke-linejoin="round" marker-start="none" marker-mid="none" marker-end="none" stroke-miterlimit="4" stroke-dashoffset="0" stroke-opacity="1" visibility="visible" display="inline" overflow="visible"/>
    <rect y="11.000000" x="14.000000" height="1.0000000" width="19.000000" style="marker:none" color="#000" fill="#000" fill-opacity=".29239765" fill-rule="nonzero" stroke="none" stroke-width="1" stroke-linecap="round" stroke-linejoin="round" marker-start="none" marker-mid="none" marker-end="none" stroke-miterlimit="4" stroke-dashoffset="0" stroke-opacity="1" visibility="visible" display="inline" overflow="visible"/>
    <rect style="marker:none" width="11.000000" height="1.0000000" x="14.000000" y="13.000000" color="#000" fill="#000" fill-opacity=".29239765" fill-rule="nonzero" stroke="none" stroke-width="1" stroke-linecap="round" stroke-linejoin="round" marker-start="none" marker-mid="none" marker-end="none" stroke-miterlimit="4" stroke-dashoffset="0" stroke-opacity="1" visibility="visible" display="inline" overflow="visible"/>
    <rect style="marker:none" width="19.000000" height="1.0000000" x="14.000000" y="17.000000" color="#000" fill="#000" fill-opacity=".29239765" fill-rule="nonzero" stroke="none" stroke-width="1" stroke-linecap="round" stroke-linejoin="round" marker-start="none" marker-mid="none" marker-end="none" stroke-miterlimit="4" stroke-dashoffset="0" stroke-opacity="1" visibility="visible" display="inline" overflow="visible"/>
    <rect y="19.000000" x="14.000000" height="1.0000000" width="19.000000" style="marker:none" color="#000" fill="#000" fill-opacity=".29239765" fill-rule="nonzero" stroke="none" stroke-width="1" stroke-linecap="round" stroke-linejoin="round" marker-start="none" marker-mid="none" marker-end="none" stroke-miterlimit="4" stroke-dashoffset="0" stroke-opacity="1" visibility="visible" display="inline" overflow="visible"/>
  </g>
  <rect ry="0.75000149" rx="0.75000155" y="4.6626158" x="11.760272" height="18.836405" width="24.862108" style="marker:none" opacity="1" color="#000" fill="none" fill-opacity="1" fill-rule="nonzero" stroke="url(#q)" stroke-width="1.0000005" stroke-linecap="round" stroke-linejoin="round" marker-start="none" marker-mid="none" marker-end="none" stroke-miterlimit="4" stroke-dasharray="none" stroke-dashoffset="0" stroke-opacity="1" visibility="visible" display="inline" overflow="visible"/>
  <g transform="matrix(1.789474,0,0,1.789474,-251.3251,-48.16814)">
    <path d="M 147.67891,35.935786 C 147.67891,39.135786 150.27891,41.835786 153.57891,41.835786 C 154.47891,41.835786 155.47891,41.635786 156.27891,41.135786 C 156.37891,41.235786 156.47891,41.435786 156.57891,41.535786 L 159.77891,44.735786 C 160.47891,45.435786 161.57891,45.435786 162.37891,44.735786 C 162.77891,44.335786 162.87891,43.935786 162.87891,43.435786 C 162.87891,42.935786 162.67891,42.535786 162.37891,42.135786 L 159.17891,38.935786 C 159.07891,38.835786 158.87891,38.735786 158.77891,38.635786 C 159.17891,37.835786 159.47891,36.835786 159.47891,35.835786 C 159.47891,32.635786 156.87891,29.935786 153.57891,29.935786 C 150.37891,29.935786 147.67891,32.535786 147.67891,35.835786 L 147.67891,35.935786 z M 150.47891,35.935786 C 150.47891,34.235786 151.87891,32.835786 153.57891,32.835786 C 155.27891,32.835786 156.67891,34.235786 156.67891,35.935786 C 156.67891,37.635786 155.27891,39.035786 153.57891,39.035786 C 151.87891,39.035786 150.47891,37.635786 150.47891,35.935786 L 150.47891,35.935786 z " fill="#000" fill-rule="nonzero" stroke="none" stroke-width=".45429999" stroke-linecap="round" stroke-miterlimit="4"/>
    <path d="M 161.87891,42.735786 L 158.67891,39.535786 C 158.37891,39.235786 157.97891,39.135786 157.57891,39.235786 C 158.27891,38.335786 158.77891,37.235786 158.77891,35.935786 C 158.77891,33.135786 156.47891,30.835786 153.67891,30.835786 C 150.87891,30.835786 148.57891,33.135786 148.57891,35.935786 C 148.57891,38.735786 150.87891,41.035786 153.67891,41.035786 C 154.87891,41.035786 156.07891,40.635786 156.97891,39.835786 C 156.87891,40.235786 156.97891,40.635786 157.27891,40.935786 L 160.47891,44.135786 C 160.87891,44.535786 161.57891,44.535786 161.97891,44.135786 C 162.37891,43.735786 162.37891,43.035786 161.97891,42.635786 L 161.87891,42.735786 z M 153.57891,39.735786 C 151.47891,39.735786 149.77891,38.035786 149.77891,35.935786 C 149.77891,33.835786 151.47891,32.135786 153.57891,32.135786 C 155.67891,32.135786 157.37891,33.835786 157.37891,35.935786 C 157.37891,38.035786 155.67891,39.735786 153.57891,39.735786 L 153.57891,39.735786 z " fill="#919191" fill-rule="nonzero" stroke="none" stroke-width=".45429999" stroke-linecap="round" stroke-miterlimit="4"/>
    <path d="M 158.67891,39.435786 L 157.17891,40.935786 L 160.37891,44.135786 L 161.87891,42.635786 L 158.67891,39.435786 L 158.67891,39.435786 z " fill="url(#r)" fill-rule="nonzero" stroke="none" stroke-width=".45429999" stroke-linecap="round" stroke-miterlimit="4"/>
    <path d="M 158.17891,39.935786 L 161.27891,43.035786" opacity=".54000005" fill="none" fill-rule="nonzero" stroke="#fff" stroke-width=".5076912" stroke-linecap="round" stroke-miterlimit="4"/>
    <path d="M 148.67891,35.835786 C 148.67891,33.235786 150.77891,31.035786 153.47891,31.035786" opacity=".5" fill="none" fill-rule="nonzero" stroke="#fff" stroke-width=".25387353" stroke-linecap="round" stroke-miterlimit="4"/>
    <path d="M 157.67891,35.835786 C 157.67891,38.135786 155.77891,40.035786 153.47891,40.035786" opacity=".5" fill="none" fill-rule="nonzero" stroke="#fff" stroke-width=".25387353" stroke-linecap="round" stroke-miterlimit="4"/>
    <path d="M 156.67891,35.935786 C 156.67891,37.635786 155.27891,39.035786 153.57891,39.035786 C 151.87891,39.035786 150.47891,37.635786 150.47891,35.935786 C 150.47891,34.235786 151.87891,32.835786 153.57891,32.835786 C 155.27891,32.835786 156.67891,34.235786 156.67891,35.935786 z " opacity=".47000002" fill="url(#s)" fill-rule="nonzero" stroke="none" stroke-width=".45429999" stroke-linecap="round" stroke-miterlimit="4"/>
  </g>
</svg>
