<?xml version="1.0" standalone="no"?>
<!--Generator: Adobe Illustrator 9.0, SVG Export Plug-In-->
<svg xmlns="http://www.w3.org/2000/svg" viewBox="0 0 24 24">
  <metadata/>
  <g fill-rule="nonzero" stroke="#000" stroke-miterlimit="4">
    <path d="M 2.4,2.9 C 1.7,2.9 1.2,3.4 1.2,4.1 L 1.2,20.3 C 1.2,21 1.7,21.5 2.4,21.5 L 18.7,21.5 C 19.4,21.5 19.9,21 19.9,20.3 L 19.9,4.1 C 19.9,3.4 19.4,2.9 18.7,2.9 L 2.4,2.9 L 2.4,2.9 z " stroke-width=".5" stroke-miterlimit="4" stroke-dasharray="none"/>
    <linearGradient id="a" gradientUnits="userSpaceOnUse" x1="4.1273999" y1="4.8804002" x2="17.7295" y2="20.198799">
      <stop offset="0" stop-color="#f8faeb"/>
      <stop offset="0.1196" stop-color="#f2f4e4"/>
      <stop offset="0.2647" stop-color="#e0e1d3"/>
      <stop offset="0.4232" stop-color="#c3c4b7"/>
      <stop offset="0.591" stop-color="#9d9e93"/>
      <stop offset="0.7664" stop-color="#707169"/>
      <stop offset="0.9454" stop-color="#3f3f3b"/>
      <stop offset="1" stop-color="#2f2f2c"/>
    </linearGradient>
    <path d="M 19.2,20.3 C 19.2,20.5 19,20.7 18.8,20.7 L 2.4,20.7 C 2.2,20.7 2,20.5 2,20.3 L 2,4.1 C 2,3.9 2.2,3.7 2.4,3.7 L 18.7,3.7 C 18.9,3.7 19.1,3.9 19.1,4.1 L 19.1,20.3 L 19.2,20.3 z " fill="url(#a)" stroke="none"/>
    <linearGradient id="b" gradientUnits="userSpaceOnUse" x1="17.2227" y1="19.096701" x2="4.6416998" y2="5.9401999">
      <stop offset="0" stop-color="#dedfce"/>
      <stop offset="1" stop-color="#c2c4b5"/>
    </linearGradient>
    <path d="M 2.9,4.5 L 2.9,19.8 L 18.4,19.8 L 18.4,4.5 L 2.9,4.5 z " fill="url(#b)" stroke="none"/>
    <path d="M 6.8,2.1 L 14.6,2.1 L 14.6,4.6 L 15.8,5.8 L 5.7,5.8 L 6.9,4.6 L 6.9,2.1 L 6.8,2.1 z " fill="none" stroke-width="1.5" stroke-linecap="round" stroke-linejoin="round" stroke-miterlimit="4" stroke-dasharray="none"/>
    <linearGradient id="c" gradientUnits="userSpaceOnUse" x1="10.7598" y1="2.2788" x2="10.7598" y2="5.8457999">
      <stop offset="5.618000e-003" stop-color="#ededed"/>
      <stop offset="0.1404" stop-color="#909090"/>
      <stop offset="1" stop-color="#cfcfcf"/>
    </linearGradient>
    <path d="M 6.8,2.1 L 14.6,2.1 L 14.6,4.6 L 15.8,5.8 L 5.7,5.8 L 6.9,4.6 L 6.9,2.1 L 6.8,2.1 z " fill="url(#c)" stroke="none"/>
  </g>
  <g fill-rule="nonzero" stroke="#000" stroke-miterlimit="4">
    <path d="M 8.9,8.8 C 8.1,8.8 7.5,9.4 7.5,10.2 L 7.5,21.4 C 7.5,22.2 8.1,22.8 8.9,22.8 L 21.3,22.8 C 22.1,22.8 22.7,22.2 22.7,21.4 L 22.7,10.1 C 22.7,9.3 22.1,8.7 21.3,8.7 L 8.9,8.7 L 8.9,8.8 z " stroke-width=".5" stroke-miterlimit="4" stroke-dasharray="none"/>
    <path d="M 21.9,21.3 C 21.9,21.6 21.7,21.8 21.4,21.8 L 8.9,21.8 C 8.6,21.8 8.4,21.6 8.4,21.3 L 8.4,10.1 C 8.4,9.8 8.6,9.6 8.9,9.6 L 21.3,9.6 C 21.6,9.6 21.8,9.8 21.8,10.1 L 21.8,21.3 L 21.9,21.3 z " fill="#fff" stroke="none"/>
    <linearGradient id="d" gradientUnits="userSpaceOnUse" x1="19.710899" y1="19.8584" x2="10.8246" y2="11.8501">
      <stop offset="0" stop-color="#fff"/>
      <stop offset="1" stop-color="#ededed"/>
    </linearGradient>
    <path d="M 8.9,10 C 8.8,10 8.8,10 8.8,10.1 L 8.8,21.3 C 8.8,21.4 8.8,21.4 8.9,21.4 L 21.3,21.4 C 21.4,21.4 21.4,21.4 21.4,21.3 L 21.4,10.1 C 21.4,10 21.4,10 21.3,10 L 8.9,10 z " fill="url(#d)" stroke="none"/>
    <g stroke="none">
      <path d="M 19.5,19.4 L 11,19.4 L 11,17.9 L 19.5,17.9 L 19.5,19.4 z " opacity=".27000002"/>
      <path d="M 19.5,16.4 L 11,16.4 L 11,15 L 19.5,15 L 19.5,16.5 L 19.5,16.4 z " opacity=".27000002"/>
      <path d="M 19.5,13.5 L 11,13.5 L 11,12 L 19.5,12 L 19.5,13.5 z " opacity=".27000002"/>
    </g>
  </g>
  <path d="M 24,24 L 0,24 L 0,0 L 24,0 L 24,24 z " fill="none" stroke="none" fill-rule="nonzero" stroke-miterlimit="4"/>
</svg>
