<?xml version="1.0" standalone="no"?>
<!--Created with Inkscape (http://www.inkscape.org/)-->
<svg xmlns="http://www.w3.org/2000/svg" xmlns:xlink="http://www.w3.org/1999/xlink" viewBox="0 0 48 48">
  <defs>
    <radialGradient id="c" cx="9.125" cy="8.0234003" r="12.2634" fx="9.125" fy="8.0234003" gradientUnits="userSpaceOnUse">
      <stop offset="0" stop-color="#fff"/>
      <stop offset="1" stop-color="#f0e1bd"/>
    </radialGradient>
    <radialGradient id="b" cx="8.8256998" cy="7.9790001" r="13.6745" fx="8.8256998" fy="7.9790001" gradientUnits="userSpaceOnUse">
      <stop offset="0" stop-color="#fed182"/>
      <stop offset="0.2809" stop-color="#ffb310"/>
      <stop offset="1" stop-color="#996e04"/>
    </radialGradient>
    <radialGradient gradientUnits="userSpaceOnUse" gradientTransform="matrix(1,0,0,0.540541,-4.440894e-16,16.08108)" r="18.500000" fy="35.000000" fx="23.500000" cy="35.000000" cx="23.500000" id="d" xlink:href="#a"/>
    <radialGradient gradientTransform="matrix(1.992984,0,0,1.992984,0.946094,-5.390644e-2)" r="13.5742" fy="7.9097" fx="8.7339" cy="7.9097" cx="8.7339" gradientUnits="userSpaceOnUse" id="e" xlink:href="#b"/>
    <linearGradient id="a">
      <stop offset="0" stop-color="#000" stop-opacity="1"/>
      <stop offset="1" stop-color="#000" stop-opacity="0"/>
    </linearGradient>
    <radialGradient xlink:href="#c" id="f" gradientUnits="userSpaceOnUse" gradientTransform="matrix(1.686106,0,0,1.686106,3.963978,1.930135)" cx="9.125" cy="8.0234003" fx="9.125" fy="8.0234003" r="12.2634"/>
  </defs>
  <metadata/>
  <g transform="translate(-0.4633,-0.567824)">
    <path transform="matrix(1,0,0,1.371231,0.353553,-15.9983)" d="M 42 35 A 18.5 10 0 1 1  5,35 A 18.5 10 0 1 1  42 35 z" style="marker:none" opacity="1" color="#000" fill="url(#d)" fill-opacity="1" fill-rule="evenodd" stroke="none" stroke-width="2" stroke-linecap="butt" stroke-linejoin="miter" marker-start="none" marker-mid="none" marker-end="none" stroke-miterlimit="4" stroke-dasharray="none" stroke-dashoffset="0" stroke-opacity="1" visibility="visible" display="inline" overflow="visible"/>
    <path d="M 42.998053,23.463303 C 42.998053,33.62752 34.62752,41.998053 24.463302,41.998053 C 14.299084,41.998053 5.9285525,33.62752 5.9285525,23.463303 C 5.9285525,13.299085 14.299084,4.9285534 24.463302,4.9285534 C 34.62752,4.9285534 42.998053,13.299085 42.998053,23.463303 z " fill="url(#e)" fill-rule="evenodd" stroke="#000" stroke-width="2.00000072" stroke-miterlimit="4" stroke-dasharray="none" stroke-opacity="1"/>
  </g>
  <path d="M 34.988336,19.12842 L 32.121955,16.936482 L 32.121955,13.058437 L 28.412521,13.058437 L 28.412521,14.238712 L 25.040308,11.709552 C 24.365866,11.20372 23.522813,11.20372 22.84837,11.709552 L 12.731732,19.12842 C 12.057289,19.634252 11.888678,20.477306 12.057289,21.151748 C 12.39451,21.994801 13.068953,22.500633 13.912006,22.500633 C 13.912006,22.500633 14.417838,22.500633 14.92367,22.500633 C 14.92367,24.861182 14.92367,29.750891 14.92367,29.750891 C 14.92367,30.762555 15.766723,31.605608 16.778387,31.605608 L 31.278902,31.605608 C 32.290566,31.605608 33.133619,30.762555 33.133619,29.750891 C 33.133619,29.750891 33.133619,24.861182 33.133619,22.500633 C 33.47084,22.500633 33.976672,22.500633 33.976672,22.500633 C 34.819726,22.500633 35.470326,22.147811 35.809292,21.306428 C 36.188158,20.366007 35.319792,19.393585 34.988336,19.12842 z " fill="url(#f)" fill-rule="evenodd" stroke="none" stroke-miterlimit="4"/>
</svg>
