<?xml version="1.0" standalone="no"?>
<!--Created with Inkscape (http://www.inkscape.org/)-->
<svg xmlns="http://www.w3.org/2000/svg" xmlns:xlink="http://www.w3.org/1999/xlink" viewBox="0 0 48 48">
  <defs>
    <linearGradient id="a">
      <stop offset="0.0000000" stop-color="#fff" stop-opacity=".42603549"/>
      <stop offset="1" stop-color="#fff" stop-opacity="0"/>
    </linearGradient>
    <radialGradient id="d" cx="17.7881" cy="15.2314" r="29.6346" fx="17.7881" fy="15.2314" gradientUnits="userSpaceOnUse">
      <stop offset="0" stop-color="#99bba8"/>
      <stop offset="4.483276e-002" stop-color="#94b8a9"/>
      <stop offset="9.596599e-002" stop-color="#87b0a9"/>
      <stop offset="0.1502" stop-color="#72a1a9"/>
      <stop offset="0.2065" stop-color="#538fa8"/>
      <stop offset="0.264" stop-color="#2e79a7"/>
      <stop offset="0.2865" stop-color="#1d70a5"/>
      <stop offset="0.8539" stop-color="#190f50"/>
      <stop offset="1" stop-color="#585287"/>
    </radialGradient>
    <radialGradient id="c" cx="17.0264" cy="15.0728" r="24.3844" fx="17.0264" fy="15.0728" gradientUnits="userSpaceOnUse">
      <stop offset="0" stop-color="#d5d690"/>
      <stop offset="0.2202" stop-color="#cfd08c"/>
      <stop offset="0.4404" stop-color="#bfbf80"/>
      <stop offset="0.6607" stop-color="#a4a46d"/>
      <stop offset="0.8799" stop-color="#828257"/>
      <stop offset="0.927" stop-color="#7a7a52"/>
      <stop offset="1" stop-color="#9c9c68"/>
    </radialGradient>
    <radialGradient id="b" cx="19.5713" cy="16.7095" r="21.0888" fx="19.5713" fy="16.7095" gradientUnits="userSpaceOnUse">
      <stop offset="0" stop-color="#d5d690"/>
      <stop offset="0.2202" stop-color="#cfd08c"/>
      <stop offset="0.4404" stop-color="#bfbf80"/>
      <stop offset="0.6607" stop-color="#a4a46d"/>
      <stop offset="0.8799" stop-color="#828257"/>
      <stop offset="0.927" stop-color="#7a7a52"/>
      <stop offset="1" stop-color="#9c9c68"/>
    </radialGradient>
    <linearGradient xlink:href="#a" id="h" x1="19.878138" y1="8.8922558" x2="30.112162" y2="27.162256" gradientUnits="userSpaceOnUse"/>
    <radialGradient xlink:href="#b" id="g" gradientUnits="userSpaceOnUse" gradientTransform="matrix(0.979653,0.000000,0.000000,0.979653,1.598627,-0.828283)" cx="19.571301" cy="16.709499" fx="19.571301" fy="16.709499" r="21.088800"/>
    <radialGradient xlink:href="#c" id="f" gradientUnits="userSpaceOnUse" gradientTransform="matrix(0.979653,0.000000,0.000000,0.979653,1.598627,-0.828283)" cx="17.026400" cy="15.072800" fx="17.026400" fy="15.072800" r="24.384399"/>
    <radialGradient xlink:href="#d" id="e" gradientUnits="userSpaceOnUse" gradientTransform="matrix(0.896411,-3.072923e-16,3.072923e-16,0.896411,3.195715,0.597587)" cx="17.788099" cy="15.231400" fx="17.788099" fy="15.231400" r="29.634600"/>
  </defs>
  <metadata/>
  <path d="M 45.052803 38.908627 A 20.203051 7.4751287 0 1 1  4.6467018,38.908627 A 20.203051 7.4751287 0 1 1  45.052803 38.908627 z" transform="matrix(0.826759,0,0,1.027863,4.555,-1.64223)" opacity=".2" fill="#000" fill-opacity="1" stroke="none" stroke-opacity="1"/>
  <path d="M 6.2723020,22.487469 C 6.2723020,32.964738 14.731015,41.423452 25.208286,41.423452 C 35.685555,41.423452 44.144269,32.964738 44.144269,22.487469 C 44.144269,12.010198 35.685555,3.5514851 25.208286,3.5514851 C 14.731015,3.5514851 6.2723020,12.010198 6.2723020,22.487469 L 6.2723020,22.487469 z " fill="url(#e)" fill-opacity="1" fill-rule="evenodd" stroke="#000" stroke-width="2" stroke-miterlimit="4" stroke-dasharray="none" stroke-opacity="1"/>
  <path d="M 22.759142,10.927553 L 27.363511,14.846165 L 29.518748,11.025519 L 32.653638,14.454304 L 27.265546,17.589194 L 26.579789,22.291528 L 27.657407,24.250834 L 26.579789,24.250834 L 25.208275,22.291528 L 20.799836,22.291528 L 19.134426,25.230487 L 23.444899,27.777585 L 29.714679,31.402301 L 24.522518,35.712774 L 24.522518,40.023247 L 20.603906,31.010440 L 22.171350,28.267411 L 17.566981,25.230487 L 17.566981,21.409840 L 15.411745,13.572616 L 12.864647,12.103137 L 13.158543,9.3601085 L 16.783259,7.0089413 L 16.783259,10.045866 L 22.759142,10.927553 z " fill="url(#f)" fill-opacity="1" fill-rule="evenodd" stroke="none" stroke-miterlimit="4"/>
  <path d="M 36.180388,8.6743514 L 36.180388,11.123484 L 37.551903,13.572616 L 37.551903,17.393263 L 39.707139,18.666812 L 40.001035,16.217679 L 38.727486,13.866512 L 40.588827,13.866512 L 36.180388,8.6743514 z " fill="url(#g)" fill-opacity="1" fill-rule="evenodd" stroke="none" stroke-miterlimit="4"/>
  <path style="marker:none" d="M 44.000000 23.142857 A 18.000000 18.000000 0 1 1  8.0000000,23.142857 A 18.000000 18.000000 0 1 1  44.000000 23.142857 z" transform="matrix(0.967579,0.000000,0.000000,0.967579,-3.206088e-2,0.161024)" opacity="1" color="#000" fill="none" fill-opacity="1" fill-rule="evenodd" stroke="url(#h)" stroke-width="1.0909252" stroke-linecap="round" stroke-linejoin="round" marker-start="none" marker-mid="none" marker-end="none" stroke-miterlimit="4" stroke-dasharray="none" stroke-dashoffset="0" stroke-opacity="1" visibility="visible" display="inline" overflow="visible"/>
</svg>
