<?xml version="1.0" encoding="UTF-8" standalone="no"?>
<!-- Generator: Adobe Illustrator 19.0.0, SVG Export Plug-In . SVG Version: 6.00 Build 0)  -->

<svg
   version="1.1"
   id="Layer_1"
   x="0px"
   y="0px"
   viewBox="0 0 1400 980"
   style="enable-background:new 0 0 1400 980;"
   xml:space="preserve"
   sodipodi:docname="svg.svg"
   inkscape:version="1.1.2 (0a00cf5339, 2022-02-04)"
   xmlns:inkscape="http://www.inkscape.org/namespaces/inkscape"
   xmlns:sodipodi="http://sodipodi.sourceforge.net/DTD/sodipodi-0.dtd"
   xmlns="http://www.w3.org/2000/svg"
   xmlns:svg="http://www.w3.org/2000/svg"><defs
   id="defs58" /><sodipodi:namedview
   id="namedview56"
   pagecolor="#505050"
   bordercolor="#ffffff"
   borderopacity="1"
   inkscape:pageshadow="0"
   inkscape:pageopacity="0"
   inkscape:pagecheckerboard="1"
   showgrid="false"
   inkscape:zoom="0.76020408"
   inkscape:cx="700.4698"
   inkscape:cy="490"
   inkscape:window-width="3440"
   inkscape:window-height="1369"
   inkscape:window-x="0"
   inkscape:window-y="34"
   inkscape:window-maximized="1"
   inkscape:current-layer="Layer_1" />
<style
   type="text/css"
   id="style2">
	.st0{fill:url(#SVGID_1_);}
	.st1{fill:#FFFFFF;}
</style>
<linearGradient
   id="SVGID_1_"
   gradientUnits="userSpaceOnUse"
   x1="700"
   y1="980"
   x2="700"
   y2="-3.142668e-08">
	<stop
   offset="0"
   style="stop-color:#E8512F"
   id="stop4" />
	<stop
   offset="1"
   style="stop-color:#46193E"
   id="stop6" />
</linearGradient>
<rect
   class="st0"
   width="1400"
   height="980"
   id="rect9" />
<g
   id="g53">
	<g
   id="Previous_x5F_Track">
		<path
   class="st1"
   d="M814.5,461.4c-3.2,0-5.7,2.6-5.7,5.7v45.7c0,3.2,2.6,5.7,5.7,5.7c3.2,0,5.7-2.6,5.7-5.7v-13.6l37.4,18.7    c0,0,0.1,0,0.2,0c0.7,0.3,1.5,0.6,2.4,0.6c0,0,0,0,0,0h0c0,0,0,0,0,0c0.7,0,1.3-0.2,2-0.4c0.2-0.1,0.3-0.1,0.5-0.2    c0.5-0.2,0.9-0.5,1.3-0.9c0.1-0.1,0.2-0.1,0.3-0.2c0.4-0.4,0.8-0.9,1-1.4c0-0.1,0-0.1,0-0.2c0.2-0.3,0.2-0.7,0.3-1.1    c0.1-0.4,0.2-0.7,0.2-1.1c0-0.1,0-0.1,0-0.2v-13.6l37.4,18.7c0,0,0.1,0,0.2,0c0.7,0.3,1.5,0.6,2.4,0.6c0,0,0,0,0,0h0c0,0,0,0,0,0    c0.7,0,1.3-0.2,2-0.4c0.2-0.1,0.3-0.1,0.5-0.2c0.5-0.2,0.9-0.5,1.3-0.9c0.1-0.1,0.2-0.1,0.3-0.2c0.4-0.4,0.8-0.9,1-1.4    c0-0.1,0-0.1,0-0.2c0.2-0.3,0.2-0.7,0.3-1.1c0.1-0.4,0.2-0.7,0.2-1.1c0-0.1,0-0.1,0-0.2v-45.7c0-0.1,0-0.1,0-0.2    c0-0.4-0.1-0.7-0.2-1.1c-0.1-0.4-0.1-0.8-0.3-1.1c0-0.1,0-0.1,0-0.2c-0.1-0.3-0.3-0.4-0.5-0.6c-0.2-0.3-0.5-0.7-0.8-1    c-0.3-0.2-0.6-0.4-0.9-0.6c-0.3-0.2-0.6-0.4-1-0.6c-0.4-0.1-0.8-0.2-1.2-0.2c-0.3,0-0.5-0.2-0.8-0.2c-0.1,0-0.1,0-0.2,0    c-0.4,0-0.7,0.1-1.1,0.2c-0.4,0.1-0.8,0.1-1.1,0.3c-0.1,0-0.1,0-0.2,0l-37.4,18.7v-13.6c0-0.1,0-0.1,0-0.2c0-0.4-0.1-0.7-0.2-1.1    c-0.1-0.4-0.1-0.8-0.3-1.1c0-0.1,0-0.1,0-0.2c-0.1-0.3-0.3-0.4-0.5-0.6c-0.2-0.3-0.5-0.7-0.8-1c-0.3-0.3-0.6-0.4-0.9-0.6    c-0.3-0.2-0.6-0.4-1-0.5c-0.4-0.1-0.8-0.2-1.2-0.2c-0.3,0-0.5-0.2-0.8-0.2c-0.1,0-0.1,0-0.2,0c-0.4,0-0.7,0.1-1.1,0.2    c-0.4,0.1-0.8,0.1-1.1,0.3c-0.1,0-0.1,0-0.2,0l-37.4,18.7v-13.6C820.2,464,817.6,461.4,814.5,461.4z M900.2,476.4v27.2L873,490    L900.2,476.4z M854.5,476.4v27.2L827.3,490L854.5,476.4z M859.4,398.5c-44.9,0-83,31.8-90.8,75.7c-0.5,3.1,1.5,6.1,4.7,6.6    c3.1,0.5,6.1-1.5,6.7-4.6c6.8-38.4,40.2-66.2,79.4-66.2c44.5,0,80.6,35.9,80.6,80.1c0,44.2-36.2,80.1-80.6,80.1    c-39.3,0-72.7-27.8-79.4-66.2c-0.6-3.1-3.5-5.2-6.7-4.6c-3.1,0.5-5.2,3.5-4.7,6.6c7.7,43.8,45.9,75.7,90.8,75.7    c50.8,0,92.1-41,92.1-91.5C951.5,439.5,910.2,398.5,859.4,398.5z"
   id="path11" />
	</g>
	<g
   id="Next_x5F_Track">
		<path
   class="st1"
   d="M1225.7,518.6c3.2,0,5.7-2.6,5.7-5.7v-45.7c0-3.2-2.6-5.7-5.7-5.7s-5.7,2.6-5.7,5.7v13.6l-37.4-18.7    c-0.1,0-0.1,0-0.2,0c-0.3-0.2-0.7-0.2-1.1-0.3c-0.4-0.1-0.7-0.2-1.1-0.2c-0.1,0-0.1,0-0.2,0c-0.3,0-0.5,0.1-0.8,0.2    c-0.4,0.1-0.8,0.1-1.2,0.2c-0.4,0.1-0.7,0.3-1,0.5c-0.3,0.2-0.6,0.3-0.9,0.6c-0.3,0.3-0.5,0.6-0.8,1c-0.2,0.2-0.4,0.4-0.5,0.6    c0,0.1,0,0.1,0,0.2c-0.2,0.3-0.2,0.7-0.3,1.1c-0.1,0.4-0.2,0.7-0.2,1.1c0,0.1,0,0.1,0,0.2v13.6l-37.4-18.7c-0.1,0-0.1,0-0.2,0    c-0.3-0.2-0.7-0.2-1.1-0.3c-0.4-0.1-0.7-0.2-1.1-0.2c-0.1,0-0.1,0-0.2,0c-0.3,0-0.5,0.1-0.8,0.2c-0.4,0.1-0.8,0.1-1.2,0.2    c-0.4,0.1-0.7,0.4-1,0.6c-0.3,0.2-0.6,0.3-0.9,0.6c-0.3,0.3-0.5,0.6-0.8,1c-0.2,0.2-0.4,0.4-0.5,0.6c0,0.1,0,0.1,0,0.2    c-0.2,0.3-0.2,0.7-0.3,1.1c-0.1,0.4-0.2,0.7-0.2,1.1c0,0.1,0,0.1,0,0.2v45.7c0,0.1,0,0.1,0,0.2c0,0.4,0.1,0.7,0.2,1.1    c0.1,0.4,0.1,0.7,0.3,1.1c0,0.1,0,0.1,0,0.2c0.3,0.5,0.6,1,1,1.4c0.1,0.1,0.2,0.1,0.3,0.2c0.4,0.4,0.9,0.7,1.3,0.9    c0.2,0.1,0.3,0.2,0.5,0.2c0.6,0.2,1.3,0.4,2,0.4h0c0,0,0,0,0,0c0.8,0,1.6-0.2,2.4-0.6c0,0,0.1,0,0.2,0l37.4-18.7v13.6    c0,0.1,0,0.1,0,0.2c0,0.4,0.1,0.7,0.2,1.1c0.1,0.4,0.1,0.7,0.3,1.1c0,0.1,0,0.1,0,0.2c0.3,0.5,0.6,1,1,1.4    c0.1,0.1,0.2,0.1,0.3,0.2c0.4,0.4,0.9,0.7,1.3,0.9c0.2,0.1,0.3,0.2,0.5,0.2c0.6,0.2,1.3,0.4,2,0.4h0c0,0,0,0,0,0    c0.8,0,1.6-0.2,2.4-0.6c0.1,0,0.1,0,0.2,0l37.4-18.7v13.6C1220,516,1222.6,518.6,1225.7,518.6z M1140,503.6v-27.2l27.2,13.6    L1140,503.6z M1185.7,503.6v-27.2L1213,490L1185.7,503.6z M1266.9,499.2c-3.1-0.5-6.1,1.5-6.7,4.6c-6.7,38.4-40.1,66.2-79.4,66.2    c-44.5,0-80.6-35.9-80.6-80.1c0-44.2,36.2-80.1,80.6-80.1c39.3,0,72.7,27.8,79.4,66.2c0.5,3.1,3.6,5.2,6.7,4.6    c3.1-0.5,5.2-3.5,4.7-6.6c-7.7-43.8-45.9-75.7-90.8-75.7c-50.8,0-92.1,41.1-92.1,91.5c0,50.5,41.3,91.5,92.1,91.5    c44.9,0,83-31.8,90.8-75.7C1272.1,502.7,1270,499.8,1266.9,499.2z"
   id="path14" />
	</g>
	<g
   id="Play">
		<path
   class="st1"
   d="M306.4,230.1c-3.1-0.5-6.1,1.5-6.7,4.6c-6.7,38.4-40.1,66.2-79.4,66.2c-44.5,0-80.6-35.9-80.6-80.1    c0-44.2,36.2-80.1,80.6-80.1c39.3,0,72.7,27.8,79.4,66.2c0.5,3.1,3.5,5.2,6.7,4.6c3.1-0.5,5.2-3.5,4.7-6.6    c-7.7-43.8-45.9-75.7-90.8-75.7c-50.8,0-92.1,41.1-92.1,91.5c0,50.5,41.3,91.5,92.1,91.5c44.9,0,83-31.8,90.7-75.7    C311.6,233.7,309.5,230.7,306.4,230.1z M205,192.9c-0.1,0-0.1,0-0.2,0c-0.3-0.2-0.7-0.2-1.1-0.3c-0.4-0.1-0.7-0.2-1.1-0.2    c-0.1,0-0.1,0-0.2,0c-0.3,0-0.5,0.1-0.8,0.2c-0.4,0.1-0.8,0.1-1.2,0.2c-0.4,0.1-0.7,0.4-1,0.6c-0.3,0.2-0.6,0.3-0.9,0.6    c-0.3,0.3-0.5,0.6-0.8,1c-0.2,0.2-0.4,0.4-0.5,0.6c0,0.1,0,0.1,0,0.2c-0.2,0.3-0.2,0.7-0.3,1.1c-0.1,0.4-0.2,0.7-0.2,1.1    c0,0.1,0,0.1,0,0.2v45.7c0,0.1,0,0.1,0,0.2c0,0.4,0.1,0.7,0.2,1.1c0.1,0.4,0.1,0.7,0.3,1.1c0,0.1,0,0.1,0,0.2c0.3,0.5,0.6,1,1,1.4    c0.1,0.1,0.2,0.1,0.3,0.2c0.4,0.4,0.9,0.7,1.3,0.9c0.2,0.1,0.3,0.1,0.5,0.2c0.6,0.2,1.3,0.4,2,0.4c0,0,0,0,0,0h0c0,0,0,0,0,0    c0,0,0,0,0,0c0.8,0,1.6-0.2,2.4-0.6c0.1,0,0.1,0,0.2,0l45.7-22.9c1.9-1,3.2-2.9,3.2-5.1c0-2.2-1.2-4.1-3.2-5.1L205,192.9z     M208.1,234.5v-27.2l27.2,13.6L208.1,234.5z"
   id="path17" />
	</g>
	<g
   id="Pause">
		<path
   class="st1"
   d="M516.9,198.1v45.7c0,3.2,2.6,5.7,5.7,5.7c3.2,0,5.7-2.6,5.7-5.7v-45.7c0-3.2-2.6-5.7-5.7-5.7    C519.5,192.4,516.9,194.9,516.9,198.1z M562.6,243.8v-45.7c0-3.2-2.6-5.7-5.7-5.7c-3.2,0-5.7,2.6-5.7,5.7v45.7    c0,3.2,2.6,5.7,5.7,5.7C560.1,249.5,562.6,247,562.6,243.8z M555.7,130.7c-3.1-0.5-6.1,1.5-6.6,4.6c-0.5,3.1,1.5,6.1,4.6,6.6    c38.4,6.7,66.2,39.9,66.2,79c0,39-27.8,72.2-66.2,78.9c-3.1,0.5-5.2,3.5-4.6,6.6c0.5,2.8,2.9,4.7,5.6,4.7c0.3,0,0.7,0,1-0.1    c43.8-7.7,75.7-45.6,75.7-90.2C631.4,176.3,599.5,138.4,555.7,130.7z M526,299.8c-38.4-6.7-66.2-39.9-66.2-79    c0-39,27.8-72.2,66.2-78.9c3.1-0.5,5.2-3.5,4.6-6.6c-0.5-3.1-3.5-5.2-6.6-4.6c-43.8,7.7-75.7,45.6-75.7,90.2    c0,44.6,31.8,82.5,75.7,90.1c0.3,0.1,0.7,0.1,1,0.1c2.7,0,5.1-2,5.6-4.7C531.2,303.4,529.1,300.4,526,299.8z"
   id="path20" />
	</g>
	<g
   id="Rewind">
		<path
   class="st1"
   d="M219.8,467c0-0.4-0.1-0.7-0.2-1.1c-0.1-0.4-0.1-0.8-0.3-1.1c0-0.1,0-0.1,0-0.2c-0.1-0.3-0.3-0.4-0.5-0.6    c-0.2-0.3-0.5-0.7-0.8-1c-0.3-0.2-0.6-0.4-0.9-0.6c-0.3-0.2-0.6-0.4-1-0.6c-0.4-0.1-0.8-0.2-1.2-0.2c-0.3,0-0.5-0.2-0.8-0.2    c-0.1,0-0.1,0-0.2,0c-0.4,0-0.7,0.1-1.1,0.2c-0.4,0.1-0.8,0.1-1.1,0.3c0,0-0.1,0-0.2,0l-45.7,22.9c-1.9,1-3.2,2.9-3.2,5.1    c0,2.2,1.2,4.1,3.2,5.1l45.7,22.9c0.1,0,0.1,0,0.2,0c0.7,0.3,1.5,0.6,2.4,0.6c0,0,0,0,0,0h0c0,0,0,0,0,0c0.7,0,1.3-0.2,2-0.4    c0.2-0.1,0.3-0.1,0.5-0.2c0.5-0.2,0.9-0.5,1.3-0.9c0.1-0.1,0.2-0.1,0.3-0.2c0.4-0.4,0.8-0.9,1-1.4c0-0.1,0-0.1,0-0.2    c0.2-0.3,0.2-0.7,0.3-1.1c0.1-0.4,0.2-0.7,0.2-1.1c0-0.1,0-0.1,0-0.2v-13.6l37.4,18.7c0.1,0,0.1,0,0.2,0c0.7,0.3,1.5,0.6,2.4,0.6    c0,0,0,0,0,0c0,0,0,0,0,0c0.7,0,1.3-0.2,2-0.4c0.2-0.1,0.3-0.1,0.5-0.2c0.5-0.2,0.9-0.5,1.3-0.9c0.1-0.1,0.2-0.1,0.3-0.2    c0.4-0.4,0.7-0.9,1-1.4c0-0.1,0-0.1,0-0.2c0.2-0.3,0.2-0.7,0.3-1.1c0.1-0.4,0.2-0.7,0.2-1.1c0-0.1,0-0.1,0-0.2v-45.7    c0-0.1,0-0.1,0-0.2c0-0.4-0.1-0.7-0.2-1.1c-0.1-0.4-0.1-0.8-0.3-1.1c0-0.1,0-0.1,0-0.2c-0.1-0.3-0.3-0.4-0.5-0.6    c-0.2-0.3-0.5-0.7-0.8-1c-0.3-0.2-0.6-0.4-0.9-0.6c-0.3-0.2-0.6-0.4-1-0.6c-0.4-0.1-0.8-0.2-1.2-0.2c-0.3,0-0.5-0.2-0.8-0.2    c-0.1,0-0.1,0-0.2,0c-0.4,0-0.7,0.1-1.1,0.2c-0.4,0.1-0.8,0.1-1.1,0.3c0,0-0.1,0-0.2,0l-37.4,18.7v-13.6    C219.8,467.1,219.8,467,219.8,467z M208.4,503.6L181.2,490l27.2-13.6V503.6z M254.1,476.4v27.2L226.9,490L254.1,476.4z M219,398.5    c-44.9,0-83,31.8-90.8,75.7c-0.5,3.1,1.5,6.1,4.7,6.6c3.1,0.5,6.1-1.5,6.7-4.6c6.8-38.4,40.2-66.2,79.4-66.2    c44.5,0,80.6,35.9,80.6,80.1c0,44.2-36.2,80.1-80.6,80.1c-39.3,0-72.7-27.8-79.4-66.2c-0.6-3.1-3.5-5.2-6.7-4.6    c-3.1,0.5-5.2,3.5-4.7,6.6c7.7,43.8,45.9,75.7,90.7,75.7c50.8,0,92.1-41,92.1-91.5C311.2,439.5,269.9,398.5,219,398.5z"
   id="path23" />
	</g>
	<g
   id="Fast_x5F_Forward">
		<path
   class="st1"
   d="M539.8,513c0,0.4,0.1,0.7,0.2,1.1c0.1,0.4,0.1,0.7,0.3,1.1c0,0.1,0,0.1,0,0.2c0.3,0.5,0.6,1,1,1.4    c0.1,0.1,0.2,0.1,0.3,0.2c0.4,0.4,0.9,0.7,1.3,0.9c0.2,0.1,0.3,0.2,0.5,0.2c0.6,0.2,1.3,0.4,2,0.4c0,0,0,0,0,0h0c0,0,0,0,0,0    c0.8,0,1.6-0.2,2.4-0.6c0.1,0,0.1,0,0.2,0l45.7-22.9c1.9-1,3.2-2.9,3.2-5.1c0-2.2-1.2-4.1-3.2-5.1L548,462c-0.1,0-0.1,0-0.2,0    c-0.3-0.2-0.7-0.2-1.1-0.3c-0.4-0.1-0.7-0.2-1.1-0.2c-0.1,0-0.1,0-0.2,0c-0.3,0-0.5,0.1-0.8,0.2c-0.4,0.1-0.8,0.1-1.2,0.2    c-0.4,0.1-0.7,0.4-1,0.6c-0.3,0.2-0.6,0.3-0.9,0.6c-0.3,0.3-0.5,0.6-0.8,1c-0.2,0.2-0.4,0.4-0.5,0.6c0,0.1,0,0.1,0,0.2    c-0.2,0.3-0.2,0.7-0.3,1.1c-0.1,0.4-0.2,0.7-0.2,1.1c0,0.1,0,0.1,0,0.2v13.6L502.3,462c-0.1,0-0.1,0-0.2,0    c-0.3-0.2-0.7-0.2-1.1-0.3c-0.4-0.1-0.7-0.2-1.1-0.2c-0.1,0-0.1,0-0.2,0c-0.3,0-0.6,0.1-0.8,0.2c-0.4,0.1-0.8,0.1-1.2,0.2    c-0.4,0.1-0.7,0.4-1,0.6c-0.3,0.2-0.6,0.3-0.9,0.6c-0.3,0.3-0.5,0.6-0.8,1c-0.2,0.2-0.4,0.4-0.5,0.6c0,0.1,0,0.1,0,0.2    c-0.2,0.3-0.2,0.7-0.3,1.1c-0.1,0.4-0.2,0.7-0.2,1.1c0,0.1,0,0.1,0,0.2v45.7c0,0.1,0,0.1,0,0.2c0,0.4,0.1,0.7,0.2,1.1    c0.1,0.4,0.1,0.7,0.3,1.1c0,0.1,0,0.1,0,0.2c0.3,0.5,0.6,1,1,1.4c0.1,0.1,0.2,0.1,0.3,0.2c0.4,0.4,0.9,0.7,1.3,0.9    c0.2,0.1,0.3,0.2,0.5,0.2c0.6,0.2,1.3,0.4,2,0.4c0,0,0,0,0,0c0,0,0,0,0,0c0.8,0,1.6-0.2,2.4-0.6c0,0,0.1,0,0.2,0l37.4-18.7v13.6    C539.7,512.9,539.8,513,539.8,513z M551.2,476.4l27.2,13.6l-27.2,13.6V476.4z M505.5,503.6v-27.2l27.2,13.6L505.5,503.6z     M626.6,499.2c-3.1-0.5-6.1,1.5-6.7,4.6c-6.7,38.4-40.1,66.2-79.4,66.2c-44.5,0-80.6-35.9-80.6-80.1c0-44.2,36.2-80.1,80.6-80.1    c39.3,0,72.7,27.8,79.4,66.2c0.5,3.1,3.5,5.2,6.7,4.6c3.1-0.5,5.2-3.5,4.7-6.6c-7.7-43.8-45.9-75.7-90.8-75.7    c-50.8,0-92.1,41.1-92.1,91.5c0,50.5,41.3,91.5,92.1,91.5c44.9,0,83-31.8,90.7-75.7C631.8,502.7,629.7,499.8,626.6,499.2z"
   id="path26" />
	</g>
	<g
   id="Eject">
		<path
   class="st1"
   d="M197.3,762.4c-0.2,0.3-0.2,0.7-0.3,1.1c-0.1,0.4-0.2,0.7-0.2,1.1c0,0.1,0,0.1,0,0.2c0,0.3,0.1,0.5,0.2,0.8    c0.1,0.4,0.1,0.8,0.2,1.2c0.1,0.4,0.3,0.6,0.5,0.9c0.2,0.3,0.4,0.6,0.6,0.9c0.3,0.3,0.6,0.5,1,0.8c0.2,0.2,0.4,0.4,0.6,0.5    c0.1,0,0.1,0,0.2,0c0.4,0.2,0.8,0.2,1.2,0.3c0.4,0.1,0.7,0.2,1,0.2c0.1,0,0.1,0,0.2,0h45.8c0,0,0,0,0,0h0c0.8,0,1.6-0.2,2.4-0.6    c0.1,0,0.1,0,0.2,0c0.3-0.1,0.4-0.3,0.6-0.5c0.3-0.2,0.7-0.5,1-0.8c0.3-0.3,0.4-0.6,0.6-0.9c0.2-0.3,0.4-0.6,0.5-1    c0.1-0.4,0.2-0.8,0.2-1.2c0-0.3,0.2-0.5,0.2-0.8c0-0.1,0-0.1,0-0.2c0-0.4-0.1-0.7-0.2-1.1c-0.1-0.4-0.1-0.8-0.3-1.1    c0-0.1,0-0.1,0-0.2l-22.9-45.9c-1.9-3.9-8.3-3.9-10.2,0l-22.9,45.9C197.3,762.2,197.3,762.3,197.3,762.4z M225.4,731.7L239,759    h-27.3L225.4,731.7z M248.3,782h-45.8c-3.2,0-5.7,2.6-5.7,5.7c0,3.2,2.6,5.7,5.7,5.7h45.8c3.2,0,5.7-2.6,5.7-5.7    C254,784.5,251.4,782,248.3,782z M241.2,667.7c-3.1-0.5-6.1,1.5-6.6,4.7c-0.5,3.1,1.5,6.1,4.6,6.7c38.3,6.7,66.1,40.1,66.1,79.4    c0,44.5-35.9,80.6-79.9,80.6c-44.1,0-79.9-36.2-79.9-80.6c0-39.3,27.8-72.7,66.1-79.4c3.1-0.6,5.2-3.5,4.6-6.7    c-0.5-3.1-3.5-5.2-6.6-4.7c-43.8,7.7-75.5,45.9-75.5,90.8c0,50.8,41,92.1,91.3,92.1c50.4,0,91.3-41.3,91.3-92.1    C316.7,713.6,284.9,675.4,241.2,667.7z"
   id="path29" />
	</g>
	<g
   id="Stop">
		<path
   class="st1"
   d="M860,129.5c-50.4,0-91.4,41-91.4,91.4s41,91.4,91.4,91.4c50.4,0,91.4-41,91.4-91.4S910.4,129.5,860,129.5z     M860,300.9c-44.1,0-80-35.9-80-80c0-44.1,35.9-80,80-80c44.1,0,80,35.9,80,80C940,265,904.1,300.9,860,300.9z M882.9,192.3h-45.7    c-3.2,0-5.7,2.6-5.7,5.7v45.7c0,3.2,2.6,5.7,5.7,5.7h45.7c3.2,0,5.7-2.6,5.7-5.7v-45.7C888.6,194.9,886,192.3,882.9,192.3z     M877.2,238.1h-34.3v-34.3h34.3V238.1z"
   id="path32" />
	</g>
	<g
   id="Rec">
		<path
   class="st1"
   d="M1160,200.8c-11.1,11.1-11.1,29.3,0,40.4c5.4,5.4,12.6,8.4,20.2,8.4c7.6,0,14.8-3,20.2-8.4    c5.4-5.4,8.4-12.6,8.4-20.2c0-7.6-3-14.8-8.4-20.2c-5.4-5.4-12.6-8.4-20.2-8.4S1165.4,195.4,1160,200.8z M1197.4,221    c0,4.6-1.8,8.9-5,12.1c-6.5,6.5-17.8,6.5-24.2,0c-6.7-6.7-6.7-17.6,0-24.2c3.2-3.2,7.5-5,12.1-5c4.6,0,8.9,1.8,12.1,5    C1195.6,212.1,1197.4,216.4,1197.4,221z M1255.2,168.4c-1.8-2.6-5.4-3.2-8-1.4c-2.6,1.8-3.2,5.4-1.4,8c22.4,31.9,18.6,75-9,102.7    c-27.6,27.6-70.7,31.3-102.6,9c-2.6-1.8-6.2-1.2-8,1.4c-1.8,2.6-1.2,6.1,1.4,8c15.9,11.2,34.2,16.6,52.5,16.6    c23.6,0,47-9.1,64.8-26.9C1276.4,254.1,1280.7,204.8,1255.2,168.4z M1226.2,155.3c2.6,1.8,6.2,1.2,8-1.4c1.8-2.6,1.2-6.1-1.4-8    c-36.4-25.6-85.7-21.3-117.3,10.3c-31.5,31.5-35.8,80.8-10.2,117.2c1.1,1.6,2.9,2.4,4.7,2.4c1.1,0,2.3-0.3,3.3-1    c2.6-1.8,3.2-5.4,1.4-8c-22.4-31.9-18.6-75,9-102.7C1151.2,136.7,1194.3,132.9,1226.2,155.3z"
   id="path35" />
	</g>
	<g
   id="Mix_x5F_Tracks">
		<path
   class="st1"
   d="M457,750c3.1,0.5,6.1-1.5,6.7-4.6c6.8-38.3,40.4-66.1,80-66.1c39.5,0,73.1,27.8,79.9,66.1    c0.6,3.1,3.6,5.2,6.7,4.6c2.8-0.5,4.8-2.9,4.8-5.6c0-0.3,0-0.7-0.1-1c-7.8-43.8-46.2-75.5-91.4-75.5c-45.1,0-83.5,31.8-91.3,75.5    C451.8,746.5,453.9,749.4,457,750z M630.3,768.4c-3.1-0.5-6.1,1.5-6.7,4.6c-6.8,38.3-40.4,66.1-80,66.1    c-39.5,0-73.1-27.8-79.9-66.1c-0.6-3.1-3.5-5.2-6.7-4.6c-3.1,0.5-5.2,3.5-4.7,6.6c7.8,43.8,46.2,75.5,91.4,75.5    c45.1,0,83.5-31.8,91.3-75.5c0.1-0.3,0.1-0.7,0.1-1C635.1,771.3,633.1,768.9,630.3,768.4z M569.5,811.7c0.8,0.5,1.8,0.7,2.7,0.7    c1.1,0,2.2-0.3,3.2-1l27.4-18.5c1.6-1.1,2.5-2.9,2.5-4.8c0-1.9-1-3.7-2.5-4.8l-27.4-18.5c-1.7-1.2-4-1.3-5.9-0.3c-1.9,1-3,3-3,5.1    v13.9H555c-3.4,0-6.7-0.8-10-2.5c-2.8-1.4-6.2-0.2-7.6,2.6c-1.4,2.9-0.2,6.3,2.6,7.7c4.9,2.4,9.9,3.7,15.1,3.7h11.4v11.6    C566.5,808.7,567.6,810.6,569.5,811.7z M577.9,780.3l11.4,7.7l-11.4,7.7V780.3z M492.3,737.1h5.7c3.4,0,6.7,0.8,10,2.5    c0.8,0.4,1.7,0.6,2.5,0.6c2.1,0,4.1-1.2,5.1-3.2c1.4-2.9,0.2-6.3-2.6-7.8c-4.9-2.4-9.9-3.7-15.1-3.7h-5.7c-3.2,0-5.7,2.6-5.7,5.8    C486.6,734.5,489.2,737.1,492.3,737.1z M602.7,727.7l-27.4-18.5c-1.7-1.2-4-1.3-5.9-0.3c-1.9,1-3,3-3,5.1v11.6H555    c-18.9,0-34.2,15.6-34.2,34.7c0,12.8-10.2,23.2-22.8,23.2h-5.7c-3.2,0-5.7,2.6-5.7,5.8c0,3.2,2.6,5.8,5.7,5.8h5.7    c18.9,0,34.2-15.6,34.2-34.7c0-12.8,10.2-23.1,22.8-23.1h11.4V751c0,2.1,1.2,4.1,3,5.1c0.8,0.5,1.8,0.7,2.7,0.7    c1.1,0,2.2-0.3,3.2-1l27.4-18.5c1.6-1.1,2.5-2.9,2.5-4.8C605.2,730.5,604.3,728.7,602.7,727.7z M577.9,740.2v-15.4l11.4,7.7    L577.9,740.2z"
   id="path38" />
	</g>
	<g
   id="Shuffle_x5F_1">
		<path
   class="st1"
   d="M936.9,706.7c-1.8-2.6-5.4-3.2-8-1.4c-2.6,1.8-3.2,5.4-1.4,8c19.3,27.5,19.3,64.4,0,91.9    c-1.8,2.6-1.2,6.1,1.4,8c1,0.7,2.2,1,3.3,1c1.8,0,3.6-0.8,4.7-2.4C959,780.3,959,738.1,936.9,706.7z M812.6,694.6    c1.1,0,2.3-0.3,3.3-1c27.3-19.2,64-19.3,91.4-0.3c2.6,1.8,6.2,1.1,7.9-1.5c1.8-2.6,1.1-6.2-1.5-7.9    c-31.3-21.7-73.3-21.5-104.5,0.4c-2.6,1.8-3.2,5.4-1.4,8C809.1,693.7,810.9,694.6,812.6,694.6z M796.3,713.2    c1.8-2.6,1.2-6.1-1.4-8c-2.6-1.8-6.2-1.2-8,1.4c-22.1,31.4-22.1,73.6,0,105c1.1,1.6,2.9,2.4,4.7,2.4c1.1,0,2.3-0.3,3.3-1    c2.6-1.8,3.2-5.4,1.4-8C777,777.6,777,740.7,796.3,713.2z M907.9,824.8c-27.5,19.3-64.5,19.3-92,0c-2.6-1.8-6.1-1.2-8,1.4    c-1.8,2.6-1.2,6.1,1.4,8c15.7,11,34.1,16.6,52.6,16.6c18.4,0,36.8-5.5,52.5-16.5c2.6-1.8,3.2-5.4,1.4-8    C914.1,823.6,910.5,823,907.9,824.8z M893.2,722.1c-20.5,0-37.1,16.7-37.1,37.1c0,14.2-11.5,25.7-25.7,25.7    c-14.2,0-25.7-11.5-25.7-25.7c0-11.1,7.1-20.6,17.1-24.2v7c0,2.1,1.1,4,2.9,5c0.9,0.5,1.8,0.7,2.8,0.7c1.1,0,2.1-0.3,3-0.9    l22.9-14.3c1.7-1,2.7-2.9,2.7-4.8c0-2-1-3.8-2.7-4.8l-22.9-14.3c-1.8-1.1-4-1.2-5.8-0.2c-1.8,1-2.9,2.9-2.9,5v9.6    c-16.6,3.9-28.6,18.6-28.6,36.1c0,20.5,16.7,37.1,37.1,37.1c20.5,0,37.1-16.7,37.1-37.1c0-14.2,11.5-25.7,25.7-25.7    c14.2,0,25.7,11.5,25.7,25.7c0,11.2-7.1,20.6-17.1,24.2v-7c0-2.1-1.1-4-2.9-5c-1.8-1-4-0.9-5.8,0.2l-22.9,14.3    c-1.7,1-2.7,2.9-2.7,4.8c0,2,1,3.8,2.7,4.8l22.9,14.3c0.9,0.6,2,0.9,3,0.9c0.9,0,1.9-0.2,2.8-0.7c1.8-1,2.9-2.9,2.9-5v-9.6    c16.6-3.9,28.6-18.5,28.6-36.1C930.4,738.8,913.7,722.1,893.2,722.1z M833.2,723.9l6.4,4l-6.4,4V723.9z M890.4,794.7l-6.4-4l6.4-4    V794.7z"
   id="path41" />
	</g>
	<g
   id="g51">
		<g
   id="Fast_x5F_Forward_2_">
			<g
   id="g46">
				<path
   class="st1"
   d="M1189.4,672.5c-0.5,3.1,1.5,6.1,4.6,6.7c38.4,6.7,66.2,40.1,66.2,79.4c0,44.5-35.9,80.6-80.1,80.6      c-44.2,0-80.1-36.2-80.1-80.6c0-39.3,27.8-72.7,66.2-79.4c3.1-0.5,5.2-3.5,4.7-6.7c-0.5-3.1-3.5-5.2-6.6-4.7      c-43.8,7.7-75.7,45.9-75.7,90.8c0,50.8,41.1,92.1,91.5,92.1c50.5,0,91.5-41.3,91.5-92.1c0-44.9-31.8-83-75.7-90.8      C1192.9,667.2,1190,669.3,1189.4,672.5z"
   id="path44" />
			</g>
		</g>
		<path
   class="st1"
   d="M1222.4,744.1c-1.2-3.4-4.9-5.1-8.3-3.9c-3.4,1.2-5.1,4.9-3.9,8.3c1.3,3.5,1.9,7.1,1.9,10.9    c0,17.6-14.3,31.9-31.9,31.9s-31.9-14.3-31.9-31.9c0-12.1,6.7-22.9,17.2-28.3v10.2c0,2.1,1.2,4.1,3,5.1c0.8,0.5,1.8,0.7,2.7,0.7    c1.1,0,2.2-0.3,3.2-1l27.4-18.5c1.6-1.1,2.5-2.9,2.5-4.8c0-1.9-1-3.7-2.5-4.8l-27.4-18.5c-1.8-1.2-4-1.3-5.9-0.3c-1.9,1-3,3-3,5.1    v11.6v1.3c-18.1,6.3-30.1,23.1-30.1,42.3c0,24.7,20.1,44.8,44.8,44.8c24.7,0,44.8-20.1,44.8-44.8    C1225.1,754.1,1224.2,749,1222.4,744.1z M1176.9,715l11.4,7.7l-11.4,7.7V715z"
   id="path49" />
	</g>
</g>
</svg>
