<?xml version="1.0" encoding="UTF-8"?>
<svg xmlns="http://www.w3.org/2000/svg" viewBox="0 0 96 86">
<path d="m37,32c-6.76,6.76-8.06,9.56-8.47,14.22c-0.02,-0.24-0.37-0.9-0.47-1.73c-0.35-2.74-0.15-4.74 0.79-7.48c1.4-4.1 4.7-7.38 8.98-11.67c0,0 7.86-7.88 7.86-7.88c8.9-8.9 9.75-10.45 10.19-14.09c0-0.04 0.1-0.06 0.11,0c0,0 0,5.4 0,5.39c0,4.88-6.27,10.5-8.77,12.99c0,0-10.22,10.25-10.22,10.25z
m5.55,40.75c0,0 0-3.48 0-3.48c0,0 4.94,0 4.94,0c0,0 0-0.33 0-0.33c0-3.5-1.6-6.04-12.68-4.12c0,0-18.2,3.24-18.21,3.24c0,0-10.48,14.54-10.48,14.54c0,0 25.15-4.46 25.15-4.46c7.54-1.3 14.15-1.56 16.23,4.43c0,0 0-9.82 0-9.82c0,0-4.94,0-4.94,0m4.67-32.59c2.5-2.48 8.77-8.1 8.77-12.99c0,0 0-5.4 0-5.4c0-0.06-0.1-0.04-0.11,0c-0.43,3.64-1.3,5.2-10.19,14.09c0,0-8.14,8.15-8.14,8.15c-2.96,2.96-5.67,6.06-5.54,11.06c0.08,3.07 1.62,5.6 3.94,6.21c0.96,-0.2 0.9,-0.08 0.67-0.01c-3.28-1.55-3.04-7.47 2.26-12.76c0,0 8.35-8.35 8.35-8.35z
m3.71,42.41c0-4.74 2.8-8 8.52-13.72c0,0 4.03-4.03 4.03-4.03c0,0 18.42,3.24 18.42,3.24c0,0 10.5,14.52 10.5,14.52c0,0-24.15-4.17-24.15-4.17c-8.2-1.57-15.13-2.12-17.32,4.15z
m0.12-4.46c0,-0.04-0.12,-0.04-0.12,0c0,0 0-5.36 0-5.36c0,0 2.25,0 2.25,0c-1.27,1.82-1.92,3.58-2.13,5.36z
m0.01-18.31c0,-0.04-0.12,-0.04-0.12,0c0,0 0-5.54 0-5.54c0-3.9 3.88-8.13 5.76-10.01c0,0 2.92-2.9 2.92-2.91c5.3-5.3 5.53-11.22 2.26-12.77c-0.23,0-0.29-0.22 0.67-0.01c2.32,-0.6 3.86,3.14 3.94,6.21c0.13,5-2.54,8.08-5.5,11.04c0,0-2.37,2.36-2.37,2.36c-4.95,4.95-7.1,7.84-7.56,11.63z
m0,9.47c0,-0.04-0.12,-0.04-0.12,0c0,0 0-5.46 0-5.46c0-4 4.02-8.53 8-12.49c0,0 2.58-2.58 2.58-2.58c2.08-2.09 8.45-8.37 5.78-14.42c-0.1-0.2-0.17-0.38 0.17-0.13c0.68,-0.48 1.7,2.18 1.98,5.27c0.5,5.5-3.27,10.45-7.91,15.09c0,0-2.4,2.4-2.39,2.4c-5.76,5.76-7.68,8.34-8.11,12.32z
m0.89,0c1.83-3.9 5.7-7.45 7.95-9.69c0,0 1.6-1.62 1.59-1.62c6.76-6.76 8.07-9.56 8.47-14.22c0.02-0.24 0.37,-0.9 0.47,1.73c0.35,2.75 0.15,4.74-0.79,7.48c-1.4,4.11-4.7,7.38-8.98,11.67c0,0-4.66,4.64-4.66,4.64c0,0-4.05,0-4.05,0z
m3.93-56.72c0-0.04 0.1-0.06 0.11,0c0,0 0,5.39 0,5.39c0,4.88-6.27,10.5-8.77,12.99c0,0-9.2,9.2-9.19,9.21c-3.18,3.18-9.53,9.45-6.86,15.5c0.1,-0.2 0.17,-0.37-0.17,-0.13c-0.68-0.48-1.7-2.18-1.98-5.27c-0.5-5.52 3.27-10.46 7.91-15.09c0,0 8.76-8.77 8.76-8.77c8.9-8.9 9.75-10.45 10.19-14.09z"/>
</svg>