<?xml version="1.0" standalone="no"?>
<!--Created with Inkscape (http://www.inkscape.org/)-->
<svg xmlns="http://www.w3.org/2000/svg" xmlns:xlink="http://www.w3.org/1999/xlink" viewBox="0 0 48 48">
  <defs>
    <linearGradient id="f">
      <stop offset="0" stop-color="#ce5c00" stop-opacity="1"/>
      <stop offset="1" stop-color="#f57900" stop-opacity="1"/>
    </linearGradient>
    <linearGradient id="g">
      <stop offset="0" stop-color="white" stop-opacity="1"/>
      <stop offset="1" stop-color="white" stop-opacity="0"/>
    </linearGradient>
    <linearGradient id="e">
      <stop offset="0" stop-color="#fecb81" stop-opacity="1"/>
      <stop offset="1" stop-color="#fcaf3e" stop-opacity="1"/>
    </linearGradient>
    <linearGradient id="a">
      <stop offset="0" stop-color="black" stop-opacity="1"/>
      <stop offset="1" stop-color="black" stop-opacity="0"/>
    </linearGradient>
    <linearGradient id="b">
      <stop offset="0" stop-color="#2e3436" stop-opacity="1"/>
      <stop offset="1" stop-color="#2e3436" stop-opacity="0"/>
    </linearGradient>
    <linearGradient id="c">
      <stop offset="0" stop-color="#fce94f" stop-opacity="1"/>
      <stop offset="1" stop-color="#fce94f" stop-opacity="0"/>
    </linearGradient>
    <linearGradient id="d">
      <stop offset="0" stop-color="#555753"/>
      <stop offset="1" stop-color="#fcaf3e"/>
    </linearGradient>
    <radialGradient xlink:href="#a" id="k" gradientUnits="userSpaceOnUse" gradientTransform="matrix(1,0,0,0.194656,0,34.62977)" cx="23.8125" cy="43" fx="23.8125" fy="43" r="16.375"/>
    <linearGradient xlink:href="#b" id="j" gradientUnits="userSpaceOnUse" gradientTransform="translate(-50,-5)" x1="25.355263" y1="34.006802" x2="25.355263" y2="32.409008"/>
    <radialGradient xlink:href="#c" id="i" gradientUnits="userSpaceOnUse" gradientTransform="matrix(1,-1.487184e-8,1.425535e-8,0.958546,-27.2842,-3.424027)" cx="-6.0070167" cy="32.837029" fx="-6.0070167" fy="32.837029" r="9.90625"/>
    <linearGradient xlink:href="#d" id="h" gradientUnits="userSpaceOnUse" gradientTransform="translate(-14,-5)" x1="-11.986486" y1="13.122552" x2="-11.986486" y2="29.726542"/>
    <linearGradient xlink:href="#e" id="l" gradientUnits="userSpaceOnUse" x1="22.750002" y1="40.000755" x2="22.750002" y2="37.409679"/>
    <linearGradient xlink:href="#f" gradientUnits="userSpaceOnUse" x1="17.25" y1="41.147343" x2="17.25" y2="36.103439"/>
    <linearGradient xlink:href="#g" id="m" gradientUnits="userSpaceOnUse" x1="18.875" y1="35.183414" x2="18.875" y2="43.978611"/>
  </defs>
  <metadata/>
  <g transform="translate(50,0)">
    <rect ry="2.421876" rx="2.3764169" y="3.5000019" x="-46.472988" height="30.000021" width="40.972977" fill="#eeeeec" fill-opacity="1" stroke="#888a85" stroke-width=".99999988" stroke-linecap="round" stroke-linejoin="round" stroke-miterlimit="4" stroke-dasharray="none" stroke-dashoffset="0" stroke-opacity="1"/>
    <rect ry="0.4375" rx="0.43750024" y="6.5" x="-43.5" height="24" width="35.027027" fill="url(#h)" fill-opacity="1" stroke="#888a85" stroke-width=".99999994" stroke-linecap="round" stroke-linejoin="round" stroke-miterlimit="4" stroke-dasharray="none" stroke-dashoffset="0" stroke-opacity="1"/>
    <path d="M -33.916211,17.551777 C -39.08499,17.879732 -43.197462,22.206965 -43.197462,27.458027 C -43.197462,27.660812 -43.178252,27.852002 -43.166212,28.051777 L -23.416211,28.051777 C -23.40417,27.852002 -23.384961,27.660812 -23.384961,27.458027 C -23.384961,21.993506 -27.82669,17.551777 -33.291211,17.551777 C -33.504669,17.551777 -33.706098,17.538446 -33.916211,17.551777 z " style="marker:none" color="#000" fill="url(#i)" fill-opacity="1" fill-rule="evenodd" stroke="none" stroke-width="1" stroke-linecap="round" stroke-linejoin="round" marker-start="none" marker-mid="none" marker-end="none" stroke-miterlimit="4" stroke-dasharray="none" stroke-dashoffset="0" stroke-opacity="1" visibility="visible" display="inline" overflow="visible"/>
    <rect ry="0" rx="0" y="28" x="-43" height="2" width="34" fill="url(#j)" fill-opacity="1" stroke="none" stroke-width="1" stroke-linecap="round" stroke-linejoin="round" stroke-miterlimit="4" stroke-dasharray="none" stroke-dashoffset="0" stroke-opacity="1"/>
    <path d="M -20.444416,28.972272 C -20.444416,28.972272 -21,25.888917 -21,24 C -20.984591,23.138301 -13.213293,16.425391 -13.193243,15.425476 L -15,17 L -16.265165,13.558058 L -12,14 L -10,12 L -12.265165,13.662913 L -13.044194,13.486136 L -14,10 L -13.513864,13.397748 L -17.044194,13.220971 L -15.93934,16.032932 L -19,13 L -15.762563,17.221464 C -15.762478,18.162992 -22.143437,23.910666 -22.132583,22.919597 L -24.779029,19.370019 L -25,14.571429 L -23,14 L -21.247845,9.679379 L -23.557565,13.672694 L -25.360733,13.59099 L -29.397121,10.181981 L -34.93934,8.06066 L -30.204505,10.662913 L -34,11 L -29,11 L -26,14 L -25.646447,19.181981 L -31,14 L -28.748699,16.707107 L -32,19 L -28.428571,17 L -22.779029,24.116117 L -23,28.972272 L -20.444416,28.972272 z " fill="#000" fill-opacity="1" fill-rule="evenodd" stroke="none" stroke-width="1px" stroke-linecap="butt" stroke-linejoin="miter" stroke-opacity="1"/>
    <path style="marker:none" d="M -33.632266,22.233668 C -36.452805,22.412629 -38.69693,24.773947 -38.69693,27.639387 C -38.69693,27.750044 -38.686448,27.854374 -38.679878,27.963389 L -27.902545,27.963389 C -27.895974,27.854374 -27.885492,27.750044 -27.885492,27.639387 C -27.885492,24.657465 -30.309289,22.233668 -33.291211,22.233668 C -33.407693,22.233668 -33.51761,22.226393 -33.632266,22.233668 z " color="#000" fill="#fef39e" fill-opacity="1" fill-rule="evenodd" stroke="none" stroke-width="1" stroke-linecap="round" stroke-linejoin="round" marker-start="none" marker-mid="none" marker-end="none" stroke-miterlimit="4" stroke-dasharray="none" stroke-dashoffset="0" stroke-opacity="1" visibility="visible" display="inline" overflow="visible"/>
    <path d="M -33.551318,23.531973 C -35.702406,23.668459 -37.413891,25.469322 -37.413891,27.654654 C -37.413891,27.739046 -37.405896,27.818614 -37.400886,27.901754 L -29.181537,27.901754 C -29.176526,27.818614 -29.168531,27.739046 -29.168531,27.654654 C -29.168531,25.380487 -31.017043,23.531973 -33.291211,23.531973 C -33.380046,23.531973 -33.463874,23.526426 -33.551318,23.531973 z " style="marker:none" color="#000" fill="#fffbd7" fill-opacity=".55681817" fill-rule="evenodd" stroke="none" stroke-width="1" stroke-linecap="round" stroke-linejoin="round" marker-start="none" marker-mid="none" marker-end="none" stroke-miterlimit="4" stroke-dasharray="none" stroke-dashoffset="0" stroke-opacity="1" visibility="visible" display="inline" overflow="visible"/>
    <rect ry="1.3854144" rx="1.3854144" y="4.5000257" x="-45.473003" height="27.999979" width="38.973003" fill="none" fill-opacity="1" stroke="#fff" stroke-width=".99999994" stroke-linecap="round" stroke-linejoin="round" stroke-miterlimit="4" stroke-dasharray="none" stroke-dashoffset="0" stroke-opacity="1"/>
  </g>
  <path style="marker:none" d="M 40.1875 43 A 16.375 3.1875 0 1 1  7.4375,43 A 16.375 3.1875 0 1 1  40.1875 43 z" transform="matrix(1.068703,0,0,1.411765,-1.9485,-17.2059)" opacity=".2" color="#000" fill="url(#k)" fill-opacity="1" fill-rule="nonzero" stroke="none" stroke-width="1" stroke-linecap="round" stroke-linejoin="miter" marker-start="none" marker-mid="none" marker-end="none" stroke-miterlimit="4" stroke-dasharray="none" stroke-dashoffset="1.4" stroke-opacity="1" visibility="visible" display="inline" overflow="visible"/>
  <path d="M 15.500002,35.500004 L 32.500012,35.500004 L 24.000007,44.499996 L 15.500002,35.500004 z " style="marker:none" color="#000" fill="url(#l)" fill-opacity="1" fill-rule="nonzero" stroke="url(#linearGradient3330)" stroke-width="1.00000048" stroke-linecap="round" stroke-linejoin="round" marker-start="none" marker-mid="none" marker-end="none" stroke-miterlimit="4" stroke-dashoffset="1.4" stroke-opacity="1" visibility="visible" display="inline" overflow="visible"/>
  <path transform="translate(0,2)" d="M 17.8125,34.5 L 24,41.0625 L 30.1875,34.5 L 17.8125,34.5 z " style="marker:none" opacity=".7" color="#000" fill="none" fill-opacity="1" fill-rule="nonzero" stroke="url(#m)" stroke-width="1" stroke-linecap="round" stroke-linejoin="miter" marker-start="none" marker-mid="none" marker-end="none" stroke-miterlimit="4" stroke-dasharray="none" stroke-dashoffset="1.4" stroke-opacity="1" visibility="visible" display="inline" overflow="visible"/>
</svg>
