<?xml version="1.0" standalone="no"?>
<!--Created with Inkscape (http://www.inkscape.org/)-->
<svg xmlns="http://www.w3.org/2000/svg" xmlns:xlink="http://www.w3.org/1999/xlink" viewBox="0 0 48 48">
  <defs>
    <linearGradient id="f">
      <stop offset="0" stop-color="#fff" stop-opacity="1"/>
      <stop offset="1" stop-color="#fff" stop-opacity="0"/>
    </linearGradient>
    <linearGradient id="h">
      <stop offset="0" stop-color="#729fcf" stop-opacity="1"/>
      <stop offset="1" stop-color="#2b5582" stop-opacity="1"/>
    </linearGradient>
    <linearGradient id="j">
      <stop offset="0" stop-color="#729fcf" stop-opacity="1"/>
      <stop offset="1" stop-color="#3c74b1" stop-opacity="1"/>
    </linearGradient>
    <linearGradient id="g">
      <stop offset="0" stop-color="#f2f2f2" stop-opacity="1"/>
      <stop offset="1" stop-color="#c3c3c3" stop-opacity="1"/>
    </linearGradient>
    <linearGradient id="i">
      <stop offset="0" stop-color="#aeaeae" stop-opacity="1"/>
      <stop offset="1" stop-color="#c4c4c4" stop-opacity="0"/>
    </linearGradient>
    <linearGradient id="e">
      <stop offset="0" stop-color="#fff" stop-opacity="1"/>
      <stop offset="1" stop-color="#fff" stop-opacity="0"/>
    </linearGradient>
    <linearGradient id="d">
      <stop offset="0" stop-color="#000" stop-opacity="1"/>
      <stop offset="1" stop-color="#000" stop-opacity="0"/>
    </linearGradient>
    <linearGradient id="c">
      <stop offset="0" stop-color="#696969" stop-opacity="1"/>
      <stop offset="1" stop-color="#000" stop-opacity="1"/>
    </linearGradient>
    <linearGradient id="b">
      <stop offset="0" stop-color="#6e3d09" stop-opacity="1"/>
      <stop offset="0.24242425" stop-color="#ea8113" stop-opacity="1"/>
      <stop offset="0.62121212" stop-color="#5c3307" stop-opacity="1"/>
      <stop offset="1" stop-color="#e07c12" stop-opacity="1"/>
    </linearGradient>
    <linearGradient id="a">
      <stop offset="0" stop-color="#bdbdbd" stop-opacity="1"/>
      <stop offset="0.33333334" stop-color="#e2e2e2" stop-opacity="1"/>
      <stop offset="0.66666669" stop-color="#a3a3a3" stop-opacity="1"/>
      <stop offset="1" stop-color="#ddd" stop-opacity="1"/>
    </linearGradient>
    <linearGradient xlink:href="#a" id="l" x1="19.394735" y1="30.001331" x2="23.109331" y2="33.438831" gradientUnits="userSpaceOnUse" gradientTransform="translate(-3.90695,-1.802856)"/>
    <linearGradient xlink:href="#b" id="k" x1="28.058632" y1="18.867767" x2="33.436985" y2="23.742767" gradientUnits="userSpaceOnUse" gradientTransform="translate(-3.90695,-1.802856)"/>
    <radialGradient xlink:href="#c" id="m" cx="15.415101" cy="35.356506" fx="15.415101" fy="35.356506" r="7.5791561" gradientTransform="matrix(0.994655,3.262876e-16,6.564546e-13,0.969322,-4.583017,0.165919)" gradientUnits="userSpaceOnUse"/>
    <radialGradient xlink:href="#d" cx="26.78167" cy="42.343147" fx="26.78167" fy="42.343147" r="14.407301" gradientTransform="matrix(1,0,0,0.282209,1.679212e-15,30.39355)" gradientUnits="userSpaceOnUse"/>
    <linearGradient xlink:href="#e" id="n" x1="13.236155" y1="37.752247" x2="7.7521091" y2="42.282146" gradientUnits="userSpaceOnUse" gradientTransform="matrix(0.852298,0,0,0.852298,-1.675107,3.753977)"/>
    <radialGradient xlink:href="#d" gradientUnits="userSpaceOnUse" gradientTransform="matrix(1,0,0,0.282209,2.936128e-15,30.39355)" cx="26.78167" cy="42.343147" fx="26.78167" fy="42.343147" r="14.407301"/>
    <linearGradient xlink:href="#f" id="t" gradientUnits="userSpaceOnUse" x1="48.25" y1="54.75" x2="48.25" y2="71.25" gradientTransform="matrix(0.718914,0,0,0.718914,-1.897103,-20.68606)"/>
    <linearGradient xlink:href="#g" id="s" gradientUnits="userSpaceOnUse" gradientTransform="matrix(0.812759,0,0,0.807839,-13.64037,6.068141)" x1="60.168766" y1="40.119797" x2="60.440994" y2="43.869797"/>
    <linearGradient xlink:href="#h" id="r" gradientUnits="userSpaceOnUse" gradientTransform="matrix(0.718914,0,0,0.718914,-1.897103,-22.42481)" x1="49.853037" y1="64.259623" x2="62.768221" y2="64.259623"/>
    <linearGradient xlink:href="#i" id="q" gradientUnits="userSpaceOnUse" gradientTransform="matrix(0.888619,0,0,0.718914,-18.29768,9.471728)" x1="61.871845" y1="29.615223" x2="61.871845" y2="41.459263"/>
    <linearGradient xlink:href="#g" id="p" gradientUnits="userSpaceOnUse" gradientTransform="matrix(0.773956,0,0,0.77339,-11.04515,8.169021)" x1="53.168766" y1="24.244797" x2="69.690994" y2="24.244797"/>
    <linearGradient xlink:href="#j" id="o" gradientUnits="userSpaceOnUse" gradientTransform="matrix(1.105925,0,0,0.744631,-30.88595,10.91609)" x1="52.717936" y1="2.3161638" x2="67.465988" y2="2.3161638"/>
  </defs>
  <metadata/>
  <path style="marker:none" d="M 18.738329 40.310215 A 7.7781744 2.032932 0 1 1  3.1819801,40.310215 A 7.7781744 2.032932 0 1 1  18.738329 40.310215 z" transform="matrix(1.170455,0,0,0.869565,-1.426266,4.715406)" opacity=".2" color="#000" fill="#000" fill-opacity="1" fill-rule="evenodd" stroke="none" stroke-width="1" stroke-linecap="round" stroke-linejoin="round" marker-start="none" marker-mid="none" marker-end="none" stroke-miterlimit="4" stroke-dasharray="none" stroke-dashoffset="0" stroke-opacity="1" visibility="visible" display="inline" overflow="visible"/>
  <rect style="marker:none" width="26.074562" height="3.5355339" x="21.478369" y="41" rx="1.767767" ry="1.767767" opacity=".2" color="#000" fill="#000" fill-opacity="1" fill-rule="evenodd" stroke="none" stroke-width="1" stroke-linecap="round" stroke-linejoin="round" marker-start="none" marker-mid="none" marker-end="none" stroke-miterlimit="4" stroke-dasharray="none" stroke-dashoffset="0" stroke-opacity="1" visibility="visible" display="inline" overflow="visible"/>
  <path style="marker:none" d="M 19.651682,22.586735 L 23.717546,26.387433 C 30.905045,19.324934 41.500606,2.4101455 41.500606,2.4101455 C 41.930096,1.1856993 40.413361,0.41425264 39.654254,1.2396505 C 39.654254,1.2396505 25.964181,15.336736 19.651682,22.586735 z " opacity="1" color="#000" fill="url(#k)" fill-opacity="1" fill-rule="nonzero" stroke="#000" stroke-width="2" stroke-linecap="round" stroke-linejoin="miter" marker-start="none" marker-mid="none" marker-end="none" stroke-miterlimit="4" stroke-dasharray="none" stroke-dashoffset="0" stroke-opacity="1" visibility="visible" display="inline" overflow="visible"/>
  <path style="marker:none" d="M 12.050285,32.813894 L 14.296605,34.747714 L 22.789371,27.380683 L 23.064432,26.674855 L 24.158837,26.65704 C 23.721337,25.09454 21.217323,22.273585 19.342323,22.273585 L 19.424342,23.36366 L 18.754351,23.743687 L 12.050285,32.813894 z " opacity="1" color="#000" fill="url(#l)" fill-opacity="1" fill-rule="nonzero" stroke="#000" stroke-width="2" stroke-linecap="round" stroke-linejoin="miter" marker-start="none" marker-mid="none" marker-end="none" stroke-miterlimit="4" stroke-dasharray="none" stroke-dashoffset="0" stroke-opacity="1" visibility="visible" display="inline" overflow="visible"/>
  <path style="marker:none" d="M 1.757709,40.723915 C 8.3630216,40.723915 13.375896,41.510516 14.324934,36.704842 C 15.089727,32.832133 9.7646096,30.976482 7.1258026,34.433791 C 4.583799,37.76427 1.757709,40.723915 1.757709,40.723915 z " opacity="1" color="#000" fill="url(#m)" fill-opacity="1" fill-rule="nonzero" stroke="none" stroke-width=".2" stroke-linecap="round" stroke-linejoin="miter" marker-start="none" marker-mid="none" marker-end="none" stroke-miterlimit="4" stroke-dasharray="none" stroke-dashoffset="0" stroke-opacity="1" visibility="visible" display="inline" overflow="visible"/>
  <path style="marker:none" d="M 8.8749989 37.75 A 1.2499999 1.2499999 0 1 1  6.3749992,37.75 A 1.2499999 1.2499999 0 1 1  8.8749989 37.75 z" transform="matrix(0.852298,0,0,0.852298,3.733554,2.575604)" opacity=".52777782" color="#000" fill="#fff" fill-opacity="1" fill-rule="nonzero" stroke="none" stroke-width="1" stroke-linecap="round" stroke-linejoin="miter" marker-start="none" marker-mid="none" marker-end="none" stroke-miterlimit="4" stroke-dasharray="none" stroke-dashoffset="0" stroke-opacity="1" visibility="visible" display="inline" overflow="visible"/>
  <path transform="matrix(0.787867,0,0,0.787867,14.26538,-4.723366)" d="M 8.8749989 37.75 A 1.2499999 1.2499999 0 1 1  6.3749992,37.75 A 1.2499999 1.2499999 0 1 1  8.8749989 37.75 z" style="marker:none" opacity="1" color="#000" fill="#fff" fill-opacity="1" fill-rule="nonzero" stroke="none" stroke-width="1" stroke-linecap="round" stroke-linejoin="miter" marker-start="none" marker-mid="none" marker-end="none" stroke-miterlimit="4" stroke-dasharray="none" stroke-dashoffset="0" stroke-opacity="1" visibility="visible" display="inline" overflow="visible"/>
  <path style="marker:none" d="M 18.941438,26.398154 L 13.638137,32.541144" opacity="1" color="#000" fill="none" fill-opacity="1" fill-rule="nonzero" stroke="#fff" stroke-width="1" stroke-linecap="round" stroke-linejoin="round" marker-start="none" marker-mid="none" marker-end="none" stroke-miterlimit="4" stroke-dasharray="none" stroke-dashoffset="0" stroke-opacity="1" visibility="visible" display="inline" overflow="visible"/>
  <path style="marker:none" d="M 3.0708872,40.068976 C 3.0708872,40.068976 6.4119986,38.427155 7.8357156,35.982147 C 8.3394226,35.11711 9.4800886,35.855311 8.7773816,36.716646 C 7.2595536,38.577104 3.0708872,40.068976 3.0708872,40.068976 z " opacity=".42777776" color="#000" fill="url(#n)" fill-opacity="1" fill-rule="nonzero" stroke="none" stroke-width="1" stroke-linecap="round" stroke-linejoin="miter" marker-start="none" marker-mid="none" marker-end="none" stroke-miterlimit="4" stroke-dasharray="none" stroke-dashoffset="0" stroke-opacity="1" visibility="visible" display="inline" overflow="visible"/>
  <path style="marker:none" d="M 8.8749989 37.75 A 1.2499999 1.2499999 0 1 1  6.3749992,37.75 A 1.2499999 1.2499999 0 1 1  8.8749989 37.75 z" transform="matrix(0.237867,0,0,0.237867,38.43389,-7.101028)" opacity=".53333327" color="#000" fill="#fff" fill-opacity="1" fill-rule="nonzero" stroke="none" stroke-width="1" stroke-linecap="round" stroke-linejoin="miter" marker-start="none" marker-mid="none" marker-end="none" stroke-miterlimit="4" stroke-dasharray="none" stroke-dashoffset="0" stroke-opacity="1" visibility="visible" display="inline" overflow="visible"/>
  <g transform="translate(-1.06066,0)">
    <path d="M 35.001535,6.218662 C 31.080572,6.330589 27.969128,7.5728333 27.969128,9.0708338 C 27.969128,9.4269158 27.969128,13.292568 27.969128,13.64865 C 27.969128,15.220323 31.393954,16.500821 35.587567,16.500821 C 39.781177,16.500821 43.173448,15.220323 43.173448,13.64865 C 43.173448,13.292568 43.173448,9.4269158 43.173448,9.0708338 C 43.173448,7.4991609 39.781177,6.218662 35.587567,6.218662 C 35.39099,6.218662 35.194367,6.2131569 35.001535,6.218662 z " style="marker:none" color="#000" fill="url(#o)" fill-opacity="1" fill-rule="nonzero" stroke="#000" stroke-width="2.00000048" stroke-linecap="round" stroke-linejoin="miter" marker-start="none" marker-mid="none" marker-end="none" stroke-miterlimit="4" stroke-dasharray="none" stroke-dashoffset="0" stroke-opacity="1" visibility="visible" display="inline" overflow="visible"/>
    <path transform="matrix(0.886278,0,0,0.468914,-10.44392,-9.718859)" d="M 57.375 49.75 A 5.375 1.5 0 1 1  46.625,49.75 A 5.375 1.5 0 1 1  57.375 49.75 z" style="marker:none" color="#000" fill="#3465a4" fill-opacity="1" fill-rule="nonzero" stroke="none" stroke-width=".99999982" stroke-linecap="round" stroke-linejoin="miter" marker-start="none" marker-mid="none" marker-end="none" stroke-miterlimit="4" stroke-dasharray="none" stroke-dashoffset="0" stroke-opacity="1" visibility="visible" display="inline" overflow="visible"/>
    <path d="M 27.27686,40.102046 L 28.403206,17.134857 L 31.078277,13.193742 C 33.198944,12.510155 38.314399,12.510155 40.229839,13.193742 L 42.904912,16.455356 L 45.720778,40.645649 L 27.27686,40.102046 z " style="marker:none" color="#000" fill="url(#p)" fill-opacity="1" fill-rule="nonzero" stroke="#000" stroke-width="1.99999917" stroke-linecap="round" stroke-linejoin="miter" marker-start="none" marker-mid="none" marker-end="none" stroke-miterlimit="4" stroke-dasharray="none" stroke-dashoffset="0" stroke-opacity="1" visibility="visible" display="inline" overflow="visible"/>
    <path d="M 28.828495,38.896108 C 28.828495,38.896108 31.419168,29.364565 36.368683,29.364565 C 41.475284,29.364565 44.537218,39.27737 44.537218,39.27737 L 28.828495,38.896108 z " style="marker:none" color="#000" fill="url(#q)" fill-opacity="1" fill-rule="nonzero" stroke="none" stroke-width="1" stroke-linecap="round" stroke-linejoin="miter" marker-start="none" marker-mid="none" marker-end="none" stroke-miterlimit="4" stroke-dasharray="none" stroke-dashoffset="0" stroke-opacity="1" visibility="visible" display="inline" overflow="visible"/>
    <path d="M 29.180138,20.498708 L 28.884225,26.97345 C 30.546714,25.895079 40.876736,25.708964 43.22785,27.361098 L 42.526302,20.763785 C 41.128342,19.810631 31.943464,19.28554 29.180138,20.498708 z " style="marker:none" color="#000" fill="url(#r)" fill-opacity="1" fill-rule="nonzero" stroke="none" stroke-width="1" stroke-linecap="round" stroke-linejoin="miter" marker-start="none" marker-mid="none" marker-end="none" stroke-miterlimit="4" stroke-dasharray="none" stroke-dashoffset="0" stroke-opacity="1" visibility="visible" display="inline" overflow="visible"/>
    <path style="marker:none" d="M 29.048762,38.222096 L 29.926259,18.027784 L 31.766226,14.994949 C 33.584782,14.402774 37.971484,14.402774 39.614049,14.994949 L 41.57453,17.527535 L 44.026754,38.7759 L 29.048762,38.222096 z " opacity=".5944443" color="#000" fill="none" fill-opacity="1" fill-rule="nonzero" stroke="#fff" stroke-width="1.00000012" stroke-linecap="round" stroke-linejoin="miter" marker-start="none" marker-mid="none" marker-end="none" stroke-miterlimit="4" stroke-dasharray="none" stroke-dashoffset="0" stroke-opacity="1" visibility="visible" display="inline" overflow="visible"/>
    <rect ry="0.8838836" rx="0.88388419" y="37.941902" x="24.990759" height="4.1162033" width="22.018503" style="marker:none" color="#000" fill="url(#s)" fill-opacity="1" fill-rule="nonzero" stroke="#000" stroke-width="1.99999988" stroke-linecap="round" stroke-linejoin="miter" marker-start="none" marker-mid="none" marker-end="none" stroke-miterlimit="4" stroke-dasharray="none" stroke-dashoffset="0" stroke-opacity="1" visibility="visible" display="inline" overflow="visible"/>
    <path d="M 29.395219,17.996451 C 31.269756,16.630263 38.493153,16.341277 42.115139,17.389747 L 39.777733,14.504124 C 37.299532,13.836916 33.853386,14.128358 31.502272,14.573164 L 29.395219,17.996451 z " style="marker:none" color="#000" fill="#fff" fill-opacity="1" fill-rule="nonzero" stroke="none" stroke-width="1" stroke-linecap="round" stroke-linejoin="miter" marker-start="none" marker-mid="none" marker-end="none" stroke-miterlimit="4" stroke-dasharray="none" stroke-dashoffset="0" stroke-opacity="1" visibility="visible" display="inline" overflow="visible"/>
    <path d="M 31.172941,17.416382 L 31.172941,32.873033 L 34.408054,29.278463 L 34.048597,16.697468 L 31.172941,17.416382 z " style="marker:none" opacity=".86111109" color="#000" fill="url(#t)" fill-opacity="1" fill-rule="nonzero" stroke="none" stroke-width=".99999982" stroke-linecap="round" stroke-linejoin="miter" marker-start="none" marker-mid="none" marker-end="none" stroke-miterlimit="4" stroke-dasharray="none" stroke-dashoffset="0" stroke-opacity="1" visibility="visible" display="inline" overflow="visible"/>
    <g opacity=".57777782">
      <path style="marker:none" d="M 31.009391,9.3809738 L 31.009391,12.621009 C 31.009391,12.621009 31.62058,12.273323 32,12.259688 L 32,9 C 31.518428,9.0694626 31.009391,9.3809738 31.009391,9.3809738 z " opacity=".41111109" color="#000" fill="#e6e7e6" fill-opacity="1" fill-rule="nonzero" stroke="none" stroke-width="1" stroke-linecap="round" stroke-linejoin="miter" marker-start="none" marker-mid="none" marker-end="none" stroke-miterlimit="4" stroke-dasharray="none" stroke-dashoffset="0" stroke-opacity="1" visibility="visible" display="inline" overflow="visible"/>
      <path d="M 33.009391,8.7599648 L 33.009391,12 C 33.009391,12 33.62058,11.917479 34,11.903844 L 34,8.5889133 C 33.488399,8.6147179 33.009391,8.7599648 33.009391,8.7599648 z " style="marker:none" color="#000" fill="#e6e7e6" fill-opacity="1" fill-rule="nonzero" stroke="none" stroke-width="1" stroke-linecap="round" stroke-linejoin="miter" marker-start="none" marker-mid="none" marker-end="none" stroke-miterlimit="4" stroke-dasharray="none" stroke-dashoffset="0" stroke-opacity="1" visibility="visible" display="inline" overflow="visible"/>
      <path style="marker:none" d="M 35.009391,8.561091 L 35.009391,11.856369 C 35.009391,11.856369 35.565337,11.851187 36,11.870698 L 36,8.5336706 C 35.499448,8.4821354 35.009391,8.561091 35.009391,8.561091 z " opacity=".44444442" color="#000" fill="#e6e7e6" fill-opacity="1" fill-rule="nonzero" stroke="none" stroke-width="1" stroke-linecap="round" stroke-linejoin="miter" marker-start="none" marker-mid="none" marker-end="none" stroke-miterlimit="4" stroke-dasharray="none" stroke-dashoffset="0" stroke-opacity="1" visibility="visible" display="inline" overflow="visible"/>
    </g>
  </g>
</svg>
