<?xml version="1.0" standalone="no"?>
<!--Created with Inkscape (http://www.inkscape.org/)-->
<svg xmlns="http://www.w3.org/2000/svg" xmlns:xlink="http://www.w3.org/1999/xlink" viewBox="0 0 48 48">
  <defs>
    <linearGradient id="c">
      <stop offset="0" stop-color="#fff" stop-opacity="1"/>
      <stop offset="1" stop-color="#fff" stop-opacity="0"/>
    </linearGradient>
    <linearGradient id="b">
      <stop offset="0" stop-color="#fff" stop-opacity="1"/>
      <stop offset="1" stop-color="#fff" stop-opacity="0"/>
    </linearGradient>
    <linearGradient id="a">
      <stop offset="0.0000000" stop-color="#fff" stop-opacity="1"/>
      <stop offset="1.0000000" stop-color="#fff" stop-opacity=".16494845"/>
    </linearGradient>
    <radialGradient xlink:href="#a" id="l" gradientTransform="scale(0.999989,1.000011)" cx="15.601279" cy="12.142302" fx="15.601279" fy="12.142302" r="43.526714" gradientUnits="userSpaceOnUse"/>
    <radialGradient xlink:href="#b" id="r" gradientUnits="userSpaceOnUse" cx="12.071323" cy="12.493138" fx="12.071323" fy="12.493138" r="6.7175145"/>
    <radialGradient xlink:href="#b" id="s" gradientUnits="userSpaceOnUse" cx="12.071323" cy="12.493138" fx="12.071323" fy="12.493138" r="6.7175145"/>
    <radialGradient xlink:href="#b" id="o" gradientUnits="userSpaceOnUse" cx="12.071323" cy="12.493138" fx="12.071323" fy="12.493138" r="6.7175145"/>
    <radialGradient xlink:href="#b" id="t" gradientUnits="userSpaceOnUse" cx="12.071323" cy="12.493138" fx="12.071323" fy="12.493138" r="6.7175145"/>
    <linearGradient xlink:href="#c" id="m" x1="-25.176178" y1="30.057165" x2="-22.252472" y2="21.041553" gradientUnits="userSpaceOnUse"/>
    <linearGradient xlink:href="#c" id="n" gradientUnits="userSpaceOnUse" x1="-25.176178" y1="30.057165" x2="-22.113543" y2="22.661524"/>
    <linearGradient xlink:href="#c" id="p" gradientUnits="userSpaceOnUse" x1="-22.822565" y1="28.337734" x2="-22.113543" y2="22.661524"/>
    <linearGradient xlink:href="#c" id="q" gradientUnits="userSpaceOnUse" x1="-21.658581" y1="15.649428" x2="-21.962101" y2="21.336346"/>
    <linearGradient y2="41.316399" x2="31.453899" y1="7.7627001" x1="12.138700" gradientUnits="userSpaceOnUse" id="d">
      <stop offset="0" stop-color="#f0f0f0"/>
      <stop offset="1" stop-color="#d6d6d6"/>
    </linearGradient>
    <radialGradient id="e" cx="17.7881" cy="15.2314" r="29.6346" fx="17.7881" fy="15.2314" gradientUnits="userSpaceOnUse">
      <stop offset="0" stop-color="#99bba8"/>
      <stop offset="4.483276e-002" stop-color="#94b8a9"/>
      <stop offset="9.596599e-002" stop-color="#87b0a9"/>
      <stop offset="0.1502" stop-color="#72a1a9"/>
      <stop offset="0.2065" stop-color="#538fa8"/>
      <stop offset="0.264" stop-color="#2e79a7"/>
      <stop offset="0.2865" stop-color="#1d70a5"/>
      <stop offset="0.8539" stop-color="#190f50"/>
      <stop offset="1" stop-color="#585287"/>
    </radialGradient>
    <radialGradient id="f" cx="17.0264" cy="15.0728" r="24.3844" fx="17.0264" fy="15.0728" gradientUnits="userSpaceOnUse">
      <stop offset="0" stop-color="#d5d690"/>
      <stop offset="0.2202" stop-color="#cfd08c"/>
      <stop offset="0.4404" stop-color="#bfbf80"/>
      <stop offset="0.6607" stop-color="#a4a46d"/>
      <stop offset="0.8799" stop-color="#828257"/>
      <stop offset="0.927" stop-color="#7a7a52"/>
      <stop offset="1" stop-color="#9c9c68"/>
    </radialGradient>
    <radialGradient id="g" cx="19.5713" cy="16.7095" r="21.0888" fx="19.5713" fy="16.7095" gradientUnits="userSpaceOnUse">
      <stop offset="0" stop-color="#d5d690"/>
      <stop offset="0.2202" stop-color="#cfd08c"/>
      <stop offset="0.4404" stop-color="#bfbf80"/>
      <stop offset="0.6607" stop-color="#a4a46d"/>
      <stop offset="0.8799" stop-color="#828257"/>
      <stop offset="0.927" stop-color="#7a7a52"/>
      <stop offset="1" stop-color="#9c9c68"/>
    </radialGradient>
    <radialGradient xlink:href="#d" id="h" gradientUnits="userSpaceOnUse" gradientTransform="matrix(0.75,0,0,0.75,88.56382,59.54745)" cx="19.5688" cy="15.2549" fx="19.5688" fy="15.2549" r="28.1322"/>
    <radialGradient xlink:href="#e" id="i" gradientUnits="userSpaceOnUse" gradientTransform="matrix(0.699434,-2.39768e-16,2.39768e-16,0.699434,89.46329,60.31764)" cx="17.788099" cy="15.231400" fx="17.788099" fy="15.231400" r="29.634600"/>
    <radialGradient xlink:href="#f" id="j" gradientUnits="userSpaceOnUse" gradientTransform="matrix(0.75,0,0,0.75,88.56382,59.54745)" cx="17.026400" cy="15.072800" fx="17.026400" fy="15.072800" r="24.384399"/>
    <radialGradient xlink:href="#g" id="k" gradientUnits="userSpaceOnUse" gradientTransform="matrix(0.75,0,0,0.75,88.56382,59.54745)" cx="19.571301" cy="16.709499" fx="19.571301" fy="16.709499" r="21.088800"/>
  </defs>
  <metadata/>
  <g transform="matrix(1.302248,0,0,1.302248,-114.4362,-77.34362)">
    <path transform="matrix(0.742296,0,0,0.905548,88.87561,56.88371)" d="M 42.5 37 A 19.125 5.25 0 1 1  4.25,37 A 19.125 5.25 0 1 1  42.5 37 z" style="marker:none" opacity=".2" color="#000" fill="#000" fill-opacity="1" fill-rule="nonzero" stroke="none" stroke-width="1.25" stroke-linecap="butt" stroke-linejoin="miter" marker-start="none" marker-mid="none" marker-end="none" stroke-miterlimit="4" stroke-dashoffset="0" stroke-opacity="1" visibility="visible" display="inline" overflow="visible"/>
    <path d="M 91.863828,77.397455 C 91.863828,85.572455 98.463828,92.172455 106.63883,92.172455 C 114.81383,92.172455 121.41383,85.572455 121.41383,77.397455 C 121.41383,69.222455 114.81383,62.622455 106.63883,62.622455 C 98.463828,62.622455 91.863828,69.222455 91.863828,77.397455 L 91.863828,77.397455 z " fill="url(#h)" fill-rule="evenodd" stroke="#000" stroke-width="2.38658357" stroke-miterlimit="4"/>
    <path d="M 91.863828,77.397455 C 91.863828,85.572455 98.463828,92.172455 106.63883,92.172455 C 114.81383,92.172455 121.41383,85.572455 121.41383,77.397455 C 121.41383,69.222455 114.81383,62.622455 106.63883,62.622455 C 98.463828,62.622455 91.863828,69.222455 91.863828,77.397455 L 91.863828,77.397455 z " fill="url(#i)" fill-opacity="1" fill-rule="evenodd" stroke="none" stroke-miterlimit="4"/>
    <path d="M 104.76383,68.547455 L 108.28883,71.547455 L 109.93883,68.622455 L 112.33883,71.247455 L 108.21383,73.647455 L 107.68883,77.247455 L 108.51383,78.747455 L 107.68883,78.747455 L 106.63883,77.247455 L 103.26383,77.247455 L 101.98883,79.497455 L 105.28883,81.447455 L 110.08883,84.222455 L 106.11383,87.522455 L 106.11383,90.822455 L 103.11383,83.922455 L 104.31383,81.822455 L 100.78883,79.497455 L 100.78883,76.572455 L 99.138828,70.572455 L 97.188828,69.447455 L 97.413828,67.347455 L 100.18883,65.547455 L 100.18883,67.872455 L 104.76383,68.547455 z " fill="url(#j)" fill-opacity="1" fill-rule="evenodd" stroke="none" stroke-miterlimit="4"/>
    <path d="M 115.03883,66.822455 L 115.03883,68.697455 L 116.08883,70.572455 L 116.08883,73.497455 L 117.73883,74.472455 L 117.96383,72.597455 L 116.98883,70.797455 L 118.41383,70.797455 L 115.03883,66.822455 z " fill="url(#k)" fill-opacity="1" fill-rule="evenodd" stroke="none" stroke-miterlimit="4"/>
  </g>
  <path d="M 42.975093,23.485534 C 42.975093,33.651354 34.733915,41.892440 24.569493,41.892440 C 14.404139,41.892440 6.1634261,33.651261 6.1634261,23.485534 C 6.1634261,13.320180 14.404139,5.0799340 24.569493,5.0799340 C 34.733915,5.0799340 42.975093,13.320180 42.975093,23.485534 L 42.975093,23.485534 z " fill="none" fill-opacity="1" fill-rule="nonzero" stroke="url(#l)" stroke-miterlimit="4" stroke-opacity="1" opacity=".3956044"/>
  <path style="marker:none" d="M -2.8284283 21.041553 A 15.733126 9.4575529 0 1 1  -34.29468,21.041553 A 15.733126 9.4575529 0 1 1  -2.8284283 21.041553 z" transform="matrix(1.131034,0.613097,-0.476556,0.879144,54.09058,16.04435)" opacity="1" color="#000" fill="none" fill-opacity="1" fill-rule="evenodd" stroke="url(#m)" stroke-width=".88164198" stroke-linecap="round" stroke-linejoin="round" marker-start="none" marker-mid="none" marker-end="none" stroke-miterlimit="4" stroke-dasharray="none" stroke-dashoffset="0" stroke-opacity="1" visibility="visible" display="inline" overflow="visible"/>
  <path transform="matrix(0.939326,-0.879086,0.683307,0.730131,32.31406,-4.451561)" d="M -2.8284283 21.041553 A 15.733126 9.4575529 0 1 1  -34.29468,21.041553 A 15.733126 9.4575529 0 1 1  -2.8284283 21.041553 z" style="marker:none" opacity="1" color="#000" fill="none" fill-opacity="1" fill-rule="evenodd" stroke="url(#n)" stroke-width=".88164198" stroke-linecap="round" stroke-linejoin="round" marker-start="none" marker-mid="none" marker-end="none" stroke-miterlimit="4" stroke-dasharray="none" stroke-dashoffset="0" stroke-opacity="1" visibility="visible" display="inline" overflow="visible"/>
  <g transform="matrix(-1.045772,0.767251,0.767251,1.045772,35.61651,-22.14396)">
    <path transform="translate(14.95026,22.93047)" d="M 18.788838 12.493138 A 6.7175145 6.7175145 0 1 1  5.3538089,12.493138 A 6.7175145 6.7175145 0 1 1  18.788838 12.493138 z" style="marker:none" opacity="1" color="#000" fill="url(#o)" fill-opacity="1" fill-rule="evenodd" stroke="none" stroke-width="1" stroke-linecap="round" stroke-linejoin="round" marker-start="none" marker-mid="none" marker-end="none" stroke-miterlimit="4" stroke-dasharray="none" stroke-dashoffset="0" stroke-opacity="1" visibility="visible" display="inline" overflow="visible"/>
    <path style="marker:none" d="M 18.788838 12.493138 A 6.7175145 6.7175145 0 1 1  5.3538089,12.493138 A 6.7175145 6.7175145 0 1 1  18.788838 12.493138 z" transform="matrix(0.308271,0,0,0.308271,23.30035,31.57234)" opacity="1" color="#000" fill="#fff" fill-opacity="1" fill-rule="evenodd" stroke="none" stroke-width="1" stroke-linecap="round" stroke-linejoin="round" marker-start="none" marker-mid="none" marker-end="none" stroke-miterlimit="4" stroke-dasharray="none" stroke-dashoffset="0" stroke-opacity="1" visibility="visible" display="inline" overflow="visible"/>
  </g>
  <path style="marker:none" d="M -2.8284283 21.041553 A 15.733126 9.4575529 0 1 1  -34.29468,21.041553 A 15.733126 9.4575529 0 1 1  -2.8284283 21.041553 z" transform="matrix(-1.280316,-0.126159,9.806226e-2,-0.99518,-2.405125,40.52387)" opacity="1" color="#000" fill="none" fill-opacity="1" fill-rule="evenodd" stroke="url(#p)" stroke-width=".88164198" stroke-linecap="round" stroke-linejoin="round" marker-start="none" marker-mid="none" marker-end="none" stroke-miterlimit="4" stroke-dasharray="none" stroke-dashoffset="0" stroke-opacity="1" visibility="visible" display="inline" overflow="visible"/>
  <path style="marker:none" d="M -2.8284283 21.041553 A 15.733126 9.4575529 0 1 1  -34.29468,21.041553 A 15.733126 9.4575529 0 1 1  -2.8284283 21.041553 z" transform="matrix(0.917874,-0.858983,0.667701,0.713433,27.63317,-6.909069)" opacity="1" color="#000" fill="none" fill-opacity="1" fill-rule="evenodd" stroke="url(#q)" stroke-width=".90226138" stroke-linecap="round" stroke-linejoin="round" marker-start="none" marker-mid="none" marker-end="none" stroke-miterlimit="4" stroke-dasharray="none" stroke-dashoffset="0" stroke-opacity="1" visibility="visible" display="inline" overflow="visible"/>
  <g transform="matrix(-0.806276,0.59154,0.59154,0.806276,12.38564,-18.02921)">
    <path transform="translate(14.95026,22.93047)" d="M 18.788838 12.493138 A 6.7175145 6.7175145 0 1 1  5.3538089,12.493138 A 6.7175145 6.7175145 0 1 1  18.788838 12.493138 z" style="marker:none" opacity="1" color="#000" fill="url(#r)" fill-opacity="1" fill-rule="evenodd" stroke="none" stroke-width="1" stroke-linecap="round" stroke-linejoin="round" marker-start="none" marker-mid="none" marker-end="none" stroke-miterlimit="4" stroke-dasharray="none" stroke-dashoffset="0" stroke-opacity="1" visibility="visible" display="inline" overflow="visible"/>
    <path style="marker:none" d="M 18.788838 12.493138 A 6.7175145 6.7175145 0 1 1  5.3538089,12.493138 A 6.7175145 6.7175145 0 1 1  18.788838 12.493138 z" transform="matrix(0.308271,0,0,0.308271,23.30035,31.57234)" opacity="1" color="#000" fill="#fff" fill-opacity="1" fill-rule="evenodd" stroke="none" stroke-width="1" stroke-linecap="round" stroke-linejoin="round" marker-start="none" marker-mid="none" marker-end="none" stroke-miterlimit="4" stroke-dasharray="none" stroke-dashoffset="0" stroke-opacity="1" visibility="visible" display="inline" overflow="visible"/>
  </g>
  <g transform="matrix(-0.806276,0.59154,0.59154,0.806276,13.4991,-31.50022)">
    <path style="marker:none" d="M 18.788838 12.493138 A 6.7175145 6.7175145 0 1 1  5.3538089,12.493138 A 6.7175145 6.7175145 0 1 1  18.788838 12.493138 z" transform="translate(14.95026,22.93047)" opacity="1" color="#000" fill="url(#s)" fill-opacity="1" fill-rule="evenodd" stroke="none" stroke-width="1" stroke-linecap="round" stroke-linejoin="round" marker-start="none" marker-mid="none" marker-end="none" stroke-miterlimit="4" stroke-dasharray="none" stroke-dashoffset="0" stroke-opacity="1" visibility="visible" display="inline" overflow="visible"/>
    <path transform="matrix(0.308271,0,0,0.308271,23.30035,31.57234)" d="M 18.788838 12.493138 A 6.7175145 6.7175145 0 1 1  5.3538089,12.493138 A 6.7175145 6.7175145 0 1 1  18.788838 12.493138 z" style="marker:none" opacity="1" color="#000" fill="#fff" fill-opacity="1" fill-rule="evenodd" stroke="none" stroke-width="1" stroke-linecap="round" stroke-linejoin="round" marker-start="none" marker-mid="none" marker-end="none" stroke-miterlimit="4" stroke-dasharray="none" stroke-dashoffset="0" stroke-opacity="1" visibility="visible" display="inline" overflow="visible"/>
  </g>
  <g transform="matrix(-0.870227,0.638572,0.638458,0.870381,25.20503,-35.31278)" opacity="1">
    <path style="marker:none" d="M 18.788838 12.493138 A 6.7175145 6.7175145 0 1 1  5.3538089,12.493138 A 6.7175145 6.7175145 0 1 1  18.788838 12.493138 z" transform="translate(14.95026,22.93047)" opacity="1" color="#000" fill="url(#t)" fill-opacity="1" fill-rule="evenodd" stroke="none" stroke-width="1" stroke-linecap="round" stroke-linejoin="round" marker-start="none" marker-mid="none" marker-end="none" stroke-miterlimit="4" stroke-dasharray="none" stroke-dashoffset="0" stroke-opacity="1" visibility="visible" display="inline" overflow="visible"/>
    <path transform="matrix(0.308271,0,0,0.308271,23.30035,31.57234)" d="M 18.788838 12.493138 A 6.7175145 6.7175145 0 1 1  5.3538089,12.493138 A 6.7175145 6.7175145 0 1 1  18.788838 12.493138 z" style="marker:none" opacity="1" color="#000" fill="#fff" fill-opacity="1" fill-rule="evenodd" stroke="none" stroke-width="1" stroke-linecap="round" stroke-linejoin="round" marker-start="none" marker-mid="none" marker-end="none" stroke-miterlimit="4" stroke-dasharray="none" stroke-dashoffset="0" stroke-opacity="1" visibility="visible" display="inline" overflow="visible"/>
  </g>
</svg>
