<?xml version="1.0" standalone="no"?>
<!--Created with Inkscape (http://www.inkscape.org/)-->
<svg xmlns="http://www.w3.org/2000/svg" xmlns:xlink="http://www.w3.org/1999/xlink" viewBox="0 0 48 48">
  <defs>
    <linearGradient id="a">
      <stop offset="0.0000000" stop-color="#b1b1b1" stop-opacity="1"/>
      <stop offset="0.20000000" stop-color="#dfdfdf" stop-opacity="1"/>
      <stop offset="1.0000000" stop-color="#565656" stop-opacity="1"/>
    </linearGradient>
    <linearGradient gradientUnits="userSpaceOnUse" y2="15.069027" x2="23.991123" y1="6.5837460" x1="23.991123" xlink:href="#a"/>
    <linearGradient id="b">
      <stop offset="0" stop-color="#fff" stop-opacity="1"/>
      <stop offset="1" stop-color="#fff" stop-opacity="0"/>
    </linearGradient>
    <linearGradient gradientTransform="matrix(0.771415,0,0,1,28.80996,18.12505)" gradientUnits="userSpaceOnUse" y2="56.399807" x2="16.002489" y1="2.4829133" x1="10.807498" xlink:href="#b"/>
    <linearGradient id="c">
      <stop offset="0.0000000" stop-color="#fff" stop-opacity="1"/>
      <stop offset="1.0000000" stop-color="#a9a9a9" stop-opacity="1"/>
    </linearGradient>
    <linearGradient gradientUnits="userSpaceOnUse" y2="7.1877394" x2="23.991123" y1="12.830256" x1="23.991123" xlink:href="#c"/>
    <linearGradient id="d">
      <stop offset="0.0000000" stop-color="#fff" stop-opacity="1"/>
      <stop offset="0.37333333" stop-color="#d9d9d9" stop-opacity="1"/>
      <stop offset="0.60311109" stop-color="#c5c5c5" stop-opacity="1"/>
      <stop offset="1.0000000" stop-color="#909090" stop-opacity="1"/>
    </linearGradient>
    <radialGradient r="13.261548" fy="14.245288" fx="20.588579" cy="14.245288" cx="20.588579" gradientTransform="matrix(1.866374,-5.50505e-25,1.638067e-24,2.305134,5.969849,-1.888046)" gradientUnits="userSpaceOnUse" xlink:href="#d"/>
    <linearGradient id="e">
      <stop offset="0.0000000" stop-color="#acacac" stop-opacity="1"/>
      <stop offset="1.0000000" stop-color="#8d8d8d" stop-opacity="0"/>
    </linearGradient>
    <linearGradient gradientUnits="userSpaceOnUse" y2="-1.0000000" x2="36.543125" y1="4.3750000" x1="35.743351" xlink:href="#e" gradientTransform="matrix(0.840529,0,0,1,27.13209,17.12505)"/>
    <linearGradient id="f">
      <stop offset="0" stop-color="#000" stop-opacity="1"/>
      <stop offset="1" stop-color="#000" stop-opacity="0"/>
    </linearGradient>
    <radialGradient gradientUnits="userSpaceOnUse" gradientTransform="matrix(1,0,0,0.619469,2.277258e-15,12.30737)" r="22.829447" fy="32.342636" fx="24.344677" cy="32.342636" cx="24.344677" xlink:href="#f"/>
    <linearGradient id="l">
      <stop offset="0" stop-color="#fff" stop-opacity="1"/>
      <stop offset="1" stop-color="#fff" stop-opacity="0"/>
    </linearGradient>
    <linearGradient id="k">
      <stop offset="0" stop-color="#fce94f" stop-opacity="1"/>
      <stop offset="1" stop-color="#fce94f" stop-opacity="0"/>
    </linearGradient>
    <linearGradient id="j">
      <stop offset="0" stop-color="#000" stop-opacity="1"/>
      <stop offset="1" stop-color="#000" stop-opacity="0"/>
    </linearGradient>
    <linearGradient id="m">
      <stop offset="0" stop-color="#fbfbfa" stop-opacity="1"/>
      <stop offset="1" stop-color="#bba" stop-opacity="1"/>
    </linearGradient>
    <linearGradient id="i">
      <stop offset="0" stop-color="#adadad" stop-opacity="1"/>
      <stop offset="1" stop-color="#adadad" stop-opacity="0"/>
    </linearGradient>
    <linearGradient id="h">
      <stop offset="0" stop-color="#fff" stop-opacity="1"/>
      <stop offset="1" stop-color="#fff" stop-opacity="0"/>
    </linearGradient>
    <linearGradient id="g">
      <stop offset="0" stop-color="#e6e5e1" stop-opacity="1"/>
      <stop offset="1" stop-color="#d2d0c9" stop-opacity="1"/>
    </linearGradient>
    <radialGradient xlink:href="#g" cx="12.812498" cy="8.5408306" fx="12.812498" fy="8.5408306" r="19.971419" gradientTransform="matrix(2.857285,3.557798e-16,-2.965062e-16,2.381256,-23.79647,-4.448160)" gradientUnits="userSpaceOnUse"/>
    <linearGradient xlink:href="#h" x1="17.644411" y1="13.676611" x2="58.261826" y2="69.426613" gradientUnits="userSpaceOnUse" gradientTransform="translate(0.000000,5.000000)"/>
    <linearGradient xlink:href="#i" x1="16.25" y1="3.4375" x2="25.5" y2="0.4375" gradientUnits="userSpaceOnUse"/>
    <radialGradient xlink:href="#j" cx="31.4375" cy="27.25" fx="31.4375" fy="27.25" r="8.0625" gradientTransform="matrix(1.000000,0.000000,0.000000,0.108527,0.000000,24.29264)" gradientUnits="userSpaceOnUse"/>
    <radialGradient xlink:href="#j" gradientUnits="userSpaceOnUse" gradientTransform="matrix(1.000000,0.000000,0.000000,0.108527,-1.526814e-14,24.29264)" cx="31.4375" cy="27.25" fx="31.4375" fy="27.25" r="8.0625"/>
    <radialGradient xlink:href="#k" cx="24.019533" cy="15.3847" fx="24.019533" fy="15.3847" r="0.77339804" gradientTransform="matrix(1.000000,0.000000,0.000000,2.171429,6.804453e-16,-18.02208)" gradientUnits="userSpaceOnUse"/>
    <radialGradient xlink:href="#l" cx="24.019533" cy="15.3847" fx="24.019533" fy="15.3847" r="0.77339804" gradientTransform="matrix(1.000000,0.000000,0.000000,2.171429,5.295243e-16,-18.02208)" gradientUnits="userSpaceOnUse"/>
    <linearGradient xlink:href="#m" gradientUnits="userSpaceOnUse" x1="97.501556" y1="20.080032" x2="100.60255" y2="23.080032" gradientTransform="translate(-67.00000,-4.534016)"/>
    <radialGradient xlink:href="#f" id="v" gradientUnits="userSpaceOnUse" gradientTransform="matrix(1,0,0,0.619469,-1.469527e-14,12.30737)" cx="24.344677" cy="32.342636" fx="24.344677" fy="32.342636" r="22.829447"/>
    <linearGradient xlink:href="#e" id="w" gradientUnits="userSpaceOnUse" gradientTransform="matrix(0.840529,0,0,1,27.13209,17.12505)" x1="24.441023" y1="-6.8801107" x2="25.277958" y2="-21.403147"/>
    <radialGradient xlink:href="#d" id="x" gradientUnits="userSpaceOnUse" gradientTransform="matrix(2.011623,-5.933475e-25,1.765548e-24,2.484529,2.738604,-5.51099)" cx="20.588579" cy="14.245288" fx="20.588579" fy="14.245288" r="13.261548"/>
    <linearGradient xlink:href="#c" id="y" gradientUnits="userSpaceOnUse" x1="23.991123" y1="12.830256" x2="23.991123" y2="7.1877394"/>
    <linearGradient xlink:href="#b" id="z" gradientUnits="userSpaceOnUse" gradientTransform="matrix(0.752965,0,0,0.976225,29.25675,18.75641)" x1="10.807498" y1="2.4829133" x2="16.002489" y2="56.399807"/>
    <linearGradient xlink:href="#a" id="A" gradientUnits="userSpaceOnUse" x1="23.991123" y1="6.5837460" x2="23.991123" y2="15.069027"/>
    <linearGradient xlink:href="#i" id="n" gradientUnits="userSpaceOnUse" x1="16.25" y1="3.4375" x2="25.5" y2="0.4375"/>
    <radialGradient xlink:href="#g" id="o" gradientUnits="userSpaceOnUse" gradientTransform="matrix(3.036634,3.781117e-16,-3.151176e-16,2.530725,-26.81622,-6.462282)" cx="12.812498" cy="8.5408306" fx="12.812498" fy="8.5408306" r="19.971419"/>
    <radialGradient xlink:href="#j" id="p" gradientUnits="userSpaceOnUse" gradientTransform="matrix(1,0,0,0.108527,0,24.29264)" cx="31.4375" cy="27.25" fx="31.4375" fy="27.25" r="8.0625"/>
    <linearGradient xlink:href="#h" id="q" gradientUnits="userSpaceOnUse" gradientTransform="matrix(0.989129,0,0,0.989055,0.264462,5.248195)" x1="17.644411" y1="13.676611" x2="58.261826" y2="69.426613"/>
    <linearGradient xlink:href="#m" id="r" gradientUnits="userSpaceOnUse" gradientTransform="translate(-67,-4.534016)" x1="97.501556" y1="20.080032" x2="100.60255" y2="23.080032"/>
    <radialGradient xlink:href="#j" id="s" gradientUnits="userSpaceOnUse" gradientTransform="matrix(1,0,0,0.108527,-1.875925e-14,24.29264)" cx="31.4375" cy="27.25" fx="31.4375" fy="27.25" r="8.0625"/>
    <radialGradient xlink:href="#k" id="t" gradientUnits="userSpaceOnUse" gradientTransform="matrix(1,0,0,2.171429,5.80872e-15,-18.02208)" cx="24.019533" cy="15.3847" fx="24.019533" fy="15.3847" r="0.77339804"/>
    <radialGradient xlink:href="#l" id="u" gradientUnits="userSpaceOnUse" gradientTransform="matrix(1,0,0,2.171429,-3.301611e-15,-18.02208)" cx="24.019533" cy="15.3847" fx="24.019533" fy="15.3847" r="0.77339804"/>
  </defs>
  <metadata/>
  <g transform="matrix(0.816472,0,0,0.816472,10.52377,0.197018)">
    <path d="M 11.125,13.75 C 11.5,5.375 12.5625,2.9999999 16.5,2.9999999 C 20.5625,2.9999999 23.25,1.9999999 28.5,-0.6250001" style="marker:none" opacity="1" color="#000" fill="none" fill-opacity="1" fill-rule="evenodd" stroke="url(#n)" stroke-width="2.44956422" stroke-linecap="butt" stroke-linejoin="miter" marker-start="none" marker-mid="none" marker-end="none" stroke-miterlimit="4" stroke-dasharray="none" stroke-dashoffset="0" stroke-opacity="1" visibility="visible" display="inline" overflow="visible"/>
    <rect ry="1.6840754" rx="1.6840744" y="9.375" x="9.0806427" height="4.125" width="4.4637074" style="marker:none" opacity="1" color="#000" fill="#dddbd6" fill-opacity="1" fill-rule="evenodd" stroke="#000" stroke-width="1.22478174" stroke-linecap="butt" stroke-linejoin="miter" marker-start="none" marker-mid="none" marker-end="none" stroke-miterlimit="4" stroke-dasharray="none" stroke-dashoffset="0" stroke-opacity="1" visibility="visible" display="inline" overflow="visible"/>
    <path style="marker:none" d="M 7.8580395,13.120603 C 7.1236645,13.136228 6.7328386,13.766584 6.6390886,14.500959 L 4.7160797,42.754396 C 17.59108,47.004396 34.783918,45.504396 43.658918,42.754396 L 41.178075,14.881402 C 41.084325,14.068902 40.615105,13.136228 39.646355,13.120603 L 7.8580395,13.120603 z " opacity=".05681817" color="#000" fill="#000" fill-opacity="1" fill-rule="evenodd" stroke="#000" stroke-width="1.22478211" stroke-linecap="butt" stroke-linejoin="round" marker-start="none" marker-mid="none" marker-end="none" stroke-miterlimit="4" stroke-dasharray="none" stroke-dashoffset="0" stroke-opacity="1" visibility="visible" display="inline" overflow="visible"/>
    <path d="M 6.9580589,10.482256 C 6.1775879,10.498861 5.7622303,11.168784 5.6625957,11.949255 L 3.6188814,41.976132 C 17.302033,46.4929 35.574048,44.898747 45.006123,41.976132 L 42.36956,12.353578 C 42.269925,11.490078 41.771253,10.498861 40.741695,10.482256 L 6.9580589,10.482256 z " style="marker:none" opacity="1" color="#000" fill="url(#o)" fill-opacity="1" fill-rule="evenodd" stroke="#000" stroke-width="2.44956374" stroke-linecap="butt" stroke-linejoin="round" marker-start="none" marker-mid="none" marker-end="none" stroke-miterlimit="4" stroke-dasharray="none" stroke-dashoffset="0" stroke-opacity="1" visibility="visible" display="inline" overflow="visible"/>
    <rect y="20.493334" x="14.530731" height="12.950815" width="18.688519" style="marker:none" opacity=".26704544" color="#000" fill="none" fill-opacity="1" fill-rule="evenodd" stroke="#707070" stroke-width="1.22478163" stroke-linecap="butt" stroke-linejoin="miter" marker-start="none" marker-mid="none" marker-end="none" stroke-miterlimit="4" stroke-dasharray="none" stroke-dashoffset="0" stroke-opacity="1" visibility="visible" display="inline" overflow="visible"/>
    <rect style="marker:none" width="18.688519" height="12.950815" x="15.499481" y="21.493334" opacity=".26704544" color="#000" fill="none" fill-opacity="1" fill-rule="evenodd" stroke="#fff" stroke-width="1.22478163" stroke-linecap="butt" stroke-linejoin="miter" marker-start="none" marker-mid="none" marker-end="none" stroke-miterlimit="4" stroke-dasharray="none" stroke-dashoffset="0" stroke-opacity="1" visibility="visible" display="inline" overflow="visible"/>
    <g transform="matrix(1,0,0,0.666667,0,9.66667)" opacity=".15909089">
      <rect style="marker:none" width="4" height="3" x="14" y="11" opacity="1" color="#000" fill="#000" fill-opacity="1" fill-rule="evenodd" stroke="none" stroke-width="1" stroke-linecap="butt" stroke-linejoin="miter" marker-start="none" marker-mid="none" marker-end="none" stroke-miterlimit="4" stroke-dasharray="none" stroke-dashoffset="0" stroke-opacity="1" visibility="visible" display="inline" overflow="visible"/>
      <rect y="11" x="19" height="3" width="4" style="marker:none" opacity="1" color="#000" fill="#000" fill-opacity="1" fill-rule="evenodd" stroke="none" stroke-width="1" stroke-linecap="butt" stroke-linejoin="miter" marker-start="none" marker-mid="none" marker-end="none" stroke-miterlimit="4" stroke-dasharray="none" stroke-dashoffset="0" stroke-opacity="1" visibility="visible" display="inline" overflow="visible"/>
      <rect style="marker:none" width="4" height="3" x="24.03125" y="11" opacity="1" color="#000" fill="#000" fill-opacity="1" fill-rule="evenodd" stroke="none" stroke-width="1" stroke-linecap="butt" stroke-linejoin="miter" marker-start="none" marker-mid="none" marker-end="none" stroke-miterlimit="4" stroke-dasharray="none" stroke-dashoffset="0" stroke-opacity="1" visibility="visible" display="inline" overflow="visible"/>
      <rect y="11" x="29" height="3" width="4" style="marker:none" opacity="1" color="#000" fill="#000" fill-opacity="1" fill-rule="evenodd" stroke="none" stroke-width="1" stroke-linecap="butt" stroke-linejoin="miter" marker-start="none" marker-mid="none" marker-end="none" stroke-miterlimit="4" stroke-dasharray="none" stroke-dashoffset="0" stroke-opacity="1" visibility="visible" display="inline" overflow="visible"/>
    </g>
    <path transform="matrix(1,0,0,1.785714,-2.625,-22.50719)" d="M 39.5 27.25 A 8.0625 0.875 0 1 1  23.375,27.25 A 8.0625 0.875 0 1 1  39.5 27.25 z" style="marker:none" opacity=".15909089" color="#000" fill="url(#p)" fill-opacity="1" fill-rule="evenodd" stroke="none" stroke-width=".2" stroke-linecap="butt" stroke-linejoin="miter" marker-start="none" marker-mid="none" marker-end="none" stroke-miterlimit="4" stroke-dasharray="none" stroke-dashoffset="0" stroke-opacity="1" visibility="visible" display="inline" overflow="visible"/>
    <path style="marker:none" d="M 8.3554337,12.643877 C 7.8917041,12.627438 7.9625058,13.288435 7.8756843,13.968485 L 6.094794,40.271002 C 18.018277,44.206615 34.342325,42.771214 42.561425,40.224641 L 40.171196,14.166246 C 40.084375,13.413849 40.237127,12.658346 39.339972,12.643877 L 8.3554337,12.643877 z " opacity=".60795456" color="#000" fill="none" fill-opacity="1" fill-rule="evenodd" stroke="url(#q)" stroke-width="1.22478187" stroke-linecap="butt" stroke-linejoin="miter" marker-start="none" marker-mid="none" marker-end="none" stroke-miterlimit="4" stroke-dasharray="none" stroke-dashoffset="0" stroke-opacity="1" visibility="visible" display="inline" overflow="visible"/>
    <rect transform="matrix(0.730224,-0.683208,0.683208,0.730224,0,0)" ry="0.45929343" rx="0.45929343" y="33.924007" x="-1.755459" height="0.75000024" width="2.2812505" style="marker:none" opacity="1" color="#000" fill="#dedede" fill-opacity="1" fill-rule="evenodd" stroke="#000" stroke-width=".24495649" stroke-linecap="butt" stroke-linejoin="miter" marker-start="none" marker-mid="none" marker-end="none" stroke-miterlimit="4" stroke-dasharray="none" stroke-dashoffset="0" stroke-opacity="1" visibility="visible" display="inline" overflow="visible"/>
    <path d="M 31.34375,13.65625 C 31.194336,13.684049 31.018058,13.763331 30.875,13.84375 C 30.742383,13.922012 30.613294,14.034057 30.5,14.15625 L 26,19 C 25.838152,19.174561 25.694132,19.392119 25.625,19.59375 C 25.557341,19.805875 25.556503,20.051385 25.59375,20.25 C 25.607853,20.315638 26.508325,21.351794 26.71875,21.375 C 26.891959,21.389562 27.103225,21.375643 27.28125,21.3125 C 27.389732,21.27134 27.523231,21.194002 27.625,21.125 C 27.716691,21.060008 27.825326,20.962281 27.90625,20.875 L 32.40625,16.03125 C 32.535728,15.891601 32.648465,15.721815 32.71875,15.5625 C 32.814412,15.332612 32.842228,15.064688 32.8125,14.84375 C 32.800236,14.767476 32.028689,13.678989 31.791053,13.700444 C 31.761284,13.703848 31.373633,13.65069 31.34375,13.65625 z " style="marker:none" opacity="1" color="#000" fill="#b3b3af" fill-opacity="1" fill-rule="evenodd" stroke="#000" stroke-width="1.22478235" stroke-linecap="butt" stroke-linejoin="miter" marker-start="none" marker-mid="none" marker-end="none" stroke-miterlimit="4" stroke-dasharray="none" stroke-dashoffset="0" stroke-opacity="1" visibility="visible" display="inline" overflow="visible"/>
    <path d="M 42.375,2.3409839 C 43.25,1.4659839 44.75,2.8409839 44,3.9659839 C 44,3.9659839 39.78125,10.528484 35.375,15.590984 C 30.96875,20.653484 26.375,24.122234 26.375,24.122234 C 25.6875,24.715984 23.5625,25.528484 23.5625,25.528484 C 23.5625,25.528484 23.001555,24.892879 23.001555,24.892879 C 23.001555,24.892879 23.90625,22.872234 24.5,22.247234 L 26.5,19.965984 L 42.375,2.3409839 z " style="marker:none" opacity="1" color="#000" fill="url(#r)" fill-opacity="1" fill-rule="evenodd" stroke="#000" stroke-width="1.22478211" stroke-linecap="butt" stroke-linejoin="miter" marker-start="none" marker-mid="none" marker-end="none" stroke-miterlimit="4" stroke-dasharray="none" stroke-dashoffset="0" stroke-opacity="1" visibility="visible" display="inline" overflow="visible"/>
    <rect transform="matrix(0.6799,-0.733305,0.733305,0.6799,0,0)" ry="1.6840767" rx="1.6840758" y="32.411682" x="2.27688" height="2.2500021" width="9.3750086" style="marker:none" opacity="1" color="#000" fill="#b3b3af" fill-opacity="1" fill-rule="evenodd" stroke="none" stroke-width="1.00000024" stroke-linecap="butt" stroke-linejoin="miter" marker-start="none" marker-mid="none" marker-end="none" stroke-miterlimit="4" stroke-dasharray="none" stroke-dashoffset="0" stroke-opacity="1" visibility="visible" display="inline" overflow="visible"/>
    <path style="marker:none" d="M 39.5 27.25 A 8.0625 0.875 0 1 1  23.375,27.25 A 8.0625 0.875 0 1 1  39.5 27.25 z" transform="matrix(1.527132,0,0,6.793466,-13.1967,-158.9682)" opacity=".15909089" color="#000" fill="url(#s)" fill-opacity="1" fill-rule="evenodd" stroke="none" stroke-width=".2" stroke-linecap="butt" stroke-linejoin="miter" marker-start="none" marker-mid="none" marker-end="none" stroke-miterlimit="4" stroke-dasharray="none" stroke-dashoffset="0" stroke-opacity="1" visibility="visible" display="inline" overflow="visible"/>
    <path transform="matrix(1.249626,0,0,1.249626,-6.57043,-4.105591)" d="M 24.792931 15.3847 A 0.77339804 1.6793786 0 1 1  23.246135,15.3847 A 0.77339804 1.6793786 0 1 1  24.792931 15.3847 z" style="marker:none" opacity=".6875" color="#000" fill="url(#t)" fill-opacity="1" fill-rule="evenodd" stroke="none" stroke-width=".2" stroke-linecap="butt" stroke-linejoin="miter" marker-start="none" marker-mid="none" marker-end="none" stroke-miterlimit="4" stroke-dasharray="none" stroke-dashoffset="0" stroke-opacity="1" visibility="visible" display="inline" overflow="visible"/>
    <path style="marker:none" d="M 24.792931 15.3847 A 0.77339804 1.6793786 0 1 1  23.246135,15.3847 A 0.77339804 1.6793786 0 1 1  24.792931 15.3847 z" transform="matrix(0.621055,0,0,0.621055,8.527562,5.564792)" opacity=".6875" color="#000" fill="url(#u)" fill-opacity="1" fill-rule="evenodd" stroke="none" stroke-width=".2" stroke-linecap="butt" stroke-linejoin="miter" marker-start="none" marker-mid="none" marker-end="none" stroke-miterlimit="4" stroke-dasharray="none" stroke-dashoffset="0" stroke-opacity="1" visibility="visible" display="inline" overflow="visible"/>
    <rect style="marker:none" width="9.3750019" height="2.2500005" x="2.3558545" y="31.976822" rx="1.6840748" ry="1.6840756" transform="matrix(0.6799,-0.733305,0.733305,0.6799,0,0)" opacity="1" color="#000" fill="#bfbfbb" fill-opacity="1" fill-rule="evenodd" stroke="none" stroke-width="1.00000024" stroke-linecap="butt" stroke-linejoin="miter" marker-start="none" marker-mid="none" marker-end="none" stroke-miterlimit="4" stroke-dasharray="none" stroke-dashoffset="0" stroke-opacity="1" visibility="visible" display="inline" overflow="visible"/>
  </g>
  <g transform="matrix(0.687178,0,0,0.655352,-20.51906,5.367542)">
    <path style="marker:none" d="M 47.174124 32.342636 A 22.829447 14.142136 0 1 1  1.5152302,32.342636 A 22.829447 14.142136 0 1 1  47.174124 32.342636 z" transform="matrix(0.684189,0,0,1.241071,30.93814,7.934044)" opacity="1" color="#000" fill="url(#v)" fill-opacity="1" fill-rule="evenodd" stroke="none" stroke-width="1" stroke-linecap="butt" stroke-linejoin="miter" marker-start="none" marker-mid="none" marker-end="none" stroke-miterlimit="4" stroke-dasharray="none" stroke-dashoffset="0" stroke-opacity="1" visibility="visible" display="inline" overflow="visible"/>
    <path d="M 46.884523,27.625054 C 48.607899,18.892208 43.633448,19.202513 44.776244,7.4221887 C 45.917323,-4.3404473 32.067542,-6.9212981 32.067542,-6.9212981" fill="none" fill-opacity=".75" fill-rule="evenodd" stroke="url(#w)" stroke-width="1.49014425" stroke-linecap="butt" stroke-linejoin="miter" stroke-miterlimit="4" stroke-dasharray="none" stroke-opacity="1"/>
    <path d="M 31.766099,44.224434 C 29.118571,55.979782 36.832899,64.067494 48.415527,64.067494 C 59.872797,64.067494 65.568983,54.700552 63.209561,44.224434 L 59.448365,30.19702 C 59.00956,28.232158 58.072473,27.603898 57.442396,27.390073 C 51.274099,24.620578 42.584081,24.487095 37.157145,27.390073 C 36.467592,27.764335 35.966099,27.764333 35.464607,29.635632 L 31.766099,44.224434 z " fill="url(#x)" fill-opacity="1" fill-rule="evenodd" stroke="#000" stroke-width="2.98028708" stroke-linecap="butt" stroke-linejoin="miter" stroke-miterlimit="4" stroke-dasharray="none" stroke-opacity="1"/>
    <g transform="matrix(0.840529,0,0,1,27.13209,18.12505)">
      <path d="M 8.5736698,22.948218 C 16.805824,17.644917 29.854661,17.038826 38.524694,22.342126 C 30.832368,18.464709 17.818978,17.99819 8.5736698,22.948218 z " fill="#fff" fill-opacity=".79661016" fill-rule="evenodd" stroke="none" stroke-width="1px" stroke-linecap="butt" stroke-linejoin="miter" stroke-opacity="1"/>
      <path d="M 8.7504465,22.72725 C 17.380348,16.495871 30.031438,16.42011 38.436306,22.25374 C 30.655591,17.580828 17.686395,17.291086 8.7504465,22.72725 z " fill="#000" fill-opacity=".25988704" fill-rule="evenodd" stroke="none" stroke-width="1px" stroke-linecap="butt" stroke-linejoin="miter" stroke-opacity="1"/>
    </g>
    <path style="marker:none" d="M 26.162951 11.331463 A 2.171828 4.7477169 0 1 1  21.819295,11.331463 A 2.171828 4.7477169 0 1 1  26.162951 11.331463 z" transform="matrix(1.666343,0,0,1.417807,7.255149,17.47293)" opacity="1" color="#000" fill="url(#y)" fill-opacity="1" fill-rule="evenodd" stroke="none" stroke-width="1.0000006" stroke-linecap="butt" stroke-linejoin="miter" marker-start="none" marker-mid="none" marker-end="none" stroke-miterlimit="4" stroke-dasharray="none" stroke-dashoffset="0" stroke-opacity="1" visibility="visible" display="inline" overflow="visible" font-family="Bitstream Vera Sans"/>
    <path d="M 33.784469,46.001045 C 32.410179,54.26031 38.311598,61.294799 48.39832,61.294799 C 58.484987,61.294799 62.345289,52.803686 61.198664,46.001045 L 57.562622,32.375032 C 57.260913,30.231332 56.372188,30.024553 55.845852,29.817998 C 50.134283,27.576554 43.474842,27.391639 38.821626,29.817998 C 38.238508,30.122057 37.755498,30.006495 37.401177,31.552994 L 33.784469,46.001045 z " fill="none" fill-opacity="1" fill-rule="evenodd" stroke="url(#z)" stroke-width="1.49014401" stroke-linecap="butt" stroke-linejoin="miter" stroke-miterlimit="4" stroke-dasharray="none" stroke-opacity="1"/>
    <path transform="matrix(0.840529,0,0,1,27.04719,19.86757)" d="M 26.162951 11.331463 A 2.171828 4.7477169 0 1 1  21.819295,11.331463 A 2.171828 4.7477169 0 1 1  26.162951 11.331463 z" style="marker:none" opacity="1" color="#000" fill="url(#A)" fill-opacity="1" fill-rule="evenodd" stroke="#595959" stroke-width=".81268442" stroke-linecap="butt" stroke-linejoin="miter" marker-start="none" marker-mid="none" marker-end="none" stroke-miterlimit="4" stroke-dasharray="none" stroke-dashoffset="0" stroke-opacity="1" visibility="visible" display="inline" overflow="visible" font-family="Bitstream Vera Sans"/>
    <path style="marker:none" d="M 26.162951 11.331463 A 2.171828 4.7477169 0 1 1  21.819295,11.331463 A 2.171828 4.7477169 0 1 1  26.162951 11.331463 z" transform="matrix(0.234565,0,0,0.542553,40.94812,23.48538)" opacity="1" color="#000" fill="#fff" fill-opacity=".33333333" fill-rule="evenodd" stroke="none" stroke-width="1.0000006" stroke-linecap="butt" stroke-linejoin="miter" marker-start="none" marker-mid="none" marker-end="none" stroke-miterlimit="4" stroke-dasharray="none" stroke-dashoffset="0" stroke-opacity="1" visibility="visible" display="inline" overflow="visible" font-family="Bitstream Vera Sans"/>
  </g>
</svg>
