<?xml version="1.0" encoding="UTF-8" standalone="no"?>
<!-- Created with Inkscape (http://www.inkscape.org/) -->

<svg
   height="100%"
   id="svg2"
   version="1.1"
   inkscape:version="1.2.2 (b0a8486541, 2022-12-01)"
   sodipodi:docname="svg.svg"
   viewBox="0 0 477.3718 145"
   width="100%"
   xmlns:inkscape="http://www.inkscape.org/namespaces/inkscape"
   xmlns:sodipodi="http://sodipodi.sourceforge.net/DTD/sodipodi-0.dtd"
   xmlns="http://www.w3.org/2000/svg"
   xmlns:svg="http://www.w3.org/2000/svg"
   xmlns:rdf="http://www.w3.org/1999/02/22-rdf-syntax-ns#"
   xmlns:cc="http://creativecommons.org/ns#"
   xmlns:dc="http://purl.org/dc/elements/1.1/">
  <defs
     id="defs4">
    <inkscape:perspective
       sodipodi:type="inkscape:persp3d"
       inkscape:vp_x="0 : 526.18109 : 1"
       inkscape:vp_y="0 : 1000 : 0"
       inkscape:vp_z="744.09448 : 526.18109 : 1"
       inkscape:persp3d-origin="372.04724 : 350.78739 : 1"
       id="perspective10" />
    <inkscape:perspective
       id="perspective10-7"
       inkscape:persp3d-origin="0.5 : 0.33333333 : 1"
       inkscape:vp_z="1 : 0.5 : 1"
       inkscape:vp_y="0 : 1000 : 0"
       inkscape:vp_x="0 : 0.5 : 1"
       sodipodi:type="inkscape:persp3d" />
    <inkscape:perspective
       id="perspective2832"
       inkscape:persp3d-origin="0.5 : 0.33333333 : 1"
       inkscape:vp_z="1 : 0.5 : 1"
       inkscape:vp_y="0 : 1000 : 0"
       inkscape:vp_x="0 : 0.5 : 1"
       sodipodi:type="inkscape:persp3d" />
    <inkscape:perspective
       id="perspective2845"
       inkscape:persp3d-origin="62.5 : 41.666667 : 1"
       inkscape:vp_z="125 : 62.5 : 1"
       inkscape:vp_y="0 : 1000 : 0"
       inkscape:vp_x="0 : 62.5 : 1"
       sodipodi:type="inkscape:persp3d" />
    <inkscape:perspective
       id="perspective2861"
       inkscape:persp3d-origin="0.5 : 0.33333333 : 1"
       inkscape:vp_z="1 : 0.5 : 1"
       inkscape:vp_y="0 : 1000 : 0"
       inkscape:vp_x="0 : 0.5 : 1"
       sodipodi:type="inkscape:persp3d" />
    <inkscape:perspective
       sodipodi:type="inkscape:persp3d"
       inkscape:vp_x="0 : 526.18109 : 1"
       inkscape:vp_y="0 : 1000 : 0"
       inkscape:vp_z="744.09448 : 526.18109 : 1"
       inkscape:persp3d-origin="372.04724 : 350.78739 : 1"
       id="perspective3077" />
    <inkscape:perspective
       id="perspective10-4"
       inkscape:persp3d-origin="372.04724 : 350.78739 : 1"
       inkscape:vp_z="744.09448 : 526.18109 : 1"
       inkscape:vp_y="0 : 1000 : 0"
       inkscape:vp_x="0 : 526.18109 : 1"
       sodipodi:type="inkscape:persp3d" />
    <inkscape:perspective
       id="perspective2887"
       inkscape:persp3d-origin="0.5 : 0.33333333 : 1"
       inkscape:vp_z="1 : 0.5 : 1"
       inkscape:vp_y="0 : 1000 : 0"
       inkscape:vp_x="0 : 0.5 : 1"
       sodipodi:type="inkscape:persp3d" />
    <inkscape:perspective
       id="perspective2901"
       inkscape:persp3d-origin="0.5 : 0.33333333 : 1"
       inkscape:vp_z="1 : 0.5 : 1"
       inkscape:vp_y="0 : 1000 : 0"
       inkscape:vp_x="0 : 0.5 : 1"
       sodipodi:type="inkscape:persp3d" />
  </defs>
  <sodipodi:namedview
     id="base"
     pagecolor="#ffffff"
     bordercolor="#666666"
     borderopacity="1.0"
     inkscape:pageopacity="0.0"
     inkscape:pageshadow="2"
     inkscape:zoom="1.9052728"
     inkscape:cx="133.57667"
     inkscape:cy="71.380854"
     inkscape:document-units="px"
     inkscape:current-layer="layer1"
     showgrid="false"
     inkscape:window-width="3440"
     inkscape:window-height="1328"
     inkscape:window-x="0"
     inkscape:window-y="34"
     inkscape:window-maximized="1"
     fit-margin-top="0"
     fit-margin-left="0"
     fit-margin-right="0"
     fit-margin-bottom="0"
     inkscape:showpageshadow="0"
     inkscape:pagecheckerboard="1"
     inkscape:deskcolor="#d1d1d1" />
  <metadata
     id="metadata7">
    <rdf:RDF>
      <cc:Work
         rdf:about="">
        <dc:format>image/svg+xml</dc:format>
        <dc:type
           rdf:resource="http://purl.org/dc/dcmitype/StillImage" />
      </cc:Work>
    </rdf:RDF>
  </metadata>
  <g
     inkscape:label="Layer 1"
     inkscape:groupmode="layer"
     id="layer1"
     transform="translate(-253.87776,-386.05717)">
    <path
       id="path3157"
       style="fill:#130900;fill-opacity:1"
       d="M 298.22542 386.05717 L 298.57307 389.4517 C 298.90595 392.70078 298.15564 396.95315 296.90901 398.8892 C 296.43156 399.6307 294.82628 399.03375 288.29573 395.68412 C 283.88158 393.42005 280.12421 391.71503 279.94417 391.89506 C 279.76413 392.0751 280.5954 395.10551 281.79182 398.62944 C 282.98824 402.15336 283.97829 405.37453 283.99299 405.78764 C 284.0077 406.20075 283.0814 406.73652 281.9344 406.97709 C 279.40021 407.50861 270.57455 411.29506 270.55745 411.85795 C 270.55072 412.07983 271.44665 412.63546 272.54963 413.09233 C 275.29004 414.22744 282.09456 419.30092 282.09456 420.20951 C 282.09456 420.98692 277.99877 426.28742 276.33479 427.66264 C 275.79738 428.10679 274.12964 428.81568 272.62971 429.23881 C 271.12979 429.66193 269.90315 430.2032 269.90315 430.44194 C 269.90315 430.96649 275.87956 433.38691 278.56526 433.94975 C 282.95734 434.8702 282.86478 434.77943 282.39924 437.66069 C 282.16205 439.12869 281.41959 441.59441 280.74885 443.1392 C 280.0781 444.68398 279.52815 446.05686 279.52815 446.19194 C 279.52815 446.32704 281.95925 446.31094 284.93049 446.15483 C 290.20037 445.87796 293.22344 444.91675 295.72346 442.72514 C 296.74966 441.82553 296.91889 441.93367 297.8094 444.06498 C 299.09156 447.13361 299.0359 448.10514 297.42268 450.71537 C 296.67658 451.92259 296.21273 453.05816 296.39338 453.23881 C 296.57403 453.41947 297.74573 453.37392 298.9969 453.1392 C 301.72705 452.62702 306.1593 448.6298 307.4676 445.49858 C 307.97156 444.29245 308.62137 443.15802 308.91096 442.97904 C 309.39103 442.68235 319.02581 445.77526 320.54378 446.71342 C 320.95288 446.96626 321.25668 445.03369 321.37385 441.43217 L 321.55745 435.75248 L 326.98323 439.6099 L 332.40901 443.46537 L 329.22932 444.74858 C 318.89622 448.91648 305.86954 457.18712 298.92268 463.99076 L 294.25471 468.56303 L 286.73128 468.56303 C 276.92815 468.56303 275.19029 469.40213 265.83088 478.64701 C 262.00293 482.42813 257.75022 486.03808 256.38167 486.6685 C 255.01312 487.29892 253.88676 488.03075 253.87776 488.29545 C 253.86866 488.56014 255.47864 488.77592 257.45588 488.77592 C 263.62083 488.77592 276.40888 483.83434 285.04963 478.11186 C 286.85078 476.91903 288.4953 475.94194 288.70393 475.94194 C 288.91257 475.94194 288.39466 477.45823 287.55354 479.31108 C 283.81758 487.54075 282.54493 496.81455 284.26448 503.27201 C 287.48162 515.3534 297.08774 525.28793 310.00081 529.88725 C 314.10079 531.34755 321.81202 531.452 326.41487 530.1099 C 334.45483 527.76561 341.8608 521.00985 346.04378 512.2017 C 348.05514 507.96632 348.38096 506.62797 348.44026 502.36967 C 348.49627 498.34631 348.22145 496.85215 346.94026 494.24858 C 344.97073 490.24623 341.30557 486.82461 336.22346 484.24076 C 332.45541 482.32503 331.9935 482.24486 325.86213 482.45756 C 320.54355 482.64207 319.20168 482.89982 318.0262 483.96342 C 317.24609 484.66926 316.05002 485.15436 315.36799 485.04154 C 314.68597 484.92872 312.91229 485.39942 311.42659 486.08647 C 305.61401 488.77444 302.73917 489.56889 297.37971 489.96733 L 291.81135 490.38139 L 294.01448 492.77983 C 297.67716 496.76843 304.57913 500.3267 308.6551 500.3267 C 309.96693 500.3267 310.36841 500.58073 310.11213 501.24858 C 308.82463 504.60375 308.3175 508.13392 308.67854 511.21147 C 309.18034 515.4889 310.874 521.50248 311.57698 521.50248 C 312.53587 521.50248 321.27753 511.83986 322.34651 509.59819 L 323.40706 507.36967 L 325.36995 509.20365 C 326.44967 510.21216 328.41758 511.83847 329.74104 512.81694 C 332.01468 514.4979 332.14729 514.79055 332.14729 518.12748 C 332.14729 522.38707 332.92096 522.07712 335.6219 516.73881 C 339.00177 510.05862 337.56641 500.27555 332.5926 496.09037 C 330.88311 494.65193 330.6368 494.02362 330.5926 490.99858 C 330.5435 487.63396 330.58286 487.55878 332.14729 487.93608 C 336.92549 489.08846 340.45378 491.97781 342.8426 496.69194 C 345.09202 501.13095 344.78107 506.18372 341.89534 512.04545 C 338.84305 518.24553 334.87899 522.31633 329.12776 525.15873 C 324.64742 527.373 323.87025 527.55083 318.75081 527.52983 C 312.35035 527.50303 308.72754 526.21754 302.1844 521.65678 C 293.20407 515.3972 289.87581 507.878 290.67659 495.65873 C 291.59217 481.68773 297.6406 470.73808 310.14534 460.4185 C 318.05542 453.89067 325.10479 449.79199 333.10628 447.06694 L 336.31135 445.97514 L 341.91682 448.92826 C 344.99938 450.55197 347.52701 452.06121 347.53401 452.28178 C 347.54117 452.50236 346.67987 452.85495 345.61995 453.06694 C 342.75261 453.6404 333.94654 458.19586 329.84065 461.22904 C 324.18853 465.40452 317.82214 472.52462 321.00276 471.11381 C 321.66143 470.82164 327.68785 470.48388 334.39338 470.36186 C 348.13575 470.1118 351.26007 469.45441 354.45393 466.14311 C 356.95554 463.5495 358.00999 460.82349 357.52034 458.21342 L 357.14143 456.19194 L 362.45003 458.00834 C 365.3703 459.00679 371.4654 460.62783 375.99495 461.6099 L 384.23128 463.39506 L 382.73323 464.59623 C 374.23961 471.4039 370.00471 479.32439 370.00471 488.40873 C 370.00471 491.93829 368.51352 495.58062 365.98128 498.231 C 364.89045 499.37271 364.18803 500.49831 364.42073 500.731 C 365.13463 501.4449 370.78668 498.96252 374.24885 496.41459 C 378.76536 493.09077 381.90371 489.26217 384.45588 483.96342 C 387.58871 477.45914 388.50442 470.2615 386.89924 464.78178 C 386.5727 463.66706 386.80852 463.6015 389.74299 463.99076 C 393.07876 464.43323 421.10863 464.50994 425.41878 464.08842 C 427.5693 463.87811 428.3529 464.22064 431.41096 466.71147 C 433.346 468.28758 436.78106 470.74728 439.04378 472.17631 C 441.30649 473.60535 443.15706 474.86585 443.15706 474.97709 C 443.15706 475.08833 441.99936 475.02425 440.58479 474.83451 C 436.74094 474.31894 432.76377 476.10336 425.61799 481.54936 C 422.14805 484.19391 417.59516 487.24165 415.49885 488.32279 C 412.96805 489.62803 411.90065 490.50388 412.32503 490.92826 C 413.35127 491.95451 426.67429 492.22743 433.10042 491.35404 C 440.46963 490.3525 445.44043 488.53132 448.12971 485.85014 C 450.28238 483.70396 450.70296 481.90189 449.55159 479.75053 C 449.18625 479.06789 449.01336 478.51029 449.16682 478.51029 C 449.32028 478.51029 452.00036 479.49482 455.12385 480.69975 C 460.99741 482.96556 466.25132 484.14218 471.59456 484.38725 C 474.31687 484.51211 474.64593 484.67804 474.35628 485.78569 C 474.1754 486.47734 474.30386 488.49979 474.64143 490.27983 C 475.31665 493.84022 478.95963 502.25248 479.82698 502.25248 C 480.12765 502.25248 480.37385 500.79796 480.37385 499.02201 C 480.37385 496.00251 482.1685 490.24913 482.66878 491.66459 C 482.79351 492.01751 483.35108 495.18952 483.90706 498.71537 C 484.46304 502.24122 485.12382 505.33252 485.37581 505.58451 C 485.98942 506.19811 495.32639 500.20035 496.80159 498.24467 L 497.96956 496.69584 L 501.0926 498.6392 C 502.8105 499.70712 504.92623 501.42614 505.79573 502.45951 C 506.66523 503.49287 507.55394 504.16035 507.77034 503.94389 C 508.41044 503.30383 509.86175 494.96274 509.52815 493.84037 C 509.28445 493.02041 509.91593 492.71282 512.60432 492.34037 C 514.46512 492.08258 516.7103 491.89135 517.5926 491.91654 C 520.3745 491.99589 521.06602 491.15665 519.97932 489.02201 C 517.73782 484.61942 517.79257 484.49269 522.28987 483.70951 C 526.31607 483.00838 531.01971 481.5463 535.6551 479.55326 L 537.99885 478.54545 L 537.65315 481.11967 C 537.23665 484.22478 538.72093 486.13863 543.38753 488.5142 C 549.16622 491.45582 568.09852 493.03164 574.37971 491.09428 L 576.94612 490.30326 L 574.47932 489.46928 C 571.75153 488.54821 564.75231 483.96845 561.15901 480.75248 C 559.88711 479.61412 556.9321 477.74016 554.5926 476.58842 C 551.03641 474.83775 549.82063 474.54314 547.17463 474.7974 L 544.00862 475.10209 L 547.96565 472.54545 C 550.14155 471.13967 553.47476 468.66329 555.37385 467.04154 L 558.82698 464.09233 L 579.80549 464.08256 L 600.78206 464.07084 L 600.23713 466.95951 C 599.59234 470.37037 600.50146 477.17401 602.19026 481.57084 C 603.64936 485.3696 607.35883 491.13523 609.76643 493.34623 C 614.19743 497.41543 622.214 501.79516 623.2801 500.72904 C 623.4824 500.52674 622.61431 499.216 621.35042 497.81694 C 618.77602 494.96738 618.05527 492.76903 617.16878 485.05717 C 616.32528 477.71933 613.88464 472.94013 608.15315 467.40678 C 605.70485 465.04312 603.74564 463.10704 603.79963 463.10404 C 603.85353 463.10125 607.24003 462.40328 611.32503 461.55326 C 617.63012 460.24129 624.57727 458.24036 629.47737 456.32475 C 630.49207 455.92807 630.60596 456.07601 630.21956 457.2935 C 629.01966 461.07402 631.75268 465.88023 636.54378 468.41654 C 638.93987 469.68496 640.25179 469.82948 650.41878 469.94389 C 656.59497 470.01338 662.93989 470.36525 664.51838 470.72514 C 666.09698 471.08518 667.52396 471.24297 667.69026 471.0767 C 667.85656 470.91043 666.13253 468.89031 663.85823 466.58842 C 658.81613 461.48498 651.42952 456.63752 644.60823 453.95561 L 639.50667 451.94975 L 643.51838 449.95951 C 645.72518 448.864 648.31414 447.45039 649.27034 446.81889 C 650.97604 445.69238 651.10934 445.70815 656.32893 447.71342 C 661.17993 449.57707 667.59207 452.65883 668.38557 453.50639 C 668.56207 453.69487 670.65356 455.22334 673.03206 456.90287 C 681.49885 462.88159 689.05393 471.10717 692.67073 478.28373 C 694.69203 482.29433 696.61998 489.78767 697.04768 495.29545 C 697.95468 506.97697 693.80435 516.03453 684.78206 522.06498 C 671.04517 531.24657 656.33156 528.62145 647.57307 515.42631 C 642.76138 508.1771 641.89175 501.5926 644.99495 495.89115 C 647.08445 492.05194 651.50904 488.51634 655.01643 487.88139 L 657.36995 487.45561 L 656.70003 489.63334 C 656.25293 491.08951 656.24508 492.18758 656.67268 492.9517 C 657.18698 493.8708 656.88048 494.47358 655.11018 496.02787 C 651.55549 499.14892 650.17957 502.46688 650.13557 508.02592 C 650.10157 512.34489 650.32906 513.26538 652.34456 516.99272 L 654.59065 521.14506 L 654.92854 517.79545 C 655.19304 515.17803 655.61542 514.20131 656.85432 513.33842 C 657.72692 512.73076 659.6733 511.10031 661.18049 509.71537 C 662.68759 508.33042 664.00814 507.31187 664.11604 507.4517 C 664.22404 507.59153 664.99739 508.86033 665.83479 510.27201 C 667.41249 512.93167 675.28114 521.50248 676.14534 521.50248 C 676.41534 521.50248 677.13479 519.84233 677.74299 517.81303 C 678.97789 513.69284 679.19496 504.85951 678.12776 502.16654 C 677.48236 500.53769 677.55246 500.46093 680.06526 500.05912 C 683.95516 499.4371 689.08243 496.78296 692.73323 493.50053 C 694.51823 491.89566 695.97737 490.35298 695.97737 490.07279 C 695.97737 489.79261 693.01869 489.44547 689.4012 489.30131 C 685.7837 489.15714 682.24577 488.74107 681.53987 488.37553 C 677.07407 486.06281 675.69739 485.52068 673.30549 485.14115 C 671.8351 484.90785 669.8811 484.1644 668.9637 483.48881 C 667.6324 482.50855 666.07827 482.23757 661.26448 482.14897 C 655.77298 482.04784 654.88676 482.20775 651.38167 483.9224 C 646.40507 486.35688 641.27511 491.56748 639.90901 495.5767 C 638.61411 499.37573 638.59675 502.22042 639.83674 506.981 C 642.33464 516.57119 647.78195 523.43753 656.39924 527.86186 C 661.24964 530.35216 662.54028 530.73037 667.10628 530.99467 C 671.55117 531.25197 673.08409 531.03995 677.76838 529.51615 C 692.88277 524.59947 704.31917 510.18758 704.31917 496.06303 C 704.31857 492.14156 701.50153 481.65327 699.45393 477.94779 C 698.60053 476.40342 697.90315 475.03421 697.90315 474.90678 C 697.90315 474.77934 700.13178 476.1742 702.85628 478.00444 C 716.07516 486.88469 738.89257 492.99629 728.70588 484.92826 C 727.29529 483.81105 723.80362 480.49595 720.94612 477.56303 C 718.08872 474.63011 714.40592 471.50647 712.76253 470.62162 C 707.66503 467.87701 701.37955 467.11556 695.81526 468.56498 C 694.25026 468.97262 693.59532 468.56732 690.04182 465.0142 C 687.83662 462.8093 684.46795 459.84671 682.55745 458.43022 C 675.90255 453.49622 661.94524 445.735 656.99495 444.21537 C 655.40395 443.72696 655.11022 442.88857 656.35432 442.39115 C 656.79552 442.21476 659.07207 440.63058 661.41487 438.86967 L 665.67463 435.6685 L 666.06135 437.99858 C 666.27335 439.28049 666.45393 441.70109 666.45393 443.37748 C 666.45783 445.05386 666.55076 446.42631 666.66096 446.42631 C 666.77126 446.42631 669.4233 445.5593 672.55549 444.50053 C 675.68779 443.44176 678.43175 442.57475 678.65315 442.57475 C 678.87455 442.57475 679.55537 443.62088 680.16487 444.89897 C 682.19407 449.15428 684.3781 451.42181 687.4637 452.47319 C 689.0893 453.02708 690.55285 453.34694 690.71565 453.18412 C 690.87855 453.02131 690.54125 451.89513 689.96565 450.68217 C 689.39015 449.46921 688.91878 447.88481 688.91878 447.16069 C 688.91878 446.07099 689.94753 442.9884 690.64143 441.99858 C 690.74003 441.85791 692.01201 442.56795 693.4676 443.5767 C 695.7481 445.15705 696.92568 445.46569 701.98128 445.79936 C 705.20827 446.0123 707.91299 446.15125 707.99299 446.10795 C 708.07289 446.0646 707.60087 444.60153 706.94417 442.85795 C 706.28737 441.11437 705.55486 438.50214 705.31526 437.05326 L 704.87971 434.4185 L 707.66878 434.03764 C 710.85027 433.60156 717.79573 431.08749 717.79573 430.37162 C 717.79573 430.10957 716.48406 429.56417 714.88167 429.16069 C 712.79207 428.63452 711.16114 427.58613 709.11604 425.4517 C 704.89965 421.05124 704.85376 420.35327 708.56526 417.12553 C 710.28866 415.6268 712.78082 413.91039 714.10432 413.31108 C 715.42782 412.71177 716.51057 412.01909 716.51057 411.77201 C 716.51057 411.08077 707.8718 407.25824 705.4051 406.85795 L 703.21565 406.50248 L 704.67268 401.91654 C 705.47368 399.39408 706.62402 396.09327 707.22932 394.58061 C 707.83452 393.06795 708.20118 391.70086 708.04378 391.5435 C 707.88648 391.38615 704.04296 393.13341 699.50276 395.42631 C 690.36087 400.04321 690.81512 400.07816 689.19612 394.63725 C 688.45422 392.14396 688.36259 390.71793 688.83088 389.02201 C 689.61808 386.17093 688.92471 386.08848 685.03401 388.56694 C 681.24751 390.97896 677.60845 395.10709 677.05745 397.61576 C 676.62545 399.5827 676.53151 399.63202 673.94221 399.24858 C 670.64742 398.76066 666.33452 399.69274 661.67073 401.90092 C 657.83353 403.71777 657.15482 404.71733 659.75862 404.71733 C 662.34452 404.71733 666.99104 406.05475 667.80354 407.03373 C 668.41964 407.7761 667.91304 407.93536 664.77424 407.98686 C 660.91525 408.05022 653.86898 409.27428 654.04768 409.85014 C 654.91248 412.63685 659.35779 420.44863 660.67659 421.49858 L 662.42463 422.8892 L 659.60432 426.9224 C 658.05382 429.14046 656.2184 431.13437 655.5262 431.35404 C 653.4399 432.01622 654.09301 432.78697 657.47151 433.65287 L 660.67268 434.47319 L 658.91487 435.66264 C 657.94787 436.31668 655.40176 437.8473 653.25667 439.06498 L 649.35628 441.27983 L 645.87581 440.38139 C 633.17072 437.10267 612.69198 435.44204 602.61409 436.87358 C 587.3321 439.04432 572.81439 446.08653 558.12581 458.45561 C 557.18331 459.24925 555.68975 459.91528 554.80745 459.93608 C 553.15695 459.97493 550.3149 460.24748 545.6219 460.81303 C 540.48081 461.43258 529.42518 464.48509 524.14338 466.74467 C 519.45969 468.74844 518.6078 468.92951 516.9969 468.26225 L 515.16878 467.50444 L 516.7137 464.73881 C 517.9861 462.4623 518.28666 460.93624 518.40706 456.12358 C 518.54876 450.46436 518.15551 449.32634 516.59651 450.88529 C 516.03631 451.44548 507.80435 454.24686 507.61995 453.93998 C 507.57555 453.86601 506.58678 450.77262 505.42268 447.06694 C 503.25178 440.15644 502.91954 439.93108 501.89924 444.67631 C 501.47874 446.63205 497.95583 450.83044 494.92463 452.98881 L 492.99104 454.36772 L 490.46174 451.52006 C 489.07127 449.95364 487.19995 447.22804 486.30354 445.46342 L 484.67463 442.25444 L 483.50862 444.99272 C 481.58219 449.51599 480.37385 453.43334 480.37385 455.15483 C 480.37385 456.40612 480.11549 456.69979 479.25081 456.43412 C 478.6332 456.24436 476.39569 455.68479 474.27815 455.19194 C 472.16062 454.69909 469.30033 453.8218 467.92268 453.24076 C 466.54502 452.65972 465.30522 452.29769 465.16682 452.43608 C 465.02842 452.57449 466.81976 456.33568 469.14729 460.79545 C 474.37155 470.80565 474.11666 471.89673 467.35823 468.47123 C 460.01445 464.74906 448.50209 461.64897 438.03401 460.57475 L 431.45198 459.89897 L 426.64924 456.20951 C 410.3723 443.70786 399.26794 438.80617 382.58284 436.75639 C 372.66931 435.5385 356.52733 436.99301 342.31135 440.38334 C 337.52809 441.52409 337.86419 441.616 330.99495 437.21733 L 326.95588 434.63139 L 330.33284 433.61381 L 333.70979 432.59623 L 331.66878 431.14115 C 330.54572 430.34148 328.64826 428.22676 327.45198 426.44194 L 325.2762 423.19779 L 327.15706 421.17631 C 329.72149 418.41901 333.69903 410.50539 332.91487 409.72123 C 332.57885 409.38521 329.17137 408.76273 325.3426 408.33842 L 318.38167 407.56694 L 320.61213 406.52787 C 321.83872 405.9567 324.35694 405.28927 326.20979 405.0435 C 328.06264 404.79772 329.57893 404.36162 329.57893 404.07475 C 329.57893 403.78787 327.34143 402.61217 324.60628 401.46147 C 320.57131 399.76394 318.81591 399.37755 315.30159 399.41654 C 311.88678 399.45445 310.97151 399.26367 310.97151 398.51615 C 310.97151 397.06221 307.33436 392.10447 305.01838 390.40092 C 303.88106 389.56434 301.88614 388.24341 300.58674 387.46733 L 298.22542 386.05717 z M 622.11018 440.7349 C 626.54844 440.69347 629.54472 440.9983 634.86799 441.85209 C 639.54919 442.60291 643.51886 443.21733 643.69026 443.21733 C 643.86176 443.21733 644.00081 443.47509 644.00081 443.78959 C 644.00081 444.57473 633.62681 449.05635 624.72542 452.11772 C 615.51413 455.28565 607.97609 457.02163 598.1219 458.24076 C 587.48811 459.55632 585.95377 459.623 575.08088 459.25834 C 567.99589 459.02072 565.74762 458.75746 566.41682 458.23881 C 566.91382 457.85364 569.7764 456.08252 572.7762 454.30326 C 588.05058 445.24375 600.02991 441.61322 617.05159 440.88529 C 618.99131 440.80235 620.63076 440.74871 622.11018 440.7349 z M 366.78596 440.98686 C 372.99749 440.99924 379.37288 441.41209 383.80159 442.22123 C 389.49901 443.26218 401.98008 447.10425 403.69221 448.34428 C 404.04514 448.5999 406.50037 449.91857 409.14729 451.27397 C 414.71467 454.12484 421.3387 458.42576 421.3387 459.18998 C 421.3387 459.66565 408.45758 459.81051 400.48518 459.42436 C 382.78983 458.56727 360.57905 452.97963 346.29182 445.78959 C 342.33441 443.79802 342.12486 443.96885 350.75471 442.15483 C 354.52629 441.36204 360.57443 440.97447 366.78596 440.98686 z M 549.53206 464.56108 C 549.86952 464.559 550.086 464.58963 550.15315 464.65678 C 550.48595 464.98962 543.83834 469.73753 539.08674 472.56108 C 534.37315 475.36205 530.61157 477.09838 525.48128 478.84233 C 521.30678 480.26136 516.99349 481.02463 516.61409 480.41069 C 516.44269 480.13332 517.76314 479.00602 519.54963 477.90678 C 521.59363 476.64908 523.51894 474.75173 524.74104 472.78569 C 526.67404 469.67622 526.7145 469.65203 533.5262 467.69389 C 538.82922 466.16943 547.1698 464.57559 549.53206 464.56108 z M 437.95198 464.74076 C 438.60415 464.7051 440.56481 465.00705 445.40315 465.71147 C 450.23172 466.41447 462.78786 470.15049 464.95198 471.52787 C 465.66829 471.98381 465.28048 472.09402 463.5301 471.93217 C 462.20665 471.80978 461.12385 471.9502 461.12385 472.24467 C 461.12385 473.1094 463.12965 476.1004 465.21565 478.34819 C 466.2801 479.49518 467.02155 480.41992 466.86409 480.40092 C 465.65187 480.25481 458.65171 477.70112 454.70588 475.96537 C 450.19218 473.97984 439.60515 467.26027 438.06526 465.40483 C 437.72911 464.99978 437.44473 464.7685 437.95198 464.74076 z " />
    <path
       style="fill:#ef286f;fill-opacity:1"
       d="m 675.25902,508.59849 c -0.1694,-6.18689 -1.4267,-9.05908 -4.8379,-11.0513 -2.0396,-1.1912 -2.1216,-1.19179 -3.4115,-0.0244 -2.5767,2.33187 -0.3692,9.04003 5.0197,15.25396 3.0326,3.49693 3.4259,2.98817 3.2297,-4.17824 z"
       id="path3155" />
    <path
       style="fill:#c1a72c;fill-opacity:1"
       d="m 320.03193,506.20885 c 0.66306,-1.52918 1.20556,-4.05029 1.20556,-5.60245 0,-2.47731 -0.19658,-2.87148 -1.60887,-3.22593 -2.05479,-0.51573 -4.43761,1.01034 -5.85387,3.74908 -1.1994,2.31938 -1.92809,9.67858 -1.2327,12.44925 l 0.45312,1.80536 2.91561,-3.19749 c 1.60358,-1.75862 3.4581,-4.44863 4.12115,-5.97782 z"
       id="path3153" />
    <path
       style="fill:#c1a72c;fill-opacity:1"
       d="m 334.31539,507.44547 c -0.15168,-1.2685 -0.99953,-3.79719 -1.88413,-5.61932 -1.66542,-3.43056 -3.994,-4.96043 -6.53767,-4.29524 -1.0486,0.27421 -1.15344,0.72926 -0.80098,3.47667 0.43836,3.41698 1.76251,5.25758 6.0449,8.40256 2.88257,2.11696 3.61202,1.66598 3.17788,-1.96467 z"
       id="path3151" />
    <path
       style="fill:#ef286f;fill-opacity:1"
       d="m 657.24892,508.65465 c 1.8797,-1.41922 3.855,-3.42617 4.3896,-4.45988 1.3302,-2.57232 1.2774,-6.35799 -0.096,-6.885 -1.6865,-0.64716 -5.4514,1.82171 -6.8082,4.4646 -1.1822,2.30265 -2.1773,9.46069 -1.3152,9.46069 0.2265,0 1.9499,-1.16118 3.8297,-2.58041 z"
       id="path3149" />
    <path
       style="fill:#e14da7;fill-opacity:1"
       d="m 493.27342,496.8359 c 1.0224,-1.03754 1.8587,-2.33694 1.8584,-2.88755 -6e-4,-1.09109 -2.0592,-6.80399 -2.673,-7.41777 -0.2088,-0.20883 -1.714,0.26857 -3.34482,1.06089 -2.71749,1.32025 -2.96514,1.63534 -2.96514,3.7724 0,1.28251 0.32732,3.96169 0.72738,5.95374 l 0.72738,3.6219 1.9055,-1.10859 c 1.048,-0.60972 2.7419,-1.95748 3.7643,-2.99502 z"
       id="path3147" />
    <path
       style="fill:#e14da7;fill-opacity:1"
       d="m 505.90262,490.72045 c -0.2813,-4.73968 -1.3528,-7.83531 -3.4319,-9.91435 -0.95,-0.95001 -1.188,-0.90316 -2.9517,0.58088 -1.0551,0.88782 -2.3294,1.61423 -2.8317,1.61423 -1.1798,0 -1.1579,1.71204 0.066,5.18132 1.155,3.27368 2.1966,4.54029 6.079,7.39198 3.415,2.50832 3.4992,2.37507 3.0702,-4.85406 z"
       id="path3145" />
    <path
       style="fill:#c1a72c;fill-opacity:1"
       d="m 314.42466,494.98987 c 1.76778,-1.41457 1.81343,-1.58087 1.0292,-3.74962 l -0.82062,-2.2694 -3.27508,1.27183 c -1.80129,0.69951 -5.15199,1.76019 -7.44599,2.35708 l -4.17091,1.08525 3.52923,1.36229 c 4.81618,1.85905 8.78467,1.83861 11.15417,-0.0574 z"
       id="path3143" />
    <path
       style="fill:#ef286f;fill-opacity:1"
       d="m 681.92542,495.78188 c 3.8358,-1.22144 5.1823,-2.0456 4.2789,-2.61897 -0.4479,-0.28428 -1.3437,-0.5213 -1.9908,-0.5267 -0.647,-0.005 -3.3586,-0.88361 -6.0257,-1.95158 -2.6671,-1.06796 -4.8809,-1.86204 -4.9195,-1.76461 -0.039,0.0974 -0.5616,1.11467 -1.1621,2.26054 l -1.0919,2.0834 2.3638,1.60625 c 2.5529,1.73476 5.107,2.00719 8.5473,0.91167 z"
       id="path3141" />
    <path
       style="fill:#e14da7;fill-opacity:1"
       d="m 486.79053,484.75251 c 3.57549,-1.64381 3.97739,-1.9897 2.81539,-2.4228 -0.74556,-0.27787 -2.04496,-1.37447 -2.88757,-2.43687 l -1.53201,-1.93165 -2.88496,1.39708 c -3.52843,1.70868 -4.47262,3.47753 -4.48489,8.40206 l -0.009,3.79659 2.4063,-2.44342 c 1.32346,-1.34388 4.2832,-3.30633 6.5772,-4.36099 z"
       id="path3139" />
    <path
       style="fill:#e14da7;fill-opacity:1"
       d="m 515.39082,487.92637 c 0.1794,-0.46747 -0.2588,-2.21445 -0.9736,-3.8822 l -1.2998,-3.03226 -3.2174,0.1468 c -3.0135,0.13751 -3.963,0.66431 -2.6547,1.47288 0.3095,0.1913 0.8912,1.65211 1.2926,3.24626 l 0.7298,2.89847 2.8985,0 c 1.8138,0 3.0205,-0.31806 3.2246,-0.84995 z"
       id="path3137" />
    <path
       style="fill:#e14da7;fill-opacity:1"
       d="m 479.55199,475.21304 c -0.49387,-0.27638 -1.58329,-1.05747 -2.42093,-1.73575 -1.34393,-1.08825 -1.75205,-1.13522 -3.47147,-0.39955 -1.07168,0.45853 -2.88695,1.18138 -4.03395,1.60635 -1.147,0.42497 -2.08546,1.01171 -2.08546,1.30385 0,0.7997 3.92055,3.56109 5.99922,4.22548 1.63072,0.52122 2.10295,0.30974 4.36943,-1.95674 1.95654,-1.95653 2.33454,-2.65672 1.64316,-3.04364 z"
       id="path3135" />
    <path
       style="fill:#e14da7;fill-opacity:1"
       d="m 514.22292,476.58203 c 2.012,-0.70716 4.2043,-1.83186 4.8717,-2.49932 1.1903,-1.1903 1.1414,-1.23521 -2.5513,-2.34256 -4.7956,-1.43812 -10.3216,-1.87828 -12.5879,-1.00269 -1.5112,0.58388 -1.7646,1.04492 -1.7646,3.2109 0,2.17501 0.2471,2.61936 1.7646,3.17361 2.8164,1.02863 6.3304,0.84383 10.2675,-0.53994 z"
       id="path3129" />
    <path
       style="fill:#e14da7;fill-opacity:1"
       d="m 485.50718,472.56247 c 0,-0.44746 0.71207,-1.86147 1.58238,-3.14224 l 1.58237,-2.32867 -1.88434,-2.60126 c -1.55555,-2.14736 -2.60361,-2.82342 -6.00651,-3.87446 -4.98961,-1.54113 -8.74915,-2.28635 -8.74915,-1.73425 0,0.22385 1.36488,2.75603 3.03307,5.62707 1.89681,3.26452 3.97617,5.90325 5.55054,7.04372 2.64805,1.91824 4.89164,2.38153 4.89164,1.01009 z"
       id="path3127" />
    <path
       style="fill:#e14da7;fill-opacity:1"
       d="m 501.87962,466.18784 c 1.9287,-2.91448 2.8196,-9.07219 1.9687,-13.6078 l -0.4318,-2.30159 -4.6979,4.00907 c -4.9534,4.2271 -7.4363,7.64505 -7.4363,10.23675 0,1.39534 0.2718,1.55961 2.559,1.54625 1.6582,-0.01 3.183,0.47041 4.3314,1.36376 0.9747,0.75829 1.806,1.39475 1.8474,1.41435 0.041,0.0196 0.8781,-1.17775 1.8595,-2.66079 z"
       id="path3125" />
    <path
       style="fill:#e14da7;fill-opacity:1"
       d="m 512.72162,464.34308 c 1.9025,-2.26093 2.4856,-4.08333 2.1896,-6.84337 l -0.2077,-1.93697 -3.5292,1.06839 -3.5292,1.0684 -0.4143,3.18608 c -0.2278,1.75235 -0.6197,3.69141 -0.8708,4.30902 -0.3898,0.95889 -0.08,1.12294 2.1219,1.12294 2.0914,0 2.8921,-0.37288 4.2397,-1.97449 z"
       id="path3123" />
    <path
       style="fill:#e14da7;fill-opacity:1"
       d="m 489.70352,458.56832 c 1.0203,-1.97312 1.0193,-1.97579 -1.92732,-5.12595 l -2.94815,-3.15182 -0.62295,1.6385 c -0.89531,2.35484 -0.78628,6.04379 0.17914,6.06097 0.44115,0.008 1.52399,0.57894 2.40629,1.26909 0.88231,0.69015 1.66897,1.26123 1.74814,1.26908 0.0792,0.008 0.60333,-0.87409 1.16485,-1.95987 z"
       id="path3121" />
    <path
       style="fill:#9fa117;fill-opacity:1"
       d="m 686.83962,442.41505 c 1.3857,-3.86411 1.887,-9.9738 1.0684,-13.0209 -0.2909,-1.08278 -0.7628,-1.26686 -2.7184,-1.06029 -3.2868,0.34722 -3.9705,1.52827 -3.9705,6.85896 0,3.62402 0.3422,5.25066 1.6616,7.89834 0.9138,1.83391 1.8549,3.33438 2.0912,3.33438 0.2362,0 1.0767,-1.80472 1.8677,-4.01049 z"
       id="path3113" />
    <path
       style="fill:#9fa117;fill-opacity:1"
       d="m 702.15302,438.57823 -0.7452,-3.35555 -3.8502,-1.00672 c -2.1176,-0.55369 -4.1755,-1.20775 -4.573,-1.45345 -0.478,-0.29542 -0.8061,0.42559 -0.9684,2.12845 -0.2099,2.20017 0.037,2.84231 1.6975,4.4094 2.3515,2.21963 3.1043,2.51755 6.5263,2.58277 l 2.6581,0.0507 -0.7451,-3.35555 z"
       id="path3109" />
    <path
       style="fill:#9fa117;fill-opacity:1"
       d="m 673.94002,440.16917 3.4197,-1.12293 0,-2.9372 0,-2.93719 -3.8119,0.93125 c -2.0966,0.51219 -3.9299,1.25641 -4.0741,1.65383 -0.3432,0.94584 0.2221,5.53518 0.6818,5.53518 0.1955,0 1.8944,-0.50532 3.7752,-1.12294 z"
       id="path3105" />
    <path
       style="fill:#9fa117;fill-opacity:1"
       d="m 674.77882,429.9734 c 1.2223,-0.50717 2.7141,-1.36709 3.315,-1.91094 1.024,-0.92672 0.9953,-1.1323 -0.4577,-3.27347 -0.8528,-1.25655 -1.5504,-2.5331 -1.5504,-2.83678 0,-0.98071 -3.4505,-0.55959 -6.4168,0.78315 -3.2771,1.48341 -6.1104,3.95485 -7.4304,6.48146 -0.8404,1.60851 -0.8053,1.73913 0.5385,2.00176 2.4362,0.47613 9.6595,-0.27328 12.0018,-1.24518 z"
       id="path3101" />
    <path
       style="fill:#9fa117;fill-opacity:1"
       d="m 706.35682,430.62122 2.3581,-0.38992 -3.584,-4.25519 c -5.867,-6.96581 -7.6538,-8.4261 -10.3099,-8.4261 -0.9603,0 -1.318,0.57388 -1.5813,2.53666 -0.1871,1.39517 -0.9479,3.39006 -1.6906,4.43309 l -1.3504,1.89642 1.9764,1.66305 c 1.0871,0.91467 2.7483,1.83259 3.6916,2.03982 0.9434,0.20723 2.0039,0.47311 2.3569,0.59084 1.104,0.36829 5.6706,0.31851 8.1332,-0.0887 z"
       id="path3097" />
    <path
       style="fill:#9fa117;fill-opacity:1"
       d="m 670.69992,418.54857 2.6353,-0.69162 -1.3055,-3.43571 -1.3055,-3.43571 -5.8215,0.45298 c -3.2018,0.24914 -5.9378,0.56707 -6.0799,0.70651 -0.1421,0.13944 0.5901,1.62574 1.627,3.3029 2.0716,3.35083 4.3534,4.87037 6.3315,4.21649 0.7059,-0.23332 2.4692,-0.73545 3.9186,-1.11584 z"
       id="path3093" />
    <path
       style="fill:#9fa117;fill-opacity:1"
       d="m 705.47642,415.14371 c 1.6743,-1.32346 3.1818,-2.66928 3.3499,-2.99072 0.3081,-0.5888 -3.3211,-2.16364 -5.1949,-2.25431 -0.5549,-0.0268 -1.7821,1.13211 -2.7271,2.57547 l -1.7182,2.62429 1.4438,1.20443 c 0.794,0.66244 1.5244,1.21405 1.623,1.22579 0.099,0.0117 1.5492,-1.06148 3.2235,-2.38495 z"
       id="path3089" />
    <path
       style="fill:#9fa117;fill-opacity:1"
       d="m 681.30692,409.53802 c -0.7128,-4.28378 -4.1505,-6.74662 -9.4173,-6.74662 l -3.6772,0 1.712,1.34666 c 1.7769,1.39765 4.1436,5.58859 5.4694,9.68488 l 0.7667,2.36888 2.6807,-2.68073 c 1.747,-1.74702 2.6058,-3.13085 2.4657,-3.97307 z"
       id="path3085" />
    <path
       style="fill:#9fa117;fill-opacity:1"
       d="m 698.01352,410.61754 c 0.6709,-1.05969 1.7679,-3.90377 2.4378,-6.3202 0.6698,-2.41642 1.4274,-4.93923 1.6836,-5.60624 0.3634,-0.94607 -0.7915,-0.53639 -5.252,1.863 -6.6918,3.59969 -8.2923,4.91243 -9.9642,8.17283 -1.2212,2.38133 -1.2209,2.40629 0.022,2.40629 0.6908,0 2.0653,0.82115 3.0545,1.82478 l 1.7984,1.82477 2.4999,-1.11926 c 1.375,-0.6156 3.0489,-1.98628 3.7199,-3.04597 z"
       id="path3083" />
    <g
       id="g3159"
       style="fill:#ff9300;fill-opacity:1">
      <path
         id="path3115"
         d="m 305.3201,441.67119 c 1.2208,-2.94785 1.51482,-10.06506 0.49453,-11.97148 -0.48443,-0.90517 -1.34967,-1.24117 -3.19616,-1.24117 -2.21698,0 -2.59212,0.21949 -3.01587,1.76462 -0.84592,3.08445 -0.38896,8.17052 1.02032,11.35643 0.75032,1.69623 1.37936,3.69704 1.39787,4.44626 0.0327,1.32049 0.067,1.31487 1.12294,-0.18375 0.5991,-0.85028 1.57847,-2.72719 2.17637,-4.17091 z"
         style="fill:#ff9300;fill-opacity:1" />
      <path
         id="path3111"
         d="m 292.62878,440.18984 c 2.36407,-1.65756 2.64003,-2.13694 2.81776,-4.89478 l 0.19702,-3.05726 -1.80122,0.92204 c -0.99067,0.50713 -3.00581,1.12213 -4.47809,1.36668 -2.87563,0.47764 -3.19131,0.89962 -4.03756,5.39708 l -0.52731,2.80239 2.60434,-0.34931 c 1.43238,-0.19212 3.78366,-1.1762 5.22506,-2.18684 z"
         style="fill:#ff9300;fill-opacity:1" />
      <path
         id="path3107"
         d="m 317.89818,438.01179 0.18991,-2.85916 -3.67514,-0.77087 c -2.02132,-0.42398 -3.73858,-0.70293 -3.81612,-0.61991 -0.0776,0.083 -0.24173,1.27785 -0.36486,2.65517 -0.22197,2.48306 -0.19677,2.51376 2.98454,3.63715 1.76462,0.62312 3.49715,1.06181 3.85007,0.97486 0.35292,-0.0869 0.72714,-1.4447 0.8316,-3.01724 z"
         style="fill:#ff9300;fill-opacity:1" />
      <path
         id="path3103"
         d="m 325.44756,430.96189 c 0.69468,-1.12402 -3.06465,-5.89995 -5.86109,-7.44605 -3.20685,-1.77302 -7.97416,-2.64362 -7.97416,-1.45624 0,0.45294 -0.72129,1.76921 -1.60288,2.92503 -1.45912,1.91301 -1.51219,2.1922 -0.59165,3.11275 0.55619,0.55618 1.57968,1.31546 2.27444,1.68728 3.03845,1.62613 12.95347,2.47469 13.75534,1.17723 z"
         style="fill:#ff9300;fill-opacity:1" />
      <path
         id="path3099"
         d="m 290.98832,430.40947 c 1.18092,-0.33869 3.11581,-1.35464 4.29975,-2.25768 l 2.15263,-1.64188 -1.57685,-2.32362 c -0.86727,-1.27799 -1.57685,-3.15866 -1.57685,-4.17925 0,-1.12355 -0.41279,-2.01403 -1.0463,-2.25713 -1.57927,-0.60603 -5.27968,1.68358 -7.87232,4.87095 -1.27092,1.56246 -3.26303,3.92636 -4.42693,5.25312 -2.09451,2.38761 -2.10108,2.41517 -0.64167,2.6944 2.81584,0.53874 8.55339,0.45344 10.68854,-0.15891 z"
         style="fill:#ff9300;fill-opacity:1" />
      <path
         id="path3095"
         d="m 324.77508,418.44287 c 2.04752,-2.20932 4.21484,-5.92244 3.64906,-6.25172 -0.24696,-0.14373 -2.94668,-0.46407 -5.99938,-0.71187 l -5.55035,-0.45054 -1.26758,3.39801 -1.26757,3.39802 2.96785,1.0602 c 4.304,1.5375 5.71051,1.45424 7.46797,-0.4421 z"
         style="fill:#ff9300;fill-opacity:1" />
      <path
         id="path3091"
         d="m 286.82535,416.46198 1.44242,-1.08802 -1.32172,-2.43591 c -1.10186,-2.03074 -1.66166,-2.4368 -3.3654,-2.44121 -1.12402,-0.003 -2.83493,0.29554 -3.802,0.66322 l -1.75833,0.66851 3.16033,2.83196 c 1.73818,1.55758 3.39476,2.84491 3.6813,2.86072 0.28654,0.0158 1.17007,-0.46085 1.9634,-1.05927 z"
         style="fill:#ff9300;fill-opacity:1" />
      <path
         id="path3087"
         d="m 312.8495,412.23449 c 0.738,-2.21769 2.19509,-5.06734 3.238,-6.33255 1.04289,-1.26522 1.71389,-2.48268 1.4911,-2.70547 -0.86257,-0.86256 -5.10309,-0.33971 -7.09509,0.87482 -2.22846,1.35871 -4.63994,4.75346 -4.6439,6.53743 -10e-4,0.59384 0.56761,1.26061 1.26428,1.48173 0.69668,0.22112 1.87136,1.25122 2.61041,2.28911 0.73905,1.0379 1.4449,1.88709 1.56855,1.88709 0.12366,0 0.82865,-1.81447 1.56665,-4.03216 z"
         style="fill:#ff9300;fill-opacity:1" />
      <path
         id="path3081"
         d="m 298.31124,412.60369 c 1.49236,-0.95586 2.84509,-1.83352 3.00607,-1.95037 0.86389,-0.62701 -2.54374,-4.95666 -5.37066,-6.82386 -3.55092,-2.34538 -10.01784,-5.73957 -10.31248,-5.41253 -0.2406,0.26705 3.19211,11.6676 3.81809,12.68045 0.62901,1.01778 4.28042,3.23875 5.32975,3.24184 0.44872,10e-4 2.03688,-0.77967 3.52923,-1.73553 z"
         style="fill:#ff9300;fill-opacity:1" />
      <path
         id="path3079"
         d="m 306.32398,402.67274 c 1.96091,-2.11366 1.64737,-4.00112 -1.20419,-7.24887 -2.21919,-2.52751 -3.13265,-2.83539 -3.13265,-1.05586 0,0.66099 -0.59199,2.54008 -1.31553,4.17576 l -1.31552,2.97396 2.11559,2.51991 c 1.81788,2.1653 2.1957,2.36779 2.68477,1.43894 0.31305,-0.59454 1.28844,-1.85627 2.16753,-2.80384 z"
         style="fill:#ff9300;fill-opacity:1" />
    </g>
    <path
       style="fill:#9fa117;fill-opacity:1"
       d="m 686.70602,397.39567 c -0.7209,-2.14973 -1.4072,-4.052 -1.5251,-4.22727 -0.4034,-0.59975 -4.5627,4.42449 -4.9543,5.98457 -0.2899,1.15508 0.161,2.28922 1.7446,4.38798 l 2.1354,2.83029 1.9551,-2.53348 1.955,-2.53349 -1.3107,-3.9086 z"
       id="path3077" />
    <path
       style="fill:#000000"
       d="m 395.99303,518.9352 c -0.21812,-0.35292 -0.10782,-0.64168 0.2451,-0.64168 0.35293,0 0.82014,0.28876 1.03826,0.64168 0.21812,0.35293 0.10782,0.64168 -0.2451,0.64168 -0.35293,0 -0.82014,-0.28875 -1.03826,-0.64168 z"
       id="path3075" />
    <path
       style="fill:#130900;fill-opacity:1"
       d="m 413.37264,445.94104 c -5.52317,-4.20801 -5.8294,-5.33526 -5.8294,-21.45833 l 0,-13.92185 1.7722,1.69685 c 4.37712,4.19104 11.56671,16.51805 13.57169,23.26955 1.59987,5.38736 1.35981,8.4726 -0.84273,10.83041 -2.53249,2.71104 -4.7035,2.60674 -8.67176,-0.41663 z"
       id="path3073" />
    <path
       style="fill:#130900;fill-opacity:1"
       d="m 567.86942,447.9065 c -2.1336,-0.41734 -3.5569,-2.44031 -3.9079,-5.55416 -0.7217,-6.40254 6.2738,-21.29009 14.1048,-30.01732 l 2.0884,-2.32744 -0.062,13.87765 c -0.067,15.12995 -0.3439,16.5806 -3.8724,20.32049 -2.1916,2.32299 -5.0043,4.17882 -6.1495,4.05747 -0.4536,-0.0481 -1.4442,-0.20857 -2.2014,-0.35669 z"
       id="path3030" />
  </g>
</svg>
