<?xml version="1.0" standalone="no"?>
<!--Created with Inkscape (http://www.inkscape.org/)-->
<svg xmlns="http://www.w3.org/2000/svg" xmlns:xlink="http://www.w3.org/1999/xlink" viewBox="0 0 48 48">
  <defs>
    <linearGradient id="f">
      <stop offset="0" stop-color="white" stop-opacity="1"/>
      <stop offset="1" stop-color="white" stop-opacity=".57939917"/>
    </linearGradient>
    <linearGradient id="c">
      <stop offset="0" stop-color="#fff" stop-opacity="1"/>
      <stop offset="1.0000000" stop-color="#d0d0d0" stop-opacity="1"/>
    </linearGradient>
    <linearGradient id="b">
      <stop offset="0" stop-color="#000" stop-opacity="1"/>
      <stop offset="1" stop-color="#000" stop-opacity="0"/>
    </linearGradient>
    <linearGradient id="a">
      <stop offset="0.0000000" stop-color="#000" stop-opacity=".19791669"/>
      <stop offset="1" stop-color="#000" stop-opacity="0"/>
    </linearGradient>
    <linearGradient id="e">
      <stop offset="0" stop-color="#f0f0f0" stop-opacity="1"/>
      <stop offset="1.0000000" stop-color="#ddd" stop-opacity="1"/>
    </linearGradient>
    <linearGradient id="d">
      <stop offset="0" stop-color="#0a0a0a" stop-opacity="1"/>
      <stop offset="1" stop-color="#0a0a0a" stop-opacity="0"/>
    </linearGradient>
    <radialGradient xlink:href="#a" id="n" cx="60.502419" cy="115.07005" fx="60.502419" fy="115.07005" r="56.111115" gradientTransform="matrix(1,0,0,0.213043,-2.766884e-16,90.55513)" gradientUnits="userSpaceOnUse"/>
    <linearGradient xlink:href="#b" id="m" x1="71.236717" y1="152.15218" x2="88.314011" y2="99.212555" gradientUnits="userSpaceOnUse" gradientTransform="matrix(0.368911,0,0,0.409902,1.019997,-3.067345)"/>
    <linearGradient xlink:href="#c" id="r" gradientUnits="userSpaceOnUse" x1="81.89402" y1="22.461552" x2="84.654594" y2="10.41062" gradientTransform="matrix(0.373185,0,0,0.36947,-1.509613,-0.729184)"/>
    <linearGradient xlink:href="#d" id="p" gradientUnits="userSpaceOnUse" gradientTransform="matrix(0.378019,0,0,0.366486,-1.594096,-1.346996)" x1="69.606209" y1="-2.7867124" x2="82.63073" y2="34.12973"/>
    <linearGradient xlink:href="#e" id="o" gradientUnits="userSpaceOnUse" x1="57.903072" y1="65.225105" x2="85.99958" y2="114.99323" gradientTransform="matrix(0.374016,0,0,0.37836,-1.630407,-0.678575)"/>
    <linearGradient xlink:href="#f" id="q" x1="7.9148936" y1="3.8297873" x2="7.9148936" y2="41.371349" gradientUnits="userSpaceOnUse"/>
    <linearGradient id="h">
      <stop offset="0" stop-color="#ffe000" stop-opacity="1"/>
      <stop offset="1.0000000" stop-color="#ff9500" stop-opacity="1"/>
    </linearGradient>
    <linearGradient id="i">
      <stop offset="0" stop-color="#fffce0" stop-opacity="1"/>
      <stop offset="1" stop-color="#e3c191" stop-opacity="1"/>
    </linearGradient>
    <linearGradient id="j">
      <stop offset="0" stop-color="#ff003c" stop-opacity="1"/>
      <stop offset="1.0000000" stop-color="#aa0028" stop-opacity="1"/>
    </linearGradient>
    <linearGradient id="k">
      <stop offset="0" stop-color="#e2e2e2" stop-opacity="1"/>
      <stop offset="1.0000000" stop-color="#979797" stop-opacity="1"/>
    </linearGradient>
    <linearGradient id="g">
      <stop offset="0" stop-color="#000" stop-opacity=".55599999"/>
      <stop offset="1" stop-color="#000" stop-opacity="0"/>
    </linearGradient>
    <linearGradient id="l">
      <stop offset="0" stop-color="white" stop-opacity="1"/>
      <stop offset="1" stop-color="white" stop-opacity=".26180258"/>
    </linearGradient>
    <linearGradient xlink:href="#g" id="s" gradientUnits="userSpaceOnUse" gradientTransform="matrix(0.380296,0,0,0.392807,-108.7495,0.745303)" x1="-46.352661" y1="152.39613" x2="78.067642" y2="90.131828"/>
    <linearGradient xlink:href="#h" id="t" gradientUnits="userSpaceOnUse" gradientTransform="matrix(1.009549,0,0,1.011276,-189.3397,0.756033)" x1="96.115021" y1="28.121029" x2="101.31535" y2="33.392132"/>
    <linearGradient xlink:href="#i" id="u" gradientUnits="userSpaceOnUse" gradientTransform="matrix(0.985533,0,0,1.023857,-188.2873,0.917523)" x1="87.762566" y1="40.028625" x2="91.002174" y2="42.9468"/>
    <linearGradient xlink:href="#j" id="v" gradientUnits="userSpaceOnUse" gradientTransform="matrix(-0.356844,0,0,0.358119,-111.3087,10.86249)" x1="-85.481979" y1="27.451311" x2="-94.657013" y2="43.796722"/>
    <linearGradient xlink:href="#k" id="w" gradientUnits="userSpaceOnUse" gradientTransform="matrix(-0.376014,0,0,0.380123,-113.4816,10.57597)" x1="-80.819405" y1="33.768192" x2="-90.566032" y2="44.636120"/>
    <linearGradient xlink:href="#l" id="x" gradientUnits="userSpaceOnUse" gradientTransform="translate(-30.03837,-60.85027)" x1="-62.187824" y1="88.562172" x2="-56.165985" y2="94.584015"/>
  </defs>
  <metadata/>
  <path d="M 36.479999,47 L 47.999999,39.799995 L 30,36 L 36.479999,47 z " fill="url(#m)" fill-opacity="1" fill-rule="evenodd" stroke="none" stroke-width=".25pt" stroke-linecap="butt" stroke-linejoin="miter" stroke-opacity="1"/>
  <path style="marker:none" d="M 116.61353 115.07005 A 56.111115 11.954107 0 1 1  4.391304,115.07005 A 56.111115 11.954107 0 1 1  116.61353 115.07005 z" transform="matrix(0.374257,0,0,0.375482,-1.643478,0.304713)" opacity="1" color="#000" fill="url(#n)" fill-opacity="1" fill-rule="evenodd" stroke="none" stroke-width="2" stroke-linecap="round" stroke-linejoin="round" marker-start="none" marker-mid="none" marker-end="none" stroke-miterlimit="4" stroke-dasharray="none" stroke-dashoffset="0" stroke-opacity="1" visibility="visible" display="inline" overflow="visible"/>
  <path d="M 3.6381241,42.183118 C 4.3693547,30.869709 5.1005853,16.945515 3.5090833,3.543477 L 23.123274,1.5201175 C 26.564358,1.2807954 36.543511,4.9794104 36.543511,8.2428935 C 38.005971,22.03655 37.661861,34.785892 36.285427,46.490917 L 3.6381241,42.183118 z " fill="url(#o)" fill-opacity="1" fill-rule="evenodd" stroke="#bababa" stroke-width="1.01816666" stroke-linecap="round" stroke-linejoin="round" stroke-miterlimit="4" stroke-dasharray="none" stroke-opacity="1"/>
  <path d="M 24.65333,3.0742622 C 22.414428,6.3406944 23.110009,11.250879 25.370648,13 C 29.152871,9.1645772 31.696091,7.1625709 36,7.8790784 C 33.706755,4.844458 28.690962,2.5526868 24.65333,3.0742622 z " fill="url(#p)" fill-opacity="1" fill-rule="evenodd" stroke="none" stroke-width=".25pt" stroke-linecap="butt" stroke-linejoin="miter" stroke-opacity="1"/>
  <path d="M 4.6050865,41.395379 C 5.2943839,30.572095 5.9836814,17.251132 4.4834458,4.4297046 L 22.97284,2.494002 C 26.727951,2.265048 36.016642,5.8034297 35.623479,8.9255306 C 37.002072,22.121611 36.677695,34.318619 35.380195,45.516554 L 4.6050865,41.395379 z " fill="none" fill-opacity="1" fill-rule="evenodd" stroke="url(#q)" stroke-width=".96689165" stroke-linecap="round" stroke-linejoin="round" stroke-miterlimit="4" stroke-dasharray="none" stroke-opacity="1"/>
  <path d="M 22.352108,2.0552082 C 20.141837,5.3482383 20.828523,10.298406 23.060254,12.061771 C 26.79411,8.1951158 31.751128,7.069112 36,7.791454 C 35.023618,4.8595954 26.338108,1.5293855 22.352108,2.0552082 z " fill="url(#r)" fill-opacity="1" fill-rule="evenodd" stroke="none" stroke-width="1" stroke-linecap="butt" stroke-linejoin="miter" stroke-miterlimit="4" stroke-dasharray="none" stroke-opacity="1"/>
  <g transform="matrix(1.121213,0,0,1.133333,125.7704,-6.569662)">
    <path d="M -105.03837,48.149733 L -93.53397,46.616463 L -72.93738,39.141731 C -69.59739,37.416795 -76.27737,34.925221 -81.28734,36.841817 L -99.28617,43.549903 L -105.03837,48.149733 z " fill="url(#s)" fill-opacity="1" fill-rule="evenodd" stroke="none" stroke-width=".25pt" stroke-linecap="butt" stroke-linejoin="miter" stroke-opacity="1"/>
    <path d="M -81.58248,19.276338 L -101.80235,39.178443 L -104.53836,47.649683 L -96.57904,45.221483 L -76.43202,25.22581 C -73.7519,22.009403 -77.57924,16.855031 -81.58248,19.276338 z " fill="url(#t)" fill-opacity="1" fill-rule="evenodd" stroke="#cb6000" stroke-width=".88710904" stroke-linecap="butt" stroke-linejoin="round" stroke-miterlimit="4" stroke-dasharray="none" stroke-opacity="1"/>
    <path d="M -96.59614,44.688673 L -103.73892,47.149733 L -101.25637,39.458923 C -97.30751,37.950065 -94.88304,42.330163 -96.59614,44.688673 z " fill="url(#u)" fill-opacity="1" fill-rule="evenodd" stroke="none" stroke-width=".25pt" stroke-linecap="butt" stroke-linejoin="miter" stroke-opacity="1"/>
    <path d="M -78.94559,27.149733 C -79.32539,24.97348 -81.13469,21.816919 -84.03837,22.235337 C -83.19682,21.361666 -82.35527,20.487996 -81.51374,19.614326 C -76.92153,17.553919 -74.85395,22.89787 -76.72565,24.87819 C -77.45113,25.664492 -78.13306,26.363429 -78.94559,27.149733 z " fill="url(#v)" fill-opacity="1" fill-rule="evenodd" stroke="none" stroke-width=".25pt" stroke-linecap="butt" stroke-linejoin="miter" stroke-opacity="1"/>
    <path d="M -79.68702,28.149733 C -79.91404,25.308203 -82.54107,22.368312 -85.03837,22.969405 C -84.7789,22.696181 -84.51944,22.422957 -84.25999,22.149733 C -80.29,22.149733 -79.03837,25.630612 -79.03837,27.559569 C -79.25459,27.75629 -79.4708,27.953012 -79.68702,28.149733 z " fill="url(#w)" fill-opacity="1" fill-rule="evenodd" stroke="none" stroke-width=".25pt" stroke-linecap="butt" stroke-linejoin="miter" stroke-opacity="1"/>
    <path d="M -102.11815,46.645564 L -103.92451,47.262374 L -103.29669,45.334854 C -102.29805,44.956694 -101.68492,46.054464 -102.11815,46.645564 z " fill="#000" fill-opacity="1" fill-rule="evenodd" stroke="none" stroke-width=".25pt" stroke-linecap="butt" stroke-linejoin="miter" stroke-opacity="1"/>
    <path d="M -81.697452,20.452283 L -100.99224,39.784433 L -103.19019,46.562525 L -96.8644,44.181453 L -77.132402,24.581143 C -74.759452,21.995877 -78.746382,17.739948 -81.697452,20.452283 z " fill="none" fill-opacity="1" fill-rule="evenodd" stroke="url(#x)" stroke-width=".88710833" stroke-linecap="butt" stroke-linejoin="round" stroke-miterlimit="4" stroke-dasharray="none" stroke-opacity="1"/>
  </g>
</svg>
