<?xml version="1.0" standalone="no"?>
<!--Created with Inkscape (http://www.inkscape.org/)-->
<svg xmlns="http://www.w3.org/2000/svg" xmlns:xlink="http://www.w3.org/1999/xlink" viewBox="0 0 48 48">
  <defs>
    <linearGradient id="g">
      <stop offset="0" stop-color="white" stop-opacity="1"/>
      <stop offset="1" stop-color="white" stop-opacity=".28627452"/>
    </linearGradient>
    <linearGradient id="f">
      <stop offset="0" stop-color="white" stop-opacity="1"/>
      <stop offset="1" stop-color="white" stop-opacity=".23921569"/>
    </linearGradient>
    <linearGradient id="d">
      <stop offset="0" stop-color="#fff" stop-opacity="1"/>
      <stop offset="1" stop-color="#fff" stop-opacity="0"/>
    </linearGradient>
    <linearGradient id="e">
      <stop offset="0" stop-color="#fff" stop-opacity=".69199997"/>
      <stop offset="1" stop-color="#fff" stop-opacity="0"/>
    </linearGradient>
    <linearGradient id="a">
      <stop offset="0" stop-color="#000" stop-opacity=".204"/>
      <stop offset="1" stop-color="#000" stop-opacity="0"/>
    </linearGradient>
    <linearGradient id="b">
      <stop offset="0" stop-color="#000" stop-opacity=".68800002"/>
      <stop offset="1" stop-color="#000" stop-opacity="0"/>
    </linearGradient>
    <linearGradient id="c">
      <stop offset="0.0000000" stop-color="#ff0" stop-opacity="1"/>
      <stop offset="1.0000000" stop-color="#ffca00" stop-opacity="1"/>
    </linearGradient>
    <radialGradient xlink:href="#a" id="h" gradientUnits="userSpaceOnUse" gradientTransform="matrix(1,0,0,0.285714,4.587587e-15,80.63258)" cx="49.357933" cy="112.88561" fx="49.357933" fy="112.88561" r="34.715866"/>
    <linearGradient xlink:href="#b" id="i" gradientUnits="userSpaceOnUse" gradientTransform="matrix(0.416341,0,0,0.435079,-0.298463,-11.96769)" x1="-7.0136652" y1="162.73433" x2="94.517471" y2="89.591843"/>
    <linearGradient xlink:href="#c" id="j" gradientUnits="userSpaceOnUse" gradientTransform="matrix(1.065847,0,0,1.062677,-28.44165,-30.18011)" x1="33.635742" y1="43.690037" x2="45.499424" y2="55.025829"/>
    <linearGradient xlink:href="#d" id="k" gradientUnits="userSpaceOnUse" x1="39.41011" y1="48.511803" x2="48.093697" y2="86.585983" gradientTransform="matrix(0.407046,0,0,0.407535,-0.328089,-9.068354)"/>
    <linearGradient xlink:href="#e" id="n" gradientUnits="userSpaceOnUse" x1="46.477318" y1="13.777468" x2="47.088573" y2="39.995213"/>
    <linearGradient xlink:href="#f" id="o" x1="39.880642" y1="21.300926" x2="44.940178" y2="40.187744" gradientUnits="userSpaceOnUse" gradientTransform="matrix(0.994775,0,0,1.021303,-24.48539,-29.72505)"/>
    <linearGradient xlink:href="#g" id="l" x1="27.187326" y1="54.576" x2="39.615459" y2="100.95843" gradientUnits="userSpaceOnUse" gradientTransform="matrix(0.391787,0,0,0.392813,0.333096,-7.696968)"/>
    <radialGradient xlink:href="#c" id="m" gradientUnits="userSpaceOnUse" gradientTransform="matrix(1.111808,0,0,1.114746,-29.44656,-32.75934)" cx="40.265682" cy="30.295935" fx="40.265682" fy="30.295935" r="10.092251"/>
  </defs>
  <metadata/>
  <g transform="matrix(0.939772,0,0,0.939772,2.38083,7.768091)">
    <path transform="matrix(0.432613,0,0,0.434942,-0.880332,-10.60252)" d="M 84.073799 112.88561 A 34.715866 9.9188194 0 1 1  14.642067,112.88561 A 34.715866 9.9188194 0 1 1  84.073799 112.88561 z" style="marker:none" opacity="1" color="#000" fill="url(#h)" fill-opacity="1" fill-rule="evenodd" stroke="none" stroke-width="2" stroke-linecap="round" stroke-linejoin="round" marker-start="none" marker-mid="none" marker-end="none" stroke-miterlimit="4" stroke-dasharray="none" stroke-dashoffset="0" stroke-opacity="1" visibility="visible" display="inline" overflow="visible"/>
    <path d="M 43.253784,24.720793 C 38.056768,24.720793 31.297332,26.14355 28.157287,27.895681 C 25.671147,29.282939 26.235134,30.450001 29.142606,30.881435 C 27.291634,30.916791 25.447581,30.949656 23.596603,30.985013 C 14.685063,35.047918 12.995362,37.67121 11.29973,39.618023 C 23.776121,36.204046 28.114771,37.192371 29.508403,39.280265 C 30.141289,37.107727 33.562463,35.019285 37.560102,33.016046 C 38.842549,33.664983 41.6587,34.142982 45.15769,33.691551 C 41.899296,33.09904 40.36237,32.086211 41.31087,30.647255 C 39.733845,30.677387 38.159753,30.707204 36.582731,30.737327 C 40.638826,30.221572 44.737158,29.14922 46.983652,27.895681 C 50.123701,26.14355 48.450796,24.720793 43.253784,24.720793 z " fill="url(#i)" fill-opacity="1" fill-rule="evenodd" stroke="none" stroke-width="4.97422647" stroke-linecap="round" stroke-linejoin="round" stroke-miterlimit="4" stroke-dasharray="none" stroke-opacity="1"/>
    <path d="M 8.0567041,13.487639 C 13.930003,13.15302 19.803305,12.818401 25.676604,12.483782 C 27.354689,16.750171 30.794766,19.761743 35.241692,21.518489 C 32.472851,22.856963 28.697159,21.434841 26.180029,19.510778 C 25.760508,25.450263 26.096125,31.640713 29.452297,38.082129 C 24.166326,31.891669 17.873505,28.963755 11.328971,39.08598 C 9.4830772,33.313802 6.3786181,25.533912 8.0567041,13.487639 z " fill="url(#j)" fill-opacity="1" fill-rule="evenodd" stroke="#ffa200" stroke-width="1.06408775" stroke-linecap="round" stroke-linejoin="round" stroke-miterlimit="4" stroke-dasharray="none" stroke-opacity="1"/>
    <path d="M 8.6443885,13.968599 C 7.7297214,18.313561 8.1587216,22.274158 8.6443885,26.218542 C 13.221256,20.002832 19.701376,16.645438 25.22987,25.129653 L 25.161897,19.072745 C 26.056879,16.021597 29.398899,19.775982 31.5174,20.127596 C 29.104348,18.573668 27.099136,16.066965 25.093925,13.015826 L 8.6443885,13.968599 z " fill="url(#k)" fill-opacity="1" fill-rule="evenodd" stroke="none" stroke-width=".25pt" stroke-linecap="butt" stroke-linejoin="miter" stroke-opacity="1"/>
    <path d="M 9.1518999,14.473091 C 14.535783,14.164684 19.919667,13.856277 25.30355,13.547871 C 26.841802,17.480046 29.037153,19.516799 33.113522,21.135934 C 30.575404,20.81786 27.630218,18.989906 25.322839,17.21657 C 24.688436,22.08525 24.297819,28.475181 26.774788,34.111446 C 22.518871,30.179296 15.202779,30.36246 11.561912,36.957807 C 9.869835,31.637799 7.6136477,25.575718 9.1518999,14.473091 z " fill="none" fill-opacity="1" fill-rule="evenodd" stroke="url(#l)" stroke-width="1.06408775" stroke-linecap="round" stroke-linejoin="round" stroke-miterlimit="4" stroke-dasharray="none" stroke-opacity="1"/>
    <path style="marker:none" d="M 27.793106,3.4390371 C 27.793106,9.0191141 23.264346,13.547874 17.684266,13.547874 C 12.104184,13.547874 7.5754255,9.0191141 7.5754255,3.4390371 C 7.5754255,-2.1410409 12.104184,-6.6697985 17.684266,-6.6697985 C 23.264346,-6.6697985 27.793106,-2.1410409 27.793106,3.4390371 z " color="#000" fill="url(#m)" fill-opacity="1" fill-rule="evenodd" stroke="#f90" stroke-width="1.06408823" stroke-linecap="round" stroke-linejoin="round" marker-start="none" marker-mid="none" marker-end="none" stroke-miterlimit="4" stroke-dasharray="none" stroke-dashoffset="0" stroke-opacity="1" visibility="visible" display="inline" overflow="visible"/>
    <path transform="matrix(0.458256,0,0,0.391386,-3.028349,-10.46597)" d="M 61.453058 26.05138 A 16.198225 12.273912 0 1 1  29.056608,26.05138 A 16.198225 12.273912 0 1 1  61.453058 26.05138 z" style="marker:none" opacity="1" color="#000" fill="url(#n)" fill-opacity="1" fill-rule="evenodd" stroke="none" stroke-width="2" stroke-linecap="round" stroke-linejoin="round" marker-start="none" marker-mid="none" marker-end="none" stroke-miterlimit="4" stroke-dasharray="none" stroke-dashoffset="0" stroke-opacity="1" visibility="visible" display="inline" overflow="visible"/>
    <path style="marker:none" d="M 26.728999,3.4390349 C 26.728999,8.4317374 22.676952,12.483785 17.684255,12.483785 C 12.691555,12.483785 8.6395107,8.4317374 8.6395107,3.4390349 C 8.6395107,-1.5536665 12.691555,-5.6057135 17.684255,-5.6057135 C 22.676952,-5.6057135 26.728999,-1.5536665 26.728999,3.4390349 z " color="#000" fill="none" fill-opacity="1" fill-rule="evenodd" stroke="url(#o)" stroke-width="1.06408811" stroke-linecap="round" stroke-linejoin="round" marker-start="none" marker-mid="none" marker-end="none" stroke-miterlimit="4" stroke-dasharray="none" stroke-dashoffset="0" stroke-opacity="1" visibility="visible" display="inline" overflow="visible"/>
  </g>
</svg>
