<?xml version="1.0" standalone="no"?>
<!--Created with Inkscape (http://www.inkscape.org/)-->
<svg xmlns="http://www.w3.org/2000/svg" xmlns:xlink="http://www.w3.org/1999/xlink" viewBox="0 0 48 48">
  <defs>
    <linearGradient id="a">
      <stop offset="0" stop-color="white" stop-opacity=".64806867"/>
      <stop offset="1" stop-color="white" stop-opacity=".24892704"/>
    </linearGradient>
    <linearGradient id="b">
      <stop offset="0" stop-color="white" stop-opacity="1"/>
      <stop offset="1" stop-color="white" stop-opacity=".39055794"/>
    </linearGradient>
    <linearGradient id="c">
      <stop offset="0" stop-color="white" stop-opacity=".81960785"/>
      <stop offset="1" stop-color="white" stop-opacity=".40784314"/>
    </linearGradient>
    <linearGradient id="d">
      <stop offset="0" stop-color="black" stop-opacity=".49785408"/>
      <stop offset="1" stop-color="black" stop-opacity="0"/>
    </linearGradient>
    <linearGradient id="e">
      <stop offset="0" stop-color="#f9f9f9" stop-opacity="1"/>
      <stop offset="1" stop-color="#dcdcdc" stop-opacity="1"/>
    </linearGradient>
    <linearGradient xlink:href="#a" id="j" gradientUnits="userSpaceOnUse" gradientTransform="matrix(0.847573,0,0,0.846575,-7.929136e-2,-1.922318)" x1="21.844343" y1="3.5399165" x2="21.844343" y2="22.083397"/>
    <linearGradient xlink:href="#b" id="i" gradientUnits="userSpaceOnUse" gradientTransform="matrix(0.865349,0,0,0.804481,-0.528718,-1.956926)" x1="12.125" y1="1.2498183" x2="12.125" y2="44.267635"/>
    <linearGradient xlink:href="#c" id="h" gradientUnits="userSpaceOnUse" gradientTransform="matrix(0.847573,0,0,0.804247,-7.929136e-2,-1.710675)" x1="33.625618" y1="33.649742" x2="33.625618" y2="4.2131443"/>
    <linearGradient xlink:href="#d" id="g" gradientUnits="userSpaceOnUse" gradientTransform="matrix(0.906425,0,0,0.81124,-1.844872,-2.075225)" x1="37.504166" y1="21.875" x2="27.997295" y2="21.875"/>
    <linearGradient xlink:href="#e" id="f" gradientUnits="userSpaceOnUse" gradientTransform="matrix(0.865999,0,0,0.815479,-0.390148,-2.179779)" x1="17.324116" y1="12.28867" x2="17.324116" y2="37.926449"/>
    <linearGradient xlink:href="#a" id="o" gradientUnits="userSpaceOnUse" gradientTransform="matrix(0.885568,0,0,0.915989,16.57282,2.804332)" x1="21.844343" y1="3.5399165" x2="21.844343" y2="22.083397"/>
    <linearGradient xlink:href="#b" id="n" gradientUnits="userSpaceOnUse" gradientTransform="matrix(0.890655,0,0,0.872741,16.55502,2.754251)" x1="12.125" y1="1.2498183" x2="12.125" y2="44.267635"/>
    <linearGradient xlink:href="#c" id="m" gradientUnits="userSpaceOnUse" gradientTransform="matrix(0.885568,0,0,0.870191,16.57282,3.033328)" x1="33.625618" y1="33.649742" x2="33.625618" y2="4.2131443"/>
    <linearGradient xlink:href="#d" id="l" gradientUnits="userSpaceOnUse" gradientTransform="matrix(0.947059,0,0,0.877757,14.72809,2.638887)" x1="37.504166" y1="21.875" x2="27.997295" y2="21.875"/>
    <linearGradient xlink:href="#e" id="k" gradientUnits="userSpaceOnUse" gradientTransform="matrix(0.90482,0,0,0.882344,16.24803,2.52576)" x1="17.324116" y1="12.28867" x2="17.324116" y2="37.926449"/>
  </defs>
  <metadata/>
  <path d="M 2.2290413,5.5711209 L 25.594367,1.4942272 L 29.032622,2.3053556 C 29.284244,2.3053556 29.48681,2.4320539 29.48681,2.5894346 L 29.48681,30.563062 C 29.48681,30.720443 29.284244,30.847142 29.032622,30.847142 L 25.594367,31.672343 L 17.381105,30.943781 L 13.444387,37.513333 L 9.2243392,37.513333 L 6.915009,29.778985 L 2.2290413,29.216185 C 1.9958677,29.159794 1.7748545,29.089484 1.7748545,28.932105 L 1.7748545,5.855201 C 1.7748545,5.7038296 2.0027228,5.6033901 2.2290413,5.5711209 z " fill="url(#f)" fill-opacity="1" stroke="#8c8c8c" stroke-width=".99999982" stroke-linecap="round" stroke-linejoin="round" stroke-miterlimit="4" stroke-dashoffset="0" stroke-opacity="1"/>
  <path d="M 25.347927,1.98097 L 28.973633,2.792209 L 28.973633,30.348989 L 25.347927,31.18558 L 25.347927,1.98097 z " fill="url(#g)" fill-opacity="1" stroke="none" stroke-width="1" stroke-linecap="round" stroke-linejoin="round" stroke-miterlimit="4" stroke-dashoffset="0" stroke-opacity="1"/>
  <path d="M 24.924129,2.2602941 L 24.924129,31.313712" fill="none" fill-opacity="1" fill-rule="evenodd" stroke="url(#h)" stroke-width=".99999946px" stroke-linecap="butt" stroke-linejoin="miter" stroke-opacity="1"/>
  <path d="M 2.9254814,6.2715428 L 25.043877,2.4677155 L 28.03496,3.1239551 C 28.270678,3.1868051 28.460442,3.2421682 28.460442,3.389007 L 28.460442,29.589547 C 28.460442,29.736386 28.270678,29.8546 28.03496,29.8546 L 24.814019,30.624529 L 13.373224,29.421475 L 9.3521674,35.959361 L 7.6590647,28.693329 L 2.9254814,28.332882 C 2.707042,28.280267 2.499999,28.214669 2.499999,28.067829 L 2.499999,6.5365947 C 2.499999,6.3953639 2.7134654,6.3016493 2.9254814,6.2715428 z " fill="none" fill-opacity="1" stroke="url(#i)" stroke-width=".99999928" stroke-linecap="round" stroke-linejoin="miter" stroke-miterlimit="4" stroke-dasharray="none" stroke-dashoffset="0" stroke-opacity="1"/>
  <path d="M 2.8940627,6.4550637 L 25.047646,2.3105618 L 25.047646,19.501343 C 21.220077,12.470041 5.3041413,13.245983 2.463429,19.501343 L 2.463429,6.7438535 C 2.463429,6.5899744 2.6794807,6.4878673 2.8940627,6.4550637 z " opacity=".78242678" fill="url(#j)" fill-opacity="1" stroke="none" stroke-width="1" stroke-linecap="round" stroke-linejoin="round" stroke-miterlimit="4" stroke-dashoffset="0" stroke-opacity="1"/>
  <path d="M 13.171036,36.972516 L 17.165277,30.439806 L 13.930359,29.978264 L 9.6696253,36.972516 L 13.171036,36.972516 z " fill="#000" fill-opacity=".23175964" fill-rule="evenodd" stroke="none" stroke-width="1px" stroke-linecap="butt" stroke-linejoin="miter" stroke-opacity="1"/>
  <path d="M 18.984633,10.912186 L 43.397378,6.5010122 L 46.989762,7.3786483 C 47.252664,7.3786483 47.464311,7.515735 47.464311,7.68602 L 47.464311,37.953315 C 47.464311,38.1236 47.252664,38.260688 46.989762,38.260688 L 43.397378,39.15355 L 34.815932,38.36525 L 30.702739,45.473465 L 26.293515,45.473465 L 23.880662,37.104948 L 18.984633,36.496001 C 18.741006,36.434987 18.510085,36.358912 18.510085,36.188628 L 18.510085,11.219559 C 18.510085,11.055776 18.748169,10.947101 18.984633,10.912186 z " fill="url(#k)" fill-opacity="1" stroke="#969696" stroke-width=".9999997" stroke-linecap="round" stroke-linejoin="round" stroke-miterlimit="4" stroke-dashoffset="0" stroke-opacity="1"/>
  <path d="M 43.13989,7.027665 L 46.928129,7.9054207 L 46.928129,37.721688 L 43.13989,38.626875 L 43.13989,7.027665 z " fill="url(#l)" fill-opacity="1" stroke="none" stroke-width="1" stroke-linecap="round" stroke-linejoin="round" stroke-miterlimit="4" stroke-dashoffset="0" stroke-opacity="1"/>
  <path d="M 42.697094,7.329892 L 42.697094,38.765513" fill="none" fill-opacity="1" fill-rule="evenodd" stroke="url(#m)" stroke-width=".99999934px" stroke-linecap="butt" stroke-linejoin="miter" stroke-opacity="1"/>
  <path d="M 20.110235,11.680899 L 42.875464,7.5543202 L 45.954019,8.2662413 C 46.19663,8.334424 46.391943,8.3944846 46.391943,8.5537826 L 46.391943,36.977418 C 46.391943,37.136716 46.19663,37.264961 45.954019,37.264961 L 42.638883,38.100217 L 30.863513,36.795086 L 26.724864,43.887705 L 24.982248,36.005157 L 20.110235,35.614126 C 19.885407,35.557048 19.672309,35.485882 19.672309,35.326584 L 19.672309,11.968441 C 19.672309,11.815227 19.892018,11.71356 20.110235,11.680899 z " fill="none" fill-opacity="1" stroke="url(#n)" stroke-width=".9999994" stroke-linecap="round" stroke-linejoin="miter" stroke-miterlimit="4" stroke-dasharray="none" stroke-dashoffset="0" stroke-opacity="1"/>
  <path d="M 19.679465,11.868607 L 42.826148,7.3842814 L 42.826148,25.984602 C 38.826997,18.376776 22.197583,19.216341 19.229527,25.984602 L 19.229527,12.181076 C 19.229527,12.01458 19.455264,11.9041 19.679465,11.868607 z " opacity=".78242678" fill="url(#o)" fill-opacity="1" stroke="none" stroke-width="1" stroke-linecap="round" stroke-linejoin="round" stroke-miterlimit="4" stroke-dashoffset="0" stroke-opacity="1"/>
  <path d="M 30.417134,44.888305 L 34.590429,37.819952 L 31.210496,37.320567 L 26.758763,44.888305 L 30.417134,44.888305 z " fill="#000" fill-opacity=".23175964" fill-rule="evenodd" stroke="none" stroke-width="1px" stroke-linecap="butt" stroke-linejoin="miter" stroke-opacity="1"/>
</svg>
