<?xml version="1.0" standalone="no"?>
<!--Created with Inkscape (http://www.inkscape.org/)-->
<svg xmlns="http://www.w3.org/2000/svg" xmlns:xlink="http://www.w3.org/1999/xlink" viewBox="0 0 48 48">
  <defs>
    <linearGradient id="c">
      <stop offset="0" stop-color="white" stop-opacity=".79607844"/>
      <stop offset="1" stop-color="white" stop-opacity="0"/>
    </linearGradient>
    <linearGradient id="f">
      <stop offset="0" stop-color="white" stop-opacity="1"/>
      <stop offset="1" stop-color="white" stop-opacity="0"/>
    </linearGradient>
    <linearGradient id="b">
      <stop offset="0.0000000" stop-color="#000" stop-opacity=".1875"/>
      <stop offset="1" stop-color="#000" stop-opacity="0"/>
    </linearGradient>
    <linearGradient id="a">
      <stop offset="0" stop-color="#000" stop-opacity="1"/>
      <stop offset="1" stop-color="#000" stop-opacity="0"/>
    </linearGradient>
    <linearGradient id="d">
      <stop offset="0" stop-color="#fff" stop-opacity=".68674695"/>
      <stop offset="1" stop-color="#fff" stop-opacity="0"/>
    </linearGradient>
    <linearGradient id="e">
      <stop offset="0" stop-color="#000" stop-opacity=".73092371"/>
      <stop offset="1" stop-color="#000" stop-opacity="0"/>
    </linearGradient>
    <linearGradient xlink:href="#a" id="i" x1="90.686348" y1="164.369" x2="106.27306" y2="103.91144" gradientUnits="userSpaceOnUse" gradientTransform="matrix(0.377788,0,0,0.377788,-0.178436,0.892191)"/>
    <radialGradient xlink:href="#b" id="h" cx="54.317345" cy="112.41328" fx="54.317345" fy="112.41328" r="47.704796" gradientTransform="matrix(1,0,0,0.29703,-2.740863e-16,79.02319)" gradientUnits="userSpaceOnUse"/>
    <radialGradient xlink:href="#b" id="g" gradientUnits="userSpaceOnUse" gradientTransform="matrix(1,0,0,0.29703,-6.832645e-16,79.02319)" cx="54.317345" cy="112.41328" fx="54.317345" fy="112.41328" r="47.704796"/>
    <linearGradient xlink:href="#c" id="k" x1="83.318726" y1="-0.056119706" x2="93.686676" y2="122.31063" gradientUnits="userSpaceOnUse" gradientTransform="matrix(0.392157,0,0,0.377878,-1.127537,1.059996)"/>
    <linearGradient xlink:href="#d" id="l" gradientUnits="userSpaceOnUse" x1="47.7048" y1="5.1955714" x2="54.317345" y2="82.184502" gradientTransform="matrix(0.38246,0,0,0.380008,-5.393549,-0.230769)"/>
    <linearGradient xlink:href="#e" id="j" gradientUnits="userSpaceOnUse" x1="145.00369" y1="70.376381" x2="89.741699" y2="69.431732" gradientTransform="matrix(0.397557,0,0,0.382532,-6.841419,-0.483282)"/>
    <linearGradient xlink:href="#f" id="m" gradientUnits="userSpaceOnUse" gradientTransform="matrix(0.384943,0,0,0.383323,-0.409092,1.055781)" x1="33.654625" y1="11.391578" x2="71.740967" y2="141.5607"/>
  </defs>
  <metadata/>
  <path style="marker:none" d="M 102.02214 112.41328 A 47.704796 14.169742 0 1 1  6.6125488,112.41328 A 47.704796 14.169742 0 1 1  102.02214 112.41328 z" transform="matrix(0.300688,0,0,0.245562,-1.988314,13.25797)" opacity="1" color="#000" fill="url(#g)" fill-opacity="1" fill-rule="evenodd" stroke="none" stroke-width="3" stroke-linecap="round" stroke-linejoin="round" marker-start="none" marker-mid="none" marker-end="none" stroke-miterlimit="4" stroke-dasharray="none" stroke-dashoffset="0" stroke-opacity="1" visibility="visible" display="inline" overflow="visible"/>
  <path style="marker:none" d="M 102.02214 112.41328 A 47.704796 14.169742 0 1 1  6.6125488,112.41328 A 47.704796 14.169742 0 1 1  102.02214 112.41328 z" transform="matrix(0.377788,0,0,0.308527,2.498144,8.945721)" opacity="1" color="#000" fill="url(#h)" fill-opacity="1" fill-rule="evenodd" stroke="none" stroke-width="3" stroke-linecap="round" stroke-linejoin="round" marker-start="none" marker-mid="none" marker-end="none" stroke-miterlimit="4" stroke-dasharray="none" stroke-dashoffset="0" stroke-opacity="1" visibility="visible" display="inline" overflow="visible"/>
  <path d="M 37.650558,46.215611 L 48.000003,42.646841 L 36.579928,38.185871 L 37.650558,46.215611 z " fill="url(#i)" fill-opacity="1" fill-rule="evenodd" stroke="none" stroke-width=".25pt" stroke-linecap="butt" stroke-linejoin="miter" stroke-opacity="1"/>
  <path d="M 38.499995,46.068581 L 38.499995,4.2892649 L 32.164595,2.5000008 L 3.5000012,9.5151874 L 3.5000012,39.753749 L 32.164595,47.499993 L 38.499995,46.068581 z " fill="#009ed3" fill-opacity="1" fill-rule="evenodd" stroke="#0075b8" stroke-width="1.00000012" stroke-linecap="round" stroke-linejoin="round" stroke-miterlimit="4" stroke-dasharray="none" stroke-opacity="1"/>
  <path d="M 32,2.7259517 L 32.046944,47 L 37.998454,45.670149 L 38,4.3718266 L 32,2.7259517 z " fill="url(#j)" fill-opacity="1" fill-rule="evenodd" stroke="none" stroke-width=".25pt" stroke-linecap="butt" stroke-linejoin="miter" stroke-opacity="1"/>
  <path d="M 32.499997,3.4999989 L 37.500011,4.9170421 L 37.500011,44.327031 L 32.499997,45.649606 L 32.499997,3.4999989 z " fill="none" fill-opacity="1" fill-rule="evenodd" stroke="url(#k)" stroke-width=".99999988" stroke-linecap="butt" stroke-linejoin="miter" stroke-miterlimit="4" stroke-dasharray="none" stroke-opacity="1"/>
  <path d="M 4,9.9999998 L 4,27.589744 C 12.911828,19.482906 23.449462,18.555555 31.819355,31 L 32,3 L 4,9.9999998 z " fill="url(#l)" fill-opacity="1" fill-rule="evenodd" stroke="none" stroke-width=".25pt" stroke-linecap="butt" stroke-linejoin="miter" stroke-opacity="1"/>
  <path d="M 24.216378,31.749435 C 24.216378,31.749435 23.126535,30.62837 22.152424,31.037524 C 22.152424,31.037524 20.723056,25.094653 20.240891,25.125726 L 15.454807,24.282946 L 15.279707,22.045335 L 19.267685,22.747577 L 19.304863,21.476235 L 14.838093,20.689684 L 14.941262,18.636649 C 15.658701,18.47939 16.209987,17.640958 16.242673,16.523197 C 16.281853,15.183366 15.563712,13.964638 14.6385,13.801717 C 13.713469,13.638829 12.931777,14.593452 12.892596,15.933283 C 12.863639,16.923539 13.24943,17.844104 13.825014,18.324902 C 13.78298,19.293529 13.748588,20.607195 13.783118,21.901491 C 12.101042,22.650426 10.869066,24.808408 10.787886,27.584494 C 10.678695,31.318428 12.679398,34.712134 15.256464,35.165928 C 17.833532,35.619725 20.011381,32.961817 20.120571,29.227884 C 20.131001,28.871191 20.119553,28.518853 20.092077,28.170844 C 20.705841,29.733693 21.606143,32.335993 21.506137,33.943411 L 24.216378,31.749435 z M 15.283852,34.241861 C 13.062466,33.850699 11.332241,30.91452 11.426325,27.697182 C 11.493222,25.409504 12.471017,23.605541 13.824945,22.883816 C 13.899049,24.137421 14.057955,25.278851 14.363684,25.949653 L 19.220866,26.804953 C 19.404354,27.537105 19.505578,28.313294 19.482106,29.115988 C 19.387851,32.33303 17.504688,34.632928 15.283852,34.241861 z " font-size="12px" fill="#fff" fill-opacity="1" stroke="#fff" stroke-width="1.56723571" stroke-miterlimit="4" stroke-opacity="1"/>
  <path d="M 4.5000022,38.943503 L 4.5000022,10.156899 L 31.500027,3.4999976 L 31.500027,46.499988 L 4.5000022,38.943503 z " fill="none" fill-opacity="1" fill-rule="evenodd" stroke="url(#m)" stroke-width="1.00000012" stroke-linecap="butt" stroke-linejoin="miter" stroke-miterlimit="4" stroke-dasharray="none" stroke-opacity="1"/>
  <path d="M 7.0000048,36.673636 L 7.0000048,12.807265 L 28.000012,7.9361721 L 28.000012,41.97872 L 7.0000048,36.673636 z " fill="none" fill-opacity="1" fill-rule="evenodd" stroke="#fff" stroke-width="2.00000095" stroke-linecap="butt" stroke-linejoin="miter" stroke-miterlimit="4" stroke-dasharray="none" stroke-opacity="1"/>
</svg>
