<?xml version="1.0" standalone="no"?>
<!--Created with Inkscape (http://www.inkscape.org/)-->
<svg xmlns="http://www.w3.org/2000/svg" xmlns:xlink="http://www.w3.org/1999/xlink" viewBox="0 0 48 48">
  <defs>
    <linearGradient id="f">
      <stop offset="0" stop-color="#7f7f7f" stop-opacity=".627451"/>
      <stop offset="1" stop-color="#7f7f7f" stop-opacity="0"/>
    </linearGradient>
    <linearGradient id="h">
      <stop offset="0" stop-color="#8e8e8e" stop-opacity="1"/>
      <stop offset="1" stop-color="#a0a0a0" stop-opacity="1"/>
    </linearGradient>
    <linearGradient id="g">
      <stop offset="0" stop-color="white" stop-opacity="1"/>
      <stop offset="1" stop-color="white" stop-opacity=".58823532"/>
    </linearGradient>
    <linearGradient id="e">
      <stop offset="0.0000000" stop-color="#000" stop-opacity=".30208334"/>
      <stop offset="1" stop-color="#000" stop-opacity="0"/>
    </linearGradient>
    <linearGradient id="d">
      <stop offset="0.0000000" stop-color="#000" stop-opacity=".16666669"/>
      <stop offset="1" stop-color="#000" stop-opacity="0"/>
    </linearGradient>
    <linearGradient id="c">
      <stop offset="0" stop-color="#f1f1f1" stop-opacity="1"/>
      <stop offset="1" stop-color="#cecece" stop-opacity="1"/>
    </linearGradient>
    <linearGradient id="b">
      <stop offset="0.0000000" stop-color="#fff" stop-opacity=".83333325"/>
      <stop offset="1" stop-color="#fff" stop-opacity="0"/>
    </linearGradient>
    <linearGradient id="a">
      <stop offset="0.0000000" stop-color="#fff" stop-opacity=".83333325"/>
      <stop offset="1" stop-color="#fff" stop-opacity="0"/>
    </linearGradient>
    <linearGradient xlink:href="#a" id="J" x1="31.114616" y1="33.89996" x2="48.388142" y2="61.223637" gradientUnits="userSpaceOnUse" gradientTransform="matrix(0.421923,0,0,0.437354,-1.266044,-4.270551)"/>
    <linearGradient xlink:href="#b" id="K" gradientUnits="userSpaceOnUse" x1="59.902058" y1="95.622185" x2="33.750458" y2="78.300934" gradientTransform="matrix(0.42539,0,0,0.416527,-0.5394,-2.924339)"/>
    <linearGradient xlink:href="#c" id="v" x1="21.100939" y1="33.477123" x2="54.294334" y2="75.682442" gradientUnits="userSpaceOnUse" gradientTransform="matrix(0.4487,0,0,0.446559,-1.827632,-5.393746)"/>
    <radialGradient xlink:href="#d" id="u" cx="51.231888" cy="110.19082" fx="51.231888" fy="110.19082" r="48.06039" gradientTransform="matrix(1,0,0,0.228426,5.880713e-16,85.02033)" gradientUnits="userSpaceOnUse"/>
    <linearGradient xlink:href="#e" id="t" x1="59.867424" y1="177.41431" x2="86.77282" y2="84.96209" gradientUnits="userSpaceOnUse" gradientTransform="matrix(0.383382,0,0,0.470667,2.012779,-7.988872)"/>
    <linearGradient xlink:href="#f" id="L" x1="100.05664" y1="65.067497" x2="24.326601" y2="65.067497" gradientUnits="userSpaceOnUse" gradientTransform="matrix(0.446388,0,0,0.441471,-2.379523,-5.064504)"/>
    <linearGradient xlink:href="#g" id="M" x1="38.183765" y1="21.226875" x2="59.657269" y2="101.36707" gradientUnits="userSpaceOnUse" gradientTransform="matrix(0.452495,0,0,0.445896,-2.9217,-5.073736)"/>
    <linearGradient xlink:href="#h" x1="99.25" y1="65.5" x2="43.49057" y2="65.5" gradientUnits="userSpaceOnUse" gradientTransform="matrix(0.4487,0,0,0.446559,-2.725032,-5.393746)"/>
    <linearGradient id="j">
      <stop offset="0.0000000" stop-color="#fff" stop-opacity="1"/>
      <stop offset="1.0000000" stop-color="#fff" stop-opacity="0"/>
    </linearGradient>
    <linearGradient id="i">
      <stop offset="0.0000000" stop-color="#fff" stop-opacity="1"/>
      <stop offset="1.0000000" stop-color="#fff" stop-opacity="0"/>
    </linearGradient>
    <linearGradient id="l">
      <stop offset="0.0000000" stop-color="#aadf00" stop-opacity="1"/>
      <stop offset="1.0000000" stop-color="#4dc721" stop-opacity="1"/>
    </linearGradient>
    <linearGradient id="k">
      <stop offset="0.0000000" stop-color="#fff" stop-opacity="1"/>
      <stop offset="1.0000000" stop-color="#fff" stop-opacity="0"/>
    </linearGradient>
    <linearGradient xlink:href="#i" id="Q" gradientUnits="userSpaceOnUse" gradientTransform="matrix(0.242052,0,0,0.251733,-1.018195,0.167528)" x1="147.57317" y1="108.61332" x2="161.74821" y2="84.142044"/>
    <linearGradient xlink:href="#j" id="P" gradientUnits="userSpaceOnUse" gradientTransform="matrix(0.242052,0,0,0.273368,-13.01817,3.337079e-2)" x1="147.57317" y1="108.61332" x2="161.74821" y2="84.142044"/>
    <linearGradient xlink:href="#k" id="O" gradientUnits="userSpaceOnUse" gradientTransform="matrix(0.330411,0,0,0.16975,-9.899978,1.863624)" x1="130.02267" y1="21.914911" x2="132.50201" y2="46.608990"/>
    <linearGradient xlink:href="#l" id="N" gradientUnits="userSpaceOnUse" gradientTransform="matrix(0.217381,0,0,0.261948,-10.57598,2.021886)" x1="206.98412" y1="15.598222" x2="177.10718" y2="81.863159"/>
    <linearGradient id="s">
      <stop offset="0" stop-color="#fff" stop-opacity="0"/>
      <stop offset="0.83333331" stop-color="#fff" stop-opacity="0"/>
      <stop offset="1" stop-color="#fff" stop-opacity="1"/>
    </linearGradient>
    <linearGradient id="r">
      <stop offset="0" stop-color="#f57900" stop-opacity="1"/>
      <stop offset="1" stop-color="#f57900" stop-opacity="0"/>
    </linearGradient>
    <linearGradient id="n">
      <stop offset="0" stop-color="#fff" stop-opacity="1"/>
      <stop offset="1" stop-color="#fff" stop-opacity="0"/>
    </linearGradient>
    <linearGradient id="q">
      <stop offset="0" stop-color="#fff" stop-opacity="1"/>
      <stop offset="1" stop-color="#fff" stop-opacity="0"/>
    </linearGradient>
    <linearGradient id="m">
      <stop offset="0" stop-color="#fcaf3e" stop-opacity="1"/>
      <stop offset="1" stop-color="#fcaf3e" stop-opacity="0"/>
    </linearGradient>
    <linearGradient id="o">
      <stop offset="0" stop-color="#fed393" stop-opacity="1"/>
      <stop offset="1" stop-color="#fed393" stop-opacity="0"/>
    </linearGradient>
    <linearGradient id="p">
      <stop offset="0" stop-color="#bb5300" stop-opacity="1"/>
      <stop offset="1" stop-color="#ce5c00" stop-opacity="0"/>
    </linearGradient>
    <linearGradient xlink:href="#m" id="x" x1="21.436686" y1="13.453218" x2="21.436686" y2="25.460827" gradientUnits="userSpaceOnUse" gradientTransform="matrix(0.965926,-0.258819,0.258819,0.965926,-5.531581,7.180463)"/>
    <linearGradient xlink:href="#n" x1="19.659914" y1="19.958755" x2="19.659914" y2="23.501108" gradientUnits="userSpaceOnUse" gradientTransform="matrix(0.965926,-0.258819,0.258819,0.965926,-5.531581,7.180463)"/>
    <linearGradient xlink:href="#o" id="w" gradientUnits="userSpaceOnUse" gradientTransform="matrix(0.997609,3.888502e-4,3.888654e-4,0.997258,0.27439,-0.98496)" x1="23.289394" y1="18.364347" x2="23.560387" y2="20.904043"/>
    <linearGradient xlink:href="#p" gradientUnits="userSpaceOnUse" gradientTransform="matrix(0.997609,3.888502e-4,3.888654e-4,0.997258,0.27439,-0.98496)" x1="25.068272" y1="24.253113" x2="25.001196" y2="29.901463"/>
    <linearGradient xlink:href="#m" id="y" gradientUnits="userSpaceOnUse" gradientTransform="matrix(0.866026,-0.5,0.5,0.866026,-9.016237,15.54794)" x1="28.685675" y1="13.20891" x2="24.875528" y2="20.703079"/>
    <linearGradient xlink:href="#n" gradientUnits="userSpaceOnUse" gradientTransform="matrix(0.866026,-0.5,0.5,0.866026,-9.016237,15.54794)" x1="25.592447" y1="16.583702" x2="25.085266" y2="19.677641"/>
    <linearGradient xlink:href="#m" id="z" gradientUnits="userSpaceOnUse" gradientTransform="matrix(0.866026,-0.5,0.5,0.866026,-9.016237,15.54794)" x1="21.436686" y1="13.453218" x2="21.436686" y2="25.460827"/>
    <linearGradient xlink:href="#n" gradientUnits="userSpaceOnUse" gradientTransform="matrix(0.866026,-0.5,0.5,0.866026,-9.016237,15.54794)" x1="19.659914" y1="19.958755" x2="19.659914" y2="23.501108"/>
    <linearGradient xlink:href="#m" id="A" gradientUnits="userSpaceOnUse" gradientTransform="matrix(0.866026,-0.5,0.5,0.866026,-9.016237,15.54794)" x1="32.415615" y1="15.366133" x2="27.183016" y2="22.061451"/>
    <linearGradient xlink:href="#n" gradientUnits="userSpaceOnUse" gradientTransform="matrix(0.866026,-0.5,0.5,0.866026,-9.016237,15.54794)" x1="30.893356" y1="19.400782" x2="28.31155" y2="21.643337"/>
    <linearGradient xlink:href="#m" id="B" gradientUnits="userSpaceOnUse" gradientTransform="matrix(0.866026,-0.5,0.5,0.866026,-9.016237,15.54794)" x1="21.436686" y1="13.453218" x2="21.436686" y2="25.460827"/>
    <linearGradient xlink:href="#n" gradientUnits="userSpaceOnUse" gradientTransform="matrix(0.866026,-0.5,0.5,0.866026,-9.016237,15.54794)" x1="19.659914" y1="19.958755" x2="19.659914" y2="23.501108"/>
    <linearGradient xlink:href="#m" id="C" gradientUnits="userSpaceOnUse" gradientTransform="matrix(0.866026,-0.5,0.5,0.866026,-9.016237,15.54794)" x1="35.611439" y1="19.649118" x2="30.817972" y2="25.035822"/>
    <linearGradient xlink:href="#n" gradientUnits="userSpaceOnUse" gradientTransform="matrix(0.866026,-0.5,0.5,0.866026,-9.016237,15.54794)" x1="32.68705" y1="19.639395" x2="30.000105" y2="23.002033"/>
    <linearGradient xlink:href="#m" id="D" gradientUnits="userSpaceOnUse" gradientTransform="matrix(0.866026,-0.5,0.5,0.866026,-9.016237,15.54794)" x1="21.436686" y1="13.453218" x2="21.143581" y2="22.364006"/>
    <linearGradient xlink:href="#n" gradientUnits="userSpaceOnUse" gradientTransform="matrix(0.866026,-0.5,0.5,0.866026,-9.016237,15.54794)" x1="19.659914" y1="19.958755" x2="19.975048" y2="22.18712"/>
    <linearGradient xlink:href="#m" id="E" gradientUnits="userSpaceOnUse" gradientTransform="matrix(0.866026,-0.5,0.5,0.866026,-9.016237,15.54794)" x1="21.436686" y1="13.453218" x2="21.436686" y2="25.460827"/>
    <linearGradient xlink:href="#n" gradientUnits="userSpaceOnUse" gradientTransform="matrix(0.866026,-0.5,0.5,0.866026,-9.016237,15.54794)" x1="19.659914" y1="19.958755" x2="19.659914" y2="23.501108"/>
    <linearGradient xlink:href="#m" id="F" gradientUnits="userSpaceOnUse" gradientTransform="matrix(0.866026,-0.5,0.5,0.866026,-9.016237,15.54794)" x1="20.261574" y1="15.122634" x2="22.749992" y2="21.351147"/>
    <linearGradient xlink:href="#n" gradientUnits="userSpaceOnUse" gradientTransform="matrix(0.866026,-0.5,0.5,0.866026,-9.016237,15.54794)" x1="19.788017" y1="18.636177" x2="20.919437" y2="20.150311"/>
    <linearGradient xlink:href="#q" id="G" gradientUnits="userSpaceOnUse" x1="18.037781" y1="21.326878" x2="17.778023" y2="31.255089"/>
    <linearGradient xlink:href="#r" id="H" gradientUnits="userSpaceOnUse" x1="24.219482" y1="18.1894" x2="24.157726" y2="20.032583"/>
    <radialGradient xlink:href="#s" id="I" gradientUnits="userSpaceOnUse" gradientTransform="matrix(0.350177,-0.56658,0.535266,0.330821,1.104526,36.3957)" cx="33.555569" cy="21.553221" fx="33.555569" fy="21.553221" r="8.3309488"/>
  </defs>
  <metadata/>
  <path style="marker:none" d="M 36.350491,32.005854 C 26.680472,31.849235 15.54161,34.854351 11.483891,38.71453 C 7.4261716,42.574709 11.976322,45.837546 21.646342,45.994152 C 31.31636,46.150771 42.458967,43.142099 46.516685,39.28192 C 50.574404,35.421742 46.020513,32.162472 36.350491,32.005854 z M 28.413123,38.073103 C 29.662614,38.093333 30.255276,38.511275 29.730966,39.010055 C 29.206657,39.508846 27.766149,39.897472 26.516658,39.877242 C 25.267164,39.857 24.678245,39.435502 25.202555,38.936722 C 25.726864,38.437931 27.163631,38.052862 28.413123,38.073103 z " opacity="1" color="#000" fill="url(#t)" fill-opacity="1" fill-rule="evenodd" stroke="none" stroke-width="1.66170299" stroke-linecap="round" stroke-linejoin="round" marker-start="none" marker-mid="none" marker-end="none" stroke-miterlimit="4" stroke-dasharray="none" stroke-dashoffset="0" stroke-opacity="1" visibility="visible" display="inline" overflow="visible"/>
  <path style="marker:none" d="M 99.292278 110.19082 A 48.06039 10.978262 0 1 1  3.1714973,110.19082 A 48.06039 10.978262 0 1 1  99.292278 110.19082 z" transform="matrix(0.416143,0,0,0.455446,-1.319796,-7.185913)" opacity="1" color="#000" fill="url(#u)" fill-opacity="1" fill-rule="evenodd" stroke="none" stroke-width="3" stroke-linecap="round" stroke-linejoin="round" marker-start="none" marker-mid="none" marker-end="none" stroke-miterlimit="4" stroke-dasharray="none" stroke-dashoffset="0" stroke-opacity=".78400005" visibility="visible" display="inline" overflow="visible"/>
  <path style="marker:none" d="M 20.999989,1.4999996 C 9.682439,1.4999996 0.49999951,11.352451 0.49999951,23.493013 C 0.49999951,35.633571 9.6824401,45.499982 20.999989,45.499982 C 32.317535,45.499982 41.499975,35.633582 41.499975,23.493013 C 41.499976,11.35245 32.317535,1.4999996 20.999989,1.4999996 z M 19.219209,15.817787 C 23.177046,15.817787 26.398412,19.279139 26.398412,23.548833 C 26.398413,27.818531 23.177046,31.279878 19.219209,31.279878 C 15.261373,31.279878 12.054029,27.818531 12.054029,23.548833 C 12.054028,19.27914 15.261374,15.817787 19.219209,15.817787 z " opacity="1" color="#000" fill="url(#v)" fill-opacity="1" fill-rule="evenodd" stroke="url(#linearGradient5724)" stroke-width=".99999952" stroke-linecap="round" stroke-linejoin="round" marker-start="none" marker-mid="none" marker-end="none" stroke-miterlimit="4" stroke-dasharray="none" stroke-dashoffset="0" stroke-opacity="1" visibility="visible" display="inline" overflow="visible"/>
  <g transform="matrix(0.976908,0,0,1.052418,-0.978641,-0.3392) matrix(0.850643,-0.525743,0.525743,0.850643,-11.28786,14.5586)" display="inline">
    <path d="M 45.485011,24.650406 C 45.489502,36.169162 36.087252,45.514052 24.497845,45.509535 C 12.908437,45.505018 3.4988962,36.152795 3.4944046,24.634039 C 3.489913,13.115282 12.892164,3.770392 24.481571,3.7749093 C 36.070978,3.7794267 45.480519,13.131649 45.485011,24.650406 z " style="marker:none" color="#000" fill="url(#w)" fill-opacity="1" fill-rule="nonzero" stroke="url(#linearGradient4369)" stroke-width=".98623258" stroke-linecap="square" stroke-linejoin="miter" marker-start="none" marker-mid="none" marker-end="none" stroke-miterlimit="4" stroke-dasharray="none" stroke-dashoffset="0" stroke-opacity="1" visibility="visible" display="inline" overflow="visible"/>
    <g transform="matrix(0.965926,0.258819,-0.258819,0.965926,7.201537,-5.504116)" fill="url(#x)" fill-opacity="1" stroke="url(#linearGradient2668)" stroke-width=".96691018">
      <path style="marker:none" d="M 13.34375,13.34375 C 14.897134,15.437441 21.190617,20.852925 24.5,24.5 L 24.527344,7.7190722 C 24.527344,6.3878355 22.928837,6.0533433 20.335423,6.0533433 C 17.829889,6.0533433 16.600241,6.6909795 14.358797,8.6972031 C 12.328775,10.514191 12.054759,11.606415 13.34375,13.34375 z " color="#000" fill="url(#y)" fill-opacity="1" fill-rule="nonzero" stroke="url(#linearGradient4373)" stroke-width=".48345509" stroke-linecap="square" stroke-linejoin="miter" marker-start="none" marker-mid="none" marker-end="none" stroke-miterlimit="4" stroke-dasharray="none" stroke-dashoffset="0" stroke-opacity="1" visibility="visible" display="inline" overflow="visible"/>
      <path d="M 36.21175,35.65625 C 34.658366,33.562559 28.364883,28.147075 25.0555,24.5 L 25.028156,41.280928 C 25.028156,42.612164 26.626663,42.946657 29.220077,42.946657 C 31.725611,42.946657 32.955259,42.309021 35.196703,40.302797 C 37.226725,38.485809 37.500741,37.393585 36.21175,35.65625 z " style="marker:none" color="#000" fill="url(#z)" fill-opacity="1" fill-rule="nonzero" stroke="url(#linearGradient4377)" stroke-width=".48345509" stroke-linecap="square" stroke-linejoin="miter" marker-start="none" marker-mid="none" marker-end="none" stroke-miterlimit="4" stroke-dasharray="none" stroke-dashoffset="0" stroke-opacity="1" visibility="visible" display="inline" overflow="visible"/>
      <path style="marker:none" d="M 24.58135,8.5262881 L 24.58135,24.303613 L 35.77629,13.147343 C 36.717617,12.206016 36.012089,10.650914 34.178268,8.8170923 C 32.406587,7.0454117 31.086217,6.626796 28.082662,6.46047 C 25.362414,6.3098322 24.58135,6.9905478 24.58135,8.5262881 z " color="#000" fill="url(#A)" fill-opacity="1" fill-rule="nonzero" stroke="url(#linearGradient4381)" stroke-width=".48345509" stroke-linecap="square" stroke-linejoin="miter" marker-start="none" marker-mid="none" marker-end="none" stroke-miterlimit="4" stroke-dasharray="none" stroke-dashoffset="0" stroke-opacity="1" visibility="visible" display="inline" overflow="visible"/>
      <path d="M 24.974148,40.473736 C 25.356203,37.894864 24.735364,29.615371 24.974148,24.696411 L 13.088901,36.542987 C 12.147575,37.484314 13.041368,38.851152 14.875189,40.684973 C 16.64687,42.456653 17.967239,42.875269 20.970795,43.041595 C 23.691043,43.192233 24.657121,42.613672 24.974148,40.473736 z " style="marker:none" color="#000" fill="url(#B)" fill-opacity="1" fill-rule="nonzero" stroke="url(#linearGradient4385)" stroke-width=".48345527" stroke-linecap="square" stroke-linejoin="miter" marker-start="none" marker-mid="none" marker-end="none" stroke-miterlimit="4" stroke-dasharray="none" stroke-dashoffset="0" stroke-opacity="1" visibility="visible" display="inline" overflow="visible"/>
      <path style="marker:none" d="M 35.93401,13.066004 L 24.77776,24.222254 L 40.582448,24.249598 C 41.913684,24.249598 42.514424,22.651091 42.514424,20.057677 C 42.514424,17.552143 41.876788,16.322495 39.870564,14.081051 C 38.053576,12.051029 37.019942,11.980072 35.93401,13.066004 z " color="#000" fill="url(#C)" fill-opacity="1" fill-rule="nonzero" stroke="url(#linearGradient4389)" stroke-width=".48345509" stroke-linecap="square" stroke-linejoin="miter" marker-start="none" marker-mid="none" marker-end="none" stroke-miterlimit="4" stroke-dasharray="none" stroke-dashoffset="0" stroke-opacity="1" visibility="visible" display="inline" overflow="visible"/>
      <path d="M 13.62151,35.934004 C 15.715201,34.38062 21.130685,28.087137 24.77776,24.777754 L 7.996832,24.75041 C 6.665596,24.75041 6.331103,26.348917 6.331103,28.942331 C 6.331103,31.447865 6.968739,32.677513 8.974963,34.918957 C 10.791951,36.948979 11.884175,37.222995 13.62151,35.934004 z " style="marker:none" color="#000" fill="url(#D)" fill-opacity="1" fill-rule="nonzero" stroke="url(#linearGradient4393)" stroke-width=".48345509" stroke-linecap="square" stroke-linejoin="miter" marker-start="none" marker-mid="none" marker-end="none" stroke-miterlimit="4" stroke-dasharray="none" stroke-dashoffset="0" stroke-opacity="1" visibility="visible" display="inline" overflow="visible"/>
      <path style="marker:none" d="M 40.751472,24.30361 L 24.974147,24.30361 L 36.130417,35.49855 C 37.071744,36.439877 38.626846,35.734349 40.460668,33.900528 C 42.232348,32.128847 42.650964,30.808477 42.81729,27.804922 C 42.967928,25.084674 42.287212,24.30361 40.751472,24.30361 z " color="#000" fill="url(#E)" fill-opacity="1" fill-rule="nonzero" stroke="url(#linearGradient4397)" stroke-width=".48345509" stroke-linecap="square" stroke-linejoin="miter" marker-start="none" marker-mid="none" marker-end="none" stroke-miterlimit="4" stroke-dasharray="none" stroke-dashoffset="0" stroke-opacity="1" visibility="visible" display="inline" overflow="visible"/>
      <path d="M 8.8040241,24.696408 C 11.382896,25.078463 19.662389,24.457624 24.581349,24.696408 L 12.734773,12.811161 C 11.793446,11.869835 10.426608,12.763628 8.5927872,14.597449 C 6.8211066,16.36913 6.4024908,17.689499 6.2361651,20.693055 C 6.0855272,23.413303 6.6640878,24.379381 8.8040241,24.696408 z " style="marker:none" color="#000" fill="url(#F)" fill-opacity="1" fill-rule="nonzero" stroke="url(#linearGradient4401)" stroke-width=".48345527" stroke-linecap="square" stroke-linejoin="miter" marker-start="none" marker-mid="none" marker-end="none" stroke-miterlimit="4" stroke-dasharray="none" stroke-dashoffset="0" stroke-opacity="1" visibility="visible" display="inline" overflow="visible"/>
    </g>
    <path d="M 24.782615,6.0633182 C 21.970362,5.6754195 19.097379,6.5102769 16.901947,8.2046397 C 16.657332,8.7131169 16.325147,10.354052 16.359542,10.363716 C 16.30599,10.367405 15.241199,9.9828914 14.618537,9.6269847 C 10.972225,10.252347 8.2051779,13.497188 7.5829475,17.054339 C 6.7457134,18.353718 8.4380358,20.237011 8.6590975,20.551129 C 6.9457366,21.211628 5.992152,22.868082 5.7386025,24.498967 C 5.005193,27.498186 6.4723856,30.526981 8.360898,32.787766 C 9.114817,33.184205 11.334116,32.616281 9.9177825,33.865612 C 9.6198062,36.494854 11.554867,38.768429 13.50637,40.267363 C 15.304126,41.272793 17.820518,42.599165 19.791102,41.438254 C 20.300255,40.67791 21.165665,40.310357 20.862821,41.612976 C 22.162406,43.523817 24.778956,43.734466 26.887856,43.819257 C 29.201385,43.626807 33.016067,42.130099 33.048289,40.965875 L 33.121704,38.313331 L 34.583344,38.787513 C 38.682376,38.336297 41.594477,34.319526 41.742555,30.373587 C 41.861658,29.068433 39.861471,28.415249 41.68847,27.703853 C 43.634121,25.456989 43.716653,22.119691 42.613639,19.465076 C 42.109573,18.131094 41.58526,16.847192 40.42702,15.917807 C 38.242298,15.985608 39.209032,13.695119 38.129288,12.100397 C 36.996828,9.7778907 34.593634,8.6459837 32.298061,7.8039398 C 31.182521,6.9360527 29.284178,8.1442425 29.045417,8.223029 C 28.872246,6.0112781 26.371319,6.6142457 24.782615,6.0633182 z " style="marker:none" color="#000" fill="none" fill-opacity="1" fill-rule="nonzero" stroke="url(#G)" stroke-width="1.93382037" stroke-linecap="square" stroke-linejoin="miter" marker-start="none" marker-mid="none" marker-end="none" stroke-miterlimit="4" stroke-dasharray="none" stroke-dashoffset="0" stroke-opacity="1" visibility="visible" display="inline" overflow="visible"/>
    <path transform="matrix(0.999539,-3.037338e-2,3.037338e-2,0.999539,-0.735408,0.757723)" style="marker:none" d="M 12.577264,12.496149 C 13.532239,11.373447 21.852046,23.893134 22.988615,22.954707 C 24.128451,22.013583 14.510505,12.817657 15.664001,11.893325 C 16.81419,10.971642 22.036236,23.387632 23.329864,22.681261 C 24.627211,21.972859 17.648557,10.905342 18.956138,10.216015 C 20.259972,9.5286631 22.312765,22.926123 23.716697,22.477337 C 25.124665,22.027262 20.060006,8.6379323 21.474414,8.2085231 C 22.884768,7.7803446 22.671637,22.525288 24.135132,22.350308 C 25.602833,22.174826 23.145678,8.4311989 24.615791,8.2772281 C 26.081692,8.1236985 23.099883,22.199613 24.570046,22.304764 C 26.044434,22.410217 25.782491,8.4740419 27.255177,8.6010744 C 28.723642,8.7277428 23.582024,21.96087 25.005719,22.34235 C 26.433506,22.724928 29.627219,9.938092 31.049251,10.341536 C 32.467207,10.743825 24.100635,21.817687 25.426406,22.46171 C 26.755988,23.107584 32.423589,9.7973387 33.74357,10.462614 C 35.059769,11.125982 24.636971,21.775239 25.816902,22.658527 C 27.000224,23.544354 34.841202,11.808353 36.011425,12.711414 C 37.178295,13.611886 25.171649,21.83506 26.163093,22.92569 C 27.157387,24.019454 36.360005,14.148428 37.338175,15.256636 C 38.313542,16.361667 25.685343,21.994989 26.452467,23.253542 C 27.221797,24.515712 38.026618,17.27584 38.777382,18.54914 C 39.525995,19.818792 26.159486,22.249245 26.674566,23.630233 C 27.191125,25.015191 40.453481,19.429991 40.949704,20.822364 C 41.444504,22.210747 26.576944,22.588639 26.821361,24.04215 C 27.066481,25.499839 41.24621,22.455074 41.469957,23.916197 C 41.693063,25.373131 26.922626,23.000903 26.887548,24.474404 C 26.852368,25.95214 41.033391,25.086911 40.976575,26.563974 C 40.919923,28.036803 27.18404,23.471138 26.870734,24.911373 C 26.556527,26.355746 40.645025,28.18993 40.309701,29.629547 C 39.975337,31.065039 27.351738,23.982349 26.771527,25.337262 C 26.189649,26.69607 39.676428,31.163373 39.074714,32.513515 C 38.474724,33.859786 27.419657,24.516058 26.593513,25.736681 C 25.764994,26.960812 38.162607,33.899775 37.31625,35.111642 C 36.47232,36.320036 27.385345,25.052976 26.343125,26.095192 C 25.29791,27.140403 36.158275,36.300234 35.097866,37.330027 C 34.040496,38.356869 27.250039,25.573698 26.029414,26.399838 C 24.805279,27.228353 33.735874,38.277991 32.499738,39.08849 C 31.267145,39.896667 27.018632,26.059403 25.663717,26.639608 C 24.304907,27.221482 30.982956,39.761565 29.615771,40.323477 C 28.252504,40.88378 26.699486,26.492536 25.259251,26.805837 C 23.814876,27.120039 27.999018,40.697335 26.550197,40.990352 C 25.105529,41.282529 26.304137,26.857444 24.830636,26.892517 C 23.3529,26.927691 24.891909,41.051481 23.413816,41.065012 C 21.93996,41.078504 25.846873,27.140936 24.393363,26.896514 C 22.935674,26.651389 21.773926,40.811203 20.319984,40.544758 C 18.870209,40.279077 25.344221,27.332768 23.963235,26.817684 C 22.578279,26.301119 18.757763,39.985185 17.38052,39.448395 C 16.007224,38.913143 24.814348,27.426006 23.555798,26.658876 C 22.293631,25.889542 15.95243,38.603282 14.701664,37.815547 C 13.454483,37.03007 24.276405,27.417279 23.185779,26.425831 C 22.092019,25.431533 13.45932,36.715439 12.380237,35.70523 C 11.304247,34.697917 23.749836,27.306904 22.866551,26.12697 C 21.980728,24.943645 11.368541,34.389887 10.500141,33.193716 C 9.6342307,32.000974 23.25367,27.09887 22.609652,25.773096 C 21.963783,24.443512 9.7556582,31.710678 9.1293285,30.371779 C 8.5047939,29.036716 22.805842,26.800695 22.424366,25.376999 C 22.041794,23.94921 8.678966,28.774646 8.3173434,27.341409 C 7.9567571,25.912279 22.422536,26.423156 22.317391,24.952993 C 22.211943,23.478605 8.5961009,26.176511 8.5122553,24.700736 C 8.42865,23.229191 22.117607,25.979899 22.292592,24.516405 C 22.46808,23.048705 9.203933,23.39175 9.4008948,21.926777 C 9.5972921,20.466002 21.902075,25.486944 22.350866,24.083014 C 22.800947,22.675047 9.8579191,19.579854 10.32857,18.17863 C 10.797871,16.781422 21.783731,24.962108 22.490107,23.668482 C 23.198514,22.371138 9.8037348,16.275932 10.531063,14.989101 C 11.256307,13.705958 21.766851,24.42436 22.705282,23.287794 C 23.646411,22.147961 11.619545,13.622078 12.577264,12.496149 z " opacity=".7" color="#000" fill="url(#H)" fill-opacity="1" fill-rule="nonzero" stroke="none" stroke-width=".5" stroke-linecap="square" stroke-linejoin="miter" marker-start="none" marker-mid="none" marker-end="none" stroke-miterlimit="4" stroke-dashoffset="0" stroke-opacity="1" visibility="visible" display="inline" overflow="visible"/>
    <path style="marker:none" d="M 24.157201,21.636534 L 26.972524,15.433966 L 26.26055,22.313586 L 32.388741,19.934901 L 27.269094,24.279626 L 21.514109,24.748427 L 15.372459,22.191176 L 22.191161,22.645079 L 19.465425,16.008496 L 24.157201,21.636534 z " color="#000" fill="url(#I)" fill-opacity="1" fill-rule="nonzero" stroke="none" stroke-width=".5" stroke-linecap="square" stroke-linejoin="miter" marker-start="none" marker-mid="none" marker-end="none" stroke-miterlimit="4" stroke-dashoffset="0" stroke-opacity="1" visibility="visible" display="inline" overflow="visible"/>
  </g>
  <path d="M 20.331174,3.0004399 C 19.511013,2.993733 18.661207,3.0637798 17.799631,3.2054489 C 18.045429,9.3424698 18.2922,15.478257 18.537998,21.615277 C 19.03184,21.626061 19.470567,21.83915 19.830139,22.161967 C 23.886295,17.373858 27.943846,12.585766 32,7.797656 C 30.65243,6.3619791 26.072296,3.0473853 20.331174,3.0004399 z M 16.903043,25.619791 C 13.370921,29.789304 9.8343331,33.955836 6.3022107,38.125348 C 10.487688,42.761235 14.671067,44.845401 19.474141,45 C 19.225603,38.79456 18.971127,32.590588 18.722589,26.38516 C 18.645085,26.394601 18.578176,26.439824 18.498443,26.439824 C 17.855971,26.439824 17.299083,26.119211 16.903043,25.619791 z " fill="url(#J)" fill-opacity="1" fill-rule="evenodd" stroke="none" stroke-width=".25pt" stroke-linecap="butt" stroke-linejoin="miter" stroke-opacity="1"/>
  <path d="M 21.235288,4.0004189 C 20.408388,3.9940327 19.551599,4.0607423 18.682944,4.1956662 C 18.930762,10.040448 19.179561,15.884055 19.427378,21.728836 C 19.925278,21.739107 20.367611,21.942049 20.730138,22.249494 C 24.819623,17.689388 28.910517,13.129302 33,8.5691957 C 31.641358,7.2018855 27.023588,4.0451286 21.235288,4.0004189 z M 17.778988,25.542653 C 14.217842,29.513621 10.652194,33.481757 7.091046,37.452714 C 11.310916,41.867847 15.52867,43.852757 20.371213,44 C 20.120633,38.090065 19.864066,32.18152 19.613486,26.271585 C 19.535345,26.280578 19.467886,26.323645 19.387498,26.323645 C 18.739746,26.323645 18.178283,26.018302 17.778988,25.542653 z " fill="url(#K)" fill-opacity="1" fill-rule="evenodd" stroke="none" stroke-width=".25pt" stroke-linecap="butt" stroke-linejoin="miter" stroke-opacity="1"/>
  <path style="marker:none" d="M 19.213352,16.123049 C 15.419454,16.123049 12.344059,19.423355 12.344059,23.494708 C 12.344059,27.566065 15.419454,30.877886 19.213352,30.877886 C 23.007249,30.877886 26.093376,27.566065 26.093378,23.494708 C 26.093378,19.423355 23.007249,16.123049 19.213352,16.123049 z M 19.213352,20.31568 C 20.848646,20.31568 22.175735,21.739822 22.175735,23.494708 C 22.175735,25.249596 20.848646,26.673742 19.213352,26.673742 C 17.578058,26.673742 16.250969,25.249596 16.250969,23.494708 C 16.250968,21.739823 17.578059,20.31568 19.213352,20.31568 z " opacity="1" color="#000" fill="#f2f2f2" fill-opacity=".41199999" fill-rule="evenodd" stroke="#e3e3e3" stroke-width=".53548694" stroke-linecap="round" stroke-linejoin="round" marker-start="none" marker-mid="none" marker-end="none" stroke-miterlimit="4" stroke-dasharray="none" stroke-dashoffset="0" stroke-opacity=".64800002" visibility="visible" display="inline" overflow="visible"/>
  <path style="marker:none" d="M 20.999996,3.0000007 C 10.510557,3.0000007 1.9999997,12.180699 1.9999997,23.493504 C 1.9999997,34.806304 10.510558,44.000011 20.999996,44.000011 C 31.489434,44.000011 39.999994,34.806304 39.999994,23.493504 C 39.999995,12.180699 31.489436,3.0000007 20.999996,3.0000007 z " opacity="1" color="#000" fill="none" fill-opacity="1" fill-rule="evenodd" stroke="url(#L)" stroke-width="2" stroke-linecap="round" stroke-linejoin="round" marker-start="none" marker-mid="none" marker-end="none" stroke-miterlimit="4" stroke-dasharray="none" stroke-dashoffset="0" stroke-opacity="1" visibility="visible" display="inline" overflow="visible"/>
  <path style="marker:none" d="M 19.999996,3.5000003 C 9.7865948,3.5000003 1.4999999,12.680697 1.4999999,23.993499 C 1.4999999,35.306294 9.7865948,44.500002 19.999996,44.500002 C 30.213396,44.500002 38.499994,35.306294 38.499994,23.993499 C 38.499995,12.680697 30.213396,3.5000003 19.999996,3.5000003 z " opacity="1" color="#000" fill="none" fill-opacity="1" fill-rule="evenodd" stroke="url(#M)" stroke-width="1.00000012" stroke-linecap="round" stroke-linejoin="round" marker-start="none" marker-mid="none" marker-end="none" stroke-miterlimit="4" stroke-dasharray="none" stroke-dashoffset="0" stroke-opacity="1" visibility="visible" display="inline" overflow="visible"/>
  <path d="M 40.500032,4.5000012 L 26.515035,7.3498335 L 26.515035,12.275087 L 26.515035,20.836157 C 26.076385,20.618403 25.468175,20.487673 24.953901,20.487673 C 23.048015,20.487673 21.500006,21.06322 21.500006,23.775089 C 21.500006,25.830528 23.048015,27.500005 24.953901,27.500005 C 26.859791,27.500005 28.485925,25.830528 28.485925,23.775089 C 28.485925,23.700893 28.468356,23.631381 28.464385,23.558253 L 28.500284,23.558253 L 28.500284,11.864649 L 38.512098,9.8356922 L 38.512098,18.842964 C 38.073577,18.625365 37.54585,18.502223 37.031774,18.502223 C 35.125883,18.502223 33.585055,18.973675 33.585055,21.781896 C 33.585055,23.837335 35.125883,25.506813 37.031774,25.506812 C 38.937659,25.506812 40.485668,23.837336 40.485668,21.781896 C 40.485668,21.706936 40.468184,21.63893 40.464128,21.565061 L 40.500032,21.565061 L 40.500032,9.4252545 L 40.500032,5.1427623 L 40.500032,4.5000012 z " fill="url(#N)" fill-opacity="1" stroke="#3cb30c" stroke-width="1.00000048" stroke-linejoin="round" stroke-miterlimit="4" stroke-dasharray="none" stroke-dashoffset="0" stroke-opacity="1"/>
  <path d="M 27,11.79179 L 27.100002,7.7386248 L 40,5 L 39.899999,8.9436196 L 27,11.79179 z " fill="url(#O)" fill-opacity="1" fill-rule="evenodd" stroke="none" stroke-width=".25pt" stroke-linecap="butt" stroke-linejoin="miter" stroke-opacity="1"/>
  <path d="M 28,23.564473 C 28,25.264704 27.323638,27 25.163634,27 C 23.658181,27 22,25.264704 22,23.564473 C 22,21.864243 23.439999,20.484346 24.945454,20.484346 C 26.450912,20.484346 28,21.864243 28,23.564473 z " fill="url(#P)" fill-opacity="1" stroke="none" stroke-width="3.59371519" stroke-linejoin="round" stroke-miterlimit="4" stroke-dashoffset="0" stroke-opacity="1"/>
  <path d="M 40,21.836364 C 40,23.402038 39.323639,25 37.163635,25 C 35.658181,25 34,23.402038 34,21.836364 C 34,20.270691 35.44,19 36.945454,19 C 38.450912,19 40,20.270691 40,21.836364 z " fill="url(#Q)" fill-opacity="1" stroke="none" stroke-width="3.59371519" stroke-linejoin="round" stroke-miterlimit="4" stroke-dashoffset="0" stroke-opacity="1"/>
</svg>
