<?xml version="1.0" encoding="UTF-8" standalone="no"?>
<!-- Generator: Adobe Illustrator 16.0.0, SVG Export Plug-In . SVG Version: 6.00 Build 0)  -->

<svg
   version="1.1"
   viewBox="0 0 1400 980"
   inkscape:version="1.1.2 (0a00cf5339, 2022-02-04)"
   xmlns:inkscape="http://www.inkscape.org/namespaces/inkscape"
   xmlns:sodipodi="http://sodipodi.sourceforge.net/DTD/sodipodi-0.dtd"
   xmlns="http://www.w3.org/2000/svg">
   <sodipodi:namedview
     id="namedview376"
     pagecolor="#505050"
     bordercolor="#ffffff"
     borderopacity="1"
     inkscape:pageshadow="0"
     inkscape:pageopacity="0"
     inkscape:pagecheckerboard="1"
     showgrid="false"
     inkscape:zoom="0.76020408"
     inkscape:cx="700.4698"
     inkscape:cy="490"
     inkscape:window-width="3440"
     inkscape:window-height="1369"
     inkscape:window-x="0"
     inkscape:window-y="34"
     inkscape:window-maximized="1"
     inkscape:current-layer="g371" /><g
     id="g373"><linearGradient
       id="SVGID_1_"
       gradientUnits="userSpaceOnUse"
       x1="766.7236"
       y1="523.3818"
       x2="443.653"
       y2="361.7512">
		<stop
   offset="0.1628"
   style="stop-color:#37223F"
   id="stop2" />
		<stop
   offset="0.2336"
   style="stop-color:#382742"
   id="stop4" />
		<stop
   offset="0.34"
   style="stop-color:#3B334B"
   id="stop6" />
		<stop
   offset="0.469"
   style="stop-color:#3F475B"
   id="stop8" />
		<stop
   offset="0.6155"
   style="stop-color:#446275"
   id="stop10" />
		<stop
   offset="0.7745"
   style="stop-color:#458A9D"
   id="stop12" />
		<stop
   offset="0.9333"
   style="stop-color:#33C1D7"
   id="stop14" />
	</linearGradient><rect
       fill="url(#SVGID_1_)"
       width="1400"
       height="980"
       id="rect17" /><g
       id="g371"><path
   fill="#37223F"
   d="M0,979.973h322.228l291.667-291.667c24.065-24.064,16.476-43.684,12.157-57.805    c-9.178-30.02-21.832-75.916-31.756-111.145c-9.723-34.518,6.538-50.201,17.864-61.526    c29.997-29.996,273.298-273.298,457.857-457.857H0V979.973z"
   id="path19" /><path
   fill="#FFFBCA"
   d="M0-0.027l0.359,893.422l529.658-529.658c11.327-11.327,27.588-27.009,17.865-61.527    c-9.925-35.229-22.577-81.124-31.755-111.144c-4.319-14.122-11.909-33.74,12.155-57.805    c7.563-7.563,61.934-61.934,133.233-133.233L0-0.027z"
   id="path21" /><path
   fill="#33C1D7"
   d="M661.515,0.027c-71.299,71.299-125.67,125.67-133.233,133.233c-24.064,24.064-16.474,43.683-12.155,57.805    c9.178,30.02,21.83,75.914,31.755,111.144c9.723,34.519-6.538,50.2-17.865,61.527L0.359,893.395v86.633h232.547l291.722-291.722    c24.064-24.064,16.476-43.684,12.157-57.805c-9.178-30.02-21.832-75.916-31.756-111.145c-9.723-34.518,6.538-50.201,17.864-61.526    C554.753,425.971,793.54,187.184,980.696,0.027H661.515z"
   id="path23" /><path
   fill="#FFFBCA"
   d="M630.259,172.603c-5.049-19.44-2.565-26.993,7.459-37.018L773.275,0.027h-111.76L528.282,133.261    c-24.064,24.064-16.474,43.683-12.155,57.805c9.178,30.02,21.83,75.914,31.755,111.144c9.723,34.519-6.538,50.2-17.865,61.527    L0.359,893.395v86.633h216.66l270.214-270.214c26.183-26.183,17.924-47.526,13.226-62.893    c-9.987-32.66-23.754-82.594-34.549-120.924c-10.581-37.557,7.111-54.617,19.435-66.941l95.72-95.72    c-0.001-0.001-0.001-0.001-0.001-0.001l59.735-59.735c8.593-8.593,20.928-20.491,13.552-46.679    C646.82,230.196,637.222,195.374,630.259,172.603z"
   id="path25" /><g
   id="g61">

				<linearGradient
   id="SVGID_2_"
   gradientUnits="userSpaceOnUse"
   x1="1732.9766"
   y1="1614.7754"
   x2="1732.9764"
   y2="3922.2048"
   gradientTransform="matrix(-0.5068 -0.5068 0.5068 -0.5068 667.976 2444.0918)">
				<stop
   offset="0.0848"
   style="stop-color:#37223F"
   id="stop27" />
				<stop
   offset="0.163"
   style="stop-color:#392843"
   id="stop29" />
				<stop
   offset="0.2968"
   style="stop-color:#3C394F"
   id="stop31" />
				<stop
   offset="0.4699"
   style="stop-color:#425266"
   id="stop33" />
				<stop
   offset="0.6756"
   style="stop-color:#45798B"
   id="stop35" />
				<stop
   offset="0.9066"
   style="stop-color:#3BB2C8"
   id="stop37" />
				<stop
   offset="0.9455"
   style="stop-color:#33C1D7"
   id="stop39" />
			</linearGradient>
			<path
   fill="url(#SVGID_2_)"
   d="M1399.415,12.755l-359.167,359.167c-5.936,5.94-12.664,12.675-28.396,8.244     c-4.168-1.175-8.602-2.418-13.16-3.695c-16.809-4.706-35.855-10.044-49.086-14.089l-1.066-0.329     c-8.197-2.55-21.924-6.813-37.388,8.65L739.678,542.177c1.241,4.421,2.492,8.865,3.738,13.286l176.248-176.247     c10.324-10.324,17.938-7.957,25.305-5.67l1.117,0.349c13.367,4.085,32.488,9.44,49.355,14.168     c4.557,1.275,8.984,2.517,13.148,3.69c22.521,6.342,33.572-4.716,40.174-11.322l350.651-350.652V12.755z"
   id="path42" />

				<linearGradient
   id="SVGID_3_"
   gradientUnits="userSpaceOnUse"
   x1="1919.8662"
   y1="2703.8584"
   x2="1614.0765"
   y2="2703.8584"
   gradientTransform="matrix(-0.5068 -0.5068 0.5068 -0.5068 667.976 2444.0918)">
				<stop
   offset="0.1879"
   style="stop-color:#37223F"
   id="stop44" />
				<stop
   offset="0.2567"
   style="stop-color:#392843"
   id="stop46" />
				<stop
   offset="0.3744"
   style="stop-color:#3C394F"
   id="stop48" />
				<stop
   offset="0.5268"
   style="stop-color:#425266"
   id="stop50" />
				<stop
   offset="0.7079"
   style="stop-color:#45798B"
   id="stop52" />
				<stop
   offset="0.9113"
   style="stop-color:#3BB2C8"
   id="stop54" />
				<stop
   offset="0.9455"
   style="stop-color:#33C1D7"
   id="stop56" />
			</linearGradient>
			<path
   fill="url(#SVGID_3_)"
   d="M1202.748,0.027C1032.052,170.723,923.425,279.35,887.555,315.221     c29.088,8.153,60.278,16.952,82.74,23.821l2.063,0.636c14.394,4.476,34.11,10.603,57.917-13.204L1356.722,0.027H1202.748z"
   id="path59" />
		</g><path
   fill="#F47920"
   d="M1141.944,0.027C954.788,187.184,716.001,425.971,684.142,457.83    c-11.326,11.325-27.586,27.009-17.864,61.526c9.924,35.229,22.578,81.125,31.756,111.145c4.319,14.121,11.908,33.74-12.157,57.805    L394.154,980.027h27.771c152.808-152.809,310.665-310.665,325.445-325.446c20.642-20.641,14.131-37.469,10.428-49.582    c-7.875-25.748-18.727-65.115-27.239-95.332c-8.337-29.609,5.608-43.06,15.321-52.773    c28.429-28.428,274.555-274.554,456.868-456.866H1141.944z"
   id="path63" /><linearGradient
   id="SVGID_4_"
   gradientUnits="userSpaceOnUse"
   x1="2243.543"
   y1="2154.3564"
   x2="1680.8527"
   y2="2154.3564"
   gradientTransform="matrix(-0.5068 -0.5068 0.5068 -0.5068 667.976 2444.0918)">
			<stop
   offset="0.097"
   style="stop-color:#37223F"
   id="stop65" />
			<stop
   offset="0.1451"
   style="stop-color:#3C354D"
   id="stop67" />
			<stop
   offset="0.2256"
   style="stop-color:#415164"
   id="stop69" />
			<stop
   offset="0.311"
   style="stop-color:#456A7C"
   id="stop71" />
			<stop
   offset="0.4"
   style="stop-color:#458294"
   id="stop73" />
			<stop
   offset="0.4935"
   style="stop-color:#4396AA"
   id="stop75" />
			<stop
   offset="0.5931"
   style="stop-color:#3FA7BB"
   id="stop77" />
			<stop
   offset="0.7016"
   style="stop-color:#3AB4C9"
   id="stop79" />
			<stop
   offset="0.8257"
   style="stop-color:#36BDD3"
   id="stop81" />
			<stop
   offset="1"
   style="stop-color:#33C1D7"
   id="stop83" />
		</linearGradient><path
   fill="url(#SVGID_4_)"
   d="M962.687,0.027c-190.146,190.146-428.273,428.273-458.219,458.22    c-12.704,12.703-30.943,30.295-20.034,69.012c11.128,39.516,25.321,90.994,35.616,124.665c3.078,10.06,7.62,22.608,3.622,37.339    l0.958-0.957c24.064-24.064,16.476-43.684,12.157-57.805c-9.178-30.02-21.832-75.916-31.756-111.145    c-9.723-34.518,6.538-50.201,17.864-61.526C554.753,425.971,793.54,187.184,980.696,0.027H962.687z"
   id="path86" /><path
   fill="#FFFBCA"
   d="M1177.165,0.027C992.359,184.833,750.504,426.688,723.053,454.14c-11.21,11.21-27.305,26.732-17.68,60.902    c9.822,34.873,22.347,80.309,31.434,110.024c3.133,10.239,7.986,23.407,0.998,39.083c0,0,6.129-6.13,9.566-9.568    c20.642-20.641,14.131-37.469,10.428-49.582c-7.875-25.748-18.727-65.115-27.239-95.332c-8.337-29.609,5.608-43.06,15.321-52.773    c28.429-28.428,274.555-274.554,456.868-456.866H1177.165z"
   id="path88" /><path
   fill="#33C1D7"
   d="M1400,433.622c-0.063-0.046-0.128-0.091-0.202-0.122c-0.373-0.155-0.804-0.07-1.09,0.217l-121.009,121.009    c-9.542,9.527-21.417,21.385-43.159,21.385c-6.388,0-13.368-1.054-20.748-3.133c-6.073-1.709-12.436-3.493-18.975-5.326    l-6.3-1.766c-32.474-9.096-69.28-19.405-95.001-27.27l-2.101-0.651c-6.766-2.103-14.436-4.485-23.216-4.485    c-13.893,0-26.812,6.166-39.495,18.851L601.714,979.32c-0.178,0.178-0.268,0.412-0.281,0.652h5.937l424.489-424.488    c11.766-11.767,23.7-17.486,36.485-17.486c8.146,0,15.371,2.246,21.748,4.229l2.116,0.654    c25.49,7.794,62.043,18.038,94.293,27.076l0.813,0.228c8.755,2.451,17.264,4.836,25.264,7.09c7.855,2.212,15.3,3.334,22.128,3.334    c0.001,0-0.001,0,0.001,0c23.39,0,36.546-13.139,46.193-22.775l119.1-119.1V433.622z"
   id="path90" /><linearGradient
   id="SVGID_5_"
   gradientUnits="userSpaceOnUse"
   x1="827.6289"
   y1="633.5225"
   x2="1306.1053"
   y2="1084.9996">
			<stop
   offset="0.0667"
   style="stop-color:#37223F"
   id="stop92" />
			<stop
   offset="0.1462"
   style="stop-color:#382742"
   id="stop94" />
			<stop
   offset="0.266"
   style="stop-color:#3B334B"
   id="stop96" />
			<stop
   offset="0.411"
   style="stop-color:#3F475B"
   id="stop98" />
			<stop
   offset="0.5758"
   style="stop-color:#446275"
   id="stop100" />
			<stop
   offset="0.7547"
   style="stop-color:#458A9D"
   id="stop102" />
			<stop
   offset="0.9333"
   style="stop-color:#33C1D7"
   id="stop104" />
		</linearGradient><path
   fill="url(#SVGID_5_)"
   d="M1400,979.973V652.653c-96.485-27.263-279.497-79.032-297.905-84.66l-2.063-0.637    c-14.393-4.476-34.109-10.604-57.916,13.204L642.703,979.973H1400z"
   id="path107" /><radialGradient
   id="SVGID_6_"
   cx="2269.6787"
   cy="1867.8643"
   r="144.9483"
   gradientTransform="matrix(-0.6388 -0.325 0.5568 -1.0945 874.1142 3129.1948)"
   gradientUnits="userSpaceOnUse">
			<stop
   offset="0"
   style="stop-color:#33C1D7"
   id="stop109" />
			<stop
   offset="0.1523"
   style="stop-color:#37BCD2"
   id="stop111" />
			<stop
   offset="0.2856"
   style="stop-color:#3BB2C7"
   id="stop113" />
			<stop
   offset="0.4118"
   style="stop-color:#40A4B8"
   id="stop115" />
			<stop
   offset="0.5336"
   style="stop-color:#4491A4"
   id="stop117" />
			<stop
   offset="0.6524"
   style="stop-color:#457A8C"
   id="stop119" />
			<stop
   offset="0.7688"
   style="stop-color:#446072"
   id="stop121" />
			<stop
   offset="0.8833"
   style="stop-color:#3F4459"
   id="stop123" />
			<stop
   offset="0.9936"
   style="stop-color:#382440"
   id="stop125" />
			<stop
   offset="1"
   style="stop-color:#37223F"
   id="stop127" />
		</radialGradient><path
   fill="url(#SVGID_6_)"
   d="M387.419,398.167c2.682,9.521,5.519,19.645,8.437,30.061c4.939,17.637,10.179,36.343,15.306,54.365    l118.856-118.856c11.327-11.327,27.588-27.009,17.865-61.527c-8.095-28.737-18.007-64.571-26.369-93.099L409.405,321.22    C395.065,335.601,375.333,355.269,387.419,398.167z"
   id="path130" /><linearGradient
   id="SVGID_7_"
   gradientUnits="userSpaceOnUse"
   x1="678.9326"
   y1="244.4478"
   x2="557.5996"
   y2="313.7808">
			<stop
   offset="0.0071"
   style="stop-color:#37223F"
   id="stop132" />
			<stop
   offset="0.0577"
   style="stop-color:#563040"
   id="stop134" />
			<stop
   offset="0.1127"
   style="stop-color:#743E40"
   id="stop136" />
			<stop
   offset="0.1736"
   style="stop-color:#914C3C"
   id="stop138" />
			<stop
   offset="0.2398"
   style="stop-color:#AC5837"
   id="stop140" />
			<stop
   offset="0.3131"
   style="stop-color:#C46331"
   id="stop142" />
			<stop
   offset="0.3965"
   style="stop-color:#D76C2B"
   id="stop144" />
			<stop
   offset="0.496"
   style="stop-color:#E57325"
   id="stop146" />
			<stop
   offset="0.6275"
   style="stop-color:#F07722"
   id="stop148" />
			<stop
   offset="0.9183"
   style="stop-color:#F47920"
   id="stop150" />
		</linearGradient>
		<path
   fill="url(#SVGID_7_)"
   d="M565.207,314.937c1.83,6.49,3.765,13.396,5.756,20.498c2.697,9.629,5.523,19.717,8.336,29.668    l1.766-1.767c-0.001-0.001-0.001-0.001-0.001-0.001l59.735-59.735c8.593-8.593,20.928-20.491,13.552-46.679    c-4.607-16.354-9.99-35.732-15.068-53.535l-59.081,59.082C570.422,272.272,556.967,285.684,565.207,314.937z"
   id="path153" />
		<path
   fill="#37223F"
   d="M661.515,0.027c-71.299,71.299-125.67,125.67-133.233,133.233c-24.064,24.064-16.474,43.683-12.155,57.805    c1.408,4.61,2.901,9.594,4.451,14.855L726.471,0.027H661.515z"
   id="path155" />
		<path
   fill="#37223F"
   d="M426.13,544.074l-0.772-2.5c-4.917-16.079-10.652-35.862-16.56-56.619L0.359,893.395v86.633h44.012    l365.755-365.755C438.981,585.417,431.554,561.522,426.13,544.074z"
   id="path157" />

			<linearGradient
   id="SVGID_8_"
   gradientUnits="userSpaceOnUse"
   x1="2211.6357"
   y1="1202.502"
   x2="2060.1384"
   y2="1202.502"
   gradientTransform="matrix(-0.5068 -0.5068 0.5068 -0.5068 667.976 2444.0918)">
			<stop
   offset="0.1273"
   style="stop-color:#37223F"
   id="stop159" />
			<stop
   offset="0.1824"
   style="stop-color:#3D3A50"
   id="stop161" />
			<stop
   offset="0.2548"
   style="stop-color:#425467"
   id="stop163" />
			<stop
   offset="0.3322"
   style="stop-color:#456D7F"
   id="stop165" />
			<stop
   offset="0.4134"
   style="stop-color:#458497"
   id="stop167" />
			<stop
   offset="0.4996"
   style="stop-color:#4398AB"
   id="stop169" />
			<stop
   offset="0.5926"
   style="stop-color:#3FA8BC"
   id="stop171" />
			<stop
   offset="0.6957"
   style="stop-color:#3AB4CA"
   id="stop173" />
			<stop
   offset="0.8167"
   style="stop-color:#36BDD3"
   id="stop175" />
			<stop
   offset="1"
   style="stop-color:#33C1D7"
   id="stop177" />
		</linearGradient>
		<path
   fill="url(#SVGID_8_)"
   d="M379.316,536.414l-0.773-2.501c-1.38-4.518-2.83-9.334-4.325-14.377    C323.685,570.069,145.318,748.436,0.359,893.395v76.168l362.951-362.95C392.167,577.757,384.738,553.862,379.316,536.414z"
   id="path180" />
		<linearGradient
   id="SVGID_9_"
   gradientUnits="userSpaceOnUse"
   x1="273.0005"
   y1="136.3525"
   x2="220.9383"
   y2="300.835">
			<stop
   offset="0.0071"
   style="stop-color:#37223F"
   id="stop182" />
			<stop
   offset="0.0577"
   style="stop-color:#563040"
   id="stop184" />
			<stop
   offset="0.1127"
   style="stop-color:#743E40"
   id="stop186" />
			<stop
   offset="0.1736"
   style="stop-color:#914C3C"
   id="stop188" />
			<stop
   offset="0.2398"
   style="stop-color:#AC5837"
   id="stop190" />
			<stop
   offset="0.3131"
   style="stop-color:#C46331"
   id="stop192" />
			<stop
   offset="0.3965"
   style="stop-color:#D76C2B"
   id="stop194" />
			<stop
   offset="0.496"
   style="stop-color:#E57325"
   id="stop196" />
			<stop
   offset="0.6275"
   style="stop-color:#F07722"
   id="stop198" />
			<stop
   offset="0.9183"
   style="stop-color:#F47920"
   id="stop200" />
		</linearGradient>
		<path
   fill="url(#SVGID_9_)"
   d="M183.91,400.996l2.063,0.638c14.397,4.477,34.117,10.607,57.932-13.208L632.303,0.027H0v348.036    C62.096,365.866,174.944,398.254,183.91,400.996z"
   id="path203" />
		<path
   fill="#37223F"
   d="M0-0.027v93.474c148.428,42.68,354.169,101.886,360.326,103.769c0,0,33.828,13.812,59.995-12.57    L604.994-0.027H0z"
   id="path205" />
		<path
   fill="#37223F"
   d="M206.402,381.205l-2.063-0.638C194.262,377.487,53.004,336.969,0,321.781v26.282    c62.096,17.803,174.944,50.19,183.91,52.933l2.063,0.638c14.397,4.477,34.117,10.607,57.932-13.208l20.429-20.429    C240.519,391.812,220.798,385.682,206.402,381.205z"
   id="path207" />
		<linearGradient
   id="SVGID_10_"
   gradientUnits="userSpaceOnUse"
   x1="167.4404"
   y1="495.4053"
   x2="340.4406"
   y2="405.4051">
			<stop
   offset="0.4519"
   style="stop-color:#FFFBCA"
   id="stop209" />
			<stop
   offset="0.5698"
   style="stop-color:#FFF8C7"
   id="stop211" />
			<stop
   offset="0.631"
   style="stop-color:#FFF1BE"
   id="stop213" />
			<stop
   offset="0.6791"
   style="stop-color:#FFE7B0"
   id="stop215" />
			<stop
   offset="0.7205"
   style="stop-color:#FFDA9D"
   id="stop217" />
			<stop
   offset="0.7575"
   style="stop-color:#FEC987"
   id="stop219" />
			<stop
   offset="0.7914"
   style="stop-color:#FBB46C"
   id="stop221" />
			<stop
   offset="0.8229"
   style="stop-color:#F89C4C"
   id="stop223" />
			<stop
   offset="0.8518"
   style="stop-color:#F5822A"
   id="stop225" />
			<stop
   offset="0.8606"
   style="stop-color:#F47920"
   id="stop227" />
		</linearGradient>
		<path
   fill="url(#SVGID_10_)"
   d="M302.823,459c-8.329-27.24-19.018-65.27-28.912-100.58l-30.006,30.006    c-23.815,23.815-43.535,17.685-57.932,13.208l-2.063-0.638C171.972,397.345,15.242,352.419,0,348.063l0.359,468.712    l287.735-287.734C317.252,499.884,308.057,476.11,302.823,459z"
   id="path230" />
		<path
   fill="#37223F"
   d="M301.894,455.948c-50.919,50.917-101.836,101.836-152.768,152.742    c-49.59,49.564-99.193,99.117-148.812,148.653l0.045,59.433l287.735-287.734c29.158-29.157,19.962-52.931,14.729-70.041    C302.517,457.999,302.206,456.978,301.894,455.948z"
   id="path232" />

			<linearGradient
   id="SVGID_11_"
   gradientUnits="userSpaceOnUse"
   x1="2240.627"
   y1="1418.4111"
   x2="2361.1135"
   y2="1418.4111"
   gradientTransform="matrix(-0.5068 -0.5068 0.5068 -0.5068 667.976 2444.0918)">
			<stop
   offset="0.0071"
   style="stop-color:#37223F"
   id="stop234" />
			<stop
   offset="0.0577"
   style="stop-color:#563040"
   id="stop236" />
			<stop
   offset="0.1127"
   style="stop-color:#743E40"
   id="stop238" />
			<stop
   offset="0.1736"
   style="stop-color:#914C3C"
   id="stop240" />
			<stop
   offset="0.2398"
   style="stop-color:#AC5837"
   id="stop242" />
			<stop
   offset="0.3131"
   style="stop-color:#C46331"
   id="stop244" />
			<stop
   offset="0.3965"
   style="stop-color:#D76C2B"
   id="stop246" />
			<stop
   offset="0.496"
   style="stop-color:#E57325"
   id="stop248" />
			<stop
   offset="0.6275"
   style="stop-color:#F07722"
   id="stop250" />
			<stop
   offset="0.9183"
   style="stop-color:#F47920"
   id="stop252" />
		</linearGradient>
		<path
   fill="url(#SVGID_11_)"
   d="M126.719,634.814c3.747,13.306,7.993,28.552,12.191,43.411l149.184-149.185    c29.158-29.157,19.962-52.931,14.729-70.041c-2.455-8.026-5.119-17.009-7.9-26.565L140.699,586.659    C131.835,595.522,119.105,607.799,126.719,634.814z"
   id="path255" />
		<linearGradient
   id="SVGID_12_"
   gradientUnits="userSpaceOnUse"
   x1="485.0654"
   y1="211.3223"
   x2="381.0633"
   y2="107.3201">
			<stop
   offset="0.1753"
   style="stop-color:#37223F"
   id="stop257" />
			<stop
   offset="0.1933"
   style="stop-color:#3B334B"
   id="stop259" />
			<stop
   offset="0.2252"
   style="stop-color:#404C60"
   id="stop261" />
			<stop
   offset="0.2607"
   style="stop-color:#446376"
   id="stop263" />
			<stop
   offset="0.299"
   style="stop-color:#45798C"
   id="stop265" />
			<stop
   offset="0.3408"
   style="stop-color:#448DA0"
   id="stop267" />
			<stop
   offset="0.3874"
   style="stop-color:#419EB2"
   id="stop269" />
			<stop
   offset="0.4408"
   style="stop-color:#3DACC1"
   id="stop271" />
			<stop
   offset="0.5053"
   style="stop-color:#39B6CC"
   id="stop273" />
			<stop
   offset="0.5922"
   style="stop-color:#35BED4"
   id="stop275" />
			<stop
   offset="0.7981"
   style="stop-color:#33C1D7"
   id="stop277" />
		</linearGradient>
		<path
   fill="url(#SVGID_12_)"
   d="M557.093,0.027L277.521,279.599c-21.299,21.3-15.817,38.935-11.813,51.813l0.571,1.846    c2.295,7.506,4.836,16.119,7.492,25.303L632.303,0.027H557.093z"
   id="path280" />
		<path
   fill="#33C1D7"
   d="M243.905,388.426c-23.815,23.815-43.535,17.685-57.932,13.208l-2.063-0.638    C173.421,397.788,42.082,360.104,0,348.044v6.891l139.21,39.857c17.846,5.094,31.834,9.193,42.748,12.531l2.049,0.635    c15.108,4.692,37.938,11.789,64.578-14.852L641.665,0.027h-9.362L243.905,388.426z"
   id="path282" />

			<linearGradient
   id="SVGID_13_"
   gradientUnits="userSpaceOnUse"
   x1="1996.9971"
   y1="1543.4873"
   x2="2360.5198"
   y2="1748.1864"
   gradientTransform="matrix(-0.5068 -0.5068 0.5068 -0.5068 667.976 2444.0918)">
			<stop
   offset="0.2"
   style="stop-color:#37223F"
   id="stop284" />
			<stop
   offset="0.2505"
   style="stop-color:#3D3A50"
   id="stop286" />
			<stop
   offset="0.3169"
   style="stop-color:#425467"
   id="stop288" />
			<stop
   offset="0.3878"
   style="stop-color:#456D7F"
   id="stop290" />
			<stop
   offset="0.4623"
   style="stop-color:#458497"
   id="stop292" />
			<stop
   offset="0.5413"
   style="stop-color:#4398AB"
   id="stop294" />
			<stop
   offset="0.6266"
   style="stop-color:#3FA8BC"
   id="stop296" />
			<stop
   offset="0.721"
   style="stop-color:#3AB4CA"
   id="stop298" />
			<stop
   offset="0.832"
   style="stop-color:#36BDD3"
   id="stop300" />
			<stop
   offset="1"
   style="stop-color:#33C1D7"
   id="stop302" />
		</linearGradient>
		<path
   fill="url(#SVGID_13_)"
   d="M371.098,469.371c2.741,9.733,5.642,20.085,8.624,30.735    c10.704,38.207,22.787,81.326,32.195,112.313c2.632-2.76,4.939-5.473,6.946-8.137c-9.114-30.362-20.405-70.668-30.473-106.605    l-0.167-0.6c-2.926-10.44-5.77-20.59-8.461-30.146c-8.044-28.555-2.076-46.298,7.251-59.433c-0.813-2.89-1.616-5.748-2.402-8.543    c-0.223-0.785-0.41-1.547-0.613-2.317C371.743,411.271,360.788,432.772,371.098,469.371z"
   id="path305" />
		<path
   fill="#37223F"
   d="M436.15,363.551c-11.835,11.868-28.119,28.101-18.144,63.503c1.357,4.818,2.765,9.845,4.206,14.98    l69.786-69.785c11.327-11.327,27.587-27.01,17.863-61.527c-1.473-5.227-3.007-10.693-4.579-16.303L436.15,363.551z"
   id="path307" />
		<linearGradient
   id="SVGID_14_"
   gradientUnits="userSpaceOnUse"
   x1="214.5889"
   y1="781.1328"
   x2="295.2803"
   y2="861.8242">
			<stop
   offset="0.1369"
   style="stop-color:#37223F"
   id="stop309" />
			<stop
   offset="0.1712"
   style="stop-color:#4C2B40"
   id="stop311" />
			<stop
   offset="0.2288"
   style="stop-color:#6C3A40"
   id="stop313" />
			<stop
   offset="0.2913"
   style="stop-color:#8A493D"
   id="stop315" />
			<stop
   offset="0.3581"
   style="stop-color:#A75638"
   id="stop317" />
			<stop
   offset="0.4304"
   style="stop-color:#C06132"
   id="stop319" />
			<stop
   offset="0.5103"
   style="stop-color:#D46B2B"
   id="stop321" />
			<stop
   offset="0.6019"
   style="stop-color:#E47226"
   id="stop323" />
			<stop
   offset="0.7156"
   style="stop-color:#EF7722"
   id="stop325" />
			<stop
   offset="0.9183"
   style="stop-color:#F47920"
   id="stop327" />
		</linearGradient>
		<path
   fill="url(#SVGID_14_)"
   d="M150.486,980.027l247.265-247.265c35.81-35.811,26.593-65.466,19.862-87.117l-0.958-3.103    c-1.027-3.36-2.088-6.869-3.171-10.478L65.521,980.027H150.486z"
   id="path330" />
		<path
   fill="#F47920"
   d="M801.849-0.027h-7.646L432.909,361.267c-11.65,11.65-29.256,29.257-18.665,66.847    c1.569,5.567,3.202,11.389,4.877,17.367l2.085,7.435c8.878,31.704,18.94,67.639,26.676,92.935l0.642,2.066    c4.36,14.033,10.331,33.252-12.841,56.425L61.057,978.967l-1.006,1.006h7.646l371.809-371.81    c25.485-25.484,18.949-46.505,14.178-61.853l-0.633-2.048c-7.623-24.933-17.654-60.733-26.505-92.319l-0.136-0.485    c-2.407-8.598-4.747-16.956-6.96-24.812c-9.715-34.482,6.123-50.365,17.687-61.961L801.849-0.027z"
   id="path332" />
		<path
   fill="#FFFBCA"
   d="M424.155,178.068c-9.392,9.365-21.08,21.02-42.532,21.02c-6.288,0-13.153-1.036-20.403-3.078    c-3.068-0.865-88.887-25.743-179.745-52.082C113.533,124.232,42.474,103.633,0.139,91.37C0.093,91.356,0.046,91.363,0,91.363    v3.525c42.299,12.25,111.567,32.329,178.134,51.625c91.992,26.666,178.882,51.853,182.163,52.777    c7.642,2.153,14.881,3.245,21.517,3.245c22.697,0,35.212-12.516,44.35-21.654L606.662,0.381c0.109-0.109,0.139-0.26,0.122-0.408    h-4.533L424.155,178.068z"
   id="path334" />
		<path
   fill="#F47920"
   d="M695.07,0.027L228.384,466.714c-6.417,6.424-14.409,14.42-32.518,9.32    c-4.165-1.174-8.599-2.416-13.155-3.693c-16.83-4.713-35.903-10.059-49.18-14.115l-1.083-0.338    c-7.765-2.411-19.495-6.057-33.16,7.608L0.359,564.424v5.107L101.841,468.05c12.124-12.123,21.776-9.124,29.533-6.715l1.102,0.342    c13.318,4.073,32.414,9.422,49.261,14.143c4.557,1.275,8.988,2.517,13.15,3.691c20.146,5.672,29.72-3.906,36.053-10.245    L700.178,0.027H695.07z"
   id="path336" />
		<path
   fill="#37223F"
   d="M0.359,663.36l186.193-186.192c-1.588-0.446-3.191-0.894-4.816-1.349    c-16.847-4.721-35.943-10.069-49.261-14.143l-1.102-0.342c-7.756-2.409-17.409-5.408-29.533,6.715L0.359,569.531V663.36z"
   id="path338" />
		<path
   fill="#37223F"
   d="M869.664,0.027L629.866,239.826c-16.301,16.301-30.521,17.386-42.197,15.174l-5.124,5.124    c13.463,3.378,31.351,4.309,51.639-15.98L878.3,0.027H869.664z"
   id="path340" />
		<path
   fill="#37223F"
   d="M342.859,474.277l-0.533-1.719c-1.328-4.34-15.069-51.495-33.138-113.61    c-1.508,1.412-3.114,2.726-4.816,3.924c17.749,61.01,31.217,107.224,32.481,111.358l0.541,1.749    c3.82,12.294,8.575,27.596-10.643,46.813L0.314,849.181v8.097l330.485-330.436C352.462,505.18,346.684,486.584,342.859,474.277z"
   id="path342" />

			<radialGradient
   id="SVGID_15_"
   cx="2409.8145"
   cy="1318.9258"
   r="130.9329"
   gradientTransform="matrix(-0.5068 -0.5068 0.5068 -0.5068 667.976 2444.0918)"
   gradientUnits="userSpaceOnUse">
			<stop
   offset="0.0848"
   style="stop-color:#33C1D7"
   id="stop344" />
			<stop
   offset="0.2145"
   style="stop-color:#37BCD2"
   id="stop346" />
			<stop
   offset="0.3263"
   style="stop-color:#3BB2C7"
   id="stop348" />
			<stop
   offset="0.4314"
   style="stop-color:#40A4B8"
   id="stop350" />
			<stop
   offset="0.5325"
   style="stop-color:#4491A4"
   id="stop352" />
			<stop
   offset="0.6307"
   style="stop-color:#457A8D"
   id="stop354" />
			<stop
   offset="0.7268"
   style="stop-color:#446173"
   id="stop356" />
			<stop
   offset="0.8211"
   style="stop-color:#3F455A"
   id="stop358" />
			<stop
   offset="0.9118"
   style="stop-color:#382641"
   id="stop360" />
			<stop
   offset="0.9212"
   style="stop-color:#37223F"
   id="stop362" />
		</radialGradient>
		<path
   fill="url(#SVGID_15_)"
   d="M62.245,541.665c15.364,4.326,22.905-3.217,27.409-7.725l65.592-65.588    c-3.081-0.88-6.104-1.75-9.019-2.594l-62.383,62.378c-4.049,4.052-8.641,8.646-19.373,5.622    c-2.842-0.801-17.723-4.968-22.128-6.215l-6.649,6.65C41.488,535.846,59.405,540.864,62.245,541.665z"
   id="path365" />
		<path
   fill="#33C1D7"
   d="M439.248,272.809l-1.89-0.587c-13.931-4.329-34.986-10.873-59.554,13.695L0.359,663.36v8.633    l381.76-381.76c21.96-21.961,40.147-16.307,53.425-12.18l1.903,0.587c2.545,0.78,5.225,1.587,7.995,2.415l4.909-4.908    C446.316,274.951,442.619,273.839,439.248,272.809z"
   id="path367" />
		<path
   fill="#F47920"
   d="M406.409,319.383c-13.899,13.899-34.903,34.903-22.279,79.709c2.68,9.52,5.518,19.645,8.433,30.06    c10.783,38.49,23.004,82.114,32.317,112.57l0.773,2.502c5.385,17.325,12.761,41.054-15.881,69.695L44.018,979.674    c-0.082,0.082-0.121,0.188-0.133,0.299h5.374l363.284-363.283c30.314-30.314,22.534-55.347,16.852-73.627l-0.768-2.487    c-9.326-30.495-21.525-74.052-32.29-112.482c-2.918-10.417-5.755-20.54-8.437-30.062c-11.98-42.522,7.523-62.082,21.764-76.363    L730.951,0.381c0.108-0.109,0.138-0.26,0.122-0.408h-5.255L406.409,319.383z"
   id="path369" />
	</g></g></svg>
