<?xml version="1.0" encoding="utf-8"?>
<svg version="1.1" xmlns="http://www.w3.org/2000/svg" width="505px" height="505px">
<path id="path2830_2_" d="M347.106,288.432l-49.714,2.382l-1.572,51.147L259.029,307.5l-36.286,35.022
	l-2.316-51.118l-49.743-1.617l33.515-37.83l-34.061-37.312l49.713-2.381l1.574-51.147l36.791,34.462l36.285-35.023l2.316,51.118
	l49.741,1.618l-33.516,37.83L347.106,288.432L347.106,288.432z"/>
<path d="M457.696,259.537c-0.563-7.195,29.943-12.334,47.062-17.502c-0.159-3.907-0.408-7.79-0.744-11.649
	c-18.104-3.955-51.419-6.657-48.908-12.933c2.279-6.134,27.493-15.822,42.888-24.122c-0.866-3.606-1.802-7.186-2.821-10.729
	c-17.552,0.194-47.443,4.339-50.199-1.621c-2.668-6.033,23.191-22.482,36.93-34.036c-1.56-3.382-3.185-6.728-4.888-10.027
	c-17.249,4-45.682,14.73-49.58,8.347c-3.733-6.286,18.182-27.612,29.303-41.184c-2.033-2.793-4.116-5.546-6.26-8.251
	c-17.141,7.773-47.46,26.246-48.285,15.266c-0.643-8.182,14.794-29.556,22.202-43.482c-2.76-2.567-5.576-5.073-8.449-7.515
	c-15.972,11.743-35.398,32.222-42.02,27.319c-5.035-5.424,6.897-33.003,11.351-49.667c-3.329-2.062-6.709-4.048-10.139-5.958
	c-13.066,13.474-29.918,37.77-36.717,34.931c-5.951-3.657-0.089-33.983,1.367-51.182c-2.968-1.094-5.968-2.121-8.987-3.105
	c-10.092,16.139-22.831,43.134-29.263,41.572c-5.859-2.348-5.807-33.479-8.437-50.704c-3.792-0.613-7.612-1.14-11.459-1.582
	c-6.588,16.165-14.192,47.756-20.84,46.768c-7.132-1.63-13.2-31.427-18.538-48.229c-3.63,0.145-7.241,0.361-10.83,0.657
	c-3.3,16.913-3.161,48.198-10.568,50.11c-8.238,1.141-18.04-27.954-26.874-44.166c-3.435,0.815-6.846,1.691-10.226,2.645
	c0.297,17.49,6.052,49.353-1.964,51.966c-7.86,2.681-25.331-24.622-35.914-37.875c-2.483,1.158-4.948,2.348-7.386,3.584
	c4.053,18.069,14.186,47.808,7.217,52.158c-7.038,3.719-29.009-19.994-42.056-30.78c-2.394,1.75-4.767,3.526-7.096,5.357
	c7.049,15.446,24.383,43.092,18.37,49.041c1.011-0.938-0.489,0.462-0.139,0.132c-6.277,5.558-32.541-14.132-47.663-21.994
	c-2.362,2.553-4.672,5.154-6.929,7.803c9.037,14,31.951,38.938,27.476,45.04c-4.424,6.451-34.289-7.484-50.969-12.602
	c-1.549,2.542-3.042,5.122-4.503,7.722c12.12,12.175,39.343,32.695,35.793,38.956c-3.402,5.999-35.708-1.11-52.619-2.488
	c-1.067,2.908-2.068,5.848-3.03,8.805c15.217,10.41,46.931,25.257,42.436,32.141c-4.213,6.029-35.831,6.188-51.962,8.124
	c-0.419,2.781-0.779,5.581-1.107,8.39c16.481,7.021,51.122,16.928,47.948,23.464c-2.98,5.967-33.979,11.686-49.428,17.02
	c0.138,3.231,0.33,6.447,0.588,9.646c17.449,3.695,51.974,5.188,51.552,12.398c-0.708,6.84-30.652,19.521-44.998,27.842
	c0.691,2.796,1.413,5.581,2.197,8.34c16.942-0.034,50.399-4.274,53.179,2.497c3,6.462-26.076,24.93-38.826,35.763
	c1.273,2.705,2.583,5.389,3.949,8.039c16.265-3.473,49.375-15.625,52.587-7.914c3.735,7.506-20.037,30.115-30.641,43.085
	c1.686,2.265,3.416,4.493,5.174,6.698c17.385-7.439,44.521-23.77,49.46-18.413c3.694,5.691-14.941,32.22-22.251,47.521
	c2.66,2.432,5.378,4.8,8.141,7.116c14.5-8.95,39.077-30.502,44.453-27.906c5.353,3.823-7.904,32.649-12.655,50.647
	c2.841,1.716,5.722,3.372,8.634,4.977c11.818-12.376,30.654-39.289,38.543-35.292c7.715,3.909-0.232,34.957-2.021,51.776
	c3.049,1.092,6.123,2.133,9.225,3.11c9.021-13.971,21.72-42.245,29.662-42.418c8.684-0.709,7.682,34.59,9.378,51.358
	c3.304,0.484,6.627,0.907,9.971,1.262c6.829-15.602,15.413-45.514,22.252-45.187c6.904,0.331,11.804,30.283,16.976,46.317
	c3.555-0.17,7.088-0.426,10.604-0.741c3.225-16.486,4.84-46.468,10.771-47.515c6.326-0.823,18.17,26.446,27.241,41.146
	c3.123-0.773,6.227-1.599,9.303-2.487c-0.205-17.302-3.785-50.506,2.297-51.433c5.798-0.887,23.523,24.324,34.945,37.378
	c3.028-1.426,6.024-2.908,8.985-4.449c-3.445-16.734-12.795-45.496-8.457-50.169c4.59-4.59,27.22,17.601,42.046,29.18
	c2.675-1.979,5.307-4.014,7.899-6.095c-7.186-16.462-22.913-44.091-16.763-48.519c5.8-4.093,30.886,12.766,45.919,21.092
	c2.057-2.268,4.062-4.582,6.035-6.923c-9.574-13.815-28.998-37.194-26.267-43.34c2.629-6.522,31.216,5.044,49.61,10.749
	c1.558-2.587,3.065-5.207,4.532-7.854c-12.489-11.943-35.857-30.874-34.123-37.253c2.937-6.373,30.514-0.674,50.597,1.059
	c1.116-3.078,2.168-6.188,3.165-9.321c-14.787-8.899-41.859-21.753-40.831-29.304c1.871-7.872,30.749-7.18,49.809-9.012
	c0.526-3.453,0.967-6.935,1.353-10.432C487.23,274.242,458.314,266.701,457.696,259.537z M338.17,66.619
	C337.122,66.174,336.75,65.974,338.17,66.619L338.17,66.619z M362.909,367.144v-61.677h-52.144v95.434
	c-60.435,23.697-129.952,7.589-173.793-41.861h67.365v-51.429c-20.346,0-79.96,0-97.712,0
	c-21.253-60.023-4.006-127.754,45.211-170.257v61.328h53.572v-91.577c52.812-17.208,113.214-5.474,156.148,35.504H306.48v50.715
	h90.508C422.378,251.677,409.996,321.107,362.909,367.144z"/>
</svg>