<?xml version="1.0" encoding="utf-8"?>
<!DOCTYPE svg PUBLIC "-//W3C//DTD SVG 1.0//EN"
 "http://www.w3.org/TR/2001/REC-SVG-20010904/DTD/svg10.dtd">
<svg xmlns="http://www.w3.org/2000/svg" 
 xmlns:xlink="http://www.w3.org/1999/xlink"
 width="100%" height="100%" viewBox="0 0 526 277">
  <defs>
    <style type="text/css"><![CDATA[
      .red {
        fill: rgb(239, 62, 66);
      }
      .white {
        fill: white;
      }
      .blue {
        fill: rgb(0, 73, 144);
      }
    ]]></style>
<!--
    <path id="star" class="white"
          d="m0,-8 l-2,6 h-6 l5,4 l-2,6 l5,-4 l5,4 l-2,-6 l5,-4 h-6z"/>
-->
    <path id="star" class="white" transform="translate(0,-8),scale(1.7)"
          d="M 0,0 l -3.0902,9.5106 l 8.0902,-5.8779 l -10,0 l 8.0902,5.8779 z" />
  </defs>
  <g>
    <rect class="white" x="0" y="0" width="526" height="277"/>
    <rect class="red" x="210" y="0" width="315" height="21"/>
    <rect class="red" x="210" y="43" width="315" height="21"/>
    <rect class="red" x="210" y="85" width="315" height="21"/>
    <rect class="red" x="210" y="128" width="315" height="21"/>
    <rect class="red" x="0" y="170.5" width="526" height="21"/>
    <rect class="red" x="0" y="213" width="526" height="21"/>
    <rect class="red" x="0" y="255.6" width="526" height="21"/>
    <rect class="blue" x="0" y="0" width="210" height="149"/>
    <g id="six_row" >
      <use x="17" y="15" xlink:href="#star" />
      <use x="52" y="15" xlink:href="#star" />
      <use x="87" y="15" xlink:href="#star" />
      <use x="122" y="15" xlink:href="#star" />
      <use x="157" y="15" xlink:href="#star" />
      <use x="192" y="15" xlink:href="#star" />
    </g>
    <use x="0" y="28" xlink:href="#six_row" />
    <use x="0" y="58" xlink:href="#six_row" />
    <use x="0" y="88" xlink:href="#six_row" />
    <use x="0" y="118" xlink:href="#six_row" />
    <g id="five_row">
      <use x="35" y="29" xlink:href="#star" />
      <use x="70" y="29" xlink:href="#star" />
      <use x="105" y="29" xlink:href="#star" />
      <use x="140" y="29" xlink:href="#star" />
      <use x="175" y="29" xlink:href="#star" />
    </g>
    <use x="0" y="29" xlink:href="#five_row" />
    <use x="0" y="59" xlink:href="#five_row" />
    <use x="0" y="89" xlink:href="#five_row" />
  </g>
</svg>
