<?xml version="1.0" encoding="UTF-8" standalone="no"?>
<!-- Generator: Adobe Illustrator 19.0.0, SVG Export Plug-In . SVG Version: 6.00 Build 0)  -->

<svg
   version="1.1"
   x="0px"
   y="0px"
   viewBox="0 0 1400 980"
   style="enable-background:new 0 0 1400 980;"
   xml:space="preserve"
   id="svg346"
   sodipodi:docname="svg.svg"
   inkscape:version="1.1.2 (0a00cf5339, 2022-02-04)"
   xmlns:inkscape="http://www.inkscape.org/namespaces/inkscape"
   xmlns:sodipodi="http://sodipodi.sourceforge.net/DTD/sodipodi-0.dtd"
   xmlns:xlink="http://www.w3.org/1999/xlink"
   xmlns="http://www.w3.org/2000/svg"
   xmlns:svg="http://www.w3.org/2000/svg"><defs
   id="defs350" /><sodipodi:namedview
   id="namedview348"
   pagecolor="#505050"
   bordercolor="#ffffff"
   borderopacity="1"
   inkscape:pageshadow="0"
   inkscape:pageopacity="0"
   inkscape:pagecheckerboard="1"
   showgrid="false"
   inkscape:zoom="0.76020408"
   inkscape:cx="700.4698"
   inkscape:cy="490"
   inkscape:window-width="3440"
   inkscape:window-height="1369"
   inkscape:window-x="0"
   inkscape:window-y="34"
   inkscape:window-maximized="1"
   inkscape:current-layer="svg346" />
<style
   type="text/css"
   id="style2">
	.st0{fill:#AEE0E8;}
	.st1{fill:#FFC60B;}
	.st2{fill:#F98D13;}
	.st3{fill:#F3551C;}
	.st4{fill:#ED1C24;}
	.st5{fill:#790000;}
	.st6{fill:#A0090C;}
	.st7{fill:#C61318;}
	.st8{fill:#3592A7;}
	.st9{fill:none;stroke:#FFC60B;stroke-width:15;stroke-miterlimit:10;}
	.st10{clip-path:url(#SVGID_2_);fill:#F98D13;}
	.st11{font-family:'GothamRounded-Bold';}
	.st12{font-size:22.178px;}
	.st13{font-size:43.9629px;}
	.st14{fill:#232323;}
	.st15{fill:#333333;}
	.st16{fill:none;stroke:#ED1C24;stroke-width:3;stroke-miterlimit:10;}
</style>
<g
   id="Layer_1">
	<rect
   class="st0"
   width="1400"
   height="980"
   id="rect4" />
</g>
<g
   id="Layer_2">
	<g
   id="g15">
		<circle
   class="st1"
   cx="-111"
   cy="648"
   r="52"
   id="circle7" />
		<circle
   class="st2"
   cx="-208.3"
   cy="648"
   r="52"
   id="circle9" />
		<circle
   class="st3"
   cx="-305.7"
   cy="648"
   r="52"
   id="circle11" />
		<circle
   class="st4"
   cx="-403"
   cy="648"
   r="52"
   id="circle13" />
	</g>
	<g
   id="g25">
		<circle
   class="st5"
   cx="-102.2"
   cy="777.8"
   r="52"
   id="circle17" />
		<circle
   class="st6"
   cx="-199.6"
   cy="777.8"
   r="52"
   id="circle19" />
		<circle
   class="st7"
   cx="-296.9"
   cy="777.8"
   r="52"
   id="circle21" />
		<circle
   class="st4"
   cx="-394.2"
   cy="777.8"
   r="52"
   id="circle23" />
	</g>
	<g
   id="g35">
		<circle
   class="st8"
   cx="-102.2"
   cy="1032"
   r="52"
   id="circle27" />
		<circle
   class="st8"
   cx="-199.6"
   cy="1032"
   r="52"
   id="circle29" />
		<circle
   class="st8"
   cx="-296.9"
   cy="1032"
   r="52"
   id="circle31" />
		<circle
   class="st8"
   cx="-394.2"
   cy="1032"
   r="52"
   id="circle33" />
	</g>
	<circle
   class="st0"
   cx="-394.2"
   cy="895"
   r="52"
   id="circle37" />
	<g
   id="g343">
		<g
   id="g73">
			<g
   id="g65">
				<g
   id="g41">
					<rect
   x="893.5"
   y="163.5"
   class="st7"
   width="33.3"
   height="45"
   id="rect39" />
				</g>
				<path
   class="st7"
   d="M910.2,195.3c-32,0-57.9,25.9-57.9,57.9h115.8C968.1,221.2,942.1,195.3,910.2,195.3z"
   id="path43" />
				<rect
   x="881.3"
   y="183.1"
   class="st4"
   width="57.7"
   height="19.8"
   id="rect45" />
				<rect
   x="852.3"
   y="273.6"
   class="st7"
   width="115.8"
   height="194.7"
   id="rect47" />
				<path
   class="st4"
   d="M1001.4,279.6c0,5.1-4.1,9.2-9.2,9.2H828.1c-5.1,0-9.2-4.1-9.2-9.2v-17.3c0-5.1,4.1-9.2,9.2-9.2h164.1      c5.1,0,9.2,4.1,9.2,9.2V279.6z"
   id="path49" />
				<rect
   x="818.9"
   y="268.5"
   class="st7"
   width="182.5"
   height="4.9"
   id="rect51" />
				<rect
   x="852.3"
   y="468.3"
   class="st6"
   width="115.8"
   height="62.3"
   id="rect53" />
				<circle
   class="st4"
   cx="910.2"
   cy="354.3"
   r="43.8"
   id="circle55" />
				<g
   id="g59">
					<rect
   x="970.1"
   y="337.7"
   class="st1"
   width="53.8"
   height="33.3"
   id="rect57" />
				</g>
				<rect
   x="968.1"
   y="310.5"
   class="st4"
   width="36.3"
   height="87.5"
   id="rect61" />
				<path
   class="st1"
   d="M903.3,370.9c-1.5,0-3.3-1-4-2.3l-6.9-12c-0.7-1.3-0.7-3.4,0-4.7l6.9-12c0.7-1.3,2.6-2.3,4-2.3h13.8      c1.5,0,3.3,1,4,2.3l6.9,12c0.7,1.3,0.7,3.4,0,4.7l-6.9,12c-0.7,1.3-2.6,2.3-4,2.3H903.3z"
   id="path63" />
			</g>
			<g
   id="g71">
				<path
   class="st4"
   d="M1001.4,482.9c0,5.1-4.1,9.2-9.2,9.2H828.1c-5.1,0-9.2-4.1-9.2-9.2v-5.4c0-5.1,4.1-9.2,9.2-9.2h164.1      c5.1,0,9.2,4.1,9.2,9.2V482.9z"
   id="path67" />
				<path
   class="st6"
   d="M973.8,461H846.5c-3.9,0-7.1,3.2-7.1,7.1v0.1h141.5v-0.1C980.9,464.2,977.7,461,973.8,461z"
   id="path69" />
			</g>
		</g>
		<g
   id="g107">
			<g
   id="g91">
				<g
   id="g77">
					<rect
   x="1120.1"
   y="218.8"
   class="st7"
   width="44.3"
   height="60"
   id="rect75" />
				</g>
				<path
   class="st9"
   d="M1035.2,628.9c0-129.3-9.3-371,44.7-371h29.3"
   id="path79" />
				<rect
   x="1103.8"
   y="244.9"
   class="st4"
   width="76.9"
   height="26.4"
   id="rect81" />
				<path
   class="st7"
   d="M1142.2,261c-42.6,0-77.2,34.6-77.2,77.2V625v83h154.4v-83V338.2C1219.4,295.6,1184.9,261,1142.2,261z"
   id="path83" />
				<path
   class="st6"
   d="M1142.4,261.1v447h77v-83V338.2C1219.4,295.7,1185,261.1,1142.4,261.1z"
   id="path85" />
				<rect
   x="1065.1"
   y="373.3"
   class="st1"
   width="154.4"
   height="127.3"
   id="rect87" />
				<rect
   x="1142.4"
   y="373.3"
   class="st2"
   width="77"
   height="127.3"
   id="rect89" />
			</g>
			<g
   id="g101">
				<rect
   x="1143.7"
   y="208.1"
   class="st4"
   width="72.7"
   height="11.9"
   id="rect93" />
				<polygon
   class="st4"
   points="1156.3,189.6 1164.4,176 1226.3,168.8 1227.1,172.4     "
   id="polygon95" />
				<path
   class="st7"
   d="M1164.4,176c-18.3,0-44,29.2-44,29.2V220h44V176z"
   id="path97" />
				<path
   class="st4"
   d="M1221.5,173.7c-8.6,2.1-12.4,8.6-12.4,8.6l-3.1,1c-9.3-1.4-8.9-3.7-21.9-0.5l-3.2-4.9l39.7-7.8      L1221.5,173.7z"
   id="path99" />
			</g>
			<g
   id="g105">
				<circle
   class="st1"
   cx="1136"
   cy="242.8"
   r="24"
   id="circle103" />
			</g>
		</g>
		<g
   id="g161">
			<path
   class="st6"
   d="M360.1,785.9c0,3.9-3.2,7.1-7.1,7.1H190c-3.9,0-7.1-3.2-7.1-7.1v-265c0-3.9,3.2-7.1,7.1-7.1h163     c3.9,0,7.1,3.2,7.1,7.1V785.9z"
   id="path109" />
			<path
   class="st7"
   d="M419.3,785.9c0,3.9-3.2,7.1-7.1,7.1h-163c-3.9,0-7.1-3.2-7.1-7.1v-265c0-3.9,3.2-7.1,7.1-7.1h163     c3.9,0,7.1,3.2,7.1,7.1V785.9z"
   id="path111" />
			<g
   id="g129">
				<circle
   class="st2"
   cx="330.7"
   cy="669.5"
   r="59.2"
   id="circle113" />
				<circle
   class="st3"
   cx="330.7"
   cy="669.5"
   r="46.8"
   id="circle115" />
				<g
   id="g127">
					<defs
   id="defs118">
						<circle
   id="SVGID_1_"
   cx="330.7"
   cy="669.5"
   r="46.8" />
					</defs>
					<clipPath
   id="SVGID_2_">
						<use
   xlink:href="#SVGID_1_"
   style="overflow:visible;"
   id="use120" />
					</clipPath>
					<polygon
   class="st10"
   points="309.7,740.3 289.2,740.3 324.1,609.8 344.6,609.8      "
   clip-path="url(#SVGID_2_)"
   id="polygon123" />
					<polygon
   class="st10"
   points="329.1,740.3 318.8,740.3 353.8,609.8 364,609.8      "
   clip-path="url(#SVGID_2_)"
   id="polygon125" />
				</g>
			</g>
			<text
   transform="matrix(1 0 0 1 293.7446 677.9478)"
   class="st1 st11 st12"
   id="text131">PRESS</text>
			<text
   transform="matrix(1 0 0 1 278.2573 576.0767)"
   class="st1 st11 st13"
   id="text133">FIRE</text>
			<g
   id="g159">
				<g
   id="g141">
					<g
   id="g137">
						<path
   class="st6"
   d="M404.5,752.5h-2v-2.4c0-1.3-1.1-2.4-2.4-2.4c-1.3,0-2.4,1.1-2.4,2.4v2.4h-2v-2.4c0-2.5,2-4.5,4.5-4.5        c2.5,0,4.5,2,4.5,4.5V752.5z"
   id="path135" />
					</g>
					<rect
   x="394.1"
   y="752.5"
   class="st6"
   width="11.9"
   height="7.3"
   id="rect139" />
				</g>
				<g
   id="g149">
					<g
   id="g145">
						<path
   class="st6"
   d="M397.6,770.5h-2v-2.4c0-1.3-1.1-2.4-2.4-2.4c-1.3,0-2.4,1.1-2.4,2.4v2.4h-2v-2.4c0-2.5,2-4.5,4.5-4.5        c2.5,0,4.5,2,4.5,4.5V770.5z"
   id="path143" />
					</g>
					<rect
   x="394.1"
   y="770.5"
   class="st6"
   width="11.9"
   height="7.3"
   id="rect147" />
				</g>
				<g
   id="g157">
					<circle
   class="st4"
   cx="378.1"
   cy="770.6"
   r="7.3"
   id="circle151" />
					<rect
   x="370.8"
   y="753.3"
   class="st4"
   width="14.6"
   height="17.2"
   id="rect153" />
					<circle
   class="st6"
   cx="378.1"
   cy="753.3"
   r="7.3"
   id="circle155" />
				</g>
			</g>
		</g>
		<g
   id="g203">
			<g
   id="g171">
				<rect
   x="517.4"
   y="652.9"
   class="st5"
   width="252.7"
   height="139.4"
   id="rect163" />
				<g
   id="g169">
					<rect
   x="728"
   y="657.5"
   class="st6"
   width="44.4"
   height="134.8"
   id="rect165" />
					<rect
   x="515.1"
   y="657.5"
   class="st6"
   width="44.4"
   height="134.8"
   id="rect167" />
				</g>
			</g>
			<g
   id="g201">
				<path
   class="st7"
   d="M642.5,488.5c-55,0-127.6,63.8-127.6,142.5l127.6,21.9L770.1,631C770.1,552.3,697.4,488.5,642.5,488.5z"
   id="path173" />
				<rect
   x="559.2"
   y="512.9"
   class="st4"
   width="20.1"
   height="123.4"
   id="rect175" />
				<rect
   x="705.6"
   y="512.9"
   class="st4"
   width="20.1"
   height="123.4"
   id="rect177" />
				<rect
   x="750"
   y="559.9"
   class="st4"
   width="20.1"
   height="76.4"
   id="rect179" />
				<rect
   x="514.9"
   y="559.9"
   class="st4"
   width="20.1"
   height="76.4"
   id="rect181" />
				<rect
   x="621.2"
   y="454.7"
   class="st4"
   width="42.5"
   height="189.4"
   id="rect183" />
				<g
   id="g187">
					<path
   class="st1"
   d="M641.2,832.7c-70,0-126.9-56.9-126.9-126.9v-61.4H534v61.4c0,59.1,48.1,107.2,107.2,107.2       c59.1,0,107.2-48.1,107.2-107.2v-61.4h19.8v61.4C768.2,775.7,711.2,832.7,641.2,832.7z"
   id="path185" />
				</g>
				<g
   id="g191">
					<path
   class="st4"
   d="M818.1,639c1.1,5.5-2.6,10.9-8.3,12.1c-111.2,20.7-223.3,20.7-334.5,0c-5.8-1.1-9.5-6.6-8.3-12.1       c0.5-2.4,0.7-3.5,1.2-5.9c1.1-5.5,6.6-9,12.2-8c107.9,20,216.5,20,324.4,0c5.6-1.1,11,2.4,12.2,8       C817.3,635.4,817.6,636.6,818.1,639z"
   id="path189" />
				</g>
				<path
   class="st4"
   d="M664.4,501.7h-43.9l-28.3,13.1c0,27.7,30,82,50.2,82c20.2,0,50.2-54.3,50.2-82L664.4,501.7z"
   id="path193" />
				<rect
   x="559.2"
   y="584.8"
   class="st6"
   width="166.6"
   height="59.3"
   id="rect195" />
				<rect
   x="573.3"
   y="596.8"
   class="st1"
   width="136.7"
   height="36.7"
   id="rect197" />
				<circle
   class="st1"
   cx="642.5"
   cy="545.3"
   r="25.2"
   id="circle199" />
			</g>
		</g>
		<g
   id="g209">
			<path
   class="st1"
   d="M928.5,817.8c13.3,10.7,37.3-4,37.3-4l31.3-66l-58-64.7l-52,54l11.3,54.7L928.5,817.8z"
   id="path205" />
			<path
   class="st4"
   d="M1026.7,663.3c-19.2,36.9,15.9,121.8-60.8,150.5c20-39.3,6.2-59,6.2-59s-1.5,17.7-11.8,23.6     c-36.9-11.8-25.1-64.9-25.1-64.9c-63.3,44.8-6.7,104.4-6.7,104.4c-69.3-29.5-58.2-85.2-98.1-132.4c32.5,1.5,45.7,22.1,45.7,22.1     c-22.1-41.3,3-75.2,3-75.2c4.4,25.1,28,38.4,28,38.4c20.7-42.8,7.4-97.4,7.4-97.4c48.7,29.5,72.3,126.9,72.3,126.9     C995.7,660.3,1026.7,663.3,1026.7,663.3z"
   id="path207" />
		</g>
		<g
   id="g325">
			<rect
   x="257.5"
   y="226.1"
   class="st5"
   width="278.7"
   height="177.5"
   id="rect211" />
			<g
   id="g217">
				<path
   class="st14"
   d="M401.1,366.2h-17.3v14.2c-4.2,5.8-6.7,12.9-6.7,20.6s2.5,14.8,6.7,20.6v14.1h14.8c0.8,0.1,1.6,0.1,2.4,0.1      c19.2,0,34.7-15.5,34.7-34.7C435.8,381.7,420.3,366.2,401.1,366.2z"
   id="path213" />
				<circle
   class="st15"
   cx="384.6"
   cy="400.9"
   r="34.7"
   id="circle215" />
			</g>
			<rect
   x="172.9"
   y="226.1"
   class="st4"
   width="278.7"
   height="177.5"
   id="rect219" />
			<rect
   x="172.9"
   y="333.5"
   class="st7"
   width="279.2"
   height="70.1"
   id="rect221" />
			<g
   id="g227">
				<path
   class="st14"
   d="M715.6,366.2h-17.3v14.2c-4.2,5.8-6.7,12.9-6.7,20.6s2.5,14.8,6.7,20.6v14.1h14.8c0.8,0.1,1.6,0.1,2.4,0.1      c19.2,0,34.7-15.5,34.7-34.7C750.3,381.7,734.8,366.2,715.6,366.2z"
   id="path223" />
				<circle
   class="st15"
   cx="699.1"
   cy="400.9"
   r="34.7"
   id="circle225" />
			</g>
			<g
   id="g263">
				<g
   id="g249">
					<g
   id="g237">
						<path
   class="st16"
   d="M625,226.1c-2.7-6.6-4.2-13.9-4.2-21.5c0-25.4,16.5-46.9,39.4-54.4"
   id="path229" />
						<path
   class="st16"
   d="M678,261.8c-15.8,0-30.1-6.4-40.5-16.8"
   id="path231" />
						<path
   class="st16"
   d="M732.6,187.1c1.8,5.5,2.7,11.4,2.7,17.5c0,13.2-4.5,25.4-12,35"
   id="path233" />
						<path
   class="st16"
   d="M678,147.3c12.8,0,24.6,4.2,34.1,11.3"
   id="path235" />
					</g>
					<g
   id="g247">
						<path
   class="st16"
   d="M640.8,188.8c2-4.7,4.9-9.1,8.7-12.9c12.7-12.7,31.7-15.2,46.9-7.5"
   id="path239" />
						<path
   class="st16"
   d="M649.4,233.2c-7.9-7.9-11.9-18.3-11.9-28.6"
   id="path241" />
						<path
   class="st16"
   d="M714,223.1c-1.9,3.6-4.3,7.1-7.4,10.1c-6.6,6.6-14.9,10.4-23.5,11.5"
   id="path243" />
						<path
   class="st16"
   d="M706.7,176c6.4,6.4,10.2,14.4,11.4,22.7"
   id="path245" />
					</g>
				</g>
				<path
   class="st5"
   d="M740.9,246.7c-5.4-12.5-17.7-20.6-31.3-20.6h-51.8h-38h-43V282h17.2v121.6h138.1h47.3v-67.4L740.9,246.7z"
   id="path251" />
				<rect
   x="485.9"
   y="263.4"
   class="st2"
   width="28.4"
   height="140.2"
   id="rect253" />
				<path
   class="st4"
   d="M602.4,226.1h-72.8c-14.3,0-25.8,11.6-25.8,25.8v151.7h121.1h47.3v-67.4l-38.4-89.5      C628.3,234.2,616,226.1,602.4,226.1z"
   id="path255" />
				<rect
   x="503.7"
   y="336"
   class="st7"
   width="168.4"
   height="67.6"
   id="rect257" />
				<path
   class="st1"
   d="M779.3,403.6l-106-0.1c-6.4,0-11.6-5.2-11.6-11.6l0,0c0-6.4,5.2-11.6,11.6-11.6l106,0.1      c6.4,0,11.6,5.2,11.6,11.6l0,0C790.9,398.4,785.7,403.6,779.3,403.6z"
   id="path259" />
				<path
   class="st0"
   d="M649.1,304l-19.5-45.4c-2.4-5.7-8-9.4-14.2-9.4h-73.8c-8.5,0-15.5,6.9-15.5,15.5V304"
   id="path261" />
			</g>
			<rect
   x="418.2"
   y="263.4"
   class="st1"
   width="67.7"
   height="140.2"
   id="rect265" />
			<rect
   x="429.2"
   y="280.6"
   class="st2"
   width="47.3"
   height="8.3"
   id="rect267" />
			<rect
   x="429.2"
   y="297.6"
   class="st2"
   width="47.3"
   height="8.3"
   id="rect269" />
			<circle
   class="st2"
   cx="452.8"
   cy="367.6"
   r="12.7"
   id="circle271" />
			<g
   id="g281">
				<path
   class="st4"
   d="M680.8,217.1l-114.4-0.2c-6.4,0-11.6-5.2-11.6-11.6l0,0c0-6.4,5.2-11.6,11.6-11.6l114.4,0.2      c6.4,0,11.6,5.2,11.6,11.6l0,0C692.4,212,687.2,217.2,680.8,217.1z"
   id="path273" />
				<rect
   x="593.9"
   y="213.4"
   class="st5"
   width="36.2"
   height="12.8"
   id="rect275" />
				<path
   class="st7"
   d="M630.2,193.9l-63.7-0.1c-6.4,0-11.6,5.2-11.6,11.6l0,0c0,6.4,5.2,11.6,11.6,11.6l63.8,0.1V193.9z"
   id="path277" />
				<path
   class="st1"
   d="M582.3,217l-43.5-0.1c-6.4,0-11.6-5.2-11.6-11.6l0,0c0-6.4,5.2-11.6,11.6-11.6l43.5,0.1      c6.4,0,11.6,5.2,11.6,11.6l0,0C593.9,211.8,588.7,217,582.3,217z"
   id="path279" />
			</g>
			<g
   id="g291">
				<rect
   x="679.9"
   y="340.1"
   class="st6"
   width="91.3"
   height="29.5"
   id="rect283" />
				<g
   id="g289">
					<path
   class="st1"
   d="M703.6,365.6h-6.1c-4.7,0-8.5-3.8-8.5-8.5v-3.4c0-4.7,3.8-8.5,8.5-8.5h6.1c4.7,0,8.5,3.8,8.5,8.5v3.4       C712.2,361.8,708.4,365.6,703.6,365.6z"
   id="path285" />
					<path
   class="st1"
   d="M753.6,365.6h-6.1c-4.7,0-8.5-3.8-8.5-8.5v-3.4c0-4.7,3.8-8.5,8.5-8.5h6.1c4.7,0,8.5,3.8,8.5,8.5v3.4       C762.2,361.8,758.3,365.6,753.6,365.6z"
   id="path287" />
				</g>
			</g>
			<path
   class="st0"
   d="M756.9,304h-86.8l-18.4-38.6c-3.6-7.5,1.9-16.2,10.2-16.2h61.7c4.4,0,8.3,2.5,10.2,6.5L756.9,304z"
   id="path293" />
			<g
   id="g301">
				<path
   class="st14"
   d="M606.3,366.2H589v14.2c-4.2,5.8-6.7,12.9-6.7,20.6s2.5,14.8,6.7,20.6v14.1h14.8c0.8,0.1,1.6,0.1,2.4,0.1      c19.2,0,34.7-15.5,34.7-34.7C641,381.7,625.4,366.2,606.3,366.2z"
   id="path295" />
				<circle
   class="st15"
   cx="589.8"
   cy="400.9"
   r="34.7"
   id="circle297" />
				<circle
   class="st0"
   cx="589.8"
   cy="400.9"
   r="13"
   id="circle299" />
			</g>
			<g
   id="g309">
				<path
   class="st14"
   d="M291.8,366.2h-17.3v14.2c-4.2,5.8-6.7,12.9-6.7,20.6s2.5,14.8,6.7,20.6v14.1h14.8c0.8,0.1,1.6,0.1,2.4,0.1      c19.2,0,34.7-15.5,34.7-34.7C326.5,381.7,311,366.2,291.8,366.2z"
   id="path303" />
				<circle
   class="st15"
   cx="275.3"
   cy="400.9"
   r="34.7"
   id="circle305" />
				<circle
   class="st0"
   cx="275.3"
   cy="400.9"
   r="13"
   id="circle307" />
			</g>
			<g
   id="g317">
				<rect
   x="239.9"
   y="196.4"
   class="st7"
   width="264.5"
   height="16.4"
   id="rect311" />
				<path
   class="st1"
   d="M476.4,210.4l-21.8,0c-3.2,0-5.8-2.6-5.8-5.8l0,0c0-3.2,2.6-5.8,5.8-5.8l21.8,0c3.2,0,5.8,2.6,5.8,5.8l0,0      C482.2,207.8,479.6,210.4,476.4,210.4z"
   id="path313" />
				<rect
   x="504.4"
   y="196.4"
   class="st5"
   width="16.4"
   height="16.4"
   id="rect315" />
			</g>
			<g
   id="g323">
				<rect
   x="172.9"
   y="196.4"
   class="st4"
   width="264.5"
   height="16.4"
   id="rect319" />
				<rect
   x="437.4"
   y="196.4"
   class="st5"
   width="16.4"
   height="16.4"
   id="rect321" />
			</g>
		</g>
		<g
   id="g337">
			<rect
   x="198.8"
   y="253.2"
   class="st2"
   width="98.4"
   height="100.1"
   id="rect327" />
			<rect
   x="198.8"
   y="253.2"
   class="st1"
   width="98.4"
   height="15.3"
   id="rect329" />
			<rect
   x="198.8"
   y="283.8"
   class="st1"
   width="98.4"
   height="15.3"
   id="rect331" />
			<rect
   x="198.8"
   y="314.5"
   class="st1"
   width="98.4"
   height="15.3"
   id="rect333" />
			<rect
   x="198.8"
   y="345.1"
   class="st1"
   width="98.4"
   height="15.3"
   id="rect335" />
		</g>
		<rect
   x="219"
   y="212.8"
   class="st7"
   width="36"
   height="13.4"
   id="rect339" />
		<rect
   x="366.5"
   y="212.8"
   class="st7"
   width="36"
   height="13.4"
   id="rect341" />
	</g>
</g>
</svg>
