<svg version="1.1" viewBox="0 0 174.14 174.53" xmlns="http://www.w3.org/2000/svg">
  <g transform="translate(-4.9391 -2.3908)">
    <g transform="matrix(1.1261 0 0 1.1261 -820.88 -66.301)">
      <path transform="matrix(.13333 0 0 -.13333 0 1397.3)" d="m5578.5 9500-38.59-501.54c0.06-53.6 44.92-98.46 100.06-98.46h880c55.14 0 100 44.86 100 100l-38.52 500z" style="fill:#fa5688;paint-order:stroke fill markers;stroke-width:79.748;stroke:#a80341"/>
      <path transform="matrix(.13333 0 0 -.13333 0 1397.3)" d="m6214.4 9220c170.9 0 318.89 116.39 360.69 280h-990.22c41.8-163.61 189.79-280 360.69-280z" style="fill-opacity:.32841;fill:#fff;paint-order:normal;stroke-width:40.748;stroke:#a80341"/>
      <path transform="matrix(.13333 0 0 -.13333 0 1397.3)" d="m6020 9180h120v40h-120z" style="fill:#96a900;paint-order:stroke fill markers;stroke-width:67.748;stroke:#6b5e00"/>
      <path transform="matrix(.13333 0 0 -.13333 0 1397.3)" d="m6053.6 9260h52.78l11.75 70.53-38.14 25.43-38.14-25.43z" style="fill:#96a900;paint-order:stroke fill markers;stroke-width:67.748;stroke:#6b5e00"/>
      <path transform="matrix(.13333 0 0 -.13333 0 1397.3)" d="m6024.1 9024.1 55.86-55.86 55.86 55.86c-16.72 36.72-27.67 75.57-32.66 115.86h-46.4c-4.99-40.29-15.94-79.14-32.66-115.86z" style="fill:#96a900;paint-order:stroke fill markers;stroke-width:67.748;stroke:#6b5e00"/>
      <path transform="matrix(.13333 0 0 -.13333 0 1397.3)" d="m6539.5 9540h40.04c-10.51 244.39-212.63 440-459.57 440h-80c-246.94 0-449.06-195.61-459.57-440h40.04c10.47 222.34 194.64 400 419.53 400h80c224.89 0 409.06-177.66 419.53-400z" style="fill:#fa5688;paint-order:stroke fill markers;stroke-width:84.998;stroke:#a80341"/>
    </g>
  </g>
</svg>
