<?xml version="1.0" encoding="UTF-8" standalone="no"?>
<!-- Created with Inkscape (http://www.inkscape.org/) -->
<svg xmlns:dc="http://purl.org/dc/elements/1.1/" xmlns:cc="http://creativecommons.org/ns#" xmlns:rdf="http://www.w3.org/1999/02/22-rdf-syntax-ns#" xmlns:svg="http://www.w3.org/2000/svg" xmlns="http://www.w3.org/2000/svg" xmlns:sodipodi="http://sodipodi.sourceforge.net/DTD/sodipodi-0.dtd" xmlns:inkscape="http://www.inkscape.org/namespaces/inkscape" viewBox="0 0 90.022369 66.030624" id="svg3682" sodipodi:version="0.32" inkscape:version="0.46" version="1.0" sodipodi:docname="swan.svg" inkscape:output_extension="org.inkscape.output.svg.inkscape">
  <defs id="defs3684">
    <inkscape:perspective sodipodi:type="inkscape:persp3d" inkscape:vp_x="0 : 526.18109 : 1" inkscape:vp_y="0 : 1000 : 0" inkscape:vp_z="744.09448 : 526.18109 : 1" inkscape:persp3d-origin="372.04724 : 350.78739 : 1" id="perspective3690"/>
  </defs>
  <sodipodi:namedview id="base" pagecolor="#ffffff" bordercolor="#666666" borderopacity="1.0" gridtolerance="10000" guidetolerance="10" objecttolerance="10" inkscape:pageopacity="0.0" inkscape:pageshadow="2" inkscape:zoom="6.2651095" inkscape:cx="45.011185" inkscape:cy="33.015312" inkscape:document-units="px" inkscape:current-layer="layer1" showgrid="false" inkscape:window-width="640" inkscape:window-height="665" inkscape:window-x="0" inkscape:window-y="6"/>
  <metadata id="metadata3687">
    <rdf:RDF>
      <cc:Work rdf:about="">
        <dc:format>image/svg+xml</dc:format>
        <dc:type rdf:resource="http://purl.org/dc/dcmitype/StillImage"/>
      </cc:Work>
    </rdf:RDF>
  </metadata>
  <g inkscape:label="Layer 1" inkscape:groupmode="layer" id="layer1" transform="translate(-340.703, -353.633)">
    <path id="path12399" style="fill: rgb(0, 128, 0); fill-rule: evenodd; stroke: none; stroke-width: 1.07289px; stroke-linecap: butt; stroke-linejoin: miter; stroke-opacity: 1;" d="M 342.94368,391.23568 C 342.64263,403.49002 350.05884,410.92363 358.17181,415.03814 C 371.22438,421.65775 389.97244,419.99293 400.04605,417.28778 C 411.8268,414.12419 421.6931,407.77412 430.69596,400.07089 C 431.41823,399.45289 418.63763,404.63187 418.84494,403.97869 C 420.12856,399.93434 419.33425,400.1173 419.33425,400.1173 L 414.83355,400.6109 C 418.67073,399.03126 422.94686,391.28133 419.76289,386.04917 C 418.47698,386.79538 417.19106,387.38627 415.90514,387.28322 C 418.74283,381.86036 419.52332,377.52591 416.54863,372.25333 C 407.11696,377.26836 406.47695,374.85817 406.47695,374.85817 L 415.26404,364.9858 C 409.53131,363.19652 403.24265,361.38902 397.26122,363.01134 L 401.33329,357.33472 C 397.51997,355.78692 391.72521,355.20443 386.88243,356.68213 C 385.44636,357.12033 384.09399,357.73969 382.90184,358.56877 L 386.54527,353.63259 C 375.56643,353.63259 366.70334,357.61584 363.53737,368.8402 C 366.82188,367.98072 375.62766,368.397 380.54839,376.42704 C 387.5654,387.87798 379.01017,401.13177 367.40481,401.73093 C 351.99975,402.52018 342.0186,381.62984 358.48796,370.5466 C 365.37816,365.90977 361.14704,356.18438 353.08162,356.7513 C 347.87683,357.11715 337.37349,365.48361 341.74108,369.91664 C 342.5805,370.77024 342.82468,373.50422 342.49137,375.91891 C 341.46159,383.37913 343.3178,382.88175 344.63503,376.34765 C 345.5328,371.89429 350.31575,369.5951 350.20857,365.62931 C 350.15507,363.59635 353.86057,359.69814 356.18486,362.56279 C 360.01235,367.28008 343.42799,371.64001 342.94368,391.23568 z" sodipodi:nodetypes="csssscccccccccccccssssssssss"/>
  </g>
</svg>
