<?xml version="1.0" encoding="UTF-8" standalone="no"?>
<!-- Hand cleaned version of the file from:
   -   http://en.wikipedia.org/wiki/Image:MasterCard_Logo.svg
  -->
<svg version="1.0"
     xmlns:svg="http://www.w3.org/2000/svg"
     xmlns="http://www.w3.org/2000/svg"
     xmlns:xlink="http://www.w3.org/1999/xlink"
     viewBox="0 0 1890 1260" width="100%" height="100%">
  <style type="text/css">
    [class~=yellow] { fill: #DEA635; }
    #redcircle { fill: #9c1f1b; }
    [class~=shadow] { fill: #254473; }
    [class~=letters], [class~=white] { fill: white; }
  </style>
  <defs>
    <g id="MasterCard">
      <path id="M" class="letter"
            d="M 215.7549,746.79375 L 247.84287,557.58146 L 252.55202,746.79375 L 288.86389,746.79375 L 356.60066,557.58146 L 326.59517,746.79375 L 380.55145,746.79375 L 422.1021,495.8342 L 338.66848,495.8342 L 286.70861,649.8116 L 284.00281,495.8342 L 207.09012,495.8342 L 164.94137,746.79375 L 215.7549,746.79375 z" />
      <path id="a" class="letter"
            d="M 501.1236,537.79263 C 464.98164,537.79263 437.28377,549.40445 437.28377,549.40445 L 429.63192,594.80898 C 429.63192,594.80898 452.49989,585.51626 487.0655,585.51626 C 506.69134,585.51626 521.05012,587.72339 521.05012,603.67224 C 521.05012,613.35832 519.29524,616.9357 519.29524,616.9357 C 519.29524,616.9357 503.80877,615.6403 496.64086,615.6403 C 451.05849,615.6403 403.17903,635.09724 403.17903,693.7438 C 403.17903,739.96307 434.59023,750.55898 454.06148,750.55898 C 491.24921,750.55898 507.27807,726.42551 508.128,726.36087 L 506.39491,746.5024 C 506.39491,746.5024 552.79773,746.50804 552.79852,746.5024 L 573.50036,601.35756 C 573.50036,539.77459 519.78308,537.79263 501.1236,537.79263 z M 512.41807,655.96743 C 513.42286,664.8387 506.86545,706.40445 475.12285,706.40445 C 458.75373,706.40445 454.50032,693.88868 454.50032,686.50768 C 454.50032,672.07379 462.33806,654.76846 500.95465,654.76846 C 509.9465,654.76846 510.90381,655.72923 512.41807,655.96743 z" />
      <path id="s" class="letter"
            d="M 622.82706,749.4968 C 634.69892,749.4968 702.56228,752.50923 702.56228,682.4891 C 702.56228,617.01954 639.74305,629.94525 639.74305,603.6453 C 639.74305,590.55234 649.98177,586.4294 668.70206,586.4294 C 676.12772,586.4294 704.72067,588.7953 704.72051,588.7964 L 711.36645,542.26372 C 711.36538,542.27024 692.86541,538.12212 662.74379,538.12212 C 623.7566,538.12212 584.17543,553.69156 584.17543,606.93959 C 584.17543,667.28232 650.16533,661.22756 650.16533,686.64127 C 650.16533,703.6052 631.72901,705.0001 617.51863,705.0001 C 592.92998,705.0001 570.79406,696.56606 570.71805,696.95997 L 563.68648,743.0349 C 564.96232,743.4165 578.61654,749.4968 622.82706,749.4968 z" />
      <path id="t" class="letter"
            d="M 791.00086,744.02151 L 797.59493,699.22416 C 793.99526,699.22416 788.69449,700.77798 784.01568,700.77798 C 765.66887,700.77798 763.64983,691.0202 764.81865,683.80943 L 779.63558,592.3994 L 807.52135,592.3994 L 814.24786,542.85329 L 787.96709,542.85329 L 793.31753,512.03127 L 740.61417,512.03127 C 739.45062,513.19487 709.5033,685.33928 709.5033,706.307 C 709.5033,737.34734 726.92686,751.16461 751.4911,750.941 C 770.73277,750.76743 785.71701,745.43731 791.00086,744.02151 z" />
      <path id="e" class="letter"
            d="M 807.69562,658.60196 C 807.69562,733.08943 856.85609,750.78115 898.74414,750.78115 C 937.40859,750.78115 954.42041,742.15242 954.42041,742.15242 L 963.70911,691.31907 C 963.70911,691.31907 934.29855,704.28262 907.74184,704.28262 C 851.14713,704.28262 861.0655,662.07876 861.0655,662.07876 L 968.17041,662.07876 C 968.17041,662.07876 975.09527,627.93133 975.09527,614.02435 C 975.09527,579.29602 957.80794,536.98649 899.93826,536.98649 C 846.92947,536.98649 807.69562,594.08554 807.69562,658.60196 z M 900.128,584.17251 C 929.8686,584.17251 924.38149,617.60033 924.38149,620.30304 L 865.86684,620.30304 C 865.86684,616.85163 871.39527,584.17251 900.128,584.17251 z" />
      <path id="r" class="letter"
            d="M 1027.7839,747.14232 C 1043.1284,659.90716 1045.9709,589.06749 1082.569,602.03643 C 1088.9875,568.26713 1095.1668,555.20825 1102.1582,540.91597 C 1102.1582,540.91597 1098.8804,540.23023 1091.9985,540.23023 C 1068.397,540.23023 1050.8986,572.48074 1050.8986,572.48074 L 1055.5994,542.86355 L 1006.5203,542.86355 L 973.64815,747.14232 L 1027.7839,747.14232 z" />
      <path id="C" class="letter"
            d="M 1233.8655,743.99886 L 1243.3016,686.55208 C 1243.3016,686.55208 1217.4271,699.51247 1199.688,699.51247 C 1162.2995,699.51247 1147.3022,670.96093 1147.3022,640.29488 C 1147.3022,578.07928 1179.4778,543.84832 1215.2783,543.84832 C 1242.1387,543.84832 1263.6905,558.92743 1263.6905,558.92743 L 1272.2985,503.10116 C 1272.2985,503.10116 1240.3403,490.16374 1212.9421,490.16374 C 1152.0905,490.16374 1092.9062,542.94999 1092.9062,642.0837 C 1092.9062,707.80162 1124.8611,751.22415 1187.7566,751.22415 C 1205.5326,751.22415 1233.8655,743.99886 1233.8655,743.99886 z" />
      <path id="d" class="letter"
            d="M 1670.4256,496.0341 L 1659.0655,566.57876 C 1659.0655,566.57876 1639.2253,539.17585 1608.1562,539.17585 C 1559.877,539.17585 1519.6143,597.40129 1519.6143,664.30052 C 1519.6143,707.48513 1541.0894,749.79833 1584.977,749.79833 C 1616.5551,749.79833 1634.0543,727.78076 1634.0543,727.78076 L 1631.7344,746.57876 L 1682.9959,746.57876 L 1723.2679,495.95524 L 1670.4256,496.0341 z M 1645.9591,633.58171 C 1645.9591,661.4232 1632.17,698.59885 1603.6013,698.59885 C 1584.6315,698.59885 1575.7381,682.67999 1575.7381,657.6845 C 1575.7381,616.81912 1594.0925,589.86001 1617.2479,589.86001 C 1636.2177,589.86001 1645.9591,602.89261 1645.9591,633.58171 z" />
      <use transform="translate(847.0062,0)" xlink:href="#a" />
      <use transform="translate(442.2857,0)" xlink:href="#r" />
    </g>
    <path id="reg"
          d="M 1722.3411,876.77807 C 1725.0272,876.7781 1727.6497,877.47084 1730.2086,878.85627 C 1732.7674,880.22763 1734.7608,882.19979 1736.1887,884.77277 C 1737.6165,887.33166 1738.3305,890.00363 1738.3305,892.78868 C 1738.3305,895.54548 1737.6236,898.19624 1736.2099,900.74097 C 1734.8103,903.2857 1732.8381,905.26494 1730.2934,906.67867 C 1727.7628,908.07828 1725.112,908.77808 1722.3411,908.77808 C 1719.5702,908.77808 1716.9123,908.07828 1714.3676,906.67867 C 1711.837,905.26494 1709.8648,903.2857 1708.4511,900.74097 C 1707.0374,898.19624 1706.3305,895.54548 1706.3305,892.78868 C 1706.3305,890.00363 1707.0444,887.33166 1708.4723,884.77277 C 1709.9143,882.19979 1711.9148,880.22763 1714.4736,878.85627 C 1717.0325,877.47084 1719.655,876.7781 1722.3411,876.77807 M 1722.3411,879.42884 C 1720.0932,879.42886 1717.9019,880.0085 1715.7672,881.16774 C 1713.6466,882.31289 1711.9854,883.9599 1710.7838,886.10876 C 1709.5821,888.24352 1708.9813,890.47016 1708.9813,892.78868 C 1708.9813,895.09309 1709.568,897.30559 1710.7414,899.42619 C 1711.9289,901.53267 1713.583,903.17967 1715.7036,904.36721 C 1717.8242,905.54062 1720.0367,906.12732 1722.3411,906.12732 C 1724.6455,906.12732 1726.858,905.54062 1728.9786,904.36721 C 1731.0992,903.17967 1732.7462,901.53267 1733.9196,899.42619 C 1735.093,897.30559 1735.6797,895.09309 1735.6797,892.78868 C 1735.6797,890.47016 1735.0789,888.24352 1733.8772,886.10876 C 1732.6896,883.9599 1731.0285,882.31289 1728.8938,881.16774 C 1726.759,880.0085 1724.5748,879.42886 1722.3411,879.42884 M 1715.3219,901.63162 L 1715.3219,884.41227 L 1721.2384,884.41227 C 1723.26,884.41229 1724.7232,884.57487 1725.628,884.90001 C 1726.5328,885.21106 1727.2538,885.76241 1727.7911,886.55409 C 1728.3283,887.3458 1728.5969,888.18698 1728.5969,889.07761 C 1728.5969,890.33586 1728.1445,891.43151 1727.2397,892.36456 C 1726.349,893.29764 1725.1615,893.82072 1723.6771,893.93381 C 1724.285,894.1883 1724.7727,894.49225 1725.1403,894.84567 C 1725.833,895.52428 1726.6813,896.66234 1727.685,898.25985 L 1729.7844,901.63162 L 1726.3915,901.63162 L 1724.8646,898.91724 C 1723.6629,896.78251 1722.6945,895.44652 1721.9594,894.90929 C 1721.4504,894.51346 1720.7082,894.31553 1719.7327,894.31552 L 1718.0999,894.31552 L 1718.0999,901.63162 L 1715.3219,901.63162 M 1718.0999,891.94043 L 1721.4716,891.94043 C 1723.0833,891.94045 1724.1789,891.70012 1724.7586,891.21943 C 1725.3523,890.73877 1725.6492,890.10259 1725.6492,889.31088 C 1725.6492,888.80195 1725.5079,888.34956 1725.2251,887.95369 C 1724.9424,887.54372 1724.5465,887.23977 1724.0376,887.04183 C 1723.5428,886.84392 1722.6168,886.74496 1721.2596,886.74494 L 1718.0999,886.74494 L 1718.0999,891.94043" />
  </defs>

  <g id="background">
    <path id="yellowcircle" class="yellow"
          d="M 532.1739 376.95651 A 233.47826 207.39131 0 1 1  65.217392,376.95651 A 233.47826 207.39131 0 1 1  532.1739 376.95651 z"
          transform="matrix(2.120112,0,0,2.386792,643.7318,-281.7169)" />
    <path id="redcircle"
          d="M 609.8125,123 C 338.04302,124.72314 118,345.8274 118,618 C 118,891.23996 339.75998,1113.0001 613,1113 C 741.24025,1113 858.13644,1064.1228 946.09375,984.03125 C 946.08283,984.0215 946.0734,984.00974 946.0625,984 L 946.15625,984 C 964.17272,967.59024 980.9707,949.88054 996.40625,931 L 895,931 C 881.4573,914.63871 869.15255,897.59843 858.09375,880 L 1033,880 C 1043.6381,862.99179 1053.2663,845.30807 1061.8125,827 L 829.21875,827 C 821.29056,809.99741 814.40895,792.62642 808.53125,775 L 1082.5312,775 C 1099.0386,725.65945 1108,672.87179 1108,618 C 1108,581.62079 1104.0538,546.15223 1096.5938,512 L 794,512 C 797.753,494.42911 802.4767,477.06405 808.125,460 L 1082.2188,460 C 1076.1012,441.8423 1068.9738,424.14868 1060.875,407 L 829.1875,407 C 837.5385,389.14436 847.01315,371.77756 857.59375,355 L 1032.375,355 C 1020.7262,336.47391 1007.865,318.76786 993.9375,302 L 896.5,302 C 911.56919,284.26719 928.15171,267.56879 946.15625,252 C 858.19327,171.88158 741.26446,123 613,123 C 611.93266,123 610.87826,122.99324 609.8125,123 z" />
  </g>
  <use transform="translate(0,0)" xlink:href="#reg" class="yellow" />
  <use transform="translate(-14,14)" xlink:href="#MasterCard" class="shadow" />
  <use transform="translate(0,0)" xlink:href="#MasterCard" class="letters" />
  <use transform="translate(0,-175)" xlink:href="#yellow-r" id="reg" />
  <use transform="translate(2,-165)" xlink:href="#reg" class="white" />
</svg>
