<?xml version="1.0" encoding="UTF-8" standalone="no"?>
<!-- Created with Inkscape (http://www.inkscape.org/) -->
<svg
   xmlns:dc="http://purl.org/dc/elements/1.1/"
   xmlns:cc="http://creativecommons.org/ns#"
   xmlns:rdf="http://www.w3.org/1999/02/22-rdf-syntax-ns#"
   xmlns:svg="http://www.w3.org/2000/svg"
   xmlns="http://www.w3.org/2000/svg"
   xmlns:sodipodi="http://sodipodi.sourceforge.net/DTD/sodipodi-0.dtd"
   xmlns:inkscape="http://www.inkscape.org/namespaces/inkscape"
   width="100%"
   height="100%"
   id="svg5274"
   sodipodi:version="0.32"
   inkscape:version="0.46"
   version="1.0"
   sodipodi:docname="stock_sale.svg"
   inkscape:output_extension="org.inkscape.output.svg.inkscape"
   viewBox="0 0 487.16491 222.89859">
  <defs
     id="defs5276">
    <inkscape:perspective
       sodipodi:type="inkscape:persp3d"
       inkscape:vp_x="0 : 526.18109 : 1"
       inkscape:vp_y="0 : 1000 : 0"
       inkscape:vp_z="744.09448 : 526.18109 : 1"
       inkscape:persp3d-origin="372.04724 : 350.78739 : 1"
       id="perspective5282" />
    <inkscape:perspective
       id="perspective5328"
       inkscape:persp3d-origin="372.04724 : 350.78739 : 1"
       inkscape:vp_z="744.09448 : 526.18109 : 1"
       inkscape:vp_y="0 : 1000 : 0"
       inkscape:vp_x="0 : 526.18109 : 1"
       sodipodi:type="inkscape:persp3d" />
    <inkscape:perspective
       sodipodi:type="inkscape:persp3d"
       inkscape:vp_x="0 : 526.18109 : 1"
       inkscape:vp_y="0 : 1000 : 0"
       inkscape:vp_z="744.09448 : 526.18109 : 1"
       inkscape:persp3d-origin="372.04724 : 350.78739 : 1"
       id="perspective10" />
    <inkscape:perspective
       id="perspective2390"
       inkscape:persp3d-origin="372.04724 : 350.78739 : 1"
       inkscape:vp_z="744.09448 : 526.18109 : 1"
       inkscape:vp_y="0 : 1000 : 0"
       inkscape:vp_x="0 : 526.18109 : 1"
       sodipodi:type="inkscape:persp3d" />
    <inkscape:perspective
       id="perspective2403"
       inkscape:persp3d-origin="372.04724 : 350.78739 : 1"
       inkscape:vp_z="744.09448 : 526.18109 : 1"
       inkscape:vp_y="0 : 1000 : 0"
       inkscape:vp_x="0 : 526.18109 : 1"
       sodipodi:type="inkscape:persp3d" />
    <inkscape:perspective
       id="perspective2461"
       inkscape:persp3d-origin="50 : 33.333333 : 1"
       inkscape:vp_z="100 : 50 : 1"
       inkscape:vp_y="0 : 1000 : 0"
       inkscape:vp_x="0 : 50 : 1"
       sodipodi:type="inkscape:persp3d" />
    <inkscape:perspective
       sodipodi:type="inkscape:persp3d"
       inkscape:vp_x="0 : 526.18109 : 1"
       inkscape:vp_y="0 : 1000 : 0"
       inkscape:vp_z="744.09448 : 526.18109 : 1"
       inkscape:persp3d-origin="372.04724 : 350.78739 : 1"
       id="perspective6529" />
    <inkscape:perspective
       id="perspective6483"
       inkscape:persp3d-origin="372.04724 : 350.78739 : 1"
       inkscape:vp_z="744.09448 : 526.18109 : 1"
       inkscape:vp_y="0 : 1000 : 0"
       inkscape:vp_x="0 : 526.18109 : 1"
       sodipodi:type="inkscape:persp3d" />
    <clipPath
       clipPathUnits="userSpaceOnUse"
       id="clipPath8156">
      <rect
         style="opacity:0.61471863;fill:#ff072f;fill-opacity:1;stroke:none;stroke-width:1.70000005;stroke-linecap:round;stroke-linejoin:round;stroke-miterlimit:4;stroke-dasharray:none;stroke-dashoffset:0;stroke-opacity:1"
         id="rect8158"
         width="280.1796"
         height="153.43167"
         x="138.85701"
         y="290.46609"
         rx="4.4472947"
         ry="4.4472947" />
    </clipPath>
    <clipPath
       clipPathUnits="userSpaceOnUse"
       id="clipPath8162">
      <rect
         style="opacity:0.61471863;fill:#ff072f;fill-opacity:1;stroke:none;stroke-width:1.70000005;stroke-linecap:round;stroke-linejoin:round;stroke-miterlimit:4;stroke-dasharray:none;stroke-dashoffset:0;stroke-opacity:1"
         id="rect8164"
         width="273.50864"
         height="375.79639"
         x="128.20273"
         y="441.33429"
         rx="4.4472947"
         ry="4.4472947" />
    </clipPath>
  </defs>
  <sodipodi:namedview
     id="base"
     pagecolor="#ffffff"
     bordercolor="#666666"
     borderopacity="1.0"
     gridtolerance="10000"
     guidetolerance="10"
     objecttolerance="10"
     inkscape:pageopacity="0.0"
     inkscape:pageshadow="2"
     inkscape:zoom="2"
     inkscape:cx="298.75671"
     inkscape:cy="90.626957"
     inkscape:document-units="px"
     inkscape:current-layer="layer1"
     showgrid="false"
     showguides="true"
     inkscape:guide-bbox="true"
     inkscape:window-width="1680"
     inkscape:window-height="975"
     inkscape:window-x="0"
     inkscape:window-y="25" />
  <metadata
     id="metadata5279">
    <rdf:RDF>
      <cc:Work
         rdf:about="">
        <dc:format>image/svg+xml</dc:format>
        <dc:type
           rdf:resource="http://purl.org/dc/dcmitype/StillImage" />
      </cc:Work>
    </rdf:RDF>
  </metadata>
  <g
     inkscape:label="Layer 1"
     inkscape:groupmode="layer"
     id="layer1"
     transform="translate(-55.04033,-364.30084)">
    <g
       id="g7695">
      <path
         sodipodi:nodetypes="csccccccssccccccscc"
         style="fill:#000000;fill-opacity:0.5;fill-rule:evenodd;stroke-width:1pt"
         d="M 98.701049,453.9787 C 88.463249,453.9787 80.419799,463.12668 80.419799,471.32245 C 80.419799,476.91516 84.333909,481.72826 90.044799,484.25995 C 82.479099,485.7159 75.635549,488.22624 71.576049,492.07245 C 62.946009,503.527 66.138949,512.53592 65.982299,514.1662 C 66.755039,515.03225 71.687639,518.35806 75.357299,518.1037 C 74.986119,510.6178 77.138549,500.13495 77.138549,500.13495 C 76.668599,500.51116 74.968049,514.64144 75.513549,518.13495 C 75.464089,518.13976 75.407239,518.10024 75.357299,518.1037 C 75.359239,518.14288 75.355219,518.18968 75.357299,518.2287 C 75.757289,524.71856 79.009929,539.63089 80.419799,540.88495 C 94.238959,542.86831 107.44279,542.60005 121.88855,541.19745 C 123.31043,534.21102 123.68766,527.37045 124.0448,520.2287 C 123.25597,509.18607 121.16234,501.69014 121.2323,501.8537 C 122.86878,506.65727 124.0448,520.2287 124.0448,520.2287 C 128.82648,519.4143 132.20062,518.58042 136.9823,515.88495 C 138.54882,514.25467 139.3237,504.95517 132.2323,492.2912 C 129.25142,486.96788 120.28843,484.00989 110.01355,483.1662 C 125.18793,472.32139 113.64026,455.74162 98.701049,453.9787 z"
         id="path861" />
      <path
         sodipodi:nodetypes="ccccccccccccc"
         id="path828"
         d="M 61.86018,510.69641 C 62.016829,509.06614 58.813835,500.05679 67.443877,488.60224 C 80.460167,476.26984 121.01117,476.12861 128.10258,488.79258 C 135.19399,501.45655 134.42188,510.78611 132.85536,512.41639 C 128.07368,515.11187 124.70187,515.92626 119.92018,516.74066 C 119.92018,516.74066 118.74251,503.18545 117.10603,498.38188 C 117.03607,498.21832 119.13135,505.7025 119.92018,516.74512 C 118.8292,527.66234 117.73821,537.70172 117.73821,537.70172 C 103.29246,539.10432 90.099913,539.37826 76.280755,537.3949 C 74.870891,536.14084 71.614667,521.23498 71.214672,514.74511 C 70.814677,507.25201 73.007801,496.65298 73.007801,496.65298 C 72.537849,497.02919 70.825829,511.15096 71.371326,514.64447 C 67.687219,515.00283 62.643439,511.57425 61.86018,510.69641 z"
         style="fill:#2200a9;fill-opacity:1;fill-rule:evenodd;stroke:#000000;stroke-width:1.25;stroke-linejoin:round;stroke-dasharray:none;stroke-opacity:1" />
      <path
         id="path827"
         d="M 113.37427,467.83152 C 113.37427,476.02729 105.06532,482.67894 94.827512,482.67894 C 84.589708,482.67894 76.280755,476.02729 76.280755,467.83152 C 76.280755,459.63575 84.589708,452.9841 94.827512,452.9841 C 105.06532,452.9841 113.37427,459.63575 113.37427,467.83152 z"
         style="fill:#2200a9;fill-opacity:1;fill-rule:evenodd;stroke:#000000;stroke-width:1.25;stroke-linejoin:round;stroke-dasharray:none;stroke-opacity:1" />
      <path
         sodipodi:nodetypes="ccc"
         id="path830"
         d="M 94.556741,454.10444 C 86.479956,451.41218 67.45464,465.41194 82.531305,477.97582 C 91.684995,476.18098 74.095551,461.64277 94.556741,454.10444 z"
         style="fill:#ffffff;fill-opacity:0.25;fill-rule:evenodd;stroke:none;stroke-width:1pt;stroke-linecap:butt;stroke-linejoin:miter;stroke-opacity:1" />
      <path
         sodipodi:nodetypes="ccccc"
         id="path831"
         d="M 85.223567,481.56551 C 84.326147,481.38602 72.300711,483.53983 67.993091,489.46281 C 64.403409,491.61662 60.993211,501.84721 62.429084,510.10348 C 64.223925,511.53935 67.634123,513.87265 68.531544,513.3342 C 73.557099,502.74463 56.685592,491.7961 85.223567,481.56551 z"
         style="fill:#ffffff;fill-opacity:0.25;fill-rule:evenodd;stroke:none;stroke-width:1pt;stroke-linecap:butt;stroke-linejoin:miter;stroke-opacity:1" />
      <path
         sodipodi:nodetypes="cccc"
         id="path832"
         d="M 73.198131,499.51392 C 69.608448,510.46245 73.018647,530.02622 76.967298,536.48765 C 80.915948,537.74404 86.479956,538.28249 87.736344,537.92352 C 88.813249,528.76983 72.839163,530.02622 73.198131,499.51392 z"
         style="fill:#ffffff;fill-opacity:0.25;fill-rule:evenodd;stroke:none;stroke-width:1pt;stroke-linecap:butt;stroke-linejoin:miter;stroke-opacity:1" />
      <path
         sodipodi:nodetypes="ccc"
         id="path833"
         d="M 95.633645,481.92448 C 110.88979,477.79634 106.94115,461.46329 113.76154,465.95039 C 113.22309,469.36059 111.06928,481.38602 95.633645,481.92448 z"
         style="fill:#000000;fill-opacity:0.25;fill-rule:evenodd;stroke:none;stroke-width:1pt;stroke-linecap:butt;stroke-linejoin:miter;stroke-opacity:1" />
      <path
         sodipodi:nodetypes="cccc"
         id="path834"
         d="M 124.3511,514.94955 C 124.3511,514.94955 132.60737,513.3342 132.96634,511.71884 C 134.94067,505.43689 129.55614,490.53971 127.04337,488.02694 C 114.83845,483.71932 140.32519,512.97523 124.3511,514.94955 z"
         style="fill:#000000;fill-opacity:0.25;fill-rule:evenodd;stroke:none;stroke-width:1pt;stroke-linecap:butt;stroke-linejoin:miter;stroke-opacity:1" />
      <path
         sodipodi:nodetypes="cccc"
         id="path835"
         d="M 108.01805,537.92352 C 108.01805,537.92352 115.91535,538.46197 116.81277,537.0261 C 117.71019,535.59023 121.83833,523.02634 119.32555,516.92388 C 111.06928,510.10348 122.37678,537.74404 108.01805,537.92352 z"
         style="fill:#000000;fill-opacity:0.25;fill-rule:evenodd;stroke:none;stroke-width:1pt;stroke-linecap:butt;stroke-linejoin:miter;stroke-opacity:1" />
    </g>
    <g
       id="g7436"
       transform="translate(1.0101529,-1.010154)">
      <g
         inkscape:label="Layer 1"
         id="g6076"
         transform="matrix(0.1288898,0,0,0.1288898,59.266991,354.19068)">
        <path
           style="fill:#141414;fill-opacity:1;stroke:#000000;stroke-opacity:1"
           d="M 269.80128,730.37142 C 266.61223,729.60641 264.18648,727.82635 259.29951,722.66509 C 255.80434,718.97374 250.35796,713.56557 247.19643,710.64694 C 244.0349,707.7283 241.4482,704.51828 241.4482,703.51357 C 241.4482,702.50885 240.5482,701.45146 239.4482,701.1638 C 238.00401,700.78614 237.4482,699.79979 237.4482,697.61456 C 237.4482,695.46658 238.02863,694.4041 239.4482,693.95355 C 240.5482,693.60442 241.4482,692.72658 241.4482,692.00279 C 241.4482,691.279 240.5482,690.45146 239.4482,690.1638 C 237.03736,689.53335 236.65627,684.69467 238.9482,683.81518 C 239.7732,683.49859 240.4482,682.43586 240.4482,681.45355 C 240.4482,680.47124 239.7732,679.40851 238.9482,679.09192 C 236.66455,678.21561 237.13241,673.90927 239.6982,672.18862 L 241.9482,670.67975 L 239.6982,667.60714 C 238.07719,665.39348 237.4482,663.14197 237.4482,659.55306 C 237.4482,656.81325 236.9982,654.29347 236.4482,653.95355 C 235.8982,653.61363 235.4482,651.95429 235.4482,650.26613 C 235.4482,647.86753 234.05311,645.71787 229.06453,640.42972 C 221.47476,632.38417 218.78336,625.63423 217.41727,611.21883 C 216.3992,600.47579 216.00163,564.98514 216.88337,563.55844 C 217.21197,563.02676 217.02348,562.30909 216.46451,561.96363 C 215.90554,561.61817 215.4482,559.82435 215.4482,557.97737 C 215.4482,555.15267 216.3342,553.84206 221.02576,549.72682 C 226.44758,544.97102 226.61899,544.66156 227.16465,538.64398 C 227.63333,533.47528 228.03315,532.45355 229.58709,532.45355 C 231.32913,532.45355 231.4482,531.36276 231.4482,515.40389 C 231.4482,496.42711 231.13143,495.18136 224.44663,487.86941 C 219.55473,482.51857 218.15298,477.97089 218.60943,468.93183 C 218.89782,463.22085 219.4931,460.88409 221.27276,458.47697 L 223.56469,455.37697 L 219.03118,450.33462 C 210.4885,440.8331 210.26564,429.15443 218.47754,421.32093 L 222.28563,417.68831 L 218.87928,414.38675 C 214.26271,409.9122 212.00039,403.73733 212.81095,397.82362 C 213.53035,392.57506 216.56865,387.07596 219.98643,384.83654 L 222.29843,383.32166 L 219.87331,379.74806 C 214.96936,372.52169 217.37198,365.55282 226.33284,361.01201 C 231.35748,358.46583 250.1469,354.926 263.9482,353.92547 C 268.3482,353.60649 273.83769,352.86778 276.14708,352.28388 C 279.28827,351.48968 281.1775,351.53754 283.64708,352.47391 C 285.46269,353.16232 294.17164,354.28478 303.00028,354.96826 C 315.7885,355.95828 319.9139,356.65048 323.28951,358.37259 C 332.56981,363.10705 334.93904,374.47466 328.38267,382.80972 L 326.43101,385.29086 L 329.6896,385.98093 C 334.69404,387.0407 340.49076,390.63518 342.04624,393.64313 C 345.55307,400.4246 342.28446,412.60071 335.83643,416.77574 C 332.34432,419.03684 331.5292,420.45355 333.72036,420.45355 C 336.10632,420.45355 342.70205,426.80227 344.55539,430.88281 C 346.656,435.50778 346.86312,438.41985 345.45258,443.49727 C 344.43927,447.14479 339.48367,453.25457 335.9482,455.21523 C 334.02395,456.28237 334.07558,456.45614 337.31139,459.80335 C 343.95559,466.6763 342.41959,477.20362 332.86329,490.2892 C 329.89336,494.35598 326.99682,499.41613 326.42654,501.53398 C 325.85626,503.65184 325.51534,511.36264 325.66893,518.66909 L 325.9482,531.95355 L 328.6982,532.26997 C 331.3683,532.5772 331.4482,532.76643 331.4482,538.78314 L 331.4482,544.97989 L 336.9482,549.27545 C 342.14448,553.3338 342.4482,553.81626 342.4482,558.01228 C 342.4482,560.89046 342.00827,562.45894 341.1982,562.46886 C 340.25728,562.48039 340.27631,562.69219 341.27514,563.32543 C 342.34664,564.00475 342.48007,568.7661 341.96826,588.06012 C 341.0586,622.35227 339.06732,630.35035 328.63333,641.6203 C 324.7194,645.84781 323.12723,648.37894 323.05261,650.49218 C 322.97815,652.60079 322.44619,653.44964 321.1982,653.45127 C 319.64835,653.45329 319.4482,654.59728 319.4482,663.45355 C 319.4482,669.45355 319.0482,673.45355 318.4482,673.45355 C 316.55329,673.45355 317.45275,675.98129 319.6982,676.96642 C 321.1683,677.61139 321.9482,678.82011 321.9482,680.45355 C 321.9482,682.08699 321.1683,683.29571 319.6982,683.94068 C 316.82777,685.2 316.86883,685.84391 319.9482,687.86159 C 321.3232,688.76253 322.4482,690.39893 322.4482,691.49804 C 322.4482,692.65923 321.40086,693.97363 319.9482,694.6355 C 317.77961,695.62358 317.4482,696.42028 317.4482,700.64545 C 317.4482,703.7604 316.97177,705.69914 316.1266,706.02347 C 314.54998,706.62847 301.04041,719.6355 297.35075,724.10088 C 295.92214,725.82983 293.28222,728.00514 291.48424,728.93491 C 287.54797,730.97044 275.59845,731.7621 269.80128,730.37142 z"
           id="path3543" />
        <path
           style="fill:#b17c3a;fill-opacity:1"
           d="M 287.93805,727.4434 C 289.20076,726.9008 285.5143,726.58397 277.93805,726.58397 C 270.3618,726.58397 266.67534,726.9008 267.93805,727.4434 C 269.03805,727.91609 273.53805,728.30283 277.93805,728.30283 C 282.33805,728.30283 286.83805,727.91609 287.93805,727.4434 z"
           id="path3541" />
        <path
           style="fill:#323232;fill-opacity:1"
           d="M 297.89469,720.95355 L 301.5821,716.45355 L 278.9482,716.45355 L 256.3143,716.45355 L 260.00171,720.95355 L 263.68912,725.45355 L 278.9482,725.45355 L 294.20728,725.45355 L 297.89469,720.95355 z"
           id="path3539" />
        <g
           id="g4088"
           style="fill:#9b9bb0;fill-opacity:1;stroke:none;stroke-opacity:1">
          <path
             id="path3537"
             d="M 308.23413,710.70355 L 311.57086,706.95355 L 279.35692,706.6895 C 261.63925,706.54427 246.90491,706.66351 246.61394,706.95448 C 246.32297,707.24545 247.60492,709.05177 249.46272,710.96853 L 252.84053,714.45355 L 278.86896,714.45355 L 304.89739,714.45355 L 308.23413,710.70355 z"
             style="fill:#9b9bb0;fill-opacity:1;stroke:none;stroke-opacity:1" />
          <g
             style="fill:#9b9bb0;fill-opacity:1;stroke:none;stroke-opacity:1"
             id="g4074">
            <g
               id="g4058"
               style="fill:#9b9bb0;fill-opacity:1;stroke:none;stroke-opacity:1">
              <path
                 id="path3535"
                 d="M 315.4482,702.95355 C 315.4482,701.64799 310.78153,701.45355 279.4482,701.45355 C 248.11487,701.45355 243.4482,701.64799 243.4482,702.95355 C 243.4482,704.25911 248.11487,704.45355 279.4482,704.45355 C 310.78153,704.45355 315.4482,704.25911 315.4482,702.95355 z"
                 style="fill:#9b9bb0;fill-opacity:1;stroke:none;stroke-opacity:1" />
              <path
                 id="path3533"
                 d="M 283.9482,696.90748 C 314.9474,694.50092 321.47009,693.59912 321.43289,691.72499 C 321.36506,688.30816 320.31226,688.30595 279.48579,691.63696 C 238.26485,695.00017 237.35637,695.16591 238.84724,699.05104 C 239.349,700.35862 240.50265,700.54153 245.20422,700.05894 C 248.36341,699.73468 265.7982,698.31652 283.9482,696.90748 z"
                 style="fill:#9b9bb0;fill-opacity:1;stroke:none;stroke-opacity:1" />
              <path
                 id="path3531"
                 d="M 315.4482,697.95355 C 315.4482,696.51741 314.87183,695.45355 314.09377,695.45355 C 310.0031,695.45355 266.03163,699.53678 265.61289,699.95553 C 265.33897,700.22944 276.43987,700.45355 290.28153,700.45355 L 315.4482,700.45355 L 315.4482,697.95355 z"
                 style="fill:#9b9bb0;fill-opacity:1;stroke:none;stroke-opacity:1" />
              <path
                 id="path3529"
                 d="M 276.43506,690.95015 C 314.41236,687.83437 315.4482,687.70007 315.4482,685.89228 C 315.4482,685.10098 315.3357,684.45389 315.1982,684.45431 C 315.0607,684.45472 299.1982,685.80118 279.9482,687.44644 C 260.6982,689.09169 244.6107,690.44135 244.1982,690.44568 C 243.7857,690.45001 243.4482,691.12855 243.4482,691.95355 C 243.4482,693.81453 240.38718,693.90764 276.43506,690.95015 z"
                 style="fill:#9b9bb0;fill-opacity:1;stroke:none;stroke-opacity:1" />
              <path
                 id="path3527"
                 d="M 280.9482,686.35205 C 320.27678,683.13442 323.91103,682.45834 320.41249,679.01048 C 319.13618,677.75266 314.19816,677.95263 281.9482,680.56809 C 237.3497,684.18501 238.4482,684.03945 238.4482,686.3322 C 238.4482,688.53762 239.30199,689.45242 241.36487,689.45727 C 242.2357,689.45932 260.0482,688.06197 280.9482,686.35205 z"
                 style="fill:#9b9bb0;fill-opacity:1;stroke:none;stroke-opacity:1" />
              <path
                 id="path3525"
                 d="M 280.81477,679.76158 C 305.94481,677.71949 314.81213,676.66874 315.18831,675.68842 C 315.46714,674.9618 315.48862,674.16064 315.23605,673.90806 C 314.98347,673.65549 299.11624,674.7999 279.97553,676.45119 C 260.83482,678.10249 244.56088,679.45355 243.81122,679.45355 C 243.06156,679.45355 242.4482,680.12855 242.4482,680.95355 C 242.4482,682.92411 241.5553,682.95185 280.81477,679.76158 z"
                 style="fill:#9b9bb0;fill-opacity:1;stroke:none;stroke-opacity:1" />
              <path
                 id="path3523"
                 d="M 279.4482,675.46076 C 298.4232,673.82545 314.68322,672.47983 315.58157,672.47051 C 317.31053,672.45256 318.63421,669.31485 317.57563,667.74371 C 317.19661,667.18117 301.7054,668.10237 278.4482,670.07047 C 257.2732,671.86236 239.6107,673.3566 239.1982,673.391 C 238.26932,673.46847 238.2047,676.87672 239.11487,677.78688 C 240.11924,678.79126 242.18751,678.67198 279.4482,675.46076 z"
                 style="fill:#9b9bb0;fill-opacity:1;stroke:none;stroke-opacity:1" />
              <path
                 id="path3521"
                 d="M 273.47128,669.45157 C 286.2941,668.35048 297.0096,667.22548 297.28351,666.95157 C 297.55743,666.67766 285.33153,666.45355 270.11487,666.45355 L 242.4482,666.45355 L 242.4482,668.95355 C 242.4482,672.10327 242.56829,672.10519 273.47128,669.45157 z"
                 style="fill:#9b9bb0;fill-opacity:1;stroke:none;stroke-opacity:1" />
            </g>
            <path
               style="fill:#9b9bb0;fill-opacity:1;stroke:none;stroke-opacity:1"
               d="M 317.4482,659.45355 L 317.4482,653.45355 L 277.9482,653.45355 L 238.4482,653.45355 L 238.4482,658.25355 C 238.4482,660.89355 238.9882,663.59355 239.6482,664.25355 C 240.53976,665.14511 250.69264,665.45355 279.1482,665.45355 L 317.4482,665.45355 L 317.4482,659.45355 z"
               id="path3519" />
          </g>
        </g>
        <path
           style="fill:none"
           d="M 327.537,640.26951 C 337.45229,630.35422 339.26245,623.02826 340.12953,589.30565 L 340.76853,564.45355 L 279.09238,564.45355 L 217.41623,564.45355 L 217.98725,587.20355 C 218.85395,621.73406 220.58058,629.16206 230.1407,639.48813 L 235.66363,645.45355 L 279.00829,645.45355 L 322.35296,645.45355 L 327.537,640.26951 z"
           id="path3515" />
        <path
           style="fill:#000000"
           d="M 309.26996,562.70424 C 292.94693,562.55011 265.94693,562.55001 249.26996,562.704 C 232.59299,562.858 245.9482,562.9841 278.9482,562.98423 C 311.9482,562.98436 325.59299,562.85836 309.26996,562.70424 z"
           id="path3513" />
        <path
           style="fill:#ffffff;fill-opacity:1;stroke:#000000;stroke-opacity:1"
           d="M 289.4482,533.95355 C 289.4482,533.12022 290.33709,532.45355 291.4482,532.45355 C 293.3644,532.45355 293.4482,531.78688 293.4482,516.54264 C 293.4482,498.54075 294.80254,492.16372 300.38131,483.89756 C 302.18031,481.23194 303.15588,478.89092 302.60865,478.55271 C 302.07311,478.22173 296.87276,476.64678 291.05231,475.05283 L 280.46968,472.15473 L 267.95894,475.45072 C 261.07803,477.26351 255.4482,478.94878 255.4482,479.19576 C 255.4482,479.44274 256.42449,481.01588 257.61773,482.69164 C 258.81098,484.36739 260.82529,488.26186 262.094,491.34601 C 264.20169,496.46969 264.40278,498.48517 264.42446,514.70355 L 264.4482,532.45355 L 266.97958,532.45355 C 268.37185,532.45355 269.76999,533.12855 270.08657,533.95355 C 270.54169,535.13957 272.62834,535.45355 280.05519,535.45355 C 287.73787,535.45355 289.4482,535.18042 289.4482,533.95355 z"
           id="path3503" />
        <path
           style="fill:none"
           d="M 324.4482,515.27003 L 324.9482,498.58651 L 331.09588,489.72035 C 339.61192,477.43857 341.52716,469.37537 337.49797,462.76737 C 334.25444,457.44786 332.86894,457.22737 322.35869,460.3581 C 317.18292,461.89983 306.5373,464.87861 298.70175,466.97762 C 290.86621,469.07662 284.62629,470.96497 284.83526,471.17395 C 285.04424,471.38293 289.75423,472.81908 295.3019,474.36541 C 305.32042,477.15792 305.4006,477.16358 307.16839,475.2039 C 310.1682,471.87845 318.49955,465.17156 319.004,465.67601 C 319.26565,465.93767 315.49555,470.15715 310.626,475.05265 C 304.59936,481.11139 300.8436,485.86942 298.86394,489.95355 C 296.0292,495.80176 295.94719,496.41596 295.62211,514.23149 L 295.28859,532.50944 L 309.61839,532.23149 L 323.9482,531.95355 L 324.4482,515.27003 z"
           id="path3499" />
        <path
           style="fill:#ffffff;fill-opacity:1"
           d="M 242.6357,410.77044 C 241.91382,410.48156 241.05133,410.51709 240.71903,410.84938 C 240.38674,411.18167 240.97737,411.41802 242.03153,411.3746 C 243.19648,411.32662 243.43343,411.08966 242.6357,410.77044 z"
           id="path2409" />
        <g
           id="g4068"
           style="fill:#fffd25;fill-opacity:1">
          <path
             id="path3501"
             d="M 262.5332,513.95355 L 262.43902,495.95355 L 258.81425,488.71864 C 256.82063,484.73944 254.65247,481.03804 253.99612,480.49332 C 253.18817,479.82278 249.79149,480.30879 243.47877,481.99819 C 235.50255,484.13276 231.89217,484.52809 233.53153,483.08737 C 233.7607,482.88598 254.8732,477.03168 280.4482,470.07782 C 306.72772,462.9324 329.32098,456.24276 332.40476,454.69399 C 339.60416,451.07825 343.59345,445.99735 344.2015,439.66926 C 344.975,431.61928 340.87149,425.55126 332.04317,421.69023 C 329.46631,420.56325 327.54583,420.86705 315.04317,424.37944 C 307.29093,426.55729 297.2357,429.33549 292.6982,430.55324 C 288.1607,431.77098 284.4482,433.1164 284.4482,433.54305 C 284.4482,435.90617 290.14211,435.02741 307.53496,429.97998 C 324.14875,425.15863 329.13807,424.12261 327.36487,425.86235 C 326.77864,426.43751 264.12558,444.46375 245.51771,449.41103 C 237.03094,451.66741 228.58253,454.44348 226.74346,455.58008 C 222.18002,458.40045 220.14578,462.76097 220.03806,469.95355 C 219.91684,478.04774 220.76235,480.53947 225.47961,485.98984 C 233.03859,494.72356 233.4482,496.23742 233.4482,515.44045 L 233.4482,532.50702 L 248.03779,532.23028 L 262.62738,531.95355 L 262.5332,513.95355 z"
             style="fill:#fffd25;fill-opacity:1;stroke:#000000;stroke-opacity:1" />
          <path
             id="path3497"
             d="M 230.17796,452.02827 C 232.25159,451.24437 242.7232,448.25555 253.4482,445.38645 C 264.1732,442.51735 273.31875,439.96174 273.77164,439.70732 C 274.22454,439.4529 273.72938,438.63837 272.67129,437.89725 C 271.00042,436.72693 268.33765,437.19911 252.41817,441.48865 C 236.34604,445.81933 231.91914,446.64928 233.54062,445.0278 C 233.77478,444.79364 245.88728,441.39267 260.45728,437.47009 C 304.28867,425.66968 329.42096,418.51949 332.26105,417.04174 C 338.1774,413.96338 341.65231,408.24303 341.75535,401.41236 C 341.87168,393.70101 338.0353,389.71896 328.40505,387.55519 C 325.0282,386.79646 323.20362,386.96599 319.55001,388.37794 C 317.01902,389.35606 299.09139,394.5789 279.71085,399.98426 C 260.33031,405.38962 244.64393,409.98262 244.85223,410.19091 C 245.25278,410.59147 317.37599,391.1919 321.9461,389.45435 C 323.95117,388.69202 324.5198,388.73874 324.21902,389.64109 C 323.99839,390.30297 322.7222,391.1634 321.38304,391.55316 C 320.04388,391.94292 299.01953,397.70107 274.66228,404.34905 C 250.30502,410.99704 228.48002,417.304 226.16228,418.36453 C 212.83995,424.46046 210.34506,439.28375 220.86996,449.80864 C 225.01112,453.9498 225.06256,453.96207 230.17796,452.02827 z"
             style="fill:#fffd25;fill-opacity:1;stroke:#000000;stroke-opacity:1" />
          <path
             id="path3493"
             d="M 228.49955,415.32002 C 231.02411,414.56364 232.10848,413.73182 231.75859,412.82002 C 231.47019,412.06846 231.52338,411.45355 231.87678,411.45355 C 233.0031,411.45355 313.97951,388.53019 318.55186,386.91698 C 320.96575,386.06531 324.40024,383.95389 326.18407,382.22494 C 334.08646,374.56563 329.99655,361.65327 318.66715,358.49305 C 316.62173,357.9225 309.0982,357.1973 301.9482,356.88149 C 293.51148,356.50884 287.62788,355.75132 285.18685,354.72343 C 282.06858,353.41036 280.52985,353.33108 276.18685,354.25972 C 273.30559,354.87581 267.12258,355.61548 262.44682,355.90344 C 248.79814,356.744 231.68739,360.19854 226.09404,363.24282 C 218.56966,367.33811 217.21021,372.8628 221.94772,380.09316 C 223.23698,382.06081 223.86665,382.29997 225.48194,381.43549 C 226.56295,380.85695 244.66009,375.63093 265.69781,369.82211 C 286.73552,364.01328 304.7357,359.02654 305.6982,358.74045 C 306.6607,358.45436 307.4482,358.66355 307.4482,359.20532 C 307.4482,360.23427 305.85175,360.70809 259.20618,373.52347 C 227.29963,382.28946 224.21248,383.3729 220.07504,387.2566 C 212.3166,394.53922 212.79848,407.86432 221.05516,414.35902 C 224.17888,416.81614 223.70858,416.75543 228.49955,415.32002 z"
             style="fill:#fffd25;fill-opacity:1;stroke:#000000;stroke-opacity:1" />
          <path
             sodipodi:nodetypes="csssccscs"
             id="path4056"
             d="M 284.48421,471.52446 C 284.59556,470.63296 331.55883,455.99406 332.46646,456.75099 C 337.96542,461.33689 340.53593,465.13914 340.54768,470.13551 C 340.57266,480.63887 328.82309,492.01829 325.01658,500.44008 C 323.99421,502.70204 324.25897,531.88108 324.25897,531.88108 L 294.45946,532.25989 C 294.45946,532.25989 294.94188,500.06152 295.46962,497.9147 C 296.56101,493.47495 303.32683,482.47146 304.81353,478.46926 C 303.27861,477.019 284.38117,472.34939 284.48421,471.52446 z"
             style="fill:#fffd25;fill-opacity:1;fill-rule:evenodd;stroke:#000000;stroke-width:1px;stroke-linecap:butt;stroke-linejoin:miter;stroke-opacity:1" />
        </g>
        <g
           id="g4102"
           style="fill:#ece7e6;fill-opacity:1">
          <path
             id="path3517"
             d="M 321.26775,649.70355 L 321.5873,647.45355 L 279.01775,647.45355 C 238.40485,647.45355 236.4482,647.53782 236.4482,649.28688 C 236.4482,650.29522 236.75307,651.42509 237.1257,651.79771 C 237.49832,652.17034 256.51082,652.35784 279.3757,652.21438 L 320.9482,651.95355 L 321.26775,649.70355 z"
             style="fill:#ece7e6;fill-opacity:1" />
          <path
             id="path3511"
             d="M 340.4482,557.38899 C 340.4482,555.18427 339.56276,553.57096 337.29239,551.63899 C 329.48522,544.99548 333.94108,545.46732 278.9482,545.46077 L 228.9482,545.45481 L 223.1982,549.9688 C 218.49026,553.66473 217.4482,555.02383 217.4482,557.46817 L 217.4482,560.45355 L 278.9482,560.45355 L 340.4482,560.45355 L 340.4482,557.38899 z"
             style="fill:#ece7e6;fill-opacity:1" />
          <path
             id="path3509"
             d="M 329.4482,543.5604 C 329.4482,542.4819 321.36506,540.98065 303.9482,538.82439 C 286.71773,536.6912 261.14909,537.37182 242.1982,540.46813 C 234.6357,541.70374 228.4482,543.10593 228.4482,543.58412 C 228.4482,544.06522 251.00426,544.45355 278.9482,544.45355 C 307.92059,544.45355 329.4482,544.07281 329.4482,543.5604 z"
             style="fill:#ece7e6;fill-opacity:1" />
          <path
             id="path3507"
             d="M 329.4482,537.43196 L 329.4482,533.41036 L 310.1982,533.68196 C 289.52417,533.97364 284.61022,535.38554 299.59508,536.72849 C 306.46285,537.34398 328.07104,540.69204 329.1982,541.31531 C 329.3357,541.39134 329.4482,539.64383 329.4482,537.43196 z"
             style="fill:#ece7e6;fill-opacity:1" />
          <path
             id="path3505"
             d="M 239.01454,539.3376 C 242.27805,538.72383 250.08791,537.70471 256.36977,537.07289 C 263.65947,536.33971 267.9403,535.47725 268.2031,534.68884 C 268.52055,533.73649 264.12939,533.45355 249.03153,533.45355 L 229.4482,533.45355 L 229.4482,536.95355 C 229.4482,540.9761 229.81559,541.06766 239.01454,539.3376 z"
             style="fill:#ece7e6;fill-opacity:1" />
          <path
             sodipodi:nodetypes="ccssssc"
             id="path4086"
             d="M 218.95056,563.44835 C 222.95803,561.34658 334.87931,561.35502 339.91634,562.94327 C 342.56366,571.11821 339.91456,609.68311 339.41125,617.49151 C 338.72704,628.10656 327.58846,643.49839 322.74374,645.52324 C 319.6224,646.8278 238.60174,645.77272 235.11301,645.01816 C 231.11586,644.15363 220.57213,629.87479 219.70818,619.00674 C 218.17984,599.78093 215.95325,572.1161 218.95056,563.44835 z"
             style="fill:#ece7e6;fill-opacity:1;fill-rule:evenodd;stroke:none;stroke-width:1px;stroke-linecap:butt;stroke-linejoin:miter;stroke-opacity:1" />
        </g>
      </g>
      <path
         id="path4383"
         d="M 87.030177,370.31099 L 92.780177,394.31099 L 91.280177,365.81099 L 87.030177,370.31099 z"
         style="fill:#f9ff86;fill-opacity:1;fill-rule:evenodd;stroke:#ffff29;stroke-width:1px;stroke-linecap:butt;stroke-linejoin:miter;stroke-opacity:1" />
      <path
         sodipodi:nodetypes="cccc"
         id="path4385"
         d="M 105.28018,396.06099 L 111.28018,380.06099 L 113.78018,382.81099 L 105.28018,396.06099 z"
         style="fill:#f9ff86;fill-opacity:1;fill-rule:evenodd;stroke:#ffff29;stroke-width:1px;stroke-linecap:butt;stroke-linejoin:miter;stroke-opacity:1" />
      <path
         sodipodi:nodetypes="cccc"
         id="path4387"
         d="M 109.78018,408.31099 L 131.78018,393.31099 L 132.03018,399.06099 L 109.78018,408.31099 z"
         style="fill:#f9ff86;fill-opacity:1;fill-rule:evenodd;stroke:#ffff29;stroke-width:1px;stroke-linecap:butt;stroke-linejoin:miter;stroke-opacity:1" />
      <path
         id="path4389"
         d="M 70.780177,382.06099 L 82.280177,395.81099 L 67.280177,384.56099 L 70.780177,382.06099 z"
         style="fill:#f9ff86;fill-opacity:1;fill-rule:evenodd;stroke:#ffff29;stroke-width:1px;stroke-linecap:butt;stroke-linejoin:miter;stroke-opacity:1" />
      <path
         sodipodi:nodetypes="cccc"
         id="path4391"
         d="M 81.030177,407.56099 L 59.280177,402.06099 L 54.530177,404.81099 L 81.030177,407.56099 z"
         style="fill:#f9ff86;fill-opacity:1;fill-rule:evenodd;stroke:#ffff29;stroke-width:1px;stroke-linecap:butt;stroke-linejoin:miter;stroke-opacity:1" />
      <path
         id="path4902"
         d="M 80.530177,416.56099 L 59.030177,426.06099 L 64.530177,427.81099 L 80.530177,416.56099 z"
         style="fill:#f9ff86;fill-opacity:1;fill-rule:evenodd;stroke:#ffff29;stroke-width:1px;stroke-linecap:butt;stroke-linejoin:miter;stroke-opacity:1" />
      <path
         id="path4904"
         d="M 108.78018,415.06099 L 124.03018,421.06099 L 121.53018,423.31099 L 108.78018,415.06099 z"
         style="fill:#f9ff86;fill-opacity:1;fill-rule:evenodd;stroke:#ffff29;stroke-width:1px;stroke-linecap:butt;stroke-linejoin:miter;stroke-opacity:1" />
    </g>
    <g
       id="g7314"
       transform="matrix(0.5369018,0,0,0.5369018,116.06089,259.49987)">
      <rect
         ry="1"
         rx="1"
         y="445.21933"
         x="222.14285"
         height="44.107143"
         width="94.464287"
         id="rect7316"
         style="opacity:1;fill:#489b48;fill-opacity:1;stroke:#000000;stroke-width:1.70000005;stroke-linecap:round;stroke-linejoin:round;stroke-miterlimit:4;stroke-dasharray:none;stroke-dashoffset:0;stroke-opacity:1" />
      <path
         sodipodi:nodetypes="cc"
         id="path7318"
         d="M 222.14286,449.4107 L 316.22108,449.4107"
         style="fill:#35a435;fill-opacity:1;fill-rule:evenodd;stroke:#000000;stroke-width:1px;stroke-linecap:butt;stroke-linejoin:miter;stroke-opacity:1" />
      <path
         sodipodi:nodetypes="cc"
         id="path7320"
         d="M 222.14286,453.43743 L 316.22108,453.43743"
         style="fill:#35a435;fill-opacity:1;fill-rule:evenodd;stroke:#000000;stroke-width:1px;stroke-linecap:butt;stroke-linejoin:miter;stroke-opacity:1" />
      <path
         sodipodi:nodetypes="cc"
         id="path7322"
         d="M 222.14286,457.2691 L 316.22108,457.2691"
         style="fill:#35a435;fill-opacity:1;fill-rule:evenodd;stroke:#000000;stroke-width:1px;stroke-linecap:butt;stroke-linejoin:miter;stroke-opacity:1" />
      <path
         sodipodi:nodetypes="cc"
         id="path7324"
         d="M 222.14286,461.33477 L 316.22108,461.33477"
         style="fill:#35a435;fill-opacity:1;fill-rule:evenodd;stroke:#000000;stroke-width:1px;stroke-linecap:butt;stroke-linejoin:miter;stroke-opacity:1" />
      <path
         sodipodi:nodetypes="cc"
         id="path7326"
         d="M 222.14286,465.36149 L 316.22108,465.36149"
         style="fill:#35a435;fill-opacity:1;fill-rule:evenodd;stroke:#000000;stroke-width:1px;stroke-linecap:butt;stroke-linejoin:miter;stroke-opacity:1" />
      <path
         sodipodi:nodetypes="cc"
         id="path7328"
         d="M 222.14286,469.72888 L 316.22108,469.72888"
         style="fill:#35a435;fill-opacity:1;fill-rule:evenodd;stroke:#000000;stroke-width:1px;stroke-linecap:butt;stroke-linejoin:miter;stroke-opacity:1" />
      <path
         sodipodi:nodetypes="cc"
         id="path7330"
         d="M 222.14286,473.74549 L 316.22108,473.74549"
         style="fill:#35a435;fill-opacity:1;fill-rule:evenodd;stroke:#000000;stroke-width:1px;stroke-linecap:butt;stroke-linejoin:miter;stroke-opacity:1" />
      <path
         sodipodi:nodetypes="cc"
         id="path7332"
         d="M 222.14286,477.75574 L 316.22108,477.75574"
         style="fill:#35a435;fill-opacity:1;fill-rule:evenodd;stroke:#000000;stroke-width:1px;stroke-linecap:butt;stroke-linejoin:miter;stroke-opacity:1" />
      <path
         sodipodi:nodetypes="cc"
         id="path7334"
         d="M 222.14286,481.52221 L 316.22108,481.52221"
         style="fill:#35a435;fill-opacity:1;fill-rule:evenodd;stroke:#000000;stroke-width:1px;stroke-linecap:butt;stroke-linejoin:miter;stroke-opacity:1" />
      <path
         sodipodi:nodetypes="cc"
         id="path7336"
         d="M 222.14286,485.17469 L 316.22108,485.17469"
         style="fill:#35a435;fill-opacity:1;fill-rule:evenodd;stroke:#000000;stroke-width:1px;stroke-linecap:butt;stroke-linejoin:miter;stroke-opacity:1" />
      <rect
         y="445.21933"
         x="255.89287"
         height="43.928528"
         width="25.178568"
         id="rect7338"
         style="opacity:1;fill:#dfc19b;fill-opacity:1;stroke:#000000;stroke-width:1.70000005;stroke-linecap:round;stroke-linejoin:round;stroke-miterlimit:4;stroke-dasharray:none;stroke-dashoffset:0;stroke-opacity:1" />
      <text
         id="text7340"
         y="480.07645"
         x="268.75"
         style="font-size:20px;font-style:normal;font-weight:normal;text-align:center;text-anchor:middle;fill:#000000;fill-opacity:1;stroke:none;stroke-width:1px;stroke-linecap:butt;stroke-linejoin:miter;stroke-opacity:1;font-family:Bitstream Vera Sans"
         xml:space="preserve"><tspan
           style="font-size:32px;font-style:normal;font-variant:normal;font-weight:bold;font-stretch:normal;text-align:center;text-anchor:middle;font-family:AR PL UMing CN;-inkscape-font-specification:AR PL UMing CN Bold"
           y="480.07645"
           x="268.75"
           id="tspan7342"
           sodipodi:role="line">$</tspan></text>
      <path
         sodipodi:nodetypes="cccc"
         id="path7344"
         d="M 223.92858,488.96932 C 239.73349,479.61317 300.38989,473.14938 316.42857,464.50504 C 317.14285,464.1479 316.25,489.32647 316.25,489.32647 C 316.25,489.32647 224.47435,489.7985 223.92858,488.96932 z"
         style="fill:#0c0e0c;fill-opacity:0.24669602;fill-rule:evenodd;stroke:none;stroke-width:1px;stroke-linecap:butt;stroke-linejoin:miter;stroke-opacity:1" />
    </g>
    <text
       xml:space="preserve"
       style="font-size:20px;font-style:normal;font-weight:normal;text-align:center;text-anchor:middle;fill:#000000;fill-opacity:1;stroke:none;stroke-width:1px;stroke-linecap:butt;stroke-linejoin:miter;stroke-opacity:1;font-family:Bitstream Vera Sans"
       x="171.79538"
       y="496.23737"
       id="text7378"><tspan
         sodipodi:role="line"
         id="tspan7380"
         x="171.79538"
         y="496.23737"
         style="font-size:64px">+</tspan></text>
    <text
       xml:space="preserve"
       style="font-size:20px;font-style:normal;font-weight:normal;text-align:center;text-anchor:middle;fill:#000000;fill-opacity:1;stroke:none;stroke-width:1px;stroke-linecap:butt;stroke-linejoin:miter;stroke-opacity:1;font-family:Bitstream Vera Sans"
       x="355.2142"
       y="497.67261"
       id="text7382"><tspan
         sodipodi:role="line"
         id="tspan7384"
         x="355.2142"
         y="497.67261"
         style="font-size:64px">=</tspan></text>
    <g
       id="g7805"
       transform="translate(-196.97975,-109.60155)">
      <path
         sodipodi:nodetypes="csccccccssccccccscc"
         style="fill:#000000;fill-opacity:0.5;fill-rule:evenodd;stroke-width:1pt"
         d="M 456.96066,507.42928 C 446.72286,507.42928 438.67941,516.57726 438.67941,524.77303 C 438.67941,530.36574 442.59352,535.17884 448.30441,537.71053 C 440.73871,539.16648 433.89516,541.67682 429.83566,545.52303 C 421.20562,556.97758 424.39856,565.9865 424.24191,567.61678 C 425.01465,568.48283 429.94725,571.80864 433.61691,571.55428 C 433.24573,564.06838 435.39816,553.58553 435.39816,553.58553 C 434.92821,553.96174 433.22766,568.09202 433.77316,571.58553 C 433.7237,571.59034 433.66685,571.55082 433.61691,571.55428 C 433.61885,571.59346 433.61483,571.64026 433.61691,571.67928 C 434.0169,578.16914 437.26954,593.08147 438.67941,594.33553 C 452.49857,596.31889 465.7024,596.05063 480.14816,594.64803 C 481.57004,587.6616 481.94727,580.82103 482.30441,573.67928 C 481.51558,562.63665 479.42195,555.14072 479.49191,555.30428 C 481.12839,560.10785 482.30441,573.67928 482.30441,573.67928 C 487.08609,572.86488 490.46023,572.031 495.24191,569.33553 C 496.80843,567.70525 497.58331,558.40575 490.49191,545.74178 C 487.51103,540.41846 478.54804,537.46047 468.27316,536.61678 C 483.44754,525.77197 471.89987,509.1922 456.96066,507.42928 z"
         id="path7708" />
      <path
         sodipodi:nodetypes="ccccccccccccc"
         id="path7710"
         d="M 420.11979,564.14699 C 420.27644,562.51672 417.07344,553.50737 425.70349,542.05282 C 438.71978,529.72042 479.27078,529.57919 486.36219,542.24316 C 493.4536,554.90713 492.68149,564.23669 491.11497,565.86697 C 486.33329,568.56245 482.96148,569.37684 478.17979,570.19124 C 478.17979,570.19124 477.00212,556.63603 475.36564,551.83246 C 475.29568,551.6689 477.39096,559.15308 478.17979,570.1957 C 477.08881,581.11292 475.99782,591.1523 475.99782,591.1523 C 461.55207,592.5549 448.35952,592.82884 434.54037,590.84548 C 433.1305,589.59142 429.87428,574.68556 429.47428,568.19569 C 429.07429,560.70259 431.26741,550.10356 431.26741,550.10356 C 430.79746,550.47977 429.08544,564.60154 429.63094,568.09505 C 425.94683,568.45341 420.90305,565.02483 420.11979,564.14699 z"
         style="fill:#483737;fill-opacity:1;fill-rule:evenodd;stroke:#000000;stroke-width:1.25;stroke-linejoin:round;stroke-dasharray:none;stroke-opacity:1" />
      <path
         sodipodi:nodetypes="cccc"
         transform="translate(55.040345,364.30084)"
         id="path7799"
         d="M 388.65621,170.3465 L 399.76788,194.8427 L 409.36433,169.84142 L 388.65621,170.3465 z"
         style="fill:#fffffd;fill-opacity:1;fill-rule:evenodd;stroke:#000000;stroke-width:1px;stroke-linecap:butt;stroke-linejoin:miter;stroke-opacity:1" />
      <path
         id="path7712"
         d="M 471.63388,521.2821 C 471.63388,529.47787 463.32493,536.12952 453.08712,536.12952 C 442.84932,536.12952 434.54037,529.47787 434.54037,521.2821 C 434.54037,513.08633 442.84932,506.43468 453.08712,506.43468 C 463.32493,506.43468 471.63388,513.08633 471.63388,521.2821 z"
         style="fill:#a97900;fill-opacity:1;fill-rule:evenodd;stroke:#000000;stroke-width:1.25;stroke-linejoin:round;stroke-dasharray:none;stroke-opacity:1" />
      <path
         sodipodi:nodetypes="ccc"
         id="path7714"
         d="M 452.81635,507.55502 C 444.73957,504.86276 425.71425,518.86252 440.79092,531.4264 C 449.94461,529.63156 432.35516,515.09335 452.81635,507.55502 z"
         style="fill:#ffffff;fill-opacity:0.25;fill-rule:evenodd;stroke:none;stroke-width:1pt;stroke-linecap:butt;stroke-linejoin:miter;stroke-opacity:1" />
      <path
         sodipodi:nodetypes="ccccc"
         id="path7716"
         d="M 443.48318,535.01609 C 442.58576,534.8366 430.56032,536.99041 426.2527,542.91339 C 422.66302,545.0672 419.25282,555.29779 420.68869,563.55406 C 422.48354,564.98993 425.89373,567.32323 426.79115,566.78478 C 431.81671,556.19521 414.9452,545.24668 443.48318,535.01609 z"
         style="fill:#ffffff;fill-opacity:0.25;fill-rule:evenodd;stroke:none;stroke-width:1pt;stroke-linecap:butt;stroke-linejoin:miter;stroke-opacity:1" />
      <path
         sodipodi:nodetypes="cccc"
         id="path7718"
         d="M 431.45774,552.9645 C 427.86806,563.91303 431.27826,583.4768 435.22691,589.93823 C 439.17556,591.19462 444.73957,591.73307 445.99595,591.3741 C 447.07286,582.22041 431.09877,583.4768 431.45774,552.9645 z"
         style="fill:#ffffff;fill-opacity:0.25;fill-rule:evenodd;stroke:none;stroke-width:1pt;stroke-linecap:butt;stroke-linejoin:miter;stroke-opacity:1" />
      <path
         sodipodi:nodetypes="ccc"
         id="path7720"
         d="M 453.89326,535.37506 C 469.1494,531.24692 465.20076,514.91387 472.02115,519.40097 C 471.4827,522.81117 469.32889,534.8366 453.89326,535.37506 z"
         style="fill:#000000;fill-opacity:0.25;fill-rule:evenodd;stroke:none;stroke-width:1pt;stroke-linecap:butt;stroke-linejoin:miter;stroke-opacity:1" />
      <path
         sodipodi:nodetypes="cccc"
         id="path7722"
         d="M 482.61071,568.40013 C 482.61071,568.40013 490.86698,566.78478 491.22595,565.16942 C 493.20028,558.88747 487.81575,543.99029 485.30298,541.47752 C 473.09806,537.1699 498.5848,566.42581 482.61071,568.40013 z"
         style="fill:#000000;fill-opacity:0.25;fill-rule:evenodd;stroke:none;stroke-width:1pt;stroke-linecap:butt;stroke-linejoin:miter;stroke-opacity:1" />
      <path
         sodipodi:nodetypes="cccc"
         id="path7724"
         d="M 466.27766,591.3741 C 466.27766,591.3741 474.17496,591.91255 475.07238,590.47668 C 475.9698,589.04081 480.09794,576.47692 477.58516,570.37446 C 469.32889,563.55406 480.63639,591.19462 466.27766,591.3741 z"
         style="fill:#000000;fill-opacity:0.25;fill-rule:evenodd;stroke:none;stroke-width:1pt;stroke-linecap:butt;stroke-linejoin:miter;stroke-opacity:1" />
      <path
         transform="translate(55.040345,364.30084)"
         id="path7801"
         d="M 394.96966,172.3668 L 396.23235,174.89219 L 399.38908,175.01845 L 400.14669,171.988 L 394.96966,172.3668 z"
         style="fill:#ff072f;fill-opacity:1;fill-rule:evenodd;stroke:#000000;stroke-width:1px;stroke-linecap:butt;stroke-linejoin:miter;stroke-opacity:1" />
      <path
         sodipodi:nodetypes="cccccc"
         transform="translate(55.040345,364.30084)"
         id="path7803"
         d="M 397.2425,175.27099 L 396.10608,186.63521 L 399.76788,194.8427 L 402.29327,187.64536 L 398.50519,175.01845 L 397.2425,175.27099 z"
         style="fill:#ff072f;fill-opacity:1;fill-rule:evenodd;stroke:#000000;stroke-width:1px;stroke-linecap:butt;stroke-linejoin:miter;stroke-opacity:1" />
    </g>
    <g
       transform="translate(-15.991024,-128.26522)"
       id="g7819">
      <path
         sodipodi:nodetypes="csccccccssccccccscc"
         style="fill:#000000;fill-opacity:0.5;fill-rule:evenodd;stroke-width:1pt"
         d="M 456.96066,507.42928 C 446.72286,507.42928 438.67941,516.57726 438.67941,524.77303 C 438.67941,530.36574 442.59352,535.17884 448.30441,537.71053 C 440.73871,539.16648 433.89516,541.67682 429.83566,545.52303 C 421.20562,556.97758 424.39856,565.9865 424.24191,567.61678 C 425.01465,568.48283 429.94725,571.80864 433.61691,571.55428 C 433.24573,564.06838 435.39816,553.58553 435.39816,553.58553 C 434.92821,553.96174 433.22766,568.09202 433.77316,571.58553 C 433.7237,571.59034 433.66685,571.55082 433.61691,571.55428 C 433.61885,571.59346 433.61483,571.64026 433.61691,571.67928 C 434.0169,578.16914 437.26954,593.08147 438.67941,594.33553 C 452.49857,596.31889 465.7024,596.05063 480.14816,594.64803 C 481.57004,587.6616 481.94727,580.82103 482.30441,573.67928 C 481.51558,562.63665 479.42195,555.14072 479.49191,555.30428 C 481.12839,560.10785 482.30441,573.67928 482.30441,573.67928 C 487.08609,572.86488 490.46023,572.031 495.24191,569.33553 C 496.80843,567.70525 497.58331,558.40575 490.49191,545.74178 C 487.51103,540.41846 478.54804,537.46047 468.27316,536.61678 C 483.44754,525.77197 471.89987,509.1922 456.96066,507.42928 z"
         id="path7821" />
      <path
         sodipodi:nodetypes="ccccccccccccc"
         id="path7823"
         d="M 420.11979,564.14699 C 420.27644,562.51672 417.07344,553.50737 425.70349,542.05282 C 438.71978,529.72042 479.27078,529.57919 486.36219,542.24316 C 493.4536,554.90713 492.68149,564.23669 491.11497,565.86697 C 486.33329,568.56245 482.96148,569.37684 478.17979,570.19124 C 478.17979,570.19124 477.00212,556.63603 475.36564,551.83246 C 475.29568,551.6689 477.39096,559.15308 478.17979,570.1957 C 477.08881,581.11292 475.99782,591.1523 475.99782,591.1523 C 461.55207,592.5549 448.35952,592.82884 434.54037,590.84548 C 433.1305,589.59142 429.87428,574.68556 429.47428,568.19569 C 429.07429,560.70259 431.26741,550.10356 431.26741,550.10356 C 430.79746,550.47977 429.08544,564.60154 429.63094,568.09505 C 425.94683,568.45341 420.90305,565.02483 420.11979,564.14699 z"
         style="fill:#483737;fill-opacity:1;fill-rule:evenodd;stroke:#000000;stroke-width:1.25;stroke-linejoin:round;stroke-dasharray:none;stroke-opacity:1" />
      <path
         sodipodi:nodetypes="cccc"
         transform="translate(55.040345,364.30084)"
         id="path7825"
         d="M 388.65621,170.3465 L 399.76788,194.8427 L 409.36433,169.84142 L 388.65621,170.3465 z"
         style="fill:#fffffd;fill-opacity:1;fill-rule:evenodd;stroke:#000000;stroke-width:1px;stroke-linecap:butt;stroke-linejoin:miter;stroke-opacity:1" />
      <path
         id="path7827"
         d="M 471.63388,521.2821 C 471.63388,529.47787 463.32493,536.12952 453.08712,536.12952 C 442.84932,536.12952 434.54037,529.47787 434.54037,521.2821 C 434.54037,513.08633 442.84932,506.43468 453.08712,506.43468 C 463.32493,506.43468 471.63388,513.08633 471.63388,521.2821 z"
         style="fill:#a97900;fill-opacity:1;fill-rule:evenodd;stroke:#000000;stroke-width:1.25;stroke-linejoin:round;stroke-dasharray:none;stroke-opacity:1" />
      <path
         sodipodi:nodetypes="ccc"
         id="path7829"
         d="M 452.81635,507.55502 C 444.73957,504.86276 425.71425,518.86252 440.79092,531.4264 C 449.94461,529.63156 432.35516,515.09335 452.81635,507.55502 z"
         style="fill:#ffffff;fill-opacity:0.25;fill-rule:evenodd;stroke:none;stroke-width:1pt;stroke-linecap:butt;stroke-linejoin:miter;stroke-opacity:1" />
      <path
         sodipodi:nodetypes="ccccc"
         id="path7831"
         d="M 443.48318,535.01609 C 442.58576,534.8366 430.56032,536.99041 426.2527,542.91339 C 422.66302,545.0672 419.25282,555.29779 420.68869,563.55406 C 422.48354,564.98993 425.89373,567.32323 426.79115,566.78478 C 431.81671,556.19521 414.9452,545.24668 443.48318,535.01609 z"
         style="fill:#ffffff;fill-opacity:0.25;fill-rule:evenodd;stroke:none;stroke-width:1pt;stroke-linecap:butt;stroke-linejoin:miter;stroke-opacity:1" />
      <path
         sodipodi:nodetypes="cccc"
         id="path7833"
         d="M 431.45774,552.9645 C 427.86806,563.91303 431.27826,583.4768 435.22691,589.93823 C 439.17556,591.19462 444.73957,591.73307 445.99595,591.3741 C 447.07286,582.22041 431.09877,583.4768 431.45774,552.9645 z"
         style="fill:#ffffff;fill-opacity:0.25;fill-rule:evenodd;stroke:none;stroke-width:1pt;stroke-linecap:butt;stroke-linejoin:miter;stroke-opacity:1" />
      <path
         sodipodi:nodetypes="ccc"
         id="path7835"
         d="M 453.89326,535.37506 C 469.1494,531.24692 465.20076,514.91387 472.02115,519.40097 C 471.4827,522.81117 469.32889,534.8366 453.89326,535.37506 z"
         style="fill:#000000;fill-opacity:0.25;fill-rule:evenodd;stroke:none;stroke-width:1pt;stroke-linecap:butt;stroke-linejoin:miter;stroke-opacity:1" />
      <path
         sodipodi:nodetypes="cccc"
         id="path7837"
         d="M 482.61071,568.40013 C 482.61071,568.40013 490.86698,566.78478 491.22595,565.16942 C 493.20028,558.88747 487.81575,543.99029 485.30298,541.47752 C 473.09806,537.1699 498.5848,566.42581 482.61071,568.40013 z"
         style="fill:#000000;fill-opacity:0.25;fill-rule:evenodd;stroke:none;stroke-width:1pt;stroke-linecap:butt;stroke-linejoin:miter;stroke-opacity:1" />
      <path
         sodipodi:nodetypes="cccc"
         id="path7839"
         d="M 466.27766,591.3741 C 466.27766,591.3741 474.17496,591.91255 475.07238,590.47668 C 475.9698,589.04081 480.09794,576.47692 477.58516,570.37446 C 469.32889,563.55406 480.63639,591.19462 466.27766,591.3741 z"
         style="fill:#000000;fill-opacity:0.25;fill-rule:evenodd;stroke:none;stroke-width:1pt;stroke-linecap:butt;stroke-linejoin:miter;stroke-opacity:1" />
      <path
         transform="translate(55.040345,364.30084)"
         id="path7841"
         d="M 394.96966,172.3668 L 396.23235,174.89219 L 399.38908,175.01845 L 400.14669,171.988 L 394.96966,172.3668 z"
         style="fill:#ff072f;fill-opacity:1;fill-rule:evenodd;stroke:#000000;stroke-width:1px;stroke-linecap:butt;stroke-linejoin:miter;stroke-opacity:1" />
      <path
         sodipodi:nodetypes="cccccc"
         transform="translate(55.040345,364.30084)"
         id="path7843"
         d="M 397.2425,175.27099 L 396.10608,186.63521 L 399.76788,194.8427 L 402.29327,187.64536 L 398.50519,175.01845 L 397.2425,175.27099 z"
         style="fill:#ff072f;fill-opacity:1;fill-rule:evenodd;stroke:#000000;stroke-width:1px;stroke-linecap:butt;stroke-linejoin:miter;stroke-opacity:1" />
    </g>
    <g
       transform="translate(349.33965,44.888439)"
       id="g7845">
      <path
         sodipodi:nodetypes="csccccccssccccccscc"
         style="fill:#000000;fill-opacity:0.5;fill-rule:evenodd;stroke-width:1pt"
         d="M 98.701049,453.9787 C 88.463249,453.9787 80.419799,463.12668 80.419799,471.32245 C 80.419799,476.91516 84.333909,481.72826 90.044799,484.25995 C 82.479099,485.7159 75.635549,488.22624 71.576049,492.07245 C 62.946009,503.527 66.138949,512.53592 65.982299,514.1662 C 66.755039,515.03225 71.687639,518.35806 75.357299,518.1037 C 74.986119,510.6178 77.138549,500.13495 77.138549,500.13495 C 76.668599,500.51116 74.968049,514.64144 75.513549,518.13495 C 75.464089,518.13976 75.407239,518.10024 75.357299,518.1037 C 75.359239,518.14288 75.355219,518.18968 75.357299,518.2287 C 75.757289,524.71856 79.009929,539.63089 80.419799,540.88495 C 94.238959,542.86831 107.44279,542.60005 121.88855,541.19745 C 123.31043,534.21102 123.68766,527.37045 124.0448,520.2287 C 123.25597,509.18607 121.16234,501.69014 121.2323,501.8537 C 122.86878,506.65727 124.0448,520.2287 124.0448,520.2287 C 128.82648,519.4143 132.20062,518.58042 136.9823,515.88495 C 138.54882,514.25467 139.3237,504.95517 132.2323,492.2912 C 129.25142,486.96788 120.28843,484.00989 110.01355,483.1662 C 125.18793,472.32139 113.64026,455.74162 98.701049,453.9787 z"
         id="path7847" />
      <path
         sodipodi:nodetypes="ccccccccccccc"
         id="path7849"
         d="M 61.86018,510.69641 C 62.016829,509.06614 58.813835,500.05679 67.443877,488.60224 C 80.460167,476.26984 121.01117,476.12861 128.10258,488.79258 C 135.19399,501.45655 134.42188,510.78611 132.85536,512.41639 C 128.07368,515.11187 124.70187,515.92626 119.92018,516.74066 C 119.92018,516.74066 118.74251,503.18545 117.10603,498.38188 C 117.03607,498.21832 119.13135,505.7025 119.92018,516.74512 C 118.8292,527.66234 117.73821,537.70172 117.73821,537.70172 C 103.29246,539.10432 90.099913,539.37826 76.280755,537.3949 C 74.870891,536.14084 71.614667,521.23498 71.214672,514.74511 C 70.814677,507.25201 73.007801,496.65298 73.007801,496.65298 C 72.537849,497.02919 70.825829,511.15096 71.371326,514.64447 C 67.687219,515.00283 62.643439,511.57425 61.86018,510.69641 z"
         style="fill:#2200a9;fill-opacity:1;fill-rule:evenodd;stroke:#000000;stroke-width:1.25;stroke-linejoin:round;stroke-dasharray:none;stroke-opacity:1" />
      <path
         id="path7851"
         d="M 113.37427,467.83152 C 113.37427,476.02729 105.06532,482.67894 94.827512,482.67894 C 84.589708,482.67894 76.280755,476.02729 76.280755,467.83152 C 76.280755,459.63575 84.589708,452.9841 94.827512,452.9841 C 105.06532,452.9841 113.37427,459.63575 113.37427,467.83152 z"
         style="fill:#2200a9;fill-opacity:1;fill-rule:evenodd;stroke:#000000;stroke-width:1.25;stroke-linejoin:round;stroke-dasharray:none;stroke-opacity:1" />
      <path
         sodipodi:nodetypes="ccc"
         id="path7853"
         d="M 94.556741,454.10444 C 86.479956,451.41218 67.45464,465.41194 82.531305,477.97582 C 91.684995,476.18098 74.095551,461.64277 94.556741,454.10444 z"
         style="fill:#ffffff;fill-opacity:0.25;fill-rule:evenodd;stroke:none;stroke-width:1pt;stroke-linecap:butt;stroke-linejoin:miter;stroke-opacity:1" />
      <path
         sodipodi:nodetypes="ccccc"
         id="path7855"
         d="M 85.223567,481.56551 C 84.326147,481.38602 72.300711,483.53983 67.993091,489.46281 C 64.403409,491.61662 60.993211,501.84721 62.429084,510.10348 C 64.223925,511.53935 67.634123,513.87265 68.531544,513.3342 C 73.557099,502.74463 56.685592,491.7961 85.223567,481.56551 z"
         style="fill:#ffffff;fill-opacity:0.25;fill-rule:evenodd;stroke:none;stroke-width:1pt;stroke-linecap:butt;stroke-linejoin:miter;stroke-opacity:1" />
      <path
         sodipodi:nodetypes="cccc"
         id="path7857"
         d="M 73.198131,499.51392 C 69.608448,510.46245 73.018647,530.02622 76.967298,536.48765 C 80.915948,537.74404 86.479956,538.28249 87.736344,537.92352 C 88.813249,528.76983 72.839163,530.02622 73.198131,499.51392 z"
         style="fill:#ffffff;fill-opacity:0.25;fill-rule:evenodd;stroke:none;stroke-width:1pt;stroke-linecap:butt;stroke-linejoin:miter;stroke-opacity:1" />
      <path
         sodipodi:nodetypes="ccc"
         id="path7859"
         d="M 95.633645,481.92448 C 110.88979,477.79634 106.94115,461.46329 113.76154,465.95039 C 113.22309,469.36059 111.06928,481.38602 95.633645,481.92448 z"
         style="fill:#000000;fill-opacity:0.25;fill-rule:evenodd;stroke:none;stroke-width:1pt;stroke-linecap:butt;stroke-linejoin:miter;stroke-opacity:1" />
      <path
         sodipodi:nodetypes="cccc"
         id="path7861"
         d="M 124.3511,514.94955 C 124.3511,514.94955 132.60737,513.3342 132.96634,511.71884 C 134.94067,505.43689 129.55614,490.53971 127.04337,488.02694 C 114.83845,483.71932 140.32519,512.97523 124.3511,514.94955 z"
         style="fill:#000000;fill-opacity:0.25;fill-rule:evenodd;stroke:none;stroke-width:1pt;stroke-linecap:butt;stroke-linejoin:miter;stroke-opacity:1" />
      <path
         sodipodi:nodetypes="cccc"
         id="path7863"
         d="M 108.01805,537.92352 C 108.01805,537.92352 115.91535,538.46197 116.81277,537.0261 C 117.71019,535.59023 121.83833,523.02634 119.32555,516.92388 C 111.06928,510.10348 122.37678,537.74404 108.01805,537.92352 z"
         style="fill:#000000;fill-opacity:0.25;fill-rule:evenodd;stroke:none;stroke-width:1pt;stroke-linecap:butt;stroke-linejoin:miter;stroke-opacity:1" />
    </g>
    <g
       transform="matrix(0.2248558,0,0,0.2248558,462.31757,303.94858)"
       id="g7867"
       inkscape:label="Layer 1"
       clip-path="url(#clipPath8156)">
      <path
         id="path7869"
         d="M 269.80128,730.37142 C 266.61223,729.60641 264.18648,727.82635 259.29951,722.66509 C 255.80434,718.97374 250.35796,713.56557 247.19643,710.64694 C 244.0349,707.7283 241.4482,704.51828 241.4482,703.51357 C 241.4482,702.50885 240.5482,701.45146 239.4482,701.1638 C 238.00401,700.78614 237.4482,699.79979 237.4482,697.61456 C 237.4482,695.46658 238.02863,694.4041 239.4482,693.95355 C 240.5482,693.60442 241.4482,692.72658 241.4482,692.00279 C 241.4482,691.279 240.5482,690.45146 239.4482,690.1638 C 237.03736,689.53335 236.65627,684.69467 238.9482,683.81518 C 239.7732,683.49859 240.4482,682.43586 240.4482,681.45355 C 240.4482,680.47124 239.7732,679.40851 238.9482,679.09192 C 236.66455,678.21561 237.13241,673.90927 239.6982,672.18862 L 241.9482,670.67975 L 239.6982,667.60714 C 238.07719,665.39348 237.4482,663.14197 237.4482,659.55306 C 237.4482,656.81325 236.9982,654.29347 236.4482,653.95355 C 235.8982,653.61363 235.4482,651.95429 235.4482,650.26613 C 235.4482,647.86753 234.05311,645.71787 229.06453,640.42972 C 221.47476,632.38417 218.78336,625.63423 217.41727,611.21883 C 216.3992,600.47579 216.00163,564.98514 216.88337,563.55844 C 217.21197,563.02676 217.02348,562.30909 216.46451,561.96363 C 215.90554,561.61817 215.4482,559.82435 215.4482,557.97737 C 215.4482,555.15267 216.3342,553.84206 221.02576,549.72682 C 226.44758,544.97102 226.61899,544.66156 227.16465,538.64398 C 227.63333,533.47528 228.03315,532.45355 229.58709,532.45355 C 231.32913,532.45355 231.4482,531.36276 231.4482,515.40389 C 231.4482,496.42711 231.13143,495.18136 224.44663,487.86941 C 219.55473,482.51857 218.15298,477.97089 218.60943,468.93183 C 218.89782,463.22085 219.4931,460.88409 221.27276,458.47697 L 223.56469,455.37697 L 219.03118,450.33462 C 210.4885,440.8331 210.26564,429.15443 218.47754,421.32093 L 222.28563,417.68831 L 218.87928,414.38675 C 214.26271,409.9122 212.00039,403.73733 212.81095,397.82362 C 213.53035,392.57506 216.56865,387.07596 219.98643,384.83654 L 222.29843,383.32166 L 219.87331,379.74806 C 214.96936,372.52169 217.37198,365.55282 226.33284,361.01201 C 231.35748,358.46583 250.1469,354.926 263.9482,353.92547 C 268.3482,353.60649 273.83769,352.86778 276.14708,352.28388 C 279.28827,351.48968 281.1775,351.53754 283.64708,352.47391 C 285.46269,353.16232 294.17164,354.28478 303.00028,354.96826 C 315.7885,355.95828 319.9139,356.65048 323.28951,358.37259 C 332.56981,363.10705 334.93904,374.47466 328.38267,382.80972 L 326.43101,385.29086 L 329.6896,385.98093 C 334.69404,387.0407 340.49076,390.63518 342.04624,393.64313 C 345.55307,400.4246 342.28446,412.60071 335.83643,416.77574 C 332.34432,419.03684 331.5292,420.45355 333.72036,420.45355 C 336.10632,420.45355 342.70205,426.80227 344.55539,430.88281 C 346.656,435.50778 346.86312,438.41985 345.45258,443.49727 C 344.43927,447.14479 339.48367,453.25457 335.9482,455.21523 C 334.02395,456.28237 334.07558,456.45614 337.31139,459.80335 C 343.95559,466.6763 342.41959,477.20362 332.86329,490.2892 C 329.89336,494.35598 326.99682,499.41613 326.42654,501.53398 C 325.85626,503.65184 325.51534,511.36264 325.66893,518.66909 L 325.9482,531.95355 L 328.6982,532.26997 C 331.3683,532.5772 331.4482,532.76643 331.4482,538.78314 L 331.4482,544.97989 L 336.9482,549.27545 C 342.14448,553.3338 342.4482,553.81626 342.4482,558.01228 C 342.4482,560.89046 342.00827,562.45894 341.1982,562.46886 C 340.25728,562.48039 340.27631,562.69219 341.27514,563.32543 C 342.34664,564.00475 342.48007,568.7661 341.96826,588.06012 C 341.0586,622.35227 339.06732,630.35035 328.63333,641.6203 C 324.7194,645.84781 323.12723,648.37894 323.05261,650.49218 C 322.97815,652.60079 322.44619,653.44964 321.1982,653.45127 C 319.64835,653.45329 319.4482,654.59728 319.4482,663.45355 C 319.4482,669.45355 319.0482,673.45355 318.4482,673.45355 C 316.55329,673.45355 317.45275,675.98129 319.6982,676.96642 C 321.1683,677.61139 321.9482,678.82011 321.9482,680.45355 C 321.9482,682.08699 321.1683,683.29571 319.6982,683.94068 C 316.82777,685.2 316.86883,685.84391 319.9482,687.86159 C 321.3232,688.76253 322.4482,690.39893 322.4482,691.49804 C 322.4482,692.65923 321.40086,693.97363 319.9482,694.6355 C 317.77961,695.62358 317.4482,696.42028 317.4482,700.64545 C 317.4482,703.7604 316.97177,705.69914 316.1266,706.02347 C 314.54998,706.62847 301.04041,719.6355 297.35075,724.10088 C 295.92214,725.82983 293.28222,728.00514 291.48424,728.93491 C 287.54797,730.97044 275.59845,731.7621 269.80128,730.37142 z"
         style="fill:#141414;fill-opacity:1;stroke:#000000;stroke-opacity:1" />
      <path
         id="path7871"
         d="M 287.93805,727.4434 C 289.20076,726.9008 285.5143,726.58397 277.93805,726.58397 C 270.3618,726.58397 266.67534,726.9008 267.93805,727.4434 C 269.03805,727.91609 273.53805,728.30283 277.93805,728.30283 C 282.33805,728.30283 286.83805,727.91609 287.93805,727.4434 z"
         style="fill:#b17c3a;fill-opacity:1" />
      <path
         id="path7873"
         d="M 297.89469,720.95355 L 301.5821,716.45355 L 278.9482,716.45355 L 256.3143,716.45355 L 260.00171,720.95355 L 263.68912,725.45355 L 278.9482,725.45355 L 294.20728,725.45355 L 297.89469,720.95355 z"
         style="fill:#323232;fill-opacity:1" />
      <g
         style="fill:#9b9bb0;fill-opacity:1;stroke:none;stroke-opacity:1"
         id="g7875">
        <path
           style="fill:#9b9bb0;fill-opacity:1;stroke:none;stroke-opacity:1"
           d="M 308.23413,710.70355 L 311.57086,706.95355 L 279.35692,706.6895 C 261.63925,706.54427 246.90491,706.66351 246.61394,706.95448 C 246.32297,707.24545 247.60492,709.05177 249.46272,710.96853 L 252.84053,714.45355 L 278.86896,714.45355 L 304.89739,714.45355 L 308.23413,710.70355 z"
           id="path7877" />
        <g
           id="g7879"
           style="fill:#9b9bb0;fill-opacity:1;stroke:none;stroke-opacity:1">
          <g
             style="fill:#9b9bb0;fill-opacity:1;stroke:none;stroke-opacity:1"
             id="g7881">
            <path
               style="fill:#9b9bb0;fill-opacity:1;stroke:none;stroke-opacity:1"
               d="M 315.4482,702.95355 C 315.4482,701.64799 310.78153,701.45355 279.4482,701.45355 C 248.11487,701.45355 243.4482,701.64799 243.4482,702.95355 C 243.4482,704.25911 248.11487,704.45355 279.4482,704.45355 C 310.78153,704.45355 315.4482,704.25911 315.4482,702.95355 z"
               id="path7883" />
            <path
               style="fill:#9b9bb0;fill-opacity:1;stroke:none;stroke-opacity:1"
               d="M 283.9482,696.90748 C 314.9474,694.50092 321.47009,693.59912 321.43289,691.72499 C 321.36506,688.30816 320.31226,688.30595 279.48579,691.63696 C 238.26485,695.00017 237.35637,695.16591 238.84724,699.05104 C 239.349,700.35862 240.50265,700.54153 245.20422,700.05894 C 248.36341,699.73468 265.7982,698.31652 283.9482,696.90748 z"
               id="path7885" />
            <path
               style="fill:#9b9bb0;fill-opacity:1;stroke:none;stroke-opacity:1"
               d="M 315.4482,697.95355 C 315.4482,696.51741 314.87183,695.45355 314.09377,695.45355 C 310.0031,695.45355 266.03163,699.53678 265.61289,699.95553 C 265.33897,700.22944 276.43987,700.45355 290.28153,700.45355 L 315.4482,700.45355 L 315.4482,697.95355 z"
               id="path7887" />
            <path
               style="fill:#9b9bb0;fill-opacity:1;stroke:none;stroke-opacity:1"
               d="M 276.43506,690.95015 C 314.41236,687.83437 315.4482,687.70007 315.4482,685.89228 C 315.4482,685.10098 315.3357,684.45389 315.1982,684.45431 C 315.0607,684.45472 299.1982,685.80118 279.9482,687.44644 C 260.6982,689.09169 244.6107,690.44135 244.1982,690.44568 C 243.7857,690.45001 243.4482,691.12855 243.4482,691.95355 C 243.4482,693.81453 240.38718,693.90764 276.43506,690.95015 z"
               id="path7889" />
            <path
               style="fill:#9b9bb0;fill-opacity:1;stroke:none;stroke-opacity:1"
               d="M 280.9482,686.35205 C 320.27678,683.13442 323.91103,682.45834 320.41249,679.01048 C 319.13618,677.75266 314.19816,677.95263 281.9482,680.56809 C 237.3497,684.18501 238.4482,684.03945 238.4482,686.3322 C 238.4482,688.53762 239.30199,689.45242 241.36487,689.45727 C 242.2357,689.45932 260.0482,688.06197 280.9482,686.35205 z"
               id="path7891" />
            <path
               style="fill:#9b9bb0;fill-opacity:1;stroke:none;stroke-opacity:1"
               d="M 280.81477,679.76158 C 305.94481,677.71949 314.81213,676.66874 315.18831,675.68842 C 315.46714,674.9618 315.48862,674.16064 315.23605,673.90806 C 314.98347,673.65549 299.11624,674.7999 279.97553,676.45119 C 260.83482,678.10249 244.56088,679.45355 243.81122,679.45355 C 243.06156,679.45355 242.4482,680.12855 242.4482,680.95355 C 242.4482,682.92411 241.5553,682.95185 280.81477,679.76158 z"
               id="path7893" />
            <path
               style="fill:#9b9bb0;fill-opacity:1;stroke:none;stroke-opacity:1"
               d="M 279.4482,675.46076 C 298.4232,673.82545 314.68322,672.47983 315.58157,672.47051 C 317.31053,672.45256 318.63421,669.31485 317.57563,667.74371 C 317.19661,667.18117 301.7054,668.10237 278.4482,670.07047 C 257.2732,671.86236 239.6107,673.3566 239.1982,673.391 C 238.26932,673.46847 238.2047,676.87672 239.11487,677.78688 C 240.11924,678.79126 242.18751,678.67198 279.4482,675.46076 z"
               id="path7895" />
            <path
               style="fill:#9b9bb0;fill-opacity:1;stroke:none;stroke-opacity:1"
               d="M 273.47128,669.45157 C 286.2941,668.35048 297.0096,667.22548 297.28351,666.95157 C 297.55743,666.67766 285.33153,666.45355 270.11487,666.45355 L 242.4482,666.45355 L 242.4482,668.95355 C 242.4482,672.10327 242.56829,672.10519 273.47128,669.45157 z"
               id="path7897" />
          </g>
          <path
             id="path7899"
             d="M 317.4482,659.45355 L 317.4482,653.45355 L 277.9482,653.45355 L 238.4482,653.45355 L 238.4482,658.25355 C 238.4482,660.89355 238.9882,663.59355 239.6482,664.25355 C 240.53976,665.14511 250.69264,665.45355 279.1482,665.45355 L 317.4482,665.45355 L 317.4482,659.45355 z"
             style="fill:#9b9bb0;fill-opacity:1;stroke:none;stroke-opacity:1" />
        </g>
      </g>
      <path
         id="path7901"
         d="M 327.537,640.26951 C 337.45229,630.35422 339.26245,623.02826 340.12953,589.30565 L 340.76853,564.45355 L 279.09238,564.45355 L 217.41623,564.45355 L 217.98725,587.20355 C 218.85395,621.73406 220.58058,629.16206 230.1407,639.48813 L 235.66363,645.45355 L 279.00829,645.45355 L 322.35296,645.45355 L 327.537,640.26951 z"
         style="fill:none" />
      <path
         id="path7903"
         d="M 309.26996,562.70424 C 292.94693,562.55011 265.94693,562.55001 249.26996,562.704 C 232.59299,562.858 245.9482,562.9841 278.9482,562.98423 C 311.9482,562.98436 325.59299,562.85836 309.26996,562.70424 z"
         style="fill:#000000" />
      <path
         id="path7905"
         d="M 289.4482,533.95355 C 289.4482,533.12022 290.33709,532.45355 291.4482,532.45355 C 293.3644,532.45355 293.4482,531.78688 293.4482,516.54264 C 293.4482,498.54075 294.80254,492.16372 300.38131,483.89756 C 302.18031,481.23194 303.15588,478.89092 302.60865,478.55271 C 302.07311,478.22173 296.87276,476.64678 291.05231,475.05283 L 280.46968,472.15473 L 267.95894,475.45072 C 261.07803,477.26351 255.4482,478.94878 255.4482,479.19576 C 255.4482,479.44274 256.42449,481.01588 257.61773,482.69164 C 258.81098,484.36739 260.82529,488.26186 262.094,491.34601 C 264.20169,496.46969 264.40278,498.48517 264.42446,514.70355 L 264.4482,532.45355 L 266.97958,532.45355 C 268.37185,532.45355 269.76999,533.12855 270.08657,533.95355 C 270.54169,535.13957 272.62834,535.45355 280.05519,535.45355 C 287.73787,535.45355 289.4482,535.18042 289.4482,533.95355 z"
         style="fill:#ffffff;fill-opacity:1;stroke:#000000;stroke-opacity:1" />
      <path
         id="path7907"
         d="M 324.4482,515.27003 L 324.9482,498.58651 L 331.09588,489.72035 C 339.61192,477.43857 341.52716,469.37537 337.49797,462.76737 C 334.25444,457.44786 332.86894,457.22737 322.35869,460.3581 C 317.18292,461.89983 306.5373,464.87861 298.70175,466.97762 C 290.86621,469.07662 284.62629,470.96497 284.83526,471.17395 C 285.04424,471.38293 289.75423,472.81908 295.3019,474.36541 C 305.32042,477.15792 305.4006,477.16358 307.16839,475.2039 C 310.1682,471.87845 318.49955,465.17156 319.004,465.67601 C 319.26565,465.93767 315.49555,470.15715 310.626,475.05265 C 304.59936,481.11139 300.8436,485.86942 298.86394,489.95355 C 296.0292,495.80176 295.94719,496.41596 295.62211,514.23149 L 295.28859,532.50944 L 309.61839,532.23149 L 323.9482,531.95355 L 324.4482,515.27003 z"
         style="fill:none" />
      <path
         id="path7909"
         d="M 242.6357,410.77044 C 241.91382,410.48156 241.05133,410.51709 240.71903,410.84938 C 240.38674,411.18167 240.97737,411.41802 242.03153,411.3746 C 243.19648,411.32662 243.43343,411.08966 242.6357,410.77044 z"
         style="fill:#ffffff;fill-opacity:1" />
      <g
         style="fill:#fffd25;fill-opacity:1"
         id="g7911">
        <path
           style="fill:#fffd25;fill-opacity:1;stroke:#000000;stroke-opacity:1"
           d="M 262.5332,513.95355 L 262.43902,495.95355 L 258.81425,488.71864 C 256.82063,484.73944 254.65247,481.03804 253.99612,480.49332 C 253.18817,479.82278 249.79149,480.30879 243.47877,481.99819 C 235.50255,484.13276 231.89217,484.52809 233.53153,483.08737 C 233.7607,482.88598 254.8732,477.03168 280.4482,470.07782 C 306.72772,462.9324 329.32098,456.24276 332.40476,454.69399 C 339.60416,451.07825 343.59345,445.99735 344.2015,439.66926 C 344.975,431.61928 340.87149,425.55126 332.04317,421.69023 C 329.46631,420.56325 327.54583,420.86705 315.04317,424.37944 C 307.29093,426.55729 297.2357,429.33549 292.6982,430.55324 C 288.1607,431.77098 284.4482,433.1164 284.4482,433.54305 C 284.4482,435.90617 290.14211,435.02741 307.53496,429.97998 C 324.14875,425.15863 329.13807,424.12261 327.36487,425.86235 C 326.77864,426.43751 264.12558,444.46375 245.51771,449.41103 C 237.03094,451.66741 228.58253,454.44348 226.74346,455.58008 C 222.18002,458.40045 220.14578,462.76097 220.03806,469.95355 C 219.91684,478.04774 220.76235,480.53947 225.47961,485.98984 C 233.03859,494.72356 233.4482,496.23742 233.4482,515.44045 L 233.4482,532.50702 L 248.03779,532.23028 L 262.62738,531.95355 L 262.5332,513.95355 z"
           id="path7913" />
        <path
           style="fill:#fffd25;fill-opacity:1;stroke:#000000;stroke-opacity:1"
           d="M 230.17796,452.02827 C 232.25159,451.24437 242.7232,448.25555 253.4482,445.38645 C 264.1732,442.51735 273.31875,439.96174 273.77164,439.70732 C 274.22454,439.4529 273.72938,438.63837 272.67129,437.89725 C 271.00042,436.72693 268.33765,437.19911 252.41817,441.48865 C 236.34604,445.81933 231.91914,446.64928 233.54062,445.0278 C 233.77478,444.79364 245.88728,441.39267 260.45728,437.47009 C 304.28867,425.66968 329.42096,418.51949 332.26105,417.04174 C 338.1774,413.96338 341.65231,408.24303 341.75535,401.41236 C 341.87168,393.70101 338.0353,389.71896 328.40505,387.55519 C 325.0282,386.79646 323.20362,386.96599 319.55001,388.37794 C 317.01902,389.35606 299.09139,394.5789 279.71085,399.98426 C 260.33031,405.38962 244.64393,409.98262 244.85223,410.19091 C 245.25278,410.59147 317.37599,391.1919 321.9461,389.45435 C 323.95117,388.69202 324.5198,388.73874 324.21902,389.64109 C 323.99839,390.30297 322.7222,391.1634 321.38304,391.55316 C 320.04388,391.94292 299.01953,397.70107 274.66228,404.34905 C 250.30502,410.99704 228.48002,417.304 226.16228,418.36453 C 212.83995,424.46046 210.34506,439.28375 220.86996,449.80864 C 225.01112,453.9498 225.06256,453.96207 230.17796,452.02827 z"
           id="path7915" />
        <path
           style="fill:#fffd25;fill-opacity:1;stroke:#000000;stroke-opacity:1"
           d="M 228.49955,415.32002 C 231.02411,414.56364 232.10848,413.73182 231.75859,412.82002 C 231.47019,412.06846 231.52338,411.45355 231.87678,411.45355 C 233.0031,411.45355 313.97951,388.53019 318.55186,386.91698 C 320.96575,386.06531 324.40024,383.95389 326.18407,382.22494 C 334.08646,374.56563 329.99655,361.65327 318.66715,358.49305 C 316.62173,357.9225 309.0982,357.1973 301.9482,356.88149 C 293.51148,356.50884 287.62788,355.75132 285.18685,354.72343 C 282.06858,353.41036 280.52985,353.33108 276.18685,354.25972 C 273.30559,354.87581 267.12258,355.61548 262.44682,355.90344 C 248.79814,356.744 231.68739,360.19854 226.09404,363.24282 C 218.56966,367.33811 217.21021,372.8628 221.94772,380.09316 C 223.23698,382.06081 223.86665,382.29997 225.48194,381.43549 C 226.56295,380.85695 244.66009,375.63093 265.69781,369.82211 C 286.73552,364.01328 304.7357,359.02654 305.6982,358.74045 C 306.6607,358.45436 307.4482,358.66355 307.4482,359.20532 C 307.4482,360.23427 305.85175,360.70809 259.20618,373.52347 C 227.29963,382.28946 224.21248,383.3729 220.07504,387.2566 C 212.3166,394.53922 212.79848,407.86432 221.05516,414.35902 C 224.17888,416.81614 223.70858,416.75543 228.49955,415.32002 z"
           id="path7917" />
        <path
           style="fill:#fffd25;fill-opacity:1;fill-rule:evenodd;stroke:#000000;stroke-width:1px;stroke-linecap:butt;stroke-linejoin:miter;stroke-opacity:1"
           d="M 284.48421,471.52446 C 284.59556,470.63296 331.55883,455.99406 332.46646,456.75099 C 337.96542,461.33689 340.53593,465.13914 340.54768,470.13551 C 340.57266,480.63887 328.82309,492.01829 325.01658,500.44008 C 323.99421,502.70204 324.25897,531.88108 324.25897,531.88108 L 294.45946,532.25989 C 294.45946,532.25989 294.94188,500.06152 295.46962,497.9147 C 296.56101,493.47495 303.32683,482.47146 304.81353,478.46926 C 303.27861,477.019 284.38117,472.34939 284.48421,471.52446 z"
           id="path7919"
           sodipodi:nodetypes="csssccscs" />
      </g>
      <g
         style="fill:#ece7e6;fill-opacity:1"
         id="g7921">
        <path
           style="fill:#ece7e6;fill-opacity:1"
           d="M 321.26775,649.70355 L 321.5873,647.45355 L 279.01775,647.45355 C 238.40485,647.45355 236.4482,647.53782 236.4482,649.28688 C 236.4482,650.29522 236.75307,651.42509 237.1257,651.79771 C 237.49832,652.17034 256.51082,652.35784 279.3757,652.21438 L 320.9482,651.95355 L 321.26775,649.70355 z"
           id="path7923" />
        <path
           style="fill:#ece7e6;fill-opacity:1"
           d="M 340.4482,557.38899 C 340.4482,555.18427 339.56276,553.57096 337.29239,551.63899 C 329.48522,544.99548 333.94108,545.46732 278.9482,545.46077 L 228.9482,545.45481 L 223.1982,549.9688 C 218.49026,553.66473 217.4482,555.02383 217.4482,557.46817 L 217.4482,560.45355 L 278.9482,560.45355 L 340.4482,560.45355 L 340.4482,557.38899 z"
           id="path7925" />
        <path
           style="fill:#ece7e6;fill-opacity:1"
           d="M 329.4482,543.5604 C 329.4482,542.4819 321.36506,540.98065 303.9482,538.82439 C 286.71773,536.6912 261.14909,537.37182 242.1982,540.46813 C 234.6357,541.70374 228.4482,543.10593 228.4482,543.58412 C 228.4482,544.06522 251.00426,544.45355 278.9482,544.45355 C 307.92059,544.45355 329.4482,544.07281 329.4482,543.5604 z"
           id="path7927" />
        <path
           style="fill:#ece7e6;fill-opacity:1"
           d="M 329.4482,537.43196 L 329.4482,533.41036 L 310.1982,533.68196 C 289.52417,533.97364 284.61022,535.38554 299.59508,536.72849 C 306.46285,537.34398 328.07104,540.69204 329.1982,541.31531 C 329.3357,541.39134 329.4482,539.64383 329.4482,537.43196 z"
           id="path7929" />
        <path
           style="fill:#ece7e6;fill-opacity:1"
           d="M 239.01454,539.3376 C 242.27805,538.72383 250.08791,537.70471 256.36977,537.07289 C 263.65947,536.33971 267.9403,535.47725 268.2031,534.68884 C 268.52055,533.73649 264.12939,533.45355 249.03153,533.45355 L 229.4482,533.45355 L 229.4482,536.95355 C 229.4482,540.9761 229.81559,541.06766 239.01454,539.3376 z"
           id="path7931" />
        <path
           style="fill:#ece7e6;fill-opacity:1;fill-rule:evenodd;stroke:none;stroke-width:1px;stroke-linecap:butt;stroke-linejoin:miter;stroke-opacity:1"
           d="M 218.95056,563.44835 C 222.95803,561.34658 334.87931,561.35502 339.91634,562.94327 C 342.56366,571.11821 339.91456,609.68311 339.41125,617.49151 C 338.72704,628.10656 327.58846,643.49839 322.74374,645.52324 C 319.6224,646.8278 238.60174,645.77272 235.11301,645.01816 C 231.11586,644.15363 220.57213,629.87479 219.70818,619.00674 C 218.17984,599.78093 215.95325,572.1161 218.95056,563.44835 z"
           id="path7933"
           sodipodi:nodetypes="ccssssc" />
      </g>
    </g>
    <g
       transform="matrix(0.2248558,0,0,0.2248558,464.21325,419.02499)"
       id="g8086"
       inkscape:label="Layer 1"
       clip-path="url(#clipPath8162)">
      <path
         id="path8088"
         d="M 269.80128,730.37142 C 266.61223,729.60641 264.18648,727.82635 259.29951,722.66509 C 255.80434,718.97374 250.35796,713.56557 247.19643,710.64694 C 244.0349,707.7283 241.4482,704.51828 241.4482,703.51357 C 241.4482,702.50885 240.5482,701.45146 239.4482,701.1638 C 238.00401,700.78614 237.4482,699.79979 237.4482,697.61456 C 237.4482,695.46658 238.02863,694.4041 239.4482,693.95355 C 240.5482,693.60442 241.4482,692.72658 241.4482,692.00279 C 241.4482,691.279 240.5482,690.45146 239.4482,690.1638 C 237.03736,689.53335 236.65627,684.69467 238.9482,683.81518 C 239.7732,683.49859 240.4482,682.43586 240.4482,681.45355 C 240.4482,680.47124 239.7732,679.40851 238.9482,679.09192 C 236.66455,678.21561 237.13241,673.90927 239.6982,672.18862 L 241.9482,670.67975 L 239.6982,667.60714 C 238.07719,665.39348 237.4482,663.14197 237.4482,659.55306 C 237.4482,656.81325 236.9982,654.29347 236.4482,653.95355 C 235.8982,653.61363 235.4482,651.95429 235.4482,650.26613 C 235.4482,647.86753 234.05311,645.71787 229.06453,640.42972 C 221.47476,632.38417 218.78336,625.63423 217.41727,611.21883 C 216.3992,600.47579 216.00163,564.98514 216.88337,563.55844 C 217.21197,563.02676 217.02348,562.30909 216.46451,561.96363 C 215.90554,561.61817 215.4482,559.82435 215.4482,557.97737 C 215.4482,555.15267 216.3342,553.84206 221.02576,549.72682 C 226.44758,544.97102 226.61899,544.66156 227.16465,538.64398 C 227.63333,533.47528 228.03315,532.45355 229.58709,532.45355 C 231.32913,532.45355 231.4482,531.36276 231.4482,515.40389 C 231.4482,496.42711 231.13143,495.18136 224.44663,487.86941 C 219.55473,482.51857 218.15298,477.97089 218.60943,468.93183 C 218.89782,463.22085 219.4931,460.88409 221.27276,458.47697 L 223.56469,455.37697 L 219.03118,450.33462 C 210.4885,440.8331 210.26564,429.15443 218.47754,421.32093 L 222.28563,417.68831 L 218.87928,414.38675 C 214.26271,409.9122 212.00039,403.73733 212.81095,397.82362 C 213.53035,392.57506 216.56865,387.07596 219.98643,384.83654 L 222.29843,383.32166 L 219.87331,379.74806 C 214.96936,372.52169 217.37198,365.55282 226.33284,361.01201 C 231.35748,358.46583 250.1469,354.926 263.9482,353.92547 C 268.3482,353.60649 273.83769,352.86778 276.14708,352.28388 C 279.28827,351.48968 281.1775,351.53754 283.64708,352.47391 C 285.46269,353.16232 294.17164,354.28478 303.00028,354.96826 C 315.7885,355.95828 319.9139,356.65048 323.28951,358.37259 C 332.56981,363.10705 334.93904,374.47466 328.38267,382.80972 L 326.43101,385.29086 L 329.6896,385.98093 C 334.69404,387.0407 340.49076,390.63518 342.04624,393.64313 C 345.55307,400.4246 342.28446,412.60071 335.83643,416.77574 C 332.34432,419.03684 331.5292,420.45355 333.72036,420.45355 C 336.10632,420.45355 342.70205,426.80227 344.55539,430.88281 C 346.656,435.50778 346.86312,438.41985 345.45258,443.49727 C 344.43927,447.14479 339.48367,453.25457 335.9482,455.21523 C 334.02395,456.28237 334.07558,456.45614 337.31139,459.80335 C 343.95559,466.6763 342.41959,477.20362 332.86329,490.2892 C 329.89336,494.35598 326.99682,499.41613 326.42654,501.53398 C 325.85626,503.65184 325.51534,511.36264 325.66893,518.66909 L 325.9482,531.95355 L 328.6982,532.26997 C 331.3683,532.5772 331.4482,532.76643 331.4482,538.78314 L 331.4482,544.97989 L 336.9482,549.27545 C 342.14448,553.3338 342.4482,553.81626 342.4482,558.01228 C 342.4482,560.89046 342.00827,562.45894 341.1982,562.46886 C 340.25728,562.48039 340.27631,562.69219 341.27514,563.32543 C 342.34664,564.00475 342.48007,568.7661 341.96826,588.06012 C 341.0586,622.35227 339.06732,630.35035 328.63333,641.6203 C 324.7194,645.84781 323.12723,648.37894 323.05261,650.49218 C 322.97815,652.60079 322.44619,653.44964 321.1982,653.45127 C 319.64835,653.45329 319.4482,654.59728 319.4482,663.45355 C 319.4482,669.45355 319.0482,673.45355 318.4482,673.45355 C 316.55329,673.45355 317.45275,675.98129 319.6982,676.96642 C 321.1683,677.61139 321.9482,678.82011 321.9482,680.45355 C 321.9482,682.08699 321.1683,683.29571 319.6982,683.94068 C 316.82777,685.2 316.86883,685.84391 319.9482,687.86159 C 321.3232,688.76253 322.4482,690.39893 322.4482,691.49804 C 322.4482,692.65923 321.40086,693.97363 319.9482,694.6355 C 317.77961,695.62358 317.4482,696.42028 317.4482,700.64545 C 317.4482,703.7604 316.97177,705.69914 316.1266,706.02347 C 314.54998,706.62847 301.04041,719.6355 297.35075,724.10088 C 295.92214,725.82983 293.28222,728.00514 291.48424,728.93491 C 287.54797,730.97044 275.59845,731.7621 269.80128,730.37142 z"
         style="fill:#141414;fill-opacity:1;stroke:#000000;stroke-opacity:1" />
      <path
         id="path8090"
         d="M 287.93805,727.4434 C 289.20076,726.9008 285.5143,726.58397 277.93805,726.58397 C 270.3618,726.58397 266.67534,726.9008 267.93805,727.4434 C 269.03805,727.91609 273.53805,728.30283 277.93805,728.30283 C 282.33805,728.30283 286.83805,727.91609 287.93805,727.4434 z"
         style="fill:#b17c3a;fill-opacity:1" />
      <path
         id="path8092"
         d="M 297.89469,720.95355 L 301.5821,716.45355 L 278.9482,716.45355 L 256.3143,716.45355 L 260.00171,720.95355 L 263.68912,725.45355 L 278.9482,725.45355 L 294.20728,725.45355 L 297.89469,720.95355 z"
         style="fill:#323232;fill-opacity:1" />
      <g
         style="fill:#9b9bb0;fill-opacity:1;stroke:none;stroke-opacity:1"
         id="g8094">
        <path
           style="fill:#9b9bb0;fill-opacity:1;stroke:none;stroke-opacity:1"
           d="M 308.23413,710.70355 L 311.57086,706.95355 L 279.35692,706.6895 C 261.63925,706.54427 246.90491,706.66351 246.61394,706.95448 C 246.32297,707.24545 247.60492,709.05177 249.46272,710.96853 L 252.84053,714.45355 L 278.86896,714.45355 L 304.89739,714.45355 L 308.23413,710.70355 z"
           id="path8096" />
        <g
           id="g8098"
           style="fill:#9b9bb0;fill-opacity:1;stroke:none;stroke-opacity:1">
          <g
             style="fill:#9b9bb0;fill-opacity:1;stroke:none;stroke-opacity:1"
             id="g8100">
            <path
               style="fill:#9b9bb0;fill-opacity:1;stroke:none;stroke-opacity:1"
               d="M 315.4482,702.95355 C 315.4482,701.64799 310.78153,701.45355 279.4482,701.45355 C 248.11487,701.45355 243.4482,701.64799 243.4482,702.95355 C 243.4482,704.25911 248.11487,704.45355 279.4482,704.45355 C 310.78153,704.45355 315.4482,704.25911 315.4482,702.95355 z"
               id="path8102" />
            <path
               style="fill:#9b9bb0;fill-opacity:1;stroke:none;stroke-opacity:1"
               d="M 283.9482,696.90748 C 314.9474,694.50092 321.47009,693.59912 321.43289,691.72499 C 321.36506,688.30816 320.31226,688.30595 279.48579,691.63696 C 238.26485,695.00017 237.35637,695.16591 238.84724,699.05104 C 239.349,700.35862 240.50265,700.54153 245.20422,700.05894 C 248.36341,699.73468 265.7982,698.31652 283.9482,696.90748 z"
               id="path8104" />
            <path
               style="fill:#9b9bb0;fill-opacity:1;stroke:none;stroke-opacity:1"
               d="M 315.4482,697.95355 C 315.4482,696.51741 314.87183,695.45355 314.09377,695.45355 C 310.0031,695.45355 266.03163,699.53678 265.61289,699.95553 C 265.33897,700.22944 276.43987,700.45355 290.28153,700.45355 L 315.4482,700.45355 L 315.4482,697.95355 z"
               id="path8106" />
            <path
               style="fill:#9b9bb0;fill-opacity:1;stroke:none;stroke-opacity:1"
               d="M 276.43506,690.95015 C 314.41236,687.83437 315.4482,687.70007 315.4482,685.89228 C 315.4482,685.10098 315.3357,684.45389 315.1982,684.45431 C 315.0607,684.45472 299.1982,685.80118 279.9482,687.44644 C 260.6982,689.09169 244.6107,690.44135 244.1982,690.44568 C 243.7857,690.45001 243.4482,691.12855 243.4482,691.95355 C 243.4482,693.81453 240.38718,693.90764 276.43506,690.95015 z"
               id="path8108" />
            <path
               style="fill:#9b9bb0;fill-opacity:1;stroke:none;stroke-opacity:1"
               d="M 280.9482,686.35205 C 320.27678,683.13442 323.91103,682.45834 320.41249,679.01048 C 319.13618,677.75266 314.19816,677.95263 281.9482,680.56809 C 237.3497,684.18501 238.4482,684.03945 238.4482,686.3322 C 238.4482,688.53762 239.30199,689.45242 241.36487,689.45727 C 242.2357,689.45932 260.0482,688.06197 280.9482,686.35205 z"
               id="path8110" />
            <path
               style="fill:#9b9bb0;fill-opacity:1;stroke:none;stroke-opacity:1"
               d="M 280.81477,679.76158 C 305.94481,677.71949 314.81213,676.66874 315.18831,675.68842 C 315.46714,674.9618 315.48862,674.16064 315.23605,673.90806 C 314.98347,673.65549 299.11624,674.7999 279.97553,676.45119 C 260.83482,678.10249 244.56088,679.45355 243.81122,679.45355 C 243.06156,679.45355 242.4482,680.12855 242.4482,680.95355 C 242.4482,682.92411 241.5553,682.95185 280.81477,679.76158 z"
               id="path8112" />
            <path
               style="fill:#9b9bb0;fill-opacity:1;stroke:none;stroke-opacity:1"
               d="M 279.4482,675.46076 C 298.4232,673.82545 314.68322,672.47983 315.58157,672.47051 C 317.31053,672.45256 318.63421,669.31485 317.57563,667.74371 C 317.19661,667.18117 301.7054,668.10237 278.4482,670.07047 C 257.2732,671.86236 239.6107,673.3566 239.1982,673.391 C 238.26932,673.46847 238.2047,676.87672 239.11487,677.78688 C 240.11924,678.79126 242.18751,678.67198 279.4482,675.46076 z"
               id="path8114" />
            <path
               style="fill:#9b9bb0;fill-opacity:1;stroke:none;stroke-opacity:1"
               d="M 273.47128,669.45157 C 286.2941,668.35048 297.0096,667.22548 297.28351,666.95157 C 297.55743,666.67766 285.33153,666.45355 270.11487,666.45355 L 242.4482,666.45355 L 242.4482,668.95355 C 242.4482,672.10327 242.56829,672.10519 273.47128,669.45157 z"
               id="path8116" />
          </g>
          <path
             id="path8118"
             d="M 317.4482,659.45355 L 317.4482,653.45355 L 277.9482,653.45355 L 238.4482,653.45355 L 238.4482,658.25355 C 238.4482,660.89355 238.9882,663.59355 239.6482,664.25355 C 240.53976,665.14511 250.69264,665.45355 279.1482,665.45355 L 317.4482,665.45355 L 317.4482,659.45355 z"
             style="fill:#9b9bb0;fill-opacity:1;stroke:none;stroke-opacity:1" />
        </g>
      </g>
      <path
         id="path8120"
         d="M 327.537,640.26951 C 337.45229,630.35422 339.26245,623.02826 340.12953,589.30565 L 340.76853,564.45355 L 279.09238,564.45355 L 217.41623,564.45355 L 217.98725,587.20355 C 218.85395,621.73406 220.58058,629.16206 230.1407,639.48813 L 235.66363,645.45355 L 279.00829,645.45355 L 322.35296,645.45355 L 327.537,640.26951 z"
         style="fill:none" />
      <path
         id="path8122"
         d="M 309.26996,562.70424 C 292.94693,562.55011 265.94693,562.55001 249.26996,562.704 C 232.59299,562.858 245.9482,562.9841 278.9482,562.98423 C 311.9482,562.98436 325.59299,562.85836 309.26996,562.70424 z"
         style="fill:#000000" />
      <path
         id="path8124"
         d="M 289.4482,533.95355 C 289.4482,533.12022 290.33709,532.45355 291.4482,532.45355 C 293.3644,532.45355 293.4482,531.78688 293.4482,516.54264 C 293.4482,498.54075 294.80254,492.16372 300.38131,483.89756 C 302.18031,481.23194 303.15588,478.89092 302.60865,478.55271 C 302.07311,478.22173 296.87276,476.64678 291.05231,475.05283 L 280.46968,472.15473 L 267.95894,475.45072 C 261.07803,477.26351 255.4482,478.94878 255.4482,479.19576 C 255.4482,479.44274 256.42449,481.01588 257.61773,482.69164 C 258.81098,484.36739 260.82529,488.26186 262.094,491.34601 C 264.20169,496.46969 264.40278,498.48517 264.42446,514.70355 L 264.4482,532.45355 L 266.97958,532.45355 C 268.37185,532.45355 269.76999,533.12855 270.08657,533.95355 C 270.54169,535.13957 272.62834,535.45355 280.05519,535.45355 C 287.73787,535.45355 289.4482,535.18042 289.4482,533.95355 z"
         style="fill:#ffffff;fill-opacity:1;stroke:#000000;stroke-opacity:1" />
      <path
         id="path8126"
         d="M 324.4482,515.27003 L 324.9482,498.58651 L 331.09588,489.72035 C 339.61192,477.43857 341.52716,469.37537 337.49797,462.76737 C 334.25444,457.44786 332.86894,457.22737 322.35869,460.3581 C 317.18292,461.89983 306.5373,464.87861 298.70175,466.97762 C 290.86621,469.07662 284.62629,470.96497 284.83526,471.17395 C 285.04424,471.38293 289.75423,472.81908 295.3019,474.36541 C 305.32042,477.15792 305.4006,477.16358 307.16839,475.2039 C 310.1682,471.87845 318.49955,465.17156 319.004,465.67601 C 319.26565,465.93767 315.49555,470.15715 310.626,475.05265 C 304.59936,481.11139 300.8436,485.86942 298.86394,489.95355 C 296.0292,495.80176 295.94719,496.41596 295.62211,514.23149 L 295.28859,532.50944 L 309.61839,532.23149 L 323.9482,531.95355 L 324.4482,515.27003 z"
         style="fill:none" />
      <path
         id="path8128"
         d="M 242.6357,410.77044 C 241.91382,410.48156 241.05133,410.51709 240.71903,410.84938 C 240.38674,411.18167 240.97737,411.41802 242.03153,411.3746 C 243.19648,411.32662 243.43343,411.08966 242.6357,410.77044 z"
         style="fill:#ffffff;fill-opacity:1" />
      <g
         style="fill:#fffd25;fill-opacity:1"
         id="g8130">
        <path
           style="fill:#fffd25;fill-opacity:1;stroke:#000000;stroke-opacity:1"
           d="M 262.5332,513.95355 L 262.43902,495.95355 L 258.81425,488.71864 C 256.82063,484.73944 254.65247,481.03804 253.99612,480.49332 C 253.18817,479.82278 249.79149,480.30879 243.47877,481.99819 C 235.50255,484.13276 231.89217,484.52809 233.53153,483.08737 C 233.7607,482.88598 254.8732,477.03168 280.4482,470.07782 C 306.72772,462.9324 329.32098,456.24276 332.40476,454.69399 C 339.60416,451.07825 343.59345,445.99735 344.2015,439.66926 C 344.975,431.61928 340.87149,425.55126 332.04317,421.69023 C 329.46631,420.56325 327.54583,420.86705 315.04317,424.37944 C 307.29093,426.55729 297.2357,429.33549 292.6982,430.55324 C 288.1607,431.77098 284.4482,433.1164 284.4482,433.54305 C 284.4482,435.90617 290.14211,435.02741 307.53496,429.97998 C 324.14875,425.15863 329.13807,424.12261 327.36487,425.86235 C 326.77864,426.43751 264.12558,444.46375 245.51771,449.41103 C 237.03094,451.66741 228.58253,454.44348 226.74346,455.58008 C 222.18002,458.40045 220.14578,462.76097 220.03806,469.95355 C 219.91684,478.04774 220.76235,480.53947 225.47961,485.98984 C 233.03859,494.72356 233.4482,496.23742 233.4482,515.44045 L 233.4482,532.50702 L 248.03779,532.23028 L 262.62738,531.95355 L 262.5332,513.95355 z"
           id="path8132" />
        <path
           style="fill:#fffd25;fill-opacity:1;stroke:#000000;stroke-opacity:1"
           d="M 230.17796,452.02827 C 232.25159,451.24437 242.7232,448.25555 253.4482,445.38645 C 264.1732,442.51735 273.31875,439.96174 273.77164,439.70732 C 274.22454,439.4529 273.72938,438.63837 272.67129,437.89725 C 271.00042,436.72693 268.33765,437.19911 252.41817,441.48865 C 236.34604,445.81933 231.91914,446.64928 233.54062,445.0278 C 233.77478,444.79364 245.88728,441.39267 260.45728,437.47009 C 304.28867,425.66968 329.42096,418.51949 332.26105,417.04174 C 338.1774,413.96338 341.65231,408.24303 341.75535,401.41236 C 341.87168,393.70101 338.0353,389.71896 328.40505,387.55519 C 325.0282,386.79646 323.20362,386.96599 319.55001,388.37794 C 317.01902,389.35606 299.09139,394.5789 279.71085,399.98426 C 260.33031,405.38962 244.64393,409.98262 244.85223,410.19091 C 245.25278,410.59147 317.37599,391.1919 321.9461,389.45435 C 323.95117,388.69202 324.5198,388.73874 324.21902,389.64109 C 323.99839,390.30297 322.7222,391.1634 321.38304,391.55316 C 320.04388,391.94292 299.01953,397.70107 274.66228,404.34905 C 250.30502,410.99704 228.48002,417.304 226.16228,418.36453 C 212.83995,424.46046 210.34506,439.28375 220.86996,449.80864 C 225.01112,453.9498 225.06256,453.96207 230.17796,452.02827 z"
           id="path8134" />
        <path
           style="fill:#fffd25;fill-opacity:1;stroke:#000000;stroke-opacity:1"
           d="M 228.49955,415.32002 C 231.02411,414.56364 232.10848,413.73182 231.75859,412.82002 C 231.47019,412.06846 231.52338,411.45355 231.87678,411.45355 C 233.0031,411.45355 313.97951,388.53019 318.55186,386.91698 C 320.96575,386.06531 324.40024,383.95389 326.18407,382.22494 C 334.08646,374.56563 329.99655,361.65327 318.66715,358.49305 C 316.62173,357.9225 309.0982,357.1973 301.9482,356.88149 C 293.51148,356.50884 287.62788,355.75132 285.18685,354.72343 C 282.06858,353.41036 280.52985,353.33108 276.18685,354.25972 C 273.30559,354.87581 267.12258,355.61548 262.44682,355.90344 C 248.79814,356.744 231.68739,360.19854 226.09404,363.24282 C 218.56966,367.33811 217.21021,372.8628 221.94772,380.09316 C 223.23698,382.06081 223.86665,382.29997 225.48194,381.43549 C 226.56295,380.85695 244.66009,375.63093 265.69781,369.82211 C 286.73552,364.01328 304.7357,359.02654 305.6982,358.74045 C 306.6607,358.45436 307.4482,358.66355 307.4482,359.20532 C 307.4482,360.23427 305.85175,360.70809 259.20618,373.52347 C 227.29963,382.28946 224.21248,383.3729 220.07504,387.2566 C 212.3166,394.53922 212.79848,407.86432 221.05516,414.35902 C 224.17888,416.81614 223.70858,416.75543 228.49955,415.32002 z"
           id="path8136" />
        <path
           style="fill:#fffd25;fill-opacity:1;fill-rule:evenodd;stroke:#000000;stroke-width:1px;stroke-linecap:butt;stroke-linejoin:miter;stroke-opacity:1"
           d="M 284.48421,471.52446 C 284.59556,470.63296 331.55883,455.99406 332.46646,456.75099 C 337.96542,461.33689 340.53593,465.13914 340.54768,470.13551 C 340.57266,480.63887 328.82309,492.01829 325.01658,500.44008 C 323.99421,502.70204 324.25897,531.88108 324.25897,531.88108 L 294.45946,532.25989 C 294.45946,532.25989 294.94188,500.06152 295.46962,497.9147 C 296.56101,493.47495 303.32683,482.47146 304.81353,478.46926 C 303.27861,477.019 284.38117,472.34939 284.48421,471.52446 z"
           id="path8138"
           sodipodi:nodetypes="csssccscs" />
      </g>
      <g
         style="fill:#ece7e6;fill-opacity:1"
         id="g8140">
        <path
           style="fill:#ece7e6;fill-opacity:1"
           d="M 321.26775,649.70355 L 321.5873,647.45355 L 279.01775,647.45355 C 238.40485,647.45355 236.4482,647.53782 236.4482,649.28688 C 236.4482,650.29522 236.75307,651.42509 237.1257,651.79771 C 237.49832,652.17034 256.51082,652.35784 279.3757,652.21438 L 320.9482,651.95355 L 321.26775,649.70355 z"
           id="path8142" />
        <path
           style="fill:#ece7e6;fill-opacity:1"
           d="M 340.4482,557.38899 C 340.4482,555.18427 339.56276,553.57096 337.29239,551.63899 C 329.48522,544.99548 333.94108,545.46732 278.9482,545.46077 L 228.9482,545.45481 L 223.1982,549.9688 C 218.49026,553.66473 217.4482,555.02383 217.4482,557.46817 L 217.4482,560.45355 L 278.9482,560.45355 L 340.4482,560.45355 L 340.4482,557.38899 z"
           id="path8144" />
        <path
           style="fill:#ece7e6;fill-opacity:1"
           d="M 329.4482,543.5604 C 329.4482,542.4819 321.36506,540.98065 303.9482,538.82439 C 286.71773,536.6912 261.14909,537.37182 242.1982,540.46813 C 234.6357,541.70374 228.4482,543.10593 228.4482,543.58412 C 228.4482,544.06522 251.00426,544.45355 278.9482,544.45355 C 307.92059,544.45355 329.4482,544.07281 329.4482,543.5604 z"
           id="path8146" />
        <path
           style="fill:#ece7e6;fill-opacity:1"
           d="M 329.4482,537.43196 L 329.4482,533.41036 L 310.1982,533.68196 C 289.52417,533.97364 284.61022,535.38554 299.59508,536.72849 C 306.46285,537.34398 328.07104,540.69204 329.1982,541.31531 C 329.3357,541.39134 329.4482,539.64383 329.4482,537.43196 z"
           id="path8148" />
        <path
           style="fill:#ece7e6;fill-opacity:1"
           d="M 239.01454,539.3376 C 242.27805,538.72383 250.08791,537.70471 256.36977,537.07289 C 263.65947,536.33971 267.9403,535.47725 268.2031,534.68884 C 268.52055,533.73649 264.12939,533.45355 249.03153,533.45355 L 229.4482,533.45355 L 229.4482,536.95355 C 229.4482,540.9761 229.81559,541.06766 239.01454,539.3376 z"
           id="path8150" />
        <path
           style="fill:#ece7e6;fill-opacity:1;fill-rule:evenodd;stroke:none;stroke-width:1px;stroke-linecap:butt;stroke-linejoin:miter;stroke-opacity:1"
           d="M 218.95056,563.44835 C 222.95803,561.34658 334.87931,561.35502 339.91634,562.94327 C 342.56366,571.11821 339.91456,609.68311 339.41125,617.49151 C 338.72704,628.10656 327.58846,643.49839 322.74374,645.52324 C 319.6224,646.8278 238.60174,645.77272 235.11301,645.01816 C 231.11586,644.15363 220.57213,629.87479 219.70818,619.00674 C 218.17984,599.78093 215.95325,572.1161 218.95056,563.44835 z"
           id="path8152"
           sodipodi:nodetypes="ccssssc" />
      </g>
    </g>
  </g>
  <g
     inkscape:groupmode="layer"
     id="layer2"
     inkscape:label="Background"
     transform="translate(-55.04033,-364.30084)" />
</svg>
