<?xml version="1.0" encoding="UTF-8" standalone="no"?>
<!-- Creator: stimoroll@gmail.com -->
<svg
   xmlns:dc="http://purl.org/dc/elements/1.1/"
   xmlns:cc="http://creativecommons.org/ns#"
   xmlns:rdf="http://www.w3.org/1999/02/22-rdf-syntax-ns#"
   xmlns:svg="http://www.w3.org/2000/svg"
   xmlns="http://www.w3.org/2000/svg"
   xmlns:sodipodi="http://sodipodi.sourceforge.net/DTD/sodipodi-0.dtd"
   xmlns:inkscape="http://www.inkscape.org/namespaces/inkscape"
   xml:space="preserve"
   width="94.61496"
   height="85.432854"
   style="fill-rule:evenodd"
   viewBox="0 0 210 297"
   id="svg2"
   sodipodi:version="0.32"
   inkscape:version="0.46"
   sodipodi:docname="labor.svg"
   inkscape:output_extension="org.inkscape.output.svg.inkscape"
   version="1.0"><metadata
   id="metadata47"><rdf:RDF><cc:Work
       rdf:about=""><dc:format>image/svg+xml</dc:format><dc:type
         rdf:resource="http://purl.org/dc/dcmitype/StillImage" /><dc:title>Worker labor holding hammer in hand</dc:title><dc:subject><rdf:Bag><rdf:li>Labor-day labor day worker employee blue-collar blue collar industry hammer arm hand fist manual</rdf:li></rdf:Bag></dc:subject></cc:Work></rdf:RDF></metadata><sodipodi:namedview
   inkscape:window-height="829"
   inkscape:window-width="1440"
   inkscape:pageshadow="2"
   inkscape:pageopacity="0.0"
   guidetolerance="10.0"
   gridtolerance="10.0"
   objecttolerance="10.0"
   borderopacity="1.0"
   bordercolor="#666666"
   pagecolor="#ffffff"
   id="base"
   showgrid="false"
   inkscape:zoom="6.5680809"
   inkscape:cx="72.425719"
   inkscape:cy="42.64744"
   inkscape:window-x="0"
   inkscape:window-y="25"
   inkscape:current-layer="svg2" />
 <defs
   id="defs4" />
 <g
   id="g2496"
   transform="matrix(2.9872543,0,0,2.9872543,-264.67326,73.277348)"><path
     id="_221735344"
     transform="matrix(0.388969,0,0,0.388969,0,-24.53)"
     d="M 308,0 C 300.87976,5.342584 294.40814,11.906445 288.125,18.1875 C 292.50083,22.226635 296.87447,26.592921 301.25,30.96875 C 301.25001,30.968749 301.59993,31.288005 301.9375,31.625 C 278.3752,58.216665 266.58241,80.795841 236.625,105.03125 C 230.2967,105.03125 185.18214,145.62037 178.0625,151.46875 C 177.72611,151.46875 177.37499,151.81956 177.375,152.15625 C 172.84963,156.68222 189.77042,198.73227 192.875,208.03125 C 192.875,208.03125 193.19455,208.35111 193.53125,208.6875 C 194.65688,214.31352 191.25871,213.02255 187.5,216.78125 C 187.16331,216.78125 186.8125,217.1011 186.8125,217.4375 L 207.6875,250.4375 L 207.6875,251.09375 C 207.6875,251.09374 207.68749,251.44426 207.6875,251.78125 C 206.83097,251.78125 205.98074,251.8155 205.125,251.84375 C 205.74605,252.19775 206.37646,252.48474 207.0625,252.65625 C 209.32236,253.22121 211.86546,254.20528 214.5,255.40625 C 214.50855,255.41015 214.5227,255.40235 214.53125,255.40625 C 219.70687,254.54932 224.60917,253.875 229,253.875 C 242.80413,253.87499 256.60211,253.875 270.40625,253.875 C 284.67471,253.87499 293.67413,251.4375 309.375,251.4375 C 312.50295,251.4375 315.51508,251.76603 318.40625,252.25 C 318.24458,251.44214 318.12006,250.59601 318.03125,249.625 C 316.77933,249.46311 314.63772,249.16578 314.0625,249.09375 C 313.72579,249.09374 313.37501,249.09375 313.375,249.09375 C 304.53336,235.83929 297.00676,223.74786 289.8125,209.375 C 289.81251,208.70191 289.81249,208.36794 289.8125,208.03125 C 291.1593,206.01138 292.84808,203.98861 294.53125,201.96875 C 294.19458,201.63206 293.84376,201.28125 293.84375,201.28125 C 285.84282,188.27803 278.04539,175.38921 270.28125,162.25 C 269.94486,162.25 269.625,162.24999 269.625,162.25 C 266.97778,163.76227 263.05765,165.44236 260.875,167.625 C 260.5383,167.625 260.18749,167.9755 260.1875,168.3125 C 257.83095,165.61955 255.48802,162.91201 253.46875,160.21875 C 253.13174,159.88236 252.78124,159.5625 252.78125,159.5625 L 317.40625,109.0625 C 317.40625,109.0625 317.75733,109.38235 318.09375,109.71875 C 327.20046,109.71875 334.98823,112.4375 343.65625,112.4375 C 343.65625,112.10111 344.00705,111.75 344.34375,111.75 C 346.72077,109.37298 354.21057,101.65625 356.46875,101.65625 C 356.80515,101.31986 357.13942,100.96875 357.8125,100.96875 C 357.8125,100.96875 358.13237,100.96875 358.46875,100.96875 C 367.40246,110.84302 376.74727,120.49201 385.40625,130.59375 C 385.06954,130.59375 384.74999,130.94486 384.75,131.28125 C 371.20307,142.1292 356.56917,154.74333 344.34375,166.96875 L 343.65625,167.625 C 343.65625,167.625 343.65624,167.9755 343.65625,168.3125 C 343.65625,168.3125 344.00705,168.63236 344.34375,168.96875 C 360.8469,171.03225 379.02782,179.0625 394.84375,179.0625 C 394.84375,179.0625 395.16364,179.4136 395.5,179.75 C 402.23181,180.42369 406.28717,175.69539 411,171.65625 C 411,171.31956 411.31985,171.00001 411.65625,171 C 414.3489,168.30734 416.03283,165.93971 419.0625,168.96875 C 422.27388,172.18014 424.95148,175.85713 428.15625,179.0625 C 435.54608,174.13334 442.33271,167.19544 449.375,161.5625 C 449.37499,155.84019 438.25,152.81575 438.25,147.09375 C 443.64221,141.6967 451.75578,134.18124 458.125,129.9375 C 458.12499,129.60081 458.44424,129.24999 458.78125,129.25 C 458.78124,128.91361 459.13235,128.59375 459.46875,128.59375 C 459.46874,128.25736 459.46875,127.90625 459.46875,127.90625 C 449.99285,116.05935 439.2163,105.22466 429.5,93.5625 L 406.28125,112.09375 C 400.44552,107.71762 394.25141,100.02797 389.4375,94.25 C 389.1011,93.913606 388.78125,93.562498 388.78125,93.5625 C 388.44485,93.225805 388.09376,92.906247 388.09375,92.90625 C 379.67849,83.145111 378.66217,85.167687 383.375,75.40625 C 383.375,73.11799 387.23621,66.025388 388.09375,62.59375 C 388.09375,62.257054 388.44485,61.937499 388.78125,61.9375 C 388.44485,59.917932 388.09376,57.894265 388.09375,55.875 C 387.75735,55.538003 387.43749,55.187498 387.4375,55.1875 C 387.1002,54.851105 386.74999,54.531251 386.75,54.53125 C 385.40352,52.848678 384.06493,51.158378 382.71875,49.8125 C 382.38235,49.475805 382.03125,49.156251 382.03125,49.15625 C 380.01109,46.799988 380.01683,46.79619 379.34375,43.09375 C 379.34375,42.756754 379.34374,42.40625 379.34375,42.40625 C 379.34375,42.069856 379.34374,41.749999 379.34375,41.75 C 379.34375,41.413305 379.34374,41.062499 379.34375,41.0625 C 379.34375,40.726106 379.34374,40.406248 379.34375,40.40625 C 377.99758,37.3769 377.3351,36.697583 373.96875,35.6875 C 373.63235,35.351107 373.28126,35.000002 373.28125,35 C 371.59778,30.960869 371.27502,28.957668 366.5625,26.9375 C 366.2261,26.601106 365.875,26.250001 365.875,26.25 C 364.52821,25.913305 363.18994,25.59375 361.84375,25.59375 C 361.50737,25.257055 361.1875,24.906251 361.1875,24.90625 C 358.83125,20.866814 355.43804,17.502125 351.0625,16.15625 C 350.72551,16.15625 350.40625,16.156251 350.40625,16.15625 C 349.73345,15.819555 349.39917,15.46875 349.0625,15.46875 C 347.37962,11.766311 344.01493,10.767441 340.3125,10.09375 C 339.9761,9.757356 339.62501,9.4374998 339.625,9.4375 C 336.93204,9.773894 336.9449,9.7679082 325.5,16.5 C 321.69374,12.691949 312.63097,-6.9767109e-14 308,0 z"
     style="fill:#211919" /><path
     style="fill:#ffffff"
     d="M 89.947214,72.618173 L 109.3245,59.263357 C 109.3245,59.263357 109.45547,59.263357 109.58631,59.263357 L 115.6089,72.356128 L 89.947214,72.618173 L 89.947214,72.618173 z"
     class="fil1"
     id="_223362584" /><polygon
     transform="matrix(1.17037,0,0,1.17037,-21.1608,-25.8326)"
     style="fill:#ffffff"
     points="89.7884,83.6721 83.0763,74.2752 106.121,59.0611 112.386,68.4578 89.7884,83.6721 "
     class="fil1"
     id="_223173512" /><path
     style="fill:#c57532"
     d="M 78.687471,55.859347 C 76.315256,53.489238 73.372253,40.647745 72.141262,37.005916 L 110.37198,6.6306973 C 110.50283,6.3688864 110.63367,6.2379224 110.89548,6.1070754 C 110.89548,5.9761114 111.02656,5.8452645 111.15753,5.8452645 C 111.15753,4.1659059 116.89759,-7.5095513 118.22748,-7.5095513 C 118.22748,-7.6403982 118.35844,-7.7712452 118.48929,-7.7712452 C 118.62025,-7.9023262 118.75122,-8.0331732 119.01291,-8.0331732 C 119.01291,-8.0331732 119.14411,-7.9023262 119.27496,-7.7712452 C 119.27496,-7.7712452 119.4058,-7.6403982 119.53688,-7.5095513 C 119.53688,-7.5095513 119.66773,-7.3785873 119.79858,-7.2475063 C 122.44653,-1.9493751 128.26056,2.2579747 132.36773,6.3688864 C 134.34412,6.3688864 136.15749,5.7652114 137.86658,5.0594806 C 137.86658,4.9286336 145.76538,-3.8433788 146.24593,-3.8433788 C 146.37689,-3.8433788 146.50786,-3.8433788 146.76979,-3.8433788 C 147.57418,-3.0389861 147.83306,-2.5023731 148.34065,-1.4867293 C 148.34065,-1.0179976 148.07884,-0.65787584 148.07884,-0.43936844 C 145.13595,5.4464037 137.45894,13.305764 131.84399,15.795719 C 128.70951,15.795719 125.52237,15.010052 122.41727,15.010052 C 121.89342,15.010052 121.50064,15.010052 121.10787,15.010052 C 120.97702,15.010052 120.84617,15.141016 120.84617,15.27198 L 93.875081,35.958438 C 93.613153,36.089285 93.351342,36.220132 93.089531,36.482177 C 92.958333,36.482177 92.827486,36.613141 92.827486,36.744222 C 92.827486,36.744222 92.827486,36.875069 92.827486,37.005916 C 92.827486,37.005916 92.958333,37.13688 93.089531,37.267727 L 98.064641,43.290549 L 78.687471,55.859347 L 78.687471,55.859347 z"
     class="fil6"
     id="_223174856" /><path
     style="fill:#c57532"
     d="M 133.15316,4.5358587 C 133.02231,4.4050117 132.89135,4.2740477 132.89135,4.2740477 C 132.7605,3.7503088 132.62965,3.3575339 132.62965,2.9646419 C 132.62965,2.833912 132.7605,2.7030651 132.89135,2.7030651 C 132.89135,2.571984 132.89135,2.4411371 132.89135,2.4411371 C 132.89135,2.310056 133.02231,2.1790921 133.15316,2.1790921 C 133.15316,2.0482451 133.15316,1.9172811 133.15316,1.9172811 C 133.15316,1.7863171 133.28412,1.6554702 133.41497,1.6554702 C 133.41497,1.5246232 133.41497,1.3937763 133.41497,1.3937763 C 133.41497,1.2626952 133.54593,1.1318483 133.67678,1.1318483 C 133.67678,1.0010013 133.67678,0.87003735 133.67678,0.87003735 C 133.67678,0.73895633 133.80786,0.60810938 133.93883,0.60810938 C 133.93883,0.34606436 134.06967,0.21521741 134.20052,0.08425342 C 134.20052,-0.046593532 134.33172,-0.17744048 134.46256,-0.17744048 C 134.59341,-0.43936846 134.72438,-0.70106237 134.98619,-0.96310738 C 134.98619,-1.0939543 135.11715,-1.2249183 135.248,-1.2249183 C 135.248,-1.3558823 135.37908,-1.4867293 135.51004,-1.4867293 C 135.51004,-1.7485402 135.64089,-1.8793872 135.77174,-2.0105852 C 135.77174,-2.1414322 135.9027,-2.2722791 136.03366,-2.2722791 C 136.03366,-2.4031261 136.16451,-2.5343241 136.29536,-2.5343241 C 136.29536,-2.6651711 136.42632,-2.796018 136.5574,-2.796018 C 136.5574,-2.9270991 136.68825,-3.057946 136.81921,-3.057946 C 137.4738,-3.8433788 138.12839,-4.4980818 138.91417,-5.1526676 C 138.91417,-5.2836316 139.04502,-5.4145956 139.17598,-5.4145956 C 139.17598,-5.5454426 139.30695,-5.6762895 139.43779,-5.6762895 C 139.43779,-5.8074876 139.56864,-5.9383345 139.69949,-5.9383345 C 139.96141,-6.2002625 140.22346,-6.3311095 140.48515,-6.4619564 C 140.48515,-6.5928034 140.61612,-6.7238844 140.74696,-6.7238844 C 140.74696,-6.8548484 140.87793,-6.9856953 141.00889,-6.9856953 C 141.00889,-6.9856953 141.13974,-6.9856953 141.27059,-6.9856953 C 141.27059,-7.1166593 141.40143,-7.2475063 141.53263,-7.2475063 C 141.66348,-7.3785873 141.79432,-7.5095513 142.05637,-7.5095513 C 142.05637,-7.6403982 142.18722,-7.7712452 142.31818,-7.7712452 C 142.31818,-7.7712452 142.44914,-7.7712452 142.57999,-7.7712452 C 142.71096,-7.9023262 142.8418,-8.0331732 143.10373,-8.0331732 C 143.36542,-8.0331732 143.62759,-8.0331732 143.88928,-8.0331732 C 143.88928,-8.0331732 144.02024,-7.9023262 144.15121,-7.7712452 C 144.15121,-7.3785873 144.15121,-6.9856953 144.15121,-6.4619564 C 144.02024,-6.4619564 143.88928,-6.3311095 143.88928,-6.2002625 C 143.62759,-5.8074876 143.49674,-5.4145956 143.36542,-4.8908567 C 143.23458,-4.8908567 143.10373,-4.7600097 143.10373,-4.6291628 C 143.10373,-4.6291628 143.10373,-4.4980818 143.10373,-4.3672348 C 142.97265,-4.3672348 142.8418,-4.2363878 142.8418,-4.1050728 C 142.71096,-3.9742258 142.57999,-3.8433788 142.57999,-3.5815679 C 142.44914,-3.5815679 142.31818,-3.4506039 142.31818,-3.319757 C 142.05637,-3.057946 141.92552,-2.796018 141.79432,-2.5343241 C 141.66348,-2.5343241 141.53263,-2.4031261 141.53263,-2.2722791 C 141.27059,-2.0105852 141.00889,-1.6176933 140.74696,-1.2249183 C 140.61612,-1.2249183 140.48515,-1.0939543 140.48515,-0.96310738 C 140.35431,-0.96310738 140.22346,-0.83202636 140.22346,-0.70106237 C 140.09226,-0.70106237 139.96141,-0.57021541 139.96141,-0.43936846 C 139.83057,-0.43936846 139.69949,-0.30840447 139.69949,-0.17744048 C 139.56864,-0.17744048 139.43779,-0.046593532 139.43779,0.08425342 C 138.91417,0.47702835 138.52116,0.87003735 138.12839,1.3937763 C 137.99742,1.3937763 137.86658,1.5246232 137.86658,1.6554702 C 137.73573,1.6554702 137.60476,1.7863171 137.60476,1.9172811 C 137.4738,1.9172811 137.34295,2.0482451 137.34295,2.1790921 C 137.21211,2.1790921 137.08114,2.310056 137.08114,2.4411371 C 136.81921,2.571984 136.5574,2.7030651 136.29536,2.9646419 C 136.16451,2.9646419 136.03366,3.09584 136.03366,3.2266869 C 135.77174,3.2266869 135.64089,3.3575339 135.51004,3.4884979 C 135.37908,3.4884979 135.248,3.6193448 135.248,3.7503088 C 134.98619,3.7503088 134.85522,3.8811558 134.72438,4.0121198 C 134.59341,4.0121198 134.46256,4.1432008 134.46256,4.2740477 C 134.20052,4.2740477 134.06967,4.2740477 133.93883,4.2740477 C 133.80786,4.2740477 133.67678,4.4050117 133.67678,4.5358587 C 133.41497,4.5358587 133.28412,4.5358587 133.15316,4.5358587 L 133.15316,4.5358587 z"
     class="fil6"
     id="_223367240" /><path
     style="fill:#c57532"
     d="M 129.22541,0.60810938 C 129.09445,0.47702835 128.9636,0.34606436 128.9636,0.34606436 C 128.83275,-0.17744048 128.70155,-0.57021541 128.70155,-0.96310738 C 128.70155,-1.0939543 128.83275,-1.2249183 128.9636,-1.2249183 C 129.09445,-1.7485402 129.22541,-2.1414322 129.48734,-2.5343241 C 129.48734,-2.6651711 129.61818,-2.796018 129.74915,-2.796018 C 129.74915,-2.9270991 129.74915,-3.057946 129.74915,-3.057946 C 129.74915,-3.188793 129.88,-3.319757 130.01096,-3.319757 C 130.01096,-3.5815679 130.14192,-3.7125319 130.27277,-3.8433788 C 130.27277,-3.9742258 130.40362,-4.1050728 130.53482,-4.1050728 C 130.53482,-4.3672348 130.66566,-4.4980818 130.79651,-4.6291628 C 130.79651,-4.7600097 130.92747,-4.8908567 131.05844,-4.8908567 C 131.05844,-5.0218207 131.18928,-5.1526676 131.32025,-5.1526676 C 131.4511,-5.4145956 131.58194,-5.6762895 131.84399,-5.9383345 C 131.84399,-6.0691815 131.97483,-6.2002625 132.10592,-6.2002625 C 132.10592,-6.3311095 132.23688,-6.4619564 132.36773,-6.4619564 C 132.36773,-6.5928034 132.49857,-6.7238844 132.62965,-6.7238844 C 133.41497,-7.6403982 134.33172,-8.556795 135.248,-9.3424619 C 135.248,-9.4734259 135.37908,-9.6043899 135.51004,-9.6043899 C 135.51004,-9.7352369 135.64089,-9.8660838 135.77174,-9.8660838 C 135.77174,-9.9969308 135.9027,-10.127895 136.03366,-10.127895 C 136.16451,-10.258859 136.29536,-10.389706 136.5574,-10.389706 C 136.5574,-10.52067 136.68825,-10.651751 136.81921,-10.651751 C 136.81921,-10.782598 136.95006,-10.913562 137.08114,-10.913562 C 137.21211,-11.044409 137.34295,-11.175373 137.60476,-11.175373 C 137.60476,-11.306454 137.73573,-11.437301 137.86658,-11.437301 C 137.86658,-11.437301 137.99742,-11.437301 138.12839,-11.437301 C 138.12839,-11.568148 138.25935,-11.699112 138.3902,-11.699112 C 138.3902,-11.699112 138.52116,-11.699112 138.65224,-11.699112 C 138.65224,-11.830076 138.78309,-11.960922 138.91417,-11.960922 C 139.17598,-11.960922 139.56864,-11.960922 139.96141,-11.960922 C 139.96141,-11.960922 140.09226,-11.830076 140.22346,-11.699112 C 140.22346,-11.306454 140.22346,-10.913562 140.22346,-10.389706 C 140.09226,-10.389706 139.96141,-10.258859 139.96141,-10.127895 C 139.96141,-10.127895 139.96141,-9.9969308 139.96141,-9.8660838 C 139.83057,-9.8660838 139.69949,-9.7352369 139.69949,-9.6043899 C 139.69949,-9.6043899 139.69949,-9.4734259 139.69949,-9.3424619 C 139.56864,-9.3424619 139.43779,-9.211615 139.43779,-9.080651 C 139.43779,-9.080651 139.43779,-8.9494529 139.43779,-8.818606 C 139.30695,-8.818606 139.17598,-8.687642 139.17598,-8.556795 C 139.17598,-8.556795 139.17598,-8.4258311 139.17598,-8.2948671 C 139.04502,-8.2948671 138.91417,-8.1640201 138.91417,-8.0331732 C 138.78309,-8.0331732 138.65224,-7.9023262 138.65224,-7.7712452 C 138.65224,-7.7712452 138.65224,-7.6403982 138.65224,-7.5095513 C 138.52116,-7.5095513 138.3902,-7.3785873 138.3902,-7.2475063 C 138.25935,-7.2475063 138.12839,-7.1166593 138.12839,-6.9856953 C 137.99742,-6.8548484 137.86658,-6.7238844 137.86658,-6.4619564 C 137.73573,-6.4619564 137.60476,-6.3311095 137.60476,-6.2002625 C 137.4738,-6.2002625 137.34295,-6.0691815 137.34295,-5.9383345 C 137.08114,-5.6762895 136.95006,-5.4145956 136.81921,-5.1526676 C 136.68825,-5.1526676 136.5574,-5.0218207 136.5574,-4.8908567 C 136.42632,-4.8908567 136.29536,-4.7600097 136.29536,-4.6291628 C 136.16451,-4.6291628 136.03366,-4.4980818 136.03366,-4.3672348 C 135.9027,-4.3672348 135.77174,-4.2363878 135.77174,-4.1050728 C 135.64089,-4.1050728 135.51004,-3.9742258 135.51004,-3.8433788 C 135.37908,-3.8433788 135.248,-3.7125319 135.248,-3.5815679 C 135.11715,-3.5815679 134.98619,-3.4506039 134.98619,-3.319757 C 134.85522,-3.319757 134.72438,-3.188793 134.72438,-3.057946 C 134.59341,-3.057946 134.46256,-2.9270991 134.46256,-2.796018 C 134.33172,-2.796018 134.20052,-2.6651711 134.20052,-2.5343241 C 134.06967,-2.5343241 133.93883,-2.4031261 133.93883,-2.2722791 C 133.80786,-2.2722791 133.67678,-2.1414322 133.67678,-2.0105852 C 133.54593,-2.0105852 133.41497,-1.8793872 133.41497,-1.7485402 C 133.15316,-1.6176933 132.89135,-1.4867293 132.62965,-1.2249183 C 132.49857,-1.2249183 132.36773,-1.0939543 132.36773,-0.96310738 C 132.23688,-0.96310738 132.10592,-0.83202636 132.10592,-0.70106237 C 131.84399,-0.70106237 131.71291,-0.57021541 131.58194,-0.43936846 C 131.4511,-0.43936846 131.32025,-0.30840447 131.32025,-0.17744048 C 131.18928,-0.17744048 131.05844,-0.17744048 131.05844,-0.17744048 C 130.92747,-0.17744048 130.79651,-0.046593532 130.79651,0.08425342 C 130.53482,0.08425342 130.27277,0.21521741 130.01096,0.34606436 C 129.88,0.34606436 129.74915,0.47702835 129.74915,0.60810938 C 129.48734,0.60810938 129.35649,0.60810938 129.22541,0.60810938 L 129.22541,0.60810938 z"
     class="fil6"
     id="_223371144" /><path
     style="fill:#c57532"
     d="M 125.82081,-3.319757 C 125.68997,-3.4506039 125.55889,-3.5815679 125.55889,-3.5815679 C 125.42792,-3.7125319 125.29708,-3.8433788 125.29708,-3.8433788 C 125.29708,-3.9742258 125.29708,-4.1050728 125.29708,-4.1050728 C 125.29708,-4.3672348 125.42792,-4.4980818 125.55889,-4.6291628 C 125.68997,-5.1526676 125.82081,-5.5454426 126.08274,-5.9383345 C 126.08274,-6.0691815 126.21359,-6.2002625 126.34455,-6.2002625 C 126.34455,-6.3311095 126.34455,-6.4619564 126.34455,-6.4619564 C 126.34455,-6.5928034 126.4754,-6.7238844 126.60625,-6.7238844 C 126.60625,-6.8548484 126.73733,-6.9856953 126.86817,-6.9856953 C 126.86817,-7.1166593 126.86817,-7.2475063 126.86817,-7.2475063 C 126.86817,-7.3785873 126.99902,-7.5095513 127.1301,-7.5095513 C 127.1301,-7.6403982 127.26118,-7.7712452 127.39203,-7.7712452 C 127.39203,-8.0331732 127.52299,-8.1640201 127.65384,-8.2948671 C 127.65384,-8.4258311 127.78481,-8.556795 127.91565,-8.556795 C 127.91565,-8.687642 128.04662,-8.818606 128.17746,-8.818606 C 128.17746,-8.9494529 128.30831,-9.080651 128.43939,-9.080651 C 128.57024,-9.3424619 128.70109,-9.6043899 128.96313,-9.8660838 C 128.96313,-9.9969308 129.09398,-10.127895 129.22494,-10.127895 C 129.22494,-10.258859 129.35602,-10.389706 129.48687,-10.389706 C 129.48687,-10.52067 129.61772,-10.651751 129.74868,-10.651751 C 129.74868,-10.782598 129.87953,-10.913562 130.01049,-10.913562 C 130.01049,-11.044409 130.14146,-11.175373 130.2723,-11.175373 C 130.2723,-11.306454 130.40315,-11.437301 130.53435,-11.437301 C 130.53435,-11.568148 130.66519,-11.699112 130.79604,-11.699112 C 130.79604,-11.830076 130.92701,-11.960922 131.05797,-11.960922 C 131.05797,-12.091769 131.18882,-12.222733 131.31978,-12.222733 C 131.31978,-12.353814 131.45063,-12.484661 131.58147,-12.484661 C 131.58147,-12.615625 131.71244,-12.746589 131.84352,-12.746589 C 131.84352,-12.877436 131.97437,-13.0084 132.10545,-13.0084 C 132.36726,-13.270094 132.76003,-13.532022 133.15269,-13.793716 C 133.15269,-13.925031 133.28365,-14.055878 133.4145,-14.055878 C 133.4145,-14.186725 133.54547,-14.317689 133.67631,-14.317689 C 133.80739,-14.448653 133.93836,-14.5795 134.20005,-14.5795 C 134.20005,-14.710464 134.33125,-14.841311 134.4621,-14.841311 C 134.85475,-15.103239 135.24753,-15.234086 135.77127,-15.364933 C 135.77127,-15.496131 135.90223,-15.626978 136.0332,-15.626978 C 136.29489,-15.626978 136.55694,-15.496131 136.81875,-15.364933 C 136.81875,-15.103239 136.81875,-14.841311 136.81875,-14.5795 C 136.81875,-14.448653 136.81875,-14.317689 136.81875,-14.055878 C 136.68778,-14.055878 136.55694,-13.925031 136.55694,-13.793716 C 136.55694,-13.793716 136.55694,-13.662869 136.55694,-13.532022 C 136.42585,-13.532022 136.29489,-13.401058 136.29489,-13.270094 C 136.16404,-13.139247 136.0332,-13.0084 136.0332,-12.746589 C 135.90223,-12.746589 135.77127,-12.615625 135.77127,-12.484661 C 135.77127,-12.484661 135.77127,-12.353814 135.77127,-12.222733 C 135.64042,-12.222733 135.50957,-12.091769 135.50957,-11.960922 C 135.37861,-11.960922 135.24753,-11.830076 135.24753,-11.699112 C 135.11668,-11.568148 134.98572,-11.437301 134.98572,-11.175373 C 134.85475,-11.175373 134.72391,-11.044409 134.72391,-10.913562 C 134.4621,-10.651751 134.33125,-10.389706 134.20005,-10.127895 C 134.0692,-10.127895 133.93836,-9.9969308 133.93836,-9.8660838 C 133.80739,-9.8660838 133.67631,-9.7352369 133.67631,-9.6043899 C 133.54547,-9.6043899 133.4145,-9.4734259 133.4145,-9.3424619 C 132.10545,-8.1640201 130.92701,-6.9856953 129.74868,-5.6762895 C 129.61772,-5.6762895 129.48687,-5.5454426 129.48687,-5.4145956 C 129.35602,-5.4145956 129.22494,-5.2836316 129.22494,-5.1526676 C 128.96313,-5.1526676 128.83228,-5.0218207 128.70109,-4.8908567 C 128.57024,-4.8908567 128.43939,-4.7600097 128.43939,-4.6291628 C 128.30831,-4.6291628 128.17746,-4.4980818 128.17746,-4.3672348 C 127.91565,-4.3672348 127.78481,-4.2363878 127.65384,-4.1050728 C 127.52299,-4.1050728 127.39203,-3.9742258 127.39203,-3.8433788 C 127.26118,-3.8433788 127.1301,-3.8433788 127.1301,-3.8433788 C 126.99902,-3.8433788 126.86817,-3.7125319 126.86817,-3.5815679 C 126.73733,-3.5815679 126.60625,-3.5815679 126.60625,-3.5815679 C 126.4754,-3.5815679 126.34455,-3.4506039 126.34455,-3.319757 C 126.08274,-3.319757 125.95178,-3.319757 125.82081,-3.319757 L 125.82081,-3.319757 z"
     class="fil6"
     id="_223371536" /><path
     style="fill:#c57532"
     d="M 122.41739,-7.2475063 C 122.28619,-7.3785873 122.15534,-7.5095513 122.15534,-7.5095513 C 122.15534,-7.9023262 122.15534,-8.2948671 122.15534,-8.556795 C 122.15534,-8.818606 122.15534,-8.9494529 122.15534,-9.080651 C 122.15534,-9.211615 122.28619,-9.3424619 122.41739,-9.3424619 C 122.41739,-9.4734259 122.41739,-9.6043899 122.41739,-9.6043899 C 122.41739,-9.7352369 122.54835,-9.8660838 122.6792,-9.8660838 C 122.6792,-9.9969308 122.6792,-10.127895 122.6792,-10.127895 C 122.6792,-10.258859 122.81016,-10.389706 122.94113,-10.389706 C 122.94113,-10.52067 122.94113,-10.651751 122.94113,-10.651751 C 122.94113,-10.782598 123.07197,-10.913562 123.20282,-10.913562 C 123.20282,-11.044409 123.20282,-11.175373 123.20282,-11.175373 C 123.20282,-11.306454 123.33379,-11.437301 123.46475,-11.437301 C 123.46475,-11.568148 123.5956,-11.699112 123.72644,-11.699112 C 123.72644,-11.830076 123.72644,-11.960922 123.72644,-11.960922 C 123.72644,-12.091769 123.85741,-12.222733 123.98849,-12.222733 C 123.98849,-12.353814 124.11934,-12.484661 124.2503,-12.484661 C 124.2503,-12.746589 124.38115,-12.877436 124.51211,-13.0084 C 124.51211,-13.139247 124.64319,-13.270094 124.77404,-13.270094 C 124.77404,-13.401058 124.90489,-13.532022 125.03585,-13.532022 C 125.29766,-13.925031 125.55947,-14.317689 125.8214,-14.5795 C 125.8214,-14.710464 125.95236,-14.841311 126.08333,-14.841311 C 126.08333,-14.972158 126.21417,-15.103239 126.34514,-15.103239 C 126.34514,-15.234086 126.47599,-15.364933 126.60683,-15.364933 C 126.60683,-15.496131 126.73791,-15.626978 126.86876,-15.626978 C 126.86876,-15.757825 126.99961,-15.888789 127.13069,-15.888789 C 127.13069,-16.01987 127.26177,-16.150717 127.39262,-16.150717 C 127.39262,-16.281564 127.52358,-16.412528 127.65443,-16.412528 C 127.65443,-16.543375 127.78539,-16.674222 127.91624,-16.674222 C 127.91624,-16.805303 128.0472,-16.93615 128.17805,-16.93615 C 128.43998,-17.198195 128.70167,-17.329042 128.96372,-17.459889 C 128.96372,-17.590853 129.09456,-17.721817 129.22553,-17.721817 C 129.35661,-17.852663 129.48745,-17.98351 129.74927,-17.98351 C 129.74927,-18.114474 129.88011,-18.245321 130.01108,-18.245321 C 130.27289,-18.376285 130.53493,-18.507249 130.79663,-18.507249 C 130.79663,-18.638096 130.92759,-18.769294 131.05855,-18.769294 C 131.32037,-18.769294 131.58206,-18.769294 131.8441,-18.769294 C 131.8441,-18.769294 131.97495,-18.638096 132.10603,-18.507249 C 132.10603,-18.507249 132.10603,-18.376285 132.10603,-18.245321 C 132.10603,-18.114474 132.10603,-17.98351 132.10603,-17.721817 C 132.10603,-17.590853 132.10603,-17.459889 132.10603,-17.198195 C 131.97495,-17.066997 131.8441,-16.93615 131.8441,-16.674222 C 131.8441,-16.674222 131.8441,-16.543375 131.8441,-16.412528 C 131.71302,-16.412528 131.58206,-16.281564 131.58206,-16.150717 C 131.58206,-16.150717 131.58206,-16.01987 131.58206,-15.888789 C 131.45121,-15.888789 131.32037,-15.757825 131.32037,-15.626978 C 131.32037,-15.626978 131.32037,-15.496131 131.32037,-15.364933 C 131.1894,-15.364933 131.05855,-15.234086 131.05855,-15.103239 C 130.92759,-14.972158 130.79663,-14.841311 130.79663,-14.5795 C 130.66578,-14.5795 130.53493,-14.448653 130.53493,-14.317689 C 130.40373,-14.186725 130.27289,-14.055878 130.27289,-13.793716 C 130.14204,-13.793716 130.01108,-13.662869 130.01108,-13.532022 C 129.74927,-13.270094 129.6183,-13.0084 129.48745,-12.746589 C 129.35661,-12.746589 129.22553,-12.615625 129.22553,-12.484661 C 129.09456,-12.484661 128.96372,-12.353814 128.96372,-12.222733 C 128.57082,-11.830076 128.17805,-11.437301 127.91624,-10.913562 C 127.78539,-10.913562 127.65443,-10.782598 127.65443,-10.651751 C 127.52358,-10.651751 127.39262,-10.52067 127.39262,-10.389706 C 127.26177,-10.389706 127.13069,-10.258859 127.13069,-10.127895 C 126.99961,-10.127895 126.86876,-9.9969308 126.86876,-9.8660838 C 126.73791,-9.8660838 126.60683,-9.7352369 126.60683,-9.6043899 C 126.21417,-9.3424619 125.8214,-9.080651 125.55947,-8.818606 C 125.42851,-8.818606 125.29766,-8.687642 125.29766,-8.556795 C 125.16681,-8.556795 125.03585,-8.4258311 125.03585,-8.2948671 C 124.77404,-8.2948671 124.64319,-8.1640201 124.51211,-8.0331732 C 124.38115,-8.0331732 124.2503,-7.9023262 124.2503,-7.7712452 C 123.98849,-7.7712452 123.72644,-7.6403982 123.46475,-7.5095513 C 123.33379,-7.5095513 123.20282,-7.3785873 123.20282,-7.2475063 C 122.94113,-7.2475063 122.6792,-7.2475063 122.41739,-7.2475063 L 122.41739,-7.2475063 z"
     class="fil6"
     id="_223371784" /></g>
</svg>