<?xml version="1.0" encoding="UTF-8" standalone="no"?>
<!-- Creator: stimoroll@gmail.com -->
<svg
   xmlns:dc="http://purl.org/dc/elements/1.1/"
   xmlns:cc="http://creativecommons.org/ns#"
   xmlns:rdf="http://www.w3.org/1999/02/22-rdf-syntax-ns#"
   xmlns:svg="http://www.w3.org/2000/svg"
   xmlns="http://www.w3.org/2000/svg"
   xmlns:sodipodi="http://sodipodi.sourceforge.net/DTD/sodipodi-0.dtd"
   xmlns:inkscape="http://www.inkscape.org/namespaces/inkscape"
   xml:space="preserve"
   width="100%"
   height="100%"
   style="fill-rule:evenodd"
   viewBox="0 0 282 300"
   id="svg2"
   sodipodi:version="0.32"
   inkscape:version="0.46"
   sodipodi:docname="labor-day.svg"
   inkscape:output_extension="org.inkscape.output.svg.inkscape"
   version="1.0">
  <metadata
   id="metadata47">
    <rdf:RDF>
      <cc:Work rdf:about="">
        <dc:format>image/svg+xml</dc:format>
        <dc:type rdf:resource="http://purl.org/dc/dcmitype/StillImage" />
        <dc:title>Worker labor holding hammer in hand</dc:title>
        <dc:subject>
          <rdf:Bag>
            <rdf:li>Labor-day labor day worker employee blue-collar blue collar industry hammer arm hand fist manual</rdf:li>
          </rdf:Bag>
        </dc:subject>
      </cc:Work>
    </rdf:RDF>
  </metadata>
  <sodipodi:namedview
   inkscape:window-height="750"
   inkscape:window-width="640"
   inkscape:pageshadow="2"
   inkscape:pageopacity="0.0"
   guidetolerance="10.0"
   gridtolerance="10.0"
   objecttolerance="10.0"
   borderopacity="1.0"
   bordercolor="#666666"
   pagecolor="#ffffff"
   id="base"
   showgrid="false"
   inkscape:zoom="2"
   inkscape:cx="161.85564"
   inkscape:cy="125.1969"
   inkscape:window-x="102"
   inkscape:window-y="51"
   inkscape:current-layer="svg2" />
 <defs
   id="defs4"><inkscape:perspective
   sodipodi:type="inkscape:persp3d"
   inkscape:vp_x="0 : 444.84204 : 1"
   inkscape:vp_y="0 : 1000 : 0"
   inkscape:vp_z="539.88818 : 444.84204 : 1"
   inkscape:persp3d-origin="269.94409 : 296.56136 : 1"
   id="perspective45" />
  <style
   type="text/css"
   id="style6">
    .fil5 {fill:white}
    .fil0 {fill:#211919}
    .fil3 {fill:#312167}
    .fil6 {fill:#C57532}
    .fil2 {fill:#DE2119}
    .fil4 {fill:#FFF700}
    .fil1 {fill:white}
  </style>
 </defs>
 <g
   id="g2496"
   transform="matrix(2.9678184,0,0,2.9678184,-261.94862,73.765188)"><path
     id="_221735344"
     transform="matrix(0.388969,0,0,0.388969,0,-24.53)"
     d="M 308,-3.3029135e-15 C 300.87976,5.342584 294.40814,11.906445 288.125,18.1875 C 292.8443,22.546735 297.3721,27.10723 301.9375,31.625 C 278.3752,58.216665 266.58241,80.795841 236.625,105.03125 C 230.2967,105.03125 185.18214,145.62037 178.0625,151.46875 C 177.72611,151.46875 177.37499,151.81956 177.375,152.15625 C 172.84963,156.68222 189.77042,198.73227 192.875,208.03125 C 192.875,208.03125 193.19455,208.35111 193.53125,208.6875 C 194.65688,214.31352 191.25871,213.02255 187.5,216.78125 C 187.16331,216.78125 186.8125,217.1011 186.8125,217.4375 L 207.6875,250.4375 C 207.6875,250.88542 207.6875,251.33333 207.6875,251.78125 C 206.83097,251.78125 205.98074,251.8155 205.125,251.84375 C 205.74605,252.19775 206.37646,252.48474 207.0625,252.65625 C 209.32236,253.22121 211.86546,254.20528 214.5,255.40625 C 219.29521,254.54178 224.13084,254.01414 229,253.875 C 242.80413,253.87499 256.60211,253.875 270.40625,253.875 C 284.67471,253.87499 293.67413,251.4375 309.375,251.4375 C 312.50295,251.4375 315.51508,251.76603 318.40625,252.25 C 318.24458,251.44214 318.12006,250.59601 318.03125,249.625 C 316.48102,249.40278 314.93432,249.18122 313.375,249.09375 C 304.53336,235.83929 297.00676,223.74786 289.8125,209.375 C 289.81251,208.70191 289.81249,208.36794 289.8125,208.03125 C 291.1593,206.01138 292.84808,203.98861 294.53125,201.96875 C 294.19458,201.63206 293.84376,201.28125 293.84375,201.28125 C 285.84282,188.27803 278.04539,175.38921 270.28125,162.25 C 269.94486,162.25 269.625,162.24999 269.625,162.25 C 266.22328,163.82156 262.85451,165.94141 260.1875,168.3125 C 257.64713,165.45973 255.24848,162.46095 252.78125,159.5625 L 317.40625,109.0625 C 317.40625,109.0625 317.75733,109.38235 318.09375,109.71875 C 327.20046,109.71875 334.98823,112.4375 343.65625,112.4375 C 347.84916,108.04065 352.20115,103.36621 357.8125,100.96875 C 357.8125,100.96875 358.13237,100.96875 358.46875,100.96875 C 367.40246,110.84302 376.74727,120.49201 385.40625,130.59375 C 385.06954,130.59375 384.74999,130.94486 384.75,131.28125 C 371.20307,142.1292 356.56917,154.74333 344.34375,166.96875 L 343.65625,167.625 C 343.65625,167.625 343.65624,167.9755 343.65625,168.3125 C 343.65625,168.3125 344.00705,168.63236 344.34375,168.96875 C 360.8469,171.03225 379.02782,179.0625 394.84375,179.0625 C 394.84375,179.0625 395.16364,179.4136 395.5,179.75 C 402.23181,180.42369 406.28717,175.69539 411,171.65625 C 411,171.31956 411.31985,171.00001 411.65625,171 C 414.3489,168.30734 416.03283,165.93971 419.0625,168.96875 C 422.27388,172.18014 424.95148,175.85713 428.15625,179.0625 C 435.54608,174.13334 442.33271,167.19544 449.375,161.5625 C 449.37499,155.84019 438.25,152.81575 438.25,147.09375 C 443.64221,141.6967 451.75578,134.18124 458.125,129.9375 C 458.12499,129.60081 458.44424,129.24999 458.78125,129.25 C 458.78124,128.91361 459.13235,128.59375 459.46875,128.59375 C 459.46874,128.25736 459.46875,127.90625 459.46875,127.90625 C 449.99285,116.05935 439.2163,105.22466 429.5,93.5625 L 406.28125,112.09375 C 400.44552,107.71762 394.25141,100.02797 389.4375,94.25 C 389.1011,93.913606 388.78125,93.562498 388.78125,93.5625 C 388.44485,93.225805 388.09376,92.906247 388.09375,92.90625 C 379.67849,83.145111 378.66217,85.167687 383.375,75.40625 C 383.375,73.11799 387.23621,66.025388 388.09375,62.59375 C 388.09375,62.257054 388.44485,61.937499 388.78125,61.9375 C 388.44485,59.917932 388.09376,57.894265 388.09375,55.875 C 387.05172,53.48584 384.93938,51.591685 382.71875,49.8125 C 380.5009,47.943849 379.56054,45.976451 379.34375,43.09375 C 379.20068,39.188182 377.57763,36.919072 373.96875,35.6875 C 373.63235,35.351107 373.28126,35.000002 373.28125,35 C 371.59778,30.960869 371.27502,28.957668 366.5625,26.9375 C 366.2261,26.601106 365.875,26.250001 365.875,26.25 C 364.52821,25.913305 362.12151,25.326642 360.77532,25.326642 C 357.98922,17.994614 355.04534,16.905235 349.0625,15.46875 C 345.94029,8.9863687 342.56682,9.4333391 339.625,9.4375 C 336.92985,9.441312 336.9449,9.7679082 325.5,16.5 C 321.69374,12.691949 312.63097,-6.0562666e-14 308,-3.3029135e-15 z"
     style="fill:#211919"
     sodipodi:nodetypes="cccccccccccccsccssccccccscccccccccccccccccccsccccccccccsscccccccsccccscc" /><path
     style="fill:#ffffff"
     d="M 89.947214,72.618173 L 110.69587,58.283808 L 116.58845,71.964308 L 89.947214,72.618173 L 89.947214,72.618173 z"
     class="fil1"
     id="_223362584"
     sodipodi:nodetypes="ccccc" /><polygon
     transform="matrix(1.17037,0,0,1.17037,-21.1608,-25.8326)"
     style="fill:#ffffff"
     points="89.7884,83.6721 83.0763,74.2752 106.121,59.0611 112.386,68.4578 89.7884,83.6721 "
     class="fil1"
     id="_223173512" /><path
     style="fill:#c57532"
     d="M 78.687471,55.859347 C 76.315256,53.489238 73.372253,40.647745 72.141262,37.005916 L 109.11922,5.4077675 C 109.30464,5.0507193 109.63543,4.8496694 109.90477,4.6223347 C 109.90477,2.9429761 116.89759,-7.5095513 118.22748,-7.5095513 C 118.22748,-7.6403982 118.35844,-7.7712452 118.48929,-7.7712452 C 118.62025,-7.9023262 118.75122,-8.0331732 119.01291,-8.0331732 C 119.01291,-8.0331732 119.14411,-7.9023262 119.27496,-7.7712452 C 119.27496,-7.7712452 119.4058,-7.6403982 119.53688,-7.5095513 C 119.53688,-7.5095513 119.66773,-7.3785873 119.79858,-7.2475063 C 122.44653,-1.9493751 128.26056,2.2579747 132.36773,6.3688864 C 134.34412,6.3688864 136.15749,5.7652114 137.86658,5.0594806 C 137.86658,4.9286336 145.76538,-3.8433788 146.24593,-3.8433788 C 146.37689,-3.8433788 146.50786,-3.8433788 146.76979,-3.8433788 C 147.57418,-3.0389861 147.83306,-2.5023731 148.34065,-1.4867293 C 148.34065,-1.0179976 148.07884,-0.65787584 148.07884,-0.43936844 C 145.13595,5.4464037 137.45894,13.305764 131.84399,15.795719 C 128.70951,15.795719 125.99961,15.487293 122.89451,15.487293 C 122.25036,15.364416 121.75291,15.52351 121.32341,15.749221 L 93.875081,35.958438 C 93.307868,36.376056 92.552901,36.618088 93.089531,37.267727 L 98.064641,43.290549 L 78.687471,55.859347 L 78.687471,55.859347 z"
     class="fil6"
     id="_223174856"
     sodipodi:nodetypes="ccccccccccccsccccccssccc" /><path
     style="fill:#c57532"
     d="M 132.12944,3.6852988 C 130.59967,1.7557974 138.36204,-6.9072542 142.90341,-8.7122643 C 143.54683,-8.9679977 145.25511,-7.4695417 144.91312,-7.0093348 C 141.22123,-2.0412653 137.51579,1.5935862 133.67678,4.5358587 C 133.27482,4.6055895 132.34775,3.9606528 132.12944,3.6852988 z"
     class="fil6"
     id="_223367240"
     sodipodi:nodetypes="csscs" /><path
     style="fill:#c57532"
     d="M 129.22541,0.60810938 C 128.67566,0.083282191 128.71053,-0.553036 128.9636,-1.2249183 C 130.49009,-5.2775892 133.73812,-8.3091141 137.08114,-10.913562 C 137.99122,-11.622581 138.18205,-12.030187 139.44193,-12.030187 C 139.44193,-12.030187 140.09226,-11.830076 140.22346,-11.699112 C 139.31681,-8.5548357 133.3158,-0.1628521 129.22541,0.60810938 L 129.22541,0.60810938 z"
     class="fil6"
     id="_223371144"
     sodipodi:nodetypes="csssccs" /><path
     style="fill:#c57532"
     d="M 125.82081,-3.319757 C 125.46995,-3.525455 125.18425,-3.8164309 125.29708,-4.1050728 C 127.16919,-8.8943741 132.77318,-12.965818 136.0332,-15.626978 C 136.69585,-16.167897 138.28041,-16.001302 137.82309,-14.983978 C 136.60289,-12.269647 129.98504,-3.6247896 125.82081,-3.319757 L 125.82081,-3.319757 z"
     class="fil6"
     id="_223371536"
     sodipodi:nodetypes="cssscs" /><path
     style="fill:#c57532"
     d="M 121.79401,-8.6327978 C 122.12182,-10.724075 127.05166,-17.239542 131.07369,-18.922836 C 132.0319,-19.323868 133.37122,-18.888617 133.21426,-18.06814 C 132.4428,-14.035327 126.40763,-8.8562564 123.20282,-7.2475063 C 122.00935,-6.6484101 121.68739,-7.952615 121.79401,-8.6327978 z"
     class="fil6"
     id="_223371784"
     sodipodi:nodetypes="cssss" />
</g>
</svg>
