<?xml version="1.0" standalone="no"?>
<!--Created with Inkscape (http://www.inkscape.org/)-->
<svg xmlns="http://www.w3.org/2000/svg" xmlns:xlink="http://www.w3.org/1999/xlink" viewBox="0 0 48 48">
  <defs>
    <linearGradient id="h">
      <stop offset="0" stop-color="#eeeeec" stop-opacity="1"/>
      <stop offset="0.5" stop-color="#eeeeec" stop-opacity="1"/>
      <stop offset="0.78313255" stop-color="white" stop-opacity="1"/>
      <stop offset="1" stop-color="#d3d7cf" stop-opacity="1"/>
    </linearGradient>
    <linearGradient id="d">
      <stop offset="0" stop-color="#ef2929" stop-opacity="1"/>
      <stop offset="1" stop-color="#ef2929" stop-opacity="0"/>
    </linearGradient>
    <linearGradient id="b">
      <stop offset="0" stop-color="#ef2929" stop-opacity="1"/>
      <stop offset="1" stop-color="#ef2929" stop-opacity="0"/>
    </linearGradient>
    <linearGradient id="c">
      <stop offset="0" stop-color="#ef2929" stop-opacity="1"/>
      <stop offset="1" stop-color="#ef2929" stop-opacity="0"/>
    </linearGradient>
    <linearGradient id="e">
      <stop offset="0" stop-color="#ef2929" stop-opacity="1"/>
      <stop offset="1" stop-color="#ef2929" stop-opacity="0"/>
    </linearGradient>
    <linearGradient id="a">
      <stop offset="0" stop-color="black" stop-opacity="1"/>
      <stop offset="1" stop-color="black" stop-opacity="0"/>
    </linearGradient>
    <linearGradient id="f">
      <stop offset="0" stop-color="white" stop-opacity="1"/>
      <stop offset="1" stop-color="white" stop-opacity=".3392857"/>
    </linearGradient>
    <linearGradient id="g">
      <stop offset="0" stop-color="white" stop-opacity="1"/>
      <stop offset="1" stop-color="white" stop-opacity="0"/>
    </linearGradient>
    <radialGradient xlink:href="#a" id="i" gradientUnits="userSpaceOnUse" gradientTransform="matrix(1,0,0,0.625,0,6.375)" cx="8" cy="17" fx="8" fy="17" r="8"/>
    <linearGradient xlink:href="#b" id="n" gradientUnits="userSpaceOnUse" x1="15.821683" y1="15.989761" x2="14.372151" y2="14.54023" gradientTransform="matrix(2,0,0,2.073159,2,0.390502)"/>
    <linearGradient xlink:href="#c" id="m" gradientUnits="userSpaceOnUse" x1="15.291184" y1="6.4436507" x2="17.416643" y2="4.3181915" gradientTransform="matrix(2,0,0,2.073159,2,0.390502)"/>
    <linearGradient xlink:href="#d" id="l" gradientUnits="userSpaceOnUse" x1="6.4302521" y1="15.967495" x2="8.122447" y2="14.2753" gradientTransform="matrix(2,0,0,2.073159,2,0.390502)"/>
    <linearGradient xlink:href="#e" id="k" gradientUnits="userSpaceOnUse" x1="6.055223" y1="6.3116894" x2="4.4831853" y2="4.7396517" gradientTransform="matrix(2,0,0,2.073159,2,0.390502)"/>
    <radialGradient xlink:href="#f" id="o" gradientUnits="userSpaceOnUse" gradientTransform="matrix(2.723968,0,0,2.633434,-13.5604,-4.83122)" cx="7.5927024" cy="3.1548533" fx="7.5927024" fy="3.1548533" r="8.4622421"/>
    <radialGradient xlink:href="#g" id="p" gradientUnits="userSpaceOnUse" gradientTransform="matrix(2.21022,0,0,2.138888,-12.1022,-18.82138)" cx="10.863756" cy="16.148972" fx="10.863756" fy="16.148972" r="8.7143736"/>
    <radialGradient xlink:href="#h" id="j" cx="24" cy="22.136841" fx="24" fy="22.136841" r="19.5" gradientTransform="matrix(1,0,0,1.035642,0,-0.826715)" gradientUnits="userSpaceOnUse"/>
  </defs>
  <metadata/>
  <path transform="matrix(3,0,0,2.764211,2,0.736029)" d="M 5,3.25 C 5,4.492 3.4313649,6.6029241 3,5.5 C 2.1703291,3.3786773 0.93342283,5.2887429 0.3484685,4.0315399 C -0.22935565,2.7896614 2.4934373,2.7209744 2.7599621,1.5582428 C 3.1438483,-0.11648562 5,2.008 5,3.25 z " fill="none" fill-opacity="1" stroke="#edd400" stroke-width="1.04177764" stroke-linecap="round" stroke-linejoin="miter" stroke-miterlimit="4" stroke-dashoffset="1.20000057" stroke-opacity="1" stroke-dasharray="none"/>
  <path transform="matrix(3,0,0,2.764211,28,0.736029)" d="M 5.1324347,3.7530602 C 6.5408877,4.6221586 4.104,5.5 3,5.5 C 1.896,5.5 1,4.492 1,3.25 C 1,2.008 2.5979486,0.9217573 3.6290649,1.6827245 C 4.6449011,2.432415 3.7071849,2.8735972 5.1324347,3.7530602 z " fill="none" fill-opacity="1" stroke="#edd400" stroke-width="1.04177764" stroke-linecap="round" stroke-linejoin="miter" stroke-miterlimit="4" stroke-dashoffset="1.20000057" stroke-opacity="1" stroke-dasharray="none"/>
  <path d="M 16 17 A 8 5 0 1 1  0,17 A 8 5 0 1 1  16 17 z" transform="matrix(3.002717,0,0,1.306102,-2.173913e-2,16.33263)" opacity=".5" fill="url(#i)" fill-opacity="1" stroke="none" stroke-width="1" stroke-linecap="round" stroke-linejoin="miter" stroke-miterlimit="4" stroke-dasharray="none" stroke-dashoffset="1.20000057" stroke-opacity="1"/>
  <path transform="matrix(3,0,0,2.764211,2,27.6871)" d="M 5,3.25 C 3.8003631,3.6635328 3.655238,6.4417811 2.708796,5.6734303 C 1.7079235,4.8608912 2.890837,3.4082738 1.3249579,3.638696 C -0.23373408,3.8680605 0.81467683,1.5284674 3,1 C 4.0775742,0.73941485 5,2.008 5,3.25 z " fill="none" fill-opacity="1" stroke="#edd400" stroke-width="1.04177764" stroke-linecap="round" stroke-linejoin="miter" stroke-miterlimit="4" stroke-dashoffset="1.20000057" stroke-opacity="1" stroke-dasharray="none"/>
  <path transform="matrix(3,0,0,2.764211,28,27.6871)" d="M 4.9106118,3.4503621 C 3.213324,3.9676214 4.4687559,5.5062573 3.2630712,5.6808834 C 2.1050538,5.8486056 1.6264165,4.3705129 1.4714045,3.25 C 1.3172976,2.1360296 2.1622013,0.2197078 3,1 C 3.7209838,1.6714955 6.6199357,2.9294347 4.9106118,3.4503621 z " fill="none" fill-opacity="1" stroke="#edd400" stroke-width="1.04177764" stroke-linecap="round" stroke-linejoin="miter" stroke-miterlimit="4" stroke-dashoffset="1.20000057" stroke-opacity="1" stroke-dasharray="none"/>
  <path transform="matrix(3,0,0,2.764211,2,0.736029)" d="M 5,3.25 C 5,4.492 3.4313649,6.6029241 3,5.5 C 2.1703291,3.3786773 0.93342283,5.2887429 0.3484685,4.0315399 C -0.22935565,2.7896614 2.4934373,2.7209744 2.7599621,1.5582428 C 3.1438483,-0.11648562 5,2.008 5,3.25 z " fill="none" fill-opacity="1" stroke="#fff" stroke-width=".34725916" stroke-linecap="round" stroke-linejoin="miter" stroke-miterlimit="4" stroke-dashoffset="1.20000057" stroke-opacity="1"/>
  <path transform="matrix(3,0,0,2.764211,28,0.736029)" d="M 5.1324347,3.7530602 C 6.5408877,4.6221586 4.104,5.5 3,5.5 C 1.896,5.5 1,4.492 1,3.25 C 1,2.008 2.5979486,0.9217573 3.6290649,1.6827245 C 4.6449011,2.432415 3.7071849,2.8735972 5.1324347,3.7530602 z " fill="none" fill-opacity="1" stroke="#fff" stroke-width=".34725916" stroke-linecap="round" stroke-linejoin="miter" stroke-miterlimit="4" stroke-dashoffset="1.20000057" stroke-opacity="1"/>
  <path transform="matrix(3,0,0,2.764211,2,27.6871)" d="M 5,3.25 C 3.8003631,3.6635328 3.655238,6.4417811 2.708796,5.6734303 C 1.7079235,4.8608912 2.890837,3.4082738 1.3249579,3.638696 C -0.23373408,3.8680605 0.81467683,1.5284674 3,1 C 4.0775742,0.73941485 5,2.008 5,3.25 z " fill="none" fill-opacity="1" stroke="#fff" stroke-width=".34725916" stroke-linecap="round" stroke-linejoin="miter" stroke-miterlimit="4" stroke-dashoffset="1.20000057" stroke-opacity="1"/>
  <path transform="matrix(3,0,0,2.764211,28,27.6871)" d="M 4.9106118,3.4503621 C 3.213324,3.9676214 4.4687559,5.5062573 3.2630712,5.6808834 C 2.1050538,5.8486056 1.6264165,4.3705129 1.4714045,3.25 C 1.3172976,2.1360296 2.1622013,0.2197078 3,1 C 3.7209838,1.6714955 6.6199357,2.9294347 4.9106118,3.4503621 z " fill="none" fill-opacity="1" stroke="#fff" stroke-width=".34725916" stroke-linecap="round" stroke-linejoin="miter" stroke-miterlimit="4" stroke-dashoffset="1.20000057" stroke-opacity="1"/>
  <path d="M 24,3.5002405 C 13.512009,3.5002405 5,12.323604 5,23.195251 C 5,34.066899 13.512009,42.890262 24,42.890262 C 34.48799,42.890262 43,34.066899 43,23.195251 C 43,12.323604 34.48799,3.5002405 24,3.5002405 z M 24,13.866036 C 28.967992,13.866035 33,18.045532 33,23.195251 C 33,28.34497 28.967992,32.524467 24,32.524467 C 19.032008,32.524467 15,28.34497 15,23.195251 C 15,18.045532 19.032008,13.866036 24,13.866036 z " fill="url(#j)" fill-opacity="1" stroke="#888a85" stroke-width="1.00000012" stroke-linecap="round" stroke-linejoin="round" stroke-miterlimit="4" stroke-dasharray="none" stroke-dashoffset="1.20000057" stroke-opacity="1"/>
  <path d="M 16.375,5.1846822 C 12.031516,7.1681393 8.5384652,10.788965 6.625,15.291332 C 10.619567,15.244087 13.21478,17.295875 15.75,19.43765 C 16.655903,17.312499 18.324842,15.582511 20.375,14.64347 C 19.653901,11.053231 18.398365,7.8447314 16.375,5.1846822 z " fill="url(#k)" fill-opacity="1" fill-rule="evenodd" stroke="none" stroke-width="1px" stroke-linecap="butt" stroke-linejoin="miter" stroke-opacity="1"/>
  <path d="M 15.75,26.952852 C 12.708333,27.729884 9.6666667,27.935454 6.625,31.09917 C 8.5384652,35.601536 12.031516,39.222362 16.375,41.20582 C 16.917398,37.525601 17.956195,34.176314 20.375,31.747032 C 18.324842,30.80799 16.655903,29.078003 15.75,26.952852 z " fill="url(#l)" fill-opacity="1" stroke="none" stroke-width="1" stroke-linecap="round" stroke-linejoin="miter" stroke-miterlimit="4" stroke-dasharray="none" stroke-dashoffset="1.20000057" stroke-opacity="1"/>
  <path d="M 31.625,5.1846822 C 29.676221,7.7221655 28.016661,10.548869 27.625,14.64347 C 29.675158,15.582511 31.344096,17.312499 32.25,19.43765 C 35.429475,16.815267 38.508941,15.092969 41.375,15.291332 C 39.461534,10.788965 35.968484,7.1681393 31.625,5.1846822 z " fill="url(#m)" fill-opacity="1" fill-rule="evenodd" stroke="none" stroke-width="1px" stroke-linecap="butt" stroke-linejoin="miter" stroke-opacity="1"/>
  <path d="M 32.25,26.952852 C 31.344096,29.078003 29.675158,30.80799 27.625,31.747032 C 29.646436,34.211859 30.85863,37.485927 31.625,41.20582 C 35.968484,39.222362 39.461534,35.601536 41.375,31.09917 C 39.211413,28.663368 35.980663,27.508162 32.25,26.952852 z " fill="url(#n)" fill-opacity="1" fill-rule="evenodd" stroke="none" stroke-width="1px" stroke-linecap="butt" stroke-linejoin="miter" stroke-opacity="1"/>
  <path d="M 15.75,19.43765 C 16.655904,17.312499 18.324842,15.582511 20.375,14.64347 M 16.375,5.1846822 C 12.031516,7.1681393 8.538466,10.788965 6.625,15.291332" fill="none" fill-rule="evenodd" stroke="#a40000" stroke-width="1.00000012px" stroke-linecap="round" stroke-linejoin="miter" stroke-opacity="1"/>
  <path d="M 41.375,15.291332 C 39.461534,10.788965 35.968484,7.1681393 31.625,5.1846822 M 27.625,14.64347 C 29.675158,15.582511 31.344096,17.312499 32.25,19.43765" fill="none" fill-rule="evenodd" stroke="#a40000" stroke-width="1.00000012px" stroke-linecap="round" stroke-linejoin="miter" stroke-opacity="1"/>
  <path d="M 32.25,26.952852 C 31.344096,29.078003 29.675158,30.80799 27.625,31.747032 M 31.625,41.20582 C 35.968484,39.222362 39.461534,35.601536 41.375,31.09917" fill="none" fill-rule="evenodd" stroke="#a40000" stroke-width="1.00000012px" stroke-linecap="round" stroke-linejoin="miter" stroke-opacity="1"/>
  <path d="M 20.375,31.747032 C 18.324842,30.80799 16.655903,29.078003 15.75,26.952852 M 6.625,31.09917 C 8.5384652,35.601536 12.031516,39.222362 16.375,41.20582" fill="none" fill-opacity="1" stroke="#a40000" stroke-width="1.00000012" stroke-linecap="round" stroke-linejoin="miter" stroke-miterlimit="4" stroke-dasharray="none" stroke-dashoffset="1.20000057" stroke-opacity="1"/>
  <path d="M 18 10.28125 A 8 7.71875 0 1 1  2,10.28125 A 8 7.71875 0 1 1  18 10.28125 z" transform="matrix(2.246534,0,0,2.422058,1.53466,-1.706524)" opacity=".4" fill="none" fill-opacity="1" stroke="url(#o)" stroke-width=".42869788" stroke-linecap="round" stroke-linejoin="miter" stroke-miterlimit="4" stroke-dasharray="none" stroke-dashoffset="1.20000057" stroke-opacity="1"/>
  <path d="M 18 10.28125 A 8 7.71875 0 1 1  2,10.28125 A 8 7.71875 0 1 1  18 10.28125 z" transform="matrix(1.242433,0,0,1.335027,11.57567,9.469519)" opacity=".8" fill="none" fill-opacity="1" stroke="url(#p)" stroke-width=".77645928" stroke-linecap="round" stroke-linejoin="miter" stroke-miterlimit="4" stroke-dasharray="none" stroke-dashoffset="1.20000057" stroke-opacity="1"/>
</svg>
