<?xml version="1.0" standalone="no"?>
<!--Created with Inkscape (http://www.inkscape.org/)-->
<svg xmlns="http://www.w3.org/2000/svg" xmlns:xlink="http://www.w3.org/1999/xlink" viewBox="0 0 48 48">
  <defs>
    <linearGradient id="e">
      <stop offset="0" stop-color="white" stop-opacity="1"/>
      <stop offset="1" stop-color="white" stop-opacity="0"/>
    </linearGradient>
    <linearGradient id="d">
      <stop offset="0" stop-color="#555753" stop-opacity="1"/>
      <stop offset="1" stop-color="#555753" stop-opacity="0"/>
    </linearGradient>
    <linearGradient id="c">
      <stop offset="0" stop-color="#888a85" stop-opacity="1"/>
      <stop offset="1" stop-color="#babdb6" stop-opacity="0"/>
    </linearGradient>
    <linearGradient id="b">
      <stop offset="0" stop-color="#595959" stop-opacity="1"/>
      <stop offset="1" stop-color="#414141" stop-opacity="0"/>
    </linearGradient>
    <linearGradient id="a">
      <stop offset="0" stop-color="#7ea7d3" stop-opacity="1"/>
      <stop offset="0.125" stop-color="#8bb1d9" stop-opacity="1"/>
      <stop offset="0.42562979" stop-color="#3871aa" stop-opacity="1"/>
      <stop offset="0.69892961" stop-color="#3c77b6" stop-opacity="1"/>
      <stop offset="1" stop-color="#6c9acf" stop-opacity="1"/>
    </linearGradient>
    <linearGradient xlink:href="#a" id="g" x1="9.0877619" y1="21.214285" x2="35.799229" y2="19.976284" gradientUnits="userSpaceOnUse" gradientTransform="matrix(1,0,0,1.00176,1.928564,-1.144402e-2)"/>
    <linearGradient xlink:href="#b" id="i" x1="8.9642859" y1="36" x2="8.5" y2="43.857143" gradientUnits="userSpaceOnUse" gradientTransform="matrix(1,0,0,0.986364,1.4999999,5.5833119e-2)"/>
    <linearGradient xlink:href="#c" id="f" x1="5.9999986" y1="36.573788" x2="5.9999986" y2="44.618351" gradientUnits="userSpaceOnUse" gradientTransform="matrix(1,0,0,1.025641,0.928584,-1.192325)"/>
    <linearGradient xlink:href="#d" x1="5.9999986" y1="36.573788" x2="5.9999986" y2="44.618351" gradientUnits="userSpaceOnUse" gradientTransform="matrix(1,0,0,1.025641,0.928584,-1.192325)"/>
    <linearGradient xlink:href="#e" id="h" x1="5.5" y1="15.444439" x2="5.5" y2="36.087296" gradientUnits="userSpaceOnUse" gradientTransform="translate(0.928584,-1.395367e-5)"/>
  </defs>
  <metadata/>
  <rect width="2.9999979" height="40.000027" x="5.4285841" y="6.4999857" rx="1.4999989" ry="1.4999989" opacity="1" fill="url(#f)" fill-opacity="1" stroke="url(#linearGradient6171)" stroke-width="1.00000083" stroke-linecap="round" stroke-linejoin="round" stroke-miterlimit="4" stroke-dasharray="none" stroke-opacity="1"/>
  <path d="M 8.4285571,8.0191769 C 8.4285571,8.0191769 13.558991,6.3318604 18.776384,6.5137056 C 23.993777,6.6955518 25.385081,8.6621415 31.298129,8.4499877 C 37.211174,8.2378348 42.428567,6.7662186 42.428567,6.7662186 L 42.428567,31.348027 C 42.428567,31.348027 37.269145,33.5 31.356099,33.5 C 25.443053,33.5 24.341603,31.802646 18.776384,31.590494 C 13.211166,31.37834 8.4285571,32.507719 8.4285571,32.507719 C 8.4285571,32.507719 10.428557,26.385584 10.428557,20.263448 C 10.428557,14.141312 8.4285571,8.0191769 8.4285571,8.0191769 z " fill="url(#g)" fill-opacity="1" fill-rule="evenodd" stroke="#204a87" stroke-width="1.00000143px" stroke-linecap="butt" stroke-linejoin="miter" stroke-opacity="1"/>
  <path d="M 9.500001,8.7637787 C 9.500001,8.7637787 14.363355,7.344305 19.254661,7.5126806 C 24.145966,7.6810561 25.450314,9.5019736 30.993798,9.3055349 C 36.537278,9.1090971 41.428583,8.1036315 41.428583,8.1036315 L 41.428583,30.721717 C 41.428583,30.721717 36.591624,32.499999 31.048145,32.499999 C 25.504664,32.499999 24.472053,30.928375 19.254661,30.731937 C 14.037268,30.535499 9.7857153,31.224078 9.7857153,31.224078 C 9.7857153,31.224078 11.357149,25.894257 11.428572,20.351071 C 11.500001,14.807425 9.500001,8.7637787 9.500001,8.7637787 z " opacity=".22826089" fill="none" fill-opacity="1" fill-rule="evenodd" stroke="#fff" stroke-width="1.00000191px" stroke-linecap="butt" stroke-linejoin="miter" stroke-opacity="1"/>
  <path d="M 6.4285844,8.5098834 L 6.4285844,41.471314" opacity=".3" fill="none" fill-opacity=".75" fill-rule="evenodd" stroke="url(#h)" stroke-width="1px" stroke-linecap="round" stroke-linejoin="miter" stroke-opacity="1"/>
  <path d="M 11.035714 29.053572 A 1.3035715 1.3035715 0 1 1  8.428571,29.053572 A 1.3035715 1.3035715 0 1 1  11.035714 29.053572 z" transform="matrix(1.5342462,0,0,1.5342462,-1.4315025,-16.075332)" opacity=".7" fill="#fff" fill-opacity="1" stroke="#204a87" stroke-width=".65178639" stroke-linecap="round" stroke-linejoin="round" stroke-miterlimit="4" stroke-dasharray="none" stroke-opacity="1"/>
  <path d="M 13.5,28.5 C 13.238095,36.000002 11.119048,39.785718 9.9285717,45.428577" fill="#2e3436" fill-opacity=".75" fill-rule="evenodd" stroke="url(#i)" stroke-width="1.00000024px" stroke-linecap="round" stroke-linejoin="miter" stroke-opacity="1"/>
  <g transform="translate(0,-1)" opacity=".50588235">
    <path transform="matrix(0.9846154,0,0,0.9846154,0.7769231,-0.3153846)" d="M 34.25 20.125 A 8.125 8.125 0 1 1  18,20.125 A 8.125 8.125 0 1 1  34.25 20.125 z" style="marker:none" opacity="1" color="#000" fill="none" fill-opacity="1" fill-rule="evenodd" stroke="#fff" stroke-width="1.015625" stroke-linecap="round" stroke-linejoin="miter" marker-start="none" marker-mid="none" marker-end="none" stroke-miterlimit="4" stroke-dasharray="none" stroke-dashoffset="0" stroke-opacity="1" visibility="visible" display="inline" overflow="visible" enable-background="accumulate"/>
    <path style="marker:none" d="M 33.186956,16.106991 A 8.125,8.125 0 0 1 26.959277,28.207055" transform="matrix(1.2461539,0,0,1.2461539,-6.0557692,-5.5788461)" opacity="1" color="#000" fill="none" fill-opacity="1" fill-rule="evenodd" stroke="#fff" stroke-width="1.60493815" stroke-linecap="round" stroke-linejoin="miter" marker-start="none" marker-mid="none" marker-end="none" stroke-miterlimit="4" stroke-dasharray="none" stroke-dashoffset="0" stroke-opacity="1" visibility="visible" display="inline" overflow="visible" enable-background="accumulate"/>
    <path transform="matrix(-1.2461539,0,0,1.2461539,58.90791,-5.5788461)" d="M 33.071089,15.909852 A 8.125,8.125 0 0 1 26.959277,28.207055" style="marker:none" opacity="1" color="#000" fill="none" fill-opacity="1" fill-rule="evenodd" stroke="#fff" stroke-width="1.60493815" stroke-linecap="round" stroke-linejoin="miter" marker-start="none" marker-mid="none" marker-end="none" stroke-miterlimit="4" stroke-dasharray="none" stroke-dashoffset="0" stroke-opacity="1" visibility="visible" display="inline" overflow="visible" enable-background="accumulate"/>
    <path style="marker:none" d="M 34.25 20.125 A 8.125 8.125 0 1 1  18,20.125 A 8.125 8.125 0 1 1  34.25 20.125 z" transform="matrix(0.7384615,0,0,0.7384615,7.2076941,4.6384629)" opacity="1" color="#000" fill="none" fill-opacity="1" fill-rule="evenodd" stroke="#fff" stroke-width="1.35416675" stroke-linecap="round" stroke-linejoin="miter" marker-start="none" marker-mid="none" marker-end="none" stroke-miterlimit="4" stroke-dasharray="none" stroke-dashoffset="0" stroke-opacity="1" visibility="visible" display="inline" overflow="visible" enable-background="accumulate"/>
    <path transform="matrix(0.4846153,0,0,0.4846153,13.839425,9.7471168)" d="M 34.25 20.125 A 8.125 8.125 0 1 1  18,20.125 A 8.125 8.125 0 1 1  34.25 20.125 z" style="marker:none" opacity="1" color="#000" fill="none" fill-opacity="1" fill-rule="evenodd" stroke="#fff" stroke-width="2.0634923" stroke-linecap="round" stroke-linejoin="miter" marker-start="none" marker-mid="none" marker-end="none" stroke-miterlimit="4" stroke-dasharray="none" stroke-dashoffset="0" stroke-opacity="1" visibility="visible" display="inline" overflow="visible" enable-background="accumulate"/>
    <path d="M 30,16 L 28.5,18 L 30.4375,20.5625 L 27.5625,23.4375 C 27.5625,23.4375 32,25 32,25 L 32,20 L 31,19 L 33,17 L 29.4375,14 L 30,16 z " style="marker:none" opacity="1" color="#000" fill="#fff" fill-opacity="1" fill-rule="evenodd" stroke="none" stroke-width="2" stroke-linecap="round" stroke-linejoin="miter" marker-start="none" marker-mid="none" marker-end="none" stroke-miterlimit="4" stroke-dasharray="none" stroke-dashoffset="0" stroke-opacity="1" visibility="visible" display="inline" overflow="visible" enable-background="accumulate"/>
    <path d="M 22,21 L 19.5625,25.5 L 25,23 L 22,21 z " style="marker:none" opacity="1" color="#000" fill="#fff" fill-opacity="1" fill-rule="evenodd" stroke="none" stroke-width="2" stroke-linecap="round" stroke-linejoin="miter" marker-start="none" marker-mid="none" marker-end="none" stroke-miterlimit="4" stroke-dasharray="none" stroke-dashoffset="0" stroke-opacity="1" visibility="visible" display="inline" overflow="visible" enable-background="accumulate"/>
    <path d="M 20.5625,19 C 20.5625,19 25,21.5 25,21 C 25,20.5 25,19 25,19 L 23.5,19 L 25,16.4375 L 20.5625,19 z " style="marker:none" opacity="1" color="#000" fill="#fff" fill-opacity="1" fill-rule="evenodd" stroke="none" stroke-width="2" stroke-linecap="round" stroke-linejoin="miter" marker-start="none" marker-mid="none" marker-end="none" stroke-miterlimit="4" stroke-dasharray="none" stroke-dashoffset="0" stroke-opacity="1" visibility="visible" display="inline" overflow="visible" enable-background="accumulate"/>
  </g>
</svg>
