<?xml version="1.0" standalone="no"?>
<!--Created with Inkscape (http://www.inkscape.org/)-->
<svg xmlns="http://www.w3.org/2000/svg" xmlns:xlink="http://www.w3.org/1999/xlink" viewBox="0 0 48 48">
  <defs>
    <linearGradient id="g">
      <stop offset="0" stop-color="#000" stop-opacity="1"/>
      <stop offset="1" stop-color="#000" stop-opacity="0"/>
    </linearGradient>
    <linearGradient id="f">
      <stop offset="0" stop-color="#fff" stop-opacity="1"/>
      <stop offset="1" stop-color="#fff" stop-opacity="0"/>
    </linearGradient>
    <linearGradient id="e">
      <stop offset="0" stop-color="#3465a4" stop-opacity="1"/>
      <stop offset="1" stop-color="#204a87" stop-opacity="1"/>
    </linearGradient>
    <filter id="k" height="1.5668966" y="-0.28344828" width="1.1522222" x="-0.076111111">
      <feGaussianBlur stdDeviation="1.4531044"/>
    </filter>
    <radialGradient r="17.986024" fy="17.727694" fx="29.922075" cy="17.727694" cx="29.922075" gradientTransform="matrix(0.558489,0,-1.377346e-8,0.563387,14.87134,4.364123)" gradientUnits="userSpaceOnUse" id="p" xlink:href="#a"/>
    <radialGradient gradientUnits="userSpaceOnUse" gradientTransform="matrix(1.354517,0,-3.340511e-8,1.366395,-8.947464,-9.871365)" r="17.986024" fy="26.814409" fx="24.753788" cy="26.814409" cx="24.753788" id="l" xlink:href="#a"/>
    <linearGradient y2="35.803486" x2="30.935921" y1="29.553486" x1="30.935921" gradientTransform="matrix(1.33835,0,0,1.33835,-33.47918,-20.70004)" gradientUnits="userSpaceOnUse" id="i" xlink:href="#b"/>
    <linearGradient y2="35.739632" x2="21.408455" y1="36.390400" x1="22.686766" gradientTransform="matrix(-1.308485,0.281154,0.281154,1.308485,39.09106,-26.21225)" gradientUnits="userSpaceOnUse" id="j" xlink:href="#c"/>
    <linearGradient gradientTransform="matrix(-1.308485,0.281154,0.281154,1.308485,57.41196,-17.2385)" y2="35.739632" x2="21.408455" y1="36.390400" x1="22.686766" gradientUnits="userSpaceOnUse" id="m" xlink:href="#c"/>
    <linearGradient gradientTransform="matrix(1.3161,0.243028,-0.243028,1.3161,-9.262129,-16.07396)" gradientUnits="userSpaceOnUse" y2="36.217758" x2="22.626925" y1="35.817974" x1="20.661695" id="n" xlink:href="#c"/>
    <radialGradient gradientUnits="userSpaceOnUse" r="8.6620579" fy="19.008621" fx="31.112698" cy="19.008621" cx="31.112698" id="o" xlink:href="#d"/>
    <linearGradient id="d">
      <stop offset="0" stop-color="#000" stop-opacity="1"/>
      <stop offset="1" stop-color="#000" stop-opacity="0"/>
    </linearGradient>
    <linearGradient id="b">
      <stop offset="0" stop-color="#fff" stop-opacity="1"/>
      <stop offset="1.0000000" stop-color="#c9c9c9" stop-opacity="1"/>
    </linearGradient>
    <linearGradient id="c">
      <stop offset="0" stop-color="#000" stop-opacity="1"/>
      <stop offset="1" stop-color="#000" stop-opacity="0"/>
    </linearGradient>
    <linearGradient id="a">
      <stop offset="0" stop-color="#fff" stop-opacity="1"/>
      <stop offset="1" stop-color="#d6d6d2" stop-opacity="1"/>
    </linearGradient>
    <filter>
      <feGaussianBlur stdDeviation="0.60052097"/>
    </filter>
    <linearGradient xlink:href="#e" id="q" x1="29.229109" y1="26.791224" x2="32.870152" y2="59.239529" gradientUnits="userSpaceOnUse"/>
    <linearGradient xlink:href="#f" id="r" x1="29.913771" y1="20.086231" x2="32.681488" y2="53.800053" gradientUnits="userSpaceOnUse"/>
    <radialGradient xlink:href="#g" id="h" cx="37.25" cy="44.21875" fx="37.25" fy="44.21875" r="5.375" gradientTransform="matrix(1,0,0,0.377907,0,27.508176)" gradientUnits="userSpaceOnUse"/>
  </defs>
  <metadata/>
  <path style="marker:none" d="M 42.625,44.21875 A 5.375,2.03125 0 1 1 31.875,44.21875 A 5.375,2.03125 0 1 1 42.625,44.21875 z" transform="matrix(1.5846154,0,0,1.5846154,-21.776923,-25.850962)" opacity=".56470588" color="#000" fill="url(#h)" fill-opacity="1" fill-rule="evenodd" stroke="none" stroke-width="1" stroke-linecap="round" stroke-linejoin="miter" marker-start="none" marker-mid="none" marker-end="none" stroke-miterlimit="4" stroke-dasharray="none" stroke-dashoffset="0" stroke-opacity="1" visibility="visible" display="inline" overflow="visible" enable-background="accumulate"/>
  <g transform="translate(-1.5679977,-0.1407331)">
    <g display="inline">
      <path d="M 13.365469,24.850231 L 19.043607,24.850231 L 15.731361,21.774572 L 15.021593,22.720929 L 14.311825,22.011162 L 13.365469,24.850231 z" style="marker:none" opacity="1" color="#000" fill="url(#i)" fill-opacity="1" fill-rule="evenodd" stroke="none" stroke-width="1px" stroke-linecap="round" stroke-linejoin="round" marker-start="none" marker-mid="none" marker-end="none" stroke-miterlimit="4" stroke-dasharray="none" stroke-dashoffset="0" stroke-opacity="1" visibility="visible" display="inline" overflow="visible"/>
      <path style="marker:none" d="M 19.882923,32.490544 C 21.530768,31.712992 22.297815,29.810737 22.297815,29.810737 C 21.014177,24.39981 16.976336,20.652646 16.976336,20.652646 C 16.976336,20.652646 20.274824,29.141269 19.882923,32.490544 z" opacity=".22784807" color="#000" fill="url(#j)" fill-opacity="1" fill-rule="evenodd" stroke="none" stroke-width="1px" stroke-linecap="round" stroke-linejoin="round" marker-start="none" marker-mid="none" marker-end="none" stroke-miterlimit="4" stroke-dasharray="none" stroke-dashoffset="0" stroke-opacity="1" visibility="visible" display="inline" overflow="visible"/>
    </g>
    <g display="inline">
      <rect transform="matrix(0.9351852,0,0,0.9351852,1.5811694,2.2763322)" ry="5.126524" rx="5.126524" y="35.448853" x="5.3033009" height="10.253048" width="38.183765" style="marker:none" opacity=".34857142" color="#000" fill="#000" fill-opacity="1" fill-rule="nonzero" stroke="none" stroke-width=".30000001" stroke-linecap="butt" stroke-linejoin="miter" marker-start="none" marker-mid="none" marker-end="none" stroke-miterlimit="10" stroke-dasharray="none" stroke-dashoffset="0" stroke-opacity="1" visibility="visible" display="block" overflow="visible" filter="url(#k)" enable-background="accumulate"/>
      <path d="M 17.918908,43.517006 L 32.114254,43.517006 C 36.136269,43.517006 40.118235,42.042236 41.577816,37.838868 C 42.963864,33.847271 41.814406,26.246002 32.824021,20.094686 L 16.026195,20.094686 C 7.0358098,25.772823 5.9122958,33.538186 7.9821665,38.075456 C 10.090864,42.697836 13.660304,43.517006 17.918908,43.517006 z" style="marker:none" opacity="1" color="#000" fill="url(#l)" fill-opacity="1" fill-rule="evenodd" stroke="#888a85" stroke-width=".99999982px" stroke-linecap="round" stroke-linejoin="round" marker-start="none" marker-mid="none" marker-end="none" stroke-miterlimit="4" stroke-dasharray="none" stroke-dashoffset="0" stroke-opacity="1" visibility="visible" display="inline" overflow="visible"/>
      <path style="marker:none" d="M 38.203826,41.464292 C 39.851671,40.68674 40.618718,38.784486 40.618718,38.784486 C 39.33508,33.373558 35.297238,29.626395 35.297238,29.626395 C 35.297238,29.626395 38.595727,38.115017 38.203826,41.464292 z" opacity=".29120878" color="#000" fill="url(#m)" fill-opacity="1" fill-rule="evenodd" stroke="none" stroke-width="1px" stroke-linecap="round" stroke-linejoin="round" marker-start="none" marker-mid="none" marker-end="none" stroke-miterlimit="4" stroke-dasharray="none" stroke-dashoffset="0" stroke-opacity="1" visibility="visible" display="inline" overflow="visible"/>
      <path d="M 11.642995,42.046125 C 9.9732599,41.316765 9.2259419,39.559099 9.2259419,39.559099 C 10.351871,34.11317 14.204505,30.128795 14.204505,30.128795 C 14.204505,30.128795 11.153975,38.709646 11.642995,42.046125 z" style="marker:none" opacity=".54945056" color="#000" fill="url(#n)" fill-opacity="1" fill-rule="evenodd" stroke="none" stroke-width="1px" stroke-linecap="round" stroke-linejoin="round" marker-start="none" marker-mid="none" marker-end="none" stroke-miterlimit="4" stroke-dasharray="none" stroke-dashoffset="0" stroke-opacity="1" visibility="visible" display="inline" overflow="visible"/>
      <path style="marker:none" d="M 17.593144,42.482789 L 32.120832,42.452196 C 35.775407,42.452196 39.393589,41.112158 40.719828,37.292799 C 41.97925,33.665864 40.58869,26.759027 32.419643,21.169679 L 16.464198,20.833163 C 8.295151,25.99256 6.714018,33.0485 8.6253819,37.507773 C 10.536748,41.967046 13.325894,42.452196 17.593144,42.482789 z" opacity=".64285715" color="#000" fill="none" fill-opacity="1" fill-rule="evenodd" stroke="#fff" stroke-width=".99999988px" stroke-linecap="round" stroke-linejoin="round" marker-start="none" marker-mid="none" marker-end="none" stroke-miterlimit="4" stroke-dasharray="none" stroke-dashoffset="0" stroke-opacity="1" visibility="visible" display="inline" overflow="visible"/>
      <path transform="matrix(1.33835,0,0,0.6312432,-17.02698,9.668764)" style="marker:none" d="M 39.774755,19.008621 A 8.6620579,8.6620579 0 1 1 22.45064,19.008621 A 8.6620579,8.6620579 0 1 1 39.774755,19.008621 z" opacity=".46470588" color="#000" fill="url(#o)" fill-opacity="1" fill-rule="evenodd" stroke="none" stroke-width="1px" stroke-linecap="round" stroke-linejoin="round" marker-start="none" marker-mid="none" marker-end="none" stroke-miterlimit="4" stroke-dasharray="none" stroke-dashoffset="0" stroke-opacity="1" visibility="visible" display="inline" overflow="visible" filter="url(#filter5918)"/>
      <path transform="matrix(1.33835,0,0,1.33835,-16.85969,-12.20659)" d="M 39.774755,19.008621 A 8.6620579,8.6620579 0 1 1 22.45064,19.008621 A 8.6620579,8.6620579 0 1 1 39.774755,19.008621 z" style="marker:none" opacity="1" color="#000" fill="url(#p)" fill-opacity="1" fill-rule="evenodd" stroke="#888a85" stroke-width=".74718857px" stroke-linecap="round" stroke-linejoin="round" marker-start="none" marker-mid="none" marker-end="none" stroke-miterlimit="4" stroke-dasharray="none" stroke-dashoffset="0" stroke-opacity="1" visibility="visible" display="inline" overflow="visible"/>
      <path transform="matrix(1.215123,0,0,1.215123,-13.02574,-9.864199)" style="marker:none" d="M 39.774755,19.008621 A 8.6620579,8.6620579 0 1 1 22.45064,19.008621 A 8.6620579,8.6620579 0 1 1 39.774755,19.008621 z" opacity=".19620254" color="#000" fill="none" fill-opacity="1" fill-rule="evenodd" stroke="#fff" stroke-width=".82296228px" stroke-linecap="round" stroke-linejoin="round" marker-start="none" marker-mid="none" marker-end="none" stroke-miterlimit="4" stroke-dasharray="none" stroke-dashoffset="0" stroke-opacity="1" visibility="visible" display="inline" overflow="visible"/>
    </g>
  </g>
  <path style="marker:none" d="M 45,31 A 13,13 0 1 1 19,31 A 13,13 0 1 1 45,31 z" transform="matrix(0.6510299,0,0,0.6510299,16.203655,16.781462)" opacity="1" color="#000" fill="url(#q)" fill-opacity="1" fill-rule="evenodd" stroke="#204a87" stroke-width="1.53602779" stroke-linecap="round" stroke-linejoin="miter" marker-start="none" marker-mid="none" marker-end="none" stroke-miterlimit="4" stroke-dasharray="none" stroke-dashoffset="0" stroke-opacity="1" visibility="visible" display="inline" overflow="visible" enable-background="accumulate"/>
  <path style="text-align:start;line-height:125%" d="M 35.703496,36.201798 C 35.840356,35.522973 36.045648,35.04122 36.319373,34.75654 C 36.593093,34.466403 36.979043,34.321329 37.477222,34.321321 C 37.975394,34.321329 38.303861,34.466403 38.462625,34.75654 C 38.626854,35.046695 38.643277,35.528447 38.511895,36.201798 L 37.501857,41.251989 C 37.364992,41.930824 37.156962,42.415313 36.877768,42.705459 C 36.604042,42.990131 36.215356,43.132467 35.711708,43.132467 C 35.219005,43.132467 34.890537,42.990131 34.726305,42.705459 C 34.567545,42.415313 34.556596,41.930824 34.693458,41.251989 L 35.703496,36.201798 M 36.647841,32.071317 C 36.719006,31.715488 36.907875,31.414393 37.214448,31.168031 C 37.521014,30.916218 37.849481,30.790305 38.199851,30.790293 C 38.555686,30.790305 38.832146,30.916218 39.029232,31.168031 C 39.226307,31.414393 39.289263,31.715488 39.218101,32.071317 C 39.152402,32.421693 38.969007,32.722788 38.667917,32.974603 C 38.366817,33.220964 38.03835,33.344139 37.682514,33.344129 C 37.326671,33.344139 37.047473,33.220964 36.844921,32.974603 C 36.647838,32.722788 36.582144,32.421693 36.647841,32.071317" font-size="16.81754684px" font-style="italic" font-variant="normal" font-weight="400" font-stretch="normal" writing-mode="lr-tb" text-anchor="start" fill="#fff" fill-opacity="1" stroke="none" stroke-width="1px" stroke-linecap="butt" stroke-linejoin="miter" stroke-opacity="1" font-family="Amelia BT"/>
  <path transform="matrix(0.5783978,0,0,0.5783978,18.527883,19.033058)" d="M 45,31 A 13,13 0 1 1 19,31 A 13,13 0 1 1 45,31 z" style="marker:none" opacity=".27647059" color="#000" fill="none" fill-opacity="1" fill-rule="evenodd" stroke="url(#r)" stroke-width="1.72891402" stroke-linecap="round" stroke-linejoin="miter" marker-start="none" marker-mid="none" marker-end="none" stroke-miterlimit="4" stroke-dasharray="none" stroke-dashoffset="0" stroke-opacity="1" visibility="visible" display="inline" overflow="visible" enable-background="accumulate"/>
</svg>
