<?xml version="1.0" encoding="UTF-8" standalone="no"?>
<!-- Generator: Adobe Illustrator 13.0.0, SVG Export Plug-In . SVG Version: 6.00 Build 14948)  -->
<svg
   xmlns:dc="http://purl.org/dc/elements/1.1/"
   xmlns:cc="http://creativecommons.org/ns#"
   xmlns:rdf="http://www.w3.org/1999/02/22-rdf-syntax-ns#"
   xmlns:svg="http://www.w3.org/2000/svg"
   xmlns="http://www.w3.org/2000/svg"
   xmlns:sodipodi="http://sodipodi.sourceforge.net/DTD/sodipodi-0.dtd"
   xmlns:inkscape="http://www.inkscape.org/namespaces/inkscape"
   version="1.0"
   id="finding_the_tracks"
   x="0px"
   y="0px"
   width="100%"
   height="100%"
   viewBox="0 0 238.1689 213.61613"
   xml:space="preserve"
   sodipodi:version="0.32"
   inkscape:version="0.46"
   sodipodi:docname="02 - finding the tracks.svg"
   inkscape:output_extension="org.inkscape.output.svg.inkscape"><metadata
     id="metadata200"><rdf:RDF><cc:Work
         rdf:about=""><dc:format>image/svg+xml</dc:format><dc:type
           rdf:resource="http://purl.org/dc/dcmitype/StillImage" /></cc:Work></rdf:RDF></metadata><defs
     id="defs198"><inkscape:perspective
       sodipodi:type="inkscape:persp3d"
       inkscape:vp_x="0 : 117 : 1"
       inkscape:vp_y="0 : 1000 : 0"
       inkscape:vp_z="252 : 117 : 1"
       inkscape:persp3d-origin="126 : 78 : 1"
       id="perspective202" /></defs><sodipodi:namedview
     inkscape:window-height="1024"
     inkscape:window-width="1680"
     inkscape:pageshadow="2"
     inkscape:pageopacity="0.0"
     guidetolerance="10.0"
     gridtolerance="10.0"
     objecttolerance="10.0"
     borderopacity="1.0"
     bordercolor="#666666"
     pagecolor="#ffffff"
     id="base"
     showgrid="false"
     inkscape:zoom="1.974359"
     inkscape:cx="126"
     inkscape:cy="117"
     inkscape:window-x="-4"
     inkscape:window-y="-4"
     inkscape:current-layer="finding_the_tracks" /><g
     id="g3"
     transform="translate(-4.8,-11.104391)"><g
       id="g5"><path
         clip-rule="evenodd"
         d="M 54,85.2 C 54.912,85.754 54.305,88.139 52.8,87.6 C 52.452,86.052 53.777,86.177 54,85.2 z"
         id="path7"
         style="fill-rule:evenodd" /><path
         clip-rule="evenodd"
         d="M 33.2,102.4 C 34.724,98.591 37.089,95.622 40,93.2 C 40.667,92.405 39.964,92.691 40,91.6 C 41.013,91.146 42.268,90.934 42.8,90 C 42.489,95.157 37.057,98.656 34.4,102.8 L 33.934,102.2 L 33.2,102.4 z"
         id="path9"
         style="fill-rule:evenodd" /><path
         clip-rule="evenodd"
         d="M 78,120 C 78.717,119.949 78.844,120.489 79.6,120.4 C 79.728,121.106 77.359,121.114 78,120 z"
         id="path11"
         style="fill-rule:evenodd" /><path
         clip-rule="evenodd"
         d="M 29.2,125.2 C 27.987,126.679 27.853,123.985 29.2,125.2 L 29.2,125.2 z"
         id="path13"
         style="fill-rule:evenodd" /><path
         clip-rule="evenodd"
         d="M 102,132 C 101.841,131.224 103.822,131.416 103.2,132.4 C 102.933,132.4 102.666,132.4 102.4,132.4 C 102.474,132.06 102.244,132.022 102,132 z"
         id="path15"
         style="fill-rule:evenodd" /><path
         clip-rule="evenodd"
         d="M 78.4,147.2 C 78.698,146.298 80.644,147.044 81.6,146.8 C 81.302,147.702 79.356,146.956 78.4,147.2 z"
         id="path17"
         style="fill-rule:evenodd" /><path
         clip-rule="evenodd"
         d="M 241.6,171.2 C 239.551,173.741 234.18,179.75 231.201,175.2 C 231.821,173.565 233.742,173.388 233.201,171.599 C 236.17,170.645 239.072,168.971 241.6,171.2 z"
         id="path19"
         style="fill-rule:evenodd" /><path
         clip-rule="evenodd"
         d="M 210,176.8 C 209.966,176.233 209.934,175.667 210.4,175.6 C 209.806,175.127 209.777,174.089 209.2,173.6 C 210.37,171.292 213.42,170.649 216.4,172 C 216.595,175.844 212.69,177.558 210.4,177.6 L 210.599,177 L 210,176.8 z"
         id="path21"
         style="fill-rule:evenodd" /><path
         clip-rule="evenodd"
         d="M 220.8,172.4 C 221.844,173.223 222.69,174.244 223.6,175.2 C 221.93,177.929 219.368,179.767 215.6,180.4 C 215.102,179.431 214.61,178.457 214.401,177.2 C 216.245,175.312 217.558,172.892 220.8,172.4 z"
         id="path23"
         style="fill-rule:evenodd" /><path
         clip-rule="evenodd"
         d="M 242.4,175.2 C 243.588,176.105 242.647,179.346 242,180.8 C 238.912,182.239 233.86,183.297 233.6,180 C 233.359,176.958 238.582,175.636 242.4,175.2 z"
         id="path25"
         style="fill-rule:evenodd" /><path
         clip-rule="evenodd"
         d="M 52.4,180.8 C 53.567,180.212 53.567,182.588 52.4,182 C 52.4,181.6 52.4,181.2 52.4,180.8 z"
         id="path27"
         style="fill-rule:evenodd" /><path
         clip-rule="evenodd"
         d="M 180.8,212 C 181.84,208.374 185.683,207.549 188.8,206 C 190.142,206.68 190.117,208.598 189.2,209.6 C 191.919,208.333 195.084,205.823 197.2,209.201 C 195.971,213.173 192.968,215.369 188,215.6 C 187.659,214.474 186.708,213.959 186.8,212.401 C 185.542,213.009 185.983,215.316 185.6,216.8 C 183.722,216.918 183.37,215.27 182,216.8 C 181.597,215.024 179.757,213.874 181.2,212.401 L 181.4,211.8 L 180.8,212 z"
         id="path29"
         style="fill-rule:evenodd" /><path
         clip-rule="evenodd"
         d="M 166.8,210.4 C 167.043,211.976 165.905,212.171 164.8,212.4 C 164.805,213.195 165.892,212.908 165.6,214 C 164.098,216.606 160.552,218.937 156.8,218 C 156.082,216.082 157.911,216.711 158.401,216 C 158.234,215.575 156.208,215.071 156.401,215.6 C 155.738,215.197 155.966,213.902 155.6,213.201 C 158.705,211.594 162.222,208.136 166.8,210.4 z"
         id="path31"
         style="fill-rule:evenodd" /><path
         clip-rule="evenodd"
         d="M 168.4,218.8 C 167.592,223.837 161.643,225.49 156,224.401 C 158.814,220.749 162.971,218.674 168.4,218.8 z"
         id="path33"
         style="fill-rule:evenodd" /><path
         clip-rule="evenodd"
         d="M 126.4,220 C 126.4,220.667 126.4,221.333 126.4,222 C 122.43,223.485 119.63,223.119 115.6,223.2 C 115.75,219.215 121.739,219.354 126.4,220 z"
         id="path35"
         style="fill-rule:evenodd" /><path
         clip-rule="evenodd"
         d="M 46.8,179.2 C 47.082,178.014 47.992,177.458 47.6,175.599 C 48.167,175.634 48.733,175.665 48.8,175.2 C 49.468,175.248 48.344,176.906 50,176.8 L 50.2,177.401 L 50.8,177.201 C 51.236,179.033 50.813,180.878 51.2,182.001 C 51.405,182.596 52.098,182.368 52.4,182.801 C 52.732,183.278 52.128,184.299 53.2,184.001 C 53.548,181.572 54.312,180.878 52.8,179.201 C 54.758,177.958 54.429,174.43 54.8,171.6 C 53.739,172.071 52.445,170.833 52.4,171.6 L 52.2,171.401 L 52,171.201 C 51.283,171.252 51.156,170.711 50.4,170.801 L 50.2,170.201 L 49.6,170.401 C 49.618,169.378 49.303,169.913 48.8,170.001 L 48.6,169.401 L 48,169.6 C 48,169.467 48,169.333 48,169.201 C 47.678,169.413 47.351,169.618 46.8,169.6 L 46.6,169 L 46,169.2 C 46.065,168.735 45.912,168.488 45.6,168.4 L 45.8,168 L 45.6,167.6 C 45.539,165.707 48.143,165.348 46.4,164 L 47,163.8 L 46.8,163.2 C 47.14,163.273 47.177,163.044 47.2,162.8 L 47.8,163 L 47.6,162.4 C 47.867,162.4 48.133,162.4 48.4,162.4 C 48.608,161.808 48.992,161.391 49.2,160.799 C 47.928,160.738 47.44,159.893 46,159.999 C 45.873,160.927 46.064,161.535 46.4,161.999 L 46.2,161.799 L 46.4,161.999 C 45.931,162.063 46.063,162.728 46,163.199 L 45.8,163.598 L 46,164 C 45.867,164 45.733,164 45.6,164 C 45.914,165.647 44.986,166.053 45.2,167.6 L 45,168.2 L 45.6,168.4 C 45.132,168.998 45.102,170.036 44.4,170.4 C 42.727,169.36 43.169,164.075 43.6,160.799 C 43.743,159.714 43.635,158.252 44.8,157.999 C 44.377,156.956 42.703,157.162 42.4,155.999 C 42.739,154.826 43.688,156.238 44.4,155.999 C 44.324,155.675 43.999,155.601 44,155.199 L 43.8,154.598 L 43.6,153.998 C 43.733,153.998 43.867,153.998 44,153.998 C 42.486,152.045 39.171,151.894 36,151.598 C 35.862,150.669 35.741,149.724 34.4,149.998 C 33.207,150.961 34.312,152.992 35.6,152.798 C 33.221,158.285 33.567,166.499 32,172.798 C 32.939,176.259 36.364,177.234 37.6,180.399 L 37.4,180.999 L 37.6,181.599 C 37.333,181.599 37.067,181.599 36.8,181.599 C 37.335,184.401 35.574,184.907 35.2,186.799 C 35.244,187.555 36.522,187.076 36.4,187.999 C 36.016,188.838 35.059,191.16 36,191.999 C 36.809,188.808 38.075,186.074 38,181.999 L 38.6,182.199 L 39.2,181.999 C 40.157,182.509 40.828,183.304 40.8,184.799 C 41.595,184.794 41.309,183.708 42.4,183.999 C 43.223,184.553 41.482,185.902 43.6,185.599 C 40.145,191.912 35.733,201.264 38.4,209.999 C 41.009,210.456 43.541,210.992 46,211.599 C 45.691,213.582 45.463,214.265 46.8,215.2 C 46.213,217.812 42.901,217.701 42.8,220.8 C 41.348,220.785 39.642,221.025 39.2,220 C 36.425,222.093 29.008,221.704 28.8,217.6 C 27.467,218.267 28.276,221.076 26.8,221.6 C 23.993,218.126 27.397,215.016 28.8,212.401 C 28.731,210.337 26.808,210.127 25.6,209.201 C 25.543,207.544 28.383,208.784 29.6,208.401 C 27.96,206.602 26.667,208.29 24,206.8 C 24.833,200.23 26.232,193.028 26.4,188 C 28.887,187.421 28.305,183.772 29.6,182 C 29.133,181.267 28.554,180.646 28,180 C 26.471,172.849 28.363,168.794 29.2,161.2 C 29.567,157.873 29.424,154.015 30,149.599 C 30.133,148.578 30.961,147.819 31.2,146.799 C 31.561,145.261 31.259,142.469 31.6,140.799 C 32.166,138.028 31.955,134.064 31.6,130.799 C 30.87,129.662 29.034,129.632 28.4,128.4 L 29,127.933 L 28.8,127.2 C 33.165,127.235 34.401,130.399 37.6,131.599 L 37.8,132.2 L 38,132.8 C 37.867,132.8 37.733,132.8 37.6,132.8 C 38.328,134.205 39.682,134.986 40.8,136 C 41.54,135.939 41.046,134.646 41.6,134.4 C 42.622,134.444 42.394,135.739 42.4,136.799 C 44.025,136.425 44.9,135.299 46.8,135.199 C 48.394,132.163 51.573,128.229 54.8,125.598 C 56.203,121.124 59.189,117.444 59.6,111.199 C 59.68,109.992 59.048,107.682 59.2,105.999 C 59.215,105.835 59.927,105.592 60,105.199 C 60.554,102.204 60.013,98.217 60.8,95.199 C 61.017,93.782 59.383,94.215 59.6,92.799 C 60.274,86.54 60.458,78.468 63.2,73.199 C 59.655,75.256 54.58,79.245 49.6,81.199 C 50.28,85.345 45.915,84.447 44.8,86.799 C 43.312,86.179 42.863,84.861 44.4,83.999 L 45,84.199 L 45.2,83.599 C 45.891,83.699 47.569,82.846 46.4,82.399 C 45.2,83.599 44.6,83.399 44.6,83.399 L 44.4,84 C 44.133,84 43.867,84 43.6,84 L 43.8,83.267 L 43.2,82.8 C 44.399,79.999 48.056,79.657 50,77.6 C 49.292,76.25 50.54,75.819 50.8,74.4 C 55.59,74.614 56.587,70.516 61.2,69.6 C 60.612,67.654 59.188,66.545 57.6,65.6 C 57.153,65.108 57.252,64.778 58,64.8 C 56.119,63.087 55.067,60.91 53.6,58.8 C 51.833,56.258 49.256,53.828 48.4,50.4 C 49.966,50.168 50.723,50.744 51.6,51.2 C 52.619,50.134 50.568,49.881 50,49.2 C 46.029,52.987 39.836,52.235 36,55.6 C 32.455,58.709 32.679,64.125 29.2,67.6 C 29.16,77.694 24.444,83.111 23.6,92.4 C 22.509,92.108 22.795,93.195 22,93.2 C 21.403,97.003 19.332,99.332 20,104.4 L 19.4,104.2 L 19.2,104.8 C 18.94,105.773 19.47,107.935 20,106.8 L 20.6,107 L 20.8,106.4 C 22.083,107.117 20.495,110.705 23.2,110 C 23.809,114.857 27.805,116.327 29.6,120 L 29,120.2 L 28.8,120.8 C 28.667,120.8 28.533,120.8 28.4,120.8 C 28.349,121.518 28.89,121.644 28.8,122.401 C 27.844,122.157 25.898,122.903 25.6,122.001 C 24.224,120.834 22.943,118.981 21.2,117.201 C 19.127,115.083 16.691,113.517 15.2,110.801 C 14.154,109.581 12.521,108.947 12.8,106.402 C 14.327,106.208 15.353,106.515 16,107.202 C 16.104,106.031 15.096,105.973 15.2,104.802 C 17.426,89.453 23.85,77.026 26,60 C 26.576,59.776 26.976,59.376 27.2,58.8 C 28.133,58.8 29.067,58.8 30,58.8 C 30.376,55.876 32.375,54.432 30.8,52.4 C 31.938,51.308 34.018,50.259 35.6,48.8 C 36.117,48.323 36.318,47.591 36.8,47.2 C 38.093,46.15 40.185,46.342 39.2,44 C 40.224,43.958 41.107,43.773 41.6,43.2 C 38.641,42.805 34.956,41.943 31.6,41.6 C 29.777,41.413 27.573,42.348 26.4,40.8 C 25.569,40.903 26.291,42.558 25.6,42.8 C 23.392,40.075 19.55,38.983 17.2,36.4 L 17.4,36 L 17.2,35.6 C 16.834,34.899 16.456,34.21 15.2,34.4 C 15.366,32.502 15.604,32.488 14.4,31.6 C 16.267,28.666 17.991,25.591 20.4,23.2 C 20.389,22.811 19.91,22.889 19.6,22.8 C 22.892,21.612 27.04,17.281 31.2,19.6 C 34.285,17.483 37.183,15.889 42,16.4 C 41.956,17.156 40.678,16.678 40.8,17.6 C 42.884,16.617 44.859,15.525 46,13.6 C 49.988,13.985 51.533,10.254 55.2,11.6 L 55,12.333 L 55.6,12.799 C 59.207,12.488 63.34,14.685 66,13.599 C 66.885,14.175 65.497,14.575 66.4,14.799 C 66.663,14.262 67.255,14.054 68,13.999 L 67.857,14.713 L 68.4,15.2 C 68.817,15.75 70.741,16.384 69.6,15.2 L 70.2,14.733 L 70,14 C 73.424,14.562 75.976,14.037 78,14.8 C 78.576,14.71 78.14,13.606 78.8,13.6 C 82.519,13.885 86.569,15.96 89.6,15.6 L 90.2,15.8 L 90.4,15.2 C 92.385,14.815 92.534,16.266 94,16.4 C 93.876,16.943 92.999,16.732 92.4,16.8 C 92.755,17.779 94.633,17.234 94.4,18.8 C 93.833,18.766 93.267,18.734 93.2,19.2 C 93.411,19.521 93.617,19.849 93.6,20.4 C 94.359,20.891 96.161,21.392 96.8,20.8 L 97.4,21 L 98,20.8 C 98.364,21.503 99.401,21.532 100,22 C 98.179,28.868 95.683,33.654 94,41.2 C 95.033,41.766 96.506,41.893 97.6,42.4 C 97.395,43.529 96.728,44.195 95.6,44.4 C 98.507,48.692 102.343,52.057 102,59.6 C 101.6,59.6 101.2,59.6 100.8,59.6 C 101.964,59.903 101.757,61.577 102.8,62 L 102.6,62.6 L 102.8,63.2 C 102.712,64.488 103.508,64.892 103.2,66.4 L 102.6,66.6 L 102.8,67.2 C 101.96,74.042 104.181,81.284 105.2,87.6 C 105.26,88.34 106.554,87.846 106.8,88.4 C 107.418,92.356 105.882,96.275 106.4,98.8 L 106.2,99.4 L 106.8,99.6 C 105.504,102.037 105.393,105.659 104,108 C 104.447,116.117 96.358,118.974 94,125.6 C 92.399,125.733 91.623,126.69 90.4,127.201 C 92.765,133.369 91.626,143.042 93.6,149.6 C 91.344,149.19 90.371,147.496 88,147.201 C 87.782,144.483 86.75,142.48 88.4,140.801 C 87.991,137.478 86.596,135.139 86,132.001 C 87.131,132.073 86.932,130.497 88,131.601 C 86.955,129.58 87.468,126 85.2,125.202 L 85.8,124.735 L 85.6,124 C 86,124 86.4,124 86.8,124 C 82.072,120.995 77.416,117.918 74,113.6 C 75.3,125.373 69.792,136.934 67.6,146.8 C 69.577,148.024 73.079,147.722 74.4,149.6 C 80.228,149.578 84.44,146.903 88.8,147.6 C 90.044,154.975 92.058,165.873 90,175.201 C 90.266,176.268 91.202,176.666 92,177.201 C 92.397,180.03 92.369,183.576 92.8,186.801 C 93.112,189.136 94.948,192.663 92,193.601 C 91.961,191.774 90.423,191.445 90.8,189.202 C 89.284,189.952 90.046,192.981 88.8,194.002 C 89.063,195.2 89.655,193.619 90.4,194.002 C 91.702,198.119 87.576,199.87 87.6,204.002 L 86.867,203.802 L 86.4,204.4 C 85.984,204.562 84.996,205.951 86.4,205.599 L 87,205.799 L 87.6,205.599 C 89.224,210.017 86.336,215.788 82.8,217.599 C 83.161,220.227 82.496,221.828 81.6,223.2 C 80.688,223.311 80.096,223.103 80,222.4 C 79.169,222.503 79.891,224.157 79.2,224.4 C 76.428,224.772 75.622,223.177 74,222.4 C 68.382,222.413 64.255,222.896 62.8,218.4 C 64.105,217.649 63.802,217.363 64.4,215.599 C 63.403,215.201 61.659,212.975 60.4,211.599 C 61.383,209.905 60.259,208.764 59.6,207.599 L 60.2,207.133 L 60,206.4 C 61.769,206.604 60.876,204.171 61.2,201.599 C 61.834,196.571 63.992,185.423 61.6,179.599 C 63.487,178.254 63.903,172.989 61.6,171.599 C 62.495,176.563 60.151,181.185 60,185.999 C 59.848,190.838 61.446,195.513 59.6,199.999 C 58.927,201.634 56.626,202.72 57.6,204.799 C 57.69,205.375 58.794,204.939 58.8,205.599 L 58.2,206.066 L 58.4,206.799 C 58.267,206.799 58.133,206.799 58,206.799 C 58.455,211.07 56.358,214.952 52.8,216.4 C 52.016,218.816 51.014,221.013 50,223.2 C 47.869,223.464 47.008,222.458 46,221.599 C 46.065,221.134 45.912,220.888 45.6,220.799 C 49.982,216.114 47.515,204.581 49.2,197.199 C 47.511,198.043 47.998,201.063 46.4,201.999 L 46.12,201.319 L 45.6,200.8 C 46.557,195.127 50.092,191.144 48.8,184.401 C 49.076,183.325 47.973,183.628 47.6,183.201 C 47.936,182.204 48.123,181.057 48,179.6 C 47.867,179.6 47.733,179.6 47.6,179.6 L 47.4,179 L 46.8,179.2 z M 49.2,17.2 C 50.224,17.158 51.107,16.973 51.6,16.4 C 50.54,16.406 49.245,16.178 49.2,17.2 z M 60.4,24 C 57.852,23.482 55.96,22.308 53.6,21.6 C 51.877,25.744 46.449,26.182 44.8,30.4 C 46.947,29.614 47.312,27.046 50,26.8 C 49.704,30.238 46.768,31.034 45.2,33.2 C 47.518,33.252 48.979,32.446 51.2,32.4 C 52.267,31.334 51.995,28.928 54.4,29.2 C 54.453,30.186 54.461,31.127 54,31.6 C 55.201,31.068 57.06,31.193 58.8,31.2 C 59.513,32.275 57.038,31.973 58.4,32.4 C 65.079,31.479 70.334,29.134 75.2,26.4 C 74.311,26.089 73.64,25.56 72.4,25.6 C 71.778,26.179 71.329,26.929 70.4,27.2 C 70.166,26.367 69.56,25.907 69.2,25.2 L 69.8,24.733 L 69.6,24 C 69.846,23.445 71.14,23.94 71.2,23.2 C 69.627,22.506 67.874,21.992 66.4,21.2 C 66.547,21.88 66.088,21.954 65.6,22 C 62.512,21.194 58.7,17.849 55.2,20 C 56.784,21.215 59.58,21.22 60.8,22.8 L 60.2,23.267 L 60.4,24 z M 45.6,19.6 C 44.548,21.081 42.867,21.934 42.8,24.4 C 42.909,25.225 44.571,24.496 44.4,25.6 C 43.258,27.258 41.258,28.058 40.8,30.4 C 44.328,27.128 47.582,23.582 51.2,20.4 C 48.985,20.481 46.877,20.456 45.6,19.6 z M 81.6,23.6 C 82.56,22.64 80.287,22.564 80.4,23.2 C 80.395,23.172 81.754,23.446 81.6,23.6 z M 82.8,25.2 C 84.269,25.478 85.841,25.89 87.2,25.2 C 87.389,23.944 86.701,23.565 86,23.2 C 86.065,24.479 82.839,23.059 82.8,25.2 z M 26.8,31.6 C 29.496,31.887 30.547,28.424 30.4,27.2 C 28.46,28.593 24.651,28.117 24.8,31.6 L 24.2,31.8 L 24.4,32.4 C 23.767,32.433 22.875,32.208 22.8,32.8 C 24.427,33.44 26.724,33.409 28.4,34 C 29.041,32.426 26.672,33.861 26.8,32.8 L 27,32.2 L 26.8,31.6 z M 78.4,28.4 C 78.668,28.077 81.005,27.883 79.6,27.2 C 79.712,27.903 77.209,27.932 78.4,28.4 z M 90,30.8 C 89.453,30.289 89.453,28.912 90,28.4 C 86.605,29.138 85.876,32.543 82.8,33.6 C 80.348,32.895 78.461,34.745 76.8,36 C 77.376,36.224 77.776,36.624 78,37.2 C 76.698,37.238 75.734,38.816 76.4,39.6 C 80.537,40.493 84.108,37.474 89.2,38 C 90.218,34.881 92.389,30.794 92.4,28 C 91.74,29.073 90.704,29.771 90,30.8 z M 38.8,32 C 39.877,31.28 38.54,29.625 37.2,30 C 36.908,31.091 37.994,30.805 38,31.6 L 37.8,32 L 38,32.4 C 36.766,32.34 38.868,34.026 38.8,32.8 L 39,32.4 L 38.8,32 z M 33.2,32.8 C 33.333,32.8 33.467,32.8 33.6,32.8 C 34.222,31.816 32.241,31.624 32.4,32.4 L 32.2,32.8 L 32.4,33.2 C 31.824,33.424 31.424,33.824 31.2,34.4 C 32.245,34.276 34.85,34.844 33.6,33.6 L 33.4,33.2 L 33.2,32.8 z M 68.8,40.4 C 68.509,41.309 69.521,43.521 68,43.2 C 68.123,44.411 69.238,44.629 68.8,46.4 C 67.568,46.637 67.832,47.784 66.4,48 C 64.894,48.228 62.67,47.087 62.8,45.2 C 63.797,46.079 64.763,44.502 66,44.4 C 66.337,42.729 65.223,42.511 65.2,41.2 C 61.637,42.371 58.849,41.844 55.2,42.8 C 56.62,43.647 56.972,45.561 56.8,48 C 59.852,49.61 60.5,53.44 62,55.6 C 65.456,55.456 68.604,55.004 68.8,51.6 C 67.503,51.407 63.06,52.748 63.2,50 C 64.462,50.778 65.141,47.605 66.8,49.6 C 67.685,49.024 66.297,48.624 67.2,48.4 C 68.971,47.962 69.189,49.078 70.4,49.2 C 70.736,48.736 70.928,48.127 70.8,47.2 C 72.57,46.575 74.218,40.167 72.4,38.8 C 72.528,40.662 69.633,39.5 68.8,40.4 z M 76.4,44.8 C 76.423,44.556 76.46,44.327 76.8,44.4 C 76.755,43.912 76.68,43.453 76,43.6 C 76.063,44.071 75.931,44.735 76.4,44.8 z M 74.4,46.4 C 73.222,48.992 74.932,45.23 74.4,46.4 L 74.4,46.4 z M 92.8,48.4 C 93.203,47.197 91.909,47.692 91.2,47.6 C 90.842,48.891 92.504,48.162 92.8,48.8 L 93,49.4 L 93.6,49.2 C 94.355,49.667 95.128,52.174 95.6,51.6 L 96.2,51.8 L 96.8,52 C 98.167,53.833 98.633,56.567 100,58.4 C 100.209,54.858 98.684,53.049 96.8,51.6 L 96.333,51 L 95.6,51.2 C 95.636,50.108 94.933,50.395 95.6,49.6 C 94.838,49.428 94.595,48.738 93.6,48.8 L 93.4,48.2 L 92.8,48.4 z M 80,53.2 C 80.397,55.073 80.841,57.221 81.2,59.2 C 84.843,60.09 87.966,61.501 90.8,63.2 C 92.113,60.645 94.811,59.477 94.4,55.2 C 93.359,54.107 92.536,52.797 92.4,50.8 C 91.102,50.568 90.539,51.072 89.6,51.2 C 89.083,49.316 86.314,51.348 86,48.8 C 83.69,49.424 82.452,51.119 81.2,52.8 L 80.467,52.6 L 80,53.2 z M 57.2,54.4 C 56.144,54.491 54.866,52.776 54.4,53.6 C 55.343,53.724 55.144,54.989 56.4,54.8 L 56.2,55.4 L 56.8,55.2 C 57.112,56.368 58.961,58.848 59.6,57.2 C 57.78,56.871 59.542,56.075 60.4,56.8 C 60.252,55.349 57.647,56.354 57.6,54.8 L 57.8,54.2 L 57.2,54.4 z M 75.2,60.4 C 75.684,60.136 77.472,58.095 75.6,58 C 76.239,59.352 73.902,59.707 75.2,60.4 z M 63.2,61.6 C 64.081,61.148 65.407,61.14 65.6,60 C 63.961,60.416 62.329,58.768 61.2,60 C 62.373,60.027 62.686,60.915 63.2,61.6 z M 98.4,64.4 C 99.189,64.678 98.302,66.632 99.2,66.8 C 99.6,64.121 99.25,60.55 96.8,59.6 C 96.862,60.595 96.172,60.838 96,61.6 L 95.4,61.4 L 95.6,62 C 95.467,62 95.333,62 95.2,62 C 88.95,67.217 94.578,84.312 89.2,90.4 C 89.83,95.369 89.583,101.217 94.4,102 C 96.394,101.057 99.477,97.746 101.6,95.6 C 101.723,94.35 100.444,96.617 100.4,95.2 C 102.399,91.944 100.856,85.192 99.6,81.6 C 101.328,77.664 99.422,74.282 99.6,70 C 96.202,70.465 97.115,66.618 96.4,64.4 L 96.8,64.6 L 97.2,64.4 C 97.333,64.4 97.467,64.4 97.6,64.4 L 98,64.6 L 98.4,64.4 z M 81.2,62.8 C 82.692,62.375 81.833,64.3 83.2,64 C 83.17,63.303 83.289,62.756 83.6,62.4 C 82.71,62.227 81.431,61.481 81.2,62.8 z M 75.6,63.2 C 73.038,62.738 74.722,64.422 75.6,63.2 L 75.6,63.2 z M 66.4,66 C 65.15,66.123 67.417,64.844 66,64.8 C 65.904,65.371 65.341,65.475 65.2,66 C 65.888,65.842 66.226,66.594 66.4,66 z M 73.6,66.4 C 72.596,68.393 70.671,69.52 68.8,69.6 C 67.656,72.433 66.689,75.81 66.4,78.4 C 67.926,79.321 69.018,76.9 70,76 C 73.628,74.861 77.517,78.234 81.2,76 C 81.958,74.037 80.716,74.477 80.4,72.8 C 80.954,71.888 81.864,71.331 83.2,71.2 C 82.074,69.405 83.487,68.833 84.4,68 C 82.755,65.337 77.29,65.882 73.6,66.4 z M 86.8,67.2 C 86.683,67.445 85.805,68.74 86.8,68.8 C 87.063,68.263 87.655,68.055 88.4,68 C 87.906,67.028 87.588,65.878 86,66 C 85.88,66.786 86.54,66.793 86.8,67.2 z M 84.8,77.2 C 84.867,76.734 85.432,76.765 86,76.8 C 86.361,79.582 85.687,81.186 86.4,83.2 C 86.421,78.552 88.508,73.845 88,70 C 85.974,70.641 86.316,73.649 83.6,73.6 C 85.237,73.786 84.132,77.156 84.8,77.2 z M 64.8,78 C 64.909,77.456 64.552,76.438 64.4,77.2 C 64.291,77.745 64.647,78.761 64.8,78 z M 66.4,82.4 C 66.4,83.2 66.4,84 66.4,84.8 C 67.775,83.92 68.772,82.82 70,82.8 C 69.534,82.733 69.565,82.168 69.6,81.6 C 72.055,79.491 74.252,81.134 75.6,83.2 C 75.371,84.164 74.884,85.325 75.6,86.4 C 76.01,83.877 76.579,81.513 77.6,79.6 C 72.547,77.676 69.312,80.09 66.4,82.4 z M 85.6,87.2 C 85.883,85.334 84.916,85.334 85.2,87.2 L 84.6,87 L 84.8,87.6 C 84.517,89.466 85.484,89.466 85.2,87.6 L 85.8,87.8 L 85.6,87.2 z M 66,91.2 C 66.431,89.103 68.269,87.755 66,86.4 C 66.174,88.492 63.57,90.293 66,91.2 z M 69.6,100 C 68.726,104.459 69.388,108.986 68.8,113.2 C 68.983,110.252 70.696,107.717 70.8,104.8 C 70.835,103.829 70.249,102.633 70.4,101.6 C 71.018,97.369 74.691,93.744 74,89.6 C 73.873,93.02 70.342,96.209 69.6,100 z M 79.2,101.6 C 79.2,101.867 79.2,102.134 79.2,102.401 C 80.758,102.711 79.975,97.026 79.6,98.001 C 79.6,98.268 79.6,98.534 79.6,98.801 L 79.2,98.801 L 79.2,99.201 C 78.876,99.125 78.801,98.8 78.4,98.801 C 78.449,99.468 77.105,101.347 78.8,101.201 L 78.6,101.801 L 79.2,101.6 z M 102,101.2 C 102.232,100.098 102.996,99.529 103.2,98.4 C 102.163,98.842 99.433,101.366 100.8,101.6 L 100.8,102 L 101.2,102 C 98.361,103.428 96.456,105.79 94.8,108.4 C 97.832,108.894 102.095,106.217 102.4,101.599 L 102.4,101.2 L 102,101.2 z M 86.4,103.6 C 86.267,102.667 85.99,101.877 85.2,101.6 C 85.01,102.856 85.699,103.234 86.4,103.6 z M 75.6,110.4 C 75.748,107.576 76.006,109.794 76.8,110.4 C 77.525,110.953 80.055,111.625 80.4,111.599 C 81.382,111.528 81.782,111.448 82.8,109.999 C 79.906,107.876 79.089,105.968 76.8,103.599 C 77.038,106.246 74.389,108.111 75.6,110.4 z M 87.2,106.8 C 87.173,105.627 86.285,105.315 85.6,104.8 C 85.627,105.973 86.514,106.285 87.2,106.8 z M 92.4,108.4 C 89.995,108.6 92.482,107.386 92,106 C 91.036,106.164 91.13,105.27 90,105.6 C 88.468,107.211 91.411,110.561 92.4,108.4 z M 85.6,114 C 84.469,114.419 82.856,113.34 82.8,114 C 83.272,114.649 85.332,115.454 85.6,114 z M 93.6,116.8 C 93.672,117.673 93.272,118.072 92.4,118 C 92.332,119.001 93.015,119.252 93.6,119.6 C 92.892,117.756 96.763,116.911 95.6,117.201 C 94.469,117.53 94.564,116.637 93.6,116.8 z M 86.8,118.8 C 87.987,118.654 88.774,118.107 89.2,117.2 C 88.219,117.552 86.894,117.56 86.8,118.8 z M 91.2,120 C 89.853,118.785 89.987,121.479 91.2,120 L 91.2,120 z M 60,149.2 C 60.175,148.708 60.512,148.379 61.2,148.4 C 62.549,139.214 65.547,129.547 66.4,121.2 C 63.19,129.856 59.088,139.754 48.8,140 C 49.784,137.38 55.162,137.034 54,133.6 C 52.403,134.817 50.683,135.661 50.8,137.6 C 48.522,138.255 46.615,139.283 43.6,139.201 C 43.407,140.741 42.631,141.698 41.2,142.001 C 40.292,140.165 38.562,139.973 37.6,138.001 C 37.711,138.229 38.527,137.136 38,136.001 C 37.517,134.96 35.938,134.787 35.2,134.001 C 34.863,133.643 35.476,132.413 34.4,132.801 C 33.31,133.169 34.959,134.052 34.4,135.201 C 34.678,135.99 36.632,135.102 36.8,136.001 C 36.425,139.359 35.197,141.864 35.6,146.001 L 35.8,146.401 L 36,146.8 C 35.418,146.978 36.041,147.152 36,147.6 C 36.267,147.6 36.533,147.6 36.8,147.6 C 36.8,147.333 36.8,147.067 36.8,146.8 L 37.4,146.6 L 37.2,146 C 41.946,146.02 45.363,148.086 50.8,148.4 C 50.747,150.932 55.849,150.838 57.6,152.799 L 57.8,153.4 L 58.4,153.2 C 59.04,153.683 60.263,151.346 60.4,150 L 60.6,149.4 L 60,149.2 z M 56,132.8 C 56.091,132.179 57.538,130.934 56.4,130.401 C 56.309,131.021 54.862,132.267 56,132.8 z M 81.2,153.6 C 82.625,153.692 83.291,153.025 83.2,151.6 C 81.838,151.571 81.71,152.776 81.2,153.6 z M 54.4,152.8 C 51.659,152.549 47.886,152.123 46.4,152.8 C 49.035,153.47 53.354,156.185 54.4,152.8 z M 65.6,156 C 65.455,156.788 64.999,158.922 66.4,159.2 C 66.709,157.625 66.223,157.123 66.8,156.4 C 68.543,155.856 68.247,157.352 69.2,157.599 C 69.809,156.475 72.053,156.986 72.4,155.599 C 70.524,156.125 68.011,156.011 65.6,156 z M 85.2,161.2 C 85.333,161.2 85.467,161.2 85.6,161.2 C 85.804,160.095 87.029,157.501 85.6,157.2 C 84.053,158.185 82.36,159.026 82,161.2 C 83.231,160.92 82.769,160.92 84,161.2 L 83.8,161.8 L 84.4,162 C 84.4,162.267 84.4,162.533 84.4,162.8 C 84.667,162.8 84.933,162.8 85.2,162.8 C 85.2,162.533 85.2,162.267 85.2,162 L 85.4,161.6 L 85.2,161.2 z M 72.4,160.8 C 73.762,161.069 75.73,159.9 74.8,159.2 C 74.53,160.396 72.126,159.459 72,160.8 L 71.4,161 L 71.6,161.6 C 71.467,161.6 71.333,161.6 71.2,161.6 C 70.578,162.584 72.558,162.777 72.4,162 L 72.6,161.4 L 72.4,160.8 z M 78,160.4 C 76.067,158.424 76.697,161.225 78,160.4 L 78,160.4 z M 70,212.4 C 71.456,211.383 76.133,213.219 79.2,211.2 C 80.414,211.424 81.912,212.687 83.2,211.599 C 83.481,210.119 81.49,210.91 81.2,209.999 C 80.613,201.412 85.268,198.067 85.6,190.399 C 87.406,188.611 88.844,184.274 87.2,182.399 C 84.129,183.728 82.311,186.309 79.2,187.598 C 76.037,184.434 80.249,181.454 82.8,180.399 C 82.157,174.984 86.577,170.442 84,164.399 C 84.106,166.866 81.494,164.465 80.4,165.999 C 82.354,167.536 77.841,169.222 77.2,170.799 C 77.32,172.494 78.883,170.54 79.2,171.599 C 77.97,173.279 78.93,171.881 79.6,173.2 C 77.596,175.329 75.334,177.201 72.8,178.8 C 72.687,181.221 71.953,183.02 70.8,184.401 C 69.485,184.1 69.09,180.797 68.4,181.201 C 68.724,183.41 69.588,185.079 69.6,187.6 L 69,187.8 L 69.2,188.401 C 69.067,188.401 68.933,188.401 68.8,188.401 C 68.491,190.309 69.426,190.975 69.2,192.8 L 68.6,193 L 68.8,193.6 C 68.533,193.6 68.267,193.6 68,193.6 C 68.033,194.234 67.808,195.126 68.4,195.201 L 68.2,195.801 L 68.4,196.402 C 68.301,196.836 67.605,196.673 67.6,197.202 C 68.343,199.553 66.424,202.686 66.4,205.601 C 68.757,206.709 67.249,211.685 70,212.4 L 69.4,212.866 L 69.6,213.599 C 70.073,214.35 72.218,215.484 73.2,214.4 C 69.6,213.599 70.2,213.133 70.2,213.133 L 70,212.4 z M 74.4,168 C 74.488,167.688 74.735,167.535 75.2,167.6 C 75.268,167.002 75.057,166.124 75.6,166 C 75.604,166.403 76.301,166.503 76.4,166 C 75.258,164.637 72.999,166.896 74.4,168 z M 54.8,168 C 56.008,168.617 55.853,165.931 55.2,166 C 55.531,167.131 54.636,167.036 54.8,168 z M 70.4,169.2 C 72.232,169.938 72.467,167.036 71.6,166.4 C 71.701,167.835 70.399,167.865 70.4,169.2 z M 73.2,174 C 74.889,173.816 77.06,171.953 74.8,171.2 C 74.15,172.017 73.501,172.835 73.2,174 z M 70.4,175.2 C 71.589,175.676 72.118,173.513 71.2,173.2 C 71.029,173.963 70.057,173.924 70.4,175.2 z M 34.8,183.2 C 34.76,181.96 35.289,181.289 35.6,180.4 C 34.805,180.394 35.091,179.308 34,179.599 C 33.971,181.096 34.168,182.365 34.8,183.2 z M 29.2,192.8 C 29.085,192.103 30.477,190.654 28.8,190.8 C 29.019,191.381 28.333,192.867 29.2,192.8 z M 58,198.4 C 58.085,197.557 59.816,194.979 58,194.799 C 58.384,196.148 56.775,197.532 58,198.4 z M 32,203.2 C 32.065,202.735 31.912,202.488 31.6,202.4 C 31.589,202.789 31.11,202.71 30.8,202.799 C 30.8,203.066 30.8,203.332 30.8,203.599 L 30.2,203.4 L 30,204 C 29.733,204 29.467,204 29.2,204 C 29.461,205.206 30.771,205.362 31.2,206.4 L 31.4,207 L 32,206.8 C 32,207.2 32,207.6 32,208 C 32.854,208.187 32.762,207.429 32.8,206.8 L 33.4,207 L 33.2,206.4 C 32.649,205.135 34.19,203.986 33.2,203.599 C 33.273,203.94 33.044,203.977 32.8,203.999 L 32.6,203.399 L 32,203.2 z M 54.4,212.4 C 55.071,211.949 56.377,210.39 54.8,210 C 55.439,211.352 53.103,211.707 54.4,212.4 z"
         id="path37"
         style="fill-rule:evenodd" /><path
         clip-rule="evenodd"
         d="M 24.2,125.4 L 24.4,126 C 23.629,126.041 25.021,127.49 24,128 C 20.016,128.006 16.185,126.962 11.6,128.4 C 11.388,128.078 11.183,127.751 11.2,127.2 C 9.017,128.549 7.375,126.346 5.2,126.4 C 4.772,124.466 5.075,124.18 4.8,122.4 C 5.619,121.781 8.381,121.781 9.2,122.4 C 10.343,122.191 8.554,121.808 8.4,121.599 C 8.32,119.862 9.688,121.751 10.8,121.999 C 11.519,122.159 12.964,120.89 12,122.399 C 16.299,122.1 20.154,122.245 21.2,125.199 C 22.062,124.861 21.845,123.444 22.4,122.799 C 23.953,122.58 23.34,124.527 24.4,124.799 L 24.2,125.4 z"
         id="path39"
         style="fill-rule:evenodd" /><path
         clip-rule="evenodd"
         d="M 41.8,83.933 L 42.4,84.4 C 41.801,85.001 41.685,86.085 40.8,86.4 C 39.64,86.094 38.5,85.768 38,84.8 C 38.151,83.337 41.306,82.793 42,83.2 L 41.8,83.933 z"
         id="path41"
         style="fill-rule:evenodd" /><path
         clip-rule="evenodd"
         d="M 68.914,14.257 L 69.6,13.6 L 69,14.3 L 69.2,15.2 C 69.067,15.2 68.933,15.2 68.8,15.2 L 68.914,14.257 z"
         id="path43"
         style="fill-rule:evenodd" /><path
         clip-rule="evenodd"
         d="M 103.934,61.8 L 103.2,62 C 102.108,60.517 103.4,58.653 103.2,56.8 L 103.8,57 L 104,56.4 C 104.929,57.605 105.419,59.248 106,60.8 C 105.295,61.162 105.339,62.273 104.4,62.4 L 103.934,61.8 z"
         id="path45"
         style="fill-rule:evenodd" /><path
         clip-rule="evenodd"
         d="M 104.2,73.8 L 104.8,73.6 C 105.579,74.287 105.662,75.671 105.6,77.2 L 105,77.4 L 105.2,78 C 103.412,78.04 103.181,74.437 104,73.2 L 104.2,73.8 z"
         id="path47"
         style="fill-rule:evenodd" /><path
         clip-rule="evenodd"
         d="M 26.2,32.2 L 26,31.6 C 26.133,31.6 26.267,31.6 26.4,31.6 L 26.2,32.2 L 26.4,32.8 C 26.267,32.8 26.133,32.8 26,32.8 L 26.2,32.2 z"
         id="path49"
         style="fill-rule:evenodd" /><path
         clip-rule="evenodd"
         d="M 70.2,189.4 L 70,188.8 C 72.894,185.827 72.792,179.859 76.4,177.6 C 76.741,182.811 73.439,186.933 71.6,191.201 L 71,190.401 L 70,190.401 C 69.789,190.079 69.583,189.752 69.6,189.201 L 70.2,189.4 z"
         id="path51"
         style="fill-rule:evenodd" /><path
         clip-rule="evenodd"
         d="M 166.4,148 C 179.865,150.078 193.124,152.454 206.4,150.8 C 206.761,151.505 207.295,152.039 208,152.401 C 207.398,154.866 206.061,156.594 204,157.6 C 202.188,156.64 198.19,157.077 196,158 C 193.859,157.032 193.552,157.565 191.2,158 C 189.391,157.788 189.171,156.114 187.599,157.6 C 184.047,155.369 179.99,156.686 175.599,155.201 C 174.286,156.079 174.939,156.841 174.4,158.001 C 172.454,158.457 170.095,157.713 169.2,156.001 C 166.351,155.322 163.596,155.049 161.2,154.401 C 159.343,153.899 156.79,153.407 155.599,151.6 C 150.087,151.623 145.964,146.852 139.599,146.401 C 139.339,145.994 138.68,145.987 138.799,145.201 C 133.531,145.198 130.571,140.991 125.999,141.6 C 126.428,140.049 123.991,139.622 123.999,140.8 C 122.143,137.936 117.874,137.798 114.399,136.401 C 113.27,135.946 112.337,134.822 111.199,134.401 C 108.761,133.499 105.919,133.683 103.999,132.401 C 103.106,131.804 103.314,130.227 101.999,130.401 C 101.886,129.755 102.377,129.712 102.399,129.201 C 102.723,129.125 102.798,128.8 103.199,128.801 C 117.41,132.456 131.507,136.227 141.999,143.601 C 143.328,142.755 140.799,142.44 141.199,141.202 C 142.807,141.477 143.482,140.818 144.799,140.802 C 150.01,144.124 156.861,145.807 163.599,147.602 L 162.999,147.802 L 163.199,148.403 C 162.875,148.478 162.801,148.804 162.399,148.802 C 162.783,150.819 164.71,151.291 167.199,151.202 C 167.414,149.787 166.552,149.449 165.999,148.802 L 166.599,148.602 L 166.4,148 z"
         id="path53"
         style="fill-rule:evenodd" /><g
         id="g55"><path
           clip-rule="evenodd"
           d="M 106.2,84.6 C 106.564,83.565 106.01,82.493 106.2,81.4"
           id="path57"
           style="fill:none;fill-rule:evenodd;stroke:#000000;stroke-width:0.57450002;stroke-linecap:round" /><path
           clip-rule="evenodd"
           d="M 33,105.4 C 33.025,104.28 33.399,103.177 33.934,102.2"
           id="path59"
           style="fill:none;fill-rule:evenodd;stroke:#000000;stroke-width:1.32669997;stroke-linecap:round" /><path
           clip-rule="evenodd"
           d="M 34.8,170 C 36.19,165.891 36.417,161.353 36.6,157"
           id="path61"
           style="fill:none;fill-rule:evenodd;stroke:#000000;stroke-width:1.14390004;stroke-linecap:round" /><path
           clip-rule="evenodd"
           d="M 209.8,177.4 C 209.988,177.271 210.291,177.156 210.6,177"
           id="path63"
           style="fill:none;fill-rule:evenodd;stroke:#000000;stroke-width:0.76590002;stroke-linecap:round" /><path
           clip-rule="evenodd"
           d="M 180.6,212.2 C 180.867,212.152 181.134,211.979 181.401,211.8"
           id="path65"
           style="fill:none;fill-rule:evenodd;stroke:#000000;stroke-width:0.48989999;stroke-linecap:round" /><path
           clip-rule="evenodd"
           d="M 51.15,174 C 50.429,173.898 49.889,173.848 49.361,173.682 C 49.177,173.253 49.24,172.718 49.482,172.2 C 49.588,172.067 49.694,171.933 49.8,171.801"
           id="path67"
           style="fill:none;fill-rule:evenodd;stroke:#000000;stroke-width:0.82279998;stroke-linecap:round" /><path
           clip-rule="evenodd"
           d="M 49.8,171.8 C 49.883,171.267 50.01,170.734 50.2,170.2"
           id="path69"
           style="fill:none;fill-rule:evenodd;stroke:#000000;stroke-width:1.04560006;stroke-linecap:round" /><path
           clip-rule="evenodd"
           d="M 48.4,170.2 C 48.424,169.933 48.51,169.667 48.6,169.4"
           id="path71"
           style="fill:none;fill-rule:evenodd;stroke:#000000;stroke-width:0.86409998;stroke-linecap:round" /><path
           clip-rule="evenodd"
           d="M 46,169.8 C 46.126,169.691 46.381,169.351 46.6,169"
           id="path73"
           style="fill:none;fill-rule:evenodd;stroke:#000000;stroke-width:0.8944;stroke-linecap:round" /><path
           clip-rule="evenodd"
           d="M 45.8,168 C 45.533,168.024 45.267,168.11 45,168.2"
           id="path75"
           style="fill:none;fill-rule:evenodd;stroke:#000000;stroke-width:0.84850001;stroke-linecap:round" /><path
           clip-rule="evenodd"
           d="M 42.6,154.6 C 43,154.6 43.4,154.6 43.8,154.6"
           id="path77"
           style="fill:none;fill-rule:evenodd;stroke:#000000;stroke-width:1.23290002;stroke-linecap:round" /><path
           clip-rule="evenodd"
           d="M 37.4,181 C 37.93,181.32 38.202,181.819 38.6,182.2"
           id="path79"
           style="fill:none;fill-rule:evenodd;stroke:#000000;stroke-width:0.9522;stroke-linecap:round" /><path
           clip-rule="evenodd"
           d="M 24.2,125.4 C 25.735,126.171 27.299,127.282 29,127.933"
           id="path81"
           style="fill:none;fill-rule:evenodd;stroke:#000000;stroke-width:1.34379995;stroke-linecap:round" /><path
           clip-rule="evenodd"
           d="M 37.8,132.2 C 38.444,132.349 38.757,132.561 39.4,133"
           id="path83"
           style="fill:none;fill-rule:evenodd;stroke:#000000;stroke-width:1.1832;stroke-linecap:round" /><path
           clip-rule="evenodd"
           d="M 41.8,83.933 C 42.467,83.744 43.133,83.44 43.8,83.266"
           id="path85"
           style="fill:none;fill-rule:evenodd;stroke:#000000;stroke-width:1.22819996;stroke-linecap:round" /><path
           clip-rule="evenodd"
           d="M 30,121.8 C 30.008,121.404 29.561,120.903 29,120.2"
           id="path87"
           style="fill:none;fill-rule:evenodd;stroke:#000000;stroke-width:0.99330002;stroke-linecap:round" /><path
           clip-rule="evenodd"
           d="M 14.6,35.6 C 15.559,35.537 16.438,36.072 17.4,36"
           id="path89"
           style="fill:none;fill-rule:evenodd;stroke:#000000;stroke-width:1.0029;stroke-linecap:round" /><path
           clip-rule="evenodd"
           d="M 55,12.333 C 59.415,11.223 64.41,11.849 68.678,13.241 C 68.757,13.47 68.824,13.882 68.914,14.257"
           id="path91"
           style="fill:none;fill-rule:evenodd;stroke:#000000;stroke-width:1.31879997;stroke-linecap:round" /><path
           clip-rule="evenodd"
           d="M 81.6,13.2 C 84.533,13.645 87.888,13.975 90.2,15.8"
           id="path93"
           style="fill:none;fill-rule:evenodd;stroke:#000000;stroke-width:0.83420002;stroke-linecap:round" /><path
           clip-rule="evenodd"
           d="M 97.4,21 C 97.4,20.733 97.4,20.467 97.4,20.2"
           id="path95"
           style="fill:none;fill-rule:evenodd;stroke:#000000;stroke-width:1.23290002;stroke-linecap:round" /><path
           clip-rule="evenodd"
           d="M 102.6,62.6 C 103.25,62.45 103.508,62.238 103.933,61.8"
           id="path97"
           style="fill:none;fill-rule:evenodd;stroke:#000000;stroke-width:1.16620004;stroke-linecap:round" /><path
           clip-rule="evenodd"
           d="M 101.6,51.8 C 102.44,53.499 103.228,55.184 103.8,57"
           id="path99"
           style="fill:none;fill-rule:evenodd;stroke:#000000;stroke-width:0.74190003;stroke-linecap:round" /><path
           clip-rule="evenodd"
           d="M 105.6,78.2 C 105.423,77.885 105.204,77.658 105,77.4"
           id="path101"
           style="fill:none;fill-rule:evenodd;stroke:#000000;stroke-width:0.80000001;stroke-linecap:round" /><path
           clip-rule="evenodd"
           d="M 104.2,73.8 C 104.441,71.395 103.646,68.818 102.6,66.6"
           id="path103"
           style="fill:none;fill-rule:evenodd;stroke:#000000;stroke-width:0.78219998;stroke-linecap:round" /><path
           clip-rule="evenodd"
           d="M 106.2,99.4 C 106.907,99.108 107.244,98.506 107.4,97.8"
           id="path105"
           style="fill:none;fill-rule:evenodd;stroke:#000000;stroke-width:0.96950001;stroke-linecap:round" /><path
           clip-rule="evenodd"
           d="M 84,123.6 C 84.378,123.915 85.142,124.4 85.8,124.734"
           id="path107"
           style="fill:none;fill-rule:evenodd;stroke:#000000;stroke-width:1.11360002;stroke-linecap:round" /><path
           clip-rule="evenodd"
           d="M 45.4,203.4 C 45.421,202.671 45.715,201.915 46.12,201.32"
           id="path109"
           style="fill:none;fill-rule:evenodd;stroke:#000000;stroke-width:1.23650002;stroke-linecap:round" /><path
           clip-rule="evenodd"
           d="M 46.8,181 C 47.153,180.333 47.146,179.667 47.4,179"
           id="path111"
           style="fill:none;fill-rule:evenodd;stroke:#000000;stroke-width:0.95920002;stroke-linecap:round" /><path
           clip-rule="evenodd"
           d="M 70.2,14.733 C 69.795,14.589 69.38,14.424 69,14.299"
           id="path113"
           style="fill:none;fill-rule:evenodd;stroke:#000000;stroke-width:1.46060002;stroke-linecap:round" /><path
           clip-rule="evenodd"
           d="M 68.914,14.257 C 68.478,14.475 68.195,14.573 67.857,14.714"
           id="path115"
           style="fill:none;fill-rule:evenodd;stroke:#000000;stroke-width:1.35650003;stroke-linecap:round" /><path
           clip-rule="evenodd"
           d="M 69,24.6 C 69.267,24.616 69.533,24.674 69.8,24.733"
           id="path117"
           style="fill:none;fill-rule:evenodd;stroke:#000000;stroke-width:1.24370003;stroke-linecap:round" /><path
           clip-rule="evenodd"
           d="M 60.2,23.267 C 61.718,23.633 63.044,24.573 64.6,24.8"
           id="path119"
           style="fill:none;fill-rule:evenodd;stroke:#000000;stroke-width:1.19579995;stroke-linecap:round" /><path
           clip-rule="evenodd"
           d="M 24.2,31.8 C 24.867,32.001 25.533,31.952 26.2,32.2"
           id="path121"
           style="fill:none;fill-rule:evenodd;stroke:#000000;stroke-width:0.90549999;stroke-linecap:round" /><path
           clip-rule="evenodd"
           d="M 26.2,32.2 C 26.467,32.2 26.733,32.2 27,32.2"
           id="path123"
           style="fill:none;fill-rule:evenodd;stroke:#000000;stroke-width:1.222;stroke-linecap:round" /><path
           clip-rule="evenodd"
           d="M 37.8,32 C 38.161,32.104 38.662,32.319 39,32.4"
           id="path125"
           style="fill:none;fill-rule:evenodd;stroke:#000000;stroke-width:0.64499998;stroke-linecap:round" /><path
           clip-rule="evenodd"
           d="M 32.2,32.8 C 32.55,33.03 32.943,33.152 33.4,33.2"
           id="path127"
           style="fill:none;fill-rule:evenodd;stroke:#000000;stroke-width:0.80000001;stroke-linecap:round" /><path
           clip-rule="evenodd"
           d="M 93,49.4 C 93.128,49 93.244,48.6 93.4,48.2"
           id="path129"
           style="fill:none;fill-rule:evenodd;stroke:#000000;stroke-width:0.86409998;stroke-linecap:round" /><path
           clip-rule="evenodd"
           d="M 80.8,53.8 C 80.737,53.4 80.583,53 80.467,52.6"
           id="path131"
           style="fill:none;fill-rule:evenodd;stroke:#000000;stroke-width:1.05830002;stroke-linecap:round" /><path
           clip-rule="evenodd"
           d="M 96.2,51.8 C 96.216,51.533 96.273,51.267 96.333,51"
           id="path133"
           style="fill:none;fill-rule:evenodd;stroke:#000000;stroke-width:1.24370003;stroke-linecap:round" /><path
           clip-rule="evenodd"
           d="M 57.8,54.2 C 57.437,54.905 56.854,54.891 56.2,55.4"
           id="path135"
           style="fill:none;fill-rule:evenodd;stroke:#000000;stroke-width:0.50139999;stroke-linecap:round" /><path
           clip-rule="evenodd"
           d="M 98,64.6 C 98,64.333 98,64.067 98,63.8"
           id="path137"
           style="fill:none;fill-rule:evenodd;stroke:#000000;stroke-width:0.84850001;stroke-linecap:round" /><path
           clip-rule="evenodd"
           d="M 96.8,64.6 C 96.89,63.346 96.454,62.151 95.4,61.4"
           id="path139"
           style="fill:none;fill-rule:evenodd;stroke:#000000;stroke-width:0.69279999;stroke-linecap:round" /><path
           clip-rule="evenodd"
           d="M 44.6,83.4 C 44.733,83.667 44.867,83.933 45,84.2"
           id="path141"
           style="fill:none;fill-rule:evenodd;stroke:#000000;stroke-width:0.8944;stroke-linecap:round" /><path
           clip-rule="evenodd"
           d="M 85.8,87.8 C 85.4,87.543 85,87.312 84.6,87"
           id="path143"
           style="fill:none;fill-rule:evenodd;stroke:#000000;stroke-width:0.51639998;stroke-linecap:round" /><path
           clip-rule="evenodd"
           d="M 78.6,101.8 C 78.894,100.881 79.598,99.777 79.2,98.8"
           id="path145"
           style="fill:none;fill-rule:evenodd;stroke:#000000;stroke-width:0.53200001;stroke-linecap:round" /><path
           clip-rule="evenodd"
           d="M 102.4,101.2 C 101.804,101.359 101.303,101.641 100.8,102"
           id="path147"
           style="fill:none;fill-rule:evenodd;stroke:#000000;stroke-width:0.4989;stroke-linecap:round" /><path
           clip-rule="evenodd"
           d="M 20.6,107 C 20.357,105.986 20.131,104.991 19.4,104.2"
           id="path149"
           style="fill:none;fill-rule:evenodd;stroke:#000000;stroke-width:0.84060001;stroke-linecap:round" /><path
           clip-rule="evenodd"
           d="M 57.8,153.4 C 58.684,152.035 58.984,150.17 60.6,149.4"
           id="path151"
           style="fill:none;fill-rule:evenodd;stroke:#000000;stroke-width:0.82730001;stroke-linecap:round" /><path
           clip-rule="evenodd"
           d="M 37.4,146.6 C 36.867,146.42 36.334,146.428 35.8,146.401"
           id="path153"
           style="fill:none;fill-rule:evenodd;stroke:#000000;stroke-width:0.85519999;stroke-linecap:round" /><path
           clip-rule="evenodd"
           d="M 83.8,161.8 C 84.334,161.62 84.867,161.627 85.4,161.6"
           id="path155"
           style="fill:none;fill-rule:evenodd;stroke:#000000;stroke-width:0.84850001;stroke-linecap:round" /><path
           clip-rule="evenodd"
           d="M 45.8,163.6 C 46.2,163.588 46.6,163.692 47,163.8"
           id="path157"
           style="fill:none;fill-rule:evenodd;stroke:#000000;stroke-width:0.84850001;stroke-linecap:round" /><path
           clip-rule="evenodd"
           d="M 46.2,161.8 C 46.81,162.257 47.142,162.496 47.8,163"
           id="path159"
           style="fill:none;fill-rule:evenodd;stroke:#000000;stroke-width:0.4382;stroke-linecap:round" /><path
           clip-rule="evenodd"
           d="M 72.6,161.4 C 72.2,161.271 71.8,161.156 71.4,161"
           id="path161"
           style="fill:none;fill-rule:evenodd;stroke:#000000;stroke-width:0.95920002;stroke-linecap:round" /><path
           clip-rule="evenodd"
           d="M 69,187.8 C 69.248,187.897 69.417,187.969 69.581,188.039 C 69.715,188.359 69.838,188.898 70.2,189.4"
           id="path163"
           style="fill:none;fill-rule:evenodd;stroke:#000000;stroke-width:0.62339997;stroke-linecap:round" /><path
           clip-rule="evenodd"
           d="M 69.4,212.866 C 69.667,212.956 69.933,213.044 70.2,213.134"
           id="path165"
           style="fill:none;fill-rule:evenodd;stroke:#000000;stroke-width:1.26489997;stroke-linecap:round" /><path
           clip-rule="evenodd"
           d="M 51.333,172.934 C 51.874,172.667 52.213,171.997 52.2,171.401"
           id="path167"
           style="fill:none;fill-rule:evenodd;stroke:#000000;stroke-width:1.15139997;stroke-linecap:round" /><path
           clip-rule="evenodd"
           d="M 51.15,174 C 50.744,175.143 50.384,176.186 50.2,177.4"
           id="path169"
           style="fill:none;fill-rule:evenodd;stroke:#000000;stroke-width:1.11000001;stroke-linecap:round" /><path
           clip-rule="evenodd"
           d="M 58.2,206.066 C 58.899,206.378 59.43,206.956 60.2,207.133"
           id="path171"
           style="fill:none;fill-rule:evenodd;stroke:#000000;stroke-width:1.41989994;stroke-linecap:round" /><path
           clip-rule="evenodd"
           d="M 51.15,174 C 51.192,173.594 51.275,173.162 51.334,172.934"
           id="path173"
           style="fill:none;fill-rule:evenodd;stroke:#000000;stroke-width:1.67330003;stroke-linecap:round" /><path
           clip-rule="evenodd"
           d="M 51.333,172.934 C 50.859,172.466 50.324,172.227 49.799,171.8"
           id="path175"
           style="fill:none;fill-rule:evenodd;stroke:#000000;stroke-width:0.78320003;stroke-linecap:round" /><path
           clip-rule="evenodd"
           d="M 69.64,193.64 C 70.638,192.833 70.619,191.512 71,190.401"
           id="path177"
           style="fill:none;fill-rule:evenodd;stroke:#000000;stroke-width:1.44780004;stroke-linecap:round" /><path
           clip-rule="evenodd"
           d="M 68.2,195.8 C 69.342,195.93 69.451,194.457 69.64,193.64"
           id="path179"
           style="fill:none;fill-rule:evenodd;stroke:#000000;stroke-width:1.28579998;stroke-linecap:round" /><path
           clip-rule="evenodd"
           d="M 69.64,193.64 C 69.238,193.357 68.937,193.202 68.6,193"
           id="path181"
           style="fill:none;fill-rule:evenodd;stroke:#000000;stroke-width:1.01979995;stroke-linecap:round" /><path
           clip-rule="evenodd"
           d="M 31.8,205 C 32.198,204.665 32.342,204.047 32.6,203.4"
           id="path183"
           style="fill:none;fill-rule:evenodd;stroke:#000000;stroke-width:0.90549999;stroke-linecap:round" /><path
           clip-rule="evenodd"
           d="M 31.8,205 C 31.8,205.4 31.8,205.8 31.8,206.2"
           id="path185"
           style="fill:none;fill-rule:evenodd;stroke:#000000;stroke-width:1.22640002;stroke-linecap:round" /><path
           clip-rule="evenodd"
           d="M 31.8,206.2 C 32.287,206.412 32.744,206.521 33.4,207"
           id="path187"
           style="fill:none;fill-rule:evenodd;stroke:#000000;stroke-width:0.66930002;stroke-linecap:round" /><path
           clip-rule="evenodd"
           d="M 31.8,205 C 31.518,204.897 31.3,204.852 31.085,204.809 C 30.721,204.403 30.439,203.822 30.201,203.401"
           id="path189"
           style="fill:none;fill-rule:evenodd;stroke:#000000;stroke-width:0.9522;stroke-linecap:round" /><path
           clip-rule="evenodd"
           d="M 87,205.8 C 87.011,205.134 87.018,204.467 86.867,203.8"
           id="path191"
           style="fill:none;fill-rule:evenodd;stroke:#000000;stroke-width:1.23290002;stroke-linecap:round" /><path
           clip-rule="evenodd"
           d="M 31.8,206.2 C 31.667,206.467 31.533,206.733 31.4,207"
           id="path193"
           style="fill:none;fill-rule:evenodd;stroke:#000000;stroke-width:1.01979995;stroke-linecap:round" /><path
           clip-rule="evenodd"
           d="M 163,147.8 C 164.175,148.302 165.641,147.536 166.6,148.6"
           id="path195"
           style="fill:none;fill-rule:evenodd;stroke:#000000;stroke-width:0.85790002;stroke-linecap:round" /></g></g></g></svg>