<?xml version="1.0" encoding="UTF-8" standalone="no"?>
<svg id="svg2" xmlns:rdf="http://www.w3.org/1999/02/22-rdf-syntax-ns#" xmlns="http://www.w3.org/2000/svg" height="100%" width="100%" version="1.1" xmlns:cc="http://creativecommons.org/ns#" xmlns:dc="http://purl.org/dc/elements/1.1/" viewBox="-1 -2 57.707892 47.465324">
 <metadata id="metadata42">
  <rdf:RDF>
   <cc:Work rdf:about="">
    <dc:format>image/svg+xml</dc:format>
    <dc:type rdf:resource="http://purl.org/dc/dcmitype/StillImage"/>
    <dc:title/>
   </cc:Work>
  </rdf:RDF>
 </metadata>
 <g id="g3802" transform="translate(-1.0001082,-2)">
  <path id="path22" fill-opacity="0.54545456" fill="#0c0c0c" d="m16.24,23.44c16.21-0.85,25.81,3.055,31.7,9.229,2.325,2.434,2.931,13.97-9.337,14.68-17.04,0.99-29.93-4.57-35.89-10.93-5.832-6.23-2.682-12.13,13.53-12.98zm21.49,22.98c10.42-0.545,6.572-5.873,1.1-11.72-6.553-7.006-12.38-10.81-21.72-10.32-9.342,0.488-7.834,4.523-1.281,11.53,5.471,5.85,11.48,11.06,21.9,10.52z"/>
  <path id="path26" fill="#e7000e" d="m37.5,0c13.39,0,20.21,10.84,20.21,23.21,0,12.62-6.121,24.23-20.21,24.23-14.09-0.01-20.21-11.61-20.21-24.23,0-12.37,6.82-23.21,20.21-23.21zm0,45.58c8.607,0,9.5-10.46,9.5-22.06,0-13.9-1.785-21.68-9.5-21.68s-9.5,7.777-9.5,21.68c0,11.6,0.893,22.06,9.5,22.06z"/>
 </g>
</svg>
