<?xml version="1.0" encoding="UTF-8" standalone="no"?>
<svg
   xmlns:dc="http://purl.org/dc/elements/1.1/"
   xmlns:cc="http://creativecommons.org/ns#"
   xmlns:rdf="http://www.w3.org/1999/02/22-rdf-syntax-ns#"
   xmlns:svg="http://www.w3.org/2000/svg"
   xmlns="http://www.w3.org/2000/svg"
   xmlns:sodipodi="http://sodipodi.sourceforge.net/DTD/sodipodi-0.dtd"
   xmlns:inkscape="http://www.inkscape.org/namespaces/inkscape"
   version="1.0"
   id="x"
   width="100%"
   height="100%"
   viewBox="0 0 613.72189 613.72193"
   sodipodi:docname="svg.svg"
   inkscape:version="1.0.1 (0767f8302a, 2020-10-17)"
   inkscape:export-filename="/home/will/tip/idx-account-linker/public/favicon.png"
   inkscape:export-xdpi="17.855843"
   inkscape:export-ydpi="17.855843">
  <metadata
     id="metadata907">
    <rdf:RDF>
      <cc:Work
         rdf:about="">
        <dc:format>image/svg+xml</dc:format>
        <dc:type
           rdf:resource="http://purl.org/dc/dcmitype/StillImage" />
        <dc:title></dc:title>
      </cc:Work>
    </rdf:RDF>
  </metadata>
  <sodipodi:namedview
     pagecolor="#ffffff"
     bordercolor="#666666"
     borderopacity="1"
     objecttolerance="10"
     gridtolerance="10"
     guidetolerance="10"
     inkscape:pageopacity="0"
     inkscape:pageshadow="2"
     inkscape:window-width="1769"
     inkscape:window-height="1009"
     id="namedview905"
     showgrid="false"
     inkscape:zoom="0.69520008"
     inkscape:cx="230.1169"
     inkscape:cy="416.19744"
     inkscape:window-x="950"
     inkscape:window-y="255"
     inkscape:window-maximized="0"
     inkscape:current-layer="x"
     fit-margin-top="0"
     fit-margin-left="0"
     fit-margin-right="0"
     fit-margin-bottom="0" />
  <defs
     id="defs901" />
  <g
     transform="matrix(1.7712935,0,0,1.7712935,306.86095,306.86095)"
     id="g1223">
    <circle
       fill="#282d48"
       r="173.24117"
       id="circle1099"
       cx="0"
       cy="0" />
    <path
       d="m 0,-162.84669 a 162.84669,162.84669 0 0 0 -38.015805,4.49947 L 0,0 Z"
       fill="#87738c"
       data-layer="edge"
       class="logo-ray"
       id="path1101" />
    <path
       d="m -50.322395,-154.87641 a 162.84669,162.84669 0 0 0 -34.764768,16.02678 L 0,0 Z"
       fill="#87738c"
       data-layer="edge"
       class="logo-ray"
       id="path1103" />
    <path
       d="m -95.718884,-131.74574 a 162.84669,162.84669 0 0 0 -28.110716,25.98527 L 0,0 Z"
       fill="#87738c"
       data-layer="edge"
       class="logo-ray"
       id="path1105" />
    <path
       d="m -131.74574,-95.718884 a 162.84669,162.84669 0 0 0 -18.70499,33.400153 L 0,0 Z"
       fill="#87738c"
       data-layer="edge"
       class="logo-ray"
       id="path1107" />
    <path
       d="m -154.87641,-50.322395 a 162.84669,162.84669 0 0 0 -7.46828,37.545591 L 0,0 Z"
       fill="#87738c"
       data-layer="edge"
       class="logo-ray"
       id="path1109" />
    <path
       d="m -162.84669,0 a 162.84669,162.84669 0 0 0 4.49947,38.015805 L 0,0 Z"
       fill="#87738c"
       data-layer="edge"
       class="logo-ray"
       id="path1111" />
    <path
       d="m -154.87641,50.322395 a 162.84669,162.84669 0 0 0 16.02678,34.764768 L 0,0 Z"
       fill="#87738c"
       data-layer="edge"
       class="logo-ray"
       id="path1113" />
    <path
       d="m -131.74574,95.718884 a 162.84669,162.84669 0 0 0 25.98527,28.110716 L 0,0 Z"
       fill="#87738c"
       data-layer="edge"
       class="logo-ray"
       id="path1115" />
    <path
       d="m -95.718884,131.74574 a 162.84669,162.84669 0 0 0 33.400153,18.70499 L 0,0 Z"
       fill="#87738c"
       data-layer="edge"
       class="logo-ray"
       id="path1117" />
    <path
       d="m -50.322395,154.87641 a 162.84669,162.84669 0 0 0 37.545591,7.46828 L 0,0 Z"
       fill="#87738c"
       data-layer="edge"
       class="logo-ray"
       id="path1119" />
    <path
       d="m 0,162.84669 a 162.84669,162.84669 0 0 0 38.015805,-4.49947 L 0,0 Z"
       fill="#87738c"
       data-layer="edge"
       class="logo-ray"
       id="path1121" />
    <path
       d="M 50.322395,154.87641 A 162.84669,162.84669 0 0 0 85.087163,138.84963 L 0,0 Z"
       fill="#87738c"
       data-layer="edge"
       class="logo-ray"
       id="path1123" />
    <path
       d="M 95.718884,131.74574 A 162.84669,162.84669 0 0 0 123.8296,105.76047 L 0,0 Z"
       fill="#87738c"
       data-layer="edge"
       class="logo-ray"
       id="path1125" />
    <path
       d="M 131.74574,95.718884 A 162.84669,162.84669 0 0 0 150.45073,62.318731 L 0,0 Z"
       fill="#87738c"
       data-layer="edge"
       class="logo-ray"
       id="path1127" />
    <path
       d="m 154.87641,50.322395 a 162.84669,162.84669 0 0 0 7.46828,-37.545591 L 0,0 Z"
       fill="#87738c"
       data-layer="edge"
       class="logo-ray"
       id="path1129" />
    <path
       d="m 162.84669,0 a 162.84669,162.84669 0 0 0 -4.49947,-38.015805 L 0,0 Z"
       fill="#87738c"
       data-layer="edge"
       class="logo-ray"
       id="path1131" />
    <path
       d="M 154.87641,-50.322395 A 162.84669,162.84669 0 0 0 138.84963,-85.087163 L 0,0 Z"
       fill="#87738c"
       data-layer="edge"
       class="logo-ray"
       id="path1133" />
    <path
       d="M 131.74574,-95.718884 A 162.84669,162.84669 0 0 0 105.76047,-123.8296 L 0,0 Z"
       fill="#87738c"
       data-layer="edge"
       class="logo-ray"
       id="path1135" />
    <path
       d="M 95.718884,-131.74574 A 162.84669,162.84669 0 0 0 62.318731,-150.45073 L 0,0 Z"
       fill="#87738c"
       data-layer="edge"
       class="logo-ray"
       id="path1137" />
    <path
       d="m 50.322395,-154.87641 a 162.84669,162.84669 0 0 0 -37.545591,-7.46828 L 0,0 Z"
       fill="#87738c"
       data-layer="edge"
       class="logo-ray"
       id="path1139" />
    <path
       d="m 0,-123.45712 a 123.45712,123.45712 0 0 0 -28.820493,3.41113 L 0,0 Z"
       fill="#e7a59a"
       data-layer="mid"
       class="logo-ray"
       id="path1141" />
    <path
       d="m -38.150349,-117.4147 a 123.45712,123.45712 0 0 0 -26.35582,12.1502 L 0,0 Z"
       fill="#e7a59a"
       data-layer="mid"
       class="logo-ray"
       id="path1143" />
    <path
       d="m -72.566276,-99.87891 a 123.45712,123.45712 0 0 0 -21.311256,19.699923 L 0,0 Z"
       fill="#e7a59a"
       data-layer="mid"
       class="logo-ray"
       id="path1145" />
    <path
       d="m -99.87891,-72.566276 a 123.45712,123.45712 0 0 0 -14.1806,25.321281 L 0,0 Z"
       fill="#e7a59a"
       data-layer="mid"
       class="logo-ray"
       id="path1147" />
    <path
       d="m -117.4147,-38.150349 a 123.45712,123.45712 0 0 0 -5.66185,28.4640148 L 0,0 Z"
       fill="#e7a59a"
       data-layer="mid"
       class="logo-ray"
       id="path1149" />
    <path
       d="m -123.45712,0 a 123.45712,123.45712 0 0 0 3.41113,28.820493 L 0,0 Z"
       fill="#e7a59a"
       data-layer="mid"
       class="logo-ray"
       id="path1151" />
    <path
       d="m -117.4147,38.150349 a 123.45712,123.45712 0 0 0 12.1502,26.35582 L 0,0 Z"
       fill="#e7a59a"
       data-layer="mid"
       class="logo-ray"
       id="path1153" />
    <path
       d="m -99.87891,72.566276 a 123.45712,123.45712 0 0 0 19.699923,21.311256 L 0,0 Z"
       fill="#e7a59a"
       data-layer="mid"
       class="logo-ray"
       id="path1155" />
    <path
       d="m -72.566276,99.87891 a 123.45712,123.45712 0 0 0 25.321281,14.1806 L 0,0 Z"
       fill="#e7a59a"
       data-layer="mid"
       class="logo-ray"
       id="path1157" />
    <path
       d="m -38.150349,117.4147 a 123.45712,123.45712 0 0 0 28.4640148,5.66185 L 0,0 Z"
       fill="#e7a59a"
       data-layer="mid"
       class="logo-ray"
       id="path1159" />
    <path
       d="m 0,123.45712 a 123.45712,123.45712 0 0 0 28.820493,-3.41113 L 0,0 Z"
       fill="#e7a59a"
       data-layer="mid"
       class="logo-ray"
       id="path1161" />
    <path
       d="m 38.150349,117.4147 a 123.45712,123.45712 0 0 0 26.35582,-12.1502 L 0,0 Z"
       fill="#e7a59a"
       data-layer="mid"
       class="logo-ray"
       id="path1163" />
    <path
       d="M 72.566276,99.87891 A 123.45712,123.45712 0 0 0 93.877532,80.178987 L 0,0 Z"
       fill="#e7a59a"
       data-layer="mid"
       class="logo-ray"
       id="path1165" />
    <path
       d="m 99.87891,72.566276 a 123.45712,123.45712 0 0 0 14.1806,-25.321281 L 0,0 Z"
       fill="#e7a59a"
       data-layer="mid"
       class="logo-ray"
       id="path1167" />
    <path
       d="M 117.4147,38.150349 A 123.45712,123.45712 0 0 0 123.07655,9.6863342 L 0,0 Z"
       fill="#e7a59a"
       data-layer="mid"
       class="logo-ray"
       id="path1169" />
    <path
       d="m 123.45712,0 a 123.45712,123.45712 0 0 0 -3.41113,-28.820493 L 0,0 Z"
       fill="#e7a59a"
       data-layer="mid"
       class="logo-ray"
       id="path1171" />
    <path
       d="m 117.4147,-38.150349 a 123.45712,123.45712 0 0 0 -12.1502,-26.35582 L 0,0 Z"
       fill="#e7a59a"
       data-layer="mid"
       class="logo-ray"
       id="path1173" />
    <path
       d="M 99.87891,-72.566276 A 123.45712,123.45712 0 0 0 80.178987,-93.877532 L 0,0 Z"
       fill="#e7a59a"
       data-layer="mid"
       class="logo-ray"
       id="path1175" />
    <path
       d="m 72.566276,-99.87891 a 123.45712,123.45712 0 0 0 -25.321281,-14.1806 L 0,0 Z"
       fill="#e7a59a"
       data-layer="mid"
       class="logo-ray"
       id="path1177" />
    <path
       d="M 38.150349,-117.4147 A 123.45712,123.45712 0 0 0 9.6863342,-123.07655 L 0,0 Z"
       fill="#e7a59a"
       data-layer="mid"
       class="logo-ray"
       id="path1179" />
    <path
       d="m 0,-84.067553 a 84.067553,84.067553 0 0 0 -19.625181,2.322793 L 0,0 Z"
       fill="#ffbc95"
       data-layer="base"
       class="logo-ray"
       id="path1181" />
    <path
       d="m -25.978303,-79.952994 a 84.067553,84.067553 0 0 0 -17.946873,8.273622 L 0,0 Z"
       fill="#ffbc95"
       data-layer="base"
       class="logo-ray"
       id="path1183" />
    <path
       d="m -49.413668,-68.012079 a 84.067553,84.067553 0 0 0 -14.511801,13.414571 L 0,0 Z"
       fill="#ffbc95"
       data-layer="base"
       class="logo-ray"
       id="path1185" />
    <path
       d="m -68.012079,-49.413668 a 84.067553,84.067553 0 0 0 -9.656213,17.242408 L 0,0 Z"
       fill="#ffbc95"
       data-layer="base"
       class="logo-ray"
       id="path1187" />
    <path
       d="m -79.952994,-25.978303 a 84.067553,84.067553 0 0 0 -3.855407,19.3824388 L 0,0 Z"
       fill="#ffbc95"
       data-layer="base"
       class="logo-ray"
       id="path1189" />
    <path
       d="m -84.067553,0 a 84.067553,84.067553 0 0 0 2.322793,19.625181 L 0,0 Z"
       fill="#ffbc95"
       data-layer="base"
       class="logo-ray"
       id="path1191" />
    <path
       d="m -79.952994,25.978303 a 84.067553,84.067553 0 0 0 8.273622,17.946873 L 0,0 Z"
       fill="#ffbc95"
       data-layer="base"
       class="logo-ray"
       id="path1193" />
    <path
       d="m -68.012079,49.413668 a 84.067553,84.067553 0 0 0 13.414571,14.511801 L 0,0 Z"
       fill="#ffbc95"
       data-layer="base"
       class="logo-ray"
       id="path1195" />
    <path
       d="m -49.413668,68.012079 a 84.067553,84.067553 0 0 0 17.242408,9.656213 L 0,0 Z"
       fill="#ffbc95"
       data-layer="base"
       class="logo-ray"
       id="path1197" />
    <path
       d="m -25.978303,79.952994 a 84.067553,84.067553 0 0 0 19.3824388,3.855407 L 0,0 Z"
       fill="#ffbc95"
       data-layer="base"
       class="logo-ray"
       id="path1199" />
    <path
       d="M 0,84.067553 A 84.067553,84.067553 0 0 0 19.625181,81.74476 L 0,0 Z"
       fill="#ffbc95"
       data-layer="base"
       class="logo-ray"
       id="path1201" />
    <path
       d="M 25.978303,79.952994 A 84.067553,84.067553 0 0 0 43.925176,71.679372 L 0,0 Z"
       fill="#ffbc95"
       data-layer="base"
       class="logo-ray"
       id="path1203" />
    <path
       d="M 49.413668,68.012079 A 84.067553,84.067553 0 0 0 63.925469,54.597508 L 0,0 Z"
       fill="#ffbc95"
       data-layer="base"
       class="logo-ray"
       id="path1205" />
    <path
       d="M 68.012079,49.413668 A 84.067553,84.067553 0 0 0 77.668292,32.17126 L 0,0 Z"
       fill="#ffbc95"
       data-layer="base"
       class="logo-ray"
       id="path1207" />
    <path
       d="M 79.952994,25.978303 A 84.067553,84.067553 0 0 0 83.808401,6.5958642 L 0,0 Z"
       fill="#ffbc95"
       data-layer="base"
       class="logo-ray"
       id="path1209" />
    <path
       d="M 84.067553,0 A 84.067553,84.067553 0 0 0 81.74476,-19.625181 L 0,0 Z"
       fill="#ffbc95"
       data-layer="base"
       class="logo-ray"
       id="path1211" />
    <path
       d="M 79.952994,-25.978303 A 84.067553,84.067553 0 0 0 71.679372,-43.925176 L 0,0 Z"
       fill="#ffbc95"
       data-layer="base"
       class="logo-ray"
       id="path1213" />
    <path
       d="M 68.012079,-49.413668 A 84.067553,84.067553 0 0 0 54.597508,-63.925469 L 0,0 Z"
       fill="#ffbc95"
       data-layer="base"
       class="logo-ray"
       id="path1215" />
    <path
       d="M 49.413668,-68.012079 A 84.067553,84.067553 0 0 0 32.17126,-77.668292 L 0,0 Z"
       fill="#ffbc95"
       data-layer="base"
       class="logo-ray"
       id="path1217" />
    <path
       d="M 25.978303,-79.952994 A 84.067553,84.067553 0 0 0 6.5958642,-83.808401 L 0,0 Z"
       fill="#ffbc95"
       data-layer="base"
       class="logo-ray"
       id="path1219" />
    <circle
       fill="#111c27"
       r="69.296463"
       id="circle1221"
       cx="0"
       cy="0" />
  </g>
  <path
     id="X"
     d="m 107.65171,480.80475 c 0,-11.87722 129.10126,-158.11385 128.65943,-171.09561 -0.40225,-11.81787 -126.32878,-153.0025 -126.32878,-163.85013 0,-10.84766 60.89957,-62.222049 76.54521,-62.222049 14.48034,0 112.17374,141.163949 125.05523,142.036029 12.75062,0.86319 98.9362,-139.705393 111.65694,-139.705393 11.55542,0 79.45562,47.548363 79.45562,59.119843 0,10.40615 -130.88425,143.65498 -130.63786,159.96043 0.22878,15.14036 132.36939,156.08894 131.46452,169.5094 -0.82666,12.26017 -69.19891,63.55469 -81.24464,63.55469 -13.21105,0 -106.22513,-141.50712 -118.85181,-141.49589 -12.67932,0.0121 -102.60948,141.49589 -114.16498,141.49589 -12.72083,0 -81.60888,-46.59528 -81.60888,-57.30721 z"
     style="fill:#9706a6;fill-opacity:1;stroke:#ffffff;stroke-width:14.5393;stroke-opacity:1" />
</svg>
