<?xml version="1.0" encoding="UTF-8" standalone="no"?>
<!-- Created with Inkscape (http://www.inkscape.org/) -->

<svg
   version="1.1"
   id="svg2"
   xml:space="preserve"
   width="3549.8667"
   height="3140.2666"
   viewBox="0 0 3549.8667 3140.2666"
   sodipodi:docname="svg.svg"
   inkscape:version="1.1.2 (0a00cf5339, 2022-02-04)"
   xmlns:inkscape="http://www.inkscape.org/namespaces/inkscape"
   xmlns:sodipodi="http://sodipodi.sourceforge.net/DTD/sodipodi-0.dtd"
   xmlns="http://www.w3.org/2000/svg"
   xmlns:svg="http://www.w3.org/2000/svg"><defs
     id="defs6" /><sodipodi:namedview
     id="namedview4"
     pagecolor="#ffffff"
     bordercolor="#666666"
     borderopacity="1.0"
     inkscape:pageshadow="2"
     inkscape:pageopacity="0.0"
     inkscape:pagecheckerboard="0"
     showgrid="false"
     inkscape:zoom="0.28628143"
     inkscape:cx="1776.2242"
     inkscape:cy="1570.1333"
     inkscape:window-width="3440"
     inkscape:window-height="1369"
     inkscape:window-x="0"
     inkscape:window-y="34"
     inkscape:window-maximized="1"
     inkscape:current-layer="g8" /><g
     id="g8"
     inkscape:groupmode="layer"
     inkscape:label="ink_ext_XXXXXX"
     transform="matrix(1.3333333,0,0,-1.3333333,0,3140.2667)"><g
       id="g10"
       transform="scale(0.1)"><path
         d="M 26624,0 H 0 V 23552 H 26624 V 0"
         style="fill:#ffffff;fill-opacity:1;fill-rule:nonzero;stroke:none"
         id="path12" /><path
         d="m 23467.4,5386.4 c -1085.7,0 -1969,-883.3 -1969,-1969.1 0,-1085.7 883.3,-1969 1969,-1969 1085.7,0 1969,883.3 1969,1969 0,1085.8 -883.3,1969.1 -1969,1969.1 z m 0,-4040.5 c -1142.2,0 -2071.4,929.2 -2071.4,2071.4 0,1142.3 929.2,2071.5 2071.4,2071.5 1142.2,0 2071.4,-929.2 2071.4,-2071.5 0,-1142.2 -929.2,-2071.4 -2071.4,-2071.4"
         style="fill:#3e4651;fill-opacity:1;fill-rule:nonzero;stroke:none"
         id="path14" /><path
         d="m 22482.4,3486.1 c -28.3,0 -51.2,22.9 -51.2,51.2 V 3887 c 0,28.2 22.9,51.2 51.2,51.2 h 962.9 v 451.9 c 0,28.3 23,51.2 51.2,51.2 28.3,0 51.2,-22.9 51.2,-51.2 V 3887 c 0,-28.3 -22.9,-51.2 -51.2,-51.2 h -962.9 v -298.5 c 0,-28.3 -23,-51.2 -51.2,-51.2"
         style="fill:#3e4651;fill-opacity:1;fill-rule:nonzero;stroke:none"
         id="path16" /><path
         d="m 23098.8,2821.6 h -616.4 c -28.3,0 -51.2,22.9 -51.2,51.2 v 350 c 0,28.3 22.9,51.2 51.2,51.2 28.2,0 51.2,-22.9 51.2,-51.2 V 2924 h 565.2 c 28.2,0 51.2,-22.9 51.2,-51.2 0,-28.3 -23,-51.2 -51.2,-51.2"
         style="fill:#3e4651;fill-opacity:1;fill-rule:nonzero;stroke:none"
         id="path18" /><path
         d="m 24510.7,3324.7 c -28.2,0 -51.2,23 -51.2,51.2 v 963 h -963 c -28.2,0 -51.2,23 -51.2,51.2 0,28.3 23,51.2 51.2,51.2 h 1014.2 c 28.3,0 51.2,-22.9 51.2,-51.2 V 3375.9 c 0,-28.2 -22.9,-51.2 -51.2,-51.2"
         style="fill:#3e4651;fill-opacity:1;fill-rule:nonzero;stroke:none"
         id="path20" /><path
         d="m 24510.7,2821.6 h -623.6 c -28.3,0 -51.2,22.9 -51.2,51.2 0,28.3 22.9,51.2 51.2,51.2 h 572.4 v 451.9 c 0,28.3 23,51.2 51.2,51.2 28.3,0 51.2,-22.9 51.2,-51.2 v -503.1 c 0,-28.3 -22.9,-51.2 -51.2,-51.2"
         style="fill:#3e4651;fill-opacity:1;fill-rule:nonzero;stroke:none"
         id="path22" /><path
         d="m 23871.7,2188.6 h -1014.2 c -28.2,0 -51.2,22.9 -51.2,51.1 v 633.1 c 0,28.3 23,51.2 51.2,51.2 h 241.3 c 28.2,0 51.2,-22.9 51.2,-51.2 0,-28.3 -23,-51.2 -51.2,-51.2 h -190.1 V 2291 h 911.8 v 530.6 h -264.7 c -28.3,0 -51.2,22.9 -51.2,51.2 0,28.3 22.9,51.2 51.2,51.2 h 315.9 c 28.3,0 51.2,-22.9 51.2,-51.2 v -633.1 c 0,-28.2 -22.9,-51.1 -51.2,-51.1"
         style="fill:#3e4651;fill-opacity:1;fill-rule:nonzero;stroke:none"
         id="path24" /><path
         d="m 18389.7,5386.4 c -1085.7,0 -1969,-883.3 -1969,-1969.1 0,-1085.7 883.3,-1969 1969,-1969 1085.7,0 1969,883.3 1969,1969 0,1085.8 -883.3,1969.1 -1969,1969.1 z m 0,-4040.5 c -1142.2,0 -2071.4,929.2 -2071.4,2071.4 0,1142.3 929.2,2071.5 2071.4,2071.5 1142.2,0 2071.4,-929.2 2071.4,-2071.5 0,-1142.2 -929.2,-2071.4 -2071.4,-2071.4"
         style="fill:#3e4651;fill-opacity:1;fill-rule:nonzero;stroke:none"
         id="path26" /><path
         d="m 17492.3,3576.6 33.5,-401.6 c 15.6,-187.6 175.2,-334.5 363.4,-334.5 h 841.6 c 188.2,0 347.8,146.9 363.4,334.5 l 5.1,60.7 c 9.4,113.3 8.8,227.7 -1.8,340.9 z m 1238.5,-838.5 h -841.6 c -241,0 -445.5,188.2 -465.5,428.4 l -38.1,457 c -1.1,14.3 3.7,28.4 13.4,38.9 9.7,10.6 23.3,16.6 37.7,16.6 h 1649 c -19.5,213.2 121.8,409.8 329.1,452.7 l 19.9,4.1 c 27.7,5.8 54.8,-11.9 60.6,-39.7 5.7,-27.7 -12,-54.8 -39.7,-60.5 l -20,-4.1 c -163.8,-34 -269.6,-187.8 -246.2,-358.1 20.3,-147.5 24.3,-297.7 12,-446.2 l -5.1,-60.8 c -20,-240.1 -224.5,-428.3 -465.5,-428.3"
         style="fill:#3e4651;fill-opacity:1;fill-rule:nonzero;stroke:none"
         id="path28" /><path
         d="m 17487.9,3679 h 870.2 l -196.6,710.1 c -374.5,-20.1 -673,-330.9 -673.6,-710.1 z m 937.5,-102.4 h -988.7 c -28.3,0 -51.2,22.9 -51.2,51.2 v 50 c 0,449.3 365.4,814.7 814.7,814.7 23,0 43.2,-15.3 49.3,-37.5 l 225.3,-813.5 c 4.2,-15.5 1.1,-32 -8.6,-44.7 -9.7,-12.7 -24.8,-20.2 -40.8,-20.2"
         style="fill:#3e4651;fill-opacity:1;fill-rule:nonzero;stroke:none"
         id="path30" /><path
         d="m 18935.5,2578.1 c -93.3,0 -169.2,-75.9 -169.2,-169.2 0,-93.3 75.9,-169.2 169.2,-169.2 93.3,0 169.2,75.9 169.2,169.2 0,93.3 -75.9,169.2 -169.2,169.2 z m 0,-440.8 c -149.7,0 -271.6,121.9 -271.6,271.6 0,149.7 121.9,271.6 271.6,271.6 149.7,0 271.6,-121.9 271.6,-271.6 0,-149.7 -121.9,-271.6 -271.6,-271.6"
         style="fill:#3e4651;fill-opacity:1;fill-rule:nonzero;stroke:none"
         id="path32" /><path
         d="m 17668.2,2578.1 c -93.2,0 -169.1,-75.9 -169.1,-169.2 0,-93.3 75.9,-169.2 169.1,-169.2 93.3,0 169.2,75.9 169.2,169.2 0,93.3 -75.9,169.2 -169.2,169.2 z m 0,-440.8 c -149.7,0 -271.5,121.9 -271.5,271.6 0,149.7 121.8,271.6 271.5,271.6 149.8,0 271.6,-121.9 271.6,-271.6 0,-149.7 -121.8,-271.6 -271.6,-271.6"
         style="fill:#3e4651;fill-opacity:1;fill-rule:nonzero;stroke:none"
         id="path34" /><path
         d="m 19111.2,3129 h -898.7 c -28.3,0 -51.2,22.9 -51.2,51.2 0,28.2 22.9,51.2 51.2,51.2 h 898.7 c 28.2,0 51.2,-23 51.2,-51.2 0,-28.3 -23,-51.2 -51.2,-51.2"
         style="fill:#3e4651;fill-opacity:1;fill-rule:nonzero;stroke:none"
         id="path36" /><path
         d="m 18661.8,2357.7 h -773.2 c -28.3,0 -51.2,22.9 -51.2,51.2 0,28.3 22.9,51.2 51.2,51.2 h 773.2 c 28.3,0 51.2,-22.9 51.2,-51.2 0,-28.3 -22.9,-51.2 -51.2,-51.2"
         style="fill:#3e4651;fill-opacity:1;fill-rule:nonzero;stroke:none"
         id="path38" /><path
         d="m 17793.2,2540.9 c -7.7,0 -15.5,1.7 -22.8,5.4 -25.3,12.6 -35.6,43.4 -22.9,68.7 l 79.4,158.9 c 12.6,25.2 43.3,35.5 68.7,22.8 25.3,-12.6 35.6,-43.3 22.9,-68.7 l -79.4,-158.8 c -9,-18 -27.1,-28.3 -45.9,-28.3"
         style="fill:#3e4651;fill-opacity:1;fill-rule:nonzero;stroke:none"
         id="path40" /><path
         d="m 18810.5,2540.9 c -18.8,0 -36.9,10.4 -45.8,28.3 l -79.5,158.8 c -12.6,25.4 -2.3,56.1 22.9,68.7 25.4,12.7 56.1,2.4 68.7,-22.8 l 79.5,-158.9 c 12.6,-25.3 2.3,-56.1 -22.9,-68.7 -7.4,-3.7 -15.2,-5.4 -22.9,-5.4"
         style="fill:#3e4651;fill-opacity:1;fill-rule:nonzero;stroke:none"
         id="path42" /><path
         d="m 13312,5386.4 c -1085.7,0 -1969,-883.3 -1969,-1969.1 0,-1085.7 883.3,-1969 1969,-1969 1085.7,0 1969,883.3 1969,1969 0,1085.8 -883.3,1969.1 -1969,1969.1 z m 0,-4040.5 c -1142.2,0 -2071.4,929.2 -2071.4,2071.4 0,1142.3 929.2,2071.5 2071.4,2071.5 1142.2,0 2071.4,-929.2 2071.4,-2071.5 0,-1142.2 -929.2,-2071.4 -2071.4,-2071.4"
         style="fill:#3e4651;fill-opacity:1;fill-rule:nonzero;stroke:none"
         id="path44" /><path
         d="m 13312,4125.3 c -213.3,0 -428.9,-12.5 -640.8,-37.3 -52.8,-6.2 -92.6,-51.8 -92.6,-106 V 2850.7 c 0,-54.2 39.8,-99.8 92.6,-106 423.7,-49.5 857.8,-49.5 1281.6,0 52.8,6.2 92.6,51.8 92.6,106 V 3982 c 0,54.2 -39.8,99.8 -92.6,106 -211.9,24.8 -427.5,37.3 -640.8,37.3 z m 0,-1520.3 c -217.3,0 -436.9,12.8 -652.7,38 -104.4,12.2 -183.1,101.5 -183.1,207.7 V 3982 c 0,106.2 78.7,195.5 183.1,207.7 431.7,50.5 873.7,50.5 1305.4,0 104.4,-12.2 183.1,-101.5 183.1,-207.7 V 2850.7 c 0,-106.2 -78.7,-195.5 -183.1,-207.7 -215.8,-25.2 -435.4,-38 -652.7,-38"
         style="fill:#3e4651;fill-opacity:1;fill-rule:nonzero;stroke:none"
         id="path46" /><path
         d="m 13943.3,4106.8 c -21.1,0 -40.8,13.2 -48.3,34.2 l -57.7,164 c -29.5,83.8 -128.8,142.4 -241.4,142.4 h -567.7 c -112.6,0 -211.9,-58.6 -241.4,-142.4 l -57.8,-164 c -9.4,-26.7 -38.6,-40.6 -65.3,-31.3 -26.6,9.4 -40.6,38.7 -31.3,65.3 l 57.8,164 c 44.4,126.1 180.2,210.8 338,210.8 h 567.7 c 157.7,0 293.6,-84.7 338,-210.8 l 57.7,-164 c 9.4,-26.6 -4.6,-55.9 -31.3,-65.3 -5.6,-1.9 -11.3,-2.9 -17,-2.9"
         style="fill:#3e4651;fill-opacity:1;fill-rule:nonzero;stroke:none"
         id="path48" /><path
         d="m 13595.9,2283 h -567.7 c -157.8,0 -293.6,84.7 -338,210.8 l -57.8,163.9 c -9.3,26.7 4.7,55.9 31.3,65.3 26.7,9.5 55.9,-4.6 65.3,-31.3 l 57.8,-164 c 29.5,-83.8 128.8,-142.3 241.4,-142.3 h 567.7 c 112.6,0 211.9,58.5 241.4,142.3 l 57.7,164 c 9.5,26.7 38.7,40.7 65.3,31.3 26.7,-9.4 40.7,-38.6 31.3,-65.3 l -57.7,-163.9 c -44.4,-126.1 -180.3,-210.8 -338,-210.8"
         style="fill:#3e4651;fill-opacity:1;fill-rule:nonzero;stroke:none"
         id="path50" /><path
         d="m 13074,1989.8 c -92.7,0 -168.2,75.4 -168.2,168.2 v 165.5 c 0,28.3 23,51.2 51.2,51.2 28.3,0 51.2,-22.9 51.2,-51.2 V 2158 c 0,-36.3 29.5,-65.8 65.8,-65.8 36.3,0 65.8,29.5 65.8,65.8 v 165.5 c 0,28.3 22.9,51.2 51.2,51.2 28.2,0 51.2,-22.9 51.2,-51.2 V 2158 c 0,-92.8 -75.5,-168.2 -168.2,-168.2"
         style="fill:#3e4651;fill-opacity:1;fill-rule:nonzero;stroke:none"
         id="path52" /><path
         d="m 13550,1989.8 c -92.7,0 -168.2,75.4 -168.2,168.2 v 165.5 c 0,28.3 22.9,51.2 51.2,51.2 28.3,0 51.2,-22.9 51.2,-51.2 V 2158 c 0,-36.3 29.5,-65.8 65.8,-65.8 36.2,0 65.7,29.5 65.7,65.8 v 165.5 c 0,28.3 23,51.2 51.2,51.2 28.3,0 51.2,-22.9 51.2,-51.2 V 2158 c 0,-92.8 -75.4,-168.2 -168.1,-168.2"
         style="fill:#3e4651;fill-opacity:1;fill-rule:nonzero;stroke:none"
         id="path54" /><path
         d="m 13312,3583.3 c -147.7,0 -267.9,-120.2 -267.9,-267.9 0,-147.7 120.2,-267.9 267.9,-267.9 147.7,0 267.9,120.2 267.9,267.9 0,147.7 -120.2,267.9 -267.9,267.9 z m 0,-638.2 c -204.2,0 -370.3,166.1 -370.3,370.3 0,204.2 166.1,370.3 370.3,370.3 204.2,0 370.3,-166.1 370.3,-370.3 0,-204.2 -166.1,-370.3 -370.3,-370.3"
         style="fill:#3e4651;fill-opacity:1;fill-rule:nonzero;stroke:none"
         id="path56" /><path
         d="m 13312,3275 c -13.1,0 -26.2,5 -36.2,15 -20,20 -20,52.4 0,72.4 l 90.9,90.9 c 20,20 52.4,20 72.4,0 20,-20 20,-52.4 0,-72.4 l -90.9,-90.9 c -10,-10 -23.1,-15 -36.2,-15"
         style="fill:#3e4651;fill-opacity:1;fill-rule:nonzero;stroke:none"
         id="path58" /><path
         d="m 12860.9,3875.3 c -25.9,-38.2 -49,-80.5 -49,-103.9 0,-27.1 22,-49.1 49.1,-49.1 27,0 49,22 49,49.1 0,21.4 -21.8,63.3 -49.1,103.9 z m 0.1,-255.4 c -83.5,0 -151.5,68 -151.5,151.5 0,85.3 93.7,200 112.5,222.1 9.7,11.5 24.1,15.8 39.2,18.1 15.1,-0.1 29.4,-6.8 39,-18.4 18.8,-22.3 112.2,-138.1 112.2,-221.8 0,-83.5 -67.9,-151.5 -151.4,-151.5"
         style="fill:#3e4651;fill-opacity:1;fill-rule:nonzero;stroke:none"
         id="path60" /><path
         d="m 8234.29,5386.4 c -1085.73,0 -1969.02,-883.3 -1969.02,-1969.1 0,-1085.7 883.29,-1969 1969.02,-1969 1085.72,0 1969.01,883.3 1969.01,1969 0,1085.8 -883.29,1969.1 -1969.01,1969.1 z m 0,-4040.5 c -1142.2,0 -2071.42,929.2 -2071.42,2071.4 0,1142.3 929.22,2071.5 2071.42,2071.5 1142.2,0 2071.41,-929.2 2071.41,-2071.5 0,-1142.2 -929.21,-2071.4 -2071.41,-2071.4"
         style="fill:#3e4651;fill-opacity:1;fill-rule:nonzero;stroke:none"
         id="path62" /><path
         d="m 7107.89,2714.6 h 2252.8 v 1404.9 h -2252.8 z m 2270.7,-102.4 h -2288.6 c -46.6,0 -84.5,37.9 -84.5,84.5 v 1440.7 c 0,46.6 37.9,84.5 84.5,84.5 h 2288.6 c 46.6,0 84.5,-37.9 84.5,-84.5 V 2696.7 c 0,-46.6 -37.9,-84.5 -84.5,-84.5"
         style="fill:#3e4651;fill-opacity:1;fill-rule:nonzero;stroke:none"
         id="path64" /><path
         d="M 9397.97,2807.5 H 7070.61 c -28.27,0 -51.2,22.9 -51.2,51.2 0,28.2 22.93,51.2 51.2,51.2 h 2327.36 c 28.27,0 51.2,-23 51.2,-51.2 0,-28.3 -22.93,-51.2 -51.2,-51.2"
         style="fill:#3e4651;fill-opacity:1;fill-rule:nonzero;stroke:none"
         id="path66" /><path
         d="m 7841.77,2416.7 c -28.28,0 -51.2,23 -51.2,51.2 v 186.7 c 0,28.3 22.92,51.2 51.2,51.2 28.27,0 51.2,-22.9 51.2,-51.2 v -186.7 c 0,-28.2 -22.93,-51.2 -51.2,-51.2"
         style="fill:#3e4651;fill-opacity:1;fill-rule:nonzero;stroke:none"
         id="path68" /><path
         d="m 8547.49,2408 h -885.9 c -28.27,0 -51.2,22.9 -51.2,51.2 0,28.3 22.93,51.2 51.2,51.2 h 885.9 c 28.27,0 51.2,-22.9 51.2,-51.2 0,-28.3 -22.93,-51.2 -51.2,-51.2"
         style="fill:#3e4651;fill-opacity:1;fill-rule:nonzero;stroke:none"
         id="path70" /><path
         d="m 8626.82,2416.7 c -28.28,0 -51.2,23 -51.2,51.2 v 186.7 c 0,28.3 22.92,51.2 51.2,51.2 28.27,0 51.2,-22.9 51.2,-51.2 v -186.7 c 0,-28.2 -22.93,-51.2 -51.2,-51.2"
         style="fill:#3e4651;fill-opacity:1;fill-rule:nonzero;stroke:none"
         id="path72" /><path
         d="m 8806.99,2408 h -338.85 c -28.28,0 -51.2,22.9 -51.2,51.2 0,28.3 22.92,51.2 51.2,51.2 h 338.85 c 28.28,0 51.2,-22.9 51.2,-51.2 0,-28.3 -22.92,-51.2 -51.2,-51.2"
         style="fill:#3e4651;fill-opacity:1;fill-rule:nonzero;stroke:none"
         id="path74" /><path
         d="m 8234.29,2618.8 c -28.28,0 -51.2,22.9 -51.2,51.2 v 51.2 c 0,28.3 22.92,51.2 51.2,51.2 28.27,0 51.2,-22.9 51.2,-51.2 V 2670 c 0,-28.3 -22.93,-51.2 -51.2,-51.2"
         style="fill:#3e4651;fill-opacity:1;fill-rule:nonzero;stroke:none"
         id="path76" /><path
         d="m 3156.59,5386.4 c -1085.72,0 -1969.03,-883.3 -1969.03,-1969.1 0,-1085.7 883.31,-1969 1969.03,-1969 1085.72,0 1969.03,883.3 1969.03,1969 0,1085.8 -883.31,1969.1 -1969.03,1969.1 z m 0,-4040.5 c -1142.2,0 -2071.43,929.2 -2071.43,2071.4 0,1142.3 929.23,2071.5 2071.43,2071.5 1142.2,0 2071.43,-929.2 2071.43,-2071.5 0,-1142.2 -929.23,-2071.4 -2071.43,-2071.4"
         style="fill:#3e4651;fill-opacity:1;fill-rule:nonzero;stroke:none"
         id="path78" /><path
         d="m 2503.41,4390.1 c -34.37,0 -62.32,-27.9 -62.32,-62.3 0,-34.4 27.95,-62.3 62.32,-62.3 h 1306.13 c 34.38,0 62.33,27.9 62.33,62.3 0,34.4 -27.95,62.3 -62.33,62.3 z m 1306.13,-227 H 2503.41 c -90.82,0 -164.72,73.9 -164.72,164.7 0,90.9 73.9,164.7 164.72,164.7 h 1306.13 c 90.82,0 164.73,-73.8 164.73,-164.7 0,-90.8 -73.91,-164.7 -164.73,-164.7"
         style="fill:#3e4651;fill-opacity:1;fill-rule:nonzero;stroke:none"
         id="path80" /><path
         d="m 3156.46,4276.6 c -28.23,0 -51.2,23 -51.2,51.2 0,28.3 22.97,51.2 51.2,51.2 28.25,0 51.23,-22.9 51.23,-51.2 0,-28.2 -22.98,-51.2 -51.23,-51.2"
         style="fill:#3e4651;fill-opacity:1;fill-rule:nonzero;stroke:none"
         id="path82" /><path
         d="m 2772.52,4276.6 c -28.25,0 -51.23,23 -51.23,51.2 0,28.3 22.98,51.2 51.23,51.2 28.23,0 51.2,-22.9 51.2,-51.2 0,-28.2 -22.97,-51.2 -51.2,-51.2"
         style="fill:#3e4651;fill-opacity:1;fill-rule:nonzero;stroke:none"
         id="path84" /><path
         d="m 3540.44,4276.6 c -28.24,0 -51.2,23 -51.2,51.2 0,28.3 22.96,51.2 51.2,51.2 28.24,0 51.2,-22.9 51.2,-51.2 0,-28.2 -22.96,-51.2 -51.2,-51.2"
         style="fill:#3e4651;fill-opacity:1;fill-rule:nonzero;stroke:none"
         id="path86" /><path
         d="M 3711.06,3902 H 2601.87 c -28.28,0 -51.2,23 -51.2,51.2 0,28.3 22.92,51.2 51.2,51.2 h 1109.19 c 28.28,0 51.2,-22.9 51.2,-51.2 0,-28.2 -22.92,-51.2 -51.2,-51.2"
         style="fill:#3e4651;fill-opacity:1;fill-rule:nonzero;stroke:none"
         id="path88" /><path
         d="m 3605.84,3671.2 h -898.73 c -28.27,0 -51.2,23 -51.2,51.2 0,28.3 22.93,51.2 51.2,51.2 h 898.73 c 28.27,0 51.2,-22.9 51.2,-51.2 0,-28.2 -22.93,-51.2 -51.2,-51.2"
         style="fill:#3e4651;fill-opacity:1;fill-rule:nonzero;stroke:none"
         id="path90" /><path
         d="m 3605.84,3440.4 h -898.73 c -28.27,0 -51.2,23 -51.2,51.2 0,28.3 22.93,51.2 51.2,51.2 h 898.73 c 28.27,0 51.2,-22.9 51.2,-51.2 0,-28.2 -22.93,-51.2 -51.2,-51.2"
         style="fill:#3e4651;fill-opacity:1;fill-rule:nonzero;stroke:none"
         id="path92" /><path
         d="m 3605.84,3209.6 h -898.73 c -28.27,0 -51.2,22.9 -51.2,51.2 0,28.3 22.93,51.2 51.2,51.2 h 898.73 c 28.27,0 51.2,-22.9 51.2,-51.2 0,-28.3 -22.93,-51.2 -51.2,-51.2"
         style="fill:#3e4651;fill-opacity:1;fill-rule:nonzero;stroke:none"
         id="path94" /><path
         d="m 3605.84,2978.8 h -898.73 c -28.27,0 -51.2,22.9 -51.2,51.2 0,28.3 22.93,51.2 51.2,51.2 h 898.73 c 28.27,0 51.2,-22.9 51.2,-51.2 0,-28.3 -22.93,-51.2 -51.2,-51.2"
         style="fill:#3e4651;fill-opacity:1;fill-rule:nonzero;stroke:none"
         id="path96" /><path
         d="m 3168.29,2748 h -461.18 c -28.27,0 -51.2,23 -51.2,51.2 0,28.3 22.93,51.2 51.2,51.2 h 461.18 c 28.27,0 51.2,-22.9 51.2,-51.2 0,-28.2 -22.93,-51.2 -51.2,-51.2"
         style="fill:#3e4651;fill-opacity:1;fill-rule:nonzero;stroke:none"
         id="path98" /><path
         d="m 3168.29,2517.2 h -461.18 c -28.27,0 -51.2,22.9 -51.2,51.2 0,28.3 22.93,51.2 51.2,51.2 h 461.18 c 28.27,0 51.2,-22.9 51.2,-51.2 0,-28.3 -22.93,-51.2 -51.2,-51.2"
         style="fill:#3e4651;fill-opacity:1;fill-rule:nonzero;stroke:none"
         id="path100" /><path
         d="M 3734.36,2342.1 H 2578.99 c -132.4,0 -240.12,108 -240.12,240.6 v 1745 c 0,28.3 22.92,51.2 51.2,51.2 28.27,0 51.2,-22.9 51.2,-51.2 v -1745 c 0,-76.1 61.77,-138.2 137.72,-138.2 h 1155.37 c 75.95,0 137.73,62.1 137.73,138.2 v 1481.9 c 0,28.3 22.92,51.2 51.2,51.2 28.27,0 51.2,-22.9 51.2,-51.2 V 2582.7 c 0,-132.6 -107.73,-240.6 -240.13,-240.6"
         style="fill:#3e4651;fill-opacity:1;fill-rule:nonzero;stroke:none"
         id="path102" /><path
         d="m 3330.54,2517.2 c -7.25,0 -14.6,1.6 -21.53,4.8 -20.92,9.7 -32.77,32.2 -28.92,55 l 46.55,275.4 c 4.72,27.9 31.15,46.8 59,41.9 27.9,-4.7 46.67,-31.1 41.95,-59 l -15.32,-90.7 58.9,69.8 c 14.79,17.5 39.34,23 60.29,13.6 20.85,-9.5 32.9,-31.7 29.45,-54.3 l -5.64,-37.1 141.85,120.7 c 21.5,18.4 53.82,15.8 72.17,-5.8 18.33,-21.5 15.73,-53.8 -5.82,-72.1 l -246.31,-209.7 c -16.32,-13.8 -39.42,-16.1 -58.09,-5.7 -16.83,9.4 -26.81,27.3 -26.25,46.2 l -63.13,-74.8 c -9.98,-11.8 -24.4,-18.2 -39.15,-18.2"
         style="fill:#3e4651;fill-opacity:1;fill-rule:nonzero;stroke:none"
         id="path104" /><path
         d="m 23467.4,10719.9 c -1085.7,0 -1969,-883.3 -1969,-1969.1 0,-1085.7 883.3,-1969 1969,-1969 1085.7,0 1969,883.3 1969,1969 0,1085.8 -883.3,1969.1 -1969,1969.1 z m 0,-4040.5 c -1142.2,0 -2071.4,929.2 -2071.4,2071.4 0,1142.2 929.2,2071.5 2071.4,2071.5 1142.2,0 2071.4,-929.3 2071.4,-2071.5 0,-1142.2 -929.2,-2071.4 -2071.4,-2071.4"
         style="fill:#3e4651;fill-opacity:1;fill-rule:nonzero;stroke:none"
         id="path106" /><path
         d="m 22658.2,9548.2 c -90.2,0 -163.6,-73.4 -163.6,-163.6 V 8448 c 0,-90.2 73.4,-163.6 163.6,-163.6 h 1618.4 c 90.2,0 163.6,73.4 163.6,163.6 v 936.6 c 0,90.2 -73.4,163.6 -163.6,163.6 z M 24276.6,8182 h -1618.4 c -146.7,0 -266,119.3 -266,266 v 936.6 c 0,146.7 119.3,266 266,266 h 1618.4 c 146.7,0 266,-119.3 266,-266 V 8448 c 0,-146.7 -119.3,-266 -266,-266"
         style="fill:#3e4651;fill-opacity:1;fill-rule:nonzero;stroke:none"
         id="path108" /><path
         d="m 24155.7,7947.1 h -1363.6 c -138.5,0 -251.2,112.7 -251.2,251.2 v 34.9 c 0,28.3 22.9,51.2 51.2,51.2 28.3,0 51.2,-22.9 51.2,-51.2 v -34.9 c 0,-82 66.8,-148.8 148.8,-148.8 h 1363.6 c 82.1,0 148.8,66.8 148.8,148.8 v 34.9 c 0,28.3 22.9,51.2 51.2,51.2 28.3,0 51.2,-22.9 51.2,-51.2 v -34.9 c 0,-138.5 -112.7,-251.2 -251.2,-251.2"
         style="fill:#3e4651;fill-opacity:1;fill-rule:nonzero;stroke:none"
         id="path110" /><path
         d="m 22822.3,8921.5 c -28.2,0 -51.2,22.9 -51.2,51.2 v 306.8 c 0,28.3 23,51.2 51.2,51.2 28.3,0 51.2,-22.9 51.2,-51.2 v -306.8 c 0,-28.3 -22.9,-51.2 -51.2,-51.2"
         style="fill:#3e4651;fill-opacity:1;fill-rule:nonzero;stroke:none"
         id="path112" /><path
         d="m 22689.5,8998.2 c -17.7,0 -34.9,9.2 -44.4,25.6 -14.1,24.5 -5.7,55.8 18.8,69.9 l 265.7,153.5 c 24.5,14.1 55.8,5.7 70,-18.8 14.1,-24.5 5.7,-55.8 -18.8,-69.9 l -265.7,-153.4 c -8.1,-4.7 -16.9,-6.9 -25.6,-6.9"
         style="fill:#3e4651;fill-opacity:1;fill-rule:nonzero;stroke:none"
         id="path114" /><path
         d="m 22955.2,8998.2 c -8.7,0 -17.5,2.2 -25.6,6.9 l -265.7,153.4 c -24.5,14.1 -32.9,45.4 -18.8,69.9 14.2,24.5 45.4,32.9 70,18.8 l 265.7,-153.5 c 24.5,-14.1 32.9,-45.4 18.8,-69.9 -9.5,-16.4 -26.7,-25.6 -44.4,-25.6"
         style="fill:#3e4651;fill-opacity:1;fill-rule:nonzero;stroke:none"
         id="path116" /><path
         d="m 23467.4,8921.5 c -28.3,0 -51.2,22.9 -51.2,51.2 v 306.8 c 0,28.3 22.9,51.2 51.2,51.2 28.3,0 51.2,-22.9 51.2,-51.2 v -306.8 c 0,-28.3 -22.9,-51.2 -51.2,-51.2"
         style="fill:#3e4651;fill-opacity:1;fill-rule:nonzero;stroke:none"
         id="path118" /><path
         d="m 23334.6,8998.2 c -17.7,0 -34.9,9.2 -44.4,25.6 -14.1,24.5 -5.8,55.8 18.7,69.9 l 265.8,153.5 c 24.4,14.1 55.7,5.7 69.9,-18.8 14.1,-24.5 5.8,-55.8 -18.7,-69.9 l -265.8,-153.4 c -8,-4.7 -16.8,-6.9 -25.5,-6.9"
         style="fill:#3e4651;fill-opacity:1;fill-rule:nonzero;stroke:none"
         id="path120" /><path
         d="m 23600.2,8998.2 c -8.7,0 -17.5,2.2 -25.5,6.9 l -265.8,153.4 c -24.5,14.1 -32.8,45.4 -18.7,69.9 14.1,24.5 45.4,32.9 69.9,18.8 l 265.8,-153.5 c 24.5,-14.1 32.8,-45.4 18.7,-69.9 -9.5,-16.4 -26.7,-25.6 -44.4,-25.6"
         style="fill:#3e4651;fill-opacity:1;fill-rule:nonzero;stroke:none"
         id="path122" /><path
         d="m 24112.5,8921.5 c -28.3,0 -51.2,22.9 -51.2,51.2 v 306.8 c 0,28.3 22.9,51.2 51.2,51.2 28.2,0 51.2,-22.9 51.2,-51.2 v -306.8 c 0,-28.3 -23,-51.2 -51.2,-51.2"
         style="fill:#3e4651;fill-opacity:1;fill-rule:nonzero;stroke:none"
         id="path124" /><path
         d="m 23979.6,8998.2 c -17.7,0 -34.9,9.2 -44.4,25.6 -14.1,24.5 -5.7,55.8 18.8,69.9 l 265.7,153.5 c 24.5,14.1 55.8,5.7 70,-18.8 14.1,-24.5 5.7,-55.8 -18.8,-69.9 l -265.7,-153.4 c -8.1,-4.7 -16.9,-6.9 -25.6,-6.9"
         style="fill:#3e4651;fill-opacity:1;fill-rule:nonzero;stroke:none"
         id="path126" /><path
         d="m 24245.3,8998.2 c -8.7,0 -17.5,2.2 -25.6,6.9 l -265.7,153.4 c -24.5,14.1 -32.9,45.4 -18.8,69.9 14.2,24.5 45.4,32.9 70,18.8 l 265.7,-153.5 c 24.5,-14.1 32.9,-45.4 18.8,-69.9 -9.5,-16.4 -26.7,-25.6 -44.4,-25.6"
         style="fill:#3e4651;fill-opacity:1;fill-rule:nonzero;stroke:none"
         id="path128" /><path
         d="m 22720,7543.9 c -28.3,0 -51.2,22.9 -51.2,51.2 v 176.1 c 0,28.2 22.9,51.2 51.2,51.2 28.3,0 51.2,-23 51.2,-51.2 v -176.1 c 0,-28.3 -22.9,-51.2 -51.2,-51.2"
         style="fill:#3e4651;fill-opacity:1;fill-rule:nonzero;stroke:none"
         id="path130" /><path
         d="m 22933.6,7543.9 c -28.3,0 -51.2,22.9 -51.2,51.2 v 176.1 c 0,28.2 22.9,51.2 51.2,51.2 28.2,0 51.2,-23 51.2,-51.2 v -176.1 c 0,-28.3 -23,-51.2 -51.2,-51.2"
         style="fill:#3e4651;fill-opacity:1;fill-rule:nonzero;stroke:none"
         id="path132" /><path
         d="m 23147.1,7543.9 c -28.3,0 -51.2,22.9 -51.2,51.2 v 176.1 c 0,28.2 22.9,51.2 51.2,51.2 28.3,0 51.2,-23 51.2,-51.2 v -176.1 c 0,-28.3 -22.9,-51.2 -51.2,-51.2"
         style="fill:#3e4651;fill-opacity:1;fill-rule:nonzero;stroke:none"
         id="path134" /><path
         d="m 23360.6,7543.9 c -28.2,0 -51.2,22.9 -51.2,51.2 v 176.1 c 0,28.2 23,51.2 51.2,51.2 28.3,0 51.2,-23 51.2,-51.2 v -176.1 c 0,-28.3 -22.9,-51.2 -51.2,-51.2"
         style="fill:#3e4651;fill-opacity:1;fill-rule:nonzero;stroke:none"
         id="path136" /><path
         d="m 23574.2,7543.9 c -28.3,0 -51.2,22.9 -51.2,51.2 v 176.1 c 0,28.2 22.9,51.2 51.2,51.2 28.3,0 51.2,-23 51.2,-51.2 v -176.1 c 0,-28.3 -22.9,-51.2 -51.2,-51.2"
         style="fill:#3e4651;fill-opacity:1;fill-rule:nonzero;stroke:none"
         id="path138" /><path
         d="m 23787.7,7543.9 c -28.3,0 -51.2,22.9 -51.2,51.2 v 176.1 c 0,28.2 22.9,51.2 51.2,51.2 28.3,0 51.2,-23 51.2,-51.2 v -176.1 c 0,-28.3 -22.9,-51.2 -51.2,-51.2"
         style="fill:#3e4651;fill-opacity:1;fill-rule:nonzero;stroke:none"
         id="path140" /><path
         d="m 24001.3,7543.9 c -28.3,0 -51.2,22.9 -51.2,51.2 v 176.1 c 0,28.2 22.9,51.2 51.2,51.2 28.2,0 51.2,-23 51.2,-51.2 v -176.1 c 0,-28.3 -23,-51.2 -51.2,-51.2"
         style="fill:#3e4651;fill-opacity:1;fill-rule:nonzero;stroke:none"
         id="path142" /><path
         d="m 24214.8,7543.9 c -28.3,0 -51.2,22.9 -51.2,51.2 v 176.1 c 0,28.2 22.9,51.2 51.2,51.2 28.3,0 51.2,-23 51.2,-51.2 v -176.1 c 0,-28.3 -22.9,-51.2 -51.2,-51.2"
         style="fill:#3e4651;fill-opacity:1;fill-rule:nonzero;stroke:none"
         id="path144" /><path
         d="m 22992.9,8443 h -520.1 c -28.3,0 -51.2,23 -51.2,51.2 0,28.3 22.9,51.2 51.2,51.2 h 520.1 c 28.2,0 51.2,-22.9 51.2,-51.2 0,-28.2 -23,-51.2 -51.2,-51.2"
         style="fill:#3e4651;fill-opacity:1;fill-rule:nonzero;stroke:none"
         id="path146" /><path
         d="M 24462.1,8443 H 23942 c -28.3,0 -51.2,23 -51.2,51.2 0,28.3 22.9,51.2 51.2,51.2 h 520.1 c 28.2,0 51.2,-22.9 51.2,-51.2 0,-28.2 -23,-51.2 -51.2,-51.2"
         style="fill:#3e4651;fill-opacity:1;fill-rule:nonzero;stroke:none"
         id="path148" /><path
         d="m 23189.4,8636.7 c -28.3,0 -51.7,22.9 -51.7,51.2 0,28.2 22.5,51.2 50.8,51.2 h 0.9 c 28.3,0 51.2,-23 51.2,-51.2 0,-28.3 -22.9,-51.2 -51.2,-51.2"
         style="fill:#3e4651;fill-opacity:1;fill-rule:nonzero;stroke:none"
         id="path150" /><path
         d="m 23375,8636.7 c -28.2,0 -51.6,22.9 -51.6,51.2 0,28.2 22.5,51.2 50.8,51.2 h 0.8 c 28.3,0 51.2,-23 51.2,-51.2 0,-28.3 -22.9,-51.2 -51.2,-51.2"
         style="fill:#3e4651;fill-opacity:1;fill-rule:nonzero;stroke:none"
         id="path152" /><path
         d="m 23560.7,8636.7 c -28.3,0 -51.7,22.9 -51.7,51.2 0,28.2 22.5,51.2 50.8,51.2 h 0.9 c 28.2,0 51.2,-23 51.2,-51.2 0,-28.3 -23,-51.2 -51.2,-51.2"
         style="fill:#3e4651;fill-opacity:1;fill-rule:nonzero;stroke:none"
         id="path154" /><path
         d="m 23746.3,8636.7 c -28.3,0 -51.7,22.9 -51.7,51.2 0,28.2 22.5,51.2 50.8,51.2 h 0.9 c 28.3,0 51.2,-23 51.2,-51.2 0,-28.3 -22.9,-51.2 -51.2,-51.2"
         style="fill:#3e4651;fill-opacity:1;fill-rule:nonzero;stroke:none"
         id="path156" /><path
         d="m 17638.2,9544.4 c -105.3,0 -190.9,-85.6 -190.9,-190.9 v -214.1 c 0,-105.3 85.6,-190.9 190.9,-190.9 h 1431.3 c 105.3,0 190.9,85.6 190.9,190.9 v 214.1 c 0,105.3 -85.6,190.9 -190.9,190.9 z m 1431.3,-698.3 h -1431.3 c -161.7,0 -293.3,131.6 -293.3,293.3 v 214.1 c 0,161.8 131.6,293.3 293.3,293.3 h 1431.3 c 161.8,0 293.3,-131.5 293.3,-293.3 v -214.1 c 0,-161.7 -131.5,-293.3 -293.3,-293.3"
         style="fill:#3e4651;fill-opacity:1;fill-rule:nonzero;stroke:none"
         id="path158" /><path
         d="m 18212.8,8036.9 v -613.4 c 0,-16.2 13.2,-29.5 29.4,-29.5 h 198.4 c 16.3,0 29.5,13.3 29.5,29.5 v 613.4 z m 227.8,-745.3 h -198.4 c -72.7,0 -131.8,59.2 -131.8,131.9 v 664.6 c 0,28.3 22.9,51.2 51.2,51.2 h 359.7 c 28.3,0 51.2,-22.9 51.2,-51.2 v -664.6 c 0,-72.7 -59.1,-131.9 -131.9,-131.9"
         style="fill:#3e4651;fill-opacity:1;fill-rule:nonzero;stroke:none"
         id="path160" /><path
         d="m 18155.1,8259.5 c -32.9,0 -59.8,-26.9 -59.8,-59.9 0,-32.9 26.9,-59.7 59.8,-59.7 h 372.6 c 33,0 59.8,26.8 59.8,59.7 0,33 -26.8,59.9 -59.8,59.9 z m 372.6,-222 h -372.6 c -89.4,0 -162.2,72.7 -162.2,162.1 0,89.5 72.8,162.3 162.2,162.3 h 372.6 c 89.5,0 162.2,-72.8 162.2,-162.3 0,-89.4 -72.7,-162.1 -162.2,-162.1"
         style="fill:#3e4651;fill-opacity:1;fill-rule:nonzero;stroke:none"
         id="path162" /><path
         d="m 18341.4,8312.4 c -28.2,0 -51.2,22.9 -51.2,51.2 v 69.6 c 0,101.1 80,187.2 186,200.5 l 777.5,100.5 c 117,14.5 205.1,106.5 205.1,213.8 v 165.9 c 0,44.9 -41.2,81.4 -91.8,81.4 -28.3,0 -51.2,22.9 -51.2,51.2 0,28.3 22.9,51.2 51.2,51.2 107.1,0 194.2,-82.5 194.2,-183.8 V 8948 c 0,-158.8 -126.6,-294.5 -294.5,-315.4 l -777.5,-100.5 c -55.2,-6.9 -96.6,-49.4 -96.6,-98.9 v -69.6 c 0,-28.3 -22.9,-51.2 -51.2,-51.2"
         style="fill:#3e4651;fill-opacity:1;fill-rule:nonzero;stroke:none"
         id="path164" /><path
         d="m 18176,9377.3 h -567.3 c -28.3,0 -51.2,22.9 -51.2,51.2 0,28.2 22.9,51.2 51.2,51.2 h 567.3 c 28.3,0 51.2,-23 51.2,-51.2 0,-28.3 -22.9,-51.2 -51.2,-51.2"
         style="fill:#3e4651;fill-opacity:1;fill-rule:nonzero;stroke:none"
         id="path166" /><path
         d="m 19282,9013.3 h -939.8 c -28.3,0 -51.2,22.9 -51.2,51.2 0,28.3 22.9,51.2 51.2,51.2 h 939.8 c 28.3,0 51.2,-22.9 51.2,-51.2 0,-28.3 -22.9,-51.2 -51.2,-51.2"
         style="fill:#3e4651;fill-opacity:1;fill-rule:nonzero;stroke:none"
         id="path168" /><path
         d="m 18389.7,10719.9 c -1085.7,0 -1969,-883.3 -1969,-1969.1 0,-1085.7 883.3,-1969 1969,-1969 1085.7,0 1969,883.3 1969,1969 0,1085.8 -883.3,1969.1 -1969,1969.1 z m 0,-4040.5 c -1142.2,0 -2071.4,929.2 -2071.4,2071.4 0,1142.2 929.2,2071.5 2071.4,2071.5 1142.2,0 2071.4,-929.3 2071.4,-2071.5 0,-1142.2 -929.2,-2071.4 -2071.4,-2071.4"
         style="fill:#3e4651;fill-opacity:1;fill-rule:nonzero;stroke:none"
         id="path170" /><path
         d="m 13312,10719.9 c -1085.7,0 -1969,-883.3 -1969,-1969.1 0,-1085.7 883.3,-1969 1969,-1969 1085.7,0 1969,883.3 1969,1969 0,1085.8 -883.3,1969.1 -1969,1969.1 z m 0,-4040.5 c -1142.2,0 -2071.4,929.2 -2071.4,2071.4 0,1142.2 929.2,2071.5 2071.4,2071.5 1142.2,0 2071.4,-929.3 2071.4,-2071.5 0,-1142.2 -929.2,-2071.4 -2071.4,-2071.4"
         style="fill:#3e4651;fill-opacity:1;fill-rule:nonzero;stroke:none"
         id="path172" /><path
         d="m 12480,9762 c -28.2,0 -51.2,-22.9 -51.2,-51.2 v -1920 c 0,-28.2 23,-51.2 51.2,-51.2 h 1664 c 28.2,0 51.2,23 51.2,51.2 v 1920 c 0,28.3 -23,51.2 -51.2,51.2 z m 1664,-2124.8 h -1664 c -84.7,0 -153.6,68.9 -153.6,153.6 v 1920 c 0,84.7 68.9,153.6 153.6,153.6 h 1664 c 84.7,0 153.6,-68.9 153.6,-153.6 v -1920 c 0,-84.7 -68.9,-153.6 -153.6,-153.6"
         style="fill:#3e4651;fill-opacity:1;fill-rule:nonzero;stroke:none"
         id="path174" /><path
         d="m 13312,9079.4 c -291.2,0 -528,-236.9 -528,-528 0,-291.2 236.8,-528 528,-528 291.1,0 528,236.8 528,528 0,291.1 -236.9,528 -528,528 z m 0,-1158.4 c -347.6,0 -630.4,282.8 -630.4,630.4 0,347.6 282.8,630.4 630.4,630.4 347.6,0 630.4,-282.8 630.4,-630.4 0,-347.6 -282.8,-630.4 -630.4,-630.4"
         style="fill:#3e4651;fill-opacity:1;fill-rule:nonzero;stroke:none"
         id="path176" /><path
         d="m 13312,8874.6 c -178.2,0 -323.2,-145 -323.2,-323.2 0,-178.2 145,-323.2 323.2,-323.2 178.2,0 323.2,145 323.2,323.2 0,178.2 -145,323.2 -323.2,323.2 z m 0,-748.8 c -234.7,0 -425.6,190.9 -425.6,425.6 0,234.6 190.9,425.6 425.6,425.6 234.7,0 425.6,-191 425.6,-425.6 0,-234.7 -190.9,-425.6 -425.6,-425.6"
         style="fill:#3e4651;fill-opacity:1;fill-rule:nonzero;stroke:none"
         id="path178" /><path
         d="m 13296.5,9596.2 c -45,0 -81.6,-36.6 -81.6,-81.6 0,-45 36.6,-81.6 81.6,-81.6 45,0 81.6,36.6 81.6,81.6 0,45 -36.6,81.6 -81.6,81.6 z m 0,-265.6 c -101.4,0 -184,82.5 -184,184 0,101.4 82.6,184 184,184 101.5,0 184,-82.6 184,-184 0,-101.5 -82.5,-184 -184,-184"
         style="fill:#3e4651;fill-opacity:1;fill-rule:nonzero;stroke:none"
         id="path180" /><path
         d="m 12773.3,9279.4 h -377.6 c -28.2,0 -51.2,22.9 -51.2,51.2 0,28.2 23,51.2 51.2,51.2 h 377.6 c 70.6,0 128,57.4 128,128 v 246.4 c 0,28.2 23,51.2 51.2,51.2 28.3,0 51.2,-23 51.2,-51.2 v -246.4 c 0,-127.1 -103.3,-230.4 -230.4,-230.4"
         style="fill:#3e4651;fill-opacity:1;fill-rule:nonzero;stroke:none"
         id="path182" /><path
         d="m 13645.9,9431.8 c -28.3,0 -51.2,22.9 -51.2,51.2 v 63.2 c 0,28.3 22.9,51.2 51.2,51.2 28.2,0 51.2,-22.9 51.2,-51.2 V 9483 c 0,-28.3 -23,-51.2 -51.2,-51.2"
         style="fill:#3e4651;fill-opacity:1;fill-rule:nonzero;stroke:none"
         id="path184" /><path
         d="m 13837.9,9431.8 c -28.3,0 -51.2,22.9 -51.2,51.2 v 63.2 c 0,28.3 22.9,51.2 51.2,51.2 28.2,0 51.2,-22.9 51.2,-51.2 V 9483 c 0,-28.3 -23,-51.2 -51.2,-51.2"
         style="fill:#3e4651;fill-opacity:1;fill-rule:nonzero;stroke:none"
         id="path186" /><path
         d="m 14029.9,9431.8 c -28.3,0 -51.2,22.9 -51.2,51.2 v 63.2 c 0,28.3 22.9,51.2 51.2,51.2 28.2,0 51.2,-22.9 51.2,-51.2 V 9483 c 0,-28.3 -23,-51.2 -51.2,-51.2"
         style="fill:#3e4651;fill-opacity:1;fill-rule:nonzero;stroke:none"
         id="path188" /><path
         d="m 8234.29,10719.9 c -1085.73,0 -1969.02,-883.3 -1969.02,-1969.1 0,-1085.7 883.29,-1969 1969.02,-1969 1085.72,0 1969.01,883.3 1969.01,1969 0,1085.8 -883.29,1969.1 -1969.01,1969.1 z m 0,-4040.5 c -1142.2,0 -2071.42,929.2 -2071.42,2071.4 0,1142.2 929.22,2071.5 2071.42,2071.5 1142.2,0 2071.41,-929.3 2071.41,-2071.5 0,-1142.2 -929.21,-2071.4 -2071.41,-2071.4"
         style="fill:#3e4651;fill-opacity:1;fill-rule:nonzero;stroke:none"
         id="path190" /><path
         d="m 7572.16,8205.4 c -23.22,0 -44.69,-11.3 -57.44,-30.4 l -41.43,-61.8 c -21.1,-31.5 -12.6,-74.3 18.9,-95.4 30.45,-20.4 75.2,-11.4 95.42,18.8 l 41.43,61.9 c 10.15,15.2 13.75,33.5 10.17,51.6 -3.6,18.1 -13.92,33.7 -29.07,43.9 -11.25,7.5 -24.37,11.4 -37.98,11.4 z m -42,-301.5 v 0 c -33.92,0 -66.75,9.9 -94.92,28.8 -78.42,52.5 -99.55,159 -47.05,237.4 l 41.43,61.9 c 31.77,47.5 85.07,75.9 142.54,75.9 33.93,0 66.76,-10 94.93,-28.8 37.9,-25.4 63.67,-64.1 72.57,-109.1 8.91,-44.9 -0.17,-90.5 -25.52,-128.4 l -41.43,-61.9 c -31.77,-47.5 -85.07,-75.8 -142.55,-75.8"
         style="fill:#3e4651;fill-opacity:1;fill-rule:nonzero;stroke:none"
         id="path192" /><path
         d="m 9016.49,8270.6 c -13.28,0 -26.05,5.1 -35.63,14.4 l -512.62,496.5 c -63.32,61.3 -162.33,70 -235.33,20.7 l -203.27,-137.4 c -38.05,-25.5 -83.57,-34.7 -128.57,-25.8 -49.28,9.6 -90.33,39.1 -115.51,82.8 -44.6,77.5 -18.92,178.8 58.45,230.7 l 464.48,313.1 c 56.9,38.2 123,60.6 191.3,64.9 l 353.58,24 c 28.67,1.5 52.52,-19.8 54.22,-48 1.73,-28.2 -19.75,-52.5 -47.97,-54.2 l -353.15,-24 c -50.46,-3.2 -99.06,-19.7 -140.83,-47.7 l -464.48,-313.1 c -32.4,-21.7 -44.4,-64.1 -26.85,-94.6 10.18,-17.7 26.71,-29.6 46.53,-33.4 12.77,-2.6 32.08,-2.8 51.57,10.3 l 203.15,137.2 c 112.93,76.3 265.98,62.9 363.93,-31.9 l 475.35,-460.4 249.7,264.8 c 3.35,4 7.97,8.7 11.45,11.1 23.3,16.1 55.37,10.4 71.4,-12.8 13.87,-20 11.63,-46.4 -4.13,-63.6 -1.2,-1.5 -2.47,-3.1 -3.12,-3.8 l -286.4,-303.8 c -9.4,-9.9 -22.4,-15.7 -36.07,-16 -0.4,0 -0.81,0 -1.18,0"
         style="fill:#3e4651;fill-opacity:1;fill-rule:nonzero;stroke:none"
         id="path194" /><path
         d="m 7792.99,8102 c -23.25,0 -44.73,-11.4 -57.47,-30.4 l -79.71,-119.1 c -10.14,-15.2 -13.77,-33.5 -10.17,-51.6 3.57,-18.1 13.9,-33.7 29.05,-43.8 30.55,-20.4 75.27,-11.4 95.45,18.8 l 79.7,119.1 c 21.1,31.6 12.63,74.4 -18.9,95.5 -11.23,7.5 -24.37,11.5 -37.95,11.5 z m -80.32,-358.9 v 0 c -33.93,0 -66.75,10 -94.93,28.8 -37.9,25.4 -63.65,64.1 -72.55,109.1 -8.9,44.9 0.15,90.6 25.52,128.5 l 79.71,119 c 31.8,47.5 85.1,75.9 142.57,75.9 33.92,0 66.75,-10 94.9,-28.8 37.9,-25.4 63.67,-64.1 72.57,-109.1 8.91,-44.9 -0.15,-90.5 -25.52,-128.4 l -79.7,-119.1 c -31.8,-47.5 -85.1,-75.9 -142.57,-75.9"
         style="fill:#3e4651;fill-opacity:1;fill-rule:nonzero;stroke:none"
         id="path196" /><path
         d="m 7999.89,7979.7 c -23.23,0 -44.7,-11.4 -57.45,-30.4 l -87.2,-130.3 c -10.15,-15.2 -13.78,-33.5 -10.18,-51.6 3.58,-18.1 13.9,-33.7 29.05,-43.8 30.56,-20.5 75.28,-11.3 95.46,18.9 l 87.2,130.2 c 10.14,15.2 13.77,33.5 10.17,51.7 -3.58,18.1 -13.9,33.6 -29.08,43.8 -11.25,7.5 -24.37,11.5 -37.97,11.5 z m -87.77,-370 c -0.03,0 -0.03,0 -0.03,0 -33.95,0 -66.78,9.9 -94.93,28.8 -37.89,25.3 -63.65,64 -72.55,109 -8.89,45 0.15,90.6 25.53,128.4 l 87.2,130.4 c 31.8,47.4 85.08,75.8 142.55,75.8 33.95,0 66.77,-10 94.95,-28.8 37.88,-25.4 63.65,-64.1 72.55,-109.1 8.9,-44.9 -0.15,-90.5 -25.52,-128.4 l -87.2,-130.3 c -31.83,-47.5 -85.1,-75.8 -142.55,-75.8"
         style="fill:#3e4651;fill-opacity:1;fill-rule:nonzero;stroke:none"
         id="path198" /><path
         d="m 8215.49,7864.7 c -23.25,0 -44.73,-11.4 -57.48,-30.4 l -63.42,-94.7 c -10.15,-15.2 -13.75,-33.5 -10.18,-51.6 3.6,-18.2 13.93,-33.7 29.08,-43.9 30.42,-20.4 75.22,-11.3 95.43,18.9 l 63.42,94.8 c 10.15,15.1 13.75,33.5 10.18,51.6 -3.6,18.1 -13.93,33.6 -29.08,43.8 -11.25,7.5 -24.38,11.5 -37.95,11.5 z m -64.03,-334.5 v 0 c -33.92,0 -66.74,10 -94.92,28.8 -37.9,25.4 -63.68,64.1 -72.58,109 -8.89,45 0.18,90.6 25.53,128.5 l 63.42,94.8 c 31.8,47.4 85.1,75.8 142.58,75.8 33.93,0 66.75,-9.9 94.9,-28.8 78.42,-52.5 99.55,-159 47.05,-237.5 l -63.42,-94.7 c -31.78,-47.5 -85.08,-75.9 -142.56,-75.9"
         style="fill:#3e4651;fill-opacity:1;fill-rule:nonzero;stroke:none"
         id="path200" /><path
         d="m 9305.51,8577.5 c -16.4,0 -32.49,7.9 -42.42,22.5 -15.87,23.4 -9.78,55.2 13.62,71.1 l 282.83,191.9 c -14.4,59.9 -55.78,198.7 -156,348 -96.73,144.2 -191.48,213.4 -234.05,239.6 l -269.9,-181.2 c -23.53,-15.7 -55.28,-9.4 -71.05,14 -15.75,23.5 -9.47,55.3 14,71.1 l 295.72,198.5 c 14.5,9.7 32.96,11.3 48.98,4.4 6.18,-2.7 153.2,-68.6 301.35,-289.3 146.15,-217.8 177.45,-412.1 178.7,-420.3 3.02,-19.5 -5.48,-39.1 -21.85,-50.2 l -311.22,-211.3 c -8.81,-5.9 -18.8,-8.8 -28.71,-8.8"
         style="fill:#3e4651;fill-opacity:1;fill-rule:nonzero;stroke:none"
         id="path202" /><path
         d="m 9305.36,8577.5 c -16.25,0 -32.25,7.6 -42.14,22 -5.15,7.4 -8.1,15.7 -8.93,24.1 l -1.72,8.8 c -8.83,42.9 -47.26,199.6 -162.51,371.3 -114.42,170.5 -223.24,236.4 -253.87,252.6 -2.58,1.4 -8.6,4.8 -10.92,6.5 -22.4,17.3 -26.61,49.4 -9.36,71.8 16.43,21.4 46.28,26.2 68.41,11.8 45.17,-24.4 167.77,-102.4 290.8,-285.6 125.62,-187.3 167.97,-360.3 177.97,-408.9 l 2.37,-12.2 c 4.21,-20.1 -3.94,-41.4 -20.85,-53.1 -8.92,-6.2 -19.14,-9.1 -29.25,-9.1"
         style="fill:#3e4651;fill-opacity:1;fill-rule:nonzero;stroke:none"
         id="path204" /><path
         d="m 8973.19,8025.5 c -42.7,0 -85.45,15.8 -118.58,47.6 l -317.1,300 c -20.52,19.5 -21.42,51.9 -1.99,72.4 19.49,20.5 51.89,21.4 72.39,2 l 317.38,-300.2 c 13.43,-13 30.62,-20.1 49.3,-19.4 18.48,0.4 35.6,7.9 48.23,21 12.64,13.1 19.4,30.6 19.04,49 -0.37,18.5 -7.82,35.6 -20.97,48.2 l -77.25,75 c -20.3,19.7 -20.8,52.1 -1.1,72.4 19.7,20.3 52.1,20.8 72.4,1.1 l 77.07,-74.8 c 32.71,-31.4 51.33,-74 52.23,-119.8 0.9,-45.9 -16,-89.2 -47.58,-122 -33.57,-35 -78.5,-52.5 -123.47,-52.5"
         style="fill:#3e4651;fill-opacity:1;fill-rule:nonzero;stroke:none"
         id="path206" /><path
         d="m 8251.74,9114.7 c -9.8,0 -19.7,2.8 -28.45,8.7 l -85.65,57.4 c -41.77,27.8 -90.35,44.3 -140.4,47.4 l -382.47,24 c -28.23,2 -49.48,26.5 -47.51,54.7 1.98,28.2 26.9,49.1 54.65,47.5 l 13.18,-0.9 368.58,-23.1 c 68.05,-4.3 134.02,-26.6 190.87,-64.5 l 85.75,-57.5 c 23.5,-15.7 29.78,-47.5 14.02,-71 -9.87,-14.7 -26.07,-22.7 -42.57,-22.7"
         style="fill:#3e4651;fill-opacity:1;fill-rule:nonzero;stroke:none"
         id="path208" /><path
         d="m 7476.77,8172 c -15.51,0 -30.78,7 -40.86,20.3 l -304.99,402.4 c -6.76,8.9 -12.75,22.6 -12.75,33.8 0,28.2 22.92,51.4 51.2,51.4 17.79,0 33.47,-9 42.65,-22.7 0.24,-0.3 0.42,-0.5 0.49,-0.6 l 305.01,-402.4 c 17.07,-22.6 12.64,-54.7 -9.88,-71.8 -9.25,-7 -20.13,-10.4 -30.87,-10.4"
         style="fill:#3e4651;fill-opacity:1;fill-rule:nonzero;stroke:none"
         id="path210" /><path
         d="m 8827.39,7829.3 c -42.7,0 -85.45,15.8 -118.58,47.7 l -224.74,215.2 c -20.4,19.6 -21.1,52 -1.56,72.4 19.58,20.5 52,21.1 72.41,1.6 l 224.79,-215.3 c 27.41,-26.3 71.03,-25.5 97.3,1.8 26.31,27.4 25.43,71 -1.92,97.3 l -357.85,342.7 c -20.43,19.6 -21.13,52 -1.57,72.4 19.57,20.3 52.05,21.1 72.37,1.6 l 357.93,-342.8 c 68.12,-65.5 70.29,-174.1 4.9,-242.1 -33.58,-34.9 -78.5,-52.5 -123.48,-52.5"
         style="fill:#3e4651;fill-opacity:1;fill-rule:nonzero;stroke:none"
         id="path212" /><path
         d="m 8643.84,7672.9 c -42.7,0 -85.45,15.7 -118.6,47.6 l -65.1,65.4 c -19.95,20 -19.9,52.4 0.15,72.4 20.07,19.9 52.47,19.8 72.4,-0.2 l 64.3,-64.5 c 26.55,-25.5 70.22,-24.6 96.47,2.7 12.65,13.1 19.4,30.5 19.03,49 -0.35,18.5 -7.8,35.6 -20.98,48.2 -20.37,19.6 -21.05,52 -1.45,72.4 19.58,20.4 52.03,21 72.41,1.5 32.87,-31.6 51.49,-74.2 52.39,-120 0.93,-45.9 -15.97,-89.2 -47.55,-122.1 -33.57,-34.9 -78.5,-52.4 -123.47,-52.4"
         style="fill:#3e4651;fill-opacity:1;fill-rule:nonzero;stroke:none"
         id="path214" /><path
         d="m 8446.61,7530.2 c -44.1,0 -86.24,16.8 -118.35,47.7 l -69.12,76.1 c -18.98,21 -17.37,53.3 3.57,72.3 20.95,19 53.31,17.4 72.33,-3.5 l 66.7,-73.6 c 12.63,-12.1 33.37,-18.9 54.55,-16 15.37,2.1 29.35,9.2 40.35,20.5 12.47,13 19.23,30.3 18.85,48.8 -0.35,18.5 -7.75,35.6 -20.85,48.1 -20.4,19.6 -21.1,52 -1.55,72.4 19.58,20.4 52.03,21.1 72.4,1.6 32.87,-31.5 51.5,-74.2 52.38,-120.1 0.89,-45.9 -16.03,-89.2 -47.68,-122 -26.88,-27.7 -62.45,-45.7 -100.28,-50.7 -7.79,-1.1 -15.57,-1.6 -23.3,-1.6"
         style="fill:#3e4651;fill-opacity:1;fill-rule:nonzero;stroke:none"
         id="path216" /><path
         d="m 7145.81,8595.7 c -9.79,0 -19.72,2.8 -28.47,8.7 l -293.98,197.3 c -16.49,11.1 -25.1,30.7 -22.07,50.4 1.25,8 32.37,201.3 177.7,417.9 147.3,219.5 293.52,284.9 299.67,287.6 16.03,7 34.43,5.4 48.98,-4.4 L 7621.62,9356 c 23.47,-15.8 29.74,-47.6 13.99,-71.1 -15.74,-23.5 -47.54,-29.8 -71.05,-14 l -268.15,179.9 c -42.22,-25.9 -136.29,-94.7 -232.37,-237.9 -99.38,-148 -140.55,-285.7 -154.95,-345.4 l 265.3,-178 c 23.47,-15.8 29.75,-47.6 14,-71.1 -9.9,-14.7 -26.07,-22.7 -42.58,-22.7"
         style="fill:#3e4651;fill-opacity:1;fill-rule:nonzero;stroke:none"
         id="path218" /><path
         d="m 7169.29,8577.3 c -10,0 -20.08,3 -28.95,9.1 l -0.33,0.2 c -17.07,11.9 -25.29,32.8 -20.84,53.1 l 2.17,11.1 c 10.23,49.7 52.57,222.7 178.2,410 127.88,190.5 255.2,267.1 291.17,286.1 22.45,17.2 52.7,11.5 69.93,-10.8 17.22,-22.5 11.15,-56 -11.25,-73.3 -3.47,-2.7 -10.6,-6.6 -14.65,-8.3 -26.9,-14.3 -135.68,-80.2 -250.15,-250.8 -115.25,-171.7 -153.68,-328.4 -162.73,-372.4 -0.67,-3.8 -1.29,-6.9 -1.79,-9.3 -1,-7.9 -3.85,-15.6 -8.66,-22.5 -9.95,-14.4 -25.89,-22.2 -42.12,-22.2"
         style="fill:#3e4651;fill-opacity:1;fill-rule:nonzero;stroke:none"
         id="path220" /><path
         d="m 3156.59,10719.9 c -1085.72,0 -1969.03,-883.3 -1969.03,-1969.1 0,-1085.7 883.31,-1969 1969.03,-1969 1085.72,0 1969.03,883.3 1969.03,1969 0,1085.8 -883.31,1969.1 -1969.03,1969.1 z m 0,-4040.5 c -1142.2,0 -2071.43,929.2 -2071.43,2071.4 0,1142.2 929.23,2071.5 2071.43,2071.5 1142.2,0 2071.43,-929.3 2071.43,-2071.5 0,-1142.2 -929.23,-2071.4 -2071.43,-2071.4"
         style="fill:#3e4651;fill-opacity:1;fill-rule:nonzero;stroke:none"
         id="path222" /><path
         d="m 2464.89,7591.7 39.4,-35.4 504.2,319.6 c 17.75,11.2 40.55,10.5 57.52,-1.8 149.3,-108.5 346.51,-114.8 502.35,-15.9 208.38,132.1 270.46,409.1 138.36,617.5 -132.13,208.5 -409.18,270.5 -617.53,138.4 -155.62,-98.6 -234.07,-279.5 -199.85,-460.6 3.9,-20.6 -5.18,-41.5 -22.9,-52.7 l -608.95,-386.1 24.33,-117.8 350.49,222.2 c 23.85,15.1 55.51,8 70.66,-15.9 15.12,-23.9 8.04,-55.5 -15.86,-70.6 z m 34.05,-150.6 c -12.33,0 -24.58,4.4 -34.22,13.1 l -89.65,80.6 -101.01,-64 c -14.19,-9.1 -31.89,-10.5 -47.4,-3.9 -15.47,6.5 -26.74,20.3 -30.14,36.8 l -46.48,225 c -4.3,20.8 4.75,42.2 22.72,53.6 l 610.5,387 c -26.29,210.7 69.78,416.4 251.1,531.3 256.03,162.4 596.5,86 758.85,-170.1 162.33,-256 86.06,-596.5 -170.02,-758.8 -181.67,-115.1 -408.82,-114.2 -588.25,-0.3 L 2526.37,7449 c -8.43,-5.3 -17.95,-7.9 -27.43,-7.9"
         style="fill:#3e4651;fill-opacity:1;fill-rule:nonzero;stroke:none"
         id="path224" /><path
         d="m 3496.06,8421.8 c -15,0 -29.7,-4.3 -42.47,-12.4 -37,-23.5 -48.03,-72.7 -24.55,-109.7 22.7,-35.8 73.6,-47.6 109.72,-24.6 37.03,23.5 48.06,72.7 24.58,109.8 -14.65,23.1 -39.8,36.9 -67.28,36.9 z m 0.26,-261.5 c -62.73,0 -120.23,31.6 -153.78,84.6 -53.68,84.7 -28.48,197.3 56.22,251 29.2,18.5 62.86,28.3 97.3,28.3 62.75,0 120.23,-31.6 153.78,-84.6 53.7,-84.7 28.48,-197.3 -56.28,-251 -29.17,-18.5 -62.82,-28.3 -97.24,-28.3"
         style="fill:#3e4651;fill-opacity:1;fill-rule:nonzero;stroke:none"
         id="path226" /><path
         d="m 3541.94,8311.4 c -27.58,0 -50.33,22 -51.15,49.7 -0.85,28.3 21.38,51.9 49.62,52.7 296.3,9 530.08,257.3 521.13,553.6 -4.88,161 -80.72,309.9 -208.1,408.8 -22.35,17.3 -26.4,49.4 -9.08,71.8 17.33,22.4 49.5,26.4 71.83,9.1 151.62,-117.6 241.9,-295 247.7,-486.6 5.17,-170.8 -56.52,-333.5 -173.7,-458 -117.18,-124.5 -275.8,-195.8 -446.67,-201 -0.53,-0.1 -1.05,-0.1 -1.58,-0.1"
         style="fill:#3e4651;fill-opacity:1;fill-rule:nonzero;stroke:none"
         id="path228" /><path
         d="m 3358.01,8709.7 c -20.59,0 -39.67,12.3 -47.67,31.3 -30.72,72.9 -47.23,150.4 -49.02,230.4 -0.65,28.3 21.75,51.7 50.02,52.4 26.13,1.6 51.68,-21.8 52.33,-50 1.5,-65.7 14.75,-129.3 39.42,-189.1 3.75,-7.2 5.87,-15.2 5.87,-23.8 0,-28.2 -22.67,-51.2 -50.95,-51.2"
         style="fill:#3e4651;fill-opacity:1;fill-rule:nonzero;stroke:none"
         id="path230" /><path
         d="M 2675.11,9853.6 V 9026 l 1144.48,47.8 232.73,366 -232.73,366 z m -51.2,-932.2 c -13.17,0 -25.87,5.1 -35.44,14.2 -10.05,9.7 -15.76,23 -15.76,37 V 9907 c 0,14 5.71,27.3 15.76,37 10.04,9.6 23.37,14.8 37.59,14.1 l 1224.53,-51.2 c 16.73,-0.7 32.08,-9.5 41.05,-23.6 l 264.55,-416 c 10.68,-16.8 10.68,-38.2 0,-55 l -264.55,-416 c -8.97,-14.1 -24.32,-23 -41.05,-23.6 l -1224.53,-51.2 c -0.72,-0.1 -1.45,-0.1 -2.15,-0.1"
         style="fill:#3e4651;fill-opacity:1;fill-rule:nonzero;stroke:none"
         id="path232" /><path
         d="m 23467.4,16053.4 c -1085.7,0 -1969,-883.3 -1969,-1969 0,-1085.8 883.3,-1969.1 1969,-1969.1 1085.7,0 1969,883.3 1969,1969.1 0,1085.7 -883.3,1969 -1969,1969 z m 0,-4040.5 c -1142.2,0 -2071.4,929.3 -2071.4,2071.5 0,1142.2 929.2,2071.4 2071.4,2071.4 1142.2,0 2071.4,-929.2 2071.4,-2071.4 0,-1142.2 -929.2,-2071.5 -2071.4,-2071.5"
         style="fill:#3e4651;fill-opacity:1;fill-rule:nonzero;stroke:none"
         id="path234" /><path
         d="m 22462.4,14158.6 c -81,0 -147,-65.9 -147,-147 v -173.9 c 0,-81.1 66,-147.1 147,-147.1 h 2010 c 81.1,0 147,66 147,147.1 v 173.9 c 0,81.1 -65.9,147 -147,147 z m 2010,-570.4 h -2010 c -137.5,0 -249.4,111.9 -249.4,249.5 v 173.9 c 0,137.5 111.9,249.4 249.4,249.4 h 2010 c 137.5,0 249.4,-111.9 249.4,-249.4 v -173.9 c 0,-137.6 -111.9,-249.5 -249.4,-249.5"
         style="fill:#3e4651;fill-opacity:1;fill-rule:nonzero;stroke:none"
         id="path236" /><path
         d="m 22537.7,14261 h 1859.4 v 269.4 c 0,180.7 -146.9,327.7 -327.6,327.7 h -1204.2 c -180.7,0 -327.6,-147 -327.6,-327.7 z m 1910.6,-102.4 h -1961.8 c -28.3,0 -51.2,22.9 -51.2,51.2 v 320.6 c 0,237.2 192.9,430 430,430 h 1204.2 c 237.1,0 430,-192.8 430,-430 v -320.6 c 0,-28.3 -22.9,-51.2 -51.2,-51.2"
         style="fill:#3e4651;fill-opacity:1;fill-rule:nonzero;stroke:none"
         id="path238" /><path
         d="m 24472.5,13327.3 h -2010.2 c -28.3,0 -51.2,22.9 -51.2,51.2 v 260.9 c 0,28.3 22.9,51.2 51.2,51.2 28.3,0 51.2,-22.9 51.2,-51.2 v -209.7 h 1907.8 v 209.7 c 0,28.3 22.9,51.2 51.2,51.2 28.3,0 51.2,-22.9 51.2,-51.2 v -260.9 c 0,-28.3 -22.9,-51.2 -51.2,-51.2"
         style="fill:#3e4651;fill-opacity:1;fill-rule:nonzero;stroke:none"
         id="path240" /><path
         d="m 22865.8,13105.8 h -217.4 c -28.3,0 -51.2,23 -51.2,51.2 v 188.8 c 0,28.3 22.9,51.2 51.2,51.2 28.2,0 51.2,-22.9 51.2,-51.2 v -137.6 h 115 v 137.6 c 0,28.3 22.9,51.2 51.2,51.2 28.3,0 51.2,-22.9 51.2,-51.2 V 13157 c 0,-28.2 -22.9,-51.2 -51.2,-51.2"
         style="fill:#3e4651;fill-opacity:1;fill-rule:nonzero;stroke:none"
         id="path242" /><path
         d="M 24286.5,13105.8 H 24069 c -28.3,0 -51.2,23 -51.2,51.2 v 188.8 c 0,28.3 22.9,51.2 51.2,51.2 28.3,0 51.2,-22.9 51.2,-51.2 v -137.6 h 115.1 v 137.6 c 0,28.3 22.9,51.2 51.2,51.2 28.2,0 51.2,-22.9 51.2,-51.2 V 13157 c 0,-28.2 -23,-51.2 -51.2,-51.2"
         style="fill:#3e4651;fill-opacity:1;fill-rule:nonzero;stroke:none"
         id="path244" /><path
         d="m 24416.2,14508.3 h -1899 c -28.3,0 -51.2,23 -51.2,51.2 0,28.3 22.9,51.2 51.2,51.2 h 1899 c 28.3,0 51.2,-22.9 51.2,-51.2 0,-28.2 -22.9,-51.2 -51.2,-51.2"
         style="fill:#3e4651;fill-opacity:1;fill-rule:nonzero;stroke:none"
         id="path246" /><path
         d="m 22811.4,14204.3 c -28.2,0 -51.2,22.9 -51.2,51.1 v 271.9 c 0,28.2 23,51.1 51.2,51.1 28.3,0 51.2,-22.9 51.2,-51.1 v -271.9 c 0,-28.2 -22.9,-51.1 -51.2,-51.1"
         style="fill:#3e4651;fill-opacity:1;fill-rule:nonzero;stroke:none"
         id="path248" /><path
         d="m 23139.4,14204.3 c -28.3,0 -51.2,22.9 -51.2,51.1 v 271.9 c 0,28.2 22.9,51.1 51.2,51.1 28.3,0 51.2,-22.9 51.2,-51.1 v -271.9 c 0,-28.2 -22.9,-51.1 -51.2,-51.1"
         style="fill:#3e4651;fill-opacity:1;fill-rule:nonzero;stroke:none"
         id="path250" /><path
         d="m 23467.4,14204.3 c -28.3,0 -51.2,22.9 -51.2,51.1 v 271.9 c 0,28.2 22.9,51.1 51.2,51.1 28.3,0 51.2,-22.9 51.2,-51.1 v -271.9 c 0,-28.2 -22.9,-51.1 -51.2,-51.1"
         style="fill:#3e4651;fill-opacity:1;fill-rule:nonzero;stroke:none"
         id="path252" /><path
         d="m 23795.4,14204.3 c -28.3,0 -51.2,22.9 -51.2,51.1 v 271.9 c 0,28.2 22.9,51.1 51.2,51.1 28.3,0 51.2,-22.9 51.2,-51.1 v -271.9 c 0,-28.2 -22.9,-51.1 -51.2,-51.1"
         style="fill:#3e4651;fill-opacity:1;fill-rule:nonzero;stroke:none"
         id="path254" /><path
         d="m 24123.4,14204.3 c -28.3,0 -51.2,22.9 -51.2,51.1 v 271.9 c 0,28.2 22.9,51.1 51.2,51.1 28.2,0 51.2,-22.9 51.2,-51.1 v -271.9 c 0,-28.2 -23,-51.1 -51.2,-51.1"
         style="fill:#3e4651;fill-opacity:1;fill-rule:nonzero;stroke:none"
         id="path256" /><path
         d="m 18389.7,16053.4 c -1085.7,0 -1969,-883.3 -1969,-1969 0,-1085.8 883.3,-1969.1 1969,-1969.1 1085.7,0 1969,883.3 1969,1969.1 0,1085.7 -883.3,1969 -1969,1969 z m 0,-4040.5 c -1142.2,0 -2071.4,929.3 -2071.4,2071.5 0,1142.2 929.2,2071.4 2071.4,2071.4 1142.2,0 2071.4,-929.2 2071.4,-2071.4 0,-1142.2 -929.2,-2071.5 -2071.4,-2071.5"
         style="fill:#3e4651;fill-opacity:1;fill-rule:nonzero;stroke:none"
         id="path258" /><path
         d="m 17755,15236.4 c -23.8,0 -43.1,-19.4 -43.1,-43.2 v -2138.7 c 0,-23.8 19.3,-43.1 43.1,-43.1 h 1269.4 c 23.8,0 43.1,19.3 43.1,43.1 v 2138.7 c 0,23.8 -19.3,43.2 -43.1,43.2 z M 19024.4,12909 H 17755 c -80.2,0 -145.5,65.3 -145.5,145.5 v 2138.7 c 0,80.2 65.3,145.6 145.5,145.6 h 1269.4 c 80.2,0 145.5,-65.4 145.5,-145.6 v -2138.7 c 0,-80.2 -65.3,-145.5 -145.5,-145.5"
         style="fill:#3e4651;fill-opacity:1;fill-rule:nonzero;stroke:none"
         id="path260" /><path
         d="m 19047.3,12727.6 h -1315.2 c -28.3,0 -51.2,22.9 -51.2,51.2 v 163.9 c 0,28.3 22.9,51.2 51.2,51.2 28.2,0 51.2,-22.9 51.2,-51.2 V 12830 h 1212.8 v 112.7 c 0,28.3 23,51.2 51.2,51.2 28.3,0 51.2,-22.9 51.2,-51.2 v -163.9 c 0,-28.3 -22.9,-51.2 -51.2,-51.2"
         style="fill:#3e4651;fill-opacity:1;fill-rule:nonzero;stroke:none"
         id="path262" /><path
         d="m 18856,14717.7 h -1154.6 c -28.3,0 -51.2,23 -51.2,51.2 0,28.3 22.9,51.2 51.2,51.2 H 18856 c 28.3,0 51.2,-22.9 51.2,-51.2 0,-28.2 -22.9,-51.2 -51.2,-51.2"
         style="fill:#3e4651;fill-opacity:1;fill-rule:nonzero;stroke:none"
         id="path264" /><path
         d="m 18856,14199.1 h -1154.6 c -28.3,0 -51.2,22.9 -51.2,51.2 0,28.3 22.9,51.2 51.2,51.2 H 18856 c 28.3,0 51.2,-22.9 51.2,-51.2 0,-28.3 -22.9,-51.2 -51.2,-51.2"
         style="fill:#3e4651;fill-opacity:1;fill-rule:nonzero;stroke:none"
         id="path266" /><path
         d="m 17882.7,13684.7 c -28.3,0 -51.2,22.9 -51.2,51.2 v 196.2 c 0,28.2 22.9,51.2 51.2,51.2 28.3,0 51.2,-23 51.2,-51.2 v -196.2 c 0,-28.3 -22.9,-51.2 -51.2,-51.2"
         style="fill:#3e4651;fill-opacity:1;fill-rule:nonzero;stroke:none"
         id="path268" /><path
         d="m 17882.7,14414.4 c -28.3,0 -51.2,22.9 -51.2,51.2 v 88 c 0,28.3 22.9,51.3 51.2,51.3 28.3,0 51.2,-23 51.2,-51.3 v -88 c 0,-28.3 -22.9,-51.2 -51.2,-51.2"
         style="fill:#3e4651;fill-opacity:1;fill-rule:nonzero;stroke:none"
         id="path270" /><path
         d="m 17882.7,14910.3 c -28.3,0 -51.2,22.9 -51.2,51.2 v 88.1 c 0,28.2 22.9,51.2 51.2,51.2 28.3,0 51.2,-23 51.2,-51.2 v -88.1 c 0,-28.3 -22.9,-51.2 -51.2,-51.2"
         style="fill:#3e4651;fill-opacity:1;fill-rule:nonzero;stroke:none"
         id="path272" /><path
         d="m 18207.1,12764.8 c -28.3,0 -51.2,22.9 -51.2,51.2 v 101.2 c 0,28.2 22.9,51.2 51.2,51.2 28.3,0 51.2,-23 51.2,-51.2 V 12816 c 0,-28.3 -22.9,-51.2 -51.2,-51.2"
         style="fill:#3e4651;fill-opacity:1;fill-rule:nonzero;stroke:none"
         id="path274" /><path
         d="m 18572.3,12764.8 c -28.3,0 -51.2,22.9 -51.2,51.2 v 101.2 c 0,28.2 22.9,51.2 51.2,51.2 28.3,0 51.2,-23 51.2,-51.2 V 12816 c 0,-28.3 -22.9,-51.2 -51.2,-51.2"
         style="fill:#3e4651;fill-opacity:1;fill-rule:nonzero;stroke:none"
         id="path276" /><path
         d="m 13312,16053.4 c -1085.7,0 -1969,-883.3 -1969,-1969 0,-1085.8 883.3,-1969.1 1969,-1969.1 1085.7,0 1969,883.3 1969,1969.1 0,1085.7 -883.3,1969 -1969,1969 z m 0,-4040.5 c -1142.2,0 -2071.4,929.3 -2071.4,2071.5 0,1142.2 929.2,2071.4 2071.4,2071.4 1142.2,0 2071.4,-929.2 2071.4,-2071.4 0,-1142.2 -929.2,-2071.5 -2071.4,-2071.5"
         style="fill:#3e4651;fill-opacity:1;fill-rule:nonzero;stroke:none"
         id="path278" /><path
         d="m 13441.1,14022.4 c -21,0 -40.6,13 -48.2,33.7 -9.6,26.6 4.1,56 30.7,65.7 l 277.6,101 c 154.9,56.4 258.9,205.4 258.9,370.8 0,45.2 -7.9,89.9 -23.4,133 -3.6,10.2 -7.5,19.7 -11.8,28.9 -16,34.6 -36.2,65.8 -60,92.8 -106.2,123.7 -279.6,169.2 -431.8,113.7 l -1201.4,-437.6 c -26.5,-9.8 -55.9,4 -65.6,30.5 -9.7,26.6 4,56 30.6,65.7 l 1201.3,437.6 c 192,70.2 410.7,12.7 544.2,-142.7 29.8,-33.9 55.4,-73.4 75.6,-117 5.6,-12 10.7,-24.4 15.3,-37.4 19.5,-54 29.4,-110.5 29.4,-167.5 0,-208.3 -131.1,-396 -326.3,-467 l -277.6,-101.1 c -5.8,-2.1 -11.7,-3.1 -17.5,-3.1"
         style="fill:#3e4651;fill-opacity:1;fill-rule:nonzero;stroke:none"
         id="path280" /><path
         d="m 13283.1,14521.2 c -20.9,0 -40.5,13 -48.1,33.7 -9.7,26.6 4,56 30.6,65.7 l 370.8,135 c 26.5,9.7 55.9,-4 65.6,-30.5 9.7,-26.6 -4,-56 -30.6,-65.7 l -370.8,-135 c -5.7,-2.2 -11.7,-3.2 -17.5,-3.2"
         style="fill:#3e4651;fill-opacity:1;fill-rule:nonzero;stroke:none"
         id="path282" /><path
         d="m 13947.4,13558 h -367.2 c -28.3,0 -51.2,22.9 -51.2,51.2 0,28.2 22.9,51.2 51.2,51.2 h 367.2 c 28.2,0 51.2,-23 51.2,-51.2 0,-28.3 -23,-51.2 -51.2,-51.2"
         style="fill:#3e4651;fill-opacity:1;fill-rule:nonzero;stroke:none"
         id="path284" /><path
         d="m 13947.4,13286.9 h -590.2 c -28.3,0 -51.2,22.9 -51.2,51.2 0,28.2 22.9,51.2 51.2,51.2 h 590.2 c 28.2,0 51.2,-23 51.2,-51.2 0,-28.3 -23,-51.2 -51.2,-51.2"
         style="fill:#3e4651;fill-opacity:1;fill-rule:nonzero;stroke:none"
         id="path286" /><path
         d="m 14007.3,12978.2 c -193.7,0 -351.3,157.7 -351.3,351.4 v 8.2 c 0,28.3 23,51.2 51.2,51.2 28.3,0 51.2,-22.9 51.2,-51.2 v -8.2 c 0,-137.3 111.7,-249 248.9,-249 137.3,0 248.9,111.7 248.9,249 v 289.6 c 0,137.2 -111.6,248.8 -248.9,248.8 -137.2,0 -248.9,-111.6 -248.9,-248.8 v -10.3 c 0,-28.2 -22.9,-51.2 -51.2,-51.2 -28.2,0 -51.2,23 -51.2,51.2 v 10.3 c 0,193.7 157.6,351.2 351.3,351.2 193.7,0 351.3,-157.5 351.3,-351.2 v -289.6 c 0,-193.7 -157.6,-351.4 -351.3,-351.4"
         style="fill:#3e4651;fill-opacity:1;fill-rule:nonzero;stroke:none"
         id="path288" /><path
         d="m 13357.2,13286.9 c -127.7,0 -231.6,103.9 -231.6,231.6 v 391.3 c 0,28.3 22.9,51.2 51.2,51.2 28.2,0 51.2,-22.9 51.2,-51.2 v -391.3 c 0,-71.3 57.9,-129.2 129.2,-129.2 71.3,0 129.2,57.9 129.2,129.2 v 567.4 c 0,28.3 23,51.2 51.2,51.2 28.3,0 51.2,-22.9 51.2,-51.2 v -567.4 c 0,-127.7 -103.9,-231.6 -231.6,-231.6"
         style="fill:#3e4651;fill-opacity:1;fill-rule:nonzero;stroke:none"
         id="path290" /><path
         d="m 12265.4,14521.3 v -306.2 c 0,-188.1 153,-341.2 341.1,-341.2 h 284.3 c 188.1,0 341.1,153.1 341.1,341.2 v 306.2 z m 625.4,-749.7 h -284.3 c -244.5,0 -443.5,198.9 -443.5,443.5 v 357.3 c 0,28.3 22.9,51.2 51.2,51.2 h 1068.9 c 28.3,0 51.2,-22.9 51.2,-51.2 v -357.3 c 0,-244.6 -199,-443.5 -443.5,-443.5"
         style="fill:#3e4651;fill-opacity:1;fill-rule:nonzero;stroke:none"
         id="path292" /><path
         d="m 12687.6,14333.3 c -74.9,0 -135.7,-60.9 -135.7,-135.7 0,-74.8 60.8,-135.7 135.7,-135.7 74.8,0 135.6,60.9 135.6,135.7 0,74.8 -60.8,135.7 -135.6,135.7 z m 0,-373.8 c -131.3,0 -238.1,106.8 -238.1,238.1 0,131.3 106.8,238.1 238.1,238.1 131.2,0 238,-106.8 238,-238.1 0,-131.3 -106.8,-238.1 -238,-238.1"
         style="fill:#3e4651;fill-opacity:1;fill-rule:nonzero;stroke:none"
         id="path294" /><path
         d="m 8234.29,16053.4 c -1085.73,0 -1969.02,-883.3 -1969.02,-1969 0,-1085.8 883.29,-1969.1 1969.02,-1969.1 1085.72,0 1969.01,883.3 1969.01,1969.1 0,1085.7 -883.29,1969 -1969.01,1969 z m 0,-4040.5 c -1142.2,0 -2071.42,929.3 -2071.42,2071.5 0,1142.2 929.22,2071.4 2071.42,2071.4 1142.2,0 2071.41,-929.2 2071.41,-2071.4 0,-1142.2 -929.21,-2071.5 -2071.41,-2071.5"
         style="fill:#3e4651;fill-opacity:1;fill-rule:nonzero;stroke:none"
         id="path296" /><path
         d="m 8253.92,13725.2 c -61.78,0 -112.03,-50.5 -112.03,-112.5 0,-36.6 17.65,-70.6 47.2,-91 13.83,-9.5 22.1,-25.3 22.1,-42.1 v -90.3 c 0,-23.6 19.17,-42.8 42.73,-42.8 23.82,0 43.22,19.2 43.22,42.8 v 90.3 c 0,16.6 8.02,32.1 21.55,41.7 29.6,21 47.27,55.2 47.27,91.4 0,62 -50.27,112.5 -112.04,112.5 z m 0,-481.1 c -80.03,0 -145.13,65.2 -145.13,145.2 v 65.7 c -43.83,39.9 -69.3,97.1 -69.3,157.7 0,118.5 96.2,214.9 214.43,214.9 118.24,0 214.44,-96.4 214.44,-214.9 0,-60 -25.32,-117 -68.82,-157.4 v -66 c 0,-80 -65.33,-145.2 -145.62,-145.2"
         style="fill:#3e4651;fill-opacity:1;fill-rule:nonzero;stroke:none"
         id="path298" /><path
         d="m 8852.74,14028.9 c -28.28,0 -51.2,22.9 -51.2,51.2 v 567.1 c 0,305.5 -239.52,558.2 -533.95,563.5 -148.32,3.8 -286.43,-52.8 -391.43,-156 -105.02,-103.1 -162.87,-241.1 -162.87,-388.3 v -200.5 c 0,-55.9 45.5,-101.4 101.42,-101.4 h 72.01 c 28.27,0 51.2,-22.9 51.2,-51.2 0,-28.3 -22.93,-51.2 -51.2,-51.2 h -72.01 c -112.4,0 -203.82,91.4 -203.82,203.8 v 200.5 c 0,174.9 68.73,338.8 193.53,461.4 124.8,122.6 291.52,186.7 464.97,185.3 349.9,-6.2 634.55,-304.9 634.55,-665.9 v -567.1 c 0,-28.3 -22.93,-51.2 -51.2,-51.2"
         style="fill:#3e4651;fill-opacity:1;fill-rule:nonzero;stroke:none"
         id="path300" /><path
         d="m 8628.61,14214.6 c -28.27,0 -51.2,22.9 -51.2,51.2 v 382.3 c 0,176.3 -143.44,319.8 -319.75,319.8 -176.29,0 -319.74,-143.5 -319.74,-319.8 v -124.3 c 0,-28.3 -22.93,-51.2 -51.2,-51.2 -28.28,0 -51.2,22.9 -51.2,51.2 v 124.3 c 0,232.8 189.37,422.2 422.14,422.2 232.78,0 422.15,-189.4 422.15,-422.2 v -382.3 c 0,-28.3 -22.92,-51.2 -51.2,-51.2"
         style="fill:#3e4651;fill-opacity:1;fill-rule:nonzero;stroke:none"
         id="path302" /><path
         d="m 7539.74,14011.4 c -48.9,0 -88.7,-39.8 -88.7,-88.7 v -773.6 c 0,-49 39.8,-88.7 88.7,-88.7 h 1389.1 c 48.93,0 88.72,39.7 88.72,88.7 v 773.6 c 0,48.9 -39.79,88.7 -88.72,88.7 z M 8928.84,12958 h -1389.1 c -105.38,0 -191.1,85.7 -191.1,191.1 v 773.6 c 0,105.4 85.72,191.1 191.1,191.1 h 1389.1 c 105.37,0 191.12,-85.7 191.12,-191.1 v -773.6 c 0,-105.4 -85.75,-191.1 -191.12,-191.1"
         style="fill:#3e4651;fill-opacity:1;fill-rule:nonzero;stroke:none"
         id="path304" /><path
         d="m 7756.26,13119 c -28.27,0 -51.2,22.9 -51.2,51.2 v 875.5 c 0,28.3 22.93,51.2 51.2,51.2 28.28,0 51.2,-22.9 51.2,-51.2 v -875.5 c 0,-28.3 -22.92,-51.2 -51.2,-51.2"
         style="fill:#3e4651;fill-opacity:1;fill-rule:nonzero;stroke:none"
         id="path306" /><path
         d="m 8712.34,13119 c -28.28,0 -51.2,22.9 -51.2,51.2 v 875.5 c 0,28.3 22.92,51.2 51.2,51.2 28.27,0 51.2,-22.9 51.2,-51.2 v -875.5 c 0,-28.3 -22.93,-51.2 -51.2,-51.2"
         style="fill:#3e4651;fill-opacity:1;fill-rule:nonzero;stroke:none"
         id="path308" /><path
         d="m 3156.59,16053.4 c -1085.72,0 -1969.03,-883.3 -1969.03,-1969 0,-1085.8 883.31,-1969.1 1969.03,-1969.1 1085.72,0 1969.03,883.3 1969.03,1969.1 0,1085.7 -883.31,1969 -1969.03,1969 z m 0,-4040.5 c -1142.2,0 -2071.43,929.3 -2071.43,2071.5 0,1142.2 929.23,2071.4 2071.43,2071.4 1142.2,0 2071.43,-929.2 2071.43,-2071.4 0,-1142.2 -929.23,-2071.5 -2071.43,-2071.5"
         style="fill:#3e4651;fill-opacity:1;fill-rule:nonzero;stroke:none"
         id="path310" /><path
         d="m 3271.34,13544.4 c -28.28,0 -51.2,23 -51.2,51.3 v 223.4 h -126.88 v -223.4 c 0,-28.3 -22.92,-51.3 -51.2,-51.3 -28.27,0 -51.2,23 -51.2,51.3 v 239.4 c 0,48.1 38.13,86.4 84.98,86.4 h 161.25 c 47.12,0 85.45,-38.3 85.45,-85.5 v -240.3 c 0,-28.3 -22.93,-51.3 -51.2,-51.3"
         style="fill:#3e4651;fill-opacity:1;fill-rule:nonzero;stroke:none"
         id="path312" /><path
         d="m 3499.37,13544.4 c -28.28,0 -51.2,23 -51.2,51.3 v 426.2 c 0,21.8 13.87,41.3 34.52,48.4 l 26.6,9.1 -352.83,352.9 -352.39,-352.8 26.65,-9.2 c 20.67,-7.1 34.54,-26.6 34.54,-48.4 v -426.2 c 0,-28.3 -22.92,-51.3 -51.2,-51.3 -28.27,0 -51.2,23 -51.2,51.3 v 389.7 l -69.55,23.9 c -16.7,5.7 -29.25,19.7 -33.22,36.9 -3.98,17.2 1.17,35.2 13.65,47.7 l 410.3,410.8 c 40.68,39.6 105.45,39.4 144.83,0 l 410.77,-410.8 c 12.5,-12.5 17.65,-30.5 13.67,-47.7 -3.94,-17.2 -16.52,-31.2 -33.19,-36.9 l -69.55,-23.9 v -389.7 c 0,-28.3 -22.93,-51.3 -51.2,-51.3"
         style="fill:#3e4651;fill-opacity:1;fill-rule:nonzero;stroke:none"
         id="path314" /><path
         d="m 3570.66,13508.8 h -827.9 c -28.27,0 -51.2,23 -51.2,51.2 0,28.3 22.93,51.2 51.2,51.2 h 827.9 c 28.28,0 51.2,-22.9 51.2,-51.2 0,-28.2 -22.92,-51.2 -51.2,-51.2"
         style="fill:#3e4651;fill-opacity:1;fill-rule:nonzero;stroke:none"
         id="path316" /><path
         d="M 3862.16,15006.7 H 2604.89 c -28.28,0 -51.2,22.9 -51.2,51.2 0,28.2 22.92,51.2 51.2,51.2 h 1257.27 c 28.28,0 51.2,-23 51.2,-51.2 0,-28.3 -22.92,-51.2 -51.2,-51.2"
         style="fill:#3e4651;fill-opacity:1;fill-rule:nonzero;stroke:none"
         id="path318" /><path
         d="M 3708.29,13078.8 H 2451.02 c -28.28,0 -51.2,23 -51.2,51.2 0,28.3 22.92,51.2 51.2,51.2 h 1257.27 c 28.28,0 51.2,-22.9 51.2,-51.2 0,-28.2 -22.92,-51.2 -51.2,-51.2"
         style="fill:#3e4651;fill-opacity:1;fill-rule:nonzero;stroke:none"
         id="path320" /><path
         d="m 2517.57,15236.4 c -28.33,0 -51.38,-23.1 -51.38,-51.5 v -2201.1 c 0,-28.4 23.05,-51.4 51.38,-51.4 h 1278.04 c 28.33,0 51.38,23 51.38,51.4 v 2201.1 c 0,28.4 -23.05,51.5 -51.38,51.5 z M 3795.61,12830 H 2517.57 c -84.81,0 -153.78,68.9 -153.78,153.8 v 2201.1 c 0,84.9 68.97,153.9 153.78,153.9 h 1278.04 c 84.81,0 153.78,-69 153.78,-153.9 v -2201.1 c 0,-84.9 -68.97,-153.8 -153.78,-153.8"
         style="fill:#3e4651;fill-opacity:1;fill-rule:nonzero;stroke:none"
         id="path322" /><path
         d="m 22714.1,18518.7 c -28.3,0 -51.2,22.9 -51.2,51.2 v 915.9 c 0,28.3 22.9,51.2 51.2,51.2 28.3,0 51.2,-22.9 51.2,-51.2 v -915.9 c 0,-28.3 -22.9,-51.2 -51.2,-51.2"
         style="fill:#3e4651;fill-opacity:1;fill-rule:nonzero;stroke:none"
         id="path324" /><path
         d="m 24298.2,19171 c -28.2,0 -51.2,22.9 -51.2,51.2 v 263.6 c 0,28.3 23,51.2 51.2,51.2 28.3,0 51.2,-22.9 51.2,-51.2 v -263.6 c 0,-28.3 -22.9,-51.2 -51.2,-51.2"
         style="fill:#3e4651;fill-opacity:1;fill-rule:nonzero;stroke:none"
         id="path326" /><path
         d="m 22545.1,19537.1 c -13.1,0 -26.1,5 -36.1,15 -20.1,20 -20.1,52.4 -0.1,72.4 l 882.6,883.7 c 64,62.4 166.1,62.1 228.2,0 l 883.7,-883.7 c 20,-20 20,-52.4 0,-72.4 -20,-20 -52.4,-20 -72.4,0 l -883.7,883.7 c -22.7,22.7 -60.2,22.5 -83.8,-0.4 l -882.1,-883.2 c -10,-10.1 -23.1,-15.1 -36.3,-15.1"
         style="fill:#3e4651;fill-opacity:1;fill-rule:nonzero;stroke:none"
         id="path328" /><path
         d="m 23693.2,18366.4 h -1148.1 c -28.2,0 -51.2,22.9 -51.2,51.2 0,28.3 23,51.2 51.2,51.2 h 1148.1 c 28.2,0 51.2,-22.9 51.2,-51.2 0,-28.3 -23,-51.2 -51.2,-51.2"
         style="fill:#3e4651;fill-opacity:1;fill-rule:nonzero;stroke:none"
         id="path330" /><path
         d="m 23506.2,19885 c -49.4,0 -89.6,-40.2 -89.6,-89.6 0,-49.3 40.2,-89.5 89.6,-89.5 49.3,0 89.5,40.2 89.5,89.5 0,49.4 -40.2,89.6 -89.5,89.6 z m 0,-281.5 c -105.9,0 -192,86.1 -192,191.9 0,105.9 86.1,192 192,192 105.8,0 191.9,-86.1 191.9,-192 0,-105.8 -86.1,-191.9 -191.9,-191.9"
         style="fill:#3e4651;fill-opacity:1;fill-rule:nonzero;stroke:none"
         id="path332" /><path
         d="m 22929.6,19940.5 c -28.3,0 -51.2,22.9 -51.2,51.2 v 487 c 0,28.3 22.9,51.2 51.2,51.2 28.2,0 51.2,-22.9 51.2,-51.2 v -487 c 0,-28.3 -23,-51.2 -51.2,-51.2"
         style="fill:#3e4651;fill-opacity:1;fill-rule:nonzero;stroke:none"
         id="path334" /><path
         d="m 23114.5,20138.1 c -28.2,0 -51.2,22.9 -51.2,51.2 v 289.4 c 0,28.3 23,51.2 51.2,51.2 28.3,0 51.2,-22.9 51.2,-51.2 v -289.4 c 0,-28.3 -22.9,-51.2 -51.2,-51.2"
         style="fill:#3e4651;fill-opacity:1;fill-rule:nonzero;stroke:none"
         id="path336" /><path
         d="m 23154.5,20452.6 h -264.9 c -28.3,0 -51.2,22.9 -51.2,51.2 0,28.3 22.9,51.2 51.2,51.2 h 264.9 c 28.3,0 51.2,-22.9 51.2,-51.2 0,-28.3 -22.9,-51.2 -51.2,-51.2"
         style="fill:#3e4651;fill-opacity:1;fill-rule:nonzero;stroke:none"
         id="path338" /><path
         d="m 24036.3,19225 c -240.4,0 -435.9,-195.5 -435.9,-435.8 0,-240.3 195.5,-435.8 435.9,-435.8 240.3,0 435.8,195.5 435.8,435.8 0,240.3 -195.5,435.8 -435.8,435.8 z m 0,-974 c -296.8,0 -538.3,241.4 -538.3,538.2 0,296.8 241.5,538.2 538.3,538.2 296.7,0 538.2,-241.4 538.2,-538.2 0,-296.8 -241.5,-538.2 -538.2,-538.2"
         style="fill:#3e4651;fill-opacity:1;fill-rule:nonzero;stroke:none"
         id="path340" /><path
         d="m 24037.5,18472.5 c -120.8,0 -219.1,82.5 -219.1,183.9 0,28.3 22.9,51.3 51.2,51.3 28.2,0 51.2,-23 51.2,-51.3 0,-44.1 53.4,-81.5 116.7,-81.5 63.5,0 117,37.4 117,81.5 0,21.1 -21.7,81.1 -118,81.1 -152.4,0 -220.9,108 -220.9,184.7 0,101.6 98.3,184.2 219.1,184.2 121,0 219.4,-82.6 219.4,-184.2 0,-28.3 -22.9,-51.2 -51.2,-51.2 -28.2,0 -51.2,22.9 -51.2,51.2 0,44.4 -53.5,81.8 -117,81.8 -63.3,0 -116.7,-37.4 -116.7,-81.8 0,-17.4 20.1,-82.3 118.5,-82.3 160.6,0 220.4,-112.5 220.4,-183.5 0,-101.4 -98.4,-183.9 -219.4,-183.9"
         style="fill:#3e4651;fill-opacity:1;fill-rule:nonzero;stroke:none"
         id="path342" /><path
         d="m 24036.1,19030.9 c -28.3,0 -51.2,22.9 -51.2,51.2 v 37.3 c 0,28.3 22.9,51.2 51.2,51.2 28.2,0 51.2,-22.9 51.2,-51.2 v -37.3 c 0,-28.3 -23,-51.2 -51.2,-51.2"
         style="fill:#3e4651;fill-opacity:1;fill-rule:nonzero;stroke:none"
         id="path344" /><path
         d="m 24036.1,18407.8 c -28.3,0 -51.2,23 -51.2,51.2 v 38 c 0,28.3 22.9,51.2 51.2,51.2 28.2,0 51.2,-22.9 51.2,-51.2 v -38 c 0,-28.2 -23,-51.2 -51.2,-51.2"
         style="fill:#3e4651;fill-opacity:1;fill-rule:nonzero;stroke:none"
         id="path346" /><path
         d="m 23467.4,21386.9 c -1085.7,0 -1969,-883.3 -1969,-1969 0,-1085.8 883.3,-1969.1 1969,-1969.1 1085.7,0 1969,883.3 1969,1969.1 0,1085.7 -883.3,1969 -1969,1969 z m 0,-4040.5 c -1142.2,0 -2071.4,929.3 -2071.4,2071.5 0,1142.2 929.2,2071.4 2071.4,2071.4 1142.2,0 2071.4,-929.2 2071.4,-2071.4 0,-1142.2 -929.2,-2071.5 -2071.4,-2071.5"
         style="fill:#3e4651;fill-opacity:1;fill-rule:nonzero;stroke:none"
         id="path348" /><path
         d="m 18389.7,21386.9 c -1085.7,0 -1969,-883.3 -1969,-1969 0,-1085.8 883.3,-1969.1 1969,-1969.1 1085.7,0 1969,883.3 1969,1969.1 0,1085.7 -883.3,1969 -1969,1969 z m 0,-4040.5 c -1142.2,0 -2071.4,929.3 -2071.4,2071.5 0,1142.2 929.2,2071.4 2071.4,2071.4 1142.2,0 2071.4,-929.2 2071.4,-2071.4 0,-1142.2 -929.2,-2071.5 -2071.4,-2071.5"
         style="fill:#3e4651;fill-opacity:1;fill-rule:nonzero;stroke:none"
         id="path350" /><path
         d="m 19065.8,19335.9 c -28.3,0 -51.2,22.9 -51.2,51.2 v 666.3 c 0,191.1 -155.5,346.6 -346.6,346.6 h -556.6 c -191.1,0 -346.6,-155.5 -346.6,-346.6 v -666.3 c 0,-28.3 -22.9,-51.2 -51.2,-51.2 -28.3,0 -51.2,22.9 -51.2,51.2 v 666.3 c 0,247.6 201.4,449 449,449 h 556.6 c 247.6,0 449,-201.4 449,-449 v -666.3 c 0,-28.3 -22.9,-51.2 -51.2,-51.2"
         style="fill:#3e4651;fill-opacity:1;fill-rule:nonzero;stroke:none"
         id="path352" /><path
         d="m 17365.3,19756.5 c -84.5,0 -153.2,-68.7 -153.2,-153.1 v -12 c 0,-84.5 68.7,-153.1 153.2,-153.1 28.2,0 51.2,-23 51.2,-51.2 V 18762 c 0,-56.8 46.2,-103.1 103.1,-103.1 h 142.8 v 911.9 c 0,102.4 -83.3,185.7 -185.7,185.7 z m 348.3,-1200 h -194 c -113.3,0 -205.5,92.2 -205.5,205.5 v 579 c -116.5,23.8 -204.4,127 -204.4,250.4 v 12 c 0,140.9 114.7,255.5 255.6,255.5 h 111.4 c 158.8,0 288.1,-129.2 288.1,-288.1 v -963.1 c 0,-28.3 -22.9,-51.2 -51.2,-51.2"
         style="fill:#3e4651;fill-opacity:1;fill-rule:nonzero;stroke:none"
         id="path354" /><path
         d="m 19117,18658.9 h 142.8 c 56.9,0 103.2,46.3 103.2,103.1 v 625.1 c 0,28.2 22.9,51.2 51.2,51.2 84.4,0 153.1,68.6 153.1,153.1 v 12 c 0,84.4 -68.7,153.1 -153.1,153.1 h -111.5 c -102.4,0 -185.7,-83.3 -185.7,-185.7 z m 142.8,-102.4 h -194 c -28.3,0 -51.2,22.9 -51.2,51.2 v 963.1 c 0,158.9 129.3,288.1 288.1,288.1 h 111.5 c 140.9,0 255.5,-114.6 255.5,-255.5 v -12 c 0,-123.4 -87.9,-226.6 -204.3,-250.4 v -579 c 0,-113.3 -92.2,-205.5 -205.6,-205.5"
         style="fill:#3e4651;fill-opacity:1;fill-rule:nonzero;stroke:none"
         id="path356" /><path
         d="m 19065.8,18556.5 h -1352.2 c -28.3,0 -51.2,22.9 -51.2,51.2 0,28.3 22.9,51.2 51.2,51.2 h 1352.2 c 28.3,0 51.2,-22.9 51.2,-51.2 0,-28.3 -22.9,-51.2 -51.2,-51.2"
         style="fill:#3e4651;fill-opacity:1;fill-rule:nonzero;stroke:none"
         id="path358" /><path
         d="m 17764.8,18934.3 h 1249.8 v 197.9 c 0,112.3 -91.4,203.7 -203.7,203.7 h -842.4 c -112.3,0 -203.7,-91.4 -203.7,-203.7 z m 1301,-102.4 h -1352.2 c -28.3,0 -51.2,22.9 -51.2,51.2 v 249.1 c 0,168.7 137.3,306.1 306.1,306.1 h 842.4 c 168.8,0 306.1,-137.4 306.1,-306.1 v -249.1 c 0,-28.3 -22.9,-51.2 -51.2,-51.2"
         style="fill:#3e4651;fill-opacity:1;fill-rule:nonzero;stroke:none"
         id="path360" /><path
         d="m 17621.3,18556.5 v -89.4 c 0,-17.3 14.1,-31.4 31.5,-31.4 h 121.7 c 17.3,0 31.4,14.1 31.4,31.4 v 89.4 z m 153.2,-223.2 h -121.7 c -73.8,0 -133.9,60 -133.9,133.8 v 140.6 c 0,28.3 23,51.2 51.2,51.2 h 287 c 28.3,0 51.2,-22.9 51.2,-51.2 v -140.6 c 0,-73.8 -60,-133.8 -133.8,-133.8"
         style="fill:#3e4651;fill-opacity:1;fill-rule:nonzero;stroke:none"
         id="path362" /><path
         d="m 18973.5,18556.5 v -89.4 c 0,-17.3 14.1,-31.4 31.4,-31.4 h 121.8 c 17.3,0 31.4,14.1 31.4,31.4 v 89.4 z m 153.2,-223.2 h -121.8 c -73.8,0 -133.8,60 -133.8,133.8 v 140.6 c 0,28.3 22.9,51.2 51.2,51.2 h 287 c 28.2,0 51.2,-22.9 51.2,-51.2 v -140.6 c 0,-73.8 -60.1,-133.8 -133.8,-133.8"
         style="fill:#3e4651;fill-opacity:1;fill-rule:nonzero;stroke:none"
         id="path364" /><path
         d="m 13312,21386.9 c -1085.7,0 -1969,-883.3 -1969,-1969 0,-1085.8 883.3,-1969.1 1969,-1969.1 1085.7,0 1969,883.3 1969,1969.1 0,1085.7 -883.3,1969 -1969,1969 z m 0,-4040.5 c -1142.2,0 -2071.4,929.3 -2071.4,2071.5 0,1142.2 929.2,2071.4 2071.4,2071.4 1142.2,0 2071.4,-929.2 2071.4,-2071.4 0,-1142.2 -929.2,-2071.5 -2071.4,-2071.5"
         style="fill:#3e4651;fill-opacity:1;fill-rule:nonzero;stroke:none"
         id="path366" /><path
         d="m 12230.4,20167.5 h 2163.2 l -89,104.1 h -1985.2 z m 2274.3,-102.4 h -2385.4 c -19.9,0 -38.1,11.7 -46.5,29.8 -8.3,18.2 -5.4,39.5 7.6,54.7 l 176.4,206.4 c 9.8,11.4 24,17.9 39,17.9 h 2032.4 c 15,0 29.2,-6.5 39,-17.9 l 176.4,-206.4 c 13,-15.2 15.9,-36.5 7.6,-54.7 -8.4,-18.1 -26.6,-29.8 -46.5,-29.8"
         style="fill:#3e4651;fill-opacity:1;fill-rule:nonzero;stroke:none"
         id="path368" /><path
         d="m 14411.9,18461.8 c -28.3,0 -51.2,22.9 -51.2,51.1 v 1396.8 l -489.4,-119.9 c -27.5,-6.7 -55.2,10 -61.9,37.5 -6.7,27.5 10.1,55.2 37.5,61.9 l 552.8,135.5 c 15.3,3.9 31.4,0.3 43.8,-9.5 12.3,-9.7 19.6,-24.5 19.6,-40.3 v -1462 c 0,-28.2 -23,-51.1 -51.2,-51.1"
         style="fill:#3e4651;fill-opacity:1;fill-rule:nonzero;stroke:none"
         id="path370" /><path
         d="m 12212.1,18461.8 c -28.2,0 -51.2,22.9 -51.2,51.1 v 1462 c 0,15.8 7.3,30.6 19.6,40.3 12.4,9.8 28.6,13.3 43.8,9.5 l 552.8,-135.5 c 27.4,-6.7 44.2,-34.4 37.5,-61.9 -6.8,-27.4 -34.6,-44.2 -61.9,-37.5 l -489.4,119.9 v -1396.8 c 0,-28.2 -22.9,-51.1 -51.2,-51.1"
         style="fill:#3e4651;fill-opacity:1;fill-rule:nonzero;stroke:none"
         id="path372" /><path
         d="m 13938.7,19320.6 c -17.8,0 -35.2,9.3 -44.6,26 l -113.9,201 c -39.1,69 -105,110.2 -176.4,110.2 h -582.5 c -71.4,0 -137.3,-41.2 -176.4,-110.2 l -113.9,-201 c -14,-24.6 -45.2,-33.3 -69.8,-19.3 -24.6,13.9 -33.3,45.2 -19.3,69.8 l 113.9,201 c 57.5,101.5 156.8,162.1 265.5,162.1 h 582.5 c 108.7,0 208,-60.6 265.5,-162.1 l 113.9,-201 c 13.9,-24.6 5.3,-55.9 -19.3,-69.8 -8,-4.5 -16.6,-6.7 -25.2,-6.7"
         style="fill:#3e4651;fill-opacity:1;fill-rule:nonzero;stroke:none"
         id="path374" /><path
         d="m 13897.9,19290.3 h -1170.7 c -28.3,0 -51.2,22.9 -51.2,51.2 0,28.3 22.9,51.2 51.2,51.2 h 1170.7 c 28.3,0 51.2,-22.9 51.2,-51.2 0,-28.3 -22.9,-51.2 -51.2,-51.2"
         style="fill:#3e4651;fill-opacity:1;fill-rule:nonzero;stroke:none"
         id="path376" /><path
         d="m 12868.6,19069 c -8.2,0 -14.9,-6.7 -14.9,-14.9 0,-8.2 6.7,-14.9 14.9,-14.9 h 115 c 8.2,0 14.9,6.7 14.9,14.9 0,8.2 -6.7,14.9 -14.9,14.9 z m 115,-132.2 h -115 c -64.7,0 -117.3,52.6 -117.3,117.3 0,64.7 52.6,117.3 117.3,117.3 h 115 c 64.7,0 117.3,-52.6 117.3,-117.3 0,-64.7 -52.6,-117.3 -117.3,-117.3"
         style="fill:#3e4651;fill-opacity:1;fill-rule:nonzero;stroke:none"
         id="path378" /><path
         d="m 13641.5,19069 c -8.2,0 -14.9,-6.7 -14.9,-14.9 0,-8.2 6.7,-14.9 14.9,-14.9 h 115 c 8.2,0 14.9,6.7 14.9,14.9 0,8.2 -6.7,14.9 -14.9,14.9 z m 115,-132.2 h -115 c -64.7,0 -117.3,52.6 -117.3,117.3 0,64.7 52.6,117.3 117.3,117.3 h 115 c 64.7,0 117.3,-52.6 117.3,-117.3 0,-64.7 -52.6,-117.3 -117.3,-117.3"
         style="fill:#3e4651;fill-opacity:1;fill-rule:nonzero;stroke:none"
         id="path380" /><path
         d="m 12766.9,18461.8 c -94.1,0 -170.6,79.2 -170.6,176.7 v 172.7 c 0,28.3 22.9,51.2 51.2,51.2 28.2,0 51.2,-22.9 51.2,-51.2 v -172.7 c 0,-41 30.6,-74.3 68.2,-74.3 37.6,0 68.3,33.3 68.3,74.3 v 89 c 0,28.3 22.9,51.2 51.2,51.2 28.2,0 51.2,-22.9 51.2,-51.2 v -89 c 0,-97.5 -76.6,-176.7 -170.7,-176.7"
         style="fill:#3e4651;fill-opacity:1;fill-rule:nonzero;stroke:none"
         id="path382" /><path
         d="m 13857.6,18461.8 c -94.1,0 -170.6,79.2 -170.6,176.7 v 89 c 0,28.3 22.9,51.2 51.2,51.2 28.2,0 51.2,-22.9 51.2,-51.2 v -89 c 0,-41 30.6,-74.3 68.2,-74.3 37.6,0 68.3,33.3 68.3,74.3 v 172.7 c 0,28.3 22.9,51.2 51.2,51.2 28.2,0 51.2,-22.9 51.2,-51.2 v -172.7 c 0,-97.5 -76.6,-176.7 -170.7,-176.7"
         style="fill:#3e4651;fill-opacity:1;fill-rule:nonzero;stroke:none"
         id="path384" /><path
         d="m 13847.9,18697.3 h -1070.7 c -116.1,0 -210.5,98.1 -210.5,218.6 v 247.4 c 0,28.3 23,51.2 51.2,51.2 28.3,0 51.2,-22.9 51.2,-51.2 v -247.4 c 0,-64.1 48.5,-116.2 108.1,-116.2 h 1070.7 c 59.6,0 108.1,52.1 108.1,116.2 v 247.4 c 0,28.3 22.9,51.2 51.2,51.2 28.2,0 51.2,-22.9 51.2,-51.2 v -247.4 c 0,-120.5 -94.5,-218.6 -210.5,-218.6"
         style="fill:#3e4651;fill-opacity:1;fill-rule:nonzero;stroke:none"
         id="path386" /><path
         d="m 14044.9,19112.1 h -37.7 c -28.3,0 -51.2,22.9 -51.2,51.2 0,28.3 22.9,51.2 51.2,51.2 h 37.7 c 20.9,0 37.9,17 37.9,37.9 0,20.9 -17,37.9 -37.9,37.9 h -152.6 c -28.3,0 -51.2,22.9 -51.2,51.2 0,28.3 22.9,51.2 51.2,51.2 h 152.6 c 77.4,0 140.3,-62.9 140.3,-140.3 0,-77.3 -62.9,-140.3 -140.3,-140.3"
         style="fill:#3e4651;fill-opacity:1;fill-rule:nonzero;stroke:none"
         id="path388" /><path
         d="m 12616.8,19112.1 h -37.7 c -77.4,0 -140.3,63 -140.3,140.3 0,77.4 62.9,140.3 140.3,140.3 h 152.6 c 28.3,0 51.2,-22.9 51.2,-51.2 0,-28.3 -22.9,-51.2 -51.2,-51.2 h -152.6 c -20.9,0 -37.9,-17 -37.9,-37.9 0,-20.9 17,-37.9 37.9,-37.9 h 37.7 c 28.3,0 51.2,-22.9 51.2,-51.2 0,-28.3 -22.9,-51.2 -51.2,-51.2"
         style="fill:#3e4651;fill-opacity:1;fill-rule:nonzero;stroke:none"
         id="path390" /><path
         d="m 8234.29,21386.9 c -1085.73,0 -1969.02,-883.3 -1969.02,-1969 0,-1085.8 883.29,-1969.1 1969.02,-1969.1 1085.72,0 1969.01,883.3 1969.01,1969.1 0,1085.7 -883.29,1969 -1969.01,1969 z m 0,-4040.5 c -1142.2,0 -2071.42,929.3 -2071.42,2071.5 0,1142.2 929.22,2071.4 2071.42,2071.4 1142.2,0 2071.41,-929.2 2071.41,-2071.4 0,-1142.2 -929.21,-2071.5 -2071.41,-2071.5"
         style="fill:#3e4651;fill-opacity:1;fill-rule:nonzero;stroke:none"
         id="path392" /><path
         d="m 8085.22,19227.6 c -83.68,0 -151.75,-68.1 -151.75,-151.8 0,-83.7 68.07,-151.7 151.75,-151.7 83.67,0 151.74,68 151.74,151.7 0,83.7 -68.07,151.8 -151.74,151.8 z m 0,-405.9 c -140.16,0 -254.15,114 -254.15,254.1 0,140.1 113.99,254.1 254.15,254.1 140.15,0 254.14,-114 254.14,-254.1 0,-140.1 -113.99,-254.1 -254.14,-254.1"
         style="fill:#3e4651;fill-opacity:1;fill-rule:nonzero;stroke:none"
         id="path394" /><path
         d="m 7628.34,18821.6 h -0.08 -90.85 c -84.12,0.1 -152.57,68.5 -152.57,152.6 0,28.3 22.92,51.2 51.2,51.2 28.27,0 51.2,-22.9 51.2,-51.2 0,-27.6 22.53,-50.2 50.22,-50.2 h 90.85 v 0 c 13.43,0 26.05,5.2 35.53,14.7 9.5,9.5 14.73,22.1 14.73,35.5 0,27.8 -22.53,50.4 -50.23,50.4 h -91.35 c -84.12,0 -152.57,68.4 -152.57,152.6 0,84.2 68.47,152.7 152.64,152.7 h 91.33 c 84.13,0 152.58,-68.5 152.58,-152.6 v -5.3 c 0,-28.3 -22.93,-51.2 -51.2,-51.2 -28.28,0 -51.2,22.9 -51.2,51.2 v 5.3 c 0,27.7 -22.53,50.2 -50.21,50.2 h -91.32 c -27.67,0 -50.22,-22.5 -50.22,-50.2 0,-27.8 22.52,-50.3 50.19,-50.3 l 91.38,-0.1 c 84.13,0 152.58,-68.5 152.58,-152.6 0,-40.9 -15.91,-79.2 -44.76,-108.1 -28.82,-28.8 -67.12,-44.6 -107.87,-44.6"
         style="fill:#3e4651;fill-opacity:1;fill-rule:nonzero;stroke:none"
         id="path396" /><path
         d="m 8885.34,18923.9 h 107.47 c 50.28,0 91.18,40.9 91.18,91.2 v 121.2 c 0,50.3 -40.9,91.2 -91.18,91.2 h -107.47 z m 107.47,-102.4 h -158.67 c -28.28,0 -51.2,22.9 -51.2,51.2 v 406 c 0,28.2 22.92,51.2 51.2,51.2 h 158.67 c 106.76,0 193.58,-86.8 193.58,-193.6 v -121.2 c 0,-106.7 -86.82,-193.6 -193.58,-193.6"
         style="fill:#3e4651;fill-opacity:1;fill-rule:nonzero;stroke:none"
         id="path398" /><path
         d="m 8689.29,18821.5 h -255.88 c -28.27,0 -51.2,22.9 -51.2,51.2 v 406 c 0,28.2 22.93,51.2 51.2,51.2 28.28,0 51.2,-23 51.2,-51.2 v -354.8 h 204.68 c 28.27,0 51.2,-22.9 51.2,-51.2 0,-28.3 -22.93,-51.2 -51.2,-51.2"
         style="fill:#3e4651;fill-opacity:1;fill-rule:nonzero;stroke:none"
         id="path400" /><path
         d="m 7360.59,19905.1 c -82.87,0 -150.3,-67.5 -150.3,-150.3 v -880.6 c 0,-82.8 67.43,-150.3 150.3,-150.3 h 1849.8 c 82.88,0 150.3,67.5 150.3,150.3 v 880.6 c 0,82.8 -67.42,150.3 -150.3,150.3 z m 1849.8,-1283.6 h -1849.8 c -139.35,0 -252.7,113.4 -252.7,252.7 v 880.6 c 0,139.3 113.35,252.6 252.7,252.6 h 1849.8 c 139.35,0 252.7,-113.3 252.7,-252.6 v -880.6 c 0,-139.3 -113.35,-252.7 -252.7,-252.7"
         style="fill:#3e4651;fill-opacity:1;fill-rule:nonzero;stroke:none"
         id="path402" /><path
         d="m 7811.76,19757.4 c -20.42,0 -37.05,-16.6 -37.05,-37 0,-20.5 16.63,-37.1 37.05,-37.1 20.43,0 37.06,16.6 37.06,37.1 0,20.4 -16.63,37 -37.06,37 z m 0,-176.5 c -76.89,0 -139.44,62.6 -139.44,139.5 0,76.9 62.55,139.4 139.44,139.4 76.91,0 139.46,-62.5 139.46,-139.4 0,-76.9 -62.55,-139.5 -139.46,-139.5"
         style="fill:#3e4651;fill-opacity:1;fill-rule:nonzero;stroke:none"
         id="path404" /><path
         d="m 8751.49,19757.4 c -20.43,0 -37.05,-16.6 -37.05,-37 0,-20.5 16.62,-37.1 37.05,-37.1 20.43,0 37.05,16.6 37.05,37.1 0,20.4 -16.62,37 -37.05,37 z m 0,-176.5 c -76.9,0 -139.45,62.6 -139.45,139.5 0,76.9 62.55,139.4 139.45,139.4 76.9,0 139.45,-62.5 139.45,-139.4 0,-76.9 -62.55,-139.5 -139.45,-139.5"
         style="fill:#3e4651;fill-opacity:1;fill-rule:nonzero;stroke:none"
         id="path406" /><path
         d="m 8751.54,19757.4 c -15.43,0 -30.65,7 -40.73,20.1 l -413.7,541.3 -445.77,-542.7 c -17.98,-21.8 -50.25,-25 -72.07,-7 -21.86,17.9 -25,50.2 -7.08,72 l 486.8,592.7 c 9.95,12 25.57,18.1 40.47,18.6 15.63,-0.2 30.28,-7.6 39.78,-20 l 452.93,-592.7 c 17.17,-22.4 12.87,-54.6 -9.58,-71.8 -9.3,-7 -20.23,-10.5 -31.05,-10.5"
         style="fill:#3e4651;fill-opacity:1;fill-rule:nonzero;stroke:none"
         id="path408" /><path
         d="m 7649.41,20009.6 h 209.78 v 285.5 c 0,28.3 22.93,51.2 51.2,51.2 h 624.97 c 26.38,0 47.85,21.5 47.85,47.9 0,26.3 -21.47,47.8 -47.85,47.8 h -885.95 z m 260.98,-102.4 h -312.18 c -28.27,0 -51.2,22.9 -51.2,51.2 v 534.8 c 0,28.3 22.93,51.2 51.2,51.2 h 937.15 c 82.85,0 150.25,-67.4 150.25,-150.2 0,-82.9 -67.4,-150.3 -150.25,-150.3 h -573.77 v -285.5 c 0,-28.3 -22.93,-51.2 -51.2,-51.2"
         style="fill:#3e4651;fill-opacity:1;fill-rule:nonzero;stroke:none"
         id="path410" /><path
         d="m 7649.41,18240.1 h 233.93 v 381.4 h -233.93 z m 285.13,-102.4 h -336.33 c -28.27,0 -51.2,23 -51.2,51.2 v 483.8 c 0,28.3 22.93,51.2 51.2,51.2 h 336.33 c 28.27,0 51.2,-22.9 51.2,-51.2 v -483.8 c 0,-28.2 -22.93,-51.2 -51.2,-51.2"
         style="fill:#3e4651;fill-opacity:1;fill-rule:nonzero;stroke:none"
         id="path412" /><path
         d="m 3156.59,21386.9 c -1085.72,0 -1969.03,-883.3 -1969.03,-1969 0,-1085.8 883.31,-1969.1 1969.03,-1969.1 1085.72,0 1969.03,883.3 1969.03,1969.1 0,1085.7 -883.31,1969 -1969.03,1969 z m 0,-4040.5 c -1142.2,0 -2071.43,929.3 -2071.43,2071.5 0,1142.2 929.23,2071.4 2071.43,2071.4 1142.2,0 2071.43,-929.2 2071.43,-2071.4 0,-1142.2 -929.23,-2071.5 -2071.43,-2071.5"
         style="fill:#3e4651;fill-opacity:1;fill-rule:nonzero;stroke:none"
         id="path414" /><path
         d="m 2324.14,18593.5 c -28.28,0 -51.2,22.9 -51.2,51.2 v 890 c 0,28.2 22.92,51.2 51.2,51.2 28.27,0 51.2,-23 51.2,-51.2 v -890 c 0,-28.3 -22.93,-51.2 -51.2,-51.2"
         style="fill:#3e4651;fill-opacity:1;fill-rule:nonzero;stroke:none"
         id="path416" /><path
         d="m 3863.36,19227.3 c -28.27,0 -51.2,23 -51.2,51.2 v 256.2 c 0,28.2 22.93,51.2 51.2,51.2 28.28,0 51.2,-23 51.2,-51.2 v -256.2 c 0,-28.2 -22.92,-51.2 -51.2,-51.2"
         style="fill:#3e4651;fill-opacity:1;fill-rule:nonzero;stroke:none"
         id="path418" /><path
         d="m 2159.94,19583.1 c -13.1,0 -26.17,5 -36.17,15 -20.03,19.9 -20.03,52.3 -0.06,72.3 l 857.63,858.7 c 62.62,61.2 162.8,61 223.77,0 l 858.65,-858.6 c 20,-20 20,-52.4 0,-72.4 -19.99,-20 -52.39,-20 -72.4,0 l -858.65,858.6 c -21.47,21.5 -57.12,21.3 -79.37,-0.4 l -857.18,-858.2 c -10,-10 -23.09,-15 -36.22,-15"
         style="fill:#3e4651;fill-opacity:1;fill-rule:nonzero;stroke:none"
         id="path420" /><path
         d="M 3312.96,18445.5 H 2159.94 c -28.27,0 -51.2,22.9 -51.2,51.2 0,28.3 22.93,51.2 51.2,51.2 h 1153.02 c 28.28,0 51.2,-22.9 51.2,-51.2 0,-28.3 -22.92,-51.2 -51.2,-51.2"
         style="fill:#3e4651;fill-opacity:1;fill-rule:nonzero;stroke:none"
         id="path422" /><path
         d="m 3093.74,19921.1 c -47.18,0 -85.55,-38.4 -85.55,-85.6 0,-47.1 38.37,-85.5 85.55,-85.5 47.18,0 85.58,38.4 85.58,85.5 0,47.2 -38.4,85.6 -85.58,85.6 z m 0,-273.5 c -103.62,0 -187.95,84.3 -187.95,187.9 0,103.7 84.33,188 187.95,188 103.65,0 187.98,-84.3 187.98,-188 0,-103.6 -84.33,-187.9 -187.98,-187.9"
         style="fill:#3e4651;fill-opacity:1;fill-rule:nonzero;stroke:none"
         id="path424" /><path
         d="m 2533.46,19975 c -28.27,0 -51.2,22.9 -51.2,51.2 v 473.2 c 0,28.3 22.93,51.2 51.2,51.2 28.28,0 51.2,-22.9 51.2,-51.2 v -473.2 c 0,-28.3 -22.92,-51.2 -51.2,-51.2"
         style="fill:#3e4651;fill-opacity:1;fill-rule:nonzero;stroke:none"
         id="path426" /><path
         d="m 2713.19,20167 c -28.28,0 -51.2,22.9 -51.2,51.2 v 281.2 c 0,28.3 22.92,51.2 51.2,51.2 28.27,0 51.2,-22.9 51.2,-51.2 v -281.2 c 0,-28.3 -22.93,-51.2 -51.2,-51.2"
         style="fill:#3e4651;fill-opacity:1;fill-rule:nonzero;stroke:none"
         id="path428" /><path
         d="m 2752.07,20472.6 h -257.46 c -28.27,0 -51.2,23 -51.2,51.2 0,28.3 22.93,51.2 51.2,51.2 h 257.46 c 28.27,0 51.2,-22.9 51.2,-51.2 0,-28.2 -22.93,-51.2 -51.2,-51.2"
         style="fill:#3e4651;fill-opacity:1;fill-rule:nonzero;stroke:none"
         id="path430" /><path
         d="m 3569.69,19310.5 c -228.02,0 -413.55,-185.6 -413.55,-413.6 0,-228 185.53,-413.5 413.55,-413.5 228.02,0 413.55,185.5 413.55,413.5 0,228 -185.53,413.6 -413.55,413.6 z m 0,-929.5 c -284.5,0 -515.95,231.4 -515.95,515.9 0,284.5 231.45,516 515.95,516 284.5,0 515.95,-231.5 515.95,-516 0,-284.5 -231.45,-515.9 -515.95,-515.9"
         style="fill:#3e4651;fill-opacity:1;fill-rule:nonzero;stroke:none"
         id="path432" /><path
         d="m 4176.72,18158.4 c -33.33,0 -66.66,12.6 -92.03,38 l -269.95,271.1 c -19.95,20 -19.9,52.4 0.15,72.4 20.08,19.9 52.48,19.9 72.4,-0.1 l 269.87,-271.1 c 10.81,-10.7 28.35,-10.7 39.16,0.1 5.24,5.3 8.12,12.2 8.12,19.6 0,7.4 -2.88,14.4 -8.12,19.6 l -269.96,271.2 c -19.94,20 -19.9,52.4 0.15,72.4 20.1,19.9 52.5,19.8 72.4,-0.2 l 269.88,-271 c 24.52,-24.5 38.05,-57.2 38.05,-92 0,-34.7 -13.53,-67.4 -38.13,-92 -25.37,-25.4 -58.69,-38 -91.99,-38"
         style="fill:#3e4651;fill-opacity:1;fill-rule:nonzero;stroke:none"
         id="path434" /></g></g></svg>
