<?xml version="1.0" encoding="UTF-8" standalone="no"?>
<!-- Created with Inkscape (http://www.inkscape.org/) -->

<svg
   xmlns:dc="http://purl.org/dc/elements/1.1/"
   xmlns:cc="http://creativecommons.org/ns#"
   xmlns:rdf="http://www.w3.org/1999/02/22-rdf-syntax-ns#"
   xmlns:svg="http://www.w3.org/2000/svg"
   xmlns="http://www.w3.org/2000/svg"
   xmlns:sodipodi="http://sodipodi.sourceforge.net/DTD/sodipodi-0.dtd"
   xmlns:inkscape="http://www.inkscape.org/namespaces/inkscape"
   height="100%"
   id="svg2"
   version="1.1"
   inkscape:version="0.48.4 r9939"
   sodipodi:docname="svg.svg"
   viewBox="0 0 477.3718 145"
   width="100%">
  <defs
     id="defs4">
    <inkscape:perspective
       sodipodi:type="inkscape:persp3d"
       inkscape:vp_x="0 : 526.18109 : 1"
       inkscape:vp_y="0 : 1000 : 0"
       inkscape:vp_z="744.09448 : 526.18109 : 1"
       inkscape:persp3d-origin="372.04724 : 350.78739 : 1"
       id="perspective10" />
    <inkscape:perspective
       id="perspective10-7"
       inkscape:persp3d-origin="0.5 : 0.33333333 : 1"
       inkscape:vp_z="1 : 0.5 : 1"
       inkscape:vp_y="0 : 1000 : 0"
       inkscape:vp_x="0 : 0.5 : 1"
       sodipodi:type="inkscape:persp3d" />
    <inkscape:perspective
       id="perspective2832"
       inkscape:persp3d-origin="0.5 : 0.33333333 : 1"
       inkscape:vp_z="1 : 0.5 : 1"
       inkscape:vp_y="0 : 1000 : 0"
       inkscape:vp_x="0 : 0.5 : 1"
       sodipodi:type="inkscape:persp3d" />
    <inkscape:perspective
       id="perspective2845"
       inkscape:persp3d-origin="62.5 : 41.666667 : 1"
       inkscape:vp_z="125 : 62.5 : 1"
       inkscape:vp_y="0 : 1000 : 0"
       inkscape:vp_x="0 : 62.5 : 1"
       sodipodi:type="inkscape:persp3d" />
    <inkscape:perspective
       id="perspective2861"
       inkscape:persp3d-origin="0.5 : 0.33333333 : 1"
       inkscape:vp_z="1 : 0.5 : 1"
       inkscape:vp_y="0 : 1000 : 0"
       inkscape:vp_x="0 : 0.5 : 1"
       sodipodi:type="inkscape:persp3d" />
    <inkscape:perspective
       sodipodi:type="inkscape:persp3d"
       inkscape:vp_x="0 : 526.18109 : 1"
       inkscape:vp_y="0 : 1000 : 0"
       inkscape:vp_z="744.09448 : 526.18109 : 1"
       inkscape:persp3d-origin="372.04724 : 350.78739 : 1"
       id="perspective3077" />
    <inkscape:perspective
       id="perspective10-4"
       inkscape:persp3d-origin="372.04724 : 350.78739 : 1"
       inkscape:vp_z="744.09448 : 526.18109 : 1"
       inkscape:vp_y="0 : 1000 : 0"
       inkscape:vp_x="0 : 526.18109 : 1"
       sodipodi:type="inkscape:persp3d" />
    <inkscape:perspective
       id="perspective2887"
       inkscape:persp3d-origin="0.5 : 0.33333333 : 1"
       inkscape:vp_z="1 : 0.5 : 1"
       inkscape:vp_y="0 : 1000 : 0"
       inkscape:vp_x="0 : 0.5 : 1"
       sodipodi:type="inkscape:persp3d" />
    <inkscape:perspective
       id="perspective2901"
       inkscape:persp3d-origin="0.5 : 0.33333333 : 1"
       inkscape:vp_z="1 : 0.5 : 1"
       inkscape:vp_y="0 : 1000 : 0"
       inkscape:vp_x="0 : 0.5 : 1"
       sodipodi:type="inkscape:persp3d" />
  </defs>
  <sodipodi:namedview
     id="base"
     pagecolor="#ffffff"
     bordercolor="#666666"
     borderopacity="1.0"
     inkscape:pageopacity="0.0"
     inkscape:pageshadow="2"
     inkscape:zoom="1.9052728"
     inkscape:cx="236.35743"
     inkscape:cy="71.604158"
     inkscape:document-units="px"
     inkscape:current-layer="layer1"
     showgrid="false"
     inkscape:window-width="1855"
     inkscape:window-height="1056"
     inkscape:window-x="65"
     inkscape:window-y="24"
     inkscape:window-maximized="1"
     fit-margin-top="0"
     fit-margin-left="0"
     fit-margin-right="0"
     fit-margin-bottom="0" />
  <metadata
     id="metadata7">
    <rdf:RDF>
      <cc:Work
         rdf:about="">
        <dc:format>image/svg+xml</dc:format>
        <dc:type
           rdf:resource="http://purl.org/dc/dcmitype/StillImage" />
        <dc:title />
      </cc:Work>
    </rdf:RDF>
  </metadata>
  <g
     inkscape:label="Layer 1"
     inkscape:groupmode="layer"
     id="layer1"
     transform="translate(-253.87776,-386.05717)">
    <path
       style="fill:#130900;fill-opacity:1"
       d="m 310.00062,529.88793 c -12.91308,-4.59932 -22.51986,-14.53397 -25.737,-26.61537 -1.71955,-6.45747 -0.44633,-15.73132 3.28963,-23.961 0.84112,-1.85285 1.35861,-3.36881 1.14997,-3.36881 -0.20863,0 -1.853,0.97596 -3.65415,2.16879 -8.64076,5.72249 -21.42787,10.66478 -27.59282,10.66478 -1.97725,0 -3.58755,-0.21657 -3.57845,-0.48126 0.009,-0.2647 1.13628,-0.99706 2.50483,-1.62748 1.36856,-0.63042 5.62025,-4.23986 9.44821,-8.02098 9.35941,-9.24489 11.09695,-10.08316 20.90009,-10.08316 l 7.52339,0 4.66851,-4.57226 c 6.94687,-6.80365 19.9736,-15.07469 30.30671,-19.2426 l 3.17947,-1.28245 -5.42534,-3.85685 -5.42534,-3.85686 -0.1848,5.6802 c -0.11717,3.60152 -0.42092,5.53427 -0.83002,5.28143 -1.51797,-0.93816 -11.15244,-4.03126 -11.63251,-3.73456 -0.28959,0.17898 -0.93884,1.31224 -1.4428,2.51837 -1.30831,3.13123 -5.74062,7.12995 -8.47077,7.64213 -1.25117,0.23472 -2.42267,0.27896 -2.60332,0.0983 -0.18066,-0.18065 0.28198,-1.31619 1.02808,-2.52341 1.61322,-2.61024 1.6698,-3.58086 0.38764,-6.64949 -0.89051,-2.13131 -1.05925,-2.23974 -2.08545,-1.34013 -2.50003,2.19161 -5.52383,3.15228 -10.79371,3.42915 -2.97125,0.15611 -5.40228,0.1733 -5.40228,0.0382 0,-0.13508 0.54879,-1.50953 1.21954,-3.05431 0.67074,-1.54479 1.4136,-4.0098 1.65079,-5.47781 0.46554,-2.88126 0.55923,-2.79054 -3.83285,-3.71099 -2.6857,-0.56284 -8.66266,-2.98281 -8.66266,-3.50736 0,-0.23874 1.22721,-0.78026 2.72713,-1.20338 1.49993,-0.42313 3.16684,-1.13272 3.70425,-1.57687 1.66398,-1.37522 5.76051,-6.67475 5.76051,-7.45216 0,-0.90859 -6.80437,-5.98306 -9.54478,-7.11817 -1.10299,-0.45687 -1.99992,-1.01221 -1.99319,-1.23409 0.0171,-0.56289 8.84336,-4.34905 11.37755,-4.88057 1.147,-0.24057 2.07343,-0.7754 2.05872,-1.18851 -0.0147,-0.41311 -1.00562,-3.63433 -2.20204,-7.15826 -1.19642,-3.52393 -2.028,-6.55445 -1.84796,-6.73449 0.18004,-0.18003 3.93892,1.5251 8.35307,3.78918 6.53056,3.34963 8.13504,3.94676 8.61249,3.20526 1.24663,-1.93605 1.99623,-6.18972 1.66335,-9.4388 l -0.34774,-3.39411 2.36254,1.41104 c 1.2994,0.77608 3.29308,2.09551 4.43041,2.93209 2.31598,1.70355 5.95312,6.66226 5.95312,8.11621 0,0.74752 0.91652,0.93798 4.33133,0.90007 3.51433,-0.039 5.26936,0.34656 9.30433,2.04409 2.73516,1.1507 4.97301,2.32688 4.97301,2.61376 0,0.28687 -1.51596,0.72267 -3.36881,0.96845 -1.85285,0.24577 -4.37238,0.91418 -5.59897,1.48535 l -2.23015,1.03848 6.9614,0.77148 c 3.82877,0.42431 7.23633,1.04641 7.57235,1.38243 0.78416,0.78416 -3.19409,8.69804 -5.75853,11.45534 l -1.88034,2.02176 2.17505,3.24515 c 1.19628,1.78483 3.09391,3.89943 4.21697,4.69911 l 2.04191,1.45398 -3.37723,1.01793 -3.37722,1.01794 4.03892,2.5863 c 6.86925,4.39868 6.53418,4.305 11.31745,3.16425 14.21599,-3.39034 30.35794,-4.84364 40.27148,-3.62575 16.68512,2.04978 27.78955,6.95194 44.06651,19.45361 l 4.8027,3.68876 6.58061,0.6753 c 10.46809,1.07422 21.98123,4.1745 29.32502,7.89668 6.75844,3.4255 7.01252,2.335 1.78826,-7.67521 -2.32753,-4.45978 -4.11863,-8.22193 -3.98023,-8.36034 0.1384,-0.13839 1.3788,0.22376 2.75646,0.8048 1.37765,0.58104 4.23735,1.45967 6.35488,1.95252 2.11754,0.49285 4.3554,1.05135 4.97301,1.24111 0.86468,0.26567 1.12294,-0.0287 1.12294,-1.28 0,-1.72149 1.20838,-5.63864 3.13481,-10.16192 l 1.1658,-2.73731 1.62985,3.20839 c 0.89641,1.76462 2.76753,4.49001 4.15801,6.05643 l 2.5282,2.84803 1.9348,-1.3777 c 3.0312,-2.15837 6.5537,-6.35694 6.9742,-8.31268 1.0203,-4.74524 1.3517,-4.52038 3.5226,2.39012 1.1641,3.70569 2.1529,6.79814 2.1973,6.87211 0.1844,0.30688 8.417,-2.49397 8.9772,-3.05416 1.559,-1.55896 1.9524,-0.42111 1.8107,5.23811 -0.1204,4.81267 -0.4202,6.33858 -1.6926,8.61509 l -1.5462,2.76652 1.829,0.75758 c 1.6109,0.66726 2.4631,0.48632 7.1468,-1.51745 5.2818,-2.25958 16.3361,-5.31317 21.4772,-5.93272 4.693,-0.56555 7.5365,-0.83648 9.187,-0.87533 0.8823,-0.0208 2.3753,-0.6871 3.3178,-1.48074 14.6886,-12.36909 29.2053,-19.41165 44.4873,-21.5824 10.0779,-1.43154 30.558,0.22893 43.2631,3.50765 l 3.479,0.89782 3.9003,-2.21399 c 2.1451,-1.21768 4.6915,-2.7491 5.6585,-3.40314 l 1.7583,-1.18916 -3.2021,-0.82066 c -3.3785,-0.8659 -4.0299,-1.63617 -1.9436,-2.29835 0.6922,-0.21968 2.5271,-2.2142 4.0776,-4.43226 l 2.8192,-4.03285 -1.7471,-1.39095 c -1.3188,-1.04995 -5.7646,-8.86136 -6.6294,-11.64807 -0.1787,-0.57586 6.8681,-1.7998 10.7271,-1.86316 3.1388,-0.0515 3.6447,-0.21074 3.0286,-0.95311 -0.8125,-0.97898 -5.4576,-2.31716 -8.0435,-2.31716 -2.6038,0 -1.9264,-0.99789 1.9108,-2.81474 4.6638,-2.20818 8.9774,-3.14059 12.2722,-2.65267 2.5893,0.38344 2.6828,0.33443 3.1148,-1.63251 0.551,-2.50868 4.1906,-6.63778 7.9771,-9.04981 3.8907,-2.47846 4.5827,-2.39537 3.7955,0.45572 -0.4683,1.69592 -0.3752,3.1214 0.3667,5.61469 1.619,5.44092 1.1647,5.40613 10.3066,0.78923 4.5402,-2.2929 8.3836,-4.04017 8.5409,-3.88282 0.1574,0.15736 -0.2091,1.52373 -0.8143,3.03639 -0.6053,1.51266 -1.7559,4.81412 -2.5569,7.33659 l -1.4564,4.58631 2.1892,0.35526 c 2.4667,0.40029 11.1057,4.22312 11.1057,4.91436 0,0.24708 -1.0828,0.93957 -2.4063,1.53888 -1.3235,0.59931 -3.8163,2.31588 -5.5397,3.81461 -3.7115,3.22774 -3.6654,3.92465 0.551,8.32512 2.0451,2.13443 3.6753,3.18342 5.7649,3.70959 1.6024,0.40348 2.9135,0.94801 2.9135,1.21006 0,0.71587 -6.9442,3.23015 -10.1257,3.66623 l -2.7894,0.38232 0.4357,2.63433 c 0.2396,1.44888 0.9729,4.0609 1.6297,5.80448 0.6567,1.74358 1.1287,3.2056 1.0488,3.24895 -0.08,0.0433 -2.7854,-0.0955 -6.0124,-0.30844 -5.0556,-0.33367 -6.2334,-0.64098 -8.5139,-2.22133 -1.4556,-1.00875 -2.7273,-1.71902 -2.8259,-1.57835 -0.6939,0.98982 -1.7225,4.07226 -1.7225,5.16196 0,0.72413 0.471,2.30903 1.0465,3.52199 0.5756,1.21296 0.9134,2.33858 0.7505,2.50139 -0.1628,0.16282 -1.626,-0.15716 -3.2516,-0.71105 -3.0856,-1.05138 -5.2709,-3.3186 -7.3001,-7.57392 -0.6095,-1.27809 -1.2892,-2.32379 -1.5106,-2.32379 -0.2214,0 -2.9652,0.86626 -6.0975,1.92503 -3.1322,1.05877 -5.7852,1.92504 -5.8955,1.92504 -0.1102,0 -0.2036,-1.37159 -0.2075,-3.04797 0,-1.67639 -0.1805,-4.09683 -0.3925,-5.37875 l -0.3855,-2.33076 -4.2596,3.20166 c -2.3428,1.76091 -4.6206,3.34597 -5.0618,3.52236 -1.2441,0.49742 -0.9493,1.33506 0.6417,1.82347 4.9503,1.51963 18.9074,9.28113 25.5623,14.21513 1.9105,1.41649 5.2779,4.37945 7.4831,6.58435 3.5535,3.55312 4.2101,3.95663 5.7751,3.54899 5.5643,-1.44942 11.8481,-0.68606 16.9456,2.05856 1.6434,0.88485 5.326,4.00847 8.1834,6.94139 2.8575,2.93292 6.3495,6.24665 7.7601,7.36386 10.1867,8.06803 -12.6301,1.95616 -25.849,-6.9241 -2.7245,-1.83024 -4.9536,-3.22344 -4.9536,-3.096 0,0.12743 0.6982,1.49527 1.5516,3.03965 2.0476,3.70548 4.8642,14.19415 4.8648,18.11562 0,14.12456 -11.4359,28.53604 -26.5503,33.45273 -4.6843,1.5238 -6.2185,1.7366 -10.6634,1.4793 -4.566,-0.2643 -5.8566,-0.6419 -10.707,-3.1322 -8.6173,-4.42433 -14.0646,-11.29258 -16.5625,-20.88278 -1.24,-4.76058 -1.2219,-7.6036 0.073,-11.40263 1.3661,-4.00923 6.496,-9.22085 11.4726,-11.65533 3.5051,-1.71466 4.3905,-1.87345 9.882,-1.77232 4.8138,0.0886 6.3689,0.35914 7.7002,1.3394 0.9174,0.67559 2.8711,1.41923 4.3415,1.65253 2.3919,0.37953 3.7693,0.92029 8.2351,3.23301 0.7059,0.36554 4.2431,0.78256 7.8606,0.92673 3.6175,0.14416 6.5772,0.49136 6.5772,0.77155 0,0.28019 -1.4605,1.82252 -3.2455,3.42739 -3.6508,3.28243 -8.7779,5.93715 -12.6678,6.55917 -2.5128,0.40181 -2.5825,0.47765 -1.9371,2.10651 1.0672,2.69297 0.8497,11.52602 -0.3852,15.64621 -0.6082,2.0293 -1.3267,3.68965 -1.5967,3.68965 -0.8642,0 -8.7325,-8.56972 -10.3102,-11.22938 -0.8374,-1.41169 -1.6109,-2.68112 -1.7189,-2.82095 -0.1079,-0.13983 -1.4294,0.87889 -2.9365,2.26384 -1.5072,1.38494 -3.4541,3.01526 -4.3267,3.62292 -1.2389,0.86289 -1.6605,1.83879 -1.925,4.45621 l -0.3387,3.35137 -2.2458,-4.15334 c -2.0155,-3.72734 -2.242,-4.64695 -2.208,-8.96592 0.044,-5.55905 1.4199,-8.8786 4.9746,-11.99965 1.7703,-1.55429 2.0755,-2.15557 1.5612,-3.07467 -0.4276,-0.76412 -0.4181,-1.86369 0.029,-3.31986 l 0.6682,-2.17733 -2.352,0.42581 c -3.5074,0.63495 -7.9319,4.17191 -10.0214,8.01113 -3.1032,5.70145 -2.2346,12.28436 2.5771,19.53358 8.7585,13.19515 23.4726,15.82035 37.2095,6.63875 9.0223,-6.03046 13.1725,-15.08842 12.2655,-26.76995 -0.4277,-5.50779 -2.3554,-13.00046 -4.3767,-17.01106 -3.6168,-7.17657 -11.1727,-15.40245 -19.6395,-21.38117 -2.3785,-1.67953 -4.4689,-3.20791 -4.6454,-3.39639 -0.7935,-0.84756 -7.2066,-3.92795 -12.0576,-5.7916 -5.2196,-2.00527 -5.3527,-2.02215 -7.0584,-0.89564 -0.9562,0.6315 -3.5441,2.0445 -5.7509,3.14001 l -4.0123,1.99183 5.1017,2.00584 c 6.8213,2.68192 14.2077,7.52922 19.2498,12.63267 2.2743,2.30189 3.999,4.3213 3.8327,4.48757 -0.1663,0.16627 -1.5939,0.008 -3.1725,-0.35204 -1.5785,-0.35989 -7.9233,-0.71121 -14.0995,-0.7807 -10.167,-0.11441 -11.4797,-0.2589 -13.8758,-1.52732 -4.7911,-2.53632 -7.5238,-7.34316 -6.3239,-11.12369 0.3864,-1.21749 0.2735,-1.36495 -0.7412,-0.96827 -4.9001,1.91561 -11.8484,3.91702 -18.1535,5.229 -4.085,0.85002 -7.4714,1.54777 -7.5253,1.55057 -0.054,0.003 1.9052,1.93899 4.3535,4.30265 5.7315,5.53336 8.173,10.31281 9.0165,17.65066 0.8865,7.71187 1.6067,9.90971 4.1811,12.75927 1.2639,1.39907 2.1326,2.7093 1.9303,2.91161 -1.0661,1.06612 -9.0833,-3.31364 -13.5143,-7.38284 -2.4076,-2.211 -6.1162,-7.975 -7.5753,-11.77376 -1.6888,-4.39684 -2.5988,-11.20157 -1.954,-14.61243 l 0.5458,-2.88756 -20.9779,0.0107 -20.9779,0.0106 -3.4528,2.94865 c -1.8991,1.62175 -5.2332,4.09884 -7.4091,5.50462 l -3.9561,2.55597 3.165,-0.30411 c 2.646,-0.25426 3.8625,0.0393 7.4187,1.78997 2.3395,1.15174 5.2943,3.02546 6.5662,4.16382 3.5933,3.21597 10.5917,7.79631 13.3195,8.71738 l 2.4683,0.83346 -2.5667,0.79166 c -6.2812,1.93736 -25.2144,0.36074 -30.9931,-2.58088 -4.6666,-2.37557 -6.1504,-4.28886 -5.7339,-7.39397 l 0.3453,-2.57429 -2.3429,1.00731 c -4.6354,1.99304 -9.3392,3.45612 -13.3654,4.15725 -4.4973,0.78318 -4.5523,0.90945 -2.3108,5.31205 1.0867,2.13464 0.3942,2.97435 -2.3877,2.895 -0.8823,-0.0252 -3.1266,0.16516 -4.9874,0.42295 -2.6884,0.37245 -3.3201,0.68061 -3.0764,1.50057 0.3336,1.12237 -1.1167,9.46372 -1.7568,10.10378 -0.2164,0.21646 -1.105,-0.45192 -1.9745,-1.48528 -0.8695,-1.03337 -2.9865,-2.75261 -4.7044,-3.82053 l -3.1235,-1.94168 -1.1671,1.54727 c -1.4752,1.95568 -10.81186,7.95463 -11.42547,7.34103 -0.25199,-0.25199 -0.91306,-3.34296 -1.46904,-6.86881 -0.55598,-3.52586 -1.11294,-6.6994 -1.23767,-7.05232 -0.50028,-1.41546 -2.29508,4.33918 -2.29508,7.35869 0,1.77595 -0.24601,3.229 -0.54668,3.229 -0.86735,0 -4.51135,-8.41076 -5.18657,-11.97116 -0.33757,-1.78004 -0.46579,-3.80235 -0.28491,-4.49401 0.28965,-1.10765 -0.0397,-1.27447 -2.76202,-1.39933 -5.34324,-0.24507 -10.59653,-1.42101 -16.47009,-3.68682 -3.1235,-1.20493 -5.80465,-2.19078 -5.95811,-2.19078 -0.15346,0 0.0199,0.55853 0.38524,1.24117 1.15137,2.15136 0.73147,3.95358 -1.4212,6.09976 -2.68929,2.68118 -7.66128,4.50159 -15.0305,5.50314 -6.42613,0.87339 -19.74742,0.60015 -20.77367,-0.4261 -0.42438,-0.42438 0.64152,-1.29961 3.17233,-2.60485 2.09631,-1.08115 6.65051,-4.12944 10.12046,-6.774 7.14578,-5.446 11.12258,-7.23017 14.96644,-6.7146 1.41457,0.18974 2.57193,0.25395 2.57193,0.14271 0,-0.11124 -1.85132,-1.37147 -4.11404,-2.80051 -2.26272,-1.42903 -5.69725,-3.88779 -7.63229,-5.4639 -3.05807,-2.49083 -3.84187,-2.83401 -5.9924,-2.6237 -4.31015,0.42152 -32.3392,0.34457 -35.67497,-0.0979 -2.93448,-0.38926 -3.16963,-0.32386 -2.84309,0.79086 1.60518,5.47973 0.6876,12.67794 -2.44523,19.18223 -2.55218,5.29876 -5.69036,9.12681 -10.20687,12.45064 -3.46218,2.54793 -9.11369,5.02992 -9.82759,4.31602 -0.2327,-0.23269 0.4694,-1.35722 1.56023,-2.49893 2.53225,-2.65038 4.0249,-6.2932 4.0249,-9.82276 0,-9.08435 4.23367,-17.00576 12.7273,-23.81343 l 1.49793,-1.2006 -8.23556,-1.78558 c -4.52955,-0.98208 -10.62486,-2.60252 -13.54514,-3.60097 l -5.3096,-1.81538 0.37916,2.02112 c 0.48965,2.61007 -0.56404,5.33529 -3.06565,7.9289 -3.19387,3.31131 -6.31921,3.96851 -20.06159,4.21857 -6.70554,0.12202 -12.73081,0.46089 -13.38948,0.75306 -3.18062,1.41081 3.18543,-5.71032 8.83756,-9.8858 4.10589,-3.03319 12.91187,-7.5878 15.77921,-8.16126 1.05992,-0.21199 1.92126,-0.5659 1.9141,-0.78648 -0.007,-0.22057 -2.53513,-1.72954 -5.61769,-3.35325 l -5.60468,-2.95222 -3.20539,1.09166 c -8.00149,2.72506 -15.05012,6.82398 -22.96021,13.35181 -12.50475,10.31959 -18.55362,21.26798 -19.4692,35.239 -0.80078,12.21928 2.52824,19.74002 11.50858,25.99961 6.54315,4.56077 10.16527,5.84457 16.56573,5.87137 5.11945,0.021 5.89663,-0.1561 10.37697,-2.37037 5.75124,-2.84241 9.71439,-6.91315 12.76668,-13.11323 2.88573,-5.86174 3.19788,-10.915 0.94846,-15.35402 -2.38883,-4.71413 -5.91832,-7.60317 -10.69652,-8.75555 -1.56443,-0.3773 -1.60294,-0.30137 -1.55384,3.06325 0.0442,3.02505 0.29057,3.65227 2.00007,5.09071 4.97381,4.18518 6.40915,13.96951 3.02928,20.64971 -2.70094,5.33831 -3.47551,5.64767 -3.47551,1.38808 0,-3.33694 -0.13265,-3.62971 -2.40629,-5.31068 -1.32346,-0.97847 -3.2897,-2.60418 -4.36942,-3.61269 l -1.96312,-1.83367 -1.06215,2.22736 c -1.06898,2.24168 -9.80988,11.90419 -10.76877,11.90419 -0.70298,0 -2.39687,-6.01396 -2.89867,-10.2914 -0.36104,-3.07755 0.1472,-6.60643 1.43471,-9.96161 0.25628,-0.66785 -0.14603,-0.92238 -1.45786,-0.92238 -4.07598,0 -10.97777,-3.55728 -14.64045,-7.54589 l -2.20401,-2.40013 5.56983,-0.41407 c 5.35946,-0.39844 8.23362,-1.19247 14.0462,-3.88045 1.4857,-0.68705 3.25929,-1.15687 3.94132,-1.04404 0.68203,0.11282 1.87831,-0.37238 2.65842,-1.07822 1.17548,-1.0636 2.5173,-1.32148 7.83589,-1.50599 6.13137,-0.2127 6.59339,-0.13322 10.36145,1.78252 5.08211,2.58385 8.74637,6.00625 10.7159,10.0086 1.28119,2.60358 1.5572,4.09651 1.50119,8.11987 -0.0593,4.2583 -0.38581,5.59762 -2.39718,9.83301 -4.18298,8.80816 -11.58817,15.56479 -19.62814,17.90909 -4.60285,1.3421 -12.31426,1.2374 -16.41425,-0.2229 z"
       id="path3157" />
    <path
       style="fill:#ef286f;fill-opacity:1"
       d="m 675.25902,508.59849 c -0.1694,-6.18689 -1.4267,-9.05908 -4.8379,-11.0513 -2.0396,-1.1912 -2.1216,-1.19179 -3.4115,-0.0244 -2.5767,2.33187 -0.3692,9.04003 5.0197,15.25396 3.0326,3.49693 3.4259,2.98817 3.2297,-4.17824 z"
       id="path3155" />
    <path
       style="fill:#c1a72c;fill-opacity:1"
       d="m 320.03193,506.20885 c 0.66306,-1.52918 1.20556,-4.05029 1.20556,-5.60245 0,-2.47731 -0.19658,-2.87148 -1.60887,-3.22593 -2.05479,-0.51573 -4.43761,1.01034 -5.85387,3.74908 -1.1994,2.31938 -1.92809,9.67858 -1.2327,12.44925 l 0.45312,1.80536 2.91561,-3.19749 c 1.60358,-1.75862 3.4581,-4.44863 4.12115,-5.97782 z"
       id="path3153" />
    <path
       style="fill:#c1a72c;fill-opacity:1"
       d="m 334.31539,507.44547 c -0.15168,-1.2685 -0.99953,-3.79719 -1.88413,-5.61932 -1.66542,-3.43056 -3.994,-4.96043 -6.53767,-4.29524 -1.0486,0.27421 -1.15344,0.72926 -0.80098,3.47667 0.43836,3.41698 1.76251,5.25758 6.0449,8.40256 2.88257,2.11696 3.61202,1.66598 3.17788,-1.96467 z"
       id="path3151" />
    <path
       style="fill:#ef286f;fill-opacity:1"
       d="m 657.24892,508.65465 c 1.8797,-1.41922 3.855,-3.42617 4.3896,-4.45988 1.3302,-2.57232 1.2774,-6.35799 -0.096,-6.885 -1.6865,-0.64716 -5.4514,1.82171 -6.8082,4.4646 -1.1822,2.30265 -2.1773,9.46069 -1.3152,9.46069 0.2265,0 1.9499,-1.16118 3.8297,-2.58041 z"
       id="path3149" />
    <path
       style="fill:#e14da7;fill-opacity:1"
       d="m 493.27342,496.8359 c 1.0224,-1.03754 1.8587,-2.33694 1.8584,-2.88755 -6e-4,-1.09109 -2.0592,-6.80399 -2.673,-7.41777 -0.2088,-0.20883 -1.714,0.26857 -3.34482,1.06089 -2.71749,1.32025 -2.96514,1.63534 -2.96514,3.7724 0,1.28251 0.32732,3.96169 0.72738,5.95374 l 0.72738,3.6219 1.9055,-1.10859 c 1.048,-0.60972 2.7419,-1.95748 3.7643,-2.99502 z"
       id="path3147" />
    <path
       style="fill:#e14da7;fill-opacity:1"
       d="m 505.90262,490.72045 c -0.2813,-4.73968 -1.3528,-7.83531 -3.4319,-9.91435 -0.95,-0.95001 -1.188,-0.90316 -2.9517,0.58088 -1.0551,0.88782 -2.3294,1.61423 -2.8317,1.61423 -1.1798,0 -1.1579,1.71204 0.066,5.18132 1.155,3.27368 2.1966,4.54029 6.079,7.39198 3.415,2.50832 3.4992,2.37507 3.0702,-4.85406 z"
       id="path3145" />
    <path
       style="fill:#c1a72c;fill-opacity:1"
       d="m 314.42466,494.98987 c 1.76778,-1.41457 1.81343,-1.58087 1.0292,-3.74962 l -0.82062,-2.2694 -3.27508,1.27183 c -1.80129,0.69951 -5.15199,1.76019 -7.44599,2.35708 l -4.17091,1.08525 3.52923,1.36229 c 4.81618,1.85905 8.78467,1.83861 11.15417,-0.0574 z"
       id="path3143" />
    <path
       style="fill:#ef286f;fill-opacity:1"
       d="m 681.92542,495.78188 c 3.8358,-1.22144 5.1823,-2.0456 4.2789,-2.61897 -0.4479,-0.28428 -1.3437,-0.5213 -1.9908,-0.5267 -0.647,-0.005 -3.3586,-0.88361 -6.0257,-1.95158 -2.6671,-1.06796 -4.8809,-1.86204 -4.9195,-1.76461 -0.039,0.0974 -0.5616,1.11467 -1.1621,2.26054 l -1.0919,2.0834 2.3638,1.60625 c 2.5529,1.73476 5.107,2.00719 8.5473,0.91167 z"
       id="path3141" />
    <path
       style="fill:#e14da7;fill-opacity:1"
       d="m 486.79053,484.75251 c 3.57549,-1.64381 3.97739,-1.9897 2.81539,-2.4228 -0.74556,-0.27787 -2.04496,-1.37447 -2.88757,-2.43687 l -1.53201,-1.93165 -2.88496,1.39708 c -3.52843,1.70868 -4.47262,3.47753 -4.48489,8.40206 l -0.009,3.79659 2.4063,-2.44342 c 1.32346,-1.34388 4.2832,-3.30633 6.5772,-4.36099 z"
       id="path3139" />
    <path
       style="fill:#e14da7;fill-opacity:1"
       d="m 515.39082,487.92637 c 0.1794,-0.46747 -0.2588,-2.21445 -0.9736,-3.8822 l -1.2998,-3.03226 -3.2174,0.1468 c -3.0135,0.13751 -3.963,0.66431 -2.6547,1.47288 0.3095,0.1913 0.8912,1.65211 1.2926,3.24626 l 0.7298,2.89847 2.8985,0 c 1.8138,0 3.0205,-0.31806 3.2246,-0.84995 z"
       id="path3137" />
    <path
       style="fill:#e14da7;fill-opacity:1"
       d="m 479.55199,475.21304 c -0.49387,-0.27638 -1.58329,-1.05747 -2.42093,-1.73575 -1.34393,-1.08825 -1.75205,-1.13522 -3.47147,-0.39955 -1.07168,0.45853 -2.88695,1.18138 -4.03395,1.60635 -1.147,0.42497 -2.08546,1.01171 -2.08546,1.30385 0,0.7997 3.92055,3.56109 5.99922,4.22548 1.63072,0.52122 2.10295,0.30974 4.36943,-1.95674 1.95654,-1.95653 2.33454,-2.65672 1.64316,-3.04364 z"
       id="path3135" />
    <path
       style="fill:#ffffff;fill-opacity:1"
       d="m 525.48132,478.84294 c 5.1303,-1.74395 8.8924,-3.48094 13.606,-6.28192 4.7516,-2.82355 11.3985,-7.57158 11.0657,-7.90442 -0.5372,-0.5372 -10.5657,1.2944 -16.6263,3.03664 -6.8117,1.95814 -6.8532,1.9822 -8.7862,5.09167 -1.2221,1.96605 -3.1462,3.86512 -5.1902,5.12282 -1.7865,1.09924 -3.1079,2.22554 -2.9365,2.50291 0.3794,0.61394 4.693,-0.14866 8.8675,-1.5677 z"
       id="path3133" />
    <path
       style="fill:#ffffff;fill-opacity:1"
       d="m 465.2149,478.34904 c -2.086,-2.24779 -4.0915,-5.24021 -4.0915,-6.10494 0,-0.29447 1.08283,-0.43527 2.40629,-0.31288 1.75038,0.16185 2.13787,0.0517 1.42156,-0.40424 -2.16412,-1.37738 -14.72041,-5.11297 -19.54898,-5.81597 -8.6015,-1.2523 -8.10606,-1.23165 -7.33771,-0.30584 1.53989,1.85545 12.12834,8.57381 16.64205,10.55935 3.94583,1.73575 10.94513,4.28936 12.15735,4.43547 0.15746,0.019 -0.58461,-0.90395 -1.64906,-2.05095 z"
       id="path3131" />
    <path
       style="fill:#e14da7;fill-opacity:1"
       d="m 514.22292,476.58203 c 2.012,-0.70716 4.2043,-1.83186 4.8717,-2.49932 1.1903,-1.1903 1.1414,-1.23521 -2.5513,-2.34256 -4.7956,-1.43812 -10.3216,-1.87828 -12.5879,-1.00269 -1.5112,0.58388 -1.7646,1.04492 -1.7646,3.2109 0,2.17501 0.2471,2.61936 1.7646,3.17361 2.8164,1.02863 6.3304,0.84383 10.2675,-0.53994 z"
       id="path3129" />
    <path
       style="fill:#e14da7;fill-opacity:1"
       d="m 485.50718,472.56247 c 0,-0.44746 0.71207,-1.86147 1.58238,-3.14224 l 1.58237,-2.32867 -1.88434,-2.60126 c -1.55555,-2.14736 -2.60361,-2.82342 -6.00651,-3.87446 -4.98961,-1.54113 -8.74915,-2.28635 -8.74915,-1.73425 0,0.22385 1.36488,2.75603 3.03307,5.62707 1.89681,3.26452 3.97617,5.90325 5.55054,7.04372 2.64805,1.91824 4.89164,2.38153 4.89164,1.01009 z"
       id="path3127" />
    <path
       style="fill:#e14da7;fill-opacity:1"
       d="m 501.87962,466.18784 c 1.9287,-2.91448 2.8196,-9.07219 1.9687,-13.6078 l -0.4318,-2.30159 -4.6979,4.00907 c -4.9534,4.2271 -7.4363,7.64505 -7.4363,10.23675 0,1.39534 0.2718,1.55961 2.559,1.54625 1.6582,-0.01 3.183,0.47041 4.3314,1.36376 0.9747,0.75829 1.806,1.39475 1.8474,1.41435 0.041,0.0196 0.8781,-1.17775 1.8595,-2.66079 z"
       id="path3125" />
    <path
       style="fill:#e14da7;fill-opacity:1"
       d="m 512.72162,464.34308 c 1.9025,-2.26093 2.4856,-4.08333 2.1896,-6.84337 l -0.2077,-1.93697 -3.5292,1.06839 -3.5292,1.0684 -0.4143,3.18608 c -0.2278,1.75235 -0.6197,3.69141 -0.8708,4.30902 -0.3898,0.95889 -0.08,1.12294 2.1219,1.12294 2.0914,0 2.8921,-0.37288 4.2397,-1.97449 z"
       id="path3123" />
    <path
       style="fill:#e14da7;fill-opacity:1"
       d="m 489.70352,458.56832 c 1.0203,-1.97312 1.0193,-1.97579 -1.92732,-5.12595 l -2.94815,-3.15182 -0.62295,1.6385 c -0.89531,2.35484 -0.78628,6.04379 0.17914,6.06097 0.44115,0.008 1.52399,0.57894 2.40629,1.26909 0.88231,0.69015 1.66897,1.26123 1.74814,1.26908 0.0792,0.008 0.60333,-0.87409 1.16485,-1.95987 z"
       id="path3121" />
    <path
       style="fill:#ffffff;fill-opacity:1"
       d="m 421.33933,459.19039 c 0,-0.76422 -6.62451,-5.06575 -12.19189,-7.91663 -2.64692,-1.3554 -5.10134,-2.6735 -5.45427,-2.92912 -1.71213,-1.24003 -14.1946,-5.08267 -19.89203,-6.12362 -8.85743,-1.61828 -25.50328,-1.65147 -33.04644,-0.0659 -8.62986,1.81403 -8.41936,1.64258 -4.46194,3.63415 14.28724,7.19005 36.49665,12.77816 54.19202,13.63525 7.97241,0.38615 20.85455,0.24152 20.85455,-0.23415 z"
       id="path3119" />
    <path
       style="fill:#ffffff;fill-opacity:1"
       d="m 598.12172,458.24035 c 9.8542,-1.21913 17.3926,-2.95375 26.6039,-6.12169 8.9014,-3.06137 19.2761,-7.54456 19.2761,-8.3297 0,-0.3145 -0.1402,-0.57181 -0.3117,-0.57181 -0.1714,0 -4.1418,-0.61432 -8.823,-1.36514 -7.0977,-1.13839 -10.0569,-1.29905 -17.8158,-0.96725 -17.0217,0.72793 -29.0014,4.35837 -44.2758,13.41789 -2.9998,1.77926 -5.8609,3.55015 -6.3579,3.93532 -0.6692,0.51865 1.5777,0.78352 8.6627,1.02114 10.8729,0.36466 12.4077,0.2968 23.0415,-1.01876 z"
       id="path3117" />
    <path
       style="fill:#9fa117;fill-opacity:1"
       d="m 686.83962,442.41505 c 1.3857,-3.86411 1.887,-9.9738 1.0684,-13.0209 -0.2909,-1.08278 -0.7628,-1.26686 -2.7184,-1.06029 -3.2868,0.34722 -3.9705,1.52827 -3.9705,6.85896 0,3.62402 0.3422,5.25066 1.6616,7.89834 0.9138,1.83391 1.8549,3.33438 2.0912,3.33438 0.2362,0 1.0767,-1.80472 1.8677,-4.01049 z"
       id="path3113" />
    <path
       style="fill:#9fa117;fill-opacity:1"
       d="m 702.15302,438.57823 -0.7452,-3.35555 -3.8502,-1.00672 c -2.1176,-0.55369 -4.1755,-1.20775 -4.573,-1.45345 -0.478,-0.29542 -0.8061,0.42559 -0.9684,2.12845 -0.2099,2.20017 0.037,2.84231 1.6975,4.4094 2.3515,2.21963 3.1043,2.51755 6.5263,2.58277 l 2.6581,0.0507 -0.7451,-3.35555 z"
       id="path3109" />
    <path
       style="fill:#9fa117;fill-opacity:1"
       d="m 673.94002,440.16917 3.4197,-1.12293 0,-2.9372 0,-2.93719 -3.8119,0.93125 c -2.0966,0.51219 -3.9299,1.25641 -4.0741,1.65383 -0.3432,0.94584 0.2221,5.53518 0.6818,5.53518 0.1955,0 1.8944,-0.50532 3.7752,-1.12294 z"
       id="path3105" />
    <path
       style="fill:#9fa117;fill-opacity:1"
       d="m 674.77882,429.9734 c 1.2223,-0.50717 2.7141,-1.36709 3.315,-1.91094 1.024,-0.92672 0.9953,-1.1323 -0.4577,-3.27347 -0.8528,-1.25655 -1.5504,-2.5331 -1.5504,-2.83678 0,-0.98071 -3.4505,-0.55959 -6.4168,0.78315 -3.2771,1.48341 -6.1104,3.95485 -7.4304,6.48146 -0.8404,1.60851 -0.8053,1.73913 0.5385,2.00176 2.4362,0.47613 9.6595,-0.27328 12.0018,-1.24518 z"
       id="path3101" />
    <path
       style="fill:#9fa117;fill-opacity:1"
       d="m 706.35682,430.62122 2.3581,-0.38992 -3.584,-4.25519 c -5.867,-6.96581 -7.6538,-8.4261 -10.3099,-8.4261 -0.9603,0 -1.318,0.57388 -1.5813,2.53666 -0.1871,1.39517 -0.9479,3.39006 -1.6906,4.43309 l -1.3504,1.89642 1.9764,1.66305 c 1.0871,0.91467 2.7483,1.83259 3.6916,2.03982 0.9434,0.20723 2.0039,0.47311 2.3569,0.59084 1.104,0.36829 5.6706,0.31851 8.1332,-0.0887 z"
       id="path3097" />
    <path
       style="fill:#9fa117;fill-opacity:1"
       d="m 670.69992,418.54857 2.6353,-0.69162 -1.3055,-3.43571 -1.3055,-3.43571 -5.8215,0.45298 c -3.2018,0.24914 -5.9378,0.56707 -6.0799,0.70651 -0.1421,0.13944 0.5901,1.62574 1.627,3.3029 2.0716,3.35083 4.3534,4.87037 6.3315,4.21649 0.7059,-0.23332 2.4692,-0.73545 3.9186,-1.11584 z"
       id="path3093" />
    <path
       style="fill:#9fa117;fill-opacity:1"
       d="m 705.47642,415.14371 c 1.6743,-1.32346 3.1818,-2.66928 3.3499,-2.99072 0.3081,-0.5888 -3.3211,-2.16364 -5.1949,-2.25431 -0.5549,-0.0268 -1.7821,1.13211 -2.7271,2.57547 l -1.7182,2.62429 1.4438,1.20443 c 0.794,0.66244 1.5244,1.21405 1.623,1.22579 0.099,0.0117 1.5492,-1.06148 3.2235,-2.38495 z"
       id="path3089" />
    <path
       style="fill:#9fa117;fill-opacity:1"
       d="m 681.30692,409.53802 c -0.7128,-4.28378 -4.1505,-6.74662 -9.4173,-6.74662 l -3.6772,0 1.712,1.34666 c 1.7769,1.39765 4.1436,5.58859 5.4694,9.68488 l 0.7667,2.36888 2.6807,-2.68073 c 1.747,-1.74702 2.6058,-3.13085 2.4657,-3.97307 z"
       id="path3085" />
    <path
       style="fill:#9fa117;fill-opacity:1"
       d="m 698.01352,410.61754 c 0.6709,-1.05969 1.7679,-3.90377 2.4378,-6.3202 0.6698,-2.41642 1.4274,-4.93923 1.6836,-5.60624 0.3634,-0.94607 -0.7915,-0.53639 -5.252,1.863 -6.6918,3.59969 -8.2923,4.91243 -9.9642,8.17283 -1.2212,2.38133 -1.2209,2.40629 0.022,2.40629 0.6908,0 2.0653,0.82115 3.0545,1.82478 l 1.7984,1.82477 2.4999,-1.11926 c 1.375,-0.6156 3.0489,-1.98628 3.7199,-3.04597 z"
       id="path3083" />
    <g
       id="g3159"
       style="fill:#ff9300;fill-opacity:1">
      <path
         id="path3115"
         d="m 305.3201,441.67119 c 1.2208,-2.94785 1.51482,-10.06506 0.49453,-11.97148 -0.48443,-0.90517 -1.34967,-1.24117 -3.19616,-1.24117 -2.21698,0 -2.59212,0.21949 -3.01587,1.76462 -0.84592,3.08445 -0.38896,8.17052 1.02032,11.35643 0.75032,1.69623 1.37936,3.69704 1.39787,4.44626 0.0327,1.32049 0.067,1.31487 1.12294,-0.18375 0.5991,-0.85028 1.57847,-2.72719 2.17637,-4.17091 z"
         style="fill:#ff9300;fill-opacity:1" />
      <path
         id="path3111"
         d="m 292.62878,440.18984 c 2.36407,-1.65756 2.64003,-2.13694 2.81776,-4.89478 l 0.19702,-3.05726 -1.80122,0.92204 c -0.99067,0.50713 -3.00581,1.12213 -4.47809,1.36668 -2.87563,0.47764 -3.19131,0.89962 -4.03756,5.39708 l -0.52731,2.80239 2.60434,-0.34931 c 1.43238,-0.19212 3.78366,-1.1762 5.22506,-2.18684 z"
         style="fill:#ff9300;fill-opacity:1" />
      <path
         id="path3107"
         d="m 317.89818,438.01179 0.18991,-2.85916 -3.67514,-0.77087 c -2.02132,-0.42398 -3.73858,-0.70293 -3.81612,-0.61991 -0.0776,0.083 -0.24173,1.27785 -0.36486,2.65517 -0.22197,2.48306 -0.19677,2.51376 2.98454,3.63715 1.76462,0.62312 3.49715,1.06181 3.85007,0.97486 0.35292,-0.0869 0.72714,-1.4447 0.8316,-3.01724 z"
         style="fill:#ff9300;fill-opacity:1" />
      <path
         id="path3103"
         d="m 325.44756,430.96189 c 0.69468,-1.12402 -3.06465,-5.89995 -5.86109,-7.44605 -3.20685,-1.77302 -7.97416,-2.64362 -7.97416,-1.45624 0,0.45294 -0.72129,1.76921 -1.60288,2.92503 -1.45912,1.91301 -1.51219,2.1922 -0.59165,3.11275 0.55619,0.55618 1.57968,1.31546 2.27444,1.68728 3.03845,1.62613 12.95347,2.47469 13.75534,1.17723 z"
         style="fill:#ff9300;fill-opacity:1" />
      <path
         id="path3099"
         d="m 290.98832,430.40947 c 1.18092,-0.33869 3.11581,-1.35464 4.29975,-2.25768 l 2.15263,-1.64188 -1.57685,-2.32362 c -0.86727,-1.27799 -1.57685,-3.15866 -1.57685,-4.17925 0,-1.12355 -0.41279,-2.01403 -1.0463,-2.25713 -1.57927,-0.60603 -5.27968,1.68358 -7.87232,4.87095 -1.27092,1.56246 -3.26303,3.92636 -4.42693,5.25312 -2.09451,2.38761 -2.10108,2.41517 -0.64167,2.6944 2.81584,0.53874 8.55339,0.45344 10.68854,-0.15891 z"
         style="fill:#ff9300;fill-opacity:1" />
      <path
         id="path3095"
         d="m 324.77508,418.44287 c 2.04752,-2.20932 4.21484,-5.92244 3.64906,-6.25172 -0.24696,-0.14373 -2.94668,-0.46407 -5.99938,-0.71187 l -5.55035,-0.45054 -1.26758,3.39801 -1.26757,3.39802 2.96785,1.0602 c 4.304,1.5375 5.71051,1.45424 7.46797,-0.4421 z"
         style="fill:#ff9300;fill-opacity:1" />
      <path
         id="path3091"
         d="m 286.82535,416.46198 1.44242,-1.08802 -1.32172,-2.43591 c -1.10186,-2.03074 -1.66166,-2.4368 -3.3654,-2.44121 -1.12402,-0.003 -2.83493,0.29554 -3.802,0.66322 l -1.75833,0.66851 3.16033,2.83196 c 1.73818,1.55758 3.39476,2.84491 3.6813,2.86072 0.28654,0.0158 1.17007,-0.46085 1.9634,-1.05927 z"
         style="fill:#ff9300;fill-opacity:1" />
      <path
         id="path3087"
         d="m 312.8495,412.23449 c 0.738,-2.21769 2.19509,-5.06734 3.238,-6.33255 1.04289,-1.26522 1.71389,-2.48268 1.4911,-2.70547 -0.86257,-0.86256 -5.10309,-0.33971 -7.09509,0.87482 -2.22846,1.35871 -4.63994,4.75346 -4.6439,6.53743 -10e-4,0.59384 0.56761,1.26061 1.26428,1.48173 0.69668,0.22112 1.87136,1.25122 2.61041,2.28911 0.73905,1.0379 1.4449,1.88709 1.56855,1.88709 0.12366,0 0.82865,-1.81447 1.56665,-4.03216 z"
         style="fill:#ff9300;fill-opacity:1" />
      <path
         id="path3081"
         d="m 298.31124,412.60369 c 1.49236,-0.95586 2.84509,-1.83352 3.00607,-1.95037 0.86389,-0.62701 -2.54374,-4.95666 -5.37066,-6.82386 -3.55092,-2.34538 -10.01784,-5.73957 -10.31248,-5.41253 -0.2406,0.26705 3.19211,11.6676 3.81809,12.68045 0.62901,1.01778 4.28042,3.23875 5.32975,3.24184 0.44872,10e-4 2.03688,-0.77967 3.52923,-1.73553 z"
         style="fill:#ff9300;fill-opacity:1" />
      <path
         id="path3079"
         d="m 306.32398,402.67274 c 1.96091,-2.11366 1.64737,-4.00112 -1.20419,-7.24887 -2.21919,-2.52751 -3.13265,-2.83539 -3.13265,-1.05586 0,0.66099 -0.59199,2.54008 -1.31553,4.17576 l -1.31552,2.97396 2.11559,2.51991 c 1.81788,2.1653 2.1957,2.36779 2.68477,1.43894 0.31305,-0.59454 1.28844,-1.85627 2.16753,-2.80384 z"
         style="fill:#ff9300;fill-opacity:1" />
    </g>
    <path
       style="fill:#9fa117;fill-opacity:1"
       d="m 686.70602,397.39567 c -0.7209,-2.14973 -1.4072,-4.052 -1.5251,-4.22727 -0.4034,-0.59975 -4.5627,4.42449 -4.9543,5.98457 -0.2899,1.15508 0.161,2.28922 1.7446,4.38798 l 2.1354,2.83029 1.9551,-2.53348 1.955,-2.53349 -1.3107,-3.9086 z"
       id="path3077" />
    <path
       style="fill:#000000"
       d="m 395.99303,518.9352 c -0.21812,-0.35292 -0.10782,-0.64168 0.2451,-0.64168 0.35293,0 0.82014,0.28876 1.03826,0.64168 0.21812,0.35293 0.10782,0.64168 -0.2451,0.64168 -0.35293,0 -0.82014,-0.28875 -1.03826,-0.64168 z"
       id="path3075" />
    <path
       style="fill:#130900;fill-opacity:1"
       d="m 413.37264,445.94104 c -5.52317,-4.20801 -5.8294,-5.33526 -5.8294,-21.45833 l 0,-13.92185 1.7722,1.69685 c 4.37712,4.19104 11.56671,16.51805 13.57169,23.26955 1.59987,5.38736 1.35981,8.4726 -0.84273,10.83041 -2.53249,2.71104 -4.7035,2.60674 -8.67176,-0.41663 z"
       id="path3073" />
    <path
       style="fill:#130900;fill-opacity:1"
       d="m 567.86942,447.9065 c -2.1336,-0.41734 -3.5569,-2.44031 -3.9079,-5.55416 -0.7217,-6.40254 6.2738,-21.29009 14.1048,-30.01732 l 2.0884,-2.32744 -0.062,13.87765 c -0.067,15.12995 -0.3439,16.5806 -3.8724,20.32049 -2.1916,2.32299 -5.0043,4.17882 -6.1495,4.05747 -0.4536,-0.0481 -1.4442,-0.20857 -2.2014,-0.35669 z"
       id="path3030" />
  </g>
</svg>
