<?xml version="1.0" encoding="UTF-8" standalone="no"?>
<svg id="svg13124" xmlns:rdf="http://www.w3.org/1999/02/22-rdf-syntax-ns#" xmlns="http://www.w3.org/2000/svg" version="1.1" xmlns:cc="http://creativecommons.org/ns#" xmlns:dc="http://purl.org/dc/elements/1.1/" viewBox="0 0 85 76">
 <metadata id="metadata13129">
  <rdf:RDF>
   <cc:Work rdf:about="">
    <dc:format>image/svg+xml</dc:format>
    <dc:type rdf:resource="http://purl.org/dc/dcmitype/StillImage"/>
    <dc:title/>
   </cc:Work>
  </rdf:RDF>
 </metadata>
 <g id="layer1" transform="translate(-8.9648 -968.24)">
  <path id="path10739" d="m32.477 1003.1h37.901c0.5975 13.091 2.2675 25.645 6.9175 41.171h9.7525c-4.97-15.76-6.7275-28-7.345-41.171h6.6238 0.19625v-7.5225h-0.19625-6.8638c-0.07-3.6112-0.09-7.3438-0.095-11.285h6.6738s-0.18375-2.575 1.3488-2.575c5.0288 0 6.5012-12.634 6.5012-12.634s-9.445 2.4538-13.37 2.4538h-58.188c-3.925 0-13.37-2.4538-13.37-2.4538s1.4712 12.634 6.5012 12.634c1.5325 0 1.3488 2.575 1.3488 2.575h6.6725c-0.005 3.9412-0.02375 7.6738-0.09375 11.285h-6.865-0.19625v7.5225h0.19625 6.625c-0.6175 13.171-2.375 25.411-7.3462 41.171h9.7538c4.6488-15.526 6.32-28.08 6.9162-41.171m22.974-18.808h14.596c0.005 3.8988 0.02375 7.6362 0.095 11.285h-14.691v-11.285m-22.642 0h14.598v11.285h-14.692c0.07125-3.6488 0.09-7.3862 0.095-11.285"/>
 </g>
</svg>
