<?xml version="1.0" encoding="UTF-8" standalone="no"?>
<svg
   xmlns:dc="http://purl.org/dc/elements/1.1/"
   xmlns:cc="http://creativecommons.org/ns#"
   xmlns:rdf="http://www.w3.org/1999/02/22-rdf-syntax-ns#"
   xmlns:svg="http://www.w3.org/2000/svg"
   xmlns="http://www.w3.org/2000/svg"
   xmlns:sodipodi="http://sodipodi.sourceforge.net/DTD/sodipodi-0.dtd"
   xmlns:inkscape="http://www.inkscape.org/namespaces/inkscape"
   width="100%"
   height="100%"
   viewBox="-0 -70 424 480"
   style="overflow:visible"
   xml:space="preserve"
   id="svg9880"
   sodipodi:version="0.32"
   inkscape:version="0.46"
   sodipodi:docname="wayne.svg"
   inkscape:output_extension="org.inkscape.output.svg.inkscape"><metadata
   id="metadata9940"><rdf:RDF><cc:Work
       rdf:about=""><dc:format>image/svg+xml</dc:format><dc:type
         rdf:resource="http://purl.org/dc/dcmitype/StillImage" /></cc:Work></rdf:RDF></metadata><defs
   id="defs9938"><inkscape:perspective
   sodipodi:type="inkscape:persp3d"
   inkscape:vp_x="0 : 0.5 : 1"
   inkscape:vp_y="0 : 1000 : 0"
   inkscape:vp_z="1 : 0.5 : 1"
   inkscape:persp3d-origin="0.5 : 0.33333333 : 1"
   id="perspective9942" />
    
    
    
    
    
    
    
    
    
    
    
    
    
    
    
    
    
    
    
  </defs><sodipodi:namedview
   inkscape:window-height="829"
   inkscape:window-width="1440"
   inkscape:pageshadow="2"
   inkscape:pageopacity="0.0"
   guidetolerance="10.0"
   gridtolerance="10.0"
   objecttolerance="10.0"
   borderopacity="1.0"
   bordercolor="#666666"
   pagecolor="#ffffff"
   id="base"
   showgrid="false"
   inkscape:zoom="0.68059028"
   inkscape:cx="-145.18433"
   inkscape:cy="407.47304"
   inkscape:window-x="0"
   inkscape:window-y="25"
   inkscape:current-layer="svg9880" />
  <style
   type="text/css"
   id="style9882">
  .label { font-family: &quot;English 111 Presto BT&quot;; font-size:100px; }
  .name { font-family: &quot;Onyx&quot;; font-size: 90px; }
  .whiteout { fill: white; }
  </style>
  <style
   type="text/css"
   id="style9884">
    @font-face {
      font-family: &quot;English 111 Presto BT&quot;;
      src: url(&quot;fonts/english_111_presto.ttf&quot;);
    }
    @font-face {
      font-family: &quot;Onyx&quot;;
      src: url(&quot;fonts/onyx.ttf&quot;);
    }
  </style>
  <g
   id="g10480"><path
     d="M 309.51,98.7 C 313.3,91.95 306.53,98.48 314.99,93.79 C 317.26,91.51 338.71,74.45 339.83,71.33 C 317.7,64.26 361.77,40.37 358.22,36.26 C 355.61,38.61 385.57,12.58 370.22,40.54 C 367.27,38.1 350.14,53.31 350.88,60.08 C 356.49,59.36 378.92,38.31 373.51,35.67 C 379.46,35 387.85,25.21 391.09,25.2 C 394.33,25.19 386.41,40.98 386.67,41.24 C 382.17,39.34 361.64,62.85 365.9,62.41 C 370.17,61.98 377.02,56.16 384.87,47.56 C 384.85,47.33 382.79,45.57 384.59,45.62 C 386.18,43.67 398.48,35.42 402.65,34.32 C 406.82,33.22 398.51,47.42 395.76,52.78 C 392.51,52.58 394.46,50.22 391.44,52.07 C 383.88,63.66 367.39,86.42 354.26,77.43 C 353.31,77.8 333.55,93.92 332.82,95.18 C 338.52,96.65 353.66,102 356.24,125.97 C 357.76,134.07 380.37,174.48 362.01,151.44 C 355.4,143.14 339.04,138.51 340.16,146.61 C 341,152.45 337.78,148.87 334.7,143.62 C 328.78,135.44 321.12,133.5 317.4,141.25 C 311.53,141.04 311.56,132.92 305.77,134.63 C 303.88,136.65 302.04,138.49 302.39,141.37 C 303.8,152.99 322.97,171.04 333.14,179.89 C 359.34,182.47 380.82,214.02 370.96,235.18 C 404.16,207.55 353.81,139.21 378.06,110.35 C 377.41,103.34 372.66,104.15 372.68,98.25 C 387.03,89.43 406.49,96.35 422.92,87.53 C 431.08,100.15 387.83,155.84 388.96,133.04 C 389.24,127.38 384.43,114.55 382.38,133.03 C 381.23,162.2 405.2,203.08 391.38,235.73 C 379.29,259.52 367.25,254.74 362.39,256.66 C 358.89,266.97 347.27,273.78 338,275.38 C 347.92,282.31 350.36,346.5 332.78,334.56 C 332.92,335.06 327.56,341.47 324.41,335.24 C 317.58,352.95 311.18,319.52 312.88,309.75 C 310.02,309.17 310.02,309.17 306.88,308.2 C 307.04,316.48 307.1,344.68 296.6,344.45 C 296.09,344.03 296.09,344.03 295.63,344.07 C 294.72,346.17 294.55,349.05 292.91,350.07 C 287.31,353.54 289.17,348.92 283.49,350.01 C 277.65,362.06 268.11,328.8 272.57,321.94 C 270.25,316.63 268.05,318.83 263.74,318.27 C 192.18,295.54 235.72,226 250.31,219.2 C 249.8,218.75 249.44,218.81 248.88,217.28 C 231.15,216.87 230.63,208.29 209.76,211.82 C 200.7,220.38 169.08,254.41 169.09,254.5 C 159.82,257.56 152.3,252.68 153.79,242.99 C 154.74,238.9 192.82,201.94 193.95,200.59 C 187.22,196.67 198.07,181.28 203.91,180.18 C 192.26,166.39 172.05,177.48 165.08,183.14 C 160.76,189.06 156.19,184.24 158.49,180.24 C 192.63,154.11 170.41,118.75 237.99,136.42 C 241.29,137.01 243.31,137.1 247.19,137.23 C 248.98,132.16 248.16,119.49 234.55,121.81 C 220.74,134.1 197.87,133.51 185.71,113.32 C 159.18,105.83 137.69,76.83 163.89,53.94 C 165.98,45.91 168.85,30.76 173.05,20.75 C 135.94,-12.53 217.07,-76.43 218.68,-68.02 C 216.22,-50.02 206.77,-42.72 212.43,-30.92 C 234.17,-46.07 272.61,-42.29 299.14,-17.33 C 333.11,-11.47 314.81,-79.19 323.2,-70.45 C 325.96,-67.58 377.89,15.16 319.95,43.02 C 327.57,71.13 318.53,83.66 309.51,98.7 z"
     id="path9887" /><path
     id="path10474"
     d="M 287.41336,-9.1025054 C 285.79103,-8.3968098 242.6238,19.032326 285.96583,19.121326 C 329.30786,19.210326 343.35434,-26.003946 322.83,-66.28 C 323.65,-51.06 326.78,-36.59 323.94,-28.91 C 317.71,-12.08 309.19,-10.04 295.22,-10.92 C 292.24353,-11.238908 289.03569,-9.808201 287.41336,-9.1025054 z"
     style="fill:#ffffff;fill-opacity:1;stroke:none;stroke-opacity:1" /><path
     id="path9889"
     d="M 285.82,19.29 C 284.22866,17.657664 293.15596,7.7638465 286.28,-9.2 C 267.58,-32.47 237.68,-43.18 214.73,-26.38 C 210.98,-25.39 211.37,-22.33 213.36,-22.87 C 219.35,-24.5 220.01,-19.42 220.62,-18.19 C 223.79,-14.1 219.42,-11.87 216.57,-13.37 C 213.48,-22.64 177.9,-6.54 168.48,53.56 C 162.77,66.39 163.63,58.29 159.62,72.11 C 155.46,86.42 168.16,104.27 189.25,110.33 C 198.39,125.02 220.64,128.89 232.17,116.32 C 243.27,111.85 255.09,119.53 254.42,137.87 C 258.89,139.3 266.06,137.66 269.32,138.02 C 273.46,142.88 272.83,145.68 272.36,145.92 C 271.57,146.32 268.28,145.79 266.86,145.82 C 246.53,146.26 198.26,119.46 189.36,147.55 C 187.3,154.07 178.09,165.39 172.95,173.36 C 187.25,163.95 200.66,156.95 205.96,176.65 C 208.03,175.04 208.58,171.47 207.04,165.28 C 205.41,158.73 211.48,150.65 218.64,148.7 C 222.03,147.78 222.86,151.4 219.68,150.39 C 214.31,151.96 208.92,160.93 211.73,167.45 C 214.24,173.29 215.41,174.84 216.47,175.73 C 226.23,164.62 228.39,163.46 240.17,177.51 C 236.41,165.13 233.66,165.67 233.46,158.48 C 233.4,156.34 236.39,152.6 236.42,156.94 C 236.5,167.28 248.24,171.48 246.49,177.12 C 248.08,175.7 239.5,159.02 256.19,154.54 C 260.39,153.41 268.58,152.39 271.65,158.44 C 274.97,164.98 288.66,180.51 265.45,161.98 C 250.84,150.32 249.87,176.28 250.2,179.93 C 251.12,190.15 246.6,191.12 243.05,187.89 C 226.37,167.53 216.74,184.61 210.86,183.77 C 206.9,183.21 203.45,185.68 207.39,185.73 C 210.46,185.77 212.66,189.04 212.45,189.45 C 207.96,193.09 201.02,186.85 196.61,194.42 C 205.01,189.28 217.78,191.73 216.1,203.67 C 214.48,206.4 214.48,206.4 214.24,207.35 C 216.51,208.08 222.29,206.84 224.51,206.5 C 227.68,206.83 231.98,207.55 234.65,208.82 C 244.7,213.62 254.22,210.05 258.36,202.26 C 262.35,194.77 262.92,187.92 264.06,179.99 C 267.95,187.09 268.31,209.62 259.81,213.56 C 259.41,214.27 259.7,214.48 260.44,214.31 C 267.68,208.93 295.7,206.05 294.18,213.62 C 292.21,215.18 282.65,218.91 281.74,220.23 C 277.78,220.31 272.67,218.46 262.26,224.33 C 217.96,249.29 224.72,306.02 264.75,312.13 C 269.32,312.71 281.22,315.81 279.61,319.65 C 274.77,323.07 278.17,342.17 280.03,344.71 C 282.38,342.13 287.36,340.93 287.86,343.19 C 292,334.52 295.92,335.4 295.99,336.53 C 299.87,321.28 299.69,306.89 288.14,295.92 C 286.27,298.37 276.97,308.36 276.97,299.71 C 273.75,301.46 276.66,293.96 276.88,293.12 C 274.95,291.52 272.8,289.71 272.35,287.97 C 270.78,287.51 256.09,296.62 255.75,296.56 C 241.63,292.52 275.64,278.09 285.47,280.97 C 287.04,281.96 254.39,267.92 270.85,266.33 C 316.43,282.29 331.49,252.8 330.82,243.89 C 327.56,241.07 321.09,233.87 316.62,225.36 C 315.43,223.09 316.2,218.54 320.25,215.87 C 334.06,248.33 386.75,268.6 390.14,212.36 C 391.81,184.64 371.76,146.16 379.08,120.87 C 382.49,109.09 393.95,121.38 391.6,125.92 C 388.48,131.95 419.2,107.74 419.05,94.11 C 406.13,99.75 390.88,95.44 378.98,101.92 C 380.11,107.04 383.93,104.83 383.77,113.39 C 383.31,113.53 380.43,114.16 379.77,114.59 C 362.93,135.42 392.58,194.27 385.39,219.67 C 375.55,250.46 357.5,244.04 347.46,233.65 C 334.18,219.9 328.23,194.93 320.21,202.02 C 313.29,201.68 314.84,197.51 316.57,195.9 C 335.68,185.45 341.29,235.92 363.77,237.61 C 371.34,222.96 357.8,193.29 331.38,187.38 C 328.73,186.79 319.96,187.4 322.07,186.2 C 316.37,183.36 300.18,158.75 294.1,150.58 C 291.94,143.44 306.64,119.36 313.16,134.13 C 312.97,130.01 312.43,130.51 315.75,125.38 C 318.03,121.85 314.58,115.27 315.19,117.36 C 316.59,116.75 320.72,122.76 319.71,125.19 C 317.62,130.2 319.18,131.12 319.16,133.17 C 320.56,122.5 328.51,128.55 331.12,133.23 C 330.65,132.6 329.67,128.59 332.88,122.64 C 337.41,114.24 331.13,114.91 329.92,110.04 C 330.99,110.96 338.08,113.51 336.46,121.31 C 334.67,129.97 335.46,133.75 340.59,138.12 C 342.05,127.97 352.28,134.74 360.07,143.88 C 357.62,139.48 348.78,129.19 349.07,122.62 C 349.87,104.64 321.71,90.21 312.2,105.47 C 311.5,106.59 287.93,136.16 286.96,135.71 C 287.1,134.26 284.04,131.37 284.42,130.03 C 285.51,126.21 287.69,126.03 288.92,123.93 C 287.71,121.44 288.85,115.23 283.93,113.1 C 307.16,88.98 299.74,44.86 285.82,19.29 z"
     style="fill:#ca0000;fill-opacity:1;stroke:#000000;stroke-opacity:1" /><path
     sodipodi:nodetypes="ccscccc"
     d="M 260.2,-2.37 C 247.37,-27.43 245.35,-8.24 233.76,-11.87 C 229.67,-13.15 229.44,-18.5 234.14,-17.95 C 242.95,-16.92 244.12,-26.5 255.22,-20.92 C 255.26,-20.46 255.99,-20.2 260.03,-15.93 C 262.99,-11.62 264.08,-7.48 263.04,-2.63 C 262.16016,-2.0127177 261.40329,-1.8794934 260.2,-2.37 z"
     id="path9891" /><path
     d="M 193.96,58.58 C 192.78,56.95 183.7,58.15 181.8,56.86 C 151.52,36.48 232.12,-53.6 206.49,22.65 C 201.84,36.47 197.28,44.43 197.47,58.69 C 197.31,57.3 195.43,60.62 193.96,58.58 z"
     id="path9893" /><path
     style="fill:#ffffff;fill-opacity:1"
     class="whiteout"
     d="M 175.37,14.55 C 154.13,-1.79 184.39,-46.19 213.08,-59.86 C 207.38,-51.82 193.3,-27.49 202.55,-21.39 C 192.53,-16.52 181.92,-1.33 175.37,14.55 z"
     id="path9895" /><path
     d="M 221.1,70.79 C 216.51,65.29 215.12,65.29 209.46,63.82 C 191.2,56.7 212.09,12.1 220.53,4.31 C 253.51,-26.18 256.84,47.01 251.04,59.11 C 273.13,57.07 268.7,77.68 268.21,76.11 C 264.98,65.8 258.85,57.95 239.08,67.45 C 229.34,72.11 228.4,69.84 221.1,70.79 z"
     id="path9897" /><path
     style="fill:#ffffff;fill-opacity:1"
     class="whiteout"
     d="M 177.63,40.28 C 179.06,7.25 224.59,-27.54 205.23,18.99 C 202.78,24.88 199.76,33.91 197.44,41.12 C 203.12,15.85 185.52,9.06 177.63,40.28 z"
     id="path9899" /><path
     class="whiteout"
     d="M 188.71,27.16 C 188.41,31.41 184.53,38 184.71,41.12 C 180.15,41.82 184.07,27.84 188.71,27.16 z"
     id="path9901" /><path
     class="whiteout"
     d="M 213.09,45.74 C 208.4,43.08 213.18,32.5 216.27,31.16 C 217.74,35.32 213,38.93 213.09,45.74 z"
     id="path9903" /><path
     d="M 362.19,41.95 C 365.1,37.13 362.51,38.03 361.42,35.04 C 362.78,34.49 365.09,33.69 366.45,33.19 C 365.17,36.07 365.61,36.73 366.44,40.17 C 365.46,40.72 363.12,41.39 362.19,41.95 z"
     id="path9905" /><path
     d="M 375.99,42.6 C 377.01,40.96 377.04,39.98 377.02,38.15 C 379.01,36.84 381,35.58 382.99,34.32 C 382.87,35.03 382.79,35.74 382.72,36.45 C 380.9,36.63 377.53,41.01 375.99,42.6 z"
     id="path9907" /><path
     style="fill:#ffffff;fill-opacity:1"
     class="whiteout"
     d="M 222.21,67.19 C 221.24,66.14 220.74,65.78 220.33,65.2 C 240.24,43.69 224.93,0.98 206.48,40.46 C 223.83,-26.47 258.64,-7.1 242.86,60.88 C 235.89,61.35 228.78,68.08 222.21,67.19 z"
     id="path9909" /><path
     d="M 199.16,77.05 C 197.5,77.56 196.26,79.88 194.91,80.29 C 170.3,87.8 173.3,52.36 196.41,63.94 C 198.02,64.75 199.28,63.83 198.38,62.84 C 166.33,48.9 165.03,97 197.5,81.44 C 201.69,82.04 202.93,84.13 203.84,78.56 C 203.47,77.65 201.78,76.62 199.16,77.05 z"
     id="path9911" /><path
     d="M 206.09,82.96 C 206.04,82.96 203.49,81.65 204.73,81.18 C 209.2,79.49 212.79,69.98 200.5,68.22 C 209.28,61.94 218.26,84.1 206.09,82.96 z"
     id="path9913" /><path
     d="M 170.52,86.41 C 177.75,84.6 190.38,127.69 227.08,98.96 C 238.88,89.72 230.11,88.66 257.56,88.1 C 263.36,87.98 264.11,96.29 262.75,96.98 C 261.39,97.67 257.79,93.53 253.23,93 C 237.41,91.15 237.35,100.67 230.6,106.58 C 206.14,128.01 186.1,107.84 174.64,92.15 C 174.7,93.35 170.61,94.77 169.54,92.39 C 168.83,90.82 168.77,86.85 170.52,86.41 z"
     id="path9917" /><g
     style="fill:#808139;fill-opacity:1"
     id="g10476"><path
       id="path9915"
       d="M 321.69,92.53 C 325.47,88.4 339.39,77.82 344.2,72.73 C 347.43,69.31 345.91,67.63 340.46,66.56 C 336.26,65.73 340.5,57.94 350.61,49.38 C 357.87,43.23 358.73,40.36 361.73,36.61 C 363.75,34.45 369.97,30.46 372.78,29.38 C 371.96,31.38 372.36,31.06 368.69,38.13 C 354.64,44.76 339.31,63.88 347.37,63.08 C 353.82,62.44 374.93,49.29 375.85,36.94 C 377.14,36.11 387.15,31.44 389.66,27.74 C 388.09,31.24 385.55,36.7 384.18,38.52 C 378.02,36.46 358.19,63 361.51,65.82 C 365.38,69.11 389.96,48.33 387.27,46.32 C 389.19,44.33 394.75,39.72 399.92,38.13 C 399.59,41 396.3,47.2 393.27,49.1 C 391.09,40.32 365.78,83.53 355.91,69.58 C 352.5,71.92 334.49,86.75 328.28,92.61 C 328.05,91.94 323.76,92.3 321.69,92.53 z"
       class="whiteout"
       style="fill:#808139;fill-opacity:1" /><path
       id="path9919"
       d="M 158.69,242 C 159.47,241.34 168.49,245.54 160.33,239.76 C 169.56,230.19 198.82,200.93 199.96,199.11 C 205.64,195.92 211.94,199.2 207.71,203.36 C 196.41,216.58 175.24,239.91 167.35,246.8 C 167.68,261.13 147.78,247.35 158.69,242 z"
       class="whiteout"
       style="fill:#808139;fill-opacity:1" /></g><path
     class="whiteout"
     d="M 315.85,271.65 C 319.51,270.02 335.32,263.64 337.89,249.51 C 343.62,254.16 347.73,253.85 356.39,256.61 C 346.58,270.05 323.82,275.68 315.85,271.65 z"
     id="path9921" /><path
     class="whiteout"
     d="M 336.34,330.21 C 336.36,326.51 331.96,323.26 329.46,329.9 C 326.46,326.87 323.68,328.95 320.9,330.84 C 319.5,329.19 318.54,327.59 319.61,324.47 C 318.08,317.6 323.36,304.47 321.61,299.91 C 316.83,298.07 316.54,302.23 315.29,305.55 C 311.53,304.91 308.1,303.26 304.96,302.76 C 302.67,295.71 299.63,287.61 291.41,288.37 C 288.15,288.06 284.94,287.79 281.73,287.53 C 281.71,287.34 281.7,287.2 281.69,287.07 C 289.78,285.44 299.55,283.74 306.75,279 C 308.34,279.36 315.68,279.2 315.85,281.1 C 318.05,282.16 320.56,281.93 323.96,282.69 C 323.97,282.83 320.62,284.23 320.64,284.41 C 320.45,284.43 320.31,284.44 320.18,284.45 C 315.86,293.42 330.43,285.89 332.66,285.27 C 338.22,289.93 347.93,319.17 336.34,330.21 z"
     id="path9923" /></g>
  <text
   class="name"
   transform="matrix(0.9279 0 0 1 0 82.979)"
   id="text9925">
    <tspan
   x="0"
   y="0"
   id="tspan9927">Wayne</tspan>
    <tspan
   x=".1em"
   y=".9em"
   id="tspan9929">Douglas</tspan>
  </text>

  <text
   class="label"
   transform="matrix(0.8285 0 0 1 17.3657 308.4946)"
   id="text9931">
    <tspan
   x="0"
   y="0"
   id="tspan9933">Devil’s</tspan>
    <tspan
   x="1.45em"
   y=".9em"
   id="tspan9935">Ass</tspan>
  </text>

</svg>