<?xml version="1.0" encoding="utf-8"?>
<!DOCTYPE svg PUBLIC "-//W3C//DTD SVG 1.0//EN"
 "http://www.w3.org/TR/2001/REC-SVG-20010904/DTD/svg10.dtd" [
  <!ENTITY ns_svg "http://www.w3.org/2000/svg">
  <!ENTITY ns_xlink "http://www.w3.org/1999/xlink">
]>
<svg xmlns="&ns_svg;" xmlns:xlink="&ns_xlink;" width="100%" height="100%"
     viewBox="0 0 609.383 447.75" overflow="visible" enable-background="new 0 0 609.383 447.75"
     xml:space="preserve">
  <defs>
    <style type="text/css"><![CDATA[
    @font-face { font-family: "EwieD"; src:  url("fonts/ewied.ttf"); }
    @font-face { font-family: "Carleton"; src: url("fonts/carleton.ttf"); }
    .name { font-family: Carleton; font-size: 85px; }
    .label { font-family: EwieD; font-size: 100px; }
    .background { stroke: white; stroke-width: 15px;}
    #sun path { fill: yellow; stroke: black;  stroke-linecap: round; stroke-linejoin: round; }
    #sun .outer { stroke-width: 5px; }
    #sun .inner { fill: orange; fill-opacity: .75; stroke-width: 3px; }
    #sun #glasses { fill: black; }
    ]]></style>
    <text class="label" id="lil">
      <tspan x="0" y="0" font-size="72">L</tspan>
      <tspan x="36.643" y="0.018" font-size="72" rotate="0.465">i</tspan>
      <tspan x="56.798" y="0.167" font-size="72" rotate="1.109">l</tspan>
      <tspan x="78.413" y="0.6" font-size="72" rotate="1.977">’</tspan>
      <tspan x="110.766" y="1.614" font-size="72" rotate="5.929">R</tspan>
      <tspan x="154.446" y="6.001" font-size="72" rotate="10.942">a</tspan>
      <tspan x="203.578" y="15.756" font-size="72" rotate="14.436">y</tspan>
      <tspan x="262.519" y="31.448" font-size="72" rotate="16.267">o</tspan>
      <tspan x="296.995" y="41.539" font-size="72" rotate="16.656">f</tspan>
    </text>
    <text class="label" id="sunshine">
      <tspan x="0" y="0">S</tspan>
      <tspan x="50.383" y="-0.252" rotate="2.381">u</tspan>
      <tspan x="110.063" y="2.387" rotate="6.271">s</tspan>
      <tspan x="149.872" y="5.977" rotate="11.954">h</tspan>
      <tspan x="213.178" y="20.218" rotate="17.017">i</tspan>
      <tspan x="239.176" y="27.546" rotate="20.986">n</tspan>
      <tspan x="299.769" y="51.159" rotate="24.066">e</tspan>
    </text>
  </defs>
  <g id="sun">
    <path class="outer" d="M435.265,274.226l47.072,105.353l-126.016-24.166"/>
    <path class="inner" d="M383.996,337.931l47.574,5.286l-15.858-37.002"/>
    <path class="outer" d="M397.888,137.696l122.801,7.256l-78.154,93.009"/>
    <path class="inner" d="M422.761,172.302l47.574-3.524l-37.002,37.003"/>
    <path class="outer" d="M251.761,103.251l82.935-100.58l38.82,116.461"/>
    <path class="inner" d="M301.181,93.011l24.668-35.24l12.334,40.526"/>
    <path class="outer" d="M152.945,179.127L119.418,75.018L232.35,106.78"/>
    <path class="inner" d="M170.792,151.156l-14.096-40.526l38.764,14.097"/>
    <path class="outer" d="M179.413,313.234L75.304,286.766l75.876-81.17"/>
    <path class="inner" d="M153.171,244.544l-28.192,26.431l38.764,7.048"/>
    <path class="outer" d="M318.579,356.353l-83.436,88.897l-29.511-107.074"/>
    <path class="inner" d="M243.035,348.503l7.048,45.813l29.954-35.24"/>
    <path id="circle"
          d="M292.345,112.073c68.218,0,123.52,50.562,123.52,112.933
             c0,62.37-55.302,112.932-123.52,112.932c-68.218,0-123.52-50.562-123.52-112.932
             C168.826,162.635,224.127,112.073,292.345,112.073z"/>
    <path id="glasses" 
          d="M177.649,182.656c77.655,1.723,142.778,5.543,229.393,0
             c-1.2,39.8-33.15,64.9-60,65.3c-26.8,0.3-41.1-18.3-54.7-44.1
             c-9.5,27.21-23.817,44.753-51.167,44.116
             C213.828,247.312,184.45,233.603,177.649,182.656z"/>
  </g>
  <text class="name" transform="matrix(1 0 0 1 189.5581 337.124)">
    <tspan x="0" y="0" class="background">Will</tspan>
    <tspan x="-1em" y=".9em" class="background">Holcomb</tspan>
    <tspan x="0" y="0">Will</tspan>
    <tspan x="-1em" y=".9em">Holcomb</tspan>
  </text>
  <g transform="matrix(0.989 -0.148 0.148 0.989 156.2158 88.3457)">
    <use class="background" xlink:href="#lil"/>
    <use xlink:href="#lil"/>
  </g>
  <g transform="matrix(0.9729 -0.2313 0.2313 0.9729 104.4053 176.1479)">
    <use class="background" xlink:href="#sunshine"/>
    <use xlink:href="#sunshine"/>
  </g>
</svg>
