<?xml version="1.0" standalone="no"?>
<!--Created with Inkscape (http://www.inkscape.org/)-->
<svg xmlns="http://www.w3.org/2000/svg" xmlns:xlink="http://www.w3.org/1999/xlink" viewBox="0 0 48 48">
  <defs>
    <linearGradient id="a">
      <stop offset="0" stop-color="#b4b5b3" stop-opacity="1"/>
      <stop offset="1" stop-color="#d8d9d7" stop-opacity="1"/>
    </linearGradient>
    <linearGradient xlink:href="#a" id="b" gradientUnits="userSpaceOnUse" gradientTransform="matrix(2.810197,0,0,2.747234,1.562312,1.675085)" x1="8.6790628" y1="6.7354665" x2="8.7223368" y2="10.858153"/>
  </defs>
  <metadata/>
  <path d="M 8.4999995,21.548779 L 8.4999995,26.514266 L 21.542175,26.514266 L 21.542175,38.455753 L 26.527841,38.500024 L 26.499007,26.514266 L 39.499998,26.469995 L 39.499998,21.548779 L 26.478909,21.548779 L 26.482175,8.542935 L 21.498141,8.5000092 L 21.496508,21.55147 L 8.4999995,21.548779 z " opacity="1" fill="url(#b)" fill-opacity="1" stroke="#555753" stroke-width="1.00000048" stroke-linecap="round" stroke-linejoin="round" stroke-miterlimit="4" stroke-dasharray="none" stroke-opacity="1"/>
  <path d="M 9,22.072045 L 22.070199,22.072045 L 22.065556,9 L 26.002778,9.1688851 L 25.957932,22.156486 L 38.906989,22.072045 L 38.906989,24.048454 L 9,24.048454 L 9,22.072045 z " opacity=".2" fill="#fff" fill-opacity="1" stroke="none" stroke-width=".99999994" stroke-linecap="round" stroke-linejoin="round" stroke-miterlimit="4" stroke-opacity="1"/>
  <path d="M 9.5000012,22.518518 L 9.5000012,25.561981 L 22.540436,25.561981 L 22.540436,37.458666 L 25.525069,37.499986 L 25.498095,25.561981 L 38.500003,25.520661 L 38.500003,22.518518 L 25.567682,22.518518 L 25.570737,9.540046 L 22.499243,9.499982 L 22.497715,22.52103 L 9.5000012,22.518518 z " opacity=".4" fill="none" fill-opacity="1" stroke="#fff" stroke-width="1.00000024" stroke-linecap="round" stroke-linejoin="miter" stroke-miterlimit="4" stroke-dasharray="none" stroke-opacity="1"/>
</svg>
