<svg xmlns="http://www.w3.org/2000/svg" xml:space="preserve" viewBox="0 0 423.312 388.834">
    <path d="M-28.029-50.273c-1.965.242-.8 3.36 3.026 1.024-1.368-.867-2.37-1.105-3.026-1.024m12.27.271c-1.056.061-1.915.191-2.523.416-14.437 3.056-7.197 3.793-24.412 5.988-13.144-4.843-24.63 1.277-35.756 5.367-10.192 4.28-23.829 7.402-29.369 16.404 6.779 2.697 15.72-10.127 17.397-6.86 4.694-5.443 18.024-2.412 20.165-6.925-19.482.538 11.42-6.42 17.736-7.382 17.251 1.753-34.85 5.145-4.477 11.377-13.067 6.5-8.68.68-12.872 1.268-8.792 3.939-8.662 4.897-12.693 9.051-7.78-2.647-10.12 4.546-16.176 1.466-4.374-1.256-6.79 2.924-12.022 4.514-11.815 6.286 12.326-9.445.721-4.392-9.888 10.726-26.19 13.776-35.601 23.906 6.734-5.798 23.24-11.905 7.808-2.26-9.75 3.135-11.063 14.465-.576 3.998 7.515-2.975 4.466-5.54 12.07-8.983 10.442-3.59-12.362 11.482-15.56 15.882-15.22-3.726-27.782 12.251-31.007 23.68-7.085 10.018-2.65 5.527 2.404-.873-.14-.12-.12-.271.202-.26 3.255-4.144 6.678-8.872 7.511-11.434 7.048-11.514 6.188-5.5 3.617-.375 6.386-5.768 12.165.38 2.935 3.183 2.55-7.935-21.054 17.741-13.891 13.331-2.98 1.529-13.445 20.597-9.836 9.265 1.18-3.253-8.133 7.015-6.863 10.194-5.694-2.229-6.887 15.176-9.892 20.229-7.615 11.465 4.7 10.94 5.331-.53 1.777-5.648-10.788 13.485-2.689-1.179 1.159-9.549 8.338-16.657 14.116-23.956 5.387-.896-4.695 11.365-6.156 15.346 1.6 3.52-7.578 12.374-5.863 19.711-.627 2.715-3.764 10.534-5.724 13.554.064.058.107.022.193.204-.247.523-.37.408-.43.196-1.207 1.701-1.856 1.218-.91-4.296-4.211-2.471-.737 8.14-4.252 14.816-.766-14.137-4.275 4.339-4.067 11.965.87-1.206.705-.157.034.445.185 3.435 1.188 4.368 3.97-2.822 1.942-12.81 2.804-13.863 4.066-3.503 2.255 10.288-4.108 31.446-2.117 9.806.605 8.282-10.996 12.251-10.823 19.309 8.182-4.29 6.574 7.332 10.559-4.803.31 5.686-3.256 23.332-5.027 17.625-2.615-3.154-8.213 5.91-2.117 5.724 4.754 14.374.03 12.042-.53 23.116-8.194 10.73 7.384 11.691 10.327 19.976 3.076 12.923 2.145 9.889 7.414 21.96 3.97 9.299-.496 7.972-3.52 3.166 1.431 3.776 3.106 8.113 3.507 9.534 2.5 3.832-1.123-5.523 4.176-2.866 8.27 3.718-3.418 18.072.538 15.535 5.008 2.722-6.124 12.912 5.508 7.885 5.15 10.527 13.66 18.447 18.704 28.892 3.626 10.506 6.635.325 12.706 8.954-4.872-9.196-2.97-16.921 5.418-6.888 8.819 10.108 2.63 7.45 8.771-2.565 10.605 8.636 15.852 12.739 11.335 12.109-6.947-1.819-16.078-10.222-4.449-.191 10.318 11.444-17.483-15.034-6.085-.937 5.505 10.611 13.999 7.342 7.408 16.8-7.31-8.211-12.486-8.256-22.08-17.831.823 1.237 1.688 2.733 2.632 4.759-5.544 2.745 7.28 5.254 8.44 4.871 5.024 4.404 13.565 11.074 17.572 13.362-10.98-7.925 18.58 10.64 9.574 4.863 6.116 2.905 14.869 7.154 20.64 6.38-6.233-21.376 5.23 8.118 14.797-1.851 3.759 2.235-5.998-17.184 4.042-4.763 11.005 7.696 7.424-21.53-7.198-21.93-21.369-11.01-38.924-28.282-54.313-46.405 5.816 12.011-2.853-3.78-7.864-5.867 2.318-2.595-.931-1.567-2.637-15.492-3.66-.85-7.658-6.83-9.902-12.724-.22.103-.258.058-.063-.182-.439-1.172-.924-2.358-1.195-3.475-3.721-6.524-2-8.035-7.204-13.02 2.95-1.79.16-6.164-3.879-12.672-2.448-10.697.693-23.392-2.17-14.85-2.156-21.12-4.599 9.356-3.333-18.194-2.372-13.652 4.424-39.405 1.548-42.446 3.36-9.799 6.786-30.25 11.366-31.926 2.17-6.081 7.803-12.712 8.496-17.727-3.56 2.41-5.923 15.86-8.42 11.672-4.72-9.566 12.951-13.702 11.506-24.178 10.216-.204 8.772-10.839 16.85-16.07 11.557-4.512 8.93-15.338 17.733-20.769 2.35.582 6.587-.792 4.133-4.167-10.662 10.341-7.218 2.914-.55-3.638 7.646-5.717 1.18 6.61 13.23.542 14.635-6.73-3.215-.786-.464-2.395 8.05-4.656 22.788-8.508 4.432-3.945-6.296 4.588-4.92.85-1.64-2.11-.023-.077.016-.115.141-.138 1.687-1.479 3.679-2.764 5.732-2.57 2.726-2.294 19.902-10.152 9.933-6.763-3.864 3.128-17.276 6.555-11.737 3.092.018-.049.096-.063.177-.097a32 32 0 0 1 2.752-1.508c10.63-5.001 27.779-4.679 9.194 2.133-17.303 7.603 6.583.285 13.23-1.569 2.767-4.104 13.536-5.257 20.15-6.436 5.392-1.126 35.326-.168 18.258-3.765 11.194-4.313 23.291 4.402 28.266 1.151 8.433 1.87-8.063-5.414 15.081-1.511 12.593-.707-12.09 3.302 0 4.562 9.337-3.84 2.497 7.572 14.82 3.87 13.098 4.935-17.25-10.316.526-6.46-16.289-7.564 9.935 1.113 4.286 3.015 7.792 3.692 9.763 4.65 12.581 12.7C60.865 20.974 80.185 23.444 90.541 36.99c10.162 10.39 4.664-9.155 5.316-1.193-2.139-.336-16.085-8.28-13.175-8.678-5.355-5.414-8.458-10.846-10.924-16.14-13.988-.51-5.209 1.316.374 7.938 9.311 7.833-17.886-9.57-14.342-8.255-8.631-.55-7.305-8.923-3.933-10.39-.746-.403-1.161-.714-1.609-1.037-.352-.132-.7-.3-1.051-.427.177.009.458.125.648.147-3.644-2.974 5.791-2.163 12.405 2.097 9.02 3.278-9.057-4.671-12.806-5.578-6.582-7.3 12.372 2.701 16.819 4.1C80.482 6.27 95.61 9.509 102.238 23.062c1.254 5.561 16.557 7.752 13.08 11.52 8.187 15.172-4.117-8.148 10.227 9.868 8.695 4.908 5.504 8.669 12.958 16.177.817 5.751 8.31 24.846.76 10.414-3.743-7.231-11.676-13.171-3.116-2.7 4.226 5.81 9.522 16.33 11.063 20.427 4.99 9.45 6.592 21.565 14.355 29.192 2.551 4.105-.63 8.16 4.043 22.196 1.564 15.956 1.404 21.586-2.945 40.158 5.679-9.042 6.847 2.909 1.108 12.104-3.379 14.816-6.442 5.851-8.992 20.368.24-.195.154.515-.358 2.192-.1.67-.204 1.093-.302 1.848-1.002 15.963-15.99 27.152-21.138 41.592-7.056 8.444-18.36 20.964-16.3 17.675-6.596 8.81-16.011 16.259-22.898 21.452-8.593 7.636-23.889 11.502-32.459 16.508 5.262 3.419-14.044 3.062-13.038 7.802-15.29 2.849-34.137 2.666-10.936 5.038 1.457.189-21.863 7.48-2.501 2.272 17.997-1.495-19.365 6.534 8.673 2.776 10.566-1.836 17.44-4.37 23.55-9.039 5.037-1.115-3.579 5.394 9.789-3.148 7.579-9.229 15.004-2.984 20.42-11.863 5.973-3.645 18.083-9.224 19.003-13.673 2.238-3.648 18.304-20.198 14.16-13.588 4.745-4.89 10.479-9.029 11.865-11.945 10.891-10.324.794-4.406 6.7-11.952 1.288-3.504 8.093-12.946 1.974.4 1.646 1.318 9.446-12.832 10.047-18.08 6.747-13.249 8.061-28.847 17.303-41.559 5.29-2.94 4.36-29.79 2.798-23.538.31-11.525 7.302-20.58.505-34.671 2.644 1.069-3.015-33.949-2.646-21.941-2.746 23.776-3.041-9.08-7.364-20.354-6.495-10.814-1.947-32.333-14.332-36.375-8.055-8.1 1.175-2.737-2.08-7.962-7.291-8.528-4.71-9.39.552-.132 6.092 7.458 11.798 21.428 16.61 25.764 8.013 12.277 7.251 26.71 12.386 39.387 3.398 9.406 2.303 25.047 4.51 30.43-2.385 17.528-2.953 38.967-6.009 51.772-2.85 13.455-5.795 26.106-10.887 38.252 2.389 2.1-1.776 7.641 2.008 2.612 1.553-5.75 7.442-31.84 8.819-22.059-.572 5.303-10.423 28.458-3.57 13.923 5.036-14.038 7.621-28.664 10.996-43.17.886 6.399-9.078 38.993-5.301 28.189.746-2.177 1.383-4.412 2.033-6.639-.058-.081-.094-.026-.168-.241.183-.528.298-.561.376-.441.064-.223.14-.44.204-.663-.01-.053-.022-.027-.03-.11.044-.082.054-.042.083-.063 6.398-22.789 7.878-47.859 4.876-71.483 4.351 16.037-1.208-27.963-5.264-38.1-3.999-16.502-11.6-31.37-18.32-46.765-2.392.16-5.386-10.123-9.107-13.295-3.147-14.262-17.241-13.972-4.834-.926-4.788-.265.608 7.171 4.233 14.816.024-2.699-3.392-15.671 1.852-2.728 5.125-1.077.592 4.17 4.327 12.849-3.338-3.823-2.386-1.481-7.71-9.46-6.823-9.414-13.353-19.775-19.482-28.206 9.045 13.031-17.315-17.54-2.27-2.717-6.79-10.702 5.134 1.781 5.31 1.555 4.568 11.254 3.603 5.037 8.712 11.195 6.945 6.703-5.926-6.765-7.137-10.401-.492-3.204-13.26-11.368-10.06-11.924-11.39-8.773.323-1.744 1.058-1.884-5.038-6.466-8.317-19.116-15.82-16.355-9.815-5.44-3.866-10.88-16.459-12.925 2.452-1.737-11.694-8.85-18.146-8.365 6.895 1.835 13.06 5.55 18.915 9.497-4.558-.33-.186 2.74 3.096 6.43 1.544 3.938 5.63 8.38 12.54 12.034 8.652 4.146 13.954 14.866 10.225 12.115 4.937 7.18-11.24-7.968-15.135-10.026-5.542-10.272-18.028-9.648-23.62-19.517-13.343-12.317 4.999.195 9.938 4.937 2.104-1.922-12.467-11.375-17.32-14.563-4.757-6.835-4.419-3.945-10.92-6.548-4.978-7.033-4.306-3.86-10.808-4.956 2.036 4.49 17.328 10.55 6.873 9.981-.27-.787 13.126 8.988-.825 3.075-21.172-16.254-1.917-3.912-6.617-10.128-1.874-7.57-5.976-3.71-12.7-8.602-4.685.237 15.206 11.4-5.004 4.488-6.28-2.149-19.5-5.057-15.465 1.486-11.477-1.685-28.067-1.602-38.78-5.583-7.718-7.395 2.833-6.218 10.314-.665-11.681-6.711 6.262-4.595 1.047-1.836 19.45 4.457 14.826-2.246 21.43-.575 19.634 4.64-3.037-3.023-5.565-4.564-7.984 1.462-23.862-1.235-30.964-.827m30.963.827c.32-.058.725-.071 1.018-.143-1.5-.303-1.508-.155-1.018.143m172.622 258.639-.053.173c.109.602.249-.322.053-.173m-.257.836c-.065.23-.142.454-.208.682.291.418.37-.433.208-.682m-33.148 4.678a82 82 0 0 1 .358-2.192c-.512.416-2.241 4.466-3.315 10.125 1.588-3.837 2.458-6.3 2.957-7.933M51.845-1.044c.105.085.277.188.403.28.715.267 1.409.578 2.129.863.802-.159 1.672.24 2.554 1.035 4.769 1.972 9.628 4.08 14.043 5.695-5.686-2.709-14.39-7.326-19.129-7.873m5.086 2.178C56.064.776 55.24.44 54.377.1a2.5 2.5 0 0 0-.52.174c1.084.586 2.415 1.235 4.219 1.99-.375-.573-.761-.782-1.145-1.129M-89.072 3.211c-.044.027-.135.07-.177.097-.13.345 1.075.917 1.118-.17-.553-.064-.77 0-.941.073m-4.105 6.338c-.052.046-.09.09-.14.137.076.257.722.623.845-.06-.404-.12-.567-.103-.705-.077m-60.58 219.506c.023.061.04.12.062.182.196-.092.31-.115.93-.565 14.436-13.603.653-1.643-.992.383m4.28 74.979c-.105-.157-.215-.35-.318-.497.067.126.104.243.173.37.054.054.091.074.144.127m-45.458-68.43c-.916-2.416-1.36-3.735-2.08-5.65a14.8 14.8 0 0 0 2.08 5.65m-2.08-5.65c-.08-.526-.236-1.03-.245-1.569-1.915-4.285-1.137-2.1.245 1.569m-10.12-103.905c-.009-.158-.03-.275-.035-.445-.17.236-.273.313-.534.774.22.01.393-.172.568-.329m9.193-22.93c.072-.101.163-.284.238-.4-.24-.221-.319.12-.238.4m38.77-79.548c-1.226 1.108-2.462 2.5-3.632 4.608 1.285-.496 2.556-2.462 3.632-4.608M-170.3 35.38c-.069.088-.133.173-.202.26.142.12.365.158.382-.266-.105-.026-.111.009-.18.006m24.659-31.183c-1.018.877-1.836 1.745-2.262 2.552.67-.936 1.49-1.72 2.262-2.552m169.394-51.58c-2.314-.454-2.016 1.042 3.102 1.227-1.27-.706-2.331-1.075-3.102-1.227m-3.499 8.348c-.52.092-.26 1.006.78.275-.346-.244-.607-.305-.78-.275m11.313.906c.074-.062 2.883.746 1.109.427-.854-.289-1.134-.406-1.109-.427m-87.119 2.612c.451.096 3.096 2.919.555 1.086-.611-.847-.705-1.118-.555-1.086m34.23 7.247c1.357-.842 11.608 1.871 14.575 1.151 8.684-.883-6.997 2.285-12.37 1.137-2.122-1.33-2.658-2.007-2.205-2.288m-71.959 1.577c-.784-.05-3.718 4.038-.25 1.815.534-1.323.512-1.799.25-1.815m79.004 1.3c2.937-.43 11.416 1.108-.143 1.211-1.2-.706-.836-1.068.143-1.21m-97.031 2.162c-.197.109-1.227.905-2.5 2.065 2.06-1.593 2.696-2.173 2.5-2.065m99.501.187c1.364-.287 22.067 3.452 7.12 1.972-5.88-1.333-7.574-1.876-7.12-1.972m-15.377 1.767c1.254-.196 4.549 1.07-.2.796-.41-.502-.218-.73.2-.796m42.165 1.161c.634.068 1.514.767 2.397 2.454 1.71-.73 13.453 6.263 5.045 4.375-9.038-1.547-9.344-7.03-7.442-6.829m-56.087 1.024c1.444-.397-.018 1.184-2.483 1.188 1.198-.704 2.002-1.056 2.483-1.188m5.518 1.227c3.757-.227 5.257.537 1.06 3.166-16.497 3.128 4.377-5.252-15.396.81-1.874 1.768-5.125 1.633-7.358 1.355 2.896-1.825 15.431-4.953 21.694-5.331m-11.101.1c1.753-.24 1.432 1.058-2.391.864.992-.534 1.807-.785 2.39-.864m-51.975.307c.537.074 1.15.565 1.98 1.677-5.973 6.631-17.227 5.493-23.34 11.02-3.087-11.725 11.744-5.259 14.784-7.643 4.042-1.753 4.966-5.278 6.576-5.054m69.862.951c1.683-.132.783 1.332-2.551.799 1.141-.533 1.99-.754 2.55-.799m-4.866.06c-1.457-.428-.265.464 0 0m-16.745.152c1.102.033-1.32 1.17-10.573 3.312 4.845-2.274 9.471-3.345 10.573-3.312m-12.879.47c.338.273-1.908 1.644-7.749 3.29 4.492-2.74 7.412-3.564 7.75-3.29m-59.373.382c-1.498.375-4.458 2.093-8.37 5.786-.976.662-2.066 2.165 1.323.613 7.982-3.916 9.545-7.023 7.047-6.399m170.728 1.296c.794-.367 2.618 1.912-.24 1.449-.175-.91-.025-1.327.24-1.449m-121.465.698c1.712.271 1.59 1.574-3.46 4.057-2.008.81-3.84 2.46-6.085 2.487-1.262-4.587 6.69-6.997 9.545-6.544m23.631 1.122c.601.35-.949 1.337-6.453 1.913 3.1-1.975 5.853-2.263 6.453-1.913m-10.363.63c.524-.024.954.04 1.264.21-6.227 1.069-11.658 5.833-17.727 6.371 4.476-1.955 12.791-6.413 16.463-6.581m-6.57.934c.374.231-.388 1.007-3.41 1.637 1.524-1.553 3.035-1.867 3.41-1.637m123.493.277c5.926 1.151 17.988 9.468 10.944 2.946C70.798-6.216 87.988 1.7 80.301-.957c-6.74-4.4 8.75 7.137 3.704 7.892-6.827-8.216-14.824-13.02-9.26-5.751-6.314-4.498-14.016-6.796-20.046-11.662.522-.192 1.244-.174 2.09-.01m2.414 2.36c-.12.089 1.217 1.103.725.322-.485-.278-.686-.351-.725-.322m-71.06.238c-1.596-.8-5.56 1.861.355 2.17.447-1.251.178-1.903-.355-2.17m-62.123.206c.283.485-2.82 2.207-10.025 3.847l-.265-.279c6.338-3.304 10.006-4.054 10.29-3.568m136.46.139c-.06-.153.442-.04 1.681.797-1.003-.226-1.622-.644-1.682-.797M32.281-5.832c-.728-.026.477 1.53 1.452.701-.752-.508-1.21-.692-1.452-.701m-1.127.233c-1.457-.43-.265.463 0 0m69.425.103c.207.193.218 1.282-.261.218.102-.248.192-.283.261-.218M-39.852-3.495c-.386.012-3.318 1.102-.762.452.736-.34.89-.456.762-.452m146.617.034c-.014.306 1.876 2.032 5.658 4.52l.982.622-.88-1.15c-3.83-3.187-5.747-4.299-5.76-3.992m-245.02.074c-.271.195-.251 1.342.359.242-.144-.265-.267-.307-.358-.242m95.16.638c-.844.076-3.758.85-.164.235.496-.207.445-.26.163-.235m-3.453.65c-.967.154-2.69.713-2.268 1.215 3.447-1.118 3.236-1.369 2.268-1.215m-59.55.348c1.05-.114.916.73-3.551 2.875.268-1.687 2.502-2.76 3.552-2.875m.605 1.156c.726.01-1.054 2.774-4.248 3.902.885-1.044 1.274-1.306 1.878-1.899-.304.02-.222-.825.254-.257.946-.895 1.857-1.75 2.116-1.746m-2.116 1.746c-.077.073-.172.177-.254.257.082-.005.172-.024.31-.217-.025-.035-.033-.012-.056-.04m35.217-1.328c.576-.461-5.037 1.372-3.147 1.379 2.075-.816 2.955-1.225 3.147-1.379m-13.86.246c.873-.199.951.691-1.088.637.418-.383.797-.57 1.088-.637m-9.768 4.074c3.827-.118 4.914 1.965-7.522 3.241 1.941-2.306 5.225-3.17 7.522-3.24m-16.208.167c.357.429-.616 1.782-3.99 2.773 1.946-2.706 3.633-3.202 3.99-2.773m.052.531c.412-.164.927.846.036.832-.012-.003-.024.008-.034.003-.111-.006-.107.069-.265.026-.012-.555.107-.799.263-.86m.002.835c.014 0 .02-.004.034-.003.084.015.196-.028.353-.249-.497-.699-.622.136-.387.252M71.26 5.224c-.657-.173-.82.587.774.549-.282-.33-.556-.491-.774-.55m45.683.41c-.013.123.373.534 1.194.86-.77-.82-1.181-.984-1.194-.86m-228.773.6c1.153.154 1.454.861-1.543 2.425-4.669-1.406-.38-2.684 1.543-2.426m189.622.112c-.872-.448-.097.968 1.452 1.183-.689-.677-1.162-1.034-1.452-1.183m-12.12.374c.77.375 1.74.822.607.216-1.943-.895-1.376-.591-.607-.216m7.173 1.134c-.032.242 1.706 1.7.787.313-.568-.34-.776-.394-.787-.313m-159.72.754c1.055-.893-3.9 1.476-3.48 2.163 2.11-1.206 3.129-1.866 3.48-2.163M80.481 9.737c-4.165-.262 2.893 4.301 7.019 6.822 5.477.456 8.124 9.798 11.077 9.32-5.296-8.056.876-1.71-6.899-12.026 7.903 1.758-4.177-.857-8.683-3.688-1.095-.254-1.919-.39-2.514-.428m-204.239.555c.935.092 1.561.495-.927.93-1.252-.805-.008-1.023.927-.93m-4.432 3.307c.533-.015.934.088 1.338.181.007-.006.002.006.008.001 2.37.55 2.191 2.61-5.675 2.768-.553.86-1.971 2.519-3.16 1.67 2.22-3.425 5.293-4.558 7.49-4.62zm1.346.182h-.008c-.413.374-2.481 3.636-.394.989.466-.875.518-1.08.402-.989m3.74.378c2.449-1.17 7.218 6.574-1.104 4.825-.27-3.053.288-4.434 1.104-4.825m262.432.479c-.602-.167-.614.554.372 2.692 3.747 8.982 5.85 4.188 9.922 8.467-1.377-2.17-8.488-10.659-10.294-11.16m-62.83 1.028c-.042.347 1.712 1.573 5.39 2.64-3.508-2.453-5.347-2.986-5.39-2.64M-128.72 17.98c-7.804 10.242-16.604 8.829-20.042 19.654-3.46-4.68 11.653-19.922 11.706-17.967 9.349-2.618-8.658 8.394 8.336-1.687m19.956.474c-.308.168.053 1.137.55.2-.271-.223-.448-.256-.55-.2m-18.843.82c1.125.56 1.301 3.822-2.416 3.31.723-3.01 1.74-3.647 2.416-3.31m26.652 2.692c-.193.071-.5.856.117.245 0-.213-.052-.269-.117-.245m188.586.42c-1.677-.573 3.9 2.983 4.546 2.261-2.622-1.42-3.987-2.07-4.546-2.261m-207.815.014c.364.066.041.556-2.06 1.269.645-.978 1.696-1.335 2.06-1.269m-11.782.262c.211.623-1.415 3.936-2.812 3.233 1.897-3.012 2.685-3.607 2.812-3.233m9.051 2.004c1.27-.356.976 1.905-3.424 4.054 1.338-2.686 2.662-3.841 3.424-4.054m18.713.088c-.338.092-1.345.816-2.353 1.574.221.18.269.482-.392.296-1.34 1.053-2.56 2.167-2.136 2.546 4.447-3.516 5.382-4.552 4.88-4.416m-2.745 1.87c.137-.107.254-.192.392-.296-.178-.145-.433-.198-.469.291.045.015.038-.006.077.005M93.15 25.265c-.254.09-.127.98.38.267-.169-.237-.296-.297-.38-.267m9.773 2.71c.942 1.139 1.633 1.807 2.236 2.284-.782-.79-1.068-1.182-2.236-2.283m2.236 2.284c6.312 6.376 1.58 3.861-2.024 2.88-6.26-4.401-1.2 3.048.674 11.7 1.006 11.996 8.554 23.322 17.433 29.389 1.282 4.084 8.378 13.562 8.34 14.606 1.518 10.136 5.776 14.237 7.076 21.894-3.513 1.717 2.384 11.074 3.876 10.583.117-7.382-3.829-34.742-7.031-24.077-5.84-12.237 3.286-1.654 2.122-14.816-7.458-15.967.436 7.862-5.847-3.969-7.218-7.468-8.853-19.369-10.91-28.079 7.883 7.474 7.107 21.057 16.573 26.56 6.094 9.51 5.787 18.73 10.194 25.86 4.441 2.73-4.188-17.355-6.803-21.695-1.476-17.978-21.764-27.678-26.677-44.955-4.231-4.774-5.227-4.483-6.996-5.881m-214.94-1.957c-.283.314-.392 1.568.318.135-.11-.24-.223-.24-.317-.135m208.146.879c-.063.271 1.14 1.88.595.34-.413-.373-.575-.43-.595-.34m-223.195.335c.638.725-.988 5.37-2.316 8.003 9.37-5.77 1.277 3.368-5.533 7.518-.446-.48-.896-.432-1.33-.138-.027.025-.068.056-.096.081-1.31 1.01-2.452 4.207-2.817 2.357 1.227-.923 1.995-1.627 2.817-2.357.033-.025.063-.058.097-.08 8.322-7.44-2.53-5.634 5.031-11.176 2.567-3.668 3.765-4.643 4.147-4.208m7.42 2.89c-.261.185-1.343 1.987-.126.535.21-.479.214-.596.127-.535m228.449 1.115c-.19.043.664 1.084 3.129 2.994-1.708-2.08-2.94-3.036-3.13-2.994m-225.471.043c-4.137 3.103-4.03 4.916 0 0m-29.566 2.286c.222-.03.353 1.38-.23.644.072-.463.156-.634.23-.644m255.638.158c.275.125 1.428 1.661.141.498-.226-.424-.232-.54-.14-.498m38.66.899c-.254.089-.127.979.38.267-.169-.237-.296-.297-.38-.267m-38.048.532c.194-.02.929.536.064.264-.134-.187-.13-.258-.064-.264m38.726.458c-.602.2.885.982 0 0m-292.128.013c.117.198-3.096 4.33-1.527 1.518 1.08-1.212 1.489-1.583 1.527-1.518m21.773.656c-.179-.18-3.617 3.038-1.244 1.61 1-1.113 1.303-1.55 1.244-1.61m264.838.169c-.342-.756 2.628 2.683 1.713 2.444-1.116-1.475-1.599-2.193-1.713-2.444m-297.386 1.306c1.737.795 1.092 5.928-5.032 5.412 2.09-4.805 3.99-5.89 5.032-5.412m27.687 3.092c-.193.07-.5.856.117.245 0-.214-.053-.269-.117-.245m-26.423.465c.04.255-.544 1.231-1.871 2.164 1.168-1.953 1.831-2.419 1.87-2.164m269.812.666c-.047.065 3.296 3.624 1.494 1.443-1.086-1.097-1.478-1.464-1.494-1.443m-245.241 1.113c-1.297 1.1-1.574 2.275 0 0m251.026.351c-.375-.254-.512 1.452.422 1.057-.146-.67-.298-.972-.422-1.057m-5.283 1.628c-.08.139.306.808 1.394 1.592-.772-1.34-1.315-1.731-1.394-1.592m-270.374 2.496c.934-.252 1.618 1.268-.753 5.314-1.367-3.04-.181-5.063.753-5.314m24.13.602c-1.523-.524-.991 2.036 0 0m-22.563.09c.32-.081.803.953-.203.549.009-.37.096-.521.203-.548m-8.014 1.013c.193-.105.478.63-.127.45.008-.287.062-.415.127-.45m-3.932.195c2.257-.696 4.809 2.38-1.72 6.02-.882-3.827.366-5.603 1.72-6.02m30.079 3.067c-.337.107-.704.96.275.228-.054-.216-.163-.263-.275-.228m-1.05 1.534c-.226.17-.155.954.32.118-.138-.163-.245-.175-.32-.118m262.097 1.887c-.086.15 1.157 1.146.641.233-.437-.24-.613-.283-.641-.233m3.337 2.133c-.132.619 1.566 4.345 2.73 3.829-1.91-3.453-2.65-4.2-2.73-3.83m30.927 2.992c.253.09.126.98-.38.267.168-.237.295-.297.38-.267m-331.806 1.777c1.33.088 1.878 1.346-.891 4.736l-.265.369-.264-.235c-5.185-1.908-.797-5.015 1.42-4.87m298.395.165c.085-.012.228.136.359.256.08-.105.197-.096.392.318-.038.08-.052.036-.085.09.102.2.008.242-.205.219-.049.009-.083.027-.112-.024-.117-.034-.096.048-.3-.064-.202-.566-.173-.778-.05-.795m.349.859q.064.019.112.024c.055-.01.124-.088.205-.218a1.2 1.2 0 0 0-.307-.41c-.102.137-.102.442-.01.604m34.822.1c.095-.098 1.791 3.44.606 1.642-.49-1.173-.637-1.61-.606-1.642m-353.48.263c.074-.402-4.11 5.215-1.888 2.924 1.366-1.987 1.863-2.79 1.888-2.924m27.512.53c.312.045-1.677 3.321-1.255 1.348.79-1.018 1.15-1.362 1.255-1.348m-10.657.667c-.933.038.273 1.103 0 0m4.515.731c.757.094-.196 4.092-1.381 1.594.687-1.222 1.13-1.625 1.381-1.594m18.771.115c-.198.11-.895 1.013-2.333 3.13-.299 1.186-3.803 6.437-2.91 5.805 1.932-2.474 5.837-9.267 5.243-8.935m-15.612.833c.245-.121.027 1.223-.408.731.194-.488.327-.691.408-.731m287.706 0c-.012.331 1.602 2.443.707.48-.518-.503-.703-.59-.707-.48m-266.396.24c-.207.194-.218 1.282.262.218-.102-.247-.193-.282-.262-.218m309.765.643c.278-.384 1.704 1.27 1.369 3.262-1.289-2.066-1.535-3.031-1.369-3.262m-330.273.146c.802.075.348 2.42-1.225.91.551-.707.958-.934 1.225-.91m339.927 1.14c-.246.131-.123 1.438.369.393-.164-.349-.287-.436-.37-.393m-323.217 1.45c-2.207-.254.148 1.62 0 0m-2.573.647c-.802.128-1.648 4.635.333.252-.104-.2-.218-.27-.333-.252m-28.088 1.851c2.251.763 5.238 6.9-1.089 6.915-1.348-5.895-.262-7.373 1.089-6.915m348.2 1.43c.159.122.308 1.176-.138.296.033-.273.086-.336.139-.296m-321.564.138c-.722.052.208 1.512 0 0m-.853 1.092c-.253.089-.126.979.38.267-.168-.237-.295-.297-.38-.267m1.035.039c-.439.642-.044 2.678.733.046-.349-.32-.587-.26-.733-.046m1.688 2.375c-.098-.307-2.768 4.305-1.02 2.37.799-1.62 1.052-2.268 1.02-2.37m320.082.318c.862 4.437 5.097 14.754 6.814 17.71-2.723-5.053-4.266-18.102-6.814-17.71m-27.303.473c.088-.474 1.935 2.318 2.415 5.09-1.888-3.345-2.468-4.805-2.415-5.09m-301.296.17c-.463.265.43 1.458 0 0m5.215.573c-.236-.158-1.834 2.201-.382 1.214.387-.83.46-1.162.382-1.214m332.907.028c-.246.13-.123 1.438.37.392-.165-.349-.288-.436-.37-.392m-8.693.497c.082.169-.09.993-.178.137.096-.176.151-.193.178-.137m-329.994.868c-.45.561-.769 3.633.442.595-.127-.69-.292-.782-.442-.595m-.954.482c1.146-2.24-1.856 3.287 0 0m331.497.271c.32.229 1.008 1.437 1.105 2.938-1.377-2.416-1.426-3.167-1.105-2.938m-37.538.649c-.72.133 1.35 13.772 1.813 5.673-1.023-4.262-1.573-5.718-1.813-5.673m-287.163.811c-.193-.076-3.002 4.916-.955 2.238.794-1.624 1.02-2.212.955-2.238m-2.493 2.26c-.138.255-1.292 2.661-.318.706.297-.635.364-.79.318-.705m-26.253 1.833c.52-.307.587 2.365-.64 1.54.243-1.004.466-1.437.64-1.54m-.64.569c.035.255-.242.937-.937 1.28.554-1.364.901-1.536.937-1.28m-15.042.288c-.426.393.411 2.05 0 0m334.788 1.089c-.31-.075-.022 4.105.52 1.888-.247-1.365-.417-1.863-.52-1.888m-338.929 1.293c-.367.539-1 5.235.202 1.32.014-1.218-.079-1.5-.202-1.32m353.472.257c.112-.01.558.738 1.604 2.87-.55-.71-.87-1.023-1.258-1.45.576 1.82 1.604 4.552.585 2.244-2.554-3.162-2.689-4.559-.585-2.243-.227-.716-.44-1.413-.346-1.421m-335.65.337c.273.143.03.969-1.545 2.047.485-1.651 1.273-2.19 1.545-2.047m24.783.747c-.536.037-2.185 3.948-3.483 11.821l.29-.397c3.153-7.624 3.73-11.46 3.193-11.424m308.057.197c.293-.287 2.776 2.784.687 1.685-.64-1.12-.785-1.59-.687-1.685m1.34.51c.253.088.126.978-.381.266.169-.237.296-.297.38-.267m24.11 1.587c-.254.089-.127.979.38.267-.17-.237-.296-.297-.38-.267m-333.364 1.594c-.246.131-.123 1.438.369.393-.164-.349-.287-.436-.37-.393m-7.13.617c.265-.156-.193 2.557-.537 1.363.28-.94.449-1.311.537-1.363m318.547 2.535c.54-.806 2.91 4.846.323 3.458-.479-2.203-.502-3.19-.323-3.458m-319.553.052c.323-.173.146 1.083-.491.76.22-.486.383-.703.491-.76m343.196.147c-.377-.629.427 2.967 3.115 12.036l.588 2.336.273-1.059c-2.039-7.83-3.598-12.684-3.976-13.313m-363.936 1.397c.91 1.086 1.724 7.129-.995 6.015-.13-5.534.45-6.667.995-6.015m363.386 3.464c-.376-.764.197 2.623.73 2.433-.373-1.463-.604-2.179-.73-2.433m-344.923 1.822c.17-.127-.909 4.16-.68 2 .428-1.425.624-1.958.68-2m7.71.374c-.35.342-1.403 3.482 0 .905.157-.823.118-1.02 0-.905m306.996 1.56c-.426.394.411 2.05 0 0m-315.726 1.526c.246.13.123 1.438-.37.392.165-.348.288-.435.37-.392m322.583 0c-.246.13-.123 1.438.369.392-.164-.348-.287-.435-.37-.392m.55 1.269c-.51.115.378 1.16 0 0m-323.595.243c.087.112.044 1.23-.13.336.058-.299.101-.373.13-.336m7.153.021c-.51.115.379 1.16 0 0m-23.28.198c1.65-.657-.139 5.54-2.888 3.5 1.406-2.3 2.338-3.281 2.888-3.5m15.863 1.369c.086.112.043 1.23-.13.335.057-.298.1-.373.13-.335m3.455.166c-.367.354.097 2.107.672.295-.334-.376-.55-.414-.672-.295m-3.797.975c.239.172.12 1.896-.36.517.16-.46.28-.575.36-.517m314.854.013c-.857.536-1.34 2.467-.889 6.309 5.776-1.378-16.113 15.215 3.726 12.714 5.692-9.67-.264-20.63-2.837-19.023m12.615 1.323c-.274-.348 1.141 7.348.96 3.745-.589-2.62-.868-3.63-.96-3.745m-21.777.116c-.76.019.81 7.023.482.48-.216-.343-.373-.483-.482-.48m-306.135.187c.08.155.04 1.707-.12.465.053-.414.093-.517.12-.465m3.963.4c-.463.264.43 1.456 0 0m-.32 1.352c-.212.315-1.092 3.815-.104 1.095.172-.951.176-1.2.105-1.095m-3.89.274c.081.168-.09.993-.178.137.095-.176.15-.193.178-.137m3.157 2.888c-.51.115.38 1.16 0 0m324.28.208c-.125.367.23 2.533 1.507 7.316l.805 2.58.252-.53c-.817-5.595-2.356-9.979-2.564-9.366m27.164 2.842c-.46-.308-.518 4.053 1.004 6.928-.1-1.574-.22-1.977-.334-2.969-.071.204-.186.268-.399-.345.138-.397.232-.453.31-.447-.211-1.559-.418-3.057-.581-3.167m.581 3.167c.03.227.059.528.089.792.096-.276.075-.779-.089-.792m-362.423-1.964c.817.542 1.178 4.121-1.423 3.8.278-3.358.932-4.126 1.423-3.8m6.668.335c.211.266-.051 4.166-.384 1.33.19-1.104.314-1.419.384-1.33m330.896.632c-.428.277.46 7.91 3.231 17.823l-.111-2.727c-1.658-11.076-2.787-15.311-3.12-15.096m-364.726 1.186c-.93-.576-6.415 6.897-2.836 7.203 2.74-5.017 3.259-6.942 2.836-7.203m24.635.392c.807.285 1.066 2.53-1.543 2.517.377-2.153 1.06-2.688 1.543-2.517m10.483 5.138c-.25.036-1.234 3.275-.101 1.343.185-1.01.184-1.355.1-1.343m1.984 2.935c-.139.029-.434 3.871-1.046 13.753.437 7.31.57 27.525 2.382 28.84-1.584-7.002-1.23-29.734-1.281-37.923-.078.003-.17-.049-.307-.442.132-.38.22-.42.297-.427-.016-1.15.013-3.813-.045-3.8m.045 3.801c.003.263.008.556.01.87.212-.009.207-.888-.01-.87m348.619-3.715c.076.197-.028 1.501-.143.306.072-.314.117-.372.143-.306m4.642.055c-.265 1.16-.087 9.92.894 15.2l-.017-6.68c-.4-7.173-.719-9.215-.877-8.52m-355.514.917c-.246.13-.123 1.438.369.392-.164-.348-.287-.436-.37-.392m-34.378.099c.772-.21.199 2.298-1.237 1.345.574-.903.98-1.275 1.237-1.345m33.966.558c-1.236 7.379.398 9.267 0 0m365.124.182c-.272.152.924 17.315.862 7.16-.518-5.371-.771-7.21-.862-7.16m-407.434 3.494c-.043.128.846 1.26.437.32-.305-.295-.422-.363-.437-.32m400.281.704c-.294.08.05 6.148.526 2.499-.259-1.886-.428-2.525-.526-2.499m.059 4.23c-.484-.564-.844 1.42.467 1.576-.131-.916-.306-1.388-.467-1.576m-358.654.274c-.23.257-.116 2.837.346.773-.154-.688-.27-.86-.346-.773m335.23.442c-.405.517.399 2.64 0 0m29.904.088c-.224.39-.112 4.287.337 1.17-.15-1.04-.262-1.3-.337-1.17m-402.442 1.516c-.51.115.379 1.16 0 0m-8.77 1.591c-4.823-.126-19.207 5.163.037 2.43 2.116-1.744 1.57-2.388-.037-2.43m411.95.32c-.713.015.012 15.181.4 1.05-.166-.746-.298-1.053-.4-1.05m-9.75 1.248c-.464.264.429 1.457 0 0m-353.46.03c.066.418.013 3.918-.108.962.05-.898.085-1.101.107-.962m355.588 1.56c-.408.48.384 2.32 0 0m-379.248 4.314c.234.215.117 2.363-.352.644.157-.572.274-.716.352-.644m23.009 1.37c-.407-.02-.571 1.576.452.71-.154-.517-.317-.703-.452-.71m333.323.545c-.545-.507-2.506 6.11-.14 3.488.346-2.358.322-3.319.14-3.488m-333.697.279c-.333-.812-1.617 3.118-.122 2.727.238-1.66.233-2.457.122-2.727m354.138.2c-.119-.858-1.385 21.966-.391 10.884.342-7.68.43-10.598.39-10.884m-1.233 1.313c-.231.258-.116 2.837.346.773-.154-.687-.27-.86-.346-.773m-3.571.944c.723.506 1.184 2.875.135 8.098l-.151.305c-3.122-4.916-1.19-9.247.016-8.403m-350.18 1.367c-.509.115.38 1.16 0 0m332.571.326c-.24.173-.12 1.897.36.518-.16-.46-.28-.575-.36-.518m-351.892 1.25c.622-.197 7.481 1.694 2.141 1.066-1.862-.7-2.348-.999-2.14-1.065m19.744.816c-.08 1.349.973 12.18.555 2.909-.375-2.754-.528-3.358-.555-2.909m-.775.102c-.46-.866-1.396 5.858.188 3.995.065-2.574-.035-3.706-.188-3.995m-43.544 4.99c-.828-.26-2.724 1.517-.734 3.142 1.343-2.096 1.23-2.985.734-3.141m27.437 2.555c.344.115-.033 3.633-.605 1.36.295-1.058.49-1.398.605-1.36m5.27.07c.247.13.124 1.438-.368.392.164-.348.287-.435.369-.392m8.467 0c.246.13.123 1.438-.369.392.164-.348.287-.435.37-.392m-16.91.373c1.672-.446 4.057 5.697-.57 9.787-1.18-6.88-.433-9.52.57-9.787m379.279 1.843c.9.17 1.104 4.363-1.546 14.706l-.488 1.065-.314-.992c-1.12-8.565 1.19-14.997 2.348-14.779m-407.463.417c-2.25.21-6.834 1.906-8.456 3.58-3.15 3.648.528 1.931 2.905 1.758 7.716-4.271 7.801-5.548 5.551-5.338m50.194.555c-.234.214-.117 2.363.352.644-.156-.573-.274-.716-.352-.644m352.173 3.492c-.39.608.376 2.903 0 0m-390.104 2.067c.231.258.116 2.837-.346.774.154-.688.27-.86.346-.774m-17.702 2.683c-.7 1.073-.117 13.69 1.15 4.027-.54-3.46-.916-4.385-1.15-4.027m36.197 1.542c.963-.067 4.125 5.572.118 2.502-.515-1.824-.439-2.48-.118-2.502m22.506 3.76c-.093.426.944 4.099.565 1.026-.377-.95-.534-1.168-.565-1.026m-40.905 12.621c-.353 0-1.514.642-.045.276.19-.204.162-.275.045-.276m-1.591 1.432c-1.22-.51-8.998 5.145-1.766 3.08 1.85-2.055 2.172-2.91 1.766-3.08m386.008.089c-.08.05-.278.648-.502 1.34.17-.168.278-.096.293.14.154-.814.284-1.526.209-1.48m-.209 1.48c-.014.074-.089.36-.106.443.093-.051.12-.25.106-.444m-.293-.14c-.06.06-.1.02-.182.193.044.094.061.047.1.106.027-.086.057-.22.082-.3m-.082.299c-.076.24-.152.565-.232.844.146-.03.035.67-.068.247-.61 2.166-1.259 4.908-1.1 6.211 1.019-3.915 1.408-5.701 1.669-7.016-.06.032-.166-.128-.27-.286m-.3 1.091.068-.247c-.032.006-.052-.025-.112.086.012.12.03.101.044.161m9.665 5.108c-.095-.89-3.324 9.207-1.263 5.469.977-3.656 1.294-5.173 1.263-5.47m-3.793.175c.253.089.127.979-.38.267.169-.237.295-.297.38-.267m-13.656 4.332c-.304.615-1.712 5.324-.213 1.227.293-1.183.314-1.432.213-1.227m-360.364.896c.496 3.434 3.836 10.06-1.519 11.43-1.271-6.865.094-5.438 1.52-11.43m366.496.361c-.142-.368-1.034 1.34-2.25 6.226 1.785-3.415 2.392-5.858 2.25-6.226m-335.376 2.348c.253.09.127.98-.38.267.169-.237.295-.296.38-.267m327.863.007c-.246.13-.123 1.438.37.392-.165-.348-.288-.435-.37-.392m-20.394.41a2 2 0 0 1-.139.38c.139-.431.162-.47.14-.38m-348.15.594c-.509.115.38 1.16 0 0m-4.258 2.673c-.532.105-1.094 1.092-1.63 3.35 4.426 4.156-3.614 12.944 2.429 13.275 3.27-.975 1.509-17.079-.799-16.625m16.787.211c.233.036.305 2.326-.27.936.096-.709.192-.947.27-.936m369.502.102c-.121-.476-3.377 6.676-1.239 3.679.972-2.513 1.28-3.52 1.24-3.679m-378.657.775c-.64-.65-.426 1.453 2.561 8.261-.428-4.206-1.921-7.61-2.561-8.261m369.349.301c-.33.268-.328 2.137.423.457-.167-.457-.314-.546-.423-.457m3.461.415c.43-.266.34.736-1.566 3.802.183-2.002 1.135-3.536 1.566-3.802m-4.476 2.45c-.254.089-.127.979.38.267-.169-.238-.296-.297-.38-.267m9.537 1.438c.054-.755-2.082 4.127-.985 3.062.706-1.933.967-2.81.985-3.062m-37.882 1.09c-.213.234-1.073 2.452-.096.65.166-.586.167-.728.096-.65m36.314.07c-.509.115.38 1.16 0 0m-363.983.734c2.229 3.856 4.672 8.4.497 12.049-5.442-8.56-3.753-11.99-.497-12.05m-8.998.42c-.237.385.361 2.995 1.41 2.799-.826-2.459-1.268-3.03-1.41-2.799m2.68.022c-.02-.539 1.7 1.344.762 1.5-.556-.871-.755-1.32-.762-1.5m370.09.405c-.284.068-2.716 3.287-.676 1.293.628-.988.771-1.315.677-1.293m-9.438.138c-.156.671.427 2.806.45.05-.264-.336-.398-.274-.45-.05m-27.686 2.258c-.512.608-3.215 6.277-.5 1.647.598-1.49.67-1.85.5-1.647m-335.992.257c-.509.114.38 1.16 0 0m42.659.568c.548-.039 1.445 1.87 1.043 5.837-1.793-3.815-1.592-5.8-1.043-5.837m-10.86.82c.537-.462 3.203 4.278 2.52 7.83-2.396-5.403-2.841-7.553-2.52-7.83m324.944 1.708c-.014-.288-1.959 3.47-.816 1.98.61-1.339.82-1.885.816-1.98m-313.351.079c-.51.114.379 1.16 0 0m314.405.998c-.863.13.091 2.194 0 0m-315 .107c.254.089.127.98-.38.267.17-.237.296-.297.38-.267m-.54 1.492c.138-.153 2.05 2.491.64 1.33-.536-.917-.687-1.279-.64-1.33m322.042 1.683c-.253.089-.126.98.38.267-.168-.237-.295-.297-.38-.267m-.422 1.122c-.274.023-1.42 2.04-.14.834.225-.628.231-.842.14-.834m-359.95.121c-.2.087 1.836 3.867 1.128 1.51-.748-1.157-1.062-1.538-1.129-1.51m40.788.496c.145-.25 3.093 1.31 1.076.992-.862-.623-1.125-.908-1.076-.992m285.28.786c-.026-.17-1.893 1.996-.77 1.147.581-.774.777-1.09.77-1.147m-278.594 2.879c-.105.027-.015.402.317 1.213 4.064 6.259 10.828 15.27 14.755 18.33-4.038-2.933-14.337-19.736-15.072-19.543m-32.252.045c.603.117 3.47 4.295.453 1.64-.604-1.266-.654-1.68-.453-1.64m17.745.473c.67.146 1.503 1.637 1.025 2.658 1.737 1.442 1.062 6.387-1.069 2.76-1.133-4.363-.626-5.563.044-5.418m-28.128 3.77c.866-1.029 4.723 8.469.539 5.392-.785-3.538-.828-5.05-.54-5.393m349.54.94c-.326-.022-3.604 5.1-.986 2.222.875-1.637 1.095-2.215.986-2.223m-16.48.001c.149-.01-.064.905-.28.405.142-.295.232-.401.281-.405m7.678.495c-.24.172-.12 1.896.36.517-.16-.46-.28-.575-.36-.517m-332.77.26c1.94 1.043 4.78 18.418-.911 12.674-4.496-6.897 3.976 6.484 1.723 4.913-6.331-6.299-5.748-14.084-1.894-15.214.236-1.984.635-2.613 1.083-2.373m324.502.261c.246.131.123 1.438-.369.393.164-.349.287-.436.37-.393m7.852.222c-.354-.017-1.658 1.96-.103.87.234-.637.221-.864.103-.87m-311.314.858c.17.114.757 2.513.032.881-.1-.703-.09-.92-.032-.881m300.255.922c1.472 1.267-4.927 10.088 2.2.179-2.525 4.322-5.876 8.461-9.245 11.935-1.535-2.307-.936-.601 7.045-12.114m-277.442.055c-2.15-.028-2.36 3.29 2.673 1.457-1.025-1.067-1.957-1.448-2.673-1.457m286.845.91c-.233.19-.199 1.497.314.314-.129-.318-.236-.378-.314-.314m-4.729 1.136c-.193.07-.5.856.117.245 0-.214-.052-.27-.117-.245m5.54.705c-.294.105-1.837 2.957-.285 1.088.34-.852.382-1.122.285-1.088m2.763 2.021c-.64-.167-2.641 1.278-4.081 4.835 4.002-2.89 4.722-4.668 4.081-4.835m-12.213 3.471c-.14-.038-.45.097-.969.45-1.31 3.062-8.444 11.072-6.746 11.339 1.392-2.711 8.695-11.519 7.715-11.789m6.803 4.786c-.86-.277-2.853 1.032-2.877 3.166-.283 1.367-5.912 3.654-1.058 3.18 4.517-4.208 4.794-6.07 3.935-6.346m-323.585.035c.76-.463 2.192.079 4.785 2.596 8.79 8.278 3.769 4.94 6.361 12.441 6.958-4.918.891 5.662-2.646 6.21-2.382-5.143-10.195-12.232-10.319-16.16 3.324 6.735-.458-3.698 1.82-5.087m326.737.203c-.452.485-1.87 3.945-.026.858.22-.852.177-1.02.026-.858m-320.623 1.291c-.03-.442 5.324 2.776 2.335 1.949-1.716-1.247-2.325-1.801-2.335-1.949m-4.537.027c-.026.17 1.234 1.97.573.552-.413-.485-.564-.609-.573-.552m38.101 7.1c1.414.731 6.721 5.671 4.191 5.288-4.487-4.65-5.04-5.727-4.191-5.288m-26.718.21c.55.201 1.232.842 1.788 1.589-.822-1.677 5.788.028 2.266 1.95-.891-.557-1.48-1.006-1.87-1.375.458.874.714 1.91.341 3.046-4.204-4.396-3.785-5.671-2.525-5.21m2.184 2.164c-.123-.233-.245-.372-.396-.575.084.172.133.328.396.575m23.708-.901c-1.177-1.408 7.197 6.52 5.102 5.208-3.256-3.232-4.71-4.739-5.102-5.208m-26.779.884c.215.161.247.866-.264.094.1-.142.192-.148.264-.094m287.625 1.888c.75-1.047-4.65 3.442-3.28 3.272 2.096-1.958 3.03-2.922 3.28-3.272m-249.754 2.2c.415-.192 1.39 2.124-.116 1.242-.099-.834-.022-1.177.116-1.241m-7.96.377c2.408-.49 6.473 2.384 5.575 10.532l-1.214-.874c-7.523-5.312-6.77-9.168-4.362-9.658m4.007 1.1c.337.107.704.959-.275.228.054-.216.163-.264.275-.228m3.106.227c.765.194 1.564.842.102 1.36-1.598-1.295-.867-1.554-.102-1.36m-40.836.097c-.45-.114.783 2.065 1.11 1.08-.622-.749-.96-1.042-1.11-1.08m300.21 1.605c-.262.185-1.344 1.986-.127.534.21-.478.214-.596.127-.534m-271.021.938c.308.146.402 2.193-.356.689.126-.576.253-.738.356-.69m10.742 1.159c.265-.004 1.517 1.292.195.56-.263-.413-.284-.56-.195-.56m257.302.992c-.216.162-.247.866.263.094-.1-.141-.191-.148-.263-.094m-265.64.157c1.945 1.18 5.49 4.66 5.543 5.949-3.887-3.651-4.76-3.55-4.922-3.263-.008.328-.092.164 0 0 .007-.294-.095-1.013-.622-2.686m2.044.1c.565.362 2.653 2.415 4.57 5.07-4.176-4.105-5.135-5.433-4.57-5.07m-25.536.314c1.028.209.906 1.962-3.452 4.635.243-3.506 2.423-4.843 3.452-4.635m248.668 2.96c-.253.089-.127.979.38.267-.169-.237-.295-.297-.38-.267m-242.813.6c-.112.159 1.034 1.775 1.893 1.918-1.306-1.586-1.826-2.014-1.893-1.919m4.421 1.087c-.138.394 1.53 3.33 2.698 3.239-1.882-2.798-2.615-3.476-2.698-3.24m-10.739.111c.36.175 2.503 3.146.456 1.049-.498-.855-.576-1.107-.456-1.049m28.005.298c.738.208 5.547 5.215 1.112 1.879-1.152-1.484-1.358-1.948-1.112-1.88m2.569.812c.262.185 1.344 1.986.127.534-.21-.478-.214-.596-.127-.534m-22.074.514c.127.698 19.658 17.221 16.737 12.195-7.892-6.99-2.787-.687-13.21-9.691-2.552-1.984-3.556-2.665-3.527-2.504m-3.986 1.723c-.083.16 1.08 1.77 1.845 1.908-1.299-1.578-1.796-2.004-1.845-1.908m9.667.146c-.253.09-.126.98.38.268-.169-.238-.295-.297-.38-.268m222.16 2.731c-7.1 1.383-2.397.768 0 0m-227.58 1.404c.286.202 1.561 1.317 2.964 2.739-2.55-2.23-3.25-2.941-2.964-2.74m21.142 1.932c.477-.235 3.35 2.487.616 1.468-.67-.983-.776-1.39-.616-1.468m-12.547.283c-.253.09-.126.98.38.268-.169-.238-.295-.297-.38-.268m3.221 3.317c-.284.11.072.607 1.922 1.162-.713-.995-1.638-1.272-1.922-1.162m-4.228 3.565c-.065.007-.07.078.065.265.865.272.13-.285-.065-.265m10.532.527c-.253.089-.127.979.38.267-.169-.237-.295-.297-.38-.267m69.903 2.56c-1.905.176-5.123 3.053-.061 3.676 1.874-2.912 1.204-3.78.06-3.675m-69.266.458c.103.257 2.289 2.021.804.426-.642-.43-.839-.512-.804-.426m169.398 1.176c-1.24-.144-11.958 2.763-3 1.43 2.773-.996 3.413-1.382 3-1.43m-9.362 7.669c-1.263.207-3.865 1.83.508.429.184-.41-.088-.498-.508-.43m-6.772.096c.67-.659-28.962 4.693-13.559 3.14 9.747-2.034 13.336-2.92 13.56-3.14m3.835.86c-.82.04-4.806 1.431-.656.548.85-.423.929-.56.656-.547m-148.514.543c-.24.11 4.293 3.296 7.013 4.27-5.005-3.294-6.868-4.336-7.013-4.27m155.128 1.033c-1.047-.556-.247.596 0 0m-1.185.249c-1.457-.43-.264.463 0 0m-10.9.165c-.52.092-.26 1.006.78.275-.347-.244-.607-.305-.78-.275m-.874.621c-2.049-.411-.393.426 0 0m-6.472 3.17c.304.104 1.046.209 1.317.002-1.484-.21-1.62-.107-1.317-.002m-124.55 1.68c-.308.11 1.871 1.851 3.824 2.212-2.56-1.758-3.64-2.28-3.825-2.213m34.99.442c.244.11.837.221 1.05.001-1.186-.221-1.293-.111-1.05-.001" style="fill:#a2aac4;fill-opacity:1;fill-rule:evenodd" transform="translate(227.04 50.288)"/>
</svg>
