<?xml version="1.0" standalone="no"?>
<!--Created with Inkscape (http://www.inkscape.org/)-->
<svg xmlns="http://www.w3.org/2000/svg" xmlns:xlink="http://www.w3.org/1999/xlink" viewBox="0 0 36 36">
  <defs>
    <linearGradient>
      <stop offset="0.0000000" stop-color="#909090" stop-opacity="1"/>
      <stop offset="1.0000000" stop-color="#8b8b8b" stop-opacity="1"/>
    </linearGradient>
    <linearGradient id="b">
      <stop offset="0" stop-color="#000" stop-opacity="1"/>
      <stop offset="1" stop-color="#000" stop-opacity="0"/>
    </linearGradient>
    <linearGradient id="a">
      <stop offset="0.0000000" stop-color="#fff" stop-opacity="1"/>
      <stop offset="1.0000000" stop-color="#a2a2a2" stop-opacity="1"/>
    </linearGradient>
    <radialGradient gradientUnits="userSpaceOnUse" r="21.897356" fy="9.0534878" fx="9.6782265" cy="9.0534878" cx="9.6782265" gradientTransform="matrix(1.418754,0,0,1.283455,-2.580802,-2.246642)" id="d" xlink:href="#a"/>
    <radialGradient gradientUnits="userSpaceOnUse" r="7.9372535" fy="48.622074" fx="8.5986919" cy="48.622074" cx="8.5986919" gradientTransform="scale(1.870829,0.534522)" id="c" xlink:href="#b"/>
  </defs>
  <metadata/>
  <path transform="matrix(1.139243,0,0,1.139243,0.818919,0.57862)" d="M 30.935922 25.989592 A 14.849242 4.2426405 0 1 1  1.2374372,25.989592 A 14.849242 4.2426405 0 1 1  30.935922 25.989592 z" style="marker:none" opacity=".15083798" color="#000" fill="url(#c)" fill-opacity="1" fill-rule="evenodd" stroke="none" stroke-width="1.75999999" stroke-linecap="butt" stroke-linejoin="miter" marker-start="none" marker-mid="none" marker-end="none" stroke-miterlimit="10" stroke-dashoffset="0" stroke-opacity="1" visibility="visible" display="inline" overflow="visible"/>
  <path d="M 18.250724,4.0787206 C 9.470121,4.0787206 2.3529801,9.4449374 2.3529801,16.096909 C 2.3529801,22.748882 9.470121,28.157268 18.250724,28.157267 C 19.102931,28.157267 19.838325,27.875665 20.654363,27.777745 C 22.156214,29.943653 23.886914,31.542116 28.780303,31.557609 C 27.691703,29.564535 27.097838,28.242917 26.642372,26.090982 C 31.063685,23.949687 34.190639,20.364504 34.190638,16.096909 C 34.190638,9.4449374 27.031328,4.0787206 18.250724,4.0787206 z " style="marker:none" color="#000" fill="url(#d)" fill-opacity="1" fill-rule="evenodd" stroke="#000" stroke-width="2" stroke-linecap="butt" stroke-linejoin="miter" marker-start="none" marker-mid="none" marker-end="none" stroke-miterlimit="10" stroke-dasharray="none" stroke-dashoffset="0" stroke-opacity="1" visibility="visible" display="inline" overflow="visible"/>
</svg>
