<?xml version="1.0" standalone="no"?>
<!--Generator: Adobe Illustrator 9.0, SVG Export Plug-In-->
<svg xmlns="http://www.w3.org/2000/svg" xmlns:xlink="http://www.w3.org/1999/xlink" viewBox="0 0 48 48">
  <metadata/>
  <defs>
    <radialGradient gradientUnits="userSpaceOnUse" fy="17.7773" fx="18.9292" r="22.4782" cy="17.7773" cx="18.9292" id="a">
      <stop offset="0" stop-color="#fed182"/>
      <stop offset="0.2809" stop-color="#ffb310"/>
      <stop offset="1" stop-color="#996e04"/>
    </radialGradient>
    <radialGradient r="22.4782" fy="17.7773" fx="18.9292" cy="17.7773" cx="18.9292" gradientUnits="userSpaceOnUse" xlink:href="#a"/>
    <radialGradient gradientTransform="matrix(0.894118,0.000000,0.000000,0.894118,-35.36024,1.286534)" r="47.601841" fy="11.966942" fx="57.685951" cy="11.966942" cx="57.685951" gradientUnits="userSpaceOnUse" xlink:href="#a"/>
    <radialGradient r="47.601841" fy="11.966942" fx="57.685951" cy="11.966942" cx="57.685951" gradientTransform="matrix(0.894118,0.000000,0.000000,0.894118,-35.36024,1.286534)" gradientUnits="userSpaceOnUse" xlink:href="#a"/>
    <radialGradient r="47.601841" fy="11.966942" fx="57.685951" cy="11.966942" cx="57.685951" gradientTransform="matrix(0.894118,0.000000,0.000000,0.894118,-34.72112,1.969730)" gradientUnits="userSpaceOnUse" xlink:href="#a"/>
    <radialGradient r="47.601841" fy="11.966942" fx="57.685951" cy="11.966942" cx="57.685951" gradientTransform="matrix(0.894118,0.000000,0.000000,0.894118,-34.72112,1.969730)" gradientUnits="userSpaceOnUse" id="b" xlink:href="#a"/>
  </defs>
  <rect rx="3.5574141" ry="3.5574141" y="7.2506886" x="7.2506886" height="33.498623" width="33.498623" style="marker:none" color="#000" fill="url(#b)" fill-opacity="1" fill-rule="evenodd" stroke="#000" stroke-width="2.6666667" stroke-linecap="butt" stroke-linejoin="miter" stroke-miterlimit="4" stroke-dashoffset="0" stroke-opacity="1" marker-start="none" marker-mid="none" marker-end="none" visibility="visible" display="inline" overflow="visible"/>
  <path d="M 37.400000,23.500000 C 37.200000,23.300000 34.100000,19.700000 29.500000,17.800000 L 30.400000,16.200000 C 30.800000,15.500000 30.500000,14.600000 29.800000,14.300000 C 29.100000,13.900000 28.200000,14.200000 27.900000,14.900000 L 26.700000,17.000000 C 25.900000,16.800000 25.100000,16.800000 24.300000,16.800000 C 17.100000,16.800000 11.400000,23.300000 11.200000,23.500000 C 10.700000,24.100000 10.700000,24.900000 11.200000,25.500000 C 11.400000,25.700000 14.600000,29.300000 19.200000,31.200000 L 18.200000,33.000000 C 17.800000,33.700000 18.100000,34.600000 18.800000,34.900000 C 19.500000,35.300000 20.400000,35.000000 20.700000,34.300000 L 22.000000,32.000000 C 22.800000,32.100000 23.600000,32.200000 24.400000,32.200000 C 31.600000,32.200000 37.300000,25.700000 37.500000,25.500000 C 38.000000,24.900000 38.000000,24.100000 37.500000,23.500000 L 37.400000,23.500000 z M 20.200000,20.600000 C 19.300000,21.600000 18.700000,23.000000 18.700000,24.500000 C 18.700000,26.000000 19.300000,27.300000 20.200000,28.400000 C 17.700000,27.400000 15.600000,25.600000 14.400000,24.500000 C 15.500000,23.400000 17.600000,21.700000 20.200000,20.600000 z M 22.000000,24.500000 C 22.000000,23.300000 22.900000,22.400000 24.000000,22.200000 L 22.200000,25.500000 C 22.100000,25.200000 22.000000,24.900000 22.000000,24.500000 z M 24.700000,26.800000 L 26.400000,23.600000 C 26.500000,23.900000 26.600000,24.200000 26.600000,24.500000 C 26.600000,25.600000 25.800000,26.600000 24.700000,26.800000 z M 28.400000,28.300000 C 29.300000,27.300000 29.900000,25.900000 29.900000,24.400000 C 29.900000,22.900000 29.300000,21.600000 28.400000,20.500000 C 30.900000,21.500000 33.000000,23.300000 34.200000,24.400000 C 33.100000,25.500000 31.000000,27.200000 28.400000,28.300000 L 28.400000,28.300000 z " opacity=".69999999" fill="#fff" stroke="none" transform="matrix(0.872763,0.000000,0.000000,0.872763,2.748221,2.530030)" fill-rule="nonzero" stroke-miterlimit="4"/>
</svg>
