<?xml version="1.0" standalone="no"?>
<!--Created with Inkscape (http://www.inkscape.org/)-->
<svg xmlns="http://www.w3.org/2000/svg" xmlns:xlink="http://www.w3.org/1999/xlink" viewBox="0 0 32.000000 32.000000">
  <defs>
    <linearGradient id="a">
      <stop offset="0.0000000" stop-color="#93c77d" stop-opacity="1"/>
      <stop offset="1.0000000" stop-color="#467432" stop-opacity="1"/>
    </linearGradient>
    <linearGradient gradientUnits="userSpaceOnUse" y2="48.878231" x2="42.862282" y1="12.346894" x1="15.128270" id="b" xlink:href="#a"/>
  </defs>
  <metadata/>
  <path d="M 58.403591 29.207693 A 29.010935 29.010935 0 1 1  0.38172150,29.207693 A 29.010935 29.010935 0 1 1  58.403591 29.207693 z" transform="matrix(0.474879,0.000000,0.000000,0.474879,3.122290,3.180454)" fill="#000" fill-opacity=".098039217" fill-rule="evenodd" stroke="none" stroke-width="2.5" stroke-linecap="butt" stroke-linejoin="miter" stroke-miterlimit="4" stroke-opacity="1"/>
  <path d="M 58.403591 29.207693 A 29.010935 29.010935 0 1 1  0.38172150,29.207693 A 29.010935 29.010935 0 1 1  58.403591 29.207693 z" transform="matrix(0.474879,0.000000,0.000000,0.474879,2.512690,2.745024)" fill="#000" fill-opacity=".098039217" fill-rule="evenodd" stroke="none" stroke-width="2.5" stroke-linecap="butt" stroke-linejoin="miter" stroke-miterlimit="4" stroke-opacity="1"/>
  <path d="M 58.403591 29.207693 A 29.010935 29.010935 0 1 1  0.38172150,29.207693 A 29.010935 29.010935 0 1 1  58.403591 29.207693 z" transform="matrix(0.474879,0.000000,0.000000,0.474879,1.990170,2.396674)" fill="#000" fill-opacity=".098039217" fill-rule="evenodd" stroke="none" stroke-width="2.5" stroke-linecap="butt" stroke-linejoin="miter" stroke-miterlimit="4" stroke-opacity="1"/>
  <path d="M 58.403591 29.207693 A 29.010935 29.010935 0 1 1  0.38172150,29.207693 A 29.010935 29.010935 0 1 1  58.403591 29.207693 z" transform="matrix(0.459870,0.000000,0.000000,0.459870,1.891210,2.169424)" fill="#58913f" fill-opacity="1" fill-rule="evenodd" stroke="#5b2219" stroke-width="2.1745276" stroke-linecap="butt" stroke-linejoin="miter" stroke-miterlimit="4" stroke-opacity="1" stroke-dasharray="none"/>
  <path d="M 50.384842 29.319231 A 18.624397 18.624397 0 1 1  13.136047,29.319231 A 18.624397 18.624397 0 1 1  50.384842 29.319231 z" transform="matrix(0.479814,0.000000,0.000000,0.479814,0.184440,1.344164)" fill="#fff" fill-opacity="1" fill-rule="evenodd" stroke="none" stroke-width="1pt" stroke-linecap="butt" stroke-linejoin="miter" stroke-opacity="1"/>
  <path d="M 53.950159 30.352861 A 24.175779 24.175779 0 1 1  5.5986004,30.352861 A 24.175779 24.175779 0 1 1  53.950159 30.352861 z" transform="matrix(0.510519,0.000000,0.000000,0.510519,0.315780,0.161334)" stroke-dasharray="none" stroke-opacity="1" stroke-dashoffset="0" stroke-miterlimit="4" stroke-linejoin="round" stroke-linecap="round" stroke-width="2.4093129" stroke="url(#b)" fill-rule="evenodd" fill-opacity="1" fill="none"/>
  <path d="M 21.592407,13.389521 L 17.481425,15.544674 L 21.592407,17.712281 L 20.645634,19.468793 L 16.509738,17.176609 L 16.509738,21.461996 L 14.367043,21.461996 L 14.367043,17.176609 L 10.243602,19.468793 L 9.2968328,17.712281 L 13.432729,15.544674 L 9.2968328,13.389521 L 10.243602,11.633012 L 14.367043,13.900281 L 14.367043,9.6148922 L 16.509738,9.6148922 L 16.509738,13.900281 L 20.645634,11.633012 L 21.592407,13.389521" style="line-height:100%" font-size="12" font-style="normal" font-variant="normal" font-weight="700" font-stretch="normal" writing-mode="lr-tb" text-anchor="start" fill="#58913f" fill-opacity="1" stroke="#58913f" stroke-width=".99999976px" stroke-linecap="round" stroke-linejoin="round" stroke-opacity="1" font-family="Bitstream Vera Sans Mono"/>
</svg>
