<?xml version="1.0" standalone="no"?>
<!--Created with Inkscape (http://www.inkscape.org/)-->
<svg xmlns="http://www.w3.org/2000/svg" xmlns:xlink="http://www.w3.org/1999/xlink" viewBox="0 0 48 48">
  <defs>
    <linearGradient id="d">
      <stop offset="0" stop-color="#e1e1e1" stop-opacity="1"/>
      <stop offset="1" stop-color="#fff" stop-opacity="1"/>
    </linearGradient>
    <linearGradient>
      <stop offset="0" stop-color="black" stop-opacity="0"/>
      <stop offset="0.5" stop-color="black" stop-opacity="1"/>
      <stop offset="1" stop-color="black" stop-opacity="0"/>
    </linearGradient>
    <linearGradient id="c">
      <stop offset="0" stop-color="#3a7302" stop-opacity="1"/>
      <stop offset="1" stop-color="#59b102" stop-opacity="1"/>
    </linearGradient>
    <linearGradient id="b">
      <stop offset="0" stop-color="#9de754" stop-opacity="1"/>
      <stop offset="1" stop-color="#6dc11b" stop-opacity="1"/>
    </linearGradient>
    <linearGradient id="a">
      <stop offset="0" stop-color="#9de754" stop-opacity="1"/>
      <stop offset="1" stop-color="#64c707" stop-opacity="1"/>
    </linearGradient>
    <linearGradient xlink:href="#a" x1="30.919174" y1="40.322842" x2="37.072601" y2="27.392887" gradientUnits="userSpaceOnUse" gradientTransform="translate(13.72618,19.87439)"/>
    <radialGradient xlink:href="#b" id="e" cx="11.869292" cy="18.506054" fx="11.869292" fy="18.506054" r="8.862319" gradientTransform="matrix(2.2627439,8.8523214e-2,-6.8988777e-2,2.2378198,-3.6628914,-7.2026612)" gradientUnits="userSpaceOnUse"/>
    <linearGradient xlink:href="#c" x1="8.587862" y1="14.717" x2="8.7232141" y2="7.4402122" gradientUnits="userSpaceOnUse" gradientTransform="matrix(1.8975788,0,0,2.0014635,3.6526132,0.494878)"/>
    <linearGradient xlink:href="#d" id="f" x1="14.651786" y1="26.13393" x2="14.249997" y2="12.160716" gradientUnits="userSpaceOnUse" gradientTransform="matrix(1.348032,0,0,1.3913043,2.7860361,2.2391312)"/>
  </defs>
  <metadata/>
  <path d="M 3.9143412 26.016556 A 0.87125659 0.87125659 0 1 1  2.171828,26.016556 A 0.87125659 0.87125659 0 1 1  3.9143412 26.016556 z" transform="matrix(1.2658324,0,0,1.2715788,28.279647,-11.611853)" opacity="1" fill="#c00" fill-opacity="1" stroke="none" stroke-width="1" stroke-linecap="butt" stroke-linejoin="miter" stroke-miterlimit="4" stroke-dasharray="1,2" stroke-dashoffset="0" stroke-opacity="1"/>
  <path d="M 5.5644329,23.566487 C 9.9796224,23.621579 18.420037,39.679751 18.598584,41.499998 L 25.479091,41.492291 C 25.524484,38.005771 37.580444,13.462673 42.55298,7.5134808 C 40.232557,7.5089876 37.810534,7.5044944 36.760918,7.5000002 C 26.346413,20.548538 21.561621,31.567727 21.537923,31.454753 C 21.610463,31.502325 17.184048,23.514559 12.943499,23.487481 L 5.5644329,23.566487 z " fill="url(#e)" fill-opacity="1" fill-rule="evenodd" stroke="url(#linearGradient5897)" stroke-width="1.00000036px" stroke-linecap="butt" stroke-linejoin="miter" stroke-opacity="1"/>
  <path d="M 9.2622765,24.527349 C 11.980688,26.753114 19.09782,38.786825 19.25399,40.499999 L 24.573637,40.492744 C 24.974421,37.273426 36.138933,14.111927 40.48826,8.5126881 C 38.458656,8.5084585 38.236401,8.5042298 37.318333,8.5000002 C 27.589552,20.277946 21.619722,33.867512 21.598994,33.761182 C 21.662442,33.805956 17.005497,24.604745 13.296415,24.579261 L 9.2622765,24.527349 z " opacity=".5" fill="none" fill-opacity="1" fill-rule="evenodd" stroke="url(#f)" stroke-width="1.00000036px" stroke-linecap="butt" stroke-linejoin="miter" stroke-opacity="1"/>
</svg>
