<?xml version="1.0" standalone="no"?>
<!--Generator: Adobe Illustrator 9.0, SVG Export Plug-In-->
<svg xmlns="http://www.w3.org/2000/svg" xmlns:xlink="http://www.w3.org/1999/xlink" viewBox="0 0 48.000000 48.000000">
  <metadata/>
  <defs>
    <linearGradient id="f" gradientUnits="userSpaceOnUse" x1="18.6235" y1="19.1899" x2="24.3907" y2="25.8145">
      <stop offset="0" stop-color="#959595"/>
      <stop offset="1" stop-color="#5b5b5b"/>
    </linearGradient>
    <radialGradient id="e" cx="13.5024" cy="12.3457" r="10.8808" fx="13.5024" fy="12.3457" gradientUnits="userSpaceOnUse">
      <stop offset="0" stop-color="#454545"/>
      <stop offset="1" stop-color="#333"/>
    </radialGradient>
    <radialGradient id="d" cx="23.1567" cy="29.0337" r="26.966" fx="23.1567" fy="29.0337" gradientUnits="userSpaceOnUse">
      <stop offset="0" stop-color="#767676"/>
      <stop offset="1" stop-color="#484848"/>
    </radialGradient>
    <radialGradient id="c" cx="9.3418" cy="22.6138" r="14.1515" fx="9.3418" fy="22.6138" gradientUnits="userSpaceOnUse">
      <stop offset="0" stop-color="#767676"/>
      <stop offset="1" stop-color="#484848"/>
    </radialGradient>
    <radialGradient id="b" cx="31.3135" cy="24.5933" r="14.4316" fx="31.3135" fy="24.5933" gradientUnits="userSpaceOnUse">
      <stop offset="0" stop-color="#767676"/>
      <stop offset="1" stop-color="#484848"/>
    </radialGradient>
    <linearGradient id="a" gradientUnits="userSpaceOnUse" x1="-1.2432" y1="-3.2012" x2="26.5278" y2="28.3922">
      <stop offset="0" stop-color="#fff"/>
      <stop offset="1" stop-color="#959595"/>
    </linearGradient>
    <linearGradient y2="28.3922" x2="26.5278" y1="-3.2012" x1="-1.2432" gradientUnits="userSpaceOnUse" id="m" xlink:href="#a" gradientTransform="translate(1.000000,4.125000)"/>
    <radialGradient r="14.4316" fy="24.5933" fx="31.3135" cy="24.5933" cx="31.3135" gradientUnits="userSpaceOnUse" id="l" xlink:href="#b" gradientTransform="translate(1.000000,4.125000)"/>
    <radialGradient r="14.1515" fy="22.6138" fx="9.3418" cy="22.6138" cx="9.3418" gradientUnits="userSpaceOnUse" id="k" xlink:href="#c" gradientTransform="translate(1.000000,4.125000)"/>
    <radialGradient r="26.966" fy="29.0337" fx="23.1567" cy="29.0337" cx="23.1567" gradientUnits="userSpaceOnUse" id="j" xlink:href="#d" gradientTransform="translate(1.000000,4.125000)"/>
    <radialGradient r="10.8808" fy="12.3457" fx="13.5024" cy="12.3457" cx="13.5024" gradientUnits="userSpaceOnUse" id="i" xlink:href="#e" gradientTransform="translate(1.000000,4.125000)"/>
    <linearGradient y2="25.8145" x2="24.3907" y1="19.1899" x1="18.6235" gradientUnits="userSpaceOnUse" id="h" xlink:href="#f" gradientTransform="translate(1.000000,4.125000)"/>
    <linearGradient y2="25.8145" x2="24.3907" y1="19.1899" x1="18.6235" gradientTransform="matrix(0.947917,0.000000,0.000000,0.947917,3.793198,2.374496)" gradientUnits="userSpaceOnUse" id="g" xlink:href="#f"/>
  </defs>
  <path d="M 35.5 34.0625 A 17 5.8125 0 1 1  1.5,34.0625 A 17 5.8125 0 1 1  35.5 34.0625 z" style="marker:none" transform="matrix(0.779412,0,0,0.779412,4.080882,7.513787)" opacity=".2" color="#000" fill="#000" fill-opacity="1" fill-rule="evenodd" stroke="none" stroke-width="1.76134574" stroke-linecap="butt" stroke-linejoin="miter" marker-start="none" marker-mid="none" marker-end="none" stroke-miterlimit="4" stroke-dashoffset="0" stroke-opacity="1" visibility="visible" display="inline" overflow="visible"/>
  <path d="M 18.564218,6.0281369 C 17.753476,6.0904416 16.913436,6.2474730 16.075936,6.4724730 C 10.175933,8.0724737 4.7790571,13.458218 3.2790561,19.358221 C 2.1393051,23.850183 3.3953441,28.023412 6.4782756,30.318511 C 7.3338510,31.797101 9.1278650,33.960624 13.524047,34.203257 C 16.717224,34.379495 19.684337,33.571671 21.585704,32.629059 C 25.020080,33.054872 28.443013,33.236040 29.672621,34.465648 C 30.840896,35.588990 30.903666,37.138186 30.679782,38.523918 C 30.678064,38.533199 30.681524,38.544286 30.679782,38.553540 C 30.590250,38.894845 30.552208,39.262079 30.442803,39.560702 C 30.269979,40.104183 30.172943,40.342346 30.028089,40.656731 C 30.020271,40.673507 30.005931,40.700199 29.998467,40.715976 C 29.826305,41.047361 29.583753,41.575026 29.583753,41.575026 C 29.583753,41.575026 29.728698,41.546488 29.731865,41.545403 C 29.729169,41.550368 29.672621,41.663893 29.672621,41.663893 C 29.672621,41.663893 40.694760,37.871444 45.194761,41.071445 C 45.097071,39.812499 44.907646,38.715364 44.691181,37.724113 C 43.101062,29.123968 36.443811,29.506690 24.844169,30.703602 C 25.622624,30.073306 26.394820,29.362266 27.095471,28.570789 C 31.609474,23.555231 32.926092,14.221182 27.472143,10.175275 L 26.790827,9.3458463 C 24.973761,7.1337644 21.807188,5.7789181 18.564218,6.0281369 z M 12.432380,10.530743 C 12.770291,10.599180 13.047243,10.780832 13.291430,10.975079 C 13.298975,10.980848 13.283999,10.998885 13.291430,11.004701 C 11.150596,12.424001 9.2769740,14.285228 7.8409063,16.425602 C 6.6980862,14.421684 9.6978956,10.666796 12.254646,10.738100 C 12.042707,10.694718 11.942266,10.547337 11.691820,10.560365 C 11.943050,10.544766 12.211871,10.486083 12.432380,10.530743 z M 11.188238,10.560365 C 11.316737,10.531810 11.420706,10.573923 11.543708,10.560365 C 11.344053,10.581462 11.109735,10.673700 10.892014,10.738100 C 11.000734,10.704063 11.077782,10.584911 11.188238,10.560365 z M 24.340588,10.589987 C 24.408154,10.599070 24.452769,10.636600 24.518322,10.649232 C 24.526075,10.764648 24.583682,10.852771 24.577567,10.975079 C 24.555497,11.438527 24.420710,11.892533 24.222098,12.337709 C 24.088149,12.644125 23.867860,12.914956 23.659272,13.196759 C 23.550559,13.346113 23.458813,13.500772 23.333426,13.641095 C 23.196210,13.538426 23.095407,13.405029 22.948335,13.315249 C 22.447092,12.615091 21.817587,12.047172 21.052501,11.656394 C 21.612441,11.284270 22.116023,10.834707 22.770600,10.678855 C 23.320601,10.553855 23.864025,10.525925 24.340588,10.589987 z M 8.8184457,11.952618 C 8.5527569,12.208438 8.4251313,12.620040 8.1963752,12.959780 C 8.4172787,12.616908 8.5231440,12.246462 8.8184457,11.952618 z M 10.980881,14.115054 C 10.901322,14.195318 10.850900,14.299220 10.773525,14.381656 C 10.855495,14.292717 10.893752,14.199073 10.980881,14.115054 z M 7.6631719,16.247868 C 7.7119574,16.327223 7.7493773,16.410178 7.8112839,16.484847 C 7.8036342,16.496333 7.7892846,16.502970 7.7816615,16.514470 C 7.7204128,16.441697 7.7134010,16.330359 7.6631719,16.247868 z M 23.600027,23.712715 C 23.557976,23.819186 23.560213,23.934700 23.511160,24.038561 C 22.935475,25.174674 21.897227,26.070636 20.697032,26.615710 C 21.846941,25.811315 22.806190,24.861328 23.600027,23.712715 z M 8.4037320,24.038561 C 8.7927287,24.847253 9.3586020,25.501781 10.092209,26.023262 C 10.155750,26.128491 10.229288,26.219274 10.299566,26.319486 C 9.5400229,27.040188 8.7152934,27.670142 7.8112839,27.770984 C 7.5733795,27.778053 7.3997069,27.667573 7.1892134,27.622872 C 7.1251512,27.146310 7.1530807,26.602885 7.2780806,26.052885 C 7.4585450,25.294937 7.9409912,24.673875 8.4037320,24.038561 z M 25.910575,25.045723 C 25.462775,27.111682 23.693884,28.841834 21.615326,29.222482 C 22.768290,28.418583 23.869109,27.513650 24.873791,26.378731 C 25.261671,25.947753 25.578672,25.493972 25.910575,25.045723 z M 24.577567,30.881337 C 24.657326,30.895256 24.707012,30.925858 24.784924,30.940582 C 24.754224,30.941488 24.726773,30.939745 24.696057,30.940582 C 24.632946,30.939630 24.581926,30.941263 24.518322,30.940582 C 24.540684,30.923306 24.555254,30.898742 24.577567,30.881337 z " fill="url(#g)" fill-rule="nonzero" stroke="#000" stroke-width="4" stroke-linecap="butt" stroke-linejoin="miter" stroke-miterlimit="4" stroke-opacity="1"/>
  <path d="M 17.600000,8.1250000 C 11.700000,9.6250000 6.3000000,15.125000 4.8000000,21.025000 C 3.1000000,27.725000 6.6000000,33.825000 13.800000,33.825000 C 22.400000,33.825000 30.500000,25.725000 30.500000,17.125000 C 30.500000,9.8250000 24.300000,6.3250000 17.600000,8.1250000 z M 13.900000,24.825000 C 13.500000,27.225000 11.400000,29.225000 9.3000000,29.425000 C 7.3000000,29.525000 6.2000000,27.725000 6.7000000,25.525000 C 7.2000000,23.425000 9.0000000,21.525000 10.900000,21.325000 C 12.900000,21.025000 14.200000,22.625000 13.900000,24.825000 L 13.900000,24.825000 z M 15.500000,14.725000 C 15.200000,16.625000 13.300000,18.525000 11.400000,18.825000 C 9.6000000,19.125000 8.5000000,17.825000 8.9000000,16.025000 C 9.3000000,14.325000 11.000000,12.625000 12.700000,12.225000 C 14.500000,11.825000 15.800000,12.925000 15.500000,14.725000 L 15.500000,14.725000 z M 25.500000,23.725000 C 25.400000,26.325000 23.000000,28.725000 20.400000,28.825000 C 17.900000,28.925000 16.200000,27.025000 16.600000,24.525000 C 16.900000,22.225000 19.000000,20.125000 21.300000,19.825000 C 23.700000,19.525000 25.700000,21.125000 25.600000,23.625000 L 25.500000,23.725000 z M 26.100000,12.625000 C 26.000000,14.725000 23.900000,16.825000 21.500000,17.225000 C 19.200000,17.625000 17.700000,16.225000 18.000000,14.325000 C 18.300000,12.425000 20.100000,10.625000 22.200000,10.125000 C 24.400000,9.6250000 26.200000,10.725000 26.100000,12.725000 L 26.100000,12.625000 z " fill="url(#h)" fill-rule="nonzero" stroke="none" stroke-miterlimit="4"/>
  <path d="M 25.000000,17.725000 C 25.000000,23.025000 19.900000,28.125000 14.500000,28.125000 C 10.000000,28.125000 7.8000000,24.325000 8.9000000,20.125000 C 9.9000000,16.425000 13.200000,13.025000 16.900000,12.125000 C 21.100000,11.025000 25.000000,13.225000 25.000000,17.725000 z " fill="url(#i)" fill-rule="nonzero" stroke="none" stroke-miterlimit="4"/>
  <path d="M 23.500000,16.225000 C 23.500000,21.525000 18.400000,26.625000 13.000000,26.625000 C 8.5000000,26.625000 6.3000000,22.825000 7.4000000,18.625000 C 8.4000000,14.925000 11.700000,11.525000 15.400000,10.625000 C 19.600000,9.5250000 23.500000,11.725000 23.500000,16.225000 z " fill="url(#j)" fill-rule="nonzero" stroke="none" stroke-miterlimit="4"/>
  <path d="M 28.300000,10.625000 C 31.800000,14.125000 31.900000,22.025000 26.500000,28.025000 C 21.100000,34.125000 13.000000,35.425000 8.2000000,32.125000 C 21.700000,38.525000 35.600000,20.425000 28.300000,10.525000 L 28.300000,10.625000 z " fill="#3b3b3b" fill-rule="nonzero" stroke="none" stroke-miterlimit="4"/>
  <path d="M 44.600000,40.525000 C 40.100000,37.325000 29.100000,41.125000 29.100000,41.125000 C 29.100000,41.125000 31.700000,36.425000 29.100000,33.925000 C 26.500000,31.325000 14.100000,33.525000 12.500000,27.825000 C 26.000000,36.125000 43.100000,20.525000 44.600000,40.625000 L 44.600000,40.525000 z " fill="url(#k)" fill-rule="nonzero" stroke="none" stroke-miterlimit="4"/>
  <path d="M 44.500000,40.425000 C 40.000000,37.225000 29.000000,41.025000 29.000000,41.025000 C 29.000000,41.025000 34.800000,31.825000 23.500000,30.225000 C 37.000000,28.825000 44.000000,28.125000 44.500000,40.425000 z " fill="url(#l)" fill-rule="nonzero" stroke="none" stroke-miterlimit="4"/>
  <path d="M 30.200000,33.125000 C 31.600000,38.225000 29.100000,41.025000 29.100000,41.025000 C 29.100000,41.025000 31.400000,36.925000 29.600000,33.425000 C 27.400000,29.225000 17.600000,33.125000 12.500000,27.725000 C 17.800000,33.025000 28.700000,27.525000 30.200000,33.125000 L 30.200000,33.125000 z " fill="#9f9f9f" fill-rule="nonzero" stroke="none" stroke-miterlimit="4"/>
  <path d="M 15.500000,5.9250000 C 9.6000000,7.5250000 4.2000000,12.925000 2.7000000,18.825000 C 1.0000000,25.525000 4.5000000,31.625000 11.700000,31.625000 C 20.300000,31.625000 28.400000,23.525000 28.400000,14.925000 C 28.400000,7.6250000 22.200000,4.1250000 15.500000,5.9250000 L 15.500000,5.9250000 z M 11.800000,22.725000 C 11.400000,25.125000 9.3000000,27.125000 7.3000000,27.225000 C 5.3000000,27.325000 4.2000000,25.525000 4.7000000,23.325000 C 5.2000000,21.225000 7.0000000,19.325000 8.9000000,19.125000 C 10.900000,18.825000 12.200000,20.425000 11.900000,22.625000 L 11.800000,22.725000 z M 13.400000,12.525000 C 13.100000,14.425000 11.200000,16.325000 9.3000000,16.625000 C 7.5000000,16.925000 6.4000000,15.625000 6.8000000,13.825000 C 7.2000000,12.125000 8.8000000,10.425000 10.600000,10.025000 C 12.400000,9.6250000 13.700000,10.725000 13.400000,12.525000 L 13.400000,12.525000 z M 23.400000,21.625000 C 23.300000,24.225000 20.900000,26.625000 18.300000,26.725000 C 15.800000,26.825000 14.100000,24.925000 14.500000,22.425000 C 14.800000,20.125000 16.900000,18.025000 19.200000,17.725000 C 21.600000,17.425000 23.600000,19.025000 23.500000,21.525000 L 23.400000,21.625000 z M 24.000000,10.425000 C 23.900000,12.525000 21.800000,14.625000 19.400000,15.025000 C 17.100000,15.425000 15.600000,14.025000 15.900000,12.125000 C 16.100000,10.125000 18.000000,8.3250000 20.100000,7.8250000 C 22.300000,7.3250000 24.100000,8.4250000 24.000000,10.425000 L 24.000000,10.425000 z " fill="url(#m)" fill-rule="nonzero" stroke="none" stroke-miterlimit="4"/>
  <path d="M 22.200000,18.625000 C 20.700000,17.325000 18.000000,17.425000 16.200000,19.225000 C 14.300000,21.125000 13.400000,24.225000 15.800000,26.025000 C 12.200000,21.525000 18.400000,16.325000 22.200000,18.625000 L 22.200000,18.625000 z " fill="#3b3b3b" fill-rule="nonzero" stroke="none" stroke-miterlimit="4"/>
  <path d="M 15.800000,26.025000 C 20.700000,29.325000 26.300000,21.525000 22.200000,18.625000 C 26.000000,22.525000 20.200000,28.525000 15.800000,26.025000 L 15.800000,26.025000 z " fill="#e6e6e6" fill-rule="nonzero" stroke="none" stroke-miterlimit="4"/>
  <path d="M 12.800000,10.525000 C 12.100000,9.8250000 10.300000,9.5250000 8.3000000,11.325000 C 7.0000000,12.525000 5.8000000,15.025000 7.5000000,16.325000 C 5.3000000,14.225000 10.000000,8.8250000 12.800000,10.525000 z " fill="#545454" fill-rule="nonzero" stroke="none" stroke-miterlimit="4"/>
  <path d="M 7.4000000,16.225000 C 8.1000000,16.925000 9.9000000,17.225000 11.900000,15.425000 C 13.200000,14.225000 14.400000,11.725000 12.700000,10.425000 C 14.800000,12.525000 10.200000,17.925000 7.3000000,16.225000 L 7.4000000,16.225000 z " fill="#e6e6e6" fill-rule="nonzero" stroke="none" stroke-miterlimit="4"/>
  <path d="M 10.800000,19.625000 C 10.100000,18.925000 8.2000000,18.725000 6.3000000,20.425000 C 4.2000000,22.425000 3.9000000,25.525000 5.6000000,26.725000 C 3.2000000,23.625000 7.6000000,18.125000 10.800000,19.525000 L 10.800000,19.625000 z " fill="#454545" fill-rule="nonzero" stroke="none" stroke-miterlimit="4"/>
  <path d="M 5.8000000,26.925000 C 6.5000000,27.625000 8.4000000,27.825000 10.300000,26.125000 C 12.400000,24.125000 12.700000,21.025000 11.000000,19.825000 C 13.400000,22.925000 9.0000000,28.425000 5.8000000,27.025000 L 5.8000000,26.925000 z " fill="#e6e6e6" fill-rule="nonzero" stroke="none" stroke-miterlimit="4"/>
  <path d="M 22.900000,8.1250000 C 22.200000,7.4250000 19.500000,7.3250000 17.500000,9.1250000 C 15.700000,10.825000 15.200000,12.925000 16.700000,14.325000 C 14.100000,10.925000 19.700000,6.6250000 22.800000,8.0250000 L 22.900000,8.1250000 z " fill="#545454" fill-rule="nonzero" stroke="none" stroke-miterlimit="4"/>
  <path d="M 17.200000,14.825000 C 17.900000,15.525000 20.600000,15.625000 22.600000,13.825000 C 24.400000,12.125000 24.900000,10.025000 23.400000,8.6250000 C 26.000000,12.025000 20.400000,16.325000 17.300000,14.925000 L 17.200000,14.825000 z " fill="#e6e6e6" fill-rule="nonzero" stroke="none" stroke-miterlimit="4"/>
  <path d="M 26.100000,8.4250000 C 29.600000,11.925000 29.700000,19.825000 24.300000,25.825000 C 18.900000,31.925000 10.800000,33.225000 6.0000000,29.925000 C 19.500000,36.325000 33.400000,18.225000 26.100000,8.3250000 L 26.100000,8.4250000 z " fill="#3b3b3b" fill-rule="nonzero" stroke="none" stroke-miterlimit="4"/>
</svg>
