<?xml version="1.0" encoding="UTF-8" standalone="no"?>
<!-- Generator: Adobe Illustrator 9.0, SVG Export Plug-In  -->
<svg
   xmlns:dc="http://purl.org/dc/elements/1.1/"
   xmlns:cc="http://web.resource.org/cc/"
   xmlns:rdf="http://www.w3.org/1999/02/22-rdf-syntax-ns#"
   xmlns:svg="http://www.w3.org/2000/svg"
   xmlns="http://www.w3.org/2000/svg"
   xmlns:xlink="http://www.w3.org/1999/xlink"
   xmlns:sodipodi="http://inkscape.sourceforge.net/DTD/sodipodi-0.dtd"
   xmlns:inkscape="http://www.inkscape.org/namespaces/inkscape"
   sodipodi:docbase="/home/jimmac/gfx/ximian/gorilla-desktop-theme/scalable/mimetypes"
   sodipodi:docname="x-office-presentation.svg"
   inkscape:version="0.42+devel"
   sodipodi:version="0.32"
   id="svg9575"
   xml:space="preserve"
   height="48.000000px"
   width="48.000000px"><metadata
   id="metadata9629">
  <rdf:RDF>
    <cc:Work
   rdf:about="">
      <dc:format>image/svg+xml</dc:format>


      <dc:type
   rdf:resource="http://purl.org/dc/dcmitype/StillImage" />


      <dc:title>Presentation</dc:title>


      <dc:source>http://jimmac.musichall.cz</dc:source>


      <dc:creator>
        <cc:Agent>
          <dc:title>Jakub Steiner</dc:title>


        </cc:Agent>


      </dc:creator>


      <dc:subject>
        <rdf:Bag><rdf:li>presentation</rdf:li><rdf:li>powerpoint</rdf:li><rdf:li>ppt</rdf:li><rdf:li>slide</rdf:li></rdf:Bag>


      </dc:subject>


      <cc:license
   rdf:resource="http://creativecommons.org/licenses/GPL/2.0/" />


    </cc:Work>


    <cc:License
   rdf:about="http://creativecommons.org/licenses/GPL/2.0/">
      <cc:permits
   rdf:resource="http://web.resource.org/cc/Reproduction" />


      <cc:permits
   rdf:resource="http://web.resource.org/cc/Distribution" />


      <cc:requires
   rdf:resource="http://web.resource.org/cc/Notice" />


      <cc:permits
   rdf:resource="http://web.resource.org/cc/DerivativeWorks" />


      <cc:requires
   rdf:resource="http://web.resource.org/cc/ShareAlike" />


      <cc:requires
   rdf:resource="http://web.resource.org/cc/SourceCode" />


    </cc:License>


  </rdf:RDF>


</metadata>


<defs
   id="defs9627"><linearGradient
   y2="18.6605"
   x2="22.0959"
   y1="15.4067"
   x1="18.1128"
   gradientUnits="userSpaceOnUse"
   id="aigrd13">
			<stop
   id="stop13090"
   style="stop-color:#E8F066"
   offset="0" />

			<stop
   id="stop13092"
   style="stop-color:#949941"
   offset="1" />

		</linearGradient>
<linearGradient
   y2="18.9166"
   x2="21.5687"
   y1="16.7339"
   x1="16.9004"
   gradientUnits="userSpaceOnUse"
   id="aigrd12">
			<stop
   id="stop13083"
   style="stop-color:#E8F066"
   offset="0" />

			<stop
   id="stop13085"
   style="stop-color:#777A34"
   offset="1" />

		</linearGradient>
<linearGradient
   y2="17.3396"
   x2="23.265"
   y1="14.1357"
   x1="19.6538"
   gradientUnits="userSpaceOnUse"
   id="aigrd11">
			<stop
   id="stop13076"
   style="stop-color:#3FA6CC"
   offset="0" />

			<stop
   id="stop13078"
   style="stop-color:#00687A"
   offset="1" />

		</linearGradient>
<linearGradient
   y2="17.7618"
   x2="23.4857"
   y1="16.0371"
   x1="20.3525"
   gradientUnits="userSpaceOnUse"
   id="aigrd10">
			<stop
   id="stop13069"
   style="stop-color:#2C7894"
   offset="0" />

			<stop
   id="stop13071"
   style="stop-color:#0E3D47"
   offset="1" />

		</linearGradient>
<linearGradient
   y2="18.0172"
   x2="22.076"
   y1="14.6523"
   x1="19.7344"
   gradientUnits="userSpaceOnUse"
   id="aigrd9">
			<stop
   id="stop13062"
   style="stop-color:#C1553A"
   offset="0" />

			<stop
   id="stop13064"
   style="stop-color:#803926"
   offset="1" />

		</linearGradient>
<linearGradient
   y2="18.5368"
   x2="22.2055"
   y1="15.3101"
   x1="19.96"
   gradientUnits="userSpaceOnUse"
   id="aigrd8">
			<stop
   id="stop13055"
   style="stop-color:#C09287"
   offset="0" />

			<stop
   id="stop13057"
   style="stop-color:#803926"
   offset="1" />

		</linearGradient>
<radialGradient
   gradientUnits="userSpaceOnUse"
   fy="30.9912"
   fx="24.7744"
   r="0.5902"
   cy="30.9912"
   cx="24.7744"
   id="aigrd7">
			<stop
   id="stop13046"
   style="stop-color:#F0F0F0"
   offset="0" />

			<stop
   id="stop13048"
   style="stop-color:#848484"
   offset="1" />

		</radialGradient>
<linearGradient
   y2="10.4377"
   x2="24.6035"
   y1="9.3433"
   x1="24.6035"
   gradientUnits="userSpaceOnUse"
   id="aigrd6">
			<stop
   id="stop13035"
   style="stop-color:#F0F0F0"
   offset="0" />

			<stop
   id="stop13037"
   style="stop-color:#686868"
   offset="1" />

		</linearGradient>
<linearGradient
   y2="11.0039"
   x2="20.9453"
   y1="25.4727"
   x1="27.2949"
   gradientUnits="userSpaceOnUse"
   id="aigrd5">
			<stop
   id="stop13012"
   style="stop-color:#FFFFFF"
   offset="0" />

			<stop
   id="stop13014"
   style="stop-color:#EAEAEA"
   offset="1" />

		</linearGradient>

  <linearGradient
   inkscape:collect="always"
   xlink:href="#aigrd1"
   id="linearGradient9567"
   gradientUnits="userSpaceOnUse"
   x1="12.1387"
   y1="7.7627"
   x2="31.4539"
   y2="41.3164" />

  <radialGradient
   inkscape:collect="always"
   xlink:href="#aigrd2"
   id="radialGradient9569"
   gradientUnits="userSpaceOnUse"
   cx="7.8247"
   cy="30.7285"
   fx="7.8247"
   fy="30.7285"
   r="1.247" />

  <radialGradient
   inkscape:collect="always"
   xlink:href="#aigrd3"
   id="radialGradient9571"
   gradientUnits="userSpaceOnUse"
   cx="7.8247"
   cy="18.8711"
   fx="7.8247"
   fy="18.8711"
   r="1.247" />

  <linearGradient
   inkscape:collect="always"
   xlink:href="#aigrd4"
   id="linearGradient9573"
   gradientUnits="userSpaceOnUse"
   x1="10.0195"
   y1="7.5537"
   x2="9.5965"
   y2="41.0821" />

<linearGradient
   y2="11.0039"
   x2="20.9453"
   y1="25.4727"
   x1="27.2949"
   gradientUnits="userSpaceOnUse"
   id="linearGradient13292"
   xlink:href="#aigrd5"
   inkscape:collect="always" />
<linearGradient
   y2="10.4377"
   x2="24.6035"
   y1="9.3433"
   x1="24.6035"
   gradientUnits="userSpaceOnUse"
   id="linearGradient13294"
   xlink:href="#aigrd6"
   inkscape:collect="always" />
<radialGradient
   r="0.5902"
   fy="30.9912"
   fx="24.7744"
   cy="30.9912"
   cx="24.7744"
   gradientUnits="userSpaceOnUse"
   id="radialGradient13296"
   xlink:href="#aigrd7"
   inkscape:collect="always" />
<linearGradient
   y2="18.5368"
   x2="22.2055"
   y1="15.3101"
   x1="19.96"
   gradientUnits="userSpaceOnUse"
   id="linearGradient13298"
   xlink:href="#aigrd8"
   inkscape:collect="always" />
<linearGradient
   y2="18.0172"
   x2="22.076"
   y1="14.6523"
   x1="19.7344"
   gradientUnits="userSpaceOnUse"
   id="linearGradient13300"
   xlink:href="#aigrd9"
   inkscape:collect="always" />
<linearGradient
   y2="17.7618"
   x2="23.4857"
   y1="16.0371"
   x1="20.3525"
   gradientUnits="userSpaceOnUse"
   id="linearGradient13302"
   xlink:href="#aigrd10"
   inkscape:collect="always" />
<linearGradient
   y2="17.3396"
   x2="23.265"
   y1="14.1357"
   x1="19.6538"
   gradientUnits="userSpaceOnUse"
   id="linearGradient13304"
   xlink:href="#aigrd11"
   inkscape:collect="always" />
<linearGradient
   y2="18.9166"
   x2="21.5687"
   y1="16.7339"
   x1="16.9004"
   gradientUnits="userSpaceOnUse"
   id="linearGradient13306"
   xlink:href="#aigrd12"
   inkscape:collect="always" />
<linearGradient
   y2="18.6605"
   x2="22.0959"
   y1="15.4067"
   x1="18.1128"
   gradientUnits="userSpaceOnUse"
   id="linearGradient13308"
   xlink:href="#aigrd13"
   inkscape:collect="always" />

		
		
		
		<linearGradient
   id="linearGradient13211"
   gradientUnits="userSpaceOnUse"
   x1="27.294901"
   y1="25.472700"
   x2="20.945299"
   y2="11.003900">
			<stop
   offset="0"
   style="stop-color:#FFFFFF"
   id="stop13213" />

			<stop
   offset="1"
   style="stop-color:#EAEAEA"
   id="stop13215" />

		</linearGradient>

		
		
		
		<linearGradient
   id="linearGradient13226"
   gradientUnits="userSpaceOnUse"
   x1="24.603500"
   y1="9.3432999"
   x2="24.603500"
   y2="10.437700">
			<stop
   offset="0"
   style="stop-color:#F0F0F0"
   id="stop13228" />

			<stop
   offset="1"
   style="stop-color:#686868"
   id="stop13230" />

		</linearGradient>

		
		
		
		<radialGradient
   id="radialGradient13235"
   cx="24.774401"
   cy="30.991199"
   r="0.59020001"
   fx="24.774401"
   fy="30.991199"
   gradientUnits="userSpaceOnUse">
			<stop
   offset="0"
   style="stop-color:#F0F0F0"
   id="stop13237" />

			<stop
   offset="1"
   style="stop-color:#848484"
   id="stop13239" />

		</radialGradient>

		
		
		<linearGradient
   id="linearGradient13243"
   gradientUnits="userSpaceOnUse"
   x1="19.959999"
   y1="15.310100"
   x2="22.205500"
   y2="18.536800">
			<stop
   offset="0"
   style="stop-color:#C09287"
   id="stop13245" />

			<stop
   offset="1"
   style="stop-color:#803926"
   id="stop13247" />

		</linearGradient>

		
		<linearGradient
   id="linearGradient13250"
   gradientUnits="userSpaceOnUse"
   x1="19.734400"
   y1="14.652300"
   x2="22.076000"
   y2="18.017200">
			<stop
   offset="0"
   style="stop-color:#C1553A"
   id="stop13252" />

			<stop
   offset="1"
   style="stop-color:#803926"
   id="stop13254" />

		</linearGradient>

		
		<linearGradient
   id="linearGradient13257"
   gradientUnits="userSpaceOnUse"
   x1="20.352501"
   y1="16.037100"
   x2="23.485701"
   y2="17.761801">
			<stop
   offset="0"
   style="stop-color:#2C7894"
   id="stop13259" />

			<stop
   offset="1"
   style="stop-color:#0E3D47"
   id="stop13261" />

		</linearGradient>

		
		<linearGradient
   id="linearGradient13264"
   gradientUnits="userSpaceOnUse"
   x1="19.653799"
   y1="14.135700"
   x2="23.264999"
   y2="17.339600">
			<stop
   offset="0"
   style="stop-color:#3FA6CC"
   id="stop13266" />

			<stop
   offset="1"
   style="stop-color:#00687A"
   id="stop13268" />

		</linearGradient>

		
		<linearGradient
   id="linearGradient13271"
   gradientUnits="userSpaceOnUse"
   x1="16.900400"
   y1="16.733900"
   x2="21.568701"
   y2="18.916599">
			<stop
   offset="0"
   style="stop-color:#E8F066"
   id="stop13273" />

			<stop
   offset="1"
   style="stop-color:#777A34"
   id="stop13275" />

		</linearGradient>

		
		<linearGradient
   id="linearGradient13278"
   gradientUnits="userSpaceOnUse"
   x1="18.112801"
   y1="15.406700"
   x2="22.095900"
   y2="18.660500">
			<stop
   offset="0"
   style="stop-color:#E8F066"
   id="stop13280" />

			<stop
   offset="1"
   style="stop-color:#949941"
   id="stop13282" />

		</linearGradient>

		
		
		
		
		
		
		
		
	<linearGradient
   gradientTransform="matrix(1.008287,0.000000,0.000000,1.008287,0.884080,1.615359)"
   y2="18.6605"
   x2="22.0959"
   y1="15.4067"
   x1="18.1128"
   gradientUnits="userSpaceOnUse"
   id="linearGradient13345"
   xlink:href="#aigrd13"
   inkscape:collect="always" />
<linearGradient
   gradientTransform="matrix(1.008287,0.000000,0.000000,1.008287,0.884080,1.615359)"
   y2="18.9166"
   x2="21.5687"
   y1="16.7339"
   x1="16.9004"
   gradientUnits="userSpaceOnUse"
   id="linearGradient13348"
   xlink:href="#aigrd12"
   inkscape:collect="always" />
<linearGradient
   gradientTransform="matrix(1.008287,0.000000,0.000000,1.008287,0.884080,1.615359)"
   y2="17.3396"
   x2="23.265"
   y1="14.1357"
   x1="19.6538"
   gradientUnits="userSpaceOnUse"
   id="linearGradient13351"
   xlink:href="#aigrd11"
   inkscape:collect="always" />
<linearGradient
   gradientTransform="matrix(1.008287,0.000000,0.000000,1.008287,0.884080,1.615359)"
   y2="17.7618"
   x2="23.4857"
   y1="16.0371"
   x1="20.3525"
   gradientUnits="userSpaceOnUse"
   id="linearGradient13354"
   xlink:href="#aigrd10"
   inkscape:collect="always" />
<linearGradient
   gradientTransform="matrix(1.008287,0.000000,0.000000,1.008287,0.884080,1.615359)"
   y2="18.0172"
   x2="22.076"
   y1="14.6523"
   x1="19.7344"
   gradientUnits="userSpaceOnUse"
   id="linearGradient13357"
   xlink:href="#aigrd9"
   inkscape:collect="always" />
<linearGradient
   gradientTransform="matrix(1.008287,0.000000,0.000000,1.008287,0.884080,1.615359)"
   y2="18.5368"
   x2="22.2055"
   y1="15.3101"
   x1="19.96"
   gradientUnits="userSpaceOnUse"
   id="linearGradient13360"
   xlink:href="#aigrd8"
   inkscape:collect="always" />
<radialGradient
   gradientTransform="matrix(1.008287,0.000000,0.000000,1.008287,0.884080,1.615359)"
   r="0.5902"
   fy="30.9912"
   fx="24.7744"
   cy="30.9912"
   cx="24.7744"
   gradientUnits="userSpaceOnUse"
   id="radialGradient13364"
   xlink:href="#aigrd7"
   inkscape:collect="always" />
<linearGradient
   gradientTransform="matrix(1.008287,0.000000,0.000000,1.008287,0.884080,1.615359)"
   y2="10.4377"
   x2="24.6035"
   y1="9.3433"
   x1="24.6035"
   gradientUnits="userSpaceOnUse"
   id="linearGradient13369"
   xlink:href="#aigrd6"
   inkscape:collect="always" />
<linearGradient
   gradientTransform="matrix(1.008287,0.000000,0.000000,1.008287,0.884080,1.615359)"
   y2="11.0039"
   x2="20.9453"
   y1="25.4727"
   x1="27.2949"
   gradientUnits="userSpaceOnUse"
   id="linearGradient13380"
   xlink:href="#aigrd5"
   inkscape:collect="always" />

		


		<linearGradient
   id="aigrd1"
   gradientUnits="userSpaceOnUse"
   x1="12.138700"
   y1="7.7627001"
   x2="31.453899"
   y2="41.316399">
			<stop
   offset="0"
   style="stop-color:#F0F0F0"
   id="stop9581" />



			<stop
   offset="1"
   style="stop-color:#D6D6D6"
   id="stop9583" />



		</linearGradient>



		


		


		


		<linearGradient
   id="aigrd4"
   gradientUnits="userSpaceOnUse"
   x1="10.019500"
   y1="7.5537000"
   x2="9.5965004"
   y2="41.082100">
			<stop
   offset="0"
   style="stop-color:#EDEDED"
   id="stop9606" />



			<stop
   offset="1"
   style="stop-color:#CACACA"
   id="stop9608" />



		</linearGradient>



		


		


		


	<linearGradient
   gradientTransform="translate(2.148757,2.638174e-10)"
   y2="41.0821"
   x2="9.5965"
   y1="7.5537"
   x1="10.0195"
   gradientUnits="userSpaceOnUse"
   id="linearGradient13394"
   xlink:href="#aigrd4"
   inkscape:collect="always" />
<linearGradient
   gradientTransform="translate(2.148757,2.638174e-10)"
   y2="41.3164"
   x2="31.4539"
   y1="7.7627"
   x1="12.1387"
   gradientUnits="userSpaceOnUse"
   id="linearGradient13407"
   xlink:href="#aigrd1"
   inkscape:collect="always" />
<linearGradient
   inkscape:collect="always"
   xlink:href="#aigrd1"
   id="linearGradient2132"
   gradientUnits="userSpaceOnUse"
   gradientTransform="translate(2.148757,2.638174e-10)"
   x1="12.1387"
   y1="7.7627"
   x2="31.4539"
   y2="41.3164" /><linearGradient
   inkscape:collect="always"
   xlink:href="#aigrd1"
   id="linearGradient1481"
   gradientUnits="userSpaceOnUse"
   gradientTransform="translate(2.148757,2.638174e-10)"
   x1="12.1387"
   y1="7.7627"
   x2="31.4539"
   y2="41.3164" /><linearGradient
   inkscape:collect="always"
   xlink:href="#aigrd1"
   id="linearGradient1483"
   gradientUnits="userSpaceOnUse"
   gradientTransform="translate(2.148757,2.638174e-10)"
   x1="12.1387"
   y1="7.7627"
   x2="31.4539"
   y2="41.3164" /><radialGradient
   inkscape:collect="always"
   xlink:href="#aigrd2"
   id="radialGradient1485"
   gradientUnits="userSpaceOnUse"
   cx="7.8247"
   cy="30.7285"
   fx="7.8247"
   fy="30.7285"
   r="1.247" /><radialGradient
   inkscape:collect="always"
   xlink:href="#aigrd3"
   id="radialGradient1487"
   gradientUnits="userSpaceOnUse"
   cx="7.8247"
   cy="18.8711"
   fx="7.8247"
   fy="18.8711"
   r="1.247" /><linearGradient
   inkscape:collect="always"
   xlink:href="#aigrd4"
   id="linearGradient1489"
   gradientUnits="userSpaceOnUse"
   gradientTransform="translate(2.148757,2.638174e-10)"
   x1="10.0195"
   y1="7.5537"
   x2="9.5965"
   y2="41.0821" /><linearGradient
   inkscape:collect="always"
   xlink:href="#aigrd5"
   id="linearGradient1491"
   gradientUnits="userSpaceOnUse"
   gradientTransform="matrix(1.008287,0.000000,0.000000,1.008287,0.884080,1.615359)"
   x1="27.2949"
   y1="25.4727"
   x2="20.9453"
   y2="11.0039" /><linearGradient
   inkscape:collect="always"
   xlink:href="#aigrd6"
   id="linearGradient1493"
   gradientUnits="userSpaceOnUse"
   gradientTransform="matrix(1.008287,0.000000,0.000000,1.008287,0.884080,1.615359)"
   x1="24.6035"
   y1="9.3433"
   x2="24.6035"
   y2="10.4377" /><radialGradient
   inkscape:collect="always"
   xlink:href="#aigrd7"
   id="radialGradient1495"
   gradientUnits="userSpaceOnUse"
   gradientTransform="matrix(1.008287,0.000000,0.000000,1.008287,0.884080,1.615359)"
   cx="24.7744"
   cy="30.9912"
   fx="24.7744"
   fy="30.9912"
   r="0.5902" /><linearGradient
   inkscape:collect="always"
   xlink:href="#aigrd8"
   id="linearGradient1497"
   gradientUnits="userSpaceOnUse"
   gradientTransform="matrix(1.008287,0.000000,0.000000,1.008287,0.884080,1.615359)"
   x1="19.96"
   y1="15.3101"
   x2="22.2055"
   y2="18.5368" /><linearGradient
   inkscape:collect="always"
   xlink:href="#aigrd9"
   id="linearGradient1499"
   gradientUnits="userSpaceOnUse"
   gradientTransform="matrix(1.008287,0.000000,0.000000,1.008287,0.884080,1.615359)"
   x1="19.7344"
   y1="14.6523"
   x2="22.076"
   y2="18.0172" /><linearGradient
   inkscape:collect="always"
   xlink:href="#aigrd10"
   id="linearGradient1501"
   gradientUnits="userSpaceOnUse"
   gradientTransform="matrix(1.008287,0.000000,0.000000,1.008287,0.884080,1.615359)"
   x1="20.3525"
   y1="16.0371"
   x2="23.4857"
   y2="17.7618" /><linearGradient
   inkscape:collect="always"
   xlink:href="#aigrd11"
   id="linearGradient1503"
   gradientUnits="userSpaceOnUse"
   gradientTransform="matrix(1.008287,0.000000,0.000000,1.008287,0.884080,1.615359)"
   x1="19.6538"
   y1="14.1357"
   x2="23.265"
   y2="17.3396" /><linearGradient
   inkscape:collect="always"
   xlink:href="#aigrd12"
   id="linearGradient1505"
   gradientUnits="userSpaceOnUse"
   gradientTransform="matrix(1.008287,0.000000,0.000000,1.008287,0.884080,1.615359)"
   x1="16.9004"
   y1="16.7339"
   x2="21.5687"
   y2="18.9166" /><linearGradient
   inkscape:collect="always"
   xlink:href="#aigrd13"
   id="linearGradient1507"
   gradientUnits="userSpaceOnUse"
   gradientTransform="matrix(1.008287,0.000000,0.000000,1.008287,0.884080,1.615359)"
   x1="18.1128"
   y1="15.4067"
   x2="22.0959"
   y2="18.6605" /><linearGradient
   inkscape:collect="always"
   xlink:href="#aigrd13"
   id="linearGradient1518"
   gradientUnits="userSpaceOnUse"
   gradientTransform="matrix(1.008287,0.000000,0.000000,1.008287,0.884080,1.615359)"
   x1="18.1128"
   y1="15.4067"
   x2="22.0959"
   y2="18.6605" /><linearGradient
   inkscape:collect="always"
   xlink:href="#aigrd12"
   id="linearGradient1521"
   gradientUnits="userSpaceOnUse"
   gradientTransform="matrix(1.008287,0.000000,0.000000,1.008287,0.884080,1.615359)"
   x1="16.9004"
   y1="16.7339"
   x2="21.5687"
   y2="18.9166" /><linearGradient
   inkscape:collect="always"
   xlink:href="#aigrd11"
   id="linearGradient1524"
   gradientUnits="userSpaceOnUse"
   gradientTransform="matrix(1.008287,0.000000,0.000000,1.008287,0.884080,1.615359)"
   x1="19.6538"
   y1="14.1357"
   x2="23.265"
   y2="17.3396" /><linearGradient
   inkscape:collect="always"
   xlink:href="#aigrd10"
   id="linearGradient1527"
   gradientUnits="userSpaceOnUse"
   gradientTransform="matrix(1.008287,0.000000,0.000000,1.008287,0.884080,1.615359)"
   x1="20.3525"
   y1="16.0371"
   x2="23.4857"
   y2="17.7618" /><linearGradient
   inkscape:collect="always"
   xlink:href="#aigrd9"
   id="linearGradient1530"
   gradientUnits="userSpaceOnUse"
   gradientTransform="matrix(1.008287,0.000000,0.000000,1.008287,0.884080,1.615359)"
   x1="19.7344"
   y1="14.6523"
   x2="22.076"
   y2="18.0172" /><linearGradient
   inkscape:collect="always"
   xlink:href="#aigrd8"
   id="linearGradient1533"
   gradientUnits="userSpaceOnUse"
   gradientTransform="matrix(1.008287,0.000000,0.000000,1.008287,0.884080,1.615359)"
   x1="19.96"
   y1="15.3101"
   x2="22.2055"
   y2="18.5368" /><radialGradient
   inkscape:collect="always"
   xlink:href="#aigrd7"
   id="radialGradient1537"
   gradientUnits="userSpaceOnUse"
   gradientTransform="matrix(1.008287,0.000000,0.000000,1.008287,0.884080,1.615359)"
   cx="24.7744"
   cy="30.9912"
   fx="24.7744"
   fy="30.9912"
   r="0.5902" /><linearGradient
   inkscape:collect="always"
   xlink:href="#aigrd6"
   id="linearGradient1542"
   gradientUnits="userSpaceOnUse"
   gradientTransform="matrix(1.008287,0.000000,0.000000,1.008287,0.884080,1.615359)"
   x1="24.6035"
   y1="9.3433"
   x2="24.6035"
   y2="10.4377" /><linearGradient
   inkscape:collect="always"
   xlink:href="#aigrd5"
   id="linearGradient1553"
   gradientUnits="userSpaceOnUse"
   gradientTransform="matrix(1.008287,0.000000,0.000000,1.008287,0.884080,1.615359)"
   x1="27.2949"
   y1="25.4727"
   x2="20.9453"
   y2="11.0039" /><linearGradient
   inkscape:collect="always"
   xlink:href="#aigrd4"
   id="linearGradient1561"
   gradientUnits="userSpaceOnUse"
   gradientTransform="translate(2.148757,2.638174e-10)"
   x1="10.0195"
   y1="7.5537"
   x2="9.5965"
   y2="41.0821" /><linearGradient
   inkscape:collect="always"
   xlink:href="#aigrd1"
   id="linearGradient1574"
   gradientUnits="userSpaceOnUse"
   gradientTransform="matrix(1.013477,0.000000,0.000000,1.000000,2.106978,2.638174e-10)"
   x1="12.1387"
   y1="7.7627"
   x2="31.4539"
   y2="41.3164" /><linearGradient
   inkscape:collect="always"
   xlink:href="#aigrd1"
   id="linearGradient1577"
   gradientUnits="userSpaceOnUse"
   gradientTransform="matrix(1.013477,0.000000,0.000000,1.000000,2.106978,2.638174e-10)"
   x1="12.1387"
   y1="7.7627"
   x2="31.4539"
   y2="41.3164" /></defs>


<sodipodi:namedview
   showgrid="false"
   inkscape:current-layer="svg9575"
   inkscape:window-y="300"
   inkscape:window-x="247"
   inkscape:cy="22.419102"
   inkscape:cx="28.354656"
   inkscape:zoom="8.0000000"
   id="base"
   pagecolor="#ffffff"
   bordercolor="#666666"
   borderopacity="0.20392157"
   inkscape:pageopacity="0.0"
   inkscape:pageshadow="2"
   inkscape:window-width="711"
   inkscape:window-height="581"
   inkscape:showpageshadow="false" />



	









	
	




<path
   id="path2130"
   d="M 40.821799,40.225000 C 40.821799,41.825000 39.504279,43.025000 37.984064,43.025000 L 10.113446,43.025000 C 8.4918829,43.025000 7.2757105,41.725000 7.2757105,40.225000 L 7.2757105,8.8000000 C 7.2757105,7.2000000 8.5932306,6.0000000 10.113446,6.0000000 L 37.984064,6.0000000 C 39.605627,6.0000000 40.821799,7.3000000 40.821799,8.8000000 L 40.821799,40.225000 L 40.821799,40.225000 z "
   style="fill:url(#linearGradient1577);fill-rule:nonzero;stroke:#000000;stroke-width:3.9999998;stroke-miterlimit:4.0000000;stroke-dasharray:none;stroke-opacity:1.0000000"
   sodipodi:nodetypes="cccccccccc" /><path
   style="fill:url(#linearGradient1574);fill-rule:nonzero;stroke:none;stroke-miterlimit:4.0000000"
   d="M 40.821803,40.225000 C 40.821803,41.825000 39.504283,43.025000 37.984067,43.025000 L 10.113447,43.025000 C 8.4918837,43.025000 7.2757112,41.725000 7.2757112,40.225000 L 7.2757112,8.8000000 C 7.2757112,7.2000000 8.5932314,6.0000000 10.113447,6.0000000 L 37.984067,6.0000000 C 39.605630,6.0000000 40.821803,7.3000000 40.821803,8.8000000 L 40.821803,40.225000 L 40.821803,40.225000 z "
   id="path9585"
   sodipodi:nodetypes="cccccccccc" /><g
   style="fill:#ffffff;fill-rule:nonzero;stroke:#000000;stroke-miterlimit:4.0000000"
   transform="translate(2.148757,2.638174e-10)"
   id="g9587">
			<radialGradient
   id="aigrd2"
   cx="7.8246999"
   cy="30.728500"
   r="1.2470000"
   fx="7.8246999"
   fy="30.728500"
   gradientUnits="userSpaceOnUse">
				<stop
   offset="0"
   style="stop-color:#F0F0F0"
   id="stop9590" />



				<stop
   offset="1"
   style="stop-color:#474747"
   id="stop9592" />



			</radialGradient>



			<path
   style="fill:url(#radialGradient1485);stroke:none"
   d="M 8.4000000,30.400000 C 8.4000000,30.900000 8.0000000,31.200000 7.6000000,31.200000 C 7.2000000,31.200000 6.8000000,30.800000 6.8000000,30.400000 C 6.8000000,30.000000 7.2000000,29.600000 7.6000000,29.600000 C 8.0000000,29.600000 8.4000000,30.000000 8.4000000,30.400000 z "
   id="path9594" />



			<radialGradient
   id="aigrd3"
   cx="7.8246999"
   cy="18.871099"
   r="1.2470000"
   fx="7.8246999"
   fy="18.871099"
   gradientUnits="userSpaceOnUse">
				<stop
   offset="0"
   style="stop-color:#F0F0F0"
   id="stop9597" />



				<stop
   offset="1"
   style="stop-color:#474747"
   id="stop9599" />



			</radialGradient>



			<path
   style="fill:url(#radialGradient1487);stroke:none"
   d="M 8.4000000,18.500000 C 8.4000000,19.000000 8.0000000,19.300000 7.6000000,19.300000 C 7.2000000,19.300000 6.7000000,19.000000 6.7000000,18.500000 C 6.7000000,18.000000 7.1000000,17.700000 7.5000000,17.700000 C 7.9000000,17.700000 8.3000000,18.100000 8.3000000,18.500000 L 8.4000000,18.500000 z "
   id="path9601" />



		</g><path
   style="fill:#ffffff;fill-rule:nonzero;stroke:none;stroke-miterlimit:4.0000000"
   d="M 12.548757,43.087500 L 12.148757,43.087500 L 12.148757,6.6000000 L 12.548757,6.6000000 L 12.548757,43.087500 z "
   id="path9603"
   sodipodi:nodetypes="ccccc" /><path
   style="fill:url(#linearGradient1561);fill-rule:nonzero;stroke:none;stroke-miterlimit:4.0000000"
   d="M 12.148757,43.025000 L 11.748757,43.025000 L 11.748757,6.6000000 L 12.148757,6.6000000 L 12.148757,43.025000 z "
   id="path9610"
   sodipodi:nodetypes="ccccc" /><path
   style="fill:#ffffff;fill-rule:nonzero;stroke:none;stroke-miterlimit:4.0000000"
   d="M 8.4487570,9.8000000 L 7.8487570,41.400000 C 7.3487570,40.900000 7.1487570,39.900000 7.1487570,39.900000 L 7.1487570,8.7000000 C 7.1487570,8.7000000 7.1487570,7.9000000 7.8487570,7.0000000 C 8.5487570,6.1000000 9.8487570,6.0000000 9.8487570,6.0000000 L 37.848757,6.0000000 L 10.948757,7.3000000 C 9.8487570,7.3000000 9.2487570,7.8000000 9.0487570,8.1000000 C 8.8487570,8.3000000 8.4487570,9.1000000 8.4487570,9.8000000 L 8.4487570,9.8000000 z "
   id="path9612" /><path
   style="fill:#bebebe;fill-rule:nonzero;stroke:none;stroke-miterlimit:4.0000000"
   d="M 39.605630,39.287500 L 40.213717,7.0000000 C 40.720455,7.5000000 40.821803,8.4000000 40.821803,8.4000000 L 40.821803,40.387500 C 40.821803,40.387500 40.821803,41.187500 40.112369,42.087500 C 39.301587,42.987500 38.085415,43.087500 38.085415,43.087500 L 9.7080562,43.087500 L 36.970590,41.787500 C 38.085415,41.787500 38.693501,41.287500 38.896196,40.987500 C 39.098892,40.787500 39.504283,39.987500 39.504283,39.287500 L 39.605630,39.287500 z "
   id="path9614"
   sodipodi:nodetypes="ccccccccccc" /><path
   style="fill:#969696;fill-rule:nonzero;stroke:none;stroke-miterlimit:4.0000000"
   d="M 16.313891,11.005536 C 15.759333,11.005536 15.306612,11.456240 15.306612,12.011806 L 15.306612,12.208422 C 15.306612,12.640977 15.591957,12.995894 15.989223,13.133021 C 15.989223,13.494996 15.989223,31.154135 15.989223,31.154135 C 15.989223,31.154135 25.444938,31.154135 25.922866,31.154135 C 25.922866,31.511069 25.922866,32.610101 25.922866,32.801676 C 25.623405,33.022491 25.436872,33.358250 25.436872,33.725267 C 25.436872,33.725267 25.448971,33.781731 25.460062,33.838195 C 25.200933,34.028761 18.476667,38.998608 18.476667,38.998608 L 20.710022,38.996591 L 21.683019,38.995583 C 21.683019,38.995583 26.213253,35.008816 26.385670,34.857573 C 26.462300,34.875722 26.541954,34.900929 26.613543,34.900929 C 26.689164,34.900929 26.771844,34.873706 26.850490,34.854548 C 27.024924,35.008816 31.517851,38.995583 31.517851,38.995583 L 33.195640,38.998608 L 34.719162,38.998608 C 34.719162,38.998608 28.024136,34.036827 27.765006,33.844245 C 27.778114,33.783747 27.790214,33.725267 27.790214,33.725267 C 27.790214,33.362283 27.613763,33.034590 27.324385,32.813775 C 27.324385,32.627242 27.324385,31.514093 27.324385,31.154135 C 27.800296,31.154135 36.418125,31.154135 36.418125,31.154135 C 36.418125,31.154135 36.418125,13.569610 36.418125,13.168311 C 36.859755,13.061433 37.195515,12.681309 37.195515,12.208422 L 37.195515,12.011806 C 37.195515,11.456240 36.742794,11.005536 36.188236,11.005536 L 16.313891,11.005536 L 16.313891,11.005536 z "
   id="path13005" /><path
   style="fill:#000000;fill-rule:nonzero;stroke:none;stroke-miterlimit:4.0000000"
   d="M 15.810756,10.501392 C 15.256198,10.501392 14.804485,10.953105 14.804485,11.507663 L 14.804485,11.704279 C 14.804485,12.136834 15.088822,12.491751 15.486087,12.628878 C 15.486087,12.989845 15.486087,30.648983 15.486087,30.648983 C 15.486087,30.648983 24.941803,30.648983 25.420739,30.648983 C 25.420739,31.006925 25.420739,32.105958 25.420739,32.296524 C 25.122286,32.518347 24.933737,32.855115 24.933737,33.220115 C 24.933737,33.220115 24.945836,33.277587 24.956927,33.333043 C 24.698806,33.524618 17.973531,38.495473 17.973531,38.495473 L 20.207895,38.492448 L 21.180892,38.491439 C 21.180892,38.491439 25.711126,34.505681 25.883543,34.353430 C 25.959164,34.369562 26.038819,34.396786 26.111416,34.396786 C 26.186029,34.396786 26.269717,34.368554 26.349371,34.349396 C 26.522797,34.503664 31.014715,38.490431 31.014715,38.490431 L 32.693513,38.492448 L 34.218043,38.492448 C 34.218043,38.492448 27.522009,33.530667 27.262879,33.340101 C 27.275987,33.278596 27.288087,33.219107 27.288087,33.219107 C 27.288087,32.857132 27.111636,32.530447 26.822258,32.309632 C 26.822258,32.121082 26.822258,31.007933 26.822258,30.648983 C 27.298170,30.648983 35.917007,30.648983 35.917007,30.648983 C 35.917007,30.648983 35.917007,13.064458 35.917007,12.664168 C 36.356620,12.558298 36.692380,12.178174 36.692380,11.704279 L 36.692380,11.507663 C 36.692380,10.953105 36.242684,10.501392 35.688126,10.501392 L 15.810756,10.501392 z "
   id="path13007" /><path
   style="fill:#a4a4a4;fill-rule:nonzero;stroke:none;stroke-miterlimit:4.0000000"
   d="M 26.259634,33.182808 L 25.865394,33.182808 L 25.865394,11.195094 L 26.259634,11.195094 L 26.259634,33.181800 L 26.259634,33.182808 z "
   id="path13009" /><path
   style="fill:url(#linearGradient1553);fill-rule:nonzero;stroke:none;stroke-miterlimit:4.0000000"
   d="M 35.354383,30.027878 L 15.931750,30.027878 L 15.931750,11.984583 L 35.354383,11.984583 L 35.354383,30.027878 L 35.354383,30.027878 z "
   id="path13016" /><path
   style="fill:#f9f9f9;fill-rule:nonzero;stroke:none;stroke-miterlimit:4.0000000"
   d="M 15.931750,30.027878 L 16.683932,12.651060 L 35.354383,12.089444 L 15.931750,12.089444 L 15.931750,30.027878 L 15.931750,30.027878 z "
   id="path13018" /><g
   transform="matrix(1.008287,0.000000,0.000000,1.008287,0.884080,1.615359)"
   style="fill:#a4a4a4;fill-rule:nonzero;stroke:none;stroke-miterlimit:4.0000000"
   id="g13020">
			<path
   d="M 30.015000,35.956000 L 31.492000,35.959000 L 25.217000,31.321000 L 24.778000,31.307000 L 30.016000,35.955000 L 30.015000,35.956000 z "
   id="path13022" />

			<path
   d="M 19.884000,35.956000 L 18.408000,35.959000 L 24.683000,31.321000 L 25.121000,31.307000 L 19.883000,35.955000 L 19.884000,35.956000 z "
   id="path13024" />

			<path
   style="fill:#dedede"
   d="M 18.409000,35.959000 L 19.107000,35.959000 L 19.107000,35.730000 L 24.684000,31.322000 L 18.410000,35.960000"
   id="path13026" />

			<path
   style="fill:#dedede"
   d="M 30.475000,35.958000 L 30.089000,35.808000 L 24.833000,31.358000 L 30.015000,35.957000 L 30.475000,35.959000 L 30.475000,35.958000 z "
   id="path13028" />

			<path
   style="fill:#757575"
   d="M 25.167000,31.308000 L 19.884000,35.956000 L 19.513000,35.958000 L 19.884000,35.789000 L 25.167000,31.308000 L 25.167000,31.308000 z "
   id="path13030" />

			<path
   style="fill:#878787"
   d="M 31.491000,35.959000 L 31.190000,35.959000 L 25.100000,31.226000 L 31.492000,35.959000 L 31.491000,35.959000 z "
   id="path13032" />

		</g><path
   style="fill:url(#linearGradient1542);fill-rule:nonzero;stroke:none;stroke-miterlimit:4.0000000"
   d="M 36.131772,11.586309 C 36.131772,11.864596 35.904907,12.089444 35.627628,12.089444 L 15.752275,12.089444 C 15.474996,12.089444 15.249140,11.864596 15.249140,11.586309 L 15.249140,11.388685 C 15.249140,11.111406 15.473988,10.884541 15.752275,10.884541 L 35.627628,10.884541 C 35.904907,10.884541 36.131772,11.110398 36.131772,11.388685 L 36.131772,11.585301 L 36.131772,11.586309 z "
   id="path13039" /><path
   style="opacity:0.15999998;fill:#000000;fill-rule:nonzero;stroke:none;stroke-miterlimit:4.0000000"
   d="M 35.354383,12.089444 L 15.931750,12.089444 L 15.931750,13.506088 C 17.026750,11.967442 35.354383,12.089444 35.354383,12.089444 z "
   id="path13041" /><path
   style="fill:#c9c9c9;fill-rule:nonzero;stroke:none;stroke-miterlimit:4.0000000"
   d="M 35.354383,30.027878 L 35.354383,12.089444 L 34.814949,29.356359 L 15.931750,30.027878 L 35.354383,30.027878 z "
   id="path13043" /><path
   style="fill:url(#radialGradient1537);fill-rule:nonzero;stroke:none;stroke-miterlimit:4.0000000"
   d="M 26.726471,33.102145 C 26.726471,33.474203 26.424993,33.775681 26.052935,33.775681 C 25.680877,33.775681 25.379399,33.474203 25.379399,33.102145 C 25.379399,32.731096 25.680877,32.428610 26.052935,32.428610 C 26.424993,32.428610 26.726471,32.731096 26.726471,33.102145 z "
   id="path13050" /><path
   style="fill:#000000;fill-rule:nonzero;stroke:none;stroke-miterlimit:4.0000000"
   d="M 19.256072,16.263753 C 18.492799,16.744705 18.073352,17.396059 18.073352,18.100851 L 18.073352,18.686666 C 18.073352,19.391459 18.493807,20.042812 19.256072,20.523765 C 19.976998,20.977494 20.929829,21.227549 21.938116,21.227549 C 22.946403,21.227549 23.898226,20.977494 24.620159,20.523765 C 25.383433,20.042812 25.802880,19.391459 25.802880,18.686666 L 25.802880,18.100851 C 25.802880,17.396059 25.383433,16.743697 24.620159,16.263753 C 23.899234,15.810023 22.946403,15.560976 21.938116,15.560976 C 20.929829,15.560976 19.976998,15.811032 19.256072,16.263753 L 19.256072,16.263753 z "
   id="path13052" /><path
   style="fill:url(#linearGradient1533);fill-rule:nonzero;stroke:none;stroke-miterlimit:4.0000000"
   d="M 25.347134,17.991956 C 24.937770,17.034084 23.549358,16.329291 21.897784,16.329291 C 20.246210,16.329291 18.857799,17.035092 18.448435,17.991956 L 18.325424,17.991956 L 18.325424,18.577771 C 18.325424,19.818972 19.924567,20.825243 21.897784,20.825243 C 23.871002,20.825243 25.470145,19.817964 25.470145,18.577771 L 25.470145,17.991956 L 25.347134,17.991956 z "
   id="path13059" /><path
   style="fill:url(#linearGradient1530);fill-rule:nonzero;stroke:none;stroke-miterlimit:4.0000000"
   d="M 25.470145,17.991956 C 25.470145,19.233158 23.871002,20.239428 21.897784,20.239428 C 19.924567,20.239428 18.325424,19.233158 18.325424,17.991956 C 18.325424,16.750755 19.924567,15.744485 21.897784,15.744485 C 23.871002,15.744485 25.470145,16.750755 25.470145,17.991956 z "
   id="path13066" /><path
   style="fill:url(#linearGradient1527);fill-rule:nonzero;stroke:none;stroke-miterlimit:4.0000000"
   d="M 25.470145,18.665492 L 25.465104,18.052454 C 25.077922,19.325920 24.206762,19.864345 23.111762,20.128517 L 23.111762,20.692149 C 24.297507,20.407812 25.358225,19.762508 25.470145,18.665492 L 25.470145,18.665492 z "
   id="path13073" /><path
   style="fill:url(#linearGradient1524);fill-rule:nonzero;stroke:none;stroke-miterlimit:4.0000000"
   d="M 25.470145,17.991956 C 25.388474,19.428765 23.522135,20.083144 23.105712,20.108351 L 21.897784,17.991956 L 25.470145,17.991956 z "
   id="path13080" /><path
   style="fill:url(#linearGradient1521);fill-rule:nonzero;stroke:none;stroke-miterlimit:4.0000000"
   d="M 21.149635,20.775837 L 21.149635,20.190022 C 21.822163,20.273710 22.438226,20.287826 23.104704,20.129525 L 23.110754,20.691141 C 22.553171,20.865574 21.679994,20.873641 21.149635,20.774829 L 21.149635,20.775837 z "
   id="path13087" /><path
   style="fill:url(#linearGradient1518);fill-rule:nonzero;stroke:none;stroke-miterlimit:4.0000000"
   d="M 21.897784,17.991956 L 23.105712,20.108351 C 22.365630,20.376555 21.150644,20.191030 21.150644,20.191030 L 21.898793,17.991956 L 21.897784,17.991956 z "
   id="path13094" /><path
   style="opacity:0.44999996;fill:#eccfc7;fill-rule:nonzero;stroke:none;stroke-miterlimit:4.0000000"
   d="M 24.286416,16.321225 C 24.286416,16.321225 25.562908,16.993752 25.463087,18.085727 C 25.362258,19.176694 23.759082,20.570146 21.111321,20.185989 C 23.774206,20.330174 25.192866,18.994194 25.291678,18.126059 C 25.390491,17.256915 24.779469,16.699333 24.286416,16.322233 L 24.286416,16.321225 z "
   id="path13096" /><path
   style="fill:#eda18c;fill-rule:nonzero;stroke:none;stroke-miterlimit:4.0000000"
   d="M 20.743296,20.120450 C 19.697702,19.948033 18.284084,19.106114 18.326432,17.930451 C 18.366763,16.835451 19.883227,15.537786 22.576362,15.784816 C 19.908434,15.663822 18.538172,16.886874 18.480700,17.882053 C 18.426252,18.822785 19.587799,19.881486 20.743296,20.120450 L 20.743296,20.120450 z "
   id="path13098" /><rect
   y="26.805788"
   x="18.469009"
   height="1.2500000"
   width="15.000000"
   id="rect13410"
   style="color:#000000;fill:#000000;fill-opacity:0.22807015;fill-rule:nonzero;stroke:none;stroke-width:0.99813098;stroke-linecap:butt;stroke-linejoin:miter;marker:none;marker-start:none;marker-mid:none;marker-end:none;stroke-miterlimit:4.0000000;stroke-dashoffset:0.0000000;stroke-opacity:1.0000000;visibility:visible;display:inline;overflow:visible" /><rect
   style="color:#000000;fill:#000000;fill-opacity:0.22807015;fill-rule:nonzero;stroke:none;stroke-width:0.99813098;stroke-linecap:butt;stroke-linejoin:miter;marker:none;marker-start:none;marker-mid:none;marker-end:none;stroke-miterlimit:4.0000000;stroke-dashoffset:0.0000000;stroke-opacity:1.0000000;visibility:visible;display:inline;overflow:visible"
   id="rect13412"
   width="15.000000"
   height="1.2500000"
   x="18.469009"
   y="24.363846" /><rect
   y="21.833515"
   x="18.469009"
   height="1.2500000"
   width="15.000000"
   id="rect13414"
   style="color:#000000;fill:#000000;fill-opacity:0.22807015;fill-rule:nonzero;stroke:none;stroke-width:0.99813098;stroke-linecap:butt;stroke-linejoin:miter;marker:none;marker-start:none;marker-mid:none;marker-end:none;stroke-miterlimit:4.0000000;stroke-dashoffset:0.0000000;stroke-opacity:1.0000000;visibility:visible;display:inline;overflow:visible" /><rect
   style="color:#000000;fill:#000000;fill-opacity:0.22807015;fill-rule:nonzero;stroke:none;stroke-width:0.99813098;stroke-linecap:butt;stroke-linejoin:miter;marker:none;marker-start:none;marker-mid:none;marker-end:none;stroke-miterlimit:4.0000000;stroke-dashoffset:0.0000000;stroke-opacity:1.0000000;visibility:visible;display:inline;overflow:visible"
   id="rect13416"
   width="6.2500000"
   height="1.2500000"
   x="27.219009"
   y="19.358639" /><rect
   y="16.795374"
   x="27.219009"
   height="1.2500000"
   width="6.2500000"
   id="rect13418"
   style="color:#000000;fill:#000000;fill-opacity:0.22807015;fill-rule:nonzero;stroke:none;stroke-width:0.99813098;stroke-linecap:butt;stroke-linejoin:miter;marker:none;marker-start:none;marker-mid:none;marker-end:none;stroke-miterlimit:4.0000000;stroke-dashoffset:0.0000000;stroke-opacity:1.0000000;visibility:visible;display:inline;overflow:visible" /><rect
   style="color:#000000;fill:#000000;fill-opacity:0.22807015;fill-rule:nonzero;stroke:none;stroke-width:0.99813098;stroke-linecap:butt;stroke-linejoin:miter;marker:none;marker-start:none;marker-mid:none;marker-end:none;stroke-miterlimit:4.0000000;stroke-dashoffset:0.0000000;stroke-opacity:1.0000000;visibility:visible;display:inline;overflow:visible"
   id="rect13420"
   width="6.2500000"
   height="1.2500000"
   x="27.219009"
   y="14.320512" /></svg>