<?xml version="1.0" standalone="no"?>
<!--Created with Inkscape (http://www.inkscape.org/)-->
<svg xmlns="http://www.w3.org/2000/svg" xmlns:xlink="http://www.w3.org/1999/xlink" viewBox="0 0 48 48">
  <defs>
    <linearGradient id="k">
      <stop offset="0" stop-color="#555753"/>
      <stop offset="0.32156199" stop-color="#8a8d85" stop-opacity="1"/>
      <stop offset="0.53021115" stop-color="#babdb6" stop-opacity="1"/>
      <stop offset="0.85266888" stop-color="#dcdeda" stop-opacity="1"/>
      <stop offset="1" stop-color="#babdb6"/>
    </linearGradient>
    <linearGradient id="h">
      <stop offset="0" stop-color="#888a85"/>
      <stop offset="1" stop-color="#555753"/>
    </linearGradient>
    <linearGradient id="i">
      <stop offset="0" stop-color="#fff" stop-opacity="1"/>
      <stop offset="1" stop-color="#fff" stop-opacity="0"/>
    </linearGradient>
    <linearGradient id="a">
      <stop offset="0" stop-color="#000" stop-opacity="1"/>
      <stop offset="1" stop-color="#000" stop-opacity="0"/>
    </linearGradient>
    <linearGradient id="d">
      <stop offset="0" stop-color="#c4a000" stop-opacity="1"/>
      <stop offset="1" stop-color="#c4a000" stop-opacity="0"/>
    </linearGradient>
    <linearGradient id="j">
      <stop offset="0" stop-color="#fff" stop-opacity="1"/>
      <stop offset="1" stop-color="#fff" stop-opacity="0"/>
    </linearGradient>
    <linearGradient id="b">
      <stop offset="0" stop-color="#fff" stop-opacity="1"/>
      <stop offset="1" stop-color="#fce94f"/>
    </linearGradient>
    <linearGradient id="e">
      <stop offset="0" stop-color="#fff" stop-opacity="1"/>
      <stop offset="1" stop-color="#fff" stop-opacity="0"/>
    </linearGradient>
    <linearGradient id="f">
      <stop offset="0" stop-color="#c4a000" stop-opacity="1"/>
      <stop offset="1" stop-color="#edd400"/>
    </linearGradient>
    <linearGradient id="c">
      <stop offset="0" stop-color="#fff" stop-opacity="1"/>
      <stop offset="1" stop-color="#fff" stop-opacity="0"/>
    </linearGradient>
    <linearGradient id="g">
      <stop offset="0" stop-color="#c4a000"/>
      <stop offset="0.35133624" stop-color="#d8ba00" stop-opacity="1"/>
      <stop offset="0.50020754" stop-color="#edd400" stop-opacity="1"/>
      <stop offset="0.85000002" stop-color="#fdf4a7" stop-opacity="1"/>
      <stop offset="1" stop-color="#fce94f"/>
    </linearGradient>
    <radialGradient xlink:href="#a" id="l" cx="21.34375" cy="14.125" fx="21.34375" fy="14.125" r="11.96875" gradientTransform="matrix(1,0,0,0.302872,8.341852e-16,9.846932)" gradientUnits="userSpaceOnUse"/>
    <radialGradient xlink:href="#b" id="q" gradientUnits="userSpaceOnUse" gradientTransform="matrix(0.690032,-4.583908e-18,1.406348e-18,0.228281,6.615871,10.90053)" cx="19.717636" cy="16.677069" fx="19.717636" fy="16.677069" r="12.46875"/>
    <radialGradient xlink:href="#c" gradientUnits="userSpaceOnUse" gradientTransform="matrix(1.253821,-0.396912,0.124986,0.425706,-7.949749,14.71501)" cx="19.161945" cy="24.691038" fx="19.161945" fy="24.691038" r="12.46875"/>
    <linearGradient xlink:href="#d" id="r" gradientUnits="userSpaceOnUse" x1="31.18708" y1="9.9904861" x2="25.531752" y2="18.613125"/>
    <radialGradient xlink:href="#c" gradientUnits="userSpaceOnUse" gradientTransform="matrix(1.253821,-0.396912,0.124986,0.425706,-7.949749,14.71501)" cx="19.161945" cy="24.691038" fx="19.161945" fy="24.691038" r="12.46875"/>
    <radialGradient xlink:href="#e" id="u" gradientUnits="userSpaceOnUse" gradientTransform="matrix(1.499279,-0.163895,3.603099e-2,0.557877,-10.01886,8.004429)" cx="19.863604" cy="11.205179" fx="19.863604" fy="11.205179" r="4"/>
    <linearGradient xlink:href="#f" id="v" gradientUnits="userSpaceOnUse" gradientTransform="translate(2,-4.760636e-13)" x1="18.5625" y1="11.1875" x2="17.71875" y2="12.534899"/>
    <linearGradient xlink:href="#g" id="t" gradientUnits="userSpaceOnUse" gradientTransform="translate(2,-4.760636e-13)" x1="25.500298" y1="10.985043" x2="17.499449" y2="10.985043"/>
    <linearGradient xlink:href="#h" id="s" gradientUnits="userSpaceOnUse" x1="13.375" y1="23.221346" x2="13.375" y2="32.383766" gradientTransform="translate(-2,-4.760636e-13)"/>
    <linearGradient xlink:href="#i" id="p" gradientUnits="userSpaceOnUse" x1="13.96536" y1="10.495919" x2="20.682875" y2="31.382992" gradientTransform="translate(2,0)"/>
    <linearGradient xlink:href="#j" id="o" gradientUnits="userSpaceOnUse" gradientTransform="translate(2,-4.760636e-13)" x1="12.25" y1="20.230709" x2="17.125" y2="34.173542"/>
    <linearGradient xlink:href="#g" id="n" gradientUnits="userSpaceOnUse" gradientTransform="translate(2,-4.760636e-13)" x1="33.5625" y1="19.125" x2="9.4987011" y2="19.125"/>
    <linearGradient xlink:href="#k" id="m" gradientUnits="userSpaceOnUse" gradientTransform="translate(2,-4.760636e-13)" x1="33.50008" y1="28.375" x2="9.4992361" y2="28.375"/>
  </defs>
  <metadata/>
  <path style="marker:none" d="M 33.3125 14.125 A 11.96875 3.625 0 1 1  9.375,14.125 A 11.96875 3.625 0 1 1  33.3125 14.125 z" transform="matrix(1.389034,0,0,1.337644,-6.147196,18.98077)" opacity=".7254902" color="#000" fill="url(#l)" fill-opacity="1" fill-rule="nonzero" stroke="none" stroke-width="1" stroke-linecap="round" stroke-linejoin="round" marker-start="none" marker-mid="none" marker-end="none" stroke-miterlimit="4" stroke-dasharray="none" stroke-dashoffset="0" stroke-opacity="1" visibility="visible" display="inline" overflow="visible"/>
  <g display="inline">
    <path style="marker:none" d="M 22,10.5 C 16.084021,10.716519 11.5,12.21646 11.5,14 L 11.5,37 C 11.5,38.932002 16.876,40.500001 23.5,40.5 C 30.124,40.5 35.5,38.932003 35.5,37 L 35.5,14 C 35.5,12.067998 30.124001,10.5 23.5,10.5 C 23.13775,10.5 22.79161,10.490818 22.4375,10.5 C 22.294038,10.50372 22.141983,10.494804 22,10.5 z " color="#000" fill="url(#m)" fill-opacity="1" fill-rule="nonzero" stroke="none" stroke-width="1" stroke-linecap="round" stroke-linejoin="round" marker-start="none" marker-mid="none" marker-end="none" stroke-miterlimit="4" stroke-dasharray="none" stroke-dashoffset="0" stroke-opacity="1" visibility="visible" display="inline" overflow="visible"/>
    <path style="marker:none" d="M 22.4375,10.5 C 16.316456,10.658717 11.5,12.173655 11.5,14 L 11.5,20.5 C 11.5,22.432002 16.875999,24.000001 23.5,24 C 30.124,24 35.5,22.432001 35.5,20.5 L 35.5,14 C 35.5,12.067998 30.124,10.5 23.5,10.5 C 23.13775,10.5 22.79161,10.490818 22.4375,10.5 z " color="#000" fill="url(#n)" fill-opacity="1" fill-rule="nonzero" stroke="none" stroke-width="1" stroke-linecap="round" stroke-linejoin="round" marker-start="none" marker-mid="none" marker-end="none" stroke-miterlimit="4" stroke-dasharray="none" stroke-dashoffset="0" stroke-opacity="1" visibility="visible" display="inline" overflow="visible"/>
    <path style="marker:none" d="M 15,16 L 20,16 L 20,40.3125 L 15,39.5 L 15,16 z " opacity=".36862745" color="#000" fill="url(#o)" fill-opacity="1" fill-rule="nonzero" stroke="none" stroke-width="1" stroke-linecap="round" stroke-linejoin="round" marker-start="none" marker-mid="none" marker-end="none" stroke-miterlimit="4" stroke-dashoffset="0" stroke-opacity="1" visibility="visible" display="inline" overflow="visible"/>
    <path style="marker:none" d="M 22,10.5 C 16.084021,10.716519 11.5,12.21646 11.5,14 L 11.5,37 C 11.5,38.932002 16.876,40.500001 23.5,40.5 C 30.124,40.5 35.5,38.932003 35.5,37 L 35.5,14 C 35.5,12.067998 30.124001,10.5 23.5,10.5 C 23.13775,10.5 22.79161,10.490818 22.4375,10.5 C 22.294038,10.50372 22.141983,10.494804 22,10.5 z " opacity=".34509804" color="#000" fill="url(#p)" fill-opacity="1" fill-rule="nonzero" stroke="none" stroke-width="1" stroke-linecap="round" stroke-linejoin="round" marker-start="none" marker-mid="none" marker-end="none" stroke-miterlimit="4" stroke-dasharray="none" stroke-dashoffset="0" stroke-opacity="1" visibility="visible" display="inline" overflow="visible"/>
    <path style="marker:none" d="M 33.3125 14.125 A 11.96875 3.625 0 1 1  9.375,14.125 A 11.96875 3.625 0 1 1  33.3125 14.125 z" transform="matrix(1.002611,0,0,0.965518,2.100522,0.362061)" color="#000" fill="url(#q)" fill-opacity="1" fill-rule="nonzero" stroke="url(#radialGradient3339)" stroke-width="1" stroke-linecap="round" stroke-linejoin="round" marker-start="none" marker-mid="none" marker-end="none" stroke-miterlimit="4" stroke-dasharray="none" stroke-dashoffset="0" stroke-opacity="1" visibility="visible" display="inline" overflow="visible"/>
    <path style="marker:none" d="M 33.3125 14.125 A 11.96875 3.625 0 1 1  9.375,14.125 A 11.96875 3.625 0 1 1  33.3125 14.125 z" transform="matrix(1.002611,0,0,0.965518,2.100522,0.362061)" opacity=".63921569" color="#000" fill="url(#r)" fill-opacity="1" fill-rule="nonzero" stroke="url(#radialGradient3343)" stroke-width="1" stroke-linecap="round" stroke-linejoin="round" marker-start="none" marker-mid="none" marker-end="none" stroke-miterlimit="4" stroke-dasharray="none" stroke-dashoffset="0" stroke-opacity="1" visibility="visible" display="inline" overflow="visible"/>
    <path style="marker:none" d="M 11.5,21.5 L 11.5,37 C 11.5,38.932002 16.876,40.500001 23.5,40.5 C 30.124,40.5 35.5,38.932003 35.5,37 L 35.5,21.5" color="#000" fill="none" fill-opacity="1" fill-rule="nonzero" stroke="url(#s)" stroke-width="1" stroke-linecap="round" stroke-linejoin="round" marker-start="none" marker-mid="none" marker-end="none" stroke-miterlimit="4" stroke-dasharray="none" stroke-dashoffset="0" stroke-opacity="1" visibility="visible" display="inline" overflow="visible"/>
    <path style="marker:none" d="M 35.5,21.5 L 35.5,14 C 35.5,12.067998 30.124001,10.5 23.5,10.5 C 23.13775,10.5 22.79161,10.490818 22.4375,10.5 C 22.294038,10.50372 22.141983,10.494804 22,10.5 C 16.084021,10.716519 11.5,12.21646 11.5,14 L 11.5,21.5" color="#000" fill="none" fill-opacity="1" fill-rule="nonzero" stroke="#c4a000" stroke-width="1" stroke-linecap="round" stroke-linejoin="round" marker-start="none" marker-mid="none" marker-end="none" stroke-miterlimit="4" stroke-dasharray="none" stroke-dashoffset="0" stroke-opacity="1" visibility="visible" display="inline" overflow="visible"/>
    <path style="marker:none" d="M 21.84375,11.5 C 16.548895,11.680925 12.5,12.74668 12.5,14 C 12.5,15.142813 12.5,35.855219 12.5,37 C 12.5,38.38 17.427994,39.5 23.5,39.5 C 29.572006,39.5 34.5,38.38 34.5,37 C 34.5,35.940784 34.499999,15.059216 34.5,14 C 34.5,12.62 29.572007,11.5 23.5,11.5 C 23.1205,11.5 22.744639,11.49146 22.375,11.5 C 22.201732,11.504003 22.014552,11.494164 21.84375,11.5 z " opacity=".49019608" color="#000" fill="none" fill-opacity="1" fill-rule="nonzero" stroke="#fff" stroke-width="1" stroke-linecap="round" stroke-linejoin="round" marker-start="none" marker-mid="none" marker-end="none" stroke-miterlimit="4" stroke-dasharray="none" stroke-dashoffset="0" stroke-opacity="1" visibility="visible" display="inline" overflow="visible"/>
    <path style="marker:none" d="M 23,9.5 C 21.315666,9.5803665 19.950192,10.074035 19.59375,10.6875 C 19.587086,10.699702 19.568368,10.737692 19.5625,10.75 C 19.559767,10.75618 19.533781,10.775045 19.53125,10.78125 C 19.528923,10.78748 19.533372,10.806246 19.53125,10.8125 C 19.521672,10.843887 19.504323,10.905557 19.5,10.9375 C 19.49935,10.943909 19.500435,10.96232 19.5,10.96875 C 19.499782,10.975199 19.5,12.993531 19.5,13 C 19.5,13.006469 19.499782,13.024801 19.5,13.03125 C 19.500435,13.03768 19.49935,13.056091 19.5,13.0625 C 19.504323,13.094443 19.521672,13.156113 19.53125,13.1875 C 19.533372,13.193754 19.528923,13.21252 19.53125,13.21875 C 19.533781,13.224955 19.559767,13.24382 19.5625,13.25 C 19.568368,13.262308 19.587086,13.300298 19.59375,13.3125 C 19.985483,13.986704 21.58525,14.5 23.5,14.5 C 25.41475,14.5 27.014517,13.986704 27.40625,13.3125 C 27.412914,13.300298 27.431632,13.262308 27.4375,13.25 C 27.440233,13.24382 27.466219,13.224955 27.46875,13.21875 C 27.471077,13.21252 27.466628,13.193754 27.46875,13.1875 C 27.478328,13.156113 27.495677,13.094443 27.5,13.0625 C 27.50065,13.056091 27.499565,13.03768 27.5,13.03125 C 27.500218,13.024801 27.5,13.006469 27.5,13 C 27.5,12.993531 27.500218,10.975199 27.5,10.96875 C 27.499565,10.96232 27.50065,10.943909 27.5,10.9375 C 27.495677,10.905557 27.478328,10.843887 27.46875,10.8125 C 27.466628,10.806246 27.471077,10.78748 27.46875,10.78125 C 27.466219,10.775045 27.440233,10.75618 27.4375,10.75 C 27.431632,10.737692 27.412914,10.699702 27.40625,10.6875 C 27.014517,10.013296 25.41475,9.5 23.5,9.5 C 23.3275,9.5 23.166766,9.4920429 23,9.5 z " color="#000" fill="url(#t)" fill-opacity="1" fill-rule="nonzero" stroke="none" stroke-width="1" stroke-linecap="round" stroke-linejoin="round" marker-start="none" marker-mid="none" marker-end="none" stroke-miterlimit="4" stroke-dasharray="none" stroke-dashoffset="0" stroke-opacity="1" visibility="visible" display="inline" overflow="visible"/>
    <path style="marker:none" d="M 25.5 11 A 4 1.5 0 1 1  17.5,11 A 4 1.5 0 1 1  25.5 11 z" transform="matrix(0.867417,0,0,0.666667,4.820203,3.666665)" color="#000" fill="url(#u)" fill-opacity="1" fill-rule="nonzero" stroke="none" stroke-width="1" stroke-linecap="round" stroke-linejoin="round" marker-start="none" marker-mid="none" marker-end="none" stroke-miterlimit="4" stroke-dasharray="none" stroke-dashoffset="0" stroke-opacity="1" visibility="visible" display="inline" overflow="visible"/>
    <path style="marker:none" d="M 23,9.5 C 21.315666,9.5803665 19.950192,10.074035 19.59375,10.6875 C 19.587086,10.699702 19.568368,10.737692 19.5625,10.75 C 19.559767,10.75618 19.533781,10.775045 19.53125,10.78125 C 19.528923,10.78748 19.533372,10.806246 19.53125,10.8125 C 19.521672,10.843887 19.504323,10.905557 19.5,10.9375 C 19.49935,10.943909 19.500435,10.96232 19.5,10.96875 C 19.499782,10.975199 19.5,12.993531 19.5,13 C 19.5,13.006469 19.499782,13.024801 19.5,13.03125 C 19.500435,13.03768 19.49935,13.056091 19.5,13.0625 C 19.504323,13.094443 19.521672,13.156113 19.53125,13.1875 C 19.533372,13.193754 19.528923,13.21252 19.53125,13.21875 C 19.533781,13.224955 19.559767,13.24382 19.5625,13.25 C 19.568368,13.262308 19.587086,13.300298 19.59375,13.3125 C 19.985483,13.986704 21.58525,14.5 23.5,14.5 C 25.41475,14.5 27.014517,13.986704 27.40625,13.3125 C 27.412914,13.300298 27.431632,13.262308 27.4375,13.25 C 27.440233,13.24382 27.466219,13.224955 27.46875,13.21875 C 27.471077,13.21252 27.466628,13.193754 27.46875,13.1875 C 27.478328,13.156113 27.495677,13.094443 27.5,13.0625 C 27.50065,13.056091 27.499565,13.03768 27.5,13.03125 C 27.500218,13.024801 27.5,13.006469 27.5,13 C 27.5,12.993531 27.500218,10.975199 27.5,10.96875 C 27.499565,10.96232 27.50065,10.943909 27.5,10.9375 C 27.495677,10.905557 27.478328,10.843887 27.46875,10.8125 C 27.466628,10.806246 27.471077,10.78748 27.46875,10.78125 C 27.466219,10.775045 27.440233,10.75618 27.4375,10.75 C 27.431632,10.737692 27.412914,10.699702 27.40625,10.6875 C 27.014517,10.013296 25.41475,9.5 23.5,9.5 C 23.3275,9.5 23.166766,9.4920429 23,9.5 z " color="#000" fill="none" fill-opacity="1" fill-rule="nonzero" stroke="url(#v)" stroke-width="1" stroke-linecap="round" stroke-linejoin="round" marker-start="none" marker-mid="none" marker-end="none" stroke-miterlimit="4" stroke-dasharray="none" stroke-dashoffset="0" stroke-opacity="1" visibility="visible" display="inline" overflow="visible"/>
  </g>
</svg>
