<?xml version="1.0" encoding="UTF-8" standalone="no"?>
<!-- Created with Inkscape (http://www.inkscape.org/) -->
<svg id="svg2" xmlns:rdf="http://www.w3.org/1999/02/22-rdf-syntax-ns#" xmlns="http://www.w3.org/2000/svg" viewBox="0 0 364.8 384.2" version="1.1" xmlns:cc="http://creativecommons.org/ns#" xmlns:xlink="http://www.w3.org/1999/xlink" xmlns:dc="http://purl.org/dc/elements/1.1/">
 <defs id="defs4">
  <clipPath id="clipPath4341" clipPathUnits="userSpaceOnUse">
   <path id="path4343" stroke-linejoin="round" d="m455.6,205.1,1.263,28.03s-2.599,0.2304-3.536-0.5051c-0.3919-0.3078-1.382-7.573-6.759-12.57-5.46-5.07-15.34-7.807-22.28-4.86-30.99,13.16-19.96,56.29,3.03,56.57,11.37,0.1381,21.25-0.5109,26.01-11.49,0.4048-0.934,2.262-0.885,2.273-0.1263l0.2525,17.17s-2.635,0.5121-3.536-0.2525c-0.6741-0.5723-1.076-5.127-5.303-1.515-7.424,6.343-57.64,10.98-60.86-27.27-3.515-41.79,41.87-45.72,54.8-38.39,4.418,2.505,8.912,0.1492,11.74-2.057,1.792-1.4,2.911-2.741,2.911-2.741z" stroke="#000" stroke-linecap="butt" stroke-width="1px" fill="none"/>
  </clipPath>
 </defs>
 <metadata id="metadata7">
  <rdf:RDF>
   <cc:Work rdf:about="">
    <dc:format>image/svg+xml</dc:format>
    <dc:type rdf:resource="http://purl.org/dc/dcmitype/StillImage"/>
    <dc:title/>
   </cc:Work>
  </rdf:RDF>
 </metadata>
 <g id="layer1" transform="translate(-139.79476,-52.088063)">
  <g id="g4328" transform="matrix(5.0740932,0,0,5.0740932,-1815.9503,-986.05487)" clip-path="url(#clipPath4341)">
   <rect id="rect3072" height="83.09" width="96.22" y="199.8" x="375.5" fill="#a5001c"/>
   <path id="path3842" d="m404.8,279.6c1.01-0.5051,11.87-2.02,16.92-13.64,5.051-11.62,10.7,0.4363,15.15,3.03,4.688,2.733,17.35-2.338,23.23,6.819-13.81,5.115-55.31,3.788-55.31,3.788z" fill="#FFF"/>
   <path id="path3842-4" d="m374.1,259.3c1.01-0.5051,0,2.273,5.051-9.344,7.328-8.792,61.72-38,82.22-40.9,4.556-0.6451,2.765,6.684,3.389,7.564-13.81,5.115-90.66,42.68-90.66,42.68z" fill="#FFF"/>
   <path id="path3842-4-7" d="m379.7,233c0.7576-1.768-0.7576-2.525,4.293-14.14,7.328-8.792,17.53-12.24,38.03-15.14,4.556-0.6451,13.37,0.623,14,1.503-3.628,1.344-3.87,5.883-12.68,10.36-8.419,4.274-16.5,23.69-26.83,28.45-20.03,9.236-18.74-6.502-16.8-11.03z" fill="#121ea2"/>
   <path id="star" stroke-linejoin="round" d="m403.8,226.7-3.09,9.511,8.09-5.878-10,0,8.09,5.878z" stroke-opacity="0.12727272" stroke="#000" stroke-miterlimit="4" stroke-dasharray="none" stroke-width="0.1" fill="#FFF"/>
   <use id="use4272" xlink:href="#star" transform="translate(-13.571428,3.2142857)" height="1052.3622" width="744.09448" y="0" x="0"/>
   <use id="use4274" xlink:href="#use4272" transform="translate(5.1785714,-12.321428)" height="1052.3622" width="744.09448" y="0" x="0"/>
   <use id="use4276" xlink:href="#use4274" transform="translate(14.107143,-2.3214286)" height="1052.3622" width="744.09448" y="0" x="0"/>
   <use id="use4278" xlink:href="#use4276" transform="translate(-8.2142857,-8.3928571)" height="1052.3622" width="744.09448" y="0" x="0"/>
   <use id="use4280" xlink:href="#use4278" transform="translate(16.964286,-1.0714286)" height="1052.3622" width="744.09448" y="0" x="0"/>
   <use id="use4282" xlink:href="#use4280" transform="translate(6.9642857,-7.8571428)" height="1052.3622" width="744.09448" y="0" x="0"/>
  </g>
  <path id="path3050-4" stroke-linejoin="round" d="m495.7,54.63,6.407,142.2s-13.19,1.169-17.94-2.563c-1.988-1.562-7.013-38.42-34.29-63.76-27.71-25.73-77.84-39.61-113.1-24.66-157.2,66.76-101.3,285.6,15.38,287,57.72,0.7006,107.8-2.592,132-58.3,2.054-4.739,11.48-4.49,11.53-0.6407l1.281,87.14s-13.37,2.599-17.94-1.281c-3.42-2.904-5.461-26.01-26.91-7.688-37.7,32.4-292.6,56-308.9-138.2-17.8-212,212.5-231.9,278.1-194.7,22.42,12.71,50,5.035,59.55-10.44,6.568-10.64,14.77-13.91,14.77-13.91z" stroke="#000" stroke-linecap="butt" stroke-width="5.07409334px" fill="none"/>
 </g>
</svg>
