<?xml version="1.0" encoding="UTF-8" standalone="no"?>
<!-- Created with Inkscape (http://www.inkscape.org/) -->

<svg xmlns:dc="http://purl.org/dc/elements/1.1/" xmlns:cc="http://creativecommons.org/ns#" xmlns:rdf="http://www.w3.org/1999/02/22-rdf-syntax-ns#" xmlns:svg="http://www.w3.org/2000/svg" xmlns="http://www.w3.org/2000/svg" xmlns:sodipodi="http://sodipodi.sourceforge.net/DTD/sodipodi-0.dtd" xmlns:inkscape="http://www.inkscape.org/namespaces/inkscape" id="svg2" version="1.1" inkscape:version="0.48.0 r9654" viewBox="0 0 289.19775 361.71136" sodipodi:docname="watermelon.svg">
  <metadata id="metadata8">
    <rdf:RDF>
      <cc:Work rdf:about="">
        <dc:format>image/svg+xml</dc:format>
        <dc:type rdf:resource="http://purl.org/dc/dcmitype/StillImage" />
        <dc:title />
      </cc:Work>
    </rdf:RDF>
  </metadata>
  <defs id="defs6">
    <inkscape:perspective sodipodi:type="inkscape:persp3d" inkscape:vp_x="0 : 0.5 : 1" inkscape:vp_y="0 : 1000 : 0" inkscape:vp_z="1 : 0.5 : 1" inkscape:persp3d-origin="0.5 : 0.33333333 : 1" id="perspective10" />
  </defs>
  <sodipodi:namedview pagecolor="#ffffff" bordercolor="#666666" borderopacity="1" objecttolerance="10" gridtolerance="10" guidetolerance="10" inkscape:pageopacity="0" inkscape:pageshadow="2" inkscape:window-width="1024" inkscape:window-height="743" id="namedview4" showgrid="false" inkscape:zoom="1.3359375" inkscape:cx="103.82228" inkscape:cy="140.29343" inkscape:window-x="0" inkscape:window-y="0" inkscape:window-maximized="1" inkscape:current-layer="svg2" fit-margin-top="0" fit-margin-left="0" fit-margin-right="0" fit-margin-bottom="0" />
  <g id="g3628" transform="translate(-297.62821,-528.21299)">
    <path transform="translate(3.7050783,-4.2343705)" sodipodi:open="true" sodipodi:end="6.2817092" sodipodi:start="0" d="m 578.52087,713.30304 c 0,97.34332 -62.67963,176.25568 -139.99887,176.25568 -77.31924,0 -139.99887,-78.91236 -139.99887,-176.25568 0,-97.34332 62.67963,-176.25568 139.99887,-176.25568 77.23855,0 139.88471,78.75388 139.99872,175.99551" sodipodi:ry="176.25568" sodipodi:rx="139.99887" sodipodi:cy="713.30304" sodipodi:cx="438.522" id="path3612" style="fill:#83a769;fill-opacity:1;stroke:black;stroke-width:9.19999981;stroke-linecap:round;stroke-linejoin:round;stroke-miterlimit:4;stroke-opacity:1;stroke-dasharray:none;stroke-dashoffset:0" sodipodi:type="arc" />
    <g style="fill:#607959;fill-opacity:1;stroke:none" id="g3622">
      <path style="fill:#607959;fill-opacity:1;stroke:none" d="m 345.63049,585.74266 29.64059,-27.52341 c 0,0 22.75276,38.1059 6.35156,71.45501 -15.87889,32.28707 -21.70115,57.69329 -12.70311,115.38659 8.99803,57.6933 8.99803,71.98429 -1e-5,85.746 -8.99803,13.7617 -9.52733,14.291 -9.52733,14.291 l -28.0527,-34.40426 c 0,0 6.35155,-38.63863 -1.5879,-68.27922 -7.93944,-29.64059 -13.7617,-53.45893 4.76367,-80.45304 18.52537,-26.99411 12.17382,-77.27726 11.11523,-76.21867 z" id="path3614" sodipodi:nodetypes="ccsssccssc" inkscape:connector-curvature="0" />
      <path style="fill:#607959;fill-opacity:1;stroke:none" d="m 409.67534,541.81107 c 0,0 14.8203,34.93355 13.23241,56.6347 -1.58789,21.70115 -12.17382,64.57415 -20.11326,77.80656 -7.93945,13.23241 -3.17578,60.33978 8.99804,83.09952 12.17381,22.75974 13.2324,70.9257 8.99803,77.80655 -4.23437,6.88086 -12.70311,39.69723 -12.70311,39.69723 14.46349,6.60241 24.34211,8.00833 35.99215,4.76367 0,0 -11.64452,-22.75975 -0.5293,-71.45501 11.11523,-48.69526 26.46482,-71.9843 20.64256,-101.09559 -5.82226,-29.1113 -29.1113,-74.10149 -24.34764,-103.74208 4.76367,-29.64059 11.2565,-50.93371 20.11327,-67.74992 -21.58043,-8.51633 -48.69526,2.64648 -50.28315,4.23437 z" id="path3616" sodipodi:nodetypes="cssssccssscc" inkscape:connector-curvature="0" />
      <path style="fill:#607959;fill-opacity:1;stroke:none" d="m 496.47994,550.80911 c 0,0 -25.40623,43.93159 -21.70115,61.92766 3.70507,17.99608 25.40622,73.57219 24.87692,89.45108 -0.52929,15.87889 -1.05859,69.86711 -20.11326,96.86122 -19.05466,26.99411 8.46874,71.9843 8.46874,71.9843 20.94177,-5.47006 21.27811,-9.75153 30.1699,-19.05467 0,0 -10.05664,-38.10933 5.29296,-69.33781 15.34959,-31.22849 20.11325,-76.74797 11.64451,-94.21475 -8.46874,-17.46678 -30.16989,-51.87104 -20.64255,-83.62881 9.52733,-31.75778 10.58592,-32.81637 10.58592,-32.81637 -10.96581,-11.97037 -16.07874,-18.14907 -28.58199,-21.17185 z" id="path3618" sodipodi:nodetypes="csssccssscc" inkscape:connector-curvature="0" />
      <path sodipodi:nodetypes="csssc" style="fill:#607959;fill-opacity:1;stroke:none" d="m 552.58534,609.56099 c 0,0 -4.23437,34.40426 6.88085,51.87104 11.11523,17.46678 16.93749,33.87497 18.52538,43.4023 1.58789,9.52733 1.05859,-39.69722 -7.93945,-58.75189 -8.99804,-19.05467 -16.40819,-35.46285 -17.46678,-36.52145 z" id="path3620" inkscape:connector-curvature="0" />
    </g>
  </g>
</svg>
