<?xml version="1.0" encoding="UTF-8" standalone="no"?>
<svg
   xmlns:dc="http://purl.org/dc/elements/1.1/"
   xmlns:cc="http://creativecommons.org/ns#"
   xmlns:rdf="http://www.w3.org/1999/02/22-rdf-syntax-ns#"
   xmlns:svg="http://www.w3.org/2000/svg"
   xmlns="http://www.w3.org/2000/svg"
   xmlns:sodipodi="http://sodipodi.sourceforge.net/DTD/sodipodi-0.dtd"
   xmlns:inkscape="http://www.inkscape.org/namespaces/inkscape"
   width="210.56499mm"
   height="211.60794mm"
   viewBox="0 0 210.56499 211.60794"
   version="1.1"
   id="svg8"
   inkscape:version="1.0.1 (0767f8302a, 2020-10-17)"
   sodipodi:docname="svg.svg"
   inkscape:export-filename="/home/will/Documents/frankenstein.png"
   inkscape:export-xdpi="25.4"
   inkscape:export-ydpi="25.4">
  <defs
     id="defs2" />
  <sodipodi:namedview
     id="base"
     pagecolor="#ffffff"
     bordercolor="#666666"
     borderopacity="1.0"
     inkscape:pageopacity="0.0"
     inkscape:pageshadow="2"
     inkscape:zoom="0.35"
     inkscape:cx="758.86619"
     inkscape:cy="260.26082"
     inkscape:document-units="mm"
     inkscape:current-layer="layer1"
     inkscape:document-rotation="0"
     showgrid="false"
     fit-margin-top="0"
     fit-margin-left="0"
     fit-margin-right="0"
     fit-margin-bottom="0"
     inkscape:window-width="1647"
     inkscape:window-height="1212"
     inkscape:window-x="856"
     inkscape:window-y="88"
     inkscape:window-maximized="0" />
  <metadata
     id="metadata5">
    <rdf:RDF>
      <cc:Work
         rdf:about="">
        <dc:format>image/svg+xml</dc:format>
        <dc:type
           rdf:resource="http://purl.org/dc/dcmitype/StillImage" />
        <dc:title></dc:title>
      </cc:Work>
    </rdf:RDF>
  </metadata>
  <g
     inkscape:label="Layer 1"
     inkscape:groupmode="layer"
     id="layer1"
     transform="translate(0.14976111,-1.9463145)">
    <g
       id="g1145"
       transform="matrix(1.1807765,0,0,1.1807765,-17.780252,-45.628965)">
      <path
         style="fill:#cbd944;fill-opacity:1;stroke:#000000;stroke-width:0.264583px;stroke-linecap:butt;stroke-linejoin:miter;stroke-opacity:1"
         d="m 16.004296,140.43913 34.598549,54.64225 52.942305,21.24315 54.38233,-23.08649 35.19612,-53.11157 -0.0324,-63.172458 -11.05642,-18.25603 -160.816969,1.249539 -6.15392,18.019911 z"
         id="path1134" />
      <path
         style="fill:#2c4c3d;fill-opacity:1;stroke:none;stroke-width:0.264583px;stroke-linecap:butt;stroke-linejoin:miter;stroke-opacity:1"
         d="M 15.063861,77.967434 27.012034,66.875683 37.86986,77.491653 49.269205,66.512021 60.320501,77.783327 71.764085,66.511288 l 10.294281,9.780998 11.055961,-9.45647 11.268293,10.142455 11.25301,-10.315104 11.12418,10.679647 11.65324,-10.026325 10.37598,10.388016 11.22421,-10.798628 11.49367,10.914626 10.81397,-10.771497 10.77029,9.905008 0.16766,-13.330581 c 0,0 -3.82588,-22.501275 -25.95444,-23.108113 C 145.17583,39.908482 39.976009,40.728 39.976009,40.728 15.218826,42.733854 15.155898,68.304069 15.063861,77.967434 Z"
         id="path1067"
         sodipodi:nodetypes="ccccccccccccccccccscc" />
      <path
         style="fill:#ffffff;fill-opacity:0.246576;stroke:none;stroke-width:0.264583px;stroke-linecap:butt;stroke-linejoin:miter;stroke-opacity:1"
         d="M 187.13115,50.268824 C 182.8544,45.875048 177.05272,40.782651 167.30439,40.51532 145.17583,39.908482 39.976009,40.728 39.976009,40.728 30.523167,41.49388 25.952727,44.589599 21.041645,51.134686 Z"
         id="path1067-3"
         sodipodi:nodetypes="csccc" />
      <path
         style="fill:none;stroke:#89c44b;stroke-width:10.165;stroke-linecap:round;stroke-linejoin:miter;stroke-miterlimit:4;stroke-dasharray:none;stroke-opacity:1"
         d="M 55.940292,114.58036 H 151.75273"
         id="path1084-7" />
      <path
         style="fill:none;stroke:#2d4d40;stroke-width:10.165;stroke-linecap:round;stroke-linejoin:miter;stroke-miterlimit:4;stroke-dasharray:none;stroke-opacity:1"
         d="M 56.086047,108.32813 H 151.89849"
         id="path1084" />
      <path
         style="fill:none;stroke:#2d4d40;stroke-width:21.065;stroke-linecap:round;stroke-linejoin:miter;stroke-miterlimit:4;stroke-dasharray:none;stroke-opacity:1"
         d="m 78.332318,113.47211 v 16.5166"
         id="path1086"
         sodipodi:nodetypes="cc" />
      <path
         style="fill:none;stroke:#2d4d40;stroke-width:21.065;stroke-linecap:round;stroke-linejoin:miter;stroke-miterlimit:4;stroke-dasharray:none;stroke-opacity:1"
         d="m 130.95075,113.7882 v 16.5166"
         id="path1086-6"
         sodipodi:nodetypes="cc" />
      <path
         style="fill:none;stroke:#2d4d40;stroke-width:10.165;stroke-linecap:round;stroke-linejoin:miter;stroke-miterlimit:4;stroke-dasharray:none;stroke-opacity:1"
         d="M 56.567846,176.72837 H 152.38028"
         id="path1084-5" />
      <path
         style="fill:#88c54e;fill-opacity:1;stroke:none;stroke-width:0.264583px;stroke-linecap:butt;stroke-linejoin:miter;stroke-opacity:1"
         d="m 16.004296,140.43913 16.69097,-0.34646 c 0,0 9.004574,2.23028 9.032449,11.79288 0.06407,21.98066 18.521264,59.54613 63.314325,56.78595 26.70827,-1.64578 58.39176,-13.45887 62.25426,-55.10943 1.30827,-14.10753 5.22693,-13.83717 11.11149,-13.72246 l 14.71581,0.28686 c -6.25594,47.49225 -48.82233,78.79636 -87.69647,79.36506 -63.35006,0.92677 -89.531543,-57.91598 -89.422834,-79.0524 z"
         id="path1132"
         sodipodi:nodetypes="ccsssscsc" />
    </g>
  </g>
</svg>
