<?xml version="1.0" encoding="UTF-8" standalone="no"?>
<svg
   xmlns:dc="http://purl.org/dc/elements/1.1/"
   xmlns:cc="http://creativecommons.org/ns#"
   xmlns:rdf="http://www.w3.org/1999/02/22-rdf-syntax-ns#"
   xmlns:svg="http://www.w3.org/2000/svg"
   xmlns="http://www.w3.org/2000/svg"
   xmlns:sodipodi="http://sodipodi.sourceforge.net/DTD/sodipodi-0.dtd"
   xmlns:inkscape="http://www.inkscape.org/namespaces/inkscape"
   version="1.1"
   id="body"
   width="303.56"
   height="425.59"
   viewBox="0 0 0.42161111 0.59109722"
   preserveAspectRatio="none"
   sodipodi:version="0.32"
   inkscape:version="0.47 r22583"
   sodipodi:docname="Presbyterian_Church_USA_Logo_1.svg"
   inkscape:output_extension="org.inkscape.output.svg.inkscape">
  <metadata
     id="metadata86">
    <rdf:RDF>
      <cc:Work
         rdf:about="">
        <dc:format>image/svg+xml</dc:format>
        <dc:type
           rdf:resource="http://purl.org/dc/dcmitype/StillImage" />
        <dc:title>SVG drawing</dc:title>
        <dc:date>2008.11.16</dc:date>
        <dc:creator>
          <cc:Agent>
            <dc:title>Presbyterian Church ( U. S. A. )</dc:title>
          </cc:Agent>
        </dc:creator>
        <dc:source>Frank Trampe adapted this from the Church's published branding .</dc:source>
      </cc:Work>
    </rdf:RDF>
  </metadata>
  <defs
     id="defs84">
    <inkscape:perspective
       sodipodi:type="inkscape:persp3d"
       inkscape:vp_x="0 : 360 : 1"
       inkscape:vp_y="0 : 1000 : 0"
       inkscape:vp_z="720 : 360 : 1"
       inkscape:persp3d-origin="360 : 240 : 1"
       id="perspective88" />
  </defs>
  <sodipodi:namedview
     inkscape:window-height="1000"
     inkscape:window-width="1680"
     inkscape:pageshadow="2"
     inkscape:pageopacity="0.0"
     guidetolerance="10.0"
     gridtolerance="10.0"
     objecttolerance="10.0"
     borderopacity="1.0"
     bordercolor="#666666"
     pagecolor="#ffffff"
     id="base"
     showgrid="false"
     inkscape:zoom="1.3722222"
     inkscape:cx="78.640006"
     inkscape:cy="193.41718"
     inkscape:window-x="-8"
     inkscape:window-y="-8"
     inkscape:current-layer="body"
     inkscape:window-maximized="1" />
  <title
     id="title3">SVG drawing</title>
  <desc
     id="desc5">This was produced by version 4.2 of GNU libplot, a free library for exporting 2-D vector graphics.</desc>
  <rect
     style="fill:none;stroke:none"
     id="background"
     x="-0.28981465"
     y="-0.18814206"
     width="1"
     height="1" />
  <path
     style="font-style:normal;font-variant:normal;font-weight:normal;font-stretch:normal;letter-spacing:normal;word-spacing:normal;text-anchor:start;fill:#000000;fill-opacity:1;stroke:#001df3;stroke-width:0;stroke-linecap:butt;stroke-linejoin:miter;stroke-miterlimit:10.43299961;stroke-opacity:1;stroke-dasharray:none;stroke-dashoffset:0"
     id="path9"
     d="m 0.14537156,0.00679842 -1.7361e-4,0.007448 -2.9514e-4,0.0075 -3.993e-4,0.007552 -4.8611e-4,0.007604 -0.001146,0.0152603 -0.001163,0.0153471 -5.3819e-4,0.007674 -4.6875e-4,0.007656 -3.6458e-4,0.007656 -2.6041e-4,0.007621 -1.2153e-4,0.007587 5.208e-5,0.007552 2.6042e-4,0.0075 4.6875e-4,0.007465 c 0.001198,0.0153818 0.0138888,0.0228471 0.0252429,0.0249304 0.0102951,2.9514e-4 0.0207464,1.3889e-4 0.02717,0.005521 0.0173263,0.0119617 0.007326,0.0137499 0.0201735,0.0262846 0.01,-0.007014 0.0155207,-0.0195658 0.0199999,-0.025538 0.006128,-0.004931 0.0232985,-0.00224 0.0312151,-0.004635 0.004931,-0.001337 0.0201561,-0.004913 0.0209026,-0.0158159 0.002986,-0.0409199 -0.001493,-0.0879682 -0.001493,-0.13232554 -0.019861,6.0763e-4 -0.0306074,0.00658 -0.0361282,0.0218054 -0.006285,0.0170312 -0.00434,0.041215 8.8541e-4,0.062135 0.003142,0.012986 0.003889,0.0179166 0.003889,0.0273262 0,0.019861 -0.0118055,0.0243401 -0.0170311,0.0209026 0.001042,-0.0134374 0.002847,-0.0253818 -5.9028e-4,-0.0407636 -0.004184,-0.0107465 -0.007014,-0.0221005 -0.0106076,-0.03809 -0.004635,-0.0188193 0.007031,-0.0427081 0.0162846,-0.0573434 -0.0104513,0 -0.0264408,0 -0.0367532,0 0.002101,0.0207464 0.003299,0.0365796 0.001806,0.0530205 -0.002847,0.01717 -0.004028,0.0330033 -0.008663,0.0421178 -0.003281,0.0119444 -0.003889,0.0303123 -0.002691,0.041649 -0.0135937,-0.001042 -0.0200172,-0.006562 -0.0186631,-0.0159721 -0.00434,-0.025538 0.004184,-0.0371873 0.008646,-0.0639058 -2.9514e-4,-0.006736 -8.8542e-4,-0.0277776 -0.005955,-0.0373435 -0.007326,-0.015243 -0.0239061,-0.0121006 -0.0330033,-0.0153818 z" />
  <path
     style="font-style:normal;font-variant:normal;font-weight:normal;font-stretch:normal;letter-spacing:normal;word-spacing:normal;text-anchor:start;fill:#000000;fill-opacity:1;stroke:#001df3;stroke-width:0;stroke-linecap:butt;stroke-linejoin:miter;stroke-miterlimit:10.43299961;stroke-opacity:1;stroke-dasharray:none;stroke-dashoffset:0"
     id="path13"
     d="m 0.03058063,0.18143272 0.008542,2.0833e-4 0.008524,5.208e-5 0.008524,-6.944e-5 0.008524,-1.9097e-4 0.008524,-2.9514e-4 0.00849,-3.8194e-4 0.0169791,-0.001024 0.016927,-0.001267 0.0168749,-0.001424 0.0168055,-0.001476 0.016736,-0.001458 c 0.024045,-2.9513e-4 0.0364407,0.011059 0.0467358,0.0250867 0.0104513,-0.0161284 0.0292706,-0.0256769 0.0461455,-0.0250867 0.0460066,0.002691 0.0882807,0.005816 0.13621441,0.007326 0,0.0121006 0,0.0222394 0,0.0344963 -0.0268922,-0.002083 -0.0685586,-0.003437 -0.10321115,-0.008507 -0.0379164,-0.005538 -0.0685412,-0.002101 -0.0754162,0.0277776 l -0.008507,1.3889e-4 c -0.008056,-0.0563017 -0.11543329,-0.0216492 -0.17741206,-0.0194096 0,-0.0123957 1.3889e-4,-0.0221005 0,-0.0344963 z" />
  <path
     style="font-style:normal;font-variant:normal;font-weight:normal;font-stretch:normal;letter-spacing:normal;word-spacing:normal;text-anchor:start;fill:#000000;fill-opacity:1;stroke:#001df3;stroke-width:0;stroke-linecap:butt;stroke-linejoin:miter;stroke-miterlimit:10.43299961;stroke-opacity:1;stroke-dasharray:none;stroke-dashoffset:0"
     id="path17"
     d="m 0.22880853,0.28459178 0.001146,-2.9514e-4 0.001128,-3.2986e-4 0.001128,-3.6458e-4 0.001111,-3.8194e-4 0.001094,-4.3402e-4 0.001094,-4.5139e-4 0.001076,-4.8611e-4 0.001076,-5.2083e-4 0.001042,-5.5555e-4 0.001042,-5.9027e-4 0.001042,-6.0764e-4 0.001007,-6.5972e-4 0.001007,-6.9444e-4 9.8958e-4,-7.118e-4 9.7222e-4,-7.6388e-4 9.5485e-4,-7.8125e-4 9.375e-4,-8.1597e-4 9.3749e-4,-8.6805e-4 9.2013e-4,-8.8541e-4 8.8541e-4,-9.2013e-4 8.8541e-4,-9.7221e-4 8.6805e-4,-9.8958e-4 8.5069e-4,-0.001024 8.3333e-4,-0.001076 7.9861e-4,-0.001094 7.986e-4,-0.001128 7.8125e-4,-0.001181 7.6388e-4,-0.001215 7.2916e-4,-0.001233 7.2917e-4,-0.001285 6.9444e-4,-0.001319 6.9444e-4,-0.001354 0.13619704,0 0,-0.0300172 -0.15187403,0 c -0.005243,0.0125346 -0.0106076,0.0265797 -0.0306248,0.0267359 -0.0200172,1.3889e-4 -0.0258332,-0.0142013 -0.0292707,-0.0267359 l -0.1527768,-1.5625e-4 1.5625e-4,0.0301734 0.13545052,0 c 0.00717,0.0131423 0.0179166,0.0215103 0.0309026,0.0259894 l -0.004931,0.26911286 -0.0304512,0 0.004323,-0.27314061 -0.13545053,0 1.5625e-4,0.0309026 0.1069264,0 -0.0137499,0.27374825 0.17742942,1.5624e-4 -0.0137499,-0.27390449 0.10753403,0 0,-0.0309026 -0.13619704,0 0.004931,0.27329686 -0.0312151,0 -0.003733,-0.26926911 z" />
  <path
     style="font-style:normal;font-variant:normal;font-weight:normal;font-stretch:normal;letter-spacing:normal;word-spacing:normal;text-anchor:start;fill:#000000;fill-opacity:1;stroke:#ff1923;stroke-width:0;stroke-linecap:butt;stroke-linejoin:miter;stroke-miterlimit:10.43299961;stroke-opacity:1;stroke-dasharray:none;stroke-dashoffset:0"
     id="path21"
     d="m 0.10396558,0.3353727 -0.004583,0.004479 -0.004653,0.00467 -0.004653,0.004861 -0.004601,0.005069 -0.004531,0.00526 -0.004375,0.005434 -0.004201,0.005642 -0.002014,0.002882 -0.001962,0.002951 -0.001875,0.002969 -0.001806,0.003038 -0.001719,0.003073 -0.001632,0.003125 -0.001545,0.003177 -0.001424,0.003229 -0.001337,0.003264 -0.001215,0.003316 -0.001094,0.003351 -9.7221e-4,0.003403 -8.5069e-4,0.003455 -6.9444e-4,0.003507 -5.7292e-4,0.003542 -3.993e-4,0.003594 -2.6041e-4,0.003628 -1.0417e-4,0.003681 c -1.3889e-4,0.0344616 0.0292706,0.0630204 0.0297047,0.0935932 1.3889e-4,0.0160069 -0.0136978,0.0351907 -0.020052,0.0408157 0.005486,-0.0187499 -0.006632,-0.0413886 -0.0223436,-0.0667704 -0.0135589,-0.0219269 -2.9514e-4,-0.0536455 0.00375,-0.0710933 -0.015868,0.0181596 -0.0385067,0.0438365 -0.0390796,0.0791662 -5.9027e-4,0.0343227 0.0310067,0.0552427 0.0369095,0.0796002 0.009236,-7.118e-4 0.0197742,2.9514e-4 0.0289929,0 0.0206249,-0.0207638 0.0343227,-0.0464233 0.0373435,-0.0829161 0.003177,-0.0366317 -0.0123957,-0.0588364 -0.0152777,-0.0847911 -0.002309,-0.0199131 -0.002309,-0.0432636 0.008646,-0.0565448 0.005486,-0.006632 0.00592,-0.0191665 0.004479,-0.0256596 z" />
  <path
     style="font-style:normal;font-variant:normal;font-weight:normal;font-stretch:normal;letter-spacing:normal;word-spacing:normal;text-anchor:start;fill:#000000;fill-opacity:1;stroke:#ff1923;stroke-width:0;stroke-linecap:butt;stroke-linejoin:miter;stroke-miterlimit:10.43299961;stroke-opacity:1;stroke-dasharray:none;stroke-dashoffset:0"
     id="path25"
     d="m 0.31920725,0.33512965 0.004583,0.004479 0.004635,0.00467 0.004653,0.004878 0.004618,0.005069 0.004514,0.00526 0.004392,0.005451 0.004201,0.005642 0.002014,0.002899 0.001944,0.002934 0.001892,0.002986 0.001806,0.003038 0.001719,0.00309 0.001632,0.003125 0.001528,0.003177 0.001441,0.003212 0.001337,0.003264 0.001215,0.003316 0.001094,0.003351 9.7222e-4,0.003403 8.5069e-4,0.003455 6.9443e-4,0.00349 5.7292e-4,0.003524 3.993e-4,0.003594 2.6042e-4,0.003611 1.0416e-4,0.003681 c 0,0.0344616 -0.023663,0.0559545 -0.0297047,0.0856592 -0.004618,0.0222047 0.009792,0.0478643 0.0191665,0.0493226 -0.005469,-0.0187499 0.009531,-0.0421178 0.0249478,-0.0673607 0.0134201,-0.0216318 -0.002292,-0.0503122 -0.006337,-0.0677773 0.0158679,0.018177 0.0393574,0.0406768 0.0399477,0.0758676 4.3402e-4,0.0343227 -0.0310067,0.0552253 -0.0369268,0.0796002 -0.009219,-7.2917e-4 -0.0193228,2.9513e-4 -0.0285588,0 -0.0206075,-0.0207638 -0.0347394,-0.0464407 -0.0377775,-0.0829161 -0.003177,-0.0366317 0.0123958,-0.0588364 0.015295,-0.0848085 0.002309,-0.0198957 0.002309,-0.0432636 -0.008663,-0.0565274 -0.005469,-0.006632 -0.005903,-0.0191839 -0.004462,-0.0256596 z" />
</svg>
