<?xml version="1.0" encoding="UTF-8" standalone="no"?>
<!-- Created with Inkscape (http://www.inkscape.org/) -->
<svg id="svg12529" xmlns:rdf="http://www.w3.org/1999/02/22-rdf-syntax-ns#" xmlns="http://www.w3.org/2000/svg" height="412" width="412" version="1.1" xmlns:cc="http://creativecommons.org/ns#" xmlns:dc="http://purl.org/dc/elements/1.1/" viewBox="0 0 412.00002 412.00001">
 <metadata id="metadata12534">
  <rdf:RDF>
   <cc:Work rdf:about="">
    <dc:format>image/svg+xml</dc:format>
    <dc:type rdf:resource="http://purl.org/dc/dcmitype/StillImage"/>
    <dc:title/>
   </cc:Work>
  </rdf:RDF>
 </metadata>
 <g id="layer4" transform="translate(-4 326.74)" stroke="#000">
  <circle id="path20135" stroke-linejoin="round" cx="218.31" transform="translate(-8.3098 -953.45)" cy="832.71" r="200" stroke-width="12" fill="none"/>
  <path id="path20177" d="m118.56 40.461 92.836-237.5-58.211-22.754 16.383-41.912 58.211 22.754 22.754-58.211 41.912 16.383-22.754 58.211 58.211 22.754-16.383 41.912-58.211-22.754-92.836 237.5z" fill-rule="evenodd" stroke-width="13" fill="#fff"/>
 </g>
 <g id="layer5" transform="translate(-4 326.74)">
  <path id="path20180" d="m194-162.41a10.667 10.667 0 0 0 -10.666 10.666 10.667 10.667 0 0 0 6.0781 9.6152c-0.19991 11.464-1.9752 29.146-11.045 29.576-9.0034 0.42669-12.354-16.479-13.592-27.699a10.667 10.667 0 0 0 5.2246 -9.1582 10.667 10.667 0 0 0 -10.666 -10.668 10.667 10.667 0 0 0 -10.668 10.668 10.667 10.667 0 0 0 7.6465 10.223c1.6062 11.488 2.5856 29.336-6.459 31.301-9.0446 1.9644-15.561-14.685-18.867-25.807a10.667 10.667 0 0 0 3.6797 -8.0508 10.667 10.667 0 0 0 -10.66 -10.67 10.667 10.667 0 0 0 -10.666 10.666 10.667 10.667 0 0 0 8.3848 10.406l17.693 70.594v12.799a54.588 14.8 0 0 0 54.59 14.804 54.588 14.8 0 0 0 54.59 -14.8l-0.3125-12.799 17.676-70.52a10.667 10.667 0 0 0 8.7148 -10.48 10.667 10.667 0 0 0 -10.66 -10.67 10.667 10.667 0 0 0 -10.666 10.666 10.667 10.667 0 0 0 3.4902 7.875c-3.1988 11.098-9.5921 27.889-18.678 25.982-9.0324-1.8956-8.209-19.719-6.6992-31.23a10.667 10.667 0 0 0 7.8867 -10.293 10.667 10.667 0 0 0 -10.668 -10.668 10.667 10.667 0 0 0 -10.66 10.67 10.667 10.667 0 0 0 4.9023 8.9609c-1.2575 11.227-4.6498 28.349-13.689 27.863-9.0336-0.48514-10.633-18.061-10.721-29.498a10.667 10.667 0 0 0 6.1738 -9.6602 10.667 10.667 0 0 0 -10.66 -10.67z" fill-rule="evenodd" stroke="#000" stroke-width="7" fill="#fff"/>
 </g>
 <g id="layer6" transform="translate(-4 326.74)" stroke="#000" stroke-width="7">
  <path id="path20248" d="m192.67-57.762a41.679 11.487 0 0 0 -37.756 6.6523 41.679 11.487 0 0 0 0.87304 0.45703l-35.828 91.66 39.117 15.289 39.434-100.88a41.679 11.487 0 0 0 31.918 -6.5254 41.679 11.487 0 0 0 -37.758 -6.6523z" fill-rule="evenodd" fill="#fff"/>
  <path id="path20302" d="m198.35-44.173 5.5963-14.317" fill="none"/>
 </g>
</svg>
