<?xml version="1.0" encoding="UTF-8"?>
<svg xmlns="http://www.w3.org/2000/svg" viewBox="0 0 502 164">
<g fill="#FFF" stroke="#000" stroke-width="8">
<path d="M5,5c-.2,.9-.4,1.9-.4,2.7 9.3,32.6 35.6,57.7 68,74.4 32.6,16.8 71,24.9 101.6,23.7 5.7,.1 7.3,5.6 8.2,10.3 9.1,4.9 21.6,5.3 31.9,6 69.7,3.3 19.2-42.4-5.8-70.8-5.6-5-10.6-10.6-16.4-15.2-11-8.1-25-12.1-40-13.9-19.1-.7-38.2-.3-57.2-.6 -29.5-.8-62.3-8.5-89.9-16.6zM497,5c.2,.9 0.4,1.9 0.4,2.7-9.3,32.6-35.6,57.7-68,74.4-32.6,16.8-71,24.9-101.6,23.7-5.7,.1-7.3,5.6-8.2,10.3-9.1,4.9-21.6,5.3-31.9,6-69.7,3.3-19.2-42.4 5.8-70.8 5.6-5 10.6-10.6 16.4-15.2 11-8.1 25-12.1 40-13.9 19.1-.7 38.2-.3 57.2-.6 29.5-.8 62.3-8.5 89.9-16.6z"/>
<path d="M273,53c-6.1,0-12.9,2.1-20.4,7.4l-2.3,1.8-2.4-1.8c-7.5-5.4-14.3-7.3-20.3-7.3-9.1,0-17,4.5-22.7,9.9-2.8,2.7-5.1,5.7-6.5,8.3-1.5,2.6-2.1,4.9-2.1,5.4-.4,7.1-.7,17.1 7,26.1l47,54.5 47-54.5c7.7-9 7.4-18.9 7-26.1 0-.7-1.2-4.4-3.8-8.1-2.6-3.7-6.5-7.6-11.2-10.6-4.7-3-10.1-5.1-16.2-5.1zM250,80v46m.4,0V80"/>
</g></svg>