<?xml version="1.0" encoding="utf-8"?>
<!DOCTYPE svg PUBLIC "-//W3C//DTD SVG 1.1//EN" 
  "http://www.w3.org/Graphics/SVG/1.1/DTD/svg11.dtd">
<svg  version="1.1" xmlns="http://www.w3.org/2000/svg"
 xmlns:a="http://ns.adobe.com/AdobeSVGViewerExtensions/3.0/"
 xmlns:xlink="http://www.w3.org/1999/xlink"
 width="100%" height="100%" viewBox="35 35 167 130"
  a:scriptImplementation="Adobe">
  <defs>
    <style type="text/css">
      rect {
        fill: none;
        stroke: black;
      }
      text {
        font-size: 10px;
        text-anchor: middle;
      }
      line {
        fill: none;
        stroke: black;
        stroke-width: 1px;
        stroke-dasharray: 5 3;
      }
      .grid {
        stroke-opacity: .1;
      }
      .quadrant {
        fill: green;
      }
    </style>
  </defs>
  <line class="grid" x1="0" y1="50" x2="200" y2="50" />
  <line class="grid" x1="0" y1="150" x2="200" y2="150" />
  <line class="grid" x1="50" y1="0" x2="50" y2="200" />
  <line class="grid" x1="150" y1="0" x2="150" y2="200" />
  <rect x="50" y="50" width="100" height="100" />
  <circle cx="50" cy="50" r="1.5" />
  <text x="50" y="47" style="text-anchor: start">
    <tspan>&lt;R</tspan><tspan dy="2" style="font-size: 50%">t</tspan><tspan dy="-2">&gt;</tspan>
  </text>
  <circle cx="150" cy="150" r="1.5" />
  <text x="149" y="147" style="text-anchor: end">
    <tspan>&lt;R</tspan><tspan dy="2" style="font-size: 50%">b</tspan><tspan dy="-2">&gt;</tspan>
  </text>
  <circle cx="70" cy="80" r="1.5" />
  <text x="70" y="75">
    <tspan>&lt;P</tspan><tspan dy="2" dx="-2" style="font-size: 50%">o</tspan><tspan dy="-2">&gt;</tspan>
  </text>
  <line x1="70" y1="80" x2="190" y2="140" />
  <circle cx="190" cy="140" r="1.5" />
  <text x="190" y="135">
    <tspan>&lt;P</tspan><tspan dy="2" dx="-2" style="font-size: 50%">f</tspan><tspan dy="-2" dx="1">&gt;</tspan>
  </text>
  <circle cx="150" cy="120" r="1.5" />
  <text x="150.5" y="120" style="text-anchor: start">
    <tspan>&lt;P</tspan><tspan dy="2" dx="-2" style="font-size: 50%">d</tspan><tspan dy="-2">&gt;</tspan>
  </text>
  <text class="quadrant" x="100" y="45">1</text>
  <text class="quadrant" x="159" y="45">2</text>
  <text class="quadrant" x="159" y="100">3</text>
  <text class="quadrant" x="159" y="163">4</text>
  <text class="quadrant" x="100" y="163">5</text>
  <text class="quadrant" x="41" y="163">6</text>
  <text class="quadrant" x="41" y="100">7</text>
  <text class="quadrant" x="41" y="45">8</text>
</svg>
