<?xml version="1.0" standalone="no"?>
<!--Created with Inkscape (http://www.inkscape.org/)-->
<svg xmlns="http://www.w3.org/2000/svg" xmlns:xlink="http://www.w3.org/1999/xlink" viewBox="0 0 48 48">
  <defs>
    <linearGradient id="i">
      <stop offset="0" stop-color="white" stop-opacity="1"/>
      <stop offset="1" stop-color="white" stop-opacity="0"/>
    </linearGradient>
    <linearGradient id="h">
      <stop offset="0" stop-color="white" stop-opacity="1"/>
      <stop offset="1" stop-color="white" stop-opacity="0"/>
    </linearGradient>
    <linearGradient id="g">
      <stop offset="0" stop-color="white" stop-opacity="1"/>
      <stop offset="1" stop-color="white" stop-opacity=".14901961"/>
    </linearGradient>
    <linearGradient id="f">
      <stop offset="0" stop-color="white" stop-opacity="1"/>
      <stop offset="1" stop-color="white" stop-opacity="0"/>
    </linearGradient>
    <linearGradient id="d">
      <stop offset="0" stop-color="#000" stop-opacity=".27599999"/>
      <stop offset="1" stop-color="#000" stop-opacity="0"/>
    </linearGradient>
    <linearGradient id="c">
      <stop offset="0" stop-color="#000" stop-opacity=".68400002"/>
      <stop offset="1" stop-color="#000" stop-opacity="0"/>
    </linearGradient>
    <linearGradient id="a">
      <stop offset="0" stop-color="#fff" stop-opacity=".68800002"/>
      <stop offset="1" stop-color="#fff" stop-opacity="0"/>
    </linearGradient>
    <linearGradient id="b">
      <stop offset="0" stop-color="#8c7d50" stop-opacity="1"/>
      <stop offset="1.0000000" stop-color="#5a5033" stop-opacity="1"/>
    </linearGradient>
    <linearGradient id="e">
      <stop offset="0.0000000" stop-color="#979797" stop-opacity="1"/>
      <stop offset="1.0000000" stop-color="#323232" stop-opacity="1"/>
    </linearGradient>
    <linearGradient xlink:href="#a" id="n" gradientUnits="userSpaceOnUse" gradientTransform="matrix(0.356177,0,0,0.351952,0.27762,6.28155)" x1="36.841328" y1="-17.476013" x2="75.335793" y2="67.306274"/>
    <linearGradient xlink:href="#b" id="l" gradientUnits="userSpaceOnUse" x1="51.189674" y1="48.993095" x2="107.53319" y2="101.89346" gradientTransform="matrix(0.377291,0,0,0.395357,-1.819008,3.461784)"/>
    <linearGradient xlink:href="#c" id="k" x1="62.819187" y1="179.01108" x2="70.855949" y2="84.478859" gradientUnits="userSpaceOnUse" gradientTransform="matrix(0.374848,0,0,0.374848,-0.286712,1.966964)"/>
    <radialGradient xlink:href="#d" id="j" cx="60.457565" cy="114.30258" fx="60.457565" fy="114.30258" r="37.785976" gradientTransform="matrix(1,0,0,0.1125,-1.366962e-15,101.4435)" gradientUnits="userSpaceOnUse"/>
    <radialGradient xlink:href="#e" id="o" gradientUnits="userSpaceOnUse" gradientTransform="matrix(0.867141,0.658284,-0.450246,0.607646,-52.76579,-72.85818)" cx="96.569389" cy="62.146378" fx="96.569389" fy="62.146378" r="6.1402216"/>
    <linearGradient xlink:href="#f" id="p" x1="-0.065793492" y1="23.292086" x2="3.0857143" y2="35.053673" gradientUnits="userSpaceOnUse"/>
    <linearGradient xlink:href="#g" id="m" x1="18.685715" y1="9.8570347" x2="18.685715" y2="44.029774" gradientUnits="userSpaceOnUse"/>
    <linearGradient xlink:href="#h" id="q" x1="34.114285" y1="20.228571" x2="38.475395" y2="21.4695" gradientUnits="userSpaceOnUse"/>
    <linearGradient xlink:href="#i" id="r" x1="25.114286" y1="43.028572" x2="23.478807" y2="39.503975" gradientUnits="userSpaceOnUse"/>
  </defs>
  <metadata/>
  <path style="marker:none" d="M 98.243542 114.30258 A 37.785976 4.2509227 0 1 1  22.671589,114.30258 A 37.785976 4.2509227 0 1 1  98.243542 114.30258 z" transform="matrix(0.405305,0,0,0.687222,-3.27886,-33.47258)" opacity="1" color="#000" fill="url(#j)" fill-opacity="1" fill-rule="evenodd" stroke="none" stroke-width="3.75" stroke-linecap="round" stroke-linejoin="round" marker-start="none" marker-mid="none" marker-end="none" stroke-miterlimit="4" stroke-dasharray="none" stroke-dashoffset="0" stroke-opacity="1" visibility="visible" display="inline" overflow="visible"/>
  <path d="M 15.768246,33.978184 C 27.672441,39.632984 37.359289,36.934754 47.999945,33.633734 C 46.530116,36.547244 45.3441,37.499114 39.679751,39.252654 C 32.443535,42.898124 28.227958,45.098204 18.100205,45.269664 C 5.2511113,45.395944 4.413577,41.900644 4.5606087,40.006144 C 19.268542,41.010804 14.28154,37.365324 15.768246,33.978184 z " fill="url(#k)" fill-opacity="1" fill-rule="evenodd" stroke="none" stroke-width="3.82812738" stroke-linecap="round" stroke-linejoin="round" stroke-miterlimit="4" stroke-dasharray="none" stroke-opacity="1"/>
  <path d="M 10.152938,11.506194 C 25.521746,28.721593 33.37513,20.575269 42.149014,10.499991 C 42.9892,19.010792 42.553282,21.791329 38.248103,26.913683 C 33.867085,37.562666 31.375625,43.989406 21.318381,44.490254 C 8.4860962,44.859155 4.8603154,34.648867 3.4999987,29.114749 C 19.103638,32.049508 11.353216,21.400523 10.152938,11.506194 z " fill="url(#l)" fill-opacity="1" fill-rule="evenodd" stroke="#645a31" stroke-width=".99999952" stroke-linecap="round" stroke-linejoin="round" stroke-miterlimit="4" stroke-dasharray="none" stroke-opacity="1"/>
  <path d="M 41.780101,12.581558 C 41.780101,12.581558 34.456291,22.398994 35.082258,24.616887 C 35.708224,26.834774 37.993004,26.410774 37.993004,26.410774 C 42.213366,21.524674 42.183603,18.974947 41.780101,12.581558 z " fill="#000" fill-opacity=".26799999" fill-rule="evenodd" stroke="none" stroke-width=".25pt" stroke-linecap="butt" stroke-linejoin="miter" stroke-opacity="1"/>
  <path d="M 11.497475,13.904153 C 24.96385,28.906879 33.614496,21.325465 41.42415,12.78571 C 41.192676,20.624446 41.550543,22.298564 36.609,26.862459 C 32.452651,36.885029 30.603244,43.019439 21.061758,43.490825 C 9.8303981,44.095169 5.7905555,34.228345 4.4999989,29.019764 C 19.376278,31.813102 13.983094,23.793701 11.497475,13.904153 z " fill="none" fill-opacity="1" fill-rule="evenodd" stroke="url(#m)" stroke-width=".99999911" stroke-linecap="round" stroke-linejoin="round" stroke-miterlimit="4" stroke-dasharray="none" stroke-opacity="1" opacity=".54811715"/>
  <path transform="matrix(1.009906,0,0,1.052425,-97.20406,-35.93186)" style="marker:none" d="M 114.06642,59.630997 C 114.06642,62.042687 112.05621,64 109.57934,64 C 107.10247,64 105.09225,62.042687 105.09225,59.630997 C 105.09225,57.219307 107.10247,55.261993 109.57934,55.261993 C 112.05621,55.261993 114.06642,57.219307 114.06642,59.630997 z " color="#000" fill="#fff" fill-opacity="1" fill-rule="evenodd" stroke="#d4d4d4" stroke-width=".96998262" stroke-linecap="round" stroke-linejoin="round" stroke-miterlimit="4" stroke-dashoffset="0" stroke-opacity="1" marker-start="none" marker-mid="none" marker-end="none" visibility="visible" display="inline" overflow="visible"/>
  <path transform="matrix(1.211297,0,0,1.262295,-110.2094,-46.85588)" style="marker:none" d="M 114.06642,59.630997 C 114.06642,62.042687 112.05621,64 109.57934,64 C 107.10247,64 105.09225,62.042687 105.09225,59.630997 C 105.09225,57.219307 107.10247,55.261993 109.57934,55.261993 C 112.05621,55.261993 114.06642,57.219307 114.06642,59.630997 z " color="#000" fill="#fff" fill-opacity="1" fill-rule="evenodd" stroke="#bfbfbf" stroke-width=".80871266" stroke-linecap="round" stroke-linejoin="round" stroke-miterlimit="4" stroke-dashoffset="0" stroke-opacity="1" marker-start="none" marker-mid="none" marker-end="none" visibility="visible" display="inline" overflow="visible"/>
  <path transform="matrix(0.41234,0,0,0.429701,-21.81696,4.725804)" style="marker:none" d="M 114.06642,59.630997 C 114.06642,62.042687 112.05621,64 109.57934,64 C 107.10247,64 105.09225,62.042687 105.09225,59.630997 C 105.09225,57.219307 107.10247,55.261993 109.57934,55.261993 C 112.05621,55.261993 114.06642,57.219307 114.06642,59.630997 z " color="#000" fill="#000" fill-opacity="1" fill-rule="evenodd" stroke="none" stroke-width=".5" stroke-linecap="round" stroke-linejoin="round" stroke-miterlimit="4" stroke-dashoffset="0" stroke-opacity="1" marker-start="none" marker-mid="none" marker-end="none" visibility="visible" display="inline" overflow="visible"/>
  <path style="marker:none" d="M 114.06642 59.630997 A 4.4870849 4.3690038 0 1 1  105.09225,59.630997 A 4.4870849 4.3690038 0 1 1  114.06642 59.630997 z" transform="matrix(0.319394,0,0,0.332841,-20.5085,8.964974)" opacity="1" color="#000" fill="#000" fill-opacity="1" fill-rule="evenodd" stroke="none" stroke-width=".5" stroke-linecap="round" stroke-linejoin="round" marker-start="none" marker-mid="none" marker-end="none" stroke-miterlimit="4" stroke-dasharray="none" stroke-dashoffset="0" stroke-opacity="1" visibility="visible" display="inline" overflow="visible"/>
  <path d="M 11,40.858181 C 16.281216,39.33091 23.852334,39.66909 30,35 C 27.771987,39.712728 25.172639,43.083646 18.241043,44 C 15.218784,43.530915 12.62975,42.374545 11,40.858181 z " fill="#2e2e2e" fill-opacity="1" fill-rule="evenodd" stroke="none" stroke-width=".25pt" stroke-linecap="butt" stroke-linejoin="miter" stroke-opacity="1"/>
  <path d="M 17.035915,43.248404 C 17.641017,42.193814 18.814944,41.734884 19.495683,41.642474 C 20.20721,41.545884 20.351171,41.588114 20.606774,41.675084 C 20.674588,41.414164 20.890412,40.990894 21.717866,40.631374 C 22.518581,40.283474 24.722506,39.957304 25.41107,40.957534 C 23.700094,42.175204 21.650369,42.999494 18.311879,43.499614 C 17.871803,43.442784 17.442794,43.357124 17.035915,43.248404 z " fill="#c40000" fill-opacity="1" fill-rule="evenodd" stroke="none" stroke-width=".25pt" stroke-linecap="butt" stroke-linejoin="miter" stroke-opacity="1"/>
  <path d="M 11.417738,13.442786 C 26.368481,28.554845 34.143481,21.139154 41.785038,12.547052 C 42.149635,20.209193 41.566682,22.684463 38.102437,27.158734 C 28.667316,22.259204 11.125382,41.940894 5.298955,29.118154 C 20.033559,31.732814 12.971132,22.460993 11.417738,13.442786 z " fill="url(#n)" fill-opacity="1" fill-rule="evenodd" stroke="none" stroke-width="3.75" stroke-linecap="round" stroke-linejoin="round" stroke-miterlimit="4" stroke-dasharray="none" stroke-opacity="1"/>
  <path style="marker:none" d="M 11.324439,34.542007 C 9.7983747,36.601562 6.1744897,36.462271 3.2353952,34.231078 C 0.29630411,31.999888 -0.85050018,28.517545 0.67556402,26.45799 C 2.2016276,24.398435 5.8255204,24.537733 8.7646114,26.768923 C 11.703706,29.000116 12.850503,32.482452 11.324439,34.542007 z " color="#000" fill="url(#o)" fill-opacity="1" fill-rule="evenodd" stroke="none" stroke-width="3" stroke-linecap="round" stroke-linejoin="round" marker-start="none" marker-mid="none" marker-end="none" stroke-miterlimit="4" stroke-dashoffset="0" stroke-opacity="1" visibility="visible" display="inline" overflow="visible"/>
  <path style="marker:none" d="M 9.9933276,33.439656 C 8.8487793,34.937517 6.1308651,34.836214 3.9265438,33.213525 C 1.7222251,31.590839 0.86212176,29.058221 2.0066701,27.560361 C 3.151218,26.062501 5.8691381,26.163809 8.0734567,27.786495 C 10.277778,29.409183 11.137876,31.941795 9.9933276,33.439656 z " color="#000" fill="none" fill-opacity="1" fill-rule="evenodd" stroke="url(#p)" stroke-width="1.00000024" stroke-linecap="round" stroke-linejoin="round" marker-start="none" marker-mid="none" marker-end="none" stroke-miterlimit="4" stroke-dasharray="none" stroke-dashoffset="0" stroke-opacity="1" visibility="visible" display="inline" overflow="visible"/>
  <path d="M 41.780101,12.581558 C 41.780101,12.581558 34.456291,22.398994 35.082258,24.616887 C 35.708224,26.834774 37.993004,26.410774 37.993004,26.410774 C 42.213366,21.524674 42.183603,18.974947 41.780101,12.581558 z " fill="none" fill-opacity="1" fill-rule="evenodd" stroke="url(#q)" stroke-width="1" stroke-linecap="butt" stroke-linejoin="miter" stroke-opacity="1" stroke-miterlimit="4" stroke-dasharray="none" opacity=".77824268"/>
  <path d="M 11,40.858181 C 16.281216,39.33091 23.852334,39.66909 30,35 C 27.771987,39.712728 25.172639,43.083646 18.241043,44 C 15.218784,43.530915 12.62975,42.374545 11,40.858181 z " fill="none" fill-opacity="1" fill-rule="evenodd" stroke="url(#r)" stroke-width="1" stroke-linecap="butt" stroke-linejoin="miter" stroke-opacity="1" stroke-miterlimit="4" stroke-dasharray="none"/>
</svg>
