<?xml version="1.0" standalone="no"?>
<!--Created with Inkscape (http://www.inkscape.org/)-->
<svg xmlns="http://www.w3.org/2000/svg" xmlns:xlink="http://www.w3.org/1999/xlink" viewBox="0 0 48 48">
  <defs>
    <linearGradient id="h">
      <stop offset="0" stop-color="#ffa740" stop-opacity="1"/>
      <stop offset="1" stop-color="#bf731a" stop-opacity="1"/>
    </linearGradient>
    <linearGradient id="d">
      <stop offset="0" stop-color="#ffa740" stop-opacity="1"/>
      <stop offset="1" stop-color="#ca6b18" stop-opacity="1"/>
    </linearGradient>
    <linearGradient id="g">
      <stop offset="0" stop-color="white" stop-opacity="1"/>
      <stop offset="1" stop-color="white" stop-opacity=".21960784"/>
    </linearGradient>
    <linearGradient id="b">
      <stop offset="0" stop-color="#fff" stop-opacity="1"/>
      <stop offset="1" stop-color="#fff" stop-opacity="0"/>
    </linearGradient>
    <linearGradient id="a">
      <stop offset="0.00000000" stop-color="#000" stop-opacity=".32291666"/>
      <stop offset="1" stop-color="#000" stop-opacity="0"/>
    </linearGradient>
    <linearGradient id="f">
      <stop offset="0.00000000" stop-color="#000" stop-opacity=".73958331"/>
      <stop offset="1" stop-color="#000" stop-opacity="0"/>
    </linearGradient>
    <linearGradient id="c">
      <stop offset="0.00000000" stop-color="#fff" stop-opacity=".61458331"/>
      <stop offset="1" stop-color="#fff" stop-opacity="0"/>
    </linearGradient>
    <linearGradient id="e">
      <stop offset="0" stop-color="#ae5b00" stop-opacity="1"/>
      <stop offset="1" stop-color="#ae5b00" stop-opacity="0"/>
    </linearGradient>
    <radialGradient xlink:href="#a" id="o" gradientUnits="userSpaceOnUse" gradientTransform="scale(2.110067,0.473919)" cx="24.734711" cy="210.29031" fx="24.734711" fy="210.29031" r="20.929369"/>
    <linearGradient xlink:href="#b" id="t" gradientUnits="userSpaceOnUse" gradientTransform="matrix(0.867558,0,0,0.289185,-2.059701,-6.499992)" x1="34.211731" y1="28.907038" x2="37.014332" y2="52.198448"/>
    <linearGradient xlink:href="#c" id="s" gradientUnits="userSpaceOnUse" gradientTransform="matrix(0.624329,0,0,0.345144,-2.314271,-2.12809)" x1="30.223124" y1="28.559177" x2="30.810305" y2="95.25663"/>
    <linearGradient xlink:href="#d" id="r" gradientUnits="userSpaceOnUse" gradientTransform="matrix(0.527789,0,0,0.427758,-1.911711,-4.317301)" x1="42.137558" y1="68.160683" x2="42.137558" y2="105.10196"/>
    <linearGradient xlink:href="#e" gradientUnits="userSpaceOnUse" gradientTransform="matrix(0.526729,0,0,0.428621,-1.911711,-3.379913)" x1="29.539867" y1="74.338982" x2="7.0335331" y2="73.219803"/>
    <linearGradient xlink:href="#f" id="q" gradientUnits="userSpaceOnUse" gradientTransform="matrix(0.483204,0,0,0.47061,-0.287594,-4.714333)" x1="22.531561" y1="95.898132" x2="49.017395" y2="27.309816"/>
    <linearGradient xlink:href="#g" id="u" x1="17.033184" y1="38.662212" x2="56.610294" y2="108.22483" gradientUnits="userSpaceOnUse" gradientTransform="matrix(0.413232,0,0,0.402058,-4.298054,-2.649836)"/>
    <linearGradient xlink:href="#h" id="p" x1="113.84419" y1="76.00531" x2="113.84419" y2="101.19212" gradientUnits="userSpaceOnUse" gradientTransform="matrix(0.415746,0,0,0.415053,-3.953611,-3.858144)"/>
    <linearGradient id="n">
      <stop offset="0" stop-color="#fff" stop-opacity="1"/>
      <stop offset="0.61764705" stop-color="#fff" stop-opacity="1"/>
      <stop offset="1" stop-color="#fff" stop-opacity="0"/>
    </linearGradient>
    <linearGradient id="m">
      <stop offset="0" stop-color="#9ec4f0" stop-opacity=".30653265"/>
      <stop offset="0.61764705" stop-color="#9ec4f0" stop-opacity=".3137255"/>
      <stop offset="1" stop-color="#9ec4f0" stop-opacity="1"/>
    </linearGradient>
    <linearGradient id="i">
      <stop offset="0" stop-color="#ceba00" stop-opacity="1"/>
      <stop offset="1" stop-color="#f18200" stop-opacity="1"/>
    </linearGradient>
    <linearGradient id="l">
      <stop offset="0" stop-color="#fff" stop-opacity="1"/>
      <stop offset="1" stop-color="#fff" stop-opacity=".33725491"/>
    </linearGradient>
    <linearGradient id="j">
      <stop offset="0" stop-color="#c9c9c9" stop-opacity="1"/>
      <stop offset="0.5" stop-color="#fff" stop-opacity="1"/>
      <stop offset="0.75" stop-color="#a5a5a5" stop-opacity="1"/>
      <stop offset="1" stop-color="#d4d4d4" stop-opacity="1"/>
    </linearGradient>
    <linearGradient id="k">
      <stop offset="0" stop-color="white" stop-opacity="1"/>
      <stop offset="1" stop-color="white" stop-opacity=".57939917"/>
    </linearGradient>
    <linearGradient xlink:href="#i" id="v" gradientUnits="userSpaceOnUse" gradientTransform="matrix(1.337261,-1.343742,1.337261,1.343742,-79.31007,17.42598)" x1="10.628082" y1="20.32057" x2="7.3931365" y2="20.264719"/>
    <linearGradient xlink:href="#j" id="w" gradientUnits="userSpaceOnUse" gradientTransform="matrix(1.919372,-1.919374,1.244767,1.244768,-82.22997,24.39475)" x1="6.9188247" y1="17.483641" x2="10.358043" y2="17.483641"/>
    <linearGradient xlink:href="#k" id="x" gradientUnits="userSpaceOnUse" gradientTransform="matrix(1.188058,-1.190399,1.188058,1.190399,-77.22577,22.20938)" x1="7.9148936" y1="3.8297873" x2="7.9148936" y2="41.371349"/>
    <linearGradient xlink:href="#l" id="y" gradientUnits="userSpaceOnUse" gradientTransform="matrix(1.285184,-1.287716,1.285184,1.287716,-77.36267,18.39551)" x1="4.0145416" y1="2.715862" x2="10.090094" y2="13.239027"/>
    <radialGradient xlink:href="#m" id="z" gradientUnits="userSpaceOnUse" gradientTransform="matrix(1.227473,-2.855792e-16,-4.785394e-17,1.227473,3.136218,-2.253726)" cx="-13.583885" cy="10.198135" fx="-13.583885" fy="10.198135" r="6.1843319"/>
    <radialGradient xlink:href="#n" id="A" gradientUnits="userSpaceOnUse" gradientTransform="matrix(1,-5.995909e-16,5.01213e-16,0.803279,-7.152935e-15,0.985551)" cx="-5.3766184" cy="5.0098858" fx="-5.3766184" fy="5.0098858" r="4.372983"/>
    <radialGradient xlink:href="#n" id="B" gradientUnits="userSpaceOnUse" gradientTransform="matrix(1,-2.475099e-16,-6.438298e-17,0.803279,3.575212e-15,0.985551)" cx="-5.3766184" cy="5.0098858" fx="-5.3766184" fy="5.0098858" r="4.372983"/>
  </defs>
  <metadata/>
  <path transform="matrix(0.461536,7.970305e-2,-7.970305e-2,0.461536,6.234354,-8.204039)" d="M 96.354244 99.660515 A 44.162361 9.9188194 0 1 1  8.0295219,99.660515 A 44.162361 9.9188194 0 1 1  96.354244 99.660515 z" opacity=".60792954" fill="url(#o)" fill-opacity="1" stroke="none" stroke-width="3" stroke-linecap="round" stroke-linejoin="round" stroke-miterlimit="4" stroke-opacity="1"/>
  <path d="M 34.575041,4.5023928 L 21.951162,5.6239601 L 20.42861,9.3133249 L 6.8734599,10.420135 L 6.6517297,13.2093 L 0.50239285,13.53396 C 0.50239285,33.31114 2.7671271,37.20551 4.5231137,38.518333 L 39.260952,44.318014 L 39.260952,44.303265 L 39.379211,44.318014 C 42.032532,44.318014 45.292036,20.680098 45.292036,7.2915524 L 36.43758,8.0146686 L 34.575041,4.5023928 z " fill="url(#p)" fill-opacity="1" fill-rule="evenodd" stroke="#833800" stroke-width="1.00478566" stroke-linecap="round" stroke-linejoin="round" stroke-miterlimit="4" stroke-dasharray="none" stroke-opacity="1"/>
  <path d="M 10.126456,11.837705 L 9.4915145,35.746469 L 37.958071,43.008486 C 39.647915,32.414659 42.233254,24.814663 42.508486,9.4915145 L 10.126456,11.837705 z " fill="#fff" fill-opacity="1" fill-rule="evenodd" stroke="#dcdcdc" stroke-width=".983" stroke-linecap="butt" stroke-linejoin="miter" stroke-miterlimit="4" stroke-dasharray="none" stroke-opacity="1"/>
  <path d="M 9.6713914,11.380176 L 9,35.635265 L 38.289732,42.899791 C 40.068337,34.571881 42.980951,21.251458 43,9 L 9.6713914,11.380176 z " fill="url(#q)" fill-opacity="1" fill-rule="evenodd" stroke="none" stroke-width=".60000002" stroke-linecap="butt" stroke-linejoin="miter" stroke-miterlimit="4" stroke-opacity="1"/>
  <path d="M 38.748563,15 C 38.005755,24.252525 37.600205,36.288903 39,43.428228 L 33.646542,42.160758 L 30,15.238465 L 38.748563,15 z " fill="#000" fill-opacity=".15999995" fill-rule="evenodd" stroke="none" stroke-width="1px" stroke-linecap="butt" stroke-linejoin="miter" stroke-opacity="1"/>
  <path d="M 1.5037443,14.312633 L 34.878393,12.503744 C 35.688696,23.359513 35.581128,36.214574 39.496256,43.496256 L 5.3902843,38.005089 C 2.0283695,32.477141 1.89443,23.428626 1.5037443,14.312633 z " fill="url(#r)" fill-opacity="1" fill-rule="evenodd" stroke="url(#linearGradient2845)" stroke-width="1.00748861" stroke-linecap="round" stroke-linejoin="round" stroke-miterlimit="4" stroke-dasharray="none" stroke-opacity="1"/>
  <path d="M 1,14.911391 C 12.051681,14.448017 22.711228,13.947334 33.762909,13.48396 C 34.334326,21.549683 34.801174,27.227647 36,34 C 22.213497,24.946426 13.720031,21.147409 3.4176172,31.020782 C 2.4810337,25.638554 1.9365825,20.29362 1,14.911391 z " opacity=".52719667" fill="url(#s)" fill-opacity="1" fill-rule="evenodd" stroke="none" stroke-width="1px" stroke-linecap="butt" stroke-linejoin="miter" stroke-opacity="1"/>
  <path d="M 21,10 L 22.567165,6.0000008 L 34.097014,5 L 36,8.5000001 L 21,10 z " fill="url(#t)" fill-opacity="1" fill-rule="evenodd" stroke="none" stroke-width="1px" stroke-linecap="butt" stroke-linejoin="miter" stroke-opacity="1"/>
  <path d="M 5.4230791,37.689719 C 3.6641529,37.385561 1.7551373,32.948703 1.4976814,14.96677 L 33.659286,13.497682 C 33.903029,24.472601 34.904635,37.575622 37.502319,42.3019 L 5.4230791,37.689719 z " fill="none" fill-opacity="1" fill-rule="evenodd" stroke="url(#u)" stroke-width=".99536294" stroke-linecap="butt" stroke-linejoin="miter" stroke-miterlimit="4" stroke-dasharray="none" stroke-opacity=".89699557"/>
  <g transform="matrix(1,0,0,0.99748,78.90748,4.543246)">
    <path d="M -46.365462,32.002783 L -41.484777,27.098434 L -35.248344,33.3651 C -32.401275,36.22597 -37.481851,40.929459 -40.129034,38.26945 L -46.365462,32.002783 z " style="marker:none" color="#000" fill="url(#v)" fill-opacity="1" fill-rule="nonzero" stroke="#834f06" stroke-width="1.00126219" stroke-linecap="round" stroke-linejoin="round" marker-start="none" marker-mid="none" marker-end="none" stroke-miterlimit="4" stroke-dasharray="none" stroke-dashoffset="0" stroke-opacity="1" visibility="visible" display="inline" overflow="visible"/>
    <path style="marker:none" d="M -44.35124,32.672451 L -40.829047,29.147632 L -35.97798,34.002317 C -33.923368,36.058463 -37.589812,39.438923 -39.500174,37.527139 L -44.35124,32.672451 z " color="#000" fill="none" fill-opacity="1" fill-rule="nonzero" stroke="#fff" stroke-width="1.00126219" stroke-linecap="round" stroke-linejoin="round" marker-start="none" marker-mid="none" marker-end="none" stroke-miterlimit="4" stroke-dasharray="none" stroke-dashoffset="0" stroke-opacity=".35678394" visibility="visible" display="inline" overflow="visible"/>
    <path d="M -48.402672,30.702689 L -42.76121,25.061227 L -39.370271,28.452167 L -45.011732,34.093628 L -48.402672,30.702689 z " style="marker:none" color="#000" fill="url(#w)" fill-opacity="1" fill-rule="nonzero" stroke="#505050" stroke-width="1.00126219" stroke-linecap="round" stroke-linejoin="round" marker-start="none" marker-mid="none" marker-end="none" stroke-miterlimit="4" stroke-dasharray="none" stroke-dashoffset="0" stroke-opacity="1" visibility="visible" display="inline" overflow="visible"/>
    <path d="M -65.599932,8.4038749 C -70.900182,13.990974 -70.790022,22.841225 -65.318792,28.323232 C -59.760722,33.892256 -50.715552,33.892258 -45.157482,28.323233 C -39.599406,22.75421 -39.639565,13.731449 -45.197642,8.1624279 C -50.755712,2.5934064 -59.760722,2.5531636 -65.318792,8.1221869 C -65.405642,8.2092029 -65.515802,8.3151899 -65.599932,8.4038749 z M -63.672152,10.415932 C -63.572212,10.307873 -63.455712,10.199065 -63.350862,10.094002 C -58.877042,5.6113729 -51.639392,5.6516149 -47.165582,10.134245 C -42.691764,14.616873 -42.6516,21.868788 -47.125412,26.351418 C -51.599232,30.834048 -58.877042,30.834048 -63.350862,26.351418 C -67.719822,21.97385 -67.836322,14.918379 -63.672152,10.415932 z " style="marker:none" color="#000" fill="url(#x)" fill-opacity="1" fill-rule="nonzero" stroke="#505050" stroke-width="1.00126219" stroke-linecap="round" stroke-linejoin="round" marker-start="none" marker-mid="none" marker-end="none" stroke-miterlimit="4" stroke-dasharray="none" stroke-dashoffset="0" stroke-opacity="1" visibility="visible" display="inline" overflow="visible"/>
    <path d="M -65.049302,8.9277359 C -70.067332,14.217344 -69.963042,22.596355 -64.783132,27.786465 C -59.521012,33.058958 -50.957452,33.058958 -45.695332,27.786465 C -40.433203,22.513969 -40.471227,13.971639 -45.733352,8.6991459 C -50.995472,3.4266527 -59.521012,3.3885518 -64.783132,8.6610479 C -64.865352,8.7434299 -64.969652,8.8437739 -65.049302,8.9277359 z " style="marker:none" color="#000" fill="none" fill-opacity="1" fill-rule="nonzero" stroke="url(#y)" stroke-width=".50063109" stroke-linecap="round" stroke-linejoin="round" marker-start="none" marker-mid="none" marker-end="none" stroke-miterlimit="4" stroke-dasharray="none" stroke-dashoffset="0" stroke-opacity="1" visibility="visible" display="inline" overflow="visible"/>
    <path transform="matrix(1.28544,-1.287972,1.28544,1.287972,-48.99747,-12.02529)" d="M -8.0092163 9.3271885 A 6.1843319 6.1843319 0 1 1  -20.37788,9.3271885 A 6.1843319 6.1843319 0 1 1  -8.0092163 9.3271885 z" style="marker:none" color="#000" fill="url(#z)" fill-opacity="1" fill-rule="nonzero" stroke="none" stroke-width=".5" stroke-linecap="round" stroke-linejoin="round" marker-start="none" marker-mid="none" marker-end="none" stroke-miterlimit="4" stroke-dasharray="none" stroke-dashoffset="0" stroke-opacity="1" visibility="visible" display="inline" overflow="visible"/>
    <path transform="matrix(0.840084,-1.457935,1.455068,0.841739,-62.87107,4.402713)" d="M -1.0036354 5.0098858 A 4.372983 3.5127239 0 1 1  -9.7496014,5.0098858 A 4.372983 3.5127239 0 1 1  -1.0036354 5.0098858 z" style="marker:none" opacity=".57213931" color="#000" fill="url(#A)" fill-opacity="1" fill-rule="nonzero" stroke="none" stroke-width=".5" stroke-linecap="round" stroke-linejoin="round" marker-start="none" marker-mid="none" marker-end="none" stroke-miterlimit="4" stroke-dasharray="none" stroke-dashoffset="0" stroke-opacity="1" visibility="visible" display="inline" overflow="visible"/>
    <path transform="matrix(0.465624,-0.808071,0.806482,0.466541,-50.67427,14.96597)" d="M -1.0036354 5.0098858 A 4.372983 3.5127239 0 1 1  -9.7496014,5.0098858 A 4.372983 3.5127239 0 1 1  -1.0036354 5.0098858 z" style="marker:none" opacity=".38308459" color="#000" fill="url(#B)" fill-opacity="1" fill-rule="nonzero" stroke="none" stroke-width=".5" stroke-linecap="round" stroke-linejoin="round" marker-start="none" marker-mid="none" marker-end="none" stroke-miterlimit="4" stroke-dasharray="none" stroke-dashoffset="0" stroke-opacity="1" visibility="visible" display="inline" overflow="visible"/>
  </g>
</svg>
