<?xml version="1.0" standalone="no"?>
<!--Created with Inkscape (http://www.inkscape.org/)-->
<svg xmlns="http://www.w3.org/2000/svg" xmlns:xlink="http://www.w3.org/1999/xlink" viewBox="0 0 48 48">
  <defs>
    <linearGradient id="k">
      <stop offset="0" stop-color="#656565" stop-opacity="1"/>
      <stop offset="1" stop-color="#656565" stop-opacity="0"/>
    </linearGradient>
    <linearGradient id="i">
      <stop offset="0.0000000" stop-color="#d9d9d9" stop-opacity="1"/>
      <stop offset="1" stop-color="#eee" stop-opacity="0"/>
    </linearGradient>
    <linearGradient id="f">
      <stop offset="0" stop-color="#000" stop-opacity="1"/>
      <stop offset="1" stop-color="#000" stop-opacity="0"/>
    </linearGradient>
    <linearGradient id="g">
      <stop offset="0" stop-color="#656565" stop-opacity="1"/>
      <stop offset="1" stop-color="#656565" stop-opacity="0"/>
    </linearGradient>
    <linearGradient id="e">
      <stop offset="0" stop-color="#000" stop-opacity="1"/>
      <stop offset="1" stop-color="#000" stop-opacity="0"/>
    </linearGradient>
    <linearGradient id="j" gradientUnits="userSpaceOnUse" x1="14.9966" y1="11.1885" x2="32.511" y2="34.3075">
      <stop offset="0" stop-color="#ebebeb"/>
      <stop offset="0.5" stop-color="#fff"/>
      <stop offset="1" stop-color="#ebebeb"/>
    </linearGradient>
    <linearGradient id="h">
      <stop offset="0" stop-color="#fff" stop-opacity="1"/>
      <stop offset="1" stop-color="#fff" stop-opacity="0"/>
    </linearGradient>
    <linearGradient id="d">
      <stop offset="0" stop-color="#000" stop-opacity="1"/>
      <stop offset="1" stop-color="#000" stop-opacity="0"/>
    </linearGradient>
    <linearGradient id="c">
      <stop offset="0" stop-color="#fff" stop-opacity="1"/>
      <stop offset="1" stop-color="#fff" stop-opacity="0"/>
    </linearGradient>
    <linearGradient id="b">
      <stop offset="0.0000000" stop-color="#e4e4e4" stop-opacity="1"/>
      <stop offset="1.0000000" stop-color="#d3d3d3" stop-opacity="1"/>
    </linearGradient>
    <linearGradient id="a">
      <stop offset="0.0000000" stop-color="#bbb" stop-opacity="1"/>
      <stop offset="1.0000000" stop-color="#9f9f9f" stop-opacity="1"/>
    </linearGradient>
    <linearGradient gradientUnits="userSpaceOnUse" y2="40.943935" x2="36.183067" y1="28.481176" x1="7.6046205" id="m" xlink:href="#a" gradientTransform="translate(0.000000,-1.944537)"/>
    <radialGradient gradientUnits="userSpaceOnUse" gradientTransform="matrix(1.286242,0.781698,-0.710782,1.169552,-2.354348,-6.821398)" r="20.935817" fy="2.9585190" fx="15.571491" cy="2.9585190" cx="15.571491" id="n" xlink:href="#b"/>
    <linearGradient gradientUnits="userSpaceOnUse" y2="47.620636" x2="44.096100" y1="4.4331360" x1="12.378357" id="o" xlink:href="#c" gradientTransform="translate(0.000000,-1.944537)"/>
    <radialGradient gradientUnits="userSpaceOnUse" gradientTransform="matrix(1.000000,0.000000,0.000000,0.651032,-5.289283e-16,9.455693)" r="23.555494" fy="27.096155" fx="23.201941" cy="27.096155" cx="23.201941" id="l" xlink:href="#d"/>
    <radialGradient xlink:href="#e" cx="24.218407" cy="33.769478" fx="24.218407" fy="33.769478" r="17.677670" gradientTransform="matrix(1.000000,0.000000,0.000000,0.695000,-6.375109e-17,10.29969)" gradientUnits="userSpaceOnUse"/>
    <linearGradient xlink:href="#f" id="u" x1="23.375000" y1="28.433596" x2="23.375000" y2="32.938416" gradientUnits="userSpaceOnUse"/>
    <linearGradient xlink:href="#f" id="v" x1="23.375000" y1="28.433596" x2="23.375000" y2="32.938416" gradientUnits="userSpaceOnUse"/>
    <linearGradient xlink:href="#g" id="t" gradientUnits="userSpaceOnUse" gradientTransform="matrix(0.933652,0.000000,0.000000,0.746388,1.612716,5.798642)" x1="24.306797" y1="32.790924" x2="24.306797" y2="34.201233"/>
    <linearGradient xlink:href="#h" id="s" gradientUnits="userSpaceOnUse" gradientTransform="matrix(0.689906,0.000000,0.000000,0.475657,7.416079,20.16507)" x1="10.501720" y1="3.6100161" x2="48.798885" y2="54.698483"/>
    <linearGradient xlink:href="#i" id="p" gradientUnits="userSpaceOnUse" gradientTransform="matrix(0.747039,0.000000,0.000000,0.515048,6.024727,19.74878)" x1="26.332899" y1="34.172115" x2="26.193645" y2="21.987923"/>
    <linearGradient xlink:href="#j" id="r" gradientUnits="userSpaceOnUse" gradientTransform="matrix(0.889332,0.000000,0.000000,0.613153,2.868918,17.57726)" x1="14.9966" y1="11.1885" x2="32.511" y2="34.3075"/>
    <linearGradient xlink:href="#k" id="q" gradientUnits="userSpaceOnUse" x1="24.306797" y1="33.693432" x2="24.306797" y2="37.609333" gradientTransform="matrix(0.933652,0.000000,0.000000,0.933652,1.612716,-0.367774)"/>
  </defs>
  <metadata/>
  <path style="marker:none" d="M 24.03125 29.78125 C 18.496418 29.78125 13.663836 31.37955 10.90625 33.78125 L 3.78125 33.78125 C 1.8857475 33.78125 0.34375 35.323246 0.34375 37.21875 C 0.34375 39.114253 1.8857474 40.625001 3.78125 40.625 L 9.0625 40.625 C 10.869265 44.257332 16.869657 46.937501 24.03125 46.9375 C 31.192843 46.9375 37.224486 44.257332 39.03125 40.625 L 44.65625 40.625 C 46.551753 40.625 48.09375 39.114251 48.09375 37.21875 C 48.09375 35.323247 46.551753 33.78125 44.65625 33.78125 L 37.1875 33.78125 C 34.429914 31.37955 29.566082 29.781249 24.03125 29.78125 z " opacity=".2" color="#000" fill="#000" fill-opacity="1" fill-rule="evenodd" stroke="none" stroke-width="1" stroke-linecap="round" stroke-linejoin="round" marker-start="none" marker-mid="none" marker-end="none" stroke-miterlimit="4" stroke-dasharray="none" stroke-dashoffset="0" stroke-opacity="1" visibility="visible" display="inline" overflow="visible"/>
  <path transform="matrix(1.052533,0.000000,0.000000,0.363113,-0.511757,24.92528)" d="M 46.757435 27.096155 A 23.555494 15.335379 0 1 1  -0.35355377,27.096155 A 23.555494 15.335379 0 1 1  46.757435 27.096155 z" style="marker:none" opacity=".56" color="#000" fill="url(#l)" fill-opacity="1" fill-rule="evenodd" stroke="none" stroke-width="1" stroke-linecap="round" stroke-linejoin="round" marker-start="none" marker-mid="none" marker-end="none" stroke-miterlimit="4" stroke-dasharray="none" stroke-dashoffset="0" stroke-opacity="1" visibility="visible" display="inline" overflow="visible"/>
  <path d="M 11.285690,6.0180852 C 10.660690,6.0180852 10.254441,6.3082654 10.004442,6.8618382 C 10.004441,6.8618382 3.5356915,23.965402 3.5356915,23.965402 C 3.5356915,23.965402 3.2856915,24.636961 3.2856915,25.746652 C 3.2856915,25.746652 3.2856915,35.396620 3.2856915,35.396620 C 3.2856915,36.479233 3.9434770,37.021622 4.9419415,37.021620 L 43.504440,37.021620 C 44.489293,37.021620 45.098190,36.303440 45.098190,35.177870 L 45.098190,25.527902 C 45.098190,25.527902 45.204153,24.757479 45.004440,24.215402 L 38.285690,7.0180888 C 38.101165,6.5061820 37.648785,6.0299905 37.160690,6.0180852 L 11.285690,6.0180852 z " stroke-opacity="1" stroke-dasharray="none" stroke-miterlimit="4" stroke-linejoin="round" stroke-linecap="round" stroke-width="4" stroke="#000" fill-rule="evenodd" fill-opacity="1" fill="none"/>
  <path d="M 3.2735915,25.052276 L 4.0381936,24.360061 L 41.647883,24.422561 L 45.110290,24.739859 L 45.110290,35.178391 C 45.110290,36.303960 44.503272,37.021722 43.518419,37.021722 L 4.9354314,37.021722 C 3.9369667,37.021722 3.2735915,36.479671 3.2735915,35.397058 L 3.2735915,25.052276 z " fill="url(#m)" fill-opacity="1" fill-rule="evenodd" stroke="none" stroke-width="1.020443px" stroke-linecap="butt" stroke-linejoin="miter" stroke-opacity="1"/>
  <path d="M 3.5490842,23.969868 C 2.8347985,25.434154 3.5484686,26.362725 4.5847985,26.362725 C 4.5847985,26.362725 43.584797,26.362725 43.584797,26.362725 C 44.703844,26.338915 45.430035,25.350820 45.013368,24.219867 L 38.299082,7.0091618 C 38.114558,6.4972550 37.644320,6.0210632 37.156225,6.0091582 L 11.299083,6.0091582 C 10.674083,6.0091582 10.263369,6.3127314 10.013370,6.8663042 C 10.013370,6.8663042 3.5490842,23.969868 3.5490842,23.969868 z " fill="url(#n)" fill-opacity="1" fill-rule="evenodd" stroke="none" stroke-width="1px" stroke-linecap="butt" stroke-linejoin="miter" stroke-opacity="1"/>
  <path d="M 44.796162,23.684152 C 44.859684,24.934126 44.382159,25.999992 43.474046,26.027902 C 43.474046,26.027902 5.3553296,26.027901 5.3553297,26.027902 C 4.0660978,26.027902 3.4875937,25.702955 3.2712790,25.159846 C 3.3630404,26.104178 4.0970964,26.809152 5.3553297,26.809152 C 5.3553296,26.809151 43.474046,26.809152 43.474046,26.809152 C 44.550053,26.776081 45.226851,25.385128 44.826210,23.814361 L 44.796162,23.684152 z " fill="#fff" fill-opacity="1" fill-rule="evenodd" stroke="none" stroke-width="1px" stroke-linecap="butt" stroke-linejoin="miter" stroke-opacity="1"/>
  <path d="M 11.642515,6.4711801 C 11.040823,6.4711801 10.649724,6.7505387 10.409049,7.2834674 C 10.409048,7.2834674 3.9940341,23.874196 3.9940341,23.874196 C 3.9940341,23.874196 3.7533573,24.520711 3.7533573,25.589019 C 3.7533573,25.589019 3.7533573,34.879115 3.7533573,34.879115 C 3.7533573,36.233855 4.1974134,36.506014 5.3478414,36.506014 L 43.034746,36.506014 C 44.357872,36.506014 44.569062,36.189617 44.569062,34.668522 L 44.569062,25.378426 C 44.569062,25.378426 44.671072,24.636735 44.478807,24.114873 L 37.885616,7.3088910 C 37.707973,6.8160745 37.334964,6.4826414 36.865071,6.4711801 L 11.642515,6.4711801 z " fill="none" fill-opacity="1" fill-rule="evenodd" stroke="url(#o)" stroke-width="1.0000002" stroke-linecap="round" stroke-linejoin="round" stroke-miterlimit="4" stroke-dasharray="none" stroke-opacity="1"/>
  <path d="M 8.9286857,30.711905 C 8.7675803,31.333537 8.6369195,31.982873 8.6369195,32.637562 C 8.6369195,38.585143 15.590711,43.345384 24.217237,43.345384 C 32.843761,43.345384 39.768379,38.585143 39.768379,32.637562 C 39.768379,31.982873 39.637718,31.333537 39.476612,30.711905 L 8.9286857,30.711905 z " fill="url(#p)" fill-rule="nonzero" stroke="#000" stroke-width="2" stroke-miterlimit="4" stroke-dasharray="none" stroke-opacity="1"/>
  <rect style="marker:none" width="35.414085" height="3.6086013" x="6.5997624" y="29.848364" opacity="1" color="#000" fill="url(#q)" fill-opacity="1" fill-rule="evenodd" stroke="none" stroke-width="1" stroke-linecap="square" stroke-linejoin="round" marker-start="none" marker-mid="none" marker-end="none" stroke-miterlimit="4" stroke-dasharray="none" stroke-dashoffset="0" stroke-opacity=".42372879" visibility="visible" display="inline" overflow="visible"/>
  <path d="M 9.0745688,29.332017 C 8.8178752,30.107903 8.6369195,30.922398 8.6369195,31.753677 C 8.6369185,37.701258 15.590711,42.461499 24.217237,42.461499 C 32.843761,42.461499 39.768379,37.701258 39.768379,31.753677 C 39.768379,30.925917 39.614491,30.104893 39.359906,29.332017 L 24.829946,29.332017 C 26.547695,29.560918 27.951845,30.507817 27.951845,31.753677 C 27.951845,33.163929 26.262701,34.321220 24.217237,34.321220 C 22.171771,34.321220 20.482629,33.163929 20.482629,31.753677 C 20.482630,30.507817 21.886779,29.560918 23.604528,29.332017 L 9.0745688,29.332017 z " fill="url(#r)" fill-rule="nonzero" stroke="none" stroke-miterlimit="4"/>
  <path d="M 17.839529,29.785689 C 17.193067,30.554584 16.732163,31.005353 16.732163,31.948339 C 16.732162,34.851016 20.167530,37.135475 24.279736,37.135475 C 28.489852,37.135474 31.827310,34.783512 31.827310,31.948339 C 31.827310,30.991500 31.337343,30.550044 30.690803,29.785689 L 26.196874,29.785689 C 27.599211,30.239874 28.388647,30.819491 28.388647,31.948339 C 28.388648,33.500934 26.531659,34.775036 24.279736,34.775036 C 22.027812,34.775036 20.170826,33.500934 20.170826,31.948339 C 20.170826,30.818836 20.939182,30.239519 22.342817,29.785689 L 17.839529,29.785689 z " opacity=".18285711" fill-rule="nonzero" stroke="none" stroke-miterlimit="4"/>
  <path d="M 18.954353,41.406505 L 22.491774,34.375325 C 21.672822,34.173946 21.045936,33.778615 20.650215,33.258388 L 10.960325,36.608596 C 12.594142,38.835773 15.436867,40.567711 18.954353,41.406505 z " fill="#fff" fill-opacity=".41807911" fill-rule="nonzero" stroke="none" stroke-miterlimit="4" stroke-opacity="1"/>
  <path d="M 9.9332487,29.758856 C 9.7009869,30.449639 9.5560155,31.327064 9.5560155,32.068153 C 9.5560155,37.287805 16.646526,41.472037 24.217244,41.472037 C 31.787963,41.472036 38.690975,37.287804 38.690975,32.068153 C 38.690974,31.326560 38.519365,30.450067 38.286797,29.758856 L 9.9332487,29.758856 z " opacity=".54644811" fill="none" fill-rule="nonzero" stroke="url(#s)" stroke-miterlimit="4" stroke-opacity="1"/>
  <rect y="29.161276" x="6.5997624" height="1.1121485" width="35.351589" style="marker:none" opacity="1" color="#000" fill="url(#t)" fill-opacity="1" fill-rule="evenodd" stroke="none" stroke-width="1" stroke-linecap="square" stroke-linejoin="round" marker-start="none" marker-mid="none" marker-end="none" stroke-miterlimit="4" stroke-dasharray="none" stroke-dashoffset="0" stroke-opacity=".42372879" visibility="visible" display="inline" overflow="visible" font-family="Bitstream Vera Sans"/>
  <path d="M 26.312500,30.250000 L 40.062500,30.250000 C 40.062500,30.250000 40.603959,31.370993 40.000000,33.625000 C 40.000000,33.625000 26.687500,33.125000 26.687500,33.125000 C 28.537859,31.274641 26.312500,30.250000 26.312500,30.250000 z " opacity=".36" stroke-opacity="1" stroke-linejoin="miter" stroke-linecap="butt" stroke-width="1px" stroke="none" fill-rule="evenodd" fill-opacity="1" fill="url(#u)"/>
  <path d="M 22.098146,30.250000 L 8.3481460,30.250000 C 8.3481460,30.250000 7.8066870,31.370993 8.4106460,33.625000 C 8.4106460,33.625000 21.723146,33.125000 21.723146,33.125000 C 19.872787,31.274641 22.098146,30.250000 22.098146,30.250000 z " opacity=".36" stroke-opacity="1" stroke-linejoin="miter" stroke-linecap="butt" stroke-width="1px" stroke="none" fill-rule="evenodd" fill-opacity="1" fill="url(#v)"/>
</svg>
