<?xml version="1.0" standalone="no"?>
<!--Generator: Adobe Illustrator 9.0, SVG Export Plug-In-->
<svg xmlns="http://www.w3.org/2000/svg" xmlns:xlink="http://www.w3.org/1999/xlink" viewBox="0 0 48 48.2">
  <metadata/>
  <defs>
    <linearGradient id="h">
      <stop offset="0.0000000" stop-color="#120751" stop-opacity="1"/>
      <stop offset="1.0000000" stop-color="#7473b5" stop-opacity="1"/>
    </linearGradient>
    <linearGradient id="j">
      <stop offset="0.0000000" stop-color="#e7ebef" stop-opacity="1"/>
      <stop offset="1.0000000" stop-color="#52699f" stop-opacity="1"/>
    </linearGradient>
    <linearGradient id="f">
      <stop offset="0.0000000" stop-color="#000" stop-opacity="1"/>
      <stop offset="1.0000000" stop-color="#3a4a70" stop-opacity="1"/>
    </linearGradient>
    <radialGradient id="a" cx="24.1899" cy="29.9287" r="12.3883" fx="24.1899" fy="29.9287" gradientUnits="userSpaceOnUse">
      <stop offset="0" stop-color="#b6b6b6"/>
      <stop offset="1" stop-color="#878787"/>
    </radialGradient>
    <radialGradient r="12.3883" fy="29.9287" fx="24.1899" cy="29.9287" cx="24.1899" gradientUnits="userSpaceOnUse" id="c" xlink:href="#a"/>
    <radialGradient r="12.3883" fy="29.9287" fx="24.1899" cy="29.9287" cx="24.1899" gradientTransform="matrix(1.004167,0.000000,0.000000,1.004167,2.863327e-2,0.321402)" gradientUnits="userSpaceOnUse" id="b" xlink:href="#a"/>
  </defs>
  <path style="marker:none" d="M 46.091668 29.873959 A 36.652084 18.326042 0 1 1  -27.212501,29.873959 A 36.652084 18.326042 0 1 1  46.091668 29.873959 z" transform="matrix(0.424959,0,0,0.440543,22.28844,24.25076)" opacity=".2" color="#000" fill="#000" fill-opacity="1" fill-rule="nonzero" stroke="none" stroke-width="1.00194728" stroke-linecap="round" stroke-linejoin="round" marker-start="none" marker-mid="none" marker-end="none" stroke-miterlimit="4" stroke-dasharray="none" stroke-dashoffset="0" stroke-opacity="1" visibility="visible" display="inline" overflow="visible"/>
  <path d="M 10.350119,4.2381775 C 9.6566734,4.1716100 9.3788510,4.6442257 9.2518112,5.4933863 L 5.6744663,29.405112 C 5.5744653,30.105112 6.0786334,30.805503 6.6786333,31.005503 L 17.253761,34.112145 C 17.208459,34.215096 17.157035,34.320562 17.128240,34.425947 C 17.120554,34.385133 17.071509,34.340621 17.065480,34.300426 C 17.046284,34.377210 17.078721,34.444681 17.065480,34.520087 C 17.034607,34.661371 16.877198,34.783093 16.877198,34.928030 L 16.877198,36.120479 C 16.877198,38.620481 21.464048,40.607850 27.264051,40.607850 C 32.964053,40.607852 37.588143,38.620480 37.588143,36.120479 L 37.588143,34.928030 C 37.588143,34.205752 37.110592,33.553712 36.427075,32.951076 L 40.192701,10.420080 C 40.292972,9.8201260 40.007314,9.2278060 39.439576,9.1334916 L 29.805848,7.5331005 C 29.805848,7.5331005 10.350119,4.2381775 10.350119,4.2381775 z " fill="url(#b)" fill-rule="nonzero" stroke="#000" stroke-width="5.0208335" stroke-linecap="round" stroke-linejoin="round" stroke-miterlimit="4" stroke-opacity="1"/>
  <path d="M 26.900000,30.100000 C 21.200000,30.100000 16.500000,32.100000 16.500000,34.600000 L 16.500000,35.800000 C 16.500000,38.300000 21.100000,40.300000 26.900000,40.300000 C 32.600000,40.300000 37.200000,38.300000 37.200000,35.800000 L 37.200000,34.600000 C 37.200000,32.100000 32.600000,30.100000 26.900000,30.100000 L 26.900000,30.100000 z " fill="url(#c)" fill-rule="nonzero" stroke="none" stroke-miterlimit="4"/>
  <path d="M 16.700000,34.000000 C 17.000000,36.000000 19.300000,38.800000 28.700000,39.000000 C 21.500000,39.700000 15.800000,37.600000 16.700000,34.000000 z " fill="#b3b3b3" fill-rule="nonzero" stroke="none" stroke-miterlimit="4"/>
  <g fill="#dedede" fill-rule="nonzero" stroke="#000" stroke-miterlimit="4">
    <linearGradient id="d" gradientUnits="userSpaceOnUse" x1="8.8945" y1="20.3232" x2="34.0076" y2="22.132">
      <stop offset="0" stop-color="#f8f8f8"/>
      <stop offset="1" stop-color="#c9c9c9"/>
    </linearGradient>
    <path d="M10.2,4.3c-0.7-0.1-1.3,0.4-1.4,1L5.3,29.1c-0.1,0.7,0.4,1.4,1,1.6l25.3,7.4c0.7,0.2,1.3-0.2,1.4-0.9l4.8-27c0.1-0.7-0.3-1.3-1-1.5L10.2,4.3z" fill="url(#d)" stroke="none"/>
  </g>
  <g fill="#dedede" fill-rule="nonzero" stroke="#000" stroke-miterlimit="4">
    <linearGradient id="e" gradientUnits="userSpaceOnUse" x1="30.2646" y1="30.7734" x2="43.8768" y2="14.7483">
      <stop offset="0" stop-color="#9f9f9f"/>
      <stop offset="1" stop-color="#828282"/>
    </linearGradient>
    <path d="M35.3,36.6c-0.1,0.7-0.7,1.4-1.4,1.5s-1.1-0.3-0.9-1l4.8-27c0.1-0.7,0.7-1.2,1.2-1.2c0.5,0,0.9,0.6,0.8,1.2l-4.4,26.5z" fill="url(#e)" stroke="none"/>
  </g>
  <path d="M 34.000000,38.200000 C 33.400000,38.500000 32.700000,38.500000 31.900000,38.200000 C 32.600000,38.000000 33.000000,37.400000 33.000000,37.400000 C 33.000000,37.400000 33.100000,38.300000 34.000000,38.200000 z " fill="#848484" fill-rule="nonzero" stroke="none" stroke-miterlimit="4"/>
  <path d="M 36.843645,8.9559885 C 37.443645,9.0559885 37.943645,9.1559885 37.543645,10.655988 L 35.343645,23.755988 L 37.943645,10.055988 C 38.043645,9.2559885 38.543645,8.8561373 39.143347,8.9225560 C 39.143347,8.9225560 11.197184,4.2555422 10.464942,4.1445964 C 9.1302567,3.9423714 8.9102123,4.6781777 8.8102123,5.2781777 C 9.1102127,4.6781777 9.2436452,4.3559885 9.9436451,4.4559885 L 36.843645,8.9559885 z " fill="#fff" fill-rule="nonzero" stroke="none" stroke-miterlimit="4"/>
  <g fill="#fff" stroke="none" fill-rule="nonzero" stroke-miterlimit="4">
    <linearGradient xlink:href="#f" spreadMethod="pad" id="g" gradientUnits="userSpaceOnUse" x1="20.087400" y1="9.8232002" x2="20.087400" y2="28.438700" gradientTransform="matrix(1.000000,-2.300000e-3,2.300000e-3,1.000000,-0.249900,0.270600)"/>
    <path d="M 28.182373,32.311768 L 7.9000000,26.500000 L 10.951042,6.8000000 L 31.800000,10.500000 L 28.182373,32.311768 z " fill="url(#g)" stroke="#000" stroke-width=".5984"/>
    <linearGradient xlink:href="#h" spreadMethod="pad" id="i" gradientUnits="userSpaceOnUse" x1="20.356001" y1="9.8906002" x2="20.356001" y2="28.504700" gradientTransform="matrix(1.000000,-2.300000e-3,2.300000e-3,1.000000,-0.249900,0.270600)"/>
    <path d="M 28.400000,32.300000 L 8.2000000,26.500000 L 11.313802,6.9255208 L 32.100000,10.500000 L 28.400000,32.300000 z " fill="url(#i)"/>
    <linearGradient xlink:href="#j" spreadMethod="pad" id="k" gradientUnits="userSpaceOnUse" x1="20.882799" y1="9.0415001" x2="20.882799" y2="16.484100" gradientTransform="matrix(1.000000,-2.300000e-3,2.300000e-3,1.000000,-0.249900,0.270600)"/>
    <path d="M12.1,8c-0.1,0-0.2,0.2-0.3,0.4l-1.3,9.4c0,0.2,0,0.4,0.2,0.4c5.5,0,14.6-2.5,19.7-4.9c0.2-0.1,0.3-0.3,0.3-0.6l0.1-0.9c0-0.3,0-0.5-0.2-0.5L12.1,8z" opacity=".58" fill="url(#k)"/>
    <g>
      <path d="M10.7,21.5l3-0.9l-2.6-2.3l0.3-2.1l4.2,4l-0.3,1.9l-5,1.6l0.3-2.1z"/>
      <path d="M15.1,26.5l4.4,1.2l-0.1,0.6L15,27.1l0.1-0.6z"/>
    </g>
  </g>
  <g stroke="none" fill="#dedede" fill-rule="nonzero" stroke-miterlimit="4">
    <linearGradient id="l" gradientUnits="userSpaceOnUse" x1="32.0039" y1="27.7031" x2="33.0332" y2="26.4914">
      <stop offset="0" stop-color="#9f9f9f"/>
      <stop offset="1" stop-color="#828282"/>
    </linearGradient>
    <path d="M34,27.2l-2.7-0.6l-0.1,0.7l2.9-0.1z" fill="url(#l)"/>
    <path d="M33.8,27.9l0.2-0.7l-2.9,0.1l2.7,0.6z"/>
    <linearGradient id="m" gradientUnits="userSpaceOnUse" x1="32.5283" y1="24.5972" x2="33.557" y2="23.3861">
      <stop offset="0" stop-color="#9f9f9f"/>
      <stop offset="1" stop-color="#828282"/>
    </linearGradient>
    <path d="M34.6,24.1l-2.7-0.6l-0.1,0.7l2.9-0.1z" fill="url(#m)"/>
    <path d="M34.4,24.8l0.2-0.7l-2.9,0.1l2.7,0.6z"/>
    <g>
      <linearGradient id="n" gradientUnits="userSpaceOnUse" x1="33.0547" y1="21.4922" x2="34.0832" y2="20.2814">
        <stop offset="0" stop-color="#9f9f9f"/>
        <stop offset="1" stop-color="#828282"/>
      </linearGradient>
      <path d="M35.1,21l-2.7-0.6l-0.1,0.7l2.9-0.1z" fill="url(#n)"/>
      <path d="M34.9,21.7l0.2-0.7l-2.9,0.1l2.7,0.6z"/>
    </g>
    <g>
      <linearGradient id="o" gradientUnits="userSpaceOnUse" x1="33.5791" y1="18.3857" x2="34.607" y2="17.1757">
        <stop offset="0" stop-color="#9f9f9f"/>
        <stop offset="1" stop-color="#828282"/>
      </linearGradient>
      <path d="M35.6,17.9l-2.7-0.6L32.8,18l2.9-0.1z" fill="url(#o)"/>
      <path d="M35.4,18.6l0.2-0.7L32.8,18l2.7,0.6z"/>
    </g>
    <g>
      <linearGradient id="p" gradientUnits="userSpaceOnUse" x1="34.1055" y1="15.2808" x2="35.1331" y2="14.0709">
        <stop offset="0" stop-color="#9f9f9f"/>
        <stop offset="1" stop-color="#828282"/>
      </linearGradient>
      <path d="M36.1,14.8l-2.7-0.6l-0.1,0.7l2.9-0.1z" fill="url(#p)"/>
      <path d="M35.9,15.5l0.2-0.7l-2.9,0.1l2.7,0.6z"/>
    </g>
    <g>
      <linearGradient id="q" gradientUnits="userSpaceOnUse" x1="34.6309" y1="12.1758" x2="35.658" y2="10.9666">
        <stop offset="0" stop-color="#9f9f9f"/>
        <stop offset="1" stop-color="#828282"/>
      </linearGradient>
      <path d="M36.7,11.7l-2.7-0.6l-0.1,0.7l2.9-0.1z" fill="url(#q)"/>
      <path d="M36.5,12.4l0.2-0.7l-2.9,0.1l2.7,0.6z"/>
    </g>
    <g>
      <linearGradient id="r" gradientUnits="userSpaceOnUse" x1="35.1162" y1="12.1353" x2="35.8561" y2="11.2642">
        <stop offset="0" stop-color="#9f9f9f"/>
        <stop offset="1" stop-color="#828282"/>
      </linearGradient>
      <path d="M34.3,11.7l2,0.4l0.1-0.5l-2.1,0.1z" fill="url(#r)"/>
      <path d="M34.5,11.2l-0.1,0.5l2.1-0.1l-1.9-0.4z"/>
      <linearGradient id="s" gradientUnits="userSpaceOnUse" x1="34.6074" y1="15.2417" x2="35.3468" y2="14.3713">
        <stop offset="0" stop-color="#9f9f9f"/>
        <stop offset="1" stop-color="#828282"/>
      </linearGradient>
      <path d="M33.8,14.8l2,0.4l0.1-0.5l-2.1,0.1z" fill="url(#s)"/>
      <path d="M34,14.3l-0.1,0.5l2.1-0.1L34,14.3z"/>
      <g>
        <linearGradient id="t" gradientUnits="userSpaceOnUse" x1="34.0967" y1="18.3472" x2="34.8358" y2="17.477">
          <stop offset="0" stop-color="#9f9f9f"/>
          <stop offset="1" stop-color="#828282"/>
        </linearGradient>
        <path d="M33.3,17.9l2,0.4l0.1-0.5l-2.1,0.1z" fill="url(#t)"/>
        <path d="M33.5,17.4l-0.1,0.5l2.1-0.1l-1.9-0.4z"/>
      </g>
      <g>
        <linearGradient id="u" gradientUnits="userSpaceOnUse" x1="33.5879" y1="21.4531" x2="34.326" y2="20.5842">
          <stop offset="0" stop-color="#9f9f9f"/>
          <stop offset="1" stop-color="#828282"/>
        </linearGradient>
        <path d="M32.8,21l2,0.4l0.1-0.5L32.8,21z" fill="url(#u)"/>
        <path d="M32.9,20.5L32.8,21l2.1-0.1l-1.9-0.4z"/>
      </g>
      <g>
        <linearGradient id="v" gradientUnits="userSpaceOnUse" x1="33.0771" y1="24.5581" x2="33.8151" y2="23.6894">
          <stop offset="0" stop-color="#9f9f9f"/>
          <stop offset="1" stop-color="#828282"/>
        </linearGradient>
        <path d="M32.3,24.1l2,0.4l0.1-0.5l-2.1,0.1z" fill="url(#v)"/>
        <path d="M32.4,23.6l-0.1,0.5l2.1-0.1l-1.9-0.4z"/>
      </g>
      <g>
        <linearGradient id="w" gradientUnits="userSpaceOnUse" x1="32.5674" y1="27.665" x2="33.3048" y2="26.7969">
          <stop offset="0" stop-color="#9f9f9f"/>
          <stop offset="1" stop-color="#828282"/>
        </linearGradient>
        <path d="M31.8,27.2l2,0.4l0.1-0.5l-2.1,0.1z" fill="url(#w)"/>
        <path d="M31.9,26.7l-0.1,0.5l2.1-0.1l-1.9-0.4z"/>
      </g>
    </g>
  </g>
</svg>
