<svg xmlns="http://www.w3.org/2000/svg" xmlns:xlink="http://www.w3.org/1999/xlink" viewBox="0 0 330 220"><g transform="translate(0 -832.36)"><path d="m 22.915 1047.61 c -12.431 -18.254 -19.662 -41.769 -19.997 -65.03 l -0.168 -11.644 l 3.354 -1.475 c 2.777 -1.222 4.216 -3.198 8.371 -11.5 6.668 -13.324 15.805 -28.23 23.23 -37.905 3.327 -4.334 6.782 -8.834 7.679 -10 0.897 -1.166 4.604 -10.895 8.237 -21.62 15.189 -44.832 15 -44.35 17.807 -45.925 2.286 -1.283 2.861 -1.289 4.356 -0.048 1.462 1.213 1.63 2.568 1.107 8.952 -0.632 7.728 -0.903 9.94 -4.63 37.853 -1.199 8.982 -1.946 16.566 -1.66 16.852 0.287 0.287 0.797 -1.212 1.133 -3.331 0.855 -5.379 5.211 -27.08 7.599 -37.852 1.097 -4.95 2.604 -12.415 3.347 -16.588 2.219 -12.454 6.163 -17.4 10.642 -13.347 2.231 2.02 2.537 8.175 0.953 19.17 -0.536 3.723 -1.922 14.419 -3.079 23.769 -1.157 9.35 -2.743 20.01 -3.525 23.697 -2.486 11.718 -1.811 14.619 3.115 13.383 2.836 -0.712 13.197 -13.749 24.1 -30.33 7.094 -10.785 9.42 -14.66 14.619 -24.354 6.453 -12.03 9.832 -15.232 14.287 -13.522 2.287 0.878 4.606 7.164 3.829 10.38 -0.962 3.983 -13.686 29.336 -20.19 40.23 -0.925 1.548 -3.884 6.572 -6.576 11.163 -2.692 4.591 -6.166 9.97 -7.72 11.953 -3.495 4.462 -4.959 8.155 -3.908 9.856 1.837 2.972 23.22 -30.772 30.712 -48.46 3.778 -8.923 6.01 -11.672 9.17 -11.306 5.469 0.633 3.908 8.516 -6.593 33.31 -3.03 7.15 -6.737 15.25 -8.24 18 -1.503 2.75 -4.66 8.6 -7.01 13 -2.355 4.4 -4.806 8.675 -5.448 9.5 -5.061 6.512 -15.527 35.3 -15.549 42.775 -0.011 3.746 0.327 4.405 2.737 5.331 3.789 1.455 7.951 0.605 13.792 -2.817 7.425 -4.35 13.08 -6.33 19.857 -6.954 8.337 -0.768 14.162 0.915 16.09 4.652 3.01 5.812 1.217 9.936 -5.315 12.256 -2.582 0.917 -10.04 5.099 -16.57 9.293 -25.07 16.1 -40.631 21.605 -56.38 19.957 -5.707 -0.597 -6.698 -0.404 -11 2.15 -6.192 3.675 -30 14.915 -37.877 17.878 l -6.184 2.328 l -2.502 -3.674 z" id="0"/><use transform="matrix(-1 0 0 1 330.91 0)" width="330" height="220" xlink:href="#0"/></g></svg>