<?xml version="1.0" encoding="UTF-8" standalone="no"?>
<!-- Created with Inkscape (http://www.inkscape.org/) -->
<svg id="svg20865" xmlns:rdf="http://www.w3.org/1999/02/22-rdf-syntax-ns#" xmlns="http://www.w3.org/2000/svg" height="420" width="420" version="1.1" xmlns:cc="http://creativecommons.org/ns#" xmlns:dc="http://purl.org/dc/elements/1.1/" viewBox="0 0 420 420.00001">
 <metadata id="metadata20870">
  <rdf:RDF>
   <cc:Work rdf:about="">
    <dc:format>image/svg+xml</dc:format>
    <dc:type rdf:resource="http://purl.org/dc/dcmitype/StillImage"/>
    <dc:title/>
   </cc:Work>
  </rdf:RDF>
 </metadata>
 <g id="layer13" transform="translate(-.000015259 -632.36)">
  <circle id="path22641" cx="210" stroke="#000" cy="842.36" r="200" stroke-width="20" fill="none"/>
  <path id="path22645" d="m162.25 1038.6s17.852-7.4633 25.75-19.75c12.318-19.162 15.75-66.5 15.75-66.5v-58.5s-4.2057-13.351-12-19.25c-4.9948-3.78-15.75-10.25-15.75-10.25s-9.8828 16.082-18 19.75c-16.839 7.6085-21.121-0.49293-26 2-8.2638 4.2225-17.508 24.359-19 28.5-1.063 2.9511 9.4157 4.2599 4 13.5-3.2838 5.6027-17.763 6.0966-19.25 2.75-5.052-11.368 3.75-39.25 3.75-39.25s-21.811 5.321-34.5 5.25c-10.673-0.0597-8.5253-5.7333-5.75-6.75 8.4875-3.1093 31.919-12.446 30.75-19-0.47231-2.6482-5.6423-0.57853-7.75-2.25-5.9932-4.7528-11.999-11.98-11.25-20 1.0295-11.017 12.443-13.983 18.25-7.25 2.9729 3.4473 0.9492 12.388 5.5 12.5 15.894 0.38947 24.353-27.387 38.75-32.75 11.311-4.213 23.964 0.83284 34.75 6.25 15.061 7.5646 36.25 35.25 36.25 35.25s3.4844-24.359 3.25-35.75c-0.13169-6.398-2.5-17.25-2.5-17.25s-12.836-5.3924-16.5-15c-13.011-34.121 6.0412-34.506 5.5-48.5-0.37189-9.6166-4.6037-23.17-14-25.25-3.32-0.735-5.0163 7.0514-8.25 6-5.9146-1.9231-9.5427-12.821-5.75-17.75 10.047-13.057 35.25 8.5 35.25 8.5s3.3674-13.362 5-19.75c2.2829-8.9324 0.81735-27.699 6-27 7.7724 1.0483 9.0851 25.587 11.5 38.25 0.51137 2.6814 4 7.75 4 7.75s11.077-13.639 20.5-13.25c20.377 0.84076 14.8 20.424 3.75 25.75-6.5375 3.1509-7.6878 9.6164-9.25-2.5-0.36248-2.8113 2.5692-8.2057-0.25-8.5-2.7461-0.28668-7.6848 9.87-8 15.75-0.40236 7.5047 13.148 25.229 13.75 39 1.1623 26.581-22 34.5-22 34.5s-5.3616 18.441-6.5 27.75c-1.2544 10.257-0.25 30.5-0.25 30.5s9.6989-6.5594 14-10.5c4.7863-4.3852 13-14.5 13-14.5s1.4671-9.54 8.25-13c25.993-13.259 40.577 2.433 49.25 1.5 8.5031-0.91467 21.5-14 21.5-14s0.62515-9.9082 7-11.25c8.4276-1.7738 12.587 6.8007 13.75 13 1.4259 7.5989-9.25 12.25-9.25 12.25l-17 17.5s25.161 5.08 36 11.5c17.237 10.21-19.91 4.7918-27.5 6-5.5986 0.89118-15.5 7-15.5 7s4.5969 5.6549 6.5 8.75c1.952 3.1747 5.75 10 5.75 10s5.8352-3.3133 8.5 9.5c1.9304 9.2822-8.4314 16.116-15.5 15.75-14.133-0.73252-10.282-16.745-14.5-26.75-1.4883-3.5297-7.25-7.75-7.25-7.75s-8.6395 5.3612-17.25 4.5c-21.006-2.1008-29.25-23-29.25-23s-12.963 2.662-24.5 25.75c-5.3581 10.722-9.25 34.75-9.25 34.75v22s4.1092 48.418 16.25 68.5c6.1728 10.211 27 23.5 27 23.5z" fill-rule="evenodd"/>
 </g>
</svg>
