<?xml version="1.0" encoding="UTF-8" standalone="no"?>
<!-- Created with Inkscape (http://www.inkscape.org/) -->
<svg
   xmlns:dc="http://purl.org/dc/elements/1.1/"
   xmlns:cc="http://creativecommons.org/ns#"
   xmlns:rdf="http://www.w3.org/1999/02/22-rdf-syntax-ns#"
   xmlns:svg="http://www.w3.org/2000/svg"
   xmlns="http://www.w3.org/2000/svg"
   xmlns:sodipodi="http://sodipodi.sourceforge.net/DTD/sodipodi-0.dtd"
   xmlns:inkscape="http://www.inkscape.org/namespaces/inkscape"
   viewBox="0 0 296 246.15625"
   width="100%"
   height="100%"
   sodipodi:version="0.32"
   inkscape:version="0.46"
   sodipodi:docname="anarchy_outline.svg"
   inkscape:output_extension="org.inkscape.output.svg.inkscape"
   version="1.0"
   id="svg3332">
  <defs
     id="defs3334">
    <inkscape:perspective
       sodipodi:type="inkscape:persp3d"
       inkscape:vp_x="0 : 526.18109 : 1"
       inkscape:vp_y="0 : 1000 : 0"
       inkscape:vp_z="744.09448 : 526.18109 : 1"
       inkscape:persp3d-origin="372.04724 : 350.78739 : 1"
       id="perspective10" />
    <inkscape:perspective
       id="perspective2447"
       inkscape:persp3d-origin="372.04724 : 350.78739 : 1"
       inkscape:vp_z="744.09448 : 526.18109 : 1"
       inkscape:vp_y="0 : 1000 : 0"
       inkscape:vp_x="0 : 526.18109 : 1"
       sodipodi:type="inkscape:persp3d" />
    <style
       type="text/css"
       id="style3338">
      #background { fill: #ff9208; }
      #foreground { fill: #056864; stroke: black;}
    </style>
  </defs>
  <sodipodi:namedview
     id="base"
     pagecolor="#ffffff"
     bordercolor="#666666"
     borderopacity="1.0"
     gridtolerance="10000"
     guidetolerance="10"
     objecttolerance="10"
     inkscape:pageopacity="0.0"
     inkscape:pageshadow="2"
     inkscape:zoom="1.979899"
     inkscape:cx="161.45739"
     inkscape:cy="97.623838"
     inkscape:document-units="px"
     inkscape:current-layer="layer1"
     showgrid="false"
     inkscape:window-width="1280"
     inkscape:window-height="824"
     inkscape:window-x="158"
     inkscape:window-y="25" />
  <metadata
     id="metadata7">
    <rdf:RDF>
      <cc:Work
         rdf:about="">
        <dc:format>image/svg+xml</dc:format>
        <dc:type
           rdf:resource="http://purl.org/dc/dcmitype/StillImage" />
      </cc:Work>
    </rdf:RDF>
  </metadata>
  <g
     inkscape:label="Layer 1"
     inkscape:groupmode="layer"
     id="layer1"
     transform="translate(-65.65625,-218.15625)">
    <path
       id="foreground"
       d="M 239.15625,218.65625 L 236.40625,219 L 233.65625,219.3125 L 231.65625,223.3125 L 229.65625,227.3125 L 229.34375,224.0625 L 229,220.8125 L 226.09375,220.8125 L 223.15625,220.8125 L 223.15625,221.8125 L 223.15625,222.8125 L 219.6875,222.8125 L 216.25,222.8125 L 215.6875,223.6875 C 215.38106,224.18334 214.77946,229.13383 214.3125,234.65625 L 213.4375,244.6875 L 211.875,247.09375 L 210.3125,249.46875 L 207.09375,249 L 203.875,248.53125 L 190.75,250.21875 L 177.65625,251.90625 L 169.65625,254.5 C 165.25625,255.93439 159.05306,258.40537 155.90625,259.96875 C 152.75943,261.53214 149.55363,262.81251 148.75,262.8125 L 147.28125,262.8125 L 146.65625,264.78125 L 146.03125,266.78125 L 142.53125,268.4375 L 139,270.09375 L 131.34375,279.5 L 123.65625,288.9375 L 119.40625,296.96875 C 117.06875,301.38018 115.14249,305.74371 115.125,306.65625 C 115.10751,307.56879 114.4325,309.18239 113.625,310.25 L 112.15625,312.1875 L 112.125,315.25 L 112.09375,318.3125 L 110.625,320.25 C 109.81749,321.31762 109.15625,322.96968 109.15625,323.9375 C 109.15625,324.90531 108.65212,327.93818 108.0625,330.6875 L 107,335.6875 L 102.8125,336.25 C 100.51462,336.55933 92.131249,336.96958 84.15625,337.15625 L 69.65625,337.5 L 67.90625,338.25 L 66.15625,339 L 66.15625,341.78125 L 66.15625,344.53125 L 70.03125,345.15625 L 73.9375,345.78125 L 75,348.8125 L 76.03125,351.8125 L 77.40625,351.8125 C 79.28681,351.8125 84.115517,354.15162 84.125,355.0625 L 84.15625,355.8125 L 81.1875,355.8125 L 78.25,355.8125 L 77.65625,356.78125 C 77.32556,357.3163 75.27053,358.22635 73.09375,358.8125 L 69.15625,359.875 L 69.15625,362.375 L 69.15625,364.84375 L 71.90625,365.84375 C 73.41875,366.39148 75.665522,367.36667 76.90625,368 L 79.15625,369.15625 L 86.90625,367.96875 L 94.65625,366.78125 L 102.21875,366.78125 L 109.8125,366.8125 L 111.6875,372.5625 C 112.7163,375.725 114.17609,379.04422 114.9375,379.96875 C 115.6989,380.89328 117.08838,383.14327 118,384.96875 L 119.65625,388.3125 L 111.375,400.3125 C 102.44195,413.2772 97.396028,420.44567 93.71875,425.5 L 91.40625,428.71875 L 91.40625,435.25 L 91.40625,441.8125 L 93.8125,441.8125 L 96.21875,441.8125 L 98.6875,440.1875 L 101.15625,438.5625 L 101.15625,439.6875 L 101.15625,440.8125 L 103.3125,440.8125 L 105.46875,440.8125 L 108.71875,438.3125 L 112,435.78125 L 112.34375,439.0625 L 112.65625,442.3125 L 115.40625,442.625 L 118.15625,442.9375 L 119.90625,439.6875 C 120.86438,437.89882 123.93582,434.10042 126.75,431.25 L 131.875,426.0625 L 133.59375,421.1875 C 136.45142,413.11925 137.076,411.81251 137.90625,411.8125 C 138.34309,411.8125 140.9918,413.32984 143.8125,415.1875 C 150.0726,419.31026 155.00285,421.81251 156.84375,421.8125 C 157.60253,421.8125 160.44282,422.93751 163.15625,424.3125 L 168.0625,426.8125 L 171.5625,426.8125 L 175.03125,426.8125 L 176.375,428.71875 L 177.6875,430.625 L 193.65625,431.1875 C 202.44094,431.5055 210.69087,432.04747 211.96875,432.40625 L 214.28125,433.0625 L 218.46875,431.78125 C 220.76587,431.07347 225.90717,429.4482 229.90625,428.15625 C 233.90533,426.86432 238.31033,425.81251 239.6875,425.8125 L 242.1875,425.8125 L 242.78125,428.8125 L 243.40625,431.8125 L 244.1875,431.8125 L 244.96875,431.8125 L 246.6875,436.25 L 248.375,440.6875 L 250.4375,441 L 252.5,441.3125 L 254.15625,447.3125 L 255.78125,453.3125 L 258.46875,453.625 L 261.15625,453.9375 L 261.15625,446.375 L 261.15625,438.8125 L 262.9375,438.8125 L 264.75,438.8125 L 268.375,446.5625 C 270.37994,450.825 272.78886,456.45001 273.71875,459.0625 L 275.40625,463.8125 L 277.65625,463.8125 L 279.875,463.8125 L 280.5,459.15625 C 280.84975,456.60448 281.15624,451.03703 281.15625,446.78125 L 281.15625,439.03125 L 279.75,432.1875 C 278.97674,428.40753 277.79977,421.71251 277.15625,417.3125 C 276.51272,412.9125 275.74708,408.336 275.46875,407.15625 L 274.96875,405 L 278.125,403.15625 L 281.25,401.3125 L 284.3125,396.53125 L 287.40625,391.75 L 289.09375,390.8125 L 290.8125,389.90625 L 294.0625,381.6875 C 295.8499,377.1643 299.31594,369.783 301.75,365.28125 L 306.15625,357.09375 L 313.125,356.4375 L 320.09375,355.78125 L 334.40625,356.4375 L 348.71875,357.09375 L 352.1875,356.03125 C 354.0889,355.4504 356.89374,354.70988 358.40625,354.375 L 361.15625,353.75 L 361.15625,351.25 L 361.15625,348.75 L 358.5625,347.78125 L 356,346.8125 L 346.1875,346.8125 L 336.375,346.8125 L 335.21875,345.40625 L 334.0625,344 L 328.84375,343.375 C 325.98092,343.04251 320.01112,342.5092 315.5625,342.1875 L 307.46875,341.59375 L 306.25,330.46875 L 305.03125,319.3125 L 302.96875,312.8125 C 301.83072,309.2375 300.22833,304.34924 299.40625,301.96875 L 297.90625,297.65625 L 294.5625,294.59375 L 291.1875,291.53125 L 290.53125,289.40625 C 290.16832,288.24559 288.79974,286.02345 287.5,284.46875 L 285.15625,281.65625 L 285.15625,280.21875 L 285.15625,278.8125 L 283.6875,278.8125 L 282.21875,278.8125 L 279.71875,276.3125 L 277.21875,273.8125 L 274.1875,273.8125 L 271.15625,273.8125 L 271.15625,271.71875 L 271.15625,269.625 L 268.90625,267.6875 C 263.94004,263.42101 253.37966,258.84674 248.4375,258.8125 L 246.25,258.8125 L 245.75,257.96875 C 245.46809,257.51261 244.75557,254.0251 244.15625,250.21875 C 242.93759,242.4788 241.14343,236.8125 239.9375,236.8125 L 239.15625,236.8125 L 239.15625,227.75 L 239.15625,218.65625 z M 236.90625,221.71875 L 236.4375,229.46875 L 235.96875,237.21875 L 237.3125,238.25 C 238.04362,238.82452 239.21875,240.91095 239.90625,242.875 L 241.15625,246.4375 L 241.15625,251.125 L 241.15625,255.8125 L 242.15625,255.8125 L 243.15625,255.8125 L 243.15625,258.3125 L 243.15625,260.8125 L 245.40625,260.84375 C 250.96944,260.95287 259.59603,264.44415 265.6875,269.0625 L 268,270.84375 L 268.3125,273.5625 L 268.65625,276.3125 L 271.8125,276.0625 L 275,275.8125 L 277.8125,278.8125 L 280.625,281.8125 L 281.875,281.8125 L 283.15625,281.8125 L 283.15625,282.90625 C 283.15625,283.51436 284.28124,285.33466 285.65625,286.96875 C 287.03125,288.60284 288.15624,290.5076 288.15625,291.1875 L 288.15625,292.4375 L 291.28125,295.375 L 294.40625,298.3125 L 296.75,303.3125 C 298.05006,306.0625 299.11964,309.02825 299.125,309.90625 C 299.13037,310.78425 299.7883,312.82293 300.59375,314.4375 L 302.0625,317.375 L 303.1875,326.34375 C 304.27384,334.99357 304.37527,336.99599 303.875,341.3125 L 303.65625,343.3125 L 305.65625,343.46875 C 306.75625,343.56396 313.05624,344.22008 319.65625,344.90625 L 331.65625,346.15625 L 332.34375,347.21875 L 333.0625,348.3125 L 344.46875,348.90625 L 355.875,349.53125 L 357.125,350.28125 L 358.34375,351.0625 L 357,351.90625 C 356.25378,352.37908 354.48333,352.77282 353.0625,352.78125 C 351.64166,352.78967 350.17453,353.10671 349.8125,353.46875 L 349.15625,354.125 L 330.40625,353.96875 L 311.65625,353.84375 L 307.65625,354.59375 L 303.65625,355.34375 L 302.25,358.3125 C 301.47817,359.95369 299.11887,364.20974 297,367.75 L 293.15625,374.1875 L 293.15625,375.8125 C 293.15625,376.70679 292.02041,379.73473 290.65625,382.5625 L 288.1875,387.71875 L 286.40625,388.65625 L 284.65625,389.625 L 282.28125,393.96875 L 279.90625,398.3125 L 275.9375,401.125 L 271.9375,403.9375 L 272.53125,406.125 C 272.84991,407.32841 273.82509,413.03751 274.71875,418.8125 C 275.61243,424.5875 276.8696,431.78751 277.5,434.8125 L 278.65625,440.3125 L 278.15625,450.8125 L 277.65625,461.3125 L 276.46875,458.3125 C 275.81812,456.6625 274.9665,454.18751 274.59375,452.8125 C 274.221,451.4375 272.14641,447.05001 269.96875,443.0625 L 266,435.8125 L 263.125,435.8125 L 260.25,435.8125 L 259.5,437.03125 L 258.75,438.25 L 258.96875,444.59375 L 259.21875,450.96875 L 258.1875,450.3125 C 257.61696,449.95988 257.15624,449.22663 257.15625,448.65625 C 257.15625,448.08586 256.42653,445.19089 255.5625,442.21875 L 254,436.8125 L 252.5625,436.8125 L 251.15625,436.8125 L 251.09375,438.0625 L 251.03125,439.3125 L 249.3125,435.09375 C 248.36951,432.77253 247.05128,430.30128 246.375,429.625 C 245.69871,428.94871 245.15625,427.64141 245.15625,426.71875 L 245.15625,425.03125 L 243.625,423.78125 L 242.125,422.53125 L 236.90625,423.25 C 234.03615,423.63073 231.21999,424.30733 230.65625,424.75 C 230.0925,425.19266 226.50625,426.45678 222.65625,427.59375 L 215.65625,429.6875 L 207.65625,429.15625 C 203.25625,428.87099 195.38125,428.62016 190.15625,428.59375 L 180.65625,428.53125 L 177.8125,426.15625 L 175,423.8125 L 172.03125,423.8125 L 169.0625,423.8125 L 165.15625,421.8125 L 161.21875,419.8125 L 159.25,419.8125 L 157.25,419.8125 L 153.4375,417.5625 C 151.34356,416.33349 147.39372,413.85848 144.65625,412.0625 L 139.6875,408.8125 L 138.0625,408.8125 L 136.4375,408.8125 L 134.8125,410.625 L 133.15625,412.46875 L 133.15625,413.96875 C 133.15625,414.80009 131.79237,418.16334 130.15625,421.4375 L 127.1875,427.375 L 124.1875,429.625 L 121.15625,431.84375 L 119.125,435.8125 L 117.09375,439.8125 L 116.125,439.8125 L 115.15625,439.8125 L 115.15625,436.3125 L 115.15625,432.8125 L 113.0625,432.8125 L 111,432.8125 L 107.40625,435.5625 L 103.8125,438.28125 L 103.40625,437.0625 L 102.96875,435.8125 L 101.1875,435.8125 L 99.40625,435.8125 L 96.6875,437.9375 L 93.96875,440.09375 L 94.40625,433.96875 L 94.875,427.84375 L 98.25,423.90625 C 100.11164,421.74242 103.21405,417.78489 105.125,415.125 C 111.08391,406.83067 123.15625,388.5044 123.15625,387.75 C 123.15625,387.35448 122.5084,386.49909 121.71875,385.84375 L 120.28125,384.65625 L 119.625,381.75 L 119,378.8125 L 117.5,378 L 116.03125,377.15625 L 114.21875,371.28125 L 112.40625,365.375 L 109.53125,364.5625 L 106.65625,363.71875 L 98.15625,364.34375 C 93.48125,364.69284 87.64983,365.36772 85.21875,365.8125 L 80.8125,366.59375 L 77.71875,365.28125 C 76.02483,364.54993 73.756249,363.61288 72.65625,363.21875 L 70.65625,362.5 L 74.34375,361.40625 C 76.38339,360.79309 78.629642,359.7141 79.3125,359.03125 L 80.53125,357.8125 L 83.21875,357.8125 L 85.90625,357.8125 L 86.4375,355.78125 L 86.96875,353.78125 L 85.5625,352.375 C 84.79149,351.60399 82.586279,350.44947 80.65625,349.8125 L 77.15625,348.65625 L 77.15625,346.9375 L 77.15625,345.1875 L 75.9375,344 L 74.75,342.8125 L 71.4375,342.8125 L 68.15625,342.8125 L 68.15625,341.84375 L 68.15625,340.90625 L 71.90625,340.1875 C 73.96875,339.79456 79.256249,339.3921 83.65625,339.3125 C 88.05625,339.2329 95.089293,339.1024 99.3125,339 L 107,338.8125 L 108.5,337.28125 L 110.03125,335.78125 L 110.625,331.03125 C 110.9565,328.42532 111.83947,324.96251 112.59375,323.3125 C 113.34803,321.6625 114.20157,318.56823 114.5,316.4375 L 115.0625,312.5625 L 116.59375,310.84375 L 118.15625,309.15625 L 118.21875,306.71875 L 118.28125,304.3125 L 120.1875,301.3125 C 121.23264,299.6625 123.24781,296.16254 124.65625,293.53125 C 126.0647,290.89996 127.99379,287.93498 128.9375,286.96875 C 129.88122,286.00251 132.44093,282.97747 134.625,280.25 C 136.80907,277.52252 139.95907,274.06621 141.625,272.5625 L 144.65625,269.84375 L 146.5,269.8125 L 148.34375,269.8125 L 148.78125,268.0625 L 149.25,266.3125 L 157.4375,262.59375 C 161.94589,260.54913 168.13125,257.96993 171.15625,256.875 L 176.65625,254.875 L 180.8125,254.96875 L 184.96875,255.03125 L 186.25,254.21875 C 186.96353,253.77775 191.55362,252.89025 196.4375,252.21875 L 205.3125,251 L 208.125,251.8125 L 210.96875,252.625 L 213.1875,250.25 L 215.375,247.90625 L 216.28125,238.59375 C 216.77762,233.47538 217.39421,228.70199 217.65625,227.96875 L 218.15625,226.625 L 219.40625,227.0625 L 220.65625,227.5 L 223.125,225.5625 L 225.625,223.625 L 226.125,225.46875 C 226.40345,226.47835 227.18563,228.2125 227.84375,229.3125 L 229.03125,231.3125 L 230.78125,230.21875 L 232.5,229.15625 L 233.65625,225.78125 L 234.78125,222.40625 L 235.84375,222.0625 L 236.90625,221.71875 z M 198.15625,270.53125 L 192.09375,271.21875 C 188.76003,271.59592 182.58552,272.77487 178.40625,273.84375 C 174.227,274.91263 169.80401,275.81251 168.5625,275.8125 L 166.3125,275.8125 L 159.46875,281.28125 C 155.71074,284.30223 151.99232,287.33972 151.1875,288.03125 C 150.38268,288.72276 148.80768,289.74872 147.6875,290.3125 L 145.65625,291.34375 L 145.34375,293.3125 L 145.0625,295.3125 L 141.59375,299.28125 L 138.15625,303.28125 L 138.15625,304.65625 C 138.15625,305.40863 136.71912,309.00261 134.96875,312.65625 L 131.78125,319.3125 L 131.34375,327.5 C 131.10138,332.01429 131.13252,336.2893 131.40625,337 L 131.90625,338.3125 L 143,338.59375 L 154.09375,338.875 L 157.125,334.65625 C 158.79525,332.35053 161.05082,329.83679 162.15625,329.0625 L 164.1875,327.65625 L 166.65625,322.75 L 169.15625,317.84375 L 171.65625,316.21875 L 174.15625,314.5625 L 174.15625,313.21875 C 174.15625,311.52685 183.50178,295.57526 185.4375,293.96875 L 186.875,292.78125 L 186.46875,290.53125 L 186.0625,288.3125 L 189.875,284.3125 C 194.10551,279.8696 198.15625,273.75292 198.15625,271.8125 L 198.15625,270.53125 z M 195.25,273.03125 L 193.875,274.65625 C 193.12042,275.55847 190.38862,278.82196 187.8125,281.90625 L 183.15625,287.53125 L 183.15625,289.34375 L 183.15625,291.15625 L 179.1875,297.21875 C 177.01515,300.5571 174.34912,305.32267 173.25,307.8125 L 171.25,312.34375 L 168.59375,314.8125 L 165.96875,317.3125 L 164.09375,321.4375 L 162.1875,325.5625 L 160.71875,326.125 C 159.90002,326.43917 157.83208,328.63676 156.125,331 L 153,335.3125 L 149.34375,335.8125 C 147.31624,336.0875 142.87235,336.16288 139.46875,336 L 133.25,335.71875 L 133.75,328.625 L 134.25,321.5 L 137.1875,315.03125 C 138.8073,311.45885 140.15625,307.95834 140.15625,307.28125 C 140.15625,306.60417 141.95625,303.79433 144.15625,301.03125 L 148.15625,296 L 148.15625,294.40625 L 148.15625,292.8125 L 149.59375,292.8125 L 151.0625,292.8125 L 153.4375,290.5625 C 157.44108,286.78559 165.30761,280.37868 167.53125,279.09375 L 169.65625,277.875 L 172.34375,277.84375 C 173.83037,277.82426 176.08037,277.34962 177.34375,276.8125 C 178.60713,276.27538 183.14431,275.21509 187.4375,274.4375 L 195.25,273.03125 z M 243.46875,275.75 L 241.8125,276.375 L 240.15625,277 L 240.15625,278.46875 C 240.15625,279.26222 240.80598,281.19743 241.625,282.78125 L 243.125,285.65625 L 242.5625,288.46875 L 242.03125,291.3125 L 243.59375,303.15625 C 245.42562,317.00719 245.97578,319.56715 247.8125,322.40625 L 249.1875,324.5 L 249.625,329.40625 C 249.86338,332.09915 250.06771,334.56793 250.09375,334.90625 C 250.11979,335.24458 251.07054,336.72778 252.21875,338.1875 L 254.3125,340.84375 L 270.03125,340.5 L 285.71875,340.1875 L 286.9375,339.4375 L 288.15625,338.6875 L 288.15625,334.40625 L 288.15625,330.09375 L 286.53125,326.90625 L 284.9375,323.71875 L 285.5625,321.28125 L 286.1875,318.8125 L 282.96875,313.96875 L 279.75,309.125 L 276.4375,306.9375 L 273.15625,304.78125 L 273.15625,302.9375 L 273.15625,301.0625 L 270.96875,298.3125 C 269.77146,296.7904 268.7225,294.80549 268.65625,293.90625 C 268.59,293.00702 268.20904,291.73536 267.8125,291.09375 L 267.09375,289.9375 L 263.75,290.46875 L 260.375,291.03125 L 257.90625,287.40625 L 255.46875,283.8125 L 249.46875,279.78125 L 243.46875,275.75 z M 219.6875,277.3125 C 219.28792,277.3125 218.32372,278.55001 217.53125,280.0625 L 216.09375,282.8125 L 215.125,282.8125 L 214.15625,282.8125 L 214.15625,284.125 L 214.15625,285.40625 L 211,288.625 C 207.86102,291.83563 205.08423,296.12765 203.0625,300.8125 C 199.98975,307.93282 197.65847,311.90341 193.15625,317.8125 C 190.43242,321.3875 188.20751,324.84196 188.1875,325.5 C 188.1675,326.15804 186.54808,329.41547 184.59375,332.75 L 181.03125,338.8125 L 181.5625,339.6875 L 182.125,340.5625 L 193.875,340.0625 C 200.34375,339.78089 210.15625,339.50576 215.65625,339.4375 L 225.65625,339.3125 L 225.46875,330.3125 L 225.28125,321.3125 L 224.15625,315.3125 L 223.03125,309.3125 L 222.78125,295.8125 L 222.5,282.3125 L 221.46875,279.8125 C 220.89314,278.4375 220.08708,277.31251 219.6875,277.3125 z M 242.65625,279.46875 L 243.6875,279.875 C 244.26651,280.10194 246.75767,281.62274 249.21875,283.25 L 253.6875,286.21875 L 255.6875,289.25 L 257.65625,292.3125 L 261.90625,292.59375 L 266.15625,292.90625 L 266.15625,295.21875 L 266.15625,297.5 L 268.09375,299.25 L 270.03125,301 L 270.6875,303.9375 L 271.3125,306.875 L 274.21875,309 C 275.81449,310.17979 278.28137,312.86337 279.71875,314.9375 L 282.34375,318.6875 L 282.625,323.34375 L 282.9375,328 L 284.03125,329.09375 L 285.15625,330.1875 L 285.15625,334 L 285.15625,337.8125 L 276.90625,337.8125 C 272.36875,337.82001 267.75624,337.98223 266.65625,338.1875 C 265.55625,338.39278 262.46213,338.25814 259.78125,337.875 L 254.90625,337.1875 L 253.53125,335.3125 L 252.15625,333.40625 L 252.09375,329.875 L 252.0625,326.3125 L 250.5,322.3125 C 249.64471,320.1125 248.31765,315.61251 247.5625,312.3125 L 246.1875,306.3125 L 245.53125,294.3125 L 244.875,282.3125 L 243.75,280.875 L 242.65625,279.46875 z M 218.9375,283.3125 L 219.75,284.09375 L 220.5625,284.90625 L 220.25,294.09375 C 219.78304,308.09191 219.83122,308.94337 221.09375,314.3125 L 222.28125,319.3125 L 222.59375,327.90625 L 222.9375,336.5 L 209.1875,337.125 C 201.62378,337.46907 194.80019,337.9166 194.03125,338.125 C 193.26232,338.33341 190.96824,338.23818 188.90625,337.90625 L 185.15625,337.3125 L 188.125,332.8125 C 189.77214,330.3375 191.12264,327.60892 191.125,326.78125 L 191.15625,325.28125 L 196.40625,318.28125 C 199.29375,314.423 202.36154,309.69531 203.25,307.78125 C 207.74677,298.0935 208.92487,296.06486 212.15625,292.15625 C 214.08125,289.82781 216.37449,286.86303 217.28125,285.59375 L 218.9375,283.3125 z M 270.28125,352.71875 L 265.15625,353.40625 L 260.0625,354.0625 L 259.1875,355.75 L 258.28125,357.40625 L 260.71875,363.34375 L 263.125,369.3125 L 263.125,371.5 C 263.12755,372.71043 263.62317,375.97292 264.21875,378.75 L 265.3125,383.8125 L 266.46875,383.78125 L 267.65625,383.78125 L 272.40625,378.375 L 277.15625,372.9375 L 277.15625,370.9375 L 277.15625,368.90625 L 278.09375,368.3125 C 279.1869,367.6369 281.07816,361.83992 281.71875,357.1875 L 282.15625,354.0625 L 276.21875,353.375 L 270.28125,352.71875 z M 271.46875,355.8125 L 279.3125,355.8125 L 278.625,359.0625 C 278.2532,360.85 277.30316,363.62175 276.53125,365.21875 C 275.75935,366.81575 275.15624,368.74845 275.15625,369.53125 L 275.15625,370.96875 L 272.15625,373.9375 C 270.51455,375.57921 268.77405,377.65069 268.28125,378.53125 L 267.375,380.125 L 266.625,377.71875 C 266.20166,376.39166 265.89152,373.64502 265.96875,371.625 L 266.125,367.96875 L 263.65625,362.65625 L 261.21875,357.375 L 262.4375,356.59375 L 263.65625,355.84375 L 271.46875,355.8125 z M 210.625,356.3125 C 200.18523,356.3125 187.55851,356.56028 182.5625,356.875 L 173.46875,357.4375 L 169.75,360.28125 L 166.03125,363.125 L 164.625,366.46875 L 163.25,369.8125 L 162.3125,369.8125 L 161.34375,369.8125 L 159.75,373.8125 C 158.13934,377.83793 151.66672,387.75909 149.875,388.9375 L 148.90625,389.5625 L 149.28125,390.625 C 149.85181,392.26278 160.03608,399.48744 165.71875,402.28125 L 170.78125,404.78125 L 175.75,405.71875 L 180.6875,406.65625 L 184.65625,408.625 C 186.84074,409.69884 191.80625,411.41728 195.65625,412.46875 C 199.50625,413.5202 203.17992,414.41708 203.84375,414.4375 L 205.0625,414.46875 L 205.5625,413.15625 L 206.0625,411.84375 L 207.5,412.375 L 208.96875,412.9375 L 212.1875,411.28125 L 215.40625,409.625 L 218.53125,410.0625 L 221.65625,410.53125 L 229.15625,407.96875 C 233.28125,406.55429 236.82093,405.26862 237.03125,405.125 C 237.24157,404.98139 237.51253,401.20438 237.65625,396.71875 L 237.9375,388.5625 L 236.03125,388.0625 L 234.15625,387.5625 L 234.15625,384.25 C 234.15625,382.42495 233.69076,379.78086 233.15625,378.375 C 232.62174,376.96913 231.97311,373.22992 231.6875,370.0625 C 231.40189,366.89506 230.8026,362.51251 230.375,360.3125 L 229.59375,356.3125 L 210.625,356.3125 z M 226.9375,357.8125 L 227.5,360.0625 C 227.80642,361.2962 228.75765,367.26251 229.625,373.3125 C 230.49236,379.3625 231.4464,385.55001 231.75,387.0625 L 232.3125,389.8125 L 233.46875,389.8125 L 234.65625,389.8125 L 234.75,396.59375 L 234.875,403.40625 L 228.28125,405.28125 L 221.6875,407.1875 L 218.4375,406.96875 L 215.15625,406.75 L 212.40625,408.15625 L 209.65625,409.5625 L 204.5,410.25 L 199.34375,410.96875 L 198.6875,409.875 L 198.03125,408.8125 L 194.53125,408.8125 L 191.0625,408.8125 L 186.84375,406.65625 C 184.52986,405.47579 180.0565,403.89843 176.875,403.15625 C 170.05694,401.5657 164.5958,398.93213 158.03125,394.03125 L 153.25,390.46875 L 154.1875,388.71875 C 154.69574,387.76909 156.68931,384.94215 158.625,382.40625 L 162.15625,377.78125 L 162.15625,375.96875 L 162.15625,374.15625 L 164.5625,371.875 L 166.96875,369.625 L 167.53125,367.34375 L 168.125,365.0625 L 171.875,362.1875 L 175.65625,359.3125 L 200.28125,359.1875 L 224.90625,359.0625 L 225.9375,358.4375 L 226.9375,357.8125 z M 130.25,358.8125 L 129.75,359.65625 L 129.21875,360.5 L 130.21875,364.15625 L 131.25,367.8125 L 133.1875,366.78125 C 134.26032,366.2071 135.84635,364.64397 136.71875,363.3125 L 138.3125,360.875 L 137.65625,359.84375 L 137.03125,358.8125 L 133.65625,358.8125 L 130.25,358.8125 z M 132.46875,361.03125 C 132.97383,361.15752 135.75,361.03125 135.75,361.03125 L 132.71875,364.8125 L 131.4375,362.0625 L 132.46875,361.03125 z" />
  </g>
</svg>
