<?xml version="1.0" standalone="no"?>
<!--Created with Inkscape (http://www.inkscape.org/)-->
<svg xmlns="http://www.w3.org/2000/svg" xmlns:xlink="http://www.w3.org/1999/xlink" viewBox="0 0 48 48">
  <defs>
    <linearGradient id="f">
      <stop offset="0" stop-color="white" stop-opacity="1"/>
      <stop offset="1" stop-color="white" stop-opacity=".57939917"/>
    </linearGradient>
    <linearGradient id="c">
      <stop offset="0" stop-color="#fff" stop-opacity="1"/>
      <stop offset="1.0000000" stop-color="#d0d0d0" stop-opacity="1"/>
    </linearGradient>
    <linearGradient id="b">
      <stop offset="0" stop-color="#000" stop-opacity="1"/>
      <stop offset="1" stop-color="#000" stop-opacity="0"/>
    </linearGradient>
    <linearGradient id="a">
      <stop offset="0.0000000" stop-color="#000" stop-opacity=".19791669"/>
      <stop offset="1" stop-color="#000" stop-opacity="0"/>
    </linearGradient>
    <linearGradient id="e">
      <stop offset="0" stop-color="#f0f0f0" stop-opacity="1"/>
      <stop offset="1.0000000" stop-color="#ddd" stop-opacity="1"/>
    </linearGradient>
    <linearGradient id="d">
      <stop offset="0" stop-color="#0a0a0a" stop-opacity="1"/>
      <stop offset="1" stop-color="#0a0a0a" stop-opacity="0"/>
    </linearGradient>
    <radialGradient xlink:href="#a" id="s" cx="60.502419" cy="115.07005" fx="60.502419" fy="115.07005" r="56.111115" gradientTransform="matrix(1,0,0,0.213043,-2.766884e-16,90.55513)" gradientUnits="userSpaceOnUse"/>
    <linearGradient xlink:href="#b" id="r" x1="71.236717" y1="152.15218" x2="88.314011" y2="99.212555" gradientUnits="userSpaceOnUse" gradientTransform="matrix(0.368911,0,0,0.409902,1.019997,-3.067345)"/>
    <linearGradient xlink:href="#c" id="w" gradientUnits="userSpaceOnUse" x1="81.89402" y1="22.461552" x2="84.654594" y2="10.41062" gradientTransform="matrix(0.373185,0,0,0.36947,-1.509613,-0.729184)"/>
    <linearGradient xlink:href="#d" id="u" gradientUnits="userSpaceOnUse" gradientTransform="matrix(0.378019,0,0,0.366486,-1.594096,-1.346996)" x1="69.606209" y1="-2.7867124" x2="82.63073" y2="34.12973"/>
    <linearGradient xlink:href="#e" id="t" gradientUnits="userSpaceOnUse" x1="57.903072" y1="65.225105" x2="85.99958" y2="114.99323" gradientTransform="matrix(0.374016,0,0,0.37836,-1.630407,-0.678575)"/>
    <linearGradient xlink:href="#f" id="v" x1="7.9148936" y1="3.8297873" x2="7.9148936" y2="41.371349" gradientUnits="userSpaceOnUse"/>
    <linearGradient id="n">
      <stop offset="0" stop-color="#c9c9c9" stop-opacity="1"/>
      <stop offset="0.5" stop-color="#fff" stop-opacity="1"/>
      <stop offset="0.75" stop-color="#a5a5a5" stop-opacity="1"/>
      <stop offset="1" stop-color="#d4d4d4" stop-opacity="1"/>
    </linearGradient>
    <linearGradient id="o">
      <stop offset="0" stop-color="#fff" stop-opacity="1"/>
      <stop offset="1" stop-color="#fff" stop-opacity=".33725491"/>
    </linearGradient>
    <linearGradient id="m">
      <stop offset="0" stop-color="#ceba00" stop-opacity="1"/>
      <stop offset="1" stop-color="#f18200" stop-opacity="1"/>
    </linearGradient>
    <linearGradient id="p">
      <stop offset="0" stop-color="#9ec4f0" stop-opacity=".30653265"/>
      <stop offset="0.61764705" stop-color="#9ec4f0" stop-opacity=".3137255"/>
      <stop offset="1" stop-color="#9ec4f0" stop-opacity="1"/>
    </linearGradient>
    <linearGradient id="q">
      <stop offset="0" stop-color="#fff" stop-opacity="1"/>
      <stop offset="0.61764705" stop-color="#fff" stop-opacity="1"/>
      <stop offset="1" stop-color="#fff" stop-opacity="0"/>
    </linearGradient>
    <linearGradient id="h">
      <stop offset="0" stop-color="#ffe000" stop-opacity="1"/>
      <stop offset="1.0000000" stop-color="#ff9500" stop-opacity="1"/>
    </linearGradient>
    <linearGradient id="i">
      <stop offset="0" stop-color="#fffce0" stop-opacity="1"/>
      <stop offset="1" stop-color="#e3c191" stop-opacity="1"/>
    </linearGradient>
    <linearGradient id="j">
      <stop offset="0" stop-color="#ff003c" stop-opacity="1"/>
      <stop offset="1.0000000" stop-color="#aa0028" stop-opacity="1"/>
    </linearGradient>
    <linearGradient id="k">
      <stop offset="0" stop-color="#e2e2e2" stop-opacity="1"/>
      <stop offset="1.0000000" stop-color="#979797" stop-opacity="1"/>
    </linearGradient>
    <linearGradient id="g">
      <stop offset="0" stop-color="#000" stop-opacity=".55599999"/>
      <stop offset="1" stop-color="#000" stop-opacity="0"/>
    </linearGradient>
    <linearGradient id="l">
      <stop offset="0" stop-color="white" stop-opacity="1"/>
      <stop offset="1" stop-color="white" stop-opacity=".26180258"/>
    </linearGradient>
    <linearGradient xlink:href="#g" id="E" gradientUnits="userSpaceOnUse" gradientTransform="matrix(0.380296,0,0,0.392807,-38.82518,22.59557)" x1="-46.352661" y1="152.39613" x2="78.067642" y2="90.131828"/>
    <linearGradient xlink:href="#h" id="F" gradientUnits="userSpaceOnUse" gradientTransform="matrix(1.009549,0,0,1.011276,-119.4154,22.6063)" x1="96.115021" y1="28.121029" x2="101.31535" y2="33.392132"/>
    <linearGradient xlink:href="#i" id="G" gradientUnits="userSpaceOnUse" gradientTransform="matrix(0.985533,0,0,1.023857,-118.363,22.76779)" x1="87.762566" y1="40.028625" x2="91.002174" y2="42.9468"/>
    <linearGradient xlink:href="#j" id="H" gradientUnits="userSpaceOnUse" gradientTransform="matrix(-0.356844,0,0,0.358119,-41.38439,32.71276)" x1="-85.481979" y1="27.451311" x2="-94.657013" y2="43.796722"/>
    <linearGradient xlink:href="#k" id="I" gradientUnits="userSpaceOnUse" gradientTransform="matrix(-0.376014,0,0,0.380123,-43.5573,32.42624)" x1="-80.819405" y1="33.768192" x2="-90.566032" y2="44.636120"/>
    <linearGradient xlink:href="#l" id="J" gradientUnits="userSpaceOnUse" gradientTransform="translate(39.88592,-39)" x1="-62.187824" y1="88.562172" x2="-56.165985" y2="94.584015"/>
    <linearGradient xlink:href="#m" id="x" gradientUnits="userSpaceOnUse" gradientTransform="matrix(1.337261,-1.343742,1.337261,1.343742,18.31585,22.84855)" x1="10.628082" y1="20.32057" x2="7.3931365" y2="20.264719"/>
    <linearGradient xlink:href="#n" id="y" gradientUnits="userSpaceOnUse" gradientTransform="matrix(1.919372,-1.919374,1.244767,1.244768,15.39603,29.81732)" x1="6.9188247" y1="17.483641" x2="10.358043" y2="17.483641"/>
    <linearGradient xlink:href="#f" id="z" gradientUnits="userSpaceOnUse" gradientTransform="matrix(1.188058,-1.190399,1.188058,1.190399,20.40016,27.63195)" x1="7.9148936" y1="3.8297873" x2="7.9148936" y2="41.371349"/>
    <linearGradient xlink:href="#o" id="A" gradientUnits="userSpaceOnUse" gradientTransform="matrix(1.285184,-1.287716,1.285184,1.287716,20.26331,23.81808)" x1="4.0145416" y1="2.715862" x2="10.090094" y2="13.239027"/>
    <radialGradient xlink:href="#p" id="B" gradientUnits="userSpaceOnUse" gradientTransform="matrix(1.227473,-2.289857e-16,-7.350568e-17,1.227473,3.136218,-2.253726)" cx="-13.583885" cy="10.198135" fx="-13.583885" fy="10.198135" r="6.1843319"/>
    <radialGradient xlink:href="#q" id="C" gradientUnits="userSpaceOnUse" gradientTransform="matrix(1,-5.22748e-16,4.521585e-16,0.803279,6.096982e-15,0.985551)" cx="-5.3766184" cy="5.0098858" fx="-5.3766184" fy="5.0098858" r="4.372983"/>
    <radialGradient xlink:href="#q" id="D" gradientUnits="userSpaceOnUse" gradientTransform="matrix(1,-2.41086e-16,8.571953e-17,0.803279,-4.880951e-16,0.985551)" cx="-5.3766184" cy="5.0098858" fx="-5.3766184" fy="5.0098858" r="4.372983"/>
  </defs>
  <metadata/>
  <path d="M 36.479999,47 L 47.999999,39.799995 L 30,36 L 36.479999,47 z " fill="url(#r)" fill-opacity="1" fill-rule="evenodd" stroke="none" stroke-width=".25pt" stroke-linecap="butt" stroke-linejoin="miter" stroke-opacity="1"/>
  <path style="marker:none" d="M 116.61353 115.07005 A 56.111115 11.954107 0 1 1  4.391304,115.07005 A 56.111115 11.954107 0 1 1  116.61353 115.07005 z" transform="matrix(0.374257,0,0,0.375482,-1.643478,0.304713)" opacity="1" color="#000" fill="url(#s)" fill-opacity="1" fill-rule="evenodd" stroke="none" stroke-width="2" stroke-linecap="round" stroke-linejoin="round" marker-start="none" marker-mid="none" marker-end="none" stroke-miterlimit="4" stroke-dasharray="none" stroke-dashoffset="0" stroke-opacity="1" visibility="visible" display="inline" overflow="visible"/>
  <path d="M 3.6381241,42.183118 C 4.3693547,30.869709 5.1005853,16.945515 3.5090833,3.543477 L 23.123274,1.5201175 C 26.564358,1.2807954 36.543511,4.9794104 36.543511,8.2428935 C 38.005971,22.03655 37.661861,34.785892 36.285427,46.490917 L 3.6381241,42.183118 z " fill="url(#t)" fill-opacity="1" fill-rule="evenodd" stroke="#bababa" stroke-width="1.01816666" stroke-linecap="round" stroke-linejoin="round" stroke-miterlimit="4" stroke-dasharray="none" stroke-opacity="1"/>
  <path d="M 24.65333,3.0742622 C 22.414428,6.3406944 23.110009,11.250879 25.370648,13 C 29.152871,9.1645772 31.696091,7.1625709 36,7.8790784 C 33.706755,4.844458 28.690962,2.5526868 24.65333,3.0742622 z " fill="url(#u)" fill-opacity="1" fill-rule="evenodd" stroke="none" stroke-width=".25pt" stroke-linecap="butt" stroke-linejoin="miter" stroke-opacity="1"/>
  <path d="M 4.6050865,41.395379 C 5.2943839,30.572095 5.9836814,17.251132 4.4834458,4.4297046 L 22.97284,2.494002 C 26.727951,2.265048 36.016642,5.8034297 35.623479,8.9255306 C 37.002072,22.121611 36.677695,34.318619 35.380195,45.516554 L 4.6050865,41.395379 z " fill="none" fill-opacity="1" fill-rule="evenodd" stroke="url(#v)" stroke-width=".96689165" stroke-linecap="round" stroke-linejoin="round" stroke-miterlimit="4" stroke-dasharray="none" stroke-opacity="1"/>
  <path d="M 22.352108,2.0552082 C 20.141837,5.3482383 20.828523,10.298406 23.060254,12.061771 C 26.79411,8.1951158 31.751128,7.069112 36,7.791454 C 35.023618,4.8595954 26.338108,1.5293855 22.352108,2.0552082 z " fill="url(#w)" fill-opacity="1" fill-rule="evenodd" stroke="none" stroke-width="1" stroke-linecap="butt" stroke-linejoin="miter" stroke-miterlimit="4" stroke-dasharray="none" stroke-opacity="1"/>
  <g transform="translate(-15.71848,-5.888058)">
    <path d="M 51.260497,37.425356 L 56.141186,32.521007 L 62.377619,38.787673 C 65.224688,41.648543 60.144112,46.352032 57.496929,43.692023 L 51.260497,37.425356 z " style="marker:none" color="#000" fill="url(#x)" fill-opacity="1" fill-rule="nonzero" stroke="#834f06" stroke-width="1" stroke-linecap="round" stroke-linejoin="round" marker-start="none" marker-mid="none" marker-end="none" stroke-miterlimit="4" stroke-dasharray="none" stroke-dashoffset="0" stroke-opacity="1" visibility="visible" display="inline" overflow="visible"/>
    <path style="marker:none" d="M 53.274723,38.095024 L 56.796916,34.570205 L 61.647983,39.42489 C 63.702595,41.481036 60.036151,44.861496 58.125789,42.949712 L 53.274723,38.095024 z " color="#000" fill="none" fill-opacity="1" fill-rule="nonzero" stroke="#fff" stroke-width="1" stroke-linecap="round" stroke-linejoin="round" marker-start="none" marker-mid="none" marker-end="none" stroke-miterlimit="4" stroke-dasharray="none" stroke-dashoffset="0" stroke-opacity=".35678394" visibility="visible" display="inline" overflow="visible"/>
    <path d="M 49.223291,36.125262 L 54.864753,30.4838 L 58.255692,33.87474 L 52.614232,39.516201 L 49.223291,36.125262 z " style="marker:none" color="#000" fill="url(#y)" fill-opacity="1" fill-rule="nonzero" stroke="#505050" stroke-width="1" stroke-linecap="round" stroke-linejoin="round" marker-start="none" marker-mid="none" marker-end="none" stroke-miterlimit="4" stroke-dasharray="none" stroke-dashoffset="0" stroke-opacity="1" visibility="visible" display="inline" overflow="visible"/>
    <path d="M 32.026033,13.826448 C 26.725782,19.413547 26.83594,28.263798 32.307167,33.745805 C 37.865237,39.314829 46.910415,39.314831 52.468486,33.745806 C 58.026557,28.176783 57.986398,19.154022 52.428326,13.585001 C 46.870252,8.0159795 37.865238,7.9757367 32.307167,13.54476 C 32.220322,13.631776 32.110164,13.737763 32.026033,13.826448 z M 33.953808,15.838505 C 34.053748,15.730446 34.170249,15.621638 34.275104,15.516575 C 38.748918,11.033946 45.986574,11.074188 50.460386,15.556818 C 54.934199,20.039446 54.974363,27.291361 50.500548,31.773991 C 46.026734,36.256621 38.748917,36.256621 34.275104,31.773991 C 29.906145,27.396423 29.789644,20.340952 33.953808,15.838505 z " style="marker:none" color="#000" fill="url(#z)" fill-opacity="1" fill-rule="nonzero" stroke="#505050" stroke-width="1" stroke-linecap="round" stroke-linejoin="round" marker-start="none" marker-mid="none" marker-end="none" stroke-miterlimit="4" stroke-dasharray="none" stroke-dashoffset="0" stroke-opacity="1" visibility="visible" display="inline" overflow="visible"/>
    <path d="M 32.576664,14.350309 C 27.558631,19.639917 27.662923,28.018928 32.842827,33.209038 C 38.104951,38.481531 46.668509,38.481531 51.930633,33.209038 C 57.19276,27.936542 57.154736,19.394212 51.89261,14.121719 C 46.630486,8.8492258 38.104954,8.8111249 32.842827,14.083621 C 32.760608,14.166003 32.656315,14.266347 32.576664,14.350309 z " style="marker:none" color="#000" fill="none" fill-opacity="1" fill-rule="nonzero" stroke="url(#A)" stroke-width=".5" stroke-linecap="round" stroke-linejoin="round" marker-start="none" marker-mid="none" marker-end="none" stroke-miterlimit="4" stroke-dasharray="none" stroke-dashoffset="0" stroke-opacity="1" visibility="visible" display="inline" overflow="visible"/>
    <path transform="matrix(1.28544,-1.287972,1.28544,1.287972,48.62852,-6.602725)" d="M -8.0092163 9.3271885 A 6.1843319 6.1843319 0 1 1  -20.37788,9.3271885 A 6.1843319 6.1843319 0 1 1  -8.0092163 9.3271885 z" style="marker:none" color="#000" fill="url(#B)" fill-opacity="1" fill-rule="nonzero" stroke="none" stroke-width=".5" stroke-linecap="round" stroke-linejoin="round" marker-start="none" marker-mid="none" marker-end="none" stroke-miterlimit="4" stroke-dasharray="none" stroke-dashoffset="0" stroke-opacity="1" visibility="visible" display="inline" overflow="visible"/>
    <path transform="matrix(0.840084,-1.457935,1.455068,0.841739,34.75486,9.825286)" d="M -1.0036354 5.0098858 A 4.372983 3.5127239 0 1 1  -9.7496014,5.0098858 A 4.372983 3.5127239 0 1 1  -1.0036354 5.0098858 z" style="marker:none" opacity=".57213931" color="#000" fill="url(#C)" fill-opacity="1" fill-rule="nonzero" stroke="none" stroke-width=".5" stroke-linecap="round" stroke-linejoin="round" marker-start="none" marker-mid="none" marker-end="none" stroke-miterlimit="4" stroke-dasharray="none" stroke-dashoffset="0" stroke-opacity="1" visibility="visible" display="inline" overflow="visible"/>
    <path transform="matrix(0.465624,-0.808071,0.806482,0.466541,46.95166,20.38854)" d="M -1.0036354 5.0098858 A 4.372983 3.5127239 0 1 1  -9.7496014,5.0098858 A 4.372983 3.5127239 0 1 1  -1.0036354 5.0098858 z" style="marker:none" opacity=".38308459" color="#000" fill="url(#D)" fill-opacity="1" fill-rule="nonzero" stroke="none" stroke-width=".5" stroke-linecap="round" stroke-linejoin="round" marker-start="none" marker-mid="none" marker-end="none" stroke-miterlimit="4" stroke-dasharray="none" stroke-dashoffset="0" stroke-opacity="1" visibility="visible" display="inline" overflow="visible"/>
  </g>
  <g transform="matrix(-1,0,0,1,-2.114078,-24)">
    <path d="M -35.114078,69.999999 L -23.609678,68.466729 L -3.013093,60.991997 C 0.32690203,59.267061 -6.353077,56.775487 -11.363054,58.692083 L -29.361877,65.400169 L -35.114078,69.999999 z " fill="url(#E)" fill-opacity="1" fill-rule="evenodd" stroke="none" stroke-width=".25pt" stroke-linecap="butt" stroke-linejoin="miter" stroke-opacity="1"/>
    <path d="M -11.658186,41.126604 L -31.878055,61.028709 L -34.614069,69.499949 L -26.654754,67.071749 L -6.507729,47.076076 C -3.827609,43.859669 -7.654951,38.705297 -11.658186,41.126604 z " fill="url(#F)" fill-opacity="1" fill-rule="evenodd" stroke="#cb6000" stroke-width=".99999988" stroke-linecap="butt" stroke-linejoin="round" stroke-miterlimit="4" stroke-dasharray="none" stroke-opacity="1"/>
    <path d="M -26.671853,66.538939 L -33.81463,68.999999 L -31.332078,61.309189 C -27.383225,59.800331 -24.958745,64.180429 -26.671853,66.538939 z " fill="url(#G)" fill-opacity="1" fill-rule="evenodd" stroke="none" stroke-width=".25pt" stroke-linecap="butt" stroke-linejoin="miter" stroke-opacity="1"/>
    <path d="M -9.021302,48.999999 C -9.4011,46.823746 -11.2104,43.667185 -14.114078,44.085603 C -13.272531,43.211932 -12.430984,42.338262 -11.589447,41.464592 C -6.997238,39.404185 -4.92966,44.748136 -6.801363,46.728456 C -7.526837,47.514758 -8.208768,48.213695 -9.021302,48.999999 z " fill="url(#H)" fill-opacity="1" fill-rule="evenodd" stroke="none" stroke-width=".25pt" stroke-linecap="butt" stroke-linejoin="miter" stroke-opacity="1"/>
    <path d="M -9.762726,49.999999 C -9.989754,47.158469 -12.616782,44.218578 -15.114078,44.819671 C -14.854614,44.546447 -14.595151,44.273223 -14.335698,43.999999 C -10.36571,43.999999 -9.114078,47.480878 -9.114078,49.409835 C -9.330301,49.606556 -9.546514,49.803278 -9.762726,49.999999 z " fill="url(#I)" fill-opacity="1" fill-rule="evenodd" stroke="none" stroke-width=".25pt" stroke-linecap="butt" stroke-linejoin="miter" stroke-opacity="1"/>
    <path d="M -32.307719,68.383189 L -34.114078,68.999999 L -33.486259,67.072479 C -32.48762,66.694319 -31.874485,67.792089 -32.307719,68.383189 z " fill="#000" fill-opacity="1" fill-rule="evenodd" stroke="none" stroke-width=".25pt" stroke-linecap="butt" stroke-linejoin="miter" stroke-opacity="1"/>
    <path d="M -11.887021,42.41519 L -31.067954,61.634699 L -33.114088,68.187509 L -26.940105,66.031719 L -7.321969,46.54405 C -4.949019,43.958784 -8.935954,39.702855 -11.887021,42.41519 z " fill="none" fill-opacity="1" fill-rule="evenodd" stroke="url(#J)" stroke-width=".99999911" stroke-linecap="butt" stroke-linejoin="round" stroke-miterlimit="4" stroke-dasharray="none" stroke-opacity="1"/>
  </g>
</svg>
