<?xml version="1.0" standalone="no"?>
<!--Created with Inkscape (http://www.inkscape.org/)-->
<svg xmlns="http://www.w3.org/2000/svg" xmlns:xlink="http://www.w3.org/1999/xlink" viewBox="0 0 48 48">
  <defs>
    <linearGradient id="f">
      <stop offset="0" stop-color="white" stop-opacity="1"/>
      <stop offset="1" stop-color="white" stop-opacity=".57939917"/>
    </linearGradient>
    <linearGradient id="g">
      <stop offset="0" stop-color="#fff" stop-opacity="1"/>
      <stop offset="1.0000000" stop-color="#d0d0d0" stop-opacity="1"/>
    </linearGradient>
    <linearGradient id="d">
      <stop offset="0" stop-color="#000" stop-opacity="1"/>
      <stop offset="1" stop-color="#000" stop-opacity="0"/>
    </linearGradient>
    <linearGradient id="e">
      <stop offset="0.0000000" stop-color="#000" stop-opacity=".19791669"/>
      <stop offset="1" stop-color="#000" stop-opacity="0"/>
    </linearGradient>
    <linearGradient id="c">
      <stop offset="0" stop-color="#fff" stop-opacity="1"/>
      <stop offset="1.0000000" stop-color="#bfbfbf" stop-opacity="1"/>
    </linearGradient>
    <linearGradient id="a">
      <stop offset="0" stop-color="#f0f0f0" stop-opacity="1"/>
      <stop offset="1.0000000" stop-color="#ddd" stop-opacity="1"/>
    </linearGradient>
    <linearGradient id="b">
      <stop offset="0" stop-color="#0a0a0a" stop-opacity="1"/>
      <stop offset="1" stop-color="#0a0a0a" stop-opacity="0"/>
    </linearGradient>
    <linearGradient xlink:href="#a" gradientUnits="userSpaceOnUse" x1="57.903072" y1="65.225105" x2="85.99958" y2="114.99323"/>
    <linearGradient xlink:href="#b" gradientUnits="userSpaceOnUse" gradientTransform="translate(0.975845,-1.951691)" x1="69.606209" y1="-2.7867124" x2="82.63073" y2="34.12973"/>
    <linearGradient xlink:href="#c" gradientUnits="userSpaceOnUse" x1="80.507256" y1="19.19323" x2="84.654594" y2="10.41062"/>
    <linearGradient xlink:href="#d" id="h" gradientUnits="userSpaceOnUse" gradientTransform="matrix(0.266435,0,0,0.298111,1.069995,-2.412617)" x1="71.236717" y1="152.15218" x2="88.314011" y2="99.212555"/>
    <radialGradient xlink:href="#e" id="i" gradientUnits="userSpaceOnUse" gradientTransform="matrix(1,0,0,0.213043,1.222113e-15,90.55513)" cx="60.502419" cy="115.07005" fx="60.502419" fy="115.07005" r="56.111115"/>
    <linearGradient xlink:href="#a" id="j" gradientUnits="userSpaceOnUse" gradientTransform="matrix(0.274959,0,0,0.269043,-1.269225,-5.010197e-2)" x1="57.903072" y1="65.225105" x2="85.99958" y2="114.99323"/>
    <linearGradient xlink:href="#b" id="k" gradientUnits="userSpaceOnUse" gradientTransform="matrix(0.267544,0,0,0.25654,-0.607354,-4.289707e-2)" x1="69.606209" y1="-2.7867124" x2="82.63073" y2="34.12973"/>
    <linearGradient xlink:href="#f" id="l" gradientUnits="userSpaceOnUse" gradientTransform="matrix(0.719041,0,0,0.697906,0.259668,0.750233)" x1="7.9148936" y1="3.8297873" x2="7.9148936" y2="41.371349"/>
    <linearGradient xlink:href="#g" id="m" gradientUnits="userSpaceOnUse" gradientTransform="matrix(0.24879,0,0,0.25704,0.993589,0.101299)" x1="81.89402" y1="22.461552" x2="84.654594" y2="10.41062"/>
    <linearGradient xlink:href="#d" id="n" gradientUnits="userSpaceOnUse" gradientTransform="matrix(0.266435,0,0,0.298111,1.069995,-2.412617)" x1="71.236717" y1="152.15218" x2="88.314011" y2="99.212555"/>
    <radialGradient xlink:href="#e" id="o" gradientUnits="userSpaceOnUse" gradientTransform="matrix(1,0,0,0.213043,1.636712e-15,90.55513)" cx="60.502419" cy="115.07005" fx="60.502419" fy="115.07005" r="56.111115"/>
    <linearGradient xlink:href="#a" id="p" gradientUnits="userSpaceOnUse" gradientTransform="matrix(0.274959,0,0,0.269043,-1.269225,-5.010197e-2)" x1="57.903072" y1="65.225105" x2="85.99958" y2="114.99323"/>
    <linearGradient xlink:href="#b" id="q" gradientUnits="userSpaceOnUse" gradientTransform="matrix(0.267544,0,0,0.25654,-0.607354,-4.289707e-2)" x1="69.606209" y1="-2.7867124" x2="82.63073" y2="34.12973"/>
    <linearGradient xlink:href="#f" id="r" gradientUnits="userSpaceOnUse" gradientTransform="matrix(0.719041,0,0,0.697906,0.259668,0.750233)" x1="7.9148936" y1="3.8297873" x2="7.9148936" y2="41.371349"/>
    <linearGradient xlink:href="#g" id="s" gradientUnits="userSpaceOnUse" gradientTransform="matrix(0.24879,0,0,0.25704,0.993589,0.101299)" x1="81.89402" y1="22.461552" x2="84.654594" y2="10.41062"/>
  </defs>
  <metadata/>
  <g transform="matrix(1,0,0,0.999894,0,3.702367e-3)" opacity=".7">
    <path d="M 26.679998,34 L 35,28.763633 L 22,26 L 26.679998,34 z " fill="url(#h)" fill-opacity="1" fill-rule="evenodd" stroke="none" stroke-width=".25pt" stroke-linecap="butt" stroke-linejoin="miter" stroke-opacity="1"/>
    <path transform="matrix(0.276238,0,0,0.292703,-1.213042,-2.182352)" d="M 116.61353 115.07005 A 56.111115 11.954107 0 1 1  4.391304,115.07005 A 56.111115 11.954107 0 1 1  116.61353 115.07005 z" style="marker:none" opacity="1" color="#000" fill="url(#i)" fill-opacity="1" fill-rule="evenodd" stroke="none" stroke-width="2" stroke-linecap="round" stroke-linejoin="round" marker-start="none" marker-mid="none" marker-end="none" stroke-miterlimit="4" stroke-dasharray="none" stroke-dashoffset="0" stroke-opacity="1" visibility="visible" display="inline" overflow="visible"/>
    <path d="M 2.6039481,30.427762 C 3.1415138,22.383083 3.6790797,12.481942 2.5090833,2.9520922 L 16.928501,1.5133326 C 19.458223,1.3431567 26.79442,3.9731479 26.79442,6.2937281 C 27.869551,16.102047 27.616578,25.167782 26.60469,33.490928 L 2.6039481,30.427762 z " fill="url(#j)" fill-opacity="1" fill-rule="evenodd" stroke="#bababa" stroke-width="1.01822066" stroke-linecap="round" stroke-linejoin="round" stroke-miterlimit="4" stroke-dasharray="none" stroke-opacity="1"/>
    <path d="M 17.969355,3.0519836 C 16.384764,5.3384861 16.877065,8.7756152 18.477039,10 C 21.153921,7.315204 22.953895,5.9137996 26,6.4153549 C 24.376948,4.2911206 20.827003,2.6868808 17.969355,3.0519836 z " fill="url(#k)" fill-opacity="1" fill-rule="evenodd" stroke="none" stroke-width=".25pt" stroke-linecap="butt" stroke-linejoin="miter" stroke-opacity="1"/>
    <path d="M 3.5709131,29.640345 C 4.0665461,22.086703 4.5621791,12.789913 3.4834486,3.8417533 L 16.778078,2.4908135 C 19.478156,2.3310249 26.157104,4.8004853 25.874404,6.9794204 C 26.865669,16.189054 26.632428,24.701428 25.699473,32.516542 L 3.5709131,29.640345 z " fill="none" fill-opacity="1" fill-rule="evenodd" stroke="url(#l)" stroke-width=".96694314" stroke-linecap="round" stroke-linejoin="round" stroke-miterlimit="4" stroke-dasharray="none" stroke-opacity="1"/>
    <path d="M 16.901405,2.0384085 C 15.427891,4.329378 15.885682,7.7732224 17.373504,9 C 19.86274,6.309958 23.167419,5.5265941 26,6.0291294 C 25.349079,3.9894278 19.558738,1.6725922 16.901405,2.0384085 z " fill="url(#m)" fill-opacity="1" fill-rule="evenodd" stroke="none" stroke-width="1" stroke-linecap="butt" stroke-linejoin="miter" stroke-miterlimit="4" stroke-dasharray="none" stroke-opacity="1"/>
  </g>
  <g transform="matrix(1,0,0,0.999894,13,13.00376)">
    <path d="M 26.679998,34 L 35,28.763633 L 22,26 L 26.679998,34 z " fill="url(#n)" fill-opacity="1" fill-rule="evenodd" stroke="none" stroke-width=".25pt" stroke-linecap="butt" stroke-linejoin="miter" stroke-opacity="1"/>
    <path transform="matrix(0.276238,0,0,0.292703,-1.213042,-2.182352)" d="M 116.61353 115.07005 A 56.111115 11.954107 0 1 1  4.391304,115.07005 A 56.111115 11.954107 0 1 1  116.61353 115.07005 z" style="marker:none" opacity="1" color="#000" fill="url(#o)" fill-opacity="1" fill-rule="evenodd" stroke="none" stroke-width="2" stroke-linecap="round" stroke-linejoin="round" marker-start="none" marker-mid="none" marker-end="none" stroke-miterlimit="4" stroke-dasharray="none" stroke-dashoffset="0" stroke-opacity="1" visibility="visible" display="inline" overflow="visible"/>
    <path d="M 2.6039481,30.427762 C 3.1415138,22.383083 3.6790797,12.481942 2.5090833,2.9520922 L 16.928501,1.5133326 C 19.458223,1.3431567 26.79442,3.9731479 26.79442,6.2937281 C 27.869551,16.102047 27.616578,25.167782 26.60469,33.490928 L 2.6039481,30.427762 z " fill="url(#p)" fill-opacity="1" fill-rule="evenodd" stroke="#bababa" stroke-width="1.01822066" stroke-linecap="round" stroke-linejoin="round" stroke-miterlimit="4" stroke-dasharray="none" stroke-opacity="1"/>
    <path d="M 17.969355,3.0519836 C 16.384764,5.3384861 16.877065,8.7756152 18.477039,10 C 21.153921,7.315204 22.953895,5.9137996 26,6.4153549 C 24.376948,4.2911206 20.827003,2.6868808 17.969355,3.0519836 z " fill="url(#q)" fill-opacity="1" fill-rule="evenodd" stroke="none" stroke-width=".25pt" stroke-linecap="butt" stroke-linejoin="miter" stroke-opacity="1"/>
    <path d="M 3.5709131,29.640345 C 4.0665461,22.086703 4.5621791,12.789913 3.4834486,3.8417533 L 16.778078,2.4908135 C 19.478156,2.3310249 26.157104,4.8004853 25.874404,6.9794204 C 26.865669,16.189054 26.632428,24.701428 25.699473,32.516542 L 3.5709131,29.640345 z " fill="none" fill-opacity="1" fill-rule="evenodd" stroke="url(#r)" stroke-width=".96694314" stroke-linecap="round" stroke-linejoin="round" stroke-miterlimit="4" stroke-dasharray="none" stroke-opacity="1"/>
    <path d="M 16.901405,2.0384085 C 15.427891,4.329378 15.885682,7.7732224 17.373504,9 C 19.86274,6.309958 23.167419,5.5265941 26,6.0291294 C 25.349079,3.9894278 19.558738,1.6725922 16.901405,2.0384085 z " fill="url(#s)" fill-opacity="1" fill-rule="evenodd" stroke="none" stroke-width="1" stroke-linecap="butt" stroke-linejoin="miter" stroke-miterlimit="4" stroke-dasharray="none" stroke-opacity="1"/>
  </g>
</svg>
