<?xml version="1.0" standalone="no"?>
<!--Created with Inkscape (http://www.inkscape.org/)-->
<svg xmlns="http://www.w3.org/2000/svg" xmlns:xlink="http://www.w3.org/1999/xlink" viewBox="0 0 48 48">
  <metadata/>
  <defs>
    <linearGradient id="d">
      <stop offset="0" stop-color="black" stop-opacity="1"/>
      <stop offset="1" stop-color="black" stop-opacity="0"/>
    </linearGradient>
    <linearGradient id="c">
      <stop offset="0" stop-color="white" stop-opacity="1"/>
      <stop offset="1" stop-color="white" stop-opacity=".22317597"/>
    </linearGradient>
    <linearGradient id="b">
      <stop offset="0.0000000" stop-color="#ff8300" stop-opacity="1"/>
      <stop offset="1.0000000" stop-color="#ffc500" stop-opacity="1"/>
    </linearGradient>
    <linearGradient id="a">
      <stop offset="0" stop-color="#fff" stop-opacity="1"/>
      <stop offset="1" stop-color="#fff" stop-opacity="0"/>
    </linearGradient>
    <linearGradient xlink:href="#a" id="g" gradientUnits="userSpaceOnUse" gradientTransform="matrix(-0.639991,0,0,0.61393,-16.11961,0.543056)" x1="-87.5" y1="-4.839344" x2="-63" y2="39.660656"/>
    <linearGradient xlink:href="#b" id="f" gradientUnits="userSpaceOnUse" gradientTransform="matrix(-0.628798,0,0,0.613027,-15.07863,0.821842)" x1="-95.53125" y1="38.625" x2="-31.945671" y2="38.625"/>
    <linearGradient xlink:href="#c" id="h" x1="11.850758" y1="15.974516" x2="21.3125" y2="29.883089" gradientUnits="userSpaceOnUse"/>
    <radialGradient xlink:href="#d" id="e" cx="18" cy="43.5" fx="18" fy="43.5" r="17" gradientTransform="matrix(1.264705,0,0,0.205882,-1.264705,35.54412)" gradientUnits="userSpaceOnUse"/>
  </defs>
  <path d="M 43,44.5 C 43,46.432 33.368,48 21.5,48 C 9.632,48 0,46.432 0,44.5 C 0,42.568 9.632,41 21.5,41 C 33.368,41 43,42.568 43,44.5 z " opacity=".1" fill="url(#e)" fill-opacity="1" stroke="none" stroke-width="1" stroke-linecap="round" stroke-linejoin="round" stroke-miterlimit="4" stroke-dashoffset="0" stroke-opacity="1"/>
  <path d="M 44.499979,17.526825 C 38.474004,13.184551 31.538921,8.8422769 25.512943,4.500003 C 25.56534,6.798854 25.460546,9.0977045 25.512943,11.396556 C 6.5442026,14.00192 5.304912,34.998093 5.5145092,44.500011 C 8.6061008,31.013418 18.962962,24.116865 25.512943,24.270122 C 25.565341,26.415715 25.460545,28.56131 25.512943,30.706905 C 31.591325,26.313544 38.421598,21.920184 44.499979,17.526825 z " fill="url(#f)" fill-opacity="1" fill-rule="evenodd" stroke="#dc6800" stroke-width="1.00000012" stroke-linecap="round" stroke-linejoin="round" stroke-miterlimit="4" stroke-dasharray="none" stroke-opacity="1"/>
  <path d="M 43.399598,17.272641 C 37.693008,13.333258 31.736417,9.393876 26.029826,5.4544935 C 26.083158,7.5009259 25.976494,9.5473583 26.029826,11.59379 C 19.469913,12.361203 15.879962,15.584334 13,18.040053 C 24.733179,22.081757 34.706381,22.132918 43.399598,17.272641 z " fill="url(#g)" fill-opacity="1" fill-rule="evenodd" stroke="none" stroke-width=".25pt" stroke-linecap="butt" stroke-linejoin="miter" stroke-opacity="1"/>
  <path d="M 42.500012,17.437982 L 26.578749,6.5000014 L 26.578749,12.051727 C 9.4817452,13.961405 6.5177462,31.833364 6.5177462,38.62501 C 10.695396,27.812747 19.626102,23.01102 26.578749,23.156615 L 26.578749,28.771559 L 42.500012,17.437982 z " fill="none" fill-opacity="1" fill-rule="evenodd" stroke="url(#h)" stroke-width="1.00000024" stroke-linecap="round" stroke-linejoin="round" stroke-miterlimit="4" stroke-dasharray="none" stroke-opacity="1"/>
</svg>
