<?xml version="1.0" standalone="no"?>
<!--Created with Inkscape (http://www.inkscape.org/)-->
<svg xmlns="http://www.w3.org/2000/svg" xmlns:xlink="http://www.w3.org/1999/xlink" viewBox="0 0 48 48">
  <defs>
    <linearGradient id="f">
      <stop offset="0" stop-color="white" stop-opacity="1"/>
      <stop offset="1" stop-color="white" stop-opacity=".57939917"/>
    </linearGradient>
    <linearGradient id="c">
      <stop offset="0" stop-color="#fff" stop-opacity="1"/>
      <stop offset="1.0000000" stop-color="#d0d0d0" stop-opacity="1"/>
    </linearGradient>
    <linearGradient id="b">
      <stop offset="0" stop-color="#000" stop-opacity="1"/>
      <stop offset="1" stop-color="#000" stop-opacity="0"/>
    </linearGradient>
    <linearGradient id="a">
      <stop offset="0.0000000" stop-color="#000" stop-opacity=".19791669"/>
      <stop offset="1" stop-color="#000" stop-opacity="0"/>
    </linearGradient>
    <linearGradient id="e">
      <stop offset="0" stop-color="#f0f0f0" stop-opacity="1"/>
      <stop offset="1.0000000" stop-color="#ddd" stop-opacity="1"/>
    </linearGradient>
    <linearGradient id="d">
      <stop offset="0" stop-color="#0a0a0a" stop-opacity="1"/>
      <stop offset="1" stop-color="#0a0a0a" stop-opacity="0"/>
    </linearGradient>
    <radialGradient xlink:href="#a" id="h" cx="60.502419" cy="115.07005" fx="60.502419" fy="115.07005" r="56.111115" gradientTransform="matrix(1,0,0,0.213043,-2.766884e-16,90.55513)" gradientUnits="userSpaceOnUse"/>
    <linearGradient xlink:href="#b" id="g" x1="71.236717" y1="152.15218" x2="88.314011" y2="99.212555" gradientUnits="userSpaceOnUse" gradientTransform="matrix(0.368911,0,0,0.409902,1.019997,-3.067345)"/>
    <linearGradient xlink:href="#c" id="l" gradientUnits="userSpaceOnUse" x1="81.89402" y1="22.461552" x2="84.654594" y2="10.41062" gradientTransform="matrix(0.373185,0,0,0.36947,-1.509613,-0.729184)"/>
    <linearGradient xlink:href="#d" id="j" gradientUnits="userSpaceOnUse" gradientTransform="matrix(0.378019,0,0,0.366486,-1.594096,-1.346996)" x1="69.606209" y1="-2.7867124" x2="82.63073" y2="34.12973"/>
    <linearGradient xlink:href="#e" id="i" gradientUnits="userSpaceOnUse" x1="57.903072" y1="65.225105" x2="85.99958" y2="114.99323" gradientTransform="matrix(0.374016,0,0,0.37836,-1.630407,-0.678575)"/>
    <linearGradient xlink:href="#f" id="k" x1="7.9148936" y1="3.8297873" x2="7.9148936" y2="41.371349" gradientUnits="userSpaceOnUse"/>
  </defs>
  <metadata/>
  <path d="M 36.479999,47 L 47.999999,39.799995 L 30,36 L 36.479999,47 z " fill="url(#g)" fill-opacity="1" fill-rule="evenodd" stroke="none" stroke-width=".25pt" stroke-linecap="butt" stroke-linejoin="miter" stroke-opacity="1"/>
  <path style="marker:none" d="M 116.61353 115.07005 A 56.111115 11.954107 0 1 1  4.391304,115.07005 A 56.111115 11.954107 0 1 1  116.61353 115.07005 z" transform="matrix(0.374257,0,0,0.375482,-1.643478,0.304713)" opacity="1" color="#000" fill="url(#h)" fill-opacity="1" fill-rule="evenodd" stroke="none" stroke-width="2" stroke-linecap="round" stroke-linejoin="round" marker-start="none" marker-mid="none" marker-end="none" stroke-miterlimit="4" stroke-dasharray="none" stroke-dashoffset="0" stroke-opacity="1" visibility="visible" display="inline" overflow="visible"/>
  <path d="M 3.6381241,42.183118 C 4.3693547,30.869709 5.1005853,16.945515 3.5090833,3.543477 L 23.123274,1.5201175 C 26.564358,1.2807954 36.543511,4.9794104 36.543511,8.2428935 C 38.005971,22.03655 37.661861,34.785892 36.285427,46.490917 L 3.6381241,42.183118 z " fill="url(#i)" fill-opacity="1" fill-rule="evenodd" stroke="#bababa" stroke-width="1.01816666" stroke-linecap="round" stroke-linejoin="round" stroke-miterlimit="4" stroke-dasharray="none" stroke-opacity="1"/>
  <path d="M 24.65333,3.0742622 C 22.414428,6.3406944 23.110009,11.250879 25.370648,13 C 29.152871,9.1645772 31.696091,7.1625709 36,7.8790784 C 33.706755,4.844458 28.690962,2.5526868 24.65333,3.0742622 z " fill="url(#j)" fill-opacity="1" fill-rule="evenodd" stroke="none" stroke-width=".25pt" stroke-linecap="butt" stroke-linejoin="miter" stroke-opacity="1"/>
  <path d="M 4.6050865,41.395379 C 5.2943839,30.572095 5.9836814,17.251132 4.4834458,4.4297046 L 22.97284,2.494002 C 26.727951,2.265048 36.016642,5.8034297 35.623479,8.9255306 C 37.002072,22.121611 36.677695,34.318619 35.380195,45.516554 L 4.6050865,41.395379 z " fill="none" fill-opacity="1" fill-rule="evenodd" stroke="url(#k)" stroke-width=".96689165" stroke-linecap="round" stroke-linejoin="round" stroke-miterlimit="4" stroke-dasharray="none" stroke-opacity="1"/>
  <path d="M 22.352108,2.0552082 C 20.141837,5.3482383 20.828523,10.298406 23.060254,12.061771 C 26.79411,8.1951158 31.751128,7.069112 36,7.791454 C 35.023618,4.8595954 26.338108,1.5293855 22.352108,2.0552082 z " fill="url(#l)" fill-opacity="1" fill-rule="evenodd" stroke="none" stroke-width="1" stroke-linecap="butt" stroke-linejoin="miter" stroke-miterlimit="4" stroke-dasharray="none" stroke-opacity="1"/>
  <path style="text-align:start;line-height:125%" d="M 17.968022,35.381014 L 17.752267,36 L 11,35.697527 L 11.252057,35.080167 C 11.932682,35.088004 12.390836,35.029237 12.62652,34.90387 C 13.006792,34.728347 13.303971,34.475473 13.518056,34.145251 C 13.85426,33.627943 14.25363,32.694363 14.716166,31.344508 L 19.399086,17.656011 C 19.792984,16.518317 20.028652,15.656693 20.106093,15.071136 C 20.144801,14.778389 20.125125,14.528312 20.047063,14.320907 C 19.968984,14.113545 19.827743,13.954304 19.623337,13.843182 C 19.428472,13.721205 19.020457,13.646292 18.399287,13.618443 L 18.627143,13 L 24.967981,13.284044 L 24.752228,13.903029 C 24.237402,13.868662 23.843785,13.93032 23.571376,14.087999 C 23.178559,14.296965 22.857799,14.605417 22.609101,15.013355 C 22.368447,15.421696 22.004326,16.334201 21.516733,17.750872 L 16.845913,31.439912 C 16.419489,32.700769 16.183199,33.505728 16.137043,33.854797 C 16.09981,34.136307 16.116198,34.380572 16.186205,34.587593 C 16.265759,34.783719 16.407001,34.94296 16.60993,35.065319 C 16.822406,35.176782 17.275103,35.282013 17.968022,35.381014" font-size="53.326931px" font-style="italic" font-variant="normal" font-weight="400" font-stretch="normal" writing-mode="lr-tb" text-anchor="start" fill="#000" fill-opacity="1" stroke="none" stroke-width="1pt" stroke-linecap="butt" stroke-linejoin="miter" stroke-opacity="1" font-family="Times New Roman" opacity=".71"/>
</svg>
