<?xml version="1.0" standalone="no"?>
<!--Created with Sodipodi ("http://www.sodipodi.com/")-->
<svg xmlns="http://www.w3.org/2000/svg" xmlns:xlink="http://www.w3.org/1999/xlink" viewBox="0 0 256 256">
  <metadata/>
  <defs>
    <linearGradient id="d">
      <stop offset="0" stop-color="#fff" stop-opacity="1"/>
      <stop offset="1" stop-color="#fff" stop-opacity=".39055794"/>
    </linearGradient>
    <linearGradient id="c">
      <stop offset="0.0000000" stop-color="#000" stop-opacity=".25"/>
      <stop offset="1" stop-color="#000" stop-opacity="0"/>
    </linearGradient>
    <linearGradient id="e">
      <stop offset="0" stop-color="#000" stop-opacity=".40000001"/>
      <stop offset="1" stop-color="#000" stop-opacity="0"/>
    </linearGradient>
    <linearGradient id="b">
      <stop offset="0.0000000" stop-color="#fff" stop-opacity=".76991153"/>
      <stop offset="1" stop-color="#fff" stop-opacity="0"/>
    </linearGradient>
    <linearGradient id="a">
      <stop offset="0.0000000" stop-color="#fffb00" stop-opacity="1"/>
      <stop offset="1.0000000" stop-color="#ff9c00" stop-opacity="1"/>
    </linearGradient>
    <linearGradient xlink:href="#a" id="h" gradientTransform="matrix(1.123462,0,0,1.095832,109.2091,110.1538)" x1="-92.666512" y1="13.852016" x2="65.537048" y2="-66.763206" gradientUnits="userSpaceOnUse"/>
    <linearGradient xlink:href="#b" id="i" gradientTransform="matrix(1.043949,0,0,0.992671,0.32662,-1.918617)" x1="113.35806" y1="27.176409" x2="183.60414" y2="168.9727" gradientUnits="userSpaceOnUse"/>
    <radialGradient xlink:href="#c" id="f" cx="134.22906" cy="230.49648" fx="134.22906" fy="230.49648" r="104.69867" gradientTransform="matrix(1,0,0,0.179487,0,189.1253)" gradientUnits="userSpaceOnUse"/>
    <linearGradient xlink:href="#d" id="j" x1="82.550873" y1="45.260372" x2="149.66541" y2="207.01248" gradientUnits="userSpaceOnUse" gradientTransform="matrix(1.052747,0,0,1.048268,-4.944189,-2.791577)"/>
    <linearGradient xlink:href="#e" id="g" gradientUnits="userSpaceOnUse" x1="26.264706" y1="55.960724" x2="32.493938" y2="29.247835"/>
  </defs>
  <path transform="translate(-2.684581,1.342291)" style="marker:none" d="M 238.92773,230.49648 C 238.92773,240.8697 192.02273,249.28854 134.22906,249.28854 C 76.435399,249.28854 29.530396,240.8697 29.530396,230.49648 C 29.530396,220.12325 76.435399,211.70441 134.22906,211.70441 C 192.02273,211.70441 238.92773,220.12325 238.92773,230.49648 z " color="#000" fill="url(#f)" fill-opacity="1" fill-rule="evenodd" stroke="none" stroke-width="3.43375301" stroke-linecap="round" stroke-linejoin="round" stroke-miterlimit="4" stroke-dashoffset="0" stroke-opacity=".4" marker-start="none" marker-mid="none" marker-end="none" visibility="visible" display="inline" overflow="visible" opacity=".7"/>
  <path d="M 256,256 L 0,256 L 0,0 L 256,0 L 256,256 z " fill="none" stroke="none" transform="matrix(0.969291,0,0,0.969291,9.644135,15.8837)"/>
  <path d="M 38.8125 28 L 26.90625 33.9375 L 10.375 34.9375 L 18.03125 39.5 L 10 46 L 26.625 42.875 L 38.1875 45.90625 L 40.8125 39.40625 L 48 37.21875 L 48 34.3125 L 41.03125 33.875 L 38.8125 28 z " transform="scale(5.333333,5.333333)" fill="url(#g)" fill-opacity="1" stroke="none" stroke-width="5.28000021" stroke-linejoin="round" stroke-miterlimit="4" stroke-dashoffset="0" stroke-opacity="1" opacity=".8"/>
  <path d="M 204.13171,241.29814 L 129.35059,202.01344 L 55.273836,242.66668 L 68.742551,157.88034 L 7.9999984,98.480474 L 91.105251,85.364341 L 127.64105,7.9999593 L 165.53419,84.680075 L 248.8571,96.266134 L 189.17111,156.77318 L 204.13171,241.29814 z " fill="url(#h)" fill-opacity="1" stroke="#ff9800" stroke-width="5.33333349" stroke-linejoin="round" stroke-miterlimit="4" stroke-dasharray="none" stroke-dashoffset="0" stroke-opacity="1"/>
  <path d="M 71.13535,154.66667 L 16,100.59508 L 93.638034,88.56676 L 127.83648,16 L 165.11149,87.894761 L 240.85036,99.273128 C 227.38816,110.26939 223.74228,121.26564 210.28008,132.26191 C 128.31601,105.62228 99.72567,121.44696 71.13535,154.66667 z " fill="url(#i)" fill-opacity="1" stroke="none" stroke-width="5.7209754" stroke-linejoin="round" stroke-miterlimit="4" stroke-dashoffset="0" stroke-opacity="1"/>
  <path d="M 196.72866,230.78885 L 128.83716,196.02105 L 61.585148,232.00004 L 73.81298,156.96232 L 18.666676,102.27771 L 94.643071,90.509431 L 127.95062,18.666671 L 163.01817,90.266795 L 237.33347,100.26951 L 183.14638,155.98245 L 196.72866,230.78885 z " fill="none" fill-opacity="1" stroke="url(#j)" stroke-width="5.3333354" stroke-linejoin="round" stroke-miterlimit="4" stroke-dasharray="none" stroke-dashoffset="0" stroke-opacity=".77682405"/>
</svg>
