<?xml version="1.0" standalone="no"?>
<!--Created with Inkscape (http://www.inkscape.org/)-->
<svg xmlns="http://www.w3.org/2000/svg" xmlns:xlink="http://www.w3.org/1999/xlink" viewBox="0 0 48 48">
  <defs>
    <linearGradient id="e">
      <stop offset="0" stop-color="white" stop-opacity="1"/>
      <stop offset="1" stop-color="white" stop-opacity=".61373389"/>
    </linearGradient>
    <linearGradient id="d">
      <stop offset="0" stop-color="black" stop-opacity="1"/>
      <stop offset="1" stop-color="black" stop-opacity="0"/>
    </linearGradient>
    <linearGradient id="c">
      <stop offset="0" stop-color="#000" stop-opacity=".28400001"/>
      <stop offset="1" stop-color="#000" stop-opacity="0"/>
    </linearGradient>
    <linearGradient id="b">
      <stop offset="0" stop-color="#000" stop-opacity=".616"/>
      <stop offset="1" stop-color="#000" stop-opacity="0"/>
    </linearGradient>
    <linearGradient id="f">
      <stop offset="0.0000000" stop-color="#ff5252" stop-opacity="1"/>
      <stop offset="1.0000000" stop-color="#c70000" stop-opacity="1"/>
    </linearGradient>
    <linearGradient id="a">
      <stop offset="0" stop-color="#fff" stop-opacity=".81199998"/>
      <stop offset="1" stop-color="#fff" stop-opacity="0"/>
    </linearGradient>
    <linearGradient xlink:href="#a" id="j" x1="29.225218" y1="-30.715849" x2="63.482479" y2="89.35849" gradientUnits="userSpaceOnUse" gradientTransform="matrix(0.388855,0,0,0.408279,-2.185575,-2.289743)"/>
    <linearGradient xlink:href="#b" id="h" x1="91.773582" y1="168.02156" x2="96.603775" y2="99.588814" gradientUnits="userSpaceOnUse" gradientTransform="matrix(0.378212,0,0,0.375606,-2.53656,1.804783)"/>
    <radialGradient xlink:href="#c" id="g" cx="66.932617" cy="115.2345" fx="66.932617" fy="115.2345" r="51.061996" gradientTransform="matrix(1,0,0,0.141892,1.839674e-15,98.88366)" gradientUnits="userSpaceOnUse"/>
    <linearGradient xlink:href="#d" id="l" x1="110.75846" y1="70.425117" x2="67.375198" y2="70.425117" gradientUnits="userSpaceOnUse" gradientTransform="matrix(0.404603,0,0,0.388856,-1.395568,-0.990539)"/>
    <linearGradient xlink:href="#e" id="k" x1="20.5" y1="17.263254" x2="42.5" y2="108.23312" gradientUnits="userSpaceOnUse" gradientTransform="matrix(0.423333,0,0,0.428593,-3.333909,-3.541792)"/>
    <radialGradient xlink:href="#f" id="i" cx="70.482483" cy="88.052559" fx="70.482483" fy="88.052559" r="51.647038" gradientTransform="matrix(0.451366,-5.842289e-17,5.840065e-17,0.451538,-5.381981,-5.841196)" gradientUnits="userSpaceOnUse"/>
  </defs>
  <metadata/>
  <path style="marker:none" d="M 117.99461 115.2345 A 51.061996 7.2452831 0 1 1  15.870621,115.2345 A 51.061996 7.2452831 0 1 1  117.99461 115.2345 z" transform="matrix(0.378212,0,0,0.375606,-2.53656,1.804783)" opacity="1" color="#000" fill="url(#g)" fill-opacity="1" fill-rule="evenodd" stroke="none" stroke-width="3" stroke-linecap="round" stroke-linejoin="round" marker-start="none" marker-mid="none" marker-end="none" stroke-miterlimit="4" stroke-dasharray="none" stroke-dashoffset="0" stroke-opacity="1" visibility="visible" display="inline" overflow="visible"/>
  <path style="marker:none" d="M 48.0036,40.241819 L 43.176053,43.492844 L 28.696361,45.780582 L 13.042583,45.763713 L 5.3819971,43.453794 L 10.209544,40.202767 L 24.689237,37.915029 L 40.343015,37.931898 L 48.0036,40.241819 z " color="#000" fill="url(#h)" fill-opacity="1" fill-rule="evenodd" stroke="none" stroke-width="3" stroke-linecap="round" stroke-linejoin="round" marker-start="none" marker-mid="none" marker-end="none" stroke-miterlimit="4" stroke-dasharray="none" stroke-dashoffset="0" stroke-opacity="1" visibility="visible" display="inline" overflow="visible"/>
  <path style="marker:none" d="M 44.500011,15.913138 L 44.409935,33.279406 L 32.075572,45.499991 L 14.715926,45.40988 L 2.5000005,33.070812 L 2.5900776,15.704545 L 14.92444,3.483958 L 32.284084,3.5740696 L 44.500011,15.913138 z " color="#000" fill="url(#i)" fill-opacity="1" fill-rule="evenodd" stroke="#8b0000" stroke-width="1.00000072" stroke-linecap="round" stroke-linejoin="round" marker-start="none" marker-mid="none" marker-end="none" stroke-miterlimit="4" stroke-dasharray="none" stroke-dashoffset="0" stroke-opacity="1" visibility="visible" display="inline" overflow="visible"/>
  <path style="marker:none" d="M 15.715672,13.008138 C 15.07769,12.955894 14.420813,13.155479 13.892471,13.611089 L 12.773509,14.571047 C 11.716824,15.482266 11.593071,17.077715 12.491814,18.149071 L 17.828398,24.511767 L 12.491814,30.882396 C 11.593071,31.953752 11.716824,33.549201 12.773509,34.460422 L 13.892471,35.428312 C 14.949156,36.339532 16.522759,36.206126 17.421501,35.134771 L 22.07732,29.581297 L 26.73314,35.134771 C 27.631883,36.206126 29.21331,36.339532 30.269995,35.428312 L 31.381135,34.460422 C 32.437817,33.549201 32.569397,31.953752 31.670654,30.882396 L 26.326243,24.511767 L 31.670654,18.149071 C 32.569397,17.077715 32.437817,15.482266 31.381135,14.571047 L 30.269995,13.611089 C 29.21331,12.699868 27.631883,12.825341 26.73314,13.896694 L 22.07732,19.450171 L 17.421501,13.896694 C 16.972132,13.361018 16.353658,13.060385 15.715672,13.008138 z " opacity="1" color="#000" fill="#fff" fill-opacity=".93133042" fill-rule="evenodd" stroke="none" stroke-width="2.53128338" stroke-linecap="round" stroke-linejoin="round" marker-start="none" marker-mid="none" marker-end="none" stroke-miterlimit="4" stroke-dasharray="none" stroke-dashoffset="0" stroke-opacity="1" visibility="visible" display="inline" overflow="visible"/>
  <path style="marker:none" d="M 42,16.113206 L 41.916356,28 C 30.185854,17.213503 15.696204,14.828174 3,27.796709 L 3.0836429,15.909914 L 15.684035,4 L 30.656643,4.0878204 L 42,16.113206 z " color="#000" fill="url(#j)" fill-opacity="1" fill-rule="evenodd" stroke="none" stroke-width="3" stroke-linecap="round" stroke-linejoin="round" marker-start="none" marker-mid="none" marker-end="none" stroke-miterlimit="4" stroke-dasharray="none" stroke-dashoffset="0" stroke-opacity="1" visibility="visible" display="inline" overflow="visible"/>
  <path style="marker:none" d="M 41.499992,16.787382 L 41.418498,32.610455 L 30.258835,44.499979 L 15.181175,44.414194 L 3.4999982,32.667188 L 3.5814966,16.172132 L 15.439683,4.4999995 L 30.447493,4.585788 L 41.499992,16.787382 z " color="#000" fill="none" fill-opacity="1" fill-rule="evenodd" stroke="url(#k)" stroke-width="1" stroke-linecap="round" stroke-linejoin="round" marker-start="none" marker-mid="none" marker-end="none" stroke-miterlimit="4" stroke-dasharray="none" stroke-dashoffset="0" stroke-opacity="1" visibility="visible" display="inline" overflow="visible"/>
  <path style="marker:none" d="M 43.000034,16.53698 L 42.916389,32.656648 L 31.801936,44.000005 L 15.343367,43.916362 L 4.0000008,32.463028 L 4.0836441,16.343359 L 15.536987,5 L 32.063333,5.0836427 L 43.000034,16.53698 z " color="#000" fill="none" fill-opacity="1" fill-rule="evenodd" stroke="url(#l)" stroke-width="2.00000072" stroke-linecap="round" stroke-linejoin="round" marker-start="none" marker-mid="none" marker-end="none" stroke-miterlimit="4" stroke-dasharray="none" stroke-dashoffset="0" stroke-opacity=".43347641" visibility="visible" display="inline" overflow="visible"/>
</svg>
