<?xml version="1.0" encoding="UTF-8" standalone="no"?>
<!-- Generator: Adobe Illustrator 13.0.0, SVG Export Plug-In . SVG Version: 6.00 Build 14948)  -->
<svg
   xmlns:dc="http://purl.org/dc/elements/1.1/"
   xmlns:cc="http://creativecommons.org/ns#"
   xmlns:rdf="http://www.w3.org/1999/02/22-rdf-syntax-ns#"
   xmlns:svg="http://www.w3.org/2000/svg"
   xmlns="http://www.w3.org/2000/svg"
   xmlns:sodipodi="http://sodipodi.sourceforge.net/DTD/sodipodi-0.dtd"
   xmlns:inkscape="http://www.inkscape.org/namespaces/inkscape"
   version="1.0"
   id="catching_the_ox"
   x="0px"
   y="0px"
   width="100%"
   height="100%"
   viewBox="0 0 228.79642 206.17037"
   xml:space="preserve"
   sodipodi:version="0.32"
   inkscape:version="0.46"
   sodipodi:docname="04 - catching the ox.svg"
   inkscape:output_extension="org.inkscape.output.svg.inkscape"><metadata
   id="metadata4843"><rdf:RDF><cc:Work
       rdf:about=""><dc:format>image/svg+xml</dc:format><dc:type
         rdf:resource="http://purl.org/dc/dcmitype/StillImage" /></cc:Work></rdf:RDF></metadata><defs
   id="defs4841"><inkscape:perspective
     sodipodi:type="inkscape:persp3d"
     inkscape:vp_x="0 : 113.4 : 1"
     inkscape:vp_y="0 : 1000 : 0"
     inkscape:vp_z="247.2 : 113.4 : 1"
     inkscape:persp3d-origin="123.6 : 75.600001 : 1"
     id="perspective4845" /></defs><sodipodi:namedview
   inkscape:window-height="1024"
   inkscape:window-width="1680"
   inkscape:pageshadow="2"
   inkscape:pageopacity="0.0"
   guidetolerance="10.0"
   gridtolerance="10.0"
   objecttolerance="10.0"
   borderopacity="1.0"
   bordercolor="#666666"
   pagecolor="#ffffff"
   id="base"
   showgrid="false"
   inkscape:zoom="2.037037"
   inkscape:cx="123.6"
   inkscape:cy="113.4"
   inkscape:window-x="-4"
   inkscape:window-y="-4"
   inkscape:current-layer="catching_the_ox" />
<g
   id="g4638"
   transform="translate(-8.979234,-9.0336288)">
	<g
   id="g4640">
		<path
   clip-rule="evenodd"
   d="M 173.6,60.4 C 174,60.4 174.4,60.4 174.8,60.4 C 176.532,62.667 174.985,68.216 177.6,69.6 C 177.281,71.847 178.075,77.146 177.201,80 C 175.46,80.007 174.971,78.763 172.801,79.2 C 173.762,72.983 173.571,65.788 173.6,60.4 z"
   id="path4642"
   style="fill-rule:evenodd" />
		<path
   clip-rule="evenodd"
   d="M 50.8,129.2 C 53.681,130.719 56.683,132.117 58,135.2 C 56.223,136.036 54.909,132.79 54.8,135.599 C 51.758,135.041 49.884,133.316 49.6,129.999 L 50.28,129.719 L 50.8,129.2 z"
   id="path4644"
   style="fill-rule:evenodd" />
		<path
   clip-rule="evenodd"
   d="M 175.2,164.399 C 174.312,164.62 174.63,163.635 174,163.599 C 174.162,162.604 175.551,163.576 175.2,164.399 z"
   id="path4646"
   style="fill-rule:evenodd" />
		<path
   clip-rule="evenodd"
   d="M 102,164.399 C 101.854,165.587 101.307,166.373 100.4,166.799 C 99.096,166.903 98.475,166.324 98.4,165.199 C 100.236,165.569 100.333,164.199 102,164.399 z"
   id="path4648"
   style="fill-rule:evenodd" />
		<path
   clip-rule="evenodd"
   d="M 15.6,201.2 C 14.679,203.212 11.298,202.763 9.2,203.599 C 7.751,200.849 13.843,199.576 15.6,201.2 z"
   id="path4650"
   style="fill-rule:evenodd" />
		<path
   clip-rule="evenodd"
   d="M 19.6,202.399 C 19.867,202.399 20.133,202.399 20.4,202.399 C 20.4,202.666 20.4,202.933 20.4,203.2 C 20.133,203.2 19.867,203.2 19.6,203.2 C 19.6,202.934 19.6,202.666 19.6,202.399 z"
   id="path4652"
   style="fill-rule:evenodd" />
		<path
   clip-rule="evenodd"
   d="M 188,14.4 C 188.485,15.307 186.054,16.556 184.8,15.6 C 185.87,16.93 187.814,17.386 189.2,18.4 C 190.711,17.972 189.185,16.028 190,15.6 C 191.705,14.699 190.759,16.253 191.2,16.8 C 191.922,17.695 193.34,18.883 194.399,20 C 197.473,23.239 201.787,27.361 205.2,30.4 L 204.519,30.68 L 204,31.2 C 204.61,32.728 207.401,35.527 209.2,37.2 C 209.165,36.632 209.134,36.067 209.599,36 C 212.818,38.647 214.835,42.497 217.599,45.6 C 216.322,40.477 212.276,38.123 209.2,34.8 L 209.88,34.52 L 210.4,34 C 219.128,37.608 222.956,49.517 220.001,61.2 C 220.594,62.515 220.623,60.013 221.201,60 C 225.382,64.666 232.367,68.53 235.6,74.8 C 236.322,76.199 237.395,78.1 237.6,79.2 C 238.845,85.858 233.073,89.176 232.8,96.8 C 232.654,97.987 232.107,98.774 231.2,99.2 C 233.768,103.165 232.484,110.981 234.8,115.2 L 234.2,115 L 234,115.6 C 233.174,116.242 233.427,117.96 232,118 C 229.844,118.063 231.766,116.366 230.8,115.6 C 230.917,122.28 228.235,128.824 227.2,135.6 C 223.422,134.232 223.773,132.04 222.8,128.8 C 224.436,127.502 227.16,127.294 227.6,124.8 C 227.356,123.445 225.041,124.158 225.201,122.401 C 226.128,122.528 226.736,122.337 227.201,122.001 C 226.573,120.573 227.597,119.565 226.001,118.801 C 225.182,119.669 226.721,121.913 224.4,120.801 C 224.946,122.016 224.46,123.514 224.001,124.801 C 222.789,124.756 221.4,122.158 221.601,125.201 C 220.134,124.267 220.001,122.001 220.001,119.6 C 219.734,119.6 219.468,119.6 219.201,119.6 L 219.4,118.867 L 218.8,118.401 C 217.475,115.323 218.721,111.801 218.8,108.001 C 219.743,107.022 219.544,108.599 220.8,108.401 C 224.042,103.241 222.255,94.866 224.8,89.601 C 226.605,90.474 225.787,90.701 228,90.001 C 228.213,91.122 228.587,92.081 228.8,93.201 C 233.387,84.611 224.187,78.469 217.2,76.401 C 217.347,74.786 215.872,74.795 215.599,73.601 L 216.2,73.134 L 216,72.4 C 217.229,73.012 217.229,69.788 216,70.4 L 215.533,69.8 L 214.8,70 C 213.95,66.583 214.606,61.661 214.4,57.6 C 213.61,59.876 213.553,62.886 213.6,66 C 211.621,68.154 210.9,71.566 209.201,74 C 209.788,83.679 215.757,87.977 216.801,97.2 C 215.878,98.944 215.421,101.154 214.401,102.8 L 214.202,102.2 L 213.6,102 C 213.6,101.733 213.6,101.467 213.6,101.2 C 210.727,109.127 205.394,114.594 199.6,119.599 C 198.599,125.931 197.41,132.075 194.4,136.399 C 195.328,137.527 193.939,138.9 194.4,140.799 C 193.5,141.632 193.257,143.122 192.4,143.999 C 192.222,148.624 194.473,152.342 193.201,156.799 C 189.897,158.028 188.021,160.687 187.201,164.399 C 185.506,165.149 185.168,163.743 184.001,164.399 L 184.001,164 L 183.601,164 C 183.675,163.659 183.445,163.622 183.202,163.6 L 183.401,163 L 182.801,162.8 C 185.455,160.254 188.585,158.184 190.001,154.4 C 189.215,152.654 190.178,149.157 188.001,148.8 C 187.47,150.296 189.193,151.565 188.001,152.4 C 186.522,151.29 185.962,151.425 184.801,151.6 C 185.442,149.86 184.947,148.899 185.201,146.4 C 185.765,145.632 187.143,145.676 188.001,145.201 C 187.07,143.632 188.49,143.714 188.4,142.001 C 187.597,142.137 187.149,141.919 187.201,141.201 C 191.301,133.968 191.587,122.921 196.801,116.801 C 197.207,113.873 196.522,109.856 199.201,109.201 C 199.945,109.924 200.667,110.668 200.4,112.401 C 205.306,108.07 210.786,103.254 209.201,94.401 C 208.871,92.559 206.946,89.384 205.6,86.401 C 203.891,82.611 202.469,79.328 200.8,77.601 C 199.097,71.556 201.961,65.676 204,60.401 C 204.965,57.905 205.704,55.458 206.399,53.601 C 206.892,52.286 207.625,52.032 207.599,50.801 C 207.528,47.356 203.786,45.194 204.799,41.201 C 202.363,38.57 200.425,35.442 197.999,32.801 C 198.123,32.259 199,32.469 199.599,32.401 C 189.975,19.976 172.589,12.377 151.2,14 C 137.677,15.026 131.255,22.815 124,30.4 C 119.029,33.296 115.502,37.636 111.2,41.2 L 110.92,40.52 L 110.4,40 C 110.29,38.557 111.982,38.915 112,37.6 C 110.475,38.086 108.408,40.126 108.8,41.2 L 109.32,41.72 L 110,42 C 108.567,43.767 106.967,45.367 105.2,46.8 L 105,46.2 L 104.4,46.4 C 103.064,46.664 102.444,47.644 101.2,48 L 101,47.4 L 100.8,46.8 C 101.182,44.687 98.043,47.739 100,47.2 L 99.8,47.933 L 100.4,48.4 C 98.845,48.938 99.962,49.83 99.2,50.8 C 95.025,49.899 93.009,52.988 89.6,54 L 89.08,53.48 L 88.4,53.2 C 88.405,52.405 89.491,52.691 89.2,51.6 C 83.564,51.903 79.161,50.972 73.6,51.2 L 73.8,50.467 L 73.2,50 C 73.2,49.733 73.2,49.467 73.2,49.2 C 72.933,49.2 72.667,49.2 72.4,49.2 C 72.324,49.524 71.999,49.598 72,50 L 71.4,50.2 L 71.6,50.8 C 70.79,51.315 70.01,50.123 69.2,50 C 66.416,49.577 63.071,51.405 59.2,52 C 56.09,52.478 53.473,51.93 51.2,52.4 C 48.952,52.865 48.263,54.034 45.6,54.4 L 45.8,53.667 L 45.2,53.2 C 45.552,51.337 43.881,53.47 44,52.4 C 46.067,49.788 50.068,49.631 54,48.8 C 62.397,47.026 72.434,44.223 84,45.2 C 87.59,45.503 91.154,47.015 94.8,46.4 C 100.799,40.761 108.563,34.824 114.8,28.8 C 119.374,24.383 123.536,19.795 128.8,15.6 C 130.314,14.393 132.143,12.094 134.4,13.2 C 131.785,19.784 125.555,22.755 121.2,27.6 C 127.487,24.686 130.637,18.636 137.2,16 C 137.076,15.457 136.198,15.668 135.599,15.6 C 137.348,11.616 144.017,12.551 147.2,10 C 150.126,10.686 153.786,9.451 157.2,9.2 C 168.259,8.387 179.419,10.687 188,13.2 L 187.8,13.8 L 188,14.4 z M 214.399,47.6 C 214.109,44.956 212.244,43.889 210.799,42.4 C 210.561,44.081 213.107,46.146 214.399,47.6 z M 74.8,49.2 C 72.784,49.476 80.488,50.451 80.4,48.8 C 78.373,48.773 77.087,49.487 74.8,49.2 z M 88.4,50 C 89.943,49.943 91.913,50.313 92.4,49.2 C 90.744,49.145 89.31,49.31 88.4,50 z M 216.399,59.2 C 216.333,56.93 216.459,63.331 216.799,61.6 C 217.346,58.823 217.147,49.531 214.799,50 C 216.594,53.144 216.295,55.6 216.399,59.2 z M 205.2,64 C 204.3,66.517 202.087,70.024 205.2,71.6 C 205.546,69.679 204.4,66.267 206,65.6 C 207.26,65.407 206.3,67.433 207.2,67.6 C 208.13,64.26 209.676,59.413 208.399,55.2 C 207.294,57.929 206.305,60.911 205.2,64 z M 216.399,66.8 C 216.522,65.776 217.152,64.058 216.399,62.8 C 216.175,63.668 215.444,66.075 216.399,66.8 z M 226.8,69.6 C 228.844,72.462 226.199,68.76 226.8,69.6 L 226.8,69.6 z M 227.6,76.8 C 226.11,73.49 222.487,72.313 220.4,69.6 C 219.929,69.663 219.265,69.531 219.201,70 C 221.974,72.293 224.173,75.16 227.6,76.8 z M 232.8,82.8 C 234.495,81.472 232.986,79.366 231.6,78.8 C 232.227,79.907 232.202,81.664 232.8,82.8 z M 227.6,96.4 C 226.94,96.394 227.376,95.291 226.8,95.2 C 226.458,96.015 227.148,97.686 227.6,96.4 z M 227.2,110 C 228.535,110.025 228.983,106.655 227.599,106.4 C 227.813,107.947 226.886,108.353 227.2,110 z"
   id="path4654"
   style="fill-rule:evenodd" />
		<path
   clip-rule="evenodd"
   d="M 183.2,164.8 L 183.599,164.8 C 182.235,167.169 181.578,170.245 177.999,170.4 C 178.207,166.57 176.647,164.616 174.398,162.4 C 173.787,155.854 177.806,152.794 177.999,146.001 C 176.436,143.549 173.77,142.122 173.999,138.801 C 174.077,137.663 174.752,138.433 175.199,137.601 C 175.878,136.337 175.274,134.437 176.398,133.601 C 177.529,133.271 177.435,134.165 178.398,134.001 C 179.306,132.375 179.515,130.051 180.798,128.801 C 179.202,121.843 183.369,111.775 180.798,104.001 C 180.737,103.261 179.444,103.755 179.198,103.201 C 178.271,100.927 178.549,97.449 177.597,95.201 L 177.797,94.601 L 177.197,94.801 C 176.694,93.037 176.148,91.316 175.596,89.601 C 171.03,105.434 164.06,118.865 150.796,126.001 C 148.46,131.35 150.922,139.067 149.196,144.801 C 145.882,144.953 144.874,147.412 142.395,148.401 L 142.196,147.801 L 141.6,148 C 141.333,148 141.067,148 140.8,148 L 141,147.267 L 140.399,146.8 C 141.387,146.333 141.387,145.267 140.399,144.8 C 142,143.046 144.724,140.804 144.399,138.4 L 145.132,138.6 L 145.599,138 C 147.181,135.859 145.479,132.173 145.599,129.6 C 142.735,130.469 140.462,131.93 137.999,133.201 C 137.241,138.976 135.905,144.174 133.999,148.801 C 132.911,147.931 132.049,148.12 130.799,148.801 L 130.599,148.201 L 129.999,148.4 C 131.858,145.46 131.889,140.691 133.599,137.6 C 132.915,137.516 132.563,138.283 132.399,137.6 C 131.949,136.222 134.684,134.65 132.799,134.4 C 129.147,136.082 125.569,137.837 121.999,139.6 C 119.431,138.873 116.487,138.444 116.799,142.4 C 121.431,144.169 125.034,146.965 129.599,148.8 L 129.799,149.4 L 130.399,149.201 C 131.971,150.296 133.498,151.436 135.599,152.001 L 136.066,152.601 L 136.799,152.401 C 136.799,152.535 136.799,152.669 136.799,152.801 C 168.99,172.876 203.643,190.491 233.599,212.801 L 232.999,213.268 L 233.199,214.001 C 232.631,214.035 232.066,214.066 231.999,213.601 C 230.889,213.691 230.867,214.87 229.999,215.202 C 227.117,212.35 223.457,210.277 219.999,208.002 C 220.01,207.612 220.488,207.691 220.799,207.602 C 217.306,205.302 213.774,201.109 209.199,201.203 C 196.782,191.887 183.015,183.919 169.199,176.003 C 167.105,172.896 163.134,171.668 159.598,170.003 C 159.81,169.681 160.016,169.354 159.998,168.803 C 156.825,167.042 153.757,165.177 150.798,163.203 C 150.117,163.056 150.043,163.515 149.998,164.003 C 143.978,161.089 140.062,156.071 132.798,154.402 C 133.429,152.571 131.138,153.663 131.198,152.402 C 125.976,151.591 121.016,147.504 116.398,144.802 C 114.866,148.47 114.293,153.097 112.398,156.402 C 113.781,159.677 113.634,162.697 114.398,165.203 C 115.68,169.409 117.182,170.453 116.398,174.402 C 115.771,177.561 115.891,181.641 118.798,184.003 C 120.52,185.401 123.276,186.153 123.998,189.203 C 125.038,193.593 122.436,195.85 125.198,200.003 C 126.818,199.625 127.039,199.822 127.998,200.803 C 128.283,202.56 126.437,203.949 125.598,206.003 C 124.814,207.921 124.683,210.34 123.598,212.003 C 122.411,212.149 121.625,212.696 121.198,213.603 C 119.99,213.345 120.082,211.787 119.198,211.204 C 117.909,212.519 120.696,213.153 119.998,215.204 C 115.843,214.825 114.367,211.767 111.998,209.603 C 113.187,205.962 109.686,204.799 111.598,201.603 C 111.347,199.587 109.645,199.023 108.798,197.603 C 108.255,197.727 108.466,198.605 108.398,199.204 C 105.108,197.56 104.098,193.638 100.798,192.004 C 100.862,191.535 101.527,191.666 101.998,191.604 C 100.881,190.455 99.171,189.897 99.198,187.604 C 100.44,186.655 101.156,188.903 102.398,189.205 C 102.159,185.166 103.277,182.434 102.398,179.604 C 101.715,177.407 99.743,176.528 98.398,174.804 C 95.524,171.119 93.223,167.26 91.598,162.804 C 91.276,163.016 90.949,163.221 90.398,163.204 L 89.798,163.004 L 89.198,163.204 C 89.272,162.863 89.042,162.826 88.798,162.804 L 88.998,162.071 L 88.398,161.604 C 88.661,161.068 89.253,160.859 89.998,160.804 C 90.56,159.405 88.876,158.243 89.998,157.604 C 91.255,157.814 92.229,158.306 93.198,158.804 C 93.557,161.387 95.424,162.546 96.798,164.404 C 97.456,165.294 97.699,166.66 98.398,167.604 C 100.408,170.322 103.313,172.039 104.398,174.404 C 105.133,176.007 104.356,177.858 105.998,179.205 C 106.058,178.21 107.352,179.088 107.598,179.205 L 108.198,179.404 L 108.798,179.205 C 109.531,180.205 108.973,182.496 110.798,182.404 C 111.24,177.828 109.821,176.028 110.398,171.604 C 111.861,171.341 111.933,172.47 113.198,172.404 C 112.792,166.277 108.514,164.021 107.598,158.404 C 108.392,157.738 108.106,158.44 109.198,158.404 C 109.292,156.444 108.493,155.376 108.798,153.205 C 109.331,153.205 109.865,153.205 110.398,153.205 C 111.163,149.702 112.976,147.249 112.798,142.805 C 101.2,136.936 89.037,131.632 78.398,124.805 L 78.998,124.338 L 78.798,123.605 C 84.661,126.187 90.661,129.046 96.398,132.005 C 102.171,134.983 107.624,138.438 113.598,140.005 C 113.365,132.748 112.812,124.845 110.398,119.605 C 109.685,118.056 107.458,115.623 108.398,112.805 C 112.884,115.519 113.135,122.468 116.398,126.406 L 116.198,127.006 L 116.798,126.806 C 116.798,126.94 116.798,127.073 116.798,127.206 C 117.768,127.463 118.297,125.3 117.598,125.206 L 117.198,125.006 L 116.798,125.206 C 118.091,121.985 117.53,119.319 119.598,116.806 C 119.861,118.611 121.057,119.308 122.398,118.006 C 121.939,119.664 123.239,119.565 123.198,120.806 C 124.926,119.601 126.558,118.3 128.398,117.206 C 130.251,118.308 127.437,120.039 129.198,120.406 C 129.774,120.315 129.338,119.212 129.998,119.206 C 134.305,119.573 135.148,115.346 138.798,114.006 C 136.236,113.71 136.222,115.963 133.998,116.006 C 132.733,115.11 130.661,115.143 129.598,113.206 C 131.327,109.641 133.833,103.066 138.798,106.406 C 141.169,103.843 144.135,101.876 147.198,100.006 C 147.96,100.178 148.203,100.867 149.198,100.806 C 150.59,99.664 151.184,97.726 153.597,97.606 L 153.797,98.207 L 154.397,98.407 C 154.689,99.498 153.603,99.212 153.597,100.007 C 154.892,100.501 153.903,98.713 155.198,99.207 L 154.998,99.807 L 155.598,100.007 C 156.119,101 154.424,101.667 155.598,102.007 L 155.798,102.607 L 156.398,102.408 C 156.398,102.807 156.398,103.208 156.398,103.607 C 157.292,103.433 157.825,102.9 157.999,102.007 L 158.199,101.407 L 158,100.8 C 158.133,100.8 158.267,100.8 158.399,100.8 C 158.993,100.326 159.022,99.289 159.599,98.8 L 159.799,99.401 L 160.399,99.201 C 160.533,99.201 160.666,99.201 160.799,99.201 L 160.599,99.801 L 161.2,100.001 C 161.165,100.568 161.134,101.134 161.599,101.201 C 162.59,98.325 164.41,96.278 164.799,92.801 L 165.399,92.601 L 165.2,92 C 166.082,91.416 165.517,89.384 166.399,88.8 L 166.866,89.4 L 167.599,89.2 C 167.824,90.344 168.95,86.243 167.599,88 L 167.132,87.4 L 166.399,87.6 C 167.219,83.353 167.496,78.562 168,74 L 168.733,74.2 L 169.2,73.6 C 169.333,73.6 169.467,73.6 169.599,73.6 L 169.399,74.2 L 170,74.4 C 170.293,76.386 169.8,80.799 170,84 C 171.388,84.054 170.64,81.974 172,82 C 172.055,82.745 172.263,83.337 172.8,83.6 L 173.2,83.8 L 173.599,83.6 C 174.256,84.614 174.937,82.302 176.399,82.8 C 177.309,83.09 176.031,85.569 177.599,85.2 C 177.599,84.267 177.599,83.333 177.599,82.4 L 178.2,82.6 L 178.399,82 C 177.637,80.632 177.889,77.371 180.399,78 C 179.798,84.082 179.086,90.92 180.799,96.4 C 181.711,96.288 182.303,96.496 182.399,97.2 C 183.662,103.671 185.809,109.257 188,114.8 C 188.164,112.95 190.479,113.594 191.6,113.6 C 188.947,121.065 191.056,131.666 184,135.201 C 183.149,132.207 186.357,131.172 185.2,129.201 C 184.401,131.238 181.997,133.975 184,136.4 C 182.301,135.944 182.145,136.206 181.6,137.6 C 182.313,137.839 183.261,136.428 183.6,137.6 C 183.769,140.178 182.246,142.257 183.201,144.4 C 182.371,145.038 181.681,145.815 181.201,146.8 C 182.133,151.805 178.999,155.431 179.6,160.4 C 178.764,160.57 178.541,160.127 178,160.001 C 178.282,161.585 178.028,163.706 179.6,164.001 L 179.4,164.734 L 180,165.2 C 180,165.599 180,166 180,166.399 C 180.681,166.546 180.755,166.087 180.8,165.599 L 181.866,165.466 L 182,164.399 C 182.399,164.399 182.8,164.399 183.2,164.399 L 183.2,164.8 z M 148.8,104 C 149.818,103.951 150.351,103.418 150.4,102.4 C 149.382,102.449 148.849,102.982 148.8,104 z M 160.8,107.6 C 161.027,109.414 163.091,105.309 161.2,107.201 C 161.009,107.391 160.74,107.124 160.8,107.6 z M 152,118 C 152.707,116.707 154.744,116.744 155.2,115.2 C 153.447,115.194 151.785,117.367 152,118 z M 186,124 C 186.354,121.82 186.886,119.818 187.2,117.6 C 186.629,117.504 186.525,116.942 186,116.8 C 186.923,118.594 185.3,122.521 186,124 z M 147.6,120 C 147.384,119.071 149.626,118.621 148.4,118 C 148.196,118.918 145.7,119.286 147.6,120 z M 130.8,122 C 131.6,123.018 134.697,120.876 132.8,120.4 C 133.081,121.881 131.09,121.09 130.8,122 z M 141.2,122.8 C 142.206,122.339 143.943,122.611 144,121.2 C 142.84,121.506 141.699,121.832 141.2,122.8 z M 128,131.6 C 129.256,131.79 129.635,131.101 130,130.4 C 128.743,130.21 128.365,130.898 128,131.6 z M 118,136.399 C 118.165,133.939 120.041,135.601 121.6,134.799 C 121.925,133.919 121.479,132.671 122.8,131.999 C 120.518,132.697 115.609,133.497 118,136.399 z M 177.6,141.6 C 177.03,141.504 176.925,140.942 176.4,140.8 C 176.049,141.624 177.438,142.596 177.6,141.6 z M 107.6,194.399 C 108.608,193.646 106.76,192.321 108.4,192 C 110.718,193.49 109.172,196.63 111.6,197.6 C 111.872,196.193 112.877,195.52 114.4,196.4 C 113.624,194.51 112.076,193.39 111.2,191.6 C 112.024,190.112 113.229,193.157 113.2,191.201 C 111.597,187.718 108.574,185.821 108.4,182.801 C 107.867,182.801 107.333,182.801 106.8,182.801 C 106.958,186.774 106.305,191.562 107.6,194.399 z M 119.6,192 C 119.963,191.688 121.833,190.012 120,190 C 120.306,190.896 118.153,191.274 119.6,192 z M 120.8,198.8 C 120.268,196.532 118.819,195.182 117.2,194 C 117.096,195.171 118.105,195.229 118,196.399 L 117.4,196.2 L 117.2,196.8 C 116.735,196.735 116.489,196.888 116.4,197.2 C 117.126,199.023 115.183,200.603 115.2,202.8 C 115.219,205.121 116.807,207.429 117.6,209.2 C 117.786,206.592 117.938,205.426 117.2,203.2 C 117.593,202.659 118.267,202.4 118.8,202 L 119.267,202.6 L 120,202.4 C 119.982,203.085 120.297,203.436 120.8,203.6 C 120.8,203.333 120.8,203.067 120.8,202.8 L 121.533,203 L 122,202.399 C 123.561,202.475 122.603,199.125 121.6,199.2 L 121.4,198.599 L 120.8,198.8 z M 123.6,206.399 C 123.413,205.634 124.833,204.677 123.201,204.799 C 123.201,206.399 122.468,206.199 122.468,206.199 L 122,206.8 C 121.733,206.8 121.467,206.8 121.2,206.8 C 121.04,208.293 121.52,209.147 122.8,209.2 C 122.8,208.666 122.8,208.133 122.8,207.599 L 123.401,207.132 L 123.201,206.399 C 123.2,206.399 123.008,206.325 123.6,206.399 z"
   id="path4656"
   style="fill-rule:evenodd" />
		<path
   clip-rule="evenodd"
   d="M 176.6,95.4 L 177.201,95.6 C 177.178,97.613 178.88,100.356 177.201,101.6 C 175.263,101.193 175.088,93.991 176.801,94.8 L 176.6,95.4 z"
   id="path4658"
   style="fill-rule:evenodd" />
		<path
   clip-rule="evenodd"
   d="M 138.2,148.399 L 138.399,148.799 C 137.511,149.645 138.226,152.093 136.799,152.399 L 136.332,151.799 L 135.6,152 C 134.577,148.385 136.134,144.044 138.8,142.8 C 138.923,144.789 138.737,146.47 138.4,148 L 138.2,148.399 z"
   id="path4660"
   style="fill-rule:evenodd" />
		<path
   clip-rule="evenodd"
   d="M 88.2,164.6 L 88.4,165.201 C 85.765,166.832 84.008,169.342 80,169.6 C 79.649,168.316 81.037,168.771 81.2,168 C 80.772,167.555 77.988,168.589 79.2,170 C 78.237,170.164 78.331,169.27 77.2,169.6 L 77,169 L 76.4,169.2 C 76.175,168.116 72.962,169.422 74,169.599 L 73.9,170.399 L 73.2,170.799 C 71.347,171.142 69.78,172.778 67.6,171.599 L 67.8,170.999 L 67.2,170.799 C 67.2,170.665 67.2,170.532 67.2,170.399 C 66.666,170.399 66.133,170.399 65.6,170.399 L 65.8,169.799 L 65.2,169.599 C 64.554,169.045 63.933,168.466 63.2,167.999 C 63.01,169.255 63.699,169.634 64.4,169.999 L 64.2,170.599 L 64.8,170.799 C 64.8,170.933 64.8,171.066 64.8,171.199 C 65.334,171.199 65.867,171.199 66.4,171.199 L 66.2,171.799 L 66.8,171.999 C 66.876,172.323 67.201,172.397 67.2,172.799 L 66.6,173.266 L 66.8,174 C 66.667,174 66.533,174 66.4,174 C 66.736,174.464 66.928,175.072 66.8,176 C 62.062,175.672 61.225,171.441 57.6,170 C 56.475,166.192 52.472,165.261 50.8,162 C 47.723,165.592 44.403,170.186 44,176 C 43.702,180.3 44.178,184.67 42.8,188.8 C 40.256,188.523 39.34,189.873 37.6,190.4 C 36.397,190.803 36.891,189.509 36.8,188.8 C 36.555,188.917 35.26,189.795 35.2,188.8 C 33.089,192.023 31.927,196.194 30.4,200 C 27.351,200.913 22.403,201.52 19.6,200.399 C 18.569,200.496 20.149,201.087 19.6,202 C 17.171,200.92 18.114,196.716 18.8,194.399 C 18.626,193.805 18.288,194.557 17.6,194.399 C 17.782,192.714 19.415,192.481 20.4,191.599 C 21.092,188.558 21.661,185.393 23.2,183.2 L 23.8,183.399 L 24.4,183.2 C 24.4,183.333 24.4,183.467 24.4,183.599 C 25.818,183.684 25.19,181.723 26.8,181.999 L 26.6,182.599 L 27.2,182.799 C 26.527,184.27 25.157,187.143 25.6,188.399 C 25.717,187.128 27.715,187.599 28,188.399 C 27.687,188.677 27.11,190.631 28,190.799 L 27.8,191.399 L 28.4,191.599 C 27.713,193.179 26.889,194.621 26,195.999 L 25.6,195.799 L 25.2,195.999 C 24.784,196.161 23.796,197.55 25.2,197.199 L 25,197.799 L 25.6,197.999 C 27.002,199.654 30.716,196.374 29.2,196.398 C 29.475,197.729 28.373,197.043 28,196.798 C 29.447,191.578 32.035,187.5 33.2,181.998 C 31.82,179.553 33.033,176.692 36.8,177.198 C 37.815,177.916 37.771,179.693 38.4,180.798 C 38.575,180.204 38.912,180.956 39.6,180.798 C 39.388,179.277 38.765,178.167 38.4,176.798 C 34.682,177.717 34.765,174.833 32.8,173.998 C 31.649,175.247 31.473,177.471 30,178.397 L 29.8,177.797 L 29.2,177.997 C 28.703,177.585 27.656,178.049 28.4,176.396 L 29,176.2 L 28.8,175.599 C 30.158,175.473 31.422,173.177 30.4,171.999 L 29.933,171.398 L 29.2,171.598 C 29.699,166.714 28.097,158.929 30.4,153.998 C 29.276,153.655 29.63,151.835 29.6,150.397 C 30.064,150.062 30.672,149.87 31.6,149.998 C 32.524,145.589 34.536,142.267 36.4,138.798 C 37.624,138.508 37.577,139.488 38.8,139.198 C 39.684,139.148 38.97,137.501 39.2,136.798 C 40.476,136.561 40.437,137.549 41.2,136.798 C 40.333,132.998 35.701,132.964 36.4,127.598 C 37.859,127.739 38.134,129.064 39.2,129.598 C 40.021,128.619 37.799,127.283 38,125.598 L 38.6,125.798 L 38.8,125.198 C 40.864,126.067 42.089,127.776 42.8,129.998 C 44.985,131.416 47.35,134.327 47.2,136.798 C 47.522,137.142 48.295,137.035 48.4,137.598 C 48.609,139.523 49.253,141.012 49.6,142.798 C 51.342,143.989 53.165,145.1 54.4,146.798 C 55.117,146.849 55.244,146.309 56,146.398 C 56.17,147.961 57.531,148.334 58,149.598 C 57.825,150.09 57.488,150.419 56.8,150.398 C 58,152.666 59.037,155.094 62,155.598 C 62.926,154.904 59.244,153.324 60.4,152.398 C 62.576,153.055 64.37,152.736 65.6,153.598 C 67.615,156.452 61.378,155.174 64.4,156.398 L 63.8,156.865 L 64,157.6 C 63.171,157.838 61.372,157.106 61.2,158 C 62.94,158.126 63.731,159.202 65.2,159.6 C 65.031,158.764 65.474,158.541 65.6,158 C 65.135,158.064 64.888,157.911 64.8,157.6 L 65.4,157.133 L 65.2,156.4 C 69.726,159.526 72.838,151.952 74.8,147.6 C 73.948,143.959 71.279,140.316 72,136.4 C 71.392,135.275 70.105,134.829 70.4,132.8 C 69.767,132.767 68.874,132.992 68.8,132.4 C 69.567,127.434 72.558,124.691 73.6,120.001 C 73.305,119.363 71.642,120.092 72,118.801 C 74.94,115.22 79.344,119.739 83.6,118.001 C 80.582,116.886 76.87,116.464 74.4,114.801 C 74.241,113.843 76.222,115.023 75.6,113.601 C 73.586,113.482 73.352,111.581 71.2,111.601 C 70.656,114.146 67.382,116.776 64.8,114.801 C 64.87,111.671 68.901,112.501 69.6,110.001 C 65.925,110.399 61.812,116.461 56.8,114.401 C 57.342,112.87 58.287,112.636 59.6,111.201 L 60.333,111.401 L 60.8,110.8 C 63.249,110.049 65.111,108.711 67.2,107.6 C 66.732,106.554 68.434,105.879 66.8,106 L 67,105.4 L 66.4,105.599 C 64.435,107.234 63.043,109.442 60.8,110.799 L 60.067,110.599 L 59.6,111.2 C 59.383,109.717 57.211,111.779 56.8,110 C 58.818,108.664 60.601,105.481 63.2,106 C 65.339,102.534 68.509,98.116 68.4,92.8 C 68.333,89.532 66.6,86.805 65.6,84 L 66.314,84.143 L 66.8,83.6 C 67.932,80.593 62.583,78.493 63.6,75.6 L 64.2,75.8 L 64.4,75.2 C 65.486,75.714 65.551,77.249 66.8,77.6 L 67.267,78.2 L 68,78 C 67.506,79.294 69.294,78.306 68.8,79.6 L 68.8,80.4 L 68.8,81.2 C 69.001,82.029 70.34,85.209 70.4,83.6 L 71,83.8 L 71.6,84 C 72.405,85.861 73.486,87.447 74,89.6 C 74.909,89.107 72.57,85.249 72,83.6 L 72.2,83 L 71.6,83.2 C 71.388,82.879 71.183,82.551 71.2,82 L 71.4,81.4 L 70.8,81.6 C 70.456,81.277 70.563,80.504 70,80.4 L 70.2,79.8 L 69.6,79.6 C 69.238,78.894 68.705,78.361 68,78 L 68.1,76.7 L 66.8,76.8 C 65.916,76.485 65.799,75.401 65.2,74.8 L 65.8,74.6 L 66,74 C 72.047,75.634 77.213,86.07 78.4,94 C 79.23,99.545 77.391,104.138 74.8,108.4 L 74.2,108.599 L 74.4,109.2 C 74,109.2 73.6,109.2 73.2,109.2 C 73.2,109.467 73.2,109.733 73.2,110 C 73.6,110 74,110 74.4,110 C 74.4,109.2 75,109 75,109 L 74.8,108.4 C 76.432,108.634 77.656,109.276 78,110.799 C 76.78,110.955 75.963,109.747 75.6,111.199 C 78.19,112.876 81.214,114.118 85.2,114.399 C 85.934,116.998 89.849,116.416 90,119.598 C 89.009,118.99 86.898,119.499 86,118.798 C 85.905,122.899 77.954,119.681 76,120.798 C 77.4,121.264 77.721,122.81 78.8,123.598 L 78.2,124.065 L 78.4,124.798 C 78.267,124.798 78.133,124.798 78,124.798 C 76.607,128.517 74.779,132.575 75.2,136.398 C 75.508,139.191 78.272,141.836 79.2,144.798 C 79.765,146.602 79.133,148.279 80,149.998 C 78.426,149.614 78.583,150.932 78,152.397 C 76.982,152.833 76.449,150.524 76.4,152.397 C 76.813,157.476 72.943,158.274 70.8,160.797 C 69.971,161.035 68.173,160.303 68,161.197 C 69.112,161.418 69.12,162.743 69.6,163.596 C 74.097,162.894 78.893,162.49 82.8,161.197 C 83.914,161.791 81.955,162.984 83.6,162.797 C 85.111,161.891 85.858,161.514 88,161.997 L 87.8,162.73 L 88.4,163.197 C 88.324,163.52 87.999,163.595 88,163.997 L 88.2,164.6 z M 71.2,92.4 C 72.013,91.196 71.582,88.469 70.4,88 C 70.685,89.449 70.551,91.315 71.2,92.4 z M 75.2,102.4 C 75.28,100.864 76.579,98.466 75.6,97.2 C 75.937,99.151 73.975,100.888 75.2,102.4 z M 39.2,142.399 C 40.017,142.783 40.783,143.216 41.6,143.599 C 41.353,142.512 40.807,141.726 40,141.2 C 39.904,141.771 39.341,141.874 39.2,142.399 z M 45.6,146.399 C 47.12,148.48 47.564,151.635 49.6,153.2 C 49.186,150.136 47.282,147.375 47.6,144.8 C 47.174,145.574 46.245,145.845 45.6,146.399 z M 54,154.399 C 54.189,153.143 53.501,152.765 52.8,152.399 C 53.388,153.92 51.012,152.478 51.6,154 C 53.112,154.579 52.368,152.9 53.6,153.2 C 53.663,153.671 53.531,154.335 54,154.399 z M 32.8,163.6 C 32.792,161.859 33.49,160.824 34.4,160 C 33.296,160.171 34.025,158.509 33.2,158.399 C 32.408,159.224 31.883,162.396 32.8,163.6 z M 45.6,159.6 C 45.867,159.6 46.133,159.6 46.4,159.6 C 46.399,159.199 46.724,159.124 46.8,158.8 C 46.289,158.779 46.246,158.287 45.6,158.4 C 45.6,158.8 45.6,159.2 45.6,159.6 z M 59.6,164.8 C 57.334,163.993 56.37,159.771 53.6,160.8 C 55.913,161.56 56.754,165.905 59.6,164.8 z M 63.6,161.6 C 63.881,160.607 61.89,159.906 61.6,160.8 C 62.595,160.738 62.838,161.429 63.6,161.6 z M 33.2,167.6 C 33.526,166.961 34.716,165.16 33.6,164.4 C 33.512,167.595 32.56,163.321 32.4,164.4 C 32.334,165.8 32.506,166.96 33.2,167.6 z M 72.4,166.399 C 72.873,166.206 73.307,165.973 73.6,165.599 C 73.065,165.538 71.395,166.229 72.4,166.399 z M 37.6,185.6 C 37.544,187.513 40.384,184.077 39.2,183.6 C 38.573,184.174 38.885,185.685 37.6,185.6 z"
   id="path4662"
   style="fill-rule:evenodd" />
		<path
   clip-rule="evenodd"
   d="M 35.8,124.6 L 36.4,124.8 C 36.388,126.522 34.733,126.599 34.4,128 C 30.438,129.238 28.783,132.782 24.8,134 C 23.377,135.243 22.5,137.033 19.6,136.8 C 17.586,134.404 18.587,131.869 21.2,130.4 C 20.973,130.027 20.088,129.795 20.8,129.6 C 21.226,128.13 23.352,125.907 25.2,123.6 C 26.659,121.779 30.411,118.769 26.8,118 L 26.2,117.8 L 26,118.4 C 22.643,113.89 17.357,111.309 15.2,105.599 L 15.4,104.999 L 14.8,105.199 C 13.391,101.808 13.155,97.243 12.4,93.199 L 11.8,93 L 11.2,93.2 C 12.231,89.031 13.112,84.712 16.4,82.8 C 17.021,85.379 18.992,86.608 19.2,89.6 C 20.412,73.612 29.169,65.169 36.4,55.2 C 36.347,54.214 36.339,53.272 36.8,52.8 C 37.556,52.623 39.211,53.344 38.8,52 C 40.174,52.36 41.464,52.803 42,54 C 43.13,54.331 43.036,53.436 44,53.6 L 44.52,54.12 L 45.2,54.4 C 44.659,55.727 42.602,55.536 41.6,56.4 C 37.546,66.613 33.786,77.119 32,89.6 L 31.533,89 L 30.8,89.2 C 29.469,81.386 32.27,71.72 35.2,65.6 C 33.56,65.827 34.002,68.136 32.8,68.8 L 32.334,68.2 L 31.6,68.4 C 32.207,66.533 27.731,72.996 27.2,74 C 26.257,75.783 25.721,77.841 26.4,79.6 L 26.2,80.2 L 26.8,80.4 C 26.678,81.819 26.863,87.918 27.2,84 C 27.423,82.344 28.269,79.219 27.6,78 L 27.8,77.4 L 27.2,77.2 C 27.58,75.58 28.703,74.703 29.6,73.6 L 30.066,74.2 L 30.8,74 C 27.971,82.317 28.784,95.455 34,100.4 C 32.205,102.164 35.4,103.94 33.6,105.599 C 32.539,104.104 31.466,105.088 29.6,104.4 C 27.055,101.078 24.484,97.782 22.4,94 C 23.314,93.091 24.083,91.595 25.6,92.4 C 26.667,92.817 26.752,96.291 28,95.2 C 25.701,92.033 25.148,87.118 23.6,83.2 C 22.953,86.286 22.477,89.544 21.2,92 C 19.837,92.296 20.54,90.526 19.6,90.4 C 22.805,100.262 28.241,107.893 40,109.2 C 40.771,109.037 40.316,107.649 41.6,108 C 46.458,109.467 52.716,107.256 56.8,108 C 56.795,108.795 55.709,108.509 56,109.6 C 51.359,110.292 47.875,112.142 43.6,113.201 C 44.065,113.136 44.311,113.289 44.4,113.6 C 41.534,114.737 38.387,111.63 35.6,112.8 C 36.413,112.678 35.518,113.955 35.2,114 L 34.733,113.4 L 34,113.6 C 34.756,112.204 32.108,112.991 31.2,112.8 C 28.965,112.331 28.025,109.269 26.4,110.8 C 26.19,108.704 25.213,108.52 25.2,110 C 24.544,109.562 23.139,107.83 22.4,108.8 C 25.208,111.192 28.779,112.821 31.6,115.2 C 32.793,115.193 32.96,114.16 34,114 L 34.2,114.6 L 34.8,114.8 C 36.122,115.4 33.969,115.779 34.4,116.8 C 36.824,116.376 37.123,118.077 38.4,118.8 C 37.579,119.18 37.292,120.092 36.8,120.8 C 33.727,120.927 32.578,122.979 31.6,125.2 C 32.961,124.694 34.428,124.294 36,124 L 35.8,124.6 z"
   id="path4664"
   style="fill-rule:evenodd" />
		<path
   clip-rule="evenodd"
   d="M 155.399,97 L 155.2,96.4 C 158.301,93.367 159.857,88.791 163.2,86 C 164.616,87.936 163.63,89.817 164.8,92 L 164.2,92.2 L 164.399,92.8 C 164.266,92.8 164.132,92.8 164,92.8 C 163.265,94.598 162.67,96.537 162,98.401 L 161.6,98.201 L 161.2,98 C 160.933,98 160.667,98 160.399,98 L 160.599,97.4 L 159.999,97.2 C 159.91,96.431 160.551,94.023 160.398,93.6 C 159.509,95.245 158.087,96.355 157.199,98 L 156.799,97.8 L 156.399,97.6 C 156,97.6 155.599,97.6 155.2,97.6 L 155.399,97 z"
   id="path4666"
   style="fill-rule:evenodd" />
		<path
   clip-rule="evenodd"
   d="M 180.2,164.467 L 179.6,164 C 179.808,161.941 179.83,159.696 180.8,158.399 L 181.4,158.599 L 182.001,158.399 C 182.183,159.528 182.7,161.292 182.001,162.799 L 181.801,163.399 L 182.401,163.599 C 182.475,163.94 182.246,163.977 182.002,163.999 L 180.802,163.999 L 180.802,165.199 C 180.535,165.199 180.269,165.199 180.002,165.199 L 180.2,164.467 z"
   id="path4668"
   style="fill-rule:evenodd" />
		<path
   clip-rule="evenodd"
   d="M 66.4,106.4 L 66.8,106.4 C 66.508,107.308 65.596,107.596 64.8,108 C 65.204,107.203 65.491,106.291 66.4,106 L 66.4,106.4 z"
   id="path4670"
   style="fill-rule:evenodd" />
		<g
   id="g4672">
			<path
   clip-rule="evenodd"
   d="M 50.28,129.72 C 49.182,128.949 48.309,127.945 47.267,127.133"
   id="path4674"
   style="fill:none;fill-rule:evenodd;stroke:#000000;stroke-width:1.39890003;stroke-linecap:round" />
			<path
   clip-rule="evenodd"
   d="M 71.4,162.399 C 74.207,161.873 77.072,161.726 79.8,160.799"
   id="path4676"
   style="fill:none;fill-rule:evenodd;stroke:#000000;stroke-width:0.70609999;stroke-linecap:round" />
			<path
   clip-rule="evenodd"
   d="M 204.52,30.68 C 206.398,31.784 207.825,33.669 209.88,34.52"
   id="path4678"
   style="fill:none;fill-rule:evenodd;stroke:#000000;stroke-width:1.31799996;stroke-linecap:round" />
			<path
   clip-rule="evenodd"
   d="M 235.2,118.8 C 235.012,117.507 234.614,116.27 234.2,115"
   id="path4680"
   style="fill:none;fill-rule:evenodd;stroke:#000000;stroke-width:0.81650001;stroke-linecap:round" />
			<path
   clip-rule="evenodd"
   d="M 219.399,118.866 C 219.157,118.987 218.976,119.191 218.799,119.4"
   id="path4682"
   style="fill:none;fill-rule:evenodd;stroke:#000000;stroke-width:1.10749996;stroke-linecap:round" />
			<path
   clip-rule="evenodd"
   d="M 216.2,73.133 C 216.065,73.062 215.931,72.991 215.798,72.92 C 215.14,72.069 215.398,70.799 215.533,69.8"
   id="path4684"
   style="fill:none;fill-rule:evenodd;stroke:#000000;stroke-width:1.22819996;stroke-linecap:round" />
			<path
   clip-rule="evenodd"
   d="M 213.6,104 C 213.513,103.313 214.138,102.886 214.201,102.2"
   id="path4686"
   style="fill:none;fill-rule:evenodd;stroke:#000000;stroke-width:0.8944;stroke-linecap:round" />
			<path
   clip-rule="evenodd"
   d="M 177.8,94.6 C 177.4,94.857 177,95.088 176.6,95.4"
   id="path4688"
   style="fill:none;fill-rule:evenodd;stroke:#000000;stroke-width:0.63249999;stroke-linecap:round" />
			<path
   clip-rule="evenodd"
   d="M 140,149.6 C 140.742,149.075 141.878,148.759 142.2,147.8"
   id="path4690"
   style="fill:none;fill-rule:evenodd;stroke:#000000;stroke-width:0.7572;stroke-linecap:round" />
			<path
   clip-rule="evenodd"
   d="M 136.333,151.8 C 136.244,152.067 136.155,152.333 136.066,152.6"
   id="path4692"
   style="fill:none;fill-rule:evenodd;stroke:#000000;stroke-width:1.26489997;stroke-linecap:round" />
			<path
   clip-rule="evenodd"
   d="M 233,213.267 C 233.733,213.64 234.379,214.215 235.2,214.4"
   id="path4694"
   style="fill:none;fill-rule:evenodd;stroke:#000000;stroke-width:1.1243;stroke-linecap:round" />
			<path
   clip-rule="evenodd"
   d="M 89.8,163 C 89.829,163.917 88.821,164.2 88.2,164.6"
   id="path4696"
   style="fill:none;fill-rule:evenodd;stroke:#000000;stroke-width:1.13779998;stroke-linecap:round" />
			<path
   clip-rule="evenodd"
   d="M 72.6,171.8 C 73.217,171.69 73.502,171.169 73.9,170.4"
   id="path4698"
   style="fill:none;fill-rule:evenodd;stroke:#000000;stroke-width:0.69279999;stroke-linecap:round" />
			<path
   clip-rule="evenodd"
   d="M 67.8,171 C 67.119,171.142 66.912,171.376 66.2,171.8"
   id="path4700"
   style="fill:none;fill-rule:evenodd;stroke:#000000;stroke-width:0.87639999;stroke-linecap:round" />
			<path
   clip-rule="evenodd"
   d="M 66.6,173.267 C 67,173.48 67.4,173.864 67.8,174.201"
   id="path4702"
   style="fill:none;fill-rule:evenodd;stroke:#000000;stroke-width:1.21109998;stroke-linecap:round" />
			<path
   clip-rule="evenodd"
   d="M 23.8,183.399 C 23.98,182.184 24.422,180.987 24.8,179.799"
   id="path4704"
   style="fill:none;fill-rule:evenodd;stroke:#000000;stroke-width:1.16390002;stroke-linecap:round" />
			<path
   clip-rule="evenodd"
   d="M 26.6,182.6 C 27.871,181.247 29.202,179.66 29.8,177.8"
   id="path4706"
   style="fill:none;fill-rule:evenodd;stroke:#000000;stroke-width:0.7956;stroke-linecap:round" />
			<path
   clip-rule="evenodd"
   d="M 27.686,175.343 C 27.494,175.661 27.299,176.018 27.115,176.257"
   id="path4708"
   style="fill:none;fill-rule:evenodd;stroke:#000000;stroke-width:1.38559997;stroke-linecap:round" />
			<path
   clip-rule="evenodd"
   d="M 27.686,175.343 C 28.22,173.897 29.636,172.956 29.934,171.4"
   id="path4710"
   style="fill:none;fill-rule:evenodd;stroke:#000000;stroke-width:1.48769999;stroke-linecap:round" />
			<path
   clip-rule="evenodd"
   d="M 26.6,118.8 C 26.473,118.721 26.392,118.255 26.2,117.8"
   id="path4712"
   style="fill:none;fill-rule:evenodd;stroke:#000000;stroke-width:0.87180001;stroke-linecap:round" />
			<path
   clip-rule="evenodd"
   d="M 15.4,105 C 14.99,105.289 14.664,105.411 14.346,105.563 C 11.945,102.062 10.881,97.253 11.8,93"
   id="path4714"
   style="fill:none;fill-rule:evenodd;stroke:#000000;stroke-width:1.02129996;stroke-linecap:round" />
			<path
   clip-rule="evenodd"
   d="M 44.52,54.12 C 44.784,53.89 45.31,53.819 45.8,53.666"
   id="path4716"
   style="fill:none;fill-rule:evenodd;stroke:#000000;stroke-width:1.29610002;stroke-linecap:round" />
			<path
   clip-rule="evenodd"
   d="M 187.8,13.8 C 189.582,13.995 191.331,14.518 193.1,14.8"
   id="path4718"
   style="fill:none;fill-rule:evenodd;stroke:#000000;stroke-width:1.36629999;stroke-linecap:round" />
			<path
   clip-rule="evenodd"
   d="M 193.1,14.8 C 197.018,15.512 201.049,15.474 205,15.8"
   id="path4720"
   style="fill:none;fill-rule:evenodd;stroke:#000000;stroke-width:1.49759996;stroke-linecap:round" />
			<path
   clip-rule="evenodd"
   d="M 193.1,14.8 C 192.655,15.283 192.571,16.008 193,16.2"
   id="path4722"
   style="fill:none;fill-rule:evenodd;stroke:#000000;stroke-width:0.56569999;stroke-linecap:round" />
			<path
   clip-rule="evenodd"
   d="M 35.8,124.6 C 36.689,124.136 37.744,123.746 38.706,123.699 C 38.764,123.81 38.777,123.989 38.789,124.171 C 38.48,124.624 38.386,125.157 38.601,125.801"
   id="path4724"
   style="fill:none;fill-rule:evenodd;stroke:#000000;stroke-width:0.78619999;stroke-linecap:round" />
			<path
   clip-rule="evenodd"
   d="M 63.8,156.866 C 64.334,156.966 64.867,157.004 65.4,157.133"
   id="path4726"
   style="fill:none;fill-rule:evenodd;stroke:#000000;stroke-width:1.23940003;stroke-linecap:round" />
			<path
   clip-rule="evenodd"
   d="M 66.314,84.143 C 65.327,82.355 64.398,80.533 63.114,78.943"
   id="path4728"
   style="fill:none;fill-rule:evenodd;stroke:#000000;stroke-width:1.20420003;stroke-linecap:round" />
			<path
   clip-rule="evenodd"
   d="M 60.6,71.6 C 61.806,72.925 63.738,73.911 64.2,75.8"
   id="path4730"
   style="fill:none;fill-rule:evenodd;stroke:#000000;stroke-width:0.79540002;stroke-linecap:round" />
			<path
   clip-rule="evenodd"
   d="M 67.267,78.2 C 67.391,77.78 67.732,77.196 68.1,76.7"
   id="path4732"
   style="fill:none;fill-rule:evenodd;stroke:#000000;stroke-width:1.47870004;stroke-linecap:round" />
			<path
   clip-rule="evenodd"
   d="M 65.8,74.6 C 65.213,74.112 64.535,73.704 64.2,73"
   id="path4734"
   style="fill:none;fill-rule:evenodd;stroke:#000000;stroke-width:0.92739999;stroke-linecap:round" />
			<path
   clip-rule="evenodd"
   d="M 74.2,108.6 C 74.467,108.734 74.734,108.867 75,109"
   id="path4736"
   style="fill:none;fill-rule:evenodd;stroke:#000000;stroke-width:0.8944;stroke-linecap:round" />
			<path
   clip-rule="evenodd"
   d="M 78.2,124.066 C 78.467,124.155 78.734,124.244 79,124.333"
   id="path4738"
   style="fill:none;fill-rule:evenodd;stroke:#000000;stroke-width:1.26489997;stroke-linecap:round" />
			<path
   clip-rule="evenodd"
   d="M 116.2,127 C 116.901,126.546 116.987,125.727 117.2,125"
   id="path4740"
   style="fill:none;fill-rule:evenodd;stroke:#000000;stroke-width:0.60000002;stroke-linecap:round" />
			<path
   clip-rule="evenodd"
   d="M 153.8,98.2 C 154.443,97.774 154.68,97.441 155.4,97"
   id="path4742"
   style="fill:none;fill-rule:evenodd;stroke:#000000;stroke-width:0.97979999;stroke-linecap:round" />
			<path
   clip-rule="evenodd"
   d="M 166.866,89.4 C 167,88.733 166.968,88.067 167.133,87.4"
   id="path4744"
   style="fill:none;fill-rule:evenodd;stroke:#000000;stroke-width:1.23749995;stroke-linecap:round" />
			<path
   clip-rule="evenodd"
   d="M 168.733,74.2 C 168.428,72.212 168.637,70.151 169,68.2"
   id="path4746"
   style="fill:none;fill-rule:evenodd;stroke:#000000;stroke-width:1.11870003;stroke-linecap:round" />
			<path
   clip-rule="evenodd"
   d="M 169.399,74.2 C 169.531,74.125 169.662,74.05 169.794,73.975 C 169.934,73.733 169.954,73.347 170,73"
   id="path4748"
   style="fill:none;fill-rule:evenodd;stroke:#000000;stroke-width:0.86409998;stroke-linecap:round" />
			<path
   clip-rule="evenodd"
   d="M 181.399,158.6 C 181.455,158.201 181.443,157.8 181.399,157.4"
   id="path4750"
   style="fill:none;fill-rule:evenodd;stroke:#000000;stroke-width:1.29610002;stroke-linecap:round" />
			<path
   clip-rule="evenodd"
   d="M 181.8,163.399 C 182.333,163.251 182.866,163.193 183.4,163"
   id="path4752"
   style="fill:none;fill-rule:evenodd;stroke:#000000;stroke-width:0.85790002;stroke-linecap:round" />
			<path
   clip-rule="evenodd"
   d="M 104.4,47.2 C 104.669,46.871 104.796,46.556 105,46.2"
   id="path4754"
   style="fill:none;fill-rule:evenodd;stroke:#000000;stroke-width:0.77460003;stroke-linecap:round" />
			<path
   clip-rule="evenodd"
   d="M 101,47.4 C 100.6,47.672 100.2,47.766 99.8,47.933"
   id="path4756"
   style="fill:none;fill-rule:evenodd;stroke:#000000;stroke-width:1.22640002;stroke-linecap:round" />
			<path
   clip-rule="evenodd"
   d="M 87.8,54.2 C 88.163,54.027 88.738,53.743 89.08,53.48"
   id="path4758"
   style="fill:none;fill-rule:evenodd;stroke:#000000;stroke-width:1.32659996;stroke-linecap:round" />
			<path
   clip-rule="evenodd"
   d="M 31.2,92.6 C 31.641,91.45 31.182,90.171 31.533,89"
   id="path4760"
   style="fill:none;fill-rule:evenodd;stroke:#000000;stroke-width:1.20829999;stroke-linecap:round" />
			<path
   clip-rule="evenodd"
   d="M 109.32,41.72 C 109.909,41.391 110.432,40.985 110.92,40.52"
   id="path4762"
   style="fill:none;fill-rule:evenodd;stroke:#000000;stroke-width:1.41419995;stroke-linecap:round" />
			<path
   clip-rule="evenodd"
   d="M 71.4,50.2 C 72.132,50.578 73.003,50.709 73.8,50.467"
   id="path4764"
   style="fill:none;fill-rule:evenodd;stroke:#000000;stroke-width:1.20000005;stroke-linecap:round" />
			<path
   clip-rule="evenodd"
   d="M 26.2,80.2 C 26.98,79.417 26.882,78.122 27.8,77.4"
   id="path4766"
   style="fill:none;fill-rule:evenodd;stroke:#000000;stroke-width:0.79229999;stroke-linecap:round" />
			<path
   clip-rule="evenodd"
   d="M 30.066,74.2 C 30.329,72.026 31.834,70.295 32.333,68.2"
   id="path4768"
   style="fill:none;fill-rule:evenodd;stroke:#000000;stroke-width:1.31990004;stroke-linecap:round" />
			<path
   clip-rule="evenodd"
   d="M 68.8,80.4 C 69.154,80.136 69.694,80.018 70.2,79.8"
   id="path4770"
   style="fill:none;fill-rule:evenodd;stroke:#000000;stroke-width:0.93809998;stroke-linecap:round" />
			<path
   clip-rule="evenodd"
   d="M 68.8,80.4 C 69.28,80.862 69.73,81.304 70,81.8"
   id="path4772"
   style="fill:none;fill-rule:evenodd;stroke:#000000;stroke-width:0.81650001;stroke-linecap:round" />
			<path
   clip-rule="evenodd"
   d="M 70,81.8 C 70.54,81.823 70.953,81.617 71.4,81.4"
   id="path4774"
   style="fill:none;fill-rule:evenodd;stroke:#000000;stroke-width:0.48989999;stroke-linecap:round" />
			<path
   clip-rule="evenodd"
   d="M 178.2,82.6 C 176.915,81.738 175.538,80.764 173.921,81.201 C 173.564,82.022 173.442,82.934 173.2,83.8"
   id="path4776"
   style="fill:none;fill-rule:evenodd;stroke:#000000;stroke-width:0.86409998;stroke-linecap:round" />
			<path
   clip-rule="evenodd"
   d="M 70,81.8 C 70.118,82.577 70.757,83.072 71,83.8"
   id="path4778"
   style="fill:none;fill-rule:evenodd;stroke:#000000;stroke-width:0.71799999;stroke-linecap:round" />
			<path
   clip-rule="evenodd"
   d="M 71,83.8 C 71.4,83.543 71.8,83.312 72.2,83"
   id="path4780"
   style="fill:none;fill-rule:evenodd;stroke:#000000;stroke-width:0.63249999;stroke-linecap:round" />
			<path
   clip-rule="evenodd"
   d="M 165.399,92.6 C 165,92.472 164.599,92.356 164.2,92.2"
   id="path4782"
   style="fill:none;fill-rule:evenodd;stroke:#000000;stroke-width:0.86409998;stroke-linecap:round" />
			<path
   clip-rule="evenodd"
   d="M 155.8,102.6 C 156.279,101.733 157.201,101.185 158.2,101.401"
   id="path4784"
   style="fill:none;fill-rule:evenodd;stroke:#000000;stroke-width:1.20000005;stroke-linecap:round" />
			<path
   clip-rule="evenodd"
   d="M 159.8,99.4 C 160.029,98.702 159.915,97.888 160.6,97.4"
   id="path4786"
   style="fill:none;fill-rule:evenodd;stroke:#000000;stroke-width:0.82459998;stroke-linecap:round" />
			<path
   clip-rule="evenodd"
   d="M 155,99.8 C 155.874,99.37 156.376,98.652 156.8,97.8"
   id="path4788"
   style="fill:none;fill-rule:evenodd;stroke:#000000;stroke-width:0.75319999;stroke-linecap:round" />
			<path
   clip-rule="evenodd"
   d="M 160.6,99.8 C 161.285,99.573 161.391,98.779 161.6,98.2"
   id="path4790"
   style="fill:none;fill-rule:evenodd;stroke:#000000;stroke-width:0.74830002;stroke-linecap:round" />
			<path
   clip-rule="evenodd"
   d="M 60.066,110.6 C 60.155,110.867 60.244,111.133 60.333,111.401"
   id="path4792"
   style="fill:none;fill-rule:evenodd;stroke:#000000;stroke-width:1.26489997;stroke-linecap:round" />
			<path
   clip-rule="evenodd"
   d="M 66.4,106.4 C 66.517,106.139 66.735,105.753 67,105.4"
   id="path4794"
   style="fill:none;fill-rule:evenodd;stroke:#000000;stroke-width:0.51639998;stroke-linecap:round" />
			<path
   clip-rule="evenodd"
   d="M 34.2,114.6 C 34.352,114.287 34.533,113.879 34.733,113.401"
   id="path4796"
   style="fill:none;fill-rule:evenodd;stroke:#000000;stroke-width:1.11360002;stroke-linecap:round" />
			<path
   clip-rule="evenodd"
   d="M 107.2,174.899 C 106.439,175.183 105.997,175.153 105.719,175.104 C 104.962,172.557 105.426,169.773 104.801,167.2"
   id="path4798"
   style="fill:none;fill-rule:evenodd;stroke:#000000;stroke-width:0.80489999;stroke-linecap:round" />
			<path
   clip-rule="evenodd"
   d="M 107.2,174.899 C 107.469,172.591 106.896,170.42 106.6,168.2"
   id="path4800"
   style="fill:none;fill-rule:evenodd;stroke:#000000;stroke-width:1.56840003;stroke-linecap:round" />
			<path
   clip-rule="evenodd"
   d="M 107.2,174.899 C 107.823,176.311 107.775,177.931 108.2,179.399"
   id="path4802"
   style="fill:none;fill-rule:evenodd;stroke:#000000;stroke-width:1.37539995;stroke-linecap:round" />
			<path
   clip-rule="evenodd"
   d="M 138.2,148.399 C 139.334,148.788 139.987,147.477 141,147.266"
   id="path4804"
   style="fill:none;fill-rule:evenodd;stroke:#000000;stroke-width:1.07869995;stroke-linecap:round" />
			<path
   clip-rule="evenodd"
   d="M 145.133,138.6 C 144.93,137.277 145.018,135.924 144.8,134.6"
   id="path4806"
   style="fill:none;fill-rule:evenodd;stroke:#000000;stroke-width:1.14310002;stroke-linecap:round" />
			<path
   clip-rule="evenodd"
   d="M 129.8,149.399 C 130.067,149.009 130.333,148.645 130.6,148.2"
   id="path4808"
   style="fill:none;fill-rule:evenodd;stroke:#000000;stroke-width:0.8944;stroke-linecap:round" />
			<path
   clip-rule="evenodd"
   d="M 89,162.066 C 88.6,162.295 88.2,162.541 87.8,162.733"
   id="path4810"
   style="fill:none;fill-rule:evenodd;stroke:#000000;stroke-width:1.222;stroke-linecap:round" />
			<path
   clip-rule="evenodd"
   d="M 183.2,164.8 C 183.354,164.421 183.709,164.242 184,164"
   id="path4812"
   style="fill:none;fill-rule:evenodd;stroke:#000000;stroke-width:0.50599998;stroke-linecap:round" />
			<path
   clip-rule="evenodd"
   d="M 181.866,165.467 C 181.496,164.936 181.202,164.515 180.8,164"
   id="path4814"
   style="fill:none;fill-rule:evenodd;stroke:#000000;stroke-width:1.61660004;stroke-linecap:round" />
			<path
   clip-rule="evenodd"
   d="M 180.2,164.467 C 179.933,164.556 179.666,164.645 179.399,164.734"
   id="path4816"
   style="fill:none;fill-rule:evenodd;stroke:#000000;stroke-width:1.26489997;stroke-linecap:round" />
			<path
   clip-rule="evenodd"
   d="M 64.2,170.6 C 64.762,170.343 65.215,170.057 65.8,169.8"
   id="path4818"
   style="fill:none;fill-rule:evenodd;stroke:#000000;stroke-width:0.80000001;stroke-linecap:round" />
			<path
   clip-rule="evenodd"
   d="M 73.9,170.399 C 75.097,170.566 76.35,169.95 77,169"
   id="path4820"
   style="fill:none;fill-rule:evenodd;stroke:#000000;stroke-width:0.84539998;stroke-linecap:round" />
			<path
   clip-rule="evenodd"
   d="M 27.686,175.343 C 27.962,175.562 28.506,175.812 29,176.2"
   id="path4822"
   style="fill:none;fill-rule:evenodd;stroke:#000000;stroke-width:0.69279999;stroke-linecap:round" />
			<path
   clip-rule="evenodd"
   d="M 29.8,188.6 C 29.148,189.556 28.773,190.646 27.8,191.4"
   id="path4824"
   style="fill:none;fill-rule:evenodd;stroke:#000000;stroke-width:0.85210001;stroke-linecap:round" />
			<path
   clip-rule="evenodd"
   d="M 120.066,199.934 C 120.279,199.968 120.663,200.076 121,200.201"
   id="path4826"
   style="fill:none;fill-rule:evenodd;stroke:#000000;stroke-width:0.86409998;stroke-linecap:round" />
			<path
   clip-rule="evenodd"
   d="M 121,200.2 C 121.148,199.666 121.207,199.133 121.4,198.599"
   id="path4828"
   style="fill:none;fill-rule:evenodd;stroke:#000000;stroke-width:0.90920001;stroke-linecap:round" />
			<path
   clip-rule="evenodd"
   d="M 25,197.8 C 25.485,197.245 25.67,196.524 25.6,195.8"
   id="path4830"
   style="fill:none;fill-rule:evenodd;stroke:#000000;stroke-width:0.75419998;stroke-linecap:round" />
			<path
   clip-rule="evenodd"
   d="M 120.066,199.934 C 119.455,198.468 117.961,197.686 117.399,196.201"
   id="path4832"
   style="fill:none;fill-rule:evenodd;stroke:#000000;stroke-width:0.86229998;stroke-linecap:round" />
			<path
   clip-rule="evenodd"
   d="M 121,200.2 C 121.057,201.148 121.421,202.051 121.533,203"
   id="path4834"
   style="fill:none;fill-rule:evenodd;stroke:#000000;stroke-width:1.20659995;stroke-linecap:round" />
			<path
   clip-rule="evenodd"
   d="M 120.066,199.934 C 119.232,200.597 119.53,201.708 119.266,202.6"
   id="path4836"
   style="fill:none;fill-rule:evenodd;stroke:#000000;stroke-width:1.1027;stroke-linecap:round" />
			<path
   clip-rule="evenodd"
   d="M 123.4,207.133 C 122.989,206.922 122.724,206.565 122.466,206.2"
   id="path4838"
   style="fill:none;fill-rule:evenodd;stroke:#000000;stroke-width:1.26489997;stroke-linecap:round" />
		</g>
	</g>
</g>
</svg>