<?xml version="1.0" encoding="UTF-8" standalone="no"?>
<!-- Generator: Adobe Illustrator 13.0.0, SVG Export Plug-In . SVG Version: 6.00 Build 14948)  -->
<svg
   xmlns:dc="http://purl.org/dc/elements/1.1/"
   xmlns:cc="http://creativecommons.org/ns#"
   xmlns:rdf="http://www.w3.org/1999/02/22-rdf-syntax-ns#"
   xmlns:svg="http://www.w3.org/2000/svg"
   xmlns="http://www.w3.org/2000/svg"
   xmlns:sodipodi="http://sodipodi.sourceforge.net/DTD/sodipodi-0.dtd"
   xmlns:inkscape="http://www.inkscape.org/namespaces/inkscape"
   version="1.0"
   id="taming_the_ox"
   x="0px"
   y="0px"
   width="100%"
   height="100%"
   viewBox="0 0 264.1184 232.95048"
   xml:space="preserve"
   sodipodi:version="0.32"
   inkscape:version="0.46"
   sodipodi:docname="05 - taming the ox.svg"
   inkscape:output_extension="org.inkscape.output.svg.inkscape"><metadata
     id="metadata330"><rdf:RDF><cc:Work
         rdf:about=""><dc:format>image/svg+xml</dc:format><dc:type
           rdf:resource="http://purl.org/dc/dcmitype/StillImage" /></cc:Work></rdf:RDF></metadata><defs
     id="defs328"><inkscape:perspective
       sodipodi:type="inkscape:persp3d"
       inkscape:vp_x="0 : 300 : 1"
       inkscape:vp_y="0 : 1000 : 0"
       inkscape:vp_z="800 : 300 : 1"
       inkscape:persp3d-origin="400 : 200 : 1"
       id="perspective332" /></defs><sodipodi:namedview
     inkscape:window-height="1024"
     inkscape:window-width="1680"
     inkscape:pageshadow="2"
     inkscape:pageopacity="0.0"
     guidetolerance="10.0"
     gridtolerance="10.0"
     objecttolerance="10.0"
     borderopacity="1.0"
     bordercolor="#666666"
     pagecolor="#ffffff"
     id="base"
     showgrid="false"
     inkscape:zoom="0.68"
     inkscape:cx="400"
     inkscape:cy="300"
     inkscape:window-x="-4"
     inkscape:window-y="-4"
     inkscape:current-layer="taming_the_ox" /><g
     id="g3"
     transform="translate(-268.97675,-183.74657)"><g
       id="g5"><path
         clip-rule="evenodd"
         d="M 326.6,184.2 C 326.533,183.332 328.018,184.018 328.6,183.8 C 328.667,184.667 327.181,183.981 326.6,184.2 z"
         id="path7"
         style="fill-rule:evenodd" /><path
         clip-rule="evenodd"
         d="M 337.8,192.6 C 336.927,192.672 336.528,192.272 336.6,191.4 C 336.973,191.827 338.075,191.524 337.8,192.6 z"
         id="path9"
         style="fill-rule:evenodd" /><path
         clip-rule="evenodd"
         d="M 332.6,226.2 C 331.302,224.565 328.919,224.015 328.6,221.4 C 331.004,220.689 332.736,223.862 333.8,225.8 L 333.2,226 L 332.6,226.2 z"
         id="path11"
         style="fill-rule:evenodd" /><path
         clip-rule="evenodd"
         d="M 282.6,261.4 C 282.307,262.112 281.872,261.458 281.4,261.4 C 281.693,260.688 282.127,261.342 282.6,261.4 z"
         id="path13"
         style="fill-rule:evenodd" /><path
         clip-rule="evenodd"
         d="M 301.8,285 C 302.939,285.328 303.831,285.902 304.2,287 C 303.876,286.924 303.801,286.599 303.4,286.6 C 303.011,286.611 303.089,287.09 303,287.4 C 301.909,287.692 302.195,286.605 301.4,286.6 C 301.349,285.882 301.89,285.756 301.8,285 z"
         id="path15"
         style="fill-rule:evenodd" /><path
         clip-rule="evenodd"
         d="M 317,286.2 C 318.133,286.267 318.667,286.933 319.8,287 C 319.292,287.866 316.727,287.438 317,286.2 z"
         id="path17"
         style="fill-rule:evenodd" /><path
         clip-rule="evenodd"
         d="M 305.8,287 C 306.446,286.887 306.489,287.378 307,287.4 C 307.159,288.176 305.178,287.984 305.8,287 z"
         id="path19"
         style="fill-rule:evenodd" /><path
         clip-rule="evenodd"
         d="M 371.4,292.2 C 371.667,292.2 371.933,292.2 372.2,292.2 C 372.2,292.467 372.2,292.734 372.2,293 C 371.933,293 371.667,293 371.4,293 C 371.4,292.733 371.4,292.466 371.4,292.2 z"
         id="path21"
         style="fill-rule:evenodd" /><path
         clip-rule="evenodd"
         d="M 344.2,297.4 C 344.2,297.8 344.2,298.2 344.2,298.6 C 343.109,298.564 343.395,299.267 342.6,298.6 C 342.948,298.014 343.199,297.332 344.2,297.4 z"
         id="path23"
         style="fill-rule:evenodd" /><path
         clip-rule="evenodd"
         d="M 295.4,361.399 C 296.104,361.496 296.312,362.087 296.2,363 C 295.08,363.062 294.895,361.869 295.4,361.399 z"
         id="path25"
         style="fill-rule:evenodd" /><path
         clip-rule="evenodd"
         d="M 367.8,368.2 C 368.369,368.688 368.709,369.726 368.2,370.2 C 367.333,370.268 368.019,368.781 367.8,368.2 z"
         id="path27"
         style="fill-rule:evenodd" /><path
         clip-rule="evenodd"
         d="M 301,395.8 C 305.285,395.915 308.815,396.784 310.2,399.8 C 306.936,400.001 301.714,399.407 301,395.8 z"
         id="path29"
         style="fill-rule:evenodd" /><path
         clip-rule="evenodd"
         d="M 380.6,295.8 C 381.543,293.81 383.555,292.888 385.8,292.2 C 386.828,289.095 387.661,285.794 387.8,281.8 C 387.969,280.431 386.602,280.598 386.2,279.8 C 388.874,274.074 393.641,270.441 398.6,267 C 398.728,266.061 399.232,265.499 399,264.2 C 393.248,259.285 386.637,255.229 379,252.2 C 381.71,257.356 388.637,258.296 390.2,264.6 C 388.641,264.692 388.126,263.741 387,263.4 C 385.419,263.527 387.296,264.638 386.2,265 C 383.868,264.265 382.74,262.327 381,261 C 379.848,261.048 380.306,262.706 379,262.6 C 376.629,259.771 375.287,255.912 372.6,253.4 C 375.542,254.106 372.659,252.121 371,251 C 370.961,247.972 368.653,247.213 369,243.8 C 365.266,238.867 362.284,233.183 357,229.8 C 353.775,233.51 356.195,241.632 355.8,247.4 L 355.2,247.2 L 354.6,247.4 C 354.333,247.4 354.066,247.4 353.8,247.4 C 353.989,248.98 351.895,250.969 353.8,251.8 C 353.876,251.476 354.201,251.402 354.2,251 L 354.6,251.2 L 355,251 C 357.435,252.665 355.626,248.333 357.8,248.6 C 359.687,254.998 352.074,258.844 354.2,264.2 C 352.838,266.304 350.534,267.468 349,269.4 C 349.908,270.359 351.013,271.12 353,271 C 353.158,270.042 351.178,271.222 351.8,269.8 C 360.091,270.176 370.394,268.54 375.4,272.2 C 372.787,273.945 368.549,271.635 365.4,271.8 C 364.792,271.832 363.962,272.862 362.6,272.6 C 364.044,273.422 366.382,273.351 368.2,273.8 C 366.328,277.646 362.065,274.764 357.4,275 C 359.356,277.844 364.782,277.218 365.8,281 C 364.524,281.343 364.563,280.37 363.8,280.2 C 367.47,284.131 372.923,286.278 375.8,291 L 375.12,291.28 L 374.6,291.8 C 373.92,291.947 373.846,291.488 373.8,291 C 372.667,291.067 372.133,291.733 371,291.8 C 368.941,289.458 366.84,287.16 363.4,286.2 C 361.129,283.138 357.683,281.25 354.2,279.4 C 354.006,278.49 353.407,277.357 354.2,276.6 C 351.845,275.489 348.96,274.907 348.6,271.8 C 347.356,272.846 346.736,270.846 345.4,271.8 C 345.022,272.083 345.658,273.677 344.6,274.2 C 347.682,273.449 345.736,274.769 349,274.2 C 348.982,274.884 349.297,275.236 349.8,275.4 C 349.958,277.158 347.645,276.444 347.4,277.8 C 347.326,278.14 347.556,278.177 347.8,278.2 L 347.6,278.933 L 348.2,279.4 C 348.274,279.74 348.044,279.777 347.8,279.8 C 349.41,281.197 350.444,279.79 352.2,279.4 C 352.257,280.693 353.973,279.633 355,280.2 C 354.708,280.039 356.895,282.037 357,282.2 C 357.758,283.373 357.658,286.393 358.6,289.8 C 358.8,290.524 359.561,291.134 359.8,291.8 C 362.216,298.538 361.476,307.095 362.6,315 C 362.496,316.171 363.505,316.229 363.4,317.399 C 362.717,319.516 360.348,319.948 359,321.399 C 360.223,326.458 362.719,331.36 361.8,337.399 C 361.656,338.346 360.897,338.877 360.6,339.799 C 359.635,342.802 361.026,346.265 359.8,348.999 C 360.604,350.036 361.088,351.291 361.8,352.199 C 363.311,354.125 365.697,355.153 367,356.999 C 367.933,358.321 368.892,361.321 370.2,363.799 C 372.587,368.319 374.84,372.952 375,380.199 C 377.147,384.303 383.14,388.355 383.8,393.799 C 383.911,394.716 384.291,396.623 383,397.399 C 381.146,397.742 382.581,396.77 381.8,396.599 L 381.8,396.199 L 381.4,396.199 C 381.476,395.876 381.801,395.801 381.8,395.399 C 380.867,395.533 380.077,395.809 379.8,396.599 L 379.8,396.999 L 380.2,396.999 C 379.97,397.835 379.208,398.141 379.4,399.398 C 379.624,399.974 380.024,400.375 380.6,400.598 C 381.559,400.756 380.378,398.776 381.8,399.398 C 382.026,401.224 381.091,401.889 381.4,403.798 L 381.2,404.197 L 381.4,404.597 C 380.701,404.965 380.517,405.848 380.6,406.997 L 380.4,407.396 L 380.6,407.796 C 379.357,408.553 378.397,409.593 377.4,410.596 C 374.877,410.166 373.677,410.441 372.2,411.796 C 370.71,411.237 370.652,410.135 368.6,410.996 C 368.299,409.831 367.65,409.013 367,408.195 C 361.368,405.561 356.913,401.75 353.4,396.996 C 353.102,395.765 354.498,396.227 354.2,394.996 C 351.512,391.418 352.245,384.417 348.6,381.796 C 348.6,381.129 348.6,380.463 348.6,379.796 C 347.079,379.208 348.521,381.584 347,380.996 C 347,379.796 347,378.596 347,377.395 C 347.582,376.777 349.048,377.043 350.2,376.996 L 350,377.596 L 350.6,377.796 C 351.938,379.315 353.246,381.524 354.6,383.396 C 359.282,389.874 363.299,400.857 371,397.396 C 370.864,398.199 371.082,398.648 371.8,398.596 C 373.709,397.438 375.045,395.707 377.4,394.996 C 376.433,393.615 376.796,393.688 377.8,392.596 C 373.232,387.678 368.665,383.011 369,374.596 C 369.114,371.73 369.472,369.483 368.6,366.596 C 367.178,365.974 368.359,367.954 367.4,367.796 C 365.412,361.903 363.535,355.53 358.2,353.396 C 357.685,353.19 356.683,353.888 356.2,353.796 C 356.345,353.823 355.706,353.091 355.4,352.996 C 352.664,352.146 349.515,351.069 347,350.196 L 346.4,350.395 L 346.6,350.996 C 346.333,350.996 346.066,350.996 345.8,350.996 L 345.333,350.395 L 344.6,350.595 C 344.6,350.328 344.6,350.062 344.6,349.795 L 345.2,349.995 L 345,349.394 C 344.501,348.292 343.74,347.455 342.2,347.394 L 342,346.794 L 341.4,346.994 C 341.4,346.86 341.4,346.727 341.4,346.594 L 341.6,346.195 L 341.4,345.795 C 341.756,345.617 342.115,345.443 342.2,344.995 C 341.397,344.858 340.949,345.077 341,345.795 L 340.4,345.595 L 340.6,346.196 C 340.2,346.196 339.8,346.196 339.4,346.196 L 339.6,345.595 L 339,345.395 C 338.867,345.395 338.733,345.395 338.6,345.395 L 338.6,345 L 338.2,345 C 338.082,343.948 339.752,344.685 339.4,343.399 C 338.488,343.511 337.897,343.303 337.8,342.599 C 339.031,342.897 338.569,341.501 339.8,341.799 L 340,342.399 L 340.6,342.2 C 340.6,342.333 340.6,342.467 340.6,342.599 C 341.592,342.658 342.541,342.673 342.6,341.799 C 341.933,341.799 341.267,341.799 340.6,341.799 L 340.2,341.599 L 339.8,341.799 C 338.855,340.601 335.509,344.249 335,342.199 L 334.8,341.598 L 334.6,340.998 C 336.403,340.001 338.032,338.83 338.6,336.598 C 336.17,335.934 334.722,337.825 333.4,336.998 C 333.428,338.57 333.593,340.004 334.2,340.998 L 334,341.598 L 334.2,342.199 C 333.257,346.31 334.945,349.948 334.6,352.999 L 334,352.799 L 334.2,353.399 C 333.735,353.335 333.489,353.488 333.4,353.799 L 333,353.599 L 332.6,353.799 C 331.582,357.62 334.838,360.624 335.4,364.199 C 331.625,362.647 329.066,358.304 328.6,353.398 C 328.273,349.963 330.475,345.746 328.6,342.199 C 328.392,341.805 327.98,341.803 327.4,341.799 C 329.519,340.328 327.025,335.647 326.6,332.999 C 325.296,333.945 326.969,335.265 327,336.199 C 326.424,336.423 326.024,336.823 325.8,337.398 C 325.111,342.175 324.632,347.164 322.6,350.598 C 322.453,351.279 322.912,351.353 323.4,351.398 C 321.6,352.878 322.463,355.32 321.8,359.398 C 321.587,360.711 320.959,361.999 321,362.598 C 321.156,364.855 323.232,367.893 324.2,370.998 C 325.093,373.86 326.19,377.192 326.6,380.198 C 326.829,381.881 326.465,383.727 326.6,385.397 C 326.846,388.454 328.123,391.546 328.2,394.197 C 328.238,395.504 326.893,395.835 328.2,396.998 C 326.769,399.3 324.519,400.783 323,402.998 C 324.952,406.532 320.46,408.812 321,414.197 C 318.979,415.875 315.886,417.057 312.2,416.597 C 308.954,416.192 303.928,416.741 302.6,414.197 C 303.065,414.133 303.311,414.286 303.4,414.597 C 300.056,410.073 291.139,407.659 287,402.597 C 287.064,400.4 286.033,399.297 285.4,397.797 C 286.282,396.077 285.341,394.254 285,392.597 C 286.32,387.306 294.608,387.564 297.8,390.997 C 297.251,388.43 293.694,385.679 296.2,382.597 C 296.2,381.531 296.2,380.464 296.2,379.397 C 296.011,378.141 297.276,378.34 297.4,377.397 C 295.981,373.349 295.834,368.031 294.2,364.198 L 294.742,363.712 L 294.6,363 C 295.542,362.991 295.778,363.688 297,363.399 C 297.313,361.62 296.623,360.843 295,361 C 294.689,361.355 294.57,361.903 294.6,362.6 L 293.867,362.4 L 293.4,363 C 289.646,359.687 288.989,353.277 285.4,349.8 C 287.337,348.084 289.235,344.34 289.8,339.4 C 290.6,332.407 296.571,327.383 292.2,323.4 C 293.004,321.854 292.848,321.823 291.8,320.6 C 291.582,320.717 291.553,322.211 290.6,321 C 290.005,321.605 289.955,322.756 289.8,323.8 C 287.008,320.422 285.63,316.677 287,311 C 289.526,310.593 289.016,307.148 289.4,304.6 C 288.32,304.72 288.683,306.283 287.8,306.6 L 287.334,306 L 286.601,306.2 C 288.701,298.833 291.783,292.449 292.601,283.8 C 291.651,282.616 290.849,281.286 289.801,280.2 C 289.207,280.375 289.959,280.712 289.801,281.4 C 284.35,277.118 279.767,271.967 274.601,267.4 C 274.261,265.074 273.265,263.402 272.601,261.4 C 271.113,260.979 271.816,262.749 271.001,263 L 270.801,262.4 L 270.201,262.6 C 270.683,260.917 269.555,260.846 269.401,259.8 C 271.282,259.33 271.548,255.561 270.601,254.6 C 273.863,246.528 277.962,239.295 279.801,229.8 L 280.001,229.2 L 279.801,228.6 C 280.068,228.6 280.335,228.6 280.601,228.6 C 282.345,224.477 283.321,219.586 285.401,215.8 C 286.659,215.342 286.373,216.428 287.001,216.6 C 287.595,216.261 287.58,215.312 287.801,214.6 C 288.674,214.527 289.074,214.927 289.001,215.8 C 290.294,215.493 291.094,214.693 291.401,213.4 C 292.402,213.332 292.653,214.015 293.001,214.6 C 294.001,213.59 295.73,211.21 295.401,210.2 C 297.935,208.2 299.681,205.413 302.201,203.4 C 303.088,203.18 302.77,204.164 303.401,204.2 L 303.201,204.8 L 303.801,204.6 C 303.914,205.246 303.423,205.288 303.401,205.8 C 304.488,205.553 305.275,205.007 305.801,204.2 L 306.401,204.4 L 306.201,203.8 C 306.522,203.589 306.85,203.383 307.401,203.4 L 307.201,204 L 307.801,204.2 C 307.898,205.231 308.489,203.65 309.401,204.2 L 309.601,204.8 L 310.201,204.6 C 310.285,205.284 309.519,205.636 310.201,205.8 C 311.498,204.83 313.743,204.808 315.801,204.6 C 315.814,203.387 314.398,203.603 313.401,203.4 C 313.039,204.978 311.876,204.233 310.601,204.2 L 310.401,203.6 L 309.801,203.8 C 309.79,203.411 309.312,203.49 309.001,203.4 L 308.801,202.8 L 308.201,203 C 308.266,201.868 305.735,203.333 305.801,202.2 C 306.046,200.044 310.045,201.644 310.201,199.4 C 310.777,199.49 310.341,200.594 311.001,200.6 C 312.304,199.942 310.27,198.43 311.401,197.8 L 312.001,198 L 312.601,197.8 C 313.233,198.501 313.136,199.931 313.401,201 C 317.539,202.424 323.881,201.301 329.001,202.2 C 332.336,202.785 334.667,204.532 337.801,205 C 337.801,204.733 337.801,204.467 337.801,204.2 L 338.001,203.8 L 337.801,203.4 C 339.784,202.883 339.766,204.368 341.401,204.2 C 341.528,202.327 341.677,200.476 343.801,200.6 C 345.779,200.913 343.024,203.487 345.001,203.8 C 345.001,202.334 345.001,200.867 345.001,199.4 C 340.874,195.794 338.218,190.716 333.001,188.2 L 333.401,188.2 L 333.401,187.8 C 333.401,187.533 333.401,187.267 333.401,187 L 334.001,186.8 L 333.801,186.2 C 336.922,186.812 338.434,189.034 341.401,189.8 C 339.502,191.294 342.624,191.716 344.201,193.8 C 346.587,196.953 346.454,200.571 347.801,205.4 C 347.192,206.391 345.316,206.115 345.401,207.8 L 345.201,208.4 L 345.401,209 C 343.533,210.516 347.605,212.171 348.201,213.8 L 347.601,214 L 348.201,214.2 C 349.155,215.246 349.678,216.723 351.001,217.4 L 351.601,217.6 L 351.801,217 C 352.338,217.263 352.546,217.855 352.601,218.6 L 352.001,218.8 L 352.201,219.4 C 351.44,219.439 352.449,220.962 353.001,221 L 353.601,221.2 L 353.801,220.6 C 355.097,223.949 359.037,225.693 361.801,228.2 C 362.448,228.787 362.677,229.854 363.401,230.6 C 364.136,231.358 365.283,231.558 365.801,232.2 C 367.806,234.685 368.561,238.103 371.401,240.2 C 377.301,242.577 381.722,247.099 386.601,250.6 C 391.53,254.137 396.349,257.5 401.801,260.6 C 401.905,262.363 402.441,263.694 402.201,265.8 C 405.778,267.69 410.386,268.549 413.001,271.4 L 412.801,272 L 413.001,272.6 C 409.049,271.035 405.365,271.51 401.4,269.8 C 398.222,272.355 395.214,275.08 392.2,277.8 C 392.052,284.143 389.633,291.433 386.6,296.2 C 384.266,294.615 383.431,298.013 380.2,297.8 C 380.087,297.154 380.578,297.112 380.6,296.6 L 380.8,296.2 L 380.6,295.8 z M 343.8,227.8 C 345.988,226.521 348.747,225.814 351,224.6 C 349.866,223.6 347.776,223.557 347.4,221.8 C 347.327,220.927 347.728,220.528 348.6,220.6 C 347.054,218.538 346.734,214.8 344.2,214.6 L 343.8,214.6 L 343.8,215 C 342.749,213.917 341.08,213.453 341,211.4 C 332.384,208.49 320.502,205.23 309,207.8 C 308.061,207.673 307.499,207.168 306.2,207.4 C 306.082,208.216 305.117,208.185 305,209 C 305.701,209.766 305.848,211.085 306.2,212.2 C 308.316,210.435 311.109,213.228 309.4,215.4 L 308.8,215.2 L 309,215.8 C 308.723,216.123 308.377,216.896 309,217 C 310.937,215.871 311.5,213.366 313.8,212.6 C 314.333,213 315.008,213.259 315.4,213.8 C 313.279,216.213 311.173,218.64 309.4,221.4 C 310.491,221.692 310.205,220.605 311,220.6 L 311.2,221.2 L 311.8,221.4 C 314.589,220.322 317.096,218.962 320.6,218.6 C 321.476,219.432 320.249,219.892 321,220.6 C 323.416,220.851 326.033,220.9 327.4,222.2 C 326.998,222.731 327.022,223.688 326.2,223.8 C 321.058,224.548 315.857,221.405 312.6,224.6 C 312.1,225.091 312.254,226.071 311.8,226.6 C 310.383,228.249 307.955,228.861 307.4,230.6 C 308.268,230.533 307.581,232.018 307.8,232.6 C 306.871,233.662 306.729,231.538 305.8,232.6 C 305.811,239.122 307.839,243.627 310.2,247.8 C 314.525,249.609 320.545,249.722 323.4,253 C 320.896,254.48 318.56,253.401 316.2,253.8 C 317.221,255.516 319.138,253.85 320.2,255.4 C 319.584,256.251 318.756,256.89 318.2,257.8 C 319.198,258.085 319.844,256.039 320.6,257.4 C 318.499,261.966 313.816,263.949 309.8,266.6 L 309.6,266 L 309,266.2 C 309,266.067 309,265.933 309,265.8 L 309.2,265.2 L 308.6,265 C 309.113,263.913 310.648,263.849 311,262.6 C 308.154,263.092 306.239,266.633 303.8,266.2 C 304.591,262.858 308.436,262.569 309.8,259.8 C 309.154,259.687 309.112,260.178 308.6,260.2 L 308.6,259.8 L 308.2,259.8 C 308.49,258.577 307.51,258.624 307.8,257.4 C 305.422,257.288 305.589,259.722 303.8,260.2 C 303.366,259.176 305.015,258.293 303.8,257.8 L 304,257.2 L 303.4,257.4 C 304.022,255.978 302.042,257.159 302.2,256.2 C 302.308,255.471 303.64,253.958 302.6,253.4 L 302.8,253 L 302.6,252.6 C 302.6,252.467 302.6,252.333 302.6,252.2 C 301.596,250.461 300.06,249.024 297.8,250.6 L 297.4,250.4 L 297,250.6 C 297.065,250.135 296.912,249.888 296.6,249.8 L 296.8,249.4 L 296.6,249 C 296.72,248.529 298.718,247.996 297.4,247.4 C 296.219,249.286 292.774,248.907 292.2,251.4 L 292,252 L 292.6,251.8 C 292.535,252.265 292.688,252.512 293,252.6 L 292.8,253.2 L 293.4,253 C 295.692,259.508 299.317,264.683 305.4,267.4 C 308.21,270.191 311.751,272.25 315.4,274.2 L 315.2,274.8 L 315.8,275 C 316.687,274.78 316.37,275.764 317,275.8 L 316.8,276.4 L 317.4,276.2 C 319.206,278.56 324.482,278.64 326.6,276.6 C 326.078,275.655 324.06,276.206 324.2,274.6 C 328.923,272.256 334.483,270.749 338.6,267.8 L 339.2,268 L 339.4,267.4 C 339.4,267.267 339.4,267.133 339.4,267 L 340,267.2 L 340.6,267 C 341.28,267.147 341.354,266.688 341.4,266.2 L 341.8,266.4 L 342.2,266.2 C 345.755,266.839 343.85,263.173 345.8,263 L 346.2,263.2 L 346.6,263 C 346.831,264.125 347.976,260.586 346.6,262.2 L 346,262 L 345.8,262.6 C 343.915,262.688 346.771,260.521 345.4,259.8 C 343.752,259.485 344.649,261.715 343,261.4 C 344.618,256.085 347.799,252.333 350.2,247.8 C 351.963,248.096 351.839,246.506 353,246.2 C 353.53,240.796 352.311,232.498 353.4,226.6 C 349.748,226.315 346.664,230.302 344.2,228.6 L 344.4,228 L 343.8,227.8 z M 303,215.4 C 302.318,215.236 303.084,214.884 303,214.2 C 302.127,214.127 301.728,214.527 301.8,215.4 C 302.488,215.242 302.825,215.994 303,215.4 z M 299,221 C 298.935,220.535 299.088,220.288 299.4,220.2 C 300.193,221.143 300.193,220.163 299.4,219.8 C 299.84,218.588 301.821,217.412 301,216.2 C 298.874,218.377 295.589,221.406 295.4,224.2 C 296.53,224.53 296.436,223.636 297.4,223.8 L 297.2,224.4 L 297.8,224.2 C 298.787,223.964 300.074,221.971 299.4,221.4 L 299.4,221 L 299,221 z M 303.4,220.2 C 304.462,220.062 304.75,219.15 305,218.2 C 303.4,220.2 302.8,220.666 302.8,220.666 L 303,221.399 C 302.607,221.998 301.114,223.035 302.2,223.399 C 303,221.399 303.6,220.932 303.6,220.932 L 303.4,220.2 z M 306.2,225.8 C 306.323,224.857 307.589,225.056 307.4,223.8 C 306.367,223.605 305.132,225.215 306.2,225.8 z M 300.2,225.8 C 301.368,225.906 301.736,224.248 300.6,224.2 C 300.63,224.896 300.511,225.444 300.2,225.8 z M 295,229 C 294.804,227.737 295.721,227.587 295.4,226.2 C 294.754,226.313 294.712,225.822 294.2,225.8 C 292.89,226.758 292.355,228.488 291,229.4 C 292.923,229.568 290.523,229.545 291,230.6 C 291.877,231.056 292.634,231.632 294.2,231.4 L 294.6,231.6 L 295,231.4 C 294.926,231.74 295.156,231.777 295.4,231.8 C 295.161,231.088 296.572,230.139 295.4,229.8 L 295.6,229.2 L 295,229 z M 290.2,228.2 C 290.281,227.691 291.363,226.241 290.6,226.2 C 290.607,226.798 289.114,227.836 290.2,228.2 z M 303.4,228.6 C 303.476,228.276 303.801,228.201 303.8,227.8 C 302.671,227.738 302.798,228.931 302.2,229.4 L 302.4,229.8 L 302.2,230.2 C 301.933,230.2 301.666,230.2 301.4,230.2 C 300.892,231.159 299.647,231.38 299.8,233 C 301.765,233.38 301.714,234.226 301.8,235.8 C 300.844,236.044 298.898,235.298 298.6,236.2 C 299.297,236.57 300.747,236.187 300.6,237.4 C 299.324,237.637 299.363,236.65 298.6,237.4 C 298.302,238.631 299.698,238.169 299.4,239.4 C 298.408,239.341 297.459,239.325 297.4,240.2 C 299.328,240.096 303.147,238.84 303.8,241 C 302.777,240.982 303.312,241.297 303.4,241.8 C 305.603,240.679 303.316,236.873 303.4,233.8 C 303.452,231.892 304.872,230.493 303.8,229 L 303.8,228.6 L 303.4,228.6 L 303.4,228.6 z M 292.6,233.8 C 291.429,233.904 291.371,232.896 290.2,233 C 290.022,234.016 292.29,234.592 292.6,233.8 z M 293.8,238.2 C 294.1,237.482 291.383,236.365 289.8,236.2 C 289.452,237.882 291.129,237.538 291.8,238.2 L 291.6,238.6 L 291.8,239 C 291.8,239.533 291.8,240.066 291.8,240.6 L 291.2,240.8 L 291.8,241 C 291.724,241.324 291.399,241.398 291.4,241.8 C 292.993,241.793 294.217,241.417 295,240.6 C 294.6,240.6 294.2,240.6 293.8,240.6 L 293.8,240.2 L 293.4,240.2 C 293.88,239.675 293.556,239.571 293.4,239 L 294,238.8 L 293.8,238.2 z M 282.6,242.6 C 283.894,242.105 282.906,243.894 284.2,243.4 C 284.873,242.434 284.712,239.631 283.4,239.4 C 283.532,240.865 282.956,241.623 282.6,242.6 z M 374.6,244.6 C 373.871,244.129 371.689,242.801 371,243.8 C 373.187,247.615 378.791,250.14 382.6,251 C 379.759,249.902 377.265,246.322 374.6,244.6 z M 293.4,246.2 C 293.4,245.933 293.4,245.667 293.4,245.4 C 291.461,245.789 293.551,243.165 292.6,243.4 C 292.535,243.869 291.871,243.737 291.4,243.8 C 290.942,245.058 292.028,244.772 292.2,245.4 C 291.555,245.229 290.857,246.891 291.8,247 L 291.8,247.4 L 292.2,247.4 C 291.922,247.723 291.577,248.496 292.2,248.6 C 293.004,247.537 294.963,247.63 295.4,246.2 C 294.564,246.031 294.341,246.474 293.8,246.6 L 293.8,246.2 L 293.4,246.2 L 293.4,246.2 z M 287,257.8 C 286.583,256.636 285.445,256.816 285,256.6 C 284.666,252.267 282.494,249.773 282.2,245.4 C 280.114,245.981 280.776,249.309 279.4,250.6 C 279.401,250.378 279.076,250.146 279,250.6 C 281.428,252.975 283.247,258.083 287,257.8 z M 302.6,248.6 C 304.541,248.78 305.058,252.107 307,251 C 305.771,249.476 306.276,248.504 305.8,246.6 C 304.193,246.727 303.056,247.323 302.6,248.6 z M 308.6,252.6 C 308.276,252.524 308.201,252.199 307.8,252.2 C 307.874,252.54 307.644,252.577 307.4,252.6 C 307.335,253.065 307.488,253.311 307.8,253.4 L 307.6,254 L 308.2,254.2 C 309.135,255.665 310.036,257.164 311.8,257.8 L 311.6,258.4 L 312.2,258.2 C 313.117,258.698 315.415,257.162 315.8,255.8 C 314.709,255.509 314.995,256.595 314.2,256.6 L 314.2,256.2 L 313.8,256.2 C 313.8,256.067 313.8,255.933 313.8,255.8 C 311.447,255.753 311.25,253.55 309,253.4 L 309.2,252.8 L 308.6,252.6 z M 291,267.8 C 290.676,267.724 290.601,267.399 290.2,267.4 C 289.641,268.549 291.29,269.432 290.2,269.8 C 288.167,269.833 287.465,268.534 287.4,266.6 C 283.413,264.054 282.255,258.678 278.2,256.2 C 277.089,258.301 279.65,260.561 281.4,262.6 C 283.17,264.662 284.517,266.314 285.8,268.6 C 286.574,269.978 289.128,271.582 290.2,273 C 290.937,273.975 292.685,275.926 291,276.6 L 290.6,276.4 L 290.2,276.6 C 289.676,276.893 292.024,279.807 292.6,279 C 292.211,278.989 292.289,278.51 292.2,278.2 L 292.8,278.4 L 292.6,277.8 C 294.674,278.255 292.717,274.631 293,271.8 C 293.211,269.681 294.779,266.818 291.8,267.8 L 291.4,267.6 L 291,267.8 z M 335.8,277.4 C 338.137,276.399 342.011,274.818 342.2,273 C 340.156,274.556 337.303,275.303 335.8,277.4 z M 299,275 C 299,274.733 299,274.466 299,274.2 C 298.733,274.2 298.467,274.2 298.2,274.2 C 298.2,274.467 298.2,274.734 298.2,275 L 298,275.4 L 298.2,275.8 C 297.779,278.671 296.465,282.291 297.8,284.6 C 296.348,284.215 297.464,286.398 296.2,286.2 C 295.717,292.384 293.462,296.796 293,303 C 293.26,303.406 293.919,303.413 293.8,304.2 C 293.321,309.588 289.817,311.95 290.2,318.2 C 293.397,319.803 296.756,321.243 301,321.8 C 303.778,325.203 309.75,326.16 316.2,326.6 C 319.148,326.801 322.658,326.144 325.4,326.6 C 326.258,326.743 328.954,326.626 328.6,328.6 C 328.214,329.414 327.064,329.464 325.8,329.4 C 326.629,331.353 328.455,330.454 329.8,330.201 C 331.43,329.894 333.671,328.722 335.8,328.201 C 337.849,327.698 339.969,326.919 341.8,326.6 C 345.514,325.955 347.984,323.818 350.6,322.6 C 350.388,322.922 350.183,323.249 350.2,323.8 C 351.953,323.42 353.704,323.037 354.6,321.8 C 353.365,321.701 352.339,321.395 351.4,321 C 351.112,319.242 349.998,317.046 351.4,315.8 C 352.561,316.372 352.537,318.13 353.8,318.6 C 355.1,318.567 356.26,318.394 357,317.8 L 357.733,318 L 358.199,317.399 C 360.824,317.809 360.273,314.61 358.599,314.2 C 358.369,314.903 359.083,316.55 358.199,316.599 L 357.733,315.999 L 357,316.2 C 356.557,314.472 356.49,305.429 356.2,311.8 L 355.6,311.6 L 355.4,312.201 C 353.632,311.596 354.918,306.8 355,304.6 C 355.229,298.416 353.476,294.392 351.4,289.4 C 346.486,292.255 340.758,289.807 336.2,293.4 C 335.421,291.781 334.952,293.932 333.4,293.8 L 333.2,293.2 L 332.6,293.4 C 331.367,291.022 327.585,292.762 327,291 C 328.858,289.392 333.286,290.353 334.2,287.8 C 331.457,288.524 329.234,289.767 325.4,289.4 L 325.6,288.667 L 325,288.2 C 326.291,286.825 329.619,287.486 330.2,285.4 C 328.674,285.123 328.274,287.026 327,285.8 L 327.2,285.067 L 326.6,284.6 C 326.699,284.166 327.395,284.329 327.4,283.8 C 325.734,284.42 321.641,284.199 319,284.6 L 318.8,284 L 318.2,284.2 C 318.034,283.776 316.007,283.271 316.2,283.8 L 315.6,283.6 L 315.4,284.2 C 314.163,283.691 312.92,282.949 312.2,283 L 312.4,282.6 L 312.2,282.2 C 312.045,280.489 310.372,280.295 308.6,280.2 L 308.8,279.6 L 308.2,279.8 C 307.455,280.183 306.863,278.602 306.6,279.8 L 306.2,279.6 L 305.8,279.8 C 305.335,279.865 305.089,279.712 305,279.4 L 304.8,278.8 L 304.6,278.2 C 304.733,278.2 304.867,278.2 305,278.2 C 304.403,276.663 302.485,276.448 301,275.8 C 300.617,276.545 302.198,277.137 301,277.4 C 299.813,277.254 299.027,276.707 298.6,275.8 L 299.2,275.6 L 299,275 z M 314.6,276.6 C 313.888,276.839 312.939,275.428 312.6,276.6 C 312.843,276.83 314.497,277.536 314.6,276.6 z M 339.4,283.8 C 341.061,283.461 342.929,283.329 343.4,281.8 C 341.784,282.184 340.267,282.667 339.4,283.8 z M 301.8,392.199 C 301.263,391.936 301.055,391.345 301,390.599 C 298.95,390.644 299.301,393.985 299,394.599 C 297.248,394.308 299.322,395.394 298.2,395.399 C 296.812,395.72 296.662,394.803 295.4,395 C 295.287,395.646 295.778,395.688 295.8,396.199 L 295.6,396.8 L 295.8,397.4 C 295.667,397.4 295.533,397.4 295.4,397.4 C 295.259,397.925 294.696,398.03 294.6,398.6 C 295.813,398.48 296.73,400.701 297.8,399.4 L 298.32,398.88 L 298.6,398.199 C 300.493,399.107 301.582,400.817 303.8,401.399 C 303.12,401.253 303.046,401.712 303,402.199 C 305.806,403.661 308.135,405.597 312.2,405.8 L 312.6,406 L 313,405.8 C 313.221,407.113 315.625,405.333 314.2,405 C 314.189,405.389 313.711,405.31 313.4,405.399 L 313.2,404.799 L 312.6,404.999 C 312.225,402.49 313.825,401.957 314.2,400.198 L 314.4,399.598 L 313.8,399.398 C 313.942,398.873 314.504,398.769 314.6,398.198 C 312.388,397.719 313.204,400.269 311.4,400.198 C 310.94,399.725 310.947,398.785 311,397.799 C 311.958,395.824 314.541,395.474 315.4,393.399 C 314.003,392.13 313.682,389.784 313,387.799 L 313.2,387.198 L 312.6,387.398 C 312.673,387.058 312.444,387.021 312.2,386.999 C 312.26,386.006 311.993,385.339 311.4,384.999 C 311.4,385.132 311.4,385.266 311.4,385.398 L 311,385.198 L 310.6,385.398 C 310.585,382.706 309.844,379.75 310.2,377.398 C 312.531,377.467 311.354,381.044 313,381.798 L 313.2,382.398 L 313.8,382.199 C 314.937,385.462 315.964,388.835 317,392.198 C 318.091,392.49 317.805,391.404 318.6,391.398 L 319.066,391.999 L 319.799,391.799 C 319.468,392.93 320.363,392.835 320.199,393.799 C 322.586,392.619 323.742,393.053 325.399,393.399 C 325.651,389.414 322.016,389.316 322.599,385 L 323.199,385.199 L 322.999,384.599 C 323.647,384.885 323.647,382.713 322.999,382.999 L 322.799,382.398 L 322.6,383 C 321.844,382.955 322.322,381.678 321.4,381.8 C 321.38,382.924 321.763,384.274 322.6,383.4 L 322.6,383.8 L 323,383.8 C 323,383.933 323,384.067 323,384.199 L 322.6,384.199 L 322.6,384.599 C 321.578,383.541 321.806,385.147 321.8,386.199 C 320.807,386.139 320.14,386.406 319.8,387 L 319.4,386.8 L 319,387 C 318.66,386.926 318.623,387.155 318.6,387.399 L 318,387.199 L 317.4,387.399 C 316.396,385.47 315.881,383.051 315.4,380.599 L 316.133,380.799 L 316.6,380.199 C 317.225,376.902 315.929,372.073 314.6,369.398 C 312.918,369.48 311.256,369.543 311,368.199 C 311.931,366.729 313.644,366.042 313.8,363.799 C 313.336,362.397 310.13,363.736 309.8,362.199 C 310.697,361.095 311.82,360.219 312.2,358.598 C 311.246,358.085 310.033,357.832 309.8,356.598 C 311.354,355.352 313.31,354.508 313.8,352.199 L 314,351.598 L 313.8,350.998 C 313.933,350.998 314.067,350.998 314.2,350.998 C 314.2,350.731 314.2,350.465 314.2,350.198 C 313.735,350.133 313.489,350.286 313.4,350.597 L 312.667,350.397 L 312.2,351 C 311.423,350.177 311.086,348.914 310.6,347.8 C 309.267,348.91 306.597,346.805 305,347.8 L 305.2,347.4 L 305,347 C 305,346.866 305,346.733 305,346.6 C 304.722,345.811 302.768,346.699 302.6,345.8 C 302.973,345.373 304.076,345.676 303.8,344.6 C 303.267,344.6 302.734,344.6 302.2,344.6 C 303.361,343.476 301.599,343.505 301.4,342.6 C 302.402,342.669 302.371,341.704 303,341.4 C 301.713,340.215 299.539,337.758 301.4,335.8 C 303.028,335.905 304.114,336.553 305.4,337 L 305.2,337.733 L 305.8,338.2 C 305.465,338.664 305.273,339.272 305.4,340.2 C 306.667,340.697 308.858,340.365 309.4,339 C 307.741,339.458 307.841,338.158 306.6,338.2 L 306.8,337.467 L 306.2,337 C 305.146,335.52 302.857,335.276 300.6,335 C 301.23,334.405 301.045,333.213 299.8,333.399 C 299.581,333.981 300.268,335.466 299.4,335.399 C 297.519,335.465 296.379,339.52 295.4,341.799 C 295.937,342.062 296.145,342.653 296.2,343.399 C 292.896,349.846 297.557,356.719 299.8,361.399 C 300.731,362.336 302.649,362.284 303.4,363.399 C 303.871,365.113 303.37,365.03 303,366.599 C 302.874,372.796 304.307,379.378 302.2,384.199 C 302.994,386.605 304.427,388.373 305,391 C 304.678,390.788 304.351,390.582 303.8,390.6 C 303.981,392.772 304.437,393.109 302.2,392.6 L 302.4,392 L 301.8,392.199 z M 332.2,334.6 C 332.6,334.6 333,334.6 333.4,334.6 C 333.4,334.333 333.4,334.067 333.4,333.8 C 333,333.8 332.6,333.8 332.2,333.8 C 332.2,334.066 332.2,334.333 332.2,334.6 z M 352.2,348.2 C 353.389,348.183 355.398,349.39 355.8,347.8 C 354.658,346.942 355.342,344.258 354.2,343.4 C 352.792,344.259 353.376,347.11 352.2,348.2 z M 355.8,351 C 355.059,350.604 351.495,349.452 352.2,350.2 C 353.23,350.392 355.09,351.813 355.8,351 z M 317.8,368.2 C 317.821,367.512 317.492,367.174 317,367 C 316.979,367.688 317.308,368.025 317.8,368.2 z M 291,395.8 C 290.37,395.764 290.687,394.779 289.8,395 C 289.449,395.823 290.837,396.796 291,395.8 z M 365,401 C 364.599,399.4 363.499,398.501 362.6,397.399 C 362.885,398.807 362.425,401.009 365,401 z M 316.2,404.6 C 318.79,404.517 320.332,401.274 320.6,400.2 C 319.639,402.172 316.75,402.216 316.2,404.6 z"
         id="path31"
         style="fill-rule:evenodd" /><path
         clip-rule="evenodd"
         d="M 380.6,396.6 L 381,396.6 C 381.073,396.941 380.844,396.977 380.6,397 L 380.6,396.6 L 380.2,396.6 C 380.127,396.26 380.356,396.223 380.6,396.2 L 380.6,396.6 z"
         id="path33"
         style="fill-rule:evenodd" /><path
         clip-rule="evenodd"
         d="M 350.8,376.8 L 350.2,376.6 C 348.857,374.476 347.103,372.764 345.4,371 C 344.183,372.635 346.277,374.376 346.2,376.2 C 342.163,376.77 343.223,372.243 341,371 C 340.383,370.948 338.861,370.485 338.2,369.399 C 339.305,366.194 338.655,361.998 337,359.399 L 337.2,359 L 337,358.6 C 337.779,357.912 337.862,356.529 337.8,355 L 338.4,355.2 L 338.6,354.599 C 339.467,354.666 338.781,353.18 339,352.599 L 339.733,352.799 L 340.199,352.199 C 341.574,355.502 339.855,358.389 341.399,361.398 C 341.399,358.332 341.399,355.265 341.399,352.199 C 341.932,352.199 342.466,352.199 342.999,352.199 L 342.799,352.931 L 343.399,353.398 C 342.292,355.339 343.58,357.896 344.199,359.398 C 345.193,359.919 345.859,358.225 346.199,359.398 C 345.706,361.657 347.142,363.56 346.199,364.999 L 345.599,364.799 L 345.799,365.399 C 345.532,365.399 345.266,365.399 344.999,365.399 C 344.887,366.566 345.095,366.774 345.799,366.2 L 345.799,366.599 L 346.199,366.599 C 346.482,368.049 347.953,368.311 347.399,370.599 C 351.534,372.598 353.555,376.709 356.199,380.2 L 355.799,380.2 L 355.799,380.599 C 355.666,380.599 355.532,380.599 355.399,380.599 L 354.799,380.399 L 354.6,381 C 353.14,379.926 352.647,377.886 350.6,377.399 L 350.8,376.8 z M 343.8,369.399 C 342.842,369.558 344.022,367.578 342.6,368.2 C 342.411,368.979 343.676,370.245 343.8,369.399 z"
         id="path35"
         style="fill-rule:evenodd" /><path
         clip-rule="evenodd"
         d="M 305,204.2 L 305,203.8 L 305,204.2 L 305.4,204.2 C 305.301,204.703 304.605,204.603 304.6,204.2 L 305,204.2 z"
         id="path37"
         style="fill-rule:evenodd" /><path
         clip-rule="evenodd"
         d="M 312,196.4 L 311.4,196.6 C 310.686,195.311 310.318,198.772 309.4,197.4 C 309.499,186.581 319.929,183.326 332.2,185 C 332.2,185.4 332.2,185.8 332.2,186.2 L 331.6,186.4 L 331.8,187 C 331.233,186.966 330.667,186.934 330.6,187.4 L 330,187.2 L 330.2,187.8 C 328.179,188.404 325.008,187.455 323.4,188.2 L 323.6,187.8 L 323.4,187.4 C 323.4,187.267 323.4,187.133 323.4,187 C 322.644,187.177 320.989,186.456 321.4,187.8 L 320.8,188 L 321.4,188.2 C 316.756,189.289 314.164,192.43 312.6,196.6 L 312,196.4 z"
         id="path39"
         style="fill-rule:evenodd" /><path
         clip-rule="evenodd"
         d="M 416.399,273.2 L 416.599,272.6 C 418.211,273.388 418.895,275.104 419.399,277 C 418.78,277.447 418.566,278.3 417.399,278.2 L 417.2,277.6 L 416.599,277.8 C 416.625,276.121 414.702,274.889 415.799,273.4 L 416.399,273.2 z"
         id="path41"
         style="fill-rule:evenodd" /><path
         clip-rule="evenodd"
         d="M 416.8,279.6 L 417.4,279.4 C 417.541,281.26 418.348,282.452 419.001,283.8 C 417.992,285.325 415.499,285.365 413.4,285.8 C 415.243,288.49 418.296,289.971 419.4,293.4 L 418.88,293.92 L 418.6,294.6 C 415.637,292.363 413.271,289.53 410.6,287 C 405.225,289.949 404.059,283.626 400.2,282.6 C 399.863,280.663 402.131,281.331 401.4,279 C 404.535,279.866 406.033,282.368 408.201,284.2 C 410.27,283.603 411.695,282.361 413.801,281.8 C 413.913,282.446 413.423,282.488 413.401,283 C 414.335,283 415.268,283 416.202,283 C 416.733,281.504 415.01,280.235 416.202,279.4 L 416.8,279.6 z"
         id="path43"
         style="fill-rule:evenodd" /><path
         clip-rule="evenodd"
         d="M 427.2,300.133 L 427,299.4 C 444.2,306.037 463.019,312.041 485.399,311 C 490.945,310.742 496.89,311.141 503,310.2 C 503.647,310.1 503.986,309.438 504.6,309.399 C 508.212,309.172 511.545,310.084 515,309.799 L 514.8,310.399 L 515.4,310.599 C 518.001,312.009 520.754,310.471 523.4,309.799 L 523.257,310.513 L 523.8,311 C 525.257,312.342 529.142,311.258 530.6,312.6 L 530,313.067 L 530.199,313.8 C 526.876,313.899 523.379,312.813 520.199,313 C 518.656,313.091 517.268,314.055 515.8,314.2 C 511.501,314.624 506.611,313.499 503,313.399 C 498.894,313.287 494.025,314.274 489.8,314.2 C 487.658,314.162 485.612,314.87 483.4,315 C 464.143,316.131 447.597,309.548 433.4,303.399 C 433.4,303.666 433.4,303.933 433.4,304.2 L 432.8,304 L 432.6,304.6 C 430.392,303.475 428.601,301.933 426.6,300.6 L 427.2,300.133 z"
         id="path45"
         style="fill-rule:evenodd" /><path
         clip-rule="evenodd"
         d="M 322.8,187.8 L 322.6,187.4 C 322.733,187.4 322.867,187.4 323,187.4 L 322.8,187.8 L 323,188.2 C 322.867,188.2 322.733,188.2 322.6,188.2 L 322.8,187.8 z"
         id="path47"
         style="fill-rule:evenodd" /><path
         clip-rule="evenodd"
         d="M 332,187.8 L 331.8,187.4 C 331.933,187.4 332.067,187.4 332.2,187.4 L 332,187.8 L 332.2,188.2 C 332.067,188.2 331.933,188.2 331.8,188.2 L 332,187.8 z"
         id="path49"
         style="fill-rule:evenodd" /><path
         clip-rule="evenodd"
         d="M 316,272.4 L 315.4,272.6 C 314.481,269.36 317.674,267.276 318.6,264.6 C 317.524,264.045 318.012,263.466 319,263 C 318.952,266.116 321.37,261.436 322.6,263.4 C 322.153,264.953 320.647,265.447 320.2,267 C 320.846,267.113 320.889,266.622 321.4,266.6 L 321.6,267.2 L 322.2,267.4 C 321.345,270.277 319.004,271.671 318.2,274.6 L 317.6,274.4 L 317.4,275 C 315.93,274.508 318.37,272.592 317,272.2 C 316.823,272.556 316.648,272.915 316.2,273 L 316,272.4 z"
         id="path51"
         style="fill-rule:evenodd" /><path
         clip-rule="evenodd"
         d="M 332.267,294.4 L 333,294.2 C 336.408,294.926 340.943,294.524 341.8,297.8 C 339.796,298.637 338.105,298.649 335.4,299.4 C 335.48,301.053 337.618,300.649 337.4,302.6 C 334.844,303.805 334.885,301.137 332.6,301 C 329.647,302.047 325.905,302.305 323,303.399 C 322.786,302.824 324.559,302.423 323.4,302.2 C 321.372,302.747 321.488,303.434 320.2,304.2 C 317.908,302.978 315.596,304.827 313,304.599 L 313.2,303.999 L 312.6,303.799 C 312.314,302.713 314.486,304.085 314.2,302.999 C 313.697,302.899 313.797,302.203 314.2,302.199 C 318.239,300.904 323.395,300.726 326.6,298.598 L 327.2,298.398 L 327,297.798 C 330.004,297.903 328.484,296.164 327.8,294.998 C 329.088,294.552 330.586,294.317 331.8,293.798 L 332.267,294.4 z"
         id="path53"
         style="fill-rule:evenodd" /><path
         clip-rule="evenodd"
         d="M 323.6,288.933 L 324.2,289.4 C 323.489,290.469 321.562,289.403 321.8,288.2 C 322.467,288.2 323.133,288.2 323.8,288.2 L 323.6,288.933 z"
         id="path55"
         style="fill-rule:evenodd" /><path
         clip-rule="evenodd"
         d="M 348.6,351.399 C 350.374,351.681 351.855,353.139 353.8,353.799 C 355.19,354.271 357.715,353.443 358.2,355.399 C 355.416,357.707 350.271,356.055 348.6,353.799 L 348.4,353.399 L 348.2,353 C 348.794,352.825 348.042,352.488 348.2,351.8 L 348.8,352 L 348.6,351.399 z"
         id="path57"
         style="fill-rule:evenodd" /><path
         clip-rule="evenodd"
         d="M 312.2,302.6 C 314.844,301.905 308.964,303.621 312.2,302.6 L 312.2,302.6 z"
         id="path59"
         style="fill-rule:evenodd" /><path
         clip-rule="evenodd"
         d="M 312.2,373 C 313.278,373.473 312.199,375.085 312.2,375.8 C 311.21,375.414 312.751,374.264 312.2,373 z"
         id="path61"
         style="fill-rule:evenodd" /><g
         id="g63"><path
   clip-rule="evenodd"
   d="M 342,222.4 C 339.158,223.292 336.705,225.437 334.16,227.04"
   id="path65"
   style="fill:none;fill-rule:evenodd;stroke:#000000;stroke-width:0.58090001;stroke-linecap:round" />
			<path
   clip-rule="evenodd"
   d="M 334.16,227.04 C 334.271,228.048 335.267,228.646 335.4,229.6"
   id="path67"
   style="fill:none;fill-rule:evenodd;stroke:#000000;stroke-width:1.17299998;stroke-linecap:round" />
			<path
   clip-rule="evenodd"
   d="M 334.16,227.04 C 333.65,226.665 333.43,226.391 333.2,226"
   id="path69"
   style="fill:none;fill-rule:evenodd;stroke:#000000;stroke-width:1.39999998;stroke-linecap:round" />
			<path
   clip-rule="evenodd"
   d="M 343.2,241.2 C 343.846,241.619 344.586,241.77 345.333,241.867"
   id="path71"
   style="fill:none;fill-rule:evenodd;stroke:#000000;stroke-width:0.99779999;stroke-linecap:round" />
			<path
   clip-rule="evenodd"
   d="M 337.2,239.6 C 339.063,240.542 341.165,240.961 343.2,241.2"
   id="path73"
   style="fill:none;fill-rule:evenodd;stroke:#000000;stroke-width:1.28499997;stroke-linecap:round" />
			<path
   clip-rule="evenodd"
   d="M 343.2,241.2 C 343.665,240.495 343.78,240.136 343.702,239.898 C 343.106,239.606 342.478,239.337 341.8,239.4"
   id="path75"
   style="fill:none;fill-rule:evenodd;stroke:#000000;stroke-width:0.73030001;stroke-linecap:round" />
			<path
   clip-rule="evenodd"
   d="M 314.133,270.133 C 315.017,268.579 315.87,266.729 317.199,265.6"
   id="path77"
   style="fill:none;fill-rule:evenodd;stroke:#000000;stroke-width:0.65319997;stroke-linecap:round" />
			<path
   clip-rule="evenodd"
   d="M 337.6,300.4 C 337.869,300.531 337.996,300.803 338.2,301"
   id="path79"
   style="fill:none;fill-rule:evenodd;stroke:#000000;stroke-width:0.56569999;stroke-linecap:round" />
			<path
   clip-rule="evenodd"
   d="M 376.32,292.48 C 375.899,292.104 375.478,291.717 375.12,291.28"
   id="path81"
   style="fill:none;fill-rule:evenodd;stroke:#000000;stroke-width:1.44219995;stroke-linecap:round" />
			<path
   clip-rule="evenodd"
   d="M 347.6,278.933 C 348,278.84 348.4,278.831 348.8,278.8"
   id="path83"
   style="fill:none;fill-rule:evenodd;stroke:#000000;stroke-width:1.222;stroke-linecap:round" />
			<path
   clip-rule="evenodd"
   d="M 350,377.6 C 350.267,377.333 350.533,377.067 350.8,376.8"
   id="path85"
   style="fill:none;fill-rule:evenodd;stroke:#000000;stroke-width:0.80000001;stroke-linecap:round" />
			<path
   clip-rule="evenodd"
   d="M 337.2,359 C 334.959,357.621 334.909,354.992 334,352.8"
   id="path87"
   style="fill:none;fill-rule:evenodd;stroke:#000000;stroke-width:0.65060002;stroke-linecap:round" />
			<path
   clip-rule="evenodd"
   d="M 333.4,356 C 333.635,355.111 333.057,354.433 333,353.6"
   id="path89"
   style="fill:none;fill-rule:evenodd;stroke:#000000;stroke-width:0.82459998;stroke-linecap:round" />
			<path
   clip-rule="evenodd"
   d="M 294.743,363.714 C 294.3,363.309 294.167,362.977 293.867,362.4"
   id="path91"
   style="fill:none;fill-rule:evenodd;stroke:#000000;stroke-width:1.14890003;stroke-linecap:round" />
			<path
   clip-rule="evenodd"
   d="M 286.6,307.399 C 286.7,307.046 287.1,306.505 287.333,306"
   id="path93"
   style="fill:none;fill-rule:evenodd;stroke:#000000;stroke-width:1.09539998;stroke-linecap:round" />
			<path
   clip-rule="evenodd"
   d="M 269.4,267.2 C 269.603,265.538 270.254,264.04 270.8,262.4"
   id="path95"
   style="fill:none;fill-rule:evenodd;stroke:#000000;stroke-width:0.84649998;stroke-linecap:round" />
			<path
   clip-rule="evenodd"
   d="M 280,229.2 C 279.333,229.049 278.667,229.007 278,229"
   id="path97"
   style="fill:none;fill-rule:evenodd;stroke:#000000;stroke-width:0.97979999;stroke-linecap:round" />
			<path
   clip-rule="evenodd"
   d="M 303.2,204.8 C 303.883,204.293 304.559,204.025 305,204.2"
   id="path99"
   style="fill:none;fill-rule:evenodd;stroke:#000000;stroke-width:0.48280001;stroke-linecap:round" />
			<path
   clip-rule="evenodd"
   d="M 305,204.2 C 305.353,203.956 305.894,204.095 306.4,204.4"
   id="path101"
   style="fill:none;fill-rule:evenodd;stroke:#000000;stroke-width:0.50599998;stroke-linecap:round" />
			<path
   clip-rule="evenodd"
   d="M 312,198 C 312,197.467 312,196.933 312,196.4"
   id="path103"
   style="fill:none;fill-rule:evenodd;stroke:#000000;stroke-width:1.22819996;stroke-linecap:round" />
			<path
   clip-rule="evenodd"
   d="M 345.2,208.4 C 345.844,208.245 346.157,208.075 346.8,207.8"
   id="path105"
   style="fill:none;fill-rule:evenodd;stroke:#000000;stroke-width:1.14890003;stroke-linecap:round" />
			<path
   clip-rule="evenodd"
   d="M 347.6,214 C 348.18,214.148 348.769,213.74 349.303,213.899 C 349.741,215.301 351.433,216.026 351.6,217.6"
   id="path107"
   style="fill:none;fill-rule:evenodd;stroke:#000000;stroke-width:0.76899999;stroke-linecap:round" />
			<path
   clip-rule="evenodd"
   d="M 352,218.8 C 352.974,219.241 353.375,220.234 353.6,221.2"
   id="path109"
   style="fill:none;fill-rule:evenodd;stroke:#000000;stroke-width:0.83899999;stroke-linecap:round" />
			<path
   clip-rule="evenodd"
   d="M 412.8,272 C 413.968,272.637 415.384,272.312 416.4,273.2"
   id="path111"
   style="fill:none;fill-rule:evenodd;stroke:#000000;stroke-width:1.02240002;stroke-linecap:round" />
			<path
   clip-rule="evenodd"
   d="M 514.8,310.399 C 516.457,309.669 518.186,309.741 519.8,309"
   id="path113"
   style="fill:none;fill-rule:evenodd;stroke:#000000;stroke-width:0.91750002;stroke-linecap:round" />
			<path
   clip-rule="evenodd"
   d="M 523.257,310.514 C 524.606,310.381 525.854,309.756 527.199,309.6"
   id="path115"
   style="fill:none;fill-rule:evenodd;stroke:#000000;stroke-width:1.15709996;stroke-linecap:round" />
			<path
   clip-rule="evenodd"
   d="M 532.533,313.866 C 531.632,313.767 530.873,313.253 530,313.066"
   id="path117"
   style="fill:none;fill-rule:evenodd;stroke:#000000;stroke-width:1.1243;stroke-linecap:round" />
			<path
   clip-rule="evenodd"
   d="M 432.8,304 C 434.34,305.519 436.49,306.545 438.4,307.6"
   id="path119"
   style="fill:none;fill-rule:evenodd;stroke:#000000;stroke-width:0.78130001;stroke-linecap:round" />
			<path
   clip-rule="evenodd"
   d="M 427.2,300.133 C 423.961,298.746 421.673,295.989 418.88,293.92"
   id="path121"
   style="fill:none;fill-rule:evenodd;stroke:#000000;stroke-width:1.50870001;stroke-linecap:round" />
			<path
   clip-rule="evenodd"
   d="M 416.8,279.6 C 416.935,278.933 416.967,278.267 417.2,277.6"
   id="path123"
   style="fill:none;fill-rule:evenodd;stroke:#000000;stroke-width:0.9562;stroke-linecap:round" />
			<path
   clip-rule="evenodd"
   d="M 380.8,296.2 C 379,295.638 377.056,295.452 375.257,294.686"
   id="path125"
   style="fill:none;fill-rule:evenodd;stroke:#000000;stroke-width:1.58080006;stroke-linecap:round" />
			<path
   clip-rule="evenodd"
   d="M 320.8,188 C 321.477,188.02 322.159,188.034 322.8,187.8"
   id="path127"
   style="fill:none;fill-rule:evenodd;stroke:#000000;stroke-width:0.54509997;stroke-linecap:round" />
			<path
   clip-rule="evenodd"
   d="M 322.8,187.8 C 323.067,187.8 323.333,187.8 323.6,187.8"
   id="path129"
   style="fill:none;fill-rule:evenodd;stroke:#000000;stroke-width:0.83270001;stroke-linecap:round" />
			<path
   clip-rule="evenodd"
   d="M 330,187.2 C 330.47,187.839 331.289,187.814 332,187.8"
   id="path131"
   style="fill:none;fill-rule:evenodd;stroke:#000000;stroke-width:0.81239998;stroke-linecap:round" />
			<path
   clip-rule="evenodd"
   d="M 332,187.8 C 332.314,187.935 332.987,187.967 333.4,188.2"
   id="path133"
   style="fill:none;fill-rule:evenodd;stroke:#000000;stroke-width:0.56569999;stroke-linecap:round" />
			<path
   clip-rule="evenodd"
   d="M 334,186.8 C 333.246,186.424 332.351,186.801 331.6,186.4"
   id="path135"
   style="fill:none;fill-rule:evenodd;stroke:#000000;stroke-width:0.85369998;stroke-linecap:round" />
			<path
   clip-rule="evenodd"
   d="M 338,203.8 C 336.327,202.663 334.574,201.772 332.8,200.8"
   id="path137"
   style="fill:none;fill-rule:evenodd;stroke:#000000;stroke-width:0.68839997;stroke-linecap:round" />
			<path
   clip-rule="evenodd"
   d="M 309.6,204.8 C 309.867,204.41 310.133,204.046 310.4,203.6"
   id="path139"
   style="fill:none;fill-rule:evenodd;stroke:#000000;stroke-width:0.8944;stroke-linecap:round" />
			<path
   clip-rule="evenodd"
   d="M 308.8,202.8 C 308.529,203.46 307.79,203.707 307.2,204"
   id="path141"
   style="fill:none;fill-rule:evenodd;stroke:#000000;stroke-width:0.81650001;stroke-linecap:round" />
			<path
   clip-rule="evenodd"
   d="M 343.8,214.6 C 343.965,215.424 344.93,215.378 345.2,216"
   id="path143"
   style="fill:none;fill-rule:evenodd;stroke:#000000;stroke-width:0.4472;stroke-linecap:round" />
			<path
   clip-rule="evenodd"
   d="M 310.4,215.2 C 309.867,215.493 309.334,215.483 308.8,215.2"
   id="path145"
   style="fill:none;fill-rule:evenodd;stroke:#000000;stroke-width:0.48280001;stroke-linecap:round" />
			<path
   clip-rule="evenodd"
   d="M 311.2,221.2 C 312.308,219.524 314.027,218.163 314.6,216.2"
   id="path147"
   style="fill:none;fill-rule:evenodd;stroke:#000000;stroke-width:0.98629999;stroke-linecap:round" /><path
   clip-rule="evenodd"
   d="M 308.6,267 C 309.008,267.024 309.337,266.536 309.6,266"
   id="path149"
   style="fill:none;fill-rule:evenodd;stroke:#000000;stroke-width:0.80000001;stroke-linecap:round" /><path
   clip-rule="evenodd"
   d="M 309.2,265.2 C 308.218,265.323 307.641,266.183 306.8,266.6"
   id="path151"
   style="fill:none;fill-rule:evenodd;stroke:#000000;stroke-width:0.80900002;stroke-linecap:round" /><path
   clip-rule="evenodd"
   d="M 307.2,261.2 C 307.403,260.498 308.189,260.348 308.6,259.8"
   id="path153"
   style="fill:none;fill-rule:evenodd;stroke:#000000;stroke-width:0.53939998;stroke-linecap:round" /><path
   clip-rule="evenodd"
   d="M 304,257.2 C 303.771,257.429 303.5,257.7 303.2,258"
   id="path155"
   style="fill:none;fill-rule:evenodd;stroke:#000000;stroke-width:0.65319997;stroke-linecap:round" /><path
   clip-rule="evenodd"
   d="M 302,253.6 C 302.271,253.317 302.556,253.135 302.8,253"
   id="path157"
   style="fill:none;fill-rule:evenodd;stroke:#000000;stroke-width:0.69279999;stroke-linecap:round" /><path
   clip-rule="evenodd"
   d="M 297.4,250.4 C 297.379,250.466 297.359,250.532 297.338,250.598 C 295.821,251.481 294.373,252.429 292.799,253.2"
   id="path159"
   style="fill:none;fill-rule:evenodd;stroke:#000000;stroke-width:0.72860003;stroke-linecap:round" /><path
   clip-rule="evenodd"
   d="M 315.2,274.8 C 315.895,274.15 315.677,273.196 316,272.4"
   id="path161"
   style="fill:none;fill-rule:evenodd;stroke:#000000;stroke-width:0.7694;stroke-linecap:round" /><path
   clip-rule="evenodd"
   d="M 321.6,267.2 C 321.709,266.933 321.756,266.667 321.8,266.4"
   id="path163"
   style="fill:none;fill-rule:evenodd;stroke:#000000;stroke-width:0.9522;stroke-linecap:round" /><path
   clip-rule="evenodd"
   d="M 332.5,264.2 C 332.731,265.14 334.075,265.169 334.4,266"
   id="path165"
   style="fill:none;fill-rule:evenodd;stroke:#000000;stroke-width:0.59079999;stroke-linecap:round" /><path
   clip-rule="evenodd"
   d="M 328.8,261.6 C 329.898,262.509 331.05,263.771 332.5,264.2"
   id="path167"
   style="fill:none;fill-rule:evenodd;stroke:#000000;stroke-width:0.66670001;stroke-linecap:round" /><path
   clip-rule="evenodd"
   d="M 332.5,264.2 C 332.688,263.848 332.845,263.621 333,263.4"
   id="path169"
   style="fill:none;fill-rule:evenodd;stroke:#000000;stroke-width:1.01979995;stroke-linecap:round" /><path
   clip-rule="evenodd"
   d="M 333,263.4 C 331.802,262.188 330.343,261.222 329.333,259.867"
   id="path171"
   style="fill:none;fill-rule:evenodd;stroke:#000000;stroke-width:1.06830001;stroke-linecap:round" /><path
   clip-rule="evenodd"
   d="M 333,263.4 C 334.508,263.946 335.484,265.252 337,265.8"
   id="path173"
   style="fill:none;fill-rule:evenodd;stroke:#000000;stroke-width:1.12390006;stroke-linecap:round" /><path
   clip-rule="evenodd"
   d="M 337,265.8 C 337.28,265.52 337.56,265.24 337.84,264.96"
   id="path175"
   style="fill:none;fill-rule:evenodd;stroke:#000000;stroke-width:1.13139999;stroke-linecap:round" /><path
   clip-rule="evenodd"
   d="M 337.84,264.96 C 336.362,262.862 333.891,261.511 331.8,260.2"
   id="path177"
   style="fill:none;fill-rule:evenodd;stroke:#000000;stroke-width:1.04820001;stroke-linecap:round" /><path
   clip-rule="evenodd"
   d="M 337.84,264.96 C 338.909,265.273 339.486,266.295 340,267.2"
   id="path179"
   style="fill:none;fill-rule:evenodd;stroke:#000000;stroke-width:1.20599997;stroke-linecap:round" /><path
   clip-rule="evenodd"
   d="M 339.8,264.2 C 340.439,264.951 341.348,265.509 341.8,266.4"
   id="path181"
   style="fill:none;fill-rule:evenodd;stroke:#000000;stroke-width:0.70319998;stroke-linecap:round" /><path
   clip-rule="evenodd"
   d="M 346.2,263.2 C 346.212,262.8 346.109,262.4 346,262"
   id="path183"
   style="fill:none;fill-rule:evenodd;stroke:#000000;stroke-width:0.84850001;stroke-linecap:round" /><path
   clip-rule="evenodd"
   d="M 340.4,230 C 341.651,229.156 343.036,228.657 344.4,228"
   id="path185"
   style="fill:none;fill-rule:evenodd;stroke:#000000;stroke-width:0.82590002;stroke-linecap:round" /><path
   clip-rule="evenodd"
   d="M 302.8,220.667 C 303.067,220.756 303.334,220.845 303.6,220.934"
   id="path187"
   style="fill:none;fill-rule:evenodd;stroke:#000000;stroke-width:1.26489997;stroke-linecap:round" /><path
   clip-rule="evenodd"
   d="M 299.4,221 C 298.309,221.898 298.087,223.326 297.2,224.4"
   id="path189"
   style="fill:none;fill-rule:evenodd;stroke:#000000;stroke-width:0.57389998;stroke-linecap:round" /><path
   clip-rule="evenodd"
   d="M 302.4,229.8 C 303.067,229.69 303.495,229.143 303.8,228.6"
   id="path191"
   style="fill:none;fill-rule:evenodd;stroke:#000000;stroke-width:0.57840002;stroke-linecap:round" /><path
   clip-rule="evenodd"
   d="M 301.2,232.4 C 301.557,231.502 302.532,230.855 302.4,229.8"
   id="path193"
   style="fill:none;fill-rule:evenodd;stroke:#000000;stroke-width:0.51959997;stroke-linecap:round" /><path
   clip-rule="evenodd"
   d="M 295.6,229.2 C 294.725,229.601 294.572,230.743 294.6,231.6"
   id="path195"
   style="fill:none;fill-rule:evenodd;stroke:#000000;stroke-width:0.77219999;stroke-linecap:round" />
			<path
   clip-rule="evenodd"
   d="M 291.6,238.6 C 292.398,238.652 293.245,238.451 294,238.8"
   id="path197"
   style="fill:none;fill-rule:evenodd;stroke:#000000;stroke-width:0.84850001;stroke-linecap:round" />
			<path
   clip-rule="evenodd"
   d="M 291.2,240.8 C 292.163,240.959 292.952,240.533 293.8,240.2"
   id="path199"
   style="fill:none;fill-rule:evenodd;stroke:#000000;stroke-width:0.48989999;stroke-linecap:round" />
			<path
   clip-rule="evenodd"
   d="M 291.8,247.4 C 292.543,247.116 293.145,246.614 293.8,246.2"
   id="path201"
   style="fill:none;fill-rule:evenodd;stroke:#000000;stroke-width:0.53939998;stroke-linecap:round" />
			<path
   clip-rule="evenodd"
   d="M 296.8,249.4 C 295.177,250.093 293.572,251.096 292,252"
   id="path203"
   style="fill:none;fill-rule:evenodd;stroke:#000000;stroke-width:0.7094;stroke-linecap:round" />
			<path
   clip-rule="evenodd"
   d="M 354.6,251.2 C 354.676,249.853 355.02,248.535 355.2,247.2"
   id="path205"
   style="fill:none;fill-rule:evenodd;stroke:#000000;stroke-width:1.02670002;stroke-linecap:round" />
			<path
   clip-rule="evenodd"
   d="M 307.6,254 C 308.147,253.824 308.792,253.175 309.2,252.8"
   id="path207"
   style="fill:none;fill-rule:evenodd;stroke:#000000;stroke-width:0.76590002;stroke-linecap:round" />
			<path
   clip-rule="evenodd"
   d="M 311.6,258.4 C 312.111,257.214 313.423,257.126 314.2,256.2"
   id="path209"
   style="fill:none;fill-rule:evenodd;stroke:#000000;stroke-width:0.52240002;stroke-linecap:round" />
			<path
   clip-rule="evenodd"
   d="M 290.6,276.4 C 291.046,277.335 291.977,277.857 292.8,278.4"
   id="path211"
   style="fill:none;fill-rule:evenodd;stroke:#000000;stroke-width:0.6573;stroke-linecap:round" />
			<path
   clip-rule="evenodd"
   d="M 292.4,269.6 C 291.779,269.115 291.656,268.293 291.4,267.6"
   id="path213"
   style="fill:none;fill-rule:evenodd;stroke:#000000;stroke-width:0.69279999;stroke-linecap:round" />
			<path
   clip-rule="evenodd"
   d="M 337,265.8 C 337.514,266.763 338.496,267.21 339.2,268"
   id="path215"
   style="fill:none;fill-rule:evenodd;stroke:#000000;stroke-width:0.84850001;stroke-linecap:round" />
			<path
   clip-rule="evenodd"
   d="M 316.8,276.4 C 317.128,275.768 318.106,275.21 317.6,274.4"
   id="path217"
   style="fill:none;fill-rule:evenodd;stroke:#000000;stroke-width:0.59630001;stroke-linecap:round" />
			<path
   clip-rule="evenodd"
   d="M 298,275.4 C 298.4,275.388 298.8,275.491 299.2,275.6"
   id="path219"
   style="fill:none;fill-rule:evenodd;stroke:#000000;stroke-width:0.84850001;stroke-linecap:round" />
			<path
   clip-rule="evenodd"
   d="M 318.2,285 C 318.499,285.318 319.055,285.497 319.6,285.6"
   id="path221"
   style="fill:none;fill-rule:evenodd;stroke:#000000;stroke-width:1.21329999;stroke-linecap:round" />
			<path
   clip-rule="evenodd"
   d="M 318.2,285 C 317.218,284.795 316.022,284.716 315.6,283.6"
   id="path223"
   style="fill:none;fill-rule:evenodd;stroke:#000000;stroke-width:1.18879998;stroke-linecap:round" />
			<path
   clip-rule="evenodd"
   d="M 303.2,278 C 303.733,278.267 304.266,278.533 304.8,278.8"
   id="path225"
   style="fill:none;fill-rule:evenodd;stroke:#000000;stroke-width:1.16620004;stroke-linecap:round" />
			<path
   clip-rule="evenodd"
   d="M 357.733,318 C 357.577,317.333 357.596,316.666 357.733,316"
   id="path227"
   style="fill:none;fill-rule:evenodd;stroke:#000000;stroke-width:1.23749995;stroke-linecap:round" />
			<path
   clip-rule="evenodd"
   d="M 355.8,312.6 C 355.812,312.34 355.709,311.953 355.6,311.6"
   id="path229"
   style="fill:none;fill-rule:evenodd;stroke:#000000;stroke-width:0.84850001;stroke-linecap:round" />
			<path
   clip-rule="evenodd"
   d="M 313.2,304 C 311.372,304.176 309.354,304.859 307.718,304.81 C 307.65,304.388 307.535,304.097 307.401,303.8"
   id="path231"
   style="fill:none;fill-rule:evenodd;stroke:#000000;stroke-width:0.861;stroke-linecap:round" />
			<path
   clip-rule="evenodd"
   d="M 316,298 C 319.753,297.751 323.459,298.139 327.2,298.4"
   id="path233"
   style="fill:none;fill-rule:evenodd;stroke:#000000;stroke-width:0.94440001;stroke-linecap:round" />
			<path
   clip-rule="evenodd"
   d="M 332.267,294.4 C 332.536,294.055 332.907,293.643 333.2,293.2"
   id="path235"
   style="fill:none;fill-rule:evenodd;stroke:#000000;stroke-width:1.05830002;stroke-linecap:round" />
			<path
   clip-rule="evenodd"
   d="M 323.6,288.933 C 324.267,288.799 324.933,288.831 325.6,288.666"
   id="path237"
   style="fill:none;fill-rule:evenodd;stroke:#000000;stroke-width:1.23749995;stroke-linecap:round" />
			<path
   clip-rule="evenodd"
   d="M 325.2,286 C 325.828,285.627 326.523,285.349 327.2,285.066"
   id="path239"
   style="fill:none;fill-rule:evenodd;stroke:#000000;stroke-width:1.05830002;stroke-linecap:round" />
			<path
   clip-rule="evenodd"
   d="M 306.2,279.6 C 306.607,280.166 307.483,280.498 308.2,280.6"
   id="path241"
   style="fill:none;fill-rule:evenodd;stroke:#000000;stroke-width:0.67150003;stroke-linecap:round" />
			<path
   clip-rule="evenodd"
   d="M 308.2,280.6 C 308.317,280.34 308.535,279.953 308.8,279.6"
   id="path243"
   style="fill:none;fill-rule:evenodd;stroke:#000000;stroke-width:0.51639998;stroke-linecap:round" />
			<path
   clip-rule="evenodd"
   d="M 308.2,280.6 C 309.594,281.265 310.835,282.356 312.4,282.6"
   id="path245"
   style="fill:none;fill-rule:evenodd;stroke:#000000;stroke-width:0.70990002;stroke-linecap:round" />
			<path
   clip-rule="evenodd"
   d="M 318.2,285 C 318.456,284.625 318.61,284.326 318.8,284"
   id="path247"
   style="fill:none;fill-rule:evenodd;stroke:#000000;stroke-width:1.01979995;stroke-linecap:round" /><path
   clip-rule="evenodd"
   d="M 295.6,396.8 C 296.897,396.901 297.391,398.184 298.32,398.88"
   id="path249"
   style="fill:none;fill-rule:evenodd;stroke:#000000;stroke-width:1.23829997;stroke-linecap:round" /><path
   clip-rule="evenodd"
   d="M 312.6,406 C 312.6,405.645 312.905,405.346 313.2,404.8"
   id="path251"
   style="fill:none;fill-rule:evenodd;stroke:#000000;stroke-width:0.87180001;stroke-linecap:round" /><path
   clip-rule="evenodd"
   d="M 313.6,400 C 313.788,399.871 314.091,399.756 314.4,399.6"
   id="path253"
   style="fill:none;fill-rule:evenodd;stroke:#000000;stroke-width:0.76590002;stroke-linecap:round" /><path
   clip-rule="evenodd"
   d="M 313.2,381.2 C 313.412,381.437 313.339,381.918 313.2,382.399"
   id="path255"
   style="fill:none;fill-rule:evenodd;stroke:#000000;stroke-width:0.80000001;stroke-linecap:round" /><path
   clip-rule="evenodd"
   d="M 319.066,392 C 319.005,390.357 318.127,388.842 318,387.199"
   id="path257"
   style="fill:none;fill-rule:evenodd;stroke:#000000;stroke-width:1.14890003;stroke-linecap:round" /><path
   clip-rule="evenodd"
   d="M 316.133,380.8 C 315.454,378.555 314.782,376.287 314.199,374"
   id="path259"
   style="fill:none;fill-rule:evenodd;stroke:#000000;stroke-width:1.30130005;stroke-linecap:round" /><path
   clip-rule="evenodd"
   d="M 314,351.6 C 313.217,351.671 312.882,351.011 312.667,350.4"
   id="path261"
   style="fill:none;fill-rule:evenodd;stroke:#000000;stroke-width:1.21109998;stroke-linecap:round" /><path
   clip-rule="evenodd"
   d="M 305.2,347.399 C 305.012,347.471 304.708,347.555 304.4,347.599"
   id="path263"
   style="fill:none;fill-rule:evenodd;stroke:#000000;stroke-width:0.60000002;stroke-linecap:round" /><path
   clip-rule="evenodd"
   d="M 302.4,392 C 302.043,392.669 302.467,393.411 302.141,393.751 C 302.016,393.773 301.81,393.787 301.6,393.8"
   id="path265"
   style="fill:none;fill-rule:evenodd;stroke:#000000;stroke-width:0.62819999;stroke-linecap:round" /><path
   clip-rule="evenodd"
   d="M 334,341.6 C 334.267,341.6 334.533,341.6 334.8,341.6"
   id="path267"
   style="fill:none;fill-rule:evenodd;stroke:#000000;stroke-width:1.23290002;stroke-linecap:round" /><path
   clip-rule="evenodd"
   d="M 306.8,337.467 C 306.267,337.566 305.734,337.605 305.2,337.734"
   id="path269"
   style="fill:none;fill-rule:evenodd;stroke:#000000;stroke-width:1.23940003;stroke-linecap:round" /><path
   clip-rule="evenodd"
   d="M 338.4,355.2 C 338.188,354.795 338.068,354.179 338,353.599"
   id="path271"
   style="fill:none;fill-rule:evenodd;stroke:#000000;stroke-width:1.16620004;stroke-linecap:round" /><path
   clip-rule="evenodd"
   d="M 339.733,352.8 C 339.639,352.4 339.631,352 339.6,351.6"
   id="path273"
   style="fill:none;fill-rule:evenodd;stroke:#000000;stroke-width:1.21329999;stroke-linecap:round" /><path
   clip-rule="evenodd"
   d="M 345.1,351.1 C 345.178,350.867 345.255,350.633 345.333,350.4"
   id="path275"
   style="fill:none;fill-rule:evenodd;stroke:#000000;stroke-width:1.26489997;stroke-linecap:round" /><path
   clip-rule="evenodd"
   d="M 339.2,348.399 C 339.623,348.511 339.949,348.58 340.341,348.617 C 340.823,348.381 341.037,347.764 341.6,347.599"
   id="path277"
   style="fill:none;fill-rule:evenodd;stroke:#000000;stroke-width:0.90079999;stroke-linecap:round" /><path
   clip-rule="evenodd"
   d="M 341.6,347.6 C 341.733,347.333 341.867,347.067 342,346.8"
   id="path279"
   style="fill:none;fill-rule:evenodd;stroke:#000000;stroke-width:0.8944;stroke-linecap:round" /><path
   clip-rule="evenodd"
   d="M 339.6,345.6 C 339.177,346.023 338.582,346.618 338,347.201"
   id="path281"
   style="fill:none;fill-rule:evenodd;stroke:#000000;stroke-width:0.66250002;stroke-linecap:round" /><path
   clip-rule="evenodd"
   d="M 336.8,346.399 C 337.507,346.125 337.97,345.447 338.6,345"
   id="path283"
   style="fill:none;fill-rule:evenodd;stroke:#000000;stroke-width:0.52850002;stroke-linecap:round" /><path
   clip-rule="evenodd"
   d="M 340,342.399 C 340.109,342.132 340.156,341.866 340.2,341.599"
   id="path285"
   style="fill:none;fill-rule:evenodd;stroke:#000000;stroke-width:0.84850001;stroke-linecap:round" /><path
   clip-rule="evenodd"
   d="M 340.4,345.6 C 340.962,345.963 341.281,346.096 341.6,346.201"
   id="path287"
   style="fill:none;fill-rule:evenodd;stroke:#000000;stroke-width:0.60000002;stroke-linecap:round" /><path
   clip-rule="evenodd"
   d="M 341.6,347.6 C 342.657,348.611 344.07,349.077 345.2,350"
   id="path289"
   style="fill:none;fill-rule:evenodd;stroke:#000000;stroke-width:0.63249999;stroke-linecap:round" /><path
   clip-rule="evenodd"
   d="M 345.1,351.1 C 344.141,351.461 343.874,352.716 342.8,352.933"
   id="path291"
   style="fill:none;fill-rule:evenodd;stroke:#000000;stroke-width:1.15470004;stroke-linecap:round" /><path
   clip-rule="evenodd"
   d="M 358,382.8 C 356.861,382.332 356.856,380.829 355.8,380.2"
   id="path293"
   style="fill:none;fill-rule:evenodd;stroke:#000000;stroke-width:0.5765;stroke-linecap:round" /><path
   clip-rule="evenodd"
   d="M 355.6,382 C 355.257,381.487 354.93,381.032 354.8,380.399"
   id="path295"
   style="fill:none;fill-rule:evenodd;stroke:#000000;stroke-width:0.82810003;stroke-linecap:round" /><path
   clip-rule="evenodd"
   d="M 348.8,352 C 348.012,351.429 347.135,351.092 346.4,350.399"
   id="path297"
   style="fill:none;fill-rule:evenodd;stroke:#000000;stroke-width:0.84329998;stroke-linecap:round" /><path
   clip-rule="evenodd"
   d="M 345.1,351.1 C 345.963,352.209 347.13,352.904 348.4,353.4"
   id="path299"
   style="fill:none;fill-rule:evenodd;stroke:#000000;stroke-width:0.68970001;stroke-linecap:round" /><path
   clip-rule="evenodd"
   d="M 345.8,366.6 C 346.05,366.151 346.031,365.446 345.6,364.8"
   id="path301"
   style="fill:none;fill-rule:evenodd;stroke:#000000;stroke-width:0.50139999;stroke-linecap:round" /><path
   clip-rule="evenodd"
   d="M 322.6,383.8 C 322.781,383.362 322.767,382.821 322.8,382.4"
   id="path303"
   style="fill:none;fill-rule:evenodd;stroke:#000000;stroke-width:0.48989999;stroke-linecap:round" /><path
   clip-rule="evenodd"
   d="M 323.2,385.199 C 322.931,384.788 322.804,384.491 322.6,384.199"
   id="path305"
   style="fill:none;fill-rule:evenodd;stroke:#000000;stroke-width:0.51639998;stroke-linecap:round" /><path
   clip-rule="evenodd"
   d="M 320.2,389.8 C 319.635,388.853 319.908,387.728 319.4,386.8"
   id="path307"
   style="fill:none;fill-rule:evenodd;stroke:#000000;stroke-width:0.79280001;stroke-linecap:round" /><path
   clip-rule="evenodd"
   d="M 311,385.199 C 311.461,385.992 311.383,387.092 312.163,387.636 C 312.337,387.633 312.576,387.561 312.817,387.486 C 312.945,387.39 313.072,387.296 313.2,387.2"
   id="path309"
   style="fill:none;fill-rule:evenodd;stroke:#000000;stroke-width:0.58420002;stroke-linecap:round" /><path
   clip-rule="evenodd"
   d="M 379.8,397 C 380.071,396.871 380.356,396.756 380.6,396.6"
   id="path311"
   style="fill:none;fill-rule:evenodd;stroke:#000000;stroke-width:0.51639998;stroke-linecap:round" /><path
   clip-rule="evenodd"
   d="M 380.6,396.6 C 380.985,396.452 381.46,396.394 381.8,396.2"
   id="path313"
   style="fill:none;fill-rule:evenodd;stroke:#000000;stroke-width:0.50599998;stroke-linecap:round" /><path
   clip-rule="evenodd"
   d="M 380.4,407.399 C 380.515,407.399 380.629,407.399 380.744,407.399 C 381.661,406.984 382.272,404.392 381.2,404.199"
   id="path315"
   style="fill:none;fill-rule:evenodd;stroke:#000000;stroke-width:0.69279999;stroke-linecap:round" /><path
   clip-rule="evenodd"
   d="M 340.4,224.8 C 341.043,224.366 341.597,223.714 342.4,223.6"
   id="path317"
   style="fill:none;fill-rule:evenodd;stroke:#000000;stroke-width:0.56569999;stroke-linecap:round" /><path
   clip-rule="evenodd"
   d="M 310.8,289.2 C 312.881,289.617 314.787,290.665 316.8,291.2"
   id="path319"
   style="fill:none;fill-rule:evenodd;stroke:#000000;stroke-width:0.50379997;stroke-linecap:round" /><path
   clip-rule="evenodd"
   d="M 303.6,399.6 C 305.099,400.503 307.16,400.561 308.3,401.85"
   id="path321"
   style="fill:none;fill-rule:evenodd;stroke:#000000;stroke-width:0.90920001;stroke-linecap:round" /><path
   clip-rule="evenodd"
   d="M 308.3,401.85 C 308.74,401.965 309.044,401.78 309.6,401.6"
   id="path323"
   style="fill:none;fill-rule:evenodd;stroke:#000000;stroke-width:1.60000002;stroke-linecap:round" /><path
   clip-rule="evenodd"
   d="M 308.3,401.85 C 307.742,402.317 307.056,402.371 306.4,402.4"
   id="path325"
   style="fill:none;fill-rule:evenodd;stroke:#000000;stroke-width:0.56569999;stroke-linecap:round" /></g></g></g></svg>