<?xml version="1.0" encoding="UTF-8" standalone="no"?>
<!-- Created with Inkscape (http://www.inkscape.org/) -->
<svg
   xmlns:dc="http://purl.org/dc/elements/1.1/"
   xmlns:cc="http://creativecommons.org/ns#"
   xmlns:rdf="http://www.w3.org/1999/02/22-rdf-syntax-ns#"
   xmlns:svg="http://www.w3.org/2000/svg"
   xmlns="http://www.w3.org/2000/svg"
   xmlns:sodipodi="http://sodipodi.sourceforge.net/DTD/sodipodi-0.dtd"
   xmlns:inkscape="http://www.inkscape.org/namespaces/inkscape"
   viewBox="0 0 157.73814 27.01372"
   width="100%"
   height="100%"
   id="svg2"
   sodipodi:version="0.32"
   inkscape:version="0.46"
   sodipodi:docname="technoanarchy_typed.svg"
   inkscape:output_extension="org.inkscape.output.svg.inkscape"
   version="1.0">
  <defs
     id="defs4">
    <inkscape:perspective
       sodipodi:type="inkscape:persp3d"
       inkscape:vp_x="0 : 526.18109 : 1"
       inkscape:vp_y="0 : 1000 : 0"
       inkscape:vp_z="744.09448 : 526.18109 : 1"
       inkscape:persp3d-origin="372.04724 : 350.78739 : 1"
       id="perspective10" />
    <style
       id="style2463"
       type="text/css">
      #background { fill: #ff9208; }
      #foreground { fill: #056864; stroke: black;}
    </style>
    <inkscape:perspective
       sodipodi:type="inkscape:persp3d"
       inkscape:vp_x="0 : 526.18109 : 1"
       inkscape:vp_y="0 : 1000 : 0"
       inkscape:vp_z="744.09448 : 526.18109 : 1"
       inkscape:persp3d-origin="372.04724 : 350.78739 : 1"
       id="perspective2447" />
    <inkscape:perspective
       id="perspective2470"
       inkscape:persp3d-origin="372.04724 : 350.78739 : 1"
       inkscape:vp_z="744.09448 : 526.18109 : 1"
       inkscape:vp_y="0 : 1000 : 0"
       inkscape:vp_x="0 : 526.18109 : 1"
       sodipodi:type="inkscape:persp3d" />
  </defs>
  <sodipodi:namedview
     id="base"
     pagecolor="#ffffff"
     bordercolor="#666666"
     borderopacity="1.0"
     gridtolerance="10000"
     guidetolerance="10"
     objecttolerance="10"
     inkscape:pageopacity="0.0"
     inkscape:pageshadow="2"
     inkscape:zoom="5.6568543"
     inkscape:cx="36.18712"
     inkscape:cy="5.861411"
     inkscape:document-units="px"
     inkscape:current-layer="layer1"
     showgrid="false"
     inkscape:window-width="1440"
     inkscape:window-height="829"
     inkscape:window-x="0"
     inkscape:window-y="25"
     showguides="true"
     inkscape:guide-bbox="true" />
  <metadata
     id="metadata7">
    <rdf:RDF>
      <cc:Work
         rdf:about="">
        <dc:format>image/svg+xml</dc:format>
        <dc:type
           rdf:resource="http://purl.org/dc/dcmitype/StillImage" />
      </cc:Work>
    </rdf:RDF>
  </metadata>
  <g
     inkscape:label="Layer 1"
     inkscape:groupmode="layer"
     id="layer1"
     transform="translate(-95.26772,-535.74765)">
    <path
       style="font-size:20px;font-style:normal;font-variant:normal;font-weight:normal;font-stretch:normal;text-align:center;text-anchor:middle;fill:#000000;fill-opacity:1;stroke:none;stroke-width:1px;stroke-linecap:butt;stroke-linejoin:miter;stroke-opacity:1;font-family:Rachana;-inkscape-font-specification:Rachana"
       d="M 113.4093,551.83021 C 113.4093,550.89688 113.60263,550.06355 113.9893,549.33021 C 114.37596,548.59688 114.88263,547.98355 115.5093,547.49021 C 116.1493,546.98355 116.87596,546.59689 117.6893,546.33021 C 118.50263,546.06355 119.33596,545.93022 120.1893,545.93021 L 121.1893,545.93021 C 121.42929,545.97022 121.66262,546.04355 121.8893,546.15021 C 122.12929,546.24355 122.38262,546.36355 122.6493,546.51021 L 122.7693,546.57021 C 123.02262,546.71688 123.22929,546.86355 123.3893,547.01021 C 123.56262,547.14355 123.68262,547.38355 123.7493,547.73021 C 123.74929,547.75688 123.74262,547.79688 123.7293,547.85021 C 123.71596,547.90355 123.70262,547.93688 123.6893,547.95021 C 123.67596,548.24355 123.50929,548.52355 123.1893,548.79021 C 122.88262,549.05688 122.66929,549.19022 122.5493,549.19021 C 122.52262,549.20355 122.45596,549.21022 122.3493,549.21021 C 122.29596,549.21022 122.25596,549.21022 122.2293,549.21021 C 122.20262,549.19688 122.18929,549.19022 122.1893,549.19021 C 121.98929,548.89688 121.81596,548.63688 121.6693,548.41021 C 121.52262,548.18355 121.36262,548.00355 121.1893,547.87021 C 121.02929,547.72355 120.82262,547.61688 120.5693,547.55021 C 120.31596,547.47022 119.98263,547.43022 119.5693,547.43021 C 119.00929,547.43022 118.53596,547.53688 118.1493,547.75021 C 117.77596,547.96355 117.47596,548.25022 117.2493,548.61021 C 117.02263,548.95688 116.85596,549.35688 116.7493,549.81021 C 116.65596,550.26355 116.6093,550.73688 116.6093,551.23021 L 120.4493,551.23021 L 120.4493,552.69021 L 116.4493,552.69021 L 116.4093,553.17021 C 116.4493,553.54354 116.56263,553.94354 116.7493,554.37021 C 116.93596,554.79688 117.23596,555.22354 117.6493,555.65021 C 117.88929,555.91688 118.18263,556.12354 118.5293,556.27021 C 118.88929,556.40354 119.32929,556.47021 119.8493,556.47021 C 120.40929,556.47021 120.85596,556.34354 121.1893,556.09021 C 121.56262,555.83688 121.98262,555.53688 122.4493,555.19021 C 122.67596,555.28354 122.89596,555.42354 123.1093,555.61021 C 123.33596,555.79688 123.44929,556.03688 123.4493,556.33021 C 123.44929,556.70354 123.29596,557.00354 122.9893,557.23021 C 122.68262,557.44354 122.31596,557.60354 121.8893,557.71021 C 121.47596,557.81687 121.04929,557.89021 120.6093,557.93021 C 120.18263,557.95687 119.84263,557.97021 119.5893,557.97021 C 118.69596,557.97021 117.86929,557.81687 117.1093,557.51021 C 116.36263,557.19021 115.7093,556.75687 115.1493,556.21021 C 114.60263,555.65021 114.17596,554.99688 113.8693,554.25021 C 113.56263,553.50354 113.4093,552.69688 113.4093,551.83021"
       id="path2458" />
    <path
       style="font-size:20px;font-style:normal;font-variant:normal;font-weight:normal;font-stretch:normal;text-align:center;text-anchor:middle;fill:#000000;fill-opacity:1;stroke:none;stroke-width:1px;stroke-linecap:butt;stroke-linejoin:miter;stroke-opacity:1;font-family:Rachana;-inkscape-font-specification:Rachana"
       d="M 123.51653,551.83021 C 123.51653,550.89688 123.70986,550.06355 124.09653,549.33021 C 124.48319,548.59688 124.98986,547.98355 125.61653,547.49021 C 126.25653,546.98355 126.98319,546.59689 127.79653,546.33021 C 128.60986,546.06355 129.44319,545.93022 130.29653,545.93021 L 131.29653,545.93021 C 131.53652,545.97022 131.76985,546.04355 131.99653,546.15021 C 132.23652,546.24355 132.48985,546.36355 132.75653,546.51021 L 132.87653,546.57021 C 133.12985,546.71688 133.33652,546.86355 133.49653,547.01021 C 133.66985,547.14355 133.78985,547.38355 133.85653,547.73021 C 133.85652,547.75688 133.84985,547.79688 133.83653,547.85021 C 133.82319,547.90355 133.80985,547.93688 133.79653,547.95021 C 133.78319,548.24355 133.61652,548.52355 133.29653,548.79021 C 132.97652,549.07022 132.76319,549.21688 132.65653,549.23021 C 132.62985,549.23022 132.60319,549.23688 132.57653,549.25021 C 132.56319,549.25022 132.54319,549.25022 132.51653,549.25021 C 132.39652,549.25022 132.29652,549.19688 132.21653,549.09021 C 132.13652,548.97022 131.98985,548.74355 131.77653,548.41021 C 131.66985,548.25022 131.55652,548.11022 131.43653,547.99021 C 131.31652,547.85688 131.17652,547.75022 131.01653,547.67021 C 130.86985,547.59022 130.68319,547.53022 130.45653,547.49021 C 130.24319,547.45022 129.98319,547.43022 129.67653,547.43021 C 129.10319,547.43022 128.62986,547.53688 128.25653,547.75021 C 127.88319,547.96355 127.58319,548.24355 127.35653,548.59021 C 127.12986,548.95022 126.95653,549.32355 126.83653,549.71021 C 126.71653,550.08355 126.62319,550.57021 126.55653,551.17021 C 126.54319,551.27688 126.52986,551.39021 126.51653,551.51021 C 126.51653,551.61688 126.51653,551.73688 126.51653,551.87021 C 126.51653,552.00355 126.51653,552.13688 126.51653,552.27021 C 126.52986,552.40355 126.54319,552.54355 126.55653,552.69021 C 126.56986,552.89021 126.58986,553.07688 126.61653,553.25021 C 126.64319,553.41021 126.66986,553.55021 126.69653,553.67021 C 126.77653,553.99021 126.90986,554.33688 127.09653,554.71021 C 127.28319,555.08354 127.50319,555.40354 127.75653,555.67021 C 127.99652,555.92354 128.28986,556.12354 128.63653,556.27021 C 128.99652,556.40354 129.43652,556.47021 129.95653,556.47021 C 130.51652,556.47021 130.96319,556.34354 131.29653,556.09021 C 131.66985,555.83688 132.08985,555.53688 132.55653,555.19021 C 132.78319,555.28354 133.00319,555.42354 133.21653,555.61021 C 133.44319,555.79688 133.55652,556.03688 133.55653,556.33021 C 133.55652,556.70354 133.40319,557.00354 133.09653,557.23021 C 132.78985,557.44354 132.42319,557.60354 131.99653,557.71021 C 131.58319,557.81687 131.15652,557.89021 130.71653,557.93021 C 130.28986,557.95687 129.94986,557.97021 129.69653,557.97021 C 128.80319,557.97021 127.97652,557.81687 127.21653,557.51021 C 126.46986,557.19021 125.81653,556.75687 125.25653,556.21021 C 124.70986,555.65021 124.28319,554.99688 123.97653,554.25021 C 123.66986,553.50354 123.51653,552.69688 123.51653,551.83021"
       id="path2456" />
    <path
       style="font-size:20px;font-style:normal;font-variant:normal;font-weight:normal;font-stretch:normal;text-align:center;text-anchor:middle;fill:#000000;fill-opacity:1;stroke:none;stroke-width:1px;stroke-linecap:butt;stroke-linejoin:miter;stroke-opacity:1;font-family:Rachana;-inkscape-font-specification:Rachana"
       d="M 134.76018,545.9891 L 134.76018,545.8891 L 137.40018,545.8891 L 137.40018,548.1291 L 143.20018,548.1291 C 143.54684,548.23577 143.84684,548.42911 144.10018,548.7091 C 144.36684,548.98911 144.50017,549.30244 144.50018,549.6491 L 144.50018,557.9091 L 142.26018,557.9091 L 142.06018,557.8891 L 142.06018,550.4891 C 142.0335,550.3291 141.9535,550.19577 141.82018,550.0891 C 141.68684,549.9691 141.50017,549.90911 141.26018,549.9091 L 137.38018,549.9091 L 137.38018,557.9091 L 135.00018,557.9091 L 134.76018,557.8891 L 134.76018,545.9891"
       id="path2454" />
    <path
       style="font-size:20px;font-style:normal;font-variant:normal;font-weight:normal;font-stretch:normal;text-align:center;text-anchor:middle;fill:#000000;fill-opacity:1;stroke:none;stroke-width:1px;stroke-linecap:butt;stroke-linejoin:miter;stroke-opacity:1;font-family:Rachana;-inkscape-font-specification:Rachana"
       d="M 146.13645,545.8491 L 148.87645,545.8491 L 148.87645,548.8491 L 153.65645,552.1891 L 153.65645,545.8491 L 155.15645,545.8491 L 155.15645,555.6491 L 154.87645,555.6691 L 154.19645,555.6691 L 148.87645,551.8691 L 148.87645,557.9091 L 146.13645,557.9091 L 146.13645,545.8491"
       id="path2452" />
    <path
       id="path2450"
       style="font-size:20px;font-style:normal;font-variant:normal;font-weight:normal;font-stretch:normal;text-align:center;text-anchor:middle;fill:#000000;fill-opacity:1;stroke:none;stroke-width:0.30000000999999998;stroke-linecap:butt;stroke-linejoin:miter;stroke-miterlimit:4;stroke-dasharray:none;stroke-opacity:1;font-family:Rachana;-inkscape-font-specification:Rachana"
       d="M 156.17825,552.05654 C 156.17825,552.84321 156.32492,553.60354 156.61825,554.31021 C 156.92492,555.01688 157.33825,555.64354 157.85825,556.19021 C 158.39158,556.72354 159.01158,557.15021 159.71825,557.47021 C 160.42492,557.79021 161.18492,557.95021 161.99825,557.95021 C 162.70491,557.95021 163.42491,557.81687 164.15825,557.55021 C 164.90491,557.28354 165.58491,556.91687 166.19825,556.45021 C 166.81158,555.97021 167.31307,555.40442 167.69825,554.75021 C 167.83254,554.52212 167.94885,554.25785 168.03604,554.01472 L 166.79948,554.01193 L 165.61448,554.21897 L 165.55288,554.02612 L 165.21173,553.9597 C 165.10474,554.28604 164.95627,554.59127 164.77825,554.87021 C 164.52354,555.26933 164.18491,555.59688 163.75825,555.85021 C 163.33158,556.10354 162.81158,556.23021 162.19825,556.23021 C 161.57158,556.23021 161.05158,556.09021 160.63825,555.81021 C 160.22492,555.53021 159.89158,555.17688 159.63825,554.75021 C 159.39825,554.31021 159.22492,553.82354 159.11825,553.29021 C 159.02492,552.74355 158.97825,552.21021 158.97825,551.67654 C 158.97825,551.12954 159.04492,550.63688 159.17825,550.13021 C 159.31158,549.62355 159.51158,549.17022 159.77825,548.77021 C 160.05825,548.37022 160.40492,548.05022 160.81825,547.81021 C 161.24492,547.55688 161.73825,547.43022 162.29825,547.43021 C 162.88491,547.43022 163.38491,547.57688 163.79825,547.87021 C 164.21158,548.15022 164.54491,548.51022 164.79825,548.95021 C 165.05158,549.37688 165.22598,549.85144 165.33825,550.37021 C 165.42707,550.78061 165.49775,551.19137 165.51788,551.55926 L 168.26328,551.50352 C 168.23413,550.78945 168.09262,550.11587 167.87825,549.57021 C 167.63288,548.94566 167.28491,548.37688 166.81825,547.87021 C 166.32491,547.33688 165.67824,546.88355 164.87825,546.51021 C 164.09158,546.12355 163.21825,545.93022 162.25825,545.93021 C 161.40492,545.93022 160.60492,546.09022 159.85825,546.41021 C 159.12492,546.71688 158.48492,547.15022 157.93825,547.71021 C 157.39159,548.25688 156.95825,548.90355 156.63825,549.65021 C 156.33159,550.39688 156.17825,551.18988 156.17825,552.05654 z M 166.19794,552.87709 L 166.19265,553.21099 L 165.72496,553.22031 L 165.46159,553.47788 L 165.33825,553.48193 C 165.40213,553.19181 165.47206,552.80053 165.47989,552.59381 L 166.19794,552.87709 z"
       sodipodi:nodetypes="cscssssscccccsssssscsssssssccsscsssscccccccs" />
    <path
       style="font-size:20px;font-style:normal;font-variant:normal;font-weight:normal;font-stretch:normal;text-align:center;text-anchor:middle;fill:#000000;fill-opacity:1;stroke:none;stroke-width:1px;stroke-linecap:butt;stroke-linejoin:miter;stroke-opacity:1;font-family:Rachana;-inkscape-font-specification:Rachana"
       d="M 187.6862,553.0755 L 188.53394,553.01556 L 190.42572,553.09517 L 190.43261,557.9091 L 187.69261,557.9091 L 187.6862,553.0755 z M 187.69261,545.8491 L 190.43261,545.8491 L 190.43261,548.8491 L 195.21261,553.07298 L 195.21261,545.8491 L 196.71261,545.8491 L 196.71261,556.53298 L 196.43261,556.55298 L 195.75261,556.55298 L 191.43517,552.90369 L 191.90939,552.76149 L 191.74288,552.45171 L 191.063,552.42458 L 190.43261,551.8691 L 190.42472,552.41235 L 189.61924,552.38634 L 189.34868,552.15006 L 187.69261,551.99812 L 187.69261,545.8491"
       id="path2442"
       sodipodi:nodetypes="ccccccccccccccccccccccccc" />
    <path
       id="path2440"
       style="font-size:20px;font-style:normal;font-variant:normal;font-weight:normal;font-stretch:normal;text-align:center;text-anchor:middle;fill:#000000;fill-opacity:1;stroke:none;stroke-width:1px;stroke-linecap:butt;stroke-linejoin:miter;stroke-opacity:1;font-family:Rachana;-inkscape-font-specification:Rachana"
       d="M 198.90694,547.2891 L 198.08694,547.2891 L 198.00694,547.1491 C 198.00694,547.14911 198.00028,547.09577 197.98694,546.9891 C 197.98694,546.88244 197.98694,546.76244 197.98694,546.6291 C 197.98694,546.44244 198.00028,546.28244 198.02694,546.1491 C 198.06694,546.00244 198.18028,545.91578 198.36694,545.8891 L 208.38694,545.8891 C 208.42693,545.92911 208.46693,545.98244 208.50694,546.0491 C 208.54693,546.10244 208.5736,546.16244 208.58694,546.2291 L 208.58694,557.9091 L 206.16694,557.9091 L 206.16694,556.7491 L 201.26694,556.7491 L 201.26694,557.9091 L 198.90694,557.9091 L 198.90694,547.2891 M 201.50694,547.4091 L 201.50694,555.2091 L 205.90694,555.2091 L 205.90694,547.4091 L 201.50694,547.4091" />
    <path
       id="path2436"
       style="font-size:20px;font-style:normal;font-variant:normal;font-weight:normal;font-stretch:normal;text-align:center;text-anchor:middle;fill:#000000;fill-opacity:1;stroke:none;stroke-width:1px;stroke-linecap:butt;stroke-linejoin:miter;stroke-opacity:1;font-family:Rachana;-inkscape-font-specification:Rachana"
       d="M 210.09632,557.1091 L 210.09632,546.3891 C 210.09632,546.28244 210.11632,546.20911 210.15632,546.1691 C 210.19632,546.11578 210.26299,546.02244 210.35632,545.8891 L 215.55632,545.8891 C 215.76965,545.91578 215.94965,545.94244 216.09632,545.9691 C 216.25631,545.99578 216.39631,546.02911 216.51632,546.0691 C 216.64965,546.10911 216.77631,546.16244 216.89632,546.2291 C 217.01631,546.28244 217.14965,546.34911 217.29632,546.4291 C 217.50964,546.56244 217.68298,546.68244 217.81632,546.7891 C 217.94964,546.89577 218.05631,547.00911 218.13632,547.1291 C 218.22964,547.23577 218.30298,547.36244 218.35632,547.5091 C 218.40964,547.64244 218.46298,547.80911 218.51632,548.0091 C 218.52964,548.10244 218.53631,548.19577 218.53632,548.2891 C 218.54964,548.36911 218.55631,548.44911 218.55632,548.5291 C 218.55631,548.67577 218.54964,548.88911 218.53632,549.1691 C 218.52298,549.44911 218.49631,549.66911 218.45632,549.8291 C 218.41631,550.0691 218.31631,550.2891 218.15632,550.4891 C 218.00964,550.6891 217.79631,550.9291 217.51632,551.2091 C 217.83631,551.34244 218.08298,551.46244 218.25632,551.5691 C 218.42964,551.67577 218.60964,551.8491 218.79632,552.0891 C 218.96964,552.2891 219.09631,552.47577 219.17632,552.6491 C 219.26964,552.8091 219.32964,552.9891 219.35632,553.1891 C 219.52964,553.48243 219.61631,553.89577 219.61632,554.4291 L 219.61632,557.9091 L 217.01632,557.9091 L 217.01632,553.9491 C 216.86965,553.61577 216.74965,553.37577 216.65632,553.2291 C 216.56298,553.0691 216.42965,552.90244 216.25632,552.7291 C 216.09631,552.5691 215.91631,552.44244 215.71632,552.3491 C 215.51631,552.24244 215.18298,552.1691 214.71632,552.1291 C 214.43631,552.1291 214.20298,552.15577 214.01632,552.2091 C 213.84298,552.26244 213.68298,552.35577 213.53632,552.4891 C 213.38965,552.62244 213.24965,552.77577 213.11632,552.9491 C 212.98298,553.1091 212.84965,553.4091 212.71632,553.8491 L 212.71632,557.9091 L 210.11632,557.9091 L 210.09632,557.1091 M 212.71632,547.1291 L 212.71632,551.5291 C 213.14298,551.06244 213.46965,550.80244 213.69632,550.7491 C 213.94965,550.6691 214.22298,550.63577 214.51632,550.6491 C 214.80965,550.6491 215.06965,550.6291 215.29632,550.5891 C 215.70965,550.52244 216.02965,550.34244 216.25632,550.0491 C 216.49631,549.74244 216.61631,549.38911 216.61632,548.9891 C 216.61631,548.57577 216.54965,548.24911 216.41632,548.0091 C 216.28298,547.76911 216.10298,547.58244 215.87632,547.4491 C 215.64965,547.31577 215.38298,547.22911 215.07632,547.1891 C 214.76965,547.14911 214.44298,547.12911 214.09632,547.1291 L 212.71632,547.1291" />
    <path
       style="font-size:20px;font-style:normal;font-variant:normal;font-weight:normal;font-stretch:normal;text-align:center;text-anchor:middle;fill:#000000;fill-opacity:1;stroke:none;stroke-width:1px;stroke-linecap:butt;stroke-linejoin:miter;stroke-opacity:1;font-family:Rachana;-inkscape-font-specification:Rachana"
       d="M 220.3934,551.83021 C 220.3934,550.89688 220.58673,550.06355 220.9734,549.33021 C 221.36006,548.59688 221.86673,547.98355 222.4934,547.49021 C 223.13339,546.98355 223.86006,546.59689 224.6734,546.33021 C 225.48672,546.06355 226.32006,545.93022 227.1734,545.93021 L 228.1734,545.93021 C 228.41339,545.97022 228.64672,546.04355 228.8734,546.15021 C 229.11339,546.24355 229.36672,546.36355 229.6334,546.51021 L 229.7534,546.57021 C 230.00672,546.71688 230.21339,546.86355 230.3734,547.01021 C 230.54672,547.14355 230.66672,547.38355 230.7334,547.73021 C 230.73339,547.75688 230.72672,547.79688 230.7134,547.85021 C 230.70005,547.90355 230.68672,547.93688 230.6734,547.95021 C 230.66005,548.24355 230.49339,548.52355 230.1734,548.79021 C 229.85339,549.07022 229.64005,549.21688 229.5334,549.23021 C 229.50672,549.23022 229.48005,549.23688 229.4534,549.25021 C 229.44005,549.25022 229.42005,549.25022 229.3934,549.25021 C 229.27339,549.25022 229.17339,549.19688 229.0934,549.09021 C 229.01339,548.97022 228.86672,548.74355 228.6534,548.41021 C 228.54672,548.25022 228.43339,548.11022 228.3134,547.99021 C 228.19339,547.85688 228.05339,547.75022 227.8934,547.67021 C 227.74672,547.59022 227.56006,547.53022 227.3334,547.49021 C 227.12006,547.45022 226.86006,547.43022 226.5534,547.43021 C 225.98006,547.43022 225.50672,547.53688 225.1334,547.75021 C 224.76006,547.96355 224.46006,548.24355 224.2334,548.59021 C 224.00673,548.95022 223.83339,549.32355 223.7134,549.71021 C 223.59339,550.08355 223.50006,550.57021 223.4334,551.17021 C 223.42006,551.27688 223.40673,551.39021 223.3934,551.51021 C 223.39339,551.61688 223.39339,551.73688 223.3934,551.87021 C 223.39339,552.00355 223.39339,552.13688 223.3934,552.27021 C 223.40673,552.40355 223.42006,552.54355 223.4334,552.69021 C 223.44673,552.89021 223.46673,553.07688 223.4934,553.25021 C 223.52006,553.41021 223.54673,553.55021 223.5734,553.67021 C 223.65339,553.99021 223.78673,554.33688 223.9734,554.71021 C 224.16006,555.08354 224.38006,555.40354 224.6334,555.67021 C 224.87339,555.92354 225.16672,556.12354 225.5134,556.27021 C 225.87339,556.40354 226.31339,556.47021 226.8334,556.47021 C 227.39339,556.47021 227.84006,556.34354 228.1734,556.09021 C 228.54672,555.83688 228.96672,555.53688 229.4334,555.19021 C 229.66005,555.28354 229.88005,555.42354 230.0934,555.61021 C 230.32005,555.79688 230.43339,556.03688 230.4334,556.33021 C 230.43339,556.70354 230.28005,557.00354 229.9734,557.23021 C 229.66672,557.44354 229.30005,557.60354 228.8734,557.71021 C 228.46005,557.81687 228.03339,557.89021 227.5934,557.93021 C 227.16672,557.95687 226.82672,557.97021 226.5734,557.97021 C 225.68006,557.97021 224.85339,557.81687 224.0934,557.51021 C 223.34673,557.19021 222.69339,556.75687 222.1334,556.21021 C 221.58673,555.65021 221.16006,554.99688 220.8534,554.25021 C 220.54673,553.50354 220.3934,552.69688 220.3934,551.83021"
       id="path2432" />
    <path
       style="font-size:20px;font-style:normal;font-variant:normal;font-weight:normal;font-stretch:normal;text-align:center;text-anchor:middle;fill:#000000;fill-opacity:1;stroke:none;stroke-width:1px;stroke-linecap:butt;stroke-linejoin:miter;stroke-opacity:1;font-family:Rachana;-inkscape-font-specification:Rachana"
       d="M 231.88959,545.9891 L 231.88959,545.8891 L 234.52959,545.8891 L 234.52959,548.1291 L 240.32959,548.1291 C 240.67624,548.23577 240.97624,548.42911 241.22959,548.7091 C 241.49624,548.98911 241.62958,549.30244 241.62959,549.6491 L 241.62959,557.9091 L 239.38959,557.9091 L 239.18959,557.8891 L 239.18959,550.4891 C 239.16291,550.3291 239.08291,550.19577 238.94959,550.0891 C 238.81625,549.9691 238.62958,549.90911 238.38959,549.9091 L 234.50959,549.9091 L 234.50959,557.9091 L 232.12959,557.9091 L 231.88959,557.8891 L 231.88959,545.9891"
       id="path2430" />
    <path
       style="font-size:20px;font-style:normal;font-variant:normal;font-weight:normal;font-stretch:normal;text-align:center;text-anchor:middle;fill:#000000;fill-opacity:1;stroke:none;stroke-width:1px;stroke-linecap:butt;stroke-linejoin:miter;stroke-opacity:1;font-family:Rachana;-inkscape-font-specification:Rachana"
       d="M 253.00586,560.83956 L 253.00586,545.9091 L 252.76586,545.8891 L 250.38586,545.8891 L 250.38586,553.8891 L 246.50586,553.8891 C 246.25252,553.8891 246.06585,553.8091 245.94586,553.6491 C 245.82585,553.4891 245.74585,553.22244 245.70586,552.8491 L 245.70586,545.9091 L 245.50586,545.8891 L 243.26586,545.8891 L 243.26586,554.1291 C 243.26586,554.47577 243.39252,554.79577 243.64586,555.0891 C 243.89919,555.3691 244.20586,555.55577 244.56586,555.6491 L 250.36586,555.6491 L 250.36586,560.93956 L 253.00586,560.93956 L 253.00586,560.83956"
       id="text2383"
       sodipodi:nodetypes="ccccccscccccsccccc" />
    <path
       style="fill:#9799e9;fill-opacity:1;stroke:none;stroke-width:0.30000000999999998;stroke-linejoin:round;stroke-miterlimit:4;stroke-dasharray:none;stroke-opacity:1"
       id="background"
       d="M 184.27163,562.42342 C 184.21594,562.23755 184.16275,562.04491 184.15346,561.99534 C 184.13539,561.89927 183.58624,560.80515 183.46721,560.62812 C 183.4282,560.57011 183.28515,560.49474 183.14934,560.46065 L 182.90241,560.39868 L 182.90241,561.12942 L 182.90241,561.86015 L 182.78533,561.86015 L 182.66825,561.86015 L 182.56605,561.56725 C 182.50985,561.40616 182.41507,561.09187 182.35547,560.86882 L 182.24709,560.46327 L 182.20676,560.57593 L 182.16642,560.68858 L 182.05046,560.68858 L 181.9345,560.68858 L 181.82095,560.28303 L 181.7074,559.87748 L 181.58964,559.87748 L 181.47189,559.87748 L 181.44364,559.5846 L 181.41541,559.2917 L 181.05492,559.31966 C 180.72678,559.34511 179.46406,559.68591 178.95445,559.88657 L 178.74651,559.96845 L 178.57872,559.87863 L 178.4109,559.78881 L 177.84036,559.79557 C 177.52657,559.7993 176.90483,559.79828 176.45873,559.79333 L 175.64764,559.78431 L 175.49508,559.58307 L 175.34252,559.38181 L 174.99941,559.37495 L 174.65629,559.36807 L 174.27687,559.17216 L 173.89744,558.97628 L 173.66855,558.97628 L 173.43966,558.97628 L 173.43966,558.88615 L 173.43966,558.79603 L 173.3007,558.79603 L 173.16176,558.79603 L 172.98956,558.63832 C 172.89486,558.55157 172.58928,558.35893 172.31052,558.21023 L 171.80368,557.93987 L 171.67539,558.11482 L 171.54711,558.28975 L 171.54626,558.47531 L 171.54543,558.66085 L 171.27731,559.12833 L 171.0092,559.59579 L 170.69508,559.83539 L 170.38096,560.07498 L 170.27016,560.3814 L 170.15936,560.68784 L 169.9979,560.7391 L 169.83643,560.79034 L 169.73641,560.72853 L 169.63641,560.66672 L 169.68829,560.40728 L 169.74018,560.14784 L 169.58471,560.15152 L 169.42926,560.15517 L 169.11724,560.42187 C 168.94562,560.56855 168.77326,560.68858 168.73422,560.68858 L 168.66322,560.68858 L 168.66322,560.55341 L 168.66322,560.41822 L 168.59564,560.41856 C 168.55846,560.41874 168.39167,560.50202 168.22497,560.60366 L 167.92193,560.78841 L 167.87616,560.74265 C 167.851,560.71749 167.82955,560.50239 167.82852,560.26465 L 167.82662,559.83243 L 167.89805,559.66436 C 167.93734,559.57194 168.06563,559.38944 168.18311,559.25882 C 168.61776,558.77564 170.10517,556.62557 170.10517,556.48046 C 170.10517,556.43761 170.18629,556.34408 170.28541,556.27263 L 170.46565,556.14271 L 170.46565,556.02743 L 170.46565,555.91214 L 170.38532,555.91214 L 170.30498,555.91214 L 170.16772,555.56908 C 170.09223,555.3804 169.96615,555.17267 169.88756,555.10744 L 169.74468,554.98886 L 169.74468,554.86655 C 169.74468,554.79926 169.67945,554.58119 169.59972,554.38191 L 169.45474,554.0196 L 168.59324,554.0196 L 166.7942,554.0196 L 165.61617,554.22473 L 165.54969,554.0253 L 165.23363,553.96601 L 164.91758,553.90671 L 164.86657,553.77382 L 164.81558,553.64092 L 164.94136,553.56127 C 165.01054,553.51747 165.1555,553.481 165.26347,553.48025 L 165.45982,553.47886 L 165.73017,553.2085 L 166.19367,553.2085 L 166.19367,552.87848 L 165.40404,552.57232 L 165.35236,552.31394 L 165.30069,552.05557 L 165.18391,552.06045 C 165.11969,552.06312 164.95562,552.05893 164.8193,552.05112 L 164.57147,552.03692 L 164.57147,551.86645 L 164.57147,551.69597 L 164.8193,551.63239 L 165.06714,551.5688 L 166.37391,551.53436 C 167.09263,551.51542 168.74605,551.4777 168.90235,551.45056 L 169.18655,551.40117 L 169.23306,551.27997 C 169.25865,551.21329 169.30752,550.96094 169.34167,550.71916 L 169.40373,550.27957 L 169.5479,550.05425 L 169.69207,549.82894 L 169.66621,549.6212 L 169.64037,549.41344 L 169.79009,549.18492 C 169.87245,549.05922 169.95938,548.84859 169.98327,548.71686 C 170.00715,548.58512 170.07478,548.38926 170.13353,548.28157 C 170.19228,548.17388 170.34018,547.8973 170.46221,547.66693 L 170.68405,547.24807 L 171.15691,546.70204 C 171.41698,546.40172 171.7227,546.01919 171.83628,545.85196 L 172.04278,545.54791 L 172.2005,545.49691 L 172.3582,545.44591 L 172.3582,545.36187 L 172.3582,545.27781 L 172.58351,545.27781 L 172.80882,545.27781 L 172.79814,545.21023 C 172.79228,545.17306 172.79228,545.07167 172.79814,544.98492 L 172.80882,544.82722 L 172.99205,544.82722 L 173.17529,544.82722 L 173.62577,544.59894 C 173.87353,544.47338 174.36898,544.26451 174.72677,544.13475 L 175.37727,543.89885 L 175.78281,543.87472 C 176.00586,543.86143 176.53308,543.78429 176.9544,543.70328 L 177.72043,543.55598 L 178.13879,543.61293 L 178.55715,543.66986 L 178.63191,543.55009 C 178.67306,543.48423 178.72191,543.3695 178.74051,543.29515 C 178.77803,543.14519 178.9198,541.91097 178.93203,541.6279 C 178.93632,541.52877 178.97667,541.38944 179.02171,541.31828 L 179.10357,541.18889 L 179.24135,541.30322 L 179.37914,541.41758 L 179.58065,541.22984 C 179.69146,541.12659 179.82671,541.04211 179.88116,541.04211 L 179.98019,541.04211 L 180.00175,541.32494 C 180.01359,541.48049 180.04611,541.64468 180.07399,541.6898 L 180.12469,541.77184 L 180.25185,541.6663 L 180.37901,541.56077 L 180.37901,541.40728 L 180.37901,541.25377 L 180.5876,541.05783 C 180.70232,540.95004 180.8204,540.86187 180.85,540.86187 L 180.90384,540.86187 L 180.88722,541.67296 L 180.8706,542.48406 L 180.96532,542.48406 L 181.06004,542.48406 L 181.21034,543.00225 L 181.36066,543.52045 L 181.30994,543.76829 L 181.25922,544.01612 L 181.35983,544.01612 L 181.46046,544.01612 L 181.46046,544.24143 L 181.46046,544.46673 L 181.67233,544.46673 C 182.12025,544.46673 182.9854,544.84541 183.4882,545.26158 L 183.75856,545.48535 L 183.75856,545.67448 L 183.75856,545.8636 L 183.93881,545.84367 C 184.03794,545.8327 184.23057,545.86803 184.36688,545.92218 L 184.61471,546.02066 L 184.61471,546.10209 L 184.61471,546.1835 L 184.84002,546.26915 L 185.06532,546.35481 L 185.06532,546.47821 L 185.06532,546.60161 L 185.29052,546.86346 C 185.41437,547.00747 185.51576,547.17429 185.51581,547.23417 L 185.51593,547.34302 L 185.87332,547.71872 L 186.23071,548.09443 L 186.35835,548.46602 C 186.42858,548.67039 186.56879,549.10122 186.66997,549.42341 L 186.85392,550.00919 L 186.94598,550.78448 L 187.03807,551.55976 L 186.98996,551.74371 L 186.94184,551.92765 L 189.34609,552.14562 L 189.61646,552.37938 L 190.67913,552.41168 L 191.74183,552.444 L 191.91317,552.76824 L 190.69792,553.10905 L 188.535,553.01651 L 186.87983,553.13429 L 186.79611,553.37418 C 186.75005,553.5061 186.58621,553.8129 186.43201,554.05593 C 186.2778,554.29897 186.10596,554.64368 186.05014,554.82196 C 185.9943,555.00025 185.86463,555.3286 185.76198,555.55165 L 185.57534,555.95721 L 185.28514,556.24483 L 184.99497,556.53247 L 184.87249,556.80916 L 184.75002,557.08584 L 184.60813,557.13088 C 184.53009,557.15564 184.38093,557.25538 184.27666,557.35253 L 184.08708,557.52915 L 184.16448,557.82462 C 184.20704,557.98715 184.28676,558.44456 184.34166,558.8411 C 184.39656,559.23762 184.48692,559.78511 184.54249,560.05773 C 184.66998,560.68322 184.70726,561.47398 184.64339,562.19811 L 184.59372,562.76137 L 184.4833,562.76137 L 184.37289,562.76137 L 184.27163,562.42342 z M 177.94574,558.16518 L 177.94574,558.07505 L 178.22057,558.07505 L 178.49541,558.07505 L 178.74748,557.9447 L 178.99957,557.81434 L 179.19057,557.86429 L 179.38153,557.91423 L 180.03799,557.71503 L 180.69443,557.51584 L 180.75041,557.4259 L 180.80638,557.33597 L 180.72276,556.96372 L 180.63912,556.59148 L 180.73436,556.55972 L 180.82961,556.52798 L 180.82961,556.34681 L 180.82961,556.16563 L 180.64937,556.11849 C 180.55023,556.09257 180.46882,556.04568 180.46846,556.01429 C 180.46806,555.98289 180.42561,555.69735 180.37408,555.37976 C 180.21616,554.40648 180.09661,553.53234 180.09764,553.35844 L 180.09862,553.19296 L 179.67397,553.25137 C 179.29265,553.30382 178.43643,553.31684 176.54885,553.29891 C 176.20188,553.2956 175.70508,553.31913 175.44485,553.35121 L 174.97173,553.40952 L 174.97173,553.47478 C 174.97173,553.51069 174.87144,553.58574 174.74891,553.64158 L 174.52609,553.74311 L 174.46318,553.99377 L 174.40026,554.24444 L 174.14923,554.49547 L 173.89819,554.74651 L 173.94151,554.85935 L 173.98481,554.9722 L 173.8249,555.1514 C 173.5709,555.43601 173.07917,556.15904 173.07917,556.24788 C 173.07917,556.3467 173.57601,556.72323 173.70637,556.72323 L 173.80015,556.72323 L 173.80015,556.81185 L 173.80015,556.90044 L 174.24995,557.12838 L 174.69975,557.35631 L 175.28335,557.49165 L 175.86696,557.627 L 176.16284,557.79885 L 176.45873,557.97071 L 176.77415,557.99567 C 176.94764,558.00938 177.13013,558.04925 177.1797,558.08426 C 177.26197,558.14237 177.54874,558.21204 177.83308,558.24303 L 177.94574,558.2553 L 177.94574,558.16518 z M 184.07909,554.92958 L 184.34435,554.66431 L 184.34435,554.43208 L 184.34435,554.19984 L 184.42701,554.19984 L 184.50965,554.19984 L 184.60981,553.73284 C 184.66489,553.47601 184.75433,553.21239 184.80856,553.14706 L 184.90715,553.02826 L 183.947,553.02826 L 182.98688,553.02826 L 182.93108,553.17367 L 182.87527,553.31908 L 183.08035,553.78199 L 183.28541,554.24489 L 183.28034,554.42513 C 183.27756,554.52428 183.3183,554.83733 183.37092,555.12083 L 183.46659,555.63626 L 183.6402,555.41554 C 183.7357,555.29417 183.9332,555.07547 184.07909,554.92958 z M 171.64049,553.89901 C 171.71497,553.81229 171.84142,553.66152 171.87669,553.59956 L 171.82811,553.47886 L 171.50959,553.47886 L 171.19108,553.47886 L 171.27323,553.69491 L 171.35536,553.91094 L 171.30104,553.96526 L 171.49615,554.01155 L 171.33789,554.0196 C 171.38802,554.0196 171.566,553.98576 171.64049,553.89901 z M 178.66671,551.54207 L 179.7031,551.52901 L 179.68355,551.35489 C 179.67279,551.25912 179.64342,550.81578 179.61829,550.36968 C 179.55871,549.31233 179.52128,549.03449 179.41209,548.83938 L 179.32197,548.67834 L 179.39661,548.35244 L 179.47126,548.02652 L 179.438,547.30555 C 179.4197,546.90902 179.37588,546.51258 179.34062,546.42456 L 179.2765,546.26455 L 179.13959,546.37818 C 179.0643,546.44068 178.90085,546.65462 178.77637,546.85362 C 178.65192,547.05262 178.46042,547.30645 178.35081,547.4177 C 178.1464,547.62521 177.86246,548.1527 177.66556,548.69072 L 177.55441,548.99445 L 177.02862,549.637 L 176.50284,550.27957 L 176.55054,550.40525 L 176.59826,550.53093 L 176.47005,550.6756 C 176.34382,550.81805 175.96306,551.46634 175.96306,551.53882 C 175.96306,551.60953 176.73104,551.64976 177.1797,551.60254 C 177.42754,551.57647 178.09669,551.54926 178.66671,551.54207 z M 185.23733,551.52969 C 185.25757,551.51209 185.27127,551.30931 185.26781,551.07908 L 185.26147,550.66052 L 185.17683,550.60521 C 185.13028,550.57479 185.07153,550.43866 185.0463,550.30266 L 185.00041,550.05541 L 185.11707,549.95858 L 185.23372,549.86176 L 185.03688,549.62006 C 184.92861,549.48711 184.65114,549.18819 184.42032,548.95581 L 184.00062,548.53325 L 183.94208,548.2667 L 183.88353,548.00015 L 183.7084,547.84165 L 183.53325,547.68316 L 183.53325,547.48744 L 183.53325,547.2917 L 183.25053,547.33321 L 182.96781,547.37469 L 182.58602,546.97964 C 182.16656,546.54559 181.94897,546.35927 181.86149,546.35927 C 181.83005,546.35927 181.69973,546.27701 181.57189,546.17644 L 181.33947,545.99363 L 181.25611,546.07697 L 181.17276,546.16032 L 181.3084,546.46256 L 181.44406,546.76483 L 181.50039,547.80122 L 181.55673,548.83762 L 181.67991,549.37834 C 181.74766,549.67574 181.86618,550.08129 181.94326,550.27957 L 182.08341,550.64004 L 182.08875,550.95546 L 182.09408,551.27089 L 182.17078,551.39192 L 182.2475,551.51295 L 182.73266,551.57969 L 183.21783,551.64642 L 184.20917,551.60408 C 184.75441,551.58079 185.21707,551.54732 185.23733,551.52969 z M 173.46111,551.2744 C 173.51457,551.17888 173.71411,550.9317 173.90453,550.72512 C 174.09496,550.51854 174.25076,550.30337 174.25076,550.24695 L 174.25076,550.14438 L 174.34087,550.14438 L 174.431,550.14438 L 174.431,550.02927 L 174.431,549.91418 L 174.72127,549.6012 L 175.01154,549.28822 L 175.21109,548.86379 C 175.32086,548.63036 175.57721,548.19411 175.78078,547.89433 L 176.1509,547.3493 L 176.12524,547.2373 L 176.09958,547.12531 L 176.36586,546.76483 C 176.51232,546.56655 176.70421,546.3322 176.79231,546.24401 C 176.8804,546.15583 177.0155,545.96182 177.09251,545.81288 L 177.23256,545.54206 L 176.80058,545.59717 C 176.56299,545.62749 176.12527,545.71277 175.82789,545.78671 C 175.53047,545.86063 175.16549,545.94079 175.01678,545.96484 C 174.34846,546.07291 174.39156,546.04922 173.66492,546.70831 C 173.51619,546.84322 173.32355,546.98081 173.23684,547.01409 L 173.07917,547.0746 L 173.07917,547.2126 L 173.07917,547.35061 L 172.89892,547.35061 L 172.71868,547.35061 L 172.71868,547.47845 L 172.71868,547.60627 L 172.38582,547.97707 L 172.05296,548.34787 L 172.02433,548.53549 C 172.00858,548.63869 171.93659,548.82997 171.86435,548.96061 C 171.79212,549.09123 171.66802,549.36032 171.58857,549.55859 L 171.44413,549.91908 L 171.39977,550.68678 L 171.35541,551.45449 L 172.35968,551.45128 L 173.36393,551.44806 L 173.46111,551.2744 z"
       sodipodi:nodetypes="cssccccccccccccccccccccccccccccccccccccccccccccccccccccccccccccccccccccccccsscccccccccccccccccccccccccccccccccccccccccccccccsscccccccccccccccccccccccccssccccccccccccccccccccccccccccccccccccccccccccccccccccccccccccccccssccccccccccssccccccccccccccccccccccccsscccsccccccccccccscccccccccccscccccccccccccccccccccccccccccccccccccsccccccccsscccccccsscccccccccccccccccccccsccccccccccccccccccccsccccccccccccccscccssscccccccccccsccccccc" />
    <path
       id="path3267"
       style="font-size:9.46130657px;font-style:normal;font-variant:normal;font-weight:normal;font-stretch:normal;text-align:center;line-height:125%;text-anchor:middle;fill:#000000;fill-opacity:1;stroke:none;stroke-width:1px;stroke-linecap:butt;stroke-linejoin:round;stroke-opacity:1;font-family:Rachana;-inkscape-font-specification:Rachana"
       d="M 105.67615,536.16513 C 108.36535,536.87378 110.51426,538.96282 110.57289,542.04642 C 110.67315,547.3196 107.21237,549.4221 104.92035,549.51963 L 104.94999,562.40025 L 105.32466,562.67274 C 107.77238,562.37138 110.22723,562.56475 112.68177,562.60461 C 112.18222,555.04315 111.93244,549.00305 111.93243,544.48432 C 111.93244,543.98478 112.02327,543.3944 112.20492,542.71316 C 114.70271,542.71318 123.46493,542.87213 125.48586,543.19001 C 125.57669,542.87213 125.6221,542.71318 125.6221,542.71316 C 125.6221,538.33071 125.6221,536.13947 125.6221,536.13945 L 125.48586,535.93508 C 124.23697,535.93511 116.01972,535.94646 113.83983,535.96914 C 111.41018,535.99188 109.51964,536.1282 108.54323,536.1282 C 107.40189,536.1282 106.5807,536.11273 105.67615,536.16513 z M 97.323308,543.0033 C 97.324034,542.07649 97.795367,539.75185 98.738603,538.49295 C 100.16285,536.59206 101.87452,536.08246 102.29835,535.94408 C 100.49226,535.92222 96.934351,535.88714 95.798637,535.74765 L 95.26772,536.05138 C 95.267741,537.50466 95.400377,540.8007 95.28682,542.59454 C 95.249011,542.75211 95.352633,542.91143 95.522086,543.07249 C 95.790128,543.32726 96.842092,543.1145 97.323308,543.0033 z"
       sodipodi:nodetypes="csccccsccsccssccsccccsc" />
    <path
       id="path3269"
       style="font-size:9.46130657px;font-style:normal;font-variant:normal;font-weight:normal;font-stretch:normal;text-align:center;line-height:125%;text-anchor:middle;fill:#b3a81d;fill-opacity:1;stroke:#000000;stroke-width:0.30000001;stroke-linecap:butt;stroke-linejoin:round;stroke-miterlimit:4;stroke-dasharray:none;stroke-opacity:1;font-family:Rachana;-inkscape-font-specification:Rachana"
       d="M 103.8278,549.44842 C 112.65566,549.56773 112.90785,536.43982 104.27754,535.92103 C 95.680291,535.40423 94.99994,549.32911 103.8278,549.44842 z M 103.41726,537.80842 L 103.21289,542.13413 L 99.97713,544.55244 C 99.72737,543.89395 99.60248,543.22409 99.60246,542.54286 C 99.60248,541.27128 99.96579,540.19269 100.6924,539.30709 C 101.41905,538.42154 102.32733,537.92198 103.41726,537.80842 M 105.32466,538.08091 C 106.21025,538.44425 106.94823,539.08005 107.5386,539.98831 C 108.10629,540.89661 108.39013,541.89573 108.39012,542.98565 C 108.39013,543.55335 108.31066,544.10967 108.1517,544.65462 L 105.12029,542.40662 L 105.32466,538.08091 M 103.07665,544.65462 L 102.94041,547.54978 C 102.19109,547.30002 101.54394,546.85723 100.99895,546.22142 L 103.07665,544.65462 M 104.98405,544.65462 L 107.23206,546.28954 C 106.59627,547.0616 105.80152,547.52709 104.84781,547.68603 L 104.98405,544.65462" />
  </g>
</svg>
