<?xml version="1.0" standalone="no"?>
<!--Created with Inkscape (http://www.inkscape.org/)-->
<svg xmlns="http://www.w3.org/2000/svg" xmlns:xlink="http://www.w3.org/1999/xlink" viewBox="0 0 48 48">
  <defs>
    <linearGradient id="i">
      <stop offset="0" stop-color="black" stop-opacity=".59227467"/>
      <stop offset="1" stop-color="black" stop-opacity="0"/>
    </linearGradient>
    <linearGradient id="h">
      <stop offset="0" stop-color="white" stop-opacity="1"/>
      <stop offset="1" stop-color="white" stop-opacity="0"/>
    </linearGradient>
    <linearGradient id="g">
      <stop offset="0" stop-color="white" stop-opacity="1"/>
      <stop offset="1" stop-color="white" stop-opacity="0"/>
    </linearGradient>
    <linearGradient id="f">
      <stop offset="0" stop-color="black" stop-opacity="0"/>
      <stop offset="1" stop-color="black" stop-opacity=".37768242"/>
    </linearGradient>
    <linearGradient id="e">
      <stop offset="0" stop-color="#ededed" stop-opacity="1"/>
      <stop offset="1" stop-color="#b3b3b3" stop-opacity="1"/>
    </linearGradient>
    <linearGradient id="b">
      <stop offset="0" stop-color="#000" stop-opacity=".7028113"/>
      <stop offset="1" stop-color="#000" stop-opacity="0"/>
    </linearGradient>
    <linearGradient id="a">
      <stop offset="0.0000000" stop-color="#000" stop-opacity=".26041666"/>
      <stop offset="1" stop-color="#000" stop-opacity="0"/>
    </linearGradient>
    <linearGradient id="c">
      <stop offset="0" stop-color="#fcfcfc" stop-opacity="1"/>
      <stop offset="1.0000000" stop-color="#e7e7e7" stop-opacity="1"/>
    </linearGradient>
    <linearGradient id="d">
      <stop offset="0" stop-color="#292929" stop-opacity="1"/>
      <stop offset="1" stop-color="#7b7b7b" stop-opacity="1"/>
    </linearGradient>
    <radialGradient xlink:href="#a" id="p" gradientUnits="userSpaceOnUse" gradientTransform="matrix(1,0,0,0.181538,-1.053844e-15,78.11116)" cx="60.952084" cy="95.436562" fx="60.952084" fy="95.436562" r="54.272404"/>
    <radialGradient xlink:href="#a" id="q" gradientUnits="userSpaceOnUse" gradientTransform="matrix(1,0,0,0.181538,2.589942e-15,78.11116)" cx="60.952084" cy="95.436562" fx="60.952084" fy="95.436562" r="54.272404"/>
    <linearGradient xlink:href="#b" gradientUnits="userSpaceOnUse" x1="103.20295" y1="121.62363" x2="106.50923" y2="78.405907" gradientTransform="matrix(0.377207,0,0,0.397445,0.251964,7.082558)"/>
    <linearGradient xlink:href="#c" id="t" gradientUnits="userSpaceOnUse" gradientTransform="matrix(0.379391,0,0,0.444929,1.028486,-4.375463e-2)" x1="68.487091" y1="32.354244" x2="68.014763" y2="43.453873"/>
    <linearGradient xlink:href="#d" id="s" gradientUnits="userSpaceOnUse" x1="61.453056" y1="47.008877" x2="59.783138" y2="27.470812" gradientTransform="matrix(0.434945,0,0,0.466639,-1.763496,-1.065958)"/>
    <linearGradient xlink:href="#d" id="r" gradientUnits="userSpaceOnUse" gradientTransform="matrix(0.423124,0,0,0.455336,-8.706461e-2,1.627174)" x1="61.453056" y1="47.008877" x2="59.783138" y2="27.470812"/>
    <linearGradient xlink:href="#e" id="w" x1="18.035137" y1="66.88092" x2="18.035137" y2="93.265663" gradientUnits="userSpaceOnUse" gradientTransform="matrix(0.41361,0,0,0.414188,-2.245099,1.051305)"/>
    <radialGradient xlink:href="#f" id="x" cx="79.820328" cy="66.749794" fx="79.820328" fy="66.749794" r="18.412737" gradientTransform="matrix(0.821624,-5.437753e-16,7.490169e-16,0.994727,-35.59557,-40.39477)" gradientUnits="userSpaceOnUse"/>
    <linearGradient xlink:href="#g" id="y" x1="27" y1="60" x2="54.294689" y2="107.27579" gradientUnits="userSpaceOnUse" gradientTransform="matrix(0.419358,0,0,0.421947,-2.434193,0.390866)"/>
    <linearGradient xlink:href="#h" x1="73.050751" y1="72.5" x2="91.275856" y2="72.5" gradientUnits="userSpaceOnUse" gradientTransform="matrix(0.403946,0,0,0.424232,-1.498757,0.33621)"/>
    <linearGradient xlink:href="#i" id="v" x1="65.25" y1="64.532089" x2="62.5" y2="42" gradientUnits="userSpaceOnUse" gradientTransform="matrix(0.410181,0,0,0.399836,-2.38946,1.991784)"/>
    <linearGradient xlink:href="#i" id="u" gradientUnits="userSpaceOnUse" x1="82.25" y1="3.5320892" x2="84" y2="22.526756" gradientTransform="matrix(0.410975,0,0,0.410975,-1.986065,1.375303)"/>
    <linearGradient gradientTransform="matrix(0.1655,0,0,0.1655,13.91725,26.85921)" gradientUnits="userSpaceOnUse" y2="86.99852" x2="111.17001" y1="141.30928" x1="17.101027" id="z" xlink:href="#j"/>
    <radialGradient r="57.5" fy="145.41862" fx="50.669872" cy="114" cx="52.5" gradientTransform="matrix(0.152547,0,0,3.378826e-2,14.76274,42.2053)" gradientUnits="userSpaceOnUse" id="A" xlink:href="#k"/>
    <radialGradient gradientTransform="matrix(0.194035,0,0,0.205941,13.12477,25.02648)" r="49.918098" fy="76.752853" fx="67.655052" cy="76.752853" cx="67.655052" gradientUnits="userSpaceOnUse" id="B" xlink:href="#l"/>
    <linearGradient id="l">
      <stop offset="0" stop-color="#f85151" stop-opacity="1"/>
      <stop offset="1" stop-color="#d00303" stop-opacity="1"/>
    </linearGradient>
    <linearGradient id="n">
      <stop offset="0" stop-color="#fff" stop-opacity="1"/>
      <stop offset="1" stop-color="#fff" stop-opacity=".27843139"/>
    </linearGradient>
    <linearGradient id="m">
      <stop offset="0" stop-color="#fff" stop-opacity="1"/>
      <stop offset="1" stop-color="#fff" stop-opacity="0"/>
    </linearGradient>
    <linearGradient id="k">
      <stop offset="0" stop-color="#000" stop-opacity="1"/>
      <stop offset="1" stop-color="#000" stop-opacity="0"/>
    </linearGradient>
    <linearGradient id="j">
      <stop offset="0" stop-color="#000" stop-opacity=".19313304"/>
      <stop offset="1" stop-color="#000" stop-opacity="0"/>
    </linearGradient>
    <linearGradient id="o">
      <stop offset="0" stop-color="#000" stop-opacity=".36909872"/>
      <stop offset="1" stop-color="#000" stop-opacity="0"/>
    </linearGradient>
    <radialGradient xlink:href="#m" id="E" gradientUnits="userSpaceOnUse" gradientTransform="matrix(0.177259,0,0,0.132754,11.5879,26.97802)" cx="62.970509" cy="48.729244" fx="62.970509" fy="33.755856" r="32.085793"/>
    <linearGradient xlink:href="#n" id="D" gradientUnits="userSpaceOnUse" gradientTransform="matrix(0.159363,0,0,0.178972,14.17579,25.07877)" x1="75.787148" y1="3.4719357" x2="57.994637" y2="98.832764"/>
    <linearGradient xlink:href="#o" id="C" gradientUnits="userSpaceOnUse" gradientTransform="matrix(0.175919,0,0,0.169323,13.89709,25.73365)" x1="109.38406" y1="63.299728" x2="66.135506" y2="63.299728"/>
  </defs>
  <metadata/>
  <path style="marker:none" d="M 115.22449 95.436562 A 54.272404 9.8525286 0 1 1  6.6796799,95.436562 A 54.272404 9.8525286 0 1 1  115.22449 95.436562 z" transform="matrix(0.392676,0,0,0.413744,-2.62295,1.541628)" color="#000" fill="url(#p)" fill-opacity="1" fill-rule="evenodd" stroke="none" stroke-width="1.5" stroke-linecap="round" stroke-linejoin="round" marker-start="none" marker-mid="none" marker-end="none" stroke-miterlimit="4" stroke-dasharray="none" stroke-dashoffset="0" stroke-opacity="1" visibility="visible" display="inline" overflow="visible"/>
  <path style="marker:none" d="M 115.22449 95.436562 A 54.272404 9.8525286 0 1 1  6.6796799,95.436562 A 54.272404 9.8525286 0 1 1  115.22449 95.436562 z" transform="matrix(0.392676,0,0,0.413744,2.754102,3.199832)" color="#000" fill="url(#q)" fill-opacity="1" fill-rule="evenodd" stroke="none" stroke-width="1.5" stroke-linecap="round" stroke-linejoin="round" marker-start="none" marker-mid="none" marker-end="none" stroke-miterlimit="4" stroke-dasharray="none" stroke-dashoffset="0" stroke-opacity="1" visibility="visible" display="inline" overflow="visible"/>
  <path d="M 37.861675,10.501487 L 19.154757,14.154258 L 14.501487,27.076423 L 16.680707,26.893129 L 15.744922,29.498513 L 34.25545,27.979797 L 38.498514,12.923574 L 37.861675,10.501487 z " fill="url(#r)" fill-opacity="1" fill-rule="evenodd" stroke="#474747" stroke-width="1.00297451" stroke-linecap="round" stroke-linejoin="round" stroke-miterlimit="4" stroke-dasharray="none" stroke-opacity="1"/>
  <path d="M 14.506183,27.493817 L 19.299929,14.246579 L 37.893843,10.506183 L 33.535895,25.935316 L 14.506183,27.493817 z " fill="url(#s)" fill-opacity="1" fill-rule="evenodd" stroke="#474747" stroke-width="1.01236653" stroke-linecap="round" stroke-linejoin="round" stroke-miterlimit="4" stroke-dasharray="none" stroke-opacity="1"/>
  <path d="M 17.311528,24.118147 C 19.282683,19.354724 20.578332,11.361266 22.818281,10.38056 C 26.342469,8.3841264 31.999512,8.4673581 36.688472,7.3115277 C 30.745139,9.9033896 32.148843,19.430238 29.34144,24.018535 C 25.667922,23.98351 20.985042,24.153174 17.311528,24.118147 z " fill="url(#t)" fill-opacity="1" fill-rule="evenodd" stroke="#bfbfbf" stroke-width=".6230554" stroke-linecap="round" stroke-linejoin="round" stroke-miterlimit="4" stroke-dasharray="none" stroke-opacity="1"/>
  <path d="M 17.986692,24.11483 C 19.867716,19.420194 21.104121,11.542168 23.241649,10.575624 C 26.604692,8.6080194 32.003071,8.6900488 36.477629,7.5509084 C 30.806055,10.105344 32.145572,19.494615 29.466537,24.016653 C 25.960992,23.982134 21.492236,24.149348 17.986692,24.11483 z " fill="url(#u)" fill-opacity="1" fill-rule="evenodd" stroke="none" stroke-width="1.53253126" stroke-linecap="round" stroke-linejoin="round" stroke-miterlimit="4" stroke-dasharray="none" stroke-opacity="1"/>
  <path d="M 17.54475,24.114958 C 19.422144,19.54757 20.656162,11.883077 22.789565,10.942731 C 26.146117,9.0284581 31.534078,9.1082641 36,8 C 30.339372,10.485198 31.676304,19.619973 29.00244,24.019442 C 25.50366,23.985859 21.043528,24.14854 17.54475,24.114958 z " fill="url(#v)" fill-opacity="1" fill-rule="evenodd" stroke="none" stroke-width="1.53253126" stroke-linecap="round" stroke-linejoin="round" stroke-miterlimit="4" stroke-dasharray="none" stroke-opacity="1"/>
  <path d="M 3.9333115,25.632811 C 12.746928,24.591279 21.560542,23.549746 30.374158,22.508209 C 32.013492,22.452415 41.373548,23.01038 42.748481,24.182107 C 45.233914,26.711542 44.916621,38.391599 42.748481,39.805103 C 38.888113,42.092762 34.974867,44.603602 30.374158,44.492005 C 21.560542,43.004097 12.746928,41.516191 3.9333115,40.028297 C 2.1353337,39.414531 1.9238072,26.023385 3.9333115,25.632811 z " fill="url(#w)" fill-opacity="1" fill-rule="evenodd" stroke="#a0a0a0" stroke-width="1.00881135" stroke-linecap="butt" stroke-linejoin="miter" stroke-miterlimit="4" stroke-dasharray="none" stroke-opacity="1"/>
  <path d="M 30.177294,23.504595 C 28.113077,24.256338 27.997111,43.268164 30.455614,43.437929 C 33.725894,43.886534 38.039875,41.643429 42.145117,39.000215 C 43.606302,38.393965 44.336893,27.202689 41.936374,24.959583 C 39.234333,23.928966 34.653629,23.625842 30.177294,23.504595 z " opacity=".81171546" fill="url(#x)" fill-opacity="1" fill-rule="evenodd" stroke="url(#linearGradient4931)" stroke-width="1.00918937" stroke-linecap="butt" stroke-linejoin="miter" stroke-miterlimit="4" stroke-dasharray="none" stroke-opacity="1"/>
  <path d="M 7.295164,40.341401 L 7,31.950413 C 7.1011085,27.587805 22.646952,28.566465 22.643701,31.630294 L 23,43 L 7.295164,40.341401 z " fill="#000" fill-opacity=".63453818" fill-rule="evenodd" stroke="none" stroke-width=".25pt" stroke-linecap="butt" stroke-linejoin="miter" stroke-opacity="1"/>
  <path d="M 7.8003702,40.013898 L 17.923468,38 L 22.737249,38.484834 L 22.808039,42.475339 L 7.8003702,40.013898 z " fill="#000" fill-opacity=".34136544" fill-rule="evenodd" stroke="none" stroke-width=".25pt" stroke-linecap="butt" stroke-linejoin="miter" stroke-opacity="1"/>
  <path d="M 17.888073,37.954633 L 17.781886,29.483065 C 19.551659,29.739212 22.277108,30.313979 22.524875,31.657185 L 22.701853,38.441942 L 17.888073,37.954633 z " fill="#000" fill-opacity=".48594378" fill-rule="evenodd" stroke="none" stroke-width=".25pt" stroke-linecap="butt" stroke-linejoin="miter" stroke-opacity="1"/>
  <path d="M 4.6177603,26.557343 C 12.915719,25.631186 21.895132,24.441313 30.193091,23.515155 C 31.736508,23.465541 41.073134,23.961696 42.36762,25.003622 C 43.949732,26.947824 43.771128,37.276867 42.36762,38.790482 C 38.733114,40.824724 34.734304,43.584855 30.402768,43.485626 C 22.104812,42.162539 12.915719,40.312027 4.6177603,38.988943 C 3.4256183,38.846158 2.8851588,27.032902 4.6177603,26.557343 z " fill="none" fill-opacity="1" fill-rule="evenodd" stroke="url(#y)" stroke-width="1.02354527" stroke-linecap="butt" stroke-linejoin="miter" stroke-miterlimit="4" stroke-dasharray="none" stroke-opacity="1"/>
  <path d="M 34.62565,45.228122 C 33.231409,46.431204 28.346899,47.407612 23.722729,47.407612 C 19.098559,47.407612 16.477171,46.431204 17.871413,45.228122 C 19.265656,44.025046 24.150164,43.048633 28.774334,43.048633 C 33.398504,43.048633 36.019894,44.025046 34.62565,45.228122 z " fill="url(#z)" fill-opacity="1" stroke="none" stroke-width="3.00000095" stroke-linecap="round" stroke-linejoin="miter" stroke-miterlimit="4" stroke-dashoffset="0" stroke-opacity="1"/>
  <path d="M 31.542971,46.057176 C 31.542971,47.129616 27.613345,48 22.771485,48 C 17.929625,48 14,47.129616 14,46.057176 C 14,44.984737 17.929625,44.114352 22.771485,44.114352 C 27.613345,44.114352 31.542971,44.984737 31.542971,46.057176 z " opacity=".43096236" fill="url(#A)" fill-opacity="1" stroke="none" stroke-width="2" stroke-linecap="round" stroke-linejoin="miter" stroke-miterlimit="4" stroke-dashoffset="0" stroke-opacity="1"/>
  <path d="M 33.499985,37.499982 C 33.499985,43.019981 29.278986,47.49998 24.078114,47.49998 C 18.877242,47.49998 14.656243,43.019981 14.656243,37.499982 C 14.656243,31.979983 18.877242,27.499984 24.078114,27.499984 C 29.278986,27.499984 33.499985,31.979983 33.499985,37.499982 z " fill="url(#B)" fill-opacity="1" stroke="#8c0404" stroke-width=".99999946" stroke-linecap="round" stroke-linejoin="miter" stroke-miterlimit="4" stroke-dasharray="none" stroke-dashoffset="0" stroke-opacity="1"/>
  <path d="M 32.000011,37.5 C 32.000011,42.192 28.26201,45.999999 23.656258,45.999999 C 19.050508,45.999999 15.312505,42.192 15.312505,37.5 C 15.312505,32.807998 19.050508,28.999998 23.656258,28.999998 C 28.26201,28.999998 32.000011,32.807998 32.000011,37.5 z " fill="none" fill-opacity="1" stroke="url(#C)" stroke-width="1.99999976" stroke-linecap="round" stroke-linejoin="miter" stroke-miterlimit="4" stroke-dasharray="none" stroke-dashoffset="0" stroke-opacity="1"/>
  <path d="M 31.499987,37.515614 C 31.499987,42.474987 27.915987,46.499985 23.499987,46.499985 C 19.083986,46.499985 15.499986,42.474987 15.499986,37.515614 C 15.499986,32.556239 19.083986,28.531241 23.499987,28.531241 C 27.915987,28.531241 31.499987,32.556239 31.499987,37.515614 z " fill="none" fill-opacity="1" stroke="url(#D)" stroke-width=".99999911" stroke-linecap="round" stroke-linejoin="miter" stroke-miterlimit="4" stroke-dasharray="none" stroke-dashoffset="0" stroke-opacity="1"/>
  <path d="M 28.4375,33.447009 C 28.4375,35.798259 25.8895,37.706521 22.75,37.706521 C 19.6105,37.706521 17.0625,35.798259 17.0625,33.447009 C 17.0625,31.09576 19.6105,29.1875 22.75,29.1875 C 25.8895,29.1875 28.4375,31.09576 28.4375,33.447009 z " opacity=".5690377" fill="url(#E)" fill-opacity="1" stroke="none" stroke-width="2" stroke-linecap="round" stroke-linejoin="miter" stroke-miterlimit="4" stroke-dashoffset="0" stroke-opacity=".27843137"/>
  <path d="M 16.70786,35.909093 L 27.5625,35.75 L 27.5625,40.125 L 16.625,39.84659 L 16.70786,35.909093 z " fill="#fff" fill-opacity="1" stroke="none" stroke-width="2" stroke-linecap="round" stroke-linejoin="miter" stroke-miterlimit="4" stroke-dashoffset="0" stroke-opacity="1"/>
</svg>
