<?xml version="1.0" standalone="no"?>
<!--Created with Inkscape (http://www.inkscape.org/)-->
<svg xmlns="http://www.w3.org/2000/svg" xmlns:xlink="http://www.w3.org/1999/xlink" viewBox="0 0 48.000000 48.000000">
  <metadata/>
  <defs>
    <linearGradient id="j">
      <stop offset="0" stop-color="#cccdbc" stop-opacity="1"/>
      <stop offset="1" stop-color="#b9baa4" stop-opacity="1"/>
    </linearGradient>
    <linearGradient id="h">
      <stop offset="0" stop-color="#fff" stop-opacity="1"/>
      <stop offset="1" stop-color="#fff" stop-opacity="0"/>
    </linearGradient>
    <linearGradient id="i">
      <stop offset="0.0000000" stop-color="#fffff3" stop-opacity="1"/>
      <stop offset="1.0000000" stop-color="#fffff3" stop-opacity="0"/>
    </linearGradient>
    <linearGradient id="k">
      <stop offset="0.0000000" stop-color="#cfcfc4" stop-opacity="1"/>
      <stop offset="0.32673267" stop-color="#cfcfc4" stop-opacity="1"/>
      <stop offset="1" stop-color="#cfcfc4" stop-opacity="0"/>
    </linearGradient>
    <linearGradient id="l">
      <stop offset="0.0000000" stop-color="#59594a" stop-opacity="1"/>
      <stop offset="1.0000000" stop-color="#a2a491" stop-opacity="1"/>
    </linearGradient>
    <linearGradient y2="31.490198" x2="28.783722" y1="29.943159" x1="28.632685" gradientTransform="matrix(0.810817,0,0,1.233324,0.416832,-1.320616)" gradientUnits="userSpaceOnUse" id="s" xlink:href="#a"/>
    <linearGradient id="a">
      <stop offset="0.0000000" stop-color="#000" stop-opacity=".502994"/>
      <stop offset="1.0000000" stop-color="#000" stop-opacity="0"/>
    </linearGradient>
    <linearGradient y2="22.227985" x2="38.105118" y1="22.227985" x1="36.373066" gradientTransform="matrix(1.138691,0,0,1.732051,-20.00087,-1.092062)" gradientUnits="userSpaceOnUse" id="r" xlink:href="#b"/>
    <linearGradient id="b">
      <stop offset="0.0000000" stop-color="#fff" stop-opacity=".44910181"/>
      <stop offset="1.0000000" stop-color="#fff" stop-opacity="0"/>
    </linearGradient>
    <linearGradient xlink:href="#c" id="q" gradientTransform="matrix(0.983801,0,0,1.016466,0.416832,0.407937)" x1="23.100046" y1="38.296745" x2="23.100046" y2="43.915466" gradientUnits="userSpaceOnUse"/>
    <linearGradient id="c">
      <stop offset="0.0000000" stop-color="#7a7a7a" stop-opacity="1"/>
      <stop offset="0.19801980" stop-color="#c5c5c5" stop-opacity="1"/>
      <stop offset="0.59900987" stop-color="#626262" stop-opacity="1"/>
      <stop offset="1.0000000" stop-color="#888" stop-opacity="1"/>
    </linearGradient>
    <linearGradient y2="117.82710" x2="15.343062" y1="117.82710" x1="1.6422368" gradientTransform="matrix(2.740165,0,0,0.147685,0.416832,24.59382)" gradientUnits="userSpaceOnUse" id="p" xlink:href="#d"/>
    <linearGradient id="d">
      <stop offset="0.0000000" stop-color="#fff" stop-opacity="0"/>
      <stop offset="0.10827128" stop-color="#fff" stop-opacity=".70658684"/>
      <stop offset="0.92053902" stop-color="#fff" stop-opacity=".70658684"/>
      <stop offset="1.0000000" stop-color="#fff" stop-opacity="0"/>
    </linearGradient>
    <linearGradient y2="372.57819" x2="5.0856376" y1="372.57819" x1="0.61210024" gradientTransform="matrix(8.168597,0,0,0.228621,0.416832,-36.68298)" gradientUnits="userSpaceOnUse" id="o" xlink:href="#e"/>
    <linearGradient id="e">
      <stop offset="0.0000000" stop-color="#474747" stop-opacity="0"/>
      <stop offset="0.10000000" stop-color="#474747" stop-opacity="1"/>
      <stop offset="0.89999998" stop-color="#474747" stop-opacity="1"/>
      <stop offset="1.0000000" stop-color="#474747" stop-opacity="0"/>
    </linearGradient>
    <linearGradient y2="372.57819" x2="5.0856376" y1="372.57819" x1="0.61210024" gradientTransform="matrix(8.168597,0,0,0.22121,0.416832,-37.98308)" gradientUnits="userSpaceOnUse" id="n" xlink:href="#e"/>
    <linearGradient y2="117.82710" x2="15.343062" y1="117.82710" x1="1.6422368" gradientTransform="matrix(2.740165,0,0,0.364942,0.416832,-0.592062)" gradientUnits="userSpaceOnUse" id="m" xlink:href="#f"/>
    <linearGradient id="f">
      <stop offset="0.0000000" stop-color="#686868" stop-opacity="0"/>
      <stop offset="0.23762377" stop-color="#686868" stop-opacity="1"/>
      <stop offset="0.78109992" stop-color="#686868" stop-opacity="1"/>
      <stop offset="1.0000000" stop-color="#686868" stop-opacity="0"/>
    </linearGradient>
    <linearGradient gradientUnits="userSpaceOnUse" y2="8.1000004" x2="19.387241" y1="6.1438289" x1="19.489662" xlink:href="#g"/>
    <linearGradient id="g">
      <stop offset="0" stop-color="#000" stop-opacity="1"/>
      <stop offset="1" stop-color="#000" stop-opacity="0"/>
    </linearGradient>
    <linearGradient xlink:href="#h" id="x" gradientUnits="userSpaceOnUse" x1="25.850664" y1="37.625" x2="24.996323" y2="25.25" gradientTransform="translate(1.1887,-3.91109)"/>
    <linearGradient xlink:href="#i" id="w" gradientUnits="userSpaceOnUse" gradientTransform="matrix(0.806859,0,0,1.239374,1.1887,-3.91109)" x1="23.643002" y1="12.818464" x2="28.443289" y2="25.232374"/>
    <linearGradient xlink:href="#j" id="v" gradientUnits="userSpaceOnUse" x1="24.588383" y1="1.8991361" x2="24.588383" y2="40.858932" gradientTransform="translate(1.1887,-3.91109)"/>
    <linearGradient xlink:href="#k" id="u" gradientUnits="userSpaceOnUse" gradientTransform="matrix(0.750458,0,0,1.33252,1.1887,-3.91109)" x1="32.827568" y1="7.9206076" x2="60.071049" y2="7.8678756"/>
    <linearGradient xlink:href="#l" id="t" gradientUnits="userSpaceOnUse" gradientTransform="matrix(1.068312,0,0,0.936056,1.1887,-3.91109)" x1="24.983023" y1="22.828066" x2="24.983023" y2="8.3744106"/>
  </defs>
  <g display="inline">
    <g transform="translate(1.66126,1.35713)">
      <rect style="marker:none" width="36.542522" height="4" x="5.4168181" y="40.407959" color="#000" fill="url(#m)" fill-opacity="1" fill-rule="nonzero" stroke="none" stroke-width="1" stroke-linecap="butt" stroke-linejoin="miter" marker-start="none" marker-mid="none" marker-end="none" stroke-miterlimit="4" stroke-dashoffset="0" stroke-opacity="1" visibility="visible" display="block" overflow="visible"/>
      <rect style="marker:none" width="36.542522" height="0.98959237" x="5.4168181" y="43.940247" color="#000" fill="url(#n)" fill-opacity="1" fill-rule="nonzero" stroke="none" stroke-width="1" stroke-linecap="butt" stroke-linejoin="miter" marker-start="none" marker-mid="none" marker-end="none" stroke-miterlimit="4" stroke-dashoffset="0" stroke-opacity="1" visibility="visible" display="block" overflow="visible"/>
      <rect style="marker:none" width="36.542522" height="1.022747" x="5.4168181" y="39.885193" color="#000" fill="url(#o)" fill-opacity="1" fill-rule="nonzero" stroke="none" stroke-width="1" stroke-linecap="butt" stroke-linejoin="miter" marker-start="none" marker-mid="none" marker-end="none" stroke-miterlimit="4" stroke-dashoffset="0" stroke-opacity="1" visibility="visible" display="block" overflow="visible"/>
      <rect style="marker:none" width="36.542522" height="1.6187184" x="5.4168181" y="41.185669" color="#000" fill="url(#p)" fill-opacity="1" fill-rule="nonzero" stroke="none" stroke-width="1" stroke-linecap="butt" stroke-linejoin="miter" marker-start="none" marker-mid="none" marker-end="none" stroke-miterlimit="4" stroke-dashoffset="0" stroke-opacity="1" visibility="visible" display="block" overflow="visible"/>
      <path style="marker:none" d="M 21.882819,29.876698 C 21.099339,29.876698 20.476569,30.499468 20.476569,31.282948 L 20.476569,38.876698 L 17.414069,38.876698 C 16.630589,38.876698 16.007819,39.499468 16.007819,40.282948 L 16.007819,44.001698 C 16.007819,44.785168 16.630589,45.407948 17.414069,45.407948 L 29.601569,45.407948 C 30.385039,45.407948 31.007819,44.785168 31.007819,44.001698 L 31.007819,40.282948 C 31.007819,39.499468 30.385039,38.876698 29.601569,38.876698 L 27.007819,38.876698 L 27.007819,31.282948 C 27.007819,30.499468 26.385039,29.876698 25.601569,29.876698 L 21.882819,29.876698 z " color="#000" fill="url(#q)" fill-opacity="1" fill-rule="nonzero" stroke="#434343" stroke-width="1" stroke-linecap="butt" stroke-linejoin="miter" marker-start="none" marker-mid="none" marker-end="none" stroke-miterlimit="4" stroke-dashoffset="0" stroke-opacity="1" visibility="visible" display="block" overflow="visible"/>
      <rect style="marker:none" width="1.9722718" height="3" x="21.416819" y="35.907959" rx="0.29955584" ry="0.29955584" color="#000" fill="url(#r)" fill-opacity="1" fill-rule="nonzero" stroke="none" stroke-width="1" stroke-linecap="butt" stroke-linejoin="miter" marker-start="none" marker-mid="none" marker-end="none" stroke-miterlimit="4" stroke-dashoffset="0" stroke-opacity="1" visibility="visible" display="block" overflow="visible"/>
      <path style="marker:none" d="M 26.510579,35.507514 L 20.979329,35.507514 C 20.979329,35.507514 20.979329,37.195014 20.979329,37.679394 C 21.526199,35.898144 26.510579,35.507514 26.510579,35.507514 z " color="#000" fill="url(#s)" fill-opacity="1" fill-rule="nonzero" stroke="none" stroke-width="1" stroke-linecap="butt" stroke-linejoin="miter" marker-start="none" marker-mid="none" marker-end="none" stroke-miterlimit="4" stroke-dashoffset="0" stroke-opacity="1" visibility="visible" display="block" overflow="visible"/>
      <g transform="translate(-0.610968,0.736037)" fill="#fff" fill-opacity=".72023806">
        <rect style="marker:none" width="10" height="1" x="20" y="40" rx="0.5" ry="0.5" color="#000" fill-rule="nonzero" stroke="none" stroke-width="1.13999999" stroke-linecap="round" stroke-linejoin="round" marker-start="none" marker-mid="none" marker-end="none" stroke-miterlimit="4" stroke-dashoffset="0" stroke-opacity="1" visibility="visible" display="block" overflow="visible"/>
        <path style="marker:none" d="M 19 40.625 A 0.53125 0.53125 0 1 1  17.9375,40.625 A 0.53125 0.53125 0 1 1  19 40.625 z" transform="translate(6.25e-2,-9.375e-2)" color="#000" fill-rule="nonzero" stroke="none" stroke-width="1.13999999" stroke-linecap="round" stroke-linejoin="round" marker-start="none" marker-mid="none" marker-end="none" stroke-miterlimit="4" stroke-dashoffset="0" stroke-opacity="1" visibility="visible" display="block" overflow="visible"/>
      </g>
    </g>
    <path d="M 6.6073638,1.54502 C 6.1423872,1.54502 5.7922534,1.7802468 5.7922534,2.271743 L 5.7922534,35.292704 C 5.7922534,36.01985 6.2793584,36.504264 6.9413104,36.504264 L 44.678264,36.504264 C 45.344066,36.504264 45.608572,36.051498 45.608572,35.417704 L 45.608572,6.514822 C 45.608572,5.9718569 45.208285,5.678264 44.709514,5.678264 L 25.60019,5.678264 C 25.263177,5.678264 24.90351,5.479838 24.705709,5.206977 L 22.103478,2.006968 C 21.885613,1.706429 21.461403,1.545035 21.0902,1.545035 L 6.6073638,1.54502 z " fill="url(#t)" fill-opacity="1" fill-rule="evenodd" stroke="#555753" stroke-width="1" stroke-miterlimit="4" stroke-opacity="1"/>
    <path d="M 6.2512,3.99516 L 6.2512,32.24516 L 7.21995,27.87016 L 7.4387,5.24516 C 7.4387,4.4947374 7.9501657,4.12016 8.6756586,4.12016 L 20.28245,4.12016 C 21.844046,4.12016 23.297298,7.30766 25.600117,7.30766 C 31.571736,7.30766 44.938513,7.395248 44.9387,7.30766 L 44.9387,6.27641 L 25.40745,6.15141 C 23.551315,6.139531 22.277024,2.99516 20.84495,2.99516 L 7.4725336,2.99516 C 6.6572048,2.99516 6.2512,3.3493261 6.2512,3.99516 z " style="marker:none" color="#000" fill="url(#u)" fill-opacity="1" fill-rule="evenodd" stroke="none" stroke-width=".25pt" stroke-linecap="butt" stroke-linejoin="miter" marker-start="none" marker-mid="none" marker-end="none" stroke-miterlimit="4" stroke-dasharray="none" stroke-dashoffset="0" stroke-opacity="1" visibility="visible" display="inline" overflow="visible"/>
    <path d="M 8.8751537,12.385192 L 16.808499,12.385192 C 17.550233,12.385192 18.176469,12.004381 18.495666,11.503188 C 18.632409,11.288479 19.763648,9.37746 19.85334,9.246962 C 20.152127,8.812238 20.626257,8.488046 21.195322,8.488046 L 44.237555,8.488046 C 45.040392,8.488046 45.686718,9.131835 45.686718,9.93152 L 45.686718,35.004369 C 45.686718,35.804053 45.040392,36.447842 44.237555,36.447842 L 7.3166084,36.447842 C 6.5137725,36.447842 5.8674461,35.804053 5.8674461,35.004369 L 5.8674461,15.570814 C 5.8674461,13.596449 7.0077623,12.385192 8.8751537,12.385192 z " style="marker:none" color="#000" fill="url(#v)" fill-opacity="1" fill-rule="evenodd" stroke="#555753" stroke-width=".99999988" stroke-linecap="butt" stroke-linejoin="round" marker-start="none" marker-mid="none" marker-end="none" stroke-miterlimit="4" stroke-dashoffset="0" stroke-opacity="1" visibility="visible" display="inline" overflow="visible"/>
    <path d="M 21.6887,9.83891 C 21.042281,9.83891 20.67966,10.120608 20.3137,10.58891 C 19.94774,11.057212 19.532202,11.760725 19.2512,12.30766 C 18.970198,12.854595 18.682109,13.361829 18.40745,13.71391 C 18.132791,14.065991 17.917867,14.21391 17.6887,14.21391 C 16.4387,14.21391 8.5315301,14.21391 8.0315301,14.21391 C 7.5731968,14.21391 7.1960599,14.444429 6.8752801,14.74516 C 6.5545003,15.045891 6.2815301,15.45141 6.2815301,15.96391 C 6.2815302,16.588908 6.2815301,35.33891 6.2815301,35.33891 L 7.2815301,35.33891 C 7.2815301,35.33891 7.2815302,16.588912 7.2815301,15.96391 C 7.2815301,15.85141 7.3835599,15.631929 7.5627801,15.46391 C 7.7420003,15.295891 7.9898635,15.21391 8.0315301,15.21391 C 8.5315301,15.21391 16.4387,15.21391 17.6887,15.21391 C 18.334533,15.21391 18.823431,14.807142 19.1887,14.33891 C 19.553969,13.870678 19.845259,13.291975 20.1262,12.74516 C 20.407141,12.198345 20.757367,11.565921 21.03245,11.21391 C 21.307533,10.861899 21.457889,10.83891 21.6887,10.83891 C 22.905367,10.83891 44.9387,10.96391 44.9387,10.96391 L 44.9387,9.96391 C 44.9387,9.96391 22.972033,9.83891 21.6887,9.83891 z " style="marker:none" color="#000" fill="url(#w)" fill-opacity="1" fill-rule="evenodd" stroke="none" stroke-width=".25pt" stroke-linecap="butt" stroke-linejoin="miter" marker-start="none" marker-mid="none" marker-end="none" stroke-miterlimit="4" stroke-dasharray="none" stroke-dashoffset="0" stroke-opacity="1" visibility="visible" display="inline" overflow="visible"/>
    <rect ry="1.25" rx="1.4434735" y="3.4487448" x="6.7177296" height="1.25" width="1.25" style="marker:none" color="#000" fill="#fffffd" fill-opacity="1" fill-rule="evenodd" stroke="none" stroke-width=".25pt" stroke-linecap="butt" stroke-linejoin="miter" marker-start="none" marker-mid="none" marker-end="none" stroke-miterlimit="4" stroke-dashoffset="0" stroke-opacity="1" visibility="visible" display="inline" overflow="visible"/>
    <rect ry="0.4375" rx="0.43750021" y="11.83891" x="6.7268639" height="23.625" width="37.95816" style="marker:none" opacity=".2857143" color="#000" fill="none" fill-opacity="1" fill-rule="evenodd" stroke="url(#x)" stroke-width="1.00000024" stroke-linecap="square" stroke-linejoin="round" marker-start="none" marker-mid="none" marker-end="none" stroke-miterlimit="4" stroke-dasharray="none" stroke-dashoffset="0" stroke-opacity="1" visibility="visible" display="inline" overflow="visible"/>
  </g>
</svg>
