<?xml version="1.0" encoding="UTF-8" standalone="no"?>
<!-- Generator: Adobe Illustrator 18.0.0, SVG Export Plug-In . SVG Version: 6.00 Build 0)  -->

<svg
   version="1.1"
   id="Layer_1"
   x="0px"
   y="0px"
   viewBox="0 0 1700 1400"
   enable-background="new 0 0 1700 1400"
   xml:space="preserve"
   sodipodi:docname="svg.svg"
   inkscape:version="1.1.2 (0a00cf5339, 2022-02-04)"
   xmlns:inkscape="http://www.inkscape.org/namespaces/inkscape"
   xmlns:sodipodi="http://sodipodi.sourceforge.net/DTD/sodipodi-0.dtd"
   xmlns="http://www.w3.org/2000/svg"
   xmlns:svg="http://www.w3.org/2000/svg"><defs
   id="defs151" /><sodipodi:namedview
   id="namedview149"
   pagecolor="#505050"
   bordercolor="#ffffff"
   borderopacity="1"
   inkscape:pageshadow="0"
   inkscape:pageopacity="0"
   inkscape:pagecheckerboard="1"
   showgrid="false"
   inkscape:zoom="0.53214286"
   inkscape:cx="850.33557"
   inkscape:cy="700"
   inkscape:window-width="3440"
   inkscape:window-height="1369"
   inkscape:window-x="0"
   inkscape:window-y="34"
   inkscape:window-maximized="1"
   inkscape:current-layer="Layer_1" />
<g
   id="g146">
	<rect
   fill="#F57A46"
   width="1700"
   height="1400"
   id="rect2" />
	<g
   id="g144">
		<path
   fill="#DD6136"
   d="M731.9,1350.7c-9.8,0-19-2-27.1-5.7c-6.4,1.2-12.1,1.5-16.2,1.5c-4.1,0-8.2-0.3-12-0.9    c-14-2.2-26.6-8.5-35.8-17.8c-22-3.3-39.3-14.7-48.5-32.5c-5.4-10.5-10.3-27.7-3-50.4c3.7-11.4,9.5-21.3,13.8-28.6l1.3-2.2    c8.9-15.1,22.3-38,47.9-47.5c6.9-2.6,14.2-3.9,21.8-3.9c6,0,12.1,0.8,18.6,2.5c6.9-2.3,14.2-3.5,21.8-3.8    c7.7-1.2,12.5-2.6,16.4-4.9c7.2-4.1,13.5-9.7,18.3-16.1c9-12,15-26.4,19.9-43.6c-10.1-14.3-12.8-32.5-7.8-51.6    c3.2-12,9.1-29.6,23.7-42.6c1.7-1.5,3.4-3,5.2-4.3c1.7-9.6,3.1-18.6,4.3-27.2c2-14.3,3.5-27.8,4.6-40.6c-2.9,0.1-5.9,0.2-8.9,0.2    c-13.6,0-27-1.6-40.1-4.7c-1.4,5.5-4,10.7-7.8,15.3c-7.5,9.1-18.4,14.3-30.1,14.3c-1.7,0-3.4-0.1-5.1-0.3    c-3.6,1.5-7.4,2.4-11.4,2.7c-0.9,1.5-1.8,3-2.7,4.5c-4.2,7.1-8.3,14.2-12.5,21.8c-2.1,3.7-4.2,7.5-6.3,11.2    c-12,20.9-23.8,42.6-35.2,63.5l-2,3.6c-5.5,10-10.9,20.4-16.2,30.4c-6.2,11.7-12.6,23.8-19.2,35.7c-10.5,19-23.5,41.1-40.9,61.2    c-23.7,27.4-53.4,47.7-86,58.6c-17.1,5.7-34.4,9.1-51.6,10c-1.6,0.1-3.1,0.1-4.7,0.1c-12,0-23-2.6-32.3-7.5    c-5,0.9-10.1,1.4-15,1.4c-16.8,0-31.8-5.6-43-15.6c-20.3-3.9-37.5-19.8-42.7-40.7c-4.5-18-0.1-34.3,3.6-44.9    c3-8.6,6.6-17.5,11.5-28.2l0.5-1c7.8-16.9,19.5-42.5,47.6-54.6c8-3.4,16.4-5.2,25-5.2c6.1,0,12.2,0.9,18,2.7    c1.6-0.5,3.2-0.8,4.8-1.2c4.6-1,9.5-1.5,14.5-1.5c4.8,0,9.6,0.5,14.2,1.4c24.6-23.1,45.2-45.4,62.5-67.7    c33.4-42.9,60.7-89.4,81-138.3c10.7-25.7,19.5-51.3,26.3-75.9c2.6-9.3,4.8-18.8,6.9-28.4c-24.2-6.4-45.9-23.9-58.2-48.2    c-15-29.5-19.1-65.7-11.7-102c1.9-9.1,4.4-18,7.5-26.6c-0.1-1.6-0.1-3-0.1-4.1l0-0.5c-0.2-8,0.4-15.4,1.8-22.7    c0.6-3.2,1.4-6.8,2.5-10.8c-8.5-1.5-17.9-4.4-26.8-10.6c-12.5-8.8-20.7-21.1-26.7-30.1c-0.6-0.9-1.2-1.7-1.7-2.6    c-9.3-13.8-15.3-26.1-18.9-38.7c-4.2-2.5-7.9-5.8-11-9.9c-6.7-8.7-9.5-19.9-7.8-30.7c-2.3-6.5-2.9-13.6-1.6-21    c5-27.5,28.7-47.4,65-54.5c6.2-1.2,12.3-2.2,18.2-2.9c-7.2-10.8-10.5-24.3-9-38c1.8-17,4.8-33.6,7.7-49.2    c3.5-18.6,9.1-39.9,25-57.2c10.2-11.2,22.5-18.7,35.8-22.1c19.7-17.7,44.7-27.6,70.5-27.6c8.5,0,17,1.1,25.4,3.2    c32.2,8.3,58,31,69,60.8c3.4,9.1,5.3,18.4,6.3,27.4c14.2-14.6,32.9-26.5,57.6-26.5c1.7,0,3.4,0.1,5.2,0.2c0.7,0.1,1.4,0.1,2.1,0.2    c11.9,0.3,22.9,3.2,32.7,8.7c14.6,8,26.1,20.1,32.5,33.9c2.6,5.6,4.3,11,5.7,15.3c0.3,0.8,0.5,1.7,0.8,2.5    c10.7,8,19.1,18.3,24.6,30.4c7.3,15.9,10,32.1,11.5,44.4c1.6,12.7,4.8,39.1-12.4,62.3c-15.5,20.9-39.7,27.4-51.3,30.5    c-10.2,2.8-15,4.8-17.6,7.7c-2.9,3.2-4.6,8.5-7.1,17.7c-0.9,3.6-2.2,8.6-4.4,14.2c5.9,10.4,10.1,24.8,3.8,41.7    c-2.1,5.7-5.4,10.6-9.5,14.6c-3.1,6.6-7.9,12-13.7,16c-0.1,1.3-0.2,2.5-0.3,3.7c0,0.1,0,0.1,0,0.2c22.3-6.5,44.4-23.9,67.4-42.1    c9.8-7.8,20-15.8,30.4-23c33.2-23.2,64.4-35.2,95.5-36.7c2.6-0.1,5.2-0.2,7.9-0.2c18.2,0,36.5,3,54.5,9c5-0.1,9.4-0.2,12.7-1.1    c7.5-2,14.6-5.3,20.6-9.4c13.4-9.2,23.5-22.9,27.7-37.5c2.3-7.9,4.8-23.1-3.9-36c-3.4-5-7.4-9.1-11.1-11.2    c-2.4-1.4-4.5-2.3-6.3-2.8c-0.8-0.2-2.9-0.5-4.7-0.7c-2.1-0.3-4.6-0.6-7.2-1c-2.4-0.4-4.7-1-7-1.9c-13.1-3.7-23.5-14.2-26.9-28    c-4.2-17.2,3.9-34.8,19.7-42.9c14.9-7.6,32.7-11.7,51.7-11.7c9.9,0,19.8,1.1,29.4,3.2c26.6,5.9,50,18.4,67.9,36.3    c18.5,18.5,31.3,42.1,37.2,67.3c13.5,6.6,22.8,20.4,22.8,36.3c0,8.2-0.9,16.3-2.6,24.2c6.4,12.6,5.7,27.6-1.8,39.4    c-8.8,13.8-19,26.3-30.4,37.3c-1.4,7.1-4.6,13.9-9.6,19.5c-4.6,5.2-9.7,9.9-15.2,14.1c-0.6,8-3.6,15.7-8.5,22    c-6.6,8.3-16,13.6-26.5,14.7c4.7,14.7,8,30.3,10,47.1c0.5,4.1,0.9,8.2,1.4,12.3c2.5,23.8,4.9,46.3,14.6,64.1    c7.9,14.6,19.3,27.1,33.8,37.2c2.1,1.1,4,2.1,5.6,3c1,0.5,2,1.1,2.6,1.4c7.6,3.8,14.9,8,21.3,11.7c13.4,7.7,21,22,19.8,37.3    c0,0.1,0,0.3,0,0.4c2.3,5.8,3.2,12.2,2.6,18.5c-0.3,3.5-1.1,6.8-2.3,9.9c4.4,16.4,4,32.1,3,44.8c-1.8,22.1-4,44.4-6.1,66    c-1.2,12.7-2.5,25.8-3.7,38.7l-0.4,4.4c-2.8,30.8-6.2,69.1-32.6,100.6c-12.8,15.3-28.2,27.2-44.4,34.6    c-10.9,4.9-22.9,9.5-36.9,9.5c0,0,0,0,0,0c-5.4,0-10.7-0.7-15.7-2.1c-7.8,2.4-15.7,3.4-22.4,3.4c-3.2,0-6.3-0.2-9.2-0.7    c0,0,0,0,0,0c-5.1,1.2-10.3,1.8-15.5,1.8c-16.7,0-32.4-6.2-44.2-17.6c-12.9-12.3-20.6-30-21.8-49.9c-1.1-17.9,3.2-36.4,12.1-51.9    c9.8-17.2,24.3-30.1,42-37.3c10.4-4.2,20.7-6.6,31.6-7.1c2.4-0.1,4.6-0.2,6.6-0.2c1.1,0,2.4,0,3.5-0.1c0.7-1.3,1.8-3.5,2.9-7    c4.3-12.9,7.4-26.8,9.1-41.2c1.5-12.3,2.9-26.4,1.2-38.5c-1.1-7.9-3.2-13.3-6.2-16c-6.3-5.5-16.6-9.3-25.8-12.3    c-2.4-0.8-4.8-1.5-7.2-2.3c-12.9-4-27.5-8.6-41.7-16.6c-10.9-6.1-20.7-13.7-29.4-22.7c0,0,0,0,0,0c-1.7,5.9-4.6,11.2-8.5,15.6    c-1.5,6.1-4.3,11.8-8.5,16.6c-5.4,6.3-12.6,10.7-20.5,12.6c-0.8,1.8-1.6,3.7-2.5,5.6c-6.9,15.2-13.4,29-19.8,42.1    c-11.8,24.2-23.3,46.5-34.9,67.5c2,6.5,4.1,12.8,6,18.6c3.3,9.8,2.7,20.4-1.6,29.6c0.4,8.6-1.9,17.2-6.8,24.6    c-3.8,5.7-8.8,10.1-14.6,13.2c-8.6,36.6-20.5,71.4-35.3,103.7c-28.5,62.3-68.7,115.7-116.1,154.4c-1.2,1-2.4,1.9-3.6,2.9    c-11.4,9.5-25.7,21.2-44.1,27.1C746.7,1349.6,739.3,1350.7,731.9,1350.7zz"
   id="path4" />
		<path
   fill="#FFFFFF"
   d="M710.8,1303.6c-9.8,0-19-2-27.1-5.7c-6.4,1.2-12.1,1.5-16.2,1.5c-4.1,0-8.2-0.3-12-0.9    c-14-2.2-26.6-8.5-35.8-17.8c-22-3.3-39.3-14.7-48.5-32.5c-5.4-10.5-10.3-27.7-3-50.4c3.7-11.4,9.5-21.3,13.8-28.6l1.3-2.2    c8.9-15.1,22.3-38,47.9-47.5c6.9-2.6,14.2-3.9,21.8-3.9c6,0,12.1,0.8,18.6,2.5c6.9-2.3,14.2-3.5,21.8-3.8    c7.7-1.2,12.5-2.6,16.4-4.9c7.2-4.1,13.5-9.7,18.3-16.1c9-12,15-26.4,19.9-43.6c-10.1-14.3-12.8-32.5-7.8-51.6    c3.2-12,9.1-29.6,23.7-42.6c1.7-1.5,3.4-3,5.2-4.3c1.7-9.6,3.1-18.6,4.3-27.2c2-14.3,3.5-27.8,4.6-40.6c-2.9,0.1-5.9,0.2-8.9,0.2    c-13.6,0-27-1.6-40.1-4.7c-1.4,5.5-4,10.7-7.8,15.3c-7.5,9.1-18.4,14.3-30.1,14.3c-1.7,0-3.4-0.1-5.1-0.3    c-3.6,1.5-7.4,2.4-11.4,2.7c-0.9,1.5-1.8,3-2.7,4.5c-4.2,7.1-8.3,14.2-12.5,21.8c-2.1,3.7-4.2,7.5-6.3,11.2    c-12,20.9-23.8,42.6-35.2,63.5l-2,3.6c-5.5,10-10.9,20.4-16.2,30.4c-6.2,11.7-12.6,23.8-19.2,35.7c-10.5,19-23.5,41.1-40.9,61.2    c-23.7,27.4-53.4,47.7-86,58.6c-17.1,5.7-34.4,9.1-51.6,10c-1.6,0.1-3.1,0.1-4.7,0.1c-12,0-23-2.6-32.3-7.5    c-5,0.9-10.1,1.4-15,1.4c-16.8,0-31.8-5.6-43-15.6c-20.3-3.9-37.5-19.8-42.7-40.7c-4.5-18-0.1-34.3,3.6-44.9    c3-8.6,6.6-17.5,11.5-28.2l0.5-1c7.8-16.9,19.5-42.5,47.6-54.6c8-3.4,16.4-5.2,25-5.2c6.1,0,12.2,0.9,18,2.7    c1.6-0.5,3.2-0.8,4.8-1.2c4.6-1,9.5-1.5,14.5-1.5c4.8,0,9.6,0.5,14.2,1.4c24.6-23.1,45.2-45.4,62.5-67.7    c33.4-42.9,60.7-89.4,81-138.3c10.7-25.7,19.5-51.3,26.3-75.9c2.6-9.3,4.8-18.8,6.9-28.4c-24.2-6.4-45.9-23.9-58.2-48.2    c-15-29.5-19.1-65.7-11.7-102c1.9-9.1,4.4-18,7.5-26.6c-0.1-1.6-0.1-3-0.1-4.1l0-0.5c-0.2-8,0.4-15.4,1.8-22.7    c0.6-3.2,1.4-6.8,2.5-10.8c-8.5-1.5-17.9-4.4-26.8-10.6c-12.5-8.8-20.7-21.1-26.7-30.1c-0.6-0.9-1.2-1.7-1.7-2.6    c-9.3-13.8-15.3-26.1-18.9-38.7c-4.2-2.5-7.9-5.8-11-9.9c-6.7-8.7-9.5-19.9-7.8-30.7c-2.3-6.5-2.9-13.6-1.6-21    c5-27.5,28.7-47.4,65-54.5c6.2-1.2,12.3-2.2,18.2-2.9c-7.2-10.8-10.5-24.3-9-38c1.8-17,4.8-33.6,7.7-49.2    c3.5-18.6,9.1-39.9,25-57.2c10.2-11.2,22.5-18.7,35.8-22.1c19.7-17.7,44.7-27.6,70.5-27.6c8.5,0,17,1.1,25.4,3.2    c32.2,8.3,58,31,69,60.8c3.4,9.1,5.3,18.4,6.3,27.4c14.2-14.6,32.9-26.5,57.6-26.5c1.7,0,3.4,0.1,5.2,0.2c0.7,0.1,1.4,0.1,2.1,0.2    c11.9,0.3,22.9,3.2,32.7,8.7c14.6,8,26.1,20.1,32.5,33.9c2.6,5.6,4.3,11,5.7,15.3c0.3,0.8,0.5,1.7,0.8,2.5    c10.7,8,19.1,18.3,24.6,30.4c7.3,15.9,10,32.1,11.5,44.4c1.6,12.7,4.8,39.1-12.4,62.3c-15.5,20.9-39.7,27.4-51.3,30.5    c-10.2,2.8-15,4.8-17.6,7.7c-2.9,3.2-4.6,8.5-7.1,17.7c-0.9,3.6-2.2,8.6-4.4,14.2c5.9,10.4,10.1,24.8,3.8,41.7    c-2.1,5.7-5.4,10.6-9.5,14.6c-3.1,6.6-7.9,12-13.7,16c-0.1,1.3-0.2,2.5-0.3,3.7c0,0.1,0,0.1,0,0.2c22.3-6.5,44.4-23.9,67.4-42.1    c9.8-7.8,20-15.8,30.4-23c33.2-23.2,64.4-35.2,95.5-36.7c2.6-0.1,5.2-0.2,7.9-0.2c18.2,0,36.5,3,54.5,9c5-0.1,9.4-0.2,12.7-1.1    c7.5-2,14.6-5.3,20.6-9.4c13.4-9.2,23.5-22.9,27.7-37.5c2.3-7.9,4.8-23.1-3.9-36c-3.4-5-7.4-9.1-11.1-11.2    c-2.4-1.4-4.5-2.3-6.3-2.8c-0.8-0.2-2.9-0.5-4.7-0.7c-2.1-0.3-4.6-0.6-7.2-1c-2.4-0.4-4.7-1-7-1.9c-13.1-3.7-23.5-14.2-26.9-28    c-4.2-17.2,3.9-34.8,19.7-42.9c14.9-7.6,32.7-11.7,51.7-11.7c9.9,0,19.8,1.1,29.4,3.2c26.6,5.9,50,18.4,67.9,36.3    c18.5,18.5,31.3,42.1,37.2,67.3c13.5,6.6,22.8,20.4,22.8,36.3c0,8.2-0.9,16.3-2.6,24.2c6.4,12.6,5.7,27.6-1.8,39.4    c-8.8,13.8-19,26.3-30.4,37.3c-1.4,7.1-4.6,13.9-9.6,19.5c-4.6,5.2-9.7,9.9-15.2,14.1c-0.6,8-3.6,15.7-8.5,22    c-6.6,8.3-16,13.6-26.5,14.7c4.7,14.7,8,30.3,10,47.1c0.5,4.1,0.9,8.2,1.4,12.3c2.5,23.8,4.9,46.3,14.6,64.1    c7.9,14.6,19.3,27.1,33.8,37.2c2.1,1.1,4,2.1,5.6,3c1,0.5,2,1.1,2.6,1.4c7.6,3.8,14.9,8,21.3,11.7c13.4,7.7,21,22,19.8,37.3    c0,0.1,0,0.3,0,0.4c2.3,5.8,3.2,12.2,2.6,18.5c-0.3,3.5-1.1,6.8-2.3,9.9c4.4,16.4,4,32.1,3,44.8c-1.8,22.1-4,44.4-6.1,66    c-1.2,12.7-2.5,25.8-3.7,38.7l-0.4,4.4c-2.8,30.8-6.2,69.1-32.6,100.6c-12.8,15.3-28.2,27.2-44.4,34.6    c-10.9,4.9-22.9,9.5-36.9,9.5c0,0,0,0,0,0c-5.4,0-10.7-0.7-15.7-2.1c-7.8,2.4-15.7,3.4-22.4,3.4c-3.2,0-6.3-0.2-9.2-0.7    c0,0,0,0,0,0c-5.1,1.2-10.3,1.8-15.5,1.8c-16.7,0-32.4-6.2-44.2-17.6c-12.9-12.3-20.6-30-21.8-49.9c-1.1-17.9,3.2-36.4,12.1-51.9    c9.8-17.2,24.3-30.1,42-37.3c10.4-4.2,20.7-6.6,31.6-7.1c2.4-0.1,4.6-0.2,6.6-0.2c1.1,0,2.4,0,3.5-0.1c0.7-1.3,1.8-3.5,2.9-7    c4.3-12.9,7.4-26.8,9.1-41.2c1.5-12.3,2.9-26.4,1.2-38.5c-1.1-7.9-3.2-13.3-6.2-16c-6.3-5.5-16.6-9.3-25.8-12.3    c-2.4-0.8-4.8-1.5-7.2-2.3c-12.9-4-27.5-8.6-41.7-16.6c-10.9-6.1-20.7-13.7-29.4-22.7c0,0,0,0,0,0c-1.7,5.9-4.6,11.2-8.5,15.6    c-1.5,6.1-4.3,11.8-8.5,16.6c-5.4,6.3-12.6,10.7-20.5,12.6c-0.8,1.8-1.6,3.7-2.5,5.6c-6.9,15.2-13.4,29-19.8,42.1    c-11.8,24.2-23.3,46.5-34.9,67.5c2,6.5,4.1,12.8,6,18.6c3.3,9.8,2.7,20.4-1.6,29.6c0.4,8.6-1.9,17.2-6.8,24.6    c-3.8,5.7-8.8,10.1-14.6,13.2c-8.6,36.6-20.5,71.4-35.3,103.7c-28.5,62.3-68.7,115.7-116.1,154.4c-1.2,1-2.4,1.9-3.6,2.9    c-11.4,9.5-25.7,21.2-44.1,27.1C725.6,1302.4,718.3,1303.6,710.8,1303.6zz"
   id="path6" />
		<g
   id="g142">
			<path
   fill="#231F20"
   d="M1256.7,785.5c-1.3-2.8-3-5.6-5-8.1c2.7-0.6,5.3-1.5,7.9-2.8c2.7-1.3,2.2-4.8,0.2-6.3     c-3.7-2.8-7.4-5.7-11.1-8.5c2.4-0.5,4.8-1.2,7.2-2.1c2.9-1.1,4.3-5.2,1.1-7c-6.4-3.7-12.9-7.4-19.5-10.7     c-3.1-1.5-6.6-3.8-10.2-5.4c-19.6-13.1-35.9-30.3-47.3-51.3c-15-27.6-16.5-58.8-20-89.4c-3.3-28.2-11.2-54.8-26.7-78.9     c-0.8-1.2-1.6-2.4-2.4-3.6c17-1.3,34-2.7,51-4.5c2.4-0.3,3.2-3,3-4.9c-0.7-5.3-3-10-6.6-13.5c11.8-4.1,22.5-11.2,30.8-20.5     c2.1-2.4,1.3-7.6-2.8-7.2c-0.9,0.1-1.9,0.2-2.8,0.2c16.7-12.2,30.8-27.5,42.1-45.2c1.7-2.6-0.9-6.7-4.1-5.6     c-3.3,1.1-6.7,2.3-10,3.4c8.3-12.3,12.9-27,12.9-42c0-3.9-5.9-6.4-7.8-2.4c-3.3,6.9-7.7,13-13.1,18.1     c6.6-33.4-4.3-69.7-28.5-93.9c-13.6-13.6-31.6-22.5-50.2-26.6c-18.2-4-40.1-3.3-56.8,5.3c-2.4,1.2-0.9,4.8,1.7,4.3     c0.2,0,0.3-0.1,0.5-0.1c0.3,0.6,0.9,1,1.6,1.1c4.9,0.8,9.8,1.1,14.6,2.3c5.5,1.4,10.6,3.7,15.5,6.4c9.3,5.3,17.2,13.5,23.1,22.3     c13.3,19.7,15.1,43.6,8.6,66.1c-6.6,23.1-22.1,43.6-41.8,57.2c-9.6,6.6-20.4,11.5-31.6,14.5c-9.4,2.6-18.6,2.4-28.1,2.4     c-17.4-6.5-36.1-9.7-54.6-8.8c-28.3,1.4-53.8,14.3-76.6,30.3c-45,31.4-90.1,82.1-150.2,73.3c-0.8-3.3-1.5-6.6-2.1-9.9     c-1.9-9.8-2.4-19.7-2-29.7c0.2-4.8,0.8-9.6,1.6-14.3c0.5-2.7,1.1-5.4,1.4-8.2c2.6-2.7,4.6-5.9,5.5-9.6c3.7,1.4,7.8,1.7,9-1.6     c1.3-3.4,0-7.4-2.1-11.1c0.3,0.2,0.5,0.3,0.7,0.5c1.9,1.2,4,1.6,6.2,1.4c1.6-0.1,2.7-0.8,3.3-2.3c3-8.1-3.2-14.9-8.4-20.4     c-1.8-1.9-3.7-3.6-5.7-5c7.8-7,11-17.1,13.6-27.1c3.2-12.2,6.6-23.3,15.2-32.8c9.4-10.4,21.7-14.7,34.9-18.2     c11.5-3.1,24.3-7.2,31.8-17.2c7.9-10.7,7.1-23.8,5.6-36.4c-1.4-11.6-3.6-23.2-8.5-33.9c-4.4-9.5-11.4-16.2-20.4-20.8     c-1.2-4.3-3.9-8.2-5.4-12.5c-1.7-5-3.1-10-5.3-14.8c-3.5-7.5-10.1-13.5-17.2-17.5c-5.9-3.3-12.5-4.4-19.2-4.2     c-0.2-0.2-0.5-0.3-0.8-0.3c-30.7-2.2-48.3,33.3-62.6,54.9c-0.8,1.2-1.5,2.3-2.3,3.5c-11.1-6.1-22.4-11.9-34-17.1     c3.3-21.6,6.3-44.9-1.4-65.8c-7.3-19.7-24.1-33.2-44.1-38.4c-26.9-6.9-53.1,3.9-70,23.5c-10-0.4-19.3,4.8-26.1,12.3     c-9.8,10.8-13.6,25.6-16.2,39.5c-2.9,15.3-5.7,30.9-7.3,46.4c-1.2,11.6,5.9,23,18.8,20.5c14-2.7,22.3-18.5,30.2-28.9     c8.6-11.2,17.1-22.5,25.5-33.8c1.3,2.7,2.9,5.2,4.2,7.8c1.5,3.1,2.5,6.4,3.6,9.7c-2.3,0.1-4.5,0.3-6.8,0.6     c-4.1,0.5-14,3.2-10.5,9.6c2,3.6,6.9,2.7,10.4,3.3c2,0.3,3.9,0.8,5.8,1.4c-7.5,2.7-14.8,6.1-21.8,10c-8,4.5-19.7,10.6-20.7,20.8     c-0.2,2.7,2.9,4.3,5.2,3.2c4.5-2.4,9.3-4,14.1-4.9c-9.8,8.1-18.2,17.7-25,28.7c-3.9,6.3-6.6,17.1-14.6,19.1     c-6.8,1.7-13.9,1.3-20.8,1.8c-12-0.1-24,1.3-35.9,3.6c-13.6,2.7-33.7,9.9-36.5,25.5c-0.3,1.8,0.3,4.2,2.4,4.6     c2.2,0.4,4.4,0.9,6.6,1.3c-3.4,4-5.8,8.7-7.2,13.9c-0.6,2.1,0.9,5,3.4,4.8c3.9-0.3,7.6-1.1,11.1-2.5c-0.6,7.6,1.2,15.8,3.2,22.9     c2.9,10.4,8.2,19.9,14.2,28.8c5.3,7.8,11.4,17.8,19.2,23.3c8.8,6.1,21.1,5.4,31.4,6.3c0.5,0,0.9,0,1.3-0.1     c1.1,11.5,7.2,21.5,15.4,29.6c-2.3,1.7-3.6,5.2-4.7,7.6c-2.2,4.5-3.4,9.5-4.3,14.4c-1,5-1.3,10-1.2,15.1c0.1,3.2,0.1,6.7,1.2,9.7     c-4.2,9.6-7.3,19.7-9.3,29.5c-5.3,25.9-3.5,54.7,8.5,78.5c11.1,21.8,35.3,36.9,59.9,28.9c4.7-1.5,8.6-3.8,11.8-6.5     c-5.8,26.7-10.6,53.6-17.9,79.9c-7.5,27.2-16.9,54.1-27.8,80.1c-21.8,52.4-50.9,101.8-85.8,146.6c-24.9,32-53.2,60.5-83.4,87.5     c-7.4-6.5-19.7-8.5-28.8-6.5c-5,1.1-9.6,3.2-13.7,6.1c-2-2.4-5-4.3-7.8-5.3c-6.4-2.3-13.3-1.9-19.5,0.7     c-15.7,6.7-22.9,22.9-29.6,37.6c-3.8,8.2-7.3,16.4-10.2,24.9c-2.7,7.9-4.7,16.1-2.6,24.4c2.8,11.4,15.7,18,25.1,12.2     c0.3,0.9,0.6,1.8,1,2.7c8.5,18.2,32,16.2,47.6,8.5c5.5,9.6,16.4,12.3,27,11.7c14.4-0.8,28.5-3.7,42.2-8.2     c27.5-9.2,51.3-26.1,70.2-48c14.5-16.7,26-35.8,36.6-55.1c12-21.9,23.4-44.1,35.4-66c12.4-22.7,24.7-45.3,37.5-67.8     c6.4-11.2,12.6-22.5,19.2-33.6c6.8-11.3,14.1-22.2,20.5-33.7c2.6,3.7,5.5,7.2,8.1,10.8c1.6,2.2,4.8,0.3,4.9-1.9     c0.3-3.5,0.5-7.1,0.8-10.6c3.9,4.7,8.8,8.3,14.7,10.7c2.4,1,4.5-1.6,4.1-3.9c-1.7-8.6-3.5-17.2-5.7-25.6c-1-3.7-2.3-7.3-3.7-10.9     c3.9,3.6,8,7,12.3,10.2c2.7,2,6-1.1,5.4-3.9c-0.6-3-1.2-6-1.7-9c34.6,20.4,77.1,24,114.9,10.4c0.3,30-2.4,59.9-6.5,89.5     c-2.2,15.3-4.8,30.5-7.7,45.6c-5,0.7-10.3,4.8-13.4,7.7c-6.9,6.2-10.6,16.3-12.9,25c-2.1,8-2,16.5,3.5,23.2     c2,2.4,6.1,4.7,10.1,5.3c-6.3,27.9-14.3,56.2-31.7,79.3c-7.8,10.4-17.9,19.2-29.1,25.6c-10,5.7-20.4,8.1-31.4,9.6     c-5.4,0-10.8,0.9-15.7,2.9c-2.1,0.8-4,1.9-5.9,3.1c-3.2-0.8-6.5-1.6-9.8-2.6c-7-2.1-14.1-3-21.1-0.4c-14.1,5.3-23,20.9-30.2,33.2     c-7.6,12.9-18.3,30.3-10.5,45.3c6.5,12.6,23.2,15.1,36.5,13.7c0.5,1.9,1.2,3.7,2.2,5.6c3.6,6.9,11.7,10.9,19.1,12.1     c8.8,1.4,21.3-0.2,28.7-5.5c6.7,10.4,21,11.9,32,8.4c13.3-4.2,25.2-14.9,35.9-23.6c46.1-37.7,81.5-87.6,106.2-141.5     c18.3-39.9,31-82.3,38.9-125.4c2.9,1.9,6.1,3.5,9.4,4.9c3.7,1.4,6-2.9,4.8-5.8c-2.2-5.2-4.2-10.3-6.3-15.5     c1.2,0.7,2.4,1.4,3.5,2.1c3.1,1.9,7.9-1,6.6-4.8c-3.9-11.6-7.6-23-10.6-34.6c14.6-25.8,28.2-52.2,41.2-78.8     c6.7-13.7,13.1-27.4,19.4-41.2c3.3-7.3,6.6-14.8,9.5-22.3c1.4-3.6,3.9-8.1,5.2-12.5c2.8,2.8,5.8,5.5,8.7,8.2     c2.7,2.5,6.5,0.3,5.9-3.2c-0.6-4.1-1.2-8.1-1.9-12.2c2.8,0.6,5.8,0.2,8.9-1c1.6-0.7,2.4-3.3,1.4-4.8c-6.5-9-10.8-18.6-14.7-29     c-0.2-0.5-0.4-0.9-0.7-1.2c11.3-16.7,23.8-32.5,42.1-41.5c6.9,17.3,14.6,34.1,25.8,49.1c8,10.7,18,19.7,29.7,26.3     c13.2,7.4,28,11.3,42.3,15.9c13.7,4.4,27.6,9.9,38.5,19.5c11.2,9.9,16.2,23.8,18.1,38.2c2.1,15.6,0.7,32-1.1,47.5     c-1.9,16.4-5.5,32.8-10.7,48.4c-4,12.1-10.7,25.1-23.5,29.6c-6.9,2.5-14.7,1.8-21.9,2.2c-6.9,0.4-13.4,1.9-19.8,4.5     c-21.3,8.7-33.1,31.6-31.8,53.9c0.6,9.6,3.7,19.2,10.8,26c8.6,8.2,21.5,9.6,32.1,4.8c0.4-0.2,0.9-0.4,1.3-0.7c2,1,4.3,1.6,6.7,2     c7.9,1.2,20.9-1.5,26.8-7.7c0.9,1,1.9,1.9,3,2.8c10.3,7.9,24,2.3,34.4-2.3c12.3-5.5,23.1-14.6,31.7-24.9     c20.2-24,22-55.2,24.8-85.2c3.2-34.8,6.8-69.6,9.7-104.4C1263.2,813.2,1262.9,798.7,1256.7,785.5z M1080.5,455.1     c12.8-2.3,24.9-7.8,35.7-15c22.8-14.9,39.6-38.2,47.1-64.3c7.1-24.6,4.3-52.1-10.8-73.3c-7-9.8-16-17.4-26.5-23.2     c-4.5-2.5-9.7-4.7-15-6.2c10.3-0.9,20.6-0.6,31.2,2c17.4,4.1,33.2,12.1,46.1,24.6c25.7,24.8,33.9,64.1,23.1,97.7     c-1.2,3.7,3.1,7.5,6.5,5.3c6.2-3.8,11.5-8.4,16-13.7c-2.8,11.1-8.5,21.3-16.7,29.8c-2.5,2.6-0.3,8,3.6,6.6     c4-1.4,8.1-2.9,12.1-4.3c-12.5,17-28.7,31.1-47.1,41.6c-3.3,1.9-2.5,8.1,1.9,7.8c2.4-0.2,4.7-0.3,7.1-0.5     c-7.9,6.3-17.1,10.6-27.2,12.9c-4.2,1-3.9,6.6-0.2,8c4,1.5,7.2,4.5,8.7,8.4c-17.1,1-34.1,2.5-51.1,4     c-12.9-16.8-29-31.1-47.2-42.1c-2.7-1.6-5.5-3.2-8.3-4.6C1073.3,456.2,1076.9,455.7,1080.5,455.1z M597.8,220     c-10.6,13.7-20.4,28.3-31.6,41.5c-3.9,4.6-11.8,10.7-17.8,5.6c-5-4.3-1.6-15.5-0.7-20.9c2.6-16.1,4.3-32.7,8.4-48.5     c3.7-14.6,11.9-27.3,25.8-33.8c0.5-0.3,1.1-0.5,1.6-0.7c-7.2,10-12.2,21.7-13.9,34.3c-0.2,1.7,2.5,2.1,2.9,0.5     c11-36.2,44.7-66,84.1-55.6c18.8,4.9,33.1,18.7,38.8,37.2c5.6,18.2,3.5,37.5,0.7,56.1c-2.4-1-4.7-2-7.1-3c-0.1,0-0.1,0-0.2-0.1     c0.1-0.3,0.2-0.6,0.3-0.9c2.5-14.9,1.5-29.8-3.2-44.2c-3.7-11.3-10.6-24.4-23.8-25.9c-14.2-1.6-24.9,7.7-33.3,18     C618.2,192.6,608.2,206.5,597.8,220z M641.8,229.5c1.6,1.3,3.3,2.5,5,3.8c-2.2-0.4-4.5-0.7-6.7-1c-1-11.5-6.7-26.2-16.5-32.7     c3.3-4.4,6.7-8.9,10.1-13.3c4.8-6.2,10-12,17.3-15.4c17.7-8.3,26,12.1,29.3,25.5c2.7,10.6,2.9,21.9,1,32.7c0,0.1,0,0.2,0,0.3     c-6.1-2.4-12.4-4.6-18.7-6.6c-6.6-2-15.9-5.2-21.3,1C639.6,225.7,639.9,227.9,641.8,229.5z M615.5,210.2c1.1-1.5,2.2-2.9,3.3-4.4     c0.7-1,1.5-2,2.2-3c2.7,4.1,5.7,7.8,8,12.2c2.8,5.3,4.2,10.9,5.1,16.6c-2.5-0.2-4.9-0.3-7.4-0.3c-0.8-3.7-2.5-7.5-4.2-10.8     C620.9,217,618.7,212.9,615.5,210.2z M544.8,430.1c-1.7-10-2.4-20.4-2.5-30.6c0-4.9,0.7-9.6,4.4-13.1c3.7-3.4,9.7-3.3,14.2-2.3     c9.4,2.1,18.4,9.4,26,15.1c8,6,15.5,12.9,22,20.5c6.4,7.5,11.2,20.4,1.4,27.4c-7.4,5.3-18.7,5-27.4,5.2     c-10.6,0.2-20.9-1.2-31.2-3C547.6,443.8,545.9,436.7,544.8,430.1z M555.3,458.3c11,2,22.4,2.5,33.5,1.9     c10.7-0.5,23.1-1.8,30.5-10.6c7.4-8.9,4.8-21.3-0.9-30.2c-6.8-10.5-17.6-19-27.4-26.4c-9.6-7.2-20.3-14.6-32.4-16.4     c-10.7-1.7-20.4,5.2-22.7,15.5c-1.3,5.9-0.6,12.3-0.2,18.3c0.4,6.7,1.1,13.3,2.1,20c1,6.8,2.9,13.6,6.9,18.7     c-8.1-0.4-18.1-0.2-24.2-5.2c-6.7-5.5-12-14.2-16.8-21.4c-5.3-7.8-9.5-16.2-12.4-25.2c-2.9-9.2-2.6-18.7-4.9-27.9     c-0.3-1.1-1.1-1.7-2-1.9c-0.9-0.4-1.9-0.4-3.1,0.2c-2.3,1.3-4.6,2.3-7,3c1.8-3.8,4.3-7,7.6-9.9c2-1.7,1.2-5.5-1.4-6.1     c-2.9-0.6-5.9-1.3-8.8-1.9c5.8-11.5,24.1-15.3,35.2-17.6c8-1.6,16.1-2.8,24.2-3.9c2.9,0.1,5.7,0,8.7-0.1c5.3-0.2,10.6,0,15.9-0.5     c8.7-0.8,13.2-6.6,16.9-13.8c8.8-17.1,21.3-31.8,37.3-42.6c3-2,2.2-6.7-1.7-6.9c-6.6-0.3-13,0.4-19.1,2.3c1.3-1,2.6-1.8,3.7-2.6     c3.4-2.5,7.1-4.8,10.8-6.8c8.3-4.6,17.2-7.9,26.3-10.4c2.5-0.7,3.7-4.7,1-6c-5-2.3-10.1-4.1-15.5-5.3c2.8-0.3,5.7-0.3,8.4-0.4     c14.4-0.5,28.8,2.4,42.2,7.6c3.8,1.5,6.3-4.3,2.9-6.3c-6.3-3.7-12.3-7.8-18.1-12.1c5.4,0,13,3.4,16.5,4.5     c8.3,2.7,16.3,6,24.3,9.5c1.4,0.6,2.8,1.3,4.2,1.9c0.6,0.8,1.7,1.3,2.8,1.3c11.6,5.4,23.1,11.3,34.2,17.6     c-7.1,10.6-14.2,21.3-20.6,32.2c-5.8,10-6.3,23.4,5.8,28.5c5.4,2.2,12.3,0.3,17.5-1.4c8.3-2.7,16.5-6,24.8-8.9     c4.7-1.7,9.4-3.6,14.1-5.4c1.6,5.1,4.6,10,6.8,14.8c1.3,2.8,4.8,1.2,5.2-1.2c0.9-5.9,3.1,1.1,3.6,3.1c0.7,3.2,0.6,6.5,0.2,9.7     c-0.2,1.4,1.3,3.1,2.7,2.9c1.5-0.1,2.2-0.2,3.5-1.1c3.8-2.7,3.2,2.5,2.6,5.6c-5.4,3.5-10.3,7.8-14.5,13.2     c-2.5,3.2,2.9,7.7,5.5,4.5c9.1-10.8,21.6-16.8,35.2-20c10.4-2.5,25.2-0.9,32.4-10.4c8-10.7,0.3-23.3-8.5-30.4     c-9.8-7.9-23.5-9.9-35.7-9.2c-15.1,0.8-29.3,6.7-43.4,11.9c-7.4,2.8-14.8,5.6-22.1,8.5c-7.7,3-15.9,7.5-24.3,7.9     c-10.5,0.6-9.8-10.9-6.6-17.5c3.7-7.5,9-14.5,13.6-21.5c3.1-4.8,6.2-9.5,9.3-14.2c1-0.7,1.6-1.7,1.8-2.8     c5.6-8.5,11.1-16.9,16.8-25.3c7-10.4,15-20.9,25.3-27.7c1.2-0.6,2.5-1.2,3.7-1.8c4-1.9,8.5-2.6,12.9-2.9c8-0.6,15.6,2.2,22.1,6.7     c7.2,4.9,11.1,12.5,13.7,20.5c1.2,3.7,2.3,8.1,4,12.1c-10.6-3.8-21.7-7.4-26.2-18.9c-0.2-0.6-1.2-0.3-1.2,0.3     c0.7,10.4,9.3,17.1,17.9,21.5c11.4,5.8,23,8.9,30.4,20.3c6.2,9.6,8.2,21.5,9.7,32.6c1.8,13,3.3,27.7-7.1,37.6     c-9.6,9.1-24.5,10.4-36.5,14.3c-11.1,3.6-20.9,10.2-28.4,19c-7.4,8.7-11.3,18.9-14.1,29.8c-2.7,10.6-4.8,22.1-13.8,29.3     c-0.3,0.3-0.5,0.5-0.7,0.8c-3.1-0.9-6.5-1.2-10-0.6c-1.4,0.2-1.8,2.5-0.5,3.2c5.8,2.9,11.7,3.9,16.7,8.4     c3.6,3.2,9.4,8.6,9.7,13.9c-2.1-0.7-4.3-2.5-6.1-3.3c-2.5-1.1-5.1-0.7-7.4,0.4c-1.7,0.8-2.2,3.4-0.8,4.7c2.9,2.7,4.9,5.6,6.1,9.4     c0.8,2.5,0.6,0.7-1.4,0c-2.3-0.8-3.6-1.6-6-1.5c-1.8,0-2.8,1.8-2.2,3.3c-0.5,2.4-1.4,4.4-2.5,6.2c-0.2,0.1-0.3,0.3-0.5,0.5     c-0.5,0.6-0.9,1.2-1.3,1.9c-7.1,8-20.5,9-31.1,9.6c-15.5,0.9-28.2,5-38.9,16.6c-10.8,11.7-16.1,26.8-24.3,40.2     c-4.4,7.3-8.8,14-15.3,19.7c-0.7,0.6-1.5,1.2-2.2,1.8c-4.7,2.8-9.8,4.2-15,5.5c-0.3-7.6-0.1-15.3,1.1-22.8c0.9,0,1.8-0.2,2.7-0.9     c11.6-9.3,19.7-23.8,27.2-36.3c4.7-7.7,9.3-15.5,13.9-23.2c1.6-2.7,3.1-5.5,4.6-8.3c3.1-2.9,6.1-5.9,8.7-9.2     c3.5-4.5,7.6-10.3,9.4-16.4c4.5,4.7,11.2,10.1,15.8,6.3c2.8-2.4,3-5.6,2.2-9c0-0.3,0-0.5,0-0.7c0.9,0.7,1.7,1.4,2.6,2.1     c1.6,1.3,3.6,3.2,5.7,3.3c10.2,0.3,6.4-10.9,3.7-16.4c-4.6-9.3-12.6-15.1-22-18.9c-1-0.4-1.8,1-1.1,1.8     c5.2,5.1,11.3,9.5,15.5,15.6c2,2.9,3.6,6.2,4.8,9.6c1.8,4.8-3.6,0-4.2-0.6c-1.1-0.9-2.2-1.9-3.3-2.7c-3.5-2.6-7.2-0.7-8.4,3.2     c-0.6,1.9,3.1,9.4-1.1,6.9c-3.7-2.2-6.6-5.7-9.1-9.1c-0.4-0.5-0.8-0.8-1.2-1c-1.2-0.9-3.3-0.8-4.1,0.7c-1.8,3.3-2.6,7-4.3,10.4     c-1.8,3.6-4.3,7-7,10c-5.4,6.1-11.9,11.5-18.5,16.2c-14.1,10-30.7,17.3-48.1,19C592.9,501.2,566.6,484.8,555.3,458.3z      M790.7,312.6c-3.1-2-5.6-0.8-7.2,1.3c-1.4-2.9-2.8-5.8-4.6-8.4c8.9-3.4,18-6.6,27.4-8.4c13.3-2.4,27.7-1,38.8,7.2     c5.6,4.1,11,12.2,6.9,19c-3.2,5.2-12.4,5.5-17.7,6.1c-10.1,1.1-19.9,3.6-28.7,8c-0.1-2.1-0.8-4.2-2.2-6.1c-1-1.3-3.5-2.6-5.1-2.5     c-0.7,0.1-1.4,0.1-2.1,0.3C796.3,323,795.3,315.4,790.7,312.6z M640.5,535.7c0.1-0.3,0.2-0.5,0.2-0.8c5-16.3,14.5-31.7,27-43.4     c2.4-1.5,4.7-3,6.9-4.5c0.8-0.6,1.6-1.1,2.4-1.7c-3.7,5.9-7.5,11.7-11.2,17.6c-4.2,6.8-8.5,13.6-13.1,20     C649.2,527.8,645,531.8,640.5,535.7z M562.3,509.3c0.8-4.7,2.2-9.3,3.6-13.8c0.5-1.8,1.5-3.6,1.8-5.4c1.1,1,2.3,2,3.4,2.9     c2.6,2,5.3,3.9,8.1,5.5c-7.1,6.9-13,15-17.9,23.8C561.2,517.9,561.6,513.5,562.3,509.3z M607.3,664.1     c-12.6,2.7-25.8-2.4-34.9-11.1c-20.1-19.3-23.2-52.4-20.1-78.5c1.7-14.5,6.2-28.9,12.5-42c5.4-11.3,12.8-21.2,20.5-30.9     c6,2.6,12.4,4.4,18.9,5.3c-2.8,4.7-5.1,9.8-7.3,14.7c-3.4,7.6-6.3,15.3-8.6,23.3c-4.2,14.4-7.6,32-2.8,46.6     c0.1,0.3,0.6,0.4,0.7,0c1.4-7.1,1.6-14.2,2.4-21.3c0.9-8.1,2.3-16,4.5-23.8c2.1-7.8,5.2-15.3,8.8-22.5     c2.9-5.8,6.9-10.9,10.5-16.2c2.7,0.1,5.4,0.1,8.1-0.1c9-0.5,17.8-2.6,26.2-5.7c-8.9,12.5-14.8,27.9-17.4,41.8     c-5.6,30.7,5.8,61.9,1.8,92.7C629.4,650.1,621.2,661.1,607.3,664.1z M328.1,1124.4c-1.9,5.3-3.9,11.4-4.5,17.4     c-0.7,0.2-1.4,0.5-1.9,1.2c-3.3,3.8-7.9,3-11.2-0.5c-4.4-4.7-3-12.6-1.6-18.2c3.2-12.3,8.9-24.1,14.2-35.6     c4.7-10.1,10.1-20.3,20-26.2c4.4-2.6,9.3-3.3,14.2-2.5c2.2,0.4,4.2,1.3,6.1,2.3c-9.2,8.5-16.1,20.4-21.6,30.5     C336.4,1103,331.9,1113.6,328.1,1124.4z M685.9,862.9c-4.2-2.5-7.6-6-10.2-10.3c-1.3-2.2-4.4-1.3-4.7,1.1     c-0.4,3.6-0.8,7.1-1.2,10.7c-3-3.9-6-7.9-9.4-11.4c-1.7-1.8-4.8,0.4-3.5,2.6c0.4,0.6,0.8,1.3,1.2,1.9c-0.4,0.2-0.7,0.6-1,1     c-9.6,14-17.8,28.9-26.5,43.5c-8.7,14.6-17.8,28.9-26.3,43.6c-17.1,29.2-33.6,58.8-49.4,88.7c-13.8,25.9-27.4,52.1-45.9,75.1     c-18.8,23.3-43.5,40.8-72.1,50c-7.8,2.5-15.7,4.3-23.8,5.5c-7.3,1.1-16.2,2.8-23.4,0.8c-6.1-1.7-9.9-7.4-11-13.4     c-1.5-7.9,5.3-17,8.9-23.6c4.3-7.8,9-15.3,14.2-22.6c5.1-7.1,10.5-14.4,18.5-18.5c18.1-9.4,34.3,12.4,44.5,23.8     c1.6,1.8,4.4-0.4,3.3-2.4c-6.8-12.8-15.1-23.9-29-29.4c-13.2-5.2-25.9,0.6-35.1,10.2c-10.4,10.8-18.8,24.3-25.9,37.3     c-5,9.2-9.5,17.9-8,27.6c-6.7,2.3-12.9,5.4-20.3,5.5c-7.6,0.1-14.8-4-16.7-11.6c-2-8,2.6-17.9,5.3-25.3     c3.2-8.8,7.1-17.3,11.5-25.6c7.3-13.8,16.2-28.6,30.9-35.5c12.2-5.7,25.8,0,32.3,11.1c1.3,2.3,5.3,1.6,5.2-1.2     c0-2.4-0.5-4.6-1.3-6.6c42.6-35.4,79.5-78.6,110.5-124.3c31.7-46.7,57-97.6,75.4-150.9c7.2-20.8,12.9-42.3,17.7-63.8     c0.7-3.1,1.4-6.2,2-9.4c0.3,37.3,8.8,74.1,32.5,103.3c2.2,2.7,5.8,0.4,6.3-2.4c0.6-4.1,1.2-8.1,1.8-12.2c3.3,5,6.9,9.8,10.9,14.4     c0,0.3,0,0.6,0.1,0.9c2.1,7.8,3.6,15.7,6.1,23.4C682,850.7,684,856.8,685.9,862.9z M783.4,1021.1c-2.2-5.7,0.2-12.7,2-18.2     c1.9-6,5.1-11.3,9.4-15.9c1.4-1.5,3.1-2.6,4.8-3.6c-2.8,14.4-5.9,28.7-9,43.1c-0.6,0-1.2,0-1.8-0.1     C786.3,1025.8,784.3,1023.5,783.4,1021.1z M639.9,1225.8c-0.6,3.2-1.1,6.5-1.2,9.7c-11.5,0.2-27.3,0.3-28.4-14     c-0.6-6.9,3.4-14,6.3-19.9c3.1-6.3,6.7-12.4,10.4-18.3c6.2-9.7,14.1-22.1,26.9-22.4c3.9-0.1,8.4,1.2,12.9,2.3     c-8.5,9.6-14.2,23.1-18.5,33.8C644.6,1206.3,641.8,1215.9,639.9,1225.8z M999.3,752.6c-1.1-0.3-2.1-0.9-3.1-1.8     c-2.7-2.6-6.6-0.2-6.1,3.3c0.5,3.2,1,6.4,1.5,9.6c-1.8-1.5-3.7-2.9-5.6-4.3c0-0.1,0-0.3-0.1-0.4c-0.2-1-1.4-1.5-2.3-1     c-5.1,3-7.2,10.9-9.7,16c-3.5,7.3-6.9,14.6-10.3,21.9c-6.6,14-13.1,28.1-19.9,42c-11.7,23.8-24,47.2-36.8,70.4     c-0.9-4.5-1.8-9.1-2.4-13.7c-3.2-21.7-3.5-43.9-1.6-65.8c0.5-6.6,1.3-13.1,2.4-19.6c27.6-10.9,50.6-32.8,67.9-56.5     c5.1-6.9,9.8-14.3,14.7-21.7C990.8,738.8,994.8,745.9,999.3,752.6z M1251.7,851.9c-3.6,34.6-6.8,69.2-11,103.7     c-1.9,15.6-5.3,31.3-13.3,44.9c-7,11.9-17.3,21.8-29,29c-9.3,5.8-26.6,15.8-35.2,3.9c-4.1-5.7-3.4-15-3.3-21.7     c0.1-7.6,1.7-14.7,4.3-21.8c1.7-4.5,4.5-8.3,8-11.6c3-2.8-1.2-7.2-4.3-4.6c-10.2,8.7-15.1,20.6-16.6,33.7     c-1,8.8-1.1,18.7,2.5,26.8c-3.1,0.8-5.8,2.7-8.9,3.8c-3.6,1.3-7.4,2-11.1,2.1c-2.5,0.1-4.5-0.5-6.1-1.5c-0.4-0.5-0.9-0.9-1.5-1.2     c-2.7-2.8-3.6-7.4-3.9-11.9c-1-14.8,3.6-30,9.7-43.3c0.4-0.9-0.9-1.6-1.6-1c-13.4,13.5-19.1,34.3-15.5,53c0.4,2.1,1.1,3.9,2,5.6     c-9.1,2.5-18.1-1.4-22.6-10.4c-4.2-8.4-3.7-19.2-1.6-28c2.8-11.6,10.5-21,20.7-27.1c12.9-7.6,27.4-5.2,41.5-8.6     c27.2-6.7,34-42.6,38.6-65.6c3.2-16.2,4.9-32.7,5.2-49.2c0.3-13.6-0.8-27.9-5.8-40.7c-10.3-26.3-35.7-37.4-60.9-45.4     c-14.3-4.5-28.8-8.7-41.8-16.6c-11.3-6.9-20.3-17-27.7-27.8c-29.1-42.8-32.8-102.3-78-133.5c-0.9-0.6-2,0.8-1.2,1.5     c21.6,18.1,33.4,45.1,43.3,70.8c2,5.2,3.9,10.4,5.9,15.6c-28.5,11.7-44.4,41.5-60.9,65.8c-9.4,13.9-20,26.4-32.5,37.6     c-9.9,8.9-21,16.3-32.2,23.5c2.4-12.5,5.6-24.9,9.6-36.9c6.8-20.7,16.5-39.9,25.5-59.7c0.5-1.1-1.3-2.2-2.1-1.3     c-14,16.5-23.4,36.7-30.6,56.9c-7.6,21.5-12.4,43.9-14.9,66.5c-2.4,22.2-1.8,44.4,1,66.5c1.2,9.2,2.8,18.5,4.9,27.7     c-0.5,1.7,0,3.3,1,4.4c1.9,7.5,4.1,15,6.7,22.2c-1.1-0.6-2.1-1.2-3.2-1.7c-3.9-2-7.5,1.7-5.9,5.5c2.1,5.1,4.3,10.2,6.4,15.4     c-0.9-0.7-1.8-1.5-2.7-2.3c-0.2-0.2-0.4-0.4-0.7-0.6c-2.2-2.1-4.1-4.5-5.8-7.1c-2.9-4.5-10.4-0.6-7.4,4c1.7,2.6,3.6,5,5.6,7.2     c-11.9,61.9-31.8,122.3-65,176.2c-15.5,25.2-33.9,48.5-54.9,69.4c-10.4,10.3-21.5,20-33.2,28.9c-10.4,7.9-25.5,20.4-39.2,13     c-11.1-6-7.3-25.3-5.4-35.1c2.8-14.2,8.5-27.3,15.5-39.8c1.3-2.3-1.8-5.3-3.8-3.1c-9.8,10.8-16.6,24.3-20.3,38.4     c-2.8,10.5-4.8,22.8-1.8,33.5c-6.9,0.5-13.4,3.6-20.5,3.7c-7.1,0-14.2-3.5-16.4-10.6c-2.1-6.7,0.3-14.7,1.8-21.2     c1.8-7.9,4.4-15.6,7.5-23.2c4.8-11.9,11.4-26.4,22.5-34c1.9-0.5,3.7-1.4,5.3-2.9c2-0.8,4-1.3,6-1.5c3.1,0.4,6.3,0.5,9.4,0.3     c9.1,1.5,18.2,5.7,26.8,7.4c3.5,0.7,5.4-3.4,2.6-5.6c-3.1-2.4-6.6-4.5-10.3-6.3c15.1-6,28.9-17.1,38.7-28.1     c19.8-22.2,29.5-51.2,36.4-79.6c7.8-32.4,14.2-65.4,19.6-98.3c5.5-33.5,9.1-67.3,8.9-101.3c-0.2-39-4.9-81.5-22-117     c-0.6-1.3-2.6-0.4-2.2,0.9c7.5,32,13.9,63.5,15.1,96.5c0,0.5,0,1,0,1.6c-38.3,15.2-83.6,10.2-118-12.2c-2.8-1.9-6.3,0.9-5.6,4.1     c0.6,2.6,1.1,5.3,1.6,7.9c-11.7-9.8-21.6-21.5-29.4-34.8c-1.8-3-5.7-1.6-6.2,1.5c-0.7,4.2-1.5,8.4-2.3,12.6     c-13.8-19.9-21.2-43.2-24.4-67.3c-3.7-29,0-58.2,2.8-87.1c8.2-15,6.9-36.4,5.6-52.8c-0.6-7.6-1.4-15.3-2-23.1     c12.8-2.4,24-13.5,31.8-23.3c4.6-5.8,8.2-12.4,11.2-19c0.6-1.2,1.1-2.4,1.6-3.7c4.4-8.7,8.8-17.4,15.2-24.9     c5.7-6.6,12.7-11.5,21.2-13.8c9-2.4,18.8-1.6,28.1-2.6c4.2-0.5,8.7-1.7,12.9-3.6c-1.1,5.9-1.2,12.2-1.5,17.4     c-0.5,11.3,0.6,22.8,3.1,33.8c0.4,1.7,0.8,3.4,1.3,5c-0.1,0.6,0,1.3,0.5,1.7c2.3,7.7,5.7,14.9,10.6,21.6     c3.8,5.2,14.1,14.7,21.2,11.3c0.4-0.2,0.4-0.6,0.1-0.9c-2-2.5-5.5-3.6-8.2-5.4c-4.2-2.9-7.4-7.4-9.8-11.8     c-2-3.7-3.5-7.7-4.8-11.9c26.3,6.1,53.5-2.2,76.9-15.1c27.1-15,49.6-36.8,74.7-54.7c25.2-18,53.1-31.2,84.7-30.1     c29.7,1,58.2,13.7,81.4,31.7c19.3,15,34.8,34.8,45.5,56.7c12.6,25.6,15.4,53.8,18.9,81.7c3.5,27.6,9.5,54.1,24.6,77.8     c13.3,20.9,32.2,38.8,54.5,49.7c0.7,0.4,1.4,0.4,2.1,0.4c3.3,2,6.6,4,9.9,5.9c-1.9,0.4-3.9,0.6-5.9,0.7c-3.8,0.2-5.2,4.7-2.1,7     c4.3,3.3,8.7,6.5,13,9.8c-1.7,0.3-3.4,0.5-5.2,0.5c-3.9-2.9-8.5-4.9-13.4-5.2c-2.3-0.1-3.4,3.3-1.3,4.4     c12.7,6.7,20.6,16.5,23.5,30.8C1257.1,817.2,1253.4,835.3,1251.7,851.9z"
   id="path8" />
			<path
   fill="#231F20"
   d="M677.4,393.6c6,0.1,11.2-5.4,14.5-9.7c4-5.3,7.1-11.4,8.3-18c0.9-4.8-1.3-11.9-7.4-11.8     c-2.6,0.1-4.8,0.9-6.6,2.1c-5.4,2.6-9.4,7.4-12.9,12.2c-3.3,4.5-6.8,10.4-6.3,16.2C667.5,390.2,672,393.5,677.4,393.6z"
   id="path10" />
			<path
   fill="#231F20"
   d="M604.5,303.9c-0.5,0.2-0.9,0.5-1.4,0.7c-0.5,0-1.1,0.1-1.6,0.3c-8.7,3.9-24.9,20.1-14.8,29.6     c1.6,1.5,3.5,1.7,5.5,0.9c11.4-4.5,18.3-14.9,20-26.8C612.8,304.4,607.7,302.4,604.5,303.9z"
   id="path12" />
			<path
   fill="#54293A"
   d="M545.8,258.4c4.7-2,9.2-4.5,12.2-8.7c5.5-7.8,3.2-19.4-3.5-26.2c-0.9-0.9-1.9-1.8-2.9-2.5     c-1.3,8.4-2.4,16.9-3.8,25.2C547.3,249.2,546,254,545.8,258.4z"
   id="path14" />
			<path
   fill="#54293A"
   d="M630.7,157.6c11.1-1.9,21.6-6.9,30.3-14c-1.4-0.5-2.8-0.9-4.3-1.3c-21.4-5.6-41,0.6-56.3,13.1     C610.2,158.5,620.7,159.4,630.7,157.6z"
   id="path16" />
			<path
   fill="#9E5626"
   d="M558,249.8c-2.9,4.1-7.4,6.7-12.2,8.7c-0.1,3.5,0.4,6.7,2.7,8.7c5.9,5.1,13.8-1,17.8-5.6     c11.2-13.2,21-27.8,31.6-41.5c10.4-13.5,20.4-27.4,31.1-40.5c8.4-10.3,19.1-19.6,33.3-18c13.2,1.5,20.1,14.6,23.8,25.9     c4.7,14.4,5.7,29.3,3.2,44.2c-0.1,0.3-0.1,0.7-0.3,0.9c0.1,0,0.1,0,0.2,0.1c2.4,1,4.7,2,7.1,3c2.8-18.6,4.9-37.9-0.7-56.1     c-5.3-17.1-17.8-30.1-34.5-35.9c-8.7,7.2-19.2,12.1-30.3,14c-10.1,1.7-20.5,0.9-30.3-2.2c-13,10.7-22.8,25.9-27.8,42.5     c-0.5,1.6-3.2,1.2-2.9-0.5c1.8-12.6,6.7-24.3,13.9-34.3c-0.6,0.2-1.1,0.4-1.6,0.7c-13.9,6.6-22.1,19.2-25.8,33.8     c-2,7.6-3.4,15.5-4.6,23.3c1,0.8,2,1.6,2.9,2.5C561.2,230.3,563.5,241.9,558,249.8z"
   id="path18" />
			<path
   fill="#F57A46"
   d="M631.6,188.9c-2.7,3.6-5.4,7.1-8.1,10.7c9.9,6.5,15.5,21.2,16.5,32.7c2.2,0.3,4.5,0.6,6.7,1     c-1.7-1.2-3.3-2.5-5-3.8c-2-1.5-2.2-3.8-0.6-5.7c5.3-6.2,14.7-3,21.3-1c3,0.9,6.1,1.9,9.1,3c-3.7-9.8-8.4-19.3-16-26.6     C649.2,193,640.4,188.9,631.6,188.9z"
   id="path20" />
			<path
   fill="#D65E34"
   d="M681.2,229.1c1.9-10.8,1.6-22.1-1-32.7c-3.4-13.3-11.6-33.8-29.3-25.5c-7.2,3.4-12.5,9.2-17.3,15.4     c-0.6,0.8-1.3,1.7-1.9,2.5c8.7,0,17.6,4.2,24,10.3c7.5,7.2,12.3,16.7,16,26.6c3.2,1.1,6.4,2.3,9.6,3.6     C681.2,229.2,681.2,229.2,681.2,229.1z"
   id="path22" />
			<path
   fill="#9E5626"
   d="M618.8,205.8c-1.1,1.5-2.2,2.9-3.3,4.4c3.2,2.7,5.3,6.8,7.1,10.4c1.6,3.3,3.4,7,4.2,10.8     c2.5,0,4.9,0.1,7.4,0.3c-1-5.8-2.4-11.4-5.1-16.6c-2.3-4.3-5.4-8.1-8-12.2C620.3,203.9,619.5,204.9,618.8,205.8z"
   id="path24" />
			<path
   fill="#54293A"
   d="M610.3,447.1c9.8-7,5-19.9-1.4-27.4c-6.5-7.6-14-14.5-22-20.5c-7.6-5.7-16.6-12.9-26-15.1     c-4.5-1-10.5-1.2-14.2,2.3c-3.7,3.5-4.5,8.2-4.4,13.1c0.1,10.2,0.8,20.6,2.5,30.6c1.1,6.6,2.8,13.7,7,19.1     c10.3,1.8,20.6,3.2,31.2,3C591.7,452.1,602.9,452.4,610.3,447.1z"
   id="path26" />
			<path
   fill="#7A3915"
   d="M729.7,340.1c7.1,3.8,15.8,3.1,23.7,1.4c7.9-1.8,15.6-4.6,23.7-4.8c6.8-0.2,14.1,2,18.5,6.9     c1.2-0.9,2.3-1.7,3.5-2.5c0.6-3.1,1.2-8.3-2.6-5.6c-1.2,0.9-2,1-3.5,1.1c-1.5,0.1-2.9-1.5-2.7-2.9c0.3-3.2,0.5-6.5-0.2-9.7     c-0.5-2-2.6-9.1-3.6-3.1c-0.4,2.4-3.9,4-5.2,1.2c-2.2-4.7-5.2-9.6-6.8-14.8c-4.7,1.8-9.4,3.7-14.1,5.4c-8.2,3-16.4,6.2-24.8,8.9     c-4.4,1.4-9.9,3-14.7,2.2C719.8,330,723.8,337,729.7,340.1z"
   id="path28" />
			<path
   fill="#9E5626"
   d="M528.8,343.9c3.7,4.1,12-2.4,15.5,1.9c1.3,1.6,1.1,4,2.1,5.7c1.8,3,6,2.9,9.4,3.1     c7.8,0.5,15.1,4.3,21,9.4c5.9,5.1,10.6,11.4,15.3,17.7c21.6-5.4,46.8,8.2,56.6,28.2c2,4.2,3.5,8.6,6,12.5     c2.6,3.9,6.6,7.2,11.2,7.3c2.7-2.8,5.4-5.6,8-8.4c2.3,3,4.7,6,7.9,8c3.2,2,7.5,2.7,10.7,0.9c2.3-1.3,3.8-3.7,5.8-5.5     c3.5-3.4,8.6-4.6,13.4-4c-0.1-0.1-0.3-0.2-0.4-0.4c-0.7-0.7,0.1-2.2,1.1-1.8c9.4,3.8,17.4,9.6,22,18.9c2.7,5.5,6.5,16.7-3.7,16.4     c-2.2-0.1-4.2-2-5.7-3.3c-0.9-0.7-1.7-1.4-2.6-2.1c0,0.2,0,0.5,0,0.7c0.9,3.4,0.6,6.6-2.2,9c-4.6,3.9-11.3-1.5-15.8-6.3     c-1.7,6.1-5.8,11.9-9.4,16.4c-2.6,3.3-5.6,6.4-8.7,9.2c-1.5,2.8-3,5.6-4.6,8.3c-4.6,7.8-9.2,15.5-13.9,23.2     c-7.6,12.5-15.6,27.1-27.2,36.3c-0.9,0.7-1.8,0.9-2.7,0.9c-1.2,7.5-1.4,15.1-1.1,22.8c5.2-1.3,10.3-2.7,15-5.5     c0.8-0.6,1.5-1.2,2.2-1.8c6.4-5.7,10.8-12.4,15.3-19.7c8.1-13.4,13.5-28.5,24.3-40.2c10.7-11.6,23.4-15.8,38.9-16.6     c10.6-0.6,24-1.5,31.1-9.6c0.4-0.7,0.8-1.3,1.3-1.9c0.2-0.2,0.3-0.4,0.5-0.5c1.1-1.8,2-3.8,2.5-6.2c-0.7-1.5,0.4-3.3,2.2-3.3     c2.4,0,3.8,0.7,6,1.5c2,0.7,2.2,2.5,1.4,0c-1.2-3.8-3.2-6.7-6.1-9.4c-1.4-1.3-0.9-3.9,0.8-4.7c2.3-1.2,4.9-1.5,7.4-0.4     c1.8,0.8,4,2.6,6.1,3.3c-0.3-5.3-6.1-10.7-9.7-13.9c-4.9-4.4-10.9-5.5-16.7-8.4c-1.3-0.7-0.9-2.9,0.5-3.2c3.6-0.6,6.9-0.3,10,0.6     c0.2-0.3,0.4-0.5,0.7-0.8c8.9-7.3,11.1-18.7,13.8-29.3c2.8-10.9,6.7-21.1,14.1-29.8c7.5-8.9,17.3-15.4,28.4-19     c12-3.9,26.9-5.3,36.5-14.3c10.4-9.9,9-24.6,7.1-37.6c-1.6-11.1-3.6-23-9.7-32.6c-2.2-3.4-4.7-6-7.5-8.2     c-2.8,0.4-5.7,0.7-8.5,0.8c-10.6,0.4-20.8-2.3-31.2-4.1c-1,7.9-6.4,15.2-13.8,18.3c-0.7-5.2-1.9-9.4-0.4-14.4     c-4.2,7.5-12.4,12.5-20.9,12.7c1.9-6.8,5.6-13.3,12-16.3c-9.8-3.1-20-6.3-27.4-13.4c-1.8-1.7-3.3-3.5-4.7-5.5c0,0,0,0,0,0     c-5.6,8.4-11.2,16.8-16.8,25.3c-0.2,1.1-0.9,2.2-1.8,2.8c-3.1,4.7-6.2,9.5-9.3,14.2c-4.5,7-9.9,14-13.6,21.5     c-3.2,6.5-3.9,18,6.6,17.5c8.4-0.5,16.6-4.9,24.3-7.9c7.4-2.9,14.7-5.7,22.1-8.5c14-5.2,28.2-11.2,43.4-11.9     c12.2-0.6,25.9,1.3,35.7,9.2c8.8,7.1,16.6,19.7,8.5,30.4c-7.2,9.5-22,8-32.4,10.4c-13.5,3.2-26.1,9.2-35.2,20     c-2.6,3.1-8.1-1.3-5.5-4.5c3.3-4.2,7-7.7,11-10.7c-4.4-4.9-11.7-7-18.5-6.9c-8.1,0.2-15.8,3-23.7,4.8c-7.9,1.8-16.5,2.4-23.7-1.4     c-5.8-3.1-9.8-10.1-8.8-16.4c-0.9-0.2-1.9-0.4-2.7-0.8c-12.1-5.1-11.6-18.5-5.8-28.5c6.4-11,13.5-21.6,20.6-32.2     c-11.2-6.3-22.6-12.2-34.2-17.6c-1.1,0-2.2-0.4-2.8-1.3c-1.4-0.6-2.8-1.3-4.2-1.9c-8-3.5-16-6.8-24.3-9.5     c-3.5-1.1-11.1-4.5-16.5-4.5c5.8,4.4,11.9,8.4,18.1,12.1c3.4,2,0.9,7.8-2.9,6.3c-13.4-5.2-27.8-8.1-42.2-7.6     c-2.7,0.1-5.6,0.1-8.4,0.4c5.4,1.2,10.5,3,15.5,5.3c2.7,1.3,1.5,5.3-1,6c-9.1,2.4-18,5.8-26.3,10.4c-3.7,2.1-7.3,4.3-10.8,6.8     c-1.1,0.8-2.4,1.7-3.7,2.6c6.1-1.9,12.5-2.7,19.1-2.3c3.9,0.2,4.6,4.9,1.7,6.9c-16,10.8-28.5,25.4-37.3,42.6     c-3.7,7.3-8.3,13.1-16.9,13.8c-5.2,0.5-10.6,0.3-15.9,0.5c-2.9,0.1-5.7,0.2-8.4,0.1c-0.9,1.6-1.7,3.2-2.5,4.8     C527.9,338.6,527,341.8,528.8,343.9z M676.5,330.2c1.9-1.5,4.3-2.2,6.6-2.6c3.7-0.6,7.4-0.6,11.1-0.3c3.6,0.3,7.3,0.9,10,3.3     c2.7,2.4,3.5,7.1,0.9,9.5c-5.3,3.8-12.3,3.7-18.8,3.5c-2.7-0.1-5.5-0.2-7.9-1.3c-2.5-1-4.7-3.2-4.9-5.9     C673.2,334,674.6,331.7,676.5,330.2z M673.3,368.4c3.5-4.7,7.5-9.6,12.9-12.2c1.8-1.3,3.9-2.1,6.6-2.1c6.1-0.2,8.3,7,7.4,11.8     c-1.2,6.6-4.3,12.7-8.3,18c-3.3,4.3-8.5,9.8-14.5,9.7c-5.3-0.1-9.9-3.3-10.4-8.9C666.5,378.9,670,372.9,673.3,368.4z      M625.5,283.5c1.2-2.5,3-5.1,5.6-6c4.5-1.6,9.4,2.3,10.7,6.9s0,9.4-1.4,14c-1,3.2-2,6.6-4.2,9.2c-2.2,2.6-5.9,4.2-9,3     c-3.9-1.5-5.3-6.3-5.4-10.5C621.7,294.3,623,288.6,625.5,283.5z M601.5,304.9c0.6-0.2,1.1-0.3,1.6-0.3c0.5-0.3,1-0.5,1.4-0.7     c3.2-1.5,8.3,0.5,7.7,4.7c-1.7,11.9-8.6,22.3-20,26.8c-2,0.8-3.9,0.7-5.5-0.9C576.6,325,592.8,308.8,601.5,304.9z"
   id="path30" />
			<path
   fill="#54293A"
   d="M790.7,254.6c-6.3,3-10.1,9.5-12,16.3c8.5-0.3,16.8-5.3,20.9-12.7c-1.5,5-0.3,9.3,0.4,14.4     c7.3-3.2,12.8-10.4,13.8-18.3c10.5,1.8,20.6,4.5,31.2,4.1c2.8-0.1,5.7-0.4,8.5-0.8c-6.7-5.3-14.8-8-22.9-12.1     c-8.6-4.4-17.2-11.1-17.9-21.5c0-0.6,1-0.9,1.2-0.3c4.5,11.5,15.6,15.1,26.2,18.9c-1.7-4-2.8-8.4-4-12.1     c-2.6-8.1-6.5-15.6-13.7-20.5c-6.5-4.4-14.1-7.2-22.1-6.7c-4.4,0.3-8.9,1-12.9,2.9c-1.2,0.6-2.4,1.2-3.7,1.8     c-10.3,6.8-18.3,17.2-25.3,27.6c1.4,2,2.9,3.8,4.7,5.5C770.8,248.3,780.9,251.6,790.7,254.6z"
   id="path32" />
			<path
   fill="#54293A"
   d="M652.7,522.8c4.7-6.5,8.9-13.3,13.1-20c3.7-5.9,7.4-11.8,11.2-17.6c-0.8,0.6-1.6,1.1-2.4,1.7     c-2.3,1.6-4.6,3.1-6.9,4.5c-12.5,11.8-22,27.1-27,43.4c-0.1,0.3-0.2,0.5-0.2,0.8C645,531.8,649.2,527.8,652.7,522.8z"
   id="path34" />
			<path
   fill="#7A3915"
   d="M571.1,493c-1.2-0.9-2.3-1.9-3.4-2.9c-0.4,1.8-1.3,3.6-1.8,5.4c-1.4,4.5-2.8,9.1-3.6,13.8     c-0.7,4.2-1.1,8.6-1,12.9c4.9-8.8,10.9-16.9,17.9-23.8C576.4,496.8,573.7,495,571.1,493z"
   id="path36" />
			<path
   fill="#D65E34"
   d="M590.3,538.4c1.9-5.7,4.2-11.4,6.6-16.9c2.2-4.9,4.4-10,7.3-14.7c-6.5-0.9-12.9-2.7-18.9-5.3     c-7.7,9.7-15.1,19.6-20.5,30.9c-4.2,8.7-7.6,17.9-9.9,27.3C564.7,549.8,577,542.6,590.3,538.4z"
   id="path38" />
			<path
   fill="#F57A46"
   d="M596,536.8c-1.2,3.1-2.2,6.2-3.1,9.4c-2.1,7.8-3.6,15.7-4.5,23.8c-0.8,7.2-1,14.2-2.4,21.3     c-0.1,0.4-0.6,0.3-0.7,0c-4.8-14.6-1.4-32.1,2.8-46.6c0.6-2.1,1.3-4.3,2-6.4c-13.3,4.2-25.6,11.4-35.3,21.3     c-1.2,4.9-2.1,9.8-2.7,14.7c-3.1,26.1,0,59.3,20.1,78.5c9.1,8.7,22.3,13.9,34.9,11.1c13.9-3,22.1-13.9,23.9-27.8     c3.9-30.8-7.5-61.9-1.8-92.7c0.5-2.6,1.1-5.2,1.8-7.8C619.5,533.6,607.5,534,596,536.8z"
   id="path40" />
			<path
   fill="#D65E34"
   d="M620.4,507.5c-2.7,0.2-5.4,0.2-8.1,0.1c-3.6,5.3-7.6,10.4-10.5,16.2c-2.2,4.3-4.1,8.6-5.8,13.1     c11.5-2.8,23.4-3.2,35-1c3.1-11.7,8.3-23.8,15.6-34C638.2,504.9,629.4,506.9,620.4,507.5z"
   id="path42" />
			<path
   fill="#9E5626"
   d="M642.3,881.9c-19.6-27.8-33-60-39-93.5c-0.2,0.6-0.4,1.3-0.6,1.9c-18.5,53.3-43.8,104.2-75.4,150.9     c-2,3-4.1,5.9-6.1,8.9c5.8,11.8,9.7,24.6,11.4,37.7c2-5.2,4.1-10.5,6.1-15.7c7.1,10.9,7.7,25.7,1.7,37.2c3-4.4,4.7-7.7,7.7-12.1     c0.7,11.8-1.4,23.7-6.1,34.6c2.4,3.6,4.3,9.1,5.9,15.5c2.3-4.3,4.6-8.6,6.8-12.9c15.9-29.9,32.4-59.5,49.4-88.7     c8.6-14.7,17.6-29,26.3-43.6C634.5,895.3,638.3,888.6,642.3,881.9z"
   id="path44" />
			<path
   fill="#7A3915"
   d="M657,858.5c0.3-0.4,0.6-0.8,1-1c-0.4-0.6-0.8-1.3-1.2-1.9c-1.3-2.2,1.8-4.3,3.5-2.6     c3.4,3.5,6.4,7.5,9.4,11.4c0.4-3.6,0.8-7.1,1.2-10.7c0.3-2.5,3.4-3.4,4.7-1.1c2.6,4.3,6.1,7.8,10.2,10.3     c-1.9-6.1-4-12.2-5.9-18.3c-2.5-7.7-4-15.6-6.1-23.4c-0.1-0.3-0.1-0.6-0.1-0.9c-3.9-4.5-7.5-9.4-10.9-14.4     c-0.6,4.1-1.2,8.1-1.8,12.2c-0.4,2.8-4,5.1-6.3,2.4c-23.8-29.1-32.2-66-32.5-103.3c-0.6,3.1-1.3,6.2-2,9.4     c-4.6,20.8-10.1,41.6-17,61.9c6,33.5,19.4,65.7,39,93.5C647,874,651.8,866.1,657,858.5z"
   id="path46" />
			<path
   fill="#E2A468"
   d="M788.9,1026.3c0.6,0.1,1.2,0.1,1.8,0.1c3.1-14.3,6.2-28.7,9-43.1c-1.8,1-3.5,2.1-4.8,3.6     c-4.3,4.6-7.4,9.9-9.4,15.9c-1.8,5.5-4.2,12.5-2,18.2C784.3,1023.5,786.3,1025.8,788.9,1026.3z"
   id="path48" />
			<path
   fill="#7A3915"
   d="M996.2,750.8c0.9,0.9,2,1.5,3.1,1.8c-4.6-6.7-8.6-13.8-11.3-21.4c-4.9,7.4-9.6,14.8-14.7,21.7     c-17.3,23.6-40.3,45.6-67.9,56.5c-1,6.5-1.8,13-2.4,19.6c-0.7,8.4-1.1,16.9-1.1,25.3c15.3-5.6,30.1-12.6,44.2-20.8     c6-12.4,11.8-24.9,17.7-37.4c3.4-7.3,6.8-14.6,10.3-21.9c2.5-5.1,4.6-13,9.7-16c0.9-0.5,2,0,2.3,1c0,0.1,0,0.3,0.1,0.4     c1.9,1.4,3.7,2.8,5.6,4.3c-0.6-3.2-1.1-6.4-1.5-9.6C989.7,750.6,993.5,748.3,996.2,750.8z"
   id="path50" />
			<path
   fill="#9E5626"
   d="M904.6,894.7c0.7,4.6,1.5,9.2,2.4,13.7c12.7-23.2,25.1-46.6,36.8-70.4c0.7-1.5,1.5-3.1,2.2-4.6     c-14.1,8.2-28.9,15.2-44.2,20.8C901.8,867.8,902.7,881.4,904.6,894.7z"
   id="path52" />
			<path
   fill="#54293A"
   d="M838.3,897.7c-1.1-10.9-6.3-21.5-14.1-29.2c-1,27.2-4.2,54.3-8.6,81.2c-0.1,0.6-0.2,1.2-0.3,1.8     c0,0,0,0,0,0C830.5,938,840.4,917.8,838.3,897.7z"
   id="path54" />
			<path
   fill="#9E5626"
   d="M1207.7,895.7c5.4,3.9,9.9,9.2,12.8,15.3c1.6-6.5,6.5-12.1,12.7-14.7c-0.9,4.9-1.8,9.8-2.6,14.7     c4.8-3.4,10.2-5.9,15.8-7.3c1.8-17.3,3.5-34.6,5.3-51.8c1.7-16.5,5.4-34.6,2.1-51.2c-2.9-14.2-10.7-24.1-23.5-30.8     c-2.1-1.1-1-4.5,1.3-4.4c5,0.3,9.5,2.3,13.4,5.2c1.8,0,3.5-0.1,5.2-0.5c-4.3-3.3-8.7-6.5-13-9.8c-3.1-2.3-1.7-6.8,2.1-7     c2-0.1,4-0.4,5.9-0.7c-3.3-1.9-6.6-3.9-9.9-5.9c-0.7,0.1-1.4,0-2.1-0.4c-22.3-10.9-41.2-28.7-54.5-49.7     c-4-6.2-7.3-12.7-10.1-19.3c-13.9-2.9-26.8-10.2-35.4-21.4c-15.6-20.4-14.3-50-3.4-73.2c3.8-8.2,8.7-15.8,14.1-23     c-2.2-7.7-5-15.3-8.6-22.6c-10.7-21.9-26.2-41.7-45.5-56.7c-23.2-18-51.8-30.7-81.4-31.7c-7.8-0.3-15.4,0.3-22.8,1.7     c7.4,14.4,11.2,30.6,10.1,46.8c-4.5-5.4-8.9-10.7-13.4-16.1c6.5,24.7,4.2,51.7-6.4,75c-1.6-5.3-2.5-11.6-4.2-16.9     c0.1,17.3-10.2,34.2-25.6,42c-1.6-9.9,0.7-19.2,7.3-26.6c-25.3,24.3-63,34.8-97.2,27.1c-20.8-4.7-40-16.1-54.6-31.7     c-9.8,1.2-19.8,1-29.6-1.3c1.3,4.2,2.8,8.2,4.8,11.9c2.4,4.4,5.6,8.9,9.8,11.8c2.7,1.8,6.1,2.8,8.2,5.4c0.2,0.3,0.2,0.7-0.1,0.9     c-7.1,3.5-17.4-6.1-21.2-11.3c-4.9-6.7-8.2-13.9-10.6-21.6c-0.5-0.5-0.6-1.1-0.5-1.7c-0.5-1.6-0.9-3.3-1.3-5     c-2.5-11-3.7-22.5-3.1-33.8c0,0,0-0.1,0-0.1c-18.6,8.4-36,18.9-49,34.4c-12.6,14.9-20.2,33.3-30.4,50     c-9.2,15-21.7,29.4-38.1,35.3c-0.3,10.6-1.8,21.3-6.5,29.9c-0.9,9.7-2,19.5-2.8,29.3c6.4-10.3,17.7-17.5,29.8-18.5     c-3-4.7-8.2-8-13.8-8.5c9.1-3,19.5-1.4,27.3,4.1c-1.3-4.2-0.8-8.9,1.4-12.8c1.5,4.4,3.1,8.9,4.6,13.3c4.7-12.5,15-22.7,27.5-27.3     c-3,10.1-6,20.1-8.9,30.2c5.7-9,15.6-15.1,26.2-16.2c-4.2,7.1-8.4,14.2-12.7,21.2c22.7,1.5,40.3,20.2,53.3,38.8     c11.8,16.9,22.7,35.6,39.6,47c-1.6-7.7-3.4-15.5-5.2-23.2c-0.3-1.3,1.6-2.1,2.2-0.9c17.1,35.6,21.8,78,22,117     c0,6.7-0.1,13.4-0.3,20.1c7.7,7.8,12.9,18.3,14.1,29.2c2.1,20.1-7.8,40.3-22.9,53.8c0,0,0,0,0,0c-5.3,32.3-11.6,64.7-19.3,96.5     c-3.4,14.2-7.6,28.5-13.3,42.1c9.4-2.6,19.3-3.5,29-2.6c-5.5-6.2-10.9-12.3-16.4-18.5c10.2,1.2,20,5.5,27.6,12.3     c-6.6-8.6-6.8-21.6-0.6-30.5c5.4,8.7,8.7,18.6,9.5,28.8c2.5-7.5,7.9-14,14.7-18c-0.7,4.4-1.5,8.7-2.2,13.1     c8-5.9,16.5-11.1,25.4-15.6c10.6-29.5,18.5-60,24.5-90.9c-2.1-2.2-3.9-4.6-5.6-7.2c-3-4.6,4.5-8.6,7.4-4c1.7,2.6,3.6,4.9,5.8,7.1     c0.2,0.2,0.5,0.4,0.7,0.6c0.9,0.8,1.8,1.6,2.7,2.3c-2.1-5.1-4.2-10.3-6.4-15.4c-1.6-3.9,2-7.6,5.9-5.5c1.1,0.6,2.1,1.1,3.2,1.7     c-2.6-7.2-4.9-14.7-6.7-22.2c-1-1.1-1.6-2.7-1-4.4c-2.1-9.2-3.7-18.6-4.9-27.7c-2.9-22.1-3.4-44.3-1-66.5     c2.4-22.6,7.2-45.1,14.9-66.5c7.2-20.2,16.6-40.5,30.6-56.9c0.8-0.9,2.6,0.2,2.1,1.3c-5.1,11.1-10.4,22.1-15.2,33.2     c12.2-6.3,20.8-18.5,28.1-30.5c8.3-13.7,16.4-28.6,30.1-37c-5.1,0.4-10.3,0.8-15.4,1.2c5.8-6.3,14.1-10.2,22.6-10.7     c-4.8-1.5-8.8-5.2-10.7-9.9c5.1,1.2,9.9,3.5,14.1,6.7c6.4-7.4,14.7-13.1,23.9-16.6c-8.6-19.9-19.4-39.1-36.1-53     c-0.8-0.7,0.3-2.1,1.2-1.5c45.1,31.3,48.9,90.7,78,133.5c7.4,10.8,16.4,20.9,27.7,27.8c12.9,7.9,27.4,12,41.8,16.6     c25.2,8,50.7,19.1,60.9,45.4c5,12.8,6.1,27,5.8,40.7c-0.3,15-1.8,29.9-4.4,44.6c5.5,4.3,10.8,8.7,16,13.4     C1209.3,904.4,1208.5,900,1207.7,895.7z"
   id="path56" />
			<path
   fill="#54293A"
   d="M856.1,581.9c34.2,7.7,71.9-2.8,97.2-27.1c-6.6,7.5-8.9,16.8-7.3,26.6c15.4-7.8,25.7-24.8,25.6-42     c1.6,5.3,2.5,11.6,4.2,16.9c10.6-23.3,13-50.2,6.4-75c4.5,5.4,8.9,10.7,13.4,16.1c1-16.1-2.7-32.4-10.1-46.8     c-22.4,4.1-42.9,14.9-61.9,28.4c-25.1,17.9-47.6,39.7-74.7,54.7c-14.6,8.1-30.8,14.4-47.3,16.4     C816.2,565.8,835.3,577.2,856.1,581.9z"
   id="path58" />
			<path
   fill="#54293A"
   d="M1133.2,656.2c8.6,11.2,21.5,18.5,35.4,21.4c-7.9-18.5-11.9-38.2-14.4-58.6c-2.5-19.9-4.7-40-10.3-59.1     c-5.4,7.2-10.3,14.8-14.1,23C1118.9,606.3,1117.6,635.8,1133.2,656.2z"
   id="path60" />
			<path
   fill="#7A3915"
   d="M678.6,589.6c10.2-16.7,17.8-35.1,30.4-50c13.1-15.4,30.4-25.9,49-34.4c0.3-5.2,0.5-11.4,1.5-17.2     c-4.2,1.9-8.7,3.1-12.9,3.6c-9.2,1-19,0.2-28.1,2.6c-8.5,2.3-15.5,7.2-21.2,13.8c-6.4,7.5-10.8,16.2-15.2,24.9     c-0.5,1.2-1,2.4-1.6,3.7c-3,6.7-6.6,13.3-11.2,19c-7.8,9.7-18.9,20.9-31.8,23.3c0.6,7.7,1.4,15.5,2,23.1c0.6,7,1.1,15,0.9,23     C656.9,619.1,669.4,604.7,678.6,589.6z"
   id="path62" />
			<path
   fill="#F1D994"
   d="M627.2,310.5c3.2,1.2,6.8-0.4,9-3c2.2-2.6,3.2-5.9,4.2-9.2c1.3-4.5,2.6-9.4,1.4-14s-6.2-8.5-10.7-6.9     c-2.7,0.9-4.4,3.5-5.6,6c-2.5,5.1-3.8,10.8-3.7,16.5C621.9,304.1,623.3,309,627.2,310.5z"
   id="path64" />
			<path
   fill="#F1D994"
   d="M678.4,342.3c2.5,1,5.2,1.2,7.9,1.3c6.5,0.3,13.5,0.4,18.8-3.5c2.6-2.4,1.8-7.1-0.9-9.5     c-2.7-2.4-6.4-3-10-3.3c-3.7-0.3-7.5-0.3-11.1,0.3c-2.4,0.4-4.7,1.1-6.6,2.6c-1.9,1.5-3.3,3.8-3,6.2     C673.7,339.1,675.9,341.3,678.4,342.3z"
   id="path66" />
			<g
   id="g72">
				<path
   fill="#7A3915"
   d="M1134.3,472.6c-9.7-9.5-20.6-18-32.4-24.5c-6.8,3.2-14,5.6-21.4,6.9c-3.5,0.6-7.2,1.1-10.9,1.4      c2.8,1.5,5.6,3,8.3,4.6c18.1,11,34.2,25.3,47.2,42.1c11.2-1,22.4-1.9,33.6-2.8C1151.1,490.6,1143.1,481.2,1134.3,472.6z"
   id="path68" />
				<path
   fill="#9E5626"
   d="M1217.2,418.8c8.2-8.5,13.9-18.7,16.7-29.8c-4.5,5.3-9.9,9.9-16,13.7c-3.5,2.1-7.7-1.7-6.5-5.3      c7.5-23.2,5.8-49.2-4.4-71.3c3.6,21.3-1,43.9-12.6,62.2c0.5-6.4,0.9-12.8,1.4-19.2c-11.7,20.7-30.7,36.8-52.6,45.9      c-7.6,9.7-16.7,18.2-27,25c-4.6,3-9.4,5.7-14.3,8c11.9,6.5,22.7,15,32.4,24.5c8.8,8.6,16.8,18,24.3,27.8      c5.8-0.4,11.6-0.8,17.5-1.2c-1.5-3.9-4.8-6.9-8.7-8.4c-3.7-1.4-4-7,0.2-8c10.1-2.3,19.3-6.6,27.2-12.9c-2.4,0.2-4.7,0.4-7.1,0.5      c-4.3,0.3-5.2-5.9-1.9-7.8c18.4-10.4,34.6-24.6,47.1-41.6c-4,1.4-8.1,2.9-12.1,4.3C1216.9,426.8,1214.7,421.4,1217.2,418.8z"
   id="path70" />
			</g>
			<g
   id="g78">
				<path
   fill="#D65E34"
   d="M820.2,314.7c9.2,1.5,17.8,6.4,24.2,13.2c3.2-0.8,6-2.2,7.6-4.7c4.1-6.8-1.3-14.9-6.9-19      c-11.1-8.1-25.5-9.6-38.8-7.2c-9.4,1.7-18.5,4.9-27.4,8.4c1.8,2.6,3.2,5.5,4.6,8.4c1.7-2.2,4.1-3.3,7.2-1.3      c2,1.2,3.3,3.3,4.1,5.8C802.7,314.7,811.7,313.3,820.2,314.7z"
   id="path74" />
				<path
   fill="#F57A46"
   d="M820.2,314.7c-8.6-1.4-17.5,0-25.4,3.7c1.1,3.3,1.4,7.2,1.4,10.6c0.7-0.2,1.4-0.2,2.1-0.3      c1.6-0.1,4.1,1.2,5.1,2.5c1.5,1.9,2.2,4,2.2,6.1c8.8-4.4,18.6-6.9,28.7-8c2.8-0.3,6.6-0.5,10.1-1.4      C838,321.1,829.5,316.3,820.2,314.7z"
   id="path76" />
			</g>
			<g
   id="g88">
				<path
   fill="#F1D994"
   d="M988.9,694c10.5-13.6,22.8-26.7,37.2-35.9c-2.2-5.6-4.4-11.3-6.8-16.9c-9.1,3.5-17.4,9.2-23.9,16.6      c-4.2-3.2-9-5.5-14.1-6.7c1.9,4.7,5.9,8.4,10.7,9.9c-8.5,0.5-16.8,4.4-22.6,10.7c5.1-0.4,10.3-0.8,15.4-1.2      c-13.7,8.4-21.8,23.3-30.1,37c-7.2,12-15.9,24.2-28.1,30.5c-3.8,8.6-7.3,17.4-10.3,26.4c-1.3,4-2.6,8.1-3.7,12.2      c9-5.1,17.5-11.1,25.2-18C958.1,740.2,972.1,715.8,988.9,694z"
   id="path80" />
				<path
   fill="#E2A468"
   d="M1026.1,658.1c-14.4,9.1-26.7,22.2-37.2,35.9c-16.8,21.8-30.7,46.2-51.1,64.7c-7.7,7-16.1,13-25.2,18      c-2.3,8.2-4.3,16.4-5.8,24.7c11.2-7.2,22.3-14.6,32.2-23.5c12.5-11.2,23.1-23.7,32.5-37.6c16.4-24.2,32.4-54.1,60.9-65.8      c-2-5.2-4-10.4-5.9-15.6C1026.3,658.7,1026.2,658.4,1026.1,658.1z"
   id="path82" />
				<path
   fill="#E2A468"
   d="M739.9,773.3c2.1,5.3,2.6,11.2,1.3,16.8c-6.8-9.7-16.6-17.2-27.6-21.4c1.9,6,5.3,12.2,7.2,18.1      c-36.1-10-68.3-32.6-91-62.3c0.2,5.8,0.7,11.6,1.4,17.4c3.1,24.1,10.5,47.4,24.4,67.3c0.8-4.2,1.6-8.4,2.3-12.6      c0.5-3.1,4.4-4.5,6.2-1.5c7.8,13.2,17.7,25,29.4,34.8c-0.5-2.6-1.1-5.3-1.6-7.9c-0.7-3.1,2.8-5.9,5.6-4.1      c34.5,22.5,79.7,27.4,118,12.2c0-0.5,0-1,0-1.6c-0.4-10-1.2-19.8-2.4-29.6c-20.4-0.9-41-4.1-61.1-6.7      C749.9,785,745.7,778.3,739.9,773.3z"
   id="path84" />
				<path
   fill="#F1D994"
   d="M765.9,708.4c-13-18.7-30.6-37.3-53.3-38.8c4.2-7.1,8.4-14.2,12.7-21.2c-10.6,1-20.5,7.2-26.2,16.2      c3-10.1,6-20.1,8.9-30.2c-12.5,4.6-22.8,14.9-27.5,27.3c-1.5-4.4-3.1-8.9-4.6-13.3c-2.1,3.8-2.6,8.6-1.4,12.8      c-7.8-5.5-18.3-7.1-27.3-4.1c5.6,0.5,10.8,3.8,13.8,8.5c-12.1,1-23.4,8.3-29.8,18.5c-1.2,13.5-1.9,27-1.4,40.5      c22.7,29.8,54.9,52.3,91,62.3c-1.9-6-5.3-12.2-7.2-18.1c11.1,4.2,20.8,11.8,27.6,21.4c1.2-5.6,0.7-11.5-1.3-16.8      c5.8,4.9,10,11.7,12,19c20,2.6,40.6,5.8,61.1,6.7c-1.8-14.7-4.4-29.2-7.5-43.7C788.7,744,777.7,725.3,765.9,708.4z"
   id="path86" />
			</g>
			<g
   id="g96">
				<path
   fill="#E2A468"
   d="M500.2,359c-3.4,1.8-6.8,3.6-10.2,5.4c1.2-5.8,4.6-11.1,9.3-14.7c-4,1.1-8,2.2-12.1,3.3      c2.7-6.2,6.9-11.7,12-16.1c-10.5,2.5-22.8,6.8-27.4,15.8c2.9,0.7,5.9,1.3,8.8,1.9c2.6,0.6,3.4,4.4,1.4,6.1      c-3.3,2.9-5.9,6.1-7.6,9.9c2.4-0.7,4.7-1.7,7-3c1.1-0.7,2.2-0.6,3.1-0.2c0.9,0.2,1.7,0.8,2,1.9c2.3,9.2,2,18.8,4.9,27.9      c2.9,9,7.2,17.4,12.4,25.2c4.8,7.1,10.1,15.8,16.8,21.4c6.1,5,16.1,4.8,24.2,5.2c-4-5.2-5.9-12-6.9-18.7c-0.4-2.4-0.7-4.8-1-7.3      C513.9,410.9,498.8,384.9,500.2,359z"
   id="path90" />
				<path
   fill="#F1D994"
   d="M731.8,445.4c-1.2-3.3-2.8-6.7-4.8-9.6c-4.1-5.9-10-10.2-15.1-15.2c-4.8-0.7-9.9,0.6-13.4,4      c-1.9,1.9-3.4,4.2-5.8,5.5c-3.3,1.8-7.5,1.1-10.7-0.9c-3.2-2-5.6-5-7.9-8c-2.7,2.8-5.4,5.6-8,8.4c-4.6-0.1-8.6-3.4-11.2-7.3      c-2.6-3.9-4-8.3-6-12.5c-9.8-20-35-33.6-56.6-28.2c-4.7-6.3-9.4-12.6-15.3-17.7c-5.9-5.1-13.2-9-21-9.4      c-3.5-0.2-7.7-0.1-9.4-3.1c-1.1-1.8-0.8-4.1-2.1-5.7c-3.5-4.2-11.8,2.2-15.5-1.9c-1.8-2-0.9-5.3,0.2-7.7      c0.8-1.6,1.6-3.3,2.5-4.8c-0.1,0-0.2,0-0.3,0c-8.1,1-16.2,2.2-24.2,3.9c-2.3,0.5-5,1-7.8,1.7c-5.1,4.4-9.3,9.9-12,16.1      c4-1.1,8-2.2,12.1-3.3c-4.7,3.6-8.1,8.9-9.3,14.7c3.4-1.8,6.8-3.6,10.2-5.4c-1.4,26,13.7,51.9,36.6,64      c-0.5-4.2-0.9-8.5-1.2-12.7c-0.4-6-1.1-12.4,0.2-18.3c2.3-10.3,12-17.2,22.7-15.5c12,1.9,22.8,9.2,32.4,16.4      c9.9,7.4,20.7,15.9,27.4,26.4c5.7,8.9,8.4,21.4,0.9,30.2c-6.6,7.8-17.2,9.7-27,10.4c14.2,12.6,35,16.5,53.9,13.3      c18.9-3.3,36-12.8,51.6-24.1c0.8-2.2,1.5-4.4,2.6-6.4c0.8-1.5,2.9-1.6,4.1-0.7c0.4,0.2,0.9,0.5,1.2,1c2.5,3.4,5.4,6.9,9.1,9.1      c4.2,2.5,0.5-4.9,1.1-6.9c1.2-3.9,4.9-5.9,8.4-3.2c1.1,0.9,2.2,1.8,3.3,2.7C728.1,445.3,733.5,450.2,731.8,445.4z"
   id="path92" />
				<path
   fill="#E2A468"
   d="M592.2,460c-1.2,0.1-2.3,0.2-3.4,0.2c-11.1,0.6-22.5,0.1-33.5-1.9c11.3,26.6,37.6,42.9,67.2,40      c17.3-1.7,34-9,48.1-19c6.6-4.7,13.2-10,18.5-16.2c2.7-3.1,5.2-6.4,7-10c0.6-1.3,1.2-2.6,1.6-4c-15.5,11.3-32.7,20.8-51.6,24.1      C627.3,476.5,606.4,472.6,592.2,460z"
   id="path94" />
			</g>
			<g
   id="g102">
				<path
   fill="#F1D994"
   d="M1207,326.2c-4.6-9.8-10.8-18.8-18.7-26.5c-11.9-11.5-26.4-19.3-42.2-23.6c5.2,4.7,9.8,9.9,13.6,15.7      c14.4,21.7,18.2,50.1,9.9,74.8c-2.4,7.3-5.9,14.2-10.2,20.5c-4.1,10-9.5,19.4-16.2,27.9c21.9-9,40.9-25.2,52.6-45.9      c-0.5,6.4-0.9,12.8-1.4,19.2C1206,370.1,1210.5,347.5,1207,326.2z"
   id="path98" />
				<path
   fill="#E2A468"
   d="M1159.6,291.8c-3.9-5.8-8.5-11.1-13.6-15.7c-1.3-0.3-2.6-0.7-3.8-1c-10.6-2.5-20.9-2.9-31.2-2      c5.4,1.5,10.6,3.7,15,6.2c10.5,5.8,19.5,13.4,26.5,23.2c15.1,21.1,17.9,48.6,10.8,73.3c-1.1,3.9-2.4,7.6-3.9,11.3      c4.3-6.3,7.8-13.2,10.2-20.5C1177.8,341.9,1174.1,313.5,1159.6,291.8z"
   id="path100" />
			</g>
			<g
   id="g112">
				<path
   fill="#E2A468"
   d="M1091.6,1021.8c0.5,2.6,1.3,5.1,2.5,7.5c4.5,9,13.6,12.9,22.6,10.4c-0.9-1.6-1.6-3.5-2-5.6      c-0.7-3.7-1-7.5-1-11.3C1106.6,1025,1098.6,1024.5,1091.6,1021.8z"
   id="path104" />
				<path
   fill="#F1D994"
   d="M1246.4,903.7c-5.7,1.4-11.1,3.9-15.8,7.3c0.9-4.9,1.8-9.8,2.6-14.7c-6.2,2.5-11.1,8.2-12.7,14.7      c-2.9-6-7.3-11.4-12.8-15.3c0.8,4.3,1.5,8.7,2.3,13c-5.2-4.6-10.5-9.1-16-13.4c-0.3,1.5-0.5,3-0.8,4.6      c-4.5,23.1-11.4,58.9-38.6,65.6c-14,3.5-28.5,1-41.5,8.6c-10.2,6-17.9,15.5-20.7,27.1c-1.5,6.4-2.2,13.8-0.9,20.6      c7,2.7,14.9,3.2,22.1,1c0-15.4,5.8-30.8,16.6-41.7c0.6-0.6,2,0.1,1.6,1c-6,13.1-10.5,27.9-9.7,42.5c4.6,2.6,10.6,2.9,16,1.3      c4.6-1.3,8.7-3.7,12.6-6.4c-0.2-4.1,0.1-8.3,0.5-12.2c1.5-13.1,6.4-25,16.6-33.7c3.1-2.6,7.3,1.8,4.3,4.6      c-3.4,3.3-6.3,7.1-8,11.6c-2.7,7-4.3,14.2-4.3,21.8c0,1.6-0.1,3.3-0.1,5.1c8.4,5.5,18.3,5,28.5,2.3      c14.3-3.9,27.8-10.6,39.7-19.5c7.7-13.4,10.9-28.8,12.8-44C1242.8,938.3,1244.7,921,1246.4,903.7z"
   id="path106" />
				<path
   fill="#E2A468"
   d="M1159.8,1016.7c-0.1,5.8,0.3,12.3,3.4,16.6c8.6,11.9,25.8,1.9,35.2-3.9c11.7-7.2,22-17.1,29-29      c0.2-0.3,0.4-0.6,0.5-1c-11.9,8.9-25.4,15.6-39.7,19.5C1178.1,1021.7,1168.2,1022.2,1159.8,1016.7z"
   id="path108" />
				<path
   fill="#E2A468"
   d="M1122.2,1024.6c0,0.3,0,0.5,0,0.8c0.3,4.5,1.2,9.1,3.9,11.9c0.6,0.3,1.1,0.7,1.5,1.2      c1.6,1,3.5,1.6,6.1,1.5c3.8-0.1,7.6-0.8,11.1-2.1c3-1.1,5.8-3,8.9-3.8c-1.9-4.5-2.8-9.5-3-14.6c-3.9,2.7-8,5.1-12.6,6.4      C1132.8,1027.5,1126.8,1027.2,1122.2,1024.6z"
   id="path110" />
			</g>
			<g
   id="g124">
				<path
   fill="#E2A468"
   d="M620.1,1195c-1.2,2.2-2.4,4.4-3.5,6.6c-2.9,5.9-6.9,13-6.3,19.9c1.2,14.3,16.9,14.2,28.4,14      c0.1-3.2,0.6-6.5,1.2-9.7c0.9-4.7,2-9.3,3.3-13.9c-5.3-0.9-10.4-3.1-14.6-6.4C625.1,1202.6,622.2,1199.1,620.1,1195z"
   id="path114" />
				<path
   fill="#F1D994"
   d="M666.8,1163.2c-4.5-1.1-9-2.4-12.9-2.3c-12.9,0.3-20.7,12.7-26.9,22.4c-2.4,3.8-4.8,7.7-6.9,11.7      c2.1,4,5,7.6,8.6,10.4c4.2,3.3,9.3,5.5,14.6,6.4c1.4-5,3.1-10,5.1-14.8C652.6,1186.4,658.3,1172.9,666.8,1163.2z"
   id="path116" />
				<path
   fill="#E2A468"
   d="M669.5,1226.1c-6.7-1.6-12.3-6-16.5-11.5c-0.6,2.2-1.2,4.5-1.8,6.8c-1.5,6.5-3.9,14.6-1.8,21.2      c2.2,7,9.3,10.6,16.4,10.6c7.1,0,13.6-3.2,20.5-3.7c-2.1-7.6-1.7-16-0.3-24C680.7,1227.2,674.9,1227.4,669.5,1226.1z"
   id="path118" />
				<path
   fill="#F1D994"
   d="M829.2,1144.4c16.7-27,29.9-55.6,40.6-85.2c-8.9,4.5-17.3,9.7-25.4,15.6c0.7-4.4,1.5-8.7,2.2-13.1      c-6.8,4-12.2,10.5-14.7,18c-0.8-10.2-4.1-20.1-9.5-28.8c-6.2,8.9-6,21.8,0.6,30.5c-7.7-6.8-17.5-11.2-27.6-12.3      c5.5,6.2,10.9,12.3,16.4,18.5c-9.7-0.9-19.6,0-29,2.6c-5.8,13.6-13.1,26.4-23.1,37.5c-9.9,11.1-23.7,22.1-38.7,28.1      c3.7,1.8,7.2,3.9,10.3,6.3c2.8,2.2,1,6.3-2.6,5.6c-8.6-1.7-17.7-5.9-26.8-7.4c-3.1,0.2-6.3,0.1-9.4-0.3c-2,0.3-4,0.7-6,1.5      c-1.6,1.5-3.4,2.4-5.3,2.9c-11.1,7.5-17.7,22.1-22.5,34c-2.2,5.4-4.1,10.8-5.7,16.4c4.2,5.5,9.8,9.9,16.5,11.5      c5.4,1.3,11.1,1.1,16.5-0.5c0.6-3.3,1.3-6.5,2.1-9.6c3.7-14.1,10.5-27.5,20.3-38.4c2-2.2,5.1,0.8,3.8,3.1      c-7,12.5-12.7,25.6-15.5,39.8c-0.2,1-0.4,2.1-0.6,3.3c21,5.8,42.7,7,63.7,3.6c5-4.4,9.9-9,14.7-13.7      C795.3,1192.9,813.7,1169.6,829.2,1144.4z"
   id="path120" />
				<path
   fill="#E2A468"
   d="M696,1223.8c-1.9,10.3-3.9,26.4,6,31.8c13.7,7.4,28.8-5,39.2-13c6.3-4.8,12.5-9.9,18.5-15.2      C738.7,1230.8,717,1229.6,696,1223.8z"
   id="path122" />
			</g>
			<g
   id="g136">
				<path
   fill="#E2A468"
   d="M315.9,1104.6c-2.8,6.4-5.3,13-7,19.7c-1.4,5.5-2.8,13.4,1.6,18.2c3.3,3.5,7.9,4.3,11.2,0.5      c0.6-0.7,1.2-1,1.9-1.2c0.6-6,2.7-12.1,4.5-17.4c1-2.8,2-5.5,3-8.2C324.9,1114.5,319.2,1110.2,315.9,1104.6z"
   id="path126" />
				<path
   fill="#F1D994"
   d="M363.5,1062.4c-1.9-1-3.8-2-6.1-2.3c-4.9-0.8-9.9-0.1-14.2,2.5c-9.9,5.9-15.3,16.1-20,26.2      c-2.4,5.2-4.9,10.5-7.2,15.8c3.3,5.6,8.9,9.9,15.3,11.5c3.1-7.9,6.6-15.7,10.7-23.2C347.4,1082.8,354.3,1070.9,363.5,1062.4z"
   id="path128" />
				<path
   fill="#F1D994"
   d="M508.8,1109.4c15.5-19.2,27.5-40.6,39.1-62.2c-1.6-6.4-3.5-11.9-5.9-15.5c4.6-10.9,6.7-22.8,6.1-34.6      c-3,4.4-4.7,7.7-7.7,12.1c6-11.5,5.4-26.3-1.7-37.2c-2,5.2-4.1,10.5-6.1,15.7c-1.7-13.1-5.6-25.8-11.4-37.7      c-29.7,42.4-64.6,82.4-104.4,115.5c0.8,2,1.3,4.2,1.3,6.6c0,2.9-3.9,3.5-5.2,1.2c-6.5-11.1-20-16.9-32.3-11.1      c-14.6,6.9-23.6,21.7-30.9,35.5c-3.8,7.1-7.2,14.4-10.1,21.8c9.9,8.3,24.5,12.1,37.2,9.6c0.4-0.7,0.7-1.3,1.1-2      c7.1-13.1,15.5-26.6,25.9-37.3c9.2-9.6,21.9-15.4,35.1-10.2c13.9,5.4,22.3,16.6,29,29.4c1.1,2.1-1.7,4.2-3.3,2.4      c-10.2-11.5-26.4-33.3-44.5-23.8c-7.9,4.1-13.4,11.4-18.5,18.5c-5.1,7.3-9.9,14.8-14.2,22.6c-0.4,0.7-0.8,1.5-1.3,2.3      c17.4,15.3,41.1,21.5,64.3,18.8c4.7-0.6,9.4-1.4,14-2.6C481.4,1137.6,496.4,1124.8,508.8,1109.4z"
   id="path130" />
				<path
   fill="#E2A468"
   d="M386.1,1131c-3.7,6.3-8.9,14.3-7.6,21.3c1.1,6,4.9,11.7,11,13.4c7.2,2,16.2,0.3,23.4-0.8      c8-1.3,16-3,23.8-5.5c9.7-3.1,19-7.2,27.7-12.2c-4.6,1.1-9.3,2-14,2.6C427.2,1152.5,403.6,1146.3,386.1,1131z"
   id="path132" />
				<path
   fill="#E2A468"
   d="M339.6,1119.7c-0.5,1.2-0.9,2.5-1.4,3.7c-2.7,7.4-7.3,17.3-5.3,25.3c1.9,7.6,9.1,11.7,16.7,11.6      c7.4-0.1,13.6-3.1,20.3-5.5c-1.4-9,2.4-17.2,6.9-25.6C364.1,1131.7,349.5,1128,339.6,1119.7z"
   id="path134" />
			</g>
			
				<ellipse
   transform="matrix(0.7071 0.7071 -0.7071 0.7071 396.663 -333.7196)"
   fill="#FFFFFF"
   cx="601.2"
   cy="312"
   rx="3.2"
   ry="5.7"
   id="ellipse138" />
			
				<ellipse
   transform="matrix(0.7071 0.7071 -0.7071 0.7071 458.0035 -379.142)"
   fill="#FFFFFF"
   cx="686.7"
   cy="363.3"
   rx="3.2"
   ry="5.7"
   id="ellipse140" />
		</g>
	</g>
</g>
</svg>
