<?xml version="1.0" encoding="UTF-8" standalone="no"?>
<!-- Created with Inkscape (http://www.inkscape.org/) -->
<svg version="1.0"
   xmlns:svg="http://www.w3.org/2000/svg"
   xmlns="http://www.w3.org/2000/svg"
   viewBox="0 0 1135 714" width="100%" height="100%">
  <g>
    <rect
       width="1041"
       height="170"
       x="47"
       y="37"
       style="opacity:1;fill:#1b1d74;fill-opacity:1;fill-rule:evenodd;stroke:none;stroke-width:1;stroke-linejoin:round;stroke-miterlimit:4;stroke-dasharray:none;stroke-opacity:1"
       id="rect1441" />
    <path
       d="M 0,0 L 0,714 L 1135,714 L 1135,0 L 0,0 z M 13,13 L 1122,13 L 1122,702 L 13,702 L 13,13 z "
       style="opacity:1;fill:#1b1d74;fill-opacity:1;fill-rule:evenodd;stroke:none;stroke-width:9;stroke-linejoin:miter;stroke-miterlimit:4;stroke-dasharray:none;stroke-opacity:1"
       id="rect2316" />
    <rect
       width="1041"
       height="170"
       x="47"
       y="507"
       style="opacity:1;fill:#e59703;fill-opacity:1;fill-rule:evenodd;stroke:none;stroke-width:1;stroke-linejoin:round;stroke-miterlimit:4;stroke-dasharray:none;stroke-opacity:1"
       id="rect3194" />
    <path
       d="M 226.42183,245.45556 L 226.47692,238.40398 L 333.5177,240.44232 L 335.41832,390.45367 L 423.53553,241.43395 L 476.51514,241.51669 L 335.51808,475.47949 L 275.44971,475.47949 C 275.44971,475.47949 272.28612,356.05859 270.54798,297.23214 C 269.07175,247.27007 246.10154,251.6257 226.42183,245.45556 z "
       style="fill:#1b1d74;fill-opacity:1;fill-rule:evenodd;stroke:none;stroke-width:1px;stroke-linecap:butt;stroke-linejoin:miter;stroke-opacity:1"
       id="path3214" />
    <path
       d="M 421.64477,475.51844 L 482.49471,475.51844 L 558.61736,239.45069 L 498.34839,239.45069 L 421.64477,475.51844 z "
       style="fill:#1b1d74;fill-opacity:1;fill-rule:evenodd;stroke:none;stroke-width:1px;stroke-linecap:butt;stroke-linejoin:miter;stroke-opacity:1"
       id="path4089" />
    <path
       d="M 721.1091,292.45129 C 721.1091,292.45129 688.86991,272.38195 671.07447,272.38195 C 659.6382,272.38195 639.12137,282.69592 639.12137,300.49753 C 639.12137,337.65312 707.51374,335.98292 707.51374,396.40495 C 707.51374,424.76243 691.80386,478.53203 608.46181,478.53203 C 552.06413,478.53203 528.97279,453.85546 528.97279,453.85546 L 548.43875,418.50897 C 548.43875,418.50897 572.98816,436.54363 606.6121,436.54363 C 631.47558,436.54363 647.67565,426.80619 647.67565,411.9425 C 647.67565,381.63206 573.50231,368.65938 573.50231,316.12757 C 573.50231,273.62942 612.72223,233.53806 672.55423,233.53806 C 721.60315,233.53806 744.50792,262.02358 744.50792,262.02358 L 721.1091,292.45129 z "
       style="fill:#1b1d74;fill-opacity:1;fill-rule:evenodd;stroke:none;stroke-width:1px;stroke-linecap:butt;stroke-linejoin:miter;stroke-opacity:1"
       id="path4964" />
    <path
       d="M 897.5,241.4375 L 829.53125,241.46875 L 702.46875,475.5 L 756.75,475.5 L 780.5625,428.46875 L 849.40625,428.46875 L 849.5,475.5 L 907.5625,475.5 L 897.5,241.4375 z M 840.5,306.65625 L 847.5,390.46875 L 796.46875,390.5 L 840.5,306.65625 z "
       style="fill:#1b1d74;fill-opacity:1;fill-rule:evenodd;stroke:none;stroke-width:1px;stroke-linecap:butt;stroke-linejoin:miter;stroke-opacity:1"
       id="path5839" />
  </g>
</svg>
