<?xml version="1.0" encoding="UTF-8" standalone="no"?>
<svg
   id="barcode"
   viewBox="0 0 242 142"
   version="1.1"
   sodipodi:docname="bar code.svg"
   inkscape:version="1.3.2 (091e20ef0f, 2023-11-25)"
   xmlns:inkscape="http://www.inkscape.org/namespaces/inkscape"
   xmlns:sodipodi="http://sodipodi.sourceforge.net/DTD/sodipodi-0.dtd"
   xmlns="http://www.w3.org/2000/svg"
   xmlns:svg="http://www.w3.org/2000/svg">
  <defs
     id="defs32" />
  <sodipodi:namedview
     id="namedview32"
     pagecolor="#505050"
     bordercolor="#ffffff"
     borderopacity="1"
     inkscape:showpageshadow="0"
     inkscape:pageopacity="0"
     inkscape:pagecheckerboard="1"
     inkscape:deskcolor="#d1d1d1"
     showguides="true"
     inkscape:zoom="4"
     inkscape:cx="99.75"
     inkscape:cy="33.875"
     inkscape:window-width="3440"
     inkscape:window-height="1363"
     inkscape:window-x="0"
     inkscape:window-y="40"
     inkscape:window-maximized="1"
     inkscape:current-layer="barcode">
    <sodipodi:guide
       position="130.62686,32.002114"
       orientation="0,-1"
       id="guide32"
       inkscape:locked="false" />
  </sodipodi:namedview>
  <rect
     x="0"
     y="0"
     width="242"
     height="142"
     style="fill:#ffffff;"
     id="rect1" />
  <g
     transform="translate(26, 10)"
     style="fill:#000000;"
     id="g5">
    <rect
       x="0"
       y="0"
       width="2"
       height="99.997887"
       id="rect2" />
    <rect
       x="4"
       y="0"
       width="2"
       height="99.997887"
       id="rect3" />
    <rect
       x="8"
       y="0"
       width="2"
       height="99.997887"
       id="rect4" />
    <rect
       x="16"
       y="0"
       width="4"
       height="99.997887"
       id="rect5" />
    <text
       style="font: 20px monospace"
       text-anchor="middle"
       x="10"
       y="134"
       id="text5" />
  </g>
  <g
     transform="translate(46, 10)"
     style="fill:#000000;"
     id="g15">
    <rect
       x="6"
       y="0"
       width="4"
       height="100"
       id="rect6" />
    <rect
       x="12"
       y="0"
       width="2"
       height="100"
       id="rect7" />
    <rect
       x="20"
       y="0"
       width="4"
       height="100"
       id="rect8" />
    <rect
       x="26"
       y="0"
       width="2"
       height="100"
       id="rect9" />
    <rect
       x="34"
       y="0"
       width="4"
       height="100"
       id="rect10" />
    <rect
       x="40"
       y="0"
       width="2"
       height="100"
       id="rect11" />
    <rect
       x="44"
       y="0"
       width="2"
       height="100"
       id="rect12" />
    <rect
       x="48"
       y="0"
       width="8"
       height="100"
       id="rect13" />
    <rect
       x="58"
       y="0"
       width="4"
       height="100"
       id="rect14" />
    <rect
       x="68"
       y="0"
       width="2"
       height="100"
       id="rect15" />
    <text
       style="font-style:normal;font-variant:normal;font-weight:normal;font-stretch:normal;font-size:20px;line-height:normal;font-family:monospace"
       text-anchor="middle"
       x="86.151367"
       y="122"
       id="text15">4-0006-520996</text>
  </g>
  <g
     transform="translate(116, 10)"
     style="fill:#000000;"
     id="g17">
    <rect
       x="2"
       y="0"
       width="2"
       height="99.997887"
       id="rect16" />
    <rect
       x="6"
       y="0"
       width="2"
       height="99.99675"
       id="rect17" />
    <text
       style="font: 20px monospace"
       text-anchor="middle"
       x="5"
       y="134"
       id="text17" />
  </g>
  <rect
     x="126"
     y="10"
     width="4"
     height="100"
     id="rect18"
     style="fill:#000000" />
  <rect
     x="132"
     y="10"
     width="4"
     height="100"
     id="rect19"
     style="fill:#000000" />
  <rect
     x="140"
     y="10"
     width="6"
     height="100"
     id="rect20"
     style="fill:#000000" />
  <rect
     x="150"
     y="10"
     width="2"
     height="100"
     id="rect21"
     style="fill:#000000" />
  <rect
     x="154"
     y="10"
     width="6"
     height="100"
     id="rect22"
     style="fill:#000000" />
  <rect
     x="162"
     y="10"
     width="2"
     height="100"
     id="rect23"
     style="fill:#000000" />
  <rect
     x="168"
     y="10"
     width="6"
     height="100"
     id="rect24"
     style="fill:#000000" />
  <rect
     x="176"
     y="10"
     width="2"
     height="100"
     id="rect25"
     style="fill:#000000" />
  <rect
     x="182"
     y="10"
     width="2"
     height="100"
     id="rect26"
     style="fill:#000000" />
  <rect
     x="186"
     y="10"
     width="2"
     height="100"
     id="rect27"
     style="fill:#000000" />
  <g
     transform="translate(196, 10)"
     style="fill:#000000;"
     id="g31">
    <rect
       x="0"
       y="0"
       width="2"
       height="99.997887"
       id="rect28" />
    <rect
       x="6"
       y="0"
       width="6"
       height="99.997887"
       id="rect29" />
    <rect
       x="14"
       y="0"
       width="2"
       height="99.997887"
       id="rect30" />
    <rect
       x="18"
       y="0"
       width="2"
       height="99.997887"
       id="rect31" />
    <text
       style="font: 20px monospace"
       text-anchor="middle"
       x="10"
       y="134"
       id="text31" />
  </g>
</svg>
