<?xml version="1.0" standalone="no"?>
<!--Created with Inkscape (http://www.inkscape.org/)-->
<svg xmlns="http://www.w3.org/2000/svg" xmlns:xlink="http://www.w3.org/1999/xlink" viewBox="0 0 48 48">
  <defs>
    <linearGradient id="f">
      <stop offset="0" stop-color="white" stop-opacity="1"/>
      <stop offset="1" stop-color="white" stop-opacity=".53725493"/>
    </linearGradient>
    <linearGradient id="d">
      <stop offset="0" stop-color="#000" stop-opacity=".46000001"/>
      <stop offset="1" stop-color="#000" stop-opacity="0"/>
    </linearGradient>
    <linearGradient id="c">
      <stop offset="0" stop-color="#fff" stop-opacity="1"/>
      <stop offset="1" stop-color="#fff" stop-opacity="0"/>
    </linearGradient>
    <linearGradient id="b">
      <stop offset="0" stop-color="#fff" stop-opacity="1"/>
      <stop offset="1" stop-color="#fff" stop-opacity="0"/>
    </linearGradient>
    <linearGradient id="a">
      <stop offset="0.0000000" stop-color="#000" stop-opacity=".26041666"/>
      <stop offset="1" stop-color="#000" stop-opacity="0"/>
    </linearGradient>
    <linearGradient id="e">
      <stop offset="0" stop-color="#1fdc49" stop-opacity="1"/>
      <stop offset="1" stop-color="#17af3a" stop-opacity="1"/>
    </linearGradient>
    <radialGradient xlink:href="#a" id="h" gradientUnits="userSpaceOnUse" gradientTransform="matrix(1,0,0,0.175824,-6.386555e-14,81.60896)" cx="51.752022" cy="99.018867" fx="51.752022" fy="99.018867" r="47.094337"/>
    <linearGradient xlink:href="#b" x1="-4.8199644" y1="44.156403" x2="86.398415" y2="61.867584" gradientUnits="userSpaceOnUse"/>
    <linearGradient xlink:href="#c" id="j" x1="50.514881" y1="-1.380053" x2="64.431267" y2="85.045822" gradientUnits="userSpaceOnUse" gradientTransform="matrix(0.452128,0,0,0.386112,-5.619572,-3.058537)"/>
    <linearGradient xlink:href="#d" id="g" x1="73.487869" y1="154.91104" x2="78.663643" y2="89.624825" gradientUnits="userSpaceOnUse" gradientTransform="matrix(0.375733,0,0,0.396985,-1.280168,-1.527065)"/>
    <linearGradient xlink:href="#e" id="i" gradientUnits="userSpaceOnUse" gradientTransform="matrix(2.024998e-2,-0.717685,0.71903,1.3287e-2,-15.486,53.439)" x1="37.520218" y1="46.576817" x2="43.730457" y2="74.78167"/>
    <linearGradient xlink:href="#f" id="k" x1="11.375" y1="9" x2="21.593128" y2="34.860977" gradientUnits="userSpaceOnUse" gradientTransform="matrix(1.088236,0,0,1.088235,-0.441177,-3.794118)"/>
  </defs>
  <metadata/>
  <path d="M 23.025975,43.739905 C 23.025975,43.739905 45.193177,40.247297 44.998728,36.54924 C 44.804279,32.85118 11.359026,33.672971 11.553476,36.343792 C 11.747924,39.014611 17.1925,44.150802 23.025975,43.739905 z " fill="url(#g)" fill-opacity="1" fill-rule="evenodd" stroke="none" stroke-width=".25pt" stroke-linecap="butt" stroke-linejoin="miter" stroke-opacity="1"/>
  <path style="marker:none" d="M 98.846359 99.018867 A 47.094337 8.280323 0 1 1  4.6576843,99.018867 A 47.094337 8.280323 0 1 1  98.846359 99.018867 z" transform="matrix(-0.366142,0,0,0.390908,41.27074,5.055885)" opacity="1" color="#000" fill="url(#h)" fill-opacity="1" fill-rule="evenodd" stroke="none" stroke-width="2.99999905" stroke-linecap="round" stroke-linejoin="round" marker-start="none" marker-mid="none" marker-end="none" stroke-miterlimit="4" stroke-dasharray="none" stroke-dashoffset="0" stroke-opacity="1" visibility="visible" display="inline" overflow="visible"/>
  <path d="M 5.7021507,10.871869 C 11.122036,3.4374932 36.571503,3.9077745 41.536789,11.534059 C 46.502071,19.160344 30.005158,43.588106 22.650222,43.452197 C 15.293537,43.316254 0.28226419,18.306247 5.7021507,10.871869 z " fill="url(#i)" fill-opacity="1" fill-rule="evenodd" stroke="#007f0a" stroke-width="1.09447634" stroke-linecap="butt" stroke-linejoin="miter" stroke-miterlimit="4" stroke-dasharray="none" stroke-opacity="1"/>
  <path style="marker:none" d="M 40.943448,17.389777 C 40.118271,20.478204 41.025787,25.066644 37.870616,27.092027 C 30.486408,19.026466 11.998244,22.882274 9.255662,27.351064 C 6.8225206,24.426489 6.8017111,20.877846 6.0796797,17.389777 C 5.0482075,7.4163286 14.198607,5.9999997 23.821008,5.9999997 C 33.44341,5.9999997 41.768624,8.6152527 40.943448,17.389777 z " color="#000" fill="url(#j)" fill-opacity="1" fill-rule="evenodd" stroke="none" stroke-width="2.99999905" stroke-linecap="round" stroke-linejoin="round" marker-start="none" marker-mid="none" marker-end="none" stroke-miterlimit="4" stroke-dashoffset="0" stroke-opacity="1" visibility="visible" display="inline" overflow="visible"/>
  <path d="M 6.6148613,11.570749 C 11.756803,4.5176212 35.901172,4.9637855 40.611825,12.198978 C 45.322478,19.434174 29.67156,42.609232 22.693801,42.480289 C 15.714383,42.35132 1.4729167,18.623875 6.6148613,11.570749 z " fill="none" fill-opacity="1" fill-rule="evenodd" stroke="url(#k)" stroke-width="1.03834951" stroke-linecap="butt" stroke-linejoin="miter" stroke-miterlimit="4" stroke-dasharray="none" stroke-opacity="1"/>
</svg>
