<?xml version="1.0" encoding="UTF-8" standalone="no"?>
<svg
   viewBox="0 0 384.00001 240"
   sodipodi:docname="individual.svg"
   inkscape:version="1.3 (0e150ed6c4, 2023-07-21)"
   version="1.1"
   id="svg1"
   xml:space="preserve"
   xmlns:inkscape="http://www.inkscape.org/namespaces/inkscape"
   xmlns:sodipodi="http://sodipodi.sourceforge.net/DTD/sodipodi-0.dtd"
   xmlns:xlink="http://www.w3.org/1999/xlink"
   xmlns="http://www.w3.org/2000/svg"
   xmlns:svg="http://www.w3.org/2000/svg"><sodipodi:namedview
     id="namedview7"
     pagecolor="#ffffff"
     bordercolor="#ffffff"
     borderopacity="1"
     inkscape:showpageshadow="0"
     inkscape:pageopacity="0"
     inkscape:pagecheckerboard="1"
     inkscape:deskcolor="#505050"
     inkscape:document-units="mm"
     showgrid="false"
     inkscape:zoom="2.5580159"
     inkscape:cx="184.71347"
     inkscape:cy="117.86479"
     inkscape:window-width="1865"
     inkscape:window-height="1310"
     inkscape:window-x="26"
     inkscape:window-y="23"
     inkscape:window-maximized="0"
     inkscape:current-layer="g17" /><defs
     id="defs2"><linearGradient
       id="linearGradient2"
       inkscape:collect="always"><stop
         style="stop-color:#d60707;stop-opacity:1;"
         offset="0"
         id="stop2" /><stop
         style="stop-color:#e91aff;stop-opacity:1;"
         offset="0.59202492"
         id="stop4" /><stop
         style="stop-color:#071bd6;stop-opacity:1;"
         offset="1"
         id="stop3" /></linearGradient><filter
       style="color-interpolation-filters:sRGB"
       inkscape:label="Drop Shadow"
       id="filter8156"
       x="-0.070596823"
       y="-0.14134791"
       width="1.1630277"
       height="1.3555556"><feFlood
         flood-opacity="0.803922"
         flood-color="rgb(0,0,0)"
         result="flood"
         id="feFlood8146" /><feComposite
         in="flood"
         in2="SourceGraphic"
         operator="in"
         result="composite1"
         id="feComposite8148" /><feGaussianBlur
         in="composite1"
         stdDeviation="0.6"
         result="blur"
         id="feGaussianBlur8150" /><feOffset
         dx="0.6"
         dy="1"
         result="offset"
         id="feOffset8152" /><feComposite
         in="SourceGraphic"
         in2="offset"
         operator="over"
         result="composite2"
         id="feComposite8154" /></filter><filter
       inkscape:label="Basic Two Lights Bump"
       inkscape:menu="Bumps"
       inkscape:menu-tooltip="Two types of lighting emboss effect"
       style="color-interpolation-filters:sRGB"
       id="filter14"
       x="-0.01596131"
       y="-0.038373064"
       width="1.0319226"
       height="1.0767461"><feColorMatrix
         result="result2"
         type="luminanceToAlpha"
         in="SourceGraphic"
         id="feColorMatrix11" /><feSpecularLighting
         specularConstant="0.5"
         surfaceScale="-15"
         specularExponent="10"
         result="result10"
         id="feSpecularLighting11"><feDistantLight
           elevation="20"
           azimuth="225"
           id="feDistantLight11" /></feSpecularLighting><feDiffuseLighting
         diffuseConstant="0.5"
         surfaceScale="15"
         id="feDiffuseLighting12"><feDistantLight
           azimuth="225"
           elevation="20"
           id="feDistantLight12" /></feDiffuseLighting><feComposite
         result="result11"
         in2="result10"
         operator="arithmetic"
         k2="0.5"
         k3="0.5"
         id="feComposite12"
         k1="0"
         k4="0" /><feComposite
         in="result11"
         result="result9"
         operator="arithmetic"
         k2="1"
         k3="1"
         in2="SourceGraphic"
         id="feComposite13"
         k1="0"
         k4="0" /><feComposite
         in2="SourceGraphic"
         operator="in"
         in="result9"
         id="feComposite14" /></filter><style
       id="style1"><![CDATA[
      @font-face {
        font-family: 'Florida Girl Sans';
        src:
          local('Florida Girl Sans'),
          url('Florida Girl Sans.woff') format('woff')
        ;
      }
      @font-face {
        font-family: Angelic;
        src:
          local('Angelic'),
          url('Angelic.woff') format('woff')
        ;
      }
      @font-face {
        font-family: 'Collge Filled';
        src:
          local('Collge Filled'),
          url('Collge Filled.woff') format('woff')
        ;
      }
      @font-face {
        font-family: 'C059';
        src:
          local('C059'),
          url('C059.woff') format('woff')
        ;
      }
      @font-face {
        font-family: 'Bisetron';
        src:
          local('Bisetron'),
          url('Bisetron.woff') format('woff')
        ;
      }
    ]]></style><linearGradient
       inkscape:collect="always"
       xlink:href="#linearGradient2"
       id="linearGradient3"
       x1="-3.8704137"
       y1="178.50755"
       x2="245.97602"
       y2="178.50755"
       gradientUnits="userSpaceOnUse" /><clipPath
       clipPathUnits="userSpaceOnUse"
       id="clipPath4"><rect
         style="opacity:0.400391;fill:#089aa3;fill-opacity:1;stroke:#134000;stroke-width:3.533;stroke-linecap:round;stroke-opacity:1;paint-order:stroke fill markers"
         id="rect5"
         width="384"
         height="240"
         x="0"
         y="0" /></clipPath></defs><g
     inkscape:label="Layer 1"
     inkscape:groupmode="layer"
     id="layer1"><g
       id="g1320"><g
         id="g17"><g
           id="g4"
           clip-path="url(#clipPath4)"><g
             id="g41906"
             style="fill:url(#linearGradient3);fill-opacity:1;stroke:#00797c;stroke-width:2.7;stroke-linejoin:miter;stroke-miterlimit:45;stroke-dasharray:none;stroke-opacity:1;paint-order:stroke fill markers;opacity:0.40039062"
             transform="matrix(1.1164939,0,0,1.1164939,54.028182,-86.370395)"><path
               sodipodi:nodetypes="cscscccc"
               id="path5097"
               d="m 70.308751,140.23883 c -4.29367,4.09583 -12.124954,12.09782 -22.579017,11.44677 -2.366388,-0.14737 -3.545658,-1.73376 -4.100724,-3.50664 -0.266717,1.24386 -1.78741,3.67875 -4.01234,3.13811 -4.141015,-1.00624 -8.475399,-3.41872 -13.081922,-7.15336 7.111562,18.80591 19.855489,23.71846 35.961449,20.3379 -7.091164,-1.6036 -13.509146,-3.92333 -18.466471,-7.79693 13.335118,0.51365 22.525783,-9.14272 26.279025,-16.46585 z"
               style="fill:url(#linearGradient3);fill-opacity:1;fill-rule:evenodd;stroke:#00797c;stroke-width:2.7;stroke-linecap:butt;stroke-linejoin:miter;stroke-miterlimit:45;stroke-dasharray:none;stroke-opacity:1;paint-order:stroke fill markers" /><path
               sodipodi:nodetypes="ccccc"
               id="path5099"
               d="m 72.02657,158.64078 c -6.210942,9.82501 -19.999817,17.3878 -32.102865,12.27667 7.865786,13.48248 22.794345,14.99936 28.999008,5.36078 -4.639188,3.48171 -10.468483,2.40147 -13.030901,-0.16909 10.458486,-4.12183 13.415021,-10.75546 16.134758,-17.46836 z"
               style="fill:url(#linearGradient3);fill-opacity:1;fill-rule:evenodd;stroke:#00797c;stroke-width:2.7;stroke-linecap:butt;stroke-linejoin:miter;stroke-miterlimit:45;stroke-dasharray:none;stroke-opacity:1;paint-order:stroke fill markers" /><path
               sodipodi:nodetypes="ccccc"
               id="path5101"
               d="m 76.403516,175.4937 c -2.732262,8.33333 -16.689741,19.28846 -27.466957,19.94069 13.358946,8.64433 20.795879,4.08154 26.538278,-4.26036 -3.360904,1.37486 -5.511437,2.05071 -7.693263,-0.18482 6.027821,-4.21479 8.509902,-10.62283 8.621942,-15.49551 z"
               style="fill:url(#linearGradient3);fill-opacity:1;fill-rule:evenodd;stroke:#00797c;stroke-width:2.7;stroke-linecap:butt;stroke-linejoin:miter;stroke-miterlimit:45;stroke-dasharray:none;stroke-opacity:1;paint-order:stroke fill markers" /><path
               sodipodi:nodetypes="ccccc"
               id="path5103"
               d="m 80.997229,192.30967 c -3.650121,7.95057 -11.092739,15.71858 -19.583284,16.21438 8.179168,4.00687 17.025879,3.55451 22.920453,-2.38085 -3.949857,1.11151 -6.916435,2.25637 -9.464774,0.91222 4.584309,-2.73012 6.85254,-10.46421 6.127605,-14.74575 z"
               style="fill:url(#linearGradient3);fill-opacity:1;fill-rule:evenodd;stroke:#00797c;stroke-width:2.7;stroke-linecap:butt;stroke-linejoin:miter;stroke-miterlimit:45;stroke-dasharray:none;stroke-opacity:1;paint-order:stroke fill markers" /><path
               sodipodi:nodetypes="ccccsccccccccccccccscscscscsccscsccsccccccccscccccc"
               id="path5109"
               d="m 120.0282,299.50067 c -17.8107,-33.75287 -10.8397,-67.45406 -4.21883,-101.61321 -5.81506,-13.24392 -11.8998,-26.24242 -20.949163,-36.54294 -1.61337,12.14057 3.689363,27.03206 12.977173,42.01591 -6.41006,15.01154 -13.667999,29.05442 -17.925548,43.97492 -1.68033,5.88868 1.4363,4.13949 4.974625,1.1808 -2.056178,5.81827 -4.626759,10.91434 -10.526667,11.33617 -2.821728,-6.55147 2.780168,-17.00623 6.631164,-25.09581 4.303414,-11.04309 9.841916,-21.18539 14.970826,-31.62643 C 92.790549,186.07786 86.461366,169.03477 86.963921,152.0008 L 80.8759,147.1842 c 1.350715,16.16009 3.925073,32.47265 16.7628,50.06397 -3.72512,11.50558 -11.14852,19.94326 -20.774918,22.85927 7.01228,-5.92494 13.190652,-13.09769 16.020204,-21.24416 -14.337205,-19.36261 -16.19867,-38.62755 -18.206064,-57.89363 -8.980958,-11.05976 -29.241429,-15.75938 -41.529066,-13.626 6.369239,7.14756 15.853896,12.31673 28.668414,14.22387 -22.405381,-0.52262 -43.246972,-3.82493 -54.5943546,-24.00339 9.0729556,1.65541 19.5406646,4.43144 28.6664116,2.72297 16.041773,1.51445 31.727931,6.7578 38.023918,12.551 3.52969,3.24781 11.554119,9.73882 15.60633,10.48067 0.679827,-2.18119 -2.349642,-7.1856 -3.371797,-8.44412 -10.412041,-12.81986 -21.387344,-19.94589 -35.185408,-29.27328 -7.618997,-5.665891 -25.043114,-2.86518 -33.153669,-1.77756 -1.224889,0.16426 -2.800896,0.38781 -4.019866,0.69722 0.991266,1.10779 2.42633,1.99969 4.127062,2.7695 2.054002,0.92972 5.87169,2.35601 5.87169,2.35601 0.778042,-0.95224 1.277302,-1.34698 2.905045,-1.22604 1.367285,0.10158 2.024137,1.23319 2.680427,2.51963 9.194585,3.4321 17.765624,5.48803 28.058047,7.47381 C 43.798359,118.17192 20.651807,116.90619 7.628484,106.94132 0.9852743,101.85823 0.8556405,93.482625 -0.6752757,86.578122 3.892693,94.426888 10.486023,98.473121 20.725619,96.726838 25.79387,95.862486 31.475727,96.261283 36.963774,97.326324 28.253119,89.204393 25.768969,81.542605 24.33543,73.192543 c 4.91976,8.743311 6.024103,17.456379 22.835881,24.184633 10.597574,4.241254 19.764723,11.380834 28.902737,18.091864 2.13414,-1.28553 4.009848,-4.8341 2.562892,-8.3211 C 72.907472,99.694085 66.694072,92.181586 59.080881,86.108339 55.471136,85.371926 51.861006,84.916474 48.253196,82.729576 49.926635,91.319164 59.15631,97.437948 66.00449,104.33546 41.428826,90.546177 35.646566,74.467443 36.265575,57.608909 c 4.914058,11.434221 8.751516,23.080252 25.379024,25.051831 13.22043,7.991831 20.266174,22.88616 31.349858,33.45235 -3.814228,-0.0179 -11.608353,1.01162 -6.998074,6.75606 12.866647,16.03192 21.873687,30.9756 26.049547,46.10658 -4.25134,-6.46477 -8.22385,-11.65758 -14.01384,-15.11505 6.80418,10.71793 18.36274,25.43318 23.9032,37.69598 l 0.33135,13.3286 c -3.22769,21.74987 -10.64575,42.45673 -1.11741,69.76906 z"
               style="fill:url(#linearGradient3);fill-opacity:1;fill-rule:evenodd;stroke:#00797c;stroke-width:2.7;stroke-linecap:butt;stroke-linejoin:miter;stroke-miterlimit:45;stroke-dasharray:none;stroke-opacity:1;paint-order:stroke fill markers" /><path
               sodipodi:nodetypes="csscssc"
               id="path5111"
               d="m 108.33096,216.22821 c -2.55031,13.74495 -8.886,25.47883 -12.137787,38.83186 -2.216174,9.10043 -2.699303,24.95299 0.521207,25.42626 4.82309,0.71143 5.98088,-14.3769 7.96922,-22.97229 -1.4085,3.19185 -2.9824,8.29342 -5.0621,7.70974 -3.346819,-0.9393 0.81516,-17.52588 2.9492,-25.70157 1.63677,-6.27062 4.72275,-14.90798 5.76026,-23.294 z"
               style="fill:url(#linearGradient3);fill-opacity:1;fill-rule:evenodd;stroke:#00797c;stroke-width:2.7;stroke-linecap:butt;stroke-linejoin:miter;stroke-miterlimit:45;stroke-dasharray:none;stroke-opacity:1;paint-order:stroke fill markers" /><path
               sodipodi:nodetypes="cccscccsccccsc"
               id="path5113"
               d="m 99.726106,129.23991 c 4.094724,-1.5 6.823154,-3.34897 6.381054,-11.4386 -0.82053,-7.40375 -4.26533,-20.798762 -13.740576,-14.84216 -0.634357,-2.40094 0.433609,-5.978394 2.43466,-8.105914 5.300906,-5.635922 12.094946,-1.842229 17.491016,1.907945 4.37241,-2.161447 8.82819,-3.551626 14.17109,3.264479 5.83606,10.65576 13.22288,19.76489 25.74183,23.75557 -9.17858,-1.59455 -18.99455,-3.76147 -25.13525,-13.34989 -4.34539,-6.78511 -7.15601,-9.24263 -10.21523,-9.28642 0.70763,0.74975 1.24755,3.58595 1.76982,5.87019 -2.27486,-1.48431 -4.12918,-3.35221 -4.58133,-5.90021 -3.89714,-0.28323 -6.38725,-0.99819 -9.60364,-3.674525 0,0 6.75981,14.173655 4.96987,21.988395 -2.22761,9.72563 -4.3849,9.77454 -9.683314,9.81114 z"
               style="fill:url(#linearGradient3);fill-opacity:1;fill-rule:evenodd;stroke:#00797c;stroke-width:2.7;stroke-linecap:butt;stroke-linejoin:miter;stroke-miterlimit:45;stroke-dasharray:none;stroke-opacity:1;paint-order:stroke fill markers" /><path
               sodipodi:nodetypes="ccc"
               id="path5115"
               d="m 121.50041,111.10129 c 3.54922,6.0165 9.53684,11.71712 16.461,13.97985 -8.2058,1.61374 -15.90881,-6.7057 -16.461,-13.97985 z"
               style="fill:url(#linearGradient3);fill-opacity:1;fill-rule:evenodd;stroke:#00797c;stroke-width:2.7;stroke-linecap:butt;stroke-linejoin:miter;stroke-miterlimit:45;stroke-dasharray:none;stroke-opacity:1;paint-order:stroke fill markers" /><path
               sodipodi:nodetypes="ccccccccc"
               id="path5117"
               d="m 114.3995,114.61061 c 6.42897,9.85644 14.2469,16.52992 25.13777,16.16135 -8.60382,11.10534 -15.68429,23.81083 -18.46977,41.0279 -4.44082,-12.75219 -9.24329,-25.13674 -16.55028,-34.97542 6.925,-5.24848 9.64174,-12.78272 6.4825,-23.5086 4.11811,8.38136 4.28398,16.59612 0.2017,24.63181 4.15192,4.67997 6.87602,10.81112 8.36934,16.15921 2.36313,-6.73993 6.92527,-12.96288 10.45212,-16.69207 -8.5537,-8.62736 -14.20705,-16.75257 -15.62338,-22.80418 z"
               style="fill:url(#linearGradient3);fill-opacity:1;fill-rule:evenodd;stroke:#00797c;stroke-width:2.7;stroke-linecap:butt;stroke-linejoin:miter;stroke-miterlimit:45;stroke-dasharray:none;stroke-opacity:1;paint-order:stroke fill markers" /><path
               sodipodi:nodetypes="ccccsccccccccccccccscscscscsccscsccsccccccccscccccc"
               id="path5119"
               d="m 120.33803,300.15294 c 17.8107,-33.75287 12.57908,-68.10633 5.95821,-102.26548 5.81506,-13.24392 11.8998,-26.24242 20.94917,-36.54294 1.61337,12.14057 -3.68937,27.03206 -12.97718,42.01591 6.41006,15.01154 13.668,29.05442 17.92555,43.97492 1.68033,5.88868 -1.4363,4.13949 -4.97462,1.1808 2.05617,5.81827 4.62675,10.91434 10.52666,11.33617 2.82172,-6.55147 -2.78017,-17.00623 -6.63116,-25.09581 -4.30342,-11.04309 -9.84192,-21.18539 -14.97083,-31.62643 13.17123,-17.05222 19.50042,-34.09531 18.99786,-51.12928 l 6.08801,-4.8166 c -1.35071,16.16009 -3.92506,32.47265 -16.76279,50.06397 3.72512,11.50558 11.14852,19.94326 20.77491,22.85927 -7.01227,-5.92494 -13.19064,-13.09769 -16.02019,-21.24416 14.33719,-19.36261 16.19866,-38.62755 18.20605,-57.89363 8.98096,-11.05976 29.24143,-15.75938 41.52907,-13.626 -6.36924,7.14756 -15.8539,12.31673 -28.66842,14.22387 22.40538,-0.52262 43.24698,-3.82493 54.59436,-24.00339 -9.07296,1.65541 -19.54067,4.43144 -28.66641,2.72297 -16.04178,1.51445 -31.72794,6.7578 -38.02392,12.551 -3.52969,3.24781 -11.55411,9.73882 -15.60632,10.48067 -0.67983,-2.18119 2.34964,-7.1856 3.37179,-8.44412 10.41204,-12.81986 21.38734,-19.94589 35.1854,-29.27328 7.619,-5.665891 25.04312,-2.86518 33.15367,-1.77756 1.22489,0.16426 2.8009,0.38781 4.01987,0.69722 -0.99127,1.10779 -2.42633,1.99969 -4.12706,2.7695 -2.054,0.92972 -5.87169,2.35601 -5.87169,2.35601 -0.77804,-0.95224 -1.2773,-1.34698 -2.90505,-1.22604 -1.36728,0.10158 -2.02413,1.23319 -2.68042,2.51963 -9.19459,3.4321 -17.76563,5.48803 -28.05805,7.47381 13.63274,-0.24202 36.7793,-1.50775 49.80262,-11.47262 6.64321,-5.08309 6.77284,-13.458695 8.30376,-20.363198 -4.56797,7.848766 -11.1613,11.894999 -21.40089,10.148716 -5.06826,-0.864352 -10.75011,-0.465555 -16.23816,0.599486 8.71066,-8.121931 11.19481,-15.783719 12.62834,-24.133781 -4.91976,8.743311 -6.0241,17.456379 -22.83588,24.184633 -10.59757,4.241254 -19.76472,11.380834 -28.90274,18.091864 -2.13414,-1.28553 -4.00984,-4.8341 -2.56289,-8.3211 5.72947,-7.453861 11.94287,-14.966354 19.55606,-21.039601 3.60975,-0.736413 7.21988,-1.191865 10.82769,-3.378763 -1.67344,8.589588 -10.90312,14.708372 -17.7513,21.605884 24.57567,-13.789283 30.35793,-29.868017 29.73892,-46.726551 -4.91406,11.434221 -8.75152,23.080252 -25.37903,25.051831 -13.22043,7.991831 -20.26617,22.88616 -31.34984,33.45235 3.81422,-0.0179 11.60834,1.01162 6.99807,6.75606 -12.86665,16.03192 -21.87369,30.9756 -26.04955,46.10658 4.25134,-6.46477 8.22385,-11.65758 14.01384,-15.11505 -6.80418,10.71793 -17.6975,25.14761 -23.23796,37.41041 l 1.39506,13.17932 c 3.22769,21.74987 7.24811,42.82344 -2.28023,70.13577 z"
               style="fill:url(#linearGradient3);fill-opacity:1;fill-rule:evenodd;stroke:#00797c;stroke-width:2.7;stroke-linecap:butt;stroke-linejoin:miter;stroke-miterlimit:45;stroke-dasharray:none;stroke-opacity:1;paint-order:stroke fill markers" /><path
               sodipodi:nodetypes="cscscccc"
               id="path5121"
               d="m 172.1656,140.71932 c 4.29367,4.09583 12.12495,12.09782 22.57901,11.44677 2.36639,-0.14737 3.54566,-1.73376 4.10073,-3.50664 0.26672,1.24386 1.78741,3.67875 4.01234,3.13811 4.14101,-1.00624 8.4754,-3.41872 13.08192,-7.15336 -7.11156,18.80591 -19.85549,23.71846 -35.96145,20.3379 7.09116,-1.6036 13.50915,-3.92333 18.46647,-7.79693 -13.33512,0.51365 -22.52578,-9.14272 -26.27902,-16.46585 z"
               style="fill:url(#linearGradient3);fill-opacity:1;fill-rule:evenodd;stroke:#00797c;stroke-width:2.7;stroke-linecap:butt;stroke-linejoin:miter;stroke-miterlimit:45;stroke-dasharray:none;stroke-opacity:1;paint-order:stroke fill markers" /><path
               sodipodi:nodetypes="ccccc"
               id="path5123"
               d="m 170.44778,159.12127 c 6.21094,9.82501 19.99981,17.3878 32.10286,12.27667 -7.86578,13.48248 -22.79434,14.99936 -28.99901,5.36078 4.63919,3.48171 10.46849,2.40147 13.03091,-0.16909 -10.45849,-4.12183 -13.41503,-10.75546 -16.13476,-17.46836 z"
               style="fill:url(#linearGradient3);fill-opacity:1;fill-rule:evenodd;stroke:#00797c;stroke-width:2.7;stroke-linecap:butt;stroke-linejoin:miter;stroke-miterlimit:45;stroke-dasharray:none;stroke-opacity:1;paint-order:stroke fill markers" /><path
               sodipodi:nodetypes="ccccc"
               id="path5125"
               d="m 166.07083,175.97419 c 2.73226,8.33333 16.68974,19.28846 27.46696,19.94069 -13.35895,8.64433 -20.79588,4.08154 -26.53828,-4.26036 3.3609,1.37486 5.51144,2.05071 7.69326,-0.18482 -6.02782,-4.21479 -8.5099,-10.62283 -8.62194,-15.49551 z"
               style="fill:url(#linearGradient3);fill-opacity:1;fill-rule:evenodd;stroke:#00797c;stroke-width:2.7;stroke-linecap:butt;stroke-linejoin:miter;stroke-miterlimit:45;stroke-dasharray:none;stroke-opacity:1;paint-order:stroke fill markers" /><path
               sodipodi:nodetypes="ccccc"
               id="path5127"
               d="m 161.47712,192.79016 c 3.65012,7.95057 11.09274,15.71858 19.58328,16.21438 -8.17917,4.00687 -17.02588,3.55451 -22.92045,-2.38085 3.94986,1.11151 6.91643,2.25637 9.46477,0.91222 -4.58431,-2.73012 -6.85254,-10.46421 -6.1276,-14.74575 z"
               style="fill:url(#linearGradient3);fill-opacity:1;fill-rule:evenodd;stroke:#00797c;stroke-width:2.7;stroke-linecap:butt;stroke-linejoin:miter;stroke-miterlimit:45;stroke-dasharray:none;stroke-opacity:1;paint-order:stroke fill markers" /><path
               sodipodi:nodetypes="csscssc"
               id="path5129"
               d="m 134.14339,216.7087 c 2.55031,13.74495 8.886,25.47883 12.13778,38.83186 2.21618,9.10043 2.69931,24.95299 -0.5212,25.42626 -4.82309,0.71143 -5.98088,-14.3769 -7.96922,-22.97229 1.4085,3.19185 2.9824,8.29342 5.0621,7.70974 3.34682,-0.9393 -0.81516,-17.52588 -2.9492,-25.70157 -1.63677,-6.27062 -4.72275,-14.90798 -5.76026,-23.294 z"
               style="fill:url(#linearGradient3);fill-opacity:1;fill-rule:evenodd;stroke:#00797c;stroke-width:2.7;stroke-linecap:butt;stroke-linejoin:miter;stroke-miterlimit:45;stroke-dasharray:none;stroke-opacity:1;paint-order:stroke fill markers" /></g><path
             style="fill:none;stroke:#000000;stroke-width:1.00107px;stroke-linecap:butt;stroke-linejoin:miter;stroke-dasharray:5.00534, 4.00428;stroke-dashoffset:0;stroke-opacity:0.368805"
             d="M -1.1227063,213.33017 368.65433,237.35904"
             id="path4367" /><g
             id="g187"
             transform="matrix(-0.51891448,0,0,-0.51891448,1129.8367,1016.0689)"
             style="fill:#089aa3;fill-opacity:1;stroke:#134000;stroke-opacity:1"><path
               style="fill:#089aa3;fill-opacity:1;stroke:#134000;stroke-width:15.979;stroke-linecap:round;stroke-linejoin:round;stroke-dasharray:none;stroke-opacity:1;paint-order:fill markers stroke"
               d="m 1805.8632,1626.2263 c 49.5656,1.6422 85.2578,63.8334 25.3154,98.2572 v 19.8223 h -52.7988 v -20.5229 c -65.1183,-30.6682 -25.6217,-99.316 27.4834,-97.5566 z"
               id="path185"
               sodipodi:nodetypes="sccccs" /><circle
               style="fill:#089aa3;fill-opacity:1;stroke:#134000;stroke-width:15.979;stroke-linecap:round;stroke-linejoin:round;stroke-dasharray:none;stroke-opacity:1;paint-order:fill markers stroke"
               id="path186"
               cx="1783.6963"
               cy="1688.2208"
               r="6.7308559" /><circle
               style="fill:#089aa3;fill-opacity:1;stroke:#134000;stroke-width:15.979;stroke-linecap:round;stroke-linejoin:round;stroke-dasharray:none;stroke-opacity:1;paint-order:fill markers stroke"
               id="circle186"
               cx="1824.0685"
               cy="1688.2208"
               r="6.7308559" /><path
               style="fill:#089aa3;fill-opacity:1;stroke:#134000;stroke-width:3.879;stroke-linecap:round;stroke-linejoin:round;stroke-dasharray:none;stroke-opacity:1;paint-order:fill markers stroke"
               d="m 1804.6824,1701.7558 9.7491,13.2948 h -19.9837 z"
               id="path187" /></g><text
             style="font-style:normal;font-variant:normal;font-weight:normal;font-stretch:normal;font-size:75.6717px;line-height:0.4;font-family:'Florida Girl Sans';-inkscape-font-specification:'Florida Girl Sans, Normal';font-variant-ligatures:normal;font-variant-caps:normal;font-variant-numeric:normal;font-variant-east-asian:normal;stroke:#e70e19;stroke-width:1.24537;stroke-opacity:1;paint-order:stroke fill markers"
             x="69.574875"
             y="168.50551"
             id="text8523"><tspan
               sodipodi:role="line"
               style="font-style:normal;font-variant:normal;font-weight:normal;font-stretch:normal;font-size:75.6717px;font-family:'Florida Girl Sans';-inkscape-font-specification:'Florida Girl Sans, Normal';font-variant-ligatures:normal;font-variant-caps:normal;font-variant-numeric:normal;font-variant-east-asian:normal;text-align:center;text-anchor:middle;stroke:#e70e19;stroke-width:1.24537;stroke-opacity:1;paint-order:stroke fill markers"
               x="69.574875"
               y="168.50551"
               id="tspan2">pure</tspan><tspan
               sodipodi:role="line"
               style="font-style:normal;font-variant:normal;font-weight:normal;font-stretch:normal;font-size:75.6717px;font-family:'Florida Girl Sans';-inkscape-font-specification:'Florida Girl Sans, Normal';font-variant-ligatures:normal;font-variant-caps:normal;font-variant-numeric:normal;font-variant-east-asian:normal;text-align:center;text-anchor:middle;stroke:#e70e19;stroke-width:1.24537;stroke-opacity:1;paint-order:stroke fill markers"
               x="69.574875"
               y="198.77419"
               id="tspan1">sativa</tspan></text><g
             id="g2"
             transform="matrix(-0.51891448,0,0,-0.51891448,1233.202,1016.0689)"
             style="fill:#089aa3;fill-opacity:1;stroke:#134000;stroke-opacity:1"><path
               style="fill:#089aa3;fill-opacity:1;stroke:#134000;stroke-width:15.979;stroke-linecap:round;stroke-linejoin:round;stroke-dasharray:none;stroke-opacity:1;paint-order:fill markers stroke"
               d="m 1805.8632,1626.2263 c 49.5656,1.6422 85.2578,63.8334 25.3154,98.2572 v 19.8223 h -52.7988 v -20.5229 c -65.1183,-30.6682 -25.6217,-99.316 27.4834,-97.5566 z"
               id="path1"
               sodipodi:nodetypes="sccccs" /><circle
               style="fill:#089aa3;fill-opacity:1;stroke:#134000;stroke-width:15.979;stroke-linecap:round;stroke-linejoin:round;stroke-dasharray:none;stroke-opacity:1;paint-order:fill markers stroke"
               id="circle1"
               cx="1783.6963"
               cy="1688.2208"
               r="6.7308559" /><circle
               style="fill:#089aa3;fill-opacity:1;stroke:#134000;stroke-width:15.979;stroke-linecap:round;stroke-linejoin:round;stroke-dasharray:none;stroke-opacity:1;paint-order:fill markers stroke"
               id="circle2"
               cx="1824.0685"
               cy="1688.2208"
               r="6.7308559" /><path
               style="fill:#089aa3;fill-opacity:1;stroke:#134000;stroke-width:3.879;stroke-linecap:round;stroke-linejoin:round;stroke-dasharray:none;stroke-opacity:1;paint-order:fill markers stroke"
               d="m 1804.6824,1701.7558 9.7491,13.2948 h -19.9837 z"
               id="path2" /></g><text
             style="font-size:117.251px;line-height:0.95;font-family:sans-serif;fill:#be09a4;fill-opacity:1;stroke:#000240;stroke-width:9.94326;stroke-linecap:round;stroke-linejoin:bevel;stroke-dasharray:none;stroke-opacity:1;paint-order:stroke fill markers"
             x="7.4589734"
             y="68.118843"
             id="text23967-3"><tspan
               sodipodi:role="line"
               id="tspan23965-6"
               style="font-style:normal;font-variant:normal;font-weight:normal;font-stretch:normal;font-size:81.347px;font-family:Argillites;-inkscape-font-specification:'Argillites, Normal';font-variant-ligatures:normal;font-variant-caps:normal;font-variant-numeric:normal;font-variant-east-asian:normal;fill:#970182;fill-opacity:1;stroke:#000240;stroke-width:9.94326;stroke-linecap:round;stroke-linejoin:bevel;stroke-dasharray:none;stroke-opacity:1;paint-order:stroke fill markers"
               x="7.4589734"
               y="68.118843">Durban</tspan></text><g
             id="g185"
             transform="matrix(0,0.29731763,-0.29731763,0,950.73193,-567.74289)"><path
               style="fill:#656b60;fill-opacity:1;stroke:#332195;stroke-width:15.979;stroke-linecap:round;stroke-linejoin:round;stroke-dasharray:none;stroke-opacity:1;paint-order:fill markers stroke"
               d="m 2085.1,2944.2403 c 35.647,28.9013 77.8281,-16.891 25.7727,-49.8628 v -298.5352 c 62.4075,-25.3693 -2.0368,-82.3365 -25.7727,-44.5401 -24.2161,-37.7818 -82.3019,26.3262 -25.4928,44.5401 v 298.5352 c -47.3398,18.1776 -23.3561,76.6886 25.4928,49.8628 z"
               id="path184-1"
               sodipodi:nodetypes="ccccccc"
               transform="matrix(0,-0.82898049,0.82898049,0,18.752474,4455.2382)" /><path
               style="fill:#959da0;fill-opacity:1;stroke:#332195;stroke-width:15.979;stroke-linecap:round;stroke-linejoin:round;stroke-dasharray:none;stroke-opacity:1;paint-order:fill markers stroke"
               d="m 2051.9832,2956.3347 c 35.647,28.9013 77.8281,-16.891 25.7727,-49.8628 v -298.5352 c 62.4075,-25.3693 -2.0368,-82.3365 -25.7727,-44.5401 -24.2161,-37.7818 -82.3019,26.3262 -25.4928,44.5401 v 298.5352 c -47.3398,18.1776 -23.3561,76.6886 25.4928,49.8628 z"
               id="path184"
               sodipodi:nodetypes="ccccccc"
               transform="matrix(0,-0.82898049,0.82898049,0,18.752474,4455.2382)" /><path
               id="path182"
               style="fill:#03921a;fill-opacity:1;stroke:#332195;stroke-width:15.979;stroke-linecap:round;stroke-linejoin:round;stroke-dasharray:none;stroke-opacity:1;paint-order:fill markers stroke"
               d="m 2239.575,2711.0279 v 18.4576 m -33.4582,-18.7834 v 21.534 m 17.7156,-209.8287 c 146.3056,1.4042 119.1471,157.7127 49.0129,172.3695 l 0.1594,38.6886 h -100.7919 v -35.5394 c -74.9623,-17.4258 -96.1214,-176.9367 51.6196,-175.5187 z"
               sodipodi:nodetypes="ccccsccccs" /><circle
               style="fill:#613315;fill-opacity:1;stroke:#332195;stroke-width:15.979;stroke-linecap:round;stroke-linejoin:round;stroke-dasharray:none;stroke-opacity:1;paint-order:fill markers stroke"
               id="path180-3"
               cx="2182.3706"
               cy="2636.74"
               r="24.673727" /><circle
               style="fill:#613315;fill-opacity:1;stroke:#332195;stroke-width:15.979;stroke-linecap:round;stroke-linejoin:round;stroke-dasharray:none;stroke-opacity:1;paint-order:fill markers stroke"
               id="circle182"
               cx="2260.7039"
               cy="2636.74"
               r="24.673727" /><path
               style="fill:#fd9ff1;fill-opacity:1;stroke:#332195;stroke-width:15.979;stroke-linecap:round;stroke-linejoin:round;stroke-dasharray:none;stroke-opacity:1;paint-order:fill markers stroke"
               d="m 2220.6471,2669.1965 12.2215,12.2215 h -23.3983 z"
               id="path183"
               sodipodi:nodetypes="cccc" /><g
               id="g10"
               transform="matrix(0.72042929,0,0,0.72042929,621.33369,-757.81692)"><path
                 style="fill:#959da0;fill-opacity:1;stroke:#332195;stroke-width:13.2463;stroke-linecap:round;stroke-linejoin:round;stroke-dasharray:none;stroke-opacity:1;paint-order:fill markers stroke"
                 d="m 2576.6779,3956.0787 c 23.9587,-29.5506 -14.0023,-64.5179 -41.3352,-21.365 h -247.4799 c -21.0307,-51.7346 -68.2553,1.6884 -36.9229,21.365 -31.3203,20.0747 21.8239,68.2267 36.9229,21.1331 h 247.4799 c 15.0688,39.2437 63.5733,19.3617 41.3352,-21.1331 z"
                 id="path9"
                 sodipodi:nodetypes="ccccccc" /><path
                 style="fill:#959da0;fill-opacity:1;stroke:#332195;stroke-width:13.2463;stroke-linecap:round;stroke-linejoin:round;stroke-dasharray:none;stroke-opacity:1;paint-order:fill markers stroke"
                 d="m 2576.6683,3815.8913 c 23.9587,-29.5506 -14.0023,-64.5179 -41.3352,-21.365 h -247.4799 c -21.0307,-51.7346 -68.2553,1.6884 -36.9229,21.365 -31.3203,20.0747 21.8239,68.2267 36.9229,21.1331 h 247.4799 c 15.0688,39.2437 63.5733,19.3617 41.3352,-21.1331 z"
                 id="path9-0"
                 sodipodi:nodetypes="ccccccc" /><path
                 style="fill:#959da0;fill-opacity:1;stroke:#332195;stroke-width:13.2463;stroke-linecap:round;stroke-linejoin:round;stroke-dasharray:none;stroke-opacity:1;paint-order:fill markers stroke"
                 d="m 2543.9512,3766.5076 c -3.954,-37.8368 -55.5221,-35.7199 -44.3357,14.1211 l -174.9947,174.9947 c -51.4528,-21.7109 -47.0699,49.4577 -11.0011,41.2158 -7.9518,36.3417 63.6754,32.8117 41.0518,-11.1651 l 174.9947,-174.9947 c 38.4047,17.0942 58.6439,-31.2623 14.285,-44.1718 z"
                 id="path10"
                 sodipodi:nodetypes="ccccccc" /></g></g><text
             style="font-size:54.6131px;line-height:0;font-family:sans-serif;stroke-width:1.101;stroke-dasharray:none;filter:url(#filter14)"
             x="187.74159"
             y="62.591564"
             id="text10425"
             transform="matrix(3.2480641,0,0,3.2480641,-286.2261,32.594689)"><tspan
               id="tspan3"
               style="font-style:normal;font-variant:normal;font-weight:normal;font-stretch:normal;font-size:25px;line-height:1.55;font-family:'Collge Filled';-inkscape-font-specification:'Collge Filled, Normal';font-variant-ligatures:normal;font-variant-caps:normal;font-variant-numeric:normal;font-variant-east-asian:normal;text-align:center;letter-spacing:1.01071px;word-spacing:0px;text-anchor:middle;stroke:#4a098f;stroke-width:1.101;stroke-dasharray:none;stroke-opacity:1;paint-order:stroke fill markers"><tspan
                 style="font-style:normal;font-variant:normal;font-weight:normal;font-stretch:normal;font-size:18px;line-height:1.55;font-family:'Collge Filled';-inkscape-font-specification:'Collge Filled, Normal';font-variant-ligatures:normal;font-variant-caps:normal;font-variant-numeric:normal;font-variant-east-asian:normal;letter-spacing:0.981604px"
                 id="tspan928"
                 dy="-4.8600001 0 0 -4.5500002">$6.<tspan
   style="font-size:9.87909px"
   id="tspan14">50</tspan></tspan></tspan></text><g
             id="g8"
             transform="matrix(0,-0.03306704,0.03306704,0,139.93826,190.64495)"><path
               id="path3"
               d="M 21887,11777.4 4155.6,10547.5 c -141.47,-9.9 -251.22,-127.5 -251.22,-269.3 v -596.8 c 0,-141.8 109.75,-259.4 251.22,-269.3 L 21887,8182.2 c 238.6,-16.5 441.3,172.6 441.3,411.7 v 2771.8 c 0,239.1 -202.7,428.2 -441.3,411.7"
               style="fill:#0c2811;fill-opacity:1;fill-rule:nonzero;stroke:#e1e70e;stroke-width:194.35;stroke-dasharray:none;stroke-opacity:1;paint-order:stroke fill markers"
               transform="matrix(0.13333333,0,0,-0.13333333,0,4000)" /><path
               id="path4"
               d="m 22887.4,11808 v 0 c -103,0 -186.4,-83.4 -186.4,-186.4 V 8338 c 0,-103 83.4,-186.4 186.4,-186.4 v 0 c 102.9,0 186.3,83.4 186.3,186.4 v 3283.6 c 0,103 -83.4,186.4 -186.3,186.4"
               style="fill:#1a1a1a;fill-opacity:1;fill-rule:nonzero;stroke:#f50000;stroke-width:291.041;stroke-dasharray:none;stroke-opacity:0.512139;paint-order:stroke fill markers"
               transform="matrix(0.13333333,0,0,-0.13333333,0,4000)" /><path
               id="path5"
               d="m 24378.3,10589.2 v 0 c -102.9,0 -186.4,-83.4 -186.4,-186.4 v -846 c 0,-103 83.5,-186.4 186.4,-186.4 v 0 c 103,0 186.4,83.4 186.4,186.4 v 846 c 0,103 -83.4,186.4 -186.4,186.4"
               style="fill:#1a1a1a;fill-opacity:1;fill-rule:nonzero;stroke:#f50000;stroke-width:291.041;stroke-dasharray:none;stroke-opacity:0.512139;paint-order:stroke fill markers"
               transform="matrix(0.13333333,0,0,-0.13333333,0,4000)" /><path
               id="path6"
               d="m 23632.9,11198.6 h -0.1 c -102.9,0 -186.3,-83.4 -186.3,-186.4 V 9979.8 8947.4 c 0,-102.9 83.4,-186.4 186.3,-186.4 h 0.1 c 102.9,0 186.3,83.5 186.3,186.4 v 1032.4 1032.4 c 0,103 -83.4,186.4 -186.3,186.4"
               style="fill:#1a1a1a;fill-opacity:1;fill-rule:nonzero;stroke:#f50000;stroke-width:291.041;stroke-dasharray:none;stroke-opacity:0.512139;paint-order:stroke fill markers"
               transform="matrix(0.13333333,0,0,-0.13333333,0,4000)" /></g><text
             style="font-size:36.9101px;line-height:0.95;font-family:sans-serif;fill:#010f11;fill-opacity:1;stroke:#005c17;stroke-width:0.971107;stroke-dasharray:none;stroke-opacity:1;paint-order:stroke fill markers;filter:url(#filter8156)"
             x="-0.12116254"
             y="32.40612"
             id="text4659"
             transform="matrix(2.7432427,0,0,3.7722068,4.8084916,5.2393642)"><tspan
               sodipodi:role="line"
               id="tspan4657"
               style="font-style:normal;font-variant:normal;font-weight:normal;font-stretch:normal;font-size:15px;font-family:C059;-inkscape-font-specification:C059;font-variant-ligatures:normal;font-variant-caps:normal;font-variant-numeric:normal;font-variant-east-asian:normal;fill:#010f11;fill-opacity:1;stroke:#005c17;stroke-width:1;stroke-dasharray:none;stroke-opacity:1;paint-order:stroke fill markers"
               x="-0.12116254"
               y="32.40612">1½g</tspan></text><g
             id="g9"
             transform="matrix(-0.06577949,0,0,-0.06577949,465.20568,241.58142)"><path
               id="path8"
               d="m 3424.5392,2431.1454 c -15.2941,-13.17 -211.1362,12.4318 -294.389,-48.5342 -26.6259,-19.498 -90.1984,-112.0179 -92.9793,-116.9066 -15.0079,-26.3836 -31.5258,-82.5649 -19.1215,-123.112 18.3187,-59.88 87.5267,-66.731 115.2667,-169.4133 27.4182,-101.4909 -22.5056,-171.9426 -32.8934,-185.3273 -7.4072,-9.5443 -20.0445,-26.6785 -36,-45.5127 -30.0322,-35.4508 -56.2312,-62.4424 -71.7466,-76.44 3.1652,22.8496 24.3921,82.6627 34.0533,105.2134 59.7009,139.3504 37.8297,168.9029 -4.5233,226.4921 -20.9626,28.5036 -62.767,44.3013 -85.53,112.9612 -30.614,92.3406 9.7963,216.9 69.9985,281.3146 10.1003,10.807 50.6791,77.2779 123.0203,92.4955 115.3858,24.2724 279.2899,-53.8556 294.8443,-53.2307 z"
               style="fill:#1a1a1a;fill-opacity:1;fill-rule:nonzero;stroke:none;stroke-width:0.133333"
               sodipodi:nodetypes="csssssscsssssc" /><path
               id="path7"
               d="m 25990.105,16813.021 c -232.779,611.974 -705.09,934.98 -1163.105,1197.079 -1986.783,1136.937 301.652,3559.883 798.023,3776.536 -1448.24,144.077 -3299.498,-1894.135 -2737.223,-3475.936 438.941,-1234.837 1457.596,-1077.577 1807.6,-1950.3 459.441,-1145.603 -944.317,-1926.62 -1769.864,-2278.651 1157.428,-229.255 3064.12,648.157 3167.264,1856.451 23.691,277.531 17.498,558.833 -102.695,874.821 z"
               style="fill:#1a1a1a;fill-opacity:1;fill-rule:nonzero;stroke:#697f9e;stroke-width:244.004;stroke-dasharray:none;stroke-opacity:0.727089;paint-order:stroke fill markers"
               transform="matrix(0.13333333,0,0,-0.13333333,0,4000)"
               sodipodi:nodetypes="sscsscss" /></g><text
             style="font-size:33.3691px;line-height:1.25;font-family:sans-serif;text-align:center;letter-spacing:-1.9621px;text-anchor:middle;fill:#8a3a04;fill-opacity:1;stroke:#09868f;stroke-width:2.89444;stroke-dasharray:none;stroke-opacity:1;paint-order:stroke fill markers"
             x="198.8533"
             y="210.55113"
             id="text15"
             transform="rotate(3.790541)"><tspan
               sodipodi:role="line"
               id="tspan15"
               style="font-style:normal;font-variant:normal;font-weight:normal;font-stretch:normal;font-size:29.3648px;font-family:Bisetron;-inkscape-font-specification:'Bisetron, Normal';font-variant-ligatures:normal;font-variant-caps:normal;font-variant-numeric:normal;font-variant-east-asian:normal;letter-spacing:-1.9621px;fill:#8a3a04;fill-opacity:1;stroke:#09868f;stroke-width:2.89444;stroke-dasharray:none;stroke-opacity:1;paint-order:stroke fill markers"
               x="197.87225"
               y="210.55113"><tspan
   style="font-size:37.3734px;stroke-width:2.89444"
   id="tspan16">Δ</tspan>-8 THC</tspan></text></g></g></g></g></svg>
