<?xml version="1.0" encoding="UTF-8" standalone="no"?>
<!-- Created with Inkscape (http://www.inkscape.org/) -->

<svg
   xmlns:dc="http://purl.org/dc/elements/1.1/"
   xmlns:cc="http://creativecommons.org/ns#"
   xmlns:rdf="http://www.w3.org/1999/02/22-rdf-syntax-ns#"
   xmlns:svg="http://www.w3.org/2000/svg"
   xmlns="http://www.w3.org/2000/svg"
   xmlns:xlink="http://www.w3.org/1999/xlink"
   xmlns:sodipodi="http://sodipodi.sourceforge.net/DTD/sodipodi-0.dtd"
   xmlns:inkscape="http://www.inkscape.org/namespaces/inkscape"
   inkscape:export-xdpi="900.00000"
   inkscape:export-ydpi="900.00000"
   inkscape:version="0.48.3.1 r9886"
   sodipodi:version="0.32"
   id="svg1061"
   width="100%"
   height="100%"
   viewBox="0 0 56.31659 56.196495"
   version="1.1"
   sodipodi:docname="svg">
  <defs
     id="defs3">
    <linearGradient
       id="linearGradient8878">
      <stop
         id="stop8879"
         offset="0.0000000"
         style="stop-color: rgb(163, 175, 255); stop-opacity: 1;" />
      <stop
         id="stop8880"
         offset="1.0000000"
         style="stop-color: rgb(50, 73, 255); stop-opacity: 1;" />
    </linearGradient>
    <linearGradient
       id="linearGradient6999">
      <stop
         id="stop7000"
         offset="0.0000000"
         style="stop-color: rgb(173, 0, 255); stop-opacity: 1;" />
      <stop
         id="stop7007"
         offset="0.50000000"
         style="stop-color: rgb(142, 0, 242); stop-opacity: 1;" />
      <stop
         id="stop7001"
         offset="1.0000000"
         style="stop-color: rgb(89, 0, 187); stop-opacity: 1;" />
    </linearGradient>
    <linearGradient
       inkscape:collect="always"
       gradientTransform="scale(1.23231,0.811484)"
       gradientUnits="userSpaceOnUse"
       id="linearGradient7002"
       x1="10.761971"
       x2="40.275909"
       y1="46.217644"
       y2="46.217644"
       xlink:href="#linearGradient6999" />
    <radialGradient
       inkscape:collect="always"
       cx="18.265802"
       cy="40.93021"
       fx="18.265802"
       fy="40.93021"
       gradientTransform="scale(1.48495,0.673423)"
       gradientUnits="userSpaceOnUse"
       id="radialGradient7006"
       r="15.522463"
       xlink:href="#linearGradient6999" />
    <radialGradient
       inkscape:collect="always"
       cx="19.428921"
       cy="67.0522"
       fx="19.428921"
       fy="67.0522"
       gradientTransform="scale(1.47585,0.677577)"
       gradientUnits="userSpaceOnUse"
       id="radialGradient7012"
       r="25.867947"
       xlink:href="#linearGradient6999" />
    <radialGradient
       inkscape:collect="always"
       cx="-36.124168"
       cy="22.80929"
       fx="-36.124168"
       fy="22.80929"
       gradientTransform="scale(0.733999,1.3624)"
       gradientUnits="userSpaceOnUse"
       id="radialGradient1722"
       r="24.247074"
       spreadMethod="reflect"
       xlink:href="#linearGradient8878" />
  </defs>
  <sodipodi:namedview
     inkscape:current-layer="layer1"
     inkscape:cx="22.914482"
     inkscape:cy="21.380668"
     inkscape:grid-bbox="true"
     inkscape:grid-points="false"
     inkscape:pageopacity="0.0"
     inkscape:pageshadow="2"
     inkscape:window-height="840"
     inkscape:window-width="945"
     inkscape:window-x="172"
     inkscape:window-y="31"
     inkscape:zoom="11.313709"
     bordercolor="#666666"
     borderopacity="1.0"
     id="base"
     pagecolor="#ffffff"
     showgrid="false"
     fit-margin-top="0"
     fit-margin-left="0"
     fit-margin-right="0"
     fit-margin-bottom="0"
     inkscape:window-maximized="0">
    <inkscape:grid
       id="GridFromPre046Settings"
       type="xygrid"
       originx="-1.9467265pt"
       originy="-3.072945pt"
       spacingx="1.0000000pt"
       spacingy="1.0000000pt"
       color="#3f3fff"
       empcolor="#3f3fff"
       opacity="0.15"
       empopacity="0.38"
       empspacing="5"
       units="pt"
       visible="true"
       enabled="true"
       snapvisiblegridlinesonly="true" />
  </sodipodi:namedview>
  <g
     inkscape:groupmode="layer"
     inkscape:label="Layer 1"
     id="layer1"
     transform="translate(-2.4334081,-1.9623242)">
    <path
       sodipodi:nodetypes="cssss"
       d="m 33.937933,36.733254 c -7.614034,-2.83621 -24.4830537,-7.558931 -29.6874997,1.40625 -5.5672103,9.590078 9.8263377,15.697369 16.0937497,17.96875 12.468889,4.518866 31.402631,-2.234172 36.875,-12.8125 5.603085,-10.831008 -16.340533,-3.977099 -23.28125,-6.5625 z"
       id="path1072"
       style="fill:url(#radialGradient7012);fill-opacity:1;fill-rule:evenodd;stroke:#000000;stroke-width:1pt;stroke-linecap:butt;stroke-linejoin:miter;stroke-opacity:1"
       inkscape:connector-curvature="0" />
    <path
       sodipodi:nodetypes="cssssss"
       d="M 33.625433,33.764504 C 29.594162,33.26126 19.646082,27.304955 16.363454,28.124488 c -3.282629,0.819534 -0.02702,8.340845 -1.644271,11.265016 -1.084666,1.961196 6.037803,7.706401 10.9375,8.90625 6.212131,1.521241 18.70414,-0.205656 20.9375,-3.4375 2.36878,-3.427807 3.422099,-16.099535 1.162881,-18.337935 -2.395096,-2.373026 -11.286272,7.599386 -14.131631,7.244185 z"
       id="path2316"
       style="fill:url(#linearGradient7002);fill-opacity:1;fill-rule:evenodd;stroke:#000000;stroke-width:1pt;stroke-linecap:butt;stroke-linejoin:miter;stroke-opacity:1"
       inkscape:connector-curvature="0" />
    <path
       sodipodi:nodetypes="cssss"
       d="m 34.562933,21.577004 c -8.062542,-1.006488 -15.41732,-0.07522 -18.90625,5.625 -3.736316,6.1044 6.662803,6.143901 11.5625,7.34375 6.212131,1.521241 14.987507,1.977135 18.75,-2.5 7.201965,-8.569895 -5.715533,-9.758349 -11.40625,-10.46875 z"
       id="path1071"
       style="fill:url(#radialGradient7006);fill-opacity:1;fill-rule:evenodd;stroke:#000000;stroke-width:1pt;stroke-linecap:butt;stroke-linejoin:miter;stroke-opacity:1"
       inkscape:connector-curvature="0" />
    <g
       id="feather"
       transform="matrix(0.49687,0.231977,-0.240924,0.476029,71.4002,14.5401)">
      <path
         sodipodi:nodetypes="csssscsscsccsccss"
         d="m -35.548461,57.659218 c 0.03598,-1.258547 -4.383156,-4.351867 -2.824154,-10.182182 0.311173,-1.163715 3.2193,6.235604 2.618932,5.001665 -1.675537,-3.443741 -1.297427,-6.340078 -1.124974,-7.621495 0.689809,-5.125668 3.191966,-12.115148 5.250748,-16.166581 0.514695,-1.012857 0.05629,5.111905 0.988863,7.996297 -1.302477,-2.097702 0.94546,-13.175141 1.20992,-14.810672 0.528918,-3.271059 0.85445,-6.960375 1.070297,-10.659112 0.431695,-7.3974746 0.424648,-14.8326348 0.728465,-19.0348111 4.547867,2.5655714 6.728544,9.2297052 8.223822,16.6745758 0.373819,1.8612173 0.187731,4.9362803 -0.733165,7.8218623 1.123229,-2.633588 1.17959,-4.367957 1.509573,-7.3009856 3.221084,3.1016046 1.026123,18.1915686 0.5235,21.2335366 -0.707665,4.28292 -2.170502,11.157535 -5.649237,14.383372 2.157361,-1.910288 2.987877,-3.934334 4.009389,-5.222972 -0.282871,7.116025 -7.17617,14.630486 -8.184994,15.380964 -2.390245,1.778138 -7.693283,5.175759 -7.616985,2.506538 z"
         id="path6363"
         style="fill:url(#radialGradient1722);fill-opacity:1;fill-rule:evenodd;stroke:#000000;stroke-width:1pt;stroke-linecap:round;stroke-linejoin:round;stroke-opacity:1"
         transform="matrix(0.866025,-0.5,0.5,0.866025,-16.695,-10.7697)"
         inkscape:connector-curvature="0" />
      <path
         sodipodi:nodetypes="csccccsc"
         d="m -44.511864,-4.7309033 c 2.067563,2.2870201 16.441159,16.7970753 21.106541,29.9643573 3.488734,9.850856 3.598099,18.229865 4.124073,24.891546 0.525974,6.661681 0.6875,13.505596 0.6875,17.0625 l 1.25,0 c 0,-3.593555 -0.157795,-10.447314 -0.6875,-17.15625 -0.04087,-6.946433 -1.102925,-15.632605 -4.631058,-25.190655 -4.457824,-12.076672 -18.787271,-26.6582556 -21.849556,-29.5714983 z"
         id="path6364"
         style="fill:#000000;fill-opacity:1;fill-rule:evenodd;stroke:none"
         inkscape:connector-curvature="0" />
    </g>
    <g
       id="hat band">
      <path
         sodipodi:nodetypes="cccsccs"
         d="m 30.187933,42.827004 c -4.141756,-0.171788 -10.893042,-1.591653 -15.275147,-4.143863 -0.693273,2.718315 -0.427295,3.224999 -0.225963,5.882998 2.553803,1.879516 4.983654,3.334274 9.975491,4.061071 6.654073,0.968814 17.076859,0.127207 23.147209,-3.547985 0.703646,-3.206837 1.199578,-4.157282 0.739895,-6.748627 -3.957596,4.033224 -15.496504,4.615237 -18.361485,4.496406 z"
         id="path2317"
         style="fill:#ff8f00;fill-opacity:1;fill-rule:nonzero;stroke:#000000;stroke-width:1pt;stroke-linecap:round;stroke-linejoin:round;stroke-opacity:1"
         inkscape:connector-curvature="0" />
      <path
         d="m 15.15625,38.78125 c 0.0046,0.06884 0.03494,0.0858 0,0.21875 0.06213,0.592699 -0.09912,0.593444 -0.375,0.46875 -0.0722,0.348408 -0.08973,0.653291 -0.125,0.9375 0.976963,0.201925 1.913385,-0.208304 2.125,-0.84375 -0.549393,-0.25288 -1.125922,-0.49979 -1.625,-0.78125 z m 32.125,0.53125 c -0.731624,0.486155 -1.569282,0.915361 -2.5,1.28125 0.09353,0.0196 0.04796,0.0427 0.15625,0.0625 1.674273,0.306078 2.829892,0.09104 2.34375,-1.34375 z m -29.5625,0.65625 c -0.622473,1.032106 -0.412347,2.570157 1.0625,2.40625 1.420631,-0.157883 2.59125,-0.481851 2.375,-1.1875 -0.49653,-0.145257 -0.981317,-0.304261 -1.46875,-0.46875 0.130049,0.04979 0.214078,0.106411 0.125,0.28125 -0.367855,0.72202 -0.47945,0.507336 -0.9375,0.3125 -0.506285,-0.215354 -0.692139,-0.49819 -0.46875,-0.6875 0.180892,-0.153296 0.229513,-0.159397 0.28125,-0.125 0.05174,0.0344 0.115504,0.109293 0.34375,0.125 0.168387,0.01159 0.3164,0.04307 0.46875,0.0625 -0.623469,-0.214093 -1.188116,-0.47334 -1.78125,-0.71875 z m 26.15625,1.25 c -0.27716,-0.0041 -0.548809,0.112803 -0.96875,0.09375 -0.846169,-0.03839 -1.324682,0.378849 -1.625,0.84375 -0.666123,1.031178 0.05338,1.860447 1.5625,1.78125 1.717244,-0.09012 2.97527,-1.09942 2.03125,-2.125 -0.43076,-0.467977 -0.722837,-0.589599 -1,-0.59375 z M 47.40625,41.25 c -0.264103,-0.04734 -0.512487,0.0053 -0.6875,0.375 -0.643653,1.359551 -1.100206,1.530461 0.71875,2.4375 0.202762,0.101109 0.397306,0.08892 0.59375,0.125 0.1182,-0.499217 0.188354,-0.940618 0.28125,-1.34375 -0.130135,0.195881 -0.255461,0.350815 -0.8125,0.3125 -0.532665,-0.154732 -0.568698,-0.296373 -0.375,-0.75 0.0391,-0.09158 0.08847,-0.138986 0.125,-0.15625 0.109585,-0.0518 0.220132,0.163939 0.5625,0.1875 0.212616,0.01463 0.446102,-0.02592 0.59375,-0.03125 0.05426,-0.251199 0.180104,-0.640773 0.21875,-0.875 -0.119485,-0.03568 -0.119611,-0.08728 -0.46875,-0.09375 -0.217882,-0.004 -0.485894,-0.14016 -0.75,-0.1875 z m -24.0625,0.53125 c -0.124606,0.119904 -0.286404,0.206601 -0.375,0.34375 -0.666122,1.031179 0.05338,1.860447 1.5625,1.78125 1.42892,-0.07499 2.463737,-0.799607 2.25,-1.625 -1.149839,-0.165344 -2.192558,-0.210051 -3.4375,-0.5 z m -7.4375,0.125 c -0.398613,-0.0074 -0.990306,0.243292 -1.375,0.59375 0.04008,0.569405 0.08742,1.091184 0.15625,1.96875 0.223037,0.07249 0.190009,0.203207 0.53125,0.25 1.497528,0.205349 2.039064,0.225989 2.1875,-1.28125 0.08129,-0.825464 -0.192721,-1.50702 -1.5,-1.53125 z m 8.53125,0.1875 c 0.447556,0.0308 1.055707,-0.01023 1.15625,0.4375 0.177473,0.790302 0.04455,0.517657 -0.3125,0.625 C 24.754262,43.31468 24.454332,43.031449 24.375,42.75 24.231797,42.241951 23.98101,42.062336 24.4375,42.09375 z M 42.75,42.125 c 0.447556,0.0308 1.055706,-0.01023 1.15625,0.4375 0.177472,0.7903 0.04455,0.517657 -0.3125,0.625 C 43.066764,43.345932 42.766832,43.062699 42.6875,42.78125 42.544298,42.273204 42.29351,42.093586 42.75,42.125 z m -5.15625,0.15625 c -0.240589,0.03312 -0.45095,0.06461 -0.6875,0.09375 0.07084,5.07e-4 0.10989,0.03988 0.1875,0.03125 0.205563,-0.02284 0.305273,-0.09536 0.5,-0.125 z M 28.03125,42.5 c -0.190515,0.525609 -0.12479,0.923614 1.09375,1.53125 1.392161,0.694215 2.664729,-0.278281 2.21875,-1.25 -0.341924,0.0012 -0.921689,0.04098 -1.15625,0.03125 -0.04309,-0.0018 -0.112603,-0.02919 -0.15625,-0.03125 -0.137814,0.214799 -0.25488,0.384255 -0.84375,0.34375 -0.417088,-0.121157 -0.47574,-0.27131 -0.40625,-0.53125 -0.226364,-0.0199 -0.513767,-0.06783 -0.75,-0.09375 z m 7.5,0.03125 c -1.108452,0.10723 -2.002515,0.21605 -2.875,0.25 -0.868904,1.015776 -1.007246,1.710644 0.875,1.96875 1.497529,0.205352 2.039064,0.225989 2.1875,-1.28125 0.03582,-0.363751 -0.02626,-0.667051 -0.1875,-0.9375 z m -20.125,0.28125 c 0.168516,0.0029 0.365506,0.01554 0.59375,0.03125 0.447557,0.0308 0.542858,0.319165 0.15625,0.6875 -0.799719,0.761916 -0.414551,0.122431 -1.1875,0 -0.544878,-0.0863 -0.220465,-0.432309 0,-0.625 0.117768,-0.102933 0.268985,-0.09667 0.4375,-0.09375 z m 18.3125,0.03125 c 0.168514,0.0029 0.365505,0.01554 0.59375,0.03125 0.447559,0.0308 0.542861,0.319165 0.15625,0.6875 -0.799719,0.761914 -0.414551,0.122431 -1.1875,0 -0.544878,-0.08631 -0.189213,-0.432309 0.03125,-0.625 0.11777,-0.102935 0.237735,-0.09667 0.40625,-0.09375 z M 21.25,43.28125 c -0.688254,-0.0081 -1.317498,0.570911 -1.59375,0.875 -1.101929,1.212961 -0.466147,2.500169 1.5625,2.25 C 22.91819,46.196679 23.825271,45.633805 23,44.4375 22.65603,43.938888 22.55728,43.30548 21.25,43.28125 z m 18.3125,0.03125 c -0.688252,-0.0081 -1.317497,0.570911 -1.59375,0.875 -1.101926,1.212963 -0.466147,2.50017 1.5625,2.25 1.699438,-0.209573 2.606522,-0.772445 1.78125,-1.96875 -0.343966,-0.498614 -0.442721,-1.13202 -1.75,-1.15625 z m -18,1 c 0.447555,0.0308 0.885364,0.362551 0.625,0.78125 -0.582901,0.937379 -0.77734,0.304005 -1.5625,0.25 -0.532667,-0.154734 -0.629639,-0.435689 -0.40625,-0.625 0.361784,-0.306592 0.88726,-0.437664 1.34375,-0.40625 z m 18.3125,0.03125 c 0.447556,0.0308 0.885363,0.362551 0.625,0.78125 -0.582902,0.937381 -0.74609,0.304005 -1.53125,0.25 -0.532667,-0.154732 -0.660889,-0.43569 -0.4375,-0.625 0.361786,-0.306594 0.88726,-0.437664 1.34375,-0.40625 z M 26.34375,44.75 c -0.43576,-0.0081 -0.845174,-0.06156 -1.25,0.5 -0.544116,0.653313 -0.282303,1.801899 0.8125,1.9375 1.738223,0.215294 1.959045,0.432128 2.375,-0.78125 0.245058,-0.714859 -0.63022,-1.63202 -1.9375,-1.65625 z m 18.34375,0.03125 c -0.435758,-0.0081 -0.876425,-0.06156 -1.28125,0.5 -0.412687,0.495511 -0.218213,1.153424 0.3125,1.5625 0.34774,-0.121538 0.633853,-0.304414 0.96875,-0.4375 -0.527531,-0.170743 -0.692139,-0.46694 -0.46875,-0.65625 0.18089,-0.153298 0.285078,-0.177829 0.40625,-0.1875 0.121173,-0.0097 0.271755,0.01554 0.5,0.03125 0.275853,0.01898 0.438336,0.176417 0.5625,0.40625 0.215115,-0.09744 0.448307,-0.178424 0.65625,-0.28125 -0.282036,-0.48954 -0.781291,-0.921283 -1.65625,-0.9375 z m -11.59375,0.4375 c -0.180873,0.01196 -0.36955,0.04898 -0.625,0.15625 -1.422763,0.597431 -1.287706,1.780461 0.53125,2.6875 1.573276,0.784526 1.318683,-0.599266 2.40625,-1.65625 0.434783,-0.422557 -0.442721,-1.13202 -1.75,-1.15625 -0.217881,-0.004 -0.381628,-0.04321 -0.5625,-0.03125 z m -17,0.1875 c 0.278958,0.185613 0.584823,0.357076 0.875,0.53125 -0.119785,-0.236174 -0.387968,-0.391106 -0.875,-0.53125 z m 10.21875,0.125 c 0.121173,-0.0097 0.271755,0.01554 0.5,0.03125 0.447556,0.0308 0.754597,0.362761 0.71875,0.90625 -0.04119,0.624448 -0.447705,0.145696 -1.1875,-0.09375 -0.527533,-0.170745 -0.660889,-0.46694 -0.4375,-0.65625 0.180891,-0.153297 0.285078,-0.177829 0.40625,-0.1875 z m 6.78125,0.4375 c 0.129908,0.03928 0.244201,0.159188 0.4375,0.28125 0.447557,0.282616 0.408762,0.669426 0.375,0.78125 -0.225824,0.747978 -0.414551,-0.03382 -1.1875,-0.15625 -0.544879,-0.08631 -0.285889,-0.56069 -0.0625,-0.75 0.18089,-0.153296 0.307591,-0.195536 0.4375,-0.15625 z m -9,0.875 c -0.277163,-0.0042 -0.580059,0.08155 -1,0.0625 -0.84617,-0.03839 -1.293432,0.410098 -1.59375,0.875 0.413648,0.11861 0.820806,0.240739 1.28125,0.34375 -0.113797,-0.273532 -0.192087,-0.430221 0.15625,-0.40625 0.447557,0.0308 1.055707,-0.01023 1.15625,0.4375 0.04668,0.20786 0.02498,0.224471 0.03125,0.3125 0.215629,0.03584 0.305379,0.123364 0.53125,0.15625 0.14948,0.02176 0.346808,0.01132 0.5,0.03125 0.263542,-0.360109 0.310207,-0.811143 -0.09375,-1.25 -0.43076,-0.467977 -0.691588,-0.558349 -0.96875,-0.5625 z m 18.3125,0.03125 c -0.277161,-0.0042 -0.548809,0.08155 -0.96875,0.0625 -0.846169,-0.03839 -1.324683,0.410098 -1.625,0.875 -0.02436,0.0377 0.0207,0.05667 0,0.09375 1.056758,-0.227034 2.101755,-0.438153 3.09375,-0.75 -0.161163,-0.09202 -0.358076,-0.279124 -0.5,-0.28125 z m -23.75,0.03125 c -0.02205,-4.09e-4 -0.04083,0.02964 -0.0625,0.03125 0.333048,0.152697 0.854483,0.236252 1.21875,0.375 -0.185604,-0.241839 -0.410854,-0.392434 -1.15625,-0.40625 z m 18.3125,0.03125 c -0.43576,-0.0081 -0.769426,0.39171 -1.25,0.5 -0.962505,0.195521 -1.038743,0.710852 -0.6875,1.25 0.367279,-0.03646 0.726481,-0.0173 1.09375,-0.0625 -0.02614,-0.0037 -0.03601,-0.02943 -0.0625,-0.03125 -0.532667,-0.154733 -0.348389,-0.34194 -0.125,-0.53125 0.180892,-0.153298 0.310015,-0.196715 0.4375,-0.1875 0.127485,0.0092 0.240505,0.07804 0.46875,0.09375 0.431654,0.0297 0.643649,-0.03734 0.53125,0.4375 0.471025,-0.07164 0.909197,-0.194447 1.375,-0.28125 -0.0085,-0.009 0.0089,-0.02233 0,-0.03125 -0.827684,-0.825464 -0.473971,-1.13202 -1.78125,-1.15625 z M 30.34375,47 c -0.280319,-0.0797 -0.549432,-0.05042 -0.90625,0.03125 -0.825581,0.188974 -1.355933,0.597599 -1.65625,1.0625 -0.190402,0.294748 -0.05369,0.508084 -0.03125,0.75 1.214461,0.0717 2.401402,0.09625 3.71875,0.0625 0.223292,-0.348518 0.257983,-0.740178 -0.125,-1.15625 -0.430761,-0.467979 -0.719681,-0.670304 -1,-0.75 z m -0.5,0.84375 c 0.195476,-0.0096 0.374381,0.05782 0.5,0.25 0.253222,0.387395 -0.0492,0.673907 -0.40625,0.78125 -0.526988,0.158432 -0.929834,0.166956 -1.0625,-0.09375 -0.143204,-0.281409 0.139754,-0.630324 0.34375,-0.75 0.193341,-0.113424 0.429522,-0.177884 0.625,-0.1875 z"
         id="path3566"
         style="fill:#000000;fill-opacity:1;fill-rule:evenodd;stroke:none"
         inkscape:connector-curvature="0" />
    </g>
  </g>
  <metadata
     id="metadata3524">
    <rdf:RDF>
      <cc:Work
         rdf:about="">
        <dc:title></dc:title>
        <dc:description />
        <dc:subject>
          <rdf:Bag>
            <rdf:li>hat</rdf:li>
            <rdf:li>pimp</rdf:li>
            <rdf:li>clothing</rdf:li>
          </rdf:Bag>
        </dc:subject>
        <dc:publisher>
          <cc:Agent
             rdf:about="http://www.openclipart.org">
            <dc:title>James Birkett</dc:title>
          </cc:Agent>
        </dc:publisher>
        <dc:creator>
          <cc:Agent
             rdf:about="">
            <dc:title>James Birkett</dc:title>
          </cc:Agent>
        </dc:creator>
        <dc:rights>
          <cc:Agent
             rdf:about="">
            <dc:title>James Birkett</dc:title>
          </cc:Agent>
        </dc:rights>
        <dc:date />
        <dc:format>image/svg+xml</dc:format>
        <dc:type
           rdf:resource="http://purl.org/dc/dcmitype/StillImage" />
        <cc:license
           rdf:resource="Public Domain">
          <dc:date />
        </cc:license>
        <dc:language>en</dc:language>
      </cc:Work>
      <cc:License
         rdf:about="Public Domain">
        <cc:permits
           rdf:resource="http://web.resource.org/cc/Reproduction" />
        <cc:permits
           rdf:resource="http://web.resource.org/cc/Distribution" />
        <cc:permits
           rdf:resource="http://web.resource.org/cc/DerivativeWorks" />
      </cc:License>
    </rdf:RDF>
  </metadata>
</svg>
