<?xml version="1.0" encoding="utf-8"?>
<svg version="1.1" xmlns="http://www.w3.org/2000/svg" xmlns:xlink="http://www.w3.org/1999/xlink"
     viewBox="0 0 20 30" xml:space="preserve">
  <g id="PathID_4" transform="matrix(1, 0, 0, 1, 10, 15)">
    <path style="fill:#24276A;fill-opacity:1" d="M-9.5 -11L-9.5 -15L9.5 -15L9.5 -11L-9.5 -11M-3 3.15L3 3.15L3 1.4L-3 1.4L-3 3.15M-6.85 5.9Q0 7.35 6.9 5.9L6.9 3.9Q-0.45 5.35 -6.85 3.9L-6.85 5.9M8.4 6.35Q0.5 9.85 -8.35 6.35L-8.35 -2.35Q0.5 -5.8 8.4 -2.35L8.4 6.35M6.9 -1.6Q0.05 -3.05 -6.85 -1.6L-6.85 0.4Q0.5 -1.05 6.9 0.4L6.9 -1.6" />
    <path style="fill:#E8E8E0;fill-opacity:1" d="M-10 -5.75L-9 -9.25L9 -9.25L10 -5.75L-10 -5.75M10 10.25L8.75 15L-8.75 15L-10 10.25L10 10.25M-6.85 3.9Q-0.45 5.35 6.9 3.9L6.9 5.9Q0 7.35 -6.85 5.9L-6.85 3.9M6.9 0.4Q0.5 -1.05 -6.85 0.4L-6.85 -1.6Q0.05 -3.05 6.9 -1.6L6.9 0.4" />
    <path style="fill:#A7A994;fill-opacity:1" d="M9.5 -11L9 -9.25L-9 -9.25L-9.5 -11L9.5 -11" />
    <path style="fill:#E4E714;fill-opacity:1" d="M-10 10.25L-10 -5.75L10 -5.75L10 10.25L-10 10.25M-3 1.4L3 1.4L3 3.15L-3 3.15L-3 1.4M8.4 -2.35Q0.5 -5.8 -8.35 -2.35L-8.35 6.35Q0.5 9.85 8.4 6.35L8.4 -2.35" />
  </g>
</svg>
