<?xml version="1.0" encoding="UTF-8" standalone="no"?>
<!-- Created with Inkscape (http://www.inkscape.org/) -->

<svg
   version="1.1"
   id="svg2"
   viewBox="0 0 3670.2092 3111.1999"
   sodipodi:docname="svg.svg"
   inkscape:version="1.2.2 (b0a8486541, 2022-12-01)"
   xmlns:inkscape="http://www.inkscape.org/namespaces/inkscape"
   xmlns:sodipodi="http://sodipodi.sourceforge.net/DTD/sodipodi-0.dtd"
   xmlns="http://www.w3.org/2000/svg"
   xmlns:svg="http://www.w3.org/2000/svg">
  <defs
     id="defs6" />
  <sodipodi:namedview
     id="namedview4"
     pagecolor="#505050"
     bordercolor="#ffffff"
     borderopacity="1"
     inkscape:showpageshadow="0"
     inkscape:pageopacity="0"
     inkscape:pagecheckerboard="1"
     inkscape:deskcolor="#505050"
     showgrid="false"
     inkscape:zoom="0.23121429"
     inkscape:cx="1009.8857"
     inkscape:cy="1559.1597"
     inkscape:window-width="1978"
     inkscape:window-height="1251"
     inkscape:window-x="91"
     inkscape:window-y="93"
     inkscape:window-maximized="0"
     inkscape:current-layer="g12">
    <inkscape:page
       x="0"
       y="0"
       id="page8"
       width="3670.2092"
       height="3111.2" />
  </sodipodi:namedview>
  <g
     id="g10"
     inkscape:groupmode="layer"
     inkscape:label="Page 1"
     transform="matrix(1.3333333,0,0,-1.3333333,-498.23065,3888.9332)">
    <g
       id="g12"
       transform="scale(0.1)">
      <path
         d="m 17500,25904.9 c 5542.7,0 10035.9,-4493.2 10035.9,-10035.9 0,-5542.7 -4493.2,-10036 -10035.9,-10036 -5542.7,0 -10035.95,4493.3 -10035.95,10036 0,5542.7 4493.25,10035.9 10035.95,10035.9"
         style="fill:#000d24;fill-opacity:1;fill-rule:evenodd;stroke:none"
         id="path16" />
      <path
         d="m 17500,25439.8 c 5285.8,0 9570.8,-4285 9570.8,-9570.8 0,-5285.8 -4285,-9570.8 -9570.8,-9570.8 -5285.8,0 -9570.83,4285 -9570.83,9570.8 0,5285.8 4285.03,9570.8 9570.83,9570.8"
         style="fill:#ffffff;fill-opacity:1;fill-rule:evenodd;stroke:none"
         id="path18" />
      <path
         d="M 23941.1,22310.1 C 22292.7,23958.4 20015.4,24978 17500,24978 14984.6,24978 12707.3,23958.5 11058.9,22310.1 9410.57,20661.7 8390.98,18384.4 8390.98,15869 c 0,-2515.4 1019.56,-4792.7 2667.92,-6441.1 1648.4,-1648.4 3925.7,-2668 6441.1,-2668 2515.4,0 4792.7,1019.6 6441.1,2668 1648.4,1648.4 2668,3925.7 2668,6441.1 0,2515.4 -1019.6,4792.7 -2668,6441.1 z m -1623.3,-1623.3 c -1232.9,1232.9 -2936.3,1995.6 -4817.8,1995.6 -1881.5,0 -3584.8,-762.7 -4817.8,-1995.6 -1233,-1233 -1995.6,-2936.3 -1995.6,-4817.8 0,-1881.5 762.7,-3584.9 1995.6,-4817.9 1233,-1232.9 2936.3,-1995.5 4817.8,-1995.5 1881.5,0 3584.9,762.6 4817.8,1995.5 1233,1233 1995.6,2936.4 1995.6,4817.9 0,1881.4 -762.6,3584.8 -1995.6,4817.8 z M 17500,22855.1 c 1929.2,0 3675.7,-781.9 4940,-2046.2 1264.2,-1264.2 2046.2,-3010.8 2046.2,-4939.9 0,-1929.2 -782,-3675.7 -2046.2,-4939.9 -1264.3,-1264.3 -3010.8,-2046.3 -4940,-2046.3 -1929.1,0 -3675.7,782 -4939.9,2046.3 -1264.3,1264.2 -2046.2,3010.8 -2046.2,4939.9 0,1929.1 781.9,3675.7 2046.2,4939.9 1264.2,1264.2 3010.8,2046.2 4939.9,2046.2 z m 0,2295.7 c 2563.1,0 4883.5,-1038.9 6563.2,-2718.6 1679.7,-1679.7 2718.6,-4000.1 2718.6,-6563.2 0,-2563.1 -1038.9,-4883.5 -2718.6,-6563.2 C 22383.5,7626.1 20063.1,6587.2 17500,6587.2 c -2563,0 -4883.5,1038.9 -6563.2,2718.6 -1679.63,1679.7 -2718.57,4000.1 -2718.57,6563.2 0,2563.1 1038.94,4883.5 2718.57,6563.2 1679.7,1679.7 4000.1,2718.6 6563.2,2718.6 v 0"
         style="fill:#000d24;fill-opacity:1;fill-rule:nonzero;stroke:none"
         id="path20" />
      <path
         d="m 17500,22356.8 c 3583.1,0 6487.8,-2904.7 6487.8,-6487.8 0,-3583.1 -2904.7,-6487.8 -6487.8,-6487.8 -3583.1,0 -6487.8,2904.7 -6487.8,6487.8 0,3583.1 2904.7,6487.8 6487.8,6487.8"
         style="fill:#000d24;fill-opacity:1;fill-rule:evenodd;stroke:none"
         id="path22" />
      <path
         d="m 23662,16255.6 c 7.8,-127.9 12.3,-256.7 12.3,-386.6 0,-1556.5 -576.1,-2978.3 -1526.5,-4064.3 -538.9,3.8 -938.9,65.2 -1452.8,-164.2 -408,-182.2 -1079,-384.2 -1808.1,-519 186.5,330.9 291.6,596.8 291.6,596.8 0,0 469.8,3372.9 819.1,5107.5 112.4,557.7 114.2,1023.8 65,1399.7 23.6,-122.2 45.1,-239.5 45.1,-239.5 0,0 621.8,-506.3 843.7,-628.1 221.8,-121.9 1663.8,-567.6 2356.1,-893.7 129.2,-60.8 247.4,-131.9 354.5,-208.6 z M 12852.3,11804.7 c 538.8,3.8 938.9,65.2 1452.7,-164.2 408,-182.2 1079,-384.2 1808.1,-519 -186.4,330.9 -291.6,596.8 -291.6,596.8 0,0 -469.8,3372.9 -819.1,5107.5 -112.3,557.7 -114.1,1023.8 -64.9,1399.7 -23.6,-122.2 -45.1,-239.5 -45.1,-239.5 0,0 -621.9,-506.3 -843.7,-628.1 -221.9,-121.9 -1663.9,-567.6 -2356.2,-893.7 -129.2,-60.8 -247.3,-131.9 -354.4,-208.6 -7.9,-127.9 -12.4,-256.7 -12.4,-386.6 0,-1556.5 576.1,-2978.3 1526.6,-4064.3 v 0"
         style="fill:#c52622;fill-opacity:1;fill-rule:nonzero;stroke:none"
         id="path24" />
      <path
         d="m 14919.3,11414.3 c 348.9,-109.1 761.1,-212.8 1193.8,-292.8 -186.4,330.9 -291.6,596.8 -291.6,596.8 0,0 -469.8,3372.9 -819.1,5107.5 -102.7,510 -113,943.3 -76.4,1301.2 l -9.3,-10.2 c -14.1,-74.8 -24.3,-130.8 -24.3,-130.8 0,0 -154.4,-125.7 -336.7,-266.8 v -0.1 h -0.1 c -183.6,-142.2 -395.6,-300.1 -506.9,-361.2 -124.8,-68.6 -636,-239.7 -1182.5,-434.3 l -0.3,-0.1 -993.9,-407.2 c 0,0 968.4,209.1 1670,445.2 -196,-119.7 -385.6,-224.9 -385.6,-224.9 0,0 322.8,33.1 656.3,132.3 -218.1,-136.2 -440.7,-254.2 -440.7,-254.2 0,0 769,41.8 1168,281.5 l 552.2,-3281.3 c 0,0 -318.7,970.3 -475,1768.2 0,0 24.6,-879.6 197.5,-1941.1 -86.9,174.3 -155.6,319.1 -167.8,364.9 -37.5,140.7 -281.2,1157.8 -281.2,1157.8 0,0 129.8,-1733.1 553.5,-3550.4 z m 5161.6,0 c -349,-109.1 -761.2,-212.8 -1193.9,-292.8 186.5,330.9 291.6,596.8 291.6,596.8 0,0 469.8,3372.9 819.1,5107.5 102.7,510 113,943.3 76.4,1301.2 l 9.3,-10.2 c 14.1,-74.8 24.3,-130.8 24.3,-130.8 0,0 154.4,-125.7 336.7,-266.8 l 0.1,-0.1 v 0 c 183.6,-142.2 395.6,-300.1 506.9,-361.2 124.9,-68.6 636,-239.7 1182.5,-434.3 l 0.4,-0.1 993.8,-407.2 c 0,0 -968.4,209.1 -1669.9,445.2 195.9,-119.7 385.6,-224.9 385.6,-224.9 0,0 -322.8,33.1 -656.3,132.3 218,-136.2 440.6,-254.2 440.6,-254.2 0,0 -768.9,41.8 -1168,281.5 l -552.2,-3281.3 c 0,0 318.7,970.3 475,1768.2 0,0 -24.6,-879.6 -197.4,-1941.1 86.9,174.3 155.5,319.1 167.7,364.9 37.5,140.7 281.3,1157.8 281.3,1157.8 0,0 -129.8,-1733.1 -553.6,-3550.4 z M 21218.6,10940 C 20184.3,10158.4 18896.4,9694.6 17500,9694.6 c -1396.3,0 -2684.3,463.7 -3718.6,1245.4 z m 1301.7,1334.2 c -116.7,-162.6 -241,-319.2 -372.5,-469.5 -219.6,1.6 -416.2,12.7 -606.8,9.7 -309.3,233.1 -599,305.5 -599,305.5 0,0 1578,953.1 2233.9,2460.9 -94.3,-454.9 -329.4,-1079.5 -564.1,-1492.6 280.2,276.4 624.5,642.6 624.5,642.6 0,0 -537.4,-989.7 -716,-1456.6 z m -9668,-469.5 c 219.6,1.6 416.2,12.7 606.8,9.7 309.3,233.1 599,305.5 599,305.5 0,0 -1578,953.1 -2233.9,2460.9 94.3,-454.9 329.4,-1079.5 564.1,-1492.6 -280.2,276.4 -624.6,642.6 -624.6,642.6 0,0 537.7,-989.9 716.2,-1456.7 116.6,-162.6 240.9,-319.2 372.4,-469.4 v 0"
         style="fill:#a3201d;fill-opacity:1;fill-rule:nonzero;stroke:none"
         id="path26" />
      <path
         d="m 16113.1,11121.5 c 456.3,-84.4 935.3,-142.4 1386.9,-152.7 451.6,10.3 930.6,68.3 1386.9,152.7 186.5,330.9 291.6,596.8 291.6,596.8 0,0 469.8,3372.9 819.1,5107.5 112.4,557.7 114.2,1023.8 65,1399.7 -24,124.5 -50.2,254.1 -58.1,269.9 l -1101.8,-522.2 181.4,-381.3 c 0,0 -648.3,-711.8 -1584.1,-1166.9 -935.8,455.1 -1584.2,1166.9 -1584.2,1166.9 l 181.4,381.3 -1101.8,522.2 c -7.8,-15.8 -34,-145.4 -58.1,-269.9 -49.1,-375.9 -47.3,-842 65,-1399.7 349.3,-1734.6 819.1,-5107.5 819.1,-5107.5 0,0 105.1,-265.9 291.6,-596.8 h 0.1"
         style="fill:#ffffff;fill-opacity:1;fill-rule:evenodd;stroke:none"
         id="path28" />
      <path
         d="m 15146.8,18423.7 -151.3,71.7 c -7.9,-15.8 -34.1,-145.4 -58.1,-269.9 -1.4,-11.1 -2.8,-22.3 -4.2,-33.6 -2.7,-70 -1.4,-147.5 7.4,-227.3 31,-281 423.4,-851.9 423.4,-851.9 -123.8,288.3 -158.2,550.8 -109,818.5 149.2,-437.7 397.9,-678.6 583.5,-825.7 546.1,-432.8 1307.5,-960.8 1503.7,-1047.5 l 113.7,388.7 c -912,455.7 -1540.1,1145.2 -1540.1,1145.2 l 181.4,381.3 -718.7,340.6 -231.8,109.9 z m 4706.5,0 151.3,71.7 c 7.9,-15.8 34.1,-145.4 58.1,-269.9 1.4,-11.1 2.8,-22.3 4.2,-33.6 2.7,-70 1.3,-147.5 -7.4,-227.3 -31,-281 -423.5,-851.9 -423.5,-851.9 123.9,288.3 158.3,550.8 109.1,818.5 -149.2,-437.7 -398,-678.6 -583.5,-825.7 -546.1,-432.8 -1307.5,-960.8 -1503.7,-1047.5 l -113.7,388.7 c 912,455.7 1540.1,1145.2 1540.1,1145.2 l -181.4,381.3 718.7,340.6 231.8,109.9 z M 18887,11121.5 c -61.1,-11.3 -122.6,-22.1 -184.3,-32.4 94.7,590.1 312.3,1963.8 406.3,2715.4 62.9,503.9 115.9,975.2 152.4,1313.1 l -438.4,-310 145.4,482.8 796.8,890.6 -315.7,-2610.1 c -157.2,-1036 -270.9,-1852.6 -270.9,-1852.6 0,0 -30,-75.8 -86.3,-196.8 l -186,-365.4 c -6.3,-11.5 -12.8,-23 -19.3,-34.6 z m -567.9,4109.3 h -335.8 v -4383.3 h 335.8 z m -2206,-4109.3 c 61.1,-11.3 122.6,-22.1 184.3,-32.4 -94.7,590.1 -312.3,1963.8 -406.3,2715.4 -63,503.9 -115.9,975.2 -152.4,1313.1 l 438.3,-310 -145.3,482.8 -796.8,890.6 315.7,-2610.1 c 157.1,-1036 270.9,-1852.6 270.9,-1852.6 0,0 30,-75.8 86.3,-196.8 l 186,-365.4 c 6.3,-11.5 12.7,-23 19.2,-34.6 h 0.1"
         style="fill:#d5d7d2;fill-opacity:1;fill-rule:evenodd;stroke:none"
         id="path30" />
      <path
         d="m 17500,17308.4 -1402.7,664.8 -181.4,-381.3 c 0,0 648.3,-711.8 1584.1,-1166.9 935.9,455.1 1584.2,1166.9 1584.2,1166.9 l -181.4,381.3 -1402.7,-664.8 h -0.1"
         style="fill:#996452;fill-opacity:1;fill-rule:evenodd;stroke:none"
         id="path32" />
      <path
         d="m 19920.3,12726.5 c 238.7,947.8 572.8,1764.2 794.3,2817.9 11.1,-1039.1 -375.3,-1973 -794.3,-2817.9 z m 2415,588.8 c 621.5,777.3 1026.1,1896.4 1062.2,2870.9 189.5,-1066.1 -233.9,-2142.1 -1062.2,-2870.9 z m -3720.5,3432.1 c 562.8,395.8 884.1,713.7 1194,1197.3 -147.9,-563.3 -675.1,-1007.5 -1194,-1197.3 z m -3535.1,-4020.9 c -238.6,947.8 -572.8,1764.2 -794.3,2817.9 -11.1,-1039.1 375.3,-1973 794.3,-2817.9 z m -2415,588.8 c -621.5,777.3 -1026.1,1896.4 -1062.2,2870.9 -189.5,-1066.1 233.9,-2142.1 1062.2,-2870.9 z m 3720.5,3432.1 c -562.8,395.8 -884,713.7 -1194,1197.3 147.9,-563.3 675.1,-1007.5 1194,-1197.3 z M 17619,14611.2 c -30.4,30.3 -72.4,49.1 -119,49.1 -46.4,0 -88.5,-18.8 -118.9,-49.3 -30.4,-30.2 -49.2,-72.3 -49.2,-118.9 0,-46.4 18.8,-88.4 49.2,-118.9 30.4,-30.4 72.5,-49.2 118.9,-49.2 46.6,0 88.6,18.8 119,49.1 30.3,30.6 49.1,72.6 49.1,119 0,46.6 -18.7,88.7 -49.1,119.1 z m 0,-2536.9 c -30.4,30.3 -72.4,49.1 -119,49.1 -46.4,0 -88.5,-18.8 -118.9,-49.3 -30.4,-30.2 -49.2,-72.3 -49.2,-118.9 0,-46.4 18.8,-88.5 49.2,-118.9 30.4,-30.4 72.5,-49.2 118.9,-49.2 46.6,0 88.6,18.8 119,49.1 30.3,30.5 49.1,72.6 49.1,119 0,46.6 -18.7,88.7 -49.1,119.1 z m -119,176.3 c 81.4,0 155.1,-33.1 208.6,-86.5 l 0.2,-0.3 c 53.5,-53.4 86.5,-127.2 86.5,-208.5 0,-81.6 -33.1,-155.4 -86.5,-208.9 h -0.2 c -53.5,-53.4 -127.2,-86.5 -208.6,-86.5 -81.5,0 -155.4,33.1 -208.8,86.5 -53.4,53.5 -86.5,127.3 -86.5,208.9 0,81.3 33.1,155.1 86.5,208.5 v 0.3 c 53.4,53.4 127.3,86.5 208.8,86.5 z m 0,2536.9 c 81.4,0 155.1,-33.1 208.6,-86.5 l 0.2,-0.3 c 53.5,-53.4 86.5,-127.2 86.5,-208.5 0,-81.6 -33.1,-155.4 -86.5,-208.8 h -0.2 c -53.5,-53.5 -127.2,-86.5 -208.6,-86.5 -81.5,0 -155.4,33 -208.8,86.5 -53.4,53.4 -86.5,127.2 -86.5,208.8 0,81.3 33.1,155.1 86.5,208.5 v 0.3 c 53.4,53.4 127.3,86.5 208.8,86.5 z m -956.2,-3892.4 v 4231.5 h 216.6 v -4231.5 z m 1695.9,0 v 4231.5 h 216.6 v -4231.5 z m 681.2,8175.5 c 565.7,-87 1261.7,-316.3 1270.3,-975.2 1234.8,-1193.4 2893.7,-1123.3 3790,-1940.8 4.1,-94.7 6.6,-189.9 6.6,-285.6 v -1.1 c -390.9,460.8 -1029.4,659.7 -1839.3,956.4 -102.3,-374.5 -286.9,-884.3 -616.8,-1094.7 179.3,176.5 446.7,951.5 497.3,1139.2 l -90.1,34.6 c -726.7,197.7 -1308.5,559.4 -1594.5,760.6 370.6,-427.6 1129.1,-780.4 1131.4,-781.6 -466.6,85.2 -923.6,345.7 -1233.3,705.8 l -8.6,-60.3 c 203.2,-356.8 854.4,-720.1 856.4,-721.2 -389,37.6 -674.8,307.2 -882.6,536.6 -123,-858 -255.5,-1706.7 -398.3,-2545.3 -152.9,-897.7 -318,-1785.2 -496,-2661.5 563.4,1410.9 1067.4,3239.5 1069.3,3246.6 -128.2,-1269.4 -690.5,-3183.5 -1527.6,-4488.1 h -195.4 c 170.6,226.9 317.9,469.2 424.4,726.6 155,1330.7 403.3,2825.7 497.7,4236 -192,-265.8 -426.1,-543 -693.8,-732 l -166.1,34 c 524.2,370 1245.2,1456.2 1298,2064.3 -92.8,-166.9 -279.1,-471 -598.5,-621.9 302.9,298.3 615.7,722.2 636.6,1169.8 -111,-306.4 -253.2,-635.3 -568.8,-767.1 243.8,241.4 466.6,685.9 501.2,1058.9 23.8,255.7 -15.6,458.9 -297.9,615.8 -239,132.8 -543.2,225.1 -768.9,262.5 l 6.5,-312.1 c 205.8,-36.3 487.1,-118.3 614.5,-298.5 8.8,57.6 23.9,186.7 7.4,237.4 174.2,-59.7 185.7,-276.3 108.9,-447.9 -247.7,-553.2 -1347.1,-1326.2 -1878.6,-1714.9 l 335.9,-972.8 c -540.4,-186.1 -696,-186.1 -1236.5,0 l 336,972.8 c -531.6,388.7 -1631,1161.6 -1878.6,1714.9 -76.9,171.6 -65.3,388.2 108.9,447.9 -16.5,-50.7 -1.4,-179.8 7.3,-237.4 127.4,180.2 408.7,262.2 614.5,298.5 l 6.6,312.1 c -225.7,-37.4 -529.9,-129.7 -768.9,-262.5 -282.4,-156.9 -321.8,-360.1 -298,-615.8 34.6,-373 257.5,-817.5 501.3,-1058.9 -315.7,131.8 -457.9,460.6 -568.8,767.1 20.9,-447.6 333.6,-871.5 636.5,-1169.8 -319.3,150.9 -505.6,455 -598.5,621.9 52.9,-608.1 773.8,-1694.3 1298,-2064.3 l -166.1,-34 c -267.7,188.9 -501.8,466.2 -693.7,732 94.3,-1410.2 342.6,-2905.2 497.6,-4235.9 106.5,-257.4 253.8,-499.7 424.4,-726.7 h -195.3 c -837.1,1304.6 -1399.5,3218.7 -1527.7,4488.1 2,-7.1 505.9,-1835.7 1069.3,-3246.6 -178,876.3 -343,1763.8 -496,2661.5 -142.8,838.6 -275.2,1687.3 -398.2,2545.3 -207.8,-229.4 -493.6,-499 -882.6,-536.6 1.9,1.1 653.1,364.4 856.3,721.2 l -8.6,60.3 c -309.6,-360.1 -766.7,-620.6 -1233.3,-705.8 2.4,1.2 760.9,354 1131.4,781.6 -286,-201.1 -867.8,-562.9 -1594.5,-760.6 l -90.1,-34.6 c 50.6,-187.7 318,-962.7 497.3,-1139.2 -329.8,210.4 -514.5,720.2 -616.8,1094.7 -809.9,-296.7 -1448.4,-495.6 -1839.3,-956.4 v 1.1 c 0,95.7 2.5,190.8 6.6,285.6 896.3,817.5 2555.2,747.4 3790,1940.8 8.7,658.9 704.6,888.2 1270.3,975.2 l 1.9,88.1 126.7,-2.5 -35.8,-1690.4 c 388.9,-322.8 918.4,-710.1 1328.1,-953.3 409.8,243.2 939.3,630.5 1328.1,953.3 l -35.8,1690.4 126.7,2.5 1.9,-88.1 h 0.1"
         style="fill:#000d24;fill-opacity:1;fill-rule:nonzero;stroke:none"
         id="path34" />
      <path
         d="m 19094.4,15105.8 c 0,-413.7 -354,-487.4 -682,-355.1 -905.4,365.2 -871.8,384.4 -1824.8,0 -327.9,-132.3 -682,-58.6 -682,355.1 v 830.2 c 0,413.7 354.1,487.5 682,355.2 953,-384.4 919.4,-365.2 1824.8,0 328,132.3 682,58.5 682,-355.2 v -830.2 0"
         style="fill:#000d24;fill-opacity:1;fill-rule:evenodd;stroke:none"
         id="path36" />
      <path
         d="m 18893.2,15105.9 v 830.1 c 0,62.4 -10.2,142.7 -66,181.4 -88.2,61.4 -249.2,23.6 -339.5,-12.8 -177.1,-71.5 -356.2,-148 -536.8,-209.8 -136.3,-46.6 -272.9,-82.3 -417.8,-85.7 -151.8,-3.6 -296.1,28.9 -439.8,74.6 -195.5,62.2 -390.6,144.1 -580.9,220.9 -90.4,36.4 -251.3,74.2 -339.5,12.9 -55.8,-38.8 -66,-119.1 -66,-181.5 v -830.1 c 0,-62.4 10.2,-142.8 66,-181.5 88.2,-61.3 249.1,-23.6 339.5,12.9 190.3,76.8 385.4,158.7 580.9,220.8 143.7,45.8 288.1,78.3 439.8,74.7 144.9,-3.5 281.5,-39.2 417.8,-85.8 180.6,-61.7 359.7,-138.3 536.8,-209.7 90.3,-36.5 251.3,-74.2 339.5,-12.9 55.8,38.8 66,119.1 66,181.5"
         style="fill:#fec919;fill-opacity:1;fill-rule:nonzero;stroke:none"
         id="path38" />
      <path
         d="m 21864.6,23929.4 c 45.1,39.3 79.9,81.8 101,126.2 -814.9,238.7 -336.7,1073.2 -778.7,1532.2 183.6,-87 366.5,-241.4 475.7,-431.3 -90.6,740.1 -382.3,1217.6 -1054.4,1410.8 177.8,129.1 445.5,160.2 687.9,123.7 -197.1,203.8 -481.8,234.5 -712.3,221.3 257.8,231.9 230,408.2 230,408.2 -477.6,-532.6 -1181.8,371 -1826.4,656.7 0,0 186.1,-356.2 111,-849.9 -545.3,1465.7 -2316.3,2039.7 -2316.3,2039.7 0,0 153.9,-636 -164.1,-1087.3 -150.4,-213.6 -213.6,-443.2 -238.4,-625.8 -317.3,600.3 -1023.2,687.4 -1023.2,687.4 0,0 543.6,-615.5 -789.8,-1415.5 -548.4,-329.1 -800.2,-883 -906.8,-1421 -143.9,-489.1 84.5,-1150.6 -625.3,-1178 51.8,-70.9 111.4,-131.7 175.5,-182.9 -335.5,-51.3 -654.9,-282.7 -840.3,-703.7 -245.5,-557.4 -261.7,-1309.1 -41.1,-1707.9 -7.3,152.5 21,494.7 53.8,656.2 39.8,-503.9 280,-1282.1 1361.6,-1433.9 49.4,-6.9 96,-10.9 140.4,-12.2 -87.7,-323.8 -262.7,-686.4 -608.3,-943.5 297.5,-40.5 547.1,13.6 753.7,115.8 -300.5,-796.8 -212.2,-1486.5 -212.2,-1486.5 0,0 203,215.3 539.8,454.5 -19.2,-1015.5 919.3,-2096.1 919.3,-2096.1 0,0 -44.9,353.6 -7,780.2 926.2,-1599.9 3717.5,-1599.9 4643.7,0 38,-426.6 -6.9,-780.2 -6.9,-780.2 0,0 938.4,1080.6 919.3,2096.1 336.7,-239.2 539.8,-454.5 539.8,-454.5 0,0 88.2,689.7 -212.3,1486.5 206.6,-102.2 456.2,-156.3 753.8,-115.8 -352,261.8 -527,633.2 -613.1,961.4 1049.2,164.5 1284.3,930.2 1323.6,1428.2 32.8,-161.5 61.1,-503.7 53.8,-656.2 220.6,398.8 204.4,1150.5 -41,1707.9 -171.7,389.7 -458.2,616.9 -765.8,689.2 v 0"
         style="fill:#000d24;fill-opacity:1;fill-rule:nonzero;stroke:none"
         id="path40" />
      <path
         d="m 15386.5,25413 c 146.2,301.8 190.4,401.8 199.4,606.6 -559.4,-541 -1059.8,-649.3 -1438.6,-1405.2 250.8,1154.8 883.3,1200.8 1274.7,2154.3 6.5,-283 -19.4,-504.4 -120.3,-713 217.8,200.8 653.7,554.8 806.3,1251.7 132.9,-1000.6 -217.1,-1602.4 -721.6,-1894.4 z m 3947.5,749.3 c 868.4,-446.5 1348.3,-1391.6 1510.8,-1951.5 17.3,403.2 -226.1,1056.9 -406.8,1395.9 255.9,-175.4 430.9,-370.6 553.7,-587.2 -42.5,479 -455.5,934.1 -871.6,1152.1 67.1,-104.3 134.2,-208.6 201.2,-313 -268.3,143.5 -679.8,237.5 -987.4,303.7 z m -2223.5,2434.4 c 0,0 1413.7,-793.9 1561.8,-2127.2 -245.1,275.7 -404.2,376.4 -387.1,176.3 36.6,-427.9 38.9,-637.4 -225.5,-996.3 45.7,255.3 -12.2,508.8 -111.7,773.7 9.9,-505.5 -533.3,-1050.3 -533.3,-1050.3 0,0 320.2,1521.5 -190.8,2215 474.2,-283.9 713,-639.9 713,-639.9 0,0 3.4,557.8 -826.4,1648.7"
         style="fill:#574f5e;fill-opacity:1;fill-rule:evenodd;stroke:none"
         id="path42" />
      <path
         d="m 17500.1,20868.1 c 31.6,-197.4 63.4,-407.5 74,-621.2 223.5,-3.7 453.3,-24.1 746,-61.2 383.2,-48.7 724.8,-97.5 957,-84.3 306.3,17.3 413,167.5 144.4,386.9 314.2,-101.5 497.6,-235.1 412.5,-589.8 0,0 -58.9,95.3 -122.4,140.3 -35.5,-181.7 -144.7,-655.4 -384.2,-1077.5 -296.9,-523.1 -623.1,-494.9 -1047,-417.9 -613.2,111.2 -947.4,111.2 -1560.6,0 -423.9,-77 -750.1,-105.2 -1047,417.9 -239.6,422.1 -348.7,895.7 -384.2,1077.5 -63.5,-45 -122.4,-140.3 -122.4,-140.3 -85.1,354.7 98.3,488.3 412.5,589.8 -268.6,-219.4 -162,-369.6 144.4,-386.9 232.2,-13.2 573.8,35.7 957,84.3 292.7,37.1 522.5,57.5 746,61.2 10.5,213.7 42.4,423.7 74,621.2 z m -2702.6,2934.8 c 120.2,204.7 281.4,403.2 488.3,590.3 -385.7,-81.9 -637.4,-292.2 -637.4,-292.2 590.7,1074.4 1677.8,862.4 2455,147.2 178.5,-164.3 314.9,109.5 -91.7,517.8 213.2,-93.5 375,-244.3 488.4,-392.3 113.3,148 275.2,298.7 488.4,392.3 -406.7,-408.3 -270.2,-682.1 -91.7,-517.8 777.1,715.2 1864.3,927.2 2455,-147.2 0,0 -251.7,210.2 -637.4,292.2 206.9,-187.1 368.1,-385.6 488.3,-590.3 h -2069.9 c -112.2,0 -200.4,-44.1 -267.2,-112.8 h -731.2 c -66.7,68.7 -154.9,112.8 -267.2,112.8 h -2069.8 z m 2843.7,-2542.5 c 5.5,120.3 20.3,294.3 107.2,419.3 162.7,234 579,179.9 590,-59.6 11.2,-245.6 -241.8,-342.2 -241.8,-342.2 0,0 236.4,265.7 52.2,392.3 24.2,-191.2 -148,-253.4 -359.4,-225.1 84.8,-45.5 176.6,-47.9 249.1,-33.7 -87.4,-72.1 -235.5,-66.9 -293.4,-64.4 68.3,-17.6 138.9,-26.3 211,-24.6 -36.2,-44.7 -194.8,-88.5 -314.9,-62 z m -282.2,0 c -5.5,120.3 -20.4,294.3 -107.2,419.3 -162.8,234 -579,179.9 -590,-59.6 -11.2,-245.6 241.7,-342.2 241.7,-342.2 0,0 -236.3,265.7 -52.1,392.3 -24.2,-191.2 148,-253.4 359.4,-225.1 -84.8,-45.5 -176.6,-47.9 -249.2,-33.7 87.5,-72.1 235.6,-66.9 293.5,-64.4 -68.3,-17.6 -138.9,-26.3 -211,-24.6 36.1,-44.7 194.8,-88.5 314.9,-62 z m -4664.5,1081.5 c 39.2,-310.8 157.4,-621 368.5,-849.6 -66.2,152.2 -103.3,331.6 -83.9,539.2 37.3,-462.2 617.8,-896.4 1040.8,-896.6 352.7,1661.2 -924.3,1352.9 -709.6,751 -344.3,246.1 -71.9,967.4 469.9,960 -279.5,103.1 -667.5,20.9 -814.5,-287.9 40.8,577 640.4,708.3 1034.6,482.1 -283.5,876.5 -1467.5,585.1 -1305.8,-698.2 z m 9611.1,0 c -39.2,-310.8 -157.4,-621 -368.5,-849.6 66.2,152.2 103.2,331.6 83.8,539.2 -37.3,-462.2 -617.7,-896.4 -1040.8,-896.6 -352.7,1661.1 924.3,1352.9 709.7,751 344.2,246.1 71.9,967.4 -469.9,960 279.4,103.1 667.4,20.9 814.4,-287.9 -40.8,577 -640.4,708.3 -1034.6,482.1 283.6,876.4 1467.6,585.1 1305.9,-698.2 z m -5599.1,-4674.1 c -300.3,448.3 -608.3,534.8 -1024.2,574 -415.8,39.3 -693.1,251.6 -754.7,526.9 -40.6,181.4 -137.9,291 -201.9,506.5 -281.3,948.3 207.9,1626.5 1166.5,1784.8 -380.1,54.8 -833.8,-13.9 -1091.9,-171.3 -40.7,203.2 -40,446.3 13.4,671.4 181.5,-103.1 406.7,-173.8 685.5,-208.6 239.2,-30 480.6,-21.3 705.5,27.7 11.1,-20.6 25.1,-40.4 42.4,-59.1 172.4,-186.5 555.4,-142.3 527.4,-413 251.5,307.1 -268.9,375.1 -385.2,500.9 -151.8,164.3 143.2,525.8 378.6,594.4 200.1,58.2 440.8,-22.2 599.7,-148.3 -56.2,88.7 -127.4,159.4 -207.1,210.1 89.1,176.3 139.9,385.5 139.9,628.8 v 466.7 c 0,69 56.4,125.3 125.3,125.3 h 148.7 c 68.9,0 125.2,-56.3 125.2,-125.3 V 22693 c 0,-243.3 50.9,-452.5 140.1,-628.8 -79.7,-50.7 -151,-121.4 -207.1,-210.1 159,126.1 399.6,206.5 599.7,148.3 235.5,-68.6 530.4,-430.1 378.5,-594.4 -116.2,-125.8 -636.6,-193.8 -385.1,-500.9 -28,270.7 355,226.4 527.4,413 17.3,18.7 31.3,38.5 42.5,59.2 224.8,-49 466.1,-57.8 705.3,-27.8 278.8,34.8 504,105.5 685.6,208.6 53.4,-225 54,-468.1 13.4,-671.4 -258.1,157.4 -711.8,226.1 -1091.9,171.3 958.6,-158.3 1447.8,-836.5 1166.5,-1784.8 -63.9,-215.5 -161.4,-325.1 -201.9,-506.5 -61.6,-275.3 -338.9,-487.6 -754.7,-526.9 -415.9,-39.2 -723.9,-125.7 -1024.2,-574 -316.7,-472.7 -1270.5,-472.7 -1587.2,0 v 0"
         style="fill:#eec09f;fill-opacity:1;fill-rule:evenodd;stroke:none"
         id="path44" />
      <path
         d="m 15010.8,20984.4 c -78.6,-26.7 -150,-58.7 -210.6,-95.6 -39.3,196.8 -39.9,431.1 8.6,650.2 l 91.7,-24.2 c 165.2,-78.7 362.7,-133.8 598.6,-163.3 12.1,-1.5 24.2,-2.9 36.3,-4.2 l 530.1,-139.9 c 0,0 -574.6,-100 -1057.5,-15.4 -7.2,-79.7 -2.9,-154.4 2.8,-207.6 z m -213.4,2818.5 c 120.2,204.7 281.5,403.2 488.3,590.3 -385.7,-81.9 -637.4,-292.2 -637.4,-292.2 419.4,762.9 1089.2,877.1 1720.6,623.2 -317.3,32.8 -723,8.8 -1085.2,-215.7 342.1,54.3 638.4,25.1 638.4,25.1 0,0 -494.1,-244.9 -743,-730.7 z m -797.1,-762.8 c 0,0 -322.3,539.7 -785.3,357.9 -349.2,-137.3 -503.9,-698 -338.7,-1324.8 40.9,158.6 101.8,266.7 101.8,266.7 0,0 44.5,-845.1 1041.7,-1205 -423,0.2 -1003.5,434.4 -1040.7,896.6 -19.4,-207.6 17.6,-387 83.8,-539.2 -211.1,228.6 -329.3,538.8 -368.5,849.6 -161.7,1283.3 1022.3,1574.7 1305.9,698.2 z m 1578.4,-2551.9 c 0,0 -226.7,-240.7 112.3,-289.6 338.9,-48.9 1405.2,54.9 1735,48.3 v 0 c -223.5,-3.7 -453.3,-24.1 -746,-61.3 -383.2,-48.6 -724.8,-97.4 -957,-84.3 -295.2,16.7 -404.9,156.8 -172.4,363.1 l 28,23.8 z M 16694,21827 c 0,0 -151.9,-159.9 -154.3,-313.9 -2.5,-154 173.6,-155.9 245.8,-266.5 72.4,-110.6 66.1,-186.8 52,-225.7 l -0.3,-0.6 c 54,213.6 -347.5,279.1 -447.9,387.7 -147.1,159.2 125.2,503.5 356.4,587.1 -83.9,-76.6 -225.8,-223.2 -270.4,-373.5 83.3,110.7 218.7,205.4 218.7,205.4 z m -430.2,-3732.3 c -173.7,92.7 -362.7,126.5 -581.5,147.1 -415.9,39.3 -693.1,251.6 -754.7,526.9 -40.6,181.4 -138,291 -201.9,506.5 -281.3,948.3 207.9,1626.5 1166.4,1784.8 -1179.2,-268.1 -1228.8,-1420.7 -763.3,-2248.6 -54.9,298.7 -69.4,614.4 -69.4,614.4 78.3,-309.8 287,-809.8 570.6,-973.8 215.9,-124.8 434.6,-199.5 633.8,-357.2 v -0.1"
         style="fill:#fff4e3;fill-opacity:1;fill-rule:evenodd;stroke:none"
         id="path46" />
      <path
         d="m 18319.8,24567.7 c 712.4,430.5 1542.6,423.5 2032,-466.7 0,0 -251.7,210.2 -637.4,292.2 206.9,-187.1 368.1,-385.7 488.3,-590.3 h -890.5 c -157.3,596.2 -679.9,735.9 -992.4,764.8 z m 2961.1,-1431.3 c -98.3,-14.2 -194.6,-46.7 -281.2,-96.3 177.5,548.5 707.6,639.6 1039.8,316.3 -199.3,81.1 -488.4,104.8 -758.6,-220 z m 375.7,-479 c -107.7,113.5 -257.4,190.9 -436.7,188.5 279.4,103.1 667.4,20.9 814.4,-287.9 0,0 -110.6,108.1 -377.7,99.4 z m -345.9,-1449.6 c -112.8,-46.5 -226.4,-72.9 -330.5,-73 -352.8,1661.2 924.2,1353 709.6,751 0,0 -200.8,260.9 -365.7,141.8 -137.5,-99.3 -166.7,-510.5 -13.4,-819.7 z m -3810.6,-339.7 c 0,0 124.8,-279.7 202.1,-625.2 -43.2,1.9 -85.7,3.2 -128.1,3.9 -10.5,213.7 -42.5,423.8 -74,621.3 z m 339.4,1196 c -89.1,176.3 -139.9,385.6 -139.9,628.9 v 466.7 c 0,57.5 -39.2,106.2 -92.2,120.8 -30.9,-793.5 50.9,-1080.1 101,-1326.9 h 0.1 c 39.8,43.6 83.9,80.5 131,110.5 z m 386.2,-1157 c 0.4,0.5 233.6,274.8 834.4,205 -146.3,-31 -260.8,-93 -260.8,-93 0,0 799,-89 1006.8,-556.5 -317.3,198.7 -667.7,201.5 -667.7,201.5 0,0 277.2,-226.8 247.4,-410 -19.2,-118.2 -609.2,-85.2 -1127.1,-60.8 20.1,-2.5 40.6,-5.1 61.3,-7.7 383.3,-48.6 724.9,-97.4 957.1,-84.3 306.3,17.4 413,167.6 144.4,386.9 314.2,-101.5 497.6,-235 412.5,-589.8 0,0 -58.9,95.3 -122.4,140.4 -35.5,-181.8 -144.7,-655.5 -384.2,-1077.5 -296.9,-523.2 -623.1,-494.9 -1047,-418 -259.6,47.1 -469.3,74.2 -671.2,81.4 525.7,-95.7 702,-196.8 748.1,-324.3 56,-155 -292.6,-957.2 -1087.5,-965.9 383.3,-71.8 826.9,39.3 1023.9,333.3 300.3,448.3 608.3,534.8 1024.2,574 415.8,39.3 693,251.6 754.6,526.9 40.6,181.4 138.1,291 202,506.5 281.2,948.3 -208,1626.5 -1166.5,1784.8 380.1,54.8 833.7,-13.9 1091.8,-171.3 40.7,203.3 40,446.4 -13.3,671.5 -181.6,-103.2 -406.8,-173.9 -685.6,-208.7 -234,-29.3 -469.9,-21.6 -690.5,24.6 l -19,-4.2 c -10.4,-18 -23.1,-35.3 -38.3,-51.8 -172.4,-186.5 -555.4,-142.4 -527.4,-413 z m -0.2,0.2 0.2,-0.2 v 0 z m -249.7,1103.5 c 82.5,-3.8 180.7,-26.9 282.4,-91.9 144,-92 193.7,-216.7 209,-311.8 -55.1,81.4 -124.5,118.4 -124.5,118.4 0,0 171.2,-209.4 -47.6,-370.8 -218.9,-161.5 -125.9,-354.8 -125.9,-354.8 v 0 c -85.7,229.9 338.1,296.1 441.6,408.1 151.8,164.3 -143.1,525.9 -378.6,594.4 -81.4,23.7 -169.7,24.4 -256.5,8.4 z m -1011.7,-3755.7 c 340,33.5 732,33.5 1072,0 -229.7,285.7 -842.4,285.7 -1072,0"
         style="fill:#996452;fill-opacity:1;fill-rule:evenodd;stroke:none"
         id="path48" />
      <path
         d="m 18527.7,19988.4 c 510.2,-50.4 716.4,-104.1 767.1,-147.8 50.7,-43.7 47,-248.4 47,-248.4 0,0 -408.4,-154.8 -1053.7,-182.5 554.2,-61.2 934.3,-146.6 934.3,-146.6 0,0 -94,-305.6 -271.3,-372.7 -287.4,-108.9 -2614.7,-108.9 -2902,0 -177.3,67.1 -271.4,372.7 -271.4,372.7 0,0 380.1,85.4 934.3,146.6 -645.2,27.7 -1053.7,182.5 -1053.7,182.5 0,0 -3.6,204.7 47,248.4 50.7,43.7 256.9,97.4 767.1,147.8 641.1,63.2 1414.3,63.2 2055.3,0 v 0"
         style="fill:#fefdf9;fill-opacity:1;fill-rule:evenodd;stroke:none"
         id="path50" />
      <path
         d="m 15956.9,19298.9 c -114.7,-21.3 -179.2,-35.8 -179.2,-35.8 0,0 94,-305.6 271.4,-372.7 143.7,-54.5 797.3,-81.7 1451,-81.7 653.6,0 1307.3,27.3 1451,81.7 177.3,67.1 271.4,372.7 271.4,372.7 0,0 -64.6,14.5 -179.2,35.8 -34.7,-81.8 -119.5,-248 -248,-284.3 -132.6,-37.5 -2457.8,-37.5 -2590.5,0 -128.4,36.3 -213.2,202.5 -247.9,284.3 z m 2570.8,689.5 c 510.2,-50.4 716.4,-104.1 767.1,-147.8 50.6,-43.7 47,-248.5 47,-248.5 0,0 -408.5,-154.7 -1053.7,-182.4 0,0 806.8,188.1 865.5,209.7 58.7,21.6 18.5,166.6 18.5,166.6 -1075.5,95.7 -2268.6,95.7 -3344.1,0 0,0 -40.1,-145 18.6,-166.6 58.6,-21.6 865.5,-209.7 865.5,-209.7 -645.3,27.7 -1053.8,182.4 -1053.8,182.4 0,0 -3.6,204.8 47,248.5 50.7,43.7 256.9,97.4 767.2,147.8 320.5,31.6 674,47.5 1027.6,47.5 353.6,0 707.1,-15.9 1027.6,-47.5 v 0"
         style="fill:#e6e6e6;fill-opacity:1;fill-rule:evenodd;stroke:none"
         id="path52" />
      <path
         d="m 13999.2,23690.7 v -195.4 h 199.7 l 2,-110.1 c 8.7,-475.8 50.6,-1094.4 367.5,-1477.4 236.7,-286 587.3,-400.4 944.7,-445 225.8,-28.2 450.8,-20.8 659.3,23.4 -7.8,80.1 15.7,166.3 59.2,249.1 -212.6,-62.1 -452.1,-75.7 -690.3,-46 -295.6,37 -600.2,126.2 -797,364.1 -275.2,332.5 -307.6,924.3 -315.1,1336 l -1.4,73 h 2263.9 c 179.3,0 268.2,-136.2 268.2,-302.7 V 22693 c 0,-214.9 -51.4,-393 -140.2,-536.9 81.5,4.5 163.2,-9.5 240.1,-40.2 82,162 128.4,354.2 128.4,577.1 v 466.7 c 0,130.9 106.6,237.6 237.5,237.6 h 148.7 c 130.9,0 237.4,-106.7 237.4,-237.6 V 22693 c 0,-223 46.4,-415.1 128.4,-577.1 76.9,30.7 158.6,44.7 240.2,40.2 -88.8,143.9 -140.3,322.1 -140.3,536.9 v 466.7 c 0,166.5 88.9,302.7 268.2,302.7 h 2263.9 l -1.3,-73 c -7.6,-411.7 -40,-1003.5 -315.2,-1336 -196.8,-237.9 -501.4,-327.1 -797,-364.1 -238.1,-29.7 -477.5,-16.1 -690.1,45.9 43.5,-82.8 66.9,-168.9 59.1,-249.1 208.5,-44.1 433.5,-51.5 659.3,-23.3 357.4,44.7 707.9,159 944.7,445 316.9,383 358.7,1001.6 367.4,1477.4 l 2.1,110.1 h 199.6 v 195.4 h -2868 c -73.8,0 -135.3,-25.9 -186.7,-78.8 l -33,-34 H 17087 l -33.1,34 c -51.4,52.9 -112.8,78.8 -186.6,78.8 h -2868 -0.1"
         style="fill:#fec919;fill-opacity:1;fill-rule:evenodd;stroke:none"
         id="path54" />
      <path
         d="m 19909.3,23350.1 h -211 l -747,-1542.3 c 65.5,-11 132.9,-17.7 201.1,-20.3 z m -4323.5,-1553 c 68.7,-7.5 137.6,-11.1 205.7,-10.8 l 757.5,1563.8 h -211 z m -500.6,131.2 c 98.2,-48.5 205.5,-80.6 313.9,-102.5 l 738.4,1524.3 h -363.6 z m 4049,1421.8 -635.8,-1312.6 c 56.9,-40.3 111.4,-89.3 159.2,-143.5 36.7,-16.2 74.8,-30.5 114,-43 l 726.2,1499.1 h -363.6 v 0"
         style="fill:#fff4e3;fill-opacity:1;fill-rule:evenodd;stroke:none"
         id="path56" />
      <path
         d="m 16096.2,8154.9 -176.5,55 53.8,229.1 -4.5,1.1 c -12.1,3.4 -23.3,6.3 -33.6,8.7 -48.1,11.3 -82.8,15.2 -104.1,11.4 -21.2,-3.6 -37.6,-26.2 -49,-67.7 -2,-6.4 -4.5,-14.4 -7.1,-24.3 -2.5,-9.6 -5,-19.3 -7.6,-29.1 -2.6,-9.9 -4.6,-18.3 -6.2,-25.1 l -2.5,-10.7 323.3,-369.2 -48.6,-207.7 c -10.8,-46.1 -31.4,-85.4 -61.6,-118.1 -30.4,-32.9 -68,-55.8 -113.6,-68.8 -45.3,-13.1 -96.3,-13 -153.1,0.3 l -326.5,76.5 91.8,391.7 176.4,-55.2 -23,-198.3 c 18.8,-4.4 35.8,-8.6 51.1,-12.8 10.6,-3 20.5,-5.6 29.6,-7.8 24.6,-5.7 45.6,-9 63.2,-9.5 17.8,-0.6 31.8,7.7 42.2,24.9 10.7,17.1 20.8,47.3 30.8,90.1 l 3.3,13.9 -322,374.7 55.3,236 c 10.8,46 31.3,85.3 61.4,118.3 30,32.7 67.7,55.6 113.5,68.6 45.6,13.1 96.8,12.9 153.4,-0.3 l 317.3,-74.4 -126.9,-421.2 z m 834.6,330.9 -22.7,-193.8 -180.9,40.2 -111,-945.3 -229.7,27 111.4,949.3 -197.2,0.2 22.7,193.7 607.5,-71.3 z m 185.1,-869.5 139.7,-149.9 -149.8,-140.4 -140.5,150.6 150.6,139.6 z m 660.8,870.1 c 58,2.1 108.3,-7.7 150.5,-29.3 42.4,-21.6 75.2,-51.7 98.6,-89.5 23.4,-38.2 36,-80.8 37.6,-127.8 l 6.2,-174 c -56.8,-57.1 -119,-116 -186.8,-176.3 -67.7,-60.5 -126.9,-112.3 -178.1,-155.8 l 8,-223.4 h 0.8 l 165,17.7 -10.9,239.2 183.4,20.7 43.3,-438 -606.6,-21.6 -17.4,487.1 68.1,57.6 c 44.9,38.1 96.6,83 155.5,134.6 59,51.6 111.6,98.6 158.5,141.1 l -0.2,7 c -0.2,4.8 -0.7,10.7 -1.2,17.7 -0.6,7.3 -0.8,14.5 -1.1,22.6 -3.7,44 -12.5,71.6 -26.1,82.9 -13.8,11.4 -38,16.7 -72,16 l -5.4,-0.2 c -21,-1.2 -37.8,-4.8 -50.2,-10.6 -12.2,-5.6 -20.9,-18.8 -25.8,-39.9 -4.6,-20.9 -6,-55.7 -4.3,-104.5 l -231.5,-8.2 -3,85.9 c -1.7,47 7.8,90.3 28.2,129.5 20.3,39.5 50.9,71.5 91.5,96 40.5,24.6 90,37.9 148.3,40 z m 904.6,-589.1 c -59.6,-54.6 -111.6,-100.2 -156,-136.5 l 0.5,-4.6 c 5.8,-49.1 11.5,-86.8 17.4,-113.7 5.9,-26.9 15,-44.8 28,-54.1 13,-9.6 33.7,-12.5 62,-9.2 28,3.3 47.4,11 57.9,23.3 10.4,12 15.2,31.5 14.4,59.1 -0.8,27.4 -4.2,65.5 -10,114.6 z m -202.6,260.1 16.7,-141.7 c 43,38.8 94.3,90 154,153.6 l -0.9,8 c -5.8,48.8 -11.6,86.8 -17.4,113.5 -5.9,26.9 -15.1,45 -28.1,54.3 -12.9,9.3 -33.3,12.3 -60.8,9.1 -27.8,-3.2 -46.9,-10.9 -57.6,-23 -10.8,-12.1 -15.8,-31.9 -15.3,-59.4 0.5,-27.3 3.7,-65.6 9.4,-114.4 z m 368.5,237.2 c 3,-7 6.1,-17.1 9.5,-30 3.5,-13.1 5.5,-24 6.5,-32.2 l 76.6,-652.8 c 5.5,-47 -0.4,-91 -17.8,-131.7 -17.4,-41 -45.3,-75.4 -83.4,-102.9 -38.2,-27.7 -86.4,-45 -144.9,-51.9 l -77.4,-9.1 c -57.9,-6.8 -108.6,-1.1 -152.7,17 -43.7,17.8 -78.8,44.8 -105,80.7 -26.1,35.6 -41.8,77.1 -47.3,124.1 l -76.1,648.2 c -5.4,46.7 0.2,90.7 17.4,131.4 17.1,41 45,75.3 83.3,103.1 38.7,27.8 86.7,45.1 144.7,51.9 l 77.3,9.1 c 72.6,8.5 133.6,-1.9 183.6,-31.2 50,-29.3 85.1,-70.7 105.7,-123.7 z m 480.4,305 c 56.6,13.1 107.8,13 153.4,-0.2 45.8,-13.1 83.7,-36.4 113.8,-69.1 30.3,-33 50.7,-72.4 61.2,-118.3 l 39.2,-169.6 c -45,-66.9 -94.8,-136.6 -149.9,-208.6 -55,-72.3 -103.3,-134.4 -145.2,-186.8 l 50.3,-217.9 0.7,0.2 158.7,48.7 -56.2,232.8 176.1,55.3 125.8,-421.9 -591.5,-136.5 -109.5,475 55.9,69.4 c 36.8,46 79,99.9 127,161.7 48.1,61.8 90.8,118 128.8,168.7 l -1.6,6.8 c -1.1,4.7 -2.7,10.4 -4.5,17.2 -1.9,7 -3.5,14.1 -5.3,21.9 -12.1,42.5 -25.9,68 -41.4,76.5 -15.8,8.5 -40.5,9.1 -73.8,2 l -5.3,-1.2 c -20.3,-5.2 -36.1,-11.9 -47.2,-20 -10.9,-7.8 -16.9,-22.4 -17.7,-44.1 -0.6,-21.4 4.6,-55.8 15.6,-103.4 l -225.7,-52.1 -19.3,83.8 c -10.6,45.8 -9.5,90.2 3,132.5 12.5,42.6 36.5,79.9 71.6,111.7 35.1,31.8 81.2,54.3 138,67.4 l 75,18.2 z m 409.3,89.2 217.7,78.2 398.6,-1055.4 -217.3,-78.1 -312,922.7 -100.9,-79.7 14.2,211.5 z m 1489.6,197.1 c 109.2,0 197.7,-88.5 197.7,-197.6 0,-109.2 -88.5,-197.7 -197.7,-197.7 -109.1,0 -197.6,88.5 -197.6,197.7 0,109.1 88.5,197.6 197.6,197.6 z m -7453,0 c 109.1,0 197.6,-88.5 197.6,-197.6 0,-109.2 -88.5,-197.7 -197.6,-197.7 -109.2,0 -197.7,88.5 -197.7,197.7 0,109.1 88.5,197.6 197.7,197.6 z m 1711.7,-431.3 -330.8,126.9 -127.7,-403.8 337.2,-106.6 -58.9,-186.3 -330.8,126.9 -54.9,-173.5 343.6,-86.3 -58.8,-186.1 -337.2,106.7 -220.1,68.7 101.2,319.8 -23.1,212.2 82,-26 180.1,569.5 556.9,-176.1 -58.8,-186 h 0.1"
         style="fill:#000d24;fill-opacity:1;fill-rule:evenodd;stroke:none"
         id="path58" />
      <path
         d="m 11709.5,22656.4 c 17.7,15.1 35.6,30.2 53.4,45.2 l 426.5,-21.3 z m -622.8,-585.4 c 34,35.2 67.9,70.4 102.4,105 l 1000.3,-50 z m -509.8,-574.2 c 42.3,51.9 85.2,103.4 128.7,154.4 l 1483.8,-74 z m -423.5,-564.7 c 45.6,66 92,131.5 139.4,196.2 l 1896.6,-94.6 z M 9798.96,20376 c 45.72,78 92.59,155.2 140.59,231.6 l 2249.85,-112.3 z m -296.09,-547.9 c 43.62,87.9 88.36,175.1 134.76,261.4 l 2316.17,-115.6 c -6,-8.1 -11.8,-16.3 -17.8,-24.4 z m -246.05,-540.5 c 40.03,96.3 81.45,191.8 124.72,286.4 l 2227.56,-111.1 c -12.1,-19.8 -23.9,-39.8 -35.9,-59.7 L 9256.8,19287.6 Z M 9055,18754.2 c 35.31,103.3 72.74,205.7 111.69,307.2 l 2160.21,-107.8 c -14.7,-29.3 -29.5,-58.7 -43.8,-88.2 z m -161.32,-526.5 c 29.78,108.8 61.22,217 94.97,324.1 l 2109.55,-105.2 c -14.8,-36.9 -29.3,-73.9 -43.5,-111.1 l -2161.04,-107.8 z m -125.67,-520 c 23.78,113.3 49.71,225.8 77.72,337.5 l 2071.57,-103.3 c -13.5,-42.8 -26.3,-85.8 -39,-128.9 z m -92,-513.7 c 17.46,116.6 37.3,232.5 59.16,347.7 L 10780,17439.6 c -11,-47.2 -21.3,-94.6 -31.3,-142.2 z m -60.4,-507.5 c 10.86,118.8 23.55,237.2 39.05,354.7 L 10683.1,16940 c -7.8,-50.3 -15,-100.8 -21.7,-151.5 z m -35.35,-997.4 c -1.38,59.9 -2.29,119.9 -2.29,180.1 0,60.2 0.91,120.2 2.29,180 l 2021.04,-100.8 c -0.3,-26.4 -1,-52.8 -1,-79.2 0,-26.5 0.7,-52.9 1,-79.3 z m 22.98,-494.5 c -8.89,119 -14.86,238.7 -19.11,358.9 l 2029.07,-101.3 c 3.2,-52.4 6.7,-104.6 11,-156.7 0,0 -2020.95,-100.9 -2020.96,-100.9 z m 51.42,-497.4 c -15.5,117.4 -28.19,235.8 -39.04,354.7 l 2045.78,-102.1 c 6.8,-50.7 13.9,-101.1 21.7,-151.4 z m 80.52,-500.5 c -21.87,115.1 -41.71,231 -59.17,347.6 l 2072.69,-103.4 c 10,-47.5 20.3,-95 31.3,-142.2 z m 110.57,-503.6 c -28.03,111.7 -53.96,224.3 -77.72,337.6 l 2110.37,-105.3 c 12.6,-43.1 25.5,-86.1 38.9,-128.9 z m 142.92,-506.6 c -33.75,107.1 -65.18,215.3 -94.96,324.2 l 2160.99,-107.9 c 14.2,-37.1 28.7,-74.2 43.6,-111 l -2109.61,-105.3 z m 178.05,-509.6 c -38.95,101.6 -76.39,203.9 -111.7,307.2 L 11283.1,12873 c 14.3,-29.6 29.1,-58.9 43.9,-88.3 z m 214.84,-512.6 c -43.26,94.6 -84.69,190.2 -124.71,286.5 l 2316.45,-115.6 c 11.9,-19.9 23.7,-39.9 35.8,-59.7 l -2227.51,-111.1 z m 256.09,-515.4 c -46.39,86.2 -91.13,173.5 -134.75,261.4 l 2433.2,-121.4 c 5.9,-8.1 11.8,-16.4 17.8,-24.4 z m 301.9,-518.2 c -48,76.4 -94.86,153.6 -140.59,231.6 L 12189.4,11243 Z m 353.25,-520.7 c -47.4,64.8 -93.8,130.2 -139.4,196.2 l 2036,-101.6 z m 412.8,-522.9 c -43.4,51 -86.3,102.5 -128.7,154.5 l 1612.5,-80.5 z m 483.6,-524.8 c -34.6,34.6 -68.5,69.8 -102.5,104.9 l 1102.7,-55 z m 573.7,-525.6 c -17.8,15 -35.7,30 -53.4,45.2 l 479.9,-23.9 z m 11527.8,13619.6 c -17.8,15.1 -35.7,30.2 -53.5,45.2 l -426.4,-21.3 z m 622.7,-585.4 c -34,35.2 -67.9,70.4 -102.4,105 l -1000.2,-50 z m 509.8,-574.2 c -42.3,51.9 -85.2,103.4 -128.7,154.4 l -1483.7,-74 z m 423.6,-564.7 c -45.6,66 -92.1,131.5 -139.5,196.2 l -1896.5,-94.6 z m 354.4,-556.1 c -45.8,78 -92.6,155.2 -140.7,231.6 l -2249.7,-112.3 z m 296,-547.9 c -43.6,87.9 -88.3,175.2 -134.7,261.4 l -2316.2,-115.6 c 6,-8.1 11.8,-16.3 17.8,-24.4 z m 246.1,-540.5 c -40,96.3 -81.5,191.9 -124.7,286.4 L 23391,19462.8 c 12.1,-19.8 24,-39.8 35.8,-59.7 z m 201.8,-533.4 c -35.3,103.3 -72.7,205.7 -111.7,307.2 l -2160.2,-107.8 c 14.7,-29.3 29.5,-58.6 43.8,-88.2 z m 161.3,-526.5 c -29.7,108.8 -61.2,217 -94.9,324.1 l -2109.6,-105.2 c 14.8,-36.9 29.3,-73.9 43.6,-111.1 l 2161,-107.8 z m 125.7,-520 c -23.8,113.3 -49.7,225.8 -77.7,337.5 l -2071.6,-103.3 c 13.5,-42.8 26.3,-85.8 39,-128.9 z m 92,-513.7 c -17.5,116.6 -37.3,232.5 -59.2,347.7 l -2044.8,-102 c 11,-47.3 21.3,-94.7 31.3,-142.3 z m 60.4,-507.5 c -10.8,118.9 -23.6,237.2 -39,354.7 L 24317,16939.9 c 7.8,-50.3 15,-100.8 21.7,-151.4 z m 35.3,-997.4 c 1.4,59.9 2.3,119.9 2.3,180.1 0,60.2 -0.9,120.2 -2.3,180 l -2021,-100.8 c 0.4,-26.4 1,-52.8 1,-79.2 0,-26.5 -0.6,-52.9 -1,-79.3 z m -22.9,-494.5 c 8.9,119 14.9,238.7 19.1,358.9 l -2029.1,-101.3 c -3.1,-52.4 -6.7,-104.6 -11,-156.7 z m -51.4,-497.4 c 15.4,117.4 28.2,235.8 39,354.7 l -2045.8,-102.1 c -6.8,-50.6 -13.9,-101.1 -21.7,-151.4 z m -80.6,-500.5 c 21.9,115.1 41.7,231 59.2,347.6 l -2072.7,-103.4 c -10,-47.5 -20.3,-95 -31.3,-142.2 z m -110.5,-503.6 c 28,111.7 53.9,224.3 77.7,337.6 l -2110.4,-105.3 c -12.6,-43.1 -25.4,-86.1 -38.9,-128.9 z m -143,-506.6 c 33.8,107.2 65.2,215.3 95,324.2 l -2161,-107.8 c -14.2,-37.2 -28.7,-74.2 -43.6,-111.1 z m -178,-509.6 c 39,101.6 76.4,203.9 111.7,307.2 L 23717,12872.9 c -14.3,-29.6 -29.1,-58.9 -43.9,-88.3 z m -214.9,-512.5 c 43.3,94.5 84.8,190.1 124.8,286.4 l -2316.5,-115.6 c -11.9,-19.9 -23.7,-39.9 -35.8,-59.7 z m -256,-515.5 c 46.4,86.2 91.1,173.5 134.7,261.4 L 23064,11788.8 c -5.9,-8.1 -11.7,-16.3 -17.7,-24.4 z m -302,-518.2 c 48.1,76.4 94.9,153.7 140.7,231.6 l -2390.4,-119.3 z m -353.2,-520.7 c 47.4,64.8 93.9,130.2 139.5,196.2 l -2036,-101.6 z m -412.8,-522.9 c 43.4,51 86.3,102.5 128.7,154.5 l -1612.4,-80.5 z m -483.6,-524.8 c 34.6,34.6 68.5,69.8 102.5,104.9 l -1102.7,-55 z m -573.7,-525.6 c 17.8,15 35.7,30.1 53.5,45.2 l -479.9,-23.9 z m 3159.7,7506.9 -2021,-100.8 c 4.3,-52.1 7.8,-104.4 11,-156.8 l 2029,-101.2 c -4.2,120.1 -10.2,239.9 -19,358.8 z m -17793.68,0 2020.98,-100.8 c -4.3,-52.1 -7.9,-104.4 -11,-156.8 l -2029.1,-101.2 c 4.25,120.1 10.22,239.9 19.12,358.8"
         style="fill:#000d24;fill-opacity:1;fill-rule:evenodd;stroke:none"
         id="path60" />
      <path
         d="M 8405.66,9330.8 C 7663.56,8876 7272.77,8229 6792.15,7537.4 c -440.55,784.2 -570.43,1673.7 -526.81,2568.5 -859.95,75.1 -1670.6,63.6 -2528.61,17 768.68,1243.1 1948.99,2783.4 3375.41,3297.5 625.31,225.3 1024.92,52.5 961.38,-344.2 l 591.66,-1481.3 c 1123.95,730.4 2367.52,1536.8 3581.32,2005.5 3344.1,1290.9 7162.9,1290.9 10507,0 1213.8,-468.7 2457.4,-1275.1 3581.3,-2005.5 l 591.7,1481.3 c -63.6,396.7 336.1,569.5 961.4,344.2 1426.4,-514.1 2606.7,-2054.5 3375.4,-3297.5 -858,46.6 -1668.7,58.1 -2528.6,-17 43.6,-894.8 -86.3,-1784.3 -526.8,-2568.5 -480.7,691.6 -871.5,1338.6 -1613.6,1793.4 -155.4,-333.4 -306.4,-633.8 -513.8,-940.5 -599.4,-885.9 -1530.9,-520.4 -2244.8,-40.6 -644.1,432.8 -1370,807.6 -2076.3,1134.3 -2684.7,1242.2 -5834.1,1242.2 -8518.8,0 -706.3,-326.7 -1432.2,-701.5 -2076.3,-1134.3 -713.9,-479.8 -1645.35,-845.3 -2244.76,40.6 -207.45,306.7 -358.4,607.1 -513.88,940.5 v 0"
         style="fill:#000d24;fill-opacity:1;fill-rule:evenodd;stroke:none"
         id="path62" />
      <path
         d="M 6842.93,8214.9 C 7269.9,8824.5 7603,9251.5 8253.47,9642 c -161.17,302.5 -370.23,586.1 -819.76,924.4 -478.29,359.9 -875.85,846 -544.68,1454.4 182.1,334.6 392.05,451 618.29,716.7 306.61,360.1 146.39,512.3 -279.12,359 -707.8,-255.1 -1833.8,-1066.6 -2847.77,-2597 760.05,25.3 1500.4,-8.6 2257.38,-83.3 -68.14,-682.7 -17.66,-1544.1 205.12,-2201.3 z m 21314.17,0 c -427,609.6 -760.1,1036.6 -1410.6,1427.1 161.2,302.5 370.3,586.1 819.8,924.4 478.3,359.9 875.9,846 544.7,1454.4 -182.1,334.6 -392.1,451 -618.3,716.7 -306.6,360.1 -146.4,512.3 279.1,359 707.8,-255.1 1833.8,-1066.6 2847.8,-2597 -760.1,25.3 -1500.4,-8.6 -2257.4,-83.3 68.2,-682.7 17.7,-1544.1 -205.1,-2201.3"
         style="fill:#fec919;fill-opacity:1;fill-rule:nonzero;stroke:none"
         id="path64" />
      <path
         d="m 12370.7,13279.2 c -1186.3,-458 -2420.51,-1260 -3534.64,-1983.9 -320.06,-208 -668.7,-467 -1036.44,-578.7 552.76,-453.5 723.81,-820.6 930.44,-1264.2 117.9,-253.2 248.27,-533 475.58,-869.1 468.85,-692.9 1228.26,-309.6 1766.96,52.5 660.8,444.1 1399.5,826.3 2123.6,1161.3 2776.4,1284.7 6031.2,1284.7 8807.6,0 724.1,-335 1462.8,-717.2 2123.6,-1161.3 538.7,-362.1 1298.1,-745.4 1767,-52.5 227.3,336.1 357.6,615.9 475.5,869.1 206.7,443.6 377.7,810.7 930.5,1264.2 -367.8,111.7 -716.4,370.7 -1036.5,578.7 -1114.1,723.9 -2348.3,1525.9 -3534.6,1983.9 -3264.3,1260.2 -6994.3,1260.2 -10258.6,0 v 0"
         style="fill:#fec919;fill-opacity:1;fill-rule:nonzero;stroke:none"
         id="path66" />
      <path
         d="m 8476.89,11471.3 c -136.6,-90.2 -274.73,-180.7 -414.53,-260.7 -602.63,-345 -1167.5,100.9 -871.04,645.5 155.13,285.1 375.79,421.5 577.75,658.7 75.74,89 136.65,173.8 183.84,253.8 145.11,-447 320.33,-880.3 523.96,-1297.3 z m 18046.31,0 c 136.6,-90.2 274.7,-180.7 414.5,-260.7 602.7,-345 1167.5,100.9 871.1,645.5 -155.2,285.1 -375.8,421.5 -577.8,658.7 -75.7,89 -136.6,173.8 -183.8,253.8 -145.1,-447 -320.3,-880.3 -524,-1297.3 v 0"
         style="fill:#f29c11;fill-opacity:1;fill-rule:nonzero;stroke:none"
         id="path68" />
      <path
         d="m 12198.2,11749.5 c -37.5,95.2 -69.3,168.6 -94.7,219.2 -26.1,51 -54.6,82.4 -85.7,94.2 -31.1,11.8 -73.6,7.1 -127.2,-14 -54.1,-21.3 -88.5,-46.8 -103.7,-76.8 -15.2,-30 -14.7,-72.5 1,-127.6 15.4,-54.6 42.6,-129.7 80.1,-224.9 l 307.5,-781.6 c 37.7,-95.7 68.8,-168.7 94.9,-219.7 26.1,-51 54.5,-81.8 85.5,-93.6 31.3,-12.4 73.8,-7.6 129,14.1 54.6,21.5 89.5,47.2 104,77.5 14.7,29.8 13.9,71.6 -2.3,126.4 -16.2,54.9 -43.2,129.6 -80.8,225.3 z m 284.4,542.6 c 9.6,-12.4 21.3,-31.3 34.9,-55.3 13.9,-24.6 24.4,-45.1 30.7,-61.2 l 500.6,-1272 c 36,-91.5 47.5,-183.1 34.1,-274.3 -13.2,-91.6 -51,-175.6 -113.2,-251.1 -62.5,-76.2 -150.4,-136.7 -264.3,-181.5 l -150.8,-59.3 c -112.3,-44.3 -217.8,-60 -315.5,-46.8 -98,12.5 -182.4,48.4 -254,106.7 -71.4,57.8 -125.5,132.6 -161.5,224.1 l -497.1,1263.1 c -35.8,91 -47.2,182.6 -34.4,273.6 12.7,91.4 50,175.2 113,251.7 62.5,76.2 150.4,136.6 262.7,180.8 l 150.8,59.4 c 141.5,55.6 270.2,67.2 386.3,34.9 115.5,-32.7 208.7,-96.9 277.7,-192.8 z m 1053.4,746.4 458.9,139.1 680.4,-2245.2 -458.9,-139.1 -343.3,1132.8 -465.5,339.5 476.7,-1572.9 -453,-137.3 -681.4,2248.4 443.9,132.8 14.9,-8.9 463.1,-337.4 z m 2287,-1881.9 -343.1,573.8 c -66,-64.7 -125.9,-122 -178,-171.9 l 82.2,-477.4 -472.6,-81.4 -397.9,2312.1 472.5,81.3 225,-1306.9 c 84.8,86.6 183.3,196.6 295.3,329.8 l -178.3,1036 466.5,80.3 210.2,-1221.6 c -50.8,-67.1 -107.5,-136.5 -169.9,-208.5 l 496.4,-858.1 z m 1778.2,2062.5 -736.3,25 22.9,-880.4 735.2,19.1 10.5,-406.2 -736.3,25.1 9.9,-378.3 734,63.3 10.5,-405.6 -735.2,-19.1 -479.2,-14.2 -18.2,697.2 -189.3,401.6 178.8,4.6 -32.3,1241.9 1214.5,31.6 z m 1785.6,290.9 -107.2,-1277.5 -469.2,-284.2 -62,-739 -480,40.3 62,739 -415.2,358.5 107.3,1277.5 480,-40.3 -87.1,-1037.5 189.9,-162.3 214.4,128.3 87.1,1037.5 z m 1710.5,-741.2 -1.6,0.4 -349.8,-1286.1 c -31.8,-117 -29.8,-194.6 6.3,-232.2 30.7,-32.1 100.9,-63.4 210.4,-93.1 25.4,-6.9 53,-13.9 83,-20.9 l 231.8,-63 -104,-382.4 -505.3,137.5 c -117,31.8 -211,82.3 -281.4,151.2 -70.4,69 -117.2,148.3 -139.6,238.4 -22.6,89.5 -21.2,181.8 4.6,276.7 l 475.7,1748.8 1061.8,-288.8 -106.5,-391.5 z m 1592.8,-966.4 c 39.3,94.5 67.4,169.3 84.4,223.4 16.8,54.8 18.1,97.2 4,127.3 -14.1,30.1 -48,56.3 -101.2,78.4 -53.6,22.3 -96.1,27.9 -127.9,16.9 -31.8,-11 -61,-41.8 -88.1,-92.3 -26.8,-50 -59.6,-122.9 -98.8,-217.3 l -322.8,-775.4 c -39.5,-95 -67.9,-169.1 -84.7,-223.9 -16.7,-54.7 -17.8,-96.7 -3.7,-126.8 13.9,-30.6 47.8,-56.8 102.5,-79.5 54.2,-22.6 97.1,-28.4 128.7,-16.6 31.3,11.1 59.7,41.7 86.2,92.4 26.6,50.7 59.1,123.1 98.6,218 z m 581.6,192 c -1.6,-15.7 -6.4,-37.3 -13.3,-64.1 -7.1,-27.3 -13.9,-49.3 -20.5,-65.3 l -525.3,-1262 c -37.8,-90.8 -93.3,-164.5 -166.3,-220.7 -73.2,-56.7 -158.8,-90.7 -256,-101.7 -97.9,-11.3 -203.1,6.5 -316.1,53.5 l -149.6,62.3 c -111.5,46.4 -198.2,108.5 -259.2,185.9 -61.7,77.1 -97.4,161.6 -108.2,253.3 -11.1,91.2 2.1,182.5 39.9,273.3 l 521.5,1253.3 c 37.6,90.2 93.1,164 165.6,220.4 72.7,56.9 157.8,91.1 256.3,102.2 97.9,11.3 203.1,-6.5 314.5,-52.8 l 149.6,-62.3 c 140.4,-58.4 241,-139.6 301.8,-243.6 60.3,-103.8 82.5,-214.8 65.3,-331.7 z m 1019.2,-1049.2 c 56.4,85.3 98.1,153.5 125,203.4 26.8,50.6 36.1,92 27.9,124.2 -8.1,32.2 -36.5,64.4 -84.5,96.1 -48.5,32.1 -89.1,45.5 -122.5,40.7 -33.3,-4.7 -67.7,-29.5 -103.8,-74 -35.8,-44 -81.7,-109.4 -138.2,-194.7 l -463.1,-700.7 c -56.7,-85.8 -98.6,-153.2 -125.4,-203.9 -26.7,-50.6 -35.7,-91.5 -27.5,-123.8 7.8,-32.6 36.2,-64.8 85.6,-97.4 48.9,-32.4 90.1,-46.2 123.2,-40.6 32.9,5.1 66.5,29.7 102.2,74.5 35.6,44.7 81.2,109.7 137.9,195.5 z m 607.4,78.8 c -4.6,-15.1 -13.3,-35.4 -25.2,-60.4 -12.1,-25.5 -22.9,-45.8 -32.4,-60.3 L 24086.9,9763 c -54.3,-82 -122.7,-144 -205,-185.4 -82.5,-41.9 -173,-59.1 -270.5,-51.6 -98.3,7.4 -198.3,44.7 -300.4,112.1 l -135.2,89.4 c -100.7,66.6 -174.2,143.9 -219.4,231.5 -46.1,87.4 -65.2,177.1 -58.6,269.1 6.3,91.6 36.5,178.9 90.7,261 l 748.6,1132.3 c 53.9,81.6 122.3,143.6 204.1,185.3 82.1,42.2 172.1,59.7 270.9,52.1 98.3,-7.4 198.3,-44.7 299,-111.3 l 135.2,-89.3 c 126.8,-83.8 210.2,-182.5 250.4,-296.1 39.6,-113.4 40.5,-226.5 1.6,-338.1 z m 524.5,-1693.7 -501.2,-766.2 -902.2,674 1404.1,1879.4 384.2,-287 -1187.7,-1589.8 2.7,-2 175.6,-112.3 299.6,409.5 324.9,-205.7 z m -15408.2,2066.4 481.8,334.1 1336.9,-1927.9 -395.4,-274.2 -1056,1522.8 -60.9,-458.4 861.1,-1241.8 -395.4,-274.2 -861.14,1241.8 -450.67,103.7 1056.01,-1522.8 -394,-273.3 -1336.92,1927.9 480.36,333.1 617.88,-107.4 116.38,616.6 v 0"
         style="fill:#000d24;fill-opacity:1;fill-rule:evenodd;stroke:none"
         id="path70" />
      <path
         d="m 17336.7,15823.3 c -82.2,13.3 -162.9,34.8 -243.5,60.4 -195.5,62.1 -390.5,144.1 -580.9,220.9 -90.3,36.4 -251.2,74.2 -339.5,12.9 -55.7,-38.8 -66,-119.1 -66,-181.5 v -830.2 c 0,-62.3 10.3,-142.7 66.1,-181.4 88.2,-61.4 249.1,-23.6 339.4,12.9 128.7,51.9 259.6,106.2 391.3,155.1 -256.1,-54.7 -650.3,-199.5 -650.3,93.7 v 688.6 c 0,196.8 150.3,179.3 334.8,101.8 185.1,-77.8 550.2,-155.6 748.6,-153.2 z m 1556.5,-717.5 v 830.2 c 0,62.4 -10.2,142.7 -66,181.4 -88.2,61.4 -249.2,23.6 -339.5,-12.8 -39.3,-15.9 -78.7,-32 -118.2,-48.2 210.6,28.7 410.1,103 410.1,-161.4 v -709.5 c 0,-310.1 -316,-144.5 -575.4,-49 -217.3,80 -422.8,99.3 -586.2,90.6 113.9,-12.3 223.5,-42.7 332.9,-80.1 180.6,-61.7 359.7,-138.3 536.8,-209.8 90.3,-36.4 251.3,-74.1 339.5,-12.9 55.8,38.9 66,119.2 66,181.5 v 0"
         style="fill:#f29c11;fill-opacity:1;fill-rule:nonzero;stroke:none"
         id="path72" />
    </g>
  </g>
</svg>
