<?xml version="1.0" standalone="no"?>
<!--Generator: Adobe Illustrator 9.0, SVG Export Plug-In-->
<svg xmlns="http://www.w3.org/2000/svg" xmlns:xlink="http://www.w3.org/1999/xlink" viewBox="0 0 48.000000 48.000000">
  <metadata/>
  <defs>
    <linearGradient y2="31.762800" x2="29.741400" y1="12.414100" x1="36.964802" gradientUnits="userSpaceOnUse" id="g">
      <stop offset="0" stop-color="#989c80"/>
      <stop offset="1" stop-color="#000"/>
    </linearGradient>
    <linearGradient y2="41.335899" x2="33.316601" y1="26.742201" x1="27.624001" gradientUnits="userSpaceOnUse" id="h">
      <stop offset="0" stop-color="#dedfce"/>
      <stop offset="1" stop-color="#c2c4b5"/>
    </linearGradient>
    <linearGradient y2="31.271400" x2="23.129900" y1="21.459000" x1="20.367201" gradientUnits="userSpaceOnUse" id="i">
      <stop offset="0" stop-color="#dedfce"/>
      <stop offset="1" stop-color="#fff"/>
    </linearGradient>
    <linearGradient id="a">
      <stop offset="0.0000000" stop-color="#686868" stop-opacity="0"/>
      <stop offset="0.23762377" stop-color="#686868" stop-opacity="1"/>
      <stop offset="0.78109992" stop-color="#686868" stop-opacity="1"/>
      <stop offset="1.0000000" stop-color="#686868" stop-opacity="0"/>
    </linearGradient>
    <linearGradient id="b">
      <stop offset="0.0000000" stop-color="#474747" stop-opacity="0"/>
      <stop offset="0.1" stop-color="#000" stop-opacity="1"/>
      <stop offset="0.89999998" stop-color="#000" stop-opacity="1"/>
      <stop offset="1.0000000" stop-color="#474747" stop-opacity="0"/>
    </linearGradient>
    <linearGradient id="c">
      <stop offset="0.0000000" stop-color="#fff" stop-opacity="0"/>
      <stop offset="0.10827128" stop-color="#fff" stop-opacity=".70658684"/>
      <stop offset="0.92053902" stop-color="#fff" stop-opacity=".70658684"/>
      <stop offset="1.0000000" stop-color="#fff" stop-opacity="0"/>
    </linearGradient>
    <linearGradient id="d">
      <stop offset="0.0000000" stop-color="#7a7a7a" stop-opacity="1"/>
      <stop offset="0.19801980" stop-color="#c5c5c5" stop-opacity="1"/>
      <stop offset="0.59900987" stop-color="#626262" stop-opacity="1"/>
      <stop offset="1.0000000" stop-color="#888" stop-opacity="1"/>
    </linearGradient>
    <linearGradient id="e">
      <stop offset="0.0000000" stop-color="#fff" stop-opacity=".44910181"/>
      <stop offset="1.0000000" stop-color="#fff" stop-opacity="0"/>
    </linearGradient>
    <linearGradient id="f">
      <stop offset="0.0000000" stop-color="#000" stop-opacity=".502994"/>
      <stop offset="1.0000000" stop-color="#000" stop-opacity="0"/>
    </linearGradient>
    <linearGradient xlink:href="#a" id="j" gradientUnits="userSpaceOnUse" gradientTransform="matrix(2.740165,0,0,0.364942,0.457491,-0.477254)" x1="1.6422368" y1="117.82710" x2="15.343062" y2="117.82710"/>
    <linearGradient xlink:href="#b" id="k" gradientUnits="userSpaceOnUse" gradientTransform="matrix(8.168597,0,0,0.22121,0.457491,-38.14016)" x1="0.61210024" y1="372.57819" x2="5.0856376" y2="372.57819"/>
    <linearGradient xlink:href="#b" id="l" gradientUnits="userSpaceOnUse" gradientTransform="matrix(8.168597,0,0,0.228621,0.457491,-36.79541)" x1="0.61210024" y1="372.57819" x2="5.0856376" y2="372.57819"/>
    <linearGradient xlink:href="#c" id="m" gradientUnits="userSpaceOnUse" gradientTransform="matrix(2.740165,0,0,0.147685,0.457491,24.70863)" x1="1.6422368" y1="117.82710" x2="15.343062" y2="117.82710"/>
    <linearGradient xlink:href="#d" id="n" gradientUnits="userSpaceOnUse" gradientTransform="matrix(0.99783,0,0,1.030961,0.128894,0.116766)" x1="23.100046" y1="38.947731" x2="23.100046" y2="43.915466"/>
    <linearGradient xlink:href="#e" id="o" gradientUnits="userSpaceOnUse" gradientTransform="matrix(1.138691,0,0,1.732051,-19.96021,-0.977254)" x1="36.373066" y1="22.227985" x2="38.105118" y2="22.227985"/>
    <linearGradient xlink:href="#f" id="p" gradientUnits="userSpaceOnUse" gradientTransform="matrix(0.810817,0,0,1.233324,0.457491,-0.852254)" x1="28.632685" y1="29.943159" x2="28.783722" y2="31.490198"/>
    <linearGradient xlink:href="#g" id="q" gradientUnits="userSpaceOnUse" gradientTransform="matrix(0.970766,0,0,0.970766,-6.51937,-6.733352)" x1="36.9648" y1="12.4141" x2="29.7414" y2="31.7628"/>
    <linearGradient xlink:href="#h" id="r" gradientUnits="userSpaceOnUse" gradientTransform="matrix(0.970766,0,0,0.970766,-6.51937,-6.733352)" x1="27.624" y1="26.7422" x2="33.3166" y2="41.3359"/>
    <linearGradient xlink:href="#i" id="s" gradientUnits="userSpaceOnUse" gradientTransform="matrix(0.970766,0,0,0.970766,-6.51937,-6.733352)" x1="20.3672" y1="21.459" x2="23.1299" y2="31.2714"/>
  </defs>
  <g transform="translate(0.86248,0.22724)">
    <rect style="marker:none" width="36.542522" height="4" x="5.4574776" y="40.522766" color="#000" fill="url(#j)" fill-opacity="1" fill-rule="nonzero" stroke="none" stroke-width="1" stroke-linecap="butt" stroke-linejoin="miter" marker-start="none" marker-mid="none" marker-end="none" stroke-miterlimit="4" stroke-dashoffset="0" stroke-opacity="1" visibility="visible" display="block" overflow="visible"/>
    <rect style="marker:none" width="36.542522" height="0.98959237" x="5.4574776" y="43.783169" color="#000" fill="url(#k)" fill-opacity="1" fill-rule="nonzero" stroke="none" stroke-width="1" stroke-linecap="butt" stroke-linejoin="miter" marker-start="none" marker-mid="none" marker-end="none" stroke-miterlimit="4" stroke-dashoffset="0" stroke-opacity="1" visibility="visible" display="block" overflow="visible"/>
    <rect style="marker:none" width="36.542522" height="1.022747" x="5.4574776" y="39.772758" color="#000" fill="url(#l)" fill-opacity="1" fill-rule="nonzero" stroke="none" stroke-width="1" stroke-linecap="butt" stroke-linejoin="miter" marker-start="none" marker-mid="none" marker-end="none" stroke-miterlimit="4" stroke-dashoffset="0" stroke-opacity="1" visibility="visible" display="block" overflow="visible"/>
    <rect style="marker:none" width="36.542522" height="1.6187184" x="5.4574776" y="41.300476" color="#000" fill="url(#m)" fill-opacity="1" fill-rule="nonzero" stroke="none" stroke-width="1" stroke-linecap="butt" stroke-linejoin="miter" marker-start="none" marker-mid="none" marker-end="none" stroke-miterlimit="4" stroke-dashoffset="0" stroke-opacity="1" visibility="visible" display="block" overflow="visible"/>
    <path style="marker:none" d="M 21.588486,30.005752 C 20.793833,30.005752 20.162183,30.637403 20.162183,31.432055 L 20.144709,39.797918 L 17.87239,39.797918 C 16.907299,39.797918 16.400169,40.305048 16.400169,41.319308 L 16.400169,44.237088 C 16.400169,45.251348 16.907299,45.758478 17.921559,45.758478 L 29.078419,45.758478 C 30.092679,45.758478 30.599809,45.251348 30.599809,44.237088 L 30.599809,41.319308 C 30.599809,40.305048 30.092679,39.797918 29.078419,39.797918 L 26.167769,39.797918 L 26.167769,31.558838 C 26.167769,30.764185 26.092407,30.005752 25.297765,30.005752 L 21.588486,30.005752 z " color="#000" fill="url(#n)" fill-opacity="1" fill-rule="nonzero" stroke="#000" stroke-width="1.99999905" stroke-linecap="butt" stroke-linejoin="miter" marker-start="none" marker-mid="none" marker-end="none" stroke-miterlimit="4" stroke-dasharray="none" stroke-dashoffset="0" stroke-opacity="1" visibility="visible" display="block" overflow="visible"/>
    <rect style="marker:none" width="1.9722718" height="4.6793752" x="21.457478" y="34.343388" rx="0.29955584" ry="0.29955584" color="#000" fill="url(#o)" fill-opacity="1" fill-rule="nonzero" stroke="none" stroke-width="1" stroke-linecap="butt" stroke-linejoin="miter" marker-start="none" marker-mid="none" marker-end="none" stroke-miterlimit="4" stroke-dashoffset="0" stroke-opacity="1" visibility="visible" display="block" overflow="visible"/>
    <path style="marker:none" d="M 26.551238,35.975876 L 21.019988,34.473274 C 21.019988,34.473274 21.019988,37.663376 21.019988,38.147756 C 21.566858,36.366506 26.551238,35.975876 26.551238,35.975876 z " color="#000" fill="url(#p)" fill-opacity="1" fill-rule="nonzero" stroke="none" stroke-width="1" stroke-linecap="butt" stroke-linejoin="miter" marker-start="none" marker-mid="none" marker-end="none" stroke-miterlimit="4" stroke-dashoffset="0" stroke-opacity="1" visibility="visible" display="block" overflow="visible"/>
    <g transform="translate(-0.570309,0.850845)" fill="#fff" fill-opacity=".72023806">
      <rect style="marker:none" width="9" height="1" x="20.570309" y="40.921913" rx="0.5" ry="0.5" color="#000" fill-rule="nonzero" stroke="none" stroke-width="1.13999999" stroke-linecap="round" stroke-linejoin="round" marker-start="none" marker-mid="none" marker-end="none" stroke-miterlimit="4" stroke-dashoffset="0" stroke-opacity="1" visibility="visible" display="block" overflow="visible"/>
      <path style="marker:none" d="M 19 40.625 A 0.53125 0.53125 0 1 1  17.9375,40.625 A 0.53125 0.53125 0 1 1  19 40.625 z" transform="translate(0.601559,0.765665)" color="#000" fill-rule="nonzero" stroke="none" stroke-width="1.13999999" stroke-linecap="round" stroke-linejoin="round" marker-start="none" marker-mid="none" marker-end="none" stroke-miterlimit="4" stroke-dashoffset="0" stroke-opacity="1" visibility="visible" display="block" overflow="visible"/>
    </g>
  </g>
  <g transform="translate(0,3.75)">
    <path d="M 32.505371,0.9356905 C 31.534607,1.2269193 30.660919,1.7123025 29.981384,2.1976847 C 29.301849,2.585991 28.719391,2.974297 28.331085,2.974297 C 27.942778,2.974297 26.486631,2.683067 25.515865,2.3918385 C 21.924036,1.6152257 16.973136,0.4503081 14.060842,1.5181489 C 12.895925,2.003532 11.63393,3.362601 10.274858,5.789515 C 9.6924011,5.692437 9.0128648,5.595362 9.0128648,5.595362 C 3.8678121,4.721673 2.994124,4.915826 2.2175116,5.304132 C 1.4409001,5.789515 0.95551713,6.566126 0.76136449,7.731044 C 0.2759824,11.225797 2.6058179,22.292515 4.935653,24.719426 C 6.5859524,26.369726 16.196526,29.670326 20.273736,30.932321 C 23.865566,32.09724 27.263242,33.165081 29.884307,33.74754 C 34.252749,34.912457 35.514742,34.815381 36.388431,34.329999 C 37.165042,33.941693 41.727638,30.544014 44.931162,20.156831 C 45.416544,18.506532 46.775614,13.555633 46.775614,10.740414 C 46.775614,10.157955 46.678537,9.672574 46.58146,9.284267 C 45.80485,7.439814 44.251625,7.051509 43.28086,6.857354 C 43.086707,6.857354 42.795477,6.760279 42.601326,6.663202 C 42.601326,6.566126 42.601326,6.274897 42.601326,6.177821 C 42.50425,5.304132 42.50425,3.945061 41.242255,2.683067 C 39.203649,0.6444611 34.738131,0.2561553 32.505371,0.838614 L 32.505371,0.9356905 z " fill-rule="nonzero" stroke="none" stroke-miterlimit="4"/>
    <path d="M 32.408296,2.003532 C 31.534607,2.2947605 30.757995,2.683067 30.175536,3.071373 C 29.398924,3.556755 28.622313,3.945061 27.942778,3.945061 C 27.554473,3.945061 26.292478,3.653832 25.030483,3.362601 C 21.535731,2.585991 16.681907,1.5181489 14.157918,2.4889132 C 11.342699,3.556755 8.0421009,12.099486 7.4596405,13.749786 C 6.1976479,17.147463 4.8385762,21.515903 5.6151888,22.97205 C 5.8093414,23.360357 6.3918006,24.428198 14.352072,27.146339 C 19.205896,28.796638 24.642178,30.252785 28.816467,31.126472 C 35.708896,32.485545 37.55335,31.806011 38.32996,31.126472 C 40.756872,29.087867 42.698402,23.263279 43.669166,19.962678 C 43.766244,19.574374 46.096079,11.614101 45.319467,9.76965 C 44.737006,8.410579 43.572091,8.119349 42.698402,7.925196 C 42.21302,7.828119 41.824712,7.731044 41.533484,7.439814 C 41.339331,7.245661 41.242255,6.954432 41.242255,6.371973 C 41.145179,5.595362 41.145179,4.527519 40.174413,3.556755 C 38.427037,1.8093794 34.349825,1.421073 32.408296,2.003532 z " fill-rule="nonzero" stroke="none" stroke-miterlimit="4"/>
    <path d="M 13.963764,3.45968 C 10.954395,4.624597 4.8385762,20.448062 5.9064182,22.583744 C 7.0713359,24.62235 33.864442,33.068004 37.165042,30.349863 C 40.85395,27.243415 44.542855,11.808255 43.863319,10.157955 C 43.183784,8.507656 41.339331,9.187192 40.271491,8.216426 C 39.203649,7.148585 40.271491,5.692437 38.912419,4.333367 C 37.55335,2.974297 33.864442,2.4889132 32.117066,2.974297 C 30.369688,3.45968 29.107695,5.012902 27.360319,5.012902 C 25.612942,5.012902 17.16729,2.1976847 13.963764,3.45968 L 13.963764,3.45968 z " fill="url(#q)" fill-rule="nonzero" stroke="none" stroke-miterlimit="4"/>
    <path d="M 6.100571,22.098363 C 6.3918006,16.856234 11.051471,4.818748 13.769612,3.45968 C 16.487754,2.003532 25.904171,5.012902 27.457396,5.012902 C 29.01062,5.012902 30.175536,3.556755 32.214143,2.974297 C 34.252749,2.3918385 37.747502,3.071373 39.009498,4.333367 C 40.077337,5.401207 39.689032,7.439814 40.174413,8.022274 C 40.659795,8.507656 43.183784,9.187192 43.669166,9.76965 C 43.669166,9.76965 40.756872,8.993038 39.980261,8.216426 C 39.203649,7.439814 39.397802,5.789515 38.718266,5.109979 C 38.135808,4.527519 33.184908,3.45968 31.825837,3.945061 C 30.466767,4.527519 29.398924,5.983667 27.554473,6.274897 C 25.710019,6.566126 17.070212,3.556755 14.449147,5.109979 C 11.731007,6.566126 6.100571,22.098363 6.100571,22.098363 z " fill="#c1c2b4" fill-rule="nonzero" stroke="none" stroke-miterlimit="4"/>
    <path d="M 43.086707,9.187192 C 44.445778,10.255032 41.63056,23.069127 37.844577,29.670326 C 42.018866,23.845737 44.057473,12.390716 44.057473,10.934568 C 44.057473,10.546261 43.863319,9.672574 43.086707,9.284267 L 43.086707,9.187192 z " fill="#808078" fill-rule="nonzero" stroke="none" stroke-miterlimit="4"/>
    <path d="M 2.4116651,6.274897 C 1.6350528,6.663202 1.537977,7.731044 1.4409001,8.022274 C 0.95551713,11.41995 3.3824293,22.098363 5.3239593,24.136969 C 6.8771821,25.690192 18.914665,29.670326 20.273736,30.15571 C 23.865566,31.320627 27.263242,32.388467 29.78723,32.970927 C 34.155672,34.135844 35.02936,33.941693 35.514742,33.650462 C 36.000125,33.359233 36.291356,32.776775 36.582584,31.806011 C 37.55335,27.825874 37.067964,16.467927 35.805972,14.332243 C 35.514742,13.846862 34.738131,13.167327 29.884307,11.711178 C 27.069088,10.837491 23.283108,9.866726 19.205896,8.895961 C 15.22576,8.022274 11.439776,7.148585 8.4304065,6.663202 C 3.0911999,5.789515 2.6058179,6.080745 2.2175116,6.274897 L 2.4116651,6.274897 z " fill-rule="nonzero" stroke="none" stroke-miterlimit="4"/>
    <path d="M 34.738131,32.582621 C 36.485507,31.611858 36.000125,16.759156 34.738131,14.623473 C 33.476137,12.48779 4.2561174,5.983667 2.5087411,6.954432 C 0.76136449,7.925196 3.7707354,21.321751 5.7122645,23.263279 C 7.6537943,25.204809 32.990754,33.650462 34.738131,32.582621 z " fill="url(#r)" fill-rule="nonzero" stroke="none" stroke-miterlimit="4"/>
    <path d="M 13.86669,26.660958 C 8.4304065,14.72055 26.972014,23.554509 23.088953,10.643338 C 23.088953,10.643338 3.5765828,5.886592 2.5087411,6.857354 C 0.85844138,8.507656 3.4795061,20.156831 5.5181119,22.97205 C 6.3918006,24.136969 13.86669,26.56388 13.86669,26.56388 L 13.86669,26.660958 z " fill="url(#s)" fill-rule="nonzero" stroke="none" stroke-miterlimit="4"/>
    <path d="M 6.003494,23.457432 C 4.3531942,20.933444 1.537977,9.963802 3.6736586,8.701808 C 6.8771821,6.760279 31.049224,12.973173 31.049224,12.973173 C 28.816467,12.196561 5.3239593,5.595362 2.5087411,6.954432 C 0.85844138,7.731044 3.6736586,22.098363 6.003494,23.457432 L 6.003494,23.457432 z " fill="#f1f2e1" fill-rule="nonzero" stroke="none" stroke-miterlimit="4"/>
    <path d="M 34.738131,14.72055 C 35.805972,16.079621 36.485507,31.417704 34.641056,32.485545 C 32.796603,33.553385 13.963764,26.758032 13.963764,26.758032 C 13.963764,26.758032 32.602447,33.165081 34.252749,31.806011 C 35.903048,30.44694 35.708896,21.710057 34.738131,14.72055 L 34.738131,14.72055 z " fill="#919187" fill-rule="nonzero" stroke="none" stroke-miterlimit="4"/>
  </g>
</svg>
