<?xml version="1.0" encoding="UTF-8" standalone="no"?>
<!-- Generator: Adobe Illustrator 9.0, SVG Export Plug-In  -->
<svg
   xmlns:dc="http://purl.org/dc/elements/1.1/"
   xmlns:cc="http://web.resource.org/cc/"
   xmlns:rdf="http://www.w3.org/1999/02/22-rdf-syntax-ns#"
   xmlns:svg="http://www.w3.org/2000/svg"
   xmlns="http://www.w3.org/2000/svg"
   xmlns:xlink="http://www.w3.org/1999/xlink"
   xmlns:sodipodi="http://sodipodi.sourceforge.net/DTD/sodipodi-0.dtd"
   xmlns:inkscape="http://www.inkscape.org/namespaces/inkscape"
   sodipodi:docbase="/home/jimmac/gfx/ximian/gorilla-icon-theme/scalable/places"
   sodipodi:docname="start-here.svg"
   inkscape:version="0.44"
   sodipodi:version="0.32"
   id="svg7778"
   xml:space="preserve"
   viewBox="0 0 48 48"
   height="48"
   width="48"
   version="1.0"
   inkscape:output_extension="org.inkscape.output.svg.inkscape"><metadata
   id="metadata8084">
  <rdf:RDF>
    <cc:Work
   rdf:about="">
      <dc:format>image/svg+xml</dc:format>
      <dc:type
   rdf:resource="http://purl.org/dc/dcmitype/StillImage" />
    <dc:title>Start Here</dc:title><dc:creator><cc:Agent><dc:title>Jakub Steiner</dc:title></cc:Agent></dc:creator><dc:description>Originally a logo for the mono project, later became linked to the Gorilla icon set and became its mascot. Yes, it's more of a chimp than a gorilla.</dc:description><cc:license
   rdf:resource="http://creativecommons.org/licenses/by-sa/2.0/" /><dc:source>http://jimmac.musichall.cz</dc:source></cc:Work>
  <cc:License
   rdf:about="http://creativecommons.org/licenses/by-sa/2.0/"><cc:permits
     rdf:resource="http://web.resource.org/cc/Reproduction" /><cc:permits
     rdf:resource="http://web.resource.org/cc/Distribution" /><cc:requires
     rdf:resource="http://web.resource.org/cc/Notice" /><cc:requires
     rdf:resource="http://web.resource.org/cc/Attribution" /><cc:permits
     rdf:resource="http://web.resource.org/cc/DerivativeWorks" /><cc:requires
     rdf:resource="http://web.resource.org/cc/ShareAlike" /></cc:License></rdf:RDF>
</metadata>
<defs
   id="defs8082"><radialGradient
     id="aigrd4"
     cx="17.5732"
     cy="26.1035"
     r="10.011"
     fx="17.5732"
     fy="26.1035"
     gradientTransform="matrix(1,-1.2e-3,1.2e-3,1,8.26416e-2,-4.455566e-2)"
     gradientUnits="userSpaceOnUse">
			<stop
   offset="0"
   style="stop-color:#574C3A"
   id="stop7827" />

			<stop
   offset="0.1995"
   style="stop-color:#534737"
   id="stop7829" />

			<stop
   offset="0.4684"
   style="stop-color:#483B2D"
   id="stop7831" />

			<stop
   offset="0.6517"
   style="stop-color:#3D3024"
   id="stop7833" />

			<stop
   offset="0.8146"
   style="stop-color:#634934"
   id="stop7835" />

			<stop
   offset="1"
   style="stop-color:#815F44"
   id="stop7837" />

		</radialGradient><radialGradient
     id="aigrd5"
     cx="35.787102"
     cy="25.607401"
     r="7.375"
     fx="35.787102"
     fy="25.607401"
     gradientTransform="matrix(1,-1.2e-3,1.2e-3,1,8.26416e-2,-4.455566e-2)"
     gradientUnits="userSpaceOnUse">
			<stop
   offset="0"
   style="stop-color:#574C3A"
   id="stop7842" />

			<stop
   offset="0.1995"
   style="stop-color:#534737"
   id="stop7844" />

			<stop
   offset="0.4684"
   style="stop-color:#483B2D"
   id="stop7846" />

			<stop
   offset="0.6517"
   style="stop-color:#3D3024"
   id="stop7848" />

			<stop
   offset="0.8146"
   style="stop-color:#634934"
   id="stop7850" />

			<stop
   offset="1"
   style="stop-color:#815F44"
   id="stop7852" />

		</radialGradient><radialGradient
     id="aigrd6"
     cx="25.202101"
     cy="17.2661"
     r="10.7515"
     fx="25.202101"
     fy="17.2661"
     gradientTransform="matrix(1,-1.2e-3,1.2e-3,1,8.26416e-2,-4.455566e-2)"
     gradientUnits="userSpaceOnUse">
			<stop
   offset="0"
   style="stop-color:#8E7B5F"
   id="stop7857" />

			<stop
   offset="0.1071"
   style="stop-color:#89765B"
   id="stop7859" />

			<stop
   offset="0.2518"
   style="stop-color:#79674F"
   id="stop7861" />

			<stop
   offset="0.418"
   style="stop-color:#62513E"
   id="stop7863" />

			<stop
   offset="0.5989"
   style="stop-color:#45372A"
   id="stop7865" />

			<stop
   offset="0.6517"
   style="stop-color:#3D3024"
   id="stop7867" />

			<stop
   offset="1"
   style="stop-color:#634934"
   id="stop7869" />

		</radialGradient><radialGradient
     id="aigrd7"
     cx="23.283701"
     cy="-16.7251"
     r="5.3106999"
     fx="23.283701"
     fy="-16.7251"
     gradientTransform="matrix(0.7962,-9e-4,1.5e-3,1.2931,6.5501,40.8115)"
     gradientUnits="userSpaceOnUse">
			<stop
   offset="0"
   style="stop-color:#FFFFFF"
   id="stop7886" />

			<stop
   offset="0.3345"
   style="stop-color:#FCFCFC"
   id="stop7888" />

			<stop
   offset="0.5471"
   style="stop-color:#F4F4F4"
   id="stop7890" />

			<stop
   offset="0.7258"
   style="stop-color:#E5E5E5"
   id="stop7892" />

			<stop
   offset="0.8847"
   style="stop-color:#D0D0D0"
   id="stop7894" />

			<stop
   offset="1"
   style="stop-color:#BCBCBC"
   id="stop7896" />

		</radialGradient><radialGradient
     id="aigrd12"
     cx="31.1504"
     cy="32.833"
     r="15.1796"
     fx="31.1504"
     fy="32.833"
     gradientTransform="matrix(1,-1.2e-3,1.2e-3,1,8.26416e-2,-4.455566e-2)"
     gradientUnits="userSpaceOnUse">
			<stop
   offset="5.618000e-003"
   style="stop-color:#DFC89B"
   id="stop7965" />

			<stop
   offset="0.1204"
   style="stop-color:#DDC699"
   id="stop7967" />

			<stop
   offset="0.1617"
   style="stop-color:#D7C195"
   id="stop7969" />

			<stop
   offset="0.191"
   style="stop-color:#CDB88E"
   id="stop7971" />

			<stop
   offset="0.5835"
   style="stop-color:#D0BB91"
   id="stop7973" />

			<stop
   offset="0.7522"
   style="stop-color:#DAC89D"
   id="stop7975" />

			<stop
   offset="0.8777"
   style="stop-color:#ECDEB3"
   id="stop7977" />

			<stop
   offset="0.9326"
   style="stop-color:#F9EEC3"
   id="stop7979" />

		</radialGradient><linearGradient
     id="aigrd13"
     gradientUnits="userSpaceOnUse"
     x1="17.274401"
     y1="29.943399"
     x2="34.131802"
     y2="29.943399"
     gradientTransform="matrix(1,-1.2e-3,1.2e-3,1,8.26416e-2,-4.455566e-2)">
			<stop
   offset="0"
   style="stop-color:#D9D9D9"
   id="stop7988" />

			<stop
   offset="5.655828e-002"
   style="stop-color:#E8E8E8"
   id="stop7990" />

			<stop
   offset="0.1374"
   style="stop-color:#F5F5F5"
   id="stop7992" />

			<stop
   offset="0.2403"
   style="stop-color:#FDFDFD"
   id="stop7994" />

			<stop
   offset="0.4382"
   style="stop-color:#FFFFFF"
   id="stop7996" />

			<stop
   offset="0.582"
   style="stop-color:#FCFCFC"
   id="stop7998" />

			<stop
   offset="0.6723"
   style="stop-color:#F4F4F4"
   id="stop8000" />

			<stop
   offset="0.7478"
   style="stop-color:#E5E5E5"
   id="stop8002" />

			<stop
   offset="0.8148"
   style="stop-color:#D1D1D1"
   id="stop8004" />

			<stop
   offset="0.8315"
   style="stop-color:#CACACA"
   id="stop8006" />

			<stop
   offset="1"
   style="stop-color:#9C9C9C"
   id="stop8008" />

		</linearGradient><linearGradient
     id="aigrd14"
     gradientUnits="userSpaceOnUse"
     x1="30.4014"
     y1="29.0527"
     x2="33.205101"
     y2="29.0527"
     gradientTransform="matrix(1,-1.2e-3,1.2e-3,1,8.26416e-2,-4.455566e-2)">
			<stop
   offset="0"
   style="stop-color:#D9D9D9"
   id="stop8013" />

			<stop
   offset="0.1272"
   style="stop-color:#CDCDCD"
   id="stop8015" />

			<stop
   offset="0.4675"
   style="stop-color:#B2B2B2"
   id="stop8017" />

			<stop
   offset="0.7695"
   style="stop-color:#A1A1A1"
   id="stop8019" />

			<stop
   offset="1"
   style="stop-color:#9C9C9C"
   id="stop8021" />

		</linearGradient><linearGradient
     id="aigrd15"
     gradientUnits="userSpaceOnUse"
     x1="17.122999"
     y1="30.0527"
     x2="24.748501"
     y2="30.0527"
     gradientTransform="matrix(1,-1.2e-3,1.2e-3,1,8.26416e-2,-4.455566e-2)">
			<stop
   offset="0"
   style="stop-color:#D9D9D9"
   id="stop8026" />

			<stop
   offset="0.1272"
   style="stop-color:#CDCDCD"
   id="stop8028" />

			<stop
   offset="0.4675"
   style="stop-color:#B2B2B2"
   id="stop8030" />

			<stop
   offset="0.7695"
   style="stop-color:#A1A1A1"
   id="stop8032" />

			<stop
   offset="1"
   style="stop-color:#9C9C9C"
   id="stop8034" />

		</linearGradient><linearGradient
     id="aigrd16"
     gradientUnits="userSpaceOnUse"
     x1="26.1523"
     y1="26.5215"
     x2="25.990601"
     y2="25.2276"
     gradientTransform="matrix(1,-1.2e-3,1.2e-3,1,8.26416e-2,-4.455566e-2)">
			<stop
   offset="5.618000e-003"
   style="stop-color:#8D7E62"
   id="stop8043" />

			<stop
   offset="0.2706"
   style="stop-color:#948668"
   id="stop8045" />

			<stop
   offset="0.6209"
   style="stop-color:#A99C7C"
   id="stop8047" />

			<stop
   offset="1"
   style="stop-color:#CCC3A0"
   id="stop8049" />

		</linearGradient><radialGradient
     r="10.011"
     fy="26.1035"
     fx="17.5732"
     cy="26.1035"
     cx="17.5732"
     gradientTransform="matrix(1,-1.2e-3,1.2e-3,1,8.26416e-2,-4.455566e-2)"
     gradientUnits="userSpaceOnUse"
     id="radialGradient8529"
     xlink:href="#aigrd4"
     inkscape:collect="always" /><radialGradient
     r="7.375"
     fy="25.607401"
     fx="35.787102"
     cy="25.607401"
     cx="35.787102"
     gradientTransform="matrix(1,-1.2e-3,1.2e-3,1,8.26416e-2,-4.455566e-2)"
     gradientUnits="userSpaceOnUse"
     id="radialGradient8531"
     xlink:href="#aigrd5"
     inkscape:collect="always" /><radialGradient
     r="10.7515"
     fy="17.2661"
     fx="25.202101"
     cy="17.2661"
     cx="25.202101"
     gradientTransform="matrix(1,-1.2e-3,1.2e-3,1,8.26416e-2,-4.455566e-2)"
     gradientUnits="userSpaceOnUse"
     id="radialGradient8533"
     xlink:href="#aigrd6"
     inkscape:collect="always" /><radialGradient
     r="5.3106999"
     fy="-16.7251"
     fx="23.283701"
     cy="-16.7251"
     cx="23.283701"
     gradientTransform="matrix(0.7962,-9e-4,1.5e-3,1.2931,6.5501,40.8115)"
     gradientUnits="userSpaceOnUse"
     id="radialGradient8535"
     xlink:href="#aigrd7"
     inkscape:collect="always" /><radialGradient
     r="1.1468"
     fy="20.1563"
     fx="27.4492"
     cy="20.1563"
     cx="27.4492"
     gradientTransform="matrix(1,-1.2e-3,1.2e-3,1,8.26416e-2,-4.455566e-2)"
     gradientUnits="userSpaceOnUse"
     id="radialGradient8537"
     xlink:href="#aigrd8"
     inkscape:collect="always" /><linearGradient
     y2="19.4491"
     x2="26.8046"
     y1="19.163601"
     x1="26.5762"
     gradientTransform="matrix(1,-1.2e-3,1.2e-3,1,8.26416e-2,-4.455566e-2)"
     gradientUnits="userSpaceOnUse"
     id="linearGradient8539"
     xlink:href="#aigrd9"
     inkscape:collect="always" /><radialGradient
     r="1.1483001"
     fy="20.1558"
     fx="23.8423"
     cy="20.1558"
     cx="23.8423"
     gradientTransform="matrix(1,-1.2e-3,1.2e-3,1,8.26416e-2,-4.455566e-2)"
     gradientUnits="userSpaceOnUse"
     id="radialGradient8541"
     xlink:href="#aigrd10"
     inkscape:collect="always" /><linearGradient
     y2="19.4492"
     x2="23.1991"
     y1="19.163099"
     x1="22.9702"
     gradientTransform="matrix(1,-1.2e-3,1.2e-3,1,8.26416e-2,-4.455566e-2)"
     gradientUnits="userSpaceOnUse"
     id="linearGradient8543"
     xlink:href="#aigrd11"
     inkscape:collect="always" /><radialGradient
     r="15.1796"
     fy="32.833"
     fx="31.1504"
     cy="32.833"
     cx="31.1504"
     gradientTransform="matrix(1,-1.2e-3,1.2e-3,1,8.26416e-2,-4.455566e-2)"
     gradientUnits="userSpaceOnUse"
     id="radialGradient8545"
     xlink:href="#aigrd12"
     inkscape:collect="always" /><linearGradient
     y2="29.943399"
     x2="34.131802"
     y1="29.943399"
     x1="17.274401"
     gradientTransform="matrix(1,-1.2e-3,1.2e-3,1,8.26416e-2,-4.455566e-2)"
     gradientUnits="userSpaceOnUse"
     id="linearGradient8547"
     xlink:href="#aigrd13"
     inkscape:collect="always" /><linearGradient
     y2="29.0527"
     x2="33.205101"
     y1="29.0527"
     x1="30.4014"
     gradientTransform="matrix(1,-1.2e-3,1.2e-3,1,8.26416e-2,-4.455566e-2)"
     gradientUnits="userSpaceOnUse"
     id="linearGradient8549"
     xlink:href="#aigrd14"
     inkscape:collect="always" /><linearGradient
     y2="30.0527"
     x2="24.748501"
     y1="30.0527"
     x1="17.122999"
     gradientTransform="matrix(1,-1.2e-3,1.2e-3,1,8.26416e-2,-4.455566e-2)"
     gradientUnits="userSpaceOnUse"
     id="linearGradient8551"
     xlink:href="#aigrd15"
     inkscape:collect="always" /><linearGradient
     y2="25.2276"
     x2="25.990601"
     y1="26.5215"
     x1="26.1523"
     gradientTransform="matrix(1,-1.2e-3,1.2e-3,1,8.26416e-2,-4.455566e-2)"
     gradientUnits="userSpaceOnUse"
     id="linearGradient8553"
     xlink:href="#aigrd16"
     inkscape:collect="always" /></defs>
<sodipodi:namedview
   inkscape:current-layer="svg7778"
   inkscape:window-y="386"
   inkscape:window-x="571"
   inkscape:cy="18.80133"
   inkscape:cx="78.916917"
   inkscape:zoom="4"
   id="base"
   pagecolor="#ffffff"
   bordercolor="#666666"
   borderopacity="0.15294118"
   inkscape:pageopacity="0.0"
   inkscape:pageshadow="2"
   inkscape:window-width="810"
   inkscape:window-height="619"
   inkscape:showpageshadow="false" />

	<g
   transform="matrix(1.383853,0,0,1.383853,-9.481166,-9.26405)"
   id="g8463">
  <path
   id="path7822"
   d="M 13.6,26.2 L 13.7,26.2 L 13.7,26 L 13.6,26 L 13.6,26.2 z "
   style="fill:#000000;fill-rule:nonzero;stroke:none;stroke-miterlimit:4" />
  <path
   id="path7824"
   d="M 19.5,15.4 C 18.4,16.1 17.5,16.9 16.9,17.9 C 16.5,17.8 16.1,17.8 15.7,17.8 C 13.9,17.8 12.2,18.4 10.9,19.5 C 9.5,20.6 8.8,22.1 8.8,23.8 C 8.8,25.4 9.6,26.9 10.9,28.1 C 12.1,29.1 13.6,29.6 15.2,29.7 C 15.2,29.9 15.3,30.1 15.3,30.2 C 15.5,31.1 15.9,31.9 16.4,32.7 C 17.1,33.8 18.1,34.6 19.2,35.1 C 20.1,35.5 21.1,35.9 22.2,36.1 C 24.5,36.6 26.9,36.7 29.6,36.4 L 29.9,36.4 C 31.5,36.2 33.8,36 35,34.4 C 35.5,33.8 35.7,33.1 35.7,32.5 C 35.7,31.7 35.4,30.9 35.1,30.2 C 35,30 35,29.8 34.9,29.6 C 36.3,29.4 37.5,28.9 38.5,28 C 39.9,26.9 40.6,25.4 40.6,23.7 C 40.6,22 39.8,20.6 38.5,19.4 C 37.2,18.3 35.5,17.8 33.7,17.8 C 33.1,17.8 32.6,17.9 32,18 C 30.7,15.6 27.7,14.1 24.5,14.1 C 22.7,14.1 21,14.6 19.6,15.4 L 19.5,15.4 z "
   style="fill:#000000;fill-rule:nonzero;stroke:black;stroke-miterlimit:4;stroke-opacity:1;stroke-width:0.7226201;stroke-dasharray:none" />
  <path
   id="path7839"
   d="M 21.6,23.8 C 21.6,26.4 19,28.5 15.8,28.5 C 12.6,28.5 10,26.4 10,23.8 C 10,21.2 12.6,19.1 15.8,19.1 C 19,19.1 21.6,21.2 21.6,23.8 z "
   style="fill:url(#radialGradient8529);fill-rule:nonzero;stroke:none;stroke-miterlimit:4" />
  <path
   id="path7854"
   d="M 39.5,23.8 C 39.5,26.4 36.9,28.5 33.7,28.5 C 30.5,28.5 27.9,26.4 27.9,23.8 C 27.9,21.2 30.5,19.1 33.7,19.1 C 36.9,19.1 39.5,21.2 39.5,23.8 z "
   style="fill:url(#radialGradient8531);fill-rule:nonzero;stroke:none;stroke-miterlimit:4" />
  <path
   id="path7871"
   d="M 31.6,20.8 C 31.6,23.9 28.4,26.4 24.5,26.4 C 20.6,26.4 17.4,23.9 17.4,20.9 C 17.4,17.8 20.6,15.3 24.5,15.3 C 28.4,15.3 31.6,17.8 31.6,20.8 L 31.6,20.8 z "
   style="fill:url(#radialGradient8533);fill-rule:nonzero;stroke:none;stroke-miterlimit:4" />
  <g
   id="g7873"
   style="fill:#ffffff;fill-rule:nonzero;stroke:none;stroke-miterlimit:4">
			<path
   id="path7875"
   d="M 38.4,23.8 C 38.4,23.8 37.4,21.1 34.9,20.8 C 32.4,20.4 30.8,23.1 30.8,23.1 L 31.1,24.2 C 31.1,24.2 32,22.1 34.4,21.9 C 36.8,21.7 38.5,23.8 38.5,23.8 L 38.4,23.8 z "
   style="opacity:0.15" />

			<path
   id="path7877"
   d="M 33.9,26 C 33.9,26 35.3,25.4 35.4,24.1 C 35.4,22.7 34,22 34,22 L 33.4,22.2 C 33.4,22.2 34.5,22.6 34.7,23.8 C 34.9,25 33.9,26 33.9,26 z "
   style="opacity:0.15" />

		</g>
  <g
   id="g7879"
   style="fill:#ffffff;fill-rule:nonzero;stroke:none;stroke-miterlimit:4">
			<path
   id="path7881"
   d="M 11.9,23.5 C 11.9,23.5 12.9,20.8 15.4,20.5 C 17.9,20.1 19.6,22.8 19.6,22.8 L 19.4,23.9 C 19.4,23.9 18.5,21.8 16.1,21.6 C 13.7,21.4 12,23.5 12,23.5 L 11.9,23.5 z "
   style="opacity:0.15" />

			<path
   id="path7883"
   d="M 16.4,25.6 C 16.4,25.6 15,25 14.9,23.7 C 14.8,22.4 16.3,21.6 16.3,21.6 L 16.9,21.8 C 16.9,21.8 15.8,22.2 15.6,23.4 C 15.4,24.6 16.4,25.6 16.4,25.6 z "
   style="opacity:0.15" />

		</g>
  <path
   id="path7898"
   d="M 27.4,17.4 C 28.4,17.4 29.7,18.4 29.7,19.8 C 29.7,21.5 28.1,22.8 25.7,22.8 C 23.3,22.8 21.4,21.4 21.4,19.8 C 21.4,18.3 22.4,17.3 23.7,17.3 C 24.9,17.3 25.4,18.9 25.7,18.9 C 26.1,18.9 25.9,17.4 27.4,17.4 z "
   style="fill:url(#radialGradient8535);fill-rule:nonzero;stroke:none;stroke-miterlimit:4" />
  <g
   id="g7900"
   style="fill:#ffffff;fill-rule:nonzero;stroke:#000000;stroke-miterlimit:4">
			<radialGradient
   gradientUnits="userSpaceOnUse"
   gradientTransform="matrix(1,-1.2e-3,1.2e-3,1,8.26416e-2,-4.455566e-2)"
   fy="20.1563"
   fx="27.4492"
   r="1.1468"
   cy="20.1563"
   cx="27.4492"
   id="aigrd8">
				<stop
   id="stop7903"
   style="stop-color:#7E81B6"
   offset="0" />

				<stop
   id="stop7905"
   style="stop-color:#5E5DA2"
   offset="0.2121" />

				<stop
   id="stop7907"
   style="stop-color:#3E3D90"
   offset="0.4551" />

				<stop
   id="stop7909"
   style="stop-color:#3D3B8C"
   offset="0.4971" />

				<stop
   id="stop7911"
   style="stop-color:#313173"
   offset="0.8147" />

				<stop
   id="stop7913"
   style="stop-color:#2E2D6B"
   offset="1" />

			</radialGradient>

			<path
   id="path7915"
   d="M 28,19.6 C 28,20.1 27.6,20.5 27.1,20.5 C 26.6,20.5 26.2,20.1 26.2,19.6 C 26.2,19.1 26.6,18.7 27.1,18.7 C 27.6,18.7 28,19.1 28,19.6 z "
   style="fill:url(#radialGradient8537);stroke:none" />

			<path
   id="path7917"
   d="M 27.4,19.6 C 27.4,19.8 27.3,19.9 27.1,19.9 C 26.9,19.9 26.8,19.8 26.8,19.6 C 26.8,19.4 26.9,19.3 27.1,19.3 C 27.3,19.3 27.4,19.4 27.4,19.6 z "
   style="fill:#000000;stroke:none" />

			<linearGradient
   gradientTransform="matrix(1,-1.2e-3,1.2e-3,1,8.26416e-2,-4.455566e-2)"
   y2="19.4491"
   x2="26.8046"
   y1="19.163601"
   x1="26.5762"
   gradientUnits="userSpaceOnUse"
   id="aigrd9">
				<stop
   id="stop7920"
   style="stop-color:#FFFFFF"
   offset="5.618000e-003" />

				<stop
   id="stop7922"
   style="stop-color:#ECECEC"
   offset="0.1515" />

				<stop
   id="stop7924"
   style="stop-color:#BABABA"
   offset="0.4482" />

				<stop
   id="stop7926"
   style="stop-color:#6A6A6A"
   offset="0.8658" />

				<stop
   id="stop7928"
   style="stop-color:#4F4F4F"
   offset="1" />

			</linearGradient>

			<path
   id="path7930"
   d="M 26.4,19.4 C 26.4,19.5 26.4,19.6 26.4,19.6 C 26.5,19.6 26.5,19.6 26.6,19.6 C 26.9,19.6 27.1,19.4 27.1,19.1 C 27.1,19 27.1,18.9 27.1,18.9 C 27,18.9 27,18.9 26.9,18.9 C 26.6,18.9 26.4,19.1 26.4,19.4 z "
   style="opacity:0.91000001;fill:url(#linearGradient8539);stroke:none" />

		</g>
  <g
   id="g7932"
   style="fill:#ffffff;fill-rule:nonzero;stroke:#000000;stroke-miterlimit:4">
			<radialGradient
   gradientUnits="userSpaceOnUse"
   gradientTransform="matrix(1,-1.2e-3,1.2e-3,1,8.26416e-2,-4.455566e-2)"
   fy="20.1558"
   fx="23.8423"
   r="1.1483001"
   cy="20.1558"
   cx="23.8423"
   id="aigrd10">
				<stop
   id="stop7935"
   style="stop-color:#7E81B6"
   offset="0" />

				<stop
   id="stop7937"
   style="stop-color:#5E5DA2"
   offset="0.2121" />

				<stop
   id="stop7939"
   style="stop-color:#3E3D90"
   offset="0.4551" />

				<stop
   id="stop7941"
   style="stop-color:#3D3B8C"
   offset="0.4971" />

				<stop
   id="stop7943"
   style="stop-color:#313173"
   offset="0.8147" />

				<stop
   id="stop7945"
   style="stop-color:#2E2D6B"
   offset="1" />

			</radialGradient>

			<path
   id="path7947"
   d="M 24.4,19.6 C 24.4,20.1 24,20.5 23.5,20.5 C 23,20.5 22.6,20.1 22.6,19.6 C 22.6,19.1 23,18.7 23.5,18.7 C 24,18.7 24.4,19.1 24.4,19.6 z "
   style="fill:url(#radialGradient8541);stroke:none" />

			<path
   id="path7949"
   d="M 23.8,19.6 C 23.8,19.8 23.7,19.9 23.5,19.9 C 23.3,19.9 23.2,19.8 23.2,19.6 C 23.2,19.4 23.3,19.3 23.5,19.3 C 23.7,19.3 23.8,19.4 23.8,19.6 z "
   style="fill:#000000;stroke:none" />

			<linearGradient
   gradientTransform="matrix(1,-1.2e-3,1.2e-3,1,8.26416e-2,-4.455566e-2)"
   y2="19.4492"
   x2="23.1991"
   y1="19.163099"
   x1="22.9702"
   gradientUnits="userSpaceOnUse"
   id="aigrd11">
				<stop
   id="stop7952"
   style="stop-color:#FFFFFF"
   offset="5.618000e-003" />

				<stop
   id="stop7954"
   style="stop-color:#ECECEC"
   offset="0.1515" />

				<stop
   id="stop7956"
   style="stop-color:#BABABA"
   offset="0.4482" />

				<stop
   id="stop7958"
   style="stop-color:#6A6A6A"
   offset="0.8658" />

				<stop
   id="stop7960"
   style="stop-color:#4F4F4F"
   offset="1" />

			</linearGradient>

			<path
   id="path7962"
   d="M 22.8,19.4 C 22.8,19.5 22.8,19.6 22.8,19.6 C 22.9,19.6 22.9,19.6 23,19.6 C 23.3,19.6 23.5,19.4 23.5,19.1 C 23.5,19 23.5,18.9 23.5,18.9 C 23.4,18.9 23.4,18.9 23.3,18.9 C 23,18.9 22.8,19.1 22.8,19.4 z "
   style="opacity:0.91000001;fill:url(#linearGradient8543);stroke:none" />

		</g>
  <path
   id="path7981"
   d="M 16.6,29.9 C 16.1,28.1 16.3,26.1 17.1,24.4 C 18.4,21.4 21.4,20.5 24.4,20.2 C 27.5,19.8 34,18.9 35.5,22.7 C 36.3,24.7 34.3,26.3 33.8,28 C 33.2,29.9 35.6,31.9 34.3,33.6 C 33.3,34.8 31.1,35 29.7,35.1 C 27.4,35.4 25,35.3 22.7,34.8 C 21.8,34.6 20.833668,34.424403 20,33.9 C 18.007113,32.646413 17.335756,31.570121 16.6,29.9 z "
   style="fill:url(#radialGradient8545);fill-rule:nonzero;stroke:none;stroke-miterlimit:4"
   sodipodi:nodetypes="ccccccccsc" />
  <path
   id="path7983"
   d="M 28.6,22.1 C 28.6,22.1 27.9,21 29,21 C 30.1,21 29.9,21.6 29.6,21.6 C 29.4,21.6 28.9,21.1 28.6,21.3 C 28.3,21.6 28.4,21.6 28.5,22.1 L 28.6,22.1 z "
   style="fill:#000000;fill-rule:nonzero;stroke:none;stroke-miterlimit:4" />
  <path
   id="path7985"
   d="M 27.7,22.4 C 27.7,22.4 27.8,21 26.4,21 C 25,21 25.7,21.7 26.1,21.7 C 26.4,21.7 26.6,21 27.1,21.3 C 27.6,21.6 27.6,21.7 27.8,22.3 L 27.7,22.4 z "
   style="fill:#000000;fill-rule:nonzero;stroke:none;stroke-miterlimit:4" />
  <path
   id="path8010"
   d="M 34.2,26 C 32.8,24.6 24.3,27.3 17.4,25.9 C 16.5,26.8 16.5,32.2 21.8,33.6 C 24.4,34.7 30.2,32.9 33,33.4 C 35.3,31.6 31.5,29.6 34.2,26 z "
   style="fill:url(#linearGradient8547);fill-rule:nonzero;stroke:none;stroke-miterlimit:4" />
  <path
   id="path8023"
   d="M 33.3,28.5 L 33.3,29.5 C 32.7,28.7 30.5,29 30.5,29 L 33.3,28.5 z "
   style="fill:url(#linearGradient8549);fill-rule:nonzero;stroke:none;stroke-miterlimit:4" />
  <path
   id="path8036"
   d="M 17.2,29.1 L 18,30.9 C 18.7,29.7 24.9,29.2 24.9,29.2 C 24.9,29.2 17.9,29.7 17.3,29 L 17.2,29.1 z "
   style="fill:url(#linearGradient8551);fill-rule:nonzero;stroke:none;stroke-miterlimit:4" />
  <path
   id="path8038"
   d="M 21.6,13.8 C 21.6,13.8 22.8,11.7 23.7,11.7 C 24.6,11.7 24.6,13.4 24.6,13.4 C 24.6,13.4 24.4,12.4 23.6,12.4 C 22.8,12.4 21.6,13.8 21.6,13.8 z "
   style="fill:#000000;fill-rule:nonzero;stroke:none;stroke-miterlimit:4" />
  <path
   id="path8040"
   d="M 26.2,13.5 C 26.2,13.5 26.2,11.8 27.3,11.8 C 28.5,11.8 28.8,13.7 28.8,13.7 C 28.8,13.7 27.9,12.3 27.3,12.3 C 26.7,12.3 26.1,13.6 26.1,13.6 L 26.2,13.5 z "
   style="fill:#000000;fill-rule:nonzero;stroke:none;stroke-miterlimit:4" />
  <path
   id="path8051"
   d="M 34.2,26 C 34.2,26 35.4,24.6 34.6,24 C 33.3,25 24.5,25.9 17.4,25.9 C 24.2,27.2 32.5,24.6 34.2,26 z "
   style="opacity:0.57999998;fill:url(#linearGradient8553);fill-rule:nonzero;stroke:none;stroke-miterlimit:4" />
  <g
   id="g8053"
   style="fill:#ffffff;fill-rule:nonzero;stroke:none;stroke-miterlimit:4">
			<g
   id="g8055">
				<path
   id="path8057"
   d="M 25.9,34.3 C 25.9,34.3 33.1,33.1 32.7,33.8 C 32.4,34.4 26.6,34.3 26.6,34.3"
   style="opacity:0.24999994" />

				<path
   id="path8059"
   d="M 26.1,34.3 C 26.1,34.3 32.9,33.1 32.7,33.8 C 32.3,34.4 26.7,34.3 26.7,34.3"
   style="opacity:0.30499998" />

				<path
   id="path8061"
   d="M 26.3,34.3 C 26.3,34.3 32.6,33.1 32.6,33.8 C 32.1,34.4 26.8,34.3 26.8,34.3"
   style="opacity:0.36000001" />

				<path
   id="path8063"
   d="M 26.5,34.3 C 26.5,34.3 32.4,33.2 32.6,33.8 C 32,34.3 26.9,34.3 26.9,34.3"
   style="opacity:0.41499999" />

				<path
   id="path8065"
   d="M 26.7,34.3 C 26.7,34.3 32.2,33.2 32.5,33.8 C 31.8,34.3 26.9,34.3 26.9,34.3"
   style="opacity:0.47000002" />

				<path
   id="path8067"
   d="M 26.9,34.2 C 26.9,34.2 32,33.1 32.4,33.7 C 31.6,34.2 27,34.2 27,34.2"
   style="opacity:0.525" />

				<path
   id="path8069"
   d="M 27.1,34.2 C 27.1,34.2 31.7,33.2 32.4,33.7 C 31.5,34.2 27.1,34.2 27.1,34.2"
   style="opacity:0.57999998" />

			</g>

		</g>
</g>

	
</svg>