<?xml version="1.0" standalone="no"?>
<!--Created with Inkscape (http://www.inkscape.org/)-->
<svg xmlns="http://www.w3.org/2000/svg" xmlns:xlink="http://www.w3.org/1999/xlink" viewBox="0 0 48 48">
  <defs>
    <linearGradient id="f">
      <stop offset="0.0000000" stop-color="#fff" stop-opacity="0"/>
      <stop offset="0.20952381" stop-color="#fff" stop-opacity="1"/>
      <stop offset="1.0000000" stop-color="#fff" stop-opacity=".31952661"/>
    </linearGradient>
    <linearGradient id="e">
      <stop offset="0.0000000" stop-color="#fff" stop-opacity=".10309278"/>
      <stop offset="1.0000000" stop-color="#fff" stop-opacity="0"/>
    </linearGradient>
    <linearGradient id="g">
      <stop offset="0.0000000" stop-color="#b5c051" stop-opacity="1"/>
      <stop offset="1.0000000" stop-color="#858e3f" stop-opacity="1"/>
    </linearGradient>
    <linearGradient id="d">
      <stop offset="0.0000000" stop-color="#575955" stop-opacity="1"/>
      <stop offset="1.0000000" stop-color="#7c7e79" stop-opacity="1"/>
    </linearGradient>
    <linearGradient id="c">
      <stop offset="0.0000000" stop-color="#babdb6" stop-opacity="1"/>
      <stop offset="1.0000000" stop-color="#f1f5ec" stop-opacity="1"/>
    </linearGradient>
    <linearGradient id="b">
      <stop offset="0" stop-color="#000" stop-opacity="1"/>
      <stop offset="1" stop-color="#000" stop-opacity="0"/>
    </linearGradient>
    <linearGradient id="a">
      <stop offset="0.0000000" stop-color="#eff3f4" stop-opacity="1"/>
      <stop offset="1.0000000" stop-color="#939596" stop-opacity="1"/>
    </linearGradient>
    <linearGradient xlink:href="#a" id="h" gradientTransform="matrix(1.487143,0.000000,0.000000,0.498841,30.66440,-38.58328)" x1="-4.6375198" y1="104.38752" x2="-4.5239210" y2="110.61378" gradientUnits="userSpaceOnUse"/>
    <linearGradient gradientUnits="userSpaceOnUse" y2="69.460503" x2="7.5291119" y1="27.376621" x1="7.3738608" gradientTransform="matrix(3.495016,0.000000,0.000000,0.344323,-2.972087,-2.332182)" id="m" xlink:href="#b"/>
    <linearGradient gradientUnits="userSpaceOnUse" y2="6.8897981" x2="60.685901" y1="6.8897981" x1="55.208272" gradientTransform="matrix(0.772488,0.000000,0.000000,1.557840,-2.795310,-2.464765)" id="l" xlink:href="#c"/>
    <linearGradient gradientUnits="userSpaceOnUse" y2="21.169637" x2="19.737664" y1="21.169637" x1="2.9325605" gradientTransform="matrix(2.374946,0.000000,0.000000,0.506711,-2.795310,-2.464765)" id="k" xlink:href="#d"/>
    <linearGradient y2="48.805084" x2="25.312450" y1="25.335417" x1="17.573946" gradientTransform="matrix(1.175636,0.000000,0.000000,0.850604,0.000000,-2.298101)" gradientUnits="userSpaceOnUse" id="n" xlink:href="#e"/>
    <linearGradient gradientUnits="userSpaceOnUse" y2="51.108238" x2="17.385712" y1="22.815619" x1="17.385712" gradientTransform="matrix(1.215669,0.000000,0.000000,0.822592,0.000000,-2.298101)" id="o" xlink:href="#f"/>
    <linearGradient xlink:href="#g" id="i" gradientUnits="userSpaceOnUse" gradientTransform="matrix(1.142121,0.000000,0.000000,0.826356,0.681162,-1.410092)" x1="10.861447" y1="33.139202" x2="30.587307" y2="37.720802"/>
    <linearGradient xlink:href="#a" id="j" gradientUnits="userSpaceOnUse" gradientTransform="matrix(1.428360,0.000000,0.000000,0.479123,30.40181,-36.15493)" x1="-4.6375198" y1="104.38752" x2="-4.5239210" y2="110.61378"/>
  </defs>
  <metadata/>
  <rect style="marker:none" width="45.729706" height="7.6216183" x="1" y="38.306381" rx="3.6907835" ry="3.8108091" opacity=".2" color="#000" fill="#000" fill-opacity="1" fill-rule="evenodd" stroke="none" stroke-width="1" stroke-linecap="round" stroke-linejoin="round" marker-start="none" marker-mid="none" marker-end="none" stroke-miterlimit="4" stroke-dasharray="none" stroke-dashoffset="0" stroke-opacity="1" visibility="visible" display="inline" overflow="visible"/>
  <path d="M 7.2881342,2.3730487 C 6.2279469,2.3755316 5.3406534,2.4006679 4.8573514,3.4354671 C 4.7733496,3.6153244 2.2128358,10.914964 2.0897340,11.193342 C 1.0358612,13.576510 2.0077473,16.578552 4.0432724,16.558453 C 4.4303792,16.554754 44.153615,16.577067 44.769593,16.558453 C 46.502339,16.507009 46.724074,13.030679 45.978138,11.466838 C 45.935879,11.378243 42.473910,3.3359884 42.385614,3.1935413 C 41.977230,2.5573703 41.062690,2.2785611 40.383360,2.3046743 C 40.249536,2.3099465 7.4205788,2.3727398 7.2881342,2.3730487 z " fill="url(#h)" fill-opacity="1" fill-rule="evenodd" stroke="#000" stroke-width="2.5" stroke-linecap="butt" stroke-linejoin="miter" stroke-miterlimit="4" stroke-dasharray="none" stroke-opacity="1"/>
  <path d="M 4.4084869,14.920939 C 4.3656547,14.886875 6.0910770,39.425850 6.0915686,39.433288 C 6.2534329,41.883923 7.6122147,42.779588 9.1330832,42.783236 C 9.1874295,42.783362 37.665331,42.780083 38.272054,42.777528 C 40.833266,42.766749 41.460736,41.207070 41.629219,39.502956 C 41.642732,39.469357 43.367272,14.954538 43.380782,14.920939 C 30.390018,14.920939 17.399254,14.920939 4.4084869,14.920939 z " fill="url(#i)" fill-opacity="1" fill-rule="evenodd" stroke="none" stroke-width="2.5000012" stroke-linecap="butt" stroke-linejoin="miter" stroke-miterlimit="4" stroke-dasharray="none" stroke-opacity="1"/>
  <path d="M 3.1710998,14.036282 C 3.1255477,14.000055 4.9605380,40.097307 4.9610608,40.105218 C 5.1332039,42.711473 6.5782712,43.664015 8.1957181,43.667895 C 8.2535155,43.668029 38.539824,43.664541 39.185076,43.661824 C 41.908930,43.650361 42.576246,41.991639 42.755428,40.179310 C 42.769799,40.143577 44.603851,14.072015 44.618219,14.036282 C 30.802514,14.036282 16.986808,14.036282 3.1710998,14.036282 z " fill="#f57900" fill-opacity="1" fill-rule="evenodd" stroke="#000" stroke-width="2.5000012" stroke-linecap="butt" stroke-linejoin="miter" stroke-miterlimit="4" stroke-dasharray="none" stroke-opacity="1"/>
  <path d="M 7.9495450,3.1824984 C 6.9312640,3.1848832 6.0790429,3.2090259 5.6148445,4.2029223 C 5.5341631,4.3756703 3.0748596,11.386775 2.9566236,11.654150 C 1.9444076,13.943118 2.8778777,16.826497 4.8329439,16.807192 C 5.2047494,16.803640 43.357832,16.825071 43.949462,16.807192 C 45.613717,16.757782 45.826687,13.418862 45.110236,11.916835 C 45.069648,11.831742 41.744521,4.1073757 41.659715,3.9705592 C 41.267473,3.3595343 40.389083,3.0917457 39.736605,3.1168267 C 39.608071,3.1218905 8.0767544,3.1822017 7.9495450,3.1824984 z " fill="url(#j)" fill-opacity="1" fill-rule="evenodd" stroke="none" stroke-width="2.5" stroke-linecap="butt" stroke-linejoin="miter" stroke-miterlimit="4" stroke-dasharray="none" stroke-opacity="1"/>
  <path style="marker:none" d="M 7.7204500,4.0919574 C 6.7355240,4.0792252 6.6713880,4.0411495 6.4496770,4.7381491 C 6.3984970,4.8990451 4.3364820,11.233506 4.2556550,11.479317 C 3.9807760,12.315270 4.3694800,12.535887 5.3234030,12.518894 C 5.6613270,12.512874 42.670159,12.518894 43.208169,12.518894 C 43.971941,12.518894 44.198501,12.267294 44.025974,11.673497 C 43.955868,11.432212 41.085266,4.6688663 41.008179,4.5484182 C 40.651639,4.0104958 40.713471,4.0120623 40.090720,4.0044784 C 39.973809,4.0030539 7.8360710,4.0934521 7.7204500,4.0919574 z " color="#000" fill="url(#k)" fill-opacity="1" fill-rule="evenodd" stroke="none" stroke-width="0" stroke-linecap="butt" stroke-linejoin="miter" marker-start="none" marker-mid="none" marker-end="none" stroke-miterlimit="4" stroke-dashoffset="0" stroke-opacity="1" visibility="visible" display="block"/>
  <path style="marker:none" d="M 7.1914370,4.0888881 C 6.8205620,4.1172015 6.6421770,4.2270900 6.4869440,4.7151044 C 6.4357640,4.8760003 4.3760140,11.201115 4.2951860,11.446926 C 4.0203070,12.282874 4.3849570,12.507611 5.3388810,12.490619 C 5.3554040,12.490327 7.2922140,12.490861 7.4755480,12.490619 L 7.1914370,4.0888881 z " color="#000" fill="#2e3436" fill-opacity="1" fill-rule="evenodd" stroke="none" stroke-width="0" stroke-linecap="butt" stroke-linejoin="miter" marker-start="none" marker-mid="none" marker-end="none" stroke-miterlimit="4" stroke-dashoffset="0" stroke-opacity="1" visibility="visible" display="block"/>
  <path style="marker:none" d="M 40.143457,4.0018106 C 40.594213,4.0056625 40.726578,3.9966298 41.014741,4.5413344 C 41.054147,4.6158258 43.889138,11.334500 43.990928,11.580310 C 44.337098,12.527414 43.677798,12.507611 42.632092,12.535082 C 42.433434,12.534789 40.083238,12.513093 39.852358,12.512849 L 40.143457,4.0018106 z " color="#000" fill="url(#l)" fill-opacity="1" fill-rule="evenodd" stroke="none" stroke-width="0" stroke-linecap="butt" stroke-linejoin="miter" marker-start="none" marker-mid="none" marker-end="none" stroke-miterlimit="4" stroke-dashoffset="0" stroke-opacity="1" visibility="visible" display="block"/>
  <path style="marker:none" d="M 43.188383,16.632845 L 7.1998593,16.609688 C 34.314156,17.240254 39.641346,20.219128 42.946375,20.066923 L 43.188383,16.632845 z " color="#000" fill="url(#m)" fill-opacity="1" fill-rule="nonzero" stroke="none" stroke-width="0" stroke-linecap="butt" stroke-linejoin="miter" marker-start="none" marker-mid="none" marker-end="none" stroke-miterlimit="4" stroke-dashoffset="0" stroke-opacity="1" visibility="visible" display="block"/>
  <g transform="matrix(1.420021,0.000000,0.000000,1.420021,-67.25409,-9.782841)" fill="#fff" fill-opacity=".48809519">
    <path d="M 64.131147,25.325447 L 67.928133,25.615144 L 69.396397,22.040585 L 67.659134,23.261574 C 67.659134,23.261574 66.914226,21.524169 66.378823,21.384498 C 65.843421,21.244828 63.559132,21.291385 63.559132,21.291385 C 64.285695,21.471073 64.850367,22.719512 64.859047,22.733674 C 65.085717,23.103530 65.720220,24.348057 65.720220,24.348057 L 64.131147,25.325447 z " fill-rule="evenodd" stroke="none" stroke-width="1px" stroke-linecap="butt" stroke-linejoin="miter" stroke-opacity="1"/>
    <path d="M 64.600893,22.852762 L 63.344021,25.250434 L 60.760121,23.620948 C 60.760121,23.620948 61.931819,21.409503 62.855175,21.409503 C 63.786342,21.409503 64.202456,22.212137 64.600893,22.852762 z " style="marker:none" color="#000" fill-opacity=".30952379" fill-rule="evenodd" stroke="none" stroke-width="1px" stroke-linecap="butt" stroke-linejoin="miter" marker-start="none" marker-mid="none" marker-end="none" stroke-miterlimit="4" stroke-dashoffset="0" stroke-opacity="1" visibility="visible" display="inline" overflow="visible"/>
    <path d="M 66.450976,28.545542 L 64.002948,31.471279 L 66.339076,34.488059 L 66.382284,32.587938 C 66.382284,32.587938 68.103047,32.750329 68.497986,32.362789 C 68.892923,31.975249 70.535933,30.021270 70.535933,30.021270 C 70.008436,30.552239 68.647269,30.395144 68.630659,30.395314 C 68.196893,30.399717 66.480102,30.359654 66.480102,30.359654 L 66.450976,28.545542 z " fill-rule="evenodd" stroke="none" stroke-width="1px" stroke-linecap="butt" stroke-linejoin="miter" stroke-opacity="1"/>
    <path d="M 68.748409,30.061355 L 67.337346,27.751062 L 70.062991,26.371707 C 70.062991,26.371707 71.358061,28.513238 70.883591,29.305365 C 70.405109,30.104193 69.502725,30.048732 68.748409,30.061355 z " style="marker:none" color="#000" fill-opacity=".30952379" fill-rule="evenodd" stroke="none" stroke-width="1px" stroke-linecap="butt" stroke-linejoin="miter" marker-start="none" marker-mid="none" marker-end="none" stroke-miterlimit="4" stroke-dashoffset="0" stroke-opacity="1" visibility="visible" display="inline" overflow="visible"/>
    <path d="M 62.170193,28.375650 L 60.961696,25.192931 L 57.437755,25.441971 L 58.884372,26.495777 C 58.884372,26.495777 57.885335,27.906210 58.024237,28.441813 C 58.163139,28.977415 58.946780,31.196407 58.946780,31.196407 C 58.749682,30.474372 59.564769,29.372969 59.572907,29.358488 C 59.785446,28.980335 60.676477,27.512330 60.676477,27.512330 L 62.170193,28.375650 z " fill-rule="evenodd" stroke="none" stroke-width="1px" stroke-linecap="butt" stroke-linejoin="miter" stroke-opacity="1"/>
    <path d="M 59.752772,29.661147 L 62.458980,29.590480 L 62.294995,32.640869 C 62.294995,32.640869 59.792913,32.695178 59.343013,31.888843 C 58.889308,31.075686 59.387472,30.321230 59.752772,29.661147 z " style="marker:none" color="#000" fill-opacity=".30952379" fill-rule="evenodd" stroke="none" stroke-width="1px" stroke-linecap="butt" stroke-linejoin="miter" marker-start="none" marker-mid="none" marker-end="none" stroke-miterlimit="4" stroke-dashoffset="0" stroke-opacity="1" visibility="visible" display="inline" overflow="visible"/>
  </g>
  <path d="M 41.624730,21.353707 C 36.299359,23.688117 29.004203,26.022890 23.056218,26.072457 C 16.516233,26.126957 11.697549,29.232924 6.8162911,31.616651 C 7.0109680,34.496868 7.2256820,36.507845 7.4908471,39.733418 C 7.6231144,41.342371 8.1287711,41.304151 10.431218,41.304151 C 19.542668,41.304151 31.496634,41.317095 38.688801,41.317095 C 40.449339,41.317095 40.248374,40.065364 40.343480,38.866651 C 40.803877,33.063793 41.217727,27.178156 41.624730,21.353707 z " opacity="1" fill="url(#n)" fill-opacity="1" fill-rule="evenodd" stroke="none" stroke-width="14.962102" stroke-linecap="butt" stroke-linejoin="miter" stroke-miterlimit="4" stroke-opacity="1"/>
  <path d="M 5.2098606,17.104721 C 5.1584543,17.104589 6.0490537,29.780321 6.7566249,38.670283 C 6.9391608,40.952273 7.3101511,41.881053 8.7477790,41.881053 C 20.599078,41.881053 37.441889,41.966198 38.015405,41.964122 C 40.789981,41.954075 40.738055,40.938088 40.967844,38.779413 C 41.051496,37.993579 42.504818,17.193109 42.490953,17.193109 C 32.560989,17.193109 17.478660,17.136339 5.2098606,17.104721 z " fill="none" fill-opacity="1" fill-rule="evenodd" stroke="url(#o)" stroke-width="1.14" stroke-linecap="butt" stroke-linejoin="miter" stroke-miterlimit="4" stroke-dasharray="none" stroke-opacity=".2857143"/>
</svg>
