<?xml version="1.0" encoding="UTF-8" standalone="no"?>
<!-- Created with Inkscape (http://www.inkscape.org/) -->

<svg
   version="1.1"
   viewBox="0 0 2666.6667 2666.6667"
   sodipodi:docname=".svg"
   inkscape:version="1.1.2 (0a00cf5339, 2022-02-04)"
   xmlns:inkscape="http://www.inkscape.org/namespaces/inkscape"
   xmlns:sodipodi="http://sodipodi.sourceforge.net/DTD/sodipodi-0.dtd"
   xmlns="http://www.w3.org/2000/svg"
   xmlns:svg="http://www.w3.org/2000/svg"><defs
     id="defs6" /><sodipodi:namedview
     id="namedview4"
     pagecolor="#ffffff"
     bordercolor="#666666"
     borderopacity="1.0"
     inkscape:pageshadow="2"
     inkscape:pageopacity="0.0"
     inkscape:pagecheckerboard="0"
     showgrid="false"
     inkscape:zoom="0.33712499"
     inkscape:cx="1333.3334"
     inkscape:cy="1333.3334"
     inkscape:window-width="3440"
     inkscape:window-height="1369"
     inkscape:window-x="0"
     inkscape:window-y="34"
     inkscape:window-maximized="1"
     inkscape:current-layer="g10" /><g
     id="g8"
     inkscape:groupmode="layer"
     inkscape:label="ink_ext_XXXXXX"
     transform="matrix(1.3333333,0,0,-1.3333333,0,2666.6667)"><g
       id="g10"
       transform="scale(0.1)"><path
         d="M 0,0 H 20000 V 20000 H 0 V 0"
         style="fill:#162240;fill-opacity:1;fill-rule:evenodd;stroke:none"
         id="path12" /><path
         d="m 3698,17100.7 z m 71.33,172 z M 1600,17516 h 1338.67 l -473.34,472.7 c -94.66,94.6 -94.66,250 0,344.6 v 0 c 94.67,94.7 250,94.7 344.67,0 l 888,-888.6 4.67,-4.7 v 0 l 4,-4 4,-4.7 4,-4.6 4,-5.4 3.33,-4.6 4,-4.7 v 0 l 3.33,-5.3 v 0 l 3.34,-5.4 2.66,-4.6 3.34,-5.4 2.66,-5.3 2.67,-5.3 v 0 l 2.67,-5.4 v 0 c 0.66,-2 1.33,-3.3 2.66,-5.3 v 0 l 2,-5.3 v 0 l 2,-6 v 0 l 2,-5.4 2,-5.3 v 0 l 2,-6 1.34,-5.3 v 0 l 1.33,-6 v 0 l 1.33,-6 v 0 l 1.34,-5.4 1.33,-6 0.67,-6 0.66,-5.3 v 0 l 0.67,-4.7 v 0 -1.3 0 l 0.67,-6 v 0 -5.3 0 -5.4 -0.6 0 0 l 0.66,-6 -0.66,-6 v 0 0 -0.7 -5.3 0 -5.4 0 l -0.67,-6 v 0 -1.3 0 l -0.67,-4.7 v 0 l -0.66,-5.3 -0.67,-6 -1.33,-6 -1.34,-5.3 v 0 l -1.33,-6 v 0 l -1.33,-6 v 0 l -1.34,-5.4 -2,-6 v 0 l -2,-5.3 -2,-5.3 v 0 l -2,-6 v 0 l -2,-5.4 v 0 l -2.66,-5.3 v 0 l -2.67,-5.3 v 0 l -2.67,-5.4 c -0.66,-2 -2,-3.3 -2.66,-5.3 l -3.34,-5.3 -2.66,-4.7 -3.34,-5.3 v 0 l -3.33,-5.4 v 0 l -4,-4.6 -3.33,-4.7 -4,-5.3 -4,-4.7 -4,-4.7 -4,-4 v 0 l -4.67,-4.6 -888,-888.7 c -94.67,-94.7 -250,-94.7 -344.67,0 v 0 c -94.66,94.7 -94.66,250 0,344.7 l 473.34,472.6 H 1600 c -134,0 -243.33,109.4 -243.33,243.4 v 0 c 0,134 109.33,243.3 243.33,243.3 v 0"
         style="fill:#4ef2f2;fill-opacity:1;fill-rule:evenodd;stroke:none"
         id="path14" /><path
         d="m 3698,17100.7 z m 71.33,172 z m 0,0 -0.66,-6 v 0 0 -0.7 -5.3 0 -5.4 0 l -0.67,-6 v 0 -1.3 0 l -0.67,-4.7 v 0 l -0.66,-5.3 -0.67,-6 -1.33,-6 -1.34,-5.3 v 0 l -1.33,-6 v 0 l -1.33,-6 v 0 l -1.34,-5.4 -2,-6 v 0 l -2,-5.3 -2,-5.3 v 0 l -2,-6 v 0 l -2,-5.4 v 0 l -2.66,-5.3 v 0 l -2.67,-5.3 v 0 l -2.67,-5.4 c -0.66,-2 -2,-3.3 -2.66,-5.3 l -3.34,-5.3 -2.66,-4.7 -3.34,-5.3 v 0 l -3.33,-5.4 v 0 l -4,-4.6 -3.33,-4.7 -4,-5.3 -4,-4.7 -4,-4.7 -4,-4 v 0 l -4.67,-4.6 -888,-888.7 c -94.67,-94.7 -250,-94.7 -344.67,0 v 0 c -94.66,94.7 -94.66,250 0,344.7 l 473.34,472.6 H 1600 c -134,0 -243.33,109.4 -243.33,243.4 h 2412.66"
         style="fill:#1bcbd4;fill-opacity:1;fill-rule:evenodd;stroke:none"
         id="path16" /><path
         d="m 6626.67,17100.7 z m 70.66,172 z M 4528.67,17516 h 450.66 l -472.66,472.7 c -94.67,94.6 -94.67,250 0,344.6 v 0 c 94.66,94.7 249.33,94.7 344,0 L 5668,17516 h 198.67 L 5394,17988.7 c -94.67,94.6 -94.67,250 0,344.6 v 0 c 94.67,94.7 249.33,94.7 344,0 l 888.67,-888.6 4,-4.7 v 0 l 4,-4 4.66,-4.7 4,-4.6 3.34,-5.4 4,-4.6 3.33,-4.7 v 0 l 3.33,-5.3 v 0 l 3.34,-5.4 3.33,-4.6 2.67,-5.4 2.66,-5.3 3.34,-5.3 v 0 l 2,-5.4 v 0 c 1.33,-2 2,-3.3 2.66,-5.3 v 0 l 2,-5.3 v 0 l 2.67,-6 v 0 l 2,-5.4 2,-5.3 v 0 l 1.33,-6 1.34,-5.3 v 0 l 2,-6 v 0 l 1.33,-6 v 0 l 0.67,-5.4 1.33,-6 0.67,-6 0.66,-5.3 v 0 l 0.67,-4.7 v 0 -1.3 0 l 0.67,-6 v 0 l 0.66,-5.3 v 0 -5.4 -0.6 0 0 -6 -6 0 0 -0.7 -5.3 0 l -0.66,-5.4 v 0 l -0.67,-6 v 0 -1.3 0 l -0.67,-4.7 v 0 l -0.66,-5.3 -0.67,-6 -1.33,-6 -0.67,-5.3 v 0 l -1.33,-6 v 0 l -2,-6 v 0 l -1.34,-5.4 -1.33,-6 v 0 l -2,-5.3 -2,-5.3 v 0 l -2.67,-6 v 0 l -2,-5.4 v 0 l -2.66,-5.3 v 0 l -2,-5.3 v 0 l -3.34,-5.4 c -0.66,-2 -1.33,-3.3 -2.66,-5.3 l -2.67,-5.3 -3.33,-4.7 -3.34,-5.3 v 0 l -3.33,-5.4 v 0 l -3.33,-4.6 -4,-4.7 -3.34,-5.3 -4,-4.7 -4.66,-4.7 -4,-4 v 0 l -4,-4.6 L 5738,16212 c -94.67,-94.7 -249.33,-94.7 -344,0 v 0 c -94.67,94.7 -94.67,250 0,344.7 l 472.67,472.6 H 5668 L 4850.67,16212 c -94.67,-94.7 -249.34,-94.7 -344,0 v 0 c -94.67,94.7 -94.67,250 0,344.7 l 472.66,472.6 h -450.66 c -134,0 -244,109.4 -244,243.4 v 0 c 0,134 110,243.3 244,243.3 v 0"
         style="fill:#4ef2f2;fill-opacity:1;fill-rule:evenodd;stroke:none"
         id="path18" /><path
         d="m 6626.67,17100.7 z m 70.66,172 z m 0,0 v -12 l -0.66,-5.4 v 0 l -0.67,-6 v 0 -1.3 0 l -0.67,-4.7 v 0 l -0.66,-5.3 -0.67,-6 -1.33,-6 -0.67,-5.3 v 0 l -1.33,-6 v 0 l -2,-6 v 0 l -1.34,-5.4 -1.33,-6 v 0 l -2,-5.3 -2,-5.3 v 0 l -2.67,-6 v 0 l -2,-5.4 v 0 l -2.66,-5.3 v 0 l -2,-5.3 v 0 l -3.34,-5.4 c -0.66,-2 -1.33,-3.3 -2.66,-5.3 l -2.67,-5.3 -3.33,-4.7 -3.34,-5.3 v 0 l -3.33,-5.4 v 0 l -3.33,-4.6 -4,-4.7 -3.34,-5.3 -4,-4.7 -4.66,-4.7 -4,-4 v 0 l -4,-4.6 L 5738,16212 c -94.67,-94.7 -249.33,-94.7 -344,0 v 0 c -94.67,94.7 -94.67,250 0,344.7 l 472.67,472.6 H 5668 L 4850.67,16212 c -94.67,-94.7 -249.34,-94.7 -344,0 v 0 c -94.67,94.7 -94.67,250 0,344.7 l 472.66,472.6 h -450.66 c -134,0 -244,109.4 -244,243.4 h 2412.66"
         style="fill:#1bcbd4;fill-opacity:1;fill-rule:evenodd;stroke:none"
         id="path20" /><path
         d="m 1403.33,14706.7 h 1230 l -420.66,301.3 254,544.7 1114,-797.4 508,-362.6 -508,-363.4 -1114,-797.3 -254,544.7 420.66,301.3 h -1230 v 628.7"
         style="fill:#4ef2f2;fill-opacity:1;fill-rule:evenodd;stroke:none"
         id="path22" /><path
         d="m 4088.67,14392.7 -508,-363.4 -1114,-797.3 -254,544.7 420.66,301.3 h -1230 v 314.7 h 2685.34"
         style="fill:#1bcbd4;fill-opacity:1;fill-rule:evenodd;stroke:none"
         id="path24" /><path
         d="m 16884.7,15438.7 1877.3,-918 -1877.3,-918.7 412.6,548.7 h -2442 v 739.3 h 2442 l -412.6,548.7"
         style="fill:#4ef2f2;fill-opacity:1;fill-rule:evenodd;stroke:none"
         id="path26" /><path
         d="m 14855.3,14521.3 h 3905.4 l 1.3,-0.6 -1877.3,-918.7 412.6,548.7 h -2442 v 370.6"
         style="fill:#1bcbd4;fill-opacity:1;fill-rule:evenodd;stroke:none"
         id="path28" /><path
         d="m 10650,15379.3 h 458.7 l 553.3,-604 h 354 l -553.3,604 h 254 204.6 254 l 553.4,-604 h 354 l -553.4,604 h 254 204.7 254 l 786.7,-858 -786.7,-858.6 h -254 -204.7 -254 l 553.4,604 h -354 l -553.4,-604 h -254 -204.6 -254 l 553.3,604 h -354 l -553.3,-604 h -254 -204.7 -254 l 786.7,858.6 -786.7,858 h 254"
         style="fill:#4ef2f2;fill-opacity:1;fill-rule:evenodd;stroke:none"
         id="path30" /><path
         d="m 11182.7,14521.3 h 2846 l -786.7,-858.6 h -712.7 l 553.4,604 h -354 l -553.4,-604 h -254 -204.6 -254 l 553.3,604 h -354 l -553.3,-604 h -254 -204.7 -254 l 786.7,858.6"
         style="fill:#1bcbd4;fill-opacity:1;fill-rule:evenodd;stroke:none"
         id="path32" /><path
         d="m 7768,14925.3 h 1052 l -505.33,570 h 856 l 864.03,-974 -864.03,-974 h -856 L 8820,14116.7 H 7768 v 808.6"
         style="fill:#4ef2f2;fill-opacity:1;fill-rule:evenodd;stroke:none"
         id="path34" /><path
         d="m 7768,14521.3 h 2266.7 l -864.03,-974 h -856 L 8820,14116.7 H 7768 v 404.6"
         style="fill:#1bcbd4;fill-opacity:1;fill-rule:evenodd;stroke:none"
         id="path36" /><path
         d="m 7462.67,14925.3 h 210 v -808.6 h -210 v 808.6"
         style="fill:#4ef2f2;fill-opacity:1;fill-rule:evenodd;stroke:none"
         id="path38" /><path
         d="m 7462.67,14521.3 h 210 v -404.6 h -210 v 404.6"
         style="fill:#1bcbd4;fill-opacity:1;fill-rule:evenodd;stroke:none"
         id="path40" /><path
         d="M 5483.33,15453.3 H 5982 l 854,-932 -854,-932.6 h -276.67 -222 -276 l 854.67,932.6 -854.67,932 h 276"
         style="fill:#4ef2f2;fill-opacity:1;fill-rule:evenodd;stroke:none"
         id="path42" /><path
         d="m 4454,15453.3 h 498 l 854.67,-932 -854.67,-932.6 h -276 -222 -276 l 854,932.6 -854,932 h 276"
         style="fill:#4ef2f2;fill-opacity:1;fill-rule:evenodd;stroke:none"
         id="path44" /><path
         d="m 6062,14521.3 h 774 l -854,-932.6 h -774.67 l 854.67,932.6"
         style="fill:#1bcbd4;fill-opacity:1;fill-rule:evenodd;stroke:none"
         id="path46" /><path
         d="M 5806.67,14521.3 4952,13588.7 h -774 l 854,932.6 h 774.67"
         style="fill:#1bcbd4;fill-opacity:1;fill-rule:evenodd;stroke:none"
         id="path48" /><path
         d="M 8332.67,18275.3 H 8868 L 9787.33,17272.7 8868,16270 H 8571.33 8332.67 8035.33 L 8680,16972.7 H 7289.33 v 600 H 8680 l -644.67,702.6 h 297.34"
         style="fill:#4ef2f2;fill-opacity:1;fill-rule:evenodd;stroke:none"
         id="path50" /><path
         d="M 9787.33,17272.7 8868,16270 H 8035.33 L 8680,16972.7 H 7289.33 v 300 h 2498"
         style="fill:#1bcbd4;fill-opacity:1;fill-rule:evenodd;stroke:none"
         id="path52" /><path
         d="m 11343.3,18132.7 284.7,284 1144,-1144 -1144,-1144 -284.7,284 660,660.6 h -1584 v 398.7 h 1584 l -660,660.7"
         style="fill:#4ef2f2;fill-opacity:1;fill-rule:evenodd;stroke:none"
         id="path54" /><path
         d="m 12772,17272.7 -1144,-1144 -284.7,284 660,660.6 h -1584 v 199.4 H 12772"
         style="fill:#1bcbd4;fill-opacity:1;fill-rule:evenodd;stroke:none"
         id="path56" /><path
         d="m 14502.7,18243.3 173.3,173.4 1144.7,-1144 -1144.7,-1144 -173.3,173.3 -174,-173.3 -284.7,284 604,604 h -1180 v 512 h 1180 l -604,604 284.7,284 174,-173.4"
         style="fill:#4ef2f2;fill-opacity:1;fill-rule:evenodd;stroke:none"
         id="path58" /><path
         d="m 15820.7,17272.7 -1144.7,-1144 -173.3,173.3 -174,-173.3 -284.7,284 604,604 h -1180 v 256 h 2352.7"
         style="fill:#1bcbd4;fill-opacity:1;fill-rule:evenodd;stroke:none"
         id="path60" /><path
         d="m 17947.3,17026 -1798,256.7 1798,257.3 -474.6,725.3 1310,-982.6 -1310,-982.7 474.6,726"
         style="fill:#4ef2f2;fill-opacity:1;fill-rule:evenodd;stroke:none"
         id="path62" /><path
         d="m 17947.3,17026 -1798,256.7 h 2633.4 l -1310,-982.7 474.6,726"
         style="fill:#1bcbd4;fill-opacity:1;fill-rule:evenodd;stroke:none"
         id="path64" /><path
         d="M 3042.67,12449.3 4468,11400 3042.67,10350 l 488.66,733.3 c -164.66,1.4 -358,37.4 -581.33,128.7 -991.33,404.7 -1732.67,214 -1732.67,214 0,0 851.34,796.7 1882.67,452.7 156.67,-52.7 294,-98 414.67,-137.4 l -472,708"
         style="fill:#4ef2f2;fill-opacity:1;fill-rule:evenodd;stroke:none"
         id="path66" /><path
         d="m 4468,11400 -1425.33,-1050 488.66,733.3 c -164.66,1.4 -358,37.4 -581.33,128.7 -991.33,404.7 -1732.67,214 -1732.67,214 0,0 749.34,424 1732.67,124 983.33,-300 1518,-150 1518,-150 v 0"
         style="fill:#1bcbd4;fill-opacity:1;fill-rule:evenodd;stroke:none"
         id="path68" /><path
         d="m 5510.67,12286.7 1204.66,-886.7 -1204.66,-887.3 396,887.3 z m -362.67,270 h 1930 c 105.33,0 192,-86.7 192,-192 v -1930 c 0,-105.4 -86.67,-191.4 -192,-191.4 H 5148 c -105.33,0 -192,86 -192,191.4 v 1930 c 0,105.3 86.67,192 192,192 v 0"
         style="fill:#4ef2f2;fill-opacity:1;fill-rule:evenodd;stroke:none"
         id="path70" /><path
         d="m 7270,11400 v -965.3 c 0,-105.4 -86.67,-191.4 -192,-191.4 H 5148 c -105.33,0 -192,86 -192,191.4 v 965.3 h 950.67 l -396,-887.3 1204.66,887.3 H 7270"
         style="fill:#1bcbd4;fill-opacity:1;fill-rule:evenodd;stroke:none"
         id="path72" /><path
         d="m 10444,12504 h 262.7 l 698.6,-1121.3 -698.6,-1121.4 h -180 -82.7 -97.3 -82 -180 l 470.6,755.4 -2856.63,297.3 h 3042.03 l 42.6,68.7 -42.6,68.6 H 7698.67 l 2856.63,297.4 -470.6,755.3 h 180 82 97.3"
         style="fill:#4ef2f2;fill-opacity:1;fill-rule:evenodd;stroke:none"
         id="path74" /><path
         d="m 11405.3,11382.7 -698.6,-1121.4 h -622 l 470.6,755.4 -2856.63,297.3 h 3042.03 l 42.6,68.7 h 622"
         style="fill:#1bcbd4;fill-opacity:1;fill-rule:evenodd;stroke:none"
         id="path76" /><path
         d="m 14844,11382 c 0,-459.3 -1246,-1203.3 -1768.7,-1114.7 586.7,100 928.7,463.4 1025.4,870 h -2283.4 v 490.7 h 2283.4 c -98,406 -439.4,768.7 -1025.4,868 522.7,88.7 1768.7,-502.7 1768.7,-1114 v 0"
         style="fill:#4ef2f2;fill-opacity:1;fill-rule:evenodd;stroke:none"
         id="path78" /><path
         d="m 14844,11382 c 0,-459.3 -1246,-1203.3 -1768.7,-1114.7 586.7,100 928.7,463.4 1025.4,870 h -2283.4 v 245.4 H 14844 v -0.7"
         style="fill:#1bcbd4;fill-opacity:1;fill-rule:evenodd;stroke:none"
         id="path80" /><path
         d="m 1501.33,8465.3 c -50,-12.6 -101.33,17.4 -114,67.4 -13.33,50 16.67,101.3 66.67,114.6 l 1311.33,339.4 c 50,13.3 100.67,-16.7 114,-67.4 4,-16 4,-32.6 -0.66,-48 L 2758.67,8436 3902,8732.7 c 50.67,13.3 101.33,-17.4 114.67,-67.4 12.66,-50 -17.34,-101.3 -67.34,-114 L 2650.67,8214.7 c -16,-4.7 -33.34,-5.4 -50.67,-0.7 -50,14 -79.33,66 -65.33,116 l 120,434.7 -1153.34,-299.4"
         style="fill:#4ef2f2;fill-opacity:1;fill-rule:nonzero;stroke:none"
         id="path82" /><path
         d="m 3312.67,8913.3 c -45.34,26 -60.67,83.4 -34.67,128 26,44.7 83.33,60 128.67,34 l 601.33,-350 c 45.33,-26 60,-83.3 34.67,-128 -1.34,-2 -2.67,-4 -4,-6 l -411.34,-600.6 c -29.33,-42.7 -88,-54 -130.66,-24.7 -42.67,29.3 -54,88 -24.67,130.7 l 354.67,517.3 -514,299.3"
         style="fill:#1bcbd4;fill-opacity:1;fill-rule:evenodd;stroke:none"
         id="path84" /><path
         d="M 7232,8730.7 H 8706.67 V 8556 H 7232 l -182.67,-158 h -140 -45.33 -47.33 l 284,245.3 -284,246 h 47.33 45.33 140 L 7232,8730.7"
         style="fill:#4ef2f2;fill-opacity:1;fill-rule:nonzero;stroke:none"
         id="path86" /><path
         d="m 8200,9483.3 h 158.67 l 484.66,-840 -484.66,-840 h -80.67 -78 -80.67 l 485.34,840 -485.34,840 H 8200"
         style="fill:#1bcbd4;fill-opacity:1;fill-rule:evenodd;stroke:none"
         id="path88" /><path
         d="m 10069.3,8868 c -57.3,58 -136.63,93.3 -224.63,93.3 -88,0 -167.34,-35.3 -224.67,-93.3 -58,-57.3 -93.33,-136.7 -93.33,-224.7 0,-88 35.33,-167.3 93.33,-224.6 57.33,-57.4 136.67,-93.4 224.67,-93.4 88,0 167.33,36 224.63,93.4 57.4,57.3 93.4,136.6 93.4,224.6 0,88 -36,167.4 -93.4,224.7 z m -224.63,281.3 c 139.33,0 266.03,-56.6 358.03,-148 70,-70.6 120,-162 139.3,-264 h 1768.7 v -188 H 10342 c -19.3,-102 -69.3,-193.3 -139.3,-264 -92,-91.3 -218.7,-148 -358.03,-148 -140,0 -266.67,56.7 -358,148 -91.34,92 -148,218.7 -148,358 0,140 56.66,266.7 148,358 91.33,91.4 218,148 358,148 v 0"
         style="fill:#4ef2f2;fill-opacity:1;fill-rule:nonzero;stroke:none"
         id="path90" /><path
         d="m 12226.7,8670.7 v -0.7 l 0.6,-1.3 c 5.4,-11.4 8.7,-24 8.7,-36.7 v -1.3 -0.7 -2 0 -2 c 0,-12.7 -3.3,-25.3 -8.7,-36.7 l -0.6,-1.3 v -0.7 c -2.7,-4.6 -5.4,-9.3 -8.7,-13.3 l -436.7,-628 c -29.3,-42.7 -88,-52.7 -130.6,-23.3 -42.7,29.3 -52.7,88 -23.4,130.6 l 400.7,576 -400.7,575.4 c -29.3,42.6 -19.3,101.3 23.4,130.6 42.6,30 101.3,19.4 130.6,-23.3 l 436.7,-628 c 3.3,-4 6,-8.7 8.7,-13.3 v 0"
         style="fill:#1bcbd4;fill-opacity:1;fill-rule:evenodd;stroke:none"
         id="path92" /><path
         d="m 12938,8318.7 c -14,-50 -65.3,-79.4 -115.3,-65.4 -50,14 -79.4,65.4 -65.4,115.4 0.7,2 212.7,809.3 1296,352 211.4,-89.4 403.4,-120.7 574.7,-115.4 169.3,4.7 318,45.4 444,100.7 47.3,20.7 102.7,-1.3 123.3,-48.7 20.7,-47.3 -0.6,-102.6 -48.6,-123.3 -144.7,-63.3 -317.4,-110.7 -514,-116 -195.4,-6 -413.4,29.3 -652,130 -885.4,373.3 -1042,-227.3 -1042.7,-229.3 v 0"
         style="fill:#4ef2f2;fill-opacity:1;fill-rule:nonzero;stroke:none"
         id="path94" /><path
         d="m 14576.7,8976.7 c -38.7,34.6 -42,94 -7.4,132.6 34.7,38.7 94,42 132.7,7.4 l 506.7,-456 c 38.6,-34.7 42,-94 7.3,-132.7 l -4,-4 -478,-539.3 c -34.7,-38.7 -94,-42 -132.7,-8 -38.6,34.6 -42,93.3 -8,132.6 l 420.7,474 -437.3,393.4"
         style="fill:#1bcbd4;fill-opacity:1;fill-rule:evenodd;stroke:none"
         id="path96" /><path
         d="m 15708.7,8500 c -52,0 -94,42 -94,94 0,52 42,94 94,94 h 1536 v -188 h -1536"
         style="fill:#4ef2f2;fill-opacity:1;fill-rule:nonzero;stroke:none"
         id="path98" /><path
         d="m 17854,8500 h -421.3 v -422 z m -421.3,188 h 412.6 l -412.6,389.3 z m -188,0 v 607.3 c 0,52 42,94 94,94 27.3,0 52,-11.3 69.3,-30 l 733.3,-692.6 c 20.7,-17.4 34,-43.4 34,-72.7 0,-26.7 -10.6,-50 -28,-67.3 l -742,-742 c -36.6,-36.7 -96.6,-36.7 -133.3,0 -18,18.6 -27.3,42.6 -27.3,66.6 v 648.7 188"
         style="fill:#1bcbd4;fill-opacity:1;fill-rule:evenodd;stroke:none"
         id="path100" /><path
         d="m 16799.3,3010 376.7,-377.3 -376.7,-377.4 -377.3,377.4 377.3,377.3"
         style="fill:#4ef2f2;fill-opacity:1;fill-rule:evenodd;stroke:none"
         id="path102" /><path
         d="m 16786,3600.7 h 517.3 l 886.7,-968 -886.7,-968 h -286.6 -230.7 -286.7 l 887.4,968 -887.4,968 h 286.7"
         style="fill:#4ef2f2;fill-opacity:1;fill-rule:evenodd;stroke:none"
         id="path104" /><path
         d="m 17568.7,3600.7 h 326.6 l 887.4,-968 -887.4,-968 c -267.3,0 -58.6,0 -326.6,0 l 886.6,968 -886.6,968"
         style="fill:#4ef2f2;fill-opacity:1;fill-rule:evenodd;stroke:none"
         id="path106" /><path
         d="m 18455.3,2632.7 h 327.4 l -887.4,-968 c -267.3,0 -58.6,0 -326.6,0 l 886.6,968"
         style="fill:#1bcbd4;fill-opacity:1;fill-rule:evenodd;stroke:none"
         id="path108" /><path
         d="m 17386.7,2632.7 h 803.3 l -886.7,-968 h -804 l 887.4,968"
         style="fill:#1bcbd4;fill-opacity:1;fill-rule:evenodd;stroke:none"
         id="path110" /><path
         d="m 16422,2632.7 h 754 l -376.7,-377.4 z"
         style="fill:#1bcbd4;fill-opacity:1;fill-rule:evenodd;stroke:none"
         id="path112" /><path
         d="M 15079.3,2914 13806.7,2749.3 V 2516 l 1272.6,-164.7 -512.6,-768.6 1426,1050 -1426,1050 512.6,-768.7"
         style="fill:#4ef2f2;fill-opacity:1;fill-rule:evenodd;stroke:none"
         id="path114" /><path
         d="m 13806.7,2632.7 h 2186 l -1426,-1050 512.6,768.6 -1272.6,164.7 v 116.7"
         style="fill:#1bcbd4;fill-opacity:1;fill-rule:evenodd;stroke:none"
         id="path116" /><path
         d="M 12198.7,3599.3 13344,2632.7 12198.7,1666 v 502.7 l 378.6,319.3 -1266.6,-163.3 v 383.3 233.3 l 1266.6,-164 -378.6,319.4 v 502.6"
         style="fill:#4ef2f2;fill-opacity:1;fill-rule:evenodd;stroke:none"
         id="path118" /><path
         d="M 11310.7,2632.7 H 13344 L 12198.7,1666 v 502.7 l 378.6,319.3 -1266.6,-163.3 v 308"
         style="fill:#1bcbd4;fill-opacity:1;fill-rule:evenodd;stroke:none"
         id="path120" /><path
         d="M 8862,3599.3 10795.3,2632.7 8862,1666 v 502.7 l 927.33,464 -927.33,464 v 502.6"
         style="fill:#4ef2f2;fill-opacity:1;fill-rule:evenodd;stroke:none"
         id="path122" /><path
         d="M 8228.67,2899.3 H 9006 L 9539.33,2632.7 9006,2366 h -777.33 v 533.3"
         style="fill:#4ef2f2;fill-opacity:1;fill-rule:evenodd;stroke:none"
         id="path124" /><path
         d="M 9789.33,2632.7 H 10795.3 L 8862,1666 v 502.7 l 927.33,464"
         style="fill:#1bcbd4;fill-opacity:1;fill-rule:evenodd;stroke:none"
         id="path126" /><path
         d="M 8228.67,2632.7 H 9539.33 L 9006,2366 h -777.33 v 266.7"
         style="fill:#1bcbd4;fill-opacity:1;fill-rule:evenodd;stroke:none"
         id="path128" /><path
         d="M 4380,3599.3 6313.33,2632.7 4380,1666 v 502.7 l 928,464 -928,464 v 502.6"
         style="fill:#4ef2f2;fill-opacity:1;fill-rule:evenodd;stroke:none"
         id="path130" /><path
         d="M 5848,3599.3 7781.33,2632.7 5848,1666 v 502.7 l 927.33,464 -927.33,464 v 502.6"
         style="fill:#4ef2f2;fill-opacity:1;fill-rule:evenodd;stroke:none"
         id="path132" /><path
         d="m 6775.33,2632.7 h 1006 L 5848,1666 v 502.7 l 927.33,464"
         style="fill:#1bcbd4;fill-opacity:1;fill-rule:evenodd;stroke:none"
         id="path134" /><path
         d="M 5308,2632.7 H 6313.33 L 4380,1666 v 502.7 l 928,464"
         style="fill:#1bcbd4;fill-opacity:1;fill-rule:evenodd;stroke:none"
         id="path136" /><path
         d="m 1516.67,3635.3 h 254.66 L 2690,2632.7 1771.33,1630 c -278,0 22.67,0 -254.66,0 L 2436,2632.7 1516.67,3635.3"
         style="fill:#4ef2f2;fill-opacity:1;fill-rule:evenodd;stroke:none"
         id="path138" /><path
         d="m 2294,3635.3 h 536 L 3749.33,2632.7 2830,1630 H 2533.33 2294 1997.33 L 2916,2632.7 1997.33,3635.3 H 2294"
         style="fill:#4ef2f2;fill-opacity:1;fill-rule:evenodd;stroke:none"
         id="path140" /><path
         d="m 2436,2632.7 h 254 L 1771.33,1630 c -278,0 22.67,0 -254.66,0 L 2436,2632.7"
         style="fill:#1bcbd4;fill-opacity:1;fill-rule:evenodd;stroke:none"
         id="path142" /><path
         d="M 3749.33,2632.7 2830,1630 H 1997.33 L 2916,2632.7 h 833.33"
         style="fill:#1bcbd4;fill-opacity:1;fill-rule:evenodd;stroke:none"
         id="path144" /><path
         d="M 2644.67,6085.3 1592.67,5822 2644,5547.3 c 10.67,-2 20.67,-8.6 28,-18 14.67,-21.3 10,-50.6 -11.33,-66 L 2272,5185.3 2485.33,4727.3 4008,5816.7 2485.33,6905.3 2272,6447.3 2658.67,6170.7 c 10,-6.7 17.33,-16 20.66,-28.7 6,-24.7 -9.33,-50.7 -34.66,-56.7 z M 1392,5868 l 1131.33,284 -338,242 c -18.66,13.3 -24.66,37.3 -15.33,58 v 0 l 254,544.7 c 10.67,23.3 38.67,33.3 62,22.6 4,-2 7.33,-4 10.67,-6.6 L 4116,5854.7 c 20.67,-15.4 26,-44.7 10.67,-65.4 -3.34,-4.6 -7.34,-8.6 -11.34,-11.3 L 2494,4618 c -21.33,-15.3 -50.67,-10 -66,10.7 -1.33,2.6 -2.67,5.3 -4,7.3 v 0 l -254,544.7 c -10,22 -2,48 18,60 l 336.67,241.3 -1133.34,295.3 c -24.66,6.7 -40,32 -33.33,57.4 4,17.3 18,29.3 34,33.3 v 0"
         style="fill:#4ef2f2;fill-opacity:1;fill-rule:nonzero;stroke:none"
         id="path146" /><path
         d="m 4132,5834.7 c 6,-14.7 4.67,-32 -5.33,-45.4 -3.34,-4.6 -7.34,-8.6 -11.34,-11.3 L 2494,4618 c -21.33,-15.3 -50.67,-10 -66,10.7 -1.33,2.6 -2.67,5.3 -4,7.3 v 0 l -254,544.7 c -10,22 -2,48 18,60 l 336.67,241.3 -1133.34,295.3 c -16.66,4.7 -29.33,18 -33.33,33.4 v 24 h 285.33 L 1592.67,5822 2644,5547.3 c 10.67,-2 20.67,-8.6 28,-18 14.67,-21.3 10,-50.6 -11.33,-66 l -388.67,-278 213.33,-458 1522.67,1089.4 -25.33,18 H 4132"
         style="fill:#1bcbd4;fill-opacity:1;fill-rule:nonzero;stroke:none"
         id="path148" /><path
         d="m 5882.67,6772 h -429.34 l 569.34,-620.7 c 9.33,-8.6 16,-21.3 16,-35.3 0,-26 -21.34,-46.7 -47.34,-46.7 H 4648 V 5564 h 1343.33 v -0.7 c 11.34,0 22.67,-4 31.34,-12 19.33,-17.3 20.66,-47.3 3.33,-66 l -572.67,-624.6 h 706 l 876,956 -876,955.3 z M 5644,6866 h 536 c 15.33,0 28.67,-7.3 37.33,-18.7 l 916,-999.3 c 16.67,-18 16,-45.3 0,-63.3 L 6214,4782 c -8.67,-10 -21.33,-15.3 -34,-15.3 v 0 h -833.33 c -25.34,0 -46.67,20.6 -46.67,46.6 0,14 6,26.7 15.33,35.4 l 569.34,620.6 h -1284 c -26,0 -47.34,21.4 -47.34,47.4 V 6116 c 0,26 21.34,47.3 47.34,47.3 h 1284 l -572,624 c -17.34,19.4 -16.67,49.4 2.66,66.7 9.34,8 20.67,12 31.34,12 v 0 H 5644"
         style="fill:#4ef2f2;fill-opacity:1;fill-rule:nonzero;stroke:none"
         id="path150" /><path
         d="m 7142,5834.7 c 6.67,-16.7 4,-36 -8.67,-50 L 6214,4782 c -8.67,-10 -21.33,-15.3 -34,-15.3 v 0 h -833.33 c -25.34,0 -46.67,20.6 -46.67,46.6 0,14 6,26.7 15.33,35.4 l 569.34,620.6 h -1284 c -26,0 -47.34,21.4 -47.34,47.4 v 318 H 4648 V 5564 h 1343.33 v -0.7 c 11.34,0 22.67,-4 31.34,-12 19.33,-17.3 20.66,-47.3 3.33,-66 l -572.67,-624.6 h 706 l 876,956 -16.66,18 H 7142"
         style="fill:#1bcbd4;fill-opacity:1;fill-rule:nonzero;stroke:none"
         id="path152" /><path
         d="M 10968.7,5816.7 9751.33,6674 9218,6154.7 c -8.67,-9.4 -21.33,-16 -35.33,-16 H 7764 V 5494 h 1418.67 v 0 c 12,0 23.33,-4.7 32.66,-13.3 l 536,-522 z m -1195.37,956.6 1303.97,-918.6 c 20.7,-14.7 26,-44 11.4,-65.4 -3.4,-4.6 -8,-8.6 -12.7,-12 l -1302.67,-918 C 9754,4846 9728,4849.3 9712,4866 l -548,534 H 7716.67 c -26,0 -46.67,20.7 -46.67,46.7 V 6186 c 0,26 20.67,47.3 46.67,47.3 H 9164 l 549.33,535.4 c 16.67,16 42,17.3 60,4.6 v 0"
         style="fill:#4ef2f2;fill-opacity:1;fill-rule:nonzero;stroke:none"
         id="path154" /><path
         d="m 11093.3,5834.7 c 6,-14.7 4.7,-31.4 -4.6,-45.4 -3.4,-4.6 -8,-8.6 -12.7,-12 l -1302.67,-918 C 9754,4846 9728,4849.3 9712,4866 l -548,534 H 7716.67 c -26,0 -46.67,20.7 -46.67,46.7 v 388 h 94 V 5494 h 1418.67 v 0 c 12,0 23.33,-4.7 32.66,-13.3 l 536,-522 1217.37,858 -26,18 h 150.6"
         style="fill:#1bcbd4;fill-opacity:1;fill-rule:nonzero;stroke:none"
         id="path156" /><path
         d="M 13520.7,6012.7 H 12006 c -54,0 -103.3,-22 -138.7,-57.4 -36,-36 -58,-84.6 -58,-138.6 0,-54 22,-103.4 58,-138.7 35.4,-36 84.7,-58 138.7,-58 h 1514.7 c 12,0 24,-4.7 33.3,-14 18.7,-18 18.7,-48 0,-66 l -472.7,-473.3 c -38,-38 -57.3,-88 -57.3,-138.7 0,-50 19.3,-100.7 57.3,-138.7 38,-38 88.7,-57.3 138.7,-57.3 50.7,0 100.7,19.3 138.7,57.3 l 888.6,888 v 0 c 8.7,9.4 16,18 23.4,28.7 l 4.6,6.7 v 0 c 4,6.6 8,14 11.4,21.3 v 0 c 1.3,2.7 2.6,6 4,8.7 v 0 c 2.6,8 4.6,14.6 7.3,22.6 v 0 c 3.3,13.4 4.7,24 6,37.4 v 0 c 0,2.6 0.7,5.3 0.7,8 v 0 6.6 c 0,1.4 0,3.4 0,4.7 v 0 0.7 c -0.7,2 -0.7,3.3 -0.7,5.3 l -0.7,10 c 0,2 -0.6,3.3 -0.6,5.3 -0.7,4 -1.4,8 -2,12 -0.7,2 -0.7,4 -1.4,5.4 0,2 -0.6,3.3 -0.6,4.6 -0.7,2 -1.4,3.4 -1.4,5.4 l -1.3,3.3 c -0.7,2 -1.3,4 -2,6 l -0.7,2.7 c -0.6,2 -1.3,4 -2,5.3 l -4,9.3 c -3.3,6.7 -6.6,12.7 -10,19.4 v 0 l -4,6 c -0.6,1.3 -1.3,2.6 -2.6,4 -0.7,1.3 -2,2.6 -2.7,4.6 -4.7,6.7 -10,12.7 -15.3,18.7 -1.4,1.3 -2.7,2 -3.4,3.3 l -890.6,890 c -38,38.7 -88,57.4 -138.7,57.4 -50,0 -100.7,-18.7 -138.7,-57.4 -38,-38 -57.3,-88 -57.3,-138.6 0,-50.7 19.3,-100.7 57.3,-138.7 l 472,-472.7 c 9.4,-8 14.7,-20 14.7,-33.3 0,-26 -21.3,-47.3 -47.3,-47.3 z m -1514.7,94 h 1401.3 l -392.6,392.6 c -56.7,56.7 -84.7,130.7 -84.7,205.4 0,74.6 28,148.6 84.7,205.3 56.6,56.7 131.3,84.7 205.3,84.7 74.7,0 148.7,-28 205.3,-84.7 l 888.7,-888 c 3.3,-4 6.7,-8 10,-11.3 h 0.7 l 4,-4.7 c 4.6,-6 8.6,-11.3 13.3,-17.3 l 4.7,-6 4,-6.7 h 0.6 l 2.7,-5.3 c 1.3,-1.4 2,-2.7 2.7,-4 l 2,-3.4 v 0 l 3.3,-5.3 c 3.3,-6 6.7,-12 9.3,-18.7 0.7,-1.3 1.4,-2.6 2,-4 l 1.4,-3.3 v 0 l 2.6,-6 c 0.7,-1.3 0.7,-2.7 1.4,-4 4,-10 6.6,-19.3 9.3,-29.3 0.7,-1.4 1.3,-2.7 1.3,-4 l 0.7,-4 v 0 l 1.3,-5.4 c 2.7,-12 4.7,-24 6,-36 v 0 l 0.7,-5.3 v -10 0 -6 h 0.7 c -0.7,-3.3 -0.7,-7.3 -0.7,-11.3 h 0.7 c 0,-2 0,-4 -0.7,-5.4 v -0.6 0 c 0,-2 0,-4 0,-6 0,-2 0,-3.4 -0.7,-5.4 0,-3.3 0,-6 -0.6,-9.3 0,-2 -0.7,-4.7 -0.7,-6.7 -1.3,-6.6 -2,-12.6 -3.3,-18.6 -0.7,-2.7 -0.7,-5.4 -2,-8 0,-2.7 -0.7,-4.7 -1.4,-6.7 -0.6,-2.7 -1.3,-4.7 -2,-7.3 l -1.3,-5.4 c -0.7,-3.3 -2,-6 -2.7,-8.6 l -2,-4.7 c -0.6,-2.7 -1.3,-5.3 -2.6,-7.3 -0.7,-2 -1.4,-4 -2,-6 l -1.4,-2 c -0.6,-2 -1.3,-3.4 -2,-5.4 -0.6,-2 -2,-4 -2.6,-5.3 l -0.7,-2 c -0.7,-1.3 -2,-3.3 -2.7,-4.7 -2.6,-5.3 -5.3,-10.6 -8.6,-16 -0.7,-1.3 -2,-2.6 -2.7,-4.6 l -2,-2.7 v 0 l -1.3,-2 c -1.4,-2.7 -2.7,-4.7 -4,-6.7 -1.4,-2 -2.7,-4 -4.7,-6 -6,-8.6 -12.7,-16.6 -19.3,-25.3 l -3.4,-2.7 c -1.3,-2 -3.3,-4 -5.3,-6 l -2.7,-2 h 0.7 l -888.7,-888.6 c -56.6,-56.7 -130.6,-84.7 -205.3,-84.7 -74,0 -148.7,28 -205.3,84.7 -56.7,56.6 -84.7,131.3 -84.7,205.3 0,74.7 28,148.7 84.7,205.3 l 392.6,392.7 H 12006 c -80,0 -152.7,32.7 -205.3,85.3 -52.7,52.7 -85.4,125.4 -85.4,205.4 0,79.3 32.7,152 85.4,204.6 52.6,52.7 125.3,85.4 205.3,85.4 v 0"
         style="fill:#4ef2f2;fill-opacity:1;fill-rule:nonzero;stroke:none"
         id="path158" /><path
         d="M 14398,5834.7 V 5822 h 0.7 c -0.7,-3.3 -0.7,-7.3 -0.7,-11.3 h 0.7 c 0,-2 0,-4 -0.7,-5.4 v -0.6 0 c 0,-2 0,-4 0,-6 0,-2 0,-3.4 -0.7,-5.4 0,-3.3 0,-6 -0.6,-9.3 0,-2 -0.7,-4.7 -0.7,-6.7 -1.3,-6.6 -2,-12.6 -3.3,-18.6 -0.7,-2.7 -0.7,-5.4 -2,-8 0,-2.7 -0.7,-4.7 -1.4,-6.7 -0.6,-2.7 -1.3,-4.7 -2,-7.3 l -1.3,-5.4 c -0.7,-3.3 -2,-6 -2.7,-8.6 l -2,-4.7 c -0.6,-2.7 -1.3,-5.3 -2.6,-7.3 -0.7,-2 -1.4,-4 -2,-6 l -1.4,-2 c -0.6,-2 -1.3,-3.4 -2,-5.4 -0.6,-2 -2,-4 -2.6,-5.3 l -0.7,-2 c -0.7,-1.3 -2,-3.3 -2.7,-4.7 -2.6,-5.3 -5.3,-10.6 -8.6,-16 -0.7,-1.3 -2,-2.6 -2.7,-4.6 l -2,-2.7 v 0 l -1.3,-2 c -1.4,-2.7 -2.7,-4.7 -4,-6.7 -1.4,-2 -2.7,-4 -4.7,-6 -6,-8.6 -12.7,-16.6 -19.3,-25.3 l -3.4,-2.7 c -1.3,-2 -3.3,-4 -5.3,-6 l -2.7,-2 h 0.7 l -888.7,-888.6 c -56.6,-56.7 -130.6,-84.7 -205.3,-84.7 -74,0 -148.7,28 -205.3,84.7 -56.7,56.6 -84.7,131.3 -84.7,205.3 0,74.7 28,148.7 84.7,205.3 l 392.6,392.7 H 12006 c -80,0 -152.7,32.7 -205.3,85.3 -52.7,52.7 -85.4,125.4 -85.4,205.4 0,6 0,12 0.7,18 h 94 c -0.7,-6 -0.7,-12 -0.7,-18 0,-54 22,-103.4 58,-138.7 35.4,-36 84.7,-58 138.7,-58 h 1514.7 c 12,0 24,-4.7 33.3,-14 18.7,-18 18.7,-48 0,-66 l -472.7,-473.3 c -38,-38 -57.3,-88 -57.3,-138.7 0,-50 19.3,-100.7 57.3,-138.7 38,-38 88.7,-57.3 138.7,-57.3 50.7,0 100.7,19.3 138.7,57.3 l 888.6,888 v 0 c 8.7,9.4 16,18 23.4,28.7 l 4.6,6.7 v 0 c 4,6.6 8,14 11.4,21.3 v 0 c 1.3,2.7 2.6,6 4,8.7 v 0 c 2.6,8 4.6,14.6 7.3,22.6 v 0 c 3.3,13.4 4.7,24 6,37.4 v 0 c 0,2.6 0.7,5.3 0.7,8 v 0 6.6 c 0,1.4 0,3.4 0,4.7 v 0 0.7 c -0.7,2 -0.7,3.3 -0.7,5.3 l -0.7,6.7 h 94.7"
         style="fill:#1bcbd4;fill-opacity:1;fill-rule:nonzero;stroke:none"
         id="path160" /><path
         d="m 15682,6720 h -391.3 l 498.6,-544 c 9.4,-8.7 15.4,-21.3 15.4,-35.3 0,-26 -21.4,-46.7 -46.7,-46.7 h -509.3 v -518.7 h 509.3 v -0.6 c 10.7,0 22,-4 31.3,-12 19.4,-17.4 20.7,-47.4 2.7,-66 l -501.3,-547.4 h 647.3 l 811.3,885.4 -811.3,885.3 z m -222,94 h 498 c 15.3,0 29.3,-7.3 38,-18.7 l 851.3,-929.3 c 16,-18 16,-45.3 0,-63.3 l -854.6,-932 c -9.4,-10 -22,-15.4 -34.7,-15.4 v 0 h -774 c -26,0 -46.7,20.7 -46.7,46.7 0,14 6,26.7 15.4,35.3 l 498.6,544 h -450 c -26,0 -46.6,20.7 -46.6,46.7 v 612.7 c 0,26 20.6,47.3 46.6,47.3 h 450 l -502,547.3 c -17.3,18.7 -16,48.7 3.4,66 8.6,8 20,12 31.3,12 v 0.7 h 276"
         style="fill:#4ef2f2;fill-opacity:1;fill-rule:nonzero;stroke:none"
         id="path162" /><path
         d="m 16859.3,5834.7 c 0,-11.4 -4,-22.7 -12,-32 l -854.6,-932 c -9.4,-10 -22,-15.4 -34.7,-15.4 v 0 h -774 c -26,0 -46.7,20.7 -46.7,46.7 0,14 6,26.7 15.4,35.3 l 498.6,544 h -450 c -26,0 -46.6,20.7 -46.6,46.7 v 306.7 h 94 v -259.4 h 509.3 v -0.6 c 10.7,0 22,-4 31.3,-12 19.4,-17.4 20.7,-47.4 2.7,-66 l -501.3,-547.4 h 647.3 l 811.3,885.4 h 110"
         style="fill:#1bcbd4;fill-opacity:1;fill-rule:nonzero;stroke:none"
         id="path164" /><path
         d="m 18703.3,5834.7 -1010,743.3 324,-724.7 c 5.4,-11.3 5.4,-25.3 0,-38 l -324,-724.6 z m -1097.3,924.6 1204,-886.6 c 21.3,-15.4 25.3,-44.7 10,-66 -2.7,-4 -6.7,-8 -10.7,-10.7 L 17606,4910 c -20.7,-15.3 -50,-11.3 -65.3,10 -11.4,14.7 -12,33.3 -4.7,48.7 l 387.3,866 -388,867.3 c -10.6,24 0,52 24,62 16,7.3 33.4,4.7 46.7,-4.7 v 0"
         style="fill:#4ef2f2;fill-opacity:1;fill-rule:nonzero;stroke:none"
         id="path166" /><path
         d="m 18829.3,5834.7 c 0,-10 -2.6,-19.4 -9.3,-28 -2.7,-4 -6.7,-8 -10.7,-10.7 L 17606,4910 c -20.7,-15.3 -50,-11.3 -65.3,10 -11.4,14.7 -12,33.3 -4.7,48.7 l 387.3,866 h 98 c 0,-6.7 -1.3,-13.4 -4,-19.4 l -324,-724.6 1010,744 h 126"
         style="fill:#1bcbd4;fill-opacity:1;fill-rule:nonzero;stroke:none"
         id="path168" /><path
         d="m 17241.3,10350 1425.4,1050 -1425.4,1049.3 488.7,-733.3 c -165.3,-1.3 -358,-37.3 -581.3,-128 -991.4,-404.7 -1732.7,-214.7 -1732.7,-214.7 0,0 850.7,-796 1882.7,-452 156.6,52 294,97.4 414,136.7 l -471.4,-708"
         style="fill:#1bcbd4;fill-opacity:1;fill-rule:evenodd;stroke:none"
         id="path170" /><path
         d="m 18666.7,11400 -1425.4,1049.3 488.7,-733.3 c -165.3,-1.3 -358,-37.3 -581.3,-128 -991.4,-404.7 -1732.7,-214.7 -1732.7,-214.7 0,0 749.3,-424 1732.7,-124 983.3,300 1518,150.7 1518,150.7 v 0"
         style="fill:#4ef2f2;fill-opacity:1;fill-rule:evenodd;stroke:none"
         id="path172" /><path
         d="m 4433.33,8534.7 c -51.33,0 -94,42.6 -94,94.6 0,51.4 42.67,94 94,94 h 1749.34 c 52,0 94,-42.6 94,-94 0,-52 -42,-94.6 -94,-94.6 H 4433.33"
         style="fill:#4ef2f2;fill-opacity:1;fill-rule:nonzero;stroke:none"
         id="path174" /><path
         d="m 6267.33,8670.7 v -0.7 l 0.67,-1.3 c 5.33,-11.4 8.67,-24 8.67,-36.7 v -1.3 -0.7 -2 0 -2 c 0,-12.7 -3.34,-25.3 -8.67,-36.7 l -0.67,-1.3 v -0.7 c -2.66,-4.6 -5.33,-9.3 -8.66,-13.3 L 5822,7946 c -29.33,-42.7 -88,-52.7 -130.67,-23.3 -42.66,29.3 -52.66,88 -23.33,130.6 l 400,576 -400,575.4 c -29.33,42.6 -19.33,101.3 23.33,130.6 42.67,30 101.34,19.4 130.67,-23.3 l 436.67,-628 c 3.33,-4 6,-8.7 8.66,-13.3 v 0"
         style="fill:#1bcbd4;fill-opacity:1;fill-rule:evenodd;stroke:none"
         id="path176" /></g></g></svg>
