<?xml version="1.0" encoding="UTF-8" standalone="no"?>
<svg
   xmlns:dc="http://purl.org/dc/elements/1.1/"
   xmlns:cc="http://creativecommons.org/ns#"
   xmlns:rdf="http://www.w3.org/1999/02/22-rdf-syntax-ns#"
   xmlns:svg="http://www.w3.org/2000/svg"
   xmlns="http://www.w3.org/2000/svg"
   xmlns:sodipodi="http://sodipodi.sourceforge.net/DTD/sodipodi-0.dtd"
   xmlns:inkscape="http://www.inkscape.org/namespaces/inkscape"
   version="1.1"
   x="0px"
   y="0px"
   viewBox="0 0 1000 1000"
   enable-background="new 0 0 1000 1000"
   xml:space="preserve"
   id="svg21458"
   sodipodi:docname="owl.svg"
   inkscape:version="1.0 (b51213c273, 2020-08-10)"><defs
   id="defs21462" /><sodipodi:namedview
   pagecolor="#ffffff"
   bordercolor="#666666"
   borderopacity="1"
   objecttolerance="10"
   gridtolerance="10"
   guidetolerance="10"
   inkscape:pageopacity="0"
   inkscape:pageshadow="2"
   inkscape:window-width="3440"
   inkscape:window-height="1376"
   id="namedview21460"
   showgrid="false"
   inkscape:zoom="0.59331522"
   inkscape:cx="198.89048"
   inkscape:cy="875.73112"
   inkscape:window-x="0"
   inkscape:window-y="27"
   inkscape:window-maximized="1"
   inkscape:current-layer="svg21458" />
<metadata
   id="metadata21420"> Svg Vector Icons : http://www.onlinewebfonts.com/icon <rdf:RDF><cc:Work
     rdf:about=""><dc:format>image/svg+xml</dc:format><dc:type
       rdf:resource="http://purl.org/dc/dcmitype/StillImage" /></cc:Work></rdf:RDF></metadata>
<g
   id="g21426" /><g
   id="g21428" /><g
   id="g21430" /><g
   id="g21432" /><g
   id="g21434" /><g
   id="g21436" /><g
   id="g21438" /><g
   id="g21440" /><g
   id="g21442" /><g
   id="g21444" /><g
   id="g21446" /><g
   id="g21448" /><g
   id="g21450" /><g
   id="g21452" /><g
   id="g21454" />
<g
   id="g22248"><g
     id="g22234"
     style="stroke:#333333;stroke-opacity:0.99593848"><path
       d="M 883.19628,316.706 C 917.6579,272.2291 932.59542,219.18795 925.08798,177.56946 919.07491,144.2352 893.7,128.22793 891.5,126.22793 l -14.4,-12.8 -14.9,12.1 C 826,154.92793 721.3,190.1 676.4,203.7 614.9,187.1 505.1,183.9 500.2,183.9 h -0.2 -0.2 c -4.8,0 -114.7,3.2 -176.2,19.8 -44.9,-13.5 -149.5,-47.9 -185.8,-77.4 l -14.9,-11.7 -14.4,13 c -2.2,2 -21.899998,20.3 -28.099998,53.6 -3.6,19.2 -1.9,39.5 4.9,60.3 7.1,21.5 19.799998,43.7 37.899998,65.9 -10.1,7.8 -19.8,16.2 -28.999998,25.4 -54.3,54.5 -84.2,126.6 -84.2,203.4 0,76.7 29.9,148.9 84.2,203.2 C 148.5,793.7 220.6,823.6 297.4,823.6 c 23,0 56.7,-0.9 87.8,-5.2 28.1,34.5 66.5,57.3 111.9,66.3 l 3,0.6 3,-0.6 c 45.5,-9 83.8,-31.8 111.9,-66.3 31,4.3 64.8,5.2 87.8,5.2 76.7,0 148.9,-29.9 203.2,-84.2 C 960.3,685.1 990.2,613 990.2,536.2 990,459.4 937.49628,371.006 883.19628,316.706 Z"
       id="path21422-9"
       sodipodi:nodetypes="csccccscsccccccccssscccccsscc"
       style="fill:#d9b453;fill-opacity:1;stroke:#333333;stroke-width:12.4724;stroke-miterlimit:4;stroke-dasharray:none;stroke-opacity:0.995938" /><circle
       style="fill:#7ed953;fill-opacity:1;stroke:#333333;stroke-width:22.67716535;stroke-linecap:round;stroke-linejoin:round;stroke-miterlimit:4;stroke-dasharray:none;stroke-opacity:0.99593848"
       id="path22123-7-6-4"
       cx="742.15869"
       cy="497.54785"
       r="195.82082" /><circle
       style="fill:#7ed953;fill-opacity:1;stroke:#333333;stroke-width:22.67716535;stroke-linecap:round;stroke-linejoin:round;stroke-miterlimit:4;stroke-dasharray:none;stroke-opacity:0.99593848"
       id="path22123-7-6"
       cx="261.3172"
       cy="494.50876"
       r="195.82082" /><circle
       style="fill:#7ed953;fill-opacity:1;stroke:#333333;stroke-width:22.67716535;stroke-linecap:round;stroke-linejoin:round;stroke-miterlimit:4;stroke-dasharray:none;stroke-opacity:0.99593848"
       id="path22123-7"
       cx="261.53998"
       cy="506.20389"
       r="124.27955" /><circle
       style="fill:#7ed953;fill-opacity:1;stroke:#333333;stroke-width:22.67716535;stroke-linecap:round;stroke-linejoin:round;stroke-miterlimit:4;stroke-dasharray:none;stroke-opacity:0.99593848"
       id="path22123"
       cx="275.41165"
       cy="518.16663"
       r="47.579166" /><circle
       style="fill:#7ed953;fill-opacity:1;stroke:#333333;stroke-width:22.67716535;stroke-linecap:round;stroke-linejoin:round;stroke-miterlimit:4;stroke-dasharray:none;stroke-opacity:0.99593848"
       id="path22123-7-4"
       cx="736.41833"
       cy="504.7338"
       r="124.27955" /><circle
       style="fill:#7ed953;fill-opacity:1;stroke:#333333;stroke-width:22.67716535;stroke-linecap:round;stroke-linejoin:round;stroke-miterlimit:4;stroke-dasharray:none;stroke-opacity:0.99593848"
       id="path22123-5"
       cx="723.73682"
       cy="519.21375"
       r="47.579166" /><path
       style="fill:#7ed953;fill-opacity:1;stroke:#333333;stroke-width:22.6772;stroke-linecap:butt;stroke-linejoin:miter;stroke-miterlimit:4;stroke-dasharray:none;stroke-opacity:0.995938"
       d="m 123.98028,147.86434 c 0,0 -55.322234,59.27649 37.09459,160.62581 92.41682,101.34932 340.92359,291.58537 340.92359,291.58537 0,0 261.7592,-159.69157 342.20566,-284.26485 39.74853,-61.55156 73.89286,-126.40215 35.95757,-160.44682 -14.37914,29.10161 -139.6839,63.30612 -205.36781,74.798 L 501.77821,459.07619 338.13833,239.09333 C 319.28604,232.88006 146.75594,182.53974 123.98028,147.86434 Z"
       id="path22170"
       sodipodi:nodetypes="cscsccccc" /><path
       style="fill:#7ed953;fill-opacity:1;stroke:#333333;stroke-width:22.67716535;stroke-linecap:butt;stroke-linejoin:miter;stroke-opacity:0.99593848;stroke-miterlimit:4;stroke-dasharray:none"
       d="m 418.15046,638.53681 c 0,0 57.95648,111.05053 81.09289,110.34448 25.78397,-0.78685 86.98095,-111.18658 86.98095,-111.18658 l -39.10327,-52.14998 c 0,0 -28.74133,29.13308 -46.97879,28.51441 -18.23746,-0.61868 -44.59268,-31.3892 -44.59268,-31.3892 z"
       id="path22202"
       sodipodi:nodetypes="cscczcc" /><path
       style="fill:none;stroke:#333333;stroke-width:22.67716535;stroke-linecap:butt;stroke-linejoin:miter;stroke-miterlimit:4;stroke-dasharray:none;stroke-opacity:0.99593848"
       d="M 501.99846,610.77656 500.1,755.72111"
       id="path22204"
       sodipodi:nodetypes="cc" /><path
       style="fill:none;stroke:#333333;stroke-width:22.67716535;stroke-linecap:butt;stroke-linejoin:miter;stroke-opacity:0.99593848;stroke-miterlimit:4;stroke-dasharray:none"
       d="M 365.09563,769.13565 C 365.33989,840.16669 440.73374,885.65939 500.1,885.3 558.62615,884.9457 636.68802,839.67942 631.79764,769.17654"
       id="path22221"
       sodipodi:nodetypes="cac" /></g></g></svg>
