<?xml version="1.0" encoding="UTF-8" standalone="no"?>
<svg
   version="1.1"
   id="svg103"
   sodipodi:docname="svg.svg"
   viewBox="0 0 840.93702 802.08307"
   inkscape:version="1.3.2 (091e20ef0f, 2023-11-25)"
   xmlns:inkscape="http://www.inkscape.org/namespaces/inkscape"
   xmlns:sodipodi="http://sodipodi.sourceforge.net/DTD/sodipodi-0.dtd"
   xmlns="http://www.w3.org/2000/svg"
   xmlns:svg="http://www.w3.org/2000/svg">
  <sodipodi:namedview
     id="namedview103"
     pagecolor="#505050"
     bordercolor="#ffffff"
     borderopacity="1"
     inkscape:showpageshadow="0"
     inkscape:pageopacity="0"
     inkscape:pagecheckerboard="1"
     inkscape:deskcolor="#d1d1d1"
     inkscape:zoom="1.1064453"
     inkscape:cx="421.62048"
     inkscape:cy="412.58252"
     inkscape:window-width="3440"
     inkscape:window-height="1363"
     inkscape:window-x="0"
     inkscape:window-y="40"
     inkscape:window-maximized="1"
     inkscape:current-layer="svg103" />
  <path
     fill="#5e0408"
     d="m 133.01922,226.71481 c 2.418,-9.036 4.487,-18.048 7.596,-26.892 23.695,-67.403 71.163,-124.252003 132.901,-160.103003 64.629,-37.5299999 148.14,-50.0078 220.475,-30.7779999 78.424,20.8489999 144.939,69.7559999 185.64,140.3530029 10.793,18.721 18.887,38.719 25.491,59.252 2.069,6.432 3.323,13.225 5.544,19.554 5.393,3.858 11.084,7.638 16.066,12.021 18.626,16.385 35.38,39.91 39.672,64.732 3.647,21.098 -4.235,38.879 -16.311,55.765 -33.57,46.943 -88.768,74.362 -142.505,91.48 -12.448,3.965 -25.061,7.012 -37.675,10.339 -0.104,-1.98 0.235,-3.974 0.469,-5.937 6.513,-1.392 12.944,-3.41 19.366,-5.18 20.005,-5.514 39.534,-12.094 58.476,-20.623 20.551,-9.254 40.865,-19.775 58.641,-33.779 8.875,-6.991 16.98,-14.943 24.769,-23.103 12.174,-12.753 22.028,-25.657 28.299,-42.247 2.073,-6.413 2.574,-14.1 1.784,-20.768 -3.817,-32.192 -26.719,-56.936 -50.842,-76.384 -0.017,4.913 -0.359,10.063 0.581,14.9 -7.286,-20.543 -11.341,-42.121 -20.144,-62.124 -13.075,-34.871 -35.522,-67.104 -61.285,-93.826003 -6.54,-6.783 -13.749,-13.018 -20.77,-19.299 -20.75,-19.05 -46.7,-33.287 -72.385,-44.464 -9.552,-4.157 -19.201,-8.229 -29.269,-10.972 -20.392,-4.454 -40.146,-10.0239999 -61.037,-12.1399999 -12.157,-1.232 -24.191,-1.081 -36.371,-0.549 -50.517,2.21 -101.447,17.6829999 -144.1,45.0399999 -52.148,33.448 -92.147,80.649003 -115.461,138.102003 -3.678,9.063 -6.725,18.393 -9.38,27.803 -1.51,5.349 -2.213,10.895 -4.534,15.991 l 1.416,0.394 c 3.22,-2.442 7.389,-5.683 11.126,-7.205 l 1.464,1.792 -14.767,13.318 c -11.599,16.949 -20.291,34.425 -16.348,55.652 1.29,6.945 3.077,12.353 6.302,18.644 -2.87,0.924 -5.536,2.285 -8.243,3.596 l -2.827,-23.787 c -0.938,7.87 -0.956,16.093 0.712,23.874 -6.048,4.391 -14.523,6.289 -21.152997,9.967 12.761997,33.948 37.694997,59.094 67.462997,78.803 7.075,4.684 15.14,8.297 22.012,13.136 1.123,0.904 2.122,1.803 3.505,2.285 l 0.912,1.506 -0.45,0.864 c -1.796,-0.23 -3.087,-1.504 -4.729,-1.888 -0.452,-0.106 -1.705,0.227 -2.224,0.296 6.601,4.118 13.478,6.769 20.593,9.83 6.018,2.589 12.449,5.656 18.805,7.239 l 13.203,4.977 -2.877,0.604 c -6.058,1.508 -10.939,-1.846 -16.826,-2.532 l -0.596,-0.066 c -6.479,-1.937 -12.79,-4.961 -19.009,-7.607 -28.687,-12.205 -57.114,-29.006 -79.769,-50.582 -10.209,-9.724 -19.752997,-20.983 -26.444997,-33.453 -8.763,-16.329 -13.888,-33.848 -10.246,-52.432 5.382,-27.456 24.431997,-52.66 47.145997,-68.497 z"
     id="path1" />
  <defs
     id="defs2">
    <linearGradient
       id="gradient_0"
       gradientUnits="userSpaceOnUse"
       x1="282.47772"
       y1="431.27921"
       x2="172.76216"
       y2="424.72681"
       gradientTransform="translate(-90.634777,-99.146193)">
      <stop
         offset="0"
         stop-color="#F8D6D7"
         id="stop1" />
      <stop
         offset="1"
         stop-color="white"
         id="stop2" />
    </linearGradient>
  </defs>
  <path
     fill="url(#gradient_0)"
     d="m 138.13622,233.27281 c 3.22,-2.442 7.389,-5.683 11.126,-7.205 l 1.464,1.792 -14.767,13.318 c -11.599,16.949 -20.291,34.425 -16.348,55.652 1.29,6.945 3.077,12.353 6.302,18.644 -2.87,0.924 -5.536,2.285 -8.243,3.596 l -2.827,-23.787 c -0.938,7.87 -0.956,16.093 0.712,23.874 -6.048,4.391 -14.523,6.289 -21.152997,9.967 12.761997,33.948 37.694997,59.094 67.462997,78.803 7.075,4.684 15.14,8.297 22.012,13.136 1.123,0.904 2.122,1.803 3.505,2.285 l 0.912,1.506 -0.45,0.864 c -1.796,-0.23 -3.087,-1.504 -4.729,-1.888 -0.452,-0.106 -1.705,0.227 -2.224,0.296 -6.152,-2.066 -11.83,-5.791 -17.383,-9.108 -23.347,-13.944 -46.677,-31.199 -62.629,-53.532 -12.530997,-17.544 -21.421997,-38.136 -17.558997,-60.132 3.964,-22.572 18.623997,-43.718 36.002997,-58.365 3.573,-3.011 7.629,-5.63 11.448,-8.325 2.459,-1.511 3.061,-1.673 5.949,-1.785 z"
     id="path2"
     style="fill:url(#gradient_0)" />
  <path
     fill="#e84130"
     d="m 138.13622,233.27281 c 3.22,-2.442 7.389,-5.683 11.126,-7.205 l 1.464,1.792 -14.767,13.318 c -11.599,16.949 -20.291,34.425 -16.348,55.652 1.29,6.945 3.077,12.353 6.302,18.644 -2.87,0.924 -5.536,2.285 -8.243,3.596 l -2.827,-23.787 c -0.938,7.87 -0.956,16.093 0.712,23.874 -6.048,4.391 -14.523,6.289 -21.152997,9.967 l -0.663,-3.183 c -5.091,-25.812 5.126,-48.34 20.935997,-68.276 3.796,-4.786 9.094,-9.386 12.34,-14.412 l 0.337,-0.537 c 0.251,-0.756 0.464,-1.414 0.903,-2.087 l 0.36,-0.52 c 0.901,-1.55 2.689,-2.354 3.177,-4.057 l -1.021,-1.388 c 2.459,-1.511 3.061,-1.673 5.949,-1.785 z"
     id="path3" />
  <path
     fill="#fefefd"
     d="m 136.72022,232.87881 1.416,0.394 -3.454,3.145 c -2.309,2.325 -4.458,4.659 -7.33,6.298 0.251,-0.756 0.464,-1.414 0.903,-2.087 l 0.36,-0.52 c 0.901,-1.55 2.689,-2.354 3.177,-4.057 l -1.021,-1.388 c 2.459,-1.511 3.061,-1.673 5.949,-1.785 z"
     id="path4" />
  <path
     fill="#e84130"
     d="m 136.72022,232.87881 c 2.321,-5.096 3.024,-10.642 4.534,-15.991 2.655,-9.41 5.702,-18.74 9.38,-27.803 23.314,-57.453 63.313,-104.654003 115.461,-138.102003 42.653,-27.357 93.583,-42.8299999 144.1,-45.0399999 12.18,-0.532 24.214,-0.683 36.371,0.549 20.891,2.116 40.645,7.6859999 61.037,12.1399999 10.068,2.743 19.717,6.815 29.269,10.972 25.685,11.177 51.635,25.414 72.385,44.464 7.021,6.281 14.23,12.516 20.77,19.299 25.763,26.722003 48.21,58.955003 61.285,93.826003 8.803,20.003 12.858,41.581 20.144,62.124 -0.94,-4.837 -0.598,-9.987 -0.581,-14.9 24.123,19.448 47.025,44.192 50.842,76.384 0.79,6.668 0.289,14.355 -1.784,20.768 l -50.519,-23.083 -0.139,-0.546 -0.454,-0.001 c -4.353,-0.398 -10.808,-5.029 -14.893,-6.999 -8.003,-3.86 -16.149,-7.374 -24.068,-11.406 -6.715,-3.419 -13.191,-7.298 -19.832,-10.857 -4.104,-2.198 -9.841,-4.15 -13.04,-7.442 l -0.534,0.3 c -31.769,-13.829 -62.885,-28.35 -96.6,-37.124 -4.577,-1.191 -9.046,-2.777 -13.696,-3.668 -1.248,4.353 -2.088,8.859 -3.727,13.09 -6.716,17.332 -20.48,36.284 -37.033,45.315 -10.043,5.479 -22.109,9.278 -33.572,9.782 -21.255,0.993 -39.617,-2.817 -57.262,-15.189 -20.076,-14.076 -32.688,-36.876 -36.863,-60.833 l -0.253,-0.116 c -8.362,0.257 -16.631,1.7 -24.854,3.134 -26.675,4.65 -53.415,12.692 -78.479,22.895 -6.448,2.625 -13.262,4.869 -19.41,8.162 l -0.355,-0.092 c -0.701,-2.944 -1.916,-5.513 -3.268,-8.208 -6.982,-13.915 -17.132,-24.069 -31.28,-30.579 -3.978,-1.831 -8.305,-3.097 -12.457,-4.484 -13.946,-1.614 -25.144,5.118 -35.759,13.544 l -0.86,0.696 -1.464,-1.792 c -3.737,1.522 -7.906,4.763 -11.126,7.205 z"
     id="path6" />
  <path
     fill="#fefefd"
     d="m 636.98822,271.23481 c 7.167,-9.752 16.868,-18.363 29.257,-20.212 6.66,-0.994 13.764,1.653 18.944,5.755 12.899,10.214 21.938,27.224 23.655,43.57 l 0.431,7.592 -0.454,-0.001 c -4.353,-0.398 -10.808,-5.029 -14.893,-6.999 -8.003,-3.86 -16.149,-7.374 -24.068,-11.406 -6.715,-3.419 -13.191,-7.298 -19.832,-10.857 -4.104,-2.198 -9.841,-4.15 -13.04,-7.442 z"
     id="path7" />
  <path
     fill="#fefefd"
     d="m 609.25722,74.067807 c 7.021,6.281 14.23,12.516 20.77,19.299 25.763,26.722003 48.21,58.955003 61.285,93.826003 -3.918,3.485 -7.267,7.061 -11.758,9.845 -11.278,6.99 -24.258,7.933 -36.986,4.927 -18.52,-4.374 -34.959,-18.122 -44.816,-34.124 -10.62,-17.242 -16.11,-39.576 -11.194,-59.6 3.194,-13.013003 10.92,-27.085003 22.699,-34.173003 z"
     id="path8" />
  <path
     fill="#fefefd"
     d="m 136.72022,232.87881 c 2.321,-5.096 3.024,-10.642 4.534,-15.991 2.655,-9.41 5.702,-18.74 9.38,-27.803 23.314,-57.453 63.313,-104.654003 115.461,-138.102003 42.653,-27.357 93.583,-42.8299999 144.1,-45.0399999 12.18,-0.532 24.214,-0.683 36.371,0.549 20.891,2.116 40.645,7.6859999 61.037,12.1399999 -4.876,17.284 -13.266,30.889 -29.377,39.987 -16.135,9.111 -35.742,11.149 -53.519,6.15 -18.821,-5.292 -35.352,-18.054 -44.77,-35.242 l -0.354,-0.657 c -23.572,-0.024 -48.785,4.48 -69.821,15.347 11.256,12.237 16.36,26.158 15.551,42.803 -1.042,21.440003 -13.934,42.077003 -29.632,56.110003 -12.933,11.561 -28.44,19.112 -45.316,22.784 -12.889,2.804 -29.419,1.26 -40.777,-5.81 -4.557,-2.837 -8.144,-6.351 -11.886,-10.162 l -0.264,0.956 c -1.331,4.641 -3.668,9.026 -5.044,13.706 -4.801,16.336 -5.082,32.172 -5.049,49.016 -13.946,-1.614 -25.144,5.118 -35.759,13.544 l -0.86,0.696 -1.464,-1.792 c -3.737,1.522 -7.906,4.763 -11.126,7.205 z"
     id="path9" />
  <path
     fill="#bf2527"
     d="m 305.65922,40.274807 c 14.823,-5.312 29.395,-11.431 44.69,-15.291 8.524,-2.151 17.262,-3.189 25.916,-4.653 l 3.318,8.539 c -23.572,-0.024 -48.785,4.48 -69.821,15.347 z"
     id="path10" />
  <path
     fill="#a41a1f"
     d="m 149.26222,226.06781 c 1.577,-1.861 2.117,-4.757 2.882,-7.062 1.77,-5.336 3.27,-10.815 5.18,-16.093 2.608,-7.209 5.423,-14.593 8.61,-21.559 7.187,-15.707 16,-30.41 25.97,-44.49 1.408,4.906 3.149,8.731 5.798,13.078 l -0.264,0.956 c -1.331,4.641 -3.668,9.026 -5.044,13.706 -4.801,16.336 -5.082,32.172 -5.049,49.016 -13.946,-1.614 -25.144,5.118 -35.759,13.544 l -0.86,0.696 z"
     id="path11" />
  <path
     fill="#fefefd"
     d="m 357.44822,222.79181 c -3.265,-24.04 0.181,-47.66 15.106,-67.475 13.467,-17.879 34.3,-29.989 56.561,-32.775 23.676,-2.962 47.751,4.44 66.339,19.324 18.284,14.64 29.872,37.448 32.242,60.676 0.954,9.34 0.53,19.034 -1.538,28.201 -1.248,4.353 -2.088,8.859 -3.727,13.09 -6.716,17.332 -20.48,36.284 -37.033,45.315 -10.043,5.479 -22.109,9.278 -33.572,9.782 -21.255,0.993 -39.617,-2.817 -57.262,-15.189 -20.076,-14.076 -32.688,-36.876 -36.863,-60.833 z"
     id="path12" />
  <path
     fill="#a89d99"
     d="m 357.70122,222.90781 c 12.64,-1.361 25.361,-2.933 38.064,-3.574 30.18,-1.522 60.686,-0.182 90.6,4.055 7.813,1.107 15.735,2.395 23.469,3.949 5.461,1.097 10.813,2.537 16.324,3.405 -1.248,4.353 -2.088,8.859 -3.727,13.09 -6.716,17.332 -20.48,36.284 -37.033,45.315 -10.043,5.479 -22.109,9.278 -33.572,9.782 -21.255,0.993 -39.617,-2.817 -57.262,-15.189 -20.076,-14.076 -32.688,-36.876 -36.863,-60.833 z"
     id="path13" />
  <path
     d="m 150.72622,227.85981 0.86,-0.696 c 10.615,-8.426 21.813,-15.158 35.759,-13.544 4.152,1.387 8.479,2.653 12.457,4.484 14.148,6.51 24.298,16.664 31.28,30.579 1.352,2.695 2.567,5.264 3.268,8.208 l 0.355,0.092 c 6.148,-3.293 12.962,-5.537 19.41,-8.162 25.064,-10.203 51.804,-18.245 78.479,-22.895 8.223,-1.434 16.492,-2.877 24.854,-3.134 l 0.253,0.116 c 4.175,23.957 16.787,46.757 36.863,60.833 17.645,12.372 36.007,16.182 57.262,15.189 11.463,-0.504 23.529,-4.303 33.572,-9.782 16.553,-9.031 30.317,-27.983 37.033,-45.315 1.639,-4.231 2.479,-8.737 3.727,-13.09 4.65,0.891 9.119,2.477 13.696,3.668 33.715,8.774 64.831,23.295 96.6,37.124 l 0.534,-0.3 c 3.199,3.292 8.936,5.244 13.04,7.442 6.641,3.559 13.117,7.438 19.832,10.857 7.919,4.032 16.065,7.546 24.068,11.406 4.085,1.97 10.54,6.601 14.893,6.999 l 0.454,0.001 0.139,0.546 50.519,23.083 c -6.271,16.59 -16.125,29.494 -28.299,42.247 -7.789,8.16 -15.894,16.112 -24.769,23.103 -17.776,14.004 -38.09,24.525 -58.641,33.779 -18.942,8.529 -38.471,15.109 -58.476,20.623 -6.422,1.77 -12.853,3.788 -19.366,5.18 -0.234,1.963 -0.573,3.957 -0.469,5.937 -1.011,9.338 -2.159,18.512 -2.423,27.916 -0.451,16.069 0.997,32.031 2.848,47.972 0.678,5.836 0.964,13.424 3.231,18.818 1.075,2.558 3.084,4.908 4.733,7.126 2.404,3.235 4.801,6.499 7.31,9.654 9.958,12.525 25.152,22.585 41.253,24.31 7.631,0.818 16.893,-2.755 22.814,-7.518 7.576,-6.094 13.044,-15.525 14.124,-25.251 1.64,-14.764 -3.6,-29.38 -5.61,-43.847 -2.24,-16.112 1.191,-32.501 13.926,-43.464 5.527,-4.758 12.053,-7.45 19.246,-8.395 l 0.918,-0.127 c 4.305,-0.55 8.883,-0.484 13.102,0.544 l 0.912,0.215 c 9.167,2.228 17.887,8.634 22.637,16.811 2.905,4.999 4.921,11.609 3.382,17.366 -0.733,2.742 -1.771,4.504 -3.726,6.536 l -0.658,0.14 c -0.7,-2.544 -0.569,-5.127 -1.179,-7.665 -1.322,-5.5 -5.993,-11.375 -10.857,-14.207 -4.148,-2.416 -8.781,-3.286 -13.45,-1.996 -5.067,1.4 -8.973,4.818 -11.419,9.406 -4.172,7.827 -1.954,18.027 0.645,26.028 2.616,8.053 6.444,15.741 9.264,23.749 9.171,26.038 8.248,50.768 -4.26,75.493 -7.427,14.682 -17.852,29.256 -30.426,39.962 -4.091,3.483 -8.839,6.42 -13.248,9.498 5.906,1.536 11.775,3.137 17.863,3.785 20.004,2.128 42.737,-2.732 60.108,-12.967 12.856,-7.575 23.019,-18.938 26.703,-33.636 5.718,-22.811 -7.131,-46.73 6.668,-68.021 3.414,-5.267 7.829,-9.662 13.211,-12.91 3.409,-2.058 6.967,-3.485 10.81,-4.487 l 0.944,-0.252 c 10.934,-2.809 23.636,-0.582 33.274,5.17 8.609,5.138 15.118,13.28 17.535,23.035 1.628,6.572 0.869,13.736 -2.643,19.556 -2.675,4.433 -7.113,7.537 -11.306,10.407 3.904,-6.818 6.648,-13.304 4.497,-21.248 -1.307,-4.829 -4.674,-9.161 -9.129,-11.457 -5.174,-2.666 -12.073,-3.385 -17.612,-1.363 -5.754,2.101 -10.952,7.346 -13.481,12.921 -1.196,2.635 -2.56,6.122 -2.508,9.059 0.103,5.879 2.954,12.224 4.553,17.846 1.484,5.221 2.563,10.662 3.221,16.048 5.409,44.254 -20.44,87.797 -54.403,114.086 l -16.275,10.552 c -31.108,17.308 -65.43,24.442 -100.855,23.135 -10.338,-0.382 -19.778,-0.911 -29.773,-3.781 -2.45,2.589 -4.914,5.276 -7.776,7.422 -7.386,5.538 -17.041,8.304 -26.047,9.62 -10.379,1.517 -20.29,0.761 -30.606,-0.759 -27.817,-4.098 -52.58,-15.224 -75.004,-31.948 -6.301,7.153 -12.992,13.617 -20.494,19.509 -22.159,17.401 -54.141,34.444 -83.182,30.737 -6.145,-0.784 -11.533,-2.101 -17.294,-4.44 -5.256,-2.133 -9.695,-5.229 -14.073,-8.789 -13.299,-10.813 -20.248,-23.313 -26.804,-38.809 -11.915,4.392 -23.462,9.024 -35.927,11.699 -39.262,8.423 -82.594,5.43 -119.368,-11.235 -9.235,-4.185 -17.856,-9.489 -26.357,-14.98 -5.417,-4.492 -11.062,-8.53 -16.133997,-13.468 -26.75,-26.04 -41.578,-60.691 -42.512,-97.945 -0.189,-7.525 -0.14,-15.05 -0.08,-22.576 0.048,-6.025 0.422,-12.192 -1.085,-18.083 -1.426,-5.578 -4.906,-10.854 -9.932,-13.783 -5.037,-2.936 -10.539,-4.203 -16.255,-2.543 -5.46,1.585 -9.735,5.25 -12.327,10.27 -4.1030001,7.949 -1.512,15.969 1.065,23.901 l -3.962,-2.341 c -4.9906001,-3.517 -8.6843001,-9.078 -9.76350005,-15.095 -1.50570005,-8.395 0.52099995,-17.814 5.53959995,-24.75 6.3239001,-8.74 16.1529001,-14.101 26.7099001,-15.644 12.784,-1.867 25.89,1.26 36.239,9.085 8.258,6.243 15.481,16.711 18.486,26.641 1.544,5.101 2.04,10.131 2.766,15.373 2.625,18.977 8.939,38.831 24.901997,50.778 16.439,12.304 36.496,11.833 55.856,9.121 -2.766,-2.808 -5.73,-5.598 -8.18,-8.685 -8,-10.084 -13.126,-22.16 -15.669,-34.724 -3.421,-16.894 -1.159,-33.965 4.24,-50.195 2.135,-6.418 4.753,-12.732 7.577,-18.876 5.409,-11.769 15.346,-28.913 11.276,-42.337 l -0.258,-0.787 c -0.635,-1.991 -1.318,-3.82 -2.597,-5.5 -2.938,-3.859 -7.045,-6.167 -11.859,-6.724 -5.328,-0.616 -10.192,1.014 -14.36,4.34 -5.871,4.686 -7.856,11.356 -8.574,18.538 -2.225,-5.289 -4.078,-11.154 -2.985,-16.943 l 0.144,-0.711 0.803,-3.25 c 2.856,-7.896 10.12,-13.692 17.422,-17.305 8.605,-4.258 20.413,-4.715 29.461,-1.541 9.511,3.337 16.598,9.406 21.111,18.457 6.211,12.459 6.522,26.53 3.645,39.947 -3.49,16.28 -12.73,35.504 -4.813,51.873 3.192,6.6 8.572,12.324 15.633,14.702 l 0.846,0.273 c 2.058,0.685 3.772,0.877 5.931,0.893 13.427,0.103 26.082,-7.863 35.304,-17.151 8.012,-8.068 15.509,-17.849 19.898,-28.389 2.664,-6.397 3.83,-13.57 4.963,-20.373 3.625,-21.76 3.931,-43.404 3.765,-65.391 -18.011,-3.285 -36.066,-7.57 -53.412,-13.454 -5.629,-1.909 -11.779,-3.836 -17.104,-6.467 l 0.596,0.066 c 5.887,0.686 10.768,4.04 16.826,2.532 l 2.877,-0.604 -13.203,-4.977 c -6.356,-1.583 -12.787,-4.65 -18.805,-7.239 -7.115,-3.061 -13.992,-5.712 -20.593,-9.83 0.519,-0.069 1.772,-0.402 2.224,-0.296 1.642,0.384 2.933,1.658 4.729,1.888 l 0.45,-0.864 -0.912,-1.506 c -1.383,-0.482 -2.382,-1.381 -3.505,-2.285 -6.872,-4.839 -14.937,-8.452 -22.012,-13.136 -29.768,-19.709 -54.701,-44.855 -67.462997,-78.803 6.629997,-3.678 15.104997,-5.576 21.152997,-9.967 -1.668,-7.781 -1.65,-16.004 -0.712,-23.874 l 2.827,23.787 c 2.707,-1.311 5.373,-2.672 8.243,-3.596 -3.225,-6.291 -5.012,-11.699 -6.302,-18.644 -3.943,-21.227 4.749,-38.703 16.348,-55.652 z"
     id="path14" />
  <path
     fill="#e84130"
     d="m 267.07522,453.10581 c 1.496,0.702 2.383,0.915 4.04,1.122 l 2.789,0.506 c 3.125,0.457 6.923,1.031 9.911,2.054 -0.245,1.097 -0.339,1.641 -1.2,2.397 l -22.89,-5.827 c 2.544,-0.383 4.807,-0.236 7.35,-0.252 z"
     id="path15" />
  <path
     fill="#f0cc93"
     d="m 292.70322,382.09681 c 1.842,3.209 1.67,5.61 1.659,9.22 -0.006,1.604 -0.313,3.191 0.571,4.604 l -0.352,0.774 c -3.356,0.37 -6.817,2.045 -9.882,3.435 -0.572,-3.626 -0.849,-7.079 -0.895,-10.749 2.813,-2.822 5.563,-5.104 8.899,-7.284 z"
     id="path16" />
  <path
     fill="#bf2527"
     d="m 16.444223,560.18881 0.452,-0.068 c 3.299,-0.557 4.579,-3.071 8.344,-2.642 l -0.62,0.625 c 0.17,1.043 0.035,0.512 0.429,1.586 l 0.703,0.209 c 1.038,0.334 1.367,0.472 1.863,1.455 -1.313,0.051 -1.771,0.077 -3,0.5 l -1.25,0.25 c -1.071,0.204 -1.068,0.035 -1.804,0.906 l -0.078,0.542 c -6.554,3.987 -12.0720001,9.01 -13.9667001,16.758 -1.19,4.866 0.0527,8.901 1.2748,13.52 -1.2903,-2.311 -2.4829,-4.535 -3.2443,-7.09 l 0.4555,-0.902 c -0.3003,-2.801 -0.4811,-6.033 -0.0595,-8.824 0.9946,-6.581 5.1942001,-12.941 10.5012001,-16.825 z"
     id="path17" />
  <path
     fill="#e84130"
     d="m 16.444223,560.18881 c 1.69,-1.485 3.44,-2.568 5.385,-3.674 1.64,0.128 2.97,0 4.585,-0.297 l -0.133,0.802 c -0.201,1.152 -0.103,0.697 -0.429,1.834 l 0.763,0.469 0.702,-0.305 -0.289,-0.664 c 1.698,-1.136 5.614,-0.448 7.57,-0.06 l 0.767,0.158 0.747,0.143 c 5.556,1.093 11.409,3.365 15.029,7.929 l 0.324,0.685 1.386,2.327 c 2.301,3.561 3.245,6.663 4.276,10.709 2.256,8.86 0.725,18.402 0.731,27.416 l -0.67,2.95 c -0.484,-3.295 -0.161,-6.604 -0.091,-9.913 0.142,-6.769 0.147,-14.67 -1.969,-21.134 l -0.244,-0.71 c -1.77,-5.353 -5.489,-10.438 -10.577,-13.102 -7.763,-4.064 -14.491,-4.744 -22.824,-2.2 l 0.078,-0.542 c 0.736,-0.871 0.733,-0.702 1.804,-0.906 l 1.25,-0.25 c 1.229,-0.423 1.687,-0.449 3,-0.5 -0.496,-0.983 -0.825,-1.121 -1.863,-1.455 l -0.703,-0.209 c -0.394,-1.074 -0.259,-0.543 -0.429,-1.586 l 0.62,-0.625 c -3.765,-0.429 -5.045,2.085 -8.344,2.642 z"
     id="path18" />
  <path
     fill="#df8a89"
     d="m 576.29622,569.58781 c 8.809,11.359 19.099,21.639 32.225,27.862 3.623,1.717 8.309,2.297 11.672,4.206 l -0.243,0.976 0.306,0.642 -0.885,0.443 -0.756,-0.608 -0.722,2.095 c -15.054,-2.092 -27.831,-13.348 -38.3,-23.431 z"
     id="path19" />
  <path
     fill="#df8a89"
     d="m 221.26222,599.22881 c 1.838,-0.62 4.163,-0.559 6.103,-0.883 16.331,-2.728 31.383,-16.344 40.816,-29.328 -3.515,8.828 -7.645,17.189 -13.939,24.388 -8.531,5.343 -15.647,10.189 -25.826,11.794 -2.506,0.395 -4.72,0.787 -7.234,0.238 z"
     id="path20" />
  <path
     fill="#df8a89"
     d="m 577.27822,640.58481 c 7.237,17.385 14.228,36.27 18.021,54.769 0.491,2.396 0.611,4.854 1.097,7.25 0.723,3.574 2.396,8.158 1.835,11.779 l -3.491,0.684 c -0.76,0.205 -1.814,-0.311 -2.595,-0.505 l -0.532,-0.128 c 0.535,-7.142 -1.245,-14.118 -2.756,-21.08 -1.769,-8.154 -3.551,-16.305 -5.326,-24.458 l -7.437,-26.226 z"
     id="path21" />
  <path
     fill="#df8a89"
     d="m 664.45222,534.96081 c -2.466,-8.977 -3.986,-19.089 -3.015,-28.375 1.046,-10.01 5.06,-19.223 13.032,-25.6 7.804,-6.243 17.858,-9.05 27.734,-7.785 8.659,1.109 16.221,5.613 21.504,12.477 l -0.576,-0.217 c -2.128,-1.022 -3.886,-3.261 -5.975,-4.552 -6.616,-4.088 -17.537,-7.104 -25.206,-4.899 -9.098,2.616 -16.707,7.751 -21.248,16.233 -3.595,6.714 -4.74,13.072 -5.116,20.618 -0.321,5.771 -0.304,12.325 1.127,17.953 -0.536,1.648 -1.138,2.801 -2.261,4.147 z"
     id="path22" />
  <defs
     id="defs23">
    <linearGradient
       id="gradient_1"
       gradientUnits="userSpaceOnUse"
       x1="327.61761"
       y1="652.21295"
       x2="256.35593"
       y2="628.896"
       gradientTransform="translate(-90.634777,-99.146193)">
      <stop
         offset="0"
         stop-color="#EEA7A6"
         id="stop22" />
      <stop
         offset="1"
         stop-color="#FED3D0"
         id="stop23" />
    </linearGradient>
  </defs>
  <path
     fill="url(#gradient_1)"
     d="m 136.07022,486.11681 c 4.238,-7.416 11.018,-11.77 19.121,-14.016 2.484,-0.688 4.65,-0.962 7.208,-1.053 9.618,-0.341 18.882,2.346 26.061,8.984 8.196,7.58 11.443,18.698 11.756,29.564 0.638,22.138 -12.567,42.537 -7.983,64.758 l 0.155,0.772 c 1.621,7.407 7.704,16.541 14.319,20.46 4.142,2.455 9.77,3.713 14.555,3.643 l -0.08,6.209 c -2.349,-0.187 -4.871,-0.265 -7.164,-0.806 -9.259,-2.187 -16.647,-7.811 -21.672,-15.858 -12.435,-19.914 -3.377,-43.627 1.281,-64.431 l 0.403,-1.319 c 3.265,-11.127 2.684,-24.666 -3.204,-34.907 -3.927,-6.831 -10.601,-12.195 -18.193,-14.278 l -0.884,-0.235 c -6.757,-1.873 -13.722,-0.577 -20.293,1.353 -3.844,1.571 -7.562,3.758 -10.611,6.609 -1.552,1.452 -2.856,3.667 -4.775,4.551 z"
     id="path23"
     style="fill:url(#gradient_1)" />
  <defs
     id="defs25">
    <linearGradient
       id="gradient_2"
       gradientUnits="userSpaceOnUse"
       x1="230.59901"
       y1="713.12598"
       x2="304.39462"
       y2="643.97119"
       gradientTransform="translate(-90.634777,-99.146193)">
      <stop
         offset="0"
         stop-color="#F2A7A5"
         id="stop24" />
      <stop
         offset="1"
         stop-color="#FED3CD"
         id="stop25" />
    </linearGradient>
  </defs>
  <path
     fill="url(#gradient_2)"
     d="m 169.80422,488.92681 c 1.478,0.278 2.358,1.932 3.19,3.171 4.238,6.307 4.207,17.477 2.674,24.755 -2.611,12.402 -7.351,23.343 -11.656,35.167 -2.768,7.604 -5.438,15.518 -6.449,23.581 -2.493,19.872 4.677,39.197 15.409,55.588 l 14.287,18.389 c -3.799,0.55 -7.933,2.396 -11.562,3.665 -4.37,-4.337 -8.516,-8.709 -12.132,-13.711 -13.972,-19.325 -17.311,-44.438 -11.838,-67.339 2.437,-10.199 6.498,-19.782 10.602,-29.392 4.303,-10.072 9.905,-19.983 11.641,-30.937 1.258,-7.938 0.758,-16.245 -4.166,-22.937 z"
     id="path25"
     style="fill:url(#gradient_2)" />
  <path
     fill="#df8a89"
     d="m 59.443223,639.51281 2.875,0.906 3.762,0.883 c 4.155,19.581 15.522,38.144 28.601,53.087 4.695,5.364 9.950997,10.41 14.933997,15.511 l 0.766,-0.124 c 1.175,1.11 3.667,4.215 4.912,4.807 0.337,0.16 0.767,0.033 1.103,0.194 0.916,0.441 2.343,2.407 3.177,3.168 0.621,0.568 1.14,0.467 1.817,0.834 l 2.627,2.221 c -0.836,1.292 -1.649,2.176 -1.596,3.783 0.067,2.049 -1.673,4.894 -2.306,6.895 -1.128,-0.015 -2.132,0.062 -3.203,-0.329 l -1.22,0.659 c -8.183,-4.137 -15.941997,-12.416 -22.352997,-18.961 -14.485,-14.787 -25.203,-33.762 -30.606,-53.693 -0.802,-2.959 -2.206,-6.619 -2.144,-9.67 0.028,-1.437 -0.03,-2.728 -0.542,-4.087 l -0.293,-0.743 c 0.519,-1.619 -0.05,-3.672 -0.311,-5.341 z"
     id="path26" />
  <path
     fill="#df8a89"
     d="m 636.26222,663.05581 c 2.161,-1.448 4.907,-2.168 7.323,-3.132 4.062,-1.621 8.169,-3.545 11.844,-5.93 23.285,-15.114 38.597,-44.299 40.327,-71.818 0.701,-11.141 -0.376,-22.361 -2.733,-33.254 -3.597,-16.627 -13.083,-31.726 -9.12,-49.318 1.221,-5.421 5.487,-10.321 10.169,-13.122 1.49,-0.892 4.116,-2.39 5.772,-1.944 l -0.459,0.308 c -1.453,0.919 -3.055,1.54 -4.475,2.525 -4.177,2.896 -6.975,7.565 -8.169,12.432 -3.735,15.219 5.056,30.917 10.088,44.801 7.427,20.492 9.665,43.292 2.348,64.133 -2.816,8.02 -7.021,15.683 -11.739,22.721 -9.575,14.281 -19.956,25.639 -34.72,34.769 l -4.6,2.518 z"
     id="path27" />
  <path
     fill="#a41a1f"
     d="m 212.40722,636.57681 c -4.175,-3.817 -8.559,-6.937 -12.261,-11.351 -3.215,-3.834 -5.187,-8.038 -7.423,-12.472 -1.079,-2.139 -2.558,-4.588 -3.284,-6.862 -0.501,-1.566 -1.384,-2.976 -1.888,-4.546 -2.196,-6.851 -4.116,-13.184 -5.615,-20.242 -0.21,-0.99 -0.45,-1.694 -0.506,-2.718 -0.195,-3.571 -1.289,-7.49 -0.975,-11.032 1.061,-11.98 4.326,-22.268 8.16,-33.582 1.108,-3.268 1.437,-7.289 4,-9.592 l 1.012,0.163 c -4.658,20.804 -13.716,44.517 -1.281,64.431 5.025,8.047 12.413,13.671 21.672,15.858 2.293,0.541 4.815,0.619 7.164,0.806 2.514,0.549 4.728,0.157 7.234,-0.238 10.179,-1.605 17.295,-6.451 25.826,-11.794 -1.705,4.059 -4.647,7.669 -7.306,11.138 -9.478,12.365 -21.225,23.771 -34.529,32.033 z"
     id="path28" />
  <path
     fill="#5e0408"
     d="m 582.08522,397.94081 38.146,-6.258 c 4.071,8.818 6.113,18.959 5.918,28.671 -0.084,4.201 -0.913,8.379 -0.728,12.587 l -54.534,17.1 3.723,-44.607 z"
     id="path29" />
  <defs
     id="defs30">
    <linearGradient
       id="gradient_3"
       gradientUnits="userSpaceOnUse"
       x1="317.57745"
       y1="875.37134"
       x2="274.09058"
       y2="790.84283"
       gradientTransform="translate(-90.634777,-99.146193)">
      <stop
         offset="0"
         stop-color="#B5545F"
         id="stop29" />
      <stop
         offset="1"
         stop-color="#E97F80"
         id="stop30" />
    </linearGradient>
  </defs>
  <path
     fill="url(#gradient_3)"
     d="m 124.01722,720.99981 c 6.3,3.739 12.138,8.101 18.724,11.391 19.842,9.912 42.368,15.437 64.577,15.414 15.323,-0.016 31.808,-2.902 46.643,-6.729 6.36,-1.642 13,-3.703 19.126,-6.078 4.72,-1.83 10.371,-5.169 15.303,-5.978 l 2.978,15.544 c -27.672,12.053 -54.876,16.882 -85.01,15.841 -4.373,-0.151 -8.671,-0.849 -13.024,-1.195 -26.93,-2.141 -55.108,-12.526 -77.642,-27.202 l 1.22,-0.659 c 1.071,0.391 2.075,0.314 3.203,0.329 0.633,-2.001 2.373,-4.846 2.306,-6.895 -0.053,-1.607 0.76,-2.491 1.596,-3.783 z"
     id="path30"
     style="fill:url(#gradient_3)" />
  <path
     fill="#5e0408"
     d="m 220.99722,392.69381 59.843,11.947 2.025,44.136 c -9.976,-1.909 -20.137,-4.522 -29.464,-8.607 -11.146,-4.882 -25.623,-11.651 -32.74,-22.005 l -0.445,-0.673 c -1.597,-2.356 -2.7,-4.813 -3.293,-7.61 -1.444,-6.817 0.546,-11.541 4.074,-17.188 z"
     id="path31" />
  <path
     fill="#df8a89"
     d="m 496.43322,630.87881 c -4.17,50.357 -21.65,99.052 -61.061,132.642 -20.914,17.826 -52.175,36.075 -80.507,33.633 -6.441,-0.556 -13.877,-2.046 -19.741,-4.842 -4.096,-1.954 -7.752,-4.65 -11.42,-7.287 -2.125,-1.527 -5.264,-3.404 -6.68,-5.651 -0.397,-0.629 -0.391,-0.78 -0.544,-1.41 8.573,4.232 15.949,8.981 25.635,10.413 l 0.843,0.133 c 4.174,0.618 9.991,0.983 14.096,0.08 0.909,0.171 1.543,0.221 2.468,0.064 23.201,-3.937 43.795,-15.471 61.319,-30.832 28.232,-24.746 47.916,-56.486 62.617,-90.786 2.861,-6.675 5.374,-13.687 7.709,-20.567 1.498,-4.417 2.308,-11.702 4.989,-15.244 z"
     id="path32" />
  <defs
     id="defs33">
    <linearGradient
       id="gradient_4"
       gradientUnits="userSpaceOnUse"
       x1="599.13879"
       y1="878.69873"
       x2="654.07416"
       y2="793.85669"
       gradientTransform="translate(-90.634777,-99.146193)">
      <stop
         offset="0"
         stop-color="#BF5557"
         id="stop32" />
      <stop
         offset="1"
         stop-color="#E08482"
         id="stop33" />
    </linearGradient>
  </defs>
  <path
     fill="url(#gradient_4)"
     d="m 479.21822,733.93981 5.624,4.292 c 19.128,14.258 42.526,26.603 66.873,26.652 3.199,0.007 6.495,0.133 9.662,-0.366 l 0.738,-0.127 c 5.763,-0.937 11.445,-2.882 16,-6.64 9.004,-7.428 12.191,-20.119 13.035,-31.333 0.289,-3.833 0.058,-7.682 0.415,-11.514 l 0.048,-0.47 0.532,0.128 c 0.781,0.194 1.835,0.71 2.595,0.505 l 3.491,-0.684 c 0.866,3.599 0.906,7.52 1.055,11.212 0.462,11.451 -0.498,23.752 -6.58,33.764 -6.151,10.126 -16.084,15.5 -27.349,18.139 -12.269,2.874 -24.496,1.934 -36.776,-0.149 -23.39,-3.969 -43.479,-12.125 -63.469,-24.721 l -6.793,-4.509 9.729,-13.324 3.912,-6.596 c 2.255,1.707 4.926,3.445 6.835,5.536 z"
     id="path33"
     style="fill:url(#gradient_4)" />
  <path
     fill="#a84750"
     d="m 471.96022,728.19881 c 2.255,1.707 4.926,3.445 6.835,5.536 l -10.747,1.06 z"
     id="path34" />
  <defs
     id="defs35">
    <linearGradient
       id="gradient_5"
       gradientUnits="userSpaceOnUse"
       x1="767.18091"
       y1="740.81213"
       x2="808.08954"
       y2="844.79297"
       gradientTransform="translate(-90.634777,-99.146193)">
      <stop
         offset="0"
         stop-color="#E95450"
         id="stop34" />
      <stop
         offset="1"
         stop-color="#C0676A"
         id="stop35" />
    </linearGradient>
  </defs>
  <path
     fill="url(#gradient_5)"
     d="m 785.35322,595.19081 c 2.176,7.787 4.871,15.355 6.265,23.342 4.217,24.169 -2.068,49.599 -14.06,70.702 -19.5,34.315 -55.57,59.492 -93.311,69.754 -19.833,5.392 -40.08,6.963 -60.552,6.615 -8.745,-0.149 -18.159,-0.455 -26.733,-2.341 2.225,-5.271 4.419,-9.944 5.959,-15.516 9.452,0.542 18.864,2.411 28.322,2.98 29.163,1.753 58.753,-4.691 84.848,-17.753 13.361,-6.688 25.969,-15.147 36.462,-25.817 1.388,-1.411 3.723,-3.214 4.335,-5.053 l -1.197,-0.594 0.558,-0.136 0.57,-0.123 c 2.447,-0.843 4.072,-4.314 5.201,-6.461 l 0.518,-0.106 c 1.423,-0.496 5.848,-8.522 6.911,-10.314 13.417,-22.635 17.035,-45.936 15.847,-71.948 -0.248,-5.437 -2.113,-12.072 0.057,-17.231 z"
     id="path35"
     style="fill:url(#gradient_5)" />
  <path
     fill="#a41a1f"
     d="m 741.07822,341.05581 0.269,-0.382 c 0.667,-0.759 1.623,-1.121 2.518,-1.546 l 0.685,0.726 c -0.331,3.487 -3.451,7.749 -5.314,10.693 -8.72,13.786 -18.394,25.369 -30.833,35.942 -13.428,11.415 -29.546,21.612 -45.188,29.694 -6.146,3.175 -12.702,5.772 -19.005,8.635 -6.105,2.773 -12.426,6.029 -18.789,8.123 -0.185,-4.208 0.644,-8.386 0.728,-12.587 0.195,-9.712 -1.847,-19.853 -5.918,-28.671 6.75,-0.778 13.531,-2.674 20.134,-4.264 31.043,-7.478 61.488,-19.344 88.186,-37.036 4.19,-2.777 9.223,-5.508 12.527,-9.327 z"
     id="path36" />
  <path
     fill="#c79d70"
     d="m 292.70322,382.09681 c 23.365,-14.316 48.833,-21.356 75.662,-25.791 44.505,-7.356 91.105,-6.171 135.012,4.387 18.989,4.566 38.001,10.954 54.33,21.888 3.895,2.609 8.77,6.056 11.311,10.044 1.424,2.236 1.439,6.677 1.513,9.264 -2.076,-1.526 -5.993,-4.826 -8.518,-5.051 -1.209,-2.162 -4.956,-3.681 -7.154,-4.88 -11.711,-6.387 -23.364,-10.807 -35.994,-14.984 l -44,-10.203 c -15.953,-3.356 -32.633,-4.828 -48.906,-4.9 -4.634,-0.021 -9.481,-0.307 -14.092,0.093 -11.641,1.009 -22.85,3.301 -34.263,5.573 l -5.949,1.154 c -14.189,3.444 -28.118,7.001 -41.773,12.293 -3.852,1.493 -7.978,2.773 -11.553,4.87 l -0.151,1.694 -0.421,-0.317 c -0.604,-0.469 -0.378,-0.268 -0.892,-0.854 -2.806,1.299 -5.67,3.007 -8.636,3.834 -2.705,0.755 -5.251,2.561 -7.802,3.762 -1.754,0.826 -3.677,1.272 -5.494,1.948 -0.884,-1.413 -0.577,-3 -0.571,-4.604 0.011,-3.61 0.183,-6.011 -1.659,-9.22 z"
     id="path37" />
  <path
     fill="#fefefd"
     d="m 348.96822,582.83781 c 1.86,-2.256 2.995,-4.442 4.383,-6.985 -1.825,8.504 -5.225,16.568 -8.59,24.565 -4.316,10.258 -8.948,20.405 -13.165,30.702 -6.497,15.651 -12.881,31.291 -16.203,47.984 -2.268,11.395 -2.656,23.07 -2.002,34.621 0.269,4.741 0.395,9.517 1.277,14.193 2.689,19.764 10.512,40.956 26.872,53.35 4.92,3.726 9.548,5.801 15.514,7.322 -4.105,0.903 -9.922,0.538 -14.096,-0.08 l -0.843,-0.133 c -9.686,-1.432 -17.062,-6.181 -25.635,-10.413 -13.5,-14.169 -20.357,-32.189 -22.996,-51.355 -4.322,-31.395 5.324,-64.31 19.109,-92.209 6.257,-12.663 13.497,-25.128 22.062,-36.385 l 2.32,-2.257 c 0.718,-1.572 1.93,-2.737 2.89,-4.154 1.059,-1.563 1.903,-3.355 2.864,-4.991 l 0.386,-0.291 0.937,-1.218 c 1.871,-2.199 2.12,-2.158 4.916,-2.266 z"
     id="path38" />
  <path
     fill="#e8d5b9"
     d="m 342.72922,586.61281 0.386,-0.291 0.937,-1.218 c 1.871,-2.199 2.12,-2.158 4.916,-2.266 -3.308,4.281 -6.718,11.133 -11.993,12.92 0.718,-1.572 1.93,-2.737 2.89,-4.154 1.059,-1.563 1.903,-3.355 2.864,-4.991 z"
     id="path39" />
  <path
     fill="#fefefd"
     d="m 562.01322,396.83781 c 2.525,0.225 6.442,3.525 8.518,5.051 -0.927,9.103 -1.147,18.253 -2.116,27.368 -1.995,18.756 -4.754,37.67 -5.606,56.515 -1.294,28.607 1.961,56.569 8.913,84.311 2.311,9.222 5.275,18.457 8.706,27.318 1.418,3.662 3.688,7.478 4.718,11.21 0.81,2.933 3.084,5.999 4.488,8.735 9.661,18.823 24.081,38.404 42.736,48.928 24.645,13.903 51.782,17.222 79.117,9.58 16.694,-4.668 34.089,-14.498 42.738,-30.062 5.477,-9.858 8.253,-20.422 8.616,-31.688 0.29,-8.982 -1.875,-17.755 -2.085,-26.689 -0.404,-17.174 8.246,-34.512 25.706,-39.736 6.262,-1.873 12.135,-2.778 18.653,-1.528 11.065,2.123 20.064,6.306 26.778,15.778 2.965,4.184 4.695,9.357 4.955,14.454 -1.041,-1.682 -1.237,-3.347 -1.933,-5.154 -2.079,-5.397 -5.334,-8.829 -9.535,-12.669 -6.712,-6.785 -15.591,-9.604 -25.015,-9.604 -8.827,-0.001 -18.069,2.975 -24.3,9.445 -7.836,8.136 -10.543,17.622 -10.301,28.703 0.144,6.583 1.412,13.115 1.674,19.688 0.914,22.927 -6.416,41.736 -22.187,58.499 -16.067,17.077 -40.9,21.474 -63.386,22.042 -28.635,0.724 -55.554,-10.668 -76.113,-30.463 -8.5,-8.184 -16.708,-18.933 -23.099,-28.865 -0.304,-4.001 -2.28,-7.206 -4.041,-10.723 -1.839,-3.674 -3.532,-7.383 -4.94,-11.247 -2.969,-8.143 -5.234,-16.743 -7.048,-25.213 -5.945,-27.76 -9.932,-57.286 -9.232,-85.718 0.404,-16.42 2.378,-32.847 2.901,-49.25 0.13,-4.084 -0.079,-8.183 0.123,-12.264 0.198,-4.003 0.864,-7.975 0.931,-11.986 0.135,-8.103 -0.763,-16.792 0.666,-24.766 z"
     id="path40" />
  <path
     fill="#bf2527"
     d="m 151.45622,474.95681 c 6.571,-1.93 13.536,-3.226 20.293,-1.353 l 0.884,0.235 c 7.592,2.083 14.266,7.447 18.193,14.278 5.888,10.241 6.469,23.78 3.204,34.907 l -0.403,1.319 -1.012,-0.163 c -2.563,2.303 -2.892,6.324 -4,9.592 -3.834,11.314 -7.099,21.602 -8.16,33.582 -0.314,3.542 0.78,7.461 0.975,11.032 0.056,1.024 0.296,1.728 0.506,2.718 1.499,7.058 3.419,13.391 5.615,20.242 0.504,1.57 1.387,2.98 1.888,4.546 0.726,2.274 2.205,4.723 3.284,6.862 2.236,4.434 4.208,8.638 7.423,12.472 3.702,4.414 8.086,7.534 12.261,11.351 l -21.338,11.198 -3.81,1.803 -14.287,-18.389 c -10.732,-16.391 -17.902,-35.716 -15.409,-55.588 1.011,-8.063 3.681,-15.977 6.449,-23.581 4.305,-11.824 9.045,-22.765 11.656,-35.167 1.533,-7.278 1.564,-18.448 -2.674,-24.755 -0.832,-1.239 -1.712,-2.893 -3.19,-3.171 -2.847,-1.899 -4.87,-3.754 -8.144,-5.057 -4.961,-1.975 -11.723,-1.744 -16.536,0.445 -5.256,2.392 -9.797,5.846 -11.819,11.447 l -0.139,0.411 -0.641,0.181 -0.115,-2.5 c 0.032,-2.392 1.964,-6.074 3.66,-7.737 1.919,-0.884 3.223,-3.099 4.775,-4.551 3.049,-2.851 6.767,-5.038 10.611,-6.609 z"
     id="path41" />
  <path
     fill="#a41a1f"
     d="m 151.45622,474.95681 0.648,0.452 c 1.955,1.307 4.487,2.087 6.673,2.987 3.507,1.443 7.354,2.52 10.568,4.553 5.078,3.213 8.189,9.2 9.546,14.905 5.163,21.705 -8.094,41.701 -13.337,61.961 -6.842,26.441 1.156,53.432 16.11,75.39 2.86,4.198 5.903,8.903 9.405,12.57 l -3.81,1.803 -14.287,-18.389 c -10.732,-16.391 -17.902,-35.716 -15.409,-55.588 1.011,-8.063 3.681,-15.977 6.449,-23.581 4.305,-11.824 9.045,-22.765 11.656,-35.167 1.533,-7.278 1.564,-18.448 -2.674,-24.755 -0.832,-1.239 -1.712,-2.893 -3.19,-3.171 -2.847,-1.899 -4.87,-3.754 -8.144,-5.057 -4.961,-1.975 -11.723,-1.744 -16.536,0.445 -5.256,2.392 -9.797,5.846 -11.819,11.447 l -0.139,0.411 -0.641,0.181 -0.115,-2.5 c 0.032,-2.392 1.964,-6.074 3.66,-7.737 1.919,-0.884 3.223,-3.099 4.775,-4.551 3.049,-2.851 6.767,-5.038 10.611,-6.609 z"
     id="path42" />
  <path
     fill="#a41a1f"
     d="m 744.85722,690.54581 c -0.432,2.561 -1.079,5.093 0.547,7.363 1.497,2.09 3.239,2.991 5.739,3.38 l 4.548,0.221 1.197,0.594 c -0.612,1.839 -2.947,3.642 -4.335,5.053 -10.493,10.67 -23.101,19.129 -36.462,25.817 -26.095,13.062 -55.685,19.506 -84.848,17.753 -9.458,-0.569 -18.87,-2.438 -28.322,-2.98 4.22,-18.483 -0.191,-36.037 -2.94,-54.249 l 0.363,0.189 c 2.416,1.354 4.236,3.718 6.114,5.714 3.47,3.689 7.141,7.675 11.407,10.455 l 0.499,0.331 c 4.14,2.687 8.609,4.36 13.235,5.955 17.184,5.922 37.785,6.856 55.516,3.013 l 6.797,-1.699 -0.128,-0.965 c 6.63,-1.689 14.222,-4.09 20.431,-6.961 1.95,-0.455 4.377,-2.043 6.151,-3 5.498,-2.966 10.835,-6.544 15.949,-10.125 2.826,-1.979 5.509,-4.205 8.542,-5.859 z"
     id="path43" />
  <path
     fill="#c7686c"
     d="m 693.78422,716.49081 c 6.63,-1.689 14.222,-4.09 20.431,-6.961 -0.775,3.822 -1.51,6.931 -4.959,9.207 -2.896,1.912 -6.522,2.475 -9.881,1.634 -2.037,-0.51 -3.795,-1.679 -5.463,-2.915 z"
     id="path44" />
  <path
     fill="#fefefd"
     d="m 284.69922,400.12981 c 3.065,-1.39 6.526,-3.065 9.882,-3.435 0.748,5.798 0.817,11.508 1.224,17.322 1.039,14.832 1.558,29.727 1.686,44.593 0.432,50.242 0.141,106.235 -32.052,147.956 -9.228,11.96 -19.688,21.773 -31.462,31.153 -9.872,6.722 -19.847,13.172 -30.863,17.891 -20.601,9.347 -43.849,15.708 -66.517,11.872 -11.262,-1.905 -22.235,-7.325 -30.513,-15.193 -14.774997,-14.042 -20.007997,-31.119 -23.363997,-50.747 -2.005,-11.725 -3.838,-23.063 -10.955,-32.943 -6.029,-8.369 -16.517,-15.142 -26.847,-16.539 -7.15,-0.967 -17.22,-0.13 -23.089,4.455 -1.945,1.106 -3.695,2.189 -5.385,3.674 -5.307,3.884 -9.5066001,10.244 -10.5012001,16.825 -0.4216,2.791 -0.2408,6.023 0.0595,8.824 l -0.4555,0.902 c -1.0679,-2.796 -1.6034,-5.817 -1.6841,-8.8 -0.2257,-8.342 2.906,-15.402 8.6333001,-21.361 6.777,-7.049 16.643,-10.711 26.369,-10.664 21.346,0.102 38.685,13.952 44.828,34.23 1.779,5.871 2.154,12.164 3.112,18.209 2.729,17.224 8.549,33.826 21.332997,46.176 12.271,11.855 29.814,15.325 46.336,14.992 32.361,-0.652 63.838,-18.072 85.8,-41.012 29.324,-30.63 43.509,-71.332 46.395,-113.156 2.413,-34.974 -1.253,-70.246 -1.97,-105.224 z"
     id="path45" />
  <path
     fill="#bf2527"
     d="m 115.55522,319.15681 c 5.852,20.216 17.747,37.085 36.417,47.435 21.768,12.067 44.682,20.801 69.025,26.102 -3.528,5.647 -5.518,10.371 -4.074,17.188 0.593,2.797 1.696,5.254 3.293,7.61 l 0.445,0.673 c 7.117,10.354 21.594,17.123 32.74,22.005 9.327,4.085 19.488,6.698 29.464,8.607 0.097,2.788 0.301,5.283 0.95,8.011 -2.988,-1.023 -6.786,-1.597 -9.911,-2.054 l -2.789,-0.506 c -1.657,-0.207 -2.544,-0.42 -4.04,-1.122 -2.543,0.016 -4.806,-0.131 -7.35,0.252 -8.596,-1.176 -17.84,-4.777 -26.233,-7.186 l -13.203,-4.977 c -6.356,-1.583 -12.787,-4.65 -18.805,-7.239 -7.115,-3.061 -13.992,-5.712 -20.593,-9.83 0.519,-0.069 1.772,-0.402 2.224,-0.296 1.642,0.384 2.933,1.658 4.729,1.888 l 0.45,-0.864 -0.912,-1.506 c -1.383,-0.482 -2.382,-1.381 -3.505,-2.285 -6.872,-4.839 -14.937,-8.452 -22.012,-13.136 -29.768,-19.709 -54.701,-44.855 -67.462997,-78.803 6.629997,-3.678 15.104997,-5.576 21.152997,-9.967 z"
     id="path46" />
  <path
     fill="#c7686c"
     d="m 231.49422,441.08481 c 5.329,0.836 10.795,3.864 15.912,5.625 6.491,2.234 13.327,3.852 19.669,6.396 -2.543,0.016 -4.806,-0.131 -7.35,0.252 -8.596,-1.176 -17.84,-4.777 -26.233,-7.186 l -13.203,-4.977 c 3.87,-0.93 7.22,1.926 11.205,-0.11 z"
     id="path47" />
  <path
     fill="#df8a89"
     d="m 183.87722,421.06281 47.617,20.022 c -3.985,2.036 -7.335,-0.82 -11.205,0.11 -6.356,-1.583 -12.787,-4.65 -18.805,-7.239 -7.115,-3.061 -13.992,-5.712 -20.593,-9.83 0.519,-0.069 1.772,-0.402 2.224,-0.296 1.642,0.384 2.933,1.658 4.729,1.888 l 0.45,-0.864 -0.912,-1.506 c -1.383,-0.482 -2.382,-1.381 -3.505,-2.285 z"
     id="path48" />
  <path
     fill="#e6ad27"
     d="m 446.94022,304.41681 c 40.918,2.514 108.113,14.791 136.384,45.852 5.258,5.777 6.966,11.961 6.442,19.697 -0.097,1.432 -0.405,2.754 -0.759,4.138 l -0.204,0.826 c -2.393,9.389 -8.728,17.56 -14.391,25.219 -0.354,-2.302 -0.59,-4.947 -1.43,-7.12 -2.059,-5.325 -6.407,-8.723 -10.867,-12.016 -8.112,-5.989 -17.467,-10.209 -26.801,-13.884 -12.112,-4.769 -24.326,-8.431 -37.04,-11.261 -6.865,-1.528 -14.645,-2.105 -21.239,-4.414 -1.623,-1.434 -3.174,-1.508 -5.239,-1.772 1.297,-3.958 2.319,-8.057 1.42,-12.241 -0.665,-3.098 -2.825,-5.943 -4.588,-8.524 -2.753,-4.031 -5.538,-8.048 -8.314,-12.063 -0.714,-1.033 -2.199,-2.505 -2.199,-3.702 0.911,0.476 1.471,0.666 2.5,0.717 l 0.197,-0.513 -5.837,-3.147 c -2.373,-1.231 -4.758,-1.976 -7.39,-2.433 -1.912,-0.332 -4.182,-0.409 -5.92,-1.294 0.47,-1.424 2.832,-0.18 3.95,-0.709 0.572,-0.27 0.883,-0.904 1.325,-1.356 z"
     id="path49" />
  <path
     fill="#bf2527"
     d="m 497.07522,609.50481 0.849,0.349 c 1.681,4.447 -0.685,11.217 -0.285,16.07 0.046,0.557 0.016,1.049 -0.064,1.601 -0.392,0.645 -0.604,0.994 -0.757,1.746 l -0.385,1.608 -0.277,0.346 c -2.681,3.542 -3.491,10.827 -4.989,15.244 -2.335,6.88 -4.848,13.892 -7.709,20.567 -14.701,34.3 -34.385,66.04 -62.617,90.786 -17.524,15.361 -38.118,26.895 -61.319,30.832 -0.925,0.157 -1.559,0.107 -2.468,-0.064 -5.966,-1.521 -10.594,-3.596 -15.514,-7.322 -16.36,-12.394 -24.183,-33.586 -26.872,-53.35 2.032,0.735 3.897,2.879 5.681,4.137 6.682,4.707 14.028,6.998 22.016,8.218 12.964,1.981 26.644,-0.301 38.993,-4.408 2.142,-0.712 4.087,-1.813 6.198,-2.58 4.933,-1.793 9.342,-4.651 13.776,-7.424 18.636,-11.657 33.377,-30.402 41.202,-50.87 1.125,-2.943 2.88,-5.18 3.6,-8.351 2.788,5.249 8.621,9.62 14.137,11.497 3.651,-1.144 7.205,-2.513 10.393,-4.671 4.01,-2.715 6.611,-6.821 9.056,-10.896 9.626,-16.046 13.952,-34.87 17.355,-53.065 z"
     id="path50" />
  <path
     fill="#df8a89"
     d="m 403.61422,734.35881 c 2.458,-0.075 5.097,-0.092 7.501,0.51 2.497,0.625 4.352,2.944 5.607,5.045 0.241,2.707 0.281,5.183 -1.138,7.606 -2.121,3.624 -5.658,5.581 -9.61,6.497 -1.44,0.157 -2.658,0.176 -4.074,-0.189 -2.84,-0.731 -6.001,-1.536 -7.476,-4.327 -0.913,-1.727 -1.272,-3.67 -0.624,-5.548 1.792,-5.195 5.253,-7.184 9.814,-9.594 z"
     id="path51" />
  <path
     fill="#a41a1f"
     d="m 665.58622,512.86081 c 0.376,-7.546 1.521,-13.904 5.116,-20.618 4.541,-8.482 12.15,-13.617 21.248,-16.233 7.669,-2.205 18.59,0.811 25.206,4.899 2.089,1.291 3.847,3.53 5.975,4.552 l 0.576,0.217 c 4.708,5.398 6.122,12.383 6.655,19.245 -2.332,-6.294 -3.784,-11.556 -9.545,-15.752 -4.473,-3.259 -12.168,-6.311 -17.736,-5.122 -1.089,0.233 -2.128,0.369 -3.237,0.489 -1.656,-0.446 -4.282,1.052 -5.772,1.944 -4.682,2.801 -8.948,7.701 -10.169,13.122 -3.963,17.592 5.523,32.691 9.12,49.318 2.357,10.893 3.434,22.113 2.733,33.254 -1.73,27.519 -17.042,56.704 -40.327,71.818 -3.675,2.385 -7.782,4.309 -11.844,5.93 -2.416,0.964 -5.162,1.684 -7.323,3.132 l -1.063,-0.428 c -2.756,-1.342 -5.477,-3.499 -7.963,-5.295 -12.392,-8.951 -21.449,-21.056 -29.352,-33.979 -3.422,-5.597 -6.687,-11.104 -8.924,-17.301 -3.857,-7.895 -7.214,-15.748 -9.367,-24.28 10.469,10.083 23.246,21.339 38.3,23.431 l 0.722,-2.095 0.756,0.608 0.885,-0.443 -0.306,-0.642 0.243,-0.976 c 4.723,1.402 11.631,0.956 16.439,0.03 9.547,-1.838 18.205,-7.769 23.554,-15.864 10.37,-15.693 8.038,-33.479 4.266,-50.861 1.123,-1.346 1.725,-2.499 2.261,-4.147 -1.431,-5.628 -1.448,-12.182 -1.127,-17.953 z"
     id="path52" />
  <path
     fill="#bf2527"
     d="m 666.71322,530.81381 c -1.431,-5.628 -1.448,-12.182 -1.127,-17.953 l 0.877,1.344 0.418,0.588 c 0.914,1.53 1.205,3.734 1.734,5.453 0.749,2.431 1.692,4.824 2.663,7.174 3.279,7.937 6.957,15.755 9.393,24.01 3.878,13.139 4.314,27.531 0.132,40.645 -2.555,8.01 -6.556,15.739 -11.251,22.7 -6.719,9.962 -18.259,21.515 -30.564,23.75 -8.703,1.58 -16.11,-0.387 -23.223,-5.57 -7.949,-5.793 -14.529,-13.835 -21.258,-20.963 -1.908,-2.021 -3.228,-4.329 -5.547,-5.939 -3.857,-7.895 -7.214,-15.748 -9.367,-24.28 10.469,10.083 23.246,21.339 38.3,23.431 l 0.722,-2.095 0.756,0.608 0.885,-0.443 -0.306,-0.642 0.243,-0.976 c 4.723,1.402 11.631,0.956 16.439,0.03 9.547,-1.838 18.205,-7.769 23.554,-15.864 10.37,-15.693 8.038,-33.479 4.266,-50.861 1.123,-1.346 1.725,-2.499 2.261,-4.147 z"
     id="path53" />
  <path
     fill="#fefefd"
     d="m 623.23422,615.78281 c 1.773,-0.025 3.352,0.237 4.732,1.422 1.717,1.476 1.889,2.853 1.924,5.051 0.039,2.423 -1.576,3.675 -3.158,5.269 -2.363,-0.131 -3.726,-0.999 -5.617,-2.316 -1.076,-1.646 -1.344,-2.645 -1.311,-4.632 0.037,-2.203 1.925,-3.399 3.43,-4.794 z"
     id="path54" />
  <defs
     id="defs55">
    <linearGradient
       id="gradient_6"
       gradientUnits="userSpaceOnUse"
       x1="732.59497"
       y1="667.2951"
       x2="756.65076"
       y2="681.97577"
       gradientTransform="translate(-90.634777,-99.146193)">
      <stop
         offset="0"
         stop-color="#FCBBC3"
         id="stop54" />
      <stop
         offset="1"
         stop-color="#FFEFEC"
         id="stop55" />
    </linearGradient>
  </defs>
  <path
     fill="url(#gradient_6)"
     d="m 664.45222,534.96081 c 1.123,-1.346 1.725,-2.499 2.261,-4.147 4.947,18.058 7.992,39.247 -1.772,56.19 -5.9,10.238 -15.299,16.344 -26.588,19.287 -6.287,1.638 -14.212,0.343 -20.46,-1.087 l 0.722,-2.095 0.756,0.608 0.885,-0.443 -0.306,-0.642 0.243,-0.976 c 4.723,1.402 11.631,0.956 16.439,0.03 9.547,-1.838 18.205,-7.769 23.554,-15.864 10.37,-15.693 8.038,-33.479 4.266,-50.861 z"
     id="path55"
     style="fill:url(#gradient_6)" />
  <defs
     id="defs57">
    <linearGradient
       id="gradient_7"
       gradientUnits="userSpaceOnUse"
       x1="463.94385"
       y1="396.20575"
       x2="451.18851"
       y2="505.12494"
       gradientTransform="translate(-90.634777,-99.146193)">
      <stop
         offset="0"
         stop-color="#9B8217"
         id="stop56" />
      <stop
         offset="1"
         stop-color="#A59A16"
         id="stop57" />
    </linearGradient>
  </defs>
  <path
     fill="url(#gradient_7)"
     d="m 279.92822,399.27381 c -4.227,-3.561 -8.108,-6.935 -11.529,-11.322 -5.187,-6.651 -8.689,-15.341 -7.447,-23.931 1.491,-10.324 10.297,-18.687 18.135,-24.648 11.656,-8.864 25.402,-14.624 39.178,-19.294 32.979,-11.182 66.705,-15.114 101.35,-15.925 9.009,-0.211 18.375,-0.932 27.325,0.263 -0.442,0.452 -0.753,1.086 -1.325,1.356 -1.118,0.529 -3.48,-0.715 -3.95,0.709 1.738,0.885 4.008,0.962 5.92,1.294 2.632,0.457 5.017,1.202 7.39,2.433 l 5.837,3.147 -0.197,0.513 c -1.029,-0.051 -1.589,-0.241 -2.5,-0.717 0,1.197 1.485,2.669 2.199,3.702 2.776,4.015 5.561,8.032 8.314,12.063 1.763,2.581 3.923,5.426 4.588,8.524 0.899,4.184 -0.123,8.283 -1.42,12.241 2.065,0.264 3.616,0.338 5.239,1.772 l -67.458,-3.211 c -33.145,0.839 -68.479,7.205 -99.025,20.306 -11.498,4.932 -22.635,10.593 -31.336,19.742 0.607,3.598 0.581,7.339 0.712,10.983 z"
     id="path57"
     style="fill:url(#gradient_7)" />
  <path
     fill="#e84130"
     d="m 582.65322,628.00481 c 6.391,9.932 14.599,20.681 23.099,28.865 20.559,19.795 47.478,31.187 76.113,30.463 22.486,-0.568 47.319,-4.965 63.386,-22.042 15.771,-16.763 23.101,-35.572 22.187,-58.499 -0.262,-6.573 -1.53,-13.105 -1.674,-19.688 -0.242,-11.081 2.465,-20.567 10.301,-28.703 6.231,-6.47 15.473,-9.446 24.3,-9.445 9.424,0 18.303,2.819 25.015,9.604 4.201,3.84 7.456,7.272 9.535,12.669 0.696,1.807 0.892,3.472 1.933,5.154 0.809,6.163 -1.061,10.877 -3.357,16.464 0.574,-8.146 1.082,-15.616 -4.665,-22.243 -3.974,-4.582 -10.91,-7.476 -16.961,-7.735 -6.735,-0.288 -13.912,3.331 -18.662,7.874 -6.027,5.763 -8.091,13.29 -8.229,21.37 -0.019,1.105 0.127,2.009 0.379,3.078 -2.17,5.159 -0.305,11.794 -0.057,17.231 1.188,26.012 -2.43,49.313 -15.847,71.948 -1.063,1.792 -5.488,9.818 -6.911,10.314 l -0.518,0.106 c -1.129,2.147 -2.754,5.618 -5.201,6.461 l -0.57,0.123 -0.558,0.136 -4.548,-0.221 c -2.5,-0.389 -4.242,-1.29 -5.739,-3.38 -1.626,-2.27 -0.979,-4.802 -0.547,-7.363 -3.033,1.654 -5.716,3.88 -8.542,5.859 -5.114,3.581 -10.451,7.159 -15.949,10.125 -1.774,0.957 -4.201,2.545 -6.151,3 -6.209,2.871 -13.801,5.272 -20.431,6.961 l 0.128,0.965 -6.797,1.699 c -17.731,3.843 -38.332,2.909 -55.516,-3.013 -4.626,-1.595 -9.095,-3.268 -13.235,-5.955 l -0.499,-0.331 c -4.266,-2.78 -7.937,-6.766 -11.407,-10.455 -1.878,-1.996 -3.698,-4.36 -6.114,-5.714 l -0.363,-0.189 c -2.516,-7.861 -4.724,-15.788 -7.424,-23.594 -3.232,-9.345 -6.984,-18.507 -10.653,-27.686 -2.801,-7.009 -5.819,-13.987 -8.927,-20.864 -1.875,-4.148 -4.692,-8.418 -5.381,-12.93 5.164,6.442 8.914,13.952 15.057,19.581 z"
     id="path58" />
  <path
     fill="#df8a89"
     d="m 691.83322,710.36681 c 1.179,-3.164 2.512,-5.932 5.248,-8.052 1.66,-1.286 4.426,-1.91 6.487,-1.592 l 0.547,0.097 c 1.291,0.218 2.735,0.423 3.916,1.009 3.272,1.621 4.92,4.421 6.184,7.701 -6.209,2.871 -13.801,5.272 -20.431,6.961 -0.959,-1.94 -1.408,-4.038 -1.951,-6.124 z"
     id="path59" />
  <path
     fill="#e8d5b9"
     d="m 635.65122,694.35281 4.714,0.179 c 3.201,0.498 6.127,2.777 7.863,5.463 1.223,1.891 1.051,5.768 0.446,7.847 -1.289,4.433 -4.773,6.499 -8.58,8.54 -1.549,0.055 -3.061,-0.06 -4.586,-0.358 -2.756,-0.54 -5.376,-2.155 -6.942,-4.499 l -0.356,-0.549 -0.746,-1.14 c -1.094,-2.032 -0.844,-5.751 -0.123,-7.887 1.47,-4.353 4.524,-5.603 8.31,-7.596 z"
     id="path60" />
  <defs
     id="defs61">
    <linearGradient
       id="gradient_8"
       gradientUnits="userSpaceOnUse"
       x1="910.90527"
       y1="733.28638"
       x2="858.46759"
       y2="717.38782"
       gradientTransform="translate(-90.634777,-99.146193)">
      <stop
         offset="0"
         stop-color="#A72022"
         id="stop60" />
      <stop
         offset="1"
         stop-color="#C83436"
         id="stop61" />
    </linearGradient>
  </defs>
  <path
     fill="url(#gradient_8)"
     d="m 749.26922,685.03781 c 0.483,-3.53 3.858,-7.515 5.751,-10.546 2.439,-3.904 4.865,-7.925 7.008,-11.998 2.749,-5.223 5.104,-10.862 6.835,-16.504 4.38,-14.277 4.988,-29.28 6.483,-44.042 0.731,-7.219 1.356,-14.735 3.469,-21.696 2.567,-8.454 7.58,-16.559 15.629,-20.691 l 0.775,-0.386 c 6.266,-3.164 14.396,-4.324 21.313,-2.92 2.668,0.542 5.206,1.597 7.877,2.121 l 0.971,0.184 c 4.201,3.84 7.456,7.272 9.535,12.669 0.696,1.807 0.892,3.472 1.933,5.154 0.809,6.163 -1.061,10.877 -3.357,16.464 0.574,-8.146 1.082,-15.616 -4.665,-22.243 -3.974,-4.582 -10.91,-7.476 -16.961,-7.735 -6.735,-0.288 -13.912,3.331 -18.662,7.874 -6.027,5.763 -8.091,13.29 -8.229,21.37 -0.019,1.105 0.127,2.009 0.379,3.078 -2.17,5.159 -0.305,11.794 -0.057,17.231 1.188,26.012 -2.43,49.313 -15.847,71.948 -1.063,1.792 -5.488,9.818 -6.911,10.314 l -0.518,0.106 c -1.129,2.147 -2.754,5.618 -5.201,6.461 l -0.57,0.123 -0.558,0.136 -4.548,-0.221 c -2.5,-0.389 -4.242,-1.29 -5.739,-3.38 -1.626,-2.27 -0.979,-4.802 -0.547,-7.363 z"
     id="path61"
     style="fill:url(#gradient_8)" />
  <path
     fill="#df8a89"
     d="m 749.26922,685.03781 c 2.886,-0.57 5.987,-1.458 8.557,0.382 1.41,1.01 2.37,2.875 3.267,4.332 l 0.927,5.038 c -1.129,2.147 -2.754,5.618 -5.201,6.461 l -0.57,0.123 -0.558,0.136 -4.548,-0.221 c -2.5,-0.389 -4.242,-1.29 -5.739,-3.38 -1.626,-2.27 -0.979,-4.802 -0.547,-7.363 z"
     id="path62" />
  <path
     fill="#f3b8ba"
     d="m 761.09322,689.75181 0.927,5.038 c -1.129,2.147 -2.754,5.618 -5.201,6.461 l -0.57,0.123 0.022,-0.947 c 0.16,-4.608 1.53,-7.533 4.822,-10.675 z"
     id="path63" />
  <path
     fill="#bf2527"
     d="m 512.97522,632.30081 c 11.341,0.378 21.705,0.76 32.727,-2.465 7.686,-2.248 13.677,-7.516 20.399,-11.534 4.266,8.026 6.95,15.863 9.993,24.368 l 7.437,26.226 c 1.775,8.153 3.557,16.304 5.326,24.458 1.511,6.962 3.291,13.938 2.756,21.08 l -0.048,0.47 c -0.357,3.832 -0.126,7.681 -0.415,11.514 -0.844,11.214 -4.031,23.905 -13.035,31.333 -4.555,3.758 -10.237,5.703 -16,6.64 l -0.738,0.127 c -3.167,0.499 -6.463,0.373 -9.662,0.366 -24.347,-0.049 -47.745,-12.394 -66.873,-26.652 l -5.624,-4.292 -0.423,-0.205 c -1.909,-2.091 -4.58,-3.829 -6.835,-5.536 2.574,-5.393 5.701,-10.421 8.31,-15.762 4.041,-8.271 7.196,-17.18 9.784,-26.013 4.457,-15.211 6.756,-31.273 7.284,-47.07 0.111,-3.332 1.144,-7.024 -0.52,-10.083 0.153,-0.752 0.365,-1.101 0.757,-1.746 1.346,2.145 1.882,1.926 4.3,2.475 l 9.459,1.883 0.754,-0.297 z"
     id="path64" />
  <path
     fill="#df8a89"
     d="m 507.37022,670.53481 c 3.878,-0.715 9.86,-1.975 13.312,0.508 2.443,1.757 3.355,3.563 3.618,6.492 0.266,2.955 -0.108,6.224 -2.075,8.569 -2.281,2.718 -4.661,3.743 -7.985,4.664 l -0.938,0.273 c -2.939,-0.134 -5.341,-0.871 -7.967,-2.172 0.012,-6.278 0.991,-12.163 2.035,-18.334 z"
     id="path65" />
  <path
     fill="#c7686c"
     d="m 545.34922,705.43281 c 3.535,0.175 6.918,0.307 10.285,1.524 3.484,1.26 5.972,3.708 7.564,7.023 l 0.338,0.723 c 0.677,1.419 1.194,2.738 1.517,4.289 0.951,4.572 0.043,9.723 -2.651,13.569 -3.431,4.899 -8.075,6.893 -13.744,7.912 -5.791,-0.052 -10.343,-0.676 -15.149,-4.172 -2.561,-1.863 -5.347,-5.022 -5.782,-8.279 l -0.068,-0.573 c -0.537,-3.798 -0.188,-7.899 1.622,-11.331 3.439,-6.521 9.469,-8.632 16.068,-10.685 z"
     id="path66" />
  <path
     fill="#5e0408"
     d="m 496.81822,629.27081 c 0.153,-0.752 0.365,-1.101 0.757,-1.746 1.346,2.145 1.882,1.926 4.3,2.475 l 9.459,1.883 c 0.62,3.609 0.132,7.333 -0.11,10.962 -0.408,6.134 -0.864,12.457 -1.981,18.509 -0.55,2.984 -1.729,6.178 -1.873,9.181 -1.044,6.171 -2.023,12.056 -2.035,18.334 2.626,1.301 5.028,2.038 7.967,2.172 0.025,1.073 0.254,2.533 0.082,3.563 -0.291,1.742 -2.727,5.347 -3.743,6.904 -5.002,9.23 -12.115,19.988 -20.6,26.308 -3.113,2.318 -6.828,3.84 -9.823,6.124 l -0.423,-0.205 c -1.909,-2.091 -4.58,-3.829 -6.835,-5.536 2.574,-5.393 5.701,-10.421 8.31,-15.762 4.041,-8.271 7.196,-17.18 9.784,-26.013 4.457,-15.211 6.756,-31.273 7.284,-47.07 0.111,-3.332 1.144,-7.024 -0.52,-10.083 z"
     id="path67" />
  <path
     fill="#a41a1f"
     d="m 503.59822,688.86681 1.737,0.002 c 2.626,1.301 5.028,2.038 7.967,2.172 0.025,1.073 0.254,2.533 0.082,3.563 -0.291,1.742 -2.727,5.347 -3.743,6.904 -3.298,-3.413 -4.552,-8.241 -6.043,-12.641 z"
     id="path68" />
  <path
     fill="#a84750"
     d="m 503.59822,688.86681 c -2.199,-3.657 -4.036,-7.605 -3.589,-11.921 1.949,-3.024 4.396,-4.539 7.361,-6.411 -1.044,6.171 -2.023,12.056 -2.035,18.334 z"
     id="path69" />
  <defs
     id="defs70">
    <linearGradient
       id="gradient_9"
       gradientUnits="userSpaceOnUse"
       x1="669.82635"
       y1="769.97748"
       x2="621.17548"
       y2="717.47461"
       gradientTransform="translate(-90.634777,-99.146193)">
      <stop
         offset="0"
         stop-color="#F0B528"
         id="stop69" />
      <stop
         offset="1"
         stop-color="#EF9B36"
         id="stop70" />
    </linearGradient>
  </defs>
  <path
     fill="url(#gradient_9)"
     d="m 512.97522,632.30081 c 11.341,0.378 21.705,0.76 32.727,-2.465 7.686,-2.248 13.677,-7.516 20.399,-11.534 4.266,8.026 6.95,15.863 9.993,24.368 l 7.437,26.226 -3.719,2.335 c -6.835,4.13 -13.295,5.905 -21.232,3.865 -5.464,-1.405 -9.78,-3.931 -14.391,-7.105 -13.185,-9.073 -23.204,-21.988 -31.214,-35.69 z"
     id="path70"
     style="fill:url(#gradient_9)" />
  <path
     fill="#f0cc93"
     d="m 564.99522,646.40281 0.654,0.045 c 3.013,0.348 5.4,1.657 7.254,4.065 1.827,2.373 2.569,5.471 2.097,8.414 l -0.123,0.677 c -0.166,0.95 -0.384,1.734 -0.81,2.607 -2.013,4.135 -5.641,5.464 -9.708,6.842 l -0.213,-0.042 c -1.457,-0.278 -2.966,-0.534 -4.338,-1.119 -2.462,-1.05 -4.376,-3.651 -5.299,-6.104 -0.986,-2.622 -0.841,-5.276 0.324,-7.778 2.024,-4.348 5.844,-6.141 10.162,-7.607 z"
     id="path71" />
  <path
     fill="#f4a33e"
     d="m 369.63822,631.23781 c 18.779,-1.505 36.496,-7.244 53.009,-16.185 2.063,-1.117 4.148,-2.26 6.053,-3.634 1.894,-1.366 3.916,-3.328 6.165,-4.035 2.621,-0.825 5.971,-0.287 8.041,1.622 3.134,2.89 2.709,8.835 2.609,12.729 -0.209,8.16 -1.53,15.86 -2.821,23.896 -1.281,7.969 -0.31,13.84 3.44,21.009 -0.72,3.171 -2.475,5.408 -3.6,8.351 -7.825,20.468 -22.566,39.213 -41.202,50.87 -4.434,2.773 -8.843,5.631 -13.776,7.424 -2.111,0.767 -4.056,1.868 -6.198,2.58 -12.349,4.107 -26.029,6.389 -38.993,4.408 -7.988,-1.22 -15.334,-3.511 -22.016,-8.218 -1.784,-1.258 -3.649,-3.402 -5.681,-4.137 -0.882,-4.676 -1.008,-9.452 -1.277,-14.193 -0.654,-11.551 -0.266,-23.226 2.002,-34.621 3.322,-16.693 9.706,-32.333 16.203,-47.984 7.423,0.765 16.241,3.036 23.621,1.999 l 6.339,1.371 c 2.959,-0.767 5.383,-1.837 8.082,-3.252 z"
     id="path72" />
  <path
     fill="#e6ad27"
     d="m 328.57322,707.37681 c 1.851,-0.077 3.826,0.361 5.542,1.064 3.162,1.295 5.492,4.881 6.524,7.996 0.679,2.049 0.562,5.445 -0.462,7.348 -1.914,3.561 -4.838,4.399 -8.451,5.345 -3.453,-0.541 -6.886,-1.085 -9.617,-3.475 -3.07,-2.687 -2.949,-5.493 -3.239,-9.303 2.387,-5.313 4.466,-6.814 9.703,-8.975 z"
     id="path73" />
  <path
     fill="#fefefd"
     d="m 396.91822,673.45681 c 3.522,-0.396 7.357,-0.723 10.391,1.502 4.232,3.102 4.725,6.059 5.448,10.879 -2.381,5.817 -4.294,6.821 -9.735,9.374 -3.924,0.347 -8.038,0.131 -11.14,-2.608 -2.224,-1.964 -3.962,-4.322 -4.045,-7.365 l -0.009,-0.635 c -0.064,-1.51 -0.084,-2.485 0.561,-3.908 1.775,-3.912 4.737,-5.687 8.529,-7.239 z"
     id="path74" />
  <path
     fill="#fefefd"
     d="m 422.98422,629.94181 c 2.256,-0.084 4.734,-0.317 6.916,0.349 3.847,1.175 6.812,3.885 8.618,7.463 1.73,3.426 2.03,7.792 0.685,11.425 -1.683,4.547 -5.729,6.544 -9.874,8.319 -2.908,0.142 -6.042,0.232 -8.827,-0.729 -3.437,-1.187 -6.13,-3.603 -7.712,-6.877 -1.734,-3.589 -1.39,-8.21 0.088,-11.829 1.674,-4.1 6.2,-6.557 10.106,-8.121 z"
     id="path75" />
  <path
     fill="#a41a1f"
     d="m 21.829223,556.51481 c 5.869,-4.585 15.939,-5.422 23.089,-4.455 10.33,1.397 20.818,8.17 26.847,16.539 7.117,9.88 8.95,21.218 10.955,32.943 3.356,19.628 8.589,36.705 23.363997,50.747 8.278,7.868 19.251,13.288 30.513,15.193 22.668,3.836 45.916,-2.525 66.517,-11.872 l 0.817,1.994 c -2.821,2.84 -5.261,5.563 -7.415,8.961 -0.036,2.305 -0.342,4.958 0.215,7.195 l -0.37,0.937 c 1.528,2.739 3.026,5.433 3.38,8.592 0.072,-1.681 0.225,-2.694 1.026,-4.185 l 0.958,-0.11 c 1.068,1.424 2.097,2.695 2.754,4.36 l 0.24,0.537 c 1.994,4.812 -0.877,11.096 1.575,15.509 l 0.462,0.994 c 0.385,0.835 0.486,1.039 1.359,1.383 0.917,0.362 1.794,0.26 2.762,0.729 l 0.529,-0.509 c 1.77,-1.628 8.477,-5.345 10.787,-5.151 1.267,0.107 1.299,0.435 2.197,1.254 4.792,-6.179 10.183,-7.808 17.51,-9.312 4.886,0.734 8.095,1.45 11.863,4.96 l 0.42,-0.099 c 3.866,-1.56 7.247,-4.434 10.759,-6.667 9.745,-6.195 19.352,-12.826 29.225,-18.787 -5.782,18.844 -8.781,41.23 -5.777,60.825 -4.932,0.809 -10.583,4.148 -15.303,5.978 -6.126,2.375 -12.766,4.436 -19.126,6.078 -14.835,3.827 -31.32,6.713 -46.643,6.729 -22.209,0.023 -44.735,-5.502 -64.577,-15.414 -6.586,-3.29 -12.424,-7.652 -18.724,-11.391 l -2.627,-2.221 c -0.677,-0.367 -1.196,-0.266 -1.817,-0.834 -0.834,-0.761 -2.261,-2.727 -3.177,-3.168 -0.336,-0.161 -0.766,-0.034 -1.103,-0.194 -1.245,-0.592 -3.737,-3.697 -4.912,-4.807 l -0.766,0.124 c -4.983,-5.101 -10.238997,-10.147 -14.933997,-15.511 -13.079,-14.943 -24.446,-33.506 -28.601,-53.087 l -3.762,-0.883 -2.875,-0.906 c -2.383,-9.144 -2.175,-19.495 -2.255,-28.902 l 0.67,-2.95 c -0.006,-9.014 1.525,-18.556 -0.731,-27.416 -1.031,-4.046 -1.975,-7.148 -4.276,-10.709 l -1.386,-2.327 -0.324,-0.685 c -3.62,-4.564 -9.473,-6.836 -15.029,-7.929 l -0.747,-0.143 -0.767,-0.158 c -1.956,-0.388 -5.872,-1.076 -7.57,0.06 l 0.289,0.664 -0.702,0.305 -0.763,-0.469 c 0.326,-1.137 0.228,-0.682 0.429,-1.834 l 0.133,-0.802 c -1.615,0.297 -2.945,0.425 -4.585,0.297 z"
     id="path76" />
  <path
     fill="#fefefd"
     d="m 57.858223,607.66081 c -0.006,-9.014 1.525,-18.556 -0.731,-27.416 -1.031,-4.046 -1.975,-7.148 -4.276,-10.709 l -1.386,-2.327 -0.324,-0.685 c 7.688,8.04 8.968,17.905 9.686,28.477 0.747,10.994 0.228,22.392 2.288,33.229 l 2.965,13.072 -3.762,-0.883 -2.875,-0.906 c -2.383,-9.144 -2.175,-19.495 -2.255,-28.902 z"
     id="path77" />
  <path
     fill="#f3b8ba"
     d="m 57.858223,607.66081 c 0.018,6.892 -0.418,13.121 2.078,19.693 l -0.237,0.828 c -0.349,1.299 -0.29,2.591 -0.26,3.922 1.36,0.482 1.503,0.648 2.858,0.226 0.356,-1.364 0.748,-2.683 0.818,-4.1 l 2.965,13.072 -3.762,-0.883 -2.875,-0.906 c -2.383,-9.144 -2.175,-19.495 -2.255,-28.902 z"
     id="path78" />
  <path
     fill="#c7686c"
     d="m 197.64622,711.98181 c 2.972,-0.188 7.001,-0.362 9.713,1.056 l 0.506,0.28 1.206,0.64 c 3.346,1.971 5.928,5.132 6.813,8.932 l 0.154,0.714 c 0.52,2.332 0.266,4.725 -0.909,6.849 -2.746,4.962 -7.419,6.606 -12.509,8.005 -1.787,-0.2 -3.788,-0.559 -5.505,-1.12 -6.579,-2.151 -10.695,-7.243 -13.663,-13.193 l 1.675,-3.3 c 2.73,-4.905 7.335,-7.343 12.519,-8.863 z"
     id="path79" />
  <path
     fill="#c7686c"
     d="m 241.90022,688.78781 c 4.886,0.734 8.095,1.45 11.863,4.96 l 0.42,-0.099 c 1.396,1.972 2.935,3.905 3.735,6.205 l 0.27,0.764 c 1.498,4.513 0.469,9.905 -1.823,13.986 -2.411,4.292 -6.386,7.187 -11.114,8.429 l -1.886,0.391 -0.703,0.141 c -4.232,0.768 -9.296,-0.257 -12.826,-2.7 -3.629,-2.511 -7.172,-6.811 -7.95,-11.261 l -0.181,-4.365 0.118,-0.294 c 0.48,-2.604 1.354,-4.504 2.567,-6.845 4.792,-6.179 10.183,-7.808 17.51,-9.312 z"
     id="path80" />
  <path
     fill="#c79d70"
     d="m 241.90022,688.78781 c 4.886,0.734 8.095,1.45 11.863,4.96 -9.647,5.697 -20.84,9.657 -31.94,11.197 0.48,-2.604 1.354,-4.504 2.567,-6.845 4.792,-6.179 10.183,-7.808 17.51,-9.312 z"
     id="path81" />
  <path
     fill="#f58434"
     d="m 21.829223,556.51481 c 5.869,-4.585 15.939,-5.422 23.089,-4.455 10.33,1.397 20.818,8.17 26.847,16.539 7.117,9.88 8.95,21.218 10.955,32.943 3.356,19.628 8.589,36.705 23.363997,50.747 8.278,7.868 19.251,13.288 30.513,15.193 22.668,3.836 45.916,-2.525 66.517,-11.872 l 0.817,1.994 c -2.821,2.84 -5.261,5.563 -7.415,8.961 -0.036,2.305 -0.342,4.958 0.215,7.195 l -0.37,0.937 c 1.528,2.739 3.026,5.433 3.38,8.592 0.072,-1.681 0.225,-2.694 1.026,-4.185 l 0.958,-0.11 c 1.068,1.424 2.097,2.695 2.754,4.36 l 0.24,0.537 c 1.994,4.812 -0.877,11.096 1.575,15.509 l 0.462,0.994 c 0.385,0.835 0.486,1.039 1.359,1.383 0.917,0.362 1.794,0.26 2.762,0.729 l 0.529,-0.509 c 1.77,-1.628 8.477,-5.345 10.787,-5.151 1.267,0.107 1.299,0.435 2.197,1.254 -1.213,2.341 -2.087,4.241 -2.567,6.845 l -0.118,0.294 c -1.459,0.108 -4.476,0.626 -5.845,1.154 -1.142,0.441 -2.19,0.88 -3.442,0.737 l -0.605,-0.119 c -0.973,0.572 -2.03,1.038 -3.183,1.093 -0.945,0.045 -1.425,-0.143 -2.319,0.272 -0.875,0.406 -0.413,0.292 -1.529,0.391 l -0.917,0.064 c -4.076,0.585 -8.636,0.352 -12.639,1.107 -3.614,0.682 -7.476,0.445 -11.149,0.435 -15.635,-0.042 -31.252,-3.047 -45.984,-8.252 -11.697,-4.133 -23.223,-9.789 -32.998,-17.486 -21.230997,-16.718 -32.649997,-41.969 -35.000997,-68.531 -1.116,-12.609 -0.176,-27.326 -5.83,-38.935 l -3.128,-6.09 c -4.123,-6.849 -9.342,-10.693 -17.08,-12.617 -4.704,-1.169 -8.749,-2.157 -13.642,-2.244 -1.615,0.297 -2.945,0.425 -4.585,0.297 z"
     id="path82" />
  <path
     fill="#fefefd"
     d="m 199.74122,683.28881 c -0.096,1.39 -0.135,2.932 -0.595,4.256 -0.808,2.329 -3.263,5.069 -5.513,6.108 -2.188,1.01 -5.973,1.027 -8.165,0.037 l -0.603,-0.294 c -2.801,-1.326 -4.81,-3.514 -5.86,-6.453 -0.855,-2.394 -0.194,-5.632 0.91,-7.839 1.324,-2.646 4.207,-5.845 7.2,-6.606 3.534,-0.899 6.308,0.478 9.246,2.199 1.528,2.739 3.026,5.433 3.38,8.592 z"
     id="path83" />
  <defs
     id="defs84">
    <linearGradient
       id="gradient_10"
       gradientUnits="userSpaceOnUse"
       x1="308.93756"
       y1="652.45575"
       x2="452.1384"
       y2="605.53644"
       gradientTransform="translate(-90.634777,-99.146193)">
      <stop
         offset="0"
         stop-color="#F2A849"
         id="stop83" />
      <stop
         offset="1"
         stop-color="#D8B694"
         id="stop84" />
    </linearGradient>
  </defs>
  <path
     fill="url(#gradient_10)"
     d="m 294.93322,395.92081 c 1.817,-0.676 3.74,-1.122 5.494,-1.948 2.551,-1.201 5.097,-3.007 7.802,-3.762 2.966,-0.827 5.83,-2.535 8.636,-3.834 0.514,0.586 0.288,0.385 0.892,0.854 l 0.421,0.317 0.213,0.434 c 3.761,7.77 5.781,18.276 13.506,23.361 -2.416,7.309 -3.268,14.665 -3.869,22.3 -0.225,2.863 0.237,5.944 0.516,8.8 1.249,12.791 5.731,25.05 14.348,34.771 3.314,3.739 7.779,6.422 12.379,8.269 l 0.998,8.658 c 0.966,6.037 -0.728,12.377 0.117,18.305 0.475,3.328 0.354,7.905 -0.358,11.158 -0.575,2.629 -0.424,5.33 -1.035,8 l -2.334,13.733 c -0.133,0.892 -0.415,1.652 -0.642,2.517 l -0.266,1.4 -0.641,2.839 c -0.194,0.994 -0.495,1.889 -0.833,2.839 l -3.331,11.852 -5.939,16.82 c -0.646,1.498 -1.685,3.529 -1.392,5.147 1.278,-0.28 2.164,-1.294 3.114,-2.138 -0.961,1.636 -1.805,3.428 -2.864,4.991 -0.96,1.417 -2.172,2.582 -2.89,4.154 l -2.32,2.257 c -3.52,0.676 -9.953,11.168 -12.28,14.61 l -13.26,20.914 -14.948,34.656 c -9.873,5.961 -19.48,12.592 -29.225,18.787 -3.512,2.233 -6.893,5.107 -10.759,6.667 l -0.42,0.099 c -3.768,-3.51 -6.977,-4.226 -11.863,-4.96 -7.327,1.504 -12.718,3.133 -17.51,9.312 -0.898,-0.819 -0.93,-1.147 -2.197,-1.254 -2.31,-0.194 -9.017,3.523 -10.787,5.151 l -0.529,0.509 c -0.968,-0.469 -1.845,-0.367 -2.762,-0.729 -0.873,-0.344 -0.974,-0.548 -1.359,-1.383 l -0.462,-0.994 c -2.452,-4.413 0.419,-10.697 -1.575,-15.509 l -0.24,-0.537 c -0.657,-1.665 -1.686,-2.936 -2.754,-4.36 l -0.958,0.11 c -0.801,1.491 -0.954,2.504 -1.026,4.185 -0.354,-3.159 -1.852,-5.853 -3.38,-8.592 l 0.37,-0.937 c -0.557,-2.237 -0.251,-4.89 -0.215,-7.195 2.154,-3.398 4.594,-6.121 7.415,-8.961 l -0.817,-1.994 c 11.016,-4.719 20.991,-11.169 30.863,-17.891 11.774,-9.38 22.234,-19.193 31.462,-31.153 32.193,-41.721 32.484,-97.714 32.052,-147.956 -0.128,-14.866 -0.647,-29.761 -1.686,-44.593 -0.407,-5.814 -0.476,-11.524 -1.224,-17.322 z"
     id="path84"
     style="fill:url(#gradient_10)" />
  <path
     fill="#fefefd"
     d="m 261.31822,636.43681 c 2.301,0.236 4.983,0.908 7.041,1.997 2.333,1.236 4.209,3.721 4.957,6.241 0.684,2.307 0.557,3.96 -0.598,6.097 -2.511,4.643 -6.202,5.99 -10.936,7.534 -2.393,-0.259 -5.381,-0.959 -7.477,-2.134 -2.214,-1.242 -4.296,-4.396 -4.859,-6.818 -0.514,-2.209 0.026,-4.628 1.207,-6.526 2.363,-3.798 6.583,-5.291 10.665,-6.391 z"
     id="path85" />
  <path
     fill="#fefefd"
     d="m 290.98122,586.90281 c 2.523,-0.067 5.095,-0.199 7.587,0.276 4.06,0.774 6.881,2.915 9.001,6.453 1.359,2.266 2.295,6.338 1.48,8.936 l -0.19,0.536 c -1.748,5.032 -5.551,7.158 -9.997,9.489 -3.53,0.695 -6.329,0.848 -9.79,-0.332 -3.64,-1.239 -6.033,-3.609 -7.62,-7.128 -1.29,-2.86 -0.944,-7.245 0.221,-10.058 1.879,-4.538 5.052,-6.341 9.308,-8.172 z"
     id="path86" />
  <path
     fill="#f58434"
     d="m 257.94922,677.19581 c 8.407,-6.4 16.715,-13.343 23.942,-21.062 8.055,-8.605 15.183,-18.491 21.832,-28.221 l 5.392,5.626 -14.948,34.656 c -9.873,5.961 -19.48,12.592 -29.225,18.787 -3.512,2.233 -6.893,5.107 -10.759,6.667 l -0.42,0.099 c -3.768,-3.51 -6.977,-4.226 -11.863,-4.96 z"
     id="path87" />
  <path
     fill="#e84130"
     d="m 320.88322,501.52681 c 5.202,-0.651 10.646,-0.447 15.732,0.809 2.443,0.603 4.778,1.304 7.027,2.455 3.366,1.722 7.425,4.61 8.398,8.464 0.508,2.013 0.082,4.378 -1.11,6.069 -3.953,5.608 -11.191,7.304 -17.552,8.4 -8.957,1.485 -19.536,0.113 -27.075,-5.226 -2.46,-1.743 -4.86,-4.093 -5.242,-7.222 -0.236,-1.936 0.409,-3.622 1.554,-5.145 4.519,-6.013 11.241,-7.593 18.268,-8.604 z"
     id="path88" />
  <path
     fill="#f4a33e"
     d="m 233.97722,637.71881 0.44,-0.059 c 1.968,-0.313 2.807,-1.077 4.278,-2.329 l 5.13,-4.272 0.8,0.549 -0.293,1.393 c 0.526,0.797 0.957,1.376 1.666,2.024 1.57,1.435 1.9,3.879 3.787,4.903 0.261,1.328 0.483,1.235 -0.165,2.426 -0.392,0.721 -0.518,1.277 -1,2 -0.003,1.184 0.176,1.482 -0.5,2.5 0.058,1.18 0.092,2.133 0.5,3.25 l 0.247,0.747 c 0.979,2.402 2.689,4.677 4.735,6.255 l 2.413,6.164 c 0.66,1.475 0.647,2.138 0.79,3.727 l 0.384,1.584 0.227,0.903 c 0.438,1.604 1.095,2.562 2.114,3.825 l 1.062,-0.044 0.023,1.089 -0.625,0.003 c -0.879,0.911 -1.439,1.725 -2.041,2.839 l -16.049,11.592 c -7.327,1.504 -12.718,3.133 -17.51,9.312 -0.898,-0.819 -0.93,-1.147 -2.197,-1.254 -2.31,-0.194 -9.017,3.523 -10.787,5.151 l -0.529,0.509 c -0.968,-0.469 -1.845,-0.367 -2.762,-0.729 -0.873,-0.344 -0.974,-0.548 -1.359,-1.383 l -0.462,-0.994 c -2.452,-4.413 0.419,-10.697 -1.575,-15.509 l -0.24,-0.537 c -0.657,-1.665 -1.686,-2.936 -2.754,-4.36 l -0.958,0.11 c -0.801,1.491 -0.954,2.504 -1.026,4.185 -0.354,-3.159 -1.852,-5.853 -3.38,-8.592 l 0.37,-0.937 c -0.557,-2.237 -0.251,-4.89 -0.215,-7.195 2.154,-3.398 4.594,-6.121 7.415,-8.961 l -0.817,-1.994 c 11.016,-4.719 20.991,-11.169 30.863,-17.891 z"
     id="path89" />
  <path
     fill="#bf2527"
     d="m 526.15822,230.74281 c 4.65,0.891 9.119,2.477 13.696,3.668 33.715,8.774 64.831,23.295 96.6,37.124 l 0.534,-0.3 c 3.199,3.292 8.936,5.244 13.04,7.442 6.641,3.559 13.117,7.438 19.832,10.857 7.919,4.032 16.065,7.546 24.068,11.406 4.085,1.97 10.54,6.601 14.893,6.999 l 0.454,0.001 0.139,0.546 50.519,23.083 c -6.271,16.59 -16.125,29.494 -28.299,42.247 -7.789,8.16 -15.894,16.112 -24.769,23.103 -17.776,14.004 -38.09,24.525 -58.641,33.779 -18.942,8.529 -38.471,15.109 -58.476,20.623 -6.422,1.77 -12.853,3.788 -19.366,5.18 l 0.505,-6.46 54.534,-17.1 c 6.363,-2.094 12.684,-5.35 18.789,-8.123 6.303,-2.863 12.859,-5.46 19.005,-8.635 15.642,-8.082 31.76,-18.279 45.188,-29.694 12.439,-10.573 22.113,-22.156 30.833,-35.942 1.863,-2.944 4.983,-7.206 5.314,-10.693 l -0.685,-0.726 c -0.895,0.425 -1.851,0.787 -2.518,1.546 l -0.269,0.382 c -9.95,4.546 -18.724,11.433 -28.657,16.132 -39.758,18.808 -83.71,30.752 -127.482,34.828 4.135,-6.622 7.35,-13.594 8.29,-21.407 0.994,-8.254 -0.83,-15.272 -6.093,-21.821 -5.349,-6.656 -12.38,-11.506 -19.608,-15.886 -34.6,-20.967 -77.565,-27.111 -117.116,-31.65 l -0.173,-0.37 c 0.192,-1.205 0.667,-1.22 1.587,-1.952 11.463,-0.504 23.529,-4.303 33.572,-9.782 16.553,-9.031 30.317,-27.983 37.033,-45.315 1.639,-4.231 2.479,-8.737 3.727,-13.09 z"
     id="path90" />
  <path
     fill="#a89d99"
     d="m 636.98822,271.23481 c 3.199,3.292 8.936,5.244 13.04,7.442 6.641,3.559 13.117,7.438 19.832,10.857 7.919,4.032 16.065,7.546 24.068,11.406 4.085,1.97 10.54,6.601 14.893,6.999 l 0.454,0.001 0.139,0.546 c -0.62,7.686 -1.895,15.482 -5.138,22.546 -4.008,8.729 -12.459,16.995 -21.598,20.238 -8.74,3.102 -17.958,2.33 -26.272,-1.766 -12.294,-6.056 -21.77,-17.183 -26.074,-30.208 -3.711,-11.232 -3.888,-23.783 0.07,-35.001 1.591,-4.51 3.905,-8.519 6.052,-12.76 z"
     id="path91" />
  <path
     fill="#a41a1f"
     d="m 150.72622,227.85981 0.86,-0.696 c 10.615,-8.426 21.813,-15.158 35.759,-13.544 4.152,1.387 8.479,2.653 12.457,4.484 14.148,6.51 24.298,16.664 31.28,30.579 1.352,2.695 2.567,5.264 3.268,8.208 l 0.355,0.092 c 6.148,-3.293 12.962,-5.537 19.41,-8.162 25.064,-10.203 51.804,-18.245 78.479,-22.895 8.223,-1.434 16.492,-2.877 24.854,-3.134 l 0.253,0.116 c 4.175,23.957 16.787,46.757 36.863,60.833 17.645,12.372 36.007,16.182 57.262,15.189 -0.92,0.732 -1.395,0.747 -1.587,1.952 l 0.173,0.37 c -21.97,-1.41 -44.031,-0.47 -65.905,1.799 -28.289,2.935 -56.523,8.239 -82.642,19.841 -10.652,4.732 -20.964,10.47 -29.809,18.155 -6.929,6.02 -13.86,14.015 -14.441,23.619 -0.188,3.117 -0.091,6.391 0.602,9.438 l 0.178,0.81 c 2.494,10.917 9.87,19.542 19.148,25.46 -44.171,-8.824 -123.012,-19.132 -149.717,-59.444 -4.432,-6.691 -7.699,-14.239 -10.156,-21.86 2.707,-1.311 5.373,-2.672 8.243,-3.596 -3.225,-6.291 -5.012,-11.699 -6.302,-18.644 -3.943,-21.227 4.749,-38.703 16.348,-55.652 z"
     id="path92" />
  <path
     fill="#a89d99"
     d="m 234.35022,256.89081 0.355,0.092 c 6.019,20.391 4.308,39.975 -6.08,58.75 -7.778,14.06 -22.026,24.956 -37.448,29.193 -14.068,3.865 -29.961,1.443 -42.519,-5.782 -9.81,-5.644 -16.958,-14.088 -22.745,-23.67 8.217,-3.451 16.171,-8.298 23.952,-12.666 11.591,-6.508 23.185,-13.064 34.872,-19.396 9.251,-5.012 18.51,-10.14 27.856,-14.967 7.032,-3.631 15.813,-6.43 21.757,-11.554 z"
     id="path93" />
  <path
     fill="#fefefd"
     d="m 150.72622,227.85981 0.86,-0.696 c 10.615,-8.426 21.813,-15.158 35.759,-13.544 4.152,1.387 8.479,2.653 12.457,4.484 14.148,6.51 24.298,16.664 31.28,30.579 1.352,2.695 2.567,5.264 3.268,8.208 -5.944,5.124 -14.725,7.923 -21.757,11.554 -9.346,4.827 -18.605,9.955 -27.856,14.967 -11.687,6.332 -23.281,12.888 -34.872,19.396 -7.781,4.368 -15.735,9.215 -23.952,12.666 -3.225,-6.291 -5.012,-11.699 -6.302,-18.644 -3.943,-21.227 4.749,-38.703 16.348,-55.652 z"
     id="path94" />
  <path
     fill="#f0cc93"
     d="m 318.17822,387.54781 0.151,-1.694 c 3.575,-2.097 7.701,-3.377 11.553,-4.87 13.655,-5.292 27.584,-8.849 41.773,-12.293 l 5.949,-1.154 c 11.413,-2.272 22.622,-4.564 34.263,-5.573 4.611,-0.4 9.458,-0.114 14.092,-0.093 16.273,0.072 32.953,1.544 48.906,4.9 l 44,10.203 c 12.63,4.177 24.283,8.597 35.994,14.984 2.198,1.199 5.945,2.718 7.154,4.88 -1.429,7.974 -0.531,16.663 -0.666,24.766 -0.067,4.011 -0.733,7.983 -0.931,11.986 -0.202,4.081 0.007,8.18 -0.123,12.264 -0.523,16.403 -2.497,32.83 -2.901,49.25 -0.7,28.432 3.287,57.958 9.232,85.718 1.814,8.47 4.079,17.07 7.048,25.213 1.408,3.864 3.101,7.573 4.94,11.247 1.761,3.517 3.737,6.722 4.041,10.723 -6.143,-5.629 -9.893,-13.139 -15.057,-19.581 -1.849,-3.735 -3.719,-7.458 -5.592,-11.182 -0.667,-1.326 -1.402,-3.446 -2.53,-4.37 0.35,4.112 3.562,10.048 5.096,14.074 4.27,11.2 8.474,22.425 12.708,33.639 l -1.184,2.085 c -3.043,-8.505 -5.727,-16.342 -9.993,-24.368 -6.722,4.018 -12.713,9.286 -20.399,11.534 -11.022,3.225 -21.386,2.843 -32.727,2.465 l -0.887,-0.715 -0.754,0.297 -9.459,-1.883 c -2.418,-0.549 -2.954,-0.33 -4.3,-2.475 0.08,-0.552 0.11,-1.044 0.064,-1.601 -0.4,-4.853 1.966,-11.623 0.285,-16.07 l -0.849,-0.349 c -3.403,18.195 -7.729,37.019 -17.355,53.065 -2.445,4.075 -5.046,8.181 -9.056,10.896 -3.188,2.158 -6.742,3.527 -10.393,4.671 -5.516,-1.877 -11.349,-6.248 -14.137,-11.497 -3.75,-7.169 -4.721,-13.04 -3.44,-21.009 1.291,-8.036 2.612,-15.736 2.821,-23.896 0.1,-3.894 0.525,-9.839 -2.609,-12.729 -2.07,-1.909 -5.42,-2.447 -8.041,-1.622 -2.249,0.707 -4.271,2.669 -6.165,4.035 -1.905,1.374 -3.99,2.517 -6.053,3.634 -16.513,8.941 -34.23,14.68 -53.009,16.185 -2.699,1.415 -5.123,2.485 -8.082,3.252 l -6.339,-1.371 c -7.38,1.037 -16.198,-1.234 -23.621,-1.999 4.217,-10.297 8.849,-20.444 13.165,-30.702 3.365,-7.997 6.765,-16.061 8.59,-24.565 -1.388,2.543 -2.523,4.729 -4.383,6.985 -2.796,0.108 -3.045,0.067 -4.916,2.266 l -0.937,1.218 -0.386,0.291 c -0.95,0.844 -1.836,1.858 -3.114,2.138 -0.293,-1.618 0.746,-3.649 1.392,-5.147 l 5.939,-16.82 3.331,-11.852 c 0.338,-0.95 0.639,-1.845 0.833,-2.839 l 0.641,-2.839 0.266,-1.4 c 0.227,-0.865 0.509,-1.625 0.642,-2.517 l 2.334,-13.733 c 0.611,-2.67 0.46,-5.371 1.035,-8 0.712,-3.253 0.833,-7.83 0.358,-11.158 -0.845,-5.928 0.849,-12.268 -0.117,-18.305 l -0.998,-8.658 c -4.6,-1.847 -9.065,-4.53 -12.379,-8.269 -8.617,-9.721 -13.099,-21.98 -14.348,-34.771 -0.279,-2.856 -0.741,-5.937 -0.516,-8.8 0.601,-7.635 1.453,-14.991 3.869,-22.3 -7.725,-5.085 -9.745,-15.591 -13.506,-23.361 z"
     id="path95" />
  <path
     fill="#fefefd"
     d="m 547.38422,595.88181 4.231,0.131 c 3.18,0.522 6.253,3.266 7.93,5.858 0.6,0.928 0.397,3.812 0.076,4.908 -1.129,3.855 -4.242,5.327 -7.493,7.048 -1.767,0.1 -3.771,-0.084 -5.513,-0.453 -2.105,-0.445 -4.319,-2.27 -5.358,-4.125 -1.176,-2.1 -1.602,-4.201 -0.888,-6.545 1.135,-3.729 3.759,-5.094 7.015,-6.822 z"
     id="path96" />
  <path
     fill="#c7686c"
     d="m 497.85622,581.26281 c 1.553,3.572 2.041,7.64 2.882,11.433 1.388,6.262 2.822,12.604 4.575,18.774 1.15,4.049 2.284,8.073 3.758,12.019 1.001,2.68 2.446,5.291 3.017,8.097 l -0.754,0.297 -9.459,-1.883 c -2.418,-0.549 -2.954,-0.33 -4.3,-2.475 0.08,-0.552 0.11,-1.044 0.064,-1.601 -0.4,-4.853 1.966,-11.623 0.285,-16.07 l -0.849,-0.349 c 0.741,-3.657 0.584,-7.516 0.643,-11.235 0.089,-5.669 0.156,-11.338 0.138,-17.007 z"
     id="path97" />
  <path
     fill="#fefefd"
     d="m 350.85322,627.91281 c -0.034,-2.428 -0.457,-5.762 0.341,-8.056 1.208,-3.473 3.499,-5.722 6.915,-7.027 2.232,-0.854 6.173,-0.064 8.31,0.925 2.448,1.133 4.03,3.441 4.919,5.923 1.371,3.828 -0.02,8.046 -1.7,11.56 -2.699,1.415 -5.123,2.485 -8.082,3.252 l -6.339,-1.371 z"
     id="path98" />
  <path
     fill="#e84130"
     d="m 523.83822,502.55881 c 7.142,0.341 15.035,1.021 20.725,5.829 2.004,1.693 3.706,4.146 3.834,6.832 0.11,2.322 -0.278,3.933 -1.866,5.678 -5.604,6.162 -14.687,7.148 -22.545,7.49 -6.742,-0.247 -14.898,-1.332 -20.495,-5.474 -2.527,-1.871 -3.615,-3.878 -3.982,-6.965 -0.258,-2.177 0.62,-3.545 1.963,-5.17 5.313,-6.428 14.622,-7.538 22.366,-8.22 z"
     id="path99" />
  <path
     d="m 486.96622,381.89381 c 5.101,0.301 8.706,0.936 13.149,3.556 11.324,6.68 17.733,20.533 20.884,32.737 4.372,16.936 3.014,38.589 -6.09,53.811 -4.845,8.099 -11.242,12.563 -20.415,14.763 -2.756,0.136 -5.413,0.169 -8.129,-0.429 -7.449,-1.64 -14.714,-8.774 -18.639,-15.103 -9.911,-15.981 -11.948,-36.767 -7.898,-54.875 1.501,-6.706 4.151,-13.027 7.573,-18.975 4.574,-7.953 10.726,-13.077 19.565,-15.485 z"
     id="path100" />
  <path
     fill="#fefefd"
     d="m 491.43322,394.91681 c 2.243,0.336 4.546,0.065 6.755,0.746 5.58,1.72 9.926,6.099 12.557,11.195 3.195,6.188 4.623,15.548 2.415,22.225 l -0.273,0.771 -0.492,1.467 c -1.57,4.102 -4.915,5.605 -8.645,7.283 -2.423,-0.009 -4.812,-0.025 -7.135,-0.824 -5.097,-1.751 -9.748,-6.771 -12.085,-11.526 -3.288,-6.688 -4.925,-15.67 -2.215,-22.805 1.762,-4.64 4.786,-6.666 9.118,-8.532 z"
     id="path101" />
  <path
     d="m 331.89722,411.34281 c 4.087,-10.961 10.996,-22.597 22.218,-27.425 4.755,-2.046 9.733,-2.08 14.528,-0.138 10.548,4.272 17.067,14.136 21.234,24.324 7.198,17.602 7.201,38.956 -0.183,56.49 -3.761,8.93 -9.617,16.893 -18.94,20.503 -4.822,1.867 -10.56,1.929 -15.483,0.386 -4.6,-1.847 -9.065,-4.53 -12.379,-8.269 -8.617,-9.721 -13.099,-21.98 -14.348,-34.771 -0.279,-2.856 -0.741,-5.937 -0.516,-8.8 0.601,-7.635 1.453,-14.991 3.869,-22.3 z"
     id="path102" />
  <path
     fill="#fefefd"
     d="m 365.46222,395.38581 6.954,0.01 c 2.554,1.341 4.897,2.968 6.637,5.305 3.993,5.362 4.998,13.109 4.006,19.568 l -0.133,0.835 c -0.322,2.093 -0.782,4.022 -1.563,6 -1.881,4.766 -6.056,8.54 -10.686,10.527 -2.154,-0.075 -5.269,0.16 -7.27,-0.605 -3.985,-1.524 -7.231,-5.121 -8.983,-8.922 -2.84,-6.163 -3.177,-14.212 -0.65,-20.548 2.47,-6.195 5.559,-9.46 11.688,-12.17 z"
     id="path103" />
</svg>
