<?xml version="1.0" standalone="no"?>
<!--Created with Inkscape (http://www.inkscape.org/)-->
<svg xmlns="http://www.w3.org/2000/svg" xmlns:xlink="http://www.w3.org/1999/xlink" viewBox="0 0 48 48">
  <defs>
    <linearGradient id="p">
      <stop offset="0" stop-color="white" stop-opacity="1"/>
      <stop offset="1" stop-color="white" stop-opacity="0"/>
    </linearGradient>
    <linearGradient id="o">
      <stop offset="0" stop-color="#e2d240" stop-opacity="1"/>
      <stop offset="1" stop-color="#99870b" stop-opacity="1"/>
    </linearGradient>
    <linearGradient id="n">
      <stop offset="0" stop-color="#f7f7f7" stop-opacity="0"/>
      <stop offset="0.23684211" stop-color="#f7f7f7" stop-opacity="1"/>
      <stop offset="0.799169" stop-color="#f7f7f7" stop-opacity="1"/>
      <stop offset="1" stop-color="#f7f7f7" stop-opacity="0"/>
    </linearGradient>
    <linearGradient id="l">
      <stop offset="0" stop-color="#959595" stop-opacity="0"/>
      <stop offset="0.16066483" stop-color="#959595" stop-opacity="1"/>
      <stop offset="0.7631579" stop-color="#959595" stop-opacity="1"/>
      <stop offset="1" stop-color="#959595" stop-opacity="0"/>
    </linearGradient>
    <linearGradient id="m">
      <stop offset="0" stop-color="#b4b4b4" stop-opacity="0"/>
      <stop offset="0.11842106" stop-color="#b4b4b4" stop-opacity="1"/>
      <stop offset="0.88400275" stop-color="#b4b4b4" stop-opacity="1"/>
      <stop offset="1" stop-color="#b4b4b4" stop-opacity="0"/>
    </linearGradient>
    <linearGradient id="k">
      <stop offset="0" stop-color="#616161" stop-opacity="0"/>
      <stop offset="0.14300555" stop-color="#616161" stop-opacity="1"/>
      <stop offset="0.77631581" stop-color="#616161" stop-opacity="1"/>
      <stop offset="1" stop-color="#616161" stop-opacity="0"/>
    </linearGradient>
    <linearGradient id="j">
      <stop offset="0" stop-color="#959595" stop-opacity="1"/>
      <stop offset="0.5" stop-color="#dbdbdb" stop-opacity="1"/>
      <stop offset="1" stop-color="#959595" stop-opacity="1"/>
    </linearGradient>
    <linearGradient id="i">
      <stop offset="0" stop-color="#ffa740" stop-opacity="1"/>
      <stop offset="1" stop-color="#bf731a" stop-opacity="1"/>
    </linearGradient>
    <linearGradient id="d">
      <stop offset="0" stop-color="#ffa740" stop-opacity="1"/>
      <stop offset="1" stop-color="#ca6b18" stop-opacity="1"/>
    </linearGradient>
    <linearGradient id="h">
      <stop offset="0" stop-color="white" stop-opacity="1"/>
      <stop offset="1" stop-color="white" stop-opacity=".18431373"/>
    </linearGradient>
    <linearGradient id="g">
      <stop offset="0.00000000" stop-color="#000" stop-opacity=".48958334"/>
      <stop offset="1" stop-color="#000" stop-opacity="0"/>
    </linearGradient>
    <linearGradient id="b">
      <stop offset="0" stop-color="#fff" stop-opacity="1"/>
      <stop offset="1" stop-color="#fff" stop-opacity="0"/>
    </linearGradient>
    <linearGradient id="a">
      <stop offset="0.00000000" stop-color="#000" stop-opacity=".32291666"/>
      <stop offset="1" stop-color="#000" stop-opacity="0"/>
    </linearGradient>
    <linearGradient id="f">
      <stop offset="0.00000000" stop-color="#000" stop-opacity=".73958331"/>
      <stop offset="1" stop-color="#000" stop-opacity="0"/>
    </linearGradient>
    <linearGradient id="c">
      <stop offset="0.00000000" stop-color="#fff" stop-opacity=".61458331"/>
      <stop offset="1" stop-color="#fff" stop-opacity="0"/>
    </linearGradient>
    <linearGradient id="e">
      <stop offset="0" stop-color="#ae5b00" stop-opacity="1"/>
      <stop offset="1" stop-color="#ae5b00" stop-opacity="0"/>
    </linearGradient>
    <radialGradient xlink:href="#a" id="x" gradientUnits="userSpaceOnUse" gradientTransform="scale(2.110067,0.473919)" cx="24.734711" cy="210.29031" fx="24.734711" fy="210.29031" r="20.929369"/>
    <linearGradient xlink:href="#b" id="D" gradientUnits="userSpaceOnUse" gradientTransform="matrix(0.706546,0,0,0.210933,1.119117,-7.05839)" x1="34.211731" y1="28.907038" x2="37.014332" y2="52.198448"/>
    <linearGradient xlink:href="#c" id="C" gradientUnits="userSpaceOnUse" gradientTransform="matrix(0.48506,0,0,0.27789,1.232534,-4.569941)" x1="30.223124" y1="28.559177" x2="30.810305" y2="95.25663"/>
    <linearGradient xlink:href="#d" id="B" gradientUnits="userSpaceOnUse" gradientTransform="matrix(0.416758,0,0,0.345052,1.803066,-7.068655)" x1="42.137558" y1="68.160683" x2="42.137558" y2="105.10196"/>
    <linearGradient xlink:href="#e" gradientUnits="userSpaceOnUse" gradientTransform="matrix(0.415921,0,0,0.345747,1.803066,-6.312518)" x1="29.539867" y1="74.338982" x2="7.0335331" y2="73.219803"/>
    <linearGradient xlink:href="#f" id="A" gradientUnits="userSpaceOnUse" gradientTransform="matrix(0.401374,0,0,0.388899,2.285264,-7.333102)" x1="22.531561" y1="95.898132" x2="49.017395" y2="27.309816"/>
    <linearGradient xlink:href="#g" id="y" gradientUnits="userSpaceOnUse" gradientTransform="matrix(0.504376,0,0,0.243023,6.993797,-8.60267)" x1="42.721756" y1="178.63835" x2="62.504456" y2="157.02299"/>
    <linearGradient xlink:href="#h" id="E" x1="17.033184" y1="38.662212" x2="56.610294" y2="108.22483" gradientUnits="userSpaceOnUse" gradientTransform="matrix(0.336561,0,0,0.332684,-0.2217,-5.861332)"/>
    <linearGradient xlink:href="#i" id="z" x1="113.84419" y1="76.00531" x2="113.84419" y2="101.19212" gradientUnits="userSpaceOnUse" gradientTransform="matrix(0.334232,0,0,0.333743,-8.232096e-2,-6.230457)"/>
    <linearGradient xlink:href="#j" id="q" gradientUnits="userSpaceOnUse" gradientTransform="matrix(1,0,0,1.249567,3,-33.71216)" x1="46.60952" y1="100.5" x2="57.476986" y2="100.5"/>
    <linearGradient xlink:href="#k" id="r" gradientUnits="userSpaceOnUse" x1="7.4246211" y1="97.240227" x2="105.00536" y2="116.74023"/>
    <linearGradient xlink:href="#l" id="s" gradientUnits="userSpaceOnUse" x1="7.4246211" y1="109.61523" x2="105.00536" y2="109.61523"/>
    <linearGradient xlink:href="#m" id="t" gradientUnits="userSpaceOnUse" x1="7.4246211" y1="108.90812" x2="105.00536" y2="108.90812"/>
    <linearGradient xlink:href="#n" id="u" gradientUnits="userSpaceOnUse" x1="7.4246211" y1="107.67068" x2="105.00536" y2="107.67068"/>
    <linearGradient xlink:href="#o" id="v" gradientUnits="userSpaceOnUse" x1="54" y1="101.5" x2="50.5" y2="120.5"/>
    <linearGradient xlink:href="#p" id="w" gradientUnits="userSpaceOnUse" x1="45.103493" y1="97.702705" x2="43.400333" y2="105.06275"/>
  </defs>
  <metadata/>
  <g transform="matrix(0.339282,0,0,0.33932,0.704637,4.28344)">
    <path d="M 46.91169,75.502521 L 65.13961,75.502521 L 65.13961,105.54415 C 65.13961,112.95191 46.91169,111.19251 46.91169,105.54415 L 46.91169,75.502521 z " fill="url(#q)" fill-opacity="1" stroke="#606060" stroke-width="3.30961037" stroke-linecap="round" stroke-linejoin="miter" stroke-miterlimit="4" stroke-dashoffset="0" stroke-opacity="1"/>
    <g transform="translate(1.5,0.5)">
      <path d="M 105.00536,105.37687 L 7.4246212,91.144661 L 7.4246212,104.73166 L 105.00536,128.33579 L 105.00536,105.37687 z " fill="url(#r)" fill-opacity="1" fill-rule="evenodd" stroke="none" stroke-width="3" stroke-linecap="butt" stroke-linejoin="miter" stroke-miterlimit="4" stroke-dasharray="none" stroke-opacity="1"/>
      <path d="M 105.00536,108.90812 L 7.4246212,92.644661 L 7.4246212,102.54416 L 105.00536,126.58579 L 105.00536,108.90812 z " fill="url(#s)" fill-opacity="1" fill-rule="evenodd" stroke="none" stroke-width="3" stroke-linecap="butt" stroke-linejoin="miter" stroke-miterlimit="4" stroke-dasharray="none" stroke-opacity="1"/>
      <path d="M 105.00536,112.42156 L 7.4246212,94.765981 L 7.4246212,100.02509 L 105.00536,123.05026 L 105.00536,112.42156 z " fill="url(#t)" fill-opacity="1" fill-rule="evenodd" stroke="none" stroke-width="3" stroke-linecap="butt" stroke-linejoin="miter" stroke-miterlimit="4" stroke-dasharray="none" stroke-opacity="1"/>
      <path d="M 105.00536,115.24999 L 7.4246212,96.180195 L 7.4246212,97.992158 L 105.00536,119.16117 L 105.00536,115.24999 z " fill="url(#u)" fill-opacity="1" fill-rule="evenodd" stroke="none" stroke-width="3" stroke-linecap="butt" stroke-linejoin="miter" stroke-miterlimit="4" stroke-dasharray="none" stroke-opacity="1"/>
    </g>
    <path d="M 32.085786,112.56066 C 26.576909,103.75835 30.53251,97.853644 33.15901,94.974874 C 35.874466,91.671363 40.777971,94.202649 44.75,94.25 C 44.847923,90.989419 42.568302,84.332346 45.59099,85.25 C 54.257657,91.939973 59.565566,89.137586 66.994796,86.823223 C 72.113896,84.957977 68.355028,93.746293 69,97.25 C 74.165137,97.824753 84.475041,99.088369 82.25,101.75 C 71.594031,108.50119 75.492701,116.814 80.25,123 C 77.593576,128.38566 36.219184,115.42133 32.085786,112.56066 z " fill="url(#v)" fill-opacity="1" fill-rule="evenodd" stroke="#a18a09" stroke-width="2.94723564" stroke-linecap="butt" stroke-linejoin="miter" stroke-miterlimit="4" stroke-dasharray="none" stroke-opacity="1"/>
    <path d="M 36.017846,97.301011 L 57.355304,100.84026 C 59.700167,101.70723 59.629986,108.02792 55.948439,106.92009 L 33.67307,102.43406 C 30.953143,101.78602 33.536688,96.796147 36.017846,97.301011 z " fill="url(#w)" fill-opacity="1" fill-rule="evenodd" stroke="none" stroke-width="1px" stroke-linecap="butt" stroke-linejoin="miter" stroke-opacity="1"/>
  </g>
  <path transform="matrix(0.380397,6.569852e-2,-6.569103e-2,0.38044,7.777437,-10.10847)" d="M 96.354244 99.660515 A 44.162361 9.9188194 0 1 1  8.0295219,99.660515 A 44.162361 9.9188194 0 1 1  96.354244 99.660515 z" opacity=".60792954" fill="url(#x)" fill-opacity="1" stroke="none" stroke-width="3" stroke-linecap="round" stroke-linejoin="round" stroke-miterlimit="4" stroke-opacity="1"/>
  <path d="M 37.582244,27.44669 L 36.570236,28.00167 L 34.208882,27.62766 L 35.111753,33.55144 L 46.87883,29.64247 L 41.977533,28.85827 L 42.08667,28.08612 L 37.582244,27.44669 z " fill="url(#y)" fill-opacity="1" fill-rule="evenodd" stroke="none" stroke-width="1px" stroke-linecap="butt" stroke-linejoin="miter" stroke-opacity="1"/>
  <path d="M 30.892054,0.49222186 L 20.743328,1.3940687 L 19.5193,4.3606705 L 8.6218984,5.2506506 L 8.4436422,7.4934009 L 3.4999999,7.7544613 C 3.4999999,23.657205 5.3206891,26.788643 6.7323813,27.844283 L 34.659202,32.507778 L 34.659202,32.495918 L 34.754276,32.507778 C 36.887363,32.507778 39.507777,13.500643 39.507777,2.7349721 L 32.389407,3.3164263 L 30.892054,0.49222186 z " fill="url(#z)" fill-opacity="1" fill-rule="evenodd" stroke="#833800" stroke-width="1" stroke-linecap="round" stroke-linejoin="round" stroke-miterlimit="4" stroke-dasharray="none" stroke-opacity="1"/>
  <path d="M 10.674757,6.5487531 L 10.127767,24.919956 L 34.066175,30.499993 C 35.521945,22.359827 36.930153,16.520089 37.167261,4.7459728 L 10.674757,6.5487531 z " fill="#fff" fill-opacity="1" fill-rule="evenodd" stroke="#d2d2d2" stroke-width=".99999982" stroke-linecap="butt" stroke-linejoin="miter" stroke-miterlimit="4" stroke-dasharray="none" stroke-opacity="1"/>
  <path d="M 10.123345,6.0910005 L 10,26.010572 L 35.003205,32.0986 C 37.403363,24.368128 38.984181,14.124226 39,4 L 10.123345,6.0910005 z " fill="url(#A)" fill-opacity="1" fill-rule="evenodd" stroke="none" stroke-width=".60000002" stroke-linecap="butt" stroke-linejoin="miter" stroke-miterlimit="4" stroke-opacity="1"/>
  <path d="M 34.110533,8.9654245 C 33.925264,16.921198 33.230527,25.8111 34.30321,31.46037 L 30.200779,30.45744 L 27.406384,9.1541215 L 34.110533,8.9654245 z " fill="#000" fill-opacity=".15999995" fill-rule="evenodd" stroke="none" stroke-width="1px" stroke-linecap="butt" stroke-linejoin="miter" stroke-opacity="1"/>
  <path d="M 4.4999997,8.2989022 L 30.853605,6.4999933 C 31.493443,15.256764 31.408505,25.626248 34.500007,31.499986 L 7.5689256,27.070561 C 4.9142584,22.611455 4.8084953,15.652285 4.4999997,8.2989022 z " fill="url(#B)" fill-opacity="1" fill-rule="evenodd" stroke="url(#linearGradient2845)" stroke-width=".99999952" stroke-linecap="round" stroke-linejoin="round" stroke-miterlimit="4" stroke-dasharray="none" stroke-opacity="1"/>
  <path d="M 3.8074827,9.1492796 C 12.393855,8.7761996 20.675567,8.37308 29.261939,8 C 29.705889,14.494063 30.068598,19.065636 31,24.51835 C 20.288865,17.228932 13.690044,14.170177 5.6858011,22.119661 C 4.9581416,17.786187 4.5351412,13.482753 3.8074827,9.1492796 z " opacity=".52719667" fill="url(#C)" fill-opacity="1" fill-rule="evenodd" stroke="none" stroke-width="1px" stroke-linecap="butt" stroke-linejoin="miter" stroke-opacity="1"/>
  <path d="M 19.899123,4.9767635 L 21.175434,2.0591505 L 30.565439,1.3297465 L 32.115246,3.8826575 L 19.899123,4.9767635 z " fill="url(#D)" fill-opacity="1" fill-rule="evenodd" stroke="none" stroke-width="1px" stroke-linecap="butt" stroke-linejoin="miter" stroke-opacity="1"/>
  <path d="M 7.5342897,27.186035 C 6.1017207,26.934367 4.7083674,23.594805 4.4986805,8.7155944 L 29.952317,7.4999975 C 30.150835,16.581222 31.384289,27.589227 33.499991,31.499999 L 7.5342897,27.186035 z " fill="none" fill-opacity="1" fill-rule="evenodd" stroke="url(#E)" stroke-width=".99999964" stroke-linecap="butt" stroke-linejoin="miter" stroke-miterlimit="4" stroke-dasharray="none" stroke-opacity=".89699557"/>
</svg>
