<?xml version="1.0" encoding="UTF-8" standalone="no"?>
<!-- Created with Inkscape (http://www.inkscape.org/) -->
<svg id="svg9647" xmlns:rdf="http://www.w3.org/1999/02/22-rdf-syntax-ns#" xmlns="http://www.w3.org/2000/svg" height="435" width="300" version="1.1" xmlns:cc="http://creativecommons.org/ns#" xmlns:dc="http://purl.org/dc/elements/1.1/" viewBox="0 0 300 435.00001">
 <metadata id="metadata9652">
  <rdf:RDF>
   <cc:Work rdf:about="">
    <dc:format>image/svg+xml</dc:format>
    <dc:type rdf:resource="http://purl.org/dc/dcmitype/StillImage"/>
    <dc:title/>
   </cc:Work>
  </rdf:RDF>
 </metadata>
 <g id="layer2" fill-rule="evenodd" transform="translate(0 345.72)">
  <path id="path18281" d="m72.666-344.05s36.244 33.976 47.334 55c6.4126 12.156 10 38.332 10 38.332v50h-40s-20.879-4.7165-30-10c-22.259-12.894-60.334-39-60.334-39s49.839 38.33 50.334 69c0.46277 28.699-45.666 61.668-45.666 61.668s31.534-22.833 45.666-31.668c15.519-9.7022 50-16 50-16h30v136s-5.5746 30.568-10.666 43.334c-10.967 27.497-43 74-43 74s38.442-45.666 73.666-45.666 73.666 45.666 73.666 45.666-32.033-46.503-43-74c-5.1-12.759-10.67-43.327-10.67-43.327v-136h30s34.481 6.2978 50 16c14.132 8.8352 45.666 31.668 45.666 31.668s-46.129-32.969-45.666-61.668c0.49455-30.67 50.334-69 50.334-69s-38.074 26.106-60.334 39c-9.1212 5.2835-30 10-30 10h-40v-50s3.5874-26.176 10-38.332c11.09-21.024 47.334-55 47.334-55s-40.747 39.332-77.334 39.332-77.334-39.332-77.334-39.332z"/>
  <circle id="path18298" cx="99" cy="-304.38" r="11.667"/>
  <circle id="circle18300" cy="-325.05" cx="113.33" r="11.667"/>
  <circle id="circle18302" cx="87.333" cy="-327.72" r="11.667"/>
  <circle id="circle18306" cx="42.333" cy="-232.38" r="11.667"/>
  <circle id="circle18308" cy="-211.05" cx="28.667" r="11.667"/>
  <circle id="circle18310" cx="16.333" cy="-234.72" r="11.667"/>
  <circle id="circle18314" cx="32.333" cy="-158.38" r="11.667"/>
  <circle id="circle18316" cy="-137.72" cx="46" r="11.667"/>
  <circle id="circle18318" cx="20.667" cy="-134.72" r="11.667"/>
  <circle id="circle18320" cx="93.333" cy="45.95" r="11.667"/>
  <circle id="circle18322" cy="71.95" cx="91.667" r="11.667"/>
  <circle id="circle18324" cx="115.67" cy="59.95" r="11.667"/>
  <path id="path21329" d="m-0.33398-249.72s21.068 12.049 28.334 15.001c7.2653 2.9514 14.333 2.3333 14.333 2.3333s3.5396 13.772 7.5003 19.5c5.4604 7.8972 21.5 19.167 21.5 19.167s-17.257-9.7228-26.5-13.167c-5.2148-1.9432-16.167-4.167-16.167-4.167s0.45752-3.5359-6.7109-13.444c-4.3813-6.0558-22.29-25.223-22.29-25.223z"/>
  <path id="path21337" d="m73.228-343.52s10.141 9.9594 14.106 15.802c4.882 7.2 11.666 23.34 11.666 23.34s14.214 2.4643 20.72 5.401c7.1028 3.2065 19.386 13.068 19.386 13.068s-13.284-12.438-18.053-20.068c-3.6344-5.8146-7.7195-19.068-7.7195-19.068s-7.3622 0.013-14.333-2.6667c-6.9711-2.6797-25.772-15.802-25.772-15.802z"/>
  <path id="path21345" d="m93.333 45.95s13.134-5.1662 19-9c7.5159-4.912 20.333-17.667 20.333-17.667s-9.5525 14.247-12.666 22.167c-2.3175 5.8944-4.333 18.5-4.333 18.5s-16.686 6.851-24 12c-5.7832 4.0715-15.333 14.667-15.333 14.667s10.369-12.78 13.371-20.309c2.5522-6.4028 3.6288-20.357 3.6288-20.357z"/>
  <path id="path21321" d="m32.333-158.38s8.2798-1.6634 12.199-3.1785c10.268-3.969 29.251-15.333 29.251-15.333s-17.946 15.935-23.784 26.177c-2.245 3.9392-4 13.001-4 13.001s-9.306 1.3455-13.667 3c-9.9169 3.7626-27.784 15.511-27.784 15.511s14.875-16.766 20.98-26.116c2.6841-4.1104 6.803-13.062 6.803-13.062z"/>
  <path id="path21349" d="m300.33-249.72s-21.068 12.049-28.334 15.001c-7.2653 2.9514-14.333 2.3333-14.333 2.3333s-3.5396 13.772-7.5003 19.5c-5.4604 7.8972-21.5 19.167-21.5 19.167s17.257-9.7228 26.5-13.167c5.2148-1.9432 16.167-4.167 16.167-4.167s-0.45752-3.5359 6.711-13.444c4.3813-6.0558 22.29-25.223 22.29-25.223z"/>
  <path id="path21351" d="m226.77-343.52s-10.141 9.9594-14.106 15.802c-4.88 7.2-11.66 23.34-11.66 23.34s-14.214 2.4643-20.72 5.401c-7.1028 3.2065-19.386 13.068-19.386 13.068s13.284-12.438 18.053-20.068c3.6344-5.8146 7.7195-19.068 7.7195-19.068s7.3622 0.013 14.333-2.6667c6.9711-2.6797 25.772-15.802 25.772-15.802z"/>
  <path id="path21353" d="m206.67 45.95s-13.134-5.1662-19-9c-7.5159-4.912-20.333-17.667-20.333-17.667s9.5525 14.247 12.666 22.167c2.3175 5.8944 4.333 18.5 4.333 18.5s16.686 6.851 24 12c5.7832 4.0715 15.333 14.667 15.333 14.667s-10.369-12.78-13.371-20.309c-2.5522-6.4028-3.6288-20.357-3.6288-20.357z"/>
  <path id="path21357" d="m267.67-158.38s-8.2798-1.6634-12.199-3.1785c-10.268-3.969-29.251-15.333-29.251-15.333s17.946 15.935 23.784 26.177c2.245 3.9392 4 13.001 4 13.001s9.306 1.3455 13.667 3c9.9169 3.7626 27.784 15.511 27.784 15.511s-14.875-16.766-20.98-26.116c-2.6841-4.1104-6.803-13.062-6.803-13.062z"/>
  <circle id="circle21359" transform="scale(-1,1)" cy="-304.38" cx="-201" r="11.667"/>
  <circle id="circle21361" cx="-186.67" transform="scale(-1,1)" cy="-325.05" r="11.667"/>
  <circle id="circle21363" transform="scale(-1,1)" cy="-327.72" cx="-212.67" r="11.667"/>
  <circle id="circle21365" transform="scale(-1,1)" cy="-232.38" cx="-257.67" r="11.667"/>
  <circle id="circle21367" cx="-271.33" transform="scale(-1,1)" cy="-211.05" r="11.667"/>
  <circle id="circle21369" transform="scale(-1,1)" cy="-234.72" cx="-283.67" r="11.667"/>
  <circle id="circle21371" transform="scale(-1,1)" cy="-158.38" cx="-267.67" r="11.667"/>
  <circle id="circle21373" cx="-254" transform="scale(-1,1)" cy="-137.72" r="11.667"/>
  <circle id="circle21375" transform="scale(-1,1)" cy="-134.72" cx="-279.33" r="11.667"/>
  <circle id="circle21377" transform="scale(-1,1)" cy="45.95" cx="-206.67" r="11.667"/>
  <circle id="circle21379" cx="-208.33" transform="scale(-1,1)" cy="71.95" r="11.667"/>
  <circle id="circle21381" transform="scale(-1,1)" cy="59.95" cx="-184.33" r="11.667"/>
 </g>
</svg>
