<?xml version="1.0" standalone="no"?>
<!--Created with Inkscape (http://www.inkscape.org/)-->
<svg xmlns="http://www.w3.org/2000/svg" xmlns:xlink="http://www.w3.org/1999/xlink" viewBox="0 0 48 48">
  <defs>
    <linearGradient id="g">
      <stop offset="0" stop-color="white" stop-opacity="1"/>
      <stop offset="1" stop-color="white" stop-opacity=".53725493"/>
    </linearGradient>
    <linearGradient id="f">
      <stop offset="0" stop-color="white" stop-opacity=".74901962"/>
      <stop offset="1" stop-color="white" stop-opacity="0"/>
    </linearGradient>
    <linearGradient id="d">
      <stop offset="0" stop-color="#000" stop-opacity=".46000001"/>
      <stop offset="1" stop-color="#000" stop-opacity="0"/>
    </linearGradient>
    <linearGradient id="c">
      <stop offset="0" stop-color="#fff" stop-opacity="1"/>
      <stop offset="1" stop-color="#fff" stop-opacity="0"/>
    </linearGradient>
    <linearGradient id="b">
      <stop offset="0" stop-color="#fff" stop-opacity="1"/>
      <stop offset="1" stop-color="#fff" stop-opacity="0"/>
    </linearGradient>
    <linearGradient id="a">
      <stop offset="0.0000000" stop-color="#000" stop-opacity=".26041666"/>
      <stop offset="1" stop-color="#000" stop-opacity="0"/>
    </linearGradient>
    <linearGradient id="e">
      <stop offset="0" stop-color="#d1dc1f" stop-opacity="1"/>
      <stop offset="1" stop-color="#a6af17" stop-opacity="1"/>
    </linearGradient>
    <radialGradient xlink:href="#a" id="j" gradientUnits="userSpaceOnUse" gradientTransform="matrix(1,0,0,0.175824,-6.163817e-14,81.60896)" cx="51.752022" cy="99.018867" fx="51.752022" fy="99.018867" r="47.094337"/>
    <linearGradient xlink:href="#b" x1="-4.8199644" y1="44.156403" x2="86.398415" y2="61.867584" gradientUnits="userSpaceOnUse"/>
    <linearGradient xlink:href="#c" id="m" x1="50.514881" y1="-1.380053" x2="64.431267" y2="85.045822" gradientUnits="userSpaceOnUse" gradientTransform="matrix(0.413374,0,0,0.35786,-4.623609,0.604283)"/>
    <linearGradient xlink:href="#d" id="i" x1="73.487869" y1="154.91104" x2="78.663643" y2="89.624825" gradientUnits="userSpaceOnUse" gradientTransform="matrix(0.34824,0,0,0.367937,-0.893814,2.023696)"/>
    <linearGradient xlink:href="#e" id="l" gradientUnits="userSpaceOnUse" gradientTransform="matrix(1.86923e-2,-0.662477,0.66372,1.226491e-2,-13.98709,52.7129)" x1="37.520218" y1="46.576817" x2="43.730457" y2="74.78167"/>
    <linearGradient xlink:href="#e" id="h" gradientUnits="userSpaceOnUse" gradientTransform="matrix(1.544781e-2,-0.549119,0.548515,1.016626e-2,-7.697533,40.14203)" x1="37.520218" y1="46.576817" x2="43.730457" y2="74.78167"/>
    <linearGradient xlink:href="#f" id="k" x1="17.125" y1="4" x2="17.125" y2="26.175789" gradientUnits="userSpaceOnUse"/>
    <linearGradient xlink:href="#g" id="n" x1="11.375" y1="9" x2="21.593128" y2="34.860977" gradientUnits="userSpaceOnUse"/>
  </defs>
  <metadata/>
  <path d="M 8.4659452,7.5727323 C 12.600527,1.8844807 32.014752,2.244306 35.80254,8.0793921 C 39.590326,13.914479 27.00559,32.60485 21.394848,32.500862 C 15.782773,32.396848 4.3313635,13.260985 8.4659452,7.5727323 z " fill="url(#h)" fill-opacity="1" fill-rule="evenodd" stroke="#777f00" stroke-width=".99741226" stroke-linecap="butt" stroke-linejoin="miter" stroke-miterlimit="4" stroke-dasharray="none" stroke-opacity="1"/>
  <path d="M 21.63383,43.978449 C 21.63383,43.978449 42.179042,40.741397 41.998821,37.31393 C 41.8186,33.88646 10.820561,34.64812 11.000783,37.123515 C 11.181003,39.598908 16.227195,44.35928 21.63383,43.978449 z " fill="url(#i)" fill-opacity="1" fill-rule="evenodd" stroke="none" stroke-width=".25pt" stroke-linecap="butt" stroke-linejoin="miter" stroke-opacity="1"/>
  <path style="marker:none" d="M 98.846359 99.018867 A 47.094337 8.280323 0 1 1  4.6576843,99.018867 A 47.094337 8.280323 0 1 1  98.846359 99.018867 z" transform="matrix(-0.339351,0,0,0.362305,38.54361,8.124967)" opacity="1" color="#000" fill="url(#j)" fill-opacity="1" fill-rule="evenodd" stroke="none" stroke-width="2.99999905" stroke-linecap="round" stroke-linejoin="round" marker-start="none" marker-mid="none" marker-end="none" stroke-miterlimit="4" stroke-dasharray="none" stroke-dashoffset="0" stroke-opacity="1" visibility="visible" display="inline" overflow="visible"/>
  <path d="M 9.2954409,8.2097856 C 13.177421,2.8690573 31.405535,3.2068991 34.961908,8.685491 C 38.51828,14.164084 26.702407,31.712568 21.434453,31.614933 C 16.165248,31.517274 5.4134612,13.550515 9.2954409,8.2097856 z " fill="none" fill-opacity="1" fill-rule="evenodd" stroke="url(#k)" stroke-width=".93647546" stroke-linecap="butt" stroke-linejoin="miter" stroke-miterlimit="4" stroke-dasharray="none" stroke-opacity="1"/>
  <path d="M 5.5712161,13.420187 C 10.574187,6.557686 34.066003,6.9917918 38.649344,14.031439 C 43.232682,21.071088 28.004761,43.619791 21.215589,43.494336 C 14.424803,43.36885 0.56824381,20.28269 5.5712161,13.420187 z " fill="url(#l)" fill-opacity="1" fill-rule="evenodd" stroke="#777f00" stroke-width="1.01028585" stroke-linecap="butt" stroke-linejoin="miter" stroke-miterlimit="4" stroke-dasharray="none" stroke-opacity="1"/>
  <path style="marker:none" d="M 37.948295,19.556379 C 37.193848,22.418823 37.012026,25.567217 34.127299,27.444401 C 27.376023,19.969003 12.495659,23.858195 9.988155,28 C 7.763569,25.289418 6.732993,22.789223 6.07285,19.556379 C 5.1297898,10.312695 13.49587,9 22.293493,9 C 31.091117,9 38.702743,11.423893 37.948295,19.556379 z " color="#000" fill="url(#m)" fill-opacity="1" fill-rule="evenodd" stroke="none" stroke-width="2.99999905" stroke-linecap="round" stroke-linejoin="round" marker-start="none" marker-mid="none" marker-end="none" stroke-miterlimit="4" stroke-dashoffset="0" stroke-opacity="1" visibility="visible" display="inline" overflow="visible"/>
  <path d="M 6.4839267,14.119066 C 11.208955,7.6378143 33.395671,8.0478031 37.72438,14.696359 C 42.053088,21.344917 27.671164,42.640915 21.259168,42.522428 C 14.845649,42.403915 1.7588966,20.600318 6.4839267,14.119066 z " fill="none" fill-opacity="1" fill-rule="evenodd" stroke="url(#n)" stroke-width=".9541589" stroke-linecap="butt" stroke-linejoin="miter" stroke-miterlimit="4" stroke-dasharray="none" stroke-opacity="1"/>
</svg>
