<?xml version="1.0" encoding="UTF-8" standalone="no"?>
<!-- Created with Inkscape (http://www.inkscape.org/) -->

<svg
   version="1.1"
   id="svg1"
   viewBox="0 0 2578.965 2579"
   sodipodi:docname="svg.svg"
   inkscape:version="1.4 (e7c3feb100, 2024-10-09)"
   xmlns:inkscape="http://www.inkscape.org/namespaces/inkscape"
   xmlns:sodipodi="http://sodipodi.sourceforge.net/DTD/sodipodi-0.dtd"
   xmlns="http://www.w3.org/2000/svg"
   xmlns:svg="http://www.w3.org/2000/svg">
  <defs
     id="defs1" />
  <sodipodi:namedview
     id="namedview1"
     pagecolor="#ffffff"
     bordercolor="#000000"
     borderopacity="0.25"
     inkscape:showpageshadow="2"
     inkscape:pageopacity="0.0"
     inkscape:pagecheckerboard="0"
     inkscape:deskcolor="#d1d1d1"
     inkscape:zoom="0.14901605"
     inkscape:cx="523.43355"
     inkscape:cy="2972.8341"
     inkscape:window-width="3440"
     inkscape:window-height="1361"
     inkscape:window-x="0"
     inkscape:window-y="282"
     inkscape:window-maximized="1"
     inkscape:current-layer="group-R9">
    <inkscape:page
       x="4.397091e-14"
       y="6.985684e-14"
       inkscape:label="1"
       id="page1"
       width="2578.9648"
       height="1154.2142"
       margin="0"
       bleed="0" />
  </sodipodi:namedview>
  <g
     id="g1"
     inkscape:groupmode="layer"
     inkscape:label="1">
    <g
       id="group-R5"
       transform="translate(-8.9218334e-5,0.00119798)">
      <g
         id="group-R9">
        <g
           id="g22"
           transform="translate(2064.7979,-288.08556)">
          <path
             id="path4"
             d="m -633.31794,828.49862 c 139.79902,-0.52165 279.50875,0.86951 419.39998,6 105.54438,3.87082 261.891222,11.76699 290.399998,19.8 75.000002,-1.2 149.399992,9.6 223.799992,19.2 65.4,12 143.4,11.4 190.2,66.6 40.8,54 21.83598,285.40518 -4.2,353.99998 -15.55453,40.9802 -40.80869,82.7708 -85.2,96 -46.20871,13.7708 -94.13868,18.3292 -141.6,27 -77.34052,14.1295 -155.24748,21.7093 -233.399991,25.2 -163.707099,7.312 -328.309399,5.6611 -492.599989,-0.6 -229.41325,-8.7429 -460.86857,4.0644 -688.79595,-31.8 -61.8748,-9.736 -124.2,-19.8 -181.2,-47.4 -28.2,-16.8 -51.6,-40.2 -70.8,-66.6 -27,-37.8 -41.4,-84 -46.8,-129.6 v -37.8 c 0,0 0.6013,-34.2 0.6,-31.8 -1.2923,-18.596 -2.3987,-37.1604 -2.3987,-55.8 0,0 27,-36 7.2,-31.8 h -4.2 c 6,-33.59998 9.2753,-90.78236 157.5,-112.93395 296.58176,-44.32295 480.2973,-66.98767 662.09466,-67.66603 z"
             style="fill:#59ae5e;fill-opacity:1;fill-rule:nonzero;stroke:none;stroke-width:0.133333"
             sodipodi:nodetypes="sscccssssssccccccccss" />
          <path
             id="path5"
             d="m -1173.9126,963.49862 c 97.8,-9.6 196.2,-5.4 293.99999,0 24,1.8 49.8,0.6 72,13.2 -12,3 -24,5.4 -36,5.4 -107.99999,-1.2 -215.99999,4.8 -323.99999,10.2 -97.2,10.19998 -194.4,22.19998 -288.6,46.19998 1.8,-10.2 0.6,-20.4 3.6,-30 l 3.6,-1.8 c 19.8,-4.2 39.6,-8.99998 58.8,-13.79998 70.8,-17.4 144,-22.8 216.6,-29.4 v 0"
             style="fill:#347942;fill-opacity:1;fill-rule:nonzero;stroke:none;stroke-width:0.133333" />
          <path
             id="path6"
             d="m -1715.1126,1064.8986 c 83.4,-25.8 172.8,-27 258.6,-15.6 v 4.8 c 0.6,2.4 2.3987,93.3 -10.8,120 -41.4,33.6 -61.2,85.8 -67.2,137.4 -1.8,7.2 -5.4,14.4 -10.2,19.8 -35.4,36 -75.6,67.8 -123.6,85.2 -62.4,26.4 -130.8,14.4 -196.2,13.2 -30.6,0 -59.4,-10.2 -90.0004,-12.6 -30.6,-3.6 -63,-5.4 -91.8,-19.2 -14.4,-6 -22.8,-24 -16.2,-39 11.4,-27.6 35.4,-48 56.4,-68.4 52.8,-45.6 99.6004,-96.6 150.6004,-144.6 39.6,-37.2 88.2,-65.4 139.8,-81.6 l 0.6,0.6"
             style="fill:#59ad5f;fill-opacity:1;fill-rule:nonzero;stroke:none;stroke-width:0.133333"
             sodipodi:nodetypes="ccccccccccccccc" />
          <path
             id="path7"
             d="m -1488.3126,1146.4986 c 2.4,-31.8 -5.4,-78.6 32.4,-92.4 0.6,13.2 1.2,27 2.4,40.2 95.4,4.8 190.8,1.2 285.6,5.4 18.6,0.6 37.2,4.2 55.8,9 -6.6,18.6 -27.6,16.8 -44.4,18 -99,2.4 -198.6,-4.8 -297.6,-0.6 0,12.6 0,25.2 0,37.8 -3,2.4 -9.6,7.8 -13.2,10.2 -91.8,-1.2 -178.2,40.2 -253.2,88.8 -9,5.4 -19.2,11.4 -29.4,4.8 1.2,-7.2 2.4,-14.4 7.8,-19.2 67.2,-66 160.8,-96 253.2,-102 h 0.6"
             style="fill:#347b42;fill-opacity:1;fill-rule:nonzero;stroke:none;stroke-width:0.133333" />
          <path
             id="path8"
             d="m 43.482038,1096.0986 c 30,-15 64.800002,-9.6 97.200002,-10.2 134.40201,4.5231 349.05849,34.0583 371.86019,44.1924 -1.8,9 -4.2,18 -6,27 -133.2,-24.6 -251.2602,-35.7924 -385.66019,-46.5924 -25.800003,-3 -55.800002,3 -76.800002,-15 l -0.6,0.6"
             style="fill:#347941;fill-opacity:1;fill-rule:nonzero;stroke:none;stroke-width:0.133333"
             sodipodi:nodetypes="ccccccc" />
          <path
             id="path12"
             d="m -1391.3187,1315.9989 c 44.47,-14.0855 49.8068,0.5909 54.8048,46.4997 -23.4,51 -26.3987,382.8 -59.3987,429.6 -30,46.8 -76.8,79.2 -126.6,101.4 -55.8,24 -111,49.2 -167.4,71.4 -25.2,7.8 -50.4,19.8 -77.4,17.4 -14.4,-0.6 -27,-13.8 -26.4,-28.2 0,-52.8 24.6,-100.8 38.4,-150.6 19.8,-60.6 31.8,-123 50.4,-183.6 26.4,-72 76.2,-133.2 134.4,-181.8"
             style="fill:#59ad5e;fill-opacity:1;fill-rule:nonzero;stroke:none;stroke-width:0.133333"
             sodipodi:nodetypes="cccccccccc" />
          <path
             id="path14"
             d="m -1574.7126,1655.8986 c 21,-51.6 163.2021,-290.6262 202.2021,-330.8262 5.4,8.4 10.2,16.2 16.2,24 -30,44.4 -171.6021,279.2262 -198.0021,325.4262 -6,7.2 -15.6,26.4 -26.4,14.4 -1.8,-11.4 1.8,-22.8 6,-33.6 v 0.6"
             style="fill:#347942;fill-opacity:1;fill-rule:nonzero;stroke:none;stroke-width:0.133333"
             sodipodi:nodetypes="ccccccc" />
        </g>
      </g>
    </g>
  </g>
</svg>
