<?xml version="1.0" encoding="UTF-8" standalone="no"?>
<!-- Created with Inkscape (http://www.inkscape.org/) -->
<svg id="svg15988" xmlns:rdf="http://www.w3.org/1999/02/22-rdf-syntax-ns#" xmlns="http://www.w3.org/2000/svg" height="454" width="284" version="1.1" xmlns:cc="http://creativecommons.org/ns#" xmlns:dc="http://purl.org/dc/elements/1.1/" viewBox="0 0 284 453.99998">
 <metadata id="metadata15993">
  <rdf:RDF>
   <cc:Work rdf:about="">
    <dc:format>image/svg+xml</dc:format>
    <dc:type rdf:resource="http://purl.org/dc/dcmitype/StillImage"/>
    <dc:title/>
   </cc:Work>
  </rdf:RDF>
 </metadata>
 <g id="layer7" transform="translate(-7.0405 7.5494)">
  <g stroke="#000" fill="none">
   <g stroke-width="28">
    <circle id="path21426" cx="150" cy="133.94" r="127"/>
    <path id="path21428" d="m33.045 726.33h240" transform="translate(-3.0452 -592.39)"/>
    <path id="path21430" d="m153.05 606.33v240" transform="translate(-3.0452 -592.39)"/>
   </g>
   <g stroke-width="8">
    <path id="path21434" d="m35 242.69s-1.5999-16.492 0-24.5c2.5138-12.583 6-17.5 6-17.5"/>
    <path id="path21436" d="m102 251.94v37.5"/>
    <path id="path21438" d="m181.75 256.19v48.5"/>
    <path id="path21440" d="m257.04 252.44s1.5999-16.492 0-24.5c-2.5138-12.583-6-17.5-6-17.5"/>
   </g>
  </g>
  <g fill-rule="evenodd">
   <path id="path21442" d="m38.25 203.69s-6.1191 22.23-7.75 24.5c-2.3582 3.2822-7.9643 2.1652-16 18.5-8.5904 17.462-7.5353 48.464-6 54.25 1.4965 5.6398 2.8612 12.099 2.75 18.25-0.0749 4.1436-8.137 36.714-1.75 55.5 4.0431 11.892 22.883 20.597 33.333 16.917 2.8307-0.99686 6.7241-11.244 7.9167-17.667 2.3833-12.835-1.2369-20.658-1.25-31-0.01485-11.716 2.8708-21.111 3-27 0.50164-22.867 2.9997-57.657-4.5-70-1.6521-2.719-9.7422-10.455-10.75-12.75-1.7231-3.9233 1-29.5 1-29.5z"/>
   <path id="path21444" d="m101.83 257.44s-1.5634 15.929-3.1667 21.5c-0.61956 2.1528-4.3818 8.693-6 16.5-1.8599 8.9734-6.0187 18.201-6.6667 24.833-0.69552 7.1187-7.3622 27.393-7.3333 37.5 0.02459 8.6074 2.6667 13.167 2.6667 13.167s-6.2536 9.2336-5.8333 24.667c0.12594 4.6251 1.5451 23.817 3.5 25.667 4.7981 4.5411 11.87 24.488 21 25.167 5.8143 0.43246 9.6189-10.604 12-17.167 1.103-3.0403 0.0403-7.3017 1.1667-10.333 0.85924-2.3126 2.93-3.1104 4-5.3333 1.1111-2.3084 2.7233-13.784 2-20.667-0.23137-2.2018-1.1959-1.7904-1.3333-4-0.17181-2.7624 0.60108-6.0674 0.5-8.8333-0.34282-9.3807-3.0976-17.953-2.8333-21.667 0.8437-11.859 0.77169-19.798-0.5-29.833-0.72325-5.7072 2.6295-14.478 2-21.167-0.69418-7.3761-4.8657-20.905-7.6667-29.333-1.1897-3.58-3.5948-3.3478-4.6667-5.5-1.4721-2.9559-2.8333-15.167-2.8333-15.167z"/>
   <path id="path21446" d="m181.17 257.77-2.5 34.833s-8.3756 11.905-10.833 18.667c-5.4511 14.996-7.7186 31.217-8.1667 47.167-0.14919 5.311 1.6032 10.354 1.6667 15.667 0.21258 17.796-10.449 49.628 5 64.667 15.663 15.247 29.189 4.9472 34-7.1667 5.1483-12.962 6.084-27.559 3.3333-36.5-0.45186-1.4686-3-3.5-3-3.5s1.2544-3.9531 1.5-6c1.0721-8.9361-1.0567-19.836 0.83333-29 2.0118-9.7546 1.9527-17.957 0.66667-27.833-1.9544-15.01 0.74858-25.569-7.8333-37.833-4.8882-6.9859-12.167-22.5-12.167-22.5z"/>
   <path id="path21448" d="m254.5 217.44 1.5 21.5s-6.1219 4.6827-8.3333 11.167c-2.3756 6.9655-3.2341 9.7706-5.8333 17-1.8942 5.2685-1.0097 15.722-6.5 29.5-6.4526 16.193-4.1139 68.388 0.33334 81.667 4.3274 12.921 16.737 23.413 25.167 23.167 4.046-0.11816 13.226-15.691 15.667-25.5 2.9065-11.683 0.4877-34.229-0.33333-39.667-1.3477-8.9254-1.6022-25.723-0.33334-28.333 2.5996-5.3485 1.1342-16.219 0.66667-17.333-3.2818-7.8194-0.70958-15.94-1.5-20-1.6519-8.4845-3.8412-17.5-7.8333-25.167-2.8839-5.5384-7.8333-7-7.8333-7z"/>
  </g>
 </g>
</svg>
