<?xml version="1.0" encoding="UTF-8" standalone="no"?>
<!DOCTYPE svg PUBLIC "-//W3C//DTD SVG 1.0//EN" "http://www.w3.org/TR/2001/PR-SVG-20010719/DTD/svg10.dtd">
<svg width="100%" height="100%" viewBox="2 4 19 11">
  <path style="fill: none; fill-opacity:0; stroke-width: 0.1; stroke: #000000" d="M 2.5 5.95 C 5.75,1.55 4.4,14.1 4.65,14.35 C 4.9,14.6 6.9,11.95 6.95,11.95 C 7,11.95 8.75,14.5 9.05,14.5 C 9.35,14.5 9.75,6.25 11.55,5"/>
  <path style="fill: none; fill-opacity:0; stroke-width: 0.1; stroke: #000000" d="M 10.05 14.5 C 10.85,14.8 11.45,12.8 11.6,12.75 C 11.75,12.7 11.6,14.65 12.6,14.6 C 13.6,14.55 18.6,4.25 15.5,6.55 C 12.4,8.85 14.05,14.9 15.95,14.85 C 17.85,14.8 22.25,4.5 19.3,6.65 C 16.35,8.8 17.4,16 21.25,14.95"/>
</svg>
