<?xml version="1.0" encoding="UTF-8" standalone="no"?>
<!-- Created with Inkscape (http://www.inkscape.org/) -->

<svg
   version="1.1"
   viewBox="0 0 603.31205 1027.4897"
   sodipodi:docname="svg.svg"
   inkscape:version="1.2 (dc2aedaf03, 2022-05-15)"
   id="svg3466"
   xmlns:inkscape="http://www.inkscape.org/namespaces/inkscape"
   xmlns:sodipodi="http://sodipodi.sourceforge.net/DTD/sodipodi-0.dtd"
   xmlns="http://www.w3.org/2000/svg"
   xmlns:svg="http://www.w3.org/2000/svg">
  <defs
     id="defs6">
    <clipPath
       clipPathUnits="userSpaceOnUse"
       id="clipPath735">
      <path
         d="M 0,800 H 799.99997 V 2.0795393e-6 H 0 Z"
         id="path737"
         style="stroke-width:0.999998" />
    </clipPath>
    <clipPath
       clipPathUnits="userSpaceOnUse"
       id="clipPath739">
      <path
         d="M 0,800 H 799.99997 V 2.0795393e-6 H 0 Z"
         id="path741"
         style="stroke-width:0.999998" />
    </clipPath>
    <clipPath
       clipPathUnits="userSpaceOnUse"
       id="clipPath743">
      <path
         d="M 0,800 H 799.99997 V 2.0795393e-6 H 0 Z"
         id="path745"
         style="stroke-width:0.999998" />
    </clipPath>
    <clipPath
       clipPathUnits="userSpaceOnUse"
       id="clipPath747">
      <path
         d="M 0,800 H 799.99997 V 2.0795393e-6 H 0 Z"
         id="path749"
         style="stroke-width:0.999998" />
    </clipPath>
    <clipPath
       clipPathUnits="userSpaceOnUse"
       id="clipPath751">
      <path
         d="M 0,800 H 799.99997 V 2.0795393e-6 H 0 Z"
         id="path753"
         style="stroke-width:0.999998" />
    </clipPath>
    <clipPath
       clipPathUnits="userSpaceOnUse"
       id="clipPath755">
      <path
         d="M 0,800 H 799.99997 V 2.0795393e-6 H 0 Z"
         id="path757"
         style="stroke-width:0.999998" />
    </clipPath>
    <clipPath
       clipPathUnits="userSpaceOnUse"
       id="clipPath759">
      <path
         d="M 0,800 H 799.99997 V 2.0795393e-6 H 0 Z"
         id="path761"
         style="stroke-width:0.999998" />
    </clipPath>
    <clipPath
       clipPathUnits="userSpaceOnUse"
       id="clipPath763">
      <path
         d="M 0,800 H 799.99997 V 2.0795393e-6 H 0 Z"
         id="path765"
         style="stroke-width:0.999998" />
    </clipPath>
    <clipPath
       clipPathUnits="userSpaceOnUse"
       id="clipPath767">
      <path
         d="M 0,800 H 799.99997 V 2.0795393e-6 H 0 Z"
         id="path769"
         style="stroke-width:0.999998" />
    </clipPath>
    <clipPath
       clipPathUnits="userSpaceOnUse"
       id="clipPath771">
      <path
         d="M 0,800 H 799.99997 V 2.0795393e-6 H 0 Z"
         id="path773"
         style="stroke-width:0.999998" />
    </clipPath>
    <clipPath
       clipPathUnits="userSpaceOnUse"
       id="clipPath775">
      <path
         d="M 0,800 H 799.99997 V 2.0795393e-6 H 0 Z"
         id="path777"
         style="stroke-width:0.999998" />
    </clipPath>
    <clipPath
       clipPathUnits="userSpaceOnUse"
       id="clipPath779">
      <path
         d="M 0,800 H 799.99997 V 2.0795393e-6 H 0 Z"
         id="path781"
         style="stroke-width:0.999998" />
    </clipPath>
    <clipPath
       clipPathUnits="userSpaceOnUse"
       id="clipPath783">
      <path
         d="M 0,800 H 799.99997 V 2.0795393e-6 H 0 Z"
         id="path785"
         style="stroke-width:0.999998" />
    </clipPath>
    <clipPath
       clipPathUnits="userSpaceOnUse"
       id="clipPath787">
      <path
         d="M 0,800 H 799.99997 V 2.0795393e-6 H 0 Z"
         id="path789"
         style="stroke-width:0.999998" />
    </clipPath>
    <clipPath
       clipPathUnits="userSpaceOnUse"
       id="clipPath791">
      <path
         d="M 0,800 H 799.99997 V 2.0795393e-6 H 0 Z"
         id="path793"
         style="stroke-width:0.999998" />
    </clipPath>
    <clipPath
       clipPathUnits="userSpaceOnUse"
       id="clipPath795">
      <path
         d="M 0,800 H 799.99997 V 2.0795393e-6 H 0 Z"
         id="path797"
         style="stroke-width:0.999998" />
    </clipPath>
    <clipPath
       clipPathUnits="userSpaceOnUse"
       id="clipPath799">
      <path
         d="M 0,800 H 799.99997 V 2.0795393e-6 H 0 Z"
         id="path801"
         style="stroke-width:0.999998" />
    </clipPath>
    <clipPath
       clipPathUnits="userSpaceOnUse"
       id="clipPath803">
      <path
         d="M 0,800 H 799.99997 V 2.0795393e-6 H 0 Z"
         id="path805"
         style="stroke-width:0.999998" />
    </clipPath>
    <clipPath
       clipPathUnits="userSpaceOnUse"
       id="clipPath807">
      <path
         d="M 0,800 H 799.99997 V 2.0795393e-6 H 0 Z"
         id="path809"
         style="stroke-width:0.999998" />
    </clipPath>
    <clipPath
       clipPathUnits="userSpaceOnUse"
       id="clipPath811">
      <path
         d="M 0,800 H 799.99997 V 2.0795393e-6 H 0 Z"
         id="path813"
         style="stroke-width:0.999998" />
    </clipPath>
    <clipPath
       clipPathUnits="userSpaceOnUse"
       id="clipPath815">
      <path
         d="M 0,800 H 799.99997 V 2.0795393e-6 H 0 Z"
         id="path817"
         style="stroke-width:0.999998" />
    </clipPath>
    <clipPath
       clipPathUnits="userSpaceOnUse"
       id="clipPath819">
      <path
         d="M 0,800 H 799.99997 V 2.0795393e-6 H 0 Z"
         id="path821"
         style="stroke-width:0.999998" />
    </clipPath>
    <clipPath
       clipPathUnits="userSpaceOnUse"
       id="clipPath823">
      <path
         d="M 0,800 H 799.99997 V 2.0795393e-6 H 0 Z"
         id="path825"
         style="stroke-width:0.999998" />
    </clipPath>
    <clipPath
       clipPathUnits="userSpaceOnUse"
       id="clipPath827">
      <path
         d="M 0,800 H 799.99997 V 2.0795393e-6 H 0 Z"
         id="path829"
         style="stroke-width:0.999998" />
    </clipPath>
    <clipPath
       clipPathUnits="userSpaceOnUse"
       id="clipPath831">
      <path
         d="M 0,800 H 799.99997 V 2.0795393e-6 H 0 Z"
         id="path833"
         style="stroke-width:0.999998" />
    </clipPath>
    <clipPath
       clipPathUnits="userSpaceOnUse"
       id="clipPath835">
      <path
         d="M 0,800 H 799.99997 V 2.0795393e-6 H 0 Z"
         id="path837"
         style="stroke-width:0.999998" />
    </clipPath>
    <clipPath
       clipPathUnits="userSpaceOnUse"
       id="clipPath839">
      <path
         d="M 0,800 H 799.99997 V 2.0795393e-6 H 0 Z"
         id="path841"
         style="stroke-width:0.999998" />
    </clipPath>
    <clipPath
       clipPathUnits="userSpaceOnUse"
       id="clipPath843">
      <path
         d="M 0,800 H 799.99997 V 2.0795393e-6 H 0 Z"
         id="path845"
         style="stroke-width:0.999998" />
    </clipPath>
    <clipPath
       clipPathUnits="userSpaceOnUse"
       id="clipPath847">
      <path
         d="M 0,800 H 799.99997 V 2.0795393e-6 H 0 Z"
         id="path849"
         style="stroke-width:0.999998" />
    </clipPath>
    <clipPath
       clipPathUnits="userSpaceOnUse"
       id="clipPath851">
      <path
         d="M 0,800 H 799.99997 V 2.0795393e-6 H 0 Z"
         id="path853"
         style="stroke-width:0.999998" />
    </clipPath>
    <clipPath
       clipPathUnits="userSpaceOnUse"
       id="clipPath855">
      <path
         d="M 0,800 H 799.99997 V 2.0795393e-6 H 0 Z"
         id="path857"
         style="stroke-width:0.999998" />
    </clipPath>
    <clipPath
       clipPathUnits="userSpaceOnUse"
       id="clipPath859">
      <path
         d="M 0,800 H 799.99997 V 2.0795393e-6 H 0 Z"
         id="path861"
         style="stroke-width:0.999998" />
    </clipPath>
    <clipPath
       clipPathUnits="userSpaceOnUse"
       id="clipPath863">
      <path
         d="M 0,800 H 799.99997 V 2.0795393e-6 H 0 Z"
         id="path865"
         style="stroke-width:0.999998" />
    </clipPath>
    <clipPath
       clipPathUnits="userSpaceOnUse"
       id="clipPath867">
      <path
         d="M 0,800 H 799.99997 V 2.0795393e-6 H 0 Z"
         id="path869"
         style="stroke-width:0.999998" />
    </clipPath>
    <clipPath
       clipPathUnits="userSpaceOnUse"
       id="clipPath871">
      <path
         d="M 0,800 H 799.99997 V 2.0795393e-6 H 0 Z"
         id="path873"
         style="stroke-width:0.999998" />
    </clipPath>
    <clipPath
       clipPathUnits="userSpaceOnUse"
       id="clipPath875">
      <path
         d="M 0,800 H 799.99997 V 2.0795393e-6 H 0 Z"
         id="path877"
         style="stroke-width:0.999998" />
    </clipPath>
    <clipPath
       clipPathUnits="userSpaceOnUse"
       id="clipPath879">
      <path
         d="M 0,800 H 799.99997 V 2.0795393e-6 H 0 Z"
         id="path881"
         style="stroke-width:0.999998" />
    </clipPath>
    <clipPath
       clipPathUnits="userSpaceOnUse"
       id="clipPath883">
      <path
         d="M 0,800 H 799.99997 V 2.0795393e-6 H 0 Z"
         id="path885"
         style="stroke-width:0.999998" />
    </clipPath>
    <clipPath
       clipPathUnits="userSpaceOnUse"
       id="clipPath887">
      <path
         d="M 0,800 H 799.99997 V 2.0795393e-6 H 0 Z"
         id="path889"
         style="stroke-width:0.999998" />
    </clipPath>
    <clipPath
       clipPathUnits="userSpaceOnUse"
       id="clipPath891">
      <path
         d="M 0,800 H 799.99997 V 2.0795393e-6 H 0 Z"
         id="path893"
         style="stroke-width:0.999998" />
    </clipPath>
    <clipPath
       clipPathUnits="userSpaceOnUse"
       id="clipPath895">
      <path
         d="M 0,800 H 799.99997 V 2.0795393e-6 H 0 Z"
         id="path897"
         style="stroke-width:0.999998" />
    </clipPath>
    <clipPath
       clipPathUnits="userSpaceOnUse"
       id="clipPath899">
      <path
         d="M 0,800 H 799.99997 V 2.0795393e-6 H 0 Z"
         id="path901"
         style="stroke-width:0.999998" />
    </clipPath>
    <clipPath
       clipPathUnits="userSpaceOnUse"
       id="clipPath903">
      <path
         d="M 0,800 H 799.99997 V 2.0795393e-6 H 0 Z"
         id="path905"
         style="stroke-width:0.999998" />
    </clipPath>
    <clipPath
       clipPathUnits="userSpaceOnUse"
       id="clipPath907">
      <path
         d="M 0,800 H 799.99997 V 2.0795393e-6 H 0 Z"
         id="path909"
         style="stroke-width:0.999998" />
    </clipPath>
    <clipPath
       clipPathUnits="userSpaceOnUse"
       id="clipPath911">
      <path
         d="M 0,800 H 799.99997 V 2.0795393e-6 H 0 Z"
         id="path913"
         style="stroke-width:0.999998" />
    </clipPath>
    <clipPath
       clipPathUnits="userSpaceOnUse"
       id="clipPath915">
      <path
         d="M 0,800 H 799.99997 V 2.0795393e-6 H 0 Z"
         id="path917"
         style="stroke-width:0.999998" />
    </clipPath>
    <clipPath
       clipPathUnits="userSpaceOnUse"
       id="clipPath919">
      <path
         d="M 0,800 H 799.99997 V 2.0795393e-6 H 0 Z"
         id="path921"
         style="stroke-width:0.999998" />
    </clipPath>
    <clipPath
       clipPathUnits="userSpaceOnUse"
       id="clipPath923">
      <path
         d="M 0,800 H 799.99997 V 2.0795393e-6 H 0 Z"
         id="path925"
         style="stroke-width:0.999998" />
    </clipPath>
    <clipPath
       clipPathUnits="userSpaceOnUse"
       id="clipPath927">
      <path
         d="M 0,800 H 799.99997 V 2.0795393e-6 H 0 Z"
         id="path929"
         style="stroke-width:0.999998" />
    </clipPath>
    <clipPath
       clipPathUnits="userSpaceOnUse"
       id="clipPath931">
      <path
         d="M 0,800 H 799.99997 V 2.0795393e-6 H 0 Z"
         id="path933"
         style="stroke-width:0.999998" />
    </clipPath>
    <clipPath
       clipPathUnits="userSpaceOnUse"
       id="clipPath935">
      <path
         d="M 0,800 H 799.99997 V 2.0795393e-6 H 0 Z"
         id="path937"
         style="stroke-width:0.999998" />
    </clipPath>
    <clipPath
       clipPathUnits="userSpaceOnUse"
       id="clipPath939">
      <path
         d="M 0,800 H 799.99997 V 2.0795393e-6 H 0 Z"
         id="path941"
         style="stroke-width:0.999998" />
    </clipPath>
    <clipPath
       clipPathUnits="userSpaceOnUse"
       id="clipPath943">
      <path
         d="M 0,800 H 799.99997 V 2.0795393e-6 H 0 Z"
         id="path945"
         style="stroke-width:0.999998" />
    </clipPath>
  </defs>
  <sodipodi:namedview
     id="namedview4"
     pagecolor="#505050"
     bordercolor="#ffffff"
     borderopacity="1"
     inkscape:showpageshadow="0"
     inkscape:pageopacity="0"
     inkscape:pagecheckerboard="1"
     inkscape:deskcolor="#505050"
     showgrid="false"
     inkscape:zoom="5.0063154"
     inkscape:cx="43.345252"
     inkscape:cy="92.483186"
     inkscape:window-width="3440"
     inkscape:window-height="1328"
     inkscape:window-x="0"
     inkscape:window-y="34"
     inkscape:window-maximized="1"
     inkscape:current-layer="g10">
    <inkscape:page
       x="0"
       y="0"
       id="page8"
       width="603.31207"
       height="1027.4897" />
  </sodipodi:namedview>
  <g
     id="g10"
     inkscape:groupmode="layer"
     inkscape:label="Page 1"
     transform="matrix(1.3333333,0,0,-1.3333333,-215.78136,1060.8874)">
    <path
       d="m 29.243,839.142 c -3.12,-3.266 -6.855,-4.973 -11.203,-5.118 v 6.282 c 2.247,0.112 4.17,1.203 5.771,3.273 0.792,1.018 1.398,2.133 1.819,3.346 l 6.693,-3.467 c -0.777,-1.553 -1.803,-2.991 -3.08,-4.316 m -5.432,20.127 c -1.601,2.053 -3.524,3.136 -5.771,3.25 v 6.377 c 4.348,-0.145 8.083,-1.842 11.203,-5.092 1.584,-1.666 2.78,-3.5 3.589,-5.504 l -6.887,-3.396 c -0.404,1.617 -1.115,3.072 -2.134,4.365 m -7.032,3.201 c -2.022,-0.242 -3.776,-1.31 -5.262,-3.201 -1.699,-2.166 -2.547,-4.786 -2.547,-7.858 0,-3.055 0.848,-5.666 2.547,-7.832 1.486,-1.908 3.24,-2.984 5.262,-3.225 v -6.306 c -4.285,0.162 -7.963,1.859 -11.035,5.094 -3.249,3.394 -4.874,7.501 -4.874,12.318 0,4.818 1.625,8.933 4.874,12.344 3.072,3.217 6.75,4.907 11.035,5.068 z"
       style="fill:#231f20;fill-opacity:1;fill-rule:nonzero;stroke:none"
       id="path20"
       transform="translate(0,-0.41842709)"
       clip-path="url(#clipPath943)" />
    <path
       d="m 58.775,849.666 c 0.615,-0.632 1.205,-1.545 1.77,-2.741 0.243,-0.259 0.453,-1.293 0.631,-3.104 l 0.242,-1.236 0.728,-3.832 c 0.162,-0.404 0.372,-1.181 0.631,-2.328 0.274,-0.421 0.767,-1.189 1.479,-2.305 l -8.27,-0.047 c -0.274,0 -0.768,0.986 -1.479,2.958 -0.145,0.242 -0.558,2.546 -1.237,6.911 -0.291,1.036 -0.954,1.86 -1.988,2.475 -0.97,0.338 -3.347,0.508 -7.13,0.508 v 6.304 h 6.33 c 2.473,0.875 3.71,2.507 3.71,4.901 v 0.605 c -0.55,2.603 -2.038,3.953 -4.462,4.05 h -5.578 v 6.184 h 5.578 c 4.671,0 8.058,-1.269 10.161,-3.807 1.487,-2.167 2.231,-4.438 2.231,-6.815 v -0.461 c 0,-2.715 -0.784,-5.1 -2.352,-7.154 -0.291,-0.387 -0.623,-0.743 -0.995,-1.066 M 42.892,834.024 h -7.906 v 34.848 h 7.906 z"
       style="fill:#231f20;fill-opacity:1;fill-rule:nonzero;stroke:none"
       id="path22"
       transform="translate(0,-0.41842709)"
       clip-path="url(#clipPath939)" />
    <path
       d="M 91.921,834.073 H 75.625 v 6.402 h 16.296 z m -1.357,15.156 H 75.601 v 6.403 h 14.963 z m 1.284,13.168 H 75.553 v 6.402 H 91.848 Z M 74.194,834.024 h -7.905 v 34.848 h 7.905 z"
       style="fill:#231f20;fill-opacity:1;fill-rule:nonzero;stroke:none"
       id="path24"
       transform="translate(0,-0.41842709)"
       clip-path="url(#clipPath935)" />
    <path
       d="m 113.452,868.8 12.295,-34.776 h -8.973 l -2.328,7.397 h -9.628 l 1.869,6.426 h 5.916 v 0.121 l -3.588,12.804 h -0.122 l -7.518,-26.748 h -7.033 v 5.045 l 10.113,29.731 z"
       style="fill:#231f20;fill-opacity:1;fill-rule:nonzero;stroke:none"
       id="path26"
       transform="translate(0,-0.41842709)"
       clip-path="url(#clipPath931)" />
    <path
       d="m 144.465,834.097 h -7.907 v 26.942 h 7.907 z m 8.802,28.228 h -25.899 v 6.401 h 25.899 z"
       style="fill:#231f20;fill-opacity:1;fill-rule:nonzero;stroke:none"
       id="path28"
       transform="translate(0,-0.41842709)"
       clip-path="url(#clipPath927)" />
    <path
       d="m 181.563,834.073 h -16.296 v 6.402 h 16.296 z m -1.359,15.156 h -14.961 v 6.403 h 14.961 z m 1.287,13.168 h -16.297 v 6.402 h 16.297 z m -17.655,-28.373 h -7.906 v 34.848 h 7.906 z"
       style="fill:#231f20;fill-opacity:1;fill-rule:nonzero;stroke:none"
       id="path30"
       transform="translate(0,-0.41842709)"
       clip-path="url(#clipPath923)" />
    <path
       d="m 203.19,858.323 c -0.551,2.716 -2.037,4.098 -4.462,4.147 l -5.577,0.073 v 6.426 h 5.577 c 4.672,0 8.059,-1.319 10.16,-3.952 1.488,-2.264 2.233,-4.625 2.233,-7.082 v -12.852 c 0,-2.459 -0.745,-4.818 -2.233,-7.082 -2.101,-2.635 -5.488,-3.953 -10.16,-3.953 h -5.577 v 6.428 l 5.577,0.072 c 2.425,0.048 3.911,1.43 4.462,4.146 z m -11.299,-24.299 h -7.907 v 34.848 h 7.907 z"
       style="fill:#231f20;fill-opacity:1;fill-rule:nonzero;stroke:none"
       id="path32"
       transform="translate(0,-0.41842709)"
       clip-path="url(#clipPath919)" />
    <path
       d="m 235.486,868.872 h 0.097 c 5.593,0 9.125,-1.988 10.597,-5.966 0.339,-0.792 0.509,-1.706 0.509,-2.74 v -0.606 c 0.016,-0.889 -0.194,-1.641 -0.631,-2.255 -0.517,-1.521 -1.373,-2.757 -2.569,-3.71 l -1.116,-0.631 -0.582,-0.193 c 0.63,-0.34 1.147,-0.607 1.552,-0.801 2.456,-1.473 3.856,-3.662 4.195,-6.573 0.08,-0.324 0.122,-0.703 0.122,-1.139 -0.13,-2.07 -0.332,-3.266 -0.606,-3.589 -0.163,-0.873 -0.737,-1.908 -1.723,-3.106 -1.164,-1.648 -3.266,-2.811 -6.305,-3.49 l -2.086,-0.121 h -0.12 c -0.163,0 -0.607,0.008 -1.334,0.024 l -7.277,-0.024 v 6.354 h 8.125 c 2.086,0.677 3.153,1.955 3.202,3.831 v 1.018 c 0.13,1.26 -0.446,2.295 -1.722,3.104 -0.259,0.404 -1.035,0.663 -2.328,0.775 l -7.251,0.049 0.024,6.523 h 7.227 c 0.291,0.066 0.695,0.098 1.212,0.098 1.47,0.631 2.206,1.786 2.206,3.468 l -0.121,0.873 -0.241,0.606 h -0.122 c -0.647,0.938 -1.626,1.471 -2.934,1.601 l -7.323,-0.049 0.046,6.693 z"
       style="fill:#231f20;fill-opacity:1;fill-rule:nonzero;stroke:none"
       id="path34"
       transform="translate(0,-0.41842709)"
       clip-path="url(#clipPath915)" />
    <path
       d="m 259.806,850.902 10.475,17.921 h 8.706 l -11.251,-19.255 v -15.471 h -7.906 z m -9.845,17.921 h 8.706 l 5.139,-8.802 -4.388,-7.373 z"
       style="fill:#231f20;fill-opacity:1;fill-rule:nonzero;stroke:none"
       id="path36"
       transform="translate(0,-0.41842709)"
       clip-path="url(#clipPath911)" />
    <path
       d="m 312.739,847.362 7.783,21.365 h 7.519 L 315.382,834 h -2.643 z m -1.481,-13.338 h -2.545 L 296.03,868.8 h 7.517 l 7.711,-21.147 z"
       style="fill:#231f20;fill-opacity:1;fill-rule:nonzero;stroke:none"
       id="path38"
       transform="translate(0,-0.41842709)"
       clip-path="url(#clipPath907)" />
    <path
       d="m 355.244,834.073 h -16.296 v 6.402 h 16.296 z m -1.358,15.156 h -14.961 v 6.403 h 14.961 z m 1.285,13.168 h -16.295 v 6.402 h 16.295 z m -17.654,-28.373 h -7.905 v 34.848 h 7.905 z"
       style="fill:#231f20;fill-opacity:1;fill-rule:nonzero;stroke:none"
       id="path40"
       transform="translate(0,-0.41842709)"
       clip-path="url(#clipPath903)" />
    <path
       d="m 386.039,839.142 c -3.122,-3.266 -6.854,-4.973 -11.204,-5.118 v 6.282 c 2.248,0.112 4.171,1.203 5.771,3.273 0.792,1.018 1.399,2.133 1.82,3.346 l 6.692,-3.467 c -0.777,-1.553 -1.802,-2.991 -3.079,-4.316 m -5.433,20.127 c -1.6,2.053 -3.523,3.136 -5.771,3.25 v 6.377 c 4.35,-0.145 8.082,-1.842 11.204,-5.092 1.584,-1.666 2.78,-3.5 3.589,-5.504 l -6.886,-3.396 c -0.405,1.617 -1.117,3.072 -2.136,4.365 m -7.031,3.201 c -2.022,-0.242 -3.775,-1.31 -5.263,-3.201 -1.698,-2.166 -2.545,-4.786 -2.545,-7.858 0,-3.055 0.847,-5.666 2.545,-7.832 1.488,-1.908 3.241,-2.984 5.263,-3.225 v -6.306 c -4.285,0.162 -7.964,1.859 -11.034,5.094 -3.25,3.394 -4.875,7.501 -4.875,12.318 0,4.818 1.625,8.933 4.875,12.344 3.07,3.217 6.749,4.907 11.034,5.068 z"
       style="fill:#231f20;fill-opacity:1;fill-rule:nonzero;stroke:none"
       id="path42"
       transform="translate(0,-0.41842709)"
       clip-path="url(#clipPath899)" />
    <path
       d="M 408.807,834.097 H 400.9 v 26.942 h 7.907 z m 8.801,28.228 h -25.899 v 6.401 h 25.899 z"
       style="fill:#231f20;fill-opacity:1;fill-rule:nonzero;stroke:none"
       id="path44"
       transform="translate(0,-0.41842709)"
       clip-path="url(#clipPath895)" />
    <path
       d="m 437.441,840.306 c 2.247,0.112 4.171,1.203 5.772,3.273 1.697,2.166 2.546,4.777 2.546,7.832 0,3.072 -0.849,5.692 -2.546,7.858 -1.601,2.053 -3.525,3.136 -5.772,3.25 v 6.377 c 4.347,-0.145 8.082,-1.842 11.203,-5.092 3.249,-3.411 4.874,-7.526 4.874,-12.344 0,-4.817 -1.625,-8.924 -4.874,-12.318 -3.121,-3.266 -6.856,-4.973 -11.203,-5.118 z m -1.26,22.164 c -2.023,-0.242 -3.777,-1.31 -5.264,-3.201 -1.697,-2.166 -2.547,-4.786 -2.547,-7.858 0,-3.055 0.85,-5.666 2.547,-7.832 1.487,-1.908 3.241,-2.984 5.264,-3.225 v -6.306 c -4.285,0.162 -7.964,1.859 -11.037,5.094 -3.248,3.394 -4.872,7.501 -4.872,12.318 0,4.818 1.624,8.933 4.872,12.344 3.073,3.217 6.752,4.907 11.037,5.068 z"
       style="fill:#231f20;fill-opacity:1;fill-rule:nonzero;stroke:none"
       id="path46"
       transform="translate(0,-0.41842709)"
       clip-path="url(#clipPath891)" />
    <path
       d="m 479.655,849.666 c 0.614,-0.632 1.204,-1.545 1.771,-2.741 0.241,-0.259 0.451,-1.293 0.63,-3.104 l 0.244,-1.236 0.726,-3.832 c 0.161,-0.404 0.37,-1.181 0.629,-2.328 0.275,-0.421 0.769,-1.189 1.481,-2.305 l -8.268,-0.047 c -0.278,0 -0.769,0.986 -1.48,2.958 -0.146,0.242 -0.558,2.546 -1.239,6.911 -0.29,1.036 -0.953,1.86 -1.988,2.475 -0.968,0.338 -3.346,0.508 -7.129,0.508 v 6.304 h 6.329 c 2.475,0.875 3.709,2.507 3.709,4.901 v 0.605 c -0.549,2.603 -2.037,3.953 -4.46,4.05 h -5.578 v 6.184 h 5.578 c 4.67,0 8.059,-1.269 10.161,-3.807 1.486,-2.167 2.232,-4.438 2.232,-6.815 v -0.461 c 0,-2.715 -0.784,-5.1 -2.354,-7.154 -0.292,-0.387 -0.624,-0.743 -0.994,-1.066 M 463.77,834.024 h -7.903 v 34.848 h 7.903 z"
       style="fill:#231f20;fill-opacity:1;fill-rule:nonzero;stroke:none"
       id="path48"
       transform="translate(0,-0.41842709)"
       clip-path="url(#clipPath887)" />
    <path
       d="m 501.912,868.969 c 4.673,0 8.059,-1.319 10.161,-3.952 1.489,-2.264 2.232,-4.625 2.232,-7.082 v -0.485 c 0,-2.829 -0.784,-5.31 -2.354,-7.445 -2.101,-2.846 -6.273,-4.163 -12.512,-3.952 h -3.103 v 6.548 h 6.33 c 2.472,0.904 3.71,2.601 3.71,5.092 v 0.63 c -0.552,2.716 -2.037,4.123 -4.464,4.22 h -5.576 v 6.426 z m -6.837,-34.945 h -7.907 v 34.848 h 7.907 z"
       style="fill:#231f20;fill-opacity:1;fill-rule:nonzero;stroke:none"
       id="path50"
       transform="translate(0,-0.41842709)"
       clip-path="url(#clipPath883)" />
    <path
       d="m 534.017,840.306 c 2.247,0.112 4.171,1.203 5.77,3.273 1.698,2.166 2.548,4.777 2.548,7.832 0,3.072 -0.85,5.692 -2.548,7.858 -1.599,2.053 -3.523,3.136 -5.77,3.25 v 6.377 c 4.348,-0.145 8.082,-1.842 11.205,-5.092 3.248,-3.411 4.875,-7.526 4.875,-12.344 0,-4.817 -1.627,-8.924 -4.875,-12.318 -3.123,-3.266 -6.857,-4.973 -11.205,-5.118 z m -1.261,22.164 c -2.022,-0.242 -3.775,-1.31 -5.264,-3.201 -1.694,-2.166 -2.544,-4.786 -2.544,-7.858 0,-3.055 0.85,-5.666 2.544,-7.832 1.489,-1.908 3.242,-2.984 5.264,-3.225 v -6.306 c -4.284,0.162 -7.964,1.859 -11.033,5.094 -3.249,3.394 -4.875,7.501 -4.875,12.318 0,4.818 1.626,8.933 4.875,12.344 3.069,3.217 6.749,4.907 11.033,5.068 z"
       style="fill:#231f20;fill-opacity:1;fill-rule:nonzero;stroke:none"
       id="path52"
       transform="translate(0,-0.41842709)"
       clip-path="url(#clipPath879)" />
    <path
       d="m 576.231,849.666 c 0.617,-0.632 1.206,-1.545 1.77,-2.741 0.244,-0.259 0.454,-1.293 0.633,-3.104 l 0.241,-1.236 0.727,-3.832 c 0.163,-0.404 0.372,-1.181 0.63,-2.328 0.275,-0.421 0.767,-1.189 1.479,-2.305 l -8.268,-0.047 c -0.275,0 -0.769,0.986 -1.478,2.958 -0.148,0.242 -0.561,2.546 -1.238,6.911 -0.292,1.036 -0.956,1.86 -1.989,2.475 -0.97,0.338 -3.346,0.508 -7.129,0.508 v 6.304 h 6.329 c 2.473,0.875 3.71,2.507 3.71,4.901 v 0.605 c -0.551,2.603 -2.037,3.953 -4.463,4.05 h -5.576 v 6.184 h 5.576 c 4.672,0 8.06,-1.269 10.163,-3.807 1.487,-2.167 2.231,-4.438 2.231,-6.815 v -0.461 c 0,-2.715 -0.785,-5.1 -2.354,-7.154 -0.29,-0.387 -0.621,-0.743 -0.994,-1.066 m -15.882,-15.642 h -7.907 v 34.848 h 7.907 z"
       style="fill:#231f20;fill-opacity:1;fill-rule:nonzero;stroke:none"
       id="path54"
       transform="translate(0,-0.41842709)"
       clip-path="url(#clipPath875)" />
    <path
       d="m 600.769,834.097 h -7.903 v 26.942 h 7.903 z m 8.803,28.228 h -25.898 v 6.401 h 25.898 z"
       style="fill:#231f20;fill-opacity:1;fill-rule:nonzero;stroke:none"
       id="path56"
       transform="translate(0,-0.41842709)"
       clip-path="url(#clipPath871)" />
    <path
       d="m 631.344,868.8 12.296,-34.776 h -8.973 l -2.327,7.397 h -9.627 l 1.865,6.426 h 5.919 v 0.121 l -3.591,12.804 h -0.122 l -7.514,-26.748 h -7.036 v 5.045 l 10.113,29.731 z"
       style="fill:#231f20;fill-opacity:1;fill-rule:nonzero;stroke:none"
       id="path58"
       transform="translate(0,-0.41842709)"
       clip-path="url(#clipPath867)" />
    <path
       d="m 671.184,834.048 h -16.298 v 6.402 h 16.298 z m -17.948,-0.024 h -7.903 v 34.848 h 7.903 z"
       style="fill:#231f20;fill-opacity:1;fill-rule:nonzero;stroke:none"
       id="path60"
       transform="translate(0,-0.41842709)"
       clip-path="url(#clipPath863)" />
    <path
       d="m 681.727,834.024 h -7.902 v 6.402 h 7.902 z"
       style="fill:#231f20;fill-opacity:1;fill-rule:nonzero;stroke:none"
       id="path62"
       transform="translate(0,-0.41842709)"
       clip-path="url(#clipPath859)" />
    <path
       d="m 712.55,839.142 c -3.121,-3.266 -6.855,-4.973 -11.204,-5.118 v 6.282 c 2.248,0.112 4.171,1.203 5.77,3.273 0.793,1.018 1.402,2.133 1.822,3.346 l 6.69,-3.467 c -0.776,-1.553 -1.801,-2.991 -3.078,-4.316 m -5.434,20.127 c -1.599,2.053 -3.522,3.136 -5.77,3.25 v 6.377 c 4.349,-0.145 8.083,-1.842 11.204,-5.092 1.585,-1.666 2.782,-3.5 3.589,-5.504 l -6.886,-3.396 c -0.405,1.617 -1.116,3.072 -2.137,4.365 m -7.031,3.201 c -2.022,-0.242 -3.774,-1.31 -5.263,-3.201 -1.696,-2.166 -2.545,-4.786 -2.545,-7.858 0,-3.055 0.849,-5.666 2.545,-7.832 1.489,-1.908 3.241,-2.984 5.263,-3.225 v -6.306 c -4.285,0.162 -7.963,1.859 -11.033,5.094 -3.25,3.394 -4.875,7.501 -4.875,12.318 0,4.818 1.625,8.933 4.875,12.344 3.07,3.217 6.748,4.907 11.033,5.068 z"
       style="fill:#231f20;fill-opacity:1;fill-rule:nonzero;stroke:none"
       id="path64"
       transform="translate(0,-0.41842709)"
       clip-path="url(#clipPath855)" />
    <path
       d="m 735.462,840.306 c 2.247,0.112 4.171,1.203 5.771,3.273 1.698,2.166 2.547,4.777 2.547,7.832 0,3.072 -0.849,5.692 -2.547,7.858 -1.6,2.053 -3.524,3.136 -5.771,3.25 v 6.377 c 4.347,-0.145 8.083,-1.842 11.202,-5.092 3.248,-3.411 4.875,-7.526 4.875,-12.344 0,-4.817 -1.627,-8.924 -4.875,-12.318 -3.119,-3.266 -6.855,-4.973 -11.202,-5.118 z m -1.261,22.164 c -2.021,-0.242 -3.776,-1.31 -5.263,-3.201 -1.698,-2.166 -2.546,-4.786 -2.546,-7.858 0,-3.055 0.848,-5.666 2.546,-7.832 1.487,-1.908 3.242,-2.984 5.263,-3.225 v -6.306 c -4.284,0.162 -7.964,1.859 -11.037,5.094 -3.248,3.394 -4.871,7.501 -4.871,12.318 0,4.818 1.623,8.933 4.871,12.344 3.073,3.217 6.753,4.907 11.037,5.068 z"
       style="fill:#231f20;fill-opacity:1;fill-rule:nonzero;stroke:none"
       id="path66"
       transform="translate(0,-0.41842709)"
       clip-path="url(#clipPath851)" />
    <path
       d="m 786.235,853.521 7.907,13.193 v -32.69 h -7.907 z m -11.153,-4.438 11.736,19.717 h 7.518 l -19.254,-32.352 z m -1.842,-12.658 -19.258,32.35 h 7.519 L 773.24,849.06 Z m -11.449,-2.401 h -7.903 v 32.69 l 7.903,-13.193 z"
       style="fill:#231f20;fill-opacity:1;fill-rule:nonzero;stroke:none"
       id="path68"
       transform="translate(0,-0.41842709)"
       clip-path="url(#clipPath847)" />
    <path
       d="m 13.694,809 c 1.381,0.071 2.563,0.741 3.547,2.013 1.044,1.331 1.566,2.936 1.566,4.814 0,1.889 -0.522,3.498 -1.566,4.83 -0.984,1.261 -2.166,1.928 -3.547,1.997 v 3.921 c 2.673,-0.09 4.969,-1.133 6.887,-3.13 1.997,-2.097 2.996,-4.626 2.996,-7.588 0,-2.961 -0.999,-5.485 -2.996,-7.573 -1.918,-2.007 -4.214,-3.055 -6.887,-3.144 z m -0.775,13.625 c -1.242,-0.15 -2.321,-0.806 -3.235,-1.968 -1.043,-1.332 -1.565,-2.941 -1.565,-4.83 0,-1.878 0.522,-3.483 1.565,-4.814 0.914,-1.173 1.993,-1.834 3.235,-1.983 v -3.875 c -2.634,0.099 -4.895,1.142 -6.783,3.129 -1.997,2.088 -2.996,4.612 -2.996,7.573 0,2.962 0.999,5.491 2.996,7.588 1.888,1.977 4.149,3.015 6.783,3.116 z"
       style="fill:#231f20;fill-opacity:1;fill-rule:nonzero;stroke:none"
       id="path132"
       transform="translate(0,-0.41842709)"
       clip-path="url(#clipPath843)" />
    <path
       d="m 48.582,814.754 c 0.378,-0.388 0.74,-0.949 1.088,-1.684 0.149,-0.159 0.279,-0.795 0.388,-1.908 l 0.15,-0.761 0.446,-2.355 c 0.1,-0.248 0.229,-0.725 0.388,-1.43 0.169,-0.259 0.472,-0.731 0.91,-1.417 l -5.084,-0.029 c -0.169,0 -0.472,0.606 -0.909,1.818 -0.089,0.149 -0.343,1.565 -0.761,4.249 -0.178,0.636 -0.586,1.141 -1.221,1.52 -0.598,0.208 -2.057,0.313 -4.382,0.313 v 3.875 h 3.89 c 1.52,0.537 2.281,1.541 2.281,3.012 v 0.373 c -0.338,1.599 -1.253,2.429 -2.744,2.488 h -3.427 v 3.801 h 3.427 c 2.873,0 4.954,-0.779 6.246,-2.34 0.914,-1.331 1.372,-2.728 1.372,-4.188 v -0.283 c 0,-1.67 -0.482,-3.136 -1.447,-4.397 -0.179,-0.239 -0.382,-0.458 -0.611,-0.657 M 38.819,805.14 H 33.96 v 21.42 h 4.859 z"
       style="fill:#231f20;fill-opacity:1;fill-rule:nonzero;stroke:none"
       id="path134"
       transform="translate(0,-0.41842709)"
       clip-path="url(#clipPath839)" />
    <path
       d="m 67,805.14 h -4.86 v 21.42 H 67 Z"
       style="fill:#231f20;fill-opacity:1;fill-rule:nonzero;stroke:none"
       id="path136"
       transform="translate(0,-0.41842709)"
       clip-path="url(#clipPath835)" />
    <path
       d="m 91.494,820.657 c -0.984,1.261 -2.166,1.928 -3.548,1.997 v 3.921 c 2.674,-0.09 4.969,-1.133 6.888,-3.13 0.973,-1.024 1.708,-2.152 2.205,-3.384 l -4.232,-2.087 c -0.249,0.993 -0.686,1.888 -1.313,2.683 m 6.336,-5.053 c -0.06,-2.852 -1.059,-5.292 -2.996,-7.32 -1.919,-2.007 -4.214,-3.055 -6.888,-3.144 V 809 c 1.382,0.071 2.564,0.741 3.548,2.013 0.169,0.209 0.324,0.427 0.462,0.655 h -4.039 v 3.936 z m -10.659,7.021 c -1.242,-0.15 -2.319,-0.806 -3.234,-1.968 -1.043,-1.332 -1.565,-2.941 -1.565,-4.83 0,-1.878 0.522,-3.483 1.565,-4.814 0.915,-1.173 1.992,-1.834 3.234,-1.983 v -3.875 c -2.633,0.099 -4.893,1.142 -6.782,3.129 -1.997,2.088 -2.995,4.612 -2.995,7.573 0,2.962 0.998,5.491 2.995,7.588 1.889,1.977 4.149,3.015 6.782,3.116 z"
       style="fill:#231f20;fill-opacity:1;fill-rule:nonzero;stroke:none"
       id="path138"
       transform="translate(0,-0.41842709)"
       clip-path="url(#clipPath831)" />
    <path
       d="m 113.116,805.14 h -4.859 v 21.42 h 4.859 z"
       style="fill:#231f20;fill-opacity:1;fill-rule:nonzero;stroke:none"
       id="path140"
       transform="translate(0,-0.41842709)"
       clip-path="url(#clipPath827)" />
    <path
       d="m 136.076,826.516 h 4.859 v -20.094 l -4.859,8.108 z m 0.194,-21.361 -12.701,21.346 h 4.621 l 12.715,-21.361 z m -7.901,-0.015 h -4.86 v 20.093 l 4.86,-8.109 z"
       style="fill:#231f20;fill-opacity:1;fill-rule:nonzero;stroke:none"
       id="path142"
       transform="translate(0,-0.41842709)"
       clip-path="url(#clipPath823)" />
    <path
       d="m 163.212,826.516 7.559,-21.376 h -5.516 l -1.431,4.547 h -5.918 l 1.148,3.949 h 3.636 v 0.075 l -2.205,7.871 h -0.074 L 155.79,805.14 h -4.324 v 3.1 l 6.216,18.276 z"
       style="fill:#231f20;fill-opacity:1;fill-rule:nonzero;stroke:none"
       id="path144"
       transform="translate(0,-0.41842709)"
       clip-path="url(#clipPath819)" />
    <path
       d="m 196.64,805.155 h -10.016 v 3.935 h 10.016 z m -11.032,-0.015 h -4.859 v 21.42 h 4.859 z"
       style="fill:#231f20;fill-opacity:1;fill-rule:nonzero;stroke:none"
       id="path146"
       transform="translate(0,-0.41842709)"
       clip-path="url(#clipPath815)" />
    <path
       d="m 239.984,814.486 h -9.197 v 3.935 h 9.197 z m 0.791,8.095 h -10.018 v 3.935 h 10.018 z M 229.922,805.14 h -4.859 v 21.42 h 4.859 z"
       style="fill:#231f20;fill-opacity:1;fill-rule:nonzero;stroke:none"
       id="path148"
       transform="translate(0,-0.41842709)"
       clip-path="url(#clipPath811)" />
    <path
       d="m 265.778,814.754 c 0.378,-0.388 0.741,-0.949 1.089,-1.684 0.149,-0.159 0.279,-0.795 0.387,-1.908 l 0.15,-0.761 0.447,-2.355 c 0.099,-0.248 0.229,-0.725 0.386,-1.43 0.17,-0.259 0.473,-0.731 0.91,-1.417 l -5.083,-0.029 c -0.168,0 -0.472,0.606 -0.909,1.818 -0.09,0.149 -0.343,1.565 -0.76,4.249 -0.179,0.636 -0.587,1.141 -1.223,1.52 -0.596,0.208 -2.056,0.313 -4.382,0.313 v 3.875 h 3.891 c 1.52,0.537 2.28,1.541 2.28,3.012 v 0.373 c -0.337,1.599 -1.252,2.429 -2.743,2.488 h -3.428 v 3.801 h 3.428 c 2.873,0 4.954,-0.779 6.246,-2.34 0.914,-1.331 1.372,-2.728 1.372,-4.188 v -0.283 c 0,-1.67 -0.482,-3.136 -1.447,-4.397 -0.179,-0.239 -0.382,-0.458 -0.611,-0.657 m -9.762,-9.614 h -4.86 v 21.42 h 4.86 z"
       style="fill:#231f20;fill-opacity:1;fill-rule:nonzero;stroke:none"
       id="path150"
       transform="translate(0,-0.41842709)"
       clip-path="url(#clipPath807)" />
    <path
       d="m 295.092,805.17 h -10.016 v 3.935 h 10.016 z m -0.835,9.316 h -9.197 v 3.935 h 9.197 z m 0.79,8.095 H 285.03 v 3.935 h 10.017 z M 284.195,805.14 h -4.859 v 21.42 h 4.859 z"
       style="fill:#231f20;fill-opacity:1;fill-rule:nonzero;stroke:none"
       id="path152"
       transform="translate(0,-0.41842709)"
       clip-path="url(#clipPath803)" />
    <path
       d="m 321.273,805.17 h -10.017 v 3.935 h 10.017 z m -0.834,9.316 h -9.198 v 3.935 h 9.198 z m 0.79,8.095 h -10.016 v 3.935 h 10.016 z M 310.377,805.14 h -4.86 v 21.42 h 4.86 z"
       style="fill:#231f20;fill-opacity:1;fill-rule:nonzero;stroke:none"
       id="path154"
       transform="translate(0,-0.41842709)"
       clip-path="url(#clipPath799)" />
    <path
       d="m 359.893,813.338 4.785,13.132 h 4.621 l -7.781,-21.345 h -1.625 z m -0.909,-8.198 h -1.565 l -7.796,21.376 h 4.621 l 4.74,-12.999 z"
       style="fill:#231f20;fill-opacity:1;fill-rule:nonzero;stroke:none"
       id="path156"
       transform="translate(0,-0.41842709)"
       clip-path="url(#clipPath795)" />
    <path
       d="m 394.96,805.17 h -10.016 v 3.935 h 10.016 z m -0.835,9.316 h -9.197 v 3.935 h 9.197 z m 0.792,8.095 h -10.018 v 3.935 h 10.018 z M 384.063,805.14 h -4.858 v 21.42 h 4.858 z"
       style="fill:#231f20;fill-opacity:1;fill-rule:nonzero;stroke:none"
       id="path158"
       transform="translate(0,-0.41842709)"
       clip-path="url(#clipPath791)" />
    <path
       d="m 422.826,808.284 c -1.918,-2.007 -4.213,-3.055 -6.887,-3.144 V 809 c 1.383,0.071 2.567,0.741 3.551,2.013 0.486,0.625 0.858,1.311 1.115,2.057 l 4.117,-2.132 c -0.479,-0.954 -1.109,-1.838 -1.896,-2.654 m -3.336,12.373 c -0.984,1.261 -2.168,1.928 -3.551,1.997 v 3.921 c 2.674,-0.09 4.969,-1.133 6.887,-3.13 0.973,-1.024 1.708,-2.152 2.206,-3.384 l -4.232,-2.087 c -0.249,0.993 -0.686,1.888 -1.31,2.683 m -4.325,1.968 c -1.242,-0.15 -2.32,-0.806 -3.235,-1.968 -1.043,-1.332 -1.563,-2.941 -1.563,-4.83 0,-1.878 0.52,-3.483 1.563,-4.814 0.915,-1.173 1.993,-1.834 3.235,-1.983 v -3.875 c -2.632,0.099 -4.894,1.142 -6.782,3.129 -1.998,2.088 -2.995,4.612 -2.995,7.573 0,2.962 0.997,5.491 2.995,7.588 1.888,1.977 4.15,3.015 6.782,3.116 z"
       style="fill:#231f20;fill-opacity:1;fill-rule:nonzero;stroke:none"
       id="path160"
       transform="translate(0,-0.41842709)"
       clip-path="url(#clipPath787)" />
    <path
       d="m 445.762,805.185 h -4.859 v 16.561 h 4.859 z m 5.41,17.35 H 435.25 v 3.935 h 15.922 z"
       style="fill:#231f20;fill-opacity:1;fill-rule:nonzero;stroke:none"
       id="path162"
       transform="translate(0,-0.41842709)"
       clip-path="url(#clipPath783)" />
    <path
       d="m 472.3,809 c 1.382,0.071 2.565,0.741 3.55,2.013 1.043,1.331 1.563,2.936 1.563,4.814 0,1.889 -0.52,3.498 -1.563,4.83 -0.985,1.261 -2.168,1.928 -3.55,1.997 v 3.921 c 2.674,-0.09 4.968,-1.133 6.887,-3.13 1.998,-2.097 2.997,-4.626 2.997,-7.588 0,-2.961 -0.999,-5.485 -2.997,-7.573 -1.919,-2.007 -4.213,-3.055 -6.887,-3.144 z m -0.775,13.625 c -1.243,-0.15 -2.321,-0.806 -3.236,-1.968 -1.043,-1.332 -1.562,-2.941 -1.562,-4.83 0,-1.878 0.519,-3.483 1.562,-4.814 0.915,-1.173 1.993,-1.834 3.236,-1.983 v -3.875 c -2.632,0.099 -4.894,1.142 -6.782,3.129 -1.999,2.088 -2.996,4.612 -2.996,7.573 0,2.962 0.997,5.491 2.996,7.588 1.888,1.977 4.15,3.015 6.782,3.116 z"
       style="fill:#231f20;fill-opacity:1;fill-rule:nonzero;stroke:none"
       id="path164"
       transform="translate(0,-0.41842709)"
       clip-path="url(#clipPath779)" />
    <path
       d="m 507.19,814.754 c 0.375,-0.388 0.741,-0.949 1.087,-1.684 0.148,-0.159 0.277,-0.795 0.389,-1.908 l 0.147,-0.761 0.449,-2.355 c 0.097,-0.248 0.226,-0.725 0.387,-1.43 0.168,-0.259 0.472,-0.731 0.91,-1.417 l -5.085,-0.029 c -0.168,0 -0.472,0.606 -0.909,1.818 -0.088,0.149 -0.342,1.565 -0.759,4.249 -0.181,0.636 -0.586,1.141 -1.225,1.52 -0.595,0.208 -2.055,0.313 -4.379,0.313 v 3.875 h 3.888 c 1.522,0.537 2.281,1.541 2.281,3.012 v 0.373 c -0.337,1.599 -1.25,2.429 -2.742,2.488 h -3.427 v 3.801 h 3.427 c 2.872,0 4.953,-0.779 6.244,-2.34 0.917,-1.331 1.371,-2.728 1.371,-4.188 v -0.283 c 0,-1.67 -0.479,-3.136 -1.442,-4.397 -0.18,-0.239 -0.384,-0.458 -0.612,-0.657 m -9.764,-9.614 h -4.86 v 21.42 h 4.86 z"
       style="fill:#231f20;fill-opacity:1;fill-rule:nonzero;stroke:none"
       id="path166"
       transform="translate(0,-0.41842709)"
       clip-path="url(#clipPath775)" />
    <path
       d="m 529.973,826.516 c 2.137,0 4.019,-0.602 5.647,-1.804 0.956,-0.795 1.652,-2.266 2.089,-4.412 v -0.209 l -2.444,-0.299 -2.029,-0.133 c -0.188,1.172 -0.525,1.942 -1.011,2.311 -0.399,0.337 -1.145,0.65 -2.237,0.938 z m -2.132,-12.254 c -4.292,0.776 -6.439,2.768 -6.439,5.978 v 0.283 c 0,3.35 2.165,5.322 6.499,5.917 l 1.341,0.03 0.031,-3.562 c -0.976,-0.079 -1.652,-0.199 -2.027,-0.358 -0.787,-0.299 -1.17,-0.974 -1.149,-2.027 0,-0.984 1.247,-1.704 3.741,-2.161 0.626,-0.111 1.139,-0.214 1.537,-0.314 4.422,-0.735 6.634,-2.841 6.634,-6.319 v -0.299 c 0,-3.567 -2.168,-5.67 -6.502,-6.305 l -1.46,-0.045 v 3.772 c 1.033,0.108 1.74,0.248 2.117,0.416 0.785,0.319 1.169,1.039 1.148,2.162 0,1.054 -1.233,1.868 -3.698,2.445 -0.556,0.168 -1.167,0.313 -1.833,0.432 z m -1.611,-4.278 c 0.916,-0.526 1.785,-0.84 2.611,-0.939 l 0.432,-0.075 -0.031,-3.83 c -2.594,-0.07 -4.58,0.462 -5.963,1.595 -1.54,0.993 -2.365,2.723 -2.475,5.187 l 4.487,0.432 c 0.08,-1.043 0.394,-1.813 0.939,-2.31 z"
       style="fill:#231f20;fill-opacity:1;fill-rule:nonzero;stroke:none"
       id="path168"
       transform="translate(0,-0.41842709)"
       clip-path="url(#clipPath771)" />
    <path
       d="m 566.592,826.516 c 2.138,0 4.02,-0.602 5.647,-1.804 0.956,-0.795 1.654,-2.266 2.091,-4.412 v -0.209 l -2.446,-0.299 -2.028,-0.133 c -0.188,1.172 -0.525,1.942 -1.012,2.311 -0.399,0.337 -1.144,0.65 -2.237,0.938 z m -2.132,-12.254 c -4.291,0.776 -6.438,2.768 -6.438,5.978 v 0.283 c 0,3.35 2.166,5.322 6.499,5.917 l 1.34,0.03 0.032,-3.562 c -0.976,-0.079 -1.652,-0.199 -2.028,-0.358 -0.787,-0.299 -1.17,-0.974 -1.149,-2.027 0,-0.984 1.247,-1.704 3.741,-2.161 0.627,-0.111 1.14,-0.214 1.537,-0.314 4.422,-0.735 6.634,-2.841 6.634,-6.319 v -0.299 c 0,-3.567 -2.168,-5.67 -6.501,-6.305 l -1.46,-0.045 v 3.772 c 1.033,0.108 1.739,0.248 2.116,0.416 0.785,0.319 1.169,1.039 1.149,2.162 0,1.054 -1.233,1.868 -3.698,2.445 -0.557,0.168 -1.168,0.313 -1.832,0.432 z m -1.609,-4.278 c 0.914,-0.526 1.784,-0.84 2.609,-0.939 l 0.433,-0.075 -0.032,-3.83 c -2.593,-0.07 -4.579,0.462 -5.963,1.595 -1.539,0.993 -2.365,2.723 -2.473,5.187 l 4.486,0.432 c 0.08,-1.043 0.394,-1.813 0.94,-2.31 z"
       style="fill:#231f20;fill-opacity:1;fill-rule:nonzero;stroke:none"
       id="path170"
       transform="translate(0,-0.41842709)"
       clip-path="url(#clipPath767)" />
    <path
       d="m 589.912,805.14 h -4.859 v 21.42 h 4.859 z"
       style="fill:#231f20;fill-opacity:1;fill-rule:nonzero;stroke:none"
       id="path172"
       transform="translate(0,-0.41842709)"
       clip-path="url(#clipPath763)" />
    <path
       d="m 612.873,826.516 h 4.858 v -20.094 l -4.858,8.108 z m 0.194,-21.361 -12.701,21.346 h 4.621 l 12.716,-21.361 z m -7.901,-0.015 h -4.859 v 20.093 l 4.859,-8.109 z"
       style="fill:#231f20;fill-opacity:1;fill-rule:nonzero;stroke:none"
       id="path174"
       transform="translate(0,-0.41842709)"
       clip-path="url(#clipPath759)" />
    <path
       d="m 645.702,808.284 c -1.918,-2.007 -4.212,-3.055 -6.887,-3.144 V 809 c 1.384,0.071 2.567,0.741 3.55,2.013 0.488,0.625 0.86,1.311 1.116,2.057 l 4.117,-2.132 c -0.479,-0.954 -1.108,-1.838 -1.896,-2.654 m -3.337,12.373 c -0.983,1.261 -2.166,1.928 -3.55,1.997 v 3.921 c 2.675,-0.09 4.969,-1.133 6.887,-3.13 0.974,-1.024 1.708,-2.152 2.206,-3.384 l -4.232,-2.087 c -0.249,0.993 -0.687,1.888 -1.311,2.683 m -4.323,1.968 c -1.243,-0.15 -2.322,-0.806 -3.236,-1.968 -1.044,-1.332 -1.564,-2.941 -1.564,-4.83 0,-1.878 0.52,-3.483 1.564,-4.814 0.914,-1.173 1.993,-1.834 3.236,-1.983 v -3.875 c -2.633,0.099 -4.896,1.142 -6.783,3.129 -1.998,2.088 -2.994,4.612 -2.994,7.573 0,2.962 0.996,5.491 2.994,7.588 1.887,1.977 4.15,3.015 6.783,3.116 z"
       style="fill:#231f20;fill-opacity:1;fill-rule:nonzero;stroke:none"
       id="path176"
       transform="translate(0,-0.41842709)"
       clip-path="url(#clipPath755)" />
    <path
       d="m 673.929,805.17 h -10.016 v 3.935 h 10.016 z m -0.834,9.316 h -9.198 v 3.935 h 9.198 z m 0.79,8.095 h -10.016 v 3.935 h 10.016 z M 663.032,805.14 h -4.859 v 21.42 h 4.859 z"
       style="fill:#231f20;fill-opacity:1;fill-rule:nonzero;stroke:none"
       id="path178"
       transform="translate(0,-0.41842709)"
       clip-path="url(#clipPath751)" />
    <path
       d="m 718.838,805.155 h -11.253 v 3.935 h 11.253 z m -11.477,16.874 c -0.517,-0.467 -0.814,-1.183 -0.895,-2.147 l -4.248,0.403 c 0.099,2.285 0.881,3.89 2.341,4.814 1.311,1.053 3.193,1.55 5.647,1.491 l 0.031,-3.563 -0.403,-0.074 c -0.785,-0.09 -1.608,-0.383 -2.473,-0.88 z m -5.16,-12.79 v 0.626 c 0,3.478 2.275,5.823 6.815,7.035 0.396,0.1 0.909,0.205 1.535,0.313 2.433,0.706 3.622,1.839 3.562,3.4 0.021,1.053 -0.362,1.728 -1.146,2.027 -0.378,0.159 -1.054,0.278 -2.029,0.357 l 0.031,3.564 1.34,-0.031 c 4.334,-0.595 6.501,-2.569 6.501,-5.917 v -0.283 c 0,-3.211 -2.087,-5.616 -6.263,-7.216 -0.627,-0.089 -1.216,-0.218 -1.774,-0.387 -2.67,-0.776 -3.962,-1.829 -3.875,-3.16 l 0.016,-4.472 h -4.713 z"
       style="fill:#231f20;fill-opacity:1;fill-rule:nonzero;stroke:none"
       id="path180"
       transform="translate(0,-0.41842709)"
       clip-path="url(#clipPath747)" />
    <path
       d="m 737.001,826.53 c 2.595,-0.09 4.498,-0.869 5.709,-2.34 l 0.075,0.075 v -0.075 l -0.075,-0.075 c 0.913,-1.391 1.371,-2.842 1.371,-4.353 v -7.705 c 0,-1.74 -0.659,-3.414 -1.982,-5.024 -0.984,-1.094 -2.683,-1.73 -5.098,-1.908 v 4.07 c 1.471,0.506 2.207,1.51 2.207,3.011 v 7.795 c -0.298,1.461 -1.034,2.281 -2.207,2.46 z m -1.074,-4.025 c -1.172,-0.178 -1.907,-0.997 -2.206,-2.459 v -7.796 c 0,-1.5 0.736,-2.504 2.206,-3.011 v -4.069 c -2.413,0.178 -4.114,0.814 -5.097,1.907 -1.32,1.611 -1.983,3.285 -1.983,5.024 v 7.707 c 0,1.51 0.458,2.961 1.372,4.352 l -0.075,0.075 v 0.074 l 0.075,-0.074 c 1.212,1.47 3.114,2.25 5.708,2.34 z"
       style="fill:#231f20;fill-opacity:1;fill-rule:nonzero;stroke:none"
       id="path182"
       transform="translate(0,-0.41842709)"
       clip-path="url(#clipPath743)" />
    <path
       d="m 762.736,826.53 c 2.594,-0.09 4.496,-0.869 5.71,-2.34 l 0.073,0.075 v -0.075 l -0.073,-0.075 c 0.913,-1.391 1.37,-2.842 1.37,-4.353 v -7.705 c 0,-1.74 -0.66,-3.414 -1.98,-5.024 -0.984,-1.094 -2.687,-1.73 -5.1,-1.908 v 4.07 c 1.469,0.506 2.206,1.51 2.206,3.011 v 7.795 c -0.298,1.461 -1.035,2.281 -2.206,2.46 z m -1.073,-4.025 c -1.174,-0.178 -1.908,-0.997 -2.205,-2.459 v -7.796 c 0,-1.5 0.734,-2.504 2.205,-3.011 v -4.069 c -2.416,0.178 -4.114,0.814 -5.098,1.907 -1.322,1.611 -1.983,3.285 -1.983,5.024 v 7.707 c 0,1.51 0.456,2.961 1.373,4.352 l -0.075,0.075 v 0.074 l 0.075,-0.074 c 1.211,1.47 3.114,2.25 5.708,2.34 z"
       style="fill:#231f20;fill-opacity:1;fill-rule:nonzero;stroke:none"
       id="path184"
       transform="translate(0,-0.41842709)"
       clip-path="url(#clipPath739)" />
    <path
       d="m 785.071,821.939 c -0.217,-2.147 0.914,-3.279 3.4,-3.399 0.833,0.01 1.703,-0.134 2.609,-0.432 3.895,-1.292 5.844,-3.543 5.844,-6.752 v -0.283 c 0,-3.35 -2.167,-5.322 -6.501,-5.918 l -1.341,-0.03 -0.028,3.563 c 0.973,0.079 1.648,0.198 2.026,0.357 0.785,0.298 1.169,0.974 1.148,2.028 0.059,1.56 -1.009,2.692 -3.206,3.398 -0.864,0.11 -1.649,0.214 -2.355,0.313 -4.354,0.308 -6.45,2.688 -6.291,7.14 z m 0.405,-12.328 c 0.864,-0.497 1.682,-0.789 2.46,-0.879 l 0.416,-0.075 -0.032,-3.562 c -2.453,-0.06 -4.336,0.437 -5.648,1.491 -1.46,0.923 -2.239,2.528 -2.341,4.814 l 4.249,0.403 c 0.08,-0.965 0.378,-1.679 0.896,-2.147 z m -5.145,16.919 h 16.621 v -3.936 h -16.621 z"
       style="fill:#231f20;fill-opacity:1;fill-rule:nonzero;stroke:none"
       id="path186"
       transform="translate(0,-0.41842709)"
       clip-path="url(#clipPath735)" />
    <path
       style="fill:#f6cbad;fill-opacity:1;fill-rule:nonzero;stroke:none"
       d="m 597.2445,173.59325 c -16.453,39.476 -38.987,93.541 -29.439,157.213 5.687,44.959 -2.979,86.382 -25.763,123.113 -21.32401,34.382 -47.89001,53.339 -62.49701,61.862 -1.644,12.453 -8.774,26.76 -15.937,31.741 -28.909,20.099 -37.237,57.267 -43.335,84.475 -1.738,7.757 -3.24,14.458 -5.035,19.974 -15.439,47.47 -15.823,63.95 -15.17,88.99 0.436,16.817 -8.489,26.72 -17.532,29.076 -2.334,0.606 -4.705,0.701 -6.935,0.28 -4.989,5.749 -11.888,9.529 -17.571,9.529 -0.436,0 -0.859,-0.023 -1.273,-0.069 l -1.953,-0.216 -1.542,-1.222 c -0.633,-0.503 -4.867,-3.334 -8.27,-5.607 -16.248,-10.868 -34.116,-22.979 -41.315,-29.693 -6.987,-2.15 -14.62,-6.713 -23.218,-13.882 -0.184,14.329 -2.645,33.431 -11.985,51.384 -6.944,13.354 -25.13,14.796 -32.626,14.796 -2.3,0 -3.829,-0.127 -4.112,-0.152 l -6.059,-0.545 -1.402,-49.453 c -5.227,-14.521 -5.605,-34.041 -6.006,-54.698 -0.162,-8.348 -0.361,-18.68 -1.032,-28.474 -7.586,-7.704 -13.967,-13.248 -19.486,-16.927 -0.295,-0.195 -0.935,-0.546 -1.574,-0.895 -8.178,-4.473 -27.329,-14.947 -19.24,-57.679 8.617,-45.515 3.924,-107.819 -0.603,-132.21 l -0.275,0.031 -0.267,-2.381 c -0.438,-3.897 -2.774,-9.918 -5.247,-16.295 -6.407,-16.52 -15.118,-38.982 -0.147,-52.641 -0.48,-1.452 -0.864,-2.845 -1.165,-4.236 -0.53,-2.574 -0.767,-5.185 -0.7,-7.805 0.113,-2.585 0.536,-5.151 1.26,-7.634 0.334,-1.128 0.729,-2.178 1.113,-3.194 l 0.152,-0.378 c 0.148,-0.317 0.291,-0.633 0.432,-0.947 0.316,-0.699 0.64,-1.421 1.047,-2.169 0.169,-0.294 0.335,-0.593 0.497,-0.886 0.355,-0.641 0.706,-1.272 1.11,-1.907 l 1.576,-2.367 0.878,-1.169 c 0.813,-1.081 1.58,-2.103 2.369,-2.96 0.285,-0.32 0.556,-0.632 0.816,-0.931 0.637,-0.733 1.238,-1.424 1.779,-1.942 l 0.112,-0.114 c 2.128,-10.589 10.688,-20.71 26.853,-31.784 11.348,-7.772 20.481,-13.541 28.541,-18.632 l 0.119,-0.076 c 18.276,-11.543 29.307,-18.511 44.852,-35.29 22.492,-24.279 71.511,-59.287 94.923,-74.842 l 10.36,-29.48 c -0.487,-9.062 -1.121,-36.81 8.365,-46.929 7.364,-7.855 28.219,-43.439005 35.198,-76.746007 l 1.097,-5.24 5.353,-0.2 c 2.021,-0.074 4.137,-0.112 6.287,-0.112 h 0.008 c 31.761,0 70.499,7.825 101.09201,20.421 27.302,11.24 61.423,31.593007 68.936,64.779007 3.239,16.2 -5.431,36.998 -16.414,63.345"
       id="path1104" />
    <path
       d="m 276.945,621.61157 c 17.932,13.937 31.15,32.809 34.362,50.053 1.695,0.554 4.459,1.547 7.948,3.11 -2.887,-17.776 4.846,-40.575 14.969,-55.277 0.689,-7.635 5.831,-36.785 14.691,-51.083 -2.603,0.606 -5.344,1.242 -8.204,1.905 -17.249,3.999 -38.377,8.9 -54.722,13.275 -2.232,5.145 -5.509,12.516 -9.4,20.701 0.94,1.509 0.554,9.848 0.356,17.316 m 168.014,-138.446 c 0.209,-0.199 0.4,-0.387 0.567,-0.558 1.126,-1.165 0.91,-3.172 0.531,-4.652 -0.575,-2.246 -1.888,-4.669 -3.518,-6.775 0.246,3.746 -0.688,7.048 -2.124,8.893 2.103,0.655 3.559,1.872 4.544,3.092 m -31.888,18.625 c 1.326,0.846 2.044,1.911 2.431,2.811 0.198,0.462 0.318,0.936 0.406,1.41 2.884,-2.375 7.09,-5.604 13.009,-10.109 4.611,-3.51 9.32,-7.094 12.678,-9.838 -0.524,-0.669 -1.326,-1.34 -2.478,-1.716 -8.219,5.427 -19.05,12.648 -26.046,17.442 m -3.062,-5.084 c 8.454,-5.797 21.14,-14.202 25.47,-17.063 -1.335,-1.719 -3.14,-3.344 -4.951,-3.079 -3.862,0.602 -24.013,12.614 -28.296,15.289 4.413,0.232 6.682,2.828 7.777,4.853 m -2.571,9.027 c 0.898,2.197 2.625,3.555 4.058,4.342 0.64,-0.76 1.637,-1.709 3.047,-2.918 -0.021,-0.674 -0.134,-1.346 -0.403,-1.972 -0.459,-1.069 -1.278,-1.888 -2.43,-2.459 -1.812,1.249 -3.279,2.281 -4.272,3.007 m 1.368,-8.201 c -0.892,-1.755 -2.855,-4.132 -6.957,-4.223 -0.145,1.634 -0.06,4.22 0.667,6.452 0.172,0.532 0.426,1.131 0.755,1.693 1.184,-0.893 3.14,-2.272 5.535,-3.922 m -30.913,262.058 c 0.764,0.075 1.532,-0.091 1.772,-0.155 4.57,-1.19 9.363,-7.283 9.088,-17.853 -0.664,-25.511 -0.261,-43.642 15.721,-92.776 1.635,-5.026 3.089,-11.509 4.77,-19.019 6.121,-27.317 15.371,-68.6 47.892,-91.209 3.681,-2.561 10.999,-14.996 11.433,-26.82 l 0.092,-2.529 2.222,-1.21 c 37.229,-20.318 96.881,-79.623 85.932,-173.435 -21.138,-18.234 -67.502,29.507 -100.703,36.145 -70.206,18.202 -91.988,54.05 -89.165,76.982 0,0 45.286,-8.301 68.38,9.944 1.036,0.818 1.911,1.7 2.7,2.612 5.782,2.058 12.014,9.349 13.774,16.218 1.065,4.159 0.35,7.796 -2.007,10.242 -2.694,2.788 -9.782,8.182 -17.286,13.892 -5.732,4.362 -13.328,10.142 -15.804,12.521 1.898,3.166 11.317,7.336 20.295,7.611 1.052,-0.097 2.102,-0.205 3.143,-0.291 1.681,-0.181 3.322,-0.462 4.921,-0.678 1.597,-0.238 3.118,-0.588 4.577,-0.857 1.464,-0.252 2.809,-0.643 4.068,-0.946 1.252,-0.334 2.428,-0.565 3.426,-0.901 1.009,-0.311 1.887,-0.585 2.611,-0.809 1.45,-0.45 2.28,-0.708 2.28,-0.708 0,0 -0.797,0.344 -2.19,0.946 -0.699,0.303 -1.547,0.668 -2.522,1.089 -0.967,0.444 -2.109,0.8 -3.331,1.268 -1.23,0.439 -2.547,0.981 -3.991,1.391 -1.437,0.427 -2.941,0.945 -4.529,1.361 -1.593,0.393 -3.232,0.855 -4.919,1.222 -1.695,0.326 -3.41,0.745 -5.151,1.007 -1.739,0.266 -3.477,0.584 -5.207,0.75 -0.865,0.1 -1.722,0.198 -2.569,0.297 -0.851,0.062 -1.691,0.126 -2.52,0.188 -1.655,0.151 -3.262,0.161 -4.789,0.23 -1.527,0.008 -2.975,0.036 -4.313,-0.012 -0.46,-0.008 -0.887,-0.027 -1.319,-0.043 -5.846,5.698 -17.921,20.375 -24.772,27.149 -2.942,2.907 -5.492,5.056 -7.59,6.645 5.01,1.142 11.263,3.93 14.782,5.613 0.599,0.186 1.178,0.37 1.725,0.57 1.12,0.447 2.147,0.858 3.059,1.223 0.912,0.347 1.644,0.809 2.276,1.106 1.244,0.638 1.956,1.002 1.956,1.002 0,0 -0.749,-0.279 -2.058,-0.769 -0.66,-0.22 -1.424,-0.587 -2.365,-0.827 -0.932,-0.252 -1.985,-0.536 -3.132,-0.848 -1.156,-0.275 -2.431,-0.474 -3.761,-0.735 -1.328,-0.258 -2.767,-0.359 -4.227,-0.556 -1.451,-0.166 -2.969,-0.207 -4.494,-0.318 -1.315,0.053 -2.667,0.157 -4.041,0.318 -15.172,6.448 -34.005,30.175 -36.203,44.057 11.458,-2.241 29.089,3.326 32.638,4.815 0.593,0.136 1.191,0.273 1.772,0.405 0.921,0.292 1.824,0.579 2.711,0.859 0.442,0.139 0.877,0.279 1.306,0.416 0.426,0.158 0.834,0.346 1.243,0.514 0.809,0.344 1.598,0.68 2.362,1.002 0.763,0.318 1.438,0.773 2.115,1.126 0.669,0.374 1.309,0.733 1.918,1.074 0.565,0.414 1.098,0.806 1.602,1.174 0.498,0.367 0.967,0.709 1.399,1.026 0.435,0.311 0.753,0.702 1.083,0.997 1.268,1.237 1.993,1.942 1.993,1.942 0,0 -0.784,-0.634 -2.157,-1.746 -0.353,-0.262 -0.693,-0.615 -1.154,-0.882 -0.453,-0.272 -0.943,-0.567 -1.47,-0.883 -0.52,-0.312 -1.074,-0.646 -1.659,-0.997 -0.625,-0.278 -1.282,-0.57 -1.968,-0.875 -0.691,-0.284 -1.373,-0.661 -2.146,-0.9 -0.765,-0.245 -1.558,-0.499 -2.372,-0.761 -0.409,-0.126 -0.813,-0.271 -1.237,-0.383 -0.429,-0.094 -0.864,-0.19 -1.301,-0.286 -0.874,-0.191 -1.768,-0.386 -2.675,-0.585 -0.922,-0.123 -1.861,-0.248 -2.811,-0.374 -0.473,-0.064 -0.949,-0.128 -1.427,-0.192 l -1.455,-0.085 c -0.973,-0.056 -1.952,-0.111 -2.936,-0.167 -0.987,0.009 -1.977,0.018 -2.967,0.026 -0.987,-0.015 -1.975,0.052 -2.956,0.131 -0.982,0.079 -1.959,0.12 -2.924,0.228 -1.926,0.268 -3.824,0.448 -5.626,0.844 -1.818,0.304 -3.539,0.74 -5.16,1.165 -0.127,0.031 -0.24,0.074 -0.363,0.107 -32.89,28.629 -5.713,54.809 -5.713,54.809 l -0.323,0.203 c 14.944,11.671 32.229,30.265 35.844,48.344 4.278,21.39 -0.49,33.78 -3.123,38.614 m -57.152,-16.969 c -0.128,-1.996 -0.583,-4.335 -1.692,-6.739 -2.315,-0.157 -4.471,-0.031 -6.454,0.349 2.049,1.783 4.88,3.981 8.146,6.39 m 35.103,14.9 c -2.495,-5.97 -13.745,-15.196 -26.692,-19.539 -2.33,-0.782 -4.579,-1.344 -6.733,-1.708 1.172,3.214 1.405,6.225 1.315,8.529 8.985,6.478 20.148,13.944 27.512,18.87 2.096,1.4 3.763,2.516 5.091,3.412 0.08,-3.143 0.022,-6.869 -0.493,-9.564 m -114.754,-10.048 c -0.021,-0.013 -0.035,-0.032 -0.057,-0.045 -1.619,-1.064 -3.676,-1.418 -5.473,-1.482 l 0.227,8.028 c 1.937,-0.727 4.416,-2.455 5.303,-6.501 m 2.656,4.171 c -0.1,-0.498 -0.238,-0.954 -0.41,-1.382 -1.618,4.065 -4.797,6.028 -7.462,6.798 l 0.773,27.286 c 1.919,-0.031 4.368,-0.172 6.946,-0.565 0.46,-6.315 1.623,-24.781 0.153,-32.137 m -14.211,-61.048 c 0.391,20.17 0.761,39.221 5.677,51.996 l 0.146,0.383 c 2.288,0.05 5.036,0.489 7.291,1.966 2.122,1.391 3.469,3.451 4.004,6.121 1.502,7.505 0.462,25.073 -0.042,32.14 4.85,-1.132 9.628,-3.329 11.819,-7.543 13.131,-25.246 10.753,-54.319 10.031,-60.675 -0.234,-0.247 -0.477,-0.504 -0.761,-0.804 -1.388,-1.468 -3.37,-3.564 -5.748,-6.078 -1.19,-1.26 -2.478,-2.622 -3.842,-4.064 -1.357,-1.444 -2.702,-3.013 -4.14,-4.613 -2.856,-3.208 -5.902,-6.631 -8.947,-10.052 -3.001,-3.396 -6.003,-6.794 -8.817,-9.978 -2.56,-2.93 -5.018,-5.644 -7.201,-8.022 0.266,6.464 0.408,12.911 0.53,19.223 m -25.55,-54.577 c 6.736,4.489 14.073,10.925 23.088,20.248 l -3.197,3.092 3.16,-2.942 c 0,0 3.12,3.329 7.803,8.324 1.17,1.249 2.437,2.602 3.779,4.033 1.344,1.428 2.698,3.023 4.132,4.625 2.853,3.229 5.895,6.671 8.938,10.113 3.022,3.396 6.043,6.793 8.876,9.977 1.424,1.582 2.771,3.154 4.1,4.569 1.333,1.407 2.592,2.738 3.754,3.967 2.326,2.459 4.263,4.509 5.618,5.943 0.678,0.717 1.21,1.28 1.571,1.665 0.101,0.105 0.186,0.196 0.259,0.273 13.505,13.552 23.805,20.872 32.411,23.033 l 1.253,0.315 0.473,0.497 c 0.622,-0.184 1.25,-0.346 1.885,-0.473 6.31,-1.261 13.069,0.17 18.207,1.893 12.734,4.272 25.541,13.858 28.553,21.371 l 0.076,0.261 c 0.686,3.43 0.673,8.274 0.534,11.855 2.604,-0.766 7.555,-3.755 10.338,-9.203 l -0.035,-0.02 c 3.326,-7.052 6.601,-22.044 -8.846,-43.207 -16.334,-22.379 -36.434,-32.932 -46.466,-37.104 -11.953,1.23 -18.093,3.428 -22.172,12.776 -0.538,-8.391 4.811,-16.01 13.093,-20.594 -4.264,-19.149 -22.493,-41.069 -44.829,-53.635 -11.488,-1.149 -21.248,3.279 -23.792,4.458 1.425,-2.798 9.272,-9.814 21.314,-11.518 0.423,-5.62 -0.243,-10.845 -1.104,-14.859 -20.871,2.417 -30.01,7.962 -37.874,3.248 -9.876,-5.919 -11.844,-22.368 -13.702,-44.892 -1.169,-14.144 -8.483,-45.867 -13.764,-67.52 2.28,29.797 2.76,69.765 -3.411,102.355 -6.561,34.662 7.032,42.097 13.563,45.669 0.917,0.502 1.708,0.935 2.414,1.407 m 194.664,-480.742 0.062,0.909 -12.38,35.229 -1.256,0.825 c -18.416,12.106 -71.34,49.064 -94.778,74.361 -16.55,17.864 -28.708,25.543 -47.109,37.167 -8.003,5.054 -17.076,10.784 -28.305,18.475 -14.369,9.841 -21.701,18.464 -22.411,26.361 0,0 -0.076,0.434 -0.209,1.19 -0.034,0.19 -0.085,0.401 -0.118,0.641 -0.011,0.244 -0.023,0.508 -0.037,0.789 -0.035,0.568 -0.083,1.216 -0.005,1.958 0.02,0.373 0.043,0.76 0.066,1.159 0.059,0.41 0.124,0.834 0.189,1.269 0.098,0.877 0.347,1.819 0.559,2.797 0.498,1.963 1.156,4.086 1.932,6.228 0.786,2.169 1.572,4.339 2.309,6.371 0.369,1.027 0.701,2.04 0.992,3.009 0.319,0.951 0.514,1.912 0.744,2.754 0.155,0.884 0.327,1.663 0.397,2.388 0.043,0.733 0.125,1.354 0.102,1.858 -0.071,1.004 -0.11,1.578 -0.11,1.578 0,0 -0.098,-0.569 -0.271,-1.562 -0.098,-0.495 -0.326,-1.055 -0.522,-1.698 -0.223,-0.633 -0.574,-1.345 -0.907,-2.106 -0.418,-0.746 -0.797,-1.56 -1.322,-2.387 -0.493,-0.835 -1.037,-1.702 -1.629,-2.595 -1.201,-1.794 -2.481,-3.708 -3.762,-5.623 -1.297,-1.939 -2.539,-3.985 -3.621,-6.012 -0.512,-1.039 -1.046,-2.021 -1.439,-3.052 -0.202,-0.491 -0.396,-0.966 -0.585,-1.426 -0.534,0.537 -1.08,1.115 -1.677,1.712 -0.503,0.581 -1.024,1.186 -1.565,1.811 -0.525,0.638 -0.996,1.332 -1.527,2.028 -0.511,0.705 -0.931,1.475 -1.428,2.242 -0.416,0.795 -0.856,1.607 -1.232,2.461 -0.739,1.713 -1.298,3.558 -1.637,5.506 -0.292,1.951 -0.366,3.996 -0.205,6.068 0.366,4.156 1.626,8.358 2.988,12.292 0.037,0.112 0.077,0.218 0.115,0.331 l 0.09,0.117 c -0.015,0.01 -0.024,0.024 -0.039,0.033 1.294,3.762 2.615,7.332 3.266,10.563 0.38,1.67 0.509,3.255 0.552,4.644 -0.016,1.399 -0.162,2.603 -0.391,3.572 -0.133,0.478 -0.249,0.905 -0.352,1.278 -0.143,0.351 -0.266,0.652 -0.366,0.893 -0.201,0.484 -0.309,0.743 -0.309,0.743 0,0 0.074,-0.269 0.216,-0.776 0.067,-0.253 0.152,-0.564 0.251,-0.93 0.053,-0.37 0.115,-0.799 0.183,-1.275 0.103,-0.956 0.098,-2.13 -0.052,-3.45 -0.206,-1.317 -0.51,-2.786 -1.075,-4.334 -0.909,-2.728 -2.408,-5.71 -4.008,-8.95 -7.134,8.09 -2.627,22.037 4.026,39.192 2.45,6.314 4.767,12.31 5.669,17.331 l 0.032,-0.007 c 0.137,0.628 0.273,1.303 0.413,2.023 14.917,43.969 20.9,68.094 28.662,115.135 1.263,7.651 4.512,17.646 12.83,21.819 5.674,2.848 13.071,2.731 22.054,-0.301 l -0.05,-0.078 c 0,0 0.086,-0.047 0.248,-0.134 0.108,-0.047 0.34,-0.192 0.644,-0.383 0.585,-0.406 1.47,-1.009 2.408,-1.922 0.489,-0.434 0.959,-0.97 1.475,-1.526 0.473,-0.591 1.016,-1.195 1.465,-1.903 0.504,-0.676 0.928,-1.437 1.361,-2.22 0.458,-0.772 0.761,-1.633 1.162,-2.467 0.3,-0.866 0.61,-1.742 0.873,-2.625 0.197,-0.894 0.427,-1.777 0.59,-2.649 0.114,-0.883 0.223,-1.737 0.327,-2.547 0.072,-0.816 0.062,-1.597 0.096,-2.316 0.028,-0.723 0.048,-1.392 -0.011,-1.976 -0.039,-0.59 -0.07,-1.105 -0.096,-1.528 -0.054,-0.853 -0.086,-1.339 -0.086,-1.339 0,0 0.123,0.471 0.337,1.297 0.106,0.415 0.237,0.92 0.387,1.498 0.173,0.577 0.281,1.243 0.391,1.975 0.107,0.731 0.271,1.526 0.358,2.376 0.053,0.858 0.111,1.762 0.169,2.699 0.005,0.938 -0.055,1.916 -0.085,2.92 -0.095,0.993 -0.248,2.006 -0.398,3.027 -0.254,0.992 -0.42,2.028 -0.76,2.995 -0.298,0.916 -0.608,1.82 -0.996,2.668 0.376,-0.187 0.746,-0.364 1.128,-0.561 5.9,-3.049 11.815,-5.364 17.917,-7.025 l -0.009,-0.034 c 16.961,-4.689 40.353,-10.111 59.149,-14.471 14.158,-3.282 26.388,-6.118 31.21,-7.562 l 1.1,3.674 c 0.027,-0.016 0.05,-0.025 0.078,-0.041 l -0.934,-3.122 c 6.811,-2.04 13.09,-9.623 20.362,-18.407 4.851,-5.86 10.348,-12.501 16.819,-18.376 1.711,-1.554 2.817,-3.377 3.054,-4.979 -1.587,-0.819 -3.537,-2.194 -4.897,-4.376 -4.247,5.89 -15.79,13.045 -30.067,21.497 -3.306,1.959 -6.16,3.648 -7.816,4.752 -5.297,3.534 -19.367,3.213 -39.227,1.364 -48.142,-0.511 -63.99,7.365 -83.807,-1.039 -23.126,-9.808 -14.085,-27.597 -17.284,-46.106 -2.65496,-26.44084 -6.95521,-47.37977 -14.196,-71.065 -0.872,-3.015 -1.916,-5.782 -2.778,-8.375 -0.886,-2.589 -1.699,-4.959 -2.42,-7.06 -0.839,-2.056 -1.572,-3.847 -2.177,-5.321 -1.209,-2.955 -1.9,-4.645 -1.9,-4.645 0,0 0.776,1.651 2.133,4.539 0.68,1.45 1.505,3.207 2.452,5.223 0.826,2.067 1.762,4.398 2.78,6.942 0.996,2.551 2.186,5.281 3.21,8.247 9.6163,26.75073 18.33354,53.36259 25.15,81.033 0.768,3.1 1.205,4.871 1.205,4.871 l -2.782,0.606 v 0.002 l 2.794,-0.558 c 4.268,21.341 20.823,22.971 33.982,22.583 0.122,-0.047 0.269,-0.108 0.435,-0.175 0.339,-0.173 0.787,-0.347 1.254,-0.648 0.49,-0.267 1.001,-0.639 1.565,-1.052 0.522,-0.455 1.147,-0.917 1.671,-1.538 0.269,-0.306 0.569,-0.603 0.841,-0.94 0.252,-0.353 0.509,-0.713 0.771,-1.082 0.29,-0.355 0.484,-0.778 0.713,-1.192 0.213,-0.422 0.489,-0.826 0.664,-1.282 0.319,-0.922 0.803,-1.825 0.989,-2.832 0.254,-0.987 0.528,-1.985 0.606,-3.01 0.135,-1.014 0.284,-2.025 0.251,-3.019 -0.013,-0.988 0.084,-1.96 -0.017,-2.875 -0.083,-0.916 -0.161,-1.786 -0.231,-2.587 -0.044,-0.814 -0.207,-1.538 -0.321,-2.187 -0.122,-0.65 -0.225,-1.216 -0.312,-1.681 -0.173,-0.94 -0.272,-1.475 -0.272,-1.475 0,0 0.187,0.509 0.517,1.403 0.166,0.448 0.366,0.994 0.596,1.62 0.227,0.627 0.516,1.329 0.698,2.132 0.212,0.802 0.443,1.669 0.686,2.587 0.264,0.917 0.339,1.928 0.529,2.961 0.21,1.034 0.242,2.124 0.285,3.243 0.1,1.12 0,2.263 -0.098,3.419 -0.027,1.164 -0.374,2.294 -0.577,3.44 -0.12,0.571 -0.35,1.11 -0.522,1.66 -0.19,0.546 -0.347,1.1 -0.617,1.6 -0.247,0.513 -0.49,1.018 -0.729,1.512 -0.267,0.481 -0.573,0.926 -0.851,1.377 -0.077,0.127 -0.169,0.231 -0.251,0.352 5.501,0.13 14.605,1.141 24.916,2.291 20.161,2.248 50.628,5.642 56.384,1.804 1.79,-1.192 4.708,-2.919 8.087,-4.919 8.355,-4.95 27.882,-16.512 28.925,-20.969 -1.929,-2.495 -2.377,-6.174 -2.476,-7.945 -0.087,-1.587 -0.13,-5.382 1.4,-6.356 0.235,-0.149 23.942,-14.787 29.617,-15.922 0.079,-0.015 0.153,-0.028 0.223,-0.039 4.254,-0.623 7.566,3.721 9.052,6.131 0.247,0.042 0.477,0.098 0.706,0.155 3.076,-8.286 -8.45,-18.023 -20.854,-19.768 -13.367,-1.879 -51.083,3.429 -70.865,28.928 0,0 -2.858,7.752 -1.356,20.301 -6.59,-7.752 -6.919,-17.26 -6.514,-23.389 -2.834,-14.172 -40.777,-31.022 -68.838,-12.56 0.552,-5.779 14.543,-16.136 28.789,-21.758 2.389,-27.1 -30.188,-64.004 -76.507,-76.408 43.922,4.82 76.87,37.913 76.87,37.913 0,0 13.736,0.655 7.994,-6.008 -5.742,-6.663 -61.517,-57.362 -57.271,-72.193 12.636,25.022 60.763,57.887 60.763,57.887 7.363,2.811 10.768,-4.801 10.768,-4.801 1.221,-27.577 -16.853,-54.953 -28.674,-71.233 14.68,7.898 33.553,40.077 36.774,51.64 35.481,-9.043 108.535,-23.006 144.632,-46.604 63.619,-47.871 12.84,-138.622 -56.205,-124.812 16.883,-12.334 55.942,-7.743 84.048,16.868 L 553.011,61.933573 c -35.328,-17.418 -81.381,-25.666 -111.864,-25.245 -7.915,33.692 -28.456,69.332997 -37.245,78.709997 -5.381,5.739 -6.077,27.507 -5.253,39.879 m 203.933,-42.375 C 598.134,93.258573 581.635,77.524573 560.004,65.572573 L 522.339,236.94057 c 3.023,5.241 5.64,10.913 7.686,17.091 5.728,17.277 15.022,44.877 24.413,56.448 -2.647,-56.87 17.312,-104.813 32.363,-140.915 10.234,-24.557 18.322,-43.953 15.781,-56.662 m -5.363,61.019 c -16.453,39.476 -38.987,93.541 -29.439,157.213 5.687,44.959 -2.979,86.382 -25.763,123.113 -21.324,34.382 -47.89,53.339 -62.497,61.862 -1.644,12.453 -8.774,26.76 -15.937,31.741 -28.909,20.099 -37.237,57.267 -43.335,84.475 -1.738,7.757 -3.24,14.458 -5.035,19.974 -15.439,47.47 -15.823,63.95 -15.17,88.99 0.436,16.817 -8.489,26.72 -17.532,29.076 -2.334,0.606 -4.705,0.701 -6.935,0.28 -4.989,5.749 -11.888,9.529 -17.571,9.529 -0.436,0 -0.859,-0.023 -1.273,-0.069 l -1.953,-0.216 -1.542,-1.222 c -0.633,-0.503 -4.867,-3.334 -8.27,-5.607 -16.248,-10.868 -34.116,-22.979 -41.315,-29.693 -6.987,-2.15 -14.62,-6.713 -23.218,-13.882 -0.184,14.329 -2.645,33.431 -11.985,51.384 -6.944,13.354 -25.13,14.796 -32.626,14.796 -2.3,0 -3.829,-0.127 -4.112,-0.152 l -6.059,-0.545 -1.402,-49.453 c -5.227,-14.521 -5.605,-34.041 -6.006,-54.698 -0.162,-8.348 -0.361,-18.68 -1.032,-28.474 -7.586,-7.704 -13.967,-13.248 -19.486,-16.927 -0.295,-0.195 -0.935,-0.546 -1.574,-0.895 -8.178,-4.473 -27.329,-14.947 -19.24,-57.679 8.617,-45.515 3.924,-107.819 -0.603,-132.21 l -0.275,0.031 -0.267,-2.381 c -0.438,-3.897 -2.774,-9.918 -5.247,-16.295 -6.407,-16.52 -15.118,-38.982 -0.147,-52.641 -0.48,-1.452 -0.864,-2.845 -1.165,-4.236 -0.53,-2.574 -0.767,-5.185 -0.7,-7.805 0.113,-2.585 0.536,-5.151 1.26,-7.634 0.334,-1.128 0.729,-2.178 1.113,-3.194 l 0.152,-0.378 c 0.148,-0.317 0.291,-0.633 0.432,-0.947 0.316,-0.699 0.64,-1.421 1.047,-2.169 0.169,-0.294 0.335,-0.593 0.497,-0.886 0.355,-0.641 0.706,-1.272 1.11,-1.907 l 1.576,-2.367 0.878,-1.169 c 0.813,-1.081 1.58,-2.103 2.369,-2.96 0.285,-0.32 0.556,-0.632 0.816,-0.931 0.637,-0.733 1.238,-1.424 1.779,-1.942 l 0.112,-0.114 c 2.128,-10.589 10.688,-20.71 26.853,-31.784 11.348,-7.772 20.481,-13.541 28.541,-18.632 l 0.119,-0.076 c 18.276,-11.543 29.307,-18.511 44.852,-35.29 22.492,-24.279 71.511,-59.287 94.923,-74.842 l 10.36,-29.48 c -0.487,-9.062 -1.121,-36.81 8.365,-46.929 7.364,-7.854997 28.219,-43.438997 35.198,-76.745997 l 1.097,-5.24 5.353,-0.2 c 2.021,-0.074 4.137,-0.112 6.287,-0.112 h 0.008 c 31.761,0 70.499,7.825 101.092,20.421 27.302,11.24 61.423,31.593 68.936,64.778997 3.239,16.2 -5.431,36.998 -16.414,63.345"
       style="fill:#231f20;fill-opacity:1;fill-rule:nonzero;stroke:none"
       id="path188"
       sodipodi:nodetypes="cccccccccccccccccccccccccccccccccccccccccccccccccccccccccccccccccccccccccccccccccccccccccccccccccccccccccccccccccccccccscccccccccccccccccccccccccccccccccccccccccccccccccccccccccccccccccccccccccccccccccccccccccccccccccccccccccccccccsccccccccccccccccccccccccccccccccccccccccccccccccccccccccccccccccccccccccccccccccccccccccccccccccccccccccccccccccccccccccccccccccccccccccscccccccccccccccccccccccccccccscccccccsccccccccccccccccccccccccccccccccccccccssccc" />
  </g>
</svg>
