<?xml version="1.0" standalone="no"?>
<!--Created with Inkscape (http://www.inkscape.org/)-->
<svg xmlns="http://www.w3.org/2000/svg" xmlns:xlink="http://www.w3.org/1999/xlink" viewBox="0 0 48 48">
  <defs>
    <linearGradient id="g">
      <stop offset="0" stop-color="white" stop-opacity="1"/>
      <stop offset="1" stop-color="white" stop-opacity="0"/>
    </linearGradient>
    <linearGradient id="f">
      <stop offset="0" stop-color="white" stop-opacity="1"/>
      <stop offset="1" stop-color="white" stop-opacity=".2937853"/>
    </linearGradient>
    <linearGradient id="e">
      <stop offset="0" stop-color="#d6d6d1" stop-opacity="1"/>
      <stop offset="1" stop-color="#a2a298" stop-opacity="1"/>
    </linearGradient>
    <linearGradient id="d">
      <stop offset="0" stop-color="black" stop-opacity="1"/>
      <stop offset="1" stop-color="black" stop-opacity="0"/>
    </linearGradient>
    <linearGradient id="a">
      <stop offset="0" stop-color="#0c1d35" stop-opacity="1"/>
      <stop offset="1" stop-color="#898989" stop-opacity="1"/>
    </linearGradient>
    <linearGradient id="c">
      <stop offset="0" stop-color="#0c1d35" stop-opacity="1"/>
      <stop offset="1" stop-color="white" stop-opacity=".2937853"/>
    </linearGradient>
    <linearGradient id="b">
      <stop offset="0" stop-color="#729fcf" stop-opacity="1"/>
      <stop offset="1" stop-color="#295ead" stop-opacity="1"/>
    </linearGradient>
    <linearGradient xlink:href="#a" id="n" gradientUnits="userSpaceOnUse" gradientTransform="matrix(1,0,0,1.125,10.18406,-6.709383)" x1="-7.1332517" y1="37.776779" x2="-7.93502" y2="45.846867"/>
    <linearGradient xlink:href="#b" id="j" gradientUnits="userSpaceOnUse" gradientTransform="translate(41.96397,-27.37022)" x1="-10.69499" y1="41.105709" x2="-5.479228" y2="41.017323"/>
    <linearGradient xlink:href="#c" id="m" gradientUnits="userSpaceOnUse" gradientTransform="matrix(0.579842,0,0,0.676482,38.80719,-11.92056)" x1="-8.9375" y1="40.375" x2="-7" y2="40.375"/>
    <radialGradient xlink:href="#d" id="i" cx="21.96048" cy="34.498356" fx="21.96048" fy="34.498356" r="12.727922" gradientTransform="matrix(0.982963,0,0,0.508943,0.37414,16.84139)" gradientUnits="userSpaceOnUse"/>
    <radialGradient xlink:href="#d" id="h" gradientUnits="userSpaceOnUse" gradientTransform="matrix(0.982963,0,0,0.508943,0.37414,16.84139)" cx="21.96048" cy="34.498356" fx="21.96048" fy="34.498356" r="12.727922"/>
    <linearGradient xlink:href="#e" id="k" x1="29.432758" y1="18.474344" x2="27.225063" y2="20.911844" gradientUnits="userSpaceOnUse"/>
    <linearGradient xlink:href="#f" id="l" gradientUnits="userSpaceOnUse" gradientTransform="matrix(0.579842,0,0,0.676482,34.96935,-13.25847)" x1="-6.9787297" y1="37.126617" x2="-9.9043236" y2="36.848248"/>
    <linearGradient xlink:href="#g" id="o" x1="37.624947" y1="13.160365" x2="39.844299" y2="9.9728651" gradientUnits="userSpaceOnUse"/>
  </defs>
  <metadata/>
  <path d="M 34.471457 34.299805 A 12.727922 6.3639612 0 1 1  9.0156116,34.299805 A 12.727922 6.3639612 0 1 1  34.471457 34.299805 z" transform="matrix(0.824957,0,0,0.549971,18.3303,22.17163)" opacity=".2160804" fill="url(#h)" fill-opacity="1" stroke="none" stroke-width="1" stroke-linecap="round" stroke-linejoin="round" stroke-miterlimit="4" stroke-dasharray="none" stroke-opacity="1"/>
  <path d="M 34.471457 34.299805 A 12.727922 6.3639612 0 1 1  9.0156116,34.299805 A 12.727922 6.3639612 0 1 1  34.471457 34.299805 z" transform="matrix(0.824957,0,0,0.549971,-5.437469,22.6361)" opacity=".55778894" fill="url(#i)" fill-opacity="1" stroke="none" stroke-width="1" stroke-linecap="round" stroke-linejoin="round" stroke-miterlimit="4" stroke-dasharray="none" stroke-opacity="1"/>
  <g transform="matrix(1.006671,0,0,1,0.966642,0.716205)">
    <rect transform="matrix(0.707107,0.707107,-0.707107,0.707107,0,0)" ry="3.6244409" rx="4.9605856" y="5.3018064" x="28.463966" height="17.827978" width="10.95432" opacity="1" fill="url(#j)" fill-opacity="1" stroke="#204a87" stroke-width=".99668151" stroke-linecap="round" stroke-linejoin="round" stroke-miterlimit="4" stroke-dasharray="none" stroke-opacity="1"/>
    <rect transform="matrix(0.707461,0.706752,-0.707461,0.706752,0,0)" ry="2.5654778" rx="4.0144925" y="6.3485308" x="29.362755" height="15.767583" width="9.1483574" opacity=".4" fill="none" fill-opacity="1" stroke="#fff" stroke-width=".99668235" stroke-linecap="round" stroke-linejoin="round" stroke-miterlimit="4" stroke-dasharray="none" stroke-opacity="1"/>
    <path d="M 37.273948,6.6954072 L 34.044844,10.451912 L 33.539768,12.358575 L 18.755652,27.293572 C 17.762279,28.418572 19.635256,30.414892 20.876973,29.414892 L 35.657931,14.508306 L 37.277332,14.303118 L 41.276759,10.745488 C 41.276759,10.745488 37.273948,6.6954072 37.273948,6.6954072 z " opacity="1" fill="url(#k)" fill-opacity="1" stroke="#888a85" stroke-width=".99668127" stroke-linecap="round" stroke-linejoin="round" stroke-miterlimit="4" stroke-dasharray="none" stroke-opacity="1"/>
    <rect width="1.4153432" height="10.57757" x="29.170921" y="8.3889437" rx="0.66390902" ry="1.5982778" transform="matrix(0.707796,0.706417,-0.707796,0.706417,0,0)" opacity=".28804345" fill="url(#l)" fill-opacity="1" stroke="none" stroke-width="1" stroke-linecap="round" stroke-linejoin="round" stroke-miterlimit="4" stroke-dasharray="none" stroke-opacity="1"/>
    <rect transform="matrix(0.707796,0.706417,-0.707796,0.706417,0,0)" ry="1.5982751" rx="1.5982752" y="9.7268591" x="33.00877" height="10.823715" width="2.3193674" opacity=".28804345" fill="url(#m)" fill-opacity="1" stroke="none" stroke-width="1" stroke-linecap="round" stroke-linejoin="round" stroke-miterlimit="4" stroke-dasharray="none" stroke-opacity="1"/>
  </g>
  <g transform="matrix(1.005587,0,0,1.004813,-0.22864,1.985055)">
    <path d="M 8.1359163,8.5385328 C 6.1926724,10.556239 6.212511,13.730389 8.2022073,15.720086 L 10.853858,18.371737 C 12.662831,20.18071 15.266488,20.553624 17.273387,19.111664 L 36.298766,38.160939 C 37.185095,39.047268 38.594421,39.047268 39.480747,38.160939 L 41.248513,36.393173 C 42.134842,35.506844 42.134843,34.097521 41.248513,33.211192 L 22.200387,14.184664 C 23.642347,12.177766 23.269433,9.5741078 21.46046,7.7651348 L 18.808809,5.1134838 C 16.819113,3.1237878 13.644963,3.1039478 11.627256,5.0471928 L 16.952654,10.328397 L 16.952654,12.449717 L 15.53844,13.863931 L 13.41712,13.863931 C 11.666497,12.081602 9.8444463,10.356837 8.1359163,8.5385328 z " opacity="1" fill="#e9e7e5" fill-opacity="1" stroke="#7f7f7f" stroke-width=".99482751" stroke-linecap="round" stroke-linejoin="round" stroke-miterlimit="4" stroke-dasharray="none" stroke-opacity="1"/>
    <path transform="matrix(0.516124,-0.516124,0.516132,0.516132,32.85599,-14.52061)" d="M -41.454134 52.817165 A 1.3700194 1.3700194 0 1 1  -44.194173,52.817165 A 1.3700194 1.3700194 0 1 1  -41.454134 52.817165 z" opacity="1" fill="#7f7f7f" fill-opacity="1" stroke="none" stroke-width=".9133417" stroke-linecap="round" stroke-linejoin="round" stroke-miterlimit="4" stroke-dasharray="none" stroke-opacity="1"/>
    <path d="M 8.2877553,10.137849 L 13.047585,14.897679 L 15.889852,14.840343 L 17.991565,12.738629 L 17.923902,9.8963618 L 13.224155,5.1966148 C 14.243323,4.2166598 16.73124,4.3929568 17.312908,4.9755018 L 21.506505,9.1690978 C 22.60496,10.267553 21.890914,12.991009 20.864369,14.214463 L 40.752454,34.228099 C 41.143198,34.626166 41.002693,35.367983 40.705936,35.703549 L 38.647115,37.63737 C 38.338478,38.011363 37.467341,38.072856 37.252454,37.728099 L 17.426869,17.776964 C 16.381369,18.822464 13.395216,19.391546 12.363765,18.370713 L 8.1407313,14.147679 C 7.189739,13.43607 7.4887473,10.849459 8.2877553,10.137849 z " opacity=".7" fill="none" fill-opacity=".75" fill-rule="evenodd" stroke="#fff" stroke-width=".99482703px" stroke-linecap="butt" stroke-linejoin="miter" stroke-opacity="1"/>
    <rect transform="matrix(0.707107,-0.707107,0.707107,0.707107,0,0)" ry="1.74103" rx="1.74103" y="27.180147" x="0.18405671" height="21.956871" width="4.0000019" opacity=".18478262" fill="url(#n)" fill-opacity="1" stroke="none" stroke-width="1" stroke-linecap="round" stroke-linejoin="round" stroke-miterlimit="4" stroke-dasharray="none" stroke-opacity="1"/>
  </g>
  <path style="marker:none" d="M 38.935067,8.2252435 L 41.7193,11.053671 L 37.69763,13.970486 L 36.062446,12.556273 L 38.935067,8.2252435 z " opacity="1" color="#000" fill="url(#o)" fill-opacity="1" fill-rule="nonzero" stroke="none" stroke-width="1" stroke-linecap="butt" stroke-linejoin="miter" marker-start="none" marker-mid="none" marker-end="none" stroke-miterlimit="4" stroke-dasharray="none" stroke-dashoffset="0" stroke-opacity="1" visibility="visible" display="inline" overflow="visible"/>
</svg>
