<?xml version="1.0" encoding="UTF-8" standalone="no"?>
<!-- Creator: stimoroll@gmail.com -->
<svg
   xmlns:dc="http://purl.org/dc/elements/1.1/"
   xmlns:cc="http://creativecommons.org/ns#"
   xmlns:rdf="http://www.w3.org/1999/02/22-rdf-syntax-ns#"
   xmlns:svg="http://www.w3.org/2000/svg"
   xmlns="http://www.w3.org/2000/svg"
   xmlns:sodipodi="http://sodipodi.sourceforge.net/DTD/sodipodi-0.dtd"
   xmlns:inkscape="http://www.inkscape.org/namespaces/inkscape"
   xml:space="preserve"
   width="100%"
   height="100%"
   style="fill-rule:evenodd"
   viewBox="0 0 358.13918 295.65878"
   id="svg2"
   sodipodi:version="0.32"
   inkscape:version="0.46"
   sodipodi:docname="svg.svg"
   inkscape:output_extension="org.inkscape.output.svg.inkscape"
   version="1.0"><metadata
     id="metadata47"><rdf:RDF><cc:Work
         rdf:about=""><dc:format>image/svg+xml</dc:format><dc:type
           rdf:resource="http://purl.org/dc/dcmitype/StillImage" /><dc:title>Worker labor holding hammer in hand</dc:title><dc:subject><rdf:Bag><rdf:li>Labor-day labor day worker employee blue-collar blue collar industry hammer arm hand fist manual</rdf:li></rdf:Bag></dc:subject></cc:Work></rdf:RDF></metadata><sodipodi:namedview
     inkscape:window-height="750"
     inkscape:window-width="665"
     inkscape:pageshadow="2"
     inkscape:pageopacity="0.0"
     guidetolerance="10.0"
     gridtolerance="10.0"
     objecttolerance="10.0"
     borderopacity="1.0"
     bordercolor="#666666"
     pagecolor="#ffffff"
     id="base"
     showgrid="false"
     inkscape:zoom="1.4142136"
     inkscape:cx="172.84318"
     inkscape:cy="147.11308"
     inkscape:window-x="102"
     inkscape:window-y="51"
     inkscape:current-layer="svg2" /><defs
     id="defs4"><inkscape:perspective
       sodipodi:type="inkscape:persp3d"
       inkscape:vp_x="0 : 444.84204 : 1"
       inkscape:vp_y="0 : 1000 : 0"
       inkscape:vp_z="539.88818 : 444.84204 : 1"
       inkscape:persp3d-origin="269.94409 : 296.56136 : 1"
       id="perspective45" /><style
       type="text/css"
       id="style6">
   
    .fil5 {fill:white}
    .fil0 {fill:#211919}
    .fil3 {fill:#312167}
    .fil6 {fill:#C57532}
    .fil2 {fill:#DE2119}
    .fil4 {fill:#FFF700}
    .fil1 {fill:white}
   
  </style></defs><g
     id="g11802"><path
       id="path9908"
       transform="translate(-3.5447666e-6,0)"
       d="M 149.71875 0 C 145.83071 -0.054795834 127.50217 16.480404 127.3125 20.5 C 166.06482 59.776178 201.75661 104.23987 236.15625 147.875 C 225.80737 156.41088 205.18448 170.37424 205.125 175.1875 C 205.06187 180.29559 290.68509 245.5286 294.4375 244.78125 C 298.46316 243.97945 358.83602 184.83549 358.125 180.21875 C 357.45667 175.87932 291.38622 104.90969 286.59375 105.40625 C 281.78043 105.90498 269.15614 119.32276 260.4375 126.28125 C 252.64309 120.05279 243.35546 107.28966 239.9375 104.65625 C 231.68545 98.298349 154.15083 0.059398487 149.71875 0 z M 282.21875 131.28125 C 286.88502 131.79205 338.26239 178.6361 334.40625 184.25 C 332.85175 186.51309 310.51672 167.18336 297.78125 151.3125 C 293.10397 145.48368 278.50725 132.40865 282.03125 131.3125 C 282.08138 131.29691 282.14468 131.27314 282.21875 131.28125 z M 251.9375 146.78125 C 257.78976 146.79728 279.80684 166.24323 292.59375 179.53125 C 297.77574 184.91632 323.91126 207.99796 320.5 209.40625 C 317.39458 210.68827 248.52468 151.57339 250.6875 147.4375 C 250.91882 146.99514 251.33209 146.77959 251.9375 146.78125 z M 236.375 172.15625 C 242.24289 171.9218 265.68184 190.64948 278.46875 203.9375 C 283.65074 209.32258 298.94251 222.18547 295.53125 223.59375 C 292.42583 224.87577 232.39165 179.18623 235.15625 172.84375 C 235.35571 172.38614 235.76798 172.1805 236.375 172.15625 z "
       style="fill:#252020;stroke:#2c0505;stroke-width:1.15438938000000002;stroke-opacity:1;fill-opacity:1" /><path
       id="_221735344"
       d="M 143.47062,42.582834 C 139.58011,45.306943 82.399229,112.9869 67.605999,126.26122 C 60.477163,126.26122 9.6555722,171.9849 1.6352926,178.5731 C 1.256348,178.5731 0.86081126,178.96829 0.86082297,179.34757 C -4.23701,184.44609 14.824274,231.8155 18.321586,242.29081 C 18.321586,242.29081 18.68156,242.65114 19.060853,243.03007 C 20.328875,249.36779 16.500833,247.91352 12.266643,252.14769 C 11.887362,252.14769 11.492175,252.508 11.492175,252.88696 L 35.00788,290.06149 C 35.00788,290.56607 35.00788,291.07063 35.00788,291.57522 C 34.042998,291.57522 33.085213,291.61381 32.121222,291.64563 C 32.820835,292.04441 33.530992,292.3677 34.303817,292.56091 C 36.849552,293.19733 39.714355,294.30589 42.682167,295.65879 C 48.083975,294.68496 53.531317,294.09057 59.01643,293.93383 C 74.566794,293.93382 90.11023,293.93383 105.66061,293.93383 C 121.73404,293.93382 131.87189,291.18799 149.55894,291.18799 C 153.08257,291.18799 156.47574,291.55808 159.73265,292.10327 C 159.55053,291.19321 159.41026,290.24005 159.31021,289.14621 C 157.56387,288.89587 155.82152,288.64628 154.06494,288.54775 C 144.10482,273.61659 135.6261,259.99558 127.52176,243.80454 C 127.52177,243.04631 127.52175,242.67009 127.52176,242.29081 C 129.03893,240.01543 130.94135,237.73677 132.83744,235.4614 C 132.45818,235.08212 132.06298,234.68692 132.06297,234.68692 C 123.04991,220.03878 114.2661,205.51953 105.51979,190.71819 C 105.14085,190.71819 104.78053,190.71818 104.78053,190.71819 C 100.94849,192.48855 97.153564,194.87657 94.149175,197.5476 C 91.287446,194.33395 88.585365,190.95583 85.806028,187.69072 L 158.60615,130.80243 C 158.60615,130.80243 159.00164,131.16274 159.38062,131.54169 C 169.63933,131.54169 178.41226,134.60437 188.1768,134.60437 C 192.90011,129.65131 197.80263,124.38555 204.12383,121.68481 C 210.44502,118.98407 229.59756,102.40288 229.80065,100.67154 C 230.00374,98.940207 231.07006,96.720332 232.92001,92.888636 C 232.92001,90.310909 237.26966,82.321087 238.23568,78.455344 C 238.23568,78.076056 238.6312,77.716077 239.01014,77.716078 C 238.6312,75.441032 238.23569,73.16137 238.23568,70.886666 C 237.06183,68.195275 234.68228,66.061508 232.18074,64.057255 C 229.68233,61.952218 228.62301,59.735942 228.37879,56.488577 C 228.21763,52.088952 226.38926,49.532797 222.32385,48.14543 C 221.9449,47.766483 221.5494,47.370963 221.54939,47.370961 C 219.65296,42.820877 219.28937,40.564269 213.9807,38.288548 C 213.60175,37.909599 213.20624,37.51408 213.20624,37.514078 C 211.68908,37.134791 208.97793,36.473915 207.46145,36.473915 C 204.3229,28.214379 201.00662,26.987193 194.26694,25.368991 C 190.74977,18.066583 186.94956,18.570095 183.63559,18.574783 C 180.5995,18.579077 180.61646,18.946988 167.72377,26.530695 C 156.61493,33.06511 145.72695,41.00297 143.47062,42.582834 z"
       style="fill:#211919;stroke:none;stroke-width:1.15438938;stroke-opacity:1" /><g
       transform="matrix(0.9758413,0,0,0.9758413,56.668016,7.002132)"
       style="fill:#b3b3ff;fill-opacity:1"
       id="g9910"><path
         sodipodi:nodetypes="ccccc"
         id="_223362584"
         class="fil1"
         d="M 4.9983767,289.28274 L 66.57662,246.74095 L 84.064727,287.34219 L 4.9983767,289.28274 L 4.9983767,289.28274 z"
         style="fill:#b3b3ff;fill-opacity:1" /><polygon
         id="_223173512"
         class="fil1"
         points="89.7884,83.6721 83.0763,74.2752 106.121,59.0611 112.386,68.4578 89.7884,83.6721 "
         style="fill:#b3b3ff;fill-opacity:1"
         transform="matrix(3.4734456,0,0,3.4734456,-324.75003,-2.9012776)" /></g><g
       transform="matrix(0.9758413,0,0,0.9758413,56.668016,7.002132)"
       id="g9897"><path
         sodipodi:nodetypes="ccccscsssssccsccccccssccc"
         id="_223174856"
         class="fil6"
         d="M -28.418496,239.54559 C -35.458799,232.51153 -44.193097,194.40031 -47.846455,183.59203 L 59.335517,87.764946 C 59.88581,86.705292 60.867534,86.108612 61.666887,85.433924 C 61.666887,80.449893 85.480347,52.246243 88.929071,51.478203 C 89.863132,51.270187 90.332314,50.30941 91.260084,49.924189 C 93.711063,55.39077 99.62072,57.480433 103.29323,58.773808 C 105.88922,59.688056 104.62094,63.741657 106.5879,65.537249 C 108.61838,67.390819 112.61865,68.309909 114.55422,70.513616 C 116.28202,72.480773 115.78541,75.366451 117.25419,77.587203 C 118.86228,80.018605 121.79351,79.47808 123.82991,81.730925 C 126.45084,84.630423 128.25748,90.248614 130.89476,92.666886 C 136.76033,92.666886 141.12459,90.148507 146.19686,88.054027 C 146.19686,87.665696 170.65656,62.358738 172.08274,62.358738 C 172.47141,62.358738 172.8601,62.358738 173.63746,62.358738 C 176.02475,64.746029 176.79306,66.338599 178.29949,69.352845 C 178.29949,70.743956 177.52249,71.812732 177.52249,72.461222 C 168.78852,89.929125 146.00455,113.25428 129.3404,120.64401 C 120.03783,120.64401 111.99534,119.72866 102.77997,119.72866 C 100.86825,119.36398 99.391907,119.83615 98.117229,120.50602 L 16.655573,180.4833 C 14.972188,181.72272 12.731583,182.44102 14.324203,184.36903 L 29.089426,202.24368 L -28.418496,239.54559 L -28.418496,239.54559 z"
         style="fill:#c57532" /><path
         sodipodi:nodetypes="csscs"
         id="_223367240"
         class="fil6"
         d="M 130.18756,84.702486 C 125.64748,78.976076 148.68479,53.265712 162.16275,47.90877 C 164.0723,47.149799 169.14217,51.596945 168.1272,52.962755 C 157.17034,67.707083 146.17327,78.494662 134.77979,87.226793 C 133.58684,87.433741 130.83547,85.519686 130.18756,84.702486 z"
         style="fill:#c57532" /><path
         sodipodi:nodetypes="csssccs"
         id="_223371144"
         class="fil6"
         d="M 121.56893,75.569946 C 119.93737,74.012354 120.04086,72.123878 120.79193,70.129853 C 125.32227,58.102262 134.96183,49.105246 144.88331,41.375718 C 147.58426,39.271478 148.15061,38.061778 151.88971,38.061778 C 151.88971,38.061778 153.81977,38.655671 154.20914,39.044348 C 151.51837,48.375989 133.70846,73.281873 121.56893,75.569946 L 121.56893,75.569946 z"
         style="fill:#c57532" /><path
         sodipodi:nodetypes="cssscs"
         id="_223371536"
         class="fil6"
         d="M 111.4647,63.912752 C 110.42341,63.302278 109.5755,62.438714 109.91036,61.582077 C 115.46644,47.368301 132.09807,35.284995 141.77321,27.387155 C 143.73984,25.781806 148.44253,26.27623 147.08528,29.295462 C 143.46395,37.351104 123.82337,63.007471 111.4647,63.912752 L 111.4647,63.912752 z"
         style="fill:#c57532" /><path
         sodipodi:nodetypes="cssss"
         id="_223371784"
         class="fil6"
         d="M 99.513884,48.144612 C 100.48676,41.938081 115.11763,22.601358 127.05429,17.605647 C 129.89808,16.415457 133.87294,17.707203 133.40711,20.14223 C 131.11756,32.110886 113.20627,47.481427 103.69498,52.255905 C 100.15297,54.033914 99.197455,50.163271 99.513884,48.144612 z"
         style="fill:#c57532" /></g></g></svg>