<?xml version="1.0" encoding="UTF-8" standalone="no"?>
<!-- Created with Inkscape (http://www.inkscape.org/) -->

<svg
   xmlns:dc="http://purl.org/dc/elements/1.1/"
   xmlns:cc="http://creativecommons.org/ns#"
   xmlns:rdf="http://www.w3.org/1999/02/22-rdf-syntax-ns#"
   xmlns:svg="http://www.w3.org/2000/svg"
   xmlns="http://www.w3.org/2000/svg"
   xmlns:xlink="http://www.w3.org/1999/xlink"
   xmlns:sodipodi="http://sodipodi.sourceforge.net/DTD/sodipodi-0.dtd"
   xmlns:inkscape="http://www.inkscape.org/namespaces/inkscape"
   width="100.55476"
   height="85.833122"
   id="svg2"
   version="1.1"
   inkscape:version="0.48.0 r9654"
   sodipodi:docname="svg.svg">
  <defs
     id="defs4">
    <marker
       inkscape:stockid="Arrow1Lstart"
       orient="auto"
       refY="0"
       refX="0"
       id="Arrow1Lstart"
       style="overflow:visible">
      <path
         id="path4740"
         d="M 0,0 5,-5 -12.5,0 5,5 0,0 z"
         style="fill-rule:evenodd;stroke:#000000;stroke-width:1pt;marker-start:none"
         transform="matrix(0.8,0,0,0.8,10,0)"
         inkscape:connector-curvature="0" />
    </marker>
    <linearGradient
       id="linearGradient3820">
      <stop
         style="stop-color:#da0000;stop-opacity:1;"
         offset="0"
         id="stop3822" />
      <stop
         id="stop3836"
         offset="0.14864865"
         style="stop-color:#ffffff;stop-opacity:1;" />
      <stop
         style="stop-color:#ffffff;stop-opacity:1;"
         offset="1"
         id="stop3824" />
    </linearGradient>
    <clipPath
       clipPathUnits="userSpaceOnUse"
       id="clipPath4341">
      <path
         style="fill:none;stroke:#000000;stroke-width:1px;stroke-linecap:butt;stroke-linejoin:round;stroke-opacity:1"
         d="m 455.57881,205.09674 1.26269,28.03173 c 0,0 -2.59938,0.23035 -3.53554,-0.50507 -0.39187,-0.30785 -1.3821,-7.57264 -6.75869,-12.56508 -5.46013,-5.07003 -15.34129,-7.80727 -22.28319,-4.86006 -30.98843,13.15623 -19.96152,56.28944 3.03046,56.56855 11.37471,0.13808 21.25262,-0.5109 26.01142,-11.49049 0.40484,-0.93405 2.26169,-0.88496 2.27285,-0.12626 l 0.25253,17.17259 c 0,0 -2.63484,0.51214 -3.53553,-0.25254 -0.67407,-0.57228 -1.07628,-5.12679 -5.3033,-1.51523 -7.42441,6.34339 -57.64324,10.98454 -60.86169,-27.27412 -3.51521,-41.78628 41.86995,-45.71756 54.80077,-38.3858 4.41761,2.50478 8.91189,0.1492 11.73576,-2.05742 1.79212,-1.4004 2.91146,-2.7408 2.91146,-2.7408 z"
         id="path4343"
         inkscape:connector-curvature="0"
         sodipodi:nodetypes="ccsssssscsssssc" />
    </clipPath>
  </defs>
  <sodipodi:namedview
     id="base"
     pagecolor="#ffffff"
     bordercolor="#666666"
     borderopacity="1.0"
     inkscape:pageopacity="0.0"
     inkscape:pageshadow="2"
     inkscape:zoom="3.959798"
     inkscape:cx="39.063322"
     inkscape:cy="48.919414"
     inkscape:document-units="px"
     inkscape:current-layer="layer1"
     showgrid="false"
     inkscape:window-width="1440"
     inkscape:window-height="823"
     inkscape:window-x="0"
     inkscape:window-y="24"
     inkscape:window-maximized="1"
     fit-margin-top="0"
     fit-margin-left="0"
     fit-margin-right="0"
     fit-margin-bottom="0"
     showguides="true"
     inkscape:guide-bbox="true" />
  <metadata
     id="metadata7">
    <rdf:RDF>
      <cc:Work
         rdf:about="">
        <dc:format>image/svg+xml</dc:format>
        <dc:type
           rdf:resource="http://purl.org/dc/dcmitype/StillImage" />
        <dc:title></dc:title>
      </cc:Work>
    </rdf:RDF>
  </metadata>
  <g
     inkscape:label="Layer 1"
     inkscape:groupmode="layer"
     id="layer1"
     transform="translate(-147.15995,-59.830771)">
    <g
       id="g5367"
       transform="translate(26.428571,31.607138)">
      <path
         sodipodi:nodetypes="cscccsssscssc"
         inkscape:connector-curvature="0"
         id="path4649"
         d="m 131.99511,85.307437 c -0.015,-1.43462 -1.15921,-1.27971 22.42013,-1.28348 34.57083,-0.006 31.73399,-1.27763 31.80397,1.84622 0.19793,31.219013 2.884,28.283943 -1.56404,28.357993 l -8.73539,-0.1249 -0.23214,-7.70892 c -0.20564,-6.828658 1.02982,-7.938327 -2.78571,-8.023233 -4.34975,-0.09679 -24.44348,0.18098 -27.82767,0.28318 -2.75709,0.0833 -3.02865,1.717393 -2.71429,7.734693 0.2874,5.50111 0.0588,5.1893 0.18481,7.60714 l -4.42389,0 c -6.9844,0 -6.02245,0.89187 -6.02245,-2.16597 0,-11.18428 -0.019,-17.732203 -0.10333,-26.522723 z"
         style="fill:#91233c;fill-opacity:1" />
      <path
         sodipodi:nodetypes="sssssccsssssssssssss"
         inkscape:connector-curvature="0"
         id="path4640"
         d="m 131.98226,81.402375 -0.40047,-5.464358 c -0.30886,-4.214381 -1.31162,-3.082725 -4.45276,0.39056 -2.36569,2.615833 -2.60223,4.254006 -4.58584,2.27306 -2.42914,-2.425874 -3.08628,-0.257879 2.32251,-10.14649 2.717,-4.967348 5.51396,-11.385316 6.15551,-11.793459 l 49.94783,0.03087 8.39898,-9.397269 c 6.75946,-7.562872 6.84241,-9.343656 6.96251,-14.065166 0.0893,-3.510206 0.78209,-4.795486 1.51909,-4.941228 2.52563,-0.499446 1.50474,1.852134 5.60976,7.59359 1.59828,2.235416 3.6604,0.103248 7.17642,-1.573426 4.57995,-2.184021 5.05243,-0.349244 1.00565,4.448378 -3.29903,3.911129 -2.64078,5.001262 4.68258,14.423977 4.79106,6.164484 6.12311,9.89953 3.95082,13.214858 -2.11314,3.225065 -2.3471,3.856001 -12.18608,-0.55166 -3.7329,-1.672262 -7.67707,-2.911906 -8.76696,-2.75 -1.26531,0.187965 -3.42563,3.087657 -6.35382,7.794375 -8.16544,13.124995 -2.39474,11.364902 -15.60538,11.339281 -47.06766,-0.09129 -45.27739,0.57899 -45.38035,-0.825893 z"
         style="fill:#44527f;fill-opacity:1" />
      <path
         style="fill:#ffffff;fill-opacity:1;stroke:#000000;stroke-width:0.12035679;stroke-linejoin:round;stroke-miterlimit:4;stroke-opacity:0.12727272;stroke-dasharray:0.48142716, 0.12035679;stroke-dashoffset:0;marker-start:none"
         inkscape:connector-curvature="0"
         id="star"
         d="m 147.07672,63.558514 -3.71927,11.446653 9.73711,-7.074452 -12.03568,0 9.7371,7.074452 z" />
      <use
         height="384.24734"
         width="364.84839"
         transform="translate(14.642857,0)"
         id="use5363"
         xlink:href="#star"
         y="0"
         x="0" />
      <use
         height="384.24734"
         width="364.84839"
         transform="translate(15,0)"
         id="use5365"
         xlink:href="#use5363"
         y="0"
         x="0" />
    </g>
  </g>
</svg>
