<?xml version="1.0" encoding="UTF-8" standalone="no"?>
<!-- Created with Inkscape (http://www.inkscape.org/) -->

<svg
   xmlns:dc="http://purl.org/dc/elements/1.1/"
   xmlns:cc="http://creativecommons.org/ns#"
   xmlns:rdf="http://www.w3.org/1999/02/22-rdf-syntax-ns#"
   xmlns:svg="http://www.w3.org/2000/svg"
   xmlns="http://www.w3.org/2000/svg"
   xmlns:xlink="http://www.w3.org/1999/xlink"
   xmlns:sodipodi="http://sodipodi.sourceforge.net/DTD/sodipodi-0.dtd"
   xmlns:inkscape="http://www.inkscape.org/namespaces/inkscape"
   id="svg6462"
   inkscape:export-filename="/home/Krug/Desktop/openClipImg/svg/png/fastfood2.png"
   inkscape:export-xdpi="72.000000"
   inkscape:export-ydpi="72.000000"
   inkscape:version="0.48.3.1 r9886"
   sodipodi:docname="svg"
   sodipodi:version="0.32"
   width="100%"
   height="100%"
   viewBox="0 0 280.87302 368.26226"
   version="1.1">
  <metadata
     id="metadata3065">
    <rdf:RDF>
      <cc:Work
         rdf:about="">
        <dc:title></dc:title>
        <dc:description />
        <dc:subject>
          <rdf:Bag>
            <rdf:li>food</rdf:li>
          </rdf:Bag>
        </dc:subject>
        <dc:publisher>
          <cc:Agent
             rdf:about="http://www.openclipart.org/">
            <dc:title>Open Clip Art Library</dc:title>
          </cc:Agent>
        </dc:publisher>
        <dc:creator>
          <cc:Agent>
            <dc:title>Juliane Krug</dc:title>
          </cc:Agent>
        </dc:creator>
        <dc:rights>
          <cc:Agent>
            <dc:title>Juliane Krug</dc:title>
          </cc:Agent>
        </dc:rights>
        <dc:date />
        <dc:format>image/svg+xml</dc:format>
        <dc:type
           rdf:resource="http://purl.org/dc/dcmitype/StillImage" />
        <cc:license
           rdf:resource="http://web.resource.org/cc/PublicDomain" />
        <dc:language>en</dc:language>
      </cc:Work>
      <cc:License
         rdf:about="http://web.resource.org/cc/PublicDomain">
        <cc:permits
           rdf:resource="http://web.resource.org/cc/Reproduction" />
        <cc:permits
           rdf:resource="http://web.resource.org/cc/Distribution" />
        <cc:permits
           rdf:resource="http://web.resource.org/cc/DerivativeWorks" />
      </cc:License>
    </rdf:RDF>
  </metadata>
  <defs
     id="defs6464">
    <linearGradient
       id="linearGradient7775">
      <stop
         id="stop7776"
         offset="0.0000000"
         style="stop-color:#000000;stop-opacity:0.37037036;" />
      <stop
         id="stop7777"
         offset="1.0000000"
         style="stop-color:#000000;stop-opacity:0.0000000;" />
    </linearGradient>
    <linearGradient
       id="linearGradient7778"
       inkscape:collect="always"
       x1="309.6273"
       x2="158.92148"
       xlink:href="#linearGradient7775"
       y1="234.34528"
       y2="242.73216"
       gradientTransform="matrix(1.0027668,0,0,0.99724079,-46.329365,-3.577177)"
       gradientUnits="userSpaceOnUse" />
  </defs>
  <sodipodi:namedview
     bordercolor="#666666"
     borderopacity="1.0"
     id="base"
     inkscape:cx="177.68253"
     inkscape:cy="120.19753"
     inkscape:pageopacity="0.0"
     inkscape:pageshadow="2"
     inkscape:window-height="876"
     inkscape:window-width="1535"
     inkscape:window-x="65"
     inkscape:window-y="24"
     inkscape:zoom="1"
     pagecolor="#ffffff"
     showgrid="false"
     fit-margin-top="0"
     fit-margin-left="0"
     fit-margin-right="0"
     fit-margin-bottom="0"
     inkscape:window-maximized="1"
     inkscape:current-layer="svg6462" />
  <path
     d="M 12.576403,106.69653 0,80.041786 19.388623,88.404057 29.868959,106.69653 26.724858,91.539913 27.248875,83.177637 14.148454,61.749318 5.764185,54.432329 l 3.144101,-0.522642 13.10042,1.567926 6.288203,4.703777 9.432303,1.045285 4.716151,-4.703778 -8.384269,-19.860394 5.764184,-2.61321 7.336236,0.522643 -7.336236,-11.498125 15.196487,-0.522641 11.00436,11.498123 7.86025,0 -6.2882,-6.271704 5.24016,1.045284 5.24017,-3.658493 -4.71615,-11.498123 12.05239,-4.181136 10.48033,25.609456 3.66812,2.090567 11.528375,27.177382 -3.66812,-30.835876 4.71614,-4.181134 -5.76418,-12.020766 13.62445,-7.839629 2.09605,-6.7943455 14.67247,-0.5226421 5.7642,14.6339746 -1.57206,5.22642 1.57206,3.135852 6.28819,-21.4283203 11.00436,-3.1358526 5.76418,1.0452852 -1.57205,16.2018997 9.43229,2.090569 -4.19212,13.066047 6.2882,2.090569 1.57206,-13.066049 4.71614,-4.181136 10.48035,16.724544 2.09605,-0.522643 0,-15.156617 14.14845,-11.498123 6.81223,5.226419 -2.09607,28.222667 8.38426,-17.247186 7.86026,-4.181135 10.48033,6.794346 -5.76417,8.362272 6.28819,2.090567 -0.52402,5.749061 -9.43231,13.588691 6.28822,-1.045284 7.33623,-6.794345 8.38427,0 3.14411,6.794345 9.95631,-4.181135 11.00436,-0.522643 -1.04805,7.316989 -11.52835,22.473604 16.76853,-1.045285 -14.14846,22.473599 -27.77288,0 -12.57641,14.63398 -18.34058,21.95095 -22.53273,11.49813 -22.53272,7.83963 -23.05675,4.18114 -28.82092,-1.56793 -20.960665,-5.74906 -26.20084,-14.63397 -17.292557,-13.5887 -13.100421,-13.58869 -4.192135,-5.74905 -16.768539,0 z"
     id="path9813"
     style="fill:#ffdf00;fill-opacity:1;fill-rule:evenodd;stroke:none"
     inkscape:connector-curvature="0" />
  <path
     d="m 2.998881,105.69521 c 15.268837,0.018 32.859255,-4.22711 38.285693,14.07799 12.913541,14.31104 30.202481,24.50958 47.424401,33.01744 14.615215,3.93857 29.377795,7.63975 44.657795,7.1715 15.37379,1.0243 30.20503,-4.68774 45.07891,-7.90894 11.05927,-5.78378 24.60461,-8.84084 33.29573,-17.98424 10.13462,-10.19654 18.79895,-24.2532 27.87217,-33.44641 9.74921,3.39728 33.50948,-5.225213 32.47539,7.42285 -9.16688,83.96987 -18.3338,167.93975 -27.50072,251.90963 -17.24797,16.04054 -36.36957,-10.19821 -57.19476,-6.76186 -23.14655,-4.00687 -46.71418,-3.94557 -70.11841,-4.91123 C 94.473005,354.826 70.612365,358.80209 48.854169,368.25523 31.708476,368.7192 38.052133,346.09451 33.627944,334.85433 25.30618,283.86404 16.698062,232.89815 11.714734,181.44837 8.809451,156.19732 5.904166,130.94626 2.998881,105.69521 z"
     id="path6515"
     style="fill:#ff0000;fill-opacity:1;fill-rule:evenodd;stroke:none"
     inkscape:connector-curvature="0" />
  <path
     d="m 3.312532,105.55617 c 15.268842,0.018 32.859257,-4.22711 38.285694,14.07799 12.913549,14.31104 30.202479,24.50958 47.424399,33.01745 14.615225,3.93857 29.377785,7.63974 44.657785,7.1715 15.3738,1.02428 30.20505,-4.68776 45.07892,-7.90895 11.05926,-5.78378 24.60461,-8.84084 33.29574,-17.98423 10.13461,-10.19654 18.79894,-24.25321 27.87216,-33.44642 9.74921,3.39728 33.50947,-5.225207 32.47539,7.42285 -9.1669,83.96987 -18.33381,167.93975 -27.50072,251.90963 -17.24797,16.04054 -36.36957,-10.19821 -57.19476,-6.76186 -23.14655,-4.00686 -46.71418,-3.94558 -70.11841,-4.91122 -22.802065,6.54406 -46.662715,10.52015 -68.420915,19.97328 C 32.022126,368.58015 38.365789,345.95548 33.941595,334.7153 25.619832,283.725 17.011716,232.7591 12.028392,181.30933 9.123105,156.05827 6.21782,130.80722 3.312532,105.55617 z"
     id="path7774"
     style="fill:url(#linearGradient7778);fill-opacity:1;fill-rule:evenodd;stroke:none"
     inkscape:connector-curvature="0" />
  <path
     d="M 13.373884,106.43434 0.0345944,79.825752 19.302458,88.69528 l 11.857146,16.2608 -17.78572,1.47826 z"
     id="path7797"
     style="fill:#000000;fill-opacity:0.1625;fill-rule:evenodd;stroke:none"
     inkscape:connector-curvature="0" />
  <path
     d="m 63.025684,136.73856 -1.48214,-16.99993 11.85715,-14.78255 5.92857,-1.47826 3.70535,45.08678 -12.5982,-5.91302 -7.41073,-5.91302 z"
     id="path7798"
     style="fill:#000000;fill-opacity:0.10625;fill-rule:evenodd;stroke:none"
     inkscape:connector-curvature="0" />
  <path
     d="m 114.9007,156.69499 -2.96428,-14.04341 11.85715,-5.91302 5.92857,1.47825 0.74107,19.2173 -8.89287,0.73914 -6.66964,-1.47826 z"
     id="path7799"
     style="fill:#ffdf00;fill-opacity:1;fill-rule:evenodd;stroke:none"
     inkscape:connector-curvature="0" />
  <path
     d="m 151.95429,158.91238 0,-27.34771 15.56251,0.73912 5.92857,1.47825 -2.96428,19.95644 -11.11608,4.43477 -7.41072,0.73913 z"
     id="path7800"
     style="fill:#ffdf00;fill-opacity:1;fill-rule:evenodd;stroke:none"
     inkscape:connector-curvature="0" />
  <path
     d="m 175.66857,150.78198 4.44643,-31.04335 3.70537,-17.73907 14.08035,-5.913007 4.44644,-0.739122 -2.22322,8.869529 -7.4107,30.30421 -2.22322,9.60866 -14.82145,6.65215 z"
     id="path7801"
     style="fill:#ffdf00;fill-opacity:1;fill-rule:evenodd;stroke:none"
     inkscape:connector-curvature="0" />
  <path
     d="m 199.38287,141.17332 4.44644,-19.95644 7.41072,-6.65214 8.15178,-0.73914 2.22321,0 0.74108,5.91303 -8.89286,10.34778 -6.66964,7.39127 -7.41073,3.69564 z"
     id="path7802"
     style="fill:#ffdf00;fill-opacity:1;fill-rule:evenodd;stroke:none"
     inkscape:connector-curvature="0" />
  <path
     d="m 251.25791,98.303943 11.85713,-18.478191 6.66965,-0.739126 10.37499,0 -11.85713,19.956437 -11.11608,1.478247 -5.92856,-2.217367 z"
     id="path7803"
     style="fill:#ffdf00;fill-opacity:1;fill-rule:evenodd;stroke:none"
     inkscape:connector-curvature="0" />
  <path
     d="m 45.239967,121.21688 0.741072,-25.869449 6.669637,-2.217386 6.669658,1.478254 4.44643,18.478171 -2.22322,6.65216 0.74108,16.26079 -10.375013,-7.39126 -6.669644,-7.39128 z"
     id="path7804"
     style="fill:#000000;fill-opacity:0.11249994;fill-rule:evenodd;stroke:none"
     inkscape:connector-curvature="0" />
  <path
     d="m 79.329264,101.26044 0.74107,-8.130395 14.08035,0.739132 4.44644,5.173886 0,22.173817 0,31.78247 -10.37499,-2.21737 -5.92858,-3.69563 -2.22322,-26.6086 -0.74107,-19.21731 z"
     id="path7805"
     style="fill:#ffdf00;fill-opacity:1;fill-rule:evenodd;stroke:none"
     inkscape:connector-curvature="0" />
  <path
     d="m 100.07926,153.73848 2.96429,-31.78248 5.92859,-11.0869 6.66963,-4.43476 11.11609,0 2.96428,8.86953 -5.18751,3.69563 0,15.52167 -12.59821,8.13041 2.96428,14.78253 -7.41071,-0.73912 -7.41073,-2.95651 z"
     id="path7806"
     style="fill:#ffdf00;fill-opacity:1;fill-rule:evenodd;stroke:none"
     inkscape:connector-curvature="0" />
  <path
     d="m 124.53463,134.52117 0,-16.26079 4.44644,-3.69564 6.66963,0.73913 11.11609,1.47825 -0.74108,22.91295 1.48214,18.47818 -8.89286,0 -7.4107,-0.73914 -1.48215,-20.69555 -5.18751,-2.21739 z"
     id="path7807"
     style="fill:#000000;fill-opacity:0.18125;fill-rule:evenodd;stroke:none"
     inkscape:connector-curvature="0" />
  <path
     d="m 134.90964,114.56474 -0.74108,-36.956369 5.92858,-8.869529 14.08035,1.478255 5.92858,2.956509 -2.22321,22.173825 -2.96429,35.478109 -3.70534,-0.73913 0.74106,28.08684 -5.1875,-0.73914 -0.74108,-18.47817 0,-22.17382 -11.11607,-2.21738 z"
     id="path7808"
     style="fill:#ffdf00;fill-opacity:1;fill-rule:evenodd;stroke:none"
     inkscape:connector-curvature="0" />
  <path
     d="m 158.62392,90.173538 11.85717,-10.347786 8.15178,0.739128 1.48213,34.73899 -5.1875,34.73898 -3.70534,2.21738 2.22321,-18.47819 -6.66965,-1.47825 -12.59823,-1.47825 2.96429,-28.82598 1.48214,-11.826022 z"
     id="path7809"
     style="fill:#ffdf00;fill-opacity:1;fill-rule:evenodd;stroke:none"
     inkscape:connector-curvature="0" />
  <path
     d="m 179.37394,78.347498 4.44643,-17.739056 17.04464,-5.173892 5.18751,2.217383 -3.70536,14.043419 -5.18751,5.913019 -2.22321,18.478182 -10.375,5.913007 -2.96429,11.82604 -2.96428,-19.956423 0.74107,-15.521679 z"
     id="path7810"
     style="fill:#000000;fill-opacity:0.14375;fill-rule:evenodd;stroke:none"
     inkscape:connector-curvature="0" />
  <path
     d="m 194.93644,93.130045 1.48215,-14.782547 4.44642,-6.652146 2.9643,-1.478255 10.37501,2.217382 -0.74108,12.565165 0,6.652148 -8.89286,5.913011 -2.22322,1.47826 0,-3.695632 -7.41072,-2.217386 z"
     id="path7811"
     style="fill:#ffdf00;fill-opacity:1;fill-rule:evenodd;stroke:none"
     inkscape:connector-curvature="0" />
  <path
     d="m 202.34716,98.303943 11.85716,-8.869535 10.37499,0.73913 -5.1875,16.260802 -0.74108,7.39126 -7.4107,0 -7.41072,6.65215 -2.9643,18.47819 -5.92857,3.69564 -5.18749,0.73912 6.66964,-19.95644 5.92857,-25.130317 z"
     id="path7812"
     style="fill:#000000;fill-opacity:0.13125;fill-rule:evenodd;stroke:none"
     inkscape:connector-curvature="0" />
  <path
     d="m 223.83825,89.434408 3.70535,-11.826037 11.85714,-6.652146 9.63394,1.478254 0,14.782548 -2.96429,11.826036 -7.41072,2.217377 -14.82142,16.99994 -2.22323,-4.43478 -2.96429,-0.73913 0.74108,-10.34777 4.44644,-13.304292 z"
     id="path7813"
     style="fill:#000000;fill-opacity:0.146875;fill-rule:evenodd;stroke:none"
     inkscape:connector-curvature="0" />
  <path
     d="m 243.84718,70.956225 8.89286,-14.04342 17.78571,-6.652146 5.92858,-0.739127 -0.74107,8.130401 -10.375,19.956438 -2.96429,2.217381 -11.11606,18.478191 -5.18752,0.73912 2.96429,-11.086909 -0.74107,-16.260802 -4.44643,-0.739127 z"
     id="path7814"
     style="fill:#ffdf00;fill-opacity:1;fill-rule:evenodd;stroke:none"
     inkscape:connector-curvature="0" />
  <path
     d="m 254.22219,54.695423 -1.48215,-7.391274 -8.89286,2.217383 -6.66964,8.130401 0,11.826037 5.18749,1.478255 11.85716,-16.260802 z"
     id="path7815"
     style="fill:#ffdf00;fill-opacity:1;fill-rule:evenodd;stroke:none"
     inkscape:connector-curvature="0" />
  <path
     d="m 237.17754,55.43455 -11.85716,1.478255 -8.1518,10.347783 -3.70534,4.434764 0,18.478186 9.63392,0 4.44644,-13.304294 11.11607,-5.173892 -1.48213,-2.95651 0,-13.304292 z"
     id="path7816"
     style="fill:#000400;fill-opacity:0.134375;fill-rule:evenodd;stroke:none"
     inkscape:connector-curvature="0" />
  <path
     d="m 229.02575,55.43455 11.85714,-14.043419 -0.74107,-4.434764 -5.1875,-1.478255 -11.11607,-1.478255 -18.5268,21.434693 0.74107,2.956511 -2.96429,11.826036 10.37501,2.217382 11.85714,-16.999929 3.70537,0 z"
     id="path7817"
     style="fill:#ffdf00;fill-opacity:1;fill-rule:evenodd;stroke:none"
     inkscape:connector-curvature="0" />
  <path
     d="m 233.47217,33.999857 7.41072,-8.869527 -10.375,-6.652147 -9.63393,6.652147 -11.11607,23.652075 13.33927,-14.782548 10.37501,0 z"
     id="path7818"
     style="fill:#000400;fill-opacity:0.1625;fill-rule:evenodd;stroke:none"
     inkscape:connector-curvature="0" />
  <path
     d="m 211.24003,39.173749 -4.44643,-3.695637 -15.56251,0.739127 -2.96428,22.173822 12.5982,-3.695638 3.70537,2.217382 5.92857,-8.1304 0.74108,-9.608656 z"
     id="path7819"
     style="fill:#ffdf00;fill-opacity:1;fill-rule:evenodd;stroke:none"
     inkscape:connector-curvature="0" />
  <path
     d="m 211.24003,38.434621 3.70535,-25.869456 -6.66964,-3.695638 -5.18751,0 -8.89286,10.347784 0,15.521674 9.63394,-0.739128 3.70535,0 3.70537,4.434764 z"
     id="path7820"
     style="fill:#ffdf00;fill-opacity:1;fill-rule:evenodd;stroke:none"
     inkscape:connector-curvature="0" />
  <path
     d="m 42.27568,120.47775 -7.410718,-11.82603 -3.705358,-4.43476 -5.187501,-13.3043 1.482143,-7.39127 15.562505,0.739126 5.928573,7.391276 -2.223214,2.956507 -4.44643,25.869451 z"
     id="path7821"
     style="fill:#ffdf00;fill-opacity:1;fill-rule:evenodd;stroke:none"
     inkscape:connector-curvature="0" />
  <path
     d="M 27.454246,82.782262 14.114955,62.086697 5.2220954,54.695423 l 2.964287,-1.478254 14.0803606,1.478254 7.410719,6.652146 -4.446431,0 8.89286,21.434693 -6.669645,0 z"
     id="path7822"
     style="fill:#000000;fill-opacity:0.196875;fill-rule:evenodd;stroke:none"
     inkscape:connector-curvature="0" />
  <path
     d="m 25.972103,60.608442 12.598218,0 8.89286,16.999929 -3.705358,0 7.410714,14.782542 -2.964287,0.739132 0.741074,-1.478253 -5.928573,-7.391276 -9.633931,-2.217381 -7.410717,-21.434693 z"
     id="path7823"
     style="fill:#ffdf00;fill-opacity:1;fill-rule:evenodd;stroke:none"
     inkscape:connector-curvature="0" />
  <path
     d="m 51.168537,93.130045 -8.151786,-16.260801 17.044643,0.739127 8.1518,4.434764 9.63392,21.434685 -2.96429,0 -11.85714,13.3043 0.74108,-5.1739 -4.44643,-16.999921 -8.151797,-1.478254 z"
     id="path7824"
     style="fill:#ffdf00;fill-opacity:1;fill-rule:evenodd;stroke:none"
     inkscape:connector-curvature="0" />
  <path
     d="m 39.311392,61.347569 3.705359,-5.173891 14.080353,-1.478255 14.82144,27.347712 0.74107,8.869525 -5.18749,-8.130398 -6.66965,-5.913018 L 46.72211,76.130116 39.311392,61.347569 z"
     id="path7825"
     style="fill:#000000;fill-opacity:0.115625;fill-rule:evenodd;stroke:none"
     inkscape:connector-curvature="0" />
  <path
     d="M 42.27568,55.43455 33.38282,36.956367 37.82925,33.999857 51.909611,37.695495 66.731044,69.47797 57.097104,53.956297 42.27568,55.43455 z"
     id="path7826"
     style="fill:#ffdf00;fill-opacity:1;fill-rule:evenodd;stroke:none"
     inkscape:connector-curvature="0" />
  <path
     d="m 72.659614,91.651792 0,-8.130402 -7.4107,-15.521675 3.70535,-2.956509 17.04464,0.739127 4.44644,11.086911 -3.70535,2.956508 4.44641,14.043425 -10.37499,-1.478264 -3.70537,10.347787 -4.44643,-11.086908 z"
     id="path7827"
     style="fill:#ffdf00;fill-opacity:1;fill-rule:evenodd;stroke:none"
     inkscape:connector-curvature="0" />
  <path
     d="m 87.481054,79.086626 12.598206,-13.304293 8.1518,7.391273 0.74108,17.739054 1.48213,16.26081 -5.92857,14.78253 -2.22322,11.08691 -2.22322,19.95644 -0.741056,-31.78247 -0.74108,-22.912937 -4.44644,-4.434766 -3.70534,-0.739132 -2.96429,-14.043419 z"
     id="path7828"
     style="fill:#000000;fill-opacity:0.14062494;fill-rule:evenodd;stroke:none"
     inkscape:connector-curvature="0" />
  <path
     d="m 108.23106,73.912734 14.08036,-16.260801 9.63394,3.695636 2.2232,14.04342 0,38.434611 -4.44642,0 -3.70536,-6.65213 -11.11608,-2.21739 -5.18749,4.43476 0.74106,-2.9565 -2.22321,-32.521606 z"
     id="path7829"
     style="fill:#ffdf00;fill-opacity:1;fill-rule:evenodd;stroke:none"
     inkscape:connector-curvature="0" />
  <path
     d="m 157.88286,70.956225 2.22321,-9.608656 14.08037,-6.652146 8.15179,3.695638 -4.44644,22.173819 -6.66963,-0.739128 -11.11609,10.347786 0,-14.782549 -2.22321,-4.434764 z"
     id="path7830"
     style="fill:#ffdf00;fill-opacity:1;fill-rule:evenodd;stroke:none"
     inkscape:connector-curvature="0" />
  <path
     d="m 160.84715,60.608442 2.22321,-27.347711 8.89286,1.478254 6.66965,2.217382 -2.9643,16.99993 -14.82142,6.652145 z"
     id="path7831"
     style="fill:#ffdf00;fill-opacity:1;fill-rule:evenodd;stroke:none"
     inkscape:connector-curvature="0" />
  <path
     d="m 176.40965,34.738985 0,-11.826038 4.44643,-5.173892 11.11608,18.478184 -2.96429,22.173822 -6.66964,2.217381 0,-2.217381 -6.66966,-5.173892 0.74108,-18.478184 z"
     id="path7832"
     style="fill:#ffdf00;fill-opacity:1;fill-rule:evenodd;stroke:none"
     inkscape:connector-curvature="0" />
  <path
     d="m 157.14178,69.47797 2.22323,-8.869528 -0.74109,-10.347783 -5.92855,-7.391274 -14.08038,0 1.48215,25.869457 17.04464,0.739128 z"
     id="path7833"
     style="fill:#ffdf00;fill-opacity:1;fill-rule:evenodd;stroke:none"
     inkscape:connector-curvature="0" />
  <path
     d="m 127.49892,58.391061 0,-34.738986 11.11607,0 8.89286,4.434764 -1.48214,14.04342 -7.41072,0 2.22322,25.130329 -5.18751,8.869528 -3.70534,-16.99993 -4.44644,-0.739125 z"
     id="path7834"
     style="fill:#ffdf00;fill-opacity:1;fill-rule:evenodd;stroke:none"
     inkscape:connector-curvature="0" />
  <path
     d="m 147.50785,26.608583 1.48215,-7.391272 24.45537,0.739127 -3.70536,13.304293 -6.66965,0 -2.96429,26.608583 -1.48215,-10.347782 -5.92855,-7.391273 -5.92858,0 0.74106,-15.521676 z"
     id="path7835"
     style="fill:#000000;fill-opacity:0.15;fill-rule:evenodd;stroke:none"
     inkscape:connector-curvature="0" />
  <path
     d="M 142.32036,24.391202 147.50785,4.4347641 159.36501,-4.6391571e-8 166.03465,2.2173815 l -2.22322,16.9999295 -14.08035,-0.739128 -2.22323,8.869528 -5.18749,-2.956509 z"
     id="path7836"
     style="fill:#ffdf00;fill-opacity:1;fill-rule:evenodd;stroke:none"
     inkscape:connector-curvature="0" />
  <path
     d="m 112.67749,66.521461 -5.92857,-33.999858 11.11607,-5.91302 6.66964,4.434764 2.96429,14.782548 0,11.826038 -4.44643,-1.478255 -10.375,10.347783 z"
     id="path7838"
     style="fill:#000600;fill-opacity:0.12499994;fill-rule:evenodd;stroke:none"
     inkscape:connector-curvature="0" />
  <path
     d="m 112.67749,67.999715 -13.339286,-30.30422 -9.63392,-0.739128 -5.18752,-1.478255 7.41072,34.738985 1.48214,4.434765 7.410716,-8.869529 7.41072,7.391273 4.44643,-5.173891 z"
     id="path7839"
     style="fill:#ffdf00;fill-opacity:1;fill-rule:evenodd;stroke:none"
     inkscape:connector-curvature="0" />
  <path
     d="m 68.213194,65.043206 -5.92857,-30.304221 11.85713,0 16.30359,32.521603 1.48214,5.913018 -2.2232,0.739128 -2.22323,-8.130401 -19.26786,-0.739127 z"
     id="path7840"
     style="fill:#ffdf00;fill-opacity:1;fill-rule:evenodd;stroke:none"
     inkscape:connector-curvature="0" />
  <path
     d="m 46.72211,35.478112 -8.151789,-13.304293 14.080355,1.478256 14.080368,9.608656 -4.44642,0.739126 6.66964,29.565094 -3.70535,3.695637 L 52.650676,37.695495 46.72211,35.478112 z"
     id="path7841"
     style="fill:#ffdf00;fill-opacity:1;fill-rule:evenodd;stroke:none"
     inkscape:connector-curvature="0" />
  <path
     d="m 70.436414,32.521603 -2.22322,-3.695637 16.30357,0 3.70537,6.652146 -3.70537,0 8.89286,36.21724 -18.5268,-36.956367 -4.44641,-2.217382 z"
     id="path7842"
     style="fill:#000000;fill-opacity:0.190625;fill-rule:evenodd;stroke:none"
     inkscape:connector-curvature="0" />
  <path
     d="m 77.847114,26.608583 -5.1875,-12.565164 13.33929,-4.434764 10.37501,27.347712 -7.41072,-1.478255 -3.70535,-5.913018 -7.41073,-2.956511 z"
     id="path7843"
     style="fill:#ffdf00;fill-opacity:1;fill-rule:evenodd;stroke:none"
     inkscape:connector-curvature="0" />
  <path
     d="m 126.01678,25.869457 -3.70536,-22.9129476 14.08035,0 5.92859,14.0434196 -0.74108,6.652146 -15.5625,2.217382 z"
     id="path7844"
     style="fill:#ffdf00;fill-opacity:1;fill-rule:evenodd;stroke:none"
     inkscape:connector-curvature="0" />
  <path
     d="m 109.71321,28.825966 -4.44644,-11.826037 17.78572,-4.434764 2.96429,11.08691 0.74108,2.956508 0,15.521676 -2.96429,-10.347784 -5.18752,-4.434764 -8.89284,1.478255 z"
     id="path7845"
     style="fill:#ffdf00;fill-opacity:1;fill-rule:evenodd;stroke:none"
     inkscape:connector-curvature="0" />
  <path
     d="m 21.484689,92.062551 3.144101,10.975469 -9.432303,3.65851 15.720505,-1.0453 -9.432303,-13.588679 z"
     id="path9758"
     style="fill:#000000;fill-opacity:0.43125;fill-rule:evenodd;stroke:none"
     inkscape:connector-curvature="0" />
  <path
     d="m 42.445362,84.745563 3.668118,6.79435 -4.192136,28.222657 3.668118,2.61321 3.144105,-26.132104 3.668114,-2.090552 -8.908286,-17.769833 3.144102,10.452839 -4.192135,-2.090567 z"
     id="path9759"
     style="fill:#000000;fill-opacity:0.46875;fill-rule:evenodd;stroke:none"
     inkscape:connector-curvature="0" />
  <path
     d="m 68.122174,111.40031 7.33626,-3.65851 2.09604,1.0453 2.09608,33.97171 -5.24017,1.04529 7.86025,5.22642 -2.62008,-53.309482 1.57206,-2.090562 6.81221,-0.522649 -8.38427,-1.567914 -1.04803,4.703763 -1.04805,4.703784 -4.19212,-7.316984 -4.71616,-8.884913 5.24018,13.06605 0.52401,3.658487 -3.66811,5.22643 -2.6201,4.70378 z"
     id="path9760"
     style="fill:#000000;fill-opacity:0.46875;fill-rule:evenodd;stroke:none"
     inkscape:connector-curvature="0" />
  <path
     d="m 61.309974,101.4701 0.52401,9.40755 -0.52401,5.22643 -1.57206,3.65849 0.52402,7.31699 0,6.79435 2.62009,3.65848 -1.04804,-16.72454 2.62008,-8.8849 -3.14409,-10.45285 z"
     id="path9761"
     style="fill:#000000;fill-opacity:0.46875;fill-rule:evenodd;stroke:none"
     inkscape:connector-curvature="0" />
  <path
     d="m 36.681176,61.226675 -8.384268,0.522643 3.668118,18.815109 -7.860254,-19.860395 -1.572049,-5.226419 5.240168,4.703777 8.908285,1.045285 z"
     id="path9762"
     style="fill:#000000;fill-opacity:0.48125;fill-rule:evenodd;stroke:none"
     inkscape:connector-curvature="0" />
  <path
     d="m 38.253227,62.794601 6.288203,13.58869 3.144099,0 -3.144099,-2.090568 -6.288203,-11.498122 z"
     id="path9763"
     style="fill:#000000;fill-opacity:0.428125;fill-rule:evenodd;stroke:none"
     inkscape:connector-curvature="0" />
  <path
     d="m 43.493395,56.522897 12.576399,-1.567926 13.10043,25.609456 -2.62009,-12.543407 2.09606,-3.135852 -2.62007,0 -6.28821,-10.975481 -3.66812,-12.020765 5.24018,-6.271703 -7.33624,4.703778 -3.144112,-4.181136 -9.956311,-1.567925 7.860256,4.703776 6.288197,14.111334 -11.528369,3.135851 z"
     id="path9764"
     style="fill:#000000;fill-opacity:0.428125;fill-rule:evenodd;stroke:none"
     inkscape:connector-curvature="0" />
  <path
     d="m 66.026124,76.383291 -16.768541,0 17.816571,5.749062 4.19213,3.658494 -0.52401,-7.316988 11.00435,-10.97548 -9.95632,7.316986 -5.76418,1.567926 z"
     id="path9765"
     style="fill:#000000;fill-opacity:0.428125;fill-rule:evenodd;stroke:none"
     inkscape:connector-curvature="0" />
  <path
     d="m 91.702944,95.1984 3.66811,3.135853 3.66813,54.877417 0.52401,-55.922697 -7.86025,-2.090573 z"
     id="path9767"
     style="fill:#000000;fill-opacity:0.50625;fill-rule:evenodd;stroke:none"
     inkscape:connector-curvature="0" />
  <path
     d="m 113.18762,152.16637 -0.52402,-9.93019 11.00437,-4.18115 3.66811,1.0453 2.62009,17.76982 0,-21.95097 -4.19215,-1.56791 -13.10042,7.83962 0.52402,10.97548 z"
     id="path9768"
     style="fill:#000000;fill-opacity:0.50625;fill-rule:evenodd;stroke:none"
     inkscape:connector-curvature="0" />
  <path
     d="m 112.6636,140.1456 -3.6681,-29.26795 8.90828,-7.31698 7.86024,4.18113 0,5.22642 -2.09605,-4.70378 -5.76419,-1.56791 -7.33623,4.70378 2.09605,28.74529 z"
     id="path9770"
     style="fill:#000000;fill-opacity:0.50625;fill-rule:evenodd;stroke:none"
     inkscape:connector-curvature="0" />
  <path
     d="m 126.81207,130.73805 2.62009,-17.76983 14.67247,6.27171 -13.62445,-8.36228 -4.19213,1.0453 0.52402,18.8151 z"
     id="path9771"
     style="fill:#000000;fill-opacity:0.50625;fill-rule:evenodd;stroke:none"
     inkscape:connector-curvature="0" />
  <path
     d="m 152.48888,156.87015 -3.1441,-29.26795 c 0,0 23.58077,5.22642 21.48469,4.70378 -2.09605,-0.52265 -17.29254,-1.04528 -17.29254,-1.04528 l -1.04805,25.60945 z"
     id="path9772"
     style="fill:#000000;fill-opacity:0.50625;fill-rule:evenodd;stroke:none"
     inkscape:connector-curvature="0" />
  <path
     d="m 147.24872,155.30222 -3.66812,-60.626458 11.00436,-5.226421 9.95631,2.61321 -13.10042,0.522638 -3.66812,4.703784 -0.52401,58.013247 z"
     id="path9773"
     style="fill:#000000;fill-opacity:0.50625;fill-rule:evenodd;stroke:none"
     inkscape:connector-curvature="0" />
  <path
     d="m 123.14395,58.613465 6.81222,3.658494 3.14411,21.950962 1.04802,27.177389 2.62008,-33.971734 4.19214,-9.407556 -6.28821,2.613209 -2.09605,-10.97548 -8.90829,-4.181136 -4.19214,4.703777 3.66812,-1.567925 z"
     id="path9774"
     style="fill:#000000;fill-opacity:0.56875;fill-rule:evenodd;stroke:none"
     inkscape:connector-curvature="0" />
  <path
     d="m 117.37976,26.732306 5.24017,1.045283 3.66812,25.609457 0.52402,-27.177382 3.66811,-1.567925 -4.19213,-1.567928 -2.09607,-12.020764 -0.52401,11.498123 -6.28821,4.181136 z"
     id="path9775"
     style="fill:#000000;fill-opacity:0.50625;fill-rule:evenodd;stroke:none"
     inkscape:connector-curvature="0" />
  <path
     d="M 109.51951,16.279467 124.716,15.234183 122.61993,3.7360597 119.99986,10.530405 109.51951,16.279467 z"
     id="path9776"
     style="fill:#000000;fill-opacity:0.50625;fill-rule:evenodd;stroke:none"
     inkscape:connector-curvature="0" />
  <path
     d="m 135.72035,22.55117 8.90829,6.271703 0,12.543407 -6.28821,0.522642 12.0524,2.090568 6.2882,7.316988 0,18.815109 3.1441,-19.860394 -6.2882,-9.407554 -4.71616,-1.045285 -1.04804,-12.020765 -12.05238,-5.226419 z"
     id="path9777"
     style="fill:#000000;fill-opacity:0.50625;fill-rule:evenodd;stroke:none"
     inkscape:connector-curvature="0" />
  <path
     d="m 138.34043,42.934207 1.57205,24.564172 0.52402,-22.996247 -2.09607,-1.567925 z"
     id="path9778"
     style="fill:#000000;fill-opacity:0.50625;fill-rule:evenodd;stroke:none"
     inkscape:connector-curvature="0" />
  <path
     d="m 147.77273,68.543662 7.86026,3.658494 3.1441,14.111333 2.09606,-28.745307 -1.04802,2.090567 -3.1441,10.452838 -8.9083,-1.567925 z"
     id="path9779"
     style="fill:#000000;fill-opacity:0.50625;fill-rule:evenodd;stroke:none"
     inkscape:connector-curvature="0" />
  <path
     d="m 166.11333,58.613465 8.38427,-1.567925 4.71615,1.045283 -1.57204,32.403804 5.76417,-29.790595 -7.33623,-8.36227 -9.95632,6.271703 z"
     id="path9780"
     style="fill:#000000;fill-opacity:0.50625;fill-rule:evenodd;stroke:none"
     inkscape:connector-curvature="0" />
  <path
     d="m 184.97793,60.18139 14.67248,-3.658493 4.71615,2.61321 -2.62008,32.403806 5.76418,-36.0623 -5.24017,-2.613209 -17.29256,7.316986 z"
     id="path9781"
     style="fill:#000000;fill-opacity:0.50625;fill-rule:evenodd;stroke:none"
     inkscape:connector-curvature="0" />
  <path
     d="m 161.39717,126.55692 2.09608,-27.700027 12.05238,0 -14.14846,-1.56792 0,29.267947 z"
     id="path9782"
     style="fill:#000000;fill-opacity:0.50625;fill-rule:evenodd;stroke:none"
     inkscape:connector-curvature="0" />
  <path
     d="m 175.02161,100.94746 2.6201,9.40755 -2.09608,40.76608 6.2882,-43.37929 -1.04802,-8.362257 -5.7642,1.567917 z"
     id="path9783"
     style="fill:#000000;fill-opacity:0.50625;fill-rule:evenodd;stroke:none"
     inkscape:connector-curvature="0" />
  <path
     d="m 170.30545,133.87391 -0.52401,17.24718 3.66811,-15.15661 -3.1441,-2.09057 z"
     id="path9784"
     style="fill:#000000;fill-opacity:0.50625;fill-rule:evenodd;stroke:none"
     inkscape:connector-curvature="0" />
  <path
     d="m 186.02597,98.856893 12.05239,-2.613217 -5.24017,43.901924 9.95632,-44.9472 -7.33624,-3.658487 -7.33624,6.79434 -2.09606,0.52264 z"
     id="path9785"
     style="fill:#000000;fill-opacity:0.50625;fill-rule:evenodd;stroke:none"
     inkscape:connector-curvature="0" />
  <path
     d="m 81.222614,68.543662 5.24016,1.045284 1.04804,21.428319 2.62008,-13.066047 4.71615,-5.22642 -4.19214,0 -2.62008,-4.703778 -6.81221,0.522642 z"
     id="path9786"
     style="fill:#000000;fill-opacity:0.50625;fill-rule:evenodd;stroke:none"
     inkscape:connector-curvature="0" />
  <path
     d="m 98.515164,71.156872 5.240156,4.703778 6.81223,31.35851 -0.52402,-35.017004 8.90828,-10.452838 -10.48033,9.407554 -7.33624,-3.658493 -2.620076,3.658493 z"
     id="path9787"
     style="fill:#000000;fill-opacity:0.50625;fill-rule:evenodd;stroke:none"
     inkscape:connector-curvature="0" />
  <path
     d="m 201.22246,137.00975 3.1441,-17.24718 8.38427,-3.65849 8.90827,4.70377 2.09608,-6.27169 -10.48034,-2.61321 -7.33624,2.61321 -4.71614,22.47359 z"
     id="path9788"
     style="fill:#000000;fill-opacity:0.50625;fill-rule:evenodd;stroke:none"
     inkscape:connector-curvature="0" />
  <path
     d="m 253.62413,96.243676 20.96068,-38.675494 -0.52401,-7.839631 -10.48035,1.567927 6.2882,5.226419 -16.24452,39.720779 z"
     id="path9789"
     style="fill:#000000;fill-opacity:0.50625;fill-rule:evenodd;stroke:none"
     inkscape:connector-curvature="0" />
  <path
     d="m 264.62849,80.041786 9.43231,2.090567 -4.71616,14.63398 11.52837,-17.769832 -16.24452,1.045285 z"
     id="path9790"
     style="fill:#000000;fill-opacity:0.50625;fill-rule:evenodd;stroke:none"
     inkscape:connector-curvature="0" />
  <path
     d="m 237.90364,71.679515 8.90828,6.271703 -2.62009,21.428325 7.33624,-27.700028 -4.19213,-2.090569 -9.4323,2.090569 z"
     id="path9791"
     style="fill:#000000;fill-opacity:0.50625;fill-rule:evenodd;stroke:none"
     inkscape:connector-curvature="0" />
  <path
     d="m 226.89928,76.905933 -8.9083,33.449077 5.24018,-31.358509 12.05239,-5.226419 -8.38427,3.135851 z"
     id="path9792"
     style="fill:#000000;fill-opacity:0.50625;fill-rule:evenodd;stroke:none"
     inkscape:connector-curvature="0" />
  <path
     d="m 226.37526,57.04554 7.33624,2.090567 1.57205,8.362272 2.62009,-11.498124 6.28819,-6.794345 -8.38427,5.749061 -9.4323,2.090569 z"
     id="path9793"
     style="fill:#000000;fill-opacity:0.50625;fill-rule:evenodd;stroke:none"
     inkscape:connector-curvature="0" />
  <path
     d="m 252.05209,49.728551 -5.24017,19.860395 9.4323,-13.066049 -4.19213,-6.794346 z"
     id="path9794"
     style="fill:#000000;fill-opacity:0.50625;fill-rule:evenodd;stroke:none"
     inkscape:connector-curvature="0" />
  <path
     d="m 223.75518,35.094577 9.95632,6.794345 -2.09607,10.975482 8.90828,-12.543407 0,-4.181136 -16.76853,-1.045284 z"
     id="path9797"
     style="fill:#000000;fill-opacity:0.50625;fill-rule:evenodd;stroke:none"
     inkscape:connector-curvature="0" />
  <path
     d="m 210.65476,36.139861 1.57205,56.445328 -6.81223,-55.922686 -16.24451,-0.522642 16.24451,-4.181136 5.24018,4.181136 z"
     id="path9798"
     style="fill:#000000;fill-opacity:0.50625;fill-rule:evenodd;stroke:none"
     inkscape:connector-curvature="0" />
  <path
     d="m 188.64605,37.185144 -0.52402,18.815111 3.66812,-21.950962 -10.48033,-14.111332 -3.14411,2.613209 10.48034,14.633974 z"
     id="path9799"
     style="fill:#000000;fill-opacity:0.50625;fill-rule:evenodd;stroke:none"
     inkscape:connector-curvature="0" />
  <path
     d="m 202.27049,11.053047 6.81221,3.658493 2.62009,31.358518 2.62009,-33.971727 -4.71616,-2.090568 -4.19214,-1.567926 -3.14409,2.61321 z"
     id="path9800"
     style="fill:#000000;fill-opacity:0.50625;fill-rule:evenodd;stroke:none"
     inkscape:connector-curvature="0" />
  <path
     d="m 230.04338,19.937961 3.66812,4.703778 0,8.884911 7.33623,-8.36227 -11.00435,-5.226419 z"
     id="path9801"
     style="fill:#000000;fill-opacity:0.50625;fill-rule:evenodd;stroke:none"
     inkscape:connector-curvature="0" />
  <path
     d="m 166.63735,35.094577 11.00436,4.703777 3.1441,14.111333 -1.57206,-17.247184 -12.5764,-1.567926 z"
     id="path9802"
     style="fill:#000000;fill-opacity:0.50625;fill-rule:evenodd;stroke:none"
     inkscape:connector-curvature="0" />
  <path
     d="m 149.8688,18.892676 18.34061,4.181135 0,12.020766 5.24014,-14.633974 -23.58075,-1.567927 z"
     id="path9803"
     style="fill:#000000;fill-opacity:0.50625;fill-rule:evenodd;stroke:none"
     inkscape:connector-curvature="0" />
  <path
     d="m 149.34478,4.2587008 9.95633,2.0905684 3.1441,10.9754808 2.09606,-15.1566166 -4.71614,-2.09056845 -9.95633,2.09056845 -0.52402,2.0905674 z"
     id="path9804"
     style="fill:#000000;fill-opacity:0.50625;fill-rule:evenodd;stroke:none"
     inkscape:connector-curvature="0" />
  <path
     d="m 127.8601,3.2134176 6.81221,3.1358516 3.66812,7.3169878 -5.76417,1.567926 6.28819,2.090567 2.09607,4.703778 1.57206,-6.271703 L 136.24437,2.6907755 125.24,3.7360597 127.8601,3.2134176 z"
     id="path9805"
     style="fill:#000000;fill-opacity:0.50625;fill-rule:evenodd;stroke:none"
     inkscape:connector-curvature="0" />
  <path
     d="m 86.462774,37.185144 10.48034,4.181136 14.148446,25.609457 -11.528366,-29.267951 -10.48034,-2.613209 -2.62008,2.090567 z"
     id="path9807"
     style="fill:#000000;fill-opacity:0.48125;fill-rule:evenodd;stroke:none"
     inkscape:connector-curvature="0" />
  <path
     d="m 66.550134,36.662503 5.24017,2.090568 20.43665,33.971727 -17.81657,-38.152862 -10.48033,-0.522643 2.62008,2.61321 z"
     id="path9808"
     style="fill:#000000;fill-opacity:0.48125;fill-rule:evenodd;stroke:none"
     inkscape:connector-curvature="0" />
  <path
     d="m 73.886374,14.188899 9.95631,1.045284 11.00436,20.905678 -8.90829,-26.65474 -12.05238,4.703778 z"
     id="path9809"
     style="fill:#000000;fill-opacity:0.48125;fill-rule:evenodd;stroke:none"
     inkscape:connector-curvature="0" />
  <path
     d="m 71.266284,29.868158 7.33624,-3.658494 5.76419,2.090567 1.57204,6.271705 -5.24017,-4.703778 -9.4323,0 z"
     id="path9810"
     style="fill:#000000;fill-opacity:0.48125;fill-rule:evenodd;stroke:none"
     inkscape:connector-curvature="0" />
  <path
     d="M 40.349295,23.073811 53.973734,20.983244 64.454064,34.571936 50.305616,23.596453 40.349295,23.073811 z"
     id="path9811"
     style="fill:#000000;fill-opacity:0.48125;fill-rule:evenodd;stroke:none"
     inkscape:connector-curvature="0" />
  <path
     d="m 15.720503,106.17387 45.065451,258.18514 14.67248,-6.27171 -28.820938,-234.66625 -7.860252,-8.36227 -5.764185,-7.31698 -6.288202,-2.61321 -11.004354,1.04528 z"
     id="path11077"
     sodipodi:nodetypes="cccccccc"
     style="fill:#ffffff;fill-opacity:0.25625;fill-rule:evenodd;stroke:none"
     inkscape:connector-curvature="0" />
  <path
     d="m 81.222614,149.55316 14.67246,204.35302 15.196486,-4.18115 2.09606,-191.28695 -16.768516,-3.6585 -8.90829,-2.61321 -6.2882,-2.61321 z"
     id="path11699"
     style="fill:#ffffff;fill-opacity:0.25625;fill-rule:evenodd;stroke:none"
     inkscape:connector-curvature="0" />
  <path
     d="m 136.76838,160.52864 -3.14409,188.15111 15.19648,0.52264 4.19214,0.52264 17.29254,-195.46809 -11.00434,4.18114 -11.52838,1.56792 -11.00435,0.52264 z"
     id="path11700"
     style="fill:#ffffff;fill-opacity:0.25625;fill-rule:evenodd;stroke:none"
     inkscape:connector-curvature="0" />
  <path
     d="m 264.10448,101.4701 -43.4934,259.75306 4.19213,2.61321 4.71615,1.04528 7.33624,-0.52264 5.24016,-3.13585 2.09607,-2.61321 27.24888,-250.34551 -1.57206,-5.74905 -5.76417,-1.04529 z"
     id="path11702"
     style="fill:#ffffff;fill-opacity:0.25625;fill-rule:evenodd;stroke:none"
     inkscape:connector-curvature="0" />
  <path
     d="m 198.07836,143.8041 -24.62881,206.96622 7.86027,1.56792 8.90829,1.56794 3.66811,-0.52266 51.35364,-251.91342 -5.76418,-1.04528 -8.38427,9.93019 -8.90828,10.97549 -7.86025,9.40755 -6.2882,6.79434 -5.24017,3.6585 -4.71615,2.61321 z"
     id="path11701"
     style="fill:#ffffff;fill-opacity:0.25625;fill-rule:evenodd;stroke:none"
     inkscape:connector-curvature="0" />
</svg>
