<?xml version="1.0" encoding="UTF-8" standalone="no"?>
<!-- Generator: Adobe Illustrator 23.0.4, SVG Export Plug-In . SVG Version: 6.00 Build 0)  -->

<svg
   version="1.1"
   id="Layer_1"
   viewBox="0 0 422.6 422.60001"
   xml:space="preserve"
   sodipodi:docname="svg.svg"
   inkscape:version="1.2.1 (9c6d41e410, 2022-07-14)"
   xmlns:inkscape="http://www.inkscape.org/namespaces/inkscape"
   xmlns:sodipodi="http://sodipodi.sourceforge.net/DTD/sodipodi-0.dtd"
   xmlns:xlink="http://www.w3.org/1999/xlink"
   xmlns="http://www.w3.org/2000/svg"
   xmlns:svg="http://www.w3.org/2000/svg"><defs
     id="defs31"><linearGradient
       inkscape:collect="always"
       id="linearGradient991"><stop
         style="stop-color:#000000;stop-opacity:1;"
         offset="0"
         id="stop987" /><stop
         style="stop-color:#000000;stop-opacity:1;"
         offset="0.11159863"
         id="stop995" /><stop
         style="stop-color:#da3603;stop-opacity:1;"
         offset="0.22593984"
         id="stop997" /><stop
         style="stop-color:#158c61;stop-opacity:1;"
         offset="0.35455734"
         id="stop999" /><stop
         style="stop-color:#c810be;stop-opacity:1;"
         offset="0.45866898"
         id="stop1001" /><stop
         style="stop-color:#d2d03e;stop-opacity:1;"
         offset="0.56399643"
         id="stop1003" /><stop
         style="stop-color:#050ee4;stop-opacity:1;"
         offset="0.67602974"
         id="stop1005" /><stop
         style="stop-color:#ff6207;stop-opacity:1;"
         offset="0.77739877"
         id="stop1007" /><stop
         style="stop-color:#0bdfff;stop-opacity:1;"
         offset="0.88551021"
         id="stop1009" /><stop
         style="stop-color:#e81e1e;stop-opacity:1;"
         offset="1"
         id="stop989" /></linearGradient><radialGradient
       inkscape:collect="always"
       xlink:href="#linearGradient991"
       id="radialGradient993"
       cx="219.10001"
       cy="220.8"
       fx="219.10001"
       fy="220.8"
       r="205.39999"
       gradientUnits="userSpaceOnUse" /><radialGradient
       inkscape:collect="always"
       xlink:href="#linearGradient991"
       id="radialGradient1374"
       gradientUnits="userSpaceOnUse"
       cx="219.10001"
       cy="220.8"
       fx="219.10001"
       fy="220.8"
       r="205.39999" /><radialGradient
       inkscape:collect="always"
       xlink:href="#linearGradient991"
       id="radialGradient1376"
       gradientUnits="userSpaceOnUse"
       cx="219.10001"
       cy="220.8"
       fx="219.10001"
       fy="220.8"
       r="205.39999" /><radialGradient
       inkscape:collect="always"
       xlink:href="#linearGradient991"
       id="radialGradient1378"
       gradientUnits="userSpaceOnUse"
       cx="219.10001"
       cy="220.8"
       fx="219.10001"
       fy="220.8"
       r="205.39999" /><radialGradient
       inkscape:collect="always"
       xlink:href="#linearGradient991"
       id="radialGradient1380"
       gradientUnits="userSpaceOnUse"
       cx="219.10001"
       cy="220.8"
       fx="219.10001"
       fy="220.8"
       r="205.39999" /></defs><sodipodi:namedview
     id="namedview29"
     pagecolor="#505050"
     bordercolor="#ffffff"
     borderopacity="1"
     inkscape:showpageshadow="0"
     inkscape:pageopacity="0"
     inkscape:pagecheckerboard="1"
     inkscape:deskcolor="#505050"
     showgrid="false"
     inkscape:zoom="0.53636364"
     inkscape:cx="349.57627"
     inkscape:cy="210.67797"
     inkscape:window-width="3440"
     inkscape:window-height="1328"
     inkscape:window-x="0"
     inkscape:window-y="34"
     inkscape:window-maximized="1"
     inkscape:current-layer="Layer_1" /><style
     type="text/css"
     id="style2">
	.st0{fill:#FFFFFF;}
	.st1{clip-path:url(#SVGID_2_);fill:#001428;}
	.st2{clip-path:url(#SVGID_2_);fill:#009CB4;}
	.st3{clip-path:url(#SVGID_2_);fill:#E8663D;}
	.st4{clip-path:url(#SVGID_2_);fill:#008C73;}
	.st5{fill:#001428;}
</style><g
     id="g26"
     style="fill:url(#radialGradient993);fill-opacity:1;stroke:#0f0b0b;stroke-width:11.8;stroke-dasharray:none;stroke-opacity:0.64352"
     transform="translate(-7.7999999,-9.4999999)"><path
       class="st0"
       d="M 134.4,249.2 C 146.7,249.2 158,245 167,238 L 92.1,163.1 c -7,9 -11.2,20.3 -11.2,32.6 0.1,29.6 24,53.5 53.5,53.5 z"
       id="path18"
       style="fill:url(#radialGradient1374);fill-opacity:1;stroke:#0f0b0b;stroke-width:11.8;stroke-dasharray:none;stroke-opacity:0.64352" /><path
       class="st0"
       d="m 357,195.8 c 0,-12.3 -4.2,-23.6 -11.2,-32.6 L 271,238.1 c 9,7 20.3,11.2 32.6,11.2 29.5,-0.1 53.4,-24 53.4,-53.5 z"
       id="path20"
       style="fill:url(#radialGradient1376);fill-opacity:1;stroke:#0f0b0b;stroke-width:11.8;stroke-dasharray:none;stroke-opacity:0.64352" /><path
       class="st0"
       d="m 394.7,114.4 -33.1,33.1 c 10.9,13.1 17.6,30 17.6,48.3 0,41.6 -33.9,75.5 -75.5,75.5 -18.4,0 -35.2,-6.6 -48.3,-17.6 L 219,290 182.7,253.7 c -13.1,10.9 -30,17.6 -48.3,17.6 -41.6,0 -75.5,-33.9 -75.5,-75.5 0,-18.4 6.6,-35.2 17.6,-48.3 l -17,-17 -16.1,-16.1 c -18.8,31 -29.7,67.4 -29.7,106.4 0,113.4 91.9,205.4 205.4,205.4 113.5,0 205.4,-91.9 205.4,-205.4 -0.1,-39 -11,-75.4 -29.8,-106.4 z"
       id="path22"
       style="fill:url(#radialGradient1378);fill-opacity:1;stroke:#0f0b0b;stroke-width:11.8;stroke-dasharray:none;stroke-opacity:0.64352" /><path
       class="st0"
       d="M 367.6,79 C 330.2,39.9 277.5,15.4 219,15.4 160.5,15.4 107.8,39.9 70.4,79 65.3,84.4 60.5,90 56,95.9 l 163,163 163,-163 C 377.5,90 372.7,84.4 367.6,79 Z M 219,42.3 c 48,0 92.7,18.5 126.3,52.3 L 219,220.8 92.8,94.6 C 126.3,60.8 171,42.3 219,42.3 Z"
       id="path24"
       style="fill:url(#radialGradient1380);fill-opacity:1;stroke:#0f0b0b;stroke-width:11.8;stroke-dasharray:none;stroke-opacity:0.64352" /></g></svg>
