<?xml version="1.0" encoding="UTF-8" ?>
<!DOCTYPE svg PUBLIC "-//W3C//DTD SVG 1.1//EN" "http://www.w3.org/Graphics/SVG/1.1/DTD/svg11.dtd">
<svg width="258.198889747" height="387.298334621" viewBox="0 0 506 759" version="1.1" xmlns="http://www.w3.org/2000/svg">
<g id="#ffffffff">
</g>
<g id="#242021ff">
<path fill="#242021" opacity="1.00" d=" M 230.11 7.02 C 231.41 4.73 233.11 2.67 235.38 1.28 C 235.50 228.89 235.40 456.50 235.43 684.10 C 230.40 684.39 225.36 684.20 220.33 684.25 C 220.35 611.26 215.19 538.39 210.26 465.60 C 204.25 380.85 198.48 295.91 200.14 210.91 C 200.87 171.51 202.91 132.07 207.98 92.97 C 210.78 72.20 214.32 51.45 220.27 31.33 C 222.83 22.97 225.67 14.60 230.11 7.02 Z" />
<path fill="#242021" opacity="1.00" d=" M 260.86 466.16 C 261.35 466.40 262.33 466.88 262.81 467.11 C 275.93 473.68 283.96 487.13 288.20 500.72 C 294.56 521.46 295.15 543.44 294.45 564.96 C 292.98 604.76 290.33 644.50 287.94 684.26 C 275.57 684.24 263.20 684.26 250.83 684.24 C 250.90 611.44 255.92 538.76 260.86 466.16 Z" />
<path fill="#242021" opacity="1.00" d=" M 253.42 713.25 C 260.32 727.61 266.56 742.27 273.17 756.77 C 270.80 756.74 268.45 756.75 266.09 756.76 C 264.68 753.50 263.30 750.25 261.91 747.00 C 256.16 747.00 250.42 747.00 244.68 747.00 C 243.19 750.23 241.69 753.46 240.26 756.72 C 237.93 756.74 235.60 756.75 233.27 756.78 C 239.88 742.22 246.84 727.82 253.42 713.25 M 247.39 740.98 C 251.34 741.00 255.30 740.99 259.26 741.00 C 257.37 736.52 255.32 732.11 253.52 727.59 C 251.42 732.03 249.39 736.50 247.39 740.98 Z" />
<path fill="#242021" opacity="1.00" d=" M 296.57 742.78 C 300.30 733.12 303.89 723.40 307.65 713.75 C 311.30 723.38 314.65 733.13 318.26 742.79 C 321.83 733.81 325.65 724.94 329.30 716.00 C 331.63 715.99 333.96 715.99 336.30 716.00 C 330.27 730.34 324.28 744.69 318.18 759.00 L 317.02 759.00 L 317.75 758.99 C 314.29 749.68 310.97 740.32 307.54 731.00 C 303.93 740.31 300.45 749.66 296.92 759.00 L 296.45 759.00 C 290.59 744.71 284.98 730.32 279.19 716.00 C 281.51 715.99 283.84 715.98 286.17 715.99 C 289.65 724.92 293.21 733.81 296.57 742.78 Z" />
<path fill="#242021" opacity="1.00" d=" M 342.02 756.77 C 348.76 742.22 355.48 727.67 362.36 713.19 C 368.85 727.72 375.43 742.22 381.92 756.75 C 379.58 756.74 377.23 756.75 374.90 756.77 C 373.45 753.53 372.05 750.28 370.69 747.01 C 364.90 747.02 359.12 746.91 353.34 747.10 C 351.93 750.34 350.46 753.55 348.95 756.75 C 346.64 756.74 344.33 756.75 342.02 756.77 M 356.13 740.97 C 360.11 741.00 364.09 740.99 368.08 741.00 C 366.09 736.63 364.18 732.23 362.34 727.80 C 360.00 732.06 358.17 736.57 356.13 740.97 Z" />
<path fill="#242021" opacity="1.00" d=" M 98.99 728.15 C 102.23 720.33 110.46 714.70 119.03 715.20 C 125.58 714.90 131.52 718.61 135.69 723.40 C 134.20 724.93 132.69 726.43 131.17 727.93 C 128.18 724.27 124.02 721.02 119.05 721.21 C 111.37 720.78 104.24 727.43 103.92 735.08 C 102.81 743.62 110.55 751.80 119.06 751.51 C 124.60 751.28 129.40 746.87 130.61 741.55 C 127.15 741.48 123.70 741.50 120.24 741.50 C 120.25 739.49 120.25 737.49 120.25 735.49 C 125.93 735.51 131.61 735.49 137.29 735.50 C 137.56 741.13 136.66 747.32 132.46 751.45 C 127.98 756.63 120.59 758.49 114.02 757.14 C 105.71 755.53 98.92 748.29 97.68 739.95 C 97.16 735.99 97.49 731.87 98.99 728.15 Z" />
<path fill="#242021" opacity="1.00" d=" M 169.42 715.64 C 181.94 712.40 195.77 723.01 195.30 736.03 C 196.02 746.53 187.17 756.22 176.88 757.32 C 167.00 758.90 156.37 752.54 153.58 742.84 C 151.93 736.94 152.40 730.19 155.88 725.02 C 159.05 720.41 163.85 716.72 169.42 715.64 M 170.47 721.61 C 163.62 723.16 158.52 730.10 159.12 737.12 C 159.26 744.85 166.27 751.60 173.99 751.51 C 182.24 751.72 189.35 744.10 188.98 735.94 C 189.03 726.75 179.45 719.03 170.47 721.61 Z" />
<path fill="#242021" opacity="1.00" d=" M 0.00 716.11 C 2.25 716.04 4.50 715.99 6.75 715.96 C 6.76 721.22 6.76 726.48 6.75 731.75 C 12.50 731.74 18.24 731.74 23.99 731.75 C 24.00 726.50 24.00 721.25 24.00 716.00 C 26.08 715.99 28.16 715.99 30.25 716.00 C 30.26 729.58 30.25 743.17 30.25 756.75 C 28.17 756.74 26.09 756.75 24.00 756.75 C 23.99 750.42 24.00 744.08 23.99 737.75 C 18.25 737.75 12.50 737.75 6.75 737.76 C 6.76 744.10 6.76 750.44 6.75 756.79 C 4.50 756.75 2.25 756.74 0.00 756.58 L 0.00 716.11 Z" />
<path fill="#242021" opacity="1.00" d=" M 50.00 716.00 C 52.08 715.99 54.17 715.99 56.25 716.00 C 56.36 725.12 56.03 734.25 56.40 743.36 C 56.44 748.22 61.13 752.15 65.91 751.47 C 70.26 751.31 73.60 747.25 73.67 743.04 C 73.87 734.02 73.67 725.01 73.75 716.00 C 75.92 715.99 78.08 715.99 80.25 716.00 C 80.24 724.68 80.28 733.36 80.24 742.04 C 80.26 746.28 78.78 750.64 75.56 753.52 C 69.77 759.04 59.52 758.85 54.04 753.00 C 51.38 750.43 49.91 746.74 50.00 743.06 C 49.99 734.04 50.01 725.02 50.00 716.00 Z" />
<path fill="#242021" opacity="1.00" d=" M 396.75 716.00 C 403.33 716.29 411.17 714.65 416.49 719.56 C 422.84 725.54 419.73 737.72 411.03 739.58 C 415.26 745.25 419.40 750.99 423.53 756.73 C 420.85 756.76 418.17 756.76 415.50 756.66 C 411.50 751.01 407.86 745.05 403.40 739.75 C 403.09 745.41 403.32 751.08 403.25 756.75 C 401.08 756.75 398.91 756.74 396.75 756.75 C 396.76 743.17 396.74 729.58 396.75 716.00 M 403.25 721.96 C 403.25 726.15 403.24 730.35 403.26 734.55 C 406.54 734.55 410.62 734.64 412.71 731.60 C 414.06 729.11 414.03 725.26 411.48 723.53 C 409.11 721.76 406.03 722.03 403.25 721.96 Z" />
<path fill="#242021" opacity="1.00" d=" M 439.00 716.00 C 446.84 716.22 455.62 714.72 462.40 719.68 C 473.24 726.99 473.32 745.21 462.65 752.73 C 455.92 758.01 446.94 756.55 439.00 756.75 C 438.99 743.17 439.00 729.58 439.00 716.00 M 445.24 721.99 C 445.26 731.58 445.25 741.18 445.25 750.77 C 449.81 750.83 454.84 750.78 458.59 747.79 C 465.85 742.66 465.93 730.43 458.89 725.08 C 455.09 721.97 449.91 721.89 445.24 721.99 Z" />
<path fill="#242021" opacity="1.00" d=" M 492.35 715.65 C 493.70 717.94 494.35 721.05 496.03 722.85 C 497.58 720.90 498.35 717.99 499.66 715.70 C 500.26 719.77 501.53 723.80 501.32 727.96 C 498.90 726.60 499.42 723.62 498.87 721.36 C 498.03 723.33 497.20 725.32 496.24 727.25 C 494.40 725.95 494.13 723.30 493.09 721.40 C 492.20 723.42 493.36 727.55 490.17 727.49 C 490.83 723.53 491.62 719.59 492.35 715.65 Z" />
<path fill="#242021" opacity="1.00" d=" M 482.44 719.01 C 482.53 715.53 488.96 715.61 488.32 719.38 C 487.24 718.94 486.16 718.50 485.10 718.06 C 484.86 718.50 484.38 719.38 484.14 719.82 C 485.73 720.74 488.15 721.08 488.72 723.12 C 489.26 724.77 487.90 726.07 487.11 727.36 C 484.92 727.52 482.11 726.97 481.92 724.31 C 482.28 724.14 483.01 723.81 483.37 723.65 C 484.16 725.57 485.35 726.03 486.95 725.01 C 487.49 721.63 481.79 722.51 482.44 719.01 Z" />
</g>
<g id="#949599ff">
<path fill="#949599" opacity="1.00" d=" M 235.38 1.28 C 239.95 3.98 242.03 9.14 244.24 13.71 C 251.25 29.86 255.11 47.17 258.42 64.41 C 266.67 110.09 269.41 156.56 270.59 202.91 C 272.81 290.64 266.81 378.29 260.90 465.77 C 261.38 466.10 262.33 466.78 262.81 467.11 C 262.33 466.88 261.35 466.40 260.86 466.16 C 255.92 538.76 250.90 611.44 250.83 684.24 C 245.70 684.33 240.56 684.08 235.43 684.44 L 235.43 684.10 C 235.40 456.50 235.50 228.89 235.38 1.28 Z" />
<path fill="#949599" opacity="1.00" d=" M 210.26 465.60 C 215.19 538.39 220.35 611.26 220.33 684.25 C 207.90 684.26 195.47 684.24 183.05 684.26 C 181.01 654.80 179.34 625.32 177.77 595.83 C 176.75 571.60 174.79 547.20 177.93 523.04 C 180.16 506.61 184.42 489.44 195.69 476.72 C 199.71 471.99 205.05 468.80 210.26 465.60 Z" />
</g>
</svg>
