<?xml version="1.0" standalone="no"?>
<!--Created with Inkscape (http://www.inkscape.org/)-->
<svg xmlns="http://www.w3.org/2000/svg" xmlns:xlink="http://www.w3.org/1999/xlink" viewBox="0 0 48 48">
  <defs>
    <linearGradient id="k">
      <stop offset="0" stop-color="white" stop-opacity="1"/>
      <stop offset="1" stop-color="white" stop-opacity="0"/>
    </linearGradient>
    <linearGradient id="j">
      <stop offset="0" stop-color="white" stop-opacity="1"/>
      <stop offset="1" stop-color="white" stop-opacity="0"/>
    </linearGradient>
    <linearGradient id="i">
      <stop offset="0" stop-color="white" stop-opacity="1"/>
      <stop offset="1" stop-color="white" stop-opacity="0"/>
    </linearGradient>
    <linearGradient id="h">
      <stop offset="0" stop-color="white" stop-opacity="1"/>
      <stop offset="1" stop-color="white" stop-opacity=".15879828"/>
    </linearGradient>
    <linearGradient id="g">
      <stop offset="0" stop-color="white" stop-opacity="1"/>
      <stop offset="1" stop-color="white" stop-opacity="0"/>
    </linearGradient>
    <linearGradient id="f">
      <stop offset="0" stop-color="white" stop-opacity="1"/>
      <stop offset="1" stop-color="white" stop-opacity=".2918455"/>
    </linearGradient>
    <linearGradient id="e">
      <stop offset="0" stop-color="#000" stop-opacity="1"/>
      <stop offset="1" stop-color="#000" stop-opacity="0"/>
    </linearGradient>
    <linearGradient id="d">
      <stop offset="0.0000000" stop-color="#000" stop-opacity=".19791669"/>
      <stop offset="1" stop-color="#000" stop-opacity="0"/>
    </linearGradient>
    <linearGradient id="c">
      <stop offset="0" stop-color="#fff" stop-opacity="1"/>
      <stop offset="1" stop-color="#fff" stop-opacity="0"/>
    </linearGradient>
    <linearGradient id="b">
      <stop offset="0" stop-color="#cdcdcd" stop-opacity="1"/>
      <stop offset="1.0000000" stop-color="#f6f6f6" stop-opacity="1"/>
    </linearGradient>
    <linearGradient id="a">
      <stop offset="0" stop-color="#c8c8c8" stop-opacity="1"/>
      <stop offset="1.0000000" stop-color="#e5e5e5" stop-opacity="1"/>
    </linearGradient>
    <linearGradient xlink:href="#a" id="o" x1="79.640511" y1="88.448128" x2="76.651451" y2="50.617916" gradientUnits="userSpaceOnUse" gradientTransform="matrix(0.407097,0,0,0.428643,3.24019,-5.577463)"/>
    <linearGradient xlink:href="#b" id="r" x1="71.020035" y1="88.93235" x2="71.020035" y2="40.672314" gradientUnits="userSpaceOnUse" gradientTransform="matrix(0.443675,0,0,0.436578,-2.509788,-7.618743)"/>
    <linearGradient xlink:href="#c" id="s" x1="35" y1="22" x2="34.5" y2="78" gradientUnits="userSpaceOnUse" gradientTransform="matrix(0.415168,0,0,0.426577,-0.363176,-7.089262)"/>
    <radialGradient xlink:href="#d" id="m" cx="50" cy="93.5" fx="50" fy="93.5" r="65" gradientTransform="matrix(0.897638,5.769231e-7,-1.186544e-7,0.184615,5.118122,76.23843)" gradientUnits="userSpaceOnUse"/>
    <linearGradient xlink:href="#e" id="l" x1="79.195961" y1="128.88388" x2="97.403961" y2="85.927147" gradientUnits="userSpaceOnUse" gradientTransform="matrix(0.377558,0,0,0.377558,-0.188782,-2.442482)"/>
    <linearGradient xlink:href="#f" id="n" x1="9.1923876" y1="7.2503934" x2="9.1923876" y2="31.479254" gradientUnits="userSpaceOnUse"/>
    <linearGradient xlink:href="#g" id="t" x1="25.986174" y1="12.821434" x2="25.986174" y2="35.649128" gradientUnits="userSpaceOnUse"/>
    <linearGradient xlink:href="#h" id="u" x1="33.410793" y1="15.296312" x2="33.410793" y2="32.189819" gradientUnits="userSpaceOnUse"/>
    <linearGradient xlink:href="#i" id="v" x1="42.338017" y1="15.605671" x2="42.338017" y2="33.372467" gradientUnits="userSpaceOnUse" gradientTransform="translate(20,0)"/>
    <linearGradient xlink:href="#j" id="p" x1="34.468071" y1="21.327559" x2="31.632372" y2="19.690367" gradientUnits="userSpaceOnUse"/>
    <linearGradient xlink:href="#k" id="q" x1="34.105423" y1="30.02219" x2="31.403883" y2="28.462456" gradientUnits="userSpaceOnUse"/>
  </defs>
  <metadata/>
  <path d="M 31.04716,34.672038 L 34.51782,34.004608 L 43.861907,34.939018 L 48,33.070198 L 28.377421,30 L 29.31183,34.138098 L 31.04716,34.672038 z " fill="url(#l)" fill-opacity="1" fill-rule="evenodd" stroke="none" stroke-width=".25pt" stroke-linecap="butt" stroke-linejoin="miter" stroke-opacity="1"/>
  <path style="marker:none" d="M 115 93.5 A 65 12 0 1 1  -15,93.5 A 65 12 0 1 1  115 93.5 z" transform="matrix(0.369231,0,0,0.416668,5.538463,-5.95843)" opacity="1" color="#000" fill="url(#m)" fill-opacity="1" fill-rule="evenodd" stroke="none" stroke-width="2" stroke-linecap="round" stroke-linejoin="round" marker-start="none" marker-mid="none" marker-end="none" stroke-miterlimit="4" stroke-dasharray="none" stroke-dashoffset="0" stroke-opacity="1" visibility="visible" display="inline" overflow="visible"/>
  <path d="M 26.219599,11.500002 L 4.4508293,12.885197 C -1.3734904,14.143618 -0.22942766,31.507297 4.4508293,32.13414 L 26.219599,35.499989 L 33.395991,34.236837 L 33.499999,12.131579 L 26.219599,11.500002 z " fill="#747474" fill-opacity="1" fill-rule="evenodd" stroke="#5c5c5c" stroke-width=".9999997" stroke-linecap="butt" stroke-linejoin="round" stroke-miterlimit="4" stroke-dasharray="none" stroke-opacity="1"/>
  <path d="M 25.660836,12.499998 L 5.2113852,13.769761 C -0.25994556,14.923315 0.81478006,30.840036 5.2113852,31.414643 L 25.660836,34.500008 L 32.402296,33.342117 L 32.5,13.078944 L 25.660836,12.499998 z " fill="none" fill-opacity="1" fill-rule="evenodd" stroke="url(#n)" stroke-width=".99999964" stroke-linecap="butt" stroke-linejoin="round" stroke-miterlimit="4" stroke-dasharray="none" stroke-opacity="1"/>
  <path d="M 25.921195,12 L 25.94761,35 L 32.92076,33.822528 L 33,12.497157 L 25.921195,12 z " fill="#000" fill-opacity=".35199998" fill-rule="evenodd" stroke="none" stroke-width=".25pt" stroke-linecap="butt" stroke-linejoin="miter" stroke-opacity="1"/>
  <path d="M 43.129121,13.499997 L 28.500005,14.789961 L 28.500005,32.470597 L 43.129121,34.499994 L 46.500015,33.464792 L 46.500015,14.239433 L 43.129121,13.499997 z " fill="url(#o)" fill-opacity="1" fill-rule="evenodd" stroke="#7e7e7e" stroke-width="1.00000012" stroke-linecap="round" stroke-linejoin="round" stroke-miterlimit="4" stroke-dasharray="none" stroke-opacity="1"/>
  <path d="M 43.104691,14 L 43.104691,34 L 46,33.062984 L 45.987032,14.685963 L 43.104691,14 z " fill="#545454" fill-opacity="1" fill-rule="evenodd" stroke="none" stroke-width=".25pt" stroke-linecap="butt" stroke-linejoin="miter" stroke-opacity="1"/>
  <path d="M 46,15 L 45,15.220357 L 45.000794,32.748156 L 45.998452,33 L 46,15 z " fill="#a8a8a8" fill-opacity="1" fill-rule="evenodd" stroke="none" stroke-width=".25pt" stroke-linecap="butt" stroke-linejoin="miter" stroke-opacity="1"/>
  <path style="marker:none" d="M 30.500001,17.863637 L 34.500013,17.500002 L 34.466398,21.46364 L 30.500001,21.500003 L 30.500001,17.863637 z " color="#000" fill="#797979" fill-opacity="1" fill-rule="evenodd" stroke="url(#p)" stroke-width="1.00000012" stroke-linecap="round" stroke-linejoin="round" marker-start="none" marker-mid="none" marker-end="none" stroke-miterlimit="4" stroke-dasharray="none" stroke-dashoffset="0" stroke-opacity="1" visibility="visible" display="inline" overflow="visible"/>
  <path style="marker:none" d="M 30.500001,30.136375 L 34.500013,30.500013 L 34.466399,26.536372 L 30.500001,26.500008 L 30.500001,30.136375 z " color="#000" fill="#797979" fill-opacity="1" fill-rule="evenodd" stroke="url(#q)" stroke-width="1" stroke-linecap="round" stroke-linejoin="round" marker-start="none" marker-mid="none" marker-end="none" stroke-miterlimit="4" stroke-dasharray="none" stroke-dashoffset="0" stroke-opacity="1" visibility="visible" display="inline" overflow="visible"/>
  <path d="M 30,15 L 28,15.154353 L 28,32.171814 L 30,32.441942 L 30,15 z " fill="url(#r)" fill-opacity="1" fill-rule="evenodd" stroke="none" stroke-width=".25pt" stroke-linecap="butt" stroke-linejoin="miter" stroke-opacity="1"/>
  <path style="marker:none" d="M 8.1556887,15.847683 L 21.844311,15 C 23.038562,15 24,15.945165 24,17.119205 L 24,28.880796 C 24,30.054836 23.038562,31 21.844311,31 L 8.1556887,28.986756 C 6.7728143,28.668875 6,28.04159 6,26.86755 L 6,17.966889 C 6,16.792848 6.9614371,15.847683 8.1556887,15.847683 z " color="#000" fill="#616161" fill-opacity="1" fill-rule="evenodd" stroke="none" stroke-width="2" stroke-linecap="round" stroke-linejoin="round" marker-start="none" marker-mid="none" marker-end="none" stroke-miterlimit="4" stroke-dashoffset="0" stroke-opacity="1" visibility="visible" display="inline" overflow="visible"/>
  <path d="M 20,22.949767 L 18.647244,21.696354 L 18.614759,22.410403 L 12.28241,21.991042 C 13.226408,21.11072 13.354061,19.548638 15.381305,19.438898 C 15.380424,19.409241 15.386252,19.379297 15.385368,19.34964 C 15.505398,19.675136 15.710804,19.944154 16.025167,19.964973 C 16.472602,19.994607 16.858947,19.578119 16.883566,19.037044 C 16.908178,18.495977 16.561935,18.03097 16.114493,18.001341 C 15.757708,17.977713 15.483686,18.269208 15.357858,18.649522 C 12.649523,18.563999 12.519414,20.785156 11.172772,21.917557 L 10.359034,21.863666 C 10.219888,21.260026 9.8599433,20.75631 9.3129111,20.720084 C 8.6266608,20.674637 8.0395611,21.309289 8.0019031,22.137282 C 7.9642361,22.965281 8.4902352,23.673642 9.1764807,23.719089 C 9.7206126,23.755125 10.124131,23.314959 10.319243,22.738374 L 12.360982,22.873592 C 13.463535,24.103912 13.744103,25.914782 15.957181,26.352551 L 15.932008,26.905942 L 17.352349,27 L 17.444922,24.964965 L 16.024584,24.8709 L 15.997783,25.459992 C 13.960331,25.017947 14.148032,23.839574 13.455826,22.946098 L 18.574968,23.285112 L 18.542482,23.999159 L 20,22.949767 z " fill="#d2d2d2" fill-opacity="1" stroke="none" stroke-width="3.9375" stroke-linejoin="round" stroke-miterlimit="4" stroke-opacity="1"/>
  <path d="M 4.3074656,13.386371 C 1.7386127,13.990686 0.23362838,19.900538 1.4012886,26.716865 C 8.3207573,19.465077 20.118451,19.358432 26,27.996593 L 26,12 L 4.3074656,13.386371 z " fill="url(#s)" fill-opacity="1" fill-rule="evenodd" stroke="none" stroke-width=".25pt" stroke-linecap="butt" stroke-linejoin="miter" stroke-opacity="1"/>
  <path d="M 25.5,12.43934 L 25.5,34.5" fill="none" fill-opacity="1" fill-rule="evenodd" stroke="url(#t)" stroke-width="1px" stroke-linecap="butt" stroke-linejoin="miter" stroke-opacity="1"/>
  <path d="M 42.316381,14.500002 L 28.5,15.667112 L 28.5,31.663879 L 42.316381,33.5 L 45.500001,32.563388 L 45.500001,15.169015 L 42.316381,14.500002 z " fill="none" fill-opacity="1" fill-rule="evenodd" stroke="url(#u)" stroke-width="1.00000024" stroke-linecap="round" stroke-linejoin="round" stroke-miterlimit="4" stroke-dasharray="none" stroke-opacity="1"/>
  <path d="M 62.5,14.589205 L 62.5,34" fill="none" fill-opacity="1" fill-rule="evenodd" stroke="url(#v)" stroke-width="1px" stroke-linecap="butt" stroke-linejoin="miter" stroke-opacity="1"/>
</svg>
