<?xml version="1.0" encoding="UTF-8" standalone="no"?>
<!-- Created with Inkscape (http://www.inkscape.org/) -->
<svg id="svg15430" xmlns:rdf="http://www.w3.org/1999/02/22-rdf-syntax-ns#" xmlns="http://www.w3.org/2000/svg" height="770" width="905.33" version="1.1" xmlns:cc="http://creativecommons.org/ns#" xmlns:dc="http://purl.org/dc/elements/1.1/" viewBox="0 0 905.33333 770">
 <metadata id="metadata15435">
  <rdf:RDF>
   <cc:Work rdf:about="">
    <dc:format>image/svg+xml</dc:format>
    <dc:type rdf:resource="http://purl.org/dc/dcmitype/StillImage"/>
    <dc:title/>
   </cc:Work>
  </rdf:RDF>
 </metadata>
 <g id="layer2" transform="translate(102.67 692.78)">
  <g fill-rule="evenodd">
   <path id="path18826" d="m338.33-672.78-21 673-91 44h-26.334v33h300v-33h-26.334l-91-44-21-673z"/>
   <path id="path18843" d="m174.5-610.78a175.5 171.5 0 0 0 87.75 148.52 175.5 171.5 0 0 0 175.5 0 175.5 171.5 0 0 0 87.75 -148.52h-40a135.5 133.5 0 0 1 -67.75 115.62 135.5 133.5 0 0 1 -135.5 0 135.5 133.5 0 0 1 -67.75 -115.62h-40z"/>
   <path id="path18847" d="m56-610.78a294 298.5 0 0 0 147 258.51 294 298.5 0 0 0 294 0 294 298.5 0 0 0 147 -258.51h-31.5a262.5 257 0 0 1 -131.25 222.57 262.5 257 0 0 1 -262.5 0 262.5 257 0 0 1 -131.25 -222.57h-31.5z"/>
   <path id="path18851" d="m-66.666-610.78a416.67 422.33 0 0 0 208.33 365.75 416.67 422.33 0 0 0 416.67 0 416.67 422.33 0 0 0 208.33 -365.75h-31.332a385.33 379 0 0 1 -192.67 328.22 385.33 379 0 0 1 -385.33 0 385.33 379 0 0 1 -192.67 -328.22h-31.332z"/>
   <path id="path18859" d="m392-632.78a42 42 0 0 1 -21 36.373 42 42 0 0 1 -42 0 42 42 0 0 1 -21 -36.373h42z"/>
  </g>
  <path id="path18861" d="m300-642.78h100" stroke="#000" stroke-width="28" fill="none"/>
  <path id="path18863" d="m297.33-692.78 52.667 50 52.667-50z" fill-rule="evenodd"/>
  <path id="path18867" d="m240-632.78a42 42 0 0 1 -21 36.373 42 42 0 0 1 -42 0 42 42 0 0 1 -21 -36.373h42z" fill-rule="evenodd"/>
  <path id="path18869" d="m148-642.78h100" stroke="#000" stroke-width="28" fill="none"/>
  <path id="path18871" d="m145.33-692.78 52.667 50 52.667-50z" fill-rule="evenodd"/>
  <path id="path18873" fill-rule="evenodd" d="m116-632.78a42 42 0 0 1 -21 36.373 42 42 0 0 1 -42 0 42 42 0 0 1 -21 -36.37h42z"/>
  <path id="path18875" d="m24-642.78h100" stroke="#000" stroke-width="28" fill="none"/>
  <path id="path18877" d="m21.333-692.78 52.667 50 52.667-50z" fill-rule="evenodd"/>
  <path id="path18879" d="m-8-632.78a42 42 0 0 1 -21 36.373 42 42 0 0 1 -42 0 42 42 0 0 1 -21 -36.37h42z" fill-rule="evenodd"/>
  <path id="path18881" d="m-100-642.78h100" stroke="#000" stroke-width="28" fill="none"/>
  <path id="path18883" d="m-102.67-692.78 52.667 50 52.667-50z" fill-rule="evenodd"/>
  <path id="path18887" fill-rule="evenodd" transform="scale(-1,1)" d="m-460-632.78a42 42 0 0 1 -21 36.373 42 42 0 0 1 -42 0 42 42 0 0 1 -21 -36.373h42z"/>
  <path id="path18889" d="m552-642.78h-100" stroke="#000" stroke-width="28" fill="none"/>
  <path id="path18891" d="m554.67-692.78-52.667 50-52.667-50z" fill-rule="evenodd"/>
  <path id="path18893" d="m-584-632.78a42 42 0 0 1 -21 36.373 42 42 0 0 1 -42 0 42 42 0 0 1 -21 -36.373h42z" fill-rule="evenodd" transform="scale(-1,1)"/>
  <path id="path18895" d="m676-642.78h-100" stroke="#000" stroke-width="28" fill="none"/>
  <path id="path18897" d="m678.67-692.78-52.667 50-52.667-50z" fill-rule="evenodd"/>
  <path id="path18899" fill-rule="evenodd" transform="scale(-1,1)" d="m-708-632.78a42 42 0 0 1 -21 36.373 42 42 0 0 1 -42 0 42 42 0 0 1 -21 -36.373h42z"/>
  <path id="path18901" d="m800-642.78h-100" stroke="#000" stroke-width="28" fill="none"/>
  <path id="path18903" d="m802.67-692.78-52.667 50-52.667-50z" fill-rule="evenodd"/>
 </g>
</svg>
