<?xml version="1.0" encoding="UTF-8" standalone="no"?>
<!-- Created with Inkscape (http://www.inkscape.org/) -->
<svg
   xmlns:svg="http://www.w3.org/2000/svg"
   xmlns="http://www.w3.org/2000/svg"
   version="1.0"
   width="382.121"
   height="577.65698"
   viewBox="0 0 382.121 577.657"
   id="svg2638"
   xml:space="preserve"><defs
   id="defs2644" />
	<g
   id="Layer_1">
		<path
   d="M 262.5,269.5 C 286.5,245.5 324,208 357,132 C 390,56 381,0 381,0 L 300.121,0 L 208,0 L 174.12,0 L 74.12,0 L 1.12,0 C 1.12,0 -7.88,56 25.12,132 C 58.12,208 95.62,245.5 119.62,269.5 C 140.998,290.877 158.01,303.918 172.781,310.047 C 173.424,319.004 178.109,390.906 165.619,426.502 C 152.286,464.502 119.332,522.215 60.286,565.834 C 43.286,582.834 98.953,576.502 122.953,576.502 C 146.953,576.502 189.561,576.502 189.561,576.502 C 189.561,576.502 232.168,576.502 256.168,576.502 C 280.168,576.502 335.835,582.834 318.835,565.834 C 259.788,522.215 226.835,464.502 213.502,426.502 C 201.454,392.168 205.387,324.063 206.257,311.237 C 221.739,305.711 239.619,292.381 262.5,269.5 z "
   id="path2616" />
		<path
   d="M 152.205,120.851 C 190.668,97.079 225.85,75.284 228.917,73.205 C 211.788,68 185.716,70.599 179.417,72.038 C 176.493,72.706 151.451,87.103 122.929,103.853 C 93.563,86.816 72.288,74.5 72.288,74.5 C 56.955,72.333 41.963,71.755 23.621,74.5 C 23.621,74.5 57.809,93.873 99.535,117.65 C 65.569,137.755 33.689,156.9 33.689,156.9 L 48.838,184.652 C 48.838,184.652 87.87,160.589 129.611,134.809 C 186.703,167.425 246.053,201.597 248.622,204.166 C 253.622,209.166 291.621,204.166 293.955,204.166 C 295.346,204.167 216.282,158.075 152.205,120.851 z "
   style="fill:#ffffff"
   id="path2618" />
	</g>
</svg>