<?xml version="1.0" encoding="UTF-8" standalone="no"?>
<!-- Generator: Adobe Illustrator 19.0.0, SVG Export Plug-In . SVG Version: 6.00 Build 0)  -->

<svg
   version="1.1"
   x="0px"
   y="0px"
   viewBox="0 0 1400 980"
   style="enable-background:new 0 0 1400 980;"
   xml:space="preserve"
   id="svg200"
   sodipodi:docname="svg.svg"
   inkscape:version="1.1.2 (0a00cf5339, 2022-02-04)"
   xmlns:inkscape="http://www.inkscape.org/namespaces/inkscape"
   xmlns:sodipodi="http://sodipodi.sourceforge.net/DTD/sodipodi-0.dtd"
   xmlns="http://www.w3.org/2000/svg"
   xmlns:svg="http://www.w3.org/2000/svg"><defs
   id="defs204" /><sodipodi:namedview
   id="namedview202"
   pagecolor="#505050"
   bordercolor="#ffffff"
   borderopacity="1"
   inkscape:pageshadow="0"
   inkscape:pageopacity="0"
   inkscape:pagecheckerboard="1"
   showgrid="false"
   inkscape:zoom="0.76020408"
   inkscape:cx="700.4698"
   inkscape:cy="490"
   inkscape:window-width="3440"
   inkscape:window-height="1369"
   inkscape:window-x="0"
   inkscape:window-y="34"
   inkscape:window-maximized="1"
   inkscape:current-layer="svg200" />
<style
   type="text/css"
   id="style2">
	.st0{fill:#AFA07B;}
	.st1{fill:#9B8C6A;}
	.st2{fill:#FFC10D;stroke:#231F20;stroke-width:4.9756;stroke-linecap:round;stroke-linejoin:round;stroke-miterlimit:10;}
	.st3{fill:none;stroke:#231F20;stroke-width:4.9756;stroke-linecap:round;stroke-linejoin:round;stroke-miterlimit:10;}
	.st4{fill:#FFFFFF;stroke:#231F20;stroke-width:4.9756;stroke-linecap:round;stroke-linejoin:round;stroke-miterlimit:10;}
	.st5{fill:#EC1E24;stroke:#231F20;stroke-width:4.9756;stroke-linecap:round;stroke-linejoin:round;stroke-miterlimit:10;}
	.st6{fill:#FFFFFF;}
	.st7{fill:#E0D5D8;}
	.st8{fill:#231F20;}
	.st9{fill:#E8A322;}
	.st10{fill:none;stroke:#E0D5D8;stroke-width:6.0467;stroke-linecap:round;stroke-linejoin:round;stroke-miterlimit:10;}
</style>
<g
   id="Layer_2">
	<rect
   class="st0"
   width="1400"
   height="980"
   id="rect4" />
</g>
<g
   id="Layer_1">
	<g
   id="g197">
		<rect
   x="168.8"
   y="624.7"
   class="st1"
   width="1062.5"
   height="14.4"
   id="rect7" />
		<g
   id="g21">
			<polyline
   class="st2"
   points="1083.4,516.5 1083.4,611 1119.1,631.1 1059.4,631.1 1069.1,516.5    "
   id="polyline9" />
			<line
   class="st3"
   x1="1062.8"
   y1="601.7"
   x2="1083.2"
   y2="601.7"
   id="line11" />
			<line
   class="st3"
   x1="1062.8"
   y1="590.5"
   x2="1083.2"
   y2="590.5"
   id="line13" />
			<polyline
   class="st2"
   points="1039,516.5 1039,611 1074.7,631.1 1015,631.1 1024.7,516.5    "
   id="polyline15" />
			<line
   class="st3"
   x1="1018.6"
   y1="590.5"
   x2="1039"
   y2="590.5"
   id="line17" />
			<line
   class="st3"
   x1="1018.6"
   y1="601.7"
   x2="1039"
   y2="601.7"
   id="line19" />
		</g>
		<g
   id="g71">
			<g
   id="g27">
				<line
   class="st2"
   x1="1069"
   y1="511.6"
   x2="1083.3"
   y2="511.6"
   id="line23" />
				<path
   class="st2"
   d="M1119,626.2"
   id="path25" />
			</g>
			<g
   id="g31">
				<line
   class="st2"
   x1="1024.7"
   y1="511.6"
   x2="1039"
   y2="511.6"
   id="line29" />
			</g>
			<g
   id="g69">
				<g
   id="g67">
					<path
   class="st4"
   d="M919.3,458.6c1.9,12.5,10.7,29,18.1,27.8c7.5-1.2,10.8-19.5,8.9-32c-1.9-12.5-9.5-21.7-17-20.5       C921.9,435.1,917.4,446.1,919.3,458.6z"
   id="path33" />
					<path
   class="st5"
   d="M1088.6,327.6c-2.6,9.1-1.9,23.1,3.6,24.6c5.4,1.6,13.5-9.8,16.1-18.9c2.6-9.1,0.3-17.8-5.1-19.3       C1097.7,312.4,1091.2,318.5,1088.6,327.6z"
   id="path35" />
					<path
   class="st5"
   d="M1059.7,324c5.3,11.5,18.2,24.9,25.1,21.7c6.9-3.2,5-21.7-0.3-33.2c-5.3-11.5-15.2-18.2-22-15       C1055.6,300.6,1054.4,312.5,1059.7,324z"
   id="path37" />
					<path
   class="st5"
   d="M1039.5,336.1c8.4,4.3,22.3,6.2,24.9,1.1c2.6-5.1-7.1-15.1-15.6-19.4c-8.4-4.3-17.4-3.7-19.9,1.4       C1026.3,324.2,1031,331.8,1039.5,336.1z"
   id="path39" />
					<path
   class="st4"
   d="M908.4,477.4c6.8,5.9,19.2,10.8,22.8,6.7c3.5-4.1-3.1-15.6-10-21.5c-6.8-5.9-15.3-7.4-18.8-3.3       C898.9,463.4,901.6,471.5,908.4,477.4z"
   id="path41" />
					<path
   class="st6"
   d="M1170.3,514.9c33.1-56.8,13.9-129.6-42.9-162.8c-56.8-33.1-129.6-13.9-162.7,42.9       c-10.8,18.5-16,38.6-16.2,58.6v0c-1.5,19.6-12.3,51.2-45.2,18.1c19.5,69.1,65.7,94.7,110.8,102c26.4,4.3,50.2,1.9,67.2-0.6       C1117,568,1150.7,548.5,1170.3,514.9z"
   id="path43" />
					<g
   id="g47">
						<path
   class="st7"
   d="M1063.1,442.2c-20-21-53.1-21.8-74.1-1.8c-13.7,13-18.8,31.7-15.1,48.9c2.1-10,7-19.6,15.1-27        C1020.2,433.7,1063.1,442.2,1063.1,442.2z"
   id="path45" />
					</g>
					<path
   class="st7"
   d="M1186.5,453.4c0-0.3,0-0.6,0-0.9c-0.8-40.1-21.9-78.8-59-100.4C1078.2,323.5,1017,334,980,374.3       c11.2-4.8,23.3-8,36.1-9.2c65.4-6.1,123.4,42.1,129.5,107.5c3.2,34.8-9.4,66.8-30.8,91.1c11.7-5.1,22.7-11.9,32.4-20.5       c0.1-0.1,0.3-0.3,0.4-0.4c23.5-22.5,38.9-53.6,39-87.9C1186.5,454.4,1186.5,453.9,1186.5,453.4z"
   id="path49" />
					<path
   class="st3"
   d="M1170.3,514.9c33.1-56.8,13.9-129.6-42.9-162.8c-56.8-33.1-129.6-13.9-162.7,42.9       c-10.8,18.5-16,38.6-16.2,58.6v0c-1.5,19.6-12.3,51.2-45.2,18.1c19.5,69.1,65.7,94.7,110.8,102c26.4,4.3,50.2,1.9,67.2-0.6       C1117,568,1150.7,548.5,1170.3,514.9z"
   id="path51" />
					<path
   class="st3"
   d="M1061.3,516.3c-21,20-54.1,19.2-74.1-1.8c-20-21-19.2-54.2,1.8-74.1c21-20,54.1-19.2,74.1,1.8"
   id="path53" />
					<circle
   class="st8"
   cx="1105.2"
   cy="410.4"
   r="10.4"
   id="circle55" />
					<circle
   class="st8"
   cx="1153.6"
   cy="410.4"
   r="10.4"
   id="circle57" />
					<path
   class="st2"
   d="M1130.8,417c0,0-8,8.3-8,20c0,11.7,8,20,8,20l36.5-20L1130.8,417z"
   id="path59" />
					<path
   class="st9"
   d="M1130.8,417c0,0,1.8-4.8-0.6,0.9c8,7.3,13,16.8,15.4,30.9l21.7-11.8L1130.8,417z"
   id="path61" />
					<path
   class="st3"
   d="M1124,429.1c0,0,7.6,13.2,43.3,7.8"
   id="path63" />
					<path
   class="st3"
   d="M1130.8,417c0,0-8,8.3-8,20c0,11.7,8,20,8,20l36.5-20L1130.8,417z"
   id="path65" />
				</g>
			</g>
		</g>
		<g
   id="g81">
			<path
   class="st4"
   d="M301.3,566.7c0,40.8-25.8,59.5-57.6,59.5s-57.6-18.7-57.6-59.5c0-40.8,25.8-88.4,57.6-88.4     S301.3,525.9,301.3,566.7z"
   id="path73" />
			<g
   id="g77">
				<path
   class="st7"
   d="M243.7,478.3c-0.5,0-1.1,0-1.6,0c17.5,16.9,29.4,47.7,29.4,75.4c0,40.8-25.8,59.5-57.6,59.5      c-3.4,0-6.8-0.2-10-0.7c10.3,9.2,24.4,13.6,39.8,13.6c31.8,0,57.6-18.7,57.6-59.5C301.3,525.9,275.5,478.3,243.7,478.3z"
   id="path75" />
			</g>
			<path
   class="st3"
   d="M301.3,566.7c0,40.8-25.8,59.5-57.6,59.5s-57.6-18.7-57.6-59.5c0-40.8,25.8-88.4,57.6-88.4     S301.3,525.9,301.3,566.7z"
   id="path79" />
		</g>
		<g
   id="g111">
			<path
   class="st2"
   d="M602.3,552.7c0,29.7-22.5,53.8-50.3,53.8c-27.8,0-50.3-24.1-50.3-53.8c0-29.7,22.5-72.2,50.3-72.2     C579.8,480.5,602.3,522.9,602.3,552.7z"
   id="path83" />
			<g
   id="g87">
				<path
   class="st9"
   d="M552,480.5c-3.6,0-7,0.7-10.4,2c22.8,8.7,39.9,44.3,39.9,70.2c0,25.9-17.1,47.5-39.9,52.6      c3.3,0.8,6.8,1.2,10.4,1.2c27.8,0,50.3-24.1,50.3-53.8C602.3,522.9,579.8,480.5,552,480.5z"
   id="path85" />
			</g>
			<path
   class="st3"
   d="M602.3,552.7c0,29.7-22.5,53.8-50.3,53.8c-27.8,0-50.3-24.1-50.3-53.8c0-29.7,22.5-72.2,50.3-72.2     C579.8,480.5,602.3,522.9,602.3,552.7z"
   id="path89" />
			<circle
   class="st8"
   cx="553.6"
   cy="516"
   r="5.5"
   id="circle91" />
			<circle
   class="st8"
   cx="579.3"
   cy="516"
   r="5.5"
   id="circle93" />
			<path
   class="st2"
   d="M567.1,519.5c0,0-4.2,4.4-4.2,10.6c0,6.2,4.2,10.6,4.2,10.6l19.4-10.6L567.1,519.5z"
   id="path95" />
			<path
   class="st9"
   d="M567.1,519.5c0,0,1-2.6-0.3,0.5c4.2,3.9,6.9,8.9,8.2,16.4l11.5-6.3L567.1,519.5z"
   id="path97" />
			<path
   class="st3"
   d="M567.1,519.5c0,0-4.2,4.4-4.2,10.6c0,6.2,4.2,10.6,4.2,10.6l19.4-10.6L567.1,519.5z"
   id="path99" />
			<path
   class="st3"
   d="M563.5,526c0,0,4,7,23,4.1"
   id="path101" />
			<path
   class="st4"
   d="M585.1,557.3c-1.1,1-2.8,1.2-3.9,0c-5.9-6.4-11.7-12.8-17.1-19.5c-5.3,6.5-8.6,14.6-15.8,19.4     c-1,0.6-2.6,0.5-3.3-0.4c-5.2-5.9-8.8-12.9-13.7-19c-5.8,6.5-12.1,12.7-17.6,19.6c-1.1,1.4-3.5,0.8-4.3-0.6     c-3.2-5.3-7.9-10-12-15c-1.9,8.3-3,16.8-3,25c0,40.8,25.8,59.5,57.6,59.5c31.8,0,57.6-18.7,57.6-59.5c0-9.2-1.3-18.6-3.7-27.9     C598.9,544.9,592.1,551.2,585.1,557.3z"
   id="path103" />
			<g
   id="g107">
				<path
   class="st7"
   d="M585.1,557.3c-1.1,1-2.8,1.2-3.9,0c-0.5-0.5-0.9-1-1.4-1.5c-0.9,39.4-26.3,57.4-57.6,57.4      c-3.4,0-6.8-0.2-10-0.7c10.3,9.2,24.4,13.6,39.8,13.6c31.8,0,57.6-18.7,57.6-59.5c0-9.2-1.3-18.6-3.7-27.9      C598.9,544.9,592.1,551.2,585.1,557.3z"
   id="path105" />
			</g>
			<path
   class="st3"
   d="M585.1,557.3c-1.1,1-2.8,1.2-3.9,0c-5.9-6.4-11.7-12.8-17.1-19.5c-5.3,6.5-8.6,14.6-15.8,19.4     c-1,0.6-2.6,0.5-3.3-0.4c-5.2-5.9-8.8-12.9-13.7-19c-5.8,6.5-12.1,12.7-17.6,19.6c-1.1,1.4-3.5,0.8-4.3-0.6     c-3.2-5.3-7.9-10-12-15c-1.9,8.3-3,16.8-3,25c0,40.8,25.8,59.5,57.6,59.5c31.8,0,57.6-18.7,57.6-59.5c0-9.2-1.3-18.6-3.7-27.9     C598.9,544.9,592.1,551.2,585.1,557.3z"
   id="path109" />
		</g>
		<g
   id="g125">
			<path
   class="st4"
   d="M455.1,566.7c0,40.8-25.8,59.5-57.6,59.5s-57.6-18.7-57.6-59.5c0-40.8,25.8-88.4,57.6-88.4     S455.1,525.9,455.1,566.7z"
   id="path113" />
			<polyline
   class="st10"
   points="343.2,544.4 358,560.8 377,540.4 392,560.1 409.8,540.4 427,560 451.1,540.4    "
   id="polyline115" />
			<g
   id="g119">
				<path
   class="st7"
   d="M397.5,478.3c-0.5,0-1.1,0-1.6,0c17.5,16.9,29.4,47.7,29.4,75.4c0,40.8-25.8,59.5-57.6,59.5      c-3.4,0-6.8-0.2-10-0.7c10.3,9.2,24.4,13.6,39.8,13.6c31.8,0,57.6-18.7,57.6-59.5C455.1,525.9,429.3,478.3,397.5,478.3z"
   id="path117" />
			</g>
			<path
   class="st3"
   d="M455.1,566.7c0,40.8-25.8,59.5-57.6,59.5s-57.6-18.7-57.6-59.5c0-40.8,25.8-88.4,57.6-88.4     S455.1,525.9,455.1,566.7z"
   id="path121" />
			<polyline
   class="st3"
   points="343.2,541.7 358,558.1 377,537.7 392,557.5 409.8,537.8 427,557.3 451.1,537.7    "
   id="polyline123" />
		</g>
		<g
   id="g157">
			<polyline
   class="st2"
   points="714.4,584.4 714.4,622.9 729,631.1 704.7,631.1 708.6,584.4    "
   id="polyline127" />
			<line
   class="st3"
   x1="706.1"
   y1="614.6"
   x2="714.4"
   y2="614.6"
   id="line129" />
			<polyline
   class="st2"
   points="696.4,584.4 696.4,622.9 710.9,631.1 686.6,631.1 690.6,584.4    "
   id="polyline131" />
			<line
   class="st3"
   x1="688.1"
   y1="614.6"
   x2="696.4"
   y2="614.6"
   id="line133" />
			<path
   class="st2"
   d="M750.3,552.7c0,29.7-22.5,53.8-50.3,53.8c-27.8,0-50.3-24.1-50.3-53.8c0-29.7,22.5-72.2,50.3-72.2     C727.8,480.5,750.3,522.9,750.3,552.7z"
   id="path135" />
			<path
   class="st2"
   d="M700,480.5c-27.8,0-50.3,42.5-50.3,72.2c0,0.9,0,1.7,0.1,2.6h-18.5c1.3,28.5,33.7,51.2,60.7,51.2     c1.4,0,2.7-0.1,4-0.2c1.3,0.1,2.7,0.2,4.1,0.2c27.8,0,50.3-24.1,50.3-53.8C750.3,522.9,727.8,480.5,700,480.5z"
   id="path137" />
			<g
   id="g141">
				<path
   class="st9"
   d="M700,480.5c-3.6,0-7,0.7-10.4,2c22.8,8.7,39.9,44.3,39.9,70.2c0,25.9-17.1,47.5-39.9,52.6      c3.3,0.8,6.8,1.2,10.4,1.2c27.8,0,50.3-24.1,50.3-53.8C750.3,522.9,727.8,480.5,700,480.5z"
   id="path139" />
			</g>
			<path
   class="st3"
   d="M700,480.5c-27.8,0-50.3,42.5-50.3,72.2c0,0.9,0,1.7,0.1,2.6h-18.5c1.3,28.5,33.7,51.2,60.7,51.2     c1.4,0,2.7-0.1,4-0.2c1.3,0.1,2.7,0.2,4.1,0.2c27.8,0,50.3-24.1,50.3-53.8C750.3,522.9,727.8,480.5,700,480.5z"
   id="path143" />
			<circle
   class="st8"
   cx="701.5"
   cy="516"
   r="5.5"
   id="circle145" />
			<circle
   class="st8"
   cx="727.2"
   cy="516"
   r="5.5"
   id="circle147" />
			<path
   class="st2"
   d="M715.1,519.5c0,0-4.2,4.4-4.2,10.6c0,6.2,4.2,10.6,4.2,10.6l19.4-10.6L715.1,519.5z"
   id="path149" />
			<path
   class="st9"
   d="M715.1,519.5c0,0,1-2.6-0.3,0.5c4.2,3.9,6.9,8.9,8.2,16.4l11.5-6.3L715.1,519.5z"
   id="path151" />
			<path
   class="st3"
   d="M715.1,519.5c0,0-4.2,4.4-4.2,10.6c0,6.2,4.2,10.6,4.2,10.6l19.4-10.6L715.1,519.5z"
   id="path153" />
			<path
   class="st3"
   d="M711.5,526c0,0,4,7,23,4.1"
   id="path155" />
		</g>
		<path
   class="st4"
   d="M665.6,512.1c4-5.1,7.4-9.5,11.9-15.1c4.3,4.8,8.9,9,13.6,13.6c4.2-4.2,8.5-8.4,12-13.1    c3.9,3.2,10.8,9.7,12.3,10.4c2.3-2.1,4.6-7.3,7.3-10.6c3,1.9,6.6,4.8,9.1,7.3c2.1-1.7,5.6-3.7,7.1-6    c-10.1-16.5-25.4-23.8-38.6-23.8c-14,0-32.9,10-41.2,30.2C661.2,507,663.4,510,665.6,512.1z"
   id="path159" />
		<path
   class="st7"
   d="M719.9,503.3c0.2-0.3,2.5-3,2.7-3.3c0.9-1.3-0.7-3,0.8-2.3c6.6,3.1,2.8,1.1,7.7,6.2c2.1-1.7,5.3-4.5,6.8-6.9    c-9.7-12.6-24.5-22.4-37.7-22.4c-0.5,0-7.7,1-8.3,1.1C703.2,477.3,716.5,497.9,719.9,503.3z"
   id="path161" />
		<path
   class="st3"
   d="M665.6,512.1c4-5.1,7.4-9.5,11.9-15.1c4.3,4.8,8.9,9,13.6,13.6c4.2-4.2,8.5-8.4,12-13.1    c3.9,3.2,10.8,9.7,12.3,10.4c2.3-2.1,4.6-7.3,7.3-10.6c3,1.9,6.6,4.8,9.1,7.3c2.1-1.7,5.6-3.7,7.1-6    c-10.1-16.5-25.4-23.8-38.6-23.8c-14,0-32.9,10-41.2,30.2C661.2,507,663.4,510,665.6,512.1z"
   id="path163" />
		<g
   id="g195">
			<polyline
   class="st2"
   points="861.2,584.4 861.2,622.9 875.7,631.1 851.4,631.1 855.4,584.4    "
   id="polyline165" />
			<line
   class="st3"
   x1="852.8"
   y1="614.6"
   x2="861.1"
   y2="614.6"
   id="line167" />
			<polyline
   class="st2"
   points="843.1,584.4 843.1,622.9 857.7,631.1 833.4,631.1 837.3,584.4    "
   id="polyline169" />
			<line
   class="st3"
   x1="834.8"
   y1="614.6"
   x2="843.1"
   y2="614.6"
   id="line171" />
			<path
   class="st2"
   d="M897,552.7c0,29.7-22.5,53.8-50.3,53.8c-27.8,0-50.3-24.1-50.3-53.8c0-29.7,22.5-72.2,50.3-72.2     C874.5,480.5,897,522.9,897,552.7z"
   id="path173" />
			<path
   class="st2"
   d="M846.8,480.5c-27.8,0-50.3,42.5-50.3,72.2c0,0.9,0,1.7,0.1,2.6h-18.5c1.3,28.5,33.7,51.2,60.7,51.2     c1.4,0,2.7-0.1,4-0.2c1.3,0.1,2.7,0.2,4.1,0.2c27.8,0,50.3-24.1,50.3-53.8C897,522.9,874.5,480.5,846.8,480.5z"
   id="path175" />
			<g
   id="g179">
				<path
   class="st9"
   d="M846.8,480.5c-3.6,0-7,0.7-10.4,2c22.8,8.7,39.9,44.3,39.9,70.2c0,25.9-17.1,47.5-39.9,52.6      c3.3,0.8,6.8,1.2,10.4,1.2c27.8,0,50.3-24.1,50.3-53.8C897,522.9,874.5,480.5,846.8,480.5z"
   id="path177" />
			</g>
			<path
   class="st3"
   d="M846.8,480.5c-27.8,0-50.3,42.5-50.3,72.2c0,0.9,0,1.7,0.1,2.6h-18.5c1.3,28.5,33.7,51.2,60.7,51.2     c1.4,0,2.7-0.1,4-0.2c1.3,0.1,2.7,0.2,4.1,0.2c27.8,0,50.3-24.1,50.3-53.8C897,522.9,874.5,480.5,846.8,480.5z"
   id="path181" />
			<circle
   class="st8"
   cx="848.3"
   cy="516"
   r="5.5"
   id="circle183" />
			<circle
   class="st8"
   cx="874"
   cy="516"
   r="5.5"
   id="circle185" />
			<path
   class="st2"
   d="M861.8,519.5c0,0-4.2,4.4-4.2,10.6c0,6.2,4.2,10.6,4.2,10.6l19.4-10.6L861.8,519.5z"
   id="path187" />
			<path
   class="st9"
   d="M861.8,519.5c0,0,1-2.6-0.3,0.5c4.2,3.9,6.9,8.9,8.2,16.4l11.5-6.3L861.8,519.5z"
   id="path189" />
			<path
   class="st3"
   d="M861.8,519.5c0,0-4.2,4.4-4.2,10.6c0,6.2,4.2,10.6,4.2,10.6l19.4-10.6L861.8,519.5z"
   id="path191" />
			<path
   class="st3"
   d="M858.2,526c0,0,4,7,23,4.1"
   id="path193" />
		</g>
	</g>
</g>
</svg>
