<?xml version="1.0" encoding="UTF-8" standalone="no"?>
<svg
   xmlns:dc="http://purl.org/dc/elements/1.1/"
   xmlns:cc="http://creativecommons.org/ns#"
   xmlns:rdf="http://www.w3.org/1999/02/22-rdf-syntax-ns#"
   xmlns:svg="http://www.w3.org/2000/svg"
   xmlns="http://www.w3.org/2000/svg"
   id="svg2"
   viewBox="0 0 112.26766 129.63642"
   version="1.1"><metadata
     id="metadata8"><rdf:RDF><cc:Work
         rdf:about=""><dc:format>image/svg+xml</dc:format><dc:type
           rdf:resource="http://purl.org/dc/dcmitype/StillImage" /><dc:title></dc:title></cc:Work></rdf:RDF></metadata><defs
     id="defs6"><clipPath
       id="clipPath18"><path
         id="path20"
         d="M 0,0 H 2183.73 V 912 H 0 Z" /></clipPath><linearGradient
       gradientTransform="matrix(0.25319611,0,0,0.25319611,-21.34823,-130.52513)"
       id="b"
       y2="771.51001"
       gradientUnits="userSpaceOnUse"
       x2="527.71997"
       y1="771.51001"
       x1="84.315002"><stop
         stop-color="#4a9ea1"
         offset="0"
         id="stop883" /></linearGradient><linearGradient
       gradientTransform="matrix(0.25319611,0,0,0.25319611,-21.34823,-130.52513)"
       id="a"
       y2="771.47998"
       gradientUnits="userSpaceOnUse"
       x2="512.35999"
       y1="771.47998"
       x1="99.675003"><stop
         stop-color="#63d3d7"
         offset="0"
         id="stop886" /></linearGradient></defs><path
     style="fill-opacity:0.13018003;stroke-width:0.25319612"
     d="M 0,32.409102 56.133575,64.818204 112.26716,32.409102 56.133575,0 Z"
     id="path901" /><path
     style="fill:url(#b);stroke-width:0.25319612"
     d="M 0,97.227302 56.133575,129.6364 112.26716,97.227302 V 32.409098 L 56.133575,0.002528 0,32.41163 Z"
     id="path891" /><path
     style="fill:url(#a);stroke-width:0.25319612"
     d="M 50.339185,7.8085637 9.640445,31.306682 c 0.0813,0.722698 0.0813,1.45213 0,2.174803 l 40.70127,23.498118 c 3.43182,-2.532215 8.11316,-2.532215 11.54498,0 L 102.58798,33.481231 c -0.0813,-0.722697 -0.0818,-1.451776 -2.5e-4,-2.174448 L 61.888975,7.808665 c -3.43182,2.532214 -8.11341,2.532214 -11.54549,0 z M 106.49555,39.972066 65.751235,63.731989 c 0.47702,4.238249 -1.86381,8.292425 -5.77262,9.998461 l 0.0457,46.73494 c 0.66654,0.2909 1.29806,0.65542 1.88327,1.08722 L 102.60887,98.054747 c -0.47702,-4.23825 1.8638,-8.292679 5.77262,-9.998715 v -46.99573 c -0.66654,-0.290897 -1.29842,-0.655423 -1.88363,-1.087224 z M 5.771605,40.233237 c -0.58519,0.431801 -1.21671,0.796682 -1.88327,1.087579 v 46.99573 c 3.90884,1.705985 6.24964,5.760211 5.77262,9.998461 l 40.69874,23.498123 c 0.58519,-0.4318 1.21709,-0.79669 1.88363,-1.08758 V 73.729817 c -3.90885,-1.705985 -6.24964,-5.760212 -5.77262,-9.998461 L 5.771955,40.232225 Z"
     id="path893" /><path
     id="path10168"
     d="m 12.575395,65.165302 -6.96883,26.410304 c 0,0 37.33583,24.652374 37.33583,22.865974 0,-1.78641 0.17865,-49.438729 0.17865,-49.438729 l 7.64627,1.929219 5.34484,4.573939 6.05575,-5.073186 10.68451,1.784585 -3.65173,-0.836272 c 0,0 1.42605,29.930289 -0.95715,44.608074 l 21.85992,-9.51654 16.613565,-13.398029 -9.289305,-35.370794 -8.87293,-2.989599 -2.6904,-7.466281 2.45267,-16.340177 -28.7611,-17.1494757 -23.22325,19.2931607 3.68528,19.165658 -12.71885,-7.186846 -3.32877,9.641314 z"
     style="fill:#ffffff;fill-opacity:0.9009434;stroke:#000000;stroke-width:1px;stroke-linecap:butt;stroke-linejoin:miter;stroke-opacity:0.24528302" /><path
     style="fill-opacity:0.03921599;stroke-width:0.25319612"
     d="M 56.134085,129.63641 C 63.143465,66.53726 51.335575,62.047753 5.07e-4,32.409102 v 64.818204 z"
     id="path899" /><path
     style="fill:#f03c2e;fill-opacity:1;fill-rule:nonzero;stroke:none;stroke-width:0.07765557"
     id="path28-6"
     d="M 2.863755,91.82579 2.202145,42.45695 c 0.80413,-2.400429 3.28512,-3.418427 5.54001,-2.273191 l 16.7019,10.740478 -3.68379,10.981328 c -1.88652,0.03081 -3.57654,1.222609 -4.25872,3.256802 -0.68513,2.046324 -0.16051,4.375818 1.17517,6.03655 l -3.55074,10.583341 c -1.89762,0.01778 -3.60796,1.211114 -4.29275,3.258392 -0.95923,2.857858 0.43765,6.277738 3.12128,7.641667 2.68411,1.364362 5.63443,0.153786 6.59419,-2.705749 0.72056,-2.150571 0.10659,-4.621922 -1.38592,-6.293198 l 3.31122,-9.870546 7.8361,19.183181 c -0.33994,0.436986 -0.62011,0.948997 -0.81567,1.527842 -0.9588,2.857409 0.43784,6.276673 3.12191,7.643213 2.68322,1.36293 5.63486,0.15181 6.59239,-2.705008 0.9577,-2.860839 -0.43893,-6.280103 -3.12193,-7.643215 -0.66271,-0.336073 -1.34443,-0.516557 -2.00796,-0.55272 l -7.9083,-19.361439 c 0.44809,-0.491293 0.80816,-1.095988 1.04479,-1.805421 0.72675,-2.163601 0.10047,-4.646532 -1.40889,-6.31964 l 3.63083,-10.826156 21.29782,12.56554 c 2.25522,1.146825 3.42987,4.022681 2.624,6.42418 l -0.0526,47.582349 c -0.80496,2.40076 -3.28514,3.41844 -5.54081,2.27353 L 5.487925,98.250278 C 3.233455,97.103783 2.058455,94.227074 2.863795,91.82579" /><path
     style="fill:#f03c2e;fill-opacity:1;fill-rule:nonzero;stroke:none;stroke-width:0.07857344"
     id="path28-3"
     d="M 103.08234,34.716659 61.128285,58.671243 c -2.41414,1.379675 -6.26145,1.400006 -8.59099,0.0454 l -8.39451,-4.884362 11.05071,-6.310325 c 2.50649,0.477446 5.40812,0.133116 7.45494,-1.035864 2.05747,-1.176256 2.67843,-2.859586 1.8523,-4.313451 l 10.65085,-6.081502 c 2.51375,0.489035 5.44306,0.149032 7.50069,-1.027937 2.87661,-1.642106 2.9614,-4.27875 0.18943,-5.891542 -2.77237,-1.613208 -7.34745,-1.58903 -10.22574,0.05404 -2.163,1.236036 -2.74604,3.03702 -1.71894,4.539267 l -9.93298,5.672013 0.47467,-14.789937 c 0.69487,-0.200077 1.35314,-0.465692 1.9375,-0.797951 2.87578,-1.641924 2.96052,-4.278093 0.18944,-5.892736 -2.77198,-1.612019 -7.34913,-1.58783 -10.22294,0.05402 -2.87627,1.644488 -2.96102,4.280657 -0.18945,5.892736 0.68497,0.397783 1.48269,0.697393 2.33776,0.896494 l -0.47992,14.927211 c -0.86814,0.207557 -1.6841,0.513547 -2.39621,0.921576 -2.17855,1.243037 -2.75189,3.054944 -1.70353,4.562871 L 40.017985,51.43266 9.618505,34.591608 c -2.32906,-1.355741 -2.2578,-3.572958 0.15925,-4.952887 L 51.731375,5.6841162 c 2.41539,-1.379681 6.26144,-1.400007 8.59224,-0.04541 L 103.24158,29.763531 c 2.32829,1.355329 2.257,3.573202 -0.15924,4.953125" /><path
     style="fill:#f03c2e;fill-opacity:1;fill-rule:nonzero;stroke:none;stroke-width:0.07765557"
     id="path28"
     d="m 109.64561,91.67896 0.66161,-49.36884 c -0.80413,-2.400429 -3.28512,-3.418427 -5.54001,-2.273191 l -16.701905,10.740478 3.68379,10.981328 c 1.88652,0.03081 3.57654,1.222609 4.25872,3.256802 0.68513,2.046324 0.16051,4.375818 -1.17517,6.03655 l 3.55074,10.583341 c 1.897615,0.01778 3.607955,1.211114 4.292755,3.258392 0.95923,2.857858 -0.43765,6.277738 -3.121285,7.641667 -2.68411,1.364362 -5.63443,0.153786 -6.59419,-2.705749 -0.72056,-2.150571 -0.10659,-4.621922 1.38592,-6.293198 l -3.31122,-9.870546 -7.8361,19.183181 c 0.33994,0.436986 0.62011,0.948997 0.81567,1.527842 0.9588,2.857409 -0.43784,6.276673 -3.12191,7.643213 -2.68322,1.36293 -5.63486,0.15181 -6.59239,-2.705008 -0.9577,-2.860839 0.43893,-6.280103 3.12193,-7.643215 0.66271,-0.336073 1.34443,-0.516557 2.00796,-0.55272 l 7.9083,-19.361439 c -0.44809,-0.491293 -0.80816,-1.095988 -1.04479,-1.805421 -0.72675,-2.163601 -0.10047,-4.646532 1.40889,-6.31964 l -3.63083,-10.826156 -21.29782,12.56554 c -2.25522,1.146825 -3.42987,4.022681 -2.624,6.42418 l 0.0526,47.582349 c 0.80496,2.40076 3.28514,3.41844 5.54081,2.27353 L 107.02144,98.103448 c 2.25447,-1.146495 3.42947,-4.023204 2.62413,-6.424488" /><path
     style="fill-opacity:0.25097997;stroke-width:0.25319612"
     d="M 56.134085,129.63641 112.26767,97.227306 V 32.409102 L 56.134085,64.818204 Z"
     id="path897" /></svg>
