<?xml version="1.0" encoding="UTF-8" standalone="no"?>
<svg xmlns:dc="http://purl.org/dc/elements/1.1/" xmlns:cc="http://creativecommons.org/ns#" xmlns:rdf="http://www.w3.org/1999/02/22-rdf-syntax-ns#" xmlns:svg="http://www.w3.org/2000/svg" xmlns="http://www.w3.org/2000/svg" xmlns:sodipodi="http://sodipodi.sourceforge.net/DTD/sodipodi-0.dtd" xmlns:inkscape="http://www.inkscape.org/namespaces/inkscape" viewBox="0 0 159.33962 232.51421" id="svg2" version="1.1" inkscape:version="0.48.0 r9654" width="100%" height="100%" sodipodi:docname="plum.svg">
  <defs id="defs20">
    <inkscape:perspective sodipodi:type="inkscape:persp3d" inkscape:vp_x="0 : 145.5 : 1" inkscape:vp_y="0 : 1000 : 0" inkscape:vp_z="301 : 145.5 : 1" inkscape:persp3d-origin="150.5 : 97 : 1" id="perspective22" />
  </defs>
  <sodipodi:namedview pagecolor="#ffffff" bordercolor="#666666" borderopacity="1" objecttolerance="10" gridtolerance="10" guidetolerance="10" inkscape:pageopacity="0" inkscape:pageshadow="2" inkscape:window-width="1024" inkscape:window-height="743" id="namedview18" showgrid="false" inkscape:zoom="2.3505155" inkscape:cx="142.3347" inkscape:cy="68.642457" inkscape:window-x="0" inkscape:window-y="0" inkscape:window-maximized="1" inkscape:current-layer="svg2" fit-margin-top="0" fit-margin-left="0" fit-margin-right="0" fit-margin-bottom="0" />
  <metadata id="metadata4">
    <rdf:RDF>
      <cc:Work rdf:about="">
        <dc:title>Plum</dc:title>
        <dc:description />
        <dc:subject>
          <rdf:Bag>
            <rdf:li>unsorted</rdf:li>
          </rdf:Bag>
        </dc:subject>
        <dc:publisher>
          <cc:Agent rdf:about="http://www.openclipart.org/">
            <dc:title>Open Clip Art Library</dc:title>
          </cc:Agent>
        </dc:publisher>
        <dc:creator>
          <cc:Agent>
            <dc:title>Nicholas Edward Matavka</dc:title>
          </cc:Agent>
        </dc:creator>
        <dc:rights>
          <cc:Agent>
            <dc:title />
          </cc:Agent>
        </dc:rights>
        <dc:date />
        <dc:format>image/svg+xml</dc:format>
        <dc:type rdf:resource="http://purl.org/dc/dcmitype/StillImage" />
        <cc:license rdf:resource="http://web.resource.org/cc/PublicDomain" />
        <dc:language>en</dc:language>
      </cc:Work>
      <cc:License rdf:about="http://web.resource.org/cc/PublicDomain">
        <cc:permits rdf:resource="http://web.resource.org/cc/Reproduction" />
        <cc:permits rdf:resource="http://web.resource.org/cc/Distribution" />
        <cc:permits rdf:resource="http://web.resource.org/cc/DerivativeWorks" />
      </cc:License>
    </rdf:RDF>
  </metadata>
  <path d="m 58.163942,40.243193 c -47.6315,0.1314 -64.8557,53.2415 -55.87731,92.999997 2.37175,10.503 8.41851,21.212 12.87651,31 12.3152,27.04 26.3733,54.113 56.0008,64.76 13.0648,4.695 28.948118,3.84235 38.999998,2.24 14.30658,-2.28059 28.39164,-16.00261 39.61842,-31.04177 3.93008,-5.26466 8.47233,-21.49852 9.38158,-42.95823 1.64857,-38.90874 -8.099,-73.072697 -38,-100.169797 -7.849,-7.1128 -14.794,-13.6382 -24.999998,-17.2831 -9.0703,-3.2392 -18.537,-2.5471 -28,-2.5471 0,-7.4799 0.1233,-14.6801 1.8981,-22 0.8728,-3.5992 3.0963,-8.1810296 0.919,-11.7214696 -3.368,-5.476803 -22.813,-4.553036 -23.8958,2.6829 -0.5254,3.51137 7.8474,6.9088696 9.5062,10.1288696 3.3844,6.5696 1.5725,16.7218 1.5725,23.9097 z" id="path8" sodipodi:nodetypes="csssssssscssssc" inkscape:connector-curvature="0" style="fill:black;stroke:none" />
  <path d="m 49.163942,5.2431934 0,2 c 13.6428,6.8002996 11,19.9119996 11,32.9999996 l 6,1 c 0,-8.4112 -0.4224,-16.741 1.4252,-25 0.7154,-3.1982 3.3506,-8.3933396 1.3557,-11.4861096 -3.5899,-5.56522105 -15.2557,-1.46082 -19.7809,0.48611 z" id="path10" inkscape:connector-curvature="0" style="fill:olive;stroke:none" />
  <path d="m 68.163942,39.243193 14,12.598 18.999998,17.402 -2.999998,1 c -12.5967,-25.0283 -46.9539,-35.9023 -70,-19.3627 -13.8482,9.9386 -20.23803,26.4532 -24.10185,42.3627 -5.8955618,24.274997 1.74518,42.998997 11.10185,64.999997 6.3214,14.864 12.9372,29.855 22.49,43 12.3143,16.945 32.2137,28.777 53.51,28.996 4.2318,0.044 13.973998,0.688 17.396998,-2.024 2.396,-1.898 13.59516,-6.50663 15.6796,-8.27025 11.665,-9.86962 20.0342,-10.85934 29.55936,-36.17296 2.06031,-5.47538 2.57679,-19.1496 2.79504,-27.54379 0.32536,-12.51391 0.17,-26.158 -2.55,-37.985 -9.775,-42.510097 -40.197,-78.999997 -85.880998,-78.999997" id="path3606" style="fill:#636;fill-opacity:1" sodipodi:nodetypes="ccccsssscsssscc" inkscape:connector-curvature="0" />
</svg>
