<?xml version="1.0" standalone="no"?>
<!--Generator: Adobe Illustrator 9.0, SVG Export Plug-In-->
<svg xmlns="http://www.w3.org/2000/svg" xmlns:xlink="http://www.w3.org/1999/xlink" viewBox="0 0 48.000000 48.000000">
  <metadata/>
  <defs>
    <radialGradient gradientUnits="userSpaceOnUse" fy="16.7095" fx="19.5713" r="21.0888" cy="16.7095" cx="19.5713" id="a">
      <stop offset="0" stop-color="#d5d690"/>
      <stop offset="0.2202" stop-color="#cfd08c"/>
      <stop offset="0.4404" stop-color="#bfbf80"/>
      <stop offset="0.6607" stop-color="#a4a46d"/>
      <stop offset="0.8799" stop-color="#828257"/>
      <stop offset="0.927" stop-color="#7a7a52"/>
      <stop offset="1" stop-color="#9c9c68"/>
    </radialGradient>
    <radialGradient xlink:href="#a" id="o" gradientUnits="userSpaceOnUse" cx="19.571301" cy="16.709499" fx="19.571301" fy="16.709499" r="21.088800" gradientTransform="matrix(0.750000,0.000000,0.000000,0.750000,11.20206,12.00105)"/>
    <radialGradient gradientUnits="userSpaceOnUse" fy="15.0728" fx="17.0264" r="24.3844" cy="15.0728" cx="17.0264" id="b">
      <stop offset="0" stop-color="#d5d690"/>
      <stop offset="0.2202" stop-color="#cfd08c"/>
      <stop offset="0.4404" stop-color="#bfbf80"/>
      <stop offset="0.6607" stop-color="#a4a46d"/>
      <stop offset="0.8799" stop-color="#828257"/>
      <stop offset="0.927" stop-color="#7a7a52"/>
      <stop offset="1" stop-color="#9c9c68"/>
    </radialGradient>
    <radialGradient xlink:href="#b" id="n" gradientUnits="userSpaceOnUse" cx="17.026400" cy="15.072800" fx="17.026400" fy="15.072800" r="24.384399" gradientTransform="matrix(0.750000,0.000000,0.000000,0.750000,11.20206,12.00105)"/>
    <radialGradient gradientUnits="userSpaceOnUse" fy="15.2314" fx="17.7881" r="29.6346" cy="15.2314" cx="17.7881" id="c">
      <stop offset="0" stop-color="#99bba8"/>
      <stop offset="4.483276e-002" stop-color="#94b8a9"/>
      <stop offset="9.596599e-002" stop-color="#87b0a9"/>
      <stop offset="0.1502" stop-color="#72a1a9"/>
      <stop offset="0.2065" stop-color="#538fa8"/>
      <stop offset="0.264" stop-color="#2e79a7"/>
      <stop offset="0.2865" stop-color="#1d70a5"/>
      <stop offset="0.8539" stop-color="#190f50"/>
      <stop offset="1" stop-color="#585287"/>
    </radialGradient>
    <radialGradient xlink:href="#c" id="m" gradientUnits="userSpaceOnUse" cx="17.788099" cy="15.231400" fx="17.788099" fy="15.231400" r="29.634600" gradientTransform="matrix(0.699434,-2.397680e-16,2.397680e-16,0.699434,12.10153,12.77124)"/>
    <radialGradient xlink:href="#d" id="l" gradientUnits="userSpaceOnUse" cx="19.5688" cy="15.2549" fx="19.5688" fy="15.2549" r="28.1322" gradientTransform="matrix(0.750000,0.000000,0.000000,0.750000,11.20206,12.00105)"/>
    <radialGradient xlink:href="#e" id="i" gradientUnits="userSpaceOnUse" cx="7.8247" cy="30.7285" fx="7.8247" fy="30.7285" r="1.247"/>
    <radialGradient xlink:href="#f" id="j" gradientUnits="userSpaceOnUse" cx="7.8247" cy="18.8711" fx="7.8247" fy="18.8711" r="1.247"/>
    <linearGradient id="d" gradientUnits="userSpaceOnUse" x1="12.138700" y1="7.7627001" x2="31.453899" y2="41.316399">
      <stop offset="0" stop-color="#f0f0f0"/>
      <stop offset="1" stop-color="#d6d6d6"/>
    </linearGradient>
    <linearGradient id="g" gradientUnits="userSpaceOnUse" x1="10.019500" y1="7.5537000" x2="9.5965004" y2="41.082100">
      <stop offset="0" stop-color="#ededed"/>
      <stop offset="1" stop-color="#cacaca"/>
    </linearGradient>
    <linearGradient xlink:href="#g" id="k" gradientUnits="userSpaceOnUse" x1="10.0195" y1="7.5537" x2="9.5965" y2="41.0821" gradientTransform="translate(-0.318179,-0.911156)"/>
    <linearGradient xlink:href="#d" id="h" gradientUnits="userSpaceOnUse" x1="12.1387" y1="7.7627" x2="31.4539" y2="41.3164" gradientTransform="matrix(1.000000,0.000000,0.000000,1.010939,-0.318179,-0.954913)"/>
  </defs>
  <path style="marker:none" d="M 42.5 37 A 19.125 5.25 0 1 1  4.25,37 A 19.125 5.25 0 1 1  42.5 37 z" transform="matrix(0.729077,0,0,0.848125,12.57284,11.58696)" opacity=".2" color="#000" fill="#000" fill-opacity="1" fill-rule="nonzero" stroke="none" stroke-width="1.25" stroke-linecap="butt" stroke-linejoin="miter" marker-start="none" marker-mid="none" marker-end="none" stroke-miterlimit="4" stroke-dashoffset="0" stroke-opacity="1" visibility="visible" display="inline" overflow="visible"/>
  <path d="M 37.881821,39.078272 C 37.881821,40.695774 36.581821,41.908901 35.081821,41.908901 L 7.5818210,41.908901 C 5.9818210,41.908901 4.7818210,40.594680 4.7818210,39.078272 L 4.7818210,7.9413507 C 4.7818210,6.3238483 6.0818210,5.1107215 7.5818210,5.1107215 L 35.081821,5.1107215 C 36.681821,5.1107215 37.881821,6.4249422 37.881821,7.9413507 L 37.881821,39.078272 L 37.881821,39.078272 z " fill="none" fill-rule="nonzero" stroke="#000" stroke-width="3.9999998" stroke-miterlimit="4" stroke-dasharray="none" stroke-opacity="1"/>
  <path d="M 37.881821,39.078278 C 37.881821,40.695780 36.581821,41.908907 35.081821,41.908907 L 7.5818210,41.908907 C 5.9818210,41.908907 4.7818210,40.594687 4.7818210,39.078278 L 4.7818210,7.9413519 C 4.7818210,6.3238493 6.0818210,5.1107223 7.5818210,5.1107223 L 35.081821,5.1107223 C 36.681821,5.1107223 37.881821,6.4249432 37.881821,7.9413519 L 37.881821,39.078278 L 37.881821,39.078278 z " fill="url(#h)" fill-rule="nonzero" stroke="none" stroke-miterlimit="4"/>
  <g transform="translate(-0.318179,-0.911156)" fill="#fff" fill-rule="nonzero" stroke="#000" stroke-miterlimit="4">
    <radialGradient id="e" cx="7.8246999" cy="30.728500" r="1.2470000" fx="7.8246999" fy="30.728500" gradientUnits="userSpaceOnUse">
      <stop offset="0" stop-color="#f0f0f0"/>
      <stop offset="1" stop-color="#474747"/>
    </radialGradient>
    <path d="M 8.4000000,30.400000 C 8.4000000,30.900000 8.0000000,31.200000 7.6000000,31.200000 C 7.2000000,31.200000 6.8000000,30.800000 6.8000000,30.400000 C 6.8000000,30.000000 7.2000000,29.600000 7.6000000,29.600000 C 8.0000000,29.600000 8.4000000,30.000000 8.4000000,30.400000 z " fill="url(#i)" stroke="none"/>
    <radialGradient id="f" cx="7.8246999" cy="18.871099" r="1.2470000" fx="7.8246999" fy="18.871099" gradientUnits="userSpaceOnUse">
      <stop offset="0" stop-color="#f0f0f0"/>
      <stop offset="1" stop-color="#474747"/>
    </radialGradient>
    <path d="M 8.4000000,18.500000 C 8.4000000,19.000000 8.0000000,19.300000 7.6000000,19.300000 C 7.2000000,19.300000 6.7000000,19.000000 6.7000000,18.500000 C 6.7000000,18.000000 7.1000000,17.700000 7.5000000,17.700000 C 7.9000000,17.700000 8.3000000,18.100000 8.3000000,18.500000 L 8.4000000,18.500000 z " fill="url(#j)" stroke="none"/>
  </g>
  <path d="M 10.081821,41.488844 L 9.6818210,41.488844 L 9.6818210,5.6888440 L 10.081821,5.6888440 L 10.081821,41.488844 z " fill="#fff" fill-rule="nonzero" stroke="none" stroke-miterlimit="4"/>
  <path d="M 9.6818210,41.488844 L 9.2818210,41.488844 L 9.2818210,5.6888440 L 9.6818210,5.6888440 L 9.6818210,41.488844 z " fill="url(#k)" fill-rule="nonzero" stroke="none" stroke-miterlimit="4"/>
  <path d="M 5.9818210,8.8888440 L 5.3818210,40.488844 C 4.8818210,39.988844 4.6818210,38.988844 4.6818210,38.988844 L 4.6818210,7.7888440 C 4.6818210,7.7888440 4.6818210,6.9888440 5.3818210,6.0888440 C 6.0818210,5.1888440 7.3818210,5.0888440 7.3818210,5.0888440 L 35.381821,5.0888440 L 8.4818210,6.3888440 C 7.3818210,6.3888440 6.7818210,6.8888440 6.5818210,7.1888440 C 6.3818210,7.3888440 5.9818210,8.1888440 5.9818210,8.8888440 L 5.9818210,8.8888440 z " fill="#fff" fill-rule="nonzero" stroke="none" stroke-miterlimit="4"/>
  <path d="M 36.681821,38.042396 L 37.281821,6.4423972 C 37.781821,6.9423972 37.881821,7.8423975 37.881821,7.8423975 L 37.881821,39.142396 C 37.881821,39.142396 37.881821,39.942396 37.181821,40.842396 C 36.381821,41.742396 35.181821,41.842396 35.181821,41.842396 L 7.1818210,41.842396 L 34.081821,40.542396 C 35.181821,40.542396 35.781821,40.042396 35.981821,39.742396 C 36.181821,39.542396 36.581821,38.742396 36.581821,38.042396 L 36.681821,38.042396 z " fill="#bebebe" fill-rule="nonzero" stroke="none" stroke-miterlimit="4"/>
  <path d="M 14.502068,29.851050 C 14.502068,38.026050 21.102068,44.626050 29.277068,44.626050 C 37.452068,44.626050 44.052068,38.026050 44.052068,29.851050 C 44.052068,21.676050 37.452068,15.076050 29.277068,15.076050 C 21.102068,15.076050 14.502068,21.676050 14.502068,29.851050 L 14.502068,29.851050 z " fill="url(#l)" fill-rule="evenodd" stroke="#000" stroke-width="3.1079249" stroke-miterlimit="4"/>
  <path d="M 14.502068,29.851050 C 14.502068,38.026050 21.102068,44.626050 29.277068,44.626050 C 37.452068,44.626050 44.052068,38.026050 44.052068,29.851050 C 44.052068,21.676050 37.452068,15.076050 29.277068,15.076050 C 21.102068,15.076050 14.502068,21.676050 14.502068,29.851050 L 14.502068,29.851050 z " fill="url(#m)" fill-opacity="1" fill-rule="evenodd" stroke="none" stroke-miterlimit="4"/>
  <path d="M 27.402068,21.001050 L 30.927068,24.001050 L 32.577068,21.076050 L 34.977068,23.701050 L 30.852068,26.101050 L 30.327068,29.701050 L 31.152068,31.201050 L 30.327068,31.201050 L 29.277068,29.701050 L 25.902068,29.701050 L 24.627068,31.951050 L 27.927068,33.901050 L 32.727068,36.676050 L 28.752068,39.976050 L 28.752068,43.276050 L 25.752068,36.376050 L 26.952068,34.276050 L 23.427068,31.951050 L 23.427068,29.026050 L 21.777068,23.026050 L 19.827068,21.901050 L 20.052068,19.801050 L 22.827068,18.001050 L 22.827068,20.326050 L 27.402068,21.001050 z " fill="url(#n)" fill-opacity="1" fill-rule="evenodd" stroke="none" stroke-miterlimit="4"/>
  <path d="M 37.677068,19.276050 L 37.677068,21.151050 L 38.727068,23.026050 L 38.727068,25.951050 L 40.377068,26.926050 L 40.602068,25.051050 L 39.627068,23.251050 L 41.052068,23.251050 L 37.677068,19.276050 z " fill="url(#o)" fill-opacity="1" fill-rule="evenodd" stroke="none" stroke-miterlimit="4"/>
  <path d="M 47.202068,48.001050 L 11.202067,48.001050 L 11.202067,12.001050 L 47.202068,12.001050 L 47.202068,48.001050 z " fill="none" fill-rule="nonzero" stroke="none" stroke-miterlimit="4"/>
</svg>
