<?xml version="1.0" encoding="UTF-8" standalone="no"?>
<svg
   xmlns:dc="http://purl.org/dc/elements/1.1/"
   xmlns:cc="http://creativecommons.org/ns#"
   xmlns:rdf="http://www.w3.org/1999/02/22-rdf-syntax-ns#"
   xmlns="http://www.w3.org/2000/svg"
   xmlns:xlink="http://www.w3.org/1999/xlink"
   version="1.0" width="1000" height="600">
  <metadata>
    <rdf:RDF>
      <cc:Work rdf:about="">
        <dc:format>image/svg+xml</dc:format>
        <dc:type rdf:resource="http://purl.org/dc/dcmitype/StillImage" />
      </cc:Work>
    </rdf:RDF>
  </metadata>
  <rect style="fill:#ffe000" width="1000" height="600" />
  <polygon points="0,-58 -50.229473,29 50.229473,29 0,-58" transform="matrix(2.5308106,0,0,2.5308106,499.99997,299.67164)"
     id="triangle" />
  <use transform="matrix(-1,0,0,-1,999.99993,599.34339)" width="440" height="320" xlink:href="#triangle" />
  <g style="fill:#ffe000">
  <path  d="M 493.85746,289.08439 L 480.71559,263.42835 L 430.8409,291.31507 C 430.92254,295.78385 429.36987,298.31507 432.84496,306.85601 L 461.77153,358.73476 L 461.9606,358.62132 C 466.20188,367.68847 472.383,374.33083 483.89185,374.31351 L 484.6859,373.9732 L 508.65903,453.68195 L 601.33747,396.32039 L 558.53372,341.34101 L 572.6756,301.22195 L 569.27247,302.99914 L 549.93137,269.27039 L 493.85746,289.08439 z"/>
  <g style="stroke:#000000;stroke-width:2.56358123;stroke-miterlimit:4;stroke-dasharray:none;stroke-opacity:1"  transform="matrix(0.8697468,-0.4934982,0.5043594,0.8634938,0,0)">
  <rect width="27.368599" height="62.878998" x="225.28014" y="453.4733" />
  <rect width="27.368599" height="62.878998" x="252.71104" y="453.51956"/>
  <rect width="27.368599" height="62.878998" x="280.14185" y="453.56573"/>
  <rect width="27.368599" height="62.878998" x="306.94885" y="453.10461"/>
  </g>
  <rect style="stroke:#000000;stroke-width:2.5503459;stroke-miterlimit:4;stroke-dasharray:none;stroke-opacity:1"
     width="66.786331" height="29.885384" x="278.6452" y="483.11853"
     transform="matrix(0.8660254,-0.5,0.5,0.8660254,0,0)" />
  <path d="M545.83461,258.27627L518.10282,281.02468L540.14948,320.70374C551.20578,314.05856 561.6728,311.95247 572.72912,301.25927z"/>
  </g>
  <path style="fill:none;fill-rule:evenodd;stroke:#000000;stroke-width:2.42000008;stroke-linecap:butt;stroke-linejoin:miter;stroke-miterlimit:4;stroke-dasharray:none;stroke-opacity:1"
     d="M 507.49606,328.54134L526.13893,294.59242C525.95723,294.3749 525.77556,294.15737 525.59386,293.93987C525.0827,293.32788 524.89554,292.68212 524.62159,292.13422C524.30114,291.49328 523.94983,290.90688 523.78822,290.74525"/>
</svg>
