<?xml version="1.0" standalone="no"?>
<!--Created with Inkscape (http://www.inkscape.org/)-->
<svg xmlns="http://www.w3.org/2000/svg" xmlns:xlink="http://www.w3.org/1999/xlink" viewBox="0 0 48 48">
  <defs>
    <linearGradient id="e">
      <stop offset="0" stop-color="white" stop-opacity="1"/>
      <stop offset="1" stop-color="white" stop-opacity=".38431373"/>
    </linearGradient>
    <linearGradient id="d">
      <stop offset="0.0000000" stop-color="#000" stop-opacity=".26041666"/>
      <stop offset="1" stop-color="#000" stop-opacity="0"/>
    </linearGradient>
    <linearGradient id="c">
      <stop offset="0" stop-color="#000" stop-opacity=".588"/>
      <stop offset="1" stop-color="#000" stop-opacity="0"/>
    </linearGradient>
    <linearGradient id="b">
      <stop offset="0" stop-color="#d1dc1f" stop-opacity="1"/>
      <stop offset="1" stop-color="#a6af17" stop-opacity="1"/>
    </linearGradient>
    <linearGradient id="a">
      <stop offset="0" stop-color="#fff" stop-opacity=".86799997"/>
      <stop offset="1" stop-color="#fff" stop-opacity="0"/>
    </linearGradient>
    <linearGradient xlink:href="#a" id="i" gradientUnits="userSpaceOnUse" gradientTransform="matrix(0.781904,2.230769e-2,-1.447595e-2,0.792093,-10.1239,-18.48409)" x1="39.072777" y1="12.679243" x2="48.6469" y2="66.242584"/>
    <linearGradient xlink:href="#b" id="h" gradientUnits="userSpaceOnUse" gradientTransform="matrix(0.776274,2.136895e-2,-1.43717e-2,0.758761,-10.30148,-16.6402)" x1="37.520218" y1="46.576817" x2="43.730457" y2="74.78167"/>
    <linearGradient xlink:href="#c" id="g" x1="64.104416" y1="179.75201" x2="68.312668" y2="83.493263" gradientUnits="userSpaceOnUse" gradientTransform="matrix(0.410725,0,0,0.46743,-1.516468,-4.267947)"/>
    <radialGradient xlink:href="#d" id="f" cx="51.752022" cy="99.018867" fx="51.752022" fy="99.018867" r="47.094337" gradientTransform="matrix(1,0,0,0.175824,2.241263e-15,81.60896)" gradientUnits="userSpaceOnUse"/>
    <linearGradient xlink:href="#e" id="j" x1="67.536385" y1="20.097036" x2="67.536385" y2="86.082893" gradientUnits="userSpaceOnUse" gradientTransform="matrix(0.424599,0,0,0.429368,-4.38456,-1.968158)"/>
  </defs>
  <metadata/>
  <path style="marker:none" d="M 98.846359 99.018867 A 47.094337 8.280323 0 1 1  4.6576843,99.018867 A 47.094337 8.280323 0 1 1  98.846359 99.018867 z" transform="matrix(0.410725,0,0,0.49137,7.401327,-4.66397)" opacity="1" color="#000" fill="url(#f)" fill-opacity="1" fill-rule="evenodd" stroke="none" stroke-width="2.99999905" stroke-linecap="round" stroke-linejoin="round" marker-start="none" marker-mid="none" marker-end="none" stroke-miterlimit="4" stroke-dasharray="none" stroke-dashoffset="0" stroke-opacity="1" visibility="visible" display="inline" overflow="visible"/>
  <path d="M 43.393734,36.274216 C 50.042449,37.561067 42.968765,43.603598 33.433487,44.782518 C 23.89821,45.961438 1.7136132,42.044538 3.7579196,40.298238 C 5.8027116,38.551519 36.745017,34.987354 43.393734,36.274216 z " fill="url(#g)" fill-opacity="1" fill-rule="evenodd" stroke="none" stroke-width="3.40687418" stroke-linecap="butt" stroke-linejoin="miter" stroke-miterlimit="4" stroke-dasharray="none" stroke-opacity="1"/>
  <path d="M 35.74069,5.7187267 C 43.781986,11.438089 43.273312,38.293768 35.024443,43.533415 C 26.775571,48.773052 0.35360365,31.364606 0.50061124,23.603268 C 0.6476537,15.840089 27.699394,-0.00063700575 35.74069,5.7187267 z " fill="url(#h)" fill-opacity="1" fill-rule="evenodd" stroke="#777f00" stroke-width=".99999994" stroke-linecap="butt" stroke-linejoin="miter" stroke-miterlimit="4" stroke-dasharray="none" stroke-opacity="1"/>
  <path d="M 35.231339,6.1848146 C 42.774215,11.745027 40.678414,26.733499 40.872727,29.79788 C 28.567703,7.8973568 2.0376286,31.117058 2.1755241,23.571691 C 2.3134531,16.024535 27.688462,0.6246008 35.231339,6.1848146 z " fill="url(#i)" fill-opacity="1" fill-rule="evenodd" stroke="none" stroke-width="2" stroke-linecap="butt" stroke-linejoin="miter" stroke-miterlimit="4" stroke-dasharray="none" stroke-opacity="1"/>
  <path d="M 34.934013,6.2383739 C 41.968245,10.345194 42.739683,37.788308 34.913701,42.630742 C 27.08772,47.473177 1.3610928,30.828906 1.5005644,23.655946 C 1.640069,16.48128 27.821787,2.0860177 34.934013,6.2383739 z " fill="none" fill-opacity="1" fill-rule="evenodd" stroke="url(#j)" stroke-width="1.00000024" stroke-linecap="butt" stroke-linejoin="miter" stroke-miterlimit="4" stroke-dasharray="none" stroke-opacity="1"/>
</svg>
