<?xml version="1.0" standalone="no"?>
<!--Created with Inkscape (http://www.inkscape.org/)-->
<svg xmlns="http://www.w3.org/2000/svg" xmlns:xlink="http://www.w3.org/1999/xlink" viewBox="0 0 48 48">
  <defs>
    <linearGradient id="f">
      <stop offset="0" stop-color="white" stop-opacity=".7081545"/>
      <stop offset="1" stop-color="white" stop-opacity="0"/>
    </linearGradient>
    <linearGradient id="e">
      <stop offset="0" stop-color="white" stop-opacity="1"/>
      <stop offset="1" stop-color="white" stop-opacity=".53725493"/>
    </linearGradient>
    <linearGradient id="c">
      <stop offset="0" stop-color="#000" stop-opacity=".46000001"/>
      <stop offset="1" stop-color="#000" stop-opacity="0"/>
    </linearGradient>
    <linearGradient id="b">
      <stop offset="0" stop-color="#fff" stop-opacity="1"/>
      <stop offset="1" stop-color="#fff" stop-opacity="0"/>
    </linearGradient>
    <linearGradient id="a">
      <stop offset="0.0000000" stop-color="#000" stop-opacity=".26041666"/>
      <stop offset="1" stop-color="#000" stop-opacity="0"/>
    </linearGradient>
    <linearGradient id="d">
      <stop offset="0" stop-color="#d1dc1f" stop-opacity="1"/>
      <stop offset="1" stop-color="#a6af17" stop-opacity="1"/>
    </linearGradient>
    <radialGradient xlink:href="#a" id="h" gradientUnits="userSpaceOnUse" gradientTransform="matrix(1,0,0,0.175824,-6.386555e-14,81.60896)" cx="51.752022" cy="99.018867" fx="51.752022" fy="99.018867" r="47.094337"/>
    <linearGradient xlink:href="#b" x1="-4.8199644" y1="44.156403" x2="86.398415" y2="61.867584" gradientUnits="userSpaceOnUse"/>
    <linearGradient xlink:href="#c" id="g" x1="73.487869" y1="154.91104" x2="78.663643" y2="89.624825" gradientUnits="userSpaceOnUse" gradientTransform="matrix(0.375733,0,0,0.396985,-1.280168,-1.527065)"/>
    <linearGradient xlink:href="#d" id="i" gradientUnits="userSpaceOnUse" gradientTransform="matrix(2.024998e-2,0.717685,0.71903,-1.3287e-2,-15.486,-4.439)" x1="37.520218" y1="46.576817" x2="43.730457" y2="74.78167"/>
    <linearGradient xlink:href="#e" id="j" x1="16.1719" y1="43.000015" x2="28.495985" y2="13.567402" gradientUnits="userSpaceOnUse" gradientTransform="matrix(1.088236,0,0,-1.088235,-0.441177,52.79412)"/>
    <linearGradient xlink:href="#f" id="k" x1="21.163227" y1="7.0241718" x2="21.163227" y2="25.576252" gradientUnits="userSpaceOnUse"/>
  </defs>
  <metadata/>
  <path d="M 23.025975,43.739905 C 23.025975,43.739905 45.193177,40.247297 44.998728,36.54924 C 44.804279,32.85118 11.359026,33.672971 11.553476,36.343792 C 11.747924,39.014611 17.1925,44.150802 23.025975,43.739905 z " fill="url(#g)" fill-opacity="1" fill-rule="evenodd" stroke="none" stroke-width=".25pt" stroke-linecap="butt" stroke-linejoin="miter" stroke-opacity="1"/>
  <path style="marker:none" d="M 98.846359 99.018867 A 47.094337 8.280323 0 1 1  4.6576843,99.018867 A 47.094337 8.280323 0 1 1  98.846359 99.018867 z" transform="matrix(-0.366142,0,0,0.390908,41.27074,5.055885)" opacity="1" color="#000" fill="url(#h)" fill-opacity="1" fill-rule="evenodd" stroke="none" stroke-width="2.99999905" stroke-linecap="round" stroke-linejoin="round" marker-start="none" marker-mid="none" marker-end="none" stroke-miterlimit="4" stroke-dasharray="none" stroke-dashoffset="0" stroke-opacity="1" visibility="visible" display="inline" overflow="visible"/>
  <path d="M 5.7021507,38.128131 C 11.122036,45.562507 36.571503,45.092225 41.536789,37.465941 C 46.502071,29.839656 30.005158,5.4118939 22.650222,5.5478029 C 15.293537,5.6837459 0.28226419,30.693753 5.7021507,38.128131 z " fill="url(#i)" fill-opacity="1" fill-rule="evenodd" stroke="#777f00" stroke-width="1.09447634" stroke-linecap="butt" stroke-linejoin="miter" stroke-miterlimit="4" stroke-dasharray="none" stroke-opacity="1"/>
  <path d="M 6.6148613,37.429251 C 11.756803,44.482379 35.901172,44.036214 40.611825,36.801022 C 45.322478,29.565826 29.67156,6.3907679 22.693801,6.5197109 C 15.714383,6.6486799 1.4729167,30.376125 6.6148613,37.429251 z " fill="none" fill-opacity="1" fill-rule="evenodd" stroke="url(#j)" stroke-width="1.03834951" stroke-linecap="butt" stroke-linejoin="miter" stroke-miterlimit="4" stroke-dasharray="none" stroke-opacity="1"/>
  <path d="M 22.65625,6 C 18.601942,6.074919 12.196349,13.903217 8.3125,22 C 17.673278,15.554746 27.984264,18.849119 38.28125,22 C 33.937817,13.852136 26.806225,5.9233142 22.65625,6 z " fill="url(#k)" fill-opacity="1" fill-rule="evenodd" stroke="none" stroke-width="1.09447634" stroke-linecap="butt" stroke-linejoin="miter" stroke-miterlimit="4" stroke-dasharray="none" stroke-opacity="1"/>
</svg>
