<?xml version="1.0" standalone="no"?>
<!--Generator: Adobe Illustrator 9.0, SVG Export Plug-In-->
<svg xmlns="http://www.w3.org/2000/svg" xmlns:xlink="http://www.w3.org/1999/xlink" viewBox="0 0 48.000000 48.000000">
  <metadata/>
  <defs>
    <linearGradient id="c">
      <stop offset="0.0000000" stop-color="#8e8e8e" stop-opacity="1"/>
      <stop offset="1.0000000" stop-color="#4f4f4f" stop-opacity="1"/>
    </linearGradient>
    <linearGradient id="a">
      <stop offset="0" stop-color="#000" stop-opacity="1"/>
      <stop offset="1" stop-color="#000" stop-opacity="0"/>
    </linearGradient>
    <linearGradient y2="31.762800" x2="29.741400" y1="12.414100" x1="36.964802" gradientUnits="userSpaceOnUse" id="b">
      <stop offset="0.0000000" stop-color="#fff" stop-opacity="1"/>
      <stop offset="1.0000000" stop-color="#898989" stop-opacity="1"/>
    </linearGradient>
    <radialGradient xlink:href="#a" id="d" gradientTransform="matrix(1.388988,0.000000,0.000000,0.432715,4.354712e-2,5.893250)" cx="19.464468" cy="68.900490" fx="19.586004" fy="69.282059" r="28.732370" gradientUnits="userSpaceOnUse"/>
    <linearGradient xlink:href="#b" id="f" gradientUnits="userSpaceOnUse" gradientTransform="matrix(0.970766,0.000000,0.000000,0.970766,-6.519370,0.766648)" x1="26.921186" y1="35.334142" x2="21.758014" y2="6.6537625"/>
    <linearGradient gradientUnits="userSpaceOnUse" y2="44.644531" x2="32.788883" y1="17.127062" x1="8.0119495" gradientTransform="scale(1.169712,0.854912)" id="e" xlink:href="#c"/>
  </defs>
  <path d="M 33.943564,44.256909 C 30.157580,44.839368 6.4709208,37.849863 4.5293914,35.714179 C 2.5878612,33.578497 12.975044,30.569127 17.925945,30.180822 C 22.876845,29.792515 44.701812,33.869726 47.322875,36.587867 C 49.846865,39.306011 37.729546,43.674451 33.943564,44.353986 L 33.943564,44.256909 z " opacity=".34999999" fill="url(#d)" fill-opacity="1" fill-rule="nonzero" stroke="none" stroke-miterlimit="4"/>
  <path d="M 29.981384,9.6976847 C 29.301849,10.085991 28.719391,10.474297 28.331085,10.474297 C 27.942778,10.474297 26.486631,10.183067 25.515865,9.8918385 C 21.924036,9.1152257 16.973136,7.9503081 14.060842,9.0181489 C 12.895925,9.5035320 11.633930,10.862601 10.274858,13.289515 C 9.6924011,13.192437 9.0128648,13.095362 9.0128648,13.095362 C 3.8678121,12.221673 2.4941240,12.540826 1.7175116,12.929132 C 0.94090010,13.414515 0.45551713,14.191126 0.26136449,15.356044 C -0.22401760,18.850797 2.6058179,29.792515 4.9356530,32.219426 C 6.5859524,33.869726 16.196526,37.170326 20.273736,38.432321 C 23.865566,39.597240 27.263242,40.665081 29.884307,41.247540 C 34.252749,42.412457 35.514742,42.315381 36.388431,41.829999 C 37.165042,41.441693 41.727638,38.044014 44.931162,27.656831 C 45.416544,26.006532 46.775614,21.055633 46.775614,18.240414 C 46.775614,17.657955 46.678537,17.172574 46.581460,16.784267 C 45.804850,14.939814 44.251625,14.551509 43.280860,14.357354 C 43.086707,14.357354 42.795477,14.260279 42.601326,14.163202 C 42.601326,14.066126 42.601326,13.774897 42.601326,13.677821 C 42.504250,12.804132 42.504250,11.445061 41.242255,10.183067 C 39.203649,8.1444611 34.761633,7.8551293 32.505371,8.3386140 C 31.630371,8.5261140 30.660919,9.2123025 29.981384,9.6976847 z " opacity="1" fill-rule="nonzero" stroke="none" stroke-miterlimit="4" fill="url(#e)" fill-opacity="1"/>
  <path d="M 32.125000,10.468750 C 30.377623,10.954133 29.122376,12.500000 27.375000,12.500000 C 25.627623,12.500000 17.172276,9.7067547 13.968750,10.968750 C 13.013382,11.338570 11.752292,13.332444 10.500000,15.750000 C 6.2767588,14.954287 2.6966400,14.401172 2.1250000,14.718750 C 0.37762335,15.689514 3.4022209,29.120972 5.3437500,31.062500 C 7.2852798,33.004030 33.029106,41.161808 34.750000,40.093750 C 39.790976,36.965112 44.554536,19.306550 43.875000,17.656250 C 43.195465,16.005951 41.349090,16.689516 40.281250,15.718750 C 39.213407,14.650909 40.265322,13.202820 38.906250,11.843750 C 37.547182,10.484680 33.872376,9.9833662 32.125000,10.468750 z " stroke-miterlimit="4" stroke="none" fill-rule="nonzero" fill="url(#f)"/>
</svg>
