<?xml version="1.0" encoding="UTF-8" standalone="no"?>
<svg
   xmlns="http://www.w3.org/2000/svg"
   xmlns:xlink="http://www.w3.org/1999/xlink"
   width="100%" height="100%" id="doh logo"
   viewBox="0 0 156.74 156.74">
  <title>The Department of Happiness</title>

      <g
         transform="matrix(1.8166691e-2,-3.9732377e-2,3.9732377e-2,1.8166691e-2,339.31868,595.39676)"
         id="bomb" class="menuitem">
        <path
           id="path9877"
           style="fill:url(#linearGradient2616);fill-opacity:1;fill-rule:evenodd;stroke:#000000;stroke-width:2.61596203;stroke-linecap:butt;stroke-linejoin:miter;stroke-miterlimit:4;stroke-opacity:1"
           d="M 82.591993,1.3079797 L 50.501988,128.41744 C 44.920206,139.31361 26.258652,177.90838 20.676882,188.80455 C 15.095113,199.70074 15.118957,461.86271 17.01137,476.71581 C 15.142828,555.82546 153.27192,554.05771 153.27192,474.64983 C 154.51763,446.29174 155.76331,200.30187 149.53484,189.75004 C 143.30635,179.19819 122.12954,138.96929 115.90105,128.41744 L 82.591993,1.3079797 z"
            />
        <path
           style="fill:none;fill-rule:evenodd;stroke:#000000;stroke-width:1px;stroke-linecap:butt;stroke-linejoin:miter;stroke-opacity:1"
           d="M 16.133772,477.67106 C 62.049796,496.8651 107.96582,495.19409 153.88184,477.67106"
           id="path3434"
            />
        <path
           id="rect15328"
           style="fill:#c0ba7b;fill-opacity:1;fill-rule:nonzero;stroke:#000000;stroke-width:2.61596155;stroke-linecap:square;stroke-linejoin:bevel;stroke-miterlimit:4;stroke-dashoffset:0;stroke-opacity:1"
           d="M 15.660056,359.12309 L 16.532191,467.19252 L 6.7101041,453.23825 L 6.7101041,373.07736 L 15.660056,359.12309 z" />
        <path
           id="path15362"
           style="fill:url(#linearGradient2608);fill-opacity:1;fill-rule:nonzero;stroke:#000000;stroke-width:2.61596203;stroke-linecap:butt;stroke-linejoin:miter;stroke-miterlimit:4;stroke-opacity:1"
           d="M 161.21916,87.224212 L 105.35256,137.08758 L 105.35256,88.295906 L 161.21916,87.224212 z" />
        <rect
           id="rect16898"
           style="fill:#d0d0d0;fill-opacity:1;fill-rule:nonzero;stroke:#000000;stroke-width:2.61596251;stroke-linecap:square;stroke-linejoin:bevel;stroke-miterlimit:4;stroke-dashoffset:0;stroke-opacity:1"
           y="227.99939"
           x="27.803026"
           height="5.2959375"
           width="110.6551" />
        <rect
           id="rect16896"
           style="fill:#ececec;fill-opacity:1;fill-rule:nonzero;stroke:#000000;stroke-width:2.61596203;stroke-linecap:square;stroke-linejoin:bevel;stroke-miterlimit:4;stroke-dashoffset:0;stroke-opacity:1"
           y="223.29628"
           x="138.15266"
           height="13.950078"
           width="16.008392" />
        <path
           id="path3167"
           style="fill:url(#linearGradient2545);fill-opacity:1;fill-rule:nonzero;stroke:#000000;stroke-width:2.61596203;stroke-linecap:butt;stroke-linejoin:miter;stroke-miterlimit:4;stroke-opacity:1"
           d="M 4.4142711,87.224212 L 60.280873,137.08758 L 60.280873,88.295906 L 4.4142711,87.224212 z" />
        <rect
           id="rect8208"
           style="fill:url(#linearGradient2542);fill-opacity:1;fill-rule:nonzero;stroke:#000000;stroke-width:2.61596322;stroke-linecap:square;stroke-linejoin:bevel;stroke-miterlimit:4;stroke-dashoffset:0;stroke-opacity:1"
           y="-164.89192"
           x="9.7211857"
           height="163.58394"
           width="98.395256"
           transform="matrix(0,1,-1,0,0,0)" />
        <rect
           id="rect2620"
           style="fill:#ececec;fill-opacity:1;fill-rule:nonzero;stroke:#000000;stroke-width:2.61596203;stroke-linecap:square;stroke-linejoin:bevel;stroke-miterlimit:4;stroke-dashoffset:0;stroke-opacity:1"
           y="223.29628"
           x="15.476137"
           height="13.950078"
           width="16.008392" />
        <rect
           id="rect2622"
           style="fill:#ececec;fill-opacity:1;fill-rule:nonzero;stroke:#000000;stroke-width:2.61596203;stroke-linecap:square;stroke-linejoin:bevel;stroke-miterlimit:4;stroke-dashoffset:0;stroke-opacity:1"
           y="223.29628"
           x="54.045609"
           height="13.950078"
           width="16.008392" />
        <rect
           id="rect2624"
           style="fill:#ececec;fill-opacity:1;fill-rule:nonzero;stroke:#000000;stroke-width:2.61596203;stroke-linecap:square;stroke-linejoin:bevel;stroke-miterlimit:4;stroke-dashoffset:0;stroke-opacity:1"
           y="223.29628"
           x="99.961632"
           height="13.950078"
           width="16.008392" />
        <g
           id="g3436"
           style="fill:#4c5125;fill-opacity:1"
           transform="translate(-19.680727,-0.271878)">
          <path
             transform="translate(-17.342277,-2.0133149)"
             d="m 72.547321,485.28949 c 0,2.0287 -1.644585,3.67328 -3.673282,3.67328 -2.028698,0 -3.673282,-1.64458 -3.673282,-3.67328 0,-2.0287 1.644584,-3.67328 3.673282,-3.67328 2.028697,0 3.673282,1.64458 3.673282,3.67328 z"
             
             
             
             
             id="path2626"
             style="opacity:1;fill:#4c5125;fill-opacity:1;fill-rule:nonzero;stroke:#000000;stroke-width:1.39999998;stroke-linecap:square;stroke-linejoin:miter;marker:none;marker-start:none;marker-mid:none;marker-end:none;stroke-miterlimit:4;stroke-dasharray:none;stroke-dashoffset:0;stroke-opacity:1;visibility:visible;display:inline;overflow:visible;enable-background:accumulate"
              />
          <path
             transform="translate(88.196795,-2.3846045)"
             d="m 72.547321,485.28949 c 0,2.0287 -1.644585,3.67328 -3.673282,3.67328 -2.028698,0 -3.673282,-1.64458 -3.673282,-3.67328 0,-2.0287 1.644584,-3.67328 3.673282,-3.67328 2.028697,0 3.673282,1.64458 3.673282,3.67328 z"
             
             
             
             
             id="path2628"
             style="opacity:1;fill:#4c5125;fill-opacity:1;fill-rule:nonzero;stroke:#000000;stroke-width:1.39999998;stroke-linecap:square;stroke-linejoin:miter;marker:none;marker-start:none;marker-mid:none;marker-end:none;stroke-miterlimit:4;stroke-dasharray:none;stroke-dashoffset:0;stroke-opacity:1;visibility:visible;display:inline;overflow:visible;enable-background:accumulate"
              />
          <path
             transform="translate(5.1519349,3.6035937)"
             d="m 72.547321,485.28949 c 0,2.0287 -1.644585,3.67328 -3.673282,3.67328 -2.028698,0 -3.673282,-1.64458 -3.673282,-3.67328 0,-2.0287 1.644584,-3.67328 3.673282,-3.67328 2.028697,0 3.673282,1.64458 3.673282,3.67328 z"
             
             
             
             
             id="path2630"
             style="opacity:1;fill:#4c5125;fill-opacity:1;fill-rule:nonzero;stroke:#000000;stroke-width:1.39999998;stroke-linecap:square;stroke-linejoin:miter;marker:none;marker-start:none;marker-mid:none;marker-end:none;stroke-miterlimit:4;stroke-dasharray:none;stroke-dashoffset:0;stroke-opacity:1;visibility:visible;display:inline;overflow:visible;enable-background:accumulate"
              />
          <path
             transform="translate(61.57342,4.4431348)"
             d="m 72.547321,485.28949 c 0,2.0287 -1.644585,3.67328 -3.673282,3.67328 -2.028698,0 -3.673282,-1.64458 -3.673282,-3.67328 0,-2.0287 1.644584,-3.67328 3.673282,-3.67328 2.028697,0 3.673282,1.64458 3.673282,3.67328 z"
             
             
             
             
             id="path2632"
             style="opacity:1;fill:#4c5125;fill-opacity:1;fill-rule:nonzero;stroke:#000000;stroke-width:1.39999998;stroke-linecap:square;stroke-linejoin:miter;marker:none;marker-start:none;marker-mid:none;marker-end:none;stroke-miterlimit:4;stroke-dasharray:none;stroke-dashoffset:0;stroke-opacity:1;visibility:visible;display:inline;overflow:visible;enable-background:accumulate"
              />
          <path
             transform="translate(32.234472,6.5813772)"
             d="m 72.547321,485.28949 c 0,2.0287 -1.644585,3.67328 -3.673282,3.67328 -2.028698,0 -3.673282,-1.64458 -3.673282,-3.67328 0,-2.0287 1.644584,-3.67328 3.673282,-3.67328 2.028697,0 3.673282,1.64458 3.673282,3.67328 z"
             
             
             
             
             id="path2634"
             style="opacity:1;fill:#4c5125;fill-opacity:1;fill-rule:nonzero;stroke:#000000;stroke-width:1.39999998;stroke-linecap:square;stroke-linejoin:miter;marker:none;marker-start:none;marker-mid:none;marker-end:none;stroke-miterlimit:4;stroke-dasharray:none;stroke-dashoffset:0;stroke-opacity:1;visibility:visible;display:inline;overflow:visible;enable-background:accumulate"
              />
        </g>
        <text
           xml:space="preserve"
           style="font-size:40px;font-style:normal;font-variant:normal;font-weight:normal;font-stretch:normal;text-align:start;text-anchor:start;fill:#000000;fill-opacity:1;stroke:none;stroke-width:0.50000006;stroke-linecap:butt;stroke-linejoin:miter;stroke-miterlimit:4;stroke-dasharray:none;stroke-opacity:1;font-family:Times New Roman;-inkscape-font-specification:'Times New Roman,'"
           x="84.485481"
           y="44.223759"
           id="text3443"><tspan
             
             id="tspan3445"
             x="84.485481"
             y="44.223759"
             style="font-size:28px;font-style:normal;font-variant:normal;font-weight:normal;font-stretch:normal;text-align:center;line-height:125%;writing-mode:lr-tb;text-anchor:middle;fill:#ffffff;fill-opacity:1;stroke:#5d5d5d;stroke-width:0.50000006;stroke-miterlimit:4;stroke-dasharray:none;stroke-opacity:1;font-family:DIST Inking;-inkscape-font-specification:DIST Inking">Hi there!</tspan></text>
      </g>
</svg>
