<?xml version="1.0" encoding="UTF-8" standalone="no"?>
<svg
   xmlns:dc="http://purl.org/dc/elements/1.1/"
   xmlns:cc="http://creativecommons.org/ns#"
   xmlns:rdf="http://www.w3.org/1999/02/22-rdf-syntax-ns#"
   xmlns:svg="http://www.w3.org/2000/svg"
   xmlns="http://www.w3.org/2000/svg"
   xmlns:sodipodi="http://sodipodi.sourceforge.net/DTD/sodipodi-0.dtd"
   xmlns:inkscape="http://www.inkscape.org/namespaces/inkscape"
   version="1.1"
   id="Layer_1"
   viewBox="0 0 228.77903 196.85721"
   overflow="visible"
   enable-background="new 0 0 370.535 347.657"
   xml:space="preserve"
   inkscape:version="0.48.4 r9939"
   width="100%"
   height="100%"
   sodipodi:docname="johnny_automatic_potatoes.svg"
   style="overflow:visible"><metadata
     id="metadata7608"><rdf:RDF><cc:Work
         rdf:about=""><dc:format>image/svg+xml</dc:format><dc:type
           rdf:resource="http://purl.org/dc/dcmitype/StillImage" /><dc:title></dc:title></cc:Work></rdf:RDF></metadata><defs
     id="defs7606" /><sodipodi:namedview
     pagecolor="#ffffff"
     bordercolor="#666666"
     borderopacity="1"
     objecttolerance="10"
     gridtolerance="10"
     guidetolerance="10"
     inkscape:pageopacity="0"
     inkscape:pageshadow="2"
     inkscape:window-width="1855"
     inkscape:window-height="1056"
     id="namedview7604"
     showgrid="false"
     fit-margin-top="0"
     fit-margin-left="0"
     fit-margin-right="0"
     fit-margin-bottom="0"
     inkscape:zoom="2.71532"
     inkscape:cx="-0.76041245"
     inkscape:cy="77.849449"
     inkscape:window-x="65"
     inkscape:window-y="24"
     inkscape:window-maximized="1"
     inkscape:current-layer="Layer_1" /><g
     id="g7684"
     transform="translate(-119.6273,-124.92575)"><path
       clip-rule="evenodd"
       d="m 272.08075,136.45263 c 2.997,-0.323 4.929,0.419 4.584,3.438 -1.964,2.069 -4.506,-0.352 -4.584,-3.438 z"
       id="path7512"
       inkscape:connector-curvature="0"
       style="fill:#4b3900;fill-rule:evenodd" /><path
       clip-rule="evenodd"
       d="m 282.39275,138.74363 c 2.54,-0.63 1.633,2.188 3.438,2.292 -2.542,2.227 -6.381,8.028 -9.166,3.438 -0.157,-3.975 5.803,-1.834 5.728,-5.73 z"
       id="path7516"
       inkscape:connector-curvature="0"
       style="fill:#4b3900;fill-rule:evenodd" /><path
       clip-rule="evenodd"
       d="m 260.62375,154.78563 c 1.255,3.083 0.215,5.875 -1.146,9.166 -7.857,-1.69 -13.395,-5.703 -18.332,-10.311 3.248,-7.578 14.315,-0.031 19.478,1.145 z"
       id="path7530"
       inkscape:connector-curvature="0"
       style="fill:#4b3900;fill-rule:evenodd" /><path
       clip-rule="evenodd"
       d="m 329.36975,165.09763 c 1.146,0 2.291,0 3.438,0 0,1.909 0,3.819 0,5.728 -2.365,-1.835 -7.343,-1.06 -8.021,-4.583 1.852,-0.323 1.975,1.083 3.438,1.146 1.114,-0.032 0.89,-1.402 1.145,-2.291 z"
       id="path7554"
       inkscape:connector-curvature="0"
       style="fill:#4b3900;fill-rule:evenodd" /><path
       clip-rule="evenodd"
       d="m 328.22375,171.97163 c 2.396,-0.485 3.035,0.786 4.584,1.146 -1.964,4.801 -1.604,5.113 -1.146,11.458 -5.546,-0.565 -5.941,-6.279 -9.166,-9.167 3.652,-0.978 4.349,0.998 5.729,2.292 3.361,-0.974 -1.491,-2.884 -10e-4,-5.729 z"
       id="path7562"
       inkscape:connector-curvature="0"
       style="fill:#4b3900;fill-rule:evenodd" /><path
       clip-rule="evenodd"
       d="m 322.49475,182.28463 c 4.411,-0.903 4.411,5.486 0,4.583 0,-1.528 0,-3.056 0,-4.583 z"
       id="path7568"
       inkscape:connector-curvature="0"
       style="fill:#4b3900;fill-rule:evenodd" /><path
       clip-rule="evenodd"
       d="m 332.80775,193.74163 c -5.04,1.46 -7.292,-2.885 -4.584,-5.729 3.602,-0.165 3.936,2.939 4.584,5.729 z"
       id="path7570"
       inkscape:connector-curvature="0"
       style="fill:#4b3900;fill-rule:evenodd" /><path
       clip-rule="evenodd"
       d="m 320.20375,207.49063 c -1.59,11.014 -8.96,16.247 -18.333,19.479 -0.575,-6.305 5.102,-6.357 6.875,-10.312 -0.275,-3.161 -3.378,-3.496 -5.729,-4.583 -1.215,-12.553 12.878,-12.026 17.187,-4.584 z"
       id="path7572"
       inkscape:connector-curvature="0"
       style="fill:#4b3900;fill-rule:evenodd" /><path
       clip-rule="evenodd"
       d="m 249.16475,226.96963 c 2.017,0.276 2.613,1.972 2.291,4.583 -1.145,0 -2.29,0 -3.436,0 -0.484,-2.395 0.785,-3.034 1.145,-4.583 z"
       id="path7574"
       inkscape:connector-curvature="0"
       style="fill:#4b3900;fill-rule:evenodd" /><path
       clip-rule="evenodd"
       d="m 282.39275,229.26163 c 1.021,-0.89 2.589,-1.232 4.584,-1.146 0.25,4.171 5.224,7.688 2.291,11.457 -6.221,-1.385 -2.91,-5.998 -6.875,-10.311 z"
       id="path7576"
       inkscape:connector-curvature="0"
       style="fill:#4b3900;fill-rule:evenodd" /><path
       clip-rule="evenodd"
       d="m 155.21175,245.30163 c 0.665,4.485 -0.985,6.653 -2.292,9.166 -5.697,0.903 -6.447,0.353 -11.457,-1.145 -5.599,-11.221 8.921,-16.381 13.749,-8.021 z"
       id="path7578"
       inkscape:connector-curvature="0"
       style="fill:#4b3900;fill-rule:evenodd" /><path
       clip-rule="evenodd"
       d="m 194.16875,273.94563 c -4.84,-2.798 -9.09,-6.188 -12.604,-10.312 0.371,-26.608 29.325,-0.446 12.604,10.312 z"
       id="path7580"
       inkscape:connector-curvature="0"
       style="fill:#4b3900;fill-rule:evenodd" /><path
       clip-rule="evenodd"
       d="m 218.23075,259.05163 c 1.673,0.999 4.437,0.91 3.437,4.582 -1.527,0 -3.055,0 -4.583,0 -0.486,-2.394 0.784,-3.034 1.146,-4.582 z"
       id="path7582"
       inkscape:connector-curvature="0"
       style="fill:#4b3900;fill-rule:evenodd" /><path
       clip-rule="evenodd"
       d="m 168.96275,263.63363 c 2.015,0.277 2.61,1.972 2.291,4.583 -1.147,0 -2.291,0 -3.438,0 -0.485,-2.395 0.785,-3.033 1.147,-4.583 z"
       id="path7584"
       inkscape:connector-curvature="0"
       style="fill:#4b3900;fill-rule:evenodd" /><path
       clip-rule="evenodd"
       d="m 164.37875,267.07063 c 2.939,0.117 1.841,4.271 3.437,5.729 12.01,-5.447 14.095,7.846 9.166,17.186 -4.774,-1.218 -5.053,-0.296 -10.312,0 0.714,-6.276 -0.667,-16.708 -5.729,-20.622 0.924,-0.986 3.138,-0.681 3.438,-2.293 z"
       id="path7586"
       inkscape:connector-curvature="0"
       style="fill:#4b3900;fill-rule:evenodd" /><path
       clip-rule="evenodd"
       d="m 156.35775,272.80063 c 6.836,0.251 11.572,17.612 4.584,20.623 -0.46,-5.572 -3.274,-12.786 -4.584,-20.623 z"
       id="path7588"
       inkscape:connector-curvature="0"
       style="fill:#4b3900;fill-rule:evenodd" /><path
       clip-rule="evenodd"
       d="m 150.62875,293.42363 c 0.756,1.575 3.745,10.74 5.729,14.896 -5,0.801 -5.094,-3.307 -9.166,-3.437 -0.045,-5.01 4.169,-5.76 3.437,-11.459 z"
       id="path7590"
       inkscape:connector-curvature="0"
       style="fill:#f6e7a1;fill-rule:evenodd" /><path
       sodipodi:nodetypes="cccccccccccccccccccccccccccccccccccccccccccccccccccccccccccccccccccccccccccccccccccccccccccccccccccccccccc"
       clip-rule="evenodd"
       d="m 291.55875,127.28663 c 3.76,1.97 7.846,3.613 13.75,3.437 8.716,10.515 21.465,10.402 30.936,20.625 20.136,21.73 11.763,64.467 0,89.371 -22.19559,40.36885 -33.5727,37.39622 -51.55972,51.23316 -63.20796,31.47353 -118.90494,41.03067 -147.80628,14.07584 -9.882,-9.724 -20.972,-23.923 -16.041,-44.686 -0.50647,-24.9772 0.76648,-52.91264 48.71496,-70.50682 -7.53363,-1.74177 15.55694,-19.99352 39.31543,-29.97632 -4.23268,-7.25356 -0.99356,-9.3192 11.89419,-14.74196 16.20227,-17.57602 60.2904,-25.52981 70.79642,-18.8309 z m 49.267,63.018 c -12.804,0.565 0.671,-21.281 -5.728,-28.644 -1.972,-0.452 -2.938,1.7 -3.438,0 -5.514,-7.471 -10.494,-15.477 -22.915,-16.041 -14.956,-15.192 -38.687,-14.793 -63.018,-9.167 -10.283,5.387 -20.484,20.442 -32.081,17.188 -4.286,4.968 1.611,6.812 -1.147,12.603 -16.05519,3.01284 -41.38686,12.59943 -38.956,28.646 -21.001,0.387 -28.207,14.568 -40.103,24.061 -0.55,8.234 -2.61,14.957 -8.02,18.332 1.797,12.96 -4.663,28.592 2.291,38.957 2.154,-3.575 2.92,-8.538 8.021,-9.167 5.343,4.44 1.38,11.148 4.583,17.187 -1.464,1.591 -5.41,0.7 -6.875,2.291 -0.549,3.604 1.632,4.479 2.292,6.875 4.062,0.242 2.262,-5.374 6.875,-4.583 0,3.819 0,7.639 0,11.459 5.905,-3.643 2.479,-13.665 2.292,-18.333 2.336,-2.302 2.246,0.507 4.582,1.146 0.627,-1.665 -1.338,-5.923 1.146,-5.73 4,3.504 6.792,13.498 4.583,19.479 5.17,1.706 9.027,4.722 12.604,8.021 1.319,-2.501 0.228,-7.412 3.438,-8.021 3.556,8.18 -2.176,13.021 -1.147,18.333 8.842,-0.708 3.879,-15.22 9.166,-19.478 3.231,5.721 -3.058,16.221 -1.144,20.624 9.912,-8.44 5.186,-25.358 3.437,-38.958 1.577,0.05 2.516,-0.539 3.438,-1.145 6.953,2.585 8.594,0.221 14.894,0 2.13,3.272 5.694,14.54 1.147,17.186 -3.724,-0.702 -7.218,-1.589 -9.166,-1.145 3.175,7.119 1.245,15.778 -2.293,21.77 -5.899,-3.59 2.6,-9.298 -1.146,-12.604 -1.48,4.631 -3.131,9.089 -3.437,14.896 4.173,0.354 7.456,-0.184 10.311,-1.146 3.016,-5.771 2.979,-14.591 9.167,-17.188 0.839,8.095 -5.188,9.326 -4.584,17.188 10.631,-6.685 9.065,-25.046 6.876,-38.956 8.521,5.609 4.308,25.531 4.584,33.229 6.828,-11.077 2.244,-22.254 3.437,-33.229 3.824,2.085 3.968,5.984 8.021,2.292 4.901,7.01 1.119,18.896 3.437,26.353 5.655,-8.635 0.167,-18.997 3.438,-26.353 5.845,2.815 3.239,16.687 2.291,22.915 11.241,-4.264 3.34,-21.213 6.875,-32.081 1.971,-0.062 2.938,0.881 3.437,2.291 -6.958,10.312 7.242,17.729 1.146,27.498 11.092,-6.391 14.119,-30.774 6.875,-42.395 -1.971,5.411 1.08,13.465 -1.146,19.479 -6.562,-0.313 -2.148,-11.601 -3.437,-17.187 -2.346,-3.046 -5.971,-9.483 -4.583,-12.604 4.281,-1.224 3.266,2.846 6.875,2.292 -0.13,-4.071 -4.238,-4.165 -3.439,-9.167 15.464,9.486 14.814,34.005 10.314,50.414 6.578,-0.295 2.291,-11.456 6.873,-13.748 5.431,4.735 -1.382,14.825 -3.436,19.479 11.858,0.4 14.514,-8.401 17.185,-17.187 -6.48,1.539 -6.015,10.024 -11.456,12.602 7.083,-20.196 -5.532,-41.905 -10.312,-56.143 5.907,0.966 5.083,8.666 10.312,10.312 0.215,2.34 3.737,-4.211 4.582,1.146 -0.172,2.12 -3.878,0.704 -4.582,2.292 1.007,2.811 1.031,6.607 4.582,6.875 -2.158,-3.986 0.568,-5.093 3.438,-6.875 -3.773,-7.312 -5.624,-22.624 -5.729,-29.79 8.993,12.776 7.971,35.568 16.04,49.268 -1.378,5.901 -5.939,14.656 -4.584,19.479 21.354,-16.666 -7.875,-49.057 1.147,-60.726 1.582,2.238 1.604,6.033 4.583,6.875 -4.265,10.431 6.688,22.312 6.875,37.811 3.769,-9.856 1.395,-18.972 1.145,-26.354 5.144,0.968 3.161,9.061 4.585,13.75 7.928,-0.187 -0.062,-12.398 3.437,-14.896 5.812,7.34 4.565,14.78 2.291,24.062 13.22,-6.889 -1.397,-26.564 3.438,-33.228 1.753,8.941 7.222,14.168 5.729,26.354 8.738,-4.861 -4.954,-23.062 1.146,-28.645 4.724,4.825 3.866,15.229 6.875,21.77 5.896,-8.539 -5.73,-19.385 0,-24.062 3.719,0.864 1.77,7.396 5.728,8.021 0.646,-5.229 -2.029,-7.136 -1.145,-12.604 1.996,-0.086 3.562,0.257 4.582,1.146 -0.014,-3.526 -4.972,-8.684 0,-10.312 1.527,-0.171 3.459,4.659 4.584,1.146 -4.237,-4.701 3.449,-3.715 4.584,-4.584 -1.557,-2.646 -3.295,-5.108 -3.439,-9.166 -4.331,-1.658 -2.197,3.148 -5.729,2.292 1.959,-3.923 -2.047,-8.702 5.729,-8.021 -0.895,5.097 1.081,7.322 5.73,6.875 -0.045,-6.065 -6.26,-5.963 -6.875,-11.458 2.065,-2.804 8.273,3.089 8.017,-3.439 z m -193.634,114.578 c 4.072,0.13 4.166,4.237 9.166,3.437 -1.984,-4.155 -4.973,-13.32 -5.729,-14.896 0.732,5.699 -3.482,6.449 -3.437,11.459 z"
       id="path7596"
       inkscape:connector-curvature="0"
       style="fill:#4b3900;fill-rule:evenodd" /><path
       clip-rule="evenodd"
       d="m 332.80775,193.74163 c 0.615,5.495 6.83,5.393 6.875,11.458 -4.649,0.447 -6.625,-1.778 -5.73,-6.875 -7.775,-0.682 -3.77,4.098 -5.729,8.021 3.531,0.856 1.397,-3.95 5.729,-2.292 0.145,4.058 1.883,6.521 3.439,9.166 -1.135,0.869 -8.821,-0.117 -4.584,4.584 -1.125,3.513 -3.057,-1.317 -4.584,-1.146 -4.972,1.629 -0.014,6.786 0,10.312 -1.02,-0.89 -2.586,-1.232 -4.582,-1.146 -0.885,5.469 1.791,7.375 1.145,12.604 -3.958,-0.625 -2.009,-7.157 -5.728,-8.021 -5.73,4.677 5.896,15.522 0,24.062 -3.009,-6.54 -2.151,-16.944 -6.875,-21.77 -6.101,5.582 7.592,23.783 -1.146,28.645 1.493,-12.186 -3.976,-17.412 -5.729,-26.354 -4.835,6.663 9.782,26.339 -3.438,33.228 2.274,-9.281 3.521,-16.722 -2.291,-24.062 -3.498,2.498 4.491,14.71 -3.437,14.896 -1.424,-4.689 0.559,-12.782 -4.585,-13.75 0.25,7.382 2.624,16.497 -1.145,26.354 -0.188,-15.499 -11.14,-27.38 -6.875,-37.811 -2.979,-0.842 -3.001,-4.637 -4.583,-6.875 -9.022,11.669 20.207,44.06 -1.147,60.726 -1.355,-4.822 3.206,-13.577 4.584,-19.479 -8.069,-13.699 -7.047,-36.491 -16.04,-49.268 0.104,7.166 1.955,22.478 5.729,29.79 -2.869,1.782 -5.596,2.889 -3.438,6.875 -3.551,-0.268 -3.575,-4.064 -4.582,-6.875 0.704,-1.588 4.41,-0.172 4.582,-2.292 -0.845,-5.356 -4.367,1.194 -4.582,-1.146 -5.229,-1.646 -4.404,-9.347 -10.312,-10.312 4.779,14.237 17.395,35.946 10.312,56.143 5.441,-2.577 4.976,-11.062 11.456,-12.602 -2.671,8.785 -5.326,17.587 -17.185,17.187 2.054,-4.653 8.866,-14.743 3.436,-19.479 -4.582,2.292 -0.295,13.453 -6.873,13.748 4.5,-16.409 5.149,-40.928 -10.314,-50.414 -0.799,5.002 3.31,5.096 3.439,9.167 -3.609,0.554 -2.594,-3.516 -6.875,-2.292 -1.388,3.121 2.237,9.559 4.583,12.604 1.288,5.586 -3.125,16.873 3.437,17.187 2.227,-6.015 -0.824,-14.068 1.146,-19.479 7.244,11.62 4.217,36.004 -6.875,42.395 6.096,-9.77 -8.104,-17.186 -1.146,-27.498 -0.499,-1.41 -1.466,-2.353 -3.437,-2.291 -3.535,10.868 4.366,27.817 -6.875,32.081 0.948,-6.229 3.554,-20.1 -2.291,-22.915 -3.271,7.355 2.218,17.718 -3.438,26.353 -2.317,-7.457 1.465,-19.343 -3.437,-26.353 -4.053,3.692 -4.196,-0.207 -8.021,-2.292 -1.192,10.975 3.392,22.151 -3.437,33.229 -0.276,-7.697 3.938,-27.619 -4.584,-33.229 2.189,13.91 3.755,32.271 -6.876,38.956 -0.604,-7.861 5.423,-9.093 4.584,-17.188 -6.188,2.597 -6.151,11.417 -9.167,17.188 -2.854,0.963 -6.138,1.5 -10.311,1.146 0.306,-5.807 1.956,-10.265 3.437,-14.896 3.745,3.306 -4.754,9.014 1.146,12.604 3.538,-5.991 5.468,-14.65 2.293,-21.77 1.948,-0.444 5.442,0.442 9.166,1.145 4.547,-2.646 0.982,-13.913 -1.147,-17.186 -6.3,0.221 -7.94,2.585 -14.894,0 -0.922,0.605 -1.86,1.194 -3.438,1.145 1.749,13.6 6.476,30.518 -3.437,38.958 -1.914,-4.403 4.375,-14.903 1.144,-20.624 -5.287,4.258 -0.324,18.77 -9.166,19.478 -1.028,-5.312 4.703,-10.153 1.147,-18.333 -3.211,0.609 -2.119,5.521 -3.438,8.021 -3.576,-3.3 -7.434,-6.315 -12.604,-8.021 2.209,-5.98 -0.583,-15.975 -4.583,-19.479 -2.483,-0.192 -0.518,4.065 -1.146,5.73 -2.336,-0.64 -2.246,-3.448 -4.582,-1.146 0.187,4.668 3.614,14.69 -2.292,18.333 0,-3.82 0,-7.64 0,-11.459 -4.613,-0.791 -2.813,4.825 -6.875,4.583 -0.661,-2.396 -2.841,-3.271 -2.292,-6.875 1.465,-1.591 5.411,-0.7 6.875,-2.291 -3.202,-6.038 0.761,-12.746 -4.583,-17.187 -5.102,0.629 -5.868,5.592 -8.021,9.167 -6.954,-10.365 -0.494,-25.997 -2.291,-38.957 5.41,-3.375 7.47,-10.098 8.02,-18.332 11.896,-9.492 19.102,-23.674 40.103,-24.061 -0.365,-2.691 -1.811,-4.302 -1.146,-8.021 11.749,-8.495 20.883,-19.604 40.102,-20.625 2.759,-5.792 -3.139,-7.635 1.147,-12.603 11.597,3.255 21.798,-11.801 32.081,-17.188 24.331,-5.626 48.062,-6.025 63.018,9.167 12.421,0.564 17.401,8.569 22.915,16.041 0.5,1.7 1.466,-0.452 3.438,0 6.398,7.363 -7.076,29.209 5.728,28.644 0.257,6.53 -5.951,0.637 -8.017,3.439 z m -4.584,-5.728 c -2.708,2.844 -0.456,7.188 4.584,5.729 -0.648,-2.791 -0.982,-5.895 -4.584,-5.729 z m -38.956,51.558 c 2.933,-3.769 -2.041,-7.286 -2.291,-11.457 -1.995,-0.086 -3.562,0.257 -4.584,1.146 3.965,4.314 0.654,8.927 6.875,10.311 z m -12.603,-99.681 c 0.345,-3.019 -1.587,-3.761 -4.584,-3.438 0.078,3.086 2.62,5.507 4.584,3.438 z m 0,4.583 c 2.785,4.59 6.624,-1.211 9.166,-3.438 -1.806,-0.104 -0.898,-2.923 -3.438,-2.292 0.075,3.896 -5.885,1.755 -5.728,5.73 z m -35.519,9.167 c 4.938,4.608 10.475,8.621 18.332,10.311 1.361,-3.291 2.401,-6.083 1.146,-9.166 -5.163,-1.176 -16.23,-8.723 -19.478,-1.145 z m 87.078,13.748 c -1.463,-0.063 -1.586,-1.469 -3.438,-1.146 0.679,3.523 5.656,2.747 8.021,4.583 0,-1.909 0,-3.819 0,-5.728 -1.146,0 -2.291,0 -3.438,0 -0.254,0.889 -0.03,2.259 -1.145,2.291 z m 0,10.312 c -1.38,-1.294 -2.076,-3.27 -5.729,-2.292 3.225,2.888 3.62,8.602 9.166,9.167 -0.457,-6.345 -0.817,-6.657 1.146,-11.458 -1.549,-0.36 -2.188,-1.631 -4.584,-1.146 -1.489,2.845 3.363,4.755 10e-4,5.729 z m -5.729,9.167 c 4.411,0.902 4.411,-5.487 0,-4.583 0,1.527 0,3.055 0,4.583 z m -19.477,25.206 c 2.351,1.087 5.453,1.422 5.729,4.583 -1.773,3.955 -7.45,4.008 -6.875,10.312 9.373,-3.231 16.743,-8.465 18.333,-19.479 -4.31,-7.441 -18.403,-7.968 -17.187,4.584 z m -12.604,17.188 c -0.531,3.587 0.995,5.114 4.582,4.583 -1.206,-6.762 1.968,-4.788 4.584,-5.729 0.086,-1.996 -0.256,-3.562 -1.147,-4.583 -4.512,0.069 -3.068,6.095 -8.019,5.729 z m -42.393,2.291 c 1.146,0 2.291,0 3.436,0 0.322,-2.611 -0.274,-4.307 -2.291,-4.583 -0.361,1.549 -1.63,2.188 -1.145,4.583 z m -106.558,21.77 c 5.009,1.497 5.76,2.048 11.457,1.145 1.308,-2.513 2.957,-4.681 2.292,-9.166 -4.828,-8.36 -19.348,-3.2 -13.749,8.021 z m 40.103,10.311 c 3.514,4.124 7.764,7.515 12.604,10.312 16.72,-10.758 -12.234,-36.92 -12.604,-10.312 z m 35.518,0 c 1.528,0 3.056,0 4.583,0 1,-3.672 -1.764,-3.583 -3.437,-4.582 -0.361,1.548 -1.631,2.188 -1.146,4.582 z m -49.268,4.583 c 1.147,0 2.291,0 3.438,0 0.319,-2.611 -0.276,-4.306 -2.291,-4.583 -0.362,1.55 -1.632,2.188 -1.147,4.583 z m -6.874,1.147 c 5.062,3.914 6.442,14.346 5.729,20.622 5.259,-0.296 5.537,-1.218 10.312,0 4.929,-9.34 2.844,-22.633 -9.166,-17.186 -1.596,-1.459 -0.497,-5.612 -3.437,-5.729 -0.301,1.612 -2.515,1.307 -3.438,2.293 z m 0,24.06 c 6.988,-3.011 2.252,-20.372 -4.584,-20.623 1.31,7.837 4.124,15.051 4.584,20.623 z"
       id="path7598"
       inkscape:connector-curvature="0"
       style="fill:#f6e7a1;fill-rule:evenodd" /><path
       clip-rule="evenodd"
       d="m 298.43275,223.53163 c 0.892,1.021 1.233,2.587 1.147,4.583 -2.616,0.941 -5.79,-1.032 -4.584,5.729 -3.587,0.531 -5.113,-0.996 -4.582,-4.583 4.951,0.367 3.507,-5.659 8.019,-5.729 z"
       id="path7600"
       inkscape:connector-curvature="0"
       style="fill:#4b3900;fill-rule:evenodd" /></g></svg>